<?xml version="1.0" encoding="UTF-8" standalone="no"?>
<svg xmlns:xlink="http://www.w3.org/1999/xlink" height="117.85px" width="590.95px" xmlns="http://www.w3.org/2000/svg">
  <g transform="matrix(1.0, 0.0, 0.0, 1.0, 174.7, 44.55)">
    <use height="69.75" transform="matrix(0.7898, 0.0, 0.0, 0.7898, -119.6248, 18.2095)" width="277.55" xlink:href="#shape0"/>
    <use height="30.75" transform="matrix(0.7898, 0.0, 0.0, 0.7898, -117.6, 18.55)" width="27.8" xlink:href="#shape1"/>
    <clipPath id="clipPath0" transform="matrix(1.0, 0.0, 0.0, 1.0, 174.7, 44.55)">
      <use height="200.05" transform="matrix(0.0679, 0.0, 0.0, 0.2469, 45.3448, -44.5726)" width="516.15" xlink:href="#shape2"/>
    </clipPath>
    <g clip-path="url(#clipPath0)">
      <use height="49.85" transform="matrix(1.0, 0.0, 0.0, 1.0, -62.55, -44.15)" width="366.6" xlink:href="#shape3"/>
    </g>
    <use height="49.95" transform="matrix(1.0, 0.0, 0.0, 1.0, -94.5, -44.15)" width="131.1" xlink:href="#shape4"/>
  </g>
  <defs>
    <g id="shape0" transform="matrix(1.0, 0.0, 0.0, 1.0, 3.45, -4.95)">
      <path d="M271.2 6.3 L271.75 7.05 Q272.5 8.15 272.5 9.45 L272.5 45.45 Q272.55 47.45 271.2 48.65 L270.5 49.15 Q268.8 50.2 266.65 49.95 269.25 51.45 271.25 53.8 274.0 57.1 274.1 61.45 274.15 64.3 272.6 66.7 267.2 75.25 257.15 74.55 250.4 74.0 246.1 68.8 242.95 65.0 243.65 60.05 244.6 53.25 250.8 49.95 248.8 50.2 247.1 49.15 L246.4 48.6 Q245.1 47.25 245.0 45.45 L245.0 9.45 Q245.15 8.6 245.45 7.8 246.35 5.6 248.65 5.05 L268.0 4.95 Q269.9 4.95 271.2 6.3 M269.35 59.45 Q269.35 55.7 266.2 53.15 263.1 50.55 258.55 50.6 254.15 50.6 250.95 53.15 247.85 55.7 247.85 59.35 247.85 62.85 250.95 65.55 254.25 68.05 258.55 68.1 262.85 68.05 266.1 65.55 269.3 63.0 269.35 59.45 M249.45 43.45 L267.95 43.45 267.95 7.45 249.45 7.45 249.45 43.45 M236.2 17.75 Q240.3 22.65 241.25 29.0 242.4 36.35 238.5 42.5 236.15 46.25 232.25 48.2 L244.0 67.8 Q245.7 71.45 242.35 73.8 L241.05 74.4 217.25 73.1 Q216.75 73.15 216.45 72.75 214.35 70.3 213.25 67.45 213.3 70.65 211.9 73.1 211.35 74.15 210.4 74.3 199.7 74.8 188.95 74.35 L186.9 73.6 Q174.55 75.3 162.2 73.7 161.6 73.65 161.15 73.15 160.0 71.7 159.7 70.0 L159.25 67.35 153.7 67.35 Q153.35 70.55 151.65 73.15 150.9 74.25 149.45 74.7 L132.3 74.55 124.9 74.6 89.35 74.6 Q87.8 74.75 86.6 73.65 85.75 74.2 84.8 74.35 L83.65 74.6 50.15 74.6 Q46.0 74.3 45.65 70.05 42.25 73.5 37.35 74.05 26.6 75.9 16.5 72.05 5.45 67.9 0.25 57.5 -4.25 48.45 -3.3 38.5 -1.9 23.3 10.4 14.65 16.2 10.65 23.0 9.15 32.4 7.15 42.1 9.35 44.4 9.8 45.8 11.95 46.6 9.15 49.35 8.7 L56.9 8.25 Q64.4 7.45 71.75 9.35 72.8 9.55 73.35 10.55 73.95 11.55 73.8 12.7 L73.8 51.85 84.85 52.05 84.85 12.7 Q85.25 8.65 89.35 8.2 L124.9 8.2 Q128.45 8.45 128.8 11.9 L129.25 19.2 129.25 27.1 Q129.15 28.75 128.15 29.8 127.15 30.75 125.75 30.9 127.15 32.05 127.35 33.75 128.3 42.4 126.65 50.7 L125.9 51.95 Q127.9 52.45 128.8 54.1 L141.45 11.45 Q142.05 10.05 144.25 8.7 L151.15 8.3 170.65 8.6 Q172.0 9.0 172.75 10.25 L173.5 11.55 185.2 56.35 185.2 12.7 Q185.45 10.05 187.9 8.9 188.75 8.55 189.7 8.3 204.5 7.6 219.2 9.45 L223.2 9.9 Q231.0 11.6 236.2 17.75 M216.15 33.55 Q213.25 37.1 208.8 36.4 L208.8 22.7 Q213.35 22.2 216.4 25.5 219.3 29.65 216.15 33.55 M208.55 44.2 L209.4 46.25 209.9 47.65 219.35 68.1 240.05 68.1 225.8 44.2 Q236.8 40.25 236.8 29.85 236.8 20.1 228.6 14.85 222.2 10.7 209.25 10.7 L189.65 10.7 189.65 68.1 208.7 68.1 208.55 44.2 M162.9 60.85 L164.3 68.1 184.1 68.1 169.1 10.7 145.7 10.7 128.65 68.1 148.45 68.1 150.0 60.85 162.9 60.85 M124.85 24.45 L124.85 10.7 89.3 10.7 89.3 68.1 124.85 68.1 124.85 54.35 108.45 54.35 108.45 46.35 123.15 46.35 123.15 32.6 108.45 32.6 108.45 24.45 124.85 24.45 M160.65 48.85 L152.55 48.85 Q155.55 36.8 157.05 24.75 L160.65 48.85 M83.6 68.1 L83.6 54.35 69.25 54.35 69.25 10.7 50.1 10.7 50.1 68.1 83.6 68.1 M43.0 34.3 Q40.2 34.65 37.9 32.75 35.15 30.55 31.55 31.4 27.3 32.45 25.8 36.75 23.7 42.65 26.7 48.1 27.25 49.15 28.2 49.95 31.6 53.05 36.0 51.2 37.45 50.65 38.6 49.7 42.05 47.05 45.65 49.25 L45.65 32.3 Q44.75 33.85 43.0 34.3 M41.75 27.9 L41.75 12.05 Q27.3 8.2 14.25 15.35 7.9 18.9 4.35 25.35 1.45 30.6 0.95 36.4 0.1 46.0 4.75 54.55 8.15 60.85 14.35 64.25 22.85 68.95 32.7 68.0 37.15 67.55 41.5 66.15 L42.6 50.6 Q36.4 55.6 28.7 53.6 24.4 52.35 22.55 48.3 19.15 40.95 21.35 33.3 23.1 27.15 29.05 25.2 35.95 23.15 41.75 27.9" fill="#000000" fill-rule="evenodd" stroke="none"/>
      <path d="M249.45 43.45 L249.45 7.45 267.95 7.45 267.95 43.45 249.45 43.45 M269.35 59.45 Q269.3 63.0 266.1 65.55 262.85 68.05 258.55 68.1 254.25 68.05 250.95 65.55 247.85 62.85 247.85 59.35 247.85 55.7 250.95 53.15 254.15 50.6 258.55 50.6 263.1 50.55 266.2 53.15 269.35 55.7 269.35 59.45" fill="url(#gradient0)" fill-rule="evenodd" stroke="none"/>
      <path d="M208.55 44.2 L208.7 68.1 189.65 68.1 189.65 10.7 209.25 10.7 Q222.2 10.7 228.6 14.85 236.8 20.1 236.8 29.85 236.8 40.25 225.8 44.2 L240.05 68.1 219.35 68.1 209.9 47.65 209.4 46.25 208.55 44.2 M216.15 33.55 Q219.3 29.65 216.4 25.5 213.35 22.2 208.8 22.7 L208.8 36.4 Q213.25 37.1 216.15 33.55" fill="url(#gradient1)" fill-rule="evenodd" stroke="none"/>
      <path d="M162.9 60.85 L150.0 60.85 148.45 68.1 128.65 68.1 145.7 10.7 169.1 10.7 184.1 68.1 164.3 68.1 162.9 60.85 M160.65 48.85 L157.05 24.75 Q155.55 36.8 152.55 48.85 L160.65 48.85" fill="url(#gradient2)" fill-rule="evenodd" stroke="none"/>
      <path d="M124.85 24.45 L108.45 24.45 108.45 32.6 123.15 32.6 123.15 46.35 108.45 46.35 108.45 54.35 124.85 54.35 124.85 68.1 89.3 68.1 89.3 10.7 124.85 10.7 124.85 24.45" fill="url(#gradient3)" fill-rule="evenodd" stroke="none"/>
      <path d="M83.6 68.1 L50.1 68.1 50.1 10.7 69.25 10.7 69.25 54.35 83.6 54.35 83.6 68.1" fill="url(#gradient4)" fill-rule="evenodd" stroke="none"/>
      <path d="M41.75 27.9 Q35.95 23.15 29.05 25.2 23.1 27.15 21.35 33.3 19.15 40.95 22.55 48.3 24.4 52.35 28.7 53.6 36.4 55.6 42.6 50.6 L41.5 66.15 Q37.15 67.55 32.7 68.0 22.85 68.95 14.35 64.25 8.15 60.85 4.75 54.55 0.1 46.0 0.95 36.4 1.45 30.6 4.35 25.35 7.9 18.9 14.25 15.35 27.3 8.2 41.75 12.05 L41.75 27.9" fill="url(#gradient5)" fill-rule="evenodd" stroke="none"/>
    </g>
    <linearGradient gradientTransform="matrix(0.0131, 0.0, 0.0, 0.0131, 258.6, 37.75)" gradientUnits="userSpaceOnUse" id="gradient0" spreadMethod="pad" x1="-819.2" x2="819.2">
      <stop offset="0.0" stop-color="#f5f8d5"/>
      <stop offset="0.6274509803921569" stop-color="#f9ed3d"/>
    </linearGradient>
    <linearGradient gradientTransform="matrix(0.0307, 0.0, 0.0, 0.0307, 214.85, 39.4)" gradientUnits="userSpaceOnUse" id="gradient1" spreadMethod="pad" x1="-819.2" x2="819.2">
      <stop offset="0.0" stop-color="#f5f8d5"/>
      <stop offset="0.6274509803921569" stop-color="#f9ed3d"/>
    </linearGradient>
    <linearGradient gradientTransform="matrix(0.0338, 0.0, 0.0, 0.0338, 156.35, 39.4)" gradientUnits="userSpaceOnUse" id="gradient2" spreadMethod="pad" x1="-819.2" x2="819.2">
      <stop offset="0.0" stop-color="#f5f8d5"/>
      <stop offset="0.6274509803921569" stop-color="#f9ed3d"/>
    </linearGradient>
    <linearGradient gradientTransform="matrix(0.0217, 0.0, 0.0, 0.0217, 107.1, 39.4)" gradientUnits="userSpaceOnUse" id="gradient3" spreadMethod="pad" x1="-819.2" x2="819.2">
      <stop offset="0.0" stop-color="#f5f8d5"/>
      <stop offset="0.6274509803921569" stop-color="#f9ed3d"/>
    </linearGradient>
    <linearGradient gradientTransform="matrix(0.0204, 0.0, 0.0, 0.0204, 66.85, 39.4)" gradientUnits="userSpaceOnUse" id="gradient4" spreadMethod="pad" x1="-819.2" x2="819.2">
      <stop offset="0.0" stop-color="#f5f8d5"/>
      <stop offset="0.6274509803921569" stop-color="#f9ed3d"/>
    </linearGradient>
    <linearGradient gradientTransform="matrix(0.0254, 0.0, 0.0, 0.0254, 21.75, 39.4)" gradientUnits="userSpaceOnUse" id="gradient5" spreadMethod="pad" x1="-819.2" x2="819.2">
      <stop offset="0.0" stop-color="#f5f8d5"/>
      <stop offset="0.6274509803921569" stop-color="#f9ed3d"/>
    </linearGradient>
    <g id="shape1" transform="matrix(1.0, 0.0, 0.0, 1.0, 0.0, 0.0)">
      <path d="M27.8 11.75 L21.1 13.75 Q17.0 15.05 15.25 16.15 16.85 17.25 20.6 19.3 16.65 17.3 14.8 16.6 14.75 18.8 15.8 23.75 L17.45 30.75 15.55 23.9 Q14.1 19.1 13.0 17.2 L10.1 21.8 12.45 16.95 Q10.45 16.8 6.25 17.75 L0.0 19.25 6.05 17.45 Q10.15 16.15 11.85 15.05 L6.5 11.8 Q10.45 13.85 12.3 14.55 12.4 12.35 11.3 7.4 L9.6 0.0 11.6 7.25 Q13.0 12.05 14.1 13.95 L17.15 9.2 Q15.3 12.5 14.7 14.25 L20.9 13.4 27.8 11.75" fill="#ffffff" fill-rule="evenodd" stroke="none"/>
    </g>
    <g id="shape2" transform="matrix(1.0, 0.0, 0.0, 1.0, -22.75, -11.45)">
      <path d="M538.9 211.5 L22.75 211.5 22.75 11.45 538.9 11.45 538.9 211.5" fill="#ffffff" fill-rule="evenodd" stroke="none"/>
    </g>
    <g id="shape3" transform="matrix(1.0, 0.0, 0.0, 1.0, 4.95, 4.7)">
      <path d="M346.15 6.2 Q345.0 6.2 344.5 7.0 343.95 7.85 343.3 10.75 L338.95 29.55 Q338.1 32.9 338.3 33.6 338.45 34.25 339.55 34.25 340.6 34.25 341.15 33.5 L342.3 29.85 347.4 6.95 Q347.25 6.2 346.15 6.2 M352.7 1.4 Q354.95 2.55 355.8 4.1 356.65 5.65 356.65 7.7 L355.6 14.0 352.6 26.85 Q351.6 31.15 350.6 33.2 349.75 35.1 347.8 36.9 345.9 38.65 343.6 39.4 L338.7 40.15 Q335.25 40.15 333.15 39.35 331.1 38.6 330.15 36.9 329.15 35.25 329.0 33.35 328.85 31.45 329.85 27.45 L333.0 14.0 Q334.2 8.7 335.7 6.1 337.25 3.5 340.3 1.9 343.4 0.3 347.3 0.3 350.4 0.3 352.7 1.4 M319.85 8.65 L314.5 31.65 Q313.8 33.9 311.8 36.0 309.85 38.1 307.15 39.1 304.45 40.15 301.15 40.15 297.1 40.15 294.85 38.85 292.5 37.5 292.0 35.2 291.4 32.8 292.25 29.25 L301.85 29.25 301.05 32.6 Q300.95 33.35 301.45 33.8 301.8 34.25 302.7 34.25 303.5 34.25 304.0 33.85 L304.85 32.7 307.0 23.7 Q305.95 25.2 304.3 26.0 302.7 26.75 300.55 26.75 297.95 26.75 296.3 25.35 294.6 23.9 294.55 21.95 294.4 20.1 295.25 16.55 L295.95 13.5 Q296.8 9.55 297.65 7.45 298.45 5.5 300.2 3.85 301.85 2.15 304.45 1.2 307.05 0.3 310.1 0.3 313.95 0.3 316.2 1.35 318.4 2.45 319.25 4.45 320.15 6.5 319.85 8.65 M310.5 6.95 Q310.2 6.2 309.2 6.2 308.55 6.2 307.7 6.75 306.95 7.4 306.3 10.05 L304.6 17.35 Q304.05 19.75 304.55 20.35 305.0 20.9 305.7 20.9 306.75 20.9 307.35 20.2 308.05 19.35 308.5 17.35 L310.1 10.3 Q310.75 7.8 310.5 6.95 M282.2 10.45 Q281.45 13.55 280.35 14.95 279.25 16.3 276.5 17.7 278.4 18.55 279.1 20.2 279.85 21.9 278.35 28.25 277.25 33.0 275.9 35.15 274.45 37.35 271.55 38.75 268.6 40.15 264.2 40.15 259.9 40.15 257.8 38.8 255.55 37.45 255.05 35.25 254.45 33.0 255.7 27.8 256.45 24.4 257.65 21.75 258.75 19.25 261.95 17.7 260.35 16.8 259.9 14.95 259.45 13.1 260.15 10.2 261.3 5.25 264.65 2.75 267.95 0.3 273.4 0.3 279.7 0.3 281.5 2.95 283.35 5.6 282.2 10.45 M269.75 9.35 L269.1 12.3 Q268.65 14.1 268.9 14.7 269.05 15.35 270.05 15.35 270.95 15.35 271.45 14.75 272.0 14.0 272.4 12.0 L273.05 9.35 Q273.45 7.4 273.25 6.8 273.1 6.2 272.15 6.2 271.15 6.2 270.65 6.85 270.2 7.5 269.75 9.35 M268.45 21.75 Q267.5 21.75 266.9 22.45 266.35 23.15 265.8 25.4 L264.65 30.35 Q264.05 32.8 264.35 33.6 264.65 34.25 265.7 34.25 266.65 34.25 267.25 33.55 L268.3 30.3 269.5 25.4 Q270.0 23.2 269.75 22.45 269.45 21.75 268.45 21.75 M224.1 7.95 L225.7 1.05 243.95 1.05 242.05 9.45 228.95 39.4 219.4 39.4 233.5 7.95 224.1 7.95 M205.25 23.9 L204.55 27.0 202.85 33.0 Q202.0 35.05 200.3 36.6 198.55 38.3 196.05 39.25 193.4 40.15 190.35 40.15 186.45 40.15 184.25 39.1 182.05 38.0 181.2 36.0 180.35 34.05 180.6 31.8 180.85 29.75 182.4 23.25 L183.6 17.95 Q185.15 11.2 185.95 8.8 186.65 6.55 188.65 4.45 190.6 2.35 193.3 1.35 196.05 0.3 199.3 0.3 203.3 0.3 205.65 1.6 207.95 2.9 208.45 5.25 209.05 7.55 208.25 11.2 L198.65 11.2 199.4 7.85 Q199.5 7.15 199.1 6.65 198.65 6.2 197.8 6.2 197.0 6.2 196.5 6.6 195.9 7.1 195.65 7.75 L193.45 16.75 Q194.55 15.25 196.15 14.45 197.75 13.7 199.85 13.7 202.5 13.7 204.2 15.1 205.85 16.5 205.95 18.5 206.0 20.55 205.25 23.9 M194.75 19.55 Q193.7 19.55 193.1 20.25 192.45 21.05 192.0 23.15 L190.35 30.15 Q189.75 32.7 190.0 33.5 190.2 34.25 191.3 34.25 191.9 34.25 192.75 33.7 193.5 33.05 194.2 30.4 L195.9 23.15 Q196.35 21.1 196.05 20.3 195.75 19.55 194.75 19.55 M168.55 21.85 L167.3 27.3 Q166.4 31.25 165.5 33.3 164.65 35.2 163.0 36.8 161.4 38.4 158.85 39.3 156.4 40.15 153.1 40.15 149.3 40.15 146.9 38.85 L146.6 38.7 Q144.35 37.45 143.75 35.0 143.15 32.5 144.4 27.15 L144.9 25.1 154.45 25.1 153.9 27.45 Q153.0 31.3 152.9 32.75 152.8 34.25 154.4 34.25 155.15 34.25 155.65 33.85 L156.35 32.85 159.3 20.75 Q159.8 18.65 159.55 17.8 159.2 17.0 158.2 17.0 157.5 17.0 156.95 17.45 L156.15 18.25 155.55 20.45 146.05 20.45 151.0 1.05 171.6 1.05 170.15 7.2 158.2 7.2 156.65 13.75 Q159.5 11.15 163.05 11.15 166.95 11.15 168.55 13.35 170.05 15.55 168.55 21.85 M134.7 1.05 L128.9 26.1 131.6 26.1 130.1 32.65 127.35 32.65 125.75 39.4 116.2 39.4 117.8 32.65 106.4 32.65 107.95 26.1 122.0 1.05 134.7 1.05 M96.9 10.4 Q96.15 13.5 94.95 15.05 93.75 16.4 91.25 17.7 93.2 18.4 93.9 20.1 94.6 21.75 93.15 27.9 92.05 32.5 90.45 35.0 88.75 37.55 85.95 38.85 83.05 40.15 79.05 40.15 74.5 40.15 72.25 38.6 70.0 37.1 69.7 34.9 69.4 32.8 70.7 27.2 L71.45 24.2 81.05 24.2 79.55 30.45 Q79.0 32.9 79.15 33.6 79.25 34.25 80.3 34.25 81.4 34.25 81.95 33.45 82.5 32.5 83.35 28.95 L83.95 26.3 Q84.45 24.15 84.2 23.1 83.9 22.05 83.05 21.75 L79.35 21.4 80.7 15.8 84.95 15.5 Q85.8 15.3 86.4 14.4 L87.9 9.5 Q88.35 7.45 88.1 6.8 87.8 6.2 87.0 6.2 85.95 6.2 85.45 6.85 84.95 7.5 84.4 9.75 L83.65 12.95 74.0 12.95 74.8 9.65 Q76.05 4.2 79.05 2.25 81.95 0.3 87.5 0.3 94.35 0.3 96.15 2.95 98.0 5.7 96.9 10.4 M119.3 26.1 L123.1 9.75 115.05 26.1 119.3 26.1 M59.4 3.1 Q61.65 6.0 60.6 10.3 59.85 13.5 57.3 17.25 55.0 20.7 44.05 32.85 L54.45 32.85 52.95 39.4 31.9 39.4 33.2 33.95 Q46.4 18.25 48.75 14.95 51.4 11.35 51.9 9.25 52.2 7.7 51.9 6.95 51.55 6.2 50.45 6.2 49.35 6.2 48.65 7.0 47.95 7.8 47.3 10.45 L46.4 14.1 37.8 14.1 38.15 12.7 Q38.85 9.65 39.65 7.6 40.45 5.7 42.2 3.95 43.9 2.15 46.2 1.2 48.55 0.3 51.4 0.3 57.1 0.3 59.4 3.1 M13.05 1.05 L18.65 1.05 9.7 39.4 0.15 39.4 6.0 13.5 Q6.0 12.6 5.15 12.15 L0.95 11.7 0.05 11.7 1.05 7.2 Q8.35 5.7 13.05 1.05" fill="#ffffff" fill-rule="evenodd" stroke="none"/>
      <path d="M346.15 6.2 Q345.0 6.2 344.5 7.0 343.95 7.85 343.3 10.75 L338.95 29.55 Q338.1 32.9 338.3 33.6 338.45 34.25 339.55 34.25 340.6 34.25 341.15 33.5 L342.3 29.85 347.4 6.95 Q347.25 6.2 346.15 6.2 M352.7 1.4 Q354.95 2.55 355.8 4.1 356.65 5.65 356.65 7.7 L355.6 14.0 352.6 26.85 Q351.6 31.15 350.6 33.2 349.75 35.1 347.8 36.9 345.9 38.65 343.6 39.4 L338.7 40.15 Q335.25 40.15 333.15 39.35 331.1 38.6 330.15 36.9 329.15 35.25 329.0 33.35 328.85 31.45 329.85 27.45 L333.0 14.0 Q334.2 8.7 335.7 6.1 337.25 3.5 340.3 1.9 343.4 0.3 347.3 0.3 350.4 0.3 352.7 1.4 M319.85 8.65 L314.5 31.65 Q313.8 33.9 311.8 36.0 309.85 38.1 307.15 39.1 304.45 40.15 301.15 40.15 297.1 40.15 294.85 38.85 292.5 37.5 292.0 35.2 291.4 32.8 292.25 29.25 L301.85 29.25 301.05 32.6 Q300.95 33.35 301.45 33.8 301.8 34.25 302.7 34.25 303.5 34.25 304.0 33.85 L304.85 32.7 307.0 23.7 Q305.95 25.2 304.3 26.0 302.7 26.75 300.55 26.75 297.95 26.75 296.3 25.35 294.6 23.9 294.55 21.95 294.4 20.1 295.25 16.55 L295.95 13.5 Q296.8 9.55 297.65 7.45 298.45 5.5 300.2 3.85 301.85 2.15 304.45 1.2 307.05 0.3 310.1 0.3 313.95 0.3 316.2 1.35 318.4 2.45 319.25 4.45 320.15 6.5 319.85 8.65 M310.5 6.95 Q310.2 6.2 309.2 6.2 308.55 6.2 307.7 6.75 306.95 7.4 306.3 10.05 L304.6 17.35 Q304.05 19.75 304.55 20.35 305.0 20.9 305.7 20.9 306.75 20.9 307.35 20.2 308.05 19.35 308.5 17.35 L310.1 10.3 Q310.75 7.8 310.5 6.95 M282.2 10.45 Q281.45 13.55 280.35 14.95 279.25 16.3 276.5 17.7 278.4 18.55 279.1 20.2 279.85 21.9 278.35 28.25 277.25 33.0 275.9 35.15 274.45 37.35 271.55 38.75 268.6 40.15 264.2 40.15 259.9 40.15 257.8 38.8 255.55 37.45 255.05 35.25 254.45 33.0 255.7 27.8 256.45 24.4 257.65 21.75 258.75 19.25 261.95 17.7 260.35 16.8 259.9 14.95 259.45 13.1 260.15 10.2 261.3 5.25 264.65 2.75 267.95 0.3 273.4 0.3 279.7 0.3 281.5 2.95 283.35 5.6 282.2 10.45 M269.75 9.35 L269.1 12.3 Q268.65 14.1 268.9 14.7 269.05 15.35 270.05 15.35 270.95 15.35 271.45 14.75 272.0 14.0 272.4 12.0 L273.05 9.35 Q273.45 7.4 273.25 6.8 273.1 6.2 272.15 6.2 271.15 6.2 270.65 6.85 270.2 7.5 269.75 9.35 M268.45 21.75 Q267.5 21.75 266.9 22.45 266.35 23.15 265.8 25.4 L264.65 30.35 Q264.05 32.8 264.35 33.6 264.65 34.25 265.7 34.25 266.65 34.25 267.25 33.55 L268.3 30.3 269.5 25.4 Q270.0 23.2 269.75 22.45 269.45 21.75 268.45 21.75 M224.1 7.95 L225.7 1.05 243.95 1.05 242.05 9.45 228.95 39.4 219.4 39.4 233.5 7.95 224.1 7.95 M205.25 23.9 L204.55 27.0 202.85 33.0 Q202.0 35.05 200.3 36.6 198.55 38.3 196.05 39.25 193.4 40.15 190.35 40.15 186.45 40.15 184.25 39.1 182.05 38.0 181.2 36.0 180.35 34.05 180.6 31.8 180.85 29.75 182.4 23.25 L183.6 17.95 Q185.15 11.2 185.95 8.8 186.65 6.55 188.65 4.45 190.6 2.35 193.3 1.35 196.05 0.3 199.3 0.3 203.3 0.3 205.65 1.6 207.95 2.9 208.45 5.25 209.05 7.55 208.25 11.2 L198.65 11.2 199.4 7.85 Q199.5 7.15 199.1 6.65 198.65 6.2 197.8 6.2 197.0 6.2 196.5 6.6 195.9 7.1 195.65 7.75 L193.45 16.75 Q194.55 15.25 196.15 14.45 197.75 13.7 199.85 13.7 202.5 13.7 204.2 15.1 205.85 16.5 205.95 18.5 206.0 20.55 205.25 23.9 M194.75 19.55 Q193.7 19.55 193.1 20.25 192.45 21.05 192.0 23.15 L190.35 30.15 Q189.75 32.7 190.0 33.5 190.2 34.25 191.3 34.25 191.9 34.25 192.75 33.7 193.5 33.05 194.2 30.4 L195.9 23.15 Q196.35 21.1 196.05 20.3 195.75 19.55 194.75 19.55 M168.55 21.85 L167.3 27.3 Q166.4 31.25 165.5 33.3 164.65 35.2 163.0 36.8 161.4 38.4 158.85 39.3 156.4 40.15 153.1 40.15 149.3 40.15 146.9 38.85 L146.6 38.7 Q144.35 37.45 143.75 35.0 143.15 32.5 144.4 27.15 L144.9 25.1 154.45 25.1 153.9 27.45 Q153.0 31.3 152.9 32.75 152.8 34.25 154.4 34.25 155.15 34.25 155.65 33.85 L156.35 32.85 159.3 20.75 Q159.8 18.65 159.55 17.8 159.2 17.0 158.2 17.0 157.5 17.0 156.95 17.45 L156.15 18.25 155.55 20.45 146.05 20.45 151.0 1.05 171.6 1.05 170.15 7.2 158.2 7.2 156.65 13.75 Q159.5 11.15 163.05 11.15 166.95 11.15 168.55 13.35 170.05 15.55 168.55 21.85 M134.7 1.05 L128.9 26.1 131.6 26.1 130.1 32.65 127.35 32.65 125.75 39.4 116.2 39.4 117.8 32.65 106.4 32.65 107.95 26.1 122.0 1.05 134.7 1.05 M96.9 10.4 Q96.15 13.5 94.95 15.05 93.75 16.4 91.25 17.7 93.2 18.4 93.9 20.1 94.6 21.75 93.15 27.9 92.05 32.5 90.45 35.0 88.75 37.55 85.95 38.85 83.05 40.15 79.05 40.15 74.5 40.15 72.25 38.6 70.0 37.1 69.7 34.9 69.4 32.8 70.7 27.2 L71.45 24.2 81.05 24.2 79.55 30.45 Q79.0 32.9 79.15 33.6 79.25 34.25 80.3 34.25 81.4 34.25 81.95 33.45 82.5 32.5 83.35 28.95 L83.95 26.3 Q84.45 24.15 84.2 23.1 83.9 22.05 83.05 21.75 L79.35 21.4 80.7 15.8 84.95 15.5 Q85.8 15.3 86.4 14.4 L87.9 9.5 Q88.35 7.45 88.1 6.8 87.8 6.2 87.0 6.2 85.95 6.2 85.45 6.85 84.95 7.5 84.4 9.75 L83.65 12.95 74.0 12.95 74.8 9.65 Q76.05 4.2 79.05 2.25 81.95 0.3 87.5 0.3 94.35 0.3 96.15 2.95 98.0 5.7 96.9 10.4 M119.3 26.1 L123.1 9.75 115.05 26.1 119.3 26.1 M59.4 3.1 Q61.65 6.0 60.6 10.3 59.85 13.5 57.3 17.25 55.0 20.7 44.05 32.85 L54.45 32.85 52.95 39.4 31.9 39.4 33.2 33.95 Q46.4 18.25 48.75 14.95 51.4 11.35 51.9 9.25 52.2 7.7 51.9 6.95 51.55 6.2 50.45 6.2 49.35 6.2 48.65 7.0 47.95 7.8 47.3 10.45 L46.4 14.1 37.8 14.1 38.15 12.7 Q38.85 9.65 39.65 7.6 40.45 5.7 42.2 3.95 43.9 2.15 46.2 1.2 48.55 0.3 51.4 0.3 57.1 0.3 59.4 3.1 M13.05 1.05 L18.65 1.05 9.7 39.4 0.15 39.4 6.0 13.5 Q6.0 12.6 5.15 12.15 L0.95 11.7 0.05 11.7 1.05 7.2 Q8.35 5.7 13.05 1.05" fill="none" stroke="#ffffff" stroke-linecap="round" stroke-linejoin="round" stroke-width="10.0"/>
      <path d="M18.6 0.75 L9.65 39.1 0.1 39.1 5.9 13.2 Q5.95 12.3 5.1 11.85 L0.9 11.4 0.0 11.4 1.0 6.9 Q8.3 5.4 13.0 0.75 L18.6 0.75" fill="url(#gradient6)" fill-rule="evenodd" stroke="none"/>
      <path d="M51.35 0.0 Q57.05 0.0 59.3 2.8 61.6 5.7 60.55 10.0 59.8 13.2 57.25 16.95 54.95 20.4 44.0 32.55 L54.4 32.55 52.9 39.1 31.85 39.1 33.15 33.65 Q46.35 17.95 48.7 14.65 51.35 11.05 51.8 8.95 52.15 7.4 51.8 6.65 51.45 5.9 50.35 5.9 49.3 5.9 48.55 6.7 47.85 7.5 47.2 10.15 L46.35 13.8 37.75 13.8 38.05 12.4 Q38.8 9.35 39.6 7.3 40.4 5.4 42.15 3.65 43.85 1.85 46.1 0.9 48.5 0.0 51.35 0.0" fill="url(#gradient7)" fill-rule="evenodd" stroke="none"/>
      <path d="M87.45 0.0 Q94.3 0.0 96.1 2.65 97.95 5.4 96.8 10.1 96.05 13.2 94.85 14.75 93.7 16.1 91.15 17.4 93.15 18.1 93.85 19.8 94.55 21.45 93.1 27.6 91.95 32.2 90.35 34.7 88.7 37.25 85.9 38.55 83.0 39.85 79.0 39.85 74.45 39.85 72.2 38.3 69.95 36.8 69.65 34.6 69.35 32.5 70.65 26.9 L71.35 23.9 80.95 23.9 79.5 30.15 Q78.95 32.6 79.1 33.3 79.15 33.95 80.25 33.95 81.3 33.95 81.85 33.15 82.45 32.2 83.3 28.65 L83.9 26.0 Q84.4 23.85 84.1 22.8 83.8 21.75 83.0 21.45 L79.3 21.1 80.6 15.5 84.9 15.2 Q85.75 15.0 86.35 14.1 L87.85 9.2 Q88.25 7.15 88.05 6.5 87.75 5.9 86.9 5.9 85.9 5.9 85.4 6.55 84.9 7.2 84.35 9.45 L83.6 12.65 73.95 12.65 74.7 9.35 Q76.0 3.9 79.0 1.95 81.9 0.0 87.45 0.0" fill="url(#gradient8)" fill-rule="evenodd" stroke="none"/>
      <path d="M130.0 32.35 L127.25 32.35 125.7 39.1 116.15 39.1 117.7 32.35 106.3 32.35 107.85 25.8 121.95 0.75 134.65 0.75 128.8 25.8 131.5 25.8 130.0 32.35 M123.05 9.45 L114.95 25.8 119.2 25.8 123.05 9.45" fill="url(#gradient9)" fill-rule="evenodd" stroke="none"/>
      <path d="M171.55 0.75 L170.1 6.9 158.15 6.9 156.6 13.45 Q159.45 10.85 162.95 10.85 166.9 10.85 168.5 13.05 170.0 15.25 168.5 21.55 L167.2 27.0 Q166.3 30.95 165.45 33.0 164.6 34.9 162.95 36.5 161.35 38.1 158.8 39.0 156.35 39.85 153.05 39.85 149.25 39.85 146.85 38.55 144.3 37.3 143.65 34.7 143.1 32.2 144.35 26.85 L144.85 24.8 154.4 24.8 153.85 27.15 Q152.95 31.0 152.85 32.45 152.75 33.95 154.35 33.95 155.05 33.95 155.55 33.55 L156.3 32.55 159.2 20.45 Q159.75 18.35 159.5 17.5 159.15 16.7 158.15 16.7 157.4 16.7 156.9 17.15 L156.1 17.95 155.5 20.15 146.0 20.15 150.95 0.75 171.55 0.75" fill="url(#gradient10)" fill-rule="evenodd" stroke="none"/>
      <path d="M199.25 0.0 Q203.25 0.0 205.55 1.3 207.85 2.6 208.4 4.95 208.95 7.25 208.15 10.9 L198.55 10.9 199.35 7.55 Q199.45 6.85 199.05 6.35 198.6 5.9 197.7 5.9 196.95 5.9 196.4 6.3 195.8 6.8 195.55 7.45 L193.4 16.45 Q194.5 14.95 196.1 14.15 197.7 13.4 199.8 13.4 202.45 13.4 204.15 14.8 205.8 16.2 205.85 18.2 205.95 20.25 205.2 23.6 L204.5 26.7 202.75 32.7 Q201.9 34.75 200.25 36.3 198.5 38.0 196.0 38.95 193.35 39.85 190.3 39.85 186.4 39.85 184.2 38.8 182.0 37.7 181.15 35.7 180.3 33.75 180.55 31.5 180.8 29.45 182.35 22.95 L183.55 17.65 Q185.1 10.9 185.9 8.5 186.6 6.25 188.6 4.15 190.5 2.05 193.25 1.05 196.0 0.0 199.25 0.0 M196.0 20.0 Q195.7 19.25 194.7 19.25 193.65 19.25 193.05 19.95 192.4 20.75 191.95 22.85 L190.3 29.85 Q189.65 32.4 189.95 33.2 190.15 33.95 191.25 33.95 191.85 33.95 192.7 33.4 193.45 32.75 194.1 30.1 L195.85 22.85 Q196.3 20.8 196.0 20.0" fill="url(#gradient11)" fill-rule="evenodd" stroke="none"/>
      <path d="M243.9 0.75 L242.0 9.15 228.9 39.1 219.35 39.1 233.45 7.65 224.05 7.65 225.65 0.75 243.9 0.75" fill="url(#gradient12)" fill-rule="evenodd" stroke="none"/>
      <path d="M273.35 0.0 Q279.65 0.0 281.45 2.65 283.25 5.3 282.1 10.15 281.4 13.25 280.3 14.65 279.15 16.0 276.4 17.4 278.3 18.25 279.05 19.9 279.8 21.6 278.3 27.95 277.2 32.7 275.85 34.85 274.35 37.05 271.45 38.45 268.55 39.85 264.15 39.85 259.85 39.85 257.7 38.5 255.5 37.15 255.0 34.95 254.4 32.7 255.65 27.5 256.4 24.1 257.6 21.45 258.65 18.95 261.85 17.4 260.3 16.5 259.85 14.65 259.4 12.8 260.1 9.9 261.25 4.95 264.55 2.45 267.9 0.0 273.35 0.0 M272.05 5.9 Q271.1 5.9 270.6 6.55 270.15 7.2 269.7 9.05 L269.0 12.0 Q268.6 13.8 268.85 14.4 269.0 15.05 269.95 15.05 270.9 15.05 271.4 14.45 271.95 13.7 272.35 11.7 L273.0 9.05 Q273.4 7.1 273.2 6.5 273.05 5.9 272.05 5.9 M266.85 22.15 Q266.25 22.85 265.7 25.1 L264.55 30.05 Q263.95 32.5 264.3 33.3 264.55 33.95 265.65 33.95 266.6 33.95 267.2 33.25 267.65 32.6 268.25 30.0 L269.4 25.1 Q269.9 22.9 269.7 22.15 269.4 21.45 268.4 21.45 267.45 21.45 266.85 22.15" fill="url(#gradient13)" fill-rule="evenodd" stroke="none"/>
      <path d="M310.05 0.0 Q313.9 0.0 316.15 1.05 318.3 2.15 319.2 4.15 320.1 6.2 319.8 8.35 L314.45 31.35 Q313.7 33.6 311.75 35.7 309.8 37.8 307.1 38.8 304.4 39.85 301.1 39.85 297.05 39.85 294.8 38.55 292.45 37.2 291.95 34.9 291.3 32.5 292.15 28.95 L301.75 28.95 301.0 32.3 Q300.9 33.05 301.35 33.5 301.7 33.95 302.65 33.95 303.4 33.95 303.9 33.55 L304.75 32.4 306.95 23.4 Q305.9 24.9 304.25 25.7 302.65 26.45 300.5 26.45 297.9 26.45 296.2 25.05 294.5 23.6 294.45 21.65 294.3 19.8 295.15 16.25 L295.85 13.2 Q296.75 9.25 297.6 7.15 298.35 5.2 300.1 3.55 301.8 1.85 304.35 0.9 307.0 0.0 310.05 0.0 M310.4 6.65 Q310.1 5.9 309.1 5.9 308.45 5.9 307.65 6.45 306.85 7.1 306.2 9.75 L304.5 17.05 Q303.95 19.45 304.45 20.05 304.9 20.6 305.65 20.6 306.65 20.6 307.3 19.9 307.95 19.05 308.4 17.05 L310.05 10.0 Q310.65 7.5 310.4 6.65" fill="url(#gradient14)" fill-rule="evenodd" stroke="none"/>
      <path d="M352.65 1.1 Q354.85 2.25 355.75 3.8 356.6 5.35 356.55 7.4 356.45 9.4 355.55 13.7 L352.5 26.55 Q351.5 30.85 350.55 32.9 349.65 34.8 347.7 36.6 345.85 38.35 343.55 39.1 L338.65 39.85 Q335.2 39.85 333.1 39.05 331.0 38.3 330.05 36.6 329.1 34.95 328.95 33.05 328.8 31.15 329.8 27.15 L332.95 13.7 Q334.15 8.4 335.65 5.8 337.2 3.2 340.25 1.6 343.35 0.0 347.25 0.0 350.35 0.0 352.65 1.1 M346.05 5.9 Q344.95 5.9 344.4 6.7 343.85 7.55 343.2 10.45 L338.85 29.25 Q338.05 32.6 338.25 33.3 338.35 33.95 339.5 33.95 340.55 33.95 341.1 33.2 L342.25 29.55 347.3 6.65 Q347.15 5.9 346.05 5.9" fill="url(#gradient15)" fill-rule="evenodd" stroke="none"/>
    </g>
    <linearGradient gradientTransform="matrix(-0.0032, -0.0243, 0.0191, 0.0, 78.65, 19.9)" gradientUnits="userSpaceOnUse" id="gradient6" spreadMethod="pad" x1="-819.2" x2="819.2">
      <stop offset="0.1843137254901961" stop-color="#ff7700"/>
      <stop offset="0.7843137254901961" stop-color="#cc2232"/>
    </linearGradient>
    <linearGradient gradientTransform="matrix(-0.0032, -0.0243, 0.0191, 0.0, 82.05, 19.9)" gradientUnits="userSpaceOnUse" id="gradient7" spreadMethod="pad" x1="-819.2" x2="819.2">
      <stop offset="0.1843137254901961" stop-color="#ff7700"/>
      <stop offset="0.7843137254901961" stop-color="#cc2232"/>
    </linearGradient>
    <linearGradient gradientTransform="matrix(-0.0032, -0.0243, 0.0191, 0.0, 83.4, 19.9)" gradientUnits="userSpaceOnUse" id="gradient8" spreadMethod="pad" x1="-819.2" x2="819.2">
      <stop offset="0.1843137254901961" stop-color="#ff7700"/>
      <stop offset="0.7843137254901961" stop-color="#cc2232"/>
    </linearGradient>
    <linearGradient gradientTransform="matrix(-0.0032, -0.0243, 0.0191, 0.0, 87.95, 19.9)" gradientUnits="userSpaceOnUse" id="gradient9" spreadMethod="pad" x1="-819.2" x2="819.2">
      <stop offset="0.1843137254901961" stop-color="#ff7700"/>
      <stop offset="0.7843137254901961" stop-color="#cc2232"/>
    </linearGradient>
    <linearGradient gradientTransform="matrix(-0.0032, -0.0243, 0.0191, 0.0, 91.95, 19.9)" gradientUnits="userSpaceOnUse" id="gradient10" spreadMethod="pad" x1="-819.2" x2="819.2">
      <stop offset="0.1843137254901961" stop-color="#ff7700"/>
      <stop offset="0.7843137254901961" stop-color="#cc2232"/>
    </linearGradient>
    <linearGradient gradientTransform="matrix(-0.0032, -0.0243, 0.0191, 0.0, 92.75, 19.9)" gradientUnits="userSpaceOnUse" id="gradient11" spreadMethod="pad" x1="-819.2" x2="819.2">
      <stop offset="0.1843137254901961" stop-color="#ff7700"/>
      <stop offset="0.7843137254901961" stop-color="#cc2232"/>
    </linearGradient>
    <linearGradient gradientTransform="matrix(-0.0032, -0.0243, 0.0191, 0.0, 93.45, 19.9)" gradientUnits="userSpaceOnUse" id="gradient12" spreadMethod="pad" x1="-819.2" x2="819.2">
      <stop offset="0.1843137254901961" stop-color="#ff7700"/>
      <stop offset="0.7843137254901961" stop-color="#cc2232"/>
    </linearGradient>
    <linearGradient gradientTransform="matrix(-0.0032, -0.0243, 0.0191, 0.0, 95.7, 19.9)" gradientUnits="userSpaceOnUse" id="gradient13" spreadMethod="pad" x1="-819.2" x2="819.2">
      <stop offset="0.1843137254901961" stop-color="#ff7700"/>
      <stop offset="0.7843137254901961" stop-color="#cc2232"/>
    </linearGradient>
    <linearGradient gradientTransform="matrix(-0.0032, -0.0243, 0.0191, 0.0, 90.65, 19.9)" gradientUnits="userSpaceOnUse" id="gradient14" spreadMethod="pad" x1="-819.2" x2="819.2">
      <stop offset="0.1843137254901961" stop-color="#ff7700"/>
      <stop offset="0.7843137254901961" stop-color="#cc2232"/>
    </linearGradient>
    <linearGradient gradientTransform="matrix(-0.0032, -0.0243, 0.0191, 0.0, 89.15, 19.9)" gradientUnits="userSpaceOnUse" id="gradient15" spreadMethod="pad" x1="-819.2" x2="819.2">
      <stop offset="0.1843137254901961" stop-color="#ff7700"/>
      <stop offset="0.7843137254901961" stop-color="#cc2232"/>
    </linearGradient>
    <g id="shape4" transform="matrix(1.0, 0.0, 0.0, 1.0, 4.95, 4.7)">
      <path d="M112.75 8.75 L111.05 16.05 117.25 16.05 115.55 23.35 109.35 23.35 107.35 31.8 114.65 31.8 112.9 39.45 95.65 39.45 104.55 1.1 121.15 1.1 119.4 8.75 112.75 8.75 M98.65 6.35 Q98.95 8.75 97.9 13.55 L97.45 15.25 87.5 15.25 89.0 7.6 Q88.9 6.75 87.8 6.75 86.85 6.75 86.4 7.5 85.85 8.2 85.15 11.15 L80.85 29.55 Q80.25 32.2 80.4 33.0 80.5 33.8 81.55 33.8 82.65 33.8 83.25 32.85 83.9 31.95 84.5 29.25 L85.6 24.65 83.6 24.65 85.0 18.85 96.65 18.85 91.8 39.45 85.5 39.45 85.25 36.7 Q83.8 38.5 82.05 39.4 80.3 40.25 78.15 40.25 75.6 40.25 73.75 39.05 71.8 37.8 71.1 36.05 70.35 34.15 70.55 32.25 70.7 30.3 71.7 26.3 L74.3 14.9 Q75.55 9.55 76.75 6.9 77.95 4.45 81.3 2.35 84.55 0.3 89.05 0.3 93.4 0.3 95.9 2.05 98.35 3.95 98.65 6.35 M45.15 8.75 L38.0 39.45 28.0 39.45 35.2 8.75 29.25 8.75 31.05 1.1 52.9 1.1 51.1 8.75 45.15 8.75 M59.4 25.75 Q60.0 20.15 61.6 9.6 57.5 20.65 55.95 25.75 L59.4 25.75 M54.4 32.55 L52.25 39.45 41.9 39.45 56.0 1.1 70.35 1.1 67.15 39.45 57.0 39.45 58.05 32.55 54.4 32.55 M27.1 4.7 Q27.55 6.7 26.5 11.2 L26.1 12.7 16.8 12.7 17.5 9.85 Q17.95 7.85 17.7 7.3 17.5 6.75 16.75 6.75 15.85 6.75 15.25 7.5 14.6 8.15 14.25 9.75 13.8 11.75 14.05 12.65 14.25 13.6 16.3 15.0 22.0 18.9 23.15 21.5 24.3 24.0 23.0 29.65 22.0 33.75 20.55 35.7 19.15 37.65 16.15 38.95 13.05 40.25 9.4 40.25 5.45 40.25 2.95 38.75 0.45 37.25 0.15 34.9 -0.2 32.6 0.85 28.25 L1.45 25.75 10.75 25.75 9.65 30.4 Q9.1 32.5 9.35 33.15 9.6 33.8 10.55 33.8 11.55 33.8 12.2 33.0 12.85 32.25 13.25 30.65 14.0 27.25 13.4 26.25 12.7 25.15 9.6 22.75 6.45 20.35 5.45 19.2 4.5 18.1 4.2 16.1 3.9 14.1 4.55 11.05 5.65 6.65 7.25 4.65 8.8 2.6 11.6 1.4 14.35 0.3 17.9 0.3 21.8 0.3 24.2 1.55 26.6 2.8 27.1 4.7" fill="#ffffff" fill-rule="evenodd" stroke="none"/>
      <path d="M112.75 8.75 L111.05 16.05 117.25 16.05 115.55 23.35 109.35 23.35 107.35 31.8 114.65 31.8 112.9 39.45 95.65 39.45 104.55 1.1 121.15 1.1 119.4 8.75 112.75 8.75 M98.65 6.35 Q98.95 8.75 97.9 13.55 L97.45 15.25 87.5 15.25 89.0 7.6 Q88.9 6.75 87.8 6.75 86.85 6.75 86.4 7.5 85.85 8.2 85.15 11.15 L80.85 29.55 Q80.25 32.2 80.4 33.0 80.5 33.8 81.55 33.8 82.65 33.8 83.25 32.85 83.9 31.95 84.5 29.25 L85.6 24.65 83.6 24.65 85.0 18.85 96.65 18.85 91.8 39.45 85.5 39.45 85.25 36.7 Q83.8 38.5 82.05 39.4 80.3 40.25 78.15 40.25 75.6 40.25 73.75 39.05 71.8 37.8 71.1 36.05 70.35 34.15 70.55 32.25 70.7 30.3 71.7 26.3 L74.3 14.9 Q75.55 9.55 76.75 6.9 77.95 4.45 81.3 2.35 84.55 0.3 89.05 0.3 93.4 0.3 95.9 2.05 98.35 3.95 98.65 6.35 M45.15 8.75 L38.0 39.45 28.0 39.45 35.2 8.75 29.25 8.75 31.05 1.1 52.9 1.1 51.1 8.75 45.15 8.75 M59.4 25.75 Q60.0 20.15 61.6 9.6 57.5 20.65 55.95 25.75 L59.4 25.75 M54.4 32.55 L52.25 39.45 41.9 39.45 56.0 1.1 70.35 1.1 67.15 39.45 57.0 39.45 58.05 32.55 54.4 32.55 M27.1 4.7 Q27.55 6.7 26.5 11.2 L26.1 12.7 16.8 12.7 17.5 9.85 Q17.95 7.85 17.7 7.3 17.5 6.75 16.75 6.75 15.85 6.75 15.25 7.5 14.6 8.15 14.25 9.75 13.8 11.75 14.05 12.65 14.25 13.6 16.3 15.0 22.0 18.9 23.15 21.5 24.3 24.0 23.0 29.65 22.0 33.75 20.55 35.7 19.15 37.65 16.15 38.95 13.05 40.25 9.4 40.25 5.45 40.25 2.95 38.75 0.45 37.25 0.15 34.9 -0.2 32.6 0.85 28.25 L1.45 25.75 10.75 25.75 9.65 30.4 Q9.1 32.5 9.35 33.15 9.6 33.8 10.55 33.8 11.55 33.8 12.2 33.0 12.85 32.25 13.25 30.65 14.0 27.25 13.4 26.25 12.7 25.15 9.6 22.75 6.45 20.35 5.45 19.2 4.5 18.1 4.2 16.1 3.9 14.1 4.55 11.05 5.65 6.65 7.25 4.65 8.8 2.6 11.6 1.4 14.35 0.3 17.9 0.3 21.8 0.3 24.2 1.55 26.6 2.8 27.1 4.7" fill="none" stroke="#ffffff" stroke-linecap="round" stroke-linejoin="round" stroke-width="10.0"/>
      <path d="M121.1 0.8 L119.35 8.45 112.7 8.45 111.0 15.75 117.2 15.75 115.5 23.05 109.3 23.05 107.3 31.5 114.6 31.5 112.85 39.15 95.6 39.15 104.5 0.8 121.1 0.8 M98.6 6.05 Q98.9 8.45 97.8 13.25 L97.4 14.95 87.45 14.95 88.95 7.3 Q88.8 6.45 87.75 6.45 86.8 6.45 86.35 7.2 85.8 7.9 85.1 10.85 L80.8 29.25 Q80.2 31.9 80.35 32.7 80.45 33.5 81.5 33.5 82.6 33.5 83.2 32.55 83.8 31.65 84.4 28.95 L85.5 24.35 83.5 24.35 84.9 18.55 96.55 18.55 91.75 39.15 85.45 39.15 85.2 36.4 Q83.7 38.2 82.0 39.1 80.25 39.95 78.1 39.95 75.55 39.95 73.7 38.75 71.7 37.5 71.05 35.75 70.3 33.85 70.5 31.95 70.65 30.0 71.65 26.0 L74.25 14.6 Q75.5 9.25 76.7 6.6 77.9 4.15 81.2 2.05 84.5 0.0 89.0 0.0 93.3 0.0 95.8 1.75 98.3 3.65 98.6 6.05 M45.1 8.45 L37.95 39.15 27.95 39.15 35.15 8.45 29.2 8.45 31.0 0.8 52.85 0.8 51.05 8.45 45.1 8.45 M52.2 39.15 L41.85 39.15 55.95 0.8 70.3 0.8 67.1 39.15 56.95 39.15 58.0 32.25 54.35 32.25 52.2 39.15 M59.3 25.45 Q59.9 19.85 61.55 9.3 57.45 20.35 55.85 25.45 L59.3 25.45 M26.05 12.4 L16.75 12.4 17.45 9.55 Q17.85 7.55 17.65 7.0 17.45 6.45 16.7 6.45 15.8 6.45 15.2 7.2 14.55 7.85 14.2 9.45 13.75 11.45 14.0 12.35 14.2 13.3 16.25 14.7 21.95 18.6 23.1 21.2 24.2 23.7 22.9 29.35 21.95 33.45 20.5 35.4 19.1 37.35 16.1 38.65 13.0 39.95 9.35 39.95 5.4 39.95 2.9 38.45 0.4 36.95 0.1 34.6 -0.25 32.3 0.8 27.95 L1.35 25.45 10.65 25.45 9.55 30.1 Q9.05 32.2 9.3 32.85 9.55 33.5 10.5 33.5 11.5 33.5 12.15 32.7 12.8 31.95 13.2 30.35 13.95 26.95 13.35 25.95 12.6 24.85 9.5 22.45 6.4 20.05 5.4 18.9 4.45 17.8 4.15 15.8 3.85 13.8 4.5 10.75 5.55 6.35 7.15 4.35 8.75 2.3 11.55 1.1 14.3 0.0 17.85 0.0 21.75 0.0 24.15 1.25 26.55 2.5 27.0 4.4 27.45 6.4 26.4 10.9 L26.05 12.4" fill="url(#gradient16)" fill-rule="evenodd" stroke="none"/>
    </g>
    <linearGradient gradientTransform="matrix(-0.0032, -0.0243, 0.0191, 0.0, 207.75, 19.95)" gradientUnits="userSpaceOnUse" id="gradient16" spreadMethod="pad" x1="-819.2" x2="819.2">
      <stop offset="0.1843137254901961" stop-color="#ff7700"/>
      <stop offset="0.7843137254901961" stop-color="#cc2232"/>
    </linearGradient>
  </defs>
</svg>
