<?xml version="1.0" encoding="UTF-8" standalone="no"?>
<svg xmlns:xlink="http://www.w3.org/1999/xlink" height="450.0px" width="600.0px" xmlns="http://www.w3.org/2000/svg">
  <g transform="matrix(1.0, 0.0, 0.0, 1.0, 0.0, 0.0)">
    <use height="200.05" transform="matrix(1.2088, 0.0, 0.0, 2.4539, -14.9987, -15.003)" width="516.15" xlink:href="#shape0"/>
    <use height="57.65" transform="matrix(1.0805, 0.0, 0.0, 1.0805, 213.697, 291.3206)" width="162.6" xlink:href="#sprite0"/>
  </g>
  <defs>
    <g id="shape0" transform="matrix(1.0, 0.0, 0.0, 1.0, -22.75, -11.45)">
      <path d="M538.9 211.5 L22.75 211.5 22.75 11.45 538.9 11.45 538.9 211.5" fill="#ffffff" fill-rule="evenodd" stroke="none"/>
    </g>
    <g id="sprite0" transform="matrix(1.0, 0.0, 0.0, 1.0, 86.35, 29.55)">
      <use height="57.65" transform="matrix(1.0, 0.0, 0.0, 1.0, -86.35, -29.55)" width="162.6" xlink:href="#shape1"/>
      <use height="12.35" transform="matrix(1.0, 0.0, 0.0, 1.0, -47.85, -20.95)" width="84.75" xlink:href="#text0"/>
      <use height="24.95" transform="matrix(1.0, 0.0, 0.0, 1.0, -58.05, -2.6)" width="75.0" xlink:href="#text1"/>
    </g>
    <g id="shape1" transform="matrix(1.0, 0.0, 0.0, 1.0, 86.35, 29.55)">
      <path d="M63.6 -28.05 Q68.15 -28.05 71.45 -24.85 74.75 -21.55 74.75 -16.9 L74.75 15.45 Q74.75 20.1 71.45 23.35 68.15 26.6 63.6 26.6 L-73.7 26.6 Q-78.35 26.6 -81.65 23.35 -84.85 20.1 -84.85 15.45 L-84.85 -16.9 Q-84.85 -21.55 -81.65 -24.85 -78.35 -28.05 -73.7 -28.05 L63.6 -28.05" fill="#ffffff" fill-rule="evenodd" stroke="none"/>
      <path d="M63.6 -28.05 L-73.7 -28.05 Q-78.35 -28.05 -81.65 -24.85 -84.85 -21.55 -84.85 -16.9 L-84.85 15.45 Q-84.85 20.1 -81.65 23.35 -78.35 26.6 -73.7 26.6 L63.6 26.6 Q68.15 26.6 71.45 23.35 74.75 20.1 74.75 15.45 L74.75 -16.9 Q74.75 -21.55 71.45 -24.85 68.15 -28.05 63.6 -28.05 Z" fill="none" stroke="#006699" stroke-linecap="round" stroke-linejoin="round" stroke-width="3.0"/>
    </g>
    <g id="text0" transform="matrix(1.0, 0.0, 0.0, 1.0, -50.05, -0.95)">
      <g transform="matrix(1.0, 0.0, 0.0, 1.0, 16.6, 0.0)">
        <use fill="#000000" height="12.35" transform="matrix(0.293, 0.0, 0.0, 0.293, 32.0, 13.0)" width="84.75" xlink:href="#font_A-OTF_____Pro_501_L0"/>
        <use fill="#000000" height="12.35" transform="matrix(0.293, 0.0, 0.0, 0.293, 41.45, 13.0)" width="84.75" xlink:href="#font_A-OTF_____Pro_501_O0"/>
        <use fill="#000000" height="12.35" transform="matrix(0.293, 0.0, 0.0, 0.293, 53.65, 13.0)" width="84.75" xlink:href="#font_A-OTF_____Pro_501_A0"/>
        <use fill="#000000" height="12.35" transform="matrix(0.293, 0.0, 0.0, 0.293, 65.05, 13.0)" width="84.75" xlink:href="#font_A-OTF_____Pro_501_D0"/>
        <use fill="#000000" height="12.35" transform="matrix(0.293, 0.0, 0.0, 0.293, 76.45, 13.0)" width="84.75" xlink:href="#font_A-OTF_____Pro_501_I0"/>
        <use fill="#000000" height="12.35" transform="matrix(0.293, 0.0, 0.0, 0.293, 81.15, 13.0)" width="84.75" xlink:href="#font_A-OTF_____Pro_501_N0"/>
        <use fill="#000000" height="12.35" transform="matrix(0.293, 0.0, 0.0, 0.293, 92.55, 13.0)" width="84.75" xlink:href="#font_A-OTF_____Pro_501_G0"/>
        <use fill="#000000" height="12.35" transform="matrix(0.293, 0.0, 0.0, 0.293, 104.75, 13.0)" width="84.75" xlink:href="#font_A-OTF_____Pro_501_.0"/>
        <use fill="#000000" height="12.35" transform="matrix(0.293, 0.0, 0.0, 0.293, 109.45, 13.0)" width="84.75" xlink:href="#font_A-OTF_____Pro_501_.0"/>
        <use fill="#000000" height="12.35" transform="matrix(0.293, 0.0, 0.0, 0.293, 114.15, 13.0)" width="84.75" xlink:href="#font_A-OTF_____Pro_501_.0"/>
      </g>
    </g>
    <g id="font_A-OTF_____Pro_501_L0">
      <path d="M4.0 -6.6 L4.0 -6.6 Q4.1 -2.35 5.85 -1.1 7.6 0.15 10.0 0.0 L27.45 0.0 Q28.6 0.05 29.6 -0.85 30.6 -1.75 30.65 -3.7 30.7 -5.0 29.85 -6.05 29.05 -7.15 27.15 -7.2 L12.7 -7.2 Q11.0 -7.05 11.2 -9.3 L11.2 -37.55 Q11.2 -38.7 10.35 -39.9 9.45 -41.1 7.7 -41.2 4.25 -40.85 4.0 -37.55 L4.0 -6.6 4.0 -6.6" fill-rule="evenodd" stroke="none"/>
    </g>
    <g id="font_A-OTF_____Pro_501_O0">
      <path d="M20.85 -34.0 L20.85 -34.0 Q26.8 -33.7 29.35 -29.35 31.9 -25.05 31.8 -20.2 31.9 -15.5 29.35 -11.1 26.85 -6.7 20.8 -6.4 14.9 -6.7 12.3 -11.0 9.75 -15.3 9.8 -20.2 9.75 -25.35 12.4 -29.55 15.1 -33.75 20.85 -34.0 L20.85 -34.0 M20.85 0.8 L20.85 0.8 Q27.5 0.7 31.6 -2.6 35.7 -5.9 37.55 -10.7 39.45 -15.5 39.4 -20.2 39.45 -24.9 37.55 -29.7 35.7 -34.5 31.6 -37.8 27.5 -41.05 20.85 -41.2 14.2 -41.05 10.05 -37.8 5.95 -34.5 4.1 -29.7 2.2 -24.9 2.25 -20.2 2.2 -15.5 4.1 -10.7 5.95 -5.9 10.05 -2.6 14.2 0.7 20.85 0.8 L20.85 0.8" fill-rule="evenodd" stroke="none"/>
    </g>
    <g id="font_A-OTF_____Pro_501_A0">
      <path d="M19.4 -32.2 L19.4 -32.2 24.9 -16.55 13.95 -16.55 19.4 -32.2 19.4 -32.2 M30.15 -1.65 L30.15 -1.65 Q30.7 0.65 33.4 1.0 36.2 0.8 36.85 -0.7 37.55 -2.2 37.4 -2.65 L37.05 -4.15 24.5 -37.0 Q22.45 -41.55 19.2 -41.2 17.0 -41.05 15.85 -39.6 14.7 -38.1 14.35 -37.0 L1.7 -4.2 Q1.45 -3.7 1.4 -2.6 1.7 0.7 5.2 0.8 L6.85 0.5 Q7.9 0.1 8.65 -1.75 L11.5 -9.6 27.3 -9.6 30.15 -1.65 30.15 -1.65" fill-rule="evenodd" stroke="none"/>
    </g>
    <g id="font_A-OTF_____Pro_501_D0">
      <path d="M13.9 -7.2 L13.9 -7.2 Q12.05 -7.2 11.6 -8.0 11.15 -8.8 11.2 -10.0 L11.2 -30.4 Q11.15 -31.6 11.55 -32.4 12.0 -33.2 13.9 -33.2 L17.5 -33.2 Q25.3 -32.9 27.4 -28.7 29.5 -24.55 29.2 -20.1 29.5 -15.95 27.4 -11.75 25.35 -7.5 17.5 -7.2 L13.9 -7.2 13.9 -7.2 M9.45 -40.35 L9.45 -40.35 Q6.6 -40.3 5.3 -38.6 4.0 -36.9 4.0 -34.45 L4.0 -5.9 Q4.0 -3.5 5.3 -1.8 6.6 -0.05 9.45 0.0 L19.9 0.0 Q27.75 -0.15 32.15 -5.6 36.55 -11.05 36.6 -20.15 36.65 -28.5 32.5 -34.3 28.35 -40.1 19.9 -40.35 L9.45 -40.35 9.45 -40.35" fill-rule="evenodd" stroke="none"/>
    </g>
    <g id="font_A-OTF_____Pro_501_I0">
      <path d="M4.4 -2.8 L4.4 -2.8 Q4.65 0.5 8.1 0.8 11.5 0.5 11.6 -2.8 L11.6 -37.55 Q11.4 -40.85 7.9 -41.2 6.15 -41.1 5.3 -40.05 4.4 -38.95 4.4 -37.55 L4.4 -2.8 4.4 -2.8" fill-rule="evenodd" stroke="none"/>
    </g>
    <g id="font_A-OTF_____Pro_501_N0">
      <path d="M23.75 -2.9 L23.75 -2.9 Q24.3 -1.55 25.75 -0.4 27.2 0.75 29.45 0.8 32.85 0.55 33.85 -1.65 34.9 -3.85 34.8 -5.1 L34.8 -37.95 Q34.75 -39.6 33.7 -40.4 32.65 -41.2 31.35 -41.2 29.35 -41.1 28.55 -39.95 27.8 -38.8 27.8 -37.8 L27.8 -9.8 15.3 -37.45 Q14.7 -38.85 13.3 -40.0 11.85 -41.1 9.65 -41.2 6.2 -40.95 5.15 -38.75 4.1 -36.55 4.2 -35.25 L4.2 -2.45 Q4.3 -0.75 5.35 0.0 6.4 0.8 7.7 0.8 9.7 0.7 10.45 -0.4 11.25 -1.55 11.2 -2.55 L11.2 -30.6 23.75 -2.9 23.75 -2.9" fill-rule="evenodd" stroke="none"/>
    </g>
    <g id="font_A-OTF_____Pro_501_G0">
      <path d="M20.85 -23.8 L20.85 -23.8 Q19.75 -23.8 18.8 -22.95 17.9 -22.1 17.85 -20.45 17.9 -19.0 18.75 -17.95 19.65 -16.85 21.1 -16.8 L30.1 -16.8 Q31.35 -16.8 31.4 -15.45 L31.4 -12.7 Q31.6 -11.6 29.85 -9.15 28.05 -6.65 22.25 -6.35 16.45 -6.45 13.15 -10.05 9.85 -13.65 9.8 -19.75 9.75 -25.25 12.7 -29.6 15.7 -33.95 22.05 -34.2 24.55 -34.25 26.35 -33.4 28.1 -32.55 30.05 -30.6 31.6 -29.05 32.45 -28.7 33.25 -28.3 33.8 -28.4 35.45 -28.45 36.3 -29.6 37.15 -30.7 37.15 -32.0 37.0 -35.05 32.7 -38.0 28.4 -40.95 21.5 -41.15 12.15 -40.8 7.3 -34.3 2.45 -27.8 2.45 -19.5 2.45 -11.05 7.45 -5.15 12.4 0.75 21.95 1.0 25.4 1.05 29.25 -0.1 33.1 -1.3 35.8 -4.25 38.5 -7.25 38.6 -12.65 L38.6 -17.85 Q38.45 -21.4 36.5 -22.65 34.6 -23.85 32.95 -23.8 L20.85 -23.8 20.85 -23.8" fill-rule="evenodd" stroke="none"/>
    </g>
    <g id="font_A-OTF_____Pro_501_.0">
      <path d="M8.0 -8.75 L8.0 -8.75 Q6.0 -8.7 4.65 -7.4 3.3 -6.05 3.25 -4.0 3.3 -1.95 4.6 -0.6 5.95 0.75 8.0 0.8 10.0 0.75 11.4 -0.6 12.75 -1.95 12.8 -4.0 12.75 -6.05 11.4 -7.4 10.0 -8.7 8.0 -8.75 L8.0 -8.75" fill-rule="evenodd" stroke="none"/>
    </g>
  </defs>
</svg>
