<?xml version="1.0" encoding="UTF-8" standalone="no"?>
<svg xmlns:xlink="http://www.w3.org/1999/xlink" height="450.0px" width="600.0px" xmlns="http://www.w3.org/2000/svg">
  <g transform="matrix(1.0, 0.0, 0.0, 1.0, 0.0, 0.0)">
    <use height="200.05" transform="matrix(1.2088, 0.0, 0.0, 2.4539, -14.9987, -15.003)" width="516.15" xlink:href="#shape0"/>
    <use height="217.95" transform="matrix(0.6467, 0.0, 0.0, 0.6467, 145.3, 117.25)" width="487.0" xlink:href="#shape1"/>
    <use height="126.5" transform="matrix(1.0, 0.0, 0.0, 1.0, 157.05, 127.25)" width="287.4" xlink:href="#shape2"/>
    <use height="57.65" transform="matrix(1.0805, 0.0, 0.0, 1.0805, 213.697, 291.3206)" width="162.6" xlink:href="#sprite0"/>
  </g>
  <defs>
    <g id="shape0" transform="matrix(1.0, 0.0, 0.0, 1.0, -22.75, -11.45)">
      <path d="M538.9 211.5 L22.75 211.5 22.75 11.45 538.9 11.45 538.9 211.5" fill="#ffffff" fill-rule="evenodd" stroke="none"/>
    </g>
    <g id="shape1" transform="matrix(1.0, 0.0, 0.0, 1.0, 0.0, 0.0)">
      <path d="M64.75 149.15 L64.85 150.45 65.75 148.75 64.75 149.15 M343.4 217.7 L343.4 217.95 341.9 217.95 343.4 217.7 M479.55 69.2 Q476.65 76.05 471.75 85.85 L463.7 101.9 Q454.8 120.15 454.5 128.6 454.2 136.3 451.7 143.55 449.75 149.3 447.7 156.6 445.6 163.85 440.95 170.2 L433.7 180.1 Q431.15 183.6 425.5 185.85 L418.3 185.85 413.1 185.05 412.8 185.5 Q407.75 192.85 401.4 193.8 L329.15 206.75 Q317.95 208.95 311.55 204.45 308.85 202.6 307.05 199.55 L306.0 198.05 299.05 204.45 Q291.0 211.05 282.7 214.05 270.25 218.45 259.1 214.15 249.8 210.6 242.75 201.5 L241.7 200.1 Q234.55 190.2 230.65 175.65 L162.55 168.65 Q157.2 177.5 147.45 179.45 140.45 180.8 133.95 178.7 134.55 183.3 132.9 186.15 131.8 187.85 128.85 189.8 L86.55 214.5 Q82.5 216.9 79.4 217.05 77.15 217.9 69.6 214.55 L67.95 212.85 Q61.2 205.85 58.15 201.8 53.55 195.6 51.3 188.95 50.1 185.4 49.1 180.5 L47.4 171.95 Q45.3 161.5 41.9 155.4 39.9 151.85 34.1 145.15 28.8 138.95 26.6 134.5 24.0 129.15 20.05 118.7 16.0 107.75 13.7 102.85 L6.5 86.85 Q2.8 77.85 1.25 70.6 -2.65 52.3 5.65 37.35 11.9 26.15 30.95 23.45 43.2 21.75 62.7 23.65 L79.2 25.0 Q88.2 25.45 95.3 24.8 112.65 23.2 124.75 14.2 134.55 6.9 150.0 1.95 156.05 0.0 163.35 2.15 L169.55 4.25 176.2 6.1 Q186.25 8.0 202.05 5.8 L219.9 2.9 Q231.1 0.9 237.85 0.25 248.0 -0.8 261.25 2.4 L272.7 5.5 284.15 8.7 Q289.45 10.1 296.05 10.6 L320.65 11.0 332.95 11.85 Q339.15 12.75 347.6 15.8 L361.7 21.1 Q369.75 23.9 375.8 24.5 383.55 25.15 390.65 22.6 414.75 14.0 430.3 11.7 453.7 8.3 470.5 15.85 485.8 22.75 486.9 38.0 487.75 49.95 479.55 69.2" fill="#ffffff" fill-opacity="0.69803923" fill-rule="evenodd" stroke="none"/>
    </g>
    <g id="shape2" transform="matrix(1.0, 0.0, 0.0, 1.0, -11.75, -10.0)">
      <path d="M132.9 61.0 L143.85 60.1 142.3 84.35 135.2 84.1 132.95 80.7 132.75 86.75 120.6 86.35 121.25 81.45 Q125.25 76.8 126.45 69.95 L126.8 64.9 133.35 65.65 132.9 61.0" fill="#f5f21f" fill-rule="evenodd" stroke="none"/>
      <path d="M132.9 61.0 L133.35 65.65 126.8 64.9 126.45 69.95 Q125.25 76.8 121.25 81.45 L120.6 86.35 132.75 86.75 132.95 80.7 135.2 84.1 142.3 84.35 143.85 60.1 132.9 61.0 Z" fill="none" stroke="#000000" stroke-linecap="round" stroke-linejoin="round" stroke-width="0.9"/>
      <path d="M290.15 38.1 L278.8 85.55 Q281.75 90.5 280.7 97.1 279.85 102.5 276.5 106.45 273.1 110.45 268.8 110.95 L219.9 118.0 Q209.15 119.7 204.9 114.1 L204.2 113.25 Q196.5 119.6 188.45 121.95 180.0 124.35 172.45 122.0 165.7 119.95 160.7 114.4 155.85 109.0 153.2 101.1 L107.1 97.3 Q103.5 102.1 96.85 103.15 L87.75 102.75 Q88.15 105.25 87.0 106.8 86.25 107.7 84.3 108.8 L55.65 122.2 Q45.05 127.2 44.1 114.05 L40.65 77.0 32.1 80.1 Q29.15 81.1 26.75 79.55 24.4 78.0 23.4 74.7 15.9 50.0 12.25 36.35 10.95 31.6 13.05 28.7 15.4 25.45 21.15 26.0 L67.6 31.5 Q71.7 25.65 77.4 23.75 82.5 21.95 88.25 23.6 93.55 25.1 98.35 29.2 103.05 33.2 105.95 38.65 112.25 34.75 118.6 35.65 125.0 36.55 128.8 42.1 130.4 38.75 132.95 37.7 L138.3 36.45 168.35 31.85 Q177.0 22.05 187.05 17.95 197.45 13.7 206.8 16.55 213.3 18.55 218.25 23.9 223.0 29.0 225.7 36.6 267.0 28.85 279.55 26.8 285.75 25.8 288.7 29.25 291.55 32.5 290.15 38.1" fill="#f4340f" fill-rule="evenodd" stroke="none"/>
      <path d="M223.1 52.6 L226.95 52.75 227.75 44.95 251.1 46.2 251.0 39.25 283.35 34.6 270.7 87.9 Q271.85 89.3 272.3 91.4 272.8 93.6 272.4 96.1 271.9 99.3 270.15 101.5 268.4 103.7 266.3 103.95 L260.75 104.85 225.85 109.05 Q224.2 111.2 221.55 112.3 218.9 113.35 216.65 112.9 213.2 112.3 211.0 108.65 209.05 105.4 209.25 102.2 L205.85 100.6 203.25 106.0 Q201.75 108.8 200.05 110.05 L185.65 113.4 183.2 109.5 172.0 113.65 Q164.9 110.9 162.15 101.55 L163.4 95.35 139.45 93.55 140.45 88.25 135.9 88.1 135.3 91.7 115.7 90.85 117.05 84.85 Q114.6 86.1 112.2 86.05 108.15 85.9 105.2 83.05 103.5 88.55 100.2 92.1 96.85 95.7 92.55 96.6 85.6 98.2 79.75 94.9 L81.15 100.75 52.05 113.75 46.25 65.15 29.95 70.65 20.65 33.75 70.5 36.85 72.85 46.95 Q77.2 41.95 83.8 40.5 89.25 39.35 94.6 43.45 99.8 47.45 103.1 55.15 105.45 51.95 109.05 50.3 112.45 48.7 116.0 48.95 119.0 49.1 121.65 51.3 124.2 53.4 125.75 56.85 L133.2 56.4 134.5 43.1 177.95 36.4 179.45 28.4 Q189.0 21.95 198.15 21.85 L208.6 29.45 207.7 34.55 212.55 32.65 220.6 36.3 Q221.55 38.1 222.2 41.15 223.35 46.25 223.1 52.6" fill="#000000" fill-rule="evenodd" stroke="none"/>
      <path d="M244.7 53.95 L255.15 54.05 257.0 57.8 256.75 43.85 275.4 42.05 266.95 85.0 258.0 85.0 255.05 79.9 254.5 87.45 243.15 87.85 244.7 53.95" fill="#f5f21f" fill-rule="evenodd" stroke="none"/>
      <path d="M244.7 53.95 L243.15 87.85 254.5 87.45 255.05 79.9 258.0 85.0 266.95 85.0 275.4 42.05 256.75 43.85 257.0 57.8 255.15 54.05 244.7 53.95 Z" fill="none" stroke="#000000" stroke-linecap="round" stroke-linejoin="round" stroke-width="0.9"/>
      <path d="M173.25 40.7 L171.05 57.35 160.35 57.0 160.25 90.65 144.55 88.65 148.6 57.0 139.35 56.45 139.35 46.15 173.25 40.7" fill="#f5f21f" fill-rule="evenodd" stroke="none"/>
      <path d="M173.25 40.7 L139.35 46.15 139.35 56.45 148.6 57.0 144.55 88.65 160.25 90.65 160.35 57.0 171.05 57.35 173.25 40.7 Z" fill="none" stroke="#000000" stroke-linecap="round" stroke-linejoin="round" stroke-width="0.9"/>
      <path d="M71.5 52.55 L63.1 55.05 76.65 96.95 55.9 104.15 49.2 59.3 34.0 63.4 28.25 40.8 68.6 40.95 71.5 52.55" fill="#f5f21f" fill-rule="evenodd" stroke="none"/>
      <path d="M71.5 52.55 L68.6 40.95 28.25 40.8 34.0 63.4 49.2 59.3 55.9 104.15 76.65 96.95 63.1 55.05 71.5 52.55 Z" fill="none" stroke="#000000" stroke-linecap="round" stroke-linejoin="round" stroke-width="0.9"/>
      <path d="M211.6 58.1 L222.65 57.8 224.35 64.45 226.3 59.65 228.65 64.35 229.95 53.35 242.6 52.7 237.85 89.75 229.9 89.95 226.95 81.85 224.0 87.9 215.75 87.75 211.6 58.1" fill="#f5f21f" fill-rule="evenodd" stroke="none"/>
      <path d="M211.6 58.1 L215.75 87.75 224.0 87.9 226.95 81.85 229.9 89.95 237.85 89.75 242.6 52.7 229.95 53.35 228.65 64.35 226.3 59.65 224.35 64.45 222.65 57.8 211.6 58.1 Z" fill="none" stroke="#000000" stroke-linecap="round" stroke-linejoin="round" stroke-width="0.9"/>
      <path d="M95.75 50.3 Q100.65 55.9 102.1 65.05 103.55 74.2 100.8 81.55 99.45 85.0 97.4 87.25 95.25 89.55 92.6 90.15 89.95 90.75 87.25 89.55 84.65 88.4 82.35 85.75 77.45 80.15 76.0 71.0 74.55 61.85 77.3 54.45 78.65 51.0 80.65 48.8 82.85 46.5 85.5 45.9 88.15 45.3 90.85 46.45 93.45 47.65 95.75 50.3" fill="#666666" fill-rule="evenodd" stroke="none"/>
      <path d="M95.75 50.3 Q100.65 55.9 102.1 65.1 103.55 74.2 100.8 81.5 99.45 84.95 97.4 87.15 95.25 89.4 92.65 90.0 90.0 90.6 87.25 89.4 84.7 88.3 82.4 85.65 77.55 80.05 76.1 70.9 74.6 61.8 77.35 54.45 78.65 51.0 80.7 48.8 82.85 46.5 85.5 45.9 88.15 45.3 90.85 46.45 93.45 47.65 95.75 50.3" fill="#6a6a69" fill-rule="evenodd" stroke="none"/>
      <path d="M95.75 50.3 Q100.65 55.9 102.1 65.15 103.55 74.1 100.8 81.4 99.45 84.8 97.4 87.0 95.3 89.3 92.65 89.9 90.0 90.5 87.3 89.3 84.7 88.15 82.4 85.55 77.6 79.95 76.15 70.85 74.7 61.75 77.4 54.45 78.7 51.0 80.75 48.8 82.85 46.5 85.5 45.9 88.15 45.3 90.85 46.5 93.45 47.65 95.75 50.3" fill="#6d6d6d" fill-rule="evenodd" stroke="none"/>
      <path d="M95.75 50.25 Q100.65 55.9 102.1 65.15 103.55 74.1 100.75 81.35 98.0 88.55 92.65 89.75 90.0 90.4 87.35 89.2 84.75 88.0 82.5 85.4 77.7 79.85 76.2 70.8 74.75 61.75 77.45 54.45 80.15 47.1 85.5 45.9 88.15 45.3 90.85 46.45 93.45 47.65 95.75 50.25" fill="#717171" fill-rule="evenodd" stroke="none"/>
      <path d="M95.75 50.25 Q100.65 55.9 102.1 65.2 103.55 74.05 100.75 81.25 98.0 88.45 92.65 89.65 90.05 90.25 87.35 89.05 84.8 87.95 82.55 85.3 77.75 79.75 76.3 70.7 74.8 61.7 77.5 54.45 78.75 50.95 80.75 48.75 82.85 46.5 85.5 45.9 88.15 45.3 90.85 46.5 93.5 47.65 95.75 50.25" fill="#757575" fill-rule="evenodd" stroke="none"/>
      <path d="M95.75 50.25 Q100.65 55.9 102.1 65.25 103.5 74.0 100.75 81.15 99.45 84.55 97.4 86.75 95.3 88.95 92.7 89.55 90.1 90.15 87.4 88.95 84.85 87.8 82.6 85.2 77.85 79.6 76.35 70.65 74.9 61.65 77.55 54.45 80.2 47.1 85.5 45.9 88.15 45.3 90.85 46.45 93.45 47.65 95.75 50.25" fill="#797979" fill-rule="evenodd" stroke="none"/>
      <path d="M95.75 50.25 Q100.65 55.9 102.1 65.25 103.5 73.95 100.75 81.05 99.45 84.45 97.4 86.6 95.3 88.85 92.7 89.4 90.1 90.0 87.45 88.85 84.9 87.65 82.65 85.05 77.9 79.55 76.45 70.6 75.0 61.65 77.55 54.4 78.85 50.95 80.8 48.75 82.9 46.5 85.5 45.9 88.15 45.3 90.85 46.45 93.45 47.65 95.75 50.25" fill="#7c7c7c" fill-rule="evenodd" stroke="none"/>
      <path d="M95.75 50.25 Q100.65 55.9 102.1 65.3 103.45 73.95 100.75 81.0 99.45 84.35 97.4 86.5 95.3 88.75 92.75 89.3 90.1 89.9 87.5 88.7 84.95 87.55 82.7 84.95 77.95 79.4 76.5 70.55 75.05 61.6 77.65 54.4 80.25 47.1 85.5 45.9 88.15 45.3 90.85 46.5 93.45 47.65 95.75 50.25" fill="#808080" fill-rule="evenodd" stroke="none"/>
      <path d="M95.75 50.25 Q100.65 55.9 102.1 65.3 103.45 73.9 100.75 80.9 99.45 84.25 97.4 86.35 95.3 88.6 92.75 89.2 90.15 89.75 87.55 88.55 85.0 87.45 82.75 84.8 78.0 79.35 76.55 70.5 75.1 61.55 77.65 54.35 78.9 50.95 80.85 48.75 82.95 46.45 85.5 45.9 88.15 45.3 90.85 46.5 93.45 47.65 95.75 50.25" fill="#848484" fill-rule="evenodd" stroke="none"/>
      <path d="M95.75 50.25 Q100.65 55.9 102.1 65.35 103.45 73.85 100.7 80.85 99.45 84.2 97.4 86.3 95.3 88.5 92.75 89.1 87.55 90.25 82.8 84.75 78.1 79.25 76.65 70.45 75.2 61.55 77.75 54.35 80.3 47.05 85.5 45.9 88.15 45.3 90.85 46.45 93.45 47.6 95.75 50.25" fill="#888888" fill-rule="evenodd" stroke="none"/>
      <path d="M95.75 50.25 Q100.7 55.9 102.1 65.4 103.45 73.8 100.7 80.75 97.95 87.8 92.75 88.95 87.55 90.15 82.85 84.6 78.2 79.15 76.75 70.35 75.25 61.5 77.75 54.35 78.95 50.95 80.9 48.75 82.95 46.45 85.5 45.9 88.15 45.3 90.85 46.5 93.45 47.6 95.75 50.25" fill="#8b8b8b" fill-rule="evenodd" stroke="none"/>
      <path d="M95.75 50.25 Q100.7 55.9 102.1 65.4 103.45 73.75 100.7 80.7 99.45 84.0 97.4 86.1 95.35 88.25 92.8 88.85 90.2 89.4 87.6 88.2 85.1 87.1 82.85 84.5 78.2 79.05 76.8 70.3 75.35 61.5 77.85 54.35 80.35 47.05 85.5 45.9 88.15 45.35 90.85 46.5 93.45 47.6 95.75 50.25" fill="#8f8e8f" fill-rule="evenodd" stroke="none"/>
      <path d="M95.75 50.25 Q100.7 55.9 102.1 65.5 103.4 73.75 100.7 80.6 97.95 87.55 92.8 88.7 90.25 89.3 87.65 88.1 85.15 86.95 82.95 84.35 78.3 78.95 76.85 70.25 75.4 61.45 77.85 54.35 80.4 47.05 85.5 45.9 88.15 45.3 90.85 46.45 93.45 47.6 95.75 50.25" fill="#939392" fill-rule="evenodd" stroke="none"/>
      <path d="M95.75 50.25 Q100.7 55.9 102.1 65.5 103.4 73.7 100.7 80.5 97.95 87.45 92.85 88.6 90.3 89.15 87.7 88.0 85.2 86.85 83.0 84.25 78.4 78.85 76.95 70.15 75.5 61.4 77.95 54.35 80.4 47.05 85.5 45.9 88.15 45.35 90.85 46.45 93.45 47.6 95.75 50.25" fill="#979797" fill-rule="evenodd" stroke="none"/>
      <path d="M95.75 50.25 Q100.7 55.9 102.1 65.5 103.35 73.65 100.7 80.45 97.95 87.35 92.85 88.5 90.3 89.05 87.7 87.85 85.25 86.75 83.05 84.15 78.4 78.75 77.0 70.1 75.55 61.4 77.95 54.3 79.1 50.9 81.05 48.75 83.0 46.45 85.5 45.9 88.15 45.35 90.85 46.45 93.45 47.6 95.75 50.25" fill="#9a9a9a" fill-rule="evenodd" stroke="none"/>
      <path d="M95.75 50.25 Q100.7 55.9 102.15 65.6 103.35 73.65 100.7 80.4 97.95 87.25 92.85 88.4 87.7 89.5 83.1 84.05 78.5 78.65 77.1 70.05 75.65 61.4 78.0 54.3 80.45 47.0 85.5 45.9 88.15 45.35 90.85 46.45 93.45 47.6 95.75 50.25" fill="#a09e9e" fill-rule="evenodd" stroke="none"/>
      <path d="M95.75 50.25 Q100.7 55.9 102.15 65.6 103.35 73.6 100.7 80.3 97.95 87.1 92.85 88.25 90.35 88.8 87.75 87.65 85.35 86.5 83.15 83.9 78.55 78.55 77.15 70.0 75.7 61.3 78.05 54.25 80.5 47.0 85.5 45.9 88.15 45.35 90.85 46.5 93.45 47.65 95.75 50.25" fill="#a2a2a2" fill-rule="evenodd" stroke="none"/>
      <path d="M95.75 50.2 Q100.7 55.9 102.15 65.65 103.35 73.55 100.7 80.25 99.4 83.4 97.45 85.45 95.4 87.55 92.9 88.1 90.4 88.65 87.8 87.5 85.35 86.35 83.2 83.8 78.65 78.4 77.2 69.9 75.8 61.3 78.1 54.25 80.5 47.0 85.5 45.9 88.15 45.35 90.85 46.45 93.45 47.6 95.75 50.2" fill="#a5a3a4" fill-rule="evenodd" stroke="none"/>
      <path d="M95.75 50.2 Q100.7 55.9 102.15 65.7 103.35 73.5 100.65 80.15 97.95 86.9 92.9 88.0 90.4 88.55 87.85 87.4 85.45 86.25 83.25 83.7 78.7 78.3 77.3 69.85 75.85 61.25 78.15 54.25 80.5 47.0 85.5 45.9 88.15 45.35 90.85 46.45 93.45 47.6 95.75 50.2" fill="#a9a9a9" fill-rule="evenodd" stroke="none"/>
      <path d="M95.75 50.2 Q100.7 55.9 102.15 65.7 103.3 73.45 100.65 80.05 97.95 86.8 92.95 87.9 87.9 89.0 83.3 83.55 78.75 78.25 77.4 69.8 75.95 61.25 78.2 54.25 80.55 47.0 85.55 45.9 88.2 45.35 90.85 46.45 93.45 47.6 95.75 50.2" fill="#adadad" fill-rule="evenodd" stroke="none"/>
      <path d="M95.75 50.2 Q100.7 55.95 102.15 65.75 103.3 73.45 100.65 79.95 99.4 83.1 97.45 85.1 95.4 87.2 92.95 87.75 87.9 88.85 83.35 83.45 78.85 78.15 77.45 69.7 76.0 61.2 78.25 54.25 80.6 47.0 85.55 45.9 88.2 45.35 90.85 46.45 93.5 47.6 95.75 50.2" fill="#b1b1b1" fill-rule="evenodd" stroke="none"/>
      <path d="M95.75 50.2 Q100.7 55.9 102.2 65.8 103.3 73.4 100.65 79.9 97.95 86.55 92.95 87.65 90.45 88.2 87.95 87.0 85.5 85.9 83.4 83.35 78.9 78.05 77.5 69.65 76.1 61.15 78.3 54.2 80.6 47.0 85.55 45.9 88.15 45.35 90.85 46.45 93.45 47.6 95.75 50.2" fill="#b4b4b4" fill-rule="evenodd" stroke="none"/>
      <path d="M95.75 50.2 Q100.7 55.9 102.2 65.8 103.3 73.4 100.65 79.85 97.95 86.45 92.95 87.55 90.5 88.1 88.0 86.9 85.55 85.75 83.4 83.25 79.0 77.95 77.55 69.6 76.15 61.15 78.35 54.2 80.6 47.0 85.55 45.9 88.15 45.35 90.8 46.45 93.45 47.6 95.75 50.2" fill="#b8b8b8" fill-rule="evenodd" stroke="none"/>
      <path d="M95.75 50.2 Q100.7 55.95 102.2 65.85 103.3 73.3 100.65 79.75 97.95 86.35 93.0 87.4 88.0 88.5 83.5 83.1 79.05 77.8 77.65 69.55 76.2 61.1 78.4 54.2 80.65 46.95 85.55 45.9 88.15 45.35 90.8 46.45 93.45 47.6 95.75 50.2" fill="#bcbcbc" fill-rule="evenodd" stroke="none"/>
      <path d="M95.75 50.2 Q100.7 55.95 102.2 65.85 103.3 73.3 100.65 79.7 97.95 86.25 93.05 87.3 90.55 87.85 88.05 86.65 85.65 85.55 83.55 83.0 79.1 77.75 77.75 69.45 76.3 61.1 78.45 54.2 80.65 46.95 85.55 45.9 88.15 45.35 90.8 46.45 93.45 47.6 95.75 50.2" fill="#c0c0c0" fill-rule="evenodd" stroke="none"/>
      <path d="M95.75 50.2 Q100.75 55.95 102.2 65.9 103.25 73.25 100.65 79.6 97.95 86.1 93.05 87.2 88.1 88.25 83.6 82.9 79.2 77.65 77.8 69.4 76.35 61.05 78.5 54.15 80.65 46.95 85.55 45.9 88.15 45.35 90.8 46.5 93.45 47.6 95.75 50.2" fill="#c1c1c2" fill-rule="evenodd" stroke="none"/>
      <path d="M95.75 50.2 Q100.75 55.95 102.2 65.95 103.25 73.2 100.65 79.5 97.95 86.0 93.05 87.1 88.1 88.1 83.65 82.8 79.25 77.5 77.85 69.35 76.45 61.0 78.55 54.15 80.75 46.95 85.6 45.9 88.2 45.35 90.85 46.45 93.45 47.6 95.75 50.2" fill="#c7c7c7" fill-rule="evenodd" stroke="none"/>
      <path d="M95.75 50.2 Q100.75 55.95 102.2 65.95 103.2 73.15 100.65 79.4 97.95 85.9 93.05 86.95 88.15 88.0 83.7 82.65 79.3 77.4 77.95 69.3 76.5 61.0 78.55 54.15 80.75 46.95 85.6 45.9 88.2 45.35 90.8 46.45 93.45 47.6 95.75 50.2" fill="#cdcbcb" fill-rule="evenodd" stroke="none"/>
      <path d="M95.75 50.2 Q100.75 55.95 102.2 66.05 103.2 73.1 100.65 79.35 97.95 85.8 93.05 86.85 88.2 87.85 83.7 82.55 79.4 77.3 78.0 69.25 76.6 60.95 78.65 54.15 80.75 46.95 85.6 45.9 88.2 45.35 90.8 46.45 93.45 47.6 95.75 50.2" fill="#cecdcd" fill-rule="evenodd" stroke="none"/>
      <path d="M95.75 50.2 Q100.75 55.95 102.2 66.05 103.2 73.1 100.65 79.25 97.95 85.65 93.1 86.7 88.2 87.75 83.8 82.45 79.45 77.2 78.1 69.15 76.65 60.95 78.65 54.15 80.8 46.95 85.6 45.9 88.2 45.35 90.8 46.45 93.45 47.6 95.75 50.2" fill="#d3d2d2" fill-rule="evenodd" stroke="none"/>
      <path d="M95.75 50.2 Q100.75 55.95 102.2 66.1 103.2 73.05 100.6 79.2 97.95 85.55 93.1 86.6 88.25 87.65 83.85 82.35 79.55 77.15 78.15 69.1 76.75 60.9 78.7 54.1 80.8 46.95 85.6 45.9 88.15 45.35 90.8 46.45 93.45 47.6 95.75 50.2" fill="#d5d4d5" fill-rule="evenodd" stroke="none"/>
      <path d="M95.75 50.2 Q100.8 55.95 102.2 66.15 103.2 73.0 100.6 79.1 97.95 85.45 93.1 86.45 88.3 87.5 83.9 82.2 79.6 77.05 78.2 69.05 76.85 60.85 78.75 54.1 80.85 46.95 85.6 45.9 88.2 45.35 90.8 46.45 93.45 47.6 95.75 50.2" fill="#d9d9d9" fill-rule="evenodd" stroke="none"/>
      <path d="M95.75 50.2 Q100.8 55.95 102.2 66.15 103.15 73.0 100.6 79.05 97.9 85.35 93.1 86.35 88.3 87.4 83.95 82.1 79.65 76.95 78.3 69.0 76.9 60.85 78.85 54.1 80.85 46.95 85.6 45.9 88.2 45.35 90.8 46.5 93.45 47.6 95.75 50.2" fill="#dddddd" fill-rule="evenodd" stroke="none"/>
      <path d="M95.75 50.2 Q100.8 55.95 102.2 66.2 103.15 72.9 100.6 78.95 97.9 85.25 93.15 86.25 88.35 87.25 83.95 82.0 79.75 76.85 78.35 68.9 76.95 60.8 78.85 54.05 80.9 46.95 85.6 45.9 88.2 45.35 90.8 46.45 93.45 47.6 95.75 50.2" fill="#e2e1e0" fill-rule="evenodd" stroke="none"/>
      <path d="M95.75 50.2 Q100.8 55.95 102.2 66.25 103.15 72.9 100.55 78.85 97.9 85.1 93.2 86.1 88.4 87.15 84.05 81.85 79.8 76.75 78.45 68.9 77.0 60.75 78.9 54.05 80.9 46.95 85.6 45.9 88.2 45.35 90.8 46.45 93.45 47.6 95.75 50.2" fill="#e5e3e4" fill-rule="evenodd" stroke="none"/>
      <path d="M95.7 50.2 Q100.8 55.95 102.2 66.25 103.1 72.85 100.55 78.8 97.9 85.0 93.2 86.0 88.45 87.0 84.05 81.75 79.85 76.6 78.5 68.8 77.1 60.75 78.95 54.05 80.95 46.9 85.6 45.9 88.2 45.4 90.8 46.5 93.45 47.6 95.7 50.2" fill="#ebeae9" fill-rule="evenodd" stroke="none"/>
      <path d="M95.7 50.2 Q100.8 55.95 102.2 66.3 103.1 72.85 100.55 78.7 97.9 84.9 93.2 85.9 88.45 86.9 84.15 81.6 79.95 76.5 78.55 68.7 77.2 60.7 79.0 54.05 80.95 46.9 85.6 45.9 88.2 45.4 90.8 46.5 93.45 47.6 95.7 50.2" fill="#eeeded" fill-rule="evenodd" stroke="none"/>
      <path d="M95.7 50.2 Q100.8 55.95 102.2 66.35 103.1 72.8 100.55 78.65 97.9 84.8 93.2 85.8 88.5 86.75 84.2 81.5 80.0 76.4 78.65 68.65 77.25 60.65 79.05 54.05 81.0 46.9 85.6 45.9 88.2 45.4 90.8 46.45 93.45 47.6 95.7 50.2" fill="#f1f0f0" fill-rule="evenodd" stroke="none"/>
      <path d="M95.7 50.2 Q100.8 55.95 102.25 66.4 103.1 72.75 100.55 78.55 97.9 84.7 93.2 85.65 88.55 86.65 84.25 81.4 80.1 76.3 78.75 68.6 77.35 60.65 79.1 54.0 81.0 46.9 85.6 45.9 88.2 45.4 90.8 46.5 93.45 47.6 95.7 50.2" fill="#f5f4f4" fill-rule="evenodd" stroke="none"/>
      <path d="M95.75 50.2 Q100.8 55.95 102.25 66.4 103.05 72.7 100.55 78.5 97.9 84.55 93.25 85.55 88.55 86.5 84.3 81.3 80.15 76.2 78.8 68.55 77.4 60.6 79.15 54.0 81.05 46.9 85.6 45.9 88.2 45.4 90.8 46.5 93.45 47.55 95.75 50.2" fill="#f8f8f8" fill-rule="evenodd" stroke="none"/>
      <path d="M95.75 50.2 Q100.8 55.95 102.25 66.45 103.05 72.65 100.55 78.4 97.9 84.45 93.3 85.4 88.6 86.4 84.35 81.15 80.2 76.1 78.85 68.5 77.45 60.55 79.2 54.0 81.05 46.9 85.6 45.9 88.2 45.4 90.8 46.45 93.45 47.6 95.75 50.2" fill="#fbfbfb" fill-rule="evenodd" stroke="none"/>
      <path d="M95.7 50.15 Q100.8 56.0 102.25 66.5 103.05 72.65 100.55 78.3 97.9 84.35 93.3 85.3 88.65 86.3 84.4 81.05 80.3 76.05 78.95 68.45 77.55 60.55 79.25 53.95 81.05 46.85 85.6 45.9 88.2 45.4 90.8 46.5 93.45 47.6 95.7 50.15" fill="#ffffff" fill-rule="evenodd" stroke="none"/>
      <path d="M113.8 26.35 L114.15 26.3 114.1 26.3 113.25 26.05 Q112.55 25.8 112.35 24.95 L112.45 24.15 110.95 23.8 111.0 26.35 Q112.45 26.55 113.8 26.35 M106.1 24.05 L105.4 24.2 106.1 24.6 106.1 24.05 M117.65 22.3 Q117.85 23.05 117.65 23.85 L117.0 25.05 117.15 24.95 Q117.65 24.55 117.75 23.8 117.95 23.0 117.65 22.3 M110.55 16.1 L110.05 15.85 Q110.7 16.6 110.9 17.95 L110.95 19.0 114.2 19.5 Q116.45 20.15 117.3 21.5 115.55 18.25 110.55 16.1 M134.85 23.05 L134.6 23.15 134.75 23.3 134.85 23.05 M157.75 16.1 Q158.05 15.7 158.6 15.6 160.0 15.3 161.05 16.35 161.85 17.1 162.05 18.25 L162.15 19.4 163.6 19.1 166.95 19.2 Q167.9 19.45 168.45 19.9 169.4 20.85 168.95 22.1 L168.65 22.65 167.8 23.15 168.65 24.2 Q169.0 25.0 168.9 26.2 168.85 27.45 168.35 28.15 167.6 29.25 166.05 29.7 L163.3 30.0 Q161.95 29.85 160.85 29.25 159.5 28.55 159.0 27.2 157.5 29.85 154.35 30.45 L153.65 32.8 153.0 36.05 152.5 36.85 Q152.05 37.25 151.6 37.25 150.5 37.3 149.7 36.7 149.0 36.15 148.75 35.2 148.35 33.95 148.7 32.05 148.95 30.55 149.5 28.8 147.95 29.85 146.55 30.1 L144.45 29.95 Q143.35 29.5 142.85 28.4 L142.0 29.15 141.7 29.3 141.15 29.55 139.8 29.3 Q139.2 29.0 138.7 28.35 L138.35 29.15 Q137.9 29.95 137.0 30.05 135.4 30.25 134.7 28.6 133.05 30.25 130.1 30.0 127.85 29.8 126.55 28.5 L126.15 29.25 124.95 29.9 Q124.3 30.1 123.65 29.9 122.35 29.55 122.0 28.05 L121.9 27.0 120.1 28.9 Q117.95 30.65 114.8 31.0 L110.6 30.9 110.3 31.3 Q109.75 31.8 108.95 31.9 L107.85 31.8 107.05 31.35 Q106.5 30.7 106.3 29.75 L106.2 29.3 103.75 27.6 Q101.55 25.8 101.05 24.3 100.55 22.8 101.8 21.55 L103.8 20.3 106.3 19.45 106.4 18.3 Q106.5 16.8 107.15 15.7 L107.9 15.1 Q105.0 14.25 102.45 14.4 102.2 15.15 101.45 15.45 L100.15 15.7 Q98.45 15.6 97.8 14.45 97.4 13.9 97.7 13.15 L98.2 12.1 Q98.7 11.15 99.7 10.8 103.95 9.3 109.2 10.7 113.9 11.95 117.75 15.0 119.05 16.1 119.95 17.15 119.9 15.9 120.7 14.65 121.4 13.65 122.35 12.95 123.7 12.0 125.2 11.8 127.15 11.45 128.35 12.65 L128.6 12.7 129.4 13.15 Q130.85 14.15 130.4 16.0 130.1 17.3 129.0 18.45 127.7 19.85 125.9 20.4 L126.1 20.85 127.0 20.15 Q128.4 19.35 130.5 19.1 L133.85 19.2 Q134.85 19.45 135.4 20.0 L135.7 20.55 135.75 20.45 136.3 19.9 138.05 19.9 138.45 20.1 138.4 19.6 138.45 19.15 138.5 18.75 138.9 18.2 Q139.45 17.75 140.15 17.8 141.75 18.15 142.9 20.45 143.2 19.85 143.85 19.6 L147.85 18.9 150.4 19.3 Q151.3 19.65 151.7 20.4 L151.75 20.4 Q152.2 19.75 152.6 19.5 153.4 18.95 154.25 19.1 155.2 19.35 155.35 20.35 L156.35 19.9 157.7 19.9 157.95 19.5 157.85 19.45 Q157.1 18.8 157.05 17.9 157.0 17.0 157.75 16.1" fill="#000000" fill-rule="evenodd" stroke="none"/>
      <path d="M116.85 16.1 Q120.4 18.95 121.25 22.05 122.2 25.4 119.25 27.7 117.35 29.2 114.6 29.55 L109.6 29.15 109.3 30.25 108.15 30.35 Q107.75 29.95 107.6 28.4 L104.65 26.45 Q102.8 24.95 102.45 23.8 102.05 22.65 104.4 21.6 L107.65 20.6 107.85 18.45 Q107.95 17.2 108.4 16.45 109.25 16.7 109.45 18.15 L109.5 20.3 109.7 20.4 113.8 20.9 Q116.65 21.7 116.25 23.5 116.1 24.15 114.95 24.9 L113.8 24.7 Q113.8 24.45 114.25 24.05 L114.75 23.3 Q114.1 22.95 112.05 22.5 L109.5 22.35 109.6 27.6 Q115.0 28.7 118.1 26.05 118.95 25.35 119.2 24.1 119.45 22.9 119.05 21.75 117.45 17.45 111.15 14.7 108.4 13.5 105.55 13.05 102.7 12.65 100.55 13.15 100.1 13.25 100.0 13.45 L100.55 13.55 101.05 13.8 Q101.2 14.25 100.25 14.2 99.35 14.15 99.05 13.7 99.7 12.35 100.15 12.15 104.0 10.85 108.85 12.15 113.25 13.3 116.85 16.1 M107.65 22.35 L103.55 23.15 Q102.1 23.65 104.4 25.25 106.2 26.5 107.5 26.95 L107.65 22.35" fill="#ffffff" fill-rule="evenodd" stroke="none"/>
      <path d="M132.35 28.35 L130.2 28.55 Q127.45 28.25 127.1 26.45 126.7 24.85 129.0 24.8 131.0 24.8 132.1 25.5 132.15 26.6 130.3 26.2 L128.8 25.85 127.8 25.85 Q127.55 26.1 127.7 26.35 128.15 27.15 130.55 26.9 132.9 26.6 133.05 25.7 132.9 24.95 131.9 24.7 L127.7 24.2 Q126.7 23.95 126.6 23.3 126.4 22.2 127.7 21.4 128.85 20.75 130.7 20.55 L133.5 20.65 Q134.75 20.95 134.35 21.6 134.15 21.9 131.45 22.25 L128.0 22.85 Q128.1 23.15 128.95 23.3 L130.8 23.4 Q133.55 23.65 134.1 24.8 L134.2 26.1 133.85 27.35 132.35 28.35" fill="#ffffff" fill-rule="evenodd" stroke="none"/>
      <path d="M139.1 23.3 L140.65 25.8 Q140.85 25.8 140.85 25.4 L140.25 22.1 Q139.7 19.45 139.9 19.3 140.55 19.4 141.25 20.5 L142.25 23.1 Q142.6 24.65 142.4 25.9 142.15 27.35 141.2 27.9 L140.45 28.0 Q139.85 27.7 138.95 26.05 L137.65 23.65 Q137.5 23.9 137.4 26.4 137.4 28.55 136.85 28.6 135.5 28.75 135.85 25.5 136.2 22.7 136.85 21.5 L137.05 21.15 137.5 21.2 Q137.9 21.4 139.1 23.3" fill="#ffffff" fill-rule="evenodd" stroke="none"/>
      <path d="M148.35 23.3 Q149.25 23.4 149.2 24.4 L147.5 24.7 Q146.3 24.7 146.1 25.2 L145.85 26.45 147.5 26.15 149.2 26.05 Q149.6 26.6 149.5 27.05 147.8 28.4 146.3 28.7 144.2 29.1 144.0 26.85 143.9 26.4 144.45 23.95 L144.9 23.4 145.65 22.1 Q144.0 21.6 144.25 21.0 L147.95 20.35 Q150.7 20.25 150.5 21.8 L147.1 22.2 146.75 23.3 148.35 23.3" fill="#ffffff" fill-rule="evenodd" stroke="none"/>
      <path d="M158.4 24.8 Q158.1 26.45 156.9 27.6 155.45 28.95 153.2 29.1 151.95 33.3 151.55 35.75 149.55 35.95 150.15 32.25 150.6 29.8 151.55 27.6 L151.15 26.55 Q150.95 25.6 151.95 23.05 153.05 20.4 153.95 20.55 154.05 21.4 153.0 23.3 152.05 25.1 152.35 25.85 L154.35 23.3 Q155.8 21.6 156.75 21.3 157.75 21.0 158.2 22.15 158.75 23.25 158.4 24.8 M157.1 22.85 Q156.8 22.85 155.65 24.7 L154.25 26.95 Q155.55 26.95 156.65 25.8 157.75 24.6 157.5 23.25 157.4 22.9 157.1 22.85" fill="#ffffff" fill-rule="evenodd" stroke="none"/>
      <path d="M164.7 22.3 L161.25 22.85 Q161.35 23.15 162.2 23.3 L164.05 23.4 Q166.8 23.65 167.35 24.8 L167.45 26.1 167.1 27.35 165.6 28.35 163.45 28.55 Q160.7 28.25 160.3 26.45 160.0 24.85 162.25 24.85 164.25 24.8 165.4 25.5 165.4 26.65 163.5 26.2 L162.05 25.85 161.1 25.85 Q160.85 26.05 160.95 26.35 161.4 27.15 163.7 26.9 166.05 26.6 166.3 25.7 166.15 25.0 165.15 24.7 L160.95 24.25 Q159.95 24.0 159.85 23.35 159.65 22.25 160.95 21.5 162.05 20.8 163.8 20.55 L166.6 20.6 Q167.85 20.9 167.6 21.6 167.25 21.95 164.7 22.3" fill="#ffffff" fill-rule="evenodd" stroke="none"/>
      <path d="M127.65 14.05 Q128.05 13.9 128.6 14.35 129.2 14.75 129.0 15.7 128.8 16.55 127.95 17.45 125.85 19.65 123.2 19.0 122.75 20.0 122.35 19.55 121.95 19.1 122.05 18.2 121.15 17.3 121.6 16.1 122.0 15.0 123.25 14.1 124.4 13.25 125.6 13.15 127.0 13.05 127.65 14.05 M123.05 15.65 Q122.15 16.55 122.6 17.05 L124.6 14.8 Q123.95 14.8 123.05 15.65 M125.3 16.1 Q124.5 16.9 124.05 17.75 125.15 17.85 126.65 17.2 128.4 16.45 128.05 15.3 127.9 14.9 127.0 15.0 126.25 15.15 125.3 16.1" fill="#ffffff" fill-rule="evenodd" stroke="none"/>
      <path d="M158.9 17.0 Q159.5 16.9 160.05 17.35 160.5 17.8 160.65 18.55 161.05 20.4 159.5 20.8 159.0 20.95 159.0 20.65 L159.45 20.15 Q159.9 19.75 159.75 19.25 L159.4 18.75 158.85 18.35 Q158.2 17.8 158.9 17.0" fill="#ffffff" fill-rule="evenodd" stroke="none"/>
      <path d="M125.15 28.2 Q124.7 28.7 124.05 28.5 123.6 28.35 123.45 27.7 L123.35 26.7 123.4 23.8 123.65 21.0 Q123.9 20.15 124.35 20.65 L124.9 21.7 Q125.25 24.7 125.15 28.2" fill="#ffffff" fill-rule="evenodd" stroke="none"/>
      <path d="M259.4 45.85 L256.75 43.85 275.4 42.05 266.9 85.05 265.4 82.8 272.8 44.55 259.4 45.85" fill="#f0f3b1" fill-rule="evenodd" stroke="none"/>
      <path d="M253.6 70.8 L255.05 79.9 254.5 87.45 252.55 85.3 253.6 70.8" fill="#f0f3b1" fill-rule="evenodd" stroke="none"/>
      <path d="M254.05 56.3 L247.15 56.2 244.7 53.95 255.15 54.1 257.0 57.8 259.6 66.25 254.05 56.3" fill="#f0f3b1" fill-rule="evenodd" stroke="none"/>
      <path d="M173.25 40.7 L171.05 57.35 169.1 54.95 170.65 43.4 141.65 48.0 139.35 46.15 173.25 40.7" fill="#f0f3b1" fill-rule="evenodd" stroke="none"/>
      <path d="M160.35 57.0 L160.25 90.65 158.0 88.0 158.1 54.6 160.35 57.0" fill="#f0f3b1" fill-rule="evenodd" stroke="none"/>
      <path d="M68.6 40.95 L71.5 52.55 68.15 50.7 66.35 43.45 31.25 43.3 28.25 40.8 68.6 40.95" fill="#f0f3b1" fill-rule="evenodd" stroke="none"/>
      <path d="M63.1 55.05 L76.65 96.95 73.15 95.4 59.55 53.3 63.1 55.05" fill="#f0f3b1" fill-rule="evenodd" stroke="none"/>
      <path d="M232.3 55.45 L229.95 53.35 242.6 52.7 237.85 89.75 236.05 87.55 240.3 55.05 232.3 55.45" fill="#f0f3b1" fill-rule="evenodd" stroke="none"/>
      <path d="M230.6 72.75 L226.65 64.95 226.3 59.6 228.65 64.35 230.6 72.75" fill="#f0f3b1" fill-rule="evenodd" stroke="none"/>
      <path d="M222.45 85.65 L226.55 75.45 226.95 81.85 224.0 87.9 222.45 85.65" fill="#f0f3b1" fill-rule="evenodd" stroke="none"/>
      <path d="M220.75 60.1 L214.35 60.2 211.6 58.05 222.65 57.8 224.35 64.45 223.55 72.2 220.75 60.1" fill="#f0f3b1" fill-rule="evenodd" stroke="none"/>
      <path d="M132.75 86.75 L130.75 84.6 131.55 75.3 132.95 80.7 132.75 86.75" fill="#f0f3b1" fill-rule="evenodd" stroke="none"/>
      <path d="M132.9 61.0 L143.85 60.1 142.3 84.35 140.35 81.95 141.55 62.45 135.05 62.95 132.9 61.0" fill="#f0f3b1" fill-rule="evenodd" stroke="none"/>
      <path d="M133.35 65.65 L134.8 73.75 131.95 67.6 126.75 67.05 126.8 64.9 133.35 65.65" fill="#f0f3b1" fill-rule="evenodd" stroke="none"/>
      <path d="M257.0 57.8 L256.75 43.85 259.4 45.85 259.6 66.25 257.0 57.8" fill="#d7901f" fill-rule="evenodd" stroke="none"/>
      <path d="M257.95 85.05 L255.05 79.9 253.6 70.8 259.7 82.8 265.4 82.8 266.9 85.05 257.95 85.05" fill="#d7901f" fill-rule="evenodd" stroke="none"/>
      <path d="M244.7 53.95 L247.15 56.2 245.8 85.55 252.55 85.3 254.5 87.45 243.15 87.85 244.7 53.95" fill="#d7901f" fill-rule="evenodd" stroke="none"/>
      <path d="M158.1 54.6 L169.1 54.95 171.05 57.35 160.35 57.0 158.1 54.6" fill="#d7901f" fill-rule="evenodd" stroke="none"/>
      <path d="M141.65 48.0 L141.65 54.05 139.35 56.45 139.35 46.15 141.65 48.0" fill="#d7901f" fill-rule="evenodd" stroke="none"/>
      <path d="M141.65 54.05 L151.35 54.6 148.6 57.0 139.35 56.45 141.65 54.05" fill="#d7901f" fill-rule="evenodd" stroke="none"/>
      <path d="M147.2 86.65 L158.0 88.0 160.25 90.65 144.55 88.65 147.2 86.65" fill="#d7901f" fill-rule="evenodd" stroke="none"/>
      <path d="M151.35 54.6 L147.2 86.65 144.55 88.65 148.6 57.0 151.35 54.6" fill="#d7901f" fill-rule="evenodd" stroke="none"/>
      <path d="M49.2 59.3 L34.0 63.4 28.25 40.8 31.25 43.3 35.55 60.15 51.1 55.95 57.75 100.75 73.15 95.4 76.65 96.95 55.9 104.15 49.2 59.3" fill="#d7901f" fill-rule="evenodd" stroke="none"/>
      <path d="M59.55 53.3 L68.15 50.7 71.5 52.55 63.1 55.05 59.55 53.3" fill="#d7901f" fill-rule="evenodd" stroke="none"/>
      <path d="M232.3 55.45 L230.6 72.75 228.65 64.35 229.95 53.35 232.3 55.45" fill="#d7901f" fill-rule="evenodd" stroke="none"/>
      <path d="M236.05 87.55 L237.85 89.75 229.9 89.95 226.95 81.85 226.55 75.45 231.6 87.65 236.05 87.55" fill="#d7901f" fill-rule="evenodd" stroke="none"/>
      <path d="M224.35 64.45 L226.3 59.6 226.65 64.95 223.55 72.2 224.35 64.45" fill="#d7901f" fill-rule="evenodd" stroke="none"/>
      <path d="M211.6 58.05 L214.35 60.2 217.85 85.55 222.45 85.65 224.0 87.9 215.75 87.75 211.6 58.05" fill="#d7901f" fill-rule="evenodd" stroke="none"/>
      <path d="M135.05 62.95 L134.8 73.75 133.35 65.65 132.9 61.0 135.05 62.95" fill="#d7901f" fill-rule="evenodd" stroke="none"/>
      <path d="M140.35 81.95 L142.3 84.35 135.2 84.1 132.95 80.7 131.55 75.3 136.4 82.15 140.35 81.95" fill="#d7901f" fill-rule="evenodd" stroke="none"/>
      <path d="M120.6 86.35 L121.25 81.45 123.8 77.75 123.0 84.3 130.75 84.6 132.75 86.75 120.6 86.35" fill="#d7901f" fill-rule="evenodd" stroke="none"/>
      <path d="M272.85 44.6 L265.4 82.8 259.75 82.8 253.6 70.85 252.6 85.3 245.8 85.55 247.15 56.2 254.05 56.3 259.6 66.25 259.4 45.85 272.85 44.6" fill="#f5f21f" fill-rule="evenodd" stroke="none"/>
      <path d="M170.65 43.4 L169.1 54.95 158.1 54.6 158.0 88.0 147.2 86.65 151.35 54.6 141.65 54.05 141.65 48.0 170.65 43.4" fill="#f5f21f" fill-rule="evenodd" stroke="none"/>
      <path d="M66.35 43.45 L68.15 50.7 59.55 53.3 73.15 95.4 57.75 100.75 51.1 55.95 35.55 60.15 31.25 43.3 66.35 43.45" fill="#f5f21f" fill-rule="evenodd" stroke="none"/>
      <path d="M214.35 60.2 L220.75 60.1 223.55 72.2 226.65 64.95 230.6 72.75 232.3 55.45 240.3 55.05 236.05 87.55 231.6 87.65 226.55 75.45 222.45 85.65 217.85 85.55 214.35 60.2" fill="#f5f21f" fill-rule="evenodd" stroke="none"/>
      <path d="M231.75 95.25 L232.9 100.35 233.15 94.7 235.9 94.45 235.05 103.5 231.65 103.9 230.35 98.75 229.9 103.95 227.4 104.15 227.35 95.7 231.75 95.25" fill="#f5f21f" fill-rule="evenodd" stroke="none"/>
      <path d="M241.45 93.65 L240.65 101.05 243.25 100.95 243.15 102.5 237.75 103.0 238.1 93.95 241.45 93.65" fill="#f5f21f" fill-rule="evenodd" stroke="none"/>
      <path d="M248.35 93.05 L247.45 102.1 244.7 102.4 244.9 93.4 248.35 93.05" fill="#f5f21f" fill-rule="evenodd" stroke="none"/>
      <path d="M258.7 92.15 L257.85 101.2 254.5 101.65 253.2 96.55 252.75 101.7 250.25 101.9 250.2 93.45 254.6 93.05 255.75 98.1 256.0 92.4 258.7 92.15" fill="#f5f21f" fill-rule="evenodd" stroke="none"/>
      <path d="M260.55 92.0 L267.0 91.4 266.55 93.35 263.45 93.6 263.25 95.65 265.95 95.4 265.45 97.05 263.1 97.25 262.9 99.15 265.85 98.8 265.45 100.45 260.05 101.0 260.55 92.0" fill="#f5f21f" fill-rule="evenodd" stroke="none"/>
      <path d="M220.8 95.6 L219.45 94.05 Q218.85 95.1 218.35 97.15 217.7 99.65 217.8 101.65 217.95 103.7 219.15 106.05 219.85 105.3 220.7 102.95 221.85 99.85 221.5 97.65 221.3 96.35 220.8 95.6 M221.15 92.2 Q223.5 92.6 224.65 95.15 225.85 97.7 225.15 100.95 224.45 104.15 222.3 106.05 220.15 108.05 217.85 107.6 215.5 107.2 214.3 104.65 213.15 102.1 213.85 98.9 214.55 95.7 216.7 93.75 218.85 91.75 221.15 92.2" fill="#f5f21f" fill-rule="evenodd" stroke="none"/>
      <path d="M135.05 62.95 L141.55 62.45 140.35 81.95 136.4 82.15 131.55 75.3 130.75 84.6 123.0 84.3 123.8 77.75 Q125.7 74.4 126.45 69.95 L126.75 67.05 131.95 67.6 134.8 73.75 135.05 62.95" fill="#f5f21f" fill-rule="evenodd" stroke="none"/>
      <path d="M122.95 57.75 Q124.9 61.95 124.0 67.25 123.15 72.55 120.05 75.95 117.0 79.35 113.45 78.8 109.95 78.25 108.05 74.05 106.15 69.9 107.05 64.55 107.85 59.2 110.95 55.85 114.05 52.5 117.55 53.05 121.1 53.6 122.95 57.75" fill="#666666" fill-rule="evenodd" stroke="none"/>
      <path d="M122.95 57.75 Q124.85 61.85 124.0 67.2 123.15 72.5 120.1 75.9 117.05 79.25 113.55 78.7 110.05 78.15 108.15 74.0 106.25 69.9 107.1 64.6 107.9 59.3 110.95 55.9 114.05 52.5 117.55 53.05 121.05 53.6 122.95 57.75" fill="#6a6a69" fill-rule="evenodd" stroke="none"/>
      <path d="M122.95 57.75 Q124.85 61.85 124.0 67.15 123.2 72.45 120.15 75.85 117.1 79.2 113.6 78.7 110.15 78.15 108.2 74.0 106.3 69.9 107.15 64.65 107.95 59.3 110.95 55.9 114.05 52.45 117.6 53.05 121.05 53.6 122.95 57.75" fill="#6d6d6d" fill-rule="evenodd" stroke="none"/>
      <path d="M122.95 57.7 Q124.85 61.8 124.05 67.05 123.25 72.35 120.2 75.75 117.2 79.15 113.7 78.6 110.2 78.15 108.3 74.05 106.4 70.0 107.15 64.7 107.95 59.3 110.95 55.9 114.05 52.5 117.6 53.05 121.05 53.6 122.95 57.7" fill="#717171" fill-rule="evenodd" stroke="none"/>
      <path d="M122.95 57.65 Q124.8 61.75 124.05 67.05 123.25 72.3 120.25 75.65 117.2 79.1 113.75 78.6 110.3 78.05 108.35 74.0 106.45 70.0 107.2 64.75 107.95 59.35 111.0 55.9 114.05 52.5 117.6 53.05 121.05 53.6 122.95 57.65" fill="#757575" fill-rule="evenodd" stroke="none"/>
      <path d="M122.9 57.65 Q124.8 61.7 124.05 66.95 123.25 72.2 120.3 75.6 117.3 79.0 113.85 78.5 110.35 78.05 108.45 74.0 106.5 70.0 107.25 64.75 108.0 59.35 111.0 55.95 114.05 52.45 117.6 53.05 121.05 53.6 122.9 57.65" fill="#797979" fill-rule="evenodd" stroke="none"/>
      <path d="M122.9 57.65 Q124.8 61.65 124.05 66.9 123.25 72.15 120.3 75.55 117.35 78.95 113.9 78.45 110.45 78.0 108.5 74.0 106.6 70.05 107.3 64.85 108.05 59.45 111.0 55.95 114.05 52.45 117.6 53.05 121.05 53.6 122.9 57.65" fill="#7c7c7c" fill-rule="evenodd" stroke="none"/>
      <path d="M122.9 57.6 Q124.8 61.65 124.05 66.85 123.3 72.1 120.4 75.5 117.4 78.9 114.0 78.4 110.55 77.95 108.6 74.0 106.65 70.1 107.35 64.85 108.05 59.45 111.05 56.0 114.05 52.45 117.6 53.05 121.0 53.6 122.9 57.6" fill="#808080" fill-rule="evenodd" stroke="none"/>
      <path d="M122.85 57.55 Q124.8 61.55 124.05 66.8 123.35 72.0 120.4 75.4 117.45 78.85 114.1 78.4 110.6 77.95 108.7 74.05 106.7 70.1 107.4 64.95 108.05 59.5 111.05 56.0 114.05 52.45 117.65 53.05 121.0 53.6 122.85 57.55" fill="#848484" fill-rule="evenodd" stroke="none"/>
      <path d="M122.85 57.55 Q124.75 61.5 124.05 66.7 123.35 71.9 120.45 75.3 117.55 78.8 114.15 78.35 110.7 77.9 108.75 74.0 106.8 70.15 107.45 65.0 108.1 59.55 111.05 56.0 114.05 52.4 117.65 53.05 121.0 53.6 122.85 57.55" fill="#888888" fill-rule="evenodd" stroke="none"/>
      <path d="M122.85 57.55 Q124.75 61.5 124.05 66.65 123.35 71.85 120.5 75.25 117.6 78.7 114.2 78.3 110.8 77.85 108.8 74.0 106.85 70.15 107.5 65.05 108.15 59.55 111.05 56.05 114.05 52.4 117.65 53.05 121.0 53.6 122.85 57.55" fill="#8b8b8b" fill-rule="evenodd" stroke="none"/>
      <path d="M122.85 57.5 Q124.75 61.45 124.05 66.6 123.4 71.75 120.55 75.2 117.65 78.65 114.3 78.25 110.9 77.85 108.9 74.0 106.95 70.2 107.5 65.1 108.15 59.6 111.05 56.05 114.05 52.4 117.65 53.05 120.95 53.6 122.85 57.5" fill="#8f8e8f" fill-rule="evenodd" stroke="none"/>
      <path d="M122.85 57.5 Q124.75 61.4 124.05 66.55 123.4 71.7 120.6 75.1 117.75 78.6 114.35 78.2 110.95 77.8 108.95 74.0 107.0 70.25 107.6 65.15 108.15 59.65 111.05 56.1 114.05 52.4 117.65 53.05 120.95 53.6 122.85 57.5" fill="#939392" fill-rule="evenodd" stroke="none"/>
      <path d="M122.85 57.45 Q124.75 61.4 124.05 66.5 123.4 71.65 120.6 75.05 117.8 78.5 114.45 78.15 111.05 77.75 109.05 74.0 107.05 70.25 107.6 65.2 108.2 59.65 111.05 56.1 114.05 52.4 117.65 53.05 120.95 53.6 122.85 57.45" fill="#979797" fill-rule="evenodd" stroke="none"/>
      <path d="M122.8 57.45 Q124.7 61.3 124.1 66.4 123.4 71.55 120.65 75.0 117.85 78.45 114.55 78.1 111.15 77.75 109.15 74.0 107.15 70.3 107.65 65.25 108.2 59.7 111.1 56.1 114.05 52.4 117.65 53.05 120.95 53.6 122.8 57.45" fill="#9a9a9a" fill-rule="evenodd" stroke="none"/>
      <path d="M122.8 57.4 Q124.7 61.25 124.1 66.35 123.45 71.45 120.7 74.9 117.95 78.4 114.6 78.05 111.2 77.7 109.2 74.0 107.2 70.35 107.75 65.3 108.25 59.75 111.1 56.1 114.05 52.4 117.65 53.05 120.95 53.6 122.8 57.4" fill="#a09e9e" fill-rule="evenodd" stroke="none"/>
      <path d="M122.8 57.35 Q124.7 61.2 124.1 66.3 123.5 71.4 120.75 74.85 118.0 78.3 114.7 78.0 111.3 77.7 109.3 74.0 107.25 70.35 107.75 65.3 108.3 59.75 111.1 56.15 114.05 52.4 117.65 53.05 120.95 53.6 122.8 57.35" fill="#a2a2a2" fill-rule="evenodd" stroke="none"/>
      <path d="M122.8 57.35 Q124.7 61.2 124.1 66.25 123.5 71.35 120.8 74.75 118.05 78.25 114.7 77.95 111.4 77.65 109.35 74.0 107.3 70.35 107.8 65.4 108.3 59.8 111.1 56.15 114.0 52.4 117.65 53.05 120.9 53.6 122.8 57.35" fill="#a5a3a4" fill-rule="evenodd" stroke="none"/>
      <path d="M122.8 57.35 Q124.7 61.15 124.1 66.15 123.5 71.25 120.85 74.7 118.1 78.2 114.8 77.9 111.45 77.6 109.4 74.0 107.4 70.4 107.85 65.4 108.3 59.85 111.15 56.15 114.05 52.4 117.7 53.05 120.9 53.6 122.8 57.35" fill="#a9a9a9" fill-rule="evenodd" stroke="none"/>
      <path d="M122.75 57.3 Q124.7 61.1 124.1 66.15 123.55 71.2 120.9 74.65 118.2 78.15 114.9 77.85 111.55 77.6 109.5 74.0 107.5 70.45 107.9 65.5 108.35 59.9 111.15 56.2 114.0 52.4 117.7 53.05 120.9 53.6 122.75 57.3" fill="#adadad" fill-rule="evenodd" stroke="none"/>
      <path d="M122.75 57.25 Q124.65 61.05 124.1 66.05 123.55 71.1 120.95 74.55 118.25 78.05 114.95 77.8 111.6 77.5 109.6 74.0 107.55 70.45 107.95 65.5 108.35 59.9 111.15 56.2 114.0 52.4 117.7 53.05 120.85 53.6 122.75 57.25" fill="#b1b1b1" fill-rule="evenodd" stroke="none"/>
      <path d="M122.75 57.25 Q124.65 61.0 124.15 66.0 123.6 71.0 120.95 74.5 118.3 78.0 115.05 77.75 111.7 77.5 109.7 74.0 107.6 70.5 108.0 65.6 108.4 59.95 111.15 56.25 114.05 52.4 117.7 53.05 120.85 53.6 122.75 57.25" fill="#b4b4b4" fill-rule="evenodd" stroke="none"/>
      <path d="M122.7 57.25 Q124.65 60.95 124.15 65.95 123.6 70.95 121.0 74.4 118.35 77.95 115.1 77.7 111.8 77.45 109.75 74.0 107.65 70.55 108.05 65.65 108.4 60.0 111.15 56.25 114.0 52.35 117.7 53.05 120.85 53.6 122.7 57.25" fill="#b8b8b8" fill-rule="evenodd" stroke="none"/>
      <path d="M122.7 57.2 Q124.6 60.95 124.15 65.85 123.6 70.9 121.05 74.35 118.4 77.9 115.2 77.65 111.9 77.4 109.8 74.0 107.75 70.55 108.1 65.7 108.4 60.0 111.15 56.25 114.0 52.35 117.7 53.05 120.85 53.6 122.7 57.2" fill="#bcbcbc" fill-rule="evenodd" stroke="none"/>
      <path d="M122.7 57.2 Q124.6 60.9 124.15 65.8 123.65 70.8 121.1 74.3 118.45 77.85 115.25 77.6 111.95 77.4 109.9 74.0 107.8 70.6 108.15 65.75 108.45 60.05 111.2 56.25 114.05 52.35 117.75 53.05 120.85 53.6 122.7 57.2" fill="#c0c0c0" fill-rule="evenodd" stroke="none"/>
      <path d="M122.7 57.2 Q124.6 60.85 124.15 65.75 123.65 70.75 121.15 74.2 118.55 77.75 115.35 77.6 112.05 77.35 109.95 74.0 107.85 70.65 108.15 65.8 108.5 60.1 111.2 56.3 114.0 52.35 117.75 53.05 120.85 53.6 122.7 57.2" fill="#c1c1c2" fill-rule="evenodd" stroke="none"/>
      <path d="M122.7 57.15 Q124.6 60.75 124.15 65.7 123.7 70.65 121.2 74.15 118.6 77.7 115.45 77.5 112.15 77.3 110.05 74.0 107.95 70.65 108.2 65.85 108.5 60.1 111.2 56.3 114.0 52.35 117.75 53.05 120.8 53.6 122.7 57.15" fill="#c7c7c7" fill-rule="evenodd" stroke="none"/>
      <path d="M122.7 57.1 Q124.6 60.75 124.15 65.65 123.7 70.6 121.2 74.1 118.65 77.65 115.5 77.5 112.2 77.3 110.1 74.0 108.0 70.7 108.25 65.85 108.55 60.15 111.2 56.35 114.0 52.35 117.75 53.05 120.85 53.6 122.7 57.1" fill="#cdcbcb" fill-rule="evenodd" stroke="none"/>
      <path d="M122.7 57.1 Q124.6 60.7 124.15 65.6 123.7 70.5 121.25 74.0 118.75 77.6 115.55 77.45 112.3 77.25 110.2 74.0 108.05 70.7 108.3 65.9 108.55 60.2 111.25 56.35 114.0 52.35 117.75 53.05 120.8 53.6 122.7 57.1" fill="#cecdcd" fill-rule="evenodd" stroke="none"/>
      <path d="M122.65 57.1 Q124.6 60.65 124.15 65.5 123.75 70.45 121.3 73.95 118.8 77.5 115.65 77.4 112.4 77.25 110.25 74.0 108.15 70.75 108.35 65.95 108.6 60.2 111.25 56.35 114.0 52.35 117.75 53.05 120.8 53.6 122.65 57.1" fill="#d3d2d2" fill-rule="evenodd" stroke="none"/>
      <path d="M122.65 57.05 Q124.55 60.6 124.15 65.45 123.8 70.35 121.35 73.85 118.85 77.45 115.7 77.3 112.45 77.2 110.35 74.0 108.2 70.75 108.4 66.0 108.6 60.3 111.25 56.4 114.0 52.35 117.75 53.05 120.8 53.6 122.65 57.05" fill="#d5d4d5" fill-rule="evenodd" stroke="none"/>
      <path d="M122.6 57.05 Q124.55 60.55 124.15 65.4 123.8 70.3 121.4 73.8 118.95 77.4 115.8 77.3 112.55 77.15 110.4 74.0 108.25 70.8 108.4 66.05 108.6 60.3 111.25 56.4 114.0 52.35 117.75 53.05 120.75 53.6 122.6 57.05" fill="#d9d9d9" fill-rule="evenodd" stroke="none"/>
      <path d="M122.6 57.0 Q124.55 60.5 124.15 65.35 123.8 70.2 121.4 73.75 119.0 77.35 115.85 77.2 112.6 77.15 110.5 74.0 108.35 70.8 108.5 66.15 108.65 60.35 111.25 56.45 114.0 52.35 117.75 53.05 120.75 53.6 122.6 57.0" fill="#dddddd" fill-rule="evenodd" stroke="none"/>
      <path d="M122.6 57.0 Q124.5 60.45 124.2 65.25 123.8 70.15 121.5 73.65 119.05 77.25 115.9 77.2 112.7 77.1 110.6 74.0 108.4 70.85 108.55 66.15 108.7 60.4 111.25 56.45 114.0 52.35 117.75 53.05 120.75 53.6 122.6 57.0" fill="#e2e1e0" fill-rule="evenodd" stroke="none"/>
      <path d="M122.6 56.95 Q124.5 60.45 124.2 65.2 123.85 70.1 121.5 73.55 119.1 77.2 116.0 77.15 112.8 77.05 110.65 74.0 108.5 70.9 108.6 66.25 108.7 60.4 111.3 56.45 114.0 52.35 117.8 53.05 120.75 53.6 122.6 56.95" fill="#e5e3e4" fill-rule="evenodd" stroke="none"/>
      <path d="M122.6 56.95 Q124.5 60.4 124.2 65.15 123.85 70.0 121.55 73.55 119.2 77.15 116.1 77.1 112.9 77.05 110.75 74.0 108.55 70.9 108.65 66.25 108.7 60.45 111.3 56.45 114.0 52.35 117.8 53.05 120.75 53.6 122.6 56.95" fill="#ebeae9" fill-rule="evenodd" stroke="none"/>
      <path d="M122.6 56.9 Q124.5 60.35 124.25 65.1 123.85 69.9 121.6 73.45 119.25 77.1 116.15 77.05 113.0 77.0 110.8 74.0 108.6 70.95 108.7 66.35 108.75 60.45 111.3 56.5 114.0 52.3 117.8 53.05 120.75 53.6 122.6 56.9" fill="#eeeded" fill-rule="evenodd" stroke="none"/>
      <path d="M122.55 56.9 Q124.5 60.3 124.25 65.05 123.9 69.8 121.65 73.4 119.3 77.05 116.25 77.0 113.05 76.95 110.9 74.0 108.7 71.0 108.7 66.35 108.75 60.5 111.3 56.55 114.0 52.3 117.8 53.05 120.7 53.6 122.55 56.9" fill="#f1f0f0" fill-rule="evenodd" stroke="none"/>
      <path d="M122.55 56.85 Q124.5 60.3 124.25 65.0 123.95 69.8 121.7 73.3 119.35 76.95 116.3 76.95 113.1 76.95 110.95 74.0 108.75 71.0 108.75 66.4 108.75 60.55 111.35 56.55 114.0 52.3 117.8 53.05 120.7 53.6 122.55 56.85" fill="#f5f4f4" fill-rule="evenodd" stroke="none"/>
      <path d="M122.5 56.85 Q124.5 60.2 124.25 64.95 123.95 69.7 121.75 73.25 119.45 76.9 116.4 76.9 113.2 76.9 111.05 74.0 108.8 71.0 108.8 66.45 108.8 60.55 111.35 56.55 114.0 52.3 117.8 53.05 120.7 53.65 122.5 56.85" fill="#f8f8f8" fill-rule="evenodd" stroke="none"/>
      <path d="M122.5 56.8 Q124.45 60.2 124.25 64.85 123.95 69.6 121.75 73.15 119.5 76.85 116.45 76.85 113.3 76.85 111.1 74.0 108.85 71.05 108.85 66.5 108.85 60.65 111.35 56.55 114.0 52.3 117.85 53.05 120.65 53.65 122.5 56.8" fill="#fbfbfb" fill-rule="evenodd" stroke="none"/>
      <path d="M122.5 56.8 Q124.45 60.15 124.25 64.8 123.95 69.55 121.8 73.1 119.55 76.75 116.55 76.8 113.35 76.85 111.2 74.0 108.95 71.1 108.9 66.55 108.85 60.65 111.35 56.6 114.0 52.25 117.85 53.05 120.65 53.65 122.5 56.8" fill="#ffffff" fill-rule="evenodd" stroke="none"/>
      <path d="M79.55 31.2 Q82.7 28.8 86.85 29.35 90.65 29.8 94.15 32.55 97.6 35.2 99.25 38.95 L97.5 40.3 Q95.7 38.5 93.1 37.2 90.4 35.85 87.45 35.55 80.4 34.85 75.75 40.45 L74.4 39.8 Q76.0 33.85 79.55 31.2" fill="#000000" fill-rule="evenodd" stroke="none"/>
      <path d="M107.65 46.5 Q108.5 44.2 110.35 42.7 112.15 41.3 114.45 41.15 116.85 41.0 119.1 42.35 121.55 43.85 123.3 46.95 L121.7 47.75 Q118.55 45.35 115.55 45.1 112.15 44.8 109.25 47.3 L107.65 46.5" fill="#000000" fill-rule="evenodd" stroke="none"/>
      <path d="M95.05 64.15 Q93.6 60.2 90.0 58.7 91.0 57.75 92.25 57.6 94.8 57.35 97.15 60.3 99.45 63.2 100.15 67.6 100.8 72.05 99.45 75.35 98.15 78.7 95.6 78.95 93.0 79.25 90.7 76.3 88.4 73.4 87.7 68.95 87.25 66.25 87.7 63.7 93.3 62.9 95.85 68.05 L95.75 66.8 95.05 64.15" fill="#000000" fill-rule="evenodd" stroke="none"/>
      <path d="M118.3 59.85 Q120.05 59.95 121.2 61.95 122.35 63.9 122.2 66.6 122.05 69.3 120.7 71.1 119.35 72.95 117.55 72.85 115.75 72.75 114.65 70.8 113.45 68.8 113.6 66.15 113.7 64.5 114.3 63.05 117.65 63.3 119.25 66.25 L119.3 65.5 119.2 63.85 Q118.7 61.45 116.65 60.25 117.45 59.85 118.3 59.85" fill="#000000" fill-rule="evenodd" stroke="none"/>
      <path d="M210.55 45.7 Q211.15 49.6 210.3 53.6 L204.0 57.8 Q204.25 62.15 203.55 65.25 L208.25 67.5 Q208.15 71.05 205.95 77.95 203.7 85.1 201.9 86.7 L195.85 84.65 193.6 89.05 196.25 95.25 Q194.85 98.85 192.45 101.55 190.15 104.1 187.75 104.95 L181.75 99.15 Q179.5 100.0 177.5 99.9 L172.75 105.95 Q170.7 104.8 169.9 103.9 169.0 102.8 167.45 99.4 L169.65 92.95 168.8 87.9 165.25 86.65 Q164.9 83.55 164.9 81.2 165.0 77.95 165.9 74.4 L169.65 73.75 Q170.8 68.45 172.1 65.75 L167.25 63.4 Q167.55 61.3 167.45 59.6 L175.25 60.25 177.95 42.05 182.45 39.35 183.65 32.3 Q186.4 30.95 190.25 30.0 L195.7 29.05 195.5 38.55 Q197.85 39.15 199.2 40.25 L200.85 41.9 208.35 39.25 Q210.0 42.05 210.55 45.7" fill="#ffffff" fill-rule="evenodd" stroke="none"/>
      <path d="M176.85 49.5 L177.8 43.05 195.55 38.05 195.5 38.55 Q197.85 39.15 199.2 40.25 L200.85 41.9 208.35 39.25 209.0 40.45 176.85 49.5" fill="#a6a6a6" fill-rule="evenodd" stroke="none"/>
      <path d="M193.6 89.05 L195.7 94.05 168.6 101.75 167.45 99.4 168.55 96.25 193.6 89.05" fill="#a6a6a6" fill-rule="evenodd" stroke="none"/>
      <path d="M209.65 42.05 Q210.55 44.6 210.75 47.3 L175.75 57.1 176.6 51.3 209.65 42.05" fill="#a6a6a6" fill-rule="evenodd" stroke="none"/>
      <path d="M208.05 69.45 Q207.6 72.35 206.45 76.2 205.35 80.15 204.05 83.1 L197.0 85.0 195.85 84.65 195.4 85.45 169.6 92.6 168.8 87.9 165.25 86.65 Q164.9 83.65 164.9 81.45 L208.05 69.45" fill="#a6a6a6" fill-rule="evenodd" stroke="none"/>
      <path d="M203.55 65.25 L206.35 66.6 165.15 78.3 Q165.45 76.25 165.9 74.4 L169.65 73.75 170.1 71.9 203.95 62.25 203.55 65.25" fill="#a6a6a6" fill-rule="evenodd" stroke="none"/>
      <path d="M189.0 54.6 Q192.15 55.55 193.4 60.0 194.65 64.45 193.35 70.05 192.5 73.75 190.75 76.6 189.0 79.4 186.85 80.7 184.7 81.95 182.65 81.35 179.5 80.5 178.25 76.05 177.0 71.55 178.35 65.95 179.15 62.3 180.9 59.45 182.65 56.55 184.75 55.3 186.95 54.05 189.0 54.6" fill="#000000" fill-rule="evenodd" stroke="none"/>
      <path d="M188.9 86.45 Q192.25 84.05 194.65 79.5 L195.2 79.8 Q192.7 88.2 187.1 91.6 185.0 92.85 182.75 93.25 180.9 93.6 179.5 93.3 182.0 96.55 186.95 95.1 L187.1 95.75 Q184.2 97.45 181.35 97.1 178.5 96.7 176.4 94.35 174.1 91.85 173.15 87.65 172.1 83.1 172.65 77.15 L173.45 76.6 Q174.3 82.15 176.85 85.3 179.15 88.2 182.45 88.5 185.7 88.75 188.9 86.45" fill="#000000" fill-rule="evenodd" stroke="none"/>
      <path d="M181.9 48.0 Q183.75 44.95 186.85 43.65 L192.8 43.45 Q195.95 44.7 197.55 48.6 199.4 53.1 198.8 60.35 L198.3 60.65 Q198.1 57.45 196.7 54.3 195.25 51.05 193.1 49.0 190.7 46.75 188.05 46.55 185.05 46.35 182.15 48.75 L181.9 48.0" fill="#000000" fill-rule="evenodd" stroke="none"/>
      <path d="M187.15 67.75 Q188.2 63.15 190.6 60.15 192.0 64.0 190.75 69.45 189.6 74.3 187.1 77.0 185.95 73.05 187.15 67.75" fill="#f31e0e" fill-rule="evenodd" stroke="none"/>
      <path d="M185.2 72.3 L178.95 72.9 Q178.25 71.0 179.7 65.5 L185.75 68.25 Q185.3 70.35 185.2 72.3" fill="#a6a6a6" fill-rule="evenodd" stroke="none"/>
      <path d="M180.45 63.4 L181.3 61.55 186.55 65.6 186.2 66.65 180.45 63.4" fill="#a6a6a6" fill-rule="evenodd" stroke="none"/>
      <path d="M212.95 82.05 Q211.85 87.95 210.35 90.3 L205.5 87.95 Q207.5 85.75 209.0 79.9 L212.95 82.05" fill="#a6a6a6" fill-rule="evenodd" stroke="none"/>
      <path d="M196.6 90.75 L205.1 94.9 205.25 98.35 198.55 95.4 196.6 90.75" fill="#a6a6a6" fill-rule="evenodd" stroke="none"/>
      <path d="M178.45 102.9 L182.2 103.85 182.1 106.95 175.65 108.25 178.45 102.9" fill="#a6a6a6" fill-rule="evenodd" stroke="none"/>
      <path d="M220.65 40.6 L214.5 38.05 213.9 34.95 219.5 37.45 Q220.25 38.95 220.65 40.6" fill="#a6a6a6" fill-rule="evenodd" stroke="none"/>
      <path d="M215.1 42.05 L221.25 43.75 Q221.95 48.3 221.5 52.35 L215.2 51.3 Q215.65 47.35 215.1 42.05" fill="#a6a6a6" fill-rule="evenodd" stroke="none"/>
      <path d="M198.65 28.05 L198.95 25.05 207.05 30.65 206.7 32.45 198.65 28.05" fill="#a6a6a6" fill-rule="evenodd" stroke="none"/>
      <path d="M206.35 34.95 L199.35 36.95 197.8 36.2 198.4 30.65 206.35 34.95" fill="#a6a6a6" fill-rule="evenodd" stroke="none"/>
      <path d="M81.75 136.5 L80.2 136.15 83.75 134.95 84.85 135.45 81.75 136.5" fill="#f1f1c0" fill-rule="evenodd" stroke="none"/>
      <path d="M116.35 121.2 L117.1 122.45 117.1 124.45 116.3 122.8 116.35 121.2" fill="#f1f1c0" fill-rule="evenodd" stroke="none"/>
      <path d="M290.85 22.85 L291.0 22.25 Q291.25 21.95 291.55 21.85 L292.45 21.65 Q293.25 21.65 293.65 22.05 294.05 22.4 294.1 23.0 L293.2 23.05 292.95 22.55 292.4 22.4 Q292.05 22.4 291.85 22.55 L291.7 22.8 291.85 23.05 292.65 23.4 293.55 23.7 294.05 24.15 294.2 24.85 294.05 25.55 293.45 26.05 292.45 26.2 Q291.65 26.2 291.25 25.8 290.75 25.4 290.7 24.7 L291.55 24.6 291.85 25.25 292.45 25.4 293.1 25.25 293.35 24.85 293.25 24.6 292.95 24.4 292.2 24.2 291.25 23.75 Q290.85 23.4 290.85 22.85" fill="#000000" fill-rule="evenodd" stroke="none"/>
      <path d="M299.15 21.75 L299.15 26.1 298.35 26.1 298.35 22.65 297.5 26.1 296.6 26.1 295.75 22.65 295.75 26.1 294.95 26.1 294.95 21.75 296.3 21.75 297.05 24.7 297.85 21.75 299.15 21.75" fill="#000000" fill-rule="evenodd" stroke="none"/>
    </g>
    <g id="sprite0" transform="matrix(1.0, 0.0, 0.0, 1.0, 86.35, 29.55)">
      <use height="57.65" transform="matrix(1.0, 0.0, 0.0, 1.0, -86.35, -29.55)" width="162.6" xlink:href="#shape3"/>
      <use height="12.35" transform="matrix(1.0, 0.0, 0.0, 1.0, -47.85, -20.95)" width="84.75" xlink:href="#text0"/>
      <use height="24.95" transform="matrix(1.0, 0.0, 0.0, 1.0, -58.05, -2.6)" width="75.0" xlink:href="#text1"/>
    </g>
    <g id="shape3" transform="matrix(1.0, 0.0, 0.0, 1.0, 86.35, 29.55)">
      <path d="M63.6 -28.05 Q68.15 -28.05 71.45 -24.85 74.75 -21.55 74.75 -16.9 L74.75 15.45 Q74.75 20.1 71.45 23.35 68.15 26.6 63.6 26.6 L-73.7 26.6 Q-78.35 26.6 -81.65 23.35 -84.85 20.1 -84.85 15.45 L-84.85 -16.9 Q-84.85 -21.55 -81.65 -24.85 -78.35 -28.05 -73.7 -28.05 L63.6 -28.05" fill="#ffffff" fill-rule="evenodd" stroke="none"/>
      <path d="M63.6 -28.05 L-73.7 -28.05 Q-78.35 -28.05 -81.65 -24.85 -84.85 -21.55 -84.85 -16.9 L-84.85 15.45 Q-84.85 20.1 -81.65 23.35 -78.35 26.6 -73.7 26.6 L63.6 26.6 Q68.15 26.6 71.45 23.35 74.75 20.1 74.75 15.45 L74.75 -16.9 Q74.75 -21.55 71.45 -24.85 68.15 -28.05 63.6 -28.05 Z" fill="none" stroke="#006699" stroke-linecap="round" stroke-linejoin="round" stroke-width="3.0"/>
    </g>
    <g id="text0" transform="matrix(1.0, 0.0, 0.0, 1.0, -50.05, -0.95)">
      <g transform="matrix(1.0, 0.0, 0.0, 1.0, 16.6, 0.0)">
        <use fill="#000000" height="12.35" transform="matrix(0.293, 0.0, 0.0, 0.293, 32.0, 13.0)" width="84.75" xlink:href="#font_A-OTF_____Pro_501_L0"/>
        <use fill="#000000" height="12.35" transform="matrix(0.293, 0.0, 0.0, 0.293, 41.45, 13.0)" width="84.75" xlink:href="#font_A-OTF_____Pro_501_O0"/>
        <use fill="#000000" height="12.35" transform="matrix(0.293, 0.0, 0.0, 0.293, 53.65, 13.0)" width="84.75" xlink:href="#font_A-OTF_____Pro_501_A0"/>
        <use fill="#000000" height="12.35" transform="matrix(0.293, 0.0, 0.0, 0.293, 65.05, 13.0)" width="84.75" xlink:href="#font_A-OTF_____Pro_501_D0"/>
        <use fill="#000000" height="12.35" transform="matrix(0.293, 0.0, 0.0, 0.293, 76.45, 13.0)" width="84.75" xlink:href="#font_A-OTF_____Pro_501_I0"/>
        <use fill="#000000" height="12.35" transform="matrix(0.293, 0.0, 0.0, 0.293, 81.15, 13.0)" width="84.75" xlink:href="#font_A-OTF_____Pro_501_N0"/>
        <use fill="#000000" height="12.35" transform="matrix(0.293, 0.0, 0.0, 0.293, 92.55, 13.0)" width="84.75" xlink:href="#font_A-OTF_____Pro_501_G0"/>
        <use fill="#000000" height="12.35" transform="matrix(0.293, 0.0, 0.0, 0.293, 104.75, 13.0)" width="84.75" xlink:href="#font_A-OTF_____Pro_501_.0"/>
        <use fill="#000000" height="12.35" transform="matrix(0.293, 0.0, 0.0, 0.293, 109.45, 13.0)" width="84.75" xlink:href="#font_A-OTF_____Pro_501_.0"/>
        <use fill="#000000" height="12.35" transform="matrix(0.293, 0.0, 0.0, 0.293, 114.15, 13.0)" width="84.75" xlink:href="#font_A-OTF_____Pro_501_.0"/>
      </g>
    </g>
    <g id="font_A-OTF_____Pro_501_L0">
      <path d="M4.0 -6.6 L4.0 -6.6 Q4.1 -2.35 5.85 -1.1 7.6 0.15 10.0 0.0 L27.45 0.0 Q28.6 0.05 29.6 -0.85 30.6 -1.75 30.65 -3.7 30.7 -5.0 29.85 -6.05 29.05 -7.15 27.15 -7.2 L12.7 -7.2 Q11.0 -7.05 11.2 -9.3 L11.2 -37.55 Q11.2 -38.7 10.35 -39.9 9.45 -41.1 7.7 -41.2 4.25 -40.85 4.0 -37.55 L4.0 -6.6 4.0 -6.6" fill-rule="evenodd" stroke="none"/>
    </g>
    <g id="font_A-OTF_____Pro_501_O0">
      <path d="M20.85 -34.0 L20.85 -34.0 Q26.8 -33.7 29.35 -29.35 31.9 -25.05 31.8 -20.2 31.9 -15.5 29.35 -11.1 26.85 -6.7 20.8 -6.4 14.9 -6.7 12.3 -11.0 9.75 -15.3 9.8 -20.2 9.75 -25.35 12.4 -29.55 15.1 -33.75 20.85 -34.0 L20.85 -34.0 M20.85 0.8 L20.85 0.8 Q27.5 0.7 31.6 -2.6 35.7 -5.9 37.55 -10.7 39.45 -15.5 39.4 -20.2 39.45 -24.9 37.55 -29.7 35.7 -34.5 31.6 -37.8 27.5 -41.05 20.85 -41.2 14.2 -41.05 10.05 -37.8 5.95 -34.5 4.1 -29.7 2.2 -24.9 2.25 -20.2 2.2 -15.5 4.1 -10.7 5.95 -5.9 10.05 -2.6 14.2 0.7 20.85 0.8 L20.85 0.8" fill-rule="evenodd" stroke="none"/>
    </g>
    <g id="font_A-OTF_____Pro_501_A0">
      <path d="M19.4 -32.2 L19.4 -32.2 24.9 -16.55 13.95 -16.55 19.4 -32.2 19.4 -32.2 M30.15 -1.65 L30.15 -1.65 Q30.7 0.65 33.4 1.0 36.2 0.8 36.85 -0.7 37.55 -2.2 37.4 -2.65 L37.05 -4.15 24.5 -37.0 Q22.45 -41.55 19.2 -41.2 17.0 -41.05 15.85 -39.6 14.7 -38.1 14.35 -37.0 L1.7 -4.2 Q1.45 -3.7 1.4 -2.6 1.7 0.7 5.2 0.8 L6.85 0.5 Q7.9 0.1 8.65 -1.75 L11.5 -9.6 27.3 -9.6 30.15 -1.65 30.15 -1.65" fill-rule="evenodd" stroke="none"/>
    </g>
    <g id="font_A-OTF_____Pro_501_D0">
      <path d="M13.9 -7.2 L13.9 -7.2 Q12.05 -7.2 11.6 -8.0 11.15 -8.8 11.2 -10.0 L11.2 -30.4 Q11.15 -31.6 11.55 -32.4 12.0 -33.2 13.9 -33.2 L17.5 -33.2 Q25.3 -32.9 27.4 -28.7 29.5 -24.55 29.2 -20.1 29.5 -15.95 27.4 -11.75 25.35 -7.5 17.5 -7.2 L13.9 -7.2 13.9 -7.2 M9.45 -40.35 L9.45 -40.35 Q6.6 -40.3 5.3 -38.6 4.0 -36.9 4.0 -34.45 L4.0 -5.9 Q4.0 -3.5 5.3 -1.8 6.6 -0.05 9.45 0.0 L19.9 0.0 Q27.75 -0.15 32.15 -5.6 36.55 -11.05 36.6 -20.15 36.65 -28.5 32.5 -34.3 28.35 -40.1 19.9 -40.35 L9.45 -40.35 9.45 -40.35" fill-rule="evenodd" stroke="none"/>
    </g>
    <g id="font_A-OTF_____Pro_501_I0">
      <path d="M4.4 -2.8 L4.4 -2.8 Q4.65 0.5 8.1 0.8 11.5 0.5 11.6 -2.8 L11.6 -37.55 Q11.4 -40.85 7.9 -41.2 6.15 -41.1 5.3 -40.05 4.4 -38.95 4.4 -37.55 L4.4 -2.8 4.4 -2.8" fill-rule="evenodd" stroke="none"/>
    </g>
    <g id="font_A-OTF_____Pro_501_N0">
      <path d="M23.75 -2.9 L23.75 -2.9 Q24.3 -1.55 25.75 -0.4 27.2 0.75 29.45 0.8 32.85 0.55 33.85 -1.65 34.9 -3.85 34.8 -5.1 L34.8 -37.95 Q34.75 -39.6 33.7 -40.4 32.65 -41.2 31.35 -41.2 29.35 -41.1 28.55 -39.95 27.8 -38.8 27.8 -37.8 L27.8 -9.8 15.3 -37.45 Q14.7 -38.85 13.3 -40.0 11.85 -41.1 9.65 -41.2 6.2 -40.95 5.15 -38.75 4.1 -36.55 4.2 -35.25 L4.2 -2.45 Q4.3 -0.75 5.35 0.0 6.4 0.8 7.7 0.8 9.7 0.7 10.45 -0.4 11.25 -1.55 11.2 -2.55 L11.2 -30.6 23.75 -2.9 23.75 -2.9" fill-rule="evenodd" stroke="none"/>
    </g>
    <g id="font_A-OTF_____Pro_501_G0">
      <path d="M20.85 -23.8 L20.85 -23.8 Q19.75 -23.8 18.8 -22.95 17.9 -22.1 17.85 -20.45 17.9 -19.0 18.75 -17.95 19.65 -16.85 21.1 -16.8 L30.1 -16.8 Q31.35 -16.8 31.4 -15.45 L31.4 -12.7 Q31.6 -11.6 29.85 -9.15 28.05 -6.65 22.25 -6.35 16.45 -6.45 13.15 -10.05 9.85 -13.65 9.8 -19.75 9.75 -25.25 12.7 -29.6 15.7 -33.95 22.05 -34.2 24.55 -34.25 26.35 -33.4 28.1 -32.55 30.05 -30.6 31.6 -29.05 32.45 -28.7 33.25 -28.3 33.8 -28.4 35.45 -28.45 36.3 -29.6 37.15 -30.7 37.15 -32.0 37.0 -35.05 32.7 -38.0 28.4 -40.95 21.5 -41.15 12.15 -40.8 7.3 -34.3 2.45 -27.8 2.45 -19.5 2.45 -11.05 7.45 -5.15 12.4 0.75 21.95 1.0 25.4 1.05 29.25 -0.1 33.1 -1.3 35.8 -4.25 38.5 -7.25 38.6 -12.65 L38.6 -17.85 Q38.45 -21.4 36.5 -22.65 34.6 -23.85 32.95 -23.8 L20.85 -23.8 20.85 -23.8" fill-rule="evenodd" stroke="none"/>
    </g>
    <g id="font_A-OTF_____Pro_501_.0">
      <path d="M8.0 -8.75 L8.0 -8.75 Q6.0 -8.7 4.65 -7.4 3.3 -6.05 3.25 -4.0 3.3 -1.95 4.6 -0.6 5.95 0.75 8.0 0.8 10.0 0.75 11.4 -0.6 12.75 -1.95 12.8 -4.0 12.75 -6.05 11.4 -7.4 10.0 -8.7 8.0 -8.75 L8.0 -8.75" fill-rule="evenodd" stroke="none"/>
    </g>
  </defs>
</svg>
