<?xml version="1.0" encoding="UTF-8" standalone="no"?>
<svg xmlns:xlink="http://www.w3.org/1999/xlink" height="436.75px" width="359.4px" xmlns="http://www.w3.org/2000/svg">
  <g transform="matrix(1.0, 0.0, 0.0, 1.0, 179.75, 436.75)">
    <use height="36.0" transform="matrix(1.0, 0.0, 0.0, 1.0, -79.55, -36.0)" width="159.0" xlink:href="#shape0"/>
    <use height="96.65" transform="matrix(1.0, 0.0, 0.0, 1.0, -27.15, -108.0)" width="54.2" xlink:href="#shape1"/>
    <use height="37.0" transform="matrix(1.0, 0.0, 0.0, 1.0, -92.65, -94.35)" width="185.25" xlink:href="#shape2"/>
    <use height="17.5" transform="matrix(1.0, 0.0, 0.0, 1.0, -74.0, -81.2)" width="151.35" xlink:href="#text0"/>
    <use height="304.5" transform="matrix(1.0, 0.0, 0.0, 1.0, -113.25, -400.55)" width="226.45" xlink:href="#shape3"/>
    <use height="280.1" transform="matrix(1.0, 0.0, 0.0, 1.0, -99.55, -378.3)" width="195.0" xlink:href="#shape4"/>
    <use height="57.2" transform="matrix(1.0, 0.0, 0.0, 1.0, -28.9, -212.25)" width="56.95" xlink:href="#shape5"/>
  </g>
  <defs>
    <g id="shape0" transform="matrix(1.0, 0.0, 0.0, 1.0, 0.0, 0.0)">
      <path d="M135.7 30.75 Q113.3 35.8 79.5 36.0 45.7 35.8 23.3 30.75 0.85 25.65 0.0 18.0 0.85 10.35 23.3 5.25 45.7 0.2 79.5 0.0 113.3 0.2 135.7 5.25 158.15 10.35 159.0 18.0 158.15 25.65 135.7 30.75" fill="#000000" fill-opacity="0.39607844" fill-rule="evenodd" stroke="none"/>
    </g>
    <g id="shape1" transform="matrix(1.0, 0.0, 0.0, 1.0, 0.0, 0.0)">
      <path d="M5.85 93.35 Q-0.15 90.4 0.0 90.0 L0.0 0.0 54.2 0.0 54.2 90.0 Q54.15 90.4 46.95 93.35 39.7 96.25 25.65 96.65 11.8 96.25 5.85 93.35" fill="url(#gradient0)" fill-rule="evenodd" stroke="none"/>
    </g>
    <linearGradient gradientTransform="matrix(0.0303, 0.0, 0.0, 0.0303, 25.7, 48.35)" gradientUnits="userSpaceOnUse" id="gradient0" spreadMethod="pad" x1="-819.2" x2="819.2">
      <stop offset="0.0" stop-color="#565656"/>
      <stop offset="0.403921568627451" stop-color="#9a9999"/>
      <stop offset="0.592156862745098" stop-color="#dbdbda"/>
      <stop offset="0.7803921568627451" stop-color="#9b9a9a"/>
      <stop offset="1.0" stop-color="#151213"/>
    </linearGradient>
    <g id="shape2" transform="matrix(1.0, 0.0, 0.0, 1.0, -0.05, 0.0)">
      <path d="M185.25 8.2 L185.3 8.25 185.25 8.25 185.25 8.2 M1.9 5.2 L2.3 2.85 18.75 2.05 59.05 0.7 Q83.4 0.05 109.4 0.3 115.1 0.55 118.85 1.6 122.65 2.7 128.15 3.0 L129.3 1.5 Q130.05 0.2 130.5 0.0 160.7 0.5 181.5 3.85 L183.45 6.1 103.3 3.5 Q60.0 3.6 6.5 5.1 L1.9 5.2 M176.25 8.0 L176.45 8.4 177.65 11.45 178.5 13.65 Q179.3 12.8 179.7 10.9 179.7 9.8 179.25 9.1 L179.9 9.55 Q180.65 10.3 180.7 11.75 179.85 15.7 177.15 15.05 175.8 14.75 175.1 13.85 L176.15 14.2 177.35 14.25 176.45 12.35 174.9 8.8 174.8 8.5 174.95 8.35 Q175.75 7.8 176.25 8.0 M178.25 27.3 L179.85 27.15 Q180.5 27.3 181.25 27.95 183.6 31.2 181.35 32.8 180.2 33.6 179.1 33.5 L180.8 32.15 178.8 31.55 175.1 30.4 175.2 29.1 175.2 29.0 175.25 28.7 175.4 28.75 175.85 28.9 178.95 30.05 181.1 30.85 Q181.0 29.65 179.9 28.15 179.05 27.45 178.25 27.3 M9.35 6.95 L10.7 10.45 11.7 12.9 Q12.6 11.95 13.05 9.85 13.05 8.55 12.5 7.75 13.85 8.35 14.15 10.05 L13.75 12.35 Q12.6 15.1 10.15 14.55 8.75 14.25 8.0 13.4 L7.85 13.2 9.0 13.6 10.35 13.65 9.35 11.4 7.6 7.45 8.75 6.6 9.2 6.55 9.35 6.95 M9.4 25.3 Q11.0 24.35 12.9 25.8 15.0 28.35 14.35 30.1 L13.4 31.3 Q12.2 32.25 10.95 32.25 L12.75 30.6 10.4 30.05 6.2 29.05 6.15 27.55 6.15 27.1 6.35 27.15 6.9 27.35 10.45 28.4 12.95 29.1 Q12.75 27.8 11.35 26.15 10.35 25.35 9.4 25.3" fill="#47525f" fill-rule="evenodd" stroke="none"/>
      <path d="M0.05 36.7 L0.75 22.9 Q1.05 14.95 1.6 7.0 L1.9 5.2 6.5 5.1 3.2 8.3 1.95 36.45 0.05 36.7" fill="#cdcdcd" fill-rule="evenodd" stroke="none"/>
      <path d="M13.75 12.35 L14.15 10.05 26.45 10.0 13.75 12.35 M8.0 13.4 L7.0 13.55 7.2 26.2 6.35 27.15 6.15 27.1 6.15 27.55 Q5.15 29.5 6.75 31.55 8.95 33.2 10.95 32.25 12.2 32.25 13.4 31.3 L14.35 30.1 16.45 30.2 36.65 31.3 56.5 32.6 Q50.4 32.9 38.0 32.9 L15.1 32.75 3.85 32.6 5.25 10.05 6.0 10.05 Q6.15 12.3 7.85 13.2 L8.0 13.4" fill="#848484" fill-rule="evenodd" stroke="none"/>
      <path d="M175.1 13.85 Q175.8 14.75 177.15 15.05 179.85 15.7 180.7 11.75 180.65 10.3 179.9 9.55 L180.85 9.65 179.85 27.15 178.25 27.3 177.7 27.3 177.8 15.2 160.95 13.3 Q144.35 11.4 115.0 6.95 144.55 7.2 162.45 8.35 L174.1 9.15 Q173.65 9.7 173.4 10.6 173.45 12.95 175.1 13.85 M175.3 32.3 L137.05 30.55 175.2 29.0 175.2 29.1 Q174.3 30.55 175.3 32.3" fill="#a09fa0" fill-rule="evenodd" stroke="none"/>
      <path d="M176.45 8.4 L176.25 8.0 176.9 7.95 Q178.55 8.05 179.25 9.1 179.7 9.8 179.7 10.9 179.3 12.8 178.5 13.65 L177.65 11.45 178.05 10.25 Q178.0 8.55 176.45 8.4 M174.8 8.5 L174.9 8.8 Q174.35 9.2 174.15 10.05 174.2 11.9 175.85 12.3 L176.45 12.35 177.35 14.25 176.15 14.2 175.1 13.85 Q173.45 12.95 173.4 10.6 173.65 9.7 174.1 9.15 L174.8 8.5 M177.7 27.3 L178.25 27.3 Q179.05 27.45 179.9 28.15 181.0 29.65 181.1 30.85 L178.95 30.05 178.3 28.9 Q177.0 27.8 175.85 28.9 L175.4 28.75 175.8 28.3 Q176.7 27.35 177.7 27.3 M179.1 33.5 Q177.3 34.2 175.5 32.65 L175.3 32.3 Q174.3 30.55 175.2 29.1 L175.1 30.4 Q175.25 32.1 176.95 32.35 178.0 32.25 178.8 31.55 L180.8 32.15 179.1 33.5 M10.7 10.45 L11.2 9.05 Q11.15 7.15 9.35 6.95 L9.2 6.55 9.9 6.5 Q11.75 6.6 12.5 7.75 13.05 8.55 13.05 9.85 12.6 11.95 11.7 12.9 L10.7 10.45 M7.2 26.2 Q8.2 25.2 9.4 25.3 10.35 25.35 11.35 26.15 12.75 27.8 12.95 29.1 L10.45 28.4 Q9.75 26.65 8.05 26.6 L6.9 27.35 6.35 27.15 7.2 26.2 M6.0 10.05 L5.95 9.55 Q6.6 7.0 8.75 6.6 L7.6 7.45 Q7.0 7.9 6.75 8.85 6.8 10.95 8.7 11.35 L9.35 11.4 10.35 13.65 9.0 13.6 7.85 13.2 Q6.15 12.3 6.0 10.05 M6.15 27.55 L6.2 29.05 Q6.45 30.9 8.2 31.1 9.7 31.2 10.4 30.05 L12.75 30.6 10.95 32.25 Q8.95 33.2 6.75 31.55 5.15 29.5 6.15 27.55" fill="#9c9c9c" fill-rule="evenodd" stroke="none"/>
      <path d="M174.9 8.8 L176.45 12.35 175.85 12.3 Q174.2 11.9 174.15 10.05 174.35 9.2 174.9 8.8 M177.65 11.45 L176.45 8.4 Q178.0 8.55 178.05 10.25 L177.65 11.45 M175.85 28.9 Q177.0 27.8 178.3 28.9 L178.95 30.05 175.85 28.9 M175.1 30.4 L178.8 31.55 Q178.0 32.25 176.95 32.35 175.25 32.1 175.1 30.4 M9.35 6.95 Q11.15 7.15 11.2 9.05 L10.7 10.45 9.35 6.95 M9.35 11.4 L8.7 11.35 Q6.8 10.95 6.75 8.85 7.0 7.9 7.6 7.45 L9.35 11.4 M10.45 28.4 L6.9 27.35 8.05 26.6 Q9.75 26.65 10.45 28.4 M6.2 29.05 L10.4 30.05 Q9.7 31.2 8.2 31.1 6.45 30.9 6.2 29.05" fill="#d5d4d4" fill-rule="evenodd" stroke="none"/>
      <path d="M183.45 6.1 L185.3 6.25 185.25 8.2 185.25 8.25 185.1 13.45 184.65 27.3 184.3 36.25 Q157.35 34.75 133.85 35.55 L89.2 37.0 Q65.15 37.15 43.55 35.85 22.0 34.5 0.05 36.75 L0.05 36.7 1.95 36.45 3.2 8.3 6.5 5.1 Q60.0 3.6 103.3 3.5 L183.45 6.1 M176.25 8.0 Q175.75 7.8 174.95 8.35 L174.8 8.5 174.1 9.15 162.45 8.35 Q144.55 7.2 115.0 6.95 144.35 11.4 160.95 13.3 L177.8 15.2 177.7 27.3 Q176.7 27.35 175.8 28.3 L175.4 28.75 175.25 28.7 175.2 29.0 137.05 30.55 175.3 32.3 175.5 32.65 Q177.3 34.2 179.1 33.5 180.2 33.6 181.35 32.8 183.6 31.2 181.25 27.95 180.5 27.3 179.85 27.15 L180.85 9.65 179.9 9.55 179.25 9.1 Q178.55 8.05 176.9 7.95 L176.25 8.0 M12.5 7.75 Q11.75 6.6 9.9 6.5 L9.2 6.55 8.75 6.6 Q6.6 7.0 5.95 9.55 L6.0 10.05 5.25 10.05 3.85 32.6 15.1 32.75 38.0 32.9 Q50.4 32.9 56.5 32.6 L36.65 31.3 16.45 30.2 14.35 30.1 Q15.0 28.35 12.9 25.8 11.0 24.35 9.4 25.3 8.2 25.2 7.2 26.2 L7.0 13.55 8.0 13.4 Q8.75 14.25 10.15 14.55 12.6 15.1 13.75 12.35 L26.45 10.0 14.15 10.05 Q13.85 8.35 12.5 7.75" fill="url(#gradient1)" fill-rule="evenodd" stroke="none"/>
    </g>
    <linearGradient gradientTransform="matrix(0.1131, 0.0, 0.0, 0.0204, 92.65, 20.25)" gradientUnits="userSpaceOnUse" id="gradient1" spreadMethod="pad" x1="-819.2" x2="819.2">
      <stop offset="0.0" stop-color="#9a9a9a"/>
      <stop offset="1.0" stop-color="#ffffff"/>
    </linearGradient>
    <g id="text0" transform="matrix(1.0, 0.0, 0.0, 1.0, 14.6, -5.75)">
      <g transform="matrix(1.0, 0.0, 0.0, 1.0, -15.85, 0.0)">
        <use fill="#000000" height="17.5" transform="matrix(0.4746, 0.0, 0.0, 0.4746, 0.0, 21.0)" width="151.35" xlink:href="#font_______W7_P0"/>
        <use fill="#000000" height="17.5" transform="matrix(0.4746, 0.0, 0.0, 0.4746, 15.2, 21.0)" width="151.35" xlink:href="#font_______W7_e0"/>
        <use fill="#000000" height="17.5" transform="matrix(0.4746, 0.0, 0.0, 0.4746, 27.65, 21.0)" width="151.35" xlink:href="#font_______W7_n0"/>
        <use fill="#000000" height="17.5" transform="matrix(0.4746, 0.0, 0.0, 0.4746, 40.25, 21.0)" width="151.35" xlink:href="#font_______W7_n0"/>
        <use fill="#000000" height="17.5" transform="matrix(0.4746, 0.0, 0.0, 0.4746, 52.9, 21.0)" width="151.35" xlink:href="#font_______W7_y0"/>
        <use fill="#000000" height="17.5" transform="matrix(0.4746, 0.0, 0.0, 0.4746, 70.8, 21.0)" width="151.35" xlink:href="#font_______W7_P0"/>
        <use fill="#000000" height="17.5" transform="matrix(0.4746, 0.0, 0.0, 0.4746, 86.0, 21.0)" width="151.35" xlink:href="#font_______W7_i0"/>
        <use fill="#000000" height="17.5" transform="matrix(0.4746, 0.0, 0.0, 0.4746, 93.8, 21.0)" width="151.35" xlink:href="#font_______W7_n0"/>
        <use fill="#000000" height="17.5" transform="matrix(0.4746, 0.0, 0.0, 0.4746, 106.4, 21.0)" width="151.35" xlink:href="#font_______W7_c0"/>
        <use fill="#000000" height="17.5" transform="matrix(0.4746, 0.0, 0.0, 0.4746, 118.3, 21.0)" width="151.35" xlink:href="#font_______W7_h0"/>
        <use fill="#000000" height="17.5" transform="matrix(0.4746, 0.0, 0.0, 0.4746, 131.45, 21.0)" width="151.35" xlink:href="#font_______W7_e0"/>
        <use fill="#000000" height="17.5" transform="matrix(0.4746, 0.0, 0.0, 0.4746, 143.85, 21.0)" width="151.35" xlink:href="#font_______W7_r0"/>
      </g>
    </g>
    <g id="font_______W7_P0">
      <path d="M25.55 -21.45 L25.55 -21.45 Q25.55 -19.8 24.3 -18.6 23.1 -17.45 21.4 -17.45 17.4 -17.45 13.5 -20.8 L11.65 -16.3 10.9 -24.15 Q15.2 -26.45 18.85 -26.45 21.4 -26.45 23.3 -25.25 25.55 -23.9 25.55 -21.45 M32.5 -20.35 L32.5 -20.35 Q32.5 -25.9 28.85 -28.85 25.45 -31.55 19.75 -31.55 15.45 -31.55 10.4 -29.45 L10.2 -31.5 5.3 -32.15 2.55 0.05 13.15 -1.1 12.2 -11.0 Q15.95 -9.35 19.7 -9.35 25.2 -9.35 28.65 -12.05 32.5 -15.0 32.5 -20.35" fill-rule="evenodd" stroke="none"/>
    </g>
    <g id="font_______W7_e0">
      <path d="M19.45 -9.9 L19.45 -9.9 Q16.75 -7.55 13.6 -7.55 10.45 -7.55 9.15 -9.9 L19.45 -9.9 M9.0 -13.4 L9.0 -13.4 Q9.7 -14.95 11.5 -15.95 13.2 -16.8 15.1 -16.8 18.05 -16.8 19.65 -14.35 L9.0 -13.4 M23.25 -9.9 L23.25 -9.9 24.3 -9.9 26.7 -12.6 Q25.85 -16.7 22.9 -19.1 19.9 -21.45 15.15 -21.45 9.65 -21.45 5.9 -18.65 1.8 -15.6 1.8 -10.4 1.8 -5.35 5.8 -2.5 9.3 0.05 14.6 0.05 22.45 0.05 27.15 -4.25 L23.25 -9.9" fill-rule="evenodd" stroke="none"/>
    </g>
    <g id="font_______W7_n0">
      <path d="M27.0 -9.05 L27.0 -9.05 Q27.0 -14.5 24.65 -17.8 21.9 -21.45 16.6 -21.45 12.6 -21.45 9.45 -18.85 L9.2 -20.75 4.35 -21.45 2.05 0.05 11.95 -1.4 10.35 -12.55 Q12.95 -15.85 15.9 -15.85 19.4 -15.85 19.4 -10.6 19.4 -6.9 16.6 -1.3 L26.2 0.0 Q27.0 -6.5 27.0 -9.05" fill-rule="evenodd" stroke="none"/>
    </g>
    <g id="font_______W7_y0">
      <path d="M21.2 -21.45 L21.2 -21.45 13.15 -10.8 3.65 -21.45 0.5 -19.75 8.5 -4.7 4.3 0.85 12.5 4.75 24.85 -19.65 21.2 -21.45" fill-rule="evenodd" stroke="none"/>
    </g>
    <g id="font_______W7_i0">
      <path d="M11.6 -20.75 L11.6 -20.75 6.75 -21.45 4.45 0.05 14.3 -1.4 11.6 -20.75 M11.9 -31.5 L11.9 -31.5 6.5 -32.15 4.9 -24.95 13.2 -26.1 11.9 -31.5" fill-rule="evenodd" stroke="none"/>
    </g>
    <g id="font_______W7_c0">
      <path d="M21.35 -12.5 L21.35 -12.5 Q19.95 -10.5 17.75 -9.15 15.35 -7.6 13.15 -7.6 11.4 -7.6 10.2 -8.85 8.9 -10.05 8.9 -11.8 8.9 -14.1 10.65 -15.4 12.2 -16.55 14.55 -16.55 18.9 -16.55 21.9 -13.7 L24.4 -17.55 Q19.65 -21.45 13.1 -21.45 8.05 -21.45 4.9 -18.4 1.8 -15.3 1.8 -10.3 1.8 -5.6 5.7 -2.65 9.25 0.05 14.1 0.05 17.2 0.05 20.45 -1.1 24.05 -2.3 25.9 -4.4 L21.35 -12.5" fill-rule="evenodd" stroke="none"/>
    </g>
    <g id="font_______W7_h0">
      <path d="M28.1 -7.6 L28.1 -7.6 Q28.1 -13.7 25.7 -17.25 22.9 -21.45 17.05 -21.45 13.35 -21.45 10.45 -19.3 L9.3 -31.55 4.65 -32.15 2.05 0.05 12.1 -1.4 11.0 -12.9 Q13.45 -15.95 16.35 -15.95 20.1 -15.95 20.1 -10.2 20.1 -6.55 17.6 -1.55 L27.6 0.05 28.1 -7.6" fill-rule="evenodd" stroke="none"/>
    </g>
    <g id="font_______W7_r0">
      <path d="M18.3 -20.6 L18.3 -20.6 Q16.55 -21.45 14.75 -21.45 11.5 -21.45 8.7 -18.65 L8.45 -20.75 4.45 -21.45 2.55 0.05 10.65 -1.4 9.3 -12.8 Q10.55 -14.85 12.3 -14.85 13.25 -14.85 14.55 -13.85 L16.55 -12.05 18.3 -20.6" fill-rule="evenodd" stroke="none"/>
    </g>
    <g id="shape3" transform="matrix(1.0, 0.0, 0.0, 1.0, 0.0, 0.0)">
      <path d="M218.55 194.0 L213.95 167.35 158.05 130.8 153.1 112.25 60.65 132.9 11.6 161.95 3.75 222.7 13.25 283.8 15.05 295.3 37.6 301.8 182.75 301.8 203.75 293.15 217.7 232.4 218.55 194.0 M167.95 134.25 L226.25 164.1 226.45 231.9 212.6 297.25 183.9 304.5 36.8 304.5 10.0 299.75 0.0 230.6 6.5 162.5 69.55 120.45 99.9 6.0 130.5 0.0 167.95 134.25 M122.8 21.75 L115.7 24.35 115.65 22.4 117.15 22.3 122.8 21.75 M120.65 13.65 L121.8 12.45 121.8 14.5 113.8 22.9 113.8 20.75 120.65 13.65 M100.5 10.7 L74.7 123.75 60.6 132.85 153.1 112.2 126.3 6.4 100.5 10.7 M27.65 160.65 L28.8 159.45 28.8 161.5 20.8 169.9 20.8 167.75 27.65 160.65 M31.75 164.45 L31.65 166.2 Q30.65 174.1 22.7 171.35 L22.65 169.4 Q24.05 170.2 25.75 170.25 31.25 169.75 31.75 164.45 M144.7 104.55 Q144.8 106.85 143.7 108.6 142.6 110.35 141.0 110.45 139.35 110.55 138.15 108.95 136.95 107.35 136.85 104.9 136.95 105.9 137.5 106.7 L138.2 107.4 Q139.25 108.35 140.75 108.35 144.35 108.05 144.7 104.55 M138.8 103.2 L138.85 103.2 138.4 103.9 138.8 103.2 M82.2 119.9 Q84.1 121.4 86.3 120.45 88.7 119.5 88.7 116.85 88.95 118.9 88.0 120.85 87.05 122.8 85.45 123.2 83.85 123.55 82.55 122.15 81.25 120.7 80.95 118.05 L81.5 119.2 82.2 119.9 M82.8 115.7 L82.85 115.7 82.4 116.4 82.8 115.7 M22.5 289.7 L23.2 290.4 27.35 291.05 29.7 287.2 Q29.9 289.45 28.85 291.35 27.8 293.25 26.2 293.5 24.55 293.7 23.3 292.15 22.0 290.55 21.85 287.9 21.95 288.9 22.5 289.7 M208.2 212.4 Q210.1 214.0 212.35 213.05 214.75 211.9 214.7 209.2 214.9 211.5 213.85 213.4 212.8 215.3 211.2 215.55 209.55 215.75 208.3 214.15 207.0 212.55 206.85 209.9 206.95 210.9 207.5 211.7 L208.2 212.4 M208.45 208.75 L208.85 208.2 208.4 208.9 208.45 208.75 M182.3 293.4 L182.3 291.25 189.15 284.15 190.3 282.95 190.3 285.0 182.3 293.4 M191.3 292.25 L184.2 294.85 184.15 292.9 185.65 292.8 191.3 292.25" fill="#47525f" fill-rule="evenodd" stroke="none"/>
      <path d="M13.25 283.8 L3.75 222.7 11.6 161.95 60.65 132.9 153.1 112.25 158.05 130.8 213.95 167.35 218.55 194.0 13.25 283.8 M122.6 15.15 L123.6 14.05 Q123.6 17.5 121.3 19.95 119.5 21.8 117.15 22.3 L115.65 22.4 122.6 15.15 M28.8 161.5 L28.8 159.45 27.65 160.65 28.4 159.2 Q24.9 159.2 22.45 161.3 20.0 163.4 20.0 166.35 L20.8 169.9 22.7 171.35 Q30.65 174.1 31.65 166.2 L31.75 164.45 30.6 161.05 28.7 167.8 22.65 169.4 28.8 161.5 M191.1 285.65 L192.1 284.55 Q192.1 288.0 189.8 290.45 188.0 292.3 185.65 292.8 L184.15 292.9 191.1 285.65" fill="#bab9ba" fill-rule="evenodd" stroke="none"/>
      <path d="M13.25 283.8 L218.55 194.0 217.7 232.4 203.75 293.15 182.75 301.8 37.6 301.8 15.05 295.3 13.25 283.8 M122.6 15.15 L121.8 14.5 121.8 12.45 120.65 13.65 121.4 12.2 Q117.9 12.2 115.45 14.3 113.0 16.4 113.0 19.35 L113.8 22.9 115.7 24.35 122.8 21.75 Q124.5 20.3 124.75 17.45 L123.6 14.05 122.6 15.15 M100.5 10.7 L126.3 6.4 153.1 112.2 60.6 132.85 74.7 123.75 100.5 10.7 M144.7 104.55 L143.9 102.3 142.5 101.3 Q140.15 101.3 138.5 102.35 136.85 103.4 136.85 104.9 136.95 107.35 138.15 108.95 139.35 110.55 141.0 110.45 142.6 110.35 143.7 108.6 144.8 106.85 144.7 104.55 M138.85 103.2 L138.8 103.2 138.9 103.1 138.85 103.2 M88.7 116.85 L87.9 114.8 Q87.35 114.15 86.65 113.75 L86.0 113.85 Q83.9 113.85 82.45 115.1 80.95 116.3 80.95 118.05 81.25 120.7 82.55 122.15 83.85 123.55 85.45 123.2 87.05 122.8 88.0 120.85 88.95 118.9 88.7 116.85 M82.8 115.7 L82.9 115.6 82.85 115.7 82.8 115.7 M28.9 285.3 L25.65 284.8 21.85 287.9 Q22.0 290.55 23.3 292.15 24.55 293.7 26.2 293.5 27.8 293.25 28.85 291.35 29.9 289.45 29.7 287.2 L28.9 285.3 M214.7 209.2 L213.9 207.3 211.55 206.45 208.85 208.2 208.45 208.75 206.85 209.9 Q207.0 212.55 208.3 214.15 209.55 215.75 211.2 215.55 212.8 215.3 213.85 213.4 214.9 211.5 214.7 209.2 M189.9 282.7 Q186.4 282.7 183.95 284.8 181.5 286.9 181.5 289.85 L182.3 293.4 184.2 294.85 191.3 292.25 Q193.25 290.4 193.25 287.95 L192.1 284.55 191.1 285.65 190.3 285.0 190.3 282.95 189.15 284.15 189.9 282.7" fill="#9c9c9c" fill-rule="evenodd" stroke="none"/>
      <path d="M113.0 19.35 Q113.0 16.4 115.45 14.3 117.9 12.2 121.4 12.2 L113.45 20.25 113.0 19.35 M20.0 166.35 Q20.0 163.4 22.45 161.3 24.9 159.2 28.4 159.2 L20.45 167.25 20.0 166.35 M136.85 104.9 Q136.85 103.4 138.5 102.35 140.15 101.3 142.5 101.3 L138.9 103.1 138.8 103.2 138.4 103.9 137.5 106.7 Q136.95 105.9 136.85 104.9 M80.95 118.05 Q80.95 116.3 82.45 115.1 83.9 113.85 86.0 113.85 L82.9 115.6 82.8 115.7 82.4 116.4 81.5 119.2 80.95 118.05 M25.65 284.8 L22.5 289.7 Q21.95 288.9 21.85 287.9 L25.65 284.8 M206.85 209.9 L208.45 208.75 208.4 208.9 207.5 211.7 Q206.95 210.9 206.85 209.9 M181.95 290.75 L181.5 289.85 Q181.5 286.9 183.95 284.8 186.4 282.7 189.9 282.7 L181.95 290.75" fill="#e9e9eb" fill-rule="evenodd" stroke="none"/>
      <path d="M121.4 12.2 L120.65 13.65 113.8 20.75 113.45 20.25 121.4 12.2 M28.4 159.2 L27.65 160.65 20.8 167.75 20.45 167.25 28.4 159.2 M142.5 101.3 L143.9 102.3 Q144.15 104.9 142.0 106.45 140.05 107.7 138.2 107.4 L137.5 106.7 138.4 103.9 138.85 103.2 138.9 103.1 142.5 101.3 M87.9 114.8 Q88.2 117.45 86.0 118.95 84.1 120.25 82.2 119.9 L81.5 119.2 82.4 116.4 82.85 115.7 82.9 115.6 86.0 113.85 86.65 113.75 Q87.35 114.15 87.9 114.8 M28.9 285.3 Q29.1 287.6 27.5 289.05 25.65 290.7 23.2 290.4 L22.5 289.7 25.65 284.8 28.9 285.3 M213.9 207.3 Q214.15 209.95 212.0 211.45 210.05 212.65 208.2 212.4 L207.5 211.7 208.4 208.9 208.85 208.2 211.55 206.45 213.9 207.3 M181.95 290.75 L189.9 282.7 189.15 284.15 182.3 291.25 181.95 290.75" fill="#d0cfd0" fill-rule="evenodd" stroke="none"/>
      <path d="M123.6 14.05 L124.75 17.45 Q124.5 20.3 122.8 21.75 L117.15 22.3 Q119.5 21.8 121.3 19.95 123.6 17.5 123.6 14.05 M22.65 169.4 L28.7 167.8 30.6 161.05 31.75 164.45 Q31.25 169.75 25.75 170.25 24.05 170.2 22.65 169.4 M143.9 102.3 L144.7 104.55 Q144.35 108.05 140.75 108.35 139.25 108.35 138.2 107.4 140.05 107.7 142.0 106.45 144.15 104.9 143.9 102.3 M87.9 114.8 L88.7 116.85 Q88.7 119.5 86.3 120.45 84.1 121.4 82.2 119.9 84.1 120.25 86.0 118.95 88.2 117.45 87.9 114.8 M23.2 290.4 Q25.65 290.7 27.5 289.05 29.1 287.6 28.9 285.3 L29.7 287.2 27.35 291.05 23.2 290.4 M213.9 207.3 L214.7 209.2 Q214.75 211.9 212.35 213.05 210.1 214.0 208.2 212.4 210.05 212.65 212.0 211.45 214.15 209.95 213.9 207.3 M192.1 284.55 L193.25 287.95 Q193.25 290.4 191.3 292.25 L185.65 292.8 Q188.0 292.3 189.8 290.45 192.1 288.0 192.1 284.55" fill="#b0aeb3" fill-rule="evenodd" stroke="none"/>
      <path d="M121.8 14.5 L122.6 15.15 115.65 22.4 115.7 24.35 113.8 22.9 121.8 14.5 M28.8 161.5 L22.65 169.4 22.7 171.35 20.8 169.9 28.8 161.5 M190.3 285.0 L191.1 285.65 184.15 292.9 184.2 294.85 182.3 293.4 190.3 285.0" fill="#57565b" fill-rule="evenodd" stroke="none"/>
      <path d="M113.8 22.9 L113.0 19.35 113.45 20.25 113.8 20.75 113.8 22.9 M20.8 169.9 L20.0 166.35 20.45 167.25 20.8 167.75 20.8 169.9 M181.5 289.85 L181.95 290.75 182.3 291.25 182.3 293.4 181.5 289.85" fill="#79818b" fill-rule="evenodd" stroke="none"/>
    </g>
    <g id="shape4" transform="matrix(1.0, 0.0, 0.0, 1.0, 0.0, 0.0)">
      <path d="M149.75 126.35 L186.4 148.7 144.25 214.9 137.3 223.65 125.8 221.75 118.85 229.05 132.9 238.6 133.7 243.65 107.6 236.75 100.15 239.1 99.2 240.7 105.4 254.4 134.5 276.05 138.9 275.2 139.25 277.2 97.05 277.2 99.0 183.95 138.3 153.6 138.3 151.9 133.4 147.95 146.0 144.65 149.75 126.35 M110.35 48.45 L109.55 47.25 110.15 47.35 110.05 45.8 111.5 46.3 Q113.65 45.35 113.5 42.65 113.4 40.1 110.65 40.15 L113.75 36.4 116.1 49.85 Q113.55 51.05 110.35 48.45 M90.7 40.2 Q89.25 40.8 88.75 42.4 87.75 45.7 90.55 46.8 90.0 48.1 88.95 48.65 87.05 49.5 85.1 49.1 L86.7 42.8 86.9 40.8 86.65 39.05 87.35 35.9 Q89.9 37.5 90.7 40.2 M57.2 143.3 L52.7 125.8 67.6 116.55 95.1 181.35 67.0 154.55 72.15 145.3 57.2 143.3 M63.65 154.35 L64.0 155.8 96.15 186.4 94.85 238.7 86.3 235.05 60.55 244.15 60.9 240.35 74.75 230.25 68.4 223.4 55.45 224.75 30.8 194.95 11.4 151.3 50.0 127.45 55.45 146.1 68.3 147.45 63.65 154.35 M147.0 124.7 L143.7 142.5 128.8 146.45 134.6 152.7 101.6 178.15 131.65 115.35 147.0 124.7 M144.3 219.4 L146.8 216.5 187.45 152.7 192.0 199.25 185.55 247.8 184.7 250.85 184.4 247.2 Q173.85 237.45 163.7 229.3 L145.6 225.65 144.3 219.4 M89.25 254.8 L94.8 241.55 94.05 277.25 57.65 277.7 57.8 276.2 61.9 277.05 89.25 254.8 M28.15 196.3 L44.9 216.7 42.7 226.75 25.45 229.5 10.15 250.7 6.5 240.4 3.05 195.25 10.15 155.8 28.15 196.3" fill="#106557" fill-rule="evenodd" stroke="none"/>
      <path d="M149.75 126.35 L146.0 144.65 133.4 147.95 138.3 151.9 138.3 153.6 99.0 183.95 97.05 277.2 139.25 277.2 138.9 275.2 134.5 276.05 105.4 254.4 99.2 240.7 100.15 239.1 107.6 236.75 133.7 243.65 132.9 238.6 118.85 229.05 125.8 221.75 137.3 223.65 144.25 214.9 186.4 148.7 149.75 126.35 M190.0 148.15 L195.0 199.05 188.5 248.4 184.35 261.9 141.8 274.4 142.0 279.85 54.8 280.1 54.85 275.45 12.85 265.3 11.95 264.7 3.5 240.85 0.0 195.35 8.0 150.6 8.9 149.35 30.7 135.9 57.2 121.25 Q63.25 117.25 68.2 111.55 L68.5 111.3 81.9 49.55 84.05 39.65 84.25 39.15 84.55 38.65 85.45 35.15 85.2 33.95 92.1 1.3 92.3 0.85 92.65 0.55 Q93.05 0.25 93.55 0.25 101.6 0.05 109.7 0.0 L110.4 0.75 110.65 1.15 129.8 111.1 130.85 111.7 131.8 111.95 189.3 146.95 190.0 148.15 M110.35 48.45 L112.9 54.1 112.1 54.85 111.85 54.75 109.75 51.7 Q106.65 46.35 108.7 40.55 109.85 37.4 112.4 35.0 L113.35 34.1 112.35 28.25 104.6 32.7 103.9 31.9 Q103.85 31.7 103.95 31.65 106.0 30.0 108.15 28.55 L111.95 26.15 107.9 2.95 94.8 3.1 89.8 26.75 98.0 33.45 97.15 34.55 89.35 28.9 88.3 33.9 89.35 34.55 Q92.15 36.5 93.0 39.9 93.4 41.6 93.3 43.35 L93.05 45.55 Q92.7 47.85 91.25 49.75 91.0 50.05 90.6 50.15 89.25 50.85 87.75 51.0 L84.65 51.25 80.25 71.9 89.5 58.9 90.7 59.65 87.4 65.0 Q93.3 64.6 99.2 65.85 L100.8 66.3 Q105.35 63.7 110.6 63.75 L112.9 64.05 109.85 59.3 110.6 58.5 111.35 58.65 119.05 69.25 118.65 70.25 117.55 70.3 114.8 66.65 113.1 66.2 Q106.95 64.9 101.35 68.05 L100.7 68.4 Q94.25 66.45 87.7 67.0 L85.85 67.25 78.95 78.1 72.1 110.4 99.4 117.55 126.7 110.65 123.5 92.15 Q119.4 87.3 113.75 84.15 L109.15 82.05 104.55 80.75 98.05 80.1 Q88.65 81.25 81.6 87.5 L78.65 90.0 78.35 90.1 77.65 89.15 Q80.25 85.8 83.55 83.45 87.25 80.8 91.6 79.35 98.95 76.9 106.4 78.85 114.95 81.15 121.5 87.2 L122.9 88.65 116.1 49.85 113.75 36.4 110.65 40.15 110.05 45.8 110.15 47.35 109.55 47.25 110.35 48.45 M96.1 37.95 Q96.15 37.25 96.7 37.05 L97.05 37.05 Q97.95 37.2 97.95 38.1 L95.85 59.5 95.65 60.2 95.3 60.4 Q94.65 60.6 94.25 60.05 L94.15 59.7 Q95.0 48.8 96.1 37.95 M90.7 40.2 Q89.9 37.5 87.35 35.9 L86.65 39.05 86.9 40.8 86.7 42.8 85.1 49.1 Q87.05 49.5 88.95 48.65 90.0 48.1 90.55 46.8 91.7 43.9 90.75 40.4 L90.7 40.2 M63.65 154.35 L68.3 147.45 55.45 146.1 50.0 127.45 11.4 151.3 30.8 194.95 55.45 224.75 68.4 223.4 74.75 230.25 60.9 240.35 60.55 244.15 86.3 235.05 94.85 238.7 96.15 186.4 64.0 155.8 63.65 154.35 M57.2 143.3 L72.15 145.3 67.0 154.55 95.1 181.35 67.6 116.55 52.7 125.8 57.2 143.3 M128.9 114.2 L128.4 113.45 102.1 120.0 112.25 128.0 125.75 120.75 128.9 114.2 M147.0 124.7 L131.65 115.35 101.6 178.15 134.6 152.7 128.8 146.45 143.7 142.5 147.0 124.7 M70.05 114.0 L73.1 121.25 89.55 127.15 96.7 119.95 70.7 113.1 70.05 114.0 M96.4 123.4 Q94.95 124.85 94.95 126.9 94.95 128.95 96.4 130.4 97.8 131.85 99.85 131.85 101.9 131.85 103.35 130.4 104.75 128.95 104.75 126.9 104.75 124.85 103.35 123.4 101.9 121.95 99.85 121.95 97.8 121.95 96.4 123.4 M104.9 133.1 L112.15 149.2 123.6 125.3 112.0 131.25 106.85 127.5 104.9 133.1 M92.95 127.95 L90.3 130.35 74.75 125.2 86.2 152.35 94.6 133.1 92.95 127.95 M97.4 134.2 L87.8 156.2 97.6 179.55 110.45 152.75 102.05 134.2 97.4 134.2 M144.3 219.4 L145.6 225.65 163.7 229.3 Q173.85 237.45 184.4 247.2 L184.7 250.85 185.55 247.8 192.0 199.25 187.45 152.7 146.8 216.5 144.3 219.4 M142.85 225.15 L141.95 222.2 139.95 224.3 142.85 225.15 M107.3 239.8 L102.7 241.4 107.5 252.25 135.45 273.1 181.95 259.4 181.65 248.2 162.6 231.15 127.0 224.6 122.75 228.6 156.4 250.5 156.15 251.85 107.3 239.8 M86.15 238.1 L39.4 254.5 38.45 253.45 71.0 229.6 66.95 226.0 27.1 232.15 11.4 254.15 14.35 262.6 61.2 273.95 87.05 252.8 91.9 240.6 86.15 238.1 M89.25 254.8 L61.9 277.05 57.8 276.2 57.65 277.7 94.05 277.25 94.8 241.55 89.25 254.8 M136.9 244.45 L146.05 246.85 136.3 240.7 136.9 244.45 M28.15 196.3 L10.15 155.8 3.05 195.25 6.5 240.4 10.15 250.7 25.45 229.5 42.7 226.75 44.9 216.7 28.15 196.3 M52.0 225.3 L47.35 219.65 45.9 226.25 52.0 225.3 M57.45 245.25 L57.7 242.55 49.95 247.9 57.45 245.25" fill="#1a1a1a" fill-rule="evenodd" stroke="none"/>
      <path d="M116.1 49.85 L122.9 88.65 121.5 87.2 Q114.95 81.15 106.4 78.85 98.95 76.9 91.6 79.35 87.25 80.8 83.55 83.45 80.25 85.8 77.65 89.15 L78.35 90.1 78.65 90.0 81.6 87.5 Q88.65 81.25 98.05 80.1 L104.55 80.75 109.15 82.05 113.75 84.15 Q119.4 87.3 123.5 92.15 L126.7 110.65 99.4 117.55 72.1 110.4 78.95 78.1 85.85 67.25 87.7 67.0 Q94.25 66.45 100.7 68.4 L101.35 68.05 Q106.95 64.9 113.1 66.2 L114.8 66.65 117.55 70.3 118.65 70.25 119.05 69.25 111.35 58.65 110.6 58.5 109.85 59.3 112.9 64.05 110.6 63.75 Q105.35 63.7 100.8 66.3 L99.2 65.85 Q93.3 64.6 87.4 65.0 L90.7 59.65 89.5 58.9 80.25 71.9 84.65 51.25 87.75 51.0 Q89.25 50.85 90.6 50.15 91.0 50.05 91.25 49.75 92.7 47.85 93.05 45.55 L93.3 43.35 Q93.4 41.6 93.0 39.9 92.15 36.5 89.35 34.55 L88.3 33.9 89.35 28.9 97.15 34.55 98.0 33.45 89.8 26.75 94.8 3.1 107.9 2.95 111.95 26.15 108.15 28.55 Q106.0 30.0 103.95 31.65 103.85 31.7 103.9 31.9 L104.6 32.7 112.35 28.25 113.35 34.1 112.4 35.0 Q109.85 37.4 108.7 40.55 106.65 46.35 109.75 51.7 L111.85 54.75 112.1 54.85 112.9 54.1 110.35 48.45 Q113.55 51.05 116.1 49.85 M96.1 37.95 Q95.0 48.8 94.15 59.7 L94.25 60.05 Q94.65 60.6 95.3 60.4 L95.65 60.2 95.85 59.5 97.95 38.1 Q97.95 37.2 97.05 37.05 L96.7 37.05 Q96.15 37.25 96.1 37.95 M107.3 239.8 L156.15 251.85 156.4 250.5 122.75 228.6 127.0 224.6 162.6 231.15 181.65 248.2 181.95 259.4 135.45 273.1 107.5 252.25 102.7 241.4 107.3 239.8 M86.15 238.1 L91.9 240.6 87.05 252.8 61.2 273.95 14.35 262.6 11.4 254.15 27.1 232.15 66.95 226.0 71.0 229.6 38.45 253.45 39.4 254.5 86.15 238.1" fill="#d56a6a" fill-rule="evenodd" stroke="none"/>
      <path d="M110.05 45.8 L110.65 40.15 Q113.4 40.1 113.5 42.65 113.65 45.35 111.5 46.3 L110.05 45.8 M90.55 46.8 Q87.75 45.7 88.75 42.4 89.25 40.8 90.7 40.2 L90.75 40.4 Q91.7 43.9 90.55 46.8" fill="#000000" fill-rule="evenodd" stroke="none"/>
      <path d="M128.9 114.2 L125.75 120.75 112.25 128.0 102.1 120.0 128.4 113.45 128.9 114.2 M70.05 114.0 L70.7 113.1 96.7 119.95 89.55 127.15 73.1 121.25 70.05 114.0 M92.95 127.95 L94.6 133.1 86.2 152.35 74.75 125.2 90.3 130.35 92.95 127.95 M104.9 133.1 L106.85 127.5 112.0 131.25 123.6 125.3 112.15 149.2 104.9 133.1" fill="#c1d9cb" fill-rule="evenodd" stroke="none"/>
      <path d="M96.4 123.4 Q97.8 121.95 99.85 121.95 101.9 121.95 103.35 123.4 104.75 124.85 104.75 126.9 104.75 128.95 103.35 130.4 101.9 131.85 99.85 131.85 97.8 131.85 96.4 130.4 94.95 128.95 94.95 126.9 94.95 124.85 96.4 123.4 M97.4 134.2 L102.05 134.2 110.45 152.75 97.6 179.55 87.8 156.2 97.4 134.2" fill="#0e4239" fill-rule="evenodd" stroke="none"/>
    </g>
    <g id="shape5" transform="matrix(1.0, 0.0, 0.0, 1.0, -0.25, -0.1)">
      <path d="M41.5 9.2 Q42.4 9.55 43.15 9.95 46.05 11.85 46.9 14.2 L47.35 15.85 47.65 17.9 47.25 18.65 44.0 19.2 38.3 19.95 37.2 18.3 37.9 23.9 45.75 25.9 Q47.7 26.7 49.5 27.85 L51.3 29.45 51.9 30.15 53.05 32.2 Q53.9 34.55 53.45 37.4 53.05 39.65 51.8 42.25 50.75 44.2 48.5 45.95 L41.3 49.9 41.5 51.65 41.65 52.55 41.55 54.25 40.85 54.55 36.85 54.55 33.35 54.55 32.45 54.35 32.1 53.1 32.0 51.75 29.9 51.65 29.95 52.0 30.05 53.35 30.25 54.95 30.05 55.55 29.7 55.8 21.15 55.75 20.85 54.7 20.85 53.9 20.8 52.15 20.8 50.7 Q14.65 48.7 10.65 43.65 L7.9 38.1 7.55 35.2 8.6 34.85 10.8 34.65 18.35 34.25 20.5 38.15 19.95 29.25 Q14.15 29.25 10.1 25.5 8.95 24.2 8.45 22.85 7.9 20.7 8.2 18.6 8.55 16.85 9.35 15.4 10.25 14.05 11.4 12.85 L14.5 10.85 17.6 9.4 17.5 8.85 17.35 8.15 17.1 6.75 17.15 4.7 17.75 4.4 24.8 4.3 25.3 5.6 25.4 6.25 25.5 7.1 27.25 6.95 27.1 6.05 27.05 5.4 26.95 4.05 31.85 2.35 33.7 2.05 35.15 2.35 35.4 3.05 35.6 5.0 35.8 6.45 35.85 7.15 35.9 7.6 38.4 8.15 Q40.1 8.6 41.5 9.2 M45.7 17.05 Q45.55 13.85 43.0 11.9 39.95 9.6 36.1 8.95 L36.85 15.25 Q38.5 16.2 39.2 17.9 L45.7 17.05 M50.5 31.85 Q50.15 30.75 49.3 29.9 44.5 25.35 38.05 25.6 L38.65 30.05 39.6 30.55 Q42.85 32.45 41.55 36.3 L39.75 38.5 41.0 47.75 45.35 45.65 Q47.2 44.6 48.4 43.0 52.3 37.95 50.5 31.85 M27.4 8.2 L25.7 8.35 26.75 14.8 28.3 14.65 27.4 8.2 M28.4 15.6 L26.8 15.75 27.6 23.3 29.5 23.7 28.4 15.6 M25.75 23.5 L23.6 5.85 19.25 5.95 20.8 20.4 21.2 26.55 Q22.1 40.45 22.3 54.4 L28.25 54.0 25.75 23.5 M33.65 3.4 L28.7 4.7 Q30.45 15.1 31.3 25.55 L32.1 34.2 33.65 52.85 39.75 52.65 33.65 3.4 M10.9 18.95 L10.85 19.95 Q10.85 20.9 11.15 21.85 13.15 27.7 19.8 27.9 L19.5 24.35 Q17.9 24.05 17.15 22.75 14.95 18.95 18.75 16.85 L17.85 10.85 Q14.85 12.2 12.8 14.55 11.15 16.4 10.9 18.95 M18.25 20.55 Q18.5 21.5 19.1 22.15 L18.9 18.45 Q17.95 19.3 18.25 20.55 M17.1 36.0 L9.45 36.65 9.8 37.65 Q13.15 45.05 20.75 48.3 L20.55 39.4 Q18.1 38.3 17.1 36.0 M38.85 31.85 L39.5 36.6 Q40.7 34.95 39.5 32.5 L38.85 31.85 M27.8 25.4 L28.1 28.4 30.2 28.6 29.75 25.5 27.8 25.4 M30.35 29.8 L28.2 29.6 29.05 39.75 31.25 39.65 30.35 29.8 M31.35 40.85 L29.15 40.95 29.75 49.8 31.9 49.75 31.35 40.85" fill="#005d51" fill-rule="evenodd" stroke="none"/>
      <path d="M46.9 14.2 Q46.05 11.85 43.15 9.95 42.4 9.55 41.5 9.2 38.85 7.4 35.8 6.45 L35.6 5.0 Q41.65 6.85 46.0 11.25 54.5 20.05 53.05 32.2 L51.9 30.15 51.95 28.7 Q51.75 20.2 46.9 14.2 M35.15 2.35 L33.7 2.05 Q21.3 -0.05 11.55 7.85 2.85 14.9 1.65 25.95 0.9 32.85 3.65 39.2 8.8 50.9 20.85 54.7 L21.15 55.75 29.7 55.8 Q33.45 55.6 36.85 54.55 L40.85 54.55 Q35.35 57.15 28.6 57.3 16.45 56.95 8.4 48.9 4.75 45.25 2.7 40.85 1.25 37.7 0.65 34.15 -0.1 29.5 0.5 24.9 1.2 19.5 3.95 14.75 6.75 10.0 10.95 6.65 14.95 3.5 19.8 1.7 24.05 0.1 28.6 0.1 40.7 0.4 48.8 8.5 56.9 16.55 57.2 28.7 56.85 40.8 48.8 48.9 45.5 52.2 41.55 54.25 L41.65 52.55 Q44.95 50.7 47.8 47.9 55.45 40.2 55.75 28.7 55.45 17.15 47.8 9.5 42.45 4.1 35.15 2.35 M26.95 4.05 L27.05 5.4 25.3 5.6 24.8 4.3 26.95 4.05 M17.1 6.75 L17.35 8.15 11.4 12.85 Q10.25 14.05 9.35 15.4 5.4 21.05 5.2 28.7 5.4 37.45 10.65 43.65 14.65 48.7 20.8 50.7 L20.8 52.15 Q15.35 50.4 11.1 46.15 4.1 39.15 3.85 28.7 4.1 18.2 11.1 11.2 13.8 8.45 17.1 6.75 M30.05 53.35 L29.95 52.0 32.0 51.75 32.1 53.1 30.05 53.35" fill="#006868" fill-rule="evenodd" stroke="none"/>
      <path d="M40.65 12.0 L42.45 12.1 43.6 13.4 Q44.15 15.45 42.2 16.35 41.3 16.6 40.6 16.35 L40.45 16.3 40.4 16.25 Q39.7 15.85 39.25 14.95 38.7 12.9 40.65 12.0 M41.6 15.7 L41.95 15.6 Q43.65 14.75 42.45 13.1 L41.6 15.7 M41.65 12.75 L40.95 12.8 Q39.7 13.35 40.05 14.7 L40.45 15.3 41.65 12.75 M46.05 37.3 Q48.15 37.85 48.0 39.95 47.45 42.05 45.3 41.9 44.3 41.65 43.85 41.05 L43.8 41.0 43.75 40.9 Q43.3 40.25 43.4 39.2 43.95 37.1 46.05 37.3 M44.8 40.8 L45.45 41.05 Q47.4 41.15 47.1 39.15 L44.8 40.8 M46.65 38.45 L45.95 38.1 Q44.6 38.0 44.2 39.35 L44.3 40.15 46.65 38.45 M13.5 18.1 L12.75 18.1 14.15 20.6 14.5 19.95 Q14.75 18.6 13.5 18.1 M10.85 19.95 L10.9 18.95 Q11.55 17.0 13.6 17.25 15.35 17.7 15.4 19.55 15.45 21.1 14.0 21.75 L12.3 21.65 Q11.15 21.15 10.85 19.95 M12.65 20.95 L13.35 21.0 12.0 18.55 11.65 19.1 Q11.4 20.45 12.65 20.95 M17.55 42.65 L17.85 42.0 15.0 42.3 15.45 42.9 Q16.6 43.65 17.55 42.65 M17.3 40.6 Q16.2 39.8 15.2 40.8 L14.9 41.45 17.75 41.15 17.3 40.6 M18.75 41.5 L18.5 42.45 Q17.95 44.1 16.25 44.15 L15.8 44.0 Q13.3 42.75 14.55 40.25 L15.4 39.85 Q17.95 38.9 18.75 41.5" fill="#0f6f61" fill-rule="evenodd" stroke="none"/>
      <path d="M40.65 12.0 Q38.7 12.9 39.25 14.95 39.7 15.85 40.4 16.25 L40.45 16.3 40.6 16.35 Q41.3 16.6 42.2 16.35 44.15 15.45 43.6 13.4 L42.45 12.1 40.65 12.0 M45.7 17.05 L39.2 17.9 Q38.5 16.2 36.85 15.25 L36.1 8.95 Q39.95 9.6 43.0 11.9 45.55 13.85 45.7 17.05 M50.5 31.85 Q52.3 37.95 48.4 43.0 47.2 44.6 45.35 45.65 L41.0 47.75 39.75 38.5 41.55 36.3 Q42.85 32.45 39.6 30.55 L38.65 30.05 38.05 25.6 Q44.5 25.35 49.3 29.9 50.15 30.75 50.5 31.85 M46.05 37.3 Q43.95 37.1 43.4 39.2 43.3 40.25 43.75 40.9 L43.8 41.0 43.85 41.05 Q44.3 41.65 45.3 41.9 47.45 42.05 48.0 39.95 48.15 37.85 46.05 37.3 M32.9 7.7 L31.15 6.85 Q30.6 9.15 30.85 11.4 L31.8 18.75 Q33.9 33.8 34.4 48.9 34.45 50.1 35.5 51.1 L37.15 50.9 Q37.65 50.05 37.55 48.95 L36.95 43.5 36.1 33.95 Q35.3 20.6 32.9 7.7 M27.4 8.2 L28.3 14.65 26.75 14.8 25.7 8.35 27.4 8.2 M24.25 24.5 Q24.2 18.9 23.7 13.7 23.2 8.5 22.1 8.2 20.85 8.6 21.15 13.7 21.45 18.8 22.2 24.2 L23.1 31.05 Q23.5 40.1 23.8 43.3 23.3 47.7 24.9 51.6 26.25 50.8 26.15 48.65 L25.8 45.15 Q24.55 38.45 24.3 31.65 L24.25 24.5 M33.65 3.4 L39.75 52.65 33.65 52.85 32.1 34.2 31.3 25.55 Q30.45 15.1 28.7 4.7 L33.65 3.4 M25.75 23.5 L28.25 54.0 22.3 54.4 Q22.1 40.45 21.2 26.55 L20.8 20.4 19.25 5.95 23.6 5.85 25.75 23.5 M10.85 19.95 Q11.15 21.15 12.3 21.65 L14.0 21.75 Q15.45 21.1 15.4 19.55 15.35 17.7 13.6 17.25 11.55 17.0 10.9 18.95 11.15 16.4 12.8 14.55 14.85 12.2 17.85 10.85 L18.75 16.85 Q14.95 18.95 17.15 22.75 17.9 24.05 19.5 24.35 L19.8 27.9 Q13.15 27.7 11.15 21.85 10.85 20.9 10.85 19.95 M18.75 41.5 Q17.95 38.9 15.4 39.85 L14.55 40.25 Q13.3 42.75 15.8 44.0 L16.25 44.15 Q17.95 44.1 18.5 42.45 L18.75 41.5 M17.1 36.0 Q18.1 38.3 20.55 39.4 L20.75 48.3 Q13.15 45.05 9.8 37.65 L9.45 36.65 17.1 36.0 M27.8 25.4 L29.75 25.5 30.2 28.6 28.1 28.4 27.8 25.4 M31.35 40.85 L31.9 49.75 29.75 49.8 29.15 40.95 31.35 40.85" fill="#85ab93" fill-rule="evenodd" stroke="none"/>
      <path d="M38.4 8.15 L35.9 7.6 35.85 7.15 38.4 8.15 M27.1 6.05 L27.25 6.95 25.5 7.1 25.4 6.25 27.1 6.05 M17.5 8.85 L17.6 9.4 14.5 10.85 Q15.9 9.7 17.5 8.85 M8.2 18.6 Q7.9 20.7 8.45 22.85 7.45 26.0 7.7 29.6 7.85 32.35 8.6 34.85 L7.55 35.2 7.9 38.1 Q6.0 33.85 5.85 28.7 6.0 23.1 8.2 18.6 M51.3 29.45 L49.5 27.85 Q49.25 23.0 47.25 18.65 L47.65 17.9 47.35 15.85 Q51.15 21.35 51.3 28.7 L51.3 29.45" fill="#85b599" fill-rule="evenodd" stroke="none"/>
      <path d="M41.5 9.2 Q40.1 8.6 38.4 8.15 L35.85 7.15 35.8 6.45 Q38.85 7.4 41.5 9.2 M35.4 3.05 L35.15 2.35 Q42.45 4.1 47.8 9.5 55.45 17.15 55.75 28.7 55.45 40.2 47.8 47.9 44.95 50.7 41.65 52.55 L41.5 51.65 Q44.6 49.9 47.2 47.3 L48.5 45.95 Q50.75 44.2 51.8 42.25 53.05 39.65 53.45 37.4 54.8 33.35 54.95 28.6 54.65 17.35 47.2 9.9 42.15 4.85 35.4 3.05 M33.7 2.05 L31.85 2.35 28.5 2.1 Q22.6 2.25 17.75 4.4 L17.15 4.7 Q6.8 9.85 3.35 20.8 0.5 29.95 4.3 38.8 9.25 50.2 20.85 53.9 L20.85 54.7 Q8.8 50.9 3.65 39.2 0.9 32.85 1.65 25.95 2.85 14.9 11.55 7.85 21.3 -0.05 33.7 2.05 M27.05 5.4 L27.1 6.05 25.4 6.25 25.3 5.6 27.05 5.4 M17.35 8.15 L17.5 8.85 Q15.9 9.7 14.5 10.85 L11.4 12.85 17.35 8.15 M9.35 15.4 Q8.55 16.85 8.2 18.6 6.0 23.1 5.85 28.7 6.0 33.85 7.9 38.1 L10.65 43.65 Q5.4 37.45 5.2 28.7 5.4 21.05 9.35 15.4 M29.7 55.8 L30.05 55.55 30.25 54.95 33.35 54.55 36.85 54.55 Q33.45 55.6 29.7 55.8 M29.95 52.0 L29.9 51.65 32.0 51.75 29.95 52.0 M51.9 30.15 L51.3 29.45 51.3 28.7 Q51.15 21.35 47.35 15.85 L46.9 14.2 Q51.75 20.2 51.95 28.7 L51.9 30.15" fill="#085854" fill-rule="evenodd" stroke="none"/>
      <path d="M41.65 12.75 L40.45 15.3 40.05 14.7 Q39.7 13.35 40.95 12.8 L41.65 12.75 M41.6 15.7 L42.45 13.1 Q43.65 14.75 41.95 15.6 L41.6 15.7 M46.65 38.45 L44.3 40.15 44.2 39.35 Q44.6 38.0 45.95 38.1 L46.65 38.45 M44.8 40.8 L47.1 39.15 Q47.4 41.15 45.45 41.05 L44.8 40.8 M13.5 18.1 Q14.75 18.6 14.5 19.95 L14.15 20.6 12.75 18.1 13.5 18.1 M12.65 20.95 Q11.4 20.45 11.65 19.1 L12.0 18.55 13.35 21.0 12.65 20.95 M17.3 40.6 L17.75 41.15 14.9 41.45 15.2 40.8 Q16.2 39.8 17.3 40.6 M17.55 42.65 Q16.6 43.65 15.45 42.9 L15.0 42.3 17.85 42.0 17.55 42.65" fill="#a0beac" fill-rule="evenodd" stroke="none"/>
      <path d="M35.6 5.0 L35.4 3.05 Q42.15 4.85 47.2 9.9 54.65 17.35 54.95 28.6 54.8 33.35 53.45 37.4 53.9 34.55 53.05 32.2 54.5 20.05 46.0 11.25 41.65 6.85 35.6 5.0 M31.85 2.35 L26.95 4.05 24.8 4.3 17.75 4.4 Q22.6 2.25 28.5 2.1 L31.85 2.35 M17.15 4.7 L17.1 6.75 Q13.8 8.45 11.1 11.2 4.1 18.2 3.85 28.7 4.1 39.15 11.1 46.15 15.35 50.4 20.8 52.15 L20.85 53.9 Q9.25 50.2 4.3 38.8 0.5 29.95 3.35 20.8 6.8 9.85 17.15 4.7 M8.45 22.85 Q8.95 24.2 10.1 25.5 8.85 29.75 10.65 34.3 L10.8 34.65 8.6 34.85 Q7.85 32.35 7.7 29.6 7.45 26.0 8.45 22.85 M30.25 54.95 L30.05 53.35 32.1 53.1 32.45 54.35 33.35 54.55 30.25 54.95 M41.5 51.65 L41.3 49.9 48.5 45.95 47.2 47.3 Q44.6 49.9 41.5 51.65 M49.5 27.85 Q47.7 26.7 45.75 25.9 45.45 22.35 44.0 19.2 L47.25 18.65 Q49.25 23.0 49.5 27.85" fill="#98bea8" fill-rule="evenodd" stroke="none"/>
      <path d="M10.1 25.5 Q14.15 29.25 19.95 29.25 L20.5 38.15 18.35 34.25 10.8 34.65 10.65 34.3 Q8.85 29.75 10.1 25.5 M45.75 25.9 L37.9 23.9 37.2 18.3 38.3 19.95 44.0 19.2 Q45.45 22.35 45.75 25.9 M28.4 15.6 L29.5 23.7 27.6 23.3 26.8 15.75 28.4 15.6 M18.25 20.55 Q17.95 19.3 18.9 18.45 L19.1 22.15 Q18.5 21.5 18.25 20.55 M38.85 31.85 L39.5 32.5 Q40.7 34.95 39.5 36.6 L38.85 31.85 M30.35 29.8 L31.25 39.65 29.05 39.75 28.2 29.6 30.35 29.8" fill="#c1d9cb" fill-rule="evenodd" stroke="none"/>
      <path d="M32.9 7.7 Q35.3 20.6 36.1 33.95 L36.95 43.5 37.55 48.95 Q37.65 50.05 37.15 50.9 L35.5 51.1 Q34.45 50.1 34.4 48.9 33.9 33.8 31.8 18.75 L30.85 11.4 Q30.6 9.15 31.15 6.85 L32.9 7.7 M24.25 24.5 L24.3 31.65 Q24.55 38.45 25.8 45.15 L26.15 48.65 Q26.25 50.8 24.9 51.6 23.3 47.7 23.8 43.3 23.5 40.1 23.1 31.05 L22.2 24.2 Q21.45 18.8 21.15 13.7 20.85 8.6 22.1 8.2 23.2 8.5 23.7 13.7 24.2 18.9 24.25 24.5" fill="#689878" fill-rule="evenodd" stroke="none"/>
    </g>
  </defs>
</svg>
