<?xml version="1.0" encoding="UTF-8" standalone="no"?>
<svg xmlns:xlink="http://www.w3.org/1999/xlink" height="436.75px" width="359.4px" xmlns="http://www.w3.org/2000/svg">
  <g transform="matrix(1.0, 0.0, 0.0, 1.0, 179.75, 436.75)">
    <use height="36.0" transform="matrix(1.0, 0.0, 0.0, 1.0, -79.5, -36.0)" width="159.0" xlink:href="#shape0"/>
    <use height="96.65" transform="matrix(1.0, 0.0, 0.0, 1.0, -27.1, -108.0)" width="54.2" xlink:href="#shape1"/>
    <use height="37.0" transform="matrix(1.0, 0.0, 0.0, 1.0, -92.6, -94.35)" width="185.25" xlink:href="#shape2"/>
    <use height="17.55" transform="matrix(1.0, 0.0, 0.0, 1.0, -53.1, -81.65)" width="104.55" xlink:href="#text0"/>
    <use height="276.35" transform="matrix(1.0, 0.0, 0.0, 1.0, -179.05, -372.45)" width="358.1" xlink:href="#shape3"/>
    <use height="256.4" transform="matrix(1.0, 0.0, 0.0, 1.0, -164.15, -353.65)" width="330.8" xlink:href="#shape4"/>
    <use height="57.2" transform="matrix(1.0, 0.0, 0.0, 1.0, -28.85, -232.5)" width="56.95" xlink:href="#shape5"/>
  </g>
  <defs>
    <g id="shape0" transform="matrix(1.0, 0.0, 0.0, 1.0, 0.0, 0.0)">
      <path d="M135.7 30.75 Q113.3 35.8 79.5 36.0 45.7 35.8 23.3 30.75 0.85 25.65 0.0 18.0 0.85 10.35 23.3 5.25 45.7 0.2 79.5 0.0 113.3 0.2 135.7 5.25 158.15 10.35 159.0 18.0 158.15 25.65 135.7 30.75" fill="#000000" fill-opacity="0.39607844" fill-rule="evenodd" stroke="none"/>
    </g>
    <g id="shape1" transform="matrix(1.0, 0.0, 0.0, 1.0, 0.0, 0.0)">
      <path d="M5.85 93.35 Q-0.15 90.4 0.0 90.0 L0.0 0.0 54.2 0.0 54.2 90.0 Q54.15 90.4 46.95 93.35 39.7 96.25 25.65 96.65 11.8 96.25 5.85 93.35" fill="url(#gradient0)" fill-rule="evenodd" stroke="none"/>
    </g>
    <linearGradient gradientTransform="matrix(0.0303, 0.0, 0.0, 0.0303, 25.7, 48.35)" gradientUnits="userSpaceOnUse" id="gradient0" spreadMethod="pad" x1="-819.2" x2="819.2">
      <stop offset="0.0" stop-color="#565656"/>
      <stop offset="0.403921568627451" stop-color="#9a9999"/>
      <stop offset="0.592156862745098" stop-color="#dbdbda"/>
      <stop offset="0.7803921568627451" stop-color="#9b9a9a"/>
      <stop offset="1.0" stop-color="#151213"/>
    </linearGradient>
    <g id="shape2" transform="matrix(1.0, 0.0, 0.0, 1.0, -0.05, 0.0)">
      <path d="M185.25 8.2 L185.3 8.25 185.25 8.25 185.25 8.2 M1.9 5.2 L2.3 2.85 18.75 2.05 59.05 0.7 Q83.4 0.05 109.4 0.3 115.1 0.55 118.85 1.6 122.65 2.7 128.15 3.0 L129.3 1.5 Q130.05 0.2 130.5 0.0 160.7 0.5 181.5 3.85 L183.45 6.1 103.3 3.5 Q60.0 3.6 6.5 5.1 L1.9 5.2 M176.25 8.0 L176.45 8.4 177.65 11.45 178.5 13.65 Q179.3 12.8 179.7 10.9 179.7 9.8 179.25 9.1 L179.9 9.55 Q180.65 10.3 180.7 11.75 179.85 15.7 177.15 15.05 175.8 14.75 175.1 13.85 L176.15 14.2 177.35 14.25 176.45 12.35 174.9 8.8 174.8 8.5 174.95 8.35 Q175.75 7.8 176.25 8.0 M178.25 27.3 L179.85 27.15 Q180.5 27.3 181.25 27.95 183.6 31.2 181.35 32.8 180.2 33.6 179.1 33.5 L180.8 32.15 178.8 31.55 175.1 30.4 175.2 29.1 175.2 29.0 175.25 28.7 175.4 28.75 175.85 28.9 178.95 30.05 181.1 30.85 Q181.0 29.65 179.9 28.15 179.05 27.45 178.25 27.3 M9.35 6.95 L10.7 10.45 11.7 12.9 Q12.6 11.95 13.05 9.85 13.05 8.55 12.5 7.75 13.85 8.35 14.15 10.05 L13.75 12.35 Q12.6 15.1 10.15 14.55 8.75 14.25 8.0 13.4 L7.85 13.2 9.0 13.6 10.35 13.65 9.35 11.4 7.6 7.45 8.75 6.6 9.2 6.55 9.35 6.95 M9.4 25.3 Q11.0 24.35 12.9 25.8 15.0 28.35 14.35 30.1 L13.4 31.3 Q12.2 32.25 10.95 32.25 L12.75 30.6 10.4 30.05 6.2 29.05 6.15 27.55 6.15 27.1 6.35 27.15 6.9 27.35 10.45 28.4 12.95 29.1 Q12.75 27.8 11.35 26.15 10.35 25.35 9.4 25.3" fill="#47525f" fill-rule="evenodd" stroke="none"/>
      <path d="M0.05 36.7 L0.75 22.9 Q1.05 14.95 1.6 7.0 L1.9 5.2 6.5 5.1 3.2 8.3 1.95 36.45 0.05 36.7" fill="#cdcdcd" fill-rule="evenodd" stroke="none"/>
      <path d="M13.75 12.35 L14.15 10.05 26.45 10.0 13.75 12.35 M8.0 13.4 L7.0 13.55 7.2 26.2 6.35 27.15 6.15 27.1 6.15 27.55 Q5.15 29.5 6.75 31.55 8.95 33.2 10.95 32.25 12.2 32.25 13.4 31.3 L14.35 30.1 16.45 30.2 36.65 31.3 56.5 32.6 Q50.4 32.9 38.0 32.9 L15.1 32.75 3.85 32.6 5.25 10.05 6.0 10.05 Q6.15 12.3 7.85 13.2 L8.0 13.4" fill="#848484" fill-rule="evenodd" stroke="none"/>
      <path d="M175.1 13.85 Q175.8 14.75 177.15 15.05 179.85 15.7 180.7 11.75 180.65 10.3 179.9 9.55 L180.85 9.65 179.85 27.15 178.25 27.3 177.7 27.3 177.8 15.2 160.95 13.3 Q144.35 11.4 115.0 6.95 144.55 7.2 162.45 8.35 L174.1 9.15 Q173.65 9.7 173.4 10.6 173.45 12.95 175.1 13.85 M175.3 32.3 L137.05 30.55 175.2 29.0 175.2 29.1 Q174.3 30.55 175.3 32.3" fill="#a09fa0" fill-rule="evenodd" stroke="none"/>
      <path d="M176.45 8.4 L176.25 8.0 176.9 7.95 Q178.55 8.05 179.25 9.1 179.7 9.8 179.7 10.9 179.3 12.8 178.5 13.65 L177.65 11.45 178.05 10.25 Q178.0 8.55 176.45 8.4 M174.8 8.5 L174.9 8.8 Q174.35 9.2 174.15 10.05 174.2 11.9 175.85 12.3 L176.45 12.35 177.35 14.25 176.15 14.2 175.1 13.85 Q173.45 12.95 173.4 10.6 173.65 9.7 174.1 9.15 L174.8 8.5 M177.7 27.3 L178.25 27.3 Q179.05 27.45 179.9 28.15 181.0 29.65 181.1 30.85 L178.95 30.05 178.3 28.9 Q177.0 27.8 175.85 28.9 L175.4 28.75 175.8 28.3 Q176.7 27.35 177.7 27.3 M179.1 33.5 Q177.3 34.2 175.5 32.65 L175.3 32.3 Q174.3 30.55 175.2 29.1 L175.1 30.4 Q175.25 32.1 176.95 32.35 178.0 32.25 178.8 31.55 L180.8 32.15 179.1 33.5 M10.7 10.45 L11.2 9.05 Q11.15 7.15 9.35 6.95 L9.2 6.55 9.9 6.5 Q11.75 6.6 12.5 7.75 13.05 8.55 13.05 9.85 12.6 11.95 11.7 12.9 L10.7 10.45 M7.2 26.2 Q8.2 25.2 9.4 25.3 10.35 25.35 11.35 26.15 12.75 27.8 12.95 29.1 L10.45 28.4 Q9.75 26.65 8.05 26.6 L6.9 27.35 6.35 27.15 7.2 26.2 M6.0 10.05 L5.95 9.55 Q6.6 7.0 8.75 6.6 L7.6 7.45 Q7.0 7.9 6.75 8.85 6.8 10.95 8.7 11.35 L9.35 11.4 10.35 13.65 9.0 13.6 7.85 13.2 Q6.15 12.3 6.0 10.05 M6.15 27.55 L6.2 29.05 Q6.45 30.9 8.2 31.1 9.7 31.2 10.4 30.05 L12.75 30.6 10.95 32.25 Q8.95 33.2 6.75 31.55 5.15 29.5 6.15 27.55" fill="#9c9c9c" fill-rule="evenodd" stroke="none"/>
      <path d="M174.9 8.8 L176.45 12.35 175.85 12.3 Q174.2 11.9 174.15 10.05 174.35 9.2 174.9 8.8 M177.65 11.45 L176.45 8.4 Q178.0 8.55 178.05 10.25 L177.65 11.45 M175.85 28.9 Q177.0 27.8 178.3 28.9 L178.95 30.05 175.85 28.9 M175.1 30.4 L178.8 31.55 Q178.0 32.25 176.95 32.35 175.25 32.1 175.1 30.4 M9.35 6.95 Q11.15 7.15 11.2 9.05 L10.7 10.45 9.35 6.95 M9.35 11.4 L8.7 11.35 Q6.8 10.95 6.75 8.85 7.0 7.9 7.6 7.45 L9.35 11.4 M10.45 28.4 L6.9 27.35 8.05 26.6 Q9.75 26.65 10.45 28.4 M6.2 29.05 L10.4 30.05 Q9.7 31.2 8.2 31.1 6.45 30.9 6.2 29.05" fill="#d5d4d4" fill-rule="evenodd" stroke="none"/>
      <path d="M183.45 6.1 L185.3 6.25 185.25 8.2 185.25 8.25 185.1 13.45 184.65 27.3 184.3 36.25 Q157.35 34.75 133.85 35.55 L89.2 37.0 Q65.15 37.15 43.55 35.85 22.0 34.5 0.05 36.75 L0.05 36.7 1.95 36.45 3.2 8.3 6.5 5.1 Q60.0 3.6 103.3 3.5 L183.45 6.1 M176.25 8.0 Q175.75 7.8 174.95 8.35 L174.8 8.5 174.1 9.15 162.45 8.35 Q144.55 7.2 115.0 6.95 144.35 11.4 160.95 13.3 L177.8 15.2 177.7 27.3 Q176.7 27.35 175.8 28.3 L175.4 28.75 175.25 28.7 175.2 29.0 137.05 30.55 175.3 32.3 175.5 32.65 Q177.3 34.2 179.1 33.5 180.2 33.6 181.35 32.8 183.6 31.2 181.25 27.95 180.5 27.3 179.85 27.15 L180.85 9.65 179.9 9.55 179.25 9.1 Q178.55 8.05 176.9 7.95 L176.25 8.0 M12.5 7.75 Q11.75 6.6 9.9 6.5 L9.2 6.55 8.75 6.6 Q6.6 7.0 5.95 9.55 L6.0 10.05 5.25 10.05 3.85 32.6 15.1 32.75 38.0 32.9 Q50.4 32.9 56.5 32.6 L36.65 31.3 16.45 30.2 14.35 30.1 Q15.0 28.35 12.9 25.8 11.0 24.35 9.4 25.3 8.2 25.2 7.2 26.2 L7.0 13.55 8.0 13.4 Q8.75 14.25 10.15 14.55 12.6 15.1 13.75 12.35 L26.45 10.0 14.15 10.05 Q13.85 8.35 12.5 7.75" fill="url(#gradient1)" fill-rule="evenodd" stroke="none"/>
    </g>
    <linearGradient gradientTransform="matrix(0.1131, 0.0, 0.0, 0.0204, 92.65, 20.25)" gradientUnits="userSpaceOnUse" id="gradient1" spreadMethod="pad" x1="-819.2" x2="819.2">
      <stop offset="0.0" stop-color="#9a9a9a"/>
      <stop offset="1.0" stop-color="#ffffff"/>
    </linearGradient>
    <g id="text0" transform="matrix(1.0, 0.0, 0.0, 1.0, -7.55, -5.7)">
      <g transform="matrix(1.0, 0.0, 0.0, 1.0, 7.15, 0.0)">
        <use fill="#000000" height="17.55" transform="matrix(0.4746, 0.0, 0.0, 0.4746, 0.0, 21.0)" width="104.55" xlink:href="#font_______W7_T0"/>
        <use fill="#000000" height="17.55" transform="matrix(0.4746, 0.0, 0.0, 0.4746, 15.55, 21.0)" width="104.55" xlink:href="#font_______W7_i0"/>
        <use fill="#000000" height="17.55" transform="matrix(0.4746, 0.0, 0.0, 0.4746, 24.35, 21.0)" width="104.55" xlink:href="#font_______W7_g0"/>
        <use fill="#000000" height="17.55" transform="matrix(0.4746, 0.0, 0.0, 0.4746, 37.65, 21.0)" width="104.55" xlink:href="#font_______W7_h0"/>
        <use fill="#000000" height="17.55" transform="matrix(0.4746, 0.0, 0.0, 0.4746, 51.75, 21.0)" width="104.55" xlink:href="#font_______W7_t0"/>
        <use fill="#000000" height="17.55" transform="matrix(0.4746, 0.0, 0.0, 0.4746, 63.1, 21.0)" width="104.55" xlink:href="#font_______W7_w0"/>
        <use fill="#000000" height="17.55" transform="matrix(0.4746, 0.0, 0.0, 0.4746, 78.0, 21.0)" width="104.55" xlink:href="#font_______W7_a0"/>
        <use fill="#000000" height="17.55" transform="matrix(0.4746, 0.0, 0.0, 0.4746, 91.8, 21.0)" width="104.55" xlink:href="#font_______W7_d0"/>
      </g>
    </g>
    <g id="font_______W7_T0">
      <path d="M30.8 -32.15 L30.8 -32.15 0.75 -29.4 1.85 -24.25 13.45 -24.25 11.0 0.05 21.6 -1.1 18.95 -24.25 32.35 -24.25 30.8 -32.15" fill-rule="evenodd" stroke="none"/>
    </g>
    <g id="font_______W7_i0">
      <path d="M11.6 -20.75 L11.6 -20.75 6.75 -21.45 4.45 0.05 14.3 -1.4 11.6 -20.75 M11.9 -31.5 L11.9 -31.5 6.5 -32.15 4.9 -24.95 13.2 -26.1 11.9 -31.5" fill-rule="evenodd" stroke="none"/>
    </g>
    <g id="font_______W7_g0">
      <path d="M21.25 -12.75 L21.25 -12.75 21.05 -10.5 18.9 -14.7 Q15.2 -11.7 11.9 -11.7 10.85 -11.7 10.0 -12.55 9.05 -13.45 9.05 -14.45 9.05 -16.75 13.35 -16.75 15.6 -16.75 18.05 -15.7 20.3 -14.7 21.2 -13.55 L21.25 -12.75 M26.3 -10.4 L26.3 -10.4 Q26.3 -15.45 24.2 -21.5 L20.0 -20.3 20.3 -19.15 Q16.35 -21.45 12.1 -21.45 8.15 -21.45 5.4 -19.3 2.35 -16.95 2.35 -13.2 2.35 -9.45 5.85 -7.35 8.8 -5.6 12.75 -5.6 16.55 -5.6 19.75 -6.9 17.8 -3.95 13.25 -3.95 8.55 -3.95 4.75 -6.35 L1.8 2.9 Q6.7 4.75 11.2 4.75 18.25 4.75 22.25 0.65 26.3 -3.4 26.3 -10.4" fill-rule="evenodd" stroke="none"/>
    </g>
    <g id="font_______W7_h0">
      <path d="M28.1 -7.6 L28.1 -7.6 Q28.1 -13.7 25.7 -17.25 22.9 -21.45 17.05 -21.45 13.35 -21.45 10.45 -19.3 L9.3 -31.55 4.65 -32.15 2.05 0.05 12.1 -1.4 11.0 -12.9 Q13.45 -15.95 16.35 -15.95 20.1 -15.95 20.1 -10.2 20.1 -6.55 17.6 -1.55 L27.6 0.05 28.1 -7.6" fill-rule="evenodd" stroke="none"/>
    </g>
    <g id="font_______W7_t0">
      <path d="M18.7 -12.2 L18.7 -12.2 Q17.0 -9.35 14.9 -9.35 11.95 -9.35 11.95 -15.4 L21.65 -15.4 20.1 -22.55 12.4 -21.45 Q12.75 -24.2 13.6 -27.95 L8.95 -28.85 Q7.75 -24.65 7.1 -20.75 L0.75 -19.9 1.75 -15.4 6.55 -15.4 6.5 -12.55 Q6.5 -6.8 7.75 -4.05 9.5 0.05 14.55 0.05 19.1 0.05 23.25 -4.15 L18.7 -12.2" fill-rule="evenodd" stroke="none"/>
    </g>
    <g id="font_______W7_w0">
      <path d="M23.1 -21.4 L23.1 -21.4 20.35 -10.05 16.6 -20.6 13.9 -21.45 9.35 -10.05 4.1 -21.35 0.5 -19.7 8.35 0.05 11.1 -0.5 14.9 -12.4 19.2 0.05 22.05 -0.55 31.2 -17.75 23.1 -21.4" fill-rule="evenodd" stroke="none"/>
    </g>
    <g id="font_______W7_a0">
      <path d="M19.05 -8.85 L19.05 -8.85 18.5 -5.05 17.1 -9.0 Q14.35 -6.2 10.6 -6.2 9.95 -6.2 9.45 -6.75 9.0 -7.2 9.0 -7.85 9.0 -10.2 13.7 -10.2 15.9 -10.2 19.05 -8.85 M27.4 -6.8 L27.4 -6.8 Q27.4 -21.45 13.35 -21.45 7.15 -21.45 2.55 -18.35 L4.3 -14.35 Q8.3 -16.55 13.15 -16.55 17.85 -16.55 18.85 -13.35 15.4 -14.5 12.8 -14.5 8.6 -14.5 5.6 -12.8 1.8 -10.75 1.8 -6.95 1.8 -3.5 4.9 -1.55 7.55 0.05 11.15 0.05 13.95 0.05 17.35 -0.95 L17.0 0.15 26.7 -0.3 Q27.4 -3.45 27.4 -6.8" fill-rule="evenodd" stroke="none"/>
    </g>
    <g id="font_______W7_d0">
      <path d="M18.35 -8.95 L18.35 -8.95 16.8 -11.9 Q14.75 -9.45 12.45 -9.45 10.9 -9.45 10.0 -10.4 9.1 -11.4 9.1 -12.95 9.1 -14.5 10.7 -15.6 12.15 -16.5 13.7 -16.5 16.6 -16.5 18.8 -14.55 L18.35 -8.95 M24.9 -31.55 L24.9 -31.55 20.15 -32.2 19.15 -19.55 Q16.05 -21.45 12.65 -21.45 8.15 -21.45 4.95 -18.25 1.8 -15.0 1.8 -10.5 1.8 -6.05 4.6 -3.05 7.4 0.05 11.85 0.05 14.65 0.05 17.7 -1.5 L17.6 0.0 27.65 -1.45 24.9 -31.55" fill-rule="evenodd" stroke="none"/>
    </g>
    <g id="shape3" transform="matrix(1.0, 0.0, 0.0, 1.0, 0.0, 0.0)">
      <path d="M339.5 168.45 L335.85 148.35 290.7 79.55 256.55 69.5 239.6 64.5 212.75 21.5 159.5 6.3 126.75 58.05 89.65 74.75 46.6 108.3 43.4 117.05 5.75 184.4 9.45 261.85 21.35 273.7 101.25 273.7 104.1 272.5 101.3 273.75 336.95 273.75 354.15 248.9 339.5 168.45 M339.85 276.35 L19.0 276.35 3.9 268.3 0.0 183.0 46.15 104.6 86.55 69.85 86.85 69.8 87.35 69.55 88.15 69.2 89.05 68.65 90.35 68.2 91.8 67.55 Q107.65 60.65 123.05 52.95 L123.8 52.4 151.95 12.85 160.95 0.0 219.2 16.35 243.25 62.65 294.15 74.7 345.2 142.2 358.1 256.2 339.85 276.35 M169.05 18.35 Q169.5 21.9 167.05 24.4 165.35 26.1 163.05 26.15 161.3 26.15 160.0 25.25 L159.95 23.3 Q161.35 24.1 163.05 24.15 168.55 23.65 169.05 18.35 M164.95 14.55 L166.1 13.35 166.1 15.4 158.1 23.8 158.1 21.65 164.95 14.55 M63.55 101.7 Q64.75 102.7 66.2 102.7 70.0 102.35 70.15 98.5 70.7 100.95 69.45 102.85 68.65 104.1 67.2 104.5 62.15 104.5 62.35 99.45 L62.95 101.0 63.55 101.7 M18.45 183.55 L19.6 182.35 19.6 184.4 11.6 192.8 11.6 190.65 18.45 183.55 M22.55 187.35 Q23.05 190.9 20.55 193.4 18.9 195.1 16.55 195.15 14.8 195.15 13.5 194.25 L13.45 192.3 Q14.85 193.1 16.55 193.15 22.05 192.65 22.55 187.35 M296.05 261.85 Q296.8 267.7 291.3 269.3 289.05 269.85 287.0 268.75 L286.95 266.8 Q288.35 267.6 290.05 267.65 295.55 267.15 296.05 261.85 M291.95 258.05 L293.1 256.85 293.1 258.9 285.1 267.3 285.1 265.15 291.95 258.05" fill="#47525f" fill-rule="evenodd" stroke="none"/>
      <path d="M256.55 69.5 L290.7 79.55 335.85 148.35 339.5 168.45 104.1 272.5 101.25 273.7 21.35 273.7 9.45 261.85 5.75 184.4 43.4 117.05 256.55 69.5 M166.9 16.05 L167.9 14.95 Q168.4 17.75 166.9 20.25 L165.7 21.55 Q163.3 23.5 159.95 23.3 L166.9 16.05 M18.45 183.55 L19.55 182.35 19.2 182.1 Q17.85 181.4 16.4 181.4 11.1 182.15 10.4 187.4 L10.4 189.75 Q10.2 190.5 11.6 192.8 L13.5 194.25 Q14.8 195.15 16.55 195.15 18.9 195.1 20.55 193.4 23.05 190.9 22.55 187.35 22.65 185.9 21.9 184.7 L21.4 183.95 Q22.0 187.75 19.25 190.65 L17.95 191.5 Q15.8 192.35 13.45 192.3 L20.4 185.05 19.6 184.4 19.6 182.35 18.45 183.55 M293.9 259.55 L294.9 258.45 Q295.45 263.0 292.05 265.55 291.45 266.05 290.65 266.25 L286.95 266.8 293.9 259.55" fill="#bab9ba" fill-rule="evenodd" stroke="none"/>
      <path d="M339.5 168.45 L354.15 248.9 336.95 273.75 101.3 273.75 104.1 272.5 339.5 168.45 M43.4 117.05 L46.6 108.3 89.65 74.75 126.75 58.05 159.5 6.3 212.75 21.5 239.6 64.5 256.55 69.5 43.4 117.05 M169.05 18.35 L169.05 18.1 Q169.0 16.3 167.9 14.95 L166.9 16.05 166.1 15.4 166.1 13.35 164.95 14.55 166.05 13.35 165.7 13.1 Q164.45 12.45 162.9 12.4 157.7 13.2 156.9 18.4 L156.9 20.75 Q156.7 21.5 158.1 23.8 L160.0 25.25 Q161.3 26.15 163.05 26.15 165.35 26.1 167.05 24.4 169.5 21.9 169.05 18.35 M70.15 98.5 Q70.05 97.45 69.35 96.6 L68.1 95.55 67.25 95.25 Q62.6 94.85 62.35 99.45 62.15 104.5 67.2 104.5 68.65 104.1 69.45 102.85 70.7 100.95 70.15 98.5 M294.9 258.45 L293.9 259.55 293.1 258.9 293.1 256.85 291.95 258.05 293.05 256.85 292.7 256.6 Q289.45 255.15 286.65 257.2 284.15 258.9 283.9 261.9 L283.9 264.25 Q283.7 265.0 285.1 267.3 L287.0 268.75 Q289.05 269.85 291.3 269.3 296.8 267.7 296.05 261.85 L296.05 261.6 Q296.0 259.8 294.9 258.45" fill="#9c9c9c" fill-rule="evenodd" stroke="none"/>
      <path d="M156.9 18.4 Q157.7 13.2 162.9 12.4 164.45 12.45 165.7 13.1 161.3 14.5 158.55 18.6 157.85 19.6 157.75 21.15 157.0 19.85 156.9 18.4 M68.1 95.55 Q65.95 95.55 64.45 97.15 62.95 98.75 62.95 101.0 L62.35 99.45 Q62.6 94.85 67.25 95.25 L68.1 95.55 M10.4 187.4 Q11.1 182.15 16.4 181.4 17.85 181.4 19.2 182.1 14.7 183.55 12.1 187.6 11.35 188.75 11.25 190.15 10.5 188.85 10.4 187.4" fill="#e9e9eb" fill-rule="evenodd" stroke="none"/>
      <path d="M165.7 13.1 L166.05 13.35 164.95 14.55 158.1 21.65 157.75 21.15 Q157.85 19.6 158.55 18.6 161.3 14.5 165.7 13.1 M69.35 96.6 L69.05 98.5 Q67.65 102.1 63.55 101.7 L62.95 101.0 Q62.95 98.75 64.45 97.15 65.95 95.55 68.1 95.55 L69.35 96.6 M19.2 182.1 L19.55 182.35 18.45 183.55 11.6 190.65 11.25 190.15 Q11.35 188.75 12.1 187.6 14.7 183.55 19.2 182.1 M283.9 261.9 Q284.15 258.9 286.65 257.2 289.45 255.15 292.7 256.6 L293.05 256.85 291.95 258.05 285.1 265.15 284.75 264.65 Q284.0 263.35 283.9 261.9" fill="#d0cfd0" fill-rule="evenodd" stroke="none"/>
      <path d="M167.9 14.95 Q169.0 16.3 169.05 18.1 L169.05 18.35 Q168.55 23.65 163.05 24.15 161.35 24.1 159.95 23.3 163.3 23.5 165.7 21.55 L166.9 20.25 Q168.4 17.75 167.9 14.95 M63.55 101.7 Q67.65 102.1 69.05 98.5 L69.35 96.6 Q70.05 97.45 70.15 98.5 70.0 102.35 66.2 102.7 64.75 102.7 63.55 101.7 M13.45 192.3 Q15.8 192.35 17.95 191.5 L19.25 190.65 Q22.0 187.75 21.4 183.95 L21.9 184.7 Q22.65 185.9 22.55 187.35 22.05 192.65 16.55 193.15 14.85 193.1 13.45 192.3 M294.9 258.45 Q296.0 259.8 296.05 261.6 L296.05 261.85 Q295.55 267.15 290.05 267.65 288.35 267.6 286.95 266.8 L290.65 266.25 Q291.45 266.05 292.05 265.55 295.45 263.0 294.9 258.45" fill="#b0aeb3" fill-rule="evenodd" stroke="none"/>
      <path d="M160.0 25.25 L158.1 23.8 166.1 15.4 166.9 16.05 159.95 23.3 160.0 25.25 M19.6 184.4 L20.4 185.05 13.45 192.3 13.5 194.25 11.6 192.8 19.6 184.4 M287.0 268.75 L285.1 267.3 293.1 258.9 293.9 259.55 286.95 266.8 287.0 268.75" fill="#57565b" fill-rule="evenodd" stroke="none"/>
      <path d="M158.1 23.8 Q156.7 21.5 156.9 20.75 L156.9 18.4 Q157.0 19.85 157.75 21.15 L158.1 21.65 158.1 23.8 M11.6 192.8 Q10.2 190.5 10.4 189.75 L10.4 187.4 Q10.5 188.85 11.25 190.15 L11.6 190.65 11.6 192.8 M285.1 267.3 Q283.7 265.0 283.9 264.25 L283.9 261.9 Q284.0 263.35 284.75 264.65 L285.1 265.15 285.1 267.3" fill="#79818b" fill-rule="evenodd" stroke="none"/>
    </g>
    <g id="shape4" transform="matrix(1.0, 0.0, 0.0, 1.0, 0.0, 0.0)">
      <path d="M46.0 225.95 L47.35 238.65 41.65 243.45 42.4 244.3 42.8 245.0 Q43.45 246.2 43.15 247.45 L32.45 256.35 32.0 256.4 31.55 256.15 1.4 236.05 1.5 235.5 Q3.55 229.3 6.4 223.25 L0.8 222.55 0.0 221.1 2.2 176.3 2.3 175.8 23.15 123.0 23.4 122.6 72.2 65.4 109.95 52.55 111.25 51.2 128.6 23.9 155.25 0.0 176.0 1.25 201.85 21.75 202.3 22.3 214.85 50.1 261.9 64.0 262.5 64.4 293.55 95.0 293.85 95.35 317.35 138.8 317.5 139.25 330.35 213.35 330.1 214.55 329.8 214.85 318.2 216.3 330.8 230.05 330.6 230.95 311.4 254.0 310.0 254.1 281.9 243.0 281.65 242.55 Q281.4 241.85 281.55 241.2 L283.65 234.6 280.95 230.6 289.75 219.5 277.2 220.9 Q273.95 215.25 272.5 208.75 L270.7 201.8 267.7 191.5 266.65 188.0 268.7 204.8 267.3 252.75 267.1 253.6 265.85 254.2 162.1 255.2 59.6 254.75 58.85 254.55 58.1 253.2 60.15 189.05 61.4 186.2 Q61.7 185.25 61.15 184.55 L60.3 184.55 63.9 145.55 79.45 83.7 Q79.65 82.75 80.7 82.6 L81.3 82.6 81.8 82.95 82.1 83.3 82.35 84.45 66.9 145.9 63.35 183.5 61.15 251.75 160.65 252.2 162.35 139.5 Q162.4 138.8 163.0 138.3 L165.6 136.4 111.55 98.15 Q110.95 97.75 110.95 96.9 L111.05 96.45 111.25 96.0 111.6 95.65 120.1 90.3 96.25 87.15 95.85 86.75 95.55 86.35 95.4 85.85 94.9 60.5 74.25 67.65 25.85 124.35 5.2 176.7 3.1 219.8 43.55 224.4 44.15 226.05 44.05 226.5 44.75 227.05 45.1 226.3 46.0 225.95 M291.3 96.95 L260.7 66.8 230.1 57.75 228.95 82.3 215.95 87.4 226.2 92.9 226.0 95.0 165.35 140.3 163.65 252.2 264.35 251.25 265.7 204.9 262.8 181.4 255.55 129.6 238.75 73.4 238.85 72.25 239.75 71.55 240.35 71.6 240.85 71.75 241.3 72.1 241.6 72.55 258.5 129.1 265.75 180.95 267.9 184.3 278.8 217.7 327.1 212.3 314.6 140.05 291.3 96.95 M186.6 23.6 L186.35 23.05 182.1 23.15 175.3 27.5 Q178.5 26.65 181.75 27.65 182.65 27.9 182.9 29.0 L182.5 30.0 182.1 30.15 Q176.0 27.95 170.45 31.65 184.5 32.8 195.55 41.4 199.75 44.65 199.8 50.0 L199.2 50.65 198.0 50.0 Q188.0 43.0 176.85 38.35 168.6 34.95 161.95 36.75 155.3 38.5 148.4 42.05 141.45 45.55 131.7 53.95 L130.7 53.2 Q136.35 42.0 148.2 37.55 152.55 35.95 157.0 35.45 L163.55 34.5 Q166.8 34.0 169.95 34.55 185.55 37.85 197.6 48.0 195.1 41.7 188.4 38.95 L182.05 36.5 Q175.95 34.1 169.7 33.35 L169.4 32.6 168.5 32.9 167.7 32.2 Q173.6 24.7 182.55 21.8 L185.2 21.9 Q186.65 22.4 187.65 23.45 L187.1 23.9 186.6 23.6 M179.55 7.9 L174.5 3.9 156.8 2.65 152.35 6.6 131.0 25.7 114.8 51.25 151.0 62.25 151.95 63.15 176.8 63.9 176.65 62.65 176.75 62.15 177.1 61.65 177.5 61.35 210.7 48.25 199.65 23.85 179.55 7.9 M162.7 22.9 L163.8 22.7 164.4 23.6 164.35 31.75 163.4 32.35 162.5 31.75 162.7 22.9 M177.45 66.85 L174.5 67.05 151.35 66.1 148.05 76.2 159.05 86.05 172.4 84.45 179.3 75.4 177.45 66.85 M183.7 81.55 L195.5 80.65 211.75 51.55 211.4 51.2 179.8 63.7 183.7 81.55 M180.1 79.25 L175.0 85.95 184.05 101.3 193.75 83.8 182.1 84.65 181.05 83.5 180.1 79.25 M211.65 88.4 L211.2 88.1 Q210.4 87.1 211.3 86.1 L211.75 85.75 226.3 80.35 227.15 56.85 214.3 53.05 169.55 133.45 222.3 94.05 211.65 88.4 M167.25 131.45 L182.35 104.35 172.4 87.5 159.45 89.05 148.9 106.1 167.25 131.45 M144.05 23.9 L143.65 23.25 143.8 22.5 Q145.25 22.1 146.65 22.5 155.6 25.65 161.65 33.0 L160.85 33.9 Q156.4 30.1 150.45 30.3 L150.1 29.25 Q151.8 27.75 153.95 28.35 L153.05 27.55 Q149.25 24.1 144.05 23.9 M113.05 53.85 L112.1 55.2 142.6 83.25 148.65 64.65 113.05 53.85 M137.95 46.4 L136.65 47.75 154.5 37.25 Q143.55 40.95 137.95 46.4 M97.9 59.5 L98.4 84.5 124.6 87.9 125.8 88.75 125.65 90.15 115.1 97.0 163.25 131.05 108.9 55.9 97.9 59.5 M156.6 87.9 L147.0 79.3 144.5 86.1 Q144.25 86.65 143.65 86.85 L142.8 86.7 120.45 66.55 147.0 103.45 156.6 87.9 M291.5 228.15 L291.4 227.6 Q291.45 227.3 291.65 227.05 L293.45 227.0 Q295.25 230.3 296.4 233.95 296.9 235.65 295.0 235.9 294.45 235.6 294.2 235.2 293.35 233.7 292.75 232.1 L290.5 234.6 289.9 234.95 289.6 235.2 286.8 234.8 284.4 240.75 310.1 250.9 327.45 230.1 314.4 216.75 293.75 219.05 284.2 230.6 285.1 231.7 288.8 232.05 291.65 228.75 291.5 228.15 M44.25 237.75 L43.25 227.4 9.55 223.6 4.35 234.45 32.25 253.05 40.0 246.45 31.15 237.55 Q30.6 236.85 30.8 236.0 L31.05 235.4 32.45 235.35 Q36.2 238.05 39.7 241.15 L44.25 237.75" fill="#1a1a1a" fill-rule="evenodd" stroke="none"/>
      <path d="M43.55 224.4 L3.1 219.8 5.2 176.7 25.85 124.35 74.25 67.65 94.9 60.5 95.4 85.85 95.55 86.35 95.85 86.75 96.25 87.15 120.1 90.3 111.6 95.65 111.25 96.0 111.05 96.45 110.95 96.9 Q110.95 97.75 111.55 98.15 L165.6 136.4 163.0 138.3 Q162.4 138.8 162.35 139.5 L160.65 252.2 61.15 251.75 63.35 183.5 66.9 145.9 82.35 84.45 82.1 83.3 81.8 82.95 81.3 82.6 80.7 82.6 Q79.65 82.75 79.45 83.7 L63.9 145.55 60.3 184.55 Q54.1 192.3 49.9 201.2 L49.65 201.95 43.55 224.4 M291.3 96.95 L314.6 140.05 327.1 212.3 278.8 217.7 267.9 184.3 265.75 180.95 258.5 129.1 241.6 72.55 241.3 72.1 240.85 71.75 240.35 71.6 239.75 71.55 238.85 72.25 238.75 73.4 255.55 129.6 262.8 181.4 265.7 204.9 264.35 251.25 163.65 252.2 165.35 140.3 226.0 95.0 226.2 92.9 215.95 87.4 228.95 82.3 230.1 57.75 260.7 66.8 291.3 96.95 M211.65 88.4 L222.3 94.05 169.55 133.45 214.3 53.05 227.15 56.85 226.3 80.35 211.75 85.75 211.3 86.1 Q210.4 87.1 211.2 88.1 L211.65 88.4 M97.9 59.5 L108.9 55.9 163.25 131.05 115.1 97.0 125.65 90.15 125.8 88.75 124.6 87.9 98.4 84.5 97.9 59.5" fill="#106557" fill-rule="evenodd" stroke="none"/>
      <path d="M180.1 79.25 L181.05 83.5 182.1 84.65 193.75 83.8 184.05 101.3 175.0 85.95 180.1 79.25 M183.7 81.55 L179.8 63.7 211.4 51.2 211.75 51.55 195.5 80.65 183.7 81.55 M137.95 46.4 Q143.55 40.95 154.5 37.25 L136.65 47.75 137.95 46.4 M113.05 53.85 L148.65 64.65 142.6 83.25 112.1 55.2 113.05 53.85 M156.6 87.9 L147.0 103.45 120.45 66.55 142.8 86.7 143.65 86.85 Q144.25 86.65 144.5 86.1 L147.0 79.3 156.6 87.9 M44.25 237.75 L39.7 241.15 Q36.2 238.05 32.45 235.35 L31.05 235.4 30.8 236.0 Q30.6 236.85 31.15 237.55 L40.0 246.45 32.25 253.05 4.35 234.45 9.55 223.6 43.25 227.4 44.25 237.75 M291.5 228.15 L291.65 228.75 288.8 232.05 285.1 231.7 284.2 230.6 293.75 219.05 314.4 216.75 327.45 230.1 310.1 250.9 284.4 240.75 286.8 234.8 289.6 235.2 289.9 234.95 290.5 234.6 292.75 232.1 Q293.35 233.7 294.2 235.2 294.45 235.6 295.0 235.9 296.9 235.65 296.4 233.95 295.25 230.3 293.45 227.0 L291.65 227.05 Q291.45 227.3 291.4 227.6 L291.5 228.15" fill="#c1d9cb" fill-rule="evenodd" stroke="none"/>
      <path d="M152.35 6.6 L156.8 2.65 174.5 3.9 179.55 7.9 152.35 6.6 M177.45 66.85 L179.3 75.4 172.4 84.45 159.05 86.05 148.05 76.2 151.35 66.1 174.5 67.05 177.45 66.85 M167.25 131.45 L148.9 106.1 159.45 89.05 172.4 87.5 182.35 104.35 167.25 131.45" fill="#0e4239" fill-rule="evenodd" stroke="none"/>
      <path d="M46.0 225.95 L45.1 226.3 44.75 227.05 44.05 226.5 44.15 226.05 43.55 224.4 49.65 201.95 49.9 201.2 Q54.1 192.3 60.3 184.55 L61.15 184.55 Q61.7 185.25 61.4 186.2 L60.15 189.05 52.9 200.65 53.05 201.1 46.0 225.95" fill="#000000" fill-rule="evenodd" stroke="none"/>
      <path d="M186.6 23.6 L187.1 23.9 187.65 23.45 Q186.65 22.4 185.2 21.9 L182.55 21.8 Q173.6 24.7 167.7 32.2 L168.5 32.9 169.4 32.6 169.7 33.35 Q175.95 34.1 182.05 36.5 L188.4 38.95 Q195.1 41.7 197.6 48.0 185.55 37.85 169.95 34.55 166.8 34.0 163.55 34.5 L157.0 35.45 Q152.55 35.95 148.2 37.55 136.35 42.0 130.7 53.2 L131.7 53.95 Q141.45 45.55 148.4 42.05 155.3 38.5 161.95 36.75 168.6 34.95 176.85 38.35 188.0 43.0 198.0 50.0 L199.2 50.65 199.8 50.0 Q199.75 44.65 195.55 41.4 184.5 32.8 170.45 31.65 176.0 27.95 182.1 30.15 L182.5 30.0 182.9 29.0 Q182.65 27.9 181.75 27.65 178.5 26.65 175.3 27.5 L182.1 23.15 186.35 23.05 186.6 23.6 M152.35 6.6 L179.55 7.9 199.65 23.85 210.7 48.25 177.5 61.35 177.1 61.65 176.75 62.15 176.65 62.65 176.8 63.9 151.95 63.15 151.0 62.25 114.8 51.25 131.0 25.7 152.35 6.6 M162.7 22.9 L162.5 31.75 163.4 32.35 164.35 31.75 164.4 23.6 163.8 22.7 162.7 22.9 M144.05 23.9 Q149.25 24.1 153.05 27.55 L153.95 28.35 Q151.8 27.75 150.1 29.25 L150.45 30.3 Q156.4 30.1 160.85 33.9 L161.65 33.0 Q155.6 25.65 146.65 22.5 145.25 22.1 143.8 22.5 L143.65 23.25 144.05 23.9" fill="#edf3ef" fill-rule="evenodd" stroke="none"/>
    </g>
    <g id="shape5" transform="matrix(1.0, 0.0, 0.0, 1.0, -0.25, -0.1)">
      <path d="M41.5 9.2 Q42.4 9.55 43.15 9.95 46.05 11.85 46.9 14.2 L47.35 15.85 47.65 17.9 47.25 18.65 44.0 19.2 38.3 19.95 37.2 18.3 37.9 23.9 45.75 25.9 Q47.7 26.7 49.5 27.85 L51.3 29.45 51.9 30.15 53.05 32.2 Q53.9 34.55 53.45 37.4 53.05 39.65 51.8 42.25 50.75 44.2 48.5 45.95 L41.3 49.9 41.5 51.65 41.65 52.55 41.55 54.25 40.85 54.55 36.85 54.55 33.35 54.55 32.45 54.35 32.1 53.1 32.0 51.75 29.9 51.65 29.95 52.0 30.05 53.35 30.25 54.95 30.05 55.55 29.7 55.8 21.15 55.75 20.85 54.7 20.85 53.9 20.8 52.15 20.8 50.7 Q14.65 48.7 10.65 43.65 L7.9 38.1 7.55 35.2 8.6 34.85 10.8 34.65 18.35 34.25 20.5 38.15 19.95 29.25 Q14.15 29.25 10.1 25.5 8.95 24.2 8.45 22.85 7.9 20.7 8.2 18.6 8.55 16.85 9.35 15.4 10.25 14.05 11.4 12.85 L14.5 10.85 17.6 9.4 17.5 8.85 17.35 8.15 17.1 6.75 17.15 4.7 17.75 4.4 24.8 4.3 25.3 5.6 25.4 6.25 25.5 7.1 27.25 6.95 27.1 6.05 27.05 5.4 26.95 4.05 31.85 2.35 33.7 2.05 35.15 2.35 35.4 3.05 35.6 5.0 35.8 6.45 35.85 7.15 35.9 7.6 38.4 8.15 Q40.1 8.6 41.5 9.2 M45.7 17.05 Q45.55 13.85 43.0 11.9 39.95 9.6 36.1 8.95 L36.85 15.25 Q38.5 16.2 39.2 17.9 L45.7 17.05 M50.5 31.85 Q50.15 30.75 49.3 29.9 44.5 25.35 38.05 25.6 L38.65 30.05 39.6 30.55 Q42.85 32.45 41.55 36.3 L39.75 38.5 41.0 47.75 45.35 45.65 Q47.2 44.6 48.4 43.0 52.3 37.95 50.5 31.85 M27.4 8.2 L25.7 8.35 26.75 14.8 28.3 14.65 27.4 8.2 M28.4 15.6 L26.8 15.75 27.6 23.3 29.5 23.7 28.4 15.6 M25.75 23.5 L23.6 5.85 19.25 5.95 20.8 20.4 21.2 26.55 Q22.1 40.45 22.3 54.4 L28.25 54.0 25.75 23.5 M33.65 3.4 L28.7 4.7 Q30.45 15.1 31.3 25.55 L32.1 34.2 33.65 52.85 39.75 52.65 33.65 3.4 M10.9 18.95 L10.85 19.95 Q10.85 20.9 11.15 21.85 13.15 27.7 19.8 27.9 L19.5 24.35 Q17.9 24.05 17.15 22.75 14.95 18.95 18.75 16.85 L17.85 10.85 Q14.85 12.2 12.8 14.55 11.15 16.4 10.9 18.95 M18.25 20.55 Q18.5 21.5 19.1 22.15 L18.9 18.45 Q17.95 19.3 18.25 20.55 M17.1 36.0 L9.45 36.65 9.8 37.65 Q13.15 45.05 20.75 48.3 L20.55 39.4 Q18.1 38.3 17.1 36.0 M38.85 31.85 L39.5 36.6 Q40.7 34.95 39.5 32.5 L38.85 31.85 M27.8 25.4 L28.1 28.4 30.2 28.6 29.75 25.5 27.8 25.4 M30.35 29.8 L28.2 29.6 29.05 39.75 31.25 39.65 30.35 29.8 M31.35 40.85 L29.15 40.95 29.75 49.8 31.9 49.75 31.35 40.85" fill="#005d51" fill-rule="evenodd" stroke="none"/>
      <path d="M46.9 14.2 Q46.05 11.85 43.15 9.95 42.4 9.55 41.5 9.2 38.85 7.4 35.8 6.45 L35.6 5.0 Q41.65 6.85 46.0 11.25 54.5 20.05 53.05 32.2 L51.9 30.15 51.95 28.7 Q51.75 20.2 46.9 14.2 M35.15 2.35 L33.7 2.05 Q21.3 -0.05 11.55 7.85 2.85 14.9 1.65 25.95 0.9 32.85 3.65 39.2 8.8 50.9 20.85 54.7 L21.15 55.75 29.7 55.8 Q33.45 55.6 36.85 54.55 L40.85 54.55 Q35.35 57.15 28.6 57.3 16.45 56.95 8.4 48.9 4.75 45.25 2.7 40.85 1.25 37.7 0.65 34.15 -0.1 29.5 0.5 24.9 1.2 19.5 3.95 14.75 6.75 10.0 10.95 6.65 14.95 3.5 19.8 1.7 24.05 0.1 28.6 0.1 40.7 0.4 48.8 8.5 56.9 16.55 57.2 28.7 56.85 40.8 48.8 48.9 45.5 52.2 41.55 54.25 L41.65 52.55 Q44.95 50.7 47.8 47.9 55.45 40.2 55.75 28.7 55.45 17.15 47.8 9.5 42.45 4.1 35.15 2.35 M26.95 4.05 L27.05 5.4 25.3 5.6 24.8 4.3 26.95 4.05 M17.1 6.75 L17.35 8.15 11.4 12.85 Q10.25 14.05 9.35 15.4 5.4 21.05 5.2 28.7 5.4 37.45 10.65 43.65 14.65 48.7 20.8 50.7 L20.8 52.15 Q15.35 50.4 11.1 46.15 4.1 39.15 3.85 28.7 4.1 18.2 11.1 11.2 13.8 8.45 17.1 6.75 M30.05 53.35 L29.95 52.0 32.0 51.75 32.1 53.1 30.05 53.35" fill="#006868" fill-rule="evenodd" stroke="none"/>
      <path d="M40.65 12.0 L42.45 12.1 43.6 13.4 Q44.15 15.45 42.2 16.35 41.3 16.6 40.6 16.35 L40.45 16.3 40.4 16.25 Q39.7 15.85 39.25 14.95 38.7 12.9 40.65 12.0 M41.6 15.7 L41.95 15.6 Q43.65 14.75 42.45 13.1 L41.6 15.7 M41.65 12.75 L40.95 12.8 Q39.7 13.35 40.05 14.7 L40.45 15.3 41.65 12.75 M46.05 37.3 Q48.15 37.85 48.0 39.95 47.45 42.05 45.3 41.9 44.3 41.65 43.85 41.05 L43.8 41.0 43.75 40.9 Q43.3 40.25 43.4 39.2 43.95 37.1 46.05 37.3 M44.8 40.8 L45.45 41.05 Q47.4 41.15 47.1 39.15 L44.8 40.8 M46.65 38.45 L45.95 38.1 Q44.6 38.0 44.2 39.35 L44.3 40.15 46.65 38.45 M13.5 18.1 L12.75 18.1 14.15 20.6 14.5 19.95 Q14.75 18.6 13.5 18.1 M10.85 19.95 L10.9 18.95 Q11.55 17.0 13.6 17.25 15.35 17.7 15.4 19.55 15.45 21.1 14.0 21.75 L12.3 21.65 Q11.15 21.15 10.85 19.95 M12.65 20.95 L13.35 21.0 12.0 18.55 11.65 19.1 Q11.4 20.45 12.65 20.95 M17.55 42.65 L17.85 42.0 15.0 42.3 15.45 42.9 Q16.6 43.65 17.55 42.65 M17.3 40.6 Q16.2 39.8 15.2 40.8 L14.9 41.45 17.75 41.15 17.3 40.6 M18.75 41.5 L18.5 42.45 Q17.95 44.1 16.25 44.15 L15.8 44.0 Q13.3 42.75 14.55 40.25 L15.4 39.85 Q17.95 38.9 18.75 41.5" fill="#0f6f61" fill-rule="evenodd" stroke="none"/>
      <path d="M40.65 12.0 Q38.7 12.9 39.25 14.95 39.7 15.85 40.4 16.25 L40.45 16.3 40.6 16.35 Q41.3 16.6 42.2 16.35 44.15 15.45 43.6 13.4 L42.45 12.1 40.65 12.0 M45.7 17.05 L39.2 17.9 Q38.5 16.2 36.85 15.25 L36.1 8.95 Q39.95 9.6 43.0 11.9 45.55 13.85 45.7 17.05 M50.5 31.85 Q52.3 37.95 48.4 43.0 47.2 44.6 45.35 45.65 L41.0 47.75 39.75 38.5 41.55 36.3 Q42.85 32.45 39.6 30.55 L38.65 30.05 38.05 25.6 Q44.5 25.35 49.3 29.9 50.15 30.75 50.5 31.85 M46.05 37.3 Q43.95 37.1 43.4 39.2 43.3 40.25 43.75 40.9 L43.8 41.0 43.85 41.05 Q44.3 41.65 45.3 41.9 47.45 42.05 48.0 39.95 48.15 37.85 46.05 37.3 M32.9 7.7 L31.15 6.85 Q30.6 9.15 30.85 11.4 L31.8 18.75 Q33.9 33.8 34.4 48.9 34.45 50.1 35.5 51.1 L37.15 50.9 Q37.65 50.05 37.55 48.95 L36.95 43.5 36.1 33.95 Q35.3 20.6 32.9 7.7 M27.4 8.2 L28.3 14.65 26.75 14.8 25.7 8.35 27.4 8.2 M24.25 24.5 Q24.2 18.9 23.7 13.7 23.2 8.5 22.1 8.2 20.85 8.6 21.15 13.7 21.45 18.8 22.2 24.2 L23.1 31.05 Q23.5 40.1 23.8 43.3 23.3 47.7 24.9 51.6 26.25 50.8 26.15 48.65 L25.8 45.15 Q24.55 38.45 24.3 31.65 L24.25 24.5 M33.65 3.4 L39.75 52.65 33.65 52.85 32.1 34.2 31.3 25.55 Q30.45 15.1 28.7 4.7 L33.65 3.4 M25.75 23.5 L28.25 54.0 22.3 54.4 Q22.1 40.45 21.2 26.55 L20.8 20.4 19.25 5.95 23.6 5.85 25.75 23.5 M10.85 19.95 Q11.15 21.15 12.3 21.65 L14.0 21.75 Q15.45 21.1 15.4 19.55 15.35 17.7 13.6 17.25 11.55 17.0 10.9 18.95 11.15 16.4 12.8 14.55 14.85 12.2 17.85 10.85 L18.75 16.85 Q14.95 18.95 17.15 22.75 17.9 24.05 19.5 24.35 L19.8 27.9 Q13.15 27.7 11.15 21.85 10.85 20.9 10.85 19.95 M18.75 41.5 Q17.95 38.9 15.4 39.85 L14.55 40.25 Q13.3 42.75 15.8 44.0 L16.25 44.15 Q17.95 44.1 18.5 42.45 L18.75 41.5 M17.1 36.0 Q18.1 38.3 20.55 39.4 L20.75 48.3 Q13.15 45.05 9.8 37.65 L9.45 36.65 17.1 36.0 M27.8 25.4 L29.75 25.5 30.2 28.6 28.1 28.4 27.8 25.4 M31.35 40.85 L31.9 49.75 29.75 49.8 29.15 40.95 31.35 40.85" fill="#85ab93" fill-rule="evenodd" stroke="none"/>
      <path d="M38.4 8.15 L35.9 7.6 35.85 7.15 38.4 8.15 M27.1 6.05 L27.25 6.95 25.5 7.1 25.4 6.25 27.1 6.05 M17.5 8.85 L17.6 9.4 14.5 10.85 Q15.9 9.7 17.5 8.85 M8.2 18.6 Q7.9 20.7 8.45 22.85 7.45 26.0 7.7 29.6 7.85 32.35 8.6 34.85 L7.55 35.2 7.9 38.1 Q6.0 33.85 5.85 28.7 6.0 23.1 8.2 18.6 M51.3 29.45 L49.5 27.85 Q49.25 23.0 47.25 18.65 L47.65 17.9 47.35 15.85 Q51.15 21.35 51.3 28.7 L51.3 29.45" fill="#85b599" fill-rule="evenodd" stroke="none"/>
      <path d="M41.5 9.2 Q40.1 8.6 38.4 8.15 L35.85 7.15 35.8 6.45 Q38.85 7.4 41.5 9.2 M35.4 3.05 L35.15 2.35 Q42.45 4.1 47.8 9.5 55.45 17.15 55.75 28.7 55.45 40.2 47.8 47.9 44.95 50.7 41.65 52.55 L41.5 51.65 Q44.6 49.9 47.2 47.3 L48.5 45.95 Q50.75 44.2 51.8 42.25 53.05 39.65 53.45 37.4 54.8 33.35 54.95 28.6 54.65 17.35 47.2 9.9 42.15 4.85 35.4 3.05 M33.7 2.05 L31.85 2.35 28.5 2.1 Q22.6 2.25 17.75 4.4 L17.15 4.7 Q6.8 9.85 3.35 20.8 0.5 29.95 4.3 38.8 9.25 50.2 20.85 53.9 L20.85 54.7 Q8.8 50.9 3.65 39.2 0.9 32.85 1.65 25.95 2.85 14.9 11.55 7.85 21.3 -0.05 33.7 2.05 M27.05 5.4 L27.1 6.05 25.4 6.25 25.3 5.6 27.05 5.4 M17.35 8.15 L17.5 8.85 Q15.9 9.7 14.5 10.85 L11.4 12.85 17.35 8.15 M9.35 15.4 Q8.55 16.85 8.2 18.6 6.0 23.1 5.85 28.7 6.0 33.85 7.9 38.1 L10.65 43.65 Q5.4 37.45 5.2 28.7 5.4 21.05 9.35 15.4 M29.7 55.8 L30.05 55.55 30.25 54.95 33.35 54.55 36.85 54.55 Q33.45 55.6 29.7 55.8 M29.95 52.0 L29.9 51.65 32.0 51.75 29.95 52.0 M51.9 30.15 L51.3 29.45 51.3 28.7 Q51.15 21.35 47.35 15.85 L46.9 14.2 Q51.75 20.2 51.95 28.7 L51.9 30.15" fill="#085854" fill-rule="evenodd" stroke="none"/>
      <path d="M41.65 12.75 L40.45 15.3 40.05 14.7 Q39.7 13.35 40.95 12.8 L41.65 12.75 M41.6 15.7 L42.45 13.1 Q43.65 14.75 41.95 15.6 L41.6 15.7 M46.65 38.45 L44.3 40.15 44.2 39.35 Q44.6 38.0 45.95 38.1 L46.65 38.45 M44.8 40.8 L47.1 39.15 Q47.4 41.15 45.45 41.05 L44.8 40.8 M13.5 18.1 Q14.75 18.6 14.5 19.95 L14.15 20.6 12.75 18.1 13.5 18.1 M12.65 20.95 Q11.4 20.45 11.65 19.1 L12.0 18.55 13.35 21.0 12.65 20.95 M17.3 40.6 L17.75 41.15 14.9 41.45 15.2 40.8 Q16.2 39.8 17.3 40.6 M17.55 42.65 Q16.6 43.65 15.45 42.9 L15.0 42.3 17.85 42.0 17.55 42.65" fill="#a0beac" fill-rule="evenodd" stroke="none"/>
      <path d="M35.6 5.0 L35.4 3.05 Q42.15 4.85 47.2 9.9 54.65 17.35 54.95 28.6 54.8 33.35 53.45 37.4 53.9 34.55 53.05 32.2 54.5 20.05 46.0 11.25 41.65 6.85 35.6 5.0 M31.85 2.35 L26.95 4.05 24.8 4.3 17.75 4.4 Q22.6 2.25 28.5 2.1 L31.85 2.35 M17.15 4.7 L17.1 6.75 Q13.8 8.45 11.1 11.2 4.1 18.2 3.85 28.7 4.1 39.15 11.1 46.15 15.35 50.4 20.8 52.15 L20.85 53.9 Q9.25 50.2 4.3 38.8 0.5 29.95 3.35 20.8 6.8 9.85 17.15 4.7 M8.45 22.85 Q8.95 24.2 10.1 25.5 8.85 29.75 10.65 34.3 L10.8 34.65 8.6 34.85 Q7.85 32.35 7.7 29.6 7.45 26.0 8.45 22.85 M30.25 54.95 L30.05 53.35 32.1 53.1 32.45 54.35 33.35 54.55 30.25 54.95 M41.5 51.65 L41.3 49.9 48.5 45.95 47.2 47.3 Q44.6 49.9 41.5 51.65 M49.5 27.85 Q47.7 26.7 45.75 25.9 45.45 22.35 44.0 19.2 L47.25 18.65 Q49.25 23.0 49.5 27.85" fill="#98bea8" fill-rule="evenodd" stroke="none"/>
      <path d="M10.1 25.5 Q14.15 29.25 19.95 29.25 L20.5 38.15 18.35 34.25 10.8 34.65 10.65 34.3 Q8.85 29.75 10.1 25.5 M45.75 25.9 L37.9 23.9 37.2 18.3 38.3 19.95 44.0 19.2 Q45.45 22.35 45.75 25.9 M28.4 15.6 L29.5 23.7 27.6 23.3 26.8 15.75 28.4 15.6 M18.25 20.55 Q17.95 19.3 18.9 18.45 L19.1 22.15 Q18.5 21.5 18.25 20.55 M38.85 31.85 L39.5 32.5 Q40.7 34.95 39.5 36.6 L38.85 31.85 M30.35 29.8 L31.25 39.65 29.05 39.75 28.2 29.6 30.35 29.8" fill="#c1d9cb" fill-rule="evenodd" stroke="none"/>
      <path d="M32.9 7.7 Q35.3 20.6 36.1 33.95 L36.95 43.5 37.55 48.95 Q37.65 50.05 37.15 50.9 L35.5 51.1 Q34.45 50.1 34.4 48.9 33.9 33.8 31.8 18.75 L30.85 11.4 Q30.6 9.15 31.15 6.85 L32.9 7.7 M24.25 24.5 L24.3 31.65 Q24.55 38.45 25.8 45.15 L26.15 48.65 Q26.25 50.8 24.9 51.6 23.3 47.7 23.8 43.3 23.5 40.1 23.1 31.05 L22.2 24.2 Q21.45 18.8 21.15 13.7 20.85 8.6 22.1 8.2 23.2 8.5 23.7 13.7 24.2 18.9 24.25 24.5" fill="#689878" fill-rule="evenodd" stroke="none"/>
    </g>
  </defs>
</svg>
