<?xml version="1.0" encoding="UTF-8" standalone="no"?>
<svg xmlns:xlink="http://www.w3.org/1999/xlink" height="436.75px" width="359.4px" xmlns="http://www.w3.org/2000/svg">
  <g transform="matrix(1.0, 0.0, 0.0, 1.0, 179.75, 436.75)">
    <use height="36.0" transform="matrix(1.0, 0.0, 0.0, 1.0, -79.55, -36.0)" width="159.0" xlink:href="#shape0"/>
    <use height="96.65" transform="matrix(1.0, 0.0, 0.0, 1.0, -27.15, -108.0)" width="54.2" xlink:href="#shape1"/>
    <use height="37.0" transform="matrix(1.0, 0.0, 0.0, 1.0, -92.65, -94.35)" width="185.25" xlink:href="#shape2"/>
    <use height="15.3" transform="matrix(1.0, 0.0, 0.0, 1.0, -74.7, -81.4)" width="154.25" xlink:href="#text0"/>
    <use height="318.3" transform="matrix(1.0, 0.0, 0.0, 1.0, -95.9, -415.35)" width="191.7" xlink:href="#shape3"/>
    <use height="264.45" transform="matrix(1.0809, 0.0, 0.0, 1.0809, -78.85, -385.25)" width="141.75" xlink:href="#shape4"/>
    <use height="57.2" transform="matrix(1.0, 0.0, 0.0, 1.0, -28.9, -214.05)" width="56.95" xlink:href="#shape5"/>
  </g>
  <defs>
    <g id="shape0" transform="matrix(1.0, 0.0, 0.0, 1.0, 0.0, 0.0)">
      <path d="M135.7 30.75 Q113.3 35.8 79.5 36.0 45.7 35.8 23.3 30.75 0.85 25.65 0.0 18.0 0.85 10.35 23.3 5.25 45.7 0.2 79.5 0.0 113.3 0.2 135.7 5.25 158.15 10.35 159.0 18.0 158.15 25.65 135.7 30.75" fill="#000000" fill-opacity="0.39607844" fill-rule="evenodd" stroke="none"/>
    </g>
    <g id="shape1" transform="matrix(1.0, 0.0, 0.0, 1.0, 0.0, 0.0)">
      <path d="M5.85 93.35 Q-0.15 90.4 0.0 90.0 L0.0 0.0 54.2 0.0 54.2 90.0 Q54.15 90.4 46.95 93.35 39.7 96.25 25.65 96.65 11.8 96.25 5.85 93.35" fill="url(#gradient0)" fill-rule="evenodd" stroke="none"/>
    </g>
    <linearGradient gradientTransform="matrix(0.0303, 0.0, 0.0, 0.0303, 25.7, 48.35)" gradientUnits="userSpaceOnUse" id="gradient0" spreadMethod="pad" x1="-819.2" x2="819.2">
      <stop offset="0.0" stop-color="#565656"/>
      <stop offset="0.403921568627451" stop-color="#9a9999"/>
      <stop offset="0.592156862745098" stop-color="#dbdbda"/>
      <stop offset="0.7803921568627451" stop-color="#9b9a9a"/>
      <stop offset="1.0" stop-color="#151213"/>
    </linearGradient>
    <g id="shape2" transform="matrix(1.0, 0.0, 0.0, 1.0, -0.05, 0.0)">
      <path d="M185.25 8.2 L185.3 8.25 185.25 8.25 185.25 8.2 M1.9 5.2 L2.3 2.85 18.75 2.05 59.05 0.7 Q83.4 0.05 109.4 0.3 115.1 0.55 118.85 1.6 122.65 2.7 128.15 3.0 L129.3 1.5 Q130.05 0.2 130.5 0.0 160.7 0.5 181.5 3.85 L183.45 6.1 103.3 3.5 Q60.0 3.6 6.5 5.1 L1.9 5.2 M176.25 8.0 L176.45 8.4 177.65 11.45 178.5 13.65 Q179.3 12.8 179.7 10.9 179.7 9.8 179.25 9.1 L179.9 9.55 Q180.65 10.3 180.7 11.75 179.85 15.7 177.15 15.05 175.8 14.75 175.1 13.85 L176.15 14.2 177.35 14.25 176.45 12.35 174.9 8.8 174.8 8.5 174.95 8.35 Q175.75 7.8 176.25 8.0 M178.25 27.3 L179.85 27.15 Q180.5 27.3 181.25 27.95 183.6 31.2 181.35 32.8 180.2 33.6 179.1 33.5 L180.8 32.15 178.8 31.55 175.1 30.4 175.2 29.1 175.2 29.0 175.25 28.7 175.4 28.75 175.85 28.9 178.95 30.05 181.1 30.85 Q181.0 29.65 179.9 28.15 179.05 27.45 178.25 27.3 M9.35 6.95 L10.7 10.45 11.7 12.9 Q12.6 11.95 13.05 9.85 13.05 8.55 12.5 7.75 13.85 8.35 14.15 10.05 L13.75 12.35 Q12.6 15.1 10.15 14.55 8.75 14.25 8.0 13.4 L7.85 13.2 9.0 13.6 10.35 13.65 9.35 11.4 7.6 7.45 8.75 6.6 9.2 6.55 9.35 6.95 M9.4 25.3 Q11.0 24.35 12.9 25.8 15.0 28.35 14.35 30.1 L13.4 31.3 Q12.2 32.25 10.95 32.25 L12.75 30.6 10.4 30.05 6.2 29.05 6.15 27.55 6.15 27.1 6.35 27.15 6.9 27.35 10.45 28.4 12.95 29.1 Q12.75 27.8 11.35 26.15 10.35 25.35 9.4 25.3" fill="#47525f" fill-rule="evenodd" stroke="none"/>
      <path d="M0.05 36.7 L0.75 22.9 Q1.05 14.95 1.6 7.0 L1.9 5.2 6.5 5.1 3.2 8.3 1.95 36.45 0.05 36.7" fill="#cdcdcd" fill-rule="evenodd" stroke="none"/>
      <path d="M13.75 12.35 L14.15 10.05 26.45 10.0 13.75 12.35 M8.0 13.4 L7.0 13.55 7.2 26.2 6.35 27.15 6.15 27.1 6.15 27.55 Q5.15 29.5 6.75 31.55 8.95 33.2 10.95 32.25 12.2 32.25 13.4 31.3 L14.35 30.1 16.45 30.2 36.65 31.3 56.5 32.6 Q50.4 32.9 38.0 32.9 L15.1 32.75 3.85 32.6 5.25 10.05 6.0 10.05 Q6.15 12.3 7.85 13.2 L8.0 13.4" fill="#848484" fill-rule="evenodd" stroke="none"/>
      <path d="M175.1 13.85 Q175.8 14.75 177.15 15.05 179.85 15.7 180.7 11.75 180.65 10.3 179.9 9.55 L180.85 9.65 179.85 27.15 178.25 27.3 177.7 27.3 177.8 15.2 160.95 13.3 Q144.35 11.4 115.0 6.95 144.55 7.2 162.45 8.35 L174.1 9.15 Q173.65 9.7 173.4 10.6 173.45 12.95 175.1 13.85 M175.3 32.3 L137.05 30.55 175.2 29.0 175.2 29.1 Q174.3 30.55 175.3 32.3" fill="#a09fa0" fill-rule="evenodd" stroke="none"/>
      <path d="M176.45 8.4 L176.25 8.0 176.9 7.95 Q178.55 8.05 179.25 9.1 179.7 9.8 179.7 10.9 179.3 12.8 178.5 13.65 L177.65 11.45 178.05 10.25 Q178.0 8.55 176.45 8.4 M174.8 8.5 L174.9 8.8 Q174.35 9.2 174.15 10.05 174.2 11.9 175.85 12.3 L176.45 12.35 177.35 14.25 176.15 14.2 175.1 13.85 Q173.45 12.95 173.4 10.6 173.65 9.7 174.1 9.15 L174.8 8.5 M177.7 27.3 L178.25 27.3 Q179.05 27.45 179.9 28.15 181.0 29.65 181.1 30.85 L178.95 30.05 178.3 28.9 Q177.0 27.8 175.85 28.9 L175.4 28.75 175.8 28.3 Q176.7 27.35 177.7 27.3 M179.1 33.5 Q177.3 34.2 175.5 32.65 L175.3 32.3 Q174.3 30.55 175.2 29.1 L175.1 30.4 Q175.25 32.1 176.95 32.35 178.0 32.25 178.8 31.55 L180.8 32.15 179.1 33.5 M10.7 10.45 L11.2 9.05 Q11.15 7.15 9.35 6.95 L9.2 6.55 9.9 6.5 Q11.75 6.6 12.5 7.75 13.05 8.55 13.05 9.85 12.6 11.95 11.7 12.9 L10.7 10.45 M7.2 26.2 Q8.2 25.2 9.4 25.3 10.35 25.35 11.35 26.15 12.75 27.8 12.95 29.1 L10.45 28.4 Q9.75 26.65 8.05 26.6 L6.9 27.35 6.35 27.15 7.2 26.2 M6.0 10.05 L5.95 9.55 Q6.6 7.0 8.75 6.6 L7.6 7.45 Q7.0 7.9 6.75 8.85 6.8 10.95 8.7 11.35 L9.35 11.4 10.35 13.65 9.0 13.6 7.85 13.2 Q6.15 12.3 6.0 10.05 M6.15 27.55 L6.2 29.05 Q6.45 30.9 8.2 31.1 9.7 31.2 10.4 30.05 L12.75 30.6 10.95 32.25 Q8.95 33.2 6.75 31.55 5.15 29.5 6.15 27.55" fill="#9c9c9c" fill-rule="evenodd" stroke="none"/>
      <path d="M174.9 8.8 L176.45 12.35 175.85 12.3 Q174.2 11.9 174.15 10.05 174.35 9.2 174.9 8.8 M177.65 11.45 L176.45 8.4 Q178.0 8.55 178.05 10.25 L177.65 11.45 M175.85 28.9 Q177.0 27.8 178.3 28.9 L178.95 30.05 175.85 28.9 M175.1 30.4 L178.8 31.55 Q178.0 32.25 176.95 32.35 175.25 32.1 175.1 30.4 M9.35 6.95 Q11.15 7.15 11.2 9.05 L10.7 10.45 9.35 6.95 M9.35 11.4 L8.7 11.35 Q6.8 10.95 6.75 8.85 7.0 7.9 7.6 7.45 L9.35 11.4 M10.45 28.4 L6.9 27.35 8.05 26.6 Q9.75 26.65 10.45 28.4 M6.2 29.05 L10.4 30.05 Q9.7 31.2 8.2 31.1 6.45 30.9 6.2 29.05" fill="#d5d4d4" fill-rule="evenodd" stroke="none"/>
      <path d="M183.45 6.1 L185.3 6.25 185.25 8.2 185.25 8.25 185.1 13.45 184.65 27.3 184.3 36.25 Q157.35 34.75 133.85 35.55 L89.2 37.0 Q65.15 37.15 43.55 35.85 22.0 34.5 0.05 36.75 L0.05 36.7 1.95 36.45 3.2 8.3 6.5 5.1 Q60.0 3.6 103.3 3.5 L183.45 6.1 M176.25 8.0 Q175.75 7.8 174.95 8.35 L174.8 8.5 174.1 9.15 162.45 8.35 Q144.55 7.2 115.0 6.95 144.35 11.4 160.95 13.3 L177.8 15.2 177.7 27.3 Q176.7 27.35 175.8 28.3 L175.4 28.75 175.25 28.7 175.2 29.0 137.05 30.55 175.3 32.3 175.5 32.65 Q177.3 34.2 179.1 33.5 180.2 33.6 181.35 32.8 183.6 31.2 181.25 27.95 180.5 27.3 179.85 27.15 L180.85 9.65 179.9 9.55 179.25 9.1 Q178.55 8.05 176.9 7.95 L176.25 8.0 M12.5 7.75 Q11.75 6.6 9.9 6.5 L9.2 6.55 8.75 6.6 Q6.6 7.0 5.95 9.55 L6.0 10.05 5.25 10.05 3.85 32.6 15.1 32.75 38.0 32.9 Q50.4 32.9 56.5 32.6 L36.65 31.3 16.45 30.2 14.35 30.1 Q15.0 28.35 12.9 25.8 11.0 24.35 9.4 25.3 8.2 25.2 7.2 26.2 L7.0 13.55 8.0 13.4 Q8.75 14.25 10.15 14.55 12.6 15.1 13.75 12.35 L26.45 10.0 14.15 10.05 Q13.85 8.35 12.5 7.75" fill="url(#gradient1)" fill-rule="evenodd" stroke="none"/>
    </g>
    <linearGradient gradientTransform="matrix(0.1131, 0.0, 0.0, 0.0204, 92.65, 20.25)" gradientUnits="userSpaceOnUse" id="gradient1" spreadMethod="pad" x1="-819.2" x2="819.2">
      <stop offset="0.0" stop-color="#9a9a9a"/>
      <stop offset="1.0" stop-color="#ffffff"/>
    </linearGradient>
    <g id="text0" transform="matrix(1.0, 0.0, 0.0, 1.0, 16.55, -5.75)">
      <g transform="matrix(1.0, 0.0, 0.0, 1.0, -17.8, 0.0)">
        <use fill="#000000" height="15.3" transform="matrix(0.4746, 0.0, 0.0, 0.4746, 0.0, 21.0)" width="154.25" xlink:href="#font_______W7_B0"/>
        <use fill="#000000" height="15.3" transform="matrix(0.4746, 0.0, 0.0, 0.4746, 16.85, 21.0)" width="154.25" xlink:href="#font_______W7_e0"/>
        <use fill="#000000" height="15.3" transform="matrix(0.4746, 0.0, 0.0, 0.4746, 30.3, 21.0)" width="154.25" xlink:href="#font_______W7_a0"/>
        <use fill="#000000" height="15.3" transform="matrix(0.4746, 0.0, 0.0, 0.4746, 44.1, 21.0)" width="154.25" xlink:href="#font_______W7_n0"/>
        <use fill="#000000" height="15.3" transform="matrix(0.4746, 0.0, 0.0, 0.4746, 65.7, 21.0)" width="154.25" xlink:href="#font_______W7_C0"/>
        <use fill="#000000" height="15.3" transform="matrix(0.4746, 0.0, 0.0, 0.4746, 81.85, 21.0)" width="154.25" xlink:href="#font_______W7_o0"/>
        <use fill="#000000" height="15.3" transform="matrix(0.4746, 0.0, 0.0, 0.4746, 94.75, 21.0)" width="154.25" xlink:href="#font_______W7_u0"/>
        <use fill="#000000" height="15.3" transform="matrix(0.4746, 0.0, 0.0, 0.4746, 108.25, 21.0)" width="154.25" xlink:href="#font_______W7_n0"/>
        <use fill="#000000" height="15.3" transform="matrix(0.4746, 0.0, 0.0, 0.4746, 121.9, 21.0)" width="154.25" xlink:href="#font_______W7_t0"/>
        <use fill="#000000" height="15.3" transform="matrix(0.4746, 0.0, 0.0, 0.4746, 133.3, 21.0)" width="154.25" xlink:href="#font_______W7_e0"/>
        <use fill="#000000" height="15.3" transform="matrix(0.4746, 0.0, 0.0, 0.4746, 146.75, 21.0)" width="154.25" xlink:href="#font_______W7_r0"/>
      </g>
    </g>
    <g id="font_______W7_B0">
      <path d="M25.75 -11.3 L25.75 -11.3 Q25.75 -8.4 21.9 -8.4 18.5 -8.4 14.4 -12.15 L12.5 -7.75 11.95 -13.45 Q15.45 -15.85 18.95 -15.85 21.25 -15.85 23.3 -14.7 25.75 -13.4 25.75 -11.3 M23.15 -23.7 L23.15 -23.7 Q23.15 -22.05 21.2 -20.35 L19.0 -20.45 Q15.05 -20.45 11.45 -18.65 L10.85 -24.45 Q15.3 -26.5 18.75 -26.5 L21.55 -25.95 Q23.15 -25.2 23.15 -23.7 M33.9 -10.25 L33.9 -10.25 Q33.9 -14.55 29.85 -17.3 32.05 -20.45 32.05 -23.5 32.05 -27.75 28.35 -29.85 25.45 -31.6 20.9 -31.6 14.3 -31.6 10.4 -29.6 L10.2 -31.55 5.3 -32.15 2.55 0.05 13.15 -1.1 13.05 -2.3 Q17.4 -0.6 21.5 -0.6 26.1 -0.6 29.75 -3.05 33.9 -5.85 33.9 -10.25" fill-rule="evenodd" stroke="none"/>
    </g>
    <g id="font_______W7_e0">
      <path d="M19.45 -9.9 L19.45 -9.9 Q16.75 -7.55 13.6 -7.55 10.45 -7.55 9.15 -9.9 L19.45 -9.9 M9.0 -13.4 L9.0 -13.4 Q9.7 -14.95 11.5 -15.95 13.2 -16.8 15.1 -16.8 18.05 -16.8 19.65 -14.35 L9.0 -13.4 M23.25 -9.9 L23.25 -9.9 24.3 -9.9 26.7 -12.6 Q25.85 -16.7 22.9 -19.1 19.9 -21.45 15.15 -21.45 9.65 -21.45 5.9 -18.65 1.8 -15.6 1.8 -10.4 1.8 -5.35 5.8 -2.5 9.3 0.05 14.6 0.05 22.45 0.05 27.15 -4.25 L23.25 -9.9" fill-rule="evenodd" stroke="none"/>
    </g>
    <g id="font_______W7_a0">
      <path d="M19.05 -8.85 L19.05 -8.85 18.5 -5.05 17.1 -9.0 Q14.35 -6.2 10.6 -6.2 9.95 -6.2 9.45 -6.75 9.0 -7.2 9.0 -7.85 9.0 -10.2 13.7 -10.2 15.9 -10.2 19.05 -8.85 M27.4 -6.8 L27.4 -6.8 Q27.4 -21.45 13.35 -21.45 7.15 -21.45 2.55 -18.35 L4.3 -14.35 Q8.3 -16.55 13.15 -16.55 17.85 -16.55 18.85 -13.35 15.4 -14.5 12.8 -14.5 8.6 -14.5 5.6 -12.8 1.8 -10.75 1.8 -6.95 1.8 -3.5 4.9 -1.55 7.55 0.05 11.15 0.05 13.95 0.05 17.35 -0.95 L17.0 0.15 26.7 -0.3 Q27.4 -3.45 27.4 -6.8" fill-rule="evenodd" stroke="none"/>
    </g>
    <g id="font_______W7_n0">
      <path d="M27.0 -9.05 L27.0 -9.05 Q27.0 -14.5 24.65 -17.8 21.9 -21.45 16.6 -21.45 12.6 -21.45 9.45 -18.85 L9.2 -20.75 4.35 -21.45 2.05 0.05 11.95 -1.4 10.35 -12.55 Q12.95 -15.85 15.9 -15.85 19.4 -15.85 19.4 -10.6 19.4 -6.9 16.6 -1.3 L26.2 0.0 Q27.0 -6.5 27.0 -9.05" fill-rule="evenodd" stroke="none"/>
    </g>
    <g id="font_______W7_C0">
      <path d="M26.2 -15.4 L26.2 -15.4 Q21.6 -8.3 16.1 -8.3 12.35 -8.3 10.4 -10.7 8.6 -12.9 8.6 -16.75 8.6 -21.2 11.05 -23.95 13.55 -26.6 17.95 -26.6 23.65 -26.6 27.3 -22.25 L31.1 -26.05 Q28.65 -28.9 25.1 -30.55 21.55 -32.15 17.8 -32.15 10.8 -32.15 6.45 -27.4 2.05 -22.7 2.05 -15.6 2.05 -8.95 6.35 -4.45 10.7 0.05 17.3 0.05 25.6 0.05 32.65 -7.35 L26.2 -15.4" fill-rule="evenodd" stroke="none"/>
    </g>
    <g id="font_______W7_o0">
      <path d="M15.8 -13.5 L15.8 -13.5 Q16.45 -11.85 16.45 -10.4 16.45 -6.85 12.35 -6.85 10.6 -6.85 9.35 -8.05 8.15 -9.35 8.15 -11.05 8.15 -13.25 9.8 -14.6 11.4 -16.0 13.7 -16.0 16.1 -16.0 18.3 -14.3 L15.8 -13.5 M25.7 -11.4 L25.7 -11.4 Q25.7 -13.8 24.75 -16.35 L21.25 -15.25 22.7 -17.2 Q18.35 -21.45 13.15 -21.45 8.45 -21.45 5.1 -18.2 1.8 -14.95 1.8 -10.3 1.8 -5.5 5.4 -2.65 8.65 0.05 13.65 0.05 18.75 0.05 22.2 -3.2 25.7 -6.4 25.7 -11.4" fill-rule="evenodd" stroke="none"/>
    </g>
    <g id="font_______W7_u0">
      <path d="M24.1 -20.75 L24.1 -20.75 19.25 -21.45 17.9 -8.95 16.15 -11.65 Q13.35 -8.1 10.6 -8.1 9.0 -8.1 8.15 -9.4 7.25 -10.65 7.25 -12.3 7.25 -15.75 8.6 -19.75 L3.9 -21.15 Q2.05 -16.35 2.05 -11.4 2.05 -6.45 4.25 -3.4 6.75 0.05 11.5 0.05 14.55 0.05 17.1 -1.5 L16.95 0.1 26.8 -1.35 24.1 -20.75" fill-rule="evenodd" stroke="none"/>
    </g>
    <g id="font_______W7_t0">
      <path d="M18.7 -12.2 L18.7 -12.2 Q17.0 -9.35 14.9 -9.35 11.95 -9.35 11.95 -15.4 L21.65 -15.4 20.1 -22.55 12.4 -21.45 Q12.75 -24.2 13.6 -27.95 L8.95 -28.85 Q7.75 -24.65 7.1 -20.75 L0.75 -19.9 1.75 -15.4 6.55 -15.4 6.5 -12.55 Q6.5 -6.8 7.75 -4.05 9.5 0.05 14.55 0.05 19.1 0.05 23.25 -4.15 L18.7 -12.2" fill-rule="evenodd" stroke="none"/>
    </g>
    <g id="font_______W7_r0">
      <path d="M18.3 -20.6 L18.3 -20.6 Q16.55 -21.45 14.75 -21.45 11.5 -21.45 8.7 -18.65 L8.45 -20.75 4.45 -21.45 2.55 0.05 10.65 -1.4 9.3 -12.8 Q10.55 -14.85 12.3 -14.85 13.25 -14.85 14.55 -13.85 L16.55 -12.05 18.3 -20.6" fill-rule="evenodd" stroke="none"/>
    </g>
    <g id="shape3" transform="matrix(1.0, 0.0, 0.0, 1.0, 3.2, 23.0)">
      <path d="M101.45 -19.8 L107.35 -23.0 123.75 18.6 124.95 34.05 127.7 68.55 130.5 104.15 132.0 123.15 144.7 129.55 163.0 138.7 172.35 143.35 188.5 204.35 182.15 279.5 169.05 295.3 13.0 295.3 2.35 272.2 -3.2 199.55 34.5 126.8 40.6 124.1 Q46.25 121.6 52.95 118.9 59.65 116.2 63.15 115.35 L65.65 92.5 70.45 50.35 75.1 9.7 77.15 -8.5 101.45 -19.8" fill="#47525f" fill-rule="evenodd" stroke="none"/>
      <path d="M121.0 88.7 L124.1 122.65 164.75 144.15 180.1 193.15 8.3 268.35 2.8 195.85 39.8 126.7 68.9 120.3 70.8 99.9 121.0 88.7" fill="#bab9ba" fill-rule="evenodd" stroke="none"/>
      <path d="M180.15 193.2 L182.35 204.75 172.9 277.85 165.35 292.45 17.15 292.45 8.45 270.85 8.35 268.4 180.15 193.2" fill="#9c9c9c" fill-rule="evenodd" stroke="none"/>
      <path d="M79.35 -1.05 L104.35 -14.4 114.8 11.15 121.05 88.7 70.8 99.95 79.35 -1.05" fill="#9c9c9c" fill-rule="evenodd" stroke="none"/>
      <path d="M178.0 208.0 Q177.65 211.8 173.75 212.15 169.9 211.8 169.5 208.0 169.9 204.3 173.75 203.9 177.65 204.3 178.0 208.0" fill="#47525f" fill-rule="evenodd" stroke="none"/>
      <path d="M169.4 206.2 L177.9 205.6 178.05 208.0 169.55 208.4 169.4 206.2" fill="#47525f" fill-rule="evenodd" stroke="none"/>
      <path d="M175.65 202.4 Q173.6 202.6 171.8 204.1 170.25 206.15 170.1 208.35 169.4 207.3 169.4 206.0 169.8 202.3 173.65 201.9 174.75 201.9 175.65 202.4" fill="#e9e9eb" fill-rule="evenodd" stroke="none"/>
      <path d="M175.0 208.3 Q172.85 209.45 170.75 209.05 L170.1 208.3 Q170.2 206.2 171.8 204.15 173.6 202.55 175.65 202.4 L177.0 203.55 Q177.2 206.5 175.0 208.3" fill="#d0cfd0" fill-rule="evenodd" stroke="none"/>
      <path d="M177.9 206.0 Q177.5 209.75 173.6 210.1 171.95 210.1 170.75 209.0 172.85 209.35 175.0 208.1 177.2 206.4 177.0 203.5 177.9 204.6 177.9 206.0" fill="#b0aeb3" fill-rule="evenodd" stroke="none"/>
      <path d="M22.9 275.55 Q22.55 279.35 18.65 279.7 14.8 279.35 14.4 275.55 14.8 271.85 18.65 271.45 22.55 271.85 22.9 275.55" fill="#47525f" fill-rule="evenodd" stroke="none"/>
      <path d="M14.3 273.75 L22.8 273.15 22.95 275.55 14.45 275.95 14.3 273.75" fill="#47525f" fill-rule="evenodd" stroke="none"/>
      <path d="M20.55 269.95 Q18.5 270.15 16.7 271.65 15.15 273.7 15.0 275.9 14.3 274.85 14.3 273.55 14.7 269.85 18.55 269.45 19.65 269.45 20.55 269.95" fill="#e9e9eb" fill-rule="evenodd" stroke="none"/>
      <path d="M19.9 275.85 Q17.75 277.0 15.65 276.6 L15.0 275.85 Q15.1 273.75 16.7 271.7 18.5 270.1 20.55 269.95 L21.9 271.1 Q22.1 274.05 19.9 275.85" fill="#d0cfd0" fill-rule="evenodd" stroke="none"/>
      <path d="M22.8 273.55 Q22.4 277.3 18.5 277.65 16.85 277.65 15.65 276.55 17.75 276.9 19.9 275.65 22.1 273.95 21.9 271.05 22.8 272.15 22.8 273.55" fill="#b0aeb3" fill-rule="evenodd" stroke="none"/>
      <path d="M116.4 84.2 Q116.05 88.0 112.15 88.35 108.3 88.0 107.9 84.2 108.3 80.5 112.15 80.1 116.05 80.5 116.4 84.2" fill="#47525f" fill-rule="evenodd" stroke="none"/>
      <path d="M107.8 82.45 L116.3 81.85 116.45 84.25 107.95 84.65 107.8 82.45" fill="#47525f" fill-rule="evenodd" stroke="none"/>
      <path d="M114.05 78.6 Q112.0 78.8 110.2 80.3 108.65 82.35 108.5 84.55 107.8 83.5 107.8 82.2 108.2 78.5 112.05 78.1 113.15 78.1 114.05 78.6" fill="#e9e9eb" fill-rule="evenodd" stroke="none"/>
      <path d="M113.4 84.55 Q111.25 85.7 109.15 85.3 L108.5 84.55 Q108.6 82.45 110.2 80.4 112.0 78.8 114.05 78.65 L115.4 79.8 Q115.6 82.75 113.4 84.55" fill="#d0cfd0" fill-rule="evenodd" stroke="none"/>
      <path d="M116.3 82.25 Q115.9 86.0 112.0 86.35 110.35 86.35 109.15 85.25 111.25 85.6 113.4 84.35 115.6 82.65 115.4 79.75 116.3 80.85 116.3 82.25" fill="#b0aeb3" fill-rule="evenodd" stroke="none"/>
      <path d="M86.65 9.9 L95.3 0.8 96.9 2.15 88.7 11.45 86.65 9.9" fill="#57565b" fill-rule="evenodd" stroke="none"/>
      <path d="M98.5 6.05 L98.5 6.4 Q97.75 11.85 92.0 12.35 90.15 12.3 88.65 11.35 L88.65 9.25 93.4 5.85 97.25 1.85 Q97.85 2.65 98.15 3.6 L98.5 3.7 98.5 5.95 98.5 6.05" fill="#47525f" fill-rule="evenodd" stroke="none"/>
      <path d="M86.65 9.85 L86.65 7.5 95.3 -1.45 95.3 0.75 86.65 9.85" fill="#47525f" fill-rule="evenodd" stroke="none"/>
      <path d="M85.35 3.95 L86.65 6.7 86.65 9.85 Q85.15 7.35 85.35 6.55 L85.35 3.95" fill="#79818b" fill-rule="evenodd" stroke="none"/>
      <path d="M90.15 0.75 Q93.2 -1.3 94.85 -1.7 L95.2 -1.45 86.65 7.55 86.25 7.0 Q86.1 4.25 90.15 0.75" fill="#d0cfd0" fill-rule="evenodd" stroke="none"/>
      <path d="M85.35 3.8 Q86.1 -1.7 91.85 -2.45 93.5 -2.45 94.85 -1.7 93.3 -1.3 90.15 0.75 86.15 4.25 86.25 7.0 85.4 5.55 85.35 3.8" fill="#e9e9eb" fill-rule="evenodd" stroke="none"/>
      <path d="M95.8 7.05 Q94.1 8.85 91.5 9.1 L88.65 9.35 97.25 0.3 Q97.95 2.9 95.8 7.05" fill="#bab9ba" fill-rule="evenodd" stroke="none"/>
      <path d="M98.5 4.0 Q97.95 9.7 92.0 10.25 90.15 10.2 88.65 9.35 L91.45 9.1 Q94.0 8.85 95.7 7.05 97.85 2.9 97.25 0.3 98.5 1.85 98.5 4.0" fill="#b0aeb3" fill-rule="evenodd" stroke="none"/>
      <path d="M8.3 204.45 L16.95 195.35 18.55 196.7 10.35 206.0 8.3 204.45" fill="#57565b" fill-rule="evenodd" stroke="none"/>
      <path d="M20.15 200.6 L20.15 200.95 Q19.4 206.4 13.65 206.9 11.8 206.85 10.3 205.9 L10.3 203.8 15.05 200.4 18.9 196.4 19.8 198.15 20.15 198.25 20.15 200.5 20.15 200.6" fill="#47525f" fill-rule="evenodd" stroke="none"/>
      <path d="M8.3 204.4 L8.3 202.05 16.95 193.1 16.95 195.3 8.3 204.4" fill="#47525f" fill-rule="evenodd" stroke="none"/>
      <path d="M7.0 198.55 L8.3 201.3 8.3 204.45 Q6.8 201.95 7.0 201.15 L7.0 198.55" fill="#79818b" fill-rule="evenodd" stroke="none"/>
      <path d="M11.8 195.3 Q14.85 193.25 16.5 192.85 L16.85 193.1 8.3 202.1 7.9 201.55 Q7.75 198.8 11.8 195.3" fill="#d0cfd0" fill-rule="evenodd" stroke="none"/>
      <path d="M7.0 198.35 Q7.75 192.85 13.5 192.1 15.15 192.1 16.5 192.85 14.95 193.25 11.8 195.3 7.8 198.8 7.9 201.55 7.05 200.1 7.0 198.35" fill="#e9e9eb" fill-rule="evenodd" stroke="none"/>
      <path d="M17.45 201.6 Q15.75 203.4 13.15 203.65 L10.3 203.9 18.9 194.85 Q19.6 197.45 17.45 201.6" fill="#bab9ba" fill-rule="evenodd" stroke="none"/>
      <path d="M20.15 198.55 Q19.6 204.25 13.65 204.8 11.8 204.75 10.3 203.9 L13.1 203.65 Q15.65 203.4 17.35 201.6 19.5 197.45 18.9 194.85 20.15 196.4 20.15 198.55" fill="#b0aeb3" fill-rule="evenodd" stroke="none"/>
    </g>
    <g id="shape4" transform="matrix(1.0, 0.0, 0.0, 1.0, 0.0, 0.0)">
      <path d="M81.1 22.15 L81.5 21.75 81.5 19.65 84.95 19.7 Q83.3 23.25 79.1 23.65 74.4 24.4 69.95 22.6 67.65 21.75 66.4 19.45 L69.6 19.5 69.4 21.35 69.75 21.8 81.1 22.15 M74.5 7.8 Q76.9 6.95 78.0 4.3 L78.5 14.35 73.05 14.25 74.0 7.95 74.5 7.8 M48.95 131.3 L42.15 136.65 42.5 138.2 69.8 166.05 70.15 167.25 67.05 261.3 37.95 260.45 37.65 257.4 40.75 254.4 39.25 245.9 38.2 245.15 39.75 236.6 35.55 232.4 30.75 157.6 Q29.0 151.35 26.7 145.5 L26.05 144.95 25.45 144.8 Q24.35 145.45 24.65 146.65 L27.8 158.0 32.3 229.25 24.2 222.05 Q18.15 222.85 13.8 227.15 L11.15 229.9 5.9 235.8 3.0 216.75 7.1 176.6 21.9 127.4 34.8 122.45 48.95 131.3 M45.85 137.35 L52.4 132.3 Q53.75 131.15 52.4 129.95 L38.3 121.1 54.05 114.95 67.9 159.85 45.85 137.35 M73.15 167.4 L74.05 165.4 99.5 138.5 100.0 137.45 99.7 136.6 94.9 132.7 108.05 120.0 127.8 129.35 137.75 180.7 138.6 236.25 128.3 225.85 127.95 225.5 127.4 225.4 125.3 225.5 123.2 225.75 Q118.2 226.45 115.1 230.25 L118.9 148.0 Q123.3 142.1 124.75 135.75 L123.2 135.2 115.9 147.5 111.9 234.55 Q109.2 239.1 108.8 244.5 L106.75 245.2 105.3 255.25 111.2 258.8 111.2 261.45 70.05 261.35 73.15 167.4 M91.2 132.4 L91.5 133.55 96.2 137.6 77.6 157.25 96.25 114.75 105.15 118.65 91.2 132.4" fill="#106557" fill-rule="evenodd" stroke="none"/>
      <path d="M81.1 22.15 L69.75 21.8 69.4 21.35 69.6 19.5 66.4 19.45 Q67.65 21.75 69.95 22.6 74.4 24.4 79.1 23.65 83.3 23.25 84.95 19.7 L81.5 19.65 81.5 21.75 81.1 22.15 M87.15 21.55 Q85.9 23.55 82.65 25.4 89.85 67.95 94.45 111.5 L95.4 110.95 96.2 111.1 129.75 126.95 130.6 128.05 140.75 180.3 141.75 246.35 141.2 247.55 140.35 247.85 139.8 257.2 121.4 264.4 114.2 260.45 114.0 263.8 113.55 264.25 112.7 264.45 73.65 264.45 35.8 263.15 34.85 259.8 29.75 264.15 Q16.95 260.25 4.8 254.3 L0.0 216.95 4.1 176.25 19.3 125.85 56.35 110.5 68.95 25.45 Q65.15 23.8 63.75 21.3 62.6 19.15 63.4 16.85 L70.15 16.5 71.55 4.8 71.95 4.45 74.05 4.65 78.4 0.0 79.6 0.15 Q82.55 7.4 81.4 15.25 L81.2 16.35 87.95 17.3 Q88.4 19.55 87.15 21.55 M81.0 26.2 L76.0 26.85 70.6 26.1 68.6 39.75 73.7 44.3 74.15 36.0 74.5 35.8 74.85 35.75 75.25 35.8 75.8 36.35 75.7 45.2 75.55 45.9 74.5 46.15 73.8 45.7 72.75 46.05 68.3 42.15 63.15 81.5 66.9 63.8 67.35 61.4 Q67.65 58.45 69.85 56.65 70.0 56.5 70.25 56.5 L71.5 56.65 71.7 57.95 70.3 58.5 69.45 60.5 Q68.9 62.55 69.15 64.8 71.1 66.45 73.85 65.9 L76.15 65.95 79.3 65.75 80.1 65.5 Q81.0 62.55 79.95 59.35 L79.25 57.45 77.25 59.55 76.85 59.55 76.55 59.35 76.2 59.15 76.05 58.8 Q76.65 55.8 79.65 55.85 80.25 55.85 80.7 56.4 82.1 58.05 82.35 60.2 82.7 62.95 82.3 65.5 86.8 73.35 88.6 82.3 L83.75 41.8 78.25 46.5 76.95 45.85 Q77.0 45.45 77.2 45.3 L83.4 39.5 81.0 26.2 M82.9 47.95 L82.7 48.95 77.55 49.2 77.0 48.65 77.2 47.55 82.4 47.35 82.9 47.95 M88.75 86.0 L87.65 85.95 84.5 75.15 Q83.3 71.0 80.9 67.35 L68.5 67.0 64.9 85.4 63.85 86.25 62.75 85.9 59.2 111.75 Q64.55 114.0 70.05 116.05 L71.35 116.45 Q81.85 115.0 91.3 110.25 L90.45 101.25 89.7 101.15 Q86.55 89.5 81.9 78.4 80.05 74.0 75.8 72.2 74.65 72.9 73.45 74.1 72.2 75.25 68.75 80.4 65.3 85.55 62.6 100.35 L61.75 102.6 Q62.75 89.25 68.95 77.55 70.75 74.1 73.65 71.5 76.2 69.25 79.1 71.1 80.1 71.7 80.7 72.7 87.5 83.4 90.2 98.75 L88.75 86.0 M74.5 7.8 L74.0 7.95 73.05 14.25 78.5 14.35 78.0 4.3 Q76.9 6.95 74.5 7.8 M79.05 16.5 L72.35 16.4 72.05 17.1 72.35 18.05 72.15 18.9 71.65 19.3 71.5 20.0 79.5 20.25 79.45 19.35 Q78.35 18.3 79.25 17.15 L79.05 16.5 M67.75 48.0 L75.75 48.15 73.05 63.35 71.8 63.15 73.7 49.95 69.25 53.8 68.35 53.2 68.6 52.15 71.25 49.5 67.95 49.1 67.75 48.0 M78.5 49.75 L81.35 53.65 80.75 54.2 Q79.25 53.85 78.4 52.75 L76.9 50.65 77.55 49.75 78.5 49.75 M74.6 120.4 L70.6 119.9 69.3 122.45 71.7 127.4 75.95 129.25 79.95 121.7 79.05 119.9 74.6 120.4 M45.85 137.35 L67.9 159.85 54.05 114.95 38.3 121.1 52.4 129.95 Q53.75 131.15 52.4 132.3 L45.85 137.35 M48.95 131.3 L34.8 122.45 21.9 127.4 7.1 176.6 3.0 216.75 5.9 235.8 11.15 229.9 13.8 227.15 Q18.15 222.85 24.2 222.05 L32.3 229.25 27.8 158.0 24.65 146.65 Q24.35 145.45 25.45 144.8 L26.05 144.95 26.7 145.5 Q29.0 151.35 30.75 157.6 L35.55 232.4 39.75 236.6 38.2 245.15 39.25 245.9 40.75 254.4 37.65 257.4 37.95 260.45 67.05 261.3 70.15 167.25 69.8 166.05 42.5 138.2 42.15 136.65 48.95 131.3 M63.05 133.85 L64.1 137.35 68.9 128.5 67.5 125.6 63.05 133.85 M71.3 130.5 L65.35 141.4 71.9 162.8 81.7 140.5 75.65 132.35 71.3 130.5 M56.95 114.05 L61.8 129.85 67.75 118.9 56.95 114.05 M73.15 167.4 L70.05 261.35 111.2 261.45 111.2 258.8 105.3 255.25 106.75 245.2 108.8 244.5 Q109.2 239.1 111.9 234.55 L115.9 147.5 123.2 135.2 124.75 135.75 Q123.3 142.1 118.9 148.0 L115.1 230.25 Q118.2 226.45 123.2 225.75 L125.3 225.5 127.4 225.4 127.95 225.5 128.3 225.85 138.6 236.25 137.75 180.7 127.8 129.35 108.05 120.0 94.9 132.7 99.7 136.6 100.0 137.45 99.5 138.5 74.05 165.4 73.15 167.4 M91.55 113.5 L81.95 119.1 86.95 128.5 93.0 114.6 91.55 113.5 M91.2 132.4 L105.15 118.65 96.25 114.75 77.6 157.25 96.2 137.6 91.5 133.55 91.2 132.4 M85.4 132.0 L81.65 124.9 78.4 131.05 83.05 137.35 85.4 132.0 M122.3 242.15 L123.75 242.05 124.4 242.75 Q125.85 246.95 126.8 251.35 L126.5 251.9 125.75 252.3 115.55 252.45 115.0 251.75 Q114.2 249.6 113.7 247.35 L109.2 247.45 108.3 253.75 121.95 261.25 137.05 255.4 137.35 239.3 126.85 228.15 120.2 228.45 112.25 239.1 111.85 244.25 115.05 244.35 115.55 244.45 115.9 244.75 116.35 245.55 117.25 249.5 123.65 249.35 Q122.65 246.2 122.05 243.0 121.95 242.55 122.3 242.15 M7.75 238.35 L7.75 252.9 28.8 261.05 37.65 253.35 36.5 247.75 34.3 251.7 33.15 251.9 22.75 251.75 Q21.55 251.6 21.4 250.45 20.55 243.95 20.2 237.45 20.2 237.0 20.65 236.7 L22.1 236.75 22.55 237.6 24.15 248.8 32.35 249.1 35.0 244.35 35.3 243.7 36.8 237.85 23.75 225.1 17.0 225.7 7.75 238.35" fill="#1a1a1a" fill-rule="evenodd" stroke="none"/>
      <path d="M88.75 86.0 L90.2 98.75 Q87.5 83.4 80.7 72.7 80.1 71.7 79.1 71.1 76.2 69.25 73.65 71.5 70.75 74.1 68.95 77.55 62.75 89.25 61.75 102.6 L62.6 100.35 Q65.3 85.55 68.75 80.4 72.2 75.25 73.45 74.1 74.65 72.9 75.8 72.2 80.05 74.0 81.9 78.4 86.55 89.5 89.7 101.15 L90.45 101.25 91.3 110.25 Q81.85 115.0 71.35 116.45 L70.05 116.05 Q64.55 114.0 59.2 111.75 L62.75 85.9 63.85 86.25 64.9 85.4 68.5 67.0 80.9 67.35 Q83.3 71.0 84.5 75.15 L87.65 85.95 88.75 86.0 M82.9 47.95 L82.4 47.35 77.2 47.55 77.0 48.65 77.55 49.2 82.7 48.95 82.9 47.95 M81.0 26.2 L83.4 39.5 77.2 45.3 Q77.0 45.45 76.95 45.85 L78.25 46.5 83.75 41.8 88.6 82.3 Q86.8 73.35 82.3 65.5 82.7 62.95 82.35 60.2 82.1 58.05 80.7 56.4 80.25 55.85 79.65 55.85 76.65 55.8 76.05 58.8 L76.2 59.15 76.55 59.35 76.85 59.55 77.25 59.55 79.25 57.45 79.95 59.35 Q81.0 62.55 80.1 65.5 L79.3 65.75 76.15 65.95 73.85 65.9 Q71.1 66.45 69.15 64.8 68.9 62.55 69.45 60.5 L70.3 58.5 71.7 57.95 71.5 56.65 70.25 56.5 Q70.0 56.5 69.85 56.65 67.65 58.45 67.35 61.4 L66.9 63.8 63.15 81.5 68.3 42.15 72.75 46.05 73.8 45.7 74.5 46.15 75.55 45.9 75.7 45.2 75.8 36.35 75.25 35.8 74.85 35.75 74.5 35.8 74.15 36.0 73.7 44.3 68.6 39.75 70.6 26.1 76.0 26.85 81.0 26.2 M78.5 49.75 L77.55 49.75 76.9 50.65 78.4 52.75 Q79.25 53.85 80.75 54.2 L81.35 53.65 78.5 49.75 M67.75 48.0 L67.95 49.1 71.25 49.5 68.6 52.15 68.35 53.2 69.25 53.8 73.7 49.95 71.8 63.15 73.05 63.35 75.75 48.15 67.75 48.0 M79.05 16.5 L79.25 17.15 Q78.35 18.3 79.45 19.35 L79.5 20.25 71.5 20.0 71.65 19.3 72.15 18.9 72.35 18.05 72.05 17.1 72.35 16.4 79.05 16.5 M63.05 133.85 L67.5 125.6 68.9 128.5 64.1 137.35 63.05 133.85 M56.95 114.05 L67.75 118.9 61.8 129.85 56.95 114.05 M91.55 113.5 L93.0 114.6 86.95 128.5 81.95 119.1 91.55 113.5 M7.75 238.35 L17.0 225.7 23.75 225.1 36.8 237.85 35.3 243.7 35.0 244.35 32.35 249.1 24.15 248.8 22.55 237.6 22.1 236.75 20.65 236.7 Q20.2 237.0 20.2 237.45 20.55 243.95 21.4 250.45 21.55 251.6 22.75 251.75 L33.15 251.9 34.3 251.7 36.5 247.75 37.65 253.35 28.8 261.05 7.75 252.9 7.75 238.35 M122.3 242.15 Q121.95 242.55 122.05 243.0 122.65 246.2 123.65 249.35 L117.25 249.5 116.35 245.55 115.9 244.75 115.55 244.45 115.05 244.35 111.85 244.25 112.25 239.1 120.2 228.45 126.85 228.15 137.35 239.3 137.05 255.4 121.95 261.25 108.3 253.75 109.2 247.45 113.7 247.35 Q114.2 249.6 115.0 251.75 L115.55 252.45 125.75 252.3 126.5 251.9 126.8 251.35 Q125.85 246.95 124.4 242.75 L123.75 242.05 122.3 242.15 M85.4 132.0 L83.05 137.35 78.4 131.05 81.65 124.9 85.4 132.0" fill="#c1d9cb" fill-rule="evenodd" stroke="none"/>
      <path d="M74.6 120.4 L79.05 119.9 79.95 121.7 75.95 129.25 71.7 127.4 69.3 122.45 70.6 119.9 74.6 120.4 M71.3 130.5 L75.65 132.35 81.7 140.5 71.9 162.8 65.35 141.4 71.3 130.5" fill="#0e4239" fill-rule="evenodd" stroke="none"/>
    </g>
    <g id="shape5" transform="matrix(1.0, 0.0, 0.0, 1.0, -0.25, -0.1)">
      <path d="M41.5 9.2 Q42.4 9.55 43.15 9.95 46.05 11.85 46.9 14.2 L47.35 15.85 47.65 17.9 47.25 18.65 44.0 19.2 38.3 19.95 37.2 18.3 37.9 23.9 45.75 25.9 Q47.7 26.7 49.5 27.85 L51.3 29.45 51.9 30.15 53.05 32.2 Q53.9 34.55 53.45 37.4 53.05 39.65 51.8 42.25 50.75 44.2 48.5 45.95 L41.3 49.9 41.5 51.65 41.65 52.55 41.55 54.25 40.85 54.55 36.85 54.55 33.35 54.55 32.45 54.35 32.1 53.1 32.0 51.75 29.9 51.65 29.95 52.0 30.05 53.35 30.25 54.95 30.05 55.55 29.7 55.8 21.15 55.75 20.85 54.7 20.85 53.9 20.8 52.15 20.8 50.7 Q14.65 48.7 10.65 43.65 L7.9 38.1 7.55 35.2 8.6 34.85 10.8 34.65 18.35 34.25 20.5 38.15 19.95 29.25 Q14.15 29.25 10.1 25.5 8.95 24.2 8.45 22.85 7.9 20.7 8.2 18.6 8.55 16.85 9.35 15.4 10.25 14.05 11.4 12.85 L14.5 10.85 17.6 9.4 17.5 8.85 17.35 8.15 17.1 6.75 17.15 4.7 17.75 4.4 24.8 4.3 25.3 5.6 25.4 6.25 25.5 7.1 27.25 6.95 27.1 6.05 27.05 5.4 26.95 4.05 31.85 2.35 33.7 2.05 35.15 2.35 35.4 3.05 35.6 5.0 35.8 6.45 35.85 7.15 35.9 7.6 38.4 8.15 Q40.1 8.6 41.5 9.2 M45.7 17.05 Q45.55 13.85 43.0 11.9 39.95 9.6 36.1 8.95 L36.85 15.25 Q38.5 16.2 39.2 17.9 L45.7 17.05 M50.5 31.85 Q50.15 30.75 49.3 29.9 44.5 25.35 38.05 25.6 L38.65 30.05 39.6 30.55 Q42.85 32.45 41.55 36.3 L39.75 38.5 41.0 47.75 45.35 45.65 Q47.2 44.6 48.4 43.0 52.3 37.95 50.5 31.85 M27.4 8.2 L25.7 8.35 26.75 14.8 28.3 14.65 27.4 8.2 M28.4 15.6 L26.8 15.75 27.6 23.3 29.5 23.7 28.4 15.6 M25.75 23.5 L23.6 5.85 19.25 5.95 20.8 20.4 21.2 26.55 Q22.1 40.45 22.3 54.4 L28.25 54.0 25.75 23.5 M33.65 3.4 L28.7 4.7 Q30.45 15.1 31.3 25.55 L32.1 34.2 33.65 52.85 39.75 52.65 33.65 3.4 M10.9 18.95 L10.85 19.95 Q10.85 20.9 11.15 21.85 13.15 27.7 19.8 27.9 L19.5 24.35 Q17.9 24.05 17.15 22.75 14.95 18.95 18.75 16.85 L17.85 10.85 Q14.85 12.2 12.8 14.55 11.15 16.4 10.9 18.95 M18.25 20.55 Q18.5 21.5 19.1 22.15 L18.9 18.45 Q17.95 19.3 18.25 20.55 M17.1 36.0 L9.45 36.65 9.8 37.65 Q13.15 45.05 20.75 48.3 L20.55 39.4 Q18.1 38.3 17.1 36.0 M38.85 31.85 L39.5 36.6 Q40.7 34.95 39.5 32.5 L38.85 31.85 M27.8 25.4 L28.1 28.4 30.2 28.6 29.75 25.5 27.8 25.4 M30.35 29.8 L28.2 29.6 29.05 39.75 31.25 39.65 30.35 29.8 M31.35 40.85 L29.15 40.95 29.75 49.8 31.9 49.75 31.35 40.85" fill="#005d51" fill-rule="evenodd" stroke="none"/>
      <path d="M46.9 14.2 Q46.05 11.85 43.15 9.95 42.4 9.55 41.5 9.2 38.85 7.4 35.8 6.45 L35.6 5.0 Q41.65 6.85 46.0 11.25 54.5 20.05 53.05 32.2 L51.9 30.15 51.95 28.7 Q51.75 20.2 46.9 14.2 M35.15 2.35 L33.7 2.05 Q21.3 -0.05 11.55 7.85 2.85 14.9 1.65 25.95 0.9 32.85 3.65 39.2 8.8 50.9 20.85 54.7 L21.15 55.75 29.7 55.8 Q33.45 55.6 36.85 54.55 L40.85 54.55 Q35.35 57.15 28.6 57.3 16.45 56.95 8.4 48.9 4.75 45.25 2.7 40.85 1.25 37.7 0.65 34.15 -0.1 29.5 0.5 24.9 1.2 19.5 3.95 14.75 6.75 10.0 10.95 6.65 14.95 3.5 19.8 1.7 24.05 0.1 28.6 0.1 40.7 0.4 48.8 8.5 56.9 16.55 57.2 28.7 56.85 40.8 48.8 48.9 45.5 52.2 41.55 54.25 L41.65 52.55 Q44.95 50.7 47.8 47.9 55.45 40.2 55.75 28.7 55.45 17.15 47.8 9.5 42.45 4.1 35.15 2.35 M26.95 4.05 L27.05 5.4 25.3 5.6 24.8 4.3 26.95 4.05 M17.1 6.75 L17.35 8.15 11.4 12.85 Q10.25 14.05 9.35 15.4 5.4 21.05 5.2 28.7 5.4 37.45 10.65 43.65 14.65 48.7 20.8 50.7 L20.8 52.15 Q15.35 50.4 11.1 46.15 4.1 39.15 3.85 28.7 4.1 18.2 11.1 11.2 13.8 8.45 17.1 6.75 M30.05 53.35 L29.95 52.0 32.0 51.75 32.1 53.1 30.05 53.35" fill="#006868" fill-rule="evenodd" stroke="none"/>
      <path d="M40.65 12.0 L42.45 12.1 43.6 13.4 Q44.15 15.45 42.2 16.35 41.3 16.6 40.6 16.35 L40.45 16.3 40.4 16.25 Q39.7 15.85 39.25 14.95 38.7 12.9 40.65 12.0 M41.6 15.7 L41.95 15.6 Q43.65 14.75 42.45 13.1 L41.6 15.7 M41.65 12.75 L40.95 12.8 Q39.7 13.35 40.05 14.7 L40.45 15.3 41.65 12.75 M46.05 37.3 Q48.15 37.85 48.0 39.95 47.45 42.05 45.3 41.9 44.3 41.65 43.85 41.05 L43.8 41.0 43.75 40.9 Q43.3 40.25 43.4 39.2 43.95 37.1 46.05 37.3 M44.8 40.8 L45.45 41.05 Q47.4 41.15 47.1 39.15 L44.8 40.8 M46.65 38.45 L45.95 38.1 Q44.6 38.0 44.2 39.35 L44.3 40.15 46.65 38.45 M13.5 18.1 L12.75 18.1 14.15 20.6 14.5 19.95 Q14.75 18.6 13.5 18.1 M10.85 19.95 L10.9 18.95 Q11.55 17.0 13.6 17.25 15.35 17.7 15.4 19.55 15.45 21.1 14.0 21.75 L12.3 21.65 Q11.15 21.15 10.85 19.95 M12.65 20.95 L13.35 21.0 12.0 18.55 11.65 19.1 Q11.4 20.45 12.65 20.95 M17.55 42.65 L17.85 42.0 15.0 42.3 15.45 42.9 Q16.6 43.65 17.55 42.65 M17.3 40.6 Q16.2 39.8 15.2 40.8 L14.9 41.45 17.75 41.15 17.3 40.6 M18.75 41.5 L18.5 42.45 Q17.95 44.1 16.25 44.15 L15.8 44.0 Q13.3 42.75 14.55 40.25 L15.4 39.85 Q17.95 38.9 18.75 41.5" fill="#0f6f61" fill-rule="evenodd" stroke="none"/>
      <path d="M40.65 12.0 Q38.7 12.9 39.25 14.95 39.7 15.85 40.4 16.25 L40.45 16.3 40.6 16.35 Q41.3 16.6 42.2 16.35 44.15 15.45 43.6 13.4 L42.45 12.1 40.65 12.0 M45.7 17.05 L39.2 17.9 Q38.5 16.2 36.85 15.25 L36.1 8.95 Q39.95 9.6 43.0 11.9 45.55 13.85 45.7 17.05 M50.5 31.85 Q52.3 37.95 48.4 43.0 47.2 44.6 45.35 45.65 L41.0 47.75 39.75 38.5 41.55 36.3 Q42.85 32.45 39.6 30.55 L38.65 30.05 38.05 25.6 Q44.5 25.35 49.3 29.9 50.15 30.75 50.5 31.85 M46.05 37.3 Q43.95 37.1 43.4 39.2 43.3 40.25 43.75 40.9 L43.8 41.0 43.85 41.05 Q44.3 41.65 45.3 41.9 47.45 42.05 48.0 39.95 48.15 37.85 46.05 37.3 M32.9 7.7 L31.15 6.85 Q30.6 9.15 30.85 11.4 L31.8 18.75 Q33.9 33.8 34.4 48.9 34.45 50.1 35.5 51.1 L37.15 50.9 Q37.65 50.05 37.55 48.95 L36.95 43.5 36.1 33.95 Q35.3 20.6 32.9 7.7 M27.4 8.2 L28.3 14.65 26.75 14.8 25.7 8.35 27.4 8.2 M24.25 24.5 Q24.2 18.9 23.7 13.7 23.2 8.5 22.1 8.2 20.85 8.6 21.15 13.7 21.45 18.8 22.2 24.2 L23.1 31.05 Q23.5 40.1 23.8 43.3 23.3 47.7 24.9 51.6 26.25 50.8 26.15 48.65 L25.8 45.15 Q24.55 38.45 24.3 31.65 L24.25 24.5 M33.65 3.4 L39.75 52.65 33.65 52.85 32.1 34.2 31.3 25.55 Q30.45 15.1 28.7 4.7 L33.65 3.4 M25.75 23.5 L28.25 54.0 22.3 54.4 Q22.1 40.45 21.2 26.55 L20.8 20.4 19.25 5.95 23.6 5.85 25.75 23.5 M10.85 19.95 Q11.15 21.15 12.3 21.65 L14.0 21.75 Q15.45 21.1 15.4 19.55 15.35 17.7 13.6 17.25 11.55 17.0 10.9 18.95 11.15 16.4 12.8 14.55 14.85 12.2 17.85 10.85 L18.75 16.85 Q14.95 18.95 17.15 22.75 17.9 24.05 19.5 24.35 L19.8 27.9 Q13.15 27.7 11.15 21.85 10.85 20.9 10.85 19.95 M18.75 41.5 Q17.95 38.9 15.4 39.85 L14.55 40.25 Q13.3 42.75 15.8 44.0 L16.25 44.15 Q17.95 44.1 18.5 42.45 L18.75 41.5 M17.1 36.0 Q18.1 38.3 20.55 39.4 L20.75 48.3 Q13.15 45.05 9.8 37.65 L9.45 36.65 17.1 36.0 M27.8 25.4 L29.75 25.5 30.2 28.6 28.1 28.4 27.8 25.4 M31.35 40.85 L31.9 49.75 29.75 49.8 29.15 40.95 31.35 40.85" fill="#85ab93" fill-rule="evenodd" stroke="none"/>
      <path d="M38.4 8.15 L35.9 7.6 35.85 7.15 38.4 8.15 M27.1 6.05 L27.25 6.95 25.5 7.1 25.4 6.25 27.1 6.05 M17.5 8.85 L17.6 9.4 14.5 10.85 Q15.9 9.7 17.5 8.85 M8.2 18.6 Q7.9 20.7 8.45 22.85 7.45 26.0 7.7 29.6 7.85 32.35 8.6 34.85 L7.55 35.2 7.9 38.1 Q6.0 33.85 5.85 28.7 6.0 23.1 8.2 18.6 M51.3 29.45 L49.5 27.85 Q49.25 23.0 47.25 18.65 L47.65 17.9 47.35 15.85 Q51.15 21.35 51.3 28.7 L51.3 29.45" fill="#85b599" fill-rule="evenodd" stroke="none"/>
      <path d="M41.5 9.2 Q40.1 8.6 38.4 8.15 L35.85 7.15 35.8 6.45 Q38.85 7.4 41.5 9.2 M35.4 3.05 L35.15 2.35 Q42.45 4.1 47.8 9.5 55.45 17.15 55.75 28.7 55.45 40.2 47.8 47.9 44.95 50.7 41.65 52.55 L41.5 51.65 Q44.6 49.9 47.2 47.3 L48.5 45.95 Q50.75 44.2 51.8 42.25 53.05 39.65 53.45 37.4 54.8 33.35 54.95 28.6 54.65 17.35 47.2 9.9 42.15 4.85 35.4 3.05 M33.7 2.05 L31.85 2.35 28.5 2.1 Q22.6 2.25 17.75 4.4 L17.15 4.7 Q6.8 9.85 3.35 20.8 0.5 29.95 4.3 38.8 9.25 50.2 20.85 53.9 L20.85 54.7 Q8.8 50.9 3.65 39.2 0.9 32.85 1.65 25.95 2.85 14.9 11.55 7.85 21.3 -0.05 33.7 2.05 M27.05 5.4 L27.1 6.05 25.4 6.25 25.3 5.6 27.05 5.4 M17.35 8.15 L17.5 8.85 Q15.9 9.7 14.5 10.85 L11.4 12.85 17.35 8.15 M9.35 15.4 Q8.55 16.85 8.2 18.6 6.0 23.1 5.85 28.7 6.0 33.85 7.9 38.1 L10.65 43.65 Q5.4 37.45 5.2 28.7 5.4 21.05 9.35 15.4 M29.7 55.8 L30.05 55.55 30.25 54.95 33.35 54.55 36.85 54.55 Q33.45 55.6 29.7 55.8 M29.95 52.0 L29.9 51.65 32.0 51.75 29.95 52.0 M51.9 30.15 L51.3 29.45 51.3 28.7 Q51.15 21.35 47.35 15.85 L46.9 14.2 Q51.75 20.2 51.95 28.7 L51.9 30.15" fill="#085854" fill-rule="evenodd" stroke="none"/>
      <path d="M41.65 12.75 L40.45 15.3 40.05 14.7 Q39.7 13.35 40.95 12.8 L41.65 12.75 M41.6 15.7 L42.45 13.1 Q43.65 14.75 41.95 15.6 L41.6 15.7 M46.65 38.45 L44.3 40.15 44.2 39.35 Q44.6 38.0 45.95 38.1 L46.65 38.45 M44.8 40.8 L47.1 39.15 Q47.4 41.15 45.45 41.05 L44.8 40.8 M13.5 18.1 Q14.75 18.6 14.5 19.95 L14.15 20.6 12.75 18.1 13.5 18.1 M12.65 20.95 Q11.4 20.45 11.65 19.1 L12.0 18.55 13.35 21.0 12.65 20.95 M17.3 40.6 L17.75 41.15 14.9 41.45 15.2 40.8 Q16.2 39.8 17.3 40.6 M17.55 42.65 Q16.6 43.65 15.45 42.9 L15.0 42.3 17.85 42.0 17.55 42.65" fill="#a0beac" fill-rule="evenodd" stroke="none"/>
      <path d="M35.6 5.0 L35.4 3.05 Q42.15 4.85 47.2 9.9 54.65 17.35 54.95 28.6 54.8 33.35 53.45 37.4 53.9 34.55 53.05 32.2 54.5 20.05 46.0 11.25 41.65 6.85 35.6 5.0 M31.85 2.35 L26.95 4.05 24.8 4.3 17.75 4.4 Q22.6 2.25 28.5 2.1 L31.85 2.35 M17.15 4.7 L17.1 6.75 Q13.8 8.45 11.1 11.2 4.1 18.2 3.85 28.7 4.1 39.15 11.1 46.15 15.35 50.4 20.8 52.15 L20.85 53.9 Q9.25 50.2 4.3 38.8 0.5 29.95 3.35 20.8 6.8 9.85 17.15 4.7 M8.45 22.85 Q8.95 24.2 10.1 25.5 8.85 29.75 10.65 34.3 L10.8 34.65 8.6 34.85 Q7.85 32.35 7.7 29.6 7.45 26.0 8.45 22.85 M30.25 54.95 L30.05 53.35 32.1 53.1 32.45 54.35 33.35 54.55 30.25 54.95 M41.5 51.65 L41.3 49.9 48.5 45.95 47.2 47.3 Q44.6 49.9 41.5 51.65 M49.5 27.85 Q47.7 26.7 45.75 25.9 45.45 22.35 44.0 19.2 L47.25 18.65 Q49.25 23.0 49.5 27.85" fill="#98bea8" fill-rule="evenodd" stroke="none"/>
      <path d="M10.1 25.5 Q14.15 29.25 19.95 29.25 L20.5 38.15 18.35 34.25 10.8 34.65 10.65 34.3 Q8.85 29.75 10.1 25.5 M45.75 25.9 L37.9 23.9 37.2 18.3 38.3 19.95 44.0 19.2 Q45.45 22.35 45.75 25.9 M28.4 15.6 L29.5 23.7 27.6 23.3 26.8 15.75 28.4 15.6 M18.25 20.55 Q17.95 19.3 18.9 18.45 L19.1 22.15 Q18.5 21.5 18.25 20.55 M38.85 31.85 L39.5 32.5 Q40.7 34.95 39.5 36.6 L38.85 31.85 M30.35 29.8 L31.25 39.65 29.05 39.75 28.2 29.6 30.35 29.8" fill="#c1d9cb" fill-rule="evenodd" stroke="none"/>
      <path d="M32.9 7.7 Q35.3 20.6 36.1 33.95 L36.95 43.5 37.55 48.95 Q37.65 50.05 37.15 50.9 L35.5 51.1 Q34.45 50.1 34.4 48.9 33.9 33.8 31.8 18.75 L30.85 11.4 Q30.6 9.15 31.15 6.85 L32.9 7.7 M24.25 24.5 L24.3 31.65 Q24.55 38.45 25.8 45.15 L26.15 48.65 Q26.25 50.8 24.9 51.6 23.3 47.7 23.8 43.3 23.5 40.1 23.1 31.05 L22.2 24.2 Q21.45 18.8 21.15 13.7 20.85 8.6 22.1 8.2 23.2 8.5 23.7 13.7 24.2 18.9 24.25 24.5" fill="#689878" fill-rule="evenodd" stroke="none"/>
    </g>
  </defs>
</svg>
