<?xml version="1.0" encoding="UTF-8" standalone="no"?>
<svg xmlns:xlink="http://www.w3.org/1999/xlink" height="436.75px" width="359.4px" xmlns="http://www.w3.org/2000/svg">
  <g transform="matrix(1.0, 0.0, 0.0, 1.0, 179.75, 436.75)">
    <use height="36.0" transform="matrix(1.0, 0.0, 0.0, 1.0, -79.55, -36.0)" width="159.0" xlink:href="#shape0"/>
    <use height="96.65" transform="matrix(1.0, 0.0, 0.0, 1.0, -27.15, -108.0)" width="54.2" xlink:href="#shape1"/>
    <use height="37.0" transform="matrix(1.0, 0.0, 0.0, 1.0, -92.65, -94.35)" width="185.25" xlink:href="#shape2"/>
    <use height="15.35" transform="matrix(1.0, 0.0, 0.0, 1.0, -80.25, -82.2)" width="164.5" xlink:href="#text0"/>
    <use height="324.45" transform="matrix(1.0, 0.0, 0.0, 1.0, -130.55, -421.7)" width="261.1" xlink:href="#shape3"/>
    <use height="276.1" transform="matrix(1.0827, 0.0, 0.0, 1.0827, -112.9, -397.5)" width="206.9" xlink:href="#shape4"/>
    <use height="57.2" transform="matrix(1.0, 0.0, 0.0, 1.0, -28.9, -218.55)" width="56.95" xlink:href="#shape5"/>
  </g>
  <defs>
    <g id="shape0" transform="matrix(1.0, 0.0, 0.0, 1.0, 0.0, 0.0)">
      <path d="M135.7 30.75 Q113.3 35.8 79.5 36.0 45.7 35.8 23.3 30.75 0.85 25.65 0.0 18.0 0.85 10.35 23.3 5.25 45.7 0.2 79.5 0.0 113.3 0.2 135.7 5.25 158.15 10.35 159.0 18.0 158.15 25.65 135.7 30.75" fill="#000000" fill-opacity="0.39607844" fill-rule="evenodd" stroke="none"/>
    </g>
    <g id="shape1" transform="matrix(1.0, 0.0, 0.0, 1.0, 0.0, 0.0)">
      <path d="M5.85 93.35 Q-0.15 90.4 0.0 90.0 L0.0 0.0 54.2 0.0 54.2 90.0 Q54.15 90.4 46.95 93.35 39.7 96.25 25.65 96.65 11.8 96.25 5.85 93.35" fill="url(#gradient0)" fill-rule="evenodd" stroke="none"/>
    </g>
    <linearGradient gradientTransform="matrix(0.0303, 0.0, 0.0, 0.0303, 25.7, 48.35)" gradientUnits="userSpaceOnUse" id="gradient0" spreadMethod="pad" x1="-819.2" x2="819.2">
      <stop offset="0.0" stop-color="#565656"/>
      <stop offset="0.403921568627451" stop-color="#9a9999"/>
      <stop offset="0.592156862745098" stop-color="#dbdbda"/>
      <stop offset="0.7803921568627451" stop-color="#9b9a9a"/>
      <stop offset="1.0" stop-color="#151213"/>
    </linearGradient>
    <g id="shape2" transform="matrix(1.0, 0.0, 0.0, 1.0, -0.05, 0.0)">
      <path d="M185.25 8.2 L185.3 8.25 185.25 8.25 185.25 8.2 M1.9 5.2 L2.3 2.85 18.75 2.05 59.05 0.7 Q83.4 0.05 109.4 0.3 115.1 0.55 118.85 1.6 122.65 2.7 128.15 3.0 L129.3 1.5 Q130.05 0.2 130.5 0.0 160.7 0.5 181.5 3.85 L183.45 6.1 103.3 3.5 Q60.0 3.6 6.5 5.1 L1.9 5.2 M176.25 8.0 L176.45 8.4 177.65 11.45 178.5 13.65 Q179.3 12.8 179.7 10.9 179.7 9.8 179.25 9.1 L179.9 9.55 Q180.65 10.3 180.7 11.75 179.85 15.7 177.15 15.05 175.8 14.75 175.1 13.85 L176.15 14.2 177.35 14.25 176.45 12.35 174.9 8.8 174.8 8.5 174.95 8.35 Q175.75 7.8 176.25 8.0 M178.25 27.3 L179.85 27.15 Q180.5 27.3 181.25 27.95 183.6 31.2 181.35 32.8 180.2 33.6 179.1 33.5 L180.8 32.15 178.8 31.55 175.1 30.4 175.2 29.1 175.2 29.0 175.25 28.7 175.4 28.75 175.85 28.9 178.95 30.05 181.1 30.85 Q181.0 29.65 179.9 28.15 179.05 27.45 178.25 27.3 M9.35 6.95 L10.7 10.45 11.7 12.9 Q12.6 11.95 13.05 9.85 13.05 8.55 12.5 7.75 13.85 8.35 14.15 10.05 L13.75 12.35 Q12.6 15.1 10.15 14.55 8.75 14.25 8.0 13.4 L7.85 13.2 9.0 13.6 10.35 13.65 9.35 11.4 7.6 7.45 8.75 6.6 9.2 6.55 9.35 6.95 M9.4 25.3 Q11.0 24.35 12.9 25.8 15.0 28.35 14.35 30.1 L13.4 31.3 Q12.2 32.25 10.95 32.25 L12.75 30.6 10.4 30.05 6.2 29.05 6.15 27.55 6.15 27.1 6.35 27.15 6.9 27.35 10.45 28.4 12.95 29.1 Q12.75 27.8 11.35 26.15 10.35 25.35 9.4 25.3" fill="#47525f" fill-rule="evenodd" stroke="none"/>
      <path d="M0.05 36.7 L0.75 22.9 Q1.05 14.95 1.6 7.0 L1.9 5.2 6.5 5.1 3.2 8.3 1.95 36.45 0.05 36.7" fill="#cdcdcd" fill-rule="evenodd" stroke="none"/>
      <path d="M13.75 12.35 L14.15 10.05 26.45 10.0 13.75 12.35 M8.0 13.4 L7.0 13.55 7.2 26.2 6.35 27.15 6.15 27.1 6.15 27.55 Q5.15 29.5 6.75 31.55 8.95 33.2 10.95 32.25 12.2 32.25 13.4 31.3 L14.35 30.1 16.45 30.2 36.65 31.3 56.5 32.6 Q50.4 32.9 38.0 32.9 L15.1 32.75 3.85 32.6 5.25 10.05 6.0 10.05 Q6.15 12.3 7.85 13.2 L8.0 13.4" fill="#848484" fill-rule="evenodd" stroke="none"/>
      <path d="M175.1 13.85 Q175.8 14.75 177.15 15.05 179.85 15.7 180.7 11.75 180.65 10.3 179.9 9.55 L180.85 9.65 179.85 27.15 178.25 27.3 177.7 27.3 177.8 15.2 160.95 13.3 Q144.35 11.4 115.0 6.95 144.55 7.2 162.45 8.35 L174.1 9.15 Q173.65 9.7 173.4 10.6 173.45 12.95 175.1 13.85 M175.3 32.3 L137.05 30.55 175.2 29.0 175.2 29.1 Q174.3 30.55 175.3 32.3" fill="#a09fa0" fill-rule="evenodd" stroke="none"/>
      <path d="M176.45 8.4 L176.25 8.0 176.9 7.95 Q178.55 8.05 179.25 9.1 179.7 9.8 179.7 10.9 179.3 12.8 178.5 13.65 L177.65 11.45 178.05 10.25 Q178.0 8.55 176.45 8.4 M174.8 8.5 L174.9 8.8 Q174.35 9.2 174.15 10.05 174.2 11.9 175.85 12.3 L176.45 12.35 177.35 14.25 176.15 14.2 175.1 13.85 Q173.45 12.95 173.4 10.6 173.65 9.7 174.1 9.15 L174.8 8.5 M177.7 27.3 L178.25 27.3 Q179.05 27.45 179.9 28.15 181.0 29.65 181.1 30.85 L178.95 30.05 178.3 28.9 Q177.0 27.8 175.85 28.9 L175.4 28.75 175.8 28.3 Q176.7 27.35 177.7 27.3 M179.1 33.5 Q177.3 34.2 175.5 32.65 L175.3 32.3 Q174.3 30.55 175.2 29.1 L175.1 30.4 Q175.25 32.1 176.95 32.35 178.0 32.25 178.8 31.55 L180.8 32.15 179.1 33.5 M10.7 10.45 L11.2 9.05 Q11.15 7.15 9.35 6.95 L9.2 6.55 9.9 6.5 Q11.75 6.6 12.5 7.75 13.05 8.55 13.05 9.85 12.6 11.95 11.7 12.9 L10.7 10.45 M7.2 26.2 Q8.2 25.2 9.4 25.3 10.35 25.35 11.35 26.15 12.75 27.8 12.95 29.1 L10.45 28.4 Q9.75 26.65 8.05 26.6 L6.9 27.35 6.35 27.15 7.2 26.2 M6.0 10.05 L5.95 9.55 Q6.6 7.0 8.75 6.6 L7.6 7.45 Q7.0 7.9 6.75 8.85 6.8 10.95 8.7 11.35 L9.35 11.4 10.35 13.65 9.0 13.6 7.85 13.2 Q6.15 12.3 6.0 10.05 M6.15 27.55 L6.2 29.05 Q6.45 30.9 8.2 31.1 9.7 31.2 10.4 30.05 L12.75 30.6 10.95 32.25 Q8.95 33.2 6.75 31.55 5.15 29.5 6.15 27.55" fill="#9c9c9c" fill-rule="evenodd" stroke="none"/>
      <path d="M174.9 8.8 L176.45 12.35 175.85 12.3 Q174.2 11.9 174.15 10.05 174.35 9.2 174.9 8.8 M177.65 11.45 L176.45 8.4 Q178.0 8.55 178.05 10.25 L177.65 11.45 M175.85 28.9 Q177.0 27.8 178.3 28.9 L178.95 30.05 175.85 28.9 M175.1 30.4 L178.8 31.55 Q178.0 32.25 176.95 32.35 175.25 32.1 175.1 30.4 M9.35 6.95 Q11.15 7.15 11.2 9.05 L10.7 10.45 9.35 6.95 M9.35 11.4 L8.7 11.35 Q6.8 10.95 6.75 8.85 7.0 7.9 7.6 7.45 L9.35 11.4 M10.45 28.4 L6.9 27.35 8.05 26.6 Q9.75 26.65 10.45 28.4 M6.2 29.05 L10.4 30.05 Q9.7 31.2 8.2 31.1 6.45 30.9 6.2 29.05" fill="#d5d4d4" fill-rule="evenodd" stroke="none"/>
      <path d="M183.45 6.1 L185.3 6.25 185.25 8.2 185.25 8.25 185.1 13.45 184.65 27.3 184.3 36.25 Q157.35 34.75 133.85 35.55 L89.2 37.0 Q65.15 37.15 43.55 35.85 22.0 34.5 0.05 36.75 L0.05 36.7 1.95 36.45 3.2 8.3 6.5 5.1 Q60.0 3.6 103.3 3.5 L183.45 6.1 M176.25 8.0 Q175.75 7.8 174.95 8.35 L174.8 8.5 174.1 9.15 162.45 8.35 Q144.55 7.2 115.0 6.95 144.35 11.4 160.95 13.3 L177.8 15.2 177.7 27.3 Q176.7 27.35 175.8 28.3 L175.4 28.75 175.25 28.7 175.2 29.0 137.05 30.55 175.3 32.3 175.5 32.65 Q177.3 34.2 179.1 33.5 180.2 33.6 181.35 32.8 183.6 31.2 181.25 27.95 180.5 27.3 179.85 27.15 L180.85 9.65 179.9 9.55 179.25 9.1 Q178.55 8.05 176.9 7.95 L176.25 8.0 M12.5 7.75 Q11.75 6.6 9.9 6.5 L9.2 6.55 8.75 6.6 Q6.6 7.0 5.95 9.55 L6.0 10.05 5.25 10.05 3.85 32.6 15.1 32.75 38.0 32.9 Q50.4 32.9 56.5 32.6 L36.65 31.3 16.45 30.2 14.35 30.1 Q15.0 28.35 12.9 25.8 11.0 24.35 9.4 25.3 8.2 25.2 7.2 26.2 L7.0 13.55 8.0 13.4 Q8.75 14.25 10.15 14.55 12.6 15.1 13.75 12.35 L26.45 10.0 14.15 10.05 Q13.85 8.35 12.5 7.75" fill="url(#gradient1)" fill-rule="evenodd" stroke="none"/>
    </g>
    <linearGradient gradientTransform="matrix(0.1131, 0.0, 0.0, 0.0204, 92.65, 20.25)" gradientUnits="userSpaceOnUse" id="gradient1" spreadMethod="pad" x1="-819.2" x2="819.2">
      <stop offset="0.0" stop-color="#9a9a9a"/>
      <stop offset="1.0" stop-color="#ffffff"/>
    </linearGradient>
    <g id="text0" transform="matrix(1.0, 0.0, 0.0, 1.0, 8.65, -5.75)">
      <g transform="matrix(1.0, 0.0, 0.0, 1.0, -9.95, 0.0)">
        <use fill="#000000" height="15.35" transform="matrix(0.4746, 0.0, 0.0, 0.4746, 0.0, 21.0)" width="164.5" xlink:href="#font_______W7_N0"/>
        <use fill="#000000" height="15.35" transform="matrix(0.4746, 0.0, 0.0, 0.4746, 14.9, 21.0)" width="164.5" xlink:href="#font_______W7_u0"/>
        <use fill="#000000" height="15.35" transform="matrix(0.4746, 0.0, 0.0, 0.4746, 26.45, 21.0)" width="164.5" xlink:href="#font_______W7_m0"/>
        <use fill="#000000" height="15.35" transform="matrix(0.4746, 0.0, 0.0, 0.4746, 42.0, 21.0)" width="164.5" xlink:href="#font_______W7_b0"/>
        <use fill="#000000" height="15.35" transform="matrix(0.4746, 0.0, 0.0, 0.4746, 54.05, 21.0)" width="164.5" xlink:href="#font_______W7_e0"/>
        <use fill="#000000" height="15.35" transform="matrix(0.4746, 0.0, 0.0, 0.4746, 65.45, 21.0)" width="164.5" xlink:href="#font_______W7_r0"/>
        <use fill="#000000" height="15.35" transform="matrix(0.4746, 0.0, 0.0, 0.4746, 78.3, 21.0)" width="164.5" xlink:href="#font_______W7_C0"/>
        <use fill="#000000" height="15.35" transform="matrix(0.4746, 0.0, 0.0, 0.4746, 92.45, 21.0)" width="164.5" xlink:href="#font_______W7_r0"/>
        <use fill="#000000" height="15.35" transform="matrix(0.4746, 0.0, 0.0, 0.4746, 99.4, 21.0)" width="164.5" xlink:href="#font_______W7_u0"/>
        <use fill="#000000" height="15.35" transform="matrix(0.4746, 0.0, 0.0, 0.4746, 110.9, 21.0)" width="164.5" xlink:href="#font_______W7_n0"/>
        <use fill="#000000" height="15.35" transform="matrix(0.4746, 0.0, 0.0, 0.4746, 122.55, 21.0)" width="164.5" xlink:href="#font_______W7_c0"/>
        <use fill="#000000" height="15.35" transform="matrix(0.4746, 0.0, 0.0, 0.4746, 133.45, 21.0)" width="164.5" xlink:href="#font_______W7_h0"/>
        <use fill="#000000" height="15.35" transform="matrix(0.4746, 0.0, 0.0, 0.4746, 145.6, 21.0)" width="164.5" xlink:href="#font_______W7_e0"/>
        <use fill="#000000" height="15.35" transform="matrix(0.4746, 0.0, 0.0, 0.4746, 157.0, 21.0)" width="164.5" xlink:href="#font_______W7_r0"/>
      </g>
    </g>
    <g id="font_______W7_N0">
      <path d="M23.5 -32.15 L23.5 -32.15 24.85 -14.2 9.85 -31.5 5.1 -32.15 2.55 0.05 12.6 -1.4 10.6 -23.35 25.9 0.05 30.75 -0.65 33.55 -30.75 23.5 -32.15" fill-rule="evenodd" stroke="none"/>
    </g>
    <g id="font_______W7_u0">
      <path d="M24.1 -20.75 L24.1 -20.75 19.25 -21.45 17.9 -8.95 16.15 -11.65 Q13.35 -8.1 10.6 -8.1 9.0 -8.1 8.15 -9.4 7.25 -10.65 7.25 -12.3 7.25 -15.75 8.6 -19.75 L3.9 -21.15 Q2.05 -16.35 2.05 -11.4 2.05 -6.45 4.25 -3.4 6.75 0.05 11.5 0.05 14.55 0.05 17.1 -1.5 L16.95 0.1 26.8 -1.35 24.1 -20.75" fill-rule="evenodd" stroke="none"/>
    </g>
    <g id="font_______W7_m0">
      <path d="M35.35 -9.0 L35.35 -9.0 Q35.35 -21.45 27.8 -21.45 24.2 -21.45 21.15 -18.8 19.2 -21.45 15.65 -21.45 12.4 -21.45 9.45 -19.2 L9.25 -20.75 4.35 -21.45 2.05 0.05 11.95 -1.4 10.25 -13.85 Q12.25 -15.8 13.75 -15.8 16.4 -15.8 16.4 -11.2 16.4 -8.95 15.2 -5.8 L12.95 -0.75 22.1 0.1 Q23.3 -4.75 23.3 -9.55 23.3 -12.35 22.95 -14.3 24.5 -15.7 25.75 -15.7 28.25 -15.7 28.25 -11.2 28.25 -7.95 25.1 -0.65 L34.25 0.2 Q35.35 -4.25 35.35 -9.0" fill-rule="evenodd" stroke="none"/>
    </g>
    <g id="font_______W7_b0">
      <path d="M20.9 -12.9 L20.9 -12.9 Q20.9 -9.4 17.6 -9.4 15.3 -9.4 13.25 -11.85 L11.45 -8.4 10.95 -14.2 Q13.25 -16.5 16.3 -16.5 17.85 -16.5 19.35 -15.5 20.9 -14.45 20.9 -12.9 M28.25 -10.45 L28.25 -10.45 Q28.25 -15.0 25.1 -18.25 21.9 -21.45 17.35 -21.45 13.75 -21.45 10.5 -19.25 L9.35 -31.5 4.65 -32.15 2.05 0.05 12.15 -0.75 12.15 -2.05 Q14.7 0.05 18.2 0.05 22.6 0.05 25.4 -3.0 28.25 -6.0 28.25 -10.45" fill-rule="evenodd" stroke="none"/>
    </g>
    <g id="font_______W7_e0">
      <path d="M19.45 -9.9 L19.45 -9.9 Q16.75 -7.55 13.6 -7.55 10.45 -7.55 9.15 -9.9 L19.45 -9.9 M9.0 -13.4 L9.0 -13.4 Q9.7 -14.95 11.5 -15.95 13.2 -16.8 15.1 -16.8 18.05 -16.8 19.65 -14.35 L9.0 -13.4 M23.25 -9.9 L23.25 -9.9 24.3 -9.9 26.7 -12.6 Q25.85 -16.7 22.9 -19.1 19.9 -21.45 15.15 -21.45 9.65 -21.45 5.9 -18.65 1.8 -15.6 1.8 -10.4 1.8 -5.35 5.8 -2.5 9.3 0.05 14.6 0.05 22.45 0.05 27.15 -4.25 L23.25 -9.9" fill-rule="evenodd" stroke="none"/>
    </g>
    <g id="font_______W7_r0">
      <path d="M18.3 -20.6 L18.3 -20.6 Q16.55 -21.45 14.75 -21.45 11.5 -21.45 8.7 -18.65 L8.45 -20.75 4.45 -21.45 2.55 0.05 10.65 -1.4 9.3 -12.8 Q10.55 -14.85 12.3 -14.85 13.25 -14.85 14.55 -13.85 L16.55 -12.05 18.3 -20.6" fill-rule="evenodd" stroke="none"/>
    </g>
    <g id="font_______W7_C0">
      <path d="M26.2 -15.4 L26.2 -15.4 Q21.6 -8.3 16.1 -8.3 12.35 -8.3 10.4 -10.7 8.6 -12.9 8.6 -16.75 8.6 -21.2 11.05 -23.95 13.55 -26.6 17.95 -26.6 23.65 -26.6 27.3 -22.25 L31.1 -26.05 Q28.65 -28.9 25.1 -30.55 21.55 -32.15 17.8 -32.15 10.8 -32.15 6.45 -27.4 2.05 -22.7 2.05 -15.6 2.05 -8.95 6.35 -4.45 10.7 0.05 17.3 0.05 25.6 0.05 32.65 -7.35 L26.2 -15.4" fill-rule="evenodd" stroke="none"/>
    </g>
    <g id="font_______W7_n0">
      <path d="M27.0 -9.05 L27.0 -9.05 Q27.0 -14.5 24.65 -17.8 21.9 -21.45 16.6 -21.45 12.6 -21.45 9.45 -18.85 L9.2 -20.75 4.35 -21.45 2.05 0.05 11.95 -1.4 10.35 -12.55 Q12.95 -15.85 15.9 -15.85 19.4 -15.85 19.4 -10.6 19.4 -6.9 16.6 -1.3 L26.2 0.0 Q27.0 -6.5 27.0 -9.05" fill-rule="evenodd" stroke="none"/>
    </g>
    <g id="font_______W7_c0">
      <path d="M21.35 -12.5 L21.35 -12.5 Q19.95 -10.5 17.75 -9.15 15.35 -7.6 13.15 -7.6 11.4 -7.6 10.2 -8.85 8.9 -10.05 8.9 -11.8 8.9 -14.1 10.65 -15.4 12.2 -16.55 14.55 -16.55 18.9 -16.55 21.9 -13.7 L24.4 -17.55 Q19.65 -21.45 13.1 -21.45 8.05 -21.45 4.9 -18.4 1.8 -15.3 1.8 -10.3 1.8 -5.6 5.7 -2.65 9.25 0.05 14.1 0.05 17.2 0.05 20.45 -1.1 24.05 -2.3 25.9 -4.4 L21.35 -12.5" fill-rule="evenodd" stroke="none"/>
    </g>
    <g id="font_______W7_h0">
      <path d="M28.1 -7.6 L28.1 -7.6 Q28.1 -13.7 25.7 -17.25 22.9 -21.45 17.05 -21.45 13.35 -21.45 10.45 -19.3 L9.3 -31.55 4.65 -32.15 2.05 0.05 12.1 -1.4 11.0 -12.9 Q13.45 -15.95 16.35 -15.95 20.1 -15.95 20.1 -10.2 20.1 -6.55 17.6 -1.55 L27.6 0.05 28.1 -7.6" fill-rule="evenodd" stroke="none"/>
    </g>
    <g id="shape3" transform="matrix(1.0, 0.0, 0.0, 1.0, 9.95, 25.0)">
      <path d="M243.05 192.0 L234.9 139.85 168.55 97.95 180.15 80.45 178.45 76.05 144.05 -18.45 104.5 -11.7 64.9 77.6 69.9 100.3 70.15 101.45 7.65 132.25 -5.2 188.2 6.7 278.95 14.5 292.8 16.6 296.5 208.7 296.5 220.35 288.3 244.9 227.9 243.05 192.0 M187.05 74.55 L184.35 81.65 177.15 96.1 244.8 136.25 251.15 234.25 225.55 292.1 210.65 299.45 13.05 299.45 0.7 280.8 -9.95 181.5 2.3 128.2 63.2 101.6 58.6 77.3 105.35 -17.55 148.1 -25.0 187.05 74.55 M139.7 -11.25 L139.7 -9.05 131.0 0.05 131.0 -2.25 131.05 -2.25 139.7 -11.25 M142.95 -5.85 Q143.7 0.55 137.8 2.25 135.3 3.0 133.15 1.65 L133.05 -0.5 Q134.6 0.4 136.45 0.45 142.4 -0.1 142.95 -5.85 M74.35 88.1 Q74.45 89.1 75.0 89.95 L75.75 90.7 76.45 91.0 Q82.0 92.95 82.8 87.2 82.75 96.55 75.6 90.95 74.4 89.95 74.35 88.1 M76.05 86.65 L76.35 86.2 76.4 86.2 76.05 86.65 M23.2 135.0 L24.45 133.7 24.45 135.95 15.75 145.05 15.75 142.7 23.2 135.0 M27.6 139.15 Q28.3 145.45 22.5 147.2 20.05 147.9 17.8 146.6 L17.75 144.5 Q19.25 145.3 21.1 145.4 27.0 144.95 27.6 139.15 M56.8 287.0 L56.7 288.2 Q52.85 297.5 49.2 289.9 L49.75 290.45 50.45 290.75 Q56.05 292.7 56.8 287.0 M231.65 205.45 L232.2 206.0 232.9 206.3 Q238.45 208.25 239.25 202.55 239.35 203.2 239.1 203.7 235.2 212.7 231.65 205.45" fill="#47525f" fill-rule="evenodd" stroke="none"/>
      <path d="M178.45 76.05 L180.15 80.45 168.55 97.95 234.9 139.85 243.05 192.0 14.5 292.8 6.7 278.95 -5.2 188.2 7.65 132.25 70.15 101.45 69.9 100.3 178.45 76.05 M140.55 -8.35 L141.7 -9.5 Q142.55 -3.3 137.0 -1.2 135.2 -0.4 133.05 -0.5 L140.55 -8.35 M24.0 133.45 Q22.95 132.9 21.85 132.9 15.45 132.9 14.45 139.2 L14.9 141.2 15.75 145.05 17.8 146.6 Q20.05 147.9 22.5 147.2 28.3 145.45 27.6 139.15 L26.35 135.45 Q26.75 138.0 25.7 140.25 23.5 145.1 17.75 144.5 L25.3 136.65 24.45 135.95 24.45 133.7 23.2 135.0 24.0 133.45" fill="#bab9ba" fill-rule="evenodd" stroke="none"/>
      <path d="M178.45 76.05 L69.9 100.3 64.9 77.6 104.5 -11.7 144.05 -18.45 178.45 76.05 M14.5 292.8 L243.05 192.0 244.9 227.9 220.35 288.3 208.7 296.5 16.6 296.5 14.5 292.8 M139.1 -11.45 Q132.9 -13.6 130.15 -7.2 L129.7 -5.8 130.15 -3.8 131.0 0.05 133.15 1.65 Q135.3 3.0 137.8 2.25 143.7 0.55 142.95 -5.85 L141.7 -9.5 140.55 -8.35 Q140.1 -8.65 139.7 -9.05 L139.7 -11.25 139.1 -11.45 M130.75 -3.75 L130.8 -3.85 130.75 -3.65 130.75 -3.75 M131.05 -2.25 L131.0 -2.25 131.0 -2.3 131.05 -2.25 M76.35 86.2 L76.45 86.1 76.4 86.2 76.35 86.2 M79.75 84.2 L80.55 83.95 Q75.25 82.6 74.35 88.1 74.4 89.95 75.6 90.95 82.75 96.55 82.8 87.2 L81.9 85.15 80.55 84.05 79.75 84.2 M50.35 285.95 Q51.85 284.1 54.6 283.75 L53.65 283.4 Q48.75 282.9 48.35 287.85 48.45 288.85 49.0 289.7 L49.2 289.9 Q52.85 297.5 56.7 288.2 L56.8 287.0 55.95 284.9 54.6 283.8 50.35 285.95 M238.35 200.45 L237.0 199.35 232.95 201.35 Q234.5 199.65 237.0 199.3 L236.1 198.95 Q231.1 198.45 230.8 203.4 230.9 204.4 231.45 205.25 L231.65 205.45 Q235.2 212.7 239.1 203.7 239.35 203.2 239.25 202.55 L238.35 200.45" fill="#9c9c9c" fill-rule="evenodd" stroke="none"/>
      <path d="M130.15 -3.8 L129.7 -5.8 130.15 -7.2 Q132.9 -13.6 139.1 -11.45 134.0 -9.7 131.35 -4.95 L130.8 -3.85 130.75 -3.75 130.65 -2.8 130.15 -3.8 M76.45 86.1 L76.35 86.2 76.05 86.65 75.0 89.95 Q74.45 89.1 74.35 88.1 75.25 82.6 80.55 83.95 L79.75 84.2 76.45 86.1 M14.9 141.2 L14.45 139.2 Q15.45 132.9 21.85 132.9 22.95 132.9 24.0 133.45 17.6 135.4 15.5 141.5 L15.4 142.15 14.9 141.2 M49.0 289.7 Q48.45 288.85 48.35 287.85 48.75 282.9 53.65 283.4 L54.6 283.75 Q51.85 284.1 50.35 285.95 L49.05 289.55 49.0 289.7 M232.95 201.35 L231.45 205.25 Q230.9 204.4 230.8 203.4 231.1 198.45 236.1 198.95 L237.0 199.3 Q234.5 199.65 232.95 201.35" fill="#e9e9eb" fill-rule="evenodd" stroke="none"/>
      <path d="M130.8 -3.85 L131.35 -4.95 Q134.0 -9.7 139.1 -11.45 L139.7 -11.25 131.05 -2.25 131.0 -2.3 130.75 -3.65 130.8 -3.85 M76.45 86.1 L79.75 84.2 80.55 84.05 81.9 85.15 81.8 86.15 Q80.75 91.05 75.75 90.7 L75.0 89.95 76.05 86.65 76.4 86.2 76.45 86.1 M24.0 133.45 L23.2 135.0 15.75 142.7 15.4 142.15 15.5 141.5 Q17.6 135.4 24.0 133.45 M50.35 285.95 L54.6 283.8 55.95 284.9 55.8 285.85 Q54.8 290.95 49.75 290.45 L49.2 289.9 49.0 289.7 49.05 289.55 50.35 285.95 M238.35 200.45 L238.25 201.45 Q237.15 206.5 232.2 206.0 L231.65 205.45 231.45 205.25 232.95 201.35 237.0 199.35 238.35 200.45" fill="#d0cfd0" fill-rule="evenodd" stroke="none"/>
      <path d="M141.7 -9.5 L142.95 -5.85 Q142.4 -0.1 136.45 0.45 134.6 0.4 133.05 -0.5 135.2 -0.4 137.0 -1.2 142.55 -3.3 141.7 -9.5 M75.75 90.7 Q80.75 91.05 81.8 86.15 L81.9 85.15 82.8 87.2 Q82.0 92.95 76.45 91.0 L75.75 90.7 M17.75 144.5 Q23.5 145.1 25.7 140.25 26.75 138.0 26.35 135.45 L27.6 139.15 Q27.0 144.95 21.1 145.4 19.25 145.3 17.75 144.5 M55.95 284.9 L56.8 287.0 Q56.05 292.7 50.45 290.75 L49.75 290.45 Q54.8 290.95 55.8 285.85 L55.95 284.9 M232.2 206.0 Q237.15 206.5 238.25 201.45 L238.35 200.45 239.25 202.55 Q238.45 208.25 232.9 206.3 L232.2 206.0" fill="#b0aeb3" fill-rule="evenodd" stroke="none"/>
      <path d="M139.7 -9.05 Q140.1 -8.65 140.55 -8.35 L133.05 -0.5 133.15 1.65 131.0 0.05 139.7 -9.05 M24.45 135.95 L25.3 136.65 17.75 144.5 17.8 146.6 15.75 145.05 24.45 135.95" fill="#57565b" fill-rule="evenodd" stroke="none"/>
      <path d="M130.15 -3.8 L130.65 -2.8 130.75 -3.75 130.75 -3.65 131.0 -2.3 131.0 -2.25 131.0 0.05 130.15 -3.8 M15.75 145.05 L14.9 141.2 15.4 142.15 15.75 142.7 15.75 145.05" fill="#79818b" fill-rule="evenodd" stroke="none"/>
    </g>
    <g id="shape4" transform="matrix(1.0, 0.0, 0.0, 1.0, 0.0, 0.0)">
      <path d="M143.3 61.5 Q149.25 75.5 142.55 89.25 L140.5 93.65 159.8 106.6 159.95 107.0 161.6 106.95 201.7 130.8 202.2 131.5 201.45 134.1 206.9 179.25 202.7 230.75 194.5 252.9 197.65 257.15 197.55 258.25 177.05 276.05 Q166.55 268.7 158.75 258.35 L163.15 253.95 161.85 252.55 162.45 250.5 152.4 212.45 145.0 220.05 152.7 274.05 152.35 275.25 151.2 275.75 59.6 276.1 58.5 275.75 58.1 274.5 62.55 221.85 49.75 206.85 42.8 246.35 45.65 248.6 42.4 255.6 46.1 259.9 45.95 261.45 Q37.15 269.45 27.05 275.75 L26.35 275.7 4.9 255.25 8.5 250.35 3.6 228.35 0.0 181.05 8.1 133.55 9.0 132.25 73.55 93.5 74.35 93.25 61.5 72.3 70.05 52.75 93.9 0.9 95.3 0.0 121.25 0.9 122.65 1.9 142.8 60.1 143.3 61.5 M198.95 138.25 L154.9 209.8 164.85 247.8 177.75 233.35 178.65 233.4 192.3 250.3 199.75 230.3 203.9 179.45 198.95 138.25 M129.9 49.3 L132.6 53.8 136.5 51.0 135.3 47.65 132.8 46.85 129.9 49.3 M130.55 46.1 L119.0 43.55 115.8 46.1 114.95 45.8 114.55 45.0 Q108.3 49.05 101.45 45.35 L101.0 45.8 100.4 45.9 97.75 43.5 92.95 45.1 98.15 51.75 97.5 52.6 Q92.15 53.55 87.55 56.65 L88.25 58.15 Q95.35 54.15 101.95 58.95 L103.95 54.15 126.1 56.85 127.8 51.95 129.25 52.15 127.65 48.95 130.55 46.1 M92.45 11.1 L86.65 23.75 104.6 31.2 104.0 32.45 85.8 25.55 73.9 51.45 76.8 49.8 Q87.0 44.2 98.25 41.4 L99.85 42.75 100.7 42.6 101.05 42.75 102.8 43.7 Q105.3 45.15 108.25 45.0 L110.4 44.35 111.55 44.1 Q113.2 43.5 114.65 42.55 L115.5 42.65 116.1 43.5 117.2 42.65 116.85 41.1 116.35 39.7 114.85 36.7 115.6 35.55 115.95 35.65 116.4 36.0 Q118.0 37.7 118.75 39.95 L119.1 41.25 134.45 45.25 130.55 33.95 113.1 34.05 112.9 32.95 129.85 32.0 127.1 24.0 112.25 32.3 111.15 31.0 126.4 22.05 122.2 9.95 120.1 3.9 96.2 3.05 92.45 11.1 M82.95 33.65 L83.25 32.75 101.6 32.1 102.5 32.8 102.05 34.05 83.25 34.2 82.95 33.65 M118.0 63.4 Q98.95 62.85 82.05 71.1 75.15 74.4 69.3 79.15 L78.4 94.1 Q85.4 96.15 108.1 100.05 L118.35 97.3 Q129.95 94.2 137.6 93.0 L144.55 77.45 Q139.5 72.75 133.6 69.3 L128.15 66.2 128.15 66.9 Q120.0 73.55 115.65 83.0 113.5 87.65 112.7 92.7 L112.3 92.85 100.05 88.75 99.75 87.25 Q104.5 78.2 111.7 70.55 115.05 67.0 118.75 64.0 L118.0 63.4 M121.4 64.4 Q108.35 73.0 102.05 87.35 L111.25 90.45 Q113.45 75.15 126.1 66.1 L126.3 65.35 121.45 63.95 121.4 64.4 M103.4 60.7 Q115.05 60.35 126.25 63.2 L126.1 58.9 105.35 55.9 103.4 60.7 M101.2 61.1 Q95.7 55.5 88.85 60.15 L89.75 63.6 90.3 62.95 Q93.9 58.95 98.15 61.75 L101.2 61.1 M81.15 61.8 L81.35 58.8 78.3 53.95 92.8 45.15 Q82.2 48.9 72.45 54.7 L71.5 56.9 70.25 59.5 66.35 67.95 65.15 70.55 64.6 71.7 68.2 77.45 72.2 74.5 76.45 71.3 78.9 69.7 80.8 68.65 81.15 61.8 M83.35 58.5 L82.85 67.65 88.2 65.55 Q87.95 60.25 84.5 55.95 L83.35 58.5 M83.95 53.9 L84.65 53.85 Q85.6 54.1 86.4 55.0 L89.0 53.1 Q91.85 51.0 95.15 50.7 L92.45 47.3 80.75 54.2 82.0 56.15 Q82.7 54.3 83.95 53.9 M96.8 63.15 L94.8 62.35 92.0 64.15 96.8 63.15 M142.2 72.4 L144.7 74.8 143.65 71.75 142.2 72.4 M141.9 66.75 L136.3 66.8 136.4 68.2 140.2 71.05 143.0 69.85 141.9 66.75 M134.55 59.35 L139.35 59.35 137.2 53.05 132.9 56.05 134.55 59.35 M135.35 61.35 L136.05 64.55 141.25 64.75 140.1 61.5 135.35 61.35 M134.3 67.05 Q134.05 62.15 131.65 58.05 L128.5 54.05 Q127.35 59.15 128.5 64.15 L134.3 67.05 M138.2 96.0 L108.8 102.55 120.5 110.6 135.75 102.1 138.65 96.3 138.2 96.0 M57.65 128.05 L52.0 109.9 11.5 134.2 32.75 182.2 65.6 221.5 61.25 273.1 100.35 273.1 101.2 172.2 101.35 171.6 67.85 140.4 67.55 139.55 72.85 130.4 58.9 129.1 Q57.95 128.95 57.65 128.05 M76.35 128.85 Q74.45 134.1 70.8 139.05 L102.75 168.8 103.25 167.7 73.6 96.95 54.65 108.35 60.15 126.2 75.55 128.0 Q76.65 127.95 76.35 128.85 M10.25 138.75 L3.0 180.95 6.6 227.95 10.95 247.45 21.75 235.4 39.95 244.75 41.05 233.9 47.3 203.95 30.3 184.0 10.25 138.75 M159.55 109.1 L155.6 128.0 142.4 130.9 148.2 135.1 148.5 135.5 148.7 135.95 148.8 136.95 104.4 172.2 104.2 172.6 103.35 273.1 149.5 272.75 141.95 219.7 152.4 208.15 198.85 132.65 160.05 109.55 159.55 109.1 M138.95 103.3 L107.5 166.0 144.85 136.35 137.45 130.2 137.4 129.75 137.7 129.35 153.25 126.0 156.75 108.0 141.15 98.05 138.8 102.9 138.95 103.3 M115.0 110.4 L112.5 115.4 119.9 134.2 133.75 106.65 120.05 113.65 115.0 110.4 M102.85 117.4 L94.5 139.1 105.0 164.15 118.1 137.85 109.85 116.95 102.85 117.4 M112.5 108.7 L106.2 104.4 101.15 108.85 102.9 114.4 109.9 113.9 112.5 108.7 M82.05 109.35 L92.8 135.1 100.25 115.9 98.7 111.0 96.25 113.15 82.05 109.35 M103.65 102.65 L77.0 96.75 80.75 106.2 95.2 110.1 103.65 102.65 M38.15 257.05 L42.35 249.5 22.3 238.55 8.5 255.05 27.4 272.6 42.55 260.35 40.8 258.35 39.6 259.9 39.25 259.95 34.15 260.55 33.35 260.25 Q29.1 258.3 25.05 256.05 24.35 255.6 24.5 254.85 L25.85 250.3 Q26.0 249.85 26.55 249.8 27.4 249.45 27.8 250.3 28.65 252.05 27.7 254.3 L34.25 257.5 38.15 257.05 M178.9 259.45 Q179.9 260.95 178.25 261.75 176.4 261.7 175.6 259.75 L170.3 261.1 165.2 256.15 162.4 258.8 176.45 272.55 194.1 257.35 178.1 237.15 165.3 251.85 171.15 257.95 173.6 257.2 Q172.5 255.85 173.8 254.65 174.6 254.0 175.15 254.65 L178.9 259.45" fill="#1a1a1a" fill-rule="evenodd" stroke="none"/>
      <path d="M198.95 138.25 L203.9 179.45 199.75 230.3 192.3 250.3 178.65 233.4 177.75 233.35 164.85 247.8 154.9 209.8 198.95 138.25 M122.2 9.95 Q113.45 10.25 107.95 17.65 L107.85 17.9 Q101.55 10.25 92.45 11.1 L96.2 3.05 120.1 3.9 122.2 9.95 M138.95 103.3 L138.8 102.9 141.15 98.05 156.75 108.0 153.25 126.0 137.7 129.35 137.4 129.75 137.45 130.2 144.85 136.35 107.5 166.0 138.95 103.3 M159.55 109.1 L160.05 109.55 198.85 132.65 152.4 208.15 141.95 219.7 149.5 272.75 103.35 273.1 104.2 172.6 104.4 172.2 148.8 136.95 148.7 135.95 148.5 135.5 148.2 135.1 142.4 130.9 155.6 128.0 159.55 109.1 M10.25 138.75 L30.3 184.0 47.3 203.95 41.05 233.9 39.95 244.75 21.75 235.4 10.95 247.45 6.6 227.95 3.0 180.95 10.25 138.75 M76.35 128.85 Q76.65 127.95 75.55 128.0 L60.15 126.2 54.65 108.35 73.6 96.95 103.25 167.7 102.75 168.8 70.8 139.05 Q74.45 134.1 76.35 128.85 M57.65 128.05 Q57.95 128.95 58.9 129.1 L72.85 130.4 67.55 139.55 67.85 140.4 101.35 171.6 101.2 172.2 100.35 273.1 61.25 273.1 65.6 221.5 32.75 182.2 11.5 134.2 52.0 109.9 57.65 128.05" fill="#106557" fill-rule="evenodd" stroke="none"/>
      <path d="M122.2 9.95 L126.4 22.05 111.15 31.0 112.25 32.3 127.1 24.0 129.85 32.0 112.9 32.95 113.1 34.05 130.55 33.95 134.45 45.25 119.1 41.25 118.75 39.95 Q118.0 37.7 116.4 36.0 L115.95 35.65 115.6 35.55 114.85 36.7 116.35 39.7 116.85 41.1 117.2 42.65 116.1 43.5 115.5 42.65 114.65 42.55 Q113.2 43.5 111.55 44.1 L110.4 44.35 108.25 45.0 Q105.3 45.15 102.8 43.7 L101.05 42.75 100.7 42.6 99.85 42.75 98.25 41.4 Q87.0 44.2 76.8 49.8 L73.9 51.45 85.8 25.55 104.0 32.45 104.6 31.2 86.65 23.75 92.45 11.1 Q101.55 10.25 107.85 17.9 L107.95 17.65 Q113.45 10.25 122.2 9.95 M130.55 46.1 L127.65 48.95 129.25 52.15 127.8 51.95 126.1 56.85 103.95 54.15 101.95 58.95 Q95.35 54.15 88.25 58.15 L87.55 56.65 Q92.15 53.55 97.5 52.6 L98.15 51.75 92.95 45.1 97.75 43.5 100.4 45.9 101.0 45.8 101.45 45.35 Q108.3 49.05 114.55 45.0 L114.95 45.8 115.8 46.1 119.0 43.55 130.55 46.1 M118.0 63.4 L118.75 64.0 Q115.05 67.0 111.7 70.55 104.5 78.2 99.75 87.25 L100.05 88.75 112.3 92.85 112.7 92.7 Q113.5 87.65 115.65 83.0 120.0 73.55 128.15 66.9 L128.15 66.2 133.6 69.3 Q139.5 72.75 144.55 77.45 L137.6 93.0 Q129.95 94.2 118.35 97.3 L108.1 100.05 Q85.4 96.15 78.4 94.1 L69.3 79.15 Q75.15 74.4 82.05 71.1 98.95 62.85 118.0 63.4 M82.95 33.65 L83.25 34.2 102.05 34.05 102.5 32.8 101.6 32.1 83.25 32.75 82.95 33.65 M71.5 56.9 L72.45 54.7 Q82.2 48.9 92.8 45.15 L78.3 53.95 81.35 58.8 81.15 61.8 80.65 60.9 Q77.5 55.65 71.5 56.9 M72.2 74.5 L68.2 77.45 64.6 71.7 65.15 70.55 Q65.8 72.45 67.15 73.45 69.0 74.95 72.2 74.5 M83.35 58.5 L84.5 55.95 Q87.95 60.25 88.2 65.55 L82.85 67.65 83.35 58.5 M96.8 63.15 L92.0 64.15 94.8 62.35 96.8 63.15 M134.55 59.35 L132.9 56.05 137.2 53.05 139.35 59.35 134.55 59.35 M141.9 66.75 L143.0 69.85 140.2 71.05 136.4 68.2 136.3 66.8 141.9 66.75 M138.2 96.0 L138.65 96.3 135.75 102.1 120.5 110.6 108.8 102.55 138.2 96.0 M134.3 67.05 L128.5 64.15 Q127.35 59.15 128.5 54.05 L131.65 58.05 Q134.05 62.15 134.3 67.05 M70.55 68.85 L70.5 66.4 Q74.3 62.75 76.25 66.6 76.85 67.9 75.85 68.85 73.15 70.15 70.55 68.85 M115.0 110.4 L120.05 113.65 133.75 106.65 119.9 134.2 112.5 115.4 115.0 110.4 M178.9 259.45 L175.15 254.65 Q174.6 254.0 173.8 254.65 172.5 255.85 173.6 257.2 L171.15 257.95 165.3 251.85 178.1 237.15 194.1 257.35 176.45 272.55 162.4 258.8 165.2 256.15 170.3 261.1 175.6 259.75 Q176.4 261.7 178.25 261.75 179.9 260.95 178.9 259.45 M38.15 257.05 L34.25 257.5 27.7 254.3 Q28.65 252.05 27.8 250.3 27.4 249.45 26.55 249.8 26.0 249.85 25.85 250.3 L24.5 254.85 Q24.35 255.6 25.05 256.05 29.1 258.3 33.35 260.25 L34.15 260.55 39.25 259.95 39.6 259.9 40.8 258.35 42.55 260.35 27.4 272.6 8.5 255.05 22.3 238.55 42.35 249.5 38.15 257.05 M103.65 102.65 L95.2 110.1 80.75 106.2 77.0 96.75 103.65 102.65 M82.05 109.35 L96.25 113.15 98.7 111.0 100.25 115.9 92.8 135.1 82.05 109.35" fill="#c1d9cb" fill-rule="evenodd" stroke="none"/>
      <path d="M129.9 49.3 L132.8 46.85 135.3 47.65 136.5 51.0 132.6 53.8 129.9 49.3 M142.2 72.4 L143.65 71.75 144.7 74.8 142.2 72.4" fill="#ffd25f" fill-rule="evenodd" stroke="none"/>
      <path d="M103.4 60.7 L105.35 55.9 126.1 58.9 126.25 63.2 Q115.05 60.35 103.4 60.7 M121.4 64.4 L121.45 63.95 126.3 65.35 126.1 66.1 Q113.45 75.15 111.25 90.45 L102.05 87.35 Q108.35 73.0 121.4 64.4" fill="#ff7fed" fill-rule="evenodd" stroke="none"/>
      <path d="M101.2 61.1 L98.15 61.75 Q93.9 58.95 90.3 62.95 L89.75 63.6 88.85 60.15 Q95.7 55.5 101.2 61.1 M83.95 53.9 Q82.7 54.3 82.0 56.15 L80.75 54.2 92.45 47.3 95.15 50.7 Q91.85 51.0 89.0 53.1 L86.4 55.0 Q85.6 54.1 84.65 53.85 L83.95 53.9" fill="#7f81ff" fill-rule="evenodd" stroke="none"/>
      <path d="M142.8 60.1 Q144.15 59.2 145.95 59.5 L146.8 59.8 Q144.6 60.05 143.3 61.5 L142.8 60.1" fill="#e9e9eb" fill-rule="evenodd" stroke="none"/>
      <path d="M71.5 56.9 Q77.5 55.65 80.65 60.9 L81.15 61.8 80.8 68.65 78.9 69.7 Q80.65 66.85 79.55 63.7 77.05 56.8 70.25 59.5 L71.5 56.9 M76.45 71.3 L72.2 74.5 Q69.0 74.95 67.15 73.45 65.8 72.45 65.15 70.55 L66.35 67.95 Q66.65 71.35 69.6 72.2 73.4 73.25 76.45 71.3 M70.55 68.85 Q73.15 70.15 75.85 68.85 76.85 67.9 76.25 66.6 74.3 62.75 70.5 66.4 L70.55 68.85 M74.5 71.4 Q71.4 71.95 69.1 69.95 67.75 63.6 74.25 62.8 77.7 63.1 78.1 66.35 78.65 70.4 74.5 71.4" fill="#000000" fill-rule="evenodd" stroke="none"/>
      <path d="M78.9 69.7 L76.45 71.3 Q73.4 73.25 69.6 72.2 66.65 71.35 66.35 67.95 L70.25 59.5 Q77.05 56.8 79.55 63.7 80.65 66.85 78.9 69.7 M74.5 71.4 Q78.65 70.4 78.1 66.35 77.7 63.1 74.25 62.8 67.75 63.6 69.1 69.95 71.4 71.95 74.5 71.4" fill="#d5ff9f" fill-rule="evenodd" stroke="none"/>
      <path d="M112.5 108.7 L109.9 113.9 102.9 114.4 101.15 108.85 106.2 104.4 112.5 108.7 M102.85 117.4 L109.85 116.95 118.1 137.85 105.0 164.15 94.5 139.1 102.85 117.4" fill="#0e4239" fill-rule="evenodd" stroke="none"/>
    </g>
    <g id="shape5" transform="matrix(1.0, 0.0, 0.0, 1.0, -0.25, -0.1)">
      <path d="M41.5 9.2 Q42.4 9.55 43.15 9.95 46.05 11.85 46.9 14.2 L47.35 15.85 47.65 17.9 47.25 18.65 44.0 19.2 38.3 19.95 37.2 18.3 37.9 23.9 45.75 25.9 Q47.7 26.7 49.5 27.85 L51.3 29.45 51.9 30.15 53.05 32.2 Q53.9 34.55 53.45 37.4 53.05 39.65 51.8 42.25 50.75 44.2 48.5 45.95 L41.3 49.9 41.5 51.65 41.65 52.55 41.55 54.25 40.85 54.55 36.85 54.55 33.35 54.55 32.45 54.35 32.1 53.1 32.0 51.75 29.9 51.65 29.95 52.0 30.05 53.35 30.25 54.95 30.05 55.55 29.7 55.8 21.15 55.75 20.85 54.7 20.85 53.9 20.8 52.15 20.8 50.7 Q14.65 48.7 10.65 43.65 L7.9 38.1 7.55 35.2 8.6 34.85 10.8 34.65 18.35 34.25 20.5 38.15 19.95 29.25 Q14.15 29.25 10.1 25.5 8.95 24.2 8.45 22.85 7.9 20.7 8.2 18.6 8.55 16.85 9.35 15.4 10.25 14.05 11.4 12.85 L14.5 10.85 17.6 9.4 17.5 8.85 17.35 8.15 17.1 6.75 17.15 4.7 17.75 4.4 24.8 4.3 25.3 5.6 25.4 6.25 25.5 7.1 27.25 6.95 27.1 6.05 27.05 5.4 26.95 4.05 31.85 2.35 33.7 2.05 35.15 2.35 35.4 3.05 35.6 5.0 35.8 6.45 35.85 7.15 35.9 7.6 38.4 8.15 Q40.1 8.6 41.5 9.2 M45.7 17.05 Q45.55 13.85 43.0 11.9 39.95 9.6 36.1 8.95 L36.85 15.25 Q38.5 16.2 39.2 17.9 L45.7 17.05 M50.5 31.85 Q50.15 30.75 49.3 29.9 44.5 25.35 38.05 25.6 L38.65 30.05 39.6 30.55 Q42.85 32.45 41.55 36.3 L39.75 38.5 41.0 47.75 45.35 45.65 Q47.2 44.6 48.4 43.0 52.3 37.95 50.5 31.85 M27.4 8.2 L25.7 8.35 26.75 14.8 28.3 14.65 27.4 8.2 M28.4 15.6 L26.8 15.75 27.6 23.3 29.5 23.7 28.4 15.6 M25.75 23.5 L23.6 5.85 19.25 5.95 20.8 20.4 21.2 26.55 Q22.1 40.45 22.3 54.4 L28.25 54.0 25.75 23.5 M33.65 3.4 L28.7 4.7 Q30.45 15.1 31.3 25.55 L32.1 34.2 33.65 52.85 39.75 52.65 33.65 3.4 M10.9 18.95 L10.85 19.95 Q10.85 20.9 11.15 21.85 13.15 27.7 19.8 27.9 L19.5 24.35 Q17.9 24.05 17.15 22.75 14.95 18.95 18.75 16.85 L17.85 10.85 Q14.85 12.2 12.8 14.55 11.15 16.4 10.9 18.95 M18.25 20.55 Q18.5 21.5 19.1 22.15 L18.9 18.45 Q17.95 19.3 18.25 20.55 M17.1 36.0 L9.45 36.65 9.8 37.65 Q13.15 45.05 20.75 48.3 L20.55 39.4 Q18.1 38.3 17.1 36.0 M38.85 31.85 L39.5 36.6 Q40.7 34.95 39.5 32.5 L38.85 31.85 M27.8 25.4 L28.1 28.4 30.2 28.6 29.75 25.5 27.8 25.4 M30.35 29.8 L28.2 29.6 29.05 39.75 31.25 39.65 30.35 29.8 M31.35 40.85 L29.15 40.95 29.75 49.8 31.9 49.75 31.35 40.85" fill="#005d51" fill-rule="evenodd" stroke="none"/>
      <path d="M46.9 14.2 Q46.05 11.85 43.15 9.95 42.4 9.55 41.5 9.2 38.85 7.4 35.8 6.45 L35.6 5.0 Q41.65 6.85 46.0 11.25 54.5 20.05 53.05 32.2 L51.9 30.15 51.95 28.7 Q51.75 20.2 46.9 14.2 M35.15 2.35 L33.7 2.05 Q21.3 -0.05 11.55 7.85 2.85 14.9 1.65 25.95 0.9 32.85 3.65 39.2 8.8 50.9 20.85 54.7 L21.15 55.75 29.7 55.8 Q33.45 55.6 36.85 54.55 L40.85 54.55 Q35.35 57.15 28.6 57.3 16.45 56.95 8.4 48.9 4.75 45.25 2.7 40.85 1.25 37.7 0.65 34.15 -0.1 29.5 0.5 24.9 1.2 19.5 3.95 14.75 6.75 10.0 10.95 6.65 14.95 3.5 19.8 1.7 24.05 0.1 28.6 0.1 40.7 0.4 48.8 8.5 56.9 16.55 57.2 28.7 56.85 40.8 48.8 48.9 45.5 52.2 41.55 54.25 L41.65 52.55 Q44.95 50.7 47.8 47.9 55.45 40.2 55.75 28.7 55.45 17.15 47.8 9.5 42.45 4.1 35.15 2.35 M26.95 4.05 L27.05 5.4 25.3 5.6 24.8 4.3 26.95 4.05 M17.1 6.75 L17.35 8.15 11.4 12.85 Q10.25 14.05 9.35 15.4 5.4 21.05 5.2 28.7 5.4 37.45 10.65 43.65 14.65 48.7 20.8 50.7 L20.8 52.15 Q15.35 50.4 11.1 46.15 4.1 39.15 3.85 28.7 4.1 18.2 11.1 11.2 13.8 8.45 17.1 6.75 M30.05 53.35 L29.95 52.0 32.0 51.75 32.1 53.1 30.05 53.35" fill="#006868" fill-rule="evenodd" stroke="none"/>
      <path d="M40.65 12.0 L42.45 12.1 43.6 13.4 Q44.15 15.45 42.2 16.35 41.3 16.6 40.6 16.35 L40.45 16.3 40.4 16.25 Q39.7 15.85 39.25 14.95 38.7 12.9 40.65 12.0 M41.6 15.7 L41.95 15.6 Q43.65 14.75 42.45 13.1 L41.6 15.7 M41.65 12.75 L40.95 12.8 Q39.7 13.35 40.05 14.7 L40.45 15.3 41.65 12.75 M46.05 37.3 Q48.15 37.85 48.0 39.95 47.45 42.05 45.3 41.9 44.3 41.65 43.85 41.05 L43.8 41.0 43.75 40.9 Q43.3 40.25 43.4 39.2 43.95 37.1 46.05 37.3 M44.8 40.8 L45.45 41.05 Q47.4 41.15 47.1 39.15 L44.8 40.8 M46.65 38.45 L45.95 38.1 Q44.6 38.0 44.2 39.35 L44.3 40.15 46.65 38.45 M13.5 18.1 L12.75 18.1 14.15 20.6 14.5 19.95 Q14.75 18.6 13.5 18.1 M10.85 19.95 L10.9 18.95 Q11.55 17.0 13.6 17.25 15.35 17.7 15.4 19.55 15.45 21.1 14.0 21.75 L12.3 21.65 Q11.15 21.15 10.85 19.95 M12.65 20.95 L13.35 21.0 12.0 18.55 11.65 19.1 Q11.4 20.45 12.65 20.95 M17.55 42.65 L17.85 42.0 15.0 42.3 15.45 42.9 Q16.6 43.65 17.55 42.65 M17.3 40.6 Q16.2 39.8 15.2 40.8 L14.9 41.45 17.75 41.15 17.3 40.6 M18.75 41.5 L18.5 42.45 Q17.95 44.1 16.25 44.15 L15.8 44.0 Q13.3 42.75 14.55 40.25 L15.4 39.85 Q17.95 38.9 18.75 41.5" fill="#0f6f61" fill-rule="evenodd" stroke="none"/>
      <path d="M40.65 12.0 Q38.7 12.9 39.25 14.95 39.7 15.85 40.4 16.25 L40.45 16.3 40.6 16.35 Q41.3 16.6 42.2 16.35 44.15 15.45 43.6 13.4 L42.45 12.1 40.65 12.0 M45.7 17.05 L39.2 17.9 Q38.5 16.2 36.85 15.25 L36.1 8.95 Q39.95 9.6 43.0 11.9 45.55 13.85 45.7 17.05 M50.5 31.85 Q52.3 37.95 48.4 43.0 47.2 44.6 45.35 45.65 L41.0 47.75 39.75 38.5 41.55 36.3 Q42.85 32.45 39.6 30.55 L38.65 30.05 38.05 25.6 Q44.5 25.35 49.3 29.9 50.15 30.75 50.5 31.85 M46.05 37.3 Q43.95 37.1 43.4 39.2 43.3 40.25 43.75 40.9 L43.8 41.0 43.85 41.05 Q44.3 41.65 45.3 41.9 47.45 42.05 48.0 39.95 48.15 37.85 46.05 37.3 M32.9 7.7 L31.15 6.85 Q30.6 9.15 30.85 11.4 L31.8 18.75 Q33.9 33.8 34.4 48.9 34.45 50.1 35.5 51.1 L37.15 50.9 Q37.65 50.05 37.55 48.95 L36.95 43.5 36.1 33.95 Q35.3 20.6 32.9 7.7 M27.4 8.2 L28.3 14.65 26.75 14.8 25.7 8.35 27.4 8.2 M24.25 24.5 Q24.2 18.9 23.7 13.7 23.2 8.5 22.1 8.2 20.85 8.6 21.15 13.7 21.45 18.8 22.2 24.2 L23.1 31.05 Q23.5 40.1 23.8 43.3 23.3 47.7 24.9 51.6 26.25 50.8 26.15 48.65 L25.8 45.15 Q24.55 38.45 24.3 31.65 L24.25 24.5 M33.65 3.4 L39.75 52.65 33.65 52.85 32.1 34.2 31.3 25.55 Q30.45 15.1 28.7 4.7 L33.65 3.4 M25.75 23.5 L28.25 54.0 22.3 54.4 Q22.1 40.45 21.2 26.55 L20.8 20.4 19.25 5.95 23.6 5.85 25.75 23.5 M10.85 19.95 Q11.15 21.15 12.3 21.65 L14.0 21.75 Q15.45 21.1 15.4 19.55 15.35 17.7 13.6 17.25 11.55 17.0 10.9 18.95 11.15 16.4 12.8 14.55 14.85 12.2 17.85 10.85 L18.75 16.85 Q14.95 18.95 17.15 22.75 17.9 24.05 19.5 24.35 L19.8 27.9 Q13.15 27.7 11.15 21.85 10.85 20.9 10.85 19.95 M18.75 41.5 Q17.95 38.9 15.4 39.85 L14.55 40.25 Q13.3 42.75 15.8 44.0 L16.25 44.15 Q17.95 44.1 18.5 42.45 L18.75 41.5 M17.1 36.0 Q18.1 38.3 20.55 39.4 L20.75 48.3 Q13.15 45.05 9.8 37.65 L9.45 36.65 17.1 36.0 M27.8 25.4 L29.75 25.5 30.2 28.6 28.1 28.4 27.8 25.4 M31.35 40.85 L31.9 49.75 29.75 49.8 29.15 40.95 31.35 40.85" fill="#85ab93" fill-rule="evenodd" stroke="none"/>
      <path d="M38.4 8.15 L35.9 7.6 35.85 7.15 38.4 8.15 M27.1 6.05 L27.25 6.95 25.5 7.1 25.4 6.25 27.1 6.05 M17.5 8.85 L17.6 9.4 14.5 10.85 Q15.9 9.7 17.5 8.85 M8.2 18.6 Q7.9 20.7 8.45 22.85 7.45 26.0 7.7 29.6 7.85 32.35 8.6 34.85 L7.55 35.2 7.9 38.1 Q6.0 33.85 5.85 28.7 6.0 23.1 8.2 18.6 M51.3 29.45 L49.5 27.85 Q49.25 23.0 47.25 18.65 L47.65 17.9 47.35 15.85 Q51.15 21.35 51.3 28.7 L51.3 29.45" fill="#85b599" fill-rule="evenodd" stroke="none"/>
      <path d="M41.5 9.2 Q40.1 8.6 38.4 8.15 L35.85 7.15 35.8 6.45 Q38.85 7.4 41.5 9.2 M35.4 3.05 L35.15 2.35 Q42.45 4.1 47.8 9.5 55.45 17.15 55.75 28.7 55.45 40.2 47.8 47.9 44.95 50.7 41.65 52.55 L41.5 51.65 Q44.6 49.9 47.2 47.3 L48.5 45.95 Q50.75 44.2 51.8 42.25 53.05 39.65 53.45 37.4 54.8 33.35 54.95 28.6 54.65 17.35 47.2 9.9 42.15 4.85 35.4 3.05 M33.7 2.05 L31.85 2.35 28.5 2.1 Q22.6 2.25 17.75 4.4 L17.15 4.7 Q6.8 9.85 3.35 20.8 0.5 29.95 4.3 38.8 9.25 50.2 20.85 53.9 L20.85 54.7 Q8.8 50.9 3.65 39.2 0.9 32.85 1.65 25.95 2.85 14.9 11.55 7.85 21.3 -0.05 33.7 2.05 M27.05 5.4 L27.1 6.05 25.4 6.25 25.3 5.6 27.05 5.4 M17.35 8.15 L17.5 8.85 Q15.9 9.7 14.5 10.85 L11.4 12.85 17.35 8.15 M9.35 15.4 Q8.55 16.85 8.2 18.6 6.0 23.1 5.85 28.7 6.0 33.85 7.9 38.1 L10.65 43.65 Q5.4 37.45 5.2 28.7 5.4 21.05 9.35 15.4 M29.7 55.8 L30.05 55.55 30.25 54.95 33.35 54.55 36.85 54.55 Q33.45 55.6 29.7 55.8 M29.95 52.0 L29.9 51.65 32.0 51.75 29.95 52.0 M51.9 30.15 L51.3 29.45 51.3 28.7 Q51.15 21.35 47.35 15.85 L46.9 14.2 Q51.75 20.2 51.95 28.7 L51.9 30.15" fill="#085854" fill-rule="evenodd" stroke="none"/>
      <path d="M41.65 12.75 L40.45 15.3 40.05 14.7 Q39.7 13.35 40.95 12.8 L41.65 12.75 M41.6 15.7 L42.45 13.1 Q43.65 14.75 41.95 15.6 L41.6 15.7 M46.65 38.45 L44.3 40.15 44.2 39.35 Q44.6 38.0 45.95 38.1 L46.65 38.45 M44.8 40.8 L47.1 39.15 Q47.4 41.15 45.45 41.05 L44.8 40.8 M13.5 18.1 Q14.75 18.6 14.5 19.95 L14.15 20.6 12.75 18.1 13.5 18.1 M12.65 20.95 Q11.4 20.45 11.65 19.1 L12.0 18.55 13.35 21.0 12.65 20.95 M17.3 40.6 L17.75 41.15 14.9 41.45 15.2 40.8 Q16.2 39.8 17.3 40.6 M17.55 42.65 Q16.6 43.65 15.45 42.9 L15.0 42.3 17.85 42.0 17.55 42.65" fill="#a0beac" fill-rule="evenodd" stroke="none"/>
      <path d="M35.6 5.0 L35.4 3.05 Q42.15 4.85 47.2 9.9 54.65 17.35 54.95 28.6 54.8 33.35 53.45 37.4 53.9 34.55 53.05 32.2 54.5 20.05 46.0 11.25 41.65 6.85 35.6 5.0 M31.85 2.35 L26.95 4.05 24.8 4.3 17.75 4.4 Q22.6 2.25 28.5 2.1 L31.85 2.35 M17.15 4.7 L17.1 6.75 Q13.8 8.45 11.1 11.2 4.1 18.2 3.85 28.7 4.1 39.15 11.1 46.15 15.35 50.4 20.8 52.15 L20.85 53.9 Q9.25 50.2 4.3 38.8 0.5 29.95 3.35 20.8 6.8 9.85 17.15 4.7 M8.45 22.85 Q8.95 24.2 10.1 25.5 8.85 29.75 10.65 34.3 L10.8 34.65 8.6 34.85 Q7.85 32.35 7.7 29.6 7.45 26.0 8.45 22.85 M30.25 54.95 L30.05 53.35 32.1 53.1 32.45 54.35 33.35 54.55 30.25 54.95 M41.5 51.65 L41.3 49.9 48.5 45.95 47.2 47.3 Q44.6 49.9 41.5 51.65 M49.5 27.85 Q47.7 26.7 45.75 25.9 45.45 22.35 44.0 19.2 L47.25 18.65 Q49.25 23.0 49.5 27.85" fill="#98bea8" fill-rule="evenodd" stroke="none"/>
      <path d="M10.1 25.5 Q14.15 29.25 19.95 29.25 L20.5 38.15 18.35 34.25 10.8 34.65 10.65 34.3 Q8.85 29.75 10.1 25.5 M45.75 25.9 L37.9 23.9 37.2 18.3 38.3 19.95 44.0 19.2 Q45.45 22.35 45.75 25.9 M28.4 15.6 L29.5 23.7 27.6 23.3 26.8 15.75 28.4 15.6 M18.25 20.55 Q17.95 19.3 18.9 18.45 L19.1 22.15 Q18.5 21.5 18.25 20.55 M38.85 31.85 L39.5 32.5 Q40.7 34.95 39.5 36.6 L38.85 31.85 M30.35 29.8 L31.25 39.65 29.05 39.75 28.2 29.6 30.35 29.8" fill="#c1d9cb" fill-rule="evenodd" stroke="none"/>
      <path d="M32.9 7.7 Q35.3 20.6 36.1 33.95 L36.95 43.5 37.55 48.95 Q37.65 50.05 37.15 50.9 L35.5 51.1 Q34.45 50.1 34.4 48.9 33.9 33.8 31.8 18.75 L30.85 11.4 Q30.6 9.15 31.15 6.85 L32.9 7.7 M24.25 24.5 L24.3 31.65 Q24.55 38.45 25.8 45.15 L26.15 48.65 Q26.25 50.8 24.9 51.6 23.3 47.7 23.8 43.3 23.5 40.1 23.1 31.05 L22.2 24.2 Q21.45 18.8 21.15 13.7 20.85 8.6 22.1 8.2 23.2 8.5 23.7 13.7 24.2 18.9 24.25 24.5" fill="#689878" fill-rule="evenodd" stroke="none"/>
    </g>
  </defs>
</svg>
