<?xml version="1.0" encoding="UTF-8" standalone="no"?>
<svg xmlns:xlink="http://www.w3.org/1999/xlink" height="436.75px" width="359.4px" xmlns="http://www.w3.org/2000/svg">
  <g transform="matrix(1.0, 0.0, 0.0, 1.0, 179.75, 436.75)">
    <use height="36.0" transform="matrix(1.0, 0.0, 0.0, 1.0, -79.2, -36.0)" width="159.0" xlink:href="#shape0"/>
    <use height="96.65" transform="matrix(1.0, 0.0, 0.0, 1.0, -26.8, -108.0)" width="54.2" xlink:href="#shape1"/>
    <use height="37.0" transform="matrix(1.0, 0.0, 0.0, 1.0, -92.3, -94.35)" width="185.25" xlink:href="#shape2"/>
    <use height="17.5" transform="matrix(1.0, 0.0, 0.0, 1.0, -60.2, -80.5)" width="122.8" xlink:href="#text0"/>
    <use height="329.6" transform="matrix(1.0, 0.0, 0.0, 1.0, -179.75, -426.95)" width="359.4" xlink:href="#shape3"/>
    <use height="273.25" transform="matrix(1.082, 0.0, 0.0, 1.129, -162.25, -407.15)" width="301.15" xlink:href="#shape4"/>
    <use height="57.2" transform="matrix(1.0, 0.0, 0.0, 1.0, -28.55, -217.65)" width="56.95" xlink:href="#shape5"/>
  </g>
  <defs>
    <g id="shape0" transform="matrix(1.0, 0.0, 0.0, 1.0, 0.0, 0.0)">
      <path d="M135.7 30.75 Q113.3 35.8 79.5 36.0 45.7 35.8 23.3 30.75 0.85 25.65 0.0 18.0 0.85 10.35 23.3 5.25 45.7 0.2 79.5 0.0 113.3 0.2 135.7 5.25 158.15 10.35 159.0 18.0 158.15 25.65 135.7 30.75" fill="#000000" fill-opacity="0.39607844" fill-rule="evenodd" stroke="none"/>
    </g>
    <g id="shape1" transform="matrix(1.0, 0.0, 0.0, 1.0, 0.0, 0.0)">
      <path d="M5.85 93.35 Q-0.15 90.4 0.0 90.0 L0.0 0.0 54.2 0.0 54.2 90.0 Q54.15 90.4 46.95 93.35 39.7 96.25 25.65 96.65 11.8 96.25 5.85 93.35" fill="url(#gradient0)" fill-rule="evenodd" stroke="none"/>
    </g>
    <linearGradient gradientTransform="matrix(0.0303, 0.0, 0.0, 0.0303, 25.7, 48.35)" gradientUnits="userSpaceOnUse" id="gradient0" spreadMethod="pad" x1="-819.2" x2="819.2">
      <stop offset="0.0" stop-color="#565656"/>
      <stop offset="0.403921568627451" stop-color="#9a9999"/>
      <stop offset="0.592156862745098" stop-color="#dbdbda"/>
      <stop offset="0.7803921568627451" stop-color="#9b9a9a"/>
      <stop offset="1.0" stop-color="#151213"/>
    </linearGradient>
    <g id="shape2" transform="matrix(1.0, 0.0, 0.0, 1.0, -0.05, 0.0)">
      <path d="M185.25 8.2 L185.3 8.25 185.25 8.25 185.25 8.2 M1.9 5.2 L2.3 2.85 18.75 2.05 59.05 0.7 Q83.4 0.05 109.4 0.3 115.1 0.55 118.85 1.6 122.65 2.7 128.15 3.0 L129.3 1.5 Q130.05 0.2 130.5 0.0 160.7 0.5 181.5 3.85 L183.45 6.1 103.3 3.5 Q60.0 3.6 6.5 5.1 L1.9 5.2 M176.25 8.0 L176.45 8.4 177.65 11.45 178.5 13.65 Q179.3 12.8 179.7 10.9 179.7 9.8 179.25 9.1 L179.9 9.55 Q180.65 10.3 180.7 11.75 179.85 15.7 177.15 15.05 175.8 14.75 175.1 13.85 L176.15 14.2 177.35 14.25 176.45 12.35 174.9 8.8 174.8 8.5 174.95 8.35 Q175.75 7.8 176.25 8.0 M178.25 27.3 L179.85 27.15 Q180.5 27.3 181.25 27.95 183.6 31.2 181.35 32.8 180.2 33.6 179.1 33.5 L180.8 32.15 178.8 31.55 175.1 30.4 175.2 29.1 175.2 29.0 175.25 28.7 175.4 28.75 175.85 28.9 178.95 30.05 181.1 30.85 Q181.0 29.65 179.9 28.15 179.05 27.45 178.25 27.3 M9.35 6.95 L10.7 10.45 11.7 12.9 Q12.6 11.95 13.05 9.85 13.05 8.55 12.5 7.75 13.85 8.35 14.15 10.05 L13.75 12.35 Q12.6 15.1 10.15 14.55 8.75 14.25 8.0 13.4 L7.85 13.2 9.0 13.6 10.35 13.65 9.35 11.4 7.6 7.45 8.75 6.6 9.2 6.55 9.35 6.95 M9.4 25.3 Q11.0 24.35 12.9 25.8 15.0 28.35 14.35 30.1 L13.4 31.3 Q12.2 32.25 10.95 32.25 L12.75 30.6 10.4 30.05 6.2 29.05 6.15 27.55 6.15 27.1 6.35 27.15 6.9 27.35 10.45 28.4 12.95 29.1 Q12.75 27.8 11.35 26.15 10.35 25.35 9.4 25.3" fill="#47525f" fill-rule="evenodd" stroke="none"/>
      <path d="M0.05 36.7 L0.75 22.9 Q1.05 14.95 1.6 7.0 L1.9 5.2 6.5 5.1 3.2 8.3 1.95 36.45 0.05 36.7" fill="#cdcdcd" fill-rule="evenodd" stroke="none"/>
      <path d="M13.75 12.35 L14.15 10.05 26.45 10.0 13.75 12.35 M8.0 13.4 L7.0 13.55 7.2 26.2 6.35 27.15 6.15 27.1 6.15 27.55 Q5.15 29.5 6.75 31.55 8.95 33.2 10.95 32.25 12.2 32.25 13.4 31.3 L14.35 30.1 16.45 30.2 36.65 31.3 56.5 32.6 Q50.4 32.9 38.0 32.9 L15.1 32.75 3.85 32.6 5.25 10.05 6.0 10.05 Q6.15 12.3 7.85 13.2 L8.0 13.4" fill="#848484" fill-rule="evenodd" stroke="none"/>
      <path d="M175.1 13.85 Q175.8 14.75 177.15 15.05 179.85 15.7 180.7 11.75 180.65 10.3 179.9 9.55 L180.85 9.65 179.85 27.15 178.25 27.3 177.7 27.3 177.8 15.2 160.95 13.3 Q144.35 11.4 115.0 6.95 144.55 7.2 162.45 8.35 L174.1 9.15 Q173.65 9.7 173.4 10.6 173.45 12.95 175.1 13.85 M175.3 32.3 L137.05 30.55 175.2 29.0 175.2 29.1 Q174.3 30.55 175.3 32.3" fill="#a09fa0" fill-rule="evenodd" stroke="none"/>
      <path d="M176.45 8.4 L176.25 8.0 176.9 7.95 Q178.55 8.05 179.25 9.1 179.7 9.8 179.7 10.9 179.3 12.8 178.5 13.65 L177.65 11.45 178.05 10.25 Q178.0 8.55 176.45 8.4 M174.8 8.5 L174.9 8.8 Q174.35 9.2 174.15 10.05 174.2 11.9 175.85 12.3 L176.45 12.35 177.35 14.25 176.15 14.2 175.1 13.85 Q173.45 12.95 173.4 10.6 173.65 9.7 174.1 9.15 L174.8 8.5 M177.7 27.3 L178.25 27.3 Q179.05 27.45 179.9 28.15 181.0 29.65 181.1 30.85 L178.95 30.05 178.3 28.9 Q177.0 27.8 175.85 28.9 L175.4 28.75 175.8 28.3 Q176.7 27.35 177.7 27.3 M179.1 33.5 Q177.3 34.2 175.5 32.65 L175.3 32.3 Q174.3 30.55 175.2 29.1 L175.1 30.4 Q175.25 32.1 176.95 32.35 178.0 32.25 178.8 31.55 L180.8 32.15 179.1 33.5 M10.7 10.45 L11.2 9.05 Q11.15 7.15 9.35 6.95 L9.2 6.55 9.9 6.5 Q11.75 6.6 12.5 7.75 13.05 8.55 13.05 9.85 12.6 11.95 11.7 12.9 L10.7 10.45 M7.2 26.2 Q8.2 25.2 9.4 25.3 10.35 25.35 11.35 26.15 12.75 27.8 12.95 29.1 L10.45 28.4 Q9.75 26.65 8.05 26.6 L6.9 27.35 6.35 27.15 7.2 26.2 M6.0 10.05 L5.95 9.55 Q6.6 7.0 8.75 6.6 L7.6 7.45 Q7.0 7.9 6.75 8.85 6.8 10.95 8.7 11.35 L9.35 11.4 10.35 13.65 9.0 13.6 7.85 13.2 Q6.15 12.3 6.0 10.05 M6.15 27.55 L6.2 29.05 Q6.45 30.9 8.2 31.1 9.7 31.2 10.4 30.05 L12.75 30.6 10.95 32.25 Q8.95 33.2 6.75 31.55 5.15 29.5 6.15 27.55" fill="#9c9c9c" fill-rule="evenodd" stroke="none"/>
      <path d="M174.9 8.8 L176.45 12.35 175.85 12.3 Q174.2 11.9 174.15 10.05 174.35 9.2 174.9 8.8 M177.65 11.45 L176.45 8.4 Q178.0 8.55 178.05 10.25 L177.65 11.45 M175.85 28.9 Q177.0 27.8 178.3 28.9 L178.95 30.05 175.85 28.9 M175.1 30.4 L178.8 31.55 Q178.0 32.25 176.95 32.35 175.25 32.1 175.1 30.4 M9.35 6.95 Q11.15 7.15 11.2 9.05 L10.7 10.45 9.35 6.95 M9.35 11.4 L8.7 11.35 Q6.8 10.95 6.75 8.85 7.0 7.9 7.6 7.45 L9.35 11.4 M10.45 28.4 L6.9 27.35 8.05 26.6 Q9.75 26.65 10.45 28.4 M6.2 29.05 L10.4 30.05 Q9.7 31.2 8.2 31.1 6.45 30.9 6.2 29.05" fill="#d5d4d4" fill-rule="evenodd" stroke="none"/>
      <path d="M183.45 6.1 L185.3 6.25 185.25 8.2 185.25 8.25 185.1 13.45 184.65 27.3 184.3 36.25 Q157.35 34.75 133.85 35.55 L89.2 37.0 Q65.15 37.15 43.55 35.85 22.0 34.5 0.05 36.75 L0.05 36.7 1.95 36.45 3.2 8.3 6.5 5.1 Q60.0 3.6 103.3 3.5 L183.45 6.1 M176.25 8.0 Q175.75 7.8 174.95 8.35 L174.8 8.5 174.1 9.15 162.45 8.35 Q144.55 7.2 115.0 6.95 144.35 11.4 160.95 13.3 L177.8 15.2 177.7 27.3 Q176.7 27.35 175.8 28.3 L175.4 28.75 175.25 28.7 175.2 29.0 137.05 30.55 175.3 32.3 175.5 32.65 Q177.3 34.2 179.1 33.5 180.2 33.6 181.35 32.8 183.6 31.2 181.25 27.95 180.5 27.3 179.85 27.15 L180.85 9.65 179.9 9.55 179.25 9.1 Q178.55 8.05 176.9 7.95 L176.25 8.0 M12.5 7.75 Q11.75 6.6 9.9 6.5 L9.2 6.55 8.75 6.6 Q6.6 7.0 5.95 9.55 L6.0 10.05 5.25 10.05 3.85 32.6 15.1 32.75 38.0 32.9 Q50.4 32.9 56.5 32.6 L36.65 31.3 16.45 30.2 14.35 30.1 Q15.0 28.35 12.9 25.8 11.0 24.35 9.4 25.3 8.2 25.2 7.2 26.2 L7.0 13.55 8.0 13.4 Q8.75 14.25 10.15 14.55 12.6 15.1 13.75 12.35 L26.45 10.0 14.15 10.05 Q13.85 8.35 12.5 7.75" fill="url(#gradient1)" fill-rule="evenodd" stroke="none"/>
    </g>
    <linearGradient gradientTransform="matrix(0.1131, 0.0, 0.0, 0.0204, 92.65, 20.25)" gradientUnits="userSpaceOnUse" id="gradient1" spreadMethod="pad" x1="-819.2" x2="819.2">
      <stop offset="0.0" stop-color="#9a9a9a"/>
      <stop offset="1.0" stop-color="#ffffff"/>
    </linearGradient>
    <g id="text0" transform="matrix(1.0, 0.0, 0.0, 1.0, -11.0, -5.75)">
      <g transform="matrix(1.0, 0.0, 0.0, 1.0, 9.75, 0.0)">
        <use fill="#000000" height="17.5" transform="matrix(0.4746, 0.0, 0.0, 0.4746, 0.0, 21.0)" width="122.8" xlink:href="#font_______W7_M0"/>
        <use fill="#000000" height="17.5" transform="matrix(0.4746, 0.0, 0.0, 0.4746, 19.15, 21.0)" width="122.8" xlink:href="#font_______W7_o0"/>
        <use fill="#000000" height="17.5" transform="matrix(0.4746, 0.0, 0.0, 0.4746, 32.05, 21.0)" width="122.8" xlink:href="#font_______W7_n0"/>
        <use fill="#000000" height="17.5" transform="matrix(0.4746, 0.0, 0.0, 0.4746, 45.65, 21.0)" width="122.8" xlink:href="#font_______W7_e0"/>
        <use fill="#000000" height="17.5" transform="matrix(0.4746, 0.0, 0.0, 0.4746, 59.1, 21.0)" width="122.8" xlink:href="#font_______W7_y0"/>
        <use fill="#000000" height="17.5" transform="matrix(0.4746, 0.0, 0.0, 0.4746, 70.95, 21.0)" width="122.8" xlink:href="#font_______W7_b0"/>
        <use fill="#000000" height="17.5" transform="matrix(0.4746, 0.0, 0.0, 0.4746, 85.0, 21.0)" width="122.8" xlink:href="#font_______W7_a0"/>
        <use fill="#000000" height="17.5" transform="matrix(0.4746, 0.0, 0.0, 0.4746, 98.8, 21.0)" width="122.8" xlink:href="#font_______W7_g0"/>
        <use fill="#000000" height="17.5" transform="matrix(0.4746, 0.0, 0.0, 0.4746, 112.1, 21.0)" width="122.8" xlink:href="#font_______W7_s0"/>
      </g>
    </g>
    <g id="font_______W7_M0">
      <path d="M35.55 -31.55 L35.55 -31.55 30.8 -32.15 20.2 -14.25 9.85 -31.5 5.1 -32.15 2.55 0.05 12.6 -1.4 10.85 -20.45 18.7 -2.25 22.0 -3.05 29.9 -20.9 28.25 0.05 38.3 -1.4 35.55 -31.55" fill-rule="evenodd" stroke="none"/>
    </g>
    <g id="font_______W7_o0">
      <path d="M15.8 -13.5 L15.8 -13.5 Q16.45 -11.85 16.45 -10.4 16.45 -6.85 12.35 -6.85 10.6 -6.85 9.35 -8.05 8.15 -9.35 8.15 -11.05 8.15 -13.25 9.8 -14.6 11.4 -16.0 13.7 -16.0 16.1 -16.0 18.3 -14.3 L15.8 -13.5 M25.7 -11.4 L25.7 -11.4 Q25.7 -13.8 24.75 -16.35 L21.25 -15.25 22.7 -17.2 Q18.35 -21.45 13.15 -21.45 8.45 -21.45 5.1 -18.2 1.8 -14.95 1.8 -10.3 1.8 -5.5 5.4 -2.65 8.65 0.05 13.65 0.05 18.75 0.05 22.2 -3.2 25.7 -6.4 25.7 -11.4" fill-rule="evenodd" stroke="none"/>
    </g>
    <g id="font_______W7_n0">
      <path d="M27.0 -9.05 L27.0 -9.05 Q27.0 -14.5 24.65 -17.8 21.9 -21.45 16.6 -21.45 12.6 -21.45 9.45 -18.85 L9.2 -20.75 4.35 -21.45 2.05 0.05 11.95 -1.4 10.35 -12.55 Q12.95 -15.85 15.9 -15.85 19.4 -15.85 19.4 -10.6 19.4 -6.9 16.6 -1.3 L26.2 0.0 Q27.0 -6.5 27.0 -9.05" fill-rule="evenodd" stroke="none"/>
    </g>
    <g id="font_______W7_e0">
      <path d="M19.45 -9.9 L19.45 -9.9 Q16.75 -7.55 13.6 -7.55 10.45 -7.55 9.15 -9.9 L19.45 -9.9 M9.0 -13.4 L9.0 -13.4 Q9.7 -14.95 11.5 -15.95 13.2 -16.8 15.1 -16.8 18.05 -16.8 19.65 -14.35 L9.0 -13.4 M23.25 -9.9 L23.25 -9.9 24.3 -9.9 26.7 -12.6 Q25.85 -16.7 22.9 -19.1 19.9 -21.45 15.15 -21.45 9.65 -21.45 5.9 -18.65 1.8 -15.6 1.8 -10.4 1.8 -5.35 5.8 -2.5 9.3 0.05 14.6 0.05 22.45 0.05 27.15 -4.25 L23.25 -9.9" fill-rule="evenodd" stroke="none"/>
    </g>
    <g id="font_______W7_y0">
      <path d="M21.2 -21.45 L21.2 -21.45 13.15 -10.8 3.65 -21.45 0.5 -19.75 8.5 -4.7 4.3 0.85 12.5 4.75 24.85 -19.65 21.2 -21.45" fill-rule="evenodd" stroke="none"/>
    </g>
    <g id="font_______W7_b0">
      <path d="M20.9 -12.9 L20.9 -12.9 Q20.9 -9.4 17.6 -9.4 15.3 -9.4 13.25 -11.85 L11.45 -8.4 10.95 -14.2 Q13.25 -16.5 16.3 -16.5 17.85 -16.5 19.35 -15.5 20.9 -14.45 20.9 -12.9 M28.25 -10.45 L28.25 -10.45 Q28.25 -15.0 25.1 -18.25 21.9 -21.45 17.35 -21.45 13.75 -21.45 10.5 -19.25 L9.35 -31.5 4.65 -32.15 2.05 0.05 12.15 -0.75 12.15 -2.05 Q14.7 0.05 18.2 0.05 22.6 0.05 25.4 -3.0 28.25 -6.0 28.25 -10.45" fill-rule="evenodd" stroke="none"/>
    </g>
    <g id="font_______W7_a0">
      <path d="M19.05 -8.85 L19.05 -8.85 18.5 -5.05 17.1 -9.0 Q14.35 -6.2 10.6 -6.2 9.95 -6.2 9.45 -6.75 9.0 -7.2 9.0 -7.85 9.0 -10.2 13.7 -10.2 15.9 -10.2 19.05 -8.85 M27.4 -6.8 L27.4 -6.8 Q27.4 -21.45 13.35 -21.45 7.15 -21.45 2.55 -18.35 L4.3 -14.35 Q8.3 -16.55 13.15 -16.55 17.85 -16.55 18.85 -13.35 15.4 -14.5 12.8 -14.5 8.6 -14.5 5.6 -12.8 1.8 -10.75 1.8 -6.95 1.8 -3.5 4.9 -1.55 7.55 0.05 11.15 0.05 13.95 0.05 17.35 -0.95 L17.0 0.15 26.7 -0.3 Q27.4 -3.45 27.4 -6.8" fill-rule="evenodd" stroke="none"/>
    </g>
    <g id="font_______W7_g0">
      <path d="M21.25 -12.75 L21.25 -12.75 21.05 -10.5 18.9 -14.7 Q15.2 -11.7 11.9 -11.7 10.85 -11.7 10.0 -12.55 9.05 -13.45 9.05 -14.45 9.05 -16.75 13.35 -16.75 15.6 -16.75 18.05 -15.7 20.3 -14.7 21.2 -13.55 L21.25 -12.75 M26.3 -10.4 L26.3 -10.4 Q26.3 -15.45 24.2 -21.5 L20.0 -20.3 20.3 -19.15 Q16.35 -21.45 12.1 -21.45 8.15 -21.45 5.4 -19.3 2.35 -16.95 2.35 -13.2 2.35 -9.45 5.85 -7.35 8.8 -5.6 12.75 -5.6 16.55 -5.6 19.75 -6.9 17.8 -3.95 13.25 -3.95 8.55 -3.95 4.75 -6.35 L1.8 2.9 Q6.7 4.75 11.2 4.75 18.25 4.75 22.25 0.65 26.3 -3.4 26.3 -10.4" fill-rule="evenodd" stroke="none"/>
    </g>
    <g id="font_______W7_s0">
      <path d="M25.05 -6.35 L25.05 -6.35 Q25.05 -12.25 15.35 -13.65 8.7 -14.6 8.7 -15.7 8.7 -17.05 12.35 -17.05 17.1 -17.05 22.25 -14.8 L23.8 -18.2 Q19.05 -21.45 12.25 -21.45 8.55 -21.45 6.05 -20.35 2.6 -18.85 2.6 -15.7 2.6 -13.1 4.75 -11.8 6.5 -10.75 10.95 -10.05 L16.3 -8.95 Q17.8 -8.4 17.8 -7.5 17.8 -6.2 15.25 -6.2 12.3 -6.2 9.1 -7.45 5.9 -8.7 3.8 -10.65 L1.0 -2.6 Q6.45 0.05 14.3 0.05 25.05 0.05 25.05 -6.35" fill-rule="evenodd" stroke="none"/>
    </g>
    <g id="shape3" transform="matrix(1.0, 0.0, 0.0, 1.0, 13.65, 38.0)">
      <path d="M344.25 246.05 Q343.5 260.5 340.65 274.9 L325.8 291.6 2.4 291.6 Q-1.85 283.85 -3.3 275.65 -9.9 239.1 -13.65 202.0 L44.15 103.8 91.05 67.8 62.2 8.35 74.95 -26.8 207.85 -38.0 285.15 1.65 243.05 70.6 268.4 83.1 269.05 83.35 269.3 83.6 Q291.9 107.7 313.95 132.4 330.05 150.55 345.7 169.2 346.05 207.65 344.25 246.05 M251.65 13.75 L260.25 4.4 260.25 6.7 251.6 16.2 251.6 13.75 251.65 13.75 M263.5 10.05 Q264.0 19.25 255.35 18.05 L253.7 17.85 253.65 15.65 Q255.2 16.55 257.0 16.6 262.95 16.0 263.5 10.05 M236.95 52.9 L237.0 55.35 Q237.0 57.15 235.6 57.95 229.05 61.8 228.5 53.8 228.6 54.85 229.15 55.7 L229.9 56.5 230.6 56.85 Q236.2 58.9 236.95 52.9 M332.65 168.55 L297.7 123.45 265.75 88.85 234.9 73.65 239.55 63.25 274.6 0.6 Q240.8 -15.4 206.95 -31.5 L78.65 -16.15 68.75 2.1 96.45 74.3 50.1 107.35 48.75 108.25 -10.65 203.55 -0.1 274.55 6.3 288.6 70.6 288.6 72.65 287.7 70.6 288.65 322.75 288.65 335.0 272.2 340.15 246.05 334.5 171.6 332.65 168.55 M325.65 185.75 L326.35 186.1 Q330.25 187.4 331.8 185.1 329.0 191.25 325.6 185.75 L325.65 185.75 M7.3 201.65 L8.55 200.25 8.55 202.6 -0.1 212.05 -0.1 209.65 7.3 201.65 M11.7 205.9 Q11.95 215.7 2.75 214.15 L1.95 213.7 1.9 211.5 Q3.4 212.4 5.25 212.45 11.2 211.9 11.7 205.9" fill="#47525f" fill-rule="evenodd" stroke="none"/>
      <path d="M261.15 7.45 L262.25 6.2 Q262.75 15.65 253.95 15.65 L253.65 15.65 261.15 7.45 M239.55 63.25 L234.9 73.65 265.75 88.85 297.7 123.45 332.65 168.55 72.65 287.7 70.6 288.6 6.3 288.6 -0.1 274.55 -10.65 203.55 48.75 108.25 50.1 107.35 239.55 63.25 M8.55 202.6 L8.55 200.25 7.3 201.65 8.1 200.0 7.45 199.7 Q-1.55 198.8 -1.0 208.05 L-0.1 212.05 1.95 213.7 2.75 214.15 Q11.95 215.7 11.7 205.9 L10.5 202.1 10.55 202.8 Q10.4 211.85 1.9 211.5 L9.4 203.3 8.55 202.6" fill="#bab9ba" fill-rule="evenodd" stroke="none"/>
      <path d="M260.25 4.4 L259.9 4.1 259.6 4.2 Q255.95 4.2 253.35 6.6 250.75 8.9 250.75 12.2 L251.6 16.2 253.7 17.85 255.35 18.05 Q264.0 19.25 263.5 10.05 L262.25 6.2 261.15 7.45 260.25 6.7 260.25 4.4 M251.4 12.05 L251.35 12.3 251.35 12.25 251.4 12.05 M251.6 13.7 L251.65 13.75 251.6 13.75 251.6 13.7 M232.6 50.7 L234.75 49.5 233.8 49.15 Q228.9 48.75 228.5 53.8 229.05 61.8 235.6 57.95 237.0 57.15 237.0 55.35 L236.95 52.9 236.1 50.75 234.75 49.55 232.6 50.7 M239.55 63.25 L50.1 107.35 96.45 74.3 68.75 2.1 78.65 -16.15 206.95 -31.5 Q240.8 -15.4 274.6 0.6 L239.55 63.25 M72.65 287.7 L332.65 168.55 334.5 171.6 340.15 246.05 335.0 272.2 322.75 288.65 70.6 288.65 72.65 287.7 M331.8 185.1 L332.7 182.15 331.85 180.0 330.5 178.8 328.55 179.8 330.5 178.75 329.55 178.6 Q323.25 178.6 324.9 184.95 L325.6 185.75 Q329.0 191.25 331.8 185.1" fill="#9c9c9c" fill-rule="evenodd" stroke="none"/>
      <path d="M259.6 4.2 Q254.65 6.05 251.95 10.95 251.6 11.45 251.4 12.05 L251.35 12.25 251.25 13.2 250.75 12.2 Q250.75 8.9 253.35 6.6 255.95 4.2 259.6 4.2 M228.5 53.8 Q228.9 48.75 233.8 49.15 L234.75 49.5 232.6 50.7 230.5 51.8 229.15 55.7 Q228.6 54.85 228.5 53.8 M324.9 184.95 Q323.25 178.6 329.55 178.6 L330.5 178.75 328.55 179.8 326.6 180.75 324.9 184.95 M-1.0 208.05 Q-1.55 198.8 7.45 199.7 L8.1 200.0 Q7.65 200.15 7.25 200.35 0.85 202.65 -0.5 209.1 L-1.0 208.05" fill="#e9e9eb" fill-rule="evenodd" stroke="none"/>
      <path d="M259.6 4.2 L259.9 4.1 260.25 4.4 251.65 13.75 251.6 13.7 251.35 12.3 251.4 12.05 Q251.6 11.45 251.95 10.95 254.65 6.05 259.6 4.2 M232.6 50.7 L234.75 49.55 236.1 50.75 Q236.1 53.1 234.3 54.8 232.45 56.5 229.9 56.5 L229.15 55.7 230.5 51.8 232.6 50.7 M331.85 180.0 Q331.85 182.4 330.05 184.05 328.2 185.75 325.65 185.75 L325.6 185.75 324.9 184.95 326.6 180.75 328.55 179.8 330.5 178.8 331.85 180.0 M8.1 200.0 L7.3 201.65 -0.1 209.65 -0.5 209.1 Q0.85 202.65 7.25 200.35 7.65 200.15 8.1 200.0" fill="#d0cfd0" fill-rule="evenodd" stroke="none"/>
      <path d="M262.25 6.2 L263.5 10.05 Q262.95 16.0 257.0 16.6 255.2 16.55 253.65 15.65 L253.95 15.65 Q262.75 15.65 262.25 6.2 M236.1 50.75 L236.95 52.9 Q236.2 58.9 230.6 56.85 L229.9 56.5 Q232.45 56.5 234.3 54.8 236.1 53.1 236.1 50.75 M331.85 180.0 L332.7 182.15 331.8 185.1 Q330.25 187.4 326.35 186.1 L325.65 185.75 Q328.2 185.75 330.05 184.05 331.85 182.4 331.85 180.0 M1.9 211.5 Q10.4 211.85 10.55 202.8 L10.5 202.1 11.7 205.9 Q11.2 211.9 5.25 212.45 3.4 212.4 1.9 211.5" fill="#b0aeb3" fill-rule="evenodd" stroke="none"/>
      <path d="M260.25 6.7 L261.15 7.45 253.65 15.65 253.7 17.85 251.6 16.2 260.25 6.7 M8.55 202.6 L9.4 203.3 1.9 211.5 1.95 213.7 -0.1 212.05 8.55 202.6" fill="#57565b" fill-rule="evenodd" stroke="none"/>
      <path d="M251.35 12.3 L251.6 13.7 251.6 13.75 251.6 16.2 250.75 12.2 251.25 13.2 251.35 12.25 251.35 12.3 M-0.1 212.05 L-1.0 208.05 -0.5 209.1 -0.1 209.65 -0.1 212.05" fill="#79818b" fill-rule="evenodd" stroke="none"/>
    </g>
    <g id="shape4" transform="matrix(1.0, 0.0, 0.0, 1.0, 0.0, 0.0)">
      <path d="M101.05 83.8 L69.85 15.1 70.85 13.0 120.15 0.55 176.0 0.0 228.25 13.55 229.45 15.1 196.35 84.15 232.05 96.9 Q253.5 110.05 266.9 128.35 L289.55 166.9 289.75 167.4 301.15 232.65 301.1 233.55 288.75 236.2 291.85 239.35 Q297.0 244.4 300.95 250.2 L301.05 250.35 283.25 272.35 256.65 262.5 256.2 261.7 258.7 253.1 256.6 250.4 263.2 240.4 253.2 241.7 244.15 213.45 245.35 223.7 246.1 271.75 245.5 273.05 244.6 273.25 147.15 273.25 54.8 272.7 54.05 272.5 53.35 271.6 54.75 208.15 Q53.35 211.6 51.2 221.35 49.05 231.05 46.25 238.05 L43.3 245.2 42.95 245.5 41.5 245.4 41.5 245.6 Q42.45 252.25 41.6 259.05 L38.35 260.35 39.85 261.8 33.75 271.15 26.5 271.35 1.2 255.15 5.75 241.75 0.8 241.2 0.0 239.7 2.8 198.35 2.9 197.9 21.75 151.55 22.05 151.15 69.25 96.45 98.35 86.55 101.6 84.95 101.05 83.8 M199.9 9.3 L177.7 4.05 167.85 3.45 167.45 4.25 162.2 5.6 171.2 6.05 171.8 6.95 171.25 7.9 168.35 8.0 Q189.05 13.6 203.55 29.75 207.6 34.15 205.85 39.95 L204.5 39.65 203.3 33.55 202.35 30.95 Q201.3 29.0 199.1 27.95 L199.25 28.55 198.85 29.35 197.75 29.35 Q186.4 18.4 170.75 17.35 165.55 16.65 162.05 12.75 151.75 17.25 140.8 14.5 138.0 13.65 137.7 10.55 131.95 10.2 126.3 11.45 120.25 12.7 114.9 15.9 L123.7 14.25 Q130.95 13.45 138.4 14.65 L138.65 15.2 138.2 16.05 Q127.3 15.15 116.9 18.3 104.95 21.85 94.15 28.35 L93.6 27.3 Q104.9 19.7 116.6 13.0 125.85 7.75 136.35 8.6 L143.85 8.45 144.0 9.3 139.65 11.0 Q143.45 13.3 147.95 13.25 156.85 13.2 165.0 10.05 L165.3 9.45 154.85 6.4 154.6 5.35 155.1 4.75 163.4 3.25 163.9 3.1 160.75 3.15 131.6 3.4 141.65 4.5 142.0 5.35 142.45 5.65 142.75 6.35 142.2 7.35 129.75 7.7 129.5 6.65 130.0 6.05 135.1 5.75 127.55 4.75 127.55 3.45 114.3 5.15 73.35 15.45 82.05 34.7 104.9 85.0 130.75 94.4 129.2 89.0 130.2 88.45 130.9 88.8 133.15 95.25 Q138.9 97.6 145.0 98.15 151.65 98.95 158.1 96.8 165.0 94.6 171.55 91.2 L175.0 89.6 179.55 78.05 180.45 78.65 177.5 88.55 192.65 82.35 193.6 82.9 216.85 34.5 225.75 16.0 199.9 9.3 M192.0 21.2 L189.85 19.5 Q179.15 12.95 167.05 9.75 L167.1 9.9 Q167.55 11.5 165.05 12.0 L164.25 12.15 Q167.3 14.7 171.15 15.2 182.2 16.3 192.0 21.2 M200.95 39.65 L201.65 40.0 Q203.15 43.5 200.25 45.55 L199.25 45.1 199.35 43.95 Q200.65 42.45 200.0 40.6 L200.0 40.25 200.95 39.65 M192.1 85.5 L163.25 97.95 167.75 113.45 179.25 111.6 193.95 86.55 192.1 85.5 M205.95 123.7 L205.3 125.05 150.1 164.85 148.7 270.25 243.1 270.25 242.35 223.9 240.2 207.85 232.4 162.45 218.25 111.95 219.3 110.1 221.15 111.15 235.3 161.65 242.6 204.25 Q250.9 220.65 255.0 238.7 L297.95 231.7 286.85 168.2 264.55 130.2 Q236.85 97.65 209.2 91.8 L208.0 114.6 196.85 118.55 Q200.95 120.5 204.9 122.75 205.5 123.05 205.95 123.7 M206.25 90.8 L196.85 87.6 156.4 156.6 201.5 124.05 191.5 119.0 191.3 118.6 191.8 117.25 205.45 112.7 206.25 90.8 M167.45 131.8 L177.3 114.95 165.75 116.0 163.6 109.95 158.5 117.95 167.45 131.8 M98.7 28.6 Q93.45 36.25 93.35 45.7 L92.85 45.85 91.95 45.45 Q90.9 35.4 97.55 27.8 L98.3 27.95 98.7 28.6 M119.85 79.25 L120.3 78.7 Q124.45 83.7 126.9 90.0 L125.7 90.75 119.85 79.25 M100.7 88.95 L129.75 115.9 135.75 99.35 103.45 87.65 100.7 88.95 M71.65 115.05 L72.35 114.15 73.5 114.05 74.65 115.5 59.3 171.8 57.35 204.75 57.85 205.6 56.35 269.7 145.7 270.25 147.1 164.05 147.3 163.35 148.8 162.1 100.3 129.15 99.85 128.4 99.85 128.05 Q103.85 123.75 109.15 120.8 L88.6 119.3 88.25 118.85 Q88.1 118.65 88.1 118.45 87.05 106.0 86.65 93.5 L71.2 98.7 24.5 152.85 5.8 198.85 3.1 238.45 41.6 242.4 44.75 233.6 Q46.35 229.2 47.55 224.7 52.95 203.95 55.25 182.7 L56.35 171.15 71.65 115.05 M97.6 89.8 L89.6 92.5 90.65 116.5 114.6 118.45 114.85 120.6 103.85 127.9 145.15 156.0 97.6 89.8 M144.9 117.25 L155.85 116.5 162.45 106.1 160.55 99.55 Q149.75 102.55 138.8 100.2 L136.45 106.4 144.9 117.25 M134.2 135.6 L151.3 159.35 165.75 134.7 155.95 119.5 143.45 120.1 142.8 119.3 142.8 118.25 142.4 118.95 135.2 109.7 131.15 119.35 107.05 99.15 134.2 135.6 M261.8 252.2 L259.1 260.25 282.75 269.05 297.65 250.1 286.05 237.7 266.6 240.85 259.95 249.95 261.8 252.2 M37.55 245.05 L8.9 242.1 4.2 253.65 27.7 268.55 32.3 268.35 36.35 262.6 34.6 261.15 34.3 260.95 33.25 260.1 Q32.75 259.7 32.7 259.1 32.6 258.5 32.95 258.0 L33.95 257.45 Q34.55 257.35 35.05 257.7 L35.6 258.15 39.1 256.85 38.85 246.95 37.55 245.05" fill="#1a1a1a" fill-rule="evenodd" stroke="none"/>
      <path d="M199.9 9.3 L225.75 16.0 216.85 34.5 Q215.8 27.75 211.8 22.2 206.5 14.9 199.9 9.3 M82.05 34.7 L73.35 15.45 114.3 5.15 Q98.05 12.15 85.7 25.1 81.85 29.1 82.05 34.7 M160.75 3.15 L163.9 3.1 163.4 3.25 160.75 3.15 M206.25 90.8 L205.45 112.7 191.8 117.25 191.3 118.6 191.5 119.0 201.5 124.05 156.4 156.6 196.85 87.6 206.25 90.8 M205.95 123.7 Q205.5 123.05 204.9 122.75 200.95 120.5 196.85 118.55 L208.0 114.6 209.2 91.8 Q236.85 97.65 264.55 130.2 L286.85 168.2 297.95 231.7 255.0 238.7 Q250.9 220.65 242.6 204.25 L235.3 161.65 221.15 111.15 219.3 110.1 218.25 111.95 232.4 162.45 240.2 207.85 242.35 223.9 243.1 270.25 148.7 270.25 150.1 164.85 205.3 125.05 205.95 123.7 M97.6 89.8 L145.15 156.0 103.85 127.9 114.85 120.6 114.6 118.45 90.65 116.5 89.6 92.5 97.6 89.8 M71.65 115.05 L56.35 171.15 55.25 182.7 Q52.95 203.95 47.55 224.7 46.35 229.2 44.75 233.6 L41.6 242.4 3.1 238.45 5.8 198.85 24.5 152.85 71.2 98.7 86.65 93.5 Q87.05 106.0 88.1 118.45 88.1 118.65 88.25 118.85 L88.6 119.3 109.15 120.8 Q103.85 123.75 99.85 128.05 L99.85 128.4 100.3 129.15 148.8 162.1 147.3 163.35 147.1 164.05 145.7 270.25 56.35 269.7 57.85 205.6 57.35 204.75 59.3 171.8 74.65 115.5 73.5 114.05 72.35 114.15 71.65 115.05" fill="#106557" fill-rule="evenodd" stroke="none"/>
      <path d="M192.0 21.2 Q182.2 16.3 171.15 15.2 167.3 14.7 164.25 12.15 L165.05 12.0 Q167.55 11.5 167.1 9.9 L167.05 9.75 Q179.15 12.95 189.85 19.5 L192.0 21.2 M192.1 85.5 L193.95 86.55 179.25 111.6 167.75 113.45 163.25 97.95 192.1 85.5 M167.45 131.8 L158.5 117.95 163.6 109.95 165.75 116.0 177.3 114.95 167.45 131.8 M100.7 88.95 L103.45 87.65 135.75 99.35 129.75 115.9 100.7 88.95 M143.45 120.1 L134.2 135.6 107.05 99.15 131.15 119.35 135.2 109.7 142.4 118.95 142.8 118.25 142.8 119.3 143.45 120.1 M37.55 245.05 L38.85 246.95 39.1 256.85 35.6 258.15 35.05 257.7 Q34.55 257.35 33.95 257.45 L32.95 258.0 Q32.6 258.5 32.7 259.1 32.75 259.7 33.25 260.1 L34.3 260.95 34.6 261.15 36.35 262.6 32.3 268.35 27.7 268.55 4.2 253.65 8.9 242.1 37.55 245.05 M261.8 252.2 L259.95 249.95 266.6 240.85 286.05 237.7 297.65 250.1 282.75 269.05 259.1 260.25 261.8 252.2" fill="#c1d9cb" fill-rule="evenodd" stroke="none"/>
      <path d="M101.05 83.8 L101.6 84.95 98.35 86.55 101.05 83.8" fill="#e9e9eb" fill-rule="evenodd" stroke="none"/>
      <path d="M144.9 117.25 L136.45 106.4 138.8 100.2 Q149.75 102.55 160.55 99.55 L162.45 106.1 155.85 116.5 144.9 117.25 M143.45 120.1 L155.95 119.5 165.75 134.7 151.3 159.35 134.2 135.6 143.45 120.1" fill="#0e4239" fill-rule="evenodd" stroke="none"/>
      <path d="M163.4 3.25 L155.1 4.75 154.6 5.35 154.85 6.4 165.3 9.45 165.0 10.05 Q156.85 13.2 147.95 13.25 143.45 13.3 139.65 11.0 L144.0 9.3 143.85 8.45 136.35 8.6 Q125.85 7.75 116.6 13.0 104.9 19.7 93.6 27.3 L94.15 28.35 Q104.95 21.85 116.9 18.3 127.3 15.15 138.2 16.05 L138.65 15.2 138.4 14.65 Q130.95 13.45 123.7 14.25 L114.9 15.9 Q120.25 12.7 126.3 11.45 131.95 10.2 137.7 10.55 138.0 13.65 140.8 14.5 151.75 17.25 162.05 12.75 165.55 16.65 170.75 17.35 186.4 18.4 197.75 29.35 L198.85 29.35 199.25 28.55 199.1 27.95 Q201.3 29.0 202.35 30.95 L203.3 33.55 204.5 39.65 205.85 39.95 Q207.6 34.15 203.55 29.75 189.05 13.6 168.35 8.0 L171.25 7.9 171.8 6.95 171.2 6.05 162.2 5.6 167.45 4.25 167.85 3.45 177.7 4.05 199.9 9.3 Q206.5 14.9 211.8 22.2 215.8 27.75 216.85 34.5 L193.6 82.9 192.65 82.35 177.5 88.55 180.45 78.65 179.55 78.05 175.0 89.6 171.55 91.2 Q165.0 94.6 158.1 96.8 151.65 98.95 145.0 98.15 138.9 97.6 133.15 95.25 L130.9 88.8 130.2 88.45 129.2 89.0 130.75 94.4 104.9 85.0 82.05 34.7 Q81.85 29.1 85.7 25.1 98.05 12.15 114.3 5.15 L127.55 3.45 127.55 4.75 135.1 5.75 130.0 6.05 129.5 6.65 129.75 7.7 142.2 7.35 142.75 6.35 142.45 5.65 142.0 5.35 141.65 4.5 131.6 3.4 160.75 3.15 163.4 3.25 M200.95 39.65 L200.0 40.25 200.0 40.6 Q200.65 42.45 199.35 43.95 L199.25 45.1 200.25 45.55 Q203.15 43.5 201.65 40.0 L200.95 39.65 M98.7 28.6 L98.3 27.95 97.55 27.8 Q90.9 35.4 91.95 45.45 L92.85 45.85 93.35 45.7 Q93.45 36.25 98.7 28.6 M119.85 79.25 L125.7 90.75 126.9 90.0 Q124.45 83.7 120.3 78.7 L119.85 79.25" fill="#e0ebe3" fill-rule="evenodd" stroke="none"/>
    </g>
    <g id="shape5" transform="matrix(1.0, 0.0, 0.0, 1.0, -0.25, -0.1)">
      <path d="M41.5 9.2 Q42.4 9.55 43.15 9.95 46.05 11.85 46.9 14.2 L47.35 15.85 47.65 17.9 47.25 18.65 44.0 19.2 38.3 19.95 37.2 18.3 37.9 23.9 45.75 25.9 Q47.7 26.7 49.5 27.85 L51.3 29.45 51.9 30.15 53.05 32.2 Q53.9 34.55 53.45 37.4 53.05 39.65 51.8 42.25 50.75 44.2 48.5 45.95 L41.3 49.9 41.5 51.65 41.65 52.55 41.55 54.25 40.85 54.55 36.85 54.55 33.35 54.55 32.45 54.35 32.1 53.1 32.0 51.75 29.9 51.65 29.95 52.0 30.05 53.35 30.25 54.95 30.05 55.55 29.7 55.8 21.15 55.75 20.85 54.7 20.85 53.9 20.8 52.15 20.8 50.7 Q14.65 48.7 10.65 43.65 L7.9 38.1 7.55 35.2 8.6 34.85 10.8 34.65 18.35 34.25 20.5 38.15 19.95 29.25 Q14.15 29.25 10.1 25.5 8.95 24.2 8.45 22.85 7.9 20.7 8.2 18.6 8.55 16.85 9.35 15.4 10.25 14.05 11.4 12.85 L14.5 10.85 17.6 9.4 17.5 8.85 17.35 8.15 17.1 6.75 17.15 4.7 17.75 4.4 24.8 4.3 25.3 5.6 25.4 6.25 25.5 7.1 27.25 6.95 27.1 6.05 27.05 5.4 26.95 4.05 31.85 2.35 33.7 2.05 35.15 2.35 35.4 3.05 35.6 5.0 35.8 6.45 35.85 7.15 35.9 7.6 38.4 8.15 Q40.1 8.6 41.5 9.2 M45.7 17.05 Q45.55 13.85 43.0 11.9 39.95 9.6 36.1 8.95 L36.85 15.25 Q38.5 16.2 39.2 17.9 L45.7 17.05 M50.5 31.85 Q50.15 30.75 49.3 29.9 44.5 25.35 38.05 25.6 L38.65 30.05 39.6 30.55 Q42.85 32.45 41.55 36.3 L39.75 38.5 41.0 47.75 45.35 45.65 Q47.2 44.6 48.4 43.0 52.3 37.95 50.5 31.85 M27.4 8.2 L25.7 8.35 26.75 14.8 28.3 14.65 27.4 8.2 M28.4 15.6 L26.8 15.75 27.6 23.3 29.5 23.7 28.4 15.6 M25.75 23.5 L23.6 5.85 19.25 5.95 20.8 20.4 21.2 26.55 Q22.1 40.45 22.3 54.4 L28.25 54.0 25.75 23.5 M33.65 3.4 L28.7 4.7 Q30.45 15.1 31.3 25.55 L32.1 34.2 33.65 52.85 39.75 52.65 33.65 3.4 M10.9 18.95 L10.85 19.95 Q10.85 20.9 11.15 21.85 13.15 27.7 19.8 27.9 L19.5 24.35 Q17.9 24.05 17.15 22.75 14.95 18.95 18.75 16.85 L17.85 10.85 Q14.85 12.2 12.8 14.55 11.15 16.4 10.9 18.95 M18.25 20.55 Q18.5 21.5 19.1 22.15 L18.9 18.45 Q17.95 19.3 18.25 20.55 M17.1 36.0 L9.45 36.65 9.8 37.65 Q13.15 45.05 20.75 48.3 L20.55 39.4 Q18.1 38.3 17.1 36.0 M38.85 31.85 L39.5 36.6 Q40.7 34.95 39.5 32.5 L38.85 31.85 M27.8 25.4 L28.1 28.4 30.2 28.6 29.75 25.5 27.8 25.4 M30.35 29.8 L28.2 29.6 29.05 39.75 31.25 39.65 30.35 29.8 M31.35 40.85 L29.15 40.95 29.75 49.8 31.9 49.75 31.35 40.85" fill="#005d51" fill-rule="evenodd" stroke="none"/>
      <path d="M46.9 14.2 Q46.05 11.85 43.15 9.95 42.4 9.55 41.5 9.2 38.85 7.4 35.8 6.45 L35.6 5.0 Q41.65 6.85 46.0 11.25 54.5 20.05 53.05 32.2 L51.9 30.15 51.95 28.7 Q51.75 20.2 46.9 14.2 M35.15 2.35 L33.7 2.05 Q21.3 -0.05 11.55 7.85 2.85 14.9 1.65 25.95 0.9 32.85 3.65 39.2 8.8 50.9 20.85 54.7 L21.15 55.75 29.7 55.8 Q33.45 55.6 36.85 54.55 L40.85 54.55 Q35.35 57.15 28.6 57.3 16.45 56.95 8.4 48.9 4.75 45.25 2.7 40.85 1.25 37.7 0.65 34.15 -0.1 29.5 0.5 24.9 1.2 19.5 3.95 14.75 6.75 10.0 10.95 6.65 14.95 3.5 19.8 1.7 24.05 0.1 28.6 0.1 40.7 0.4 48.8 8.5 56.9 16.55 57.2 28.7 56.85 40.8 48.8 48.9 45.5 52.2 41.55 54.25 L41.65 52.55 Q44.95 50.7 47.8 47.9 55.45 40.2 55.75 28.7 55.45 17.15 47.8 9.5 42.45 4.1 35.15 2.35 M26.95 4.05 L27.05 5.4 25.3 5.6 24.8 4.3 26.95 4.05 M17.1 6.75 L17.35 8.15 11.4 12.85 Q10.25 14.05 9.35 15.4 5.4 21.05 5.2 28.7 5.4 37.45 10.65 43.65 14.65 48.7 20.8 50.7 L20.8 52.15 Q15.35 50.4 11.1 46.15 4.1 39.15 3.85 28.7 4.1 18.2 11.1 11.2 13.8 8.45 17.1 6.75 M30.05 53.35 L29.95 52.0 32.0 51.75 32.1 53.1 30.05 53.35" fill="#006868" fill-rule="evenodd" stroke="none"/>
      <path d="M40.65 12.0 L42.45 12.1 43.6 13.4 Q44.15 15.45 42.2 16.35 41.3 16.6 40.6 16.35 L40.45 16.3 40.4 16.25 Q39.7 15.85 39.25 14.95 38.7 12.9 40.65 12.0 M41.6 15.7 L41.95 15.6 Q43.65 14.75 42.45 13.1 L41.6 15.7 M41.65 12.75 L40.95 12.8 Q39.7 13.35 40.05 14.7 L40.45 15.3 41.65 12.75 M46.05 37.3 Q48.15 37.85 48.0 39.95 47.45 42.05 45.3 41.9 44.3 41.65 43.85 41.05 L43.8 41.0 43.75 40.9 Q43.3 40.25 43.4 39.2 43.95 37.1 46.05 37.3 M44.8 40.8 L45.45 41.05 Q47.4 41.15 47.1 39.15 L44.8 40.8 M46.65 38.45 L45.95 38.1 Q44.6 38.0 44.2 39.35 L44.3 40.15 46.65 38.45 M13.5 18.1 L12.75 18.1 14.15 20.6 14.5 19.95 Q14.75 18.6 13.5 18.1 M10.85 19.95 L10.9 18.95 Q11.55 17.0 13.6 17.25 15.35 17.7 15.4 19.55 15.45 21.1 14.0 21.75 L12.3 21.65 Q11.15 21.15 10.85 19.95 M12.65 20.95 L13.35 21.0 12.0 18.55 11.65 19.1 Q11.4 20.45 12.65 20.95 M17.55 42.65 L17.85 42.0 15.0 42.3 15.45 42.9 Q16.6 43.65 17.55 42.65 M17.3 40.6 Q16.2 39.8 15.2 40.8 L14.9 41.45 17.75 41.15 17.3 40.6 M18.75 41.5 L18.5 42.45 Q17.95 44.1 16.25 44.15 L15.8 44.0 Q13.3 42.75 14.55 40.25 L15.4 39.85 Q17.95 38.9 18.75 41.5" fill="#0f6f61" fill-rule="evenodd" stroke="none"/>
      <path d="M40.65 12.0 Q38.7 12.9 39.25 14.95 39.7 15.85 40.4 16.25 L40.45 16.3 40.6 16.35 Q41.3 16.6 42.2 16.35 44.15 15.45 43.6 13.4 L42.45 12.1 40.65 12.0 M45.7 17.05 L39.2 17.9 Q38.5 16.2 36.85 15.25 L36.1 8.95 Q39.95 9.6 43.0 11.9 45.55 13.85 45.7 17.05 M50.5 31.85 Q52.3 37.95 48.4 43.0 47.2 44.6 45.35 45.65 L41.0 47.75 39.75 38.5 41.55 36.3 Q42.85 32.45 39.6 30.55 L38.65 30.05 38.05 25.6 Q44.5 25.35 49.3 29.9 50.15 30.75 50.5 31.85 M46.05 37.3 Q43.95 37.1 43.4 39.2 43.3 40.25 43.75 40.9 L43.8 41.0 43.85 41.05 Q44.3 41.65 45.3 41.9 47.45 42.05 48.0 39.95 48.15 37.85 46.05 37.3 M32.9 7.7 L31.15 6.85 Q30.6 9.15 30.85 11.4 L31.8 18.75 Q33.9 33.8 34.4 48.9 34.45 50.1 35.5 51.1 L37.15 50.9 Q37.65 50.05 37.55 48.95 L36.95 43.5 36.1 33.95 Q35.3 20.6 32.9 7.7 M27.4 8.2 L28.3 14.65 26.75 14.8 25.7 8.35 27.4 8.2 M24.25 24.5 Q24.2 18.9 23.7 13.7 23.2 8.5 22.1 8.2 20.85 8.6 21.15 13.7 21.45 18.8 22.2 24.2 L23.1 31.05 Q23.5 40.1 23.8 43.3 23.3 47.7 24.9 51.6 26.25 50.8 26.15 48.65 L25.8 45.15 Q24.55 38.45 24.3 31.65 L24.25 24.5 M33.65 3.4 L39.75 52.65 33.65 52.85 32.1 34.2 31.3 25.55 Q30.45 15.1 28.7 4.7 L33.65 3.4 M25.75 23.5 L28.25 54.0 22.3 54.4 Q22.1 40.45 21.2 26.55 L20.8 20.4 19.25 5.95 23.6 5.85 25.75 23.5 M10.85 19.95 Q11.15 21.15 12.3 21.65 L14.0 21.75 Q15.45 21.1 15.4 19.55 15.35 17.7 13.6 17.25 11.55 17.0 10.9 18.95 11.15 16.4 12.8 14.55 14.85 12.2 17.85 10.85 L18.75 16.85 Q14.95 18.95 17.15 22.75 17.9 24.05 19.5 24.35 L19.8 27.9 Q13.15 27.7 11.15 21.85 10.85 20.9 10.85 19.95 M18.75 41.5 Q17.95 38.9 15.4 39.85 L14.55 40.25 Q13.3 42.75 15.8 44.0 L16.25 44.15 Q17.95 44.1 18.5 42.45 L18.75 41.5 M17.1 36.0 Q18.1 38.3 20.55 39.4 L20.75 48.3 Q13.15 45.05 9.8 37.65 L9.45 36.65 17.1 36.0 M27.8 25.4 L29.75 25.5 30.2 28.6 28.1 28.4 27.8 25.4 M31.35 40.85 L31.9 49.75 29.75 49.8 29.15 40.95 31.35 40.85" fill="#85ab93" fill-rule="evenodd" stroke="none"/>
      <path d="M38.4 8.15 L35.9 7.6 35.85 7.15 38.4 8.15 M27.1 6.05 L27.25 6.95 25.5 7.1 25.4 6.25 27.1 6.05 M17.5 8.85 L17.6 9.4 14.5 10.85 Q15.9 9.7 17.5 8.85 M8.2 18.6 Q7.9 20.7 8.45 22.85 7.45 26.0 7.7 29.6 7.85 32.35 8.6 34.85 L7.55 35.2 7.9 38.1 Q6.0 33.85 5.85 28.7 6.0 23.1 8.2 18.6 M51.3 29.45 L49.5 27.85 Q49.25 23.0 47.25 18.65 L47.65 17.9 47.35 15.85 Q51.15 21.35 51.3 28.7 L51.3 29.45" fill="#85b599" fill-rule="evenodd" stroke="none"/>
      <path d="M41.5 9.2 Q40.1 8.6 38.4 8.15 L35.85 7.15 35.8 6.45 Q38.85 7.4 41.5 9.2 M35.4 3.05 L35.15 2.35 Q42.45 4.1 47.8 9.5 55.45 17.15 55.75 28.7 55.45 40.2 47.8 47.9 44.95 50.7 41.65 52.55 L41.5 51.65 Q44.6 49.9 47.2 47.3 L48.5 45.95 Q50.75 44.2 51.8 42.25 53.05 39.65 53.45 37.4 54.8 33.35 54.95 28.6 54.65 17.35 47.2 9.9 42.15 4.85 35.4 3.05 M33.7 2.05 L31.85 2.35 28.5 2.1 Q22.6 2.25 17.75 4.4 L17.15 4.7 Q6.8 9.85 3.35 20.8 0.5 29.95 4.3 38.8 9.25 50.2 20.85 53.9 L20.85 54.7 Q8.8 50.9 3.65 39.2 0.9 32.85 1.65 25.95 2.85 14.9 11.55 7.85 21.3 -0.05 33.7 2.05 M27.05 5.4 L27.1 6.05 25.4 6.25 25.3 5.6 27.05 5.4 M17.35 8.15 L17.5 8.85 Q15.9 9.7 14.5 10.85 L11.4 12.85 17.35 8.15 M9.35 15.4 Q8.55 16.85 8.2 18.6 6.0 23.1 5.85 28.7 6.0 33.85 7.9 38.1 L10.65 43.65 Q5.4 37.45 5.2 28.7 5.4 21.05 9.35 15.4 M29.7 55.8 L30.05 55.55 30.25 54.95 33.35 54.55 36.85 54.55 Q33.45 55.6 29.7 55.8 M29.95 52.0 L29.9 51.65 32.0 51.75 29.95 52.0 M51.9 30.15 L51.3 29.45 51.3 28.7 Q51.15 21.35 47.35 15.85 L46.9 14.2 Q51.75 20.2 51.95 28.7 L51.9 30.15" fill="#085854" fill-rule="evenodd" stroke="none"/>
      <path d="M41.65 12.75 L40.45 15.3 40.05 14.7 Q39.7 13.35 40.95 12.8 L41.65 12.75 M41.6 15.7 L42.45 13.1 Q43.65 14.75 41.95 15.6 L41.6 15.7 M46.65 38.45 L44.3 40.15 44.2 39.35 Q44.6 38.0 45.95 38.1 L46.65 38.45 M44.8 40.8 L47.1 39.15 Q47.4 41.15 45.45 41.05 L44.8 40.8 M13.5 18.1 Q14.75 18.6 14.5 19.95 L14.15 20.6 12.75 18.1 13.5 18.1 M12.65 20.95 Q11.4 20.45 11.65 19.1 L12.0 18.55 13.35 21.0 12.65 20.95 M17.3 40.6 L17.75 41.15 14.9 41.45 15.2 40.8 Q16.2 39.8 17.3 40.6 M17.55 42.65 Q16.6 43.65 15.45 42.9 L15.0 42.3 17.85 42.0 17.55 42.65" fill="#a0beac" fill-rule="evenodd" stroke="none"/>
      <path d="M35.6 5.0 L35.4 3.05 Q42.15 4.85 47.2 9.9 54.65 17.35 54.95 28.6 54.8 33.35 53.45 37.4 53.9 34.55 53.05 32.2 54.5 20.05 46.0 11.25 41.65 6.85 35.6 5.0 M31.85 2.35 L26.95 4.05 24.8 4.3 17.75 4.4 Q22.6 2.25 28.5 2.1 L31.85 2.35 M17.15 4.7 L17.1 6.75 Q13.8 8.45 11.1 11.2 4.1 18.2 3.85 28.7 4.1 39.15 11.1 46.15 15.35 50.4 20.8 52.15 L20.85 53.9 Q9.25 50.2 4.3 38.8 0.5 29.95 3.35 20.8 6.8 9.85 17.15 4.7 M8.45 22.85 Q8.95 24.2 10.1 25.5 8.85 29.75 10.65 34.3 L10.8 34.65 8.6 34.85 Q7.85 32.35 7.7 29.6 7.45 26.0 8.45 22.85 M30.25 54.95 L30.05 53.35 32.1 53.1 32.45 54.35 33.35 54.55 30.25 54.95 M41.5 51.65 L41.3 49.9 48.5 45.95 47.2 47.3 Q44.6 49.9 41.5 51.65 M49.5 27.85 Q47.7 26.7 45.75 25.9 45.45 22.35 44.0 19.2 L47.25 18.65 Q49.25 23.0 49.5 27.85" fill="#98bea8" fill-rule="evenodd" stroke="none"/>
      <path d="M10.1 25.5 Q14.15 29.25 19.95 29.25 L20.5 38.15 18.35 34.25 10.8 34.65 10.65 34.3 Q8.85 29.75 10.1 25.5 M45.75 25.9 L37.9 23.9 37.2 18.3 38.3 19.95 44.0 19.2 Q45.45 22.35 45.75 25.9 M28.4 15.6 L29.5 23.7 27.6 23.3 26.8 15.75 28.4 15.6 M18.25 20.55 Q17.95 19.3 18.9 18.45 L19.1 22.15 Q18.5 21.5 18.25 20.55 M38.85 31.85 L39.5 32.5 Q40.7 34.95 39.5 36.6 L38.85 31.85 M30.35 29.8 L31.25 39.65 29.05 39.75 28.2 29.6 30.35 29.8" fill="#c1d9cb" fill-rule="evenodd" stroke="none"/>
      <path d="M32.9 7.7 Q35.3 20.6 36.1 33.95 L36.95 43.5 37.55 48.95 Q37.65 50.05 37.15 50.9 L35.5 51.1 Q34.45 50.1 34.4 48.9 33.9 33.8 31.8 18.75 L30.85 11.4 Q30.6 9.15 31.15 6.85 L32.9 7.7 M24.25 24.5 L24.3 31.65 Q24.55 38.45 25.8 45.15 L26.15 48.65 Q26.25 50.8 24.9 51.6 23.3 47.7 23.8 43.3 23.5 40.1 23.1 31.05 L22.2 24.2 Q21.45 18.8 21.15 13.7 20.85 8.6 22.1 8.2 23.2 8.5 23.7 13.7 24.2 18.9 24.25 24.5" fill="#689878" fill-rule="evenodd" stroke="none"/>
    </g>
  </defs>
</svg>
