<?xml version="1.0" encoding="UTF-8" standalone="no"?>
<svg xmlns:xlink="http://www.w3.org/1999/xlink" height="436.75px" width="359.4px" xmlns="http://www.w3.org/2000/svg">
  <g transform="matrix(1.0, 0.0, 0.0, 1.0, 179.75, 436.75)">
    <use height="36.0" transform="matrix(1.0, 0.0, 0.0, 1.0, -79.55, -36.0)" width="159.0" xlink:href="#shape0"/>
    <use height="96.65" transform="matrix(1.0, 0.0, 0.0, 1.0, -27.15, -108.0)" width="54.2" xlink:href="#shape1"/>
    <use height="37.0" transform="matrix(1.0, 0.0, 0.0, 1.0, -92.65, -94.35)" width="185.25" xlink:href="#shape2"/>
    <use height="15.35" transform="matrix(1.0, 0.0, 0.0, 1.0, -64.95, -82.3)" width="128.7" xlink:href="#text0"/>
    <use height="319.85" transform="matrix(1.0, 0.0, 0.0, 1.0, -137.65, -417.4)" width="275.3" xlink:href="#shape3"/>
    <use height="264.0" transform="matrix(1.1496, 0.0, 0.0, 1.1496, -105.15, -402.4)" width="190.4" xlink:href="#shape4"/>
    <use height="57.2" transform="matrix(1.0, 0.0, 0.0, 1.0, -28.9, -213.35)" width="56.95" xlink:href="#shape5"/>
  </g>
  <defs>
    <g id="shape0" transform="matrix(1.0, 0.0, 0.0, 1.0, 0.0, 0.0)">
      <path d="M135.7 30.75 Q113.3 35.8 79.5 36.0 45.7 35.8 23.3 30.75 0.85 25.65 0.0 18.0 0.85 10.35 23.3 5.25 45.7 0.2 79.5 0.0 113.3 0.2 135.7 5.25 158.15 10.35 159.0 18.0 158.15 25.65 135.7 30.75" fill="#000000" fill-opacity="0.39607844" fill-rule="evenodd" stroke="none"/>
    </g>
    <g id="shape1" transform="matrix(1.0, 0.0, 0.0, 1.0, 0.0, 0.0)">
      <path d="M5.85 93.35 Q-0.15 90.4 0.0 90.0 L0.0 0.0 54.2 0.0 54.2 90.0 Q54.15 90.4 46.95 93.35 39.7 96.25 25.65 96.65 11.8 96.25 5.85 93.35" fill="url(#gradient0)" fill-rule="evenodd" stroke="none"/>
    </g>
    <linearGradient gradientTransform="matrix(0.0303, 0.0, 0.0, 0.0303, 25.7, 48.35)" gradientUnits="userSpaceOnUse" id="gradient0" spreadMethod="pad" x1="-819.2" x2="819.2">
      <stop offset="0.0" stop-color="#565656"/>
      <stop offset="0.403921568627451" stop-color="#9a9999"/>
      <stop offset="0.592156862745098" stop-color="#dbdbda"/>
      <stop offset="0.7803921568627451" stop-color="#9b9a9a"/>
      <stop offset="1.0" stop-color="#151213"/>
    </linearGradient>
    <g id="shape2" transform="matrix(1.0, 0.0, 0.0, 1.0, -0.05, 0.0)">
      <path d="M185.25 8.2 L185.3 8.25 185.25 8.25 185.25 8.2 M1.9 5.2 L2.3 2.85 18.75 2.05 59.05 0.7 Q83.4 0.05 109.4 0.3 115.1 0.55 118.85 1.6 122.65 2.7 128.15 3.0 L129.3 1.5 Q130.05 0.2 130.5 0.0 160.7 0.5 181.5 3.85 L183.45 6.1 103.3 3.5 Q60.0 3.6 6.5 5.1 L1.9 5.2 M176.25 8.0 L176.45 8.4 177.65 11.45 178.5 13.65 Q179.3 12.8 179.7 10.9 179.7 9.8 179.25 9.1 L179.9 9.55 Q180.65 10.3 180.7 11.75 179.85 15.7 177.15 15.05 175.8 14.75 175.1 13.85 L176.15 14.2 177.35 14.25 176.45 12.35 174.9 8.8 174.8 8.5 174.95 8.35 Q175.75 7.8 176.25 8.0 M178.25 27.3 L179.85 27.15 Q180.5 27.3 181.25 27.95 183.6 31.2 181.35 32.8 180.2 33.6 179.1 33.5 L180.8 32.15 178.8 31.55 175.1 30.4 175.2 29.1 175.2 29.0 175.25 28.7 175.4 28.75 175.85 28.9 178.95 30.05 181.1 30.85 Q181.0 29.65 179.9 28.15 179.05 27.45 178.25 27.3 M9.35 6.95 L10.7 10.45 11.7 12.9 Q12.6 11.95 13.05 9.85 13.05 8.55 12.5 7.75 13.85 8.35 14.15 10.05 L13.75 12.35 Q12.6 15.1 10.15 14.55 8.75 14.25 8.0 13.4 L7.85 13.2 9.0 13.6 10.35 13.65 9.35 11.4 7.6 7.45 8.75 6.6 9.2 6.55 9.35 6.95 M9.4 25.3 Q11.0 24.35 12.9 25.8 15.0 28.35 14.35 30.1 L13.4 31.3 Q12.2 32.25 10.95 32.25 L12.75 30.6 10.4 30.05 6.2 29.05 6.15 27.55 6.15 27.1 6.35 27.15 6.9 27.35 10.45 28.4 12.95 29.1 Q12.75 27.8 11.35 26.15 10.35 25.35 9.4 25.3" fill="#47525f" fill-rule="evenodd" stroke="none"/>
      <path d="M0.05 36.7 L0.75 22.9 Q1.05 14.95 1.6 7.0 L1.9 5.2 6.5 5.1 3.2 8.3 1.95 36.45 0.05 36.7" fill="#cdcdcd" fill-rule="evenodd" stroke="none"/>
      <path d="M13.75 12.35 L14.15 10.05 26.45 10.0 13.75 12.35 M8.0 13.4 L7.0 13.55 7.2 26.2 6.35 27.15 6.15 27.1 6.15 27.55 Q5.15 29.5 6.75 31.55 8.95 33.2 10.95 32.25 12.2 32.25 13.4 31.3 L14.35 30.1 16.45 30.2 36.65 31.3 56.5 32.6 Q50.4 32.9 38.0 32.9 L15.1 32.75 3.85 32.6 5.25 10.05 6.0 10.05 Q6.15 12.3 7.85 13.2 L8.0 13.4" fill="#848484" fill-rule="evenodd" stroke="none"/>
      <path d="M175.1 13.85 Q175.8 14.75 177.15 15.05 179.85 15.7 180.7 11.75 180.65 10.3 179.9 9.55 L180.85 9.65 179.85 27.15 178.25 27.3 177.7 27.3 177.8 15.2 160.95 13.3 Q144.35 11.4 115.0 6.95 144.55 7.2 162.45 8.35 L174.1 9.15 Q173.65 9.7 173.4 10.6 173.45 12.95 175.1 13.85 M175.3 32.3 L137.05 30.55 175.2 29.0 175.2 29.1 Q174.3 30.55 175.3 32.3" fill="#a09fa0" fill-rule="evenodd" stroke="none"/>
      <path d="M176.45 8.4 L176.25 8.0 176.9 7.95 Q178.55 8.05 179.25 9.1 179.7 9.8 179.7 10.9 179.3 12.8 178.5 13.65 L177.65 11.45 178.05 10.25 Q178.0 8.55 176.45 8.4 M174.8 8.5 L174.9 8.8 Q174.35 9.2 174.15 10.05 174.2 11.9 175.85 12.3 L176.45 12.35 177.35 14.25 176.15 14.2 175.1 13.85 Q173.45 12.95 173.4 10.6 173.65 9.7 174.1 9.15 L174.8 8.5 M177.7 27.3 L178.25 27.3 Q179.05 27.45 179.9 28.15 181.0 29.65 181.1 30.85 L178.95 30.05 178.3 28.9 Q177.0 27.8 175.85 28.9 L175.4 28.75 175.8 28.3 Q176.7 27.35 177.7 27.3 M179.1 33.5 Q177.3 34.2 175.5 32.65 L175.3 32.3 Q174.3 30.55 175.2 29.1 L175.1 30.4 Q175.25 32.1 176.95 32.35 178.0 32.25 178.8 31.55 L180.8 32.15 179.1 33.5 M10.7 10.45 L11.2 9.05 Q11.15 7.15 9.35 6.95 L9.2 6.55 9.9 6.5 Q11.75 6.6 12.5 7.75 13.05 8.55 13.05 9.85 12.6 11.95 11.7 12.9 L10.7 10.45 M7.2 26.2 Q8.2 25.2 9.4 25.3 10.35 25.35 11.35 26.15 12.75 27.8 12.95 29.1 L10.45 28.4 Q9.75 26.65 8.05 26.6 L6.9 27.35 6.35 27.15 7.2 26.2 M6.0 10.05 L5.95 9.55 Q6.6 7.0 8.75 6.6 L7.6 7.45 Q7.0 7.9 6.75 8.85 6.8 10.95 8.7 11.35 L9.35 11.4 10.35 13.65 9.0 13.6 7.85 13.2 Q6.15 12.3 6.0 10.05 M6.15 27.55 L6.2 29.05 Q6.45 30.9 8.2 31.1 9.7 31.2 10.4 30.05 L12.75 30.6 10.95 32.25 Q8.95 33.2 6.75 31.55 5.15 29.5 6.15 27.55" fill="#9c9c9c" fill-rule="evenodd" stroke="none"/>
      <path d="M174.9 8.8 L176.45 12.35 175.85 12.3 Q174.2 11.9 174.15 10.05 174.35 9.2 174.9 8.8 M177.65 11.45 L176.45 8.4 Q178.0 8.55 178.05 10.25 L177.65 11.45 M175.85 28.9 Q177.0 27.8 178.3 28.9 L178.95 30.05 175.85 28.9 M175.1 30.4 L178.8 31.55 Q178.0 32.25 176.95 32.35 175.25 32.1 175.1 30.4 M9.35 6.95 Q11.15 7.15 11.2 9.05 L10.7 10.45 9.35 6.95 M9.35 11.4 L8.7 11.35 Q6.8 10.95 6.75 8.85 7.0 7.9 7.6 7.45 L9.35 11.4 M10.45 28.4 L6.9 27.35 8.05 26.6 Q9.75 26.65 10.45 28.4 M6.2 29.05 L10.4 30.05 Q9.7 31.2 8.2 31.1 6.45 30.9 6.2 29.05" fill="#d5d4d4" fill-rule="evenodd" stroke="none"/>
      <path d="M183.45 6.1 L185.3 6.25 185.25 8.2 185.25 8.25 185.1 13.45 184.65 27.3 184.3 36.25 Q157.35 34.75 133.85 35.55 L89.2 37.0 Q65.15 37.15 43.55 35.85 22.0 34.5 0.05 36.75 L0.05 36.7 1.95 36.45 3.2 8.3 6.5 5.1 Q60.0 3.6 103.3 3.5 L183.45 6.1 M176.25 8.0 Q175.75 7.8 174.95 8.35 L174.8 8.5 174.1 9.15 162.45 8.35 Q144.55 7.2 115.0 6.95 144.35 11.4 160.95 13.3 L177.8 15.2 177.7 27.3 Q176.7 27.35 175.8 28.3 L175.4 28.75 175.25 28.7 175.2 29.0 137.05 30.55 175.3 32.3 175.5 32.65 Q177.3 34.2 179.1 33.5 180.2 33.6 181.35 32.8 183.6 31.2 181.25 27.95 180.5 27.3 179.85 27.15 L180.85 9.65 179.9 9.55 179.25 9.1 Q178.55 8.05 176.9 7.95 L176.25 8.0 M12.5 7.75 Q11.75 6.6 9.9 6.5 L9.2 6.55 8.75 6.6 Q6.6 7.0 5.95 9.55 L6.0 10.05 5.25 10.05 3.85 32.6 15.1 32.75 38.0 32.9 Q50.4 32.9 56.5 32.6 L36.65 31.3 16.45 30.2 14.35 30.1 Q15.0 28.35 12.9 25.8 11.0 24.35 9.4 25.3 8.2 25.2 7.2 26.2 L7.0 13.55 8.0 13.4 Q8.75 14.25 10.15 14.55 12.6 15.1 13.75 12.35 L26.45 10.0 14.15 10.05 Q13.85 8.35 12.5 7.75" fill="url(#gradient1)" fill-rule="evenodd" stroke="none"/>
    </g>
    <linearGradient gradientTransform="matrix(0.1131, 0.0, 0.0, 0.0204, 92.65, 20.25)" gradientUnits="userSpaceOnUse" id="gradient1" spreadMethod="pad" x1="-819.2" x2="819.2">
      <stop offset="0.0" stop-color="#9a9a9a"/>
      <stop offset="1.0" stop-color="#ffffff"/>
    </linearGradient>
    <g id="text0" transform="matrix(1.0, 0.0, 0.0, 1.0, -8.25, -5.75)">
      <g transform="matrix(1.0, 0.0, 0.0, 1.0, 6.95, 0.0)">
        <use fill="#000000" height="15.35" transform="matrix(0.4746, 0.0, 0.0, 0.4746, 0.0, 21.0)" width="128.7" xlink:href="#font_______W7_L0"/>
        <use fill="#000000" height="15.35" transform="matrix(0.4746, 0.0, 0.0, 0.4746, 15.4, 21.0)" width="128.7" xlink:href="#font_______W7_o0"/>
        <use fill="#000000" height="15.35" transform="matrix(0.4746, 0.0, 0.0, 0.4746, 28.3, 21.0)" width="128.7" xlink:href="#font_______W7_a0"/>
        <use fill="#000000" height="15.35" transform="matrix(0.4746, 0.0, 0.0, 0.4746, 42.1, 21.0)" width="128.7" xlink:href="#font_______W7_n0"/>
        <use fill="#000000" height="15.35" transform="matrix(0.4746, 0.0, 0.0, 0.4746, 63.7, 21.0)" width="128.7" xlink:href="#font_______W7_S0"/>
        <use fill="#000000" height="15.35" transform="matrix(0.4746, 0.0, 0.0, 0.4746, 79.45, 21.0)" width="128.7" xlink:href="#font_______W7_h0"/>
        <use fill="#000000" height="15.35" transform="matrix(0.4746, 0.0, 0.0, 0.4746, 93.6, 21.0)" width="128.7" xlink:href="#font_______W7_a0"/>
        <use fill="#000000" height="15.35" transform="matrix(0.4746, 0.0, 0.0, 0.4746, 107.4, 21.0)" width="128.7" xlink:href="#font_______W7_r0"/>
        <use fill="#000000" height="15.35" transform="matrix(0.4746, 0.0, 0.0, 0.4746, 116.35, 21.0)" width="128.7" xlink:href="#font_______W7_k0"/>
      </g>
    </g>
    <g id="font_______W7_L0">
      <path d="M30.55 -8.45 L30.55 -8.45 12.65 -6.2 10.2 -31.55 5.3 -32.15 2.55 0.05 8.05 -0.55 32.1 -0.65 30.55 -8.45" fill-rule="evenodd" stroke="none"/>
    </g>
    <g id="font_______W7_o0">
      <path d="M15.8 -13.5 L15.8 -13.5 Q16.45 -11.85 16.45 -10.4 16.45 -6.85 12.35 -6.85 10.6 -6.85 9.35 -8.05 8.15 -9.35 8.15 -11.05 8.15 -13.25 9.8 -14.6 11.4 -16.0 13.7 -16.0 16.1 -16.0 18.3 -14.3 L15.8 -13.5 M25.7 -11.4 L25.7 -11.4 Q25.7 -13.8 24.75 -16.35 L21.25 -15.25 22.7 -17.2 Q18.35 -21.45 13.15 -21.45 8.45 -21.45 5.1 -18.2 1.8 -14.95 1.8 -10.3 1.8 -5.5 5.4 -2.65 8.65 0.05 13.65 0.05 18.75 0.05 22.2 -3.2 25.7 -6.4 25.7 -11.4" fill-rule="evenodd" stroke="none"/>
    </g>
    <g id="font_______W7_a0">
      <path d="M19.05 -8.85 L19.05 -8.85 18.5 -5.05 17.1 -9.0 Q14.35 -6.2 10.6 -6.2 9.95 -6.2 9.45 -6.75 9.0 -7.2 9.0 -7.85 9.0 -10.2 13.7 -10.2 15.9 -10.2 19.05 -8.85 M27.4 -6.8 L27.4 -6.8 Q27.4 -21.45 13.35 -21.45 7.15 -21.45 2.55 -18.35 L4.3 -14.35 Q8.3 -16.55 13.15 -16.55 17.85 -16.55 18.85 -13.35 15.4 -14.5 12.8 -14.5 8.6 -14.5 5.6 -12.8 1.8 -10.75 1.8 -6.95 1.8 -3.5 4.9 -1.55 7.55 0.05 11.15 0.05 13.95 0.05 17.35 -0.95 L17.0 0.15 26.7 -0.3 Q27.4 -3.45 27.4 -6.8" fill-rule="evenodd" stroke="none"/>
    </g>
    <g id="font_______W7_n0">
      <path d="M27.0 -9.05 L27.0 -9.05 Q27.0 -14.5 24.65 -17.8 21.9 -21.45 16.6 -21.45 12.6 -21.45 9.45 -18.85 L9.2 -20.75 4.35 -21.45 2.05 0.05 11.95 -1.4 10.35 -12.55 Q12.95 -15.85 15.9 -15.85 19.4 -15.85 19.4 -10.6 19.4 -6.9 16.6 -1.3 L26.2 0.0 Q27.0 -6.5 27.0 -9.05" fill-rule="evenodd" stroke="none"/>
    </g>
    <g id="font_______W7_S0">
      <path d="M31.55 -9.25 L31.55 -9.25 Q31.55 -13.4 28.3 -15.85 25.95 -17.65 19.7 -19.75 10.7 -22.75 10.7 -24.2 10.7 -25.4 11.9 -26.1 13.0 -26.75 14.65 -26.75 21.7 -26.75 27.4 -23.2 L30.25 -27.8 Q24.05 -32.15 16.75 -32.15 11.9 -32.15 8.45 -30.45 4.0 -28.25 4.0 -23.9 4.0 -20.3 7.85 -18.05 9.4 -17.1 15.9 -14.75 23.85 -11.9 23.85 -10.1 23.85 -8.7 22.45 -7.9 21.25 -7.25 19.75 -7.25 15.9 -7.25 12.1 -9.95 8.85 -12.25 6.35 -15.9 L1.55 -6.1 Q4.85 -3.25 9.45 -1.6 14.1 0.05 18.65 0.05 23.45 0.05 27.15 -2.15 31.55 -4.75 31.55 -9.25" fill-rule="evenodd" stroke="none"/>
    </g>
    <g id="font_______W7_h0">
      <path d="M28.1 -7.6 L28.1 -7.6 Q28.1 -13.7 25.7 -17.25 22.9 -21.45 17.05 -21.45 13.35 -21.45 10.45 -19.3 L9.3 -31.55 4.65 -32.15 2.05 0.05 12.1 -1.4 11.0 -12.9 Q13.45 -15.95 16.35 -15.95 20.1 -15.95 20.1 -10.2 20.1 -6.55 17.6 -1.55 L27.6 0.05 28.1 -7.6" fill-rule="evenodd" stroke="none"/>
    </g>
    <g id="font_______W7_r0">
      <path d="M18.3 -20.6 L18.3 -20.6 Q16.55 -21.45 14.75 -21.45 11.5 -21.45 8.7 -18.65 L8.45 -20.75 4.45 -21.45 2.55 0.05 10.65 -1.4 9.3 -12.8 Q10.55 -14.85 12.3 -14.85 13.25 -14.85 14.55 -13.85 L16.55 -12.05 18.3 -20.6" fill-rule="evenodd" stroke="none"/>
    </g>
    <g id="font_______W7_k0">
      <path d="M20.35 -12.2 L20.35 -12.2 26.9 -17.9 24.8 -21.8 10.85 -14.65 9.3 -31.45 4.6 -32.15 2.05 0.05 12.1 -1.4 11.35 -9.1 13.25 -6.05 15.8 -8.25 22.05 0.25 28.6 -6.95 20.35 -12.2" fill-rule="evenodd" stroke="none"/>
    </g>
    <g id="shape3" transform="matrix(1.0, 0.0, 0.0, 1.0, 17.9, 42.05)">
      <path d="M191.95 39.3 L192.65 41.05 193.35 41.85 194.1 42.2 Q200.05 44.4 200.95 38.2 202.15 41.65 199.4 43.15 192.65 46.85 191.95 39.3 M202.55 161.2 L204.65 160.25 192.1 121.95 150.05 95.95 153.15 87.9 245.25 69.4 231.05 42.2 224.0 39.75 223.3 39.9 223.95 39.75 150.7 14.4 21.55 -35.05 -9.7 -16.15 26.5 38.55 56.7 77.45 77.1 95.35 45.6 108.3 18.75 192.95 21.0 240.15 21.9 257.85 36.95 274.75 190.15 274.75 204.45 260.4 210.5 182.6 204.65 160.3 202.55 161.2 M222.7 32.95 L235.6 36.85 257.4 77.5 155.05 93.5 197.55 117.65 219.35 193.4 210.9 263.2 192.9 277.8 33.25 277.8 15.45 252.85 12.2 192.25 36.7 109.3 69.65 96.3 18.5 41.85 -17.9 -19.85 21.5 -42.05 42.0 -33.65 47.0 -31.6 127.35 1.35 142.7 7.75 Q154.1 12.5 165.8 16.05 L222.7 32.95 M194.2 175.2 L194.9 176.95 195.6 177.75 196.35 178.15 Q202.3 180.3 203.2 174.1 204.2 181.5 197.2 180.2 194.4 179.5 194.25 176.6 L194.2 175.2 M3.15 -6.95 L12.3 -16.45 12.3 -14.1 3.1 -4.45 3.1 -6.95 3.15 -6.95 M5.25 -5.05 Q6.85 -4.1 8.85 -4.05 15.15 -4.65 15.75 -10.7 16.2 -1.4 7.05 -2.55 L5.3 -2.8 5.25 -5.05 M27.45 249.4 L28.15 250.2 28.9 250.55 Q34.95 252.7 35.75 246.5 36.75 254.0 29.75 252.55 27.05 251.95 26.8 249.05 L26.75 247.6 27.45 249.4" fill="#47525f" fill-rule="evenodd" stroke="none"/>
      <path d="M223.3 39.9 L224.0 39.75 231.05 42.2 245.25 69.4 153.15 87.9 150.05 95.95 192.1 121.95 204.65 160.25 202.55 161.2 Q111.8 200.7 21.0 240.15 L18.75 192.95 45.6 108.3 77.1 95.35 56.7 77.45 223.3 39.9 M14.4 -14.65 L14.45 -13.7 Q14.2 -4.65 5.25 -5.05 L13.2 -13.35 14.4 -14.65" fill="#bab9ba" fill-rule="evenodd" stroke="none"/>
      <path d="M198.6 34.8 L197.6 34.45 Q192.25 33.95 191.95 39.3 192.65 46.85 199.4 43.15 202.15 41.65 200.95 38.2 200.8 37.0 200.0 36.0 199.4 35.25 198.6 34.8 M202.55 161.2 L204.65 160.3 210.5 182.6 204.45 260.4 190.15 274.75 36.95 274.75 21.9 257.85 21.0 240.15 Q111.8 200.7 202.55 161.2 M56.7 77.45 L26.5 38.55 -9.7 -16.15 21.55 -35.05 150.7 14.4 223.95 39.75 223.3 39.9 56.7 77.45 M200.8 170.7 L199.85 170.35 Q194.55 169.9 194.2 175.2 L194.25 176.6 Q194.4 179.5 197.2 180.2 204.2 181.5 203.2 174.1 203.05 172.9 202.25 171.9 L200.8 170.7 M2.85 -8.65 L2.8 -8.4 2.8 -8.5 2.85 -8.65 M3.1 -7.0 L3.15 -6.95 3.1 -6.95 3.1 -7.0 M12.3 -16.45 L11.9 -16.75 11.6 -16.65 Q5.4 -18.9 2.3 -12.4 L1.7 -10.65 1.7 -7.95 Q1.45 -7.1 3.1 -4.45 L5.3 -2.8 7.05 -2.55 Q16.2 -1.4 15.75 -10.7 L14.4 -14.65 13.2 -13.35 12.3 -14.1 12.3 -16.45 M26.75 247.6 L26.8 249.05 Q27.05 251.95 29.75 252.55 36.75 254.0 35.75 246.5 35.6 245.3 34.8 244.35 L33.35 243.1 32.4 242.75 Q27.05 242.25 26.75 247.6" fill="#9c9c9c" fill-rule="evenodd" stroke="none"/>
      <path d="M191.95 39.3 Q192.25 33.95 197.6 34.45 L198.6 34.8 Q196.1 34.8 194.4 36.65 192.65 38.5 192.65 41.05 L191.95 39.3 M194.2 175.2 Q194.55 169.9 199.85 170.35 L200.8 170.7 Q198.35 170.7 196.6 172.55 194.9 174.35 194.9 176.95 L194.2 175.2 M11.6 -16.65 L10.65 -16.3 Q5.2 -14.1 2.85 -8.65 L2.8 -8.5 2.7 -7.5 Q1.8 -9.0 1.7 -10.65 L2.3 -12.4 Q5.4 -18.9 11.6 -16.65 M27.45 249.4 L26.75 247.6 Q27.05 242.25 32.4 242.75 L33.35 243.1 Q30.9 243.1 29.2 244.95 27.45 246.8 27.45 249.4" fill="#e9e9eb" fill-rule="evenodd" stroke="none"/>
      <path d="M192.65 41.05 Q192.65 38.5 194.4 36.65 196.1 34.8 198.6 34.8 199.4 35.25 200.0 36.0 200.0 38.45 198.05 40.15 196.1 41.85 193.35 41.85 L192.65 41.05 M194.9 176.95 Q194.9 174.35 196.6 172.55 198.35 170.7 200.8 170.7 L202.25 171.9 Q202.25 174.3 200.3 176.05 198.35 177.75 195.6 177.75 L194.9 176.95 M2.85 -8.65 Q5.2 -14.1 10.65 -16.3 L11.6 -16.65 11.9 -16.75 12.3 -16.45 3.15 -6.95 3.1 -7.0 2.75 -7.5 2.8 -8.4 2.85 -8.65 M28.15 250.2 L27.45 249.4 Q27.45 246.8 29.2 244.95 30.9 243.1 33.35 243.1 L34.8 244.35 34.8 244.6 Q34.3 250.6 28.15 250.2" fill="#d0cfd0" fill-rule="evenodd" stroke="none"/>
      <path d="M200.0 36.0 Q200.8 37.0 200.95 38.2 200.05 44.4 194.1 42.2 L193.35 41.85 Q196.1 41.85 198.05 40.15 200.0 38.45 200.0 36.0 M202.25 171.9 Q203.05 172.9 203.2 174.1 202.3 180.3 196.35 178.15 L195.6 177.75 Q198.35 177.75 200.3 176.05 202.25 174.3 202.25 171.9 M5.25 -5.05 Q14.2 -4.65 14.45 -13.7 L14.4 -14.65 15.75 -10.7 Q15.15 -4.65 8.85 -4.05 6.85 -4.1 5.25 -5.05 M35.75 246.5 Q34.95 252.7 28.9 250.55 L28.15 250.2 Q34.3 250.6 34.8 244.6 L34.8 244.35 Q35.6 245.3 35.75 246.5" fill="#b0aeb3" fill-rule="evenodd" stroke="none"/>
      <path d="M13.2 -13.35 L5.25 -5.05 5.3 -2.8 3.1 -4.45 12.3 -14.1 13.2 -13.35" fill="#57565b" fill-rule="evenodd" stroke="none"/>
      <path d="M2.8 -8.4 L2.75 -7.5 3.1 -7.0 3.1 -6.95 3.1 -4.45 Q1.45 -7.1 1.7 -7.95 L1.7 -10.65 Q1.8 -9.0 2.7 -7.5 L2.8 -8.5 2.8 -8.4" fill="#79818b" fill-rule="evenodd" stroke="none"/>
    </g>
    <g id="shape4" transform="matrix(1.0, 0.0, 0.0, 1.0, 0.0, 0.0)">
      <path d="M166.8 63.35 L134.25 55.8 125.95 53.4 Q109.35 48.7 93.5 41.95 67.5 30.7 41.75 18.65 24.0 10.4 6.1 2.5 4.65 3.15 2.55 5.6 0.45 8.05 4.2 18.65 7.9 29.25 15.85 43.75 L16.35 43.55 Q16.5 41.65 16.8 39.8 17.3 37.05 19.7 36.7 21.45 36.75 22.5 38.25 24.6 41.4 24.85 45.25 L27.45 46.8 28.75 43.6 Q29.05 42.95 29.65 42.55 30.2 42.1 30.85 41.85 L32.1 42.05 33.1 43.35 33.6 44.45 34.35 47.85 34.75 51.6 39.1 55.1 Q40.4 53.05 42.25 51.35 43.2 50.6 44.3 50.35 45.1 50.35 45.75 50.8 47.6 51.95 47.5 54.05 47.35 57.55 45.65 60.5 L48.2 62.85 Q51.05 58.5 55.7 57.85 57.45 57.75 58.3 59.25 59.25 60.9 58.85 63.05 58.15 67.1 56.15 70.9 L56.65 71.45 58.25 70.55 59.05 70.15 59.9 69.85 60.75 69.6 61.6 69.35 63.35 69.25 63.6 69.3 64.05 69.6 64.15 70.65 64.0 72.4 63.1 74.85 61.8 77.05 63.55 79.2 63.8 78.5 64.2 77.7 65.05 76.2 65.9 75.1 66.75 74.45 Q67.05 74.15 67.45 73.95 68.3 73.85 68.65 74.5 70.2 77.3 69.9 80.7 69.6 83.65 69.8 86.65 69.9 88.55 70.65 90.4 72.1 94.15 72.65 98.25 L72.0 98.7 71.25 98.55 67.9 90.55 Q66.55 87.55 64.65 84.9 50.55 65.05 30.7 51.15 L26.0 47.75 Q21.8 44.65 16.9 45.5 21.15 52.2 26.2 58.0 39.05 72.65 51.4 87.65 L71.1 112.0 Q82.25 119.75 95.9 117.8 102.3 114.2 108.8 111.15 110.0 105.3 112.05 99.65 112.75 97.8 113.75 96.1 114.25 95.3 115.15 94.95 132.45 87.7 150.9 84.1 169.65 80.4 188.0 75.25 186.05 70.2 181.15 68.0 174.2 64.95 166.8 63.35 M178.45 64.45 Q183.75 65.7 187.45 69.25 190.05 71.2 190.35 74.55 190.5 76.15 190.25 77.85 163.95 86.4 136.9 91.15 126.65 93.0 118.4 99.2 116.0 101.05 114.65 103.85 112.65 108.1 112.0 112.8 L146.85 129.05 156.7 183.75 156.15 232.05 156.45 232.45 Q157.4 243.5 155.5 254.45 144.95 260.4 138.2 260.1 131.45 259.75 129.6 256.85 L128.95 262.6 Q90.15 264.7 50.8 263.7 L49.2 257.25 44.25 261.8 18.35 251.15 14.1 220.35 17.7 178.85 33.35 127.2 68.45 113.45 Q41.25 80.2 15.15 45.95 8.15 36.7 3.7 26.15 -0.4 16.55 0.05 6.25 0.15 3.8 2.0 2.2 L4.85 0.0 Q45.95 16.3 86.05 34.85 102.1 42.3 119.3 47.85 148.5 57.25 178.45 64.45 M138.7 136.65 Q139.0 136.0 139.7 136.1 L140.85 137.6 135.25 150.55 131.5 226.3 Q136.3 221.55 143.2 221.05 L153.2 229.4 153.7 184.15 144.05 130.35 123.25 121.1 110.6 133.45 115.55 137.5 Q116.1 138.5 115.35 139.4 L89.0 167.45 84.8 260.95 126.2 260.45 126.75 255.25 121.6 252.0 121.55 243.2 124.55 240.9 Q125.0 235.05 128.3 230.25 L132.25 150.15 Q135.35 143.3 138.7 136.65 M86.7 55.5 Q93.0 60.9 88.45 67.9 79.0 64.6 78.1 54.5 L75.4 52.2 76.15 51.35 Q87.6 50.1 97.55 54.95 L97.15 55.75 96.45 56.15 93.95 55.4 84.85 54.65 80.35 54.9 80.8 54.9 80.0 55.15 80.1 56.65 82.0 61.2 85.0 63.9 87.45 65.85 88.0 64.05 Q89.4 59.6 85.55 56.5 L86.7 55.5 M76.55 56.55 Q76.95 57.05 76.55 57.55 73.3 64.45 74.75 71.9 L74.0 72.7 72.8 71.95 Q71.3 63.95 74.85 56.45 L76.2 56.2 76.55 56.55 M18.7 40.0 L18.35 43.0 22.6 44.1 Q22.3 40.55 19.8 38.6 L18.7 40.0 M31.1 43.85 L29.85 45.4 29.25 47.8 32.6 50.0 Q32.8 46.6 31.1 43.85 M41.4 55.2 L40.7 56.35 44.05 59.15 Q46.15 55.95 45.05 52.5 42.65 53.05 41.4 55.2 M64.9 81.05 L67.6 85.1 Q68.15 80.6 67.45 76.25 L64.9 81.05 M62.3 71.25 Q59.95 71.35 58.05 72.9 L60.45 75.5 Q62.0 73.6 62.3 71.25 M56.6 60.4 L56.35 59.8 Q52.1 60.8 49.6 64.25 L54.6 69.35 Q57.3 65.2 56.6 60.4 M49.55 123.55 L35.95 128.75 20.7 179.15 17.05 220.2 18.75 232.65 Q23.1 226.35 27.6 220.15 27.9 219.75 28.45 219.7 33.15 218.65 37.1 220.15 42.65 222.15 47.35 226.5 L42.85 158.2 38.5 149.1 38.4 148.6 Q38.25 147.25 39.75 147.0 L40.5 147.6 Q43.25 152.25 45.6 157.15 L45.8 157.7 50.55 229.5 Q52.75 230.9 53.9 233.2 L53.95 233.95 51.95 240.1 Q52.65 240.4 52.85 241.15 L55.25 250.15 55.3 250.9 55.2 251.25 52.15 254.3 52.3 260.7 81.8 260.9 86.0 167.4 57.65 138.25 Q56.75 137.35 57.55 136.25 L57.9 136.05 Q60.95 133.8 64.05 131.7 L49.55 123.55 M106.85 115.1 L97.9 119.6 101.2 129.0 106.85 115.1 M95.6 122.15 L95.1 120.7 85.7 120.45 84.8 122.3 87.25 129.0 91.75 129.35 95.6 122.15 M99.5 133.25 L96.95 126.0 94.1 131.3 97.6 137.95 99.5 133.25 M68.2 131.05 L68.3 132.0 61.05 137.45 84.05 161.1 69.2 116.35 53.25 122.2 68.2 131.05 M107.2 134.4 L106.9 133.2 120.3 119.8 110.05 115.25 91.95 159.9 112.05 138.5 107.2 134.4 M84.55 130.3 L82.95 125.95 78.55 134.9 80.05 139.4 84.55 130.3 M77.2 130.85 L82.6 119.85 72.0 115.3 77.2 130.85 M91.25 132.3 L87.05 132.0 81.4 143.5 87.65 162.45 96.1 141.6 91.25 132.3 M34.0 233.25 L35.05 232.75 36.15 233.05 37.6 245.1 45.1 245.1 47.25 240.25 48.85 240.0 50.9 233.95 37.05 220.9 29.55 222.3 20.95 234.7 20.75 249.1 43.6 258.55 52.25 250.1 50.3 243.0 49.15 243.0 47.3 247.6 46.7 248.05 35.4 247.85 Q33.6 240.65 34.0 233.25 M128.05 235.3 L127.6 240.6 133.4 246.3 140.1 246.25 140.25 242.95 Q139.4 241.15 138.85 239.3 138.7 238.8 139.05 238.35 140.2 237.1 141.3 238.6 142.75 240.55 142.9 242.75 143.05 245.5 142.55 248.3 142.5 248.7 142.05 248.6 L132.85 249.1 Q132.3 249.1 131.9 248.75 L126.2 243.45 124.5 244.4 124.5 250.5 137.8 258.05 153.05 252.15 153.8 233.95 142.8 224.1 136.75 224.6 128.05 235.3" fill="#1a1a1a" fill-rule="evenodd" stroke="none"/>
      <path d="M166.8 63.35 Q174.2 64.95 181.15 68.0 186.05 70.2 188.0 75.25 169.65 80.4 150.9 84.1 132.45 87.7 115.15 94.95 114.25 95.3 113.75 96.1 112.75 97.8 112.05 99.65 110.0 105.3 108.8 111.15 102.3 114.2 95.9 117.8 82.25 119.75 71.1 112.0 L51.4 87.65 Q39.05 72.65 26.2 58.0 21.15 52.2 16.9 45.5 21.8 44.65 26.0 47.75 L30.7 51.15 Q50.55 65.05 64.65 84.9 66.55 87.55 67.9 90.55 L71.25 98.55 72.0 98.7 72.65 98.25 Q72.1 94.15 70.65 90.4 69.9 88.55 69.8 86.65 69.6 83.65 69.9 80.7 70.2 77.3 68.65 74.5 68.3 73.85 67.45 73.95 67.05 74.15 66.75 74.45 L65.9 75.1 65.05 76.2 64.2 77.7 63.8 78.5 63.55 79.2 61.8 77.05 63.1 74.85 64.0 72.4 64.15 70.65 64.05 69.6 63.6 69.3 63.35 69.25 61.6 69.35 60.75 69.6 59.9 69.85 59.05 70.15 58.25 70.55 56.65 71.45 56.15 70.9 Q58.15 67.1 58.85 63.05 59.25 60.9 58.3 59.25 57.45 57.75 55.7 57.85 51.05 58.5 48.2 62.85 L45.65 60.5 Q47.35 57.55 47.5 54.05 47.6 51.95 45.75 50.8 45.1 50.35 44.3 50.35 43.2 50.6 42.25 51.35 40.4 53.05 39.1 55.1 L34.75 51.6 34.35 47.85 33.6 44.45 33.1 43.35 32.1 42.05 30.85 41.85 Q30.2 42.1 29.65 42.55 29.05 42.95 28.75 43.6 L27.45 46.8 24.85 45.25 Q24.6 41.4 22.5 38.25 21.45 36.75 19.7 36.7 17.3 37.05 16.8 39.8 16.5 41.65 16.35 43.55 L15.85 43.75 Q7.9 29.25 4.2 18.65 0.45 8.05 2.55 5.6 4.65 3.15 6.1 2.5 24.0 10.4 41.75 18.65 67.5 30.7 93.5 41.95 109.35 48.7 125.95 53.4 L134.25 55.8 166.8 63.35 M84.85 54.65 L93.95 55.4 96.45 56.15 97.15 55.75 97.55 54.95 Q87.6 50.1 76.15 51.35 L75.4 52.2 78.1 54.5 Q79.0 64.6 88.45 67.9 93.0 60.9 86.7 55.5 L84.85 54.65 M76.55 56.55 L76.2 56.2 74.85 56.45 Q71.3 63.95 72.8 71.95 L74.0 72.7 74.75 71.9 Q73.3 64.45 76.55 57.55 76.95 57.05 76.55 56.55 M106.85 115.1 L101.2 129.0 97.9 119.6 106.85 115.1 M99.5 133.25 L97.6 137.95 94.1 131.3 96.95 126.0 99.5 133.25 M77.2 130.85 L72.0 115.3 82.6 119.85 77.2 130.85 M84.55 130.3 L80.05 139.4 78.55 134.9 82.95 125.95 84.55 130.3 M128.05 235.3 L136.75 224.6 142.8 224.1 153.8 233.95 153.05 252.15 137.8 258.05 124.5 250.5 124.5 244.4 126.2 243.45 131.9 248.75 Q132.3 249.1 132.85 249.1 L142.05 248.6 Q142.5 248.7 142.55 248.3 143.05 245.5 142.9 242.75 142.75 240.55 141.3 238.6 140.2 237.1 139.05 238.35 138.7 238.8 138.85 239.3 139.4 241.15 140.25 242.95 L140.1 246.25 133.4 246.3 127.6 240.6 128.05 235.3 M34.0 233.25 Q33.6 240.65 35.4 247.85 L46.7 248.05 47.3 247.6 49.15 243.0 50.3 243.0 52.25 250.1 43.6 258.55 20.75 249.1 20.95 234.7 29.55 222.3 37.05 220.9 50.9 233.95 48.85 240.0 47.25 240.25 45.1 245.1 37.6 245.1 36.15 233.05 35.05 232.75 34.0 233.25" fill="#c1d9cb" fill-rule="evenodd" stroke="none"/>
      <path d="M138.7 136.65 Q135.35 143.3 132.25 150.15 L128.3 230.25 Q125.0 235.05 124.55 240.9 L121.55 243.2 121.6 252.0 126.75 255.25 126.2 260.45 84.8 260.95 89.0 167.45 115.35 139.4 Q116.1 138.5 115.55 137.5 L110.6 133.45 123.25 121.1 144.05 130.35 153.7 184.15 153.2 229.4 143.2 221.05 Q136.3 221.55 131.5 226.3 L135.25 150.55 140.85 137.6 139.7 136.1 Q139.0 136.0 138.7 136.65 M49.55 123.55 L64.05 131.7 Q60.95 133.8 57.9 136.05 L57.55 136.25 Q56.75 137.35 57.65 138.25 L86.0 167.4 81.8 260.9 52.3 260.7 52.15 254.3 55.2 251.25 55.3 250.9 55.25 250.15 52.85 241.15 Q52.65 240.4 51.95 240.1 L53.95 233.95 53.9 233.2 Q52.75 230.9 50.55 229.5 L45.8 157.7 45.6 157.15 Q43.25 152.25 40.5 147.6 L39.75 147.0 Q38.25 147.25 38.4 148.6 L38.5 149.1 42.85 158.2 47.35 226.5 Q42.65 222.15 37.1 220.15 33.15 218.65 28.45 219.7 27.9 219.75 27.6 220.15 23.1 226.35 18.75 232.65 L17.05 220.2 20.7 179.15 35.95 128.75 49.55 123.55 M107.2 134.4 L112.05 138.5 91.95 159.9 110.05 115.25 120.3 119.8 106.9 133.2 107.2 134.4 M68.2 131.05 L53.25 122.2 69.2 116.35 84.05 161.1 61.05 137.45 68.3 132.0 68.2 131.05" fill="#106557" fill-rule="evenodd" stroke="none"/>
      <path d="M84.85 54.65 L86.7 55.5 85.55 56.5 80.1 56.65 80.0 55.15 80.8 54.9 80.35 54.9 84.85 54.65 M85.0 63.9 L82.0 61.2 82.4 60.7 Q83.85 59.85 85.4 61.1 86.75 62.55 85.5 63.65 L85.0 63.9" fill="#000000" fill-rule="evenodd" stroke="none"/>
      <path d="M85.55 56.5 Q89.4 59.6 88.0 64.05 L87.45 65.85 85.0 63.9 85.5 63.65 Q86.75 62.55 85.4 61.1 83.85 59.85 82.4 60.7 L82.0 61.2 80.1 56.65 85.55 56.5 M56.6 60.4 Q57.3 65.2 54.6 69.35 L49.6 64.25 Q52.1 60.8 56.35 59.8 L56.6 60.4 M62.3 71.25 Q62.0 73.6 60.45 75.5 L58.05 72.9 Q59.95 71.35 62.3 71.25 M64.9 81.05 L67.45 76.25 Q68.15 80.6 67.6 85.1 L64.9 81.05 M41.4 55.2 Q42.65 53.05 45.05 52.5 46.15 55.95 44.05 59.15 L40.7 56.35 41.4 55.2 M31.1 43.85 Q32.8 46.6 32.6 50.0 L29.25 47.8 29.85 45.4 31.1 43.85 M18.7 40.0 L19.8 38.6 Q22.3 40.55 22.6 44.1 L18.35 43.0 18.7 40.0" fill="#ffffff" fill-rule="evenodd" stroke="none"/>
      <path d="M95.6 122.15 L91.75 129.35 87.25 129.0 84.8 122.3 85.7 120.45 95.1 120.7 95.6 122.15 M91.25 132.3 L96.1 141.6 87.65 162.45 81.4 143.5 87.05 132.0 91.25 132.3" fill="#0e4239" fill-rule="evenodd" stroke="none"/>
    </g>
    <g id="shape5" transform="matrix(1.0, 0.0, 0.0, 1.0, -0.25, -0.1)">
      <path d="M41.5 9.2 Q42.4 9.55 43.15 9.95 46.05 11.85 46.9 14.2 L47.35 15.85 47.65 17.9 47.25 18.65 44.0 19.2 38.3 19.95 37.2 18.3 37.9 23.9 45.75 25.9 Q47.7 26.7 49.5 27.85 L51.3 29.45 51.9 30.15 53.05 32.2 Q53.9 34.55 53.45 37.4 53.05 39.65 51.8 42.25 50.75 44.2 48.5 45.95 L41.3 49.9 41.5 51.65 41.65 52.55 41.55 54.25 40.85 54.55 36.85 54.55 33.35 54.55 32.45 54.35 32.1 53.1 32.0 51.75 29.9 51.65 29.95 52.0 30.05 53.35 30.25 54.95 30.05 55.55 29.7 55.8 21.15 55.75 20.85 54.7 20.85 53.9 20.8 52.15 20.8 50.7 Q14.65 48.7 10.65 43.65 L7.9 38.1 7.55 35.2 8.6 34.85 10.8 34.65 18.35 34.25 20.5 38.15 19.95 29.25 Q14.15 29.25 10.1 25.5 8.95 24.2 8.45 22.85 7.9 20.7 8.2 18.6 8.55 16.85 9.35 15.4 10.25 14.05 11.4 12.85 L14.5 10.85 17.6 9.4 17.5 8.85 17.35 8.15 17.1 6.75 17.15 4.7 17.75 4.4 24.8 4.3 25.3 5.6 25.4 6.25 25.5 7.1 27.25 6.95 27.1 6.05 27.05 5.4 26.95 4.05 31.85 2.35 33.7 2.05 35.15 2.35 35.4 3.05 35.6 5.0 35.8 6.45 35.85 7.15 35.9 7.6 38.4 8.15 Q40.1 8.6 41.5 9.2 M45.7 17.05 Q45.55 13.85 43.0 11.9 39.95 9.6 36.1 8.95 L36.85 15.25 Q38.5 16.2 39.2 17.9 L45.7 17.05 M50.5 31.85 Q50.15 30.75 49.3 29.9 44.5 25.35 38.05 25.6 L38.65 30.05 39.6 30.55 Q42.85 32.45 41.55 36.3 L39.75 38.5 41.0 47.75 45.35 45.65 Q47.2 44.6 48.4 43.0 52.3 37.95 50.5 31.85 M27.4 8.2 L25.7 8.35 26.75 14.8 28.3 14.65 27.4 8.2 M28.4 15.6 L26.8 15.75 27.6 23.3 29.5 23.7 28.4 15.6 M25.75 23.5 L23.6 5.85 19.25 5.95 20.8 20.4 21.2 26.55 Q22.1 40.45 22.3 54.4 L28.25 54.0 25.75 23.5 M33.65 3.4 L28.7 4.7 Q30.45 15.1 31.3 25.55 L32.1 34.2 33.65 52.85 39.75 52.65 33.65 3.4 M10.9 18.95 L10.85 19.95 Q10.85 20.9 11.15 21.85 13.15 27.7 19.8 27.9 L19.5 24.35 Q17.9 24.05 17.15 22.75 14.95 18.95 18.75 16.85 L17.85 10.85 Q14.85 12.2 12.8 14.55 11.15 16.4 10.9 18.95 M18.25 20.55 Q18.5 21.5 19.1 22.15 L18.9 18.45 Q17.95 19.3 18.25 20.55 M17.1 36.0 L9.45 36.65 9.8 37.65 Q13.15 45.05 20.75 48.3 L20.55 39.4 Q18.1 38.3 17.1 36.0 M38.85 31.85 L39.5 36.6 Q40.7 34.95 39.5 32.5 L38.85 31.85 M27.8 25.4 L28.1 28.4 30.2 28.6 29.75 25.5 27.8 25.4 M30.35 29.8 L28.2 29.6 29.05 39.75 31.25 39.65 30.35 29.8 M31.35 40.85 L29.15 40.95 29.75 49.8 31.9 49.75 31.35 40.85" fill="#005d51" fill-rule="evenodd" stroke="none"/>
      <path d="M46.9 14.2 Q46.05 11.85 43.15 9.95 42.4 9.55 41.5 9.2 38.85 7.4 35.8 6.45 L35.6 5.0 Q41.65 6.85 46.0 11.25 54.5 20.05 53.05 32.2 L51.9 30.15 51.95 28.7 Q51.75 20.2 46.9 14.2 M35.15 2.35 L33.7 2.05 Q21.3 -0.05 11.55 7.85 2.85 14.9 1.65 25.95 0.9 32.85 3.65 39.2 8.8 50.9 20.85 54.7 L21.15 55.75 29.7 55.8 Q33.45 55.6 36.85 54.55 L40.85 54.55 Q35.35 57.15 28.6 57.3 16.45 56.95 8.4 48.9 4.75 45.25 2.7 40.85 1.25 37.7 0.65 34.15 -0.1 29.5 0.5 24.9 1.2 19.5 3.95 14.75 6.75 10.0 10.95 6.65 14.95 3.5 19.8 1.7 24.05 0.1 28.6 0.1 40.7 0.4 48.8 8.5 56.9 16.55 57.2 28.7 56.85 40.8 48.8 48.9 45.5 52.2 41.55 54.25 L41.65 52.55 Q44.95 50.7 47.8 47.9 55.45 40.2 55.75 28.7 55.45 17.15 47.8 9.5 42.45 4.1 35.15 2.35 M26.95 4.05 L27.05 5.4 25.3 5.6 24.8 4.3 26.95 4.05 M17.1 6.75 L17.35 8.15 11.4 12.85 Q10.25 14.05 9.35 15.4 5.4 21.05 5.2 28.7 5.4 37.45 10.65 43.65 14.65 48.7 20.8 50.7 L20.8 52.15 Q15.35 50.4 11.1 46.15 4.1 39.15 3.85 28.7 4.1 18.2 11.1 11.2 13.8 8.45 17.1 6.75 M30.05 53.35 L29.95 52.0 32.0 51.75 32.1 53.1 30.05 53.35" fill="#006868" fill-rule="evenodd" stroke="none"/>
      <path d="M40.65 12.0 L42.45 12.1 43.6 13.4 Q44.15 15.45 42.2 16.35 41.3 16.6 40.6 16.35 L40.45 16.3 40.4 16.25 Q39.7 15.85 39.25 14.95 38.7 12.9 40.65 12.0 M41.6 15.7 L41.95 15.6 Q43.65 14.75 42.45 13.1 L41.6 15.7 M41.65 12.75 L40.95 12.8 Q39.7 13.35 40.05 14.7 L40.45 15.3 41.65 12.75 M46.05 37.3 Q48.15 37.85 48.0 39.95 47.45 42.05 45.3 41.9 44.3 41.65 43.85 41.05 L43.8 41.0 43.75 40.9 Q43.3 40.25 43.4 39.2 43.95 37.1 46.05 37.3 M44.8 40.8 L45.45 41.05 Q47.4 41.15 47.1 39.15 L44.8 40.8 M46.65 38.45 L45.95 38.1 Q44.6 38.0 44.2 39.35 L44.3 40.15 46.65 38.45 M13.5 18.1 L12.75 18.1 14.15 20.6 14.5 19.95 Q14.75 18.6 13.5 18.1 M10.85 19.95 L10.9 18.95 Q11.55 17.0 13.6 17.25 15.35 17.7 15.4 19.55 15.45 21.1 14.0 21.75 L12.3 21.65 Q11.15 21.15 10.85 19.95 M12.65 20.95 L13.35 21.0 12.0 18.55 11.65 19.1 Q11.4 20.45 12.65 20.95 M17.55 42.65 L17.85 42.0 15.0 42.3 15.45 42.9 Q16.6 43.65 17.55 42.65 M17.3 40.6 Q16.2 39.8 15.2 40.8 L14.9 41.45 17.75 41.15 17.3 40.6 M18.75 41.5 L18.5 42.45 Q17.95 44.1 16.25 44.15 L15.8 44.0 Q13.3 42.75 14.55 40.25 L15.4 39.85 Q17.95 38.9 18.75 41.5" fill="#0f6f61" fill-rule="evenodd" stroke="none"/>
      <path d="M40.65 12.0 Q38.7 12.9 39.25 14.95 39.7 15.85 40.4 16.25 L40.45 16.3 40.6 16.35 Q41.3 16.6 42.2 16.35 44.15 15.45 43.6 13.4 L42.45 12.1 40.65 12.0 M45.7 17.05 L39.2 17.9 Q38.5 16.2 36.85 15.25 L36.1 8.95 Q39.95 9.6 43.0 11.9 45.55 13.85 45.7 17.05 M50.5 31.85 Q52.3 37.95 48.4 43.0 47.2 44.6 45.35 45.65 L41.0 47.75 39.75 38.5 41.55 36.3 Q42.85 32.45 39.6 30.55 L38.65 30.05 38.05 25.6 Q44.5 25.35 49.3 29.9 50.15 30.75 50.5 31.85 M46.05 37.3 Q43.95 37.1 43.4 39.2 43.3 40.25 43.75 40.9 L43.8 41.0 43.85 41.05 Q44.3 41.65 45.3 41.9 47.45 42.05 48.0 39.95 48.15 37.85 46.05 37.3 M32.9 7.7 L31.15 6.85 Q30.6 9.15 30.85 11.4 L31.8 18.75 Q33.9 33.8 34.4 48.9 34.45 50.1 35.5 51.1 L37.15 50.9 Q37.65 50.05 37.55 48.95 L36.95 43.5 36.1 33.95 Q35.3 20.6 32.9 7.7 M27.4 8.2 L28.3 14.65 26.75 14.8 25.7 8.35 27.4 8.2 M24.25 24.5 Q24.2 18.9 23.7 13.7 23.2 8.5 22.1 8.2 20.85 8.6 21.15 13.7 21.45 18.8 22.2 24.2 L23.1 31.05 Q23.5 40.1 23.8 43.3 23.3 47.7 24.9 51.6 26.25 50.8 26.15 48.65 L25.8 45.15 Q24.55 38.45 24.3 31.65 L24.25 24.5 M33.65 3.4 L39.75 52.65 33.65 52.85 32.1 34.2 31.3 25.55 Q30.45 15.1 28.7 4.7 L33.65 3.4 M25.75 23.5 L28.25 54.0 22.3 54.4 Q22.1 40.45 21.2 26.55 L20.8 20.4 19.25 5.95 23.6 5.85 25.75 23.5 M10.85 19.95 Q11.15 21.15 12.3 21.65 L14.0 21.75 Q15.45 21.1 15.4 19.55 15.35 17.7 13.6 17.25 11.55 17.0 10.9 18.95 11.15 16.4 12.8 14.55 14.85 12.2 17.85 10.85 L18.75 16.85 Q14.95 18.95 17.15 22.75 17.9 24.05 19.5 24.35 L19.8 27.9 Q13.15 27.7 11.15 21.85 10.85 20.9 10.85 19.95 M18.75 41.5 Q17.95 38.9 15.4 39.85 L14.55 40.25 Q13.3 42.75 15.8 44.0 L16.25 44.15 Q17.95 44.1 18.5 42.45 L18.75 41.5 M17.1 36.0 Q18.1 38.3 20.55 39.4 L20.75 48.3 Q13.15 45.05 9.8 37.65 L9.45 36.65 17.1 36.0 M27.8 25.4 L29.75 25.5 30.2 28.6 28.1 28.4 27.8 25.4 M31.35 40.85 L31.9 49.75 29.75 49.8 29.15 40.95 31.35 40.85" fill="#85ab93" fill-rule="evenodd" stroke="none"/>
      <path d="M38.4 8.15 L35.9 7.6 35.85 7.15 38.4 8.15 M27.1 6.05 L27.25 6.95 25.5 7.1 25.4 6.25 27.1 6.05 M17.5 8.85 L17.6 9.4 14.5 10.85 Q15.9 9.7 17.5 8.85 M8.2 18.6 Q7.9 20.7 8.45 22.85 7.45 26.0 7.7 29.6 7.85 32.35 8.6 34.85 L7.55 35.2 7.9 38.1 Q6.0 33.85 5.85 28.7 6.0 23.1 8.2 18.6 M51.3 29.45 L49.5 27.85 Q49.25 23.0 47.25 18.65 L47.65 17.9 47.35 15.85 Q51.15 21.35 51.3 28.7 L51.3 29.45" fill="#85b599" fill-rule="evenodd" stroke="none"/>
      <path d="M41.5 9.2 Q40.1 8.6 38.4 8.15 L35.85 7.15 35.8 6.45 Q38.85 7.4 41.5 9.2 M35.4 3.05 L35.15 2.35 Q42.45 4.1 47.8 9.5 55.45 17.15 55.75 28.7 55.45 40.2 47.8 47.9 44.95 50.7 41.65 52.55 L41.5 51.65 Q44.6 49.9 47.2 47.3 L48.5 45.95 Q50.75 44.2 51.8 42.25 53.05 39.65 53.45 37.4 54.8 33.35 54.95 28.6 54.65 17.35 47.2 9.9 42.15 4.85 35.4 3.05 M33.7 2.05 L31.85 2.35 28.5 2.1 Q22.6 2.25 17.75 4.4 L17.15 4.7 Q6.8 9.85 3.35 20.8 0.5 29.95 4.3 38.8 9.25 50.2 20.85 53.9 L20.85 54.7 Q8.8 50.9 3.65 39.2 0.9 32.85 1.65 25.95 2.85 14.9 11.55 7.85 21.3 -0.05 33.7 2.05 M27.05 5.4 L27.1 6.05 25.4 6.25 25.3 5.6 27.05 5.4 M17.35 8.15 L17.5 8.85 Q15.9 9.7 14.5 10.85 L11.4 12.85 17.35 8.15 M9.35 15.4 Q8.55 16.85 8.2 18.6 6.0 23.1 5.85 28.7 6.0 33.85 7.9 38.1 L10.65 43.65 Q5.4 37.45 5.2 28.7 5.4 21.05 9.35 15.4 M29.7 55.8 L30.05 55.55 30.25 54.95 33.35 54.55 36.85 54.55 Q33.45 55.6 29.7 55.8 M29.95 52.0 L29.9 51.65 32.0 51.75 29.95 52.0 M51.9 30.15 L51.3 29.45 51.3 28.7 Q51.15 21.35 47.35 15.85 L46.9 14.2 Q51.75 20.2 51.95 28.7 L51.9 30.15" fill="#085854" fill-rule="evenodd" stroke="none"/>
      <path d="M41.65 12.75 L40.45 15.3 40.05 14.7 Q39.7 13.35 40.95 12.8 L41.65 12.75 M41.6 15.7 L42.45 13.1 Q43.65 14.75 41.95 15.6 L41.6 15.7 M46.65 38.45 L44.3 40.15 44.2 39.35 Q44.6 38.0 45.95 38.1 L46.65 38.45 M44.8 40.8 L47.1 39.15 Q47.4 41.15 45.45 41.05 L44.8 40.8 M13.5 18.1 Q14.75 18.6 14.5 19.95 L14.15 20.6 12.75 18.1 13.5 18.1 M12.65 20.95 Q11.4 20.45 11.65 19.1 L12.0 18.55 13.35 21.0 12.65 20.95 M17.3 40.6 L17.75 41.15 14.9 41.45 15.2 40.8 Q16.2 39.8 17.3 40.6 M17.55 42.65 Q16.6 43.65 15.45 42.9 L15.0 42.3 17.85 42.0 17.55 42.65" fill="#a0beac" fill-rule="evenodd" stroke="none"/>
      <path d="M35.6 5.0 L35.4 3.05 Q42.15 4.85 47.2 9.9 54.65 17.35 54.95 28.6 54.8 33.35 53.45 37.4 53.9 34.55 53.05 32.2 54.5 20.05 46.0 11.25 41.65 6.85 35.6 5.0 M31.85 2.35 L26.95 4.05 24.8 4.3 17.75 4.4 Q22.6 2.25 28.5 2.1 L31.85 2.35 M17.15 4.7 L17.1 6.75 Q13.8 8.45 11.1 11.2 4.1 18.2 3.85 28.7 4.1 39.15 11.1 46.15 15.35 50.4 20.8 52.15 L20.85 53.9 Q9.25 50.2 4.3 38.8 0.5 29.95 3.35 20.8 6.8 9.85 17.15 4.7 M8.45 22.85 Q8.95 24.2 10.1 25.5 8.85 29.75 10.65 34.3 L10.8 34.65 8.6 34.85 Q7.85 32.35 7.7 29.6 7.45 26.0 8.45 22.85 M30.25 54.95 L30.05 53.35 32.1 53.1 32.45 54.35 33.35 54.55 30.25 54.95 M41.5 51.65 L41.3 49.9 48.5 45.95 47.2 47.3 Q44.6 49.9 41.5 51.65 M49.5 27.85 Q47.7 26.7 45.75 25.9 45.45 22.35 44.0 19.2 L47.25 18.65 Q49.25 23.0 49.5 27.85" fill="#98bea8" fill-rule="evenodd" stroke="none"/>
      <path d="M10.1 25.5 Q14.15 29.25 19.95 29.25 L20.5 38.15 18.35 34.25 10.8 34.65 10.65 34.3 Q8.85 29.75 10.1 25.5 M45.75 25.9 L37.9 23.9 37.2 18.3 38.3 19.95 44.0 19.2 Q45.45 22.35 45.75 25.9 M28.4 15.6 L29.5 23.7 27.6 23.3 26.8 15.75 28.4 15.6 M18.25 20.55 Q17.95 19.3 18.9 18.45 L19.1 22.15 Q18.5 21.5 18.25 20.55 M38.85 31.85 L39.5 32.5 Q40.7 34.95 39.5 36.6 L38.85 31.85 M30.35 29.8 L31.25 39.65 29.05 39.75 28.2 29.6 30.35 29.8" fill="#c1d9cb" fill-rule="evenodd" stroke="none"/>
      <path d="M32.9 7.7 Q35.3 20.6 36.1 33.95 L36.95 43.5 37.55 48.95 Q37.65 50.05 37.15 50.9 L35.5 51.1 Q34.45 50.1 34.4 48.9 33.9 33.8 31.8 18.75 L30.85 11.4 Q30.6 9.15 31.15 6.85 L32.9 7.7 M24.25 24.5 L24.3 31.65 Q24.55 38.45 25.8 45.15 L26.15 48.65 Q26.25 50.8 24.9 51.6 23.3 47.7 23.8 43.3 23.5 40.1 23.1 31.05 L22.2 24.2 Q21.45 18.8 21.15 13.7 20.85 8.6 22.1 8.2 23.2 8.5 23.7 13.7 24.2 18.9 24.25 24.5" fill="#689878" fill-rule="evenodd" stroke="none"/>
    </g>
  </defs>
</svg>
