<?xml version="1.0" encoding="UTF-8" standalone="no"?>
<svg xmlns:xlink="http://www.w3.org/1999/xlink" height="436.75px" width="359.4px" xmlns="http://www.w3.org/2000/svg">
  <g transform="matrix(1.0, 0.0, 0.0, 1.0, 179.75, 436.75)">
    <use height="36.0" transform="matrix(1.0, 0.0, 0.0, 1.0, -79.5, -36.0)" width="159.0" xlink:href="#shape0"/>
    <use height="96.65" transform="matrix(1.0, 0.0, 0.0, 1.0, -27.1, -108.0)" width="54.2" xlink:href="#shape1"/>
    <use height="37.0" transform="matrix(1.0, 0.0, 0.0, 1.0, -92.6, -94.35)" width="185.25" xlink:href="#shape2"/>
    <use height="15.35" transform="matrix(1.0, 0.0, 0.0, 1.0, -74.9, -81.3)" width="152.55" xlink:href="#text0"/>
    <use height="340.35" transform="matrix(1.0, 0.0, 0.0, 1.0, -143.5, -436.75)" width="287.0" xlink:href="#shape3"/>
    <use height="274.6" transform="matrix(1.188, 0.0, 0.0, 1.188, -132.8, -424.0)" width="218.15" xlink:href="#shape4"/>
    <use height="57.2" transform="matrix(1.0, 0.0, 0.0, 1.0, -28.85, -217.65)" width="56.95" xlink:href="#shape5"/>
  </g>
  <defs>
    <g id="shape0" transform="matrix(1.0, 0.0, 0.0, 1.0, 0.0, 0.0)">
      <path d="M135.7 30.75 Q113.3 35.8 79.5 36.0 45.7 35.8 23.3 30.75 0.85 25.65 0.0 18.0 0.85 10.35 23.3 5.25 45.7 0.2 79.5 0.0 113.3 0.2 135.7 5.25 158.15 10.35 159.0 18.0 158.15 25.65 135.7 30.75" fill="#000000" fill-opacity="0.39607844" fill-rule="evenodd" stroke="none"/>
    </g>
    <g id="shape1" transform="matrix(1.0, 0.0, 0.0, 1.0, 0.0, 0.0)">
      <path d="M5.85 93.35 Q-0.15 90.4 0.0 90.0 L0.0 0.0 54.2 0.0 54.2 90.0 Q54.15 90.4 46.95 93.35 39.7 96.25 25.65 96.65 11.8 96.25 5.85 93.35" fill="url(#gradient0)" fill-rule="evenodd" stroke="none"/>
    </g>
    <linearGradient gradientTransform="matrix(0.0303, 0.0, 0.0, 0.0303, 25.7, 48.35)" gradientUnits="userSpaceOnUse" id="gradient0" spreadMethod="pad" x1="-819.2" x2="819.2">
      <stop offset="0.0" stop-color="#565656"/>
      <stop offset="0.403921568627451" stop-color="#9a9999"/>
      <stop offset="0.592156862745098" stop-color="#dbdbda"/>
      <stop offset="0.7803921568627451" stop-color="#9b9a9a"/>
      <stop offset="1.0" stop-color="#151213"/>
    </linearGradient>
    <g id="shape2" transform="matrix(1.0, 0.0, 0.0, 1.0, -0.05, 0.0)">
      <path d="M185.25 8.2 L185.3 8.25 185.25 8.25 185.25 8.2 M1.9 5.2 L2.3 2.85 18.75 2.05 59.05 0.7 Q83.4 0.05 109.4 0.3 115.1 0.55 118.85 1.6 122.65 2.7 128.15 3.0 L129.3 1.5 Q130.05 0.2 130.5 0.0 160.7 0.5 181.5 3.85 L183.45 6.1 103.3 3.5 Q60.0 3.6 6.5 5.1 L1.9 5.2 M176.25 8.0 L176.45 8.4 177.65 11.45 178.5 13.65 Q179.3 12.8 179.7 10.9 179.7 9.8 179.25 9.1 L179.9 9.55 Q180.65 10.3 180.7 11.75 179.85 15.7 177.15 15.05 175.8 14.75 175.1 13.85 L176.15 14.2 177.35 14.25 176.45 12.35 174.9 8.8 174.8 8.5 174.95 8.35 Q175.75 7.8 176.25 8.0 M178.25 27.3 L179.85 27.15 Q180.5 27.3 181.25 27.95 183.6 31.2 181.35 32.8 180.2 33.6 179.1 33.5 L180.8 32.15 178.8 31.55 175.1 30.4 175.2 29.1 175.2 29.0 175.25 28.7 175.4 28.75 175.85 28.9 178.95 30.05 181.1 30.85 Q181.0 29.65 179.9 28.15 179.05 27.45 178.25 27.3 M9.35 6.95 L10.7 10.45 11.7 12.9 Q12.6 11.95 13.05 9.85 13.05 8.55 12.5 7.75 13.85 8.35 14.15 10.05 L13.75 12.35 Q12.6 15.1 10.15 14.55 8.75 14.25 8.0 13.4 L7.85 13.2 9.0 13.6 10.35 13.65 9.35 11.4 7.6 7.45 8.75 6.6 9.2 6.55 9.35 6.95 M9.4 25.3 Q11.0 24.35 12.9 25.8 15.0 28.35 14.35 30.1 L13.4 31.3 Q12.2 32.25 10.95 32.25 L12.75 30.6 10.4 30.05 6.2 29.05 6.15 27.55 6.15 27.1 6.35 27.15 6.9 27.35 10.45 28.4 12.95 29.1 Q12.75 27.8 11.35 26.15 10.35 25.35 9.4 25.3" fill="#47525f" fill-rule="evenodd" stroke="none"/>
      <path d="M0.05 36.7 L0.75 22.9 Q1.05 14.95 1.6 7.0 L1.9 5.2 6.5 5.1 3.2 8.3 1.95 36.45 0.05 36.7" fill="#cdcdcd" fill-rule="evenodd" stroke="none"/>
      <path d="M13.75 12.35 L14.15 10.05 26.45 10.0 13.75 12.35 M8.0 13.4 L7.0 13.55 7.2 26.2 6.35 27.15 6.15 27.1 6.15 27.55 Q5.15 29.5 6.75 31.55 8.95 33.2 10.95 32.25 12.2 32.25 13.4 31.3 L14.35 30.1 16.45 30.2 36.65 31.3 56.5 32.6 Q50.4 32.9 38.0 32.9 L15.1 32.75 3.85 32.6 5.25 10.05 6.0 10.05 Q6.15 12.3 7.85 13.2 L8.0 13.4" fill="#848484" fill-rule="evenodd" stroke="none"/>
      <path d="M175.1 13.85 Q175.8 14.75 177.15 15.05 179.85 15.7 180.7 11.75 180.65 10.3 179.9 9.55 L180.85 9.65 179.85 27.15 178.25 27.3 177.7 27.3 177.8 15.2 160.95 13.3 Q144.35 11.4 115.0 6.95 144.55 7.2 162.45 8.35 L174.1 9.15 Q173.65 9.7 173.4 10.6 173.45 12.95 175.1 13.85 M175.3 32.3 L137.05 30.55 175.2 29.0 175.2 29.1 Q174.3 30.55 175.3 32.3" fill="#a09fa0" fill-rule="evenodd" stroke="none"/>
      <path d="M176.45 8.4 L176.25 8.0 176.9 7.95 Q178.55 8.05 179.25 9.1 179.7 9.8 179.7 10.9 179.3 12.8 178.5 13.65 L177.65 11.45 178.05 10.25 Q178.0 8.55 176.45 8.4 M174.8 8.5 L174.9 8.8 Q174.35 9.2 174.15 10.05 174.2 11.9 175.85 12.3 L176.45 12.35 177.35 14.25 176.15 14.2 175.1 13.85 Q173.45 12.95 173.4 10.6 173.65 9.7 174.1 9.15 L174.8 8.5 M177.7 27.3 L178.25 27.3 Q179.05 27.45 179.9 28.15 181.0 29.65 181.1 30.85 L178.95 30.05 178.3 28.9 Q177.0 27.8 175.85 28.9 L175.4 28.75 175.8 28.3 Q176.7 27.35 177.7 27.3 M179.1 33.5 Q177.3 34.2 175.5 32.65 L175.3 32.3 Q174.3 30.55 175.2 29.1 L175.1 30.4 Q175.25 32.1 176.95 32.35 178.0 32.25 178.8 31.55 L180.8 32.15 179.1 33.5 M10.7 10.45 L11.2 9.05 Q11.15 7.15 9.35 6.95 L9.2 6.55 9.9 6.5 Q11.75 6.6 12.5 7.75 13.05 8.55 13.05 9.85 12.6 11.95 11.7 12.9 L10.7 10.45 M7.2 26.2 Q8.2 25.2 9.4 25.3 10.35 25.35 11.35 26.15 12.75 27.8 12.95 29.1 L10.45 28.4 Q9.75 26.65 8.05 26.6 L6.9 27.35 6.35 27.15 7.2 26.2 M6.0 10.05 L5.95 9.55 Q6.6 7.0 8.75 6.6 L7.6 7.45 Q7.0 7.9 6.75 8.85 6.8 10.95 8.7 11.35 L9.35 11.4 10.35 13.65 9.0 13.6 7.85 13.2 Q6.15 12.3 6.0 10.05 M6.15 27.55 L6.2 29.05 Q6.45 30.9 8.2 31.1 9.7 31.2 10.4 30.05 L12.75 30.6 10.95 32.25 Q8.95 33.2 6.75 31.55 5.15 29.5 6.15 27.55" fill="#9c9c9c" fill-rule="evenodd" stroke="none"/>
      <path d="M174.9 8.8 L176.45 12.35 175.85 12.3 Q174.2 11.9 174.15 10.05 174.35 9.2 174.9 8.8 M177.65 11.45 L176.45 8.4 Q178.0 8.55 178.05 10.25 L177.65 11.45 M175.85 28.9 Q177.0 27.8 178.3 28.9 L178.95 30.05 175.85 28.9 M175.1 30.4 L178.8 31.55 Q178.0 32.25 176.95 32.35 175.25 32.1 175.1 30.4 M9.35 6.95 Q11.15 7.15 11.2 9.05 L10.7 10.45 9.35 6.95 M9.35 11.4 L8.7 11.35 Q6.8 10.95 6.75 8.85 7.0 7.9 7.6 7.45 L9.35 11.4 M10.45 28.4 L6.9 27.35 8.05 26.6 Q9.75 26.65 10.45 28.4 M6.2 29.05 L10.4 30.05 Q9.7 31.2 8.2 31.1 6.45 30.9 6.2 29.05" fill="#d5d4d4" fill-rule="evenodd" stroke="none"/>
      <path d="M183.45 6.1 L185.3 6.25 185.25 8.2 185.25 8.25 185.1 13.45 184.65 27.3 184.3 36.25 Q157.35 34.75 133.85 35.55 L89.2 37.0 Q65.15 37.15 43.55 35.85 22.0 34.5 0.05 36.75 L0.05 36.7 1.95 36.45 3.2 8.3 6.5 5.1 Q60.0 3.6 103.3 3.5 L183.45 6.1 M176.25 8.0 Q175.75 7.8 174.95 8.35 L174.8 8.5 174.1 9.15 162.45 8.35 Q144.55 7.2 115.0 6.95 144.35 11.4 160.95 13.3 L177.8 15.2 177.7 27.3 Q176.7 27.35 175.8 28.3 L175.4 28.75 175.25 28.7 175.2 29.0 137.05 30.55 175.3 32.3 175.5 32.65 Q177.3 34.2 179.1 33.5 180.2 33.6 181.35 32.8 183.6 31.2 181.25 27.95 180.5 27.3 179.85 27.15 L180.85 9.65 179.9 9.55 179.25 9.1 Q178.55 8.05 176.9 7.95 L176.25 8.0 M12.5 7.75 Q11.75 6.6 9.9 6.5 L9.2 6.55 8.75 6.6 Q6.6 7.0 5.95 9.55 L6.0 10.05 5.25 10.05 3.85 32.6 15.1 32.75 38.0 32.9 Q50.4 32.9 56.5 32.6 L36.65 31.3 16.45 30.2 14.35 30.1 Q15.0 28.35 12.9 25.8 11.0 24.35 9.4 25.3 8.2 25.2 7.2 26.2 L7.0 13.55 8.0 13.4 Q8.75 14.25 10.15 14.55 12.6 15.1 13.75 12.35 L26.45 10.0 14.15 10.05 Q13.85 8.35 12.5 7.75" fill="url(#gradient1)" fill-rule="evenodd" stroke="none"/>
    </g>
    <linearGradient gradientTransform="matrix(0.1131, 0.0, 0.0, 0.0204, 92.65, 20.25)" gradientUnits="userSpaceOnUse" id="gradient1" spreadMethod="pad" x1="-819.2" x2="819.2">
      <stop offset="0.0" stop-color="#9a9a9a"/>
      <stop offset="1.0" stop-color="#ffffff"/>
    </linearGradient>
    <g id="text0" transform="matrix(1.0, 0.0, 0.0, 1.0, 16.0, -5.75)">
      <g transform="matrix(1.0, 0.0, 0.0, 1.0, -17.25, 0.0)">
        <use fill="#000000" height="15.35" transform="matrix(0.4746, 0.0, 0.0, 0.4746, 0.0, 21.0)" width="152.55" xlink:href="#font_______W7_R0"/>
        <use fill="#000000" height="15.35" transform="matrix(0.4746, 0.0, 0.0, 0.4746, 17.25, 21.0)" width="152.55" xlink:href="#font_______W7_o0"/>
        <use fill="#000000" height="15.35" transform="matrix(0.4746, 0.0, 0.0, 0.4746, 30.1, 21.0)" width="152.55" xlink:href="#font_______W7_b0"/>
        <use fill="#000000" height="15.35" transform="matrix(0.4746, 0.0, 0.0, 0.4746, 44.2, 21.0)" width="152.55" xlink:href="#font_______W7_b0"/>
        <use fill="#000000" height="15.35" transform="matrix(0.4746, 0.0, 0.0, 0.4746, 58.25, 21.0)" width="152.55" xlink:href="#font_______W7_e0"/>
        <use fill="#000000" height="15.35" transform="matrix(0.4746, 0.0, 0.0, 0.4746, 71.65, 21.0)" width="152.55" xlink:href="#font_______W7_r0"/>
        <use fill="#000000" height="15.35" transform="matrix(0.4746, 0.0, 0.0, 0.4746, 88.5, 21.0)" width="152.55" xlink:href="#font_______W7_B0"/>
        <use fill="#000000" height="15.35" transform="matrix(0.4746, 0.0, 0.0, 0.4746, 105.35, 21.0)" width="152.55" xlink:href="#font_______W7_a0"/>
        <use fill="#000000" height="15.35" transform="matrix(0.4746, 0.0, 0.0, 0.4746, 119.15, 21.0)" width="152.55" xlink:href="#font_______W7_r0"/>
        <use fill="#000000" height="15.35" transform="matrix(0.4746, 0.0, 0.0, 0.4746, 128.1, 21.0)" width="152.55" xlink:href="#font_______W7_o0"/>
        <use fill="#000000" height="15.35" transform="matrix(0.4746, 0.0, 0.0, 0.4746, 140.95, 21.0)" width="152.55" xlink:href="#font_______W7_n0"/>
      </g>
    </g>
    <g id="font_______W7_R0">
      <path d="M25.55 -21.75 L25.55 -21.75 Q25.55 -19.95 24.25 -18.8 23.0 -17.7 21.2 -17.7 17.15 -17.7 13.5 -20.8 L11.65 -16.3 10.9 -24.1 Q15.35 -26.5 19.05 -26.5 21.5 -26.5 23.35 -25.35 25.55 -24.05 25.55 -21.75 M28.0 -11.75 L28.0 -11.75 Q32.55 -14.8 32.55 -20.5 32.55 -26.0 28.75 -28.9 25.35 -31.55 19.75 -31.55 15.45 -31.55 10.4 -29.45 L10.2 -31.45 5.3 -32.15 2.55 0.05 13.15 -1.1 12.2 -11.0 Q15.85 -9.4 19.4 -9.4 L21.5 -9.5 26.7 0.2 34.7 -6.1 28.0 -11.75" fill-rule="evenodd" stroke="none"/>
    </g>
    <g id="font_______W7_o0">
      <path d="M15.8 -13.5 L15.8 -13.5 Q16.45 -11.85 16.45 -10.4 16.45 -6.85 12.35 -6.85 10.6 -6.85 9.35 -8.05 8.15 -9.35 8.15 -11.05 8.15 -13.25 9.8 -14.6 11.4 -16.0 13.7 -16.0 16.1 -16.0 18.3 -14.3 L15.8 -13.5 M25.7 -11.4 L25.7 -11.4 Q25.7 -13.8 24.75 -16.35 L21.25 -15.25 22.7 -17.2 Q18.35 -21.45 13.15 -21.45 8.45 -21.45 5.1 -18.2 1.8 -14.95 1.8 -10.3 1.8 -5.5 5.4 -2.65 8.65 0.05 13.65 0.05 18.75 0.05 22.2 -3.2 25.7 -6.4 25.7 -11.4" fill-rule="evenodd" stroke="none"/>
    </g>
    <g id="font_______W7_b0">
      <path d="M20.9 -12.9 L20.9 -12.9 Q20.9 -9.4 17.6 -9.4 15.3 -9.4 13.25 -11.85 L11.45 -8.4 10.95 -14.2 Q13.25 -16.5 16.3 -16.5 17.85 -16.5 19.35 -15.5 20.9 -14.45 20.9 -12.9 M28.25 -10.45 L28.25 -10.45 Q28.25 -15.0 25.1 -18.25 21.9 -21.45 17.35 -21.45 13.75 -21.45 10.5 -19.25 L9.35 -31.5 4.65 -32.15 2.05 0.05 12.15 -0.75 12.15 -2.05 Q14.7 0.05 18.2 0.05 22.6 0.05 25.4 -3.0 28.25 -6.0 28.25 -10.45" fill-rule="evenodd" stroke="none"/>
    </g>
    <g id="font_______W7_e0">
      <path d="M19.45 -9.9 L19.45 -9.9 Q16.75 -7.55 13.6 -7.55 10.45 -7.55 9.15 -9.9 L19.45 -9.9 M9.0 -13.4 L9.0 -13.4 Q9.7 -14.95 11.5 -15.95 13.2 -16.8 15.1 -16.8 18.05 -16.8 19.65 -14.35 L9.0 -13.4 M23.25 -9.9 L23.25 -9.9 24.3 -9.9 26.7 -12.6 Q25.85 -16.7 22.9 -19.1 19.9 -21.45 15.15 -21.45 9.65 -21.45 5.9 -18.65 1.8 -15.6 1.8 -10.4 1.8 -5.35 5.8 -2.5 9.3 0.05 14.6 0.05 22.45 0.05 27.15 -4.25 L23.25 -9.9" fill-rule="evenodd" stroke="none"/>
    </g>
    <g id="font_______W7_r0">
      <path d="M18.3 -20.6 L18.3 -20.6 Q16.55 -21.45 14.75 -21.45 11.5 -21.45 8.7 -18.65 L8.45 -20.75 4.45 -21.45 2.55 0.05 10.65 -1.4 9.3 -12.8 Q10.55 -14.85 12.3 -14.85 13.25 -14.85 14.55 -13.85 L16.55 -12.05 18.3 -20.6" fill-rule="evenodd" stroke="none"/>
    </g>
    <g id="font_______W7_B0">
      <path d="M25.75 -11.3 L25.75 -11.3 Q25.75 -8.4 21.9 -8.4 18.5 -8.4 14.4 -12.15 L12.5 -7.75 11.95 -13.45 Q15.45 -15.85 18.95 -15.85 21.25 -15.85 23.3 -14.7 25.75 -13.4 25.75 -11.3 M23.15 -23.7 L23.15 -23.7 Q23.15 -22.05 21.2 -20.35 L19.0 -20.45 Q15.05 -20.45 11.45 -18.65 L10.85 -24.45 Q15.3 -26.5 18.75 -26.5 L21.55 -25.95 Q23.15 -25.2 23.15 -23.7 M33.9 -10.25 L33.9 -10.25 Q33.9 -14.55 29.85 -17.3 32.05 -20.45 32.05 -23.5 32.05 -27.75 28.35 -29.85 25.45 -31.6 20.9 -31.6 14.3 -31.6 10.4 -29.6 L10.2 -31.55 5.3 -32.15 2.55 0.05 13.15 -1.1 13.05 -2.3 Q17.4 -0.6 21.5 -0.6 26.1 -0.6 29.75 -3.05 33.9 -5.85 33.9 -10.25" fill-rule="evenodd" stroke="none"/>
    </g>
    <g id="font_______W7_a0">
      <path d="M19.05 -8.85 L19.05 -8.85 18.5 -5.05 17.1 -9.0 Q14.35 -6.2 10.6 -6.2 9.95 -6.2 9.45 -6.75 9.0 -7.2 9.0 -7.85 9.0 -10.2 13.7 -10.2 15.9 -10.2 19.05 -8.85 M27.4 -6.8 L27.4 -6.8 Q27.4 -21.45 13.35 -21.45 7.15 -21.45 2.55 -18.35 L4.3 -14.35 Q8.3 -16.55 13.15 -16.55 17.85 -16.55 18.85 -13.35 15.4 -14.5 12.8 -14.5 8.6 -14.5 5.6 -12.8 1.8 -10.75 1.8 -6.95 1.8 -3.5 4.9 -1.55 7.55 0.05 11.15 0.05 13.95 0.05 17.35 -0.95 L17.0 0.15 26.7 -0.3 Q27.4 -3.45 27.4 -6.8" fill-rule="evenodd" stroke="none"/>
    </g>
    <g id="font_______W7_n0">
      <path d="M27.0 -9.05 L27.0 -9.05 Q27.0 -14.5 24.65 -17.8 21.9 -21.45 16.6 -21.45 12.6 -21.45 9.45 -18.85 L9.2 -20.75 4.35 -21.45 2.05 0.05 11.95 -1.4 10.35 -12.55 Q12.95 -15.85 15.9 -15.85 19.4 -15.85 19.4 -10.6 19.4 -6.9 16.6 -1.3 L26.2 0.0 Q27.0 -6.5 27.0 -9.05" fill-rule="evenodd" stroke="none"/>
    </g>
    <g id="shape3" transform="matrix(1.0, 0.0, 0.0, 1.0, 22.7, 54.05)">
      <path d="M174.75 32.25 Q175.35 40.75 168.05 37.55 165.2 36.35 165.5 33.4 L166.2 35.25 166.9 36.05 167.7 36.4 Q173.9 38.75 174.75 32.25 M20.85 79.25 L-8.1 97.25 -18.3 194.95 -11.7 258.8 -3.35 267.9 259.45 153.2 250.6 96.6 175.6 53.9 178.0 43.85 186.7 -5.6 141.35 -47.1 82.85 -49.85 52.55 -0.45 61.55 53.8 Q41.15 66.55 20.85 79.25 M191.85 -11.45 L183.35 50.35 256.7 92.2 264.3 162.8 248.5 273.8 232.4 286.3 7.65 286.3 -18.15 261.8 -22.7 184.3 -16.8 98.0 54.15 50.45 42.0 -2.35 79.8 -52.85 143.8 -54.05 191.85 -11.45 M259.5 153.25 L-3.35 267.95 10.6 283.2 229.65 283.2 242.5 270.35 248.05 228.8 259.9 158.0 259.5 153.25 M254.15 168.5 L254.35 171.05 Q254.45 173.05 252.75 173.9 245.5 177.85 244.9 169.45 245.0 170.6 245.6 171.5 L246.45 172.3 247.2 172.7 Q253.35 174.8 254.15 168.5 M247.15 167.4 L246.8 167.85 247.1 167.4 247.15 167.4 M92.05 -43.85 L92.05 -41.4 82.55 -31.4 82.55 -33.95 82.6 -33.95 92.05 -43.85 M95.6 -37.9 Q96.2 -28.25 86.65 -29.5 L84.85 -29.7 84.8 -32.0 Q86.5 -31.05 88.5 -31.0 95.05 -31.6 95.6 -37.9 M71.4 57.8 L71.4 60.4 Q71.35 61.35 70.75 61.9 63.8 68.5 62.1 58.95 L62.85 60.75 63.55 61.6 64.3 62.0 Q70.5 64.2 71.4 57.8 M10.7 96.95 L10.7 99.4 1.2 109.35 1.2 106.8 1.25 106.8 10.7 96.95 M14.25 102.9 Q14.7 112.5 5.3 111.25 L3.5 111.1 3.45 108.75 Q5.1 109.7 7.1 109.75 13.65 109.2 14.25 102.9 M10.05 269.25 L10.75 271.3 11.7 268.95 10.8 271.3 11.65 272.1 Q12.9 273.25 14.65 273.25 18.9 272.9 19.35 268.9 19.75 270.85 18.6 272.0 11.55 278.35 10.05 269.25" fill="#47525f" fill-rule="evenodd" stroke="none"/>
      <path d="M178.0 43.85 L175.6 53.9 250.6 96.6 259.45 153.2 -3.35 267.9 -11.7 258.8 -18.3 194.95 -8.1 97.25 20.85 79.25 178.0 43.85 M93.0 -40.65 L94.25 -41.95 Q94.8 -32.15 85.1 -32.0 L84.8 -32.0 93.0 -40.65 M9.85 96.75 Q3.9 94.4 0.4 101.15 0.0 102.0 -0.25 102.95 L-0.25 105.75 Q-0.5 106.65 1.2 109.35 L3.5 111.1 5.3 111.25 Q14.7 112.5 14.25 102.9 L12.9 98.85 12.95 99.6 Q12.75 109.1 3.45 108.75 L11.65 100.15 10.7 99.4 10.7 96.95 10.25 96.65 9.85 96.75 M0.9 105.2 L0.95 105.0 0.9 105.25 0.9 105.2 M1.2 106.75 L1.25 106.8 1.2 106.8 1.2 106.75" fill="#bab9ba" fill-rule="evenodd" stroke="none"/>
      <path d="M174.75 32.25 Q174.6 31.0 173.8 30.0 L172.0 28.75 Q169.35 28.8 167.5 30.1 165.5 31.5 165.5 33.4 165.2 36.35 168.05 37.55 175.35 40.75 174.75 32.25 M178.0 43.85 L20.85 79.25 Q41.15 66.55 61.55 53.8 L52.55 -0.45 82.85 -49.85 141.35 -47.1 186.7 -5.6 178.0 43.85 M259.5 153.25 L259.9 158.0 248.05 228.8 242.5 270.35 229.65 283.2 10.6 283.2 -3.35 267.95 259.5 153.25 M253.2 166.25 L251.6 165.0 Q248.8 165.0 246.85 166.3 244.9 167.65 244.9 169.45 245.5 177.85 252.75 173.9 254.45 173.05 254.35 171.05 L254.15 168.5 253.2 166.25 M247.1 167.4 L247.15 167.4 247.1 167.4 M92.05 -41.4 L92.05 -43.85 91.65 -44.15 84.85 -39.9 Q87.45 -42.9 91.6 -44.15 L90.85 -44.45 Q82.85 -45.95 81.15 -37.85 L81.15 -35.05 Q80.9 -34.15 82.55 -31.4 L84.85 -29.7 86.65 -29.5 Q96.2 -28.25 95.6 -37.9 L94.25 -41.95 93.0 -40.65 92.05 -41.4 M82.6 -33.95 L82.55 -33.95 82.55 -34.05 82.6 -33.95 M82.25 -35.5 L82.25 -35.6 82.3 -35.75 82.25 -35.5 M68.95 54.3 L67.95 53.95 Q62.4 53.45 62.1 58.95 63.8 68.5 70.75 61.9 71.35 61.35 71.4 60.4 L71.4 57.8 Q71.25 56.55 70.45 55.55 69.8 54.75 68.95 54.3 M16.75 264.85 Q13.95 264.85 12.0 266.15 10.05 267.4 10.05 269.25 11.55 278.35 18.6 272.0 19.75 270.85 19.35 268.9 L18.4 266.05 16.75 264.85" fill="#9c9c9c" fill-rule="evenodd" stroke="none"/>
      <path d="M165.5 33.4 Q165.5 31.5 167.5 30.1 169.35 28.8 172.0 28.75 169.65 28.85 167.95 30.65 166.2 32.55 166.2 35.25 L165.5 33.4 M244.9 169.45 Q244.9 167.65 246.85 166.3 248.8 165.0 251.6 165.0 249.4 165.25 247.45 166.9 L247.15 167.4 247.1 167.4 246.8 167.85 245.6 171.5 Q245.0 170.6 244.9 169.45 M81.15 -37.85 Q82.85 -45.95 90.85 -44.45 L91.6 -44.15 Q87.45 -42.9 84.85 -39.9 83.25 -38.15 82.3 -35.75 L82.25 -35.6 82.15 -34.55 Q81.25 -36.1 81.15 -37.85 M62.1 58.95 Q62.4 53.45 67.95 53.95 L68.95 54.3 Q66.4 54.3 64.6 56.2 62.85 58.1 62.85 60.75 L62.1 58.95 M-0.25 102.95 Q0.0 102.0 0.4 101.15 3.9 94.4 9.85 96.75 5.0 98.55 2.2 102.8 L0.95 105.0 0.9 105.2 0.75 106.2 Q-0.15 104.65 -0.25 102.95 M16.75 264.85 L12.35 267.1 11.7 268.95 10.75 271.3 10.05 269.25 Q10.05 267.4 12.0 266.15 13.95 264.85 16.75 264.85" fill="#e9e9eb" fill-rule="evenodd" stroke="none"/>
      <path d="M172.0 28.75 L173.8 30.0 Q173.8 32.5 171.75 34.3 169.75 36.05 166.9 36.05 L166.2 35.25 Q166.2 32.55 167.95 30.65 169.65 28.85 172.0 28.75 M251.6 165.0 L253.2 166.25 Q253.2 168.75 251.25 170.55 249.25 172.3 246.45 172.3 L245.6 171.5 246.8 167.85 247.15 167.4 247.45 166.9 Q249.4 165.25 251.6 165.0 M84.85 -39.9 L91.65 -44.15 92.05 -43.85 82.6 -33.95 82.55 -34.05 82.2 -34.55 82.25 -35.5 82.3 -35.75 Q83.25 -38.15 84.85 -39.9 M68.95 54.3 Q69.8 54.75 70.45 55.55 70.45 58.05 68.4 59.8 66.4 61.6 63.55 61.6 L62.85 60.75 Q62.85 58.1 64.6 56.2 66.4 54.3 68.95 54.3 M0.95 105.0 L2.2 102.8 Q5.0 98.55 9.85 96.75 L10.25 96.65 10.7 96.95 1.25 106.8 1.2 106.75 0.8 106.2 0.9 105.25 0.95 105.0 M11.7 268.95 L12.35 267.1 16.75 264.85 18.4 266.05 Q18.4 268.55 16.45 270.35 14.4 272.1 11.65 272.1 L10.8 271.3 11.7 268.95" fill="#d0cfd0" fill-rule="evenodd" stroke="none"/>
      <path d="M173.8 30.0 Q174.6 31.0 174.75 32.25 173.9 38.75 167.7 36.4 L166.9 36.05 Q169.75 36.05 171.75 34.3 173.8 32.5 173.8 30.0 M253.2 166.25 L254.15 168.5 Q253.35 174.8 247.2 172.7 L246.45 172.3 Q249.25 172.3 251.25 170.55 253.2 168.75 253.2 166.25 M94.25 -41.95 L95.6 -37.9 Q95.05 -31.6 88.5 -31.0 86.5 -31.05 84.8 -32.0 L85.1 -32.0 Q94.8 -32.15 94.25 -41.95 M70.45 55.55 Q71.25 56.55 71.4 57.8 70.5 64.2 64.3 62.0 L63.55 61.6 Q66.4 61.6 68.4 59.8 70.45 58.05 70.45 55.55 M3.45 108.75 Q12.75 109.1 12.95 99.6 L12.9 98.85 14.25 102.9 Q13.65 109.2 7.1 109.75 5.1 109.7 3.45 108.75 M11.65 272.1 Q14.4 272.1 16.45 270.35 18.4 268.55 18.4 266.05 L19.35 268.9 Q18.9 272.9 14.65 273.25 12.9 273.25 11.65 272.1" fill="#b0aeb3" fill-rule="evenodd" stroke="none"/>
      <path d="M92.05 -41.4 L93.0 -40.65 84.8 -32.0 84.85 -29.7 82.55 -31.4 92.05 -41.4 M10.7 99.4 L11.65 100.15 3.45 108.75 3.5 111.1 1.2 109.35 10.7 99.4" fill="#57565b" fill-rule="evenodd" stroke="none"/>
      <path d="M82.55 -31.4 Q80.9 -34.15 81.15 -35.05 L81.15 -37.85 Q81.25 -36.1 82.15 -34.55 L82.25 -35.6 82.25 -35.5 82.2 -34.55 82.55 -34.05 82.55 -33.95 82.55 -31.4 M-0.25 102.95 Q-0.15 104.65 0.75 106.2 L0.9 105.2 0.9 105.25 0.8 106.2 1.2 106.75 1.2 106.8 1.2 109.35 Q-0.5 106.65 -0.25 105.75 L-0.25 102.95" fill="#79818b" fill-rule="evenodd" stroke="none"/>
    </g>
    <g id="shape4" transform="matrix(1.0, 0.0, 0.0, 1.0, 0.0, 0.0)">
      <path d="M215.15 173.4 L210.25 128.6 161.85 204.45 169.0 230.35 169.8 243.8 175.9 235.15 176.2 234.9 176.9 234.8 Q184.0 234.95 189.8 237.8 195.9 240.8 200.75 246.5 L210.05 222.75 215.15 173.4 M164.2 117.7 L163.25 120.3 148.35 123.8 155.3 129.2 154.75 130.6 108.55 168.1 107.7 270.2 156.35 271.55 148.4 215.35 148.6 214.4 159.0 203.3 209.8 123.75 167.85 98.9 164.2 117.7 M212.6 122.2 L218.15 173.2 213.0 223.25 202.95 249.1 205.9 253.5 183.9 273.3 Q173.6 264.9 165.05 254.4 L167.5 250.35 159.5 208.6 159.2 207.45 151.45 215.7 159.55 272.9 159.2 274.2 158.0 274.6 106.25 273.15 62.5 274.55 61.55 273.8 61.35 273.0 65.25 219.7 50.95 204.35 Q47.55 221.6 46.15 238.85 L53.1 243.75 49.75 252.65 53.55 256.6 53.75 257.8 34.05 273.65 32.5 273.25 11.55 252.55 3.45 225.75 0.0 176.8 8.45 126.65 Q27.95 114.5 47.6 102.5 62.55 93.3 76.75 83.1 L60.1 33.45 60.2 32.3 78.2 14.9 Q82.4 10.65 87.5 7.3 94.45 2.65 102.7 0.65 L111.2 0.1 Q121.55 1.45 130.85 6.25 147.6 14.95 159.5 29.55 L159.6 30.65 146.2 82.9 148.75 84.15 212.6 122.2 M138.4 11.95 L134.95 10.3 120.0 3.3 118.5 3.35 103.3 3.6 99.9 3.65 84.55 11.05 81.9 12.35 70.1 25.6 68.75 27.1 63.2 33.3 80.05 83.0 108.05 89.75 115.85 89.7 143.15 82.7 156.5 30.7 151.55 25.45 150.15 24.05 138.4 11.95 M121.8 27.6 L122.25 26.55 123.45 26.55 123.85 27.2 123.25 29.3 122.85 30.15 Q132.8 36.8 140.15 46.45 141.45 48.1 141.85 50.05 144.8 65.0 139.35 79.4 L138.0 79.1 Q139.15 69.9 133.7 62.45 132.1 60.25 129.75 59.2 123.85 56.65 118.9 52.7 110.35 45.75 110.85 34.65 L109.85 34.65 Q110.7 39.45 109.7 44.1 108.05 51.8 101.3 55.2 L98.2 56.75 Q86.8 62.55 87.3 75.1 87.75 72.55 89.75 70.85 102.15 60.2 118.3 62.65 130.05 64.35 136.4 74.35 L135.9 81.75 Q128.3 77.95 120.25 75.7 113.05 73.85 105.75 74.75 96.75 76.15 88.4 80.1 L87.15 77.55 86.1 77.6 Q80.3 69.05 80.15 58.65 79.95 43.5 91.55 34.0 L93.5 32.5 Q95.8 30.9 98.45 29.35 L98.25 28.2 98.8 24.45 99.0 24.25 100.3 24.3 100.65 25.0 100.5 25.55 100.25 27.8 100.65 27.45 Q104.75 28.05 106.75 31.45 L106.0 32.35 Q111.85 33.35 117.4 31.85 120.95 31.0 121.8 27.6 M139.8 49.15 Q139.2 47.5 138.05 46.15 130.9 37.85 121.65 31.75 118.35 34.45 114.0 34.65 L112.85 34.6 Q112.05 46.65 122.25 53.2 126.1 55.6 130.25 57.35 137.85 60.35 140.05 68.15 143.05 58.35 139.8 49.15 M99.2 31.25 Q85.2 39.45 82.8 49.1 80.15 59.85 83.4 67.8 L85.0 71.65 Q84.9 64.6 89.1 60.3 94.6 54.6 99.55 53.65 106.7 52.1 107.4 45.0 107.85 40.65 107.85 36.1 L107.85 34.6 Q100.95 33.95 99.2 31.25 M101.3 30.45 Q102.95 31.85 105.2 32.2 103.45 30.2 100.75 29.3 100.3 29.6 101.3 30.45 M120.45 28.1 Q119.1 30.8 116.1 31.1 L115.3 30.65 113.2 32.1 112.3 31.5 Q113.75 28.1 117.3 26.85 119.75 25.85 120.45 28.1 M89.5 77.6 Q90.95 76.6 92.55 75.85 L92.5 75.7 91.95 70.45 Q88.6 72.8 89.5 77.6 M100.55 73.15 L99.5 66.15 93.85 69.1 94.45 74.95 Q97.4 73.75 100.55 73.15 M102.55 72.9 L109.65 72.25 109.95 64.0 Q105.8 64.2 101.45 65.4 L102.55 72.9 M111.95 64.05 L111.65 72.3 Q116.3 72.4 120.85 73.45 L123.85 66.25 123.5 65.85 Q120.9 64.95 117.95 64.65 L111.95 64.05 M118.8 79.4 L119.1 79.75 119.0 80.8 Q112.75 83.05 106.0 81.75 L105.95 80.35 118.8 79.4 M117.35 97.6 L112.4 93.25 111.15 93.25 105.95 99.65 108.15 105.05 115.0 105.1 117.35 97.6 M130.9 77.1 L134.5 79.1 134.4 74.9 132.2 71.85 130.9 77.1 M130.35 70.4 Q128.7 67.5 125.3 66.6 L122.8 73.95 129.0 76.1 130.05 72.5 130.35 70.4 M142.15 94.3 L145.95 86.35 144.6 85.4 116.35 92.7 126.85 101.95 142.15 94.3 M151.3 129.5 L143.4 123.25 143.3 122.8 143.6 122.0 161.1 118.1 165.1 97.25 148.65 87.6 114.35 159.5 151.3 129.5 M30.85 176.0 L10.2 132.3 3.0 176.75 6.35 224.95 13.8 247.3 24.6 232.85 25.05 232.4 25.65 232.2 33.95 231.45 34.4 231.6 43.05 236.9 42.8 231.1 48.45 201.5 30.85 176.0 M59.4 117.45 L54.7 100.8 11.4 127.85 33.4 174.45 51.15 200.1 68.25 218.65 68.3 219.25 64.5 271.55 104.7 270.2 105.55 167.35 106.1 166.2 71.0 132.3 Q70.5 131.55 71.0 130.6 L76.2 121.6 60.3 120.1 59.4 117.45 M79.35 118.85 Q80.25 119.15 80.2 120.0 L79.9 120.95 73.95 130.95 108.6 164.2 109.2 163.75 76.3 87.5 57.35 99.15 62.55 117.85 79.35 118.85 M103.8 102.2 L102.25 103.7 84.6 99.2 97.0 127.9 105.75 106.35 103.8 102.2 M115.15 108.1 L108.25 108.05 98.7 131.8 110.85 160.0 124.9 130.45 115.15 108.1 M119.8 99.75 L117.6 106.2 126.65 126.85 140.0 98.75 126.4 105.25 119.8 99.75 M78.85 85.8 L83.1 95.65 101.3 100.55 107.55 92.7 78.85 85.8 M48.45 256.3 Q41.15 256.7 33.8 254.15 L33.35 255.8 32.35 256.25 30.85 255.7 Q31.1 250.65 33.35 246.35 L34.85 246.4 34.5 251.2 46.4 253.65 49.9 244.75 33.7 234.5 26.55 235.15 14.6 251.3 33.7 270.15 50.1 257.2 48.85 255.95 48.7 255.8 48.45 256.3 M189.75 238.0 L177.65 237.8 170.2 248.45 177.45 254.85 180.1 254.1 Q179.7 253.1 179.65 252.05 179.6 250.85 181.0 250.9 L181.8 251.6 185.9 258.25 185.2 259.3 Q182.7 259.2 181.9 256.7 L176.75 258.0 170.15 252.35 168.35 254.6 183.95 269.75 202.3 252.9 189.75 238.0" fill="#1a1a1a" fill-rule="evenodd" stroke="none"/>
      <path d="M164.2 117.7 L167.85 98.9 209.8 123.75 159.0 203.3 148.6 214.4 148.4 215.35 156.35 271.55 107.7 270.2 108.55 168.1 154.75 130.6 155.3 129.2 148.35 123.8 163.25 120.3 164.2 117.7 M215.15 173.4 L210.05 222.75 200.75 246.5 Q195.9 240.8 189.8 237.8 184.0 234.95 176.9 234.8 L176.2 234.9 175.9 235.15 169.8 243.8 169.0 230.35 161.85 204.45 210.25 128.6 215.15 173.4 M79.35 118.85 L62.55 117.85 57.35 99.15 76.3 87.5 109.2 163.75 108.6 164.2 73.95 130.95 79.9 120.95 80.2 120.0 Q80.25 119.15 79.35 118.85 M59.4 117.45 L60.3 120.1 76.2 121.6 71.0 130.6 Q70.5 131.55 71.0 132.3 L106.1 166.2 105.55 167.35 104.7 270.2 64.5 271.55 68.3 219.25 68.25 218.65 51.15 200.1 33.4 174.45 11.4 127.85 54.7 100.8 59.4 117.45 M30.85 176.0 L48.45 201.5 42.8 231.1 43.05 236.9 34.4 231.6 33.95 231.45 25.65 232.2 25.05 232.4 24.6 232.85 13.8 247.3 6.35 224.95 3.0 176.75 10.2 132.3 30.85 176.0 M151.3 129.5 L114.35 159.5 148.65 87.6 165.1 97.25 161.1 118.1 143.6 122.0 143.3 122.8 143.4 123.25 151.3 129.5" fill="#106557" fill-rule="evenodd" stroke="none"/>
      <path d="M134.95 10.3 L138.4 11.95 Q132.8 12.45 127.25 13.5 120.65 14.9 113.85 15.5 97.35 16.75 81.9 12.35 L84.55 11.05 Q92.35 13.15 100.65 13.65 118.0 14.1 134.95 10.3 M150.15 24.05 L151.55 25.45 Q145.95 33.05 136.8 34.5 128.75 35.65 123.25 29.3 L123.85 27.2 123.45 26.55 122.25 26.55 121.8 27.6 Q119.1 24.05 115.7 21.45 114.05 20.2 112.25 19.8 105.1 19.55 100.5 25.55 L100.65 25.0 100.3 24.3 99.0 24.25 Q103.35 18.9 110.0 17.3 112.5 16.55 114.65 18.25 121.45 23.45 127.3 29.8 129.3 31.95 132.2 32.5 143.4 33.55 150.15 24.05 M68.75 27.1 L70.1 25.6 Q75.15 30.55 81.45 33.7 85.0 35.45 88.4 33.45 94.5 29.95 98.8 24.45 L98.25 28.2 93.5 32.5 91.55 34.0 Q87.15 37.3 81.95 35.6 74.35 32.95 68.75 27.1 M124.5 22.5 Q124.55 19.2 128.25 18.05 L131.4 17.1 Q135.3 15.9 138.5 18.45 141.15 20.5 141.2 24.0 L140.45 24.6 124.5 22.5 M138.85 22.25 Q137.95 20.3 136.35 18.8 135.65 18.2 134.9 18.2 130.55 18.15 127.45 20.9 L138.85 22.25 M86.55 19.3 L81.5 22.45 92.75 22.4 86.55 19.3 M96.55 23.2 L96.15 24.25 78.95 24.4 78.3 23.55 79.4 22.2 Q83.3 16.15 89.15 18.85 93.0 20.65 96.55 23.2" fill="#000000" fill-rule="evenodd" stroke="none"/>
      <path d="M138.4 11.95 L150.15 24.05 Q143.4 33.55 132.2 32.5 129.3 31.95 127.3 29.8 121.45 23.45 114.65 18.25 112.5 16.55 110.0 17.3 103.35 18.9 99.0 24.25 L98.8 24.45 Q94.5 29.95 88.4 33.45 85.0 35.45 81.45 33.7 75.15 30.55 70.1 25.6 L81.9 12.35 Q97.35 16.75 113.85 15.5 120.65 14.9 127.25 13.5 132.8 12.45 138.4 11.95 M103.3 3.6 L118.5 3.35 112.3 8.6 Q108.1 5.65 103.3 3.6 M124.5 22.5 L140.45 24.6 141.2 24.0 Q141.15 20.5 138.5 18.45 135.3 15.9 131.4 17.1 L128.25 18.05 Q124.55 19.2 124.5 22.5 M96.55 23.2 Q93.0 20.65 89.15 18.85 83.3 16.15 79.4 22.2 L78.3 23.55 78.95 24.4 96.15 24.25 96.55 23.2 M117.35 97.6 L115.0 105.1 108.15 105.05 105.95 99.65 111.15 93.25 112.4 93.25 117.35 97.6 M115.15 108.1 L124.9 130.45 110.85 160.0 98.7 131.8 108.25 108.05 115.15 108.1" fill="#0e4239" fill-rule="evenodd" stroke="none"/>
      <path d="M151.55 25.45 L156.5 30.7 143.15 82.7 115.85 89.7 108.05 89.75 80.05 83.0 63.2 33.3 68.75 27.1 Q74.35 32.95 81.95 35.6 87.15 37.3 91.55 34.0 79.95 43.5 80.15 58.65 80.3 69.05 86.1 77.6 L87.15 77.55 88.4 80.1 Q96.75 76.15 105.75 74.75 113.05 73.85 120.25 75.7 128.3 77.95 135.9 81.75 L136.4 74.35 Q130.05 64.35 118.3 62.65 102.15 60.2 89.75 70.85 87.75 72.55 87.3 75.1 86.8 62.55 98.2 56.75 L101.3 55.2 Q108.05 51.8 109.7 44.1 110.7 39.45 109.85 34.65 L110.85 34.65 Q110.35 45.75 118.9 52.7 123.85 56.65 129.75 59.2 132.1 60.25 133.7 62.45 139.15 69.9 138.0 79.1 L139.35 79.4 Q144.8 65.0 141.85 50.05 141.45 48.1 140.15 46.45 132.8 36.8 122.85 30.15 L123.25 29.3 Q128.75 35.65 136.8 34.5 145.95 33.05 151.55 25.45 M84.55 11.05 L99.9 3.65 103.3 3.6 Q108.1 5.65 112.3 8.6 L118.5 3.35 120.0 3.3 134.95 10.3 Q118.0 14.1 100.65 13.65 92.35 13.15 84.55 11.05 M138.85 22.25 L127.45 20.9 Q130.55 18.15 134.9 18.2 135.65 18.2 136.35 18.8 137.95 20.3 138.85 22.25 M121.8 27.6 Q120.95 31.0 117.4 31.85 111.85 33.35 106.0 32.35 L106.75 31.45 Q104.75 28.05 100.65 27.45 L100.25 27.8 100.5 25.55 Q105.1 19.55 112.25 19.8 114.05 20.2 115.7 21.45 119.1 24.05 121.8 27.6 M98.25 28.2 L98.45 29.35 Q95.8 30.9 93.5 32.5 L98.25 28.2 M86.55 19.3 L92.75 22.4 81.5 22.45 86.55 19.3 M120.45 28.1 Q119.75 25.85 117.3 26.85 113.75 28.1 112.3 31.5 L113.2 32.1 115.3 30.65 116.1 31.1 Q119.1 30.8 120.45 28.1 M101.3 30.45 Q100.3 29.6 100.75 29.3 103.45 30.2 105.2 32.2 102.95 31.85 101.3 30.45 M118.8 79.4 L105.95 80.35 106.0 81.75 Q112.75 83.05 119.0 80.8 L119.1 79.75 118.8 79.4 M142.15 94.3 L126.85 101.95 116.35 92.7 144.6 85.4 145.95 86.35 142.15 94.3 M103.8 102.2 L105.75 106.35 97.0 127.9 84.6 99.2 102.25 103.7 103.8 102.2 M119.8 99.75 L126.4 105.25 140.0 98.75 126.65 126.85 117.6 106.2 119.8 99.75 M78.85 85.8 L107.55 92.7 101.3 100.55 83.1 95.65 78.85 85.8 M48.85 255.95 L50.1 257.2 33.7 270.15 14.6 251.3 26.55 235.15 33.7 234.5 49.9 244.75 46.4 253.65 34.5 251.2 34.85 246.4 33.35 246.35 Q31.1 250.65 30.85 255.7 L32.35 256.25 33.35 255.8 33.8 254.15 Q41.15 256.7 48.45 256.3 L48.85 255.95 M189.75 238.0 L202.3 252.9 183.95 269.75 168.35 254.6 170.15 252.35 176.75 258.0 181.9 256.7 Q182.7 259.2 185.2 259.3 L185.9 258.25 181.8 251.6 181.0 250.9 Q179.6 250.85 179.65 252.05 179.7 253.1 180.1 254.1 L177.45 254.85 170.2 248.45 177.65 237.8 189.75 238.0" fill="#c1d9cb" fill-rule="evenodd" stroke="none"/>
      <path d="M139.8 49.15 Q143.05 58.35 140.05 68.15 137.85 60.35 130.25 57.35 126.1 55.6 122.25 53.2 112.05 46.65 112.85 34.6 L114.0 34.65 Q118.35 34.45 121.65 31.75 130.9 37.85 138.05 46.15 139.2 47.5 139.8 49.15 M99.2 31.25 Q100.95 33.95 107.85 34.6 L107.85 36.1 Q107.85 40.65 107.4 45.0 106.7 52.1 99.55 53.65 94.6 54.6 89.1 60.3 84.9 64.6 85.0 71.65 L83.4 67.8 Q80.15 59.85 82.8 49.1 85.2 39.45 99.2 31.25" fill="#3d6558" fill-rule="evenodd" stroke="none"/>
      <path d="M111.95 64.05 L117.95 64.65 Q120.9 64.95 123.5 65.85 L123.85 66.25 120.85 73.45 Q116.3 72.4 111.65 72.3 L111.95 64.05 M102.55 72.9 L101.45 65.4 Q105.8 64.2 109.95 64.0 L109.65 72.25 102.55 72.9 M100.55 73.15 Q97.4 73.75 94.45 74.95 L93.85 69.1 99.5 66.15 100.55 73.15 M89.5 77.6 Q88.6 72.8 91.95 70.45 L92.5 75.7 92.55 75.85 Q90.95 76.6 89.5 77.6 M130.35 70.4 L130.05 72.5 129.0 76.1 122.8 73.95 125.3 66.6 Q128.7 67.5 130.35 70.4 M130.9 77.1 L132.2 71.85 134.4 74.9 134.5 79.1 130.9 77.1 M48.45 256.3 L48.7 255.8 48.85 255.95 48.45 256.3" fill="#ffffff" fill-rule="evenodd" stroke="none"/>
    </g>
    <g id="shape5" transform="matrix(1.0, 0.0, 0.0, 1.0, -0.25, -0.1)">
      <path d="M41.5 9.2 Q42.4 9.55 43.15 9.95 46.05 11.85 46.9 14.2 L47.35 15.85 47.65 17.9 47.25 18.65 44.0 19.2 38.3 19.95 37.2 18.3 37.9 23.9 45.75 25.9 Q47.7 26.7 49.5 27.85 L51.3 29.45 51.9 30.15 53.05 32.2 Q53.9 34.55 53.45 37.4 53.05 39.65 51.8 42.25 50.75 44.2 48.5 45.95 L41.3 49.9 41.5 51.65 41.65 52.55 41.55 54.25 40.85 54.55 36.85 54.55 33.35 54.55 32.45 54.35 32.1 53.1 32.0 51.75 29.9 51.65 29.95 52.0 30.05 53.35 30.25 54.95 30.05 55.55 29.7 55.8 21.15 55.75 20.85 54.7 20.85 53.9 20.8 52.15 20.8 50.7 Q14.65 48.7 10.65 43.65 L7.9 38.1 7.55 35.2 8.6 34.85 10.8 34.65 18.35 34.25 20.5 38.15 19.95 29.25 Q14.15 29.25 10.1 25.5 8.95 24.2 8.45 22.85 7.9 20.7 8.2 18.6 8.55 16.85 9.35 15.4 10.25 14.05 11.4 12.85 L14.5 10.85 17.6 9.4 17.5 8.85 17.35 8.15 17.1 6.75 17.15 4.7 17.75 4.4 24.8 4.3 25.3 5.6 25.4 6.25 25.5 7.1 27.25 6.95 27.1 6.05 27.05 5.4 26.95 4.05 31.85 2.35 33.7 2.05 35.15 2.35 35.4 3.05 35.6 5.0 35.8 6.45 35.85 7.15 35.9 7.6 38.4 8.15 Q40.1 8.6 41.5 9.2 M45.7 17.05 Q45.55 13.85 43.0 11.9 39.95 9.6 36.1 8.95 L36.85 15.25 Q38.5 16.2 39.2 17.9 L45.7 17.05 M50.5 31.85 Q50.15 30.75 49.3 29.9 44.5 25.35 38.05 25.6 L38.65 30.05 39.6 30.55 Q42.85 32.45 41.55 36.3 L39.75 38.5 41.0 47.75 45.35 45.65 Q47.2 44.6 48.4 43.0 52.3 37.95 50.5 31.85 M27.4 8.2 L25.7 8.35 26.75 14.8 28.3 14.65 27.4 8.2 M28.4 15.6 L26.8 15.75 27.6 23.3 29.5 23.7 28.4 15.6 M25.75 23.5 L23.6 5.85 19.25 5.95 20.8 20.4 21.2 26.55 Q22.1 40.45 22.3 54.4 L28.25 54.0 25.75 23.5 M33.65 3.4 L28.7 4.7 Q30.45 15.1 31.3 25.55 L32.1 34.2 33.65 52.85 39.75 52.65 33.65 3.4 M10.9 18.95 L10.85 19.95 Q10.85 20.9 11.15 21.85 13.15 27.7 19.8 27.9 L19.5 24.35 Q17.9 24.05 17.15 22.75 14.95 18.95 18.75 16.85 L17.85 10.85 Q14.85 12.2 12.8 14.55 11.15 16.4 10.9 18.95 M18.25 20.55 Q18.5 21.5 19.1 22.15 L18.9 18.45 Q17.95 19.3 18.25 20.55 M17.1 36.0 L9.45 36.65 9.8 37.65 Q13.15 45.05 20.75 48.3 L20.55 39.4 Q18.1 38.3 17.1 36.0 M38.85 31.85 L39.5 36.6 Q40.7 34.95 39.5 32.5 L38.85 31.85 M27.8 25.4 L28.1 28.4 30.2 28.6 29.75 25.5 27.8 25.4 M30.35 29.8 L28.2 29.6 29.05 39.75 31.25 39.65 30.35 29.8 M31.35 40.85 L29.15 40.95 29.75 49.8 31.9 49.75 31.35 40.85" fill="#005d51" fill-rule="evenodd" stroke="none"/>
      <path d="M46.9 14.2 Q46.05 11.85 43.15 9.95 42.4 9.55 41.5 9.2 38.85 7.4 35.8 6.45 L35.6 5.0 Q41.65 6.85 46.0 11.25 54.5 20.05 53.05 32.2 L51.9 30.15 51.95 28.7 Q51.75 20.2 46.9 14.2 M35.15 2.35 L33.7 2.05 Q21.3 -0.05 11.55 7.85 2.85 14.9 1.65 25.95 0.9 32.85 3.65 39.2 8.8 50.9 20.85 54.7 L21.15 55.75 29.7 55.8 Q33.45 55.6 36.85 54.55 L40.85 54.55 Q35.35 57.15 28.6 57.3 16.45 56.95 8.4 48.9 4.75 45.25 2.7 40.85 1.25 37.7 0.65 34.15 -0.1 29.5 0.5 24.9 1.2 19.5 3.95 14.75 6.75 10.0 10.95 6.65 14.95 3.5 19.8 1.7 24.05 0.1 28.6 0.1 40.7 0.4 48.8 8.5 56.9 16.55 57.2 28.7 56.85 40.8 48.8 48.9 45.5 52.2 41.55 54.25 L41.65 52.55 Q44.95 50.7 47.8 47.9 55.45 40.2 55.75 28.7 55.45 17.15 47.8 9.5 42.45 4.1 35.15 2.35 M26.95 4.05 L27.05 5.4 25.3 5.6 24.8 4.3 26.95 4.05 M17.1 6.75 L17.35 8.15 11.4 12.85 Q10.25 14.05 9.35 15.4 5.4 21.05 5.2 28.7 5.4 37.45 10.65 43.65 14.65 48.7 20.8 50.7 L20.8 52.15 Q15.35 50.4 11.1 46.15 4.1 39.15 3.85 28.7 4.1 18.2 11.1 11.2 13.8 8.45 17.1 6.75 M30.05 53.35 L29.95 52.0 32.0 51.75 32.1 53.1 30.05 53.35" fill="#006868" fill-rule="evenodd" stroke="none"/>
      <path d="M40.65 12.0 L42.45 12.1 43.6 13.4 Q44.15 15.45 42.2 16.35 41.3 16.6 40.6 16.35 L40.45 16.3 40.4 16.25 Q39.7 15.85 39.25 14.95 38.7 12.9 40.65 12.0 M41.6 15.7 L41.95 15.6 Q43.65 14.75 42.45 13.1 L41.6 15.7 M41.65 12.75 L40.95 12.8 Q39.7 13.35 40.05 14.7 L40.45 15.3 41.65 12.75 M46.05 37.3 Q48.15 37.85 48.0 39.95 47.45 42.05 45.3 41.9 44.3 41.65 43.85 41.05 L43.8 41.0 43.75 40.9 Q43.3 40.25 43.4 39.2 43.95 37.1 46.05 37.3 M44.8 40.8 L45.45 41.05 Q47.4 41.15 47.1 39.15 L44.8 40.8 M46.65 38.45 L45.95 38.1 Q44.6 38.0 44.2 39.35 L44.3 40.15 46.65 38.45 M13.5 18.1 L12.75 18.1 14.15 20.6 14.5 19.95 Q14.75 18.6 13.5 18.1 M10.85 19.95 L10.9 18.95 Q11.55 17.0 13.6 17.25 15.35 17.7 15.4 19.55 15.45 21.1 14.0 21.75 L12.3 21.65 Q11.15 21.15 10.85 19.95 M12.65 20.95 L13.35 21.0 12.0 18.55 11.65 19.1 Q11.4 20.45 12.65 20.95 M17.55 42.65 L17.85 42.0 15.0 42.3 15.45 42.9 Q16.6 43.65 17.55 42.65 M17.3 40.6 Q16.2 39.8 15.2 40.8 L14.9 41.45 17.75 41.15 17.3 40.6 M18.75 41.5 L18.5 42.45 Q17.95 44.1 16.25 44.15 L15.8 44.0 Q13.3 42.75 14.55 40.25 L15.4 39.85 Q17.95 38.9 18.75 41.5" fill="#0f6f61" fill-rule="evenodd" stroke="none"/>
      <path d="M40.65 12.0 Q38.7 12.9 39.25 14.95 39.7 15.85 40.4 16.25 L40.45 16.3 40.6 16.35 Q41.3 16.6 42.2 16.35 44.15 15.45 43.6 13.4 L42.45 12.1 40.65 12.0 M45.7 17.05 L39.2 17.9 Q38.5 16.2 36.85 15.25 L36.1 8.95 Q39.95 9.6 43.0 11.9 45.55 13.85 45.7 17.05 M50.5 31.85 Q52.3 37.95 48.4 43.0 47.2 44.6 45.35 45.65 L41.0 47.75 39.75 38.5 41.55 36.3 Q42.85 32.45 39.6 30.55 L38.65 30.05 38.05 25.6 Q44.5 25.35 49.3 29.9 50.15 30.75 50.5 31.85 M46.05 37.3 Q43.95 37.1 43.4 39.2 43.3 40.25 43.75 40.9 L43.8 41.0 43.85 41.05 Q44.3 41.65 45.3 41.9 47.45 42.05 48.0 39.95 48.15 37.85 46.05 37.3 M32.9 7.7 L31.15 6.85 Q30.6 9.15 30.85 11.4 L31.8 18.75 Q33.9 33.8 34.4 48.9 34.45 50.1 35.5 51.1 L37.15 50.9 Q37.65 50.05 37.55 48.95 L36.95 43.5 36.1 33.95 Q35.3 20.6 32.9 7.7 M27.4 8.2 L28.3 14.65 26.75 14.8 25.7 8.35 27.4 8.2 M24.25 24.5 Q24.2 18.9 23.7 13.7 23.2 8.5 22.1 8.2 20.85 8.6 21.15 13.7 21.45 18.8 22.2 24.2 L23.1 31.05 Q23.5 40.1 23.8 43.3 23.3 47.7 24.9 51.6 26.25 50.8 26.15 48.65 L25.8 45.15 Q24.55 38.45 24.3 31.65 L24.25 24.5 M33.65 3.4 L39.75 52.65 33.65 52.85 32.1 34.2 31.3 25.55 Q30.45 15.1 28.7 4.7 L33.65 3.4 M25.75 23.5 L28.25 54.0 22.3 54.4 Q22.1 40.45 21.2 26.55 L20.8 20.4 19.25 5.95 23.6 5.85 25.75 23.5 M10.85 19.95 Q11.15 21.15 12.3 21.65 L14.0 21.75 Q15.45 21.1 15.4 19.55 15.35 17.7 13.6 17.25 11.55 17.0 10.9 18.95 11.15 16.4 12.8 14.55 14.85 12.2 17.85 10.85 L18.75 16.85 Q14.95 18.95 17.15 22.75 17.9 24.05 19.5 24.35 L19.8 27.9 Q13.15 27.7 11.15 21.85 10.85 20.9 10.85 19.95 M18.75 41.5 Q17.95 38.9 15.4 39.85 L14.55 40.25 Q13.3 42.75 15.8 44.0 L16.25 44.15 Q17.95 44.1 18.5 42.45 L18.75 41.5 M17.1 36.0 Q18.1 38.3 20.55 39.4 L20.75 48.3 Q13.15 45.05 9.8 37.65 L9.45 36.65 17.1 36.0 M27.8 25.4 L29.75 25.5 30.2 28.6 28.1 28.4 27.8 25.4 M31.35 40.85 L31.9 49.75 29.75 49.8 29.15 40.95 31.35 40.85" fill="#85ab93" fill-rule="evenodd" stroke="none"/>
      <path d="M38.4 8.15 L35.9 7.6 35.85 7.15 38.4 8.15 M27.1 6.05 L27.25 6.95 25.5 7.1 25.4 6.25 27.1 6.05 M17.5 8.85 L17.6 9.4 14.5 10.85 Q15.9 9.7 17.5 8.85 M8.2 18.6 Q7.9 20.7 8.45 22.85 7.45 26.0 7.7 29.6 7.85 32.35 8.6 34.85 L7.55 35.2 7.9 38.1 Q6.0 33.85 5.85 28.7 6.0 23.1 8.2 18.6 M51.3 29.45 L49.5 27.85 Q49.25 23.0 47.25 18.65 L47.65 17.9 47.35 15.85 Q51.15 21.35 51.3 28.7 L51.3 29.45" fill="#85b599" fill-rule="evenodd" stroke="none"/>
      <path d="M41.5 9.2 Q40.1 8.6 38.4 8.15 L35.85 7.15 35.8 6.45 Q38.85 7.4 41.5 9.2 M35.4 3.05 L35.15 2.35 Q42.45 4.1 47.8 9.5 55.45 17.15 55.75 28.7 55.45 40.2 47.8 47.9 44.95 50.7 41.65 52.55 L41.5 51.65 Q44.6 49.9 47.2 47.3 L48.5 45.95 Q50.75 44.2 51.8 42.25 53.05 39.65 53.45 37.4 54.8 33.35 54.95 28.6 54.65 17.35 47.2 9.9 42.15 4.85 35.4 3.05 M33.7 2.05 L31.85 2.35 28.5 2.1 Q22.6 2.25 17.75 4.4 L17.15 4.7 Q6.8 9.85 3.35 20.8 0.5 29.95 4.3 38.8 9.25 50.2 20.85 53.9 L20.85 54.7 Q8.8 50.9 3.65 39.2 0.9 32.85 1.65 25.95 2.85 14.9 11.55 7.85 21.3 -0.05 33.7 2.05 M27.05 5.4 L27.1 6.05 25.4 6.25 25.3 5.6 27.05 5.4 M17.35 8.15 L17.5 8.85 Q15.9 9.7 14.5 10.85 L11.4 12.85 17.35 8.15 M9.35 15.4 Q8.55 16.85 8.2 18.6 6.0 23.1 5.85 28.7 6.0 33.85 7.9 38.1 L10.65 43.65 Q5.4 37.45 5.2 28.7 5.4 21.05 9.35 15.4 M29.7 55.8 L30.05 55.55 30.25 54.95 33.35 54.55 36.85 54.55 Q33.45 55.6 29.7 55.8 M29.95 52.0 L29.9 51.65 32.0 51.75 29.95 52.0 M51.9 30.15 L51.3 29.45 51.3 28.7 Q51.15 21.35 47.35 15.85 L46.9 14.2 Q51.75 20.2 51.95 28.7 L51.9 30.15" fill="#085854" fill-rule="evenodd" stroke="none"/>
      <path d="M41.65 12.75 L40.45 15.3 40.05 14.7 Q39.7 13.35 40.95 12.8 L41.65 12.75 M41.6 15.7 L42.45 13.1 Q43.65 14.75 41.95 15.6 L41.6 15.7 M46.65 38.45 L44.3 40.15 44.2 39.35 Q44.6 38.0 45.95 38.1 L46.65 38.45 M44.8 40.8 L47.1 39.15 Q47.4 41.15 45.45 41.05 L44.8 40.8 M13.5 18.1 Q14.75 18.6 14.5 19.95 L14.15 20.6 12.75 18.1 13.5 18.1 M12.65 20.95 Q11.4 20.45 11.65 19.1 L12.0 18.55 13.35 21.0 12.65 20.95 M17.3 40.6 L17.75 41.15 14.9 41.45 15.2 40.8 Q16.2 39.8 17.3 40.6 M17.55 42.65 Q16.6 43.65 15.45 42.9 L15.0 42.3 17.85 42.0 17.55 42.65" fill="#a0beac" fill-rule="evenodd" stroke="none"/>
      <path d="M35.6 5.0 L35.4 3.05 Q42.15 4.85 47.2 9.9 54.65 17.35 54.95 28.6 54.8 33.35 53.45 37.4 53.9 34.55 53.05 32.2 54.5 20.05 46.0 11.25 41.65 6.85 35.6 5.0 M31.85 2.35 L26.95 4.05 24.8 4.3 17.75 4.4 Q22.6 2.25 28.5 2.1 L31.85 2.35 M17.15 4.7 L17.1 6.75 Q13.8 8.45 11.1 11.2 4.1 18.2 3.85 28.7 4.1 39.15 11.1 46.15 15.35 50.4 20.8 52.15 L20.85 53.9 Q9.25 50.2 4.3 38.8 0.5 29.95 3.35 20.8 6.8 9.85 17.15 4.7 M8.45 22.85 Q8.95 24.2 10.1 25.5 8.85 29.75 10.65 34.3 L10.8 34.65 8.6 34.85 Q7.85 32.35 7.7 29.6 7.45 26.0 8.45 22.85 M30.25 54.95 L30.05 53.35 32.1 53.1 32.45 54.35 33.35 54.55 30.25 54.95 M41.5 51.65 L41.3 49.9 48.5 45.95 47.2 47.3 Q44.6 49.9 41.5 51.65 M49.5 27.85 Q47.7 26.7 45.75 25.9 45.45 22.35 44.0 19.2 L47.25 18.65 Q49.25 23.0 49.5 27.85" fill="#98bea8" fill-rule="evenodd" stroke="none"/>
      <path d="M10.1 25.5 Q14.15 29.25 19.95 29.25 L20.5 38.15 18.35 34.25 10.8 34.65 10.65 34.3 Q8.85 29.75 10.1 25.5 M45.75 25.9 L37.9 23.9 37.2 18.3 38.3 19.95 44.0 19.2 Q45.45 22.35 45.75 25.9 M28.4 15.6 L29.5 23.7 27.6 23.3 26.8 15.75 28.4 15.6 M18.25 20.55 Q17.95 19.3 18.9 18.45 L19.1 22.15 Q18.5 21.5 18.25 20.55 M38.85 31.85 L39.5 32.5 Q40.7 34.95 39.5 36.6 L38.85 31.85 M30.35 29.8 L31.25 39.65 29.05 39.75 28.2 29.6 30.35 29.8" fill="#c1d9cb" fill-rule="evenodd" stroke="none"/>
      <path d="M32.9 7.7 Q35.3 20.6 36.1 33.95 L36.95 43.5 37.55 48.95 Q37.65 50.05 37.15 50.9 L35.5 51.1 Q34.45 50.1 34.4 48.9 33.9 33.8 31.8 18.75 L30.85 11.4 Q30.6 9.15 31.15 6.85 L32.9 7.7 M24.25 24.5 L24.3 31.65 Q24.55 38.45 25.8 45.15 L26.15 48.65 Q26.25 50.8 24.9 51.6 23.3 47.7 23.8 43.3 23.5 40.1 23.1 31.05 L22.2 24.2 Q21.45 18.8 21.15 13.7 20.85 8.6 22.1 8.2 23.2 8.5 23.7 13.7 24.2 18.9 24.25 24.5" fill="#689878" fill-rule="evenodd" stroke="none"/>
    </g>
  </defs>
</svg>
