<?xml version="1.0" encoding="UTF-8" standalone="no"?>
<svg xmlns:xlink="http://www.w3.org/1999/xlink" height="10.65px" width="82.55px" xmlns="http://www.w3.org/2000/svg">
  <g transform="matrix(1.0, 0.0, 0.0, 1.0, -0.85, -4.35)">
    <g transform="matrix(1.0, 0.0, 0.0, 1.0, 0.0, 0.0)">
      <use fill="#222222" height="10.65" transform="matrix(0.332, 0.0, 0.0, 0.332, 0.0, 15.0)" width="82.55" xlink:href="#font_______W7_B0"/>
      <use fill="#222222" height="10.65" transform="matrix(0.332, 0.0, 0.0, 0.332, 10.95, 15.0)" width="82.55" xlink:href="#font_______W7_O0"/>
      <use fill="#222222" height="10.65" transform="matrix(0.332, 0.0, 0.0, 0.332, 21.3, 15.0)" width="82.55" xlink:href="#font_______W7_S0"/>
      <use fill="#222222" height="10.65" transform="matrix(0.332, 0.0, 0.0, 0.332, 31.45, 15.0)" width="82.55" xlink:href="#font_______W7_S0"/>
      <use fill="#222222" height="10.65" transform="matrix(0.332, 0.0, 0.0, 0.332, 41.6, 15.0)" width="82.55" xlink:href="#font_______W7_B0"/>
      <use fill="#222222" height="10.65" transform="matrix(0.332, 0.0, 0.0, 0.332, 52.55, 15.0)" width="82.55" xlink:href="#font_______W7_O0"/>
      <use fill="#222222" height="10.65" transform="matrix(0.332, 0.0, 0.0, 0.332, 62.9, 15.0)" width="82.55" xlink:href="#font_______W7_T0"/>
      <use fill="#222222" height="10.65" transform="matrix(0.332, 0.0, 0.0, 0.332, 72.9, 15.0)" width="82.55" xlink:href="#font_______W7_S0"/>
    </g>
  </g>
  <defs>
    <g id="font_______W7_B0">
      <path d="M25.75 -11.3 L25.75 -11.3 Q25.75 -8.4 21.9 -8.4 18.5 -8.4 14.4 -12.15 L12.5 -7.75 11.95 -13.45 Q15.45 -15.85 18.95 -15.85 21.25 -15.85 23.3 -14.7 25.75 -13.4 25.75 -11.3 M23.15 -23.7 L23.15 -23.7 Q23.15 -22.05 21.2 -20.35 L19.0 -20.45 Q15.05 -20.45 11.45 -18.65 L10.85 -24.45 Q15.3 -26.5 18.75 -26.5 L21.55 -25.95 Q23.15 -25.2 23.15 -23.7 M33.9 -10.25 L33.9 -10.25 Q33.9 -14.55 29.85 -17.3 32.05 -20.45 32.05 -23.5 32.05 -27.75 28.35 -29.85 25.45 -31.6 20.9 -31.6 14.3 -31.6 10.4 -29.6 L10.2 -31.55 5.3 -32.15 2.55 0.05 13.15 -1.1 13.05 -2.3 Q17.4 -0.6 21.5 -0.6 26.1 -0.6 29.75 -3.05 33.9 -5.85 33.9 -10.25" fill-rule="evenodd" stroke="none"/>
    </g>
    <g id="font_______W7_O0">
      <path d="M23.25 -14.75 L23.25 -14.75 Q23.25 -11.3 21.3 -9.0 19.35 -6.7 15.9 -6.7 12.05 -6.7 9.75 -9.9 7.65 -12.8 7.65 -16.85 7.65 -21.4 9.95 -24.25 12.45 -27.3 16.9 -27.3 19.7 -27.3 22.3 -26.25 L18.75 -23.65 Q23.25 -19.2 23.25 -14.75 M32.15 -16.8 L32.15 -16.8 Q32.15 -24.85 27.6 -29.95 L24.0 -27.4 24.9 -30.1 Q20.4 -32.15 16.15 -32.15 9.4 -32.15 5.65 -27.8 2.05 -23.65 2.05 -16.8 2.05 -9.3 5.8 -4.8 9.85 0.05 17.15 0.05 24.6 0.05 28.5 -4.8 32.15 -9.2 32.15 -16.8" fill-rule="evenodd" stroke="none"/>
    </g>
    <g id="font_______W7_S0">
      <path d="M31.55 -9.25 L31.55 -9.25 Q31.55 -13.4 28.3 -15.85 25.95 -17.65 19.7 -19.75 10.7 -22.75 10.7 -24.2 10.7 -25.4 11.9 -26.1 13.0 -26.75 14.65 -26.75 21.7 -26.75 27.4 -23.2 L30.25 -27.8 Q24.05 -32.15 16.75 -32.15 11.9 -32.15 8.45 -30.45 4.0 -28.25 4.0 -23.9 4.0 -20.3 7.85 -18.05 9.4 -17.1 15.9 -14.75 23.85 -11.9 23.85 -10.1 23.85 -8.7 22.45 -7.9 21.25 -7.25 19.75 -7.25 15.9 -7.25 12.1 -9.95 8.85 -12.25 6.35 -15.9 L1.55 -6.1 Q4.85 -3.25 9.45 -1.6 14.1 0.05 18.65 0.05 23.45 0.05 27.15 -2.15 31.55 -4.75 31.55 -9.25" fill-rule="evenodd" stroke="none"/>
    </g>
    <g id="font_______W7_T0">
      <path d="M30.8 -32.15 L30.8 -32.15 0.75 -29.4 1.85 -24.25 13.45 -24.25 11.0 0.05 21.6 -1.1 18.95 -24.25 32.35 -24.25 30.8 -32.15" fill-rule="evenodd" stroke="none"/>
    </g>
  </defs>
</svg>
