<?xml version="1.0" encoding="UTF-8" standalone="no"?>
<svg xmlns:xlink="http://www.w3.org/1999/xlink" height="11.3px" width="45.9px" xmlns="http://www.w3.org/2000/svg">
  <g transform="matrix(1.0, 0.0, 0.0, 1.0, -49.7, -3.7)">
    <g transform="matrix(1.0, 0.0, 0.0, 1.0, 48.75, 0.0)">
      <use fill="#ffffff" height="11.3" transform="matrix(0.3516, 0.0, 0.0, 0.3516, 0.0, 15.0)" width="45.9" xlink:href="#font_______W7_B0"/>
      <use fill="#ffffff" height="11.3" transform="matrix(0.3516, 0.0, 0.0, 0.3516, 11.65, 15.0)" width="45.9" xlink:href="#font_______W7_A0"/>
      <use fill="#ffffff" height="11.3" transform="matrix(0.3516, 0.0, 0.0, 0.3516, 24.05, 15.0)" width="45.9" xlink:href="#font_______W7_C0"/>
      <use fill="#ffffff" height="11.3" transform="matrix(0.3516, 0.0, 0.0, 0.3516, 35.15, 15.0)" width="45.9" xlink:href="#font_______W7_K0"/>
    </g>
  </g>
  <defs>
    <g id="font_______W7_B0">
      <path d="M25.75 -11.3 L25.75 -11.3 Q25.75 -8.4 21.9 -8.4 18.5 -8.4 14.4 -12.15 L12.5 -7.75 11.95 -13.45 Q15.45 -15.85 18.95 -15.85 21.25 -15.85 23.3 -14.7 25.75 -13.4 25.75 -11.3 M23.15 -23.7 L23.15 -23.7 Q23.15 -22.05 21.2 -20.35 L19.0 -20.45 Q15.05 -20.45 11.45 -18.65 L10.85 -24.45 Q15.3 -26.5 18.75 -26.5 L21.55 -25.95 Q23.15 -25.2 23.15 -23.7 M33.9 -10.25 L33.9 -10.25 Q33.9 -14.55 29.85 -17.3 32.05 -20.45 32.05 -23.5 32.05 -27.75 28.35 -29.85 25.45 -31.6 20.9 -31.6 14.3 -31.6 10.4 -29.6 L10.2 -31.55 5.3 -32.15 2.55 0.05 13.15 -1.1 13.05 -2.3 Q17.4 -0.6 21.5 -0.6 26.1 -0.6 29.75 -3.05 33.9 -5.85 33.9 -10.25" fill-rule="evenodd" stroke="none"/>
    </g>
    <g id="font_______W7_A0">
      <path d="M14.9 -11.95 L14.9 -11.95 19.2 -22.85 22.9 -13.4 14.9 -11.95 M21.7 -29.25 L21.7 -29.25 22.1 -30.3 17.9 -32.15 0.75 -4.5 10.15 0.05 12.75 -6.5 25.6 -6.5 28.15 0.05 37.4 -4.5 21.7 -29.25" fill-rule="evenodd" stroke="none"/>
    </g>
    <g id="font_______W7_C0">
      <path d="M26.2 -15.4 L26.2 -15.4 Q21.6 -8.3 16.1 -8.3 12.35 -8.3 10.4 -10.7 8.6 -12.9 8.6 -16.75 8.6 -21.2 11.05 -23.95 13.55 -26.6 17.95 -26.6 23.65 -26.6 27.3 -22.25 L31.1 -26.05 Q28.65 -28.9 25.1 -30.55 21.55 -32.15 17.8 -32.15 10.8 -32.15 6.45 -27.4 2.05 -22.7 2.05 -15.6 2.05 -8.95 6.35 -4.45 10.7 0.05 17.3 0.05 25.6 0.05 32.65 -7.35 L26.2 -15.4" fill-rule="evenodd" stroke="none"/>
    </g>
    <g id="font_______W7_K0">
      <path d="M20.85 -18.65 L20.85 -18.65 30.3 -28.75 27.65 -32.05 11.2 -21.35 10.25 -31.5 5.3 -32.15 2.55 0.0 13.15 -1.15 11.85 -14.85 14.15 -11.55 17.0 -14.55 25.45 0.05 33.2 -6.85 20.85 -18.65" fill-rule="evenodd" stroke="none"/>
    </g>
  </defs>
</svg>
