<?xml version="1.0" encoding="UTF-8" standalone="no"?>
<svg xmlns:xlink="http://www.w3.org/1999/xlink" height="13.8px" width="47.05px" xmlns="http://www.w3.org/2000/svg">
  <g transform="matrix(1.0, 0.0, 0.0, 1.0, -48.85, -4.15)">
    <g transform="matrix(1.0, 0.0, 0.0, 1.0, 47.9, 0.0)">
      <use fill="#333333" height="13.8" transform="matrix(0.3516, 0.0, 0.0, 0.3516, 0.0, 18.0)" width="47.05" xlink:href="#font_______L0"/>
      <use fill="#333333" height="13.8" transform="matrix(0.3516, 0.0, 0.0, 0.3516, 8.0, 18.0)" width="47.05" xlink:href="#font_______i0"/>
      <use fill="#333333" height="13.8" transform="matrix(0.3516, 0.0, 0.0, 0.3516, 16.0, 18.0)" width="47.05" xlink:href="#font_______b0"/>
      <use fill="#333333" height="13.8" transform="matrix(0.3516, 0.0, 0.0, 0.3516, 24.0, 18.0)" width="47.05" xlink:href="#font_______S0"/>
      <use fill="#333333" height="13.8" transform="matrix(0.3516, 0.0, 0.0, 0.3516, 32.0, 18.0)" width="47.05" xlink:href="#font_______n0"/>
      <use fill="#333333" height="13.8" transform="matrix(0.3516, 0.0, 0.0, 0.3516, 40.0, 18.0)" width="47.05" xlink:href="#font_______d0"/>
    </g>
  </g>
  <defs>
    <g id="font_______L0">
      <path d="M2.4 -0.2 L2.4 -0.2 23.4 -0.2 23.4 -4.2 7.2 -4.2 7.2 -39.4 2.4 -39.4 2.4 -0.2" fill-rule="evenodd" stroke="none"/>
    </g>
    <g id="font_______i0">
      <path d="M10.4 -39.4 L10.4 -39.4 10.4 -34.2 14.6 -34.2 14.6 -39.4 10.4 -39.4 M14.6 -27.8 L14.6 -27.8 10.4 -27.8 10.4 -0.2 14.6 -0.2 14.6 -27.8" fill-rule="evenodd" stroke="none"/>
    </g>
    <g id="font_______b0">
      <path d="M6.6 -13.4 L6.6 -13.4 Q6.6 -20.2 8.6 -22.2 10.6 -24.2 12.8 -24.2 15.0 -24.2 16.4 -22.8 18.8 -20.4 18.8 -14.2 18.8 -7.8 16.2 -5.2 14.8 -3.8 12.4 -3.8 10.4 -3.8 8.6 -5.6 6.6 -7.6 6.6 -13.4 M6.6 -23.4 L6.6 -23.4 6.6 -39.4 2.4 -39.4 2.4 -0.2 6.6 -0.2 6.6 -3.8 Q9.6 -0.2 13.4 -0.2 16.6 -0.2 19.6 -3.4 22.8 -6.6 22.8 -14.6 22.8 -22.2 19.6 -25.4 17.2 -27.8 14.0 -27.8 9.8 -27.8 6.6 -23.4" fill-rule="evenodd" stroke="none"/>
    </g>
    <g id="font_______S0">
      <path d="M10.4 -24.8 L10.4 -24.8 Q7.6 -27.2 7.6 -29.8 7.6 -32.2 9.4 -34.0 10.8 -35.4 12.8 -35.4 14.8 -35.4 16.2 -34.0 18.2 -32.0 17.8 -28.6 L22.4 -28.6 Q22.6 -34.0 19.6 -37.0 17.2 -39.4 12.8 -39.4 9.2 -39.4 6.2 -36.6 3.0 -33.6 3.2 -29.2 3.4 -24.8 6.6 -22.2 11.0 -18.6 16.0 -15.4 18.8 -13.6 18.8 -10.6 18.8 -7.8 17.0 -6.0 15.4 -4.4 12.2 -4.4 9.8 -4.4 8.2 -6.0 6.6 -7.6 6.6 -10.8 L6.6 -12.6 2.0 -12.6 2.0 -10.6 Q2.0 -6.2 5.2 -3.0 7.8 -0.2 12.6 -0.2 17.6 -0.2 20.4 -3.2 23.4 -6.2 23.4 -11.2 23.4 -16.2 18.8 -18.8 14.6 -21.2 10.4 -24.8" fill-rule="evenodd" stroke="none"/>
    </g>
    <g id="font_______n0">
      <path d="M18.4 -20.0 L18.4 -20.0 18.4 -0.2 22.6 -0.2 22.6 -20.4 Q22.6 -23.8 20.6 -25.8 18.6 -27.8 15.4 -27.8 11.8 -27.8 9.4 -25.4 L7.0 -22.6 7.0 -27.8 2.8 -27.8 2.8 -0.2 7.0 -0.2 7.0 -14.8 Q7.0 -19.2 9.8 -22.0 12.0 -24.2 14.2 -24.2 16.2 -24.2 17.4 -23.0 18.4 -21.8 18.4 -20.0" fill-rule="evenodd" stroke="none"/>
    </g>
    <g id="font_______d0">
      <path d="M12.4 -24.2 L12.4 -24.2 Q14.4 -24.2 15.8 -22.8 18.4 -20.2 18.4 -14.6 18.4 -8.4 15.8 -5.8 14.0 -4.0 12.2 -4.0 10.0 -4.0 8.6 -5.4 6.4 -7.6 6.4 -14.2 6.4 -20.0 9.0 -22.6 10.6 -24.2 12.4 -24.2 M18.2 -4.4 L18.2 -4.4 18.2 -0.2 22.4 -0.2 22.4 -39.4 18.2 -39.4 18.2 -24.8 Q15.5 -27.8 12.0 -27.8 8.6 -27.8 5.8 -25.0 2.0 -21.2 2.0 -14.6 2.0 -6.6 5.4 -3.2 8.2 -0.2 11.2 -0.2 15.1 -0.2 18.2 -4.4" fill-rule="evenodd" stroke="none"/>
    </g>
  </defs>
</svg>
