<?xml version="1.0" encoding="UTF-8" standalone="no"?>
<svg xmlns:xlink="http://www.w3.org/1999/xlink" height="10.15px" width="146.2px" xmlns="http://www.w3.org/2000/svg">
  <g transform="matrix(1.0, 0.0, 0.0, 1.0, 16.9, -3.95)">
    <g transform="matrix(1.0, 0.0, 0.0, 1.0, -18.25, 0.0)">
      <use fill="#333333" height="10.15" transform="matrix(0.3125, 0.0, 0.0, 0.3125, 0.0, 14.0)" width="146.2" xlink:href="#font_______W7_I0"/>
      <use fill="#333333" height="10.15" transform="matrix(0.3125, 0.0, 0.0, 0.3125, 11.2, 14.0)" width="146.2" xlink:href="#font_______W7_d0"/>
      <use fill="#333333" height="10.15" transform="matrix(0.3125, 0.0, 0.0, 0.3125, 20.5, 14.0)" width="146.2" xlink:href="#font_______W7_o0"/>
      <use fill="#333333" height="10.15" transform="matrix(0.3125, 0.0, 0.0, 0.3125, 29.1, 14.0)" width="146.2" xlink:href="#font_______W7_n0"/>
      <use fill="#333333" height="10.15" transform="matrix(0.3125, 0.0, 0.0, 0.3125, 38.2, 14.0)" width="146.2" xlink:href="#font_______W7__1"/>
      <use fill="#333333" height="10.15" transform="matrix(0.3125, 0.0, 0.0, 0.3125, 41.65, 14.0)" width="146.2" xlink:href="#font_______W7_t0"/>
      <use fill="#333333" height="10.15" transform="matrix(0.3125, 0.0, 0.0, 0.3125, 54.6, 14.0)" width="146.2" xlink:href="#font_______W7_l0"/>
      <use fill="#333333" height="10.15" transform="matrix(0.3125, 0.0, 0.0, 0.3125, 60.45, 14.0)" width="146.2" xlink:href="#font_______W7_i0"/>
      <use fill="#333333" height="10.15" transform="matrix(0.3125, 0.0, 0.0, 0.3125, 66.3, 14.0)" width="146.2" xlink:href="#font_______W7_k0"/>
      <use fill="#333333" height="10.15" transform="matrix(0.3125, 0.0, 0.0, 0.3125, 75.5, 14.0)" width="146.2" xlink:href="#font_______W7_e0"/>
      <use fill="#333333" height="10.15" transform="matrix(0.3125, 0.0, 0.0, 0.3125, 89.8, 14.0)" width="146.2" xlink:href="#font_______W7_s0"/>
      <use fill="#333333" height="10.15" transform="matrix(0.3125, 0.0, 0.0, 0.3125, 98.1, 14.0)" width="146.2" xlink:href="#font_______W7_o0"/>
      <use fill="#333333" height="10.15" transform="matrix(0.3125, 0.0, 0.0, 0.3125, 106.7, 14.0)" width="146.2" xlink:href="#font_______W7_f0"/>
      <use fill="#333333" height="10.15" transform="matrix(0.3125, 0.0, 0.0, 0.3125, 112.5, 14.0)" width="146.2" xlink:href="#font_______W7_t0"/>
      <use fill="#333333" height="10.15" transform="matrix(0.3125, 0.0, 0.0, 0.3125, 120.1, 14.0)" width="146.2" xlink:href="#font_______W7_i0"/>
      <use fill="#333333" height="10.15" transform="matrix(0.3125, 0.0, 0.0, 0.3125, 125.95, 14.0)" width="146.2" xlink:href="#font_______W7_e0"/>
      <use fill="#333333" height="10.15" transform="matrix(0.3125, 0.0, 0.0, 0.3125, 134.9, 14.0)" width="146.2" xlink:href="#font_______W7_s0"/>
      <use fill="#333333" height="10.15" transform="matrix(0.3125, 0.0, 0.0, 0.3125, 143.2, 14.0)" width="146.2" xlink:href="#font_______W7__2"/>
    </g>
  </g>
  <defs>
    <g id="font_______W7_I0">
      <path d="M11.8 -31.5 L11.8 -31.5 6.9 -32.15 4.15 0.05 14.65 -1.1 11.8 -31.5" fill-rule="evenodd" stroke="none"/>
    </g>
    <g id="font_______W7_d0">
      <path d="M18.35 -8.95 L18.35 -8.95 16.8 -11.9 Q14.75 -9.45 12.45 -9.45 10.9 -9.45 10.0 -10.4 9.1 -11.4 9.1 -12.95 9.1 -14.5 10.7 -15.6 12.15 -16.5 13.7 -16.5 16.6 -16.5 18.8 -14.55 L18.35 -8.95 M24.9 -31.55 L24.9 -31.55 20.15 -32.2 19.15 -19.55 Q16.05 -21.45 12.65 -21.45 8.15 -21.45 4.95 -18.25 1.8 -15.0 1.8 -10.5 1.8 -6.05 4.6 -3.05 7.4 0.05 11.85 0.05 14.65 0.05 17.7 -1.5 L17.6 0.0 27.65 -1.45 24.9 -31.55" fill-rule="evenodd" stroke="none"/>
    </g>
    <g id="font_______W7_o0">
      <path d="M15.8 -13.5 L15.8 -13.5 Q16.45 -11.85 16.45 -10.4 16.45 -6.85 12.35 -6.85 10.6 -6.85 9.35 -8.05 8.15 -9.35 8.15 -11.05 8.15 -13.25 9.8 -14.6 11.4 -16.0 13.7 -16.0 16.1 -16.0 18.3 -14.3 L15.8 -13.5 M25.7 -11.4 L25.7 -11.4 Q25.7 -13.8 24.75 -16.35 L21.25 -15.25 22.7 -17.2 Q18.35 -21.45 13.15 -21.45 8.45 -21.45 5.1 -18.2 1.8 -14.95 1.8 -10.3 1.8 -5.5 5.4 -2.65 8.65 0.05 13.65 0.05 18.75 0.05 22.2 -3.2 25.7 -6.4 25.7 -11.4" fill-rule="evenodd" stroke="none"/>
    </g>
    <g id="font_______W7_n0">
      <path d="M27.0 -9.05 L27.0 -9.05 Q27.0 -14.5 24.65 -17.8 21.9 -21.45 16.6 -21.45 12.6 -21.45 9.45 -18.85 L9.2 -20.75 4.35 -21.45 2.05 0.05 11.95 -1.4 10.35 -12.55 Q12.95 -15.85 15.9 -15.85 19.4 -15.85 19.4 -10.6 19.4 -6.9 16.6 -1.3 L26.2 0.0 Q27.0 -6.5 27.0 -9.05" fill-rule="evenodd" stroke="none"/>
    </g>
    <g id="font_______W7__1">
      <path d="M2.05 -32.15 L2.05 -32.15 3.65 -20.7 7.3 -20.7 8.95 -32.15 2.05 -32.15" fill-rule="evenodd" stroke="none"/>
    </g>
    <g id="font_______W7_t0">
      <path d="M18.7 -12.2 L18.7 -12.2 Q17.0 -9.35 14.9 -9.35 11.95 -9.35 11.95 -15.4 L21.65 -15.4 20.1 -22.55 12.4 -21.45 Q12.75 -24.2 13.6 -27.95 L8.95 -28.85 Q7.75 -24.65 7.1 -20.75 L0.75 -19.9 1.75 -15.4 6.55 -15.4 6.5 -12.55 Q6.5 -6.8 7.75 -4.05 9.5 0.05 14.55 0.05 19.1 0.05 23.25 -4.15 L18.7 -12.2" fill-rule="evenodd" stroke="none"/>
    </g>
    <g id="font_______W7_l0">
      <path d="M11.6 -31.5 L11.6 -31.5 6.9 -32.15 4.35 0.05 14.4 -1.4 11.6 -31.5" fill-rule="evenodd" stroke="none"/>
    </g>
    <g id="font_______W7_i0">
      <path d="M11.6 -20.75 L11.6 -20.75 6.75 -21.45 4.45 0.05 14.3 -1.4 11.6 -20.75 M11.9 -31.5 L11.9 -31.5 6.5 -32.15 4.9 -24.95 13.2 -26.1 11.9 -31.5" fill-rule="evenodd" stroke="none"/>
    </g>
    <g id="font_______W7_k0">
      <path d="M20.35 -12.2 L20.35 -12.2 26.9 -17.9 24.8 -21.8 10.85 -14.65 9.3 -31.45 4.6 -32.15 2.05 0.05 12.1 -1.4 11.35 -9.1 13.25 -6.05 15.8 -8.25 22.05 0.25 28.6 -6.95 20.35 -12.2" fill-rule="evenodd" stroke="none"/>
    </g>
    <g id="font_______W7_e0">
      <path d="M19.45 -9.9 L19.45 -9.9 Q16.75 -7.55 13.6 -7.55 10.45 -7.55 9.15 -9.9 L19.45 -9.9 M9.0 -13.4 L9.0 -13.4 Q9.7 -14.95 11.5 -15.95 13.2 -16.8 15.1 -16.8 18.05 -16.8 19.65 -14.35 L9.0 -13.4 M23.25 -9.9 L23.25 -9.9 24.3 -9.9 26.7 -12.6 Q25.85 -16.7 22.9 -19.1 19.9 -21.45 15.15 -21.45 9.65 -21.45 5.9 -18.65 1.8 -15.6 1.8 -10.4 1.8 -5.35 5.8 -2.5 9.3 0.05 14.6 0.05 22.45 0.05 27.15 -4.25 L23.25 -9.9" fill-rule="evenodd" stroke="none"/>
    </g>
    <g id="font_______W7_s0">
      <path d="M25.05 -6.35 L25.05 -6.35 Q25.05 -12.25 15.35 -13.65 8.7 -14.6 8.7 -15.7 8.7 -17.05 12.35 -17.05 17.1 -17.05 22.25 -14.8 L23.8 -18.2 Q19.05 -21.45 12.25 -21.45 8.55 -21.45 6.05 -20.35 2.6 -18.85 2.6 -15.7 2.6 -13.1 4.75 -11.8 6.5 -10.75 10.95 -10.05 L16.3 -8.95 Q17.8 -8.4 17.8 -7.5 17.8 -6.2 15.25 -6.2 12.3 -6.2 9.1 -7.45 5.9 -8.7 3.8 -10.65 L1.0 -2.6 Q6.45 0.05 14.3 0.05 25.05 0.05 25.05 -6.35" fill-rule="evenodd" stroke="none"/>
    </g>
    <g id="font_______W7_f0">
      <path d="M16.3 -23.5 L16.3 -23.5 11.45 -22.7 Q11.8 -25.5 12.65 -26.6 13.65 -27.85 16.3 -27.85 L17.0 -27.85 16.25 -32.0 14.1 -32.15 Q5.9 -32.15 5.05 -21.65 L1.3 -20.95 2.15 -16.7 4.55 -16.7 Q4.1 -5.65 4.1 -0.95 L13.95 0.05 Q11.85 -9.65 11.45 -16.65 L17.3 -16.6 16.3 -23.5" fill-rule="evenodd" stroke="none"/>
    </g>
    <g id="font_______W7__2">
      <path d="M12.1 -7.5 L12.1 -7.5 5.1 -8.35 3.35 0.05 13.7 -1.15 12.1 -7.5 M11.0 -31.5 L11.0 -31.5 6.15 -32.15 4.3 -10.7 13.2 -12.15 11.0 -31.5" fill-rule="evenodd" stroke="none"/>
    </g>
  </defs>
</svg>
