<?xml version="1.0" encoding="UTF-8" standalone="no"?>
<svg xmlns:xlink="http://www.w3.org/1999/xlink" height="10.1px" width="158.2px" xmlns="http://www.w3.org/2000/svg">
  <g transform="matrix(1.0, 0.0, 0.0, 1.0, 23.4, -3.95)">
    <g transform="matrix(1.0, 0.0, 0.0, 1.0, -23.75, 0.0)">
      <use fill="#333333" height="10.1" transform="matrix(0.3125, 0.0, 0.0, 0.3125, 0.0, 14.0)" width="158.2" xlink:href="#font_______W7_Y0"/>
      <use fill="#333333" height="10.1" transform="matrix(0.3125, 0.0, 0.0, 0.3125, 10.65, 14.0)" width="158.2" xlink:href="#font_______W7_e0"/>
      <use fill="#333333" height="10.1" transform="matrix(0.3125, 0.0, 0.0, 0.3125, 19.6, 14.0)" width="158.2" xlink:href="#font_______W7_s0"/>
      <use fill="#333333" height="10.1" transform="matrix(0.3125, 0.0, 0.0, 0.3125, 27.9, 14.0)" width="158.2" xlink:href="#font_______W7__0"/>
      <use fill="#333333" height="10.1" transform="matrix(0.3125, 0.0, 0.0, 0.3125, 38.6, 14.0)" width="158.2" xlink:href="#font_______W7_I0"/>
      <use fill="#333333" height="10.1" transform="matrix(0.3125, 0.0, 0.0, 0.3125, 44.45, 14.0)" width="158.2" xlink:href="#font_______W7__2"/>
      <use fill="#333333" height="10.1" transform="matrix(0.3125, 0.0, 0.0, 0.3125, 47.9, 14.0)" width="158.2" xlink:href="#font_______W7_m0"/>
      <use fill="#333333" height="10.1" transform="matrix(0.3125, 0.0, 0.0, 0.3125, 64.95, 14.0)" width="158.2" xlink:href="#font_______W7_t0"/>
      <use fill="#333333" height="10.1" transform="matrix(0.3125, 0.0, 0.0, 0.3125, 72.55, 14.0)" width="158.2" xlink:href="#font_______W7_h0"/>
      <use fill="#333333" height="10.1" transform="matrix(0.3125, 0.0, 0.0, 0.3125, 81.95, 14.0)" width="158.2" xlink:href="#font_______W7_e0"/>
      <use fill="#333333" height="10.1" transform="matrix(0.3125, 0.0, 0.0, 0.3125, 96.25, 14.0)" width="158.2" xlink:href="#font_______W7_Y0"/>
      <use fill="#333333" height="10.1" transform="matrix(0.3125, 0.0, 0.0, 0.3125, 106.9, 14.0)" width="158.2" xlink:href="#font_______W7_e0"/>
      <use fill="#333333" height="10.1" transform="matrix(0.3125, 0.0, 0.0, 0.3125, 115.85, 14.0)" width="158.2" xlink:href="#font_______W7_s0"/>
      <use fill="#333333" height="10.1" transform="matrix(0.3125, 0.0, 0.0, 0.3125, 124.15, 14.0)" width="158.2" xlink:href="#font_______W7_m0"/>
      <use fill="#333333" height="10.1" transform="matrix(0.3125, 0.0, 0.0, 0.3125, 135.85, 14.0)" width="158.2" xlink:href="#font_______W7_a0"/>
      <use fill="#333333" height="10.1" transform="matrix(0.3125, 0.0, 0.0, 0.3125, 145.05, 14.0)" width="158.2" xlink:href="#font_______W7_n0"/>
      <use fill="#333333" height="10.1" transform="matrix(0.3125, 0.0, 0.0, 0.3125, 154.15, 14.0)" width="158.2" xlink:href="#font_______W7__0"/>
    </g>
  </g>
  <defs>
    <g id="font_______W7_Y0">
      <path d="M25.5 -32.15 L25.5 -32.15 15.75 -18.05 5.15 -31.95 0.75 -29.2 12.5 -12.7 10.15 0.05 21.35 -1.4 18.8 -12.8 33.25 -26.05 25.5 -32.15" fill-rule="evenodd" stroke="none"/>
    </g>
    <g id="font_______W7_e0">
      <path d="M19.45 -9.9 L19.45 -9.9 Q16.75 -7.55 13.6 -7.55 10.45 -7.55 9.15 -9.9 L19.45 -9.9 M9.0 -13.4 L9.0 -13.4 Q9.7 -14.95 11.5 -15.95 13.2 -16.8 15.1 -16.8 18.05 -16.8 19.65 -14.35 L9.0 -13.4 M23.25 -9.9 L23.25 -9.9 24.3 -9.9 26.7 -12.6 Q25.85 -16.7 22.9 -19.1 19.9 -21.45 15.15 -21.45 9.65 -21.45 5.9 -18.65 1.8 -15.6 1.8 -10.4 1.8 -5.35 5.8 -2.5 9.3 0.05 14.6 0.05 22.45 0.05 27.15 -4.25 L23.25 -9.9" fill-rule="evenodd" stroke="none"/>
    </g>
    <g id="font_______W7_s0">
      <path d="M25.05 -6.35 L25.05 -6.35 Q25.05 -12.25 15.35 -13.65 8.7 -14.6 8.7 -15.7 8.7 -17.05 12.35 -17.05 17.1 -17.05 22.25 -14.8 L23.8 -18.2 Q19.05 -21.45 12.25 -21.45 8.55 -21.45 6.05 -20.35 2.6 -18.85 2.6 -15.7 2.6 -13.1 4.75 -11.8 6.5 -10.75 10.95 -10.05 L16.3 -8.95 Q17.8 -8.4 17.8 -7.5 17.8 -6.2 15.25 -6.2 12.3 -6.2 9.1 -7.45 5.9 -8.7 3.8 -10.65 L1.0 -2.6 Q6.45 0.05 14.3 0.05 25.05 0.05 25.05 -6.35" fill-rule="evenodd" stroke="none"/>
    </g>
    <g id="font_______W7__0">
      <path d="M12.1 -7.5 L12.1 -7.5 5.1 -8.35 3.35 0.05 13.7 -1.15 12.1 -7.5 M11.0 -31.5 L11.0 -31.5 6.15 -32.15 4.3 -10.7 13.2 -12.15 11.0 -31.5" fill-rule="evenodd" stroke="none"/>
    </g>
    <g id="font_______W7_I0">
      <path d="M11.8 -31.5 L11.8 -31.5 6.9 -32.15 4.15 0.05 14.65 -1.1 11.8 -31.5" fill-rule="evenodd" stroke="none"/>
    </g>
    <g id="font_______W7__2">
      <path d="M2.05 -32.15 L2.05 -32.15 3.65 -20.7 7.3 -20.7 8.95 -32.15 2.05 -32.15" fill-rule="evenodd" stroke="none"/>
    </g>
    <g id="font_______W7_m0">
      <path d="M35.35 -9.0 L35.35 -9.0 Q35.35 -21.45 27.8 -21.45 24.2 -21.45 21.15 -18.8 19.2 -21.45 15.65 -21.45 12.4 -21.45 9.45 -19.2 L9.25 -20.75 4.35 -21.45 2.05 0.05 11.95 -1.4 10.25 -13.85 Q12.25 -15.8 13.75 -15.8 16.4 -15.8 16.4 -11.2 16.4 -8.95 15.2 -5.8 L12.95 -0.75 22.1 0.1 Q23.3 -4.75 23.3 -9.55 23.3 -12.35 22.95 -14.3 24.5 -15.7 25.75 -15.7 28.25 -15.7 28.25 -11.2 28.25 -7.95 25.1 -0.65 L34.25 0.2 Q35.35 -4.25 35.35 -9.0" fill-rule="evenodd" stroke="none"/>
    </g>
    <g id="font_______W7_t0">
      <path d="M18.7 -12.2 L18.7 -12.2 Q17.0 -9.35 14.9 -9.35 11.95 -9.35 11.95 -15.4 L21.65 -15.4 20.1 -22.55 12.4 -21.45 Q12.75 -24.2 13.6 -27.95 L8.95 -28.85 Q7.75 -24.65 7.1 -20.75 L0.75 -19.9 1.75 -15.4 6.55 -15.4 6.5 -12.55 Q6.5 -6.8 7.75 -4.05 9.5 0.05 14.55 0.05 19.1 0.05 23.25 -4.15 L18.7 -12.2" fill-rule="evenodd" stroke="none"/>
    </g>
    <g id="font_______W7_h0">
      <path d="M28.1 -7.6 L28.1 -7.6 Q28.1 -13.7 25.7 -17.25 22.9 -21.45 17.05 -21.45 13.35 -21.45 10.45 -19.3 L9.3 -31.55 4.65 -32.15 2.05 0.05 12.1 -1.4 11.0 -12.9 Q13.45 -15.95 16.35 -15.95 20.1 -15.95 20.1 -10.2 20.1 -6.55 17.6 -1.55 L27.6 0.05 28.1 -7.6" fill-rule="evenodd" stroke="none"/>
    </g>
    <g id="font_______W7_a0">
      <path d="M19.05 -8.85 L19.05 -8.85 18.5 -5.05 17.1 -9.0 Q14.35 -6.2 10.6 -6.2 9.95 -6.2 9.45 -6.75 9.0 -7.2 9.0 -7.85 9.0 -10.2 13.7 -10.2 15.9 -10.2 19.05 -8.85 M27.4 -6.8 L27.4 -6.8 Q27.4 -21.45 13.35 -21.45 7.15 -21.45 2.55 -18.35 L4.3 -14.35 Q8.3 -16.55 13.15 -16.55 17.85 -16.55 18.85 -13.35 15.4 -14.5 12.8 -14.5 8.6 -14.5 5.6 -12.8 1.8 -10.75 1.8 -6.95 1.8 -3.5 4.9 -1.55 7.55 0.05 11.15 0.05 13.95 0.05 17.35 -0.95 L17.0 0.15 26.7 -0.3 Q27.4 -3.45 27.4 -6.8" fill-rule="evenodd" stroke="none"/>
    </g>
    <g id="font_______W7_n0">
      <path d="M27.0 -9.05 L27.0 -9.05 Q27.0 -14.5 24.65 -17.8 21.9 -21.45 16.6 -21.45 12.6 -21.45 9.45 -18.85 L9.2 -20.75 4.35 -21.45 2.05 0.05 11.95 -1.4 10.35 -12.55 Q12.95 -15.85 15.9 -15.85 19.4 -15.85 19.4 -10.6 19.4 -6.9 16.6 -1.3 L26.2 0.0 Q27.0 -6.5 27.0 -9.05" fill-rule="evenodd" stroke="none"/>
    </g>
  </defs>
</svg>
