<?xml version="1.0" encoding="UTF-8" standalone="no"?>
<svg xmlns:xlink="http://www.w3.org/1999/xlink" height="30.55px" width="189.75px" xmlns="http://www.w3.org/2000/svg">
  <g transform="matrix(1.0, 0.0, 0.0, 1.0, 93.5, -3.95)">
    <g transform="matrix(1.0, 0.0, 0.0, 1.0, -95.6, 0.0)">
      <use fill="#333333" height="30.55" transform="matrix(0.3125, 0.0, 0.0, 0.3125, 44.0, 14.0)" width="189.75" xlink:href="#font_______W7_W0"/>
      <use fill="#333333" height="30.55" transform="matrix(0.3125, 0.0, 0.0, 0.3125, 56.15, 14.0)" width="189.75" xlink:href="#font_______W7_h0"/>
      <use fill="#333333" height="30.55" transform="matrix(0.3125, 0.0, 0.0, 0.3125, 65.55, 14.0)" width="189.75" xlink:href="#font_______W7_a0"/>
      <use fill="#333333" height="30.55" transform="matrix(0.3125, 0.0, 0.0, 0.3125, 74.75, 14.0)" width="189.75" xlink:href="#font_______W7_t0"/>
      <use fill="#333333" height="30.55" transform="matrix(0.3125, 0.0, 0.0, 0.3125, 82.35, 14.0)" width="189.75" xlink:href="#font_______W7__0"/>
      <use fill="#333333" height="30.55" transform="matrix(0.3125, 0.0, 0.0, 0.3125, 85.8, 14.0)" width="189.75" xlink:href="#font_______W7_s0"/>
      <use fill="#333333" height="30.55" transform="matrix(0.3125, 0.0, 0.0, 0.3125, 99.45, 14.0)" width="189.75" xlink:href="#font_______W7_w0"/>
      <use fill="#333333" height="30.55" transform="matrix(0.3125, 0.0, 0.0, 0.3125, 109.35, 14.0)" width="189.75" xlink:href="#font_______W7_r0"/>
      <use fill="#333333" height="30.55" transform="matrix(0.3125, 0.0, 0.0, 0.3125, 115.3, 14.0)" width="189.75" xlink:href="#font_______W7_o0"/>
      <use fill="#333333" height="30.55" transform="matrix(0.3125, 0.0, 0.0, 0.3125, 123.9, 14.0)" width="189.75" xlink:href="#font_______W7_n0"/>
      <use fill="#333333" height="30.55" transform="matrix(0.3125, 0.0, 0.0, 0.3125, 133.0, 14.0)" width="189.75" xlink:href="#font_______W7_g0"/>
      <use fill="#333333" height="30.55" transform="matrix(0.3125, 0.0, 0.0, 0.3125, 141.85, 14.0)" width="189.75" xlink:href="#font_______W7__2"/>
    </g>
    <g transform="matrix(1.0, 0.0, 0.0, 1.0, -95.6, 0.0)">
      <use fill="#333333" height="30.55" transform="matrix(0.3125, 0.0, 0.0, 0.3125, 2.0, 33.0)" width="189.75" xlink:href="#font_______W7_Y0"/>
      <use fill="#333333" height="30.55" transform="matrix(0.3125, 0.0, 0.0, 0.3125, 12.65, 33.0)" width="189.75" xlink:href="#font_______W7_o0"/>
      <use fill="#333333" height="30.55" transform="matrix(0.3125, 0.0, 0.0, 0.3125, 21.25, 33.0)" width="189.75" xlink:href="#font_______W7_u0"/>
      <use fill="#333333" height="30.55" transform="matrix(0.3125, 0.0, 0.0, 0.3125, 35.6, 33.0)" width="189.75" xlink:href="#font_______W7_l0"/>
      <use fill="#333333" height="30.55" transform="matrix(0.3125, 0.0, 0.0, 0.3125, 41.45, 33.0)" width="189.75" xlink:href="#font_______W7_o0"/>
      <use fill="#333333" height="30.55" transform="matrix(0.3125, 0.0, 0.0, 0.3125, 50.05, 33.0)" width="189.75" xlink:href="#font_______W7_o0"/>
      <use fill="#333333" height="30.55" transform="matrix(0.3125, 0.0, 0.0, 0.3125, 58.65, 33.0)" width="189.75" xlink:href="#font_______W7_k0"/>
      <use fill="#333333" height="30.55" transform="matrix(0.3125, 0.0, 0.0, 0.3125, 73.2, 33.0)" width="189.75" xlink:href="#font_______W7_p0"/>
      <use fill="#333333" height="30.55" transform="matrix(0.3125, 0.0, 0.0, 0.3125, 82.45, 33.0)" width="189.75" xlink:href="#font_______W7_a0"/>
      <use fill="#333333" height="30.55" transform="matrix(0.3125, 0.0, 0.0, 0.3125, 91.65, 33.0)" width="189.75" xlink:href="#font_______W7_l0"/>
      <use fill="#333333" height="30.55" transform="matrix(0.3125, 0.0, 0.0, 0.3125, 97.5, 33.0)" width="189.75" xlink:href="#font_______W7_e0"/>
      <use fill="#333333" height="30.55" transform="matrix(0.3125, 0.0, 0.0, 0.3125, 111.8, 33.0)" width="189.75" xlink:href="#font_______W7_a0"/>
      <use fill="#333333" height="30.55" transform="matrix(0.3125, 0.0, 0.0, 0.3125, 121.0, 33.0)" width="189.75" xlink:href="#font_______W7_s0"/>
      <use fill="#333333" height="30.55" transform="matrix(0.3125, 0.0, 0.0, 0.3125, 134.65, 33.0)" width="189.75" xlink:href="#font_______W7_c0"/>
      <use fill="#333333" height="30.55" transform="matrix(0.3125, 0.0, 0.0, 0.3125, 143.25, 33.0)" width="189.75" xlink:href="#font_______W7_h0"/>
      <use fill="#333333" height="30.55" transform="matrix(0.3125, 0.0, 0.0, 0.3125, 152.65, 33.0)" width="189.75" xlink:href="#font_______W7_e0"/>
      <use fill="#333333" height="30.55" transform="matrix(0.3125, 0.0, 0.0, 0.3125, 161.6, 33.0)" width="189.75" xlink:href="#font_______W7_e0"/>
      <use fill="#333333" height="30.55" transform="matrix(0.3125, 0.0, 0.0, 0.3125, 170.55, 33.0)" width="189.75" xlink:href="#font_______W7_s0"/>
      <use fill="#333333" height="30.55" transform="matrix(0.3125, 0.0, 0.0, 0.3125, 178.85, 33.0)" width="189.75" xlink:href="#font_______W7_e0"/>
      <use fill="#333333" height="30.55" transform="matrix(0.3125, 0.0, 0.0, 0.3125, 187.8, 33.0)" width="189.75" xlink:href="#font_______W7_.0"/>
    </g>
  </g>
  <defs>
    <g id="font_______W7_W0">
      <path d="M28.3 -32.15 L28.3 -32.15 24.75 -12.15 19.6 -31.1 16.25 -31.9 11.5 -12.15 4.9 -31.75 0.75 -30.05 9.45 0.05 13.25 -0.35 17.85 -17.3 23.5 -0.05 27.1 -0.35 38.15 -28.15 28.3 -32.15" fill-rule="evenodd" stroke="none"/>
    </g>
    <g id="font_______W7_h0">
      <path d="M28.1 -7.6 L28.1 -7.6 Q28.1 -13.7 25.7 -17.25 22.9 -21.45 17.05 -21.45 13.35 -21.45 10.45 -19.3 L9.3 -31.55 4.65 -32.15 2.05 0.05 12.1 -1.4 11.0 -12.9 Q13.45 -15.95 16.35 -15.95 20.1 -15.95 20.1 -10.2 20.1 -6.55 17.6 -1.55 L27.6 0.05 28.1 -7.6" fill-rule="evenodd" stroke="none"/>
    </g>
    <g id="font_______W7_a0">
      <path d="M19.05 -8.85 L19.05 -8.85 18.5 -5.05 17.1 -9.0 Q14.35 -6.2 10.6 -6.2 9.95 -6.2 9.45 -6.75 9.0 -7.2 9.0 -7.85 9.0 -10.2 13.7 -10.2 15.9 -10.2 19.05 -8.85 M27.4 -6.8 L27.4 -6.8 Q27.4 -21.45 13.35 -21.45 7.15 -21.45 2.55 -18.35 L4.3 -14.35 Q8.3 -16.55 13.15 -16.55 17.85 -16.55 18.85 -13.35 15.4 -14.5 12.8 -14.5 8.6 -14.5 5.6 -12.8 1.8 -10.75 1.8 -6.95 1.8 -3.5 4.9 -1.55 7.55 0.05 11.15 0.05 13.95 0.05 17.35 -0.95 L17.0 0.15 26.7 -0.3 Q27.4 -3.45 27.4 -6.8" fill-rule="evenodd" stroke="none"/>
    </g>
    <g id="font_______W7_t0">
      <path d="M18.7 -12.2 L18.7 -12.2 Q17.0 -9.35 14.9 -9.35 11.95 -9.35 11.95 -15.4 L21.65 -15.4 20.1 -22.55 12.4 -21.45 Q12.75 -24.2 13.6 -27.95 L8.95 -28.85 Q7.75 -24.65 7.1 -20.75 L0.75 -19.9 1.75 -15.4 6.55 -15.4 6.5 -12.55 Q6.5 -6.8 7.75 -4.05 9.5 0.05 14.55 0.05 19.1 0.05 23.25 -4.15 L18.7 -12.2" fill-rule="evenodd" stroke="none"/>
    </g>
    <g id="font_______W7__0">
      <path d="M2.05 -32.15 L2.05 -32.15 3.65 -20.7 7.3 -20.7 8.95 -32.15 2.05 -32.15" fill-rule="evenodd" stroke="none"/>
    </g>
    <g id="font_______W7_s0">
      <path d="M25.05 -6.35 L25.05 -6.35 Q25.05 -12.25 15.35 -13.65 8.7 -14.6 8.7 -15.7 8.7 -17.05 12.35 -17.05 17.1 -17.05 22.25 -14.8 L23.8 -18.2 Q19.05 -21.45 12.25 -21.45 8.55 -21.45 6.05 -20.35 2.6 -18.85 2.6 -15.7 2.6 -13.1 4.75 -11.8 6.5 -10.75 10.95 -10.05 L16.3 -8.95 Q17.8 -8.4 17.8 -7.5 17.8 -6.2 15.25 -6.2 12.3 -6.2 9.1 -7.45 5.9 -8.7 3.8 -10.65 L1.0 -2.6 Q6.45 0.05 14.3 0.05 25.05 0.05 25.05 -6.35" fill-rule="evenodd" stroke="none"/>
    </g>
    <g id="font_______W7_w0">
      <path d="M23.1 -21.4 L23.1 -21.4 20.35 -10.05 16.6 -20.6 13.9 -21.45 9.35 -10.05 4.1 -21.35 0.5 -19.7 8.35 0.05 11.1 -0.5 14.9 -12.4 19.2 0.05 22.05 -0.55 31.2 -17.75 23.1 -21.4" fill-rule="evenodd" stroke="none"/>
    </g>
    <g id="font_______W7_r0">
      <path d="M18.3 -20.6 L18.3 -20.6 Q16.55 -21.45 14.75 -21.45 11.5 -21.45 8.7 -18.65 L8.45 -20.75 4.45 -21.45 2.55 0.05 10.65 -1.4 9.3 -12.8 Q10.55 -14.85 12.3 -14.85 13.25 -14.85 14.55 -13.85 L16.55 -12.05 18.3 -20.6" fill-rule="evenodd" stroke="none"/>
    </g>
    <g id="font_______W7_o0">
      <path d="M15.8 -13.5 L15.8 -13.5 Q16.45 -11.85 16.45 -10.4 16.45 -6.85 12.35 -6.85 10.6 -6.85 9.35 -8.05 8.15 -9.35 8.15 -11.05 8.15 -13.25 9.8 -14.6 11.4 -16.0 13.7 -16.0 16.1 -16.0 18.3 -14.3 L15.8 -13.5 M25.7 -11.4 L25.7 -11.4 Q25.7 -13.8 24.75 -16.35 L21.25 -15.25 22.7 -17.2 Q18.35 -21.45 13.15 -21.45 8.45 -21.45 5.1 -18.2 1.8 -14.95 1.8 -10.3 1.8 -5.5 5.4 -2.65 8.65 0.05 13.65 0.05 18.75 0.05 22.2 -3.2 25.7 -6.4 25.7 -11.4" fill-rule="evenodd" stroke="none"/>
    </g>
    <g id="font_______W7_n0">
      <path d="M27.0 -9.05 L27.0 -9.05 Q27.0 -14.5 24.65 -17.8 21.9 -21.45 16.6 -21.45 12.6 -21.45 9.45 -18.85 L9.2 -20.75 4.35 -21.45 2.05 0.05 11.95 -1.4 10.35 -12.55 Q12.95 -15.85 15.9 -15.85 19.4 -15.85 19.4 -10.6 19.4 -6.9 16.6 -1.3 L26.2 0.0 Q27.0 -6.5 27.0 -9.05" fill-rule="evenodd" stroke="none"/>
    </g>
    <g id="font_______W7_g0">
      <path d="M21.25 -12.75 L21.25 -12.75 21.05 -10.5 18.9 -14.7 Q15.2 -11.7 11.9 -11.7 10.85 -11.7 10.0 -12.55 9.05 -13.45 9.05 -14.45 9.05 -16.75 13.35 -16.75 15.6 -16.75 18.05 -15.7 20.3 -14.7 21.2 -13.55 L21.25 -12.75 M26.3 -10.4 L26.3 -10.4 Q26.3 -15.45 24.2 -21.5 L20.0 -20.3 20.3 -19.15 Q16.35 -21.45 12.1 -21.45 8.15 -21.45 5.4 -19.3 2.35 -16.95 2.35 -13.2 2.35 -9.45 5.85 -7.35 8.8 -5.6 12.75 -5.6 16.55 -5.6 19.75 -6.9 17.8 -3.95 13.25 -3.95 8.55 -3.95 4.75 -6.35 L1.8 2.9 Q6.7 4.75 11.2 4.75 18.25 4.75 22.25 0.65 26.3 -3.4 26.3 -10.4" fill-rule="evenodd" stroke="none"/>
    </g>
    <g id="font_______W7__2">
      <path d="M18.0 -7.5 L18.0 -7.5 11.05 -8.35 9.25 0.05 19.65 -1.15 18.0 -7.5 M25.9 -23.4 L25.9 -23.4 Q25.9 -27.15 22.35 -29.75 19.1 -32.15 15.25 -32.15 11.55 -32.15 8.2 -30.2 4.75 -28.2 3.05 -24.95 L6.75 -22.1 Q8.45 -24.7 10.4 -25.75 12.35 -26.9 15.25 -26.9 17.05 -26.9 18.1 -26.1 19.15 -25.2 19.15 -23.9 19.15 -22.5 16.75 -20.8 L12.25 -17.5 Q9.85 -15.05 9.85 -11.95 L10.0 -10.0 19.45 -11.25 Q18.95 -12.45 18.95 -13.45 18.95 -15.35 20.75 -16.9 L24.1 -19.6 Q25.9 -21.25 25.9 -23.4" fill-rule="evenodd" stroke="none"/>
    </g>
    <g id="font_______W7_Y0">
      <path d="M25.5 -32.15 L25.5 -32.15 15.75 -18.05 5.15 -31.95 0.75 -29.2 12.5 -12.7 10.15 0.05 21.35 -1.4 18.8 -12.8 33.25 -26.05 25.5 -32.15" fill-rule="evenodd" stroke="none"/>
    </g>
    <g id="font_______W7_u0">
      <path d="M24.1 -20.75 L24.1 -20.75 19.25 -21.45 17.9 -8.95 16.15 -11.65 Q13.35 -8.1 10.6 -8.1 9.0 -8.1 8.15 -9.4 7.25 -10.65 7.25 -12.3 7.25 -15.75 8.6 -19.75 L3.9 -21.15 Q2.05 -16.35 2.05 -11.4 2.05 -6.45 4.25 -3.4 6.75 0.05 11.5 0.05 14.55 0.05 17.1 -1.5 L16.95 0.1 26.8 -1.35 24.1 -20.75" fill-rule="evenodd" stroke="none"/>
    </g>
    <g id="font_______W7_l0">
      <path d="M11.6 -31.5 L11.6 -31.5 6.9 -32.15 4.35 0.05 14.4 -1.4 11.6 -31.5" fill-rule="evenodd" stroke="none"/>
    </g>
    <g id="font_______W7_k0">
      <path d="M20.35 -12.2 L20.35 -12.2 26.9 -17.9 24.8 -21.8 10.85 -14.65 9.3 -31.45 4.6 -32.15 2.05 0.05 12.1 -1.4 11.35 -9.1 13.25 -6.05 15.8 -8.25 22.05 0.25 28.6 -6.95 20.35 -12.2" fill-rule="evenodd" stroke="none"/>
    </g>
    <g id="font_______W7_p0">
      <path d="M20.7 -12.7 L20.7 -12.7 Q20.7 -9.3 17.35 -9.3 14.95 -9.3 12.7 -12.0 L10.6 -8.4 10.05 -13.4 Q12.6 -16.55 16.2 -16.55 18.05 -16.55 19.35 -15.55 20.7 -14.5 20.7 -12.7 M27.8 -10.85 L27.8 -10.85 Q27.8 -15.55 24.6 -18.5 21.4 -21.45 16.7 -21.45 12.55 -21.45 9.35 -19.15 L9.2 -20.75 4.35 -21.45 2.05 4.75 11.95 3.3 11.35 -1.45 Q14.35 0.05 17.2 0.05 21.85 0.05 24.85 -3.05 27.8 -6.15 27.8 -10.85" fill-rule="evenodd" stroke="none"/>
    </g>
    <g id="font_______W7_e0">
      <path d="M19.45 -9.9 L19.45 -9.9 Q16.75 -7.55 13.6 -7.55 10.45 -7.55 9.15 -9.9 L19.45 -9.9 M9.0 -13.4 L9.0 -13.4 Q9.7 -14.95 11.5 -15.95 13.2 -16.8 15.1 -16.8 18.05 -16.8 19.65 -14.35 L9.0 -13.4 M23.25 -9.9 L23.25 -9.9 24.3 -9.9 26.7 -12.6 Q25.85 -16.7 22.9 -19.1 19.9 -21.45 15.15 -21.45 9.65 -21.45 5.9 -18.65 1.8 -15.6 1.8 -10.4 1.8 -5.35 5.8 -2.5 9.3 0.05 14.6 0.05 22.45 0.05 27.15 -4.25 L23.25 -9.9" fill-rule="evenodd" stroke="none"/>
    </g>
    <g id="font_______W7_c0">
      <path d="M21.35 -12.5 L21.35 -12.5 Q19.95 -10.5 17.75 -9.15 15.35 -7.6 13.15 -7.6 11.4 -7.6 10.2 -8.85 8.9 -10.05 8.9 -11.8 8.9 -14.1 10.65 -15.4 12.2 -16.55 14.55 -16.55 18.9 -16.55 21.9 -13.7 L24.4 -17.55 Q19.65 -21.45 13.1 -21.45 8.05 -21.45 4.9 -18.4 1.8 -15.3 1.8 -10.3 1.8 -5.6 5.7 -2.65 9.25 0.05 14.1 0.05 17.2 0.05 20.45 -1.1 24.05 -2.3 25.9 -4.4 L21.35 -12.5" fill-rule="evenodd" stroke="none"/>
    </g>
    <g id="font_______W7_.0">
      <path d="M11.9 -7.35 L11.9 -7.35 4.9 -8.2 3.1 1.2 13.5 0.0 11.9 -7.35" fill-rule="evenodd" stroke="none"/>
    </g>
  </defs>
</svg>
