<?xml version="1.0" encoding="UTF-8" standalone="no"?>
<svg xmlns:xlink="http://www.w3.org/1999/xlink" height="11.55px" width="172.15px" xmlns="http://www.w3.org/2000/svg">
  <g transform="matrix(1.0, 0.0, 0.0, 1.0, 29.85, -3.95)">
    <g transform="matrix(1.0, 0.0, 0.0, 1.0, -31.25, 0.0)">
      <use fill="#333333" height="11.55" transform="matrix(0.3125, 0.0, 0.0, 0.3125, 0.0, 14.0)" width="172.15" xlink:href="#font_______W7_I0"/>
      <use fill="#333333" height="11.55" transform="matrix(0.3125, 0.0, 0.0, 0.3125, 5.85, 14.0)" width="172.15" xlink:href="#font_______W7__0"/>
      <use fill="#333333" height="11.55" transform="matrix(0.3125, 0.0, 0.0, 0.3125, 9.3, 14.0)" width="172.15" xlink:href="#font_______W7_m0"/>
      <use fill="#333333" height="11.55" transform="matrix(0.3125, 0.0, 0.0, 0.3125, 26.35, 14.0)" width="172.15" xlink:href="#font_______W7_g0"/>
      <use fill="#333333" height="11.55" transform="matrix(0.3125, 0.0, 0.0, 0.3125, 35.2, 14.0)" width="172.15" xlink:href="#font_______W7_o0"/>
      <use fill="#333333" height="11.55" transform="matrix(0.3125, 0.0, 0.0, 0.3125, 43.8, 14.0)" width="172.15" xlink:href="#font_______W7_n0"/>
      <use fill="#333333" height="11.55" transform="matrix(0.3125, 0.0, 0.0, 0.3125, 52.9, 14.0)" width="172.15" xlink:href="#font_______W7_n0"/>
      <use fill="#333333" height="11.55" transform="matrix(0.3125, 0.0, 0.0, 0.3125, 62.0, 14.0)" width="172.15" xlink:href="#font_______W7_a0"/>
      <use fill="#333333" height="11.55" transform="matrix(0.3125, 0.0, 0.0, 0.3125, 76.55, 14.0)" width="172.15" xlink:href="#font_______W7_s0"/>
      <use fill="#333333" height="11.55" transform="matrix(0.3125, 0.0, 0.0, 0.3125, 84.85, 14.0)" width="172.15" xlink:href="#font_______W7_q0"/>
      <use fill="#333333" height="11.55" transform="matrix(0.3125, 0.0, 0.0, 0.3125, 94.15, 14.0)" width="172.15" xlink:href="#font_______W7_u0"/>
      <use fill="#333333" height="11.55" transform="matrix(0.3125, 0.0, 0.0, 0.3125, 103.15, 14.0)" width="172.15" xlink:href="#font_______W7_e0"/>
      <use fill="#333333" height="11.55" transform="matrix(0.3125, 0.0, 0.0, 0.3125, 112.1, 14.0)" width="172.15" xlink:href="#font_______W7_e0"/>
      <use fill="#333333" height="11.55" transform="matrix(0.3125, 0.0, 0.0, 0.3125, 121.05, 14.0)" width="172.15" xlink:href="#font_______W7_z0"/>
      <use fill="#333333" height="11.55" transform="matrix(0.3125, 0.0, 0.0, 0.3125, 129.35, 14.0)" width="172.15" xlink:href="#font_______W7_e0"/>
      <use fill="#333333" height="11.55" transform="matrix(0.3125, 0.0, 0.0, 0.3125, 143.65, 14.0)" width="172.15" xlink:href="#font_______W7_y0"/>
      <use fill="#333333" height="11.55" transform="matrix(0.3125, 0.0, 0.0, 0.3125, 151.55, 14.0)" width="172.15" xlink:href="#font_______W7_o0"/>
      <use fill="#333333" height="11.55" transform="matrix(0.3125, 0.0, 0.0, 0.3125, 160.15, 14.0)" width="172.15" xlink:href="#font_______W7_u0"/>
      <use fill="#333333" height="11.55" transform="matrix(0.3125, 0.0, 0.0, 0.3125, 169.15, 14.0)" width="172.15" xlink:href="#font_______W7__2"/>
    </g>
  </g>
  <defs>
    <g id="font_______W7_I0">
      <path d="M11.8 -31.5 L11.8 -31.5 6.9 -32.15 4.15 0.05 14.65 -1.1 11.8 -31.5" fill-rule="evenodd" stroke="none"/>
    </g>
    <g id="font_______W7__0">
      <path d="M2.05 -32.15 L2.05 -32.15 3.65 -20.7 7.3 -20.7 8.95 -32.15 2.05 -32.15" fill-rule="evenodd" stroke="none"/>
    </g>
    <g id="font_______W7_m0">
      <path d="M35.35 -9.0 L35.35 -9.0 Q35.35 -21.45 27.8 -21.45 24.2 -21.45 21.15 -18.8 19.2 -21.45 15.65 -21.45 12.4 -21.45 9.45 -19.2 L9.25 -20.75 4.35 -21.45 2.05 0.05 11.95 -1.4 10.25 -13.85 Q12.25 -15.8 13.75 -15.8 16.4 -15.8 16.4 -11.2 16.4 -8.95 15.2 -5.8 L12.95 -0.75 22.1 0.1 Q23.3 -4.75 23.3 -9.55 23.3 -12.35 22.95 -14.3 24.5 -15.7 25.75 -15.7 28.25 -15.7 28.25 -11.2 28.25 -7.95 25.1 -0.65 L34.25 0.2 Q35.35 -4.25 35.35 -9.0" fill-rule="evenodd" stroke="none"/>
    </g>
    <g id="font_______W7_g0">
      <path d="M21.25 -12.75 L21.25 -12.75 21.05 -10.5 18.9 -14.7 Q15.2 -11.7 11.9 -11.7 10.85 -11.7 10.0 -12.55 9.05 -13.45 9.05 -14.45 9.05 -16.75 13.35 -16.75 15.6 -16.75 18.05 -15.7 20.3 -14.7 21.2 -13.55 L21.25 -12.75 M26.3 -10.4 L26.3 -10.4 Q26.3 -15.45 24.2 -21.5 L20.0 -20.3 20.3 -19.15 Q16.35 -21.45 12.1 -21.45 8.15 -21.45 5.4 -19.3 2.35 -16.95 2.35 -13.2 2.35 -9.45 5.85 -7.35 8.8 -5.6 12.75 -5.6 16.55 -5.6 19.75 -6.9 17.8 -3.95 13.25 -3.95 8.55 -3.95 4.75 -6.35 L1.8 2.9 Q6.7 4.75 11.2 4.75 18.25 4.75 22.25 0.65 26.3 -3.4 26.3 -10.4" fill-rule="evenodd" stroke="none"/>
    </g>
    <g id="font_______W7_o0">
      <path d="M15.8 -13.5 L15.8 -13.5 Q16.45 -11.85 16.45 -10.4 16.45 -6.85 12.35 -6.85 10.6 -6.85 9.35 -8.05 8.15 -9.35 8.15 -11.05 8.15 -13.25 9.8 -14.6 11.4 -16.0 13.7 -16.0 16.1 -16.0 18.3 -14.3 L15.8 -13.5 M25.7 -11.4 L25.7 -11.4 Q25.7 -13.8 24.75 -16.35 L21.25 -15.25 22.7 -17.2 Q18.35 -21.45 13.15 -21.45 8.45 -21.45 5.1 -18.2 1.8 -14.95 1.8 -10.3 1.8 -5.5 5.4 -2.65 8.65 0.05 13.65 0.05 18.75 0.05 22.2 -3.2 25.7 -6.4 25.7 -11.4" fill-rule="evenodd" stroke="none"/>
    </g>
    <g id="font_______W7_n0">
      <path d="M27.0 -9.05 L27.0 -9.05 Q27.0 -14.5 24.65 -17.8 21.9 -21.45 16.6 -21.45 12.6 -21.45 9.45 -18.85 L9.2 -20.75 4.35 -21.45 2.05 0.05 11.95 -1.4 10.35 -12.55 Q12.95 -15.85 15.9 -15.85 19.4 -15.85 19.4 -10.6 19.4 -6.9 16.6 -1.3 L26.2 0.0 Q27.0 -6.5 27.0 -9.05" fill-rule="evenodd" stroke="none"/>
    </g>
    <g id="font_______W7_a0">
      <path d="M19.05 -8.85 L19.05 -8.85 18.5 -5.05 17.1 -9.0 Q14.35 -6.2 10.6 -6.2 9.95 -6.2 9.45 -6.75 9.0 -7.2 9.0 -7.85 9.0 -10.2 13.7 -10.2 15.9 -10.2 19.05 -8.85 M27.4 -6.8 L27.4 -6.8 Q27.4 -21.45 13.35 -21.45 7.15 -21.45 2.55 -18.35 L4.3 -14.35 Q8.3 -16.55 13.15 -16.55 17.85 -16.55 18.85 -13.35 15.4 -14.5 12.8 -14.5 8.6 -14.5 5.6 -12.8 1.8 -10.75 1.8 -6.95 1.8 -3.5 4.9 -1.55 7.55 0.05 11.15 0.05 13.95 0.05 17.35 -0.95 L17.0 0.15 26.7 -0.3 Q27.4 -3.45 27.4 -6.8" fill-rule="evenodd" stroke="none"/>
    </g>
    <g id="font_______W7_s0">
      <path d="M25.05 -6.35 L25.05 -6.35 Q25.05 -12.25 15.35 -13.65 8.7 -14.6 8.7 -15.7 8.7 -17.05 12.35 -17.05 17.1 -17.05 22.25 -14.8 L23.8 -18.2 Q19.05 -21.45 12.25 -21.45 8.55 -21.45 6.05 -20.35 2.6 -18.85 2.6 -15.7 2.6 -13.1 4.75 -11.8 6.5 -10.75 10.95 -10.05 L16.3 -8.95 Q17.8 -8.4 17.8 -7.5 17.8 -6.2 15.25 -6.2 12.3 -6.2 9.1 -7.45 5.9 -8.7 3.8 -10.65 L1.0 -2.6 Q6.45 0.05 14.3 0.05 25.05 0.05 25.05 -6.35" fill-rule="evenodd" stroke="none"/>
    </g>
    <g id="font_______W7_q0">
      <path d="M18.95 -8.4 L18.95 -8.4 16.9 -11.85 Q14.75 -9.3 12.25 -9.3 10.8 -9.3 9.9 -10.2 8.95 -11.1 8.95 -12.55 8.95 -14.35 10.3 -15.45 11.55 -16.45 13.4 -16.45 16.85 -16.45 19.35 -13.5 L18.95 -8.4 M25.0 -20.75 L25.0 -20.75 20.05 -21.45 19.85 -19.25 Q16.7 -21.45 12.8 -21.45 8.15 -21.45 4.95 -18.4 1.8 -15.4 1.8 -10.7 1.8 -6.0 4.75 -3.0 7.75 0.05 12.4 0.05 15.35 0.05 18.35 -1.4 L17.75 4.75 27.65 3.3 25.0 -20.75" fill-rule="evenodd" stroke="none"/>
    </g>
    <g id="font_______W7_u0">
      <path d="M24.1 -20.75 L24.1 -20.75 19.25 -21.45 17.9 -8.95 16.15 -11.65 Q13.35 -8.1 10.6 -8.1 9.0 -8.1 8.15 -9.4 7.25 -10.65 7.25 -12.3 7.25 -15.75 8.6 -19.75 L3.9 -21.15 Q2.05 -16.35 2.05 -11.4 2.05 -6.45 4.25 -3.4 6.75 0.05 11.5 0.05 14.55 0.05 17.1 -1.5 L16.95 0.1 26.8 -1.35 24.1 -20.75" fill-rule="evenodd" stroke="none"/>
    </g>
    <g id="font_______W7_e0">
      <path d="M19.45 -9.9 L19.45 -9.9 Q16.75 -7.55 13.6 -7.55 10.45 -7.55 9.15 -9.9 L19.45 -9.9 M9.0 -13.4 L9.0 -13.4 Q9.7 -14.95 11.5 -15.95 13.2 -16.8 15.1 -16.8 18.05 -16.8 19.65 -14.35 L9.0 -13.4 M23.25 -9.9 L23.25 -9.9 24.3 -9.9 26.7 -12.6 Q25.85 -16.7 22.9 -19.1 19.9 -21.45 15.15 -21.45 9.65 -21.45 5.9 -18.65 1.8 -15.6 1.8 -10.4 1.8 -5.35 5.8 -2.5 9.3 0.05 14.6 0.05 22.45 0.05 27.15 -4.25 L23.25 -9.9" fill-rule="evenodd" stroke="none"/>
    </g>
    <g id="font_______W7_z0">
      <path d="M24.1 -8.45 L24.1 -8.45 10.25 -5.15 23.6 -18.1 22.05 -21.25 1.6 -20.05 2.3 -16.15 15.5 -15.5 1.0 -3.4 1.95 -0.5 25.55 -0.45 24.1 -8.45" fill-rule="evenodd" stroke="none"/>
    </g>
    <g id="font_______W7_y0">
      <path d="M21.2 -21.45 L21.2 -21.45 13.15 -10.8 3.65 -21.45 0.5 -19.75 8.5 -4.7 4.3 0.85 12.5 4.75 24.85 -19.65 21.2 -21.45" fill-rule="evenodd" stroke="none"/>
    </g>
    <g id="font_______W7__2">
      <path d="M12.1 -7.5 L12.1 -7.5 5.1 -8.35 3.35 0.05 13.7 -1.15 12.1 -7.5 M11.0 -31.5 L11.0 -31.5 6.15 -32.15 4.3 -10.7 13.2 -12.15 11.0 -31.5" fill-rule="evenodd" stroke="none"/>
    </g>
  </defs>
</svg>
