<?xml version="1.0" encoding="UTF-8" standalone="no"?>
<svg xmlns:xlink="http://www.w3.org/1999/xlink" height="31.55px" width="126.0px" xmlns="http://www.w3.org/2000/svg">
  <g transform="matrix(1.0, 0.0, 0.0, 1.0, 66.15, -3.95)">
    <g transform="matrix(1.0, 0.0, 0.0, 1.0, -67.9, 0.0)">
      <use fill="#333333" height="31.55" transform="matrix(0.3125, 0.0, 0.0, 0.3125, 8.0, 14.0)" width="126.0" xlink:href="#font_______W7_T0"/>
      <use fill="#333333" height="31.55" transform="matrix(0.3125, 0.0, 0.0, 0.3125, 18.35, 14.0)" width="126.0" xlink:href="#font_______W7_i0"/>
      <use fill="#333333" height="31.55" transform="matrix(0.3125, 0.0, 0.0, 0.3125, 24.2, 14.0)" width="126.0" xlink:href="#font_______W7_m0"/>
      <use fill="#333333" height="31.55" transform="matrix(0.3125, 0.0, 0.0, 0.3125, 35.9, 14.0)" width="126.0" xlink:href="#font_______W7_e0"/>
      <use fill="#333333" height="31.55" transform="matrix(0.3125, 0.0, 0.0, 0.3125, 50.2, 14.0)" width="126.0" xlink:href="#font_______W7_f0"/>
      <use fill="#333333" height="31.55" transform="matrix(0.3125, 0.0, 0.0, 0.3125, 56.0, 14.0)" width="126.0" xlink:href="#font_______W7_o0"/>
      <use fill="#333333" height="31.55" transform="matrix(0.3125, 0.0, 0.0, 0.3125, 64.6, 14.0)" width="126.0" xlink:href="#font_______W7_r0"/>
      <use fill="#333333" height="31.55" transform="matrix(0.3125, 0.0, 0.0, 0.3125, 75.9, 14.0)" width="126.0" xlink:href="#font_______W7_y0"/>
      <use fill="#333333" height="31.55" transform="matrix(0.3125, 0.0, 0.0, 0.3125, 83.8, 14.0)" width="126.0" xlink:href="#font_______W7_o0"/>
      <use fill="#333333" height="31.55" transform="matrix(0.3125, 0.0, 0.0, 0.3125, 92.4, 14.0)" width="126.0" xlink:href="#font_______W7_u0"/>
      <use fill="#333333" height="31.55" transform="matrix(0.3125, 0.0, 0.0, 0.3125, 106.75, 14.0)" width="126.0" xlink:href="#font_______W7_t0"/>
      <use fill="#333333" height="31.55" transform="matrix(0.3125, 0.0, 0.0, 0.3125, 114.35, 14.0)" width="126.0" xlink:href="#font_______W7_o0"/>
    </g>
    <g transform="matrix(1.0, 0.0, 0.0, 1.0, -67.9, 0.0)">
      <use fill="#333333" height="31.55" transform="matrix(0.3125, 0.0, 0.0, 0.3125, 1.0, 34.0)" width="126.0" xlink:href="#font_______W7_g0"/>
      <use fill="#333333" height="31.55" transform="matrix(0.3125, 0.0, 0.0, 0.3125, 9.85, 34.0)" width="126.0" xlink:href="#font_______W7_o0"/>
      <use fill="#333333" height="31.55" transform="matrix(0.3125, 0.0, 0.0, 0.3125, 23.8, 34.0)" width="126.0" xlink:href="#font_______W7_w0"/>
      <use fill="#333333" height="31.55" transform="matrix(0.3125, 0.0, 0.0, 0.3125, 33.7, 34.0)" width="126.0" xlink:href="#font_______W7_i0"/>
      <use fill="#333333" height="31.55" transform="matrix(0.3125, 0.0, 0.0, 0.3125, 39.55, 34.0)" width="126.0" xlink:href="#font_______W7_t0"/>
      <use fill="#333333" height="31.55" transform="matrix(0.3125, 0.0, 0.0, 0.3125, 47.15, 34.0)" width="126.0" xlink:href="#font_______W7_h0"/>
      <use fill="#333333" height="31.55" transform="matrix(0.3125, 0.0, 0.0, 0.3125, 61.9, 34.0)" width="126.0" xlink:href="#font_______W7_t0"/>
      <use fill="#333333" height="31.55" transform="matrix(0.3125, 0.0, 0.0, 0.3125, 69.5, 34.0)" width="126.0" xlink:href="#font_______W7_h0"/>
      <use fill="#333333" height="31.55" transform="matrix(0.3125, 0.0, 0.0, 0.3125, 78.9, 34.0)" width="126.0" xlink:href="#font_______W7_e0"/>
      <use fill="#333333" height="31.55" transform="matrix(0.3125, 0.0, 0.0, 0.3125, 93.2, 34.0)" width="126.0" xlink:href="#font_______W7_f0"/>
      <use fill="#333333" height="31.55" transform="matrix(0.3125, 0.0, 0.0, 0.3125, 99.0, 34.0)" width="126.0" xlink:href="#font_______W7_l0"/>
      <use fill="#333333" height="31.55" transform="matrix(0.3125, 0.0, 0.0, 0.3125, 104.85, 34.0)" width="126.0" xlink:href="#font_______W7_o0"/>
      <use fill="#333333" height="31.55" transform="matrix(0.3125, 0.0, 0.0, 0.3125, 113.45, 34.0)" width="126.0" xlink:href="#font_______W7_w0"/>
      <use fill="#333333" height="31.55" transform="matrix(0.3125, 0.0, 0.0, 0.3125, 123.35, 34.0)" width="126.0" xlink:href="#font_______W7_.0"/>
    </g>
  </g>
  <defs>
    <g id="font_______W7_T0">
      <path d="M30.8 -32.15 L30.8 -32.15 0.75 -29.4 1.85 -24.25 13.45 -24.25 11.0 0.05 21.6 -1.1 18.95 -24.25 32.35 -24.25 30.8 -32.15" fill-rule="evenodd" stroke="none"/>
    </g>
    <g id="font_______W7_i0">
      <path d="M11.6 -20.75 L11.6 -20.75 6.75 -21.45 4.45 0.05 14.3 -1.4 11.6 -20.75 M11.9 -31.5 L11.9 -31.5 6.5 -32.15 4.9 -24.95 13.2 -26.1 11.9 -31.5" fill-rule="evenodd" stroke="none"/>
    </g>
    <g id="font_______W7_m0">
      <path d="M35.35 -9.0 L35.35 -9.0 Q35.35 -21.45 27.8 -21.45 24.2 -21.45 21.15 -18.8 19.2 -21.45 15.65 -21.45 12.4 -21.45 9.45 -19.2 L9.25 -20.75 4.35 -21.45 2.05 0.05 11.95 -1.4 10.25 -13.85 Q12.25 -15.8 13.75 -15.8 16.4 -15.8 16.4 -11.2 16.4 -8.95 15.2 -5.8 L12.95 -0.75 22.1 0.1 Q23.3 -4.75 23.3 -9.55 23.3 -12.35 22.95 -14.3 24.5 -15.7 25.75 -15.7 28.25 -15.7 28.25 -11.2 28.25 -7.95 25.1 -0.65 L34.25 0.2 Q35.35 -4.25 35.35 -9.0" fill-rule="evenodd" stroke="none"/>
    </g>
    <g id="font_______W7_e0">
      <path d="M19.45 -9.9 L19.45 -9.9 Q16.75 -7.55 13.6 -7.55 10.45 -7.55 9.15 -9.9 L19.45 -9.9 M9.0 -13.4 L9.0 -13.4 Q9.7 -14.95 11.5 -15.95 13.2 -16.8 15.1 -16.8 18.05 -16.8 19.65 -14.35 L9.0 -13.4 M23.25 -9.9 L23.25 -9.9 24.3 -9.9 26.7 -12.6 Q25.85 -16.7 22.9 -19.1 19.9 -21.45 15.15 -21.45 9.65 -21.45 5.9 -18.65 1.8 -15.6 1.8 -10.4 1.8 -5.35 5.8 -2.5 9.3 0.05 14.6 0.05 22.45 0.05 27.15 -4.25 L23.25 -9.9" fill-rule="evenodd" stroke="none"/>
    </g>
    <g id="font_______W7_f0">
      <path d="M16.3 -23.5 L16.3 -23.5 11.45 -22.7 Q11.8 -25.5 12.65 -26.6 13.65 -27.85 16.3 -27.85 L17.0 -27.85 16.25 -32.0 14.1 -32.15 Q5.9 -32.15 5.05 -21.65 L1.3 -20.95 2.15 -16.7 4.55 -16.7 Q4.1 -5.65 4.1 -0.95 L13.95 0.05 Q11.85 -9.65 11.45 -16.65 L17.3 -16.6 16.3 -23.5" fill-rule="evenodd" stroke="none"/>
    </g>
    <g id="font_______W7_o0">
      <path d="M15.8 -13.5 L15.8 -13.5 Q16.45 -11.85 16.45 -10.4 16.45 -6.85 12.35 -6.85 10.6 -6.85 9.35 -8.05 8.15 -9.35 8.15 -11.05 8.15 -13.25 9.8 -14.6 11.4 -16.0 13.7 -16.0 16.1 -16.0 18.3 -14.3 L15.8 -13.5 M25.7 -11.4 L25.7 -11.4 Q25.7 -13.8 24.75 -16.35 L21.25 -15.25 22.7 -17.2 Q18.35 -21.45 13.15 -21.45 8.45 -21.45 5.1 -18.2 1.8 -14.95 1.8 -10.3 1.8 -5.5 5.4 -2.65 8.65 0.05 13.65 0.05 18.75 0.05 22.2 -3.2 25.7 -6.4 25.7 -11.4" fill-rule="evenodd" stroke="none"/>
    </g>
    <g id="font_______W7_r0">
      <path d="M18.3 -20.6 L18.3 -20.6 Q16.55 -21.45 14.75 -21.45 11.5 -21.45 8.7 -18.65 L8.45 -20.75 4.45 -21.45 2.55 0.05 10.65 -1.4 9.3 -12.8 Q10.55 -14.85 12.3 -14.85 13.25 -14.85 14.55 -13.85 L16.55 -12.05 18.3 -20.6" fill-rule="evenodd" stroke="none"/>
    </g>
    <g id="font_______W7_y0">
      <path d="M21.2 -21.45 L21.2 -21.45 13.15 -10.8 3.65 -21.45 0.5 -19.75 8.5 -4.7 4.3 0.85 12.5 4.75 24.85 -19.65 21.2 -21.45" fill-rule="evenodd" stroke="none"/>
    </g>
    <g id="font_______W7_u0">
      <path d="M24.1 -20.75 L24.1 -20.75 19.25 -21.45 17.9 -8.95 16.15 -11.65 Q13.35 -8.1 10.6 -8.1 9.0 -8.1 8.15 -9.4 7.25 -10.65 7.25 -12.3 7.25 -15.75 8.6 -19.75 L3.9 -21.15 Q2.05 -16.35 2.05 -11.4 2.05 -6.45 4.25 -3.4 6.75 0.05 11.5 0.05 14.55 0.05 17.1 -1.5 L16.95 0.1 26.8 -1.35 24.1 -20.75" fill-rule="evenodd" stroke="none"/>
    </g>
    <g id="font_______W7_t0">
      <path d="M18.7 -12.2 L18.7 -12.2 Q17.0 -9.35 14.9 -9.35 11.95 -9.35 11.95 -15.4 L21.65 -15.4 20.1 -22.55 12.4 -21.45 Q12.75 -24.2 13.6 -27.95 L8.95 -28.85 Q7.75 -24.65 7.1 -20.75 L0.75 -19.9 1.75 -15.4 6.55 -15.4 6.5 -12.55 Q6.5 -6.8 7.75 -4.05 9.5 0.05 14.55 0.05 19.1 0.05 23.25 -4.15 L18.7 -12.2" fill-rule="evenodd" stroke="none"/>
    </g>
    <g id="font_______W7_g0">
      <path d="M21.25 -12.75 L21.25 -12.75 21.05 -10.5 18.9 -14.7 Q15.2 -11.7 11.9 -11.7 10.85 -11.7 10.0 -12.55 9.05 -13.45 9.05 -14.45 9.05 -16.75 13.35 -16.75 15.6 -16.75 18.05 -15.7 20.3 -14.7 21.2 -13.55 L21.25 -12.75 M26.3 -10.4 L26.3 -10.4 Q26.3 -15.45 24.2 -21.5 L20.0 -20.3 20.3 -19.15 Q16.35 -21.45 12.1 -21.45 8.15 -21.45 5.4 -19.3 2.35 -16.95 2.35 -13.2 2.35 -9.45 5.85 -7.35 8.8 -5.6 12.75 -5.6 16.55 -5.6 19.75 -6.9 17.8 -3.95 13.25 -3.95 8.55 -3.95 4.75 -6.35 L1.8 2.9 Q6.7 4.75 11.2 4.75 18.25 4.75 22.25 0.65 26.3 -3.4 26.3 -10.4" fill-rule="evenodd" stroke="none"/>
    </g>
    <g id="font_______W7_w0">
      <path d="M23.1 -21.4 L23.1 -21.4 20.35 -10.05 16.6 -20.6 13.9 -21.45 9.35 -10.05 4.1 -21.35 0.5 -19.7 8.35 0.05 11.1 -0.5 14.9 -12.4 19.2 0.05 22.05 -0.55 31.2 -17.75 23.1 -21.4" fill-rule="evenodd" stroke="none"/>
    </g>
    <g id="font_______W7_h0">
      <path d="M28.1 -7.6 L28.1 -7.6 Q28.1 -13.7 25.7 -17.25 22.9 -21.45 17.05 -21.45 13.35 -21.45 10.45 -19.3 L9.3 -31.55 4.65 -32.15 2.05 0.05 12.1 -1.4 11.0 -12.9 Q13.45 -15.95 16.35 -15.95 20.1 -15.95 20.1 -10.2 20.1 -6.55 17.6 -1.55 L27.6 0.05 28.1 -7.6" fill-rule="evenodd" stroke="none"/>
    </g>
    <g id="font_______W7_l0">
      <path d="M11.6 -31.5 L11.6 -31.5 6.9 -32.15 4.35 0.05 14.4 -1.4 11.6 -31.5" fill-rule="evenodd" stroke="none"/>
    </g>
    <g id="font_______W7_.0">
      <path d="M11.9 -7.35 L11.9 -7.35 4.9 -8.2 3.1 1.2 13.5 0.0 11.9 -7.35" fill-rule="evenodd" stroke="none"/>
    </g>
  </defs>
</svg>
