<?xml version="1.0" encoding="UTF-8" standalone="no"?>
<svg xmlns:xlink="http://www.w3.org/1999/xlink" height="31.55px" width="131.55px" xmlns="http://www.w3.org/2000/svg">
  <g transform="matrix(1.0, 0.0, 0.0, 1.0, 64.4, -3.95)">
    <g transform="matrix(1.0, 0.0, 0.0, 1.0, -67.8, 0.0)">
      <use fill="#333333" height="31.55" transform="matrix(0.3125, 0.0, 0.0, 0.3125, 3.0, 14.0)" width="131.55" xlink:href="#font_______W7_S0"/>
      <use fill="#333333" height="31.55" transform="matrix(0.3125, 0.0, 0.0, 0.3125, 13.5, 14.0)" width="131.55" xlink:href="#font_______W7_n0"/>
      <use fill="#333333" height="31.55" transform="matrix(0.3125, 0.0, 0.0, 0.3125, 22.6, 14.0)" width="131.55" xlink:href="#font_______W7_i0"/>
      <use fill="#333333" height="31.55" transform="matrix(0.3125, 0.0, 0.0, 0.3125, 28.45, 14.0)" width="131.55" xlink:href="#font_______W7_f0"/>
      <use fill="#333333" height="31.55" transform="matrix(0.3125, 0.0, 0.0, 0.3125, 34.25, 14.0)" width="131.55" xlink:href="#font_______W7_f0"/>
      <use fill="#333333" height="31.55" transform="matrix(0.3125, 0.0, 0.0, 0.3125, 45.4, 14.0)" width="131.55" xlink:href="#font_______W7_s0"/>
      <use fill="#333333" height="31.55" transform="matrix(0.3125, 0.0, 0.0, 0.3125, 53.7, 14.0)" width="131.55" xlink:href="#font_______W7_n0"/>
      <use fill="#333333" height="31.55" transform="matrix(0.3125, 0.0, 0.0, 0.3125, 62.8, 14.0)" width="131.55" xlink:href="#font_______W7_i0"/>
      <use fill="#333333" height="31.55" transform="matrix(0.3125, 0.0, 0.0, 0.3125, 68.65, 14.0)" width="131.55" xlink:href="#font_______W7_f0"/>
      <use fill="#333333" height="31.55" transform="matrix(0.3125, 0.0, 0.0, 0.3125, 74.45, 14.0)" width="131.55" xlink:href="#font_______W7_f0"/>
      <use fill="#333333" height="31.55" transform="matrix(0.3125, 0.0, 0.0, 0.3125, 85.6, 14.0)" width="131.55" xlink:href="#font_______W7_s0"/>
      <use fill="#333333" height="31.55" transform="matrix(0.3125, 0.0, 0.0, 0.3125, 93.9, 14.0)" width="131.55" xlink:href="#font_______W7_n0"/>
      <use fill="#333333" height="31.55" transform="matrix(0.3125, 0.0, 0.0, 0.3125, 103.0, 14.0)" width="131.55" xlink:href="#font_______W7_i0"/>
      <use fill="#333333" height="31.55" transform="matrix(0.3125, 0.0, 0.0, 0.3125, 108.85, 14.0)" width="131.55" xlink:href="#font_______W7_f0"/>
      <use fill="#333333" height="31.55" transform="matrix(0.3125, 0.0, 0.0, 0.3125, 114.65, 14.0)" width="131.55" xlink:href="#font_______W7_f0"/>
      <use fill="#333333" height="31.55" transform="matrix(0.3125, 0.0, 0.0, 0.3125, 120.45, 14.0)" width="131.55" xlink:href="#font_______W7_.0"/>
      <use fill="#333333" height="31.55" transform="matrix(0.3125, 0.0, 0.0, 0.3125, 125.65, 14.0)" width="131.55" xlink:href="#font_______W7_.0"/>
      <use fill="#333333" height="31.55" transform="matrix(0.3125, 0.0, 0.0, 0.3125, 130.85, 14.0)" width="131.55" xlink:href="#font_______W7_.0"/>
    </g>
    <g transform="matrix(1.0, 0.0, 0.0, 1.0, -67.8, 0.0)">
      <use fill="#333333" height="31.55" transform="matrix(0.3125, 0.0, 0.0, 0.3125, 15.0, 34.0)" width="131.55" xlink:href="#font_______W7_I0"/>
      <use fill="#333333" height="31.55" transform="matrix(0.3125, 0.0, 0.0, 0.3125, 26.2, 34.0)" width="131.55" xlink:href="#font_______W7_s0"/>
      <use fill="#333333" height="31.55" transform="matrix(0.3125, 0.0, 0.0, 0.3125, 34.5, 34.0)" width="131.55" xlink:href="#font_______W7_m0"/>
      <use fill="#333333" height="31.55" transform="matrix(0.3125, 0.0, 0.0, 0.3125, 46.2, 34.0)" width="131.55" xlink:href="#font_______W7_e0"/>
      <use fill="#333333" height="31.55" transform="matrix(0.3125, 0.0, 0.0, 0.3125, 55.15, 34.0)" width="131.55" xlink:href="#font_______W7_l0"/>
      <use fill="#333333" height="31.55" transform="matrix(0.3125, 0.0, 0.0, 0.3125, 61.0, 34.0)" width="131.55" xlink:href="#font_______W7_l0"/>
      <use fill="#333333" height="31.55" transform="matrix(0.3125, 0.0, 0.0, 0.3125, 72.2, 34.0)" width="131.55" xlink:href="#font_______W7_m0"/>
      <use fill="#333333" height="31.55" transform="matrix(0.3125, 0.0, 0.0, 0.3125, 83.9, 34.0)" width="131.55" xlink:href="#font_______W7_o0"/>
      <use fill="#333333" height="31.55" transform="matrix(0.3125, 0.0, 0.0, 0.3125, 92.5, 34.0)" width="131.55" xlink:href="#font_______W7_n0"/>
      <use fill="#333333" height="31.55" transform="matrix(0.3125, 0.0, 0.0, 0.3125, 101.6, 34.0)" width="131.55" xlink:href="#font_______W7_e0"/>
      <use fill="#333333" height="31.55" transform="matrix(0.3125, 0.0, 0.0, 0.3125, 110.55, 34.0)" width="131.55" xlink:href="#font_______W7_y0"/>
      <use fill="#333333" height="31.55" transform="matrix(0.3125, 0.0, 0.0, 0.3125, 118.45, 34.0)" width="131.55" xlink:href="#font_______W7__1"/>
    </g>
  </g>
  <defs>
    <g id="font_______W7_S0">
      <path d="M31.55 -9.25 L31.55 -9.25 Q31.55 -13.4 28.3 -15.85 25.95 -17.65 19.7 -19.75 10.7 -22.75 10.7 -24.2 10.7 -25.4 11.9 -26.1 13.0 -26.75 14.65 -26.75 21.7 -26.75 27.4 -23.2 L30.25 -27.8 Q24.05 -32.15 16.75 -32.15 11.9 -32.15 8.45 -30.45 4.0 -28.25 4.0 -23.9 4.0 -20.3 7.85 -18.05 9.4 -17.1 15.9 -14.75 23.85 -11.9 23.85 -10.1 23.85 -8.7 22.45 -7.9 21.25 -7.25 19.75 -7.25 15.9 -7.25 12.1 -9.95 8.85 -12.25 6.35 -15.9 L1.55 -6.1 Q4.85 -3.25 9.45 -1.6 14.1 0.05 18.65 0.05 23.45 0.05 27.15 -2.15 31.55 -4.75 31.55 -9.25" fill-rule="evenodd" stroke="none"/>
    </g>
    <g id="font_______W7_n0">
      <path d="M27.0 -9.05 L27.0 -9.05 Q27.0 -14.5 24.65 -17.8 21.9 -21.45 16.6 -21.45 12.6 -21.45 9.45 -18.85 L9.2 -20.75 4.35 -21.45 2.05 0.05 11.95 -1.4 10.35 -12.55 Q12.95 -15.85 15.9 -15.85 19.4 -15.85 19.4 -10.6 19.4 -6.9 16.6 -1.3 L26.2 0.0 Q27.0 -6.5 27.0 -9.05" fill-rule="evenodd" stroke="none"/>
    </g>
    <g id="font_______W7_i0">
      <path d="M11.6 -20.75 L11.6 -20.75 6.75 -21.45 4.45 0.05 14.3 -1.4 11.6 -20.75 M11.9 -31.5 L11.9 -31.5 6.5 -32.15 4.9 -24.95 13.2 -26.1 11.9 -31.5" fill-rule="evenodd" stroke="none"/>
    </g>
    <g id="font_______W7_f0">
      <path d="M16.3 -23.5 L16.3 -23.5 11.45 -22.7 Q11.8 -25.5 12.65 -26.6 13.65 -27.85 16.3 -27.85 L17.0 -27.85 16.25 -32.0 14.1 -32.15 Q5.9 -32.15 5.05 -21.65 L1.3 -20.95 2.15 -16.7 4.55 -16.7 Q4.1 -5.65 4.1 -0.95 L13.95 0.05 Q11.85 -9.65 11.45 -16.65 L17.3 -16.6 16.3 -23.5" fill-rule="evenodd" stroke="none"/>
    </g>
    <g id="font_______W7_s0">
      <path d="M25.05 -6.35 L25.05 -6.35 Q25.05 -12.25 15.35 -13.65 8.7 -14.6 8.7 -15.7 8.7 -17.05 12.35 -17.05 17.1 -17.05 22.25 -14.8 L23.8 -18.2 Q19.05 -21.45 12.25 -21.45 8.55 -21.45 6.05 -20.35 2.6 -18.85 2.6 -15.7 2.6 -13.1 4.75 -11.8 6.5 -10.75 10.95 -10.05 L16.3 -8.95 Q17.8 -8.4 17.8 -7.5 17.8 -6.2 15.25 -6.2 12.3 -6.2 9.1 -7.45 5.9 -8.7 3.8 -10.65 L1.0 -2.6 Q6.45 0.05 14.3 0.05 25.05 0.05 25.05 -6.35" fill-rule="evenodd" stroke="none"/>
    </g>
    <g id="font_______W7_.0">
      <path d="M11.9 -7.35 L11.9 -7.35 4.9 -8.2 3.1 1.2 13.5 0.0 11.9 -7.35" fill-rule="evenodd" stroke="none"/>
    </g>
    <g id="font_______W7_I0">
      <path d="M11.8 -31.5 L11.8 -31.5 6.9 -32.15 4.15 0.05 14.65 -1.1 11.8 -31.5" fill-rule="evenodd" stroke="none"/>
    </g>
    <g id="font_______W7_m0">
      <path d="M35.35 -9.0 L35.35 -9.0 Q35.35 -21.45 27.8 -21.45 24.2 -21.45 21.15 -18.8 19.2 -21.45 15.65 -21.45 12.4 -21.45 9.45 -19.2 L9.25 -20.75 4.35 -21.45 2.05 0.05 11.95 -1.4 10.25 -13.85 Q12.25 -15.8 13.75 -15.8 16.4 -15.8 16.4 -11.2 16.4 -8.95 15.2 -5.8 L12.95 -0.75 22.1 0.1 Q23.3 -4.75 23.3 -9.55 23.3 -12.35 22.95 -14.3 24.5 -15.7 25.75 -15.7 28.25 -15.7 28.25 -11.2 28.25 -7.95 25.1 -0.65 L34.25 0.2 Q35.35 -4.25 35.35 -9.0" fill-rule="evenodd" stroke="none"/>
    </g>
    <g id="font_______W7_e0">
      <path d="M19.45 -9.9 L19.45 -9.9 Q16.75 -7.55 13.6 -7.55 10.45 -7.55 9.15 -9.9 L19.45 -9.9 M9.0 -13.4 L9.0 -13.4 Q9.7 -14.95 11.5 -15.95 13.2 -16.8 15.1 -16.8 18.05 -16.8 19.65 -14.35 L9.0 -13.4 M23.25 -9.9 L23.25 -9.9 24.3 -9.9 26.7 -12.6 Q25.85 -16.7 22.9 -19.1 19.9 -21.45 15.15 -21.45 9.65 -21.45 5.9 -18.65 1.8 -15.6 1.8 -10.4 1.8 -5.35 5.8 -2.5 9.3 0.05 14.6 0.05 22.45 0.05 27.15 -4.25 L23.25 -9.9" fill-rule="evenodd" stroke="none"/>
    </g>
    <g id="font_______W7_l0">
      <path d="M11.6 -31.5 L11.6 -31.5 6.9 -32.15 4.35 0.05 14.4 -1.4 11.6 -31.5" fill-rule="evenodd" stroke="none"/>
    </g>
    <g id="font_______W7_o0">
      <path d="M15.8 -13.5 L15.8 -13.5 Q16.45 -11.85 16.45 -10.4 16.45 -6.85 12.35 -6.85 10.6 -6.85 9.35 -8.05 8.15 -9.35 8.15 -11.05 8.15 -13.25 9.8 -14.6 11.4 -16.0 13.7 -16.0 16.1 -16.0 18.3 -14.3 L15.8 -13.5 M25.7 -11.4 L25.7 -11.4 Q25.7 -13.8 24.75 -16.35 L21.25 -15.25 22.7 -17.2 Q18.35 -21.45 13.15 -21.45 8.45 -21.45 5.1 -18.2 1.8 -14.95 1.8 -10.3 1.8 -5.5 5.4 -2.65 8.65 0.05 13.65 0.05 18.75 0.05 22.2 -3.2 25.7 -6.4 25.7 -11.4" fill-rule="evenodd" stroke="none"/>
    </g>
    <g id="font_______W7_y0">
      <path d="M21.2 -21.45 L21.2 -21.45 13.15 -10.8 3.65 -21.45 0.5 -19.75 8.5 -4.7 4.3 0.85 12.5 4.75 24.85 -19.65 21.2 -21.45" fill-rule="evenodd" stroke="none"/>
    </g>
    <g id="font_______W7__1">
      <path d="M12.1 -7.5 L12.1 -7.5 5.1 -8.35 3.35 0.05 13.7 -1.15 12.1 -7.5 M11.0 -31.5 L11.0 -31.5 6.15 -32.15 4.3 -10.7 13.2 -12.15 11.0 -31.5" fill-rule="evenodd" stroke="none"/>
    </g>
  </defs>
</svg>
