<?xml version="1.0" encoding="UTF-8" standalone="no"?>
<svg xmlns:xlink="http://www.w3.org/1999/xlink" height="30.45px" width="190.4px" xmlns="http://www.w3.org/2000/svg">
  <g transform="matrix(1.0, 0.0, 0.0, 1.0, 114.3, -3.95)">
    <g transform="matrix(1.0, 0.0, 0.0, 1.0, -119.9, 0.0)">
      <use fill="#333333" height="30.45" transform="matrix(0.3125, 0.0, 0.0, 0.3125, 24.0, 14.0)" width="190.4" xlink:href="#font_______W7_I0"/>
      <use fill="#333333" height="30.45" transform="matrix(0.3125, 0.0, 0.0, 0.3125, 29.85, 14.0)" width="190.4" xlink:href="#font_______W7__0"/>
      <use fill="#333333" height="30.45" transform="matrix(0.3125, 0.0, 0.0, 0.3125, 33.3, 14.0)" width="190.4" xlink:href="#font_______W7_m0"/>
      <use fill="#333333" height="30.45" transform="matrix(0.3125, 0.0, 0.0, 0.3125, 50.35, 14.0)" width="190.4" xlink:href="#font_______W7_r0"/>
      <use fill="#333333" height="30.45" transform="matrix(0.3125, 0.0, 0.0, 0.3125, 56.3, 14.0)" width="190.4" xlink:href="#font_______W7_e0"/>
      <use fill="#333333" height="30.45" transform="matrix(0.3125, 0.0, 0.0, 0.3125, 65.25, 14.0)" width="190.4" xlink:href="#font_______W7_a0"/>
      <use fill="#333333" height="30.45" transform="matrix(0.3125, 0.0, 0.0, 0.3125, 74.45, 14.0)" width="190.4" xlink:href="#font_______W7_l0"/>
      <use fill="#333333" height="30.45" transform="matrix(0.3125, 0.0, 0.0, 0.3125, 80.3, 14.0)" width="190.4" xlink:href="#font_______W7_l0"/>
      <use fill="#333333" height="30.45" transform="matrix(0.3125, 0.0, 0.0, 0.3125, 86.15, 14.0)" width="190.4" xlink:href="#font_______W7_y0"/>
      <use fill="#333333" height="30.45" transform="matrix(0.3125, 0.0, 0.0, 0.3125, 99.4, 14.0)" width="190.4" xlink:href="#font_______W7_m0"/>
      <use fill="#333333" height="30.45" transform="matrix(0.3125, 0.0, 0.0, 0.3125, 111.1, 14.0)" width="190.4" xlink:href="#font_______W7_a0"/>
      <use fill="#333333" height="30.45" transform="matrix(0.3125, 0.0, 0.0, 0.3125, 120.3, 14.0)" width="190.4" xlink:href="#font_______W7_d0"/>
      <use fill="#333333" height="30.45" transform="matrix(0.3125, 0.0, 0.0, 0.3125, 129.6, 14.0)" width="190.4" xlink:href="#font_______W7__2"/>
      <use fill="#333333" height="30.45" transform="matrix(0.3125, 0.0, 0.0, 0.3125, 140.15, 14.0)" width="190.4" xlink:href="#font_______W7_y0"/>
      <use fill="#333333" height="30.45" transform="matrix(0.3125, 0.0, 0.0, 0.3125, 148.05, 14.0)" width="190.4" xlink:href="#font_______W7_o0"/>
      <use fill="#333333" height="30.45" transform="matrix(0.3125, 0.0, 0.0, 0.3125, 156.65, 14.0)" width="190.4" xlink:href="#font_______W7_u0"/>
      <use fill="#333333" height="30.45" transform="matrix(0.3125, 0.0, 0.0, 0.3125, 165.65, 14.0)" width="190.4" xlink:href="#font_______W7__0"/>
      <use fill="#333333" height="30.45" transform="matrix(0.3125, 0.0, 0.0, 0.3125, 169.1, 14.0)" width="190.4" xlink:href="#font_______W7_d0"/>
    </g>
    <g transform="matrix(1.0, 0.0, 0.0, 1.0, -119.9, 0.0)">
      <use fill="#333333" height="30.45" transform="matrix(0.3125, 0.0, 0.0, 0.3125, 5.0, 34.0)" width="190.4" xlink:href="#font_______W7_b0"/>
      <use fill="#333333" height="30.45" transform="matrix(0.3125, 0.0, 0.0, 0.3125, 14.4, 34.0)" width="190.4" xlink:href="#font_______W7_e0"/>
      <use fill="#333333" height="30.45" transform="matrix(0.3125, 0.0, 0.0, 0.3125, 23.35, 34.0)" width="190.4" xlink:href="#font_______W7_t0"/>
      <use fill="#333333" height="30.45" transform="matrix(0.3125, 0.0, 0.0, 0.3125, 30.95, 34.0)" width="190.4" xlink:href="#font_______W7_t0"/>
      <use fill="#333333" height="30.45" transform="matrix(0.3125, 0.0, 0.0, 0.3125, 38.55, 34.0)" width="190.4" xlink:href="#font_______W7_e0"/>
      <use fill="#333333" height="30.45" transform="matrix(0.3125, 0.0, 0.0, 0.3125, 47.5, 34.0)" width="190.4" xlink:href="#font_______W7_r0"/>
      <use fill="#333333" height="30.45" transform="matrix(0.3125, 0.0, 0.0, 0.3125, 58.8, 34.0)" width="190.4" xlink:href="#font_______W7_n0"/>
      <use fill="#333333" height="30.45" transform="matrix(0.3125, 0.0, 0.0, 0.3125, 67.9, 34.0)" width="190.4" xlink:href="#font_______W7_o0"/>
      <use fill="#333333" height="30.45" transform="matrix(0.3125, 0.0, 0.0, 0.3125, 76.5, 34.0)" width="190.4" xlink:href="#font_______W7_t0"/>
      <use fill="#333333" height="30.45" transform="matrix(0.3125, 0.0, 0.0, 0.3125, 89.45, 34.0)" width="190.4" xlink:href="#font_______W7_c0"/>
      <use fill="#333333" height="30.45" transform="matrix(0.3125, 0.0, 0.0, 0.3125, 98.05, 34.0)" width="190.4" xlink:href="#font_______W7_o0"/>
      <use fill="#333333" height="30.45" transform="matrix(0.3125, 0.0, 0.0, 0.3125, 106.65, 34.0)" width="190.4" xlink:href="#font_______W7_m0"/>
      <use fill="#333333" height="30.45" transform="matrix(0.3125, 0.0, 0.0, 0.3125, 118.35, 34.0)" width="190.4" xlink:href="#font_______W7_e0"/>
      <use fill="#333333" height="30.45" transform="matrix(0.3125, 0.0, 0.0, 0.3125, 132.65, 34.0)" width="190.4" xlink:href="#font_______W7_n0"/>
      <use fill="#333333" height="30.45" transform="matrix(0.3125, 0.0, 0.0, 0.3125, 141.75, 34.0)" width="190.4" xlink:href="#font_______W7_e0"/>
      <use fill="#333333" height="30.45" transform="matrix(0.3125, 0.0, 0.0, 0.3125, 150.7, 34.0)" width="190.4" xlink:href="#font_______W7_a0"/>
      <use fill="#333333" height="30.45" transform="matrix(0.3125, 0.0, 0.0, 0.3125, 159.9, 34.0)" width="190.4" xlink:href="#font_______W7_r0"/>
      <use fill="#333333" height="30.45" transform="matrix(0.3125, 0.0, 0.0, 0.3125, 171.2, 34.0)" width="190.4" xlink:href="#font_______W7_m0"/>
      <use fill="#333333" height="30.45" transform="matrix(0.3125, 0.0, 0.0, 0.3125, 182.9, 34.0)" width="190.4" xlink:href="#font_______W7_e0"/>
      <use fill="#333333" height="30.45" transform="matrix(0.3125, 0.0, 0.0, 0.3125, 191.85, 34.0)" width="190.4" xlink:href="#font_______W7_.0"/>
    </g>
  </g>
  <defs>
    <g id="font_______W7_I0">
      <path d="M11.8 -31.5 L11.8 -31.5 6.9 -32.15 4.15 0.05 14.65 -1.1 11.8 -31.5" fill-rule="evenodd" stroke="none"/>
    </g>
    <g id="font_______W7__0">
      <path d="M2.05 -32.15 L2.05 -32.15 3.65 -20.7 7.3 -20.7 8.95 -32.15 2.05 -32.15" fill-rule="evenodd" stroke="none"/>
    </g>
    <g id="font_______W7_m0">
      <path d="M35.35 -9.0 L35.35 -9.0 Q35.35 -21.45 27.8 -21.45 24.2 -21.45 21.15 -18.8 19.2 -21.45 15.65 -21.45 12.4 -21.45 9.45 -19.2 L9.25 -20.75 4.35 -21.45 2.05 0.05 11.95 -1.4 10.25 -13.85 Q12.25 -15.8 13.75 -15.8 16.4 -15.8 16.4 -11.2 16.4 -8.95 15.2 -5.8 L12.95 -0.75 22.1 0.1 Q23.3 -4.75 23.3 -9.55 23.3 -12.35 22.95 -14.3 24.5 -15.7 25.75 -15.7 28.25 -15.7 28.25 -11.2 28.25 -7.95 25.1 -0.65 L34.25 0.2 Q35.35 -4.25 35.35 -9.0" fill-rule="evenodd" stroke="none"/>
    </g>
    <g id="font_______W7_r0">
      <path d="M18.3 -20.6 L18.3 -20.6 Q16.55 -21.45 14.75 -21.45 11.5 -21.45 8.7 -18.65 L8.45 -20.75 4.45 -21.45 2.55 0.05 10.65 -1.4 9.3 -12.8 Q10.55 -14.85 12.3 -14.85 13.25 -14.85 14.55 -13.85 L16.55 -12.05 18.3 -20.6" fill-rule="evenodd" stroke="none"/>
    </g>
    <g id="font_______W7_e0">
      <path d="M19.45 -9.9 L19.45 -9.9 Q16.75 -7.55 13.6 -7.55 10.45 -7.55 9.15 -9.9 L19.45 -9.9 M9.0 -13.4 L9.0 -13.4 Q9.7 -14.95 11.5 -15.95 13.2 -16.8 15.1 -16.8 18.05 -16.8 19.65 -14.35 L9.0 -13.4 M23.25 -9.9 L23.25 -9.9 24.3 -9.9 26.7 -12.6 Q25.85 -16.7 22.9 -19.1 19.9 -21.45 15.15 -21.45 9.65 -21.45 5.9 -18.65 1.8 -15.6 1.8 -10.4 1.8 -5.35 5.8 -2.5 9.3 0.05 14.6 0.05 22.45 0.05 27.15 -4.25 L23.25 -9.9" fill-rule="evenodd" stroke="none"/>
    </g>
    <g id="font_______W7_a0">
      <path d="M19.05 -8.85 L19.05 -8.85 18.5 -5.05 17.1 -9.0 Q14.35 -6.2 10.6 -6.2 9.95 -6.2 9.45 -6.75 9.0 -7.2 9.0 -7.85 9.0 -10.2 13.7 -10.2 15.9 -10.2 19.05 -8.85 M27.4 -6.8 L27.4 -6.8 Q27.4 -21.45 13.35 -21.45 7.15 -21.45 2.55 -18.35 L4.3 -14.35 Q8.3 -16.55 13.15 -16.55 17.85 -16.55 18.85 -13.35 15.4 -14.5 12.8 -14.5 8.6 -14.5 5.6 -12.8 1.8 -10.75 1.8 -6.95 1.8 -3.5 4.9 -1.55 7.55 0.05 11.15 0.05 13.95 0.05 17.35 -0.95 L17.0 0.15 26.7 -0.3 Q27.4 -3.45 27.4 -6.8" fill-rule="evenodd" stroke="none"/>
    </g>
    <g id="font_______W7_l0">
      <path d="M11.6 -31.5 L11.6 -31.5 6.9 -32.15 4.35 0.05 14.4 -1.4 11.6 -31.5" fill-rule="evenodd" stroke="none"/>
    </g>
    <g id="font_______W7_y0">
      <path d="M21.2 -21.45 L21.2 -21.45 13.15 -10.8 3.65 -21.45 0.5 -19.75 8.5 -4.7 4.3 0.85 12.5 4.75 24.85 -19.65 21.2 -21.45" fill-rule="evenodd" stroke="none"/>
    </g>
    <g id="font_______W7_d0">
      <path d="M18.35 -8.95 L18.35 -8.95 16.8 -11.9 Q14.75 -9.45 12.45 -9.45 10.9 -9.45 10.0 -10.4 9.1 -11.4 9.1 -12.95 9.1 -14.5 10.7 -15.6 12.15 -16.5 13.7 -16.5 16.6 -16.5 18.8 -14.55 L18.35 -8.95 M24.9 -31.55 L24.9 -31.55 20.15 -32.2 19.15 -19.55 Q16.05 -21.45 12.65 -21.45 8.15 -21.45 4.95 -18.25 1.8 -15.0 1.8 -10.5 1.8 -6.05 4.6 -3.05 7.4 0.05 11.85 0.05 14.65 0.05 17.7 -1.5 L17.6 0.0 27.65 -1.45 24.9 -31.55" fill-rule="evenodd" stroke="none"/>
    </g>
    <g id="font_______W7__2">
      <path d="M11.8 -7.8 L11.8 -7.8 4.75 -8.65 3.0 0.1 10.5 -1.0 4.35 2.8 7.65 6.35 13.6 -0.1 11.8 -7.8" fill-rule="evenodd" stroke="none"/>
    </g>
    <g id="font_______W7_o0">
      <path d="M15.8 -13.5 L15.8 -13.5 Q16.45 -11.85 16.45 -10.4 16.45 -6.85 12.35 -6.85 10.6 -6.85 9.35 -8.05 8.15 -9.35 8.15 -11.05 8.15 -13.25 9.8 -14.6 11.4 -16.0 13.7 -16.0 16.1 -16.0 18.3 -14.3 L15.8 -13.5 M25.7 -11.4 L25.7 -11.4 Q25.7 -13.8 24.75 -16.35 L21.25 -15.25 22.7 -17.2 Q18.35 -21.45 13.15 -21.45 8.45 -21.45 5.1 -18.2 1.8 -14.95 1.8 -10.3 1.8 -5.5 5.4 -2.65 8.65 0.05 13.65 0.05 18.75 0.05 22.2 -3.2 25.7 -6.4 25.7 -11.4" fill-rule="evenodd" stroke="none"/>
    </g>
    <g id="font_______W7_u0">
      <path d="M24.1 -20.75 L24.1 -20.75 19.25 -21.45 17.9 -8.95 16.15 -11.65 Q13.35 -8.1 10.6 -8.1 9.0 -8.1 8.15 -9.4 7.25 -10.65 7.25 -12.3 7.25 -15.75 8.6 -19.75 L3.9 -21.15 Q2.05 -16.35 2.05 -11.4 2.05 -6.45 4.25 -3.4 6.75 0.05 11.5 0.05 14.55 0.05 17.1 -1.5 L16.95 0.1 26.8 -1.35 24.1 -20.75" fill-rule="evenodd" stroke="none"/>
    </g>
    <g id="font_______W7_b0">
      <path d="M20.9 -12.9 L20.9 -12.9 Q20.9 -9.4 17.6 -9.4 15.3 -9.4 13.25 -11.85 L11.45 -8.4 10.95 -14.2 Q13.25 -16.5 16.3 -16.5 17.85 -16.5 19.35 -15.5 20.9 -14.45 20.9 -12.9 M28.25 -10.45 L28.25 -10.45 Q28.25 -15.0 25.1 -18.25 21.9 -21.45 17.35 -21.45 13.75 -21.45 10.5 -19.25 L9.35 -31.5 4.65 -32.15 2.05 0.05 12.15 -0.75 12.15 -2.05 Q14.7 0.05 18.2 0.05 22.6 0.05 25.4 -3.0 28.25 -6.0 28.25 -10.45" fill-rule="evenodd" stroke="none"/>
    </g>
    <g id="font_______W7_t0">
      <path d="M18.7 -12.2 L18.7 -12.2 Q17.0 -9.35 14.9 -9.35 11.95 -9.35 11.95 -15.4 L21.65 -15.4 20.1 -22.55 12.4 -21.45 Q12.75 -24.2 13.6 -27.95 L8.95 -28.85 Q7.75 -24.65 7.1 -20.75 L0.75 -19.9 1.75 -15.4 6.55 -15.4 6.5 -12.55 Q6.5 -6.8 7.75 -4.05 9.5 0.05 14.55 0.05 19.1 0.05 23.25 -4.15 L18.7 -12.2" fill-rule="evenodd" stroke="none"/>
    </g>
    <g id="font_______W7_n0">
      <path d="M27.0 -9.05 L27.0 -9.05 Q27.0 -14.5 24.65 -17.8 21.9 -21.45 16.6 -21.45 12.6 -21.45 9.45 -18.85 L9.2 -20.75 4.35 -21.45 2.05 0.05 11.95 -1.4 10.35 -12.55 Q12.95 -15.85 15.9 -15.85 19.4 -15.85 19.4 -10.6 19.4 -6.9 16.6 -1.3 L26.2 0.0 Q27.0 -6.5 27.0 -9.05" fill-rule="evenodd" stroke="none"/>
    </g>
    <g id="font_______W7_c0">
      <path d="M21.35 -12.5 L21.35 -12.5 Q19.95 -10.5 17.75 -9.15 15.35 -7.6 13.15 -7.6 11.4 -7.6 10.2 -8.85 8.9 -10.05 8.9 -11.8 8.9 -14.1 10.65 -15.4 12.2 -16.55 14.55 -16.55 18.9 -16.55 21.9 -13.7 L24.4 -17.55 Q19.65 -21.45 13.1 -21.45 8.05 -21.45 4.9 -18.4 1.8 -15.3 1.8 -10.3 1.8 -5.6 5.7 -2.65 9.25 0.05 14.1 0.05 17.2 0.05 20.45 -1.1 24.05 -2.3 25.9 -4.4 L21.35 -12.5" fill-rule="evenodd" stroke="none"/>
    </g>
    <g id="font_______W7_.0">
      <path d="M11.9 -7.35 L11.9 -7.35 4.9 -8.2 3.1 1.2 13.5 0.0 11.9 -7.35" fill-rule="evenodd" stroke="none"/>
    </g>
  </defs>
</svg>
