<?xml version="1.0" encoding="UTF-8" standalone="no"?>
<svg xmlns:xlink="http://www.w3.org/1999/xlink" height="11.55px" width="94.3px" xmlns="http://www.w3.org/2000/svg">
  <g transform="matrix(1.0, 0.0, 0.0, 1.0, -9.0, -3.95)">
    <g transform="matrix(1.0, 0.0, 0.0, 1.0, 8.25, 0.0)">
      <use fill="#333333" height="11.55" transform="matrix(0.3125, 0.0, 0.0, 0.3125, 0.0, 14.0)" width="94.3" xlink:href="#font_______W7_G0"/>
      <use fill="#333333" height="11.55" transform="matrix(0.3125, 0.0, 0.0, 0.3125, 11.3, 14.0)" width="94.3" xlink:href="#font_______W7_a0"/>
      <use fill="#333333" height="11.55" transform="matrix(0.3125, 0.0, 0.0, 0.3125, 20.5, 14.0)" width="94.3" xlink:href="#font_______W7_b0"/>
      <use fill="#333333" height="11.55" transform="matrix(0.3125, 0.0, 0.0, 0.3125, 35.25, 14.0)" width="94.3" xlink:href="#font_______W7_g0"/>
      <use fill="#333333" height="11.55" transform="matrix(0.3125, 0.0, 0.0, 0.3125, 44.1, 14.0)" width="94.3" xlink:href="#font_______W7_a0"/>
      <use fill="#333333" height="11.55" transform="matrix(0.3125, 0.0, 0.0, 0.3125, 53.3, 14.0)" width="94.3" xlink:href="#font_______W7_b0"/>
      <use fill="#333333" height="11.55" transform="matrix(0.3125, 0.0, 0.0, 0.3125, 68.05, 14.0)" width="94.3" xlink:href="#font_______W7_g0"/>
      <use fill="#333333" height="11.55" transform="matrix(0.3125, 0.0, 0.0, 0.3125, 76.9, 14.0)" width="94.3" xlink:href="#font_______W7_a0"/>
      <use fill="#333333" height="11.55" transform="matrix(0.3125, 0.0, 0.0, 0.3125, 86.1, 14.0)" width="94.3" xlink:href="#font_______W7_b0"/>
    </g>
  </g>
  <defs>
    <g id="font_______W7_G0">
      <path d="M32.3 -18.1 L32.3 -18.1 18.0 -16.6 18.9 -11.9 23.25 -11.9 Q20.15 -7.9 16.2 -7.9 12.45 -7.9 10.45 -10.35 8.6 -12.65 8.6 -16.5 8.6 -20.8 10.75 -23.45 13.05 -26.4 17.25 -26.4 23.2 -26.4 27.5 -21.3 L31.25 -25.15 Q28.6 -28.35 25.0 -30.25 21.2 -32.15 17.25 -32.15 10.5 -32.15 6.15 -27.05 2.05 -22.25 2.05 -15.35 2.05 -8.75 6.15 -4.35 10.25 0.05 16.8 0.05 21.35 0.05 25.6 -2.45 L25.1 0.35 34.1 -0.6 32.3 -18.1" fill-rule="evenodd" stroke="none"/>
    </g>
    <g id="font_______W7_a0">
      <path d="M19.05 -8.85 L19.05 -8.85 18.5 -5.05 17.1 -9.0 Q14.35 -6.2 10.6 -6.2 9.95 -6.2 9.45 -6.75 9.0 -7.2 9.0 -7.85 9.0 -10.2 13.7 -10.2 15.9 -10.2 19.05 -8.85 M27.4 -6.8 L27.4 -6.8 Q27.4 -21.45 13.35 -21.45 7.15 -21.45 2.55 -18.35 L4.3 -14.35 Q8.3 -16.55 13.15 -16.55 17.85 -16.55 18.85 -13.35 15.4 -14.5 12.8 -14.5 8.6 -14.5 5.6 -12.8 1.8 -10.75 1.8 -6.95 1.8 -3.5 4.9 -1.55 7.55 0.05 11.15 0.05 13.95 0.05 17.35 -0.95 L17.0 0.15 26.7 -0.3 Q27.4 -3.45 27.4 -6.8" fill-rule="evenodd" stroke="none"/>
    </g>
    <g id="font_______W7_b0">
      <path d="M20.9 -12.9 L20.9 -12.9 Q20.9 -9.4 17.6 -9.4 15.3 -9.4 13.25 -11.85 L11.45 -8.4 10.95 -14.2 Q13.25 -16.5 16.3 -16.5 17.85 -16.5 19.35 -15.5 20.9 -14.45 20.9 -12.9 M28.25 -10.45 L28.25 -10.45 Q28.25 -15.0 25.1 -18.25 21.9 -21.45 17.35 -21.45 13.75 -21.45 10.5 -19.25 L9.35 -31.5 4.65 -32.15 2.05 0.05 12.15 -0.75 12.15 -2.05 Q14.7 0.05 18.2 0.05 22.6 0.05 25.4 -3.0 28.25 -6.0 28.25 -10.45" fill-rule="evenodd" stroke="none"/>
    </g>
    <g id="font_______W7_g0">
      <path d="M21.25 -12.75 L21.25 -12.75 21.05 -10.5 18.9 -14.7 Q15.2 -11.7 11.9 -11.7 10.85 -11.7 10.0 -12.55 9.05 -13.45 9.05 -14.45 9.05 -16.75 13.35 -16.75 15.6 -16.75 18.05 -15.7 20.3 -14.7 21.2 -13.55 L21.25 -12.75 M26.3 -10.4 L26.3 -10.4 Q26.3 -15.45 24.2 -21.5 L20.0 -20.3 20.3 -19.15 Q16.35 -21.45 12.1 -21.45 8.15 -21.45 5.4 -19.3 2.35 -16.95 2.35 -13.2 2.35 -9.45 5.85 -7.35 8.8 -5.6 12.75 -5.6 16.55 -5.6 19.75 -6.9 17.8 -3.95 13.25 -3.95 8.55 -3.95 4.75 -6.35 L1.8 2.9 Q6.7 4.75 11.2 4.75 18.25 4.75 22.25 0.65 26.3 -3.4 26.3 -10.4" fill-rule="evenodd" stroke="none"/>
    </g>
  </defs>
</svg>
