<?xml version="1.0" encoding="UTF-8" standalone="no"?>
<svg xmlns:xlink="http://www.w3.org/1999/xlink" height="12.05px" width="194.75px" xmlns="http://www.w3.org/2000/svg">
  <g transform="matrix(1.0, 0.0, 0.0, 1.0, 41.5, -3.95)">
    <g transform="matrix(1.0, 0.0, 0.0, 1.0, -42.2, 0.0)">
      <use fill="#333333" height="12.05" transform="matrix(0.3125, 0.0, 0.0, 0.3125, 0.0, 14.0)" width="194.75" xlink:href="#font_______W7_O0"/>
      <use fill="#333333" height="12.05" transform="matrix(0.3125, 0.0, 0.0, 0.3125, 10.7, 14.0)" width="194.75" xlink:href="#font_______W7_k0"/>
      <use fill="#333333" height="12.05" transform="matrix(0.3125, 0.0, 0.0, 0.3125, 19.9, 14.0)" width="194.75" xlink:href="#font_______W7__0"/>
      <use fill="#333333" height="12.05" transform="matrix(0.3125, 0.0, 0.0, 0.3125, 30.45, 14.0)" width="194.75" xlink:href="#font_______W7_a0"/>
      <use fill="#333333" height="12.05" transform="matrix(0.3125, 0.0, 0.0, 0.3125, 45.0, 14.0)" width="194.75" xlink:href="#font_______W7_f0"/>
      <use fill="#333333" height="12.05" transform="matrix(0.3125, 0.0, 0.0, 0.3125, 50.8, 14.0)" width="194.75" xlink:href="#font_______W7_r0"/>
      <use fill="#333333" height="12.05" transform="matrix(0.3125, 0.0, 0.0, 0.3125, 56.75, 14.0)" width="194.75" xlink:href="#font_______W7_i0"/>
      <use fill="#333333" height="12.05" transform="matrix(0.3125, 0.0, 0.0, 0.3125, 62.6, 14.0)" width="194.75" xlink:href="#font_______W7_e0"/>
      <use fill="#333333" height="12.05" transform="matrix(0.3125, 0.0, 0.0, 0.3125, 71.55, 14.0)" width="194.75" xlink:href="#font_______W7_n0"/>
      <use fill="#333333" height="12.05" transform="matrix(0.3125, 0.0, 0.0, 0.3125, 80.65, 14.0)" width="194.75" xlink:href="#font_______W7_d0"/>
      <use fill="#333333" height="12.05" transform="matrix(0.3125, 0.0, 0.0, 0.3125, 89.95, 14.0)" width="194.75" xlink:href="#font_______W7_l0"/>
      <use fill="#333333" height="12.05" transform="matrix(0.3125, 0.0, 0.0, 0.3125, 95.8, 14.0)" width="194.75" xlink:href="#font_______W7_y0"/>
      <use fill="#333333" height="12.05" transform="matrix(0.3125, 0.0, 0.0, 0.3125, 109.05, 14.0)" width="194.75" xlink:href="#font_______W7_h0"/>
      <use fill="#333333" height="12.05" transform="matrix(0.3125, 0.0, 0.0, 0.3125, 118.45, 14.0)" width="194.75" xlink:href="#font_______W7_a0"/>
      <use fill="#333333" height="12.05" transform="matrix(0.3125, 0.0, 0.0, 0.3125, 127.65, 14.0)" width="194.75" xlink:href="#font_______W7_n0"/>
      <use fill="#333333" height="12.05" transform="matrix(0.3125, 0.0, 0.0, 0.3125, 136.75, 14.0)" width="194.75" xlink:href="#font_______W7_d0"/>
      <use fill="#333333" height="12.05" transform="matrix(0.3125, 0.0, 0.0, 0.3125, 146.05, 14.0)" width="194.75" xlink:href="#font_______W7_s0"/>
      <use fill="#333333" height="12.05" transform="matrix(0.3125, 0.0, 0.0, 0.3125, 154.35, 14.0)" width="194.75" xlink:href="#font_______W7_h0"/>
      <use fill="#333333" height="12.05" transform="matrix(0.3125, 0.0, 0.0, 0.3125, 163.75, 14.0)" width="194.75" xlink:href="#font_______W7_a0"/>
      <use fill="#333333" height="12.05" transform="matrix(0.3125, 0.0, 0.0, 0.3125, 172.95, 14.0)" width="194.75" xlink:href="#font_______W7_k0"/>
      <use fill="#333333" height="12.05" transform="matrix(0.3125, 0.0, 0.0, 0.3125, 182.15, 14.0)" width="194.75" xlink:href="#font_______W7_e0"/>
      <use fill="#333333" height="12.05" transform="matrix(0.3125, 0.0, 0.0, 0.3125, 191.1, 14.0)" width="194.75" xlink:href="#font_______W7__2"/>
    </g>
  </g>
  <defs>
    <g id="font_______W7_O0">
      <path d="M23.25 -14.75 L23.25 -14.75 Q23.25 -11.3 21.3 -9.0 19.35 -6.7 15.9 -6.7 12.05 -6.7 9.75 -9.9 7.65 -12.8 7.65 -16.85 7.65 -21.4 9.95 -24.25 12.45 -27.3 16.9 -27.3 19.7 -27.3 22.3 -26.25 L18.75 -23.65 Q23.25 -19.2 23.25 -14.75 M32.15 -16.8 L32.15 -16.8 Q32.15 -24.85 27.6 -29.95 L24.0 -27.4 24.9 -30.1 Q20.4 -32.15 16.15 -32.15 9.4 -32.15 5.65 -27.8 2.05 -23.65 2.05 -16.8 2.05 -9.3 5.8 -4.8 9.85 0.05 17.15 0.05 24.6 0.05 28.5 -4.8 32.15 -9.2 32.15 -16.8" fill-rule="evenodd" stroke="none"/>
    </g>
    <g id="font_______W7_k0">
      <path d="M20.35 -12.2 L20.35 -12.2 26.9 -17.9 24.8 -21.8 10.85 -14.65 9.3 -31.45 4.6 -32.15 2.05 0.05 12.1 -1.4 11.35 -9.1 13.25 -6.05 15.8 -8.25 22.05 0.25 28.6 -6.95 20.35 -12.2" fill-rule="evenodd" stroke="none"/>
    </g>
    <g id="font_______W7__0">
      <path d="M11.8 -7.8 L11.8 -7.8 4.75 -8.65 3.0 0.1 10.5 -1.0 4.35 2.8 7.65 6.35 13.6 -0.1 11.8 -7.8" fill-rule="evenodd" stroke="none"/>
    </g>
    <g id="font_______W7_a0">
      <path d="M19.05 -8.85 L19.05 -8.85 18.5 -5.05 17.1 -9.0 Q14.35 -6.2 10.6 -6.2 9.95 -6.2 9.45 -6.75 9.0 -7.2 9.0 -7.85 9.0 -10.2 13.7 -10.2 15.9 -10.2 19.05 -8.85 M27.4 -6.8 L27.4 -6.8 Q27.4 -21.45 13.35 -21.45 7.15 -21.45 2.55 -18.35 L4.3 -14.35 Q8.3 -16.55 13.15 -16.55 17.85 -16.55 18.85 -13.35 15.4 -14.5 12.8 -14.5 8.6 -14.5 5.6 -12.8 1.8 -10.75 1.8 -6.95 1.8 -3.5 4.9 -1.55 7.55 0.05 11.15 0.05 13.95 0.05 17.35 -0.95 L17.0 0.15 26.7 -0.3 Q27.4 -3.45 27.4 -6.8" fill-rule="evenodd" stroke="none"/>
    </g>
    <g id="font_______W7_f0">
      <path d="M16.3 -23.5 L16.3 -23.5 11.45 -22.7 Q11.8 -25.5 12.65 -26.6 13.65 -27.85 16.3 -27.85 L17.0 -27.85 16.25 -32.0 14.1 -32.15 Q5.9 -32.15 5.05 -21.65 L1.3 -20.95 2.15 -16.7 4.55 -16.7 Q4.1 -5.65 4.1 -0.95 L13.95 0.05 Q11.85 -9.65 11.45 -16.65 L17.3 -16.6 16.3 -23.5" fill-rule="evenodd" stroke="none"/>
    </g>
    <g id="font_______W7_r0">
      <path d="M18.3 -20.6 L18.3 -20.6 Q16.55 -21.45 14.75 -21.45 11.5 -21.45 8.7 -18.65 L8.45 -20.75 4.45 -21.45 2.55 0.05 10.65 -1.4 9.3 -12.8 Q10.55 -14.85 12.3 -14.85 13.25 -14.85 14.55 -13.85 L16.55 -12.05 18.3 -20.6" fill-rule="evenodd" stroke="none"/>
    </g>
    <g id="font_______W7_i0">
      <path d="M11.6 -20.75 L11.6 -20.75 6.75 -21.45 4.45 0.05 14.3 -1.4 11.6 -20.75 M11.9 -31.5 L11.9 -31.5 6.5 -32.15 4.9 -24.95 13.2 -26.1 11.9 -31.5" fill-rule="evenodd" stroke="none"/>
    </g>
    <g id="font_______W7_e0">
      <path d="M19.45 -9.9 L19.45 -9.9 Q16.75 -7.55 13.6 -7.55 10.45 -7.55 9.15 -9.9 L19.45 -9.9 M9.0 -13.4 L9.0 -13.4 Q9.7 -14.95 11.5 -15.95 13.2 -16.8 15.1 -16.8 18.05 -16.8 19.65 -14.35 L9.0 -13.4 M23.25 -9.9 L23.25 -9.9 24.3 -9.9 26.7 -12.6 Q25.85 -16.7 22.9 -19.1 19.9 -21.45 15.15 -21.45 9.65 -21.45 5.9 -18.65 1.8 -15.6 1.8 -10.4 1.8 -5.35 5.8 -2.5 9.3 0.05 14.6 0.05 22.45 0.05 27.15 -4.25 L23.25 -9.9" fill-rule="evenodd" stroke="none"/>
    </g>
    <g id="font_______W7_n0">
      <path d="M27.0 -9.05 L27.0 -9.05 Q27.0 -14.5 24.65 -17.8 21.9 -21.45 16.6 -21.45 12.6 -21.45 9.45 -18.85 L9.2 -20.75 4.35 -21.45 2.05 0.05 11.95 -1.4 10.35 -12.55 Q12.95 -15.85 15.9 -15.85 19.4 -15.85 19.4 -10.6 19.4 -6.9 16.6 -1.3 L26.2 0.0 Q27.0 -6.5 27.0 -9.05" fill-rule="evenodd" stroke="none"/>
    </g>
    <g id="font_______W7_d0">
      <path d="M18.35 -8.95 L18.35 -8.95 16.8 -11.9 Q14.75 -9.45 12.45 -9.45 10.9 -9.45 10.0 -10.4 9.1 -11.4 9.1 -12.95 9.1 -14.5 10.7 -15.6 12.15 -16.5 13.7 -16.5 16.6 -16.5 18.8 -14.55 L18.35 -8.95 M24.9 -31.55 L24.9 -31.55 20.15 -32.2 19.15 -19.55 Q16.05 -21.45 12.65 -21.45 8.15 -21.45 4.95 -18.25 1.8 -15.0 1.8 -10.5 1.8 -6.05 4.6 -3.05 7.4 0.05 11.85 0.05 14.65 0.05 17.7 -1.5 L17.6 0.0 27.65 -1.45 24.9 -31.55" fill-rule="evenodd" stroke="none"/>
    </g>
    <g id="font_______W7_l0">
      <path d="M11.6 -31.5 L11.6 -31.5 6.9 -32.15 4.35 0.05 14.4 -1.4 11.6 -31.5" fill-rule="evenodd" stroke="none"/>
    </g>
    <g id="font_______W7_y0">
      <path d="M21.2 -21.45 L21.2 -21.45 13.15 -10.8 3.65 -21.45 0.5 -19.75 8.5 -4.7 4.3 0.85 12.5 4.75 24.85 -19.65 21.2 -21.45" fill-rule="evenodd" stroke="none"/>
    </g>
    <g id="font_______W7_h0">
      <path d="M28.1 -7.6 L28.1 -7.6 Q28.1 -13.7 25.7 -17.25 22.9 -21.45 17.05 -21.45 13.35 -21.45 10.45 -19.3 L9.3 -31.55 4.65 -32.15 2.05 0.05 12.1 -1.4 11.0 -12.9 Q13.45 -15.95 16.35 -15.95 20.1 -15.95 20.1 -10.2 20.1 -6.55 17.6 -1.55 L27.6 0.05 28.1 -7.6" fill-rule="evenodd" stroke="none"/>
    </g>
    <g id="font_______W7_s0">
      <path d="M25.05 -6.35 L25.05 -6.35 Q25.05 -12.25 15.35 -13.65 8.7 -14.6 8.7 -15.7 8.7 -17.05 12.35 -17.05 17.1 -17.05 22.25 -14.8 L23.8 -18.2 Q19.05 -21.45 12.25 -21.45 8.55 -21.45 6.05 -20.35 2.6 -18.85 2.6 -15.7 2.6 -13.1 4.75 -11.8 6.5 -10.75 10.95 -10.05 L16.3 -8.95 Q17.8 -8.4 17.8 -7.5 17.8 -6.2 15.25 -6.2 12.3 -6.2 9.1 -7.45 5.9 -8.7 3.8 -10.65 L1.0 -2.6 Q6.45 0.05 14.3 0.05 25.05 0.05 25.05 -6.35" fill-rule="evenodd" stroke="none"/>
    </g>
    <g id="font_______W7__2">
      <path d="M12.1 -7.5 L12.1 -7.5 5.1 -8.35 3.35 0.05 13.7 -1.15 12.1 -7.5 M11.0 -31.5 L11.0 -31.5 6.15 -32.15 4.3 -10.7 13.2 -12.15 11.0 -31.5" fill-rule="evenodd" stroke="none"/>
    </g>
  </defs>
</svg>
