<?xml version="1.0" encoding="UTF-8" standalone="no"?>
<svg xmlns:xlink="http://www.w3.org/1999/xlink" height="12.05px" width="182.65px" xmlns="http://www.w3.org/2000/svg">
  <g transform="matrix(1.0, 0.0, 0.0, 1.0, 35.35, -3.95)">
    <g transform="matrix(1.0, 0.0, 0.0, 1.0, -36.25, 0.0)">
      <use fill="#333333" height="12.05" transform="matrix(0.3125, 0.0, 0.0, 0.3125, 0.0, 14.0)" width="182.65" xlink:href="#font_______W7_F0"/>
      <use fill="#333333" height="12.05" transform="matrix(0.3125, 0.0, 0.0, 0.3125, 10.25, 14.0)" width="182.65" xlink:href="#font_______W7_i0"/>
      <use fill="#333333" height="12.05" transform="matrix(0.3125, 0.0, 0.0, 0.3125, 16.1, 14.0)" width="182.65" xlink:href="#font_______W7_r0"/>
      <use fill="#333333" height="12.05" transform="matrix(0.3125, 0.0, 0.0, 0.3125, 22.05, 14.0)" width="182.65" xlink:href="#font_______W7_s0"/>
      <use fill="#333333" height="12.05" transform="matrix(0.3125, 0.0, 0.0, 0.3125, 30.35, 14.0)" width="182.65" xlink:href="#font_______W7_t0"/>
      <use fill="#333333" height="12.05" transform="matrix(0.3125, 0.0, 0.0, 0.3125, 37.95, 14.0)" width="182.65" xlink:href="#font_______W7__0"/>
      <use fill="#333333" height="12.05" transform="matrix(0.3125, 0.0, 0.0, 0.3125, 48.5, 14.0)" width="182.65" xlink:href="#font_______W7_a0"/>
      <use fill="#333333" height="12.05" transform="matrix(0.3125, 0.0, 0.0, 0.3125, 63.05, 14.0)" width="182.65" xlink:href="#font_______W7_s0"/>
      <use fill="#333333" height="12.05" transform="matrix(0.3125, 0.0, 0.0, 0.3125, 71.35, 14.0)" width="182.65" xlink:href="#font_______W7_a0"/>
      <use fill="#333333" height="12.05" transform="matrix(0.3125, 0.0, 0.0, 0.3125, 80.55, 14.0)" width="182.65" xlink:href="#font_______W7_l0"/>
      <use fill="#333333" height="12.05" transform="matrix(0.3125, 0.0, 0.0, 0.3125, 86.4, 14.0)" width="182.65" xlink:href="#font_______W7_e0"/>
      <use fill="#333333" height="12.05" transform="matrix(0.3125, 0.0, 0.0, 0.3125, 95.35, 14.0)" width="182.65" xlink:href="#font_______W7_s0"/>
      <use fill="#333333" height="12.05" transform="matrix(0.3125, 0.0, 0.0, 0.3125, 109.0, 14.0)" width="182.65" xlink:href="#font_______W7_r0"/>
      <use fill="#333333" height="12.05" transform="matrix(0.3125, 0.0, 0.0, 0.3125, 114.95, 14.0)" width="182.65" xlink:href="#font_______W7_e0"/>
      <use fill="#333333" height="12.05" transform="matrix(0.3125, 0.0, 0.0, 0.3125, 123.9, 14.0)" width="182.65" xlink:href="#font_______W7_p0"/>
      <use fill="#333333" height="12.05" transform="matrix(0.3125, 0.0, 0.0, 0.3125, 138.5, 14.0)" width="182.65" xlink:href="#font_______W7_s0"/>
      <use fill="#333333" height="12.05" transform="matrix(0.3125, 0.0, 0.0, 0.3125, 146.8, 14.0)" width="182.65" xlink:href="#font_______W7_m0"/>
      <use fill="#333333" height="12.05" transform="matrix(0.3125, 0.0, 0.0, 0.3125, 158.5, 14.0)" width="182.65" xlink:href="#font_______W7_i0"/>
      <use fill="#333333" height="12.05" transform="matrix(0.3125, 0.0, 0.0, 0.3125, 164.35, 14.0)" width="182.65" xlink:href="#font_______W7_l0"/>
      <use fill="#333333" height="12.05" transform="matrix(0.3125, 0.0, 0.0, 0.3125, 170.2, 14.0)" width="182.65" xlink:href="#font_______W7_e0"/>
      <use fill="#333333" height="12.05" transform="matrix(0.3125, 0.0, 0.0, 0.3125, 179.15, 14.0)" width="182.65" xlink:href="#font_______W7__2"/>
    </g>
  </g>
  <defs>
    <g id="font_______W7_F0">
      <path d="M30.3 -31.55 L30.3 -31.55 10.45 -29.1 10.2 -31.5 5.3 -32.15 2.55 0.05 13.15 -1.1 12.2 -11.25 30.3 -11.25 28.75 -18.75 11.65 -16.25 10.9 -24.05 31.8 -24.05 30.3 -31.55" fill-rule="evenodd" stroke="none"/>
    </g>
    <g id="font_______W7_i0">
      <path d="M11.6 -20.75 L11.6 -20.75 6.75 -21.45 4.45 0.05 14.3 -1.4 11.6 -20.75 M11.9 -31.5 L11.9 -31.5 6.5 -32.15 4.9 -24.95 13.2 -26.1 11.9 -31.5" fill-rule="evenodd" stroke="none"/>
    </g>
    <g id="font_______W7_r0">
      <path d="M18.3 -20.6 L18.3 -20.6 Q16.55 -21.45 14.75 -21.45 11.5 -21.45 8.7 -18.65 L8.45 -20.75 4.45 -21.45 2.55 0.05 10.65 -1.4 9.3 -12.8 Q10.55 -14.85 12.3 -14.85 13.25 -14.85 14.55 -13.85 L16.55 -12.05 18.3 -20.6" fill-rule="evenodd" stroke="none"/>
    </g>
    <g id="font_______W7_s0">
      <path d="M25.05 -6.35 L25.05 -6.35 Q25.05 -12.25 15.35 -13.65 8.7 -14.6 8.7 -15.7 8.7 -17.05 12.35 -17.05 17.1 -17.05 22.25 -14.8 L23.8 -18.2 Q19.05 -21.45 12.25 -21.45 8.55 -21.45 6.05 -20.35 2.6 -18.85 2.6 -15.7 2.6 -13.1 4.75 -11.8 6.5 -10.75 10.95 -10.05 L16.3 -8.95 Q17.8 -8.4 17.8 -7.5 17.8 -6.2 15.25 -6.2 12.3 -6.2 9.1 -7.45 5.9 -8.7 3.8 -10.65 L1.0 -2.6 Q6.45 0.05 14.3 0.05 25.05 0.05 25.05 -6.35" fill-rule="evenodd" stroke="none"/>
    </g>
    <g id="font_______W7_t0">
      <path d="M18.7 -12.2 L18.7 -12.2 Q17.0 -9.35 14.9 -9.35 11.95 -9.35 11.95 -15.4 L21.65 -15.4 20.1 -22.55 12.4 -21.45 Q12.75 -24.2 13.6 -27.95 L8.95 -28.85 Q7.75 -24.65 7.1 -20.75 L0.75 -19.9 1.75 -15.4 6.55 -15.4 6.5 -12.55 Q6.5 -6.8 7.75 -4.05 9.5 0.05 14.55 0.05 19.1 0.05 23.25 -4.15 L18.7 -12.2" fill-rule="evenodd" stroke="none"/>
    </g>
    <g id="font_______W7__0">
      <path d="M11.8 -7.8 L11.8 -7.8 4.75 -8.65 3.0 0.1 10.5 -1.0 4.35 2.8 7.65 6.35 13.6 -0.1 11.8 -7.8" fill-rule="evenodd" stroke="none"/>
    </g>
    <g id="font_______W7_a0">
      <path d="M19.05 -8.85 L19.05 -8.85 18.5 -5.05 17.1 -9.0 Q14.35 -6.2 10.6 -6.2 9.95 -6.2 9.45 -6.75 9.0 -7.2 9.0 -7.85 9.0 -10.2 13.7 -10.2 15.9 -10.2 19.05 -8.85 M27.4 -6.8 L27.4 -6.8 Q27.4 -21.45 13.35 -21.45 7.15 -21.45 2.55 -18.35 L4.3 -14.35 Q8.3 -16.55 13.15 -16.55 17.85 -16.55 18.85 -13.35 15.4 -14.5 12.8 -14.5 8.6 -14.5 5.6 -12.8 1.8 -10.75 1.8 -6.95 1.8 -3.5 4.9 -1.55 7.55 0.05 11.15 0.05 13.95 0.05 17.35 -0.95 L17.0 0.15 26.7 -0.3 Q27.4 -3.45 27.4 -6.8" fill-rule="evenodd" stroke="none"/>
    </g>
    <g id="font_______W7_l0">
      <path d="M11.6 -31.5 L11.6 -31.5 6.9 -32.15 4.35 0.05 14.4 -1.4 11.6 -31.5" fill-rule="evenodd" stroke="none"/>
    </g>
    <g id="font_______W7_e0">
      <path d="M19.45 -9.9 L19.45 -9.9 Q16.75 -7.55 13.6 -7.55 10.45 -7.55 9.15 -9.9 L19.45 -9.9 M9.0 -13.4 L9.0 -13.4 Q9.7 -14.95 11.5 -15.95 13.2 -16.8 15.1 -16.8 18.05 -16.8 19.65 -14.35 L9.0 -13.4 M23.25 -9.9 L23.25 -9.9 24.3 -9.9 26.7 -12.6 Q25.85 -16.7 22.9 -19.1 19.9 -21.45 15.15 -21.45 9.65 -21.45 5.9 -18.65 1.8 -15.6 1.8 -10.4 1.8 -5.35 5.8 -2.5 9.3 0.05 14.6 0.05 22.45 0.05 27.15 -4.25 L23.25 -9.9" fill-rule="evenodd" stroke="none"/>
    </g>
    <g id="font_______W7_p0">
      <path d="M20.7 -12.7 L20.7 -12.7 Q20.7 -9.3 17.35 -9.3 14.95 -9.3 12.7 -12.0 L10.6 -8.4 10.05 -13.4 Q12.6 -16.55 16.2 -16.55 18.05 -16.55 19.35 -15.55 20.7 -14.5 20.7 -12.7 M27.8 -10.85 L27.8 -10.85 Q27.8 -15.55 24.6 -18.5 21.4 -21.45 16.7 -21.45 12.55 -21.45 9.35 -19.15 L9.2 -20.75 4.35 -21.45 2.05 4.75 11.95 3.3 11.35 -1.45 Q14.35 0.05 17.2 0.05 21.85 0.05 24.85 -3.05 27.8 -6.15 27.8 -10.85" fill-rule="evenodd" stroke="none"/>
    </g>
    <g id="font_______W7_m0">
      <path d="M35.35 -9.0 L35.35 -9.0 Q35.35 -21.45 27.8 -21.45 24.2 -21.45 21.15 -18.8 19.2 -21.45 15.65 -21.45 12.4 -21.45 9.45 -19.2 L9.25 -20.75 4.35 -21.45 2.05 0.05 11.95 -1.4 10.25 -13.85 Q12.25 -15.8 13.75 -15.8 16.4 -15.8 16.4 -11.2 16.4 -8.95 15.2 -5.8 L12.95 -0.75 22.1 0.1 Q23.3 -4.75 23.3 -9.55 23.3 -12.35 22.95 -14.3 24.5 -15.7 25.75 -15.7 28.25 -15.7 28.25 -11.2 28.25 -7.95 25.1 -0.65 L34.25 0.2 Q35.35 -4.25 35.35 -9.0" fill-rule="evenodd" stroke="none"/>
    </g>
    <g id="font_______W7__2">
      <path d="M12.1 -7.5 L12.1 -7.5 5.1 -8.35 3.35 0.05 13.7 -1.15 12.1 -7.5 M11.0 -31.5 L11.0 -31.5 6.15 -32.15 4.3 -10.7 13.2 -12.15 11.0 -31.5" fill-rule="evenodd" stroke="none"/>
    </g>
  </defs>
</svg>
