<?xml version="1.0" encoding="UTF-8" standalone="no"?>
<svg xmlns:xlink="http://www.w3.org/1999/xlink" height="31.55px" width="144.7px" xmlns="http://www.w3.org/2000/svg">
  <g transform="matrix(1.0, 0.0, 0.0, 1.0, 52.65, -3.95)">
    <g transform="matrix(1.0, 0.0, 0.0, 1.0, -69.35, 0.0)">
      <use fill="#333333" height="31.55" transform="matrix(0.3125, 0.0, 0.0, 0.3125, 16.0, 14.0)" width="144.7" xlink:href="#font_______W7_L0"/>
      <use fill="#333333" height="31.55" transform="matrix(0.3125, 0.0, 0.0, 0.3125, 26.25, 14.0)" width="144.7" xlink:href="#font_______W7_o0"/>
      <use fill="#333333" height="31.55" transform="matrix(0.3125, 0.0, 0.0, 0.3125, 34.85, 14.0)" width="144.7" xlink:href="#font_______W7_o0"/>
      <use fill="#333333" height="31.55" transform="matrix(0.3125, 0.0, 0.0, 0.3125, 43.45, 14.0)" width="144.7" xlink:href="#font_______W7_k0"/>
      <use fill="#333333" height="31.55" transform="matrix(0.3125, 0.0, 0.0, 0.3125, 58.0, 14.0)" width="144.7" xlink:href="#font_______W7_a0"/>
      <use fill="#333333" height="31.55" transform="matrix(0.3125, 0.0, 0.0, 0.3125, 67.2, 14.0)" width="144.7" xlink:href="#font_______W7_t0"/>
      <use fill="#333333" height="31.55" transform="matrix(0.3125, 0.0, 0.0, 0.3125, 80.15, 14.0)" width="144.7" xlink:href="#font_______W7_t0"/>
      <use fill="#333333" height="31.55" transform="matrix(0.3125, 0.0, 0.0, 0.3125, 87.75, 14.0)" width="144.7" xlink:href="#font_______W7_h0"/>
      <use fill="#333333" height="31.55" transform="matrix(0.3125, 0.0, 0.0, 0.3125, 97.15, 14.0)" width="144.7" xlink:href="#font_______W7_i0"/>
      <use fill="#333333" height="31.55" transform="matrix(0.3125, 0.0, 0.0, 0.3125, 103.0, 14.0)" width="144.7" xlink:href="#font_______W7_s0"/>
      <use fill="#333333" height="31.55" transform="matrix(0.3125, 0.0, 0.0, 0.3125, 116.65, 14.0)" width="144.7" xlink:href="#font_______W7_h0"/>
      <use fill="#333333" height="31.55" transform="matrix(0.3125, 0.0, 0.0, 0.3125, 126.05, 14.0)" width="144.7" xlink:href="#font_______W7_a0"/>
      <use fill="#333333" height="31.55" transform="matrix(0.3125, 0.0, 0.0, 0.3125, 135.25, 14.0)" width="144.7" xlink:href="#font_______W7_p0"/>
      <use fill="#333333" height="31.55" transform="matrix(0.3125, 0.0, 0.0, 0.3125, 144.5, 14.0)" width="144.7" xlink:href="#font_______W7_p0"/>
      <use fill="#333333" height="31.55" transform="matrix(0.3125, 0.0, 0.0, 0.3125, 153.75, 14.0)" width="144.7" xlink:href="#font_______W7_y0"/>
    </g>
    <g transform="matrix(1.0, 0.0, 0.0, 1.0, -69.35, 0.0)">
      <use fill="#333333" height="31.55" transform="matrix(0.3125, 0.0, 0.0, 0.3125, 39.0, 34.0)" width="144.7" xlink:href="#font_______W7_s0"/>
      <use fill="#333333" height="31.55" transform="matrix(0.3125, 0.0, 0.0, 0.3125, 47.3, 34.0)" width="144.7" xlink:href="#font_______W7_h0"/>
      <use fill="#333333" height="31.55" transform="matrix(0.3125, 0.0, 0.0, 0.3125, 56.7, 34.0)" width="144.7" xlink:href="#font_______W7_i0"/>
      <use fill="#333333" height="31.55" transform="matrix(0.3125, 0.0, 0.0, 0.3125, 62.55, 34.0)" width="144.7" xlink:href="#font_______W7_n0"/>
      <use fill="#333333" height="31.55" transform="matrix(0.3125, 0.0, 0.0, 0.3125, 71.65, 34.0)" width="144.7" xlink:href="#font_______W7_i0"/>
      <use fill="#333333" height="31.55" transform="matrix(0.3125, 0.0, 0.0, 0.3125, 77.5, 34.0)" width="144.7" xlink:href="#font_______W7_n0"/>
      <use fill="#333333" height="31.55" transform="matrix(0.3125, 0.0, 0.0, 0.3125, 86.6, 34.0)" width="144.7" xlink:href="#font_______W7_g0"/>
      <use fill="#333333" height="31.55" transform="matrix(0.3125, 0.0, 0.0, 0.3125, 100.8, 34.0)" width="144.7" xlink:href="#font_______W7_f0"/>
      <use fill="#333333" height="31.55" transform="matrix(0.3125, 0.0, 0.0, 0.3125, 106.6, 34.0)" width="144.7" xlink:href="#font_______W7_a0"/>
      <use fill="#333333" height="31.55" transform="matrix(0.3125, 0.0, 0.0, 0.3125, 115.8, 34.0)" width="144.7" xlink:href="#font_______W7_c0"/>
      <use fill="#333333" height="31.55" transform="matrix(0.3125, 0.0, 0.0, 0.3125, 124.4, 34.0)" width="144.7" xlink:href="#font_______W7_e0"/>
      <use fill="#333333" height="31.55" transform="matrix(0.3125, 0.0, 0.0, 0.3125, 133.35, 34.0)" width="144.7" xlink:href="#font_______W7__1"/>
    </g>
  </g>
  <defs>
    <g id="font_______W7_L0">
      <path d="M30.55 -8.45 L30.55 -8.45 12.65 -6.2 10.2 -31.55 5.3 -32.15 2.55 0.05 8.05 -0.55 32.1 -0.65 30.55 -8.45" fill-rule="evenodd" stroke="none"/>
    </g>
    <g id="font_______W7_o0">
      <path d="M15.8 -13.5 L15.8 -13.5 Q16.45 -11.85 16.45 -10.4 16.45 -6.85 12.35 -6.85 10.6 -6.85 9.35 -8.05 8.15 -9.35 8.15 -11.05 8.15 -13.25 9.8 -14.6 11.4 -16.0 13.7 -16.0 16.1 -16.0 18.3 -14.3 L15.8 -13.5 M25.7 -11.4 L25.7 -11.4 Q25.7 -13.8 24.75 -16.35 L21.25 -15.25 22.7 -17.2 Q18.35 -21.45 13.15 -21.45 8.45 -21.45 5.1 -18.2 1.8 -14.95 1.8 -10.3 1.8 -5.5 5.4 -2.65 8.65 0.05 13.65 0.05 18.75 0.05 22.2 -3.2 25.7 -6.4 25.7 -11.4" fill-rule="evenodd" stroke="none"/>
    </g>
    <g id="font_______W7_k0">
      <path d="M20.35 -12.2 L20.35 -12.2 26.9 -17.9 24.8 -21.8 10.85 -14.65 9.3 -31.45 4.6 -32.15 2.05 0.05 12.1 -1.4 11.35 -9.1 13.25 -6.05 15.8 -8.25 22.05 0.25 28.6 -6.95 20.35 -12.2" fill-rule="evenodd" stroke="none"/>
    </g>
    <g id="font_______W7_a0">
      <path d="M19.05 -8.85 L19.05 -8.85 18.5 -5.05 17.1 -9.0 Q14.35 -6.2 10.6 -6.2 9.95 -6.2 9.45 -6.75 9.0 -7.2 9.0 -7.85 9.0 -10.2 13.7 -10.2 15.9 -10.2 19.05 -8.85 M27.4 -6.8 L27.4 -6.8 Q27.4 -21.45 13.35 -21.45 7.15 -21.45 2.55 -18.35 L4.3 -14.35 Q8.3 -16.55 13.15 -16.55 17.85 -16.55 18.85 -13.35 15.4 -14.5 12.8 -14.5 8.6 -14.5 5.6 -12.8 1.8 -10.75 1.8 -6.95 1.8 -3.5 4.9 -1.55 7.55 0.05 11.15 0.05 13.95 0.05 17.35 -0.95 L17.0 0.15 26.7 -0.3 Q27.4 -3.45 27.4 -6.8" fill-rule="evenodd" stroke="none"/>
    </g>
    <g id="font_______W7_t0">
      <path d="M18.7 -12.2 L18.7 -12.2 Q17.0 -9.35 14.9 -9.35 11.95 -9.35 11.95 -15.4 L21.65 -15.4 20.1 -22.55 12.4 -21.45 Q12.75 -24.2 13.6 -27.95 L8.95 -28.85 Q7.75 -24.65 7.1 -20.75 L0.75 -19.9 1.75 -15.4 6.55 -15.4 6.5 -12.55 Q6.5 -6.8 7.75 -4.05 9.5 0.05 14.55 0.05 19.1 0.05 23.25 -4.15 L18.7 -12.2" fill-rule="evenodd" stroke="none"/>
    </g>
    <g id="font_______W7_h0">
      <path d="M28.1 -7.6 L28.1 -7.6 Q28.1 -13.7 25.7 -17.25 22.9 -21.45 17.05 -21.45 13.35 -21.45 10.45 -19.3 L9.3 -31.55 4.65 -32.15 2.05 0.05 12.1 -1.4 11.0 -12.9 Q13.45 -15.95 16.35 -15.95 20.1 -15.95 20.1 -10.2 20.1 -6.55 17.6 -1.55 L27.6 0.05 28.1 -7.6" fill-rule="evenodd" stroke="none"/>
    </g>
    <g id="font_______W7_i0">
      <path d="M11.6 -20.75 L11.6 -20.75 6.75 -21.45 4.45 0.05 14.3 -1.4 11.6 -20.75 M11.9 -31.5 L11.9 -31.5 6.5 -32.15 4.9 -24.95 13.2 -26.1 11.9 -31.5" fill-rule="evenodd" stroke="none"/>
    </g>
    <g id="font_______W7_s0">
      <path d="M25.05 -6.35 L25.05 -6.35 Q25.05 -12.25 15.35 -13.65 8.7 -14.6 8.7 -15.7 8.7 -17.05 12.35 -17.05 17.1 -17.05 22.25 -14.8 L23.8 -18.2 Q19.05 -21.45 12.25 -21.45 8.55 -21.45 6.05 -20.35 2.6 -18.85 2.6 -15.7 2.6 -13.1 4.75 -11.8 6.5 -10.75 10.95 -10.05 L16.3 -8.95 Q17.8 -8.4 17.8 -7.5 17.8 -6.2 15.25 -6.2 12.3 -6.2 9.1 -7.45 5.9 -8.7 3.8 -10.65 L1.0 -2.6 Q6.45 0.05 14.3 0.05 25.05 0.05 25.05 -6.35" fill-rule="evenodd" stroke="none"/>
    </g>
    <g id="font_______W7_p0">
      <path d="M20.7 -12.7 L20.7 -12.7 Q20.7 -9.3 17.35 -9.3 14.95 -9.3 12.7 -12.0 L10.6 -8.4 10.05 -13.4 Q12.6 -16.55 16.2 -16.55 18.05 -16.55 19.35 -15.55 20.7 -14.5 20.7 -12.7 M27.8 -10.85 L27.8 -10.85 Q27.8 -15.55 24.6 -18.5 21.4 -21.45 16.7 -21.45 12.55 -21.45 9.35 -19.15 L9.2 -20.75 4.35 -21.45 2.05 4.75 11.95 3.3 11.35 -1.45 Q14.35 0.05 17.2 0.05 21.85 0.05 24.85 -3.05 27.8 -6.15 27.8 -10.85" fill-rule="evenodd" stroke="none"/>
    </g>
    <g id="font_______W7_y0">
      <path d="M21.2 -21.45 L21.2 -21.45 13.15 -10.8 3.65 -21.45 0.5 -19.75 8.5 -4.7 4.3 0.85 12.5 4.75 24.85 -19.65 21.2 -21.45" fill-rule="evenodd" stroke="none"/>
    </g>
    <g id="font_______W7_n0">
      <path d="M27.0 -9.05 L27.0 -9.05 Q27.0 -14.5 24.65 -17.8 21.9 -21.45 16.6 -21.45 12.6 -21.45 9.45 -18.85 L9.2 -20.75 4.35 -21.45 2.05 0.05 11.95 -1.4 10.35 -12.55 Q12.95 -15.85 15.9 -15.85 19.4 -15.85 19.4 -10.6 19.4 -6.9 16.6 -1.3 L26.2 0.0 Q27.0 -6.5 27.0 -9.05" fill-rule="evenodd" stroke="none"/>
    </g>
    <g id="font_______W7_g0">
      <path d="M21.25 -12.75 L21.25 -12.75 21.05 -10.5 18.9 -14.7 Q15.2 -11.7 11.9 -11.7 10.85 -11.7 10.0 -12.55 9.05 -13.45 9.05 -14.45 9.05 -16.75 13.35 -16.75 15.6 -16.75 18.05 -15.7 20.3 -14.7 21.2 -13.55 L21.25 -12.75 M26.3 -10.4 L26.3 -10.4 Q26.3 -15.45 24.2 -21.5 L20.0 -20.3 20.3 -19.15 Q16.35 -21.45 12.1 -21.45 8.15 -21.45 5.4 -19.3 2.35 -16.95 2.35 -13.2 2.35 -9.45 5.85 -7.35 8.8 -5.6 12.75 -5.6 16.55 -5.6 19.75 -6.9 17.8 -3.95 13.25 -3.95 8.55 -3.95 4.75 -6.35 L1.8 2.9 Q6.7 4.75 11.2 4.75 18.25 4.75 22.25 0.65 26.3 -3.4 26.3 -10.4" fill-rule="evenodd" stroke="none"/>
    </g>
    <g id="font_______W7_f0">
      <path d="M16.3 -23.5 L16.3 -23.5 11.45 -22.7 Q11.8 -25.5 12.65 -26.6 13.65 -27.85 16.3 -27.85 L17.0 -27.85 16.25 -32.0 14.1 -32.15 Q5.9 -32.15 5.05 -21.65 L1.3 -20.95 2.15 -16.7 4.55 -16.7 Q4.1 -5.65 4.1 -0.95 L13.95 0.05 Q11.85 -9.65 11.45 -16.65 L17.3 -16.6 16.3 -23.5" fill-rule="evenodd" stroke="none"/>
    </g>
    <g id="font_______W7_c0">
      <path d="M21.35 -12.5 L21.35 -12.5 Q19.95 -10.5 17.75 -9.15 15.35 -7.6 13.15 -7.6 11.4 -7.6 10.2 -8.85 8.9 -10.05 8.9 -11.8 8.9 -14.1 10.65 -15.4 12.2 -16.55 14.55 -16.55 18.9 -16.55 21.9 -13.7 L24.4 -17.55 Q19.65 -21.45 13.1 -21.45 8.05 -21.45 4.9 -18.4 1.8 -15.3 1.8 -10.3 1.8 -5.6 5.7 -2.65 9.25 0.05 14.1 0.05 17.2 0.05 20.45 -1.1 24.05 -2.3 25.9 -4.4 L21.35 -12.5" fill-rule="evenodd" stroke="none"/>
    </g>
    <g id="font_______W7_e0">
      <path d="M19.45 -9.9 L19.45 -9.9 Q16.75 -7.55 13.6 -7.55 10.45 -7.55 9.15 -9.9 L19.45 -9.9 M9.0 -13.4 L9.0 -13.4 Q9.7 -14.95 11.5 -15.95 13.2 -16.8 15.1 -16.8 18.05 -16.8 19.65 -14.35 L9.0 -13.4 M23.25 -9.9 L23.25 -9.9 24.3 -9.9 26.7 -12.6 Q25.85 -16.7 22.9 -19.1 19.9 -21.45 15.15 -21.45 9.65 -21.45 5.9 -18.65 1.8 -15.6 1.8 -10.4 1.8 -5.35 5.8 -2.5 9.3 0.05 14.6 0.05 22.45 0.05 27.15 -4.25 L23.25 -9.9" fill-rule="evenodd" stroke="none"/>
    </g>
    <g id="font_______W7__1">
      <path d="M12.1 -7.5 L12.1 -7.5 5.1 -8.35 3.35 0.05 13.7 -1.15 12.1 -7.5 M11.0 -31.5 L11.0 -31.5 6.15 -32.15 4.3 -10.7 13.2 -12.15 11.0 -31.5" fill-rule="evenodd" stroke="none"/>
    </g>
  </defs>
</svg>
