<?xml version="1.0" encoding="UTF-8" standalone="no"?>
<svg xmlns:xlink="http://www.w3.org/1999/xlink" height="26.3px" width="64.9px" xmlns="http://www.w3.org/2000/svg">
  <g transform="matrix(1.0, 0.0, 0.0, 1.0, -11.65, -3.7)">
    <g transform="matrix(1.0, 0.0, 0.0, 1.0, 0.0, 0.0)">
      <use fill="#cccccc" height="26.3" transform="matrix(0.3516, 0.0, 0.0, 0.3516, 11.0, 15.0)" width="64.9" xlink:href="#font_______W7_K0"/>
      <use fill="#cccccc" height="26.3" transform="matrix(0.3516, 0.0, 0.0, 0.3516, 22.2, 15.0)" width="64.9" xlink:href="#font_______W7_n0"/>
      <use fill="#cccccc" height="26.3" transform="matrix(0.3516, 0.0, 0.0, 0.3516, 31.4, 15.0)" width="64.9" xlink:href="#font_______W7_o0"/>
      <use fill="#cccccc" height="26.3" transform="matrix(0.3516, 0.0, 0.0, 0.3516, 40.05, 15.0)" width="64.9" xlink:href="#font_______W7_c0"/>
      <use fill="#cccccc" height="26.3" transform="matrix(0.3516, 0.0, 0.0, 0.3516, 48.7, 15.0)" width="64.9" xlink:href="#font_______W7_k0"/>
      <use fill="#cccccc" height="26.3" transform="matrix(0.3516, 0.0, 0.0, 0.3516, 58.05, 15.0)" width="64.9" xlink:href="#font_______W7_e0"/>
      <use fill="#cccccc" height="26.3" transform="matrix(0.3516, 0.0, 0.0, 0.3516, 67.1, 15.0)" width="64.9" xlink:href="#font_______W7_d0"/>
    </g>
    <g transform="matrix(1.0, 0.0, 0.0, 1.0, 0.0, 0.0)">
      <use fill="#cccccc" height="26.3" transform="matrix(0.3516, 0.0, 0.0, 0.3516, 26.0, 30.0)" width="64.9" xlink:href="#font_______W7_O0"/>
      <use fill="#cccccc" height="26.3" transform="matrix(0.3516, 0.0, 0.0, 0.3516, 37.0, 30.0)" width="64.9" xlink:href="#font_______W7_v0"/>
      <use fill="#cccccc" height="26.3" transform="matrix(0.3516, 0.0, 0.0, 0.3516, 45.65, 30.0)" width="64.9" xlink:href="#font_______W7_e0"/>
      <use fill="#cccccc" height="26.3" transform="matrix(0.3516, 0.0, 0.0, 0.3516, 54.7, 30.0)" width="64.9" xlink:href="#font_______W7_r0"/>
    </g>
  </g>
  <defs>
    <g id="font_______W7_K0">
      <path d="M20.85 -18.65 L20.85 -18.65 30.3 -28.75 27.65 -32.05 11.2 -21.35 10.25 -31.5 5.3 -32.15 2.55 0.0 13.15 -1.15 11.85 -14.85 14.15 -11.55 17.0 -14.55 25.45 0.05 33.2 -6.85 20.85 -18.65" fill-rule="evenodd" stroke="none"/>
    </g>
    <g id="font_______W7_n0">
      <path d="M27.0 -9.05 L27.0 -9.05 Q27.0 -14.5 24.65 -17.8 21.9 -21.45 16.6 -21.45 12.6 -21.45 9.45 -18.85 L9.2 -20.75 4.35 -21.45 2.05 0.05 11.95 -1.4 10.35 -12.55 Q12.95 -15.85 15.9 -15.85 19.4 -15.85 19.4 -10.6 19.4 -6.9 16.6 -1.3 L26.2 0.0 Q27.0 -6.5 27.0 -9.05" fill-rule="evenodd" stroke="none"/>
    </g>
    <g id="font_______W7_o0">
      <path d="M15.8 -13.5 L15.8 -13.5 Q16.45 -11.85 16.45 -10.4 16.45 -6.85 12.35 -6.85 10.6 -6.85 9.35 -8.05 8.15 -9.35 8.15 -11.05 8.15 -13.25 9.8 -14.6 11.4 -16.0 13.7 -16.0 16.1 -16.0 18.3 -14.3 L15.8 -13.5 M25.7 -11.4 L25.7 -11.4 Q25.7 -13.8 24.75 -16.35 L21.25 -15.25 22.7 -17.2 Q18.35 -21.45 13.15 -21.45 8.45 -21.45 5.1 -18.2 1.8 -14.95 1.8 -10.3 1.8 -5.5 5.4 -2.65 8.65 0.05 13.65 0.05 18.75 0.05 22.2 -3.2 25.7 -6.4 25.7 -11.4" fill-rule="evenodd" stroke="none"/>
    </g>
    <g id="font_______W7_c0">
      <path d="M21.35 -12.5 L21.35 -12.5 Q19.95 -10.5 17.75 -9.15 15.35 -7.6 13.15 -7.6 11.4 -7.6 10.2 -8.85 8.9 -10.05 8.9 -11.8 8.9 -14.1 10.65 -15.4 12.2 -16.55 14.55 -16.55 18.9 -16.55 21.9 -13.7 L24.4 -17.55 Q19.65 -21.45 13.1 -21.45 8.05 -21.45 4.9 -18.4 1.8 -15.3 1.8 -10.3 1.8 -5.6 5.7 -2.65 9.25 0.05 14.1 0.05 17.2 0.05 20.45 -1.1 24.05 -2.3 25.9 -4.4 L21.35 -12.5" fill-rule="evenodd" stroke="none"/>
    </g>
    <g id="font_______W7_k0">
      <path d="M20.35 -12.2 L20.35 -12.2 26.9 -17.9 24.8 -21.8 10.85 -14.65 9.3 -31.45 4.6 -32.15 2.05 0.05 12.1 -1.4 11.35 -9.1 13.25 -6.05 15.8 -8.25 22.05 0.25 28.6 -6.95 20.35 -12.2" fill-rule="evenodd" stroke="none"/>
    </g>
    <g id="font_______W7_e0">
      <path d="M19.45 -9.9 L19.45 -9.9 Q16.75 -7.55 13.6 -7.55 10.45 -7.55 9.15 -9.9 L19.45 -9.9 M9.0 -13.4 L9.0 -13.4 Q9.7 -14.95 11.5 -15.95 13.2 -16.8 15.1 -16.8 18.05 -16.8 19.65 -14.35 L9.0 -13.4 M23.25 -9.9 L23.25 -9.9 24.3 -9.9 26.7 -12.6 Q25.85 -16.7 22.9 -19.1 19.9 -21.45 15.15 -21.45 9.65 -21.45 5.9 -18.65 1.8 -15.6 1.8 -10.4 1.8 -5.35 5.8 -2.5 9.3 0.05 14.6 0.05 22.45 0.05 27.15 -4.25 L23.25 -9.9" fill-rule="evenodd" stroke="none"/>
    </g>
    <g id="font_______W7_d0">
      <path d="M18.35 -8.95 L18.35 -8.95 16.8 -11.9 Q14.75 -9.45 12.45 -9.45 10.9 -9.45 10.0 -10.4 9.1 -11.4 9.1 -12.95 9.1 -14.5 10.7 -15.6 12.15 -16.5 13.7 -16.5 16.6 -16.5 18.8 -14.55 L18.35 -8.95 M24.9 -31.55 L24.9 -31.55 20.15 -32.2 19.15 -19.55 Q16.05 -21.45 12.65 -21.45 8.15 -21.45 4.95 -18.25 1.8 -15.0 1.8 -10.5 1.8 -6.05 4.6 -3.05 7.4 0.05 11.85 0.05 14.65 0.05 17.7 -1.5 L17.6 0.0 27.65 -1.45 24.9 -31.55" fill-rule="evenodd" stroke="none"/>
    </g>
    <g id="font_______W7_O0">
      <path d="M23.25 -14.75 L23.25 -14.75 Q23.25 -11.3 21.3 -9.0 19.35 -6.7 15.9 -6.7 12.05 -6.7 9.75 -9.9 7.65 -12.8 7.65 -16.85 7.65 -21.4 9.95 -24.25 12.45 -27.3 16.9 -27.3 19.7 -27.3 22.3 -26.25 L18.75 -23.65 Q23.25 -19.2 23.25 -14.75 M32.15 -16.8 L32.15 -16.8 Q32.15 -24.85 27.6 -29.95 L24.0 -27.4 24.9 -30.1 Q20.4 -32.15 16.15 -32.15 9.4 -32.15 5.65 -27.8 2.05 -23.65 2.05 -16.8 2.05 -9.3 5.8 -4.8 9.85 0.05 17.15 0.05 24.6 0.05 28.5 -4.8 32.15 -9.2 32.15 -16.8" fill-rule="evenodd" stroke="none"/>
    </g>
    <g id="font_______W7_v0">
      <path d="M19.45 -21.45 L19.45 -21.45 12.9 -8.05 3.85 -21.15 0.5 -18.8 11.65 0.05 14.95 -0.8 26.9 -16.95 19.45 -21.45" fill-rule="evenodd" stroke="none"/>
    </g>
    <g id="font_______W7_r0">
      <path d="M18.3 -20.6 L18.3 -20.6 Q16.55 -21.45 14.75 -21.45 11.5 -21.45 8.7 -18.65 L8.45 -20.75 4.45 -21.45 2.55 0.05 10.65 -1.4 9.3 -12.8 Q10.55 -14.85 12.3 -14.85 13.25 -14.85 14.55 -13.85 L16.55 -12.05 18.3 -20.6" fill-rule="evenodd" stroke="none"/>
    </g>
  </defs>
</svg>
