<?xml version="1.0" encoding="UTF-8" standalone="no"?>
<svg xmlns:xlink="http://www.w3.org/1999/xlink" height="14.4px" width="70.6px" xmlns="http://www.w3.org/2000/svg">
  <g transform="matrix(1.0, 0.0, 0.0, 1.0, -38.3, -4.45)">
    <g transform="matrix(1.0, 0.0, 0.0, 1.0, 37.2, 0.0)">
      <use fill="#000000" height="14.4" transform="matrix(0.3906, 0.0, 0.0, 0.3906, 0.0, 17.0)" width="70.6" xlink:href="#font_______W7_R0"/>
      <use fill="#000000" height="14.4" transform="matrix(0.3906, 0.0, 0.0, 0.3906, 13.35, 17.0)" width="70.6" xlink:href="#font_______W7_a0"/>
      <use fill="#000000" height="14.4" transform="matrix(0.3906, 0.0, 0.0, 0.3906, 23.85, 17.0)" width="70.6" xlink:href="#font_______W7_n0"/>
      <use fill="#000000" height="14.4" transform="matrix(0.3906, 0.0, 0.0, 0.3906, 34.2, 17.0)" width="70.6" xlink:href="#font_______W7_k0"/>
      <use fill="#000000" height="14.4" transform="matrix(0.3906, 0.0, 0.0, 0.3906, 44.7, 17.0)" width="70.6" xlink:href="#font_______W7_i0"/>
      <use fill="#000000" height="14.4" transform="matrix(0.3906, 0.0, 0.0, 0.3906, 51.0, 17.0)" width="70.6" xlink:href="#font_______W7_n0"/>
      <use fill="#000000" height="14.4" transform="matrix(0.3906, 0.0, 0.0, 0.3906, 61.35, 17.0)" width="70.6" xlink:href="#font_______W7_g0"/>
    </g>
  </g>
  <defs>
    <g id="font_______W7_R0">
      <path d="M25.55 -21.75 L25.55 -21.75 Q25.55 -19.95 24.25 -18.8 23.0 -17.7 21.2 -17.7 17.15 -17.7 13.5 -20.8 L11.65 -16.3 10.9 -24.1 Q15.35 -26.5 19.05 -26.5 21.5 -26.5 23.35 -25.35 25.55 -24.05 25.55 -21.75 M28.0 -11.75 L28.0 -11.75 Q32.55 -14.8 32.55 -20.5 32.55 -26.0 28.75 -28.9 25.35 -31.55 19.75 -31.55 15.45 -31.55 10.4 -29.45 L10.2 -31.45 5.3 -32.15 2.55 0.05 13.15 -1.1 12.2 -11.0 Q15.85 -9.4 19.4 -9.4 L21.5 -9.5 26.7 0.2 34.7 -6.1 28.0 -11.75" fill-rule="evenodd" stroke="none"/>
    </g>
    <g id="font_______W7_a0">
      <path d="M19.05 -8.85 L19.05 -8.85 18.5 -5.05 17.1 -9.0 Q14.35 -6.2 10.6 -6.2 9.95 -6.2 9.45 -6.75 9.0 -7.2 9.0 -7.85 9.0 -10.2 13.7 -10.2 15.9 -10.2 19.05 -8.85 M27.4 -6.8 L27.4 -6.8 Q27.4 -21.45 13.35 -21.45 7.15 -21.45 2.55 -18.35 L4.3 -14.35 Q8.3 -16.55 13.15 -16.55 17.85 -16.55 18.85 -13.35 15.4 -14.5 12.8 -14.5 8.6 -14.5 5.6 -12.8 1.8 -10.75 1.8 -6.95 1.8 -3.5 4.9 -1.55 7.55 0.05 11.15 0.05 13.95 0.05 17.35 -0.95 L17.0 0.15 26.7 -0.3 Q27.4 -3.45 27.4 -6.8" fill-rule="evenodd" stroke="none"/>
    </g>
    <g id="font_______W7_n0">
      <path d="M27.0 -9.05 L27.0 -9.05 Q27.0 -14.5 24.65 -17.8 21.9 -21.45 16.6 -21.45 12.6 -21.45 9.45 -18.85 L9.2 -20.75 4.35 -21.45 2.05 0.05 11.95 -1.4 10.35 -12.55 Q12.95 -15.85 15.9 -15.85 19.4 -15.85 19.4 -10.6 19.4 -6.9 16.6 -1.3 L26.2 0.0 Q27.0 -6.5 27.0 -9.05" fill-rule="evenodd" stroke="none"/>
    </g>
    <g id="font_______W7_k0">
      <path d="M20.35 -12.2 L20.35 -12.2 26.9 -17.9 24.8 -21.8 10.85 -14.65 9.3 -31.45 4.6 -32.15 2.05 0.05 12.1 -1.4 11.35 -9.1 13.25 -6.05 15.8 -8.25 22.05 0.25 28.6 -6.95 20.35 -12.2" fill-rule="evenodd" stroke="none"/>
    </g>
    <g id="font_______W7_i0">
      <path d="M11.6 -20.75 L11.6 -20.75 6.75 -21.45 4.45 0.05 14.3 -1.4 11.6 -20.75 M11.9 -31.5 L11.9 -31.5 6.5 -32.15 4.9 -24.95 13.2 -26.1 11.9 -31.5" fill-rule="evenodd" stroke="none"/>
    </g>
    <g id="font_______W7_g0">
      <path d="M21.25 -12.75 L21.25 -12.75 21.05 -10.5 18.9 -14.7 Q15.2 -11.7 11.9 -11.7 10.85 -11.7 10.0 -12.55 9.05 -13.45 9.05 -14.45 9.05 -16.75 13.35 -16.75 15.6 -16.75 18.05 -15.7 20.3 -14.7 21.2 -13.55 L21.25 -12.75 M26.3 -10.4 L26.3 -10.4 Q26.3 -15.45 24.2 -21.5 L20.0 -20.3 20.3 -19.15 Q16.35 -21.45 12.1 -21.45 8.15 -21.45 5.4 -19.3 2.35 -16.95 2.35 -13.2 2.35 -9.45 5.85 -7.35 8.8 -5.6 12.75 -5.6 16.55 -5.6 19.75 -6.9 17.8 -3.95 13.25 -3.95 8.55 -3.95 4.75 -6.35 L1.8 2.9 Q6.7 4.75 11.2 4.75 18.25 4.75 22.25 0.65 26.3 -3.4 26.3 -10.4" fill-rule="evenodd" stroke="none"/>
    </g>
  </defs>
</svg>
