<?xml version="1.0" encoding="UTF-8" standalone="no"?>
<svg xmlns:xlink="http://www.w3.org/1999/xlink" height="14.45px" width="181.2px" xmlns="http://www.w3.org/2000/svg">
  <g transform="matrix(1.0, 0.0, 0.0, 1.0, 17.5, -4.4)">
    <g transform="matrix(1.0, 0.0, 0.0, 1.0, -18.4, 0.0)">
      <use fill="#000000" height="14.45" transform="matrix(0.3906, 0.0, 0.0, 0.3906, 0.0, 17.0)" width="181.2" xlink:href="#font_______W7_C0"/>
      <use fill="#000000" height="14.45" transform="matrix(0.3906, 0.0, 0.0, 0.3906, 13.45, 17.0)" width="181.2" xlink:href="#font_______W7_o0"/>
      <use fill="#000000" height="14.45" transform="matrix(0.3906, 0.0, 0.0, 0.3906, 24.2, 17.0)" width="181.2" xlink:href="#font_______W7_g0"/>
      <use fill="#000000" height="14.45" transform="matrix(0.3906, 0.0, 0.0, 0.3906, 35.25, 17.0)" width="181.2" xlink:href="#font_______W7_s0"/>
      <use fill="#000000" height="14.45" transform="matrix(0.3906, 0.0, 0.0, 0.3906, 45.65, 17.0)" width="181.2" xlink:href="#font_______W7_p0"/>
      <use fill="#000000" height="14.45" transform="matrix(0.3906, 0.0, 0.0, 0.3906, 57.25, 17.0)" width="181.2" xlink:href="#font_______W7_o0"/>
      <use fill="#000000" height="14.45" transform="matrix(0.3906, 0.0, 0.0, 0.3906, 68.0, 17.0)" width="181.2" xlink:href="#font_______W7_t0"/>
      <use fill="#000000" height="14.45" transform="matrix(0.3906, 0.0, 0.0, 0.3906, 77.45, 17.0)" width="181.2" xlink:href="#font_______W7_t0"/>
      <use fill="#000000" height="14.45" transform="matrix(0.3906, 0.0, 0.0, 0.3906, 86.95, 17.0)" width="181.2" xlink:href="#font_______W7_e0"/>
      <use fill="#000000" height="14.45" transform="matrix(0.3906, 0.0, 0.0, 0.3906, 98.15, 17.0)" width="181.2" xlink:href="#font_______W7_r0"/>
      <use fill="#000000" height="14.45" transform="matrix(0.3906, 0.0, 0.0, 0.3906, 105.6, 17.0)" width="181.2" xlink:href="#font_______W7__0"/>
      <use fill="#000000" height="14.45" transform="matrix(0.3906, 0.0, 0.0, 0.3906, 109.9, 17.0)" width="181.2" xlink:href="#font_______W7_s0"/>
      <use fill="#000000" height="14.45" transform="matrix(0.3906, 0.0, 0.0, 0.3906, 126.95, 17.0)" width="181.2" xlink:href="#font_______W7_G0"/>
      <use fill="#000000" height="14.45" transform="matrix(0.3906, 0.0, 0.0, 0.3906, 141.1, 17.0)" width="181.2" xlink:href="#font_______W7_u0"/>
      <use fill="#000000" height="14.45" transform="matrix(0.3906, 0.0, 0.0, 0.3906, 152.4, 17.0)" width="181.2" xlink:href="#font_______W7_i0"/>
      <use fill="#000000" height="14.45" transform="matrix(0.3906, 0.0, 0.0, 0.3906, 159.75, 17.0)" width="181.2" xlink:href="#font_______W7_d0"/>
      <use fill="#000000" height="14.45" transform="matrix(0.3906, 0.0, 0.0, 0.3906, 171.4, 17.0)" width="181.2" xlink:href="#font_______W7_e0"/>
    </g>
  </g>
  <defs>
    <g id="font_______W7_C0">
      <path d="M26.2 -15.4 L26.2 -15.4 Q21.6 -8.3 16.1 -8.3 12.35 -8.3 10.4 -10.7 8.6 -12.9 8.6 -16.75 8.6 -21.2 11.05 -23.95 13.55 -26.6 17.95 -26.6 23.65 -26.6 27.3 -22.25 L31.1 -26.05 Q28.65 -28.9 25.1 -30.55 21.55 -32.15 17.8 -32.15 10.8 -32.15 6.45 -27.4 2.05 -22.7 2.05 -15.6 2.05 -8.95 6.35 -4.45 10.7 0.05 17.3 0.05 25.6 0.05 32.65 -7.35 L26.2 -15.4" fill-rule="evenodd" stroke="none"/>
    </g>
    <g id="font_______W7_o0">
      <path d="M15.8 -13.5 L15.8 -13.5 Q16.45 -11.85 16.45 -10.4 16.45 -6.85 12.35 -6.85 10.6 -6.85 9.35 -8.05 8.15 -9.35 8.15 -11.05 8.15 -13.25 9.8 -14.6 11.4 -16.0 13.7 -16.0 16.1 -16.0 18.3 -14.3 L15.8 -13.5 M25.7 -11.4 L25.7 -11.4 Q25.7 -13.8 24.75 -16.35 L21.25 -15.25 22.7 -17.2 Q18.35 -21.45 13.15 -21.45 8.45 -21.45 5.1 -18.2 1.8 -14.95 1.8 -10.3 1.8 -5.5 5.4 -2.65 8.65 0.05 13.65 0.05 18.75 0.05 22.2 -3.2 25.7 -6.4 25.7 -11.4" fill-rule="evenodd" stroke="none"/>
    </g>
    <g id="font_______W7_g0">
      <path d="M21.25 -12.75 L21.25 -12.75 21.05 -10.5 18.9 -14.7 Q15.2 -11.7 11.9 -11.7 10.85 -11.7 10.0 -12.55 9.05 -13.45 9.05 -14.45 9.05 -16.75 13.35 -16.75 15.6 -16.75 18.05 -15.7 20.3 -14.7 21.2 -13.55 L21.25 -12.75 M26.3 -10.4 L26.3 -10.4 Q26.3 -15.45 24.2 -21.5 L20.0 -20.3 20.3 -19.15 Q16.35 -21.45 12.1 -21.45 8.15 -21.45 5.4 -19.3 2.35 -16.95 2.35 -13.2 2.35 -9.45 5.85 -7.35 8.8 -5.6 12.75 -5.6 16.55 -5.6 19.75 -6.9 17.8 -3.95 13.25 -3.95 8.55 -3.95 4.75 -6.35 L1.8 2.9 Q6.7 4.75 11.2 4.75 18.25 4.75 22.25 0.65 26.3 -3.4 26.3 -10.4" fill-rule="evenodd" stroke="none"/>
    </g>
    <g id="font_______W7_s0">
      <path d="M25.05 -6.35 L25.05 -6.35 Q25.05 -12.25 15.35 -13.65 8.7 -14.6 8.7 -15.7 8.7 -17.05 12.35 -17.05 17.1 -17.05 22.25 -14.8 L23.8 -18.2 Q19.05 -21.45 12.25 -21.45 8.55 -21.45 6.05 -20.35 2.6 -18.85 2.6 -15.7 2.6 -13.1 4.75 -11.8 6.5 -10.75 10.95 -10.05 L16.3 -8.95 Q17.8 -8.4 17.8 -7.5 17.8 -6.2 15.25 -6.2 12.3 -6.2 9.1 -7.45 5.9 -8.7 3.8 -10.65 L1.0 -2.6 Q6.45 0.05 14.3 0.05 25.05 0.05 25.05 -6.35" fill-rule="evenodd" stroke="none"/>
    </g>
    <g id="font_______W7_p0">
      <path d="M20.7 -12.7 L20.7 -12.7 Q20.7 -9.3 17.35 -9.3 14.95 -9.3 12.7 -12.0 L10.6 -8.4 10.05 -13.4 Q12.6 -16.55 16.2 -16.55 18.05 -16.55 19.35 -15.55 20.7 -14.5 20.7 -12.7 M27.8 -10.85 L27.8 -10.85 Q27.8 -15.55 24.6 -18.5 21.4 -21.45 16.7 -21.45 12.55 -21.45 9.35 -19.15 L9.2 -20.75 4.35 -21.45 2.05 4.75 11.95 3.3 11.35 -1.45 Q14.35 0.05 17.2 0.05 21.85 0.05 24.85 -3.05 27.8 -6.15 27.8 -10.85" fill-rule="evenodd" stroke="none"/>
    </g>
    <g id="font_______W7_t0">
      <path d="M18.7 -12.2 L18.7 -12.2 Q17.0 -9.35 14.9 -9.35 11.95 -9.35 11.95 -15.4 L21.65 -15.4 20.1 -22.55 12.4 -21.45 Q12.75 -24.2 13.6 -27.95 L8.95 -28.85 Q7.75 -24.65 7.1 -20.75 L0.75 -19.9 1.75 -15.4 6.55 -15.4 6.5 -12.55 Q6.5 -6.8 7.75 -4.05 9.5 0.05 14.55 0.05 19.1 0.05 23.25 -4.15 L18.7 -12.2" fill-rule="evenodd" stroke="none"/>
    </g>
    <g id="font_______W7_e0">
      <path d="M19.45 -9.9 L19.45 -9.9 Q16.75 -7.55 13.6 -7.55 10.45 -7.55 9.15 -9.9 L19.45 -9.9 M9.0 -13.4 L9.0 -13.4 Q9.7 -14.95 11.5 -15.95 13.2 -16.8 15.1 -16.8 18.05 -16.8 19.65 -14.35 L9.0 -13.4 M23.25 -9.9 L23.25 -9.9 24.3 -9.9 26.7 -12.6 Q25.85 -16.7 22.9 -19.1 19.9 -21.45 15.15 -21.45 9.65 -21.45 5.9 -18.65 1.8 -15.6 1.8 -10.4 1.8 -5.35 5.8 -2.5 9.3 0.05 14.6 0.05 22.45 0.05 27.15 -4.25 L23.25 -9.9" fill-rule="evenodd" stroke="none"/>
    </g>
    <g id="font_______W7_r0">
      <path d="M18.3 -20.6 L18.3 -20.6 Q16.55 -21.45 14.75 -21.45 11.5 -21.45 8.7 -18.65 L8.45 -20.75 4.45 -21.45 2.55 0.05 10.65 -1.4 9.3 -12.8 Q10.55 -14.85 12.3 -14.85 13.25 -14.85 14.55 -13.85 L16.55 -12.05 18.3 -20.6" fill-rule="evenodd" stroke="none"/>
    </g>
    <g id="font_______W7__0">
      <path d="M2.05 -32.15 L2.05 -32.15 3.65 -20.7 7.3 -20.7 8.95 -32.15 2.05 -32.15" fill-rule="evenodd" stroke="none"/>
    </g>
    <g id="font_______W7_G0">
      <path d="M32.3 -18.1 L32.3 -18.1 18.0 -16.6 18.9 -11.9 23.25 -11.9 Q20.15 -7.9 16.2 -7.9 12.45 -7.9 10.45 -10.35 8.6 -12.65 8.6 -16.5 8.6 -20.8 10.75 -23.45 13.05 -26.4 17.25 -26.4 23.2 -26.4 27.5 -21.3 L31.25 -25.15 Q28.6 -28.35 25.0 -30.25 21.2 -32.15 17.25 -32.15 10.5 -32.15 6.15 -27.05 2.05 -22.25 2.05 -15.35 2.05 -8.75 6.15 -4.35 10.25 0.05 16.8 0.05 21.35 0.05 25.6 -2.45 L25.1 0.35 34.1 -0.6 32.3 -18.1" fill-rule="evenodd" stroke="none"/>
    </g>
    <g id="font_______W7_u0">
      <path d="M24.1 -20.75 L24.1 -20.75 19.25 -21.45 17.9 -8.95 16.15 -11.65 Q13.35 -8.1 10.6 -8.1 9.0 -8.1 8.15 -9.4 7.25 -10.65 7.25 -12.3 7.25 -15.75 8.6 -19.75 L3.9 -21.15 Q2.05 -16.35 2.05 -11.4 2.05 -6.45 4.25 -3.4 6.75 0.05 11.5 0.05 14.55 0.05 17.1 -1.5 L16.95 0.1 26.8 -1.35 24.1 -20.75" fill-rule="evenodd" stroke="none"/>
    </g>
    <g id="font_______W7_i0">
      <path d="M11.6 -20.75 L11.6 -20.75 6.75 -21.45 4.45 0.05 14.3 -1.4 11.6 -20.75 M11.9 -31.5 L11.9 -31.5 6.5 -32.15 4.9 -24.95 13.2 -26.1 11.9 -31.5" fill-rule="evenodd" stroke="none"/>
    </g>
    <g id="font_______W7_d0">
      <path d="M18.35 -8.95 L18.35 -8.95 16.8 -11.9 Q14.75 -9.45 12.45 -9.45 10.9 -9.45 10.0 -10.4 9.1 -11.4 9.1 -12.95 9.1 -14.5 10.7 -15.6 12.15 -16.5 13.7 -16.5 16.6 -16.5 18.8 -14.55 L18.35 -8.95 M24.9 -31.55 L24.9 -31.55 20.15 -32.2 19.15 -19.55 Q16.05 -21.45 12.65 -21.45 8.15 -21.45 4.95 -18.25 1.8 -15.0 1.8 -10.5 1.8 -6.05 4.6 -3.05 7.4 0.05 11.85 0.05 14.65 0.05 17.7 -1.5 L17.6 0.0 27.65 -1.45 24.9 -31.55" fill-rule="evenodd" stroke="none"/>
    </g>
  </defs>
</svg>
