<?xml version="1.0" encoding="UTF-8" standalone="no"?>
<svg xmlns:xlink="http://www.w3.org/1999/xlink" height="16.6px" width="89.2px" xmlns="http://www.w3.org/2000/svg">
  <g transform="matrix(1.0, 0.0, 0.0, 1.0, -46.5, -5.55)">
    <g transform="matrix(1.0, 0.0, 0.0, 1.0, 0.0, 0.0)">
      <use fill="#000000" height="16.6" transform="matrix(0.4492, 0.0, 0.0, 0.4492, 45.0, 20.0)" width="89.2" xlink:href="#font_______W7_R0"/>
      <use fill="#000000" height="16.6" transform="matrix(0.4492, 0.0, 0.0, 0.4492, 61.5, 20.0)" width="89.2" xlink:href="#font_______W7_a0"/>
      <use fill="#000000" height="16.6" transform="matrix(0.4492, 0.0, 0.0, 0.4492, 74.75, 20.0)" width="89.2" xlink:href="#font_______W7_n0"/>
      <use fill="#000000" height="16.6" transform="matrix(0.4492, 0.0, 0.0, 0.4492, 87.8, 20.0)" width="89.2" xlink:href="#font_______W7_k0"/>
      <use fill="#000000" height="16.6" transform="matrix(0.4492, 0.0, 0.0, 0.4492, 101.0, 20.0)" width="89.2" xlink:href="#font_______W7_i0"/>
      <use fill="#000000" height="16.6" transform="matrix(0.4492, 0.0, 0.0, 0.4492, 109.4, 20.0)" width="89.2" xlink:href="#font_______W7_n0"/>
      <use fill="#000000" height="16.6" transform="matrix(0.4492, 0.0, 0.0, 0.4492, 122.45, 20.0)" width="89.2" xlink:href="#font_______W7_g0"/>
    </g>
  </g>
  <defs>
    <g id="font_______W7_R0">
      <path d="M28.1 -21.75 L28.1 -21.75 Q28.1 -19.95 26.7 -18.8 25.3 -17.7 23.35 -17.7 18.9 -17.7 14.85 -20.8 L12.85 -16.3 12.0 -24.1 Q16.9 -26.5 20.95 -26.5 23.65 -26.5 25.7 -25.35 28.1 -24.05 28.1 -21.75 M30.8 -11.75 L30.8 -11.75 Q35.8 -14.8 35.8 -20.5 35.8 -26.0 31.65 -28.9 27.9 -31.55 21.75 -31.55 17.0 -31.55 11.45 -29.45 L11.25 -31.45 5.85 -32.15 2.8 0.05 14.5 -1.1 13.45 -11.0 Q17.45 -9.4 21.35 -9.4 L23.65 -9.5 29.4 0.2 38.2 -6.1 30.8 -11.75" fill-rule="evenodd" stroke="none"/>
    </g>
    <g id="font_______W7_a0">
      <path d="M20.95 -8.85 L20.95 -8.85 20.35 -5.05 18.8 -9.0 Q15.8 -6.2 11.65 -6.2 10.95 -6.2 10.4 -6.75 9.9 -7.2 9.9 -7.85 9.9 -10.2 15.1 -10.2 17.5 -10.2 20.95 -8.85 M30.15 -6.8 L30.15 -6.8 Q30.15 -21.45 14.7 -21.45 7.9 -21.45 2.8 -18.35 L4.75 -14.35 Q9.15 -16.55 14.5 -16.55 19.65 -16.55 20.75 -13.35 16.95 -14.5 14.1 -14.5 9.45 -14.5 6.15 -12.8 2.0 -10.75 2.0 -6.95 2.0 -3.5 5.4 -1.55 8.3 0.05 12.3 0.05 15.35 0.05 19.1 -0.95 L18.7 0.15 29.4 -0.3 Q30.15 -3.45 30.15 -6.8" fill-rule="evenodd" stroke="none"/>
    </g>
    <g id="font_______W7_n0">
      <path d="M29.7 -9.05 L29.7 -9.05 Q29.7 -14.5 27.15 -17.8 24.1 -21.45 18.25 -21.45 13.85 -21.45 10.4 -18.85 L10.15 -20.75 4.8 -21.45 2.25 0.05 13.15 -1.4 11.4 -12.55 Q14.25 -15.85 17.5 -15.85 21.35 -15.85 21.35 -10.6 21.35 -6.9 18.25 -1.3 L28.85 0.0 Q29.7 -6.5 29.7 -9.05" fill-rule="evenodd" stroke="none"/>
    </g>
    <g id="font_______W7_k0">
      <path d="M22.4 -12.2 L22.4 -12.2 29.6 -17.9 27.3 -21.8 11.95 -14.65 10.25 -31.45 5.05 -32.15 2.25 0.05 13.3 -1.4 12.5 -9.1 14.6 -6.05 17.4 -8.25 24.25 0.25 31.45 -6.95 22.4 -12.2" fill-rule="evenodd" stroke="none"/>
    </g>
    <g id="font_______W7_i0">
      <path d="M12.75 -20.75 L12.75 -20.75 7.45 -21.45 4.9 0.05 15.75 -1.4 12.75 -20.75 M13.1 -31.5 L13.1 -31.5 7.15 -32.15 5.4 -24.95 14.55 -26.1 13.1 -31.5" fill-rule="evenodd" stroke="none"/>
    </g>
    <g id="font_______W7_g0">
      <path d="M23.4 -12.75 L23.4 -12.75 23.15 -10.5 20.8 -14.7 Q16.75 -11.7 13.1 -11.7 11.95 -11.7 11.0 -12.55 9.95 -13.45 9.95 -14.45 9.95 -16.75 14.7 -16.75 17.15 -16.75 19.85 -15.7 22.35 -14.7 23.35 -13.55 L23.4 -12.75 M28.95 -10.4 L28.95 -10.4 Q28.95 -15.45 26.65 -21.5 L22.0 -20.3 22.35 -19.15 Q18.0 -21.45 13.3 -21.45 9.0 -21.45 5.95 -19.3 2.6 -16.95 2.6 -13.2 2.6 -9.45 6.45 -7.35 9.7 -5.6 14.05 -5.6 18.2 -5.6 21.75 -6.9 19.6 -3.95 14.6 -3.95 9.4 -3.95 5.25 -6.35 L2.0 2.9 Q7.4 4.75 12.35 4.75 20.1 4.75 24.5 0.65 28.95 -3.4 28.95 -10.4" fill-rule="evenodd" stroke="none"/>
    </g>
  </defs>
</svg>
