<?xml version="1.0" encoding="UTF-8" standalone="no"?>
<svg xmlns:xlink="http://www.w3.org/1999/xlink" height="16.5px" width="61.7px" xmlns="http://www.w3.org/2000/svg">
  <g transform="matrix(1.0, 0.0, 0.0, 1.0, -1.4, -5.65)">
    <g transform="matrix(1.0, 0.0, 0.0, 1.0, 0.0, 0.0)">
      <use fill="#ffffff" height="16.5" transform="matrix(0.5078, 0.0, 0.0, 0.5078, 0.0, 22.0)" width="61.7" xlink:href="#font_______W7_B0"/>
      <use fill="#ffffff" height="16.5" transform="matrix(0.5078, 0.0, 0.0, 0.5078, 18.25, 22.0)" width="61.7" xlink:href="#font_______W7_a0"/>
      <use fill="#ffffff" height="16.5" transform="matrix(0.5078, 0.0, 0.0, 0.5078, 33.2, 22.0)" width="61.7" xlink:href="#font_______W7_c0"/>
      <use fill="#ffffff" height="16.5" transform="matrix(0.5078, 0.0, 0.0, 0.5078, 47.15, 22.0)" width="61.7" xlink:href="#font_______W7_k0"/>
    </g>
  </g>
  <defs>
    <g id="font_______W7_B0">
      <path d="M28.35 -11.3 L28.35 -11.3 Q28.35 -8.4 24.1 -8.4 20.35 -8.4 15.85 -12.15 L13.75 -7.75 13.15 -13.45 Q17.0 -15.85 20.85 -15.85 23.4 -15.85 25.65 -14.7 28.35 -13.4 28.35 -11.3 M25.5 -23.7 L25.5 -23.7 Q25.5 -22.05 23.35 -20.35 L20.9 -20.45 Q16.55 -20.45 12.6 -18.65 L11.95 -24.45 Q16.85 -26.5 20.65 -26.5 22.45 -26.5 23.7 -25.95 25.5 -25.2 25.5 -23.7 M37.3 -10.25 L37.3 -10.25 Q37.3 -14.55 32.85 -17.3 35.25 -20.45 35.25 -23.5 35.25 -27.75 31.2 -29.85 28.0 -31.6 23.0 -31.6 15.75 -31.6 11.45 -29.6 L11.25 -31.55 5.85 -32.15 2.8 0.05 14.5 -1.1 14.35 -2.3 Q19.15 -0.6 23.65 -0.6 28.7 -0.6 32.75 -3.05 37.3 -5.85 37.3 -10.25" fill-rule="evenodd" stroke="none"/>
    </g>
    <g id="font_______W7_a0">
      <path d="M20.95 -8.85 L20.95 -8.85 20.35 -5.05 18.8 -9.0 Q15.8 -6.2 11.65 -6.2 10.95 -6.2 10.4 -6.75 9.9 -7.2 9.9 -7.85 9.9 -10.2 15.1 -10.2 17.5 -10.2 20.95 -8.85 M30.15 -6.8 L30.15 -6.8 Q30.15 -21.45 14.7 -21.45 7.9 -21.45 2.8 -18.35 L4.75 -14.35 Q9.15 -16.55 14.5 -16.55 19.65 -16.55 20.75 -13.35 16.95 -14.5 14.1 -14.5 9.45 -14.5 6.15 -12.8 2.0 -10.75 2.0 -6.95 2.0 -3.5 5.4 -1.55 8.3 0.05 12.3 0.05 15.35 0.05 19.1 -0.95 L18.7 0.15 29.4 -0.3 Q30.15 -3.45 30.15 -6.8" fill-rule="evenodd" stroke="none"/>
    </g>
    <g id="font_______W7_c0">
      <path d="M23.5 -12.5 L23.5 -12.5 Q21.95 -10.5 19.55 -9.15 16.9 -7.6 14.5 -7.6 12.55 -7.6 11.25 -8.85 9.8 -10.05 9.8 -11.8 9.8 -14.1 11.75 -15.4 13.45 -16.55 16.0 -16.55 20.8 -16.55 24.1 -13.7 L26.85 -17.55 Q21.65 -21.45 14.4 -21.45 8.85 -21.45 5.4 -18.4 2.0 -15.3 2.0 -10.3 2.0 -5.6 6.3 -2.65 10.2 0.05 15.5 0.05 18.95 0.05 22.5 -1.1 26.45 -2.3 28.5 -4.4 L23.5 -12.5" fill-rule="evenodd" stroke="none"/>
    </g>
    <g id="font_______W7_k0">
      <path d="M22.4 -12.2 L22.4 -12.2 29.6 -17.9 27.3 -21.8 11.95 -14.65 10.25 -31.45 5.05 -32.15 2.25 0.05 13.3 -1.4 12.5 -9.1 14.6 -6.05 17.4 -8.25 24.25 0.25 31.45 -6.95 22.4 -12.2" fill-rule="evenodd" stroke="none"/>
    </g>
  </defs>
</svg>
