<?xml version="1.0" encoding="UTF-8" standalone="no"?>
<svg xmlns:xlink="http://www.w3.org/1999/xlink" height="17.5px" width="167.05px" xmlns="http://www.w3.org/2000/svg">
  <g transform="matrix(1.0, 0.0, 0.0, 1.0, -7.4, -5.75)">
    <g transform="matrix(1.0, 0.0, 0.0, 1.0, 7.0, 0.0)">
      <use fill="#000000" height="17.5" transform="matrix(0.4746, 0.0, 0.0, 0.4746, 0.0, 21.0)" width="167.05" xlink:href="#font_______W7_T0"/>
      <use fill="#000000" height="17.5" transform="matrix(0.4746, 0.0, 0.0, 0.4746, 14.55, 21.0)" width="167.05" xlink:href="#font_______W7_h0"/>
      <use fill="#000000" height="17.5" transform="matrix(0.4746, 0.0, 0.0, 0.4746, 27.65, 21.0)" width="167.05" xlink:href="#font_______W7_e0"/>
      <use fill="#000000" height="17.5" transform="matrix(0.4746, 0.0, 0.0, 0.4746, 47.0, 21.0)" width="167.05" xlink:href="#font_______W7_B0"/>
      <use fill="#000000" height="17.5" transform="matrix(0.4746, 0.0, 0.0, 0.4746, 62.85, 21.0)" width="167.05" xlink:href="#font_______W7_i0"/>
      <use fill="#000000" height="17.5" transform="matrix(0.4746, 0.0, 0.0, 0.4746, 70.65, 21.0)" width="167.05" xlink:href="#font_______W7_g0"/>
      <use fill="#000000" height="17.5" transform="matrix(0.4746, 0.0, 0.0, 0.4746, 89.95, 21.0)" width="167.05" xlink:href="#font_______W7_C0"/>
      <use fill="#000000" height="17.5" transform="matrix(0.4746, 0.0, 0.0, 0.4746, 105.1, 21.0)" width="167.05" xlink:href="#font_______W7_h0"/>
      <use fill="#000000" height="17.5" transform="matrix(0.4746, 0.0, 0.0, 0.4746, 118.25, 21.0)" width="167.05" xlink:href="#font_______W7_e0"/>
      <use fill="#000000" height="17.5" transform="matrix(0.4746, 0.0, 0.0, 0.4746, 130.65, 21.0)" width="167.05" xlink:href="#font_______W7_e0"/>
      <use fill="#000000" height="17.5" transform="matrix(0.4746, 0.0, 0.0, 0.4746, 143.05, 21.0)" width="167.05" xlink:href="#font_______W7_s0"/>
      <use fill="#000000" height="17.5" transform="matrix(0.4746, 0.0, 0.0, 0.4746, 154.5, 21.0)" width="167.05" xlink:href="#font_______W7_e0"/>
    </g>
  </g>
  <defs>
    <g id="font_______W7_T0">
      <path d="M30.8 -32.15 L30.8 -32.15 0.75 -29.4 1.85 -24.25 13.45 -24.25 11.0 0.05 21.6 -1.1 18.95 -24.25 32.35 -24.25 30.8 -32.15" fill-rule="evenodd" stroke="none"/>
    </g>
    <g id="font_______W7_h0">
      <path d="M28.1 -7.6 L28.1 -7.6 Q28.1 -13.7 25.7 -17.25 22.9 -21.45 17.05 -21.45 13.35 -21.45 10.45 -19.3 L9.3 -31.55 4.65 -32.15 2.05 0.05 12.1 -1.4 11.0 -12.9 Q13.45 -15.95 16.35 -15.95 20.1 -15.95 20.1 -10.2 20.1 -6.55 17.6 -1.55 L27.6 0.05 28.1 -7.6" fill-rule="evenodd" stroke="none"/>
    </g>
    <g id="font_______W7_e0">
      <path d="M19.45 -9.9 L19.45 -9.9 Q16.75 -7.55 13.6 -7.55 10.45 -7.55 9.15 -9.9 L19.45 -9.9 M9.0 -13.4 L9.0 -13.4 Q9.7 -14.95 11.5 -15.95 13.2 -16.8 15.1 -16.8 18.05 -16.8 19.65 -14.35 L9.0 -13.4 M23.25 -9.9 L23.25 -9.9 24.3 -9.9 26.7 -12.6 Q25.85 -16.7 22.9 -19.1 19.9 -21.45 15.15 -21.45 9.65 -21.45 5.9 -18.65 1.8 -15.6 1.8 -10.4 1.8 -5.35 5.8 -2.5 9.3 0.05 14.6 0.05 22.45 0.05 27.15 -4.25 L23.25 -9.9" fill-rule="evenodd" stroke="none"/>
    </g>
    <g id="font_______W7_B0">
      <path d="M25.75 -11.3 L25.75 -11.3 Q25.75 -8.4 21.9 -8.4 18.5 -8.4 14.4 -12.15 L12.5 -7.75 11.95 -13.45 Q15.45 -15.85 18.95 -15.85 21.25 -15.85 23.3 -14.7 25.75 -13.4 25.75 -11.3 M23.15 -23.7 L23.15 -23.7 Q23.15 -22.05 21.2 -20.35 L19.0 -20.45 Q15.05 -20.45 11.45 -18.65 L10.85 -24.45 Q15.3 -26.5 18.75 -26.5 L21.55 -25.95 Q23.15 -25.2 23.15 -23.7 M33.9 -10.25 L33.9 -10.25 Q33.9 -14.55 29.85 -17.3 32.05 -20.45 32.05 -23.5 32.05 -27.75 28.35 -29.85 25.45 -31.6 20.9 -31.6 14.3 -31.6 10.4 -29.6 L10.2 -31.55 5.3 -32.15 2.55 0.05 13.15 -1.1 13.05 -2.3 Q17.4 -0.6 21.5 -0.6 26.1 -0.6 29.75 -3.05 33.9 -5.85 33.9 -10.25" fill-rule="evenodd" stroke="none"/>
    </g>
    <g id="font_______W7_i0">
      <path d="M11.6 -20.75 L11.6 -20.75 6.75 -21.45 4.45 0.05 14.3 -1.4 11.6 -20.75 M11.9 -31.5 L11.9 -31.5 6.5 -32.15 4.9 -24.95 13.2 -26.1 11.9 -31.5" fill-rule="evenodd" stroke="none"/>
    </g>
    <g id="font_______W7_g0">
      <path d="M21.25 -12.75 L21.25 -12.75 21.05 -10.5 18.9 -14.7 Q15.2 -11.7 11.9 -11.7 10.85 -11.7 10.0 -12.55 9.05 -13.45 9.05 -14.45 9.05 -16.75 13.35 -16.75 15.6 -16.75 18.05 -15.7 20.3 -14.7 21.2 -13.55 L21.25 -12.75 M26.3 -10.4 L26.3 -10.4 Q26.3 -15.45 24.2 -21.5 L20.0 -20.3 20.3 -19.15 Q16.35 -21.45 12.1 -21.45 8.15 -21.45 5.4 -19.3 2.35 -16.95 2.35 -13.2 2.35 -9.45 5.85 -7.35 8.8 -5.6 12.75 -5.6 16.55 -5.6 19.75 -6.9 17.8 -3.95 13.25 -3.95 8.55 -3.95 4.75 -6.35 L1.8 2.9 Q6.7 4.75 11.2 4.75 18.25 4.75 22.25 0.65 26.3 -3.4 26.3 -10.4" fill-rule="evenodd" stroke="none"/>
    </g>
    <g id="font_______W7_C0">
      <path d="M26.2 -15.4 L26.2 -15.4 Q21.6 -8.3 16.1 -8.3 12.35 -8.3 10.4 -10.7 8.6 -12.9 8.6 -16.75 8.6 -21.2 11.05 -23.95 13.55 -26.6 17.95 -26.6 23.65 -26.6 27.3 -22.25 L31.1 -26.05 Q28.65 -28.9 25.1 -30.55 21.55 -32.15 17.8 -32.15 10.8 -32.15 6.45 -27.4 2.05 -22.7 2.05 -15.6 2.05 -8.95 6.35 -4.45 10.7 0.05 17.3 0.05 25.6 0.05 32.65 -7.35 L26.2 -15.4" fill-rule="evenodd" stroke="none"/>
    </g>
    <g id="font_______W7_s0">
      <path d="M25.05 -6.35 L25.05 -6.35 Q25.05 -12.25 15.35 -13.65 8.7 -14.6 8.7 -15.7 8.7 -17.05 12.35 -17.05 17.1 -17.05 22.25 -14.8 L23.8 -18.2 Q19.05 -21.45 12.25 -21.45 8.55 -21.45 6.05 -20.35 2.6 -18.85 2.6 -15.7 2.6 -13.1 4.75 -11.8 6.5 -10.75 10.95 -10.05 L16.3 -8.95 Q17.8 -8.4 17.8 -7.5 17.8 -6.2 15.25 -6.2 12.3 -6.2 9.1 -7.45 5.9 -8.7 3.8 -10.65 L1.0 -2.6 Q6.45 0.05 14.3 0.05 25.05 0.05 25.05 -6.35" fill-rule="evenodd" stroke="none"/>
    </g>
  </defs>
</svg>
