<?xml version="1.0" encoding="UTF-8" standalone="no"?>
<svg xmlns:xlink="http://www.w3.org/1999/xlink" height="14.65px" width="23.35px" xmlns="http://www.w3.org/2000/svg">
  <g transform="matrix(1.0, 0.0, 0.0, 1.0, -35.45, -3.1)">
    <g transform="matrix(1.0, 0.0, 0.0, 1.0, 0.0, 0.0)">
      <use fill="#990000" height="14.65" transform="matrix(0.4102, 0.0, 0.0, 0.4102, 34.0, 18.0)" width="23.35" xlink:href="#font_______W7_20"/>
    </g>
    <g transform="matrix(1.0, 0.0, 0.0, 1.0, 0.0, 0.0)">
      <use fill="#990000" height="14.65" transform="matrix(0.2666, 0.0, 0.0, 0.2666, 45.65, 11.7)" width="23.35" xlink:href="#font_______W7_n0"/>
      <use fill="#990000" height="14.65" transform="matrix(0.2666, 0.0, 0.0, 0.2666, 51.05, 11.7)" width="23.35" xlink:href="#font_______W7_d0"/>
    </g>
  </g>
  <defs>
    <g id="font_______W7_20">
      <path d="M28.95 -10.35 L28.95 -10.35 15.65 -7.5 Q27.6 -16.45 27.6 -22.9 27.6 -27.25 23.55 -29.85 20.0 -32.15 15.5 -32.15 7.8 -32.15 3.0 -25.6 L6.65 -21.9 Q8.15 -24.2 10.6 -25.45 13.05 -26.75 15.65 -26.75 17.6 -26.75 19.15 -25.7 20.75 -24.7 20.75 -22.9 20.75 -19.15 13.5 -13.0 8.05 -8.3 2.55 -5.3 L3.85 -0.55 30.7 -0.55 28.95 -10.35" fill-rule="evenodd" stroke="none"/>
    </g>
    <g id="font_______W7_n0">
      <path d="M27.0 -9.05 L27.0 -9.05 Q27.0 -14.5 24.65 -17.8 21.9 -21.45 16.6 -21.45 12.6 -21.45 9.45 -18.85 L9.2 -20.75 4.35 -21.45 2.05 0.05 11.95 -1.4 10.35 -12.55 Q12.95 -15.85 15.9 -15.85 19.4 -15.85 19.4 -10.6 19.4 -6.9 16.6 -1.3 L26.2 0.0 Q27.0 -6.5 27.0 -9.05" fill-rule="evenodd" stroke="none"/>
    </g>
    <g id="font_______W7_d0">
      <path d="M18.35 -8.95 L18.35 -8.95 16.8 -11.9 Q14.75 -9.45 12.45 -9.45 10.9 -9.45 10.0 -10.4 9.1 -11.4 9.1 -12.95 9.1 -14.5 10.7 -15.6 12.15 -16.5 13.7 -16.5 16.6 -16.5 18.8 -14.55 L18.35 -8.95 M24.9 -31.55 L24.9 -31.55 20.15 -32.2 19.15 -19.55 Q16.05 -21.45 12.65 -21.45 8.15 -21.45 4.95 -18.25 1.8 -15.0 1.8 -10.5 1.8 -6.05 4.6 -3.05 7.4 0.05 11.85 0.05 14.65 0.05 17.7 -1.5 L17.6 0.0 27.65 -1.45 24.9 -31.55" fill-rule="evenodd" stroke="none"/>
    </g>
  </defs>
</svg>
