<?xml version="1.0" encoding="UTF-8" standalone="no"?>
<svg xmlns:xlink="http://www.w3.org/1999/xlink" height="15.6px" width="25.1px" xmlns="http://www.w3.org/2000/svg">
  <g transform="matrix(1.0, 0.0, 0.0, 1.0, -33.7, -3.1)">
    <g transform="matrix(1.0, 0.0, 0.0, 1.0, 0.0, 0.0)">
      <use fill="#990000" height="15.6" transform="matrix(0.4102, 0.0, 0.0, 0.4102, 30.0, 18.0)" width="25.1" xlink:href="#font_______W7__0"/>
    </g>
    <g transform="matrix(1.0, 0.0, 0.0, 1.0, 0.0, 0.0)">
      <use fill="#990000" height="15.6" transform="matrix(0.2666, 0.0, 0.0, 0.2666, 49.0, 11.7)" width="25.1" xlink:href="#font_______W7_r0"/>
      <use fill="#990000" height="15.6" transform="matrix(0.2666, 0.0, 0.0, 0.2666, 51.85, 11.7)" width="25.1" xlink:href="#font_______W7_d0"/>
    </g>
  </g>
  <defs>
    <g id="font_______W7__0">
      <path d="M41.25 -9.0 L41.25 -9.0 Q41.25 -14.3 36.55 -17.1 39.55 -20.2 39.55 -23.85 39.55 -28.75 34.55 -31.6 30.4 -34.0 25.1 -34.0 17.35 -34.0 11.6 -29.05 L14.4 -24.4 Q16.15 -26.15 19.75 -27.25 23.0 -28.3 25.8 -28.3 31.4 -28.3 31.4 -25.25 31.4 -22.1 27.7 -20.3 25.65 -19.25 21.05 -18.35 L22.0 -13.85 26.95 -14.55 Q28.95 -14.55 31.05 -13.35 33.45 -11.95 33.45 -10.05 33.45 -8.2 31.65 -7.15 30.1 -6.2 28.15 -6.2 20.7 -6.2 14.45 -13.5 L9.95 -3.4 Q15.1 1.75 25.95 1.75 32.2 1.75 36.2 -0.45 41.25 -3.25 41.25 -9.0" fill-rule="evenodd" stroke="none"/>
    </g>
    <g id="font_______W7_r0">
      <path d="M18.3 -20.6 L18.3 -20.6 Q16.55 -21.45 14.75 -21.45 11.5 -21.45 8.7 -18.65 L8.45 -20.75 4.45 -21.45 2.55 0.05 10.65 -1.4 9.3 -12.8 Q10.55 -14.85 12.3 -14.85 13.25 -14.85 14.55 -13.85 L16.55 -12.05 18.3 -20.6" fill-rule="evenodd" stroke="none"/>
    </g>
    <g id="font_______W7_d0">
      <path d="M18.35 -8.95 L18.35 -8.95 16.8 -11.9 Q14.75 -9.45 12.45 -9.45 10.9 -9.45 10.0 -10.4 9.1 -11.4 9.1 -12.95 9.1 -14.5 10.7 -15.6 12.15 -16.5 13.7 -16.5 16.6 -16.5 18.8 -14.55 L18.35 -8.95 M24.9 -31.55 L24.9 -31.55 20.15 -32.2 19.15 -19.55 Q16.05 -21.45 12.65 -21.45 8.15 -21.45 4.95 -18.25 1.8 -15.0 1.8 -10.5 1.8 -6.05 4.6 -3.05 7.4 0.05 11.85 0.05 14.65 0.05 17.7 -1.5 L17.6 0.0 27.65 -1.45 24.9 -31.55" fill-rule="evenodd" stroke="none"/>
    </g>
  </defs>
</svg>
