<?xml version="1.0" encoding="UTF-8" standalone="no"?>
<svg xmlns:xlink="http://www.w3.org/1999/xlink" height="15.55px" width="27.0px" xmlns="http://www.w3.org/2000/svg">
  <g transform="matrix(1.0, 0.0, 0.0, 1.0, -31.85, -3.15)">
    <g transform="matrix(1.0, 0.0, 0.0, 1.0, 0.0, 0.0)">
      <use fill="#990000" height="15.55" transform="matrix(0.4102, 0.0, 0.0, 0.4102, 28.0, 18.0)" width="27.0" xlink:href="#font_______W7__0"/>
    </g>
    <g transform="matrix(1.0, 0.0, 0.0, 1.0, 0.0, 0.0)">
      <use fill="#990000" height="15.55" transform="matrix(0.2666, 0.0, 0.0, 0.2666, 47.0, 11.7)" width="27.0" xlink:href="#font_______W7_t0"/>
      <use fill="#990000" height="15.55" transform="matrix(0.2666, 0.0, 0.0, 0.2666, 51.15, 11.7)" width="27.0" xlink:href="#font_______W7_h0"/>
    </g>
  </g>
  <defs>
    <g id="font_______W7__0">
      <path d="M26.85 -12.55 L26.85 -12.55 18.45 -11.15 28.2 -28.5 26.85 -12.55 M40.45 -14.9 L40.45 -14.9 35.95 -14.15 34.1 -33.25 28.65 -34.0 28.3 -29.65 24.7 -31.85 8.85 -9.4 10.25 -4.65 26.15 -4.65 25.6 1.75 37.4 0.5 36.85 -4.65 42.35 -4.65 40.45 -14.9" fill-rule="evenodd" stroke="none"/>
    </g>
    <g id="font_______W7_t0">
      <path d="M18.7 -12.2 L18.7 -12.2 Q17.0 -9.35 14.9 -9.35 11.95 -9.35 11.95 -15.4 L21.65 -15.4 20.1 -22.55 12.4 -21.45 Q12.75 -24.2 13.6 -27.95 L8.95 -28.85 Q7.75 -24.65 7.1 -20.75 L0.75 -19.9 1.75 -15.4 6.55 -15.4 6.5 -12.55 Q6.5 -6.8 7.75 -4.05 9.5 0.05 14.55 0.05 19.1 0.05 23.25 -4.15 L18.7 -12.2" fill-rule="evenodd" stroke="none"/>
    </g>
    <g id="font_______W7_h0">
      <path d="M28.1 -7.6 L28.1 -7.6 Q28.1 -13.7 25.7 -17.25 22.9 -21.45 17.05 -21.45 13.35 -21.45 10.45 -19.3 L9.3 -31.55 4.65 -32.15 2.05 0.05 12.1 -1.4 11.0 -12.9 Q13.45 -15.95 16.35 -15.95 20.1 -15.95 20.1 -10.2 20.1 -6.55 17.6 -1.55 L27.6 0.05 28.1 -7.6" fill-rule="evenodd" stroke="none"/>
    </g>
  </defs>
</svg>
