<?xml version="1.0" encoding="UTF-8" standalone="no"?>
<svg xmlns:xlink="http://www.w3.org/1999/xlink" height="15.55px" width="26.65px" xmlns="http://www.w3.org/2000/svg">
  <g transform="matrix(1.0, 0.0, 0.0, 1.0, -32.2, -3.15)">
    <g transform="matrix(1.0, 0.0, 0.0, 1.0, 0.0, 0.0)">
      <use fill="#990000" height="15.55" transform="matrix(0.4102, 0.0, 0.0, 0.4102, 28.0, 18.0)" width="26.65" xlink:href="#font_______W7__0"/>
    </g>
    <g transform="matrix(1.0, 0.0, 0.0, 1.0, 0.0, 0.0)">
      <use fill="#990000" height="15.55" transform="matrix(0.2666, 0.0, 0.0, 0.2666, 47.0, 11.7)" width="26.65" xlink:href="#font_______W7_t0"/>
      <use fill="#990000" height="15.55" transform="matrix(0.2666, 0.0, 0.0, 0.2666, 51.15, 11.7)" width="26.65" xlink:href="#font_______W7_h0"/>
    </g>
  </g>
  <defs>
    <g id="font_______W7__0">
      <path d="M41.5 -10.55 L41.5 -10.55 Q41.5 -16.3 37.25 -19.75 33.3 -22.9 27.45 -22.9 22.65 -22.9 18.9 -20.55 L19.15 -26.1 41.05 -26.05 39.35 -33.95 19.45 -31.5 19.5 -33.05 14.55 -34.0 11.3 -16.75 17.2 -14.5 Q23.0 -17.15 26.05 -17.15 28.5 -17.15 30.75 -15.85 33.4 -14.3 33.4 -12.05 33.4 -9.9 31.55 -8.45 29.75 -7.0 27.55 -7.0 23.9 -7.0 20.05 -9.0 16.55 -10.8 13.8 -13.7 L9.7 -2.65 Q16.95 1.75 25.6 1.75 32.1 1.75 36.45 -1.05 41.5 -4.35 41.5 -10.55" fill-rule="evenodd" stroke="none"/>
    </g>
    <g id="font_______W7_t0">
      <path d="M18.7 -12.2 L18.7 -12.2 Q17.0 -9.35 14.9 -9.35 11.95 -9.35 11.95 -15.4 L21.65 -15.4 20.1 -22.55 12.4 -21.45 Q12.75 -24.2 13.6 -27.95 L8.95 -28.85 Q7.75 -24.65 7.1 -20.75 L0.75 -19.9 1.75 -15.4 6.55 -15.4 6.5 -12.55 Q6.5 -6.8 7.75 -4.05 9.5 0.05 14.55 0.05 19.1 0.05 23.25 -4.15 L18.7 -12.2" fill-rule="evenodd" stroke="none"/>
    </g>
    <g id="font_______W7_h0">
      <path d="M28.1 -7.6 L28.1 -7.6 Q28.1 -13.7 25.7 -17.25 22.9 -21.45 17.05 -21.45 13.35 -21.45 10.45 -19.3 L9.3 -31.55 4.65 -32.15 2.05 0.05 12.1 -1.4 11.0 -12.9 Q13.45 -15.95 16.35 -15.95 20.1 -15.95 20.1 -10.2 20.1 -6.55 17.6 -1.55 L27.6 0.05 28.1 -7.6" fill-rule="evenodd" stroke="none"/>
    </g>
  </defs>
</svg>
