<?xml version="1.0" encoding="UTF-8" standalone="no"?>
<svg xmlns:xlink="http://www.w3.org/1999/xlink" height="8.1px" width="34.45px" xmlns="http://www.w3.org/2000/svg">
  <g transform="matrix(1.0, 0.0, 0.0, 1.0, -1.25, -0.45)">
    <g transform="matrix(1.0, 0.0, 0.0, 1.0, 0.0, 0.0)">
      <use fill="#ffffff" height="8.1" transform="matrix(0.1777, 0.0, 0.0, 0.1777, 0.0, 7.8)" width="34.45" xlink:href="#font_______W7__0"/>
      <use fill="#ffffff" height="8.1" transform="matrix(0.1777, 0.0, 0.0, 0.1777, 9.0, 7.8)" width="34.45" xlink:href="#font_______W7__1"/>
      <use fill="#ffffff" height="8.1" transform="matrix(0.1777, 0.0, 0.0, 0.1777, 18.0, 7.8)" width="34.45" xlink:href="#font_______W7__2"/>
      <use fill="#ffffff" height="8.1" transform="matrix(0.1777, 0.0, 0.0, 0.1777, 27.0, 7.8)" width="34.45" xlink:href="#font_______W7__3"/>
    </g>
  </g>
  <defs>
    <g id="font_______W7__0">
      <path d="M44.15 -11.6 L44.15 -11.6 Q33.2 -8.15 23.8 -8.15 L18.5 -8.65 Q15.35 -9.55 15.35 -12.3 15.35 -16.85 26.7 -20.4 34.35 -22.75 41.85 -23.55 L41.1 -29.55 Q32.75 -28.6 26.75 -27.05 L24.15 -41.0 16.9 -40.05 17.55 -23.85 Q7.0 -18.8 7.0 -10.25 7.0 2.05 29.75 2.05 L43.4 1.0 44.15 -11.6" fill-rule="evenodd" stroke="none"/>
    </g>
    <g id="font_______W7__1">
      <path d="M43.85 -4.85 L43.85 -4.85 Q33.35 -14.6 19.05 -21.7 L38.4 -37.1 35.3 -41.4 8.0 -23.5 8.65 -17.4 Q16.7 -12.55 22.2 -7.75 27.45 -3.2 33.7 4.3 L43.85 -4.85" fill-rule="evenodd" stroke="none"/>
    </g>
    <g id="font_______W7__2">
      <path d="M45.9 -38.95 L45.9 -38.95 4.0 -32.9 4.7 -26.9 22.3 -28.35 Q16.5 -20.95 16.5 -13.1 16.5 -5.45 24.2 -1.6 30.25 1.35 38.85 1.35 L39.4 1.35 42.0 -11.15 35.6 -10.7 Q24.95 -10.7 24.95 -18.0 24.95 -20.75 26.75 -23.9 L30.3 -28.95 47.05 -30.35 45.9 -38.95" fill-rule="evenodd" stroke="none"/>
    </g>
    <g id="font_______W7__3">
      <path d="M37.2 -21.15 L37.2 -21.15 Q36.55 -14.7 35.65 -11.65 34.4 -7.45 32.35 -7.45 31.5 -7.45 30.7 -8.2 29.95 -9.0 29.95 -9.85 29.95 -16.4 29.1 -18.4 27.7 -21.65 22.85 -21.65 L21.1 -21.5 26.45 -38.35 20.75 -40.75 2.4 -0.8 13.1 3.45 19.05 -15.1 20.9 -15.5 Q21.85 -15.5 22.75 -14.75 23.65 -14.05 23.65 -13.1 L23.75 -5.7 Q24.1 -1.7 25.9 0.25 28.2 2.7 33.2 2.7 40.45 2.7 44.55 -4.4 47.3 -9.2 48.9 -18.05 L37.2 -21.15" fill-rule="evenodd" stroke="none"/>
    </g>
  </defs>
</svg>
