<?xml version="1.0" encoding="UTF-8" standalone="no"?>
<svg xmlns:xlink="http://www.w3.org/1999/xlink" height="10.05px" width="41.65px" xmlns="http://www.w3.org/2000/svg">
  <g transform="matrix(1.0, 0.0, 0.0, 1.0, -0.5, -3.95)">
    <g transform="matrix(1.0, 0.0, 0.0, 1.0, 0.0, 0.0)">
      <use fill="#cc6600" height="10.05" transform="matrix(0.3125, 0.0, 0.0, 0.3125, 0.0, 14.0)" width="41.65" xlink:href="#font_______W7_S0"/>
      <use fill="#cc6600" height="10.05" transform="matrix(0.3125, 0.0, 0.0, 0.3125, 10.5, 14.0)" width="41.65" xlink:href="#font_______W7_c0"/>
      <use fill="#cc6600" height="10.05" transform="matrix(0.3125, 0.0, 0.0, 0.3125, 19.1, 14.0)" width="41.65" xlink:href="#font_______W7_o0"/>
      <use fill="#cc6600" height="10.05" transform="matrix(0.3125, 0.0, 0.0, 0.3125, 27.7, 14.0)" width="41.65" xlink:href="#font_______W7_r0"/>
      <use fill="#cc6600" height="10.05" transform="matrix(0.3125, 0.0, 0.0, 0.3125, 33.65, 14.0)" width="41.65" xlink:href="#font_______W7_e0"/>
    </g>
  </g>
  <defs>
    <g id="font_______W7_S0">
      <path d="M31.55 -9.25 L31.55 -9.25 Q31.55 -13.4 28.3 -15.85 25.95 -17.65 19.7 -19.75 10.7 -22.75 10.7 -24.2 10.7 -25.4 11.9 -26.1 13.0 -26.75 14.65 -26.75 21.7 -26.75 27.4 -23.2 L30.25 -27.8 Q24.05 -32.15 16.75 -32.15 11.9 -32.15 8.45 -30.45 4.0 -28.25 4.0 -23.9 4.0 -20.3 7.85 -18.05 9.4 -17.1 15.9 -14.75 23.85 -11.9 23.85 -10.1 23.85 -8.7 22.45 -7.9 21.25 -7.25 19.75 -7.25 15.9 -7.25 12.1 -9.95 8.85 -12.25 6.35 -15.9 L1.55 -6.1 Q4.85 -3.25 9.45 -1.6 14.1 0.05 18.65 0.05 23.45 0.05 27.15 -2.15 31.55 -4.75 31.55 -9.25" fill-rule="evenodd" stroke="none"/>
    </g>
    <g id="font_______W7_c0">
      <path d="M21.35 -12.5 L21.35 -12.5 Q19.95 -10.5 17.75 -9.15 15.35 -7.6 13.15 -7.6 11.4 -7.6 10.2 -8.85 8.9 -10.05 8.9 -11.8 8.9 -14.1 10.65 -15.4 12.2 -16.55 14.55 -16.55 18.9 -16.55 21.9 -13.7 L24.4 -17.55 Q19.65 -21.45 13.1 -21.45 8.05 -21.45 4.9 -18.4 1.8 -15.3 1.8 -10.3 1.8 -5.6 5.7 -2.65 9.25 0.05 14.1 0.05 17.2 0.05 20.45 -1.1 24.05 -2.3 25.9 -4.4 L21.35 -12.5" fill-rule="evenodd" stroke="none"/>
    </g>
    <g id="font_______W7_o0">
      <path d="M15.8 -13.5 L15.8 -13.5 Q16.45 -11.85 16.45 -10.4 16.45 -6.85 12.35 -6.85 10.6 -6.85 9.35 -8.05 8.15 -9.35 8.15 -11.05 8.15 -13.25 9.8 -14.6 11.4 -16.0 13.7 -16.0 16.1 -16.0 18.3 -14.3 L15.8 -13.5 M25.7 -11.4 L25.7 -11.4 Q25.7 -13.8 24.75 -16.35 L21.25 -15.25 22.7 -17.2 Q18.35 -21.45 13.15 -21.45 8.45 -21.45 5.1 -18.2 1.8 -14.95 1.8 -10.3 1.8 -5.5 5.4 -2.65 8.65 0.05 13.65 0.05 18.75 0.05 22.2 -3.2 25.7 -6.4 25.7 -11.4" fill-rule="evenodd" stroke="none"/>
    </g>
    <g id="font_______W7_r0">
      <path d="M18.3 -20.6 L18.3 -20.6 Q16.55 -21.45 14.75 -21.45 11.5 -21.45 8.7 -18.65 L8.45 -20.75 4.45 -21.45 2.55 0.05 10.65 -1.4 9.3 -12.8 Q10.55 -14.85 12.3 -14.85 13.25 -14.85 14.55 -13.85 L16.55 -12.05 18.3 -20.6" fill-rule="evenodd" stroke="none"/>
    </g>
    <g id="font_______W7_e0">
      <path d="M19.45 -9.9 L19.45 -9.9 Q16.75 -7.55 13.6 -7.55 10.45 -7.55 9.15 -9.9 L19.45 -9.9 M9.0 -13.4 L9.0 -13.4 Q9.7 -14.95 11.5 -15.95 13.2 -16.8 15.1 -16.8 18.05 -16.8 19.65 -14.35 L9.0 -13.4 M23.25 -9.9 L23.25 -9.9 24.3 -9.9 26.7 -12.6 Q25.85 -16.7 22.9 -19.1 19.9 -21.45 15.15 -21.45 9.65 -21.45 5.9 -18.65 1.8 -15.6 1.8 -10.4 1.8 -5.35 5.8 -2.5 9.3 0.05 14.6 0.05 22.45 0.05 27.15 -4.25 L23.25 -9.9" fill-rule="evenodd" stroke="none"/>
    </g>
  </defs>
</svg>
