<?xml version="1.0" encoding="UTF-8" standalone="no"?>
<svg xmlns:xlink="http://www.w3.org/1999/xlink" height="10.1px" width="35.6px" xmlns="http://www.w3.org/2000/svg">
  <g transform="matrix(1.0, 0.0, 0.0, 1.0, -0.8, -3.95)">
    <g transform="matrix(1.0, 0.0, 0.0, 1.0, 0.0, 0.0)">
      <use fill="#cc6600" height="10.1" transform="matrix(0.3125, 0.0, 0.0, 0.3125, 0.0, 14.0)" width="35.6" xlink:href="#font_______W7_D0"/>
      <use fill="#cc6600" height="10.1" transform="matrix(0.3125, 0.0, 0.0, 0.3125, 11.1, 14.0)" width="35.6" xlink:href="#font_______W7_a0"/>
      <use fill="#cc6600" height="10.1" transform="matrix(0.3125, 0.0, 0.0, 0.3125, 20.3, 14.0)" width="35.6" xlink:href="#font_______W7_t0"/>
      <use fill="#cc6600" height="10.1" transform="matrix(0.3125, 0.0, 0.0, 0.3125, 27.9, 14.0)" width="35.6" xlink:href="#font_______W7_e0"/>
    </g>
  </g>
  <defs>
    <g id="font_______W7_D0">
      <path d="M26.25 -17.9 L26.25 -17.9 Q26.25 -14.65 24.8 -12.6 23.1 -10.25 20.0 -10.25 16.6 -10.25 14.1 -12.65 L12.3 -9.6 10.95 -24.15 Q14.8 -25.95 17.05 -25.95 20.5 -25.95 23.3 -23.65 26.25 -21.25 26.25 -17.9 M33.4 -15.95 L33.4 -15.95 Q33.4 -22.6 29.35 -27.0 25.15 -31.55 18.55 -31.55 14.75 -31.55 10.4 -29.7 L10.25 -31.5 5.3 -32.15 2.55 0.05 13.15 -1.1 13.1 -1.6 Q15.65 -0.6 18.75 -0.6 25.45 -0.6 29.5 -4.95 33.4 -9.15 33.4 -15.95" fill-rule="evenodd" stroke="none"/>
    </g>
    <g id="font_______W7_a0">
      <path d="M19.05 -8.85 L19.05 -8.85 18.5 -5.05 17.1 -9.0 Q14.35 -6.2 10.6 -6.2 9.95 -6.2 9.45 -6.75 9.0 -7.2 9.0 -7.85 9.0 -10.2 13.7 -10.2 15.9 -10.2 19.05 -8.85 M27.4 -6.8 L27.4 -6.8 Q27.4 -21.45 13.35 -21.45 7.15 -21.45 2.55 -18.35 L4.3 -14.35 Q8.3 -16.55 13.15 -16.55 17.85 -16.55 18.85 -13.35 15.4 -14.5 12.8 -14.5 8.6 -14.5 5.6 -12.8 1.8 -10.75 1.8 -6.95 1.8 -3.5 4.9 -1.55 7.55 0.05 11.15 0.05 13.95 0.05 17.35 -0.95 L17.0 0.15 26.7 -0.3 Q27.4 -3.45 27.4 -6.8" fill-rule="evenodd" stroke="none"/>
    </g>
    <g id="font_______W7_t0">
      <path d="M18.7 -12.2 L18.7 -12.2 Q17.0 -9.35 14.9 -9.35 11.95 -9.35 11.95 -15.4 L21.65 -15.4 20.1 -22.55 12.4 -21.45 Q12.75 -24.2 13.6 -27.95 L8.95 -28.85 Q7.75 -24.65 7.1 -20.75 L0.75 -19.9 1.75 -15.4 6.55 -15.4 6.5 -12.55 Q6.5 -6.8 7.75 -4.05 9.5 0.05 14.55 0.05 19.1 0.05 23.25 -4.15 L18.7 -12.2" fill-rule="evenodd" stroke="none"/>
    </g>
    <g id="font_______W7_e0">
      <path d="M19.45 -9.9 L19.45 -9.9 Q16.75 -7.55 13.6 -7.55 10.45 -7.55 9.15 -9.9 L19.45 -9.9 M9.0 -13.4 L9.0 -13.4 Q9.7 -14.95 11.5 -15.95 13.2 -16.8 15.1 -16.8 18.05 -16.8 19.65 -14.35 L9.0 -13.4 M23.25 -9.9 L23.25 -9.9 24.3 -9.9 26.7 -12.6 Q25.85 -16.7 22.9 -19.1 19.9 -21.45 15.15 -21.45 9.65 -21.45 5.9 -18.65 1.8 -15.6 1.8 -10.4 1.8 -5.35 5.8 -2.5 9.3 0.05 14.6 0.05 22.45 0.05 27.15 -4.25 L23.25 -9.9" fill-rule="evenodd" stroke="none"/>
    </g>
  </defs>
</svg>
