<?xml version="1.0" encoding="UTF-8" standalone="no"?>
<svg xmlns:xlink="http://www.w3.org/1999/xlink" height="18.25px" width="49.3px" xmlns="http://www.w3.org/2000/svg">
  <g transform="matrix(1.0, 0.0, 0.0, 1.0, -47.1, -6.8)">
    <g transform="matrix(1.0, 0.0, 0.0, 1.0, 46.65, 0.0)">
      <use fill="#003399" height="18.25" transform="matrix(0.5664, 0.0, 0.0, 0.5664, 0.0, 25.0)" width="49.3" xlink:href="#font_______W7_Y0"/>
      <use fill="#003399" height="18.25" transform="matrix(0.5664, 0.0, 0.0, 0.5664, 19.25, 25.0)" width="49.3" xlink:href="#font_______W7_e0"/>
      <use fill="#003399" height="18.25" transform="matrix(0.5664, 0.0, 0.0, 0.5664, 35.5, 25.0)" width="49.3" xlink:href="#font_______W7_s0"/>
    </g>
  </g>
  <defs>
    <g id="font_______W7_Y0">
      <path d="M25.5 -32.15 L25.5 -32.15 15.75 -18.05 5.15 -31.95 0.75 -29.2 12.5 -12.7 10.15 0.05 21.35 -1.4 18.8 -12.8 33.25 -26.05 25.5 -32.15" fill-rule="evenodd" stroke="none"/>
    </g>
    <g id="font_______W7_e0">
      <path d="M19.45 -9.9 L19.45 -9.9 Q16.75 -7.55 13.6 -7.55 10.45 -7.55 9.15 -9.9 L19.45 -9.9 M9.0 -13.4 L9.0 -13.4 Q9.7 -14.95 11.5 -15.95 13.2 -16.8 15.1 -16.8 18.05 -16.8 19.65 -14.35 L9.0 -13.4 M23.25 -9.9 L23.25 -9.9 24.3 -9.9 26.7 -12.6 Q25.85 -16.7 22.9 -19.1 19.9 -21.45 15.15 -21.45 9.65 -21.45 5.9 -18.65 1.8 -15.6 1.8 -10.4 1.8 -5.35 5.8 -2.5 9.3 0.05 14.6 0.05 22.45 0.05 27.15 -4.25 L23.25 -9.9" fill-rule="evenodd" stroke="none"/>
    </g>
    <g id="font_______W7_s0">
      <path d="M25.05 -6.35 L25.05 -6.35 Q25.05 -12.25 15.35 -13.65 8.7 -14.6 8.7 -15.7 8.7 -17.05 12.35 -17.05 17.1 -17.05 22.25 -14.8 L23.8 -18.2 Q19.05 -21.45 12.25 -21.45 8.55 -21.45 6.05 -20.35 2.6 -18.85 2.6 -15.7 2.6 -13.1 4.75 -11.8 6.5 -10.75 10.95 -10.05 L16.3 -8.95 Q17.8 -8.4 17.8 -7.5 17.8 -6.2 15.25 -6.2 12.3 -6.2 9.1 -7.45 5.9 -8.7 3.8 -10.65 L1.0 -2.6 Q6.45 0.05 14.3 0.05 25.05 0.05 25.05 -6.35" fill-rule="evenodd" stroke="none"/>
    </g>
  </defs>
</svg>
