<?xml version="1.0" encoding="UTF-8" standalone="no"?>
<svg xmlns:xlink="http://www.w3.org/1999/xlink" height="16.6px" width="130.05px" xmlns="http://www.w3.org/2000/svg">
  <g transform="matrix(1.0, 0.0, 0.0, 1.0, -23.4, -5.55)">
    <g transform="matrix(1.0, 0.0, 0.0, 1.0, 0.0, 0.0)">
      <use fill="#000000" height="16.6" transform="matrix(0.4492, 0.0, 0.0, 0.4492, 22.0, 20.0)" width="130.05" xlink:href="#font_______W7_H0"/>
      <use fill="#000000" height="16.6" transform="matrix(0.4492, 0.0, 0.0, 0.4492, 38.75, 20.0)" width="130.05" xlink:href="#font_______W7_o0"/>
      <use fill="#000000" height="16.6" transform="matrix(0.4492, 0.0, 0.0, 0.4492, 51.1, 20.0)" width="130.05" xlink:href="#font_______W7_w0"/>
      <use fill="#000000" height="16.6" transform="matrix(0.4492, 0.0, 0.0, 0.4492, 73.0, 20.0)" width="130.05" xlink:href="#font_______W7_t0"/>
      <use fill="#000000" height="16.6" transform="matrix(0.4492, 0.0, 0.0, 0.4492, 83.9, 20.0)" width="130.05" xlink:href="#font_______W7_o0"/>
      <use fill="#000000" height="16.6" transform="matrix(0.4492, 0.0, 0.0, 0.4492, 103.9, 20.0)" width="130.05" xlink:href="#font_______W7_P0"/>
      <use fill="#000000" height="16.6" transform="matrix(0.4492, 0.0, 0.0, 0.4492, 119.4, 20.0)" width="130.05" xlink:href="#font_______W7_l0"/>
      <use fill="#000000" height="16.6" transform="matrix(0.4492, 0.0, 0.0, 0.4492, 127.8, 20.0)" width="130.05" xlink:href="#font_______W7_a0"/>
      <use fill="#000000" height="16.6" transform="matrix(0.4492, 0.0, 0.0, 0.4492, 141.05, 20.0)" width="130.05" xlink:href="#font_______W7_y0"/>
    </g>
  </g>
  <defs>
    <g id="font_______W7_H0">
      <path d="M35.0 -31.5 L35.0 -31.5 29.65 -32.15 28.55 -21.0 12.55 -18.75 11.25 -31.5 5.85 -32.15 2.8 0.05 14.5 -1.1 13.15 -13.75 27.9 -13.75 26.6 0.05 38.25 -1.1 35.0 -31.5" fill-rule="evenodd" stroke="none"/>
    </g>
    <g id="font_______W7_o0">
      <path d="M17.4 -13.5 L17.4 -13.5 Q18.1 -11.85 18.1 -10.4 18.1 -6.85 13.6 -6.85 11.65 -6.85 10.3 -8.05 9.0 -9.35 9.0 -11.05 9.0 -13.25 10.8 -14.6 12.55 -16.0 15.1 -16.0 17.7 -16.0 20.15 -14.3 L17.4 -13.5 M28.3 -11.4 L28.3 -11.4 Q28.3 -13.8 27.25 -16.35 L23.4 -15.25 25.0 -17.2 Q20.2 -21.45 14.5 -21.45 9.3 -21.45 5.6 -18.2 2.0 -14.95 2.0 -10.3 2.0 -5.5 5.95 -2.65 9.55 0.05 15.05 0.05 20.65 0.05 24.45 -3.2 28.3 -6.4 28.3 -11.4" fill-rule="evenodd" stroke="none"/>
    </g>
    <g id="font_______W7_w0">
      <path d="M25.4 -21.4 L25.4 -21.4 22.4 -10.05 18.25 -20.6 15.3 -21.45 10.3 -10.05 4.5 -21.35 0.55 -19.7 9.2 0.05 12.2 -0.5 16.4 -12.4 21.15 0.05 24.25 -0.55 34.35 -17.75 25.4 -21.4" fill-rule="evenodd" stroke="none"/>
    </g>
    <g id="font_______W7_t0">
      <path d="M20.6 -12.2 L20.6 -12.2 Q18.7 -9.35 16.4 -9.35 13.15 -9.35 13.15 -15.4 L23.85 -15.4 22.1 -22.55 13.65 -21.45 Q14.05 -24.2 14.95 -27.95 L9.85 -28.85 Q8.55 -24.65 7.8 -20.75 L0.85 -19.9 1.95 -15.4 7.2 -15.4 7.15 -12.55 Q7.15 -6.8 8.55 -4.05 10.45 0.05 16.0 0.05 21.0 0.05 25.6 -4.15 L20.6 -12.2" fill-rule="evenodd" stroke="none"/>
    </g>
    <g id="font_______W7_P0">
      <path d="M28.1 -21.45 L28.1 -21.45 Q28.1 -19.8 26.75 -18.6 25.4 -17.45 23.55 -17.45 19.15 -17.45 14.85 -20.8 L12.85 -16.3 12.0 -24.15 Q16.75 -26.45 20.75 -26.45 23.55 -26.45 25.65 -25.25 28.1 -23.9 28.1 -21.45 M35.75 -20.35 L35.75 -20.35 Q35.75 -25.9 31.75 -28.85 28.0 -31.55 21.75 -31.55 17.0 -31.55 11.45 -29.45 L11.25 -31.5 5.85 -32.15 2.8 0.05 14.5 -1.1 13.45 -11.0 Q17.55 -9.35 21.7 -9.35 27.75 -9.35 31.55 -12.05 35.75 -15.0 35.75 -20.35" fill-rule="evenodd" stroke="none"/>
    </g>
    <g id="font_______W7_l0">
      <path d="M12.75 -31.5 L12.75 -31.5 7.6 -32.15 4.8 0.05 15.85 -1.4 12.75 -31.5" fill-rule="evenodd" stroke="none"/>
    </g>
    <g id="font_______W7_a0">
      <path d="M20.95 -8.85 L20.95 -8.85 20.35 -5.05 18.8 -9.0 Q15.8 -6.2 11.65 -6.2 10.95 -6.2 10.4 -6.75 9.9 -7.2 9.9 -7.85 9.9 -10.2 15.1 -10.2 17.5 -10.2 20.95 -8.85 M30.15 -6.8 L30.15 -6.8 Q30.15 -21.45 14.7 -21.45 7.9 -21.45 2.8 -18.35 L4.75 -14.35 Q9.15 -16.55 14.5 -16.55 19.65 -16.55 20.75 -13.35 16.95 -14.5 14.1 -14.5 9.45 -14.5 6.15 -12.8 2.0 -10.75 2.0 -6.95 2.0 -3.5 5.4 -1.55 8.3 0.05 12.3 0.05 15.35 0.05 19.1 -0.95 L18.7 0.15 29.4 -0.3 Q30.15 -3.45 30.15 -6.8" fill-rule="evenodd" stroke="none"/>
    </g>
    <g id="font_______W7_y0">
      <path d="M23.35 -21.45 L23.35 -21.45 14.5 -10.8 4.05 -21.45 0.55 -19.75 9.35 -4.7 4.75 0.85 13.75 4.75 27.35 -19.65 23.35 -21.45" fill-rule="evenodd" stroke="none"/>
    </g>
  </defs>
</svg>
