<?xml version="1.0" encoding="UTF-8" standalone="no"?>
<svg xmlns:xlink="http://www.w3.org/1999/xlink" height="18.75px" width="81.85px" xmlns="http://www.w3.org/2000/svg">
  <g transform="matrix(1.0, 0.0, 0.0, 1.0, -1.3, -5.65)">
    <g transform="matrix(1.0, 0.0, 0.0, 1.0, 0.0, 0.0)">
      <use fill="#000000" height="18.75" transform="matrix(0.5078, 0.0, 0.0, 0.5078, 0.0, 22.0)" width="81.85" xlink:href="#font_______W7_F0"/>
      <use fill="#000000" height="18.75" transform="matrix(0.5078, 0.0, 0.0, 0.5078, 16.65, 22.0)" width="81.85" xlink:href="#font_______W7_l0"/>
      <use fill="#000000" height="18.75" transform="matrix(0.5078, 0.0, 0.0, 0.5078, 26.2, 22.0)" width="81.85" xlink:href="#font_______W7_u0"/>
      <use fill="#000000" height="18.75" transform="matrix(0.5078, 0.0, 0.0, 0.5078, 40.85, 22.0)" width="81.85" xlink:href="#font_______W7_n0"/>
      <use fill="#000000" height="18.75" transform="matrix(0.5078, 0.0, 0.0, 0.5078, 55.6, 22.0)" width="81.85" xlink:href="#font_______W7_k0"/>
      <use fill="#000000" height="18.75" transform="matrix(0.5078, 0.0, 0.0, 0.5078, 70.55, 22.0)" width="81.85" xlink:href="#font_______W7_y0"/>
    </g>
  </g>
  <defs>
    <g id="font_______W7_F0">
      <path d="M30.3 -31.55 L30.3 -31.55 10.45 -29.1 10.2 -31.5 5.3 -32.15 2.55 0.05 13.15 -1.1 12.2 -11.25 30.3 -11.25 28.75 -18.75 11.65 -16.25 10.9 -24.05 31.8 -24.05 30.3 -31.55" fill-rule="evenodd" stroke="none"/>
    </g>
    <g id="font_______W7_l0">
      <path d="M11.6 -31.5 L11.6 -31.5 6.9 -32.15 4.35 0.05 14.4 -1.4 11.6 -31.5" fill-rule="evenodd" stroke="none"/>
    </g>
    <g id="font_______W7_u0">
      <path d="M24.1 -20.75 L24.1 -20.75 19.25 -21.45 17.9 -8.95 16.15 -11.65 Q13.35 -8.1 10.6 -8.1 9.0 -8.1 8.15 -9.4 7.25 -10.65 7.25 -12.3 7.25 -15.75 8.6 -19.75 L3.9 -21.15 Q2.05 -16.35 2.05 -11.4 2.05 -6.45 4.25 -3.4 6.75 0.05 11.5 0.05 14.55 0.05 17.1 -1.5 L16.95 0.1 26.8 -1.35 24.1 -20.75" fill-rule="evenodd" stroke="none"/>
    </g>
    <g id="font_______W7_n0">
      <path d="M27.0 -9.05 L27.0 -9.05 Q27.0 -14.5 24.65 -17.8 21.9 -21.45 16.6 -21.45 12.6 -21.45 9.45 -18.85 L9.2 -20.75 4.35 -21.45 2.05 0.05 11.95 -1.4 10.35 -12.55 Q12.95 -15.85 15.9 -15.85 19.4 -15.85 19.4 -10.6 19.4 -6.9 16.6 -1.3 L26.2 0.0 Q27.0 -6.5 27.0 -9.05" fill-rule="evenodd" stroke="none"/>
    </g>
    <g id="font_______W7_k0">
      <path d="M20.35 -12.2 L20.35 -12.2 26.9 -17.9 24.8 -21.8 10.85 -14.65 9.3 -31.45 4.6 -32.15 2.05 0.05 12.1 -1.4 11.35 -9.1 13.25 -6.05 15.8 -8.25 22.05 0.25 28.6 -6.95 20.35 -12.2" fill-rule="evenodd" stroke="none"/>
    </g>
    <g id="font_______W7_y0">
      <path d="M21.2 -21.45 L21.2 -21.45 13.15 -10.8 3.65 -21.45 0.5 -19.75 8.5 -4.7 4.3 0.85 12.5 4.75 24.85 -19.65 21.2 -21.45" fill-rule="evenodd" stroke="none"/>
    </g>
  </defs>
</svg>
