<?xml version="1.0" encoding="UTF-8" standalone="no"?>
<svg xmlns:xlink="http://www.w3.org/1999/xlink" height="21.6px" width="77.15px" xmlns="http://www.w3.org/2000/svg">
  <g transform="matrix(1.0, 0.0, 0.0, 1.0, -23.2, -3.15)">
    <g transform="matrix(1.0, 0.0, 0.0, 1.0, 0.0, 0.0)">
      <use fill="#ffffff" height="21.6" transform="matrix(0.2539, 0.0, 0.0, 0.2539, 23.0, 13.0)" width="77.15" xlink:href="#font_Gadget_C0"/>
      <use fill="#ffffff" height="21.6" transform="matrix(0.2539, 0.0, 0.0, 0.2539, 31.35, 13.0)" width="77.15" xlink:href="#font_Gadget_o0"/>
      <use fill="#ffffff" height="21.6" transform="matrix(0.2539, 0.0, 0.0, 0.2539, 39.4, 13.0)" width="77.15" xlink:href="#font_Gadget_g0"/>
      <use fill="#ffffff" height="21.6" transform="matrix(0.2539, 0.0, 0.0, 0.2539, 47.1, 13.0)" width="77.15" xlink:href="#font_Gadget_s0"/>
      <use fill="#ffffff" height="21.6" transform="matrix(0.2539, 0.0, 0.0, 0.2539, 53.4, 13.0)" width="77.15" xlink:href="#font_Gadget_p0"/>
      <use fill="#ffffff" height="21.6" transform="matrix(0.2539, 0.0, 0.0, 0.2539, 61.3, 13.0)" width="77.15" xlink:href="#font_Gadget_o0"/>
      <use fill="#ffffff" height="21.6" transform="matrix(0.2539, 0.0, 0.0, 0.2539, 69.35, 13.0)" width="77.15" xlink:href="#font_Gadget_t0"/>
      <use fill="#ffffff" height="21.6" transform="matrix(0.2539, 0.0, 0.0, 0.2539, 73.4, 13.0)" width="77.15" xlink:href="#font_Gadget_t0"/>
      <use fill="#ffffff" height="21.6" transform="matrix(0.2539, 0.0, 0.0, 0.2539, 77.45, 13.0)" width="77.15" xlink:href="#font_Gadget_e0"/>
      <use fill="#ffffff" height="21.6" transform="matrix(0.2539, 0.0, 0.0, 0.2539, 85.15, 13.0)" width="77.15" xlink:href="#font_Gadget_r0"/>
      <use fill="#ffffff" height="21.6" transform="matrix(0.2539, 0.0, 0.0, 0.2539, 90.8, 13.0)" width="77.15" xlink:href="#font_Gadget__0"/>
      <use fill="#ffffff" height="21.6" transform="matrix(0.2539, 0.0, 0.0, 0.2539, 94.1, 13.0)" width="77.15" xlink:href="#font_Gadget_s0"/>
    </g>
    <g transform="matrix(1.0, 0.0, 0.0, 1.0, 0.0, 0.0)">
      <use fill="#ffffff" height="21.6" transform="matrix(0.2539, 0.0, 0.0, 0.2539, 43.0, 25.0)" width="77.15" xlink:href="#font_Gadget_G0"/>
      <use fill="#ffffff" height="21.6" transform="matrix(0.2539, 0.0, 0.0, 0.2539, 51.75, 25.0)" width="77.15" xlink:href="#font_Gadget_u0"/>
      <use fill="#ffffff" height="21.6" transform="matrix(0.2539, 0.0, 0.0, 0.2539, 59.65, 25.0)" width="77.15" xlink:href="#font_Gadget_i0"/>
      <use fill="#ffffff" height="21.6" transform="matrix(0.2539, 0.0, 0.0, 0.2539, 63.25, 25.0)" width="77.15" xlink:href="#font_Gadget_d0"/>
      <use fill="#ffffff" height="21.6" transform="matrix(0.2539, 0.0, 0.0, 0.2539, 71.2, 25.0)" width="77.15" xlink:href="#font_Gadget_e0"/>
    </g>
  </g>
  <defs>
    <g id="font_Gadget_C0">
      <path d="M34.35 -36.0 L34.35 -36.0 Q32.0 -37.4 28.75 -38.1 L22.85 -38.8 Q12.95 -38.8 7.45 -33.0 2.0 -27.2 2.0 -19.05 2.0 -9.9 7.25 -4.65 12.55 0.6 22.4 0.6 L28.3 0.0 Q31.55 -0.65 33.65 -1.8 L33.65 -8.8 Q31.5 -7.8 28.45 -7.2 L22.95 -6.6 Q17.25 -6.6 14.55 -10.0 11.9 -13.45 11.9 -19.25 11.9 -24.9 15.25 -28.25 18.65 -31.6 23.4 -31.6 L27.9 -30.95 Q29.45 -30.35 30.6 -29.6 L30.6 -25.6 33.0 -25.6 34.35 -36.0" fill-rule="evenodd" stroke="none"/>
    </g>
    <g id="font_Gadget_o0">
      <path d="M24.45 -13.9 L24.45 -13.9 Q24.45 -9.55 22.85 -7.55 21.25 -5.6 17.55 -5.6 14.25 -5.6 12.3 -8.0 10.35 -10.45 10.35 -13.9 10.35 -17.6 12.0 -19.9 13.6 -22.2 17.4 -22.2 20.7 -22.2 22.55 -19.65 24.45 -17.15 24.45 -13.9 M33.0 -13.9 L33.0 -13.9 Q33.0 -20.5 28.85 -24.45 24.65 -28.4 17.4 -28.4 10.15 -28.4 5.95 -24.15 1.75 -19.85 1.75 -13.9 1.75 -7.3 5.65 -3.35 9.55 0.6 17.4 0.6 24.65 0.6 28.85 -3.3 33.0 -7.25 33.0 -13.9" fill-rule="evenodd" stroke="none"/>
    </g>
    <g id="font_Gadget_g0">
      <path d="M22.0 -8.75 L22.0 -8.75 Q21.25 -7.75 19.9 -7.15 18.55 -6.6 16.85 -6.6 13.6 -6.6 11.95 -8.95 10.35 -11.3 10.35 -15.0 10.35 -17.75 11.9 -19.9 13.45 -22.0 17.1 -22.0 19.05 -22.0 20.2 -21.35 21.3 -20.7 22.0 -19.6 L22.0 -8.75 M29.95 -26.8 L29.95 -26.8 28.15 -27.4 23.75 -25.8 Q22.05 -27.15 20.0 -27.75 L15.9 -28.4 Q9.8 -28.4 5.8 -24.45 1.75 -20.5 1.75 -14.4 1.75 -7.8 5.2 -4.0 8.6 -0.2 14.85 -0.2 L16.9 -0.4 Q18.0 -0.6 18.85 -1.1 L21.8 -2.9 21.8 -1.0 Q21.8 1.7 19.6 2.85 17.4 4.0 11.0 4.0 L11.0 8.2 18.35 8.25 22.3 6.95 26.1 4.65 Q27.8 3.2 28.85 1.2 29.95 -0.8 29.95 -3.35 L29.95 -26.8" fill-rule="evenodd" stroke="none"/>
    </g>
    <g id="font_Gadget_s0">
      <path d="M25.75 -9.15 L25.75 -9.15 Q25.75 -12.75 23.05 -14.9 20.3 -17.0 14.9 -17.35 L11.5 -17.95 Q9.9 -18.4 9.9 -19.95 9.9 -20.75 11.05 -21.4 12.2 -22.0 14.25 -22.0 L18.95 -21.55 23.35 -20.2 23.35 -27.2 19.05 -28.05 14.35 -28.4 Q9.35 -28.4 5.9 -25.85 2.45 -23.35 2.45 -19.4 2.45 -15.95 4.7 -13.9 6.95 -11.85 12.6 -11.45 15.75 -11.2 17.0 -10.5 18.25 -9.8 18.25 -8.7 18.25 -7.05 16.75 -6.4 L12.85 -5.8 Q9.4 -5.8 6.85 -6.55 4.25 -7.35 2.2 -8.4 L2.2 -1.6 Q4.8 -0.3 8.1 0.15 L13.8 0.6 Q18.85 0.6 22.3 -2.05 25.75 -4.75 25.75 -9.15" fill-rule="evenodd" stroke="none"/>
    </g>
    <g id="font_Gadget_p0">
      <path d="M24.2 -13.85 L24.2 -13.85 Q24.2 -9.85 22.55 -7.85 20.85 -5.8 17.3 -5.8 L13.9 -6.25 Q12.35 -6.65 11.65 -7.4 L11.65 -20.05 Q12.35 -20.7 13.6 -21.35 14.85 -22.0 17.05 -22.0 20.4 -22.0 22.3 -19.55 24.2 -17.15 24.2 -13.85 M32.8 -14.15 L32.8 -14.15 Q32.8 -20.35 29.2 -24.35 25.55 -28.4 19.4 -28.4 L16.9 -28.05 14.5 -27.1 11.65 -25.85 11.3 -27.4 3.3 -26.8 3.3 8.2 11.65 8.2 11.65 -1.0 Q12.75 -0.45 14.5 -0.1 L18.3 0.2 Q24.35 0.2 28.55 -3.85 32.8 -7.9 32.8 -14.15" fill-rule="evenodd" stroke="none"/>
    </g>
    <g id="font_Gadget_t0">
      <path d="M17.4 -4.6 L17.4 -4.6 Q14.95 -5.55 13.55 -7.45 12.1 -9.35 12.1 -12.2 L12.1 -21.8 16.5 -21.8 16.5 -26.8 12.1 -26.8 12.1 -36.4 3.75 -35.8 3.75 -26.8 0.9 -26.8 0.9 -21.8 3.75 -21.8 3.75 -10.05 Q3.75 -6.25 5.65 -3.55 7.55 -0.8 11.35 0.6 L17.4 -4.6" fill-rule="evenodd" stroke="none"/>
    </g>
    <g id="font_Gadget_e0">
      <path d="M10.35 -15.8 L10.35 -15.8 Q10.7 -18.6 12.35 -20.3 14.0 -22.0 17.25 -22.0 20.05 -22.0 21.95 -20.4 23.8 -18.85 24.45 -15.8 L10.35 -15.8 M31.9 -12.2 L31.9 -12.2 Q31.95 -19.7 28.0 -24.05 24.0 -28.4 17.35 -28.4 10.7 -28.4 6.2 -24.35 1.75 -20.3 1.75 -13.7 1.75 -7.15 6.1 -3.3 10.45 0.6 18.2 0.6 L23.35 0.0 Q26.55 -0.55 28.15 -1.6 L28.15 -8.6 Q26.5 -7.5 23.55 -6.85 L18.25 -6.2 Q15.25 -6.2 13.15 -7.6 11.0 -9.0 10.35 -12.2 L31.9 -12.2" fill-rule="evenodd" stroke="none"/>
    </g>
    <g id="font_Gadget_r0">
      <path d="M23.75 -27.25 L23.75 -27.25 22.45 -27.65 20.15 -27.8 17.2 -27.35 Q15.6 -26.9 14.35 -26.2 L11.65 -24.75 11.65 -27.4 3.3 -26.8 3.3 0.0 11.65 0.0 11.65 -18.15 Q12.7 -19.0 14.3 -19.6 15.85 -20.2 18.15 -20.2 L21.55 -19.75 Q22.95 -19.35 23.75 -18.8 L23.75 -27.25" fill-rule="evenodd" stroke="none"/>
    </g>
    <g id="font_Gadget__0">
      <path d="M10.8 -38.4 L10.8 -38.4 3.55 -38.4 3.55 -25.8 10.8 -25.8 10.8 -38.4" fill-rule="evenodd" stroke="none"/>
    </g>
    <g id="font_Gadget_G0">
      <path d="M35.2 -21.6 L35.2 -21.6 20.45 -21.6 20.45 -17.4 27.75 -17.4 27.75 -7.2 25.9 -6.75 23.05 -6.6 Q17.3 -6.6 14.6 -10.05 11.85 -13.5 11.9 -19.3 11.9 -24.15 14.9 -27.9 17.85 -31.6 23.0 -31.6 L27.6 -31.0 Q29.6 -30.4 30.6 -29.6 L30.6 -26.4 33.0 -26.4 34.35 -35.8 Q32.6 -37.0 29.05 -37.9 25.55 -38.8 22.9 -38.8 13.05 -38.8 7.5 -32.6 2.0 -26.45 2.0 -18.65 2.0 -10.6 6.95 -5.0 11.95 0.6 22.35 0.6 L28.95 -0.3 Q32.9 -1.2 35.2 -3.0 L35.2 -21.6" fill-rule="evenodd" stroke="none"/>
    </g>
    <g id="font_Gadget_u0">
      <path d="M31.05 -26.8 L31.05 -26.8 22.65 -26.8 22.65 -8.75 Q21.8 -8.05 20.2 -7.2 18.6 -6.4 16.4 -6.4 14.0 -6.4 12.85 -7.5 11.65 -8.65 11.65 -10.15 L11.65 -26.8 3.3 -26.8 3.3 -8.45 Q3.3 -4.35 5.85 -1.85 8.35 0.6 12.7 0.6 L16.15 0.2 Q17.75 -0.2 19.2 -0.95 L22.65 -2.75 22.65 0.0 31.05 0.0 31.05 -26.8" fill-rule="evenodd" stroke="none"/>
    </g>
    <g id="font_Gadget_i0">
      <path d="M11.9 -27.4 L11.9 -27.4 3.55 -26.8 3.55 0.0 11.9 0.0 11.9 -27.4 M11.9 -37.4 L11.9 -37.4 3.55 -37.4 3.55 -30.2 11.9 -30.2 11.9 -37.4" fill-rule="evenodd" stroke="none"/>
    </g>
    <g id="font_Gadget_d0">
      <path d="M22.9 -8.2 L22.9 -8.2 Q21.95 -7.35 20.45 -6.8 19.0 -6.2 17.0 -6.2 13.95 -6.2 12.15 -8.25 10.35 -10.25 10.35 -14.4 10.35 -18.45 12.05 -20.3 13.7 -22.2 17.15 -22.2 L20.6 -21.65 Q22.2 -21.1 22.9 -20.35 L22.9 -8.2 M31.25 -38.4 L31.25 -38.4 22.9 -38.4 22.9 -26.75 Q21.55 -27.45 20.1 -27.7 L16.7 -28.0 Q9.95 -28.0 5.85 -24.1 1.75 -20.2 1.75 -13.65 1.8 -7.6 5.15 -3.6 8.55 0.4 15.05 0.4 L16.85 0.25 18.45 -0.15 22.9 -2.4 24.85 0.0 31.25 0.0 31.25 -38.4" fill-rule="evenodd" stroke="none"/>
    </g>
  </defs>
</svg>
