<?xml version="1.0" encoding="UTF-8" standalone="no"?>
<svg xmlns:xlink="http://www.w3.org/1999/xlink" height="7.4px" width="98.95px" xmlns="http://www.w3.org/2000/svg">
  <g transform="matrix(1.0, 0.0, 0.0, 1.0, -0.35, -0.75)">
    <g transform="matrix(1.0, 0.0, 0.0, 1.0, 0.0, 0.0)">
      <use fill="#333333" height="7.4" transform="matrix(0.1758, 0.0, 0.0, 0.1758, 0.0, 8.0)" width="98.95" xlink:href="#font_A-OTF_____Pro_501_S0"/>
      <use fill="#333333" height="7.4" transform="matrix(0.1758, 0.0, 0.0, 0.1758, 6.15, 8.0)" width="98.95" xlink:href="#font_A-OTF_____Pro_501_o0"/>
      <use fill="#333333" height="7.4" transform="matrix(0.1758, 0.0, 0.0, 0.1758, 11.8, 8.0)" width="98.95" xlink:href="#font_A-OTF_____Pro_501_u0"/>
      <use fill="#333333" height="7.4" transform="matrix(0.1758, 0.0, 0.0, 0.1758, 17.45, 8.0)" width="98.95" xlink:href="#font_A-OTF_____Pro_501_n0"/>
      <use fill="#333333" height="7.4" transform="matrix(0.1758, 0.0, 0.0, 0.1758, 23.1, 8.0)" width="98.95" xlink:href="#font_A-OTF_____Pro_501_d0"/>
      <use fill="#333333" height="7.4" transform="matrix(0.1758, 0.0, 0.0, 0.1758, 31.75, 8.0)" width="98.95" xlink:href="#font_A-OTF_____Pro_501_O0"/>
      <use fill="#333333" height="7.4" transform="matrix(0.1758, 0.0, 0.0, 0.1758, 39.1, 8.0)" width="98.95" xlink:href="#font_A-OTF_____Pro_501_n0"/>
      <use fill="#333333" height="7.4" transform="matrix(0.1758, 0.0, 0.0, 0.1758, 44.75, 8.0)" width="98.95" xlink:href="#font_A-OTF_____Pro_501__1"/>
      <use fill="#333333" height="7.4" transform="matrix(0.1758, 0.0, 0.0, 0.1758, 49.25, 8.0)" width="98.95" xlink:href="#font_A-OTF_____Pro_501_O0"/>
      <use fill="#333333" height="7.4" transform="matrix(0.1758, 0.0, 0.0, 0.1758, 56.6, 8.0)" width="98.95" xlink:href="#font_A-OTF_____Pro_501_f0"/>
      <use fill="#333333" height="7.4" transform="matrix(0.1758, 0.0, 0.0, 0.1758, 60.6, 8.0)" width="98.95" xlink:href="#font_A-OTF_____Pro_501_f0"/>
      <use fill="#333333" height="7.4" transform="matrix(0.1758, 0.0, 0.0, 0.1758, 67.6, 8.0)" width="98.95" xlink:href="#font_A-OTF_____Pro_501_B0"/>
      <use fill="#333333" height="7.4" transform="matrix(0.1758, 0.0, 0.0, 0.1758, 74.45, 8.0)" width="98.95" xlink:href="#font_A-OTF_____Pro_501_u0"/>
      <use fill="#333333" height="7.4" transform="matrix(0.1758, 0.0, 0.0, 0.1758, 80.1, 8.0)" width="98.95" xlink:href="#font_A-OTF_____Pro_501_t0"/>
      <use fill="#333333" height="7.4" transform="matrix(0.1758, 0.0, 0.0, 0.1758, 84.1, 8.0)" width="98.95" xlink:href="#font_A-OTF_____Pro_501_t0"/>
      <use fill="#333333" height="7.4" transform="matrix(0.1758, 0.0, 0.0, 0.1758, 88.1, 8.0)" width="98.95" xlink:href="#font_A-OTF_____Pro_501_o0"/>
      <use fill="#333333" height="7.4" transform="matrix(0.1758, 0.0, 0.0, 0.1758, 93.75, 8.0)" width="98.95" xlink:href="#font_A-OTF_____Pro_501_n0"/>
    </g>
  </g>
  <defs>
    <g id="font_A-OTF_____Pro_501_S0">
      <path d="M19.3 -41.15 L19.3 -41.15 Q12.2 -41.1 8.25 -37.9 4.25 -34.7 4.2 -29.5 4.15 -25.4 7.15 -22.5 10.15 -19.6 17.1 -17.65 23.55 -15.9 25.9 -14.65 28.3 -13.35 28.2 -11.2 28.1 -9.0 25.95 -7.7 23.75 -6.4 20.65 -6.35 16.3 -6.55 13.95 -8.0 11.6 -9.5 10.85 -10.45 L8.15 -12.95 Q7.35 -13.5 6.2 -13.45 4.25 -13.4 3.2 -12.35 2.1 -11.3 2.1 -9.85 2.2 -7.05 7.05 -3.3 11.85 0.45 20.25 0.8 26.5 0.8 31.4 -2.3 36.25 -5.4 36.5 -11.5 36.65 -15.55 33.55 -18.5 30.5 -21.45 22.85 -23.45 17.0 -24.85 14.75 -26.1 12.45 -27.35 12.55 -29.65 12.5 -31.3 14.0 -32.7 15.5 -34.1 19.35 -34.2 22.1 -34.2 24.2 -33.45 26.35 -32.75 28.55 -31.05 L30.9 -29.65 32.1 -29.45 Q35.85 -29.8 36.15 -33.0 35.8 -36.3 30.4 -38.65 25.05 -41.05 19.3 -41.15 L19.3 -41.15" fill-rule="evenodd" stroke="none"/>
    </g>
    <g id="font_A-OTF_____Pro_501_o0">
      <path d="M17.7 -23.8 L17.7 -23.8 Q22.9 -23.45 24.3 -20.3 25.7 -17.1 25.55 -14.85 25.7 -12.65 24.3 -9.5 22.9 -6.3 17.7 -6.0 12.5 -6.3 11.1 -9.5 9.75 -12.65 9.9 -14.85 9.75 -17.1 11.15 -20.3 12.55 -23.45 17.7 -23.8 L17.7 -23.8 M17.7 -30.6 L17.7 -30.6 Q8.85 -30.25 5.55 -25.2 2.25 -20.2 2.45 -14.85 2.25 -9.55 5.55 -4.55 8.85 0.45 17.7 0.8 26.6 0.45 29.9 -4.55 33.2 -9.55 33.0 -14.85 33.2 -20.2 29.9 -25.2 26.6 -30.2 17.7 -30.6 L17.7 -30.6" fill-rule="evenodd" stroke="none"/>
    </g>
    <g id="font_A-OTF_____Pro_501_u0">
      <path d="M3.75 -8.4 L3.75 -8.4 Q3.8 -4.25 6.8 -1.75 9.75 0.75 14.75 0.8 19.25 0.7 21.45 -0.5 23.6 -1.7 24.2 -2.5 24.7 -1.35 25.65 -0.3 26.65 0.75 28.5 0.8 32.2 0.4 32.15 -2.25 L31.9 -5.0 31.7 -7.85 31.7 -27.2 Q31.7 -28.3 30.8 -29.4 29.9 -30.5 28.15 -30.6 24.7 -30.3 24.45 -27.25 L24.45 -12.25 Q24.45 -10.3 22.5 -8.15 20.55 -5.95 16.65 -5.8 13.2 -5.9 12.05 -7.7 10.9 -9.45 11.0 -11.3 L11.0 -27.2 Q11.0 -28.15 10.15 -29.35 9.3 -30.5 7.45 -30.6 4.1 -30.35 3.75 -27.25 L3.75 -8.4 3.75 -8.4" fill-rule="evenodd" stroke="none"/>
    </g>
    <g id="font_A-OTF_____Pro_501_n0">
      <path d="M31.7 -21.3 L31.7 -21.3 Q31.6 -25.45 28.65 -28.0 25.65 -30.5 20.7 -30.6 16.15 -30.45 13.95 -29.25 11.8 -28.05 11.2 -27.3 L9.8 -29.45 Q8.8 -30.5 6.95 -30.6 3.3 -30.2 3.3 -27.55 L3.55 -24.75 3.75 -21.9 3.75 -2.6 Q3.75 -1.3 4.7 -0.3 5.65 0.75 7.4 0.8 10.7 0.6 11.0 -2.55 L11.0 -17.55 Q11.0 -19.45 12.95 -21.6 14.85 -23.8 18.8 -24.0 22.2 -23.85 23.35 -22.1 24.5 -20.35 24.45 -18.45 L24.45 -2.6 Q24.45 -1.45 25.3 -0.35 26.2 0.75 28.05 0.8 31.35 0.6 31.7 -2.55 L31.7 -21.3 31.7 -21.3" fill-rule="evenodd" stroke="none"/>
    </g>
    <g id="font_A-OTF_____Pro_501_d0">
      <path d="M24.45 -13.2 L24.45 -13.2 Q24.55 -11.4 23.05 -8.85 21.55 -6.25 16.85 -6.0 12.55 -6.2 11.15 -9.0 9.8 -11.8 9.9 -14.8 10.15 -21.25 12.75 -22.65 15.3 -24.05 17.0 -23.8 22.35 -23.45 23.5 -20.6 24.65 -17.8 24.45 -16.85 L24.45 -13.2 24.45 -13.2 M31.7 -37.9 L31.7 -37.9 Q31.45 -40.85 27.9 -41.2 26.05 -41.1 25.25 -39.95 24.4 -38.85 24.45 -37.85 L24.45 -27.95 Q22.0 -29.85 19.4 -30.25 L15.95 -30.6 Q8.75 -30.35 5.55 -25.8 2.35 -21.25 2.45 -15.05 2.4 -8.8 5.75 -4.1 9.05 0.6 16.45 0.8 20.2 0.75 22.05 -0.35 23.9 -1.45 24.9 -2.65 24.95 0.4 28.6 0.8 30.8 0.75 31.3 -0.4 31.8 -1.5 31.7 -2.75 L31.7 -37.9 31.7 -37.9" fill-rule="evenodd" stroke="none"/>
    </g>
    <g id="font_A-OTF_____Pro_501_O0">
      <path d="M22.95 -34.0 L22.95 -34.0 Q29.45 -33.7 32.25 -29.35 35.05 -25.05 35.0 -20.2 35.05 -15.5 32.3 -11.1 29.5 -6.7 22.9 -6.4 16.4 -6.7 13.55 -11.0 10.7 -15.3 10.75 -20.2 10.75 -25.35 13.65 -29.55 16.6 -33.75 22.95 -34.0 L22.95 -34.0 M22.95 0.8 L22.95 0.8 Q30.25 0.7 34.75 -2.6 39.25 -5.9 41.3 -10.7 43.4 -15.5 43.35 -20.2 43.4 -24.9 41.3 -29.7 39.25 -34.5 34.75 -37.8 30.25 -41.05 22.95 -41.2 15.6 -41.05 11.1 -37.8 6.55 -34.5 4.5 -29.7 2.4 -24.9 2.45 -20.2 2.4 -15.5 4.5 -10.7 6.55 -5.9 11.1 -2.6 15.6 0.7 22.95 0.8 L22.95 0.8" fill-rule="evenodd" stroke="none"/>
    </g>
    <g id="font_A-OTF_____Pro_501__1">
      <path d="M1.85 -2.3 L1.85 -2.3 Q1.5 -1.65 1.55 -1.05 1.6 0.5 3.75 0.8 L4.85 0.55 Q5.55 0.3 6.3 -0.95 L26.35 -38.1 26.65 -39.35 Q26.45 -40.95 24.45 -41.2 L23.35 -40.95 Q22.65 -40.65 21.9 -39.4 L1.85 -2.3 1.85 -2.3" fill-rule="evenodd" stroke="none"/>
    </g>
    <g id="font_A-OTF_____Pro_501_f0">
      <path d="M8.6 -23.6 L8.6 -23.6 8.6 -2.6 Q8.6 -1.5 9.5 -0.4 10.4 0.7 12.15 0.8 15.45 0.6 15.85 -2.55 L15.85 -23.6 20.65 -23.6 Q21.6 -23.6 22.7 -24.3 23.75 -25.05 23.85 -26.6 23.7 -29.4 20.65 -29.8 L15.85 -29.8 Q15.85 -33.0 16.8 -33.85 17.75 -34.7 19.65 -34.85 20.8 -34.95 21.75 -35.5 22.75 -36.05 22.8 -37.9 22.7 -39.8 21.6 -40.5 20.45 -41.2 18.95 -41.2 16.0 -41.3 12.45 -39.25 8.9 -37.25 8.6 -31.6 L8.6 -29.8 4.35 -29.8 Q3.45 -29.8 2.35 -29.05 1.25 -28.35 1.15 -26.75 1.35 -24.0 4.35 -23.6 L8.6 -23.6 8.6 -23.6" fill-rule="evenodd" stroke="none"/>
    </g>
    <g id="font_A-OTF_____Pro_501_B0">
      <path d="M12.35 -17.4 L12.35 -17.4 26.9 -17.4 Q28.05 -17.45 30.0 -16.35 31.95 -15.25 32.15 -12.3 32.05 -9.55 29.9 -8.35 27.8 -7.15 25.2 -7.2 L13.95 -7.2 Q12.35 -7.4 12.35 -8.6 L12.35 -17.4 12.35 -17.4 M12.35 -24.35 L12.35 -24.35 12.35 -31.7 Q12.2 -33.0 13.6 -33.2 L26.15 -33.2 Q28.05 -33.2 29.6 -32.15 31.15 -31.1 31.25 -29.0 30.85 -24.7 26.2 -24.35 L12.35 -24.35 12.35 -24.35 M27.0 0.0 L27.0 0.0 Q32.8 -0.05 36.45 -3.35 40.15 -6.6 40.25 -12.0 40.3 -18.2 34.45 -21.3 37.85 -23.65 38.6 -26.2 39.3 -28.75 39.15 -29.65 39.15 -34.3 35.75 -37.3 32.35 -40.3 26.15 -40.4 L10.4 -40.4 Q7.25 -40.3 5.8 -38.6 4.4 -36.85 4.4 -34.4 L4.4 -6.45 Q4.05 -0.2 10.5 0.0 L27.0 0.0 27.0 0.0" fill-rule="evenodd" stroke="none"/>
    </g>
    <g id="font_A-OTF_____Pro_501_t0">
      <path d="M7.05 -23.6 L7.05 -23.6 7.05 -7.7 Q6.85 -5.7 8.1 -2.65 9.35 0.45 14.65 0.8 19.65 0.45 22.0 -2.75 24.4 -5.9 24.4 -7.9 24.4 -9.05 23.5 -10.05 22.6 -11.1 20.85 -11.2 19.15 -11.55 17.4 -8.45 16.3 -6.25 15.2 -6.35 13.95 -6.7 14.1 -7.95 L14.1 -23.6 20.75 -23.6 Q21.7 -23.6 22.75 -24.3 23.8 -25.05 23.9 -26.65 23.7 -29.45 20.75 -29.8 L14.1 -29.8 14.1 -35.4 Q14.1 -36.5 13.25 -37.45 12.4 -38.45 10.65 -38.55 7.45 -38.45 7.05 -35.35 L7.05 -29.8 4.4 -29.8 Q3.3 -29.75 2.3 -29.0 1.3 -28.2 1.25 -26.75 1.25 -25.55 2.1 -24.6 2.9 -23.65 4.4 -23.6 L7.05 -23.6 7.05 -23.6" fill-rule="evenodd" stroke="none"/>
    </g>
  </defs>
</svg>
