<?xml version="1.0" encoding="UTF-8" standalone="no"?>
<svg xmlns:xlink="http://www.w3.org/1999/xlink" height="19.45px" width="87.9px" xmlns="http://www.w3.org/2000/svg">
  <g transform="matrix(1.0, 0.0, 0.0, 1.0, -0.45, -0.75)">
    <g transform="matrix(1.0, 0.0, 0.0, 1.0, 0.0, 0.0)">
      <use fill="#333333" height="19.45" transform="matrix(0.1758, 0.0, 0.0, 0.1758, 0.0, 8.0)" width="87.9" xlink:href="#font_A-OTF_____Pro_501_L0"/>
      <use fill="#333333" height="19.45" transform="matrix(0.1758, 0.0, 0.0, 0.1758, 5.65, 8.0)" width="87.9" xlink:href="#font_A-OTF_____Pro_501_e0"/>
      <use fill="#333333" height="19.45" transform="matrix(0.1758, 0.0, 0.0, 0.1758, 10.65, 8.0)" width="87.9" xlink:href="#font_A-OTF_____Pro_501_t0"/>
      <use fill="#333333" height="19.45" transform="matrix(0.1758, 0.0, 0.0, 0.1758, 14.65, 8.0)" width="87.9" xlink:href="#font_A-OTF_____Pro_501_s0"/>
      <use fill="#333333" height="19.45" transform="matrix(0.1758, 0.0, 0.0, 0.1758, 22.65, 8.0)" width="87.9" xlink:href="#font_A-OTF_____Pro_501_y0"/>
      <use fill="#333333" height="19.45" transform="matrix(0.1758, 0.0, 0.0, 0.1758, 28.3, 8.0)" width="87.9" xlink:href="#font_A-OTF_____Pro_501_o0"/>
      <use fill="#333333" height="19.45" transform="matrix(0.1758, 0.0, 0.0, 0.1758, 33.95, 8.0)" width="87.9" xlink:href="#font_A-OTF_____Pro_501_u0"/>
      <use fill="#333333" height="19.45" transform="matrix(0.1758, 0.0, 0.0, 0.1758, 42.6, 8.0)" width="87.9" xlink:href="#font_A-OTF_____Pro_501_c0"/>
      <use fill="#333333" height="19.45" transform="matrix(0.1758, 0.0, 0.0, 0.1758, 47.6, 8.0)" width="87.9" xlink:href="#font_A-OTF_____Pro_501_h0"/>
      <use fill="#333333" height="19.45" transform="matrix(0.1758, 0.0, 0.0, 0.1758, 53.25, 8.0)" width="87.9" xlink:href="#font_A-OTF_____Pro_501_e0"/>
      <use fill="#333333" height="19.45" transform="matrix(0.1758, 0.0, 0.0, 0.1758, 58.25, 8.0)" width="87.9" xlink:href="#font_A-OTF_____Pro_501_c0"/>
      <use fill="#333333" height="19.45" transform="matrix(0.1758, 0.0, 0.0, 0.1758, 63.25, 8.0)" width="87.9" xlink:href="#font_A-OTF_____Pro_501_k0"/>
      <use fill="#333333" height="19.45" transform="matrix(0.1758, 0.0, 0.0, 0.1758, 71.9, 8.0)" width="87.9" xlink:href="#font_A-OTF_____Pro_501_t0"/>
      <use fill="#333333" height="19.45" transform="matrix(0.1758, 0.0, 0.0, 0.1758, 75.9, 8.0)" width="87.9" xlink:href="#font_A-OTF_____Pro_501_h0"/>
      <use fill="#333333" height="19.45" transform="matrix(0.1758, 0.0, 0.0, 0.1758, 81.55, 8.0)" width="87.9" xlink:href="#font_A-OTF_____Pro_501_e0"/>
    </g>
    <g transform="matrix(1.0, 0.0, 0.0, 1.0, 0.0, 0.0)">
      <use fill="#333333" height="19.45" transform="matrix(0.1758, 0.0, 0.0, 0.1758, 0.0, 19.0)" width="87.9" xlink:href="#font_A-OTF_____Pro_501_C0"/>
      <use fill="#333333" height="19.45" transform="matrix(0.1758, 0.0, 0.0, 0.1758, 6.85, 19.0)" width="87.9" xlink:href="#font_A-OTF_____Pro_501_o0"/>
      <use fill="#333333" height="19.45" transform="matrix(0.1758, 0.0, 0.0, 0.1758, 12.5, 19.0)" width="87.9" xlink:href="#font_A-OTF_____Pro_501_g0"/>
      <use fill="#333333" height="19.45" transform="matrix(0.1758, 0.0, 0.0, 0.1758, 18.15, 19.0)" width="87.9" xlink:href="#font_A-OTF_____Pro_501_s0"/>
      <use fill="#333333" height="19.45" transform="matrix(0.1758, 0.0, 0.0, 0.1758, 23.15, 19.0)" width="87.9" xlink:href="#font_A-OTF_____Pro_501_p0"/>
      <use fill="#333333" height="19.45" transform="matrix(0.1758, 0.0, 0.0, 0.1758, 28.8, 19.0)" width="87.9" xlink:href="#font_A-OTF_____Pro_501_o0"/>
      <use fill="#333333" height="19.45" transform="matrix(0.1758, 0.0, 0.0, 0.1758, 34.45, 19.0)" width="87.9" xlink:href="#font_A-OTF_____Pro_501_t0"/>
      <use fill="#333333" height="19.45" transform="matrix(0.1758, 0.0, 0.0, 0.1758, 38.45, 19.0)" width="87.9" xlink:href="#font_A-OTF_____Pro_501_t0"/>
      <use fill="#333333" height="19.45" transform="matrix(0.1758, 0.0, 0.0, 0.1758, 42.45, 19.0)" width="87.9" xlink:href="#font_A-OTF_____Pro_501_e0"/>
      <use fill="#333333" height="19.45" transform="matrix(0.1758, 0.0, 0.0, 0.1758, 47.45, 19.0)" width="87.9" xlink:href="#font_A-OTF_____Pro_501_r0"/>
      <use fill="#333333" height="19.45" transform="matrix(0.1758, 0.0, 0.0, 0.1758, 51.95, 19.0)" width="87.9" xlink:href="#font_A-OTF_____Pro_501__1"/>
      <use fill="#333333" height="19.45" transform="matrix(0.1758, 0.0, 0.0, 0.1758, 53.8, 19.0)" width="87.9" xlink:href="#font_A-OTF_____Pro_501_s0"/>
      <use fill="#333333" height="19.45" transform="matrix(0.1758, 0.0, 0.0, 0.1758, 61.8, 19.0)" width="87.9" xlink:href="#font_A-OTF_____Pro_501_G0"/>
      <use fill="#333333" height="19.45" transform="matrix(0.1758, 0.0, 0.0, 0.1758, 69.15, 19.0)" width="87.9" xlink:href="#font_A-OTF_____Pro_501_u0"/>
      <use fill="#333333" height="19.45" transform="matrix(0.1758, 0.0, 0.0, 0.1758, 74.8, 19.0)" width="87.9" xlink:href="#font_A-OTF_____Pro_501_i0"/>
      <use fill="#333333" height="19.45" transform="matrix(0.1758, 0.0, 0.0, 0.1758, 77.65, 19.0)" width="87.9" xlink:href="#font_A-OTF_____Pro_501_d0"/>
      <use fill="#333333" height="19.45" transform="matrix(0.1758, 0.0, 0.0, 0.1758, 83.3, 19.0)" width="87.9" xlink:href="#font_A-OTF_____Pro_501_e0"/>
    </g>
  </g>
  <defs>
    <g id="font_A-OTF_____Pro_501_L0">
      <path d="M4.4 -6.6 L4.4 -6.6 Q4.5 -2.35 6.45 -1.1 8.35 0.15 11.0 0.0 L30.2 0.0 Q31.5 0.05 32.55 -0.85 33.65 -1.75 33.75 -3.7 33.75 -5.0 32.85 -6.05 31.95 -7.15 29.85 -7.2 L13.95 -7.2 Q12.1 -7.05 12.35 -9.3 L12.35 -37.55 Q12.35 -38.7 11.4 -39.9 10.4 -41.1 8.45 -41.2 4.7 -40.85 4.4 -37.55 L4.4 -6.6 4.4 -6.6" fill-rule="evenodd" stroke="none"/>
    </g>
    <g id="font_A-OTF_____Pro_501_e0">
      <path d="M10.15 -18.6 L10.15 -18.6 Q10.2 -19.65 11.4 -21.8 12.6 -23.95 16.1 -24.2 19.1 -24.0 20.35 -22.25 21.6 -20.55 21.55 -19.2 21.75 -18.6 20.1 -18.6 L10.15 -18.6 10.15 -18.6 M24.75 -12.4 L24.75 -12.4 Q29.05 -12.5 28.85 -18.25 28.7 -23.65 25.05 -27.05 21.45 -30.5 16.0 -30.6 11.0 -30.7 6.85 -26.95 2.7 -23.2 2.45 -14.4 2.85 -5.0 7.6 -2.0 12.4 1.05 16.45 0.8 21.75 0.65 25.05 -1.75 28.35 -4.15 28.45 -7.15 28.45 -8.4 27.6 -9.4 26.75 -10.35 25.25 -10.4 23.25 -10.65 21.55 -8.25 19.2 -5.25 16.7 -5.6 12.4 -5.85 11.15 -8.35 9.95 -10.85 9.95 -12.4 L24.75 -12.4 24.75 -12.4" fill-rule="evenodd" stroke="none"/>
    </g>
    <g id="font_A-OTF_____Pro_501_t0">
      <path d="M7.05 -23.6 L7.05 -23.6 7.05 -7.7 Q6.85 -5.7 8.1 -2.65 9.35 0.45 14.65 0.8 19.65 0.45 22.0 -2.75 24.4 -5.9 24.4 -7.9 24.4 -9.05 23.5 -10.05 22.6 -11.1 20.85 -11.2 19.15 -11.55 17.4 -8.45 16.3 -6.25 15.2 -6.35 13.95 -6.7 14.1 -7.95 L14.1 -23.6 20.75 -23.6 Q21.7 -23.6 22.75 -24.3 23.8 -25.05 23.9 -26.65 23.7 -29.45 20.75 -29.8 L14.1 -29.8 14.1 -35.4 Q14.1 -36.5 13.25 -37.45 12.4 -38.45 10.65 -38.55 7.45 -38.45 7.05 -35.35 L7.05 -29.8 4.4 -29.8 Q3.3 -29.75 2.3 -29.0 1.3 -28.2 1.25 -26.75 1.25 -25.55 2.1 -24.6 2.9 -23.65 4.4 -23.6 L7.05 -23.6 7.05 -23.6" fill-rule="evenodd" stroke="none"/>
    </g>
    <g id="font_A-OTF_____Pro_501_s0">
      <path d="M15.55 0.8 L15.55 0.8 Q22.65 0.6 25.75 -2.35 28.9 -5.3 28.8 -8.95 28.9 -10.1 28.35 -11.85 27.8 -13.6 25.9 -15.15 24.65 -16.15 22.5 -16.8 L13.95 -19.0 Q10.6 -19.65 10.55 -21.6 10.75 -23.3 12.55 -23.9 L15.7 -24.4 Q18.7 -24.45 21.25 -22.7 23.75 -21.25 24.7 -21.5 26.55 -21.55 27.4 -22.6 28.2 -23.6 28.2 -24.6 27.95 -27.4 24.0 -28.95 20.0 -30.55 15.55 -30.6 9.4 -30.45 6.15 -27.7 2.9 -25.0 2.9 -21.3 2.85 -18.0 5.8 -15.7 8.75 -13.4 15.4 -12.25 L19.4 -11.25 Q21.05 -10.6 21.15 -8.85 21.25 -8.1 20.35 -6.9 19.45 -5.7 16.65 -5.55 13.5 -5.6 11.7 -6.5 9.9 -7.35 8.65 -8.6 L6.45 -10.25 4.9 -10.55 Q1.55 -10.4 1.35 -7.45 1.5 -4.7 5.4 -2.05 9.3 0.6 15.55 0.8 L15.55 0.8" fill-rule="evenodd" stroke="none"/>
    </g>
    <g id="font_A-OTF_____Pro_501_y0">
      <path d="M11.75 -8.65 L11.75 -8.65 Q12.7 -6.95 13.5 -6.25 14.25 -5.55 15.85 -5.15 13.8 0.15 10.75 -0.15 L8.8 -0.35 4.95 -1.1 Q4.0 -1.1 2.85 -0.35 1.7 0.45 1.6 2.2 1.6 6.55 10.55 6.8 13.8 6.9 16.55 5.6 19.3 4.25 21.2 0.35 L33.4 -25.3 Q33.9 -26.3 33.9 -27.15 33.75 -29.35 32.5 -30.1 31.2 -30.85 30.1 -30.8 28.35 -30.7 27.55 -29.8 L26.6 -28.55 18.85 -12.3 Q17.9 -12.05 16.9 -14.3 L8.65 -28.7 Q7.95 -30.5 5.1 -30.6 4.0 -30.6 2.85 -29.7 1.65 -28.85 1.55 -27.1 1.45 -26.35 2.1 -24.95 L11.75 -8.65 11.75 -8.65" fill-rule="evenodd" stroke="none"/>
    </g>
    <g id="font_A-OTF_____Pro_501_o0">
      <path d="M17.7 -23.8 L17.7 -23.8 Q22.9 -23.45 24.3 -20.3 25.7 -17.1 25.55 -14.85 25.7 -12.65 24.3 -9.5 22.9 -6.3 17.7 -6.0 12.5 -6.3 11.1 -9.5 9.75 -12.65 9.9 -14.85 9.75 -17.1 11.15 -20.3 12.55 -23.45 17.7 -23.8 L17.7 -23.8 M17.7 -30.6 L17.7 -30.6 Q8.85 -30.25 5.55 -25.2 2.25 -20.2 2.45 -14.85 2.25 -9.55 5.55 -4.55 8.85 0.45 17.7 0.8 26.6 0.45 29.9 -4.55 33.2 -9.55 33.0 -14.85 33.2 -20.2 29.9 -25.2 26.6 -30.2 17.7 -30.6 L17.7 -30.6" fill-rule="evenodd" stroke="none"/>
    </g>
    <g id="font_A-OTF_____Pro_501_u0">
      <path d="M3.75 -8.4 L3.75 -8.4 Q3.8 -4.25 6.8 -1.75 9.75 0.75 14.75 0.8 19.25 0.7 21.45 -0.5 23.6 -1.7 24.2 -2.5 24.7 -1.35 25.65 -0.3 26.65 0.75 28.5 0.8 32.2 0.4 32.15 -2.25 L31.9 -5.0 31.7 -7.85 31.7 -27.2 Q31.7 -28.3 30.8 -29.4 29.9 -30.5 28.15 -30.6 24.7 -30.3 24.45 -27.25 L24.45 -12.25 Q24.45 -10.3 22.5 -8.15 20.55 -5.95 16.65 -5.8 13.2 -5.9 12.05 -7.7 10.9 -9.45 11.0 -11.3 L11.0 -27.2 Q11.0 -28.15 10.15 -29.35 9.3 -30.5 7.45 -30.6 4.1 -30.35 3.75 -27.25 L3.75 -8.4 3.75 -8.4" fill-rule="evenodd" stroke="none"/>
    </g>
    <g id="font_A-OTF_____Pro_501_c0">
      <path d="M17.05 -30.6 L17.05 -30.6 Q11.05 -30.45 7.85 -27.8 4.65 -25.15 3.5 -21.5 2.35 -17.9 2.45 -14.85 2.65 -7.1 6.8 -3.05 10.95 1.0 16.75 1.0 22.5 0.7 25.75 -2.2 28.95 -5.15 29.0 -7.1 29.05 -10.0 25.45 -10.4 23.55 -10.5 21.9 -8.35 20.45 -6.65 19.3 -6.2 18.15 -5.75 16.9 -5.8 13.15 -5.95 11.5 -8.75 9.9 -11.55 9.9 -14.75 9.85 -17.8 11.3 -20.7 12.75 -23.6 16.35 -23.8 19.4 -23.9 21.4 -21.15 22.6 -19.6 23.4 -19.2 L25.0 -18.85 Q26.45 -18.85 27.55 -19.7 28.65 -20.55 28.7 -22.3 28.45 -25.75 24.75 -28.1 21.1 -30.5 17.05 -30.6 L17.05 -30.6" fill-rule="evenodd" stroke="none"/>
    </g>
    <g id="font_A-OTF_____Pro_501_h0">
      <path d="M31.7 -20.8 L31.7 -20.8 Q31.5 -25.7 27.95 -28.15 24.35 -30.6 19.8 -30.6 L16.25 -30.15 Q13.65 -29.55 11.0 -26.95 L11.0 -37.8 Q11.0 -38.85 10.15 -40.0 9.3 -41.1 7.5 -41.2 4.0 -40.85 3.75 -37.75 L3.75 -2.6 Q3.75 -1.65 4.55 -0.45 5.4 0.7 7.25 0.8 10.7 0.55 11.0 -2.55 L11.0 -16.2 Q11.0 -18.45 12.9 -21.0 14.8 -23.55 18.95 -23.8 22.5 -23.6 23.55 -21.75 24.55 -19.9 24.45 -18.75 L24.45 -2.6 Q24.4 -1.6 25.3 -0.45 26.15 0.7 28.0 0.8 31.4 0.6 31.7 -2.55 L31.7 -20.8 31.7 -20.8" fill-rule="evenodd" stroke="none"/>
    </g>
    <g id="font_A-OTF_____Pro_501_k0">
      <path d="M11.0 -17.25 L11.0 -17.25 11.0 -38.0 Q11.05 -39.05 10.2 -40.1 9.35 -41.1 7.5 -41.2 6.05 -41.15 4.9 -40.3 3.8 -39.45 3.75 -37.9 L3.75 -2.45 Q4.0 0.55 7.35 0.8 10.65 0.7 11.0 -2.35 L11.0 -8.45 16.7 -12.9 Q19.0 -13.1 20.55 -10.65 L26.8 -1.35 Q27.7 0.75 30.45 1.0 33.6 0.65 33.95 -2.25 33.8 -3.6 33.3 -4.15 L25.9 -14.75 24.8 -16.0 Q23.85 -16.95 22.3 -17.35 L32.0 -24.95 Q33.15 -25.7 33.15 -27.5 32.75 -30.3 29.25 -30.6 27.1 -30.35 26.75 -29.75 L11.0 -17.25 11.0 -17.25" fill-rule="evenodd" stroke="none"/>
    </g>
    <g id="font_A-OTF_____Pro_501_C0">
      <path d="M23.35 -41.2 L23.35 -41.2 Q12.8 -40.9 7.7 -34.7 2.65 -28.5 2.65 -20.1 2.6 -15.35 4.55 -10.55 6.5 -5.8 11.05 -2.55 15.6 0.7 23.4 0.8 30.3 0.65 34.0 -1.75 37.7 -4.2 39.1 -6.95 40.45 -9.7 40.4 -10.95 40.15 -13.8 36.45 -14.1 34.8 -14.1 33.95 -13.3 L32.45 -11.35 Q31.45 -9.5 29.5 -8.05 27.5 -6.65 23.35 -6.6 15.85 -7.0 13.3 -11.55 10.8 -16.1 11.0 -20.15 10.9 -21.65 11.6 -24.85 12.25 -28.1 15.0 -30.85 17.7 -33.6 23.65 -33.8 28.1 -33.75 30.05 -32.3 32.0 -30.85 33.2 -28.8 33.45 -27.6 36.4 -27.25 40.1 -27.35 40.4 -30.75 40.35 -33.9 36.0 -37.4 31.65 -40.9 23.35 -41.2 L23.35 -41.2" fill-rule="evenodd" stroke="none"/>
    </g>
    <g id="font_A-OTF_____Pro_501_g0">
      <path d="M11.25 -22.1 L11.25 -22.1 Q11.5 -24.1 14.0 -24.55 L17.75 -25.0 21.3 -24.65 Q23.9 -24.2 24.2 -22.1 23.9 -20.1 21.35 -19.6 L17.65 -19.2 14.2 -19.55 Q11.6 -20.0 11.25 -22.1 L11.25 -22.1 M14.5 -13.75 L14.5 -13.75 17.5 -13.6 Q24.85 -13.75 28.1 -16.3 31.3 -18.9 31.25 -22.05 31.1 -24.05 30.55 -24.95 L32.85 -26.55 Q33.85 -27.15 33.85 -28.7 33.65 -31.05 30.35 -31.45 29.45 -31.5 28.6 -31.0 L25.65 -29.25 Q24.2 -30.25 17.8 -30.6 11.4 -30.5 7.85 -28.2 4.25 -25.85 4.2 -22.1 4.3 -19.25 5.7 -17.8 7.1 -16.35 8.3 -15.75 L5.75 -10.65 Q4.95 -9.35 4.95 -7.95 5.15 -5.2 7.0 -4.6 8.9 -4.0 9.7 -4.1 L11.15 -4.25 12.85 -4.85 Q15.0 -5.9 19.1 -6.2 21.75 -6.2 23.7 -5.25 25.65 -4.3 25.75 -2.55 25.65 -0.55 23.6 0.15 L18.7 0.8 Q13.4 0.7 10.85 -0.35 8.3 -1.45 7.6 -2.15 6.85 -2.85 5.55 -2.85 4.0 -2.8 3.15 -1.85 2.35 -0.9 2.35 0.2 2.25 2.25 6.25 4.45 10.25 6.65 19.05 6.8 L25.1 6.15 Q28.15 5.5 30.4 3.6 33.15 0.9 33.25 -2.45 33.35 -5.35 30.55 -8.35 27.75 -11.35 20.55 -11.55 L16.4 -11.2 12.95 -10.35 14.5 -13.75 14.5 -13.75" fill-rule="evenodd" stroke="none"/>
    </g>
    <g id="font_A-OTF_____Pro_501_p0">
      <path d="M11.0 -16.5 L11.0 -16.5 Q11.0 -19.05 12.75 -21.25 14.5 -23.45 18.35 -23.6 21.55 -23.65 23.3 -22.15 24.7 -20.85 25.25 -18.85 25.8 -16.85 25.75 -15.1 25.6 -9.35 23.45 -7.6 21.25 -5.8 18.6 -6.0 13.55 -6.25 12.2 -8.85 10.85 -11.4 11.0 -12.9 L11.0 -16.5 11.0 -16.5 M3.75 3.45 L3.75 3.45 Q4.05 6.4 7.55 6.75 9.35 6.65 10.2 5.5 11.0 4.4 11.0 3.35 L11.0 -1.8 Q13.5 0.1 16.05 0.5 L19.55 0.8 Q26.8 0.6 29.95 -3.95 33.1 -8.55 33.0 -14.65 33.05 -20.9 29.8 -25.6 26.5 -30.3 19.1 -30.55 15.25 -30.5 13.4 -29.4 11.55 -28.3 10.5 -27.05 10.4 -28.45 9.6 -29.5 8.8 -30.5 6.8 -30.55 4.6 -30.5 4.15 -29.35 3.65 -28.2 3.75 -26.95 L3.75 3.45 3.75 3.45" fill-rule="evenodd" stroke="none"/>
    </g>
    <g id="font_A-OTF_____Pro_501_r0">
      <path d="M11.45 -14.95 L11.45 -14.95 Q11.5 -15.7 12.85 -17.8 14.25 -19.9 16.25 -21.8 18.25 -23.65 20.3 -23.8 L22.05 -23.6 23.9 -23.4 Q27.1 -23.65 27.15 -26.5 27.0 -28.7 24.9 -29.65 22.8 -30.6 20.65 -30.6 19.6 -30.75 16.85 -29.95 14.1 -29.15 11.45 -25.55 L11.45 -27.15 Q11.25 -29.6 9.85 -30.15 L7.8 -30.6 Q4.5 -30.45 4.2 -27.45 L4.2 -2.25 Q4.15 -1.2 5.0 -0.25 5.85 0.75 7.9 0.8 9.2 0.8 10.3 0.1 11.4 -0.65 11.45 -2.1 L11.45 -14.95 11.45 -14.95" fill-rule="evenodd" stroke="none"/>
    </g>
    <g id="font_A-OTF_____Pro_501__1">
      <path d="M8.6 -38.35 L8.6 -38.35 Q8.65 -40.4 7.45 -40.85 L5.75 -41.2 Q2.65 -41.15 2.85 -38.35 L4.2 -26.7 Q4.35 -25.35 5.75 -25.3 6.7 -25.4 7.0 -25.9 L7.3 -26.7 8.6 -38.35 8.6 -38.35" fill-rule="evenodd" stroke="none"/>
    </g>
    <g id="font_A-OTF_____Pro_501_G0">
      <path d="M22.95 -23.8 L22.95 -23.8 Q21.7 -23.8 20.7 -22.95 19.7 -22.1 19.65 -20.45 19.65 -19.0 20.65 -17.95 21.6 -16.85 23.25 -16.8 L33.1 -16.8 Q34.5 -16.8 34.55 -15.45 L34.55 -12.7 Q34.75 -11.6 32.8 -9.15 30.85 -6.65 24.45 -6.35 18.1 -6.45 14.45 -10.05 10.85 -13.65 10.8 -19.75 10.75 -25.25 14.0 -29.6 17.25 -33.95 24.25 -34.2 27.0 -34.25 28.95 -33.4 30.95 -32.55 33.05 -30.6 34.8 -29.05 35.7 -28.7 36.6 -28.3 37.2 -28.4 39.0 -28.45 39.95 -29.6 40.85 -30.7 40.85 -32.0 40.7 -35.05 36.0 -38.0 31.25 -40.95 23.65 -41.15 13.4 -40.8 8.05 -34.3 2.7 -27.8 2.65 -19.5 2.7 -11.05 8.2 -5.15 13.65 0.75 24.1 1.0 27.95 1.05 32.15 -0.1 36.4 -1.3 39.35 -4.25 42.35 -7.25 42.45 -12.65 L42.45 -17.85 Q42.3 -21.4 40.15 -22.65 38.05 -23.85 36.2 -23.8 L22.95 -23.8 22.95 -23.8" fill-rule="evenodd" stroke="none"/>
    </g>
    <g id="font_A-OTF_____Pro_501_i0">
      <path d="M8.8 -41.2 L8.8 -41.2 Q6.9 -41.15 5.6 -40.0 4.25 -38.85 4.2 -37.1 4.55 -33.4 8.8 -33.0 13.05 -33.35 13.4 -37.1 13.35 -38.9 12.0 -40.0 10.7 -41.15 8.8 -41.2 L8.8 -41.2 M12.55 -27.25 L12.55 -27.25 Q12.55 -28.35 11.65 -29.45 10.75 -30.5 9.0 -30.6 5.65 -30.45 5.3 -27.25 L5.3 -2.5 Q5.3 -1.4 6.2 -0.35 7.05 0.75 8.8 0.8 12.2 0.65 12.55 -2.5 L12.55 -27.25 12.55 -27.25" fill-rule="evenodd" stroke="none"/>
    </g>
    <g id="font_A-OTF_____Pro_501_d0">
      <path d="M24.45 -13.2 L24.45 -13.2 Q24.55 -11.4 23.05 -8.85 21.55 -6.25 16.85 -6.0 12.55 -6.2 11.15 -9.0 9.8 -11.8 9.9 -14.8 10.15 -21.25 12.75 -22.65 15.3 -24.05 17.0 -23.8 22.35 -23.45 23.5 -20.6 24.65 -17.8 24.45 -16.85 L24.45 -13.2 24.45 -13.2 M31.7 -37.9 L31.7 -37.9 Q31.45 -40.85 27.9 -41.2 26.05 -41.1 25.25 -39.95 24.4 -38.85 24.45 -37.85 L24.45 -27.95 Q22.0 -29.85 19.4 -30.25 L15.95 -30.6 Q8.75 -30.35 5.55 -25.8 2.35 -21.25 2.45 -15.05 2.4 -8.8 5.75 -4.1 9.05 0.6 16.45 0.8 20.2 0.75 22.05 -0.35 23.9 -1.45 24.9 -2.65 24.95 0.4 28.6 0.8 30.8 0.75 31.3 -0.4 31.8 -1.5 31.7 -2.75 L31.7 -37.9 31.7 -37.9" fill-rule="evenodd" stroke="none"/>
    </g>
  </defs>
</svg>
