<?xml version="1.0" encoding="UTF-8" standalone="no"?>
<svg xmlns:xlink="http://www.w3.org/1999/xlink" height="8.45px" width="54.3px" xmlns="http://www.w3.org/2000/svg">
  <g transform="matrix(1.0, 0.0, 0.0, 1.0, -0.75, -0.75)">
    <g transform="matrix(1.0, 0.0, 0.0, 1.0, 0.0, 0.0)">
      <use fill="#333333" height="8.45" transform="matrix(0.1758, 0.0, 0.0, 0.1758, 0.0, 8.0)" width="54.3" xlink:href="#font_A-OTF_____Pro_501_H0"/>
      <use fill="#333333" height="8.45" transform="matrix(0.1758, 0.0, 0.0, 0.1758, 6.85, 8.0)" width="54.3" xlink:href="#font_A-OTF_____Pro_501_e0"/>
      <use fill="#333333" height="8.45" transform="matrix(0.1758, 0.0, 0.0, 0.1758, 11.85, 8.0)" width="54.3" xlink:href="#font_A-OTF_____Pro_501_l0"/>
      <use fill="#333333" height="8.45" transform="matrix(0.1758, 0.0, 0.0, 0.1758, 14.7, 8.0)" width="54.3" xlink:href="#font_A-OTF_____Pro_501_p0"/>
      <use fill="#333333" height="8.45" transform="matrix(0.1758, 0.0, 0.0, 0.1758, 23.35, 8.0)" width="54.3" xlink:href="#font_A-OTF_____Pro_501_B0"/>
      <use fill="#333333" height="8.45" transform="matrix(0.1758, 0.0, 0.0, 0.1758, 30.2, 8.0)" width="54.3" xlink:href="#font_A-OTF_____Pro_501_u0"/>
      <use fill="#333333" height="8.45" transform="matrix(0.1758, 0.0, 0.0, 0.1758, 35.85, 8.0)" width="54.3" xlink:href="#font_A-OTF_____Pro_501_t0"/>
      <use fill="#333333" height="8.45" transform="matrix(0.1758, 0.0, 0.0, 0.1758, 39.85, 8.0)" width="54.3" xlink:href="#font_A-OTF_____Pro_501_t0"/>
      <use fill="#333333" height="8.45" transform="matrix(0.1758, 0.0, 0.0, 0.1758, 43.85, 8.0)" width="54.3" xlink:href="#font_A-OTF_____Pro_501_o0"/>
      <use fill="#333333" height="8.45" transform="matrix(0.1758, 0.0, 0.0, 0.1758, 49.5, 8.0)" width="54.3" xlink:href="#font_A-OTF_____Pro_501_n0"/>
    </g>
  </g>
  <defs>
    <g id="font_A-OTF_____Pro_501_H0">
      <path d="M30.35 -17.8 L30.35 -17.8 30.35 -2.8 Q30.75 0.55 34.45 0.8 38.15 0.4 38.3 -2.8 L38.3 -37.55 Q38.0 -40.85 34.2 -41.2 30.55 -40.8 30.35 -37.55 L30.35 -25.0 12.35 -25.0 12.35 -37.55 Q11.95 -40.95 8.25 -41.2 4.6 -40.8 4.4 -37.55 L4.4 -2.8 Q4.75 0.55 8.45 0.8 10.4 0.7 11.4 -0.5 12.35 -1.7 12.35 -2.8 L12.35 -17.8 30.35 -17.8 30.35 -17.8" fill-rule="evenodd" stroke="none"/>
    </g>
    <g id="font_A-OTF_____Pro_501_e0">
      <path d="M10.15 -18.6 L10.15 -18.6 Q10.2 -19.65 11.4 -21.8 12.6 -23.95 16.1 -24.2 19.1 -24.0 20.35 -22.25 21.6 -20.55 21.55 -19.2 21.75 -18.6 20.1 -18.6 L10.15 -18.6 10.15 -18.6 M24.75 -12.4 L24.75 -12.4 Q29.05 -12.5 28.85 -18.25 28.7 -23.65 25.05 -27.05 21.45 -30.5 16.0 -30.6 11.0 -30.7 6.85 -26.95 2.7 -23.2 2.45 -14.4 2.85 -5.0 7.6 -2.0 12.4 1.05 16.45 0.8 21.75 0.65 25.05 -1.75 28.35 -4.15 28.45 -7.15 28.45 -8.4 27.6 -9.4 26.75 -10.35 25.25 -10.4 23.25 -10.65 21.55 -8.25 19.2 -5.25 16.7 -5.6 12.4 -5.85 11.15 -8.35 9.95 -10.85 9.95 -12.4 L24.75 -12.4 24.75 -12.4" fill-rule="evenodd" stroke="none"/>
    </g>
    <g id="font_A-OTF_____Pro_501_l0">
      <path d="M5.3 -2.6 L5.3 -2.6 Q5.6 0.55 9.1 0.8 10.85 0.7 11.7 -0.4 12.55 -1.5 12.55 -2.5 L12.55 -37.85 Q12.35 -40.85 8.85 -41.2 5.55 -40.8 5.3 -37.75 L5.3 -2.6 5.3 -2.6" fill-rule="evenodd" stroke="none"/>
    </g>
    <g id="font_A-OTF_____Pro_501_p0">
      <path d="M11.0 -16.5 L11.0 -16.5 Q11.0 -19.05 12.75 -21.25 14.5 -23.45 18.35 -23.6 21.55 -23.65 23.3 -22.15 24.7 -20.85 25.25 -18.85 25.8 -16.85 25.75 -15.1 25.6 -9.35 23.45 -7.6 21.25 -5.8 18.6 -6.0 13.55 -6.25 12.2 -8.85 10.85 -11.4 11.0 -12.9 L11.0 -16.5 11.0 -16.5 M3.75 3.45 L3.75 3.45 Q4.05 6.4 7.55 6.75 9.35 6.65 10.2 5.5 11.0 4.4 11.0 3.35 L11.0 -1.8 Q13.5 0.1 16.05 0.5 L19.55 0.8 Q26.8 0.6 29.95 -3.95 33.1 -8.55 33.0 -14.65 33.05 -20.9 29.8 -25.6 26.5 -30.3 19.1 -30.55 15.25 -30.5 13.4 -29.4 11.55 -28.3 10.5 -27.05 10.4 -28.45 9.6 -29.5 8.8 -30.5 6.8 -30.55 4.6 -30.5 4.15 -29.35 3.65 -28.2 3.75 -26.95 L3.75 3.45 3.75 3.45" fill-rule="evenodd" stroke="none"/>
    </g>
    <g id="font_A-OTF_____Pro_501_B0">
      <path d="M12.35 -17.4 L12.35 -17.4 26.9 -17.4 Q28.05 -17.45 30.0 -16.35 31.95 -15.25 32.15 -12.3 32.05 -9.55 29.9 -8.35 27.8 -7.15 25.2 -7.2 L13.95 -7.2 Q12.35 -7.4 12.35 -8.6 L12.35 -17.4 12.35 -17.4 M12.35 -24.35 L12.35 -24.35 12.35 -31.7 Q12.2 -33.0 13.6 -33.2 L26.15 -33.2 Q28.05 -33.2 29.6 -32.15 31.15 -31.1 31.25 -29.0 30.85 -24.7 26.2 -24.35 L12.35 -24.35 12.35 -24.35 M27.0 0.0 L27.0 0.0 Q32.8 -0.05 36.45 -3.35 40.15 -6.6 40.25 -12.0 40.3 -18.2 34.45 -21.3 37.85 -23.65 38.6 -26.2 39.3 -28.75 39.15 -29.65 39.15 -34.3 35.75 -37.3 32.35 -40.3 26.15 -40.4 L10.4 -40.4 Q7.25 -40.3 5.8 -38.6 4.4 -36.85 4.4 -34.4 L4.4 -6.45 Q4.05 -0.2 10.5 0.0 L27.0 0.0 27.0 0.0" fill-rule="evenodd" stroke="none"/>
    </g>
    <g id="font_A-OTF_____Pro_501_u0">
      <path d="M3.75 -8.4 L3.75 -8.4 Q3.8 -4.25 6.8 -1.75 9.75 0.75 14.75 0.8 19.25 0.7 21.45 -0.5 23.6 -1.7 24.2 -2.5 24.7 -1.35 25.65 -0.3 26.65 0.75 28.5 0.8 32.2 0.4 32.15 -2.25 L31.9 -5.0 31.7 -7.85 31.7 -27.2 Q31.7 -28.3 30.8 -29.4 29.9 -30.5 28.15 -30.6 24.7 -30.3 24.45 -27.25 L24.45 -12.25 Q24.45 -10.3 22.5 -8.15 20.55 -5.95 16.65 -5.8 13.2 -5.9 12.05 -7.7 10.9 -9.45 11.0 -11.3 L11.0 -27.2 Q11.0 -28.15 10.15 -29.35 9.3 -30.5 7.45 -30.6 4.1 -30.35 3.75 -27.25 L3.75 -8.4 3.75 -8.4" fill-rule="evenodd" stroke="none"/>
    </g>
    <g id="font_A-OTF_____Pro_501_t0">
      <path d="M7.05 -23.6 L7.05 -23.6 7.05 -7.7 Q6.85 -5.7 8.1 -2.65 9.35 0.45 14.65 0.8 19.65 0.45 22.0 -2.75 24.4 -5.9 24.4 -7.9 24.4 -9.05 23.5 -10.05 22.6 -11.1 20.85 -11.2 19.15 -11.55 17.4 -8.45 16.3 -6.25 15.2 -6.35 13.95 -6.7 14.1 -7.95 L14.1 -23.6 20.75 -23.6 Q21.7 -23.6 22.75 -24.3 23.8 -25.05 23.9 -26.65 23.7 -29.45 20.75 -29.8 L14.1 -29.8 14.1 -35.4 Q14.1 -36.5 13.25 -37.45 12.4 -38.45 10.65 -38.55 7.45 -38.45 7.05 -35.35 L7.05 -29.8 4.4 -29.8 Q3.3 -29.75 2.3 -29.0 1.3 -28.2 1.25 -26.75 1.25 -25.55 2.1 -24.6 2.9 -23.65 4.4 -23.6 L7.05 -23.6 7.05 -23.6" fill-rule="evenodd" stroke="none"/>
    </g>
    <g id="font_A-OTF_____Pro_501_o0">
      <path d="M17.7 -23.8 L17.7 -23.8 Q22.9 -23.45 24.3 -20.3 25.7 -17.1 25.55 -14.85 25.7 -12.65 24.3 -9.5 22.9 -6.3 17.7 -6.0 12.5 -6.3 11.1 -9.5 9.75 -12.65 9.9 -14.85 9.75 -17.1 11.15 -20.3 12.55 -23.45 17.7 -23.8 L17.7 -23.8 M17.7 -30.6 L17.7 -30.6 Q8.85 -30.25 5.55 -25.2 2.25 -20.2 2.45 -14.85 2.25 -9.55 5.55 -4.55 8.85 0.45 17.7 0.8 26.6 0.45 29.9 -4.55 33.2 -9.55 33.0 -14.85 33.2 -20.2 29.9 -25.2 26.6 -30.2 17.7 -30.6 L17.7 -30.6" fill-rule="evenodd" stroke="none"/>
    </g>
    <g id="font_A-OTF_____Pro_501_n0">
      <path d="M31.7 -21.3 L31.7 -21.3 Q31.6 -25.45 28.65 -28.0 25.65 -30.5 20.7 -30.6 16.15 -30.45 13.95 -29.25 11.8 -28.05 11.2 -27.3 L9.8 -29.45 Q8.8 -30.5 6.95 -30.6 3.3 -30.2 3.3 -27.55 L3.55 -24.75 3.75 -21.9 3.75 -2.6 Q3.75 -1.3 4.7 -0.3 5.65 0.75 7.4 0.8 10.7 0.6 11.0 -2.55 L11.0 -17.55 Q11.0 -19.45 12.95 -21.6 14.85 -23.8 18.8 -24.0 22.2 -23.85 23.35 -22.1 24.5 -20.35 24.45 -18.45 L24.45 -2.6 Q24.45 -1.45 25.3 -0.35 26.2 0.75 28.05 0.8 31.35 0.6 31.7 -2.55 L31.7 -21.3 31.7 -21.3" fill-rule="evenodd" stroke="none"/>
    </g>
  </defs>
</svg>
