<?xml version="1.0" encoding="UTF-8" standalone="no"?>
<svg xmlns:xlink="http://www.w3.org/1999/xlink" height="8.45px" width="52.9px" xmlns="http://www.w3.org/2000/svg">
  <g transform="matrix(1.0, 0.0, 0.0, 1.0, -0.45, -0.75)">
    <g transform="matrix(1.0, 0.0, 0.0, 1.0, 0.0, 0.0)">
      <use fill="#333333" height="8.45" transform="matrix(0.1758, 0.0, 0.0, 0.1758, 0.0, 8.0)" width="52.9" xlink:href="#font_A-OTF_____Pro_501_G0"/>
      <use fill="#333333" height="8.45" transform="matrix(0.1758, 0.0, 0.0, 0.1758, 7.35, 8.0)" width="52.9" xlink:href="#font_A-OTF_____Pro_501_o0"/>
      <use fill="#333333" height="8.45" transform="matrix(0.1758, 0.0, 0.0, 0.1758, 13.0, 8.0)" width="52.9" xlink:href="#font_A-OTF_____Pro_501_l0"/>
      <use fill="#333333" height="8.45" transform="matrix(0.1758, 0.0, 0.0, 0.1758, 15.85, 8.0)" width="52.9" xlink:href="#font_A-OTF_____Pro_501_d0"/>
      <use fill="#333333" height="8.45" transform="matrix(0.1758, 0.0, 0.0, 0.1758, 24.5, 8.0)" width="52.9" xlink:href="#font_A-OTF_____Pro_501_B0"/>
      <use fill="#333333" height="8.45" transform="matrix(0.1758, 0.0, 0.0, 0.1758, 31.35, 8.0)" width="52.9" xlink:href="#font_A-OTF_____Pro_501_a0"/>
      <use fill="#333333" height="8.45" transform="matrix(0.1758, 0.0, 0.0, 0.1758, 37.0, 8.0)" width="52.9" xlink:href="#font_A-OTF_____Pro_501_d0"/>
      <use fill="#333333" height="8.45" transform="matrix(0.1758, 0.0, 0.0, 0.1758, 42.65, 8.0)" width="52.9" xlink:href="#font_A-OTF_____Pro_501_g0"/>
      <use fill="#333333" height="8.45" transform="matrix(0.1758, 0.0, 0.0, 0.1758, 48.3, 8.0)" width="52.9" xlink:href="#font_A-OTF_____Pro_501_e0"/>
    </g>
  </g>
  <defs>
    <g id="font_A-OTF_____Pro_501_G0">
      <path d="M22.95 -23.8 L22.95 -23.8 Q21.7 -23.8 20.7 -22.95 19.7 -22.1 19.65 -20.45 19.65 -19.0 20.65 -17.95 21.6 -16.85 23.25 -16.8 L33.1 -16.8 Q34.5 -16.8 34.55 -15.45 L34.55 -12.7 Q34.75 -11.6 32.8 -9.15 30.85 -6.65 24.45 -6.35 18.1 -6.45 14.45 -10.05 10.85 -13.65 10.8 -19.75 10.75 -25.25 14.0 -29.6 17.25 -33.95 24.25 -34.2 27.0 -34.25 28.95 -33.4 30.95 -32.55 33.05 -30.6 34.8 -29.05 35.7 -28.7 36.6 -28.3 37.2 -28.4 39.0 -28.45 39.95 -29.6 40.85 -30.7 40.85 -32.0 40.7 -35.05 36.0 -38.0 31.25 -40.95 23.65 -41.15 13.4 -40.8 8.05 -34.3 2.7 -27.8 2.65 -19.5 2.7 -11.05 8.2 -5.15 13.65 0.75 24.1 1.0 27.95 1.05 32.15 -0.1 36.4 -1.3 39.35 -4.25 42.35 -7.25 42.45 -12.65 L42.45 -17.85 Q42.3 -21.4 40.15 -22.65 38.05 -23.85 36.2 -23.8 L22.95 -23.8 22.95 -23.8" fill-rule="evenodd" stroke="none"/>
    </g>
    <g id="font_A-OTF_____Pro_501_o0">
      <path d="M17.7 -23.8 L17.7 -23.8 Q22.9 -23.45 24.3 -20.3 25.7 -17.1 25.55 -14.85 25.7 -12.65 24.3 -9.5 22.9 -6.3 17.7 -6.0 12.5 -6.3 11.1 -9.5 9.75 -12.65 9.9 -14.85 9.75 -17.1 11.15 -20.3 12.55 -23.45 17.7 -23.8 L17.7 -23.8 M17.7 -30.6 L17.7 -30.6 Q8.85 -30.25 5.55 -25.2 2.25 -20.2 2.45 -14.85 2.25 -9.55 5.55 -4.55 8.85 0.45 17.7 0.8 26.6 0.45 29.9 -4.55 33.2 -9.55 33.0 -14.85 33.2 -20.2 29.9 -25.2 26.6 -30.2 17.7 -30.6 L17.7 -30.6" fill-rule="evenodd" stroke="none"/>
    </g>
    <g id="font_A-OTF_____Pro_501_l0">
      <path d="M5.3 -2.6 L5.3 -2.6 Q5.6 0.55 9.1 0.8 10.85 0.7 11.7 -0.4 12.55 -1.5 12.55 -2.5 L12.55 -37.85 Q12.35 -40.85 8.85 -41.2 5.55 -40.8 5.3 -37.75 L5.3 -2.6 5.3 -2.6" fill-rule="evenodd" stroke="none"/>
    </g>
    <g id="font_A-OTF_____Pro_501_d0">
      <path d="M24.45 -13.2 L24.45 -13.2 Q24.55 -11.4 23.05 -8.85 21.55 -6.25 16.85 -6.0 12.55 -6.2 11.15 -9.0 9.8 -11.8 9.9 -14.8 10.15 -21.25 12.75 -22.65 15.3 -24.05 17.0 -23.8 22.35 -23.45 23.5 -20.6 24.65 -17.8 24.45 -16.85 L24.45 -13.2 24.45 -13.2 M31.7 -37.9 L31.7 -37.9 Q31.45 -40.85 27.9 -41.2 26.05 -41.1 25.25 -39.95 24.4 -38.85 24.45 -37.85 L24.45 -27.95 Q22.0 -29.85 19.4 -30.25 L15.95 -30.6 Q8.75 -30.35 5.55 -25.8 2.35 -21.25 2.45 -15.05 2.4 -8.8 5.75 -4.1 9.05 0.6 16.45 0.8 20.2 0.75 22.05 -0.35 23.9 -1.45 24.9 -2.65 24.95 0.4 28.6 0.8 30.8 0.75 31.3 -0.4 31.8 -1.5 31.7 -2.75 L31.7 -37.9 31.7 -37.9" fill-rule="evenodd" stroke="none"/>
    </g>
    <g id="font_A-OTF_____Pro_501_B0">
      <path d="M12.35 -17.4 L12.35 -17.4 26.9 -17.4 Q28.05 -17.45 30.0 -16.35 31.95 -15.25 32.15 -12.3 32.05 -9.55 29.9 -8.35 27.8 -7.15 25.2 -7.2 L13.95 -7.2 Q12.35 -7.4 12.35 -8.6 L12.35 -17.4 12.35 -17.4 M12.35 -24.35 L12.35 -24.35 12.35 -31.7 Q12.2 -33.0 13.6 -33.2 L26.15 -33.2 Q28.05 -33.2 29.6 -32.15 31.15 -31.1 31.25 -29.0 30.85 -24.7 26.2 -24.35 L12.35 -24.35 12.35 -24.35 M27.0 0.0 L27.0 0.0 Q32.8 -0.05 36.45 -3.35 40.15 -6.6 40.25 -12.0 40.3 -18.2 34.45 -21.3 37.85 -23.65 38.6 -26.2 39.3 -28.75 39.15 -29.65 39.15 -34.3 35.75 -37.3 32.35 -40.3 26.15 -40.4 L10.4 -40.4 Q7.25 -40.3 5.8 -38.6 4.4 -36.85 4.4 -34.4 L4.4 -6.45 Q4.05 -0.2 10.5 0.0 L27.0 0.0 27.0 0.0" fill-rule="evenodd" stroke="none"/>
    </g>
    <g id="font_A-OTF_____Pro_501_a0">
      <path d="M24.45 -10.2 L24.45 -10.2 Q24.4 -8.95 22.3 -7.35 20.2 -5.7 16.25 -5.55 13.45 -5.55 11.7 -6.4 9.95 -7.3 9.9 -9.4 10.25 -12.55 13.2 -13.25 L17.95 -13.8 Q24.1 -13.65 24.45 -12.2 L24.45 -10.2 24.45 -10.2 M31.7 -17.55 L31.7 -17.55 Q31.8 -19.7 31.15 -22.7 30.55 -25.75 27.55 -28.1 24.6 -30.45 17.7 -30.6 12.2 -30.55 8.3 -28.95 4.45 -27.35 4.25 -24.7 4.6 -21.7 7.85 -21.4 L9.15 -21.65 12.05 -23.05 Q14.0 -24.15 17.4 -24.2 22.35 -24.05 23.45 -22.25 24.6 -20.5 24.45 -19.25 23.2 -19.9 18.0 -20.2 8.85 -19.9 5.55 -16.5 2.25 -13.05 2.45 -9.45 2.45 -5.05 5.75 -2.1 9.0 0.9 15.1 1.0 21.15 1.1 25.8 -2.5 26.0 -1.3 26.75 -0.25 27.45 0.85 29.6 0.95 33.2 0.55 33.25 -1.9 33.3 -2.7 32.7 -4.15 31.8 -5.8 31.7 -8.35 L31.7 -17.55 31.7 -17.55" fill-rule="evenodd" stroke="none"/>
    </g>
    <g id="font_A-OTF_____Pro_501_g0">
      <path d="M11.25 -22.1 L11.25 -22.1 Q11.5 -24.1 14.0 -24.55 L17.75 -25.0 21.3 -24.65 Q23.9 -24.2 24.2 -22.1 23.9 -20.1 21.35 -19.6 L17.65 -19.2 14.2 -19.55 Q11.6 -20.0 11.25 -22.1 L11.25 -22.1 M14.5 -13.75 L14.5 -13.75 17.5 -13.6 Q24.85 -13.75 28.1 -16.3 31.3 -18.9 31.25 -22.05 31.1 -24.05 30.55 -24.95 L32.85 -26.55 Q33.85 -27.15 33.85 -28.7 33.65 -31.05 30.35 -31.45 29.45 -31.5 28.6 -31.0 L25.65 -29.25 Q24.2 -30.25 17.8 -30.6 11.4 -30.5 7.85 -28.2 4.25 -25.85 4.2 -22.1 4.3 -19.25 5.7 -17.8 7.1 -16.35 8.3 -15.75 L5.75 -10.65 Q4.95 -9.35 4.95 -7.95 5.15 -5.2 7.0 -4.6 8.9 -4.0 9.7 -4.1 L11.15 -4.25 12.85 -4.85 Q15.0 -5.9 19.1 -6.2 21.75 -6.2 23.7 -5.25 25.65 -4.3 25.75 -2.55 25.65 -0.55 23.6 0.15 L18.7 0.8 Q13.4 0.7 10.85 -0.35 8.3 -1.45 7.6 -2.15 6.85 -2.85 5.55 -2.85 4.0 -2.8 3.15 -1.85 2.35 -0.9 2.35 0.2 2.25 2.25 6.25 4.45 10.25 6.65 19.05 6.8 L25.1 6.15 Q28.15 5.5 30.4 3.6 33.15 0.9 33.25 -2.45 33.35 -5.35 30.55 -8.35 27.75 -11.35 20.55 -11.55 L16.4 -11.2 12.95 -10.35 14.5 -13.75 14.5 -13.75" fill-rule="evenodd" stroke="none"/>
    </g>
    <g id="font_A-OTF_____Pro_501_e0">
      <path d="M10.15 -18.6 L10.15 -18.6 Q10.2 -19.65 11.4 -21.8 12.6 -23.95 16.1 -24.2 19.1 -24.0 20.35 -22.25 21.6 -20.55 21.55 -19.2 21.75 -18.6 20.1 -18.6 L10.15 -18.6 10.15 -18.6 M24.75 -12.4 L24.75 -12.4 Q29.05 -12.5 28.85 -18.25 28.7 -23.65 25.05 -27.05 21.45 -30.5 16.0 -30.6 11.0 -30.7 6.85 -26.95 2.7 -23.2 2.45 -14.4 2.85 -5.0 7.6 -2.0 12.4 1.05 16.45 0.8 21.75 0.65 25.05 -1.75 28.35 -4.15 28.45 -7.15 28.45 -8.4 27.6 -9.4 26.75 -10.35 25.25 -10.4 23.25 -10.65 21.55 -8.25 19.2 -5.25 16.7 -5.6 12.4 -5.85 11.15 -8.35 9.95 -10.85 9.95 -12.4 L24.75 -12.4 24.75 -12.4" fill-rule="evenodd" stroke="none"/>
    </g>
  </defs>
</svg>
