<?xml version="1.0" encoding="UTF-8" standalone="no"?>
<svg xmlns:xlink="http://www.w3.org/1999/xlink" height="17.0px" width="60.05px" xmlns="http://www.w3.org/2000/svg">
  <g transform="matrix(1.0, 0.0, 0.0, 1.0, -1.5, -6.05)">
    <g transform="matrix(1.0, 0.0, 0.0, 1.0, 0.0, 0.0)">
      <use fill="#ffffff" height="17.0" transform="matrix(0.5273, 0.0, 0.0, 0.5273, 0.0, 23.0)" width="60.05" xlink:href="#font_______W7_N0"/>
      <use fill="#ffffff" height="17.0" transform="matrix(0.5273, 0.0, 0.0, 0.5273, 19.05, 23.0)" width="60.05" xlink:href="#font_______W7_e0"/>
      <use fill="#ffffff" height="17.0" transform="matrix(0.5273, 0.0, 0.0, 0.5273, 34.15, 23.0)" width="60.05" xlink:href="#font_______W7_x0"/>
      <use fill="#ffffff" height="17.0" transform="matrix(0.5273, 0.0, 0.0, 0.5273, 48.05, 23.0)" width="60.05" xlink:href="#font_______W7_t0"/>
    </g>
  </g>
  <defs>
    <g id="font_______W7_N0">
      <path d="M25.85 -32.15 L25.85 -32.15 27.35 -14.2 10.85 -31.5 5.6 -32.15 2.8 0.05 13.85 -1.4 11.65 -23.35 28.5 0.05 33.85 -0.65 36.9 -30.75 25.85 -32.15" fill-rule="evenodd" stroke="none"/>
    </g>
    <g id="font_______W7_e0">
      <path d="M21.4 -9.9 L21.4 -9.9 Q18.45 -7.55 14.95 -7.55 11.5 -7.55 10.1 -9.9 L21.4 -9.9 M9.9 -13.4 L9.9 -13.4 Q10.7 -14.95 12.65 -15.95 14.55 -16.8 16.6 -16.8 19.85 -16.8 21.65 -14.35 L9.9 -13.4 M25.6 -9.9 L25.6 -9.9 26.75 -9.9 29.4 -12.6 Q28.45 -16.7 25.2 -19.1 21.9 -21.45 16.7 -21.45 10.65 -21.45 6.5 -18.65 2.0 -15.6 2.0 -10.4 2.0 -5.35 6.4 -2.5 10.25 0.05 16.05 0.05 24.7 0.05 29.9 -4.25 L25.6 -9.9" fill-rule="evenodd" stroke="none"/>
    </g>
    <g id="font_______W7_x0">
      <path d="M19.85 -12.15 L19.85 -12.15 26.6 -18.5 23.4 -21.45 14.55 -15.65 5.7 -21.45 2.5 -18.5 9.2 -12.15 0.55 -6.45 6.95 0.05 14.55 -7.15 22.1 0.05 28.5 -6.45 19.85 -12.15" fill-rule="evenodd" stroke="none"/>
    </g>
    <g id="font_______W7_t0">
      <path d="M20.6 -12.2 L20.6 -12.2 Q18.7 -9.35 16.4 -9.35 13.15 -9.35 13.15 -15.4 L23.85 -15.4 22.1 -22.55 13.65 -21.45 Q14.05 -24.2 14.95 -27.95 L9.85 -28.85 Q8.55 -24.65 7.8 -20.75 L0.85 -19.9 1.95 -15.4 7.2 -15.4 7.15 -12.55 Q7.15 -6.8 8.55 -4.05 10.45 0.05 16.0 0.05 21.0 0.05 25.6 -4.15 L20.6 -12.2" fill-rule="evenodd" stroke="none"/>
    </g>
  </defs>
</svg>
