<?xml version="1.0" encoding="UTF-8" standalone="no"?>
<svg xmlns:xlink="http://www.w3.org/1999/xlink" height="18.95px" width="191.5px" xmlns="http://www.w3.org/2000/svg">
  <g transform="matrix(1.0, 0.0, 0.0, 1.0, -1.5, -7.15)">
    <g transform="matrix(1.0, 0.0, 0.0, 1.0, 0.0, 0.0)">
      <use fill="#ffffff" height="18.95" transform="matrix(0.5859, 0.0, 0.0, 0.5859, 0.0, 26.0)" width="191.5" xlink:href="#font_______W7_B0"/>
      <use fill="#ffffff" height="18.95" transform="matrix(0.5859, 0.0, 0.0, 0.5859, 21.05, 26.0)" width="191.5" xlink:href="#font_______W7_o0"/>
      <use fill="#ffffff" height="18.95" transform="matrix(0.5859, 0.0, 0.0, 0.5859, 37.2, 26.0)" width="191.5" xlink:href="#font_______W7_t0"/>
      <use fill="#ffffff" height="18.95" transform="matrix(0.5859, 0.0, 0.0, 0.5859, 51.4, 26.0)" width="191.5" xlink:href="#font_______W7_t0"/>
      <use fill="#ffffff" height="18.95" transform="matrix(0.5859, 0.0, 0.0, 0.5859, 65.6, 26.0)" width="191.5" xlink:href="#font_______W7_o0"/>
      <use fill="#ffffff" height="18.95" transform="matrix(0.5859, 0.0, 0.0, 0.5859, 81.7, 26.0)" width="191.5" xlink:href="#font_______W7_m0"/>
      <use fill="#ffffff" height="18.95" transform="matrix(0.5859, 0.0, 0.0, 0.5859, 103.65, 26.0)" width="191.5" xlink:href="#font_______W7_f0"/>
      <use fill="#ffffff" height="18.95" transform="matrix(0.5859, 0.0, 0.0, 0.5859, 114.55, 26.0)" width="191.5" xlink:href="#font_______W7_e0"/>
      <use fill="#ffffff" height="18.95" transform="matrix(0.5859, 0.0, 0.0, 0.5859, 131.35, 26.0)" width="191.5" xlink:href="#font_______W7_e0"/>
      <use fill="#ffffff" height="18.95" transform="matrix(0.5859, 0.0, 0.0, 0.5859, 148.1, 26.0)" width="191.5" xlink:href="#font_______W7_d0"/>
      <use fill="#ffffff" height="18.95" transform="matrix(0.5859, 0.0, 0.0, 0.5859, 165.5, 26.0)" width="191.5" xlink:href="#font_______W7_e0"/>
      <use fill="#ffffff" height="18.95" transform="matrix(0.5859, 0.0, 0.0, 0.5859, 182.3, 26.0)" width="191.5" xlink:href="#font_______W7_r0"/>
    </g>
  </g>
  <defs>
    <g id="font_______W7_B0">
      <path d="M25.75 -11.3 L25.75 -11.3 Q25.75 -8.4 21.9 -8.4 18.5 -8.4 14.4 -12.15 L12.5 -7.75 11.95 -13.45 Q15.45 -15.85 18.95 -15.85 21.25 -15.85 23.3 -14.7 25.75 -13.4 25.75 -11.3 M23.15 -23.7 L23.15 -23.7 Q23.15 -22.05 21.2 -20.35 L19.0 -20.45 Q15.05 -20.45 11.45 -18.65 L10.85 -24.45 Q15.3 -26.5 18.75 -26.5 L21.55 -25.95 Q23.15 -25.2 23.15 -23.7 M33.9 -10.25 L33.9 -10.25 Q33.9 -14.55 29.85 -17.3 32.05 -20.45 32.05 -23.5 32.05 -27.75 28.35 -29.85 25.45 -31.6 20.9 -31.6 14.3 -31.6 10.4 -29.6 L10.2 -31.55 5.3 -32.15 2.55 0.05 13.15 -1.1 13.05 -2.3 Q17.4 -0.6 21.5 -0.6 26.1 -0.6 29.75 -3.05 33.9 -5.85 33.9 -10.25" fill-rule="evenodd" stroke="none"/>
    </g>
    <g id="font_______W7_o0">
      <path d="M15.8 -13.5 L15.8 -13.5 Q16.45 -11.85 16.45 -10.4 16.45 -6.85 12.35 -6.85 10.6 -6.85 9.35 -8.05 8.15 -9.35 8.15 -11.05 8.15 -13.25 9.8 -14.6 11.4 -16.0 13.7 -16.0 16.1 -16.0 18.3 -14.3 L15.8 -13.5 M25.7 -11.4 L25.7 -11.4 Q25.7 -13.8 24.75 -16.35 L21.25 -15.25 22.7 -17.2 Q18.35 -21.45 13.15 -21.45 8.45 -21.45 5.1 -18.2 1.8 -14.95 1.8 -10.3 1.8 -5.5 5.4 -2.65 8.65 0.05 13.65 0.05 18.75 0.05 22.2 -3.2 25.7 -6.4 25.7 -11.4" fill-rule="evenodd" stroke="none"/>
    </g>
    <g id="font_______W7_t0">
      <path d="M18.7 -12.2 L18.7 -12.2 Q17.0 -9.35 14.9 -9.35 11.95 -9.35 11.95 -15.4 L21.65 -15.4 20.1 -22.55 12.4 -21.45 Q12.75 -24.2 13.6 -27.95 L8.95 -28.85 Q7.75 -24.65 7.1 -20.75 L0.75 -19.9 1.75 -15.4 6.55 -15.4 6.5 -12.55 Q6.5 -6.8 7.75 -4.05 9.5 0.05 14.55 0.05 19.1 0.05 23.25 -4.15 L18.7 -12.2" fill-rule="evenodd" stroke="none"/>
    </g>
    <g id="font_______W7_m0">
      <path d="M35.35 -9.0 L35.35 -9.0 Q35.35 -21.45 27.8 -21.45 24.2 -21.45 21.15 -18.8 19.2 -21.45 15.65 -21.45 12.4 -21.45 9.45 -19.2 L9.25 -20.75 4.35 -21.45 2.05 0.05 11.95 -1.4 10.25 -13.85 Q12.25 -15.8 13.75 -15.8 16.4 -15.8 16.4 -11.2 16.4 -8.95 15.2 -5.8 L12.95 -0.75 22.1 0.1 Q23.3 -4.75 23.3 -9.55 23.3 -12.35 22.95 -14.3 24.5 -15.7 25.75 -15.7 28.25 -15.7 28.25 -11.2 28.25 -7.95 25.1 -0.65 L34.25 0.2 Q35.35 -4.25 35.35 -9.0" fill-rule="evenodd" stroke="none"/>
    </g>
    <g id="font_______W7_f0">
      <path d="M16.3 -23.5 L16.3 -23.5 11.45 -22.7 Q11.8 -25.5 12.65 -26.6 13.65 -27.85 16.3 -27.85 L17.0 -27.85 16.25 -32.0 14.1 -32.15 Q5.9 -32.15 5.05 -21.65 L1.3 -20.95 2.15 -16.7 4.55 -16.7 Q4.1 -5.65 4.1 -0.95 L13.95 0.05 Q11.85 -9.65 11.45 -16.65 L17.3 -16.6 16.3 -23.5" fill-rule="evenodd" stroke="none"/>
    </g>
    <g id="font_______W7_e0">
      <path d="M19.45 -9.9 L19.45 -9.9 Q16.75 -7.55 13.6 -7.55 10.45 -7.55 9.15 -9.9 L19.45 -9.9 M9.0 -13.4 L9.0 -13.4 Q9.7 -14.95 11.5 -15.95 13.2 -16.8 15.1 -16.8 18.05 -16.8 19.65 -14.35 L9.0 -13.4 M23.25 -9.9 L23.25 -9.9 24.3 -9.9 26.7 -12.6 Q25.85 -16.7 22.9 -19.1 19.9 -21.45 15.15 -21.45 9.65 -21.45 5.9 -18.65 1.8 -15.6 1.8 -10.4 1.8 -5.35 5.8 -2.5 9.3 0.05 14.6 0.05 22.45 0.05 27.15 -4.25 L23.25 -9.9" fill-rule="evenodd" stroke="none"/>
    </g>
    <g id="font_______W7_d0">
      <path d="M18.35 -8.95 L18.35 -8.95 16.8 -11.9 Q14.75 -9.45 12.45 -9.45 10.9 -9.45 10.0 -10.4 9.1 -11.4 9.1 -12.95 9.1 -14.5 10.7 -15.6 12.15 -16.5 13.7 -16.5 16.6 -16.5 18.8 -14.55 L18.35 -8.95 M24.9 -31.55 L24.9 -31.55 20.15 -32.2 19.15 -19.55 Q16.05 -21.45 12.65 -21.45 8.15 -21.45 4.95 -18.25 1.8 -15.0 1.8 -10.5 1.8 -6.05 4.6 -3.05 7.4 0.05 11.85 0.05 14.65 0.05 17.7 -1.5 L17.6 0.0 27.65 -1.45 24.9 -31.55" fill-rule="evenodd" stroke="none"/>
    </g>
    <g id="font_______W7_r0">
      <path d="M18.3 -20.6 L18.3 -20.6 Q16.55 -21.45 14.75 -21.45 11.5 -21.45 8.7 -18.65 L8.45 -20.75 4.45 -21.45 2.55 0.05 10.65 -1.4 9.3 -12.8 Q10.55 -14.85 12.3 -14.85 13.25 -14.85 14.55 -13.85 L16.55 -12.05 18.3 -20.6" fill-rule="evenodd" stroke="none"/>
    </g>
  </defs>
</svg>
