<?xml version="1.0" encoding="UTF-8" standalone="no"?>
<svg xmlns:xlink="http://www.w3.org/1999/xlink" height="21.65px" width="195.9px" xmlns="http://www.w3.org/2000/svg">
  <g transform="matrix(1.0, 0.0, 0.0, 1.0, -1.5, -7.15)">
    <g transform="matrix(1.0, 0.0, 0.0, 1.0, 0.0, 0.0)">
      <use fill="#ffffff" height="21.65" transform="matrix(0.5859, 0.0, 0.0, 0.5859, 0.0, 26.0)" width="195.9" xlink:href="#font_______W7_N0"/>
      <use fill="#ffffff" height="21.65" transform="matrix(0.5859, 0.0, 0.0, 0.5859, 21.15, 26.0)" width="195.9" xlink:href="#font_______W7_a0"/>
      <use fill="#ffffff" height="21.65" transform="matrix(0.5859, 0.0, 0.0, 0.5859, 38.4, 26.0)" width="195.9" xlink:href="#font_______W7_m0"/>
      <use fill="#ffffff" height="21.65" transform="matrix(0.5859, 0.0, 0.0, 0.5859, 60.3, 26.0)" width="195.9" xlink:href="#font_______W7_e0"/>
      <use fill="#ffffff" height="21.65" transform="matrix(0.5859, 0.0, 0.0, 0.5859, 87.1, 26.0)" width="195.9" xlink:href="#font_______W7_D0"/>
      <use fill="#ffffff" height="21.65" transform="matrix(0.5859, 0.0, 0.0, 0.5859, 107.85, 26.0)" width="195.9" xlink:href="#font_______W7_r0"/>
      <use fill="#ffffff" height="21.65" transform="matrix(0.5859, 0.0, 0.0, 0.5859, 119.05, 26.0)" width="195.9" xlink:href="#font_______W7_o0"/>
      <use fill="#ffffff" height="21.65" transform="matrix(0.5859, 0.0, 0.0, 0.5859, 135.2, 26.0)" width="195.9" xlink:href="#font_______W7_p0"/>
      <use fill="#ffffff" height="21.65" transform="matrix(0.5859, 0.0, 0.0, 0.5859, 152.55, 26.0)" width="195.9" xlink:href="#font_______W7_p0"/>
      <use fill="#ffffff" height="21.65" transform="matrix(0.5859, 0.0, 0.0, 0.5859, 169.9, 26.0)" width="195.9" xlink:href="#font_______W7_e0"/>
      <use fill="#ffffff" height="21.65" transform="matrix(0.5859, 0.0, 0.0, 0.5859, 186.7, 26.0)" width="195.9" xlink:href="#font_______W7_r0"/>
    </g>
  </g>
  <defs>
    <g id="font_______W7_N0">
      <path d="M23.5 -32.15 L23.5 -32.15 24.85 -14.2 9.85 -31.5 5.1 -32.15 2.55 0.05 12.6 -1.4 10.6 -23.35 25.9 0.05 30.75 -0.65 33.55 -30.75 23.5 -32.15" fill-rule="evenodd" stroke="none"/>
    </g>
    <g id="font_______W7_a0">
      <path d="M19.05 -8.85 L19.05 -8.85 18.5 -5.05 17.1 -9.0 Q14.35 -6.2 10.6 -6.2 9.95 -6.2 9.45 -6.75 9.0 -7.2 9.0 -7.85 9.0 -10.2 13.7 -10.2 15.9 -10.2 19.05 -8.85 M27.4 -6.8 L27.4 -6.8 Q27.4 -21.45 13.35 -21.45 7.15 -21.45 2.55 -18.35 L4.3 -14.35 Q8.3 -16.55 13.15 -16.55 17.85 -16.55 18.85 -13.35 15.4 -14.5 12.8 -14.5 8.6 -14.5 5.6 -12.8 1.8 -10.75 1.8 -6.95 1.8 -3.5 4.9 -1.55 7.55 0.05 11.15 0.05 13.95 0.05 17.35 -0.95 L17.0 0.15 26.7 -0.3 Q27.4 -3.45 27.4 -6.8" fill-rule="evenodd" stroke="none"/>
    </g>
    <g id="font_______W7_m0">
      <path d="M35.35 -9.0 L35.35 -9.0 Q35.35 -21.45 27.8 -21.45 24.2 -21.45 21.15 -18.8 19.2 -21.45 15.65 -21.45 12.4 -21.45 9.45 -19.2 L9.25 -20.75 4.35 -21.45 2.05 0.05 11.95 -1.4 10.25 -13.85 Q12.25 -15.8 13.75 -15.8 16.4 -15.8 16.4 -11.2 16.4 -8.95 15.2 -5.8 L12.95 -0.75 22.1 0.1 Q23.3 -4.75 23.3 -9.55 23.3 -12.35 22.95 -14.3 24.5 -15.7 25.75 -15.7 28.25 -15.7 28.25 -11.2 28.25 -7.95 25.1 -0.65 L34.25 0.2 Q35.35 -4.25 35.35 -9.0" fill-rule="evenodd" stroke="none"/>
    </g>
    <g id="font_______W7_e0">
      <path d="M19.45 -9.9 L19.45 -9.9 Q16.75 -7.55 13.6 -7.55 10.45 -7.55 9.15 -9.9 L19.45 -9.9 M9.0 -13.4 L9.0 -13.4 Q9.7 -14.95 11.5 -15.95 13.2 -16.8 15.1 -16.8 18.05 -16.8 19.65 -14.35 L9.0 -13.4 M23.25 -9.9 L23.25 -9.9 24.3 -9.9 26.7 -12.6 Q25.85 -16.7 22.9 -19.1 19.9 -21.45 15.15 -21.45 9.65 -21.45 5.9 -18.65 1.8 -15.6 1.8 -10.4 1.8 -5.35 5.8 -2.5 9.3 0.05 14.6 0.05 22.45 0.05 27.15 -4.25 L23.25 -9.9" fill-rule="evenodd" stroke="none"/>
    </g>
    <g id="font_______W7_D0">
      <path d="M26.25 -17.9 L26.25 -17.9 Q26.25 -14.65 24.8 -12.6 23.1 -10.25 20.0 -10.25 16.6 -10.25 14.1 -12.65 L12.3 -9.6 10.95 -24.15 Q14.8 -25.95 17.05 -25.95 20.5 -25.95 23.3 -23.65 26.25 -21.25 26.25 -17.9 M33.4 -15.95 L33.4 -15.95 Q33.4 -22.6 29.35 -27.0 25.15 -31.55 18.55 -31.55 14.75 -31.55 10.4 -29.7 L10.25 -31.5 5.3 -32.15 2.55 0.05 13.15 -1.1 13.1 -1.6 Q15.65 -0.6 18.75 -0.6 25.45 -0.6 29.5 -4.95 33.4 -9.15 33.4 -15.95" fill-rule="evenodd" stroke="none"/>
    </g>
    <g id="font_______W7_r0">
      <path d="M18.3 -20.6 L18.3 -20.6 Q16.55 -21.45 14.75 -21.45 11.5 -21.45 8.7 -18.65 L8.45 -20.75 4.45 -21.45 2.55 0.05 10.65 -1.4 9.3 -12.8 Q10.55 -14.85 12.3 -14.85 13.25 -14.85 14.55 -13.85 L16.55 -12.05 18.3 -20.6" fill-rule="evenodd" stroke="none"/>
    </g>
    <g id="font_______W7_o0">
      <path d="M15.8 -13.5 L15.8 -13.5 Q16.45 -11.85 16.45 -10.4 16.45 -6.85 12.35 -6.85 10.6 -6.85 9.35 -8.05 8.15 -9.35 8.15 -11.05 8.15 -13.25 9.8 -14.6 11.4 -16.0 13.7 -16.0 16.1 -16.0 18.3 -14.3 L15.8 -13.5 M25.7 -11.4 L25.7 -11.4 Q25.7 -13.8 24.75 -16.35 L21.25 -15.25 22.7 -17.2 Q18.35 -21.45 13.15 -21.45 8.45 -21.45 5.1 -18.2 1.8 -14.95 1.8 -10.3 1.8 -5.5 5.4 -2.65 8.65 0.05 13.65 0.05 18.75 0.05 22.2 -3.2 25.7 -6.4 25.7 -11.4" fill-rule="evenodd" stroke="none"/>
    </g>
    <g id="font_______W7_p0">
      <path d="M20.7 -12.7 L20.7 -12.7 Q20.7 -9.3 17.35 -9.3 14.95 -9.3 12.7 -12.0 L10.6 -8.4 10.05 -13.4 Q12.6 -16.55 16.2 -16.55 18.05 -16.55 19.35 -15.55 20.7 -14.5 20.7 -12.7 M27.8 -10.85 L27.8 -10.85 Q27.8 -15.55 24.6 -18.5 21.4 -21.45 16.7 -21.45 12.55 -21.45 9.35 -19.15 L9.2 -20.75 4.35 -21.45 2.05 4.75 11.95 3.3 11.35 -1.45 Q14.35 0.05 17.2 0.05 21.85 0.05 24.85 -3.05 27.8 -6.15 27.8 -10.85" fill-rule="evenodd" stroke="none"/>
    </g>
  </defs>
</svg>
