<?xml version="1.0" encoding="UTF-8" standalone="no"?>
<svg xmlns:xlink="http://www.w3.org/1999/xlink" height="15.35px" width="179.4px" xmlns="http://www.w3.org/2000/svg">
  <g transform="matrix(1.0, 0.0, 0.0, 1.0, 42.6, -5.75)">
    <g transform="matrix(1.0, 0.0, 0.0, 1.0, -43.9, 0.0)">
      <use fill="#ffffff" height="15.35" transform="matrix(0.4746, 0.0, 0.0, 0.4746, 0.0, 21.0)" width="179.4" xlink:href="#font_______W7_M0"/>
      <use fill="#ffffff" height="15.35" transform="matrix(0.4746, 0.0, 0.0, 0.4746, 19.15, 21.0)" width="179.4" xlink:href="#font_______W7_o0"/>
      <use fill="#ffffff" height="15.35" transform="matrix(0.4746, 0.0, 0.0, 0.4746, 32.05, 21.0)" width="179.4" xlink:href="#font_______W7_v0"/>
      <use fill="#ffffff" height="15.35" transform="matrix(0.4746, 0.0, 0.0, 0.4746, 44.9, 21.0)" width="179.4" xlink:href="#font_______W7_e0"/>
      <use fill="#ffffff" height="15.35" transform="matrix(0.4746, 0.0, 0.0, 0.4746, 58.3, 21.0)" width="179.4" xlink:href="#font_______W7_r0"/>
      <use fill="#ffffff" height="15.35" transform="matrix(0.4746, 0.0, 0.0, 0.4746, 75.15, 21.0)" width="179.4" xlink:href="#font_______W7__1"/>
      <use fill="#ffffff" height="15.35" transform="matrix(0.4746, 0.0, 0.0, 0.4746, 101.0, 21.0)" width="179.4" xlink:href="#font_______W7_S0"/>
      <use fill="#ffffff" height="15.35" transform="matrix(0.4746, 0.0, 0.0, 0.4746, 116.75, 21.0)" width="179.4" xlink:href="#font_______W7_h0"/>
      <use fill="#ffffff" height="15.35" transform="matrix(0.4746, 0.0, 0.0, 0.4746, 130.9, 21.0)" width="179.4" xlink:href="#font_______W7_a0"/>
      <use fill="#ffffff" height="15.35" transform="matrix(0.4746, 0.0, 0.0, 0.4746, 144.7, 21.0)" width="179.4" xlink:href="#font_______W7_k0"/>
      <use fill="#ffffff" height="15.35" transform="matrix(0.4746, 0.0, 0.0, 0.4746, 158.5, 21.0)" width="179.4" xlink:href="#font_______W7_e0"/>
      <use fill="#ffffff" height="15.35" transform="matrix(0.4746, 0.0, 0.0, 0.4746, 171.9, 21.0)" width="179.4" xlink:href="#font_______W7_r0"/>
    </g>
  </g>
  <defs>
    <g id="font_______W7_M0">
      <path d="M35.55 -31.55 L35.55 -31.55 30.8 -32.15 20.2 -14.25 9.85 -31.5 5.1 -32.15 2.55 0.05 12.6 -1.4 10.85 -20.45 18.7 -2.25 22.0 -3.05 29.9 -20.9 28.25 0.05 38.3 -1.4 35.55 -31.55" fill-rule="evenodd" stroke="none"/>
    </g>
    <g id="font_______W7_o0">
      <path d="M15.8 -13.5 L15.8 -13.5 Q16.45 -11.85 16.45 -10.4 16.45 -6.85 12.35 -6.85 10.6 -6.85 9.35 -8.05 8.15 -9.35 8.15 -11.05 8.15 -13.25 9.8 -14.6 11.4 -16.0 13.7 -16.0 16.1 -16.0 18.3 -14.3 L15.8 -13.5 M25.7 -11.4 L25.7 -11.4 Q25.7 -13.8 24.75 -16.35 L21.25 -15.25 22.7 -17.2 Q18.35 -21.45 13.15 -21.45 8.45 -21.45 5.1 -18.2 1.8 -14.95 1.8 -10.3 1.8 -5.5 5.4 -2.65 8.65 0.05 13.65 0.05 18.75 0.05 22.2 -3.2 25.7 -6.4 25.7 -11.4" fill-rule="evenodd" stroke="none"/>
    </g>
    <g id="font_______W7_v0">
      <path d="M19.45 -21.45 L19.45 -21.45 12.9 -8.05 3.85 -21.15 0.5 -18.8 11.65 0.05 14.95 -0.8 26.9 -16.95 19.45 -21.45" fill-rule="evenodd" stroke="none"/>
    </g>
    <g id="font_______W7_e0">
      <path d="M19.45 -9.9 L19.45 -9.9 Q16.75 -7.55 13.6 -7.55 10.45 -7.55 9.15 -9.9 L19.45 -9.9 M9.0 -13.4 L9.0 -13.4 Q9.7 -14.95 11.5 -15.95 13.2 -16.8 15.1 -16.8 18.05 -16.8 19.65 -14.35 L9.0 -13.4 M23.25 -9.9 L23.25 -9.9 24.3 -9.9 26.7 -12.6 Q25.85 -16.7 22.9 -19.1 19.9 -21.45 15.15 -21.45 9.65 -21.45 5.9 -18.65 1.8 -15.6 1.8 -10.4 1.8 -5.35 5.8 -2.5 9.3 0.05 14.6 0.05 22.45 0.05 27.15 -4.25 L23.25 -9.9" fill-rule="evenodd" stroke="none"/>
    </g>
    <g id="font_______W7_r0">
      <path d="M18.3 -20.6 L18.3 -20.6 Q16.55 -21.45 14.75 -21.45 11.5 -21.45 8.7 -18.65 L8.45 -20.75 4.45 -21.45 2.55 0.05 10.65 -1.4 9.3 -12.8 Q10.55 -14.85 12.3 -14.85 13.25 -14.85 14.55 -13.85 L16.55 -12.05 18.3 -20.6" fill-rule="evenodd" stroke="none"/>
    </g>
    <g id="font_______W7__1">
      <path d="M18.05 -8.5 L18.05 -8.5 Q16.05 -7.1 13.15 -7.1 9.1 -7.1 9.1 -10.1 9.1 -12.3 12.45 -14.3 14.8 -11.35 18.05 -8.5 M18.5 -24.85 L18.5 -24.85 Q18.5 -23.0 14.7 -21.4 13.25 -24.0 13.25 -25.35 13.25 -26.25 13.95 -26.85 14.65 -27.45 15.5 -27.45 16.6 -27.45 17.5 -26.7 18.5 -25.95 18.5 -24.85 M36.5 -5.2 L36.5 -5.2 Q32.95 -5.45 29.2 -7.25 31.45 -10.05 33.0 -13.5 L23.45 -19.05 Q22.45 -14.85 21.35 -12.6 19.3 -14.5 17.55 -16.8 20.85 -18.35 22.3 -19.65 24.45 -21.45 24.45 -23.8 24.45 -32.15 15.15 -32.15 12.05 -32.15 9.95 -30.25 7.8 -28.3 7.8 -25.15 7.8 -22.2 9.45 -18.85 2.55 -15.1 2.55 -9.75 2.55 -5.15 6.6 -2.35 10.2 0.05 15.0 0.05 20.65 0.05 25.3 -3.45 30.75 -0.4 35.0 -0.05 L36.5 -5.2" fill-rule="evenodd" stroke="none"/>
    </g>
    <g id="font_______W7_S0">
      <path d="M31.55 -9.25 L31.55 -9.25 Q31.55 -13.4 28.3 -15.85 25.95 -17.65 19.7 -19.75 10.7 -22.75 10.7 -24.2 10.7 -25.4 11.9 -26.1 13.0 -26.75 14.65 -26.75 21.7 -26.75 27.4 -23.2 L30.25 -27.8 Q24.05 -32.15 16.75 -32.15 11.9 -32.15 8.45 -30.45 4.0 -28.25 4.0 -23.9 4.0 -20.3 7.85 -18.05 9.4 -17.1 15.9 -14.75 23.85 -11.9 23.85 -10.1 23.85 -8.7 22.45 -7.9 21.25 -7.25 19.75 -7.25 15.9 -7.25 12.1 -9.95 8.85 -12.25 6.35 -15.9 L1.55 -6.1 Q4.85 -3.25 9.45 -1.6 14.1 0.05 18.65 0.05 23.45 0.05 27.15 -2.15 31.55 -4.75 31.55 -9.25" fill-rule="evenodd" stroke="none"/>
    </g>
    <g id="font_______W7_h0">
      <path d="M28.1 -7.6 L28.1 -7.6 Q28.1 -13.7 25.7 -17.25 22.9 -21.45 17.05 -21.45 13.35 -21.45 10.45 -19.3 L9.3 -31.55 4.65 -32.15 2.05 0.05 12.1 -1.4 11.0 -12.9 Q13.45 -15.95 16.35 -15.95 20.1 -15.95 20.1 -10.2 20.1 -6.55 17.6 -1.55 L27.6 0.05 28.1 -7.6" fill-rule="evenodd" stroke="none"/>
    </g>
    <g id="font_______W7_a0">
      <path d="M19.05 -8.85 L19.05 -8.85 18.5 -5.05 17.1 -9.0 Q14.35 -6.2 10.6 -6.2 9.95 -6.2 9.45 -6.75 9.0 -7.2 9.0 -7.85 9.0 -10.2 13.7 -10.2 15.9 -10.2 19.05 -8.85 M27.4 -6.8 L27.4 -6.8 Q27.4 -21.45 13.35 -21.45 7.15 -21.45 2.55 -18.35 L4.3 -14.35 Q8.3 -16.55 13.15 -16.55 17.85 -16.55 18.85 -13.35 15.4 -14.5 12.8 -14.5 8.6 -14.5 5.6 -12.8 1.8 -10.75 1.8 -6.95 1.8 -3.5 4.9 -1.55 7.55 0.05 11.15 0.05 13.95 0.05 17.35 -0.95 L17.0 0.15 26.7 -0.3 Q27.4 -3.45 27.4 -6.8" fill-rule="evenodd" stroke="none"/>
    </g>
    <g id="font_______W7_k0">
      <path d="M20.35 -12.2 L20.35 -12.2 26.9 -17.9 24.8 -21.8 10.85 -14.65 9.3 -31.45 4.6 -32.15 2.05 0.05 12.1 -1.4 11.35 -9.1 13.25 -6.05 15.8 -8.25 22.05 0.25 28.6 -6.95 20.35 -12.2" fill-rule="evenodd" stroke="none"/>
    </g>
  </defs>
</svg>
