<?xml version="1.0" encoding="UTF-8" standalone="no"?>
<svg xmlns:xlink="http://www.w3.org/1999/xlink" height="17.7px" width="115.6px" xmlns="http://www.w3.org/2000/svg">
  <g transform="matrix(1.0, 0.0, 0.0, 1.0, -0.4, -6.4)">
    <g transform="matrix(1.0, 0.0, 0.0, 1.0, 0.0, 0.0)">
      <use fill="#ffffff" height="17.7" transform="matrix(0.5469, 0.0, 0.0, 0.5469, 0.0, 24.0)" width="115.6" xlink:href="#font_______W7_T0"/>
      <use fill="#ffffff" height="17.7" transform="matrix(0.5469, 0.0, 0.0, 0.5469, 18.15, 24.0)" width="115.6" xlink:href="#font_______W7_w0"/>
      <use fill="#ffffff" height="17.7" transform="matrix(0.5469, 0.0, 0.0, 0.5469, 35.45, 24.0)" width="115.6" xlink:href="#font_______W7_o0"/>
      <use fill="#ffffff" height="17.7" transform="matrix(0.5469, 0.0, 0.0, 0.5469, 50.5, 24.0)" width="115.6" xlink:href="#font_______W7_-0"/>
      <use fill="#ffffff" height="17.7" transform="matrix(0.5469, 0.0, 0.0, 0.5469, 59.8, 24.0)" width="115.6" xlink:href="#font_______W7_f0"/>
      <use fill="#ffffff" height="17.7" transform="matrix(0.5469, 0.0, 0.0, 0.5469, 70.0, 24.0)" width="115.6" xlink:href="#font_______W7_a0"/>
      <use fill="#ffffff" height="17.7" transform="matrix(0.5469, 0.0, 0.0, 0.5469, 86.15, 24.0)" width="115.6" xlink:href="#font_______W7_c0"/>
      <use fill="#ffffff" height="17.7" transform="matrix(0.5469, 0.0, 0.0, 0.5469, 101.15, 24.0)" width="115.6" xlink:href="#font_______W7_e0"/>
    </g>
  </g>
  <defs>
    <g id="font_______W7_T0">
      <path d="M30.8 -32.15 L30.8 -32.15 0.75 -29.4 1.85 -24.25 13.45 -24.25 11.0 0.05 21.6 -1.1 18.95 -24.25 32.35 -24.25 30.8 -32.15" fill-rule="evenodd" stroke="none"/>
    </g>
    <g id="font_______W7_w0">
      <path d="M23.1 -21.4 L23.1 -21.4 20.35 -10.05 16.6 -20.6 13.9 -21.45 9.35 -10.05 4.1 -21.35 0.5 -19.7 8.35 0.05 11.1 -0.5 14.9 -12.4 19.2 0.05 22.05 -0.55 31.2 -17.75 23.1 -21.4" fill-rule="evenodd" stroke="none"/>
    </g>
    <g id="font_______W7_o0">
      <path d="M15.8 -13.5 L15.8 -13.5 Q16.45 -11.85 16.45 -10.4 16.45 -6.85 12.35 -6.85 10.6 -6.85 9.35 -8.05 8.15 -9.35 8.15 -11.05 8.15 -13.25 9.8 -14.6 11.4 -16.0 13.7 -16.0 16.1 -16.0 18.3 -14.3 L15.8 -13.5 M25.7 -11.4 L25.7 -11.4 Q25.7 -13.8 24.75 -16.35 L21.25 -15.25 22.7 -17.2 Q18.35 -21.45 13.15 -21.45 8.45 -21.45 5.1 -18.2 1.8 -14.95 1.8 -10.3 1.8 -5.5 5.4 -2.65 8.65 0.05 13.65 0.05 18.75 0.05 22.2 -3.2 25.7 -6.4 25.7 -11.4" fill-rule="evenodd" stroke="none"/>
    </g>
    <g id="font_______W7_-0">
      <path d="M13.3 -20.55 L13.3 -20.55 2.1 -16.75 3.3 -11.35 14.9 -11.4 13.3 -20.55" fill-rule="evenodd" stroke="none"/>
    </g>
    <g id="font_______W7_f0">
      <path d="M16.3 -23.5 L16.3 -23.5 11.45 -22.7 Q11.8 -25.5 12.65 -26.6 13.65 -27.85 16.3 -27.85 L17.0 -27.85 16.25 -32.0 14.1 -32.15 Q5.9 -32.15 5.05 -21.65 L1.3 -20.95 2.15 -16.7 4.55 -16.7 Q4.1 -5.65 4.1 -0.95 L13.95 0.05 Q11.85 -9.65 11.45 -16.65 L17.3 -16.6 16.3 -23.5" fill-rule="evenodd" stroke="none"/>
    </g>
    <g id="font_______W7_a0">
      <path d="M19.05 -8.85 L19.05 -8.85 18.5 -5.05 17.1 -9.0 Q14.35 -6.2 10.6 -6.2 9.95 -6.2 9.45 -6.75 9.0 -7.2 9.0 -7.85 9.0 -10.2 13.7 -10.2 15.9 -10.2 19.05 -8.85 M27.4 -6.8 L27.4 -6.8 Q27.4 -21.45 13.35 -21.45 7.15 -21.45 2.55 -18.35 L4.3 -14.35 Q8.3 -16.55 13.15 -16.55 17.85 -16.55 18.85 -13.35 15.4 -14.5 12.8 -14.5 8.6 -14.5 5.6 -12.8 1.8 -10.75 1.8 -6.95 1.8 -3.5 4.9 -1.55 7.55 0.05 11.15 0.05 13.95 0.05 17.35 -0.95 L17.0 0.15 26.7 -0.3 Q27.4 -3.45 27.4 -6.8" fill-rule="evenodd" stroke="none"/>
    </g>
    <g id="font_______W7_c0">
      <path d="M21.35 -12.5 L21.35 -12.5 Q19.95 -10.5 17.75 -9.15 15.35 -7.6 13.15 -7.6 11.4 -7.6 10.2 -8.85 8.9 -10.05 8.9 -11.8 8.9 -14.1 10.65 -15.4 12.2 -16.55 14.55 -16.55 18.9 -16.55 21.9 -13.7 L24.4 -17.55 Q19.65 -21.45 13.1 -21.45 8.05 -21.45 4.9 -18.4 1.8 -15.3 1.8 -10.3 1.8 -5.6 5.7 -2.65 9.25 0.05 14.1 0.05 17.2 0.05 20.45 -1.1 24.05 -2.3 25.9 -4.4 L21.35 -12.5" fill-rule="evenodd" stroke="none"/>
    </g>
    <g id="font_______W7_e0">
      <path d="M19.45 -9.9 L19.45 -9.9 Q16.75 -7.55 13.6 -7.55 10.45 -7.55 9.15 -9.9 L19.45 -9.9 M9.0 -13.4 L9.0 -13.4 Q9.7 -14.95 11.5 -15.95 13.2 -16.8 15.1 -16.8 18.05 -16.8 19.65 -14.35 L9.0 -13.4 M23.25 -9.9 L23.25 -9.9 24.3 -9.9 26.7 -12.6 Q25.85 -16.7 22.9 -19.1 19.9 -21.45 15.15 -21.45 9.65 -21.45 5.9 -18.65 1.8 -15.6 1.8 -10.4 1.8 -5.35 5.8 -2.5 9.3 0.05 14.6 0.05 22.45 0.05 27.15 -4.25 L23.25 -9.9" fill-rule="evenodd" stroke="none"/>
    </g>
  </defs>
</svg>
