<?xml version="1.0" encoding="UTF-8" standalone="no"?>
<svg xmlns:xlink="http://www.w3.org/1999/xlink" height="47.7px" width="129.05px" xmlns="http://www.w3.org/2000/svg">
  <g transform="matrix(1.0, 0.0, 0.0, 1.0, -1.2, -6.4)">
    <g transform="matrix(1.0, 0.0, 0.0, 1.0, 0.0, 0.0)">
      <use fill="#ffffff" height="47.7" transform="matrix(0.5469, 0.0, 0.0, 0.5469, 0.0, 24.0)" width="129.05" xlink:href="#font_______W7_C0"/>
      <use fill="#ffffff" height="47.7" transform="matrix(0.5469, 0.0, 0.0, 0.5469, 18.85, 24.0)" width="129.05" xlink:href="#font_______W7_o0"/>
      <use fill="#ffffff" height="47.7" transform="matrix(0.5469, 0.0, 0.0, 0.5469, 33.9, 24.0)" width="129.05" xlink:href="#font_______W7_r0"/>
      <use fill="#ffffff" height="47.7" transform="matrix(0.5469, 0.0, 0.0, 0.5469, 44.3, 24.0)" width="129.05" xlink:href="#font_______W7_p0"/>
      <use fill="#ffffff" height="47.7" transform="matrix(0.5469, 0.0, 0.0, 0.5469, 60.5, 24.0)" width="129.05" xlink:href="#font_______W7_o0"/>
      <use fill="#ffffff" height="47.7" transform="matrix(0.5469, 0.0, 0.0, 0.5469, 75.55, 24.0)" width="129.05" xlink:href="#font_______W7_r0"/>
      <use fill="#ffffff" height="47.7" transform="matrix(0.5469, 0.0, 0.0, 0.5469, 85.95, 24.0)" width="129.05" xlink:href="#font_______W7_a0"/>
      <use fill="#ffffff" height="47.7" transform="matrix(0.5469, 0.0, 0.0, 0.5469, 102.05, 24.0)" width="129.05" xlink:href="#font_______W7_t0"/>
      <use fill="#ffffff" height="47.7" transform="matrix(0.5469, 0.0, 0.0, 0.5469, 115.3, 24.0)" width="129.05" xlink:href="#font_______W7_e0"/>
    </g>
    <g transform="matrix(1.0, 0.0, 0.0, 1.0, 0.0, 0.0)">
      <use fill="#ffffff" height="47.7" transform="matrix(0.5469, 0.0, 0.0, 0.5469, 21.0, 54.0)" width="129.05" xlink:href="#font_______W7_R0"/>
      <use fill="#ffffff" height="47.7" transform="matrix(0.5469, 0.0, 0.0, 0.5469, 41.1, 54.0)" width="129.05" xlink:href="#font_______W7_a0"/>
      <use fill="#ffffff" height="47.7" transform="matrix(0.5469, 0.0, 0.0, 0.5469, 57.2, 54.0)" width="129.05" xlink:href="#font_______W7_i0"/>
      <use fill="#ffffff" height="47.7" transform="matrix(0.5469, 0.0, 0.0, 0.5469, 67.45, 54.0)" width="129.05" xlink:href="#font_______W7_d0"/>
      <use fill="#ffffff" height="47.7" transform="matrix(0.5469, 0.0, 0.0, 0.5469, 83.7, 54.0)" width="129.05" xlink:href="#font_______W7_e0"/>
      <use fill="#ffffff" height="47.7" transform="matrix(0.5469, 0.0, 0.0, 0.5469, 99.35, 54.0)" width="129.05" xlink:href="#font_______W7_r0"/>
    </g>
  </g>
  <defs>
    <g id="font_______W7_C0">
      <path d="M26.2 -15.4 L26.2 -15.4 Q21.6 -8.3 16.1 -8.3 12.35 -8.3 10.4 -10.7 8.6 -12.9 8.6 -16.75 8.6 -21.2 11.05 -23.95 13.55 -26.6 17.95 -26.6 23.65 -26.6 27.3 -22.25 L31.1 -26.05 Q28.65 -28.9 25.1 -30.55 21.55 -32.15 17.8 -32.15 10.8 -32.15 6.45 -27.4 2.05 -22.7 2.05 -15.6 2.05 -8.95 6.35 -4.45 10.7 0.05 17.3 0.05 25.6 0.05 32.65 -7.35 L26.2 -15.4" fill-rule="evenodd" stroke="none"/>
    </g>
    <g id="font_______W7_o0">
      <path d="M15.8 -13.5 L15.8 -13.5 Q16.45 -11.85 16.45 -10.4 16.45 -6.85 12.35 -6.85 10.6 -6.85 9.35 -8.05 8.15 -9.35 8.15 -11.05 8.15 -13.25 9.8 -14.6 11.4 -16.0 13.7 -16.0 16.1 -16.0 18.3 -14.3 L15.8 -13.5 M25.7 -11.4 L25.7 -11.4 Q25.7 -13.8 24.75 -16.35 L21.25 -15.25 22.7 -17.2 Q18.35 -21.45 13.15 -21.45 8.45 -21.45 5.1 -18.2 1.8 -14.95 1.8 -10.3 1.8 -5.5 5.4 -2.65 8.65 0.05 13.65 0.05 18.75 0.05 22.2 -3.2 25.7 -6.4 25.7 -11.4" fill-rule="evenodd" stroke="none"/>
    </g>
    <g id="font_______W7_r0">
      <path d="M18.3 -20.6 L18.3 -20.6 Q16.55 -21.45 14.75 -21.45 11.5 -21.45 8.7 -18.65 L8.45 -20.75 4.45 -21.45 2.55 0.05 10.65 -1.4 9.3 -12.8 Q10.55 -14.85 12.3 -14.85 13.25 -14.85 14.55 -13.85 L16.55 -12.05 18.3 -20.6" fill-rule="evenodd" stroke="none"/>
    </g>
    <g id="font_______W7_p0">
      <path d="M20.7 -12.7 L20.7 -12.7 Q20.7 -9.3 17.35 -9.3 14.95 -9.3 12.7 -12.0 L10.6 -8.4 10.05 -13.4 Q12.6 -16.55 16.2 -16.55 18.05 -16.55 19.35 -15.55 20.7 -14.5 20.7 -12.7 M27.8 -10.85 L27.8 -10.85 Q27.8 -15.55 24.6 -18.5 21.4 -21.45 16.7 -21.45 12.55 -21.45 9.35 -19.15 L9.2 -20.75 4.35 -21.45 2.05 4.75 11.95 3.3 11.35 -1.45 Q14.35 0.05 17.2 0.05 21.85 0.05 24.85 -3.05 27.8 -6.15 27.8 -10.85" fill-rule="evenodd" stroke="none"/>
    </g>
    <g id="font_______W7_a0">
      <path d="M19.05 -8.85 L19.05 -8.85 18.5 -5.05 17.1 -9.0 Q14.35 -6.2 10.6 -6.2 9.95 -6.2 9.45 -6.75 9.0 -7.2 9.0 -7.85 9.0 -10.2 13.7 -10.2 15.9 -10.2 19.05 -8.85 M27.4 -6.8 L27.4 -6.8 Q27.4 -21.45 13.35 -21.45 7.15 -21.45 2.55 -18.35 L4.3 -14.35 Q8.3 -16.55 13.15 -16.55 17.85 -16.55 18.85 -13.35 15.4 -14.5 12.8 -14.5 8.6 -14.5 5.6 -12.8 1.8 -10.75 1.8 -6.95 1.8 -3.5 4.9 -1.55 7.55 0.05 11.15 0.05 13.95 0.05 17.35 -0.95 L17.0 0.15 26.7 -0.3 Q27.4 -3.45 27.4 -6.8" fill-rule="evenodd" stroke="none"/>
    </g>
    <g id="font_______W7_t0">
      <path d="M18.7 -12.2 L18.7 -12.2 Q17.0 -9.35 14.9 -9.35 11.95 -9.35 11.95 -15.4 L21.65 -15.4 20.1 -22.55 12.4 -21.45 Q12.75 -24.2 13.6 -27.95 L8.95 -28.85 Q7.75 -24.65 7.1 -20.75 L0.75 -19.9 1.75 -15.4 6.55 -15.4 6.5 -12.55 Q6.5 -6.8 7.75 -4.05 9.5 0.05 14.55 0.05 19.1 0.05 23.25 -4.15 L18.7 -12.2" fill-rule="evenodd" stroke="none"/>
    </g>
    <g id="font_______W7_e0">
      <path d="M19.45 -9.9 L19.45 -9.9 Q16.75 -7.55 13.6 -7.55 10.45 -7.55 9.15 -9.9 L19.45 -9.9 M9.0 -13.4 L9.0 -13.4 Q9.7 -14.95 11.5 -15.95 13.2 -16.8 15.1 -16.8 18.05 -16.8 19.65 -14.35 L9.0 -13.4 M23.25 -9.9 L23.25 -9.9 24.3 -9.9 26.7 -12.6 Q25.85 -16.7 22.9 -19.1 19.9 -21.45 15.15 -21.45 9.65 -21.45 5.9 -18.65 1.8 -15.6 1.8 -10.4 1.8 -5.35 5.8 -2.5 9.3 0.05 14.6 0.05 22.45 0.05 27.15 -4.25 L23.25 -9.9" fill-rule="evenodd" stroke="none"/>
    </g>
    <g id="font_______W7_R0">
      <path d="M25.55 -21.75 L25.55 -21.75 Q25.55 -19.95 24.25 -18.8 23.0 -17.7 21.2 -17.7 17.15 -17.7 13.5 -20.8 L11.65 -16.3 10.9 -24.1 Q15.35 -26.5 19.05 -26.5 21.5 -26.5 23.35 -25.35 25.55 -24.05 25.55 -21.75 M28.0 -11.75 L28.0 -11.75 Q32.55 -14.8 32.55 -20.5 32.55 -26.0 28.75 -28.9 25.35 -31.55 19.75 -31.55 15.45 -31.55 10.4 -29.45 L10.2 -31.45 5.3 -32.15 2.55 0.05 13.15 -1.1 12.2 -11.0 Q15.85 -9.4 19.4 -9.4 L21.5 -9.5 26.7 0.2 34.7 -6.1 28.0 -11.75" fill-rule="evenodd" stroke="none"/>
    </g>
    <g id="font_______W7_i0">
      <path d="M11.6 -20.75 L11.6 -20.75 6.75 -21.45 4.45 0.05 14.3 -1.4 11.6 -20.75 M11.9 -31.5 L11.9 -31.5 6.5 -32.15 4.9 -24.95 13.2 -26.1 11.9 -31.5" fill-rule="evenodd" stroke="none"/>
    </g>
    <g id="font_______W7_d0">
      <path d="M18.35 -8.95 L18.35 -8.95 16.8 -11.9 Q14.75 -9.45 12.45 -9.45 10.9 -9.45 10.0 -10.4 9.1 -11.4 9.1 -12.95 9.1 -14.5 10.7 -15.6 12.15 -16.5 13.7 -16.5 16.6 -16.5 18.8 -14.55 L18.35 -8.95 M24.9 -31.55 L24.9 -31.55 20.15 -32.2 19.15 -19.55 Q16.05 -21.45 12.65 -21.45 8.15 -21.45 4.95 -18.25 1.8 -15.0 1.8 -10.5 1.8 -6.05 4.6 -3.05 7.4 0.05 11.85 0.05 14.65 0.05 17.7 -1.5 L17.6 0.0 27.65 -1.45 24.9 -31.55" fill-rule="evenodd" stroke="none"/>
    </g>
  </defs>
</svg>
