<?xml version="1.0" encoding="UTF-8" standalone="no"?>
<svg xmlns:xlink="http://www.w3.org/1999/xlink" height="20.2px" width="158.95px" xmlns="http://www.w3.org/2000/svg">
  <g transform="matrix(1.0, 0.0, 0.0, 1.0, -1.4, -6.4)">
    <g transform="matrix(1.0, 0.0, 0.0, 1.0, 0.0, 0.0)">
      <use fill="#ffffff" height="20.2" transform="matrix(0.5469, 0.0, 0.0, 0.5469, 0.0, 24.0)" width="158.95" xlink:href="#font_______W7_L0"/>
      <use fill="#ffffff" height="20.2" transform="matrix(0.5469, 0.0, 0.0, 0.5469, 17.95, 24.0)" width="158.95" xlink:href="#font_______W7_e0"/>
      <use fill="#ffffff" height="20.2" transform="matrix(0.5469, 0.0, 0.0, 0.5469, 33.65, 24.0)" width="158.95" xlink:href="#font_______W7_g0"/>
      <use fill="#ffffff" height="20.2" transform="matrix(0.5469, 0.0, 0.0, 0.5469, 49.15, 24.0)" width="158.95" xlink:href="#font_______W7_a0"/>
      <use fill="#ffffff" height="20.2" transform="matrix(0.5469, 0.0, 0.0, 0.5469, 65.25, 24.0)" width="158.95" xlink:href="#font_______W7_l0"/>
      <use fill="#ffffff" height="20.2" transform="matrix(0.5469, 0.0, 0.0, 0.5469, 84.85, 24.0)" width="158.95" xlink:href="#font_______W7_E0"/>
      <use fill="#ffffff" height="20.2" transform="matrix(0.5469, 0.0, 0.0, 0.5469, 103.65, 24.0)" width="158.95" xlink:href="#font_______W7_a0"/>
      <use fill="#ffffff" height="20.2" transform="matrix(0.5469, 0.0, 0.0, 0.5469, 119.75, 24.0)" width="158.95" xlink:href="#font_______W7_g0"/>
      <use fill="#ffffff" height="20.2" transform="matrix(0.5469, 0.0, 0.0, 0.5469, 135.25, 24.0)" width="158.95" xlink:href="#font_______W7_l0"/>
      <use fill="#ffffff" height="20.2" transform="matrix(0.5469, 0.0, 0.0, 0.5469, 145.5, 24.0)" width="158.95" xlink:href="#font_______W7_e0"/>
    </g>
  </g>
  <defs>
    <g id="font_______W7_L0">
      <path d="M30.55 -8.45 L30.55 -8.45 12.65 -6.2 10.2 -31.55 5.3 -32.15 2.55 0.05 8.05 -0.55 32.1 -0.65 30.55 -8.45" fill-rule="evenodd" stroke="none"/>
    </g>
    <g id="font_______W7_e0">
      <path d="M19.45 -9.9 L19.45 -9.9 Q16.75 -7.55 13.6 -7.55 10.45 -7.55 9.15 -9.9 L19.45 -9.9 M9.0 -13.4 L9.0 -13.4 Q9.7 -14.95 11.5 -15.95 13.2 -16.8 15.1 -16.8 18.05 -16.8 19.65 -14.35 L9.0 -13.4 M23.25 -9.9 L23.25 -9.9 24.3 -9.9 26.7 -12.6 Q25.85 -16.7 22.9 -19.1 19.9 -21.45 15.15 -21.45 9.65 -21.45 5.9 -18.65 1.8 -15.6 1.8 -10.4 1.8 -5.35 5.8 -2.5 9.3 0.05 14.6 0.05 22.45 0.05 27.15 -4.25 L23.25 -9.9" fill-rule="evenodd" stroke="none"/>
    </g>
    <g id="font_______W7_g0">
      <path d="M21.25 -12.75 L21.25 -12.75 21.05 -10.5 18.9 -14.7 Q15.2 -11.7 11.9 -11.7 10.85 -11.7 10.0 -12.55 9.05 -13.45 9.05 -14.45 9.05 -16.75 13.35 -16.75 15.6 -16.75 18.05 -15.7 20.3 -14.7 21.2 -13.55 L21.25 -12.75 M26.3 -10.4 L26.3 -10.4 Q26.3 -15.45 24.2 -21.5 L20.0 -20.3 20.3 -19.15 Q16.35 -21.45 12.1 -21.45 8.15 -21.45 5.4 -19.3 2.35 -16.95 2.35 -13.2 2.35 -9.45 5.85 -7.35 8.8 -5.6 12.75 -5.6 16.55 -5.6 19.75 -6.9 17.8 -3.95 13.25 -3.95 8.55 -3.95 4.75 -6.35 L1.8 2.9 Q6.7 4.75 11.2 4.75 18.25 4.75 22.25 0.65 26.3 -3.4 26.3 -10.4" fill-rule="evenodd" stroke="none"/>
    </g>
    <g id="font_______W7_a0">
      <path d="M19.05 -8.85 L19.05 -8.85 18.5 -5.05 17.1 -9.0 Q14.35 -6.2 10.6 -6.2 9.95 -6.2 9.45 -6.75 9.0 -7.2 9.0 -7.85 9.0 -10.2 13.7 -10.2 15.9 -10.2 19.05 -8.85 M27.4 -6.8 L27.4 -6.8 Q27.4 -21.45 13.35 -21.45 7.15 -21.45 2.55 -18.35 L4.3 -14.35 Q8.3 -16.55 13.15 -16.55 17.85 -16.55 18.85 -13.35 15.4 -14.5 12.8 -14.5 8.6 -14.5 5.6 -12.8 1.8 -10.75 1.8 -6.95 1.8 -3.5 4.9 -1.55 7.55 0.05 11.15 0.05 13.95 0.05 17.35 -0.95 L17.0 0.15 26.7 -0.3 Q27.4 -3.45 27.4 -6.8" fill-rule="evenodd" stroke="none"/>
    </g>
    <g id="font_______W7_l0">
      <path d="M11.6 -31.5 L11.6 -31.5 6.9 -32.15 4.35 0.05 14.4 -1.4 11.6 -31.5" fill-rule="evenodd" stroke="none"/>
    </g>
    <g id="font_______W7_E0">
      <path d="M31.25 -9.2 L31.25 -9.2 12.6 -6.6 12.0 -12.95 30.3 -12.95 28.75 -20.5 11.5 -17.95 10.9 -24.05 31.85 -24.05 30.3 -31.55 10.45 -29.1 10.2 -31.5 5.3 -32.15 2.55 0.05 13.15 -1.1 13.1 -1.45 32.75 -1.45 31.25 -9.2" fill-rule="evenodd" stroke="none"/>
    </g>
  </defs>
</svg>
