<?xml version="1.0" encoding="UTF-8" standalone="no"?>
<svg xmlns:xlink="http://www.w3.org/1999/xlink" height="20.2px" width="170.15px" xmlns="http://www.w3.org/2000/svg">
  <g transform="matrix(1.0, 0.0, 0.0, 1.0, -1.4, -6.4)">
    <g transform="matrix(1.0, 0.0, 0.0, 1.0, 0.0, 0.0)">
      <use fill="#ffffff" height="20.2" transform="matrix(0.5469, 0.0, 0.0, 0.5469, 0.0, 24.0)" width="170.15" xlink:href="#font_______W7_M0"/>
      <use fill="#ffffff" height="20.2" transform="matrix(0.5469, 0.0, 0.0, 0.5469, 21.35, 24.0)" width="170.15" xlink:href="#font_______W7_r0"/>
      <use fill="#ffffff" height="20.2" transform="matrix(0.5469, 0.0, 0.0, 0.5469, 30.75, 24.0)" width="170.15" xlink:href="#font_______W7_.0"/>
      <use fill="#ffffff" height="20.2" transform="matrix(0.5469, 0.0, 0.0, 0.5469, 47.2, 24.0)" width="170.15" xlink:href="#font_______W7_H0"/>
      <use fill="#ffffff" height="20.2" transform="matrix(0.5469, 0.0, 0.0, 0.5469, 66.6, 24.0)" width="170.15" xlink:href="#font_______W7_o0"/>
      <use fill="#ffffff" height="20.2" transform="matrix(0.5469, 0.0, 0.0, 0.5469, 80.65, 24.0)" width="170.15" xlink:href="#font_______W7_l0"/>
      <use fill="#ffffff" height="20.2" transform="matrix(0.5469, 0.0, 0.0, 0.5469, 89.9, 24.0)" width="170.15" xlink:href="#font_______W7_l0"/>
      <use fill="#ffffff" height="20.2" transform="matrix(0.5469, 0.0, 0.0, 0.5469, 99.15, 24.0)" width="170.15" xlink:href="#font_______W7_y0"/>
      <use fill="#ffffff" height="20.2" transform="matrix(0.5469, 0.0, 0.0, 0.5469, 112.0, 24.0)" width="170.15" xlink:href="#font_______W7_w0"/>
      <use fill="#ffffff" height="20.2" transform="matrix(0.5469, 0.0, 0.0, 0.5469, 128.35, 24.0)" width="170.15" xlink:href="#font_______W7_o0"/>
      <use fill="#ffffff" height="20.2" transform="matrix(0.5469, 0.0, 0.0, 0.5469, 142.4, 24.0)" width="170.15" xlink:href="#font_______W7_o0"/>
      <use fill="#ffffff" height="20.2" transform="matrix(0.5469, 0.0, 0.0, 0.5469, 156.45, 24.0)" width="170.15" xlink:href="#font_______W7_d0"/>
    </g>
  </g>
  <defs>
    <g id="font_______W7_M0">
      <path d="M35.55 -31.55 L35.55 -31.55 30.8 -32.15 20.2 -14.25 9.85 -31.5 5.1 -32.15 2.55 0.05 12.6 -1.4 10.85 -20.45 18.7 -2.25 22.0 -3.05 29.9 -20.9 28.25 0.05 38.3 -1.4 35.55 -31.55" fill-rule="evenodd" stroke="none"/>
    </g>
    <g id="font_______W7_r0">
      <path d="M18.3 -20.6 L18.3 -20.6 Q16.55 -21.45 14.75 -21.45 11.5 -21.45 8.7 -18.65 L8.45 -20.75 4.45 -21.45 2.55 0.05 10.65 -1.4 9.3 -12.8 Q10.55 -14.85 12.3 -14.85 13.25 -14.85 14.55 -13.85 L16.55 -12.05 18.3 -20.6" fill-rule="evenodd" stroke="none"/>
    </g>
    <g id="font_______W7_.0">
      <path d="M11.9 -7.35 L11.9 -7.35 4.9 -8.2 3.1 1.2 13.5 0.0 11.9 -7.35" fill-rule="evenodd" stroke="none"/>
    </g>
    <g id="font_______W7_H0">
      <path d="M31.8 -31.5 L31.8 -31.5 26.95 -32.15 25.95 -21.0 11.4 -18.75 10.2 -31.5 5.3 -32.15 2.55 0.05 13.15 -1.1 11.95 -13.75 25.35 -13.75 24.15 0.05 34.75 -1.1 31.8 -31.5" fill-rule="evenodd" stroke="none"/>
    </g>
    <g id="font_______W7_o0">
      <path d="M15.8 -13.5 L15.8 -13.5 Q16.45 -11.85 16.45 -10.4 16.45 -6.85 12.35 -6.85 10.6 -6.85 9.35 -8.05 8.15 -9.35 8.15 -11.05 8.15 -13.25 9.8 -14.6 11.4 -16.0 13.7 -16.0 16.1 -16.0 18.3 -14.3 L15.8 -13.5 M25.7 -11.4 L25.7 -11.4 Q25.7 -13.8 24.75 -16.35 L21.25 -15.25 22.7 -17.2 Q18.35 -21.45 13.15 -21.45 8.45 -21.45 5.1 -18.2 1.8 -14.95 1.8 -10.3 1.8 -5.5 5.4 -2.65 8.65 0.05 13.65 0.05 18.75 0.05 22.2 -3.2 25.7 -6.4 25.7 -11.4" fill-rule="evenodd" stroke="none"/>
    </g>
    <g id="font_______W7_l0">
      <path d="M11.6 -31.5 L11.6 -31.5 6.9 -32.15 4.35 0.05 14.4 -1.4 11.6 -31.5" fill-rule="evenodd" stroke="none"/>
    </g>
    <g id="font_______W7_y0">
      <path d="M21.2 -21.45 L21.2 -21.45 13.15 -10.8 3.65 -21.45 0.5 -19.75 8.5 -4.7 4.3 0.85 12.5 4.75 24.85 -19.65 21.2 -21.45" fill-rule="evenodd" stroke="none"/>
    </g>
    <g id="font_______W7_w0">
      <path d="M23.1 -21.4 L23.1 -21.4 20.35 -10.05 16.6 -20.6 13.9 -21.45 9.35 -10.05 4.1 -21.35 0.5 -19.7 8.35 0.05 11.1 -0.5 14.9 -12.4 19.2 0.05 22.05 -0.55 31.2 -17.75 23.1 -21.4" fill-rule="evenodd" stroke="none"/>
    </g>
    <g id="font_______W7_d0">
      <path d="M18.35 -8.95 L18.35 -8.95 16.8 -11.9 Q14.75 -9.45 12.45 -9.45 10.9 -9.45 10.0 -10.4 9.1 -11.4 9.1 -12.95 9.1 -14.5 10.7 -15.6 12.15 -16.5 13.7 -16.5 16.6 -16.5 18.8 -14.55 L18.35 -8.95 M24.9 -31.55 L24.9 -31.55 20.15 -32.2 19.15 -19.55 Q16.05 -21.45 12.65 -21.45 8.15 -21.45 4.95 -18.25 1.8 -15.0 1.8 -10.5 1.8 -6.05 4.6 -3.05 7.4 0.05 11.85 0.05 14.65 0.05 17.7 -1.5 L17.6 0.0 27.65 -1.45 24.9 -31.55" fill-rule="evenodd" stroke="none"/>
    </g>
  </defs>
</svg>
