<?xml version="1.0" encoding="UTF-8" standalone="no"?>
<svg xmlns:xlink="http://www.w3.org/1999/xlink" height="11.2px" width="28.6px" xmlns="http://www.w3.org/2000/svg">
  <g transform="matrix(1.0, 0.0, 0.0, 1.0, -28.25, -2.55)">
    <g transform="matrix(1.0, 0.0, 0.0, 1.0, 0.0, 0.0)">
      <use fill="#ffffff" height="11.2" transform="matrix(0.3125, 0.0, 0.0, 0.3125, 27.0, 13.0)" width="28.6" xlink:href="#font_Chalkboard_H0"/>
      <use fill="#ffffff" height="11.2" transform="matrix(0.3125, 0.0, 0.0, 0.3125, 36.95, 13.0)" width="28.6" xlink:href="#font_Chalkboard_I0"/>
      <use fill="#ffffff" height="11.2" transform="matrix(0.3125, 0.0, 0.0, 0.3125, 44.05, 13.0)" width="28.6" xlink:href="#font_Chalkboard_T0"/>
      <use fill="#ffffff" height="11.2" transform="matrix(0.3125, 0.0, 0.0, 0.3125, 53.15, 13.0)" width="28.6" xlink:href="#font_Chalkboard__0"/>
    </g>
  </g>
  <defs>
    <g id="font_Chalkboard_H0">
      <path d="M30.8 -32.05 L30.8 -32.05 Q30.8 -33.35 30.25 -33.95 29.7 -34.6 28.85 -34.6 L27.65 -34.45 26.5 -34.0 25.65 -33.05 Q25.3 -32.45 25.3 -31.5 L25.3 -18.4 8.35 -18.4 8.35 -32.05 Q8.35 -33.35 7.8 -33.95 7.25 -34.6 6.4 -34.6 L5.2 -34.45 4.05 -34.0 Q3.5 -33.7 3.2 -33.05 2.85 -32.45 2.85 -31.5 L2.85 -2.35 Q2.85 -0.85 3.65 -0.1 4.4 0.6 5.35 0.6 6.4 0.6 7.4 0.0 8.35 -0.6 8.35 -2.35 L8.35 -13.2 25.3 -13.2 25.3 -2.2 Q25.3 -0.65 26.1 0.1 26.85 0.8 27.8 0.8 28.9 0.8 29.85 0.2 30.8 -0.45 30.8 -2.2 L30.8 -13.2 Q32.6 -13.25 33.15 -14.05 33.65 -14.85 33.65 -15.8 33.65 -16.8 33.15 -17.6 32.6 -18.4 30.8 -18.4 L30.8 -32.05" fill-rule="evenodd" stroke="none"/>
    </g>
    <g id="font_Chalkboard_I0">
      <path d="M18.5 -4.8 L18.5 -4.8 16.8 -4.65 15.2 -4.6 15.2 -29.4 19.0 -29.4 Q20.15 -29.6 20.8 -30.25 21.4 -30.9 21.45 -31.6 21.5 -32.3 20.9 -33.0 20.35 -33.65 19.2 -34.0 L6.4 -34.0 Q5.05 -33.95 4.3 -33.25 3.6 -32.6 3.55 -31.75 3.55 -30.95 4.2 -30.25 4.85 -29.55 6.2 -29.4 L10.15 -29.4 10.15 -4.8 8.3 -4.8 6.45 -4.8 Q5.1 -4.75 4.35 -4.05 3.65 -3.4 3.65 -2.55 3.6 -1.75 4.25 -1.05 4.9 -0.35 6.25 -0.2 L12.7 -0.15 19.1 -0.2 Q20.5 -0.45 21.05 -1.25 21.65 -2.0 21.55 -2.8 21.4 -3.6 20.65 -4.2 19.85 -4.85 18.5 -4.8" fill-rule="evenodd" stroke="none"/>
    </g>
    <g id="font_Chalkboard_T0">
      <path d="M28.55 -33.8 L28.55 -33.8 25.95 -33.8 21.55 -33.8 16.25 -33.8 11.0 -33.8 6.6 -33.8 3.95 -33.8 Q2.55 -33.8 1.8 -33.1 1.1 -32.45 1.05 -31.6 1.0 -30.8 1.65 -30.1 2.3 -29.4 3.6 -29.2 L13.45 -29.2 13.5 -1.25 Q13.7 0.0 14.4 0.6 15.15 1.2 16.0 1.2 16.95 1.2 17.7 0.55 18.5 -0.1 18.55 -1.4 L18.5 -29.2 28.2 -29.25 Q29.45 -29.45 30.05 -30.05 30.7 -30.65 30.75 -31.4 30.8 -32.1 30.25 -32.8 29.7 -33.45 28.55 -33.8" fill-rule="evenodd" stroke="none"/>
    </g>
    <g id="font_Chalkboard__0">
      <path d="M4.65 -32.05 L4.65 -32.05 4.65 -12.55 Q4.8 -11.3 5.6 -10.7 6.35 -10.1 7.25 -10.15 8.15 -10.15 8.9 -10.8 9.65 -11.45 9.7 -12.7 L9.7 -32.25 Q9.3 -33.3 8.6 -33.8 7.85 -34.35 7.05 -34.3 6.3 -34.25 5.6 -33.7 4.9 -33.15 4.65 -32.05 L4.65 -32.05 M4.0 -2.85 L4.0 -2.85 Q4.0 -1.6 5.0 -0.7 6.0 0.2 7.35 0.2 8.8 0.2 9.8 -0.7 10.8 -1.6 10.8 -2.85 10.8 -4.15 9.8 -5.1 8.8 -6.0 7.35 -6.0 6.0 -6.0 5.0 -5.1 4.0 -4.15 4.0 -2.85" fill-rule="evenodd" stroke="none"/>
    </g>
  </defs>
</svg>
