<?xml version="1.0" encoding="UTF-8" standalone="no"?>
<svg xmlns:xlink="http://www.w3.org/1999/xlink" height="13.25px" width="109.7px" xmlns="http://www.w3.org/2000/svg">
  <g transform="matrix(1.0, 0.0, 0.0, 1.0, -17.25, -4.55)">
    <g transform="matrix(1.0, 0.0, 0.0, 1.0, 16.3, 0.0)">
      <use fill="#000000" height="13.25" transform="matrix(0.3125, 0.0, 0.0, 0.3125, 0.0, 18.0)" width="109.7" xlink:href="#font_____m0"/>
      <use fill="#000000" height="13.25" transform="matrix(0.3125, 0.0, 0.0, 0.3125, 13.9, 18.0)" width="109.7" xlink:href="#font_____a0"/>
      <use fill="#000000" height="13.25" transform="matrix(0.3125, 0.0, 0.0, 0.3125, 24.0, 18.0)" width="109.7" xlink:href="#font_____i0"/>
      <use fill="#000000" height="13.25" transform="matrix(0.3125, 0.0, 0.0, 0.3125, 29.05, 18.0)" width="109.7" xlink:href="#font_____n0"/>
      <use fill="#000000" height="13.25" transform="matrix(0.3125, 0.0, 0.0, 0.3125, 39.15, 18.0)" width="109.7" xlink:href="#font_____M0"/>
      <use fill="#000000" height="13.25" transform="matrix(0.3125, 0.0, 0.0, 0.3125, 54.25, 18.0)" width="109.7" xlink:href="#font_____u0"/>
      <use fill="#000000" height="13.25" transform="matrix(0.3125, 0.0, 0.0, 0.3125, 64.35, 18.0)" width="109.7" xlink:href="#font_____s0"/>
      <use fill="#000000" height="13.25" transform="matrix(0.3125, 0.0, 0.0, 0.3125, 73.25, 18.0)" width="109.7" xlink:href="#font_____i0"/>
      <use fill="#000000" height="13.25" transform="matrix(0.3125, 0.0, 0.0, 0.3125, 78.3, 18.0)" width="109.7" xlink:href="#font_____c0"/>
      <use fill="#000000" height="13.25" transform="matrix(0.3125, 0.0, 0.0, 0.3125, 87.2, 18.0)" width="109.7" xlink:href="#font_____M0"/>
      <use fill="#000000" height="13.25" transform="matrix(0.3125, 0.0, 0.0, 0.3125, 102.3, 18.0)" width="109.7" xlink:href="#font_____c0"/>
    </g>
  </g>
  <defs>
    <g id="font_____m0">
      <path d="M41.2 -23.05 L41.2 -23.05 Q41.2 -26.4 38.8 -28.45 36.45 -30.55 31.9 -30.6 28.05 -30.5 26.4 -29.45 24.75 -28.4 24.25 -27.7 22.85 -29.45 21.0 -30.05 L17.45 -30.6 Q14.0 -30.55 12.4 -29.65 10.8 -28.8 9.95 -27.75 9.75 -28.55 8.95 -29.5 8.1 -30.5 6.2 -30.6 4.55 -30.55 3.55 -29.6 2.55 -28.65 2.75 -27.2 L3.2 -24.85 3.4 -23.2 3.4 -2.6 Q3.4 -1.55 4.2 -0.4 5.0 0.7 6.65 0.8 9.75 0.55 10.0 -2.55 L10.0 -18.05 Q9.9 -19.2 10.8 -21.35 11.65 -23.55 15.05 -23.8 L17.3 -23.3 Q18.85 -22.7 19.0 -19.95 L19.0 -2.6 Q19.0 -1.6 19.8 -0.45 20.55 0.7 22.25 0.8 25.4 0.5 25.6 -2.55 L25.6 -18.05 Q25.5 -19.2 26.4 -21.35 27.3 -23.55 30.7 -23.8 L32.9 -23.3 Q34.45 -22.7 34.6 -19.95 L34.6 -2.6 Q34.6 -1.6 35.35 -0.45 36.15 0.7 37.85 0.8 40.95 0.6 41.2 -2.55 L41.2 -23.05 41.2 -23.05" fill-rule="evenodd" stroke="none"/>
    </g>
    <g id="font_____a0">
      <path d="M22.2 -10.2 L22.2 -10.2 Q22.2 -8.95 20.3 -7.35 18.35 -5.7 14.75 -5.55 12.25 -5.55 10.65 -6.4 9.05 -7.3 9.0 -9.4 9.3 -12.55 12.0 -13.25 L16.3 -13.8 Q21.9 -13.65 22.2 -12.2 L22.2 -10.2 22.2 -10.2 M28.8 -17.55 L28.8 -17.55 Q28.95 -19.7 28.35 -22.7 27.75 -25.75 25.05 -28.1 22.35 -30.45 16.1 -30.6 11.1 -30.55 7.55 -28.95 4.05 -27.35 3.9 -24.7 4.2 -21.7 7.15 -21.4 L8.3 -21.65 10.95 -23.05 Q12.7 -24.15 15.8 -24.2 20.3 -24.05 21.35 -22.25 22.35 -20.5 22.2 -19.25 21.1 -19.9 16.35 -20.2 8.05 -19.9 5.05 -16.5 2.05 -13.05 2.2 -9.45 2.25 -5.05 5.2 -2.1 8.2 0.9 13.75 1.0 19.2 1.1 23.45 -2.5 23.65 -1.3 24.3 -0.25 24.95 0.85 26.9 0.95 30.15 0.55 30.25 -1.9 L29.75 -4.15 Q28.95 -5.8 28.8 -8.35 L28.8 -17.55 28.8 -17.55" fill-rule="evenodd" stroke="none"/>
    </g>
    <g id="font_____i0">
      <path d="M8.0 -41.2 L8.0 -41.2 Q6.25 -41.15 5.05 -40.0 3.9 -38.85 3.85 -37.1 4.15 -33.4 8.0 -33.0 11.85 -33.35 12.2 -37.1 12.15 -38.9 10.95 -40.0 9.7 -41.15 8.0 -41.2 L8.0 -41.2 M11.4 -27.25 L11.4 -27.25 Q11.4 -28.35 10.6 -29.45 9.8 -30.5 8.2 -30.6 5.15 -30.45 4.8 -27.25 L4.8 -2.5 Q4.8 -1.4 5.6 -0.35 6.4 0.75 8.0 0.8 11.1 0.65 11.4 -2.5 L11.4 -27.25 11.4 -27.25" fill-rule="evenodd" stroke="none"/>
    </g>
    <g id="font_____n0">
      <path d="M28.8 -21.3 L28.8 -21.3 Q28.75 -25.45 26.05 -28.0 23.35 -30.5 18.8 -30.6 14.65 -30.45 12.7 -29.25 L10.15 -27.3 8.9 -29.45 Q8.0 -30.5 6.3 -30.6 3.0 -30.2 3.0 -27.55 L3.2 -24.75 3.4 -21.9 3.4 -2.6 Q3.4 -1.3 4.25 -0.3 5.1 0.75 6.7 0.8 9.7 0.6 10.0 -2.55 L10.0 -17.55 Q10.0 -19.45 11.75 -21.6 13.5 -23.8 17.1 -24.0 20.2 -23.85 21.25 -22.1 22.3 -20.35 22.2 -18.45 L22.2 -2.6 Q22.2 -1.45 23.0 -0.35 23.8 0.75 25.5 0.8 28.5 0.6 28.8 -2.55 L28.8 -21.3 28.8 -21.3" fill-rule="evenodd" stroke="none"/>
    </g>
    <g id="font_____M0">
      <path d="M37.2 -2.65 L37.2 -2.65 Q37.3 -0.9 38.35 -0.05 39.45 0.8 40.8 0.8 42.75 0.7 43.5 -0.4 44.25 -1.55 44.2 -2.55 L44.2 -34.3 Q44.4 -35.45 43.45 -38.25 42.45 -41.05 38.0 -41.4 35.2 -41.25 33.65 -39.5 32.1 -37.7 31.5 -35.6 L24.2 -12.05 16.95 -35.6 Q16.7 -36.85 15.3 -38.9 13.9 -40.95 10.3 -41.2 6.55 -41.0 5.3 -38.65 4.1 -36.3 4.2 -34.15 L4.2 -2.55 Q4.6 0.75 7.8 0.8 9.6 0.75 10.4 -0.35 11.2 -1.45 11.2 -2.65 L11.2 -31.15 18.75 -6.3 Q20.2 -1.6 24.05 -1.8 25.55 -1.65 27.1 -2.45 28.65 -3.25 29.65 -6.3 L37.2 -31.15 37.2 -2.65 37.2 -2.65" fill-rule="evenodd" stroke="none"/>
    </g>
    <g id="font_____u0">
      <path d="M3.4 -8.4 L3.4 -8.4 Q3.5 -4.25 6.15 -1.75 8.85 0.75 13.4 0.8 17.5 0.7 19.5 -0.5 21.45 -1.7 22.0 -2.5 22.45 -1.35 23.35 -0.3 24.2 0.75 25.9 0.8 29.3 0.4 29.2 -2.25 L29.0 -5.0 28.8 -7.85 28.8 -27.2 Q28.8 -28.3 28.0 -29.4 27.2 -30.5 25.6 -30.6 22.45 -30.3 22.2 -27.25 L22.2 -12.25 Q22.2 -10.3 20.45 -8.15 18.7 -5.95 15.15 -5.8 12.0 -5.9 10.95 -7.7 9.95 -9.45 10.0 -11.3 L10.0 -27.2 Q10.0 -28.15 9.25 -29.35 8.45 -30.5 6.75 -30.6 3.75 -30.35 3.4 -27.25 L3.4 -8.4 3.4 -8.4" fill-rule="evenodd" stroke="none"/>
    </g>
    <g id="font_____s0">
      <path d="M14.15 0.8 L14.15 0.8 Q20.6 0.6 23.4 -2.35 26.25 -5.3 26.2 -8.95 26.25 -10.1 25.75 -11.85 25.3 -13.6 23.55 -15.15 22.4 -16.15 20.45 -16.8 18.55 -17.5 12.7 -19.0 9.65 -19.65 9.6 -21.6 9.75 -23.3 11.4 -23.9 13.05 -24.45 14.25 -24.4 17.0 -24.45 19.35 -22.7 21.6 -21.25 22.45 -21.5 24.15 -21.55 24.9 -22.6 25.65 -23.6 25.65 -24.6 25.4 -27.4 21.8 -28.95 18.2 -30.55 14.15 -30.6 8.55 -30.45 5.6 -27.7 2.65 -25.0 2.65 -21.3 2.6 -18.0 5.25 -15.7 7.95 -13.4 14.0 -12.25 L17.65 -11.25 Q19.15 -10.6 19.25 -8.85 19.3 -8.1 18.5 -6.9 17.7 -5.7 15.1 -5.55 12.3 -5.6 10.65 -6.5 9.0 -7.35 7.85 -8.6 L5.9 -10.25 4.45 -10.55 Q1.4 -10.4 1.25 -7.45 1.35 -4.7 4.9 -2.05 8.45 0.6 14.15 0.8 L14.15 0.8" fill-rule="evenodd" stroke="none"/>
    </g>
    <g id="font_____c0">
      <path d="M15.5 -30.6 L15.5 -30.6 Q10.05 -30.45 7.15 -27.8 4.25 -25.15 3.2 -21.5 2.15 -17.9 2.2 -14.85 2.4 -7.1 6.15 -3.05 9.95 1.0 15.2 1.0 20.45 0.7 23.4 -2.2 26.3 -5.15 26.35 -7.1 26.4 -10.0 23.15 -10.4 21.4 -10.5 19.9 -8.35 18.6 -6.65 17.55 -6.2 16.5 -5.75 15.35 -5.8 11.95 -5.95 10.5 -8.75 9.0 -11.55 9.0 -14.75 8.95 -17.8 10.3 -20.7 11.6 -23.6 14.85 -23.8 17.65 -23.9 19.45 -21.15 20.55 -19.6 21.25 -19.2 L22.75 -18.85 Q24.05 -18.85 25.05 -19.7 26.05 -20.55 26.1 -22.3 25.9 -25.75 22.5 -28.1 19.15 -30.5 15.5 -30.6 L15.5 -30.6" fill-rule="evenodd" stroke="none"/>
    </g>
  </defs>
</svg>
