<?xml version="1.0" encoding="UTF-8" standalone="no"?>
<svg xmlns:xlink="http://www.w3.org/1999/xlink" height="25.2px" width="156.7px" xmlns="http://www.w3.org/2000/svg">
  <g transform="matrix(1.0, 0.0, 0.0, 1.0, -61.55, -0.55)">
    <g transform="matrix(1.0, 0.0, 0.0, 1.0, 0.0, 0.0)">
      <use fill="#ff0000" height="25.2" transform="matrix(0.2539, 0.0, 0.0, 0.2539, 78.0, 11.0)" width="156.7" xlink:href="#font_A-OTF_____Pro_501_C0"/>
      <use fill="#ff0000" height="25.2" transform="matrix(0.2539, 0.0, 0.0, 0.2539, 87.85, 11.0)" width="156.7" xlink:href="#font_A-OTF_____Pro_501_l0"/>
      <use fill="#ff0000" height="25.2" transform="matrix(0.2539, 0.0, 0.0, 0.2539, 91.95, 11.0)" width="156.7" xlink:href="#font_A-OTF_____Pro_501_i0"/>
      <use fill="#ff0000" height="25.2" transform="matrix(0.2539, 0.0, 0.0, 0.2539, 96.05, 11.0)" width="156.7" xlink:href="#font_A-OTF_____Pro_501_c0"/>
      <use fill="#ff0000" height="25.2" transform="matrix(0.2539, 0.0, 0.0, 0.2539, 103.3, 11.0)" width="156.7" xlink:href="#font_A-OTF_____Pro_501_k0"/>
      <use fill="#ff0000" height="25.2" transform="matrix(0.2539, 0.0, 0.0, 0.2539, 115.85, 11.0)" width="156.7" xlink:href="#font_A-OTF_____Pro_501_t0"/>
      <use fill="#ff0000" height="25.2" transform="matrix(0.2539, 0.0, 0.0, 0.2539, 121.6, 11.0)" width="156.7" xlink:href="#font_A-OTF_____Pro_501_h0"/>
      <use fill="#ff0000" height="25.2" transform="matrix(0.2539, 0.0, 0.0, 0.2539, 129.8, 11.0)" width="156.7" xlink:href="#font_A-OTF_____Pro_501_e0"/>
      <use fill="#ff0000" height="25.2" transform="matrix(0.2539, 0.0, 0.0, 0.2539, 141.4, 11.0)" width="156.7" xlink:href="#font_A-OTF_____Pro_501_H0"/>
      <use fill="#ff0000" height="25.2" transform="matrix(0.2539, 0.0, 0.0, 0.2539, 151.25, 11.0)" width="156.7" xlink:href="#font_A-OTF_____Pro_501_e0"/>
      <use fill="#ff0000" height="25.2" transform="matrix(0.2539, 0.0, 0.0, 0.2539, 158.5, 11.0)" width="156.7" xlink:href="#font_A-OTF_____Pro_501_l0"/>
      <use fill="#ff0000" height="25.2" transform="matrix(0.2539, 0.0, 0.0, 0.2539, 162.6, 11.0)" width="156.7" xlink:href="#font_A-OTF_____Pro_501_p0"/>
      <use fill="#ff0000" height="25.2" transform="matrix(0.2539, 0.0, 0.0, 0.2539, 175.15, 11.0)" width="156.7" xlink:href="#font_A-OTF_____Pro_501_b0"/>
      <use fill="#ff0000" height="25.2" transform="matrix(0.2539, 0.0, 0.0, 0.2539, 183.35, 11.0)" width="156.7" xlink:href="#font_A-OTF_____Pro_501_u0"/>
      <use fill="#ff0000" height="25.2" transform="matrix(0.2539, 0.0, 0.0, 0.2539, 191.55, 11.0)" width="156.7" xlink:href="#font_A-OTF_____Pro_501_t0"/>
      <use fill="#ff0000" height="25.2" transform="matrix(0.2539, 0.0, 0.0, 0.2539, 197.3, 11.0)" width="156.7" xlink:href="#font_A-OTF_____Pro_501_t0"/>
      <use fill="#ff0000" height="25.2" transform="matrix(0.2539, 0.0, 0.0, 0.2539, 203.05, 11.0)" width="156.7" xlink:href="#font_A-OTF_____Pro_501_o0"/>
      <use fill="#ff0000" height="25.2" transform="matrix(0.2539, 0.0, 0.0, 0.2539, 211.25, 11.0)" width="156.7" xlink:href="#font_A-OTF_____Pro_501_n0"/>
    </g>
    <g transform="matrix(1.0, 0.0, 0.0, 1.0, 0.0, 0.0)">
      <use fill="#ff0000" height="25.2" transform="matrix(0.2539, 0.0, 0.0, 0.2539, 61.0, 24.0)" width="156.7" xlink:href="#font_A-OTF_____Pro_501_t0"/>
      <use fill="#ff0000" height="25.2" transform="matrix(0.2539, 0.0, 0.0, 0.2539, 66.75, 24.0)" width="156.7" xlink:href="#font_A-OTF_____Pro_501_o0"/>
      <use fill="#ff0000" height="25.2" transform="matrix(0.2539, 0.0, 0.0, 0.2539, 79.3, 24.0)" width="156.7" xlink:href="#font_A-OTF_____Pro_501_r0"/>
      <use fill="#ff0000" height="25.2" transform="matrix(0.2539, 0.0, 0.0, 0.2539, 85.8, 24.0)" width="156.7" xlink:href="#font_A-OTF_____Pro_501_e0"/>
      <use fill="#ff0000" height="25.2" transform="matrix(0.2539, 0.0, 0.0, 0.2539, 93.05, 24.0)" width="156.7" xlink:href="#font_A-OTF_____Pro_501_t0"/>
      <use fill="#ff0000" height="25.2" transform="matrix(0.2539, 0.0, 0.0, 0.2539, 98.8, 24.0)" width="156.7" xlink:href="#font_A-OTF_____Pro_501_u0"/>
      <use fill="#ff0000" height="25.2" transform="matrix(0.2539, 0.0, 0.0, 0.2539, 107.0, 24.0)" width="156.7" xlink:href="#font_A-OTF_____Pro_501_r0"/>
      <use fill="#ff0000" height="25.2" transform="matrix(0.2539, 0.0, 0.0, 0.2539, 113.5, 24.0)" width="156.7" xlink:href="#font_A-OTF_____Pro_501_n0"/>
      <use fill="#ff0000" height="25.2" transform="matrix(0.2539, 0.0, 0.0, 0.2539, 126.05, 24.0)" width="156.7" xlink:href="#font_A-OTF_____Pro_501_t0"/>
      <use fill="#ff0000" height="25.2" transform="matrix(0.2539, 0.0, 0.0, 0.2539, 131.8, 24.0)" width="156.7" xlink:href="#font_A-OTF_____Pro_501_o0"/>
      <use fill="#ff0000" height="25.2" transform="matrix(0.2539, 0.0, 0.0, 0.2539, 144.35, 24.0)" width="156.7" xlink:href="#font_A-OTF_____Pro_501_y0"/>
      <use fill="#ff0000" height="25.2" transform="matrix(0.2539, 0.0, 0.0, 0.2539, 152.55, 24.0)" width="156.7" xlink:href="#font_A-OTF_____Pro_501_o0"/>
      <use fill="#ff0000" height="25.2" transform="matrix(0.2539, 0.0, 0.0, 0.2539, 160.75, 24.0)" width="156.7" xlink:href="#font_A-OTF_____Pro_501_u0"/>
      <use fill="#ff0000" height="25.2" transform="matrix(0.2539, 0.0, 0.0, 0.2539, 168.95, 24.0)" width="156.7" xlink:href="#font_A-OTF_____Pro_501_r0"/>
      <use fill="#ff0000" height="25.2" transform="matrix(0.2539, 0.0, 0.0, 0.2539, 179.8, 24.0)" width="156.7" xlink:href="#font_A-OTF_____Pro_501_g0"/>
      <use fill="#ff0000" height="25.2" transform="matrix(0.2539, 0.0, 0.0, 0.2539, 188.0, 24.0)" width="156.7" xlink:href="#font_A-OTF_____Pro_501_a0"/>
      <use fill="#ff0000" height="25.2" transform="matrix(0.2539, 0.0, 0.0, 0.2539, 196.2, 24.0)" width="156.7" xlink:href="#font_A-OTF_____Pro_501_m0"/>
      <use fill="#ff0000" height="25.2" transform="matrix(0.2539, 0.0, 0.0, 0.2539, 207.5, 24.0)" width="156.7" xlink:href="#font_A-OTF_____Pro_501_e0"/>
      <use fill="#ff0000" height="25.2" transform="matrix(0.2539, 0.0, 0.0, 0.2539, 214.75, 24.0)" width="156.7" xlink:href="#font_A-OTF_____Pro_501_.0"/>
    </g>
  </g>
  <defs>
    <g id="font_A-OTF_____Pro_501_C0">
      <path d="M21.2 -41.2 L21.2 -41.2 Q11.65 -40.9 7.0 -34.7 2.4 -28.5 2.4 -20.1 2.4 -15.35 4.15 -10.55 5.9 -5.8 10.05 -2.55 14.2 0.7 21.25 0.8 27.55 0.65 30.9 -1.75 34.3 -4.2 35.55 -6.95 36.8 -9.7 36.75 -10.95 36.5 -13.8 33.15 -14.1 31.6 -14.1 30.85 -13.3 30.1 -12.55 29.5 -11.35 28.6 -9.5 26.8 -8.05 25.0 -6.65 21.2 -6.6 14.4 -7.0 12.1 -11.55 9.85 -16.1 10.0 -20.15 9.9 -21.65 10.55 -24.85 11.15 -28.1 13.6 -30.85 16.1 -33.6 21.5 -33.8 25.55 -33.75 27.3 -32.3 29.1 -30.85 30.15 -28.8 30.4 -27.6 33.1 -27.25 36.45 -27.35 36.75 -30.75 36.7 -33.9 32.75 -37.4 28.75 -40.9 21.2 -41.2 L21.2 -41.2" fill-rule="evenodd" stroke="none"/>
    </g>
    <g id="font_A-OTF_____Pro_501_l0">
      <path d="M4.8 -2.6 L4.8 -2.6 Q5.1 0.55 8.25 0.8 9.9 0.7 10.65 -0.4 11.4 -1.5 11.4 -2.5 L11.4 -37.85 Q11.2 -40.85 8.05 -41.2 5.05 -40.8 4.8 -37.75 L4.8 -2.6 4.8 -2.6" fill-rule="evenodd" stroke="none"/>
    </g>
    <g id="font_A-OTF_____Pro_501_i0">
      <path d="M8.0 -41.2 L8.0 -41.2 Q6.25 -41.15 5.05 -40.0 3.9 -38.85 3.85 -37.1 4.15 -33.4 8.0 -33.0 11.85 -33.35 12.2 -37.1 12.15 -38.9 10.95 -40.0 9.7 -41.15 8.0 -41.2 L8.0 -41.2 M11.4 -27.25 L11.4 -27.25 Q11.4 -28.35 10.6 -29.45 9.8 -30.5 8.2 -30.6 5.15 -30.45 4.8 -27.25 L4.8 -2.5 Q4.8 -1.4 5.6 -0.35 6.4 0.75 8.0 0.8 11.1 0.65 11.4 -2.5 L11.4 -27.25 11.4 -27.25" fill-rule="evenodd" stroke="none"/>
    </g>
    <g id="font_A-OTF_____Pro_501_c0">
      <path d="M15.5 -30.6 L15.5 -30.6 Q10.05 -30.45 7.15 -27.8 4.25 -25.15 3.2 -21.5 2.15 -17.9 2.2 -14.85 2.4 -7.1 6.15 -3.05 9.95 1.0 15.2 1.0 20.45 0.7 23.4 -2.2 26.3 -5.15 26.35 -7.1 26.4 -10.0 23.15 -10.4 21.4 -10.5 19.9 -8.35 18.6 -6.65 17.55 -6.2 16.5 -5.75 15.35 -5.8 11.95 -5.95 10.5 -8.75 9.0 -11.55 9.0 -14.75 8.95 -17.8 10.3 -20.7 11.6 -23.6 14.85 -23.8 17.65 -23.9 19.45 -21.15 20.55 -19.6 21.25 -19.2 L22.75 -18.85 Q24.05 -18.85 25.05 -19.7 26.05 -20.55 26.1 -22.3 25.9 -25.75 22.5 -28.1 19.15 -30.5 15.5 -30.6 L15.5 -30.6" fill-rule="evenodd" stroke="none"/>
    </g>
    <g id="font_A-OTF_____Pro_501_k0">
      <path d="M10.0 -17.25 L10.0 -17.25 10.0 -38.0 Q10.05 -39.05 9.25 -40.1 8.5 -41.1 6.8 -41.2 5.5 -41.15 4.5 -40.3 3.45 -39.45 3.4 -37.9 L3.4 -2.45 Q3.65 0.55 6.65 0.8 9.7 0.7 10.0 -2.35 L10.0 -8.45 15.2 -12.9 Q17.25 -13.1 18.65 -10.65 L24.35 -1.35 Q25.15 0.75 27.7 1.0 30.55 0.65 30.85 -2.25 30.7 -3.6 30.3 -4.15 L23.55 -14.75 22.5 -16.0 Q21.7 -16.95 20.25 -17.35 L29.1 -24.95 Q30.1 -25.7 30.15 -27.5 29.8 -30.3 26.6 -30.6 24.65 -30.35 24.3 -29.75 L10.0 -17.25 10.0 -17.25" fill-rule="evenodd" stroke="none"/>
    </g>
    <g id="font_A-OTF_____Pro_501_t0">
      <path d="M6.4 -23.6 L6.4 -23.6 6.4 -7.7 Q6.2 -5.7 7.35 -2.65 8.5 0.45 13.3 0.8 17.85 0.45 20.0 -2.75 22.2 -5.9 22.2 -7.9 22.2 -9.05 21.4 -10.05 20.55 -11.1 18.95 -11.2 17.4 -11.55 15.85 -8.45 14.85 -6.25 13.85 -6.35 12.65 -6.7 12.8 -7.95 L12.8 -23.6 18.85 -23.6 Q19.75 -23.6 20.7 -24.3 21.65 -25.05 21.7 -26.65 21.55 -29.45 18.85 -29.8 L12.8 -29.8 12.8 -35.4 Q12.8 -36.5 12.05 -37.45 11.3 -38.45 9.7 -38.55 6.8 -38.45 6.4 -35.35 L6.4 -29.8 4.0 -29.8 Q3.0 -29.75 2.1 -29.0 1.2 -28.2 1.15 -26.75 1.15 -25.55 1.9 -24.6 2.65 -23.65 4.0 -23.6 L6.4 -23.6 6.4 -23.6" fill-rule="evenodd" stroke="none"/>
    </g>
    <g id="font_A-OTF_____Pro_501_h0">
      <path d="M28.8 -20.8 L28.8 -20.8 Q28.65 -25.7 25.4 -28.15 22.15 -30.6 18.0 -30.6 L14.75 -30.15 Q12.4 -29.55 10.0 -26.95 L10.0 -37.8 Q10.0 -38.85 9.25 -40.0 8.45 -41.1 6.8 -41.2 3.65 -40.85 3.4 -37.75 L3.4 -2.6 Q3.4 -1.65 4.15 -0.45 4.9 0.7 6.6 0.8 9.75 0.55 10.0 -2.55 L10.0 -16.2 Q10.0 -18.45 11.75 -21.0 13.5 -23.55 17.25 -23.8 20.5 -23.6 21.4 -21.75 22.3 -19.9 22.2 -18.75 L22.2 -2.6 Q22.2 -1.6 23.0 -0.45 23.75 0.7 25.45 0.8 28.55 0.6 28.8 -2.55 L28.8 -20.8 28.8 -20.8" fill-rule="evenodd" stroke="none"/>
    </g>
    <g id="font_A-OTF_____Pro_501_e0">
      <path d="M9.2 -18.6 L9.2 -18.6 Q9.3 -19.65 10.35 -21.8 11.45 -23.95 14.6 -24.2 17.35 -24.0 18.5 -22.25 19.65 -20.55 19.6 -19.2 19.75 -18.6 18.3 -18.6 L9.2 -18.6 9.2 -18.6 M22.5 -12.4 L22.5 -12.4 Q26.4 -12.5 26.2 -18.25 26.1 -23.65 22.8 -27.05 19.5 -30.5 14.55 -30.6 10.0 -30.7 6.25 -26.95 2.45 -23.2 2.2 -14.4 2.6 -5.0 6.95 -2.0 11.25 1.05 14.95 0.8 19.75 0.65 22.75 -1.75 25.75 -4.15 25.85 -7.15 25.85 -8.4 25.1 -9.4 24.3 -10.35 22.95 -10.4 21.15 -10.65 19.6 -8.25 17.45 -5.25 15.2 -5.6 11.25 -5.85 10.15 -8.35 9.05 -10.85 9.05 -12.4 L22.5 -12.4 22.5 -12.4" fill-rule="evenodd" stroke="none"/>
    </g>
    <g id="font_A-OTF_____Pro_501_H0">
      <path d="M27.6 -17.8 L27.6 -17.8 27.6 -2.8 Q28.0 0.55 31.3 0.8 34.65 0.4 34.8 -2.8 L34.8 -37.55 Q34.55 -40.85 31.1 -41.2 27.8 -40.8 27.6 -37.55 L27.6 -25.0 11.2 -25.0 11.2 -37.55 Q10.85 -40.95 7.5 -41.2 4.2 -40.8 4.0 -37.55 L4.0 -2.8 Q4.35 0.55 7.7 0.8 9.45 0.7 10.35 -0.5 11.2 -1.7 11.2 -2.8 L11.2 -17.8 27.6 -17.8 27.6 -17.8" fill-rule="evenodd" stroke="none"/>
    </g>
    <g id="font_A-OTF_____Pro_501_p0">
      <path d="M10.0 -16.5 L10.0 -16.5 Q10.0 -19.05 11.6 -21.25 13.2 -23.45 16.65 -23.6 19.6 -23.65 21.15 -22.15 22.45 -20.85 22.95 -18.85 23.45 -16.85 23.4 -15.1 23.3 -9.35 21.3 -7.6 19.35 -5.8 16.9 -6.0 12.3 -6.25 11.1 -8.85 9.85 -11.4 10.0 -12.9 L10.0 -16.5 10.0 -16.5 M3.4 3.45 L3.4 3.45 Q3.65 6.4 6.85 6.75 8.5 6.65 9.25 5.5 10.0 4.4 10.0 3.35 L10.0 -1.8 Q12.25 0.1 14.6 0.5 L17.8 0.8 Q24.35 0.6 27.25 -3.95 30.1 -8.55 30.0 -14.65 30.05 -20.9 27.1 -25.6 24.1 -30.3 17.4 -30.55 13.85 -30.5 12.2 -29.4 10.5 -28.3 9.55 -27.05 9.45 -28.45 8.7 -29.5 8.0 -30.5 6.2 -30.55 4.2 -30.5 3.75 -29.35 3.35 -28.2 3.4 -26.95 L3.4 3.45 3.4 3.45" fill-rule="evenodd" stroke="none"/>
    </g>
    <g id="font_A-OTF_____Pro_501_b0">
      <path d="M10.0 -16.85 L10.0 -16.85 Q9.85 -18.35 11.1 -20.9 12.3 -23.5 16.9 -23.8 19.3 -23.95 21.3 -22.2 23.3 -20.45 23.4 -14.6 23.45 -10.7 21.85 -8.4 20.25 -6.05 16.65 -6.0 13.2 -6.15 11.6 -8.4 10.0 -10.65 10.0 -13.2 L10.0 -16.85 10.0 -16.85 M3.4 -2.75 L3.4 -2.75 Q3.35 -1.5 3.75 -0.4 4.2 0.75 6.2 0.8 9.55 0.4 9.55 -2.65 10.5 -1.4 12.2 -0.35 13.85 0.75 17.4 0.8 24.1 0.6 27.1 -4.1 30.05 -8.8 30.0 -15.05 30.1 -21.25 27.25 -25.8 24.35 -30.35 17.8 -30.6 L14.6 -30.25 Q12.25 -29.85 10.0 -27.95 L10.0 -37.85 Q10.0 -38.85 9.25 -39.95 8.5 -41.1 6.85 -41.2 3.65 -40.85 3.4 -37.9 L3.4 -2.75 3.4 -2.75" fill-rule="evenodd" stroke="none"/>
    </g>
    <g id="font_A-OTF_____Pro_501_u0">
      <path d="M3.4 -8.4 L3.4 -8.4 Q3.5 -4.25 6.15 -1.75 8.85 0.75 13.4 0.8 17.5 0.7 19.5 -0.5 21.45 -1.7 22.0 -2.5 22.45 -1.35 23.35 -0.3 24.2 0.75 25.9 0.8 29.3 0.4 29.2 -2.25 L29.0 -5.0 28.8 -7.85 28.8 -27.2 Q28.8 -28.3 28.0 -29.4 27.2 -30.5 25.6 -30.6 22.45 -30.3 22.2 -27.25 L22.2 -12.25 Q22.2 -10.3 20.45 -8.15 18.7 -5.95 15.15 -5.8 12.0 -5.9 10.95 -7.7 9.95 -9.45 10.0 -11.3 L10.0 -27.2 Q10.0 -28.15 9.25 -29.35 8.45 -30.5 6.75 -30.6 3.75 -30.35 3.4 -27.25 L3.4 -8.4 3.4 -8.4" fill-rule="evenodd" stroke="none"/>
    </g>
    <g id="font_A-OTF_____Pro_501_o0">
      <path d="M16.1 -23.8 L16.1 -23.8 Q20.8 -23.45 22.1 -20.3 23.4 -17.1 23.2 -14.85 23.4 -12.65 22.1 -9.5 20.8 -6.3 16.1 -6.0 11.4 -6.3 10.1 -9.5 8.85 -12.65 9.0 -14.85 8.85 -17.1 10.15 -20.3 11.4 -23.45 16.1 -23.8 L16.1 -23.8 M16.1 -30.6 L16.1 -30.6 Q8.05 -30.25 5.05 -25.2 2.05 -20.2 2.2 -14.85 2.05 -9.55 5.05 -4.55 8.05 0.45 16.1 0.8 24.2 0.45 27.15 -4.55 30.15 -9.55 30.0 -14.85 30.15 -20.2 27.15 -25.2 24.2 -30.2 16.1 -30.6 L16.1 -30.6" fill-rule="evenodd" stroke="none"/>
    </g>
    <g id="font_A-OTF_____Pro_501_n0">
      <path d="M28.8 -21.3 L28.8 -21.3 Q28.75 -25.45 26.05 -28.0 23.35 -30.5 18.8 -30.6 14.65 -30.45 12.7 -29.25 L10.15 -27.3 8.9 -29.45 Q8.0 -30.5 6.3 -30.6 3.0 -30.2 3.0 -27.55 L3.2 -24.75 3.4 -21.9 3.4 -2.6 Q3.4 -1.3 4.25 -0.3 5.1 0.75 6.7 0.8 9.7 0.6 10.0 -2.55 L10.0 -17.55 Q10.0 -19.45 11.75 -21.6 13.5 -23.8 17.1 -24.0 20.2 -23.85 21.25 -22.1 22.3 -20.35 22.2 -18.45 L22.2 -2.6 Q22.2 -1.45 23.0 -0.35 23.8 0.75 25.5 0.8 28.5 0.6 28.8 -2.55 L28.8 -21.3 28.8 -21.3" fill-rule="evenodd" stroke="none"/>
    </g>
    <g id="font_A-OTF_____Pro_501_r0">
      <path d="M10.4 -14.95 L10.4 -14.95 Q10.45 -15.7 11.7 -17.8 12.95 -19.9 14.75 -21.8 16.6 -23.65 18.45 -23.8 L20.05 -23.6 21.75 -23.4 Q24.65 -23.65 24.7 -26.5 24.55 -28.7 22.65 -29.65 20.75 -30.6 18.75 -30.6 17.8 -30.75 15.3 -29.95 12.8 -29.15 10.4 -25.55 L10.4 -27.15 Q10.25 -29.6 8.95 -30.15 L7.1 -30.6 Q4.05 -30.45 3.8 -27.45 L3.8 -2.25 Q3.8 -1.2 4.55 -0.25 5.35 0.75 7.15 0.8 8.4 0.8 9.35 0.1 10.35 -0.65 10.4 -2.1 L10.4 -14.95 10.4 -14.95" fill-rule="evenodd" stroke="none"/>
    </g>
    <g id="font_A-OTF_____Pro_501_y0">
      <path d="M10.7 -8.65 L10.7 -8.65 Q11.55 -6.95 12.25 -6.25 12.95 -5.55 14.4 -5.15 12.55 0.15 9.75 -0.15 L8.0 -0.35 4.5 -1.1 Q3.65 -1.1 2.6 -0.35 1.55 0.45 1.45 2.2 1.45 6.55 9.6 6.8 12.55 6.9 15.05 5.6 17.55 4.25 19.3 0.35 L30.35 -25.3 30.8 -27.15 Q30.7 -29.35 29.55 -30.1 28.35 -30.85 27.4 -30.8 25.8 -30.7 25.05 -29.8 24.35 -28.95 24.2 -28.55 L17.15 -12.3 Q16.3 -12.05 15.35 -14.3 L7.85 -28.7 Q7.2 -30.5 4.65 -30.6 3.65 -30.6 2.55 -29.7 1.5 -28.85 1.4 -27.1 1.35 -26.35 1.95 -24.95 L10.7 -8.65 10.7 -8.65" fill-rule="evenodd" stroke="none"/>
    </g>
    <g id="font_A-OTF_____Pro_501_g0">
      <path d="M10.2 -22.1 L10.2 -22.1 Q10.45 -24.1 12.7 -24.55 L16.1 -25.0 19.35 -24.65 Q21.7 -24.2 22.0 -22.1 21.75 -20.1 19.4 -19.6 L16.05 -19.2 12.95 -19.55 Q10.55 -20.0 10.2 -22.1 L10.2 -22.1 M13.15 -13.75 L13.15 -13.75 15.9 -13.6 Q22.6 -13.75 25.55 -16.3 28.45 -18.9 28.4 -22.05 28.3 -24.05 27.8 -24.95 L29.85 -26.55 Q30.75 -27.15 30.75 -28.7 30.6 -31.05 27.6 -31.45 26.8 -31.5 26.0 -31.0 L23.3 -29.25 Q22.0 -30.25 16.15 -30.6 10.35 -30.5 7.1 -28.2 3.85 -25.85 3.8 -22.1 3.9 -19.25 5.2 -17.8 6.45 -16.35 7.55 -15.75 L5.2 -10.65 Q4.5 -9.35 4.5 -7.95 4.7 -5.2 6.4 -4.6 8.05 -4.0 8.8 -4.1 L10.15 -4.25 11.7 -4.85 Q13.6 -5.9 17.4 -6.2 19.75 -6.2 21.55 -5.25 23.35 -4.3 23.4 -2.55 23.35 -0.55 21.5 0.15 19.6 0.85 17.0 0.8 12.2 0.7 9.85 -0.35 7.55 -1.45 6.9 -2.15 6.2 -2.85 5.05 -2.85 3.6 -2.8 2.85 -1.85 2.15 -0.9 2.1 0.2 2.05 2.25 5.7 4.45 9.35 6.65 17.3 6.8 L22.8 6.15 Q25.55 5.5 27.6 3.6 30.15 0.9 30.2 -2.45 30.3 -5.35 27.8 -8.35 25.25 -11.35 18.7 -11.55 L14.9 -11.2 11.75 -10.35 13.15 -13.75 13.15 -13.75" fill-rule="evenodd" stroke="none"/>
    </g>
    <g id="font_A-OTF_____Pro_501_a0">
      <path d="M22.2 -10.2 L22.2 -10.2 Q22.2 -8.95 20.3 -7.35 18.35 -5.7 14.75 -5.55 12.25 -5.55 10.65 -6.4 9.05 -7.3 9.0 -9.4 9.3 -12.55 12.0 -13.25 L16.3 -13.8 Q21.9 -13.65 22.2 -12.2 L22.2 -10.2 22.2 -10.2 M28.8 -17.55 L28.8 -17.55 Q28.95 -19.7 28.35 -22.7 27.75 -25.75 25.05 -28.1 22.35 -30.45 16.1 -30.6 11.1 -30.55 7.55 -28.95 4.05 -27.35 3.9 -24.7 4.2 -21.7 7.15 -21.4 L8.3 -21.65 10.95 -23.05 Q12.7 -24.15 15.8 -24.2 20.3 -24.05 21.35 -22.25 22.35 -20.5 22.2 -19.25 21.1 -19.9 16.35 -20.2 8.05 -19.9 5.05 -16.5 2.05 -13.05 2.2 -9.45 2.25 -5.05 5.2 -2.1 8.2 0.9 13.75 1.0 19.2 1.1 23.45 -2.5 23.65 -1.3 24.3 -0.25 24.95 0.85 26.9 0.95 30.15 0.55 30.25 -1.9 L29.75 -4.15 Q28.95 -5.8 28.8 -8.35 L28.8 -17.55 28.8 -17.55" fill-rule="evenodd" stroke="none"/>
    </g>
    <g id="font_A-OTF_____Pro_501_m0">
      <path d="M41.2 -23.05 L41.2 -23.05 Q41.2 -26.4 38.8 -28.45 36.45 -30.55 31.9 -30.6 28.05 -30.5 26.4 -29.45 24.75 -28.4 24.25 -27.7 22.85 -29.45 21.0 -30.05 L17.45 -30.6 Q14.0 -30.55 12.4 -29.65 10.8 -28.8 9.95 -27.75 9.75 -28.55 8.95 -29.5 8.1 -30.5 6.2 -30.6 4.55 -30.55 3.55 -29.6 2.55 -28.65 2.75 -27.2 L3.2 -24.85 3.4 -23.2 3.4 -2.6 Q3.4 -1.55 4.2 -0.4 5.0 0.7 6.65 0.8 9.75 0.55 10.0 -2.55 L10.0 -18.05 Q9.9 -19.2 10.8 -21.35 11.65 -23.55 15.05 -23.8 L17.3 -23.3 Q18.85 -22.7 19.0 -19.95 L19.0 -2.6 Q19.0 -1.6 19.8 -0.45 20.55 0.7 22.25 0.8 25.4 0.5 25.6 -2.55 L25.6 -18.05 Q25.5 -19.2 26.4 -21.35 27.3 -23.55 30.7 -23.8 L32.9 -23.3 Q34.45 -22.7 34.6 -19.95 L34.6 -2.6 Q34.6 -1.6 35.35 -0.45 36.15 0.7 37.85 0.8 40.95 0.6 41.2 -2.55 L41.2 -23.05 41.2 -23.05" fill-rule="evenodd" stroke="none"/>
    </g>
    <g id="font_A-OTF_____Pro_501_.0">
      <path d="M8.0 -8.75 L8.0 -8.75 Q6.0 -8.7 4.65 -7.4 3.3 -6.05 3.25 -4.0 3.3 -1.95 4.6 -0.6 5.95 0.75 8.0 0.8 10.0 0.75 11.4 -0.6 12.75 -1.95 12.8 -4.0 12.75 -6.05 11.4 -7.4 10.0 -8.7 8.0 -8.75 L8.0 -8.75" fill-rule="evenodd" stroke="none"/>
    </g>
  </defs>
</svg>
