<?xml version="1.0" encoding="UTF-8" standalone="no"?>
<svg xmlns:xlink="http://www.w3.org/1999/xlink" height="9.0px" width="42.55px" xmlns="http://www.w3.org/2000/svg">
  <g transform="matrix(1.0, 0.0, 0.0, 1.0, -0.55, -7.75)">
    <g transform="matrix(1.0, 0.0, 0.0, 1.0, 0.0, 0.0)">
      <use fill="#000000" height="9.0" transform="matrix(0.2344, 0.0, 0.0, 0.2344, 0.0, 15.0)" width="42.55" xlink:href="#font_____c0"/>
      <use fill="#000000" height="9.0" transform="matrix(0.2344, 0.0, 0.0, 0.2344, 6.65, 15.0)" width="42.55" xlink:href="#font_____o0"/>
      <use fill="#000000" height="9.0" transform="matrix(0.2344, 0.0, 0.0, 0.2344, 14.2, 15.0)" width="42.55" xlink:href="#font_____n0"/>
      <use fill="#000000" height="9.0" transform="matrix(0.2344, 0.0, 0.0, 0.2344, 21.75, 15.0)" width="42.55" xlink:href="#font_____g0"/>
      <use fill="#000000" height="9.0" transform="matrix(0.2344, 0.0, 0.0, 0.2344, 29.3, 15.0)" width="42.55" xlink:href="#font_____r0"/>
      <use fill="#000000" height="9.0" transform="matrix(0.2344, 0.0, 0.0, 0.2344, 35.3, 15.0)" width="42.55" xlink:href="#font_____a0"/>
    </g>
  </g>
  <defs>
    <g id="font_____c0">
      <path d="M17.05 -30.6 L17.05 -30.6 Q11.05 -30.45 7.85 -27.8 4.65 -25.15 3.5 -21.5 2.35 -17.9 2.45 -14.85 2.65 -7.1 6.8 -3.05 10.95 1.0 16.75 1.0 22.5 0.7 25.75 -2.2 28.95 -5.15 29.0 -7.1 29.05 -10.0 25.45 -10.4 23.55 -10.5 21.9 -8.35 20.45 -6.65 19.3 -6.2 18.15 -5.75 16.9 -5.8 13.15 -5.95 11.5 -8.75 9.9 -11.55 9.9 -14.75 9.85 -17.8 11.3 -20.7 12.75 -23.6 16.35 -23.8 19.4 -23.9 21.4 -21.15 22.6 -19.6 23.4 -19.2 L25.0 -18.85 Q26.45 -18.85 27.55 -19.7 28.65 -20.55 28.7 -22.3 28.45 -25.75 24.75 -28.1 21.1 -30.5 17.05 -30.6 L17.05 -30.6" fill-rule="evenodd" stroke="none"/>
    </g>
    <g id="font_____o0">
      <path d="M17.7 -23.8 L17.7 -23.8 Q22.9 -23.45 24.3 -20.3 25.7 -17.1 25.55 -14.85 25.7 -12.65 24.3 -9.5 22.9 -6.3 17.7 -6.0 12.5 -6.3 11.1 -9.5 9.75 -12.65 9.9 -14.85 9.75 -17.1 11.15 -20.3 12.55 -23.45 17.7 -23.8 L17.7 -23.8 M17.7 -30.6 L17.7 -30.6 Q8.85 -30.25 5.55 -25.2 2.25 -20.2 2.45 -14.85 2.25 -9.55 5.55 -4.55 8.85 0.45 17.7 0.8 26.6 0.45 29.9 -4.55 33.2 -9.55 33.0 -14.85 33.2 -20.2 29.9 -25.2 26.6 -30.2 17.7 -30.6 L17.7 -30.6" fill-rule="evenodd" stroke="none"/>
    </g>
    <g id="font_____n0">
      <path d="M31.7 -21.3 L31.7 -21.3 Q31.6 -25.45 28.65 -28.0 25.65 -30.5 20.7 -30.6 16.15 -30.45 13.95 -29.25 11.8 -28.05 11.2 -27.3 L9.8 -29.45 Q8.8 -30.5 6.95 -30.6 3.3 -30.2 3.3 -27.55 L3.55 -24.75 3.75 -21.9 3.75 -2.6 Q3.75 -1.3 4.7 -0.3 5.65 0.75 7.4 0.8 10.7 0.6 11.0 -2.55 L11.0 -17.55 Q11.0 -19.45 12.95 -21.6 14.85 -23.8 18.8 -24.0 22.2 -23.85 23.35 -22.1 24.5 -20.35 24.45 -18.45 L24.45 -2.6 Q24.45 -1.45 25.3 -0.35 26.2 0.75 28.05 0.8 31.35 0.6 31.7 -2.55 L31.7 -21.3 31.7 -21.3" fill-rule="evenodd" stroke="none"/>
    </g>
    <g id="font_____g0">
      <path d="M11.25 -22.1 L11.25 -22.1 Q11.5 -24.1 14.0 -24.55 L17.75 -25.0 21.3 -24.65 Q23.9 -24.2 24.2 -22.1 23.9 -20.1 21.35 -19.6 L17.65 -19.2 14.2 -19.55 Q11.6 -20.0 11.25 -22.1 L11.25 -22.1 M14.5 -13.75 L14.5 -13.75 17.5 -13.6 Q24.85 -13.75 28.1 -16.3 31.3 -18.9 31.25 -22.05 31.1 -24.05 30.55 -24.95 L32.85 -26.55 Q33.85 -27.15 33.85 -28.7 33.65 -31.05 30.35 -31.45 29.45 -31.5 28.6 -31.0 L25.65 -29.25 Q24.2 -30.25 17.8 -30.6 11.4 -30.5 7.85 -28.2 4.25 -25.85 4.2 -22.1 4.3 -19.25 5.7 -17.8 7.1 -16.35 8.3 -15.75 L5.75 -10.65 Q4.95 -9.35 4.95 -7.95 5.15 -5.2 7.0 -4.6 8.9 -4.0 9.7 -4.1 L11.15 -4.25 12.85 -4.85 Q15.0 -5.9 19.1 -6.2 21.75 -6.2 23.7 -5.25 25.65 -4.3 25.75 -2.55 25.65 -0.55 23.6 0.15 L18.7 0.8 Q13.4 0.7 10.85 -0.35 8.3 -1.45 7.6 -2.15 6.85 -2.85 5.55 -2.85 4.0 -2.8 3.15 -1.85 2.35 -0.9 2.35 0.2 2.25 2.25 6.25 4.45 10.25 6.65 19.05 6.8 L25.1 6.15 Q28.15 5.5 30.4 3.6 33.15 0.9 33.25 -2.45 33.35 -5.35 30.55 -8.35 27.75 -11.35 20.55 -11.55 L16.4 -11.2 12.95 -10.35 14.5 -13.75 14.5 -13.75" fill-rule="evenodd" stroke="none"/>
    </g>
    <g id="font_____r0">
      <path d="M11.45 -14.95 L11.45 -14.95 Q11.5 -15.7 12.85 -17.8 14.25 -19.9 16.25 -21.8 18.25 -23.65 20.3 -23.8 L22.05 -23.6 23.9 -23.4 Q27.1 -23.65 27.15 -26.5 27.0 -28.7 24.9 -29.65 22.8 -30.6 20.65 -30.6 19.6 -30.75 16.85 -29.95 14.1 -29.15 11.45 -25.55 L11.45 -27.15 Q11.25 -29.6 9.85 -30.15 L7.8 -30.6 Q4.5 -30.45 4.2 -27.45 L4.2 -2.25 Q4.15 -1.2 5.0 -0.25 5.85 0.75 7.9 0.8 9.2 0.8 10.3 0.1 11.4 -0.65 11.45 -2.1 L11.45 -14.95 11.45 -14.95" fill-rule="evenodd" stroke="none"/>
    </g>
    <g id="font_____a0">
      <path d="M24.45 -10.2 L24.45 -10.2 Q24.4 -8.95 22.3 -7.35 20.2 -5.7 16.25 -5.55 13.45 -5.55 11.7 -6.4 9.95 -7.3 9.9 -9.4 10.25 -12.55 13.2 -13.25 L17.95 -13.8 Q24.1 -13.65 24.45 -12.2 L24.45 -10.2 24.45 -10.2 M31.7 -17.55 L31.7 -17.55 Q31.8 -19.7 31.15 -22.7 30.55 -25.75 27.55 -28.1 24.6 -30.45 17.7 -30.6 12.2 -30.55 8.3 -28.95 4.45 -27.35 4.25 -24.7 4.6 -21.7 7.85 -21.4 L9.15 -21.65 12.05 -23.05 Q14.0 -24.15 17.4 -24.2 22.35 -24.05 23.45 -22.25 24.6 -20.5 24.45 -19.25 23.2 -19.9 18.0 -20.2 8.85 -19.9 5.55 -16.5 2.25 -13.05 2.45 -9.45 2.45 -5.05 5.75 -2.1 9.0 0.9 15.1 1.0 21.15 1.1 25.8 -2.5 26.0 -1.3 26.75 -0.25 27.45 0.85 29.6 0.95 33.2 0.55 33.25 -1.9 33.3 -2.7 32.7 -4.15 31.8 -5.8 31.7 -8.35 L31.7 -17.55 31.7 -17.55" fill-rule="evenodd" stroke="none"/>
    </g>
  </defs>
</svg>
