<?xml version="1.0" encoding="UTF-8" standalone="no"?>
<svg xmlns:xlink="http://www.w3.org/1999/xlink" height="9.9px" width="65.8px" xmlns="http://www.w3.org/2000/svg">
  <g transform="matrix(1.0, 0.0, 0.0, 1.0, -53.25, -1.35)">
    <g transform="matrix(1.0, 0.0, 0.0, 1.0, 0.0, 0.0)">
      <use fill="#ffffff" height="9.9" transform="matrix(0.2344, 0.0, 0.0, 0.2344, 53.0, 11.0)" width="65.8" xlink:href="#font_A-OTF_____Pro_501_S0"/>
      <use fill="#ffffff" height="9.9" transform="matrix(0.2344, 0.0, 0.0, 0.2344, 61.2, 11.0)" width="65.8" xlink:href="#font_A-OTF_____Pro_501_t0"/>
      <use fill="#ffffff" height="9.9" transform="matrix(0.2344, 0.0, 0.0, 0.2344, 66.55, 11.0)" width="65.8" xlink:href="#font_A-OTF_____Pro_501_a0"/>
      <use fill="#ffffff" height="9.9" transform="matrix(0.2344, 0.0, 0.0, 0.2344, 74.1, 11.0)" width="65.8" xlink:href="#font_A-OTF_____Pro_501_r0"/>
      <use fill="#ffffff" height="9.9" transform="matrix(0.2344, 0.0, 0.0, 0.2344, 80.1, 11.0)" width="65.8" xlink:href="#font_A-OTF_____Pro_501_t0"/>
      <use fill="#ffffff" height="9.9" transform="matrix(0.2344, 0.0, 0.0, 0.2344, 89.45, 11.0)" width="65.8" xlink:href="#font_A-OTF_____Pro_501_O0"/>
      <use fill="#ffffff" height="9.9" transform="matrix(0.2344, 0.0, 0.0, 0.2344, 99.25, 11.0)" width="65.8" xlink:href="#font_A-OTF_____Pro_501_v0"/>
      <use fill="#ffffff" height="9.9" transform="matrix(0.2344, 0.0, 0.0, 0.2344, 106.8, 11.0)" width="65.8" xlink:href="#font_A-OTF_____Pro_501_e0"/>
      <use fill="#ffffff" height="9.9" transform="matrix(0.2344, 0.0, 0.0, 0.2344, 113.45, 11.0)" width="65.8" xlink:href="#font_A-OTF_____Pro_501_r0"/>
    </g>
  </g>
  <defs>
    <g id="font_A-OTF_____Pro_501_S0">
      <path d="M17.55 -41.15 L17.55 -41.15 Q11.1 -41.1 7.5 -37.9 3.85 -34.7 3.8 -29.5 3.75 -25.4 6.5 -22.5 9.25 -19.6 15.55 -17.65 21.4 -15.9 23.55 -14.65 25.75 -13.35 25.65 -11.2 25.55 -9.0 23.55 -7.7 21.6 -6.4 18.8 -6.35 14.85 -6.55 12.7 -8.0 10.55 -9.5 9.85 -10.45 L7.45 -12.95 Q6.7 -13.5 5.6 -13.45 3.85 -13.4 2.9 -12.35 1.95 -11.3 1.9 -9.85 2.0 -7.05 6.4 -3.3 10.8 0.45 18.4 0.8 24.1 0.8 28.55 -2.3 32.95 -5.4 33.2 -11.5 33.3 -15.55 30.5 -18.5 27.7 -21.45 20.75 -23.45 15.45 -24.85 13.4 -26.1 11.35 -27.35 11.4 -29.65 11.35 -31.3 12.7 -32.7 14.1 -34.1 17.6 -34.2 20.1 -34.2 22.0 -33.45 23.95 -32.75 25.95 -31.05 27.4 -29.9 28.1 -29.65 L29.2 -29.45 Q32.6 -29.8 32.9 -33.0 32.55 -36.3 27.65 -38.65 22.8 -41.05 17.55 -41.15 L17.55 -41.15" fill-rule="evenodd" stroke="none"/>
    </g>
    <g id="font_A-OTF_____Pro_501_t0">
      <path d="M6.4 -23.6 L6.4 -23.6 6.4 -7.7 Q6.2 -5.7 7.35 -2.65 8.5 0.45 13.3 0.8 17.85 0.45 20.0 -2.75 22.2 -5.9 22.2 -7.9 22.2 -9.05 21.4 -10.05 20.55 -11.1 18.95 -11.2 17.4 -11.55 15.85 -8.45 14.85 -6.25 13.85 -6.35 12.65 -6.7 12.8 -7.95 L12.8 -23.6 18.85 -23.6 Q19.75 -23.6 20.7 -24.3 21.65 -25.05 21.7 -26.65 21.55 -29.45 18.85 -29.8 L12.8 -29.8 12.8 -35.4 Q12.8 -36.5 12.05 -37.45 11.3 -38.45 9.7 -38.55 6.8 -38.45 6.4 -35.35 L6.4 -29.8 4.0 -29.8 Q3.0 -29.75 2.1 -29.0 1.2 -28.2 1.15 -26.75 1.15 -25.55 1.9 -24.6 2.65 -23.65 4.0 -23.6 L6.4 -23.6 6.4 -23.6" fill-rule="evenodd" stroke="none"/>
    </g>
    <g id="font_A-OTF_____Pro_501_a0">
      <path d="M22.2 -10.2 L22.2 -10.2 Q22.2 -8.95 20.3 -7.35 18.35 -5.7 14.75 -5.55 12.25 -5.55 10.65 -6.4 9.05 -7.3 9.0 -9.4 9.3 -12.55 12.0 -13.25 L16.3 -13.8 Q21.9 -13.65 22.2 -12.2 L22.2 -10.2 22.2 -10.2 M28.8 -17.55 L28.8 -17.55 Q28.95 -19.7 28.35 -22.7 27.75 -25.75 25.05 -28.1 22.35 -30.45 16.1 -30.6 11.1 -30.55 7.55 -28.95 4.05 -27.35 3.9 -24.7 4.2 -21.7 7.15 -21.4 L8.3 -21.65 10.95 -23.05 Q12.7 -24.15 15.8 -24.2 20.3 -24.05 21.35 -22.25 22.35 -20.5 22.2 -19.25 21.1 -19.9 16.35 -20.2 8.05 -19.9 5.05 -16.5 2.05 -13.05 2.2 -9.45 2.25 -5.05 5.2 -2.1 8.2 0.9 13.75 1.0 19.2 1.1 23.45 -2.5 23.65 -1.3 24.3 -0.25 24.95 0.85 26.9 0.95 30.15 0.55 30.25 -1.9 L29.75 -4.15 Q28.95 -5.8 28.8 -8.35 L28.8 -17.55 28.8 -17.55" fill-rule="evenodd" stroke="none"/>
    </g>
    <g id="font_A-OTF_____Pro_501_r0">
      <path d="M10.4 -14.95 L10.4 -14.95 Q10.45 -15.7 11.7 -17.8 12.95 -19.9 14.75 -21.8 16.6 -23.65 18.45 -23.8 L20.05 -23.6 21.75 -23.4 Q24.65 -23.65 24.7 -26.5 24.55 -28.7 22.65 -29.65 20.75 -30.6 18.75 -30.6 17.8 -30.75 15.3 -29.95 12.8 -29.15 10.4 -25.55 L10.4 -27.15 Q10.25 -29.6 8.95 -30.15 L7.1 -30.6 Q4.05 -30.45 3.8 -27.45 L3.8 -2.25 Q3.8 -1.2 4.55 -0.25 5.35 0.75 7.15 0.8 8.4 0.8 9.35 0.1 10.35 -0.65 10.4 -2.1 L10.4 -14.95 10.4 -14.95" fill-rule="evenodd" stroke="none"/>
    </g>
    <g id="font_A-OTF_____Pro_501_O0">
      <path d="M20.85 -34.0 L20.85 -34.0 Q26.8 -33.7 29.35 -29.35 31.9 -25.05 31.8 -20.2 31.9 -15.5 29.35 -11.1 26.85 -6.7 20.8 -6.4 14.9 -6.7 12.3 -11.0 9.75 -15.3 9.8 -20.2 9.75 -25.35 12.4 -29.55 15.1 -33.75 20.85 -34.0 L20.85 -34.0 M20.85 0.8 L20.85 0.8 Q27.5 0.7 31.6 -2.6 35.7 -5.9 37.55 -10.7 39.45 -15.5 39.4 -20.2 39.45 -24.9 37.55 -29.7 35.7 -34.5 31.6 -37.8 27.5 -41.05 20.85 -41.2 14.2 -41.05 10.05 -37.8 5.95 -34.5 4.1 -29.7 2.2 -24.9 2.25 -20.2 2.2 -15.5 4.1 -10.7 5.95 -5.9 10.05 -2.6 14.2 0.7 20.85 0.8 L20.85 0.8" fill-rule="evenodd" stroke="none"/>
    </g>
    <g id="font_A-OTF_____Pro_501_v0">
      <path d="M8.3 -27.85 L8.3 -27.85 7.25 -29.75 Q6.6 -30.55 5.05 -30.6 2.75 -30.45 2.05 -29.25 1.35 -28.05 1.4 -27.3 1.4 -26.5 1.75 -25.8 L10.85 -3.05 Q11.35 -1.55 12.35 -0.4 13.4 0.75 16.05 0.8 18.75 0.75 19.8 -0.4 20.85 -1.5 21.35 -3.05 L30.45 -25.8 30.8 -27.4 Q30.75 -29.05 29.6 -29.8 28.5 -30.6 27.2 -30.6 25.6 -30.55 24.95 -29.8 24.3 -29.0 23.9 -27.85 L16.1 -7.8 8.3 -27.85 8.3 -27.85" fill-rule="evenodd" stroke="none"/>
    </g>
    <g id="font_A-OTF_____Pro_501_e0">
      <path d="M9.2 -18.6 L9.2 -18.6 Q9.3 -19.65 10.35 -21.8 11.45 -23.95 14.6 -24.2 17.35 -24.0 18.5 -22.25 19.65 -20.55 19.6 -19.2 19.75 -18.6 18.3 -18.6 L9.2 -18.6 9.2 -18.6 M22.5 -12.4 L22.5 -12.4 Q26.4 -12.5 26.2 -18.25 26.1 -23.65 22.8 -27.05 19.5 -30.5 14.55 -30.6 10.0 -30.7 6.25 -26.95 2.45 -23.2 2.2 -14.4 2.6 -5.0 6.95 -2.0 11.25 1.05 14.95 0.8 19.75 0.65 22.75 -1.75 25.75 -4.15 25.85 -7.15 25.85 -8.4 25.1 -9.4 24.3 -10.35 22.95 -10.4 21.15 -10.65 19.6 -8.25 17.45 -5.25 15.2 -5.6 11.25 -5.85 10.15 -8.35 9.05 -10.85 9.05 -12.4 L22.5 -12.4 22.5 -12.4" fill-rule="evenodd" stroke="none"/>
    </g>
  </defs>
</svg>
