<?xml version="1.0" encoding="UTF-8" standalone="no"?>
<svg xmlns:xlink="http://www.w3.org/1999/xlink" height="11.25px" width="126.85px" xmlns="http://www.w3.org/2000/svg">
  <g transform="matrix(1.0, 0.0, 0.0, 1.0, -22.2, -1.35)">
    <g transform="matrix(1.0, 0.0, 0.0, 1.0, 0.0, 0.0)">
      <use fill="#ffffff" height="11.25" transform="matrix(0.2344, 0.0, 0.0, 0.2344, 22.0, 11.0)" width="126.85" xlink:href="#font_A-OTF_____Pro_501_T0"/>
      <use fill="#ffffff" height="11.25" transform="matrix(0.2344, 0.0, 0.0, 0.2344, 30.2, 11.0)" width="126.85" xlink:href="#font_A-OTF_____Pro_501_r0"/>
      <use fill="#ffffff" height="11.25" transform="matrix(0.2344, 0.0, 0.0, 0.2344, 36.2, 11.0)" width="126.85" xlink:href="#font_A-OTF_____Pro_501_y0"/>
      <use fill="#ffffff" height="11.25" transform="matrix(0.2344, 0.0, 0.0, 0.2344, 47.75, 11.0)" width="126.85" xlink:href="#font_A-OTF_____Pro_501_t0"/>
      <use fill="#ffffff" height="11.25" transform="matrix(0.2344, 0.0, 0.0, 0.2344, 53.1, 11.0)" width="126.85" xlink:href="#font_A-OTF_____Pro_501_h0"/>
      <use fill="#ffffff" height="11.25" transform="matrix(0.2344, 0.0, 0.0, 0.2344, 60.65, 11.0)" width="126.85" xlink:href="#font_A-OTF_____Pro_501_e0"/>
      <use fill="#ffffff" height="11.25" transform="matrix(0.2344, 0.0, 0.0, 0.2344, 71.3, 11.0)" width="126.85" xlink:href="#font_A-OTF_____Pro_501_H0"/>
      <use fill="#ffffff" height="11.25" transform="matrix(0.2344, 0.0, 0.0, 0.2344, 80.4, 11.0)" width="126.85" xlink:href="#font_A-OTF_____Pro_501_a0"/>
      <use fill="#ffffff" height="11.25" transform="matrix(0.2344, 0.0, 0.0, 0.2344, 87.95, 11.0)" width="126.85" xlink:href="#font_A-OTF_____Pro_501_r0"/>
      <use fill="#ffffff" height="11.25" transform="matrix(0.2344, 0.0, 0.0, 0.2344, 93.95, 11.0)" width="126.85" xlink:href="#font_A-OTF_____Pro_501_d0"/>
      <use fill="#ffffff" height="11.25" transform="matrix(0.2344, 0.0, 0.0, 0.2344, 101.5, 11.0)" width="126.85" xlink:href="#font_A-OTF_____Pro_501_e0"/>
      <use fill="#ffffff" height="11.25" transform="matrix(0.2344, 0.0, 0.0, 0.2344, 108.15, 11.0)" width="126.85" xlink:href="#font_A-OTF_____Pro_501_r0"/>
      <use fill="#ffffff" height="11.25" transform="matrix(0.2344, 0.0, 0.0, 0.2344, 118.15, 11.0)" width="126.85" xlink:href="#font_A-OTF_____Pro_501_L0"/>
      <use fill="#ffffff" height="11.25" transform="matrix(0.2344, 0.0, 0.0, 0.2344, 125.7, 11.0)" width="126.85" xlink:href="#font_A-OTF_____Pro_501_e0"/>
      <use fill="#ffffff" height="11.25" transform="matrix(0.2344, 0.0, 0.0, 0.2344, 132.35, 11.0)" width="126.85" xlink:href="#font_A-OTF_____Pro_501_v0"/>
      <use fill="#ffffff" height="11.25" transform="matrix(0.2344, 0.0, 0.0, 0.2344, 139.9, 11.0)" width="126.85" xlink:href="#font_A-OTF_____Pro_501_e0"/>
      <use fill="#ffffff" height="11.25" transform="matrix(0.2344, 0.0, 0.0, 0.2344, 146.55, 11.0)" width="126.85" xlink:href="#font_A-OTF_____Pro_501_l0"/>
    </g>
  </g>
  <defs>
    <g id="font_A-OTF_____Pro_501_T0">
      <path d="M21.2 -33.2 L21.2 -33.2 30.05 -33.2 Q31.25 -33.15 32.4 -33.95 33.55 -34.75 33.65 -36.6 33.65 -38.1 32.65 -39.25 31.7 -40.35 30.05 -40.4 L5.15 -40.4 Q4.0 -40.4 2.85 -39.5 1.65 -38.6 1.55 -36.8 1.8 -33.4 5.15 -33.2 L14.0 -33.2 14.0 -2.45 Q14.0 -1.45 14.8 -0.35 15.6 0.7 17.6 0.8 19.0 0.8 20.1 -0.05 21.15 -0.9 21.2 -2.55 L21.2 -33.2 21.2 -33.2" fill-rule="evenodd" stroke="none"/>
    </g>
    <g id="font_A-OTF_____Pro_501_r0">
      <path d="M10.4 -14.95 L10.4 -14.95 Q10.45 -15.7 11.7 -17.8 12.95 -19.9 14.75 -21.8 16.6 -23.65 18.45 -23.8 L20.05 -23.6 21.75 -23.4 Q24.65 -23.65 24.7 -26.5 24.55 -28.7 22.65 -29.65 20.75 -30.6 18.75 -30.6 17.8 -30.75 15.3 -29.95 12.8 -29.15 10.4 -25.55 L10.4 -27.15 Q10.25 -29.6 8.95 -30.15 L7.1 -30.6 Q4.05 -30.45 3.8 -27.45 L3.8 -2.25 Q3.8 -1.2 4.55 -0.25 5.35 0.75 7.15 0.8 8.4 0.8 9.35 0.1 10.35 -0.65 10.4 -2.1 L10.4 -14.95 10.4 -14.95" fill-rule="evenodd" stroke="none"/>
    </g>
    <g id="font_A-OTF_____Pro_501_y0">
      <path d="M10.7 -8.65 L10.7 -8.65 Q11.55 -6.95 12.25 -6.25 12.95 -5.55 14.4 -5.15 12.55 0.15 9.75 -0.15 L8.0 -0.35 4.5 -1.1 Q3.65 -1.1 2.6 -0.35 1.55 0.45 1.45 2.2 1.45 6.55 9.6 6.8 12.55 6.9 15.05 5.6 17.55 4.25 19.3 0.35 L30.35 -25.3 30.8 -27.15 Q30.7 -29.35 29.55 -30.1 28.35 -30.85 27.4 -30.8 25.8 -30.7 25.05 -29.8 24.35 -28.95 24.2 -28.55 L17.15 -12.3 Q16.3 -12.05 15.35 -14.3 L7.85 -28.7 Q7.2 -30.5 4.65 -30.6 3.65 -30.6 2.55 -29.7 1.5 -28.85 1.4 -27.1 1.35 -26.35 1.95 -24.95 L10.7 -8.65 10.7 -8.65" fill-rule="evenodd" stroke="none"/>
    </g>
    <g id="font_A-OTF_____Pro_501_t0">
      <path d="M6.4 -23.6 L6.4 -23.6 6.4 -7.7 Q6.2 -5.7 7.35 -2.65 8.5 0.45 13.3 0.8 17.85 0.45 20.0 -2.75 22.2 -5.9 22.2 -7.9 22.2 -9.05 21.4 -10.05 20.55 -11.1 18.95 -11.2 17.4 -11.55 15.85 -8.45 14.85 -6.25 13.85 -6.35 12.65 -6.7 12.8 -7.95 L12.8 -23.6 18.85 -23.6 Q19.75 -23.6 20.7 -24.3 21.65 -25.05 21.7 -26.65 21.55 -29.45 18.85 -29.8 L12.8 -29.8 12.8 -35.4 Q12.8 -36.5 12.05 -37.45 11.3 -38.45 9.7 -38.55 6.8 -38.45 6.4 -35.35 L6.4 -29.8 4.0 -29.8 Q3.0 -29.75 2.1 -29.0 1.2 -28.2 1.15 -26.75 1.15 -25.55 1.9 -24.6 2.65 -23.65 4.0 -23.6 L6.4 -23.6 6.4 -23.6" fill-rule="evenodd" stroke="none"/>
    </g>
    <g id="font_A-OTF_____Pro_501_h0">
      <path d="M28.8 -20.8 L28.8 -20.8 Q28.65 -25.7 25.4 -28.15 22.15 -30.6 18.0 -30.6 L14.75 -30.15 Q12.4 -29.55 10.0 -26.95 L10.0 -37.8 Q10.0 -38.85 9.25 -40.0 8.45 -41.1 6.8 -41.2 3.65 -40.85 3.4 -37.75 L3.4 -2.6 Q3.4 -1.65 4.15 -0.45 4.9 0.7 6.6 0.8 9.75 0.55 10.0 -2.55 L10.0 -16.2 Q10.0 -18.45 11.75 -21.0 13.5 -23.55 17.25 -23.8 20.5 -23.6 21.4 -21.75 22.3 -19.9 22.2 -18.75 L22.2 -2.6 Q22.2 -1.6 23.0 -0.45 23.75 0.7 25.45 0.8 28.55 0.6 28.8 -2.55 L28.8 -20.8 28.8 -20.8" fill-rule="evenodd" stroke="none"/>
    </g>
    <g id="font_A-OTF_____Pro_501_e0">
      <path d="M9.2 -18.6 L9.2 -18.6 Q9.3 -19.65 10.35 -21.8 11.45 -23.95 14.6 -24.2 17.35 -24.0 18.5 -22.25 19.65 -20.55 19.6 -19.2 19.75 -18.6 18.3 -18.6 L9.2 -18.6 9.2 -18.6 M22.5 -12.4 L22.5 -12.4 Q26.4 -12.5 26.2 -18.25 26.1 -23.65 22.8 -27.05 19.5 -30.5 14.55 -30.6 10.0 -30.7 6.25 -26.95 2.45 -23.2 2.2 -14.4 2.6 -5.0 6.95 -2.0 11.25 1.05 14.95 0.8 19.75 0.65 22.75 -1.75 25.75 -4.15 25.85 -7.15 25.85 -8.4 25.1 -9.4 24.3 -10.35 22.95 -10.4 21.15 -10.65 19.6 -8.25 17.45 -5.25 15.2 -5.6 11.25 -5.85 10.15 -8.35 9.05 -10.85 9.05 -12.4 L22.5 -12.4 22.5 -12.4" fill-rule="evenodd" stroke="none"/>
    </g>
    <g id="font_A-OTF_____Pro_501_H0">
      <path d="M27.6 -17.8 L27.6 -17.8 27.6 -2.8 Q28.0 0.55 31.3 0.8 34.65 0.4 34.8 -2.8 L34.8 -37.55 Q34.55 -40.85 31.1 -41.2 27.8 -40.8 27.6 -37.55 L27.6 -25.0 11.2 -25.0 11.2 -37.55 Q10.85 -40.95 7.5 -41.2 4.2 -40.8 4.0 -37.55 L4.0 -2.8 Q4.35 0.55 7.7 0.8 9.45 0.7 10.35 -0.5 11.2 -1.7 11.2 -2.8 L11.2 -17.8 27.6 -17.8 27.6 -17.8" fill-rule="evenodd" stroke="none"/>
    </g>
    <g id="font_A-OTF_____Pro_501_a0">
      <path d="M22.2 -10.2 L22.2 -10.2 Q22.2 -8.95 20.3 -7.35 18.35 -5.7 14.75 -5.55 12.25 -5.55 10.65 -6.4 9.05 -7.3 9.0 -9.4 9.3 -12.55 12.0 -13.25 L16.3 -13.8 Q21.9 -13.65 22.2 -12.2 L22.2 -10.2 22.2 -10.2 M28.8 -17.55 L28.8 -17.55 Q28.95 -19.7 28.35 -22.7 27.75 -25.75 25.05 -28.1 22.35 -30.45 16.1 -30.6 11.1 -30.55 7.55 -28.95 4.05 -27.35 3.9 -24.7 4.2 -21.7 7.15 -21.4 L8.3 -21.65 10.95 -23.05 Q12.7 -24.15 15.8 -24.2 20.3 -24.05 21.35 -22.25 22.35 -20.5 22.2 -19.25 21.1 -19.9 16.35 -20.2 8.05 -19.9 5.05 -16.5 2.05 -13.05 2.2 -9.45 2.25 -5.05 5.2 -2.1 8.2 0.9 13.75 1.0 19.2 1.1 23.45 -2.5 23.65 -1.3 24.3 -0.25 24.95 0.85 26.9 0.95 30.15 0.55 30.25 -1.9 L29.75 -4.15 Q28.95 -5.8 28.8 -8.35 L28.8 -17.55 28.8 -17.55" fill-rule="evenodd" stroke="none"/>
    </g>
    <g id="font_A-OTF_____Pro_501_d0">
      <path d="M22.2 -13.2 L22.2 -13.2 Q22.35 -11.4 20.95 -8.85 19.6 -6.25 15.3 -6.0 11.4 -6.2 10.15 -9.0 8.9 -11.8 9.0 -14.8 9.25 -21.25 11.6 -22.65 13.95 -24.05 15.45 -23.8 20.3 -23.45 21.35 -20.6 22.4 -17.8 22.2 -16.85 L22.2 -13.2 22.2 -13.2 M28.8 -37.9 L28.8 -37.9 Q28.6 -40.85 25.4 -41.2 23.7 -41.1 22.95 -39.95 22.2 -38.85 22.2 -37.85 L22.2 -27.95 Q20.0 -29.85 17.65 -30.25 L14.5 -30.6 Q7.95 -30.35 5.05 -25.8 2.15 -21.25 2.2 -15.05 2.15 -8.8 5.2 -4.1 8.25 0.6 14.95 0.8 18.4 0.75 20.05 -0.35 21.7 -1.45 22.65 -2.65 22.7 0.4 26.0 0.8 28.0 0.75 28.45 -0.4 28.9 -1.5 28.8 -2.75 L28.8 -37.9 28.8 -37.9" fill-rule="evenodd" stroke="none"/>
    </g>
    <g id="font_A-OTF_____Pro_501_L0">
      <path d="M4.0 -6.6 L4.0 -6.6 Q4.1 -2.35 5.85 -1.1 7.6 0.15 10.0 0.0 L27.45 0.0 Q28.6 0.05 29.6 -0.85 30.6 -1.75 30.65 -3.7 30.7 -5.0 29.85 -6.05 29.05 -7.15 27.15 -7.2 L12.7 -7.2 Q11.0 -7.05 11.2 -9.3 L11.2 -37.55 Q11.2 -38.7 10.35 -39.9 9.45 -41.1 7.7 -41.2 4.25 -40.85 4.0 -37.55 L4.0 -6.6 4.0 -6.6" fill-rule="evenodd" stroke="none"/>
    </g>
    <g id="font_A-OTF_____Pro_501_v0">
      <path d="M8.3 -27.85 L8.3 -27.85 7.25 -29.75 Q6.6 -30.55 5.05 -30.6 2.75 -30.45 2.05 -29.25 1.35 -28.05 1.4 -27.3 1.4 -26.5 1.75 -25.8 L10.85 -3.05 Q11.35 -1.55 12.35 -0.4 13.4 0.75 16.05 0.8 18.75 0.75 19.8 -0.4 20.85 -1.5 21.35 -3.05 L30.45 -25.8 30.8 -27.4 Q30.75 -29.05 29.6 -29.8 28.5 -30.6 27.2 -30.6 25.6 -30.55 24.95 -29.8 24.3 -29.0 23.9 -27.85 L16.1 -7.8 8.3 -27.85 8.3 -27.85" fill-rule="evenodd" stroke="none"/>
    </g>
    <g id="font_A-OTF_____Pro_501_l0">
      <path d="M4.8 -2.6 L4.8 -2.6 Q5.1 0.55 8.25 0.8 9.9 0.7 10.65 -0.4 11.4 -1.5 11.4 -2.5 L11.4 -37.85 Q11.2 -40.85 8.05 -41.2 5.05 -40.8 4.8 -37.75 L4.8 -2.6 4.8 -2.6" fill-rule="evenodd" stroke="none"/>
    </g>
  </defs>
</svg>
