<?xml version="1.0" encoding="UTF-8" standalone="no"?>
<svg xmlns:xlink="http://www.w3.org/1999/xlink" height="16.5px" width="139.45px" xmlns="http://www.w3.org/2000/svg">
  <g transform="matrix(1.0, 0.0, 0.0, 1.0, -11.4, -1.9)">
    <g transform="matrix(1.0, 0.0, 0.0, 1.0, 0.0, 0.0)">
      <use fill="#006699" height="16.5" transform="matrix(0.3906, 0.0, 0.0, 0.3906, 10.0, 18.0)" width="139.45" xlink:href="#font_A-OTF_____Pro_501_G0"/>
      <use fill="#006699" height="16.5" transform="matrix(0.3906, 0.0, 0.0, 0.3906, 26.3, 18.0)" width="139.45" xlink:href="#font_A-OTF_____Pro_501_a0"/>
      <use fill="#006699" height="16.5" transform="matrix(0.3906, 0.0, 0.0, 0.3906, 38.9, 18.0)" width="139.45" xlink:href="#font_A-OTF_____Pro_501_m0"/>
      <use fill="#006699" height="16.5" transform="matrix(0.3906, 0.0, 0.0, 0.3906, 56.3, 18.0)" width="139.45" xlink:href="#font_A-OTF_____Pro_501_e0"/>
      <use fill="#006699" height="16.5" transform="matrix(0.3906, 0.0, 0.0, 0.3906, 74.05, 18.0)" width="139.45" xlink:href="#font_A-OTF_____Pro_501_R0"/>
      <use fill="#006699" height="16.5" transform="matrix(0.3906, 0.0, 0.0, 0.3906, 89.25, 18.0)" width="139.45" xlink:href="#font_A-OTF_____Pro_501_e0"/>
      <use fill="#006699" height="16.5" transform="matrix(0.3906, 0.0, 0.0, 0.3906, 100.35, 18.0)" width="139.45" xlink:href="#font_A-OTF_____Pro_501_s0"/>
      <use fill="#006699" height="16.5" transform="matrix(0.3906, 0.0, 0.0, 0.3906, 111.45, 18.0)" width="139.45" xlink:href="#font_A-OTF_____Pro_501_u0"/>
      <use fill="#006699" height="16.5" transform="matrix(0.3906, 0.0, 0.0, 0.3906, 124.05, 18.0)" width="139.45" xlink:href="#font_A-OTF_____Pro_501_l0"/>
      <use fill="#006699" height="16.5" transform="matrix(0.3906, 0.0, 0.0, 0.3906, 130.35, 18.0)" width="139.45" xlink:href="#font_A-OTF_____Pro_501_t0"/>
      <use fill="#006699" height="16.5" transform="matrix(0.3906, 0.0, 0.0, 0.3906, 139.25, 18.0)" width="139.45" xlink:href="#font_A-OTF_____Pro_501_s0"/>
    </g>
  </g>
  <defs>
    <g id="font_A-OTF_____Pro_501_G0">
      <path d="M22.95 -23.8 L22.95 -23.8 Q21.7 -23.8 20.7 -22.95 19.7 -22.1 19.65 -20.45 19.65 -19.0 20.65 -17.95 21.6 -16.85 23.25 -16.8 L33.1 -16.8 Q34.5 -16.8 34.55 -15.45 L34.55 -12.7 Q34.75 -11.6 32.8 -9.15 30.85 -6.65 24.45 -6.35 18.1 -6.45 14.45 -10.05 10.85 -13.65 10.8 -19.75 10.75 -25.25 14.0 -29.6 17.25 -33.95 24.25 -34.2 27.0 -34.25 28.95 -33.4 30.95 -32.55 33.05 -30.6 34.8 -29.05 35.7 -28.7 36.6 -28.3 37.2 -28.4 39.0 -28.45 39.95 -29.6 40.85 -30.7 40.85 -32.0 40.7 -35.05 36.0 -38.0 31.25 -40.95 23.65 -41.15 13.4 -40.8 8.05 -34.3 2.7 -27.8 2.65 -19.5 2.7 -11.05 8.2 -5.15 13.65 0.75 24.1 1.0 27.95 1.05 32.15 -0.1 36.4 -1.3 39.35 -4.25 42.35 -7.25 42.45 -12.65 L42.45 -17.85 Q42.3 -21.4 40.15 -22.65 38.05 -23.85 36.2 -23.8 L22.95 -23.8 22.95 -23.8" fill-rule="evenodd" stroke="none"/>
    </g>
    <g id="font_A-OTF_____Pro_501_a0">
      <path d="M24.45 -10.2 L24.45 -10.2 Q24.4 -8.95 22.3 -7.35 20.2 -5.7 16.25 -5.55 13.45 -5.55 11.7 -6.4 9.95 -7.3 9.9 -9.4 10.25 -12.55 13.2 -13.25 L17.95 -13.8 Q24.1 -13.65 24.45 -12.2 L24.45 -10.2 24.45 -10.2 M31.7 -17.55 L31.7 -17.55 Q31.8 -19.7 31.15 -22.7 30.55 -25.75 27.55 -28.1 24.6 -30.45 17.7 -30.6 12.2 -30.55 8.3 -28.95 4.45 -27.35 4.25 -24.7 4.6 -21.7 7.85 -21.4 L9.15 -21.65 12.05 -23.05 Q14.0 -24.15 17.4 -24.2 22.35 -24.05 23.45 -22.25 24.6 -20.5 24.45 -19.25 23.2 -19.9 18.0 -20.2 8.85 -19.9 5.55 -16.5 2.25 -13.05 2.45 -9.45 2.45 -5.05 5.75 -2.1 9.0 0.9 15.1 1.0 21.15 1.1 25.8 -2.5 26.0 -1.3 26.75 -0.25 27.45 0.85 29.6 0.95 33.2 0.55 33.25 -1.9 33.3 -2.7 32.7 -4.15 31.8 -5.8 31.7 -8.35 L31.7 -17.55 31.7 -17.55" fill-rule="evenodd" stroke="none"/>
    </g>
    <g id="font_A-OTF_____Pro_501_m0">
      <path d="M45.35 -23.05 L45.35 -23.05 Q45.3 -26.4 42.7 -28.45 40.1 -30.55 35.1 -30.6 30.9 -30.5 29.05 -29.45 27.2 -28.4 26.7 -27.7 25.15 -29.45 23.1 -30.05 L19.15 -30.6 Q15.4 -30.55 13.65 -29.65 11.85 -28.8 10.95 -27.75 L9.8 -29.5 Q8.95 -30.5 6.8 -30.6 5.0 -30.55 3.9 -29.6 2.8 -28.65 3.0 -27.2 L3.5 -24.85 3.75 -23.2 3.75 -2.6 Q3.75 -1.55 4.6 -0.4 5.5 0.7 7.35 0.8 10.75 0.55 11.0 -2.55 L11.0 -18.05 Q10.9 -19.2 11.85 -21.35 12.85 -23.55 16.6 -23.8 L19.05 -23.3 Q20.7 -22.7 20.9 -19.95 L20.9 -2.6 Q20.9 -1.6 21.75 -0.45 22.6 0.7 24.5 0.8 27.95 0.5 28.15 -2.55 L28.15 -18.05 Q28.05 -19.2 29.0 -21.35 30.0 -23.55 33.75 -23.8 L36.2 -23.3 Q37.85 -22.7 38.05 -19.95 L38.05 -2.6 Q38.05 -1.6 38.9 -0.45 39.75 0.7 41.6 0.8 45.0 0.6 45.35 -2.55 L45.35 -23.05 45.35 -23.05" fill-rule="evenodd" stroke="none"/>
    </g>
    <g id="font_A-OTF_____Pro_501_e0">
      <path d="M10.15 -18.6 L10.15 -18.6 Q10.2 -19.65 11.4 -21.8 12.6 -23.95 16.1 -24.2 19.1 -24.0 20.35 -22.25 21.6 -20.55 21.55 -19.2 21.75 -18.6 20.1 -18.6 L10.15 -18.6 10.15 -18.6 M24.75 -12.4 L24.75 -12.4 Q29.05 -12.5 28.85 -18.25 28.7 -23.65 25.05 -27.05 21.45 -30.5 16.0 -30.6 11.0 -30.7 6.85 -26.95 2.7 -23.2 2.45 -14.4 2.85 -5.0 7.6 -2.0 12.4 1.05 16.45 0.8 21.75 0.65 25.05 -1.75 28.35 -4.15 28.45 -7.15 28.45 -8.4 27.6 -9.4 26.75 -10.35 25.25 -10.4 23.25 -10.65 21.55 -8.25 19.2 -5.25 16.7 -5.6 12.4 -5.85 11.15 -8.35 9.95 -10.85 9.95 -12.4 L24.75 -12.4 24.75 -12.4" fill-rule="evenodd" stroke="none"/>
    </g>
    <g id="font_A-OTF_____Pro_501_R0">
      <path d="M12.35 -24.0 L12.35 -24.0 12.35 -31.6 Q12.25 -33.95 15.05 -33.6 L25.85 -33.6 Q28.45 -33.6 30.25 -32.55 32.05 -31.5 32.15 -28.85 32.05 -25.95 30.15 -24.9 28.3 -23.9 25.4 -24.0 L12.35 -24.0 12.35 -24.0 M12.35 -17.2 L12.35 -17.2 20.1 -17.2 Q22.8 -16.85 25.55 -13.35 28.35 -9.85 29.85 -7.1 L33.15 -1.1 Q34.35 1.15 37.15 1.0 39.15 0.95 40.15 -0.15 41.15 -1.2 41.15 -2.35 40.95 -4.05 40.2 -4.9 L34.35 -13.8 33.1 -15.4 30.55 -17.55 Q32.55 -17.8 36.2 -20.15 39.85 -22.45 40.25 -28.9 40.2 -33.95 36.7 -37.15 33.25 -40.3 27.2 -40.4 L11.2 -40.4 Q4.15 -40.3 4.4 -34.1 L4.4 -2.45 Q4.4 -1.4 5.25 -0.35 6.15 0.75 8.3 0.8 9.9 0.8 11.1 -0.05 12.25 -0.9 12.35 -2.55 L12.35 -17.2 12.35 -17.2" fill-rule="evenodd" stroke="none"/>
    </g>
    <g id="font_A-OTF_____Pro_501_s0">
      <path d="M15.55 0.8 L15.55 0.8 Q22.65 0.6 25.75 -2.35 28.9 -5.3 28.8 -8.95 28.9 -10.1 28.35 -11.85 27.8 -13.6 25.9 -15.15 24.65 -16.15 22.5 -16.8 L13.95 -19.0 Q10.6 -19.65 10.55 -21.6 10.75 -23.3 12.55 -23.9 L15.7 -24.4 Q18.7 -24.45 21.25 -22.7 23.75 -21.25 24.7 -21.5 26.55 -21.55 27.4 -22.6 28.2 -23.6 28.2 -24.6 27.95 -27.4 24.0 -28.95 20.0 -30.55 15.55 -30.6 9.4 -30.45 6.15 -27.7 2.9 -25.0 2.9 -21.3 2.85 -18.0 5.8 -15.7 8.75 -13.4 15.4 -12.25 L19.4 -11.25 Q21.05 -10.6 21.15 -8.85 21.25 -8.1 20.35 -6.9 19.45 -5.7 16.65 -5.55 13.5 -5.6 11.7 -6.5 9.9 -7.35 8.65 -8.6 L6.45 -10.25 4.9 -10.55 Q1.55 -10.4 1.35 -7.45 1.5 -4.7 5.4 -2.05 9.3 0.6 15.55 0.8 L15.55 0.8" fill-rule="evenodd" stroke="none"/>
    </g>
    <g id="font_A-OTF_____Pro_501_u0">
      <path d="M3.75 -8.4 L3.75 -8.4 Q3.8 -4.25 6.8 -1.75 9.75 0.75 14.75 0.8 19.25 0.7 21.45 -0.5 23.6 -1.7 24.2 -2.5 24.7 -1.35 25.65 -0.3 26.65 0.75 28.5 0.8 32.2 0.4 32.15 -2.25 L31.9 -5.0 31.7 -7.85 31.7 -27.2 Q31.7 -28.3 30.8 -29.4 29.9 -30.5 28.15 -30.6 24.7 -30.3 24.45 -27.25 L24.45 -12.25 Q24.45 -10.3 22.5 -8.15 20.55 -5.95 16.65 -5.8 13.2 -5.9 12.05 -7.7 10.9 -9.45 11.0 -11.3 L11.0 -27.2 Q11.0 -28.15 10.15 -29.35 9.3 -30.5 7.45 -30.6 4.1 -30.35 3.75 -27.25 L3.75 -8.4 3.75 -8.4" fill-rule="evenodd" stroke="none"/>
    </g>
    <g id="font_A-OTF_____Pro_501_l0">
      <path d="M5.3 -2.6 L5.3 -2.6 Q5.6 0.55 9.1 0.8 10.85 0.7 11.7 -0.4 12.55 -1.5 12.55 -2.5 L12.55 -37.85 Q12.35 -40.85 8.85 -41.2 5.55 -40.8 5.3 -37.75 L5.3 -2.6 5.3 -2.6" fill-rule="evenodd" stroke="none"/>
    </g>
    <g id="font_A-OTF_____Pro_501_t0">
      <path d="M7.05 -23.6 L7.05 -23.6 7.05 -7.7 Q6.85 -5.7 8.1 -2.65 9.35 0.45 14.65 0.8 19.65 0.45 22.0 -2.75 24.4 -5.9 24.4 -7.9 24.4 -9.05 23.5 -10.05 22.6 -11.1 20.85 -11.2 19.15 -11.55 17.4 -8.45 16.3 -6.25 15.2 -6.35 13.95 -6.7 14.1 -7.95 L14.1 -23.6 20.75 -23.6 Q21.7 -23.6 22.75 -24.3 23.8 -25.05 23.9 -26.65 23.7 -29.45 20.75 -29.8 L14.1 -29.8 14.1 -35.4 Q14.1 -36.5 13.25 -37.45 12.4 -38.45 10.65 -38.55 7.45 -38.45 7.05 -35.35 L7.05 -29.8 4.4 -29.8 Q3.3 -29.75 2.3 -29.0 1.3 -28.2 1.25 -26.75 1.25 -25.55 2.1 -24.6 2.9 -23.65 4.4 -23.6 L7.05 -23.6 7.05 -23.6" fill-rule="evenodd" stroke="none"/>
    </g>
  </defs>
</svg>
