<?xml version="1.0" encoding="UTF-8" standalone="no"?>
<svg xmlns:xlink="http://www.w3.org/1999/xlink" height="11.5px" width="40.55px" xmlns="http://www.w3.org/2000/svg">
  <g transform="matrix(1.0, 0.0, 0.0, 1.0, -60.55, -0.75)">
    <g transform="matrix(1.0, 0.0, 0.0, 1.0, 0.0, 0.0)">
      <use fill="#000000" height="11.5" transform="matrix(0.2734, 0.0, 0.0, 0.2734, 60.0, 12.0)" width="40.55" xlink:href="#font_A-OTF_____Pro_501_S0"/>
      <use fill="#000000" height="11.5" transform="matrix(0.2734, 0.0, 0.0, 0.2734, 69.6, 12.0)" width="40.55" xlink:href="#font_A-OTF_____Pro_501_c0"/>
      <use fill="#000000" height="11.5" transform="matrix(0.2734, 0.0, 0.0, 0.2734, 77.4, 12.0)" width="40.55" xlink:href="#font_A-OTF_____Pro_501_o0"/>
      <use fill="#000000" height="11.5" transform="matrix(0.2734, 0.0, 0.0, 0.2734, 86.2, 12.0)" width="40.55" xlink:href="#font_A-OTF_____Pro_501_r0"/>
      <use fill="#000000" height="11.5" transform="matrix(0.2734, 0.0, 0.0, 0.2734, 93.2, 12.0)" width="40.55" xlink:href="#font_A-OTF_____Pro_501_e0"/>
    </g>
  </g>
  <defs>
    <g id="font_A-OTF_____Pro_501_S0">
      <path d="M19.3 -41.15 L19.3 -41.15 Q12.2 -41.1 8.25 -37.9 4.25 -34.7 4.2 -29.5 4.15 -25.4 7.15 -22.5 10.15 -19.6 17.1 -17.65 23.55 -15.9 25.9 -14.65 28.3 -13.35 28.2 -11.2 28.1 -9.0 25.95 -7.7 23.75 -6.4 20.65 -6.35 16.3 -6.55 13.95 -8.0 11.6 -9.5 10.85 -10.45 L8.15 -12.95 Q7.35 -13.5 6.2 -13.45 4.25 -13.4 3.2 -12.35 2.1 -11.3 2.1 -9.85 2.2 -7.05 7.05 -3.3 11.85 0.45 20.25 0.8 26.5 0.8 31.4 -2.3 36.25 -5.4 36.5 -11.5 36.65 -15.55 33.55 -18.5 30.5 -21.45 22.85 -23.45 17.0 -24.85 14.75 -26.1 12.45 -27.35 12.55 -29.65 12.5 -31.3 14.0 -32.7 15.5 -34.1 19.35 -34.2 22.1 -34.2 24.2 -33.45 26.35 -32.75 28.55 -31.05 L30.9 -29.65 32.1 -29.45 Q35.85 -29.8 36.15 -33.0 35.8 -36.3 30.4 -38.65 25.05 -41.05 19.3 -41.15 L19.3 -41.15" fill-rule="evenodd" stroke="none"/>
    </g>
    <g id="font_A-OTF_____Pro_501_c0">
      <path d="M17.05 -30.6 L17.05 -30.6 Q11.05 -30.45 7.85 -27.8 4.65 -25.15 3.5 -21.5 2.35 -17.9 2.45 -14.85 2.65 -7.1 6.8 -3.05 10.95 1.0 16.75 1.0 22.5 0.7 25.75 -2.2 28.95 -5.15 29.0 -7.1 29.05 -10.0 25.45 -10.4 23.55 -10.5 21.9 -8.35 20.45 -6.65 19.3 -6.2 18.15 -5.75 16.9 -5.8 13.15 -5.95 11.5 -8.75 9.9 -11.55 9.9 -14.75 9.85 -17.8 11.3 -20.7 12.75 -23.6 16.35 -23.8 19.4 -23.9 21.4 -21.15 22.6 -19.6 23.4 -19.2 L25.0 -18.85 Q26.45 -18.85 27.55 -19.7 28.65 -20.55 28.7 -22.3 28.45 -25.75 24.75 -28.1 21.1 -30.5 17.05 -30.6 L17.05 -30.6" fill-rule="evenodd" stroke="none"/>
    </g>
    <g id="font_A-OTF_____Pro_501_o0">
      <path d="M17.7 -23.8 L17.7 -23.8 Q22.9 -23.45 24.3 -20.3 25.7 -17.1 25.55 -14.85 25.7 -12.65 24.3 -9.5 22.9 -6.3 17.7 -6.0 12.5 -6.3 11.1 -9.5 9.75 -12.65 9.9 -14.85 9.75 -17.1 11.15 -20.3 12.55 -23.45 17.7 -23.8 L17.7 -23.8 M17.7 -30.6 L17.7 -30.6 Q8.85 -30.25 5.55 -25.2 2.25 -20.2 2.45 -14.85 2.25 -9.55 5.55 -4.55 8.85 0.45 17.7 0.8 26.6 0.45 29.9 -4.55 33.2 -9.55 33.0 -14.85 33.2 -20.2 29.9 -25.2 26.6 -30.2 17.7 -30.6 L17.7 -30.6" fill-rule="evenodd" stroke="none"/>
    </g>
    <g id="font_A-OTF_____Pro_501_r0">
      <path d="M11.45 -14.95 L11.45 -14.95 Q11.5 -15.7 12.85 -17.8 14.25 -19.9 16.25 -21.8 18.25 -23.65 20.3 -23.8 L22.05 -23.6 23.9 -23.4 Q27.1 -23.65 27.15 -26.5 27.0 -28.7 24.9 -29.65 22.8 -30.6 20.65 -30.6 19.6 -30.75 16.85 -29.95 14.1 -29.15 11.45 -25.55 L11.45 -27.15 Q11.25 -29.6 9.85 -30.15 L7.8 -30.6 Q4.5 -30.45 4.2 -27.45 L4.2 -2.25 Q4.15 -1.2 5.0 -0.25 5.85 0.75 7.9 0.8 9.2 0.8 10.3 0.1 11.4 -0.65 11.45 -2.1 L11.45 -14.95 11.45 -14.95" fill-rule="evenodd" stroke="none"/>
    </g>
    <g id="font_A-OTF_____Pro_501_e0">
      <path d="M10.15 -18.6 L10.15 -18.6 Q10.2 -19.65 11.4 -21.8 12.6 -23.95 16.1 -24.2 19.1 -24.0 20.35 -22.25 21.6 -20.55 21.55 -19.2 21.75 -18.6 20.1 -18.6 L10.15 -18.6 10.15 -18.6 M24.75 -12.4 L24.75 -12.4 Q29.05 -12.5 28.85 -18.25 28.7 -23.65 25.05 -27.05 21.45 -30.5 16.0 -30.6 11.0 -30.7 6.85 -26.95 2.7 -23.2 2.45 -14.4 2.85 -5.0 7.6 -2.0 12.4 1.05 16.45 0.8 21.75 0.65 25.05 -1.75 28.35 -4.15 28.45 -7.15 28.45 -8.4 27.6 -9.4 26.75 -10.35 25.25 -10.4 23.25 -10.65 21.55 -8.25 19.2 -5.25 16.7 -5.6 12.4 -5.85 11.15 -8.35 9.95 -10.85 9.95 -12.4 L24.75 -12.4 24.75 -12.4" fill-rule="evenodd" stroke="none"/>
    </g>
  </defs>
</svg>
