<?xml version="1.0" encoding="UTF-8" standalone="no"?>
<svg xmlns:xlink="http://www.w3.org/1999/xlink" height="13.1px" width="107.35px" xmlns="http://www.w3.org/2000/svg">
  <g transform="matrix(1.0, 0.0, 0.0, 1.0, -27.55, -0.75)">
    <g transform="matrix(1.0, 0.0, 0.0, 1.0, 0.0, 0.0)">
      <use fill="#000000" height="13.1" transform="matrix(0.2734, 0.0, 0.0, 0.2734, 26.0, 12.0)" width="107.35" xlink:href="#font_A-OTF_____Pro_501_H0"/>
      <use fill="#000000" height="13.1" transform="matrix(0.2734, 0.0, 0.0, 0.2734, 36.65, 12.0)" width="107.35" xlink:href="#font_A-OTF_____Pro_501_i0"/>
      <use fill="#000000" height="13.1" transform="matrix(0.2734, 0.0, 0.0, 0.2734, 41.05, 12.0)" width="107.35" xlink:href="#font_A-OTF_____Pro_501_g0"/>
      <use fill="#000000" height="13.1" transform="matrix(0.2734, 0.0, 0.0, 0.2734, 49.85, 12.0)" width="107.35" xlink:href="#font_A-OTF_____Pro_501_h0"/>
      <use fill="#000000" height="13.1" transform="matrix(0.2734, 0.0, 0.0, 0.2734, 58.65, 12.0)" width="107.35" xlink:href="#font_A-OTF_____Pro_501_e0"/>
      <use fill="#000000" height="13.1" transform="matrix(0.2734, 0.0, 0.0, 0.2734, 66.45, 12.0)" width="107.35" xlink:href="#font_A-OTF_____Pro_501_s0"/>
      <use fill="#000000" height="13.1" transform="matrix(0.2734, 0.0, 0.0, 0.2734, 74.25, 12.0)" width="107.35" xlink:href="#font_A-OTF_____Pro_501_t0"/>
      <use fill="#000000" height="13.1" transform="matrix(0.2734, 0.0, 0.0, 0.2734, 85.1, 12.0)" width="107.35" xlink:href="#font_A-OTF_____Pro_501_C0"/>
      <use fill="#000000" height="13.1" transform="matrix(0.2734, 0.0, 0.0, 0.2734, 95.75, 12.0)" width="107.35" xlink:href="#font_A-OTF_____Pro_501_o0"/>
      <use fill="#000000" height="13.1" transform="matrix(0.2734, 0.0, 0.0, 0.2734, 104.55, 12.0)" width="107.35" xlink:href="#font_A-OTF_____Pro_501_m0"/>
      <use fill="#000000" height="13.1" transform="matrix(0.2734, 0.0, 0.0, 0.2734, 116.75, 12.0)" width="107.35" xlink:href="#font_A-OTF_____Pro_501_b0"/>
      <use fill="#000000" height="13.1" transform="matrix(0.2734, 0.0, 0.0, 0.2734, 125.55, 12.0)" width="107.35" xlink:href="#font_A-OTF_____Pro_501_o0"/>
    </g>
  </g>
  <defs>
    <g id="font_A-OTF_____Pro_501_H0">
      <path d="M30.35 -17.8 L30.35 -17.8 30.35 -2.8 Q30.75 0.55 34.45 0.8 38.15 0.4 38.3 -2.8 L38.3 -37.55 Q38.0 -40.85 34.2 -41.2 30.55 -40.8 30.35 -37.55 L30.35 -25.0 12.35 -25.0 12.35 -37.55 Q11.95 -40.95 8.25 -41.2 4.6 -40.8 4.4 -37.55 L4.4 -2.8 Q4.75 0.55 8.45 0.8 10.4 0.7 11.4 -0.5 12.35 -1.7 12.35 -2.8 L12.35 -17.8 30.35 -17.8 30.35 -17.8" fill-rule="evenodd" stroke="none"/>
    </g>
    <g id="font_A-OTF_____Pro_501_i0">
      <path d="M8.8 -41.2 L8.8 -41.2 Q6.9 -41.15 5.6 -40.0 4.25 -38.85 4.2 -37.1 4.55 -33.4 8.8 -33.0 13.05 -33.35 13.4 -37.1 13.35 -38.9 12.0 -40.0 10.7 -41.15 8.8 -41.2 L8.8 -41.2 M12.55 -27.25 L12.55 -27.25 Q12.55 -28.35 11.65 -29.45 10.75 -30.5 9.0 -30.6 5.65 -30.45 5.3 -27.25 L5.3 -2.5 Q5.3 -1.4 6.2 -0.35 7.05 0.75 8.8 0.8 12.2 0.65 12.55 -2.5 L12.55 -27.25 12.55 -27.25" fill-rule="evenodd" stroke="none"/>
    </g>
    <g id="font_A-OTF_____Pro_501_g0">
      <path d="M11.25 -22.1 L11.25 -22.1 Q11.5 -24.1 14.0 -24.55 L17.75 -25.0 21.3 -24.65 Q23.9 -24.2 24.2 -22.1 23.9 -20.1 21.35 -19.6 L17.65 -19.2 14.2 -19.55 Q11.6 -20.0 11.25 -22.1 L11.25 -22.1 M14.5 -13.75 L14.5 -13.75 17.5 -13.6 Q24.85 -13.75 28.1 -16.3 31.3 -18.9 31.25 -22.05 31.1 -24.05 30.55 -24.95 L32.85 -26.55 Q33.85 -27.15 33.85 -28.7 33.65 -31.05 30.35 -31.45 29.45 -31.5 28.6 -31.0 L25.65 -29.25 Q24.2 -30.25 17.8 -30.6 11.4 -30.5 7.85 -28.2 4.25 -25.85 4.2 -22.1 4.3 -19.25 5.7 -17.8 7.1 -16.35 8.3 -15.75 L5.75 -10.65 Q4.95 -9.35 4.95 -7.95 5.15 -5.2 7.0 -4.6 8.9 -4.0 9.7 -4.1 L11.15 -4.25 12.85 -4.85 Q15.0 -5.9 19.1 -6.2 21.75 -6.2 23.7 -5.25 25.65 -4.3 25.75 -2.55 25.65 -0.55 23.6 0.15 L18.7 0.8 Q13.4 0.7 10.85 -0.35 8.3 -1.45 7.6 -2.15 6.85 -2.85 5.55 -2.85 4.0 -2.8 3.15 -1.85 2.35 -0.9 2.35 0.2 2.25 2.25 6.25 4.45 10.25 6.65 19.05 6.8 L25.1 6.15 Q28.15 5.5 30.4 3.6 33.15 0.9 33.25 -2.45 33.35 -5.35 30.55 -8.35 27.75 -11.35 20.55 -11.55 L16.4 -11.2 12.95 -10.35 14.5 -13.75 14.5 -13.75" fill-rule="evenodd" stroke="none"/>
    </g>
    <g id="font_A-OTF_____Pro_501_h0">
      <path d="M31.7 -20.8 L31.7 -20.8 Q31.5 -25.7 27.95 -28.15 24.35 -30.6 19.8 -30.6 L16.25 -30.15 Q13.65 -29.55 11.0 -26.95 L11.0 -37.8 Q11.0 -38.85 10.15 -40.0 9.3 -41.1 7.5 -41.2 4.0 -40.85 3.75 -37.75 L3.75 -2.6 Q3.75 -1.65 4.55 -0.45 5.4 0.7 7.25 0.8 10.7 0.55 11.0 -2.55 L11.0 -16.2 Q11.0 -18.45 12.9 -21.0 14.8 -23.55 18.95 -23.8 22.5 -23.6 23.55 -21.75 24.55 -19.9 24.45 -18.75 L24.45 -2.6 Q24.4 -1.6 25.3 -0.45 26.15 0.7 28.0 0.8 31.4 0.6 31.7 -2.55 L31.7 -20.8 31.7 -20.8" fill-rule="evenodd" stroke="none"/>
    </g>
    <g id="font_A-OTF_____Pro_501_e0">
      <path d="M10.15 -18.6 L10.15 -18.6 Q10.2 -19.65 11.4 -21.8 12.6 -23.95 16.1 -24.2 19.1 -24.0 20.35 -22.25 21.6 -20.55 21.55 -19.2 21.75 -18.6 20.1 -18.6 L10.15 -18.6 10.15 -18.6 M24.75 -12.4 L24.75 -12.4 Q29.05 -12.5 28.85 -18.25 28.7 -23.65 25.05 -27.05 21.45 -30.5 16.0 -30.6 11.0 -30.7 6.85 -26.95 2.7 -23.2 2.45 -14.4 2.85 -5.0 7.6 -2.0 12.4 1.05 16.45 0.8 21.75 0.65 25.05 -1.75 28.35 -4.15 28.45 -7.15 28.45 -8.4 27.6 -9.4 26.75 -10.35 25.25 -10.4 23.25 -10.65 21.55 -8.25 19.2 -5.25 16.7 -5.6 12.4 -5.85 11.15 -8.35 9.95 -10.85 9.95 -12.4 L24.75 -12.4 24.75 -12.4" fill-rule="evenodd" stroke="none"/>
    </g>
    <g id="font_A-OTF_____Pro_501_s0">
      <path d="M15.55 0.8 L15.55 0.8 Q22.65 0.6 25.75 -2.35 28.9 -5.3 28.8 -8.95 28.9 -10.1 28.35 -11.85 27.8 -13.6 25.9 -15.15 24.65 -16.15 22.5 -16.8 L13.95 -19.0 Q10.6 -19.65 10.55 -21.6 10.75 -23.3 12.55 -23.9 L15.7 -24.4 Q18.7 -24.45 21.25 -22.7 23.75 -21.25 24.7 -21.5 26.55 -21.55 27.4 -22.6 28.2 -23.6 28.2 -24.6 27.95 -27.4 24.0 -28.95 20.0 -30.55 15.55 -30.6 9.4 -30.45 6.15 -27.7 2.9 -25.0 2.9 -21.3 2.85 -18.0 5.8 -15.7 8.75 -13.4 15.4 -12.25 L19.4 -11.25 Q21.05 -10.6 21.15 -8.85 21.25 -8.1 20.35 -6.9 19.45 -5.7 16.65 -5.55 13.5 -5.6 11.7 -6.5 9.9 -7.35 8.65 -8.6 L6.45 -10.25 4.9 -10.55 Q1.55 -10.4 1.35 -7.45 1.5 -4.7 5.4 -2.05 9.3 0.6 15.55 0.8 L15.55 0.8" fill-rule="evenodd" stroke="none"/>
    </g>
    <g id="font_A-OTF_____Pro_501_t0">
      <path d="M7.05 -23.6 L7.05 -23.6 7.05 -7.7 Q6.85 -5.7 8.1 -2.65 9.35 0.45 14.65 0.8 19.65 0.45 22.0 -2.75 24.4 -5.9 24.4 -7.9 24.4 -9.05 23.5 -10.05 22.6 -11.1 20.85 -11.2 19.15 -11.55 17.4 -8.45 16.3 -6.25 15.2 -6.35 13.95 -6.7 14.1 -7.95 L14.1 -23.6 20.75 -23.6 Q21.7 -23.6 22.75 -24.3 23.8 -25.05 23.9 -26.65 23.7 -29.45 20.75 -29.8 L14.1 -29.8 14.1 -35.4 Q14.1 -36.5 13.25 -37.45 12.4 -38.45 10.65 -38.55 7.45 -38.45 7.05 -35.35 L7.05 -29.8 4.4 -29.8 Q3.3 -29.75 2.3 -29.0 1.3 -28.2 1.25 -26.75 1.25 -25.55 2.1 -24.6 2.9 -23.65 4.4 -23.6 L7.05 -23.6 7.05 -23.6" fill-rule="evenodd" stroke="none"/>
    </g>
    <g id="font_A-OTF_____Pro_501_C0">
      <path d="M23.35 -41.2 L23.35 -41.2 Q12.8 -40.9 7.7 -34.7 2.65 -28.5 2.65 -20.1 2.6 -15.35 4.55 -10.55 6.5 -5.8 11.05 -2.55 15.6 0.7 23.4 0.8 30.3 0.65 34.0 -1.75 37.7 -4.2 39.1 -6.95 40.45 -9.7 40.4 -10.95 40.15 -13.8 36.45 -14.1 34.8 -14.1 33.95 -13.3 L32.45 -11.35 Q31.45 -9.5 29.5 -8.05 27.5 -6.65 23.35 -6.6 15.85 -7.0 13.3 -11.55 10.8 -16.1 11.0 -20.15 10.9 -21.65 11.6 -24.85 12.25 -28.1 15.0 -30.85 17.7 -33.6 23.65 -33.8 28.1 -33.75 30.05 -32.3 32.0 -30.85 33.2 -28.8 33.45 -27.6 36.4 -27.25 40.1 -27.35 40.4 -30.75 40.35 -33.9 36.0 -37.4 31.65 -40.9 23.35 -41.2 L23.35 -41.2" fill-rule="evenodd" stroke="none"/>
    </g>
    <g id="font_A-OTF_____Pro_501_o0">
      <path d="M17.7 -23.8 L17.7 -23.8 Q22.9 -23.45 24.3 -20.3 25.7 -17.1 25.55 -14.85 25.7 -12.65 24.3 -9.5 22.9 -6.3 17.7 -6.0 12.5 -6.3 11.1 -9.5 9.75 -12.65 9.9 -14.85 9.75 -17.1 11.15 -20.3 12.55 -23.45 17.7 -23.8 L17.7 -23.8 M17.7 -30.6 L17.7 -30.6 Q8.85 -30.25 5.55 -25.2 2.25 -20.2 2.45 -14.85 2.25 -9.55 5.55 -4.55 8.85 0.45 17.7 0.8 26.6 0.45 29.9 -4.55 33.2 -9.55 33.0 -14.85 33.2 -20.2 29.9 -25.2 26.6 -30.2 17.7 -30.6 L17.7 -30.6" fill-rule="evenodd" stroke="none"/>
    </g>
    <g id="font_A-OTF_____Pro_501_m0">
      <path d="M45.35 -23.05 L45.35 -23.05 Q45.3 -26.4 42.7 -28.45 40.1 -30.55 35.1 -30.6 30.9 -30.5 29.05 -29.45 27.2 -28.4 26.7 -27.7 25.15 -29.45 23.1 -30.05 L19.15 -30.6 Q15.4 -30.55 13.65 -29.65 11.85 -28.8 10.95 -27.75 L9.8 -29.5 Q8.95 -30.5 6.8 -30.6 5.0 -30.55 3.9 -29.6 2.8 -28.65 3.0 -27.2 L3.5 -24.85 3.75 -23.2 3.75 -2.6 Q3.75 -1.55 4.6 -0.4 5.5 0.7 7.35 0.8 10.75 0.55 11.0 -2.55 L11.0 -18.05 Q10.9 -19.2 11.85 -21.35 12.85 -23.55 16.6 -23.8 L19.05 -23.3 Q20.7 -22.7 20.9 -19.95 L20.9 -2.6 Q20.9 -1.6 21.75 -0.45 22.6 0.7 24.5 0.8 27.95 0.5 28.15 -2.55 L28.15 -18.05 Q28.05 -19.2 29.0 -21.35 30.0 -23.55 33.75 -23.8 L36.2 -23.3 Q37.85 -22.7 38.05 -19.95 L38.05 -2.6 Q38.05 -1.6 38.9 -0.45 39.75 0.7 41.6 0.8 45.0 0.6 45.35 -2.55 L45.35 -23.05 45.35 -23.05" fill-rule="evenodd" stroke="none"/>
    </g>
    <g id="font_A-OTF_____Pro_501_b0">
      <path d="M11.0 -16.85 L11.0 -16.85 Q10.85 -18.35 12.2 -20.9 13.55 -23.5 18.6 -23.8 21.25 -23.95 23.4 -22.2 25.6 -20.45 25.75 -14.6 25.8 -10.7 24.05 -8.4 22.3 -6.05 18.35 -6.0 14.5 -6.15 12.75 -8.4 11.0 -10.65 11.0 -13.2 L11.0 -16.85 11.0 -16.85 M3.75 -2.75 L3.75 -2.75 Q3.65 -1.5 4.15 -0.4 4.6 0.75 6.8 0.8 10.55 0.4 10.5 -2.65 11.55 -1.4 13.4 -0.35 15.25 0.75 19.1 0.8 26.5 0.6 29.8 -4.1 33.05 -8.8 33.0 -15.05 33.1 -21.25 29.95 -25.8 26.8 -30.35 19.55 -30.6 L16.05 -30.25 Q13.5 -29.85 11.0 -27.95 L11.0 -37.85 Q11.0 -38.85 10.2 -39.95 9.35 -41.1 7.55 -41.2 4.05 -40.85 3.75 -37.9 L3.75 -2.75 3.75 -2.75" fill-rule="evenodd" stroke="none"/>
    </g>
  </defs>
</svg>
