<?xml version="1.0" encoding="UTF-8" standalone="no"?>
<svg xmlns:xlink="http://www.w3.org/1999/xlink" height="29.1px" width="287.6px" xmlns="http://www.w3.org/2000/svg">
  <g transform="matrix(1.0, 0.0, 0.0, 1.0, -95.7, -0.75)">
    <g transform="matrix(1.0, 0.0, 0.0, 1.0, 0.0, 0.0)">
      <use fill="#000000" height="29.1" transform="matrix(0.2734, 0.0, 0.0, 0.2734, 95.0, 12.0)" width="287.6" xlink:href="#font_A-OTF_____Pro_501_T0"/>
      <use fill="#000000" height="29.1" transform="matrix(0.2734, 0.0, 0.0, 0.2734, 104.6, 12.0)" width="287.6" xlink:href="#font_A-OTF_____Pro_501_h0"/>
      <use fill="#000000" height="29.1" transform="matrix(0.2734, 0.0, 0.0, 0.2734, 113.4, 12.0)" width="287.6" xlink:href="#font_A-OTF_____Pro_501_e0"/>
      <use fill="#000000" height="29.1" transform="matrix(0.2734, 0.0, 0.0, 0.2734, 121.2, 12.0)" width="287.6" xlink:href="#font_A-OTF_____Pro_501_r0"/>
      <use fill="#000000" height="29.1" transform="matrix(0.2734, 0.0, 0.0, 0.2734, 128.2, 12.0)" width="287.6" xlink:href="#font_A-OTF_____Pro_501_e0"/>
      <use fill="#000000" height="29.1" transform="matrix(0.2734, 0.0, 0.0, 0.2734, 136.0, 12.0)" width="287.6" xlink:href="#font_A-OTF_____Pro_501__0"/>
      <use fill="#000000" height="29.1" transform="matrix(0.2734, 0.0, 0.0, 0.2734, 138.85, 12.0)" width="287.6" xlink:href="#font_A-OTF_____Pro_501_s0"/>
      <use fill="#000000" height="29.1" transform="matrix(0.2734, 0.0, 0.0, 0.2734, 151.3, 12.0)" width="287.6" xlink:href="#font_A-OTF_____Pro_501_m0"/>
      <use fill="#000000" height="29.1" transform="matrix(0.2734, 0.0, 0.0, 0.2734, 163.5, 12.0)" width="287.6" xlink:href="#font_A-OTF_____Pro_501_o0"/>
      <use fill="#000000" height="29.1" transform="matrix(0.2734, 0.0, 0.0, 0.2734, 172.3, 12.0)" width="287.6" xlink:href="#font_A-OTF_____Pro_501_r0"/>
      <use fill="#000000" height="29.1" transform="matrix(0.2734, 0.0, 0.0, 0.2734, 179.3, 12.0)" width="287.6" xlink:href="#font_A-OTF_____Pro_501_e0"/>
      <use fill="#000000" height="29.1" transform="matrix(0.2734, 0.0, 0.0, 0.2734, 187.1, 12.0)" width="287.6" xlink:href="#font_A-OTF_____Pro_501__2"/>
      <use fill="#000000" height="29.1" transform="matrix(0.2734, 0.0, 0.0, 0.2734, 196.15, 12.0)" width="287.6" xlink:href="#font_A-OTF_____Pro_501_P0"/>
      <use fill="#000000" height="29.1" transform="matrix(0.2734, 0.0, 0.0, 0.2734, 205.75, 12.0)" width="287.6" xlink:href="#font_A-OTF_____Pro_501_l0"/>
      <use fill="#000000" height="29.1" transform="matrix(0.2734, 0.0, 0.0, 0.2734, 210.15, 12.0)" width="287.6" xlink:href="#font_A-OTF_____Pro_501_a0"/>
      <use fill="#000000" height="29.1" transform="matrix(0.2734, 0.0, 0.0, 0.2734, 218.95, 12.0)" width="287.6" xlink:href="#font_A-OTF_____Pro_501_y0"/>
      <use fill="#000000" height="29.1" transform="matrix(0.2734, 0.0, 0.0, 0.2734, 232.4, 12.0)" width="287.6" xlink:href="#font_A-OTF_____Pro_501_R0"/>
      <use fill="#000000" height="29.1" transform="matrix(0.2734, 0.0, 0.0, 0.2734, 243.05, 12.0)" width="287.6" xlink:href="#font_A-OTF_____Pro_501_o0"/>
      <use fill="#000000" height="29.1" transform="matrix(0.2734, 0.0, 0.0, 0.2734, 251.85, 12.0)" width="287.6" xlink:href="#font_A-OTF_____Pro_501_u0"/>
      <use fill="#000000" height="29.1" transform="matrix(0.2734, 0.0, 0.0, 0.2734, 260.65, 12.0)" width="287.6" xlink:href="#font_A-OTF_____Pro_501_n0"/>
      <use fill="#000000" height="29.1" transform="matrix(0.2734, 0.0, 0.0, 0.2734, 269.45, 12.0)" width="287.6" xlink:href="#font_A-OTF_____Pro_501_d0"/>
      <use fill="#000000" height="29.1" transform="matrix(0.2734, 0.0, 0.0, 0.2734, 282.9, 12.0)" width="287.6" xlink:href="#font_A-OTF_____Pro_501_20"/>
      <use fill="#000000" height="29.1" transform="matrix(0.2734, 0.0, 0.0, 0.2734, 296.35, 12.0)" width="287.6" xlink:href="#font_A-OTF_____Pro_501_a0"/>
      <use fill="#000000" height="29.1" transform="matrix(0.2734, 0.0, 0.0, 0.2734, 305.15, 12.0)" width="287.6" xlink:href="#font_A-OTF_____Pro_501_n0"/>
      <use fill="#000000" height="29.1" transform="matrix(0.2734, 0.0, 0.0, 0.2734, 313.95, 12.0)" width="287.6" xlink:href="#font_A-OTF_____Pro_501_d0"/>
      <use fill="#000000" height="29.1" transform="matrix(0.2734, 0.0, 0.0, 0.2734, 327.4, 12.0)" width="287.6" xlink:href="#font_A-OTF_____Pro_501_b0"/>
      <use fill="#000000" height="29.1" transform="matrix(0.2734, 0.0, 0.0, 0.2734, 336.2, 12.0)" width="287.6" xlink:href="#font_A-OTF_____Pro_501_e0"/>
      <use fill="#000000" height="29.1" transform="matrix(0.2734, 0.0, 0.0, 0.2734, 344.0, 12.0)" width="287.6" xlink:href="#font_A-OTF_____Pro_501_y0"/>
      <use fill="#000000" height="29.1" transform="matrix(0.2734, 0.0, 0.0, 0.2734, 352.8, 12.0)" width="287.6" xlink:href="#font_A-OTF_____Pro_501_o0"/>
      <use fill="#000000" height="29.1" transform="matrix(0.2734, 0.0, 0.0, 0.2734, 361.6, 12.0)" width="287.6" xlink:href="#font_A-OTF_____Pro_501_n0"/>
      <use fill="#000000" height="29.1" transform="matrix(0.2734, 0.0, 0.0, 0.2734, 370.4, 12.0)" width="287.6" xlink:href="#font_A-OTF_____Pro_501_d0"/>
      <use fill="#000000" height="29.1" transform="matrix(0.2734, 0.0, 0.0, 0.2734, 379.2, 12.0)" width="287.6" xlink:href="#font_A-OTF_____Pro_501_.0"/>
    </g>
    <g transform="matrix(1.0, 0.0, 0.0, 1.0, 0.0, 0.0)">
      <use fill="#000000" height="29.1" transform="matrix(0.2734, 0.0, 0.0, 0.2734, 132.0, 28.0)" width="287.6" xlink:href="#font_A-OTF_____Pro_501_E0"/>
      <use fill="#000000" height="29.1" transform="matrix(0.2734, 0.0, 0.0, 0.2734, 140.8, 28.0)" width="287.6" xlink:href="#font_A-OTF_____Pro_501_a0"/>
      <use fill="#000000" height="29.1" transform="matrix(0.2734, 0.0, 0.0, 0.2734, 149.6, 28.0)" width="287.6" xlink:href="#font_A-OTF_____Pro_501_c0"/>
      <use fill="#000000" height="29.1" transform="matrix(0.2734, 0.0, 0.0, 0.2734, 157.4, 28.0)" width="287.6" xlink:href="#font_A-OTF_____Pro_501_h0"/>
      <use fill="#000000" height="29.1" transform="matrix(0.2734, 0.0, 0.0, 0.2734, 170.85, 28.0)" width="287.6" xlink:href="#font_A-OTF_____Pro_501_l0"/>
      <use fill="#000000" height="29.1" transform="matrix(0.2734, 0.0, 0.0, 0.2734, 175.25, 28.0)" width="287.6" xlink:href="#font_A-OTF_____Pro_501_e0"/>
      <use fill="#000000" height="29.1" transform="matrix(0.2734, 0.0, 0.0, 0.2734, 183.05, 28.0)" width="287.6" xlink:href="#font_A-OTF_____Pro_501_v0"/>
      <use fill="#000000" height="29.1" transform="matrix(0.2734, 0.0, 0.0, 0.2734, 191.85, 28.0)" width="287.6" xlink:href="#font_A-OTF_____Pro_501_e0"/>
      <use fill="#000000" height="29.1" transform="matrix(0.2734, 0.0, 0.0, 0.2734, 199.65, 28.0)" width="287.6" xlink:href="#font_A-OTF_____Pro_501_l0"/>
      <use fill="#000000" height="29.1" transform="matrix(0.2734, 0.0, 0.0, 0.2734, 208.7, 28.0)" width="287.6" xlink:href="#font_A-OTF_____Pro_501_g0"/>
      <use fill="#000000" height="29.1" transform="matrix(0.2734, 0.0, 0.0, 0.2734, 217.5, 28.0)" width="287.6" xlink:href="#font_A-OTF_____Pro_501_e0"/>
      <use fill="#000000" height="29.1" transform="matrix(0.2734, 0.0, 0.0, 0.2734, 225.3, 28.0)" width="287.6" xlink:href="#font_A-OTF_____Pro_501_t0"/>
      <use fill="#000000" height="29.1" transform="matrix(0.2734, 0.0, 0.0, 0.2734, 231.5, 28.0)" width="287.6" xlink:href="#font_A-OTF_____Pro_501_s0"/>
      <use fill="#000000" height="29.1" transform="matrix(0.2734, 0.0, 0.0, 0.2734, 243.95, 28.0)" width="287.6" xlink:href="#font_A-OTF_____Pro_501_a0"/>
      <use fill="#000000" height="29.1" transform="matrix(0.2734, 0.0, 0.0, 0.2734, 257.4, 28.0)" width="287.6" xlink:href="#font_A-OTF_____Pro_501_l0"/>
      <use fill="#000000" height="29.1" transform="matrix(0.2734, 0.0, 0.0, 0.2734, 261.8, 28.0)" width="287.6" xlink:href="#font_A-OTF_____Pro_501_i0"/>
      <use fill="#000000" height="29.1" transform="matrix(0.2734, 0.0, 0.0, 0.2734, 266.2, 28.0)" width="287.6" xlink:href="#font_A-OTF_____Pro_501_t0"/>
      <use fill="#000000" height="29.1" transform="matrix(0.2734, 0.0, 0.0, 0.2734, 272.4, 28.0)" width="287.6" xlink:href="#font_A-OTF_____Pro_501_t0"/>
      <use fill="#000000" height="29.1" transform="matrix(0.2734, 0.0, 0.0, 0.2734, 278.6, 28.0)" width="287.6" xlink:href="#font_A-OTF_____Pro_501_l0"/>
      <use fill="#000000" height="29.1" transform="matrix(0.2734, 0.0, 0.0, 0.2734, 283.0, 28.0)" width="287.6" xlink:href="#font_A-OTF_____Pro_501_e0"/>
      <use fill="#000000" height="29.1" transform="matrix(0.2734, 0.0, 0.0, 0.2734, 295.45, 28.0)" width="287.6" xlink:href="#font_A-OTF_____Pro_501_h0"/>
      <use fill="#000000" height="29.1" transform="matrix(0.2734, 0.0, 0.0, 0.2734, 304.25, 28.0)" width="287.6" xlink:href="#font_A-OTF_____Pro_501_a0"/>
      <use fill="#000000" height="29.1" transform="matrix(0.2734, 0.0, 0.0, 0.2734, 313.05, 28.0)" width="287.6" xlink:href="#font_A-OTF_____Pro_501_r0"/>
      <use fill="#000000" height="29.1" transform="matrix(0.2734, 0.0, 0.0, 0.2734, 320.05, 28.0)" width="287.6" xlink:href="#font_A-OTF_____Pro_501_d0"/>
      <use fill="#000000" height="29.1" transform="matrix(0.2734, 0.0, 0.0, 0.2734, 328.85, 28.0)" width="287.6" xlink:href="#font_A-OTF_____Pro_501_e0"/>
      <use fill="#000000" height="29.1" transform="matrix(0.2734, 0.0, 0.0, 0.2734, 336.65, 28.0)" width="287.6" xlink:href="#font_A-OTF_____Pro_501_r0"/>
      <use fill="#000000" height="29.1" transform="matrix(0.2734, 0.0, 0.0, 0.2734, 343.65, 28.0)" width="287.6" xlink:href="#font_A-OTF_____Pro_501_.0"/>
    </g>
  </g>
  <defs>
    <g id="font_A-OTF_____Pro_501_T0">
      <path d="M23.35 -33.2 L23.35 -33.2 33.1 -33.2 Q34.35 -33.15 35.65 -33.95 36.9 -34.75 37.0 -36.6 37.0 -38.1 35.95 -39.25 34.85 -40.35 33.1 -40.4 L5.65 -40.4 Q4.45 -40.4 3.15 -39.5 1.85 -38.6 1.75 -36.8 1.95 -33.4 5.65 -33.2 L15.4 -33.2 15.4 -2.45 Q15.4 -1.45 16.25 -0.35 17.15 0.7 19.35 0.8 20.9 0.8 22.1 -0.05 23.25 -0.9 23.35 -2.55 L23.35 -33.2 23.35 -33.2" fill-rule="evenodd" stroke="none"/>
    </g>
    <g id="font_A-OTF_____Pro_501_h0">
      <path d="M31.7 -20.8 L31.7 -20.8 Q31.5 -25.7 27.95 -28.15 24.35 -30.6 19.8 -30.6 L16.25 -30.15 Q13.65 -29.55 11.0 -26.95 L11.0 -37.8 Q11.0 -38.85 10.15 -40.0 9.3 -41.1 7.5 -41.2 4.0 -40.85 3.75 -37.75 L3.75 -2.6 Q3.75 -1.65 4.55 -0.45 5.4 0.7 7.25 0.8 10.7 0.55 11.0 -2.55 L11.0 -16.2 Q11.0 -18.45 12.9 -21.0 14.8 -23.55 18.95 -23.8 22.5 -23.6 23.55 -21.75 24.55 -19.9 24.45 -18.75 L24.45 -2.6 Q24.4 -1.6 25.3 -0.45 26.15 0.7 28.0 0.8 31.4 0.6 31.7 -2.55 L31.7 -20.8 31.7 -20.8" fill-rule="evenodd" stroke="none"/>
    </g>
    <g id="font_A-OTF_____Pro_501_e0">
      <path d="M10.15 -18.6 L10.15 -18.6 Q10.2 -19.65 11.4 -21.8 12.6 -23.95 16.1 -24.2 19.1 -24.0 20.35 -22.25 21.6 -20.55 21.55 -19.2 21.75 -18.6 20.1 -18.6 L10.15 -18.6 10.15 -18.6 M24.75 -12.4 L24.75 -12.4 Q29.05 -12.5 28.85 -18.25 28.7 -23.65 25.05 -27.05 21.45 -30.5 16.0 -30.6 11.0 -30.7 6.85 -26.95 2.7 -23.2 2.45 -14.4 2.85 -5.0 7.6 -2.0 12.4 1.05 16.45 0.8 21.75 0.65 25.05 -1.75 28.35 -4.15 28.45 -7.15 28.45 -8.4 27.6 -9.4 26.75 -10.35 25.25 -10.4 23.25 -10.65 21.55 -8.25 19.2 -5.25 16.7 -5.6 12.4 -5.85 11.15 -8.35 9.95 -10.85 9.95 -12.4 L24.75 -12.4 24.75 -12.4" fill-rule="evenodd" stroke="none"/>
    </g>
    <g id="font_A-OTF_____Pro_501_r0">
      <path d="M11.45 -14.95 L11.45 -14.95 Q11.5 -15.7 12.85 -17.8 14.25 -19.9 16.25 -21.8 18.25 -23.65 20.3 -23.8 L22.05 -23.6 23.9 -23.4 Q27.1 -23.65 27.15 -26.5 27.0 -28.7 24.9 -29.65 22.8 -30.6 20.65 -30.6 19.6 -30.75 16.85 -29.95 14.1 -29.15 11.45 -25.55 L11.45 -27.15 Q11.25 -29.6 9.85 -30.15 L7.8 -30.6 Q4.5 -30.45 4.2 -27.45 L4.2 -2.25 Q4.15 -1.2 5.0 -0.25 5.85 0.75 7.9 0.8 9.2 0.8 10.3 0.1 11.4 -0.65 11.45 -2.1 L11.45 -14.95 11.45 -14.95" fill-rule="evenodd" stroke="none"/>
    </g>
    <g id="font_A-OTF_____Pro_501__0">
      <path d="M8.6 -38.35 L8.6 -38.35 Q8.65 -40.4 7.45 -40.85 L5.75 -41.2 Q2.65 -41.15 2.85 -38.35 L4.2 -26.7 Q4.35 -25.35 5.75 -25.3 6.7 -25.4 7.0 -25.9 L7.3 -26.7 8.6 -38.35 8.6 -38.35" fill-rule="evenodd" stroke="none"/>
    </g>
    <g id="font_A-OTF_____Pro_501_s0">
      <path d="M15.55 0.8 L15.55 0.8 Q22.65 0.6 25.75 -2.35 28.9 -5.3 28.8 -8.95 28.9 -10.1 28.35 -11.85 27.8 -13.6 25.9 -15.15 24.65 -16.15 22.5 -16.8 L13.95 -19.0 Q10.6 -19.65 10.55 -21.6 10.75 -23.3 12.55 -23.9 L15.7 -24.4 Q18.7 -24.45 21.25 -22.7 23.75 -21.25 24.7 -21.5 26.55 -21.55 27.4 -22.6 28.2 -23.6 28.2 -24.6 27.95 -27.4 24.0 -28.95 20.0 -30.55 15.55 -30.6 9.4 -30.45 6.15 -27.7 2.9 -25.0 2.9 -21.3 2.85 -18.0 5.8 -15.7 8.75 -13.4 15.4 -12.25 L19.4 -11.25 Q21.05 -10.6 21.15 -8.85 21.25 -8.1 20.35 -6.9 19.45 -5.7 16.65 -5.55 13.5 -5.6 11.7 -6.5 9.9 -7.35 8.65 -8.6 L6.45 -10.25 4.9 -10.55 Q1.55 -10.4 1.35 -7.45 1.5 -4.7 5.4 -2.05 9.3 0.6 15.55 0.8 L15.55 0.8" fill-rule="evenodd" stroke="none"/>
    </g>
    <g id="font_A-OTF_____Pro_501_m0">
      <path d="M45.35 -23.05 L45.35 -23.05 Q45.3 -26.4 42.7 -28.45 40.1 -30.55 35.1 -30.6 30.9 -30.5 29.05 -29.45 27.2 -28.4 26.7 -27.7 25.15 -29.45 23.1 -30.05 L19.15 -30.6 Q15.4 -30.55 13.65 -29.65 11.85 -28.8 10.95 -27.75 L9.8 -29.5 Q8.95 -30.5 6.8 -30.6 5.0 -30.55 3.9 -29.6 2.8 -28.65 3.0 -27.2 L3.5 -24.85 3.75 -23.2 3.75 -2.6 Q3.75 -1.55 4.6 -0.4 5.5 0.7 7.35 0.8 10.75 0.55 11.0 -2.55 L11.0 -18.05 Q10.9 -19.2 11.85 -21.35 12.85 -23.55 16.6 -23.8 L19.05 -23.3 Q20.7 -22.7 20.9 -19.95 L20.9 -2.6 Q20.9 -1.6 21.75 -0.45 22.6 0.7 24.5 0.8 27.95 0.5 28.15 -2.55 L28.15 -18.05 Q28.05 -19.2 29.0 -21.35 30.0 -23.55 33.75 -23.8 L36.2 -23.3 Q37.85 -22.7 38.05 -19.95 L38.05 -2.6 Q38.05 -1.6 38.9 -0.45 39.75 0.7 41.6 0.8 45.0 0.6 45.35 -2.55 L45.35 -23.05 45.35 -23.05" fill-rule="evenodd" stroke="none"/>
    </g>
    <g id="font_A-OTF_____Pro_501_o0">
      <path d="M17.7 -23.8 L17.7 -23.8 Q22.9 -23.45 24.3 -20.3 25.7 -17.1 25.55 -14.85 25.7 -12.65 24.3 -9.5 22.9 -6.3 17.7 -6.0 12.5 -6.3 11.1 -9.5 9.75 -12.65 9.9 -14.85 9.75 -17.1 11.15 -20.3 12.55 -23.45 17.7 -23.8 L17.7 -23.8 M17.7 -30.6 L17.7 -30.6 Q8.85 -30.25 5.55 -25.2 2.25 -20.2 2.45 -14.85 2.25 -9.55 5.55 -4.55 8.85 0.45 17.7 0.8 26.6 0.45 29.9 -4.55 33.2 -9.55 33.0 -14.85 33.2 -20.2 29.9 -25.2 26.6 -30.2 17.7 -30.6 L17.7 -30.6" fill-rule="evenodd" stroke="none"/>
    </g>
    <g id="font_A-OTF_____Pro_501__2">
      <path d="M8.8 -8.75 L8.8 -8.75 Q6.6 -8.7 5.1 -7.4 3.6 -6.05 3.55 -4.0 3.6 -1.95 5.1 -0.6 6.55 0.75 8.8 0.8 11.0 0.75 12.5 -0.6 14.0 -1.95 14.05 -4.0 14.0 -6.05 12.5 -7.4 11.0 -8.7 8.8 -8.75 L8.8 -8.75 M13.4 -35.05 L13.4 -35.05 Q13.75 -37.45 12.8 -39.3 11.85 -41.1 8.8 -41.2 5.55 -41.05 4.7 -39.05 3.9 -37.1 4.2 -35.05 L6.55 -13.05 Q6.75 -10.7 8.85 -10.65 10.85 -10.75 11.0 -13.05 L13.4 -35.05 13.4 -35.05" fill-rule="evenodd" stroke="none"/>
    </g>
    <g id="font_A-OTF_____Pro_501_P0">
      <path d="M12.35 -22.15 L12.35 -22.15 12.35 -31.6 Q12.25 -33.95 15.05 -33.6 L21.3 -33.6 Q23.6 -33.65 25.7 -32.45 27.8 -31.25 27.95 -27.95 27.9 -24.9 25.9 -23.5 23.95 -22.15 20.85 -22.15 L12.35 -22.15 12.35 -22.15 M12.35 -15.2 L12.35 -15.2 23.2 -15.2 Q28.7 -15.25 32.35 -18.65 35.95 -22.05 36.1 -28.15 36.1 -33.1 32.85 -36.65 29.6 -40.2 23.2 -40.4 L11.2 -40.4 Q8.2 -40.45 6.35 -38.95 4.45 -37.5 4.4 -34.1 L4.4 -2.45 Q4.4 -1.3 5.3 -0.3 6.25 0.75 8.3 0.8 9.85 0.8 11.05 -0.05 12.25 -0.9 12.35 -2.55 L12.35 -15.2 12.35 -15.2" fill-rule="evenodd" stroke="none"/>
    </g>
    <g id="font_A-OTF_____Pro_501_l0">
      <path d="M5.3 -2.6 L5.3 -2.6 Q5.6 0.55 9.1 0.8 10.85 0.7 11.7 -0.4 12.55 -1.5 12.55 -2.5 L12.55 -37.85 Q12.35 -40.85 8.85 -41.2 5.55 -40.8 5.3 -37.75 L5.3 -2.6 5.3 -2.6" fill-rule="evenodd" stroke="none"/>
    </g>
    <g id="font_A-OTF_____Pro_501_a0">
      <path d="M24.45 -10.2 L24.45 -10.2 Q24.4 -8.95 22.3 -7.35 20.2 -5.7 16.25 -5.55 13.45 -5.55 11.7 -6.4 9.95 -7.3 9.9 -9.4 10.25 -12.55 13.2 -13.25 L17.95 -13.8 Q24.1 -13.65 24.45 -12.2 L24.45 -10.2 24.45 -10.2 M31.7 -17.55 L31.7 -17.55 Q31.8 -19.7 31.15 -22.7 30.55 -25.75 27.55 -28.1 24.6 -30.45 17.7 -30.6 12.2 -30.55 8.3 -28.95 4.45 -27.35 4.25 -24.7 4.6 -21.7 7.85 -21.4 L9.15 -21.65 12.05 -23.05 Q14.0 -24.15 17.4 -24.2 22.35 -24.05 23.45 -22.25 24.6 -20.5 24.45 -19.25 23.2 -19.9 18.0 -20.2 8.85 -19.9 5.55 -16.5 2.25 -13.05 2.45 -9.45 2.45 -5.05 5.75 -2.1 9.0 0.9 15.1 1.0 21.15 1.1 25.8 -2.5 26.0 -1.3 26.75 -0.25 27.45 0.85 29.6 0.95 33.2 0.55 33.25 -1.9 33.3 -2.7 32.7 -4.15 31.8 -5.8 31.7 -8.35 L31.7 -17.55 31.7 -17.55" fill-rule="evenodd" stroke="none"/>
    </g>
    <g id="font_A-OTF_____Pro_501_y0">
      <path d="M11.75 -8.65 L11.75 -8.65 Q12.7 -6.95 13.5 -6.25 14.25 -5.55 15.85 -5.15 13.8 0.15 10.75 -0.15 L8.8 -0.35 4.95 -1.1 Q4.0 -1.1 2.85 -0.35 1.7 0.45 1.6 2.2 1.6 6.55 10.55 6.8 13.8 6.9 16.55 5.6 19.3 4.25 21.2 0.35 L33.4 -25.3 Q33.9 -26.3 33.9 -27.15 33.75 -29.35 32.5 -30.1 31.2 -30.85 30.1 -30.8 28.35 -30.7 27.55 -29.8 L26.6 -28.55 18.85 -12.3 Q17.9 -12.05 16.9 -14.3 L8.65 -28.7 Q7.95 -30.5 5.1 -30.6 4.0 -30.6 2.85 -29.7 1.65 -28.85 1.55 -27.1 1.45 -26.35 2.1 -24.95 L11.75 -8.65 11.75 -8.65" fill-rule="evenodd" stroke="none"/>
    </g>
    <g id="font_A-OTF_____Pro_501_R0">
      <path d="M12.35 -24.0 L12.35 -24.0 12.35 -31.6 Q12.25 -33.95 15.05 -33.6 L25.85 -33.6 Q28.45 -33.6 30.25 -32.55 32.05 -31.5 32.15 -28.85 32.05 -25.95 30.15 -24.9 28.3 -23.9 25.4 -24.0 L12.35 -24.0 12.35 -24.0 M12.35 -17.2 L12.35 -17.2 20.1 -17.2 Q22.8 -16.85 25.55 -13.35 28.35 -9.85 29.85 -7.1 L33.15 -1.1 Q34.35 1.15 37.15 1.0 39.15 0.95 40.15 -0.15 41.15 -1.2 41.15 -2.35 40.95 -4.05 40.2 -4.9 L34.35 -13.8 33.1 -15.4 30.55 -17.55 Q32.55 -17.8 36.2 -20.15 39.85 -22.45 40.25 -28.9 40.2 -33.95 36.7 -37.15 33.25 -40.3 27.2 -40.4 L11.2 -40.4 Q4.15 -40.3 4.4 -34.1 L4.4 -2.45 Q4.4 -1.4 5.25 -0.35 6.15 0.75 8.3 0.8 9.9 0.8 11.1 -0.05 12.25 -0.9 12.35 -2.55 L12.35 -17.2 12.35 -17.2" fill-rule="evenodd" stroke="none"/>
    </g>
    <g id="font_A-OTF_____Pro_501_u0">
      <path d="M3.75 -8.4 L3.75 -8.4 Q3.8 -4.25 6.8 -1.75 9.75 0.75 14.75 0.8 19.25 0.7 21.45 -0.5 23.6 -1.7 24.2 -2.5 24.7 -1.35 25.65 -0.3 26.65 0.75 28.5 0.8 32.2 0.4 32.15 -2.25 L31.9 -5.0 31.7 -7.85 31.7 -27.2 Q31.7 -28.3 30.8 -29.4 29.9 -30.5 28.15 -30.6 24.7 -30.3 24.45 -27.25 L24.45 -12.25 Q24.45 -10.3 22.5 -8.15 20.55 -5.95 16.65 -5.8 13.2 -5.9 12.05 -7.7 10.9 -9.45 11.0 -11.3 L11.0 -27.2 Q11.0 -28.15 10.15 -29.35 9.3 -30.5 7.45 -30.6 4.1 -30.35 3.75 -27.25 L3.75 -8.4 3.75 -8.4" fill-rule="evenodd" stroke="none"/>
    </g>
    <g id="font_A-OTF_____Pro_501_n0">
      <path d="M31.7 -21.3 L31.7 -21.3 Q31.6 -25.45 28.65 -28.0 25.65 -30.5 20.7 -30.6 16.15 -30.45 13.95 -29.25 11.8 -28.05 11.2 -27.3 L9.8 -29.45 Q8.8 -30.5 6.95 -30.6 3.3 -30.2 3.3 -27.55 L3.55 -24.75 3.75 -21.9 3.75 -2.6 Q3.75 -1.3 4.7 -0.3 5.65 0.75 7.4 0.8 10.7 0.6 11.0 -2.55 L11.0 -17.55 Q11.0 -19.45 12.95 -21.6 14.85 -23.8 18.8 -24.0 22.2 -23.85 23.35 -22.1 24.5 -20.35 24.45 -18.45 L24.45 -2.6 Q24.45 -1.45 25.3 -0.35 26.2 0.75 28.05 0.8 31.35 0.6 31.7 -2.55 L31.7 -21.3 31.7 -21.3" fill-rule="evenodd" stroke="none"/>
    </g>
    <g id="font_A-OTF_____Pro_501_d0">
      <path d="M24.45 -13.2 L24.45 -13.2 Q24.55 -11.4 23.05 -8.85 21.55 -6.25 16.85 -6.0 12.55 -6.2 11.15 -9.0 9.8 -11.8 9.9 -14.8 10.15 -21.25 12.75 -22.65 15.3 -24.05 17.0 -23.8 22.35 -23.45 23.5 -20.6 24.65 -17.8 24.45 -16.85 L24.45 -13.2 24.45 -13.2 M31.7 -37.9 L31.7 -37.9 Q31.45 -40.85 27.9 -41.2 26.05 -41.1 25.25 -39.95 24.4 -38.85 24.45 -37.85 L24.45 -27.95 Q22.0 -29.85 19.4 -30.25 L15.95 -30.6 Q8.75 -30.35 5.55 -25.8 2.35 -21.25 2.45 -15.05 2.4 -8.8 5.75 -4.1 9.05 0.6 16.45 0.8 20.2 0.75 22.05 -0.35 23.9 -1.45 24.9 -2.65 24.95 0.4 28.6 0.8 30.8 0.75 31.3 -0.4 31.8 -1.5 31.7 -2.75 L31.7 -37.9 31.7 -37.9" fill-rule="evenodd" stroke="none"/>
    </g>
    <g id="font_A-OTF_____Pro_501_20">
      <path d="M28.9 0.0 L28.9 0.0 Q31.65 -0.15 32.4 -1.35 33.15 -2.55 33.05 -3.4 32.85 -5.7 31.25 -6.15 L28.9 -6.55 11.7 -6.55 Q11.35 -6.55 11.25 -6.8 11.2 -7.75 12.8 -10.15 L14.75 -12.05 Q16.2 -13.2 20.85 -15.8 27.3 -19.25 30.2 -22.3 33.05 -25.35 33.0 -29.75 32.9 -35.1 28.7 -38.1 24.55 -41.15 18.0 -41.2 12.0 -41.05 8.6 -39.0 5.2 -36.95 3.8 -34.4 2.45 -31.85 2.5 -30.3 2.55 -28.55 3.9 -27.6 5.25 -26.65 6.8 -26.65 8.75 -26.7 9.5 -27.65 L10.55 -29.6 Q10.8 -30.7 12.4 -32.35 13.95 -34.0 18.4 -34.2 21.8 -34.1 23.45 -32.65 25.1 -31.2 25.1 -29.5 25.15 -27.25 22.8 -25.4 20.5 -23.5 15.05 -20.45 11.7 -18.7 7.3 -14.65 2.85 -10.6 2.45 -4.5 2.55 -1.9 4.1 -0.95 5.65 0.05 7.55 0.0 L28.9 0.0 28.9 0.0" fill-rule="evenodd" stroke="none"/>
    </g>
    <g id="font_A-OTF_____Pro_501_b0">
      <path d="M11.0 -16.85 L11.0 -16.85 Q10.85 -18.35 12.2 -20.9 13.55 -23.5 18.6 -23.8 21.25 -23.95 23.4 -22.2 25.6 -20.45 25.75 -14.6 25.8 -10.7 24.05 -8.4 22.3 -6.05 18.35 -6.0 14.5 -6.15 12.75 -8.4 11.0 -10.65 11.0 -13.2 L11.0 -16.85 11.0 -16.85 M3.75 -2.75 L3.75 -2.75 Q3.65 -1.5 4.15 -0.4 4.6 0.75 6.8 0.8 10.55 0.4 10.5 -2.65 11.55 -1.4 13.4 -0.35 15.25 0.75 19.1 0.8 26.5 0.6 29.8 -4.1 33.05 -8.8 33.0 -15.05 33.1 -21.25 29.95 -25.8 26.8 -30.35 19.55 -30.6 L16.05 -30.25 Q13.5 -29.85 11.0 -27.95 L11.0 -37.85 Q11.0 -38.85 10.2 -39.95 9.35 -41.1 7.55 -41.2 4.05 -40.85 3.75 -37.9 L3.75 -2.75 3.75 -2.75" fill-rule="evenodd" stroke="none"/>
    </g>
    <g id="font_A-OTF_____Pro_501_.0">
      <path d="M8.8 -8.75 L8.8 -8.75 Q6.6 -8.7 5.1 -7.4 3.6 -6.05 3.55 -4.0 3.6 -1.95 5.1 -0.6 6.55 0.75 8.8 0.8 11.0 0.75 12.5 -0.6 14.0 -1.95 14.05 -4.0 14.0 -6.05 12.5 -7.4 11.0 -8.7 8.8 -8.75 L8.8 -8.75" fill-rule="evenodd" stroke="none"/>
    </g>
    <g id="font_A-OTF_____Pro_501_E0">
      <path d="M12.35 -24.35 L12.35 -24.35 12.35 -31.7 Q12.2 -33.0 13.65 -33.2 L29.75 -33.2 Q30.85 -33.15 32.25 -33.85 33.6 -34.55 33.75 -36.65 33.6 -39.15 32.1 -39.8 30.6 -40.45 29.5 -40.4 L10.4 -40.4 Q7.15 -40.3 5.75 -38.5 4.4 -36.7 4.4 -34.4 L4.4 -6.45 Q4.45 0.2 10.5 0.0 L29.75 0.0 Q30.45 0.1 32.0 -0.55 33.55 -1.15 33.75 -3.5 33.6 -5.9 32.2 -6.6 30.75 -7.25 29.6 -7.2 L13.95 -7.2 Q12.35 -7.4 12.35 -8.6 L12.35 -17.4 28.4 -17.4 Q28.95 -17.3 30.35 -17.9 31.7 -18.5 31.85 -20.8 31.9 -22.15 30.95 -23.2 30.05 -24.3 28.15 -24.35 L12.35 -24.35 12.35 -24.35" fill-rule="evenodd" stroke="none"/>
    </g>
    <g id="font_A-OTF_____Pro_501_c0">
      <path d="M17.05 -30.6 L17.05 -30.6 Q11.05 -30.45 7.85 -27.8 4.65 -25.15 3.5 -21.5 2.35 -17.9 2.45 -14.85 2.65 -7.1 6.8 -3.05 10.95 1.0 16.75 1.0 22.5 0.7 25.75 -2.2 28.95 -5.15 29.0 -7.1 29.05 -10.0 25.45 -10.4 23.55 -10.5 21.9 -8.35 20.45 -6.65 19.3 -6.2 18.15 -5.75 16.9 -5.8 13.15 -5.95 11.5 -8.75 9.9 -11.55 9.9 -14.75 9.85 -17.8 11.3 -20.7 12.75 -23.6 16.35 -23.8 19.4 -23.9 21.4 -21.15 22.6 -19.6 23.4 -19.2 L25.0 -18.85 Q26.45 -18.85 27.55 -19.7 28.65 -20.55 28.7 -22.3 28.45 -25.75 24.75 -28.1 21.1 -30.5 17.05 -30.6 L17.05 -30.6" fill-rule="evenodd" stroke="none"/>
    </g>
    <g id="font_A-OTF_____Pro_501_v0">
      <path d="M9.1 -27.85 L9.1 -27.85 8.0 -29.75 Q7.25 -30.55 5.55 -30.6 3.0 -30.45 2.25 -29.25 1.5 -28.05 1.55 -27.3 1.55 -26.5 1.9 -25.8 L11.9 -3.05 Q12.45 -1.55 13.6 -0.4 14.75 0.75 17.65 0.8 20.65 0.75 21.8 -0.4 22.95 -1.5 23.45 -3.05 L33.5 -25.8 Q33.8 -26.35 33.9 -27.4 33.8 -29.05 32.55 -29.8 31.35 -30.6 29.95 -30.6 28.15 -30.55 27.45 -29.8 26.7 -29.0 26.3 -27.85 L17.7 -7.8 9.1 -27.85 9.1 -27.85" fill-rule="evenodd" stroke="none"/>
    </g>
    <g id="font_A-OTF_____Pro_501_g0">
      <path d="M11.25 -22.1 L11.25 -22.1 Q11.5 -24.1 14.0 -24.55 L17.75 -25.0 21.3 -24.65 Q23.9 -24.2 24.2 -22.1 23.9 -20.1 21.35 -19.6 L17.65 -19.2 14.2 -19.55 Q11.6 -20.0 11.25 -22.1 L11.25 -22.1 M14.5 -13.75 L14.5 -13.75 17.5 -13.6 Q24.85 -13.75 28.1 -16.3 31.3 -18.9 31.25 -22.05 31.1 -24.05 30.55 -24.95 L32.85 -26.55 Q33.85 -27.15 33.85 -28.7 33.65 -31.05 30.35 -31.45 29.45 -31.5 28.6 -31.0 L25.65 -29.25 Q24.2 -30.25 17.8 -30.6 11.4 -30.5 7.85 -28.2 4.25 -25.85 4.2 -22.1 4.3 -19.25 5.7 -17.8 7.1 -16.35 8.3 -15.75 L5.75 -10.65 Q4.95 -9.35 4.95 -7.95 5.15 -5.2 7.0 -4.6 8.9 -4.0 9.7 -4.1 L11.15 -4.25 12.85 -4.85 Q15.0 -5.9 19.1 -6.2 21.75 -6.2 23.7 -5.25 25.65 -4.3 25.75 -2.55 25.65 -0.55 23.6 0.15 L18.7 0.8 Q13.4 0.7 10.85 -0.35 8.3 -1.45 7.6 -2.15 6.85 -2.85 5.55 -2.85 4.0 -2.8 3.15 -1.85 2.35 -0.9 2.35 0.2 2.25 2.25 6.25 4.45 10.25 6.65 19.05 6.8 L25.1 6.15 Q28.15 5.5 30.4 3.6 33.15 0.9 33.25 -2.45 33.35 -5.35 30.55 -8.35 27.75 -11.35 20.55 -11.55 L16.4 -11.2 12.95 -10.35 14.5 -13.75 14.5 -13.75" fill-rule="evenodd" stroke="none"/>
    </g>
    <g id="font_A-OTF_____Pro_501_t0">
      <path d="M7.05 -23.6 L7.05 -23.6 7.05 -7.7 Q6.85 -5.7 8.1 -2.65 9.35 0.45 14.65 0.8 19.65 0.45 22.0 -2.75 24.4 -5.9 24.4 -7.9 24.4 -9.05 23.5 -10.05 22.6 -11.1 20.85 -11.2 19.15 -11.55 17.4 -8.45 16.3 -6.25 15.2 -6.35 13.95 -6.7 14.1 -7.95 L14.1 -23.6 20.75 -23.6 Q21.7 -23.6 22.75 -24.3 23.8 -25.05 23.9 -26.65 23.7 -29.45 20.75 -29.8 L14.1 -29.8 14.1 -35.4 Q14.1 -36.5 13.25 -37.45 12.4 -38.45 10.65 -38.55 7.45 -38.45 7.05 -35.35 L7.05 -29.8 4.4 -29.8 Q3.3 -29.75 2.3 -29.0 1.3 -28.2 1.25 -26.75 1.25 -25.55 2.1 -24.6 2.9 -23.65 4.4 -23.6 L7.05 -23.6 7.05 -23.6" fill-rule="evenodd" stroke="none"/>
    </g>
    <g id="font_A-OTF_____Pro_501_i0">
      <path d="M8.8 -41.2 L8.8 -41.2 Q6.9 -41.15 5.6 -40.0 4.25 -38.85 4.2 -37.1 4.55 -33.4 8.8 -33.0 13.05 -33.35 13.4 -37.1 13.35 -38.9 12.0 -40.0 10.7 -41.15 8.8 -41.2 L8.8 -41.2 M12.55 -27.25 L12.55 -27.25 Q12.55 -28.35 11.65 -29.45 10.75 -30.5 9.0 -30.6 5.65 -30.45 5.3 -27.25 L5.3 -2.5 Q5.3 -1.4 6.2 -0.35 7.05 0.75 8.8 0.8 12.2 0.65 12.55 -2.5 L12.55 -27.25 12.55 -27.25" fill-rule="evenodd" stroke="none"/>
    </g>
  </defs>
</svg>
