<?xml version="1.0" encoding="UTF-8" standalone="no"?>
<svg xmlns:xlink="http://www.w3.org/1999/xlink" height="17.5px" width="151.35px" xmlns="http://www.w3.org/2000/svg">
  <g transform="matrix(1.0, 0.0, 0.0, 1.0, 14.6, -5.75)">
    <g transform="matrix(1.0, 0.0, 0.0, 1.0, -15.85, 0.0)">
      <use fill="#000000" height="17.5" transform="matrix(0.4746, 0.0, 0.0, 0.4746, 0.0, 21.0)" width="151.35" xlink:href="#font_______W7_P0"/>
      <use fill="#000000" height="17.5" transform="matrix(0.4746, 0.0, 0.0, 0.4746, 15.2, 21.0)" width="151.35" xlink:href="#font_______W7_e0"/>
      <use fill="#000000" height="17.5" transform="matrix(0.4746, 0.0, 0.0, 0.4746, 27.65, 21.0)" width="151.35" xlink:href="#font_______W7_n0"/>
      <use fill="#000000" height="17.5" transform="matrix(0.4746, 0.0, 0.0, 0.4746, 40.25, 21.0)" width="151.35" xlink:href="#font_______W7_n0"/>
      <use fill="#000000" height="17.5" transform="matrix(0.4746, 0.0, 0.0, 0.4746, 52.9, 21.0)" width="151.35" xlink:href="#font_______W7_y0"/>
      <use fill="#000000" height="17.5" transform="matrix(0.4746, 0.0, 0.0, 0.4746, 70.8, 21.0)" width="151.35" xlink:href="#font_______W7_P0"/>
      <use fill="#000000" height="17.5" transform="matrix(0.4746, 0.0, 0.0, 0.4746, 86.0, 21.0)" width="151.35" xlink:href="#font_______W7_i0"/>
      <use fill="#000000" height="17.5" transform="matrix(0.4746, 0.0, 0.0, 0.4746, 93.8, 21.0)" width="151.35" xlink:href="#font_______W7_n0"/>
      <use fill="#000000" height="17.5" transform="matrix(0.4746, 0.0, 0.0, 0.4746, 106.4, 21.0)" width="151.35" xlink:href="#font_______W7_c0"/>
      <use fill="#000000" height="17.5" transform="matrix(0.4746, 0.0, 0.0, 0.4746, 118.3, 21.0)" width="151.35" xlink:href="#font_______W7_h0"/>
      <use fill="#000000" height="17.5" transform="matrix(0.4746, 0.0, 0.0, 0.4746, 131.45, 21.0)" width="151.35" xlink:href="#font_______W7_e0"/>
      <use fill="#000000" height="17.5" transform="matrix(0.4746, 0.0, 0.0, 0.4746, 143.85, 21.0)" width="151.35" xlink:href="#font_______W7_r0"/>
    </g>
  </g>
  <defs>
    <g id="font_______W7_P0">
      <path d="M25.55 -21.45 L25.55 -21.45 Q25.55 -19.8 24.3 -18.6 23.1 -17.45 21.4 -17.45 17.4 -17.45 13.5 -20.8 L11.65 -16.3 10.9 -24.15 Q15.2 -26.45 18.85 -26.45 21.4 -26.45 23.3 -25.25 25.55 -23.9 25.55 -21.45 M32.5 -20.35 L32.5 -20.35 Q32.5 -25.9 28.85 -28.85 25.45 -31.55 19.75 -31.55 15.45 -31.55 10.4 -29.45 L10.2 -31.5 5.3 -32.15 2.55 0.05 13.15 -1.1 12.2 -11.0 Q15.95 -9.35 19.7 -9.35 25.2 -9.35 28.65 -12.05 32.5 -15.0 32.5 -20.35" fill-rule="evenodd" stroke="none"/>
    </g>
    <g id="font_______W7_e0">
      <path d="M19.45 -9.9 L19.45 -9.9 Q16.75 -7.55 13.6 -7.55 10.45 -7.55 9.15 -9.9 L19.45 -9.9 M9.0 -13.4 L9.0 -13.4 Q9.7 -14.95 11.5 -15.95 13.2 -16.8 15.1 -16.8 18.05 -16.8 19.65 -14.35 L9.0 -13.4 M23.25 -9.9 L23.25 -9.9 24.3 -9.9 26.7 -12.6 Q25.85 -16.7 22.9 -19.1 19.9 -21.45 15.15 -21.45 9.65 -21.45 5.9 -18.65 1.8 -15.6 1.8 -10.4 1.8 -5.35 5.8 -2.5 9.3 0.05 14.6 0.05 22.45 0.05 27.15 -4.25 L23.25 -9.9" fill-rule="evenodd" stroke="none"/>
    </g>
    <g id="font_______W7_n0">
      <path d="M27.0 -9.05 L27.0 -9.05 Q27.0 -14.5 24.65 -17.8 21.9 -21.45 16.6 -21.45 12.6 -21.45 9.45 -18.85 L9.2 -20.75 4.35 -21.45 2.05 0.05 11.95 -1.4 10.35 -12.55 Q12.95 -15.85 15.9 -15.85 19.4 -15.85 19.4 -10.6 19.4 -6.9 16.6 -1.3 L26.2 0.0 Q27.0 -6.5 27.0 -9.05" fill-rule="evenodd" stroke="none"/>
    </g>
    <g id="font_______W7_y0">
      <path d="M21.2 -21.45 L21.2 -21.45 13.15 -10.8 3.65 -21.45 0.5 -19.75 8.5 -4.7 4.3 0.85 12.5 4.75 24.85 -19.65 21.2 -21.45" fill-rule="evenodd" stroke="none"/>
    </g>
    <g id="font_______W7_i0">
      <path d="M11.6 -20.75 L11.6 -20.75 6.75 -21.45 4.45 0.05 14.3 -1.4 11.6 -20.75 M11.9 -31.5 L11.9 -31.5 6.5 -32.15 4.9 -24.95 13.2 -26.1 11.9 -31.5" fill-rule="evenodd" stroke="none"/>
    </g>
    <g id="font_______W7_c0">
      <path d="M21.35 -12.5 L21.35 -12.5 Q19.95 -10.5 17.75 -9.15 15.35 -7.6 13.15 -7.6 11.4 -7.6 10.2 -8.85 8.9 -10.05 8.9 -11.8 8.9 -14.1 10.65 -15.4 12.2 -16.55 14.55 -16.55 18.9 -16.55 21.9 -13.7 L24.4 -17.55 Q19.65 -21.45 13.1 -21.45 8.05 -21.45 4.9 -18.4 1.8 -15.3 1.8 -10.3 1.8 -5.6 5.7 -2.65 9.25 0.05 14.1 0.05 17.2 0.05 20.45 -1.1 24.05 -2.3 25.9 -4.4 L21.35 -12.5" fill-rule="evenodd" stroke="none"/>
    </g>
    <g id="font_______W7_h0">
      <path d="M28.1 -7.6 L28.1 -7.6 Q28.1 -13.7 25.7 -17.25 22.9 -21.45 17.05 -21.45 13.35 -21.45 10.45 -19.3 L9.3 -31.55 4.65 -32.15 2.05 0.05 12.1 -1.4 11.0 -12.9 Q13.45 -15.95 16.35 -15.95 20.1 -15.95 20.1 -10.2 20.1 -6.55 17.6 -1.55 L27.6 0.05 28.1 -7.6" fill-rule="evenodd" stroke="none"/>
    </g>
    <g id="font_______W7_r0">
      <path d="M18.3 -20.6 L18.3 -20.6 Q16.55 -21.45 14.75 -21.45 11.5 -21.45 8.7 -18.65 L8.45 -20.75 4.45 -21.45 2.55 0.05 10.65 -1.4 9.3 -12.8 Q10.55 -14.85 12.3 -14.85 13.25 -14.85 14.55 -13.85 L16.55 -12.05 18.3 -20.6" fill-rule="evenodd" stroke="none"/>
    </g>
  </defs>
</svg>
