<?xml version="1.0" encoding="UTF-8" standalone="no"?>
<svg xmlns:xlink="http://www.w3.org/1999/xlink" height="371.25px" width="940.35px" xmlns="http://www.w3.org/2000/svg">
  <g transform="matrix(1.0, 0.0, 0.0, 1.0, 360.25, 95.65)">
    <use height="198.5" transform="matrix(0.2208, 0.0, 0.0, 0.2208, 236.55, 114.05)" width="554.55" xlink:href="#shape0"/>
    <use height="217.3" transform="matrix(0.2208, 0.0, 0.0, 0.2208, 236.0038, 111.85)" width="579.7" xlink:href="#shape1"/>
  </g>
  <defs>
    <g id="shape0" transform="matrix(1.0, 0.0, 0.0, 1.0, 0.0, 0.0)">
      <path d="M554.5 64.5 Q555.85 95.85 510.05 117.85 493.75 125.7 471.0 132.5 460.1 135.75 437.55 141.4 361.6 160.35 72.55 196.2 L50.3 198.4 Q37.95 198.95 29.25 196.95 7.2 191.85 1.35 168.15 -0.65 160.05 0.35 150.55 1.3 141.45 4.8 132.25 8.25 123.2 13.6 115.6 19.15 107.75 25.8 102.8 L63.6 76.6 63.25 77.25 Q69.15 70.65 86.5 61.45 103.55 52.45 125.05 44.35 147.1 36.0 164.25 32.25 183.25 28.05 190.25 30.95 195.1 33.0 197.85 35.45 200.4 37.7 201.55 40.75 202.45 43.2 202.75 47.25 L203.05 55.25 Q203.4 63.05 207.35 65.2 L219.9 65.55 Q246.05 61.5 272.5 54.7 301.2 47.3 323.55 38.4 L358.05 24.9 Q376.85 17.85 392.05 13.25 429.5 1.9 463.5 0.15 478.15 -0.65 493.45 3.0 509.5 6.8 522.5 14.65 536.65 23.15 544.75 35.1 553.75 48.35 554.5 64.5" fill="#ffffff" fill-opacity="0.50980395" fill-rule="evenodd" stroke="none"/>
    </g>
    <g id="shape1" transform="matrix(1.0, 0.0, 0.0, 1.0, 45.95, 0.0)">
      <path d="M489.05 10.6 Q498.0 14.3 506.75 22.0 515.35 29.55 521.85 39.4 528.6 49.55 531.6 60.05 534.85 71.3 533.2 81.2 529.75 101.5 511.45 117.4 496.15 130.7 474.05 138.35 423.4 155.8 333.25 173.7 L275.7 184.35 251.0 188.5 Q239.1 190.9 146.6 202.0 51.05 213.45 39.95 215.35 L27.8 217.0 Q20.1 217.65 14.6 216.8 L14.0 216.7 Q-83.95 187.35 -21.8 103.45 L11.05 77.35 14.0 76.35 Q20.4 73.95 34.0 67.4 56.95 56.3 68.55 51.4 118.75 30.1 156.05 31.3 166.0 31.65 168.75 37.25 169.85 39.6 170.15 43.5 L170.25 51.55 Q170.2 55.45 170.45 57.25 170.8 59.6 171.8 60.9 173.7 63.4 181.0 64.35 190.15 65.5 223.9 54.65 L266.25 40.1 Q317.25 22.85 386.05 7.1 401.45 3.55 412.9 1.9 426.4 -0.05 438.1 0.0 463.85 0.15 489.05 10.6" fill="#ffffff" fill-opacity="0.29803923" fill-rule="evenodd" stroke="none"/>
    </g>
  </defs>
</svg>
