<?xml version="1.0" encoding="UTF-8" standalone="no"?>
<svg xmlns:xlink="http://www.w3.org/1999/xlink" height="234.8px" width="729.25px" xmlns="http://www.w3.org/2000/svg">
  <g transform="matrix(1.0, 0.0, 0.0, 1.0, 77.2, 5.25)">
    <use height="184.8" transform="matrix(1.0, 0.0, 0.0, 1.0, 549.85, 0.0)" width="102.2" xlink:href="#shape0"/>
    <use height="164.2" id="g2" transform="matrix(0.4731, 0.0, 0.0, 0.4731, 23.107, 105.3124)" width="163.8" xlink:href="#sprite0"/>
    <use height="81.75" transform="matrix(0.4731, 0.0, 0.0, 0.4731, 42.55, 124.85)" width="81.6" xlink:href="#shape2"/>
    <use height="119.05" transform="matrix(0.6133, 0.735, -0.735, 0.6133, 20.45, -5.25)" width="72.7" xlink:href="#shape3"/>
    <use height="119.05" transform="matrix(0.5281, -0.4571, 0.4571, 0.5281, 485.95, 166.7)" width="72.7" xlink:href="#shape3"/>
    <use height="164.2" id="g1" transform="matrix(0.9003, 0.0, 0.0, 0.9003, -73.7882, 60.0317)" width="163.8" xlink:href="#sprite0"/>
    <use height="81.75" transform="matrix(0.7779, 0.0, 0.0, 0.7779, -31.75, 102.15)" width="81.6" xlink:href="#shape2"/>
    <use height="164.2" id="g3" transform="matrix(0.6459, 0.0, 0.0, 0.6459, 532.3492, 112.72)" width="163.8" xlink:href="#sprite0"/>
    <use height="81.75" transform="matrix(0.6459, 0.0, 0.0, 0.6459, 558.9, 139.35)" width="81.6" xlink:href="#shape2"/>
    <use height="119.05" transform="matrix(1.0, 0.0, 0.0, 1.0, 576.05, 90.05)" width="72.7" xlink:href="#shape3"/>
    <use height="65.6" transform="matrix(1.0, 0.0, 0.0, 1.0, -77.2, 132.05)" width="102.9" xlink:href="#shape4"/>
    <use height="73.35" transform="matrix(1.0, 0.0, 0.0, 1.0, 18.9, 120.05)" width="90.4" xlink:href="#shape5"/>
    <use height="95.75" transform="matrix(1.0, 0.0, 0.0, 1.0, 486.05, 91.15)" width="78.15" xlink:href="#shape6"/>
  </g>
  <defs>
    <g id="shape0" transform="matrix(1.0, 0.0, 0.0, 1.0, 0.0, 0.0)">
      <path d="M15.55 83.85 Q15.2 79.3 16.15 73.75 17.0 68.7 18.65 64.15 20.25 59.7 22.05 57.45 26.65 51.5 77.25 0.0 L98.55 23.25 Q47.95 66.55 45.6 71.1 43.3 75.7 45.6 83.9 34.7 88.9 18.0 92.1 16.0 89.0 15.55 83.85" fill="#2d2323" fill-rule="evenodd" stroke="none"/>
      <path d="M46.2 66.1 Q27.2 67.45 26.1 56.05 30.1 50.6 79.0 0.0 L98.0 20.95 46.2 66.1" fill="url(#gradient0)" fill-rule="evenodd" stroke="none"/>
      <path d="M22.75 60.8 Q24.5 57.85 26.1 56.05 30.65 65.65 46.2 66.1 44.8 67.6 43.9 70.3 42.9 73.3 42.95 76.7 43.1 85.35 49.65 92.1 48.0 93.2 45.5 94.25 42.2 95.65 38.75 96.4 29.1 98.4 20.9 94.85 15.0 82.55 18.95 69.5 20.3 64.95 22.75 60.8" fill="url(#gradient1)" fill-rule="evenodd" stroke="none"/>
      <path d="M26.7 62.05 L27.75 62.95 Q28.1 63.6 27.8 64.15 L26.95 64.9 25.65 64.85 Q24.9 64.55 24.4 63.6 24.05 63.0 24.4 62.5 24.7 62.1 25.35 61.95 L26.7 62.05" fill="#000000" fill-rule="evenodd" stroke="none"/>
      <path d="M27.1 61.55 Q27.85 61.8 28.15 62.45 28.45 63.1 28.2 63.7 27.95 64.2 27.35 64.4 L26.0 64.35 Q25.25 64.0 24.8 63.1 24.5 62.5 24.8 62.0 25.1 61.6 25.8 61.45 L27.1 61.55" fill="#535353" fill-rule="evenodd" stroke="none"/>
      <path d="M26.9 61.65 L27.55 62.2 Q27.75 62.6 27.55 62.95 L27.0 63.45 26.2 63.4 Q25.75 63.2 25.45 62.6 25.25 62.2 25.45 61.95 25.65 61.65 26.05 61.6 L26.9 61.65" fill="#9c9c9c" fill-rule="evenodd" stroke="none"/>
      <path d="M35.25 67.05 Q35.55 67.7 35.25 68.3 L34.4 69.05 33.1 68.95 Q32.35 68.65 31.9 67.75 31.55 67.1 31.9 66.6 32.2 66.2 32.85 66.05 L34.2 66.15 Q34.9 66.45 35.25 67.05" fill="#000000" fill-rule="evenodd" stroke="none"/>
      <path d="M35.65 66.55 Q35.95 67.2 35.7 67.75 L34.8 68.55 33.5 68.45 Q32.75 68.15 32.3 67.2 31.95 66.6 32.3 66.15 32.6 65.7 33.25 65.55 L34.6 65.65 Q35.3 65.95 35.65 66.55" fill="#535353" fill-rule="evenodd" stroke="none"/>
      <path d="M35.0 66.3 Q35.2 66.7 35.05 67.05 L34.5 67.55 33.7 67.5 32.95 66.75 Q32.75 66.35 32.95 66.05 L33.55 65.7 Q34.55 65.5 35.0 66.3" fill="#9c9c9c" fill-rule="evenodd" stroke="none"/>
      <path d="M44.45 68.45 Q44.75 69.05 44.5 69.65 44.25 70.2 43.6 70.4 L42.3 70.35 Q41.55 70.0 41.1 69.05 40.75 68.45 41.1 68.0 41.4 67.55 42.05 67.45 L43.4 67.55 44.45 68.45" fill="#000000" fill-rule="evenodd" stroke="none"/>
      <path d="M43.8 67.05 Q44.5 67.3 44.85 67.95 45.15 68.55 44.85 69.15 L44.0 69.9 42.7 69.8 Q41.95 69.5 41.5 68.6 41.15 67.95 41.5 67.5 41.8 67.05 42.45 66.95 L43.8 67.05" fill="#535353" fill-rule="evenodd" stroke="none"/>
      <path d="M44.2 67.7 Q44.45 68.05 44.25 68.45 L43.7 68.9 42.9 68.85 42.15 68.1 Q41.95 67.7 42.15 67.4 42.3 67.15 42.75 67.05 L43.55 67.15 Q44.0 67.3 44.2 67.7" fill="#9c9c9c" fill-rule="evenodd" stroke="none"/>
      <path d="M89.35 84.4 L101.1 183.4 41.45 180.5 Q2.3 104.2 6.5 103.5 10.65 102.85 89.35 84.4" fill="#726c6c" fill-rule="evenodd" stroke="none"/>
      <path d="M88.6 87.3 L99.8 183.85 42.75 181.05 Q5.25 106.65 9.3 105.95 L88.6 87.3" fill="url(#gradient2)" fill-rule="evenodd" stroke="none"/>
      <path d="M91.8 85.75 L102.2 184.8 49.1 181.85 Q14.25 105.55 17.95 104.9 21.7 104.2 91.8 85.75" fill="url(#gradient3)" fill-rule="evenodd" stroke="none"/>
      <path d="M90.45 65.7 L90.45 85.75 Q16.8 102.15 14.6 103.05 12.4 103.95 9.3 104.35 5.45 104.9 3.95 103.95 2.6 103.1 1.4 100.1 L0.05 96.2 Q-0.35 95.15 2.35 92.75 5.15 90.3 8.45 88.95 12.0 87.5 47.15 77.5 82.85 67.35 90.45 65.7" fill="url(#gradient4)" fill-rule="evenodd" stroke="none"/>
      <path d="M91.05 69.35 L90.45 83.9 Q17.35 101.85 15.3 102.7 13.35 103.5 10.5 103.85 7.0 104.35 5.65 103.5 4.4 102.75 4.05 101.35 L3.6 99.2 Q3.2 98.25 5.7 96.05 8.25 93.8 11.25 92.6 14.6 91.2 49.05 81.15 84.25 70.8 91.05 69.35" fill="url(#gradient5)" fill-rule="evenodd" stroke="none"/>
      <path d="M16.0 97.3 Q16.65 98.6 16.1 99.75 15.6 100.85 14.4 101.25 L11.8 101.15 Q10.3 100.45 9.35 98.6 8.75 97.3 9.35 96.35 9.95 95.5 11.3 95.25 L13.95 95.45 Q15.35 96.0 16.0 97.3" fill="#000000" fill-rule="evenodd" stroke="none"/>
      <path d="M16.8 96.25 Q17.45 97.55 16.9 98.75 16.4 99.85 15.15 100.25 L12.55 100.1 Q11.1 99.45 10.15 97.6 9.5 96.3 10.15 95.35 10.75 94.5 12.1 94.2 L14.7 94.45 Q16.15 95.0 16.8 96.25" fill="#535353" fill-rule="evenodd" stroke="none"/>
      <path d="M15.55 95.75 Q15.95 96.55 15.6 97.3 15.3 97.95 14.55 98.25 L12.95 98.15 Q12.05 97.75 11.45 96.6 11.05 95.8 11.45 95.2 11.8 94.65 12.65 94.5 L14.3 94.65 Q15.15 94.95 15.55 95.75" fill="#9c9c9c" fill-rule="evenodd" stroke="none"/>
      <path d="M32.2 94.5 Q32.85 95.8 32.35 97.0 31.8 98.1 30.6 98.5 L28.0 98.4 Q26.55 97.7 25.6 95.85 24.95 94.55 25.6 93.6 26.2 92.75 27.55 92.5 L30.15 92.7 Q31.55 93.25 32.2 94.5" fill="#000000" fill-rule="evenodd" stroke="none"/>
      <path d="M33.0 93.5 Q33.65 94.8 33.1 95.95 32.6 97.05 31.35 97.5 L28.8 97.35 Q27.3 96.7 26.4 94.85 25.75 93.55 26.4 92.6 26.95 91.7 28.3 91.45 L30.9 91.65 Q32.35 92.2 33.0 93.5" fill="#535353" fill-rule="evenodd" stroke="none"/>
      <path d="M31.75 92.95 Q32.2 93.8 31.85 94.55 31.5 95.2 30.75 95.45 L29.15 95.4 Q28.25 94.95 27.7 93.8 27.25 93.0 27.65 92.4 28.0 91.9 28.85 91.7 L30.5 91.85 Q31.35 92.2 31.75 92.95" fill="#9c9c9c" fill-rule="evenodd" stroke="none"/>
      <path d="M43.95 90.9 Q44.6 92.2 44.05 93.35 43.55 94.45 42.3 94.85 L39.75 94.75 Q38.25 94.05 37.3 92.2 36.65 90.9 37.3 89.95 37.9 89.1 39.25 88.85 L41.85 89.05 Q43.3 89.6 43.95 90.9" fill="#000000" fill-rule="evenodd" stroke="none"/>
      <path d="M44.75 89.85 Q45.4 91.15 44.85 92.35 44.3 93.4 43.1 93.85 L40.5 93.7 Q39.05 93.05 38.1 91.2 37.45 89.9 38.1 88.95 38.7 88.05 40.05 87.8 L42.65 88.0 Q44.05 88.55 44.75 89.85" fill="#535353" fill-rule="evenodd" stroke="none"/>
      <path d="M43.5 89.35 Q43.9 90.15 43.55 90.9 L42.5 91.8 40.9 91.75 Q39.95 91.35 39.35 90.15 39.0 89.35 39.35 88.8 39.75 88.25 40.6 88.05 L42.2 88.2 Q43.1 88.55 43.5 89.35" fill="#9c9c9c" fill-rule="evenodd" stroke="none"/>
      <path d="M58.6 84.5 Q60.0 85.05 60.65 86.3 61.3 87.6 60.8 88.8 60.3 89.9 59.05 90.3 L56.45 90.15 Q55.0 89.5 54.05 87.65 53.4 86.35 54.05 85.4 54.65 84.55 56.0 84.3 L58.6 84.5" fill="#000000" fill-rule="evenodd" stroke="none"/>
      <path d="M59.4 83.5 Q60.8 84.0 61.45 85.3 62.1 86.6 61.55 87.75 61.05 88.85 59.85 89.3 L57.25 89.15 Q55.8 88.5 54.85 86.65 54.2 85.35 54.85 84.4 55.45 83.5 56.8 83.25 L59.4 83.5" fill="#535353" fill-rule="evenodd" stroke="none"/>
      <path d="M58.95 83.65 Q59.85 84.0 60.25 84.8 60.65 85.6 60.3 86.35 60.0 87.0 59.25 87.25 L57.65 87.2 Q56.7 86.8 56.1 85.6 55.75 84.8 56.1 84.2 56.5 83.7 57.35 83.5 L58.95 83.65" fill="#9c9c9c" fill-rule="evenodd" stroke="none"/>
      <path d="M75.15 81.75 Q75.85 83.05 75.3 84.25 74.8 85.35 73.55 85.8 L71.0 85.65 Q69.5 84.95 68.55 83.1 67.9 81.8 68.55 80.85 69.15 80.0 70.5 79.7 L73.1 79.95 Q74.55 80.5 75.15 81.75" fill="#000000" fill-rule="evenodd" stroke="none"/>
      <path d="M75.95 80.75 Q76.6 82.0 76.05 83.2 75.6 84.3 74.35 84.75 L71.75 84.6 Q70.3 83.9 69.35 82.05 68.7 80.8 69.35 79.85 69.9 78.95 71.3 78.7 L73.9 78.95 Q75.3 79.45 75.95 80.75" fill="#535353" fill-rule="evenodd" stroke="none"/>
      <path d="M74.75 80.25 Q75.15 81.05 74.8 81.75 74.5 82.45 73.75 82.7 L72.15 82.6 Q71.2 82.2 70.65 81.05 70.25 80.25 70.65 79.7 71.0 79.15 71.85 78.95 L73.45 79.1 Q74.35 79.45 74.75 80.25" fill="#9c9c9c" fill-rule="evenodd" stroke="none"/>
      <path d="M89.15 77.2 Q89.8 78.5 89.25 79.7 88.75 80.8 87.5 81.2 L84.9 81.1 Q83.45 80.4 82.5 78.55 81.85 77.25 82.5 76.3 83.1 75.45 84.45 75.2 L87.05 75.4 Q88.5 75.95 89.15 77.2" fill="#000000" fill-rule="evenodd" stroke="none"/>
      <path d="M89.95 76.2 Q90.6 77.5 90.0 78.65 89.55 79.75 88.3 80.2 L85.7 80.05 Q84.25 79.4 83.3 77.5 82.65 76.25 83.3 75.3 83.9 74.4 85.25 74.15 L87.85 74.35 Q89.3 74.9 89.95 76.2" fill="#535353" fill-rule="evenodd" stroke="none"/>
      <path d="M88.7 75.7 Q89.1 76.5 88.75 77.2 L87.7 78.15 86.1 78.1 Q85.2 77.65 84.6 76.5 84.2 75.7 84.6 75.15 84.95 74.6 85.8 74.4 L87.4 74.55 Q88.3 74.9 88.7 75.7" fill="#9c9c9c" fill-rule="evenodd" stroke="none"/>
      <path d="M26.55 107.2 Q26.85 107.8 26.6 108.4 26.35 108.95 25.75 109.15 L24.45 109.1 Q23.75 108.75 23.25 107.85 22.95 107.2 23.25 106.75 23.55 106.3 24.2 106.2 L25.5 106.3 Q26.2 106.55 26.55 107.2" fill="#000000" fill-rule="evenodd" stroke="none"/>
      <path d="M26.95 106.65 Q27.25 107.3 26.95 107.9 L26.1 108.65 24.85 108.6 Q24.1 108.25 23.65 107.35 23.3 106.7 23.65 106.2 23.95 105.8 24.6 105.65 L25.9 105.75 Q26.6 106.05 26.95 106.65" fill="#535353" fill-rule="evenodd" stroke="none"/>
      <path d="M26.3 106.4 L26.35 107.2 25.8 107.65 25.05 107.6 24.3 106.85 Q24.05 106.45 24.3 106.15 24.45 105.9 24.9 105.8 25.9 105.6 26.3 106.4" fill="#9c9c9c" fill-rule="evenodd" stroke="none"/>
      <path d="M38.8 104.75 Q39.1 105.35 38.85 105.95 L38.0 106.7 36.7 106.65 Q36.0 106.3 35.55 105.4 35.2 104.75 35.55 104.3 35.8 103.85 36.45 103.7 L37.75 103.85 Q38.45 104.1 38.8 104.75" fill="#000000" fill-rule="evenodd" stroke="none"/>
      <path d="M39.2 104.2 Q39.5 104.85 39.25 105.45 L38.4 106.2 37.1 106.15 Q36.4 105.8 35.9 104.9 35.6 104.25 35.9 103.75 36.2 103.35 36.85 103.2 L38.15 103.3 Q38.9 103.6 39.2 104.2" fill="#535353" fill-rule="evenodd" stroke="none"/>
      <path d="M38.6 103.95 L38.6 104.75 38.1 105.2 Q37.15 105.5 36.55 104.35 36.35 104.0 36.55 103.7 36.7 103.4 37.15 103.35 38.15 103.15 38.6 103.95" fill="#9c9c9c" fill-rule="evenodd" stroke="none"/>
      <path d="M60.0 99.25 Q60.3 99.9 60.05 100.5 L59.2 101.25 57.95 101.15 Q57.2 100.8 56.7 99.9 56.4 99.3 56.75 98.8 L57.7 98.25 59.0 98.35 Q59.7 98.6 60.0 99.25" fill="#000000" fill-rule="evenodd" stroke="none"/>
      <path d="M60.4 98.75 Q60.7 99.4 60.45 99.95 L59.6 100.75 58.3 100.65 Q57.6 100.35 57.1 99.4 56.8 98.75 57.1 98.3 57.4 97.9 58.1 97.75 L59.35 97.85 Q60.05 98.1 60.4 98.75" fill="#535353" fill-rule="evenodd" stroke="none"/>
      <path d="M59.8 98.5 Q60.0 98.9 59.8 99.25 L59.3 99.75 Q58.35 100.05 57.75 98.9 57.55 98.5 57.75 98.2 L58.35 97.9 59.15 97.95 59.8 98.5" fill="#9c9c9c" fill-rule="evenodd" stroke="none"/>
      <path d="M73.95 96.05 Q74.3 96.7 74.0 97.3 73.75 97.85 73.15 98.05 L71.9 98.0 Q71.15 97.65 70.7 96.75 70.35 96.1 70.7 95.6 70.95 95.2 71.65 95.05 L72.95 95.15 Q73.65 95.45 73.95 96.05" fill="#000000" fill-rule="evenodd" stroke="none"/>
      <path d="M74.35 95.55 Q74.65 96.2 74.4 96.8 L73.55 97.55 72.25 97.45 Q71.55 97.15 71.1 96.2 70.75 95.6 71.1 95.1 71.35 94.7 72.05 94.55 L73.3 94.7 Q74.0 94.95 74.35 95.55" fill="#535353" fill-rule="evenodd" stroke="none"/>
      <path d="M73.75 95.3 Q73.95 95.7 73.75 96.05 L73.25 96.55 72.45 96.5 Q72.0 96.3 71.7 95.7 71.5 95.35 71.7 95.05 71.9 94.8 72.3 94.7 73.3 94.5 73.75 95.3" fill="#9c9c9c" fill-rule="evenodd" stroke="none"/>
      <path d="M87.35 90.6 Q87.7 91.25 87.4 91.8 L86.55 92.6 85.25 92.5 Q84.55 92.2 84.05 91.25 83.75 90.6 84.05 90.15 84.35 89.75 85.05 89.6 L86.35 89.7 Q87.05 90.0 87.35 90.6" fill="#000000" fill-rule="evenodd" stroke="none"/>
      <path d="M87.75 90.1 Q88.05 90.75 87.8 91.35 87.55 91.9 86.95 92.05 L85.65 92.0 Q84.9 91.65 84.45 90.75 84.15 90.15 84.45 89.65 84.75 89.25 85.4 89.1 L86.7 89.2 Q87.4 89.45 87.75 90.1" fill="#535353" fill-rule="evenodd" stroke="none"/>
      <path d="M87.1 89.85 Q87.35 90.25 87.15 90.6 L86.65 91.05 85.85 91.05 85.1 90.25 Q84.9 89.9 85.1 89.6 85.3 89.3 85.7 89.2 L86.5 89.3 87.1 89.85" fill="#9c9c9c" fill-rule="evenodd" stroke="none"/>
    </g>
    <linearGradient gradientTransform="matrix(0.0326, 0.0269, -0.0292, 0.03, 62.05, 33.05)" gradientUnits="userSpaceOnUse" id="gradient0" spreadMethod="pad" x1="-819.2" x2="819.2">
      <stop offset="0.0" stop-color="#565656"/>
      <stop offset="0.403921568627451" stop-color="#999999"/>
      <stop offset="0.592156862745098" stop-color="#dbdbdb"/>
      <stop offset="0.7803921568627451" stop-color="#9b9b9b"/>
      <stop offset="1.0" stop-color="#0d0a0f"/>
    </linearGradient>
    <linearGradient gradientTransform="matrix(0.0188, 0.0075, -0.0059, 0.0238, 33.5, 76.55)" gradientUnits="userSpaceOnUse" id="gradient1" spreadMethod="pad" x1="-819.2" x2="819.2">
      <stop offset="0.058823529411764705" stop-color="#878787"/>
      <stop offset="0.48627450980392156" stop-color="#141a17"/>
    </linearGradient>
    <linearGradient gradientTransform="matrix(0.0554, 0.0, 0.0, 0.0589, 54.4, 135.6)" gradientUnits="userSpaceOnUse" id="gradient2" spreadMethod="pad" x1="-819.2" x2="819.2">
      <stop offset="0.4392156862745098" stop-color="#d2d2d2"/>
      <stop offset="1.0" stop-color="#787e86"/>
    </linearGradient>
    <linearGradient gradientTransform="matrix(0.0515, -0.0018, 0.0016, 0.0604, 59.95, 135.25)" gradientUnits="userSpaceOnUse" id="gradient3" spreadMethod="pad" x1="-819.2" x2="819.2">
      <stop offset="0.09411764705882353" stop-color="#bcbcbc"/>
      <stop offset="1.0" stop-color="#2a302d"/>
    </linearGradient>
    <linearGradient gradientTransform="matrix(0.0552, 0.0, 0.0, 0.0237, 45.3, 85.1)" gradientUnits="userSpaceOnUse" id="gradient4" spreadMethod="pad" x1="-819.2" x2="819.2">
      <stop offset="0.4392156862745098" stop-color="#d2d2d2"/>
      <stop offset="1.0" stop-color="#787e86"/>
    </linearGradient>
    <linearGradient gradientTransform="matrix(-0.052, -0.0047, 0.0118, -0.0206, 47.35, 86.7)" gradientUnits="userSpaceOnUse" id="gradient5" spreadMethod="pad" x1="-819.2" x2="819.2">
      <stop offset="0.058823529411764705" stop-color="#bcbcbc"/>
      <stop offset="0.6431372549019608" stop-color="#2a302d"/>
    </linearGradient>
    <g id="sprite0" transform="matrix(1.0, 0.0, 0.0, 1.0, 81.9, 82.1)">
      <use height="164.2" transform="matrix(1.0, 0.0, 0.0, 1.0, -81.9, -82.1)" width="163.8" xlink:href="#shape1"/>
    </g>
    <g id="shape1" transform="matrix(1.0, 0.0, 0.0, 1.0, 0.0, 0.0)">
      <path d="M78.55 25.5 L77.45 21.5 Q94.75 20.25 106.35 24.75 L107.5 30.15 Q96.45 25.6 78.55 25.5 M71.55 0.15 Q59.05 1.15 50.5 5.8 39.55 11.7 36.55 22.75 L29.95 25.7 Q28.85 19.4 39.5 9.15 50.15 -1.15 71.55 0.15 M118.65 11.9 L113.35 7.3 Q118.9 8.2 124.95 11.1 130.5 13.7 135.95 17.7 141.05 21.4 145.4 25.8 149.6 30.05 152.3 34.15 153.15 35.5 154.5 41.1 137.95 17.35 118.65 11.9 M137.0 56.8 L138.5 55.45 Q148.3 69.95 146.05 87.35 L142.0 89.9 Q144.9 73.9 137.0 56.8 M163.8 91.85 Q162.9 123.75 141.25 137.05 156.5 122.95 161.1 96.6 L163.8 91.85 M124.85 124.35 Q120.9 127.35 113.5 131.5 L109.1 128.9 Q113.9 127.0 123.65 119.65 L126.85 122.7 124.85 124.35 M123.55 152.1 Q105.6 168.95 82.8 162.3 98.1 164.05 117.75 151.3 L123.55 152.1 M80.4 139.65 Q76.3 138.55 67.35 135.1 L67.4 131.4 Q72.8 133.05 80.1 135.85 L80.4 139.65 M53.35 155.75 Q46.95 154.35 42.45 151.7 30.65 144.7 24.45 128.55 33.7 145.7 50.5 150.6 L53.35 155.75 M37.85 115.85 Q29.4 104.5 28.0 91.4 L30.8 86.75 Q30.15 99.05 40.25 113.85 L37.85 115.85 M5.65 95.3 Q1.15 89.7 0.35 82.4 -0.85 72.0 2.1 61.85 4.8 52.7 11.55 45.6 -3.5 64.6 6.8 88.15 L5.65 95.3 M31.55 54.95 Q36.2 48.95 43.9 41.1 L49.4 42.35 Q46.4 43.75 35.5 56.75 L31.55 54.95" fill="#a3a3a3" fill-rule="evenodd" stroke="none"/>
      <path d="M36.55 22.75 L49.4 42.35 43.9 41.1 29.95 25.7 36.55 22.75" fill="url(#gradient6)" fill-rule="evenodd" stroke="none"/>
      <path d="M49.4 42.35 L51.0 41.45 Q51.8 39.9 53.55 39.5 L54.9 39.2 78.55 25.5 Q96.45 25.6 107.5 30.15 L137.0 56.8 Q144.9 73.9 142.0 89.9 L123.65 119.65 Q113.9 127.0 109.1 128.9 L100.95 130.85 102.3 129.1 Q101.6 129.95 100.55 130.1 97.8 130.05 96.3 127.7 95.05 125.65 95.0 123.2 93.9 124.55 94.3 126.35 94.7 128.25 95.7 129.65 96.7 131.05 98.45 131.45 L80.1 135.85 Q72.8 133.05 67.4 131.4 L40.25 113.85 Q30.15 99.05 30.8 86.75 L35.5 56.75 Q46.4 43.75 49.4 42.35 M75.05 33.0 Q75.2 35.5 77.5 36.45 78.9 36.9 79.9 35.7 L80.25 34.5 Q80.3 32.7 78.95 31.6 77.9 30.75 76.55 31.0 75.0 31.55 75.05 33.0 M95.55 35.6 Q94.3 37.0 94.7 38.7 95.55 42.05 98.6 43.6 L100.9 43.75 Q102.45 43.05 102.9 41.3 101.25 42.55 99.2 41.75 96.8 40.9 95.9 38.65 95.3 37.1 95.55 35.6 M73.3 32.95 Q71.95 34.4 72.35 36.15 73.0 39.1 75.5 40.75 L78.6 40.95 Q80.1 40.3 80.65 38.7 78.65 40.6 76.5 39.15 73.2 36.9 73.3 32.95 M97.75 34.45 Q97.35 35.0 97.35 35.65 97.35 37.75 99.2 38.9 100.65 39.8 101.75 38.55 102.95 37.1 102.25 35.5 101.3 33.3 98.8 33.65 L97.75 34.45 M121.2 49.9 Q121.5 47.7 119.45 46.5 118.05 45.85 116.75 46.75 116.4 47.0 116.25 47.4 115.55 49.6 117.4 51.3 118.4 52.3 119.8 51.8 121.0 51.25 121.2 49.9 M113.6 49.1 Q112.8 50.65 113.5 52.4 114.25 54.15 115.65 55.5 117.35 57.05 119.55 56.25 121.1 55.75 121.65 54.05 119.7 55.85 117.5 54.45 114.05 52.35 114.3 48.25 L113.6 49.1 M125.05 63.45 Q124.35 66.25 126.75 67.7 L129.2 67.6 Q130.45 66.35 130.05 64.65 129.55 62.75 127.4 62.3 125.95 62.15 125.05 63.45 M123.25 65.5 L123.15 64.3 Q121.9 65.65 122.3 67.45 122.85 69.85 124.6 71.5 126.4 73.2 128.45 72.2 129.95 71.6 130.55 70.05 128.55 71.8 126.4 70.55 124.9 69.7 124.2 68.15 L123.25 65.5 M125.5 89.1 Q125.55 90.0 125.95 90.9 126.6 92.4 128.25 92.8 130.6 92.5 130.6 90.15 130.6 88.65 129.35 87.7 128.25 86.85 126.9 87.1 125.4 87.45 125.5 89.1 M139.8 135.4 L139.4 135.05 139.3 134.9 139.8 135.4 M79.75 124.85 Q80.4 122.7 78.65 121.3 77.65 120.5 76.2 120.75 74.15 121.35 74.65 123.25 74.95 124.45 75.6 125.25 76.75 126.75 78.5 126.2 79.5 125.85 79.75 124.85 M72.3 123.5 Q71.6 125.15 72.3 126.75 73.05 128.5 74.35 129.85 75.3 130.8 76.8 130.95 78.05 130.95 79.0 130.3 79.95 129.65 80.35 128.45 L79.2 129.2 Q77.05 130.0 75.3 128.4 72.8 126.2 72.95 122.65 L72.3 123.5 M99.6 126.85 Q101.3 126.85 101.8 125.4 102.2 124.25 101.75 123.15 100.75 120.9 98.25 121.3 96.55 121.65 96.7 123.25 96.8 124.7 97.6 125.85 98.3 126.85 99.6 126.85 M128.55 95.95 Q126.65 95.6 125.4 94.05 123.55 91.85 123.65 89.05 121.9 91.5 123.35 94.1 124.75 96.6 127.5 97.1 129.8 97.1 131.0 94.95 130.0 96.15 128.55 95.95 M114.3 110.55 Q112.8 111.85 113.35 113.75 114.05 116.15 115.7 117.75 116.7 118.7 118.1 118.85 120.75 118.8 121.65 116.3 120.55 117.45 119.05 117.35 117.75 117.3 116.65 116.25 115.3 115.0 114.55 113.15 L114.3 110.55 M116.1 109.65 L116.15 110.95 Q116.6 113.5 118.9 114.3 120.7 114.25 121.05 112.55 121.6 110.05 119.4 109.1 117.7 108.45 116.1 109.65 M57.25 41.05 Q56.15 39.5 54.2 39.75 53.05 40.35 53.0 41.7 52.95 42.5 53.2 43.25 53.8 45.05 55.55 45.4 57.3 45.4 57.75 43.8 58.1 42.3 57.25 41.05 M50.0 44.0 Q50.1 46.2 51.55 48.1 53.4 50.5 56.25 49.65 57.9 49.05 58.3 47.4 56.4 49.15 54.15 47.9 52.6 47.05 51.75 45.6 50.55 43.7 50.95 41.65 49.9 42.55 50.0 44.0 M41.85 56.75 L41.2 57.3 Q40.6 58.75 41.5 60.2 42.4 61.55 44.0 61.95 45.65 61.9 46.15 60.35 46.55 59.1 46.1 58.15 45.7 56.9 44.55 56.5 43.05 55.9 41.85 56.75 M38.7 62.3 Q39.45 64.1 40.8 65.4 42.55 67.05 44.7 66.2 46.3 65.5 46.75 64.0 44.8 65.85 42.55 64.55 40.4 63.25 39.6 60.9 39.1 59.55 39.4 58.2 L38.7 59.05 Q38.05 60.7 38.7 62.3 M36.25 80.6 Q36.85 83.6 39.85 83.55 41.85 82.45 40.95 80.2 40.3 78.5 38.6 78.35 37.25 78.15 36.2 79.35 L36.25 80.6 M34.4 80.25 Q32.95 81.5 33.45 83.45 34.2 86.4 36.65 87.95 38.15 88.95 39.7 88.25 41.25 87.55 41.75 86.0 39.8 87.85 37.55 86.55 36.2 85.7 35.25 84.2 34.1 82.4 34.4 80.25 M53.55 112.5 Q53.3 113.4 53.5 114.35 L54.15 115.8 Q55.25 117.45 56.95 116.75 58.4 116.1 58.4 114.4 58.4 112.85 57.2 111.9 56.2 111.15 54.75 111.35 53.8 111.6 53.55 112.5 M47.25 101.7 Q47.65 100.4 47.25 99.45 46.5 97.75 44.7 97.55 42.5 97.4 42.2 99.55 L42.35 100.65 Q43.0 102.7 45.1 102.55 L46.65 102.4 47.25 101.7 M42.1 104.4 Q40.2 102.35 40.5 99.5 39.15 100.85 39.6 102.65 40.15 104.95 41.85 106.7 43.6 108.45 45.75 107.5 47.3 106.85 47.8 105.3 46.0 107.1 43.7 105.65 L42.1 104.4 M57.9 120.3 L58.85 119.05 Q56.9 120.8 54.7 119.55 52.6 118.3 51.75 115.9 51.35 114.65 51.5 113.25 50.1 114.65 50.55 116.5 51.05 118.75 52.9 120.5 54.7 122.3 56.75 121.2 57.4 120.85 57.9 120.3" fill="#646464" fill-rule="evenodd" stroke="none"/>
      <path d="M77.45 21.5 L78.55 25.5 54.9 39.2 53.55 39.5 Q51.8 39.9 51.0 41.45 L49.4 42.35 36.55 22.75 Q39.55 11.7 50.5 5.8 59.05 1.15 71.55 0.15 L77.45 21.5" fill="url(#gradient7)" fill-rule="evenodd" stroke="none"/>
      <path d="M75.05 33.0 Q75.0 31.55 76.55 31.0 77.9 30.75 78.95 31.6 80.3 32.7 80.25 34.5 L79.9 35.7 Q78.9 36.9 77.5 36.45 75.2 35.5 75.05 33.0 M97.75 34.45 L98.8 33.65 Q101.3 33.3 102.25 35.5 102.95 37.1 101.75 38.55 100.65 39.8 99.2 38.9 97.35 37.75 97.35 35.65 97.35 35.0 97.75 34.45 M121.2 49.9 Q121.0 51.25 119.8 51.8 118.4 52.3 117.4 51.3 115.55 49.6 116.25 47.4 116.4 47.0 116.75 46.75 118.05 45.85 119.45 46.5 121.5 47.7 121.2 49.9 M125.05 63.45 Q125.95 62.15 127.4 62.3 129.55 62.75 130.05 64.65 130.45 66.35 129.2 67.6 L126.75 67.7 Q124.35 66.25 125.05 63.45 M125.5 89.1 Q125.4 87.45 126.9 87.1 128.25 86.85 129.35 87.7 130.6 88.65 130.6 90.15 130.6 92.5 128.25 92.8 126.6 92.4 125.95 90.9 125.55 90.0 125.5 89.1 M79.75 124.85 Q79.5 125.85 78.5 126.2 76.75 126.75 75.6 125.25 74.95 124.45 74.65 123.25 74.15 121.35 76.2 120.75 77.65 120.5 78.65 121.3 80.4 122.7 79.75 124.85 M99.6 126.85 Q98.3 126.85 97.6 125.85 96.8 124.7 96.7 123.25 96.55 121.65 98.25 121.3 100.75 120.9 101.75 123.15 102.2 124.25 101.8 125.4 101.3 126.85 99.6 126.85 M116.1 109.65 Q117.7 108.45 119.4 109.1 121.6 110.05 121.05 112.55 120.7 114.25 118.9 114.3 116.6 113.5 116.15 110.95 L116.1 109.65 M57.25 41.05 Q58.1 42.3 57.75 43.8 57.3 45.4 55.55 45.4 53.8 45.05 53.2 43.25 52.95 42.5 53.0 41.7 53.05 40.35 54.2 39.75 56.15 39.5 57.25 41.05 M41.85 56.75 Q43.05 55.9 44.55 56.5 45.7 56.9 46.1 58.15 46.55 59.1 46.15 60.35 45.65 61.9 44.0 61.95 42.4 61.55 41.5 60.2 40.6 58.75 41.2 57.3 L41.85 56.75 M36.25 80.6 L36.2 79.35 Q37.25 78.15 38.6 78.35 40.3 78.5 40.95 80.2 41.85 82.45 39.85 83.55 36.85 83.6 36.25 80.6 M47.25 101.7 L46.65 102.4 45.1 102.55 Q43.0 102.7 42.35 100.65 L42.2 99.55 Q42.5 97.4 44.7 97.55 46.5 97.75 47.25 99.45 47.65 100.4 47.25 101.7 M53.55 112.5 Q53.8 111.6 54.75 111.35 56.2 111.15 57.2 111.9 58.4 112.85 58.4 114.4 58.4 116.1 56.95 116.75 55.25 117.45 54.15 115.8 L53.5 114.35 Q53.3 113.4 53.55 112.5" fill="#a6a6a6" fill-rule="evenodd" stroke="none"/>
      <path d="M73.3 32.95 Q73.2 36.9 76.5 39.15 78.65 40.6 80.65 38.7 80.1 40.3 78.6 40.95 L75.5 40.75 Q73.0 39.1 72.35 36.15 71.95 34.4 73.3 32.95 M95.55 35.6 Q95.3 37.1 95.9 38.65 96.8 40.9 99.2 41.75 101.25 42.55 102.9 41.3 102.45 43.05 100.9 43.75 L98.6 43.6 Q95.55 42.05 94.7 38.7 94.3 37.0 95.55 35.6 M113.6 49.1 L114.3 48.25 Q114.05 52.35 117.5 54.45 119.7 55.85 121.65 54.05 121.1 55.75 119.55 56.25 117.35 57.05 115.65 55.5 114.25 54.15 113.5 52.4 112.8 50.65 113.6 49.1 M123.25 65.5 L124.2 68.15 Q124.9 69.7 126.4 70.55 128.55 71.8 130.55 70.05 129.95 71.6 128.45 72.2 126.4 73.2 124.6 71.5 122.85 69.85 122.3 67.45 121.9 65.65 123.15 64.3 L123.25 65.5 M72.3 123.5 L72.95 122.65 Q72.8 126.2 75.3 128.4 77.05 130.0 79.2 129.2 L80.35 128.45 Q79.95 129.65 79.0 130.3 78.05 130.95 76.8 130.95 75.3 130.8 74.35 129.85 73.05 128.5 72.3 126.75 71.6 125.15 72.3 123.5 M98.45 131.45 Q96.7 131.05 95.7 129.65 94.7 128.25 94.3 126.35 93.9 124.55 95.0 123.2 95.05 125.65 96.3 127.7 97.8 130.05 100.55 130.1 101.6 129.95 102.3 129.1 L100.95 130.85 98.45 131.45 M114.3 110.55 L114.55 113.15 Q115.3 115.0 116.65 116.25 117.75 117.3 119.05 117.35 120.55 117.45 121.65 116.3 120.75 118.8 118.1 118.85 116.7 118.7 115.7 117.75 114.05 116.15 113.35 113.75 112.8 111.85 114.3 110.55 M128.55 95.95 Q130.0 96.15 131.0 94.95 129.8 97.1 127.5 97.1 124.75 96.6 123.35 94.1 121.9 91.5 123.65 89.05 123.55 91.85 125.4 94.05 126.65 95.6 128.55 95.95 M50.0 44.0 Q49.9 42.55 50.95 41.65 50.55 43.7 51.75 45.6 52.6 47.05 54.15 47.9 56.4 49.15 58.3 47.4 57.9 49.05 56.25 49.65 53.4 50.5 51.55 48.1 50.1 46.2 50.0 44.0 M38.7 62.3 Q38.05 60.7 38.7 59.05 L39.4 58.2 Q39.1 59.55 39.6 60.9 40.4 63.25 42.55 64.55 44.8 65.85 46.75 64.0 46.3 65.5 44.7 66.2 42.55 67.05 40.8 65.4 39.45 64.1 38.7 62.3 M34.4 80.25 Q34.1 82.4 35.25 84.2 36.2 85.7 37.55 86.55 39.8 87.85 41.75 86.0 41.25 87.55 39.7 88.25 38.15 88.95 36.65 87.95 34.2 86.4 33.45 83.45 32.95 81.5 34.4 80.25 M42.1 104.4 L43.7 105.65 Q46.0 107.1 47.8 105.3 47.3 106.85 45.75 107.5 43.6 108.45 41.85 106.7 40.15 104.95 39.6 102.65 39.15 100.85 40.5 99.5 40.2 102.35 42.1 104.4 M57.9 120.3 Q57.4 120.85 56.75 121.2 54.7 122.3 52.9 120.5 51.05 118.75 50.55 116.5 50.1 114.65 51.5 113.25 51.35 114.65 51.75 115.9 52.6 118.3 54.7 119.55 56.9 120.8 58.85 119.05 L57.9 120.3" fill="#1a1a1a" fill-rule="evenodd" stroke="none"/>
      <path d="M11.55 45.6 L31.55 54.95 35.5 56.75 30.8 86.75 6.8 88.15 Q-3.5 64.6 11.55 45.6" fill="url(#gradient8)" fill-rule="evenodd" stroke="none"/>
      <path d="M24.45 128.55 L37.85 115.85 40.25 113.85 67.4 131.4 50.5 150.6 Q33.7 145.7 24.45 128.55" fill="url(#gradient9)" fill-rule="evenodd" stroke="none"/>
      <path d="M28.0 91.4 L5.65 95.3 6.8 88.15 30.8 86.75 28.0 91.4" fill="url(#gradient10)" fill-rule="evenodd" stroke="none"/>
      <path d="M67.35 135.1 L53.35 155.75 50.5 150.6 67.4 131.4 67.35 135.1" fill="url(#gradient11)" fill-rule="evenodd" stroke="none"/>
      <path d="M107.5 30.15 L106.35 24.75 113.35 7.3 118.65 11.9 107.5 30.15" fill="url(#gradient12)" fill-rule="evenodd" stroke="none"/>
      <path d="M118.65 11.9 Q137.95 17.35 154.5 41.1 L138.5 55.45 137.0 56.8 107.5 30.15 118.65 11.9" fill="url(#gradient13)" fill-rule="evenodd" stroke="none"/>
      <path d="M82.8 162.3 Q82.05 160.1 80.4 139.65 L80.1 135.85 98.45 131.45 100.95 130.85 109.1 128.9 Q110.75 134.1 117.75 151.3 98.1 164.05 82.8 162.3" fill="url(#gradient14)" fill-rule="evenodd" stroke="none"/>
      <path d="M137.15 133.2 Q129.6 131.0 124.85 124.35 L126.85 122.7 137.4 132.95 137.15 133.2" fill="url(#gradient15)" fill-rule="evenodd" stroke="none"/>
      <path d="M141.25 137.05 L139.8 135.4 139.3 134.9 137.4 132.95 126.85 122.7 123.65 119.65 142.0 89.9 161.1 96.6 Q156.5 122.95 141.25 137.05" fill="url(#gradient16)" fill-rule="evenodd" stroke="none"/>
      <path d="M113.5 131.5 L123.55 152.1 117.75 151.3 Q110.75 134.1 109.1 128.9 L113.5 131.5" fill="url(#gradient17)" fill-rule="evenodd" stroke="none"/>
      <path d="M139.4 135.05 L138.75 136.05 137.15 133.2 137.4 132.95 139.3 134.9 139.4 135.05" fill="url(#gradient18)" fill-rule="evenodd" stroke="none"/>
      <path d="M146.05 87.35 L163.8 91.85 161.1 96.6 142.0 89.9 146.05 87.35" fill="url(#gradient19)" fill-rule="evenodd" stroke="none"/>
    </g>
    <linearGradient gradientTransform="matrix(0.0119, 0.0, 0.0, 0.012, 39.65, 32.55)" gradientUnits="userSpaceOnUse" id="gradient6" spreadMethod="pad" x1="-819.2" x2="819.2">
      <stop offset="0.4392156862745098" stop-color="#dbdbdb"/>
      <stop offset="1.0" stop-color="#5a626a"/>
    </linearGradient>
    <linearGradient gradientTransform="matrix(0.0239, 0.0091, -0.0091, 0.0241, 57.55, 21.25)" gradientUnits="userSpaceOnUse" id="gradient7" spreadMethod="pad" x1="-819.2" x2="819.2">
      <stop offset="0.0" stop-color="#2d2d2d"/>
      <stop offset="0.6274509803921569" stop-color="#646464"/>
    </linearGradient>
    <linearGradient gradientTransform="matrix(0.011, -0.0214, 0.0161, 0.0146, 19.45, 66.85)" gradientUnits="userSpaceOnUse" id="gradient8" spreadMethod="pad" x1="-819.2" x2="819.2">
      <stop offset="0.0" stop-color="#2d2d2d"/>
      <stop offset="0.6274509803921569" stop-color="#646464"/>
    </linearGradient>
    <linearGradient gradientTransform="matrix(-0.0022, -0.0223, 0.0262, -0.0019, 45.9, 132.2)" gradientUnits="userSpaceOnUse" id="gradient9" spreadMethod="pad" x1="-819.2" x2="819.2">
      <stop offset="0.0" stop-color="#2d2d2d"/>
      <stop offset="0.6274509803921569" stop-color="#646464"/>
    </linearGradient>
    <linearGradient gradientTransform="matrix(0.0154, 0.0, 0.0, 0.0052, 18.2, 91.0)" gradientUnits="userSpaceOnUse" id="gradient10" spreadMethod="pad" x1="-819.2" x2="819.2">
      <stop offset="0.4392156862745098" stop-color="#dbdbdb"/>
      <stop offset="1.0" stop-color="#5a626a"/>
    </linearGradient>
    <linearGradient gradientTransform="matrix(0.0103, 0.0, 0.0, 0.0149, 58.95, 143.55)" gradientUnits="userSpaceOnUse" id="gradient11" spreadMethod="pad" x1="-819.2" x2="819.2">
      <stop offset="0.4392156862745098" stop-color="#dbdbdb"/>
      <stop offset="1.0" stop-color="#5a626a"/>
    </linearGradient>
    <linearGradient gradientTransform="matrix(0.0075, 0.0, 0.0, 0.0139, 112.5, 18.7)" gradientUnits="userSpaceOnUse" id="gradient12" spreadMethod="pad" x1="-819.2" x2="819.2">
      <stop offset="0.4392156862745098" stop-color="#dbdbdb"/>
      <stop offset="1.0" stop-color="#5a626a"/>
    </linearGradient>
    <linearGradient gradientTransform="matrix(0.0026, 0.0273, -0.0285, 0.0025, 131.0, 34.3)" gradientUnits="userSpaceOnUse" id="gradient13" spreadMethod="pad" x1="-819.2" x2="819.2">
      <stop offset="0.0" stop-color="#2d2d2d"/>
      <stop offset="0.6274509803921569" stop-color="#646464"/>
    </linearGradient>
    <linearGradient gradientTransform="matrix(-0.0215, -0.0072, 0.008, -0.0192, 98.95, 145.65)" gradientUnits="userSpaceOnUse" id="gradient14" spreadMethod="pad" x1="-819.2" x2="819.2">
      <stop offset="0.0" stop-color="#2d2d2d"/>
      <stop offset="0.6274509803921569" stop-color="#646464"/>
    </linearGradient>
    <linearGradient gradientTransform="matrix(-0.0012, -0.0123, 0.0144, -0.001, 134.65, 123.05)" gradientUnits="userSpaceOnUse" id="gradient15" spreadMethod="pad" x1="-819.2" x2="819.2">
      <stop offset="0.0" stop-color="#2d2d2d"/>
      <stop offset="0.6274509803921569" stop-color="#888888"/>
    </linearGradient>
    <linearGradient gradientTransform="matrix(-0.0227, 0.0029, -0.0023, -0.0286, 142.35, 113.45)" gradientUnits="userSpaceOnUse" id="gradient16" spreadMethod="pad" x1="-819.2" x2="819.2">
      <stop offset="0.0" stop-color="#2d2d2d"/>
      <stop offset="0.6274509803921569" stop-color="#646464"/>
    </linearGradient>
    <linearGradient gradientTransform="matrix(0.0088, 0.0, 0.0, 0.0141, 116.3, 140.45)" gradientUnits="userSpaceOnUse" id="gradient17" spreadMethod="pad" x1="-819.2" x2="819.2">
      <stop offset="0.4392156862745098" stop-color="#dbdbdb"/>
      <stop offset="1.0" stop-color="#5a626a"/>
    </linearGradient>
    <linearGradient gradientTransform="matrix(0.0057, 0.0, 0.0, 0.0082, 141.8, 129.3)" gradientUnits="userSpaceOnUse" id="gradient18" spreadMethod="pad" x1="-819.2" x2="819.2">
      <stop offset="0.43137254901960786" stop-color="#efefef"/>
      <stop offset="1.0" stop-color="#5a626a"/>
    </linearGradient>
    <linearGradient gradientTransform="matrix(0.0133, 0.0, 0.0, 0.0056, 152.9, 91.95)" gradientUnits="userSpaceOnUse" id="gradient19" spreadMethod="pad" x1="-819.2" x2="819.2">
      <stop offset="0.4392156862745098" stop-color="#dbdbdb"/>
      <stop offset="1.0" stop-color="#5a626a"/>
    </linearGradient>
    <g id="shape2" transform="matrix(1.0, 0.0, 0.0, 1.0, 0.0, 0.0)">
      <path d="M46.5 0.45 Q54.65 1.55 61.75 5.85 68.9 10.1 73.75 16.75 78.45 23.15 80.35 30.9 82.3 38.65 81.2 46.5 80.05 54.65 75.8 61.75 71.5 68.9 64.85 73.75 58.45 78.4 50.75 80.35 43.0 82.3 35.1 81.2 26.95 80.05 19.85 75.8 12.75 71.5 7.9 64.9 3.2 58.45 1.25 50.7 -0.7 43.0 0.4 35.15 1.55 26.95 5.85 19.85 10.1 12.75 16.75 7.9 23.15 3.2 30.9 1.25 38.65 -0.7 46.5 0.45" fill="url(#gradient20)" fill-rule="evenodd" stroke="none"/>
      <path d="M45.45 10.5 Q52.6 11.5 58.85 15.25 65.05 19.0 69.3 24.85 73.45 30.45 75.15 37.25 76.85 44.05 75.85 50.95 74.85 58.1 71.15 64.35 67.4 70.6 61.55 74.85 55.95 78.95 49.15 80.65 42.35 82.35 35.45 81.4 28.3 80.4 22.05 76.65 15.8 72.9 11.55 67.05 7.45 61.45 5.75 54.65 4.05 47.85 5.0 40.95 6.0 33.8 9.75 27.6 13.5 21.35 19.3 17.05 24.95 12.95 31.75 11.25 38.55 9.55 45.45 10.5" fill="#535353" fill-rule="evenodd" stroke="none"/>
      <path d="M12.3 52.0 Q10.9 46.4 11.7 40.75 12.5 34.85 15.6 29.75 18.7 24.6 23.45 21.15 28.1 17.75 33.65 16.35 39.25 14.95 44.9 15.75 50.8 16.55 55.9 19.65 61.05 22.7 64.55 27.5 67.9 32.15 69.3 37.7 70.7 43.3 69.9 48.95 69.1 54.8 66.0 59.95 62.95 65.1 58.15 68.55 53.55 71.95 47.95 73.35 42.35 74.75 36.7 73.95 30.85 73.15 25.7 70.05 20.55 67.0 17.1 62.2 13.7 57.55 12.3 52.0" fill="url(#gradient21)" fill-rule="evenodd" stroke="none"/>
      <path d="M12.35 53.65 Q11.0 48.2 11.75 42.7 12.55 37.0 15.55 32.0 18.55 27.0 23.2 23.6 27.7 20.3 33.1 18.95 38.55 17.6 44.05 18.35 49.75 19.2 54.75 22.15 59.75 25.15 63.15 29.8 66.45 34.3 67.8 39.75 69.15 45.15 68.4 50.7 67.6 56.4 64.6 61.4 61.6 66.4 56.95 69.8 52.45 73.05 47.0 74.45 41.6 75.8 36.05 75.0 30.4 74.2 25.4 71.2 20.4 68.25 17.0 63.6 13.7 59.1 12.35 53.65" fill="#535353" fill-rule="evenodd" stroke="none"/>
    </g>
    <linearGradient gradientTransform="matrix(0.0, -0.0497, 0.0497, 0.0, 40.8, 40.8)" gradientUnits="userSpaceOnUse" id="gradient20" spreadMethod="pad" x1="-819.2" x2="819.2">
      <stop offset="0.5333333333333333" stop-color="#3e3e3e"/>
      <stop offset="1.0" stop-color="#0d0a0f"/>
    </linearGradient>
    <linearGradient gradientTransform="matrix(0.0, -0.0358, 0.0358, 0.0, 40.8, 44.85)" gradientUnits="userSpaceOnUse" id="gradient21" spreadMethod="pad" x1="-819.2" x2="819.2">
      <stop offset="0.5333333333333333" stop-color="#3e3e3e"/>
      <stop offset="1.0" stop-color="#0d0a0f"/>
    </linearGradient>
    <g id="shape3" transform="matrix(1.0, 0.0, 0.0, 1.0, 0.0, 0.0)">
      <path d="M44.95 43.6 L72.7 113.05 56.05 119.05 6.95 16.6 Q6.1 14.45 14.2 9.35 L16.35 12.35 21.9 10.2 21.95 9.8 22.35 5.1 24.8 3.75 24.1 4.15 27.05 3.8 53.0 65.15 36.3 22.9 44.95 43.6 M18.65 17.65 Q16.0 19.15 16.1 22.35 16.15 25.1 17.2 27.75 17.8 29.2 19.15 30.35 21.75 32.55 24.85 31.2 26.6 30.55 27.65 28.65 29.45 27.5 30.25 25.4 31.65 21.7 29.8 18.35 L30.15 17.75 28.15 15.75 27.9 16.15 Q25.3 14.3 22.2 15.0 19.85 15.7 18.65 17.65 M29.5 40.3 Q27.65 41.95 27.7 44.55 27.8 47.2 29.5 49.1 30.4 50.15 31.7 50.0 32.7 50.25 33.75 49.7 34.65 49.15 35.0 48.15 L36.25 46.95 36.75 47.25 38.1 45.85 37.05 45.1 Q37.75 41.45 34.6 39.6 33.9 39.25 33.15 39.05 31.05 38.85 29.5 40.3 M42.2 62.3 Q40.5 62.4 39.55 63.6 38.4 64.85 38.75 66.9 39.2 69.85 40.7 71.2 41.8 72.15 43.1 72.1 L43.65 72.25 43.7 72.0 Q46.45 71.15 47.0 68.4 47.6 65.2 45.25 63.25 L45.25 62.7 42.2 62.3" fill="url(#gradient22)" fill-rule="evenodd" stroke="none"/>
      <path d="M16.2 8.1 L16.2 3.55 22.35 5.1 21.95 9.8 16.2 8.1" fill="url(#gradient23)" fill-rule="evenodd" stroke="none"/>
      <path d="M30.2 72.9 L0.0 14.2 9.7 6.8 12.5 7.25 15.45 6.7 15.25 3.1 22.05 0.0 28.6 1.45 44.95 43.6 36.3 22.9 27.9 2.1 22.75 1.25 16.2 3.55 16.2 8.1 12.75 9.1 9.95 8.65 1.7 14.35 30.2 72.9" fill="#323232" fill-rule="evenodd" stroke="none"/>
      <path d="M16.2 3.55 L22.75 1.25 27.9 2.1 24.8 3.75 22.35 5.1 16.2 3.55" fill="url(#gradient24)" fill-rule="evenodd" stroke="none"/>
      <path d="M27.9 2.1 L36.3 22.9 53.0 65.15 27.05 3.8 24.1 4.15 24.8 3.75 27.9 2.1" fill="#bdb9b9" fill-rule="evenodd" stroke="none"/>
      <path d="M12.75 9.1 L16.2 8.1 21.95 9.8 21.9 10.2 16.35 12.35 14.2 9.35 12.75 9.1" fill="url(#gradient25)" fill-rule="evenodd" stroke="none"/>
      <path d="M1.7 14.35 L9.95 8.65 12.75 9.1 14.2 9.35 Q6.1 14.45 6.95 16.6 L1.7 14.35" fill="url(#gradient26)" fill-rule="evenodd" stroke="none"/>
      <path d="M27.65 28.65 Q26.6 30.55 24.85 31.2 21.75 32.55 19.15 30.35 17.8 29.2 17.2 27.75 16.15 25.1 16.1 22.35 16.0 19.15 18.65 17.65 17.7 19.35 18.05 21.8 18.6 25.25 20.05 27.25 L22.6 23.8 27.45 16.8 27.9 16.15 28.15 15.75 30.15 17.75 29.8 18.35 28.8 19.95 25.5 24.75 22.3 29.2 Q23.8 29.95 25.65 29.55 L27.65 28.65 M29.5 40.3 L30.75 41.0 35.5 44.05 37.05 45.1 38.1 45.85 36.75 47.25 36.25 46.95 33.8 45.5 31.15 44.0 28.7 42.65 28.8 43.55 Q29.25 46.5 30.75 47.9 32.05 49.05 33.75 48.65 L35.0 48.15 Q34.65 49.15 33.75 49.7 32.7 50.25 31.7 50.0 30.4 50.15 29.5 49.1 27.8 47.2 27.7 44.55 27.65 41.95 29.5 40.3 M43.1 72.1 L41.75 71.7 41.95 68.45 42.15 62.95 42.2 62.3 45.25 62.7 45.25 63.25 45.2 63.95 44.45 68.55 43.7 72.0 43.65 72.25 43.1 72.1" fill="#47515f" fill-rule="evenodd" stroke="none"/>
      <path d="M27.65 28.65 L25.65 29.55 Q23.8 29.95 22.3 29.2 L25.5 24.75 Q26.85 24.75 27.85 23.35 28.8 21.95 28.8 19.95 L29.8 18.35 Q31.65 21.7 30.25 25.4 29.45 27.5 27.65 28.65 M27.9 16.15 L27.45 16.8 Q25.0 14.6 22.2 16.3 21.15 17.0 21.0 18.2 20.6 21.3 22.6 23.8 L20.05 27.25 Q18.6 25.25 18.05 21.8 17.7 19.35 18.65 17.65 19.85 15.7 22.2 15.0 25.3 14.3 27.9 16.15 M30.75 41.0 L29.5 40.3 Q31.05 38.85 33.15 39.05 33.9 39.25 34.6 39.6 37.75 41.45 37.05 45.1 L35.5 44.05 Q36.4 42.2 35.1 40.5 34.2 39.4 32.85 39.5 31.4 39.6 30.75 41.0 M35.0 48.15 L33.75 48.65 Q32.05 49.05 30.75 47.9 29.25 46.5 28.8 43.55 L28.7 42.65 31.15 44.0 Q31.15 44.6 31.95 45.05 L33.8 45.5 36.25 46.95 35.0 48.15 M43.1 72.1 Q41.8 72.15 40.7 71.2 39.2 69.85 38.75 66.9 38.4 64.85 39.55 63.6 40.5 62.4 42.2 62.3 L42.15 62.95 Q40.6 63.45 40.6 65.1 40.65 67.1 41.95 68.45 L41.75 71.7 43.1 72.1 M45.25 63.25 Q47.6 65.2 47.0 68.4 46.45 71.15 43.7 72.0 L44.45 68.55 Q45.45 67.9 45.7 66.6 46.0 65.1 45.2 63.95 L45.25 63.25" fill="#9c9c9c" fill-rule="evenodd" stroke="none"/>
      <path d="M25.5 24.75 L28.8 19.95 Q28.8 21.95 27.85 23.35 26.85 24.75 25.5 24.75 M27.45 16.8 L22.6 23.8 Q20.6 21.3 21.0 18.2 21.15 17.0 22.2 16.3 25.0 14.6 27.45 16.8 M31.15 44.0 L33.8 45.5 31.95 45.05 Q31.15 44.6 31.15 44.0 M35.5 44.05 L30.75 41.0 Q31.4 39.6 32.85 39.5 34.2 39.4 35.1 40.5 36.4 42.2 35.5 44.05 M41.95 68.45 Q40.65 67.1 40.6 65.1 40.6 63.45 42.15 62.95 L41.95 68.45 M45.2 63.95 Q46.0 65.1 45.7 66.6 45.45 67.9 44.45 68.55 L45.2 63.95" fill="#d4d4d4" fill-rule="evenodd" stroke="none"/>
      <path d="M56.05 119.05 L52.9 118.2 30.2 72.9 1.7 14.35 6.95 16.6 56.05 119.05" fill="url(#gradient27)" fill-rule="evenodd" stroke="none"/>
    </g>
    <linearGradient gradientTransform="matrix(0.0401, 0.0, 0.0, 0.0714, 39.8, 60.55)" gradientUnits="userSpaceOnUse" id="gradient22" spreadMethod="pad" x1="-819.2" x2="819.2">
      <stop offset="0.058823529411764705" stop-color="#bcbcbc"/>
      <stop offset="0.6431372549019608" stop-color="#2a302d"/>
    </linearGradient>
    <linearGradient gradientTransform="matrix(0.0038, 0.0, 0.0, 0.0041, 19.35, 6.85)" gradientUnits="userSpaceOnUse" id="gradient23" spreadMethod="pad" x1="-819.2" x2="819.2">
      <stop offset="0.058823529411764705" stop-color="#bcbcbc"/>
      <stop offset="0.6431372549019608" stop-color="#2a302d"/>
    </linearGradient>
    <linearGradient gradientTransform="matrix(0.0071, 0.0, 0.0, 0.0023, 22.05, 3.15)" gradientUnits="userSpaceOnUse" id="gradient24" spreadMethod="pad" x1="-819.2" x2="819.2">
      <stop offset="0.058823529411764705" stop-color="#bcbcbc"/>
      <stop offset="0.6431372549019608" stop-color="#2a302d"/>
    </linearGradient>
    <linearGradient gradientTransform="matrix(0.0075, 0.0, 0.0, 0.0026, 16.6, 10.2)" gradientUnits="userSpaceOnUse" id="gradient25" spreadMethod="pad" x1="-819.2" x2="819.2">
      <stop offset="0.058823529411764705" stop-color="#bcbcbc"/>
      <stop offset="0.6431372549019608" stop-color="#2a302d"/>
    </linearGradient>
    <linearGradient gradientTransform="matrix(0.0076, 0.0, 0.0, 0.0049, 7.95, 12.6)" gradientUnits="userSpaceOnUse" id="gradient26" spreadMethod="pad" x1="-819.2" x2="819.2">
      <stop offset="0.058823529411764705" stop-color="#bcbcbc"/>
      <stop offset="0.6431372549019608" stop-color="#2a302d"/>
    </linearGradient>
    <linearGradient gradientTransform="matrix(0.0332, 0.0, 0.0, 0.0639, 28.85, 66.65)" gradientUnits="userSpaceOnUse" id="gradient27" spreadMethod="pad" x1="-819.2" x2="819.2">
      <stop offset="0.47058823529411764" stop-color="#bcbcbc"/>
      <stop offset="0.9098039215686274" stop-color="#2a302d"/>
    </linearGradient>
    <g id="shape4" transform="matrix(1.0, 0.0, 0.0, 1.0, 0.0, 0.0)">
      <path d="M88.5 39.6 Q88.15 40.45 87.4 40.8 L85.8 40.7 Q84.85 40.15 84.25 38.7 83.9 37.75 84.25 37.0 L84.65 36.55 Q84.45 37.2 84.8 37.95 85.35 39.35 86.25 39.85 L87.9 39.95 88.5 39.6 M96.5 37.3 Q95.55 36.75 95.0 35.3 94.55 34.3 95.0 33.65 95.35 32.9 96.2 32.75 L97.85 32.9 98.1 33.1 96.5 32.9 Q95.6 33.1 95.3 33.8 94.85 34.5 95.3 35.5 95.75 36.7 96.5 37.3" fill="#47515f" fill-rule="evenodd" stroke="none"/>
      <path d="M88.15 36.5 L87.35 35.65 86.3 35.55 Q85.8 35.7 85.55 36.15 85.3 36.55 85.55 37.2 85.9 38.05 86.5 38.4 L87.5 38.45 88.15 37.7 Q88.4 37.15 88.15 36.5 M84.65 36.55 L84.8 36.25 Q85.1 35.55 86.0 35.35 L87.6 35.55 Q88.5 35.95 88.9 36.95 89.3 37.9 88.95 38.8 L88.5 39.6 87.9 39.95 86.25 39.85 Q85.35 39.35 84.8 37.95 84.45 37.2 84.65 36.55 M74.35 44.45 L73.25 45.6 71.65 45.5 Q70.7 44.95 70.1 43.5 69.7 42.55 70.1 41.85 70.45 41.15 71.3 41.0 L72.95 41.1 Q73.8 41.5 74.25 42.5 74.6 43.5 74.35 44.45 M96.55 33.1 Q96.0 33.25 95.8 33.7 95.55 34.1 95.8 34.75 96.15 35.6 96.75 35.95 L97.75 36.0 98.4 35.25 Q98.6 34.7 98.35 34.1 98.1 33.5 97.6 33.25 L96.55 33.1 M96.5 37.3 Q95.75 36.7 95.3 35.5 94.85 34.5 95.3 33.8 95.6 33.1 96.5 32.9 L98.1 33.1 98.7 33.45 99.4 34.5 99.65 35.6 99.5 36.35 Q99.15 37.25 98.4 37.55 L96.8 37.5 96.6 37.35 96.5 37.3 M72.7 41.25 L71.65 41.15 Q71.1 41.25 70.95 41.7 70.65 42.15 70.95 42.8 71.25 43.65 71.85 43.95 L72.85 44.05 73.5 43.3 Q73.7 42.75 73.45 42.15 73.25 41.5 72.7 41.25" fill="#9c9c9c" fill-rule="evenodd" stroke="none"/>
      <path d="M88.15 36.5 Q88.4 37.15 88.15 37.7 L87.5 38.45 86.5 38.4 Q85.9 38.05 85.55 37.2 85.3 36.55 85.55 36.15 85.8 35.7 86.3 35.55 L87.35 35.65 88.15 36.5 M96.55 33.1 L97.6 33.25 Q98.1 33.5 98.35 34.1 98.6 34.7 98.4 35.25 L97.75 36.0 96.75 35.95 Q96.15 35.6 95.8 34.75 95.55 34.1 95.8 33.7 96.0 33.25 96.55 33.1 M72.7 41.25 Q73.25 41.5 73.45 42.15 73.7 42.75 73.5 43.3 L72.85 44.05 71.85 43.95 Q71.25 43.65 70.95 42.8 70.65 42.15 70.95 41.7 71.1 41.25 71.65 41.15 L72.7 41.25" fill="#d4d4d4" fill-rule="evenodd" stroke="none"/>
      <path d="M2.05 6.25 L2.0 2.7 69.1 0.1 75.55 0.75 Q80.1 1.35 83.6 2.5 93.45 5.65 94.45 12.8 L97.05 29.2 Q100.2 30.5 101.8 33.9 102.9 36.2 102.9 38.15 L90.0 41.65 100.2 38.3 99.65 35.6 99.4 34.5 98.7 33.45 Q97.85 32.1 96.55 31.85 93.7 31.25 26.35 51.3 L38.75 55.75 3.05 65.6 2.9 57.35 Q84.25 33.7 93.95 31.25 L93.9 26.25 92.6 15.65 Q91.6 8.95 81.95 6.0 78.55 4.9 74.05 4.4 L67.75 3.75 2.05 6.25" fill="url(#gradient28)" fill-rule="evenodd" stroke="none"/>
      <path d="M2.9 57.35 L0.0 58.25 2.05 6.25 67.75 3.75 74.05 4.4 Q78.55 4.9 81.95 6.0 91.6 8.95 92.6 15.65 L93.9 26.25 93.95 31.25 Q84.25 33.7 2.9 57.35" fill="url(#gradient29)" fill-rule="evenodd" stroke="none"/>
      <path d="M90.0 41.65 L42.55 57.1 38.75 55.75 26.35 51.3 Q93.7 31.25 96.55 31.85 97.85 32.1 98.7 33.45 L98.1 33.1 97.85 32.9 96.2 32.75 Q95.35 32.9 95.0 33.65 94.55 34.3 95.0 35.3 95.55 36.75 96.5 37.3 L96.6 37.35 96.8 37.5 98.4 37.55 Q99.15 37.25 99.5 36.35 L99.65 35.6 100.2 38.3 90.0 41.65 M84.65 36.55 L84.25 37.0 Q83.9 37.75 84.25 38.7 84.85 40.15 85.8 40.7 L87.4 40.8 Q88.15 40.45 88.5 39.6 L88.95 38.8 Q89.3 37.9 88.9 36.95 88.5 35.95 87.6 35.55 L86.0 35.35 Q85.1 35.55 84.8 36.25 L84.65 36.55 M74.35 44.45 Q74.6 43.5 74.25 42.5 73.8 41.5 72.95 41.1 L71.3 41.0 Q70.45 41.15 70.1 41.85 69.7 42.55 70.1 43.5 70.7 44.95 71.65 45.5 L73.25 45.6 74.35 44.45" fill="url(#gradient30)" fill-rule="evenodd" stroke="none"/>
    </g>
    <linearGradient gradientTransform="matrix(-0.0338, 0.0333, -0.0514, -0.022, 52.45, 32.85)" gradientUnits="userSpaceOnUse" id="gradient28" spreadMethod="pad" x1="-819.2" x2="819.2">
      <stop offset="0.4392156862745098" stop-color="#d2d2d2"/>
      <stop offset="1.0" stop-color="#787e86"/>
    </linearGradient>
    <linearGradient gradientTransform="matrix(-0.0018, 0.0332, -0.0573, -0.001, 46.95, 30.95)" gradientUnits="userSpaceOnUse" id="gradient29" spreadMethod="pad" x1="-819.2" x2="819.2">
      <stop offset="0.058823529411764705" stop-color="#bcbcbc"/>
      <stop offset="0.6431372549019608" stop-color="#2a302d"/>
    </linearGradient>
    <linearGradient gradientTransform="matrix(-0.0268, 0.0124, -0.0358, -0.0108, 63.3, 44.3)" gradientUnits="userSpaceOnUse" id="gradient30" spreadMethod="pad" x1="-819.2" x2="819.2">
      <stop offset="0.058823529411764705" stop-color="#bcbcbc"/>
      <stop offset="0.6431372549019608" stop-color="#3d4751"/>
    </linearGradient>
    <g id="shape5" transform="matrix(1.0, 0.0, 0.0, 1.0, 0.0, 0.0)">
      <path d="M89.75 68.9 Q80.1 68.8 73.5 67.1 73.95 62.25 72.2 59.95 70.45 57.6 0.0 15.1 L9.6 0.0 Q80.9 47.1 84.05 49.9 85.25 51.0 86.65 53.35 88.0 55.75 89.0 58.45 90.05 61.45 90.35 64.05 90.6 66.95 89.75 68.9" fill="#2d2323" fill-rule="evenodd" stroke="none"/>
      <path d="M71.4 57.15 L0.15 13.8 8.65 0.15 Q78.9 46.9 81.65 49.55 82.15 56.05 71.4 57.15" fill="url(#gradient31)" fill-rule="evenodd" stroke="none"/>
      <path d="M73.1 59.3 Q72.35 57.9 71.4 57.15 80.05 55.35 81.65 49.55 L83.95 51.85 Q85.75 53.95 87.0 56.3 90.5 63.25 88.45 70.75 84.15 73.5 78.65 73.35 74.85 73.3 72.05 72.1 75.05 67.65 74.25 62.8 73.95 60.9 73.1 59.3" fill="url(#gradient32)" fill-rule="evenodd" stroke="none"/>
      <path d="M81.4 53.6 Q81.7 52.75 82.6 52.75 L83.2 53.0 Q83.5 53.2 83.3 53.6 L82.8 54.45 82.05 54.6 81.5 54.25 Q81.25 53.95 81.4 53.6" fill="#000000" fill-rule="evenodd" stroke="none"/>
      <path d="M81.15 53.35 Q81.25 52.95 81.65 52.75 L82.35 52.55 82.95 52.75 Q83.2 53.0 83.05 53.4 82.75 54.5 81.8 54.35 L81.25 54.05 Q81.0 53.7 81.15 53.35" fill="#535353" fill-rule="evenodd" stroke="none"/>
      <path d="M81.45 53.15 Q81.6 52.65 82.2 52.65 82.85 52.65 82.65 53.15 82.45 53.85 81.85 53.75 L81.5 53.55 Q81.4 53.35 81.45 53.15" fill="#9c9c9c" fill-rule="evenodd" stroke="none"/>
      <path d="M77.6 56.6 L78.15 56.05 78.85 55.8 79.5 56.05 79.6 56.65 Q79.2 57.75 78.25 57.6 L77.7 57.35 Q77.5 57.0 77.6 56.6" fill="#000000" fill-rule="evenodd" stroke="none"/>
      <path d="M77.35 56.4 Q77.45 56.0 77.85 55.75 L78.55 55.6 79.2 55.75 Q79.45 56.05 79.35 56.4 78.95 57.55 78.0 57.4 L77.45 57.05 Q77.25 56.8 77.35 56.4" fill="#535353" fill-rule="evenodd" stroke="none"/>
      <path d="M77.7 56.15 Q77.85 55.7 78.45 55.7 79.05 55.7 78.9 56.25 78.65 56.9 78.05 56.85 L77.75 56.6 77.7 56.15" fill="#9c9c9c" fill-rule="evenodd" stroke="none"/>
      <path d="M72.65 58.3 L73.1 57.7 73.85 57.5 74.45 57.75 Q74.7 57.95 74.55 58.35 L74.0 59.15 73.25 59.3 72.7 58.95 Q72.5 58.7 72.65 58.3" fill="#000000" fill-rule="evenodd" stroke="none"/>
      <path d="M72.4 58.05 Q72.6 57.25 73.6 57.3 L74.2 57.45 Q74.45 57.75 74.3 58.1 L73.7 58.9 73.0 59.1 72.45 58.75 Q72.2 58.45 72.4 58.05" fill="#535353" fill-rule="evenodd" stroke="none"/>
      <path d="M72.65 57.85 Q72.85 57.4 73.4 57.35 74.05 57.35 73.85 57.85 73.7 58.6 73.1 58.5 L72.7 58.3 72.65 57.85" fill="#9c9c9c" fill-rule="evenodd" stroke="none"/>
    </g>
    <linearGradient gradientTransform="matrix(-0.0486, -0.0229, 0.0151, -0.0128, 42.1, 29.5)" gradientUnits="userSpaceOnUse" id="gradient31" spreadMethod="pad" x1="-819.2" x2="819.2">
      <stop offset="0.0" stop-color="#565656"/>
      <stop offset="0.403921568627451" stop-color="#999999"/>
      <stop offset="0.592156862745098" stop-color="#dbdbdb"/>
      <stop offset="0.7803921568627451" stop-color="#9b9b9b"/>
      <stop offset="1.0" stop-color="#0d0a0f"/>
    </linearGradient>
    <linearGradient gradientTransform="matrix(-0.0128, -0.0011, 0.0025, -0.0145, 80.55, 62.35)" gradientUnits="userSpaceOnUse" id="gradient32" spreadMethod="pad" x1="-819.2" x2="819.2">
      <stop offset="0.058823529411764705" stop-color="#878787"/>
      <stop offset="0.48627450980392156" stop-color="#141a17"/>
    </linearGradient>
    <g id="shape6" transform="matrix(1.0, 0.0, 0.0, 1.0, 0.0, 0.0)">
      <path d="M0.2 24.15 Q-0.3 17.2 0.45 11.05 1.25 4.6 3.25 0.0 L48.1 13.9 72.7 43.45 78.15 92.1 60.85 95.75 54.9 61.2 40.25 53.25 Q14.8 49.6 6.15 49.15 3.75 44.1 2.15 37.5 0.65 31.0 0.2 24.15" fill="#2d2323" fill-rule="evenodd" stroke="none"/>
      <path d="M70.95 43.55 L76.05 91.85 63.75 95.75 56.6 60.2 70.95 43.55" fill="url(#gradient33)" fill-rule="evenodd" stroke="none"/>
      <path d="M3.9 2.0 Q31.25 7.5 47.8 15.1 42.35 25.6 41.1 51.6 15.1 48.35 7.0 46.2 -4.5 16.1 3.9 2.0" fill="url(#gradient34)" fill-rule="evenodd" stroke="none"/>
      <path d="M47.8 15.1 Q69.55 41.3 70.95 43.55 71.05 47.75 69.25 51.3 67.75 54.3 65.0 56.55 62.7 58.45 60.1 59.5 57.8 60.4 56.6 60.2 48.35 55.4 41.1 51.6 40.05 16.2 47.8 15.1" fill="url(#gradient35)" fill-rule="evenodd" stroke="none"/>
      <path d="M11.35 44.05 Q11.85 44.65 11.8 45.35 11.75 46.05 11.3 46.45 10.8 46.85 10.15 46.75 9.35 46.55 8.6 45.7 8.1 45.05 8.2 44.45 8.35 43.9 8.9 43.55 L10.1 43.3 Q10.85 43.4 11.35 44.05" fill="#000000" fill-rule="evenodd" stroke="none"/>
      <path d="M11.5 43.35 Q12.05 43.95 12.0 44.7 11.95 45.35 11.45 45.8 L10.3 46.05 Q9.55 45.9 8.8 45.0 8.25 44.4 8.4 43.8 8.5 43.25 9.05 42.9 9.6 42.55 10.3 42.65 11.0 42.75 11.5 43.35" fill="#535353" fill-rule="evenodd" stroke="none"/>
      <path d="M10.9 43.25 L11.2 44.05 10.85 44.75 10.15 44.9 9.15 44.3 Q8.85 43.9 8.95 43.5 9.0 43.2 9.35 42.95 L10.1 42.8 10.9 43.25" fill="#9c9c9c" fill-rule="evenodd" stroke="none"/>
      <path d="M6.05 33.65 Q6.6 33.3 7.25 33.4 8.0 33.5 8.5 34.1 9.0 34.75 9.0 35.45 8.95 36.15 8.5 36.55 8.0 36.95 7.3 36.85 6.5 36.65 5.8 35.75 5.25 35.15 5.4 34.55 5.5 34.0 6.05 33.65" fill="#000000" fill-rule="evenodd" stroke="none"/>
      <path d="M8.7 33.45 Q9.2 34.05 9.15 34.8 9.15 35.45 8.65 35.9 8.15 36.3 7.5 36.15 6.7 36.0 5.95 35.1 5.45 34.5 5.6 33.9 5.7 33.35 6.25 33.0 6.8 32.65 7.45 32.75 8.2 32.85 8.7 33.45" fill="#535353" fill-rule="evenodd" stroke="none"/>
      <path d="M8.05 33.35 Q8.4 33.7 8.35 34.15 L8.05 34.85 7.3 35.0 Q6.8 34.9 6.35 34.4 6.05 34.0 6.1 33.6 L6.55 33.05 7.3 32.9 Q7.75 32.95 8.05 33.35" fill="#9c9c9c" fill-rule="evenodd" stroke="none"/>
      <path d="M6.1 21.7 Q6.6 22.3 6.55 23.05 6.55 23.7 6.05 24.1 5.55 24.55 4.9 24.4 4.1 24.25 3.35 23.35 2.85 22.75 3.0 22.1 3.1 21.55 3.65 21.2 L4.85 21.0 Q5.6 21.05 6.1 21.7" fill="#000000" fill-rule="evenodd" stroke="none"/>
      <path d="M6.25 21.05 Q6.8 21.65 6.75 22.35 6.7 23.05 6.25 23.45 5.75 23.85 5.05 23.75 L3.55 22.7 Q3.05 22.05 3.15 21.45 3.25 20.9 3.8 20.55 4.35 20.2 5.05 20.3 5.75 20.4 6.25 21.05" fill="#535353" fill-rule="evenodd" stroke="none"/>
      <path d="M5.65 20.9 L5.95 21.75 5.6 22.4 Q5.3 22.7 4.9 22.6 L3.95 21.95 Q3.6 21.6 3.7 21.2 3.75 20.85 4.1 20.6 L4.85 20.45 5.65 20.9" fill="#9c9c9c" fill-rule="evenodd" stroke="none"/>
      <path d="M5.65 10.75 Q6.15 11.35 6.1 12.1 6.1 12.75 5.6 13.15 5.1 13.6 4.45 13.45 3.65 13.3 2.9 12.4 2.4 11.8 2.5 11.2 2.65 10.6 3.2 10.3 L4.4 10.05 Q5.15 10.15 5.65 10.75" fill="#000000" fill-rule="evenodd" stroke="none"/>
      <path d="M5.8 10.05 Q6.35 10.7 6.3 11.4 6.25 12.1 5.8 12.5 5.3 12.9 4.6 12.8 L3.1 11.75 Q2.6 11.15 2.7 10.5 2.8 9.95 3.35 9.6 L4.6 9.4 Q5.3 9.45 5.8 10.05" fill="#535353" fill-rule="evenodd" stroke="none"/>
      <path d="M5.2 9.95 L5.5 10.8 5.15 11.45 Q4.85 11.75 4.45 11.65 L3.45 11.0 Q3.15 10.6 3.25 10.25 3.3 9.9 3.65 9.7 L4.4 9.55 Q4.85 9.6 5.2 9.95" fill="#9c9c9c" fill-rule="evenodd" stroke="none"/>
      <path d="M6.8 4.0 Q7.35 4.6 7.3 5.35 7.25 6.05 6.8 6.45 6.3 6.85 5.6 6.7 4.85 6.55 4.1 5.65 3.6 5.05 3.7 4.45 3.8 3.9 4.4 3.55 L5.6 3.3 Q6.3 3.4 6.8 4.0" fill="#000000" fill-rule="evenodd" stroke="none"/>
      <path d="M7.0 3.35 Q7.55 3.95 7.5 4.7 7.45 5.35 6.95 5.75 6.45 6.2 5.8 6.05 5.0 5.9 4.25 5.0 3.75 4.4 3.9 3.75 4.0 3.2 4.55 2.85 L5.75 2.65 Q6.5 2.7 7.0 3.35" fill="#535353" fill-rule="evenodd" stroke="none"/>
      <path d="M6.35 3.25 L6.65 4.05 6.35 4.75 5.6 4.9 Q5.15 4.8 4.65 4.25 4.35 3.85 4.45 3.5 4.5 3.15 4.85 2.95 L5.6 2.8 Q6.05 2.85 6.35 3.25" fill="#9c9c9c" fill-rule="evenodd" stroke="none"/>
      <path d="M11.7 48.7 L12.05 49.6 11.7 50.3 Q11.35 50.6 10.9 50.5 10.4 50.4 9.9 49.8 9.6 49.4 9.7 49.0 9.75 48.65 10.1 48.4 L10.9 48.25 Q11.4 48.3 11.7 48.7" fill="#000000" fill-rule="evenodd" stroke="none"/>
      <path d="M11.85 48.25 L12.15 49.15 11.8 49.85 11.05 50.05 Q10.55 49.95 10.05 49.35 9.7 49.0 9.8 48.55 9.85 48.2 10.2 48.0 L11.05 47.85 Q11.5 47.9 11.85 48.25" fill="#535353" fill-rule="evenodd" stroke="none"/>
      <path d="M11.4 48.2 L11.6 48.75 11.4 49.2 Q10.9 49.6 10.3 48.9 9.85 48.35 10.45 48.05 11.0 47.7 11.4 48.2" fill="#9c9c9c" fill-rule="evenodd" stroke="none"/>
      <path d="M44.85 46.85 L45.15 47.7 44.8 48.45 44.05 48.65 Q43.55 48.55 43.05 47.95 42.7 47.55 42.8 47.15 L43.25 46.55 44.05 46.4 44.85 46.85" fill="#000000" fill-rule="evenodd" stroke="none"/>
      <path d="M44.95 46.4 Q45.3 46.8 45.25 47.3 L44.95 48.0 44.15 48.2 Q43.65 48.1 43.15 47.5 42.85 47.1 42.9 46.7 43.0 46.35 43.35 46.1 L44.15 45.95 Q44.6 46.0 44.95 46.4" fill="#535353" fill-rule="evenodd" stroke="none"/>
      <path d="M44.55 46.35 L44.75 46.9 44.5 47.35 Q44.05 47.75 43.45 47.0 43.0 46.5 43.55 46.15 44.1 45.8 44.55 46.35" fill="#9c9c9c" fill-rule="evenodd" stroke="none"/>
      <path d="M49.75 50.1 Q50.1 50.5 50.05 51.0 L49.75 51.7 48.95 51.9 Q48.45 51.75 47.95 51.2 47.65 50.8 47.7 50.4 47.8 50.0 48.15 49.8 L48.95 49.65 Q49.4 49.7 49.75 50.1" fill="#000000" fill-rule="evenodd" stroke="none"/>
      <path d="M49.9 49.65 L50.2 50.55 49.85 51.25 49.05 51.45 48.1 50.75 Q47.75 50.35 47.85 49.95 47.9 49.6 48.3 49.35 L49.05 49.2 Q49.55 49.25 49.9 49.65" fill="#535353" fill-rule="evenodd" stroke="none"/>
      <path d="M49.45 49.6 L49.65 50.15 49.45 50.6 Q48.95 51.0 48.35 50.25 47.9 49.75 48.45 49.4 49.05 49.05 49.45 49.6" fill="#9c9c9c" fill-rule="evenodd" stroke="none"/>
      <path d="M56.2 53.45 Q56.55 53.85 56.5 54.35 L56.2 55.05 55.4 55.25 54.4 54.55 Q54.1 54.15 54.15 53.75 L54.6 53.15 55.4 53.0 Q55.9 53.05 56.2 53.45" fill="#000000" fill-rule="evenodd" stroke="none"/>
      <path d="M56.3 53.05 Q56.65 53.4 56.65 53.9 L56.3 54.6 Q56.0 54.9 55.55 54.8 55.0 54.7 54.55 54.1 54.2 53.7 54.3 53.3 54.35 52.95 54.7 52.75 L55.5 52.55 56.3 53.05" fill="#535353" fill-rule="evenodd" stroke="none"/>
      <path d="M55.9 52.95 L56.1 53.5 55.9 53.95 Q55.4 54.35 54.8 53.65 54.35 53.1 54.9 52.8 55.45 52.45 55.9 52.95" fill="#9c9c9c" fill-rule="evenodd" stroke="none"/>
      <path d="M60.4 56.35 Q60.75 56.75 60.7 57.2 L60.4 57.9 59.6 58.1 58.65 57.45 58.35 56.6 58.8 56.05 59.6 55.85 Q60.1 55.95 60.4 56.35" fill="#000000" fill-rule="evenodd" stroke="none"/>
      <path d="M60.1 55.85 L60.3 56.35 60.1 56.8 Q59.6 57.2 59.0 56.5 58.55 56.0 59.1 55.65 59.65 55.3 60.1 55.85" fill="#9c9c9c" fill-rule="evenodd" stroke="none"/>
      <path d="M70.2 54.15 L70.55 55.0 70.2 55.7 69.4 55.9 Q68.9 55.8 68.4 55.25 68.1 54.85 68.2 54.4 68.25 54.05 68.6 53.85 L69.4 53.65 70.2 54.15" fill="#000000" fill-rule="evenodd" stroke="none"/>
      <path d="M70.35 53.7 L70.65 54.6 70.3 55.3 69.55 55.45 68.55 54.8 Q68.2 54.4 68.3 54.0 68.35 53.65 68.7 53.4 L69.5 53.25 Q70.0 53.3 70.35 53.7" fill="#535353" fill-rule="evenodd" stroke="none"/>
      <path d="M69.9 53.65 L70.1 54.2 69.9 54.6 Q69.4 55.05 68.8 54.3 68.35 53.8 68.95 53.45 69.5 53.1 69.9 53.65" fill="#9c9c9c" fill-rule="evenodd" stroke="none"/>
      <path d="M70.9 62.0 Q71.25 62.4 71.2 62.9 71.2 63.35 70.85 63.6 70.55 63.9 70.1 63.8 69.6 63.7 69.15 63.1 68.8 62.7 68.85 62.3 L69.3 61.7 70.1 61.55 70.9 62.0" fill="#000000" fill-rule="evenodd" stroke="none"/>
      <path d="M70.2 61.1 Q70.7 61.2 71.0 61.6 71.35 62.0 71.3 62.45 L71.0 63.15 70.2 63.35 69.25 62.65 Q68.9 62.25 69.0 61.85 69.05 61.5 69.4 61.3 L70.2 61.1" fill="#535353" fill-rule="evenodd" stroke="none"/>
      <path d="M70.6 61.5 L70.8 62.05 70.6 62.5 Q70.1 62.9 69.5 62.2 69.05 61.65 69.6 61.35 70.15 61.0 70.6 61.5" fill="#9c9c9c" fill-rule="evenodd" stroke="none"/>
      <path d="M70.85 70.6 Q71.3 70.7 71.65 71.1 72.0 71.5 71.95 71.95 71.95 72.4 71.6 72.65 L70.85 72.85 69.85 72.15 Q69.55 71.75 69.6 71.35 L70.05 70.8 70.85 70.6" fill="#000000" fill-rule="evenodd" stroke="none"/>
      <path d="M70.95 70.2 Q71.45 70.25 71.75 70.65 72.1 71.05 72.05 71.5 L71.75 72.2 71.0 72.4 70.0 71.7 Q69.65 71.3 69.7 70.95 69.8 70.55 70.15 70.35 L70.95 70.2" fill="#535353" fill-rule="evenodd" stroke="none"/>
      <path d="M70.35 70.4 Q70.9 70.05 71.35 70.55 L71.55 71.1 71.35 71.55 Q70.85 72.0 70.25 71.25 69.8 70.7 70.35 70.4" fill="#9c9c9c" fill-rule="evenodd" stroke="none"/>
      <path d="M71.55 83.8 L70.75 83.95 Q70.25 83.85 69.8 83.3 69.45 82.9 69.55 82.5 69.6 82.1 69.95 81.9 L70.75 81.75 Q71.25 81.8 71.55 82.2 71.9 82.6 71.9 83.05 L71.55 83.8" fill="#000000" fill-rule="evenodd" stroke="none"/>
      <path d="M71.65 83.35 L70.85 83.5 Q70.4 83.4 69.9 82.85 69.55 82.45 69.65 82.05 69.7 81.7 70.05 81.45 L70.85 81.3 Q71.35 81.35 71.7 81.75 L72.0 82.65 71.65 83.35" fill="#535353" fill-rule="evenodd" stroke="none"/>
      <path d="M71.25 82.65 Q70.75 83.05 70.15 82.35 69.7 81.85 70.3 81.5 70.8 81.15 71.25 81.7 L71.45 82.2 71.25 82.65" fill="#9c9c9c" fill-rule="evenodd" stroke="none"/>
      <path d="M71.95 89.65 Q71.45 90.05 70.85 89.35 70.4 88.8 70.95 88.45 71.5 88.15 71.95 88.65 L72.15 89.2 71.95 89.65" fill="#9c9c9c" fill-rule="evenodd" stroke="none"/>
    </g>
    <linearGradient gradientTransform="matrix(-0.0117, 0.005, -0.0019, -0.0314, 66.35, 69.65)" gradientUnits="userSpaceOnUse" id="gradient33" spreadMethod="pad" x1="-819.2" x2="819.2">
      <stop offset="0.0" stop-color="#565656"/>
      <stop offset="0.403921568627451" stop-color="#999999"/>
      <stop offset="0.592156862745098" stop-color="#dbdbdb"/>
      <stop offset="0.7803921568627451" stop-color="#9b9b9b"/>
      <stop offset="1.0" stop-color="#0d0a0f"/>
    </linearGradient>
    <linearGradient gradientTransform="matrix(-0.0025, 0.0301, -0.0284, -0.0026, 24.4, 26.8)" gradientUnits="userSpaceOnUse" id="gradient34" spreadMethod="pad" x1="-819.2" x2="819.2">
      <stop offset="0.0" stop-color="#565656"/>
      <stop offset="0.403921568627451" stop-color="#999999"/>
      <stop offset="0.592156862745098" stop-color="#dbdbdb"/>
      <stop offset="0.7803921568627451" stop-color="#9b9b9b"/>
      <stop offset="1.0" stop-color="#0d0a0f"/>
    </linearGradient>
    <linearGradient gradientTransform="matrix(-0.0099, 0.0231, -0.0153, -0.0149, 56.0, 37.65)" gradientUnits="userSpaceOnUse" id="gradient35" spreadMethod="pad" x1="-819.2" x2="819.2">
      <stop offset="0.0" stop-color="#565656"/>
      <stop offset="0.403921568627451" stop-color="#999999"/>
      <stop offset="0.592156862745098" stop-color="#dbdbdb"/>
      <stop offset="0.7803921568627451" stop-color="#9b9b9b"/>
      <stop offset="1.0" stop-color="#0d0a0f"/>
    </linearGradient>
  </defs>
</svg>
