<?xml version="1.0" encoding="UTF-8" standalone="no"?>
<svg xmlns:xlink="http://www.w3.org/1999/xlink" height="550.6px" width="73.55px" xmlns="http://www.w3.org/2000/svg">
  <g transform="matrix(1.0, 0.0, 0.0, 1.0, 37.0, 466.95)">
    <use height="87.2" transform="matrix(1.206, 0.0, 0.0, 6.3138, -37.024, -466.9313)" width="61.0" xlink:href="#button0"/>
    <use height="52.95" transform="matrix(1.0239, 0.0, 0.0, 1.0239, -27.6607, -26.6524)" width="52.65" xlink:href="#shape0"/>
  </g>
  <defs>
    <g id="shape0" transform="matrix(1.0, 0.0, 0.0, 1.0, 0.45, 0.1)">
      <path d="M42.15 18.1 L42.55 17.2 48.0 15.3 48.3 15.75 48.35 16.35 42.15 18.1" fill="url(#gradient0)" fill-rule="evenodd" stroke="none"/>
      <path d="M34.9 10.3 Q39.85 12.2 42.3 16.95 L42.55 17.2 42.15 18.1 Q40.0 13.4 34.85 10.4 L34.9 10.3 M48.3 15.75 Q52.15 22.05 50.95 27.8 51.2 22.45 48.35 16.35 L48.3 15.75 M43.75 29.35 L41.8 34.15 40.7 34.25 Q41.6 32.85 42.8 29.2 L43.75 29.35 M48.7 37.9 Q46.85 43.75 41.9 46.35 44.9 43.75 47.0 38.5 L48.7 37.9 M34.9 41.9 L30.7 43.05 30.3 42.45 34.4 41.3 34.9 41.9 M31.2 51.05 L27.35 51.8 Q24.75 51.95 22.05 50.85 L29.4 50.55 31.2 51.05 M19.9 43.35 Q15.85 41.9 13.2 38.95 L14.3 39.5 Q16.4 41.5 20.05 42.85 L19.9 43.35 M8.0 44.35 L6.2 43.2 6.7 42.3 8.0 44.35 M6.15 43.15 Q3.9 41.55 2.55 39.4 1.55 37.8 1.05 36.1 2.55 39.7 6.6 42.2 L6.55 42.25 6.15 43.15 M7.6 29.0 L8.25 23.05 9.4 22.6 Q8.9 23.45 8.4 28.85 L7.6 29.0 M1.45 22.15 Q0.5 19.85 1.3 15.8 1.95 12.55 5.1 9.9 0.6 14.95 2.0 20.8 L1.45 22.15 M13.35 12.35 L21.4 8.0 22.3 8.85 Q18.65 9.65 13.95 12.85 L13.35 12.35 M19.75 1.9 Q21.45 1.25 23.75 1.05 L23.9 1.55 21.9 2.05 19.75 1.9 M23.85 1.05 Q28.4 0.6 32.75 2.0 27.9 0.75 24.0 1.5 L23.85 1.05 M12.65 37.5 L13.75 38.95 12.7 38.3 12.65 37.5" fill="#fbd241" fill-rule="evenodd" stroke="none"/>
      <path d="M50.95 27.8 L50.25 30.0 44.8 29.05 Q44.05 28.95 43.75 29.35 L42.8 29.2 42.15 18.1 48.35 16.35 Q51.2 22.45 50.95 27.8" fill="url(#gradient1)" fill-rule="evenodd" stroke="none"/>
      <path d="M34.85 10.4 Q40.0 13.4 42.15 18.1 L42.8 29.2 Q41.6 32.85 40.7 34.25 L34.4 41.3 30.3 42.45 20.05 42.85 Q16.4 41.5 14.3 39.5 L17.95 41.35 13.75 38.95 12.65 37.5 11.9 36.0 12.35 35.8 12.4 35.85 14.7 35.8 Q14.95 35.4 14.8 34.9 L15.4 34.7 14.8 34.85 14.75 34.7 14.8 34.3 Q14.65 33.7 14.1 33.35 12.95 32.65 12.1 33.6 11.55 34.25 11.85 34.75 L11.85 35.25 11.05 34.25 13.0 29.95 Q13.75 32.55 15.55 34.65 L18.15 37.0 17.2 37.55 Q16.65 38.15 16.9 38.65 16.7 39.25 17.5 39.8 L19.75 39.75 Q20.1 39.2 19.95 38.7 L19.9 38.0 Q21.25 38.65 22.75 38.95 L22.55 39.1 Q22.0 39.75 22.3 40.25 22.1 40.85 22.9 41.35 L25.15 41.3 Q25.4 40.9 25.25 40.35 L25.2 40.15 24.95 39.2 26.15 39.0 29.5 38.55 29.6 38.8 Q29.4 39.4 30.2 39.9 L32.45 39.85 Q32.7 39.4 32.55 38.9 L32.5 38.75 31.95 37.5 34.95 34.95 35.35 34.5 35.4 34.9 35.7 35.8 38.25 35.95 38.35 34.95 37.6 34.2 36.6 33.4 36.2 33.4 Q37.7 31.2 38.15 28.7 L41.0 29.2 41.15 28.25 Q41.15 27.6 40.55 27.15 39.9 26.7 39.0 26.7 L38.8 26.8 38.35 27.1 37.65 21.95 39.5 21.85 Q39.8 21.45 39.65 20.9 39.6 19.3 37.9 19.15 L37.65 19.35 37.15 19.7 36.8 19.95 32.85 15.6 34.9 15.55 35.05 14.6 35.05 14.55 35.0 14.0 Q34.85 13.45 34.3 13.1 33.15 12.35 32.3 13.35 31.8 13.95 32.0 14.45 31.9 14.8 32.15 15.15 21.05 10.05 14.5 20.15 11.55 24.65 13.0 29.9 L10.8 33.75 8.4 28.85 Q8.9 23.45 9.4 22.6 L9.7 22.85 11.95 22.75 Q12.35 22.15 12.1 21.6 L11.65 20.5 Q11.2 20.0 10.6 20.0 L13.95 12.85 Q18.65 9.65 22.3 8.85 L25.85 9.3 26.6 12.05 25.95 9.3 34.85 10.4 M22.55 11.8 L22.6 11.55 Q22.45 11.0 21.9 10.6 20.75 9.9 19.9 10.85 19.4 11.45 19.6 11.95 19.35 12.6 20.2 13.1 L22.5 13.05 Q22.9 12.35 22.55 11.8 M29.8 12.0 L29.75 11.45 Q29.6 10.85 29.05 10.55 27.95 9.8 27.1 10.75 26.6 11.35 26.8 11.85 26.55 12.5 27.4 13.05 L29.65 12.95 Q29.9 12.55 29.8 12.0 M16.35 15.5 L16.3 14.9 Q16.15 14.35 15.65 14.0 14.5 13.25 13.65 14.25 13.1 14.85 13.35 15.35 13.15 15.95 13.95 16.5 L16.2 16.45 16.35 15.5 M12.1 28.35 L12.1 28.25 Q12.4 27.4 11.4 26.75 10.25 26.0 9.4 26.95 8.9 27.55 9.1 28.05 8.85 28.7 9.7 29.25 L11.95 29.2 12.1 28.35" fill="#f9ed3d" fill-rule="evenodd" stroke="none"/>
      <path d="M8.25 23.05 L1.45 22.15 2.0 20.8 Q3.4 20.3 9.4 22.6 8.9 22.15 9.1 21.65 L9.7 22.3 11.95 22.2 12.1 21.6 Q12.35 22.15 11.95 22.75 L9.7 22.85 9.4 22.6 8.25 23.05 M41.15 28.25 L41.0 29.2 38.15 28.7 38.25 28.3 38.7 28.7 41.15 28.25 M38.35 34.95 L38.25 35.95 35.7 35.8 35.4 34.9 36.0 35.5 38.25 35.45 38.35 34.95 M32.5 38.75 L32.55 38.9 Q32.7 39.4 32.45 39.85 L30.2 39.9 Q29.4 39.4 29.6 38.8 L30.15 39.35 32.4 39.3 32.5 38.75 M25.2 40.15 L25.25 40.35 Q25.4 40.9 25.15 41.3 L22.9 41.35 Q22.1 40.85 22.3 40.25 L22.85 40.8 25.1 40.75 25.2 40.15 M19.95 38.7 Q20.1 39.2 19.75 39.75 L17.5 39.8 Q16.7 39.25 16.9 38.65 17.0 38.95 17.45 39.25 L19.75 39.15 19.95 38.7 M11.85 35.25 L11.85 34.75 12.4 35.3 13.5 35.3 12.3 35.7 11.85 35.25 M14.75 34.7 L14.8 34.85 14.7 34.9 14.75 34.7 M14.8 34.9 Q14.95 35.4 14.7 35.8 L12.4 35.85 12.35 35.8 14.8 34.9 M32.15 15.15 Q31.9 14.8 32.0 14.45 L32.6 15.05 35.05 14.6 34.9 15.55 32.85 15.6 32.15 15.15 M39.65 20.9 Q39.8 21.45 39.5 21.85 L37.65 21.95 37.45 21.35 39.5 21.3 39.65 20.9 M19.6 11.95 L20.2 12.55 22.45 12.5 22.55 11.8 Q22.9 12.35 22.5 13.05 L20.2 13.1 Q19.35 12.6 19.6 11.95 M26.8 11.85 L27.4 12.45 29.65 12.4 29.8 12.0 Q29.9 12.55 29.65 12.95 L27.4 13.05 Q26.55 12.5 26.8 11.85 M16.35 15.5 L16.2 16.45 13.95 16.5 Q13.15 15.95 13.35 15.35 L13.9 15.95 16.35 15.5 M12.1 28.35 L11.95 29.2 9.7 29.25 Q8.85 28.7 9.1 28.05 L9.7 28.7 12.1 28.35" fill="#deb134" fill-rule="evenodd" stroke="none"/>
      <path d="M41.15 28.25 L38.7 28.7 38.25 28.3 38.35 27.1 38.8 26.8 38.6 27.8 40.2 27.75 40.4 27.35 39.0 26.7 Q39.9 26.7 40.55 27.15 41.15 27.6 41.15 28.25 M36.2 33.4 L36.6 33.4 36.0 33.65 36.2 33.4 M37.6 34.2 L38.35 34.95 38.25 35.45 36.0 35.5 35.4 34.9 35.35 34.5 35.8 33.95 37.0 35.15 37.6 34.2 M31.95 37.5 L32.5 38.75 32.4 39.3 30.15 39.35 29.6 38.8 29.5 38.55 29.95 38.4 30.3 38.7 31.7 38.65 Q32.0 38.1 31.65 37.7 L31.95 37.5 M24.95 39.2 L25.2 40.15 25.1 40.75 22.85 40.8 22.3 40.25 Q22.0 39.75 22.55 39.1 L22.75 38.95 22.95 39.0 22.7 39.75 22.95 40.15 24.3 39.15 24.95 39.2 M19.9 38.0 L19.95 38.7 19.75 39.15 17.45 39.25 Q17.0 38.95 16.9 38.65 16.65 38.15 17.2 37.55 L18.15 37.0 19.9 38.0 M11.85 34.75 Q11.55 34.25 12.1 33.6 12.95 32.65 14.1 33.35 14.65 33.7 14.8 34.3 L14.75 34.7 14.7 34.9 13.5 35.3 12.4 35.3 11.85 34.75 M10.6 20.0 Q11.2 20.0 11.65 20.5 L12.1 21.6 11.95 22.2 9.7 22.3 9.1 21.65 Q8.9 21.15 9.4 20.55 9.9 19.95 10.6 20.0 M32.0 14.45 Q31.8 13.95 32.3 13.35 33.15 12.35 34.3 13.1 34.85 13.45 35.0 14.0 L35.05 14.55 35.05 14.6 32.6 15.05 32.0 14.45 M36.8 19.95 L37.15 19.7 Q37.0 21.5 38.95 20.35 L37.65 19.35 37.9 19.15 Q39.6 19.3 39.65 20.9 L39.5 21.3 37.45 21.35 36.8 19.95 M19.6 11.95 Q19.4 11.45 19.9 10.85 20.75 9.9 21.9 10.6 22.45 11.0 22.6 11.55 L22.55 11.8 22.45 12.5 20.2 12.55 19.6 11.95 M21.4 10.7 Q20.65 10.25 20.15 10.85 19.6 11.45 20.3 11.9 L21.7 11.85 Q22.15 11.2 21.4 10.7 M27.5 11.8 L28.9 11.75 Q29.3 11.05 28.55 10.6 27.85 10.15 27.35 10.75 26.8 11.35 27.5 11.8 M26.8 11.85 Q26.6 11.35 27.1 10.75 27.95 9.8 29.05 10.55 29.6 10.85 29.75 11.45 L29.8 12.0 29.65 12.4 27.4 12.45 26.8 11.85 M33.8 13.15 Q33.05 12.7 32.55 13.3 32.05 13.9 32.75 14.35 L34.15 14.3 Q34.55 13.65 33.8 13.15 M9.8 21.6 L11.2 21.55 Q11.65 20.9 10.9 20.4 10.15 19.95 9.65 20.55 9.1 21.15 9.8 21.6 M13.35 15.35 Q13.1 14.85 13.65 14.25 14.5 13.25 15.65 14.0 16.15 14.35 16.3 14.9 L16.35 15.5 13.9 15.95 13.35 15.35 M14.05 15.3 L15.45 15.25 Q15.9 14.55 15.1 14.05 14.4 13.6 13.85 14.2 13.35 14.8 14.05 15.3 M10.9 26.8 Q10.15 26.35 9.65 26.95 9.1 27.55 9.8 28.05 L11.2 28.0 Q11.65 27.3 10.9 26.8 M9.1 28.05 Q8.9 27.55 9.4 26.95 10.25 26.0 11.4 26.75 12.4 27.4 12.1 28.25 L12.1 28.35 9.7 28.7 9.1 28.05 M12.55 34.65 L13.95 34.6 Q14.35 33.95 13.6 33.45 12.85 33.0 12.35 33.6 11.8 34.2 12.55 34.65 M18.65 37.35 Q17.95 36.9 17.4 37.5 16.9 38.1 17.6 38.55 18.6 39.2 19.0 38.55 19.4 37.85 18.65 37.35" fill="#f8dc47" fill-rule="evenodd" stroke="none"/>
      <path d="M41.8 34.15 L48.7 37.9 47.0 38.5 40.7 34.25 41.8 34.15" fill="url(#gradient2)" fill-rule="evenodd" stroke="none"/>
      <path d="M41.9 46.35 L39.8 46.9 34.9 41.9 34.4 41.3 40.7 34.25 47.0 38.5 Q44.9 43.75 41.9 46.35" fill="url(#gradient3)" fill-rule="evenodd" stroke="none"/>
      <path d="M34.9 10.3 L34.85 10.4 25.95 9.3 25.95 9.25 25.85 9.3 22.3 8.85 22.15 6.35 21.15 6.6 21.1 6.5 22.15 6.15 22.0 4.0 22.0 3.95 21.9 2.05 23.9 1.55 24.0 1.5 Q27.9 0.75 32.75 2.0 L36.0 3.4 34.9 10.3" fill="url(#gradient4)" fill-rule="evenodd" stroke="none"/>
      <path d="M21.4 8.0 L21.15 6.6 22.15 6.35 22.3 8.85 21.4 8.0 M21.1 6.5 L19.3 2.05 19.75 1.9 21.9 2.05 22.0 3.95 21.05 3.45 22.0 4.0 22.15 6.15 21.1 6.5" fill="url(#gradient5)" fill-rule="evenodd" stroke="none"/>
      <path d="M36.6 33.4 L37.6 34.2 37.0 35.15 35.8 33.95 36.0 33.65 36.6 33.4 M39.0 26.7 L40.4 27.35 40.2 27.75 38.6 27.8 38.8 26.8 39.0 26.7 M37.15 19.7 L37.65 19.35 38.95 20.35 Q37.0 21.5 37.15 19.7 M27.5 11.8 Q26.8 11.35 27.35 10.75 27.85 10.15 28.55 10.6 29.3 11.05 28.9 11.75 L27.5 11.8 M21.4 10.7 Q22.15 11.2 21.7 11.85 L20.3 11.9 Q19.6 11.45 20.15 10.85 20.65 10.25 21.4 10.7 M27.9 24.6 L32.65 25.85 28.45 28.5 28.8 33.4 24.95 30.55 20.45 32.1 22.35 27.45 19.15 23.75 23.9 23.8 26.65 19.9 27.9 24.6 M33.8 13.15 Q34.55 13.65 34.15 14.3 L32.75 14.35 Q32.05 13.9 32.55 13.3 33.05 12.7 33.8 13.15 M9.8 21.6 Q9.1 21.15 9.65 20.55 10.15 19.95 10.9 20.4 11.65 20.9 11.2 21.55 L9.8 21.6 M14.05 15.3 Q13.35 14.8 13.85 14.2 14.4 13.6 15.1 14.05 15.9 14.55 15.45 15.25 L14.05 15.3 M10.9 26.8 Q11.65 27.3 11.2 28.0 L9.8 28.05 Q9.1 27.55 9.65 26.95 10.15 26.35 10.9 26.8 M12.55 34.65 Q11.8 34.2 12.35 33.6 12.85 33.0 13.6 33.45 14.35 33.95 13.95 34.6 L12.55 34.65 M18.65 37.35 Q19.4 37.85 19.0 38.55 18.6 39.2 17.6 38.55 16.9 38.1 17.4 37.5 17.95 36.9 18.65 37.35 M31.65 37.7 Q32.0 38.1 31.7 38.65 L30.3 38.7 29.95 38.4 31.65 37.7 M22.95 39.0 L24.3 39.15 22.95 40.15 22.7 39.75 22.95 39.0" fill="#f9f97c" fill-rule="evenodd" stroke="none"/>
      <path d="M34.95 34.95 L31.95 37.5 31.65 37.7 29.95 38.4 29.5 38.55 26.15 39.0 Q22.85 38.95 19.95 36.7 L18.2 35.15 24.9 33.15 31.05 37.35 31.7 29.85 35.3 26.8 35.3 29.2 35.45 26.7 37.15 25.25 35.1 24.45 Q34.35 22.0 32.25 20.25 30.6 18.8 28.65 18.25 L27.95 16.4 Q33.0 17.3 35.7 21.75 39.75 28.6 34.95 34.95 M26.1 17.95 L25.5 17.95 Q21.25 18.35 18.6 21.8 L16.5 21.8 Q19.7 16.9 25.45 16.3 L27.4 16.35 26.1 17.95 M19.65 21.75 Q21.95 19.2 25.35 18.9 L23.05 21.7 19.65 21.75 M34.65 24.3 L30.15 22.5 28.95 19.2 Q30.75 19.7 32.25 21.05 33.9 22.45 34.65 24.3 M16.05 22.55 L17.25 24.35 Q16.7 26.05 16.85 27.95 17.0 30.6 18.5 32.65 17.4 30.8 17.2 28.55 17.05 26.65 17.7 24.95 L19.6 27.8 18.5 32.65 18.0 34.9 Q13.3 29.75 16.05 22.55" fill="#fad73e" fill-rule="evenodd" stroke="none"/>
      <path d="M38.25 28.3 L38.15 28.7 Q37.7 31.2 36.2 33.4 L36.0 33.65 35.8 33.95 35.35 34.5 34.95 34.95 Q39.75 28.6 35.7 21.75 33.0 17.3 27.95 16.4 L27.75 15.85 27.4 16.35 25.45 16.3 Q19.7 16.9 16.5 21.8 L15.55 21.8 16.05 22.55 Q13.3 29.75 18.0 34.9 L17.9 35.2 18.2 35.15 19.95 36.7 Q22.85 38.95 26.15 39.0 L24.95 39.2 24.3 39.15 22.95 39.0 22.75 38.95 Q21.25 38.65 19.9 38.0 L18.15 37.0 15.55 34.65 Q13.75 32.55 13.0 29.95 L13.4 29.15 13.0 29.9 Q11.55 24.65 14.5 20.15 21.05 10.05 32.15 15.15 L32.85 15.6 36.8 19.95 37.45 21.35 37.65 21.95 38.35 27.1 38.25 28.3 M18.6 21.8 Q21.25 18.35 25.5 17.95 L26.1 17.95 25.35 18.9 Q21.95 19.2 19.65 21.75 L18.6 21.8 M28.95 19.2 L28.65 18.25 Q30.6 18.8 32.25 20.25 34.35 22.0 35.1 24.45 L34.65 24.3 Q33.9 22.45 32.25 21.05 30.75 19.7 28.95 19.2 M35.45 26.7 L35.3 29.2 35.3 26.8 35.45 26.7" fill="#d9aa26" fill-rule="evenodd" stroke="none"/>
      <path d="M26.1 17.95 L27.4 16.35 27.75 15.85 27.95 16.4 28.65 18.25 28.95 19.2 30.15 22.5 34.65 24.3 35.1 24.45 37.15 25.25 35.45 26.7 35.3 26.8 31.7 29.85 31.05 37.35 24.9 33.15 18.2 35.15 17.9 35.2 18.0 34.9 18.5 32.65 19.6 27.8 17.7 24.95 Q17.05 26.65 17.2 28.55 17.4 30.8 18.5 32.65 17.0 30.6 16.85 27.95 16.7 26.05 17.25 24.35 L16.05 22.55 15.55 21.8 16.5 21.8 18.6 21.8 19.65 21.75 23.05 21.7 25.35 18.9 26.1 17.95 M28.9 23.95 L27.25 17.55 23.5 22.85 17.0 22.8 21.4 27.8 18.8 34.1 24.95 32.05 30.15 35.75 29.7 29.25 35.35 25.7 28.9 23.95" fill="#d5a21a" fill-rule="evenodd" stroke="none"/>
      <path d="M27.9 24.6 L26.65 19.9 23.9 23.8 19.15 23.75 22.35 27.45 20.45 32.1 24.95 30.55 28.8 33.4 28.45 28.5 32.65 25.85 27.9 24.6 M28.9 23.95 L35.35 25.7 29.7 29.25 30.15 35.75 24.95 32.05 18.8 34.1 21.4 27.8 17.0 22.8 23.5 22.85 27.25 17.55 28.9 23.95" fill="#f7f619" fill-rule="evenodd" stroke="none"/>
      <path d="M5.1 9.9 L7.45 8.15 12.7 12.4 13.35 12.35 13.95 12.85 10.6 20.0 Q9.9 19.95 9.4 20.55 8.9 21.15 9.1 21.65 8.9 22.15 9.4 22.6 3.4 20.3 2.0 20.8 0.6 14.95 5.1 9.9" fill="url(#gradient6)" fill-rule="evenodd" stroke="none"/>
      <path d="M13.2 38.95 L12.65 38.7 11.7 38.3 10.45 39.3 10.95 40.95 10.85 41.1 10.25 39.45 6.7 42.3 6.55 42.25 6.6 42.2 Q2.55 39.7 1.05 36.1 L0.6 30.75 7.2 29.6 Q7.6 29.55 7.6 29.0 L8.4 28.85 10.8 33.75 13.0 29.9 13.0 29.95 11.05 34.25 11.85 35.25 12.3 35.7 12.35 35.8 11.9 36.0 12.65 37.5 12.15 37.95 12.7 38.3 13.75 38.95 17.95 41.35 14.3 39.5 13.2 38.95" fill="url(#gradient7)" fill-rule="evenodd" stroke="none"/>
      <path d="M12.65 38.7 L10.95 40.95 10.45 39.3 11.7 38.3 12.65 38.7 M10.85 41.1 L8.4 44.55 8.0 44.35 6.7 42.3 10.25 39.45 10.85 41.1 M12.7 38.3 L12.15 37.95 12.65 37.5 12.7 38.3" fill="url(#gradient8)" fill-rule="evenodd" stroke="none"/>
      <path d="M22.05 50.85 L19.1 49.3 19.9 43.35 20.05 42.85 30.3 42.45 Q30.05 46.85 29.4 50.55 L22.05 50.85" fill="url(#gradient9)" fill-rule="evenodd" stroke="none"/>
      <path d="M30.7 43.05 L31.75 50.95 31.2 51.05 29.4 50.55 Q30.05 46.85 30.3 42.45 L30.7 43.05" fill="url(#gradient10)" fill-rule="evenodd" stroke="none"/>
      <path d="M42.55 17.2 L42.3 16.95 Q39.85 12.2 34.9 10.3 L36.0 3.4 32.75 2.0 Q28.4 0.6 23.85 1.05 L23.75 1.05 Q21.45 1.25 19.75 1.9 L19.3 2.05 21.1 6.5 21.15 6.6 21.4 8.0 13.35 12.35 12.7 12.4 7.45 8.15 5.1 9.9 Q1.95 12.55 1.3 15.8 0.5 19.85 1.45 22.15 L8.25 23.05 7.6 29.0 Q7.6 29.55 7.2 29.6 L0.6 30.75 1.05 36.1 Q1.55 37.8 2.55 39.4 3.9 41.55 6.15 43.15 L6.2 43.2 8.0 44.35 8.4 44.55 10.85 41.1 10.95 40.95 12.65 38.7 13.2 38.95 Q15.85 41.9 19.9 43.35 L19.1 49.3 22.05 50.85 Q24.75 51.95 27.35 51.8 L31.2 51.05 31.75 50.95 30.7 43.05 34.9 41.9 39.8 46.9 41.9 46.35 Q46.85 43.75 48.7 37.9 L41.8 34.15 43.75 29.35 Q44.05 28.95 44.8 29.05 L50.25 30.0 50.95 27.8 Q52.15 22.05 48.3 15.75 L48.0 15.3 42.55 17.2 M43.0 16.1 L48.35 14.2 Q54.35 21.9 50.95 30.75 L50.8 31.0 44.65 30.05 43.0 33.9 49.75 37.45 Q48.6 43.4 43.5 46.75 41.8 47.8 39.85 48.2 L35.05 42.9 31.55 43.85 32.75 51.65 Q25.0 54.7 18.35 49.95 L18.1 49.8 19.2 44.2 Q15.5 42.9 12.8 40.0 L8.7 45.7 Q2.25 43.1 0.2 36.5 -0.8 33.2 -0.2 29.95 L6.65 28.7 7.2 23.7 0.9 23.2 Q-1.15 18.4 1.3 13.4 3.35 9.3 7.55 7.05 L12.95 11.4 Q16.25 8.75 20.4 7.35 L18.2 1.65 Q26.5 -1.95 35.0 1.85 L37.0 2.95 35.6 9.5 Q38.55 10.75 40.8 13.1 42.0 14.35 43.0 16.1" fill="#a6841e" fill-rule="evenodd" stroke="none"/>
    </g>
    <linearGradient gradientTransform="matrix(0.0031, -0.0012, 0.0021, 0.0017, 45.25, 16.35)" gradientUnits="userSpaceOnUse" id="gradient0" spreadMethod="pad" x1="-819.2" x2="819.2">
      <stop offset="0.43137254901960786" stop-color="#f8ef53"/>
      <stop offset="1.0" stop-color="#fbd241"/>
    </linearGradient>
    <linearGradient gradientTransform="matrix(-0.004, 0.0056, -0.0034, -0.0066, 46.5, 23.4)" gradientUnits="userSpaceOnUse" id="gradient1" spreadMethod="pad" x1="-819.2" x2="819.2">
      <stop offset="0.0" stop-color="#f5f8d5"/>
      <stop offset="0.6274509803921569" stop-color="#f9ed3d"/>
    </linearGradient>
    <linearGradient gradientTransform="matrix(0.0043, -0.0015, 0.003, 0.0022, 45.0, 36.3)" gradientUnits="userSpaceOnUse" id="gradient2" spreadMethod="pad" x1="-819.2" x2="819.2">
      <stop offset="0.43137254901960786" stop-color="#f8ef53"/>
      <stop offset="1.0" stop-color="#fbd241"/>
    </linearGradient>
    <linearGradient gradientTransform="matrix(-0.0075, 0.002, -0.0019, -0.0079, 40.7, 40.95)" gradientUnits="userSpaceOnUse" id="gradient3" spreadMethod="pad" x1="-819.2" x2="819.2">
      <stop offset="0.0" stop-color="#f5f8d5"/>
      <stop offset="0.6274509803921569" stop-color="#f9ed3d"/>
    </linearGradient>
    <linearGradient gradientTransform="matrix(0.0057, 0.0042, -0.0068, 0.0035, 29.25, 5.9)" gradientUnits="userSpaceOnUse" id="gradient4" spreadMethod="pad" x1="-819.2" x2="819.2">
      <stop offset="0.0" stop-color="#f5f8d5"/>
      <stop offset="0.6274509803921569" stop-color="#f9ed3d"/>
    </linearGradient>
    <linearGradient gradientTransform="matrix(0.0018, -0.0024, 0.0013, 0.0035, 20.5, 5.3)" gradientUnits="userSpaceOnUse" id="gradient5" spreadMethod="pad" x1="-819.2" x2="819.2">
      <stop offset="0.43137254901960786" stop-color="#f8ef53"/>
      <stop offset="1.0" stop-color="#fbd241"/>
    </linearGradient>
    <linearGradient gradientTransform="matrix(0.007, -0.0022, 0.0018, 0.0089, 8.0, 15.05)" gradientUnits="userSpaceOnUse" id="gradient6" spreadMethod="pad" x1="-819.2" x2="819.2">
      <stop offset="0.0" stop-color="#f5f8d5"/>
      <stop offset="0.6274509803921569" stop-color="#f9ed3d"/>
    </linearGradient>
    <linearGradient gradientTransform="matrix(-1.0E-4, -0.0081, 0.0076, -1.0E-4, 6.4, 35.5)" gradientUnits="userSpaceOnUse" id="gradient7" spreadMethod="pad" x1="-819.2" x2="819.2">
      <stop offset="0.0" stop-color="#f5f8d5"/>
      <stop offset="0.6274509803921569" stop-color="#f9ed3d"/>
    </linearGradient>
    <linearGradient gradientTransform="matrix(0.0031, -0.0027, 0.0021, 0.0038, 9.7, 41.35)" gradientUnits="userSpaceOnUse" id="gradient8" spreadMethod="pad" x1="-819.2" x2="819.2">
      <stop offset="0.43137254901960786" stop-color="#f8ef53"/>
      <stop offset="1.0" stop-color="#fbd241"/>
    </linearGradient>
    <linearGradient gradientTransform="matrix(-0.0045, -0.004, 0.0055, -0.0033, 24.45, 46.75)" gradientUnits="userSpaceOnUse" id="gradient9" spreadMethod="pad" x1="-819.2" x2="819.2">
      <stop offset="0.0" stop-color="#f5f8d5"/>
      <stop offset="0.6274509803921569" stop-color="#f9ed3d"/>
    </linearGradient>
    <linearGradient gradientTransform="matrix(0.0014, -0.0031, 0.001, 0.0045, 30.85, 46.9)" gradientUnits="userSpaceOnUse" id="gradient10" spreadMethod="pad" x1="-819.2" x2="819.2">
      <stop offset="0.43137254901960786" stop-color="#f8ef53"/>
      <stop offset="1.0" stop-color="#fbd241"/>
    </linearGradient>
  </defs>
</svg>
