<?xml version="1.0" encoding="UTF-8" standalone="no"?>
<svg xmlns:xlink="http://www.w3.org/1999/xlink" height="88.95px" width="302.0px" xmlns="http://www.w3.org/2000/svg">
  <g transform="matrix(1.0, 0.0, 0.0, 1.0, 1.5, 1.5)">
    <use height="88.95" transform="matrix(1.0, 0.0, 0.0, 1.0, -1.5, -1.5)" width="302.0" xlink:href="#shape0"/>
    <use height="41.35" transform="matrix(1.0, 0.0, 0.0, 1.0, 15.75, 23.8)" width="270.5" xlink:href="#text0"/>
  </g>
  <defs>
    <g id="shape0" transform="matrix(1.0, 0.0, 0.0, 1.0, 1.5, 1.5)">
      <path d="M299.0 9.55 L299.0 76.4 Q299.0 80.35 296.15 83.15 293.35 85.95 289.4 85.95 L9.55 85.95 Q5.6 85.95 2.8 83.15 0.0 80.35 0.0 76.4 L0.0 9.55 Q0.0 5.6 2.8 2.8 5.6 0.0 9.55 0.0 L289.4 0.0 Q293.35 0.0 296.15 2.8 299.0 5.6 299.0 9.55" fill="#ffffff" fill-rule="evenodd" stroke="none"/>
      <path d="M299.0 9.55 L299.0 76.4 Q299.0 80.35 296.15 83.15 293.35 85.95 289.4 85.95 L9.55 85.95 Q5.6 85.95 2.8 83.15 0.0 80.35 0.0 76.4 L0.0 9.55 Q0.0 5.6 2.8 2.8 5.6 0.0 9.55 0.0 L289.4 0.0 Q293.35 0.0 296.15 2.8 299.0 5.6 299.0 9.55 Z" fill="none" stroke="#ff7700" stroke-linecap="round" stroke-linejoin="round" stroke-width="3.0"/>
    </g>
    <g id="text0" transform="matrix(1.0, 0.0, 0.0, 1.0, -10.75, -3.7)">
      <g transform="matrix(1.0, 0.0, 0.0, 1.0, 0.0, 0.0)">
        <use fill="#333333" height="41.35" transform="matrix(0.3516, 0.0, 0.0, 0.3516, 11.0, 15.0)" width="270.5" xlink:href="#font_______W7_T0"/>
        <use fill="#333333" height="41.35" transform="matrix(0.3516, 0.0, 0.0, 0.3516, 22.65, 15.0)" width="270.5" xlink:href="#font_______W7_h0"/>
        <use fill="#333333" height="41.35" transform="matrix(0.3516, 0.0, 0.0, 0.3516, 33.25, 15.0)" width="270.5" xlink:href="#font_______W7_e0"/>
        <use fill="#333333" height="41.35" transform="matrix(0.3516, 0.0, 0.0, 0.3516, 43.3, 15.0)" width="270.5" xlink:href="#font_______W7_y0"/>
        <use fill="#333333" height="41.35" transform="matrix(0.3516, 0.0, 0.0, 0.3516, 58.25, 15.0)" width="270.5" xlink:href="#font_______W7_l0"/>
        <use fill="#333333" height="41.35" transform="matrix(0.3516, 0.0, 0.0, 0.3516, 64.85, 15.0)" width="270.5" xlink:href="#font_______W7_o0"/>
        <use fill="#333333" height="41.35" transform="matrix(0.3516, 0.0, 0.0, 0.3516, 74.5, 15.0)" width="270.5" xlink:href="#font_______W7_o0"/>
        <use fill="#333333" height="41.35" transform="matrix(0.3516, 0.0, 0.0, 0.3516, 84.2, 15.0)" width="270.5" xlink:href="#font_______W7_k0"/>
        <use fill="#333333" height="41.35" transform="matrix(0.3516, 0.0, 0.0, 0.3516, 100.55, 15.0)" width="270.5" xlink:href="#font_______W7_l0"/>
        <use fill="#333333" height="41.35" transform="matrix(0.3516, 0.0, 0.0, 0.3516, 107.15, 15.0)" width="270.5" xlink:href="#font_______W7_i0"/>
        <use fill="#333333" height="41.35" transform="matrix(0.3516, 0.0, 0.0, 0.3516, 113.75, 15.0)" width="270.5" xlink:href="#font_______W7_k0"/>
        <use fill="#333333" height="41.35" transform="matrix(0.3516, 0.0, 0.0, 0.3516, 124.1, 15.0)" width="270.5" xlink:href="#font_______W7_e0"/>
        <use fill="#333333" height="41.35" transform="matrix(0.3516, 0.0, 0.0, 0.3516, 140.15, 15.0)" width="270.5" xlink:href="#font_______W7_a0"/>
        <use fill="#333333" height="41.35" transform="matrix(0.3516, 0.0, 0.0, 0.3516, 156.5, 15.0)" width="270.5" xlink:href="#font_______W7_p0"/>
        <use fill="#333333" height="41.35" transform="matrix(0.3516, 0.0, 0.0, 0.3516, 166.9, 15.0)" width="270.5" xlink:href="#font_______W7_r0"/>
        <use fill="#333333" height="41.35" transform="matrix(0.3516, 0.0, 0.0, 0.3516, 173.6, 15.0)" width="270.5" xlink:href="#font_______W7_e0"/>
        <use fill="#333333" height="41.35" transform="matrix(0.3516, 0.0, 0.0, 0.3516, 183.65, 15.0)" width="270.5" xlink:href="#font_______W7_t0"/>
        <use fill="#333333" height="41.35" transform="matrix(0.3516, 0.0, 0.0, 0.3516, 192.2, 15.0)" width="270.5" xlink:href="#font_______W7_t0"/>
        <use fill="#333333" height="41.35" transform="matrix(0.3516, 0.0, 0.0, 0.3516, 200.7, 15.0)" width="270.5" xlink:href="#font_______W7_y0"/>
        <use fill="#333333" height="41.35" transform="matrix(0.3516, 0.0, 0.0, 0.3516, 215.6, 15.0)" width="270.5" xlink:href="#font_______W7_s0"/>
        <use fill="#333333" height="41.35" transform="matrix(0.3516, 0.0, 0.0, 0.3516, 224.95, 15.0)" width="270.5" xlink:href="#font_______W7_c0"/>
        <use fill="#333333" height="41.35" transform="matrix(0.3516, 0.0, 0.0, 0.3516, 234.6, 15.0)" width="270.5" xlink:href="#font_______W7_r0"/>
        <use fill="#333333" height="41.35" transform="matrix(0.3516, 0.0, 0.0, 0.3516, 241.3, 15.0)" width="270.5" xlink:href="#font_______W7_a0"/>
        <use fill="#333333" height="41.35" transform="matrix(0.3516, 0.0, 0.0, 0.3516, 251.65, 15.0)" width="270.5" xlink:href="#font_______W7_w0"/>
        <use fill="#333333" height="41.35" transform="matrix(0.3516, 0.0, 0.0, 0.3516, 262.8, 15.0)" width="270.5" xlink:href="#font_______W7_n0"/>
        <use fill="#333333" height="41.35" transform="matrix(0.3516, 0.0, 0.0, 0.3516, 273.0, 15.0)" width="270.5" xlink:href="#font_______W7_y0"/>
      </g>
      <g transform="matrix(1.0, 0.0, 0.0, 1.0, 0.0, 0.0)">
        <use fill="#333333" height="41.35" transform="matrix(0.3516, 0.0, 0.0, 0.3516, 77.0, 30.0)" width="270.5" xlink:href="#font_______W7_b0"/>
        <use fill="#333333" height="41.35" transform="matrix(0.3516, 0.0, 0.0, 0.3516, 87.55, 30.0)" width="270.5" xlink:href="#font_______W7_u0"/>
        <use fill="#333333" height="41.35" transform="matrix(0.3516, 0.0, 0.0, 0.3516, 97.7, 30.0)" width="270.5" xlink:href="#font_______W7_n0"/>
        <use fill="#333333" height="41.35" transform="matrix(0.3516, 0.0, 0.0, 0.3516, 107.9, 30.0)" width="270.5" xlink:href="#font_______W7_c0"/>
        <use fill="#333333" height="41.35" transform="matrix(0.3516, 0.0, 0.0, 0.3516, 117.55, 30.0)" width="270.5" xlink:href="#font_______W7_h0"/>
        <use fill="#333333" height="41.35" transform="matrix(0.3516, 0.0, 0.0, 0.3516, 134.15, 30.0)" width="270.5" xlink:href="#font_______W7_o0"/>
        <use fill="#333333" height="41.35" transform="matrix(0.3516, 0.0, 0.0, 0.3516, 143.8, 30.0)" width="270.5" xlink:href="#font_______W7_f0"/>
        <use fill="#333333" height="41.35" transform="matrix(0.3516, 0.0, 0.0, 0.3516, 156.35, 30.0)" width="270.5" xlink:href="#font_______W7_C0"/>
        <use fill="#333333" height="41.35" transform="matrix(0.3516, 0.0, 0.0, 0.3516, 168.45, 30.0)" width="270.5" xlink:href="#font_______W7_o0"/>
        <use fill="#333333" height="41.35" transform="matrix(0.3516, 0.0, 0.0, 0.3516, 178.15, 30.0)" width="270.5" xlink:href="#font_______W7_g0"/>
        <use fill="#333333" height="41.35" transform="matrix(0.3516, 0.0, 0.0, 0.3516, 188.15, 30.0)" width="270.5" xlink:href="#font_______W7_s0"/>
        <use fill="#333333" height="41.35" transform="matrix(0.3516, 0.0, 0.0, 0.3516, 197.5, 30.0)" width="270.5" xlink:href="#font_______W7__1"/>
      </g>
      <g transform="matrix(1.0, 0.0, 0.0, 1.0, 0.0, 0.0)">
        <use fill="#333333" height="41.35" transform="matrix(0.3516, 0.0, 0.0, 0.3516, 64.0, 45.0)" width="270.5" xlink:href="#font_______W7_t0"/>
        <use fill="#333333" height="41.35" transform="matrix(0.3516, 0.0, 0.0, 0.3516, 72.55, 45.0)" width="270.5" xlink:href="#font_______W7_h0"/>
        <use fill="#333333" height="41.35" transform="matrix(0.3516, 0.0, 0.0, 0.3516, 83.15, 45.0)" width="270.5" xlink:href="#font_______W7_i0"/>
        <use fill="#333333" height="41.35" transform="matrix(0.3516, 0.0, 0.0, 0.3516, 89.75, 45.0)" width="270.5" xlink:href="#font_______W7_s0"/>
        <use fill="#333333" height="41.35" transform="matrix(0.3516, 0.0, 0.0, 0.3516, 99.1, 45.0)" width="270.5" xlink:href="#font_______W7__2"/>
        <use fill="#333333" height="41.35" transform="matrix(0.3516, 0.0, 0.0, 0.3516, 102.95, 45.0)" width="270.5" xlink:href="#font_______W7_l0"/>
        <use fill="#333333" height="41.35" transform="matrix(0.3516, 0.0, 0.0, 0.3516, 109.55, 45.0)" width="270.5" xlink:href="#font_______W7_l0"/>
        <use fill="#333333" height="41.35" transform="matrix(0.3516, 0.0, 0.0, 0.3516, 122.15, 45.0)" width="270.5" xlink:href="#font_______W7_b0"/>
        <use fill="#333333" height="41.35" transform="matrix(0.3516, 0.0, 0.0, 0.3516, 132.7, 45.0)" width="270.5" xlink:href="#font_______W7_e0"/>
        <use fill="#333333" height="41.35" transform="matrix(0.3516, 0.0, 0.0, 0.3516, 148.8, 45.0)" width="270.5" xlink:href="#font_______W7_a0"/>
        <use fill="#333333" height="41.35" transform="matrix(0.3516, 0.0, 0.0, 0.3516, 165.15, 45.0)" width="270.5" xlink:href="#font_______W7_b0"/>
        <use fill="#333333" height="41.35" transform="matrix(0.3516, 0.0, 0.0, 0.3516, 175.7, 45.0)" width="270.5" xlink:href="#font_______W7_r0"/>
        <use fill="#333333" height="41.35" transform="matrix(0.3516, 0.0, 0.0, 0.3516, 182.4, 45.0)" width="270.5" xlink:href="#font_______W7_e0"/>
        <use fill="#333333" height="41.35" transform="matrix(0.3516, 0.0, 0.0, 0.3516, 192.45, 45.0)" width="270.5" xlink:href="#font_______W7_e0"/>
        <use fill="#333333" height="41.35" transform="matrix(0.3516, 0.0, 0.0, 0.3516, 202.55, 45.0)" width="270.5" xlink:href="#font_______W7_z0"/>
        <use fill="#333333" height="41.35" transform="matrix(0.3516, 0.0, 0.0, 0.3516, 211.9, 45.0)" width="270.5" xlink:href="#font_______W7_e0"/>
        <use fill="#333333" height="41.35" transform="matrix(0.3516, 0.0, 0.0, 0.3516, 221.95, 45.0)" width="270.5" xlink:href="#font_______W7__3"/>
      </g>
    </g>
    <g id="font_______W7_T0">
      <path d="M30.8 -32.15 L30.8 -32.15 0.75 -29.4 1.85 -24.25 13.45 -24.25 11.0 0.05 21.6 -1.1 18.95 -24.25 32.35 -24.25 30.8 -32.15" fill-rule="evenodd" stroke="none"/>
    </g>
    <g id="font_______W7_h0">
      <path d="M28.1 -7.6 L28.1 -7.6 Q28.1 -13.7 25.7 -17.25 22.9 -21.45 17.05 -21.45 13.35 -21.45 10.45 -19.3 L9.3 -31.55 4.65 -32.15 2.05 0.05 12.1 -1.4 11.0 -12.9 Q13.45 -15.95 16.35 -15.95 20.1 -15.95 20.1 -10.2 20.1 -6.55 17.6 -1.55 L27.6 0.05 28.1 -7.6" fill-rule="evenodd" stroke="none"/>
    </g>
    <g id="font_______W7_e0">
      <path d="M19.45 -9.9 L19.45 -9.9 Q16.75 -7.55 13.6 -7.55 10.45 -7.55 9.15 -9.9 L19.45 -9.9 M9.0 -13.4 L9.0 -13.4 Q9.7 -14.95 11.5 -15.95 13.2 -16.8 15.1 -16.8 18.05 -16.8 19.65 -14.35 L9.0 -13.4 M23.25 -9.9 L23.25 -9.9 24.3 -9.9 26.7 -12.6 Q25.85 -16.7 22.9 -19.1 19.9 -21.45 15.15 -21.45 9.65 -21.45 5.9 -18.65 1.8 -15.6 1.8 -10.4 1.8 -5.35 5.8 -2.5 9.3 0.05 14.6 0.05 22.45 0.05 27.15 -4.25 L23.25 -9.9" fill-rule="evenodd" stroke="none"/>
    </g>
    <g id="font_______W7_y0">
      <path d="M21.2 -21.45 L21.2 -21.45 13.15 -10.8 3.65 -21.45 0.5 -19.75 8.5 -4.7 4.3 0.85 12.5 4.75 24.85 -19.65 21.2 -21.45" fill-rule="evenodd" stroke="none"/>
    </g>
    <g id="font_______W7_l0">
      <path d="M11.6 -31.5 L11.6 -31.5 6.9 -32.15 4.35 0.05 14.4 -1.4 11.6 -31.5" fill-rule="evenodd" stroke="none"/>
    </g>
    <g id="font_______W7_o0">
      <path d="M15.8 -13.5 L15.8 -13.5 Q16.45 -11.85 16.45 -10.4 16.45 -6.85 12.35 -6.85 10.6 -6.85 9.35 -8.05 8.15 -9.35 8.15 -11.05 8.15 -13.25 9.8 -14.6 11.4 -16.0 13.7 -16.0 16.1 -16.0 18.3 -14.3 L15.8 -13.5 M25.7 -11.4 L25.7 -11.4 Q25.7 -13.8 24.75 -16.35 L21.25 -15.25 22.7 -17.2 Q18.35 -21.45 13.15 -21.45 8.45 -21.45 5.1 -18.2 1.8 -14.95 1.8 -10.3 1.8 -5.5 5.4 -2.65 8.65 0.05 13.65 0.05 18.75 0.05 22.2 -3.2 25.7 -6.4 25.7 -11.4" fill-rule="evenodd" stroke="none"/>
    </g>
    <g id="font_______W7_k0">
      <path d="M20.35 -12.2 L20.35 -12.2 26.9 -17.9 24.8 -21.8 10.85 -14.65 9.3 -31.45 4.6 -32.15 2.05 0.05 12.1 -1.4 11.35 -9.1 13.25 -6.05 15.8 -8.25 22.05 0.25 28.6 -6.95 20.35 -12.2" fill-rule="evenodd" stroke="none"/>
    </g>
    <g id="font_______W7_i0">
      <path d="M11.6 -20.75 L11.6 -20.75 6.75 -21.45 4.45 0.05 14.3 -1.4 11.6 -20.75 M11.9 -31.5 L11.9 -31.5 6.5 -32.15 4.9 -24.95 13.2 -26.1 11.9 -31.5" fill-rule="evenodd" stroke="none"/>
    </g>
    <g id="font_______W7_a0">
      <path d="M19.05 -8.85 L19.05 -8.85 18.5 -5.05 17.1 -9.0 Q14.35 -6.2 10.6 -6.2 9.95 -6.2 9.45 -6.75 9.0 -7.2 9.0 -7.85 9.0 -10.2 13.7 -10.2 15.9 -10.2 19.05 -8.85 M27.4 -6.8 L27.4 -6.8 Q27.4 -21.45 13.35 -21.45 7.15 -21.45 2.55 -18.35 L4.3 -14.35 Q8.3 -16.55 13.15 -16.55 17.85 -16.55 18.85 -13.35 15.4 -14.5 12.8 -14.5 8.6 -14.5 5.6 -12.8 1.8 -10.75 1.8 -6.95 1.8 -3.5 4.9 -1.55 7.55 0.05 11.15 0.05 13.95 0.05 17.35 -0.95 L17.0 0.15 26.7 -0.3 Q27.4 -3.45 27.4 -6.8" fill-rule="evenodd" stroke="none"/>
    </g>
    <g id="font_______W7_p0">
      <path d="M20.7 -12.7 L20.7 -12.7 Q20.7 -9.3 17.35 -9.3 14.95 -9.3 12.7 -12.0 L10.6 -8.4 10.05 -13.4 Q12.6 -16.55 16.2 -16.55 18.05 -16.55 19.35 -15.55 20.7 -14.5 20.7 -12.7 M27.8 -10.85 L27.8 -10.85 Q27.8 -15.55 24.6 -18.5 21.4 -21.45 16.7 -21.45 12.55 -21.45 9.35 -19.15 L9.2 -20.75 4.35 -21.45 2.05 4.75 11.95 3.3 11.35 -1.45 Q14.35 0.05 17.2 0.05 21.85 0.05 24.85 -3.05 27.8 -6.15 27.8 -10.85" fill-rule="evenodd" stroke="none"/>
    </g>
    <g id="font_______W7_r0">
      <path d="M18.3 -20.6 L18.3 -20.6 Q16.55 -21.45 14.75 -21.45 11.5 -21.45 8.7 -18.65 L8.45 -20.75 4.45 -21.45 2.55 0.05 10.65 -1.4 9.3 -12.8 Q10.55 -14.85 12.3 -14.85 13.25 -14.85 14.55 -13.85 L16.55 -12.05 18.3 -20.6" fill-rule="evenodd" stroke="none"/>
    </g>
    <g id="font_______W7_t0">
      <path d="M18.7 -12.2 L18.7 -12.2 Q17.0 -9.35 14.9 -9.35 11.95 -9.35 11.95 -15.4 L21.65 -15.4 20.1 -22.55 12.4 -21.45 Q12.75 -24.2 13.6 -27.95 L8.95 -28.85 Q7.75 -24.65 7.1 -20.75 L0.75 -19.9 1.75 -15.4 6.55 -15.4 6.5 -12.55 Q6.5 -6.8 7.75 -4.05 9.5 0.05 14.55 0.05 19.1 0.05 23.25 -4.15 L18.7 -12.2" fill-rule="evenodd" stroke="none"/>
    </g>
    <g id="font_______W7_s0">
      <path d="M25.05 -6.35 L25.05 -6.35 Q25.05 -12.25 15.35 -13.65 8.7 -14.6 8.7 -15.7 8.7 -17.05 12.35 -17.05 17.1 -17.05 22.25 -14.8 L23.8 -18.2 Q19.05 -21.45 12.25 -21.45 8.55 -21.45 6.05 -20.35 2.6 -18.85 2.6 -15.7 2.6 -13.1 4.75 -11.8 6.5 -10.75 10.95 -10.05 L16.3 -8.95 Q17.8 -8.4 17.8 -7.5 17.8 -6.2 15.25 -6.2 12.3 -6.2 9.1 -7.45 5.9 -8.7 3.8 -10.65 L1.0 -2.6 Q6.45 0.05 14.3 0.05 25.05 0.05 25.05 -6.35" fill-rule="evenodd" stroke="none"/>
    </g>
    <g id="font_______W7_c0">
      <path d="M21.35 -12.5 L21.35 -12.5 Q19.95 -10.5 17.75 -9.15 15.35 -7.6 13.15 -7.6 11.4 -7.6 10.2 -8.85 8.9 -10.05 8.9 -11.8 8.9 -14.1 10.65 -15.4 12.2 -16.55 14.55 -16.55 18.9 -16.55 21.9 -13.7 L24.4 -17.55 Q19.65 -21.45 13.1 -21.45 8.05 -21.45 4.9 -18.4 1.8 -15.3 1.8 -10.3 1.8 -5.6 5.7 -2.65 9.25 0.05 14.1 0.05 17.2 0.05 20.45 -1.1 24.05 -2.3 25.9 -4.4 L21.35 -12.5" fill-rule="evenodd" stroke="none"/>
    </g>
    <g id="font_______W7_w0">
      <path d="M23.1 -21.4 L23.1 -21.4 20.35 -10.05 16.6 -20.6 13.9 -21.45 9.35 -10.05 4.1 -21.35 0.5 -19.7 8.35 0.05 11.1 -0.5 14.9 -12.4 19.2 0.05 22.05 -0.55 31.2 -17.75 23.1 -21.4" fill-rule="evenodd" stroke="none"/>
    </g>
    <g id="font_______W7_n0">
      <path d="M27.0 -9.05 L27.0 -9.05 Q27.0 -14.5 24.65 -17.8 21.9 -21.45 16.6 -21.45 12.6 -21.45 9.45 -18.85 L9.2 -20.75 4.35 -21.45 2.05 0.05 11.95 -1.4 10.35 -12.55 Q12.95 -15.85 15.9 -15.85 19.4 -15.85 19.4 -10.6 19.4 -6.9 16.6 -1.3 L26.2 0.0 Q27.0 -6.5 27.0 -9.05" fill-rule="evenodd" stroke="none"/>
    </g>
    <g id="font_______W7_b0">
      <path d="M20.9 -12.9 L20.9 -12.9 Q20.9 -9.4 17.6 -9.4 15.3 -9.4 13.25 -11.85 L11.45 -8.4 10.95 -14.2 Q13.25 -16.5 16.3 -16.5 17.85 -16.5 19.35 -15.5 20.9 -14.45 20.9 -12.9 M28.25 -10.45 L28.25 -10.45 Q28.25 -15.0 25.1 -18.25 21.9 -21.45 17.35 -21.45 13.75 -21.45 10.5 -19.25 L9.35 -31.5 4.65 -32.15 2.05 0.05 12.15 -0.75 12.15 -2.05 Q14.7 0.05 18.2 0.05 22.6 0.05 25.4 -3.0 28.25 -6.0 28.25 -10.45" fill-rule="evenodd" stroke="none"/>
    </g>
    <g id="font_______W7_u0">
      <path d="M24.1 -20.75 L24.1 -20.75 19.25 -21.45 17.9 -8.95 16.15 -11.65 Q13.35 -8.1 10.6 -8.1 9.0 -8.1 8.15 -9.4 7.25 -10.65 7.25 -12.3 7.25 -15.75 8.6 -19.75 L3.9 -21.15 Q2.05 -16.35 2.05 -11.4 2.05 -6.45 4.25 -3.4 6.75 0.05 11.5 0.05 14.55 0.05 17.1 -1.5 L16.95 0.1 26.8 -1.35 24.1 -20.75" fill-rule="evenodd" stroke="none"/>
    </g>
    <g id="font_______W7_f0">
      <path d="M16.3 -23.5 L16.3 -23.5 11.45 -22.7 Q11.8 -25.5 12.65 -26.6 13.65 -27.85 16.3 -27.85 L17.0 -27.85 16.25 -32.0 14.1 -32.15 Q5.9 -32.15 5.05 -21.65 L1.3 -20.95 2.15 -16.7 4.55 -16.7 Q4.1 -5.65 4.1 -0.95 L13.95 0.05 Q11.85 -9.65 11.45 -16.65 L17.3 -16.6 16.3 -23.5" fill-rule="evenodd" stroke="none"/>
    </g>
    <g id="font_______W7_C0">
      <path d="M26.2 -15.4 L26.2 -15.4 Q21.6 -8.3 16.1 -8.3 12.35 -8.3 10.4 -10.7 8.6 -12.9 8.6 -16.75 8.6 -21.2 11.05 -23.95 13.55 -26.6 17.95 -26.6 23.65 -26.6 27.3 -22.25 L31.1 -26.05 Q28.65 -28.9 25.1 -30.55 21.55 -32.15 17.8 -32.15 10.8 -32.15 6.45 -27.4 2.05 -22.7 2.05 -15.6 2.05 -8.95 6.35 -4.45 10.7 0.05 17.3 0.05 25.6 0.05 32.65 -7.35 L26.2 -15.4" fill-rule="evenodd" stroke="none"/>
    </g>
    <g id="font_______W7_g0">
      <path d="M21.25 -12.75 L21.25 -12.75 21.05 -10.5 18.9 -14.7 Q15.2 -11.7 11.9 -11.7 10.85 -11.7 10.0 -12.55 9.05 -13.45 9.05 -14.45 9.05 -16.75 13.35 -16.75 15.6 -16.75 18.05 -15.7 20.3 -14.7 21.2 -13.55 L21.25 -12.75 M26.3 -10.4 L26.3 -10.4 Q26.3 -15.45 24.2 -21.5 L20.0 -20.3 20.3 -19.15 Q16.35 -21.45 12.1 -21.45 8.15 -21.45 5.4 -19.3 2.35 -16.95 2.35 -13.2 2.35 -9.45 5.85 -7.35 8.8 -5.6 12.75 -5.6 16.55 -5.6 19.75 -6.9 17.8 -3.95 13.25 -3.95 8.55 -3.95 4.75 -6.35 L1.8 2.9 Q6.7 4.75 11.2 4.75 18.25 4.75 22.25 0.65 26.3 -3.4 26.3 -10.4" fill-rule="evenodd" stroke="none"/>
    </g>
    <g id="font_______W7__1">
      <path d="M12.45 -22.6 L12.45 -22.6 4.7 -23.55 2.7 -13.15 14.3 -14.45 12.45 -22.6 M29.55 -22.6 L29.55 -22.6 21.8 -23.55 19.8 -13.15 31.4 -14.45 29.55 -22.6 M46.65 -22.6 L46.65 -22.6 38.9 -23.55 36.9 -13.15 48.5 -14.45 46.65 -22.6" fill-rule="evenodd" stroke="none"/>
    </g>
    <g id="font_______W7__2">
      <path d="M2.05 -32.15 L2.05 -32.15 3.65 -20.7 7.3 -20.7 8.95 -32.15 2.05 -32.15" fill-rule="evenodd" stroke="none"/>
    </g>
    <g id="font_______W7_z0">
      <path d="M24.1 -8.45 L24.1 -8.45 10.25 -5.15 23.6 -18.1 22.05 -21.25 1.6 -20.05 2.3 -16.15 15.5 -15.5 1.0 -3.4 1.95 -0.5 25.55 -0.45 24.1 -8.45" fill-rule="evenodd" stroke="none"/>
    </g>
    <g id="font_______W7__3">
      <path d="M12.1 -7.5 L12.1 -7.5 5.1 -8.35 3.35 0.05 13.7 -1.15 12.1 -7.5 M11.0 -31.5 L11.0 -31.5 6.15 -32.15 4.3 -10.7 13.2 -12.15 11.0 -31.5" fill-rule="evenodd" stroke="none"/>
    </g>
  </defs>
</svg>
