<?xml version="1.0" encoding="UTF-8" standalone="no"?>
<svg xmlns:xlink="http://www.w3.org/1999/xlink" height="139.8px" width="162.8px" xmlns="http://www.w3.org/2000/svg">
  <g transform="matrix(1.0, 0.0, 0.0, 1.0, 76.45, 92.85)">
    <use height="133.95" id="ch" transform="matrix(1.0, 0.0, 0.0, 1.0, -54.05, -87.7)" width="108.0" xlink:href="#sprite0"/>
    <use height="229.7" id="bang" transform="matrix(0.25, 0.0, 0.0, 0.25, -25.0, -37.65)" width="207.7" xlink:href="#sprite2"/>
    <use height="0.0" transform="matrix(1.0, 0.0, 0.0, 1.0, 2.2, 46.95)" width="0.0" xlink:href="#sprite3"/>
    <use height="0.0" id="hitsnd" transform="matrix(1.0, 0.0, 0.0, 1.0, 30.95, 38.55)" width="0.0" xlink:href="#sprite4"/>
  </g>
  <defs>
    <g id="sprite0" transform="matrix(1.0, 0.0, 0.0, 1.0, 54.05, 92.85)">
      <use height="454.95" id="cst" transform="matrix(0.2799, 0.0, 0.0, 0.2856, -54.0582, -88.8332)" width="385.95" xlink:href="#sprite1"/>
    </g>
    <g id="sprite1" transform="matrix(1.0, 0.0, 0.0, 1.0, 193.15, 454.95)">
      <use height="203.25" transform="matrix(1.0, 0.0, 0.0, 1.0, -135.65, -306.0)" width="270.9" xlink:href="#shape0"/>
      <use height="36.0" transform="matrix(1.0, 0.0, 0.0, 1.0, -79.15, -36.0)" width="159.0" xlink:href="#shape1"/>
      <use height="96.65" transform="matrix(1.0, 0.0, 0.0, 1.0, -24.85, -108.0)" width="54.2" xlink:href="#shape2"/>
      <use height="37.0" transform="matrix(1.0, 0.0, 0.0, 1.0, -92.65, -94.35)" width="185.25" xlink:href="#shape3"/>
      <use height="18.75" transform="matrix(1.0, 0.0, 0.0, 1.0, -36.6, -84.05)" width="81.85" xlink:href="#text0"/>
      <use height="255.15" transform="matrix(0.7491, 0.0, 0.0, 0.7491, -117.6487, -295.0736)" width="317.35" xlink:href="#shape4"/>
      <use height="62.9" transform="matrix(1.0, 0.0, 0.0, 1.0, -29.3, -204.8)" width="60.15" xlink:href="#shape5"/>
    </g>
    <g id="shape0" transform="matrix(1.0, 0.0, 0.0, 1.0, -45.2, -65.9)">
      <path d="M293.5 189.25 L293.55 189.15 293.5 189.25 M295.75 188.1 L293.8 188.25 Q292.55 188.85 292.3 190.3 L292.45 191.4 Q292.85 193.35 294.75 193.45 297.6 193.15 297.05 190.1 L296.55 188.7 295.75 188.1 M298.35 181.85 L310.35 207.95 307.1 255.15 294.15 267.65 139.6 267.35 117.5 266.9 298.35 181.85 M80.35 142.5 L127.95 107.1 150.35 68.4 209.35 71.55 232.0 104.95 80.35 142.5 M221.35 100.3 Q219.6 99.55 218.35 101.05 217.9 101.6 217.95 102.55 L218.15 103.9 Q218.9 106.25 221.2 105.4 223.2 104.5 222.6 102.05 L222.15 100.9 222.05 101.9 222.05 101.85 222.1 100.9 221.35 100.3 M157.05 71.8 Q156.05 71.25 154.95 71.25 151.0 71.85 150.45 75.75 L150.45 77.5 Q150.3 78.05 151.35 79.8 L152.75 80.9 Q154.85 82.1 156.8 81.1 160.1 79.55 159.55 75.7 L158.7 73.15 157.95 74.0 157.35 73.5 157.35 71.95 156.5 72.85 157.3 71.95 157.05 71.8 M115.3 127.6 L114.5 126.65 Q113.05 126.65 112.0 127.3 111.0 127.9 111.0 128.8 110.95 129.85 111.45 130.8 112.1 132.05 113.45 132.0 114.65 132.0 115.35 131.05 116.05 130.0 115.75 128.8 L115.3 127.25 115.3 127.6 M112.55 127.6 L112.25 127.75 112.15 127.8 112.55 127.6 M101.4 130.0 Q99.6 129.3 98.4 130.75 97.8 131.4 97.9 132.2 97.9 133.55 98.6 134.5 99.3 135.4 100.35 135.4 101.3 135.4 102.0 134.45 102.7 133.45 102.65 132.15 L102.15 130.6 102.15 130.95 101.4 130.0 M99.05 131.2 L99.45 131.0 99.15 131.15 99.05 131.2" fill="#ffb39c" fill-rule="evenodd" stroke="none"/>
      <path d="M292.3 190.3 L292.75 191.35 Q292.75 190.3 293.5 189.25 292.8 190.3 292.75 191.35 L293.1 191.75 293.35 191.8 293.05 191.8 Q293.7 192.35 294.7 192.4 296.8 192.2 297.05 190.1 297.6 193.15 294.75 193.45 292.85 193.35 292.45 191.4 L292.3 190.3 M139.6 267.35 L294.15 267.65 307.1 255.15 310.35 207.95 298.35 181.85 278.0 137.6 232.0 104.95 209.35 71.55 150.35 68.4 127.95 107.1 80.35 142.5 52.2 201.5 48.45 250.85 70.1 267.65 139.6 267.35 M296.95 269.15 L68.1 269.15 45.2 253.15 49.35 200.25 75.75 139.1 126.8 104.35 148.25 65.9 214.9 67.65 236.15 103.85 284.1 134.8 316.1 206.1 311.05 258.15 296.95 269.15 M222.05 101.85 L222.05 101.9 221.95 102.25 222.05 101.85 M222.6 102.05 Q223.2 104.5 221.2 105.4 218.9 106.25 218.15 103.9 L217.95 102.55 218.3 103.55 218.9 104.0 Q218.95 104.55 220.6 104.65 222.8 104.25 222.6 102.05 M151.35 78.2 L156.5 72.85 157.35 71.95 157.35 73.5 151.35 79.8 151.35 78.2 M159.55 75.7 Q160.1 79.55 156.8 81.1 154.85 82.1 152.75 80.9 L152.75 79.4 Q153.8 80.0 155.05 80.05 159.15 79.7 159.55 75.7 M115.75 128.8 Q116.05 130.0 115.35 131.05 114.65 132.0 113.45 132.0 112.1 132.05 111.45 130.8 110.95 129.85 111.0 128.8 L111.4 129.9 Q111.45 128.8 112.15 127.8 L112.25 127.75 Q111.5 128.8 111.4 129.9 L111.8 130.3 Q112.45 130.9 113.4 130.9 115.45 130.75 115.75 128.8 M97.9 132.2 Q97.95 132.8 98.3 133.3 98.35 132.2 99.05 131.2 L99.15 131.15 Q98.4 132.2 98.3 133.3 L98.7 133.7 Q99.3 134.25 100.3 134.3 102.35 134.1 102.65 132.15 102.7 133.45 102.0 134.45 101.3 135.4 100.35 135.4 99.3 135.4 98.6 134.5 97.9 133.55 97.9 132.2 M59.9 237.65 L60.75 236.75 60.75 238.25 54.8 244.55 54.75 244.55 54.75 242.95 59.9 237.65 M62.95 240.45 Q63.4 243.2 61.45 245.0 59.0 247.25 56.15 245.55 L56.15 244.2 Q57.2 244.8 58.45 244.8 62.6 244.45 62.95 240.45" fill="#c4695f" fill-rule="evenodd" stroke="none"/>
      <path d="M293.55 189.15 L295.75 188.1 296.55 188.7 Q296.55 190.0 295.65 190.9 294.7 191.8 293.4 191.8 L293.35 191.8 293.1 191.75 292.75 191.35 Q292.8 190.3 293.5 189.25 L293.55 189.15 M221.35 100.3 L222.1 100.9 222.05 101.85 221.95 102.25 Q221.95 102.95 221.1 103.45 220.2 104.0 218.9 104.0 L218.3 103.55 Q218.35 102.4 219.2 101.2 220.2 100.4 221.35 100.3 M151.1 77.8 Q152.0 73.55 156.45 72.0 L157.05 71.8 157.3 71.95 156.5 72.85 151.35 78.2 151.1 77.8 M114.5 126.65 L115.3 127.6 Q115.3 128.7 114.25 129.55 113.25 130.3 111.8 130.3 L111.4 129.9 Q111.5 128.8 112.25 127.75 L112.55 127.6 114.5 126.65 M99.45 131.0 L101.4 130.0 102.15 130.95 Q102.15 132.1 101.15 132.9 100.15 133.7 98.7 133.7 L98.3 133.3 Q98.4 132.2 99.15 131.15 L99.45 131.0 M54.5 242.55 Q55.4 238.3 59.85 236.75 L60.45 236.55 60.7 236.75 59.9 237.65 54.75 242.95 54.5 242.55" fill="#ffe6d0" fill-rule="evenodd" stroke="none"/>
      <path d="M293.55 189.15 L293.5 189.25 Q292.75 190.3 292.75 191.35 L292.3 190.3 Q292.55 188.85 293.8 188.25 L295.75 188.1 293.55 189.15 M217.95 102.55 Q217.9 101.6 218.35 101.05 219.6 99.55 221.35 100.3 220.2 100.4 219.2 101.2 218.35 102.4 218.3 103.55 L217.95 102.55 M157.05 71.8 L156.45 72.0 Q152.0 73.55 151.1 77.8 150.5 76.85 150.45 75.75 151.0 71.85 154.95 71.25 156.05 71.25 157.05 71.8 M111.0 128.8 Q111.0 127.9 112.0 127.3 113.05 126.65 114.5 126.65 L112.55 127.6 112.15 127.8 Q111.45 128.8 111.4 129.9 L111.0 128.8 M97.9 132.2 Q97.8 131.4 98.4 130.75 99.6 129.3 101.4 130.0 L99.45 131.0 99.05 131.2 Q98.35 132.2 98.3 133.3 97.95 132.8 97.9 132.2 M53.85 240.5 Q54.2 237.7 56.6 236.6 58.55 235.65 60.45 236.55 L59.85 236.75 Q55.4 238.3 54.5 242.55 53.95 241.6 53.85 240.5" fill="#ffffeb" fill-rule="evenodd" stroke="none"/>
      <path d="M297.05 190.1 Q296.8 192.2 294.7 192.4 293.7 192.35 293.05 191.8 L293.35 191.8 293.4 191.8 Q294.7 191.8 295.65 190.9 296.55 190.0 296.55 188.7 L297.05 190.1 M222.05 101.9 L222.15 100.9 222.6 102.05 Q222.8 104.25 220.6 104.65 218.95 104.55 218.9 104.0 220.2 104.0 221.1 103.45 221.95 102.95 221.95 102.25 L222.05 101.9 M158.7 73.15 L159.55 75.7 Q159.15 79.7 155.05 80.05 153.8 80.0 152.75 79.4 157.25 79.7 158.55 75.7 158.9 74.5 158.7 73.15 M115.3 127.6 L115.3 127.25 115.75 128.8 Q115.45 130.75 113.4 130.9 112.45 130.9 111.8 130.3 113.25 130.3 114.25 129.55 115.3 128.7 115.3 127.6 M102.15 130.95 L102.15 130.6 102.65 132.15 Q102.35 134.1 100.3 134.3 99.3 134.25 98.7 133.7 100.15 133.7 101.15 132.9 102.15 132.1 102.15 130.95 M56.15 244.2 Q58.6 244.4 60.35 242.85 62.6 240.85 62.1 237.95 L62.95 240.45 Q62.6 244.45 58.45 244.8 57.2 244.8 56.15 244.2" fill="#ffc5b3" fill-rule="evenodd" stroke="none"/>
      <path d="M298.35 181.85 L117.5 266.9 139.6 267.35 70.1 267.65 48.45 250.85 52.2 201.5 80.35 142.5 232.0 104.95 278.0 137.6 298.35 181.85 M157.95 74.0 L158.7 73.15 Q158.9 74.5 158.55 75.7 157.25 79.7 152.75 79.4 L157.95 74.0 M60.45 236.55 Q58.55 235.65 56.6 236.6 54.2 237.7 53.85 240.5 L53.85 242.25 Q53.7 242.85 54.75 244.55 L54.8 244.55 56.15 245.55 Q59.0 247.25 61.45 245.0 63.4 243.2 62.95 240.45 L62.1 237.95 Q62.6 240.85 60.35 242.85 58.6 244.4 56.15 244.2 L61.35 238.7 60.75 238.25 60.75 236.75 59.9 237.65 60.7 236.75 60.45 236.55" fill="#ffd0ba" fill-rule="evenodd" stroke="none"/>
      <path d="M152.75 80.9 L151.35 79.8 157.35 73.5 157.95 74.0 152.75 79.4 152.75 80.9 M60.75 238.25 L61.35 238.7 56.15 244.2 56.15 245.55 54.8 244.55 60.75 238.25" fill="#d46d5b" fill-rule="evenodd" stroke="none"/>
      <path d="M150.45 75.75 Q150.5 76.85 151.1 77.8 L151.35 78.2 151.35 79.8 Q150.3 78.05 150.45 77.5 L150.45 75.75 M53.85 240.5 Q53.95 241.6 54.5 242.55 L54.75 242.95 54.75 244.55 Q53.7 242.85 53.85 242.25 L53.85 240.5" fill="#f6988b" fill-rule="evenodd" stroke="none"/>
    </g>
    <g id="shape1" transform="matrix(1.0, 0.0, 0.0, 1.0, 0.0, 0.0)">
      <path d="M135.7 30.75 Q113.3 35.8 79.5 36.0 45.7 35.8 23.3 30.75 0.85 25.65 0.0 18.0 0.85 10.35 23.3 5.25 45.7 0.2 79.5 0.0 113.3 0.2 135.7 5.25 158.15 10.35 159.0 18.0 158.15 25.65 135.7 30.75" fill="#7d1700" fill-opacity="0.39607844" fill-rule="evenodd" stroke="none"/>
    </g>
    <g id="shape2" transform="matrix(1.0, 0.0, 0.0, 1.0, 0.0, 0.0)">
      <path d="M5.85 93.35 Q-0.15 90.4 0.0 90.0 L0.0 0.0 54.2 0.0 54.2 90.0 Q54.15 90.4 46.95 93.35 39.7 96.25 25.65 96.65 11.8 96.25 5.85 93.35" fill="url(#gradient0)" fill-rule="evenodd" stroke="none"/>
    </g>
    <linearGradient gradientTransform="matrix(0.0303, 0.0, 0.0, 0.0303, 25.7, 48.35)" gradientUnits="userSpaceOnUse" id="gradient0" spreadMethod="pad" x1="-819.2" x2="819.2">
      <stop offset="0.0" stop-color="#d36d56"/>
      <stop offset="0.403921568627451" stop-color="#ffb099"/>
      <stop offset="0.592156862745098" stop-color="#fff2da"/>
      <stop offset="0.7803921568627451" stop-color="#ffb19a"/>
      <stop offset="1.0" stop-color="#922913"/>
    </linearGradient>
    <g id="shape3" transform="matrix(1.0, 0.0, 0.0, 1.0, -0.05, 0.0)">
      <path d="M185.25 8.2 L185.3 8.25 185.25 8.25 185.25 8.2 M1.9 5.2 L2.3 2.85 18.75 2.05 59.05 0.7 Q83.4 0.05 109.4 0.3 115.1 0.55 118.85 1.6 122.65 2.7 128.15 3.0 L129.3 1.5 Q130.05 0.2 130.5 0.0 160.7 0.5 181.5 3.85 L183.45 6.1 103.3 3.5 Q60.0 3.6 6.5 5.1 L1.9 5.2 M176.25 8.0 L176.45 8.4 177.65 11.45 178.5 13.65 Q179.3 12.8 179.7 10.9 179.7 9.8 179.25 9.1 L179.9 9.55 Q180.65 10.3 180.7 11.75 179.85 15.7 177.15 15.05 175.8 14.75 175.1 13.85 L176.15 14.2 177.35 14.25 176.45 12.35 174.9 8.8 174.8 8.5 174.95 8.35 Q175.75 7.8 176.25 8.0 M178.25 27.3 L179.85 27.15 Q180.5 27.3 181.25 27.95 183.6 31.2 181.35 32.8 180.2 33.6 179.1 33.5 L180.8 32.15 178.8 31.55 175.1 30.4 175.2 29.1 175.2 29.0 175.25 28.7 175.4 28.75 175.85 28.9 178.95 30.05 181.1 30.85 Q181.0 29.65 179.9 28.15 179.05 27.45 178.25 27.3 M9.35 6.95 L10.7 10.45 11.7 12.9 Q12.6 11.95 13.05 9.85 13.05 8.55 12.5 7.75 13.85 8.35 14.15 10.05 L13.75 12.35 Q12.6 15.1 10.15 14.55 8.75 14.25 8.0 13.4 L7.85 13.2 9.0 13.6 10.35 13.65 9.35 11.4 7.6 7.45 8.75 6.6 9.2 6.55 9.35 6.95 M9.4 25.3 Q11.0 24.35 12.9 25.8 15.0 28.35 14.35 30.1 L13.4 31.3 Q12.2 32.25 10.95 32.25 L12.75 30.6 10.4 30.05 6.2 29.05 6.15 27.55 6.15 27.1 6.35 27.15 6.9 27.35 10.45 28.4 12.95 29.1 Q12.75 27.8 11.35 26.15 10.35 25.35 9.4 25.3" fill="#c4695f" fill-rule="evenodd" stroke="none"/>
      <path d="M0.05 36.7 L0.75 22.9 Q1.05 14.95 1.6 7.0 L1.9 5.2 6.5 5.1 3.2 8.3 1.95 36.45 0.05 36.7" fill="#ffe4cd" fill-rule="evenodd" stroke="none"/>
      <path d="M13.75 12.35 L14.15 10.05 26.45 10.0 13.75 12.35 M8.0 13.4 L7.0 13.55 7.2 26.2 6.35 27.15 6.15 27.1 6.15 27.55 Q5.15 29.5 6.75 31.55 8.95 33.2 10.95 32.25 12.2 32.25 13.4 31.3 L14.35 30.1 16.45 30.2 36.65 31.3 56.5 32.6 Q50.4 32.9 38.0 32.9 L15.1 32.75 3.85 32.6 5.25 10.05 6.0 10.05 Q6.15 12.3 7.85 13.2 L8.0 13.4" fill="#ff9b84" fill-rule="evenodd" stroke="none"/>
      <path d="M175.1 13.85 Q175.8 14.75 177.15 15.05 179.85 15.7 180.7 11.75 180.65 10.3 179.9 9.55 L180.85 9.65 179.85 27.15 178.25 27.3 177.7 27.3 177.8 15.2 160.95 13.3 Q144.35 11.4 115.0 6.95 144.55 7.2 162.45 8.35 L174.1 9.15 Q173.65 9.7 173.4 10.6 173.45 12.95 175.1 13.85 M175.3 32.3 L137.05 30.55 175.2 29.0 175.2 29.1 Q174.3 30.55 175.3 32.3" fill="#ffb6a0" fill-rule="evenodd" stroke="none"/>
      <path d="M176.45 8.4 L176.25 8.0 176.9 7.95 Q178.55 8.05 179.25 9.1 179.7 9.8 179.7 10.9 179.3 12.8 178.5 13.65 L177.65 11.45 178.05 10.25 Q178.0 8.55 176.45 8.4 M174.8 8.5 L174.9 8.8 Q174.35 9.2 174.15 10.05 174.2 11.9 175.85 12.3 L176.45 12.35 177.35 14.25 176.15 14.2 175.1 13.85 Q173.45 12.95 173.4 10.6 173.65 9.7 174.1 9.15 L174.8 8.5 M177.7 27.3 L178.25 27.3 Q179.05 27.45 179.9 28.15 181.0 29.65 181.1 30.85 L178.95 30.05 178.3 28.9 Q177.0 27.8 175.85 28.9 L175.4 28.75 175.8 28.3 Q176.7 27.35 177.7 27.3 M179.1 33.5 Q177.3 34.2 175.5 32.65 L175.3 32.3 Q174.3 30.55 175.2 29.1 L175.1 30.4 Q175.25 32.1 176.95 32.35 178.0 32.25 178.8 31.55 L180.8 32.15 179.1 33.5 M10.7 10.45 L11.2 9.05 Q11.15 7.15 9.35 6.95 L9.2 6.55 9.9 6.5 Q11.75 6.6 12.5 7.75 13.05 8.55 13.05 9.85 12.6 11.95 11.7 12.9 L10.7 10.45 M7.2 26.2 Q8.2 25.2 9.4 25.3 10.35 25.35 11.35 26.15 12.75 27.8 12.95 29.1 L10.45 28.4 Q9.75 26.65 8.05 26.6 L6.9 27.35 6.35 27.15 7.2 26.2 M6.0 10.05 L5.95 9.55 Q6.6 7.0 8.75 6.6 L7.6 7.45 Q7.0 7.9 6.75 8.85 6.8 10.95 8.7 11.35 L9.35 11.4 10.35 13.65 9.0 13.6 7.85 13.2 Q6.15 12.3 6.0 10.05 M6.15 27.55 L6.2 29.05 Q6.45 30.9 8.2 31.1 9.7 31.2 10.4 30.05 L12.75 30.6 10.95 32.25 Q8.95 33.2 6.75 31.55 5.15 29.5 6.15 27.55" fill="#ffb39c" fill-rule="evenodd" stroke="none"/>
      <path d="M174.9 8.8 L176.45 12.35 175.85 12.3 Q174.2 11.9 174.15 10.05 174.35 9.2 174.9 8.8 M177.65 11.45 L176.45 8.4 Q178.0 8.55 178.05 10.25 L177.65 11.45 M175.85 28.9 Q177.0 27.8 178.3 28.9 L178.95 30.05 175.85 28.9 M175.1 30.4 L178.8 31.55 Q178.0 32.25 176.95 32.35 175.25 32.1 175.1 30.4 M9.35 6.95 Q11.15 7.15 11.2 9.05 L10.7 10.45 9.35 6.95 M9.35 11.4 L8.7 11.35 Q6.8 10.95 6.75 8.85 7.0 7.9 7.6 7.45 L9.35 11.4 M10.45 28.4 L6.9 27.35 8.05 26.6 Q9.75 26.65 10.45 28.4 M6.2 29.05 L10.4 30.05 Q9.7 31.2 8.2 31.1 6.45 30.9 6.2 29.05" fill="#ffebd4" fill-rule="evenodd" stroke="none"/>
      <path d="M183.45 6.1 L185.3 6.25 185.25 8.2 185.25 8.25 185.1 13.45 184.65 27.3 184.3 36.25 Q157.35 34.75 133.85 35.55 L89.2 37.0 Q65.15 37.15 43.55 35.85 22.0 34.5 0.05 36.75 L0.05 36.7 1.95 36.45 3.2 8.3 6.5 5.1 Q60.0 3.6 103.3 3.5 L183.45 6.1 M176.25 8.0 Q175.75 7.8 174.95 8.35 L174.8 8.5 174.1 9.15 162.45 8.35 Q144.55 7.2 115.0 6.95 144.35 11.4 160.95 13.3 L177.8 15.2 177.7 27.3 Q176.7 27.35 175.8 28.3 L175.4 28.75 175.25 28.7 175.2 29.0 137.05 30.55 175.3 32.3 175.5 32.65 Q177.3 34.2 179.1 33.5 180.2 33.6 181.35 32.8 183.6 31.2 181.25 27.95 180.5 27.3 179.85 27.15 L180.85 9.65 179.9 9.55 179.25 9.1 Q178.55 8.05 176.9 7.95 L176.25 8.0 M12.5 7.75 Q11.75 6.6 9.9 6.5 L9.2 6.55 8.75 6.6 Q6.6 7.0 5.95 9.55 L6.0 10.05 5.25 10.05 3.85 32.6 15.1 32.75 38.0 32.9 Q50.4 32.9 56.5 32.6 L36.65 31.3 16.45 30.2 14.35 30.1 Q15.0 28.35 12.9 25.8 11.0 24.35 9.4 25.3 8.2 25.2 7.2 26.2 L7.0 13.55 8.0 13.4 Q8.75 14.25 10.15 14.55 12.6 15.1 13.75 12.35 L26.45 10.0 14.15 10.05 Q13.85 8.35 12.5 7.75" fill="url(#gradient1)" fill-rule="evenodd" stroke="none"/>
    </g>
    <linearGradient gradientTransform="matrix(0.1131, 0.0, 0.0, 0.0204, 92.65, 20.25)" gradientUnits="userSpaceOnUse" id="gradient1" spreadMethod="pad" x1="-819.2" x2="819.2">
      <stop offset="0.0" stop-color="#ffb19a"/>
      <stop offset="1.0" stop-color="#ffffff"/>
    </linearGradient>
    <g id="text0" transform="matrix(1.0, 0.0, 0.0, 1.0, -1.3, -5.65)">
      <g transform="matrix(1.0, 0.0, 0.0, 1.0, 0.0, 0.0)">
        <use fill="#7d1700" height="18.75" transform="matrix(0.5078, 0.0, 0.0, 0.5078, 0.0, 22.0)" width="81.85" xlink:href="#font_______W7_F0"/>
        <use fill="#7d1700" height="18.75" transform="matrix(0.5078, 0.0, 0.0, 0.5078, 16.65, 22.0)" width="81.85" xlink:href="#font_______W7_l0"/>
        <use fill="#7d1700" height="18.75" transform="matrix(0.5078, 0.0, 0.0, 0.5078, 26.2, 22.0)" width="81.85" xlink:href="#font_______W7_u0"/>
        <use fill="#7d1700" height="18.75" transform="matrix(0.5078, 0.0, 0.0, 0.5078, 40.85, 22.0)" width="81.85" xlink:href="#font_______W7_n0"/>
        <use fill="#7d1700" height="18.75" transform="matrix(0.5078, 0.0, 0.0, 0.5078, 55.6, 22.0)" width="81.85" xlink:href="#font_______W7_k0"/>
        <use fill="#7d1700" height="18.75" transform="matrix(0.5078, 0.0, 0.0, 0.5078, 70.55, 22.0)" width="81.85" xlink:href="#font_______W7_y0"/>
      </g>
    </g>
    <g id="font_______W7_F0">
      <path d="M30.3 -31.55 L30.3 -31.55 10.45 -29.1 10.2 -31.5 5.3 -32.15 2.55 0.05 13.15 -1.1 12.2 -11.25 30.3 -11.25 28.75 -18.75 11.65 -16.25 10.9 -24.05 31.8 -24.05 30.3 -31.55" fill-rule="evenodd" stroke="none"/>
    </g>
    <g id="font_______W7_l0">
      <path d="M11.6 -31.5 L11.6 -31.5 6.9 -32.15 4.35 0.05 14.4 -1.4 11.6 -31.5" fill-rule="evenodd" stroke="none"/>
    </g>
    <g id="font_______W7_u0">
      <path d="M24.1 -20.75 L24.1 -20.75 19.25 -21.45 17.9 -8.95 16.15 -11.65 Q13.35 -8.1 10.6 -8.1 9.0 -8.1 8.15 -9.4 7.25 -10.65 7.25 -12.3 7.25 -15.75 8.6 -19.75 L3.9 -21.15 Q2.05 -16.35 2.05 -11.4 2.05 -6.45 4.25 -3.4 6.75 0.05 11.5 0.05 14.55 0.05 17.1 -1.5 L16.95 0.1 26.8 -1.35 24.1 -20.75" fill-rule="evenodd" stroke="none"/>
    </g>
    <g id="font_______W7_n0">
      <path d="M27.0 -9.05 L27.0 -9.05 Q27.0 -14.5 24.65 -17.8 21.9 -21.45 16.6 -21.45 12.6 -21.45 9.45 -18.85 L9.2 -20.75 4.35 -21.45 2.05 0.05 11.95 -1.4 10.35 -12.55 Q12.95 -15.85 15.9 -15.85 19.4 -15.85 19.4 -10.6 19.4 -6.9 16.6 -1.3 L26.2 0.0 Q27.0 -6.5 27.0 -9.05" fill-rule="evenodd" stroke="none"/>
    </g>
    <g id="font_______W7_k0">
      <path d="M20.35 -12.2 L20.35 -12.2 26.9 -17.9 24.8 -21.8 10.85 -14.65 9.3 -31.45 4.6 -32.15 2.05 0.05 12.1 -1.4 11.35 -9.1 13.25 -6.05 15.8 -8.25 22.05 0.25 28.6 -6.95 20.35 -12.2" fill-rule="evenodd" stroke="none"/>
    </g>
    <g id="font_______W7_y0">
      <path d="M21.2 -21.45 L21.2 -21.45 13.15 -10.8 3.65 -21.45 0.5 -19.75 8.5 -4.7 4.3 0.85 12.5 4.75 24.85 -19.65 21.2 -21.45" fill-rule="evenodd" stroke="none"/>
    </g>
    <g id="shape4" transform="matrix(1.0, 0.0, 0.0, 1.0, 1.4, 1.5)">
      <path d="M74.2 65.7 L73.4 66.0 72.6 65.75 74.2 65.7" fill="#ffb39c" fill-rule="evenodd" stroke="none"/>
      <path d="M167.05 33.9 Q163.4 33.5 163.05 28.95 163.4 24.4 167.05 24.0 170.7 24.4 171.05 28.95 170.7 33.5 167.05 33.9 M146.5 28.95 Q146.15 33.5 142.5 33.9 138.85 33.5 138.5 28.95 138.85 24.4 142.5 24.0 146.15 24.4 146.5 28.95" fill="#7d1700" fill-rule="evenodd" stroke="none"/>
      <path d="M200.05 89.85 Q203.55 96.35 211.35 95.95 L162.45 132.95 Q175.55 107.95 189.0 83.1 192.8 76.1 196.9 69.25 L205.15 55.5 217.3 59.05 215.2 82.75 200.1 89.4 200.05 89.85 M218.05 84.35 L220.25 60.15 225.75 62.4 225.45 78.2 243.3 128.8 252.0 188.2 253.8 250.6 159.4 250.65 159.45 140.65 161.4 137.5 215.2 96.8 215.6 96.45 215.85 95.45 215.6 94.95 205.25 90.0 217.55 85.05 218.05 84.35 M228.7 63.35 L244.8 68.05 280.15 102.7 300.5 141.1 312.7 212.65 304.7 213.6 304.4 213.4 303.55 213.3 287.4 215.65 287.2 215.65 266.6 218.05 Q264.85 206.3 261.2 195.3 258.6 187.55 253.95 180.6 L246.25 128.15 246.2 127.85 228.35 77.45 228.7 63.35 M89.65 90.95 L112.15 90.75 102.8 98.65 103.4 100.3 151.6 133.7 156.45 140.7 156.4 250.65 55.85 250.65 59.25 146.15 76.3 86.1 76.05 68.35 87.75 62.85 89.0 90.5 89.65 90.95 M91.6 88.05 L90.7 61.65 102.2 57.6 151.7 130.15 106.75 98.95 117.7 90.0 117.55 88.35 117.25 87.95 Q107.6 87.3 98.0 87.65 L91.6 88.05 M69.3 70.95 L73.05 69.4 73.35 85.5 56.25 145.85 55.1 181.65 Q50.9 189.2 47.55 197.25 46.55 199.6 45.65 202.05 L43.85 206.9 42.2 211.85 40.65 216.8 32.05 216.0 32.95 216.55 31.85 216.0 2.1 213.25 2.1 175.55 24.35 122.0 69.3 70.95" fill="#d6360b" fill-rule="evenodd" stroke="none"/>
      <path d="M105.5 53.3 L105.0 54.05 103.9 53.75 104.5 53.3 105.5 53.3 M171.85 85.4 L184.3 85.7 175.5 103.35 164.7 89.85 170.35 81.15 171.85 85.4 M186.85 85.55 L186.85 85.5 186.9 85.5 186.85 85.55 M185.25 82.7 L173.9 82.7 170.25 69.5 201.2 56.45 185.25 82.7 M108.0 58.05 L141.9 70.35 134.7 86.4 121.4 80.35 105.7 57.4 108.0 58.05 M134.9 89.7 Q136.2 90.25 136.85 89.05 L140.55 80.8 148.4 90.65 137.55 104.1 124.7 85.15 134.9 89.7" fill="#ffcfa2" fill-rule="evenodd" stroke="none"/>
      <path d="M105.5 53.3 L115.7 37.5 Q110.8 29.55 114.05 20.8 115.95 15.75 120.1 12.35 126.65 7.05 135.05 7.9 L137.3 5.6 Q141.1 1.55 145.35 -1.5 L170.9 -1.5 171.4 -1.3 Q177.05 2.5 181.35 8.05 187.6 10.0 191.4 15.35 197.4 23.65 194.1 33.2 L203.75 52.4 204.85 52.25 Q212.1 54.35 219.25 56.8 L227.95 59.65 246.3 65.55 246.6 65.65 282.4 100.7 282.7 101.05 303.25 139.9 303.4 140.35 315.95 213.7 315.7 214.9 315.35 215.05 314.65 215.45 306.65 216.4 313.75 227.65 Q314.15 228.35 313.4 229.0 L286.45 252.35 285.9 252.4 Q285.4 252.25 285.05 251.95 280.1 248.35 275.45 244.4 275.1 244.15 275.15 243.75 L276.2 239.4 272.0 237.55 Q271.35 237.2 271.3 236.65 270.85 230.9 271.35 225.25 271.6 222.8 272.75 220.4 L265.0 220.8 264.4 220.35 Q263.5 217.15 262.95 213.85 260.65 200.55 255.0 188.35 L256.85 252.05 256.5 253.2 255.35 253.6 54.3 253.65 53.55 253.45 52.8 252.1 54.9 188.35 Q47.7 203.3 42.65 219.2 42.55 219.6 42.1 219.45 L39.35 219.7 Q40.55 221.9 40.9 224.25 41.7 229.7 41.55 235.25 41.55 235.9 41.05 236.25 L37.0 238.35 38.45 242.1 Q38.8 243.0 38.0 243.75 L28.8 252.0 Q27.95 252.1 27.35 251.65 L-0.95 230.85 Q-1.65 230.3 -1.2 229.45 2.0 222.95 5.5 216.6 L-0.05 216.0 -0.9 214.6 -0.9 175.25 -0.75 174.7 21.7 120.6 21.95 120.15 67.3 68.7 73.4 66.0 74.2 65.7 88.1 59.6 Q96.05 56.25 103.9 53.75 L105.0 54.05 105.5 53.3 M175.35 10.2 Q168.35 10.2 163.4 15.0 158.4 19.8 158.4 26.55 158.4 33.3 163.4 38.1 168.35 42.9 175.35 42.9 182.35 42.9 187.35 38.1 192.3 33.3 192.3 26.55 192.3 19.8 187.35 15.0 182.35 10.2 175.35 10.2 M176.75 7.2 L170.35 1.5 145.95 1.5 138.7 8.6 149.9 12.35 150.65 12.95 150.4 13.95 149.35 14.5 147.4 14.1 149.6 17.1 Q152.2 20.95 152.45 25.55 L155.45 25.55 155.8 23.4 Q156.9 17.9 160.5 13.55 L158.15 14.05 156.9 12.95 157.0 11.8 168.25 8.5 176.75 7.2 M177.25 58.4 L176.5 58.6 Q167.75 53.25 157.5 52.5 143.25 52.35 130.2 58.5 L129.7 57.3 Q130.65 56.7 131.7 56.2 137.45 53.5 143.55 51.95 152.35 49.6 161.15 50.85 170.25 52.05 177.6 57.3 L177.25 58.4 M192.4 36.6 Q191.25 38.65 189.55 40.2 182.1 47.15 172.0 45.65 L181.9 51.9 184.0 57.1 182.7 57.7 180.4 53.3 168.9 46.0 Q164.2 42.85 160.3 38.85 156.1 34.6 155.5 28.55 L152.4 28.55 152.1 30.55 151.65 32.45 150.3 36.0 Q149.15 38.65 146.9 40.45 138.0 47.65 127.8 53.3 L125.5 57.7 124.5 57.4 126.35 51.9 135.15 46.35 Q124.85 47.35 117.65 39.95 L108.0 54.85 156.0 72.3 200.85 53.35 192.4 36.6 M162.0 88.45 L169.3 77.25 167.45 70.7 155.9 75.1 144.75 71.4 141.9 77.75 151.0 89.1 162.0 88.45 M171.85 85.4 L170.35 81.15 164.7 89.85 175.5 103.35 184.3 85.7 171.85 85.4 M200.05 89.85 L200.1 89.4 215.2 82.75 217.3 59.05 205.15 55.5 196.9 69.25 Q192.8 76.1 189.0 83.1 175.55 107.95 162.45 132.95 L211.35 95.95 Q203.55 96.35 200.05 89.85 M186.85 85.55 L186.9 85.5 186.85 85.5 186.85 85.55 M185.25 82.7 L201.2 56.45 170.25 69.5 173.9 82.7 185.25 82.7 M228.7 63.35 L228.35 77.45 246.2 127.85 246.25 128.15 253.95 180.6 Q258.6 187.55 261.2 195.3 264.85 206.3 266.6 218.05 L287.2 215.65 287.4 215.65 303.55 213.3 304.4 213.4 304.7 213.6 312.7 212.65 300.5 141.1 280.15 102.7 244.8 68.05 228.7 63.35 M218.05 84.35 L217.55 85.05 205.25 90.0 215.6 94.95 215.85 95.45 215.6 96.45 215.2 96.8 161.4 137.5 159.45 140.65 159.4 250.65 253.8 250.6 252.0 188.2 243.3 128.8 225.45 78.2 225.75 62.4 220.25 60.15 218.05 84.35 M173.8 106.1 L162.2 91.45 151.1 92.1 139.35 106.7 158.25 134.3 173.8 106.1 M139.1 11.95 Q131.15 9.1 124.05 13.4 118.3 16.8 116.45 23.15 114.3 30.45 118.75 36.5 123.35 42.7 130.85 43.35 139.65 44.2 145.45 37.5 150.05 32.2 149.2 25.4 148.05 15.8 139.1 11.95 M150.8 41.3 L151.75 42.15 Q155.2 43.2 159.05 43.35 L160.0 42.25 Q160.75 42.15 161.45 42.7 162.2 43.2 162.1 44.05 L160.45 45.4 154.5 46.05 Q150.65 45.9 148.6 42.9 149.05 41.1 150.8 41.3 M108.0 58.05 L105.7 57.4 121.4 80.35 134.7 86.4 141.9 70.35 108.0 58.05 M91.6 88.05 L98.0 87.65 Q107.6 87.3 117.25 87.95 L117.55 88.35 117.7 90.0 106.75 98.95 151.7 130.15 102.2 57.6 90.7 61.65 91.6 88.05 M89.65 90.95 L89.0 90.5 87.75 62.85 76.05 68.35 76.3 86.1 59.25 146.15 55.85 250.65 156.4 250.65 156.45 140.7 151.6 133.7 103.4 100.3 102.8 98.65 112.15 90.75 89.65 90.95 M134.9 89.7 L124.7 85.15 137.55 104.1 148.4 90.65 140.55 80.8 136.85 89.05 Q136.2 90.25 134.9 89.7 M69.3 70.95 L24.35 122.0 2.1 175.55 2.1 213.25 31.85 216.0 32.95 216.55 32.05 216.0 40.65 216.8 42.2 211.85 43.85 206.9 45.65 202.05 Q46.55 199.6 47.55 197.25 50.9 189.2 55.1 181.65 L56.25 145.85 73.35 85.5 73.05 69.4 69.3 70.95 M38.85 224.9 L35.7 219.4 8.45 217.45 1.95 229.15 28.1 248.65 35.3 242.25 33.85 238.55 Q30.35 235.75 27.2 232.65 26.35 231.8 27.5 231.2 L28.3 231.15 35.25 235.85 38.7 234.25 38.85 224.9 M284.7 231.1 L285.25 231.35 286.0 233.3 279.35 239.35 278.2 243.15 285.8 249.0 310.45 227.6 303.05 216.35 276.15 220.25 273.35 226.1 274.25 235.45 277.75 236.8 284.7 231.1" fill="#97311a" fill-rule="evenodd" stroke="none"/>
      <path d="M176.75 7.2 L168.25 8.5 157.0 11.8 156.9 12.95 158.15 14.05 160.5 13.55 Q156.9 17.9 155.8 23.4 L155.45 25.55 152.45 25.55 Q152.2 20.95 149.6 17.1 L147.4 14.1 149.35 14.5 150.4 13.95 150.65 12.95 149.9 12.35 138.7 8.6 145.95 1.5 170.35 1.5 176.75 7.2 M192.4 36.6 L200.85 53.35 156.0 72.3 108.0 54.85 117.65 39.95 Q124.85 47.35 135.15 46.35 L126.35 51.9 124.5 57.4 125.5 57.7 127.8 53.3 Q138.0 47.65 146.9 40.45 149.15 38.65 150.3 36.0 L151.65 32.45 152.1 30.55 152.4 28.55 155.5 28.55 Q156.1 34.6 160.3 38.85 164.2 42.85 168.9 46.0 L180.4 53.3 182.7 57.7 184.0 57.1 181.9 51.9 172.0 45.65 Q182.1 47.15 189.55 40.2 191.25 38.65 192.4 36.6 M177.25 58.4 L177.6 57.3 Q170.25 52.05 161.15 50.85 152.35 49.6 143.55 51.95 137.45 53.5 131.7 56.2 130.65 56.7 129.7 57.3 L130.2 58.5 Q143.25 52.35 157.5 52.5 167.75 53.25 176.5 58.6 L177.25 58.4 M150.8 41.3 Q149.05 41.1 148.6 42.9 150.65 45.9 154.5 46.05 L160.45 45.4 162.1 44.05 Q162.2 43.2 161.45 42.7 160.75 42.15 160.0 42.25 L159.05 43.35 Q155.2 43.2 151.75 42.15 L150.8 41.3 M38.85 224.9 L38.7 234.25 35.25 235.85 28.3 231.15 27.5 231.2 Q26.35 231.8 27.2 232.65 30.35 235.75 33.85 238.55 L35.3 242.25 28.1 248.65 1.95 229.15 8.45 217.45 35.7 219.4 38.85 224.9 M284.7 231.1 L277.75 236.8 274.25 235.45 273.35 226.1 276.15 220.25 303.05 216.35 310.45 227.6 285.8 249.0 278.2 243.15 279.35 239.35 286.0 233.3 285.25 231.35 284.7 231.1" fill="#ffddb0" fill-rule="evenodd" stroke="none"/>
      <path d="M175.35 10.2 Q182.35 10.2 187.35 15.0 192.3 19.8 192.3 26.55 192.3 33.3 187.35 38.1 182.35 42.9 175.35 42.9 168.35 42.9 163.4 38.1 158.4 33.3 158.4 26.55 158.4 19.8 163.4 15.0 168.35 10.2 175.35 10.2 M167.05 33.9 Q170.7 33.5 171.05 28.95 170.7 24.4 167.05 24.0 163.4 24.4 163.05 28.95 163.4 33.5 167.05 33.9 M139.1 11.95 Q148.05 15.8 149.2 25.4 150.05 32.2 145.45 37.5 139.65 44.2 130.85 43.35 123.35 42.7 118.75 36.5 114.3 30.45 116.45 23.15 118.3 16.8 124.05 13.4 131.15 9.1 139.1 11.95 M146.5 28.95 Q146.15 24.4 142.5 24.0 138.85 24.4 138.5 28.95 138.85 33.5 142.5 33.9 146.15 33.5 146.5 28.95" fill="#ffffef" fill-rule="evenodd" stroke="none"/>
      <path d="M162.0 88.45 L151.0 89.1 141.9 77.75 144.75 71.4 155.9 75.1 167.45 70.7 169.3 77.25 162.0 88.45 M173.8 106.1 L158.25 134.3 139.35 106.7 151.1 92.1 162.2 91.45 173.8 106.1" fill="#b0331a" fill-rule="evenodd" stroke="none"/>
    </g>
    <g id="shape5" transform="matrix(1.0, 0.0, 0.0, 1.0, -0.15, 0.0)">
      <path d="M41.2 3.95 L41.15 4.0 41.3 4.0 44.35 3.65 45.1 3.6 49.85 3.3 50.1 7.7 50.1 10.1 49.75 10.45 47.5 10.8 45.55 11.05 44.6 11.15 36.4 11.95 33.15 17.35 Q38.35 28.65 45.4 38.9 L48.7 43.9 40.45 52.5 40.25 52.7 38.35 54.95 36.45 57.35 35.6 58.4 34.3 60.1 33.5 61.15 32.05 62.9 Q30.6 62.8 29.95 61.3 L29.3 60.4 28.2 58.8 27.65 57.95 26.25 56.0 25.6 55.0 Q21.25 48.5 15.35 43.2 L15.05 42.65 Q23.8 32.45 27.0 19.2 L27.55 17.35 24.35 12.1 15.95 11.2 14.75 11.05 12.8 10.8 11.4 10.55 Q10.85 10.45 10.8 10.0 L10.75 9.2 10.75 7.2 11.0 3.3 16.05 3.65 18.8 3.95 19.5 4.05 19.3 3.75 Q18.95 3.3 19.25 2.85 L19.5 2.5 23.6 2.4 36.5 2.4 41.35 2.85 41.2 3.95 M44.4 6.85 L42.0 9.25 42.85 9.45 Q44.45 9.3 44.6 7.7 L44.4 6.85 M41.3 8.5 L43.65 6.15 Q41.6 5.6 41.25 7.7 41.2 8.1 41.3 8.5 M41.15 9.85 Q40.25 9.15 40.1 7.7 40.25 6.15 41.3 5.45 L40.2 5.55 37.4 10.25 40.5 9.9 41.15 9.85 M43.9 5.2 Q45.4 5.8 45.6 7.7 L45.1 9.3 48.1 8.9 48.65 4.7 43.9 5.2 M41.95 38.2 L43.25 38.85 41.9 36.6 37.6 29.35 29.4 25.7 26.75 24.55 25.0 29.65 28.0 31.2 41.95 38.2 M41.95 42.6 Q41.05 43.25 41.3 44.35 L43.8 42.35 Q42.85 41.85 41.95 42.6 M44.15 45.15 L44.4 44.85 44.65 43.4 42.15 45.4 Q43.1 45.85 44.15 45.15 M39.1 48.25 L41.25 49.2 43.65 46.5 42.95 46.6 Q41.5 46.45 40.65 45.3 L40.2 43.85 40.4 42.95 26.4 36.65 22.6 35.0 19.65 39.65 20.85 40.15 22.1 39.8 23.45 40.4 25.05 42.0 39.1 48.25 M34.8 9.0 L35.5 9.6 38.0 5.3 36.5 4.05 35.25 4.1 29.2 4.25 34.8 9.0 M25.45 6.7 L22.5 4.4 22.0 4.4 Q24.5 8.6 27.15 12.45 28.0 13.7 29.3 14.6 L31.5 16.2 33.45 12.95 25.45 6.7 M20.7 6.0 L19.85 6.0 Q20.7 7.2 20.4 8.55 20.15 9.6 19.2 10.1 L23.4 10.5 20.7 6.0 M29.35 18.0 L28.25 20.0 29.85 20.75 34.35 22.7 32.2 18.0 29.35 18.0 M19.5 7.75 Q19.35 6.15 17.75 6.0 L16.95 6.25 19.3 8.6 19.5 7.75 M16.0 7.75 Q16.15 9.35 17.75 9.5 L18.6 9.3 16.25 6.95 Q16.05 7.25 16.0 7.75 M12.25 9.2 L15.8 9.7 Q14.6 8.25 15.3 6.7 L15.75 5.9 12.7 5.45 12.25 9.2 M23.25 41.2 L22.1 40.8 21.3 41.05 23.8 43.05 Q24.05 42.3 23.25 41.2 M20.35 42.55 Q20.5 44.15 22.1 44.3 L22.95 44.1 20.6 41.75 20.35 42.55 M25.05 47.75 L21.05 46.6 25.7 52.6 27.0 54.4 32.65 56.5 34.75 57.05 37.9 53.1 36.05 52.1 25.05 47.75" fill="#c1330c" fill-rule="evenodd" stroke="none"/>
      <path d="M41.3 4.0 L41.2 3.95 41.35 2.85 36.5 2.4 30.15 1.6 23.6 2.4 19.5 2.5 19.25 2.85 Q18.95 3.3 19.3 3.75 L18.8 3.95 16.05 3.65 Q20.25 1.5 25.0 0.6 L26.25 0.4 30.15 0.1 Q38.05 0.3 44.35 3.65 L41.3 4.0 M10.75 7.2 L10.75 9.2 9.9 10.0 Q1.8 18.1 1.5 30.25 1.8 42.4 9.9 50.5 17.35 57.95 28.2 58.8 L29.3 60.4 Q17.05 59.8 8.85 51.55 4.25 46.95 2.05 41.15 -2.2 29.0 3.1 17.3 5.8 11.45 10.75 7.2 M12.8 10.8 L14.75 11.05 Q8.85 15.8 6.5 23.15 3.4 33.0 8.5 42.1 13.6 51.25 23.55 53.95 L25.6 55.0 26.25 56.0 Q18.9 54.95 13.3 50.15 5.4 43.3 4.45 32.95 3.25 19.85 12.8 10.8 M34.3 60.1 L35.6 58.4 Q43.05 57.15 48.8 52.25 57.85 44.45 58.45 32.4 59.05 19.5 50.1 10.1 L50.1 7.7 51.45 8.95 Q60.0 17.45 60.3 30.25 60.0 43.05 51.45 51.55 44.35 58.7 34.3 60.1 M38.35 54.95 L40.25 52.7 Q51.55 47.35 54.05 35.2 56.15 25.1 50.65 16.55 48.6 13.3 45.55 11.05 L47.5 10.8 Q50.95 13.85 53.05 17.95 58.75 29.0 54.0 40.3 49.45 51.2 38.35 54.95" fill="#cc3e13" fill-rule="evenodd" stroke="none"/>
      <path d="M41.3 4.0 L41.15 4.0 41.2 3.95 41.3 4.0 M36.5 2.4 L23.6 2.4 30.15 1.6 36.5 2.4 M19.3 3.75 L19.5 4.05 18.8 3.95 19.3 3.75 M10.75 9.2 L10.8 10.0 Q1.1 19.6 2.4 33.1 3.35 42.95 10.25 49.95 17.5 57.2 27.65 57.95 L28.2 58.8 Q17.35 57.95 9.9 50.5 1.8 42.4 1.5 30.25 1.8 18.1 9.9 10.0 L10.75 9.2 M35.6 58.4 L36.45 57.35 Q44.1 55.55 49.75 49.9 57.65 42.0 57.95 30.15 57.65 18.3 49.75 10.45 L50.1 10.1 Q59.05 19.5 58.45 32.4 57.85 44.45 48.8 52.25 43.05 57.15 35.6 58.4" fill="#ffad78" fill-rule="evenodd" stroke="none"/>
      <path d="M45.1 3.6 L44.35 3.65 Q38.05 0.3 30.15 0.1 L26.25 0.4 30.75 0.0 Q38.75 0.2 45.1 3.6" fill="#ef6130" fill-rule="evenodd" stroke="none"/>
      <path d="M41.3 8.5 Q41.2 8.1 41.25 7.7 41.6 5.6 43.65 6.15 L41.3 8.5 M44.4 6.85 L44.6 7.7 Q44.45 9.3 42.85 9.45 L42.0 9.25 44.4 6.85 M44.15 45.15 Q43.1 45.85 42.15 45.4 L44.65 43.4 44.4 44.85 44.15 45.15 M41.95 42.6 Q42.85 41.85 43.8 42.35 L41.3 44.35 Q41.05 43.25 41.95 42.6 M16.0 7.75 Q16.05 7.25 16.25 6.95 L18.6 9.3 17.75 9.5 Q16.15 9.35 16.0 7.75 M19.5 7.75 L19.3 8.6 16.95 6.25 17.75 6.0 Q19.35 6.15 19.5 7.75 M20.35 42.55 L20.6 41.75 22.95 44.1 22.1 44.3 Q20.5 44.15 20.35 42.55 M23.25 41.2 Q24.05 42.3 23.8 43.05 L21.3 41.05 22.1 40.8 23.25 41.2" fill="#ffe4bb" fill-rule="evenodd" stroke="none"/>
      <path d="M15.95 11.2 L24.35 12.1 27.55 17.35 27.0 19.2 Q23.8 32.45 15.05 42.65 L15.35 43.2 Q21.25 48.5 25.6 55.0 L23.55 53.95 22.3 52.95 Q17.25 51.25 13.4 47.45 6.8 40.95 6.55 30.8 6.8 20.6 13.4 13.55 14.6 12.25 15.95 11.2 M40.45 52.5 L48.7 43.9 45.4 38.9 Q38.35 28.65 33.15 17.35 L36.4 11.95 44.6 11.15 Q51.75 16.65 53.55 25.4 55.55 35.3 50.0 43.55 47.2 47.8 42.95 50.65 L40.45 52.5 M46.05 37.8 L48.6 41.5 Q50.4 39.45 51.3 36.9 52.6 33.25 52.4 29.4 51.85 18.25 43.0 11.75 L41.65 12.05 Q38.8 11.65 36.35 13.2 33.8 16.5 35.55 20.15 40.0 29.5 46.05 37.8 M14.45 42.25 Q18.5 37.2 21.35 31.55 L23.75 25.95 Q25.15 22.1 25.9 17.95 26.3 15.65 24.6 14.0 22.2 12.4 19.25 12.3 15.05 14.65 12.0 18.35 10.25 20.5 9.3 23.5 6.2 33.5 11.7 42.45 14.8 47.45 19.85 49.4 L18.65 48.0 Q17.45 46.65 15.95 45.75 13.95 44.4 14.45 42.25" fill="#ffb281" fill-rule="evenodd" stroke="none"/>
      <path d="M41.15 9.85 L40.5 9.9 37.4 10.25 40.2 5.55 41.3 5.45 Q40.25 6.15 40.1 7.7 40.25 9.15 41.15 9.85 M43.9 5.2 L48.65 4.7 48.1 8.9 45.1 9.3 45.6 7.7 Q45.4 5.8 43.9 5.2 M20.7 6.0 L23.4 10.5 19.2 10.1 Q20.15 9.6 20.4 8.55 20.7 7.2 19.85 6.0 L20.7 6.0 M12.25 9.2 L12.7 5.45 15.75 5.9 15.3 6.7 Q14.6 8.25 15.8 9.7 L12.25 9.2" fill="#ffbc81" fill-rule="evenodd" stroke="none"/>
      <path d="M14.75 11.05 L15.95 11.2 Q14.6 12.25 13.4 13.55 6.8 20.6 6.55 30.8 6.8 40.95 13.4 47.45 17.25 51.25 22.3 52.95 L23.55 53.95 Q13.6 51.25 8.5 42.1 3.4 33.0 6.5 23.15 8.85 15.8 14.75 11.05 M40.25 52.7 L40.45 52.5 42.95 50.65 Q47.2 47.8 50.0 43.55 55.55 35.3 53.55 25.4 51.75 16.65 44.6 11.15 L45.55 11.05 Q48.6 13.3 50.65 16.55 56.15 25.1 54.05 35.2 51.55 47.35 40.25 52.7" fill="#ff9364" fill-rule="evenodd" stroke="none"/>
      <path d="M10.8 10.0 Q10.85 10.45 11.4 10.55 L12.8 10.8 Q3.25 19.85 4.45 32.95 5.4 43.3 13.3 50.15 18.9 54.95 26.25 56.0 L27.65 57.95 Q17.5 57.2 10.25 49.95 3.35 42.95 2.4 33.1 1.1 19.6 10.8 10.0 M36.45 57.35 L38.35 54.95 Q49.45 51.2 54.0 40.3 58.75 29.0 53.05 17.95 50.95 13.85 47.5 10.8 L49.75 10.45 Q57.65 18.3 57.95 30.15 57.65 42.0 49.75 49.9 44.1 55.55 36.45 57.35" fill="#fffdca" fill-rule="evenodd" stroke="none"/>
      <path d="M36.35 13.2 Q38.8 11.65 41.65 12.05 L43.0 11.75 Q51.85 18.25 52.4 29.4 52.6 33.25 51.3 36.9 50.4 39.45 48.6 41.5 L46.05 37.8 Q50.35 29.45 46.7 20.6 43.8 13.75 36.35 13.2 M24.6 14.0 Q16.75 16.25 12.2 23.4 8.65 29.55 11.25 36.2 12.4 39.5 14.45 42.25 13.95 44.4 15.95 45.75 17.45 46.65 18.65 48.0 L19.85 49.4 Q14.8 47.45 11.7 42.45 6.2 33.5 9.3 23.5 10.25 20.5 12.0 18.35 15.05 14.65 19.25 12.3 22.2 12.4 24.6 14.0" fill="#ffcd96" fill-rule="evenodd" stroke="none"/>
      <path d="M46.05 37.8 Q40.0 29.5 35.55 20.15 33.8 16.5 36.35 13.2 43.8 13.75 46.7 20.6 50.35 29.45 46.05 37.8 M24.6 14.0 Q26.3 15.65 25.9 17.95 25.15 22.1 23.75 25.95 L21.35 31.55 Q18.5 37.2 14.45 42.25 12.4 39.5 11.25 36.2 8.65 29.55 12.2 23.4 16.75 16.25 24.6 14.0" fill="#ffe5ba" fill-rule="evenodd" stroke="none"/>
      <path d="M41.9 36.6 L43.25 38.85 41.95 38.2 41.9 36.6 M28.0 31.2 L25.0 29.65 26.75 24.55 29.4 25.7 28.0 31.2 M40.65 45.3 Q41.5 46.45 42.95 46.6 L43.65 46.5 41.25 49.2 39.1 48.25 40.65 45.3 M25.05 42.0 L23.45 40.4 22.1 39.8 20.85 40.15 19.65 39.65 22.6 35.0 26.4 36.65 25.05 42.0 M35.25 4.1 L36.5 4.05 38.0 5.3 35.5 9.6 34.8 9.0 35.25 4.1 M29.3 14.6 Q28.0 13.7 27.15 12.45 24.5 8.6 22.0 4.4 L22.5 4.4 25.45 6.7 26.55 8.3 Q28.7 11.05 29.3 14.6 M29.85 20.75 L28.25 20.0 29.35 18.0 29.85 20.75 M25.7 52.6 L21.05 46.6 25.05 47.75 25.7 52.6 M36.05 52.1 L37.9 53.1 34.75 57.05 32.65 56.5 36.05 52.1" fill="#ffb681" fill-rule="evenodd" stroke="none"/>
      <path d="M41.9 36.6 L41.95 38.2 28.0 31.2 29.4 25.7 37.6 29.35 41.9 36.6 M40.65 45.3 L39.1 48.25 25.05 42.0 26.4 36.65 40.4 42.95 40.2 43.85 40.65 45.3 M35.25 4.1 L34.8 9.0 29.2 4.25 35.25 4.1 M29.3 14.6 Q28.7 11.05 26.55 8.3 L25.45 6.7 33.45 12.95 31.5 16.2 29.3 14.6 M29.85 20.75 L29.35 18.0 32.2 18.0 34.35 22.7 29.85 20.75 M25.7 52.6 L25.05 47.75 36.05 52.1 32.65 56.5 27.0 54.4 25.7 52.6" fill="#ffcf98" fill-rule="evenodd" stroke="none"/>
    </g>
    <g id="sprite2" transform="matrix(1.0, 0.0, 0.0, 1.0, 0.0, 0.0)">
      <use height="229.7" transform="matrix(1.0, 0.0, 0.0, 1.0, 0.0, 0.0)" width="207.7" xlink:href="#shape6"/>
    </g>
    <g id="shape6" transform="matrix(1.0, 0.0, 0.0, 1.0, 0.0, 0.0)">
      <path d="M158.9 84.55 L151.35 88.7 138.1 80.35 128.65 85.25 121.75 81.15 118.3 92.85 130.7 94.2 141.6 101.95 156.15 97.65 173.35 100.4 156.15 101.1 141.0 103.85 129.3 98.35 116.25 97.65 108.7 96.25 102.5 114.85 102.5 91.45 114.9 90.75 114.9 74.95 121.05 70.15 122.45 51.55 139.65 35.75 125.9 52.95 124.5 63.95 136.0 64.3 141.0 55.0 148.55 53.65 141.7 59.15 136.9 66.0 127.25 68.05 124.5 73.55 121.75 76.3 130.45 83.15 137.55 78.4 150.65 84.55 158.9 84.55" fill="#ffffff" fill-rule="evenodd" stroke="none"/>
      <path d="M83.25 69.5 L80.5 53.0 66.05 45.4 60.55 30.3 54.35 24.1 61.9 26.15 68.4 42.75 83.9 50.9 86.0 66.05 97.65 76.35 88.05 88.05 96.95 103.2 92.85 104.55 81.85 88.05 92.85 75.65 83.25 69.5" fill="#ffffff" fill-rule="evenodd" stroke="none"/>
      <path d="M84.1 119.75 L80.75 121.95 66.7 107.3 50.2 117.6 39.9 110.05 28.2 115.55 12.4 94.95 30.95 112.15 39.2 103.2 48.8 113.5 67.4 100.45 84.1 119.75" fill="#ffffff" fill-rule="evenodd" stroke="none"/>
      <path d="M54.35 114.85 L58.45 110.05 57.75 118.3 50.9 135.5 38.4 132.65 30.95 143.75 17.9 144.45 0.0 141.7 26.15 141.7 38.5 130.7 48.85 130.7 54.35 114.85" fill="#ffffff" fill-rule="evenodd" stroke="none"/>
      <path d="M85.25 138.9 L83.9 143.7 70.15 154.7 70.15 176.05 54.35 177.4 47.45 200.1 16.5 213.15 43.3 198.05 50.9 173.3 67.4 171.9 66.7 152.65 85.25 138.9" fill="#ffffff" fill-rule="evenodd" stroke="none"/>
      <path d="M107.3 156.15 L114.2 152.0 131.35 167.8 124.5 185.7 137.55 191.9 136.0 214.9 156.15 229.7 133.45 218.0 131.35 196.7 118.3 185.0 125.2 171.25 107.3 156.15" fill="#ffffff" fill-rule="evenodd" stroke="none"/>
      <path d="M175.0 119.4 L160.95 133.4 152.0 119.4 123.8 132.7 121.75 127.2 152.7 114.8 162.35 127.9 174.7 116.9 185.7 122.35 200.85 112.75 188.45 126.5 175.0 119.4" fill="#ffffff" fill-rule="evenodd" stroke="none"/>
      <path d="M158.2 126.45 L152.7 144.4 165.75 153.35 165.75 169.85 181.55 169.85 162.3 173.95 163.15 154.9 145.8 142.35 154.75 121.65 158.2 126.45" fill="#ffffff" fill-rule="evenodd" stroke="none"/>
      <path d="M130.7 191.85 L135.5 195.3 120.35 198.7 116.9 218.65 101.1 226.9 112.8 215.9 114.85 198.05 130.7 191.85" fill="#ffffff" fill-rule="evenodd" stroke="none"/>
      <path d="M68.1 174.7 L77.05 182.95 74.3 195.35 93.55 218.0 69.45 194.65 74.3 182.95 62.6 175.4 68.1 174.7" fill="#ffffff" fill-rule="evenodd" stroke="none"/>
      <path d="M68.1 159.55 L69.5 164.35 57.1 156.1 41.3 167.1 22.4 161.9 6.9 175.35 22.05 158.85 44.05 162.95 57.1 153.35 68.1 159.55" fill="#ffffff" fill-rule="evenodd" stroke="none"/>
      <path d="M169.15 171.25 L167.1 182.95 180.2 189.8 178.85 208.4 191.2 221.45 174.7 209.75 178.15 192.6 163.7 182.25 167.85 171.25 169.15 171.25" fill="#ffffff" fill-rule="evenodd" stroke="none"/>
      <path d="M180.2 189.8 L178.15 190.45 174.7 189.1 188.45 184.3 202.9 177.4 191.2 187.7 180.2 189.8" fill="#ffffff" fill-rule="evenodd" stroke="none"/>
      <path d="M121.05 165.05 L123.8 166.45 110.75 174.7 112.8 187.05 92.85 199.45 106.6 187.05 105.9 171.95 121.05 165.05" fill="#ffffff" fill-rule="evenodd" stroke="none"/>
      <path d="M127.25 175.35 L141.0 172.6 145.1 182.9 163.7 182.25 143.75 186.35 139.6 176.75 123.8 177.4 127.25 175.35" fill="#ffffff" fill-rule="evenodd" stroke="none"/>
      <path d="M164.55 127.75 L169.15 143.75 183.6 145.8 187.05 154.7 207.7 154.7 185.0 158.85 181.25 147.25 165.75 144.4 162.45 130.55 164.55 127.75" fill="#ffffff" fill-rule="evenodd" stroke="none"/>
      <path d="M41.3 110.05 L46.85 99.7 37.9 89.4 49.55 96.95 45.4 110.7 41.3 110.05" fill="#ffffff" fill-rule="evenodd" stroke="none"/>
      <path d="M69.5 172.6 L83.25 169.2 83.9 158.2 87.35 156.8 87.35 171.25 68.1 174.7 69.5 172.6" fill="#ffffff" fill-rule="evenodd" stroke="none"/>
      <path d="M104.55 39.9 L85.3 61.2 84.6 55.0 101.15 38.55 99.75 0.0 104.55 39.9" fill="#ffffff" fill-rule="evenodd" stroke="none"/>
      <path d="M132.0 108.0 Q136.9 118.65 146.3 119.2 155.7 119.75 160.75 118.4 L148.35 127.45 Q141.9 131.85 138.7 139.1 136.4 145.7 139.75 149.95 143.05 154.15 148.15 158.0 144.2 155.15 137.35 155.85 130.45 156.55 126.5 159.55 122.35 163.3 122.4 168.05 L122.4 177.9 Q112.4 168.7 103.2 172.35 94.05 176.0 92.1 188.95 89.8 176.45 82.2 170.2 74.6 164.0 62.6 171.7 63.6 167.75 66.1 162.05 68.6 156.35 66.65 152.7 62.8 148.75 53.7 148.7 L39.3 149.25 Q46.55 148.2 53.25 142.7 59.9 137.25 60.45 130.0 60.0 123.5 54.25 119.35 48.5 115.2 43.1 112.35 L56.25 111.75 Q64.9 111.1 69.4 105.25 72.85 97.65 71.0 87.95 69.2 78.25 68.65 77.35 L77.95 87.9 Q83.2 94.0 89.35 93.55 97.2 91.5 98.75 83.3 100.3 75.1 101.05 67.6 102.15 73.8 105.3 82.3 108.4 90.8 114.1 92.85 120.7 94.0 129.05 91.2 137.35 88.45 141.65 84.6 141.0 88.15 136.15 95.8 131.35 103.4 132.0 108.0" fill="#fff200" fill-rule="evenodd" stroke="none"/>
    </g>
  </defs>
</svg>
