<?xml version="1.0" encoding="UTF-8" standalone="no"?>
<svg xmlns:xlink="http://www.w3.org/1999/xlink" height="48.1px" width="47.05px" xmlns="http://www.w3.org/2000/svg">
  <g transform="matrix(1.0, 0.0, 0.0, 1.0, 0.0, 0.0)">
    <path d="M41.25 5.85 L41.35 5.8 41.3 5.85 41.25 5.85 M39.2 4.75 L39.9 5.3 38.95 4.85 38.85 4.75 39.2 4.75 M39.4 5.2 L39.5 5.25 39.45 5.25 39.4 5.2 M39.15 5.25 L38.15 4.95 37.6 4.8 37.6 4.75 38.1 4.8 38.15 4.95 38.2 4.8 38.75 4.75 39.15 5.25 M26.65 0.95 Q28.5 1.45 30.45 2.3 28.4 1.45 26.4 1.1 26.35 0.95 26.65 0.95 M26.15 1.05 L25.35 1.05 24.9 0.7 25.4 0.75 25.55 0.85 25.55 0.75 26.3 0.85 Q25.9 0.85 26.15 1.05 M25.2 1.05 L24.85 1.0 24.3 0.65 24.6 0.7 25.2 1.05" fill="#a3d9a9" fill-rule="evenodd" stroke="none"/>
    <path d="M41.35 5.8 L41.25 5.85 35.95 5.05 32.6 3.35 32.65 3.25 37.35 4.7 36.75 4.8 37.6 4.8 38.15 4.95 39.15 5.25 39.1 5.35 Q38.8 5.55 39.45 5.25 L39.5 5.25 39.4 5.2 38.95 4.85 39.9 5.3 39.2 4.75 41.35 5.8 M26.6 0.4 Q28.7 0.95 31.7 2.7 L31.6 2.85 30.45 2.3 Q28.5 1.45 26.65 0.95 L26.9 0.9 26.3 0.85 25.55 0.75 25.65 0.65 25.4 0.75 24.9 0.7 25.35 1.05 25.95 1.4 25.2 1.05 24.6 0.7 24.3 0.65 24.85 1.0 26.35 1.8 23.95 0.65 Q23.3 0.15 24.25 0.1 L24.2 0.1 26.6 0.4 M23.4 0.3 L23.05 0.1 23.35 0.1 23.4 0.3 M24.6 0.7 Q25.55 0.1 24.4 0.55 L24.6 0.7" fill="#61bc7a" fill-rule="evenodd" stroke="none"/>
    <path d="M41.35 5.8 L39.2 4.75 38.85 4.75 38.4 4.6 38.75 4.75 38.2 4.8 37.55 4.4 38.1 4.8 37.6 4.75 Q37.5 4.55 36.8 4.2 L37.35 4.7 32.65 3.25 32.6 2.7 31.85 2.55 31.7 2.7 Q28.7 0.95 26.6 0.4 34.0 1.55 40.7 4.95 42.05 5.65 41.3 5.85 L41.35 5.8 M32.6 3.35 L35.95 5.05 32.05 4.25 32.6 3.35 M30.45 2.3 L31.6 2.85 Q31.6 3.15 31.9 3.3 L31.65 4.1 Q27.2 2.95 23.3 0.8 22.35 0.3 23.05 0.1 L23.4 0.3 23.95 0.65 26.35 1.8 24.85 1.0 25.2 1.05 25.95 1.4 25.35 1.05 26.15 1.05 26.95 1.6 26.4 1.1 Q28.4 1.45 30.45 2.3" fill="#bce4ae" fill-rule="evenodd" stroke="none"/>
    <path d="M42.8 30.55 L42.45 30.8 43.15 29.9 42.8 30.55 M41.8 31.4 L40.3 32.75 31.45 30.25 33.1 27.25 29.0 32.4 27.05 34.85 24.35 38.3 21.05 34.85 15.1 36.15 14.45 21.8 14.1 24.65 6.8 22.05 6.5 20.1 17.85 20.85 17.1 21.75 Q19.25 25.85 21.2 28.0 19.35 25.85 17.5 21.75 L18.7 20.35 16.95 19.25 17.7 19.7 20.85 18.4 22.25 28.8 21.2 28.9 20.1 30.3 Q19.85 32.0 21.5 33.05 L23.3 32.35 23.65 32.05 Q24.95 30.85 23.75 29.45 L23.65 29.4 23.65 29.35 23.1 28.85 30.8 22.15 31.55 22.15 31.5 25.25 32.7 25.95 33.1 26.85 Q36.9 28.45 41.8 31.4 M19.75 44.4 L18.25 42.85 20.85 36.15 22.55 37.15 23.55 39.6 19.75 44.4 M19.7 37.5 L17.8 42.8 16.3 42.9 Q15.5 42.55 14.85 40.65 L15.0 37.55 Q16.3 36.15 17.5 36.05 18.7 35.85 19.7 37.5 M31.3 26.0 L31.05 26.85 24.35 29.0 31.45 27.15 31.3 26.0" fill="#742e38" fill-rule="evenodd" stroke="none"/>
    <path d="M41.0 32.6 L42.4 31.1 44.5 33.35 45.05 33.85 46.9 35.2 46.0 35.6 43.25 33.6 44.1 34.45 42.6 33.25 43.85 34.4 43.85 35.0 41.0 32.6 M33.85 10.6 L34.05 10.8 34.05 10.65 34.0 10.55 33.45 8.65 31.15 8.95 30.9 9.65 29.05 9.0 29.3 8.35 30.15 7.95 29.3 7.95 28.75 8.5 28.55 7.5 27.2 6.65 26.25 7.5 25.45 8.15 28.2 8.2 24.85 9.9 25.0 10.15 22.75 9.7 26.5 5.2 34.7 8.3 35.0 13.1 33.15 13.0 33.0 12.85 31.4 10.05 33.85 10.6 M29.7 21.35 L25.65 21.4 25.25 21.2 21.15 18.75 21.05 18.6 Q20.9 18.1 21.25 16.0 L21.7 16.85 Q25.75 22.15 32.1 20.0 L31.45 21.25 29.7 21.35 M3.0 21.3 L4.4 21.1 3.35 21.1 3.95 21.0 0.5 20.85 0.25 20.85 0.25 20.75 0.05 20.25 2.65 20.2 3.5 20.05 6.05 19.5 Q6.0 20.65 6.35 21.55 L3.7 22.0 2.65 22.0 3.0 21.3" fill="#dec4c2" fill-rule="evenodd" stroke="none"/>
    <path d="M41.0 33.95 L40.4 32.95 41.0 32.6 43.85 35.0 43.55 35.05 41.0 33.95 M44.1 34.45 L43.25 33.6 46.0 35.6 46.9 35.2 46.0 36.0 44.1 34.45 M31.4 10.05 L31.8 9.3 33.85 10.6 31.4 10.05 M34.05 10.65 L33.1 9.5 31.85 9.2 33.35 9.2 34.0 10.55 34.05 10.65 M31.15 8.95 Q31.65 10.2 30.0 10.25 L28.85 9.2 29.3 8.35 29.05 9.0 30.9 9.65 31.15 8.95 M26.25 7.5 Q27.2 6.9 28.1 7.5 28.85 8.2 28.0 7.9 L27.65 7.75 25.45 8.15 26.25 7.5 M22.75 9.7 L21.6 9.8 26.5 5.2 22.75 9.7 M34.7 8.3 L36.0 14.0 35.0 13.1 34.7 8.3 M31.55 21.1 L31.45 21.25 32.1 20.0 32.6 19.6 31.55 21.1 M25.65 21.4 L25.6 21.4 25.25 21.2 25.65 21.4 M21.25 16.0 Q20.9 18.1 21.05 18.6 20.85 18.05 21.1 15.15 L21.25 16.0 M3.35 21.1 L3.0 21.3 2.45 21.6 0.5 20.85 3.95 21.0 3.35 21.1 M3.7 22.0 L6.35 21.55 6.55 22.1 3.7 22.0 M0.05 20.25 L0.25 20.75 0.05 20.7 0.0 20.25 0.05 20.25 M0.0 20.2 L0.0 20.15 0.05 20.2 0.0 20.2" fill="#c59799" fill-rule="evenodd" stroke="none"/>
    <path d="M42.45 30.8 L42.8 30.55 42.45 31.05 44.5 33.35 42.4 31.1 41.0 32.6 40.4 32.95 41.0 33.95 40.2 33.05 31.3 30.55 30.55 31.75 29.0 32.4 33.1 27.25 31.45 30.25 40.3 32.75 41.8 31.4 42.45 30.8 M45.05 33.85 L47.05 35.15 45.75 36.25 43.55 35.05 43.85 35.0 43.85 34.4 42.6 33.25 44.1 34.45 46.0 36.0 46.9 35.2 45.05 33.85 M20.85 18.4 L20.8 18.15 21.05 18.6 21.15 18.75 21.45 21.9 25.6 21.4 25.65 21.4 29.7 21.35 26.35 21.55 28.25 24.05 31.45 21.25 31.55 21.1 31.8 21.1 30.8 22.15 23.1 28.85 22.85 28.85 22.5 28.85 22.25 28.8 20.85 18.4 M20.75 16.25 L16.95 19.25 18.7 20.35 17.5 21.75 Q19.35 25.85 21.2 28.0 19.25 25.85 17.1 21.75 L17.85 20.85 18.25 20.35 16.45 19.2 Q17.05 18.4 18.3 17.65 19.3 16.95 20.75 16.25 M24.0 21.8 L21.5 22.15 22.1 26.15 24.55 23.15 24.0 21.8 M25.75 23.5 L25.45 26.7 28.15 24.15 26.9 22.75 25.75 23.5 M3.35 21.1 L4.4 21.1 3.0 21.3 3.35 21.1 M3.0 21.3 L2.65 22.0 3.7 22.0 6.55 22.1 6.35 21.55 Q6.0 20.65 6.05 19.5 L3.5 20.05 6.05 19.45 6.15 18.1 6.5 20.1 6.8 22.05 14.1 24.65 14.45 21.8 15.1 36.15 21.05 34.85 24.35 38.3 27.05 34.85 Q23.0 41.3 19.75 48.1 L18.65 48.1 17.2 45.4 16.45 46.8 14.4 46.65 Q15.4 35.75 14.05 25.0 L6.7 22.4 Q5.65 23.2 4.3 23.0 3.2 22.8 2.4 21.9 L0.15 21.7 0.05 20.7 0.25 20.75 0.25 20.85 0.5 20.85 2.45 21.6 3.0 21.3 M2.65 20.2 L0.05 20.25 0.0 20.25 0.0 20.2 0.05 20.2 2.65 20.2 M19.7 37.5 Q18.7 35.85 17.5 36.05 16.3 36.15 15.0 37.55 L14.85 40.65 Q15.5 42.55 16.3 42.9 L17.8 42.8 19.7 37.5 M19.75 44.4 L23.55 39.6 22.55 37.15 20.85 36.15 18.25 42.85 19.75 44.4 M32.7 25.95 L31.5 25.25 33.35 25.65 34.05 23.9 33.55 26.15 32.7 25.95 M31.3 26.0 L31.45 27.15 24.35 29.0 31.05 26.85 31.3 26.0" fill="#4f0d1b" fill-rule="evenodd" stroke="none"/>
    <path d="M43.15 29.9 L42.45 30.8 41.8 31.4 Q36.9 28.45 33.1 26.85 L32.7 25.95 33.55 26.15 34.05 23.9 33.35 25.65 31.5 25.25 31.55 22.15 30.8 22.15 31.8 21.1 32.9 19.65 33.7 22.6 Q38.75 27.2 43.15 29.9 M20.8 18.15 L20.85 18.4 17.7 19.7 16.95 19.25 20.75 16.25 20.8 18.15 M6.5 20.1 L6.15 18.1 18.3 17.65 Q17.05 18.4 16.45 19.2 L18.25 20.35 17.85 20.85 6.5 20.1" fill="#8f5255" fill-rule="evenodd" stroke="none"/>
    <path d="M38.95 4.85 L39.4 5.2 39.45 5.25 Q38.8 5.55 39.1 5.35 L39.15 5.25 38.75 4.75 38.4 4.6 38.85 4.75 38.95 4.85 M37.6 4.8 L36.75 4.8 37.35 4.7 36.8 4.2 Q37.5 4.55 37.6 4.75 L37.6 4.8 M38.1 4.8 L37.55 4.4 38.2 4.8 38.15 4.95 38.1 4.8 M36.55 14.65 L33.95 18.2 Q32.45 19.8 30.2 20.1 30.2 19.7 30.35 19.35 L29.85 20.15 26.95 19.85 27.75 17.2 31.35 17.5 30.95 18.25 32.7 17.05 31.8 17.2 33.9 13.25 36.55 14.65 M26.3 0.85 L26.9 0.9 26.65 0.95 Q26.35 0.95 26.4 1.1 L26.95 1.6 26.15 1.05 Q25.9 0.85 26.3 0.85 M23.95 0.65 L23.4 0.3 23.35 0.1 Q23.4 -0.05 24.2 0.1 L24.25 0.1 Q23.3 0.15 23.95 0.65 M25.55 0.75 L25.55 0.85 25.4 0.75 25.65 0.65 25.55 0.75 M24.6 0.7 L24.4 0.55 Q25.55 0.1 24.6 0.7 M21.05 9.8 L24.95 10.75 24.15 15.5 21.2 14.1 24.1 15.75 23.75 18.45 24.35 15.9 27.45 17.1 26.95 19.85 Q24.85 19.6 22.2 17.35 20.85 16.25 20.95 12.1 L21.05 9.8 M25.05 10.8 L28.5 13.55 27.55 16.85 24.4 15.6 25.05 10.8 M28.55 13.6 L33.55 13.3 31.5 17.2 27.8 16.95 28.55 13.6" fill="#ffffff" fill-rule="evenodd" stroke="none"/>
    <path d="M32.65 3.25 L32.6 3.35 32.05 4.25 31.4 6.35 31.25 6.3 31.9 3.3 Q31.6 3.15 31.6 2.85 L31.7 2.7 31.85 2.55 31.85 2.7 Q32.35 3.65 32.6 2.7 L32.65 3.25" fill="#01563e" fill-rule="evenodd" stroke="none"/>
    <path d="M31.85 2.55 L32.6 2.7 Q32.35 3.65 31.85 2.7 L31.85 2.55 M31.65 4.1 L31.9 3.3 31.25 6.3 31.0 6.2 31.65 4.1" fill="#2fa466" fill-rule="evenodd" stroke="none"/>
    <path d="M31.0 6.2 L31.25 6.3 31.4 6.35 Q32.65 6.8 34.7 7.95 L36.55 14.65 33.9 13.25 33.55 13.3 28.55 13.6 28.5 13.55 25.05 10.8 24.95 10.75 21.05 9.8 26.55 4.9 31.0 6.2 M33.85 10.6 L31.8 9.3 31.4 10.05 33.0 12.85 31.05 10.4 30.0 10.55 28.4 9.3 24.85 9.9 28.2 8.2 25.45 8.15 27.65 7.75 28.0 7.9 Q28.85 8.2 28.1 7.5 27.2 6.9 26.25 7.5 L27.2 6.65 28.55 7.5 28.75 8.5 29.3 7.95 30.15 7.95 29.3 8.35 28.85 9.2 30.0 10.25 Q31.65 10.2 31.15 8.95 L33.45 8.65 34.0 10.55 33.35 9.2 31.85 9.2 33.1 9.5 34.05 10.65 34.05 10.8 33.85 10.6 M33.95 18.2 L32.9 19.65 31.8 21.1 31.55 21.1 32.6 19.6 32.1 20.0 Q25.75 22.15 21.7 16.85 L21.25 16.0 21.1 15.15 Q20.85 18.05 21.05 18.6 L20.8 18.15 20.75 16.25 20.95 12.1 Q20.85 16.25 22.2 17.35 24.85 19.6 26.95 19.85 L29.85 20.15 30.2 20.1 Q32.45 19.8 33.95 18.2 M26.5 5.2 L21.6 9.8 22.75 9.7 25.0 10.15 28.9 12.95 33.15 13.0 35.0 13.1 36.0 14.0 34.7 8.3 26.5 5.2" fill="#371536" fill-rule="evenodd" stroke="none"/>
    <path d="M24.85 9.9 L28.4 9.3 30.0 10.55 31.05 10.4 33.0 12.85 33.15 13.0 28.9 12.95 25.0 10.15 24.85 9.9" fill="#c29394" fill-rule="evenodd" stroke="none"/>
    <path d="M26.95 19.85 L27.45 17.1 24.35 15.9 23.75 18.45 24.1 15.75 21.2 14.1 24.15 15.5 24.95 10.75 25.05 10.8 24.4 15.6 27.55 16.85 28.5 13.55 28.55 13.6 27.8 16.95 31.5 17.2 33.55 13.3 33.9 13.25 31.8 17.2 32.7 17.05 30.95 18.25 31.35 17.5 27.75 17.2 26.95 19.85 M29.85 20.15 L30.35 19.35 Q30.2 19.7 30.2 20.1 L29.85 20.15" fill="#616066" fill-rule="evenodd" stroke="none"/>
    <path d="M31.45 21.25 L28.25 24.05 26.35 21.55 29.7 21.35 31.45 21.25 M25.6 21.4 L21.45 21.9 21.15 18.75 25.25 21.2 25.6 21.4 M24.0 21.8 L24.55 23.15 22.1 26.15 21.5 22.15 24.0 21.8 M25.75 23.5 L26.9 22.75 28.15 24.15 25.45 26.7 25.75 23.5" fill="#c16381" fill-rule="evenodd" stroke="none"/>
    <path d="M22.25 28.8 L22.5 28.85 21.2 28.9 22.25 28.8 M22.85 28.85 L23.1 28.85 23.65 29.35 22.85 28.85 M23.7 30.2 L23.75 29.45 Q24.95 30.85 23.65 32.05 L23.7 31.4 23.7 30.2 M23.3 32.35 L21.5 33.05 Q19.85 32.0 20.1 30.3 20.1 31.1 20.9 31.65 L21.45 31.85 22.1 32.1 22.65 32.3 23.3 32.35" fill="#456331" fill-rule="evenodd" stroke="none"/>
    <path d="M22.5 28.85 L22.85 28.85 23.65 29.35 23.65 29.4 23.75 29.45 23.7 30.2 23.55 30.05 22.25 29.2 20.9 30.9 20.9 31.65 Q20.1 31.1 20.1 30.3 L21.2 28.9 22.5 28.85 M23.65 32.05 L23.3 32.35 22.65 32.3 23.7 31.4 23.65 32.05" fill="#4c9d4b" fill-rule="evenodd" stroke="none"/>
    <path d="M23.55 30.05 L23.7 30.2 23.7 31.4 22.65 32.3 22.1 32.1 22.25 32.1 Q23.95 31.8 23.55 30.05 M21.45 31.85 L20.9 31.65 20.9 30.9 21.45 31.85" fill="#2c5b33" fill-rule="evenodd" stroke="none"/>
    <path d="M20.9 30.9 L22.25 29.2 23.55 30.05 Q23.95 31.8 22.25 32.1 L22.1 32.1 21.45 31.85 20.9 30.9" fill="#9dc278" fill-rule="evenodd" stroke="none"/>
  </g>
</svg>
