<?xml version="1.0" encoding="UTF-8" standalone="no"?>
<svg xmlns:xlink="http://www.w3.org/1999/xlink" height="324.45px" width="261.1px" xmlns="http://www.w3.org/2000/svg">
  <g transform="matrix(1.0, 0.0, 0.0, 1.0, 9.95, 25.0)">
    <path d="M243.05 192.0 L234.9 139.85 168.55 97.95 180.15 80.45 178.45 76.05 144.05 -18.45 104.5 -11.7 64.9 77.6 69.9 100.3 70.15 101.45 7.65 132.25 -5.2 188.2 6.7 278.95 14.5 292.8 16.6 296.5 208.7 296.5 220.35 288.3 244.9 227.9 243.05 192.0 M187.05 74.55 L184.35 81.65 177.15 96.1 244.8 136.25 251.15 234.25 225.55 292.1 210.65 299.45 13.05 299.45 0.7 280.8 -9.95 181.5 2.3 128.2 63.2 101.6 58.6 77.3 105.35 -17.55 148.1 -25.0 187.05 74.55 M139.7 -11.25 L139.7 -9.05 131.0 0.05 131.0 -2.25 131.05 -2.25 139.7 -11.25 M142.95 -5.85 Q143.7 0.55 137.8 2.25 135.3 3.0 133.15 1.65 L133.05 -0.5 Q134.6 0.4 136.45 0.45 142.4 -0.1 142.95 -5.85 M74.35 88.1 Q74.45 89.1 75.0 89.95 L75.75 90.7 76.45 91.0 Q82.0 92.95 82.8 87.2 82.75 96.55 75.6 90.95 74.4 89.95 74.35 88.1 M76.05 86.65 L76.35 86.2 76.4 86.2 76.05 86.65 M23.2 135.0 L24.45 133.7 24.45 135.95 15.75 145.05 15.75 142.7 23.2 135.0 M27.6 139.15 Q28.3 145.45 22.5 147.2 20.05 147.9 17.8 146.6 L17.75 144.5 Q19.25 145.3 21.1 145.4 27.0 144.95 27.6 139.15 M56.8 287.0 L56.7 288.2 Q52.85 297.5 49.2 289.9 L49.75 290.45 50.45 290.75 Q56.05 292.7 56.8 287.0 M231.65 205.45 L232.2 206.0 232.9 206.3 Q238.45 208.25 239.25 202.55 239.35 203.2 239.1 203.7 235.2 212.7 231.65 205.45" fill="#47525f" fill-rule="evenodd" stroke="none"/>
    <path d="M178.45 76.05 L180.15 80.45 168.55 97.95 234.9 139.85 243.05 192.0 14.5 292.8 6.7 278.95 -5.2 188.2 7.65 132.25 70.15 101.45 69.9 100.3 178.45 76.05 M140.55 -8.35 L141.7 -9.5 Q142.55 -3.3 137.0 -1.2 135.2 -0.4 133.05 -0.5 L140.55 -8.35 M24.0 133.45 Q22.95 132.9 21.85 132.9 15.45 132.9 14.45 139.2 L14.9 141.2 15.75 145.05 17.8 146.6 Q20.05 147.9 22.5 147.2 28.3 145.45 27.6 139.15 L26.35 135.45 Q26.75 138.0 25.7 140.25 23.5 145.1 17.75 144.5 L25.3 136.65 24.45 135.95 24.45 133.7 23.2 135.0 24.0 133.45" fill="#bab9ba" fill-rule="evenodd" stroke="none"/>
    <path d="M178.45 76.05 L69.9 100.3 64.9 77.6 104.5 -11.7 144.05 -18.45 178.45 76.05 M14.5 292.8 L243.05 192.0 244.9 227.9 220.35 288.3 208.7 296.5 16.6 296.5 14.5 292.8 M139.1 -11.45 Q132.9 -13.6 130.15 -7.2 L129.7 -5.8 130.15 -3.8 131.0 0.05 133.15 1.65 Q135.3 3.0 137.8 2.25 143.7 0.55 142.95 -5.85 L141.7 -9.5 140.55 -8.35 Q140.1 -8.65 139.7 -9.05 L139.7 -11.25 139.1 -11.45 M130.75 -3.75 L130.8 -3.85 130.75 -3.65 130.75 -3.75 M131.05 -2.25 L131.0 -2.25 131.0 -2.3 131.05 -2.25 M76.35 86.2 L76.45 86.1 76.4 86.2 76.35 86.2 M79.75 84.2 L80.55 83.95 Q75.25 82.6 74.35 88.1 74.4 89.95 75.6 90.95 82.75 96.55 82.8 87.2 L81.9 85.15 80.55 84.05 79.75 84.2 M50.35 285.95 Q51.85 284.1 54.6 283.75 L53.65 283.4 Q48.75 282.9 48.35 287.85 48.45 288.85 49.0 289.7 L49.2 289.9 Q52.85 297.5 56.7 288.2 L56.8 287.0 55.95 284.9 54.6 283.8 50.35 285.95 M238.35 200.45 L237.0 199.35 232.95 201.35 Q234.5 199.65 237.0 199.3 L236.1 198.95 Q231.1 198.45 230.8 203.4 230.9 204.4 231.45 205.25 L231.65 205.45 Q235.2 212.7 239.1 203.7 239.35 203.2 239.25 202.55 L238.35 200.45" fill="#9c9c9c" fill-rule="evenodd" stroke="none"/>
    <path d="M130.15 -3.8 L129.7 -5.8 130.15 -7.2 Q132.9 -13.6 139.1 -11.45 134.0 -9.7 131.35 -4.95 L130.8 -3.85 130.75 -3.75 130.65 -2.8 130.15 -3.8 M76.45 86.1 L76.35 86.2 76.05 86.65 75.0 89.95 Q74.45 89.1 74.35 88.1 75.25 82.6 80.55 83.95 L79.75 84.2 76.45 86.1 M14.9 141.2 L14.45 139.2 Q15.45 132.9 21.85 132.9 22.95 132.9 24.0 133.45 17.6 135.4 15.5 141.5 L15.4 142.15 14.9 141.2 M49.0 289.7 Q48.45 288.85 48.35 287.85 48.75 282.9 53.65 283.4 L54.6 283.75 Q51.85 284.1 50.35 285.95 L49.05 289.55 49.0 289.7 M232.95 201.35 L231.45 205.25 Q230.9 204.4 230.8 203.4 231.1 198.45 236.1 198.95 L237.0 199.3 Q234.5 199.65 232.95 201.35" fill="#e9e9eb" fill-rule="evenodd" stroke="none"/>
    <path d="M130.8 -3.85 L131.35 -4.95 Q134.0 -9.7 139.1 -11.45 L139.7 -11.25 131.05 -2.25 131.0 -2.3 130.75 -3.65 130.8 -3.85 M76.45 86.1 L79.75 84.2 80.55 84.05 81.9 85.15 81.8 86.15 Q80.75 91.05 75.75 90.7 L75.0 89.95 76.05 86.65 76.4 86.2 76.45 86.1 M24.0 133.45 L23.2 135.0 15.75 142.7 15.4 142.15 15.5 141.5 Q17.6 135.4 24.0 133.45 M50.35 285.95 L54.6 283.8 55.95 284.9 55.8 285.85 Q54.8 290.95 49.75 290.45 L49.2 289.9 49.0 289.7 49.05 289.55 50.35 285.95 M238.35 200.45 L238.25 201.45 Q237.15 206.5 232.2 206.0 L231.65 205.45 231.45 205.25 232.95 201.35 237.0 199.35 238.35 200.45" fill="#d0cfd0" fill-rule="evenodd" stroke="none"/>
    <path d="M141.7 -9.5 L142.95 -5.85 Q142.4 -0.1 136.45 0.45 134.6 0.4 133.05 -0.5 135.2 -0.4 137.0 -1.2 142.55 -3.3 141.7 -9.5 M75.75 90.7 Q80.75 91.05 81.8 86.15 L81.9 85.15 82.8 87.2 Q82.0 92.95 76.45 91.0 L75.75 90.7 M17.75 144.5 Q23.5 145.1 25.7 140.25 26.75 138.0 26.35 135.45 L27.6 139.15 Q27.0 144.95 21.1 145.4 19.25 145.3 17.75 144.5 M55.95 284.9 L56.8 287.0 Q56.05 292.7 50.45 290.75 L49.75 290.45 Q54.8 290.95 55.8 285.85 L55.95 284.9 M232.2 206.0 Q237.15 206.5 238.25 201.45 L238.35 200.45 239.25 202.55 Q238.45 208.25 232.9 206.3 L232.2 206.0" fill="#b0aeb3" fill-rule="evenodd" stroke="none"/>
    <path d="M139.7 -9.05 Q140.1 -8.65 140.55 -8.35 L133.05 -0.5 133.15 1.65 131.0 0.05 139.7 -9.05 M24.45 135.95 L25.3 136.65 17.75 144.5 17.8 146.6 15.75 145.05 24.45 135.95" fill="#57565b" fill-rule="evenodd" stroke="none"/>
    <path d="M130.15 -3.8 L130.65 -2.8 130.75 -3.75 130.75 -3.65 131.0 -2.3 131.0 -2.25 131.0 0.05 130.15 -3.8 M15.75 145.05 L14.9 141.2 15.4 142.15 15.75 142.7 15.75 145.05" fill="#79818b" fill-rule="evenodd" stroke="none"/>
  </g>
</svg>
