<?xml version="1.0" encoding="UTF-8" standalone="no"?>
<svg xmlns:xlink="http://www.w3.org/1999/xlink" height="276.1px" width="206.9px" xmlns="http://www.w3.org/2000/svg">
  <g transform="matrix(1.0, 0.0, 0.0, 1.0, 0.0, 0.0)">
    <path d="M143.3 61.5 Q149.25 75.5 142.55 89.25 L140.5 93.65 159.8 106.6 159.95 107.0 161.6 106.95 201.7 130.8 202.2 131.5 201.45 134.1 206.9 179.25 202.7 230.75 194.5 252.9 197.65 257.15 197.55 258.25 177.05 276.05 Q166.55 268.7 158.75 258.35 L163.15 253.95 161.85 252.55 162.45 250.5 152.4 212.45 145.0 220.05 152.7 274.05 152.35 275.25 151.2 275.75 59.6 276.1 58.5 275.75 58.1 274.5 62.55 221.85 49.75 206.85 42.8 246.35 45.65 248.6 42.4 255.6 46.1 259.9 45.95 261.45 Q37.15 269.45 27.05 275.75 L26.35 275.7 4.9 255.25 8.5 250.35 3.6 228.35 0.0 181.05 8.1 133.55 9.0 132.25 73.55 93.5 74.35 93.25 61.5 72.3 70.05 52.75 93.9 0.9 95.3 0.0 121.25 0.9 122.65 1.9 142.8 60.1 143.3 61.5 M198.95 138.25 L154.9 209.8 164.85 247.8 177.75 233.35 178.65 233.4 192.3 250.3 199.75 230.3 203.9 179.45 198.95 138.25 M129.9 49.3 L132.6 53.8 136.5 51.0 135.3 47.65 132.8 46.85 129.9 49.3 M130.55 46.1 L119.0 43.55 115.8 46.1 114.95 45.8 114.55 45.0 Q108.3 49.05 101.45 45.35 L101.0 45.8 100.4 45.9 97.75 43.5 92.95 45.1 98.15 51.75 97.5 52.6 Q92.15 53.55 87.55 56.65 L88.25 58.15 Q95.35 54.15 101.95 58.95 L103.95 54.15 126.1 56.85 127.8 51.95 129.25 52.15 127.65 48.95 130.55 46.1 M92.45 11.1 L86.65 23.75 104.6 31.2 104.0 32.45 85.8 25.55 73.9 51.45 76.8 49.8 Q87.0 44.2 98.25 41.4 L99.85 42.75 100.7 42.6 101.05 42.75 102.8 43.7 Q105.3 45.15 108.25 45.0 L110.4 44.35 111.55 44.1 Q113.2 43.5 114.65 42.55 L115.5 42.65 116.1 43.5 117.2 42.65 116.85 41.1 116.35 39.7 114.85 36.7 115.6 35.55 115.95 35.65 116.4 36.0 Q118.0 37.7 118.75 39.95 L119.1 41.25 134.45 45.25 130.55 33.95 113.1 34.05 112.9 32.95 129.85 32.0 127.1 24.0 112.25 32.3 111.15 31.0 126.4 22.05 122.2 9.95 120.1 3.9 96.2 3.05 92.45 11.1 M82.95 33.65 L83.25 32.75 101.6 32.1 102.5 32.8 102.05 34.05 83.25 34.2 82.95 33.65 M118.0 63.4 Q98.95 62.85 82.05 71.1 75.15 74.4 69.3 79.15 L78.4 94.1 Q85.4 96.15 108.1 100.05 L118.35 97.3 Q129.95 94.2 137.6 93.0 L144.55 77.45 Q139.5 72.75 133.6 69.3 L128.15 66.2 128.15 66.9 Q120.0 73.55 115.65 83.0 113.5 87.65 112.7 92.7 L112.3 92.85 100.05 88.75 99.75 87.25 Q104.5 78.2 111.7 70.55 115.05 67.0 118.75 64.0 L118.0 63.4 M121.4 64.4 Q108.35 73.0 102.05 87.35 L111.25 90.45 Q113.45 75.15 126.1 66.1 L126.3 65.35 121.45 63.95 121.4 64.4 M103.4 60.7 Q115.05 60.35 126.25 63.2 L126.1 58.9 105.35 55.9 103.4 60.7 M101.2 61.1 Q95.7 55.5 88.85 60.15 L89.75 63.6 90.3 62.95 Q93.9 58.95 98.15 61.75 L101.2 61.1 M81.15 61.8 L81.35 58.8 78.3 53.95 92.8 45.15 Q82.2 48.9 72.45 54.7 L71.5 56.9 70.25 59.5 66.35 67.95 65.15 70.55 64.6 71.7 68.2 77.45 72.2 74.5 76.45 71.3 78.9 69.7 80.8 68.65 81.15 61.8 M83.35 58.5 L82.85 67.65 88.2 65.55 Q87.95 60.25 84.5 55.95 L83.35 58.5 M83.95 53.9 L84.65 53.85 Q85.6 54.1 86.4 55.0 L89.0 53.1 Q91.85 51.0 95.15 50.7 L92.45 47.3 80.75 54.2 82.0 56.15 Q82.7 54.3 83.95 53.9 M96.8 63.15 L94.8 62.35 92.0 64.15 96.8 63.15 M142.2 72.4 L144.7 74.8 143.65 71.75 142.2 72.4 M141.9 66.75 L136.3 66.8 136.4 68.2 140.2 71.05 143.0 69.85 141.9 66.75 M134.55 59.35 L139.35 59.35 137.2 53.05 132.9 56.05 134.55 59.35 M135.35 61.35 L136.05 64.55 141.25 64.75 140.1 61.5 135.35 61.35 M134.3 67.05 Q134.05 62.15 131.65 58.05 L128.5 54.05 Q127.35 59.15 128.5 64.15 L134.3 67.05 M138.2 96.0 L108.8 102.55 120.5 110.6 135.75 102.1 138.65 96.3 138.2 96.0 M57.65 128.05 L52.0 109.9 11.5 134.2 32.75 182.2 65.6 221.5 61.25 273.1 100.35 273.1 101.2 172.2 101.35 171.6 67.85 140.4 67.55 139.55 72.85 130.4 58.9 129.1 Q57.95 128.95 57.65 128.05 M76.35 128.85 Q74.45 134.1 70.8 139.05 L102.75 168.8 103.25 167.7 73.6 96.95 54.65 108.35 60.15 126.2 75.55 128.0 Q76.65 127.95 76.35 128.85 M10.25 138.75 L3.0 180.95 6.6 227.95 10.95 247.45 21.75 235.4 39.95 244.75 41.05 233.9 47.3 203.95 30.3 184.0 10.25 138.75 M159.55 109.1 L155.6 128.0 142.4 130.9 148.2 135.1 148.5 135.5 148.7 135.95 148.8 136.95 104.4 172.2 104.2 172.6 103.35 273.1 149.5 272.75 141.95 219.7 152.4 208.15 198.85 132.65 160.05 109.55 159.55 109.1 M138.95 103.3 L107.5 166.0 144.85 136.35 137.45 130.2 137.4 129.75 137.7 129.35 153.25 126.0 156.75 108.0 141.15 98.05 138.8 102.9 138.95 103.3 M115.0 110.4 L112.5 115.4 119.9 134.2 133.75 106.65 120.05 113.65 115.0 110.4 M102.85 117.4 L94.5 139.1 105.0 164.15 118.1 137.85 109.85 116.95 102.85 117.4 M112.5 108.7 L106.2 104.4 101.15 108.85 102.9 114.4 109.9 113.9 112.5 108.7 M82.05 109.35 L92.8 135.1 100.25 115.9 98.7 111.0 96.25 113.15 82.05 109.35 M103.65 102.65 L77.0 96.75 80.75 106.2 95.2 110.1 103.65 102.65 M38.15 257.05 L42.35 249.5 22.3 238.55 8.5 255.05 27.4 272.6 42.55 260.35 40.8 258.35 39.6 259.9 39.25 259.95 34.15 260.55 33.35 260.25 Q29.1 258.3 25.05 256.05 24.35 255.6 24.5 254.85 L25.85 250.3 Q26.0 249.85 26.55 249.8 27.4 249.45 27.8 250.3 28.65 252.05 27.7 254.3 L34.25 257.5 38.15 257.05 M178.9 259.45 Q179.9 260.95 178.25 261.75 176.4 261.7 175.6 259.75 L170.3 261.1 165.2 256.15 162.4 258.8 176.45 272.55 194.1 257.35 178.1 237.15 165.3 251.85 171.15 257.95 173.6 257.2 Q172.5 255.85 173.8 254.65 174.6 254.0 175.15 254.65 L178.9 259.45" fill="#1a1a1a" fill-rule="evenodd" stroke="none"/>
    <path d="M198.95 138.25 L203.9 179.45 199.75 230.3 192.3 250.3 178.65 233.4 177.75 233.35 164.85 247.8 154.9 209.8 198.95 138.25 M122.2 9.95 Q113.45 10.25 107.95 17.65 L107.85 17.9 Q101.55 10.25 92.45 11.1 L96.2 3.05 120.1 3.9 122.2 9.95 M138.95 103.3 L138.8 102.9 141.15 98.05 156.75 108.0 153.25 126.0 137.7 129.35 137.4 129.75 137.45 130.2 144.85 136.35 107.5 166.0 138.95 103.3 M159.55 109.1 L160.05 109.55 198.85 132.65 152.4 208.15 141.95 219.7 149.5 272.75 103.35 273.1 104.2 172.6 104.4 172.2 148.8 136.95 148.7 135.95 148.5 135.5 148.2 135.1 142.4 130.9 155.6 128.0 159.55 109.1 M10.25 138.75 L30.3 184.0 47.3 203.95 41.05 233.9 39.95 244.75 21.75 235.4 10.95 247.45 6.6 227.95 3.0 180.95 10.25 138.75 M76.35 128.85 Q76.65 127.95 75.55 128.0 L60.15 126.2 54.65 108.35 73.6 96.95 103.25 167.7 102.75 168.8 70.8 139.05 Q74.45 134.1 76.35 128.85 M57.65 128.05 Q57.95 128.95 58.9 129.1 L72.85 130.4 67.55 139.55 67.85 140.4 101.35 171.6 101.2 172.2 100.35 273.1 61.25 273.1 65.6 221.5 32.75 182.2 11.5 134.2 52.0 109.9 57.65 128.05" fill="#106557" fill-rule="evenodd" stroke="none"/>
    <path d="M122.2 9.95 L126.4 22.05 111.15 31.0 112.25 32.3 127.1 24.0 129.85 32.0 112.9 32.95 113.1 34.05 130.55 33.95 134.45 45.25 119.1 41.25 118.75 39.95 Q118.0 37.7 116.4 36.0 L115.95 35.65 115.6 35.55 114.85 36.7 116.35 39.7 116.85 41.1 117.2 42.65 116.1 43.5 115.5 42.65 114.65 42.55 Q113.2 43.5 111.55 44.1 L110.4 44.35 108.25 45.0 Q105.3 45.15 102.8 43.7 L101.05 42.75 100.7 42.6 99.85 42.75 98.25 41.4 Q87.0 44.2 76.8 49.8 L73.9 51.45 85.8 25.55 104.0 32.45 104.6 31.2 86.65 23.75 92.45 11.1 Q101.55 10.25 107.85 17.9 L107.95 17.65 Q113.45 10.25 122.2 9.95 M130.55 46.1 L127.65 48.95 129.25 52.15 127.8 51.95 126.1 56.85 103.95 54.15 101.95 58.95 Q95.35 54.15 88.25 58.15 L87.55 56.65 Q92.15 53.55 97.5 52.6 L98.15 51.75 92.95 45.1 97.75 43.5 100.4 45.9 101.0 45.8 101.45 45.35 Q108.3 49.05 114.55 45.0 L114.95 45.8 115.8 46.1 119.0 43.55 130.55 46.1 M118.0 63.4 L118.75 64.0 Q115.05 67.0 111.7 70.55 104.5 78.2 99.75 87.25 L100.05 88.75 112.3 92.85 112.7 92.7 Q113.5 87.65 115.65 83.0 120.0 73.55 128.15 66.9 L128.15 66.2 133.6 69.3 Q139.5 72.75 144.55 77.45 L137.6 93.0 Q129.95 94.2 118.35 97.3 L108.1 100.05 Q85.4 96.15 78.4 94.1 L69.3 79.15 Q75.15 74.4 82.05 71.1 98.95 62.85 118.0 63.4 M82.95 33.65 L83.25 34.2 102.05 34.05 102.5 32.8 101.6 32.1 83.25 32.75 82.95 33.65 M71.5 56.9 L72.45 54.7 Q82.2 48.9 92.8 45.15 L78.3 53.95 81.35 58.8 81.15 61.8 80.65 60.9 Q77.5 55.65 71.5 56.9 M72.2 74.5 L68.2 77.45 64.6 71.7 65.15 70.55 Q65.8 72.45 67.15 73.45 69.0 74.95 72.2 74.5 M83.35 58.5 L84.5 55.95 Q87.95 60.25 88.2 65.55 L82.85 67.65 83.35 58.5 M96.8 63.15 L92.0 64.15 94.8 62.35 96.8 63.15 M134.55 59.35 L132.9 56.05 137.2 53.05 139.35 59.35 134.55 59.35 M141.9 66.75 L143.0 69.85 140.2 71.05 136.4 68.2 136.3 66.8 141.9 66.75 M138.2 96.0 L138.65 96.3 135.75 102.1 120.5 110.6 108.8 102.55 138.2 96.0 M134.3 67.05 L128.5 64.15 Q127.35 59.15 128.5 54.05 L131.65 58.05 Q134.05 62.15 134.3 67.05 M70.55 68.85 L70.5 66.4 Q74.3 62.75 76.25 66.6 76.85 67.9 75.85 68.85 73.15 70.15 70.55 68.85 M115.0 110.4 L120.05 113.65 133.75 106.65 119.9 134.2 112.5 115.4 115.0 110.4 M178.9 259.45 L175.15 254.65 Q174.6 254.0 173.8 254.65 172.5 255.85 173.6 257.2 L171.15 257.95 165.3 251.85 178.1 237.15 194.1 257.35 176.45 272.55 162.4 258.8 165.2 256.15 170.3 261.1 175.6 259.75 Q176.4 261.7 178.25 261.75 179.9 260.95 178.9 259.45 M38.15 257.05 L34.25 257.5 27.7 254.3 Q28.65 252.05 27.8 250.3 27.4 249.45 26.55 249.8 26.0 249.85 25.85 250.3 L24.5 254.85 Q24.35 255.6 25.05 256.05 29.1 258.3 33.35 260.25 L34.15 260.55 39.25 259.95 39.6 259.9 40.8 258.35 42.55 260.35 27.4 272.6 8.5 255.05 22.3 238.55 42.35 249.5 38.15 257.05 M103.65 102.65 L95.2 110.1 80.75 106.2 77.0 96.75 103.65 102.65 M82.05 109.35 L96.25 113.15 98.7 111.0 100.25 115.9 92.8 135.1 82.05 109.35" fill="#c1d9cb" fill-rule="evenodd" stroke="none"/>
    <path d="M129.9 49.3 L132.8 46.85 135.3 47.65 136.5 51.0 132.6 53.8 129.9 49.3 M142.2 72.4 L143.65 71.75 144.7 74.8 142.2 72.4" fill="#ffd25f" fill-rule="evenodd" stroke="none"/>
    <path d="M103.4 60.7 L105.35 55.9 126.1 58.9 126.25 63.2 Q115.05 60.35 103.4 60.7 M121.4 64.4 L121.45 63.95 126.3 65.35 126.1 66.1 Q113.45 75.15 111.25 90.45 L102.05 87.35 Q108.35 73.0 121.4 64.4" fill="#ff7fed" fill-rule="evenodd" stroke="none"/>
    <path d="M101.2 61.1 L98.15 61.75 Q93.9 58.95 90.3 62.95 L89.75 63.6 88.85 60.15 Q95.7 55.5 101.2 61.1 M83.95 53.9 Q82.7 54.3 82.0 56.15 L80.75 54.2 92.45 47.3 95.15 50.7 Q91.85 51.0 89.0 53.1 L86.4 55.0 Q85.6 54.1 84.65 53.85 L83.95 53.9" fill="#7f81ff" fill-rule="evenodd" stroke="none"/>
    <path d="M142.8 60.1 Q144.15 59.2 145.95 59.5 L146.8 59.8 Q144.6 60.05 143.3 61.5 L142.8 60.1" fill="#e9e9eb" fill-rule="evenodd" stroke="none"/>
    <path d="M71.5 56.9 Q77.5 55.65 80.65 60.9 L81.15 61.8 80.8 68.65 78.9 69.7 Q80.65 66.85 79.55 63.7 77.05 56.8 70.25 59.5 L71.5 56.9 M76.45 71.3 L72.2 74.5 Q69.0 74.95 67.15 73.45 65.8 72.45 65.15 70.55 L66.35 67.95 Q66.65 71.35 69.6 72.2 73.4 73.25 76.45 71.3 M70.55 68.85 Q73.15 70.15 75.85 68.85 76.85 67.9 76.25 66.6 74.3 62.75 70.5 66.4 L70.55 68.85 M74.5 71.4 Q71.4 71.95 69.1 69.95 67.75 63.6 74.25 62.8 77.7 63.1 78.1 66.35 78.65 70.4 74.5 71.4" fill="#000000" fill-rule="evenodd" stroke="none"/>
    <path d="M78.9 69.7 L76.45 71.3 Q73.4 73.25 69.6 72.2 66.65 71.35 66.35 67.95 L70.25 59.5 Q77.05 56.8 79.55 63.7 80.65 66.85 78.9 69.7 M74.5 71.4 Q78.65 70.4 78.1 66.35 77.7 63.1 74.25 62.8 67.75 63.6 69.1 69.95 71.4 71.95 74.5 71.4" fill="#d5ff9f" fill-rule="evenodd" stroke="none"/>
    <path d="M112.5 108.7 L109.9 113.9 102.9 114.4 101.15 108.85 106.2 104.4 112.5 108.7 M102.85 117.4 L109.85 116.95 118.1 137.85 105.0 164.15 94.5 139.1 102.85 117.4" fill="#0e4239" fill-rule="evenodd" stroke="none"/>
  </g>
</svg>
