<?xml version="1.0" encoding="UTF-8" standalone="no"?>
<svg xmlns:xlink="http://www.w3.org/1999/xlink" height="318.3px" width="191.7px" xmlns="http://www.w3.org/2000/svg">
  <g transform="matrix(1.0, 0.0, 0.0, 1.0, 3.2, 23.0)">
    <path d="M101.45 -19.8 L107.35 -23.0 123.75 18.6 124.95 34.05 127.7 68.55 130.5 104.15 132.0 123.15 144.7 129.55 163.0 138.7 172.35 143.35 188.5 204.35 182.15 279.5 169.05 295.3 13.0 295.3 2.35 272.2 -3.2 199.55 34.5 126.8 40.6 124.1 Q46.25 121.6 52.95 118.9 59.65 116.2 63.15 115.35 L65.65 92.5 70.45 50.35 75.1 9.7 77.15 -8.5 101.45 -19.8" fill="#47525f" fill-rule="evenodd" stroke="none"/>
    <path d="M121.0 88.7 L124.1 122.65 164.75 144.15 180.1 193.15 8.3 268.35 2.8 195.85 39.8 126.7 68.9 120.3 70.8 99.9 121.0 88.7" fill="#bab9ba" fill-rule="evenodd" stroke="none"/>
    <path d="M180.15 193.2 L182.35 204.75 172.9 277.85 165.35 292.45 17.15 292.45 8.45 270.85 8.35 268.4 180.15 193.2" fill="#9c9c9c" fill-rule="evenodd" stroke="none"/>
    <path d="M79.35 -1.05 L104.35 -14.4 114.8 11.15 121.05 88.7 70.8 99.95 79.35 -1.05" fill="#9c9c9c" fill-rule="evenodd" stroke="none"/>
    <path d="M178.0 208.0 Q177.65 211.8 173.75 212.15 169.9 211.8 169.5 208.0 169.9 204.3 173.75 203.9 177.65 204.3 178.0 208.0" fill="#47525f" fill-rule="evenodd" stroke="none"/>
    <path d="M169.4 206.2 L177.9 205.6 178.05 208.0 169.55 208.4 169.4 206.2" fill="#47525f" fill-rule="evenodd" stroke="none"/>
    <path d="M175.65 202.4 Q173.6 202.6 171.8 204.1 170.25 206.15 170.1 208.35 169.4 207.3 169.4 206.0 169.8 202.3 173.65 201.9 174.75 201.9 175.65 202.4" fill="#e9e9eb" fill-rule="evenodd" stroke="none"/>
    <path d="M175.0 208.3 Q172.85 209.45 170.75 209.05 L170.1 208.3 Q170.2 206.2 171.8 204.15 173.6 202.55 175.65 202.4 L177.0 203.55 Q177.2 206.5 175.0 208.3" fill="#d0cfd0" fill-rule="evenodd" stroke="none"/>
    <path d="M177.9 206.0 Q177.5 209.75 173.6 210.1 171.95 210.1 170.75 209.0 172.85 209.35 175.0 208.1 177.2 206.4 177.0 203.5 177.9 204.6 177.9 206.0" fill="#b0aeb3" fill-rule="evenodd" stroke="none"/>
    <path d="M22.9 275.55 Q22.55 279.35 18.65 279.7 14.8 279.35 14.4 275.55 14.8 271.85 18.65 271.45 22.55 271.85 22.9 275.55" fill="#47525f" fill-rule="evenodd" stroke="none"/>
    <path d="M14.3 273.75 L22.8 273.15 22.95 275.55 14.45 275.95 14.3 273.75" fill="#47525f" fill-rule="evenodd" stroke="none"/>
    <path d="M20.55 269.95 Q18.5 270.15 16.7 271.65 15.15 273.7 15.0 275.9 14.3 274.85 14.3 273.55 14.7 269.85 18.55 269.45 19.65 269.45 20.55 269.95" fill="#e9e9eb" fill-rule="evenodd" stroke="none"/>
    <path d="M19.9 275.85 Q17.75 277.0 15.65 276.6 L15.0 275.85 Q15.1 273.75 16.7 271.7 18.5 270.1 20.55 269.95 L21.9 271.1 Q22.1 274.05 19.9 275.85" fill="#d0cfd0" fill-rule="evenodd" stroke="none"/>
    <path d="M22.8 273.55 Q22.4 277.3 18.5 277.65 16.85 277.65 15.65 276.55 17.75 276.9 19.9 275.65 22.1 273.95 21.9 271.05 22.8 272.15 22.8 273.55" fill="#b0aeb3" fill-rule="evenodd" stroke="none"/>
    <path d="M116.4 84.2 Q116.05 88.0 112.15 88.35 108.3 88.0 107.9 84.2 108.3 80.5 112.15 80.1 116.05 80.5 116.4 84.2" fill="#47525f" fill-rule="evenodd" stroke="none"/>
    <path d="M107.8 82.45 L116.3 81.85 116.45 84.25 107.95 84.65 107.8 82.45" fill="#47525f" fill-rule="evenodd" stroke="none"/>
    <path d="M114.05 78.6 Q112.0 78.8 110.2 80.3 108.65 82.35 108.5 84.55 107.8 83.5 107.8 82.2 108.2 78.5 112.05 78.1 113.15 78.1 114.05 78.6" fill="#e9e9eb" fill-rule="evenodd" stroke="none"/>
    <path d="M113.4 84.55 Q111.25 85.7 109.15 85.3 L108.5 84.55 Q108.6 82.45 110.2 80.4 112.0 78.8 114.05 78.65 L115.4 79.8 Q115.6 82.75 113.4 84.55" fill="#d0cfd0" fill-rule="evenodd" stroke="none"/>
    <path d="M116.3 82.25 Q115.9 86.0 112.0 86.35 110.35 86.35 109.15 85.25 111.25 85.6 113.4 84.35 115.6 82.65 115.4 79.75 116.3 80.85 116.3 82.25" fill="#b0aeb3" fill-rule="evenodd" stroke="none"/>
    <path d="M86.65 9.9 L95.3 0.8 96.9 2.15 88.7 11.45 86.65 9.9" fill="#57565b" fill-rule="evenodd" stroke="none"/>
    <path d="M98.5 6.05 L98.5 6.4 Q97.75 11.85 92.0 12.35 90.15 12.3 88.65 11.35 L88.65 9.25 93.4 5.85 97.25 1.85 Q97.85 2.65 98.15 3.6 L98.5 3.7 98.5 5.95 98.5 6.05" fill="#47525f" fill-rule="evenodd" stroke="none"/>
    <path d="M86.65 9.85 L86.65 7.5 95.3 -1.45 95.3 0.75 86.65 9.85" fill="#47525f" fill-rule="evenodd" stroke="none"/>
    <path d="M85.35 3.95 L86.65 6.7 86.65 9.85 Q85.15 7.35 85.35 6.55 L85.35 3.95" fill="#79818b" fill-rule="evenodd" stroke="none"/>
    <path d="M90.15 0.75 Q93.2 -1.3 94.85 -1.7 L95.2 -1.45 86.65 7.55 86.25 7.0 Q86.1 4.25 90.15 0.75" fill="#d0cfd0" fill-rule="evenodd" stroke="none"/>
    <path d="M85.35 3.8 Q86.1 -1.7 91.85 -2.45 93.5 -2.45 94.85 -1.7 93.3 -1.3 90.15 0.75 86.15 4.25 86.25 7.0 85.4 5.55 85.35 3.8" fill="#e9e9eb" fill-rule="evenodd" stroke="none"/>
    <path d="M95.8 7.05 Q94.1 8.85 91.5 9.1 L88.65 9.35 97.25 0.3 Q97.95 2.9 95.8 7.05" fill="#bab9ba" fill-rule="evenodd" stroke="none"/>
    <path d="M98.5 4.0 Q97.95 9.7 92.0 10.25 90.15 10.2 88.65 9.35 L91.45 9.1 Q94.0 8.85 95.7 7.05 97.85 2.9 97.25 0.3 98.5 1.85 98.5 4.0" fill="#b0aeb3" fill-rule="evenodd" stroke="none"/>
    <path d="M8.3 204.45 L16.95 195.35 18.55 196.7 10.35 206.0 8.3 204.45" fill="#57565b" fill-rule="evenodd" stroke="none"/>
    <path d="M20.15 200.6 L20.15 200.95 Q19.4 206.4 13.65 206.9 11.8 206.85 10.3 205.9 L10.3 203.8 15.05 200.4 18.9 196.4 19.8 198.15 20.15 198.25 20.15 200.5 20.15 200.6" fill="#47525f" fill-rule="evenodd" stroke="none"/>
    <path d="M8.3 204.4 L8.3 202.05 16.95 193.1 16.95 195.3 8.3 204.4" fill="#47525f" fill-rule="evenodd" stroke="none"/>
    <path d="M7.0 198.55 L8.3 201.3 8.3 204.45 Q6.8 201.95 7.0 201.15 L7.0 198.55" fill="#79818b" fill-rule="evenodd" stroke="none"/>
    <path d="M11.8 195.3 Q14.85 193.25 16.5 192.85 L16.85 193.1 8.3 202.1 7.9 201.55 Q7.75 198.8 11.8 195.3" fill="#d0cfd0" fill-rule="evenodd" stroke="none"/>
    <path d="M7.0 198.35 Q7.75 192.85 13.5 192.1 15.15 192.1 16.5 192.85 14.95 193.25 11.8 195.3 7.8 198.8 7.9 201.55 7.05 200.1 7.0 198.35" fill="#e9e9eb" fill-rule="evenodd" stroke="none"/>
    <path d="M17.45 201.6 Q15.75 203.4 13.15 203.65 L10.3 203.9 18.9 194.85 Q19.6 197.45 17.45 201.6" fill="#bab9ba" fill-rule="evenodd" stroke="none"/>
    <path d="M20.15 198.55 Q19.6 204.25 13.65 204.8 11.8 204.75 10.3 203.9 L13.1 203.65 Q15.65 203.4 17.35 201.6 19.5 197.45 18.9 194.85 20.15 196.4 20.15 198.55" fill="#b0aeb3" fill-rule="evenodd" stroke="none"/>
  </g>
</svg>
