<?xml version="1.0" encoding="UTF-8" standalone="no"?>
<svg xmlns:xlink="http://www.w3.org/1999/xlink" height="264.45px" width="141.75px" xmlns="http://www.w3.org/2000/svg">
  <g transform="matrix(1.0, 0.0, 0.0, 1.0, 0.0, 0.0)">
    <path d="M81.1 22.15 L81.5 21.75 81.5 19.65 84.95 19.7 Q83.3 23.25 79.1 23.65 74.4 24.4 69.95 22.6 67.65 21.75 66.4 19.45 L69.6 19.5 69.4 21.35 69.75 21.8 81.1 22.15 M74.5 7.8 Q76.9 6.95 78.0 4.3 L78.5 14.35 73.05 14.25 74.0 7.95 74.5 7.8 M48.95 131.3 L42.15 136.65 42.5 138.2 69.8 166.05 70.15 167.25 67.05 261.3 37.95 260.45 37.65 257.4 40.75 254.4 39.25 245.9 38.2 245.15 39.75 236.6 35.55 232.4 30.75 157.6 Q29.0 151.35 26.7 145.5 L26.05 144.95 25.45 144.8 Q24.35 145.45 24.65 146.65 L27.8 158.0 32.3 229.25 24.2 222.05 Q18.15 222.85 13.8 227.15 L11.15 229.9 5.9 235.8 3.0 216.75 7.1 176.6 21.9 127.4 34.8 122.45 48.95 131.3 M45.85 137.35 L52.4 132.3 Q53.75 131.15 52.4 129.95 L38.3 121.1 54.05 114.95 67.9 159.85 45.85 137.35 M73.15 167.4 L74.05 165.4 99.5 138.5 100.0 137.45 99.7 136.6 94.9 132.7 108.05 120.0 127.8 129.35 137.75 180.7 138.6 236.25 128.3 225.85 127.95 225.5 127.4 225.4 125.3 225.5 123.2 225.75 Q118.2 226.45 115.1 230.25 L118.9 148.0 Q123.3 142.1 124.75 135.75 L123.2 135.2 115.9 147.5 111.9 234.55 Q109.2 239.1 108.8 244.5 L106.75 245.2 105.3 255.25 111.2 258.8 111.2 261.45 70.05 261.35 73.15 167.4 M91.2 132.4 L91.5 133.55 96.2 137.6 77.6 157.25 96.25 114.75 105.15 118.65 91.2 132.4" fill="#106557" fill-rule="evenodd" stroke="none"/>
    <path d="M81.1 22.15 L69.75 21.8 69.4 21.35 69.6 19.5 66.4 19.45 Q67.65 21.75 69.95 22.6 74.4 24.4 79.1 23.65 83.3 23.25 84.95 19.7 L81.5 19.65 81.5 21.75 81.1 22.15 M87.15 21.55 Q85.9 23.55 82.65 25.4 89.85 67.95 94.45 111.5 L95.4 110.95 96.2 111.1 129.75 126.95 130.6 128.05 140.75 180.3 141.75 246.35 141.2 247.55 140.35 247.85 139.8 257.2 121.4 264.4 114.2 260.45 114.0 263.8 113.55 264.25 112.7 264.45 73.65 264.45 35.8 263.15 34.85 259.8 29.75 264.15 Q16.95 260.25 4.8 254.3 L0.0 216.95 4.1 176.25 19.3 125.85 56.35 110.5 68.95 25.45 Q65.15 23.8 63.75 21.3 62.6 19.15 63.4 16.85 L70.15 16.5 71.55 4.8 71.95 4.45 74.05 4.65 78.4 0.0 79.6 0.15 Q82.55 7.4 81.4 15.25 L81.2 16.35 87.95 17.3 Q88.4 19.55 87.15 21.55 M81.0 26.2 L76.0 26.85 70.6 26.1 68.6 39.75 73.7 44.3 74.15 36.0 74.5 35.8 74.85 35.75 75.25 35.8 75.8 36.35 75.7 45.2 75.55 45.9 74.5 46.15 73.8 45.7 72.75 46.05 68.3 42.15 63.15 81.5 66.9 63.8 67.35 61.4 Q67.65 58.45 69.85 56.65 70.0 56.5 70.25 56.5 L71.5 56.65 71.7 57.95 70.3 58.5 69.45 60.5 Q68.9 62.55 69.15 64.8 71.1 66.45 73.85 65.9 L76.15 65.95 79.3 65.75 80.1 65.5 Q81.0 62.55 79.95 59.35 L79.25 57.45 77.25 59.55 76.85 59.55 76.55 59.35 76.2 59.15 76.05 58.8 Q76.65 55.8 79.65 55.85 80.25 55.85 80.7 56.4 82.1 58.05 82.35 60.2 82.7 62.95 82.3 65.5 86.8 73.35 88.6 82.3 L83.75 41.8 78.25 46.5 76.95 45.85 Q77.0 45.45 77.2 45.3 L83.4 39.5 81.0 26.2 M82.9 47.95 L82.7 48.95 77.55 49.2 77.0 48.65 77.2 47.55 82.4 47.35 82.9 47.95 M88.75 86.0 L87.65 85.95 84.5 75.15 Q83.3 71.0 80.9 67.35 L68.5 67.0 64.9 85.4 63.85 86.25 62.75 85.9 59.2 111.75 Q64.55 114.0 70.05 116.05 L71.35 116.45 Q81.85 115.0 91.3 110.25 L90.45 101.25 89.7 101.15 Q86.55 89.5 81.9 78.4 80.05 74.0 75.8 72.2 74.65 72.9 73.45 74.1 72.2 75.25 68.75 80.4 65.3 85.55 62.6 100.35 L61.75 102.6 Q62.75 89.25 68.95 77.55 70.75 74.1 73.65 71.5 76.2 69.25 79.1 71.1 80.1 71.7 80.7 72.7 87.5 83.4 90.2 98.75 L88.75 86.0 M74.5 7.8 L74.0 7.95 73.05 14.25 78.5 14.35 78.0 4.3 Q76.9 6.95 74.5 7.8 M79.05 16.5 L72.35 16.4 72.05 17.1 72.35 18.05 72.15 18.9 71.65 19.3 71.5 20.0 79.5 20.25 79.45 19.35 Q78.35 18.3 79.25 17.15 L79.05 16.5 M67.75 48.0 L75.75 48.15 73.05 63.35 71.8 63.15 73.7 49.95 69.25 53.8 68.35 53.2 68.6 52.15 71.25 49.5 67.95 49.1 67.75 48.0 M78.5 49.75 L81.35 53.65 80.75 54.2 Q79.25 53.85 78.4 52.75 L76.9 50.65 77.55 49.75 78.5 49.75 M74.6 120.4 L70.6 119.9 69.3 122.45 71.7 127.4 75.95 129.25 79.95 121.7 79.05 119.9 74.6 120.4 M45.85 137.35 L67.9 159.85 54.05 114.95 38.3 121.1 52.4 129.95 Q53.75 131.15 52.4 132.3 L45.85 137.35 M48.95 131.3 L34.8 122.45 21.9 127.4 7.1 176.6 3.0 216.75 5.9 235.8 11.15 229.9 13.8 227.15 Q18.15 222.85 24.2 222.05 L32.3 229.25 27.8 158.0 24.65 146.65 Q24.35 145.45 25.45 144.8 L26.05 144.95 26.7 145.5 Q29.0 151.35 30.75 157.6 L35.55 232.4 39.75 236.6 38.2 245.15 39.25 245.9 40.75 254.4 37.65 257.4 37.95 260.45 67.05 261.3 70.15 167.25 69.8 166.05 42.5 138.2 42.15 136.65 48.95 131.3 M63.05 133.85 L64.1 137.35 68.9 128.5 67.5 125.6 63.05 133.85 M71.3 130.5 L65.35 141.4 71.9 162.8 81.7 140.5 75.65 132.35 71.3 130.5 M56.95 114.05 L61.8 129.85 67.75 118.9 56.95 114.05 M73.15 167.4 L70.05 261.35 111.2 261.45 111.2 258.8 105.3 255.25 106.75 245.2 108.8 244.5 Q109.2 239.1 111.9 234.55 L115.9 147.5 123.2 135.2 124.75 135.75 Q123.3 142.1 118.9 148.0 L115.1 230.25 Q118.2 226.45 123.2 225.75 L125.3 225.5 127.4 225.4 127.95 225.5 128.3 225.85 138.6 236.25 137.75 180.7 127.8 129.35 108.05 120.0 94.9 132.7 99.7 136.6 100.0 137.45 99.5 138.5 74.05 165.4 73.15 167.4 M91.55 113.5 L81.95 119.1 86.95 128.5 93.0 114.6 91.55 113.5 M91.2 132.4 L105.15 118.65 96.25 114.75 77.6 157.25 96.2 137.6 91.5 133.55 91.2 132.4 M85.4 132.0 L81.65 124.9 78.4 131.05 83.05 137.35 85.4 132.0 M122.3 242.15 L123.75 242.05 124.4 242.75 Q125.85 246.95 126.8 251.35 L126.5 251.9 125.75 252.3 115.55 252.45 115.0 251.75 Q114.2 249.6 113.7 247.35 L109.2 247.45 108.3 253.75 121.95 261.25 137.05 255.4 137.35 239.3 126.85 228.15 120.2 228.45 112.25 239.1 111.85 244.25 115.05 244.35 115.55 244.45 115.9 244.75 116.35 245.55 117.25 249.5 123.65 249.35 Q122.65 246.2 122.05 243.0 121.95 242.55 122.3 242.15 M7.75 238.35 L7.75 252.9 28.8 261.05 37.65 253.35 36.5 247.75 34.3 251.7 33.15 251.9 22.75 251.75 Q21.55 251.6 21.4 250.45 20.55 243.95 20.2 237.45 20.2 237.0 20.65 236.7 L22.1 236.75 22.55 237.6 24.15 248.8 32.35 249.1 35.0 244.35 35.3 243.7 36.8 237.85 23.75 225.1 17.0 225.7 7.75 238.35" fill="#1a1a1a" fill-rule="evenodd" stroke="none"/>
    <path d="M88.75 86.0 L90.2 98.75 Q87.5 83.4 80.7 72.7 80.1 71.7 79.1 71.1 76.2 69.25 73.65 71.5 70.75 74.1 68.95 77.55 62.75 89.25 61.75 102.6 L62.6 100.35 Q65.3 85.55 68.75 80.4 72.2 75.25 73.45 74.1 74.65 72.9 75.8 72.2 80.05 74.0 81.9 78.4 86.55 89.5 89.7 101.15 L90.45 101.25 91.3 110.25 Q81.85 115.0 71.35 116.45 L70.05 116.05 Q64.55 114.0 59.2 111.75 L62.75 85.9 63.85 86.25 64.9 85.4 68.5 67.0 80.9 67.35 Q83.3 71.0 84.5 75.15 L87.65 85.95 88.75 86.0 M82.9 47.95 L82.4 47.35 77.2 47.55 77.0 48.65 77.55 49.2 82.7 48.95 82.9 47.95 M81.0 26.2 L83.4 39.5 77.2 45.3 Q77.0 45.45 76.95 45.85 L78.25 46.5 83.75 41.8 88.6 82.3 Q86.8 73.35 82.3 65.5 82.7 62.95 82.35 60.2 82.1 58.05 80.7 56.4 80.25 55.85 79.65 55.85 76.65 55.8 76.05 58.8 L76.2 59.15 76.55 59.35 76.85 59.55 77.25 59.55 79.25 57.45 79.95 59.35 Q81.0 62.55 80.1 65.5 L79.3 65.75 76.15 65.95 73.85 65.9 Q71.1 66.45 69.15 64.8 68.9 62.55 69.45 60.5 L70.3 58.5 71.7 57.95 71.5 56.65 70.25 56.5 Q70.0 56.5 69.85 56.65 67.65 58.45 67.35 61.4 L66.9 63.8 63.15 81.5 68.3 42.15 72.75 46.05 73.8 45.7 74.5 46.15 75.55 45.9 75.7 45.2 75.8 36.35 75.25 35.8 74.85 35.75 74.5 35.8 74.15 36.0 73.7 44.3 68.6 39.75 70.6 26.1 76.0 26.85 81.0 26.2 M78.5 49.75 L77.55 49.75 76.9 50.65 78.4 52.75 Q79.25 53.85 80.75 54.2 L81.35 53.65 78.5 49.75 M67.75 48.0 L67.95 49.1 71.25 49.5 68.6 52.15 68.35 53.2 69.25 53.8 73.7 49.95 71.8 63.15 73.05 63.35 75.75 48.15 67.75 48.0 M79.05 16.5 L79.25 17.15 Q78.35 18.3 79.45 19.35 L79.5 20.25 71.5 20.0 71.65 19.3 72.15 18.9 72.35 18.05 72.05 17.1 72.35 16.4 79.05 16.5 M63.05 133.85 L67.5 125.6 68.9 128.5 64.1 137.35 63.05 133.85 M56.95 114.05 L67.75 118.9 61.8 129.85 56.95 114.05 M91.55 113.5 L93.0 114.6 86.95 128.5 81.95 119.1 91.55 113.5 M7.75 238.35 L17.0 225.7 23.75 225.1 36.8 237.85 35.3 243.7 35.0 244.35 32.35 249.1 24.15 248.8 22.55 237.6 22.1 236.75 20.65 236.7 Q20.2 237.0 20.2 237.45 20.55 243.95 21.4 250.45 21.55 251.6 22.75 251.75 L33.15 251.9 34.3 251.7 36.5 247.75 37.65 253.35 28.8 261.05 7.75 252.9 7.75 238.35 M122.3 242.15 Q121.95 242.55 122.05 243.0 122.65 246.2 123.65 249.35 L117.25 249.5 116.35 245.55 115.9 244.75 115.55 244.45 115.05 244.35 111.85 244.25 112.25 239.1 120.2 228.45 126.85 228.15 137.35 239.3 137.05 255.4 121.95 261.25 108.3 253.75 109.2 247.45 113.7 247.35 Q114.2 249.6 115.0 251.75 L115.55 252.45 125.75 252.3 126.5 251.9 126.8 251.35 Q125.85 246.95 124.4 242.75 L123.75 242.05 122.3 242.15 M85.4 132.0 L83.05 137.35 78.4 131.05 81.65 124.9 85.4 132.0" fill="#c1d9cb" fill-rule="evenodd" stroke="none"/>
    <path d="M74.6 120.4 L79.05 119.9 79.95 121.7 75.95 129.25 71.7 127.4 69.3 122.45 70.6 119.9 74.6 120.4 M71.3 130.5 L75.65 132.35 81.7 140.5 71.9 162.8 65.35 141.4 71.3 130.5" fill="#0e4239" fill-rule="evenodd" stroke="none"/>
  </g>
</svg>
