<?xml version="1.0" encoding="UTF-8" standalone="no"?>
<svg xmlns:xlink="http://www.w3.org/1999/xlink" height="276.35px" width="358.1px" xmlns="http://www.w3.org/2000/svg">
  <g transform="matrix(1.0, 0.0, 0.0, 1.0, 0.0, 0.0)">
    <path d="M339.5 168.45 L335.85 148.35 290.7 79.55 256.55 69.5 239.6 64.5 212.75 21.5 159.5 6.3 126.75 58.05 89.65 74.75 46.6 108.3 43.4 117.05 5.75 184.4 9.45 261.85 21.35 273.7 101.25 273.7 104.1 272.5 101.3 273.75 336.95 273.75 354.15 248.9 339.5 168.45 M339.85 276.35 L19.0 276.35 3.9 268.3 0.0 183.0 46.15 104.6 86.55 69.85 86.85 69.8 87.35 69.55 88.15 69.2 89.05 68.65 90.35 68.2 91.8 67.55 Q107.65 60.65 123.05 52.95 L123.8 52.4 151.95 12.85 160.95 0.0 219.2 16.35 243.25 62.65 294.15 74.7 345.2 142.2 358.1 256.2 339.85 276.35 M169.05 18.35 Q169.5 21.9 167.05 24.4 165.35 26.1 163.05 26.15 161.3 26.15 160.0 25.25 L159.95 23.3 Q161.35 24.1 163.05 24.15 168.55 23.65 169.05 18.35 M164.95 14.55 L166.1 13.35 166.1 15.4 158.1 23.8 158.1 21.65 164.95 14.55 M63.55 101.7 Q64.75 102.7 66.2 102.7 70.0 102.35 70.15 98.5 70.7 100.95 69.45 102.85 68.65 104.1 67.2 104.5 62.15 104.5 62.35 99.45 L62.95 101.0 63.55 101.7 M18.45 183.55 L19.6 182.35 19.6 184.4 11.6 192.8 11.6 190.65 18.45 183.55 M22.55 187.35 Q23.05 190.9 20.55 193.4 18.9 195.1 16.55 195.15 14.8 195.15 13.5 194.25 L13.45 192.3 Q14.85 193.1 16.55 193.15 22.05 192.65 22.55 187.35 M296.05 261.85 Q296.8 267.7 291.3 269.3 289.05 269.85 287.0 268.75 L286.95 266.8 Q288.35 267.6 290.05 267.65 295.55 267.15 296.05 261.85 M291.95 258.05 L293.1 256.85 293.1 258.9 285.1 267.3 285.1 265.15 291.95 258.05" fill="#47525f" fill-rule="evenodd" stroke="none"/>
    <path d="M256.55 69.5 L290.7 79.55 335.85 148.35 339.5 168.45 104.1 272.5 101.25 273.7 21.35 273.7 9.45 261.85 5.75 184.4 43.4 117.05 256.55 69.5 M166.9 16.05 L167.9 14.95 Q168.4 17.75 166.9 20.25 L165.7 21.55 Q163.3 23.5 159.95 23.3 L166.9 16.05 M18.45 183.55 L19.55 182.35 19.2 182.1 Q17.85 181.4 16.4 181.4 11.1 182.15 10.4 187.4 L10.4 189.75 Q10.2 190.5 11.6 192.8 L13.5 194.25 Q14.8 195.15 16.55 195.15 18.9 195.1 20.55 193.4 23.05 190.9 22.55 187.35 22.65 185.9 21.9 184.7 L21.4 183.95 Q22.0 187.75 19.25 190.65 L17.95 191.5 Q15.8 192.35 13.45 192.3 L20.4 185.05 19.6 184.4 19.6 182.35 18.45 183.55 M293.9 259.55 L294.9 258.45 Q295.45 263.0 292.05 265.55 291.45 266.05 290.65 266.25 L286.95 266.8 293.9 259.55" fill="#bab9ba" fill-rule="evenodd" stroke="none"/>
    <path d="M339.5 168.45 L354.15 248.9 336.95 273.75 101.3 273.75 104.1 272.5 339.5 168.45 M43.4 117.05 L46.6 108.3 89.65 74.75 126.75 58.05 159.5 6.3 212.75 21.5 239.6 64.5 256.55 69.5 43.4 117.05 M169.05 18.35 L169.05 18.1 Q169.0 16.3 167.9 14.95 L166.9 16.05 166.1 15.4 166.1 13.35 164.95 14.55 166.05 13.35 165.7 13.1 Q164.45 12.45 162.9 12.4 157.7 13.2 156.9 18.4 L156.9 20.75 Q156.7 21.5 158.1 23.8 L160.0 25.25 Q161.3 26.15 163.05 26.15 165.35 26.1 167.05 24.4 169.5 21.9 169.05 18.35 M70.15 98.5 Q70.05 97.45 69.35 96.6 L68.1 95.55 67.25 95.25 Q62.6 94.85 62.35 99.45 62.15 104.5 67.2 104.5 68.65 104.1 69.45 102.85 70.7 100.95 70.15 98.5 M294.9 258.45 L293.9 259.55 293.1 258.9 293.1 256.85 291.95 258.05 293.05 256.85 292.7 256.6 Q289.45 255.15 286.65 257.2 284.15 258.9 283.9 261.9 L283.9 264.25 Q283.7 265.0 285.1 267.3 L287.0 268.75 Q289.05 269.85 291.3 269.3 296.8 267.7 296.05 261.85 L296.05 261.6 Q296.0 259.8 294.9 258.45" fill="#9c9c9c" fill-rule="evenodd" stroke="none"/>
    <path d="M156.9 18.4 Q157.7 13.2 162.9 12.4 164.45 12.45 165.7 13.1 161.3 14.5 158.55 18.6 157.85 19.6 157.75 21.15 157.0 19.85 156.9 18.4 M68.1 95.55 Q65.95 95.55 64.45 97.15 62.95 98.75 62.95 101.0 L62.35 99.45 Q62.6 94.85 67.25 95.25 L68.1 95.55 M10.4 187.4 Q11.1 182.15 16.4 181.4 17.85 181.4 19.2 182.1 14.7 183.55 12.1 187.6 11.35 188.75 11.25 190.15 10.5 188.85 10.4 187.4" fill="#e9e9eb" fill-rule="evenodd" stroke="none"/>
    <path d="M165.7 13.1 L166.05 13.35 164.95 14.55 158.1 21.65 157.75 21.15 Q157.85 19.6 158.55 18.6 161.3 14.5 165.7 13.1 M69.35 96.6 L69.05 98.5 Q67.65 102.1 63.55 101.7 L62.95 101.0 Q62.95 98.75 64.45 97.15 65.95 95.55 68.1 95.55 L69.35 96.6 M19.2 182.1 L19.55 182.35 18.45 183.55 11.6 190.65 11.25 190.15 Q11.35 188.75 12.1 187.6 14.7 183.55 19.2 182.1 M283.9 261.9 Q284.15 258.9 286.65 257.2 289.45 255.15 292.7 256.6 L293.05 256.85 291.95 258.05 285.1 265.15 284.75 264.65 Q284.0 263.35 283.9 261.9" fill="#d0cfd0" fill-rule="evenodd" stroke="none"/>
    <path d="M167.9 14.95 Q169.0 16.3 169.05 18.1 L169.05 18.35 Q168.55 23.65 163.05 24.15 161.35 24.1 159.95 23.3 163.3 23.5 165.7 21.55 L166.9 20.25 Q168.4 17.75 167.9 14.95 M63.55 101.7 Q67.65 102.1 69.05 98.5 L69.35 96.6 Q70.05 97.45 70.15 98.5 70.0 102.35 66.2 102.7 64.75 102.7 63.55 101.7 M13.45 192.3 Q15.8 192.35 17.95 191.5 L19.25 190.65 Q22.0 187.75 21.4 183.95 L21.9 184.7 Q22.65 185.9 22.55 187.35 22.05 192.65 16.55 193.15 14.85 193.1 13.45 192.3 M294.9 258.45 Q296.0 259.8 296.05 261.6 L296.05 261.85 Q295.55 267.15 290.05 267.65 288.35 267.6 286.95 266.8 L290.65 266.25 Q291.45 266.05 292.05 265.55 295.45 263.0 294.9 258.45" fill="#b0aeb3" fill-rule="evenodd" stroke="none"/>
    <path d="M160.0 25.25 L158.1 23.8 166.1 15.4 166.9 16.05 159.95 23.3 160.0 25.25 M19.6 184.4 L20.4 185.05 13.45 192.3 13.5 194.25 11.6 192.8 19.6 184.4 M287.0 268.75 L285.1 267.3 293.1 258.9 293.9 259.55 286.95 266.8 287.0 268.75" fill="#57565b" fill-rule="evenodd" stroke="none"/>
    <path d="M158.1 23.8 Q156.7 21.5 156.9 20.75 L156.9 18.4 Q157.0 19.85 157.75 21.15 L158.1 21.65 158.1 23.8 M11.6 192.8 Q10.2 190.5 10.4 189.75 L10.4 187.4 Q10.5 188.85 11.25 190.15 L11.6 190.65 11.6 192.8 M285.1 267.3 Q283.7 265.0 283.9 264.25 L283.9 261.9 Q284.0 263.35 284.75 264.65 L285.1 265.15 285.1 267.3" fill="#79818b" fill-rule="evenodd" stroke="none"/>
  </g>
</svg>
