<?xml version="1.0" encoding="UTF-8" standalone="no"?>
<svg xmlns:xlink="http://www.w3.org/1999/xlink" height="256.4px" width="330.8px" xmlns="http://www.w3.org/2000/svg">
  <g transform="matrix(1.0, 0.0, 0.0, 1.0, 0.0, 0.0)">
    <path d="M46.0 225.95 L47.35 238.65 41.65 243.45 42.4 244.3 42.8 245.0 Q43.45 246.2 43.15 247.45 L32.45 256.35 32.0 256.4 31.55 256.15 1.4 236.05 1.5 235.5 Q3.55 229.3 6.4 223.25 L0.8 222.55 0.0 221.1 2.2 176.3 2.3 175.8 23.15 123.0 23.4 122.6 72.2 65.4 109.95 52.55 111.25 51.2 128.6 23.9 155.25 0.0 176.0 1.25 201.85 21.75 202.3 22.3 214.85 50.1 261.9 64.0 262.5 64.4 293.55 95.0 293.85 95.35 317.35 138.8 317.5 139.25 330.35 213.35 330.1 214.55 329.8 214.85 318.2 216.3 330.8 230.05 330.6 230.95 311.4 254.0 310.0 254.1 281.9 243.0 281.65 242.55 Q281.4 241.85 281.55 241.2 L283.65 234.6 280.95 230.6 289.75 219.5 277.2 220.9 Q273.95 215.25 272.5 208.75 L270.7 201.8 267.7 191.5 266.65 188.0 268.7 204.8 267.3 252.75 267.1 253.6 265.85 254.2 162.1 255.2 59.6 254.75 58.85 254.55 58.1 253.2 60.15 189.05 61.4 186.2 Q61.7 185.25 61.15 184.55 L60.3 184.55 63.9 145.55 79.45 83.7 Q79.65 82.75 80.7 82.6 L81.3 82.6 81.8 82.95 82.1 83.3 82.35 84.45 66.9 145.9 63.35 183.5 61.15 251.75 160.65 252.2 162.35 139.5 Q162.4 138.8 163.0 138.3 L165.6 136.4 111.55 98.15 Q110.95 97.75 110.95 96.9 L111.05 96.45 111.25 96.0 111.6 95.65 120.1 90.3 96.25 87.15 95.85 86.75 95.55 86.35 95.4 85.85 94.9 60.5 74.25 67.65 25.85 124.35 5.2 176.7 3.1 219.8 43.55 224.4 44.15 226.05 44.05 226.5 44.75 227.05 45.1 226.3 46.0 225.95 M291.3 96.95 L260.7 66.8 230.1 57.75 228.95 82.3 215.95 87.4 226.2 92.9 226.0 95.0 165.35 140.3 163.65 252.2 264.35 251.25 265.7 204.9 262.8 181.4 255.55 129.6 238.75 73.4 238.85 72.25 239.75 71.55 240.35 71.6 240.85 71.75 241.3 72.1 241.6 72.55 258.5 129.1 265.75 180.95 267.9 184.3 278.8 217.7 327.1 212.3 314.6 140.05 291.3 96.95 M186.6 23.6 L186.35 23.05 182.1 23.15 175.3 27.5 Q178.5 26.65 181.75 27.65 182.65 27.9 182.9 29.0 L182.5 30.0 182.1 30.15 Q176.0 27.95 170.45 31.65 184.5 32.8 195.55 41.4 199.75 44.65 199.8 50.0 L199.2 50.65 198.0 50.0 Q188.0 43.0 176.85 38.35 168.6 34.95 161.95 36.75 155.3 38.5 148.4 42.05 141.45 45.55 131.7 53.95 L130.7 53.2 Q136.35 42.0 148.2 37.55 152.55 35.95 157.0 35.45 L163.55 34.5 Q166.8 34.0 169.95 34.55 185.55 37.85 197.6 48.0 195.1 41.7 188.4 38.95 L182.05 36.5 Q175.95 34.1 169.7 33.35 L169.4 32.6 168.5 32.9 167.7 32.2 Q173.6 24.7 182.55 21.8 L185.2 21.9 Q186.65 22.4 187.65 23.45 L187.1 23.9 186.6 23.6 M179.55 7.9 L174.5 3.9 156.8 2.65 152.35 6.6 131.0 25.7 114.8 51.25 151.0 62.25 151.95 63.15 176.8 63.9 176.65 62.65 176.75 62.15 177.1 61.65 177.5 61.35 210.7 48.25 199.65 23.85 179.55 7.9 M162.7 22.9 L163.8 22.7 164.4 23.6 164.35 31.75 163.4 32.35 162.5 31.75 162.7 22.9 M177.45 66.85 L174.5 67.05 151.35 66.1 148.05 76.2 159.05 86.05 172.4 84.45 179.3 75.4 177.45 66.85 M183.7 81.55 L195.5 80.65 211.75 51.55 211.4 51.2 179.8 63.7 183.7 81.55 M180.1 79.25 L175.0 85.95 184.05 101.3 193.75 83.8 182.1 84.65 181.05 83.5 180.1 79.25 M211.65 88.4 L211.2 88.1 Q210.4 87.1 211.3 86.1 L211.75 85.75 226.3 80.35 227.15 56.85 214.3 53.05 169.55 133.45 222.3 94.05 211.65 88.4 M167.25 131.45 L182.35 104.35 172.4 87.5 159.45 89.05 148.9 106.1 167.25 131.45 M144.05 23.9 L143.65 23.25 143.8 22.5 Q145.25 22.1 146.65 22.5 155.6 25.65 161.65 33.0 L160.85 33.9 Q156.4 30.1 150.45 30.3 L150.1 29.25 Q151.8 27.75 153.95 28.35 L153.05 27.55 Q149.25 24.1 144.05 23.9 M113.05 53.85 L112.1 55.2 142.6 83.25 148.65 64.65 113.05 53.85 M137.95 46.4 L136.65 47.75 154.5 37.25 Q143.55 40.95 137.95 46.4 M97.9 59.5 L98.4 84.5 124.6 87.9 125.8 88.75 125.65 90.15 115.1 97.0 163.25 131.05 108.9 55.9 97.9 59.5 M156.6 87.9 L147.0 79.3 144.5 86.1 Q144.25 86.65 143.65 86.85 L142.8 86.7 120.45 66.55 147.0 103.45 156.6 87.9 M291.5 228.15 L291.4 227.6 Q291.45 227.3 291.65 227.05 L293.45 227.0 Q295.25 230.3 296.4 233.95 296.9 235.65 295.0 235.9 294.45 235.6 294.2 235.2 293.35 233.7 292.75 232.1 L290.5 234.6 289.9 234.95 289.6 235.2 286.8 234.8 284.4 240.75 310.1 250.9 327.45 230.1 314.4 216.75 293.75 219.05 284.2 230.6 285.1 231.7 288.8 232.05 291.65 228.75 291.5 228.15 M44.25 237.75 L43.25 227.4 9.55 223.6 4.35 234.45 32.25 253.05 40.0 246.45 31.15 237.55 Q30.6 236.85 30.8 236.0 L31.05 235.4 32.45 235.35 Q36.2 238.05 39.7 241.15 L44.25 237.75" fill="#1a1a1a" fill-rule="evenodd" stroke="none"/>
    <path d="M43.55 224.4 L3.1 219.8 5.2 176.7 25.85 124.35 74.25 67.65 94.9 60.5 95.4 85.85 95.55 86.35 95.85 86.75 96.25 87.15 120.1 90.3 111.6 95.65 111.25 96.0 111.05 96.45 110.95 96.9 Q110.95 97.75 111.55 98.15 L165.6 136.4 163.0 138.3 Q162.4 138.8 162.35 139.5 L160.65 252.2 61.15 251.75 63.35 183.5 66.9 145.9 82.35 84.45 82.1 83.3 81.8 82.95 81.3 82.6 80.7 82.6 Q79.65 82.75 79.45 83.7 L63.9 145.55 60.3 184.55 Q54.1 192.3 49.9 201.2 L49.65 201.95 43.55 224.4 M291.3 96.95 L314.6 140.05 327.1 212.3 278.8 217.7 267.9 184.3 265.75 180.95 258.5 129.1 241.6 72.55 241.3 72.1 240.85 71.75 240.35 71.6 239.75 71.55 238.85 72.25 238.75 73.4 255.55 129.6 262.8 181.4 265.7 204.9 264.35 251.25 163.65 252.2 165.35 140.3 226.0 95.0 226.2 92.9 215.95 87.4 228.95 82.3 230.1 57.75 260.7 66.8 291.3 96.95 M211.65 88.4 L222.3 94.05 169.55 133.45 214.3 53.05 227.15 56.85 226.3 80.35 211.75 85.75 211.3 86.1 Q210.4 87.1 211.2 88.1 L211.65 88.4 M97.9 59.5 L108.9 55.9 163.25 131.05 115.1 97.0 125.65 90.15 125.8 88.75 124.6 87.9 98.4 84.5 97.9 59.5" fill="#106557" fill-rule="evenodd" stroke="none"/>
    <path d="M180.1 79.25 L181.05 83.5 182.1 84.65 193.75 83.8 184.05 101.3 175.0 85.95 180.1 79.25 M183.7 81.55 L179.8 63.7 211.4 51.2 211.75 51.55 195.5 80.65 183.7 81.55 M137.95 46.4 Q143.55 40.95 154.5 37.25 L136.65 47.75 137.95 46.4 M113.05 53.85 L148.65 64.65 142.6 83.25 112.1 55.2 113.05 53.85 M156.6 87.9 L147.0 103.45 120.45 66.55 142.8 86.7 143.65 86.85 Q144.25 86.65 144.5 86.1 L147.0 79.3 156.6 87.9 M44.25 237.75 L39.7 241.15 Q36.2 238.05 32.45 235.35 L31.05 235.4 30.8 236.0 Q30.6 236.85 31.15 237.55 L40.0 246.45 32.25 253.05 4.35 234.45 9.55 223.6 43.25 227.4 44.25 237.75 M291.5 228.15 L291.65 228.75 288.8 232.05 285.1 231.7 284.2 230.6 293.75 219.05 314.4 216.75 327.45 230.1 310.1 250.9 284.4 240.75 286.8 234.8 289.6 235.2 289.9 234.95 290.5 234.6 292.75 232.1 Q293.35 233.7 294.2 235.2 294.45 235.6 295.0 235.9 296.9 235.65 296.4 233.95 295.25 230.3 293.45 227.0 L291.65 227.05 Q291.45 227.3 291.4 227.6 L291.5 228.15" fill="#c1d9cb" fill-rule="evenodd" stroke="none"/>
    <path d="M152.35 6.6 L156.8 2.65 174.5 3.9 179.55 7.9 152.35 6.6 M177.45 66.85 L179.3 75.4 172.4 84.45 159.05 86.05 148.05 76.2 151.35 66.1 174.5 67.05 177.45 66.85 M167.25 131.45 L148.9 106.1 159.45 89.05 172.4 87.5 182.35 104.35 167.25 131.45" fill="#0e4239" fill-rule="evenodd" stroke="none"/>
    <path d="M46.0 225.95 L45.1 226.3 44.75 227.05 44.05 226.5 44.15 226.05 43.55 224.4 49.65 201.95 49.9 201.2 Q54.1 192.3 60.3 184.55 L61.15 184.55 Q61.7 185.25 61.4 186.2 L60.15 189.05 52.9 200.65 53.05 201.1 46.0 225.95" fill="#000000" fill-rule="evenodd" stroke="none"/>
    <path d="M186.6 23.6 L187.1 23.9 187.65 23.45 Q186.65 22.4 185.2 21.9 L182.55 21.8 Q173.6 24.7 167.7 32.2 L168.5 32.9 169.4 32.6 169.7 33.35 Q175.95 34.1 182.05 36.5 L188.4 38.95 Q195.1 41.7 197.6 48.0 185.55 37.85 169.95 34.55 166.8 34.0 163.55 34.5 L157.0 35.45 Q152.55 35.95 148.2 37.55 136.35 42.0 130.7 53.2 L131.7 53.95 Q141.45 45.55 148.4 42.05 155.3 38.5 161.95 36.75 168.6 34.95 176.85 38.35 188.0 43.0 198.0 50.0 L199.2 50.65 199.8 50.0 Q199.75 44.65 195.55 41.4 184.5 32.8 170.45 31.65 176.0 27.95 182.1 30.15 L182.5 30.0 182.9 29.0 Q182.65 27.9 181.75 27.65 178.5 26.65 175.3 27.5 L182.1 23.15 186.35 23.05 186.6 23.6 M152.35 6.6 L179.55 7.9 199.65 23.85 210.7 48.25 177.5 61.35 177.1 61.65 176.75 62.15 176.65 62.65 176.8 63.9 151.95 63.15 151.0 62.25 114.8 51.25 131.0 25.7 152.35 6.6 M162.7 22.9 L162.5 31.75 163.4 32.35 164.35 31.75 164.4 23.6 163.8 22.7 162.7 22.9 M144.05 23.9 Q149.25 24.1 153.05 27.55 L153.95 28.35 Q151.8 27.75 150.1 29.25 L150.45 30.3 Q156.4 30.1 160.85 33.9 L161.65 33.0 Q155.6 25.65 146.65 22.5 145.25 22.1 143.8 22.5 L143.65 23.25 144.05 23.9" fill="#edf3ef" fill-rule="evenodd" stroke="none"/>
  </g>
</svg>
