<?xml version="1.0" encoding="UTF-8" standalone="no"?>
<svg xmlns:xlink="http://www.w3.org/1999/xlink" height="18.95px" width="17.65px" xmlns="http://www.w3.org/2000/svg">
  <g transform="matrix(1.0, 0.0, 0.0, 1.0, 0.0, 0.0)">
    <path d="M14.4 1.95 L14.55 2.0 14.45 1.9 13.75 1.45 14.8 2.1 13.85 2.0 12.45 1.3 12.45 1.25 12.55 1.25 14.3 1.95 14.45 2.0 14.35 1.95 14.05 1.7 14.4 1.95 M10.55 0.4 L10.7 0.55 10.5 0.4 10.4 0.3 10.55 0.4 M10.45 0.35 L10.8 0.65 10.4 0.35 10.3 0.25 10.45 0.35 M11.95 0.85 L12.3 1.15 10.85 0.35 11.95 0.85 M10.6 0.25 L10.15 0.15 9.95 0.0 10.6 0.25" fill="#61bc7a" fill-rule="evenodd" stroke="none"/>
    <path d="M14.45 1.9 L14.55 2.0 14.4 1.95 14.45 1.9 M14.35 1.95 L14.45 2.0 14.3 1.95 14.35 1.95 M12.3 1.15 L10.55 0.4 10.4 0.3 10.5 0.4 10.45 0.35 10.3 0.25 10.4 0.35 10.15 0.25 10.05 0.2 10.1 0.2 10.15 0.15 10.6 0.25 10.85 0.35 12.3 1.15" fill="#a3d9a9" fill-rule="evenodd" stroke="none"/>
    <path d="M14.45 1.9 L14.4 1.95 14.05 1.7 14.35 1.95 14.3 1.95 12.55 1.25 12.55 1.2 12.4 1.05 11.95 0.85 10.85 0.35 10.6 0.25 9.95 0.0 10.15 0.15 10.1 0.2 9.95 0.0 Q13.0 0.2 14.8 2.1 L13.75 1.45 14.45 1.9 M12.45 1.25 L12.45 1.3 13.85 2.0 12.35 1.55 12.45 1.3 12.45 1.25 M12.4 1.25 L12.25 1.5 Q10.75 1.05 10.15 0.25 L10.4 0.35 10.8 0.65 10.45 0.35 10.5 0.4 10.7 0.55 10.55 0.4 12.3 1.15 12.4 1.25" fill="#bce4ae" fill-rule="evenodd" stroke="none"/>
    <path d="M12.45 1.3 L12.35 1.55 12.1 2.05 12.05 2.0 12.25 1.5 12.4 1.25 12.45 1.3 M12.4 1.05 L12.55 1.2 12.3 1.15 12.4 1.05" fill="#2fa466" fill-rule="evenodd" stroke="none"/>
    <path d="M12.55 1.25 L12.45 1.25 12.45 1.3 12.4 1.25 12.3 1.15 12.55 1.2 12.55 1.25 M12.4 1.05 L12.3 1.15 11.95 0.85 12.4 1.05" fill="#01563e" fill-rule="evenodd" stroke="none"/>
    <path d="M12.05 2.0 L12.1 2.05 13.95 3.3 12.45 7.05 12.35 7.05 13.65 3.8 12.7 3.35 Q11.95 3.1 11.45 3.35 L10.9 2.45 9.9 2.3 8.1 5.2 8.05 5.15 9.9 1.45 12.05 2.0 M12.2 3.8 L12.9 4.3 12.2 3.95 11.5 4.2 12.65 4.35 11.6 4.4 11.3 4.95 12.25 6.4 11.75 7.0 11.95 6.55 11.35 6.25 11.25 6.0 12.0 6.4 10.15 4.65 8.8 4.75 9.75 5.25 9.25 5.15 8.65 4.85 8.4 5.5 8.45 4.65 10.3 4.5 10.7 3.95 10.15 3.25 10.8 3.85 10.55 4.65 11.15 4.95 11.3 4.15 12.2 3.8 M10.6 6.5 L8.45 5.85 8.35 7.15 9.5 6.8 10.55 7.05 11.95 7.1 11.5 7.5 9.95 8.7 10.55 8.2 10.2 7.6 9.7 7.9 9.45 9.1 8.45 9.85 11.35 9.3 11.45 8.65 11.9 8.8 12.45 8.45 12.1 9.0 11.45 8.8 11.45 9.45 8.65 9.95 Q9.1 10.3 8.85 11.0 8.45 11.8 7.65 11.45 6.8 11.1 7.2 10.25 7.55 9.55 8.25 9.8 7.55 9.6 7.3 10.25 6.95 10.95 7.7 11.25 8.45 11.6 8.8 10.9 9.15 10.2 8.45 9.85 L8.25 9.8 8.35 5.8 8.2 5.45 10.6 6.5 M15.8 11.65 L16.3 11.25 16.9 12.5 16.0 11.55 15.45 11.9 15.7 12.55 11.4 10.4 11.45 10.3 15.2 11.75 15.8 11.65 M10.8 3.85 L10.7 3.45 10.9 3.55 10.8 3.85 M11.8 7.15 L10.05 7.15 10.55 8.2 11.8 7.15 M6.15 17.55 L5.5 18.95 4.65 17.75 4.15 18.3 3.45 18.15 3.9 16.0 4.3 16.25 4.5 16.55 4.75 16.55 5.1 16.75 5.75 17.25 5.8 17.35 5.85 17.3 6.15 17.55 M4.5 13.15 L4.55 12.85 4.65 12.85 7.25 12.6 8.5 14.3 8.55 14.35 8.1 14.75 7.8 13.7 7.1 13.15 5.3 16.6 5.05 16.55 5.1 16.5 6.5 13.7 Q6.15 12.95 5.6 12.95 5.1 12.95 4.5 13.4 L4.5 13.15 M5.65 7.8 L1.05 5.9 2.4 5.95 2.25 5.3 2.3 4.9 Q2.2 5.55 2.55 6.15 L5.7 7.7 5.65 7.8 M0.95 5.7 L0.05 5.4 1.25 5.65 1.65 5.7 0.95 5.7 M7.05 5.7 L7.5 5.45 7.2 6.2 7.3 6.45 6.8 5.95 7.05 5.7 M9.25 7.15 L8.35 7.2 8.3 8.85 9.35 7.7 9.25 7.15 M7.3 6.5 L8.0 9.7 6.85 6.95 7.3 6.5 M17.65 13.15 L16.45 12.95 16.35 12.9 16.4 12.9 16.45 12.95 16.45 12.9 16.6 12.85 Q16.15 12.45 17.65 13.15" fill="#0b0c3b" fill-rule="evenodd" stroke="none"/>
    <path d="M11.6 4.4 L12.65 4.35 11.5 4.2 12.2 3.95 12.9 4.3 12.2 3.8 13.15 4.4 13.3 3.65 12.7 3.35 13.65 3.8 12.35 7.05 11.75 7.0 12.25 6.4 11.3 4.95 11.6 4.4 Q11.7 5.1 12.0 4.85 12.25 4.6 12.6 4.45 L11.6 4.4 M11.3 4.15 L11.15 4.95 10.55 4.65 10.8 3.85 10.15 3.25 10.7 3.95 10.3 4.5 8.45 4.65 8.4 5.5 8.65 4.85 9.25 5.15 Q9.25 5.6 9.9 5.95 L11.35 6.25 11.95 6.55 11.75 7.0 10.6 6.5 8.2 5.45 8.0 5.35 8.1 5.2 9.9 2.3 9.6 2.9 10.7 3.45 10.8 3.85 10.9 3.55 11.05 4.8 11.3 4.15 M9.75 5.25 L8.8 4.75 10.15 4.65 12.0 6.4 11.25 6.0 Q10.8 5.4 9.75 5.25 M0.05 5.4 L0.0 5.05 1.25 5.65 0.05 5.4 M16.35 12.9 Q16.0 12.9 15.75 12.6 L15.7 12.55 15.45 11.9 16.2 12.65 16.4 12.9 16.35 12.9 M16.6 12.85 L16.45 12.9 16.2 12.65 16.6 12.85 M9.7 3.2 L10.2 4.05 9.8 4.3 10.55 3.9 9.7 3.2" fill="#1d5d91" fill-rule="evenodd" stroke="none"/>
    <path d="M11.6 4.4 L12.6 4.45 Q12.25 4.6 12.0 4.85 11.7 5.1 11.6 4.4 M12.7 3.35 L13.3 3.65 13.15 4.4 12.2 3.8 11.3 4.15 11.05 4.8 10.9 3.55 10.7 3.45 9.6 2.9 9.9 2.3 10.9 2.45 11.45 3.35 Q11.95 3.1 12.7 3.35 M9.25 5.15 L9.75 5.25 Q10.8 5.4 11.25 6.0 L11.35 6.25 9.9 5.95 Q9.25 5.6 9.25 5.15 M1.05 5.9 L0.95 5.7 1.65 5.7 1.25 5.65 0.0 5.05 2.25 5.3 2.4 5.95 1.05 5.9 M15.45 11.9 L16.0 11.55 16.9 12.5 17.65 13.15 Q16.15 12.45 16.6 12.85 L16.2 12.65 15.45 11.9 M9.7 3.2 L10.55 3.9 9.8 4.3 10.2 4.05 9.7 3.2" fill="#3b95b4" fill-rule="evenodd" stroke="none"/>
    <path d="M11.75 7.0 L12.35 7.05 12.45 7.05 12.55 8.2 Q14.55 10.1 16.3 11.25 L15.8 11.65 12.1 9.0 12.45 8.45 11.9 8.8 11.5 7.5 11.95 7.1 10.55 7.05 8.95 6.25 8.45 5.85 10.6 6.5 11.75 7.0 M8.1 5.2 L8.0 5.35 8.2 5.45 8.35 5.8 7.2 6.2 7.5 5.45 Q7.75 5.25 8.05 5.15 L8.1 5.2 M2.3 4.9 L7.05 5.7 6.8 5.95 7.3 6.45 2.35 5.5 2.3 4.9" fill="#4e4e83" fill-rule="evenodd" stroke="none"/>
    <path d="M8.95 6.25 L10.55 7.05 9.5 6.8 8.95 6.25 M11.5 7.5 L11.9 8.8 11.45 8.65 11.35 9.3 8.45 9.85 9.45 9.1 9.95 8.7 11.5 7.5 M12.1 9.0 L15.8 11.65 15.2 11.75 11.45 10.3 11.4 10.4 10.7 11.35 8.5 14.3 7.25 12.6 4.65 12.85 5.9 6.8 5.7 7.7 2.55 6.15 Q2.2 5.55 2.3 4.9 L2.35 5.5 7.3 6.45 7.2 6.2 8.35 5.8 8.25 9.8 Q7.55 9.55 7.2 10.25 6.8 11.1 7.65 11.45 8.45 11.8 8.85 11.0 9.1 10.3 8.65 9.95 L11.45 9.45 11.45 8.8 12.1 9.0 M4.0 15.4 L4.4 13.6 4.5 13.4 Q5.1 12.95 5.6 12.95 6.15 12.95 6.5 13.7 L5.1 16.5 4.75 16.55 4.5 16.55 4.3 16.25 4.0 15.4 M7.3 6.5 L6.85 6.95 8.0 9.7 7.3 6.5 M8.1 14.75 L5.85 17.3 5.8 17.35 5.75 17.25 5.3 16.6 7.1 13.15 7.8 13.7 8.1 14.75" fill="#252d6c" fill-rule="evenodd" stroke="none"/>
    <path d="M8.45 5.85 L8.95 6.25 9.5 6.8 8.35 7.15 8.45 5.85 M9.45 9.1 L9.7 7.9 10.2 7.6 10.55 8.2 9.95 8.7 9.45 9.1 M11.8 7.15 L10.55 8.2 10.05 7.15 11.8 7.15 M9.25 7.15 L9.35 7.7 8.3 8.85 8.35 7.2 9.25 7.15" fill="#a2b8be" fill-rule="evenodd" stroke="none"/>
    <path d="M10.7 11.35 L8.55 14.35 6.15 17.55 5.85 17.3 8.1 14.75 8.55 14.35 8.5 14.3 10.7 11.35 M3.9 16.0 L4.0 15.4 4.3 16.25 3.9 16.0 M4.4 13.6 L4.5 13.15 4.5 13.4 4.4 13.6 M4.55 12.85 L5.65 7.8 5.7 7.7 5.9 6.8 4.65 12.85 4.55 12.85 M5.3 16.6 L5.75 17.25 5.1 16.75 4.75 16.55 5.1 16.5 5.05 16.55 5.3 16.6" fill="#0b2365" fill-rule="evenodd" stroke="none"/>
    <path d="M8.45 9.85 Q9.15 10.2 8.8 10.9 8.45 11.6 7.7 11.25 6.95 10.95 7.3 10.25 7.55 9.6 8.25 9.8 L8.45 9.85 M8.3 10.0 L8.25 9.95 Q7.1 9.95 7.55 11.05 L7.8 11.2 8.25 11.15 8.3 11.15 8.3 11.1 Q9.05 10.85 8.3 10.0" fill="#4c9d4b" fill-rule="evenodd" stroke="none"/>
    <path d="M8.25 9.95 L8.3 10.0 8.3 11.1 8.3 11.15 8.25 11.15 7.55 10.8 8.25 9.95" fill="#9dc278" fill-rule="evenodd" stroke="none"/>
    <path d="M8.3 10.0 Q9.05 10.85 8.3 11.1 L8.3 10.0 M8.25 11.15 L7.8 11.2 7.55 11.05 Q7.1 9.95 8.25 9.95 L7.55 10.8 8.25 11.15" fill="#2c5b33" fill-rule="evenodd" stroke="none"/>
    <path d="M16.45 12.9 L16.45 12.95 16.4 12.9 16.2 12.65 16.45 12.9" fill="#c59799" fill-rule="evenodd" stroke="none"/>
  </g>
</svg>
