<?xml version="1.0" encoding="UTF-8" standalone="no"?>
<svg xmlns:xlink="http://www.w3.org/1999/xlink" height="263.05px" width="214.35px" xmlns="http://www.w3.org/2000/svg">
  <g transform="matrix(1.0, 0.0, 0.0, 1.0, 0.0, 0.0)">
    <path d="M151.2 24.4 L153.0 26.0 146.1 53.25 140.15 54.95 Q141.9 46.0 142.45 36.8 142.85 29.55 145.75 23.35 L150.55 24.75 151.2 24.4 M124.8 32.15 Q132.6 27.4 141.4 25.0 139.45 37.35 137.9 49.8 L136.85 55.85 123.55 58.0 Q125.6 45.15 124.8 32.15 M80.75 65.15 L81.05 68.6 Q79.05 67.7 77.5 66.45 L73.9 63.4 Q77.1 64.8 80.75 65.15 M84.05 69.75 L83.8 65.05 94.35 63.75 94.95 71.35 Q88.6 71.15 84.05 69.75 M78.5 61.6 Q74.05 60.6 70.1 58.1 L60.1 30.75 66.35 24.3 74.5 27.95 Q75.7 45.1 80.1 62.05 L78.5 61.6 M105.9 38.05 L106.95 38.0 107.15 60.5 97.05 60.6 94.7 35.95 Q100.05 38.15 105.9 38.05 M138.65 62.8 L139.45 58.3 144.15 56.95 Q141.85 60.4 138.65 62.8 M122.7 68.2 L123.05 61.05 136.25 58.95 135.25 64.85 Q129.2 67.6 122.7 68.2 M110.4 63.2 L120.0 61.6 Q119.55 65.9 119.7 68.8 L111.5 70.15 110.4 63.2 M122.0 33.45 L122.0 40.85 120.45 58.5 110.15 60.2 109.95 37.45 122.0 33.45 M94.05 60.75 L83.25 62.05 81.65 55.75 Q78.4 42.6 77.5 29.0 L91.7 34.85 94.05 60.75 M107.4 63.5 L108.55 70.5 97.95 71.35 97.35 63.6 107.4 63.5" fill="#ffffff" fill-rule="evenodd" stroke="none"/>
    <path d="M151.2 24.4 L150.55 24.75 145.75 23.35 Q142.85 29.55 142.45 36.8 141.9 46.0 140.15 54.95 L146.1 53.25 153.0 26.0 151.2 24.4 M209.0 118.8 L214.35 166.25 214.35 166.7 200.2 236.1 202.6 240.0 202.85 240.9 Q195.3 248.4 186.65 255.0 L181.25 258.85 181.05 259.0 163.4 241.0 164.6 238.8 155.7 200.55 147.95 207.2 155.65 261.15 155.55 262.1 154.15 262.85 86.2 262.85 Q72.7 263.05 59.35 262.7 L58.95 262.35 58.45 261.2 63.25 211.05 50.1 196.45 43.75 231.5 44.9 232.0 45.85 232.55 46.7 233.4 47.5 234.65 45.0 242.4 48.85 248.45 29.5 263.05 Q20.5 255.7 12.15 247.35 L6.8 242.0 6.45 241.45 8.25 238.0 2.45 214.5 0.0 168.95 7.35 120.9 8.1 119.65 74.8 78.75 57.2 29.65 68.5 17.75 Q74.1 12.0 80.05 6.6 81.35 5.5 83.1 4.95 99.3 -0.25 116.7 0.0 L120.8 0.1 129.4 0.8 155.8 24.9 Q152.45 40.8 148.4 56.55 L146.5 63.65 142.8 77.95 145.55 79.95 176.0 98.25 176.35 98.5 208.8 118.15 209.0 118.8 M173.85 100.45 L145.5 83.4 134.9 117.9 133.7 118.95 129.3 113.85 109.25 154.45 95.35 180.7 152.95 124.35 142.55 117.75 142.25 116.3 172.95 111.3 173.85 100.45 M156.4 125.15 L91.1 189.05 87.8 259.85 152.45 259.85 144.9 206.8 144.95 206.1 155.5 196.8 178.9 161.35 204.35 118.8 176.7 102.2 175.45 113.2 148.0 117.7 156.7 124.05 156.4 125.15 M181.45 162.95 L158.2 198.1 166.4 233.6 174.35 223.4 Q174.45 223.25 174.6 223.2 174.95 222.95 175.4 222.8 L187.85 222.2 188.15 222.35 197.65 233.45 211.35 166.35 206.25 121.45 181.45 162.95 M125.3 4.4 L124.8 5.35 Q117.05 5.25 110.8 10.1 112.95 12.4 114.25 15.25 122.6 20.65 132.75 20.6 L143.05 20.9 143.5 21.55 144.85 21.65 145.45 21.35 148.65 22.1 127.8 3.35 Q108.1 2.0 88.7 6.15 92.9 7.6 95.3 11.4 102.1 7.6 109.45 9.3 115.7 2.5 124.9 3.75 L125.3 4.4 M126.05 12.55 Q120.3 7.9 114.05 11.95 L113.3 10.75 113.75 10.3 Q121.4 4.8 126.7 11.65 L126.05 12.55 M113.85 19.7 L116.3 21.4 117.25 19.5 114.45 17.2 113.85 19.7 M113.45 22.25 L112.75 21.6 Q104.05 29.7 94.55 22.6 L90.3 23.75 Q88.7 22.2 89.3 20.1 81.7 24.15 73.05 24.15 87.95 31.3 104.1 34.65 107.95 35.4 111.7 34.15 126.15 29.45 139.75 22.35 129.1 23.7 118.85 21.0 L117.9 22.25 Q115.65 24.45 113.45 22.25 M124.8 32.15 Q125.6 45.15 123.55 58.0 L136.85 55.85 137.9 49.8 Q139.45 37.35 141.4 25.0 132.6 27.4 124.8 32.15 M85.4 7.1 Q75.95 13.6 68.45 22.1 L69.55 22.65 69.8 22.3 Q81.35 22.7 91.5 17.05 L91.95 17.85 91.2 21.6 Q93.95 19.9 96.45 21.6 100.15 24.2 104.6 23.9 112.6 22.9 112.25 15.05 104.45 7.35 94.95 13.8 91.65 8.95 85.95 7.75 L85.4 7.1 M79.3 15.4 L78.55 14.6 Q83.7 8.45 91.0 12.6 L90.6 14.1 Q85.35 11.55 80.65 14.95 L79.3 15.4 M105.9 38.05 Q100.05 38.15 94.7 35.95 L97.05 60.6 107.15 60.5 106.95 38.0 105.9 38.05 M78.5 61.6 L80.1 62.05 Q75.7 45.1 74.5 27.95 L66.35 24.3 60.1 30.75 70.1 58.1 Q74.05 60.6 78.5 61.6 M84.05 69.75 Q88.6 71.15 94.95 71.35 L94.35 63.75 83.8 65.05 84.05 69.75 M80.75 65.15 Q77.1 64.8 73.9 63.4 L77.5 66.45 Q79.05 67.7 81.05 68.6 L80.75 65.15 M77.75 78.1 L100.8 87.45 101.05 87.8 100.75 89.3 107.4 142.1 112.25 87.7 Q125.65 81.85 139.85 77.4 L143.8 62.2 Q140.15 66.35 134.9 68.25 122.9 72.5 110.05 72.85 L109.45 73.45 96.9 74.65 Q83.85 74.9 73.7 67.15 L77.75 78.1 M107.4 63.5 L97.35 63.6 97.95 71.35 108.55 70.5 107.4 63.5 M94.05 60.75 L91.7 34.85 77.5 29.0 Q78.4 42.6 81.65 55.75 L83.25 62.05 94.05 60.75 M122.0 33.45 L109.95 37.45 110.15 60.2 120.45 58.5 122.0 40.85 122.0 33.45 M110.4 63.2 L111.5 70.15 119.7 68.8 Q119.55 65.9 120.0 61.6 L110.4 63.2 M122.7 68.2 Q129.2 67.6 135.25 64.85 L136.25 58.95 123.05 61.05 122.7 68.2 M138.65 62.8 Q141.85 60.4 144.15 56.95 L139.45 58.3 138.65 62.8 M140.8 80.25 L116.1 88.55 132.95 114.0 142.85 81.7 140.8 80.25 M43.15 108.5 L72.45 111.75 Q73.95 111.75 73.7 113.1 L73.25 113.75 58.6 119.7 102.35 160.95 106.0 154.2 105.85 153.75 87.5 109.25 82.8 116.25 82.35 116.45 Q81.1 116.9 80.9 115.65 78.0 98.7 75.55 81.75 L41.95 102.4 43.15 108.5 M39.2 104.05 L10.75 121.5 32.6 168.7 Q49.05 190.1 66.3 210.65 L61.6 259.85 84.8 259.85 88.1 188.35 100.9 163.7 54.8 120.25 54.5 118.9 Q59.65 115.4 65.85 113.75 L41.75 111.4 Q40.7 111.25 40.5 110.2 L39.2 104.05 M9.6 126.0 L3.0 168.9 5.45 214.25 10.6 235.05 Q15.2 229.2 19.95 223.5 20.3 223.1 20.8 223.1 24.85 222.1 28.35 223.25 34.8 225.4 40.65 229.4 40.45 223.9 41.5 218.7 43.95 206.35 47.65 194.3 L30.0 170.15 9.6 126.0 M114.9 92.15 L110.1 145.95 127.4 110.95 114.9 92.15 M89.5 106.25 L104.4 142.45 98.15 93.15 89.5 106.25 M82.75 111.0 L97.35 89.0 78.55 81.65 82.75 111.0 M25.3 244.65 L25.9 240.95 25.9 240.85 Q25.8 238.2 27.45 236.6 28.3 235.7 29.0 236.85 30.0 238.45 29.05 240.4 35.25 243.85 41.95 242.1 L44.2 235.45 28.3 224.45 21.85 225.7 9.8 240.9 29.2 259.6 45.3 247.6 43.1 244.9 Q35.45 247.1 28.45 243.4 28.6 246.1 26.35 246.5 25.15 246.0 25.3 244.65 M176.25 225.75 L168.85 235.35 169.2 236.4 175.7 241.85 178.8 241.25 178.55 240.6 178.5 240.05 Q178.6 239.5 179.0 239.1 180.35 237.9 181.15 239.55 L183.4 244.7 182.95 245.75 182.45 246.05 181.9 246.1 181.3 246.05 180.9 245.65 180.0 244.05 175.55 244.95 Q174.9 244.75 174.45 244.4 L168.05 239.4 166.75 240.9 181.65 255.8 199.35 240.05 186.6 225.1 176.25 225.75" fill="#1a1a1a" fill-rule="evenodd" stroke="none"/>
    <path d="M181.45 162.95 L206.25 121.45 211.35 166.35 197.65 233.45 188.15 222.35 187.85 222.2 175.4 222.8 Q174.95 222.95 174.6 223.2 174.45 223.25 174.35 223.4 L166.4 233.6 158.2 198.1 181.45 162.95 M156.4 125.15 L156.7 124.05 148.0 117.7 175.45 113.2 176.7 102.2 204.35 118.8 178.9 161.35 155.5 196.8 144.95 206.1 144.9 206.8 152.45 259.85 87.8 259.85 91.1 189.05 156.4 125.15 M173.85 100.45 L172.95 111.3 142.25 116.3 142.55 117.75 152.95 124.35 95.35 180.7 109.25 154.45 129.3 113.85 133.7 118.95 134.9 117.9 145.5 83.4 173.85 100.45 M9.6 126.0 L30.0 170.15 47.65 194.3 Q43.95 206.35 41.5 218.7 40.45 223.9 40.65 229.4 34.8 225.4 28.35 223.25 24.85 222.1 20.8 223.1 20.3 223.1 19.95 223.5 15.2 229.2 10.6 235.05 L5.45 214.25 3.0 168.9 9.6 126.0 M39.2 104.05 L40.5 110.2 Q40.7 111.25 41.75 111.4 L65.85 113.75 Q59.65 115.4 54.5 118.9 L54.8 120.25 100.9 163.7 88.1 188.35 84.8 259.85 61.6 259.85 66.3 210.65 Q49.05 190.1 32.6 168.7 L10.75 121.5 39.2 104.05 M43.15 108.5 L41.95 102.4 75.55 81.75 Q78.0 98.7 80.9 115.65 81.1 116.9 82.35 116.45 L82.8 116.25 87.5 109.25 105.85 153.75 106.0 154.2 102.35 160.95 58.6 119.7 73.25 113.75 73.7 113.1 Q73.95 111.75 72.45 111.75 L43.15 108.5" fill="#8d254e" fill-rule="evenodd" stroke="none"/>
    <path d="M126.05 12.55 L126.7 11.65 Q121.4 4.8 113.75 10.3 L113.3 10.75 114.05 11.95 Q120.3 7.9 126.05 12.55 M125.3 4.4 L124.9 3.75 Q115.7 2.5 109.45 9.3 102.1 7.6 95.3 11.4 92.9 7.6 88.7 6.15 108.1 2.0 127.8 3.35 L148.65 22.1 145.45 21.35 144.85 21.65 143.5 21.55 143.05 20.9 132.75 20.6 Q122.6 20.65 114.25 15.25 112.95 12.4 110.8 10.1 117.05 5.25 124.8 5.35 L125.3 4.4 M113.45 22.25 Q115.65 24.45 117.9 22.25 L118.85 21.0 Q129.1 23.7 139.75 22.35 126.15 29.45 111.7 34.15 107.95 35.4 104.1 34.65 87.95 31.3 73.05 24.15 81.7 24.15 89.3 20.1 88.7 22.2 90.3 23.75 L94.55 22.6 Q104.05 29.7 112.75 21.6 L113.45 22.25 M79.3 15.4 L80.65 14.95 Q85.35 11.55 90.6 14.1 L91.0 12.6 Q83.7 8.45 78.55 14.6 L79.3 15.4 M85.4 7.1 L85.95 7.75 Q91.65 8.95 94.95 13.8 104.45 7.35 112.25 15.05 112.6 22.9 104.6 23.9 100.15 24.2 96.45 21.6 93.95 19.9 91.2 21.6 L91.95 17.85 91.5 17.05 Q81.35 22.7 69.8 22.3 L69.55 22.65 68.45 22.1 Q75.95 13.6 85.4 7.1 M77.75 78.1 L73.7 67.15 Q83.85 74.9 96.9 74.65 L109.45 73.45 110.05 72.85 Q122.9 72.5 134.9 68.25 140.15 66.35 143.8 62.2 L139.85 77.4 Q125.65 81.85 112.25 87.7 L107.4 142.1 100.75 89.3 101.05 87.8 100.8 87.45 77.75 78.1" fill="#f3deee" fill-rule="evenodd" stroke="none"/>
    <path d="M113.85 19.7 L114.45 17.2 117.25 19.5 116.3 21.4 113.85 19.7 M176.25 225.75 L186.6 225.1 199.35 240.05 181.65 255.8 166.75 240.9 168.05 239.4 174.45 244.4 Q174.9 244.75 175.55 244.95 L180.0 244.05 180.9 245.65 181.3 246.05 181.9 246.1 182.45 246.05 182.95 245.75 183.4 244.7 181.15 239.55 Q180.35 237.9 179.0 239.1 178.6 239.5 178.5 240.05 L178.55 240.6 178.8 241.25 175.7 241.85 169.2 236.4 168.85 235.35 176.25 225.75 M25.3 244.65 Q25.15 246.0 26.35 246.5 28.6 246.1 28.45 243.4 35.45 247.1 43.1 244.9 L45.3 247.6 29.2 259.6 9.8 240.9 21.85 225.7 28.3 224.45 44.2 235.45 41.95 242.1 Q35.25 243.85 29.05 240.4 30.0 238.45 29.0 236.85 28.3 235.7 27.45 236.6 25.8 238.2 25.9 240.85 L25.9 240.95 25.3 244.65" fill="#e3aed5" fill-rule="evenodd" stroke="none"/>
    <path d="M140.8 80.25 L142.85 81.7 132.95 114.0 116.1 88.55 140.8 80.25 M89.5 106.25 L98.15 93.15 104.4 142.45 89.5 106.25 M114.9 92.15 L127.4 110.95 110.1 145.95 114.9 92.15 M82.75 111.0 L78.55 81.65 97.35 89.0 82.75 111.0" fill="#ffe1e9" fill-rule="evenodd" stroke="none"/>
  </g>
</svg>
