<?xml version="1.0" encoding="UTF-8" standalone="no"?>
<svg xmlns:xlink="http://www.w3.org/1999/xlink" height="213.9px" width="233.75px" xmlns="http://www.w3.org/2000/svg">
  <g transform="matrix(1.0, 0.0, 0.0, 1.0, -29.2, -50.75)">
    <path d="M173.75 64.5 L174.65 63.55 174.65 65.2 168.25 71.9 168.25 70.2 173.75 64.5 M177.0 67.55 Q177.55 70.45 175.35 72.35 172.75 74.6 169.75 73.05 L169.75 71.5 Q170.85 72.15 172.2 72.2 176.6 71.8 177.0 67.55 M180.0 51.1 L184.55 50.75 185.95 117.15 218.95 130.1 262.95 184.9 261.25 251.65 247.9 264.65 41.65 264.65 30.15 248.35 29.2 207.45 52.45 151.95 84.25 124.4 100.35 118.6 99.6 61.9 180.0 51.1 M252.85 178.65 L211.4 129.25 181.75 120.65 181.3 115.55 181.25 115.55 180.35 58.05 107.3 63.45 104.9 121.95 86.65 128.4 76.25 139.0 52.25 159.35 33.75 208.4 34.65 251.25 44.45 262.5 62.85 262.5 245.8 262.5 256.55 250.1 254.55 180.95 252.85 178.65 M246.35 191.1 L246.9 191.7 Q247.75 192.45 248.95 192.45 252.05 192.2 252.1 189.1 252.9 192.55 249.8 193.8 L248.5 193.9 Q245.65 192.95 245.85 189.75 245.95 190.5 246.35 191.1 M62.6 159.75 L63.3 159.05 63.3 160.65 56.9 167.4 56.9 165.7 56.95 165.65 62.6 159.75 M65.7 163.05 Q66.1 165.9 64.05 167.85 61.5 170.25 58.4 168.5 L58.4 167.0 Q59.5 167.65 60.9 167.7 65.3 167.25 65.7 163.05 M112.9 119.5 Q113.8 122.45 111.05 124.0 109.35 124.9 107.95 123.55 106.45 122.25 106.65 120.15 106.75 120.9 107.15 121.5 L107.7 122.1 Q108.6 122.85 109.75 122.85 112.8 122.55 112.9 119.5" fill="#47525f" fill-rule="evenodd" stroke="none"/>
    <path d="M175.25 65.7 L176.1 64.85 Q176.7 69.3 172.55 71.1 L169.75 71.5 175.25 65.7 M181.25 115.55 L181.3 115.55 181.75 120.65 211.4 129.25 252.85 178.65 62.85 262.5 44.45 262.5 34.65 251.25 33.75 208.4 52.25 159.35 76.25 139.0 181.25 115.55 M63.3 160.65 L63.3 159.05 62.6 159.75 63.3 159.0 62.95 158.8 Q60.4 157.6 58.1 159.25 56.1 160.65 55.95 163.05 L55.95 164.95 Q55.75 165.55 56.9 167.4 L58.4 168.5 Q61.5 170.25 64.05 167.85 66.1 165.9 65.7 163.05 65.7 161.45 64.75 160.3 65.1 162.15 64.2 163.85 62.25 167.4 58.4 167.0 L63.95 161.2 63.3 160.65 M56.95 165.65 L56.9 165.7 56.9 165.6 56.95 165.65 M57.05 163.5 Q56.75 164.1 56.7 164.65 L56.65 164.6 57.05 163.5" fill="#bab9ba" fill-rule="evenodd" stroke="none"/>
    <path d="M174.35 63.35 Q171.8 62.15 169.5 63.85 167.45 65.2 167.3 67.6 L167.3 69.5 Q167.1 70.05 168.25 71.9 L169.75 73.05 Q172.75 74.6 175.35 72.35 177.55 70.45 177.0 67.55 L177.0 67.35 Q176.95 65.9 176.1 64.85 L175.25 65.7 174.65 65.2 174.65 63.55 173.75 64.5 174.6 63.55 174.35 63.35 M252.85 178.65 L254.55 180.95 256.55 250.1 245.8 262.5 62.85 262.5 252.85 178.65 M76.25 139.0 L86.65 128.4 104.9 121.95 107.3 63.45 180.35 58.05 181.25 115.55 76.25 139.0 M251.5 187.6 L250.5 186.75 247.6 188.1 Q248.75 186.9 250.5 186.7 L248.35 186.5 Q245.85 187.1 245.85 189.75 245.65 192.95 248.5 193.9 L249.8 193.8 Q252.9 192.55 252.1 189.1 L251.5 187.6 M109.85 117.5 L111.3 117.1 109.15 116.9 Q106.65 117.5 106.65 120.15 106.45 122.25 107.95 123.55 109.35 124.9 111.05 124.0 113.8 122.45 112.9 119.5 L112.3 118.0 111.3 117.15 109.85 117.5" fill="#9c9c9c" fill-rule="evenodd" stroke="none"/>
    <path d="M167.3 67.6 Q167.45 65.2 169.5 63.85 171.8 62.15 174.35 63.35 169.65 64.8 168.05 69.3 L167.95 69.8 Q167.35 68.75 167.3 67.6 M247.6 188.1 L246.35 191.1 Q245.95 190.5 245.85 189.75 245.85 187.1 248.35 186.5 L250.5 186.7 Q248.75 186.9 247.6 188.1 M55.95 163.05 Q56.1 160.65 58.1 159.25 60.4 157.6 62.95 158.8 59.45 160.05 57.25 163.15 L57.05 163.5 56.65 164.6 56.6 165.3 Q56.0 164.25 55.95 163.05 M106.65 120.15 Q106.65 117.5 109.15 116.9 L111.3 117.1 109.85 117.5 Q108.9 117.85 108.15 118.75 L107.15 121.5 Q106.75 120.9 106.65 120.15" fill="#e9e9eb" fill-rule="evenodd" stroke="none"/>
    <path d="M174.35 63.35 L174.6 63.55 173.75 64.5 168.25 70.2 167.95 69.8 168.05 69.3 Q169.65 64.8 174.35 63.35 M251.5 187.6 Q251.6 188.8 250.95 189.75 249.4 192.05 246.9 191.7 L246.35 191.1 247.6 188.1 250.5 186.75 251.5 187.6 M62.95 158.8 L63.3 159.0 62.6 159.75 56.95 165.65 56.9 165.6 56.65 165.25 56.7 164.65 Q56.75 164.1 57.05 163.5 L57.25 163.15 Q59.45 160.05 62.95 158.8 M109.85 117.5 L111.3 117.15 112.3 118.0 Q112.45 120.15 110.75 121.3 109.1 122.4 107.7 122.1 L107.15 121.5 108.15 118.75 Q108.9 117.85 109.85 117.5" fill="#d0cfd0" fill-rule="evenodd" stroke="none"/>
    <path d="M176.1 64.85 Q176.95 65.9 177.0 67.35 L177.0 67.55 Q176.6 71.8 172.2 72.2 170.85 72.15 169.75 71.5 L172.55 71.1 Q176.7 69.3 176.1 64.85 M246.9 191.7 Q249.4 192.05 250.95 189.75 251.6 188.8 251.5 187.6 L252.1 189.1 Q252.05 192.2 248.95 192.45 247.75 192.45 246.9 191.7 M58.4 167.0 Q62.25 167.4 64.2 163.85 65.1 162.15 64.75 160.3 65.7 161.45 65.7 163.05 65.3 167.25 60.9 167.7 59.5 167.65 58.4 167.0 M112.3 118.0 L112.9 119.5 Q112.8 122.55 109.75 122.85 108.6 122.85 107.7 122.1 109.1 122.4 110.75 121.3 112.45 120.15 112.3 118.0" fill="#b0aeb3" fill-rule="evenodd" stroke="none"/>
    <path d="M174.65 65.2 L175.25 65.7 169.75 71.5 169.75 73.05 168.25 71.9 174.65 65.2 M63.3 160.65 L63.95 161.2 58.4 167.0 58.4 168.5 56.9 167.4 63.3 160.65" fill="#57565b" fill-rule="evenodd" stroke="none"/>
    <path d="M168.25 71.9 Q167.1 70.05 167.3 69.5 L167.3 67.6 Q167.35 68.75 167.95 69.8 L168.25 70.2 168.25 71.9 M56.9 167.4 Q55.75 165.55 55.95 164.95 L55.95 163.05 Q56.0 164.25 56.6 165.3 L56.65 164.6 56.7 164.65 56.65 165.25 56.9 165.6 56.9 165.7 56.9 167.4" fill="#79818b" fill-rule="evenodd" stroke="none"/>
  </g>
</svg>
