<?xml version="1.0" encoding="UTF-8" standalone="no"?>
<svg xmlns:xlink="http://www.w3.org/1999/xlink" height="245.1px" width="264.55px" xmlns="http://www.w3.org/2000/svg">
  <g transform="matrix(1.0, 0.0, 0.0, 1.0, 0.0, 0.0)">
    <path d="M137.3 98.45 L139.9 82.6 167.8 73.1 165.2 58.35 Q145.8 51.1 125.25 49.2 L114.05 48.75 Q102.7 49.45 91.95 53.45 L90.85 74.55 116.85 82.3 120.3 97.3 120.95 99.65 122.45 105.25 123.45 108.9 125.9 118.05 126.45 120.05 130.45 135.25 134.1 116.6 134.6 113.75 135.05 111.15 135.55 108.25 136.95 100.5 137.3 98.45 M171.5 75.3 L157.05 105.55 155.8 106.45 153.4 104.15 130.3 140.9 126.25 146.5 125.65 146.6 119.1 155.6 180.5 106.75 Q174.0 104.15 168.95 99.3 L167.5 97.85 167.35 97.65 167.3 97.4 167.4 96.8 168.5 95.95 198.8 92.75 191.8 82.15 171.5 75.3 M202.6 95.05 L173.1 98.5 184.45 106.4 184.0 107.8 114.25 163.25 109.15 241.75 213.4 241.75 212.95 200.5 210.45 182.35 202.5 143.1 191.6 101.75 191.75 100.6 192.85 100.0 194.3 100.45 194.5 101.0 205.4 142.45 213.4 181.85 Q220.1 196.5 223.45 211.95 L261.2 208.25 251.9 149.5 231.6 113.65 207.5 87.4 196.4 83.7 202.8 94.25 202.6 95.05 M209.45 85.1 L233.9 111.75 254.6 148.2 254.8 148.75 264.4 209.4 264.3 210.2 Q264.0 211.0 263.05 211.1 L257.4 211.65 264.2 219.25 264.55 220.1 251.35 237.6 Q250.7 238.45 249.65 238.1 L225.65 229.15 225.55 229.1 Q224.8 228.75 224.65 228.1 L222.7 219.35 Q222.65 219.05 222.75 218.7 L223.0 218.15 225.7 214.75 Q223.05 215.85 222.3 213.95 218.8 204.85 216.2 195.4 215.65 193.4 214.75 191.5 L215.95 200.45 216.4 243.25 215.8 244.55 214.9 244.75 46.9 244.7 46.15 244.5 45.45 243.55 48.15 182.5 37.45 219.05 Q37.25 219.85 36.45 220.25 L35.5 220.25 35.4 230.7 Q34.2 232.6 31.6 233.1 32.75 234.95 32.6 237.15 L32.3 237.8 24.35 244.85 23.2 244.95 17.7 241.95 Q9.25 237.15 1.0 231.8 0.35 231.35 0.65 230.45 L5.1 217.55 0.85 217.1 0.0 215.7 0.45 178.2 0.55 177.65 18.0 134.85 18.25 134.45 59.25 85.15 87.85 74.3 91.7 1.9 Q91.95 0.65 93.2 0.45 L157.25 0.0 Q158.15 0.1 158.3 0.85 L160.6 12.3 160.6 12.55 160.65 12.75 160.65 12.6 170.6 71.95 209.45 85.1 M146.75 24.2 L134.1 26.15 133.7 25.3 131.55 26.35 130.65 25.25 Q138.55 19.0 148.25 16.85 L149.3 17.75 Q142.6 20.55 135.55 24.2 L146.85 22.65 146.75 24.2 M157.65 12.75 L156.0 3.0 94.65 3.45 94.2 11.85 92.4 45.75 93.95 44.85 Q105.55 38.7 118.1 35.05 L117.5 34.45 Q116.1 32.7 116.6 30.45 116.9 29.2 117.75 28.25 L118.1 28.1 119.15 28.45 119.2 28.75 Q118.25 31.15 119.65 33.1 120.2 33.9 121.3 34.1 127.4 35.4 133.25 34.05 L133.55 33.65 133.2 30.7 134.15 30.15 134.85 30.45 135.0 30.75 Q135.7 32.2 135.5 33.85 L135.35 34.65 136.0 35.0 Q151.75 43.4 164.85 55.45 L157.65 12.75 M98.4 17.8 Q111.0 17.35 120.65 26.45 L120.25 27.5 119.85 27.65 Q110.3 20.5 98.8 18.8 L98.4 17.8 M99.15 25.2 L99.5 24.15 Q108.15 22.5 115.6 26.95 L115.05 27.9 Q107.65 25.3 99.9 25.95 L99.15 25.2 M91.6 77.85 L100.65 102.4 112.85 83.6 91.6 77.85 M160.8 54.65 Q148.2 44.0 133.85 35.95 110.7 35.35 92.25 48.2 L92.1 51.25 Q107.9 46.0 124.45 46.9 141.15 48.05 156.9 53.3 L160.8 54.65 M59.5 95.1 L90.35 101.2 91.3 101.75 91.4 103.2 81.7 107.15 125.6 143.25 127.85 140.2 104.3 102.3 100.65 107.15 100.1 107.25 98.85 106.25 88.2 77.4 65.8 85.7 59.5 95.1 M60.85 87.9 L20.75 136.15 3.45 178.55 3.05 214.35 34.8 217.15 Q38.65 200.3 44.0 183.7 48.65 169.2 50.25 153.9 L62.0 101.95 63.2 100.8 63.8 100.85 Q65.1 101.3 64.95 102.6 L53.2 154.5 51.45 175.25 48.5 241.7 106.15 241.75 111.3 162.4 123.85 145.7 77.75 107.75 77.35 106.85 Q77.05 106.0 77.9 105.7 81.05 104.25 84.35 103.05 L55.8 97.1 Q65.0 82.95 60.85 87.9 M151.6 101.45 L142.3 87.4 135.2 127.7 151.6 101.45 M126.7 132.65 L114.4 86.75 106.1 99.55 126.7 132.65 M143.5 83.8 L155.5 101.9 167.7 76.25 143.5 83.8 M31.25 219.85 L8.2 217.85 3.85 230.3 23.7 241.85 29.6 236.4 22.25 227.85 23.1 226.45 29.9 230.6 32.5 229.3 32.65 221.5 31.25 219.85 M254.6 213.05 L229.35 215.0 225.75 219.45 226.95 224.8 231.05 220.95 Q229.6 219.75 230.0 218.0 L231.4 218.3 Q235.85 220.45 235.9 224.3 233.95 225.3 232.9 223.25 L228.8 227.15 249.65 234.9 261.1 219.8 254.6 213.05" fill="#1a1a1a" fill-rule="evenodd" stroke="none"/>
    <path d="M120.3 97.3 L116.85 82.3 90.85 74.55 91.95 53.45 Q102.7 49.45 114.05 48.75 L125.25 49.2 Q145.8 51.1 165.2 58.35 L167.8 73.1 139.9 82.6 137.3 98.45 Q127.1 99.75 121.75 97.8 L120.3 97.3 M136.95 100.5 L135.55 108.25 Q133.05 110.75 129.3 109.65 125.2 108.35 122.45 105.25 L120.95 99.65 121.1 99.7 Q128.7 101.9 136.95 100.5 M135.05 111.15 L134.6 113.75 Q128.85 118.0 125.9 118.05 L123.45 108.9 124.7 109.75 Q129.7 113.3 135.05 111.15 M134.1 116.6 L130.45 135.25 126.45 120.05 Q129.4 119.8 134.1 116.6 M146.75 24.2 L146.85 22.65 135.55 24.2 Q142.6 20.55 149.3 17.75 L148.25 16.85 Q138.55 19.0 130.65 25.25 L131.55 26.35 133.7 25.3 134.1 26.15 146.75 24.2 M94.2 11.85 Q98.85 8.65 104.85 9.65 114.75 11.55 123.2 17.05 134.1 12.0 146.15 10.9 152.2 10.6 157.65 12.75 L164.85 55.45 Q151.75 43.4 136.0 35.0 L135.35 34.65 135.5 33.85 Q135.7 32.2 135.0 30.75 L134.85 30.45 134.15 30.15 133.2 30.7 133.55 33.65 133.25 34.05 Q127.4 35.4 121.3 34.1 120.2 33.9 119.65 33.1 118.25 31.15 119.2 28.75 L119.15 28.45 118.1 28.1 117.75 28.25 Q116.9 29.2 116.6 30.45 116.1 32.7 117.5 34.45 L118.1 35.05 Q105.55 38.7 93.95 44.85 L92.4 45.75 94.2 11.85 M99.15 25.2 L99.9 25.95 Q107.65 25.3 115.05 27.9 L115.6 26.95 Q108.15 22.5 99.5 24.15 L99.15 25.2 M98.4 17.8 L98.8 18.8 Q110.3 20.5 119.85 27.65 L120.25 27.5 120.65 26.45 Q111.0 17.35 98.4 17.8 M160.8 54.65 L156.9 53.3 Q141.15 48.05 124.45 46.9 107.9 46.0 92.1 51.25 L92.25 48.2 Q110.7 35.35 133.85 35.95 148.2 44.0 160.8 54.65 M254.6 213.05 L261.1 219.8 249.65 234.9 228.8 227.15 232.9 223.25 Q233.95 225.3 235.9 224.3 235.85 220.45 231.4 218.3 L230.0 218.0 Q229.6 219.75 231.05 220.95 L226.95 224.8 225.75 219.45 229.35 215.0 254.6 213.05 M31.25 219.85 L32.65 221.5 32.5 229.3 29.9 230.6 23.1 226.45 22.25 227.85 29.6 236.4 23.7 241.85 3.85 230.3 8.2 217.85 31.25 219.85" fill="#b3cee8" fill-rule="evenodd" stroke="none"/>
    <path d="M202.6 95.05 L202.8 94.25 196.4 83.7 207.5 87.4 231.6 113.65 251.9 149.5 261.2 208.25 223.45 211.95 Q220.1 196.5 213.4 181.85 L205.4 142.45 194.5 101.0 194.3 100.45 192.85 100.0 191.75 100.6 191.6 101.75 202.5 143.1 210.45 182.35 212.95 200.5 213.4 241.75 109.15 241.75 114.25 163.25 184.0 107.8 184.45 106.4 173.1 98.5 202.6 95.05 M171.5 75.3 L191.8 82.15 198.8 92.75 168.5 95.95 167.4 96.8 167.3 97.4 167.35 97.65 167.5 97.85 168.95 99.3 Q174.0 104.15 180.5 106.75 L119.1 155.6 125.65 146.6 126.25 146.5 130.3 140.9 153.4 104.15 155.8 106.45 157.05 105.55 171.5 75.3 M60.85 87.9 Q65.0 82.95 55.8 97.1 L84.35 103.05 Q81.05 104.25 77.9 105.7 77.05 106.0 77.35 106.85 L77.75 107.75 123.85 145.7 111.3 162.4 106.15 241.75 48.5 241.7 51.45 175.25 53.2 154.5 64.95 102.6 Q65.1 101.3 63.8 100.85 L63.2 100.8 62.0 101.95 50.25 153.9 Q48.65 169.2 44.0 183.7 38.65 200.3 34.8 217.15 L3.05 214.35 3.45 178.55 20.75 136.15 60.85 87.9 M59.5 95.1 L65.8 85.7 88.2 77.4 98.85 106.25 100.1 107.25 100.65 107.15 104.3 102.3 127.85 140.2 125.6 143.25 81.7 107.15 91.4 103.2 91.3 101.75 90.35 101.2 59.5 95.1" fill="#8d254e" fill-rule="evenodd" stroke="none"/>
    <path d="M94.2 11.85 L94.65 3.45 156.0 3.0 157.65 12.75 Q152.2 10.6 146.15 10.9 134.1 12.0 123.2 17.05 114.75 11.55 104.85 9.65 98.85 8.65 94.2 11.85" fill="#243f8c" fill-rule="evenodd" stroke="none"/>
    <path d="M91.6 77.85 L112.85 83.6 100.65 102.4 91.6 77.85 M151.6 101.45 L135.2 127.7 142.3 87.4 151.6 101.45 M126.7 132.65 L106.1 99.55 114.4 86.75 126.7 132.65 M143.5 83.8 L167.7 76.25 155.5 101.9 143.5 83.8" fill="#ffe1e9" fill-rule="evenodd" stroke="none"/>
    <path d="M120.3 97.3 L121.75 97.8 Q127.1 99.75 137.3 98.45 L136.95 100.5 Q128.7 101.9 121.1 99.7 L120.95 99.65 120.3 97.3 M135.55 108.25 L135.05 111.15 Q129.7 113.3 124.7 109.75 L123.45 108.9 122.45 105.25 Q125.2 108.35 129.3 109.65 133.05 110.75 135.55 108.25 M134.6 113.75 L134.1 116.6 Q129.4 119.8 126.45 120.05 L125.9 118.05 Q128.85 118.0 134.6 113.75" fill="#ff901f" fill-rule="evenodd" stroke="none"/>
  </g>
</svg>
