<?xml version="1.0" encoding="UTF-8" standalone="no"?>
<svg xmlns:xlink="http://www.w3.org/1999/xlink" height="247.45px" width="160.05px" xmlns="http://www.w3.org/2000/svg">
  <g transform="matrix(1.0, 0.0, 0.0, 1.0, -7.3, -16.05)">
    <path d="M119.7 89.6 Q120.8 94.4 116.1 94.95 112.2 94.75 112.4 90.35 112.5 91.25 112.95 91.95 L113.6 92.6 114.2 92.9 Q119.1 94.6 119.7 89.6 M157.8 178.6 L143.3 131.5 121.6 118.9 126.15 105.8 123.85 96.5 106.5 25.6 67.35 18.55 51.0 99.75 57.25 111.35 61.05 118.35 28.25 124.95 12.65 206.65 15.05 241.05 15.7 250.55 20.7 261.05 151.35 261.05 159.25 250.05 161.15 195.2 157.8 178.6 M113.65 23.8 L131.65 106.15 128.05 116.5 149.8 127.15 166.45 194.65 167.35 251.2 154.8 263.5 17.4 263.5 13.25 251.95 7.3 206.35 20.9 126.05 21.2 126.05 Q39.15 120.65 57.4 116.15 L56.7 115.1 Q51.7 107.55 45.6 100.7 L63.35 16.05 113.65 23.8 M70.0 34.25 Q71.3 35.0 72.9 35.05 78.05 34.6 78.5 29.6 79.15 35.1 74.05 36.55 71.9 37.2 70.0 36.1 L70.0 34.25 M74.65 26.05 L75.75 24.9 75.75 26.85 68.25 34.7 68.25 32.7 74.65 26.05 M149.6 190.55 L150.15 192.0 150.7 192.7 151.35 192.95 Q156.2 194.75 156.9 189.7 158.05 194.35 153.3 195.0 149.55 194.7 149.6 190.55 M152.55 242.8 L153.6 241.65 153.6 243.6 146.1 251.45 146.1 249.45 152.55 242.8 M156.4 246.35 Q157.05 251.85 151.95 253.3 149.8 253.95 147.9 252.8 L147.85 251.0 Q149.15 251.75 150.75 251.8 155.9 251.3 156.4 246.35" fill="#47525f" fill-rule="evenodd" stroke="none"/>
    <path d="M123.85 96.5 L126.15 105.8 121.6 118.9 143.3 131.5 157.8 178.6 15.05 241.05 12.65 206.65 28.25 124.95 61.05 118.35 57.25 111.35 123.85 96.5 M77.45 26.4 L77.5 27.05 Q77.4 34.5 70.0 34.25 L76.5 27.45 77.45 26.4 M154.4 244.2 L155.3 243.15 155.35 243.9 Q155.1 251.3 147.85 251.0 L154.4 244.2" fill="#bab9ba" fill-rule="evenodd" stroke="none"/>
    <path d="M115.5 87.6 Q116.5 87.0 117.8 86.8 L117.0 86.5 Q112.7 86.2 112.4 90.35 112.2 94.75 116.1 94.95 120.8 94.4 119.7 89.6 L118.95 87.85 117.8 86.85 115.5 87.6 M123.85 96.5 L57.25 111.35 51.0 99.75 67.35 18.55 106.5 25.6 123.85 96.5 M15.05 241.05 L157.8 178.6 161.15 195.2 159.25 250.05 151.35 261.05 20.7 261.05 15.7 250.55 15.05 241.05 M77.45 26.4 L76.5 27.45 75.75 26.85 75.75 24.9 74.65 26.05 75.7 24.9 75.35 24.7 74.8 24.45 Q68.5 23.15 67.1 29.65 L67.1 31.85 Q66.95 32.55 68.25 34.7 L70.0 36.1 Q71.9 37.2 74.05 36.55 79.15 35.1 78.5 29.6 L77.45 26.4 M155.0 186.9 L154.2 186.65 Q149.8 186.3 149.6 190.55 149.55 194.7 153.3 195.0 158.05 194.35 156.9 189.7 156.8 188.7 156.15 187.9 L155.0 186.9 M153.25 241.4 L152.7 241.2 Q146.25 239.9 145.0 246.4 L145.0 248.6 Q144.8 249.3 146.1 251.45 L147.9 252.8 Q149.8 253.95 151.95 253.3 157.05 251.85 156.4 246.35 L155.3 243.15 154.4 244.2 153.6 243.6 153.6 241.65 152.55 242.8 153.6 241.65 153.25 241.4" fill="#9c9c9c" fill-rule="evenodd" stroke="none"/>
    <path d="M112.4 90.35 Q112.7 86.2 117.0 86.5 L117.8 86.8 Q116.5 87.0 115.5 87.6 L114.1 88.7 112.95 91.95 Q112.5 91.25 112.4 90.35 M67.1 29.65 Q68.5 23.15 74.8 24.45 L75.35 24.7 Q69.85 26.3 68.0 31.65 L67.9 32.25 Q67.2 31.0 67.1 29.65 M155.0 186.9 Q152.95 186.9 151.55 188.4 150.15 189.9 150.15 192.0 L149.6 190.55 Q149.8 186.3 154.2 186.65 L155.0 186.9 M145.0 246.4 Q146.25 239.9 152.7 241.2 L153.25 241.4 152.5 241.7 Q146.95 243.6 145.8 249.0 145.1 247.75 145.0 246.4" fill="#e9e9eb" fill-rule="evenodd" stroke="none"/>
    <path d="M115.5 87.6 L117.8 86.85 118.95 87.85 118.85 88.65 Q117.9 93.0 113.6 92.6 L112.95 91.95 114.1 88.7 115.5 87.6 M75.35 24.7 L75.7 24.9 74.65 26.05 68.25 32.7 67.9 32.25 68.0 31.65 Q69.85 26.3 75.35 24.7 M150.15 192.0 Q150.15 189.9 151.55 188.4 152.95 186.9 155.0 186.9 L156.15 187.9 Q156.15 192.25 151.65 192.75 L150.7 192.7 150.15 192.0 M145.8 249.0 Q146.95 243.6 152.5 241.7 L153.25 241.4 153.6 241.65 152.55 242.8 146.1 249.45 145.8 249.0" fill="#d0cfd0" fill-rule="evenodd" stroke="none"/>
    <path d="M118.95 87.85 L119.7 89.6 Q119.1 94.6 114.2 92.9 L113.6 92.6 Q117.9 93.0 118.85 88.65 L118.95 87.85 M70.0 34.25 Q77.4 34.5 77.5 27.05 L77.45 26.4 78.5 29.6 Q78.05 34.6 72.9 35.05 71.3 35.0 70.0 34.25 M150.7 192.7 L151.65 192.75 Q156.15 192.25 156.15 187.9 156.8 188.7 156.9 189.7 156.2 194.75 151.35 192.95 L150.7 192.7 M155.3 243.15 L156.4 246.35 Q155.9 251.3 150.75 251.8 149.15 251.75 147.85 251.0 155.1 251.3 155.35 243.9 L155.3 243.15" fill="#b0aeb3" fill-rule="evenodd" stroke="none"/>
    <path d="M76.5 27.45 L70.0 34.25 70.0 36.1 68.25 34.7 75.75 26.85 76.5 27.45 M153.6 243.6 L154.4 244.2 147.85 251.0 147.9 252.8 146.1 251.45 153.6 243.6" fill="#57565b" fill-rule="evenodd" stroke="none"/>
    <path d="M68.25 32.7 L68.25 34.7 Q66.95 32.55 67.1 31.85 L67.1 29.65 Q67.2 31.0 67.9 32.25 L68.25 32.7 M145.0 246.4 Q145.1 247.75 145.8 249.0 L146.1 249.45 146.1 251.45 Q144.8 249.3 145.0 248.6 L145.0 246.4" fill="#79818b" fill-rule="evenodd" stroke="none"/>
  </g>
</svg>
