<?xml version="1.0" encoding="UTF-8" standalone="no"?>
<svg xmlns:xlink="http://www.w3.org/1999/xlink" height="250.0px" width="139.7px" xmlns="http://www.w3.org/2000/svg">
  <g transform="matrix(1.0, 0.0, 0.0, 1.0, 0.0, 0.0)">
    <path d="M90.8 23.5 L86.15 3.05 63.55 3.05 58.25 24.35 55.5 35.5 68.4 40.5 68.35 41.25 67.45 41.95 55.0 37.45 44.4 80.05 55.1 96.85 Q62.2 99.1 68.1 102.8 L68.3 103.3 70.3 141.5 76.35 103.95 Q75.85 102.85 76.6 102.45 78.65 101.4 80.85 100.65 L92.85 97.05 103.75 80.65 93.45 35.35 91.35 36.5 91.15 37.6 86.8 39.8 82.9 42.3 81.1 43.75 81.8 43.65 88.15 43.25 Q90.15 43.5 91.95 44.4 L93.1 45.0 92.15 46.3 86.75 45.55 81.55 45.8 81.0 45.8 Q82.25 47.75 84.65 48.45 L87.35 49.45 87.75 49.5 88.15 49.6 88.75 50.5 87.75 51.5 Q83.75 50.95 80.7 48.25 77.25 45.2 80.35 41.95 82.25 40.0 84.8 38.55 L77.95 41.0 76.95 39.95 77.35 39.3 92.75 33.45 90.8 23.5 M87.35 0.0 L88.1 0.2 88.85 1.25 106.85 80.6 96.05 97.65 96.1 98.35 128.55 114.6 129.35 115.7 138.9 166.1 138.9 166.6 131.75 215.95 139.7 223.45 137.8 244.3 119.6 250.0 111.8 245.6 Q112.1 247.15 111.0 248.2 L110.6 248.45 110.2 248.7 72.0 249.6 28.65 249.6 3.1 241.15 Q2.25 233.2 4.5 225.25 L5.4 222.3 7.25 216.35 0.0 201.0 2.4 162.5 16.4 112.15 17.05 111.3 52.35 98.15 41.35 79.95 60.9 1.2 61.45 0.5 87.35 0.0 M99.6 83.2 Q95.3 80.45 90.95 77.85 87.1 75.5 82.6 74.8 65.15 72.8 52.2 84.75 L54.6 87.75 54.2 88.75 53.8 88.9 Q50.15 86.8 49.95 82.65 49.15 65.5 63.8 55.25 L64.75 56.3 58.55 62.65 Q49.9 71.25 51.45 82.75 58.4 76.65 67.15 74.1 86.3 68.5 100.25 82.45 L99.6 83.2 M69.1 56.05 L69.7 56.3 70.0 56.7 Q69.55 59.95 66.55 58.4 65.5 57.9 65.1 56.75 L65.8 55.9 67.35 56.65 69.1 56.05 M69.65 45.05 L69.7 45.55 Q67.0 50.1 61.8 50.7 L61.3 49.35 66.95 45.7 56.4 46.15 55.5 45.1 Q62.6 41.3 69.65 45.05 M75.55 44.4 Q75.5 42.9 76.2 41.4 L77.25 41.5 77.6 42.2 Q76.0 47.2 78.75 52.0 79.55 53.45 78.8 55.1 78.25 56.3 77.2 57.1 80.25 57.15 82.15 54.85 L82.9 53.8 84.05 54.05 84.35 54.7 83.8 56.25 Q98.1 64.15 101.65 80.05 L101.0 80.5 100.25 80.35 Q95.4 66.2 82.9 57.4 80.95 59.7 78.0 59.45 76.1 59.1 74.8 57.75 L74.65 56.9 Q77.05 55.9 76.55 53.4 75.6 48.85 75.55 44.4 M64.55 104.05 L55.65 100.35 56.1 116.9 64.55 104.05 M35.95 129.35 L35.55 128.1 Q37.7 125.7 41.35 124.45 L28.25 123.2 27.3 121.95 29.0 110.05 19.1 113.7 5.4 162.85 3.05 200.8 9.0 213.1 10.95 209.65 Q21.75 209.6 24.1 210.9 26.45 212.2 28.6 213.65 L30.65 215.35 27.05 142.35 20.5 130.8 20.6 130.35 21.4 129.8 22.05 130.35 Q26.1 135.45 29.65 141.15 L30.0 141.8 33.85 218.55 37.35 222.1 36.0 230.05 Q37.45 230.05 37.75 231.5 L39.35 240.1 32.65 246.6 57.2 246.6 58.2 170.75 65.1 156.2 35.95 129.35 M30.45 120.4 L48.1 122.8 48.35 123.65 39.6 128.65 66.5 153.4 67.35 151.6 57.95 119.55 55.75 122.9 54.85 123.25 53.8 122.85 52.65 101.3 32.15 108.85 30.45 120.4 M65.55 108.0 L60.15 116.25 67.25 140.5 65.55 108.0 M121.7 122.65 L118.55 134.95 113.5 214.4 114.75 214.45 116.75 212.2 126.3 211.45 129.1 213.45 135.9 166.4 126.55 117.0 115.35 111.4 111.65 122.85 97.7 122.5 104.0 130.45 103.7 131.35 61.2 171.45 60.2 246.45 108.75 245.75 108.9 243.8 104.85 240.8 Q105.1 236.55 105.5 232.35 105.6 230.95 107.0 230.45 107.4 225.25 110.1 220.85 L115.55 134.55 119.95 121.0 121.55 121.15 121.7 122.65 M109.75 120.2 L112.65 110.05 95.2 101.3 94.45 103.05 87.05 121.75 Q86.4 123.35 84.9 122.4 L64.6 164.1 100.55 130.2 93.1 121.7 92.85 121.3 92.95 120.15 93.15 119.65 109.75 120.2 M83.2 119.05 L78.6 108.95 73.9 138.2 83.2 119.05 M85.75 117.35 L92.15 100.35 79.6 103.85 85.75 117.35 M18.1 222.45 L19.55 222.55 21.5 234.5 30.0 234.5 34.4 223.3 21.7 212.2 13.05 211.95 Q6.2 224.4 5.55 238.9 L28.3 246.4 36.3 239.4 35.2 232.95 Q30.4 238.15 23.25 237.45 L19.65 237.45 Q17.35 230.0 18.1 222.45 M110.5 225.3 L110.05 230.15 111.15 230.15 Q112.65 230.15 114.15 231.15 L115.35 235.05 121.0 235.35 120.3 229.35 121.35 228.55 Q122.25 228.8 122.55 229.7 123.85 233.6 124.15 237.75 L113.3 237.45 111.95 233.45 108.65 232.95 108.05 233.3 107.85 239.65 119.9 247.1 135.4 242.1 136.85 224.85 125.85 214.5 117.95 215.1 110.5 225.3" fill="#1a1a1a" fill-rule="evenodd" stroke="none"/>
    <path d="M58.25 24.35 L63.55 3.05 86.15 3.05 90.8 23.5 Q83.6 17.65 75.2 22.4 L74.05 23.15 Q65.7 16.75 58.25 24.35" fill="#4e3f4a" fill-rule="evenodd" stroke="none"/>
    <path d="M90.8 23.5 L92.75 33.45 77.35 39.3 76.95 39.95 77.95 41.0 84.8 38.55 Q82.25 40.0 80.35 41.95 77.25 45.2 80.7 48.25 83.75 50.95 87.75 51.5 L88.75 50.5 88.15 49.6 87.75 49.5 87.35 49.45 84.65 48.45 Q82.25 47.75 81.0 45.8 L81.55 45.8 86.75 45.55 92.15 46.3 93.1 45.0 91.95 44.4 Q90.15 43.5 88.15 43.25 L81.8 43.65 81.1 43.75 82.9 42.3 86.8 39.8 91.15 37.6 91.35 36.5 93.45 35.35 103.75 80.65 92.85 97.05 80.85 100.65 Q78.65 101.4 76.6 102.45 75.85 102.85 76.35 103.95 L70.3 141.5 68.3 103.3 68.1 102.8 Q62.2 99.1 55.1 96.85 L44.4 80.05 55.0 37.45 67.45 41.95 68.35 41.25 68.4 40.5 55.5 35.5 58.25 24.35 Q65.7 16.75 74.05 23.15 L75.2 22.4 Q83.6 17.65 90.8 23.5 M75.55 44.4 Q75.6 48.85 76.55 53.4 77.05 55.9 74.65 56.9 L74.8 57.75 Q76.1 59.1 78.0 59.45 80.95 59.7 82.9 57.4 95.4 66.2 100.25 80.35 L101.0 80.5 101.65 80.05 Q98.1 64.15 83.8 56.25 L84.35 54.7 84.05 54.05 82.9 53.8 82.15 54.85 Q80.25 57.15 77.2 57.1 78.25 56.3 78.8 55.1 79.55 53.45 78.75 52.0 76.0 47.2 77.6 42.2 L77.25 41.5 76.2 41.4 Q75.5 42.9 75.55 44.4 M69.65 45.05 Q62.6 41.3 55.5 45.1 L56.4 46.15 66.95 45.7 61.3 49.35 61.8 50.7 Q67.0 50.1 69.7 45.55 L69.65 45.05 M69.1 56.05 L67.35 56.65 65.8 55.9 65.1 56.75 Q65.5 57.9 66.55 58.4 69.55 59.95 70.0 56.7 L69.7 56.3 69.1 56.05 M99.6 83.2 L100.25 82.45 Q86.3 68.5 67.15 74.1 58.4 76.65 51.45 82.75 49.9 71.25 58.55 62.65 L64.75 56.3 63.8 55.25 Q49.15 65.5 49.95 82.65 50.15 86.8 53.8 88.9 L54.2 88.75 54.6 87.75 52.2 84.75 Q65.15 72.8 82.6 74.8 87.1 75.5 90.95 77.85 95.3 80.45 99.6 83.2" fill="#f2d9ed" fill-rule="evenodd" stroke="none"/>
    <path d="M64.55 104.05 L56.1 116.9 55.65 100.35 64.55 104.05 M65.55 108.0 L67.25 140.5 60.15 116.25 65.55 108.0 M85.75 117.35 L79.6 103.85 92.15 100.35 85.75 117.35 M83.2 119.05 L73.9 138.2 78.6 108.95 83.2 119.05" fill="#ffe1e9" fill-rule="evenodd" stroke="none"/>
    <path d="M30.45 120.4 L32.15 108.85 52.65 101.3 53.8 122.85 54.85 123.25 55.75 122.9 57.95 119.55 67.35 151.6 66.5 153.4 39.6 128.65 48.35 123.65 48.1 122.8 30.45 120.4 M35.95 129.35 L65.1 156.2 58.2 170.75 57.2 246.6 32.65 246.6 39.35 240.1 37.75 231.5 Q37.45 230.05 36.0 230.05 L37.35 222.1 33.85 218.55 30.0 141.8 29.65 141.15 Q26.1 135.45 22.05 130.35 L21.4 129.8 20.6 130.35 20.5 130.8 27.05 142.35 30.65 215.35 28.6 213.65 Q26.45 212.2 24.1 210.9 21.75 209.6 10.95 209.65 L9.0 213.1 3.05 200.8 5.4 162.85 19.1 113.7 29.0 110.05 27.3 121.95 28.25 123.2 41.35 124.45 Q37.7 125.7 35.55 128.1 L35.95 129.35 M109.75 120.2 L93.15 119.65 92.95 120.15 92.85 121.3 93.1 121.7 100.55 130.2 64.6 164.1 84.9 122.4 Q86.4 123.35 87.05 121.75 L94.45 103.05 95.2 101.3 112.65 110.05 109.75 120.2 M121.7 122.65 L121.55 121.15 119.95 121.0 115.55 134.55 110.1 220.85 Q107.4 225.25 107.0 230.45 105.6 230.95 105.5 232.35 105.1 236.55 104.85 240.8 L108.9 243.8 108.75 245.75 60.2 246.45 61.2 171.45 103.7 131.35 104.0 130.45 97.7 122.5 111.65 122.85 115.35 111.4 126.55 117.0 135.9 166.4 129.1 213.45 126.3 211.45 116.75 212.2 114.75 214.45 113.5 214.4 118.55 134.95 121.7 122.65" fill="#8d254e" fill-rule="evenodd" stroke="none"/>
    <path d="M110.5 225.3 L117.95 215.1 125.85 214.5 136.85 224.85 135.4 242.1 119.9 247.1 107.85 239.65 108.05 233.3 108.65 232.95 111.95 233.45 113.3 237.45 124.15 237.75 Q123.85 233.6 122.55 229.7 122.25 228.8 121.35 228.55 L120.3 229.35 121.0 235.35 115.35 235.05 114.15 231.15 Q112.65 230.15 111.15 230.15 L110.05 230.15 110.5 225.3 M18.1 222.45 Q17.35 230.0 19.65 237.45 L23.25 237.45 Q30.4 238.15 35.2 232.95 L36.3 239.4 28.3 246.4 5.55 238.9 Q6.2 224.4 13.05 211.95 L21.7 212.2 34.4 223.3 30.0 234.5 21.5 234.5 19.55 222.55 18.1 222.45" fill="#e3aed5" fill-rule="evenodd" stroke="none"/>
  </g>
</svg>
