<?xml version="1.0" encoding="UTF-8" standalone="no"?>
<svg xmlns:xlink="http://www.w3.org/1999/xlink" height="34.05px" width="29.8px" xmlns="http://www.w3.org/2000/svg">
  <g transform="matrix(1.0, 0.0, 0.0, 1.0, 0.0, -0.1)">
    <path d="M23.15 2.6 L23.25 2.55 23.35 2.45 23.5 2.6 23.2 2.65 22.9 2.6 23.15 2.6 M15.15 0.3 L15.2 0.35 15.0 0.35 14.95 0.5 15.25 0.7 Q14.6 0.45 14.65 0.4 L14.8 0.35 15.15 0.3 M15.6 0.7 L15.8 0.85 15.4 0.65 Q15.0 0.5 15.4 0.45 L15.65 0.5 15.55 0.55 Q15.35 0.55 15.6 0.7 M14.4 0.3 L14.4 0.25 14.45 0.25 14.4 0.3" fill="#ffffff" fill-rule="evenodd" stroke="none"/>
    <path d="M23.2 2.65 L23.5 2.6 23.6 2.65 23.55 2.7 23.45 2.7 23.25 2.65 23.2 2.65 M23.35 2.45 L23.25 2.55 23.1 2.55 21.8 2.05 23.35 2.45 M14.5 0.15 L15.15 0.3 14.8 0.35 14.65 0.4 14.4 0.3 14.45 0.25 14.4 0.25 14.35 0.25 14.3 0.2 14.5 0.15 M15.2 0.35 L15.3 0.4 15.4 0.45 Q15.0 0.5 15.4 0.65 L14.95 0.5 15.0 0.35 15.2 0.35 M18.6 1.4 L18.7 1.4 18.6 1.4 M16.55 0.95 L15.6 0.7 Q15.35 0.55 15.55 0.55 L16.55 0.95" fill="#a3d9a9" fill-rule="evenodd" stroke="none"/>
    <path d="M23.15 2.6 L22.9 2.6 23.2 2.65 23.25 2.65 22.4 2.55 18.85 2.2 19.0 1.6 19.15 1.55 19.25 1.5 21.8 2.05 23.1 2.55 22.4 2.55 23.15 2.6 M21.5 1.55 L19.2 1.4 18.75 1.35 18.7 1.4 18.6 1.4 16.55 0.95 15.55 0.55 15.65 0.5 15.4 0.45 15.3 0.4 21.5 1.55 M18.65 2.1 L16.6 1.3 18.75 1.5 18.65 2.1" fill="#bce4ae" fill-rule="evenodd" stroke="none"/>
    <path d="M23.25 2.55 L23.15 2.6 22.4 2.55 23.1 2.55 23.25 2.55 M23.5 2.6 L23.35 2.45 21.8 2.05 19.25 1.5 19.2 1.45 19.2 1.4 21.5 1.55 21.9 1.6 24.2 2.75 23.45 2.7 23.55 2.7 23.6 2.65 23.5 2.6 M16.6 1.3 Q15.05 0.95 13.65 0.1 L14.5 0.15 14.3 0.2 14.35 0.25 14.4 0.25 14.4 0.3 14.65 0.4 Q14.6 0.45 15.25 0.7 L14.95 0.5 15.4 0.65 15.8 0.85 15.6 0.7 16.55 0.95 18.6 1.4 18.7 1.4 18.75 1.5 16.6 1.3" fill="#61bc7a" fill-rule="evenodd" stroke="none"/>
    <path d="M19.85 4.75 Q18.95 9.45 18.95 12.5 L18.85 13.45 Q16.85 9.1 13.5 12.2 L15.1 9.35 16.75 8.25 16.65 7.6 Q16.35 6.7 15.7 7.85 16.55 5.5 16.9 3.0 L19.95 3.75 19.85 4.75 M29.8 21.25 L29.7 21.2 27.85 20.6 27.45 20.4 27.95 21.05 28.05 21.2 26.45 20.05 27.1 19.45 29.8 21.25 M1.5 14.7 L1.4 14.6 2.4 14.25 1.5 14.3 2.15 14.2 0.0 14.15 2.0 13.65 3.2 13.55 3.5 14.45 1.5 14.7 M17.05 7.8 L17.85 5.1 16.7 4.3 17.35 4.95 17.1 6.0 17.3 6.55 16.7 8.95 15.55 9.95 16.75 9.2 17.0 9.85 16.35 9.75 15.45 10.55 18.05 11.25 17.2 9.9 17.6 9.45 18.7 11.75 17.8 9.1 17.95 8.35 18.8 10.8 18.9 7.7 18.1 7.6 18.3 6.65 Q18.45 7.55 18.75 7.05 19.35 6.15 18.9 5.3 L19.55 4.9 19.1 4.8 18.35 5.4 18.05 7.0 17.05 7.8 M15.35 11.65 Q13.8 12.6 14.8 14.15 L13.3 12.8 15.35 11.65 M16.7 14.7 L17.65 13.9 17.3 11.65 Q18.55 12.15 18.95 14.3 L16.7 14.7" fill="#dd1e20" fill-rule="evenodd" stroke="none"/>
    <path d="M18.6 3.3 L20.05 3.65 19.85 4.75 19.95 3.75 16.9 3.0 Q16.55 5.5 15.7 7.85 L15.5 8.15 Q16.5 5.65 16.85 2.9 L18.35 3.25 18.4 3.25 18.6 3.3 M18.95 12.5 L19.0 13.6 19.1 14.35 18.4 14.7 18.25 14.7 15.95 14.9 15.45 14.9 14.1 13.95 14.0 13.85 13.15 12.8 13.05 12.75 13.1 12.55 15.2 8.85 15.1 9.35 13.5 12.2 Q16.85 9.1 18.85 13.45 L18.95 12.5 M27.15 19.4 L29.8 21.25 27.1 19.45 27.15 19.4 M28.8 21.4 L27.95 21.05 27.45 20.4 27.85 20.6 28.8 21.4 M27.1 20.7 L26.05 20.25 26.15 20.2 27.1 20.7 M3.75 14.8 L1.5 14.7 3.7 14.7 3.75 14.8 M1.4 14.6 L0.15 14.2 1.5 14.3 2.4 14.25 1.4 14.6 M2.0 13.65 L3.2 13.55 2.0 13.65 M17.0 9.85 L16.75 9.2 15.55 9.95 16.7 8.95 17.3 6.55 17.1 6.0 17.35 4.95 16.7 4.3 17.85 5.1 17.05 7.8 16.75 8.85 17.2 9.6 18.05 7.0 18.35 5.4 19.1 4.8 19.55 4.9 18.9 5.3 18.6 6.5 18.45 5.95 18.3 6.65 18.1 7.6 17.95 8.35 17.8 9.1 18.7 11.75 17.6 9.45 17.2 9.9 17.05 10.0 17.0 9.85 M17.3 11.65 L15.35 11.65 13.3 12.8 14.8 14.15 15.2 14.5 16.25 14.75 16.7 14.7 18.95 14.3 Q18.55 12.15 17.3 11.65" fill="#6d0003" fill-rule="evenodd" stroke="none"/>
    <path d="M29.7 21.2 L28.8 21.4 27.85 20.6 29.7 21.2 M28.05 21.2 L27.1 20.7 26.15 20.2 26.45 20.05 28.05 21.2 M0.15 14.2 L0.0 14.15 2.15 14.2 1.5 14.3 0.15 14.2 M3.5 14.45 L3.7 14.7 1.5 14.7 3.5 14.45" fill="#a7000a" fill-rule="evenodd" stroke="none"/>
    <path d="M19.75 15.65 L27.4 18.95 26.85 19.6 19.55 17.05 19.8 15.8 19.45 16.85 18.55 16.7 18.2 15.0 18.4 14.7 19.1 14.35 19.8 15.8 19.75 15.65 M3.15 13.05 L11.75 13.65 11.1 14.15 12.0 14.7 11.75 15.05 3.35 13.8 3.3 13.8 3.3 13.75 3.15 13.05 M13.2 13.45 L11.7 14.4 11.35 14.15 11.85 13.75 13.15 12.8 14.0 13.85 13.4 13.55 13.2 13.45" fill="#52574f" fill-rule="evenodd" stroke="none"/>
    <path d="M27.4 18.95 L27.15 19.4 27.1 19.45 26.45 20.05 26.15 20.2 26.05 20.25 18.4 18.2 18.45 18.15 26.05 20.1 26.85 19.6 27.4 18.95 M12.55 32.35 L11.8 34.15 10.85 32.65 10.35 33.65 9.5 33.7 9.5 30.95 10.3 31.8 11.2 31.55 11.95 32.55 12.55 32.35 M11.75 13.65 L13.1 12.55 13.05 12.75 11.85 13.75 11.35 14.15 11.7 14.4 12.2 14.7 11.85 15.25 11.75 15.05 12.0 14.7 11.1 14.15 11.75 13.65 M19.55 17.05 L18.35 16.9 18.55 17.75 15.5 19.05 18.35 17.6 18.35 16.9 19.45 16.85 19.8 15.8 19.55 17.05 M18.2 15.0 L14.55 19.15 14.05 19.15 13.2 13.45 13.4 13.55 14.0 13.85 14.1 13.95 13.4 13.55 13.55 15.35 15.45 14.9 15.95 14.9 16.95 16.25 18.25 14.7 18.4 14.7 18.2 15.0 M16.3 15.5 L15.7 16.05 15.6 17.85 16.9 16.25 16.3 15.5 M15.2 25.35 L14.85 26.3 14.2 24.8 13.3 24.25 11.3 31.4 11.05 31.5 11.1 31.3 12.7 25.2 Q12.1 24.25 11.45 24.45 10.75 24.6 10.05 25.7 L10.1 24.7 13.35 23.45 15.2 25.35 M15.1 15.9 L14.8 15.15 13.6 15.5 13.95 17.75 15.1 15.9" fill="#0d212d" fill-rule="evenodd" stroke="none"/>
    <path d="M19.0 13.6 L19.75 15.65 19.8 15.8 19.1 14.35 19.0 13.6 M10.25 22.3 L10.75 16.4 3.8 14.65 3.35 13.8 11.75 15.05 11.85 15.25 12.2 14.7 11.7 14.4 13.2 13.45 14.05 19.15 Q13.35 19.0 13.05 19.55 L12.85 20.05 Q12.45 21.25 13.75 21.6 14.95 21.85 15.3 20.65 15.5 19.55 14.55 19.15 L18.2 15.0 18.55 16.7 19.45 16.85 18.35 16.9 18.35 17.6 15.5 19.05 18.55 17.75 18.35 16.9 19.55 17.05 26.85 19.6 26.05 20.1 18.45 18.15 15.2 25.35 13.35 23.45 10.1 24.7 10.25 22.3 M3.2 13.55 L3.15 13.05 3.3 13.75 3.2 13.55 M14.85 26.3 L12.1 32.2 11.3 31.4 13.3 24.25 14.2 24.8 14.85 26.3 M11.1 31.3 L10.2 31.45 10.05 25.7 Q10.75 24.6 11.45 24.45 12.1 24.25 12.7 25.2 L11.1 31.3 M13.15 12.8 L11.85 13.75 13.05 12.75 13.15 12.8" fill="#3d463f" fill-rule="evenodd" stroke="none"/>
    <path d="M19.2 1.45 L19.25 1.5 19.15 1.55 19.2 1.45 M18.35 3.25 L18.65 2.1 18.75 1.5 18.7 1.4 18.75 1.35 Q18.8 1.45 19.15 1.55 L19.0 1.6 18.4 3.25 18.35 3.25" fill="#01563e" fill-rule="evenodd" stroke="none"/>
    <path d="M19.2 1.4 L19.2 1.45 19.15 1.55 Q18.8 1.45 18.75 1.35 L19.2 1.4 M18.85 2.2 L18.6 3.3 18.4 3.25 19.0 1.6 18.85 2.2" fill="#2fa466" fill-rule="evenodd" stroke="none"/>
    <path d="M18.9 5.3 Q19.35 6.15 18.75 7.05 18.45 7.55 18.3 6.65 L18.45 5.95 18.6 6.5 18.9 5.3" fill="#ee9d87" fill-rule="evenodd" stroke="none"/>
    <path d="M15.2 8.85 L15.5 8.15 15.7 7.85 Q16.35 6.7 16.65 7.6 L16.75 8.25 15.1 9.35 15.2 8.85 M17.05 7.8 L18.05 7.0 17.2 9.6 16.75 8.85 17.05 7.8 M18.1 7.6 L18.9 7.7 18.8 10.8 17.95 8.35 18.1 7.6 M17.2 9.9 L18.05 11.25 15.45 10.55 16.35 9.75 17.0 9.85 17.05 10.0 17.2 9.9 M15.35 11.65 L17.3 11.65 17.65 13.9 16.7 14.7 16.25 14.75 15.2 14.5 14.8 14.15 Q13.8 12.6 15.35 11.65" fill="#e76b58" fill-rule="evenodd" stroke="none"/>
    <path d="M18.4 18.2 L12.55 32.35 11.95 32.55 11.2 31.55 10.3 31.8 9.5 30.95 10.25 22.3 10.1 24.7 10.05 25.7 10.2 31.45 11.1 31.3 11.05 31.5 11.3 31.4 12.1 32.2 14.85 26.3 15.2 25.35 18.45 18.15 18.4 18.2 M10.75 16.4 L3.75 14.8 3.7 14.7 3.5 14.45 3.2 13.55 3.3 13.75 3.3 13.8 3.35 13.8 3.8 14.65 10.75 16.4" fill="#0c2124" fill-rule="evenodd" stroke="none"/>
    <path d="M15.95 14.9 L18.25 14.7 16.95 16.25 15.95 14.9 M16.3 15.5 L16.9 16.25 15.6 17.85 15.7 16.05 16.3 15.5 M14.1 13.95 L15.45 14.9 13.55 15.35 13.4 13.55 14.1 13.95 M15.1 15.9 L13.95 17.75 13.6 15.5 14.8 15.15 15.1 15.9" fill="#98b396" fill-rule="evenodd" stroke="none"/>
    <path d="M14.55 19.15 Q15.5 19.55 15.3 20.65 14.95 21.85 13.75 21.6 12.45 21.25 12.85 20.05 L13.05 19.55 13.0 20.85 13.35 20.95 13.85 21.2 14.4 21.25 14.7 21.3 14.8 20.9 14.95 20.5 15.0 20.1 15.1 19.65 14.05 19.15 14.55 19.15" fill="#456331" fill-rule="evenodd" stroke="none"/>
    <path d="M13.05 19.55 Q13.35 19.0 14.05 19.15 L15.1 19.65 15.0 20.1 Q14.95 19.55 14.3 19.4 13.35 19.1 13.15 20.1 13.0 20.65 13.35 20.95 L13.0 20.85 13.05 19.55 M14.4 21.25 L14.8 20.9 14.7 21.3 14.4 21.25" fill="#4c9d4b" fill-rule="evenodd" stroke="none"/>
    <path d="M13.35 20.95 Q13.0 20.65 13.15 20.1 13.35 19.1 14.3 19.4 14.95 19.55 15.0 20.1 L14.95 20.5 14.8 20.9 14.4 21.25 13.85 21.2 13.35 20.95 M13.35 20.05 Q13.05 20.85 13.85 21.0 14.6 21.25 14.85 20.45 15.0 19.55 14.3 19.45 13.45 19.2 13.35 20.05" fill="#2c5b33" fill-rule="evenodd" stroke="none"/>
    <path d="M13.35 20.05 Q13.45 19.2 14.3 19.45 15.0 19.55 14.85 20.45 14.6 21.25 13.85 21.0 13.05 20.85 13.35 20.05" fill="#9dc278" fill-rule="evenodd" stroke="none"/>
  </g>
</svg>
