<?xml version="1.0" encoding="UTF-8" standalone="no"?>
<svg xmlns:xlink="http://www.w3.org/1999/xlink" height="352.1px" width="273.4px" xmlns="http://www.w3.org/2000/svg">
  <g transform="matrix(1.0, 0.0, 0.0, 1.0, 28.4, 73.05)">
    <path d="M223.25 164.75 Q223.35 165.95 224.0 166.9 L224.9 167.8 225.7 168.2 Q232.25 170.4 233.1 163.75 234.4 168.85 230.05 170.05 223.2 171.9 223.25 164.75 M225.25 163.05 L225.55 162.55 225.65 162.55 225.25 163.05 M-3.4 254.95 L-6.3 256.2 13.25 275.8 214.15 275.8 225.7 256.9 237.9 165.25 236.7 149.55 233.85 111.0 160.5 67.55 171.15 38.85 174.05 30.9 144.2 -63.4 88.55 -70.6 53.95 23.45 62.4 63.1 62.8 64.85 -3.7 103.25 -24.75 178.15 -7.4 255.15 -6.3 256.15 -3.4 254.95 M93.1 -54.55 L103.15 -65.05 103.15 -62.45 93.05 -51.85 93.05 -54.55 93.1 -54.55 M95.45 -52.45 Q97.2 -51.45 99.35 -51.4 106.3 -52.05 106.9 -58.7 107.35 -48.5 97.4 -49.8 L95.5 -50.0 95.45 -52.45 M83.75 -73.05 L149.5 -70.25 180.3 23.45 169.3 61.9 244.25 111.7 245.0 178.1 232.5 259.3 224.4 279.05 3.9 279.05 -13.95 258.7 -28.4 177.9 -9.65 98.6 Q20.2 84.35 49.85 69.4 L54.7 66.55 46.5 20.3 83.75 -73.05 M4.05 116.05 L4.05 113.35 4.1 113.35 14.15 102.85 14.15 105.45 4.05 116.05 M17.95 109.15 Q18.45 119.45 8.4 118.15 L6.5 117.85 6.45 115.4 Q8.2 116.4 10.35 116.5 17.3 115.85 17.95 109.15 M56.35 240.75 Q57.75 248.6 49.85 247.0 45.95 246.45 46.5 241.75 46.65 242.95 47.25 243.9 L48.15 244.8 49.0 245.2 Q55.55 247.45 56.35 240.75 M48.9 239.55 L48.55 240.05 48.85 239.55 48.9 239.55" fill="#47525f" fill-rule="evenodd" stroke="none"/>
    <path d="M236.7 149.55 L-3.4 254.95 -6.3 256.15 -7.4 255.15 -24.75 178.15 -3.7 103.25 62.8 64.85 62.4 63.1 171.15 38.85 160.5 67.55 233.85 111.0 236.7 149.55 M105.45 -63.0 L105.55 -62.2 Q105.4 -52.15 95.45 -52.45 L104.15 -61.65 105.45 -63.0 M2.55 109.25 L2.55 112.2 Q2.25 113.15 4.05 116.05 L6.5 117.85 8.4 118.15 Q18.45 119.45 17.95 109.15 L16.45 104.85 16.55 105.9 Q16.3 115.8 6.45 115.4 L15.15 106.25 14.15 105.45 14.15 102.85 13.4 102.6 Q6.65 100.05 3.2 107.35 2.8 108.2 2.55 109.25 M4.05 113.35 L4.05 113.25 4.1 113.35 4.05 113.35 M3.75 111.7 L3.75 111.6 3.8 111.45 3.75 111.7" fill="#bab9ba" fill-rule="evenodd" stroke="none"/>
    <path d="M225.55 162.55 L225.7 162.45 225.65 162.55 225.55 162.55 M227.15 161.25 Q228.55 160.2 230.5 159.95 L229.4 159.6 Q223.6 159.1 223.25 164.75 223.2 171.9 230.05 170.05 234.4 168.85 233.1 163.75 L232.1 161.35 230.5 160.05 Q228.75 160.15 227.15 161.25 M236.7 149.55 L237.9 165.25 225.7 256.9 214.15 275.8 13.25 275.8 -6.3 256.2 -3.4 254.95 236.7 149.55 M62.4 63.1 L53.95 23.45 88.55 -70.6 144.2 -63.4 174.05 30.9 171.15 38.85 62.4 63.1 M92.8 -56.45 L92.7 -56.2 92.7 -56.25 92.8 -56.45 M93.05 -54.6 L93.1 -54.55 93.05 -54.55 93.05 -54.6 M103.15 -65.05 L102.7 -65.35 102.3 -65.2 Q100.3 -66.55 96.55 -65.15 92.1 -63.35 91.5 -58.65 L91.5 -55.7 Q91.25 -54.75 93.05 -51.85 L95.5 -50.0 97.4 -49.8 Q107.35 -48.5 106.9 -58.7 L105.45 -63.0 104.15 -61.65 103.15 -62.45 103.15 -65.05 M55.35 238.35 L53.6 237.1 53.8 236.95 Q47.45 235.4 46.5 241.75 45.95 246.45 49.85 247.0 57.75 248.6 56.35 240.75 L55.35 238.35 M49.0 239.45 L48.9 239.55 48.85 239.55 49.0 239.45" fill="#9c9c9c" fill-rule="evenodd" stroke="none"/>
    <path d="M225.7 162.45 L225.55 162.55 225.25 163.05 224.0 166.9 Q223.35 165.95 223.25 164.75 223.6 159.1 229.4 159.6 L230.5 159.95 Q228.55 160.2 227.15 161.25 226.4 161.8 225.7 162.45 M102.3 -65.2 L101.7 -65.05 Q95.3 -62.55 92.8 -56.45 L92.7 -56.25 92.6 -55.2 Q91.65 -56.85 91.5 -58.65 92.1 -63.35 96.55 -65.15 100.3 -66.55 102.3 -65.2 M3.75 111.6 L3.6 112.7 Q2.65 111.05 2.55 109.25 2.8 108.2 3.2 107.35 6.65 100.05 13.4 102.6 7.4 104.6 4.5 110.1 L3.8 111.45 3.75 111.6 M46.5 241.75 Q47.45 235.4 53.8 236.95 L53.6 237.1 49.0 239.45 48.85 239.55 48.55 240.05 47.25 243.9 Q46.65 242.95 46.5 241.75" fill="#e9e9eb" fill-rule="evenodd" stroke="none"/>
    <path d="M225.7 162.45 Q226.4 161.8 227.15 161.25 228.75 160.15 230.5 160.05 L232.1 161.35 Q232.1 164.0 230.0 165.9 227.85 167.8 224.9 167.8 L224.0 166.9 225.25 163.05 225.65 162.55 225.7 162.45 M92.8 -56.45 Q95.3 -62.55 101.7 -65.05 L102.3 -65.2 102.7 -65.35 103.15 -65.05 93.1 -54.55 93.05 -54.6 92.65 -55.2 92.7 -56.2 92.8 -56.45 M4.05 113.25 L3.65 112.7 3.75 111.7 3.8 111.45 4.5 110.1 Q7.4 104.6 13.4 102.6 L14.15 102.85 4.1 113.35 4.05 113.25 M53.6 237.1 L55.35 238.35 Q55.35 241.0 53.25 242.9 51.1 244.8 48.15 244.8 L47.25 243.9 48.55 240.05 48.9 239.55 49.0 239.45 53.6 237.1" fill="#d0cfd0" fill-rule="evenodd" stroke="none"/>
    <path d="M233.1 163.75 Q232.25 170.4 225.7 168.2 L224.9 167.8 Q227.85 167.8 230.0 165.9 232.1 164.0 232.1 161.35 L233.1 163.75 M95.45 -52.45 Q105.4 -52.15 105.55 -62.2 L105.45 -63.0 106.9 -58.7 Q106.3 -52.05 99.35 -51.4 97.2 -51.45 95.45 -52.45 M6.45 115.4 Q16.3 115.8 16.55 105.9 L16.45 104.85 17.95 109.15 Q17.3 115.85 10.35 116.5 8.2 116.4 6.45 115.4 M55.35 238.35 L56.35 240.75 Q55.55 247.45 49.0 245.2 L48.15 244.8 Q51.1 244.8 53.25 242.9 55.35 241.0 55.35 238.35" fill="#b0aeb3" fill-rule="evenodd" stroke="none"/>
    <path d="M104.15 -61.65 L95.45 -52.45 95.5 -50.0 93.05 -51.85 103.15 -62.45 104.15 -61.65 M14.15 105.45 L15.15 106.25 6.45 115.4 6.5 117.85 4.05 116.05 14.15 105.45" fill="#57565b" fill-rule="evenodd" stroke="none"/>
    <path d="M92.7 -56.2 L92.65 -55.2 93.05 -54.6 93.05 -54.55 93.05 -51.85 Q91.25 -54.75 91.5 -55.7 L91.5 -58.65 Q91.65 -56.85 92.6 -55.2 L92.7 -56.25 92.7 -56.2 M4.05 116.05 Q2.25 113.15 2.55 112.2 L2.55 109.25 Q2.65 111.05 3.6 112.7 L3.75 111.6 3.75 111.7 3.65 112.7 4.05 113.25 4.05 113.35 4.05 116.05" fill="#79818b" fill-rule="evenodd" stroke="none"/>
  </g>
</svg>
