<?xml version="1.0" encoding="UTF-8" standalone="no"?>
<svg xmlns:xlink="http://www.w3.org/1999/xlink" height="262.35px" width="187.35px" xmlns="http://www.w3.org/2000/svg">
  <g transform="matrix(1.0, 0.0, 0.0, 1.0, 0.0, 0.0)">
    <path d="M182.75 132.9 L187.35 174.3 182.8 218.6 177.85 240.35 177.45 240.7 179.65 244.5 161.5 261.05 Q152.2 254.25 144.25 245.95 L144.05 245.75 143.9 245.45 144.1 243.4 Q146.5 230.05 141.1 217.2 L139.75 213.4 137.45 205.6 131.35 211.7 137.55 260.65 137.15 261.9 136.05 262.35 52.85 262.35 51.35 260.75 55.3 214.7 44.9 202.9 41.65 234.2 41.5 234.95 40.0 241.95 43.15 246.4 42.95 247.75 26.35 260.4 5.5 241.65 6.65 239.45 2.5 220.05 0.0 176.3 7.3 136.45 7.7 135.45 65.7 98.5 62.0 84.9 61.2 81.7 64.6 68.0 65.75 64.9 55.2 63.55 54.85 62.25 78.65 0.7 79.2 0.0 116.7 0.5 117.15 1.05 136.75 61.2 136.6 62.55 126.55 63.75 130.4 81.9 127.25 95.95 126.4 98.45 182.1 132.2 182.75 132.9 M180.25 137.35 L139.55 203.2 144.1 212.0 145.25 214.3 Q149.95 224.25 149.35 235.25 L155.5 228.85 167.35 228.55 175.35 238.05 179.8 218.3 184.35 174.5 180.25 137.35 M127.3 41.95 L122.5 27.25 114.6 3.0 81.1 2.75 58.4 61.45 68.65 62.35 69.0 62.7 63.65 81.95 68.9 98.65 88.3 106.2 88.8 107.15 94.35 150.9 97.95 107.5 98.55 106.1 123.65 97.15 128.4 81.95 123.4 61.45 Q124.0 60.95 124.5 60.9 L133.3 60.3 127.3 41.95 M91.7 31.05 Q85.95 26.05 79.15 28.1 L77.4 29.15 76.4 28.7 76.25 28.3 Q85.3 21.25 92.55 30.35 L91.7 31.05 M81.55 34.2 L78.8 37.7 Q84.7 37.25 90.25 39.4 87.35 35.75 82.85 34.5 L81.55 34.2 M81.9 39.55 L78.2 39.8 77.85 40.2 77.75 41.1 Q82.95 42.2 88.1 40.9 L85.75 40.2 Q83.85 39.6 81.9 39.55 M82.15 49.0 L81.95 50.1 83.55 51.2 85.6 50.2 Q89.85 48.4 94.3 49.25 L95.3 52.8 99.45 52.6 98.4 49.25 99.4 48.4 Q105.0 48.0 110.05 50.35 L112.0 50.1 110.35 48.85 110.4 48.3 111.05 47.6 117.7 51.35 117.5 52.25 114.55 51.55 Q113.8 54.5 113.4 57.5 112.4 65.15 111.9 72.75 111.25 83.35 107.35 93.35 105.7 97.55 101.95 100.3 95.45 105.05 89.55 99.75 88.4 98.65 88.05 97.35 82.15 75.3 77.55 52.85 L76.05 54.5 74.75 53.95 Q77.05 50.05 81.25 48.35 L82.15 49.0 M99.15 39.55 Q103.65 34.1 110.2 31.9 118.15 29.2 118.95 37.45 L121.3 39.0 120.95 40.0 118.2 39.25 117.65 42.0 Q107.9 46.7 99.15 40.4 L99.15 39.55 M93.65 42.45 L76.85 42.95 73.75 45.15 72.7 44.75 72.65 43.6 75.75 41.25 75.8 40.1 72.8 40.2 72.15 39.8 72.4 38.4 75.5 38.1 Q77.25 34.1 80.75 31.25 90.6 32.45 94.45 41.3 L93.65 42.45 M109.7 38.45 L110.15 37.65 116.0 36.9 Q116.45 33.55 113.3 33.8 107.65 34.75 103.45 38.75 L108.95 38.45 109.1 39.25 108.6 39.9 103.45 40.75 104.95 41.3 Q110.6 42.95 115.95 40.65 L116.15 39.0 112.0 39.25 110.15 39.3 109.7 38.45 M114.95 27.5 Q112.85 25.35 110.0 25.85 L102.5 30.35 101.65 29.35 Q104.55 25.55 109.4 24.2 114.5 22.6 116.95 27.15 L115.85 28.05 114.95 27.5 M102.8 52.7 L105.85 51.8 102.1 51.2 102.8 52.7 M91.85 51.85 Q89.6 51.85 87.35 52.75 L92.3 53.7 Q91.9 52.9 91.85 51.85 M84.3 53.5 L85.2 53.95 79.75 51.55 79.3 51.8 Q82.3 74.05 86.0 82.35 89.65 90.6 95.25 90.1 106.3 92.3 108.85 80.25 111.35 68.15 111.55 52.2 L97.55 55.4 Q92.3 56.3 87.25 54.65 L84.3 53.5 M90.55 96.85 Q93.4 100.75 97.65 98.95 104.5 96.0 106.15 88.7 99.7 93.95 91.9 91.45 89.45 90.7 87.35 87.3 87.9 93.35 90.55 96.85 M48.7 134.45 L48.95 134.05 Q52.95 131.65 57.3 129.95 L35.6 128.35 34.9 127.6 33.75 122.4 10.7 137.05 28.65 175.85 44.05 198.4 44.5 198.4 Q52.0 205.9 58.35 214.35 L54.5 259.35 74.3 259.35 76.55 194.6 88.3 172.55 48.95 135.95 48.5 134.9 48.7 134.45 M64.85 128.0 L65.1 129.2 52.55 135.2 89.75 169.85 92.95 163.45 76.65 125.75 71.5 132.9 70.7 132.9 70.4 132.45 Q67.65 117.4 65.7 102.05 L36.5 120.65 37.25 125.5 63.7 127.4 64.85 128.0 M71.9 127.35 L85.0 108.1 68.7 101.85 71.9 127.35 M9.45 141.35 L3.0 176.3 5.5 219.7 9.05 236.2 16.35 226.25 16.7 225.8 17.2 225.6 25.55 225.9 Q32.05 227.65 38.05 231.4 38.75 235.4 39.85 228.45 41.0 221.2 42.3 201.15 L26.15 177.55 9.45 141.35 M125.25 129.35 L151.8 126.15 151.6 117.2 125.5 101.4 117.55 134.15 Q116.45 134.6 115.65 133.65 L114.0 131.45 112.35 129.15 Q104.6 146.15 96.35 162.95 91.0 173.9 85.15 184.65 95.2 173.85 105.8 163.6 119.2 150.7 133.2 138.35 L124.25 130.5 125.25 129.35 M133.1 134.1 Q137.1 135.75 137.0 138.95 L107.35 165.2 79.55 195.05 77.35 259.35 134.35 259.35 128.25 211.35 136.65 202.15 178.8 134.0 154.65 119.05 154.85 127.45 Q154.9 128.8 153.5 128.95 L129.4 131.9 Q131.15 133.2 133.1 134.1 M100.6 111.7 L97.0 155.55 110.4 126.25 100.6 111.7 M116.1 129.2 L122.6 100.75 101.8 108.1 116.1 129.2 M86.3 111.5 L78.65 122.85 91.5 152.5 86.3 111.5 M147.15 245.2 L161.1 257.6 176.2 243.7 166.05 231.4 156.8 231.7 149.2 239.85 149.3 240.5 154.95 244.95 157.75 243.65 158.3 241.6 159.75 241.65 162.95 247.15 162.75 247.95 161.15 248.45 160.6 248.25 159.4 246.4 154.5 248.15 148.15 243.4 147.15 245.2 M9.0 241.3 L26.0 256.95 39.6 246.45 38.05 244.4 35.25 246.4 23.3 243.25 Q22.35 240.45 23.85 237.3 24.2 236.6 25.15 236.65 L25.9 237.1 25.8 241.2 34.55 243.3 37.05 241.4 38.55 235.3 25.5 227.0 18.4 228.4 9.0 241.3" fill="#1a1a1a" fill-rule="evenodd" stroke="none"/>
    <path d="M180.25 137.35 L184.35 174.5 179.8 218.3 175.35 238.05 167.35 228.55 155.5 228.85 149.35 235.25 Q149.95 224.25 145.25 214.3 L144.1 212.0 139.55 203.2 180.25 137.35 M122.5 27.25 Q116.25 16.05 104.0 11.8 91.25 7.4 81.1 16.75 67.45 29.35 66.45 48.1 66.1 55.1 71.55 58.8 L68.65 62.35 58.4 61.45 81.1 2.75 114.6 3.0 122.5 27.25 M123.4 61.45 L120.75 59.5 Q126.4 57.25 127.3 51.45 128.0 46.65 127.3 41.95 L133.3 60.3 124.5 60.9 Q124.0 60.95 123.4 61.45 M81.55 34.2 L82.85 34.5 Q87.35 35.75 90.25 39.4 84.7 37.25 78.8 37.7 L81.55 34.2 M108.95 38.45 L103.45 38.75 Q107.65 34.75 113.3 33.8 116.45 33.55 116.0 36.9 L110.15 37.65 109.7 38.45 108.95 38.45 M91.85 51.85 Q91.9 52.9 92.3 53.7 L87.35 52.75 Q89.6 51.85 91.85 51.85 M102.8 52.7 L102.1 51.2 105.85 51.8 102.8 52.7 M64.85 128.0 L63.7 127.4 37.25 125.5 36.5 120.65 65.7 102.05 Q67.65 117.4 70.4 132.45 L70.7 132.9 71.5 132.9 76.65 125.75 92.95 163.45 89.75 169.85 52.55 135.2 65.1 129.2 64.85 128.0 M48.7 134.45 L48.5 134.9 48.95 135.95 88.3 172.55 76.55 194.6 74.3 259.35 54.5 259.35 58.35 214.35 Q52.0 205.9 44.5 198.4 L44.05 198.4 28.65 175.85 10.7 137.05 33.75 122.4 34.9 127.6 35.6 128.35 57.3 129.95 Q52.95 131.65 48.95 134.05 L48.7 134.45 M90.55 96.85 Q87.9 93.35 87.35 87.3 89.45 90.7 91.9 91.45 99.7 93.95 106.15 88.7 104.5 96.0 97.65 98.95 93.4 100.75 90.55 96.85 M133.1 134.1 Q131.15 133.2 129.4 131.9 L153.5 128.95 Q154.9 128.8 154.85 127.45 L154.65 119.05 178.8 134.0 136.65 202.15 128.25 211.35 134.35 259.35 77.35 259.35 79.55 195.05 107.35 165.2 137.0 138.95 Q137.1 135.75 133.1 134.1 M125.25 129.35 L124.25 130.5 133.2 138.35 Q119.2 150.7 105.8 163.6 95.2 173.85 85.15 184.65 91.0 173.9 96.35 162.95 104.6 146.15 112.35 129.15 L114.0 131.45 115.65 133.65 Q116.45 134.6 117.55 134.15 L125.5 101.4 151.6 117.2 151.8 126.15 125.25 129.35 M9.45 141.35 L26.15 177.55 42.3 201.15 Q41.0 221.2 39.85 228.45 38.75 235.4 38.05 231.4 32.05 227.65 25.55 225.9 L17.2 225.6 16.7 225.8 16.35 226.25 9.05 236.2 5.5 219.7 3.0 176.3 9.45 141.35" fill="#8d254e" fill-rule="evenodd" stroke="none"/>
    <path d="M9.0 241.3 L18.4 228.4 25.5 227.0 38.55 235.3 37.05 241.4 34.55 243.3 25.8 241.2 25.9 237.1 25.15 236.65 Q24.2 236.6 23.85 237.3 22.35 240.45 23.3 243.25 L35.25 246.4 38.05 244.4 39.6 246.45 26.0 256.95 9.0 241.3 M147.15 245.2 L148.15 243.4 154.5 248.15 159.4 246.4 160.6 248.25 161.15 248.45 162.75 247.95 162.95 247.15 159.75 241.65 158.3 241.6 157.75 243.65 154.95 244.95 149.3 240.5 149.2 239.85 156.8 231.7 166.05 231.4 176.2 243.7 161.1 257.6 147.15 245.2" fill="#e3aed5" fill-rule="evenodd" stroke="none"/>
    <path d="M85.75 40.2 L88.1 40.9 Q82.95 42.2 77.75 41.1 L77.85 40.2 78.2 39.8 81.9 39.55 Q83.0 42.15 85.75 40.2 M112.0 39.25 L116.15 39.0 115.95 40.65 Q110.6 42.95 104.95 41.3 L103.45 40.75 108.6 39.9 Q109.1 40.35 110.05 40.4 111.5 40.3 112.0 39.25 M84.3 53.5 L87.25 54.65 Q92.3 56.3 97.55 55.4 L111.55 52.2 Q111.35 68.15 108.85 80.25 106.3 92.3 95.25 90.1 89.65 90.6 86.0 82.35 82.3 74.05 79.3 51.8 L79.75 51.55 85.2 53.95 84.3 53.5" fill="#ffffff" fill-rule="evenodd" stroke="none"/>
    <path d="M81.9 39.55 Q83.85 39.6 85.75 40.2 83.0 42.15 81.9 39.55 M108.95 38.45 L109.7 38.45 110.15 39.3 112.0 39.25 Q111.5 40.3 110.05 40.4 109.1 40.35 108.6 39.9 L109.1 39.25 108.95 38.45" fill="#000000" fill-rule="evenodd" stroke="none"/>
    <path d="M71.9 127.35 L68.7 101.85 85.0 108.1 71.9 127.35 M86.3 111.5 L91.5 152.5 78.65 122.85 86.3 111.5 M116.1 129.2 L101.8 108.1 122.6 100.75 116.1 129.2 M100.6 111.7 L110.4 126.25 97.0 155.55 100.6 111.7" fill="#ffe1e9" fill-rule="evenodd" stroke="none"/>
    <path d="M122.5 27.25 L127.3 41.95 Q128.0 46.65 127.3 51.45 126.4 57.25 120.75 59.5 L123.4 61.45 128.4 81.95 123.65 97.15 98.55 106.1 97.95 107.5 94.35 150.9 88.8 107.15 88.3 106.2 68.9 98.65 63.65 81.95 69.0 62.7 68.65 62.35 71.55 58.8 Q66.1 55.1 66.45 48.1 67.45 29.35 81.1 16.75 91.25 7.4 104.0 11.8 116.25 16.05 122.5 27.25 M91.7 31.05 L92.55 30.35 Q85.3 21.25 76.25 28.3 L76.4 28.7 77.4 29.15 79.15 28.1 Q85.95 26.05 91.7 31.05 M93.65 42.45 L94.45 41.3 Q90.6 32.45 80.75 31.25 77.25 34.1 75.5 38.1 L72.4 38.4 72.15 39.8 72.8 40.2 75.8 40.1 75.75 41.25 72.65 43.6 72.7 44.75 73.75 45.15 76.85 42.95 93.65 42.45 M99.15 39.55 L99.15 40.4 Q107.9 46.7 117.65 42.0 L118.2 39.25 120.95 40.0 121.3 39.0 118.95 37.45 Q118.15 29.2 110.2 31.9 103.65 34.1 99.15 39.55 M82.15 49.0 L81.25 48.35 Q77.05 50.05 74.75 53.95 L76.05 54.5 77.55 52.85 Q82.15 75.3 88.05 97.35 88.4 98.65 89.55 99.75 95.45 105.05 101.95 100.3 105.7 97.55 107.35 93.35 111.25 83.35 111.9 72.75 112.4 65.15 113.4 57.5 113.8 54.5 114.55 51.55 L117.5 52.25 117.7 51.35 111.05 47.6 110.4 48.3 110.35 48.85 112.0 50.1 110.05 50.35 Q105.0 48.0 99.4 48.4 L98.4 49.25 99.45 52.6 95.3 52.8 94.3 49.25 Q89.85 48.4 85.6 50.2 L83.55 51.2 81.95 50.1 82.15 49.0 M114.95 27.5 L115.85 28.05 116.95 27.15 Q114.5 22.6 109.4 24.2 104.55 25.55 101.65 29.35 L102.5 30.35 110.0 25.85 Q112.85 25.35 114.95 27.5" fill="#ebc5e2" fill-rule="evenodd" stroke="none"/>
  </g>
</svg>
