<?xml version="1.0" encoding="UTF-8" standalone="no"?>
<svg xmlns:xlink="http://www.w3.org/1999/xlink" height="346.95px" width="270.3px" xmlns="http://www.w3.org/2000/svg">
  <g transform="matrix(1.0, 0.0, 0.0, 1.0, 21.95, 55.0)">
    <path d="M179.35 61.6 L183.75 45.6 143.25 -30.65 104.75 -42.95 62.55 37.75 66.9 85.35 64.2 87.3 11.3 124.55 -15.0 181.7 0.3 269.7 0.8 273.4 16.15 288.75 212.65 288.75 231.85 269.0 241.5 181.6 239.65 164.6 235.1 123.95 171.5 89.9 179.35 61.6 M228.75 181.4 L229.5 182.2 230.25 182.6 Q236.4 184.9 237.35 178.4 238.45 186.15 231.1 184.9 228.95 184.45 228.4 182.4 228.05 181.15 228.05 179.55 L228.75 181.4 M237.8 119.6 L248.35 194.8 238.4 272.1 221.5 291.95 13.4 291.95 -5.6 276.6 -21.95 192.8 5.75 120.2 61.0 85.65 55.75 36.55 108.4 -55.0 147.55 -36.9 190.95 44.75 177.1 84.05 237.8 119.6 M115.6 -32.45 L115.6 -30.0 106.05 -19.95 106.05 -22.5 106.1 -22.5 115.6 -32.45 M119.2 -26.45 Q119.7 -16.8 110.2 -18.0 L108.4 -18.2 108.35 -20.55 Q110.0 -19.6 112.05 -19.55 118.6 -20.15 119.2 -26.45 M2.75 175.95 L2.75 178.4 -6.8 188.45 -6.8 185.85 -6.7 185.85 2.75 175.95 M6.35 181.9 Q6.85 191.6 -2.65 190.4 L-4.45 190.15 -4.5 187.85 Q-2.85 188.8 -0.8 188.85 5.75 188.25 6.35 181.9 M69.0 249.25 Q70.3 255.35 64.4 256.0 61.7 256.5 60.45 254.0 59.6 252.3 59.65 250.4 L60.4 252.25 61.1 253.1 61.9 253.5 Q68.15 255.8 69.0 249.25 M43.3 260.1 L43.0 260.25 43.15 259.6 43.3 260.1" fill="#47525f" fill-rule="evenodd" stroke="none"/>
    <path d="M179.35 61.6 L171.5 89.9 235.1 123.95 239.65 164.6 0.3 269.7 -15.0 181.7 11.3 124.55 64.2 87.3 179.35 61.6 M116.55 -29.2 L117.85 -30.5 117.9 -29.55 Q117.6 -20.2 108.35 -20.55 L116.55 -29.2 M2.75 178.4 L2.75 175.95 2.35 175.65 2.05 175.75 Q-4.4 173.3 -7.55 180.2 L-8.2 182.0 -8.2 184.8 Q-8.45 185.7 -6.8 188.45 L-4.45 190.15 -2.65 190.4 Q6.85 191.6 6.35 181.9 L5.0 177.85 5.05 178.65 Q4.85 188.2 -4.5 187.85 L3.7 179.2 2.75 178.4 M-6.7 185.85 L-6.8 185.85 -6.8 185.8 -6.7 185.85 M-7.0 184.05 L-7.1 184.3 -7.1 184.25 -7.0 184.05" fill="#bab9ba" fill-rule="evenodd" stroke="none"/>
    <path d="M64.2 87.3 L66.9 85.35 62.55 37.75 104.75 -42.95 143.25 -30.65 183.75 45.6 179.35 61.6 64.2 87.3 M239.65 164.6 L241.5 181.6 231.85 269.0 212.65 288.75 16.15 288.75 0.8 273.4 0.3 269.7 239.65 164.6 M236.4 176.15 Q235.75 175.35 234.9 174.9 L233.9 174.5 Q228.3 174.05 228.05 179.55 228.05 181.15 228.4 182.4 228.95 184.45 231.1 184.9 238.45 186.15 237.35 178.4 237.25 177.15 236.4 176.15 M114.9 -32.6 Q108.5 -35.0 105.3 -28.2 L104.65 -26.4 104.65 -23.6 Q104.4 -22.7 106.05 -19.95 L108.4 -18.2 110.2 -18.0 Q119.7 -16.8 119.2 -26.45 L117.85 -30.5 116.55 -29.2 115.6 -30.0 115.6 -32.45 115.2 -32.75 114.9 -32.6 M105.75 -24.15 L105.85 -24.3 105.75 -24.05 105.75 -24.15 M106.05 -22.6 L106.1 -22.5 106.05 -22.5 106.05 -22.6 M66.55 245.75 L65.5 245.4 Q60.05 244.85 59.65 250.4 59.6 252.3 60.45 254.0 61.7 256.5 64.4 256.0 70.3 255.35 69.0 249.25 68.85 248.0 68.05 247.0 L66.55 245.75 M43.3 260.1 L43.15 259.6 43.0 260.25 43.3 260.1" fill="#9c9c9c" fill-rule="evenodd" stroke="none"/>
    <path d="M234.9 174.9 Q232.35 174.9 230.55 176.8 228.75 178.7 228.75 181.4 L228.05 179.55 Q228.3 174.05 233.9 174.5 L234.9 174.9 M104.65 -26.4 L105.3 -28.2 Q108.5 -35.0 114.9 -32.6 109.35 -30.7 106.35 -25.55 L105.85 -24.3 105.75 -24.15 105.65 -23.1 Q104.75 -24.65 104.65 -26.4 M-8.2 182.0 L-7.55 180.2 Q-4.4 173.3 2.05 175.75 -3.6 177.6 -6.35 182.8 L-7.0 184.05 -7.1 184.25 -7.2 185.25 Q-8.1 183.7 -8.2 182.0 M59.65 250.4 Q60.05 244.85 65.5 245.4 L66.55 245.75 Q63.95 245.75 62.2 247.65 60.4 249.55 60.4 252.25 L59.65 250.4" fill="#e9e9eb" fill-rule="evenodd" stroke="none"/>
    <path d="M228.75 181.4 Q228.75 178.7 230.55 176.8 232.35 174.9 234.9 174.9 235.75 175.35 236.4 176.15 L236.4 176.45 Q235.95 182.65 229.5 182.2 L228.75 181.4 M114.9 -32.6 L115.2 -32.75 115.6 -32.45 106.1 -22.5 106.05 -22.6 105.7 -23.1 105.75 -24.05 105.85 -24.3 106.35 -25.55 Q109.35 -30.7 114.9 -32.6 M2.05 175.75 L2.35 175.65 2.75 175.95 -6.7 185.85 -6.8 185.8 -7.15 185.25 -7.1 184.3 -7.0 184.05 -6.35 182.8 Q-3.6 177.6 2.05 175.75 M66.55 245.75 L68.05 247.0 Q68.1 252.6 62.3 253.2 L61.1 253.1 60.4 252.25 Q60.4 249.55 62.2 247.65 63.95 245.75 66.55 245.75" fill="#d0cfd0" fill-rule="evenodd" stroke="none"/>
    <path d="M229.5 182.2 Q235.95 182.65 236.4 176.45 L236.4 176.15 Q237.25 177.15 237.35 178.4 236.4 184.9 230.25 182.6 L229.5 182.2 M117.85 -30.5 L119.2 -26.45 Q118.6 -20.15 112.05 -19.55 110.0 -19.6 108.35 -20.55 117.6 -20.2 117.9 -29.55 L117.85 -30.5 M-4.5 187.85 Q4.85 188.2 5.05 178.65 L5.0 177.85 6.35 181.9 Q5.75 188.25 -0.8 188.85 -2.85 188.8 -4.5 187.85 M68.05 247.0 Q68.85 248.0 69.0 249.25 68.15 255.8 61.9 253.5 L61.1 253.1 62.3 253.2 Q68.1 252.6 68.05 247.0" fill="#b0aeb3" fill-rule="evenodd" stroke="none"/>
    <path d="M115.6 -30.0 L116.55 -29.2 108.35 -20.55 108.4 -18.2 106.05 -19.95 115.6 -30.0 M2.75 178.4 L3.7 179.2 -4.5 187.85 -4.45 190.15 -6.8 188.45 2.75 178.4" fill="#57565b" fill-rule="evenodd" stroke="none"/>
    <path d="M106.05 -19.95 Q104.4 -22.7 104.65 -23.6 L104.65 -26.4 Q104.75 -24.65 105.65 -23.1 L105.75 -24.15 105.75 -24.05 105.7 -23.1 106.05 -22.6 106.05 -22.5 106.05 -19.95 M-6.8 188.45 Q-8.45 185.7 -8.2 184.8 L-8.2 182.0 Q-8.1 183.7 -7.2 185.25 L-7.1 184.25 -7.1 184.3 -7.15 185.25 -6.8 185.8 -6.8 185.85 -6.8 188.45" fill="#79818b" fill-rule="evenodd" stroke="none"/>
  </g>
</svg>
