<?xml version="1.0" encoding="UTF-8" standalone="no"?>
<svg xmlns:xlink="http://www.w3.org/1999/xlink" height="335.5px" width="190.85px" xmlns="http://www.w3.org/2000/svg">
  <g transform="matrix(1.0, 0.0, 0.0, 1.0, 2.75, 57.0)">
    <path d="M123.9 51.55 L128.3 -33.75 82.8 -50.0 51.25 -36.35 59.15 66.0 60.65 103.2 23.65 120.1 4.15 203.95 6.5 249.25 7.3 264.45 18.1 275.3 167.9 275.3 176.35 264.35 176.35 197.4 174.4 176.1 173.8 127.0 121.1 103.85 123.9 51.55 M66.9 -33.55 L66.9 -31.05 57.2 -20.9 57.2 -23.5 57.25 -23.5 66.9 -33.55 M70.5 -27.5 Q70.95 -17.75 61.3 -18.35 L59.55 -19.15 59.5 -21.5 Q61.2 -20.55 63.25 -20.5 69.9 -21.1 70.5 -27.5 M61.95 55.15 L62.65 57.05 63.25 54.95 Q64.6 50.9 68.9 50.4 L70.45 51.7 Q69.6 57.65 63.45 57.85 L64.25 58.25 Q70.15 60.5 71.4 54.65 71.55 57.3 70.25 59.35 68.95 61.35 66.95 61.55 64.95 61.65 63.5 59.85 62.05 57.95 61.95 55.15 M81.4 -57.0 L135.35 -37.6 128.25 94.6 178.75 122.15 188.1 196.9 179.6 266.7 171.3 278.5 15.3 278.5 0.55 267.4 -2.75 192.4 15.3 121.25 56.05 96.4 40.55 -40.55 81.4 -57.0 M164.8 132.7 L164.8 135.15 155.15 145.3 155.15 142.7 155.2 142.7 164.8 132.7 M168.45 138.75 Q168.9 148.5 159.3 147.3 L157.5 147.05 157.45 144.7 Q159.15 145.7 161.2 145.75 167.85 145.15 168.45 138.75" fill="#47525f" fill-rule="evenodd" stroke="none"/>
    <path d="M123.9 51.55 L121.1 103.85 173.8 127.0 174.4 176.1 6.5 249.25 4.15 203.95 23.65 120.1 60.65 103.2 59.15 66.0 123.9 51.55 M67.85 -30.3 L69.1 -31.6 Q69.65 -21.6 59.8 -21.5 L59.5 -21.5 67.85 -30.3 M164.8 135.15 L164.8 132.7 164.4 132.4 164.1 132.5 Q157.6 129.95 154.35 137.0 153.95 137.8 153.7 138.8 L153.7 141.65 Q153.45 142.55 155.15 145.3 L157.5 147.05 159.3 147.3 Q168.9 148.5 168.45 138.75 L167.05 134.6 167.1 135.6 Q166.8 145.2 157.45 144.7 L165.8 135.95 164.8 135.15 M155.2 142.7 L155.15 142.7 155.15 142.65 155.2 142.7 M154.85 141.1 L154.9 140.9 154.85 141.15 154.85 141.1" fill="#bab9ba" fill-rule="evenodd" stroke="none"/>
    <path d="M59.15 66.0 L51.25 -36.35 82.8 -50.0 128.3 -33.75 123.9 51.55 59.15 66.0 M174.4 176.1 L176.35 197.4 176.35 264.35 167.9 275.3 18.1 275.3 7.3 264.45 6.5 249.25 174.4 176.1 M66.15 -33.75 Q59.7 -36.35 56.45 -29.3 L55.75 -27.45 55.75 -24.6 Q55.5 -23.7 57.2 -20.9 L59.55 -19.15 61.3 -18.35 Q70.95 -17.75 70.5 -27.5 L69.1 -31.6 67.85 -30.3 66.9 -31.05 66.9 -33.55 66.45 -33.85 66.15 -33.75 M56.9 -25.15 L56.95 -25.35 56.9 -25.1 56.9 -25.15 M57.2 -23.55 L57.25 -23.5 57.2 -23.5 57.2 -23.55 M68.9 50.4 L67.85 50.05 Q62.25 49.55 61.95 55.15 62.05 57.95 63.5 59.85 64.95 61.65 66.95 61.55 68.95 61.35 70.25 59.35 71.55 57.3 71.4 54.65 L70.45 51.7 68.9 50.4" fill="#9c9c9c" fill-rule="evenodd" stroke="none"/>
    <path d="M55.75 -27.45 L56.45 -29.3 Q59.7 -36.35 66.15 -33.75 60.55 -31.8 57.5 -26.6 L56.95 -25.35 56.9 -25.15 56.8 -24.1 Q55.9 -25.7 55.75 -27.45 M61.95 55.15 Q62.25 49.55 67.85 50.05 L68.9 50.4 Q64.6 50.9 63.25 54.95 L62.65 57.05 61.95 55.15 M153.7 138.8 Q153.95 137.8 154.35 137.0 157.6 129.95 164.1 132.5 158.35 134.45 155.5 139.6 L154.9 140.9 154.85 141.1 Q154.7 141.65 154.7 142.1 153.8 140.55 153.7 138.8" fill="#e9e9eb" fill-rule="evenodd" stroke="none"/>
    <path d="M66.15 -33.75 L66.45 -33.85 66.9 -33.55 57.25 -23.5 57.2 -23.55 56.85 -24.1 56.9 -25.1 56.95 -25.35 57.5 -26.6 Q60.55 -31.8 66.15 -33.75 M164.1 132.5 L164.4 132.4 164.8 132.7 155.2 142.7 155.15 142.65 154.8 142.1 154.85 141.15 154.9 140.9 155.5 139.6 Q158.35 134.45 164.1 132.5" fill="#d0cfd0" fill-rule="evenodd" stroke="none"/>
    <path d="M69.1 -31.6 L70.5 -27.5 Q69.9 -21.1 63.25 -20.5 61.2 -20.55 59.5 -21.5 L59.8 -21.5 Q69.65 -21.6 69.1 -31.6 M70.45 51.7 L71.4 54.65 Q70.15 60.5 64.25 58.25 L63.45 57.85 Q69.6 57.65 70.45 51.7 M157.45 144.7 Q166.8 145.2 167.1 135.6 L167.05 134.6 168.45 138.75 Q167.85 145.15 161.2 145.75 159.15 145.7 157.45 144.7" fill="#b0aeb3" fill-rule="evenodd" stroke="none"/>
    <path d="M66.9 -31.05 L67.85 -30.3 59.5 -21.5 59.55 -19.15 57.2 -20.9 66.9 -31.05 M164.8 135.15 L165.8 135.95 157.45 144.7 157.5 147.05 155.15 145.3 164.8 135.15" fill="#57565b" fill-rule="evenodd" stroke="none"/>
    <path d="M57.2 -20.9 Q55.5 -23.7 55.75 -24.6 L55.75 -27.45 Q55.9 -25.7 56.8 -24.1 L56.9 -25.15 56.9 -25.1 56.85 -24.1 57.2 -23.55 57.2 -23.5 57.2 -20.9 M155.15 145.3 Q153.45 142.55 153.7 141.65 L153.7 138.8 Q153.8 140.55 154.7 142.1 154.7 141.65 154.85 141.1 L154.85 141.15 154.8 142.1 155.15 142.65 155.15 142.7 155.15 145.3" fill="#79818b" fill-rule="evenodd" stroke="none"/>
  </g>
</svg>
