<?xml version="1.0" encoding="UTF-8" standalone="no"?>
<svg xmlns:xlink="http://www.w3.org/1999/xlink" height="260.2px" width="129.2px" xmlns="http://www.w3.org/2000/svg">
  <g transform="matrix(1.0, 0.0, 0.0, 1.0, 0.0, 0.0)">
    <path d="M45.25 29.75 L47.8 71.6 48.35 71.25 Q52.15 69.5 55.3 72.25 L55.15 73.5 54.4 73.55 52.75 72.7 49.9 72.5 49.85 72.55 Q48.55 78.05 54.2 77.75 60.85 78.4 62.65 71.55 L63.6 72.4 63.25 73.75 Q61.35 81.85 53.15 81.25 L53.45 82.55 58.3 83.45 78.4 84.05 77.5 79.8 76.2 80.5 Q69.5 83.65 66.65 76.5 65.8 74.4 65.7 72.2 L66.8 72.1 67.45 73.8 Q68.9 77.4 71.8 77.4 L75.8 77.3 Q79.05 76.5 78.95 71.7 L78.7 71.45 Q75.8 68.8 72.0 67.75 L72.25 66.7 73.5 66.75 Q81.2 67.8 80.5 75.4 80.35 77.1 79.0 78.35 L79.2 79.7 Q81.75 100.35 77.25 120.7 L76.9 120.9 Q63.15 126.55 52.9 116.25 52.05 115.45 52.25 114.05 54.15 99.65 52.0 85.4 L50.75 86.9 49.45 86.0 51.55 83.15 51.0 80.8 48.25 78.95 50.95 122.65 62.6 126.85 64.45 161.45 69.3 128.35 79.85 123.25 83.8 32.15 80.25 33.25 80.7 34.2 70.5 42.25 76.65 42.45 77.35 42.8 77.3 44.2 71.65 44.3 76.1 48.95 75.15 49.95 68.65 44.2 67.65 44.2 67.8 46.3 Q68.35 53.55 67.1 60.65 L71.8 63.55 73.0 60.2 71.55 57.9 72.6 56.9 79.0 63.1 78.4 64.35 74.7 62.15 74.3 63.15 Q73.2 66.4 69.9 64.95 L68.8 64.4 67.85 67.2 66.25 67.3 Q54.65 62.05 49.05 67.2 L48.6 65.75 49.8 65.1 Q54.4 62.9 56.1 58.1 L57.2 59.05 55.45 62.95 66.7 65.45 66.25 62.35 65.4 61.85 65.55 44.4 63.0 44.3 61.05 46.15 Q58.25 48.95 54.4 48.15 L53.7 47.3 54.65 46.25 56.2 46.15 Q59.0 46.0 60.85 43.9 L51.95 42.4 51.9 41.3 58.9 41.55 52.3 36.55 52.15 36.15 52.45 35.25 49.3 34.8 48.7 35.35 47.3 35.1 47.5 33.9 48.6 33.5 Q57.55 33.1 60.55 41.5 61.15 41.7 61.75 42.05 L67.1 42.25 68.9 39.9 Q74.95 32.45 84.25 30.2 L84.7 20.75 85.3 8.05 Q73.75 1.5 57.65 1.45 L43.85 7.5 45.25 29.75 M1.75 245.2 L1.6 240.9 Q1.1 211.55 1.8 182.25 L15.8 135.15 16.45 134.3 47.9 121.95 40.95 6.35 Q48.65 1.4 57.7 0.45 L61.8 0.05 Q76.0 -0.5 88.15 6.5 L88.35 7.3 82.9 122.0 Q83.25 121.95 91.8 125.5 L103.85 130.55 105.1 131.1 104.9 131.05 117.05 136.9 117.55 137.8 126.1 188.2 127.75 230.1 Q128.6 230.8 128.7 231.8 129.65 241.4 128.8 251.2 120.3 255.95 111.45 255.6 L110.8 255.35 109.3 254.85 102.4 252.2 101.55 259.85 101.25 260.2 30.8 259.45 29.55 254.35 25.1 257.7 Q13.15 253.95 1.85 248.6 L1.7 246.1 1.75 245.2 M78.3 86.1 Q66.0 86.75 53.9 84.6 55.7 99.35 54.6 106.05 53.5 112.7 55.4 116.05 57.25 119.4 59.3 119.9 66.9 121.95 75.55 119.8 77.6 112.1 76.45 102.2 L75.8 102.75 Q66.8 100.2 57.3 101.0 L57.35 100.55 Q67.35 98.95 76.35 101.15 L78.3 86.1 M50.15 146.1 L48.6 146.8 Q47.55 146.55 47.5 145.25 47.15 135.65 46.95 125.95 L29.3 132.6 28.15 143.55 45.0 146.3 45.45 147.15 45.3 147.95 36.0 151.9 61.2 175.0 61.95 173.55 52.75 142.4 50.15 146.1 M59.9 132.25 L54.95 139.25 61.45 161.2 59.9 132.25 M58.9 128.45 L49.95 125.5 50.3 140.7 58.9 128.45 M69.75 125.05 L69.8 126.35 62.55 126.55 62.3 125.55 69.75 125.05 M78.3 146.9 L77.45 146.35 76.9 145.35 66.0 171.8 62.2 179.6 64.6 176.8 90.4 152.25 83.6 146.6 83.35 146.25 Q82.7 145.35 83.4 144.55 83.9 143.95 84.65 143.95 L100.9 145.05 102.95 133.4 88.0 126.2 80.05 146.25 79.75 146.75 78.3 146.9 M72.6 129.4 L78.55 142.0 85.3 124.9 84.65 124.55 72.6 129.4 M75.1 141.7 L71.35 133.75 67.75 159.65 75.1 141.7 M103.0 147.8 L102.6 148.15 89.05 147.3 94.05 151.7 93.65 153.25 56.35 191.15 55.5 256.9 99.2 257.25 99.5 250.35 Q98.55 249.7 97.7 248.5 L97.55 248.0 98.15 239.95 100.0 239.15 104.7 155.0 110.65 144.55 111.25 144.55 112.25 146.05 107.7 155.5 103.6 229.3 110.85 221.65 112.65 221.85 114.3 222.05 117.45 223.1 Q120.35 224.2 123.0 226.1 L124.65 227.4 123.1 188.4 114.7 139.1 105.75 134.75 103.0 147.8 M38.05 147.85 L25.35 145.45 26.15 133.8 18.5 136.7 4.8 182.7 3.1 231.55 6.55 226.75 10.05 221.95 10.4 221.7 20.15 219.25 27.2 225.4 23.2 163.7 18.3 152.45 19.5 151.45 26.15 163.15 30.45 228.25 34.25 231.95 32.05 238.45 34.25 239.3 34.25 239.65 34.35 242.15 34.2 246.45 Q34.05 248.9 32.75 251.05 L32.35 251.75 32.85 257.05 52.5 256.9 53.35 190.75 59.8 177.75 32.0 152.1 32.1 150.4 38.05 147.85 M15.7 233.15 L15.75 232.05 17.4 231.6 19.45 243.55 26.05 243.25 31.05 232.85 19.3 222.35 11.75 223.75 5.15 233.85 4.65 247.0 24.75 254.7 31.85 248.1 31.5 241.4 30.7 241.25 27.7 246.0 17.8 246.4 17.1 243.8 Q16.6 241.35 16.25 238.9 L15.95 236.35 15.7 233.15 M100.75 242.1 L100.35 247.35 112.3 254.95 126.15 249.35 126.35 232.9 116.9 224.65 111.55 224.65 103.4 234.2 103.05 239.0 106.85 239.75 108.3 244.35 113.5 244.2 113.05 237.95 114.5 237.45 116.35 246.7 106.6 247.3 104.7 242.15 100.75 242.1" fill="#1a1a1a" fill-rule="evenodd" stroke="none"/>
    <path d="M45.25 29.75 L43.85 7.5 57.65 1.45 Q73.75 1.5 85.3 8.05 L84.7 20.75 Q83.25 15.3 80.25 10.55 79.1 8.7 77.25 7.6 70.75 3.75 65.7 10.2 62.65 7.4 58.65 6.45 54.9 5.6 52.5 8.3 45.8 15.9 47.95 26.3 L45.25 29.75" fill="#591c1c" fill-rule="evenodd" stroke="none"/>
    <path d="M84.7 20.75 L84.25 30.2 Q74.95 32.45 68.9 39.9 L67.1 42.25 61.75 42.05 Q61.15 41.7 60.55 41.5 57.55 33.1 48.6 33.5 L47.5 33.9 47.3 35.1 48.7 35.35 49.3 34.8 52.45 35.25 52.15 36.15 52.3 36.55 58.9 41.55 51.9 41.3 51.95 42.4 60.85 43.9 Q59.0 46.0 56.2 46.15 L54.65 46.25 53.7 47.3 54.4 48.15 Q58.25 48.95 61.05 46.15 L63.0 44.3 65.55 44.4 65.4 61.85 66.25 62.35 66.7 65.45 55.45 62.95 57.2 59.05 56.1 58.1 Q54.4 62.9 49.8 65.1 L48.6 65.75 49.05 67.2 Q54.65 62.05 66.25 67.3 L67.85 67.2 68.8 64.4 69.9 64.95 Q73.2 66.4 74.3 63.15 L74.7 62.15 78.4 64.35 79.0 63.1 72.6 56.9 71.55 57.9 73.0 60.2 71.8 63.55 67.1 60.65 Q68.35 53.55 67.8 46.3 L67.65 44.2 68.65 44.2 75.15 49.95 76.1 48.95 71.65 44.3 77.3 44.2 77.35 42.8 76.65 42.45 70.5 42.25 80.7 34.2 80.25 33.25 83.8 32.15 79.85 123.25 69.3 128.35 64.45 161.45 62.6 126.85 50.95 122.65 48.25 78.95 51.0 80.8 51.55 83.15 49.45 86.0 50.75 86.9 52.0 85.4 Q54.15 99.65 52.25 114.05 52.05 115.45 52.9 116.25 63.15 126.55 76.9 120.9 L77.25 120.7 Q81.75 100.35 79.2 79.7 L79.0 78.35 Q80.35 77.1 80.5 75.4 81.2 67.8 73.5 66.75 L72.25 66.7 72.0 67.75 Q75.8 68.8 78.7 71.45 L78.95 71.7 Q79.05 76.5 75.8 77.3 L71.8 77.4 Q68.9 77.4 67.45 73.8 L66.8 72.1 65.7 72.2 Q65.8 74.4 66.65 76.5 69.5 83.65 76.2 80.5 L77.5 79.8 78.4 84.05 58.3 83.45 53.45 82.55 53.15 81.25 Q61.35 81.85 63.25 73.75 L63.6 72.4 62.65 71.55 Q60.85 78.4 54.2 77.75 48.55 78.05 49.85 72.55 L49.9 72.5 52.75 72.7 54.4 73.55 55.15 73.5 55.3 72.25 Q52.15 69.5 48.35 71.25 L47.8 71.6 45.25 29.75 47.95 26.3 Q45.8 15.9 52.5 8.3 54.9 5.6 58.65 6.45 62.65 7.4 65.7 10.2 70.75 3.75 77.25 7.6 79.1 8.7 80.25 10.55 83.25 15.3 84.7 20.75 M69.75 125.05 L62.3 125.55 62.55 126.55 69.8 126.35 69.75 125.05" fill="#f9e8f8" fill-rule="evenodd" stroke="none"/>
    <path d="M50.15 146.1 L52.75 142.4 61.95 173.55 61.2 175.0 36.0 151.9 45.3 147.95 45.45 147.15 45.0 146.3 28.15 143.55 29.3 132.6 46.95 125.95 Q47.15 135.65 47.5 145.25 47.55 146.55 48.6 146.8 L50.15 146.1 M78.3 146.9 L79.75 146.75 80.05 146.25 88.0 126.2 102.95 133.4 100.9 145.05 84.65 143.95 Q83.9 143.95 83.4 144.55 82.7 145.35 83.35 146.25 L83.6 146.6 90.4 152.25 64.6 176.8 62.2 179.6 66.0 171.8 76.9 145.35 77.45 146.35 78.3 146.9 M38.05 147.85 L32.1 150.4 32.0 152.1 59.8 177.75 53.35 190.75 52.5 256.9 32.85 257.05 32.35 251.75 32.75 251.05 Q34.05 248.9 34.2 246.45 L34.35 242.15 34.25 239.65 34.25 239.3 32.05 238.45 34.25 231.95 30.45 228.25 26.15 163.15 19.5 151.45 18.3 152.45 23.2 163.7 27.2 225.4 20.15 219.25 10.4 221.7 10.05 221.95 6.55 226.75 3.1 231.55 4.8 182.7 18.5 136.7 26.15 133.8 25.35 145.45 38.05 147.85 M103.0 147.8 L105.75 134.75 114.7 139.1 123.1 188.4 124.65 227.4 123.0 226.1 Q120.35 224.2 117.45 223.1 L114.3 222.05 112.65 221.85 110.85 221.65 103.6 229.3 107.7 155.5 112.25 146.05 111.25 144.55 110.65 144.55 104.7 155.0 100.0 239.15 98.15 239.95 97.55 248.0 97.7 248.5 Q98.55 249.7 99.5 250.35 L99.2 257.25 55.5 256.9 56.35 191.15 93.65 153.25 94.05 151.7 89.05 147.3 102.6 148.15 103.0 147.8" fill="#8d254e" fill-rule="evenodd" stroke="none"/>
    <path d="M58.9 128.45 L50.3 140.7 49.95 125.5 58.9 128.45 M59.9 132.25 L61.45 161.2 54.95 139.25 59.9 132.25 M75.1 141.7 L67.75 159.65 71.35 133.75 75.1 141.7 M72.6 129.4 L84.65 124.55 85.3 124.9 78.55 142.0 72.6 129.4" fill="#ffe1e9" fill-rule="evenodd" stroke="none"/>
    <path d="M100.75 242.1 L104.7 242.15 106.6 247.3 116.35 246.7 114.5 237.45 113.05 237.95 113.5 244.2 108.3 244.35 106.85 239.75 103.05 239.0 103.4 234.2 111.55 224.65 116.9 224.65 126.35 232.9 126.15 249.35 112.3 254.95 100.35 247.35 100.75 242.1 M15.7 233.15 L15.95 236.35 16.25 238.9 Q16.6 241.35 17.1 243.8 L17.8 246.4 27.7 246.0 30.7 241.25 31.5 241.4 31.85 248.1 24.75 254.7 4.65 247.0 5.15 233.85 11.75 223.75 19.3 222.35 31.05 232.85 26.05 243.25 19.45 243.55 17.4 231.6 15.75 232.05 15.7 233.15" fill="#e3aed5" fill-rule="evenodd" stroke="none"/>
    <path d="M1.75 245.2 L1.7 246.1 0.0 245.2 1.75 245.2" fill="#b0aeb3" fill-rule="evenodd" stroke="none"/>
    <path d="M78.3 86.1 L76.35 101.15 Q67.35 98.95 57.35 100.55 L57.3 101.0 Q66.8 100.2 75.8 102.75 L76.45 102.2 Q77.6 112.1 75.55 119.8 66.9 121.95 59.3 119.9 57.25 119.4 55.4 116.05 53.5 112.7 54.6 106.05 55.7 99.35 53.9 84.6 66.0 86.75 78.3 86.1" fill="#ffffff" fill-rule="evenodd" stroke="none"/>
  </g>
</svg>
