<?xml version="1.0" encoding="UTF-8" standalone="no"?>
<svg xmlns:xlink="http://www.w3.org/1999/xlink" height="270.7px" width="310.1px" xmlns="http://www.w3.org/2000/svg">
  <g transform="matrix(1.0, 0.0, 0.0, 1.0, 0.0, 0.0)">
    <path d="M174.7 3.15 L223.7 43.05 205.2 81.35 243.4 95.5 292.45 153.4 310.1 247.5 285.85 270.7 37.0 270.7 9.25 258.05 0.0 191.3 29.7 137.15 72.15 97.25 89.25 89.4 65.85 39.6 112.05 0.0 172.5 3.3 174.7 3.15 M66.75 106.8 L30.35 144.5 2.95 197.15 14.25 254.15 43.25 268.0 54.25 268.0 287.8 164.8 287.2 161.85 240.05 100.4 198.65 88.05 203.25 76.4 216.95 41.8 172.85 5.95 114.25 5.55 75.55 41.25 94.35 90.2 Q83.85 95.0 74.05 100.9 70.05 103.3 66.75 106.8 M123.0 14.55 Q123.7 20.45 118.25 21.95 116.0 22.6 113.95 21.45 L113.9 19.5 Q115.3 20.3 117.0 20.35 122.5 19.85 123.0 14.55 M120.0 9.55 L120.0 11.6 112.0 20.0 112.0 17.85 112.05 17.85 120.0 9.55 M47.5 251.05 L47.5 253.1 39.5 261.5 39.5 259.35 39.55 259.35 47.5 251.05 M50.5 256.05 Q51.25 261.95 45.75 263.45 43.4 264.2 41.45 262.95 L41.4 261.0 Q42.8 261.8 44.5 261.85 50.0 261.35 50.5 256.05 M271.4 260.5 Q272.8 261.3 274.5 261.35 280.0 260.85 280.5 255.55 280.9 263.65 272.95 262.6 L271.45 262.45 271.4 260.5 M277.5 250.55 L277.5 252.6 269.5 261.0 269.5 258.85 269.55 258.85 277.5 250.55 M283.05 268.05 L304.0 240.2 287.85 164.8 54.25 268.05 283.05 268.05" fill="#47525f" fill-rule="evenodd" stroke="none"/>
    <path d="M203.25 76.4 L198.65 88.05 240.05 100.4 287.2 161.85 287.8 164.8 54.25 268.0 43.25 268.0 14.25 254.15 2.95 197.15 30.35 144.5 66.75 106.8 203.25 76.4 M120.8 12.25 L121.85 11.15 Q122.25 19.45 114.15 19.5 L113.9 19.5 120.8 12.25 M46.9 250.9 Q41.65 248.95 38.9 254.6 L38.3 256.1 38.3 258.45 Q38.1 259.2 39.5 261.5 L41.45 262.95 Q43.4 264.2 45.75 263.45 51.25 261.95 50.5 256.05 L49.35 252.65 49.4 253.3 Q49.3 261.35 41.4 261.0 L48.3 253.75 47.5 253.1 47.5 251.05 47.15 250.8 46.9 250.9 M39.25 258.0 L39.3 257.9 39.25 258.05 39.25 258.0 M39.5 259.3 L39.55 259.35 39.5 259.35 39.5 259.3 M279.35 252.15 L279.4 252.95 Q279.15 260.85 271.4 260.5 L278.3 253.25 279.35 252.15" fill="#bab9ba" fill-rule="evenodd" stroke="none"/>
    <path d="M66.75 106.8 Q70.05 103.3 74.05 100.9 83.85 95.0 94.35 90.2 L75.55 41.25 114.25 5.55 172.85 5.95 216.95 41.8 203.25 76.4 66.75 106.8 M123.0 14.55 L121.85 11.15 120.8 12.25 120.0 11.6 120.0 9.55 119.65 9.3 119.4 9.4 114.8 9.5 Q111.3 10.75 110.8 14.6 L110.8 16.95 Q110.6 17.7 112.0 20.0 L113.95 21.45 Q116.0 22.6 118.25 21.95 123.7 20.45 123.0 14.55 M111.8 16.35 L111.75 16.55 111.75 16.5 111.8 16.35 M112.0 17.8 L112.05 17.85 112.0 17.85 112.0 17.8 M279.35 252.15 L278.3 253.25 277.5 252.6 277.5 250.55 277.15 250.3 276.9 250.4 272.3 250.5 Q268.8 251.9 268.3 255.6 L268.3 257.95 Q268.1 258.7 269.5 261.0 L271.45 262.45 272.95 262.6 Q280.9 263.65 280.5 255.55 L280.5 255.3 Q280.45 253.5 279.35 252.15 M269.55 258.85 L269.5 258.85 269.5 258.8 269.55 258.85 M269.3 257.35 L269.25 257.55 269.25 257.5 269.3 257.35 M283.05 268.05 L54.25 268.05 287.85 164.8 304.0 240.2 283.05 268.05" fill="#9c9c9c" fill-rule="evenodd" stroke="none"/>
    <path d="M113.95 21.45 L112.0 20.0 120.0 11.6 120.8 12.25 113.9 19.5 113.95 21.45 M47.5 253.1 L48.3 253.75 41.4 261.0 41.45 262.95 39.5 261.5 47.5 253.1 M278.3 253.25 L271.4 260.5 271.45 262.45 269.5 261.0 277.5 252.6 278.3 253.25" fill="#57565b" fill-rule="evenodd" stroke="none"/>
    <path d="M112.0 20.0 Q110.6 17.7 110.8 16.95 L110.8 14.6 Q110.9 16.05 111.65 17.35 L111.75 16.5 111.75 16.55 111.7 17.35 112.0 17.8 112.0 17.85 112.0 20.0 M39.5 261.5 Q38.1 259.2 38.3 258.45 L38.3 256.1 Q38.4 257.55 39.15 258.85 L39.25 258.0 39.25 258.05 39.2 258.85 39.5 259.3 39.5 259.35 39.5 261.5 M269.5 258.85 L269.5 261.0 Q268.1 258.7 268.3 257.95 L268.3 255.6 Q268.4 257.05 269.15 258.35 L269.25 257.5 269.25 257.55 269.2 258.35 269.5 258.8 269.5 258.85" fill="#79818b" fill-rule="evenodd" stroke="none"/>
    <path d="M119.4 9.4 L119.65 9.3 120.0 9.55 112.05 17.85 112.0 17.8 111.7 17.35 111.75 16.55 111.8 16.35 112.3 15.35 Q114.75 11.0 119.4 9.4 M46.9 250.9 L47.15 250.8 47.5 251.05 39.55 259.35 39.5 259.3 39.2 258.85 39.25 258.05 39.3 257.9 39.8 256.85 Q42.1 252.5 46.9 250.9 M277.5 250.55 L269.55 258.85 269.5 258.8 269.2 258.35 269.25 257.55 269.3 257.35 Q271.35 252.65 276.1 250.7 L276.9 250.4 277.15 250.3 277.5 250.55" fill="#d0cfd0" fill-rule="evenodd" stroke="none"/>
    <path d="M110.8 14.6 Q111.3 10.75 114.8 9.5 L119.4 9.4 Q114.75 11.0 112.3 15.35 L111.8 16.35 111.75 16.5 111.65 17.35 Q110.9 16.05 110.8 14.6 M38.3 256.1 L38.9 254.6 Q41.65 248.95 46.9 250.9 42.1 252.5 39.8 256.85 L39.3 257.9 39.25 258.0 39.15 258.85 Q38.4 257.55 38.3 256.1 M276.9 250.4 L276.1 250.7 Q271.35 252.65 269.3 257.35 L269.25 257.5 269.15 258.35 Q268.4 257.05 268.3 255.6 268.8 251.9 272.3 250.5 L276.9 250.4" fill="#e9e9eb" fill-rule="evenodd" stroke="none"/>
    <path d="M121.85 11.15 L123.0 14.55 Q122.5 19.85 117.0 20.35 115.3 20.3 113.9 19.5 L114.15 19.5 Q122.25 19.45 121.85 11.15 M41.4 261.0 Q49.3 261.35 49.4 253.3 L49.35 252.65 50.5 256.05 Q50.0 261.35 44.5 261.85 42.8 261.8 41.4 261.0 M271.4 260.5 Q279.15 260.85 279.4 252.95 L279.35 252.15 Q280.45 253.5 280.5 255.3 L280.5 255.55 Q280.0 260.85 274.5 261.35 272.8 261.3 271.4 260.5" fill="#b0aeb3" fill-rule="evenodd" stroke="none"/>
  </g>
</svg>
