<?xml version="1.0" encoding="UTF-8" standalone="no"?>
<svg xmlns:xlink="http://www.w3.org/1999/xlink" height="254.2px" width="281.15px" xmlns="http://www.w3.org/2000/svg">
  <g transform="matrix(1.0, 0.0, 0.0, 1.0, 0.0, 0.0)">
    <path d="M185.65 56.2 L179.0 77.25 220.15 91.0 246.85 117.7 268.1 155.0 268.3 155.5 277.3 210.2 281.15 215.6 268.6 237.45 227.8 231.25 227.85 252.85 226.45 253.6 49.1 254.2 48.2 253.9 47.95 253.2 47.75 247.8 47.6 232.9 11.3 235.95 11.05 235.6 8.8 230.2 6.55 224.75 Q4.35 219.3 2.65 213.7 2.05 211.8 3.9 210.45 L0.0 185.6 18.45 141.5 18.65 141.1 58.95 90.8 91.95 80.75 69.15 32.3 69.1 31.65 Q81.65 20.45 95.0 9.65 96.85 8.1 98.95 7.15 105.95 4.25 113.4 3.0 L118.5 2.4 Q136.85 0.0 155.3 0.0 L193.9 25.25 194.5 25.7 194.8 26.75 187.3 51.2 185.65 56.2 M155.0 23.3 Q152.0 24.0 149.35 22.6 L147.55 21.85 Q146.85 23.9 144.75 24.4 142.05 24.65 140.05 22.65 128.8 31.85 116.15 24.45 114.15 25.6 111.85 24.9 L110.3 24.45 110.15 20.95 Q99.1 25.85 86.9 25.2 110.0 33.7 122.75 35.45 135.5 37.2 145.85 33.6 L174.2 23.55 155.0 23.3 M157.35 12.5 L156.4 13.5 Q149.2 8.95 141.75 12.8 L140.85 12.25 Q148.55 5.75 157.05 11.8 L157.35 12.5 M155.45 6.65 L155.25 6.85 Q146.05 6.2 138.1 10.85 139.8 12.95 141.0 16.3 147.35 20.6 154.85 21.3 158.65 21.15 162.45 21.15 174.0 21.05 185.35 23.25 L154.05 2.75 Q131.5 3.15 109.3 6.75 114.3 8.2 117.95 11.75 126.5 8.0 135.45 9.8 L135.7 9.05 Q144.35 3.05 154.85 3.95 157.0 4.8 155.45 6.65 M152.6 63.0 L152.15 71.0 Q159.15 70.55 165.8 68.1 L169.0 66.8 170.3 60.75 152.6 63.0 M149.15 71.3 Q148.85 68.4 149.55 63.4 L136.4 65.1 137.95 72.35 149.15 71.3 M174.3 56.9 L182.85 54.9 191.45 27.5 180.8 25.75 174.3 56.9 M176.9 27.7 Q177.0 26.8 177.35 26.0 165.75 28.25 155.05 33.45 155.4 46.8 153.1 59.9 L171.05 57.6 Q174.95 42.95 176.9 27.7 M175.25 78.3 L180.45 62.4 Q173.65 68.85 164.45 71.5 156.1 73.95 147.3 74.55 L119.2 76.4 Q102.8 77.6 89.55 68.55 L94.6 79.25 111.85 84.2 120.85 86.8 Q121.25 86.85 121.5 87.5 L137.0 142.35 146.35 89.5 146.15 87.7 175.25 78.3 M150.0 60.35 Q152.35 47.55 152.05 34.45 L135.85 38.8 136.1 62.15 150.0 60.35 M173.5 60.2 L172.5 64.85 Q176.55 62.25 179.9 58.65 L173.5 60.2 M209.05 98.25 L203.0 88.2 180.25 80.6 164.7 114.85 164.25 114.95 160.65 111.0 139.2 146.85 137.6 148.85 136.6 148.85 127.6 160.7 189.85 113.85 176.4 104.6 176.8 103.3 209.05 98.25 M212.9 100.15 L211.7 100.9 182.0 105.3 Q188.6 109.05 193.9 113.75 L193.35 114.95 121.25 169.15 115.45 251.0 224.95 250.6 224.75 230.5 198.8 218.35 204.1 204.8 224.0 207.8 221.85 189.95 214.5 183.1 211.8 180.95 209.2 178.85 206.3 176.85 Q197.25 171.2 188.8 164.8 L193.85 151.25 194.4 151.05 217.85 158.75 207.3 107.0 207.35 106.45 Q207.8 105.3 209.05 105.25 L210.25 106.4 221.2 160.1 Q234.8 168.4 247.0 179.0 L249.8 181.55 252.7 184.1 255.5 186.7 Q264.85 195.8 273.5 205.75 L265.4 156.3 244.6 119.65 218.35 93.4 207.35 89.7 212.95 99.6 212.9 100.15 M158.85 108.25 L148.75 93.1 140.7 138.55 158.85 108.25 M149.8 89.25 L163.85 110.3 176.75 81.0 149.8 89.25 M222.25 165.6 Q209.15 159.4 195.6 154.25 L191.95 164.1 Q207.6 172.25 220.7 184.1 232.15 194.4 241.45 206.75 242.95 208.75 243.4 211.45 243.5 212.25 242.85 212.45 L241.95 212.8 225.35 210.75 205.65 207.55 202.0 217.25 Q216.9 223.05 232.05 228.1 236.9 229.65 242.0 230.45 L267.3 234.35 277.9 215.55 Q271.15 207.5 264.2 199.95 252.65 187.25 239.25 176.4 231.35 170.0 222.25 165.6 M113.05 17.9 L113.05 21.9 Q118.95 21.5 124.65 24.0 126.35 24.8 128.15 24.7 134.1 24.25 138.4 20.1 137.5 12.1 129.2 12.3 124.0 12.4 118.9 14.2 110.25 8.5 100.1 9.3 L83.4 23.0 Q98.5 25.0 111.7 17.5 L113.05 17.9 M112.2 13.75 L112.1 14.5 Q104.5 12.75 97.6 16.4 L96.45 15.6 Q103.65 9.1 112.2 13.75 M141.35 18.55 Q141.05 23.45 145.1 21.65 L145.75 20.85 141.35 18.55 M120.5 38.2 L116.4 37.15 119.5 62.5 133.1 62.4 132.9 39.4 Q127.35 39.95 120.5 38.2 M102.4 66.95 L102.8 71.7 Q108.9 73.2 117.55 73.4 L116.8 65.65 102.4 66.95 M99.4 67.05 Q94.1 66.7 89.45 64.85 L94.55 68.3 Q96.75 69.75 99.75 70.8 L99.4 67.05 M94.5 30.1 L94.6 31.8 Q96.2 48.2 101.65 64.0 L116.5 62.65 113.25 36.2 94.5 30.1 M76.9 28.35 L72.35 32.05 85.5 60.0 87.55 60.9 Q92.85 63.35 98.5 63.95 92.65 46.9 91.5 29.2 L86.0 28.1 76.9 28.35 M126.5 81.95 L127.05 81.0 Q135.0 81.95 142.05 78.4 L143.1 79.55 Q135.8 84.25 127.1 82.85 L126.5 81.95 M119.8 65.5 L120.6 73.35 134.9 72.6 133.4 65.35 119.8 65.5 M58.2 102.2 L57.1 101.35 Q57.05 100.55 57.55 99.9 L63.95 92.2 61.0 93.1 21.1 142.9 3.0 185.95 6.4 207.2 30.5 176.2 52.55 159.85 64.7 107.4 65.95 106.35 67.55 107.3 67.6 108.1 56.15 157.45 Q69.65 151.1 83.75 146.5 84.3 146.25 84.75 146.8 L90.7 159.85 Q71.25 178.1 50.6 195.45 L50.6 206.15 76.85 199.4 77.8 199.75 82.9 212.65 82.6 213.55 50.6 232.15 50.6 251.2 112.45 251.0 118.3 168.3 130.4 152.05 81.55 114.6 81.05 114.0 Q80.7 112.8 81.8 112.2 L89.05 108.1 58.2 102.2 M54.65 161.8 L32.7 178.2 5.25 213.55 12.9 233.1 48.65 229.8 79.6 211.85 76.3 202.65 Q58.05 208.2 39.2 211.65 L37.9 210.75 Q42.15 199.7 50.8 191.6 57.65 185.1 64.8 179.1 76.35 169.45 87.5 159.15 L82.9 149.65 77.25 152.0 Q65.75 156.5 54.65 161.8 M119.5 91.55 L111.65 104.6 132.4 137.2 119.5 91.55 M94.9 107.25 L85.25 113.6 132.25 149.65 134.7 146.4 109.9 107.45 105.25 115.0 104.15 115.3 103.7 115.1 93.35 83.5 69.2 90.65 61.3 99.75 93.75 105.95 94.9 107.25 M104.75 110.15 L117.7 88.75 96.3 82.8 104.75 110.15 M47.6 200.6 L44.4 207.55 47.6 206.9 47.6 200.6 M240.1 209.6 Q236.15 202.2 229.85 196.75 L226.3 193.65 232.45 208.8 240.1 209.6 M227.7 202.95 L225.8 199.25 227.05 208.3 229.25 208.5 227.7 202.95" fill="#1a1a1a" fill-rule="evenodd" stroke="none"/>
    <path d="M155.45 6.65 Q157.0 4.8 154.85 3.95 144.35 3.05 135.7 9.05 L135.45 9.8 Q126.5 8.0 117.95 11.75 114.3 8.2 109.3 6.75 131.5 3.15 154.05 2.75 L185.35 23.25 Q174.0 21.05 162.45 21.15 158.65 21.15 154.85 21.3 147.35 20.6 141.0 16.3 139.8 12.95 138.1 10.85 146.05 6.2 155.25 6.85 L155.45 6.65 M157.35 12.5 L157.05 11.8 Q148.55 5.75 140.85 12.25 L141.75 12.8 Q149.2 8.95 156.4 13.5 L157.35 12.5 M155.0 23.3 L174.2 23.55 145.85 33.6 Q135.5 37.2 122.75 35.45 110.0 33.7 86.9 25.2 99.1 25.85 110.15 20.95 L110.3 24.45 111.85 24.9 Q114.15 25.6 116.15 24.45 128.8 31.85 140.05 22.65 142.05 24.65 144.75 24.4 146.85 23.9 147.55 21.85 L149.35 22.6 Q152.0 24.0 155.0 23.3 M175.25 78.3 L146.15 87.7 146.35 89.5 137.0 142.35 121.5 87.5 Q121.25 86.85 120.85 86.8 L111.85 84.2 94.6 79.25 89.55 68.55 Q102.8 77.6 119.2 76.4 L147.3 74.55 Q156.1 73.95 164.45 71.5 173.65 68.85 180.45 62.4 L175.25 78.3 M112.2 13.75 Q103.65 9.1 96.45 15.6 L97.6 16.4 Q104.5 12.75 112.1 14.5 L112.2 13.75 M113.05 17.9 L111.7 17.5 Q98.5 25.0 83.4 23.0 L100.1 9.3 Q110.25 8.5 118.9 14.2 124.0 12.4 129.2 12.3 137.5 12.1 138.4 20.1 134.1 24.25 128.15 24.7 126.35 24.8 124.65 24.0 118.95 21.5 113.05 21.9 L113.05 17.9 M126.5 81.95 L127.1 82.85 Q135.8 84.25 143.1 79.55 L142.05 78.4 Q135.0 81.95 127.05 81.0 L126.5 81.95" fill="#f3deee" fill-rule="evenodd" stroke="none"/>
    <path d="M176.9 27.7 Q174.95 42.95 171.05 57.6 L153.1 59.9 Q155.4 46.8 155.05 33.45 165.75 28.25 177.35 26.0 177.0 26.8 176.9 27.7 M174.3 56.9 L180.8 25.75 191.45 27.5 182.85 54.9 174.3 56.9 M149.15 71.3 L137.95 72.35 136.4 65.1 149.55 63.4 Q148.85 68.4 149.15 71.3 M152.6 63.0 L170.3 60.75 169.0 66.8 165.8 68.1 Q159.15 70.55 152.15 71.0 L152.6 63.0 M173.5 60.2 L179.9 58.65 Q176.55 62.25 172.5 64.85 L173.5 60.2 M150.0 60.35 L136.1 62.15 135.85 38.8 152.05 34.45 Q152.35 47.55 150.0 60.35 M76.9 28.35 L86.0 28.1 91.5 29.2 Q92.65 46.9 98.5 63.95 92.85 63.35 87.55 60.9 L85.5 60.0 72.35 32.05 76.9 28.35 M94.5 30.1 L113.25 36.2 116.5 62.65 101.65 64.0 Q96.2 48.2 94.6 31.8 L94.5 30.1 M99.4 67.05 L99.75 70.8 Q96.75 69.75 94.55 68.3 L89.45 64.85 Q94.1 66.7 99.4 67.05 M102.4 66.95 L116.8 65.65 117.55 73.4 Q108.9 73.2 102.8 71.7 L102.4 66.95 M120.5 38.2 Q127.35 39.95 132.9 39.4 L133.1 62.4 119.5 62.5 116.4 37.15 120.5 38.2 M119.8 65.5 L133.4 65.35 134.9 72.6 120.6 73.35 119.8 65.5" fill="#ffffff" fill-rule="evenodd" stroke="none"/>
    <path d="M185.65 56.2 L187.3 51.2 187.75 51.65 Q187.75 53.75 186.65 55.25 L185.65 56.2" fill="#d0cfd0" fill-rule="evenodd" stroke="none"/>
    <path d="M212.9 100.15 L212.95 99.6 207.35 89.7 218.35 93.4 244.6 119.65 265.4 156.3 273.5 205.75 Q264.85 195.8 255.5 186.7 L252.7 184.1 249.8 181.55 247.0 179.0 Q234.8 168.4 221.2 160.1 L210.25 106.4 209.05 105.25 Q207.8 105.3 207.35 106.45 L207.3 107.0 217.85 158.75 194.4 151.05 193.85 151.25 188.8 164.8 Q197.25 171.2 206.3 176.85 L209.2 178.85 211.8 180.95 214.5 183.1 221.85 189.95 224.0 207.8 204.1 204.8 198.8 218.35 224.75 230.5 224.95 250.6 115.45 251.0 121.25 169.15 193.35 114.95 193.9 113.75 Q188.6 109.05 182.0 105.3 L211.7 100.9 212.9 100.15 M209.05 98.25 L176.8 103.3 176.4 104.6 189.85 113.85 127.6 160.7 136.6 148.85 137.6 148.85 139.2 146.85 160.65 111.0 164.25 114.95 164.7 114.85 180.25 80.6 203.0 88.2 209.05 98.25 M58.2 102.2 L89.05 108.1 81.8 112.2 Q80.7 112.8 81.05 114.0 L81.55 114.6 130.4 152.05 118.3 168.3 112.45 251.0 50.6 251.2 50.6 232.15 82.6 213.55 82.9 212.65 77.8 199.75 76.85 199.4 50.6 206.15 50.6 195.45 Q71.25 178.1 90.7 159.85 L84.75 146.8 Q84.3 146.25 83.75 146.5 69.65 151.1 56.15 157.45 L67.6 108.1 67.55 107.3 65.95 106.35 64.7 107.4 52.55 159.85 30.5 176.2 6.4 207.2 3.0 185.95 21.1 142.9 61.0 93.1 63.95 92.2 57.55 99.9 Q57.05 100.55 57.1 101.35 L58.2 102.2 M94.9 107.25 L93.75 105.95 61.3 99.75 69.2 90.65 93.35 83.5 103.7 115.1 104.15 115.3 105.25 115.0 109.9 107.45 134.7 146.4 132.25 149.65 85.25 113.6 94.9 107.25 M240.1 209.6 L232.45 208.8 226.3 193.65 229.85 196.75 Q236.15 202.2 240.1 209.6" fill="#8d254e" fill-rule="evenodd" stroke="none"/>
    <path d="M149.8 89.25 L176.75 81.0 163.85 110.3 149.8 89.25 M158.85 108.25 L140.7 138.55 148.75 93.1 158.85 108.25 M119.5 91.55 L132.4 137.2 111.65 104.6 119.5 91.55 M104.75 110.15 L96.3 82.8 117.7 88.75 104.75 110.15" fill="#ffe1e9" fill-rule="evenodd" stroke="none"/>
    <path d="M222.25 165.6 Q231.35 170.0 239.25 176.4 252.65 187.25 264.2 199.95 271.15 207.5 277.9 215.55 L267.3 234.35 242.0 230.45 Q236.9 229.65 232.05 228.1 216.9 223.05 202.0 217.25 L205.65 207.55 225.35 210.75 241.95 212.8 242.85 212.45 Q243.5 212.25 243.4 211.45 242.95 208.75 241.45 206.75 232.15 194.4 220.7 184.1 207.6 172.25 191.95 164.1 L195.6 154.25 Q209.15 159.4 222.25 165.6 M141.35 18.55 L145.75 20.85 145.1 21.65 Q141.05 23.45 141.35 18.55 M54.65 161.8 Q65.75 156.5 77.25 152.0 L82.9 149.65 87.5 159.15 Q76.35 169.45 64.8 179.1 57.65 185.1 50.8 191.6 42.15 199.7 37.9 210.75 L39.2 211.65 Q58.05 208.2 76.3 202.65 L79.6 211.85 48.65 229.8 12.9 233.1 5.25 213.55 32.7 178.2 54.65 161.8" fill="#e3aed5" fill-rule="evenodd" stroke="none"/>
  </g>
</svg>
