<?xml version="1.0" encoding="UTF-8" standalone="no"?>
<svg xmlns:xlink="http://www.w3.org/1999/xlink" height="276.7px" width="229.15px" xmlns="http://www.w3.org/2000/svg">
  <g transform="matrix(1.0, 0.0, 0.0, 1.0, 0.0, 0.0)">
    <path d="M174.35 76.95 L174.95 78.55 175.4 76.8 Q176.5 73.45 180.1 73.05 L181.4 74.1 181.35 74.95 Q180.55 79.65 175.6 79.2 176.7 80.2 178.25 80.2 181.8 79.9 182.2 76.55 182.6 78.65 181.45 80.3 179.95 82.4 177.65 81.8 174.0 80.8 174.35 76.95 M187.5 84.1 L191.35 81.15 164.55 44.7 73.35 6.7 58.05 22.0 32.75 11.95 20.55 63.9 55.9 82.25 69.3 77.4 79.55 104.3 65.4 111.3 18.8 132.4 3.75 179.0 10.75 256.95 13.65 260.35 217.4 170.95 211.25 137.05 161.8 103.75 187.5 84.1 M199.25 82.3 Q186.3 93.7 172.8 104.65 L170.55 106.45 Q191.2 119.5 212.4 131.65 L219.35 135.7 229.15 197.45 217.8 257.45 207.8 276.7 22.65 276.7 8.25 262.25 0.0 185.3 11.2 133.35 72.45 101.45 68.0 81.6 Q61.35 84.4 55.45 88.25 L54.7 88.75 17.2 65.55 29.0 4.35 Q40.9 11.25 52.9 17.55 54.75 18.55 56.7 19.35 63.3 11.8 68.75 3.35 70.0 1.45 72.05 0.0 L176.2 46.05 199.25 82.3 M210.65 180.35 L210.5 180.6 210.6 180.35 210.65 180.35 M209.3 183.85 L210.0 184.55 Q211.05 185.5 212.55 185.5 216.4 185.2 216.5 181.35 217.1 183.75 215.8 185.7 214.9 186.95 213.55 187.3 208.5 187.25 208.65 182.05 208.75 183.05 209.3 183.85 M223.4 187.65 L217.4 171.0 13.65 260.4 25.25 274.1 198.9 274.1 212.35 255.4 223.4 187.65 M28.9 60.35 L35.75 53.25 36.9 52.05 36.9 54.1 28.9 62.5 28.9 60.35 M39.85 57.05 Q40.55 61.3 37.05 63.65 34.05 65.6 30.8 63.95 L30.75 62.0 Q32.15 62.8 33.85 62.85 39.35 62.35 39.85 57.05 M32.95 133.1 L32.95 135.15 24.95 143.55 24.95 141.4 25.0 141.4 32.95 133.1 M35.95 138.1 Q36.5 141.75 33.95 144.15 31.9 146.1 29.2 145.5 L26.9 145.0 26.85 143.05 Q28.25 143.85 29.95 143.9 35.45 143.4 35.95 138.1 M66.4 245.1 L66.35 245.95 Q65.55 250.65 60.6 250.2 61.7 251.2 63.25 251.2 66.8 250.9 67.2 247.55 67.9 252.25 63.35 253.05 62.35 253.0 61.35 252.35 59.1 250.75 59.35 247.95 L59.95 249.55 Q60.4 244.9 65.1 244.05 L66.4 245.1" fill="#47525f" fill-rule="evenodd" stroke="none"/>
    <path d="M187.5 84.1 L161.8 103.75 211.25 137.05 217.4 170.95 13.65 260.35 10.75 256.95 3.75 179.0 18.8 132.4 65.4 111.3 187.5 84.1 M37.7 54.75 L38.7 53.65 Q39.35 57.55 36.35 60.25 34.0 62.4 30.75 62.0 L37.7 54.75 M32.95 135.15 L32.95 133.1 32.4 132.9 Q30.9 131.7 28.55 132.45 24.4 133.85 23.75 138.15 L23.75 140.5 Q23.55 141.25 24.95 143.55 L26.9 145.0 29.2 145.5 Q31.9 146.1 33.95 144.15 36.5 141.75 35.95 138.1 36.1 136.25 34.8 134.7 35.3 137.0 34.1 139.15 31.65 143.55 26.85 143.05 L33.75 135.8 32.95 135.15 M25.0 141.4 L24.95 141.4 24.95 141.35 25.0 141.4 M24.75 139.9 L24.7 140.1 24.7 140.05 24.75 139.9" fill="#bab9ba" fill-rule="evenodd" stroke="none"/>
    <path d="M180.1 73.05 L179.25 72.75 Q174.65 72.35 174.35 76.95 174.0 80.8 177.65 81.8 179.95 82.4 181.45 80.3 182.6 78.65 182.2 76.55 L181.4 74.1 180.1 73.05 M65.4 111.3 L79.55 104.3 69.3 77.4 55.9 82.25 20.55 63.9 32.75 11.95 58.05 22.0 73.35 6.7 164.55 44.7 191.35 81.15 187.5 84.1 65.4 111.3 M215.7 179.45 L214.45 178.4 Q212.7 178.55 211.15 179.8 212.5 178.5 214.45 178.35 L213.6 178.05 Q209.2 177.65 208.65 182.05 208.5 187.25 213.55 187.3 214.9 186.95 215.8 185.7 217.1 183.75 216.5 181.35 L215.7 179.45 M210.75 180.2 L210.65 180.35 210.6 180.35 210.75 180.2 M223.4 187.65 L212.35 255.4 198.9 274.1 25.25 274.1 13.65 260.4 217.4 171.0 223.4 187.65 M36.5 51.8 Q33.3 50.3 30.45 52.35 27.9 54.1 27.7 57.1 L27.7 59.45 Q27.5 60.2 28.9 62.5 L30.8 63.95 Q34.05 65.6 37.05 63.65 40.55 61.3 39.85 57.05 L39.85 56.8 Q39.8 55.0 38.7 53.65 L37.7 54.75 36.9 54.1 36.9 52.05 35.75 53.25 36.85 52.05 36.5 51.8 M66.4 245.1 L65.1 244.05 64.25 243.75 Q59.65 243.35 59.35 247.95 59.1 250.75 61.35 252.35 62.35 253.0 63.35 253.05 67.9 252.25 67.2 247.55 L66.4 245.1" fill="#9c9c9c" fill-rule="evenodd" stroke="none"/>
    <path d="M174.35 76.95 Q174.65 72.35 179.25 72.75 L180.1 73.05 Q176.5 73.45 175.4 76.8 L174.95 78.55 174.35 76.95 M211.15 179.8 L210.75 180.2 210.6 180.35 210.5 180.6 210.45 180.6 209.3 183.85 Q208.75 183.05 208.65 182.05 209.2 177.65 213.6 178.05 L214.45 178.35 Q212.5 178.5 211.15 179.8 M36.5 51.8 L35.7 52.1 Q29.9 54.1 28.55 59.85 27.8 58.55 27.7 57.1 27.9 54.1 30.45 52.35 33.3 50.3 36.5 51.8 M23.75 138.15 Q24.4 133.85 28.55 132.45 30.9 131.7 32.4 132.9 27.8 134.55 25.35 138.75 L24.75 139.9 24.7 140.05 24.6 140.9 Q23.85 139.6 23.75 138.15 M65.1 244.05 Q60.4 244.9 59.95 249.55 L59.35 247.95 Q59.65 243.35 64.25 243.75 L65.1 244.05" fill="#e9e9eb" fill-rule="evenodd" stroke="none"/>
    <path d="M215.7 179.45 Q215.75 180.95 214.95 182.15 213.0 184.95 210.0 184.55 L209.3 183.85 210.45 180.6 210.5 180.6 210.65 180.35 210.75 180.2 211.15 179.8 Q212.7 178.55 214.45 178.4 L215.7 179.45 M28.55 59.85 Q29.9 54.1 35.7 52.1 L36.5 51.8 36.85 52.05 35.75 53.25 28.9 60.35 28.55 59.85 M32.4 132.9 L32.95 133.1 25.0 141.4 24.95 141.35 24.65 140.9 24.7 140.1 24.75 139.9 25.35 138.75 Q27.8 134.55 32.4 132.9" fill="#d0cfd0" fill-rule="evenodd" stroke="none"/>
    <path d="M181.4 74.1 L182.2 76.55 Q181.8 79.9 178.25 80.2 176.7 80.2 175.6 79.2 180.55 79.65 181.35 74.95 L181.4 74.1 M210.0 184.55 Q213.0 184.95 214.95 182.15 215.75 180.95 215.7 179.45 L216.5 181.35 Q216.4 185.2 212.55 185.5 211.05 185.5 210.0 184.55 M38.7 53.65 Q39.8 55.0 39.85 56.8 L39.85 57.05 Q39.35 62.35 33.85 62.85 32.15 62.8 30.75 62.0 34.0 62.4 36.35 60.25 39.35 57.55 38.7 53.65 M26.85 143.05 Q31.65 143.55 34.1 139.15 35.3 137.0 34.8 134.7 36.1 136.25 35.95 138.1 35.45 143.4 29.95 143.9 28.25 143.85 26.85 143.05 M67.2 247.55 Q66.8 250.9 63.25 251.2 61.7 251.2 60.6 250.2 65.55 250.65 66.35 245.95 L66.4 245.1 67.2 247.55" fill="#b0aeb3" fill-rule="evenodd" stroke="none"/>
    <path d="M36.9 54.1 L37.7 54.75 30.75 62.0 30.8 63.95 28.9 62.5 36.9 54.1 M32.95 135.15 L33.75 135.8 26.85 143.05 26.9 145.0 24.95 143.55 32.95 135.15" fill="#57565b" fill-rule="evenodd" stroke="none"/>
    <path d="M27.7 57.1 Q27.8 58.55 28.55 59.85 L28.9 60.35 28.9 62.5 Q27.5 60.2 27.7 59.45 L27.7 57.1 M24.95 143.55 Q23.55 141.25 23.75 140.5 L23.75 138.15 Q23.85 139.6 24.6 140.9 L24.7 140.05 24.7 140.1 24.65 140.9 24.95 141.35 24.95 141.4 24.95 143.55" fill="#79818b" fill-rule="evenodd" stroke="none"/>
  </g>
</svg>
