<?xml version="1.0" encoding="UTF-8" standalone="no"?>
<svg xmlns:xlink="http://www.w3.org/1999/xlink" height="264.75px" width="199.9px" xmlns="http://www.w3.org/2000/svg">
  <g transform="matrix(1.0, 0.0, 0.0, 1.0, 0.0, 0.0)">
    <path d="M162.9 67.4 L153.05 59.15 149.75 59.15 Q143.45 59.25 138.05 56.15 138.0 61.6 133.3 64.55 127.75 67.9 122.1 70.75 116.45 73.5 113.7 79.0 132.6 65.8 155.8 66.7 L162.9 67.4 M169.55 69.95 L168.2 71.3 Q152.25 83.05 137.8 96.5 L195.3 131.9 196.0 133.05 199.9 181.65 197.35 218.5 190.15 239.15 193.0 243.5 Q183.9 253.5 173.35 261.75 L155.8 245.5 158.7 241.15 Q153.65 224.95 147.1 209.4 L141.55 216.1 148.7 263.45 147.3 264.75 82.0 264.35 57.8 263.8 56.75 262.15 62.35 220.75 49.9 207.3 49.15 211.3 Q48.45 215.3 48.2 219.35 47.45 233.1 42.6 245.9 L45.3 250.8 27.95 263.65 Q27.2 263.45 26.7 263.0 L6.1 245.35 7.25 243.15 3.45 226.85 0.0 179.9 10.0 135.15 10.7 134.15 71.4 98.15 Q73.55 90.55 70.4 82.9 L59.85 56.85 52.6 62.9 51.15 62.7 18.15 39.35 17.7 38.75 29.35 13.65 30.35 13.05 45.4 19.55 62.95 0.0 63.45 0.1 103.4 20.3 145.05 42.2 144.4 43.45 135.0 44.8 140.6 47.8 Q157.0 56.25 169.55 69.95 M196.9 181.8 L193.35 137.7 149.5 207.05 160.3 235.2 166.95 227.45 167.25 227.3 167.95 227.15 Q174.1 227.7 179.35 230.15 183.9 232.4 187.55 236.55 L188.15 236.5 194.4 218.1 196.9 181.8 M166.35 117.6 L164.95 129.1 139.5 131.8 147.4 139.85 146.95 140.9 86.95 199.15 84.25 261.15 145.55 261.75 138.5 215.9 147.25 205.0 192.4 133.6 166.35 117.6 M162.85 126.35 L163.45 115.9 136.7 99.35 127.85 134.5 127.65 135.05 126.1 135.6 121.95 129.95 104.9 166.45 91.7 190.35 143.75 139.85 134.55 130.75 Q134.7 129.5 135.95 129.55 L162.85 126.35 M71.75 78.7 Q74.0 84.95 75.0 91.45 75.45 94.4 75.25 97.35 L96.05 107.55 96.1 108.2 103.5 156.05 107.1 106.35 108.1 104.85 138.8 90.75 Q130.5 90.25 123.85 85.2 122.75 84.3 121.45 84.15 L109.85 82.95 Q111.15 73.8 119.25 68.9 124.3 65.85 129.5 63.15 135.85 59.9 134.9 53.65 L135.45 52.55 149.3 56.2 131.1 45.8 130.75 44.05 Q126.5 47.2 124.05 51.85 L123.95 52.2 123.0 52.2 120.3 47.1 121.25 46.0 122.15 46.55 123.4 49.0 Q126.25 44.25 131.3 41.85 L131.65 41.8 132.25 42.45 137.8 41.25 123.7 34.05 123.05 35.05 114.6 32.15 Q109.5 34.9 105.6 39.15 L105.3 39.35 104.5 38.0 Q107.5 34.4 111.0 31.35 L112.15 30.55 Q108.35 28.5 105.15 31.2 L104.3 32.05 103.55 32.25 103.15 32.1 102.7 31.45 Q106.3 26.05 112.7 28.5 L114.25 29.2 100.55 22.25 63.15 3.35 46.45 22.8 31.4 16.3 20.9 37.6 51.95 59.55 59.9 53.0 Q60.95 52.7 61.3 53.6 L71.75 78.7 M78.35 71.45 Q79.1 66.25 83.95 64.7 87.1 63.6 89.25 66.0 95.6 73.2 89.35 80.1 87.6 82.0 85.2 81.5 77.65 80.05 78.3 72.1 L78.35 71.45 M119.8 37.7 L120.1 38.4 119.5 39.35 108.0 39.35 107.45 38.8 107.65 37.7 119.8 37.7 M120.5 36.4 L120.9 35.35 121.95 35.25 Q123.95 38.7 121.5 42.2 120.3 43.9 118.3 44.7 L117.4 44.1 Q119.7 40.85 121.1 37.2 L120.5 36.4 M85.3 78.75 Q89.0 78.05 89.4 73.0 L89.4 72.9 Q89.0 67.85 85.3 67.15 81.65 67.8 81.2 72.9 L81.2 73.05 Q81.65 78.05 85.3 78.75 M11.95 140.15 L3.05 179.95 6.45 226.6 9.55 239.85 17.5 228.6 Q17.65 228.35 17.95 228.4 L27.25 226.65 28.15 226.85 Q35.25 230.75 42.35 234.75 L42.6 231.35 43.05 227.95 Q45.0 216.25 47.45 204.55 L30.4 180.35 11.95 140.15 M41.1 119.7 L42.25 124.95 70.75 128.2 Q71.0 128.25 71.2 128.45 L71.6 128.65 Q72.6 129.75 71.25 130.35 64.55 133.45 57.6 136.0 L98.1 172.45 101.9 165.65 84.2 126.95 80.0 133.3 79.75 133.6 Q77.95 134.55 77.35 132.75 L71.95 101.5 41.1 119.7 M64.1 130.5 L40.4 127.7 40.0 127.4 38.4 121.35 13.4 136.05 32.95 178.75 65.25 219.45 65.4 220.4 59.9 260.9 81.25 261.1 83.95 198.6 96.6 175.15 53.5 136.35 53.65 134.85 Q58.9 132.7 64.1 130.5 M137.35 87.7 L141.8 87.75 165.35 69.85 Q139.35 65.1 116.65 79.2 125.4 81.25 133.0 86.2 134.9 87.4 137.35 87.7 M74.8 100.5 L79.65 128.5 92.4 108.85 74.8 100.5 M93.75 112.35 L86.2 124.0 100.3 154.9 93.75 112.35 M120.05 127.0 L109.8 110.9 106.5 155.95 120.05 127.0 M133.7 99.15 L110.9 107.05 125.8 130.4 133.7 99.15 M178.85 231.0 L168.45 230.2 161.4 238.6 161.7 240.8 168.05 246.45 170.1 244.9 169.75 244.5 Q169.35 244.0 169.4 243.4 169.45 242.8 169.95 242.4 170.45 242.0 171.05 242.05 171.65 242.1 172.05 242.6 L175.2 246.45 Q175.6 246.95 175.55 247.55 L175.0 248.55 173.9 248.9 172.9 248.35 172.0 247.25 168.85 249.55 167.9 249.85 166.95 249.5 160.45 243.75 159.35 245.25 173.35 258.4 189.65 243.45 185.95 239.2 185.9 239.15 185.65 238.85 178.85 231.0 M27.2 229.65 L19.5 230.8 9.65 244.95 27.55 260.2 41.9 250.2 40.65 248.35 38.1 250.4 37.75 250.55 33.9 251.05 33.5 251.0 26.55 247.75 26.35 248.55 26.05 249.05 Q25.25 250.15 24.1 249.4 L23.7 248.95 23.55 248.5 Q23.8 244.1 25.8 240.45 L26.4 240.3 26.9 240.45 Q28.25 240.8 27.95 242.15 L27.3 244.85 34.35 248.1 36.6 247.85 39.65 245.3 42.05 238.0 27.2 229.65" fill="#1a1a1a" fill-rule="evenodd" stroke="none"/>
    <path d="M162.9 67.4 L155.8 66.7 Q132.6 65.8 113.7 79.0 116.45 73.5 122.1 70.75 127.75 67.9 133.3 64.55 138.0 61.6 138.05 56.15 143.45 59.25 149.75 59.15 L153.05 59.15 162.9 67.4 M162.85 126.35 L135.95 129.55 Q134.7 129.5 134.55 130.75 L143.75 139.85 91.7 190.35 104.9 166.45 121.95 129.95 126.1 135.6 127.65 135.05 127.85 134.5 136.7 99.35 163.45 115.9 162.85 126.35 M166.35 117.6 L192.4 133.6 147.25 205.0 138.5 215.9 145.55 261.75 84.25 261.15 86.95 199.15 146.95 140.9 147.4 139.85 139.5 131.8 164.95 129.1 166.35 117.6 M196.9 181.8 L194.4 218.1 188.15 236.5 187.55 236.55 Q183.9 232.4 179.35 230.15 174.1 227.7 167.95 227.15 L167.25 227.3 166.95 227.45 160.3 235.2 149.5 207.05 193.35 137.7 196.9 181.8 M85.3 78.75 Q81.65 78.05 81.2 73.05 L81.2 72.9 Q81.65 67.8 85.3 67.15 89.0 67.85 89.4 72.9 L89.4 73.0 Q89.0 78.05 85.3 78.75 M137.35 87.7 Q134.9 87.4 133.0 86.2 125.4 81.25 116.65 79.2 139.35 65.1 165.35 69.85 L141.8 87.75 137.35 87.7 M64.1 130.5 Q58.9 132.7 53.65 134.85 L53.5 136.35 96.6 175.15 83.95 198.6 81.25 261.1 59.9 260.9 65.4 220.4 65.25 219.45 32.95 178.75 13.4 136.05 38.4 121.35 40.0 127.4 40.4 127.7 64.1 130.5 M41.1 119.7 L71.95 101.5 77.35 132.75 Q77.95 134.55 79.75 133.6 L80.0 133.3 84.2 126.95 101.9 165.65 98.1 172.45 57.6 136.0 Q64.55 133.45 71.25 130.35 72.6 129.75 71.6 128.65 L71.2 128.45 Q71.0 128.25 70.75 128.2 L42.25 124.95 41.1 119.7 M11.95 140.15 L30.4 180.35 47.45 204.55 Q45.0 216.25 43.05 227.95 L42.6 231.35 42.35 234.75 Q35.25 230.75 28.15 226.85 L27.25 226.65 17.95 228.4 Q17.65 228.35 17.5 228.6 L9.55 239.85 6.45 226.6 3.05 179.95 11.95 140.15" fill="#8d254e" fill-rule="evenodd" stroke="none"/>
    <path d="M100.55 22.25 L114.25 29.2 112.7 28.5 Q106.3 26.05 102.7 31.45 L103.15 32.1 103.55 32.25 104.3 32.05 105.15 31.2 Q108.35 28.5 112.15 30.55 L111.0 31.35 Q107.5 34.4 104.5 38.0 L105.3 39.35 105.6 39.15 Q109.5 34.9 114.6 32.15 L123.05 35.05 123.7 34.05 137.8 41.25 132.25 42.45 131.65 41.8 131.3 41.85 Q126.25 44.25 123.4 49.0 L122.15 46.55 121.25 46.0 120.3 47.1 123.0 52.2 123.95 52.2 124.05 51.85 Q126.5 47.2 130.75 44.05 L131.1 45.8 149.3 56.2 135.45 52.55 134.9 53.65 Q135.85 59.9 129.5 63.15 124.3 65.85 119.25 68.9 111.15 73.8 109.85 82.95 L121.45 84.15 Q122.75 84.3 123.85 85.2 130.5 90.25 138.8 90.75 L108.1 104.85 107.1 106.35 103.5 156.05 96.1 108.2 96.05 107.55 75.25 97.35 Q75.45 94.4 75.0 91.45 74.0 84.95 71.75 78.7 L72.45 77.3 Q74.3 73.3 78.3 72.1 77.65 80.05 85.2 81.5 87.6 82.0 89.35 80.1 95.6 73.2 89.25 66.0 87.1 63.6 83.95 64.7 79.1 66.25 78.35 71.45 73.35 68.9 72.6 63.15 71.9 58.15 74.4 53.85 75.75 51.5 78.4 51.8 81.05 52.35 83.15 54.1 89.05 49.7 89.85 42.1 90.45 36.2 89.55 30.55 87.75 31.25 86.15 30.25 85.4 29.75 85.2 28.95 86.35 26.95 88.55 26.15 94.55 23.95 100.55 22.25 M120.5 36.4 L121.1 37.2 Q119.7 40.85 117.4 44.1 L118.3 44.7 Q120.3 43.9 121.5 42.2 123.95 38.7 121.95 35.25 L120.9 35.35 120.5 36.4 M119.8 37.7 L107.65 37.7 107.45 38.8 108.0 39.35 119.5 39.35 120.1 38.4 119.8 37.7 M27.2 229.65 L42.05 238.0 39.65 245.3 36.6 247.85 34.35 248.1 27.3 244.85 27.95 242.15 Q28.25 240.8 26.9 240.45 L26.4 240.3 25.8 240.45 Q23.8 244.1 23.55 248.5 L23.7 248.95 24.1 249.4 Q25.25 250.15 26.05 249.05 L26.35 248.55 26.55 247.75 33.5 251.0 33.9 251.05 37.75 250.55 38.1 250.4 40.65 248.35 41.9 250.2 27.55 260.2 9.65 244.95 19.5 230.8 27.2 229.65 M178.85 231.0 L185.65 238.85 185.9 239.15 185.95 239.2 189.65 243.45 173.35 258.4 159.35 245.25 160.45 243.75 166.95 249.5 167.9 249.85 168.85 249.55 172.0 247.25 172.9 248.35 173.9 248.9 175.0 248.55 175.55 247.55 Q175.6 246.95 175.2 246.45 L172.05 242.6 Q171.65 242.1 171.05 242.05 170.45 242.0 169.95 242.4 169.45 242.8 169.4 243.4 169.35 244.0 169.75 244.5 L170.1 244.9 168.05 246.45 161.7 240.8 161.4 238.6 168.45 230.2 178.85 231.0" fill="#e3aed5" fill-rule="evenodd" stroke="none"/>
    <path d="M71.75 78.7 L61.3 53.6 Q60.95 52.7 59.9 53.0 L51.95 59.55 20.9 37.6 31.4 16.3 46.45 22.8 63.15 3.35 100.55 22.25 Q94.55 23.95 88.55 26.15 86.35 26.95 85.2 28.95 85.4 29.75 86.15 30.25 87.75 31.25 89.55 30.55 90.45 36.2 89.85 42.1 89.05 49.7 83.15 54.1 81.05 52.35 78.4 51.8 75.75 51.5 74.4 53.85 71.9 58.15 72.6 63.15 73.35 68.9 78.35 71.45 L78.3 72.1 Q74.3 73.3 72.45 77.3 L71.75 78.7" fill="#762e8b" fill-rule="evenodd" stroke="none"/>
    <path d="M133.7 99.15 L125.8 130.4 110.9 107.05 133.7 99.15 M120.05 127.0 L106.5 155.95 109.8 110.9 120.05 127.0 M93.75 112.35 L100.3 154.9 86.2 124.0 93.75 112.35 M74.8 100.5 L92.4 108.85 79.65 128.5 74.8 100.5" fill="#ffe1e9" fill-rule="evenodd" stroke="none"/>
  </g>
</svg>
