<?xml version="1.0" encoding="UTF-8" standalone="no"?>
<svg xmlns:xlink="http://www.w3.org/1999/xlink" height="28.2px" width="91.4px" xmlns="http://www.w3.org/2000/svg">
  <g transform="matrix(1.0, 0.0, 0.0, 1.0, -203.3, 199.45)">
    <path d="M294.7 -185.35 Q294.65 -181.4 292.8 -178.25 290.9 -175.05 287.75 -173.2 284.55 -171.3 280.6 -171.25 L217.4 -171.25 Q213.45 -171.3 210.3 -173.2 207.1 -175.05 205.2 -178.25 203.35 -181.4 203.3 -185.35 203.35 -189.3 205.2 -192.45 207.1 -195.65 210.3 -197.55 213.45 -199.4 217.4 -199.45 L280.6 -199.45 Q284.55 -199.4 287.75 -197.55 290.9 -195.65 292.8 -192.45 294.65 -189.3 294.7 -185.35" fill="url(#gradient0)" fill-rule="evenodd" stroke="none"/>
  </g>
  <defs>
    <linearGradient gradientTransform="matrix(0.0558, 0.0, 0.0, 0.0558, 249.0, -185.35)" gradientUnits="userSpaceOnUse" id="gradient0" spreadMethod="pad" x1="-819.2" x2="819.2">
      <stop offset="0.0" stop-color="#650c0b"/>
      <stop offset="0.5490196078431373" stop-color="#e1180a"/>
      <stop offset="1.0" stop-color="#650c0b"/>
    </linearGradient>
  </defs>
</svg>
