<?xml version="1.0" encoding="UTF-8" standalone="no"?>
<svg xmlns:xlink="http://www.w3.org/1999/xlink" height="17.6px" width="23.8px" xmlns="http://www.w3.org/2000/svg">
  <g transform="matrix(1.0, 0.0, 0.0, 1.0, 0.5, 0.5)">
    <path d="M22.2 3.15 L13.6 15.3 Q12.65 16.6 11.4 16.6 10.15 16.6 9.15 15.3 L0.6 3.15 Q-0.3 1.8 0.15 0.9 0.6 0.05 2.2 0.0 L20.55 0.0 Q22.15 0.05 22.65 0.9 23.1 1.8 22.2 3.15" fill="#6a5800" fill-rule="evenodd" stroke="none"/>
    <path d="M22.2 3.15 L13.6 15.3 Q12.65 16.6 11.4 16.6 10.15 16.6 9.15 15.3 L0.6 3.15 Q-0.3 1.8 0.15 0.9 0.6 0.05 2.2 0.0 L20.55 0.0 Q22.15 0.05 22.65 0.9 23.1 1.8 22.2 3.15 Z" fill="none" stroke="#6a5800" stroke-linecap="round" stroke-linejoin="round" stroke-width="1.0"/>
  </g>
</svg>
