<?xml version="1.0" encoding="UTF-8" standalone="no"?>
<svg xmlns:xlink="http://www.w3.org/1999/xlink" height="38.65px" width="119.75px" xmlns="http://www.w3.org/2000/svg">
  <g transform="matrix(1.0, 0.0, 0.0, 1.0, -0.95, 0.0)">
    <path d="M22.85 0.0 L22.85 38.65 12.3 38.65 12.3 0.0 22.85 0.0" fill="url(#gradient0)" fill-rule="evenodd" stroke="none"/>
    <path d="M105.6 0.0 L105.6 38.65 95.05 38.65 95.05 0.0 105.6 0.0" fill="url(#gradient1)" fill-rule="evenodd" stroke="none"/>
    <path d="M120.7 20.5 L0.95 20.2 1.45 17.35 5.5 17.15 16.45 16.6 32.35 16.0 51.25 15.6 Q61.2 15.4 71.25 15.5 L75.6 15.95 79.2 16.75 83.45 17.2 83.9 16.7 84.5 15.75 84.95 15.25 103.15 16.0 118.25 17.65 120.7 20.5" fill="#47525f" fill-rule="evenodd" stroke="none"/>
  </g>
  <defs>
    <linearGradient gradientTransform="matrix(0.0065, 0.0, 0.0, 0.0049, 17.6, 19.3)" gradientUnits="userSpaceOnUse" id="gradient0" spreadMethod="pad" x1="-819.2" x2="819.2">
      <stop offset="0.0" stop-color="#565656"/>
      <stop offset="0.403921568627451" stop-color="#9a9999"/>
      <stop offset="0.592156862745098" stop-color="#dbdbda"/>
      <stop offset="0.7803921568627451" stop-color="#9b9a9a"/>
      <stop offset="1.0" stop-color="#151213"/>
    </linearGradient>
    <linearGradient gradientTransform="matrix(0.0065, 0.0, 0.0, 0.0049, 100.35, 19.3)" gradientUnits="userSpaceOnUse" id="gradient1" spreadMethod="pad" x1="-819.2" x2="819.2">
      <stop offset="0.0" stop-color="#565656"/>
      <stop offset="0.403921568627451" stop-color="#9a9999"/>
      <stop offset="0.592156862745098" stop-color="#dbdbda"/>
      <stop offset="0.7803921568627451" stop-color="#9b9a9a"/>
      <stop offset="1.0" stop-color="#151213"/>
    </linearGradient>
  </defs>
</svg>
