<?xml version="1.0" encoding="UTF-8" standalone="no"?>
<svg xmlns:xlink="http://www.w3.org/1999/xlink" height="33.35px" width="120.65px" xmlns="http://www.w3.org/2000/svg">
  <g transform="matrix(1.0, 0.0, 0.0, 1.0, -152.8, -110.0)">
    <path d="M250.45 142.05 Q239.75 142.15 229.95 142.6 L210.9 143.3 Q200.4 143.5 190.75 143.0 L171.75 142.35 152.8 143.3 152.85 141.15 153.0 135.75 153.15 128.55 153.35 121.1 153.55 114.85 153.75 111.3 Q178.3 110.55 199.55 110.2 220.75 109.85 239.1 110.15 L273.45 111.65 273.45 113.8 273.35 119.3 273.25 126.5 273.1 133.8 272.95 139.7 272.9 142.6 Q261.15 141.95 250.45 142.05" fill="#ff0000" fill-rule="evenodd" stroke="none"/>
    <path d="M250.45 142.05 Q239.75 142.15 229.95 142.6 L210.9 143.3 Q200.4 143.5 190.75 143.0 L171.75 142.35 152.8 143.3 152.85 141.15 153.0 135.75 153.15 128.55 153.35 121.1 153.55 114.85 153.75 111.3 Q178.3 110.55 199.55 110.2 220.75 109.85 239.1 110.15 L273.45 111.65 273.45 113.8 273.35 119.3 273.25 126.5 273.1 133.8 272.95 139.7 272.9 142.6 Q261.15 141.95 250.45 142.05 Z" fill="none" stroke="#000000" stroke-linecap="round" stroke-linejoin="round" stroke-opacity="0.003921569" stroke-width="0.05"/>
  </g>
</svg>
