<?xml version="1.0" encoding="UTF-8" standalone="no"?>
<svg xmlns:xlink="http://www.w3.org/1999/xlink" height="32.05px" width="118.75px" xmlns="http://www.w3.org/2000/svg">
  <g transform="matrix(1.0, 0.0, 0.0, 1.0, 0.0, -18.75)">
    <path d="M4.2 18.75 L2.05 20.9 1.3 50.65 0.0 50.8 0.05 48.7 0.2 43.25 0.35 36.1 0.55 28.65 0.8 22.4 0.95 18.85 4.2 18.75" fill="#cdcdcd" fill-rule="evenodd" stroke="none"/>
    <path d="M17.15 21.95 L4.55 24.3 4.65 46.3 7.0 46.4 13.0 46.65 21.05 47.1 29.5 47.55 36.85 48.05 31.8 48.2 24.75 48.25 17.0 48.25 9.8 48.2 4.55 48.15 2.5 48.15 3.35 22.05 17.15 21.95" fill="#848484" fill-rule="evenodd" stroke="none"/>
    <path d="M115.8 45.4 L115.85 25.05 110.85 24.55 96.75 22.85 74.9 19.8 Q84.4 19.8 92.25 20.05 L105.85 20.6 114.7 21.2 117.85 21.45 117.1 45.55 118.75 46.15 118.3 47.8 112.4 47.5 104.85 47.15 97.25 46.85 91.45 46.6 89.1 46.5 115.8 45.4" fill="#a09fa0" fill-rule="evenodd" stroke="none"/>
    <path d="M4.1 23.1 Q4.35 21.7 5.5 21.3 L7.75 21.4 Q8.85 21.9 8.75 23.3 8.45 25.25 7.25 25.65 6.1 26.05 5.05 25.25 4.0 24.5 4.1 23.1" fill="#47525f" fill-rule="evenodd" stroke="none"/>
    <path d="M3.35 22.5 Q3.6 21.1 4.75 20.7 L7.0 20.8 Q8.1 21.3 8.0 22.7 7.7 24.65 6.5 25.05 5.35 25.45 4.3 24.65 3.25 23.9 3.35 22.5" fill="#9c9c9c" fill-rule="evenodd" stroke="none"/>
    <path d="M3.9 22.05 Q4.05 21.15 4.8 20.9 L6.2 20.95 Q6.85 21.3 6.8 22.15 6.6 23.4 5.85 23.6 L4.5 23.4 Q3.85 22.9 3.9 22.05" fill="#d5d4d4" fill-rule="evenodd" stroke="none"/>
    <path d="M4.4 21.1 L5.4 20.4 7.3 25.2 6.35 25.35 4.4 21.1" fill="#47525f" fill-rule="evenodd" stroke="none"/>
    <path d="M113.2 23.45 Q113.4 22.25 114.45 21.85 L116.4 21.95 Q117.35 22.4 117.3 23.6 117.0 25.35 116.0 25.7 114.95 26.05 114.05 25.35 113.15 24.7 113.2 23.45" fill="#47525f" fill-rule="evenodd" stroke="none"/>
    <path d="M112.5 22.85 Q112.7 21.65 113.75 21.25 L115.75 21.35 Q116.65 21.8 116.6 23.0 116.3 24.75 115.3 25.1 114.25 25.45 113.35 24.75 112.45 24.1 112.5 22.85" fill="#9c9c9c" fill-rule="evenodd" stroke="none"/>
    <path d="M113.0 22.5 Q113.15 21.75 113.8 21.5 L115.0 21.55 Q115.6 21.85 115.55 22.6 115.35 23.65 114.75 23.9 114.1 24.1 113.5 23.7 112.95 23.25 113.0 22.5" fill="#d5d4d4" fill-rule="evenodd" stroke="none"/>
    <path d="M113.45 21.65 L114.35 21.05 116.0 25.3 115.15 25.4 113.45 21.65" fill="#47525f" fill-rule="evenodd" stroke="none"/>
    <path d="M117.6 45.05 Q118.7 46.45 118.3 47.4 117.85 48.4 116.75 48.65 115.65 48.9 114.75 48.0 114.0 47.0 114.4 46.0 114.8 45.0 115.8 44.6 116.75 44.2 117.6 45.05" fill="#47525f" fill-rule="evenodd" stroke="none"/>
    <path d="M116.75 45.2 Q117.85 46.6 117.45 47.55 117.0 48.55 115.9 48.8 114.8 49.05 113.9 48.15 113.15 47.15 113.55 46.15 113.95 45.15 114.95 44.75 115.9 44.35 116.75 45.2" fill="#9c9c9c" fill-rule="evenodd" stroke="none"/>
    <path d="M115.7 45.7 Q116.4 46.55 116.15 47.15 115.85 47.8 115.2 47.95 114.5 48.1 113.95 47.55 113.5 46.9 113.75 46.3 114.0 45.65 114.6 45.4 115.15 45.15 115.7 45.7" fill="#d5d4d4" fill-rule="evenodd" stroke="none"/>
    <path d="M113.6 46.6 L113.75 45.55 118.0 47.1 117.55 47.85 113.6 46.6" fill="#47525f" fill-rule="evenodd" stroke="none"/>
    <path d="M7.9 44.45 Q9.3 45.9 8.85 47.1 8.45 48.25 7.2 48.6 5.95 48.95 4.9 48.0 3.95 46.95 4.35 45.8 4.75 44.6 5.8 44.05 6.85 43.55 7.9 44.45" fill="#47525f" fill-rule="evenodd" stroke="none"/>
    <path d="M6.95 44.7 Q8.35 46.15 7.9 47.35 7.5 48.5 6.25 48.85 5.0 49.2 3.95 48.25 3.0 47.2 3.4 46.05 3.8 44.85 4.85 44.3 5.9 43.8 6.95 44.7" fill="#9c9c9c" fill-rule="evenodd" stroke="none"/>
    <path d="M5.8 45.35 Q6.65 46.25 6.4 47.0 6.15 47.7 5.4 47.9 4.6 48.15 3.95 47.55 3.35 46.9 3.6 46.15 3.85 45.45 4.5 45.1 5.15 44.8 5.8 45.35" fill="#d5d4d4" fill-rule="evenodd" stroke="none"/>
    <path d="M3.5 46.55 L3.6 45.35 8.55 46.8 8.05 47.65 3.5 46.55" fill="#47525f" fill-rule="evenodd" stroke="none"/>
  </g>
</svg>
