<?xml version="1.0" encoding="UTF-8" standalone="no"?>
<svg xmlns:xlink="http://www.w3.org/1999/xlink" height="64.5px" width="600.0px" xmlns="http://www.w3.org/2000/svg">
  <g transform="matrix(1.0, 0.0, 0.0, 1.0, 293.35, 212.75)">
    <path d="M306.65 -148.25 L-293.35 -148.25 -293.35 -206.15 306.65 -206.15 306.65 -148.25" fill="#000f21" fill-rule="evenodd" stroke="none"/>
    <path d="M306.65 -150.85 L-293.35 -150.85 -293.35 -212.75 306.65 -212.75 306.65 -150.85" fill="url(#gradient0)" fill-rule="evenodd" stroke="none"/>
    <path d="M-283.75 -153.4 L-279.25 -158.2 -278.35 -157.5 -282.7 -152.6 -283.75 -153.4" fill="#6b0d0b" fill-rule="evenodd" stroke="none"/>
    <path d="M-277.55 -155.35 L-277.55 -155.2 Q-277.65 -153.9 -278.6 -153.0 -279.55 -152.15 -280.95 -152.1 -281.9 -152.1 -282.7 -152.55 L-282.7 -153.7 -280.2 -155.5 -278.2 -157.6 -277.7 -156.7 -277.55 -156.65 -277.55 -155.45 -277.55 -155.4 -277.55 -155.35" fill="#320d0b" fill-rule="evenodd" stroke="none"/>
    <path d="M-283.75 -153.4 L-283.75 -154.6 -279.25 -159.35 -279.2 -158.2 -283.75 -153.4" fill="#320d0b" fill-rule="evenodd" stroke="none"/>
    <path d="M-284.45 -156.45 L-283.75 -155.0 -283.75 -153.35 -284.35 -154.45 -284.45 -155.1 -284.45 -156.45" fill="#79818b" fill-rule="evenodd" stroke="none"/>
    <path d="M-283.95 -154.95 L-283.5 -156.45 Q-283.05 -157.4 -281.95 -158.2 L-279.45 -159.5 -279.25 -159.35 -283.75 -154.65 -283.95 -154.95" fill="#d0cfd0" fill-rule="evenodd" stroke="none"/>
    <path d="M-284.45 -156.55 Q-284.4 -157.85 -283.4 -158.8 -282.4 -159.8 -281.05 -159.85 L-279.45 -159.45 -281.95 -158.2 -283.5 -156.45 -283.95 -154.9 Q-284.45 -155.65 -284.45 -156.55" fill="#e9e9eb" fill-rule="evenodd" stroke="none"/>
    <path d="M-278.95 -154.9 Q-279.5 -154.25 -280.35 -154.0 L-281.95 -153.7 -282.7 -153.7 -278.2 -158.45 -278.2 -156.9 Q-278.25 -155.9 -278.95 -154.9" fill="#bab9ba" fill-rule="evenodd" stroke="none"/>
    <path d="M-281.95 -153.7 L-280.4 -154.0 Q-279.55 -154.25 -279.0 -154.9 -278.35 -155.95 -278.25 -156.9 L-278.2 -158.45 Q-277.55 -157.6 -277.55 -156.5 -277.55 -155.1 -278.5 -154.2 -279.5 -153.25 -280.95 -153.2 -281.9 -153.25 -282.7 -153.7 L-281.95 -153.7" fill="#b0aeb3" fill-rule="evenodd" stroke="none"/>
    <path d="M-262.4 -153.4 L-257.9 -158.2 -257.0 -157.5 -261.35 -152.6 -262.4 -153.4" fill="#6b0d0b" fill-rule="evenodd" stroke="none"/>
    <path d="M-256.2 -155.35 L-256.2 -155.2 Q-256.3 -153.9 -257.25 -153.0 -258.2 -152.15 -259.6 -152.1 -260.55 -152.1 -261.35 -152.55 L-261.35 -153.7 -258.85 -155.5 -256.85 -157.6 -256.35 -156.7 -256.2 -156.65 -256.2 -155.45 -256.2 -155.4 -256.2 -155.35" fill="#320d0b" fill-rule="evenodd" stroke="none"/>
    <path d="M-262.4 -153.4 L-262.4 -154.6 -257.9 -159.35 -257.85 -158.2 -262.4 -153.4" fill="#320d0b" fill-rule="evenodd" stroke="none"/>
    <path d="M-263.1 -156.45 L-262.4 -155.0 -262.4 -153.35 -263.0 -154.45 -263.1 -155.1 -263.1 -156.45" fill="#79818b" fill-rule="evenodd" stroke="none"/>
    <path d="M-262.6 -154.95 L-262.15 -156.45 Q-261.7 -157.4 -260.6 -158.2 -258.95 -159.3 -258.1 -159.5 L-257.9 -159.35 -262.4 -154.65 -262.6 -154.95" fill="#d0cfd0" fill-rule="evenodd" stroke="none"/>
    <path d="M-263.1 -156.55 Q-263.05 -157.85 -262.05 -158.8 -261.05 -159.8 -259.7 -159.85 L-258.1 -159.45 Q-258.95 -159.25 -260.6 -158.2 -261.7 -157.35 -262.15 -156.45 L-262.6 -154.9 Q-263.1 -155.65 -263.1 -156.55" fill="#e9e9eb" fill-rule="evenodd" stroke="none"/>
    <path d="M-257.6 -154.9 Q-258.15 -154.25 -259.0 -154.0 L-260.6 -153.7 -261.35 -153.7 -256.85 -158.45 -256.85 -156.9 Q-256.9 -155.9 -257.6 -154.9" fill="#bab9ba" fill-rule="evenodd" stroke="none"/>
    <path d="M-260.6 -153.7 L-259.05 -154.0 Q-258.2 -154.25 -257.65 -154.9 -257.0 -155.95 -256.9 -156.9 L-256.85 -158.45 Q-256.2 -157.6 -256.2 -156.5 -256.2 -155.1 -257.15 -154.2 -258.15 -153.25 -259.6 -153.2 -260.55 -153.25 -261.35 -153.7 L-260.6 -153.7" fill="#b0aeb3" fill-rule="evenodd" stroke="none"/>
    <path d="M-241.05 -153.4 L-236.55 -158.2 -235.65 -157.5 -240.0 -152.6 -241.05 -153.4" fill="#6b0d0b" fill-rule="evenodd" stroke="none"/>
    <path d="M-234.85 -155.35 L-234.85 -155.2 Q-234.95 -153.9 -235.9 -153.0 -236.85 -152.15 -238.25 -152.1 -239.2 -152.1 -240.0 -152.55 L-240.0 -153.7 -237.5 -155.5 -235.5 -157.6 -235.0 -156.7 -234.85 -156.65 -234.85 -155.45 -234.85 -155.4 -234.85 -155.35" fill="#320d0b" fill-rule="evenodd" stroke="none"/>
    <path d="M-241.05 -153.4 L-241.05 -154.6 -236.55 -159.35 -236.5 -158.2 -241.05 -153.4" fill="#320d0b" fill-rule="evenodd" stroke="none"/>
    <path d="M-241.75 -156.45 L-241.05 -155.0 -241.05 -153.35 Q-241.5 -153.85 -241.65 -154.45 L-241.75 -155.1 -241.75 -156.45" fill="#79818b" fill-rule="evenodd" stroke="none"/>
    <path d="M-241.25 -154.95 L-240.8 -156.45 Q-240.35 -157.4 -239.25 -158.2 -237.6 -159.3 -236.75 -159.5 L-236.55 -159.35 -241.05 -154.65 -241.25 -154.95" fill="#d0cfd0" fill-rule="evenodd" stroke="none"/>
    <path d="M-241.75 -156.55 Q-241.7 -157.85 -240.7 -158.8 -239.7 -159.8 -238.35 -159.85 -237.5 -159.85 -236.75 -159.45 L-239.25 -158.2 -240.8 -156.45 -241.25 -154.9 Q-241.75 -155.65 -241.75 -156.55" fill="#e9e9eb" fill-rule="evenodd" stroke="none"/>
    <path d="M-236.25 -154.9 L-237.65 -154.0 -239.25 -153.7 -240.0 -153.7 -235.5 -158.45 -235.5 -156.9 Q-235.55 -155.9 -236.25 -154.9" fill="#bab9ba" fill-rule="evenodd" stroke="none"/>
    <path d="M-239.25 -153.7 L-237.7 -154.0 Q-236.85 -154.25 -236.3 -154.9 -235.65 -155.95 -235.55 -156.9 L-235.5 -158.45 Q-234.85 -157.6 -234.85 -156.5 -234.85 -155.1 -235.8 -154.2 -236.8 -153.25 -238.25 -153.2 -239.2 -153.25 -240.0 -153.7 L-239.25 -153.7" fill="#b0aeb3" fill-rule="evenodd" stroke="none"/>
    <path d="M-219.75 -153.4 L-215.25 -158.2 -214.35 -157.5 -218.7 -152.6 -219.75 -153.4" fill="#6b0d0b" fill-rule="evenodd" stroke="none"/>
    <path d="M-213.5 -155.35 L-213.5 -155.2 Q-213.6 -153.9 -214.55 -153.0 -215.5 -152.15 -216.9 -152.1 -217.85 -152.1 -218.65 -152.55 L-218.65 -153.7 -216.15 -155.5 -214.15 -157.6 -213.65 -156.7 -213.5 -156.65 -213.5 -155.45 -213.5 -155.4 -213.5 -155.35" fill="#320d0b" fill-rule="evenodd" stroke="none"/>
    <path d="M-219.75 -153.4 L-219.75 -154.6 -215.25 -159.35 -215.2 -158.2 -219.75 -153.4" fill="#320d0b" fill-rule="evenodd" stroke="none"/>
    <path d="M-220.4 -156.45 L-219.7 -155.0 -219.7 -153.35 -220.3 -154.45 -220.4 -155.1 -220.4 -156.45" fill="#79818b" fill-rule="evenodd" stroke="none"/>
    <path d="M-219.9 -154.95 L-219.45 -156.45 Q-219.0 -157.4 -217.9 -158.2 -216.25 -159.3 -215.4 -159.5 L-215.2 -159.35 -219.7 -154.65 -219.9 -154.95" fill="#d0cfd0" fill-rule="evenodd" stroke="none"/>
    <path d="M-220.4 -156.55 Q-220.35 -157.85 -219.35 -158.8 -218.35 -159.8 -217.0 -159.85 -216.15 -159.85 -215.4 -159.45 -216.25 -159.25 -217.9 -158.2 L-219.45 -156.45 -219.9 -154.9 Q-220.4 -155.65 -220.4 -156.55" fill="#e9e9eb" fill-rule="evenodd" stroke="none"/>
    <path d="M-214.9 -154.9 Q-215.45 -154.25 -216.3 -154.0 L-217.9 -153.7 -218.65 -153.7 -214.15 -158.45 -214.15 -156.9 Q-214.2 -155.9 -214.9 -154.9" fill="#bab9ba" fill-rule="evenodd" stroke="none"/>
    <path d="M-217.9 -153.7 L-216.35 -154.0 Q-215.5 -154.25 -214.95 -154.9 -214.3 -155.95 -214.2 -156.9 L-214.15 -158.45 Q-213.5 -157.6 -213.5 -156.5 -213.5 -155.1 -214.45 -154.2 -215.45 -153.25 -216.9 -153.2 -217.85 -153.25 -218.65 -153.7 L-217.9 -153.7" fill="#b0aeb3" fill-rule="evenodd" stroke="none"/>
    <path d="M-198.4 -153.4 L-193.9 -158.2 -193.0 -157.5 -197.35 -152.6 -198.4 -153.4" fill="#6b0d0b" fill-rule="evenodd" stroke="none"/>
    <path d="M-192.2 -155.35 L-192.2 -155.2 Q-192.3 -153.9 -193.25 -153.0 -194.2 -152.15 -195.6 -152.1 -196.55 -152.1 -197.35 -152.55 L-197.35 -153.7 -194.85 -155.5 -192.85 -157.6 -192.35 -156.7 -192.2 -156.65 -192.2 -155.45 -192.2 -155.4 -192.2 -155.35" fill="#320d0b" fill-rule="evenodd" stroke="none"/>
    <path d="M-198.4 -153.4 L-198.4 -154.6 -193.9 -159.35 -193.85 -158.2 -198.4 -153.4" fill="#320d0b" fill-rule="evenodd" stroke="none"/>
    <path d="M-199.1 -156.45 L-198.4 -155.0 -198.4 -153.35 -199.0 -154.45 -199.1 -155.1 -199.1 -156.45" fill="#79818b" fill-rule="evenodd" stroke="none"/>
    <path d="M-198.6 -154.95 L-198.15 -156.45 Q-197.7 -157.4 -196.6 -158.2 -194.95 -159.3 -194.1 -159.5 L-193.9 -159.35 -198.4 -154.65 -198.6 -154.95" fill="#d0cfd0" fill-rule="evenodd" stroke="none"/>
    <path d="M-199.1 -156.55 Q-199.05 -157.85 -198.05 -158.8 -197.05 -159.8 -195.7 -159.85 L-194.1 -159.45 Q-194.95 -159.25 -196.6 -158.2 L-198.15 -156.45 -198.6 -154.9 Q-199.1 -155.65 -199.1 -156.55" fill="#e9e9eb" fill-rule="evenodd" stroke="none"/>
    <path d="M-193.6 -154.9 Q-194.15 -154.25 -195.0 -154.0 L-196.6 -153.7 -197.35 -153.7 -192.85 -158.45 -192.85 -156.9 Q-192.9 -155.9 -193.6 -154.9" fill="#bab9ba" fill-rule="evenodd" stroke="none"/>
    <path d="M-196.6 -153.7 L-195.05 -154.0 Q-194.2 -154.25 -193.65 -154.9 -193.0 -155.95 -192.9 -156.9 L-192.85 -158.45 Q-192.2 -157.6 -192.2 -156.5 -192.2 -155.1 -193.15 -154.2 -194.15 -153.25 -195.6 -153.2 L-197.35 -153.7 -196.6 -153.7" fill="#b0aeb3" fill-rule="evenodd" stroke="none"/>
    <path d="M-177.05 -153.4 L-172.55 -158.2 -171.65 -157.5 -176.0 -152.6 -177.05 -153.4" fill="#6b0d0b" fill-rule="evenodd" stroke="none"/>
    <path d="M-170.85 -155.35 L-170.85 -155.2 Q-170.95 -153.9 -171.9 -153.0 -172.85 -152.15 -174.25 -152.1 -175.2 -152.1 -176.0 -152.55 L-176.0 -153.7 -173.5 -155.5 -171.5 -157.6 -171.0 -156.7 -170.85 -156.65 -170.85 -155.45 -170.85 -155.4 -170.85 -155.35" fill="#320d0b" fill-rule="evenodd" stroke="none"/>
    <path d="M-177.05 -153.4 L-177.05 -154.6 -172.55 -159.35 -172.5 -158.2 -177.05 -153.4" fill="#320d0b" fill-rule="evenodd" stroke="none"/>
    <path d="M-177.75 -156.45 L-177.05 -155.0 -177.05 -153.35 -177.65 -154.45 -177.75 -155.1 -177.75 -156.45" fill="#79818b" fill-rule="evenodd" stroke="none"/>
    <path d="M-177.25 -154.95 L-176.8 -156.45 Q-176.35 -157.4 -175.25 -158.2 L-172.75 -159.5 -172.55 -159.35 -177.05 -154.65 -177.25 -154.95" fill="#d0cfd0" fill-rule="evenodd" stroke="none"/>
    <path d="M-177.75 -156.55 Q-177.7 -157.85 -176.7 -158.8 -175.7 -159.8 -174.35 -159.85 -173.5 -159.85 -172.75 -159.45 L-175.25 -158.2 -176.8 -156.45 -177.25 -154.9 Q-177.75 -155.65 -177.75 -156.55" fill="#e9e9eb" fill-rule="evenodd" stroke="none"/>
    <path d="M-172.25 -154.9 Q-172.8 -154.25 -173.65 -154.0 L-175.25 -153.7 -176.0 -153.7 -171.5 -158.45 -171.5 -156.9 Q-171.55 -155.9 -172.25 -154.9" fill="#bab9ba" fill-rule="evenodd" stroke="none"/>
    <path d="M-175.25 -153.7 L-173.7 -154.0 Q-172.85 -154.25 -172.3 -154.9 -171.65 -155.95 -171.55 -156.9 L-171.5 -158.45 Q-170.85 -157.6 -170.85 -156.5 -170.85 -155.1 -171.8 -154.2 -172.8 -153.25 -174.25 -153.2 -175.2 -153.25 -176.0 -153.7 L-175.25 -153.7" fill="#b0aeb3" fill-rule="evenodd" stroke="none"/>
    <path d="M-155.7 -153.4 L-151.2 -158.2 -150.3 -157.5 -154.65 -152.6 -155.7 -153.4" fill="#6b0d0b" fill-rule="evenodd" stroke="none"/>
    <path d="M-149.5 -155.35 L-149.5 -155.2 Q-149.6 -153.9 -150.55 -153.0 -151.5 -152.15 -152.9 -152.1 -153.85 -152.1 -154.65 -152.55 L-154.65 -153.7 -152.15 -155.5 -150.15 -157.6 -149.65 -156.7 -149.5 -156.65 -149.5 -155.45 -149.5 -155.4 -149.5 -155.35" fill="#320d0b" fill-rule="evenodd" stroke="none"/>
    <path d="M-155.75 -153.4 L-155.75 -154.6 -151.25 -159.35 -151.2 -158.2 -155.75 -153.4" fill="#320d0b" fill-rule="evenodd" stroke="none"/>
    <path d="M-156.4 -156.45 L-155.7 -155.0 -155.7 -153.35 -156.3 -154.45 -156.4 -155.1 -156.4 -156.45" fill="#79818b" fill-rule="evenodd" stroke="none"/>
    <path d="M-155.9 -154.95 L-155.45 -156.45 Q-155.0 -157.4 -153.9 -158.2 L-151.4 -159.5 -151.2 -159.35 -155.7 -154.65 -155.9 -154.95" fill="#d0cfd0" fill-rule="evenodd" stroke="none"/>
    <path d="M-156.4 -156.55 Q-156.35 -157.85 -155.35 -158.8 -154.35 -159.8 -153.0 -159.85 -152.15 -159.85 -151.4 -159.45 -152.25 -159.25 -153.9 -158.2 L-155.45 -156.45 -155.9 -154.9 Q-156.4 -155.65 -156.4 -156.55" fill="#e9e9eb" fill-rule="evenodd" stroke="none"/>
    <path d="M-150.9 -154.9 Q-151.45 -154.25 -152.3 -154.0 L-153.9 -153.7 -154.65 -153.7 -150.15 -158.45 -150.15 -156.9 Q-150.2 -155.9 -150.9 -154.9" fill="#bab9ba" fill-rule="evenodd" stroke="none"/>
    <path d="M-153.9 -153.7 L-152.35 -154.0 Q-151.5 -154.25 -150.95 -154.9 -150.3 -155.95 -150.2 -156.9 L-150.15 -158.45 Q-149.5 -157.6 -149.5 -156.5 -149.5 -155.1 -150.45 -154.2 -151.45 -153.25 -152.9 -153.2 L-154.65 -153.7 -153.9 -153.7" fill="#b0aeb3" fill-rule="evenodd" stroke="none"/>
    <path d="M-134.4 -153.4 L-129.9 -158.2 -129.0 -157.5 -133.35 -152.6 -134.4 -153.4" fill="#6b0d0b" fill-rule="evenodd" stroke="none"/>
    <path d="M-128.15 -155.35 L-128.15 -155.2 Q-128.25 -153.9 -129.2 -153.0 -130.15 -152.15 -131.55 -152.1 L-133.3 -152.55 -133.3 -153.7 -130.8 -155.5 -128.8 -157.6 -128.3 -156.7 -128.15 -156.65 -128.15 -155.45 -128.15 -155.4 -128.15 -155.35" fill="#320d0b" fill-rule="evenodd" stroke="none"/>
    <path d="M-134.4 -153.4 L-134.4 -154.6 -129.9 -159.35 -129.85 -158.2 -134.4 -153.4" fill="#320d0b" fill-rule="evenodd" stroke="none"/>
    <path d="M-135.05 -156.45 L-134.35 -155.0 -134.35 -153.35 -134.95 -154.45 -135.05 -155.1 -135.05 -156.45" fill="#79818b" fill-rule="evenodd" stroke="none"/>
    <path d="M-134.55 -154.95 L-134.1 -156.45 Q-133.65 -157.4 -132.55 -158.2 -130.9 -159.3 -130.05 -159.5 L-129.85 -159.35 -134.35 -154.65 -134.55 -154.95" fill="#d0cfd0" fill-rule="evenodd" stroke="none"/>
    <path d="M-135.05 -156.55 Q-135.0 -157.85 -134.0 -158.8 -133.0 -159.8 -131.65 -159.85 L-130.05 -159.45 -132.55 -158.2 -134.1 -156.45 -134.55 -154.9 Q-135.05 -155.65 -135.05 -156.55" fill="#e9e9eb" fill-rule="evenodd" stroke="none"/>
    <path d="M-129.55 -154.9 Q-130.1 -154.25 -130.95 -154.0 L-132.55 -153.7 -133.3 -153.7 -128.8 -158.45 -128.8 -156.9 Q-128.85 -155.9 -129.55 -154.9" fill="#bab9ba" fill-rule="evenodd" stroke="none"/>
    <path d="M-132.55 -153.7 L-131.0 -154.0 Q-130.15 -154.25 -129.6 -154.9 -128.95 -155.95 -128.85 -156.9 L-128.8 -158.45 Q-128.15 -157.6 -128.15 -156.5 -128.15 -155.1 -129.1 -154.2 -130.1 -153.25 -131.55 -153.2 -132.5 -153.25 -133.3 -153.7 L-132.55 -153.7" fill="#b0aeb3" fill-rule="evenodd" stroke="none"/>
    <path d="M-113.05 -153.4 L-108.55 -158.2 -107.65 -157.5 -112.0 -152.6 -113.05 -153.4" fill="#6b0d0b" fill-rule="evenodd" stroke="none"/>
    <path d="M-106.85 -155.35 L-106.85 -155.2 Q-106.95 -153.9 -107.9 -153.0 -108.85 -152.15 -110.25 -152.1 -111.2 -152.1 -112.0 -152.55 L-112.0 -153.7 -109.5 -155.5 -107.5 -157.6 -107.0 -156.7 -106.85 -156.65 -106.85 -155.45 -106.85 -155.4 -106.85 -155.35" fill="#320d0b" fill-rule="evenodd" stroke="none"/>
    <path d="M-113.05 -153.4 L-113.05 -154.6 -108.55 -159.35 -108.5 -158.2 -113.05 -153.4" fill="#320d0b" fill-rule="evenodd" stroke="none"/>
    <path d="M-113.75 -156.45 L-113.05 -155.0 -113.05 -153.35 -113.65 -154.45 -113.75 -155.1 -113.75 -156.45" fill="#79818b" fill-rule="evenodd" stroke="none"/>
    <path d="M-113.25 -154.95 L-112.8 -156.45 Q-112.35 -157.4 -111.25 -158.2 -109.6 -159.3 -108.75 -159.5 L-108.55 -159.35 -113.05 -154.65 -113.25 -154.95" fill="#d0cfd0" fill-rule="evenodd" stroke="none"/>
    <path d="M-113.75 -156.55 Q-113.7 -157.85 -112.7 -158.8 -111.7 -159.8 -110.35 -159.85 -109.5 -159.85 -108.75 -159.45 L-111.25 -158.2 -112.8 -156.45 -113.25 -154.9 Q-113.75 -155.65 -113.75 -156.55" fill="#e9e9eb" fill-rule="evenodd" stroke="none"/>
    <path d="M-108.25 -154.9 Q-108.8 -154.25 -109.65 -154.0 L-111.25 -153.7 -112.0 -153.7 -107.5 -158.45 -107.5 -156.9 Q-107.55 -155.9 -108.25 -154.9" fill="#bab9ba" fill-rule="evenodd" stroke="none"/>
    <path d="M-111.25 -153.7 L-109.7 -154.0 Q-108.85 -154.25 -108.3 -154.9 -107.65 -155.95 -107.55 -156.9 L-107.5 -158.45 Q-106.85 -157.6 -106.85 -156.5 -106.85 -155.1 -107.8 -154.2 -108.8 -153.25 -110.25 -153.2 -111.2 -153.25 -112.0 -153.7 L-111.25 -153.7" fill="#b0aeb3" fill-rule="evenodd" stroke="none"/>
    <path d="M-91.7 -153.4 L-87.2 -158.2 -86.3 -157.5 -90.65 -152.6 -91.7 -153.4" fill="#6b0d0b" fill-rule="evenodd" stroke="none"/>
    <path d="M-85.5 -155.35 L-85.5 -155.2 Q-85.6 -153.9 -86.55 -153.0 -87.5 -152.15 -88.9 -152.1 -89.85 -152.1 -90.65 -152.55 L-90.65 -153.7 -88.15 -155.5 -86.15 -157.6 -85.65 -156.7 -85.5 -156.65 -85.5 -155.45 -85.5 -155.4 -85.5 -155.35" fill="#320d0b" fill-rule="evenodd" stroke="none"/>
    <path d="M-91.7 -153.4 L-91.7 -154.6 -87.2 -159.35 -87.15 -158.2 -91.7 -153.4" fill="#320d0b" fill-rule="evenodd" stroke="none"/>
    <path d="M-92.4 -156.45 L-91.7 -155.0 -91.7 -153.35 -92.3 -154.45 -92.4 -155.1 -92.4 -156.45" fill="#79818b" fill-rule="evenodd" stroke="none"/>
    <path d="M-91.9 -154.95 L-91.45 -156.45 Q-91.0 -157.4 -89.9 -158.2 -88.25 -159.3 -87.4 -159.5 L-87.2 -159.35 -91.7 -154.65 -91.9 -154.95" fill="#d0cfd0" fill-rule="evenodd" stroke="none"/>
    <path d="M-92.4 -156.55 Q-92.35 -157.85 -91.35 -158.8 -90.35 -159.8 -89.0 -159.85 -88.15 -159.85 -87.4 -159.45 -88.25 -159.25 -89.9 -158.2 L-91.45 -156.45 -91.9 -154.9 Q-92.4 -155.65 -92.4 -156.55" fill="#e9e9eb" fill-rule="evenodd" stroke="none"/>
    <path d="M-86.9 -154.9 Q-87.45 -154.25 -88.3 -154.0 L-89.9 -153.7 -90.65 -153.7 -86.15 -158.45 -86.15 -156.9 Q-86.2 -155.9 -86.9 -154.9" fill="#bab9ba" fill-rule="evenodd" stroke="none"/>
    <path d="M-89.9 -153.7 L-88.35 -154.0 Q-87.5 -154.25 -86.95 -154.9 -86.3 -155.95 -86.2 -156.9 L-86.15 -158.45 Q-85.5 -157.6 -85.5 -156.5 -85.5 -155.1 -86.45 -154.2 -87.45 -153.25 -88.9 -153.2 -89.85 -153.25 -90.65 -153.7 L-89.9 -153.7" fill="#b0aeb3" fill-rule="evenodd" stroke="none"/>
    <path d="M-70.35 -153.4 L-65.85 -158.2 -64.95 -157.5 -69.3 -152.6 -70.35 -153.4" fill="#6b0d0b" fill-rule="evenodd" stroke="none"/>
    <path d="M-64.15 -155.35 L-64.15 -155.2 Q-64.25 -153.9 -65.2 -153.0 -66.15 -152.15 -67.55 -152.1 -68.5 -152.1 -69.3 -152.55 L-69.3 -153.7 -66.8 -155.5 -64.8 -157.6 -64.3 -156.7 -64.15 -156.65 -64.15 -155.45 -64.15 -155.4 -64.15 -155.35" fill="#320d0b" fill-rule="evenodd" stroke="none"/>
    <path d="M-70.4 -153.4 L-70.4 -154.6 -65.9 -159.35 -65.85 -158.2 -70.4 -153.4" fill="#320d0b" fill-rule="evenodd" stroke="none"/>
    <path d="M-71.05 -156.45 L-70.35 -155.0 -70.35 -153.35 Q-70.8 -153.85 -70.95 -154.45 L-71.05 -155.1 -71.05 -156.45" fill="#79818b" fill-rule="evenodd" stroke="none"/>
    <path d="M-70.55 -154.95 L-70.1 -156.45 Q-69.65 -157.4 -68.55 -158.2 -66.9 -159.3 -66.05 -159.5 L-65.85 -159.35 -70.35 -154.65 -70.55 -154.95" fill="#d0cfd0" fill-rule="evenodd" stroke="none"/>
    <path d="M-71.05 -156.55 Q-71.0 -157.85 -70.0 -158.8 -69.0 -159.8 -67.65 -159.85 L-66.05 -159.45 -68.55 -158.2 -70.1 -156.45 -70.55 -154.9 Q-71.05 -155.65 -71.05 -156.55" fill="#e9e9eb" fill-rule="evenodd" stroke="none"/>
    <path d="M-65.55 -154.9 Q-66.1 -154.25 -66.95 -154.0 L-68.55 -153.7 -69.3 -153.7 -64.8 -158.45 -64.8 -156.9 Q-64.85 -155.9 -65.55 -154.9" fill="#bab9ba" fill-rule="evenodd" stroke="none"/>
    <path d="M-68.55 -153.7 L-67.0 -154.0 Q-66.15 -154.25 -65.6 -154.9 -64.95 -155.95 -64.85 -156.9 L-64.8 -158.45 Q-64.15 -157.6 -64.15 -156.5 -64.15 -155.1 -65.1 -154.2 -66.1 -153.25 -67.55 -153.2 -68.5 -153.25 -69.3 -153.7 L-68.55 -153.7" fill="#b0aeb3" fill-rule="evenodd" stroke="none"/>
    <path d="M-49.05 -153.4 L-44.55 -158.2 -43.65 -157.5 -48.0 -152.6 -49.05 -153.4" fill="#6b0d0b" fill-rule="evenodd" stroke="none"/>
    <path d="M-42.8 -155.35 L-42.8 -155.2 Q-42.9 -153.9 -43.85 -153.0 -44.8 -152.15 -46.2 -152.1 -47.15 -152.1 -47.95 -152.55 L-47.95 -153.7 -45.45 -155.5 -43.45 -157.6 -42.95 -156.7 -42.8 -156.65 -42.8 -155.45 -42.8 -155.4 -42.8 -155.35" fill="#320d0b" fill-rule="evenodd" stroke="none"/>
    <path d="M-49.05 -153.4 L-49.05 -154.6 -44.55 -159.35 -44.5 -158.2 -49.05 -153.4" fill="#320d0b" fill-rule="evenodd" stroke="none"/>
    <path d="M-49.7 -156.45 L-49.0 -155.0 -49.0 -153.35 -49.6 -154.45 -49.7 -155.1 -49.7 -156.45" fill="#79818b" fill-rule="evenodd" stroke="none"/>
    <path d="M-49.2 -154.95 L-48.75 -156.45 Q-48.3 -157.4 -47.2 -158.2 -45.55 -159.3 -44.7 -159.5 L-44.5 -159.35 -49.0 -154.65 -49.2 -154.95" fill="#d0cfd0" fill-rule="evenodd" stroke="none"/>
    <path d="M-49.7 -156.55 Q-49.65 -157.85 -48.65 -158.8 -47.65 -159.8 -46.3 -159.85 L-44.7 -159.45 Q-45.55 -159.25 -47.2 -158.2 L-48.75 -156.45 -49.2 -154.9 Q-49.7 -155.65 -49.7 -156.55" fill="#e9e9eb" fill-rule="evenodd" stroke="none"/>
    <path d="M-44.2 -154.9 L-45.6 -154.0 -47.2 -153.7 -47.95 -153.7 -43.45 -158.45 -43.45 -156.9 Q-43.5 -155.9 -44.2 -154.9" fill="#bab9ba" fill-rule="evenodd" stroke="none"/>
    <path d="M-47.2 -153.7 L-45.65 -154.0 Q-44.8 -154.25 -44.25 -154.9 -43.6 -155.95 -43.5 -156.9 L-43.45 -158.45 Q-42.8 -157.6 -42.8 -156.5 -42.8 -155.1 -43.75 -154.2 -44.75 -153.25 -46.2 -153.2 -47.15 -153.25 -47.95 -153.7 L-47.2 -153.7" fill="#b0aeb3" fill-rule="evenodd" stroke="none"/>
    <path d="M-27.7 -153.4 L-23.2 -158.2 -22.3 -157.5 -26.65 -152.6 -27.7 -153.4" fill="#6b0d0b" fill-rule="evenodd" stroke="none"/>
    <path d="M-21.5 -155.35 L-21.5 -155.2 Q-21.6 -153.9 -22.55 -153.0 -23.5 -152.15 -24.9 -152.1 -25.85 -152.1 -26.65 -152.55 L-26.65 -153.7 -24.15 -155.5 -22.15 -157.6 -21.65 -156.7 -21.5 -156.65 -21.5 -155.45 -21.5 -155.4 -21.5 -155.35" fill="#320d0b" fill-rule="evenodd" stroke="none"/>
    <path d="M-27.7 -153.4 L-27.7 -154.6 -23.2 -159.35 -23.15 -158.2 -27.7 -153.4" fill="#320d0b" fill-rule="evenodd" stroke="none"/>
    <path d="M-28.4 -156.45 L-27.7 -155.0 -27.7 -153.35 -28.3 -154.45 -28.4 -155.1 -28.4 -156.45" fill="#79818b" fill-rule="evenodd" stroke="none"/>
    <path d="M-27.9 -154.95 L-27.45 -156.45 -25.9 -158.2 Q-24.25 -159.3 -23.4 -159.5 L-23.2 -159.35 -27.7 -154.65 -27.9 -154.95" fill="#d0cfd0" fill-rule="evenodd" stroke="none"/>
    <path d="M-28.4 -156.55 Q-28.35 -157.85 -27.35 -158.8 -26.35 -159.8 -25.0 -159.85 -24.15 -159.85 -23.4 -159.45 -24.25 -159.25 -25.9 -158.2 L-27.45 -156.45 -27.9 -154.9 Q-28.4 -155.65 -28.4 -156.55" fill="#e9e9eb" fill-rule="evenodd" stroke="none"/>
    <path d="M-22.9 -154.9 Q-23.45 -154.25 -24.3 -154.0 L-25.9 -153.7 -26.65 -153.7 -22.15 -158.45 -22.15 -156.9 Q-22.2 -155.9 -22.9 -154.9" fill="#bab9ba" fill-rule="evenodd" stroke="none"/>
    <path d="M-25.9 -153.7 L-24.35 -154.0 Q-23.5 -154.25 -22.95 -154.9 -22.3 -155.95 -22.2 -156.9 L-22.15 -158.45 Q-21.5 -157.6 -21.5 -156.5 -21.5 -155.1 -22.45 -154.2 -23.45 -153.25 -24.9 -153.2 -25.85 -153.25 -26.65 -153.7 L-25.9 -153.7" fill="#b0aeb3" fill-rule="evenodd" stroke="none"/>
    <path d="M-6.35 -153.4 L-1.85 -158.2 -0.95 -157.5 -5.3 -152.6 -6.35 -153.4" fill="#6b0d0b" fill-rule="evenodd" stroke="none"/>
    <path d="M-0.15 -155.35 L-0.15 -155.2 Q-0.25 -153.9 -1.2 -153.0 -2.15 -152.15 -3.55 -152.1 -4.5 -152.1 -5.3 -152.55 L-5.3 -153.7 -2.8 -155.5 -0.8 -157.6 -0.3 -156.7 -0.15 -156.65 -0.15 -155.45 -0.15 -155.4 -0.15 -155.35" fill="#320d0b" fill-rule="evenodd" stroke="none"/>
    <path d="M-6.35 -153.4 L-6.35 -154.6 -1.85 -159.35 -1.8 -158.2 -6.35 -153.4" fill="#320d0b" fill-rule="evenodd" stroke="none"/>
    <path d="M-7.05 -156.45 L-6.35 -155.0 -6.35 -153.35 -6.95 -154.45 -7.05 -155.1 -7.05 -156.45" fill="#79818b" fill-rule="evenodd" stroke="none"/>
    <path d="M-6.55 -154.95 L-6.1 -156.45 -4.55 -158.2 Q-2.9 -159.3 -2.05 -159.5 L-1.85 -159.35 -6.35 -154.65 -6.55 -154.95" fill="#d0cfd0" fill-rule="evenodd" stroke="none"/>
    <path d="M-7.05 -156.55 Q-7.0 -157.85 -6.0 -158.8 -5.0 -159.8 -3.65 -159.85 L-2.05 -159.45 -4.55 -158.2 -6.1 -156.45 -6.55 -154.9 Q-7.05 -155.65 -7.05 -156.55" fill="#e9e9eb" fill-rule="evenodd" stroke="none"/>
    <path d="M-1.55 -154.9 Q-2.1 -154.25 -2.95 -154.0 L-4.55 -153.7 -5.3 -153.7 -0.8 -158.45 -0.8 -156.9 Q-0.85 -155.9 -1.55 -154.9" fill="#bab9ba" fill-rule="evenodd" stroke="none"/>
    <path d="M-4.55 -153.7 L-3.0 -154.0 Q-2.15 -154.25 -1.6 -154.9 -0.95 -155.95 -0.85 -156.9 L-0.8 -158.45 Q-0.15 -157.6 -0.15 -156.5 -0.15 -155.1 -1.1 -154.2 -2.1 -153.25 -3.55 -153.2 -4.5 -153.25 -5.3 -153.7 L-4.55 -153.7" fill="#b0aeb3" fill-rule="evenodd" stroke="none"/>
    <path d="M15.0 -153.4 L19.55 -158.2 20.4 -157.5 16.05 -152.6 15.0 -153.4" fill="#6b0d0b" fill-rule="evenodd" stroke="none"/>
    <path d="M21.2 -155.35 L21.2 -155.2 Q21.1 -153.9 20.15 -153.0 19.2 -152.15 17.8 -152.1 16.85 -152.1 16.05 -152.55 L16.05 -153.7 18.55 -155.5 20.55 -157.6 21.05 -156.7 21.2 -156.65 21.2 -155.45 21.2 -155.4 21.2 -155.35" fill="#320d0b" fill-rule="evenodd" stroke="none"/>
    <path d="M14.95 -153.4 L14.95 -154.6 19.45 -159.35 19.5 -158.2 14.95 -153.4" fill="#320d0b" fill-rule="evenodd" stroke="none"/>
    <path d="M14.3 -156.45 L15.0 -155.0 15.0 -153.35 Q14.55 -153.85 14.4 -154.45 L14.3 -155.1 14.3 -156.45" fill="#79818b" fill-rule="evenodd" stroke="none"/>
    <path d="M14.8 -154.95 Q14.85 -155.55 15.25 -156.45 15.7 -157.4 16.8 -158.2 18.45 -159.3 19.3 -159.5 L19.5 -159.35 15.0 -154.65 14.8 -154.95" fill="#d0cfd0" fill-rule="evenodd" stroke="none"/>
    <path d="M14.3 -156.55 Q14.35 -157.85 15.35 -158.8 16.35 -159.8 17.7 -159.85 L19.3 -159.45 Q18.45 -159.25 16.8 -158.2 15.7 -157.35 15.25 -156.45 14.85 -155.5 14.8 -154.9 14.3 -155.65 14.3 -156.55" fill="#e9e9eb" fill-rule="evenodd" stroke="none"/>
    <path d="M19.8 -154.9 Q19.25 -154.25 18.4 -154.0 L16.8 -153.7 16.05 -153.7 20.55 -158.45 20.55 -156.9 Q20.5 -155.9 19.8 -154.9" fill="#bab9ba" fill-rule="evenodd" stroke="none"/>
    <path d="M16.8 -153.7 L18.35 -154.0 19.75 -154.9 Q20.4 -155.95 20.5 -156.9 L20.55 -158.45 Q21.2 -157.6 21.2 -156.5 21.2 -155.1 20.25 -154.2 19.25 -153.25 17.8 -153.2 16.85 -153.25 16.05 -153.7 L16.8 -153.7" fill="#b0aeb3" fill-rule="evenodd" stroke="none"/>
    <path d="M36.3 -153.4 L40.8 -158.2 41.7 -157.5 37.35 -152.6 36.3 -153.4" fill="#6b0d0b" fill-rule="evenodd" stroke="none"/>
    <path d="M42.55 -155.35 L42.55 -155.2 Q42.45 -153.9 41.5 -153.0 40.55 -152.15 39.15 -152.1 38.2 -152.1 37.4 -152.55 L37.4 -153.7 39.9 -155.5 41.9 -157.6 42.4 -156.7 42.55 -156.65 42.55 -155.45 42.55 -155.4 42.55 -155.35" fill="#320d0b" fill-rule="evenodd" stroke="none"/>
    <path d="M36.3 -153.4 L36.3 -154.6 40.85 -159.35 40.85 -158.2 36.3 -153.4" fill="#320d0b" fill-rule="evenodd" stroke="none"/>
    <path d="M35.65 -156.45 L36.35 -155.0 36.35 -153.35 Q35.9 -153.85 35.75 -154.45 L35.65 -155.1 35.65 -156.45" fill="#79818b" fill-rule="evenodd" stroke="none"/>
    <path d="M36.15 -154.95 Q36.2 -155.55 36.6 -156.45 37.05 -157.4 38.15 -158.2 39.8 -159.3 40.65 -159.5 L40.85 -159.35 36.35 -154.65 36.15 -154.95" fill="#d0cfd0" fill-rule="evenodd" stroke="none"/>
    <path d="M35.65 -156.55 Q35.7 -157.85 36.7 -158.8 37.7 -159.8 39.05 -159.85 39.9 -159.85 40.65 -159.45 L38.15 -158.2 Q37.05 -157.35 36.6 -156.45 L36.15 -154.9 Q35.65 -155.65 35.65 -156.55" fill="#e9e9eb" fill-rule="evenodd" stroke="none"/>
    <path d="M41.15 -154.9 Q40.6 -154.25 39.75 -154.0 L38.15 -153.7 37.4 -153.7 41.9 -158.45 41.9 -156.9 Q41.85 -155.9 41.15 -154.9" fill="#bab9ba" fill-rule="evenodd" stroke="none"/>
    <path d="M38.15 -153.7 L39.7 -154.0 Q40.55 -154.25 41.1 -154.9 41.75 -155.95 41.85 -156.9 L41.9 -158.45 Q42.55 -157.6 42.55 -156.5 42.55 -155.1 41.6 -154.2 40.6 -153.25 39.15 -153.2 38.2 -153.25 37.4 -153.7 L38.15 -153.7" fill="#b0aeb3" fill-rule="evenodd" stroke="none"/>
    <path d="M57.65 -153.4 L62.15 -158.2 63.05 -157.5 58.7 -152.6 57.65 -153.4" fill="#6b0d0b" fill-rule="evenodd" stroke="none"/>
    <path d="M63.85 -155.35 L63.85 -155.2 Q63.75 -153.9 62.8 -153.0 61.85 -152.15 60.45 -152.1 59.5 -152.1 58.7 -152.55 L58.7 -153.7 61.2 -155.5 63.2 -157.6 63.7 -156.7 63.85 -156.65 63.85 -155.45 63.85 -155.4 63.85 -155.35" fill="#320d0b" fill-rule="evenodd" stroke="none"/>
    <path d="M57.65 -153.4 L57.65 -154.6 62.15 -159.35 62.2 -158.2 57.65 -153.4" fill="#320d0b" fill-rule="evenodd" stroke="none"/>
    <path d="M56.95 -156.45 L57.65 -155.0 57.65 -153.35 Q57.2 -153.85 57.05 -154.45 L56.95 -155.1 56.95 -156.45" fill="#79818b" fill-rule="evenodd" stroke="none"/>
    <path d="M57.45 -154.95 Q57.5 -155.55 57.9 -156.45 58.35 -157.4 59.45 -158.2 61.1 -159.3 61.95 -159.5 L62.15 -159.35 57.65 -154.65 57.45 -154.95" fill="#d0cfd0" fill-rule="evenodd" stroke="none"/>
    <path d="M56.95 -156.55 Q57.0 -157.85 58.0 -158.8 59.0 -159.8 60.35 -159.85 L61.95 -159.45 59.45 -158.2 57.9 -156.45 Q57.5 -155.5 57.45 -154.9 56.95 -155.65 56.95 -156.55" fill="#e9e9eb" fill-rule="evenodd" stroke="none"/>
    <path d="M62.45 -154.9 Q61.9 -154.25 61.05 -154.0 L59.45 -153.7 58.7 -153.7 63.2 -158.45 63.2 -156.9 Q63.15 -155.9 62.45 -154.9" fill="#bab9ba" fill-rule="evenodd" stroke="none"/>
    <path d="M59.45 -153.7 L61.0 -154.0 62.4 -154.9 Q63.05 -155.95 63.15 -156.9 L63.2 -158.45 Q63.85 -157.6 63.85 -156.5 63.85 -155.1 62.9 -154.2 61.9 -153.25 60.45 -153.2 59.5 -153.25 58.7 -153.7 L59.45 -153.7" fill="#b0aeb3" fill-rule="evenodd" stroke="none"/>
    <path d="M79.0 -153.4 L83.55 -158.2 84.4 -157.5 80.05 -152.6 79.0 -153.4" fill="#6b0d0b" fill-rule="evenodd" stroke="none"/>
    <path d="M85.2 -155.35 L85.2 -155.2 Q85.1 -153.9 84.15 -153.0 83.2 -152.15 81.8 -152.1 80.85 -152.1 80.05 -152.55 L80.05 -153.7 82.55 -155.5 84.55 -157.6 85.05 -156.7 85.2 -156.65 85.2 -155.45 85.2 -155.4 85.2 -155.35" fill="#320d0b" fill-rule="evenodd" stroke="none"/>
    <path d="M79.0 -153.4 L79.0 -154.6 83.5 -159.35 83.55 -158.2 79.0 -153.4" fill="#320d0b" fill-rule="evenodd" stroke="none"/>
    <path d="M78.3 -156.45 L79.0 -155.0 79.0 -153.35 Q78.55 -153.85 78.4 -154.45 L78.3 -155.1 78.3 -156.45" fill="#79818b" fill-rule="evenodd" stroke="none"/>
    <path d="M78.8 -154.95 Q78.85 -155.55 79.25 -156.45 79.7 -157.4 80.8 -158.2 L83.3 -159.5 83.5 -159.35 79.0 -154.65 78.8 -154.95" fill="#d0cfd0" fill-rule="evenodd" stroke="none"/>
    <path d="M78.3 -156.55 Q78.35 -157.85 79.35 -158.8 80.35 -159.8 81.7 -159.85 L83.3 -159.45 Q82.45 -159.25 80.8 -158.2 79.7 -157.35 79.25 -156.45 L78.8 -154.9 Q78.3 -155.65 78.3 -156.55" fill="#e9e9eb" fill-rule="evenodd" stroke="none"/>
    <path d="M83.8 -154.9 Q83.25 -154.25 82.4 -154.0 L80.8 -153.7 80.05 -153.7 84.55 -158.45 84.55 -156.9 Q84.5 -155.9 83.8 -154.9" fill="#bab9ba" fill-rule="evenodd" stroke="none"/>
    <path d="M80.8 -153.7 L82.35 -154.0 83.75 -154.9 Q84.4 -155.95 84.5 -156.9 L84.55 -158.45 Q85.2 -157.6 85.2 -156.5 85.2 -155.1 84.25 -154.2 83.25 -153.25 81.8 -153.2 80.85 -153.25 80.05 -153.7 L80.8 -153.7" fill="#b0aeb3" fill-rule="evenodd" stroke="none"/>
    <path d="M100.3 -153.4 L104.8 -158.2 105.7 -157.5 101.35 -152.6 100.3 -153.4" fill="#6b0d0b" fill-rule="evenodd" stroke="none"/>
    <path d="M106.55 -155.35 L106.55 -155.2 Q106.45 -153.9 105.5 -153.0 104.55 -152.15 103.15 -152.1 102.2 -152.1 101.4 -152.55 L101.4 -153.7 103.9 -155.5 105.9 -157.6 106.4 -156.7 106.55 -156.65 106.55 -155.45 106.55 -155.4 106.55 -155.35" fill="#320d0b" fill-rule="evenodd" stroke="none"/>
    <path d="M100.3 -153.4 L100.3 -154.6 104.8 -159.35 104.85 -158.2 100.3 -153.4" fill="#320d0b" fill-rule="evenodd" stroke="none"/>
    <path d="M99.65 -156.45 L100.35 -155.0 100.35 -153.35 Q99.9 -153.85 99.75 -154.45 L99.65 -155.1 99.65 -156.45" fill="#79818b" fill-rule="evenodd" stroke="none"/>
    <path d="M100.15 -154.95 Q100.2 -155.55 100.6 -156.45 101.05 -157.4 102.15 -158.2 103.8 -159.3 104.65 -159.5 L104.85 -159.35 100.35 -154.65 100.15 -154.95" fill="#d0cfd0" fill-rule="evenodd" stroke="none"/>
    <path d="M99.65 -156.55 Q99.7 -157.85 100.7 -158.8 101.7 -159.8 103.05 -159.85 103.9 -159.85 104.65 -159.45 L102.15 -158.2 Q101.05 -157.35 100.6 -156.45 100.2 -155.5 100.15 -154.9 99.65 -155.65 99.65 -156.55" fill="#e9e9eb" fill-rule="evenodd" stroke="none"/>
    <path d="M105.15 -154.9 L103.75 -154.0 102.15 -153.7 101.4 -153.7 105.9 -158.45 105.9 -156.9 Q105.85 -155.9 105.15 -154.9" fill="#bab9ba" fill-rule="evenodd" stroke="none"/>
    <path d="M102.15 -153.7 L103.7 -154.0 Q104.55 -154.25 105.1 -154.9 105.75 -155.95 105.85 -156.9 L105.9 -158.45 Q106.55 -157.6 106.55 -156.5 106.55 -155.1 105.6 -154.2 104.6 -153.25 103.15 -153.2 102.2 -153.25 101.4 -153.7 L102.15 -153.7" fill="#b0aeb3" fill-rule="evenodd" stroke="none"/>
    <path d="M121.65 -153.4 L126.15 -158.2 127.05 -157.5 122.7 -152.6 121.65 -153.4" fill="#6b0d0b" fill-rule="evenodd" stroke="none"/>
    <path d="M127.9 -155.35 L127.9 -155.2 Q127.8 -153.9 126.85 -153.0 125.9 -152.15 124.5 -152.1 123.55 -152.1 122.75 -152.55 L122.75 -153.7 125.25 -155.5 127.25 -157.6 127.75 -156.7 127.9 -156.65 127.9 -155.45 127.9 -155.4 127.9 -155.35" fill="#320d0b" fill-rule="evenodd" stroke="none"/>
    <path d="M121.65 -153.4 L121.65 -154.6 126.15 -159.35 126.2 -158.2 121.65 -153.4" fill="#320d0b" fill-rule="evenodd" stroke="none"/>
    <path d="M121.0 -156.45 L121.7 -155.0 121.7 -153.35 Q121.25 -153.85 121.1 -154.45 L121.0 -155.1 121.0 -156.45" fill="#79818b" fill-rule="evenodd" stroke="none"/>
    <path d="M121.5 -154.95 Q121.55 -155.55 121.95 -156.45 122.4 -157.4 123.5 -158.2 125.15 -159.3 126.0 -159.5 L126.2 -159.35 121.7 -154.65 121.5 -154.95" fill="#d0cfd0" fill-rule="evenodd" stroke="none"/>
    <path d="M120.95 -156.55 Q121.0 -157.85 122.0 -158.8 123.0 -159.8 124.35 -159.85 L125.95 -159.45 123.45 -158.2 Q122.35 -157.35 121.9 -156.45 121.5 -155.5 121.45 -154.9 120.95 -155.65 120.95 -156.55" fill="#e9e9eb" fill-rule="evenodd" stroke="none"/>
    <path d="M126.5 -154.9 Q125.95 -154.25 125.1 -154.0 L123.5 -153.7 122.75 -153.7 127.25 -158.45 127.25 -156.9 Q127.2 -155.9 126.5 -154.9" fill="#bab9ba" fill-rule="evenodd" stroke="none"/>
    <path d="M123.5 -153.7 L125.05 -154.0 Q125.9 -154.25 126.45 -154.9 127.1 -155.95 127.2 -156.9 L127.25 -158.45 Q127.9 -157.6 127.9 -156.5 127.9 -155.1 126.95 -154.2 125.95 -153.25 124.5 -153.2 123.55 -153.25 122.75 -153.7 L123.5 -153.7" fill="#b0aeb3" fill-rule="evenodd" stroke="none"/>
    <path d="M143.0 -153.4 L147.5 -158.2 148.4 -157.5 144.05 -152.6 143.0 -153.4" fill="#6b0d0b" fill-rule="evenodd" stroke="none"/>
    <path d="M149.2 -155.35 L149.2 -155.2 Q149.1 -153.9 148.15 -153.0 147.2 -152.15 145.8 -152.1 144.85 -152.1 144.05 -152.55 L144.05 -153.7 146.55 -155.5 148.55 -157.6 149.05 -156.7 149.2 -156.65 149.2 -155.45 149.2 -155.4 149.2 -155.35" fill="#320d0b" fill-rule="evenodd" stroke="none"/>
    <path d="M143.0 -153.4 L143.0 -154.6 147.55 -159.35 147.55 -158.2 143.0 -153.4" fill="#320d0b" fill-rule="evenodd" stroke="none"/>
    <path d="M142.3 -156.45 L143.0 -155.0 143.0 -153.35 Q142.55 -153.85 142.4 -154.45 L142.3 -155.1 142.3 -156.45" fill="#79818b" fill-rule="evenodd" stroke="none"/>
    <path d="M142.8 -154.95 Q142.85 -155.55 143.25 -156.45 143.7 -157.4 144.8 -158.2 146.45 -159.3 147.3 -159.5 L147.5 -159.35 143.0 -154.65 142.8 -154.95" fill="#d0cfd0" fill-rule="evenodd" stroke="none"/>
    <path d="M142.3 -156.55 Q142.35 -157.85 143.35 -158.8 144.35 -159.8 145.7 -159.85 L147.3 -159.45 Q146.45 -159.25 144.8 -158.2 143.7 -157.35 143.25 -156.45 142.85 -155.5 142.8 -154.9 142.3 -155.65 142.3 -156.55" fill="#e9e9eb" fill-rule="evenodd" stroke="none"/>
    <path d="M147.8 -154.9 Q147.25 -154.25 146.4 -154.0 L144.8 -153.7 144.05 -153.7 148.55 -158.45 148.55 -156.9 Q148.5 -155.9 147.8 -154.9" fill="#bab9ba" fill-rule="evenodd" stroke="none"/>
    <path d="M144.8 -153.7 L146.35 -154.0 147.75 -154.9 Q148.4 -155.95 148.5 -156.9 L148.55 -158.45 Q149.2 -157.6 149.2 -156.5 149.2 -155.1 148.25 -154.2 147.25 -153.25 145.8 -153.2 144.85 -153.25 144.05 -153.7 L144.8 -153.7" fill="#b0aeb3" fill-rule="evenodd" stroke="none"/>
    <path d="M164.35 -153.4 L168.85 -158.2 169.75 -157.5 165.4 -152.6 164.35 -153.4" fill="#6b0d0b" fill-rule="evenodd" stroke="none"/>
    <path d="M170.55 -155.35 L170.55 -155.2 Q170.45 -153.9 169.5 -153.0 168.55 -152.15 167.15 -152.1 166.2 -152.1 165.4 -152.55 L165.4 -153.7 167.9 -155.5 169.9 -157.6 170.4 -156.7 170.55 -156.65 170.55 -155.45 170.55 -155.4 170.55 -155.35" fill="#320d0b" fill-rule="evenodd" stroke="none"/>
    <path d="M164.35 -153.4 L164.35 -154.6 168.85 -159.35 168.9 -158.2 164.35 -153.4" fill="#320d0b" fill-rule="evenodd" stroke="none"/>
    <path d="M163.65 -156.45 L164.35 -155.0 164.35 -153.35 Q163.9 -153.85 163.75 -154.45 L163.65 -155.1 163.65 -156.45" fill="#79818b" fill-rule="evenodd" stroke="none"/>
    <path d="M164.15 -154.95 Q164.2 -155.55 164.6 -156.45 165.05 -157.4 166.15 -158.2 167.8 -159.3 168.65 -159.5 L168.85 -159.35 164.35 -154.65 164.15 -154.95" fill="#d0cfd0" fill-rule="evenodd" stroke="none"/>
    <path d="M163.65 -156.55 Q163.7 -157.85 164.7 -158.8 165.7 -159.8 167.05 -159.85 167.9 -159.85 168.65 -159.45 L166.15 -158.2 Q165.05 -157.35 164.6 -156.45 164.2 -155.5 164.15 -154.9 163.65 -155.65 163.65 -156.55" fill="#e9e9eb" fill-rule="evenodd" stroke="none"/>
    <path d="M169.15 -154.9 L167.75 -154.0 166.15 -153.7 165.4 -153.7 169.9 -158.45 169.9 -156.9 Q169.85 -155.9 169.15 -154.9" fill="#bab9ba" fill-rule="evenodd" stroke="none"/>
    <path d="M166.15 -153.7 L167.7 -154.0 Q168.55 -154.25 169.1 -154.9 169.75 -155.95 169.85 -156.9 L169.9 -158.45 Q170.55 -157.6 170.55 -156.5 170.55 -155.1 169.6 -154.2 168.6 -153.25 167.15 -153.2 166.2 -153.25 165.4 -153.7 L166.15 -153.7" fill="#b0aeb3" fill-rule="evenodd" stroke="none"/>
    <path d="M185.65 -153.4 L190.2 -158.2 191.05 -157.5 186.7 -152.6 185.65 -153.4" fill="#6b0d0b" fill-rule="evenodd" stroke="none"/>
    <path d="M191.9 -155.35 L191.9 -155.2 Q191.8 -153.9 190.85 -153.0 189.9 -152.15 188.5 -152.1 187.55 -152.1 186.75 -152.55 L186.75 -153.7 189.25 -155.5 191.25 -157.6 191.75 -156.7 191.9 -156.65 191.9 -155.45 191.9 -155.4 191.9 -155.35" fill="#320d0b" fill-rule="evenodd" stroke="none"/>
    <path d="M185.65 -153.4 L185.65 -154.6 190.15 -159.35 190.2 -158.2 185.65 -153.4" fill="#320d0b" fill-rule="evenodd" stroke="none"/>
    <path d="M185.0 -156.45 L185.7 -155.0 185.7 -153.35 Q185.25 -153.85 185.1 -154.45 L185.0 -155.1 185.0 -156.45" fill="#79818b" fill-rule="evenodd" stroke="none"/>
    <path d="M185.5 -154.95 Q185.55 -155.55 185.95 -156.45 186.4 -157.4 187.5 -158.2 189.15 -159.3 190.0 -159.5 L190.2 -159.35 185.7 -154.65 185.5 -154.95" fill="#d0cfd0" fill-rule="evenodd" stroke="none"/>
    <path d="M185.0 -156.55 Q185.05 -157.85 186.05 -158.8 187.05 -159.8 188.4 -159.85 L190.0 -159.45 Q189.15 -159.25 187.5 -158.2 186.4 -157.35 185.95 -156.45 185.55 -155.5 185.5 -154.9 185.0 -155.65 185.0 -156.55" fill="#e9e9eb" fill-rule="evenodd" stroke="none"/>
    <path d="M190.5 -154.9 Q189.95 -154.25 189.1 -154.0 L187.5 -153.7 186.75 -153.7 191.25 -158.45 191.25 -156.9 Q191.2 -155.9 190.5 -154.9" fill="#bab9ba" fill-rule="evenodd" stroke="none"/>
    <path d="M187.5 -153.7 L189.05 -154.0 Q189.9 -154.25 190.45 -154.9 191.1 -155.95 191.2 -156.9 L191.25 -158.45 Q191.9 -157.6 191.9 -156.5 191.9 -155.1 190.95 -154.2 189.95 -153.25 188.5 -153.2 187.55 -153.25 186.75 -153.7 L187.5 -153.7" fill="#b0aeb3" fill-rule="evenodd" stroke="none"/>
    <path d="M207.0 -153.4 L211.5 -158.2 212.4 -157.5 208.05 -152.6 207.0 -153.4" fill="#6b0d0b" fill-rule="evenodd" stroke="none"/>
    <path d="M213.25 -155.35 L213.25 -155.2 Q213.15 -153.9 212.2 -153.0 211.25 -152.15 209.85 -152.1 208.9 -152.1 208.1 -152.55 L208.1 -153.7 210.6 -155.5 212.6 -157.6 213.1 -156.7 213.25 -156.65 213.25 -155.45 213.25 -155.4 213.25 -155.35" fill="#320d0b" fill-rule="evenodd" stroke="none"/>
    <path d="M207.0 -153.4 L207.0 -154.6 211.55 -159.35 211.55 -158.2 207.0 -153.4" fill="#320d0b" fill-rule="evenodd" stroke="none"/>
    <path d="M206.35 -156.45 L207.05 -155.0 207.05 -153.35 Q206.6 -153.85 206.45 -154.45 L206.35 -155.1 206.35 -156.45" fill="#79818b" fill-rule="evenodd" stroke="none"/>
    <path d="M206.8 -154.95 Q206.85 -155.55 207.25 -156.45 207.7 -157.4 208.8 -158.2 L211.3 -159.5 211.5 -159.35 207.0 -154.65 206.8 -154.95" fill="#d0cfd0" fill-rule="evenodd" stroke="none"/>
    <path d="M206.3 -156.55 Q206.35 -157.85 207.35 -158.8 208.35 -159.8 209.7 -159.85 L211.3 -159.45 Q210.45 -159.25 208.8 -158.2 207.7 -157.35 207.25 -156.45 L206.8 -154.9 Q206.3 -155.65 206.3 -156.55" fill="#e9e9eb" fill-rule="evenodd" stroke="none"/>
    <path d="M211.85 -154.9 Q211.3 -154.25 210.45 -154.0 L208.85 -153.7 208.1 -153.7 212.6 -158.45 212.6 -156.9 Q212.55 -155.9 211.85 -154.9" fill="#bab9ba" fill-rule="evenodd" stroke="none"/>
    <path d="M208.85 -153.7 L210.4 -154.0 211.8 -154.9 Q212.45 -155.95 212.55 -156.9 L212.6 -158.45 Q213.25 -157.6 213.25 -156.5 213.25 -155.1 212.3 -154.2 211.3 -153.25 209.85 -153.2 208.9 -153.25 208.1 -153.7 L208.85 -153.7" fill="#b0aeb3" fill-rule="evenodd" stroke="none"/>
    <path d="M228.35 -153.4 L232.85 -158.2 233.75 -157.5 229.4 -152.6 228.35 -153.4" fill="#6b0d0b" fill-rule="evenodd" stroke="none"/>
    <path d="M234.55 -155.35 L234.55 -155.2 Q234.45 -153.9 233.5 -153.0 232.55 -152.15 231.15 -152.1 230.2 -152.1 229.4 -152.55 L229.4 -153.7 231.9 -155.5 233.9 -157.6 234.4 -156.7 234.55 -156.65 234.55 -155.45 234.55 -155.4 234.55 -155.35" fill="#320d0b" fill-rule="evenodd" stroke="none"/>
    <path d="M228.35 -153.4 L228.35 -154.6 232.9 -159.35 232.9 -158.2 228.35 -153.4" fill="#320d0b" fill-rule="evenodd" stroke="none"/>
    <path d="M227.65 -156.45 L228.35 -155.0 228.35 -153.35 Q227.9 -153.85 227.75 -154.45 L227.65 -155.1 227.65 -156.45" fill="#79818b" fill-rule="evenodd" stroke="none"/>
    <path d="M228.15 -154.95 Q228.2 -155.55 228.6 -156.45 229.05 -157.4 230.15 -158.2 231.8 -159.3 232.65 -159.5 L232.85 -159.35 228.35 -154.65 228.15 -154.95" fill="#d0cfd0" fill-rule="evenodd" stroke="none"/>
    <path d="M227.65 -156.55 Q227.7 -157.85 228.7 -158.8 229.7 -159.8 231.05 -159.85 231.9 -159.85 232.65 -159.45 L230.15 -158.2 Q229.05 -157.35 228.6 -156.45 228.2 -155.5 228.15 -154.9 227.65 -155.65 227.65 -156.55" fill="#e9e9eb" fill-rule="evenodd" stroke="none"/>
    <path d="M233.15 -154.9 L231.75 -154.0 230.15 -153.7 229.4 -153.7 233.9 -158.45 233.9 -156.9 Q233.85 -155.9 233.15 -154.9" fill="#bab9ba" fill-rule="evenodd" stroke="none"/>
    <path d="M230.15 -153.7 L231.7 -154.0 Q232.55 -154.25 233.1 -154.9 233.75 -155.95 233.85 -156.9 L233.9 -158.45 Q234.55 -157.6 234.55 -156.5 234.55 -155.1 233.6 -154.2 232.6 -153.25 231.15 -153.2 230.2 -153.25 229.4 -153.7 L230.15 -153.7" fill="#b0aeb3" fill-rule="evenodd" stroke="none"/>
    <path d="M249.7 -153.4 L254.2 -158.2 255.1 -157.5 250.75 -152.6 249.7 -153.4" fill="#6b0d0b" fill-rule="evenodd" stroke="none"/>
    <path d="M255.9 -155.35 L255.9 -155.2 Q255.8 -153.9 254.85 -153.0 253.9 -152.15 252.5 -152.1 251.55 -152.1 250.75 -152.55 L250.75 -153.7 253.25 -155.5 255.25 -157.6 255.75 -156.7 255.9 -156.65 255.9 -155.45 255.9 -155.4 255.9 -155.35" fill="#320d0b" fill-rule="evenodd" stroke="none"/>
    <path d="M249.7 -153.4 L249.7 -154.6 254.2 -159.35 254.25 -158.2 249.7 -153.4" fill="#320d0b" fill-rule="evenodd" stroke="none"/>
    <path d="M249.0 -156.45 L249.7 -155.0 249.7 -153.35 Q249.25 -153.85 249.1 -154.45 L249.0 -155.1 249.0 -156.45" fill="#79818b" fill-rule="evenodd" stroke="none"/>
    <path d="M249.5 -154.95 Q249.55 -155.55 249.95 -156.45 250.4 -157.4 251.5 -158.2 253.15 -159.3 254.0 -159.5 L254.2 -159.35 249.7 -154.65 249.5 -154.95" fill="#d0cfd0" fill-rule="evenodd" stroke="none"/>
    <path d="M249.0 -156.55 Q249.05 -157.85 250.05 -158.8 251.05 -159.8 252.4 -159.85 L254.0 -159.45 Q253.15 -159.25 251.5 -158.2 250.4 -157.35 249.95 -156.45 249.55 -155.5 249.5 -154.9 249.0 -155.65 249.0 -156.55" fill="#e9e9eb" fill-rule="evenodd" stroke="none"/>
    <path d="M254.5 -154.9 Q253.95 -154.25 253.1 -154.0 L251.5 -153.7 250.75 -153.7 255.25 -158.45 255.25 -156.9 Q255.2 -155.9 254.5 -154.9" fill="#bab9ba" fill-rule="evenodd" stroke="none"/>
    <path d="M251.5 -153.7 L253.05 -154.0 Q253.9 -154.25 254.45 -154.9 255.1 -155.95 255.2 -156.9 L255.25 -158.45 Q255.9 -157.6 255.9 -156.5 255.9 -155.1 254.95 -154.2 253.95 -153.25 252.5 -153.2 251.55 -153.25 250.75 -153.7 L251.5 -153.7" fill="#b0aeb3" fill-rule="evenodd" stroke="none"/>
    <path d="M271.0 -153.4 L275.55 -158.2 276.4 -157.5 272.05 -152.6 271.0 -153.4" fill="#6b0d0b" fill-rule="evenodd" stroke="none"/>
    <path d="M277.25 -155.35 L277.25 -155.2 Q277.15 -153.9 276.2 -153.0 275.25 -152.15 273.85 -152.1 272.9 -152.1 272.1 -152.55 L272.1 -153.7 274.6 -155.5 276.6 -157.6 277.1 -156.7 277.25 -156.65 277.25 -155.45 277.25 -155.4 277.25 -155.35" fill="#320d0b" fill-rule="evenodd" stroke="none"/>
    <path d="M271.0 -153.4 L271.0 -154.6 275.5 -159.35 275.55 -158.2 271.0 -153.4" fill="#320d0b" fill-rule="evenodd" stroke="none"/>
    <path d="M270.35 -156.45 L271.05 -155.0 271.05 -153.35 Q270.6 -153.85 270.45 -154.45 L270.35 -155.1 270.35 -156.45" fill="#79818b" fill-rule="evenodd" stroke="none"/>
    <path d="M270.85 -154.95 Q270.9 -155.55 271.3 -156.45 271.75 -157.4 272.85 -158.2 274.5 -159.3 275.35 -159.5 L275.55 -159.35 271.05 -154.65 270.85 -154.95" fill="#d0cfd0" fill-rule="evenodd" stroke="none"/>
    <path d="M270.35 -156.55 Q270.4 -157.85 271.4 -158.8 272.4 -159.8 273.75 -159.85 L275.35 -159.45 272.85 -158.2 Q271.75 -157.35 271.3 -156.45 270.9 -155.5 270.85 -154.9 270.35 -155.65 270.35 -156.55" fill="#e9e9eb" fill-rule="evenodd" stroke="none"/>
    <path d="M275.85 -154.9 Q275.3 -154.25 274.45 -154.0 L272.85 -153.7 272.1 -153.7 276.6 -158.45 276.6 -156.9 Q276.55 -155.9 275.85 -154.9" fill="#bab9ba" fill-rule="evenodd" stroke="none"/>
    <path d="M272.85 -153.7 L274.4 -154.0 275.8 -154.9 Q276.45 -155.95 276.55 -156.9 L276.6 -158.45 Q277.25 -157.6 277.25 -156.5 277.25 -155.1 276.3 -154.2 275.3 -153.25 273.85 -153.2 272.9 -153.25 272.1 -153.7 L272.85 -153.7" fill="#b0aeb3" fill-rule="evenodd" stroke="none"/>
    <path d="M292.35 -153.4 L296.85 -158.2 297.75 -157.5 293.4 -152.6 292.35 -153.4" fill="#6b0d0b" fill-rule="evenodd" stroke="none"/>
    <path d="M298.6 -155.35 L298.6 -155.2 Q298.5 -153.9 297.55 -153.0 296.6 -152.15 295.2 -152.1 294.25 -152.1 293.45 -152.55 L293.45 -153.7 295.95 -155.5 297.95 -157.6 298.45 -156.7 298.6 -156.65 298.6 -155.45 298.6 -155.4 298.6 -155.35" fill="#320d0b" fill-rule="evenodd" stroke="none"/>
    <path d="M292.35 -153.4 L292.35 -154.6 296.9 -159.35 296.9 -158.2 292.35 -153.4" fill="#320d0b" fill-rule="evenodd" stroke="none"/>
    <path d="M291.65 -156.45 L292.35 -155.0 292.35 -153.35 Q291.9 -153.85 291.75 -154.45 L291.65 -155.1 291.65 -156.45" fill="#79818b" fill-rule="evenodd" stroke="none"/>
    <path d="M292.15 -154.95 Q292.2 -155.55 292.6 -156.45 293.05 -157.4 294.15 -158.2 295.8 -159.3 296.65 -159.5 L296.85 -159.35 292.35 -154.65 292.15 -154.95" fill="#d0cfd0" fill-rule="evenodd" stroke="none"/>
    <path d="M291.65 -156.55 Q291.7 -157.85 292.7 -158.8 293.7 -159.8 295.05 -159.85 295.9 -159.85 296.65 -159.45 L294.15 -158.2 Q293.05 -157.35 292.6 -156.45 292.2 -155.5 292.15 -154.9 291.65 -155.65 291.65 -156.55" fill="#e9e9eb" fill-rule="evenodd" stroke="none"/>
    <path d="M297.2 -154.9 Q296.65 -154.25 295.8 -154.0 L294.2 -153.7 293.45 -153.7 297.95 -158.45 297.95 -156.9 Q297.9 -155.9 297.2 -154.9" fill="#bab9ba" fill-rule="evenodd" stroke="none"/>
    <path d="M294.2 -153.7 L295.75 -154.0 Q296.6 -154.25 297.15 -154.9 297.8 -155.95 297.9 -156.9 L297.95 -158.45 Q298.6 -157.6 298.6 -156.5 298.6 -155.1 297.65 -154.2 296.65 -153.25 295.2 -153.2 294.25 -153.25 293.45 -153.7 L294.2 -153.7" fill="#b0aeb3" fill-rule="evenodd" stroke="none"/>
  </g>
  <defs>
    <linearGradient gradientTransform="matrix(0.3662, 0.0, 0.0, 0.3915, 6.65, -181.8)" gradientUnits="userSpaceOnUse" id="gradient0" spreadMethod="pad" x1="-819.2" x2="819.2">
      <stop offset="0.0" stop-color="#650c0b"/>
      <stop offset="0.5490196078431373" stop-color="#e1180a"/>
      <stop offset="1.0" stop-color="#650c0b"/>
    </linearGradient>
  </defs>
</svg>
