<?xml version="1.0" encoding="UTF-8" standalone="no"?>
<svg xmlns:xlink="http://www.w3.org/1999/xlink" height="16.0px" width="38.2px" xmlns="http://www.w3.org/2000/svg">
  <g transform="matrix(1.0, 0.0, 0.0, 1.0, 0.0, 0.0)">
    <path d="M37.1 0.0 L38.2 0.0 38.2 5.45 37.4 5.45 37.4 4.5 32.95 4.5 32.95 6.55 35.15 6.55 35.15 5.6 36.15 5.6 36.15 10.1 35.5 10.1 35.5 8.95 33.25 8.95 33.25 11.7 36.8 11.7 36.8 9.75 37.75 9.75 37.75 16.0 36.95 16.0 36.95 15.4 28.0 15.4 28.0 14.55 29.6 14.55 29.55 2.75 27.65 2.75 27.65 1.6 37.1 1.6 37.1 0.0 M26.35 2.45 L25.25 2.45 25.25 14.45 26.55 14.45 26.55 15.55 19.8 15.55 19.8 14.75 21.75 14.75 21.75 9.95 17.75 9.95 17.75 14.3 18.85 14.3 18.85 15.4 11.65 15.4 11.65 14.6 13.25 14.6 13.25 2.3 11.65 2.3 11.65 1.0 18.55 1.0 18.55 2.1 17.4 2.1 17.4 6.6 21.25 6.6 21.25 2.45 19.95 2.45 19.95 1.15 26.35 1.15 26.35 2.45 M10.7 0.7 L10.7 6.8 9.9 6.8 9.9 5.2 8.15 5.2 8.15 14.15 8.95 14.15 8.95 15.25 1.75 15.25 1.75 14.45 3.85 14.45 3.85 5.2 1.3 5.2 1.3 6.45 0.0 6.45 0.0 0.7 1.1 0.7 1.1 2.0 9.75 2.0 9.75 0.7 10.7 0.7" fill="#ffffff" fill-rule="evenodd" stroke="none"/>
  </g>
</svg>
