<?xml version="1.0" encoding="UTF-8" standalone="no"?>
<svg xmlns:xlink="http://www.w3.org/1999/xlink" height="410.9px" width="51.0px" xmlns="http://www.w3.org/2000/svg">
  <g transform="matrix(1.0, 0.0, 0.0, 1.0, 0.0, 0.0)">
    <path d="M45.05 399.7 L38.05 408.0 5.95 366.55 12.9 358.85 45.05 399.7" fill="url(#gradient0)" fill-rule="evenodd" stroke="none"/>
    <path d="M2.65 400.5 L41.15 358.3 46.95 365.75 8.4 408.55 2.65 400.5" fill="url(#gradient1)" fill-rule="evenodd" stroke="none"/>
    <path d="M41.6 410.2 L3.8 410.9 5.0 398.4 42.35 397.7 41.6 410.2" fill="url(#gradient2)" fill-rule="evenodd" stroke="none"/>
    <path d="M22.5 387.2 Q22.4 387.85 21.95 388.2 L20.9 388.55 20.0 388.05 Q19.65 387.55 19.75 386.9 19.85 386.25 20.3 385.9 20.8 385.5 21.35 385.55 21.95 385.6 22.25 386.1 22.6 386.55 22.5 387.2" fill="#170909" fill-rule="evenodd" stroke="none"/>
    <path d="M30.35 380.2 L29.8 381.2 28.75 381.55 Q28.15 381.45 27.85 381.0 27.5 380.55 27.6 379.9 27.7 379.25 28.15 378.9 28.6 378.5 29.2 378.55 29.75 378.6 30.1 379.1 30.4 379.55 30.35 380.2" fill="#170909" fill-rule="evenodd" stroke="none"/>
    <path d="M23.35 380.15 L22.75 381.2 Q22.3 381.55 21.75 381.55 L20.85 381.0 Q20.5 380.55 20.6 379.9 20.7 379.25 21.15 378.9 21.6 378.5 22.2 378.55 22.75 378.6 23.1 379.1 23.4 379.55 23.35 380.15" fill="#170909" fill-rule="evenodd" stroke="none"/>
    <path d="M29.25 387.5 L28.7 388.5 Q28.25 388.9 27.65 388.85 L26.75 388.35 Q26.4 387.85 26.5 387.2 26.6 386.55 27.05 386.2 27.5 385.8 28.1 385.85 28.7 385.95 29.0 386.4 29.35 386.85 29.25 387.5" fill="#170909" fill-rule="evenodd" stroke="none"/>
    <path d="M22.35 386.1 L21.8 387.1 Q21.35 387.5 20.75 387.45 20.15 387.4 19.85 386.95 19.5 386.45 19.6 385.8 19.7 385.15 20.15 384.8 20.65 384.4 21.2 384.45 21.8 384.55 22.1 385.0 22.45 385.45 22.35 386.1" fill="#a14b42" fill-rule="evenodd" stroke="none"/>
    <path d="M30.25 379.1 Q30.15 379.75 29.65 380.15 29.2 380.5 28.65 380.45 L27.75 379.95 Q27.4 379.5 27.5 378.85 27.6 378.2 28.05 377.85 28.5 377.45 29.1 377.5 29.65 377.55 30.0 378.05 30.3 378.5 30.25 379.1" fill="#a14b42" fill-rule="evenodd" stroke="none"/>
    <path d="M23.2 379.1 L22.6 380.15 21.6 380.5 Q21.0 380.4 20.7 379.95 20.35 379.5 20.45 378.85 20.55 378.2 21.0 377.85 21.45 377.45 22.05 377.5 22.65 377.55 22.95 378.05 23.25 378.5 23.2 379.1" fill="#a14b42" fill-rule="evenodd" stroke="none"/>
    <path d="M29.15 386.45 Q29.05 387.1 28.6 387.45 L27.55 387.8 26.65 387.25 Q26.3 386.8 26.4 386.15 26.5 385.5 26.95 385.15 27.4 384.75 28.0 384.8 28.6 384.9 28.9 385.35 29.25 385.8 29.15 386.45" fill="#a14b42" fill-rule="evenodd" stroke="none"/>
    <path d="M45.05 354.9 L38.05 363.2 5.95 321.75 12.9 314.05 45.05 354.9" fill="url(#gradient3)" fill-rule="evenodd" stroke="none"/>
    <path d="M2.65 355.75 L41.15 313.55 46.95 321.0 8.4 363.8 2.65 355.75" fill="url(#gradient4)" fill-rule="evenodd" stroke="none"/>
    <path d="M41.6 365.45 L3.8 366.15 5.0 353.65 42.35 352.95 41.6 365.45" fill="url(#gradient5)" fill-rule="evenodd" stroke="none"/>
    <path d="M22.5 342.4 Q22.4 343.05 21.95 343.4 L20.9 343.75 20.0 343.25 Q19.65 342.75 19.75 342.1 19.85 341.45 20.3 341.1 20.8 340.7 21.35 340.75 21.95 340.8 22.25 341.3 22.6 341.75 22.5 342.4" fill="#170909" fill-rule="evenodd" stroke="none"/>
    <path d="M30.35 335.45 L29.8 336.45 28.75 336.8 Q28.15 336.7 27.85 336.25 27.5 335.8 27.6 335.15 27.7 334.5 28.15 334.15 28.6 333.75 29.2 333.8 29.75 333.85 30.1 334.35 30.4 334.8 30.35 335.45" fill="#170909" fill-rule="evenodd" stroke="none"/>
    <path d="M23.35 335.4 L22.75 336.45 Q22.3 336.8 21.75 336.8 L20.85 336.25 Q20.5 335.8 20.6 335.15 20.7 334.5 21.15 334.15 21.6 333.75 22.2 333.8 22.75 333.85 23.1 334.35 23.4 334.8 23.35 335.4" fill="#170909" fill-rule="evenodd" stroke="none"/>
    <path d="M29.25 342.7 L28.7 343.7 Q28.25 344.1 27.65 344.05 L26.75 343.55 Q26.4 343.05 26.5 342.4 26.6 341.75 27.05 341.4 27.5 341.0 28.1 341.05 28.7 341.15 29.0 341.6 29.35 342.05 29.25 342.7" fill="#170909" fill-rule="evenodd" stroke="none"/>
    <path d="M22.35 341.3 L21.8 342.3 Q21.35 342.7 20.75 342.65 20.15 342.6 19.85 342.15 19.5 341.65 19.6 341.0 19.7 340.35 20.15 340.0 20.65 339.6 21.2 339.65 21.8 339.75 22.1 340.2 22.45 340.65 22.35 341.3" fill="#a14b42" fill-rule="evenodd" stroke="none"/>
    <path d="M30.25 334.3 Q30.15 334.95 29.65 335.35 29.2 335.7 28.65 335.65 L27.75 335.15 Q27.4 334.7 27.5 334.05 27.6 333.4 28.05 333.05 28.5 332.65 29.1 332.7 29.65 332.75 30.0 333.25 30.3 333.7 30.25 334.3" fill="#a14b42" fill-rule="evenodd" stroke="none"/>
    <path d="M23.2 334.3 L22.6 335.35 21.6 335.7 Q21.0 335.6 20.7 335.15 20.35 334.7 20.45 334.05 20.55 333.4 21.0 333.05 21.45 332.65 22.05 332.7 22.65 332.75 22.95 333.25 23.25 333.7 23.2 334.3" fill="#a14b42" fill-rule="evenodd" stroke="none"/>
    <path d="M29.15 341.65 Q29.05 342.3 28.6 342.65 L27.55 343.0 26.65 342.45 Q26.3 342.0 26.4 341.35 26.5 340.7 26.95 340.35 27.4 339.95 28.0 340.0 28.6 340.1 28.9 340.55 29.25 341.0 29.15 341.65" fill="#a14b42" fill-rule="evenodd" stroke="none"/>
    <path d="M45.05 310.1 L38.05 318.4 5.95 276.95 12.9 269.25 45.05 310.1" fill="url(#gradient6)" fill-rule="evenodd" stroke="none"/>
    <path d="M2.65 310.95 L41.15 268.75 46.95 276.2 8.4 319.0 2.65 310.95" fill="url(#gradient7)" fill-rule="evenodd" stroke="none"/>
    <path d="M41.6 320.65 L3.8 321.35 5.0 308.85 42.35 308.15 41.6 320.65" fill="url(#gradient8)" fill-rule="evenodd" stroke="none"/>
    <path d="M22.5 297.6 Q22.4 298.25 21.95 298.6 L20.9 298.95 20.0 298.45 Q19.65 297.95 19.75 297.3 19.85 296.7 20.3 296.3 20.8 295.9 21.35 295.95 21.95 296.0 22.25 296.5 22.6 296.95 22.5 297.6" fill="#170909" fill-rule="evenodd" stroke="none"/>
    <path d="M30.35 290.65 L29.8 291.65 28.75 292.0 Q28.15 291.9 27.85 291.45 27.5 291.0 27.6 290.35 27.7 289.7 28.15 289.35 28.6 288.95 29.2 289.0 29.75 289.05 30.1 289.55 30.4 290.0 30.35 290.65" fill="#170909" fill-rule="evenodd" stroke="none"/>
    <path d="M23.35 290.6 L22.75 291.65 Q22.3 292.0 21.75 292.0 L20.85 291.45 Q20.5 291.0 20.6 290.35 20.7 289.7 21.15 289.35 21.6 288.95 22.2 289.0 22.75 289.05 23.1 289.55 23.4 290.0 23.35 290.6" fill="#170909" fill-rule="evenodd" stroke="none"/>
    <path d="M29.25 297.95 L28.7 298.95 Q28.25 299.35 27.65 299.3 L26.75 298.8 Q26.4 298.3 26.5 297.65 26.6 297.0 27.05 296.65 27.5 296.25 28.1 296.3 28.7 296.4 29.0 296.85 29.35 297.3 29.25 297.95" fill="#170909" fill-rule="evenodd" stroke="none"/>
    <path d="M22.35 296.55 L21.8 297.55 Q21.35 297.95 20.75 297.9 20.15 297.85 19.85 297.4 19.5 296.9 19.6 296.25 19.7 295.6 20.15 295.25 20.65 294.85 21.2 294.9 21.8 295.0 22.1 295.45 22.45 295.9 22.35 296.55" fill="#a14b42" fill-rule="evenodd" stroke="none"/>
    <path d="M30.25 289.55 Q30.15 290.2 29.65 290.6 29.2 290.95 28.65 290.9 L27.75 290.4 Q27.4 289.95 27.5 289.3 27.6 288.65 28.05 288.3 28.5 287.9 29.1 287.95 29.65 288.0 30.0 288.5 30.3 288.95 30.25 289.55" fill="#a14b42" fill-rule="evenodd" stroke="none"/>
    <path d="M23.2 289.55 L22.6 290.6 Q22.15 290.95 21.6 290.9 21.0 290.85 20.7 290.4 20.35 289.95 20.45 289.3 20.55 288.65 21.0 288.3 21.45 287.9 22.05 287.95 22.65 288.0 22.95 288.5 23.25 288.95 23.2 289.55" fill="#a14b42" fill-rule="evenodd" stroke="none"/>
    <path d="M29.15 296.85 Q29.05 297.5 28.6 297.85 L27.55 298.2 26.65 297.65 Q26.3 297.2 26.4 296.55 26.5 295.9 26.95 295.55 27.4 295.15 28.0 295.2 28.6 295.3 28.9 295.75 29.25 296.2 29.15 296.85" fill="#a14b42" fill-rule="evenodd" stroke="none"/>
    <path d="M45.05 265.35 L38.05 273.65 5.95 232.2 12.9 224.5 45.05 265.35" fill="url(#gradient9)" fill-rule="evenodd" stroke="none"/>
    <path d="M2.65 266.15 L41.15 223.95 46.95 231.4 8.4 274.2 2.65 266.15" fill="url(#gradient10)" fill-rule="evenodd" stroke="none"/>
    <path d="M41.6 275.85 L3.8 276.55 5.0 264.05 42.35 263.35 41.6 275.85" fill="url(#gradient11)" fill-rule="evenodd" stroke="none"/>
    <path d="M22.5 252.8 Q22.4 253.45 21.95 253.8 L20.9 254.15 20.0 253.65 Q19.65 253.15 19.75 252.5 19.85 251.85 20.3 251.5 20.8 251.1 21.35 251.15 21.95 251.2 22.25 251.7 22.6 252.15 22.5 252.8" fill="#170909" fill-rule="evenodd" stroke="none"/>
    <path d="M30.35 245.85 L29.8 246.85 28.75 247.2 Q28.15 247.1 27.85 246.65 27.5 246.2 27.6 245.55 27.7 244.9 28.15 244.55 28.6 244.15 29.2 244.2 29.75 244.25 30.1 244.75 30.4 245.2 30.35 245.85" fill="#170909" fill-rule="evenodd" stroke="none"/>
    <path d="M23.35 245.8 L22.75 246.85 Q22.3 247.2 21.75 247.2 L20.85 246.65 Q20.5 246.2 20.6 245.55 20.7 244.9 21.15 244.55 21.6 244.15 22.2 244.2 22.75 244.25 23.1 244.75 23.4 245.2 23.35 245.8" fill="#170909" fill-rule="evenodd" stroke="none"/>
    <path d="M29.25 253.15 L28.7 254.15 Q28.25 254.55 27.65 254.5 L26.75 254.0 Q26.4 253.5 26.5 252.85 26.6 252.2 27.05 251.85 27.5 251.45 28.1 251.5 28.7 251.6 29.0 252.05 29.35 252.5 29.25 253.15" fill="#170909" fill-rule="evenodd" stroke="none"/>
    <path d="M22.35 251.75 L21.8 252.75 Q21.35 253.15 20.75 253.1 20.15 253.05 19.85 252.6 19.5 252.1 19.6 251.45 19.7 250.8 20.15 250.45 20.65 250.05 21.2 250.1 21.8 250.2 22.1 250.65 22.45 251.1 22.35 251.75" fill="#a14b42" fill-rule="evenodd" stroke="none"/>
    <path d="M30.25 244.75 Q30.15 245.4 29.65 245.8 29.2 246.15 28.65 246.1 L27.75 245.6 Q27.4 245.15 27.5 244.5 27.6 243.85 28.05 243.5 28.5 243.1 29.1 243.15 29.65 243.2 30.0 243.7 30.3 244.15 30.25 244.75" fill="#a14b42" fill-rule="evenodd" stroke="none"/>
    <path d="M23.2 244.75 L22.6 245.8 21.6 246.15 Q21.0 246.05 20.7 245.6 20.35 245.15 20.45 244.5 20.55 243.85 21.0 243.5 21.45 243.1 22.05 243.15 22.65 243.2 22.95 243.7 23.25 244.15 23.2 244.75" fill="#a14b42" fill-rule="evenodd" stroke="none"/>
    <path d="M29.15 252.05 Q29.05 252.7 28.6 253.05 L27.55 253.4 26.65 252.85 Q26.3 252.4 26.4 251.75 26.5 251.1 26.95 250.75 27.4 250.35 28.0 250.4 28.6 250.5 28.9 250.95 29.25 251.4 29.15 252.05" fill="#a14b42" fill-rule="evenodd" stroke="none"/>
    <path d="M45.05 220.55 L38.05 228.85 5.95 187.4 12.9 179.7 45.05 220.55" fill="url(#gradient12)" fill-rule="evenodd" stroke="none"/>
    <path d="M2.65 221.35 L41.15 179.15 46.95 186.6 8.4 229.4 2.65 221.35" fill="url(#gradient13)" fill-rule="evenodd" stroke="none"/>
    <path d="M41.6 231.05 L3.8 231.75 5.0 219.25 42.35 218.55 41.6 231.05" fill="url(#gradient14)" fill-rule="evenodd" stroke="none"/>
    <path d="M22.5 208.0 Q22.4 208.65 21.95 209.0 L20.9 209.35 20.0 208.85 Q19.65 208.35 19.75 207.7 19.85 207.05 20.3 206.7 20.8 206.3 21.35 206.35 21.95 206.4 22.25 206.9 22.6 207.35 22.5 208.0" fill="#170909" fill-rule="evenodd" stroke="none"/>
    <path d="M30.35 201.05 L29.8 202.05 28.75 202.4 Q28.15 202.3 27.85 201.85 27.5 201.4 27.6 200.75 27.7 200.1 28.15 199.75 28.6 199.35 29.2 199.4 29.75 199.45 30.1 199.95 30.4 200.4 30.35 201.05" fill="#170909" fill-rule="evenodd" stroke="none"/>
    <path d="M23.35 201.0 L22.75 202.05 Q22.3 202.4 21.75 202.4 L20.85 201.85 Q20.5 201.4 20.6 200.75 20.7 200.1 21.15 199.75 21.6 199.35 22.2 199.4 22.75 199.45 23.1 199.95 23.4 200.4 23.35 201.0" fill="#170909" fill-rule="evenodd" stroke="none"/>
    <path d="M29.25 208.35 L28.7 209.35 Q28.25 209.75 27.65 209.7 L26.75 209.2 Q26.4 208.7 26.5 208.05 26.6 207.4 27.05 207.05 27.5 206.65 28.1 206.7 28.7 206.8 29.0 207.25 29.35 207.7 29.25 208.35" fill="#170909" fill-rule="evenodd" stroke="none"/>
    <path d="M22.35 206.95 L21.8 207.95 Q21.35 208.35 20.75 208.3 20.15 208.25 19.85 207.8 19.5 207.3 19.6 206.65 19.7 206.0 20.15 205.65 20.65 205.25 21.2 205.3 21.8 205.4 22.1 205.85 22.45 206.3 22.35 206.95" fill="#a14b42" fill-rule="evenodd" stroke="none"/>
    <path d="M30.25 199.95 Q30.15 200.6 29.65 201.0 29.2 201.35 28.65 201.3 L27.75 200.8 Q27.4 200.35 27.5 199.7 27.6 199.05 28.05 198.7 28.5 198.3 29.1 198.35 29.65 198.4 30.0 198.9 30.3 199.35 30.25 199.95" fill="#a14b42" fill-rule="evenodd" stroke="none"/>
    <path d="M23.2 199.95 L22.6 201.0 21.6 201.35 Q21.0 201.25 20.7 200.8 20.35 200.35 20.45 199.7 20.55 199.05 21.0 198.7 21.45 198.3 22.05 198.35 22.65 198.4 22.95 198.9 23.25 199.35 23.2 199.95" fill="#a14b42" fill-rule="evenodd" stroke="none"/>
    <path d="M29.15 207.25 Q29.05 207.9 28.6 208.25 L27.55 208.6 26.65 208.05 Q26.3 207.6 26.4 206.95 26.5 206.3 26.95 205.95 27.4 205.55 28.0 205.6 28.6 205.7 28.9 206.15 29.25 206.6 29.15 207.25" fill="#a14b42" fill-rule="evenodd" stroke="none"/>
    <path d="M45.05 175.75 L38.05 184.05 5.95 142.6 12.9 134.9 45.05 175.75" fill="url(#gradient15)" fill-rule="evenodd" stroke="none"/>
    <path d="M2.65 176.55 L41.15 134.35 46.95 141.8 8.4 184.6 2.65 176.55" fill="url(#gradient16)" fill-rule="evenodd" stroke="none"/>
    <path d="M41.6 186.25 L3.8 186.95 5.0 174.45 42.35 173.75 41.6 186.25" fill="url(#gradient17)" fill-rule="evenodd" stroke="none"/>
    <path d="M22.5 163.25 Q22.4 163.9 21.95 164.25 L20.9 164.6 20.0 164.1 Q19.65 163.6 19.75 162.95 19.85 162.3 20.3 161.95 20.8 161.55 21.35 161.6 21.95 161.65 22.25 162.15 22.6 162.6 22.5 163.25" fill="#170909" fill-rule="evenodd" stroke="none"/>
    <path d="M30.35 156.25 L29.8 157.25 28.75 157.6 Q28.15 157.5 27.85 157.05 27.5 156.6 27.6 155.95 27.7 155.3 28.15 154.95 28.6 154.55 29.2 154.6 29.75 154.65 30.1 155.15 30.4 155.6 30.35 156.25" fill="#170909" fill-rule="evenodd" stroke="none"/>
    <path d="M23.35 156.2 L22.75 157.25 Q22.3 157.6 21.75 157.6 L20.85 157.05 Q20.5 156.6 20.6 155.95 20.7 155.3 21.15 154.95 21.6 154.55 22.2 154.6 22.75 154.65 23.1 155.15 23.4 155.6 23.35 156.2" fill="#170909" fill-rule="evenodd" stroke="none"/>
    <path d="M29.25 163.55 L28.7 164.55 Q28.25 164.95 27.65 164.9 L26.75 164.4 Q26.4 163.9 26.5 163.25 26.6 162.6 27.05 162.25 27.5 161.85 28.1 161.9 28.7 162.0 29.0 162.45 29.35 162.9 29.25 163.55" fill="#170909" fill-rule="evenodd" stroke="none"/>
    <path d="M22.35 162.15 L21.8 163.15 Q21.35 163.55 20.75 163.5 20.15 163.45 19.85 163.0 19.5 162.5 19.6 161.85 19.7 161.2 20.15 160.85 20.65 160.45 21.2 160.5 21.8 160.6 22.1 161.05 22.45 161.5 22.35 162.15" fill="#a14b42" fill-rule="evenodd" stroke="none"/>
    <path d="M30.25 155.15 Q30.15 155.8 29.65 156.2 29.2 156.55 28.65 156.5 L27.75 156.0 Q27.4 155.55 27.5 154.9 27.6 154.25 28.05 153.9 28.5 153.5 29.1 153.55 29.65 153.6 30.0 154.1 30.3 154.55 30.25 155.15" fill="#a14b42" fill-rule="evenodd" stroke="none"/>
    <path d="M23.2 155.15 L22.6 156.2 21.6 156.55 Q21.0 156.45 20.7 156.0 20.35 155.55 20.45 154.9 20.55 154.25 21.0 153.9 21.45 153.5 22.05 153.55 22.65 153.6 22.95 154.1 23.25 154.55 23.2 155.15" fill="#a14b42" fill-rule="evenodd" stroke="none"/>
    <path d="M29.15 162.5 Q29.05 163.15 28.6 163.5 L27.55 163.85 26.65 163.3 Q26.3 162.85 26.4 162.2 26.5 161.55 26.95 161.2 27.4 160.8 28.0 160.85 28.6 160.95 28.9 161.4 29.25 161.85 29.15 162.5" fill="#a14b42" fill-rule="evenodd" stroke="none"/>
    <path d="M45.05 130.95 L38.05 139.25 5.95 97.8 12.9 90.1 45.05 130.95" fill="url(#gradient18)" fill-rule="evenodd" stroke="none"/>
    <path d="M2.65 131.75 L41.15 89.55 46.95 97.0 8.4 139.8 2.65 131.75" fill="url(#gradient19)" fill-rule="evenodd" stroke="none"/>
    <path d="M41.6 141.5 L3.8 142.2 5.0 129.7 42.35 129.0 41.6 141.5" fill="url(#gradient20)" fill-rule="evenodd" stroke="none"/>
    <path d="M22.5 118.45 Q22.4 119.1 21.95 119.45 L20.9 119.8 20.0 119.3 Q19.65 118.8 19.75 118.15 19.85 117.5 20.3 117.15 20.8 116.75 21.35 116.8 21.95 116.85 22.25 117.35 22.6 117.8 22.5 118.45" fill="#170909" fill-rule="evenodd" stroke="none"/>
    <path d="M30.35 111.5 L29.8 112.5 28.75 112.85 Q28.15 112.75 27.85 112.3 27.5 111.85 27.6 111.2 27.7 110.55 28.15 110.2 28.6 109.8 29.2 109.85 29.75 109.9 30.1 110.4 30.4 110.85 30.35 111.5" fill="#170909" fill-rule="evenodd" stroke="none"/>
    <path d="M23.35 111.45 L22.75 112.5 Q22.3 112.85 21.75 112.85 L20.85 112.3 Q20.5 111.85 20.6 111.2 20.7 110.55 21.15 110.2 21.6 109.8 22.2 109.85 22.75 109.95 23.1 110.4 23.4 110.85 23.35 111.45" fill="#170909" fill-rule="evenodd" stroke="none"/>
    <path d="M29.25 118.75 L28.7 119.75 Q28.25 120.15 27.65 120.1 L26.75 119.6 Q26.4 119.1 26.5 118.45 26.6 117.8 27.05 117.45 27.5 117.05 28.1 117.1 28.7 117.2 29.0 117.65 29.35 118.1 29.25 118.75" fill="#170909" fill-rule="evenodd" stroke="none"/>
    <path d="M22.35 117.35 L21.8 118.35 Q21.35 118.75 20.75 118.7 20.15 118.65 19.85 118.15 19.5 117.7 19.6 117.05 19.7 116.4 20.15 116.05 20.65 115.65 21.2 115.7 21.8 115.8 22.1 116.25 22.45 116.7 22.35 117.35" fill="#a14b42" fill-rule="evenodd" stroke="none"/>
    <path d="M30.25 110.35 Q30.15 111.0 29.65 111.4 29.2 111.75 28.65 111.7 L27.75 111.2 Q27.4 110.75 27.5 110.1 27.6 109.45 28.05 109.1 28.5 108.7 29.1 108.75 29.65 108.8 30.0 109.3 30.3 109.75 30.25 110.35" fill="#a14b42" fill-rule="evenodd" stroke="none"/>
    <path d="M23.2 110.35 L22.6 111.4 21.6 111.75 Q21.0 111.65 20.7 111.2 20.35 110.75 20.45 110.1 20.55 109.45 21.0 109.1 21.45 108.7 22.05 108.75 22.65 108.8 22.95 109.3 23.25 109.75 23.2 110.35" fill="#a14b42" fill-rule="evenodd" stroke="none"/>
    <path d="M29.15 117.7 Q29.05 118.35 28.6 118.7 L27.55 119.05 26.65 118.5 Q26.3 118.05 26.4 117.4 26.5 116.75 26.95 116.4 27.4 116.0 28.0 116.05 28.6 116.15 28.9 116.6 29.25 117.05 29.15 117.7" fill="#a14b42" fill-rule="evenodd" stroke="none"/>
    <path d="M45.05 86.15 L38.05 94.45 5.95 53.0 12.9 45.3 45.05 86.15" fill="url(#gradient21)" fill-rule="evenodd" stroke="none"/>
    <path d="M2.65 87.0 L41.15 44.8 46.95 52.25 8.4 95.05 2.65 87.0" fill="url(#gradient22)" fill-rule="evenodd" stroke="none"/>
    <path d="M41.6 96.7 L3.8 97.4 5.0 84.9 42.35 84.2 41.6 96.7" fill="url(#gradient23)" fill-rule="evenodd" stroke="none"/>
    <path d="M22.5 73.65 Q22.4 74.3 21.95 74.65 L20.9 75.0 20.0 74.5 Q19.65 74.0 19.75 73.35 19.85 72.7 20.3 72.35 20.8 71.95 21.35 72.0 21.95 72.05 22.25 72.55 22.6 73.0 22.5 73.65" fill="#170909" fill-rule="evenodd" stroke="none"/>
    <path d="M30.35 66.7 L29.8 67.7 28.75 68.05 Q28.15 67.95 27.85 67.5 27.5 67.05 27.6 66.4 27.7 65.75 28.15 65.4 28.6 65.0 29.2 65.05 29.75 65.1 30.1 65.6 30.4 66.05 30.35 66.7" fill="#170909" fill-rule="evenodd" stroke="none"/>
    <path d="M23.35 66.65 L22.75 67.7 Q22.3 68.05 21.75 68.05 L20.85 67.5 Q20.5 67.05 20.6 66.4 20.7 65.75 21.15 65.4 21.6 65.0 22.2 65.05 22.75 65.1 23.1 65.6 23.4 66.05 23.35 66.65" fill="#170909" fill-rule="evenodd" stroke="none"/>
    <path d="M29.25 74.0 L28.7 75.0 Q28.25 75.4 27.65 75.35 L26.75 74.85 Q26.4 74.35 26.5 73.7 26.6 73.05 27.05 72.7 27.5 72.3 28.1 72.35 28.7 72.45 29.0 72.9 29.35 73.35 29.25 74.0" fill="#170909" fill-rule="evenodd" stroke="none"/>
    <path d="M22.35 72.55 L21.8 73.55 Q21.35 73.95 20.75 73.9 20.15 73.85 19.85 73.4 19.5 72.9 19.6 72.25 19.7 71.6 20.15 71.25 20.65 70.85 21.2 70.9 21.8 71.0 22.1 71.45 22.45 71.9 22.35 72.55" fill="#a14b42" fill-rule="evenodd" stroke="none"/>
    <path d="M30.25 65.6 Q30.15 66.25 29.65 66.65 29.2 67.0 28.65 66.95 L27.75 66.45 Q27.4 66.0 27.5 65.35 27.6 64.7 28.05 64.35 28.5 63.95 29.1 64.0 29.65 64.05 30.0 64.55 30.3 65.0 30.25 65.6" fill="#a14b42" fill-rule="evenodd" stroke="none"/>
    <path d="M23.2 65.6 L22.6 66.65 21.6 67.0 Q21.0 66.9 20.7 66.45 20.35 66.0 20.45 65.35 20.55 64.7 21.0 64.35 21.45 63.95 22.05 64.0 22.65 64.05 22.95 64.55 23.25 65.0 23.2 65.6" fill="#a14b42" fill-rule="evenodd" stroke="none"/>
    <path d="M29.15 72.9 Q29.05 73.55 28.6 73.9 L27.55 74.25 26.65 73.7 Q26.3 73.25 26.4 72.6 26.5 71.95 26.95 71.6 27.4 71.2 28.0 71.25 28.6 71.35 28.9 71.8 29.25 72.25 29.15 72.9" fill="#a14b42" fill-rule="evenodd" stroke="none"/>
    <path d="M45.05 41.35 L38.05 49.65 5.95 8.2 12.9 0.5 45.05 41.35" fill="url(#gradient24)" fill-rule="evenodd" stroke="none"/>
    <path d="M2.65 42.2 L41.15 0.0 46.95 7.45 8.4 50.25 2.65 42.2" fill="url(#gradient25)" fill-rule="evenodd" stroke="none"/>
    <path d="M41.6 51.9 L3.8 52.6 5.0 40.1 42.35 39.4 41.6 51.9" fill="url(#gradient26)" fill-rule="evenodd" stroke="none"/>
    <path d="M22.5 28.85 Q22.4 29.5 21.95 29.85 L20.9 30.2 20.0 29.7 Q19.65 29.2 19.75 28.55 19.85 27.9 20.3 27.55 20.8 27.15 21.35 27.2 21.95 27.25 22.25 27.75 22.6 28.2 22.5 28.85" fill="#170909" fill-rule="evenodd" stroke="none"/>
    <path d="M30.35 21.9 L29.8 22.9 28.75 23.25 Q28.15 23.15 27.85 22.7 27.5 22.25 27.6 21.6 27.7 20.95 28.15 20.6 28.6 20.2 29.2 20.25 29.75 20.3 30.1 20.8 30.4 21.25 30.35 21.9" fill="#170909" fill-rule="evenodd" stroke="none"/>
    <path d="M23.35 21.85 L22.75 22.9 Q22.3 23.25 21.75 23.25 L20.85 22.7 Q20.5 22.25 20.6 21.6 20.7 20.95 21.15 20.6 21.6 20.2 22.2 20.25 22.75 20.3 23.1 20.8 23.4 21.25 23.35 21.85" fill="#170909" fill-rule="evenodd" stroke="none"/>
    <path d="M29.25 29.2 L28.7 30.2 Q28.25 30.6 27.65 30.55 L26.75 30.05 Q26.4 29.55 26.5 28.9 26.6 28.25 27.05 27.9 27.5 27.5 28.1 27.55 28.7 27.65 29.0 28.1 29.35 28.55 29.25 29.2" fill="#170909" fill-rule="evenodd" stroke="none"/>
    <path d="M22.35 27.8 L21.8 28.8 Q21.35 29.2 20.75 29.15 20.15 29.1 19.85 28.65 19.5 28.15 19.6 27.5 19.7 26.85 20.15 26.5 20.65 26.1 21.2 26.15 21.8 26.25 22.1 26.7 22.45 27.15 22.35 27.8" fill="#a14b42" fill-rule="evenodd" stroke="none"/>
    <path d="M30.25 20.8 Q30.15 21.45 29.65 21.85 29.2 22.2 28.65 22.15 L27.75 21.65 Q27.4 21.2 27.5 20.55 27.6 19.9 28.05 19.55 28.5 19.15 29.1 19.2 29.65 19.25 30.0 19.75 30.3 20.2 30.25 20.8" fill="#a14b42" fill-rule="evenodd" stroke="none"/>
    <path d="M23.2 20.8 L22.6 21.85 21.6 22.2 Q21.0 22.1 20.7 21.65 20.35 21.2 20.45 20.55 20.55 19.9 21.0 19.55 21.45 19.15 22.05 19.2 22.65 19.25 22.95 19.75 23.25 20.2 23.2 20.8" fill="#a14b42" fill-rule="evenodd" stroke="none"/>
    <path d="M29.15 28.1 Q29.05 28.75 28.6 29.1 L27.55 29.45 26.65 28.9 Q26.3 28.45 26.4 27.8 26.5 27.15 26.95 26.8 27.4 26.4 28.0 26.45 28.6 26.55 28.9 27.0 29.25 27.45 29.15 28.1" fill="#a14b42" fill-rule="evenodd" stroke="none"/>
    <path d="M10.8 0.05 L10.8 396.1 0.0 396.1 0.0 0.05 10.8 0.05" fill="url(#gradient27)" fill-rule="evenodd" stroke="none"/>
    <path d="M51.0 0.05 L51.0 396.1 40.2 396.1 40.2 0.05 51.0 0.05" fill="url(#gradient28)" fill-rule="evenodd" stroke="none"/>
  </g>
  <defs>
    <linearGradient gradientTransform="matrix(0.0161, 0.0015, -0.0015, 0.0161, 26.75, 383.55)" gradientUnits="userSpaceOnUse" id="gradient0" spreadMethod="pad" x1="-819.2" x2="819.2">
      <stop offset="0.2549019607843137" stop-color="#af3523"/>
      <stop offset="0.8941176470588236" stop-color="#21130f"/>
    </linearGradient>
    <linearGradient gradientTransform="matrix(0.0278, 0.0021, -0.0021, 0.0278, 19.4, 383.05)" gradientUnits="userSpaceOnUse" id="gradient1" spreadMethod="pad" x1="-819.2" x2="819.2">
      <stop offset="0.2549019607843137" stop-color="#af3523"/>
      <stop offset="0.8941176470588236" stop-color="#21130f"/>
    </linearGradient>
    <linearGradient gradientTransform="matrix(0.0448, 0.0013, -0.0013, 0.0448, 10.5, 403.95)" gradientUnits="userSpaceOnUse" id="gradient2" spreadMethod="pad" x1="-819.2" x2="819.2">
      <stop offset="0.2549019607843137" stop-color="#af3523"/>
      <stop offset="0.8941176470588236" stop-color="#21130f"/>
    </linearGradient>
    <linearGradient gradientTransform="matrix(0.0161, 0.0015, -0.0015, 0.0161, 26.75, 338.75)" gradientUnits="userSpaceOnUse" id="gradient3" spreadMethod="pad" x1="-819.2" x2="819.2">
      <stop offset="0.2549019607843137" stop-color="#af3523"/>
      <stop offset="0.8941176470588236" stop-color="#21130f"/>
    </linearGradient>
    <linearGradient gradientTransform="matrix(0.0278, 0.0021, -0.0021, 0.0278, 19.4, 338.3)" gradientUnits="userSpaceOnUse" id="gradient4" spreadMethod="pad" x1="-819.2" x2="819.2">
      <stop offset="0.2549019607843137" stop-color="#af3523"/>
      <stop offset="0.8941176470588236" stop-color="#21130f"/>
    </linearGradient>
    <linearGradient gradientTransform="matrix(0.0448, 0.0013, -0.0013, 0.0448, 10.5, 359.2)" gradientUnits="userSpaceOnUse" id="gradient5" spreadMethod="pad" x1="-819.2" x2="819.2">
      <stop offset="0.2549019607843137" stop-color="#af3523"/>
      <stop offset="0.8941176470588236" stop-color="#21130f"/>
    </linearGradient>
    <linearGradient gradientTransform="matrix(0.0161, 0.0015, -0.0015, 0.0161, 26.75, 293.95)" gradientUnits="userSpaceOnUse" id="gradient6" spreadMethod="pad" x1="-819.2" x2="819.2">
      <stop offset="0.2549019607843137" stop-color="#af3523"/>
      <stop offset="0.8941176470588236" stop-color="#21130f"/>
    </linearGradient>
    <linearGradient gradientTransform="matrix(0.0278, 0.0021, -0.0021, 0.0278, 19.4, 293.5)" gradientUnits="userSpaceOnUse" id="gradient7" spreadMethod="pad" x1="-819.2" x2="819.2">
      <stop offset="0.2549019607843137" stop-color="#af3523"/>
      <stop offset="0.8941176470588236" stop-color="#21130f"/>
    </linearGradient>
    <linearGradient gradientTransform="matrix(0.0448, 0.0013, -0.0013, 0.0448, 10.5, 314.4)" gradientUnits="userSpaceOnUse" id="gradient8" spreadMethod="pad" x1="-819.2" x2="819.2">
      <stop offset="0.2549019607843137" stop-color="#af3523"/>
      <stop offset="0.8941176470588236" stop-color="#21130f"/>
    </linearGradient>
    <linearGradient gradientTransform="matrix(0.0161, 0.0015, -0.0015, 0.0161, 26.75, 249.2)" gradientUnits="userSpaceOnUse" id="gradient9" spreadMethod="pad" x1="-819.2" x2="819.2">
      <stop offset="0.2549019607843137" stop-color="#af3523"/>
      <stop offset="0.8941176470588236" stop-color="#21130f"/>
    </linearGradient>
    <linearGradient gradientTransform="matrix(0.0278, 0.0021, -0.0021, 0.0278, 19.4, 248.7)" gradientUnits="userSpaceOnUse" id="gradient10" spreadMethod="pad" x1="-819.2" x2="819.2">
      <stop offset="0.2549019607843137" stop-color="#af3523"/>
      <stop offset="0.8941176470588236" stop-color="#21130f"/>
    </linearGradient>
    <linearGradient gradientTransform="matrix(0.0448, 0.0013, -0.0013, 0.0448, 10.5, 269.6)" gradientUnits="userSpaceOnUse" id="gradient11" spreadMethod="pad" x1="-819.2" x2="819.2">
      <stop offset="0.2549019607843137" stop-color="#af3523"/>
      <stop offset="0.8941176470588236" stop-color="#21130f"/>
    </linearGradient>
    <linearGradient gradientTransform="matrix(0.0161, 0.0015, -0.0015, 0.0161, 26.75, 204.4)" gradientUnits="userSpaceOnUse" id="gradient12" spreadMethod="pad" x1="-819.2" x2="819.2">
      <stop offset="0.2549019607843137" stop-color="#af3523"/>
      <stop offset="0.8941176470588236" stop-color="#21130f"/>
    </linearGradient>
    <linearGradient gradientTransform="matrix(0.0278, 0.0021, -0.0021, 0.0278, 19.4, 203.9)" gradientUnits="userSpaceOnUse" id="gradient13" spreadMethod="pad" x1="-819.2" x2="819.2">
      <stop offset="0.2549019607843137" stop-color="#af3523"/>
      <stop offset="0.8941176470588236" stop-color="#21130f"/>
    </linearGradient>
    <linearGradient gradientTransform="matrix(0.0448, 0.0013, -0.0013, 0.0448, 10.5, 224.8)" gradientUnits="userSpaceOnUse" id="gradient14" spreadMethod="pad" x1="-819.2" x2="819.2">
      <stop offset="0.2549019607843137" stop-color="#af3523"/>
      <stop offset="0.8941176470588236" stop-color="#21130f"/>
    </linearGradient>
    <linearGradient gradientTransform="matrix(0.0161, 0.0015, -0.0015, 0.0161, 26.75, 159.6)" gradientUnits="userSpaceOnUse" id="gradient15" spreadMethod="pad" x1="-819.2" x2="819.2">
      <stop offset="0.2549019607843137" stop-color="#af3523"/>
      <stop offset="0.8941176470588236" stop-color="#21130f"/>
    </linearGradient>
    <linearGradient gradientTransform="matrix(0.0278, 0.0021, -0.0021, 0.0278, 19.4, 159.1)" gradientUnits="userSpaceOnUse" id="gradient16" spreadMethod="pad" x1="-819.2" x2="819.2">
      <stop offset="0.2549019607843137" stop-color="#af3523"/>
      <stop offset="0.8941176470588236" stop-color="#21130f"/>
    </linearGradient>
    <linearGradient gradientTransform="matrix(0.0448, 0.0013, -0.0013, 0.0448, 10.5, 180.0)" gradientUnits="userSpaceOnUse" id="gradient17" spreadMethod="pad" x1="-819.2" x2="819.2">
      <stop offset="0.2549019607843137" stop-color="#af3523"/>
      <stop offset="0.8941176470588236" stop-color="#21130f"/>
    </linearGradient>
    <linearGradient gradientTransform="matrix(0.0161, 0.0015, -0.0015, 0.0161, 26.75, 114.8)" gradientUnits="userSpaceOnUse" id="gradient18" spreadMethod="pad" x1="-819.2" x2="819.2">
      <stop offset="0.2549019607843137" stop-color="#af3523"/>
      <stop offset="0.8941176470588236" stop-color="#21130f"/>
    </linearGradient>
    <linearGradient gradientTransform="matrix(0.0278, 0.0021, -0.0021, 0.0278, 19.4, 114.3)" gradientUnits="userSpaceOnUse" id="gradient19" spreadMethod="pad" x1="-819.2" x2="819.2">
      <stop offset="0.2549019607843137" stop-color="#af3523"/>
      <stop offset="0.8941176470588236" stop-color="#21130f"/>
    </linearGradient>
    <linearGradient gradientTransform="matrix(0.0448, 0.0013, -0.0013, 0.0448, 10.5, 135.25)" gradientUnits="userSpaceOnUse" id="gradient20" spreadMethod="pad" x1="-819.2" x2="819.2">
      <stop offset="0.2549019607843137" stop-color="#af3523"/>
      <stop offset="0.8941176470588236" stop-color="#21130f"/>
    </linearGradient>
    <linearGradient gradientTransform="matrix(0.0161, 0.0015, -0.0015, 0.0161, 26.75, 70.0)" gradientUnits="userSpaceOnUse" id="gradient21" spreadMethod="pad" x1="-819.2" x2="819.2">
      <stop offset="0.2549019607843137" stop-color="#af3523"/>
      <stop offset="0.8941176470588236" stop-color="#21130f"/>
    </linearGradient>
    <linearGradient gradientTransform="matrix(0.0278, 0.0021, -0.0021, 0.0278, 19.4, 69.55)" gradientUnits="userSpaceOnUse" id="gradient22" spreadMethod="pad" x1="-819.2" x2="819.2">
      <stop offset="0.2549019607843137" stop-color="#af3523"/>
      <stop offset="0.8941176470588236" stop-color="#21130f"/>
    </linearGradient>
    <linearGradient gradientTransform="matrix(0.0448, 0.0013, -0.0013, 0.0448, 10.5, 90.45)" gradientUnits="userSpaceOnUse" id="gradient23" spreadMethod="pad" x1="-819.2" x2="819.2">
      <stop offset="0.2549019607843137" stop-color="#af3523"/>
      <stop offset="0.8941176470588236" stop-color="#21130f"/>
    </linearGradient>
    <linearGradient gradientTransform="matrix(0.0161, 0.0015, -0.0015, 0.0161, 26.75, 25.2)" gradientUnits="userSpaceOnUse" id="gradient24" spreadMethod="pad" x1="-819.2" x2="819.2">
      <stop offset="0.2549019607843137" stop-color="#af3523"/>
      <stop offset="0.8941176470588236" stop-color="#21130f"/>
    </linearGradient>
    <linearGradient gradientTransform="matrix(0.0278, 0.0021, -0.0021, 0.0278, 19.4, 24.75)" gradientUnits="userSpaceOnUse" id="gradient25" spreadMethod="pad" x1="-819.2" x2="819.2">
      <stop offset="0.2549019607843137" stop-color="#af3523"/>
      <stop offset="0.8941176470588236" stop-color="#21130f"/>
    </linearGradient>
    <linearGradient gradientTransform="matrix(0.0448, 0.0013, -0.0013, 0.0448, 10.5, 45.65)" gradientUnits="userSpaceOnUse" id="gradient26" spreadMethod="pad" x1="-819.2" x2="819.2">
      <stop offset="0.2549019607843137" stop-color="#af3523"/>
      <stop offset="0.8941176470588236" stop-color="#21130f"/>
    </linearGradient>
    <linearGradient gradientTransform="matrix(0.0166, 0.0, 0.0, 0.0166, 9.05, 198.05)" gradientUnits="userSpaceOnUse" id="gradient27" spreadMethod="pad" x1="-819.2" x2="819.2">
      <stop offset="0.2549019607843137" stop-color="#af3523"/>
      <stop offset="0.8941176470588236" stop-color="#21130f"/>
    </linearGradient>
    <linearGradient gradientTransform="matrix(0.0105, 0.0, 0.0, 0.0105, 45.35, 198.05)" gradientUnits="userSpaceOnUse" id="gradient28" spreadMethod="pad" x1="-819.2" x2="819.2">
      <stop offset="0.2549019607843137" stop-color="#af3523"/>
      <stop offset="0.8941176470588236" stop-color="#21130f"/>
    </linearGradient>
  </defs>
</svg>
