<?xml version="1.0" encoding="UTF-8" standalone="no"?>
<svg xmlns:xlink="http://www.w3.org/1999/xlink" height="31.7px" width="32.2px" xmlns="http://www.w3.org/2000/svg">
  <g transform="matrix(1.0, 0.0, 0.0, 1.0, 16.1, 15.85)">
    <path d="M9.15 -7.5 L12.25 -9.25 14.25 -7.0 11.2 -4.1 11.9 -1.55 16.1 -0.95 15.6 1.45 11.95 2.1 11.35 4.65 14.65 7.05 12.5 9.15 9.65 7.7 7.6 9.85 9.2 13.05 6.95 14.75 3.8 12.0 1.95 12.5 1.45 15.75 -1.65 15.85 -3.05 12.35 -4.5 11.9 -7.1 14.8 -9.1 13.0 -8.25 9.65 -9.65 8.2 -12.55 9.55 -14.45 7.2 -11.85 4.25 -12.3 2.15 -16.1 1.25 -15.85 -1.4 -12.15 -2.3 -11.55 -4.25 -14.2 -7.1 -13.0 -9.1 -9.25 -7.8 -7.75 -9.2 -9.35 -12.3 -7.35 -14.0 -4.25 -11.2 -2.2 -11.7 -1.8 -15.85 1.2 -15.6 2.2 -11.6 3.8 -11.2 6.45 -13.85 8.95 -12.2 7.65 -9.0 9.15 -7.5" fill="#535353" fill-rule="evenodd" stroke="none"/>
  </g>
</svg>
