<?xml version="1.0" encoding="UTF-8" standalone="no"?>
<svg xmlns:xlink="http://www.w3.org/1999/xlink" height="57.65px" width="162.6px" xmlns="http://www.w3.org/2000/svg">
  <g transform="matrix(1.0, 0.0, 0.0, 1.0, 86.35, 29.55)">
    <path d="M63.6 -28.05 Q68.15 -28.05 71.45 -24.85 74.75 -21.55 74.75 -16.9 L74.75 15.45 Q74.75 20.1 71.45 23.35 68.15 26.6 63.6 26.6 L-73.7 26.6 Q-78.35 26.6 -81.65 23.35 -84.85 20.1 -84.85 15.45 L-84.85 -16.9 Q-84.85 -21.55 -81.65 -24.85 -78.35 -28.05 -73.7 -28.05 L63.6 -28.05" fill="#ffffff" fill-rule="evenodd" stroke="none"/>
    <path d="M63.6 -28.05 L-73.7 -28.05 Q-78.35 -28.05 -81.65 -24.85 -84.85 -21.55 -84.85 -16.9 L-84.85 15.45 Q-84.85 20.1 -81.65 23.35 -78.35 26.6 -73.7 26.6 L63.6 26.6 Q68.15 26.6 71.45 23.35 74.75 20.1 74.75 15.45 L74.75 -16.9 Q74.75 -21.55 71.45 -24.85 68.15 -28.05 63.6 -28.05 Z" fill="none" stroke="#006699" stroke-linecap="round" stroke-linejoin="round" stroke-width="3.0"/>
  </g>
</svg>
