<?xml version="1.0" encoding="UTF-8" standalone="no"?>
<svg xmlns:xlink="http://www.w3.org/1999/xlink" height="385.25px" width="312.0px" xmlns="http://www.w3.org/2000/svg">
  <g transform="matrix(1.0, 0.0, 0.0, 1.0, 4.6, -20.7)">
    <path d="M177.85 39.5 L290.55 354.3 Q290.95 355.4 290.55 356.55 290.15 357.65 289.1 358.3 263.75 373.1 224.5 381.35 187.35 389.1 146.4 389.3 105.0 389.45 70.75 381.85 33.8 373.55 13.4 358.05 12.5 357.4 12.2 356.35 11.9 355.3 12.25 354.3 L123.8 39.55 Q124.1 38.5 125.0 37.9 125.85 37.3 126.9 37.3 L174.7 37.3 Q175.75 37.3 176.6 37.9 177.45 38.5 177.85 39.5" fill="#ffff77" fill-rule="evenodd" stroke="none"/>
    <path d="M190.35 35.05 Q188.55 30.05 184.25 27.05 179.95 24.0 174.7 24.0 L126.9 24.0 Q121.65 24.0 117.35 27.05 113.0 30.1 111.25 35.1 L-0.3 349.85 Q-2.15 355.0 -0.55 360.2 1.05 365.4 5.35 368.7 27.55 385.8 67.85 394.8 103.45 402.75 146.45 402.6 188.8 402.4 227.25 394.35 268.9 385.6 295.8 369.8 301.0 366.75 303.05 361.1 305.1 355.4 303.1 349.8 L190.35 35.05 M193.5 33.9 L306.2 348.7 Q308.65 355.4 306.2 362.2 303.7 369.0 297.5 372.65 270.2 388.7 227.95 397.6 189.2 405.75 146.5 405.95 L146.45 405.95 Q103.05 406.05 67.15 398.05 L67.1 398.05 Q26.0 388.85 3.35 371.35 -1.85 367.4 -3.7 361.15 -5.6 354.95 -3.4 348.75 L108.1 34.0 Q110.2 28.0 115.4 24.35 120.6 20.7 126.9 20.7 L174.7 20.7 Q181.0 20.65 186.2 24.3 191.35 27.95 193.5 33.9" fill="#ffff77" fill-opacity="0.16078432" fill-rule="evenodd" stroke="none"/>
    <path d="M187.25 36.15 Q185.8 32.2 182.35 29.75 178.9 27.35 174.7 27.35 L126.9 27.35 Q122.7 27.35 119.25 29.8 115.8 32.2 114.4 36.2 L2.85 350.95 Q1.4 355.1 2.65 359.25 3.9 363.4 7.35 366.05 29.1 382.75 68.55 391.55 L68.6 391.55 Q103.85 399.4 146.45 399.3 188.45 399.1 226.55 391.1 267.6 382.45 294.15 366.9 298.25 364.45 299.95 359.95 301.6 355.4 299.95 350.95 L187.25 36.15 M190.35 35.05 L303.1 349.8 Q305.1 355.4 303.05 361.1 301.0 366.75 295.8 369.8 268.9 385.6 227.25 394.35 188.8 402.4 146.45 402.6 103.45 402.75 67.85 394.8 27.55 385.8 5.35 368.7 1.05 365.4 -0.55 360.2 -2.15 355.0 -0.3 349.85 L111.25 35.1 Q113.0 30.1 117.35 27.05 121.65 24.0 126.9 24.0 L174.7 24.0 Q179.95 24.0 184.25 27.05 188.55 30.05 190.35 35.05" fill="#ffff77" fill-opacity="0.32941177" fill-rule="evenodd" stroke="none"/>
    <path d="M180.45 32.5 Q177.85 30.65 174.7 30.65 L126.9 30.65 Q123.75 30.65 121.15 32.5 118.55 34.3 117.5 37.3 L6.0 352.1 Q4.9 355.15 5.85 358.3 6.8 361.4 9.4 363.35 30.7 379.65 69.3 388.3 L69.3 388.35 Q104.25 396.1 146.4 395.95 L146.45 395.95 Q188.1 395.75 225.9 387.85 266.3 379.35 292.45 364.05 295.55 362.2 296.8 358.8 298.05 355.4 296.85 352.05 L184.1 37.25 Q183.0 34.3 180.45 32.5 M187.25 36.15 L299.95 350.95 Q301.6 355.4 299.95 359.95 298.25 364.45 294.15 366.9 267.6 382.45 226.55 391.1 188.45 399.1 146.45 399.3 103.85 399.4 68.6 391.55 L68.55 391.55 Q29.1 382.75 7.35 366.05 3.9 363.4 2.65 359.25 1.4 355.1 2.85 350.95 L114.4 36.2 Q115.8 32.2 119.25 29.8 122.7 27.35 126.9 27.35 L174.7 27.35 Q178.9 27.35 182.35 29.75 185.8 32.2 187.25 36.15" fill="#ffff77" fill-opacity="0.49803922" fill-rule="evenodd" stroke="none"/>
    <path d="M180.95 38.4 Q180.25 36.4 178.55 35.2 176.8 33.95 174.7 34.0 L126.9 34.0 Q124.8 34.0 123.1 35.2 121.35 36.4 120.65 38.4 L9.1 353.2 Q8.35 355.25 9.0 357.35 9.65 359.4 11.4 360.7 32.25 376.6 70.0 385.1 104.6 392.75 146.4 392.65 187.75 392.45 225.2 384.6 265.05 376.2 290.8 361.15 292.85 359.95 293.7 357.7 294.5 355.4 293.7 353.15 L180.95 38.4 M180.45 32.5 Q183.0 34.3 184.1 37.25 L296.85 352.05 Q298.05 355.4 296.8 358.8 295.55 362.2 292.45 364.05 266.3 379.35 225.9 387.85 188.1 395.75 146.45 395.95 L146.4 395.95 Q104.25 396.1 69.3 388.35 L69.3 388.3 Q30.7 379.65 9.4 363.35 6.8 361.4 5.85 358.3 4.9 355.15 6.0 352.1 L117.5 37.3 Q118.55 34.3 121.15 32.5 123.75 30.65 126.9 30.65 L174.7 30.65 Q177.85 30.65 180.45 32.5" fill="#ffff77" fill-opacity="0.6627451" fill-rule="evenodd" stroke="none"/>
    <path d="M180.95 38.4 L293.7 353.15 Q294.5 355.4 293.7 357.7 292.85 359.95 290.8 361.15 265.05 376.2 225.2 384.6 187.75 392.45 146.4 392.65 104.6 392.75 70.0 385.1 32.25 376.6 11.4 360.7 9.65 359.4 9.0 357.35 8.35 355.25 9.1 353.2 L120.65 38.4 Q121.35 36.4 123.1 35.2 124.8 34.0 126.9 34.0 L174.7 34.0 Q176.8 33.95 178.55 35.2 180.25 36.4 180.95 38.4 M177.85 39.5 Q177.45 38.5 176.6 37.9 175.75 37.3 174.7 37.3 L126.9 37.3 Q125.85 37.3 125.0 37.9 124.1 38.5 123.8 39.55 L12.25 354.3 Q11.9 355.3 12.2 356.35 12.5 357.4 13.4 358.05 33.8 373.55 70.75 381.85 105.0 389.45 146.4 389.3 187.35 389.1 224.5 381.35 263.75 373.1 289.1 358.3 290.15 357.65 290.55 356.55 290.95 355.4 290.55 354.3 L177.85 39.5" fill="#ffff77" fill-opacity="0.83137256" fill-rule="evenodd" stroke="none"/>
  </g>
</svg>
