<?xml version="1.0" encoding="UTF-8" standalone="no"?>
<svg xmlns:xlink="http://www.w3.org/1999/xlink" height="188.85px" width="240.15px" xmlns="http://www.w3.org/2000/svg">
  <g transform="matrix(1.0, 0.0, 0.0, 1.0, 0.0, -92.8)">
    <path d="M41.85 135.7 L41.3 135.7 Q42.85 136.05 43.55 138.5 44.0 140.4 42.1 142.1 L40.45 143.5 Q39.55 144.35 39.15 145.15 38.3 147.0 38.35 149.7 38.35 152.15 39.05 153.7 40.65 157.35 38.15 158.55 L36.45 159.1 Q35.75 159.25 36.1 159.45 L37.3 160.0 Q34.25 159.0 32.35 156.15 30.0 152.4 30.5 147.05 30.95 141.95 33.75 138.85 L34.05 138.55 33.85 138.7 Q30.1 141.95 29.7 146.95 29.25 152.8 31.85 156.8 33.2 158.8 35.05 160.0 28.3 168.15 23.45 164.2 17.7 159.55 22.95 152.3 L24.7 152.4 Q19.8 149.35 17.7 145.65 15.85 142.45 16.35 139.25 16.75 136.4 18.75 134.4 20.45 132.7 22.6 132.45 14.65 132.95 12.75 124.05 L13.15 126.65 12.9 125.6 Q12.2 121.15 13.5 118.05 14.15 116.4 15.4 115.15 19.25 110.95 23.5 112.65 24.5 113.0 25.3 113.7 L26.0 114.55 Q26.85 115.8 26.45 116.95 24.75 121.75 24.25 125.6 23.5 130.2 25.0 130.45 29.2 131.3 31.1 132.05 35.55 133.5 38.35 136.0 L38.7 135.9 41.85 135.7 M7.6 133.0 Q9.4 131.65 13.5 131.1 L13.55 131.1 Q14.15 132.85 15.15 134.35 14.0 135.95 13.75 138.15 12.2 138.0 10.5 138.2 L9.9 138.3 8.5 138.65 7.4 139.05 7.45 139.0 Q6.65 139.4 6.5 139.85 L10.25 138.85 13.65 139.0 13.7 141.6 Q14.0 145.3 16.3 148.65 L12.65 148.75 Q1.6 147.9 1.35 144.45 1.15 141.8 1.85 139.05 3.55 135.2 7.6 133.0 M20.65 164.45 L20.55 164.8 Q19.35 168.65 14.1 169.05 11.9 169.2 9.95 167.2 8.1 165.2 8.5 162.95 L12.3 163.05 Q15.45 162.8 17.3 161.6 L18.75 160.15 19.45 160.9 Q19.75 162.8 20.65 164.45 M3.95 150.8 L4.85 151.2 11.15 152.8 17.05 153.4 19.8 152.9 19.7 153.85 Q19.25 156.7 16.95 158.15 12.3 161.2 7.1 159.55 3.75 158.45 3.45 154.65 3.25 152.7 3.95 150.8" fill="#ffffff" fill-rule="evenodd" stroke="none"/>
    <path d="M37.3 160.0 L36.1 159.45 Q35.75 159.25 36.45 159.1 L38.15 158.55 Q40.65 157.35 39.05 153.7 38.35 152.15 38.35 149.7 38.3 147.0 39.15 145.15 39.55 144.35 40.45 143.5 L42.1 142.1 Q44.0 140.4 43.55 138.5 42.85 136.05 41.3 135.7 L41.85 135.7 Q46.2 135.95 48.05 139.75 49.6 143.05 49.05 148.4 48.45 153.95 46.45 157.05 43.95 160.8 39.7 160.45 L37.3 160.0 M13.15 126.65 L12.75 124.05 Q14.65 132.95 22.6 132.45 20.45 132.7 18.75 134.4 16.75 136.4 16.35 139.25 15.85 142.45 17.7 145.65 19.8 149.35 24.7 152.4 L22.95 152.3 Q17.7 159.55 23.45 164.2 28.3 168.15 35.05 160.0 37.1 161.3 39.8 161.7 L42.15 161.7 Q39.1 167.35 31.85 168.45 28.35 169.0 25.65 167.8 23.1 166.7 21.65 164.3 20.3 161.95 20.25 158.95 20.2 155.85 21.65 152.8 15.4 147.4 14.9 141.45 14.45 137.45 16.4 134.6 14.05 131.05 13.15 126.65 M16.3 148.65 L18.8 151.7 16.1 152.05 10.65 151.3 5.35 150.0 Q2.8 149.15 1.8 147.05 0.05 143.35 1.85 139.05 1.15 141.8 1.35 144.45 1.6 147.9 12.65 148.75 L16.3 148.65 M20.65 164.45 L21.15 165.35 22.35 166.9 21.3 167.75 Q18.25 170.15 14.9 170.5 11.35 170.95 9.1 168.15 7.25 165.85 7.45 162.75 L8.5 162.95 Q8.1 165.2 9.95 167.2 11.9 169.2 14.1 169.05 19.35 168.65 20.55 164.8 L20.65 164.45 M18.75 160.15 L19.3 159.25 19.3 159.65 19.45 160.9 18.75 160.15 M3.95 150.8 Q3.25 152.7 3.45 154.65 3.75 158.45 7.1 159.55 12.3 161.2 16.95 158.15 19.25 156.7 19.7 153.85 L19.8 152.9 19.85 152.9 19.75 155.0 19.7 155.65 19.45 156.9 Q18.75 159.35 17.1 160.45 15.35 161.55 12.35 161.9 9.0 162.15 5.85 161.1 2.5 160.0 2.1 155.45 1.9 152.6 2.85 150.15 L3.95 150.8" fill="#c2d6d4" fill-rule="evenodd" stroke="none"/>
    <path d="M37.3 160.0 L39.7 160.45 Q43.95 160.8 46.45 157.05 48.45 153.95 49.05 148.4 49.6 143.05 48.05 139.75 46.2 135.95 41.85 135.7 46.9 135.85 49.0 139.55 50.85 142.85 50.3 148.6 49.7 154.75 47.45 158.15 45.45 161.15 42.45 161.65 39.35 168.85 31.95 170.0 28.45 170.55 25.55 169.2 L23.3 167.8 21.85 169.05 Q18.5 171.65 14.85 172.1 10.45 172.55 8.2 169.4 6.2 166.65 6.75 162.6 L5.35 162.2 Q1.65 160.95 1.2 156.1 0.9 152.7 2.3 149.7 1.3 148.8 0.8 147.5 -0.8 143.45 0.9 139.55 2.65 135.55 7.6 133.0 3.55 135.2 1.85 139.05 0.05 143.35 1.8 147.05 2.8 149.15 5.35 150.0 L10.65 151.3 16.1 152.05 18.8 151.7 16.3 148.65 Q14.0 145.3 13.7 141.6 L13.65 139.0 10.25 138.85 6.5 139.85 Q6.65 139.4 7.45 139.0 L7.4 139.05 8.5 138.65 9.9 138.3 10.5 138.2 Q12.2 138.0 13.75 138.15 14.0 135.95 15.15 134.35 14.15 132.85 13.55 131.1 12.55 128.45 12.35 125.15 12.1 120.95 13.5 118.05 12.2 121.15 12.9 125.6 L13.15 126.65 Q14.05 131.05 16.4 134.6 14.45 137.45 14.9 141.45 15.4 147.4 21.65 152.8 20.2 155.85 20.25 158.95 20.3 161.95 21.65 164.3 23.1 166.7 25.65 167.8 28.35 169.0 31.85 168.45 39.1 167.35 42.15 161.7 L39.8 161.7 Q37.1 161.3 35.05 160.0 33.2 158.8 31.85 156.8 29.25 152.8 29.7 146.95 30.1 141.95 33.85 138.7 L34.05 138.55 33.75 138.85 Q30.95 141.95 30.5 147.05 30.0 152.4 32.35 156.15 34.25 159.0 37.3 160.0 M38.7 135.9 L38.35 136.0 Q35.55 133.5 31.1 132.05 29.2 131.3 25.0 130.45 23.5 130.2 24.25 125.6 24.75 121.75 26.45 116.95 26.85 115.8 26.0 114.55 L25.3 113.7 26.65 115.25 Q27.45 116.65 27.1 117.8 25.4 122.55 25.0 125.8 24.4 129.75 25.9 130.0 34.15 131.7 38.7 135.9 M20.4 153.2 L20.4 153.5 20.5 153.3 20.4 153.2 M8.5 162.95 L7.45 162.75 Q7.25 165.85 9.1 168.15 11.35 170.95 14.9 170.5 18.25 170.15 21.3 167.75 L22.35 166.9 21.15 165.35 20.65 164.45 Q19.75 162.8 19.45 160.9 L19.3 159.65 19.3 159.25 18.75 160.15 17.3 161.6 Q15.45 162.8 12.3 163.05 L8.5 162.95 M19.8 152.9 L17.05 153.4 11.15 152.8 4.85 151.2 3.95 150.8 2.85 150.15 Q1.9 152.6 2.1 155.45 2.5 160.0 5.85 161.1 9.0 162.15 12.35 161.9 15.35 161.55 17.1 160.45 18.75 159.35 19.45 156.9 L19.7 155.65 19.75 155.0 19.85 152.9 19.8 152.9" fill="#1d3f60" fill-rule="evenodd" stroke="none"/>
    <path d="M45.6 213.55 Q47.4 213.85 48.65 215.25 50.0 216.7 49.75 218.35 48.9 224.55 52.85 233.95 55.55 233.05 57.65 235.1 60.25 237.7 60.1 244.45 59.95 250.65 58.5 258.1 L55.9 270.8 Q54.7 277.6 50.15 280.3 46.35 282.55 42.2 281.05 39.9 280.25 26.6 274.45 L9.1 266.6 Q10.05 254.45 20.65 253.1 26.7 252.3 34.15 254.9 37.7 248.6 45.1 240.9 43.7 237.9 42.35 231.8 40.75 224.65 40.8 219.3 40.85 216.0 42.4 214.5 43.65 213.25 45.6 213.55" fill="#0d1e74" fill-rule="evenodd" stroke="none"/>
    <path d="M57.2 235.7 Q59.55 238.05 59.4 243.95 59.25 249.75 57.6 257.05 55.6 266.15 55.25 268.75 54.45 275.3 50.1 278.5 48.4 279.85 46.55 280.3 L43.6 280.25 Q39.75 278.9 11.4 265.5 12.8 250.05 33.55 255.8 39.6 257.5 43.15 261.35 47.05 265.5 48.25 272.75 48.65 267.1 44.55 261.85 40.55 256.8 35.2 255.2 38.45 250.15 45.2 242.3 46.55 243.85 49.55 245.0 47.3 243.85 46.3 241.05 44.75 237.85 43.3 231.95 41.5 224.7 41.55 219.5 41.6 216.15 42.8 214.65 43.8 213.4 45.35 213.65 46.8 213.95 47.75 215.3 48.8 216.7 48.55 218.35 48.05 221.35 49.9 227.65 51.0 231.55 52.5 234.95 53.65 237.2 55.25 238.6 53.7 236.55 53.15 234.6 55.35 233.85 57.2 235.7" fill="#6fb9d7" fill-rule="evenodd" stroke="none"/>
    <path d="M29.35 258.3 Q33.0 254.7 40.1 257.55 28.4 253.2 25.75 273.35 25.05 272.8 24.8 273.0 25.75 261.95 29.35 258.3" fill="#0d1e74" fill-rule="evenodd" stroke="none"/>
    <path d="M18.7 256.25 Q22.3 253.4 29.45 254.6 15.3 252.95 15.7 269.25 15.0 268.7 14.8 268.85 14.55 259.65 18.7 256.25" fill="#0d1e74" fill-rule="evenodd" stroke="none"/>
    <path d="M56.8 237.7 Q58.35 239.45 58.15 243.25 57.85 247.2 53.6 253.95 49.45 260.35 45.6 263.35 43.75 260.45 40.9 258.25 38.15 256.1 35.2 255.2 38.45 250.15 45.2 242.3 46.55 243.85 49.55 245.0 48.55 244.5 47.55 243.3 L48.4 243.9 Q46.65 239.75 44.85 233.7 42.85 227.0 42.7 224.05 42.55 219.8 48.25 225.65 48.35 228.5 50.0 233.65 51.95 239.35 53.8 241.1 54.65 242.25 55.0 240.9 55.35 239.6 54.85 238.2 L55.25 238.6 54.45 237.45 Q54.85 236.9 55.5 236.95 56.2 237.0 56.8 237.7" fill="#3c84bb" fill-rule="evenodd" stroke="none"/>
    <path d="M13.0 262.7 Q14.1 263.55 24.8 268.55 36.1 273.85 40.7 275.45 45.75 277.2 49.75 275.5 53.8 273.8 55.1 269.5 L55.15 269.45 Q54.2 275.6 49.95 278.65 48.3 279.9 46.45 280.3 L43.6 280.25 Q39.75 278.9 11.4 265.5 11.6 263.4 12.15 261.7 L13.0 262.7" fill="#3c84bb" fill-rule="evenodd" stroke="none"/>
    <path d="M39.45 149.8 Q38.45 146.55 40.35 143.65 49.8 133.45 80.25 116.35 L84.3 125.3 Q48.7 152.75 43.95 152.95 40.5 153.15 39.45 149.8" fill="#0d1e74" fill-rule="evenodd" stroke="none"/>
    <path d="M40.25 149.5 Q39.2 147.0 41.05 144.2 L47.1 137.9 Q49.8 135.3 53.15 132.9 57.8 129.6 79.35 116.5 L84.0 125.7 Q49.6 151.7 44.85 151.95 41.4 152.1 40.25 149.5" fill="#3c84bb" fill-rule="evenodd" stroke="none"/>
    <path d="M82.5 122.6 Q49.2 142.15 43.95 145.85 38.65 149.55 42.05 143.15 L47.65 137.35 Q50.25 134.95 53.7 132.55 58.25 129.3 79.35 116.5 L82.5 122.6" fill="#6fb9d7" fill-rule="evenodd" stroke="none"/>
    <path d="M39.7 161.15 Q42.6 150.9 46.1 142.85 48.2 137.9 94.95 171.0 85.8 198.9 82.95 200.95 80.85 202.4 79.55 206.05 78.35 209.5 78.6 212.35 80.5 217.25 75.45 221.3 70.85 224.85 62.8 226.25 54.6 227.6 47.8 225.9 40.25 223.95 37.85 218.7 31.6 207.25 35.2 182.35 36.65 171.95 39.7 161.15" fill="#2d002d" fill-rule="evenodd" stroke="none"/>
    <path d="M40.6 162.15 Q43.4 152.3 46.75 144.55 48.8 139.85 93.7 171.55 84.95 198.35 82.15 200.4 80.05 201.8 78.4 205.8 76.75 209.75 77.0 212.35 78.95 216.75 74.3 220.4 70.0 223.65 62.45 224.85 L48.35 224.35 Q41.15 222.45 38.85 217.45 32.85 206.45 36.3 182.5 37.7 172.55 40.6 162.15" fill="#611283" fill-rule="evenodd" stroke="none"/>
    <path d="M62.1 207.7 Q60.6 208.95 59.6 215.55 58.8 221.15 58.95 222.65 L61.1 225.0 Q53.7 225.95 47.75 224.2 41.05 222.2 38.85 217.45 35.1 210.65 35.05 198.15 35.05 187.25 37.8 173.65 37.7 188.1 43.1 196.5 46.5 201.95 53.95 204.15 L59.2 205.15 62.4 205.05 Q63.9 204.65 63.85 205.5 63.8 206.35 62.1 207.7" fill="#4c096a" fill-rule="evenodd" stroke="none"/>
    <path d="M75.8 206.15 Q73.65 207.5 70.45 211.0 69.7 211.85 69.0 211.25 68.3 210.7 69.05 209.8 69.85 208.85 72.15 207.55 74.5 206.25 75.8 206.15" fill="#2d002d" fill-rule="evenodd" stroke="none"/>
    <path d="M85.0 174.5 Q82.15 176.4 78.85 176.95 75.75 177.5 71.25 176.95 L61.1 175.0 Q49.35 172.3 45.4 163.8 41.8 156.0 45.7 146.7 L91.8 167.95 90.9 169.0 Q87.75 172.65 85.0 174.5" fill="#4c096a" fill-rule="evenodd" stroke="none"/>
    <path d="M133.55 143.75 Q113.2 159.2 116.95 170.4 102.95 176.85 86.15 176.25 70.65 175.7 58.45 169.55 46.1 163.3 43.0 154.15 39.5 144.05 48.9 133.95 59.05 126.7 72.1 122.85 72.3 120.2 73.8 117.2 75.4 114.0 77.1 113.15 L98.7 112.5 115.9 113.85 Q125.85 114.9 175.7 115.3 177.25 119.0 177.3 123.25 177.4 127.55 175.95 131.15 174.45 135.0 171.5 137.25 168.3 139.7 163.9 139.9 148.65 140.45 133.55 143.75" fill="#660700" fill-rule="evenodd" stroke="none"/>
    <path d="M127.4 147.8 Q124.3 150.4 122.2 152.8 116.0 160.05 116.9 168.4 102.85 174.8 86.3 174.7 70.9 174.6 59.0 169.15 46.95 163.6 44.0 155.0 40.75 145.55 50.15 135.55 57.75 130.25 64.05 127.45 72.35 123.85 83.95 121.8 79.55 121.75 73.7 123.05 73.3 121.55 74.4 118.95 75.45 116.4 77.2 114.35 95.45 112.5 115.9 114.6 125.85 115.65 161.7 112.4 L159.9 119.9 Q158.8 124.6 158.6 127.75 157.9 136.65 163.2 138.9 L142.9 141.2 Q131.55 142.95 125.05 144.85 L131.65 144.4 127.4 147.8" fill="#ffad00" fill-rule="evenodd" stroke="none"/>
    <path d="M163.05 108.15 Q160.25 111.5 158.45 118.75 157.4 123.15 157.1 126.7 151.0 126.9 141.4 128.7 L127.65 131.45 Q127.55 133.55 124.75 134.75 121.95 135.95 117.9 135.8 113.5 135.6 109.5 133.85 104.95 131.8 102.0 128.1 97.95 123.15 97.45 120.0 96.85 116.15 100.85 113.55 L115.9 114.6 Q119.65 115.0 138.75 111.45 158.1 107.75 163.05 108.15" fill="#f27c01" fill-rule="evenodd" stroke="none"/>
    <path d="M76.45 122.5 L74.65 122.8 Q75.3 118.45 78.85 114.2 L80.5 114.05 Q77.1 118.15 76.45 122.5" fill="#e30000" fill-rule="evenodd" stroke="none"/>
    <path d="M79.25 122.05 L77.45 122.3 Q78.2 118.0 81.6 113.95 L83.25 113.85 Q81.65 115.75 80.7 117.55 79.55 119.85 79.25 122.05" fill="#e30000" fill-rule="evenodd" stroke="none"/>
    <path d="M81.35 158.25 Q94.1 161.8 107.15 160.95 L113.6 161.35 Q115.3 162.0 114.55 163.05 113.8 164.15 111.1 164.95 108.1 165.85 104.25 165.9 90.5 166.1 79.05 163.3 68.25 160.6 61.3 155.6 54.45 150.7 52.85 144.65 51.15 138.35 55.55 132.0 L59.3 129.85 Q54.35 139.8 61.8 147.75 68.05 154.55 81.35 158.25" fill="#e30000" fill-rule="evenodd" stroke="none"/>
    <path d="M47.8 138.4 L50.15 135.55 53.25 133.45 Q48.8 139.0 49.5 144.85 50.2 150.75 55.9 155.65 61.85 160.85 72.05 164.0 83.05 167.4 97.55 168.0 L92.55 172.9 Q78.8 172.5 68.25 169.25 58.45 166.2 52.55 161.15 46.85 156.2 45.65 150.3 44.4 144.3 47.8 138.4" fill="#e30000" fill-rule="evenodd" stroke="none"/>
    <path d="M151.55 161.3 Q149.65 168.85 144.25 177.5 134.2 193.6 117.25 205.05 110.9 209.35 105.55 211.6 100.55 213.65 99.3 212.85 91.8 208.2 83.45 206.55 73.7 204.65 69.05 208.45 67.55 209.75 67.85 207.2 68.2 204.7 70.2 200.2 75.55 188.3 84.75 179.05 94.8 168.9 108.5 158.95 125.2 146.85 137.2 143.15 142.55 141.5 146.5 143.2 150.4 144.95 151.8 149.55 153.3 154.4 151.55 161.3" fill="#2d002d" fill-rule="evenodd" stroke="none"/>
    <path d="M149.8 161.25 Q147.85 168.55 142.4 177.25 132.35 193.3 116.6 203.7 110.65 207.6 105.7 209.55 101.1 211.3 99.85 210.5 92.9 206.2 83.7 205.4 73.9 204.5 69.05 208.45 67.55 209.75 67.85 206.95 68.2 204.15 70.15 199.35 75.45 186.55 84.4 177.05 L94.85 169.1 107.9 159.5 Q124.65 147.8 135.85 144.35 141.2 142.65 145.1 144.15 148.9 145.65 150.2 150.0 151.55 154.55 149.8 161.25" fill="#611283" fill-rule="evenodd" stroke="none"/>
    <path d="M149.7 161.55 Q147.75 168.75 142.4 177.25 133.05 192.25 118.4 202.45 112.85 206.35 107.7 208.65 103.15 210.75 100.8 210.7 96.25 209.3 95.8 202.25 95.25 193.65 101.75 180.45 108.55 166.5 120.7 155.5 128.85 148.1 136.8 144.05 141.95 142.7 145.55 144.35 149.15 146.05 150.3 150.4 151.5 154.95 149.7 161.55" fill="#2d002d" fill-rule="evenodd" stroke="none"/>
    <path d="M148.75 162.35 Q146.85 169.3 141.75 177.6 132.9 192.2 119.15 202.2 113.95 206.0 109.1 208.25 104.85 210.25 102.7 210.25 98.4 208.9 98.05 202.05 97.6 193.75 103.75 180.9 110.2 167.35 121.65 156.65 129.35 149.45 136.8 145.5 L145.0 145.75 Q148.35 147.35 149.4 151.55 150.5 155.95 148.75 162.35" fill="#2d002d" fill-rule="evenodd" stroke="none"/>
    <path d="M157.25 163.1 Q166.15 155.15 176.5 150.5 186.7 145.9 196.95 145.05 207.35 144.2 216.35 147.35 225.75 150.65 232.35 157.9 237.1 163.1 239.05 170.05 240.9 176.75 239.7 183.45 238.5 190.35 234.3 195.4 229.75 200.85 222.65 203.0 201.15 209.55 179.55 218.3 158.8 226.7 142.3 235.45 134.55 239.55 128.45 239.55 123.0 239.5 119.5 236.15 116.3 233.0 115.45 227.65 114.6 222.4 116.2 216.4 118.65 207.4 124.7 191.25 129.6 177.95 135.0 165.1 118.45 172.65 102.35 182.2 106.85 170.95 113.4 163.7 119.0 157.5 130.95 149.45 139.45 143.65 148.25 142.1 157.55 140.4 160.65 144.7 162.25 146.85 161.1 151.5 L157.25 163.1" fill="#0d1e74" fill-rule="evenodd" stroke="none"/>
    <path d="M158.4 154.9 L152.85 169.5 Q162.15 159.75 173.0 153.95 183.35 148.45 193.9 147.0 204.3 145.7 213.5 148.6 222.85 151.5 229.6 158.4 234.45 163.3 236.4 170.0 238.25 176.4 237.05 182.9 235.8 189.5 231.5 194.35 227.0 199.6 219.9 201.7 180.65 213.45 143.1 232.95 135.4 236.95 129.6 237.05 124.35 237.2 121.05 234.15 118.05 231.35 117.35 226.25 116.65 221.35 118.25 215.45 120.6 206.7 127.2 189.5 132.55 175.4 137.9 162.6 119.1 170.9 100.35 181.8 104.9 170.55 109.85 164.95 114.3 159.95 125.85 152.3 135.0 146.15 144.85 143.35 156.05 140.15 159.25 144.35 161.1 146.85 158.4 154.9" fill="#6fb9d7" fill-rule="evenodd" stroke="none"/>
    <path d="M127.05 159.25 Q137.7 153.45 143.45 151.65 141.25 154.55 137.7 162.7 119.0 170.95 100.35 181.8 104.2 172.4 107.9 167.35 111.6 162.4 118.6 157.25 113.95 161.95 112.8 167.7 118.25 164.0 127.05 159.25 M137.7 162.7 L137.9 162.6 131.65 177.8 Q135.05 168.8 137.7 162.7 M118.15 215.85 L118.25 215.45 Q120.6 206.7 127.2 189.5 L128.45 186.3 Q123.9 198.9 118.15 215.85" fill="#286aae" fill-rule="evenodd" stroke="none"/>
    <path d="M107.45 177.75 Q110.7 175.05 117.05 171.5 123.0 168.15 127.4 166.35 133.05 164.05 134.55 164.1 121.35 170.1 107.45 177.75" fill="#6fb9d7" fill-rule="evenodd" stroke="none"/>
    <path d="M119.2 231.8 Q118.5 229.5 119.2 227.0 120.25 223.35 124.75 216.35 134.95 200.55 166.05 178.05 181.1 167.2 199.65 164.55 L214.2 163.9 Q220.45 164.35 225.0 165.85 236.2 169.6 237.55 177.45 237.65 185.7 233.25 192.2 228.45 199.2 219.9 201.7 180.6 213.45 143.1 232.95 134.1 237.6 127.7 237.0 121.95 236.45 119.2 231.8" fill="#286aae" fill-rule="evenodd" stroke="none"/>
    <path d="M198.6 145.55 Q209.1 145.95 211.65 154.55 212.65 157.75 212.05 161.3 211.6 164.5 210.25 166.1 208.9 167.8 201.05 173.85 192.7 180.35 189.9 182.9 L208.25 165.35 Q210.0 163.6 210.45 160.2 210.9 156.5 209.4 153.35 207.7 149.65 203.75 147.95 199.05 146.0 191.95 147.2 191.55 146.25 198.6 145.55" fill="#0d1e74" fill-rule="evenodd" stroke="none"/>
    <path d="M227.75 156.85 Q222.35 151.45 228.5 156.7 232.3 160.05 234.0 165.25 235.25 169.2 234.85 171.9 234.3 175.65 231.45 177.15 L220.35 183.35 Q209.9 189.15 206.65 190.15 225.75 178.85 229.95 175.35 231.85 173.8 232.2 172.15 233.05 168.7 231.75 164.15 230.45 159.55 227.75 156.85" fill="#0d1e74" fill-rule="evenodd" stroke="none"/>
    <path d="M135.4 163.6 Q137.0 159.65 138.35 157.5 140.15 154.75 143.45 151.65 141.15 155.1 137.9 162.6 136.7 165.4 135.35 166.2 134.0 167.0 135.4 163.6" fill="#0d1e74" fill-rule="evenodd" stroke="none"/>
    <path d="M152.85 169.5 Q150.8 171.9 148.1 175.8 145.3 179.9 143.6 182.95 148.0 172.4 154.25 166.25 157.25 163.35 156.3 164.9 L152.85 169.5" fill="#0d1e74" fill-rule="evenodd" stroke="none"/>
    <path d="M83.15 205.35 Q76.75 203.7 70.15 206.45 L67.85 207.4 Q77.15 196.7 81.2 193.3 88.15 187.45 97.45 184.8 94.4 192.65 93.6 196.6 92.2 203.35 94.3 207.8 88.75 205.75 83.15 205.35" fill="#4c096a" fill-rule="evenodd" stroke="none"/>
    <path d="M103.1 115.7 Q104.2 112.15 112.7 92.8 L123.5 101.6 Q116.45 114.5 114.9 117.95 113.2 120.75 110.7 121.9 108.5 122.9 106.4 122.35 104.35 121.8 103.35 120.05 102.35 118.2 103.1 115.7" fill="#0d1e74" fill-rule="evenodd" stroke="none"/>
    <path d="M120.8 103.15 L113.5 118.0 Q112.5 119.8 110.55 120.6 L107.05 120.9 Q105.25 120.45 104.5 119.0 103.65 117.25 104.55 114.75 105.65 111.65 112.7 95.25 L120.8 103.15" fill="#3c84bb" fill-rule="evenodd" stroke="none"/>
    <path d="M141.7 114.25 Q138.35 114.8 125.55 123.85 130.1 119.35 137.05 114.45 L141.7 114.25" fill="#7c1e02" fill-rule="evenodd" stroke="none"/>
    <path d="M157.65 112.75 Q154.75 119.6 154.0 126.0 152.95 134.95 156.85 139.45 L152.65 139.9 Q148.75 135.35 149.9 126.3 150.7 119.9 153.65 113.1 L157.65 112.75" fill="#e30000" fill-rule="evenodd" stroke="none"/>
    <path d="M149.95 113.35 Q146.6 120.8 145.65 127.3 144.4 136.25 148.6 140.4 L144.6 140.95 Q141.35 137.85 141.3 131.95 141.2 123.95 146.05 113.65 L149.95 113.35" fill="#e30000" fill-rule="evenodd" stroke="none"/>
    <path d="M157.65 112.75 Q154.55 120.15 153.9 126.9 L149.8 127.35 Q150.45 120.45 153.65 113.1 L157.65 112.75" fill="#b00000" fill-rule="evenodd" stroke="none"/>
    <path d="M149.95 113.35 Q146.4 121.1 145.6 127.95 L141.5 128.65 Q142.3 121.7 146.05 113.65 L149.95 113.35" fill="#b00000" fill-rule="evenodd" stroke="none"/>
  </g>
</svg>
