<?xml version="1.0" encoding="UTF-8" standalone="no"?>
<svg xmlns:xlink="http://www.w3.org/1999/xlink" height="25.95px" width="54.55px" xmlns="http://www.w3.org/2000/svg">
  <g transform="matrix(1.0, 0.0, 0.0, 1.0, -85.95, -32.95)">
    <path d="M132.15 39.05 Q138.55 40.8 140.4 54.9 132.7 36.3 126.2 47.25 126.8 43.45 128.3 41.1 130.0 38.45 132.15 39.05" fill="#2870a4" fill-rule="evenodd" stroke="none"/>
    <path d="M126.2 47.25 Q127.8 43.95 130.0 43.15 132.0 42.45 134.2 43.95 136.25 45.4 137.9 48.5 139.6 51.6 140.4 55.45 140.65 56.75 140.4 58.0 140.15 59.25 139.75 57.4 139.15 54.7 137.75 51.9 136.3 49.0 134.45 47.1 129.9 42.6 126.2 47.25" fill="#0c1748" fill-rule="evenodd" stroke="none"/>
    <path d="M111.25 42.3 Q98.4 36.75 90.95 46.3 88.65 49.25 87.15 53.3 L86.15 56.45 Q85.65 47.0 87.7 41.6 90.2 35.1 96.7 33.1 L100.25 32.95 Q102.45 33.2 104.6 34.2 109.85 36.75 111.25 42.3" fill="#2870a4" fill-rule="evenodd" stroke="none"/>
    <path d="M97.0 42.75 Q92.6 44.75 89.7 48.8 86.55 53.15 85.95 58.9 86.05 53.0 88.35 48.05 90.55 43.25 94.2 40.5 97.95 37.7 102.1 37.9 106.7 38.1 110.8 41.75 112.2 43.0 112.85 44.8 L113.0 45.7 112.4 45.3 Q109.7 42.05 105.4 41.4 101.25 40.8 97.0 42.75" fill="#0c1748" fill-rule="evenodd" stroke="none"/>
  </g>
</svg>
