<?xml version="1.0" encoding="UTF-8" standalone="no"?>
<svg xmlns:xlink="http://www.w3.org/1999/xlink" height="38.0px" width="54.55px" xmlns="http://www.w3.org/2000/svg">
  <g transform="matrix(1.0, 0.0, 0.0, 1.0, 0.0, 0.0)">
    <path d="M38.7 25.15 L38.65 25.1 Q39.75 11.75 41.85 8.65 43.95 5.5 46.15 6.1 52.5 7.85 54.35 21.95 L54.3 22.45 53.0 21.5 50.95 20.75 49.1 20.3 44.7 20.75 Q40.8 21.25 39.75 23.2 L38.7 25.15 M2.2 37.55 Q1.35 36.65 1.1 34.65 L0.7 31.35 Q0.0 27.4 0.0 20.8 0.0 13.05 1.65 8.65 4.15 2.15 10.65 0.15 L14.2 0.0 Q16.4 0.25 18.55 1.25 23.75 3.8 25.2 9.2 28.05 17.2 28.85 23.15 L28.9 23.8 Q26.85 22.2 23.7 22.65 20.45 23.05 18.1 23.7 15.7 24.35 9.95 26.8 4.2 29.25 3.3 32.65 2.35 36.0 2.2 37.55" fill="#2870a4" fill-rule="evenodd" stroke="none"/>
    <path d="M54.3 22.45 L54.55 22.75 54.55 23.0 54.3 22.95 52.95 22.7 50.85 22.65 46.8 22.85 42.0 23.5 Q39.75 23.95 38.45 25.85 L38.7 25.2 38.7 25.15 39.75 23.2 Q40.8 21.25 44.7 20.75 L49.1 20.3 50.95 20.75 53.0 21.5 54.3 22.45 M28.9 23.8 L29.05 23.9 29.15 24.35 28.9 24.35 Q25.65 24.35 22.45 25.6 L15.45 28.1 Q11.0 29.75 7.3 31.75 3.75 33.7 2.3 37.6 L2.15 38.0 2.2 37.55 Q2.35 36.0 3.3 32.65 4.2 29.25 9.95 26.8 15.7 24.35 18.1 23.7 20.45 23.05 23.7 22.65 26.85 22.2 28.9 23.8" fill="#0c1748" fill-rule="evenodd" stroke="none"/>
  </g>
</svg>
