<?xml version="1.0" encoding="UTF-8" standalone="no"?>
<svg xmlns:xlink="http://www.w3.org/1999/xlink" height="49.45px" width="54.35px" xmlns="http://www.w3.org/2000/svg">
  <g transform="matrix(1.0, 0.0, 0.0, 1.0, -86.05, -33.45)">
    <path d="M124.7 65.7 Q124.3 65.35 124.75 58.6 L124.7 58.55 Q125.8 45.2 127.9 42.1 130.0 38.95 132.2 39.55 138.55 41.3 140.4 55.4 L140.1 62.5 140.1 62.8 140.1 62.55 140.1 62.5 138.6 62.85 136.5 62.35 134.6 62.1 129.45 63.35 Q126.0 64.25 124.95 65.35 L124.7 65.7 M92.3 81.2 L92.25 81.15 Q89.1 75.8 88.05 71.05 86.95 66.3 86.75 64.8 86.05 60.85 86.05 54.25 86.05 46.5 87.7 42.1 90.2 35.6 96.7 33.6 L100.25 33.45 Q102.45 33.7 104.6 34.7 109.8 37.25 111.25 42.65 114.1 50.6 114.85 56.4 115.5 61.7 115.2 70.1 L115.1 71.75 114.85 70.1 113.0 70.15 107.4 71.2 Q105.0 71.85 99.25 74.3 93.5 76.75 92.6 80.15 L92.3 81.2" fill="#2870a4" fill-rule="evenodd" stroke="none"/>
    <path d="M140.1 62.55 Q136.75 63.9 135.2 65.65 L130.5 66.7 Q127.1 67.15 124.6 68.75 L124.75 68.05 124.45 67.8 Q124.15 67.6 124.5 66.1 L124.7 65.7 124.95 65.35 Q126.0 64.25 129.45 63.35 L134.6 62.1 136.5 62.35 138.6 62.85 140.1 62.5 140.1 62.55 M115.1 71.75 L115.05 72.3 Q113.3 72.7 110.7 73.75 107.0 75.25 106.15 75.8 L99.35 79.3 Q93.4 82.3 93.55 82.9 L92.3 81.2 92.6 80.15 Q93.5 76.75 99.25 74.3 105.0 71.85 107.4 71.2 L113.0 70.15 114.85 70.1 115.1 71.75" fill="#0c1748" fill-rule="evenodd" stroke="none"/>
  </g>
</svg>
