<?xml version="1.0" encoding="UTF-8" standalone="no"?>
<svg xmlns:xlink="http://www.w3.org/1999/xlink" height="122.05px" width="123.4px" xmlns="http://www.w3.org/2000/svg">
  <g transform="matrix(1.0, 0.0, 0.0, 1.0, -158.4, -12.0)">
    <path d="M268.9 14.65 Q274.75 10.5 279.55 12.85 281.6 13.9 281.8 16.3 282.0 18.85 279.95 21.3 278.8 22.75 276.4 27.0 L273.45 32.1 Q273.05 32.75 271.05 31.85 269.15 31.0 267.05 29.35 261.6 25.0 262.6 22.2 263.25 20.55 264.9 18.55 266.7 16.25 268.9 14.65" fill="#1d3f60" fill-rule="evenodd" stroke="none"/>
    <path d="M270.35 16.05 Q275.05 12.45 278.6 14.25 280.15 15.05 280.2 17.0 280.25 19.15 278.55 21.25 277.6 22.45 275.55 26.0 L273.1 30.35 271.25 30.2 268.3 28.25 Q264.3 24.8 265.2 22.5 266.5 19.1 270.35 16.05" fill="#ffffff" fill-rule="evenodd" stroke="none"/>
    <path d="M239.25 30.9 L257.1 29.85 Q256.05 25.3 257.85 21.95 259.55 18.75 263.5 17.55 L268.85 17.7 Q270.9 19.0 271.5 23.25 271.8 25.25 273.35 28.5 L275.75 33.8 Q276.25 35.25 275.55 37.05 274.85 39.0 273.2 40.55 269.0 44.4 262.25 43.55 L256.5 50.9 Q253.1 54.75 249.4 56.9 240.1 62.45 224.6 60.1 213.8 58.5 209.0 54.0 207.4 52.5 206.2 50.4 L204.6 47.35 Q192.0 44.5 186.95 41.15 182.0 37.85 182.7 33.05 L183.65 21.55 Q183.8 19.6 185.5 18.4 187.1 17.25 189.5 17.15 192.0 17.0 194.35 18.1 196.85 19.2 198.45 21.35 202.2 26.4 201.45 30.8 220.45 28.25 231.0 35.95 233.9 32.0 239.25 30.9" fill="#1d3f60" fill-rule="evenodd" stroke="none"/>
    <path d="M239.1 32.4 Q242.45 31.45 248.95 31.35 L256.75 30.7 Q262.65 30.35 266.45 31.75 262.85 29.55 258.65 29.7 256.5 25.7 258.25 22.4 259.85 19.45 263.55 18.3 266.75 17.3 268.25 18.6 269.5 19.65 270.2 23.2 270.65 25.25 271.75 28.1 L273.75 33.15 Q274.95 36.45 272.1 39.3 268.75 42.6 261.4 42.25 L255.85 49.55 Q252.6 53.25 249.1 55.35 240.35 60.6 224.85 58.25 214.1 56.6 209.4 51.75 207.3 49.6 206.35 45.9 192.05 43.95 186.85 39.35 183.6 36.35 183.9 31.85 L184.1 26.75 Q184.15 24.05 184.5 21.6 184.75 20.05 186.2 19.0 187.55 18.05 189.55 17.9 194.2 17.5 196.7 21.0 199.65 25.1 200.1 31.2 196.95 31.9 194.15 33.35 220.25 27.7 229.6 37.15 L229.75 37.9 229.75 38.95 Q229.9 40.0 231.1 38.15 233.9 33.9 239.1 32.4" fill="#ffffff" fill-rule="evenodd" stroke="none"/>
    <path d="M206.35 45.9 Q192.05 43.95 186.85 39.35 183.6 36.35 183.9 31.85 L184.1 26.75 Q184.15 24.05 184.5 21.6 184.8 19.7 186.75 18.7 185.0 20.85 185.65 25.05 L186.4 29.0 Q186.9 31.45 187.0 33.3 187.15 37.4 193.95 39.75 L207.85 42.85 Q209.1 44.8 212.25 45.7 L218.5 45.45 Q221.9 44.05 227.45 44.2 233.9 44.4 238.75 46.8 247.2 51.05 253.85 46.6 256.2 45.05 258.8 42.05 L262.95 37.2 269.55 37.4 Q272.75 36.7 274.0 34.35 274.35 37.6 271.45 39.85 268.05 42.55 261.4 42.25 L255.85 49.55 Q252.6 53.25 249.1 55.35 240.35 60.6 224.85 58.25 214.1 56.6 209.4 51.75 207.3 49.6 206.35 45.9" fill="#c2d6d4" fill-rule="evenodd" stroke="none"/>
    <path d="M228.45 46.55 Q235.0 47.65 238.7 51.2 242.55 54.85 241.55 59.6 240.35 65.1 234.5 67.05 L222.3 67.45 Q214.85 66.05 211.05 63.2 206.4 59.65 208.25 54.25 211.85 43.9 228.45 46.55" fill="#1d3f60" fill-rule="evenodd" stroke="none"/>
    <path d="M228.45 45.4 Q234.65 46.5 237.9 49.95 241.55 53.8 240.1 59.45 238.85 64.25 233.75 65.85 229.3 67.25 222.85 66.0 216.1 64.75 212.7 62.15 208.45 59.05 209.85 54.25 211.35 48.95 216.75 46.55 221.8 44.3 228.45 45.4" fill="#ffffff" fill-rule="evenodd" stroke="none"/>
    <path d="M211.8 50.35 Q212.1 50.05 212.2 50.8 212.3 52.15 212.55 52.75 213.5 55.65 218.4 54.3 L223.5 53.95 Q226.85 54.2 228.95 55.35 229.9 55.85 230.75 57.0 L232.1 59.0 Q233.8 61.3 236.3 60.95 239.45 60.5 240.25 58.8 L240.1 59.45 Q238.85 64.25 233.75 65.85 229.3 67.25 222.85 66.0 216.1 64.75 212.7 62.15 208.45 59.0 209.85 54.25 210.4 52.1 211.8 50.35" fill="#c2d6d4" fill-rule="evenodd" stroke="none"/>
    <path d="M231.8 60.0 Q231.75 61.8 230.15 67.85 228.3 74.65 225.8 81.5 218.65 100.65 211.45 105.65 202.8 111.75 187.15 120.35 170.75 129.35 159.9 133.75 L159.0 134.05 Q157.65 129.05 160.0 119.15 L159.75 119.1 161.65 113.6 Q197.95 97.9 202.7 91.6 205.6 87.6 209.75 75.7 L214.85 60.35 Q215.3 58.9 218.0 57.75 220.65 56.55 223.75 56.4 227.25 56.2 229.55 57.3 231.8 58.35 231.8 60.0" fill="#0d1e74" fill-rule="evenodd" stroke="none"/>
    <path d="M230.4 59.2 Q230.35 61.0 228.65 66.9 226.75 73.6 224.1 80.45 216.7 99.3 209.5 104.3 200.45 110.7 184.95 119.15 168.1 128.3 158.9 131.35 L158.6 131.5 Q157.85 126.05 159.75 118.1 L161.45 112.6 Q199.2 98.15 203.9 91.8 206.85 87.8 211.15 75.5 L216.45 59.75 Q216.9 58.35 219.2 57.35 221.25 56.5 223.95 56.4 226.65 56.25 228.45 56.95 230.4 57.75 230.4 59.2" fill="#6fb9d7" fill-rule="evenodd" stroke="none"/>
    <path d="M172.35 107.45 Q175.1 109.3 183.25 106.3 189.7 103.95 196.05 103.1 202.8 102.15 202.0 104.05 199.95 109.3 209.5 104.3 200.45 110.7 184.95 119.15 168.1 128.3 158.9 131.35 L158.6 131.5 Q157.85 126.05 159.75 118.1 L161.45 112.6 172.35 107.45" fill="#3c84bb" fill-rule="evenodd" stroke="none"/>
    <path d="M221.7 61.35 Q218.95 62.1 213.85 66.25 L216.45 59.75 Q216.9 58.35 219.2 57.35 221.25 56.5 223.95 56.4 226.65 56.25 228.45 56.95 230.4 57.75 230.4 59.2 L230.0 60.95 Q227.6 59.6 221.7 61.35" fill="#3c84bb" fill-rule="evenodd" stroke="none"/>
  </g>
</svg>
