<?xml version="1.0" encoding="UTF-8" standalone="no"?>
<svg xmlns:xlink="http://www.w3.org/1999/xlink" height="198.5px" width="554.55px" xmlns="http://www.w3.org/2000/svg">
  <g transform="matrix(1.0, 0.0, 0.0, 1.0, 0.0, 0.0)">
    <path d="M554.5 64.5 Q555.85 95.85 510.05 117.85 493.75 125.7 471.0 132.5 460.1 135.75 437.55 141.4 361.6 160.35 72.55 196.2 L50.3 198.4 Q37.95 198.95 29.25 196.95 7.2 191.85 1.35 168.15 -0.65 160.05 0.35 150.55 1.3 141.45 4.8 132.25 8.25 123.2 13.6 115.6 19.15 107.75 25.8 102.8 L63.6 76.6 63.25 77.25 Q69.15 70.65 86.5 61.45 103.55 52.45 125.05 44.35 147.1 36.0 164.25 32.25 183.25 28.05 190.25 30.95 195.1 33.0 197.85 35.45 200.4 37.7 201.55 40.75 202.45 43.2 202.75 47.25 L203.05 55.25 Q203.4 63.05 207.35 65.2 L219.9 65.55 Q246.05 61.5 272.5 54.7 301.2 47.3 323.55 38.4 L358.05 24.9 Q376.85 17.85 392.05 13.25 429.5 1.9 463.5 0.15 478.15 -0.65 493.45 3.0 509.5 6.8 522.5 14.65 536.65 23.15 544.75 35.1 553.75 48.35 554.5 64.5" fill="#ffffff" fill-rule="evenodd" stroke="none"/>
  </g>
</svg>
