<?xml version="1.0" encoding="UTF-8" standalone="no"?>
<svg xmlns:xlink="http://www.w3.org/1999/xlink" height="217.3px" width="579.7px" xmlns="http://www.w3.org/2000/svg">
  <g transform="matrix(1.0, 0.0, 0.0, 1.0, 45.95, 0.0)">
    <path d="M489.05 10.6 Q498.0 14.3 506.75 22.0 515.35 29.55 521.85 39.4 528.6 49.55 531.6 60.05 534.85 71.3 533.2 81.2 529.75 101.5 511.45 117.4 496.15 130.7 474.05 138.35 423.4 155.8 333.25 173.7 L275.7 184.35 251.0 188.5 Q239.1 190.9 146.6 202.0 51.05 213.45 39.95 215.35 L27.8 217.0 Q20.1 217.65 14.6 216.8 L14.0 216.7 Q-83.95 187.35 -21.8 103.45 L11.05 77.35 14.0 76.35 Q20.4 73.95 34.0 67.4 56.95 56.3 68.55 51.4 118.75 30.1 156.05 31.3 166.0 31.65 168.75 37.25 169.85 39.6 170.15 43.5 L170.25 51.55 Q170.2 55.45 170.45 57.25 170.8 59.6 171.8 60.9 173.7 63.4 181.0 64.35 190.15 65.5 223.9 54.65 L266.25 40.1 Q317.25 22.85 386.05 7.1 401.45 3.55 412.9 1.9 426.4 -0.05 438.1 0.0 463.85 0.15 489.05 10.6" fill="#ffffff" fill-rule="evenodd" stroke="none"/>
  </g>
</svg>
