<?xml version="1.0" encoding="UTF-8" standalone="no"?>
<svg xmlns:xlink="http://www.w3.org/1999/xlink" height="71.15px" width="107.75px" xmlns="http://www.w3.org/2000/svg">
  <g transform="matrix(1.0, 0.0, 0.0, 1.0, -415.8, -19.25)">
    <path d="M488.85 19.7 Q486.15 22.95 485.8 25.55 L485.8 27.1 490.8 26.5 492.35 30.3 496.5 24.25 501.95 26.25 508.4 19.25 508.6 19.25 502.65 28.05 497.45 26.3 492.8 31.45 494.6 35.8 502.15 32.6 509.95 41.5 523.55 38.45 510.05 43.7 501.4 36.9 501.15 36.95 497.7 42.2 503.6 50.75 500.25 60.3 500.95 51.5 495.2 44.2 498.5 37.25 491.8 38.1 490.6 33.9 Q487.7 34.1 485.6 35.15 L484.95 37.55 490.35 41.1 486.8 53.85 487.85 43.7 482.0 38.55 482.35 37.75 Q481.6 38.65 481.05 39.8 478.5 45.15 482.65 50.35 477.55 47.15 473.1 47.55 L468.35 54.25 469.0 54.85 468.85 55.1 474.3 54.45 477.75 60.05 493.9 60.2 475.55 61.8 473.2 55.6 466.85 57.45 463.1 61.9 468.6 72.9 460.85 90.4 466.2 73.85 460.2 61.85 466.35 54.5 465.25 53.5 Q464.7 54.8 464.35 56.4 L462.25 51.55 456.4 53.1 454.0 63.6 444.4 69.6 443.05 80.85 443.15 68.65 453.6 61.0 455.35 52.1 461.45 50.05 459.15 47.95 459.0 47.9 Q455.65 47.65 446.65 58.0 449.25 54.65 449.9 49.9 450.6 44.75 448.15 42.35 446.5 40.7 443.45 40.9 L446.3 48.25 440.2 52.4 441.25 59.5 436.2 65.15 427.9 71.6 438.5 60.75 439.5 51.65 443.7 47.4 441.0 41.3 439.6 41.7 439.45 42.1 432.5 43.7 429.75 50.5 415.8 49.65 429.65 48.15 429.7 41.5 432.65 41.4 431.55 37.1 424.1 37.1 431.6 35.0 434.85 41.3 436.55 41.25 437.7 40.0 440.15 28.8 442.45 28.8 Q441.3 25.85 437.0 22.85 L432.15 20.0 Q434.2 19.85 439.8 19.95 442.05 19.8 443.65 19.25 L489.25 19.25 488.85 19.7 M442.75 31.55 L442.4 31.55 441.4 35.1 Q442.5 33.15 442.75 31.55 M489.55 30.3 L487.55 30.65 490.45 33.45 489.55 30.3 M471.25 47.9 Q467.9 48.8 466.05 51.95 L467.7 53.55 471.25 47.9" fill="#ffffff" fill-rule="evenodd" stroke="none"/>
  </g>
</svg>
