<?xml version="1.0" encoding="UTF-8" standalone="no"?>
<svg xmlns:xlink="http://www.w3.org/1999/xlink" height="83.05px" width="65.1px" xmlns="http://www.w3.org/2000/svg">
  <g transform="matrix(1.0, 0.0, 0.0, 1.0, -9.55, 107.95)">
    <path d="M53.3 -100.8 L57.9 -92.1 59.5 -94.15 54.7 -103.15 57.6 -107.95 62.65 -98.5 59.5 -94.15 51.05 -82.55 50.95 -82.45 46.95 -90.25 45.55 -87.9 49.45 -80.35 48.7 -79.35 44.9 -86.8 43.5 -84.45 47.15 -77.2 43.65 -72.4 40.9 -80.2 51.25 -97.35 55.65 -88.95 57.15 -91.05 52.6 -99.65 53.3 -100.8 M64.1 -97.45 L74.65 -95.6 70.95 -91.35 60.95 -93.1 64.1 -97.45 M69.2 -89.35 L68.25 -88.3 58.7 -90.0 59.4 -91.0 69.2 -89.35 M66.5 -86.25 L61.0 -80.0 52.45 -81.4 57.15 -87.85 66.5 -86.25 M59.25 -77.95 L58.35 -76.95 50.15 -78.25 50.9 -79.3 59.25 -77.95 M56.6 -74.9 L53.3 -71.15 45.15 -71.35 48.65 -76.15 56.6 -74.9" fill="#ffffff" fill-rule="evenodd" stroke="none"/>
    <path d="M53.3 -100.8 L54.7 -103.15 59.5 -94.15 57.9 -92.1 53.3 -100.8 M70.95 -91.35 L69.2 -89.35 59.4 -91.0 60.95 -93.1 70.95 -91.35 M68.25 -88.3 L66.5 -86.25 57.15 -87.85 58.7 -90.0 68.25 -88.3 M61.0 -80.0 L59.25 -77.95 50.9 -79.3 52.45 -81.4 61.0 -80.0 M58.35 -76.95 L56.6 -74.9 48.65 -76.15 50.15 -78.25 58.35 -76.95 M50.95 -82.45 L49.45 -80.35 45.55 -87.9 46.95 -90.25 50.95 -82.45 M48.7 -79.35 L47.15 -77.2 43.5 -84.45 44.9 -86.8 48.7 -79.35 M51.25 -97.35 L52.6 -99.65 57.15 -91.05 55.65 -88.95 51.25 -97.35" fill="#9f1b0a" fill-rule="evenodd" stroke="none"/>
    <path d="M62.65 -98.5 L64.45 -101.05 65.9 -99.95 64.1 -97.45 60.95 -93.1 59.4 -91.0 58.7 -90.0 57.15 -87.85 52.45 -81.4 50.9 -79.3 50.15 -78.25 48.65 -76.15 45.15 -71.35 18.6 -34.75 17.2 -35.8 51.05 -82.55 59.5 -94.15 62.65 -98.5" fill="url(#gradient0)" fill-rule="evenodd" stroke="none"/>
    <path d="M18.6 -34.75 L23.05 -31.55 12.7 -24.9 Q10.65 -24.95 9.55 -26.9 L12.5 -39.25 17.2 -35.8 18.6 -34.75" fill="url(#gradient1)" fill-rule="evenodd" stroke="none"/>
  </g>
  <defs>
    <linearGradient gradientTransform="matrix(0.0273, 0.0271, -0.0199, 0.0371, 38.2, -63.35)" gradientUnits="userSpaceOnUse" id="gradient0" spreadMethod="pad" x1="-819.2" x2="819.2">
      <stop offset="0.0" stop-color="#4e440c"/>
      <stop offset="0.4549019607843137" stop-color="#ffffff"/>
      <stop offset="1.0" stop-color="#4e440c"/>
    </linearGradient>
    <linearGradient gradientTransform="matrix(0.0067, 0.0051, -0.0049, 0.007, 16.3, -32.1)" gradientUnits="userSpaceOnUse" id="gradient1" spreadMethod="pad" x1="-819.2" x2="819.2">
      <stop offset="0.0" stop-color="#4e440c"/>
      <stop offset="0.4549019607843137" stop-color="#ffffff"/>
      <stop offset="1.0" stop-color="#4e440c"/>
    </linearGradient>
  </defs>
</svg>
