<?xml version="1.0" encoding="UTF-8" standalone="no"?>
<svg xmlns:xlink="http://www.w3.org/1999/xlink" height="110.0px" width="84.45px" xmlns="http://www.w3.org/2000/svg">
  <g transform="matrix(1.0, 0.0, 0.0, 1.0, -16.75, 0.0)">
    <path d="M94.5 74.55 L94.6 74.4 94.5 74.55 M93.8 75.05 L94.05 75.75 94.25 76.0 94.5 76.15 Q96.45 76.9 96.85 74.95 97.2 76.5 95.85 76.8 93.7 77.2 93.8 75.05 M23.05 98.7 L22.15 99.05 27.75 105.3 89.15 108.8 92.95 103.25 98.3 75.45 98.2 70.65 98.0 58.8 76.35 44.3 80.1 35.7 81.15 33.3 73.7 4.0 56.75 0.85 44.55 29.0 46.5 41.25 46.55 41.75 25.6 52.35 17.85 74.85 21.8 98.65 22.15 99.0 23.05 98.7 M57.9 5.8 L61.15 2.8 61.1 3.6 57.85 6.65 57.9 5.8 M62.2 4.8 Q62.1 7.9 59.1 7.35 L58.55 7.25 58.55 6.5 59.7 6.85 Q61.9 6.8 62.2 4.8 M55.35 0.0 L75.4 2.0 83.15 31.15 79.15 42.7 101.2 59.25 100.25 79.5 95.05 104.1 92.2 110.0 24.85 106.15 19.75 99.65 16.75 74.7 23.85 50.85 42.55 42.9 44.1 42.15 42.4 27.85 55.35 0.0 M27.7 56.35 L27.75 55.55 27.8 55.55 31.05 52.55 31.0 53.3 27.7 56.35 M32.1 54.5 Q32.05 57.65 29.05 57.1 L28.45 56.95 28.5 56.2 Q29.0 56.55 29.65 56.6 31.75 56.55 32.1 54.5 M41.55 95.35 Q41.8 97.8 39.45 97.15 38.25 96.95 38.55 95.5 38.5 95.9 38.7 96.15 L39.0 96.5 39.25 96.6 Q41.2 97.4 41.55 95.35 M39.25 94.9 L39.15 95.05 39.25 94.9" fill="#47525f" fill-rule="evenodd" stroke="none"/>
    <path d="M98.2 70.65 L23.05 98.7 22.15 99.0 21.8 98.65 17.85 74.85 25.6 52.35 46.55 41.75 46.5 41.25 80.1 35.7 76.35 44.3 98.0 58.8 98.2 70.65 M61.4 3.85 L61.85 3.4 61.8 3.65 Q61.6 6.75 58.55 6.5 L61.4 3.85 M27.4 54.3 L27.35 55.2 Q27.2 55.45 27.7 56.35 L28.45 56.95 29.05 57.1 Q32.05 57.65 32.1 54.5 L31.7 53.2 31.75 53.5 Q31.45 56.55 28.5 56.2 L31.3 53.55 31.0 53.3 31.05 52.55 30.8 52.45 Q28.8 51.55 27.6 53.7 L27.4 54.3 M27.75 55.55 L27.75 55.5 27.8 55.55 27.75 55.55 M27.7 55.05 L27.7 55.0 27.75 54.95 27.7 55.05" fill="#bab9ba" fill-rule="evenodd" stroke="none"/>
    <path d="M95.1 74.05 L96.15 73.75 95.8 73.6 Q94.05 73.3 93.8 75.05 93.7 77.2 95.85 76.8 97.2 76.5 96.85 74.95 L96.6 74.15 96.15 73.75 95.1 74.05 M98.2 70.65 L98.3 75.45 92.95 103.25 89.15 108.8 27.75 105.3 22.15 99.05 23.05 98.7 98.2 70.65 M46.5 41.25 L44.55 29.0 56.75 0.85 73.7 4.0 81.15 33.3 80.1 35.7 46.5 41.25 M61.15 2.8 L61.0 2.7 60.9 2.7 59.1 2.6 Q57.75 3.1 57.5 4.55 L57.45 5.45 Q57.35 5.75 57.85 6.65 L58.55 7.25 59.1 7.35 Q62.1 7.9 62.2 4.8 L61.85 3.4 61.4 3.85 61.1 3.6 61.15 2.8 M57.8 5.2 L57.8 5.3 57.8 5.2 M41.3 94.6 L40.75 94.2 40.8 94.2 Q38.9 93.55 38.55 95.5 38.25 96.95 39.45 97.15 41.8 97.8 41.55 95.35 L41.3 94.6 M39.35 94.85 L39.25 94.9 39.35 94.85" fill="#9c9c9c" fill-rule="evenodd" stroke="none"/>
    <path d="M94.6 74.4 L94.5 74.55 94.05 75.75 93.8 75.05 Q94.05 73.3 95.8 73.6 L96.15 73.75 95.1 74.05 94.6 74.4 M60.9 2.7 L60.7 2.75 Q58.7 3.4 57.8 5.2 L57.8 5.3 57.75 5.6 Q57.45 5.1 57.5 4.55 57.75 3.1 59.1 2.6 L60.9 2.7 M27.7 55.0 L27.65 55.35 27.4 54.3 27.6 53.7 Q28.8 51.55 30.8 52.45 28.95 52.9 27.95 54.55 L27.75 54.95 27.7 55.0 M38.55 95.5 Q38.9 93.55 40.8 94.2 L40.75 94.2 39.35 94.85 39.25 94.9 39.15 95.05 38.7 96.15 Q38.5 95.9 38.55 95.5" fill="#e9e9eb" fill-rule="evenodd" stroke="none"/>
    <path d="M94.6 74.4 L95.1 74.05 96.15 73.75 96.6 74.15 Q96.55 74.95 95.9 75.55 95.15 76.05 94.25 76.0 L94.05 75.75 94.5 74.55 94.6 74.4 M60.9 2.7 L61.0 2.7 61.15 2.8 57.9 5.8 57.8 5.6 57.8 5.3 57.8 5.2 Q58.7 3.4 60.7 2.75 L60.9 2.7 M27.75 55.5 L27.7 55.35 27.7 55.05 27.75 54.95 27.95 54.55 Q28.95 52.9 30.8 52.45 L31.05 52.55 27.8 55.55 27.75 55.5 M40.75 94.2 L41.3 94.6 Q41.25 95.45 40.55 95.95 39.9 96.55 39.0 96.5 L38.7 96.15 39.15 95.05 39.25 94.9 39.35 94.85 40.75 94.2" fill="#d0cfd0" fill-rule="evenodd" stroke="none"/>
    <path d="M96.85 74.95 Q96.45 76.9 94.5 76.15 L94.25 76.0 Q95.15 76.05 95.9 75.55 96.55 74.95 96.6 74.15 L96.85 74.95 M61.85 3.4 L62.2 4.8 Q61.9 6.8 59.7 6.85 L58.55 6.5 Q61.6 6.75 61.8 3.65 L61.85 3.4 M28.5 56.2 Q31.45 56.55 31.75 53.5 L31.7 53.2 32.1 54.5 Q31.75 56.55 29.65 56.6 29.0 56.55 28.5 56.2 M41.3 94.6 L41.55 95.35 Q41.2 97.4 39.25 96.6 L39.0 96.5 Q39.9 96.55 40.55 95.95 41.25 95.45 41.3 94.6" fill="#b0aeb3" fill-rule="evenodd" stroke="none"/>
    <path d="M61.1 3.6 L61.4 3.85 58.55 6.5 58.55 7.25 57.85 6.65 61.1 3.6 M31.0 53.3 L31.3 53.55 28.5 56.2 28.45 56.95 27.7 56.35 31.0 53.3" fill="#57565b" fill-rule="evenodd" stroke="none"/>
    <path d="M57.8 5.3 L57.8 5.6 57.9 5.8 57.85 6.65 Q57.35 5.75 57.45 5.45 L57.5 4.55 Q57.45 5.1 57.75 5.6 L57.8 5.3 M27.7 56.35 Q27.2 55.45 27.35 55.2 L27.4 54.3 27.65 55.35 27.7 55.0 27.7 55.05 27.7 55.35 27.75 55.5 27.75 55.55 27.7 56.35" fill="#79818b" fill-rule="evenodd" stroke="none"/>
  </g>
</svg>
