<?xml version="1.0" encoding="UTF-8" standalone="no"?>
<svg xmlns:xlink="http://www.w3.org/1999/xlink" height="111.4px" width="95.5px" xmlns="http://www.w3.org/2000/svg">
  <g transform="matrix(1.0, 0.0, 0.0, 1.0, -3.6, 0.0)">
    <path d="M58.2 26.95 L58.5 27.5 58.75 27.7 Q59.25 28.05 59.75 28.0 61.1 27.7 61.0 26.25 61.25 26.95 60.95 27.45 59.25 30.0 58.2 26.95 M96.5 71.2 L96.8 64.3 90.65 43.15 67.05 31.0 65.1 27.85 48.95 1.45 40.5 2.3 31.25 34.65 19.2 44.6 8.8 53.1 5.7 71.2 10.8 100.5 20.15 110.55 29.95 109.55 89.95 103.45 95.35 95.95 96.5 71.2 M88.4 43.15 L88.45 43.95 85.9 47.35 85.8 46.55 88.4 43.15 M89.7 44.95 Q90.05 46.25 89.15 47.25 88.05 48.45 86.65 47.8 L86.5 47.05 87.7 47.3 Q89.7 46.9 89.7 44.95 M92.45 42.75 L99.1 66.7 97.4 96.7 91.0 104.1 19.25 111.4 9.95 101.35 3.6 71.2 8.4 51.75 12.55 48.2 28.35 34.4 29.3 33.2 30.2 30.95 35.3 14.25 37.65 6.35 38.05 5.05 38.4 3.75 39.0 1.9 49.0 0.0 68.5 29.35 92.45 42.75 M45.2 7.65 Q45.5 8.6 45.05 9.45 44.05 11.25 42.15 10.6 L42.05 9.85 43.2 10.1 Q45.2 9.7 45.2 7.65 M43.9 5.95 L43.95 6.7 41.4 10.1 41.4 10.15 41.4 10.1 41.3 9.3 43.9 5.95 M34.7 35.5 Q34.9 38.7 32.3 36.75 31.95 36.45 31.95 36.0 L32.2 36.55 32.5 36.8 33.45 37.05 Q34.75 36.8 34.7 35.5 M22.85 102.65 L22.95 103.4 20.35 106.8 20.25 106.05 22.85 102.65 M24.15 104.35 L24.15 104.7 Q24.2 107.9 21.1 107.3 L21.05 106.55 22.15 106.75 Q24.15 106.4 24.15 104.35 M20.35 106.85 L20.35 106.8 20.35 106.85 M93.95 76.95 Q94.2 77.45 93.9 77.95 92.3 80.65 91.1 77.55 L91.4 78.1 91.65 78.3 Q92.1 78.75 92.65 78.6 94.05 78.35 93.95 76.95" fill="#47525f" fill-rule="evenodd" stroke="none"/>
    <path d="M65.1 27.85 L67.05 31.0 90.65 43.15 96.8 64.3 96.5 71.2 29.95 109.55 20.15 110.55 10.8 100.5 5.7 71.2 8.8 53.1 19.2 44.6 65.1 27.85 M88.45 43.95 L88.4 43.15 88.2 43.1 Q87.35 42.7 86.35 43.35 85.2 44.05 85.25 45.55 L85.4 46.0 85.9 47.35 86.65 47.8 Q88.05 48.45 89.15 47.25 90.05 46.25 89.7 44.95 L89.1 43.65 89.2 44.0 Q89.3 46.8 86.5 47.05 L88.8 44.1 88.45 43.95 M85.65 46.05 L85.65 46.0 85.65 46.05 M44.3 6.9 L44.65 6.45 Q45.0 7.7 44.3 8.7 43.5 9.9 42.05 9.85 L44.3 6.9 M22.65 102.6 Q21.95 102.2 21.05 102.6 19.6 103.35 19.7 105.0 L19.9 105.45 20.35 106.8 20.35 106.85 21.1 107.3 Q24.2 107.9 24.15 104.7 L24.15 104.35 23.55 103.15 Q23.95 106.25 21.05 106.55 L23.25 103.6 22.95 103.4 22.85 102.65 22.7 102.55 22.65 102.6 M20.1 105.5 L20.1 105.45 20.1 105.55 20.1 105.5" fill="#bab9ba" fill-rule="evenodd" stroke="none"/>
    <path d="M60.15 25.25 Q59.7 25.1 59.2 25.25 58.1 25.7 58.2 26.95 59.25 30.0 60.95 27.45 61.25 26.95 61.0 26.25 L60.65 25.6 Q60.4 25.35 60.15 25.25 M65.1 27.85 L19.2 44.6 31.25 34.65 40.5 2.3 48.95 1.45 65.1 27.85 M29.95 109.55 L96.5 71.2 95.35 95.95 89.95 103.45 29.95 109.55 M44.3 6.9 L43.95 6.7 43.9 5.95 43.75 5.9 Q42.8 5.5 41.9 6.1 40.7 6.85 40.8 8.3 L40.95 8.75 41.4 10.15 42.15 10.6 Q44.05 11.25 45.05 9.45 45.5 8.6 45.2 7.65 L44.65 6.45 44.3 6.9 M41.2 8.75 L41.15 8.85 41.2 8.75 M31.95 36.0 Q31.95 36.45 32.3 36.75 34.9 38.7 34.7 35.5 L34.75 35.35 34.4 34.7 33.9 34.35 Q33.35 34.15 32.95 34.35 31.8 34.8 31.95 36.0 M93.95 76.95 L93.55 76.2 93.1 75.9 92.05 75.85 Q90.95 76.3 91.1 77.55 92.3 80.65 93.9 77.95 94.2 77.45 93.95 76.95" fill="#9c9c9c" fill-rule="evenodd" stroke="none"/>
    <path d="M88.45 43.95 L88.8 44.1 86.5 47.05 86.65 47.8 85.9 47.35 88.45 43.95 M43.95 6.7 L44.3 6.9 42.05 9.85 42.15 10.6 41.4 10.15 41.4 10.1 43.95 6.7 M22.95 103.4 L23.25 103.6 21.05 106.55 21.1 107.3 20.35 106.85 20.35 106.8 22.95 103.4" fill="#57565b" fill-rule="evenodd" stroke="none"/>
    <path d="M85.9 47.35 L85.4 46.0 85.65 46.35 85.65 46.05 85.65 46.35 85.8 46.55 85.9 47.35 M41.4 10.15 L40.95 8.75 41.15 9.15 41.15 8.85 41.2 9.15 41.3 9.3 41.4 10.1 41.4 10.15 M19.9 105.45 L20.1 105.85 20.1 105.5 20.1 105.55 20.15 105.85 20.25 106.05 20.35 106.8 19.9 105.45 M20.35 106.85 L20.35 106.8 20.35 106.85" fill="#79818b" fill-rule="evenodd" stroke="none"/>
    <path d="M58.5 27.5 Q58.4 26.65 58.9 26.0 59.4 25.3 60.15 25.25 60.4 25.35 60.65 25.6 60.85 27.4 59.15 27.7 L58.75 27.7 58.5 27.5 M88.2 43.1 L88.4 43.15 85.8 46.55 85.65 46.35 85.65 46.05 85.65 46.0 85.8 45.5 Q86.55 43.9 88.2 43.1 M43.75 5.9 L43.9 5.95 41.3 9.3 41.2 9.15 41.15 8.85 41.2 8.75 Q41.8 7.0 43.3 6.1 L43.75 5.9 M32.5 36.8 L32.2 36.55 Q32.1 35.7 32.6 35.05 33.1 34.4 33.9 34.35 L34.4 34.7 Q34.55 36.5 32.85 36.8 L32.5 36.8 M20.1 105.45 Q20.7 103.75 22.25 102.8 L22.65 102.6 22.7 102.55 22.85 102.65 20.25 106.05 20.15 105.85 20.1 105.55 20.1 105.45 M93.1 75.9 L93.55 76.2 Q93.75 77.95 92.0 78.35 L91.65 78.3 91.4 78.1 Q91.3 77.25 91.8 76.6 92.3 76.0 93.1 75.9" fill="#d0cfd0" fill-rule="evenodd" stroke="none"/>
    <path d="M60.15 25.25 Q59.4 25.3 58.9 26.0 58.4 26.65 58.5 27.5 L58.2 26.95 Q58.1 25.7 59.2 25.25 59.7 25.1 60.15 25.25 M85.4 46.0 L85.25 45.55 Q85.2 44.05 86.35 43.35 87.35 42.7 88.2 43.1 86.55 43.9 85.8 45.5 L85.65 46.0 85.65 46.05 85.65 46.35 85.4 46.0 M40.95 8.75 L40.8 8.3 Q40.7 6.85 41.9 6.1 42.8 5.5 43.75 5.9 L43.3 6.1 Q41.8 7.0 41.2 8.75 L41.15 8.85 41.15 9.15 40.95 8.75 M32.2 36.55 L31.95 36.0 Q31.8 34.8 32.95 34.35 33.35 34.15 33.9 34.35 33.1 34.4 32.6 35.05 32.1 35.7 32.2 36.55 M19.9 105.45 L19.7 105.0 Q19.6 103.35 21.05 102.6 21.95 102.2 22.65 102.6 L22.25 102.8 Q20.7 103.75 20.1 105.45 L20.1 105.5 20.1 105.85 19.9 105.45 M91.1 77.55 Q90.95 76.3 92.05 75.85 L93.1 75.9 Q92.3 76.0 91.8 76.6 91.3 77.25 91.4 78.1 L91.1 77.55" fill="#e9e9eb" fill-rule="evenodd" stroke="none"/>
    <path d="M58.75 27.7 L59.15 27.7 Q60.85 27.4 60.65 25.6 L61.0 26.25 Q61.1 27.7 59.75 28.0 59.25 28.05 58.75 27.7 M86.5 47.05 Q89.3 46.8 89.2 44.0 L89.1 43.65 89.7 44.95 Q89.7 46.9 87.7 47.3 L86.5 47.05 M44.65 6.45 L45.2 7.65 Q45.2 9.7 43.2 10.1 L42.05 9.85 Q43.5 9.9 44.3 8.7 45.0 7.7 44.65 6.45 M34.7 35.5 Q34.75 36.8 33.45 37.05 L32.5 36.8 32.85 36.8 Q34.55 36.5 34.4 34.7 L34.75 35.35 34.7 35.5 M21.05 106.55 Q23.95 106.25 23.55 103.15 L24.15 104.35 Q24.15 106.4 22.15 106.75 L21.05 106.55 M93.55 76.2 L93.95 76.95 Q94.05 78.35 92.65 78.6 92.1 78.75 91.65 78.3 L92.0 78.35 Q93.75 77.95 93.55 76.2" fill="#b0aeb3" fill-rule="evenodd" stroke="none"/>
  </g>
</svg>
