<?xml version="1.0" encoding="UTF-8" standalone="no"?>
<svg xmlns:xlink="http://www.w3.org/1999/xlink" height="104.45px" width="311.9px" xmlns="http://www.w3.org/2000/svg">
  <g transform="matrix(1.0, 0.0, 0.0, 1.0, 126.6, 67.1)">
    <path d="M55.65 -63.85 L51.25 -63.75 50.65 -63.75 50.35 -66.95 50.95 -67.0 51.05 -67.0 55.35 -67.1 55.65 -63.85 M185.25 8.25 L185.25 8.2 185.3 8.25 185.25 8.25 M183.5 6.1 L183.45 6.1 Q132.2 4.3 73.15 3.75 45.2 3.45 15.55 3.5 L14.25 3.5 10.85 3.5 8.55 3.5 -41.25 3.65 -60.1 3.8 -68.05 3.85 -68.0 4.2 -68.3 4.2 -70.6 4.25 -89.05 4.6 -120.15 5.35 -124.75 5.45 -124.35 3.1 -107.9 2.3 -89.35 1.6 -70.9 1.05 -70.05 1.05 -70.1 0.6 -60.7 0.5 Q-18.0 0.1 27.1 0.3 L47.05 1.6 66.7 3.0 Q67.55 2.8 69.15 1.5 70.7 0.2 71.65 0.0 135.4 0.5 179.35 3.85 L183.5 6.1 M176.25 8.0 L176.45 8.4 177.65 11.45 178.5 13.65 Q179.3 12.8 179.7 10.9 179.7 9.8 179.25 9.1 L179.9 9.55 Q180.65 10.3 180.7 11.75 179.85 15.7 177.15 15.05 175.8 14.75 175.1 13.85 L176.15 14.2 177.35 14.25 176.45 12.35 174.9 8.8 174.8 8.5 174.95 8.35 Q175.75 7.8 176.25 8.0 M178.25 27.3 L179.85 27.15 Q180.5 27.3 181.25 27.95 183.6 31.2 181.35 32.8 180.2 33.6 179.1 33.5 L180.8 32.15 178.8 31.55 175.1 30.4 175.2 29.1 175.2 29.0 175.25 28.7 175.4 28.75 175.85 28.9 178.95 30.05 181.1 30.85 Q181.0 29.65 179.9 28.15 179.05 27.45 178.25 27.3 M-117.45 6.8 L-117.3 7.2 -115.95 10.7 -114.95 13.15 Q-114.05 12.2 -113.6 10.1 -113.6 8.8 -114.15 8.0 -112.8 8.6 -112.5 10.3 L-112.9 12.6 Q-114.05 15.35 -116.5 14.8 -117.9 14.5 -118.65 13.65 L-118.8 13.45 -117.65 13.85 -116.3 13.9 -117.3 11.65 -119.05 7.7 -117.9 6.85 -117.45 6.8 M-117.25 25.55 Q-115.65 24.6 -113.75 26.05 -111.65 28.6 -112.3 30.35 -112.6 31.0 -113.25 31.55 -114.45 32.5 -115.7 32.5 L-113.9 30.85 -116.25 30.3 -120.45 29.3 -120.5 27.8 -120.5 27.35 -120.3 27.4 -119.75 27.6 -116.2 28.65 -113.7 29.35 Q-113.9 28.05 -115.3 26.4 -116.3 25.6 -117.25 25.55" fill="#47525f" fill-rule="evenodd" stroke="none"/>
    <path d="M-126.6 36.95 L-125.9 23.15 -125.05 7.25 -124.75 5.45 -120.15 5.35 -123.45 8.55 -124.7 36.7 -126.6 36.95" fill="#cdcdcd" fill-rule="evenodd" stroke="none"/>
    <path d="M-118.8 13.45 L-118.65 13.65 -119.65 13.8 -119.45 26.45 -120.3 27.4 -120.5 27.35 -120.5 27.8 Q-121.5 29.75 -119.9 31.8 -117.7 33.45 -115.7 32.5 -114.45 32.5 -113.25 31.55 -112.6 31.0 -112.3 30.35 L-110.2 30.45 -90.0 31.55 -86.55 31.75 -70.15 32.85 -86.45 33.15 -88.65 33.15 -111.55 33.0 -122.8 32.85 -121.4 10.3 -120.65 10.3 Q-120.5 12.55 -118.8 13.45 M-112.9 12.6 L-112.5 10.3 -100.2 10.25 -112.9 12.6" fill="#848484" fill-rule="evenodd" stroke="none"/>
    <path d="M175.1 13.85 Q175.8 14.75 177.15 15.05 179.85 15.7 180.7 11.75 180.65 10.3 179.9 9.55 L180.85 9.65 179.85 27.15 178.25 27.3 177.7 27.3 177.8 15.2 160.95 13.3 Q144.35 11.4 115.0 6.95 144.55 7.2 162.45 8.35 L174.1 9.15 Q173.65 9.7 173.4 10.6 173.45 12.95 175.1 13.85 M175.3 32.3 L137.05 30.55 175.2 29.0 175.2 29.1 Q174.3 30.55 175.3 32.3" fill="#a09fa0" fill-rule="evenodd" stroke="none"/>
    <path d="M176.45 8.4 L176.25 8.0 176.9 7.95 Q178.55 8.05 179.25 9.1 179.7 9.8 179.7 10.9 179.3 12.8 178.5 13.65 L177.65 11.45 178.05 10.25 Q178.0 8.55 176.45 8.4 M174.8 8.5 L174.9 8.8 Q174.35 9.2 174.15 10.05 174.2 11.9 175.85 12.3 L176.45 12.35 177.35 14.25 176.15 14.2 175.1 13.85 Q173.45 12.95 173.4 10.6 173.65 9.7 174.1 9.15 L174.8 8.5 M177.7 27.3 L178.25 27.3 Q179.05 27.45 179.9 28.15 181.0 29.65 181.1 30.85 L178.95 30.05 178.3 28.9 Q177.0 27.8 175.85 28.9 L175.4 28.75 175.8 28.3 Q176.7 27.35 177.7 27.3 M179.1 33.5 Q177.3 34.2 175.5 32.65 L175.3 32.3 Q174.3 30.55 175.2 29.1 L175.1 30.4 Q175.25 32.1 176.95 32.35 178.0 32.25 178.8 31.55 L180.8 32.15 179.1 33.5 M-117.3 7.2 L-117.45 6.8 -116.75 6.75 Q-114.9 6.85 -114.15 8.0 -113.6 8.8 -113.6 10.1 -114.05 12.2 -114.95 13.15 L-115.95 10.7 -115.45 9.3 Q-115.5 7.4 -117.3 7.2 M-117.9 6.85 L-119.05 7.7 Q-119.65 8.15 -119.9 9.1 -119.85 11.2 -117.95 11.6 L-117.3 11.65 -116.3 13.9 -117.65 13.85 -118.8 13.45 Q-120.5 12.55 -120.65 10.3 L-120.7 9.8 Q-120.05 7.25 -117.9 6.85 M-119.45 26.45 Q-118.45 25.45 -117.25 25.55 -116.3 25.6 -115.3 26.4 -113.9 28.05 -113.7 29.35 L-116.2 28.65 Q-116.9 26.9 -118.6 26.85 L-119.75 27.6 -120.3 27.4 -119.45 26.45 M-115.7 32.5 Q-117.7 33.45 -119.9 31.8 -121.5 29.75 -120.5 27.8 L-120.45 29.3 Q-120.2 31.15 -118.45 31.35 -116.95 31.45 -116.25 30.3 L-113.9 30.85 -115.7 32.5" fill="#9c9c9c" fill-rule="evenodd" stroke="none"/>
    <path d="M174.9 8.8 L176.45 12.35 175.85 12.3 Q174.2 11.9 174.15 10.05 174.35 9.2 174.9 8.8 M177.65 11.45 L176.45 8.4 Q178.0 8.55 178.05 10.25 L177.65 11.45 M178.95 30.05 L175.85 28.9 Q177.0 27.8 178.3 28.9 L178.95 30.05 M175.1 30.4 L178.8 31.55 Q178.0 32.25 176.95 32.35 175.25 32.1 175.1 30.4 M-119.05 7.7 L-117.3 11.65 -117.95 11.6 Q-119.85 11.2 -119.9 9.1 -119.65 8.15 -119.05 7.7 M-115.95 10.7 L-117.3 7.2 Q-115.5 7.4 -115.45 9.3 L-115.95 10.7 M-116.2 28.65 L-119.75 27.6 -118.6 26.85 Q-116.9 26.9 -116.2 28.65 M-120.45 29.3 L-116.25 30.3 Q-116.95 31.45 -118.45 31.35 -120.2 31.15 -120.45 29.3" fill="#d5d4d4" fill-rule="evenodd" stroke="none"/>
    <path d="M185.25 8.2 L185.25 8.25 185.1 13.45 184.65 27.3 184.3 36.25 Q157.35 34.75 133.85 35.55 L89.2 37.0 71.2 36.9 66.65 36.8 66.6 36.3 63.75 4.95 63.65 3.85 68.1 3.8 73.15 3.75 Q132.2 4.3 183.45 6.1 L183.5 6.1 185.3 6.25 185.25 8.2 M176.25 8.0 Q175.75 7.8 174.95 8.35 L174.8 8.5 174.1 9.15 162.45 8.35 Q144.55 7.2 115.0 6.95 144.35 11.4 160.95 13.3 L177.8 15.2 177.7 27.3 Q176.7 27.35 175.8 28.3 L175.4 28.75 175.25 28.7 175.2 29.0 137.05 30.55 175.3 32.3 175.5 32.65 Q177.3 34.2 179.1 33.5 180.2 33.6 181.35 32.8 183.6 31.2 181.25 27.95 180.5 27.3 179.85 27.15 L180.85 9.65 179.9 9.55 179.25 9.1 Q178.55 8.05 176.9 7.95 L176.25 8.0" fill="url(#gradient0)" fill-rule="evenodd" stroke="none"/>
    <path d="M-53.5 35.55 L-65.05 36.9 -67.65 36.85 -83.1 36.1 -86.2 35.95 Q-106.25 34.9 -126.6 37.0 L-126.6 36.95 -124.7 36.7 -123.45 8.55 -120.15 5.35 -89.05 4.6 -70.6 4.25 -68.3 4.2 -68.0 4.2 -53.5 35.55 M-117.45 6.8 L-117.9 6.85 Q-120.05 7.25 -120.7 9.8 L-120.65 10.3 -121.4 10.3 -122.8 32.85 -111.55 33.0 -88.65 33.15 -86.45 33.15 -70.15 32.85 -86.55 31.75 -90.0 31.55 -110.2 30.45 -112.3 30.35 Q-111.65 28.6 -113.75 26.05 -115.65 24.6 -117.25 25.55 -118.45 25.45 -119.45 26.45 L-119.65 13.8 -118.65 13.65 Q-117.9 14.5 -116.5 14.8 -114.05 15.35 -112.9 12.6 L-100.2 10.25 -112.5 10.3 Q-112.8 8.6 -114.15 8.0 -114.9 6.85 -116.75 6.75 L-117.45 6.8" fill="url(#gradient1)" fill-rule="evenodd" stroke="none"/>
    <path d="M63.75 4.95 L66.6 36.3 65.7 36.45 -7.0 36.35 -18.7 36.3 Q-52.35 38.7 -53.5 35.55 L-68.0 4.2 -68.05 3.85 -60.1 3.8 -41.25 3.65 8.55 3.5 10.85 3.5 14.25 3.5 15.55 3.5 Q42.95 3.95 63.75 4.95" fill="url(#gradient2)" fill-rule="evenodd" stroke="none"/>
  </g>
  <defs>
    <linearGradient gradientTransform="matrix(0.1131, 0.0, 0.0, 0.0204, 92.65, 20.25)" gradientUnits="userSpaceOnUse" id="gradient0" spreadMethod="pad" x1="-819.2" x2="819.2">
      <stop offset="0.0" stop-color="#9a9a9a"/>
      <stop offset="1.0" stop-color="#ffffff"/>
    </linearGradient>
    <linearGradient gradientTransform="matrix(0.1131, 0.0, 0.0, 0.0204, -34.0, 20.5)" gradientUnits="userSpaceOnUse" id="gradient1" spreadMethod="pad" x1="-819.2" x2="819.2">
      <stop offset="0.0" stop-color="#9a9a9a"/>
      <stop offset="1.0" stop-color="#ffffff"/>
    </linearGradient>
    <linearGradient gradientTransform="matrix(1.8889, 0.0, 0.0, 0.0204, 500.05, 19.9)" gradientUnits="userSpaceOnUse" id="gradient2" spreadMethod="pad" x1="-819.2" x2="819.2">
      <stop offset="0.0" stop-color="#9a9a9a"/>
      <stop offset="1.0" stop-color="#ffffff"/>
    </linearGradient>
  </defs>
</svg>
