<?xml version="1.0" encoding="UTF-8" standalone="no"?>
<svg xmlns:xlink="http://www.w3.org/1999/xlink" height="91.0px" width="83.55px" xmlns="http://www.w3.org/2000/svg">
  <g transform="matrix(1.0, 0.0, 0.0, 1.0, -16.1, 7.15)">
    <path d="M98.4 9.6 L99.65 9.85 85.05 83.85 24.5 71.9 Q21.4 71.45 18.75 70.0 15.55 68.25 16.25 64.7 L30.4 -7.15 90.95 4.9 90.7 6.25 98.4 9.6" fill="#ffffff" fill-rule="evenodd" stroke="none"/>
    <path d="M95.3 12.25 L96.45 12.45 83.2 79.45 28.4 68.6 41.65 1.7 95.3 12.25 M92.15 14.35 L91.2 13.85 Q90.1 13.35 89.2 14.2 87.55 15.65 88.95 17.6 L89.05 17.65 89.1 17.7 90.4 18.9 Q92.65 18.8 93.2 16.8 L93.2 15.9 92.9 15.15 92.15 14.35 M77.95 74.5 L78.0 74.55 78.1 74.65 Q78.45 75.4 79.3 75.7 81.3 76.6 82.15 73.95 82.45 72.95 81.95 72.25 L81.8 72.05 81.4 71.6 Q81.05 71.05 80.1 70.65 78.95 70.25 78.15 71.1 76.3 72.65 77.95 74.5 M86.45 42.5 L86.7 41.6 38.55 31.95 38.3 33.1 86.45 42.5 M44.25 4.9 L43.8 4.9 Q41.95 6.45 43.25 8.6 L43.25 8.75 43.3 8.7 43.35 8.75 Q43.8 9.55 44.6 9.9 46.65 10.7 47.55 8.0 47.85 7.05 47.35 6.4 L47.2 6.2 46.4 5.45 45.8 5.25 44.25 4.9 M55.6 41.7 L53.6 42.85 54.45 45.55 52.8 46.55 49.95 44.95 48.55 46.45 48.55 46.9 50.3 49.3 Q49.65 50.0 49.4 50.9 L46.2 51.1 45.6 53.25 45.55 53.8 48.5 55.0 48.5 56.55 46.05 58.6 47.2 60.95 47.45 61.4 49.9 60.8 50.7 62.05 49.55 64.5 49.6 64.95 51.3 66.85 53.9 64.85 55.05 65.4 55.5 68.15 55.75 68.7 58.4 69.0 59.4 66.35 61.0 66.25 63.2 69.15 65.45 68.05 64.6 65.05 66.75 63.6 68.95 65.3 71.15 63.8 70.75 63.45 68.8 61.15 69.75 59.2 72.9 59.2 73.9 57.1 73.45 56.8 70.45 55.65 70.35 53.6 73.15 51.75 72.9 51.35 71.9 49.25 71.6 49.05 68.95 49.9 68.05 48.55 69.5 46.4 69.25 45.95 67.4 44.15 64.95 45.75 63.65 45.15 63.65 42.05 63.25 41.7 60.7 41.05 59.7 44.3 57.75 44.4 56.3 42.05 55.6 41.7 M35.7 62.7 Q34.85 61.35 33.45 61.65 32.8 61.75 32.4 62.15 30.75 63.65 32.1 65.45 L32.25 65.6 33.5 66.8 35.4 66.1 36.1 65.55 Q36.85 64.25 36.05 63.05 L35.7 62.7 M71.6 49.05 L71.75 49.35 Q71.8 49.25 71.9 49.25 L71.75 49.35 71.6 49.05 M58.9 66.3 L59.1 66.35 58.95 66.4 58.9 66.3" fill="url(#gradient0)" fill-rule="evenodd" stroke="none"/>
    <path d="M28.4 68.6 Q25.6 68.25 23.2 66.95 20.35 65.35 20.95 62.1 L33.75 -2.95 88.55 8.0 89.3 8.45 89.3 9.4 88.35 9.2 88.55 8.0 88.3 9.2 35.4 -1.35 36.8 -0.4 Q40.0 1.25 41.65 1.7 L28.4 68.6 M92.9 15.15 L93.2 15.9 93.2 16.8 Q92.65 18.8 90.4 18.9 L89.1 17.7 Q90.4 18.8 91.5 18.05 93.05 16.95 92.8 15.25 L92.9 15.15 M81.65 72.15 L81.8 72.05 81.95 72.25 Q82.45 72.95 82.15 73.95 81.3 76.6 79.3 75.7 78.45 75.4 78.1 74.65 L78.7 75.0 80.2 74.7 Q81.8 73.9 81.65 72.15 M47.2 6.2 L47.35 6.4 Q47.85 7.05 47.55 8.0 46.65 10.7 44.6 9.9 43.8 9.55 43.35 8.75 L44.05 9.2 45.55 8.8 Q47.15 8.05 47.0 6.35 L47.2 6.2 M36.05 63.05 Q36.85 64.25 36.1 65.55 L35.4 66.1 33.5 66.8 32.25 65.6 32.95 66.05 34.45 65.75 Q35.8 65.0 35.9 63.2 L36.05 63.05" fill="#30100b" fill-rule="evenodd" stroke="none"/>
    <path d="M89.45 16.3 Q88.8 15.8 89.15 14.85 89.5 13.6 90.9 13.9 L91.85 14.6 89.45 16.3 M91.6 16.05 Q91.1 16.85 90.45 16.75 L91.6 16.05 M80.7 71.5 L78.4 73.15 Q77.55 72.2 78.4 71.2 L78.7 70.9 Q80.0 70.35 80.7 71.5 M43.85 7.35 L43.5 6.95 Q43.2 6.45 43.45 5.85 43.6 5.05 44.25 4.9 L45.8 5.25 46.1 5.65 43.85 7.35 M32.6 64.25 Q31.95 63.75 32.3 62.75 32.65 61.5 34.0 61.9 34.75 62.05 34.95 62.55 L32.6 64.25" fill="#a5a3a3" fill-rule="evenodd" stroke="none"/>
    <path d="M88.95 17.6 Q87.55 15.65 89.2 14.2 90.1 13.35 91.2 13.85 L92.15 14.35 91.85 14.6 90.9 13.9 Q89.5 13.6 89.15 14.85 88.8 15.8 89.45 16.3 L88.7 16.9 88.95 17.6 M89.1 17.7 L89.05 17.65 90.45 16.75 Q91.1 16.85 91.6 16.05 L92.8 15.25 Q93.05 16.95 91.5 18.05 90.4 18.8 89.1 17.7 M81.4 71.6 L81.05 71.25 80.7 71.5 Q80.0 70.35 78.7 70.9 L78.4 71.2 Q77.55 72.2 78.4 73.15 L77.65 73.7 77.95 74.5 Q76.3 72.65 78.15 71.1 78.95 70.25 80.1 70.65 81.05 71.05 81.4 71.6 M78.0 74.55 L79.4 73.65 Q80.05 73.65 80.45 72.95 L81.65 72.15 Q81.8 73.9 80.2 74.7 L78.7 75.0 78.1 74.65 78.0 74.55 M43.25 8.6 Q41.95 6.45 43.8 4.9 L44.25 4.9 Q43.6 5.05 43.45 5.85 43.2 6.45 43.5 6.95 L43.85 7.35 42.95 7.9 43.25 8.6 M45.8 5.25 L46.4 5.45 46.1 5.65 45.8 5.25 M43.35 8.75 L43.3 8.7 47.0 6.35 Q47.15 8.05 45.55 8.8 L44.05 9.2 43.35 8.75 M32.1 65.45 Q30.75 63.65 32.4 62.15 32.8 61.75 33.45 61.65 34.85 61.35 35.7 62.7 L35.35 62.35 34.95 62.55 Q34.75 62.05 34.0 61.9 32.65 61.5 32.3 62.75 31.95 63.75 32.6 64.25 L31.85 64.75 32.1 65.45 M32.25 65.6 L34.3 64.55 35.9 63.2 Q35.8 65.0 34.45 65.75 L32.95 66.05 32.25 65.6" fill="#9c9c9c" fill-rule="evenodd" stroke="none"/>
    <path d="M88.95 17.6 L88.7 16.9 89.45 16.3 91.85 14.6 92.15 14.35 92.9 15.15 92.8 15.25 91.6 16.05 90.45 16.75 89.05 17.65 88.95 17.6 M80.7 71.5 L81.05 71.25 81.4 71.6 81.8 72.05 81.65 72.15 80.45 72.95 Q80.05 73.65 79.4 73.65 L78.0 74.55 77.95 74.5 77.65 73.7 78.4 73.15 80.7 71.5 M43.25 8.6 L42.95 7.9 43.85 7.35 46.1 5.65 46.4 5.45 47.2 6.2 47.0 6.35 43.3 8.7 43.25 8.75 43.25 8.6 M35.7 62.7 L36.05 63.05 35.9 63.2 34.3 64.55 32.25 65.6 32.1 65.45 31.85 64.75 32.6 64.25 34.95 62.55 35.35 62.35 35.7 62.7 M62.4 53.05 Q60.9 50.8 58.25 51.2 57.6 51.45 57.1 51.85 54.3 54.0 56.05 57.15 57.7 59.8 60.75 58.6 L61.95 57.85 Q63.15 56.75 63.15 55.2 63.1 54.05 62.4 53.05 M65.5 50.65 Q67.25 53.3 66.75 56.45 66.05 59.55 63.45 61.35 60.75 63.1 57.7 62.55 54.6 61.9 52.8 59.25 51.0 56.55 51.65 53.45 52.2 50.4 54.85 48.6 57.4 46.75 60.6 47.45 63.7 48.0 65.5 50.65 M66.0 50.55 Q64.05 47.7 60.8 47.1 57.45 46.4 54.7 48.35 51.9 50.25 51.3 53.55 50.55 56.8 52.45 59.65 54.4 62.5 57.6 63.15 60.95 63.7 63.75 61.85 66.6 60.0 67.25 56.7 67.75 53.4 66.0 50.55 M64.9 63.2 Q61.35 65.5 57.25 64.75 53.05 63.9 50.75 60.4 48.3 56.9 49.2 52.8 49.95 48.55 53.5 46.3 56.9 44.0 61.15 44.7 65.25 45.55 67.65 49.1 69.95 52.5 69.2 56.7 68.35 60.8 64.9 63.2" fill="#5e5e5e" fill-rule="evenodd" stroke="none"/>
    <path d="M88.3 9.2 L95.3 12.25 41.65 1.7 Q40.0 1.25 36.8 -0.4 L35.4 -1.35 88.3 9.2" fill="#edf8fb" fill-rule="evenodd" stroke="none"/>
    <path d="M86.45 42.5 L38.3 33.1 38.55 31.95 86.7 41.6 86.45 42.5 M55.6 41.7 L56.3 42.05 57.75 44.4 59.7 44.3 63.4 45.05 63.25 41.7 63.65 42.05 63.65 45.15 64.95 45.75 Q66.6 46.65 67.8 48.25 L69.25 45.95 69.5 46.4 68.05 48.55 68.95 49.9 Q69.85 51.4 70.2 53.05 L72.9 51.35 71.75 49.35 71.9 49.25 Q71.8 49.25 71.75 49.35 L71.6 49.05 71.9 49.25 72.9 51.35 73.15 51.75 70.35 53.6 70.45 55.65 69.9 58.75 72.65 58.75 73.45 56.8 73.9 57.1 72.9 59.2 69.75 59.2 68.8 61.15 66.95 63.45 68.7 64.85 70.75 63.45 71.15 63.8 68.95 65.3 66.75 63.6 64.6 65.05 65.45 68.05 63.2 69.15 61.0 66.25 59.4 66.35 58.4 69.0 55.75 68.7 55.5 68.15 58.25 68.6 58.95 66.4 59.1 66.35 58.9 66.3 55.05 65.4 53.9 64.85 51.3 66.85 49.6 64.95 49.55 64.5 51.05 66.3 53.4 64.55 Q51.9 63.55 50.7 62.05 L49.9 60.8 47.45 61.4 47.2 60.95 49.65 60.35 Q48.65 58.5 48.5 56.55 L48.5 55.0 45.55 53.8 45.6 53.25 48.55 54.6 49.4 50.9 Q49.65 50.0 50.3 49.3 L48.55 46.9 48.55 46.45 50.35 49.25 Q51.3 47.65 52.8 46.55 L54.45 45.55 Q55.9 44.7 57.7 44.4 L55.6 41.7 M61.1 66.25 L63.05 68.7 65.2 67.65 64.55 65.1 61.1 66.25 M64.9 63.2 Q68.35 60.8 69.2 56.7 69.95 52.5 67.65 49.1 65.25 45.55 61.15 44.7 56.9 44.0 53.5 46.3 49.95 48.55 49.2 52.8 48.3 56.9 50.75 60.4 53.05 63.9 57.25 64.75 61.35 65.5 64.9 63.2" fill="#0d0d0d" fill-rule="evenodd" stroke="none"/>
    <path d="M54.45 45.55 L53.6 42.85 55.6 41.7 57.7 44.4 Q55.9 44.7 54.45 45.55 M59.7 44.3 L60.7 41.05 63.25 41.7 63.4 45.05 59.7 44.3 M64.95 45.75 L67.4 44.15 69.25 45.95 67.8 48.25 Q66.6 46.65 64.95 45.75 M68.95 49.9 L71.6 49.05 71.75 49.35 72.9 51.35 70.2 53.05 Q69.85 51.4 68.95 49.9 M70.45 55.65 L73.45 56.8 72.65 58.75 69.9 58.75 70.45 55.65 M68.8 61.15 L70.75 63.45 68.7 64.85 66.95 63.45 68.8 61.15 M55.5 68.15 L55.05 65.4 58.9 66.3 58.95 66.4 58.25 68.6 55.5 68.15 M49.55 64.5 L50.7 62.05 Q51.9 63.55 53.4 64.55 L51.05 66.3 49.55 64.5 M47.2 60.95 L46.05 58.6 48.5 56.55 Q48.65 58.5 49.65 60.35 L47.2 60.95 M45.6 53.25 L46.2 51.1 49.4 50.9 48.55 54.6 45.6 53.25 M48.55 46.45 L49.95 44.95 52.8 46.55 Q51.3 47.65 50.35 49.25 L48.55 46.45 M65.5 50.65 Q63.7 48.0 60.6 47.45 57.4 46.75 54.85 48.6 52.2 50.4 51.65 53.45 51.0 56.55 52.8 59.25 54.6 61.9 57.7 62.55 60.75 63.1 63.45 61.35 66.05 59.55 66.75 56.45 67.25 53.3 65.5 50.65 M66.0 50.55 Q67.75 53.4 67.25 56.7 66.6 60.0 63.75 61.85 60.95 63.7 57.6 63.15 54.4 62.5 52.45 59.65 50.55 56.8 51.3 53.55 51.9 50.25 54.7 48.35 57.45 46.4 60.8 47.1 64.05 47.7 66.0 50.55 M61.1 66.25 L64.55 65.1 65.2 67.65 63.05 68.7 61.1 66.25" fill="#292929" fill-rule="evenodd" stroke="none"/>
    <path d="M56.05 57.15 Q54.3 54.0 57.1 51.85 57.6 51.45 58.25 51.2 60.9 50.8 62.4 53.05 60.6 50.75 57.95 51.75 56.4 52.3 55.9 53.8 55.25 55.5 56.05 57.15" fill="#ffffff" fill-rule="evenodd" stroke="none"/>
    <path d="M62.4 53.05 Q63.1 54.05 63.15 55.2 63.15 56.75 61.95 57.85 L60.75 58.6 Q57.7 59.8 56.05 57.15 55.25 55.5 55.9 53.8 56.4 52.3 57.95 51.75 60.6 50.75 62.4 53.05" fill="#d3170a" fill-rule="evenodd" stroke="none"/>
  </g>
  <defs>
    <linearGradient gradientTransform="matrix(0.0436, 0.0098, -0.008, 0.0485, 62.5, 40.5)" gradientUnits="userSpaceOnUse" id="gradient0" spreadMethod="pad" x1="-819.2" x2="819.2">
      <stop offset="0.0" stop-color="#650c0b"/>
      <stop offset="0.5490196078431373" stop-color="#e1180a"/>
      <stop offset="1.0" stop-color="#650c0b"/>
    </linearGradient>
  </defs>
</svg>
