<?xml version="1.0" encoding="UTF-8" standalone="no"?>
<svg xmlns:xlink="http://www.w3.org/1999/xlink" height="55.15px" width="117.6px" xmlns="http://www.w3.org/2000/svg">
  <g transform="matrix(1.0, 0.0, 0.0, 1.0, 0.0, 0.0)">
    <path d="M110.8 42.2 L113.45 41.95 Q116.0 41.65 116.7 43.85 118.35 49.45 116.95 55.15 L109.55 55.15 110.75 52.35 Q112.3 52.4 112.85 51.9 113.95 50.85 112.6 48.25 114.65 43.5 115.4 43.5 116.3 43.5 116.6 45.7 116.4 43.45 115.6 42.9 L110.8 42.75 110.8 42.2 M103.75 44.45 L103.65 45.1 100.7 43.05 100.35 42.45 103.75 44.45" fill="#290e2e" fill-rule="evenodd" stroke="none"/>
    <path d="M110.8 42.75 L115.6 42.9 Q116.4 43.45 116.6 45.7 116.3 43.5 115.4 43.5 114.65 43.5 112.6 48.25 L112.0 47.35 112.5 46.25 Q113.6 44.15 114.4 43.15 113.45 42.55 110.75 43.5 L110.8 42.75 M103.6 45.45 L103.25 45.7 Q102.4 44.75 101.2 44.1 L100.7 43.05 103.65 45.1 103.6 45.45" fill="#7f3d8c" fill-rule="evenodd" stroke="none"/>
    <path d="M110.75 52.35 L109.55 55.15 109.35 55.15 109.75 52.3 110.75 52.35 M108.3 55.15 L99.45 55.15 Q101.05 52.45 101.55 49.85 L102.7 50.65 102.25 53.55 108.3 55.15 M112.0 47.35 Q111.4 46.4 110.6 45.8 L110.75 43.5 Q113.45 42.55 114.4 43.15 113.6 44.15 112.5 46.25 L112.0 47.35 M103.25 45.7 L101.75 47.25 101.2 44.1 Q102.4 44.75 103.25 45.7" fill="#5c226c" fill-rule="evenodd" stroke="none"/>
    <path d="M110.8 42.2 L110.8 42.75 110.75 43.5 110.6 45.8 110.15 45.5 Q110.95 37.15 109.3 36.1 106.9 34.55 98.4 34.5 L98.2 34.05 Q107.35 34.3 109.7 35.85 111.0 36.75 110.8 42.2 M109.35 55.15 L108.3 55.15 102.25 53.55 102.7 50.65 103.3 50.9 102.85 53.25 107.25 54.7 108.7 55.1 109.2 52.25 109.75 52.3 109.35 55.15 M43.35 52.4 L40.55 53.55 Q36.75 55.0 34.5 52.4 L25.75 42.65 25.25 42.1 24.3 41.05 Q23.8 39.15 25.75 37.9 27.55 36.75 28.8 37.5 L30.5 39.4 31.05 40.0 32.5 41.6 37.0 46.8 38.4 48.5 41.8 47.3 43.15 46.8 43.75 47.15 37.75 48.9 28.5 37.8 27.9 37.65 Q25.65 37.65 24.75 39.8 L24.8 40.85 35.25 52.3 36.65 53.25 38.15 53.45 41.9 52.3 46.2 50.7 46.15 50.3 46.4 51.1 Q44.9 51.7 43.35 52.4 M36.95 18.15 Q36.6 11.7 41.3 7.3 L42.65 6.15 Q43.9 0.7 49.65 0.1 54.0 -0.55 56.6 2.65 65.2 1.95 69.65 9.3 L70.75 11.55 72.05 15.3 71.4 15.4 Q70.0 9.85 65.6 6.1 60.55 1.8 54.2 3.65 L56.05 2.7 55.5 2.25 Q52.15 -0.35 48.0 0.95 46.35 1.5 45.1 2.75 43.75 4.05 43.5 5.7 L45.1 5.45 Q42.7 6.6 40.95 8.75 37.6 12.85 37.8 18.2 L36.95 18.15 M104.25 45.0 L103.6 45.45 103.65 45.1 103.75 44.45 104.35 40.5 Q104.25 39.15 98.85 39.7 L98.9 39.15 Q104.8 38.9 104.85 40.25 L104.25 45.0 M63.85 40.25 L64.4 40.1 65.45 41.3 66.0 42.45 64.95 41.6 63.85 40.25 M67.6 38.85 L68.35 38.5 68.75 39.55 68.95 40.7 67.6 38.85 M47.3 4.85 Q46.75 5.3 46.15 6.35 46.85 3.85 48.6 3.85 L49.2 3.95 51.8 5.15 Q50.0 4.35 47.95 4.4 L47.3 4.85 M40.35 26.5 L41.5 28.5 41.05 29.05 40.25 27.65 40.35 26.5 M51.15 10.55 L52.05 9.85 Q51.0 8.45 49.3 8.0 L48.9 8.05 48.5 8.95 48.9 7.15 Q50.1 6.8 50.85 7.7 54.45 12.1 59.65 13.75 L59.95 12.45 60.3 13.5 Q60.35 14.3 59.5 14.2 L58.2 13.9 56.0 12.65 54.65 11.75 52.75 10.4 Q50.6 10.8 50.25 14.15 L50.2 15.1 Q49.75 12.6 51.15 10.55 M67.25 10.0 Q66.65 9.4 66.05 9.45 64.9 9.55 64.55 12.55 64.05 10.95 65.35 8.8 66.4 8.35 67.15 9.35 68.25 10.75 68.25 11.25 L67.25 10.0 M61.05 13.75 L61.05 14.0 60.7 14.05 61.05 13.75 M61.05 13.4 L60.6 11.5 61.05 11.85 61.05 13.4" fill="#1b2e54" fill-rule="evenodd" stroke="none"/>
    <path d="M110.15 45.5 L108.7 44.85 108.7 38.45 106.45 38.55 107.55 37.85 98.85 36.55 98.4 34.5 Q106.9 34.55 109.3 36.1 110.95 37.15 110.15 45.5 M107.8 52.05 L109.2 52.25 108.7 55.1 107.25 54.7 107.8 52.05 M66.4 18.85 L66.1 19.9 Q63.65 20.85 61.45 22.0 L61.1 20.8 60.25 17.75 61.05 14.0 61.05 13.75 60.3 13.5 59.95 12.45 59.65 13.75 Q54.45 12.1 50.85 7.7 50.1 6.8 48.9 7.15 L48.5 8.95 48.9 8.05 50.25 9.05 Q51.0 9.7 51.15 10.55 49.75 12.6 50.2 15.1 L50.25 14.15 50.4 16.15 Q51.15 21.85 56.05 25.35 54.2 26.9 52.45 28.4 L47.3 26.45 Q45.05 24.0 43.95 21.05 41.05 13.35 45.35 6.8 L46.15 8.25 47.45 7.35 47.3 4.85 47.95 4.4 Q50.0 4.35 51.8 5.15 L49.2 3.95 Q46.75 2.65 48.0 0.95 52.15 -0.35 55.5 2.25 L56.05 2.7 54.2 3.65 Q60.55 1.8 65.6 6.1 70.0 9.85 71.4 15.4 L69.9 15.8 69.85 15.75 68.25 11.3 68.25 11.25 67.85 10.7 67.25 10.0 68.25 11.25 Q68.25 10.75 67.15 9.35 66.4 8.35 65.35 8.8 64.05 10.95 64.55 12.55 64.5 14.85 65.5 17.0 L66.4 18.85 M67.55 38.85 L67.6 38.85 68.95 40.7 68.75 39.55 Q71.6 38.6 72.2 40.95 L72.75 40.0 Q70.15 45.3 64.4 45.95 L62.7 45.55 64.95 41.6 66.0 42.45 65.45 41.3 65.5 41.35 Q65.85 38.95 67.8 39.25 L67.55 38.85 M61.05 13.4 L61.05 11.85 60.6 11.5 61.05 13.4 M41.9 52.3 L38.15 53.45 36.65 53.25 35.25 52.3 24.8 40.85 24.75 39.8 25.2 39.0 Q32.6 43.6 37.4 50.95 L41.3 50.75 41.85 51.1 41.9 52.3" fill="#6fb9d7" fill-rule="evenodd" stroke="none"/>
    <path d="M99.45 55.15 L98.6 55.15 Q101.2 50.95 101.05 46.9 100.95 43.45 98.65 41.1 98.05 44.8 97.05 46.05 L96.9 46.25 Q96.35 46.75 95.75 46.85 L95.45 46.85 93.0 46.05 84.7 42.8 Q83.85 42.25 83.0 41.8 L84.35 42.05 91.15 44.9 92.5 45.5 92.55 45.5 93.45 45.8 94.9 46.15 96.15 46.1 98.05 41.35 98.4 39.4 98.4 39.35 98.45 39.1 Q98.6 35.6 96.35 32.7 L96.25 32.6 97.25 33.05 Q98.1 33.5 98.2 34.05 L98.4 34.5 98.85 36.55 98.9 39.15 98.85 39.7 98.75 40.6 100.35 42.45 100.7 43.05 101.2 44.1 101.75 47.25 Q101.2 48.25 101.3 49.3 L101.55 49.85 Q101.05 52.45 99.45 55.15 M66.3 55.15 L65.5 55.15 Q62.85 52.7 60.6 49.7 L55.4 55.15 54.75 55.15 60.45 49.45 Q58.3 46.2 58.6 44.0 59.15 47.1 60.8 49.25 63.3 52.55 66.3 55.15 M48.7 55.15 L44.65 55.15 43.35 52.4 Q44.9 51.7 46.4 51.1 L46.15 50.3 Q45.6 48.25 43.8 47.1 L43.75 47.15 43.15 46.8 41.8 47.3 41.65 46.45 42.75 46.1 Q45.3 47.05 46.45 49.6 47.75 52.3 48.7 55.15 M74.8 34.45 Q82.15 33.85 89.4 31.95 L95.05 32.15 93.2 31.9 92.8 31.9 90.6 32.1 Q87.25 32.55 84.15 34.2 80.4 36.25 76.1 34.8 L74.4 34.85 74.8 34.45 M53.05 41.2 L54.55 41.35 51.9 42.0 49.05 42.85 48.1 43.15 45.05 44.2 44.9 44.25 45.1 43.55 53.05 41.2 M61.35 40.9 L62.05 40.75 Q61.3 42.15 61.35 43.8 61.35 45.0 62.7 45.55 L64.4 45.95 Q70.15 45.3 72.75 40.0 L73.25 38.6 Q73.75 36.75 72.45 36.2 72.8 35.9 73.2 35.7 L73.7 36.1 Q74.7 39.2 72.35 42.15 68.9 46.55 63.25 46.4 L62.55 46.25 Q59.3 45.45 61.35 40.9" fill="#5f2916" fill-rule="evenodd" stroke="none"/>
    <path d="M98.6 55.15 L98.45 55.15 99.3 53.85 96.4 55.1 Q100.45 49.2 99.45 42.05 L98.65 41.1 Q100.95 43.45 101.05 46.9 101.2 50.95 98.6 55.15 M92.85 55.15 L90.65 55.15 91.7 54.0 Q94.15 51.0 95.3 47.25 L95.3 47.15 95.75 46.85 Q96.35 46.75 96.9 46.25 96.7 48.05 96.1 49.65 95.05 52.75 92.85 55.15 M84.1 55.15 L72.2 55.15 Q68.45 53.2 66.85 50.5 65.35 47.9 67.1 47.2 62.75 48.25 63.25 46.4 68.9 46.55 72.35 42.15 74.7 39.2 73.7 36.1 74.85 35.4 76.1 34.8 80.4 36.25 84.15 34.2 87.25 32.55 90.6 32.1 92.1 33.5 92.35 37.1 L89.35 37.75 Q86.2 38.6 84.75 39.65 83.05 40.9 84.35 42.05 L83.0 41.8 Q83.85 42.25 84.7 42.8 84.55 44.15 86.1 47.0 87.95 50.35 89.6 50.3 L90.85 50.05 Q88.95 52.6 85.75 54.3 L84.1 55.15 M95.75 32.2 L96.25 32.6 96.35 32.7 Q98.6 35.6 98.45 39.1 98.45 37.7 97.2 36.85 97.0 34.4 95.85 32.4 L95.75 32.2 M92.8 31.9 L93.2 31.9 Q94.8 33.15 95.15 36.65 L95.1 36.65 95.1 36.7 94.4 36.75 Q94.15 34.05 92.8 31.9 M98.4 39.4 L98.05 41.35 98.25 40.15 98.4 39.4" fill="#ffcc00" fill-rule="evenodd" stroke="none"/>
    <path d="M98.45 55.15 L96.35 55.15 96.4 55.1 99.3 53.85 98.45 55.15 M72.2 55.15 L66.3 55.15 Q63.3 52.55 60.8 49.25 59.15 47.1 58.6 44.0 58.3 46.2 60.45 49.45 L54.75 55.15 53.7 55.15 Q53.75 53.2 53.1 51.05 51.85 46.75 48.1 43.15 L49.05 42.85 Q51.35 44.6 53.2 48.3 55.25 52.3 54.75 55.1 L56.4 53.55 Q57.1 47.4 51.9 42.0 L54.55 41.35 61.35 40.9 Q59.3 45.45 62.55 46.25 L63.25 46.4 Q62.75 48.25 67.1 47.2 65.35 47.9 66.85 50.5 68.45 53.2 72.2 55.15 M51.85 55.15 L48.7 55.15 Q47.75 52.3 46.45 49.6 45.3 47.05 42.75 46.1 43.65 45.75 44.2 45.25 L44.9 44.25 45.05 44.2 Q47.45 45.45 49.85 49.8 51.45 52.8 51.85 55.15 M73.2 35.7 L74.4 34.85 76.1 34.8 Q74.85 35.4 73.7 36.1 L73.2 35.7 M84.35 42.05 Q83.05 40.9 84.75 39.65 86.2 38.6 89.35 37.75 L92.35 37.1 92.4 39.9 91.15 44.9 84.35 42.05 M97.2 36.85 Q98.45 37.7 98.45 39.1 L98.4 39.35 98.4 39.4 98.25 40.15 98.05 41.35 96.15 46.1 94.9 46.15 97.25 38.6 97.2 36.85 M93.45 45.8 L92.55 45.5 92.9 44.85 Q94.55 41.75 94.45 38.35 L94.45 38.05 94.4 36.75 95.1 36.7 95.2 38.4 Q95.45 42.35 93.45 45.8 M95.75 46.85 L95.3 47.15 95.45 46.85 95.75 46.85 M93.0 46.05 L90.85 50.05 89.6 50.3 Q87.95 50.35 86.1 47.0 84.55 44.15 84.7 42.8 L93.0 46.05" fill="#bc5103" fill-rule="evenodd" stroke="none"/>
    <path d="M108.7 44.85 L104.25 45.0 104.85 40.25 Q104.8 38.9 98.9 39.15 L98.85 36.55 107.55 37.85 106.45 38.55 108.7 38.45 108.7 44.85 M103.3 50.9 L107.8 52.05 107.25 54.7 102.85 53.25 103.3 50.9 M62.05 40.75 L63.85 40.25 64.95 41.6 62.7 45.55 Q61.35 45.0 61.35 43.8 61.3 42.15 62.05 40.75 M64.4 40.1 L67.55 38.85 67.8 39.25 Q65.85 38.95 65.5 41.35 L65.45 41.3 64.4 40.1 M68.35 38.5 L72.45 36.2 Q73.35 36.6 73.35 37.8 L73.25 38.6 72.75 40.0 72.2 40.95 Q71.6 38.6 68.75 39.55 L68.35 38.5 M49.2 3.95 L48.6 3.85 Q46.85 3.85 46.15 6.35 46.75 5.3 47.3 4.85 L47.45 7.35 46.15 8.25 45.35 6.8 Q41.05 13.35 43.95 21.05 45.05 24.0 47.3 26.45 45.1 26.2 43.35 27.1 42.2 27.6 41.5 28.5 L40.35 26.5 38.75 20.75 40.25 20.45 40.25 20.1 Q39.75 18.2 37.9 18.2 L37.8 18.2 Q37.6 12.85 40.95 8.75 42.7 6.6 45.1 5.45 L43.5 5.7 Q43.75 4.05 45.1 2.75 46.35 1.5 48.0 0.95 46.75 2.65 49.2 3.95 M48.9 8.05 L49.3 8.0 Q51.0 8.45 52.05 9.85 L51.15 10.55 Q51.0 9.7 50.25 9.05 L48.9 8.05 M58.2 13.9 L59.5 14.2 Q60.35 14.3 60.3 13.5 L61.05 13.75 60.7 14.05 61.05 14.0 60.25 17.75 58.2 13.9 M24.75 39.8 Q25.65 37.65 27.9 37.65 L28.5 37.8 37.75 48.9 43.75 47.15 43.8 47.1 Q45.6 48.25 46.15 50.3 L46.2 50.7 41.9 52.3 41.85 51.1 41.3 50.75 37.4 50.95 Q32.6 43.6 25.2 39.0 L24.75 39.8" fill="#3d7db8" fill-rule="evenodd" stroke="none"/>
    <path d="M96.35 55.15 L92.85 55.15 Q95.05 52.75 96.1 49.65 96.7 48.05 96.9 46.25 L97.05 46.05 Q98.05 44.8 98.65 41.1 L99.45 42.05 Q100.45 49.2 96.4 55.1 L96.35 55.15 M90.65 55.15 L84.1 55.15 85.75 54.3 Q88.95 52.6 90.85 50.05 L95.3 47.25 Q94.15 51.0 91.7 54.0 L90.65 55.15 M95.05 32.15 L95.75 32.2 95.85 32.4 Q97.0 34.4 97.2 36.85 L97.25 38.6 97.15 36.65 Q96.45 36.5 95.15 36.65 94.8 33.15 93.2 31.9 L95.05 32.15 M90.6 32.1 L92.8 31.9 Q94.15 34.05 94.4 36.75 L94.45 38.05 94.35 36.7 92.4 37.2 92.4 39.9 92.35 37.1 Q92.1 33.5 90.6 32.1 M92.55 45.5 L92.5 45.5 92.9 44.85 92.55 45.5" fill="#ff4a00" fill-rule="evenodd" stroke="none"/>
    <path d="M69.65 9.3 L71.85 8.35 Q71.5 8.7 71.6 9.1 71.8 9.55 72.4 9.6 73.6 9.7 78.3 18.9 L77.6 18.55 Q77.65 17.25 76.15 16.15 75.1 15.4 73.8 15.25 L72.9 12.8 Q72.2 11.15 70.75 11.55 L69.65 9.3 M80.5 20.3 L81.0 20.7 Q81.8 19.1 82.8 18.0 83.6 17.25 84.9 17.25 L84.55 17.8 84.7 17.85 Q86.35 20.95 83.75 23.2 L83.25 23.05 Q81.55 21.95 80.5 20.3 M86.9 20.85 Q87.3 24.45 84.45 27.7 82.1 30.35 79.3 29.05 80.75 26.35 80.75 23.95 L80.75 23.5 82.6 25.7 Q83.8 25.6 84.65 24.95 86.7 23.45 86.9 20.85 M69.65 15.9 Q69.0 16.1 68.55 16.45 L67.45 14.7 68.2 13.45 67.1 13.95 66.85 13.3 Q66.0 11.4 66.7 10.6 67.15 10.05 67.85 10.7 L68.25 11.25 68.25 11.3 69.85 15.75 69.65 15.9 M43.75 37.95 L44.05 38.75 44.9 41.05 Q45.25 42.5 45.1 43.55 L44.9 44.25 44.2 45.25 Q43.65 45.75 42.75 46.1 L41.65 46.45 37.0 46.8 32.5 41.6 36.4 40.15 39.1 39.15 Q39.65 38.9 39.7 38.45 40.2 34.3 37.7 30.35 L39.15 29.2 40.25 31.25 40.8 32.3 43.75 37.95 M37.9 18.2 Q39.75 18.2 40.25 20.1 L40.25 20.45 38.75 20.75 37.95 20.75 37.65 20.5 35.4 20.65 34.65 20.6 38.7 19.05 37.9 18.2 M56.0 12.65 L58.2 13.9 60.25 17.75 61.1 20.8 60.55 22.25 59.7 22.45 Q57.1 21.8 56.0 19.5 L57.75 17.4 55.3 18.35 54.4 15.95 Q53.65 13.5 56.0 12.65" fill="#111111" fill-rule="evenodd" stroke="none"/>
    <path d="M32.2 26.3 L32.0 25.9 Q30.05 21.65 30.55 19.8 30.8 19.05 32.15 18.35 L36.95 18.15 37.8 18.2 37.9 18.2 38.7 19.05 34.65 20.6 Q33.65 21.35 33.15 22.6 32.45 24.5 32.2 26.3 M71.85 8.35 Q73.65 8.0 74.55 9.4 L80.5 20.3 Q81.55 21.95 83.25 23.05 L83.75 23.2 Q86.35 20.95 84.7 17.85 L84.55 17.8 84.9 17.25 85.05 17.1 85.6 17.4 85.85 17.65 86.0 17.9 Q86.7 19.4 86.9 20.85 86.7 23.45 84.65 24.95 83.8 25.6 82.6 25.7 L80.75 23.5 Q80.65 21.25 79.15 19.65 L78.3 18.9 Q73.6 9.7 72.4 9.6 71.8 9.55 71.6 9.1 71.5 8.7 71.85 8.35 M34.7 32.0 L37.7 30.35 Q40.2 34.3 39.7 38.45 39.65 38.9 39.1 39.15 L36.4 40.15 37.05 39.5 Q36.75 35.5 34.7 32.0" fill="#1a0e1e" fill-rule="evenodd" stroke="none"/>
    <path d="M68.55 16.45 L67.5 17.55 67.1 18.1 66.4 18.85 65.5 17.0 Q64.5 14.85 64.55 12.55 64.9 9.55 66.05 9.45 66.65 9.4 67.25 10.0 L67.85 10.7 Q67.15 10.05 66.7 10.6 66.0 11.4 66.85 13.3 L67.1 13.95 68.2 13.45 67.45 14.7 68.55 16.45 M69.9 15.8 L69.65 15.9 69.85 15.75 69.9 15.8 M50.25 14.15 Q50.6 10.8 52.75 10.4 L54.65 11.75 56.0 12.65 Q53.65 13.5 54.4 15.95 L55.3 18.35 57.75 17.4 56.0 19.5 Q57.1 21.8 59.7 22.45 L60.55 22.25 61.1 20.8 61.45 22.0 Q58.5 23.5 56.05 25.35 51.15 21.85 50.4 16.15 L50.25 14.15 M29.5 34.3 L29.95 34.6 29.7 36.25 Q27.65 37.5 25.0 37.4 24.2 37.7 23.8 38.35 22.35 40.85 19.5 40.3 18.75 38.7 19.3 37.25 22.7 32.2 28.75 34.05 L29.5 34.3 M35.4 20.65 L37.65 20.5 Q39.25 23.15 38.05 26.45 37.7 27.45 37.0 28.0 L34.0 30.15 Q32.2 31.1 30.7 32.3 29.6 33.05 28.3 33.35 L24.95 33.3 Q19.9 34.05 15.45 36.8 11.7 35.75 9.0 33.15 L8.05 33.5 Q6.15 34.2 4.35 32.85 L5.5 26.2 6.15 26.05 Q10.35 25.6 10.1 29.9 L8.4 30.65 19.5 30.3 Q20.5 30.5 21.45 31.15 L22.0 31.65 22.05 30.7 Q27.7 25.7 35.7 26.75 L33.2 26.3 33.25 25.1 Q33.4 22.25 35.4 20.65 M5.75 34.8 L9.9 35.05 5.75 34.8 M1.15 25.25 L4.5 25.35 5.35 25.9 Q4.5 26.55 4.55 28.3 L4.1 30.8 1.65 27.95 Q0.85 27.3 0.7 26.45 0.55 25.7 1.15 25.25" fill="#ffffff" fill-rule="evenodd" stroke="none"/>
    <path d="M53.7 55.15 L51.85 55.15 Q51.45 52.8 49.85 49.8 47.45 45.45 45.05 44.2 L48.1 43.15 Q51.85 46.75 53.1 51.05 53.75 53.2 53.7 55.15 M91.15 44.9 L92.4 39.9 92.4 37.2 94.35 36.7 94.45 38.05 94.45 38.35 Q94.55 41.75 92.9 44.85 L92.5 45.5 91.15 44.9 M94.9 46.15 L93.45 45.8 Q95.45 42.35 95.2 38.4 L95.1 36.7 95.1 36.65 95.15 36.65 Q96.45 36.5 97.15 36.65 L97.25 38.6 94.9 46.15 M49.05 42.85 L51.9 42.0 Q57.1 47.4 56.4 53.55 L54.75 55.1 Q55.25 52.3 53.2 48.3 51.35 44.6 49.05 42.85 M95.3 47.15 L95.3 47.25 90.85 50.05 93.0 46.05 95.45 46.85 95.3 47.15" fill="#9c0e01" fill-rule="evenodd" stroke="none"/>
    <path d="M79.3 29.05 L79.2 29.2 Q77.55 32.15 74.8 34.45 L74.4 34.85 73.2 35.7 Q72.8 35.9 72.45 36.2 L68.35 38.5 67.6 38.85 67.55 38.85 64.4 40.1 63.85 40.25 62.05 40.75 61.35 40.9 54.55 41.35 53.05 41.2 49.45 41.0 Q46.25 40.25 44.05 38.75 L43.75 37.95 Q47.3 40.55 51.95 40.9 61.65 42.05 69.55 36.75 61.7 38.6 53.6 37.9 L47.95 36.95 Q46.0 36.35 46.4 34.35 46.75 35.3 47.2 35.9 47.95 36.85 49.1 37.15 L52.1 37.2 52.5 37.2 Q58.9 37.5 65.45 37.35 71.05 37.1 73.25 32.8 L73.75 31.55 73.8 31.65 Q74.0 33.5 72.5 34.75 L72.25 35.0 Q74.15 33.7 76.15 32.45 L76.85 31.6 Q78.9 29.3 79.85 26.45 L80.2 24.05 Q80.2 22.05 79.4 20.65 78.65 19.2 77.5 19.2 L77.6 18.55 78.3 18.9 79.15 19.65 Q80.65 21.25 80.75 23.5 L80.75 23.95 Q80.75 26.35 79.3 29.05 M66.1 19.9 L66.1 20.5 Q58.6 23.35 52.45 28.85 L51.3 28.25 Q49.65 27.3 47.75 27.05 45.5 26.6 43.35 27.85 40.85 29.4 40.8 32.3 L40.25 31.25 41.05 29.05 41.5 28.5 Q42.2 27.6 43.35 27.1 45.1 26.2 47.3 26.45 L52.45 28.4 Q54.2 26.9 56.05 25.35 58.5 23.5 61.45 22.0 63.65 20.85 66.1 19.9 M73.25 38.6 L73.35 37.8 Q73.35 36.6 72.45 36.2 73.75 36.75 73.25 38.6" fill="#782900" fill-rule="evenodd" stroke="none"/>
    <path d="M73.8 31.65 L74.05 30.55 74.9 31.95 76.85 30.35 Q80.55 26.6 79.6 21.3 L80.2 24.05 79.85 26.45 78.85 28.6 Q77.8 30.6 76.15 32.45 74.15 33.7 72.25 35.0 L72.5 34.75 Q74.0 33.5 73.8 31.65 M73.25 32.8 Q71.05 37.1 65.45 37.35 58.9 37.5 52.5 37.2 L52.2 36.75 62.45 36.7 Q66.75 36.6 70.65 35.0 72.35 34.15 73.25 32.8 M46.4 34.35 Q46.0 36.35 47.95 36.95 L53.6 37.9 Q61.7 38.6 69.55 36.75 61.65 42.05 51.95 40.9 47.3 40.55 43.75 37.95 L40.8 32.3 Q40.85 29.4 43.35 27.85 45.5 26.6 47.75 27.05 L46.5 28.25 Q45.0 30.35 46.5 32.85 46.25 33.65 46.4 34.35" fill="#d59331" fill-rule="evenodd" stroke="none"/>
    <path d="M66.1 20.5 L66.4 21.45 Q65.6 22.55 67.2 23.55 69.0 24.65 71.35 24.1 74.9 23.35 76.25 20.9 77.25 20.1 77.5 19.2 78.65 19.2 79.4 20.65 80.2 22.05 80.2 24.05 L79.6 21.3 Q80.55 26.6 76.85 30.35 L74.9 31.95 74.05 30.55 73.8 31.65 73.75 31.55 73.25 32.8 Q72.35 34.15 70.65 35.0 66.75 36.6 62.45 36.7 L52.2 36.75 Q52.15 34.65 53.55 33.05 54.4 31.95 54.45 30.7 52.8 28.85 50.15 29.35 47.5 30.15 46.5 32.85 45.0 30.35 46.5 28.25 L47.75 27.05 Q49.65 27.3 51.3 28.25 L52.45 28.85 Q58.6 23.35 66.1 20.5 M76.15 32.45 Q77.8 30.6 78.85 28.6 L79.85 26.45 Q78.9 29.3 76.85 31.6 L76.15 32.45 M65.5 27.1 Q65.7 27.5 66.1 27.25 66.55 27.05 66.25 26.55 66.0 26.2 65.65 26.4 65.25 26.65 65.5 27.1 M57.8 27.6 Q58.1 27.4 57.9 27.1 57.75 26.65 57.4 26.95 57.0 27.1 57.2 27.45 57.45 27.8 57.8 27.6 M59.45 29.65 Q59.9 29.4 59.65 29.0 59.4 28.65 59.05 28.85 58.7 29.05 58.9 29.5 59.1 29.85 59.45 29.65 M61.95 26.05 Q61.75 25.75 61.4 25.95 60.95 26.1 61.25 26.5 L61.8 26.65 61.95 26.05 M65.4 23.05 Q65.2 22.65 64.8 22.9 64.45 23.1 64.65 23.45 L65.25 23.6 Q65.6 23.35 65.4 23.05" fill="#fee36a" fill-rule="evenodd" stroke="none"/>
    <path d="M52.5 37.2 L52.1 37.2 Q50.6 36.05 53.6 32.25 54.25 31.35 53.85 30.7 L53.6 30.45 53.2 30.2 49.7 29.9 48.6 30.9 Q47.35 32.25 47.05 33.95 L47.2 35.9 Q46.75 35.3 46.4 34.35 46.25 33.65 46.5 32.85 47.5 30.15 50.15 29.35 52.8 28.85 54.45 30.7 54.4 31.95 53.55 33.05 52.15 34.65 52.2 36.75 L52.5 37.2" fill="#761f27" fill-rule="evenodd" stroke="none"/>
    <path d="M52.1 37.2 L49.1 37.15 Q47.95 36.85 47.2 35.9 L47.05 33.95 47.9 34.25 49.4 33.55 49.7 34.15 Q52.95 33.75 53.6 30.45 L53.85 30.7 Q54.25 31.35 53.6 32.25 50.6 36.05 52.1 37.2" fill="#d61f34" fill-rule="evenodd" stroke="none"/>
    <path d="M47.05 33.95 Q47.35 32.25 48.6 30.9 L49.7 29.9 53.2 30.2 53.6 30.45 Q52.95 33.75 49.7 34.15 L49.4 33.55 47.9 34.25 47.05 33.95" fill="#f84766" fill-rule="evenodd" stroke="none"/>
    <path d="M65.4 23.05 Q65.6 23.35 65.25 23.6 L64.65 23.45 Q64.45 23.1 64.8 22.9 65.2 22.65 65.4 23.05 M61.95 26.05 L61.8 26.65 61.25 26.5 Q60.95 26.1 61.4 25.95 61.75 25.75 61.95 26.05 M59.45 29.65 Q59.1 29.85 58.9 29.5 58.7 29.05 59.05 28.85 59.4 28.65 59.65 29.0 59.9 29.4 59.45 29.65 M57.8 27.6 Q57.45 27.8 57.2 27.45 57.0 27.1 57.4 26.95 57.75 26.65 57.9 27.1 58.1 27.4 57.8 27.6 M65.5 27.1 Q65.25 26.65 65.65 26.4 66.0 26.2 66.25 26.55 66.55 27.05 66.1 27.25 65.7 27.5 65.5 27.1" fill="#996400" fill-rule="evenodd" stroke="none"/>
    <path d="M68.55 16.45 Q69.0 16.1 69.65 15.9 L69.9 15.8 71.4 15.4 72.05 15.3 73.8 15.25 Q75.1 15.4 76.15 16.15 77.65 17.25 77.6 18.55 L77.5 19.2 Q77.25 20.1 76.25 20.9 74.75 21.95 71.65 22.6 L68.05 22.75 Q66.9 22.45 66.4 21.45 L66.1 20.5 66.1 19.9 66.4 18.85 67.1 18.1 70.75 16.15 70.1 17.55 70.85 18.15 Q72.8 18.3 74.05 17.05 L73.85 16.25 73.45 15.85 73.45 15.8 75.05 16.0 Q70.85 14.55 67.5 17.55 L68.55 16.45 M76.25 20.15 Q77.65 19.15 76.65 18.5 76.05 18.75 75.55 19.2 72.6 21.95 68.45 22.25 72.7 22.95 76.25 20.15" fill="#2f094d" fill-rule="evenodd" stroke="none"/>
    <path d="M73.45 15.8 L73.45 15.85 73.4 15.8 73.45 15.8 M73.85 16.25 L74.05 17.05 Q72.8 18.3 70.85 18.15 L70.1 17.55 70.75 16.15 71.15 16.0 70.5 17.2 72.9 17.25 73.85 16.25" fill="#c575b8" fill-rule="evenodd" stroke="none"/>
    <path d="M73.45 15.85 L73.85 16.25 72.9 17.25 70.5 17.2 71.15 16.0 72.1 15.6 73.4 15.8 73.45 15.85" fill="#f3d6ea" fill-rule="evenodd" stroke="none"/>
    <path d="M67.5 17.55 Q70.85 14.55 75.05 16.0 L73.45 15.8 73.4 15.8 72.1 15.6 71.15 16.0 70.75 16.15 67.1 18.1 67.5 17.55" fill="#8c409c" fill-rule="evenodd" stroke="none"/>
    <path d="M76.25 20.15 Q72.7 22.95 68.45 22.25 72.6 21.95 75.55 19.2 76.05 18.75 76.65 18.5 77.65 19.15 76.25 20.15" fill="#943697" fill-rule="evenodd" stroke="none"/>
    <path d="M66.4 21.45 Q66.9 22.45 68.05 22.75 L71.65 22.6 Q74.75 21.95 76.25 20.9 74.9 23.35 71.35 24.1 69.0 24.65 67.2 23.55 65.6 22.55 66.4 21.45" fill="#d59f32" fill-rule="evenodd" stroke="none"/>
    <path d="M37.95 20.75 L38.6 21.25 39.5 27.2 39.3 27.9 Q36.15 31.5 31.8 32.55 L31.05 35.05 29.5 34.3 28.75 34.05 Q22.7 32.2 19.3 37.25 18.45 38.5 18.75 39.9 17.1 39.8 15.7 39.3 13.55 38.5 9.9 35.05 L5.75 34.8 5.5 34.6 Q4.4 33.9 4.35 32.85 6.15 34.2 8.05 33.5 L9.0 33.15 Q11.7 35.75 15.45 36.8 19.9 34.05 24.95 33.3 L28.3 33.35 Q29.6 33.05 30.7 32.3 32.2 31.1 34.0 30.15 L37.0 28.0 Q37.7 27.45 38.05 26.45 39.25 23.15 37.65 20.5 L37.95 20.75 M29.95 34.6 Q30.85 35.3 31.3 36.55 31.75 38.1 30.5 39.4 L28.8 37.5 Q27.55 36.75 25.75 37.9 23.8 39.15 24.3 41.05 L25.25 42.1 22.45 42.3 Q20.3 42.05 19.5 40.3 22.35 40.85 23.8 38.35 24.2 37.7 25.0 37.4 27.65 37.5 29.7 36.25 L29.95 34.6" fill="#a6cbbd" fill-rule="evenodd" stroke="none"/>
    <path d="M112.6 48.25 Q113.95 50.85 112.85 51.9 112.3 52.4 110.75 52.35 L109.75 52.3 109.2 52.25 107.8 52.05 103.3 50.9 102.7 50.65 101.55 49.85 101.3 49.3 Q101.2 48.25 101.75 47.25 L103.25 45.7 103.6 45.45 104.25 45.0 108.7 44.85 110.15 45.5 110.6 45.8 Q111.4 46.4 112.0 47.35 L112.6 48.25 M25.75 42.65 Q22.3 43.85 19.7 41.35 L18.95 40.55 Q13.3 40.1 9.65 35.6 6.55 36.7 4.45 34.35 3.2 32.95 4.0 31.35 L0.0 26.3 Q1.3 23.0 5.3 24.75 L9.2 26.6 Q10.1 27.15 10.4 28.2 L10.7 29.85 Q16.4 28.5 21.35 30.4 26.1 26.5 32.2 26.3 32.45 24.5 33.15 22.6 33.65 21.35 34.65 20.6 L35.4 20.65 Q33.4 22.25 33.25 25.1 L33.2 26.3 35.7 26.75 Q27.7 25.7 22.05 30.7 L22.0 31.65 21.45 31.15 Q20.5 30.5 19.5 30.3 L8.4 30.65 10.1 29.9 Q10.35 25.6 6.15 26.05 L5.5 26.2 4.35 32.85 Q4.4 33.9 5.5 34.6 L5.75 34.8 9.9 35.05 Q13.55 38.5 15.7 39.3 17.1 39.8 18.75 39.9 18.45 38.5 19.3 37.25 18.75 38.7 19.5 40.3 20.3 42.05 22.45 42.3 L25.25 42.1 25.75 42.65 M38.75 20.75 L40.35 26.5 40.25 27.65 39.15 29.2 37.7 30.35 34.7 32.0 32.65 33.0 31.5 35.65 31.65 35.9 Q32.9 38.15 31.05 40.0 L30.5 39.4 Q31.75 38.1 31.3 36.55 30.85 35.3 29.95 34.6 L29.5 34.3 31.05 35.05 31.8 32.55 Q36.15 31.5 39.3 27.9 L39.5 27.2 38.6 21.25 37.95 20.75 38.75 20.75 M1.15 25.25 Q0.55 25.7 0.7 26.45 0.85 27.3 1.65 27.95 L4.1 30.8 4.55 28.3 Q4.5 26.55 5.35 25.9 L4.5 25.35 1.15 25.25" fill="#1d3f60" fill-rule="evenodd" stroke="none"/>
  </g>
</svg>
