<?xml version="1.0" encoding="UTF-8" standalone="no"?>
<svg xmlns:xlink="http://www.w3.org/1999/xlink" height="63.1px" width="152.15px" xmlns="http://www.w3.org/2000/svg">
  <g transform="matrix(1.0, 0.0, 0.0, 1.0, 0.0, 0.0)">
    <path d="M88.4 37.8 L88.5 60.4 Q84.0 63.05 75.5 63.1 67.0 63.15 63.75 60.55 L63.7 37.9 88.4 37.8" fill="url(#gradient0)" fill-rule="evenodd" stroke="none"/>
    <path d="M147.7 7.3 L147.65 7.65 147.55 7.6 147.1 7.45 144.1 6.5 142.05 5.85 142.1 6.15 Q142.3 7.4 143.4 8.55 144.1 9.3 144.95 9.35 L144.15 9.6 Q143.05 9.85 142.15 8.85 140.95 7.5 140.85 6.1 L140.85 6.0 Q140.8 4.75 141.7 3.85 L141.85 3.75 Q142.7 2.95 143.75 2.95 L142.95 3.55 142.8 3.75 142.3 4.5 144.2 5.0 147.75 5.9 147.75 6.05 147.7 7.3 M145.55 31.3 L145.25 31.5 145.2 31.35 145.1 30.95 143.9 27.7 143.15 25.55 Q142.2 26.4 142.0 28.3 141.9 29.4 142.4 30.15 L141.75 29.65 141.5 29.35 Q140.95 28.55 141.05 27.4 L141.1 27.25 Q141.3 25.35 142.25 24.55 143.15 23.75 144.35 23.95 145.45 24.2 146.2 25.2 145.8 24.95 145.35 24.85 L144.25 24.85 145.05 26.85 146.55 30.55 146.35 30.7 145.55 31.3 M146.85 33.85 L150.95 33.7 151.05 31.35 151.85 31.35 151.25 35.15 88.4 37.8 63.7 37.9 63.25 37.9 49.8 37.5 45.95 38.25 Q18.1 37.7 4.0 35.15 L2.9 33.75 67.35 35.8 Q96.2 35.6 146.85 33.85 M2.9 5.6 L2.85 5.15 Q2.9 4.05 3.75 3.3 4.55 2.6 5.55 2.65 L4.85 3.1 4.25 3.9 5.85 4.5 8.9 5.55 8.9 5.9 8.8 6.65 8.75 7.05 8.6 7.0 8.25 6.85 5.65 5.8 3.95 5.1 Q3.95 6.3 4.95 7.55 5.55 8.25 6.25 8.35 L5.6 8.55 4.55 8.35 3.85 7.75 3.65 7.5 Q2.95 6.5 2.9 5.6 M6.1 24.4 L7.2 24.35 Q8.2 24.55 8.85 25.45 L8.9 25.5 8.0 25.15 7.1 25.15 7.8 26.9 9.1 30.15 9.05 30.2 8.3 30.8 8.05 31.0 8.0 31.0 7.95 30.85 7.8 30.45 6.8 27.6 6.1 25.7 Q5.3 26.5 5.1 28.15 5.0 29.1 5.45 29.8 L4.85 29.35 Q4.15 28.6 4.25 27.4 4.45 25.65 5.35 24.85 5.7 24.55 6.1 24.4" fill="#47525f" fill-rule="evenodd" stroke="none"/>
    <path d="M147.75 29.25 L147.9 29.25 149.0 3.8 147.35 3.8 147.15 3.55 Q146.25 2.55 145.0 2.6 144.35 2.65 143.75 2.95 142.7 2.95 141.85 3.75 113.7 3.45 105.75 4.05 L140.85 6.1 Q140.95 7.5 142.15 8.85 143.05 9.85 144.15 9.6 L144.95 9.35 145.4 9.3 146.3 8.95 146.4 25.35 146.2 25.2 Q145.45 24.2 144.35 23.95 143.15 23.75 142.25 24.55 141.3 25.35 141.1 27.25 L130.5 29.45 141.5 29.35 141.75 29.65 142.4 30.15 142.7 30.55 Q143.45 31.3 144.65 31.35 L145.2 31.35 145.25 31.5 145.55 31.3 146.75 30.75 Q147.5 30.15 147.75 29.25 M151.35 0.15 L150.5 0.25 149.6 30.8 146.85 33.85 Q96.2 35.6 67.35 35.8 L2.9 33.75 0.0 33.65 Q0.6 3.75 0.75 1.4 19.15 2.55 42.25 1.75 L78.9 0.2 Q87.35 -0.05 98.15 0.3 L116.4 1.05 Q137.65 1.85 151.35 0.15 M5.55 2.65 Q4.55 2.6 3.75 3.3 2.9 4.05 2.85 5.15 L2.9 5.6 2.5 7.0 3.65 7.5 3.85 7.75 4.55 8.35 3.6 30.55 8.0 31.0 8.05 31.0 57.75 32.65 Q28.45 27.8 9.35 25.85 L8.9 25.5 8.85 25.45 Q8.2 24.55 7.2 24.35 L6.1 24.4 6.25 8.35 6.65 8.35 7.65 8.0 39.85 6.4 9.15 4.95 Q9.1 4.1 8.55 3.4 7.8 2.5 6.7 2.45 L5.55 2.65" fill="url(#gradient1)" fill-rule="evenodd" stroke="none"/>
    <path d="M151.35 0.15 L152.15 0.0 151.05 31.35 150.95 33.7 146.85 33.85 149.6 30.8 150.5 0.25 151.35 0.15" fill="#cdcdcd" fill-rule="evenodd" stroke="none"/>
    <path d="M147.35 3.8 L149.0 3.8 147.9 29.25 147.75 29.25 147.9 28.55 Q148.05 27.2 147.2 26.1 L146.4 25.35 146.3 8.95 147.2 8.1 147.55 7.6 147.65 7.65 147.7 7.3 148.0 5.85 Q148.05 4.65 147.35 3.8 M141.5 29.35 L130.5 29.45 141.1 27.25 141.05 27.4 Q140.95 28.55 141.5 29.35 M141.85 3.75 L141.7 3.85 Q140.8 4.75 140.85 6.0 L140.85 6.1 105.75 4.05 Q113.7 3.45 141.85 3.75" fill="#848484" fill-rule="evenodd" stroke="none"/>
    <path d="M2.9 5.6 Q2.95 6.5 3.65 7.5 L2.5 7.0 2.9 5.6 M4.55 8.35 L5.6 8.55 6.25 8.35 6.1 24.4 Q5.7 24.55 5.35 24.85 4.45 25.65 4.25 27.4 4.15 28.6 4.85 29.35 L5.45 29.8 5.7 30.15 Q6.35 30.8 7.45 30.85 L7.95 30.85 8.0 31.0 3.6 30.55 4.55 8.35 M8.6 7.0 L8.75 7.05 8.8 6.65 9.15 5.5 9.15 4.95 39.85 6.4 7.65 8.0 8.3 7.4 8.6 7.0 M9.35 25.85 Q28.45 27.8 57.75 32.65 L8.05 31.0 8.3 30.8 9.25 30.3 Q10.15 29.6 10.25 28.4 10.4 27.2 9.7 26.25 L9.35 25.85" fill="#a09e9f" fill-rule="evenodd" stroke="none"/>
    <path d="M147.35 3.8 Q148.05 4.65 148.0 5.85 L147.7 7.3 147.75 6.05 147.75 5.9 Q147.75 5.2 147.15 4.55 146.6 3.95 145.8 3.95 145.1 4.0 144.55 4.55 L144.2 5.0 142.3 4.5 142.8 3.75 142.95 3.55 143.75 2.95 Q144.35 2.65 145.0 2.6 146.25 2.55 147.15 3.55 L147.35 3.8 M147.55 7.6 L147.2 8.1 146.3 8.95 145.4 9.3 144.95 9.35 Q144.1 9.3 143.4 8.55 142.3 7.4 142.1 6.15 L142.05 5.85 144.1 6.5 Q144.3 7.05 144.85 7.65 145.4 8.25 146.05 8.1 L146.3 8.05 147.1 7.45 147.55 7.6 M146.4 25.35 L147.2 26.1 Q148.05 27.2 147.9 28.55 L147.75 29.25 Q147.5 30.15 146.75 30.75 L145.55 31.3 146.35 30.7 146.55 30.55 Q147.05 30.1 147.15 29.2 147.25 28.3 146.75 27.65 L145.6 26.9 145.05 26.85 144.25 24.85 145.35 24.85 Q145.8 24.95 146.2 25.2 L146.4 25.35 M145.2 31.35 L144.65 31.35 Q143.45 31.3 142.7 30.55 L142.4 30.15 Q141.9 29.4 142.0 28.3 142.2 26.4 143.15 25.55 L143.9 27.7 Q143.65 28.2 143.55 29.05 143.35 30.8 145.1 30.95 L145.2 31.35 M6.25 8.35 Q5.55 8.25 4.95 7.55 3.95 6.3 3.95 5.1 L5.65 5.8 6.25 6.85 Q7.15 8.0 8.25 6.85 L8.6 7.0 8.3 7.4 7.65 8.0 6.65 8.35 6.25 8.35 M8.8 6.65 L8.9 5.9 Q9.1 5.1 8.5 4.3 8.05 3.7 7.35 3.7 6.7 3.65 6.2 4.1 L5.85 4.5 4.25 3.9 4.85 3.1 5.55 2.65 6.7 2.45 Q7.8 2.5 8.55 3.4 9.1 4.1 9.15 4.95 L9.15 5.5 8.8 6.65 M8.9 25.5 L9.35 25.85 9.7 26.25 Q10.4 27.2 10.25 28.4 10.15 29.6 9.25 30.3 L8.3 30.8 9.05 30.2 9.1 30.15 Q9.55 29.8 9.65 28.95 9.75 28.2 9.3 27.6 8.9 27.05 8.25 26.9 L7.8 26.9 7.1 25.15 8.0 25.15 8.9 25.5 M5.45 29.8 Q5.0 29.1 5.1 28.15 5.3 26.5 6.1 25.7 L6.8 27.6 Q6.55 28.05 6.45 28.8 6.3 30.35 7.8 30.45 L7.95 30.85 7.45 30.85 Q6.35 30.8 5.7 30.15 L5.45 29.8" fill="#9c9c9c" fill-rule="evenodd" stroke="none"/>
    <path d="M144.1 6.5 L147.1 7.45 146.3 8.05 146.05 8.1 Q145.4 8.25 144.85 7.65 144.3 7.05 144.1 6.5 M144.2 5.0 L144.55 4.55 Q145.1 4.0 145.8 3.95 146.6 3.95 147.15 4.55 147.75 5.2 147.75 5.9 L144.2 5.0 M145.05 26.85 L145.6 26.9 146.75 27.65 Q147.25 28.3 147.15 29.2 147.05 30.1 146.55 30.55 L145.05 26.85 M145.1 30.95 Q143.35 30.8 143.55 29.05 143.65 28.2 143.9 27.7 L145.1 30.95 M5.65 5.8 L8.25 6.85 Q7.15 8.0 6.25 6.85 L5.65 5.8 M8.9 5.9 L8.9 5.55 5.85 4.5 6.2 4.1 Q6.7 3.65 7.35 3.7 8.05 3.7 8.5 4.3 9.1 5.1 8.9 5.9 M6.8 27.6 L7.8 30.45 Q6.3 30.35 6.45 28.8 6.55 28.05 6.8 27.6 M7.8 26.9 L8.25 26.9 Q8.9 27.05 9.3 27.6 9.75 28.2 9.65 28.95 9.55 29.8 9.1 30.15 L7.8 26.9" fill="#d5d4d4" fill-rule="evenodd" stroke="none"/>
  </g>
  <defs>
    <linearGradient gradientTransform="matrix(0.0152, -1.0E-4, 1.0E-4, 0.0274, 76.05, 40.55)" gradientUnits="userSpaceOnUse" id="gradient0" spreadMethod="pad" x1="-819.2" x2="819.2">
      <stop offset="0.0" stop-color="#565656"/>
      <stop offset="0.403921568627451" stop-color="#9b9999"/>
      <stop offset="0.592156862745098" stop-color="#dbdbda"/>
      <stop offset="0.7803921568627451" stop-color="#9b999a"/>
      <stop offset="1.0" stop-color="#151213"/>
    </linearGradient>
    <linearGradient gradientTransform="matrix(-0.0928, -1.0E-4, 4.0E-4, -0.0218, 76.1, 17.85)" gradientUnits="userSpaceOnUse" id="gradient1" spreadMethod="pad" x1="-819.2" x2="819.2">
      <stop offset="0.058823529411764705" stop-color="#969595"/>
      <stop offset="1.0" stop-color="#d2d1d2"/>
    </linearGradient>
  </defs>
</svg>
