<?xml version="1.0" encoding="UTF-8" standalone="no"?>
<svg xmlns:xlink="http://www.w3.org/1999/xlink" height="385.4px" width="589.8px" xmlns="http://www.w3.org/2000/svg">
  <g transform="matrix(1.0, 0.0, 0.0, 1.0, 0.0, 0.0)">
    <path d="M23.4 25.5 L37.5 25.05 Q65.05 24.55 106.55 24.3 181.95 23.85 273.5 24.65 371.0 25.4 451.05 27.3 L587.25 32.15 Q586.4 34.45 584.8 35.95 L579.75 35.8 548.0 34.7 Q548.4 149.0 549.4 214.6 550.75 296.4 553.7 357.15 L557.05 357.05 562.4 356.9 575.3 356.45 578.4 356.3 580.2 356.25 Q580.75 357.15 581.0 361.8 L578.6 361.85 557.35 362.55 553.95 362.6 553.8 362.6 550.05 362.7 479.45 363.45 Q407.15 363.85 319.9 363.15 227.25 362.45 149.5 360.75 L16.25 356.3 Q17.1 354.2 18.8 352.9 L38.5 353.55 39.05 256.4 Q40.1 207.1 40.2 171.55 40.15 91.35 38.35 31.0 L35.0 31.1 29.65 31.25 16.6 31.6 13.55 31.7 10.4 31.9 2.75 32.2 Q1.4 29.75 0.65 26.25 L10.25 25.95 13.45 25.85 23.4 25.5 M454.7 10.3 Q456.45 11.15 456.6 13.05 456.75 15.8 454.45 17.35 451.8 19.2 449.85 16.95 L452.0 16.65 Q456.8 14.85 454.7 10.3 M429.55 10.35 Q432.85 12.65 430.55 16.05 428.15 19.55 424.85 17.3 427.75 17.5 429.5 15.2 431.25 12.7 429.55 10.35 M399.8 17.2 Q402.7 17.45 404.4 15.0 406.05 12.6 404.4 10.25 407.3 12.15 405.85 15.15 403.8 19.25 399.8 17.2 M379.3 10.1 Q382.65 12.3 380.4 15.8 377.95 19.5 374.65 17.0 377.55 17.25 379.3 14.85 381.0 12.45 379.3 10.1 M349.45 16.85 Q354.05 16.95 354.85 12.5 355.05 11.15 354.2 10.0 355.95 10.7 356.15 12.8 356.4 15.55 354.0 17.15 351.5 18.8 349.45 16.85 M329.05 9.85 Q332.4 12.15 330.15 15.55 327.85 18.9 324.4 16.8 327.25 16.95 329.0 14.55 330.75 12.2 329.05 9.85 M299.25 16.65 Q302.75 16.75 304.35 13.7 305.35 11.65 303.95 9.75 307.3 11.85 304.95 15.35 302.5 18.95 299.25 16.65 M555.9 22.9 Q552.25 18.85 555.55 14.3 L556.35 13.25 Q554.55 18.0 558.7 21.0 L559.85 21.65 560.0 9.55 560.1 9.5 563.8 8.9 563.65 10.85 563.2 18.6 562.9 22.4 564.6 22.5 Q567.1 22.45 568.7 21.2 L567.65 22.95 Q565.8 24.9 562.7 24.9 558.2 24.85 555.9 22.9 M564.8 53.95 Q562.6 57.0 559.2 54.95 555.95 53.05 557.5 49.6 557.2 51.8 559.1 53.4 561.8 55.7 564.8 53.95 M557.95 73.55 Q557.9 76.9 561.3 78.0 L564.15 78.55 565.25 77.95 Q563.45 80.95 559.8 79.1 555.75 76.95 557.95 73.55 M565.65 101.9 Q563.9 104.95 560.3 103.25 556.15 101.3 558.3 97.55 558.2 100.85 561.6 101.95 L564.55 102.45 565.65 101.9 M479.75 10.4 Q482.85 12.35 481.25 15.55 479.55 18.7 475.8 17.9 L475.15 17.35 Q477.95 17.55 479.7 15.2 481.5 12.8 479.75 10.4 M558.6 121.6 L558.75 122.65 Q560.45 128.1 565.95 125.9 565.1 127.75 562.8 127.45 561.25 127.45 559.85 126.65 556.45 124.55 558.6 121.6 M566.3 149.85 Q563.45 152.85 559.8 150.3 556.95 148.4 558.9 145.55 558.95 148.85 562.3 149.85 L565.85 150.25 566.3 149.85 M566.6 173.95 Q564.75 176.75 561.6 175.4 557.1 173.55 559.3 169.55 559.35 172.9 562.5 174.3 564.75 175.2 566.6 173.95 M566.85 198.0 Q566.45 198.85 565.5 199.25 562.45 200.5 560.3 198.5 557.55 196.0 559.6 193.6 559.7 196.9 562.9 197.95 564.3 198.45 565.9 198.55 566.35 198.25 566.85 198.0 M543.75 34.55 L447.75 31.3 Q369.05 29.75 272.35 29.5 183.0 29.2 107.6 30.0 69.0 30.35 42.55 30.9 44.55 63.15 45.25 119.05 L45.75 117.9 Q46.2 116.2 45.05 122.35 43.9 128.45 44.4 140.2 44.85 152.0 44.9 159.9 45.4 252.3 42.85 353.65 L152.75 357.15 Q228.6 358.45 320.95 358.8 405.9 359.05 478.4 358.35 521.6 357.85 549.55 357.2 546.8 324.65 545.2 267.1 545.15 266.8 545.45 267.25 545.0 263.45 545.05 251.15 L544.9 226.25 Q542.85 134.85 543.75 34.55 M567.5 221.9 Q565.65 224.75 562.15 223.25 558.0 221.25 560.2 217.5 560.15 220.85 563.55 222.0 L566.4 222.45 567.5 221.9 M560.5 241.55 Q560.4 244.8 563.75 246.3 565.85 247.1 567.8 245.85 566.05 248.85 562.45 247.2 558.4 245.25 560.5 241.55 M568.15 269.9 Q567.8 270.85 566.8 271.3 563.8 272.6 561.45 270.55 558.65 268.0 560.85 265.5 560.6 267.75 562.4 269.35 565.05 271.7 568.15 269.9 M568.5 293.85 Q566.85 296.8 563.2 295.2 558.9 293.35 561.15 289.55 561.0 292.9 564.45 294.2 566.85 295.2 568.5 293.85 M475.0 378.8 Q471.7 376.4 473.95 373.2 476.5 369.65 479.7 371.85 476.45 371.9 474.85 374.9 473.7 376.85 475.0 378.8 M551.4 369.5 Q554.35 366.35 558.85 367.9 560.45 368.35 561.6 369.6 563.3 372.45 561.0 374.9 L560.5 375.45 560.9 373.85 559.9 375.3 557.2 374.7 550.2 373.2 550.25 371.25 550.25 370.9 550.4 370.95 552.35 371.5 556.65 372.6 560.95 373.7 Q561.2 370.75 557.4 369.55 554.15 368.5 551.15 370.0 L551.4 369.5 M525.25 379.15 Q521.5 375.75 525.8 372.3 528.1 370.35 530.15 372.55 L527.85 372.5 Q524.45 374.0 524.55 377.4 524.6 378.5 525.25 379.15 M500.1 378.95 Q497.15 376.4 499.25 373.35 501.7 369.75 505.0 372.35 L502.7 372.3 Q499.35 373.75 499.7 377.15 499.75 378.1 500.1 378.95 M568.8 317.85 Q568.35 318.9 567.4 319.25 563.75 320.55 561.4 317.75 559.55 315.55 561.45 313.5 561.5 316.85 564.75 318.25 567.0 319.15 568.8 317.85 M329.15 371.25 L326.85 371.25 Q323.45 372.65 323.8 376.1 L324.25 377.85 Q323.35 377.4 323.0 376.5 321.25 372.4 325.65 370.25 L328.3 370.3 329.15 371.25 M302.05 378.65 Q301.2 378.15 300.85 377.25 299.0 373.25 303.55 371.2 L306.2 371.25 306.8 371.8 Q303.95 371.75 302.15 373.95 300.4 376.2 302.05 378.65 M349.4 378.05 Q348.35 377.7 348.0 376.75 346.35 372.6 350.8 370.45 L353.4 370.5 354.25 371.45 352.0 371.4 Q348.5 372.85 348.9 376.3 348.95 377.15 349.4 378.05 M399.6 378.4 Q398.65 377.95 398.3 377.1 396.55 373.0 401.0 370.85 L403.65 370.9 404.3 371.55 Q399.75 371.7 399.0 375.9 398.75 377.3 399.6 378.4 M374.55 378.3 Q371.15 376.25 373.6 372.75 374.9 370.8 377.35 370.3 378.8 370.35 379.45 371.65 L377.1 371.6 Q373.7 373.1 373.8 376.5 373.85 377.45 374.55 378.3 M454.65 371.75 Q452.25 371.4 450.6 373.05 448.1 375.5 449.85 378.55 446.35 375.6 449.6 372.25 451.95 369.85 454.65 371.75 M429.65 372.0 L427.35 371.95 Q423.75 373.5 424.15 376.85 424.2 377.9 424.7 378.6 423.15 377.55 422.95 375.95 422.65 373.1 425.05 371.5 427.75 369.65 429.65 372.0 M103.95 18.2 L102.95 18.2 Q101.95 17.95 101.1 16.95 105.8 17.4 106.55 12.8 106.75 11.35 105.95 10.3 109.35 12.95 106.6 16.5 105.6 17.65 103.95 18.2 M78.8 17.95 L77.25 17.95 76.1 17.1 Q79.1 17.4 80.8 14.95 82.4 12.55 80.8 10.2 82.1 10.7 82.45 12.2 83.35 16.45 78.8 17.95 M54.05 17.75 Q52.8 18.25 51.85 17.75 L51.0 17.0 Q55.45 17.0 56.3 12.6 56.5 11.25 55.65 10.1 58.2 11.45 57.4 14.25 56.65 16.8 54.05 17.75 M31.75 17.55 Q30.2 20.5 26.8 20.55 22.4 20.6 19.8 17.45 18.1 14.1 20.4 11.0 L21.25 10.05 20.65 12.15 21.9 10.3 25.05 11.05 33.1 13.0 33.1 15.65 33.1 15.9 32.95 15.85 30.5 15.1 25.65 13.75 20.65 12.35 Q20.85 16.85 25.65 17.9 29.1 18.8 32.0 17.05 L31.75 17.55 M131.0 10.4 Q134.3 12.7 132.15 16.05 129.9 19.5 126.35 17.3 129.2 17.6 130.95 15.15 132.7 12.8 131.0 10.4 M27.3 50.9 Q24.95 53.9 21.55 51.95 17.8 49.85 20.0 46.55 20.0 49.8 23.3 50.75 L26.85 51.3 27.3 50.9 M20.25 70.5 Q20.1 73.9 23.5 74.9 L27.05 75.35 Q27.2 75.15 27.5 75.0 25.75 77.95 22.2 76.2 18.05 74.2 20.25 70.5 M27.6 98.95 Q25.55 102.05 21.9 99.9 18.3 97.85 20.35 94.6 20.3 97.9 23.55 99.15 L27.6 98.95 M27.7 122.95 Q24.85 126.4 21.15 123.45 18.45 121.3 20.45 118.55 20.35 121.9 23.75 122.95 L26.65 123.55 27.7 122.95 M27.85 146.95 Q25.65 150.0 21.95 147.85 18.45 145.75 20.55 142.5 20.65 145.85 23.9 147.0 L26.8 147.55 27.85 146.95 M20.7 166.5 Q20.5 168.75 22.35 170.3 25.05 172.6 27.95 170.95 25.85 174.0 22.2 171.85 18.6 169.75 20.7 166.5 M20.85 190.5 Q20.8 191.8 21.65 192.8 24.0 195.9 28.1 195.0 25.45 198.05 21.9 195.7 18.5 193.5 20.85 190.5 M278.8 9.7 Q282.05 11.9 279.8 15.2 277.3 18.75 274.15 16.65 277.7 16.75 279.2 13.65 280.2 11.55 278.8 9.7 M251.95 17.5 Q256.55 17.6 257.25 13.15 257.5 11.75 256.65 10.6 260.05 12.75 257.7 16.2 255.2 19.8 251.95 17.5 M231.6 10.6 Q233.25 11.35 233.5 13.25 233.7 16.05 231.35 17.65 228.7 19.45 226.7 17.2 L228.8 16.75 Q233.6 14.95 231.6 10.6 M201.55 17.1 Q205.35 17.6 206.8 14.4 207.8 12.1 206.35 10.45 208.1 11.25 208.3 13.2 208.6 15.95 206.1 17.55 203.4 19.35 201.55 17.1 M181.25 10.35 Q184.7 12.65 182.45 15.95 180.1 19.3 176.65 17.3 179.5 17.5 181.2 15.05 182.95 12.65 181.25 10.35 M156.15 10.25 Q159.8 12.85 156.9 16.35 154.45 19.4 151.55 17.2 154.4 17.45 156.2 15.0 157.9 12.6 156.15 10.25 M151.35 377.4 Q150.35 376.85 150.0 376.05 148.3 372.0 152.75 369.9 L155.4 369.95 156.1 370.5 Q151.45 370.6 150.8 375.0 150.55 376.35 151.35 377.4 M126.25 377.4 Q125.25 376.9 124.9 376.1 123.2 372.1 127.65 369.9 L130.3 369.95 130.95 370.5 Q126.45 370.6 125.65 374.95 125.4 376.35 126.25 377.4 M206.55 371.3 L204.2 371.25 Q200.8 372.65 201.0 376.1 201.05 377.1 201.65 377.9 L200.7 377.05 Q198.2 372.65 203.05 370.3 L205.65 370.35 206.55 371.3 M176.5 377.7 Q172.75 374.7 176.4 371.2 178.95 368.75 181.35 371.0 L179.1 370.95 Q175.7 372.5 175.95 375.9 176.0 376.85 176.5 377.7 M256.55 371.45 Q252.5 371.45 251.3 375.2 250.8 376.8 251.8 378.3 250.55 377.8 250.25 376.35 249.3 372.5 253.25 370.75 L255.9 370.8 256.55 371.45 M226.7 378.1 Q225.85 377.7 225.45 376.8 223.65 372.6 228.15 370.5 L230.8 370.55 231.6 371.5 229.3 371.45 Q225.95 372.95 226.25 376.3 L226.7 378.1 M281.85 371.95 L279.6 371.9 Q276.05 373.35 276.35 376.85 276.35 377.95 276.9 378.55 275.25 377.7 275.15 375.9 274.95 373.05 277.3 371.45 279.95 369.6 281.85 371.95 M21.2 214.5 Q21.0 217.85 24.45 219.15 26.7 220.05 28.5 218.9 28.1 219.85 27.05 220.2 23.3 221.65 21.0 218.75 19.1 216.4 21.2 214.5 M28.55 242.95 Q28.3 243.8 27.2 244.35 24.15 245.6 21.9 243.55 19.0 240.95 21.3 238.45 21.1 240.75 22.85 242.3 25.55 244.7 28.55 242.95 M28.7 266.95 Q25.8 270.15 22.15 267.4 19.3 265.25 21.45 262.55 21.2 265.85 24.65 267.05 L27.6 267.55 28.7 266.95 M28.85 290.85 Q28.5 292.05 27.5 292.45 23.65 293.6 21.45 290.8 19.65 288.5 21.5 286.55 21.45 289.8 24.8 290.9 L27.75 291.45 28.85 290.85 M28.95 314.9 Q28.4 316.3 26.95 316.65 23.45 317.3 21.5 314.8 19.75 312.5 21.6 310.55 21.55 313.8 24.95 314.85 L28.45 315.3 28.95 314.9 M36.0 364.7 Q41.0 361.4 46.8 364.1 L47.8 364.75 Q51.6 368.75 47.9 372.85 L47.25 373.5 Q49.35 369.05 45.05 366.5 L43.8 365.85 43.65 376.85 39.9 377.35 40.0 375.55 40.5 368.7 40.75 365.25 39.05 365.2 Q36.85 365.1 34.9 366.25 L36.0 364.7 M76.0 377.0 L74.6 375.85 Q72.9 372.3 76.4 369.9 79.1 368.0 80.9 370.35 L78.65 370.3 Q75.1 371.75 75.35 375.2 75.35 376.25 76.0 377.0 M50.85 376.7 Q49.6 376.15 49.1 374.75 L48.9 374.1 Q48.7 373.0 49.3 371.9 50.05 370.2 52.3 369.15 L54.95 369.2 55.75 370.1 53.45 370.05 Q50.1 371.65 50.2 375.0 50.2 376.0 50.85 376.7 M30.4 369.55 L29.45 369.75 Q23.95 371.35 25.75 376.5 24.9 375.95 24.55 375.15 22.75 370.95 27.2 368.95 L29.65 369.0 30.4 369.55 M63.35 370.15 Q66.7 366.2 71.85 368.7 74.4 369.75 74.15 372.4 73.95 374.4 72.25 375.5 73.85 371.75 70.05 370.05 66.6 368.65 63.35 370.15 M101.15 377.15 Q99.45 376.5 99.25 374.55 98.9 371.7 101.45 370.05 104.15 368.35 106.0 370.55 L103.7 370.5 Q100.3 372.0 100.4 375.45 100.4 376.4 101.15 377.15" fill="#47525f" fill-rule="evenodd" stroke="none"/>
    <path d="M476.7 35.45 L399.3 34.75 277.75 32.5 178.9 31.9 Q158.55 31.85 73.3 34.2 L46.25 35.45 Q48.65 179.05 49.35 186.1 49.95 193.1 49.95 306.9 L48.1 349.15 142.0 355.65 Q301.7 355.6 312.75 356.2 322.95 356.7 375.95 357.15 431.35 357.6 436.75 356.8 L544.2 353.3 Q541.2 281.7 541.2 275.9 L541.2 211.35 539.4 37.75 476.7 35.45 M543.75 34.55 Q542.85 134.85 544.9 226.25 L545.05 251.15 Q545.0 263.45 545.45 267.25 545.15 266.8 545.2 267.1 546.8 324.65 549.55 357.2 521.6 357.85 478.4 358.35 405.9 359.05 320.95 358.8 228.6 358.45 152.75 357.15 L42.85 353.65 Q45.4 252.3 44.9 159.9 44.85 152.0 44.4 140.2 43.9 128.45 45.05 122.35 46.2 116.2 45.75 117.9 L45.25 119.05 Q44.55 63.15 42.55 30.9 69.0 30.35 107.6 30.0 183.0 29.2 272.35 29.5 369.05 29.75 447.75 31.3 L543.75 34.55" fill="#bfbfbf" fill-rule="evenodd" stroke="none"/>
    <path d="M13.45 25.75 L23.4 25.5 13.45 25.85 13.45 25.75 M551.4 369.5 L471.1 368.9 473.0 368.9 Q495.85 368.6 518.7 367.9 L562.25 365.9 575.75 364.65 575.8 364.6 Q577.8 372.25 578.75 379.85 L578.95 381.85 465.4 382.35 525.45 379.4 526.45 380.1 Q528.9 380.7 530.5 379.15 L552.35 378.05 554.8 378.5 Q556.65 378.55 558.1 377.75 L569.6 377.15 568.6 369.65 561.6 369.6 Q560.45 368.35 558.85 367.9 554.35 366.35 551.4 369.5 M578.4 356.3 L575.3 356.45 575.55 280.5 Q577.4 331.9 578.4 356.3 M562.4 356.9 L557.05 357.05 Q554.2 306.75 553.05 237.4 559.55 310.65 562.4 356.9 M103.95 18.2 L117.8 18.3 Q98.1 18.6 69.6 19.5 21.25 21.0 6.9 23.0 4.45 11.65 3.95 3.95 L124.35 3.45 32.4 8.1 Q31.85 7.7 31.3 7.4 26.25 4.5 22.2 8.65 L13.2 9.15 14.3 17.45 19.8 17.45 Q22.4 20.6 26.8 20.55 30.2 20.5 31.75 17.55 L51.85 17.75 Q52.8 18.25 54.05 17.75 L77.25 17.95 78.8 17.95 102.95 18.2 103.95 18.2 M29.65 31.25 L35.0 31.1 Q36.9 80.75 37.0 148.65 31.75 77.0 29.65 31.25 M13.55 31.7 L16.6 31.6 15.15 105.3 13.55 31.7" fill="#a09fa0" fill-rule="evenodd" stroke="none"/>
    <path d="M556.65 12.75 L424.15 4.05 584.8 7.3 584.15 27.5 Q443.95 24.6 362.75 22.25 435.8 22.3 555.9 22.9 558.2 24.85 562.7 24.9 565.8 24.9 567.65 22.95 L575.9 23.0 572.1 13.75 570.65 13.65 Q570.25 12.1 569.05 10.95 565.15 7.3 560.1 9.5 L560.0 9.55 Q559.05 10.0 558.25 10.8 557.2 11.65 556.65 12.75 M47.8 364.75 L46.8 364.1 Q41.0 361.4 36.0 364.7 L27.65 364.65 29.65 369.0 27.2 368.95 Q22.75 370.95 24.55 375.15 24.9 375.95 25.75 376.5 L26.95 377.35 Q32.15 378.0 32.4 373.05 L32.85 373.05 33.65 374.4 Q37.4 379.2 43.65 376.85 L45.45 375.75 47.0 374.0 48.9 374.1 49.1 374.75 Q49.6 376.15 50.85 376.7 51.45 377.15 52.2 377.3 56.15 378.4 57.3 374.7 L61.8 375.0 Q62.5 377.1 64.85 378.05 69.4 379.4 72.15 375.65 L74.6 375.85 76.0 377.0 77.2 377.9 80.1 377.8 81.8 376.3 101.55 377.6 102.3 378.15 105.4 377.9 163.9 381.8 18.8 378.9 19.4 360.55 229.7 365.35 47.8 364.75" fill="#848484" fill-rule="evenodd" stroke="none"/>
    <path d="M452.9 12.05 Q453.5 14.75 450.6 15.7 449.85 15.85 449.3 15.15 447.4 12.65 450.0 10.85 L451.8 10.85 452.9 12.05 M427.35 14.4 Q426.0 16.25 424.35 15.4 L423.6 14.65 Q422.6 12.35 424.85 10.95 L426.7 10.9 Q428.75 12.45 427.35 14.4 M399.8 10.85 L401.55 10.8 Q404.4 13.55 400.75 15.55 399.65 16.1 398.95 15.15 397.1 12.65 399.8 10.85 M376.45 10.7 Q378.05 11.6 377.45 13.35 376.55 15.95 373.95 15.35 373.15 14.85 373.05 14.0 372.65 11.8 374.65 10.75 L376.45 10.7 M349.5 10.6 L351.3 10.55 Q351.85 11.1 352.05 11.8 353.0 15.4 348.8 15.15 348.1 14.55 347.95 13.85 347.55 11.75 349.5 10.6 M327.4 12.65 Q327.15 14.45 325.45 15.25 324.3 15.7 323.6 14.7 321.7 12.35 324.35 10.45 L326.2 10.4 Q327.55 11.05 327.4 12.65 M301.7 13.75 Q300.5 15.4 298.55 14.9 296.45 12.35 299.2 10.3 L301.05 10.25 Q303.25 11.75 301.7 13.75 M556.35 13.25 L556.65 12.75 Q557.2 11.65 558.25 10.8 559.05 10.0 560.0 9.55 L559.85 21.65 558.7 21.0 Q554.55 18.0 556.35 13.25 M560.1 9.5 Q565.15 7.3 569.05 10.95 570.25 12.1 570.65 13.65 571.85 17.3 569.5 20.3 L568.7 21.2 Q567.1 22.45 564.6 22.5 L562.9 22.4 563.2 18.6 566.15 19.1 Q568.1 19.3 569.25 17.8 571.05 15.25 569.25 12.7 567.2 9.75 563.65 10.85 L563.8 8.9 560.1 9.5 M564.45 50.3 L563.8 51.9 Q560.2 53.15 559.05 49.6 561.35 46.5 563.95 49.6 L564.45 50.3 M563.8 75.75 Q559.9 76.9 559.75 72.85 560.75 71.85 562.05 72.25 564.95 72.25 564.7 75.2 L563.8 75.75 M562.6 100.05 Q559.65 99.15 560.7 96.55 L563.4 96.25 Q565.25 96.95 564.85 98.9 564.45 100.6 562.6 100.05 M478.05 12.2 Q478.75 14.7 476.1 15.75 L475.0 15.65 Q472.0 13.45 475.15 11.0 L476.9 10.95 478.05 12.2 M562.5 124.2 Q560.3 123.4 560.25 121.25 562.4 119.1 564.5 121.05 L565.5 122.35 Q565.05 124.9 562.5 124.2 M562.15 144.05 Q563.55 144.35 564.7 145.05 566.75 146.35 564.9 148.1 L563.45 148.2 Q561.2 147.85 560.55 145.65 L560.75 144.9 562.15 144.05 M561.7 168.45 Q565.1 167.1 566.25 170.35 L566.05 171.15 565.2 172.05 Q561.75 173.15 561.15 169.6 560.95 168.8 561.7 168.45 M564.8 192.25 Q567.5 193.7 565.65 195.65 564.6 196.8 563.15 196.0 561.0 194.85 561.4 192.8 562.05 192.4 562.8 192.2 L564.8 192.25 M566.45 219.85 Q562.85 221.1 561.75 217.55 L561.95 216.85 Q563.0 215.9 564.5 215.95 567.35 216.45 566.75 219.1 L566.45 219.85 M562.3 240.85 Q564.05 239.35 566.05 240.55 568.45 241.95 566.45 244.05 L566.0 244.2 Q562.75 244.55 562.05 241.55 L562.3 240.85 M567.55 267.1 Q565.6 269.75 563.15 267.1 562.3 266.3 562.45 265.2 563.9 263.3 566.2 264.3 568.15 265.2 567.55 267.1 M566.65 292.25 L565.9 292.3 Q562.85 291.8 562.9 288.85 565.1 287.65 566.95 289.1 569.2 290.75 566.65 292.25 M477.0 377.0 Q476.4 374.65 478.8 373.55 L480.45 373.55 Q481.45 374.6 481.2 376.0 480.75 378.9 477.6 378.15 477.15 377.55 477.0 377.0 M558.1 377.75 Q556.65 378.55 554.8 378.5 L552.35 378.05 Q547.9 375.3 550.25 371.25 L550.2 373.2 Q549.55 376.35 552.85 376.95 556.1 377.75 557.2 374.7 L559.9 375.3 560.9 373.85 560.5 375.45 559.1 377.1 558.1 377.75 M456.1 376.25 Q455.35 378.5 452.75 378.1 450.65 376.5 452.2 374.55 453.5 372.8 455.3 373.4 456.6 374.6 456.1 376.25 M530.55 374.0 Q532.95 376.6 529.8 378.25 L528.1 378.65 Q525.9 376.3 528.7 374.3 529.7 373.55 530.55 374.0 M504.8 373.55 L505.55 373.75 Q507.05 375.25 506.1 377.1 505.1 379.05 502.7 378.3 500.5 374.75 504.8 373.55 M564.75 312.35 Q568.65 311.8 568.05 315.55 566.85 316.55 565.45 316.15 563.45 315.65 563.05 313.6 L563.3 312.85 Q564.0 312.4 564.75 312.35 M556.65 372.6 L556.4 372.45 Q554.6 371.15 552.35 371.5 L550.4 370.95 551.15 370.0 Q554.15 368.5 557.4 369.55 561.2 370.75 560.95 373.7 L556.65 372.6 M329.65 372.7 L330.25 374.05 Q331.05 377.6 327.2 377.3 L326.5 376.5 Q325.3 373.8 328.05 372.65 L329.65 372.7 M306.85 378.15 L304.65 378.05 Q302.6 375.25 305.9 373.45 L307.55 373.5 308.0 374.05 Q309.25 376.7 306.85 378.15 M355.65 375.25 Q355.25 377.85 352.3 377.55 350.4 376.35 351.45 374.5 352.55 372.2 354.8 372.85 355.9 373.75 355.65 375.25 M401.45 376.7 Q400.65 374.5 403.4 373.2 L405.05 373.25 Q405.7 373.6 405.9 374.6 406.3 376.85 404.35 377.9 L402.6 377.95 Q401.7 377.5 401.45 376.7 M380.35 373.6 Q381.9 377.75 377.4 377.75 376.2 377.05 376.3 376.0 376.6 372.6 379.95 373.05 L380.35 373.6 M429.35 377.75 L427.65 378.15 Q424.9 375.55 428.55 373.4 L430.15 373.45 Q432.5 376.2 429.35 377.75 M22.2 8.65 Q26.25 4.5 31.3 7.4 31.85 7.7 32.4 8.1 35.3 11.75 33.1 15.65 L33.1 13.0 Q34.05 8.4 29.3 7.85 26.15 8.0 25.05 11.05 L21.9 10.3 20.65 12.15 21.25 10.05 22.2 8.65 M32.95 15.85 L32.0 17.05 Q29.1 18.8 25.65 17.9 20.85 16.85 20.65 12.35 L25.65 13.75 25.9 14.05 Q27.9 15.55 30.5 15.1 L32.95 15.85 M126.35 10.95 L128.15 10.9 Q130.9 13.75 127.25 15.55 125.35 16.35 124.9 14.2 124.5 12.1 126.35 10.95 M103.05 10.85 Q105.65 13.2 102.4 15.35 L101.35 15.75 100.55 15.55 Q98.5 12.95 101.25 10.9 L103.05 10.85 M77.9 10.75 Q79.7 11.85 78.7 13.8 77.35 16.25 75.15 15.2 L74.6 14.05 Q74.1 11.95 76.1 10.85 L77.9 10.75 M52.75 10.65 Q55.15 12.4 53.2 14.45 51.75 16.15 50.0 15.1 48.7 12.4 51.0 10.75 L52.75 10.65 M25.45 49.3 Q23.15 50.0 21.8 47.35 21.3 46.5 21.8 45.9 22.2 45.3 23.15 45.1 25.6 44.55 26.6 46.5 27.05 47.35 26.7 48.25 26.3 48.95 25.45 49.3 M25.65 73.25 L24.25 73.1 Q21.55 72.35 22.0 69.85 23.45 68.35 25.35 69.2 27.6 70.1 26.95 72.2 L25.65 73.25 M22.1 93.85 L22.75 93.45 Q25.3 92.4 27.0 94.45 L27.15 96.25 Q23.5 98.9 21.9 94.6 L22.1 93.85 M23.65 117.15 Q27.45 116.85 27.2 120.15 L25.9 121.25 Q22.8 121.35 22.05 118.65 22.35 117.35 23.65 117.15 M27.2 142.45 L27.1 143.6 Q26.7 144.5 25.85 144.85 22.85 145.8 22.15 142.55 22.2 142.15 22.5 141.95 25.25 139.9 27.2 142.45 M22.25 166.55 L22.5 165.8 Q25.2 163.8 27.2 166.5 27.95 167.65 26.85 168.75 25.65 169.85 24.2 169.1 22.6 168.2 22.25 166.55 M25.25 193.15 Q22.2 192.6 22.6 189.8 L24.0 189.05 25.9 189.45 Q28.65 190.55 26.95 192.75 26.4 193.45 25.25 193.15 M275.9 10.25 Q278.65 12.6 275.65 14.5 L275.05 14.95 273.4 14.9 Q271.4 12.3 274.15 10.3 L275.9 10.25 M253.0 16.0 Q251.65 16.5 250.9 15.25 249.55 12.85 251.95 11.2 L253.75 11.15 Q255.4 12.15 254.9 13.85 254.45 15.35 253.0 16.0 M229.8 12.3 Q230.3 15.05 227.4 16.0 226.8 16.2 226.35 15.65 224.0 13.25 226.85 11.15 L228.7 11.05 229.8 12.3 M202.7 15.8 Q202.0 16.1 201.55 15.8 198.65 13.5 201.75 11.05 L203.5 10.95 204.65 12.2 Q205.2 14.7 202.7 15.8 M178.4 10.85 L179.5 12.1 Q180.2 14.55 177.7 15.75 176.55 16.2 175.85 15.2 174.0 12.75 176.6 10.95 L178.4 10.85 M153.25 10.85 Q155.9 13.55 152.5 15.55 151.75 16.05 151.2 15.55 148.85 13.05 151.45 10.85 L153.25 10.85 M156.8 372.25 Q158.95 375.1 155.9 376.5 155.1 376.9 154.25 376.95 151.5 374.2 155.15 372.2 L156.8 372.25 M131.7 376.2 L130.95 376.85 129.15 376.9 Q126.45 374.2 130.0 372.2 L131.65 372.25 Q133.4 374.15 131.7 376.2 M207.05 372.7 Q208.55 374.05 207.65 375.95 206.65 377.9 204.2 377.15 202.0 373.65 206.25 372.45 L207.05 372.7 M178.5 375.9 Q177.85 373.45 180.3 372.45 L181.9 372.5 Q182.75 373.3 182.75 374.45 182.6 377.85 179.0 377.0 L178.5 375.9 M233.0 375.4 Q232.65 378.05 229.6 377.6 L228.95 376.8 Q227.65 374.05 230.5 372.9 L232.15 372.95 Q233.15 373.95 233.0 375.4 M282.4 373.4 Q283.35 374.15 283.2 375.7 282.95 378.45 279.9 378.1 279.4 377.7 279.25 377.15 278.05 374.6 280.8 373.35 L282.4 373.4 M254.8 377.85 Q253.45 377.1 253.75 375.65 254.35 372.75 257.25 373.15 258.55 374.2 258.05 376.05 257.35 378.25 254.8 377.85 M23.55 213.5 Q27.6 212.2 27.9 216.15 L27.1 217.1 Q23.0 217.65 22.95 213.9 L23.55 213.5 M26.45 237.35 Q29.45 238.9 27.2 241.05 L26.2 241.2 Q22.75 241.2 23.05 237.8 L24.5 237.05 26.45 237.35 M28.1 264.2 Q27.9 265.05 26.9 265.25 23.65 265.7 22.95 262.6 L23.15 261.85 Q24.55 260.4 26.5 261.2 28.7 262.05 28.1 264.2 M28.2 288.15 L28.1 288.55 Q26.0 290.25 24.1 288.5 22.85 287.35 23.3 285.85 L24.7 285.0 Q28.7 284.8 28.2 288.15 M27.9 312.8 Q23.55 313.75 23.4 309.85 23.95 309.5 24.65 309.25 26.25 308.65 27.55 309.85 29.15 311.2 27.9 312.8 M34.9 366.25 Q36.85 365.1 39.05 365.2 L40.75 365.25 40.5 368.7 Q36.05 366.95 33.9 370.7 33.0 372.25 34.2 373.95 36.4 376.95 40.0 375.55 L39.9 377.35 43.65 376.85 43.8 365.85 45.05 366.5 Q49.35 369.05 47.25 373.5 L47.0 374.0 45.45 375.75 43.65 376.85 Q37.4 379.2 33.65 374.4 L32.85 373.05 Q31.8 369.75 34.05 367.05 L34.9 366.25 M72.15 375.65 Q69.4 379.4 64.85 378.05 62.5 377.1 61.8 375.0 61.15 372.6 62.7 370.75 L63.35 370.15 Q66.6 368.65 70.05 370.05 73.85 371.75 72.25 375.5 L72.15 375.65 M31.15 371.35 L31.95 372.7 Q32.4 374.25 31.25 375.4 L30.5 375.9 28.65 375.95 Q25.9 373.2 29.6 371.3 L31.15 371.35 M78.1 373.45 Q79.1 371.35 81.4 371.8 82.85 373.2 82.05 374.95 81.1 376.85 78.9 376.45 77.1 375.3 78.1 373.45 M53.8 376.25 L53.2 375.35 Q52.25 372.85 54.7 371.55 L56.3 371.6 Q58.65 375.85 53.8 376.25 M65.25 371.6 Q63.55 371.55 62.9 373.05 61.5 376.15 65.0 376.95 66.3 377.25 67.45 376.6 70.55 374.75 68.05 372.3 66.8 371.6 65.25 371.6 M107.45 373.9 Q107.45 377.05 104.05 376.7 103.2 376.3 103.0 375.5 102.35 373.0 104.9 372.0 L106.55 372.05 Q107.4 372.7 107.45 373.9" fill="#9c9c9c" fill-rule="evenodd" stroke="none"/>
    <path d="M563.65 10.85 Q567.2 9.75 569.25 12.7 571.05 15.25 569.25 17.8 568.1 19.3 566.15 19.1 L563.2 18.6 563.65 10.85 M557.2 374.7 Q556.1 377.75 552.85 376.95 549.55 376.35 550.2 373.2 L557.2 374.7 M552.35 371.5 Q554.6 371.15 556.4 372.45 L556.65 372.6 552.35 371.5 M30.5 15.1 Q27.9 15.55 25.9 14.05 L25.65 13.75 30.5 15.1 M33.1 13.0 L25.05 11.05 Q26.15 8.0 29.3 7.85 34.05 8.4 33.1 13.0 M40.5 368.7 L40.0 375.55 Q36.4 376.95 34.2 373.95 33.0 372.25 33.9 370.7 36.05 366.95 40.5 368.7 M65.25 371.6 Q66.8 371.6 68.05 372.3 70.55 374.75 67.45 376.6 66.3 377.25 65.0 376.95 61.5 376.15 62.9 373.05 63.55 371.55 65.25 371.6" fill="#d5d4d4" fill-rule="evenodd" stroke="none"/>
    <path d="M476.7 35.45 L539.4 37.75 541.2 211.35 541.2 275.9 Q541.2 281.7 544.2 353.3 L436.75 356.8 Q431.35 357.6 375.95 357.15 322.95 356.7 312.75 356.2 301.7 355.6 142.0 355.65 L48.1 349.15 49.95 306.9 Q49.95 193.1 49.35 186.1 48.65 179.05 46.25 35.45 L73.3 34.2 Q158.55 31.85 178.9 31.9 L277.75 32.5 399.3 34.75 476.7 35.45" fill="#ffffff" fill-rule="evenodd" stroke="none"/>
    <path d="M452.9 12.05 L451.8 10.85 450.0 10.85 Q447.4 12.65 449.3 15.15 449.85 15.85 450.6 15.7 453.5 14.75 452.9 12.05 M449.85 16.95 Q448.95 16.95 448.6 16.15 446.95 11.95 450.65 9.55 L453.55 9.45 454.7 10.3 Q456.8 14.85 452.0 16.65 L449.85 16.95 M424.85 17.3 Q423.95 17.0 423.6 16.2 421.7 12.05 425.5 9.65 L428.35 9.55 429.55 10.35 Q431.25 12.7 429.5 15.2 427.75 17.5 424.85 17.3 M427.35 14.4 Q428.75 12.45 426.7 10.9 L424.85 10.95 Q422.6 12.35 423.6 14.65 L424.35 15.4 Q426.0 16.25 427.35 14.4 M404.4 10.25 Q406.05 12.6 404.4 15.0 402.7 17.45 399.8 17.2 398.85 17.0 398.45 16.05 396.7 11.85 400.35 9.5 L403.25 9.4 404.4 10.25 M399.8 10.85 Q397.1 12.65 398.95 15.15 399.65 16.1 400.75 15.55 404.4 13.55 401.55 10.8 L399.8 10.85 M374.65 17.0 Q373.8 16.8 373.4 15.9 371.45 11.8 375.2 9.4 L378.15 9.3 379.3 10.1 Q381.0 12.45 379.3 14.85 377.55 17.25 374.65 17.0 M376.45 10.7 L374.65 10.75 Q372.65 11.8 373.05 14.0 373.15 14.85 373.95 15.35 376.55 15.95 377.45 13.35 378.05 11.6 376.45 10.7 M354.2 10.0 Q355.05 11.15 354.85 12.5 354.05 16.95 349.45 16.85 348.7 16.55 348.3 15.75 346.4 11.65 350.05 9.2 L353.0 9.1 354.2 10.0 M327.4 12.65 Q327.55 11.05 326.2 10.4 L324.35 10.45 Q321.7 12.35 323.6 14.7 324.3 15.7 325.45 15.25 327.15 14.45 327.4 12.65 M349.5 10.6 Q347.55 11.75 347.95 13.85 348.1 14.55 348.8 15.15 353.0 15.4 352.05 11.8 351.85 11.1 351.3 10.55 L349.5 10.6 M324.4 16.8 Q323.4 16.4 323.1 15.65 321.25 11.6 325.0 9.1 L327.9 9.0 329.05 9.85 Q330.75 12.2 329.0 14.55 327.25 16.95 324.4 16.8 M303.95 9.75 Q305.35 11.65 304.35 13.7 302.75 16.75 299.25 16.65 298.45 16.3 298.05 15.5 296.15 11.3 299.85 8.95 L302.75 8.85 303.95 9.75 M301.7 13.75 Q303.25 11.75 301.05 10.25 L299.2 10.3 Q296.45 12.35 298.55 14.9 300.5 15.4 301.7 13.75 M564.45 50.3 L563.95 49.6 Q561.35 46.5 559.05 49.6 560.2 53.15 563.8 51.9 L564.45 50.3 M557.5 49.6 Q559.35 46.85 563.05 48.15 563.8 48.4 564.45 49.0 567.3 51.4 564.8 53.95 561.8 55.7 559.1 53.4 557.2 51.8 557.5 49.6 M563.8 75.75 L564.7 75.2 Q564.95 72.25 562.05 72.25 560.75 71.85 559.75 72.85 559.9 76.9 563.8 75.75 M565.25 77.95 L564.15 78.55 561.3 78.0 Q557.9 76.9 557.95 73.55 561.2 70.25 564.75 73.05 567.75 75.4 565.25 77.95 M562.6 100.05 Q564.45 100.6 564.85 98.9 565.25 96.95 563.4 96.25 L560.7 96.55 Q559.65 99.15 562.6 100.05 M558.3 97.55 Q558.85 96.45 560.1 96.0 563.1 95.0 565.25 96.85 568.1 99.3 565.65 101.9 L564.55 102.45 561.6 101.95 Q558.2 100.85 558.3 97.55 M478.05 12.2 L476.9 10.95 475.15 11.0 Q472.0 13.45 475.0 15.65 L476.1 15.75 Q478.75 14.7 478.05 12.2 M475.15 17.35 Q474.25 17.1 473.85 16.2 472.0 12.1 475.7 9.7 L478.6 9.6 479.75 10.4 Q481.5 12.8 479.7 15.2 477.95 17.55 475.15 17.35 M562.5 124.2 Q565.05 124.9 565.5 122.35 L564.5 121.05 Q562.4 119.1 560.25 121.25 560.3 123.4 562.5 124.2 M565.95 125.9 Q560.45 128.1 558.75 122.65 L558.6 121.6 Q561.2 118.4 564.95 120.65 568.5 122.85 565.95 125.9 M562.15 144.05 L560.75 144.9 560.55 145.65 Q561.2 147.85 563.45 148.2 L564.9 148.1 Q566.75 146.35 564.7 145.05 563.55 144.35 562.15 144.05 M558.9 145.55 Q559.5 144.4 560.8 144.05 563.7 143.1 565.9 144.95 568.7 147.3 566.3 149.85 L565.85 150.25 562.3 149.85 Q558.95 148.85 558.9 145.55 M561.7 168.45 Q560.95 168.8 561.15 169.6 561.75 173.15 565.2 172.05 L566.05 171.15 566.25 170.35 Q565.1 167.1 561.7 168.45 M559.3 169.55 Q559.8 168.35 561.1 168.0 564.6 166.95 566.75 169.45 568.85 171.9 566.6 173.95 564.75 175.2 562.5 174.3 559.35 172.9 559.3 169.55 M564.8 192.25 L562.8 192.2 Q562.05 192.4 561.4 192.8 561.0 194.85 563.15 196.0 564.6 196.8 565.65 195.65 567.5 193.7 564.8 192.25 M559.6 193.6 Q562.2 190.45 565.9 192.65 569.6 195.0 566.85 198.0 566.35 198.25 565.9 198.55 564.3 198.45 562.9 197.95 559.7 196.9 559.6 193.6 M566.45 219.85 L566.75 219.1 Q567.35 216.45 564.5 215.95 563.0 215.9 561.95 216.85 L561.75 217.55 Q562.85 221.1 566.45 219.85 M560.2 217.5 Q560.75 216.4 562.0 216.0 565.05 214.95 567.15 216.85 569.9 219.35 567.5 221.9 L566.4 222.45 563.55 222.0 Q560.15 220.85 560.2 217.5 M562.3 240.85 L562.05 241.55 Q562.75 244.55 566.0 244.2 L566.45 244.05 Q568.45 241.95 566.05 240.55 564.05 239.35 562.3 240.85 M567.8 245.85 Q565.85 247.1 563.75 246.3 560.4 244.8 560.5 241.55 563.5 238.2 567.3 241.05 570.25 243.35 567.8 245.85 M560.85 265.5 Q563.55 262.4 567.2 264.7 570.7 266.9 568.15 269.9 565.05 271.7 562.4 269.35 560.6 267.75 560.85 265.5 M566.65 292.25 Q569.2 290.75 566.95 289.1 565.1 287.65 562.9 288.85 562.85 291.8 565.9 292.3 L566.65 292.25 M567.55 267.1 Q568.15 265.2 566.2 264.3 563.9 263.3 562.45 265.2 562.3 266.3 563.15 267.1 565.6 269.75 567.55 267.1 M561.15 289.55 Q561.7 288.3 562.95 287.9 565.8 286.85 568.15 288.85 570.95 291.2 568.5 293.85 566.85 295.2 564.45 294.2 561.0 292.9 561.15 289.55 M477.0 377.0 Q477.15 377.55 477.6 378.15 480.75 378.9 481.2 376.0 481.45 374.6 480.45 373.55 L478.8 373.55 Q476.4 374.65 477.0 377.0 M479.7 371.85 Q481.95 373.1 481.55 375.85 480.95 380.3 476.2 379.65 L475.0 378.8 Q473.7 376.85 474.85 374.9 476.45 371.9 479.7 371.85 M530.5 379.15 Q528.9 380.7 526.45 380.1 L525.45 379.4 525.25 379.15 Q524.6 378.5 524.55 377.4 524.45 374.0 527.85 372.5 L530.15 372.55 530.35 372.6 Q533.4 375.75 530.5 379.15 M456.1 376.25 Q456.6 374.6 455.3 373.4 453.5 372.8 452.2 374.55 450.65 376.5 452.75 378.1 455.35 378.5 456.1 376.25 M530.55 374.0 Q529.7 373.55 528.7 374.3 525.9 376.3 528.1 378.65 L529.8 378.25 Q532.95 376.6 530.55 374.0 M505.0 372.35 Q507.4 373.75 506.6 376.75 505.6 380.5 501.3 379.85 L500.1 378.95 Q499.75 378.1 499.7 377.15 499.35 373.75 502.7 372.3 L505.0 372.35 M504.8 373.55 Q500.5 374.75 502.7 378.3 505.1 379.05 506.1 377.1 507.05 375.25 505.55 373.75 L504.8 373.55 M561.45 313.5 Q564.65 310.05 568.35 313.05 571.25 315.4 568.8 317.85 567.0 319.15 564.75 318.25 561.5 316.85 561.45 313.5 M564.75 312.35 Q564.0 312.4 563.3 312.85 L563.05 313.6 Q563.45 315.65 565.45 316.15 566.85 316.55 568.05 315.55 568.65 311.8 564.75 312.35 M324.25 377.85 L323.8 376.1 Q323.45 372.65 326.85 371.25 L329.15 371.25 Q331.6 372.65 330.8 375.7 329.7 379.4 325.5 378.8 L324.25 377.85 M329.65 372.7 L328.05 372.65 Q325.3 373.8 326.5 376.5 L327.2 377.3 Q331.05 377.6 330.25 374.05 L329.65 372.7 M306.8 371.8 Q309.0 373.15 308.7 375.75 308.1 380.2 303.3 379.55 L302.05 378.65 Q300.4 376.2 302.15 373.95 303.95 371.75 306.8 371.8 M355.65 375.25 Q355.9 373.75 354.8 372.85 352.55 372.2 351.45 374.5 350.4 376.35 352.3 377.55 355.25 377.85 355.65 375.25 M306.85 378.15 Q309.25 376.7 308.0 374.05 L307.55 373.5 305.9 373.45 Q302.6 375.25 304.65 378.05 L306.85 378.15 M354.25 371.45 Q356.7 372.75 355.9 375.9 354.9 379.65 350.6 378.95 L349.4 378.05 Q348.95 377.15 348.9 376.3 348.5 372.85 352.0 371.4 L354.25 371.45 M404.3 371.55 Q406.6 372.85 406.3 375.5 405.75 379.9 400.8 379.35 L399.6 378.4 Q398.75 377.3 399.0 375.9 399.75 371.7 404.3 371.55 M401.45 376.7 Q401.7 377.5 402.6 377.95 L404.35 377.9 Q406.3 376.85 405.9 374.6 405.7 373.6 405.05 373.25 L403.4 373.2 Q400.65 374.5 401.45 376.7 M379.45 371.65 Q382.35 374.05 380.25 377.15 377.85 380.65 374.55 378.3 373.85 377.45 373.8 376.5 373.7 373.1 377.1 371.6 L379.45 371.65 M380.35 373.6 L379.95 373.05 Q376.6 372.6 376.3 376.0 376.2 377.05 377.4 377.75 381.9 377.75 380.35 373.6 M449.85 378.55 Q448.1 375.5 450.6 373.05 452.25 371.4 454.65 371.75 456.85 373.45 456.25 376.0 455.35 379.45 451.1 379.5 L449.85 378.55 M429.35 377.75 Q432.5 376.2 430.15 373.45 L428.55 373.4 Q424.9 375.55 427.65 378.15 L429.35 377.75 M429.65 372.0 Q432.15 373.4 431.3 376.4 430.2 380.25 425.95 379.5 L424.7 378.6 Q424.2 377.9 424.15 376.85 423.75 373.5 427.35 371.95 L429.65 372.0 M126.35 17.3 Q125.45 17.0 125.1 16.15 123.25 12.05 126.95 9.65 L129.85 9.55 131.0 10.4 Q132.7 12.8 130.95 15.15 129.2 17.6 126.35 17.3 M126.35 10.95 Q124.5 12.1 124.9 14.2 125.35 16.35 127.25 15.55 130.9 13.75 128.15 10.9 L126.35 10.95 M105.95 10.3 Q106.75 11.35 106.55 12.8 105.8 17.4 101.1 16.95 100.25 16.95 99.85 16.1 98.1 11.95 101.8 9.55 L104.75 9.45 105.95 10.3 M103.05 10.85 L101.25 10.9 Q98.5 12.95 100.55 15.55 L101.35 15.75 102.4 15.35 Q105.65 13.2 103.05 10.85 M80.8 10.2 Q82.4 12.55 80.8 14.95 79.1 17.4 76.1 17.1 75.2 16.75 74.85 15.95 73.0 11.8 76.7 9.45 L79.6 9.35 80.8 10.2 M77.9 10.75 L76.1 10.85 Q74.1 11.95 74.6 14.05 L75.15 15.2 Q77.35 16.25 78.7 13.8 79.7 11.85 77.9 10.75 M55.65 10.1 Q56.5 11.25 56.3 12.6 55.45 17.0 51.0 17.0 50.15 16.65 49.8 15.9 47.85 11.8 51.6 9.4 L54.5 9.3 55.65 10.1 M52.75 10.65 L51.0 10.75 Q48.7 12.4 50.0 15.1 51.75 16.15 53.2 14.45 55.15 12.4 52.75 10.65 M25.45 49.3 Q26.3 48.95 26.7 48.25 27.05 47.35 26.6 46.5 25.6 44.55 23.15 45.1 22.2 45.3 21.8 45.9 21.3 46.5 21.8 47.35 23.15 50.0 25.45 49.3 M20.0 46.55 Q20.55 45.5 21.9 45.15 24.85 44.15 27.0 46.05 29.75 48.4 27.3 50.9 L26.85 51.3 23.3 50.75 Q20.0 49.8 20.0 46.55 M25.65 73.25 L26.95 72.2 Q27.6 70.1 25.35 69.2 23.45 68.35 22.0 69.85 21.55 72.35 24.25 73.1 L25.65 73.25 M27.5 75.0 Q27.2 75.15 27.05 75.35 L23.5 74.9 Q20.1 73.9 20.25 70.5 20.75 69.3 22.1 69.0 25.15 68.1 27.25 69.85 30.0 72.35 27.5 75.0 M22.1 93.85 L21.9 94.6 Q23.5 98.9 27.15 96.25 L27.0 94.45 Q25.3 92.4 22.75 93.45 L22.1 93.85 M20.35 94.6 Q23.05 91.5 26.7 93.75 30.25 96.05 27.6 98.95 L23.55 99.15 Q20.3 97.9 20.35 94.6 M20.45 118.55 Q20.95 117.45 22.35 117.0 25.3 116.1 27.4 117.95 30.25 120.4 27.7 122.95 L26.65 123.55 23.75 122.95 Q20.35 121.9 20.45 118.55 M27.2 142.45 Q25.25 139.9 22.5 141.95 22.2 142.15 22.15 142.55 22.85 145.8 25.85 144.85 26.7 144.5 27.1 143.6 L27.2 142.45 M23.65 117.15 Q22.35 117.35 22.05 118.65 22.8 121.35 25.9 121.25 L27.2 120.15 Q27.45 116.85 23.65 117.15 M20.55 142.5 Q23.65 139.1 27.5 142.05 30.45 144.4 27.85 146.95 L26.8 147.55 23.9 147.0 Q20.65 145.85 20.55 142.5 M22.25 166.55 Q22.6 168.2 24.2 169.1 25.65 169.85 26.85 168.75 27.95 167.65 27.2 166.5 25.2 163.8 22.5 165.8 L22.25 166.55 M27.95 170.95 Q25.05 172.6 22.35 170.3 20.5 168.75 20.7 166.5 23.2 163.75 26.6 165.55 30.6 167.5 27.95 170.95 M28.1 195.0 Q24.0 195.9 21.65 192.8 20.8 191.8 20.85 190.5 23.9 187.05 27.7 190.05 30.65 192.35 28.1 195.0 M25.25 193.15 Q26.4 193.45 26.95 192.75 28.65 190.55 25.9 189.45 L24.0 189.05 22.6 189.8 Q22.2 192.6 25.25 193.15 M274.15 16.65 Q273.25 16.3 272.9 15.5 271.05 11.3 274.75 8.95 L277.65 8.85 278.8 9.7 Q280.2 11.55 279.2 13.65 277.7 16.75 274.15 16.65 M275.9 10.25 L274.15 10.3 Q271.4 12.3 273.4 14.9 L275.05 14.95 275.65 14.5 Q278.65 12.6 275.9 10.25 M251.95 17.5 Q250.95 17.15 250.65 16.45 248.8 12.25 252.6 9.85 L255.5 9.75 256.65 10.6 Q257.5 11.75 257.25 13.15 256.55 17.6 251.95 17.5 M253.0 16.0 Q254.45 15.35 254.9 13.85 255.4 12.15 253.75 11.15 L251.95 11.2 Q249.55 12.85 250.9 15.25 251.65 16.5 253.0 16.0 M226.7 17.2 Q225.8 17.05 225.5 16.35 223.8 12.2 227.45 9.75 L230.3 9.7 231.6 10.6 Q233.6 14.95 228.8 16.75 L226.7 17.2 M202.7 15.8 Q205.2 14.7 204.65 12.2 L203.5 10.95 201.75 11.05 Q198.65 13.5 201.55 15.8 202.0 16.1 202.7 15.8 M229.8 12.3 L228.7 11.05 226.85 11.15 Q224.0 13.25 226.35 15.65 226.8 16.2 227.4 16.0 230.3 15.05 229.8 12.3 M201.55 17.1 Q200.7 17.05 200.35 16.25 198.6 12.1 202.3 9.7 L205.2 9.6 206.35 10.45 Q207.8 12.1 206.8 14.4 205.35 17.6 201.55 17.1 M176.65 17.3 Q175.7 17.1 175.3 16.15 173.45 12.1 177.2 9.6 L180.1 9.5 181.25 10.35 Q182.95 12.65 181.2 15.05 179.5 17.5 176.65 17.3 M153.25 10.85 L151.45 10.85 Q148.85 13.05 151.2 15.55 151.75 16.05 152.5 15.55 155.9 13.55 153.25 10.85 M178.4 10.85 L176.6 10.95 Q174.0 12.75 175.85 15.2 176.55 16.2 177.7 15.75 180.2 14.55 179.5 12.1 L178.4 10.85 M151.55 17.2 Q150.5 16.9 150.15 16.15 148.4 11.95 152.1 9.5 L154.95 9.4 156.15 10.25 Q157.9 12.6 156.2 15.0 154.4 17.45 151.55 17.2 M156.1 370.5 Q158.35 371.8 158.0 374.5 157.4 378.95 152.55 378.3 L151.35 377.4 Q150.55 376.35 150.8 375.0 151.45 370.6 156.1 370.5 M131.7 376.2 Q133.4 374.15 131.65 372.25 L130.0 372.2 Q126.45 374.2 129.15 376.9 L130.95 376.85 131.7 376.2 M156.8 372.25 L155.15 372.2 Q151.5 374.2 154.25 376.95 155.1 376.9 155.9 376.5 158.95 375.1 156.8 372.25 M130.95 370.5 Q133.25 371.85 132.9 374.5 132.25 378.95 127.4 378.3 L126.25 377.4 Q125.4 376.35 125.65 374.95 126.45 370.6 130.95 370.5 M201.65 377.9 Q201.05 377.1 201.0 376.1 200.8 372.65 204.2 371.25 L206.55 371.3 Q208.75 372.8 208.05 375.4 207.1 378.85 202.8 378.8 L201.65 377.9 M207.05 372.7 L206.25 372.45 Q202.0 373.65 204.2 377.15 206.65 377.9 207.65 375.95 208.55 374.05 207.05 372.7 M181.35 371.0 Q183.5 372.05 183.1 374.75 182.45 379.1 177.7 378.55 L176.5 377.7 Q176.0 376.85 175.95 375.9 175.7 372.5 179.1 370.95 L181.35 371.0 M178.5 375.9 L179.0 377.0 Q182.6 377.85 182.75 374.45 182.75 373.3 181.9 372.5 L180.3 372.45 Q177.85 373.45 178.5 375.9 M251.8 378.3 Q250.8 376.8 251.3 375.2 252.5 371.45 256.55 371.45 258.8 372.85 258.45 375.45 257.8 379.85 253.05 379.3 L251.8 378.3 M233.0 375.4 Q233.15 373.95 232.15 372.95 L230.5 372.9 Q227.65 374.05 228.95 376.8 L229.6 377.6 Q232.65 378.05 233.0 375.4 M231.6 371.5 Q233.75 372.6 233.4 375.2 232.7 379.7 227.95 379.05 L226.7 378.1 226.25 376.3 Q225.95 372.95 229.3 371.45 L231.6 371.5 M276.9 378.55 Q276.35 377.95 276.35 376.85 276.05 373.35 279.6 371.9 L281.85 371.95 Q284.35 373.35 283.5 376.35 282.45 380.2 278.15 379.45 L276.9 378.55 M23.55 213.5 L22.95 213.9 Q23.0 217.65 27.1 217.1 L27.9 216.15 Q27.6 212.2 23.55 213.5 M254.8 377.85 Q257.35 378.25 258.05 376.05 258.55 374.2 257.25 373.15 254.35 372.75 253.75 375.65 253.45 377.1 254.8 377.85 M282.4 373.4 L280.8 373.35 Q278.05 374.6 279.25 377.15 279.4 377.7 279.9 378.1 282.95 378.45 283.2 375.7 283.35 374.15 282.4 373.4 M28.5 218.9 Q26.7 220.05 24.45 219.15 21.0 217.85 21.2 214.5 21.8 213.4 23.05 213.0 26.0 211.95 28.2 213.9 30.9 216.3 28.5 218.9 M26.45 237.35 L24.5 237.05 23.05 237.8 Q22.75 241.2 26.2 241.2 L27.2 241.05 Q29.45 238.9 26.45 237.35 M21.3 238.45 Q24.35 234.95 28.2 237.95 31.2 240.35 28.55 242.95 25.55 244.7 22.85 242.3 21.1 240.75 21.3 238.45 M28.1 264.2 Q28.7 262.05 26.5 261.2 24.55 260.4 23.15 261.85 L22.95 262.6 Q23.65 265.7 26.9 265.25 27.9 265.05 28.1 264.2 M21.45 262.55 Q23.25 259.8 27.0 261.1 27.75 261.35 28.35 261.95 31.15 264.4 28.7 266.95 L27.6 267.55 24.65 267.05 Q21.2 265.85 21.45 262.55 M28.2 288.15 Q28.7 284.8 24.7 285.0 L23.3 285.85 Q22.85 287.35 24.1 288.5 26.0 290.25 28.1 288.55 L28.2 288.15 M21.5 286.55 Q21.95 285.25 23.35 284.95 26.3 283.95 28.45 285.95 31.25 288.4 28.85 290.85 L27.75 291.45 24.8 290.9 Q21.45 289.8 21.5 286.55 M27.9 312.8 Q29.15 311.2 27.55 309.85 26.25 308.65 24.65 309.25 23.95 309.5 23.4 309.85 23.55 313.75 27.9 312.8 M21.6 310.55 Q24.65 307.15 28.5 310.05 31.5 312.3 28.95 314.9 L28.45 315.3 24.95 314.85 Q21.55 313.8 21.6 310.55 M105.4 377.9 L102.3 378.15 101.55 377.6 101.15 377.15 Q100.4 376.4 100.4 375.45 100.3 372.0 103.7 370.5 L106.0 370.55 Q107.2 370.85 107.55 372.1 108.55 375.8 105.4 377.9 M81.8 376.3 L80.1 377.8 77.2 377.9 76.0 377.0 Q75.35 376.25 75.35 375.2 75.1 371.75 78.65 370.3 L80.9 370.35 81.2 370.4 Q83.9 373.05 81.8 376.3 M57.3 374.7 Q56.15 378.4 52.2 377.3 51.45 377.15 50.85 376.7 50.2 376.0 50.2 375.0 50.1 371.65 53.45 370.05 L55.75 370.1 56.0 370.2 Q58.25 372.0 57.3 374.7 M31.15 371.35 L29.6 371.3 Q25.9 373.2 28.65 375.95 L30.5 375.9 31.25 375.4 Q32.4 374.25 31.95 372.7 L31.15 371.35 M30.4 369.55 Q31.25 369.6 31.85 370.6 32.4 371.65 32.4 373.05 32.15 378.0 26.95 377.35 L25.75 376.5 Q23.95 371.35 29.45 369.75 L30.4 369.55 M78.1 373.45 Q77.1 375.3 78.9 376.45 81.1 376.85 82.05 374.95 82.85 373.2 81.4 371.8 79.1 371.35 78.1 373.45 M53.8 376.25 Q58.65 375.85 56.3 371.6 L54.7 371.55 Q52.25 372.85 53.2 375.35 L53.8 376.25 M107.45 373.9 Q107.4 372.7 106.55 372.05 L104.9 372.0 Q102.35 373.0 103.0 375.5 103.2 376.3 104.05 376.7 107.45 377.05 107.45 373.9" fill="#535353" fill-rule="evenodd" stroke="none"/>
    <path d="M10.25 25.85 L0.65 26.25 Q-0.65 23.8 0.6 0.8 21.05 -0.75 269.25 0.8 297.85 1.0 350.5 0.8 L440.15 0.5 Q548.3 0.25 587.9 2.65 591.05 12.85 588.95 32.2 L587.25 32.15 451.05 27.3 Q371.0 25.4 273.5 24.65 181.95 23.85 106.55 24.3 65.05 24.55 37.5 25.05 L23.4 25.5 13.45 25.75 10.25 25.85 M454.7 10.3 L453.55 9.45 450.65 9.55 Q446.95 11.95 448.6 16.15 448.95 16.95 449.85 16.95 451.8 19.2 454.45 17.35 456.75 15.8 456.6 13.05 456.45 11.15 454.7 10.3 M429.55 10.35 L428.35 9.55 425.5 9.65 Q421.7 12.05 423.6 16.2 423.95 17.0 424.85 17.3 428.15 19.55 430.55 16.05 432.85 12.65 429.55 10.35 M399.8 17.2 Q403.8 19.25 405.85 15.15 407.3 12.15 404.4 10.25 L403.25 9.4 400.35 9.5 Q396.7 11.85 398.45 16.05 398.85 17.0 399.8 17.2 M379.3 10.1 L378.15 9.3 375.2 9.4 Q371.45 11.8 373.4 15.9 373.8 16.8 374.65 17.0 377.95 19.5 380.4 15.8 382.65 12.3 379.3 10.1 M349.45 16.85 Q351.5 18.8 354.0 17.15 356.4 15.55 356.15 12.8 355.95 10.7 354.2 10.0 L353.0 9.1 350.05 9.2 Q346.4 11.65 348.3 15.75 348.7 16.55 349.45 16.85 M329.05 9.85 L327.9 9.0 325.0 9.1 Q321.25 11.6 323.1 15.65 323.4 16.4 324.4 16.8 327.85 18.9 330.15 15.55 332.4 12.15 329.05 9.85 M299.25 16.65 Q302.5 18.95 304.95 15.35 307.3 11.85 303.95 9.75 L302.75 8.85 299.85 8.95 Q296.15 11.3 298.05 15.5 298.45 16.3 299.25 16.65 M555.9 22.9 Q435.8 22.3 362.75 22.25 443.95 24.6 584.15 27.5 L584.8 7.3 424.15 4.05 556.65 12.75 556.35 13.25 555.55 14.3 Q552.25 18.85 555.9 22.9 M570.65 13.65 L572.1 13.75 575.9 23.0 567.65 22.95 568.7 21.2 569.5 20.3 Q571.85 17.3 570.65 13.65 M479.75 10.4 L478.6 9.6 475.7 9.7 Q472.0 12.1 473.85 16.2 474.25 17.1 475.15 17.35 L475.8 17.9 Q479.55 18.7 481.25 15.55 482.85 12.35 479.75 10.4 M32.4 8.1 L124.35 3.45 3.95 3.95 Q4.45 11.65 6.9 23.0 21.25 21.0 69.6 19.5 98.1 18.6 117.8 18.3 L103.95 18.2 Q105.6 17.65 106.6 16.5 109.35 12.95 105.95 10.3 L104.75 9.45 101.8 9.55 Q98.1 11.95 99.85 16.1 100.25 16.95 101.1 16.95 101.95 17.95 102.95 18.2 L78.8 17.95 Q83.35 16.45 82.45 12.2 82.1 10.7 80.8 10.2 L79.6 9.35 76.7 9.45 Q73.0 11.8 74.85 15.95 75.2 16.75 76.1 17.1 L77.25 17.95 54.05 17.75 Q56.65 16.8 57.4 14.25 58.2 11.45 55.65 10.1 L54.5 9.3 51.6 9.4 Q47.85 11.8 49.8 15.9 50.15 16.65 51.0 17.0 L51.85 17.75 31.75 17.55 32.0 17.05 32.95 15.85 33.1 15.9 33.1 15.65 Q35.3 11.75 32.4 8.1 M19.8 17.45 L14.3 17.45 13.2 9.15 22.2 8.65 21.25 10.05 20.4 11.0 Q18.1 14.1 19.8 17.45 M131.0 10.4 L129.85 9.55 126.95 9.65 Q123.25 12.05 125.1 16.15 125.45 17.0 126.35 17.3 129.9 19.5 132.15 16.05 134.3 12.7 131.0 10.4 M278.8 9.7 L277.65 8.85 274.75 8.95 Q271.05 11.3 272.9 15.5 273.25 16.3 274.15 16.65 277.3 18.75 279.8 15.2 282.05 11.9 278.8 9.7 M256.65 10.6 L255.5 9.75 252.6 9.85 Q248.8 12.25 250.65 16.45 250.95 17.15 251.95 17.5 255.2 19.8 257.7 16.2 260.05 12.75 256.65 10.6 M231.6 10.6 L230.3 9.7 227.45 9.75 Q223.8 12.2 225.5 16.35 225.8 17.05 226.7 17.2 228.7 19.45 231.35 17.65 233.7 16.05 233.5 13.25 233.25 11.35 231.6 10.6 M206.35 10.45 L205.2 9.6 202.3 9.7 Q198.6 12.1 200.35 16.25 200.7 17.05 201.55 17.1 203.4 19.35 206.1 17.55 208.6 15.95 208.3 13.2 208.1 11.25 206.35 10.45 M181.25 10.35 L180.1 9.5 177.2 9.6 Q173.45 12.1 175.3 16.15 175.7 17.1 176.65 17.3 180.1 19.3 182.45 15.95 184.7 12.65 181.25 10.35 M156.15 10.25 L154.95 9.4 152.1 9.5 Q148.4 11.95 150.15 16.15 150.5 16.9 151.55 17.2 154.45 19.4 156.9 16.35 159.8 12.85 156.15 10.25" fill="url(#gradient0)" fill-rule="evenodd" stroke="none"/>
    <path d="M579.75 35.8 Q577.1 108.6 577.3 175.35 577.4 260.65 581.8 361.75 L581.0 361.8 Q580.75 357.15 580.2 356.25 L578.4 356.3 Q577.4 331.9 575.55 280.5 L575.3 356.45 562.4 356.9 Q559.55 310.65 553.05 237.4 554.2 306.75 557.05 357.05 L553.7 357.15 Q550.75 296.4 549.4 214.6 548.4 149.0 548.0 34.7 L579.75 35.8 M564.8 53.95 Q567.3 51.4 564.45 49.0 563.8 48.4 563.05 48.15 559.35 46.85 557.5 49.6 555.95 53.05 559.2 54.95 562.6 57.0 564.8 53.95 M557.95 73.55 Q555.75 76.95 559.8 79.1 563.45 80.95 565.25 77.95 567.75 75.4 564.75 73.05 561.2 70.25 557.95 73.55 M565.65 101.9 Q568.1 99.3 565.25 96.85 563.1 95.0 560.1 96.0 558.85 96.45 558.3 97.55 556.15 101.3 560.3 103.25 563.9 104.95 565.65 101.9 M558.6 121.6 Q556.45 124.55 559.85 126.65 561.25 127.45 562.8 127.45 565.1 127.75 565.95 125.9 568.5 122.85 564.95 120.65 561.2 118.4 558.6 121.6 M566.3 149.85 Q568.7 147.3 565.9 144.95 563.7 143.1 560.8 144.05 559.5 144.4 558.9 145.55 556.95 148.4 559.8 150.3 563.45 152.85 566.3 149.85 M566.6 173.95 Q568.85 171.9 566.75 169.45 564.6 166.95 561.1 168.0 559.8 168.35 559.3 169.55 557.1 173.55 561.6 175.4 564.75 176.75 566.6 173.95 M566.85 198.0 Q569.6 195.0 565.9 192.65 562.2 190.45 559.6 193.6 557.55 196.0 560.3 198.5 562.45 200.5 565.5 199.25 566.45 198.85 566.85 198.0 M567.5 221.9 Q569.9 219.35 567.15 216.85 565.05 214.95 562.0 216.0 560.75 216.4 560.2 217.5 558.0 221.25 562.15 223.25 565.65 224.75 567.5 221.9 M567.8 245.85 Q570.25 243.35 567.3 241.05 563.5 238.2 560.5 241.55 558.4 245.25 562.45 247.2 566.05 248.85 567.8 245.85 M568.15 269.9 Q570.7 266.9 567.2 264.7 563.55 262.4 560.85 265.5 558.65 268.0 561.45 270.55 563.8 272.6 566.8 271.3 567.8 270.85 568.15 269.9 M568.5 293.85 Q570.95 291.2 568.15 288.85 565.8 286.85 562.95 287.9 561.7 288.3 561.15 289.55 558.9 293.35 563.2 295.2 566.85 296.8 568.5 293.85 M568.8 317.85 Q571.25 315.4 568.35 313.05 564.65 310.05 561.45 313.5 559.55 315.55 561.4 317.75 563.75 320.55 567.4 319.25 568.35 318.9 568.8 317.85" fill="url(#gradient1)" fill-rule="evenodd" stroke="none"/>
    <path d="M581.8 361.75 L582.3 361.75 Q583.5 363.85 582.35 384.75 562.3 386.05 319.65 384.75 291.25 384.6 240.5 384.75 L156.05 385.05 Q55.35 385.15 15.6 383.05 14.05 378.65 13.75 372.3 13.4 365.35 14.55 356.25 L16.25 356.3 149.5 360.75 Q227.25 362.45 319.9 363.15 407.15 363.85 479.45 363.45 L550.05 362.7 553.8 362.6 553.95 362.6 557.35 362.55 578.6 361.85 581.0 361.8 581.8 361.75 M475.0 378.8 L476.2 379.65 Q480.95 380.3 481.55 375.85 481.95 373.1 479.7 371.85 476.5 369.65 473.95 373.2 471.7 376.4 475.0 378.8 M525.45 379.4 L465.4 382.35 578.95 381.85 578.75 379.85 Q577.8 372.25 575.8 364.6 L575.75 364.65 562.25 365.9 518.7 367.9 Q495.85 368.6 473.0 368.9 L471.1 368.9 551.4 369.5 551.15 370.0 550.4 370.95 550.25 370.9 550.25 371.25 Q547.9 375.3 552.35 378.05 L530.5 379.15 Q533.4 375.75 530.35 372.6 L530.15 372.55 Q528.1 370.35 525.8 372.3 521.5 375.75 525.25 379.15 L525.45 379.4 M561.6 369.6 L568.6 369.65 569.6 377.15 558.1 377.75 559.1 377.1 560.5 375.45 561.0 374.9 Q563.3 372.45 561.6 369.6 M505.0 372.35 Q501.7 369.75 499.25 373.35 497.15 376.4 500.1 378.95 L501.3 379.85 Q505.6 380.5 506.6 376.75 507.4 373.75 505.0 372.35 M329.15 371.25 L328.3 370.3 325.65 370.25 Q321.25 372.4 323.0 376.5 323.35 377.4 324.25 377.85 L325.5 378.8 Q329.7 379.4 330.8 375.7 331.6 372.65 329.15 371.25 M306.8 371.8 L306.2 371.25 303.55 371.2 Q299.0 373.25 300.85 377.25 301.2 378.15 302.05 378.65 L303.3 379.55 Q308.1 380.2 308.7 375.75 309.0 373.15 306.8 371.8 M349.4 378.05 L350.6 378.95 Q354.9 379.65 355.9 375.9 356.7 372.75 354.25 371.45 L353.4 370.5 350.8 370.45 Q346.35 372.6 348.0 376.75 348.35 377.7 349.4 378.05 M404.3 371.55 L403.65 370.9 401.0 370.85 Q396.55 373.0 398.3 377.1 398.65 377.95 399.6 378.4 L400.8 379.35 Q405.75 379.9 406.3 375.5 406.6 372.85 404.3 371.55 M374.55 378.3 Q377.85 380.65 380.25 377.15 382.35 374.05 379.45 371.65 378.8 370.35 377.35 370.3 374.9 370.8 373.6 372.75 371.15 376.25 374.55 378.3 M454.65 371.75 Q451.95 369.85 449.6 372.25 446.35 375.6 449.85 378.55 L451.1 379.5 Q455.35 379.45 456.25 376.0 456.85 373.45 454.65 371.75 M424.7 378.6 L425.95 379.5 Q430.2 380.25 431.3 376.4 432.15 373.4 429.65 372.0 427.75 369.65 425.05 371.5 422.65 373.1 422.95 375.95 423.15 377.55 424.7 378.6 M156.1 370.5 L155.4 369.95 152.75 369.9 Q148.3 372.0 150.0 376.05 150.35 376.85 151.35 377.4 L152.55 378.3 Q157.4 378.95 158.0 374.5 158.35 371.8 156.1 370.5 M126.25 377.4 L127.4 378.3 Q132.25 378.95 132.9 374.5 133.25 371.85 130.95 370.5 L130.3 369.95 127.65 369.9 Q123.2 372.1 124.9 376.1 125.25 376.9 126.25 377.4 M206.55 371.3 L205.65 370.35 203.05 370.3 Q198.2 372.65 200.7 377.05 L201.65 377.9 202.8 378.8 Q207.1 378.85 208.05 375.4 208.75 372.8 206.55 371.3 M181.35 371.0 Q178.95 368.75 176.4 371.2 172.75 374.7 176.5 377.7 L177.7 378.55 Q182.45 379.1 183.1 374.75 183.5 372.05 181.35 371.0 M256.55 371.45 L255.9 370.8 253.25 370.75 Q249.3 372.5 250.25 376.35 250.55 377.8 251.8 378.3 L253.05 379.3 Q257.8 379.85 258.45 375.45 258.8 372.85 256.55 371.45 M231.6 371.5 L230.8 370.55 228.15 370.5 Q223.65 372.6 225.45 376.8 225.85 377.7 226.7 378.1 L227.95 379.05 Q232.7 379.7 233.4 375.2 233.75 372.6 231.6 371.5 M281.85 371.95 Q279.95 369.6 277.3 371.45 274.95 373.05 275.15 375.9 275.25 377.7 276.9 378.55 L278.15 379.45 Q282.45 380.2 283.5 376.35 284.35 373.35 281.85 371.95 M36.0 364.7 L34.9 366.25 34.05 367.05 Q31.8 369.75 32.85 373.05 L32.4 373.05 Q32.4 371.65 31.85 370.6 31.25 369.6 30.4 369.55 L29.65 369.0 27.65 364.65 36.0 364.7 M47.25 373.5 L47.9 372.85 Q51.6 368.75 47.8 364.75 L229.7 365.35 19.4 360.55 18.8 378.9 163.9 381.8 105.4 377.9 Q108.55 375.8 107.55 372.1 107.2 370.85 106.0 370.55 104.15 368.35 101.45 370.05 98.9 371.7 99.25 374.55 99.45 376.5 101.15 377.15 L101.55 377.6 81.8 376.3 Q83.9 373.05 81.2 370.4 L80.9 370.35 Q79.1 368.0 76.4 369.9 72.9 372.3 74.6 375.85 L72.15 375.65 72.25 375.5 Q73.95 374.4 74.15 372.4 74.4 369.75 71.85 368.7 66.7 366.2 63.35 370.15 L62.7 370.75 Q61.15 372.6 61.8 375.0 L57.3 374.7 Q58.25 372.0 56.0 370.2 L55.75 370.1 54.95 369.2 52.3 369.15 Q50.05 370.2 49.3 371.9 48.7 373.0 48.9 374.1 L47.0 374.0 47.25 373.5" fill="url(#gradient2)" fill-rule="evenodd" stroke="none"/>
    <path d="M10.25 25.85 L13.45 25.75 13.45 25.85 10.25 25.95 10.25 25.85 M13.75 372.3 L5.65 373.45 Q10.55 287.85 11.7 210.35 12.85 128.5 10.4 31.9 L13.55 31.7 15.15 105.3 16.6 31.6 29.65 31.25 Q31.75 77.0 37.0 148.65 36.9 80.75 35.0 31.1 L38.35 31.0 Q40.15 91.35 40.2 171.55 40.1 207.1 39.05 256.4 L38.5 353.55 18.8 352.9 Q17.1 354.2 16.25 356.3 L14.55 356.25 Q13.4 365.35 13.75 372.3 M27.3 50.9 Q29.75 48.4 27.0 46.05 24.85 44.15 21.9 45.15 20.55 45.5 20.0 46.55 17.8 49.85 21.55 51.95 24.95 53.9 27.3 50.9 M20.25 70.5 Q18.05 74.2 22.2 76.2 25.75 77.95 27.5 75.0 30.0 72.35 27.25 69.85 25.15 68.1 22.1 69.0 20.75 69.3 20.25 70.5 M27.6 98.95 Q30.25 96.05 26.7 93.75 23.05 91.5 20.35 94.6 18.3 97.85 21.9 99.9 25.55 102.05 27.6 98.95 M27.7 122.95 Q30.25 120.4 27.4 117.95 25.3 116.1 22.35 117.0 20.95 117.45 20.45 118.55 18.45 121.3 21.15 123.45 24.85 126.4 27.7 122.95 M27.85 146.95 Q30.45 144.4 27.5 142.05 23.65 139.1 20.55 142.5 18.45 145.75 21.95 147.85 25.65 150.0 27.85 146.95 M27.95 170.95 Q30.6 167.5 26.6 165.55 23.2 163.75 20.7 166.5 18.6 169.75 22.2 171.85 25.85 174.0 27.95 170.95 M20.85 190.5 Q18.5 193.5 21.9 195.7 25.45 198.05 28.1 195.0 30.65 192.35 27.7 190.05 23.9 187.05 20.85 190.5 M21.2 214.5 Q19.1 216.4 21.0 218.75 23.3 221.65 27.05 220.2 28.1 219.85 28.5 218.9 30.9 216.3 28.2 213.9 26.0 211.95 23.05 213.0 21.8 213.4 21.2 214.5 M21.3 238.45 Q19.0 240.95 21.9 243.55 24.15 245.6 27.2 244.35 28.3 243.8 28.55 242.95 31.2 240.35 28.2 237.95 24.35 234.95 21.3 238.45 M28.7 266.95 Q31.15 264.4 28.35 261.95 27.75 261.35 27.0 261.1 23.25 259.8 21.45 262.55 19.3 265.25 22.15 267.4 25.8 270.15 28.7 266.95 M28.85 290.85 Q31.25 288.4 28.45 285.95 26.3 283.95 23.35 284.95 21.95 285.25 21.5 286.55 19.65 288.5 21.45 290.8 23.65 293.6 27.5 292.45 28.5 292.05 28.85 290.85 M21.6 310.55 Q19.75 312.5 21.5 314.8 23.45 317.3 26.95 316.65 28.4 316.3 28.95 314.9 31.5 312.3 28.5 310.05 24.65 307.15 21.6 310.55" fill="url(#gradient3)" fill-rule="evenodd" stroke="none"/>
  </g>
  <defs>
    <linearGradient gradientTransform="matrix(-0.3594, 6.0E-4, -0.0111, -0.0196, 294.85, 16.15)" gradientUnits="userSpaceOnUse" id="gradient0" spreadMethod="pad" x1="-819.2" x2="819.2">
      <stop offset="0.058823529411764705" stop-color="#969595"/>
      <stop offset="1.0" stop-color="#d1d1d2"/>
    </linearGradient>
    <linearGradient gradientTransform="matrix(-0.004, -0.2164, 0.0206, -0.0422, 565.1, 192.85)" gradientUnits="userSpaceOnUse" id="gradient1" spreadMethod="pad" x1="-819.2" x2="819.2">
      <stop offset="0.058823529411764705" stop-color="#969595"/>
      <stop offset="1.0" stop-color="#d1d1d2"/>
    </linearGradient>
    <linearGradient gradientTransform="matrix(0.3469, -5.0E-4, 0.0107, 0.0177, 298.4, 370.75)" gradientUnits="userSpaceOnUse" id="gradient2" spreadMethod="pad" x1="-819.2" x2="819.2">
      <stop offset="0.058823529411764705" stop-color="#969595"/>
      <stop offset="1.0" stop-color="#d1d1d2"/>
    </linearGradient>
    <linearGradient gradientTransform="matrix(0.0037, 0.2169, -0.0207, 0.0385, 22.9, 192.85)" gradientUnits="userSpaceOnUse" id="gradient3" spreadMethod="pad" x1="-819.2" x2="819.2">
      <stop offset="0.058823529411764705" stop-color="#969595"/>
      <stop offset="1.0" stop-color="#d1d1d2"/>
    </linearGradient>
  </defs>
</svg>
