<?xml version="1.0" encoding="UTF-8" standalone="no"?>
<svg xmlns:xlink="http://www.w3.org/1999/xlink" height="41.1px" width="66.0px" xmlns="http://www.w3.org/2000/svg">
  <g transform="matrix(1.0, 0.0, 0.0, 1.0, 0.0, 0.0)">
    <path d="M46.05 24.85 Q44.65 23.5 44.85 21.45 45.05 19.5 46.55 18.1 48.15 16.55 50.35 16.6 52.55 16.6 53.95 18.15 55.2 19.55 55.3 21.55 55.4 23.55 54.3 24.95 53.05 26.45 50.85 26.45 47.65 26.4 46.05 24.85" fill="#47525f" fill-rule="evenodd" stroke="none"/>
    <path d="M47.3 23.1 Q45.9 21.75 46.1 19.7 46.3 17.75 47.8 16.35 49.4 14.8 51.6 14.85 53.8 14.85 55.2 16.4 56.45 17.8 56.55 19.8 56.65 21.8 55.55 23.2 54.3 24.7 52.1 24.7 48.9 24.65 47.3 23.1" fill="#9c9c9c" fill-rule="evenodd" stroke="none"/>
    <path d="M52.85 16.15 Q54.25 16.15 55.1 17.15 55.85 18.0 55.95 19.25 56.0 20.5 55.3 21.35 54.55 22.3 53.2 22.25 51.2 22.25 50.2 21.3 49.3 20.45 49.45 19.2 49.55 17.95 50.5 17.1 51.45 16.15 52.85 16.15" fill="#d5d4d4" fill-rule="evenodd" stroke="none"/>
    <path d="M48.25 11.9 Q50.15 13.95 50.0 17.2 49.85 20.8 46.85 21.2 44.05 21.6 42.4 17.5 41.7 15.8 41.75 14.2 41.75 12.45 42.6 11.55 43.4 10.75 45.3 10.8 47.3 10.9 48.25 11.9" fill="#cc8606" fill-rule="evenodd" stroke="none"/>
    <path d="M49.05 25.9 Q52.9 25.15 55.6 26.0 49.45 25.45 45.1 27.35 45.55 26.55 49.05 25.9" fill="#72251c" fill-rule="evenodd" stroke="none"/>
    <path d="M46.85 21.2 Q44.8 21.5 43.25 19.1 42.6 16.4 44.3 17.85 46.05 19.3 47.85 17.9 49.0 16.95 49.0 14.5 49.0 14.05 49.2 14.45 L49.6 15.75 Q50.05 18.2 49.15 19.9 48.35 21.0 46.85 21.2" fill="#ffbd12" fill-rule="evenodd" stroke="none"/>
    <path d="M40.75 0.85 Q41.3 1.45 39.85 6.85 L37.65 14.6 Q43.3 8.65 50.5 7.45 57.85 6.2 62.75 10.75 66.4 14.15 65.95 19.15 65.45 24.3 60.75 26.15 46.25 31.9 34.65 39.3 29.75 42.4 27.05 40.2 24.55 38.15 25.35 33.65 25.95 30.5 28.95 21.15 31.75 12.55 33.55 7.95 L25.2 10.0 Q26.95 5.45 28.2 3.2 30.9 1.15 35.2 0.3 39.55 -0.55 40.75 0.85" fill="#1b2e54" fill-rule="evenodd" stroke="none"/>
    <path d="M31.75 13.45 L34.85 6.1 Q35.05 5.4 33.6 7.5 L25.4 9.6 Q25.6 8.5 27.85 3.85 31.8 1.25 35.95 0.65 L40.15 0.9 Q40.9 1.5 39.35 6.95 L36.7 15.55 Q35.2 17.1 33.6 20.25 L36.35 16.85 Q42.1 9.75 49.5 8.2 56.75 6.65 61.85 11.0 65.55 14.15 65.0 19.0 64.45 24.0 59.75 25.8 46.8 30.9 34.85 38.45 30.0 41.5 27.5 39.5 25.2 37.65 26.0 33.25 26.6 30.0 28.45 23.7 30.25 17.5 31.75 13.45" fill="#6fb9d7" fill-rule="evenodd" stroke="none"/>
    <path d="M38.65 1.8 L36.4 8.55 Q33.9 16.2 32.85 21.15 L39.2 15.65 Q46.35 10.05 50.2 10.6 59.1 11.95 44.15 23.95 39.85 27.45 32.85 32.35 L27.0 36.5 Q27.15 30.85 30.3 19.5 33.15 9.35 34.85 6.1 L33.8 7.0 Q29.85 7.8 27.35 9.15 L25.4 9.6 Q25.6 8.5 27.85 3.85 L28.95 3.1 28.7 4.25 Q31.8 2.55 35.35 1.85 38.55 1.25 38.65 1.8" fill="#3d7db8" fill-rule="evenodd" stroke="none"/>
    <path d="M26.8 38.7 Q26.5 37.95 26.65 37.15 26.9 35.9 28.25 33.4 31.25 27.75 41.0 19.35 45.8 15.3 51.95 13.9 L60.5 13.6 Q64.35 14.55 65.0 17.2 65.3 19.95 64.0 22.25 62.6 24.75 59.75 25.8 46.8 30.9 34.85 38.45 29.15 42.05 26.8 38.7" fill="#2c4a85" fill-rule="evenodd" stroke="none"/>
    <path d="M49.05 20.45 L54.85 13.95 Q55.4 13.3 55.45 12.15 55.5 10.9 54.9 9.85 53.35 7.15 48.85 8.25 48.7 8.0 51.05 7.55 54.6 7.4 55.7 10.2 56.1 11.25 56.0 12.45 55.95 13.55 55.55 14.1 L49.05 20.45" fill="#1b2e54" fill-rule="evenodd" stroke="none"/>
    <path d="M61.2 10.5 Q57.95 7.95 61.45 10.45 62.8 11.5 63.5 13.2 64.05 14.45 63.95 15.4 63.85 16.7 62.95 17.25 L55.0 22.25 62.45 16.7 63.1 15.55 Q63.25 14.35 62.7 12.9 62.15 11.35 61.2 10.5" fill="#1b2e54" fill-rule="evenodd" stroke="none"/>
    <path d="M14.0 6.15 Q14.6 5.6 14.95 6.5 15.25 7.35 15.15 8.9 14.9 12.8 13.05 13.6 10.85 14.55 8.6 15.45 5.75 16.15 2.85 14.85 -0.7 13.25 0.15 9.9 0.45 8.65 1.25 7.75 2.05 6.85 2.7 6.95 4.35 7.2 8.5 7.0 13.2 6.85 14.0 6.15" fill="#1d3f60" fill-rule="evenodd" stroke="none"/>
    <path d="M12.0 13.0 L8.45 14.7 Q6.05 15.5 3.0 14.0 0.35 12.65 0.8 9.95 0.95 8.9 1.5 8.15 2.05 7.4 2.6 7.45 5.7 7.8 9.5 7.55 13.45 7.3 14.2 6.65 14.7 6.15 14.8 7.0 14.9 7.75 14.6 9.05 13.7 12.5 12.0 13.0" fill="#ffffff" fill-rule="evenodd" stroke="none"/>
    <path d="M12.0 13.0 L8.45 14.7 Q6.05 15.5 3.0 14.0 0.55 12.75 0.75 10.2 2.15 11.85 6.85 10.45 10.1 9.45 12.1 8.25 L13.35 11.8 Q12.75 12.75 12.0 13.0" fill="#a6cbbd" fill-rule="evenodd" stroke="none"/>
    <path d="M16.35 7.25 Q16.15 5.8 17.7 4.5 19.45 3.0 22.05 3.6 24.7 4.15 26.0 6.5 27.2 8.65 26.3 9.6 25.45 10.4 21.0 9.5 16.5 8.6 16.35 7.25" fill="#ffffff" fill-rule="evenodd" stroke="none"/>
    <path d="M16.35 8.05 Q16.15 6.55 17.7 5.25 19.45 3.8 22.05 4.35 24.7 4.95 26.0 7.3 27.2 9.45 26.3 10.35 25.45 11.2 21.0 10.3 16.5 9.35 16.35 8.05" fill="#a6cbbd" fill-rule="evenodd" stroke="none"/>
    <path d="M32.7 11.1 Q33.6 13.55 33.1 16.4 32.6 19.25 31.05 20.6 29.35 22.05 27.4 22.15 25.6 22.2 25.05 21.2 23.55 22.75 21.45 22.45 19.55 22.2 18.75 20.75 16.8 23.35 14.0 22.5 11.1 21.65 11.05 18.0 L10.75 12.05 Q10.65 9.1 10.9 8.15 11.75 5.3 14.75 5.2 17.6 5.1 18.95 7.2 19.9 6.05 22.0 6.3 24.15 6.55 25.75 8.05 27.75 6.65 29.8 7.65 31.75 8.6 32.7 11.1" fill="#1d3f60" fill-rule="evenodd" stroke="none"/>
    <path d="M32.4 11.55 Q33.25 13.8 32.5 16.4 31.8 18.8 30.3 20.2 29.15 21.25 27.7 21.2 26.5 21.15 25.55 20.5 26.8 18.75 26.95 15.6 27.1 12.2 25.65 9.7 26.5 12.95 26.15 16.0 25.85 18.55 24.95 19.85 23.55 21.55 21.7 21.45 20.1 21.35 19.1 20.15 21.75 15.65 19.0 9.55 19.8 12.6 19.6 15.5 19.4 18.0 18.6 19.25 16.75 22.05 14.6 21.85 12.45 21.6 12.0 18.5 11.55 15.45 11.5 12.15 11.45 8.95 11.75 7.75 13.15 5.7 15.25 5.7 17.4 5.7 18.85 8.0 19.9 6.55 22.2 6.8 24.55 7.05 25.45 8.85 27.5 7.2 29.55 8.15 31.45 9.05 32.4 11.55" fill="#ffffff" fill-rule="evenodd" stroke="none"/>
    <path d="M28.55 20.2 Q30.25 20.15 31.55 18.55 L30.3 20.2 Q28.05 22.25 25.55 20.5 L26.35 18.95 Q26.9 20.25 28.55 20.2" fill="#a6cbbd" fill-rule="evenodd" stroke="none"/>
    <path d="M11.65 14.95 Q12.3 18.3 14.9 19.2 17.65 20.2 19.5 16.45 19.25 18.25 18.65 19.25 16.8 22.05 14.6 21.85 12.45 21.6 12.0 18.5 L11.65 14.95" fill="#a6cbbd" fill-rule="evenodd" stroke="none"/>
    <path d="M24.95 19.85 Q23.55 21.55 21.7 21.45 20.15 21.35 19.15 20.15 19.85 18.95 20.15 17.55 21.0 19.2 22.35 19.75 24.0 20.45 25.45 18.95 L24.95 19.85" fill="#a6cbbd" fill-rule="evenodd" stroke="none"/>
  </g>
</svg>
