<?xml version="1.0" encoding="UTF-8" standalone="no"?>
<svg xmlns:xlink="http://www.w3.org/1999/xlink" height="184.8px" width="102.2px" xmlns="http://www.w3.org/2000/svg">
  <g transform="matrix(1.0, 0.0, 0.0, 1.0, 0.0, 0.0)">
    <path d="M15.55 83.85 Q15.2 79.3 16.15 73.75 17.0 68.7 18.65 64.15 20.25 59.7 22.05 57.45 26.65 51.5 77.25 0.0 L98.55 23.25 Q47.95 66.55 45.6 71.1 43.3 75.7 45.6 83.9 34.7 88.9 18.0 92.1 16.0 89.0 15.55 83.85" fill="#2d2323" fill-rule="evenodd" stroke="none"/>
    <path d="M46.2 66.1 Q27.2 67.45 26.1 56.05 30.1 50.6 79.0 0.0 L98.0 20.95 46.2 66.1" fill="url(#gradient0)" fill-rule="evenodd" stroke="none"/>
    <path d="M22.75 60.8 Q24.5 57.85 26.1 56.05 30.65 65.65 46.2 66.1 44.8 67.6 43.9 70.3 42.9 73.3 42.95 76.7 43.1 85.35 49.65 92.1 48.0 93.2 45.5 94.25 42.2 95.65 38.75 96.4 29.1 98.4 20.9 94.85 15.0 82.55 18.95 69.5 20.3 64.95 22.75 60.8" fill="url(#gradient1)" fill-rule="evenodd" stroke="none"/>
    <path d="M26.7 62.05 L27.75 62.95 Q28.1 63.6 27.8 64.15 L26.95 64.9 25.65 64.85 Q24.9 64.55 24.4 63.6 24.05 63.0 24.4 62.5 24.7 62.1 25.35 61.95 L26.7 62.05" fill="#000000" fill-rule="evenodd" stroke="none"/>
    <path d="M27.1 61.55 Q27.85 61.8 28.15 62.45 28.45 63.1 28.2 63.7 27.95 64.2 27.35 64.4 L26.0 64.35 Q25.25 64.0 24.8 63.1 24.5 62.5 24.8 62.0 25.1 61.6 25.8 61.45 L27.1 61.55" fill="#535353" fill-rule="evenodd" stroke="none"/>
    <path d="M26.9 61.65 L27.55 62.2 Q27.75 62.6 27.55 62.95 L27.0 63.45 26.2 63.4 Q25.75 63.2 25.45 62.6 25.25 62.2 25.45 61.95 25.65 61.65 26.05 61.6 L26.9 61.65" fill="#9c9c9c" fill-rule="evenodd" stroke="none"/>
    <path d="M35.25 67.05 Q35.55 67.7 35.25 68.3 L34.4 69.05 33.1 68.95 Q32.35 68.65 31.9 67.75 31.55 67.1 31.9 66.6 32.2 66.2 32.85 66.05 L34.2 66.15 Q34.9 66.45 35.25 67.05" fill="#000000" fill-rule="evenodd" stroke="none"/>
    <path d="M35.65 66.55 Q35.95 67.2 35.7 67.75 L34.8 68.55 33.5 68.45 Q32.75 68.15 32.3 67.2 31.95 66.6 32.3 66.15 32.6 65.7 33.25 65.55 L34.6 65.65 Q35.3 65.95 35.65 66.55" fill="#535353" fill-rule="evenodd" stroke="none"/>
    <path d="M35.0 66.3 Q35.2 66.7 35.05 67.05 L34.5 67.55 33.7 67.5 32.95 66.75 Q32.75 66.35 32.95 66.05 L33.55 65.7 Q34.55 65.5 35.0 66.3" fill="#9c9c9c" fill-rule="evenodd" stroke="none"/>
    <path d="M44.45 68.45 Q44.75 69.05 44.5 69.65 44.25 70.2 43.6 70.4 L42.3 70.35 Q41.55 70.0 41.1 69.05 40.75 68.45 41.1 68.0 41.4 67.55 42.05 67.45 L43.4 67.55 44.45 68.45" fill="#000000" fill-rule="evenodd" stroke="none"/>
    <path d="M43.8 67.05 Q44.5 67.3 44.85 67.95 45.15 68.55 44.85 69.15 L44.0 69.9 42.7 69.8 Q41.95 69.5 41.5 68.6 41.15 67.95 41.5 67.5 41.8 67.05 42.45 66.95 L43.8 67.05" fill="#535353" fill-rule="evenodd" stroke="none"/>
    <path d="M44.2 67.7 Q44.45 68.05 44.25 68.45 L43.7 68.9 42.9 68.85 42.15 68.1 Q41.95 67.7 42.15 67.4 42.3 67.15 42.75 67.05 L43.55 67.15 Q44.0 67.3 44.2 67.7" fill="#9c9c9c" fill-rule="evenodd" stroke="none"/>
    <path d="M89.35 84.4 L101.1 183.4 41.45 180.5 Q2.3 104.2 6.5 103.5 10.65 102.85 89.35 84.4" fill="#726c6c" fill-rule="evenodd" stroke="none"/>
    <path d="M88.6 87.3 L99.8 183.85 42.75 181.05 Q5.25 106.65 9.3 105.95 L88.6 87.3" fill="url(#gradient2)" fill-rule="evenodd" stroke="none"/>
    <path d="M91.8 85.75 L102.2 184.8 49.1 181.85 Q14.25 105.55 17.95 104.9 21.7 104.2 91.8 85.75" fill="url(#gradient3)" fill-rule="evenodd" stroke="none"/>
    <path d="M90.45 65.7 L90.45 85.75 Q16.8 102.15 14.6 103.05 12.4 103.95 9.3 104.35 5.45 104.9 3.95 103.95 2.6 103.1 1.4 100.1 L0.05 96.2 Q-0.35 95.15 2.35 92.75 5.15 90.3 8.45 88.95 12.0 87.5 47.15 77.5 82.85 67.35 90.45 65.7" fill="url(#gradient4)" fill-rule="evenodd" stroke="none"/>
    <path d="M91.05 69.35 L90.45 83.9 Q17.35 101.85 15.3 102.7 13.35 103.5 10.5 103.85 7.0 104.35 5.65 103.5 4.4 102.75 4.05 101.35 L3.6 99.2 Q3.2 98.25 5.7 96.05 8.25 93.8 11.25 92.6 14.6 91.2 49.05 81.15 84.25 70.8 91.05 69.35" fill="url(#gradient5)" fill-rule="evenodd" stroke="none"/>
    <path d="M16.0 97.3 Q16.65 98.6 16.1 99.75 15.6 100.85 14.4 101.25 L11.8 101.15 Q10.3 100.45 9.35 98.6 8.75 97.3 9.35 96.35 9.95 95.5 11.3 95.25 L13.95 95.45 Q15.35 96.0 16.0 97.3" fill="#000000" fill-rule="evenodd" stroke="none"/>
    <path d="M16.8 96.25 Q17.45 97.55 16.9 98.75 16.4 99.85 15.15 100.25 L12.55 100.1 Q11.1 99.45 10.15 97.6 9.5 96.3 10.15 95.35 10.75 94.5 12.1 94.2 L14.7 94.45 Q16.15 95.0 16.8 96.25" fill="#535353" fill-rule="evenodd" stroke="none"/>
    <path d="M15.55 95.75 Q15.95 96.55 15.6 97.3 15.3 97.95 14.55 98.25 L12.95 98.15 Q12.05 97.75 11.45 96.6 11.05 95.8 11.45 95.2 11.8 94.65 12.65 94.5 L14.3 94.65 Q15.15 94.95 15.55 95.75" fill="#9c9c9c" fill-rule="evenodd" stroke="none"/>
    <path d="M32.2 94.5 Q32.85 95.8 32.35 97.0 31.8 98.1 30.6 98.5 L28.0 98.4 Q26.55 97.7 25.6 95.85 24.95 94.55 25.6 93.6 26.2 92.75 27.55 92.5 L30.15 92.7 Q31.55 93.25 32.2 94.5" fill="#000000" fill-rule="evenodd" stroke="none"/>
    <path d="M33.0 93.5 Q33.65 94.8 33.1 95.95 32.6 97.05 31.35 97.5 L28.8 97.35 Q27.3 96.7 26.4 94.85 25.75 93.55 26.4 92.6 26.95 91.7 28.3 91.45 L30.9 91.65 Q32.35 92.2 33.0 93.5" fill="#535353" fill-rule="evenodd" stroke="none"/>
    <path d="M31.75 92.95 Q32.2 93.8 31.85 94.55 31.5 95.2 30.75 95.45 L29.15 95.4 Q28.25 94.95 27.7 93.8 27.25 93.0 27.65 92.4 28.0 91.9 28.85 91.7 L30.5 91.85 Q31.35 92.2 31.75 92.95" fill="#9c9c9c" fill-rule="evenodd" stroke="none"/>
    <path d="M43.95 90.9 Q44.6 92.2 44.05 93.35 43.55 94.45 42.3 94.85 L39.75 94.75 Q38.25 94.05 37.3 92.2 36.65 90.9 37.3 89.95 37.9 89.1 39.25 88.85 L41.85 89.05 Q43.3 89.6 43.95 90.9" fill="#000000" fill-rule="evenodd" stroke="none"/>
    <path d="M44.75 89.85 Q45.4 91.15 44.85 92.35 44.3 93.4 43.1 93.85 L40.5 93.7 Q39.05 93.05 38.1 91.2 37.45 89.9 38.1 88.95 38.7 88.05 40.05 87.8 L42.65 88.0 Q44.05 88.55 44.75 89.85" fill="#535353" fill-rule="evenodd" stroke="none"/>
    <path d="M43.5 89.35 Q43.9 90.15 43.55 90.9 L42.5 91.8 40.9 91.75 Q39.95 91.35 39.35 90.15 39.0 89.35 39.35 88.8 39.75 88.25 40.6 88.05 L42.2 88.2 Q43.1 88.55 43.5 89.35" fill="#9c9c9c" fill-rule="evenodd" stroke="none"/>
    <path d="M58.6 84.5 Q60.0 85.05 60.65 86.3 61.3 87.6 60.8 88.8 60.3 89.9 59.05 90.3 L56.45 90.15 Q55.0 89.5 54.05 87.65 53.4 86.35 54.05 85.4 54.65 84.55 56.0 84.3 L58.6 84.5" fill="#000000" fill-rule="evenodd" stroke="none"/>
    <path d="M59.4 83.5 Q60.8 84.0 61.45 85.3 62.1 86.6 61.55 87.75 61.05 88.85 59.85 89.3 L57.25 89.15 Q55.8 88.5 54.85 86.65 54.2 85.35 54.85 84.4 55.45 83.5 56.8 83.25 L59.4 83.5" fill="#535353" fill-rule="evenodd" stroke="none"/>
    <path d="M58.95 83.65 Q59.85 84.0 60.25 84.8 60.65 85.6 60.3 86.35 60.0 87.0 59.25 87.25 L57.65 87.2 Q56.7 86.8 56.1 85.6 55.75 84.8 56.1 84.2 56.5 83.7 57.35 83.5 L58.95 83.65" fill="#9c9c9c" fill-rule="evenodd" stroke="none"/>
    <path d="M75.15 81.75 Q75.85 83.05 75.3 84.25 74.8 85.35 73.55 85.8 L71.0 85.65 Q69.5 84.95 68.55 83.1 67.9 81.8 68.55 80.85 69.15 80.0 70.5 79.7 L73.1 79.95 Q74.55 80.5 75.15 81.75" fill="#000000" fill-rule="evenodd" stroke="none"/>
    <path d="M75.95 80.75 Q76.6 82.0 76.05 83.2 75.6 84.3 74.35 84.75 L71.75 84.6 Q70.3 83.9 69.35 82.05 68.7 80.8 69.35 79.85 69.9 78.95 71.3 78.7 L73.9 78.95 Q75.3 79.45 75.95 80.75" fill="#535353" fill-rule="evenodd" stroke="none"/>
    <path d="M74.75 80.25 Q75.15 81.05 74.8 81.75 74.5 82.45 73.75 82.7 L72.15 82.6 Q71.2 82.2 70.65 81.05 70.25 80.25 70.65 79.7 71.0 79.15 71.85 78.95 L73.45 79.1 Q74.35 79.45 74.75 80.25" fill="#9c9c9c" fill-rule="evenodd" stroke="none"/>
    <path d="M89.15 77.2 Q89.8 78.5 89.25 79.7 88.75 80.8 87.5 81.2 L84.9 81.1 Q83.45 80.4 82.5 78.55 81.85 77.25 82.5 76.3 83.1 75.45 84.45 75.2 L87.05 75.4 Q88.5 75.95 89.15 77.2" fill="#000000" fill-rule="evenodd" stroke="none"/>
    <path d="M89.95 76.2 Q90.6 77.5 90.0 78.65 89.55 79.75 88.3 80.2 L85.7 80.05 Q84.25 79.4 83.3 77.5 82.65 76.25 83.3 75.3 83.9 74.4 85.25 74.15 L87.85 74.35 Q89.3 74.9 89.95 76.2" fill="#535353" fill-rule="evenodd" stroke="none"/>
    <path d="M88.7 75.7 Q89.1 76.5 88.75 77.2 L87.7 78.15 86.1 78.1 Q85.2 77.65 84.6 76.5 84.2 75.7 84.6 75.15 84.95 74.6 85.8 74.4 L87.4 74.55 Q88.3 74.9 88.7 75.7" fill="#9c9c9c" fill-rule="evenodd" stroke="none"/>
    <path d="M26.55 107.2 Q26.85 107.8 26.6 108.4 26.35 108.95 25.75 109.15 L24.45 109.1 Q23.75 108.75 23.25 107.85 22.95 107.2 23.25 106.75 23.55 106.3 24.2 106.2 L25.5 106.3 Q26.2 106.55 26.55 107.2" fill="#000000" fill-rule="evenodd" stroke="none"/>
    <path d="M26.95 106.65 Q27.25 107.3 26.95 107.9 L26.1 108.65 24.85 108.6 Q24.1 108.25 23.65 107.35 23.3 106.7 23.65 106.2 23.95 105.8 24.6 105.65 L25.9 105.75 Q26.6 106.05 26.95 106.65" fill="#535353" fill-rule="evenodd" stroke="none"/>
    <path d="M26.3 106.4 L26.35 107.2 25.8 107.65 25.05 107.6 24.3 106.85 Q24.05 106.45 24.3 106.15 24.45 105.9 24.9 105.8 25.9 105.6 26.3 106.4" fill="#9c9c9c" fill-rule="evenodd" stroke="none"/>
    <path d="M38.8 104.75 Q39.1 105.35 38.85 105.95 L38.0 106.7 36.7 106.65 Q36.0 106.3 35.55 105.4 35.2 104.75 35.55 104.3 35.8 103.85 36.45 103.7 L37.75 103.85 Q38.45 104.1 38.8 104.75" fill="#000000" fill-rule="evenodd" stroke="none"/>
    <path d="M39.2 104.2 Q39.5 104.85 39.25 105.45 L38.4 106.2 37.1 106.15 Q36.4 105.8 35.9 104.9 35.6 104.25 35.9 103.75 36.2 103.35 36.85 103.2 L38.15 103.3 Q38.9 103.6 39.2 104.2" fill="#535353" fill-rule="evenodd" stroke="none"/>
    <path d="M38.6 103.95 L38.6 104.75 38.1 105.2 Q37.15 105.5 36.55 104.35 36.35 104.0 36.55 103.7 36.7 103.4 37.15 103.35 38.15 103.15 38.6 103.95" fill="#9c9c9c" fill-rule="evenodd" stroke="none"/>
    <path d="M60.0 99.25 Q60.3 99.9 60.05 100.5 L59.2 101.25 57.95 101.15 Q57.2 100.8 56.7 99.9 56.4 99.3 56.75 98.8 L57.7 98.25 59.0 98.35 Q59.7 98.6 60.0 99.25" fill="#000000" fill-rule="evenodd" stroke="none"/>
    <path d="M60.4 98.75 Q60.7 99.4 60.45 99.95 L59.6 100.75 58.3 100.65 Q57.6 100.35 57.1 99.4 56.8 98.75 57.1 98.3 57.4 97.9 58.1 97.75 L59.35 97.85 Q60.05 98.1 60.4 98.75" fill="#535353" fill-rule="evenodd" stroke="none"/>
    <path d="M59.8 98.5 Q60.0 98.9 59.8 99.25 L59.3 99.75 Q58.35 100.05 57.75 98.9 57.55 98.5 57.75 98.2 L58.35 97.9 59.15 97.95 59.8 98.5" fill="#9c9c9c" fill-rule="evenodd" stroke="none"/>
    <path d="M73.95 96.05 Q74.3 96.7 74.0 97.3 73.75 97.85 73.15 98.05 L71.9 98.0 Q71.15 97.65 70.7 96.75 70.35 96.1 70.7 95.6 70.95 95.2 71.65 95.05 L72.95 95.15 Q73.65 95.45 73.95 96.05" fill="#000000" fill-rule="evenodd" stroke="none"/>
    <path d="M74.35 95.55 Q74.65 96.2 74.4 96.8 L73.55 97.55 72.25 97.45 Q71.55 97.15 71.1 96.2 70.75 95.6 71.1 95.1 71.35 94.7 72.05 94.55 L73.3 94.7 Q74.0 94.95 74.35 95.55" fill="#535353" fill-rule="evenodd" stroke="none"/>
    <path d="M73.75 95.3 Q73.95 95.7 73.75 96.05 L73.25 96.55 72.45 96.5 Q72.0 96.3 71.7 95.7 71.5 95.35 71.7 95.05 71.9 94.8 72.3 94.7 73.3 94.5 73.75 95.3" fill="#9c9c9c" fill-rule="evenodd" stroke="none"/>
    <path d="M87.35 90.6 Q87.7 91.25 87.4 91.8 L86.55 92.6 85.25 92.5 Q84.55 92.2 84.05 91.25 83.75 90.6 84.05 90.15 84.35 89.75 85.05 89.6 L86.35 89.7 Q87.05 90.0 87.35 90.6" fill="#000000" fill-rule="evenodd" stroke="none"/>
    <path d="M87.75 90.1 Q88.05 90.75 87.8 91.35 87.55 91.9 86.95 92.05 L85.65 92.0 Q84.9 91.65 84.45 90.75 84.15 90.15 84.45 89.65 84.75 89.25 85.4 89.1 L86.7 89.2 Q87.4 89.45 87.75 90.1" fill="#535353" fill-rule="evenodd" stroke="none"/>
    <path d="M87.1 89.85 Q87.35 90.25 87.15 90.6 L86.65 91.05 85.85 91.05 85.1 90.25 Q84.9 89.9 85.1 89.6 85.3 89.3 85.7 89.2 L86.5 89.3 87.1 89.85" fill="#9c9c9c" fill-rule="evenodd" stroke="none"/>
  </g>
  <defs>
    <linearGradient gradientTransform="matrix(0.0326, 0.0269, -0.0292, 0.03, 62.05, 33.05)" gradientUnits="userSpaceOnUse" id="gradient0" spreadMethod="pad" x1="-819.2" x2="819.2">
      <stop offset="0.0" stop-color="#565656"/>
      <stop offset="0.403921568627451" stop-color="#999999"/>
      <stop offset="0.592156862745098" stop-color="#dbdbdb"/>
      <stop offset="0.7803921568627451" stop-color="#9b9b9b"/>
      <stop offset="1.0" stop-color="#0d0a0f"/>
    </linearGradient>
    <linearGradient gradientTransform="matrix(0.0188, 0.0075, -0.0059, 0.0238, 33.5, 76.55)" gradientUnits="userSpaceOnUse" id="gradient1" spreadMethod="pad" x1="-819.2" x2="819.2">
      <stop offset="0.058823529411764705" stop-color="#878787"/>
      <stop offset="0.48627450980392156" stop-color="#141a17"/>
    </linearGradient>
    <linearGradient gradientTransform="matrix(0.0554, 0.0, 0.0, 0.0589, 54.4, 135.6)" gradientUnits="userSpaceOnUse" id="gradient2" spreadMethod="pad" x1="-819.2" x2="819.2">
      <stop offset="0.4392156862745098" stop-color="#d2d2d2"/>
      <stop offset="1.0" stop-color="#787e86"/>
    </linearGradient>
    <linearGradient gradientTransform="matrix(0.0515, -0.0018, 0.0016, 0.0604, 59.95, 135.25)" gradientUnits="userSpaceOnUse" id="gradient3" spreadMethod="pad" x1="-819.2" x2="819.2">
      <stop offset="0.09411764705882353" stop-color="#bcbcbc"/>
      <stop offset="1.0" stop-color="#2a302d"/>
    </linearGradient>
    <linearGradient gradientTransform="matrix(0.0552, 0.0, 0.0, 0.0237, 45.3, 85.1)" gradientUnits="userSpaceOnUse" id="gradient4" spreadMethod="pad" x1="-819.2" x2="819.2">
      <stop offset="0.4392156862745098" stop-color="#d2d2d2"/>
      <stop offset="1.0" stop-color="#787e86"/>
    </linearGradient>
    <linearGradient gradientTransform="matrix(-0.052, -0.0047, 0.0118, -0.0206, 47.35, 86.7)" gradientUnits="userSpaceOnUse" id="gradient5" spreadMethod="pad" x1="-819.2" x2="819.2">
      <stop offset="0.058823529411764705" stop-color="#bcbcbc"/>
      <stop offset="0.6431372549019608" stop-color="#2a302d"/>
    </linearGradient>
  </defs>
</svg>
