<?xml version="1.0" encoding="UTF-8" standalone="no"?>
<svg xmlns:xlink="http://www.w3.org/1999/xlink" height="81.75px" width="81.6px" xmlns="http://www.w3.org/2000/svg">
  <g transform="matrix(1.0, 0.0, 0.0, 1.0, 0.0, 0.0)">
    <path d="M46.5 0.45 Q54.65 1.55 61.75 5.85 68.9 10.1 73.75 16.75 78.45 23.15 80.35 30.9 82.3 38.65 81.2 46.5 80.05 54.65 75.8 61.75 71.5 68.9 64.85 73.75 58.45 78.4 50.75 80.35 43.0 82.3 35.1 81.2 26.95 80.05 19.85 75.8 12.75 71.5 7.9 64.9 3.2 58.45 1.25 50.7 -0.7 43.0 0.4 35.15 1.55 26.95 5.85 19.85 10.1 12.75 16.75 7.9 23.15 3.2 30.9 1.25 38.65 -0.7 46.5 0.45" fill="url(#gradient0)" fill-rule="evenodd" stroke="none"/>
    <path d="M45.45 10.5 Q52.6 11.5 58.85 15.25 65.05 19.0 69.3 24.85 73.45 30.45 75.15 37.25 76.85 44.05 75.85 50.95 74.85 58.1 71.15 64.35 67.4 70.6 61.55 74.85 55.95 78.95 49.15 80.65 42.35 82.35 35.45 81.4 28.3 80.4 22.05 76.65 15.8 72.9 11.55 67.05 7.45 61.45 5.75 54.65 4.05 47.85 5.0 40.95 6.0 33.8 9.75 27.6 13.5 21.35 19.3 17.05 24.95 12.95 31.75 11.25 38.55 9.55 45.45 10.5" fill="#535353" fill-rule="evenodd" stroke="none"/>
    <path d="M12.3 52.0 Q10.9 46.4 11.7 40.75 12.5 34.85 15.6 29.75 18.7 24.6 23.45 21.15 28.1 17.75 33.65 16.35 39.25 14.95 44.9 15.75 50.8 16.55 55.9 19.65 61.05 22.7 64.55 27.5 67.9 32.15 69.3 37.7 70.7 43.3 69.9 48.95 69.1 54.8 66.0 59.95 62.95 65.1 58.15 68.55 53.55 71.95 47.95 73.35 42.35 74.75 36.7 73.95 30.85 73.15 25.7 70.05 20.55 67.0 17.1 62.2 13.7 57.55 12.3 52.0" fill="url(#gradient1)" fill-rule="evenodd" stroke="none"/>
    <path d="M12.35 53.65 Q11.0 48.2 11.75 42.7 12.55 37.0 15.55 32.0 18.55 27.0 23.2 23.6 27.7 20.3 33.1 18.95 38.55 17.6 44.05 18.35 49.75 19.2 54.75 22.15 59.75 25.15 63.15 29.8 66.45 34.3 67.8 39.75 69.15 45.15 68.4 50.7 67.6 56.4 64.6 61.4 61.6 66.4 56.95 69.8 52.45 73.05 47.0 74.45 41.6 75.8 36.05 75.0 30.4 74.2 25.4 71.2 20.4 68.25 17.0 63.6 13.7 59.1 12.35 53.65" fill="#535353" fill-rule="evenodd" stroke="none"/>
  </g>
  <defs>
    <linearGradient gradientTransform="matrix(0.0, -0.0497, 0.0497, 0.0, 40.8, 40.8)" gradientUnits="userSpaceOnUse" id="gradient0" spreadMethod="pad" x1="-819.2" x2="819.2">
      <stop offset="0.5333333333333333" stop-color="#3e3e3e"/>
      <stop offset="1.0" stop-color="#0d0a0f"/>
    </linearGradient>
    <linearGradient gradientTransform="matrix(0.0, -0.0358, 0.0358, 0.0, 40.8, 44.85)" gradientUnits="userSpaceOnUse" id="gradient1" spreadMethod="pad" x1="-819.2" x2="819.2">
      <stop offset="0.5333333333333333" stop-color="#3e3e3e"/>
      <stop offset="1.0" stop-color="#0d0a0f"/>
    </linearGradient>
  </defs>
</svg>
