<?xml version="1.0" encoding="UTF-8" standalone="no"?>
<svg xmlns:xlink="http://www.w3.org/1999/xlink" height="37.0px" width="185.25px" xmlns="http://www.w3.org/2000/svg">
  <g transform="matrix(1.0, 0.0, 0.0, 1.0, -0.05, 0.0)">
    <path d="M185.25 8.2 L185.3 8.25 185.25 8.25 185.25 8.2 M1.9 5.2 L2.3 2.85 18.75 2.05 59.05 0.7 Q83.4 0.05 109.4 0.3 115.1 0.55 118.85 1.6 122.65 2.7 128.15 3.0 L129.3 1.5 Q130.05 0.2 130.5 0.0 160.7 0.5 181.5 3.85 L183.45 6.1 103.3 3.5 Q60.0 3.6 6.5 5.1 L1.9 5.2 M176.25 8.0 L176.45 8.4 177.65 11.45 178.5 13.65 Q179.3 12.8 179.7 10.9 179.7 9.8 179.25 9.1 L179.9 9.55 Q180.65 10.3 180.7 11.75 179.85 15.7 177.15 15.05 175.8 14.75 175.1 13.85 L176.15 14.2 177.35 14.25 176.45 12.35 174.9 8.8 174.8 8.5 174.95 8.35 Q175.75 7.8 176.25 8.0 M178.25 27.3 L179.85 27.15 Q180.5 27.3 181.25 27.95 183.6 31.2 181.35 32.8 180.2 33.6 179.1 33.5 L180.8 32.15 178.8 31.55 175.1 30.4 175.2 29.1 175.2 29.0 175.25 28.7 175.4 28.75 175.85 28.9 178.95 30.05 181.1 30.85 Q181.0 29.65 179.9 28.15 179.05 27.45 178.25 27.3 M9.35 6.95 L10.7 10.45 11.7 12.9 Q12.6 11.95 13.05 9.85 13.05 8.55 12.5 7.75 13.85 8.35 14.15 10.05 L13.75 12.35 Q12.6 15.1 10.15 14.55 8.75 14.25 8.0 13.4 L7.85 13.2 9.0 13.6 10.35 13.65 9.35 11.4 7.6 7.45 8.75 6.6 9.2 6.55 9.35 6.95 M9.4 25.3 Q11.0 24.35 12.9 25.8 15.0 28.35 14.35 30.1 L13.4 31.3 Q12.2 32.25 10.95 32.25 L12.75 30.6 10.4 30.05 6.2 29.05 6.15 27.55 6.15 27.1 6.35 27.15 6.9 27.35 10.45 28.4 12.95 29.1 Q12.75 27.8 11.35 26.15 10.35 25.35 9.4 25.3" fill="#47525f" fill-rule="evenodd" stroke="none"/>
    <path d="M0.05 36.7 L0.75 22.9 Q1.05 14.95 1.6 7.0 L1.9 5.2 6.5 5.1 3.2 8.3 1.95 36.45 0.05 36.7" fill="#cdcdcd" fill-rule="evenodd" stroke="none"/>
    <path d="M13.75 12.35 L14.15 10.05 26.45 10.0 13.75 12.35 M8.0 13.4 L7.0 13.55 7.2 26.2 6.35 27.15 6.15 27.1 6.15 27.55 Q5.15 29.5 6.75 31.55 8.95 33.2 10.95 32.25 12.2 32.25 13.4 31.3 L14.35 30.1 16.45 30.2 36.65 31.3 56.5 32.6 Q50.4 32.9 38.0 32.9 L15.1 32.75 3.85 32.6 5.25 10.05 6.0 10.05 Q6.15 12.3 7.85 13.2 L8.0 13.4" fill="#848484" fill-rule="evenodd" stroke="none"/>
    <path d="M175.1 13.85 Q175.8 14.75 177.15 15.05 179.85 15.7 180.7 11.75 180.65 10.3 179.9 9.55 L180.85 9.65 179.85 27.15 178.25 27.3 177.7 27.3 177.8 15.2 160.95 13.3 Q144.35 11.4 115.0 6.95 144.55 7.2 162.45 8.35 L174.1 9.15 Q173.65 9.7 173.4 10.6 173.45 12.95 175.1 13.85 M175.3 32.3 L137.05 30.55 175.2 29.0 175.2 29.1 Q174.3 30.55 175.3 32.3" fill="#a09fa0" fill-rule="evenodd" stroke="none"/>
    <path d="M176.45 8.4 L176.25 8.0 176.9 7.95 Q178.55 8.05 179.25 9.1 179.7 9.8 179.7 10.9 179.3 12.8 178.5 13.65 L177.65 11.45 178.05 10.25 Q178.0 8.55 176.45 8.4 M174.8 8.5 L174.9 8.8 Q174.35 9.2 174.15 10.05 174.2 11.9 175.85 12.3 L176.45 12.35 177.35 14.25 176.15 14.2 175.1 13.85 Q173.45 12.95 173.4 10.6 173.65 9.7 174.1 9.15 L174.8 8.5 M177.7 27.3 L178.25 27.3 Q179.05 27.45 179.9 28.15 181.0 29.65 181.1 30.85 L178.95 30.05 178.3 28.9 Q177.0 27.8 175.85 28.9 L175.4 28.75 175.8 28.3 Q176.7 27.35 177.7 27.3 M179.1 33.5 Q177.3 34.2 175.5 32.65 L175.3 32.3 Q174.3 30.55 175.2 29.1 L175.1 30.4 Q175.25 32.1 176.95 32.35 178.0 32.25 178.8 31.55 L180.8 32.15 179.1 33.5 M10.7 10.45 L11.2 9.05 Q11.15 7.15 9.35 6.95 L9.2 6.55 9.9 6.5 Q11.75 6.6 12.5 7.75 13.05 8.55 13.05 9.85 12.6 11.95 11.7 12.9 L10.7 10.45 M7.2 26.2 Q8.2 25.2 9.4 25.3 10.35 25.35 11.35 26.15 12.75 27.8 12.95 29.1 L10.45 28.4 Q9.75 26.65 8.05 26.6 L6.9 27.35 6.35 27.15 7.2 26.2 M6.0 10.05 L5.95 9.55 Q6.6 7.0 8.75 6.6 L7.6 7.45 Q7.0 7.9 6.75 8.85 6.8 10.95 8.7 11.35 L9.35 11.4 10.35 13.65 9.0 13.6 7.85 13.2 Q6.15 12.3 6.0 10.05 M6.15 27.55 L6.2 29.05 Q6.45 30.9 8.2 31.1 9.7 31.2 10.4 30.05 L12.75 30.6 10.95 32.25 Q8.95 33.2 6.75 31.55 5.15 29.5 6.15 27.55" fill="#9c9c9c" fill-rule="evenodd" stroke="none"/>
    <path d="M174.9 8.8 L176.45 12.35 175.85 12.3 Q174.2 11.9 174.15 10.05 174.35 9.2 174.9 8.8 M177.65 11.45 L176.45 8.4 Q178.0 8.55 178.05 10.25 L177.65 11.45 M175.85 28.9 Q177.0 27.8 178.3 28.9 L178.95 30.05 175.85 28.9 M175.1 30.4 L178.8 31.55 Q178.0 32.25 176.95 32.35 175.25 32.1 175.1 30.4 M9.35 6.95 Q11.15 7.15 11.2 9.05 L10.7 10.45 9.35 6.95 M9.35 11.4 L8.7 11.35 Q6.8 10.95 6.75 8.85 7.0 7.9 7.6 7.45 L9.35 11.4 M10.45 28.4 L6.9 27.35 8.05 26.6 Q9.75 26.65 10.45 28.4 M6.2 29.05 L10.4 30.05 Q9.7 31.2 8.2 31.1 6.45 30.9 6.2 29.05" fill="#d5d4d4" fill-rule="evenodd" stroke="none"/>
    <path d="M183.45 6.1 L185.3 6.25 185.25 8.2 185.25 8.25 185.1 13.45 184.65 27.3 184.3 36.25 Q157.35 34.75 133.85 35.55 L89.2 37.0 Q65.15 37.15 43.55 35.85 22.0 34.5 0.05 36.75 L0.05 36.7 1.95 36.45 3.2 8.3 6.5 5.1 Q60.0 3.6 103.3 3.5 L183.45 6.1 M176.25 8.0 Q175.75 7.8 174.95 8.35 L174.8 8.5 174.1 9.15 162.45 8.35 Q144.55 7.2 115.0 6.95 144.35 11.4 160.95 13.3 L177.8 15.2 177.7 27.3 Q176.7 27.35 175.8 28.3 L175.4 28.75 175.25 28.7 175.2 29.0 137.05 30.55 175.3 32.3 175.5 32.65 Q177.3 34.2 179.1 33.5 180.2 33.6 181.35 32.8 183.6 31.2 181.25 27.95 180.5 27.3 179.85 27.15 L180.85 9.65 179.9 9.55 179.25 9.1 Q178.55 8.05 176.9 7.95 L176.25 8.0 M12.5 7.75 Q11.75 6.6 9.9 6.5 L9.2 6.55 8.75 6.6 Q6.6 7.0 5.95 9.55 L6.0 10.05 5.25 10.05 3.85 32.6 15.1 32.75 38.0 32.9 Q50.4 32.9 56.5 32.6 L36.65 31.3 16.45 30.2 14.35 30.1 Q15.0 28.35 12.9 25.8 11.0 24.35 9.4 25.3 8.2 25.2 7.2 26.2 L7.0 13.55 8.0 13.4 Q8.75 14.25 10.15 14.55 12.6 15.1 13.75 12.35 L26.45 10.0 14.15 10.05 Q13.85 8.35 12.5 7.75" fill="url(#gradient0)" fill-rule="evenodd" stroke="none"/>
  </g>
  <defs>
    <linearGradient gradientTransform="matrix(0.1131, 0.0, 0.0, 0.0204, 92.65, 20.25)" gradientUnits="userSpaceOnUse" id="gradient0" spreadMethod="pad" x1="-819.2" x2="819.2">
      <stop offset="0.0" stop-color="#9a9a9a"/>
      <stop offset="1.0" stop-color="#ffffff"/>
    </linearGradient>
  </defs>
</svg>
