<?xml version="1.0" encoding="UTF-8" standalone="no"?>
<svg xmlns:xlink="http://www.w3.org/1999/xlink" height="119.05px" width="72.7px" xmlns="http://www.w3.org/2000/svg">
  <g transform="matrix(1.0, 0.0, 0.0, 1.0, 0.0, 0.0)">
    <path d="M44.95 43.6 L72.7 113.05 56.05 119.05 6.95 16.6 Q6.1 14.45 14.2 9.35 L16.35 12.35 21.9 10.2 21.95 9.8 22.35 5.1 24.8 3.75 24.1 4.15 27.05 3.8 53.0 65.15 36.3 22.9 44.95 43.6 M18.65 17.65 Q16.0 19.15 16.1 22.35 16.15 25.1 17.2 27.75 17.8 29.2 19.15 30.35 21.75 32.55 24.85 31.2 26.6 30.55 27.65 28.65 29.45 27.5 30.25 25.4 31.65 21.7 29.8 18.35 L30.15 17.75 28.15 15.75 27.9 16.15 Q25.3 14.3 22.2 15.0 19.85 15.7 18.65 17.65 M29.5 40.3 Q27.65 41.95 27.7 44.55 27.8 47.2 29.5 49.1 30.4 50.15 31.7 50.0 32.7 50.25 33.75 49.7 34.65 49.15 35.0 48.15 L36.25 46.95 36.75 47.25 38.1 45.85 37.05 45.1 Q37.75 41.45 34.6 39.6 33.9 39.25 33.15 39.05 31.05 38.85 29.5 40.3 M42.2 62.3 Q40.5 62.4 39.55 63.6 38.4 64.85 38.75 66.9 39.2 69.85 40.7 71.2 41.8 72.15 43.1 72.1 L43.65 72.25 43.7 72.0 Q46.45 71.15 47.0 68.4 47.6 65.2 45.25 63.25 L45.25 62.7 42.2 62.3" fill="url(#gradient0)" fill-rule="evenodd" stroke="none"/>
    <path d="M16.2 8.1 L16.2 3.55 22.35 5.1 21.95 9.8 16.2 8.1" fill="url(#gradient1)" fill-rule="evenodd" stroke="none"/>
    <path d="M30.2 72.9 L0.0 14.2 9.7 6.8 12.5 7.25 15.45 6.7 15.25 3.1 22.05 0.0 28.6 1.45 44.95 43.6 36.3 22.9 27.9 2.1 22.75 1.25 16.2 3.55 16.2 8.1 12.75 9.1 9.95 8.65 1.7 14.35 30.2 72.9" fill="#323232" fill-rule="evenodd" stroke="none"/>
    <path d="M16.2 3.55 L22.75 1.25 27.9 2.1 24.8 3.75 22.35 5.1 16.2 3.55" fill="url(#gradient2)" fill-rule="evenodd" stroke="none"/>
    <path d="M27.9 2.1 L36.3 22.9 53.0 65.15 27.05 3.8 24.1 4.15 24.8 3.75 27.9 2.1" fill="#bdb9b9" fill-rule="evenodd" stroke="none"/>
    <path d="M12.75 9.1 L16.2 8.1 21.95 9.8 21.9 10.2 16.35 12.35 14.2 9.35 12.75 9.1" fill="url(#gradient3)" fill-rule="evenodd" stroke="none"/>
    <path d="M1.7 14.35 L9.95 8.65 12.75 9.1 14.2 9.35 Q6.1 14.45 6.95 16.6 L1.7 14.35" fill="url(#gradient4)" fill-rule="evenodd" stroke="none"/>
    <path d="M27.65 28.65 Q26.6 30.55 24.85 31.2 21.75 32.55 19.15 30.35 17.8 29.2 17.2 27.75 16.15 25.1 16.1 22.35 16.0 19.15 18.65 17.65 17.7 19.35 18.05 21.8 18.6 25.25 20.05 27.25 L22.6 23.8 27.45 16.8 27.9 16.15 28.15 15.75 30.15 17.75 29.8 18.35 28.8 19.95 25.5 24.75 22.3 29.2 Q23.8 29.95 25.65 29.55 L27.65 28.65 M29.5 40.3 L30.75 41.0 35.5 44.05 37.05 45.1 38.1 45.85 36.75 47.25 36.25 46.95 33.8 45.5 31.15 44.0 28.7 42.65 28.8 43.55 Q29.25 46.5 30.75 47.9 32.05 49.05 33.75 48.65 L35.0 48.15 Q34.65 49.15 33.75 49.7 32.7 50.25 31.7 50.0 30.4 50.15 29.5 49.1 27.8 47.2 27.7 44.55 27.65 41.95 29.5 40.3 M43.1 72.1 L41.75 71.7 41.95 68.45 42.15 62.95 42.2 62.3 45.25 62.7 45.25 63.25 45.2 63.95 44.45 68.55 43.7 72.0 43.65 72.25 43.1 72.1" fill="#47515f" fill-rule="evenodd" stroke="none"/>
    <path d="M27.65 28.65 L25.65 29.55 Q23.8 29.95 22.3 29.2 L25.5 24.75 Q26.85 24.75 27.85 23.35 28.8 21.95 28.8 19.95 L29.8 18.35 Q31.65 21.7 30.25 25.4 29.45 27.5 27.65 28.65 M27.9 16.15 L27.45 16.8 Q25.0 14.6 22.2 16.3 21.15 17.0 21.0 18.2 20.6 21.3 22.6 23.8 L20.05 27.25 Q18.6 25.25 18.05 21.8 17.7 19.35 18.65 17.65 19.85 15.7 22.2 15.0 25.3 14.3 27.9 16.15 M30.75 41.0 L29.5 40.3 Q31.05 38.85 33.15 39.05 33.9 39.25 34.6 39.6 37.75 41.45 37.05 45.1 L35.5 44.05 Q36.4 42.2 35.1 40.5 34.2 39.4 32.85 39.5 31.4 39.6 30.75 41.0 M35.0 48.15 L33.75 48.65 Q32.05 49.05 30.75 47.9 29.25 46.5 28.8 43.55 L28.7 42.65 31.15 44.0 Q31.15 44.6 31.95 45.05 L33.8 45.5 36.25 46.95 35.0 48.15 M43.1 72.1 Q41.8 72.15 40.7 71.2 39.2 69.85 38.75 66.9 38.4 64.85 39.55 63.6 40.5 62.4 42.2 62.3 L42.15 62.95 Q40.6 63.45 40.6 65.1 40.65 67.1 41.95 68.45 L41.75 71.7 43.1 72.1 M45.25 63.25 Q47.6 65.2 47.0 68.4 46.45 71.15 43.7 72.0 L44.45 68.55 Q45.45 67.9 45.7 66.6 46.0 65.1 45.2 63.95 L45.25 63.25" fill="#9c9c9c" fill-rule="evenodd" stroke="none"/>
    <path d="M25.5 24.75 L28.8 19.95 Q28.8 21.95 27.85 23.35 26.85 24.75 25.5 24.75 M27.45 16.8 L22.6 23.8 Q20.6 21.3 21.0 18.2 21.15 17.0 22.2 16.3 25.0 14.6 27.45 16.8 M31.15 44.0 L33.8 45.5 31.95 45.05 Q31.15 44.6 31.15 44.0 M35.5 44.05 L30.75 41.0 Q31.4 39.6 32.85 39.5 34.2 39.4 35.1 40.5 36.4 42.2 35.5 44.05 M41.95 68.45 Q40.65 67.1 40.6 65.1 40.6 63.45 42.15 62.95 L41.95 68.45 M45.2 63.95 Q46.0 65.1 45.7 66.6 45.45 67.9 44.45 68.55 L45.2 63.95" fill="#d4d4d4" fill-rule="evenodd" stroke="none"/>
    <path d="M56.05 119.05 L52.9 118.2 30.2 72.9 1.7 14.35 6.95 16.6 56.05 119.05" fill="url(#gradient5)" fill-rule="evenodd" stroke="none"/>
  </g>
  <defs>
    <linearGradient gradientTransform="matrix(0.0401, 0.0, 0.0, 0.0714, 39.8, 60.55)" gradientUnits="userSpaceOnUse" id="gradient0" spreadMethod="pad" x1="-819.2" x2="819.2">
      <stop offset="0.058823529411764705" stop-color="#bcbcbc"/>
      <stop offset="0.6431372549019608" stop-color="#2a302d"/>
    </linearGradient>
    <linearGradient gradientTransform="matrix(0.0038, 0.0, 0.0, 0.0041, 19.35, 6.85)" gradientUnits="userSpaceOnUse" id="gradient1" spreadMethod="pad" x1="-819.2" x2="819.2">
      <stop offset="0.058823529411764705" stop-color="#bcbcbc"/>
      <stop offset="0.6431372549019608" stop-color="#2a302d"/>
    </linearGradient>
    <linearGradient gradientTransform="matrix(0.0071, 0.0, 0.0, 0.0023, 22.05, 3.15)" gradientUnits="userSpaceOnUse" id="gradient2" spreadMethod="pad" x1="-819.2" x2="819.2">
      <stop offset="0.058823529411764705" stop-color="#bcbcbc"/>
      <stop offset="0.6431372549019608" stop-color="#2a302d"/>
    </linearGradient>
    <linearGradient gradientTransform="matrix(0.0075, 0.0, 0.0, 0.0026, 16.6, 10.2)" gradientUnits="userSpaceOnUse" id="gradient3" spreadMethod="pad" x1="-819.2" x2="819.2">
      <stop offset="0.058823529411764705" stop-color="#bcbcbc"/>
      <stop offset="0.6431372549019608" stop-color="#2a302d"/>
    </linearGradient>
    <linearGradient gradientTransform="matrix(0.0076, 0.0, 0.0, 0.0049, 7.95, 12.6)" gradientUnits="userSpaceOnUse" id="gradient4" spreadMethod="pad" x1="-819.2" x2="819.2">
      <stop offset="0.058823529411764705" stop-color="#bcbcbc"/>
      <stop offset="0.6431372549019608" stop-color="#2a302d"/>
    </linearGradient>
    <linearGradient gradientTransform="matrix(0.0332, 0.0, 0.0, 0.0639, 28.85, 66.65)" gradientUnits="userSpaceOnUse" id="gradient5" spreadMethod="pad" x1="-819.2" x2="819.2">
      <stop offset="0.47058823529411764" stop-color="#bcbcbc"/>
      <stop offset="0.9098039215686274" stop-color="#2a302d"/>
    </linearGradient>
  </defs>
</svg>
