<?xml version="1.0" encoding="UTF-8" standalone="no"?>
<svg xmlns:xlink="http://www.w3.org/1999/xlink" height="65.6px" width="102.9px" xmlns="http://www.w3.org/2000/svg">
  <g transform="matrix(1.0, 0.0, 0.0, 1.0, 0.0, 0.0)">
    <path d="M88.5 39.6 Q88.15 40.45 87.4 40.8 L85.8 40.7 Q84.85 40.15 84.25 38.7 83.9 37.75 84.25 37.0 L84.65 36.55 Q84.45 37.2 84.8 37.95 85.35 39.35 86.25 39.85 L87.9 39.95 88.5 39.6 M96.5 37.3 Q95.55 36.75 95.0 35.3 94.55 34.3 95.0 33.65 95.35 32.9 96.2 32.75 L97.85 32.9 98.1 33.1 96.5 32.9 Q95.6 33.1 95.3 33.8 94.85 34.5 95.3 35.5 95.75 36.7 96.5 37.3" fill="#47515f" fill-rule="evenodd" stroke="none"/>
    <path d="M88.15 36.5 L87.35 35.65 86.3 35.55 Q85.8 35.7 85.55 36.15 85.3 36.55 85.55 37.2 85.9 38.05 86.5 38.4 L87.5 38.45 88.15 37.7 Q88.4 37.15 88.15 36.5 M84.65 36.55 L84.8 36.25 Q85.1 35.55 86.0 35.35 L87.6 35.55 Q88.5 35.95 88.9 36.95 89.3 37.9 88.95 38.8 L88.5 39.6 87.9 39.95 86.25 39.85 Q85.35 39.35 84.8 37.95 84.45 37.2 84.65 36.55 M74.35 44.45 L73.25 45.6 71.65 45.5 Q70.7 44.95 70.1 43.5 69.7 42.55 70.1 41.85 70.45 41.15 71.3 41.0 L72.95 41.1 Q73.8 41.5 74.25 42.5 74.6 43.5 74.35 44.45 M96.55 33.1 Q96.0 33.25 95.8 33.7 95.55 34.1 95.8 34.75 96.15 35.6 96.75 35.95 L97.75 36.0 98.4 35.25 Q98.6 34.7 98.35 34.1 98.1 33.5 97.6 33.25 L96.55 33.1 M96.5 37.3 Q95.75 36.7 95.3 35.5 94.85 34.5 95.3 33.8 95.6 33.1 96.5 32.9 L98.1 33.1 98.7 33.45 99.4 34.5 99.65 35.6 99.5 36.35 Q99.15 37.25 98.4 37.55 L96.8 37.5 96.6 37.35 96.5 37.3 M72.7 41.25 L71.65 41.15 Q71.1 41.25 70.95 41.7 70.65 42.15 70.95 42.8 71.25 43.65 71.85 43.95 L72.85 44.05 73.5 43.3 Q73.7 42.75 73.45 42.15 73.25 41.5 72.7 41.25" fill="#9c9c9c" fill-rule="evenodd" stroke="none"/>
    <path d="M88.15 36.5 Q88.4 37.15 88.15 37.7 L87.5 38.45 86.5 38.4 Q85.9 38.05 85.55 37.2 85.3 36.55 85.55 36.15 85.8 35.7 86.3 35.55 L87.35 35.65 88.15 36.5 M96.55 33.1 L97.6 33.25 Q98.1 33.5 98.35 34.1 98.6 34.7 98.4 35.25 L97.75 36.0 96.75 35.95 Q96.15 35.6 95.8 34.75 95.55 34.1 95.8 33.7 96.0 33.25 96.55 33.1 M72.7 41.25 Q73.25 41.5 73.45 42.15 73.7 42.75 73.5 43.3 L72.85 44.05 71.85 43.95 Q71.25 43.65 70.95 42.8 70.65 42.15 70.95 41.7 71.1 41.25 71.65 41.15 L72.7 41.25" fill="#d4d4d4" fill-rule="evenodd" stroke="none"/>
    <path d="M2.05 6.25 L2.0 2.7 69.1 0.1 75.55 0.75 Q80.1 1.35 83.6 2.5 93.45 5.65 94.45 12.8 L97.05 29.2 Q100.2 30.5 101.8 33.9 102.9 36.2 102.9 38.15 L90.0 41.65 100.2 38.3 99.65 35.6 99.4 34.5 98.7 33.45 Q97.85 32.1 96.55 31.85 93.7 31.25 26.35 51.3 L38.75 55.75 3.05 65.6 2.9 57.35 Q84.25 33.7 93.95 31.25 L93.9 26.25 92.6 15.65 Q91.6 8.95 81.95 6.0 78.55 4.9 74.05 4.4 L67.75 3.75 2.05 6.25" fill="url(#gradient0)" fill-rule="evenodd" stroke="none"/>
    <path d="M2.9 57.35 L0.0 58.25 2.05 6.25 67.75 3.75 74.05 4.4 Q78.55 4.9 81.95 6.0 91.6 8.95 92.6 15.65 L93.9 26.25 93.95 31.25 Q84.25 33.7 2.9 57.35" fill="url(#gradient1)" fill-rule="evenodd" stroke="none"/>
    <path d="M90.0 41.65 L42.55 57.1 38.75 55.75 26.35 51.3 Q93.7 31.25 96.55 31.85 97.85 32.1 98.7 33.45 L98.1 33.1 97.85 32.9 96.2 32.75 Q95.35 32.9 95.0 33.65 94.55 34.3 95.0 35.3 95.55 36.75 96.5 37.3 L96.6 37.35 96.8 37.5 98.4 37.55 Q99.15 37.25 99.5 36.35 L99.65 35.6 100.2 38.3 90.0 41.65 M84.65 36.55 L84.25 37.0 Q83.9 37.75 84.25 38.7 84.85 40.15 85.8 40.7 L87.4 40.8 Q88.15 40.45 88.5 39.6 L88.95 38.8 Q89.3 37.9 88.9 36.95 88.5 35.95 87.6 35.55 L86.0 35.35 Q85.1 35.55 84.8 36.25 L84.65 36.55 M74.35 44.45 Q74.6 43.5 74.25 42.5 73.8 41.5 72.95 41.1 L71.3 41.0 Q70.45 41.15 70.1 41.85 69.7 42.55 70.1 43.5 70.7 44.95 71.65 45.5 L73.25 45.6 74.35 44.45" fill="url(#gradient2)" fill-rule="evenodd" stroke="none"/>
  </g>
  <defs>
    <linearGradient gradientTransform="matrix(-0.0338, 0.0333, -0.0514, -0.022, 52.45, 32.85)" gradientUnits="userSpaceOnUse" id="gradient0" spreadMethod="pad" x1="-819.2" x2="819.2">
      <stop offset="0.4392156862745098" stop-color="#d2d2d2"/>
      <stop offset="1.0" stop-color="#787e86"/>
    </linearGradient>
    <linearGradient gradientTransform="matrix(-0.0018, 0.0332, -0.0573, -0.001, 46.95, 30.95)" gradientUnits="userSpaceOnUse" id="gradient1" spreadMethod="pad" x1="-819.2" x2="819.2">
      <stop offset="0.058823529411764705" stop-color="#bcbcbc"/>
      <stop offset="0.6431372549019608" stop-color="#2a302d"/>
    </linearGradient>
    <linearGradient gradientTransform="matrix(-0.0268, 0.0124, -0.0358, -0.0108, 63.3, 44.3)" gradientUnits="userSpaceOnUse" id="gradient2" spreadMethod="pad" x1="-819.2" x2="819.2">
      <stop offset="0.058823529411764705" stop-color="#bcbcbc"/>
      <stop offset="0.6431372549019608" stop-color="#3d4751"/>
    </linearGradient>
  </defs>
</svg>
