<?xml version="1.0" encoding="UTF-8" standalone="no"?>
<svg xmlns:xlink="http://www.w3.org/1999/xlink" height="73.35px" width="90.4px" xmlns="http://www.w3.org/2000/svg">
  <g transform="matrix(1.0, 0.0, 0.0, 1.0, 0.0, 0.0)">
    <path d="M89.75 68.9 Q80.1 68.8 73.5 67.1 73.95 62.25 72.2 59.95 70.45 57.6 0.0 15.1 L9.6 0.0 Q80.9 47.1 84.05 49.9 85.25 51.0 86.65 53.35 88.0 55.75 89.0 58.45 90.05 61.45 90.35 64.05 90.6 66.95 89.75 68.9" fill="#2d2323" fill-rule="evenodd" stroke="none"/>
    <path d="M71.4 57.15 L0.15 13.8 8.65 0.15 Q78.9 46.9 81.65 49.55 82.15 56.05 71.4 57.15" fill="url(#gradient0)" fill-rule="evenodd" stroke="none"/>
    <path d="M73.1 59.3 Q72.35 57.9 71.4 57.15 80.05 55.35 81.65 49.55 L83.95 51.85 Q85.75 53.95 87.0 56.3 90.5 63.25 88.45 70.75 84.15 73.5 78.65 73.35 74.85 73.3 72.05 72.1 75.05 67.65 74.25 62.8 73.95 60.9 73.1 59.3" fill="url(#gradient1)" fill-rule="evenodd" stroke="none"/>
    <path d="M81.4 53.6 Q81.7 52.75 82.6 52.75 L83.2 53.0 Q83.5 53.2 83.3 53.6 L82.8 54.45 82.05 54.6 81.5 54.25 Q81.25 53.95 81.4 53.6" fill="#000000" fill-rule="evenodd" stroke="none"/>
    <path d="M81.15 53.35 Q81.25 52.95 81.65 52.75 L82.35 52.55 82.95 52.75 Q83.2 53.0 83.05 53.4 82.75 54.5 81.8 54.35 L81.25 54.05 Q81.0 53.7 81.15 53.35" fill="#535353" fill-rule="evenodd" stroke="none"/>
    <path d="M81.45 53.15 Q81.6 52.65 82.2 52.65 82.85 52.65 82.65 53.15 82.45 53.85 81.85 53.75 L81.5 53.55 Q81.4 53.35 81.45 53.15" fill="#9c9c9c" fill-rule="evenodd" stroke="none"/>
    <path d="M77.6 56.6 L78.15 56.05 78.85 55.8 79.5 56.05 79.6 56.65 Q79.2 57.75 78.25 57.6 L77.7 57.35 Q77.5 57.0 77.6 56.6" fill="#000000" fill-rule="evenodd" stroke="none"/>
    <path d="M77.35 56.4 Q77.45 56.0 77.85 55.75 L78.55 55.6 79.2 55.75 Q79.45 56.05 79.35 56.4 78.95 57.55 78.0 57.4 L77.45 57.05 Q77.25 56.8 77.35 56.4" fill="#535353" fill-rule="evenodd" stroke="none"/>
    <path d="M77.7 56.15 Q77.85 55.7 78.45 55.7 79.05 55.7 78.9 56.25 78.65 56.9 78.05 56.85 L77.75 56.6 77.7 56.15" fill="#9c9c9c" fill-rule="evenodd" stroke="none"/>
    <path d="M72.65 58.3 L73.1 57.7 73.85 57.5 74.45 57.75 Q74.7 57.95 74.55 58.35 L74.0 59.15 73.25 59.3 72.7 58.95 Q72.5 58.7 72.65 58.3" fill="#000000" fill-rule="evenodd" stroke="none"/>
    <path d="M72.4 58.05 Q72.6 57.25 73.6 57.3 L74.2 57.45 Q74.45 57.75 74.3 58.1 L73.7 58.9 73.0 59.1 72.45 58.75 Q72.2 58.45 72.4 58.05" fill="#535353" fill-rule="evenodd" stroke="none"/>
    <path d="M72.65 57.85 Q72.85 57.4 73.4 57.35 74.05 57.35 73.85 57.85 73.7 58.6 73.1 58.5 L72.7 58.3 72.65 57.85" fill="#9c9c9c" fill-rule="evenodd" stroke="none"/>
  </g>
  <defs>
    <linearGradient gradientTransform="matrix(-0.0486, -0.0229, 0.0151, -0.0128, 42.1, 29.5)" gradientUnits="userSpaceOnUse" id="gradient0" spreadMethod="pad" x1="-819.2" x2="819.2">
      <stop offset="0.0" stop-color="#565656"/>
      <stop offset="0.403921568627451" stop-color="#999999"/>
      <stop offset="0.592156862745098" stop-color="#dbdbdb"/>
      <stop offset="0.7803921568627451" stop-color="#9b9b9b"/>
      <stop offset="1.0" stop-color="#0d0a0f"/>
    </linearGradient>
    <linearGradient gradientTransform="matrix(-0.0128, -0.0011, 0.0025, -0.0145, 80.55, 62.35)" gradientUnits="userSpaceOnUse" id="gradient1" spreadMethod="pad" x1="-819.2" x2="819.2">
      <stop offset="0.058823529411764705" stop-color="#878787"/>
      <stop offset="0.48627450980392156" stop-color="#141a17"/>
    </linearGradient>
  </defs>
</svg>
