<?xml version="1.0" encoding="UTF-8" standalone="no"?>
<svg xmlns:xlink="http://www.w3.org/1999/xlink" height="92.4px" width="107.75px" xmlns="http://www.w3.org/2000/svg">
  <g transform="matrix(1.0, 0.0, 0.0, 1.0, 0.0, 0.0)">
    <path d="M102.65 40.95 Q102.6 37.65 97.2 35.4 L19.35 3.2 Q13.95 0.95 10.05 2.9 6.15 4.8 6.1 9.75 L5.0 76.7 Q4.9 81.65 8.6 83.45 12.35 85.25 17.6 82.85 L97.5 46.65 Q102.75 44.25 102.65 40.95 M107.65 43.9 L107.65 43.95 Q108.55 50.2 99.6 54.3 L19.7 90.55 19.65 90.6 Q11.95 94.0 6.45 91.05 -0.15 88.15 0.0 79.75 L1.1 12.8 Q1.2 4.65 7.85 1.55 13.45 -1.6 21.3 1.7 L21.25 1.7 99.1 33.95 Q108.25 37.65 107.65 43.9" fill="#51000a" fill-rule="evenodd" stroke="none"/>
    <path d="M102.65 40.95 Q102.75 44.25 97.5 46.65 L17.6 82.85 Q12.35 85.25 8.6 83.45 4.9 81.65 5.0 76.7 L6.1 9.75 Q6.15 4.8 10.05 2.9 13.95 0.95 19.35 3.2 L97.2 35.4 Q102.6 37.65 102.65 40.95" fill="url(#gradient0)" fill-rule="evenodd" stroke="none"/>
  </g>
  <defs>
    <linearGradient gradientTransform="matrix(0.0671, 0.0, 0.0, 0.0501, 46.0, 43.95)" gradientUnits="userSpaceOnUse" id="gradient0" spreadMethod="pad" x1="-819.2" x2="819.2">
      <stop offset="0.0" stop-color="#650c0b"/>
      <stop offset="0.3686274509803922" stop-color="#d5160b"/>
      <stop offset="0.6745098039215687" stop-color="#e1180a"/>
      <stop offset="1.0" stop-color="#650c0b"/>
    </linearGradient>
  </defs>
</svg>
