<?xml version="1.0" encoding="UTF-8" standalone="no"?>
<svg xmlns:xlink="http://www.w3.org/1999/xlink" height="31.0px" width="138.0px" xmlns="http://www.w3.org/2000/svg">
  <g transform="matrix(1.0, 0.0, 0.0, 1.0, 1.0, 1.0)">
    <path d="M130.0 0.0 Q132.5 0.0 134.25 1.75 136.0 3.5 136.0 6.0 L136.0 23.0 Q136.0 25.5 134.25 27.25 132.5 29.0 130.0 29.0 L6.0 29.0 Q3.5 29.0 1.75 27.25 0.0 25.5 0.0 23.0 L0.0 6.0 Q0.0 3.5 1.75 1.75 3.5 0.0 6.0 0.0 L130.0 0.0" fill="#ffffcc" fill-rule="evenodd" stroke="none"/>
    <path d="M130.0 0.0 L6.0 0.0 Q3.5 0.0 1.75 1.75 0.0 3.5 0.0 6.0 L0.0 23.0 Q0.0 25.5 1.75 27.25 3.5 29.0 6.0 29.0 L130.0 29.0 Q132.5 29.0 134.25 27.25 136.0 25.5 136.0 23.0 L136.0 6.0 Q136.0 3.5 134.25 1.75 132.5 0.0 130.0 0.0 Z" fill="none" stroke="#006699" stroke-linecap="round" stroke-linejoin="round" stroke-width="2.0"/>
  </g>
</svg>
