<?xml version="1.0" encoding="UTF-8" standalone="no"?>
<svg xmlns:xlink="http://www.w3.org/1999/xlink" height="359.1px" width="318.15px" xmlns="http://www.w3.org/2000/svg">
  <g transform="matrix(1.0, 0.0, 0.0, 1.0, 28.45, 69.9)">
    <path d="M167.5 22.45 L168.25 24.35 168.95 25.25 Q170.35 26.6 172.2 26.5 176.8 26.05 177.0 21.25 177.5 23.5 176.3 25.0 169.95 32.85 167.5 22.45 M279.4 182.05 L282.75 159.35 269.6 87.1 195.4 38.95 190.05 27.85 145.25 -65.3 117.0 -65.3 75.6 38.95 32.15 67.85 -4.95 92.45 -21.45 151.45 -14.4 250.3 13.25 286.7 46.1 286.7 247.0 286.7 267.4 263.55 279.4 182.05 M262.0 86.35 L262.0 88.9 252.3 99.3 252.3 96.7 262.0 86.35 M265.65 92.6 Q266.5 97.15 263.2 100.1 259.25 103.8 254.6 101.2 L254.55 98.75 Q256.25 99.75 258.35 99.8 265.05 99.2 265.65 92.6 M252.25 99.35 L252.25 99.3 252.3 99.35 252.25 99.35 M275.55 86.35 L289.7 167.95 273.9 266.7 250.1 289.2 9.9 289.2 -17.5 252.95 -28.45 150.7 -6.05 87.95 8.9 77.65 65.9 37.0 Q68.05 35.5 69.5 33.45 71.8 30.15 73.4 26.35 L95.8 -27.4 106.3 -52.65 108.0 -56.8 109.7 -61.05 112.25 -66.95 145.95 -69.9 200.7 33.95 275.55 86.35 M130.75 -45.75 Q131.45 -42.6 129.7 -40.0 125.8 -34.25 119.75 -37.15 L119.7 -39.55 Q121.4 -38.55 123.45 -38.5 130.15 -39.1 130.75 -45.75 M117.35 -38.95 L117.35 -39.0 Q117.35 -39.0 117.45 -38.95 L117.35 -38.95 M127.1 -51.95 L127.1 -49.4 117.45 -39.0 117.45 -41.6 127.1 -51.95 M86.8 43.0 Q86.2 53.65 78.4 46.25 77.25 45.1 77.35 43.6 L78.1 45.55 78.8 46.4 Q80.15 47.7 82.05 47.65 86.45 47.2 86.8 43.0 M24.8 261.4 L24.8 263.95 15.1 274.35 15.1 271.75 24.8 261.4 M28.45 267.65 L28.45 268.75 Q27.4 279.3 17.4 276.25 L17.35 273.8 Q19.05 274.8 21.15 274.85 27.85 274.25 28.45 267.65 M15.05 274.45 L15.05 274.35 15.1 274.45 15.05 274.45 M269.0 200.05 Q269.7 202.0 268.6 203.45 262.35 211.8 259.5 201.25 L260.2 203.15 260.95 204.05 Q262.35 205.45 264.15 205.3 268.8 204.85 269.0 200.05" fill="#47525f" fill-rule="evenodd" stroke="none"/>
    <path d="M190.05 27.85 L195.4 38.95 269.6 87.1 282.75 159.35 279.4 182.05 Q162.75 234.35 46.1 286.7 L13.25 286.7 -14.4 250.3 -21.45 151.45 -4.95 92.45 32.15 67.85 190.05 27.85 M262.0 88.9 L262.0 86.35 261.3 86.1 Q258.7 84.4 255.15 86.2 251.1 88.35 250.85 93.2 L251.2 94.75 252.25 99.3 252.25 99.35 254.6 101.2 Q259.25 103.8 263.2 100.1 266.5 97.15 265.65 92.6 L264.25 88.35 264.3 89.4 Q263.85 98.75 254.55 98.75 L262.95 89.7 262.0 88.9 M251.95 94.95 L252.0 94.75 251.95 95.0 251.95 94.95 M128.1 -48.6 L129.35 -49.95 Q130.1 -45.75 127.4 -42.55 124.45 -39.0 119.7 -39.55 L128.1 -48.6 M24.05 261.25 Q22.0 259.65 18.75 260.8 13.7 262.8 13.65 268.25 L14.0 269.8 15.05 274.35 15.05 274.45 17.4 276.25 Q27.4 279.3 28.45 268.75 L28.45 267.65 27.05 263.4 Q27.3 273.75 17.35 273.8 L25.75 264.8 24.8 263.95 24.8 261.4 24.35 261.1 24.05 261.25 M14.75 270.0 L14.8 269.8 14.75 270.05 14.75 270.0" fill="#bab9ba" fill-rule="evenodd" stroke="none"/>
    <path d="M174.5 17.55 Q172.95 16.8 171.3 17.2 167.4 18.4 167.5 22.45 169.95 32.85 176.3 25.0 177.5 23.5 177.0 21.25 176.9 19.95 176.05 18.9 175.35 18.05 174.5 17.55 M190.05 27.85 L32.15 67.85 75.6 38.95 117.0 -65.3 145.25 -65.3 190.05 27.85 M46.1 286.7 Q162.75 234.35 279.4 182.05 L267.4 263.55 247.0 286.7 46.1 286.7 M128.1 -48.6 L127.1 -49.4 127.1 -51.95 126.5 -52.2 Q123.6 -53.9 120.3 -52.1 116.15 -49.9 115.95 -45.1 L116.35 -43.55 117.35 -39.0 117.35 -38.95 119.75 -37.15 Q125.8 -34.25 129.7 -40.0 131.45 -42.6 130.75 -45.75 L129.35 -49.95 128.1 -48.6 M117.15 -43.55 L117.05 -43.3 117.05 -43.35 117.15 -43.55 M77.35 43.6 Q77.25 45.1 78.4 46.25 86.2 53.65 86.8 43.0 L86.85 42.45 Q86.75 41.1 85.9 40.05 L84.35 38.75 Q82.7 37.95 81.15 38.4 77.3 39.55 77.35 43.6 M269.0 200.05 Q268.85 198.75 268.0 197.7 267.35 196.85 266.5 196.35 265.1 195.6 263.25 196.0 259.35 197.1 259.5 201.25 262.35 211.8 268.6 203.45 269.7 202.0 269.0 200.05" fill="#9c9c9c" fill-rule="evenodd" stroke="none"/>
    <path d="M262.0 88.9 L262.95 89.7 254.55 98.75 254.6 101.2 252.25 99.35 252.3 99.35 252.3 99.3 262.0 88.9 M127.1 -49.4 L128.1 -48.6 119.7 -39.55 119.75 -37.15 117.35 -38.95 117.45 -38.95 117.45 -39.0 127.1 -49.4 M24.8 263.95 L25.75 264.8 17.35 273.8 17.4 276.25 15.05 274.45 15.1 274.45 15.1 274.35 24.8 263.95" fill="#57565b" fill-rule="evenodd" stroke="none"/>
    <path d="M252.25 99.3 L251.2 94.75 251.8 96.05 Q251.8 95.5 251.95 94.95 L251.95 95.0 251.85 96.05 252.3 96.7 252.3 99.3 252.3 99.35 252.25 99.3 M117.35 -39.0 L116.35 -43.55 116.95 -42.25 117.05 -43.35 117.05 -43.3 117.0 -42.25 117.45 -41.6 117.45 -39.0 117.45 -38.95 Q117.35 -39.0 117.35 -39.0 M14.0 269.8 L14.6 271.15 Q14.6 270.55 14.75 270.0 L14.75 270.05 14.7 271.15 15.1 271.75 15.1 274.35 15.1 274.45 15.05 274.35 14.0 269.8" fill="#79818b" fill-rule="evenodd" stroke="none"/>
    <path d="M168.25 24.35 Q168.25 21.55 170.05 19.55 171.9 17.55 174.5 17.55 175.35 18.05 176.05 18.9 176.1 24.8 170.2 25.35 L168.95 25.25 168.25 24.35 M261.3 86.1 L262.0 86.35 252.3 96.7 251.85 96.05 251.95 95.0 252.0 94.75 252.65 93.4 Q255.65 88.1 261.3 86.1 M126.5 -52.2 L127.1 -51.95 117.45 -41.6 117.0 -42.25 117.05 -43.3 117.15 -43.55 Q119.65 -49.15 125.1 -51.65 L126.5 -52.2 M78.8 46.4 L78.1 45.55 Q78.1 42.75 79.9 40.75 81.75 38.75 84.35 38.75 L85.9 40.05 Q85.95 46.05 80.05 46.55 L78.8 46.4 M14.8 269.8 Q17.15 264.4 22.7 261.8 23.4 261.45 24.05 261.25 L24.35 261.1 24.8 261.4 15.1 271.75 14.7 271.15 14.75 270.05 14.8 269.8 M266.5 196.35 Q267.35 196.85 268.0 197.7 268.0 203.55 262.15 204.15 L260.95 204.05 260.2 203.15 Q260.2 200.35 262.05 198.35 263.85 196.35 266.5 196.35" fill="#d0cfd0" fill-rule="evenodd" stroke="none"/>
    <path d="M174.5 17.55 Q171.9 17.55 170.05 19.55 168.25 21.55 168.25 24.35 L167.5 22.45 Q167.4 18.4 171.3 17.2 172.95 16.8 174.5 17.55 M251.2 94.75 L250.85 93.2 Q251.1 88.35 255.15 86.2 258.7 84.4 261.3 86.1 255.65 88.1 252.65 93.4 L252.0 94.75 251.95 94.95 Q251.8 95.5 251.8 96.05 L251.2 94.75 M116.35 -43.55 L115.95 -45.1 Q116.15 -49.9 120.3 -52.1 123.6 -53.9 126.5 -52.2 L125.1 -51.65 Q119.65 -49.15 117.15 -43.55 L117.05 -43.35 116.95 -42.25 116.35 -43.55 M78.1 45.55 L77.35 43.6 Q77.3 39.55 81.15 38.4 82.7 37.95 84.35 38.75 81.75 38.75 79.9 40.75 78.1 42.75 78.1 45.55 M14.0 269.8 L13.65 268.25 Q13.7 262.8 18.75 260.8 22.0 259.65 24.05 261.25 23.4 261.45 22.7 261.8 17.15 264.4 14.8 269.8 L14.75 270.0 Q14.6 270.55 14.6 271.15 L14.0 269.8 M259.5 201.25 Q259.35 197.1 263.25 196.0 265.1 195.6 266.5 196.35 263.85 196.35 262.05 198.35 260.2 200.35 260.2 203.15 L259.5 201.25" fill="#e9e9eb" fill-rule="evenodd" stroke="none"/>
    <path d="M168.95 25.25 L170.2 25.35 Q176.1 24.8 176.05 18.9 176.9 19.95 177.0 21.25 176.8 26.05 172.2 26.5 170.35 26.6 168.95 25.25 M254.55 98.75 Q263.85 98.75 264.3 89.4 L264.25 88.35 265.65 92.6 Q265.05 99.2 258.35 99.8 256.25 99.75 254.55 98.75 M129.35 -49.95 L130.75 -45.75 Q130.15 -39.1 123.45 -38.5 121.4 -38.55 119.7 -39.55 124.45 -39.0 127.4 -42.55 130.1 -45.75 129.35 -49.95 M86.8 43.0 Q86.45 47.2 82.05 47.65 80.15 47.7 78.8 46.4 L80.05 46.55 Q85.95 46.05 85.9 40.05 86.75 41.1 86.85 42.45 L86.8 43.0 M17.35 273.8 Q27.3 273.75 27.05 263.4 L28.45 267.65 Q27.85 274.25 21.15 274.85 19.05 274.8 17.35 273.8 M268.0 197.7 Q268.85 198.75 269.0 200.05 268.8 204.85 264.15 205.3 262.35 205.45 260.95 204.05 L262.15 204.15 Q268.0 203.55 268.0 197.7" fill="#b0aeb3" fill-rule="evenodd" stroke="none"/>
  </g>
</svg>
