<?xml version="1.0" encoding="UTF-8" standalone="no"?>
<svg xmlns:xlink="http://www.w3.org/1999/xlink" height="157.0px" width="1.0px" xmlns="http://www.w3.org/2000/svg">
  <g transform="matrix(1.0, 0.0, 0.0, 1.0, -24.45, 94.5)">
    <path d="M24.6 -94.35 L24.95 -94.5 25.3 -94.35 25.45 -94.0 25.3 -93.65 Q25.15 -93.5 24.95 -93.5 24.75 -93.5 24.6 -93.65 24.45 -93.8 24.45 -94.0 L24.6 -94.35 M25.3 -90.35 L25.45 -90.0 25.3 -89.65 Q25.15 -89.5 24.95 -89.5 24.75 -89.5 24.6 -89.65 24.45 -89.8 24.45 -90.0 L24.6 -90.35 24.95 -90.5 25.3 -90.35 M24.6 -86.35 L24.95 -86.5 25.3 -86.35 25.45 -86.0 25.3 -85.65 Q25.15 -85.5 24.95 -85.5 24.75 -85.5 24.6 -85.65 24.45 -85.8 24.45 -86.0 L24.6 -86.35 M25.3 -82.35 L25.45 -82.0 25.3 -81.65 Q25.15 -81.5 24.95 -81.5 24.75 -81.5 24.6 -81.65 24.45 -81.8 24.45 -82.0 L24.6 -82.35 24.95 -82.5 25.3 -82.35 M24.6 -78.35 L24.95 -78.5 25.3 -78.35 25.45 -78.0 25.3 -77.65 Q25.15 -77.5 24.95 -77.5 24.75 -77.5 24.6 -77.65 24.45 -77.8 24.45 -78.0 L24.6 -78.35 M24.95 -74.5 L25.3 -74.35 25.45 -74.0 25.3 -73.65 Q25.15 -73.5 24.95 -73.5 24.75 -73.5 24.6 -73.65 24.45 -73.8 24.45 -74.0 L24.6 -74.35 24.95 -74.5 M25.3 -70.35 L25.45 -70.0 25.3 -69.65 Q25.15 -69.5 24.95 -69.5 24.75 -69.5 24.6 -69.65 24.45 -69.8 24.45 -70.0 L24.6 -70.35 24.95 -70.5 25.3 -70.35 M24.45 -66.0 L24.6 -66.35 24.95 -66.5 25.3 -66.35 25.45 -66.0 25.3 -65.65 Q25.15 -65.5 24.95 -65.5 24.75 -65.5 24.6 -65.65 24.45 -65.8 24.45 -66.0 M24.6 -62.35 L24.95 -62.5 25.3 -62.35 25.45 -62.0 25.3 -61.65 Q25.15 -61.5 24.95 -61.5 24.75 -61.5 24.6 -61.65 24.45 -61.8 24.45 -62.0 L24.6 -62.35 M24.6 -58.35 L24.95 -58.5 25.3 -58.35 25.45 -58.0 25.3 -57.65 Q25.15 -57.5 24.95 -57.5 24.75 -57.5 24.6 -57.65 24.45 -57.8 24.45 -58.0 L24.6 -58.35 M24.6 -54.35 L24.95 -54.5 25.3 -54.35 25.45 -54.0 25.3 -53.65 Q25.15 -53.5 24.95 -53.5 24.75 -53.5 24.6 -53.65 24.45 -53.8 24.45 -54.0 L24.6 -54.35 M24.6 -50.35 L24.95 -50.5 25.3 -50.35 25.45 -50.0 25.3 -49.65 Q25.15 -49.5 24.95 -49.5 24.75 -49.5 24.6 -49.65 24.45 -49.8 24.45 -50.0 L24.6 -50.35 M24.6 -46.35 L24.95 -46.5 25.3 -46.35 25.45 -46.0 25.3 -45.65 Q25.15 -45.5 24.95 -45.5 24.75 -45.5 24.6 -45.65 24.45 -45.8 24.45 -46.0 L24.6 -46.35 M24.6 -42.35 L24.95 -42.5 25.3 -42.35 25.45 -42.0 25.3 -41.65 Q25.15 -41.5 24.95 -41.5 24.75 -41.5 24.6 -41.65 24.45 -41.8 24.45 -42.0 L24.6 -42.35 M24.6 -38.35 L24.95 -38.5 25.3 -38.35 25.45 -38.0 25.3 -37.65 Q25.15 -37.5 24.95 -37.5 24.75 -37.5 24.6 -37.65 24.45 -37.8 24.45 -38.0 L24.6 -38.35 M24.6 -34.35 L24.95 -34.5 25.3 -34.35 25.45 -34.0 25.3 -33.65 Q25.15 -33.5 24.95 -33.5 24.75 -33.5 24.6 -33.65 24.45 -33.8 24.45 -34.0 L24.6 -34.35 M24.6 -30.35 L24.95 -30.5 25.3 -30.35 25.45 -30.0 25.3 -29.65 Q25.15 -29.5 24.95 -29.5 24.75 -29.5 24.6 -29.65 24.45 -29.8 24.45 -30.0 L24.6 -30.35 M25.3 -26.35 L25.45 -26.0 25.3 -25.65 Q25.15 -25.5 24.95 -25.5 24.75 -25.5 24.6 -25.65 24.45 -25.8 24.45 -26.0 L24.6 -26.35 24.95 -26.5 25.3 -26.35 M24.6 -22.35 L24.95 -22.5 25.3 -22.35 25.45 -22.0 25.3 -21.65 Q25.15 -21.5 24.95 -21.5 24.75 -21.5 24.6 -21.65 24.45 -21.8 24.45 -22.0 L24.6 -22.35 M24.6 -18.35 L24.95 -18.5 25.3 -18.35 25.45 -18.0 25.3 -17.65 Q25.15 -17.5 24.95 -17.5 24.75 -17.5 24.6 -17.65 24.45 -17.8 24.45 -18.0 L24.6 -18.35 M24.6 -14.35 L24.95 -14.5 25.3 -14.35 25.45 -14.0 25.3 -13.65 Q25.15 -13.5 24.95 -13.5 24.75 -13.5 24.6 -13.65 24.45 -13.8 24.45 -14.0 L24.6 -14.35 M24.6 -10.35 L24.95 -10.5 25.3 -10.35 25.45 -10.0 25.3 -9.65 Q25.15 -9.5 24.95 -9.5 24.75 -9.5 24.6 -9.65 24.45 -9.8 24.45 -10.0 L24.6 -10.35 M24.95 -6.5 L25.3 -6.35 25.45 -6.0 25.3 -5.65 Q25.15 -5.5 24.95 -5.5 24.75 -5.5 24.6 -5.65 24.45 -5.8 24.45 -6.0 L24.6 -6.35 24.95 -6.5 M24.6 -2.35 L24.95 -2.5 25.3 -2.35 25.45 -2.0 25.3 -1.65 Q25.15 -1.5 24.95 -1.5 24.75 -1.5 24.6 -1.65 24.45 -1.8 24.45 -2.0 L24.6 -2.35 M25.3 1.65 L25.45 2.0 25.3 2.35 24.95 2.5 24.6 2.35 24.45 2.0 Q24.45 1.8 24.6 1.65 24.75 1.5 24.95 1.5 25.15 1.5 25.3 1.65 M25.3 5.65 L25.45 6.0 25.3 6.35 24.95 6.5 24.6 6.35 24.45 6.0 Q24.45 5.8 24.6 5.65 24.75 5.5 24.95 5.5 25.15 5.5 25.3 5.65 M25.3 9.65 L25.45 10.0 25.3 10.35 24.95 10.5 24.6 10.35 24.45 10.0 Q24.45 9.8 24.6 9.65 24.75 9.5 24.95 9.5 25.15 9.5 25.3 9.65 M24.6 13.65 Q24.75 13.5 24.95 13.5 25.15 13.5 25.3 13.65 L25.45 14.0 25.3 14.35 24.95 14.5 24.6 14.35 24.45 14.0 Q24.45 13.8 24.6 13.65 M25.3 17.65 L25.45 18.0 25.3 18.35 24.95 18.5 24.6 18.35 24.45 18.0 Q24.45 17.8 24.6 17.65 24.75 17.5 24.95 17.5 25.15 17.5 25.3 17.65 M24.6 21.65 Q24.75 21.5 24.95 21.5 25.15 21.5 25.3 21.65 L25.45 22.0 25.3 22.35 24.95 22.5 24.6 22.35 24.45 22.0 Q24.45 21.8 24.6 21.65 M24.6 25.65 Q24.75 25.5 24.95 25.5 25.15 25.5 25.3 25.65 L25.45 26.0 25.3 26.35 24.95 26.5 24.6 26.35 24.45 26.0 Q24.45 25.8 24.6 25.65 M25.3 29.65 L25.45 30.0 25.3 30.35 24.95 30.5 24.6 30.35 24.45 30.0 Q24.45 29.8 24.6 29.65 24.75 29.5 24.95 29.5 25.15 29.5 25.3 29.65 M25.3 33.65 L25.45 34.0 25.3 34.35 24.95 34.5 24.6 34.35 24.45 34.0 Q24.45 33.8 24.6 33.65 24.75 33.5 24.95 33.5 25.15 33.5 25.3 33.65 M24.6 37.65 Q24.75 37.5 24.95 37.5 25.15 37.5 25.3 37.65 L25.45 38.0 25.3 38.35 24.95 38.5 24.6 38.35 24.45 38.0 Q24.45 37.8 24.6 37.65 M25.3 41.65 L25.45 42.0 25.3 42.35 24.95 42.5 24.6 42.35 24.45 42.0 Q24.45 41.8 24.6 41.65 24.75 41.5 24.95 41.5 25.15 41.5 25.3 41.65 M25.3 45.65 L25.45 46.0 25.3 46.35 24.95 46.5 24.6 46.35 24.45 46.0 Q24.45 45.8 24.6 45.65 24.75 45.5 24.95 45.5 25.15 45.5 25.3 45.65 M24.6 49.65 Q24.75 49.5 24.95 49.5 25.15 49.5 25.3 49.65 L25.45 50.0 25.3 50.35 24.95 50.5 24.6 50.35 24.45 50.0 Q24.45 49.8 24.6 49.65 M25.3 53.65 L25.45 54.0 25.3 54.35 24.95 54.5 24.6 54.35 24.45 54.0 Q24.45 53.8 24.6 53.65 24.75 53.5 24.95 53.5 25.15 53.5 25.3 53.65 M24.6 57.65 Q24.75 57.5 24.95 57.5 25.15 57.5 25.3 57.65 L25.45 58.0 25.3 58.35 24.95 58.5 24.6 58.35 24.45 58.0 Q24.45 57.8 24.6 57.65 M25.3 61.65 L25.45 62.0 25.3 62.35 24.95 62.5 24.6 62.35 24.45 62.0 Q24.45 61.8 24.6 61.65 24.75 61.5 24.95 61.5 25.15 61.5 25.3 61.65" fill="#333333" fill-rule="evenodd" stroke="none"/>
  </g>
</svg>
