<?xml version="1.0" encoding="UTF-8" standalone="no"?>
<svg xmlns:xlink="http://www.w3.org/1999/xlink" height="2.0px" width="427.0px" xmlns="http://www.w3.org/2000/svg">
  <g transform="matrix(1.0, 0.0, 0.0, 1.0, 1.0, 1.0)">
    <path d="M0.7 -0.7 L1.0 0.0 0.7 0.7 0.0 1.0 -0.7 0.7 -1.0 0.0 -0.7 -0.7 0.0 -1.0 0.7 -0.7 M5.7 -0.7 L6.0 0.0 5.7 0.7 5.0 1.0 Q4.6 1.0 4.3 0.7 4.0 0.4 4.0 0.0 4.0 -0.4 4.3 -0.7 4.6 -1.0 5.0 -1.0 L5.7 -0.7 M10.7 -0.7 L11.0 0.0 10.7 0.7 10.0 1.0 Q9.6 1.0 9.3 0.7 9.0 0.4 9.0 0.0 9.0 -0.4 9.3 -0.7 9.6 -1.0 10.0 -1.0 L10.7 -0.7 M15.7 -0.7 L16.0 0.0 15.7 0.7 15.0 1.0 Q14.6 1.0 14.3 0.7 L14.0 0.0 14.3 -0.7 Q14.6 -1.0 15.0 -1.0 L15.7 -0.7 M20.0 -1.0 L20.7 -0.7 21.0 0.0 20.7 0.7 20.0 1.0 19.3 0.7 Q19.0 0.4 19.0 0.0 19.0 -0.4 19.3 -0.7 L20.0 -1.0 M40.0 -1.0 L40.7 -0.7 41.0 0.0 40.7 0.7 40.0 1.0 Q39.6 1.0 39.3 0.7 39.0 0.4 39.0 0.0 39.0 -0.4 39.3 -0.7 39.6 -1.0 40.0 -1.0 M35.0 -1.0 L35.7 -0.7 36.0 0.0 35.7 0.7 35.0 1.0 Q34.6 1.0 34.3 0.7 34.0 0.4 34.0 0.0 34.0 -0.4 34.3 -0.7 34.6 -1.0 35.0 -1.0 M30.0 -1.0 Q30.4 -1.0 30.7 -0.7 L31.0 0.0 30.7 0.7 Q30.4 1.0 30.0 1.0 L29.3 0.7 Q29.0 0.4 29.0 0.0 29.0 -0.4 29.3 -0.7 L30.0 -1.0 M25.0 -1.0 L25.7 -0.7 26.0 0.0 25.7 0.7 25.0 1.0 24.3 0.7 Q24.0 0.4 24.0 0.0 24.0 -0.4 24.3 -0.7 L25.0 -1.0 M45.7 -0.7 L46.0 0.0 45.7 0.7 45.0 1.0 Q44.6 1.0 44.3 0.7 44.0 0.4 44.0 0.0 44.0 -0.4 44.3 -0.7 44.6 -1.0 45.0 -1.0 L45.7 -0.7 M50.7 -0.7 L51.0 0.0 50.7 0.7 50.0 1.0 Q49.6 1.0 49.3 0.7 49.0 0.4 49.0 0.0 49.0 -0.4 49.3 -0.7 49.6 -1.0 50.0 -1.0 L50.7 -0.7 M55.7 -0.7 L56.0 0.0 55.7 0.7 Q55.4 1.0 55.0 1.0 L54.3 0.7 Q54.0 0.4 54.0 0.0 54.0 -0.4 54.3 -0.7 L55.0 -1.0 Q55.4 -1.0 55.7 -0.7 M60.7 -0.7 L61.0 0.0 60.7 0.7 Q60.4 1.0 60.0 1.0 L59.3 0.7 Q59.0 0.4 59.0 0.0 59.0 -0.4 59.3 -0.7 L60.0 -1.0 Q60.4 -1.0 60.7 -0.7 M80.0 -1.0 L80.7 -0.7 81.0 0.0 80.7 0.7 80.0 1.0 Q79.6 1.0 79.3 0.7 79.0 0.4 79.0 0.0 79.0 -0.4 79.3 -0.7 79.6 -1.0 80.0 -1.0 M75.0 -1.0 L75.7 -0.7 76.0 0.0 75.7 0.7 75.0 1.0 74.3 0.7 Q74.0 0.4 74.0 0.0 74.0 -0.4 74.3 -0.7 L75.0 -1.0 M70.0 -1.0 L70.7 -0.7 71.0 0.0 70.7 0.7 70.0 1.0 Q69.6 1.0 69.3 0.7 69.0 0.4 69.0 0.0 69.0 -0.4 69.3 -0.7 69.6 -1.0 70.0 -1.0 M65.0 -1.0 L65.7 -0.7 66.0 0.0 65.7 0.7 65.0 1.0 Q64.6 1.0 64.3 0.7 64.0 0.4 64.0 0.0 64.0 -0.4 64.3 -0.7 64.6 -1.0 65.0 -1.0 M85.7 -0.7 L86.0 0.0 85.7 0.7 85.0 1.0 Q84.6 1.0 84.3 0.7 84.0 0.4 84.0 0.0 84.0 -0.4 84.3 -0.7 84.6 -1.0 85.0 -1.0 L85.7 -0.7 M90.7 -0.7 L91.0 0.0 90.7 0.7 Q90.4 1.0 90.0 1.0 L89.3 0.7 89.0 0.0 89.3 -0.7 90.0 -1.0 Q90.4 -1.0 90.7 -0.7 M95.7 -0.7 L96.0 0.0 95.7 0.7 95.0 1.0 Q94.6 1.0 94.3 0.7 94.0 0.4 94.0 0.0 94.0 -0.4 94.3 -0.7 94.6 -1.0 95.0 -1.0 L95.7 -0.7 M100.7 -0.7 L101.0 0.0 100.7 0.7 100.0 1.0 99.3 0.7 Q99.0 0.4 99.0 0.0 99.0 -0.4 99.3 -0.7 L100.0 -1.0 100.7 -0.7 M120.0 -1.0 L120.7 -0.7 121.0 0.0 120.7 0.7 120.0 1.0 Q119.6 1.0 119.3 0.7 L119.0 0.0 119.3 -0.7 Q119.6 -1.0 120.0 -1.0 M115.0 -1.0 L115.7 -0.7 116.0 0.0 115.7 0.7 115.0 1.0 Q114.6 1.0 114.3 0.7 114.0 0.4 114.0 0.0 114.0 -0.4 114.3 -0.7 114.6 -1.0 115.0 -1.0 M110.0 -1.0 L110.7 -0.7 111.0 0.0 110.7 0.7 110.0 1.0 Q109.6 1.0 109.3 0.7 109.0 0.4 109.0 0.0 109.0 -0.4 109.3 -0.7 109.6 -1.0 110.0 -1.0 M105.0 -1.0 L105.7 -0.7 106.0 0.0 105.7 0.7 105.0 1.0 104.3 0.7 Q104.0 0.4 104.0 0.0 104.0 -0.4 104.3 -0.7 L105.0 -1.0 M125.7 -0.7 L126.0 0.0 125.7 0.7 125.0 1.0 124.3 0.7 Q124.0 0.4 124.0 0.0 124.0 -0.4 124.3 -0.7 L125.0 -1.0 125.7 -0.7 M130.7 -0.7 L131.0 0.0 130.7 0.7 130.0 1.0 129.3 0.7 Q129.0 0.4 129.0 0.0 129.0 -0.4 129.3 -0.7 L130.0 -1.0 130.7 -0.7 M135.7 -0.7 L136.0 0.0 135.7 0.7 Q135.4 1.0 135.0 1.0 L134.3 0.7 Q134.0 0.4 134.0 0.0 134.0 -0.4 134.3 -0.7 L135.0 -1.0 Q135.4 -1.0 135.7 -0.7 M140.7 -0.7 L141.0 0.0 140.7 0.7 140.0 1.0 Q139.6 1.0 139.3 0.7 139.0 0.4 139.0 0.0 139.0 -0.4 139.3 -0.7 139.6 -1.0 140.0 -1.0 L140.7 -0.7 M160.0 -1.0 Q160.4 -1.0 160.7 -0.7 L161.0 0.0 160.7 0.7 Q160.4 1.0 160.0 1.0 L159.3 0.7 Q159.0 0.4 159.0 0.0 159.0 -0.4 159.3 -0.7 L160.0 -1.0 M155.0 -1.0 L155.7 -0.7 156.0 0.0 155.7 0.7 155.0 1.0 Q154.6 1.0 154.3 0.7 154.0 0.4 154.0 0.0 154.0 -0.4 154.3 -0.7 154.6 -1.0 155.0 -1.0 M150.0 -1.0 L150.7 -0.7 151.0 0.0 150.7 0.7 150.0 1.0 Q149.6 1.0 149.3 0.7 149.0 0.4 149.0 0.0 149.0 -0.4 149.3 -0.7 149.6 -1.0 150.0 -1.0 M145.0 -1.0 L145.7 -0.7 146.0 0.0 145.7 0.7 145.0 1.0 Q144.6 1.0 144.3 0.7 144.0 0.4 144.0 0.0 144.0 -0.4 144.3 -0.7 144.6 -1.0 145.0 -1.0 M165.7 -0.7 L166.0 0.0 165.7 0.7 Q165.4 1.0 165.0 1.0 L164.3 0.7 Q164.0 0.4 164.0 0.0 164.0 -0.4 164.3 -0.7 L165.0 -1.0 Q165.4 -1.0 165.7 -0.7 M170.7 -0.7 L171.0 0.0 170.7 0.7 170.0 1.0 Q169.6 1.0 169.3 0.7 169.0 0.4 169.0 0.0 169.0 -0.4 169.3 -0.7 169.6 -1.0 170.0 -1.0 L170.7 -0.7 M175.7 -0.7 L176.0 0.0 175.7 0.7 175.0 1.0 Q174.6 1.0 174.3 0.7 174.0 0.4 174.0 0.0 174.0 -0.4 174.3 -0.7 174.6 -1.0 175.0 -1.0 L175.7 -0.7 M180.7 -0.7 L181.0 0.0 180.7 0.7 180.0 1.0 179.3 0.7 Q179.0 0.4 179.0 0.0 179.0 -0.4 179.3 -0.7 L180.0 -1.0 180.7 -0.7 M200.0 -1.0 L200.7 -0.7 201.0 0.0 200.7 0.7 200.0 1.0 Q199.6 1.0 199.3 0.7 199.0 0.4 199.0 0.0 199.0 -0.4 199.3 -0.7 199.6 -1.0 200.0 -1.0 M195.0 -1.0 Q195.4 -1.0 195.7 -0.7 L196.0 0.0 195.7 0.7 Q195.4 1.0 195.0 1.0 L194.3 0.7 194.0 0.0 194.3 -0.7 195.0 -1.0 M190.0 -1.0 L190.7 -0.7 191.0 0.0 190.7 0.7 190.0 1.0 Q189.6 1.0 189.3 0.7 189.0 0.4 189.0 0.0 189.0 -0.4 189.3 -0.7 189.6 -1.0 190.0 -1.0 M185.0 -1.0 L185.7 -0.7 186.0 0.0 185.7 0.7 185.0 1.0 Q184.6 1.0 184.3 0.7 184.0 0.4 184.0 0.0 184.0 -0.4 184.3 -0.7 184.6 -1.0 185.0 -1.0 M205.7 -0.7 L206.0 0.0 205.7 0.7 205.0 1.0 204.3 0.7 Q204.0 0.4 204.0 0.0 204.0 -0.4 204.3 -0.7 L205.0 -1.0 205.7 -0.7 M210.7 -0.7 L211.0 0.0 210.7 0.7 210.0 1.0 209.3 0.7 Q209.0 0.4 209.0 0.0 209.0 -0.4 209.3 -0.7 L210.0 -1.0 210.7 -0.7 M215.7 -0.7 L216.0 0.0 215.7 0.7 215.0 1.0 Q214.6 1.0 214.3 0.7 214.0 0.4 214.0 0.0 214.0 -0.4 214.3 -0.7 214.6 -1.0 215.0 -1.0 L215.7 -0.7 M220.7 -0.7 L221.0 0.0 220.7 0.7 220.0 1.0 Q219.6 1.0 219.3 0.7 219.0 0.4 219.0 0.0 219.0 -0.4 219.3 -0.7 219.6 -1.0 220.0 -1.0 L220.7 -0.7 M240.0 -1.0 Q240.4 -1.0 240.7 -0.7 L241.0 0.0 240.7 0.7 Q240.4 1.0 240.0 1.0 L239.3 0.7 Q239.0 0.4 239.0 0.0 239.0 -0.4 239.3 -0.7 L240.0 -1.0 M235.0 -1.0 L235.7 -0.7 236.0 0.0 235.7 0.7 235.0 1.0 234.3 0.7 Q234.0 0.4 234.0 0.0 234.0 -0.4 234.3 -0.7 L235.0 -1.0 M230.0 -1.0 L230.7 -0.7 231.0 0.0 230.7 0.7 230.0 1.0 229.3 0.7 Q229.0 0.4 229.0 0.0 229.0 -0.4 229.3 -0.7 L230.0 -1.0 M225.0 -1.0 L225.7 -0.7 226.0 0.0 225.7 0.7 225.0 1.0 Q224.6 1.0 224.3 0.7 L224.0 0.0 224.3 -0.7 Q224.6 -1.0 225.0 -1.0 M245.7 -0.7 L246.0 0.0 245.7 0.7 245.0 1.0 Q244.6 1.0 244.3 0.7 244.0 0.4 244.0 0.0 244.0 -0.4 244.3 -0.7 244.6 -1.0 245.0 -1.0 L245.7 -0.7 M250.7 -0.7 L251.0 0.0 250.7 0.7 250.0 1.0 Q249.6 1.0 249.3 0.7 249.0 0.4 249.0 0.0 249.0 -0.4 249.3 -0.7 249.6 -1.0 250.0 -1.0 L250.7 -0.7 M255.7 -0.7 L256.0 0.0 255.7 0.7 255.0 1.0 Q254.6 1.0 254.3 0.7 254.0 0.4 254.0 0.0 254.0 -0.4 254.3 -0.7 254.6 -1.0 255.0 -1.0 L255.7 -0.7 M260.7 -0.7 L261.0 0.0 260.7 0.7 260.0 1.0 Q259.6 1.0 259.3 0.7 259.0 0.4 259.0 0.0 259.0 -0.4 259.3 -0.7 259.6 -1.0 260.0 -1.0 L260.7 -0.7 M280.0 -1.0 L280.7 -0.7 281.0 0.0 280.7 0.7 280.0 1.0 Q279.6 1.0 279.3 0.7 279.0 0.4 279.0 0.0 279.0 -0.4 279.3 -0.7 279.6 -1.0 280.0 -1.0 M275.0 -1.0 L275.7 -0.7 276.0 0.0 275.7 0.7 275.0 1.0 Q274.6 1.0 274.3 0.7 274.0 0.4 274.0 0.0 274.0 -0.4 274.3 -0.7 274.6 -1.0 275.0 -1.0 M270.0 -1.0 Q270.4 -1.0 270.7 -0.7 L271.0 0.0 270.7 0.7 Q270.4 1.0 270.0 1.0 L269.3 0.7 Q269.0 0.4 269.0 0.0 269.0 -0.4 269.3 -0.7 L270.0 -1.0 M265.0 -1.0 Q265.4 -1.0 265.7 -0.7 L266.0 0.0 265.7 0.7 Q265.4 1.0 265.0 1.0 L264.3 0.7 Q264.0 0.4 264.0 0.0 264.0 -0.4 264.3 -0.7 L265.0 -1.0 M285.7 -0.7 L286.0 0.0 285.7 0.7 285.0 1.0 284.3 0.7 Q284.0 0.4 284.0 0.0 284.0 -0.4 284.3 -0.7 L285.0 -1.0 285.7 -0.7 M290.7 -0.7 L291.0 0.0 290.7 0.7 290.0 1.0 Q289.6 1.0 289.3 0.7 289.0 0.4 289.0 0.0 289.0 -0.4 289.3 -0.7 289.6 -1.0 290.0 -1.0 L290.7 -0.7 M295.7 -0.7 L296.0 0.0 295.7 0.7 295.0 1.0 Q294.6 1.0 294.3 0.7 294.0 0.4 294.0 0.0 294.0 -0.4 294.3 -0.7 294.6 -1.0 295.0 -1.0 L295.7 -0.7 M300.7 -0.7 L301.0 0.0 300.7 0.7 Q300.4 1.0 300.0 1.0 L299.3 0.7 299.0 0.0 299.3 -0.7 300.0 -1.0 Q300.4 -1.0 300.7 -0.7 M320.0 -1.0 L320.7 -0.7 321.0 0.0 320.7 0.7 320.0 1.0 Q319.6 1.0 319.3 0.7 319.0 0.4 319.0 0.0 319.0 -0.4 319.3 -0.7 319.6 -1.0 320.0 -1.0 M315.0 -1.0 L315.7 -0.7 316.0 0.0 315.7 0.7 315.0 1.0 314.3 0.7 Q314.0 0.4 314.0 0.0 314.0 -0.4 314.3 -0.7 L315.0 -1.0 M310.0 -1.0 L310.7 -0.7 311.0 0.0 310.7 0.7 310.0 1.0 309.3 0.7 Q309.0 0.4 309.0 0.0 309.0 -0.4 309.3 -0.7 L310.0 -1.0 M305.0 -1.0 L305.7 -0.7 306.0 0.0 305.7 0.7 305.0 1.0 Q304.6 1.0 304.3 0.7 304.0 0.4 304.0 0.0 304.0 -0.4 304.3 -0.7 304.6 -1.0 305.0 -1.0 M325.7 -0.7 L326.0 0.0 325.7 0.7 325.0 1.0 Q324.6 1.0 324.3 0.7 324.0 0.4 324.0 0.0 324.0 -0.4 324.3 -0.7 324.6 -1.0 325.0 -1.0 L325.7 -0.7 M330.7 -0.7 L331.0 0.0 330.7 0.7 330.0 1.0 Q329.6 1.0 329.3 0.7 L329.0 0.0 329.3 -0.7 Q329.6 -1.0 330.0 -1.0 L330.7 -0.7 M335.7 -0.7 L336.0 0.0 335.7 0.7 335.0 1.0 334.3 0.7 Q334.0 0.4 334.0 0.0 334.0 -0.4 334.3 -0.7 L335.0 -1.0 335.7 -0.7 M340.7 -0.7 L341.0 0.0 340.7 0.7 340.0 1.0 339.3 0.7 Q339.0 0.4 339.0 0.0 339.0 -0.4 339.3 -0.7 L340.0 -1.0 340.7 -0.7 M360.0 -1.0 L360.7 -0.7 361.0 0.0 360.7 0.7 360.0 1.0 Q359.6 1.0 359.3 0.7 359.0 0.4 359.0 0.0 359.0 -0.4 359.3 -0.7 359.6 -1.0 360.0 -1.0 M355.0 -1.0 L355.7 -0.7 356.0 0.0 355.7 0.7 355.0 1.0 Q354.6 1.0 354.3 0.7 354.0 0.4 354.0 0.0 354.0 -0.4 354.3 -0.7 354.6 -1.0 355.0 -1.0 M350.0 -1.0 L350.7 -0.7 351.0 0.0 350.7 0.7 350.0 1.0 Q349.6 1.0 349.3 0.7 349.0 0.4 349.0 0.0 349.0 -0.4 349.3 -0.7 349.6 -1.0 350.0 -1.0 M345.0 -1.0 Q345.4 -1.0 345.7 -0.7 L346.0 0.0 345.7 0.7 Q345.4 1.0 345.0 1.0 L344.3 0.7 Q344.0 0.4 344.0 0.0 344.0 -0.4 344.3 -0.7 L345.0 -1.0 M365.7 -0.7 L366.0 0.0 365.7 0.7 365.0 1.0 Q364.6 1.0 364.3 0.7 364.0 0.4 364.0 0.0 364.0 -0.4 364.3 -0.7 364.6 -1.0 365.0 -1.0 L365.7 -0.7 M370.7 -0.7 L371.0 0.0 370.7 0.7 Q370.4 1.0 370.0 1.0 L369.3 0.7 Q369.0 0.4 369.0 0.0 369.0 -0.4 369.3 -0.7 L370.0 -1.0 Q370.4 -1.0 370.7 -0.7 M375.7 -0.7 L376.0 0.0 375.7 0.7 Q375.4 1.0 375.0 1.0 L374.3 0.7 Q374.0 0.4 374.0 0.0 374.0 -0.4 374.3 -0.7 L375.0 -1.0 Q375.4 -1.0 375.7 -0.7 M380.7 -0.7 L381.0 0.0 380.7 0.7 380.0 1.0 Q379.6 1.0 379.3 0.7 379.0 0.4 379.0 0.0 379.0 -0.4 379.3 -0.7 379.6 -1.0 380.0 -1.0 L380.7 -0.7 M400.0 -1.0 L400.7 -0.7 401.0 0.0 400.7 0.7 400.0 1.0 Q399.6 1.0 399.3 0.7 399.0 0.4 399.0 0.0 399.0 -0.4 399.3 -0.7 399.6 -1.0 400.0 -1.0 M395.0 -1.0 L395.7 -0.7 396.0 0.0 395.7 0.7 395.0 1.0 Q394.6 1.0 394.3 0.7 394.0 0.4 394.0 0.0 394.0 -0.4 394.3 -0.7 394.6 -1.0 395.0 -1.0 M390.0 -1.0 L390.7 -0.7 391.0 0.0 390.7 0.7 390.0 1.0 389.3 0.7 Q389.0 0.4 389.0 0.0 389.0 -0.4 389.3 -0.7 L390.0 -1.0 M385.7 -0.7 L386.0 0.0 385.7 0.7 385.0 1.0 Q384.6 1.0 384.3 0.7 384.0 0.4 384.0 0.0 384.0 -0.4 384.3 -0.7 384.6 -1.0 385.0 -1.0 L385.7 -0.7 M405.7 -0.7 L406.0 0.0 405.7 0.7 Q405.4 1.0 405.0 1.0 L404.3 0.7 404.0 0.0 404.3 -0.7 405.0 -1.0 Q405.4 -1.0 405.7 -0.7 M410.7 -0.7 L411.0 0.0 410.7 0.7 410.0 1.0 Q409.6 1.0 409.3 0.7 409.0 0.4 409.0 0.0 409.0 -0.4 409.3 -0.7 409.6 -1.0 410.0 -1.0 L410.7 -0.7 M415.7 -0.7 L416.0 0.0 415.7 0.7 415.0 1.0 414.3 0.7 Q414.0 0.4 414.0 0.0 414.0 -0.4 414.3 -0.7 L415.0 -1.0 415.7 -0.7 M420.7 -0.7 L421.0 0.0 420.7 0.7 420.0 1.0 419.3 0.7 Q419.0 0.4 419.0 0.0 419.0 -0.4 419.3 -0.7 L420.0 -1.0 420.7 -0.7 M425.0 -1.0 L425.7 -0.7 426.0 0.0 425.7 0.7 425.0 1.0 Q424.6 1.0 424.3 0.7 424.0 0.4 424.0 0.0 424.0 -0.4 424.3 -0.7 424.6 -1.0 425.0 -1.0" fill="#333333" fill-rule="evenodd" stroke="none"/>
  </g>
</svg>
