<?xml version="1.0" encoding="UTF-8" standalone="no"?>
<svg xmlns:xlink="http://www.w3.org/1999/xlink" height="172.05px" width="340.1px" xmlns="http://www.w3.org/2000/svg">
  <g transform="matrix(1.0, 0.0, 0.0, 1.0, 3.0, 3.0)">
    <path d="M328.8 5.25 Q334.1 10.55 334.1 18.0 L334.1 148.05 Q334.1 155.5 328.8 160.75 323.55 166.05 316.1 166.05 L18.0 166.05 Q10.55 166.05 5.25 160.75 0.0 155.5 0.0 148.05 L0.0 18.0 Q0.0 10.55 5.25 5.25 10.55 0.0 18.0 0.0 L316.1 0.0 Q323.55 0.0 328.8 5.25" fill="#ffffff" fill-opacity="0.9019608" fill-rule="evenodd" stroke="none"/>
    <path d="M328.8 5.25 Q323.55 0.0 316.1 0.0 L18.0 0.0 Q10.55 0.0 5.25 5.25 0.0 10.55 0.0 18.0 L0.0 148.05 Q0.0 155.5 5.25 160.75 10.55 166.05 18.0 166.05 L316.1 166.05 Q323.55 166.05 328.8 160.75 334.1 155.5 334.1 148.05 L334.1 18.0 Q334.1 10.55 328.8 5.25 Z" fill="none" stroke="#003399" stroke-linecap="round" stroke-linejoin="round" stroke-width="6.0"/>
  </g>
</svg>
