<?xml version="1.0" encoding="UTF-8" standalone="no"?>
<svg xmlns:xlink="http://www.w3.org/1999/xlink" height="57.05px" width="99.05px" xmlns="http://www.w3.org/2000/svg">
  <g transform="matrix(1.0, 0.0, 0.0, 1.0, 3.0, 3.0)">
    <path d="M81.05 0.0 Q86.0 0.0 89.5 3.5 93.05 7.05 93.05 12.0 L93.05 39.05 Q93.05 44.0 89.5 47.5 86.0 51.05 81.05 51.05 L12.0 51.05 Q7.05 51.05 3.5 47.5 0.0 44.0 0.0 39.05 L0.0 12.0 Q0.0 7.05 3.5 3.5 7.05 0.0 12.0 0.0 L81.05 0.0" fill="#ffffff" fill-rule="evenodd" stroke="none"/>
    <path d="M81.05 0.0 L12.0 0.0 Q7.05 0.0 3.5 3.5 0.0 7.05 0.0 12.0 L0.0 39.05 Q0.0 44.0 3.5 47.5 7.05 51.05 12.0 51.05 L81.05 51.05 Q86.0 51.05 89.5 47.5 93.05 44.0 93.05 39.05 L93.05 12.0 Q93.05 7.05 89.5 3.5 86.0 0.0 81.05 0.0 Z" fill="none" stroke="#003399" stroke-linecap="round" stroke-linejoin="round" stroke-width="6.0"/>
  </g>
</svg>
