<?xml version="1.0" encoding="UTF-8" standalone="no"?>
<svg xmlns:xlink="http://www.w3.org/1999/xlink" height="117.0px" width="673.4px" xmlns="http://www.w3.org/2000/svg">
  <g transform="matrix(1.0, 0.0, 0.0, 1.0, 0.0, 0.0)">
    <path d="M90.15 21.85 Q95.2 23.75 99.45 28.5 104.2 33.85 106.9 41.8 113.8 42.1 119.8 43.8 125.25 45.35 129.05 47.6 132.6 49.8 133.5 51.95 134.45 54.15 132.3 55.5 140.3 56.5 145.7 57.9 150.8 59.2 150.8 60.15 150.85 61.15 145.05 61.1 L125.8 59.55 Q121.5 60.95 116.45 61.5 111.65 61.95 106.6 61.65 96.45 60.95 89.35 57.45 85.15 59.25 78.65 60.4 L64.5 61.55 Q56.35 61.45 49.45 59.8 41.65 57.9 36.3 54.15 28.0 56.6 18.0 52.55 13.45 50.7 9.6 47.85 5.75 44.95 3.3 41.55 0.75 37.95 0.15 34.4 -0.45 30.5 1.3 27.1 5.45 19.15 21.15 15.1 20.6 11.1 22.35 7.95 23.95 5.0 27.45 3.05 30.75 1.15 35.3 0.45 39.8 -0.3 44.8 0.25 49.9 0.85 54.75 2.7 59.9 4.6 64.1 7.8 73.75 14.95 76.4 26.5 77.8 22.65 81.65 21.35 85.45 20.1 90.15 21.85" fill="#ffffff" fill-rule="evenodd" stroke="none"/>
    <path d="M88.7 37.45 Q92.35 38.45 95.25 41.85 98.45 45.65 99.8 51.4 116.25 52.15 123.35 53.45 132.1 55.05 128.0 57.6 L147.3 60.15 Q150.2 60.65 149.85 60.85 L145.1 61.05 125.8 59.55 Q121.5 60.95 116.45 61.5 111.65 61.95 106.6 61.65 96.45 60.95 89.35 57.45 85.15 59.25 78.65 60.4 L64.5 61.55 Q56.35 61.45 49.45 59.8 41.65 57.9 36.3 54.15 28.2 56.55 20.1 53.8 16.5 52.65 13.65 50.65 10.85 48.65 9.25 46.3 7.6 43.9 7.55 41.55 7.5 39.0 9.25 36.95 13.35 32.2 25.5 31.15 25.0 27.2 26.6 24.05 28.1 21.15 31.35 19.25 34.45 17.4 38.7 16.75 42.9 16.15 47.6 16.75 52.45 17.45 57.0 19.35 61.9 21.4 65.85 24.6 75.0 31.9 77.7 43.45 79.05 39.65 82.15 38.05 85.15 36.45 88.7 37.45" fill="url(#gradient0)" fill-rule="evenodd" stroke="none"/>
    <path d="M244.0 28.1 Q245.95 30.45 244.7 32.35 251.35 33.1 254.65 36.2 256.05 37.45 256.5 38.9 256.95 40.25 256.5 41.35 258.75 41.75 260.1 42.65 261.35 43.45 261.6 44.45 261.8 45.45 261.0 46.4 260.1 47.35 258.3 48.0 264.5 49.55 267.6 51.0 268.95 51.6 269.35 52.05 269.7 52.5 269.0 52.65 267.45 53.0 261.85 51.95 255.35 50.65 245.65 47.8 239.7 49.1 234.65 47.65 230.2 46.45 228.1 43.6 209.55 45.85 194.25 31.65 189.1 29.95 185.6 27.5 182.45 25.25 181.0 22.6 179.7 20.1 180.1 17.7 180.5 15.35 182.45 13.6 184.45 11.75 187.65 11.05 191.1 10.25 195.35 10.9 205.35 12.3 216.7 20.75 L228.2 21.1 Q233.5 21.95 237.85 23.95 242.1 25.85 244.0 28.1" fill="#feffff" fill-rule="evenodd" stroke="none"/>
    <path d="M242.65 39.0 Q246.0 40.85 245.05 43.1 250.65 44.1 253.7 45.6 257.35 47.35 253.95 48.45 271.1 52.0 269.1 52.6 L262.1 52.0 Q255.5 50.7 245.65 47.8 239.7 49.1 234.65 47.65 230.2 46.45 228.1 43.6 209.55 45.85 194.25 31.65 188.3 29.9 186.8 26.85 186.1 25.5 186.6 24.3 187.05 23.1 188.55 22.35 L198.4 22.05 Q206.05 23.8 215.1 29.75 226.45 28.5 230.8 30.4 234.8 32.15 232.1 36.2 239.15 37.05 242.65 39.0" fill="url(#gradient1)" fill-rule="evenodd" stroke="none"/>
    <path d="M503.85 43.3 Q508.15 43.65 511.1 45.45 513.85 47.15 515.05 49.8 516.15 52.35 515.5 55.2 514.85 58.15 512.55 60.7 510.05 63.5 506.1 65.3 501.8 67.3 496.15 67.95 475.6 80.65 458.9 73.25 455.7 76.0 450.95 76.3 445.55 76.7 440.4 73.65 L423.25 74.3 Q417.5 74.15 416.2 73.3 415.55 72.9 416.1 72.5 416.6 72.05 418.2 71.7 421.75 70.8 428.35 70.55 426.85 69.4 426.4 68.0 426.0 66.75 426.7 65.6 427.35 64.45 428.9 63.85 430.55 63.15 432.85 63.25 432.85 61.8 433.85 60.35 434.9 58.8 436.75 57.7 441.2 54.95 447.85 55.7 447.45 53.15 450.35 50.95 453.1 48.75 457.9 47.65 462.9 46.45 468.35 46.8 474.35 47.15 479.4 49.35 493.75 42.35 503.85 43.3" fill="#feffff" fill-rule="evenodd" stroke="none"/>
    <path d="M458.2 63.5 Q457.35 58.05 461.9 57.05 466.85 55.95 477.1 60.35 488.25 55.65 496.25 55.6 502.9 55.55 505.45 58.5 506.6 59.8 506.5 61.3 506.45 62.85 505.3 64.25 504.05 65.7 501.8 66.65 499.35 67.7 496.15 67.95 475.6 80.65 458.9 73.25 455.7 76.0 450.95 76.3 445.55 76.7 440.4 73.65 L423.0 74.3 Q417.25 74.1 416.1 73.25 414.45 72.0 432.25 72.3 429.45 70.1 433.7 68.95 L442.95 68.25 Q443.0 65.4 447.0 64.1 451.15 62.7 458.2 63.5" fill="url(#gradient2)" fill-rule="evenodd" stroke="none"/>
    <path d="M644.4 9.55 Q654.1 14.4 659.55 24.05 664.65 33.2 663.15 42.9 661.85 51.55 655.75 58.55 649.95 65.2 642.35 67.65 634.45 70.25 628.05 66.95 620.2 74.85 612.15 79.95 604.65 84.7 597.8 86.55 591.25 88.35 586.25 87.2 581.3 86.1 578.7 82.35 571.75 89.15 565.05 92.9 559.05 96.25 553.95 96.85 549.25 97.4 546.2 95.55 543.2 93.7 542.6 90.1 532.5 93.85 527.9 93.7 525.95 93.7 525.35 92.9 524.8 92.15 525.5 90.85 527.05 88.1 532.55 84.9 538.75 81.35 546.4 79.35 548.2 68.85 552.95 63.05 558.55 56.15 566.8 57.95 569.05 50.55 573.7 47.4 578.4 44.2 585.1 45.5 591.65 27.8 602.4 17.55 612.1 8.4 623.75 6.5 629.15 5.65 634.45 6.45 639.65 7.2 644.4 9.55" fill="#feffff" fill-rule="evenodd" stroke="none"/>
    <path d="M635.8 29.85 Q639.7 31.5 642.9 34.1 646.05 36.65 648.0 39.7 651.45 45.2 651.4 51.6 651.3 57.65 648.15 62.35 644.95 67.2 639.9 68.6 634.3 70.15 628.05 66.95 620.2 74.85 612.15 79.95 604.65 84.7 597.8 86.55 591.25 88.35 586.25 87.2 581.3 86.1 578.7 82.35 571.75 89.15 565.05 92.9 559.05 96.25 553.95 96.85 549.25 97.4 546.2 95.55 543.2 93.7 542.6 90.1 533.9 93.3 529.25 93.7 L524.9 93.6 Q524.35 93.2 526.75 92.2 531.4 90.25 544.85 86.8 545.9 83.8 548.35 81.35 550.7 79.0 553.7 77.85 556.8 76.65 559.75 77.1 562.95 77.6 565.3 79.95 565.3 74.7 567.3 70.35 569.1 66.4 572.05 64.15 574.85 61.95 577.45 62.15 580.2 62.35 581.5 65.25 587.95 47.7 598.15 37.95 607.0 29.5 617.7 27.7 627.1 26.1 635.8 29.85" fill="url(#gradient3)" fill-rule="evenodd" stroke="none"/>
    <path d="M39.0 81.05 Q38.35 76.0 43.05 73.3 47.5 70.75 54.2 71.5 61.2 72.3 66.6 76.35 72.75 80.95 74.5 88.35 75.35 85.85 77.85 85.05 80.3 84.25 83.3 85.4 86.55 86.6 89.25 89.65 92.3 93.1 94.05 98.2 98.45 98.35 102.35 99.45 105.85 100.45 108.25 101.9 110.55 103.3 111.15 104.7 111.75 106.1 110.35 106.95 L118.95 108.5 Q122.2 109.35 122.25 109.95 122.25 110.6 118.55 110.55 L106.2 109.55 Q100.7 111.4 93.85 110.9 87.35 110.45 82.8 108.2 80.1 109.4 75.95 110.1 L66.85 110.85 Q55.35 110.75 48.75 106.15 L42.9 106.6 Q40.0 106.3 37.0 105.05 34.1 103.9 31.6 102.05 29.15 100.2 27.55 98.0 24.0 93.1 26.3 88.75 28.95 83.65 39.0 81.05" fill="#ffffff" fill-rule="evenodd" stroke="none"/>
    <path d="M41.8 91.35 Q41.15 86.3 45.55 83.7 49.7 81.25 56.0 82.1 62.6 83.0 67.75 87.15 73.55 91.85 75.3 99.25 76.15 96.8 78.15 95.75 80.1 94.75 82.35 95.35 84.7 96.0 86.55 98.25 88.6 100.65 89.5 104.35 L104.6 105.65 Q110.25 106.7 107.6 108.35 L120.0 109.95 Q121.85 110.25 121.6 110.4 L118.6 110.55 106.2 109.55 Q100.7 111.4 93.85 110.9 87.35 110.45 82.8 108.2 80.1 109.4 75.95 110.1 L66.85 110.85 Q55.35 110.75 48.75 106.15 43.55 107.65 38.35 105.9 36.05 105.15 34.2 103.85 32.4 102.6 31.4 101.05 30.35 99.5 30.3 98.0 30.25 96.4 31.4 95.1 34.0 92.0 41.8 91.35" fill="url(#gradient4)" fill-rule="evenodd" stroke="none"/>
    <path d="M636.85 84.9 Q641.35 84.75 645.55 86.5 654.75 78.15 662.4 78.15 665.65 78.15 668.2 79.75 670.6 81.2 671.95 83.75 673.3 86.25 673.4 89.25 673.55 92.3 672.35 95.15 671.1 98.15 668.55 100.35 665.75 102.8 661.75 103.95 649.15 118.65 635.3 112.65 633.5 115.75 630.0 116.5 626.1 117.35 621.7 114.7 614.15 116.5 609.15 116.9 L603.7 116.5 Q602.6 115.8 604.85 114.7 607.3 113.45 612.15 112.65 610.8 111.6 610.25 110.25 609.65 108.95 609.95 107.75 610.15 106.55 611.2 105.75 612.25 104.9 614.0 104.8 613.75 103.35 614.15 101.75 614.6 100.1 615.75 98.75 618.45 95.6 623.55 95.8 622.75 93.25 624.4 90.7 626.0 88.3 629.3 86.7 632.8 85.05 636.85 84.9" fill="#feffff" fill-rule="evenodd" stroke="none"/>
    <path d="M634.2 95.9 Q637.6 94.35 646.1 97.9 653.35 92.15 659.25 91.35 664.2 90.7 666.7 93.5 667.75 94.7 668.05 96.25 668.3 97.85 667.7 99.35 666.35 102.8 661.75 103.95 649.15 118.65 635.3 112.65 633.5 115.75 630.0 116.5 626.1 117.35 621.7 114.7 614.05 116.55 609.0 116.9 604.65 117.25 603.65 116.45 602.2 115.35 615.4 114.05 612.9 112.05 615.8 110.55 618.2 109.25 622.5 109.0 621.95 106.1 624.6 104.35 627.4 102.6 632.8 102.8 631.05 97.35 634.2 95.9" fill="url(#gradient5)" fill-rule="evenodd" stroke="none"/>
  </g>
  <defs>
    <linearGradient gradientTransform="matrix(0.0813, 0.0096, -0.0301, 0.0259, 78.7, 39.1)" gradientUnits="userSpaceOnUse" id="gradient0" spreadMethod="pad" x1="-819.2" x2="819.2">
      <stop offset="0.0" stop-color="#5de1ed"/>
      <stop offset="1.0" stop-color="#e6f6f9"/>
    </linearGradient>
    <linearGradient gradientTransform="matrix(0.0393, 0.0119, -0.0316, 0.0148, 227.8, 37.05)" gradientUnits="userSpaceOnUse" id="gradient1" spreadMethod="pad" x1="-819.2" x2="819.2">
      <stop offset="0.0" stop-color="#5de1ed"/>
      <stop offset="1.0" stop-color="#e6f6f9"/>
    </linearGradient>
    <linearGradient gradientTransform="matrix(-0.0536, 0.003, -0.0132, -0.0123, 461.3, 65.95)" gradientUnits="userSpaceOnUse" id="gradient2" spreadMethod="pad" x1="-819.2" x2="819.2">
      <stop offset="0.0" stop-color="#5de1ed"/>
      <stop offset="1.0" stop-color="#e6f6f9"/>
    </linearGradient>
    <linearGradient gradientTransform="matrix(-0.0703, 0.0175, -0.0318, -0.0387, 588.15, 62.0)" gradientUnits="userSpaceOnUse" id="gradient3" spreadMethod="pad" x1="-819.2" x2="819.2">
      <stop offset="0.0" stop-color="#5de1ed"/>
      <stop offset="1.0" stop-color="#e6f6f9"/>
    </linearGradient>
    <linearGradient gradientTransform="matrix(0.0534, 0.005, -0.0159, 0.0169, 75.95, 96.4)" gradientUnits="userSpaceOnUse" id="gradient4" spreadMethod="pad" x1="-819.2" x2="819.2">
      <stop offset="0.0" stop-color="#5de1ed"/>
      <stop offset="1.0" stop-color="#e6f6f9"/>
    </linearGradient>
    <linearGradient gradientTransform="matrix(-0.0383, 0.0037, -0.0092, -0.0152, 635.85, 104.1)" gradientUnits="userSpaceOnUse" id="gradient5" spreadMethod="pad" x1="-819.2" x2="819.2">
      <stop offset="0.0" stop-color="#5de1ed"/>
      <stop offset="1.0" stop-color="#e6f6f9"/>
    </linearGradient>
  </defs>
</svg>
