<?xml version="1.0" encoding="UTF-8" standalone="no"?>
<svg xmlns:xlink="http://www.w3.org/1999/xlink" height="205.55px" width="105.85px" xmlns="http://www.w3.org/2000/svg">
  <g transform="matrix(1.0, 0.0, 0.0, 1.0, -0.25, -0.3)">
    <path d="M86.2 19.75 L86.55 20.45 Q84.2 18.5 81.25 18.5 79.35 18.5 78.35 20.2 79.6 17.4 82.35 17.8 83.6 18.15 84.8 18.85 85.5 19.25 86.2 19.75 M89.0 26.6 L89.25 27.45 89.1 28.1 88.05 28.1 88.35 29.4 87.3 27.95 85.55 26.2 84.95 26.35 Q83.55 28.45 83.35 31.2 L83.25 32.1 Q83.0 28.4 84.25 25.05 L81.2 21.95 80.6 23.05 81.25 20.85 Q83.75 22.2 85.1 24.7 L88.85 27.15 89.0 26.6" fill="#192f54" fill-rule="evenodd" stroke="none"/>
    <path d="M86.2 19.75 Q85.5 19.25 84.8 18.85 83.6 18.15 82.35 17.8 79.6 17.4 78.35 20.2 79.35 18.5 81.25 18.5 84.2 18.5 86.55 20.45 L89.0 26.6 88.85 27.15 85.1 24.7 Q83.75 22.2 81.25 20.85 L80.6 23.05 81.2 21.95 84.25 25.05 Q83.0 28.4 83.25 32.1 L83.35 31.2 Q83.6 38.2 86.65 44.5 L87.4 45.8 91.05 43.0 90.55 37.2 89.7 32.55 88.05 28.1 89.1 28.1 89.25 27.45 Q90.5 31.4 91.3 35.85 L92.6 44.0 Q92.95 46.25 91.65 48.15 L91.35 48.45 Q87.85 49.4 84.95 51.35 77.5 38.35 73.0 23.8 72.2 21.25 70.2 19.3 67.85 17.05 65.0 18.4 61.6 20.05 59.5 23.45 58.8 24.6 59.3 25.85 59.9 27.4 61.75 27.05 L62.9 25.65 Q63.65 24.85 64.55 24.25 65.35 23.7 66.3 23.35 68.0 24.65 68.65 27.05 L70.15 32.8 76.25 57.05 Q67.65 58.25 59.4 61.6 51.5 64.9 42.9 64.15 L36.6 64.7 Q36.0 64.9 35.75 65.55 35.3 66.5 35.3 67.55 35.3 68.85 35.65 70.1 36.85 74.3 40.35 76.9 L41.15 79.3 Q36.05 76.1 34.2 70.3 L28.05 51.95 Q25.15 45.85 24.25 39.15 23.35 32.3 25.9 25.95 30.15 15.35 40.75 10.95 L39.6 10.35 Q41.1 6.75 43.8 4.35 48.1 0.65 53.9 1.25 59.2 1.8 61.9 5.95 L60.9 7.0 66.1 6.8 Q71.4 6.75 76.1 9.25 82.9 12.85 86.2 19.75 M85.45 72.6 L86.2 73.2 84.3 74.6 85.45 72.6 M38.0 112.55 Q39.3 114.35 39.05 115.65 38.8 117.05 37.2 117.4 35.65 117.7 33.3 116.4 28.65 111.85 27.0 107.0 25.35 102.1 26.75 97.8 27.65 95.0 29.9 92.75 29.35 96.0 30.45 97.9 31.2 99.15 32.3 99.95 31.85 102.0 32.7 104.75 33.4 106.95 35.25 109.35 L38.0 112.55 M76.4 97.2 L76.85 97.2 76.9 97.7 76.4 97.2 M76.9 97.8 L76.75 103.75 Q76.7 104.55 76.15 105.05 78.7 103.25 79.8 100.45 80.25 99.35 80.2 98.3 L90.65 104.15 Q89.55 109.2 85.65 112.45 81.85 115.55 77.0 115.55 74.1 115.55 71.7 113.8 67.45 110.5 65.85 105.3 67.6 100.6 72.3 98.85 74.5 98.0 76.9 97.8 M18.75 190.55 Q14.6 190.1 10.55 188.9 8.75 188.4 9.5 186.75 10.9 183.85 12.95 181.3 20.95 171.35 28.55 161.25 L35.3 151.85 36.2 152.45 36.45 153.45 Q37.3 156.9 40.15 158.85 33.5 166.85 28.6 176.0 L31.0 177.5 28.45 180.6 Q24.05 186.05 18.75 190.55 M31.6 176.8 L30.45 175.55 33.25 174.7 31.6 176.8 M49.0 173.1 Q55.6 173.9 60.4 178.65 62.35 180.65 63.35 183.3 L54.15 182.8 Q52.35 179.95 49.4 178.75 L49.7 179.05 Q51.95 180.45 53.15 182.8 L43.0 183.25 49.0 173.1" fill="#468fbc" fill-rule="evenodd" stroke="none"/>
    <path d="M86.55 20.45 L86.2 19.75 Q82.9 12.85 76.1 9.25 71.4 6.75 66.1 6.8 L60.9 7.0 61.9 5.95 Q59.2 1.8 53.9 1.25 48.1 0.65 43.8 4.35 41.1 6.75 39.6 10.35 L40.75 10.95 Q30.15 15.35 25.9 25.95 23.35 32.3 24.25 39.15 25.15 45.85 28.05 51.95 L27.35 51.95 29.85 59.0 Q26.3 51.15 24.0 42.8 22.15 36.15 23.5 29.5 L23.15 30.0 Q22.9 30.5 22.9 31.05 22.85 37.8 22.05 44.7 20.6 56.75 16.2 68.0 14.85 71.45 12.45 74.3 9.35 77.85 4.85 78.6 2.35 78.05 1.0 75.8 -0.1 70.55 3.6 66.4 L3.95 67.75 5.05 68.0 Q8.7 65.55 11.1 61.9 13.75 57.85 15.45 53.15 19.6 41.9 19.75 29.85 19.75 28.1 20.8 26.8 L21.35 26.65 Q22.8 26.65 23.95 27.65 L24.45 26.1 Q28.4 15.55 38.65 10.85 40.0 5.5 44.65 2.5 50.15 -0.95 56.4 1.0 60.45 2.25 62.85 5.7 70.4 5.0 77.25 8.6 83.35 11.95 86.55 18.25 90.35 25.65 91.9 33.95 96.55 32.5 101.1 34.7 102.9 35.55 103.35 37.55 104.15 40.95 100.55 41.65 97.2 39.35 93.0 39.2 L92.75 39.2 92.6 44.0 91.3 35.85 Q90.5 31.4 89.25 27.45 L89.0 26.6 86.55 20.45 M93.55 34.15 Q93.0 34.7 93.1 35.15 93.4 36.25 96.0 36.5 98.1 36.8 98.3 35.75 98.4 35.3 97.85 34.65 97.3 33.95 95.55 33.7 94.15 33.65 93.55 34.15 M97.05 67.35 L97.65 68.4 Q99.55 71.3 97.3 73.7 96.3 74.7 94.95 75.05 90.95 76.05 87.3 73.85 L86.2 73.2 85.45 72.6 Q79.45 67.45 77.1 60.0 L76.25 57.05 70.15 32.8 68.65 27.05 Q68.0 24.65 66.3 23.35 65.35 23.7 64.55 24.25 63.65 24.85 62.9 25.65 L61.75 27.05 Q59.9 27.4 59.3 25.85 58.8 24.6 59.5 23.45 61.6 20.05 65.0 18.4 67.85 17.05 70.2 19.3 72.2 21.25 73.0 23.8 77.5 38.35 84.95 51.35 L85.4 52.1 97.05 67.35 M82.25 65.95 Q83.8 68.65 86.35 70.4 89.3 72.45 92.7 72.4 95.05 72.35 96.35 70.65 L96.1 69.55 Q94.85 68.85 93.25 68.75 90.55 69.25 88.4 67.45 83.9 63.55 81.45 58.25 L74.25 40.15 74.15 40.65 Q74.35 44.25 75.15 47.6 77.45 57.35 82.25 65.95 M83.85 93.95 L83.45 91.15 88.3 102.05 86.9 101.2 83.85 93.95 M48.35 77.1 L49.15 75.45 49.95 74.4 Q53.75 70.9 59.05 71.8 L61.6 72.3 60.7 73.45 54.2 73.75 Q49.95 75.2 49.0 79.65 L48.0 85.2 Q46.0 97.35 42.8 109.15 L39.95 118.55 36.5 126.8 Q46.2 128.45 55.5 132.3 66.05 136.6 77.2 134.1 82.3 132.85 86.35 129.45 89.55 126.85 89.8 122.75 L89.95 116.85 Q89.8 113.7 89.3 110.45 L90.15 109.15 90.8 119.45 Q90.9 122.6 90.6 125.8 90.05 127.65 88.95 129.2 84.95 133.9 78.85 135.25 66.6 138.25 54.75 133.9 L48.5 131.65 Q43.05 129.65 37.15 129.05 L34.55 128.85 34.7 127.75 Q30.2 122.5 29.1 115.75 28.6 112.75 27.0 109.9 25.25 106.75 25.05 102.95 24.65 95.35 30.5 90.5 L29.9 92.75 Q27.65 95.0 26.75 97.8 25.35 102.1 27.0 107.0 28.65 111.85 33.3 116.4 35.65 117.7 37.2 117.4 38.8 117.05 39.05 115.65 39.3 114.35 38.0 112.55 L38.55 113.1 Q39.4 114.2 39.45 115.15 L40.0 113.45 40.6 111.35 37.7 110.7 36.9 109.75 38.9 109.5 Q40.1 108.0 41.75 107.25 L43.15 101.8 43.35 101.05 43.65 99.75 44.35 96.8 47.8 79.35 48.35 77.1 M35.25 109.35 Q33.4 106.95 32.7 104.75 31.85 102.0 32.3 99.95 L32.5 100.1 Q32.4 100.85 32.45 101.6 32.7 105.85 35.25 109.35 M40.95 110.2 L41.3 109.0 40.35 109.75 40.95 110.2 M31.1 116.0 Q30.6 119.0 33.45 120.55 35.4 121.55 37.5 120.95 L38.5 118.1 Q35.4 119.1 32.55 117.4 L31.1 116.0 M36.8 122.85 L32.75 121.8 35.6 125.75 36.8 122.85" fill="#0b0923" fill-rule="evenodd" stroke="none"/>
    <path d="M24.45 26.1 L23.95 27.65 Q22.8 26.65 21.35 26.65 L20.8 26.8 Q19.75 28.1 19.75 29.85 19.6 41.9 15.45 53.15 13.75 57.85 11.1 61.9 8.7 65.55 5.05 68.0 L3.95 67.75 3.6 66.4 Q-0.1 70.55 1.0 75.8 -0.8 71.15 1.7 66.7 3.35 63.75 5.9 61.45 10.2 57.55 12.65 52.25 14.7 47.85 16.05 43.45 18.2 36.6 18.45 29.2 18.5 26.8 20.4 25.5 L21.4 25.35 24.45 26.1 M93.55 34.15 Q94.15 33.65 95.55 33.7 97.3 33.95 97.85 34.65 98.4 35.3 98.3 35.75 98.1 36.8 96.0 36.5 93.4 36.25 93.1 35.15 93.0 34.7 93.55 34.15 M82.25 65.95 Q77.45 57.35 75.15 47.6 74.35 44.25 74.15 40.65 L74.25 40.15 81.45 58.25 Q83.9 63.55 88.4 67.45 90.55 69.25 93.25 68.75 94.85 68.85 96.1 69.55 L96.35 70.65 Q95.05 72.35 92.7 72.4 89.3 72.45 86.35 70.4 83.8 68.65 82.25 65.95" fill="#0f2953" fill-rule="evenodd" stroke="none"/>
    <path d="M87.3 27.95 L86.4 27.95 Q85.65 28.8 85.75 30.05 85.95 32.0 86.8 34.05 L88.25 33.2 87.35 35.45 89.0 38.55 90.55 37.2 91.05 43.0 87.4 45.8 86.65 44.5 Q83.6 38.2 83.35 31.2 83.55 28.45 84.95 26.35 L85.55 26.2 87.3 27.95 M89.7 32.55 L88.35 29.4 88.05 28.1 89.7 32.55 M37.7 110.7 L40.6 111.35 40.0 113.45 37.7 110.7 M40.95 110.2 L40.35 109.75 41.3 109.0 40.95 110.2 M31.1 116.0 L32.55 117.4 Q35.4 119.1 38.5 118.1 L37.5 120.95 Q35.4 121.55 33.45 120.55 30.6 119.0 31.1 116.0 M36.8 122.85 L35.6 125.75 32.75 121.8 36.8 122.85" fill="#ffffff" fill-rule="evenodd" stroke="none"/>
    <path d="M90.55 37.2 L89.0 38.55 87.35 35.45 88.25 33.2 86.8 34.05 Q85.95 32.0 85.75 30.05 85.65 28.8 86.4 27.95 L87.3 27.95 88.35 29.4 89.7 32.55 90.55 37.2" fill="#111111" fill-rule="evenodd" stroke="none"/>
    <path d="M92.6 44.0 L92.75 39.2 93.0 39.2 Q97.2 39.35 100.55 41.65 105.9 45.7 106.1 52.4 106.2 55.2 105.3 57.7 103.0 64.15 97.65 68.4 L97.05 67.35 Q103.1 62.9 105.0 55.65 105.65 53.2 104.95 50.65 103.95 46.75 100.9 43.85 97.65 40.8 93.25 40.05 93.85 42.85 93.4 45.5 93.05 47.35 92.0 48.9 89.2 49.5 86.9 51.1 L85.4 52.1 84.95 51.35 Q87.85 49.4 91.35 48.45 L91.65 48.15 Q92.95 46.25 92.6 44.0 M29.85 59.0 L27.35 51.95 28.05 51.95 34.2 70.3 Q36.05 76.1 41.15 79.3 L41.75 79.95 Q45.05 78.55 48.35 77.1 L47.8 79.35 40.35 82.75 34.75 87.05 Q31.05 90.55 31.35 95.6 31.5 98.5 34.15 99.75 38.5 101.85 43.35 101.05 L43.15 101.8 Q38.65 102.3 34.3 100.95 L33.45 100.6 32.5 100.1 32.3 99.95 Q31.2 99.15 30.45 97.9 29.35 96.0 29.9 92.75 L30.5 90.5 Q32.65 85.7 37.1 82.7 L40.3 80.75 Q35.6 77.5 33.65 72.15 32.45 68.8 31.6 65.1 L29.85 59.0 M84.3 74.6 L86.2 73.2 87.3 73.85 80.05 78.95 83.45 91.15 83.85 93.95 84.2 99.45 86.9 101.2 88.3 102.05 91.95 104.55 90.15 109.15 89.3 110.45 Q85.75 115.4 79.7 116.4 L73.6 116.25 Q68.75 114.65 66.4 110.15 61.5 108.5 60.9 103.45 60.35 98.9 60.15 94.3 L59.65 86.0 Q59.3 81.9 59.85 78.0 L60.7 73.45 61.6 72.3 63.0 71.05 63.05 67.85 64.0 68.45 63.95 70.4 Q67.0 68.6 70.75 68.4 74.35 68.8 76.5 71.95 78.6 75.05 79.85 78.45 L84.3 74.6 M61.35 97.8 L61.05 100.65 Q64.05 99.3 67.1 98.1 71.15 96.5 75.55 96.35 79.85 95.65 83.0 98.65 83.0 94.2 82.2 89.95 80.65 81.45 76.0 74.15 73.9 70.8 70.1 70.1 67.4 69.75 64.9 71.35 61.7 73.35 61.2 77.15 60.2 84.85 61.2 92.65 L61.35 97.8 M49.15 75.45 L49.25 68.95 50.0 68.25 49.95 74.4 49.15 75.45 M34.55 128.85 L37.15 129.05 Q34.3 132.5 34.35 137.05 L34.45 137.85 Q30.85 140.2 29.2 144.1 28.6 145.55 29.5 146.75 30.4 147.9 31.85 148.45 L33.8 149.3 36.25 150.45 Q39.05 146.7 42.55 143.6 L43.85 142.1 41.05 138.1 Q39.65 134.95 40.95 131.8 L41.5 130.7 42.2 130.55 Q41.0 136.3 44.9 140.3 46.05 141.45 47.8 141.7 46.6 143.65 44.95 145.05 L39.35 149.85 Q38.3 150.85 37.9 152.1 39.85 150.65 42.15 151.4 44.6 152.3 46.9 153.7 L53.8 158.35 Q59.45 162.35 66.25 163.55 67.95 163.9 69.6 163.1 73.6 161.0 76.55 157.65 85.7 147.25 88.15 133.65 L88.95 129.2 Q90.05 127.65 90.6 125.8 89.7 138.65 84.1 150.15 80.95 156.65 75.75 161.65 71.6 165.55 65.9 166.2 59.7 167.2 53.75 165.15 L54.45 163.95 Q59.3 165.35 64.2 164.55 L64.7 164.4 Q60.15 163.45 56.15 160.95 L55.25 160.45 47.45 155.4 46.3 154.7 Q43.7 152.8 40.7 152.3 L39.65 152.2 38.7 152.5 Q38.25 152.9 38.15 153.35 37.85 154.4 38.55 155.35 40.5 158.2 43.75 159.7 L43.05 160.8 41.55 159.85 30.5 174.6 34.2 173.45 33.25 174.7 30.45 175.55 31.6 176.8 31.0 177.5 28.6 176.0 Q33.5 166.85 40.15 158.85 37.3 156.9 36.45 153.45 L36.2 152.45 35.3 151.85 28.55 161.25 Q20.95 171.35 12.95 181.3 10.9 183.85 9.5 186.75 8.75 188.4 10.55 188.9 14.6 190.1 18.75 190.55 L17.45 191.9 12.7 191.25 7.4 189.75 Q6.0 189.4 5.9 188.15 5.8 186.95 6.6 185.95 20.5 168.8 33.95 151.1 31.45 150.15 29.15 148.85 27.75 148.05 27.05 146.85 26.75 146.3 26.8 145.75 27.4 140.25 32.35 137.5 L32.25 135.7 Q32.35 131.85 34.55 128.85 M76.9 97.7 L76.85 97.2 76.4 97.2 76.0 96.8 64.4 99.7 65.75 105.8 65.85 105.3 Q67.45 110.5 71.7 113.8 74.1 115.55 77.0 115.55 81.85 115.55 85.65 112.45 89.55 109.2 90.65 104.15 L80.2 98.3 Q80.25 99.35 79.8 100.45 78.7 103.25 76.15 105.05 76.7 104.55 76.75 103.75 L76.9 97.8 77.0 97.8 76.9 97.7 M78.05 97.2 L78.15 100.85 79.95 97.35 78.05 97.2 M62.2 101.15 Q61.05 102.4 61.45 104.25 L61.5 104.45 61.45 104.45 61.2 104.3 Q62.35 106.6 65.0 107.4 L63.0 100.45 62.2 101.15 M49.0 173.1 L49.65 172.0 52.05 172.5 Q61.1 174.9 64.95 183.6 L63.35 183.3 Q62.35 180.65 60.4 178.65 55.6 173.9 49.0 173.1 M54.15 182.8 L53.15 182.8 Q51.95 180.45 49.7 179.05 L49.4 178.75 Q52.35 179.95 54.15 182.8" fill="#000000" fill-rule="evenodd" stroke="none"/>
    <path d="M85.4 52.1 L86.9 51.1 Q89.2 49.5 92.0 48.9 93.05 47.35 93.4 45.5 93.85 42.85 93.25 40.05 97.65 40.8 100.9 43.85 103.95 46.75 104.95 50.65 105.65 53.2 105.0 55.65 103.1 62.9 97.05 67.35 L85.4 52.1" fill="#f5e36a" fill-rule="evenodd" stroke="none"/>
    <path d="M85.45 72.6 L84.3 74.6 79.85 78.45 Q78.6 75.05 76.5 71.95 74.35 68.8 70.75 68.4 67.0 68.6 63.95 70.4 L64.0 68.45 63.05 67.85 Q59.8 65.1 55.5 65.45 52.25 65.75 50.0 68.25 L49.25 68.95 49.15 75.45 48.35 77.1 Q45.05 78.55 41.75 79.95 L41.15 79.3 40.35 76.9 Q36.85 74.3 35.65 70.1 35.3 68.85 35.3 67.55 35.3 66.5 35.75 65.55 36.0 64.9 36.6 64.7 L42.9 64.15 Q51.5 64.9 59.4 61.6 67.65 58.25 76.25 57.05 L77.1 60.0 Q79.45 67.45 85.45 72.6 M76.4 97.2 L76.9 97.7 77.0 97.8 76.9 97.8 Q74.5 98.0 72.3 98.85 67.6 100.6 65.85 105.3 L65.75 105.8 64.4 99.7 76.0 96.8 76.4 97.2" fill="#226ca7" fill-rule="evenodd" stroke="none"/>
    <path d="M61.2 92.65 Q60.2 84.85 61.2 77.15 61.7 73.35 64.9 71.35 67.4 69.75 70.1 70.1 73.9 70.8 76.0 74.15 80.65 81.45 82.2 89.95 83.0 94.2 83.0 98.65 79.85 95.65 75.55 96.35 71.15 96.5 67.1 98.1 64.05 99.3 61.05 100.65 L61.35 97.8 Q69.7 92.4 79.5 91.4 L81.75 91.25 78.8 83.05 Q70.3 84.6 63.3 89.2 62.0 90.0 61.2 91.3 L61.2 92.65 M89.3 110.45 Q89.8 113.7 89.95 116.85 L89.8 115.0 Q82.55 119.45 74.1 118.9 65.95 118.1 59.3 113.35 57.05 111.75 54.65 110.85 49.0 108.7 42.8 109.15 46.0 97.35 48.0 85.2 L49.0 79.65 Q49.95 75.2 54.2 73.75 L60.7 73.45 59.85 78.0 Q59.3 81.9 59.65 86.0 L60.15 94.3 Q60.35 98.9 60.9 103.45 61.5 108.5 66.4 110.15 68.75 114.65 73.6 116.25 L79.7 116.4 Q85.75 115.4 89.3 110.45 M89.8 122.75 Q89.55 126.85 86.35 129.45 82.3 132.85 77.2 134.1 66.05 136.6 55.5 132.3 46.2 128.45 36.5 126.8 L39.95 118.55 Q46.6 118.95 52.75 121.35 55.35 122.35 57.9 123.5 65.5 126.95 73.7 127.65 82.75 128.1 89.8 122.75 M43.35 101.05 Q38.5 101.85 34.15 99.75 31.5 98.5 31.35 95.6 31.05 90.55 34.75 87.05 33.0 91.5 35.35 95.55 L36.75 97.2 Q39.75 99.6 43.65 99.75 L43.35 101.05 M40.35 82.75 L47.8 79.35 44.35 96.8 Q41.0 96.4 38.7 93.8 37.65 92.6 37.6 91.05 37.45 86.4 40.35 82.75 M78.05 97.2 L79.95 97.35 78.15 100.85 78.05 97.2 M86.9 101.2 L84.2 99.45 83.85 93.95 86.9 101.2" fill="#f7bd1d" fill-rule="evenodd" stroke="none"/>
    <path d="M61.35 97.8 L61.2 92.65 61.2 91.3 Q62.0 90.0 63.3 89.2 70.3 84.6 78.8 83.05 L81.75 91.25 79.5 91.4 Q69.7 92.4 61.35 97.8 M89.95 116.85 L89.8 122.75 Q82.75 128.1 73.7 127.65 65.5 126.95 57.9 123.5 55.35 122.35 52.75 121.35 46.6 118.95 39.95 118.55 L42.8 109.15 Q49.0 108.7 54.65 110.85 57.05 111.75 59.3 113.35 65.95 118.1 74.1 118.9 82.55 119.45 89.8 115.0 L89.95 116.85 M34.75 87.05 L40.35 82.75 Q37.45 86.4 37.6 91.05 37.65 92.6 38.7 93.8 41.0 96.4 44.35 96.8 L43.65 99.75 Q39.75 99.6 36.75 97.2 L35.35 95.55 Q33.0 91.5 34.75 87.05" fill="#e21f08" fill-rule="evenodd" stroke="none"/>
    <path d="M50.0 68.25 Q52.25 65.75 55.5 65.45 59.8 65.1 63.05 67.85 L63.0 71.05 61.6 72.3 59.05 71.8 Q53.75 70.9 49.95 74.4 L50.0 68.25" fill="#19519d" fill-rule="evenodd" stroke="none"/>
    <path d="M62.2 101.15 L63.0 100.45 65.0 107.4 Q62.35 106.6 61.2 104.3 L61.45 104.45 61.5 104.45 61.45 104.25 Q61.05 102.4 62.2 101.15" fill="#d49330" fill-rule="evenodd" stroke="none"/>
    <path d="M37.15 129.05 Q43.05 129.65 48.5 131.65 L54.75 133.9 Q66.6 138.25 78.85 135.25 84.95 133.9 88.95 129.2 L88.15 133.65 Q85.7 147.25 76.55 157.65 73.6 161.0 69.6 163.1 67.95 163.9 66.25 163.55 59.45 162.35 53.8 158.35 L46.9 153.7 Q44.6 152.3 42.15 151.4 39.85 150.65 37.9 152.1 38.3 150.85 39.35 149.85 L44.95 145.05 Q46.6 143.65 47.8 141.7 46.05 141.45 44.9 140.3 41.0 136.3 42.2 130.55 L41.5 130.7 40.95 131.8 Q39.65 134.95 41.05 138.1 L36.85 136.9 Q38.7 137.85 39.6 139.8 40.0 140.75 39.6 141.55 37.5 145.55 33.5 147.55 L33.8 149.3 31.85 148.45 Q30.4 147.9 29.5 146.75 28.6 145.55 29.2 144.1 30.85 140.2 34.45 137.85 L34.35 137.05 Q34.3 132.5 37.15 129.05 M38.15 153.35 Q38.25 152.9 38.7 152.5 L39.65 152.2 Q38.45 152.6 38.15 153.35" fill="#582d83" fill-rule="evenodd" stroke="none"/>
    <path d="M41.05 138.1 L43.85 142.1 42.55 143.6 Q39.05 146.7 36.25 150.45 L33.8 149.3 33.5 147.55 Q37.5 145.55 39.6 141.55 40.0 140.75 39.6 139.8 38.7 137.85 36.85 136.9 L41.05 138.1 M38.15 153.35 Q38.45 152.6 39.65 152.2 L40.7 152.3 Q43.7 152.8 46.3 154.7 45.6 156.6 43.75 159.7 40.5 158.2 38.55 155.35 37.85 154.4 38.15 153.35 M56.15 160.95 Q60.15 163.45 64.7 164.4 L64.2 164.55 Q59.3 165.35 54.45 163.95 L56.15 160.95" fill="#2c1838" fill-rule="evenodd" stroke="none"/>
    <path d="M38.0 112.55 L35.25 109.35 Q32.7 105.85 32.45 101.6 32.4 100.85 32.5 100.1 L33.45 100.6 Q33.0 103.0 34.45 106.0 35.35 107.85 36.9 109.75 L37.7 110.7 40.0 113.45 39.45 115.15 Q39.4 114.2 38.55 113.1 L38.0 112.55" fill="#0d0733" fill-rule="evenodd" stroke="none"/>
    <path d="M46.3 154.7 L47.45 155.4 Q42.15 166.7 34.05 176.1 L27.9 183.1 20.45 191.2 Q18.75 193.0 17.4 195.1 16.5 196.5 17.0 197.85 17.75 200.0 19.9 200.7 25.95 202.2 32.15 203.0 L50.1 204.4 56.6 203.7 Q57.75 202.6 57.55 201.15 57.25 198.55 55.85 196.15 L53.85 193.55 52.95 192.75 54.5 193.45 Q56.4 194.55 57.45 196.7 L58.65 199.65 Q59.3 201.55 58.25 203.2 L57.45 204.5 Q63.35 204.65 69.1 203.25 L69.75 203.0 Q71.05 201.5 70.7 199.55 70.0 195.75 67.2 193.25 64.95 191.35 62.15 189.85 L63.25 190.0 Q65.3 190.8 67.2 192.0 70.95 194.35 72.3 198.3 73.3 201.2 71.2 203.25 75.85 202.8 78.1 198.7 78.55 197.85 78.6 196.85 78.65 194.7 77.45 193.0 75.25 189.95 71.9 188.1 65.85 184.8 58.95 184.85 50.55 184.2 42.15 184.7 L35.45 185.3 40.95 183.9 Q48.7 172.55 55.25 160.45 L56.15 160.95 54.45 163.95 53.75 165.15 49.65 172.0 49.0 173.1 43.0 183.25 53.15 182.8 54.15 182.8 63.35 183.3 64.95 183.6 Q72.7 185.15 77.95 191.1 80.4 193.9 80.05 197.7 79.85 199.85 78.1 201.2 73.9 204.5 68.4 205.05 L53.6 205.8 Q40.5 205.45 27.4 203.55 22.85 203.0 18.55 201.7 15.5 200.8 14.9 198.0 14.6 196.55 15.3 195.05 16.15 193.35 17.45 191.9 L18.75 190.55 Q24.05 186.05 28.45 180.6 L31.0 177.5 31.6 176.8 33.25 174.7 34.2 173.45 43.05 160.8 43.75 159.7 Q45.6 156.6 46.3 154.7" fill="#0b1a27" fill-rule="evenodd" stroke="none"/>
    <path d="M47.45 155.4 L55.25 160.45 Q48.7 172.55 40.95 183.9 L35.45 185.3 42.15 184.7 Q50.55 184.2 58.95 184.85 65.85 184.8 71.9 188.1 75.25 189.95 77.45 193.0 78.65 194.7 78.6 196.85 78.55 197.85 78.1 198.7 75.85 202.8 71.2 203.25 73.3 201.2 72.3 198.3 70.95 194.35 67.2 192.0 65.3 190.8 63.25 190.0 L62.15 189.85 Q64.95 191.35 67.2 193.25 70.0 195.75 70.7 199.55 71.05 201.5 69.75 203.0 L69.1 203.25 Q63.35 204.65 57.45 204.5 L58.25 203.2 Q59.3 201.55 58.65 199.65 L57.45 196.7 Q56.4 194.55 54.5 193.45 L52.95 192.75 53.85 193.55 55.85 196.15 Q57.25 198.55 57.55 201.15 57.75 202.6 56.6 203.7 L50.1 204.4 32.15 203.0 Q25.95 202.2 19.9 200.7 17.75 200.0 17.0 197.85 16.5 196.5 17.4 195.1 18.75 193.0 20.45 191.2 L27.9 183.1 34.05 176.1 Q42.15 166.7 47.45 155.4" fill="#378bba" fill-rule="evenodd" stroke="none"/>
  </g>
</svg>
