<?xml version="1.0" encoding="UTF-8" standalone="no"?>
<svg xmlns:xlink="http://www.w3.org/1999/xlink" height="203.25px" width="270.9px" xmlns="http://www.w3.org/2000/svg">
  <g transform="matrix(1.0, 0.0, 0.0, 1.0, -45.2, -65.9)">
    <path d="M293.5 189.25 L293.55 189.15 293.5 189.25 M295.75 188.1 L293.8 188.25 Q292.55 188.85 292.3 190.3 L292.45 191.4 Q292.85 193.35 294.75 193.45 297.6 193.15 297.05 190.1 L296.55 188.7 295.75 188.1 M298.35 181.85 L310.35 207.95 307.1 255.15 294.15 267.65 139.6 267.35 117.5 266.9 298.35 181.85 M80.35 142.5 L127.95 107.1 150.35 68.4 209.35 71.55 232.0 104.95 80.35 142.5 M221.35 100.3 Q219.6 99.55 218.35 101.05 217.9 101.6 217.95 102.55 L218.15 103.9 Q218.9 106.25 221.2 105.4 223.2 104.5 222.6 102.05 L222.15 100.9 222.05 101.9 222.05 101.85 222.1 100.9 221.35 100.3 M157.05 71.8 Q156.05 71.25 154.95 71.25 151.0 71.85 150.45 75.75 L150.45 77.5 Q150.3 78.05 151.35 79.8 L152.75 80.9 Q154.85 82.1 156.8 81.1 160.1 79.55 159.55 75.7 L158.7 73.15 157.95 74.0 157.35 73.5 157.35 71.95 156.5 72.85 157.3 71.95 157.05 71.8 M115.3 127.6 L114.5 126.65 Q113.05 126.65 112.0 127.3 111.0 127.9 111.0 128.8 110.95 129.85 111.45 130.8 112.1 132.05 113.45 132.0 114.65 132.0 115.35 131.05 116.05 130.0 115.75 128.8 L115.3 127.25 115.3 127.6 M112.55 127.6 L112.25 127.75 112.15 127.8 112.55 127.6 M101.4 130.0 Q99.6 129.3 98.4 130.75 97.8 131.4 97.9 132.2 97.9 133.55 98.6 134.5 99.3 135.4 100.35 135.4 101.3 135.4 102.0 134.45 102.7 133.45 102.65 132.15 L102.15 130.6 102.15 130.95 101.4 130.0 M99.05 131.2 L99.45 131.0 99.15 131.15 99.05 131.2" fill="#9c9c9c" fill-rule="evenodd" stroke="none"/>
    <path d="M292.3 190.3 L292.75 191.35 Q292.75 190.3 293.5 189.25 292.8 190.3 292.75 191.35 L293.1 191.75 293.35 191.8 293.05 191.8 Q293.7 192.35 294.7 192.4 296.8 192.2 297.05 190.1 297.6 193.15 294.75 193.45 292.85 193.35 292.45 191.4 L292.3 190.3 M139.6 267.35 L294.15 267.65 307.1 255.15 310.35 207.95 298.35 181.85 278.0 137.6 232.0 104.95 209.35 71.55 150.35 68.4 127.95 107.1 80.35 142.5 52.2 201.5 48.45 250.85 70.1 267.65 139.6 267.35 M296.95 269.15 L68.1 269.15 45.2 253.15 49.35 200.25 75.75 139.1 126.8 104.35 148.25 65.9 214.9 67.65 236.15 103.85 284.1 134.8 316.1 206.1 311.05 258.15 296.95 269.15 M222.05 101.85 L222.05 101.9 221.95 102.25 222.05 101.85 M222.6 102.05 Q223.2 104.5 221.2 105.4 218.9 106.25 218.15 103.9 L217.95 102.55 218.3 103.55 218.9 104.0 Q218.95 104.55 220.6 104.65 222.8 104.25 222.6 102.05 M151.35 78.2 L156.5 72.85 157.35 71.95 157.35 73.5 151.35 79.8 151.35 78.2 M159.55 75.7 Q160.1 79.55 156.8 81.1 154.85 82.1 152.75 80.9 L152.75 79.4 Q153.8 80.0 155.05 80.05 159.15 79.7 159.55 75.7 M115.75 128.8 Q116.05 130.0 115.35 131.05 114.65 132.0 113.45 132.0 112.1 132.05 111.45 130.8 110.95 129.85 111.0 128.8 L111.4 129.9 Q111.45 128.8 112.15 127.8 L112.25 127.75 Q111.5 128.8 111.4 129.9 L111.8 130.3 Q112.45 130.9 113.4 130.9 115.45 130.75 115.75 128.8 M97.9 132.2 Q97.95 132.8 98.3 133.3 98.35 132.2 99.05 131.2 L99.15 131.15 Q98.4 132.2 98.3 133.3 L98.7 133.7 Q99.3 134.25 100.3 134.3 102.35 134.1 102.65 132.15 102.7 133.45 102.0 134.45 101.3 135.4 100.35 135.4 99.3 135.4 98.6 134.5 97.9 133.55 97.9 132.2 M59.9 237.65 L60.75 236.75 60.75 238.25 54.8 244.55 54.75 244.55 54.75 242.95 59.9 237.65 M62.95 240.45 Q63.4 243.2 61.45 245.0 59.0 247.25 56.15 245.55 L56.15 244.2 Q57.2 244.8 58.45 244.8 62.6 244.45 62.95 240.45" fill="#47525f" fill-rule="evenodd" stroke="none"/>
    <path d="M293.55 189.15 L295.75 188.1 296.55 188.7 Q296.55 190.0 295.65 190.9 294.7 191.8 293.4 191.8 L293.35 191.8 293.1 191.75 292.75 191.35 Q292.8 190.3 293.5 189.25 L293.55 189.15 M221.35 100.3 L222.1 100.9 222.05 101.85 221.95 102.25 Q221.95 102.95 221.1 103.45 220.2 104.0 218.9 104.0 L218.3 103.55 Q218.35 102.4 219.2 101.2 220.2 100.4 221.35 100.3 M151.1 77.8 Q152.0 73.55 156.45 72.0 L157.05 71.8 157.3 71.95 156.5 72.85 151.35 78.2 151.1 77.8 M114.5 126.65 L115.3 127.6 Q115.3 128.7 114.25 129.55 113.25 130.3 111.8 130.3 L111.4 129.9 Q111.5 128.8 112.25 127.75 L112.55 127.6 114.5 126.65 M99.45 131.0 L101.4 130.0 102.15 130.95 Q102.15 132.1 101.15 132.9 100.15 133.7 98.7 133.7 L98.3 133.3 Q98.4 132.2 99.15 131.15 L99.45 131.0 M54.5 242.55 Q55.4 238.3 59.85 236.75 L60.45 236.55 60.7 236.75 59.9 237.65 54.75 242.95 54.5 242.55" fill="#d0cfd0" fill-rule="evenodd" stroke="none"/>
    <path d="M293.55 189.15 L293.5 189.25 Q292.75 190.3 292.75 191.35 L292.3 190.3 Q292.55 188.85 293.8 188.25 L295.75 188.1 293.55 189.15 M217.95 102.55 Q217.9 101.6 218.35 101.05 219.6 99.55 221.35 100.3 220.2 100.4 219.2 101.2 218.35 102.4 218.3 103.55 L217.95 102.55 M157.05 71.8 L156.45 72.0 Q152.0 73.55 151.1 77.8 150.5 76.85 150.45 75.75 151.0 71.85 154.95 71.25 156.05 71.25 157.05 71.8 M111.0 128.8 Q111.0 127.9 112.0 127.3 113.05 126.65 114.5 126.65 L112.55 127.6 112.15 127.8 Q111.45 128.8 111.4 129.9 L111.0 128.8 M97.9 132.2 Q97.8 131.4 98.4 130.75 99.6 129.3 101.4 130.0 L99.45 131.0 99.05 131.2 Q98.35 132.2 98.3 133.3 97.95 132.8 97.9 132.2 M53.85 240.5 Q54.2 237.7 56.6 236.6 58.55 235.65 60.45 236.55 L59.85 236.75 Q55.4 238.3 54.5 242.55 53.95 241.6 53.85 240.5" fill="#e9e9eb" fill-rule="evenodd" stroke="none"/>
    <path d="M297.05 190.1 Q296.8 192.2 294.7 192.4 293.7 192.35 293.05 191.8 L293.35 191.8 293.4 191.8 Q294.7 191.8 295.65 190.9 296.55 190.0 296.55 188.7 L297.05 190.1 M222.05 101.9 L222.15 100.9 222.6 102.05 Q222.8 104.25 220.6 104.65 218.95 104.55 218.9 104.0 220.2 104.0 221.1 103.45 221.95 102.95 221.95 102.25 L222.05 101.9 M158.7 73.15 L159.55 75.7 Q159.15 79.7 155.05 80.05 153.8 80.0 152.75 79.4 157.25 79.7 158.55 75.7 158.9 74.5 158.7 73.15 M115.3 127.6 L115.3 127.25 115.75 128.8 Q115.45 130.75 113.4 130.9 112.45 130.9 111.8 130.3 113.25 130.3 114.25 129.55 115.3 128.7 115.3 127.6 M102.15 130.95 L102.15 130.6 102.65 132.15 Q102.35 134.1 100.3 134.3 99.3 134.25 98.7 133.7 100.15 133.7 101.15 132.9 102.15 132.1 102.15 130.95 M56.15 244.2 Q58.6 244.4 60.35 242.85 62.6 240.85 62.1 237.95 L62.95 240.45 Q62.6 244.45 58.45 244.8 57.2 244.8 56.15 244.2" fill="#b0aeb3" fill-rule="evenodd" stroke="none"/>
    <path d="M298.35 181.85 L117.5 266.9 139.6 267.35 70.1 267.65 48.45 250.85 52.2 201.5 80.35 142.5 232.0 104.95 278.0 137.6 298.35 181.85 M157.95 74.0 L158.7 73.15 Q158.9 74.5 158.55 75.7 157.25 79.7 152.75 79.4 L157.95 74.0 M60.45 236.55 Q58.55 235.65 56.6 236.6 54.2 237.7 53.85 240.5 L53.85 242.25 Q53.7 242.85 54.75 244.55 L54.8 244.55 56.15 245.55 Q59.0 247.25 61.45 245.0 63.4 243.2 62.95 240.45 L62.1 237.95 Q62.6 240.85 60.35 242.85 58.6 244.4 56.15 244.2 L61.35 238.7 60.75 238.25 60.75 236.75 59.9 237.65 60.7 236.75 60.45 236.55" fill="#bab9ba" fill-rule="evenodd" stroke="none"/>
    <path d="M152.75 80.9 L151.35 79.8 157.35 73.5 157.95 74.0 152.75 79.4 152.75 80.9 M60.75 238.25 L61.35 238.7 56.15 244.2 56.15 245.55 54.8 244.55 60.75 238.25" fill="#57565b" fill-rule="evenodd" stroke="none"/>
    <path d="M150.45 75.75 Q150.5 76.85 151.1 77.8 L151.35 78.2 151.35 79.8 Q150.3 78.05 150.45 77.5 L150.45 75.75 M53.85 240.5 Q53.95 241.6 54.5 242.55 L54.75 242.95 54.75 244.55 Q53.7 242.85 53.85 242.25 L53.85 240.5" fill="#79818b" fill-rule="evenodd" stroke="none"/>
  </g>
</svg>
