<?xml version="1.0" encoding="UTF-8" standalone="no"?>
<svg xmlns:xlink="http://www.w3.org/1999/xlink" height="34.3px" width="46.75px" xmlns="http://www.w3.org/2000/svg">
  <g transform="matrix(1.0, 0.0, 0.0, 1.0, 0.0, 0.0)">
    <path d="M45.65 15.2 Q44.8 13.05 43.5 12.9 42.2 12.75 40.8 13.95 39.45 15.15 38.4 16.95 37.35 18.7 35.95 19.5 34.6 20.35 33.55 20.6 L32.45 20.8 Q32.95 18.45 32.55 15.4 32.15 12.3 31.1 9.5 30.1 6.7 28.7 5.1 27.35 3.45 25.9 3.95 24.8 4.45 24.15 6.05 23.5 7.7 23.2 9.85 L22.8 14.0 22.75 17.4 22.8 18.8 22.0 17.65 Q21.25 16.55 20.6 14.6 19.9 12.6 20.15 9.95 20.4 7.8 20.1 5.6 19.85 3.45 18.9 2.25 18.0 1.0 16.3 1.65 14.45 2.45 13.35 4.5 12.25 6.5 11.75 9.2 11.25 11.85 11.2 14.7 11.15 17.5 11.45 19.9 11.75 22.25 12.8 23.15 13.85 24.1 15.25 24.4 L17.95 25.15 Q19.3 25.6 20.15 26.9 21.25 28.7 22.8 29.8 24.35 30.9 26.0 31.1 27.65 31.3 29.1 30.55 30.85 29.65 31.95 29.55 L33.95 29.7 35.9 29.9 Q36.95 29.85 38.65 29.0 41.0 27.75 42.9 25.35 44.75 22.95 45.6 20.2 46.45 17.45 45.65 15.2 M46.35 14.85 Q47.15 17.35 46.25 20.55 45.3 23.75 43.35 26.55 41.4 29.4 39.05 30.7 37.35 31.6 36.3 31.6 L34.3 31.4 33.2 31.2 31.65 32.45 Q29.95 33.6 27.75 34.1 L23.0 33.9 Q19.7 32.85 18.2 30.7 16.65 28.55 16.55 26.3 L16.55 25.9 14.9 25.45 Q13.6 25.1 12.45 24.15 11.5 23.3 10.85 21.35 L7.8 20.05 3.9 18.2 Q2.0 17.25 0.8 16.35 -0.3 15.35 0.15 13.7 0.55 12.0 2.1 10.5 3.6 9.0 5.7 8.55 7.8 8.15 9.95 9.75 L10.55 10.2 10.8 8.85 Q11.55 5.85 12.85 3.55 14.2 1.3 16.05 0.4 L19.3 0.2 Q20.85 0.75 21.65 2.4 22.45 4.1 21.9 6.7 21.3 9.5 21.35 11.45 L21.65 14.45 21.9 15.45 21.9 14.15 22.05 11.05 22.55 7.35 Q22.95 5.45 23.7 4.15 24.45 2.85 25.65 2.7 28.0 2.55 29.65 4.0 31.3 5.4 32.3 7.8 33.3 10.2 33.7 13.1 34.1 15.95 33.9 18.7 L34.05 19.0 Q34.2 19.25 34.6 19.25 L35.8 18.4 37.9 15.45 Q40.25 11.7 42.6 11.45 44.95 11.25 46.35 14.85 M10.0 10.6 Q8.0 9.05 6.1 9.4 4.15 9.8 2.8 11.2 1.45 12.55 1.15 14.0 0.85 15.45 2.15 16.0 L5.85 17.6 8.95 19.25 Q10.2 19.95 10.25 20.0 L10.3 10.85 10.0 10.6 M18.9 30.05 Q20.3 31.85 23.25 32.8 26.3 33.6 28.8 32.75 30.45 32.2 31.6 31.35 30.7 31.6 29.45 32.25 28.0 33.05 26.1 32.8 24.2 32.55 22.4 31.35 20.6 30.15 19.45 28.1 18.6 26.7 17.4 26.2 L17.4 26.3 Q17.55 28.2 18.9 30.05" fill="#000000" fill-rule="evenodd" stroke="none"/>
    <path d="M45.65 15.2 Q46.45 17.45 45.6 20.2 44.75 22.95 42.9 25.35 41.0 27.75 38.65 29.0 36.95 29.85 35.9 29.9 L33.95 29.7 31.95 29.55 Q30.85 29.65 29.1 30.55 27.65 31.3 26.0 31.1 24.35 30.9 22.8 29.8 21.25 28.7 20.15 26.9 19.3 25.6 17.95 25.15 L15.25 24.4 Q13.85 24.1 12.8 23.15 11.75 22.25 11.45 19.9 11.15 17.5 11.2 14.7 11.25 11.85 11.75 9.2 12.25 6.5 13.35 4.5 14.45 2.45 16.3 1.65 18.0 1.0 18.9 2.25 19.85 3.45 20.1 5.6 20.4 7.8 20.15 9.95 19.9 12.6 20.6 14.6 21.25 16.55 22.0 17.65 L22.8 18.8 22.75 17.4 22.8 14.0 23.2 9.85 Q23.5 7.7 24.15 6.05 24.8 4.45 25.9 3.95 27.35 3.45 28.7 5.1 30.1 6.7 31.1 9.5 32.15 12.3 32.55 15.4 32.95 18.45 32.45 20.8 L33.55 20.6 Q34.6 20.35 35.95 19.5 37.35 18.7 38.4 16.95 39.45 15.15 40.8 13.95 42.2 12.75 43.5 12.9 44.8 13.05 45.65 15.2 M10.0 10.6 L10.3 10.85 10.25 20.0 Q10.2 19.95 8.95 19.25 L5.85 17.6 2.15 16.0 Q0.85 15.45 1.15 14.0 1.45 12.55 2.8 11.2 4.15 9.8 6.1 9.4 8.0 9.05 10.0 10.6 M18.9 30.05 Q17.55 28.2 17.4 26.3 L17.4 26.2 Q18.6 26.7 19.45 28.1 20.6 30.15 22.4 31.35 24.2 32.55 26.1 32.8 28.0 33.05 29.45 32.25 30.7 31.6 31.6 31.35 30.45 32.2 28.8 32.75 26.3 33.6 23.25 32.8 20.3 31.85 18.9 30.05" fill="#ffffff" fill-rule="evenodd" stroke="none"/>
  </g>
</svg>
