<?xml version="1.0" encoding="UTF-8" standalone="no"?>
<svg xmlns:xlink="http://www.w3.org/1999/xlink" height="27.0px" width="19.55px" xmlns="http://www.w3.org/2000/svg">
  <g transform="matrix(1.0, 0.0, 0.0, 1.0, 9.8, 27.0)">
    <path d="M7.8 -9.8 L7.8 -17.2 Q7.8 -19.9 6.45 -21.8 L5.65 -22.75 Q3.5 -24.95 0.0 -24.95 -3.45 -24.95 -5.6 -22.75 L-6.4 -21.8 Q-7.75 -19.9 -7.75 -17.2 L-7.75 -9.8 Q-7.75 -6.4 -5.6 -4.2 -3.45 -1.95 0.0 -1.95 3.5 -1.95 5.65 -4.2 7.8 -6.4 7.8 -9.8 M9.75 -17.25 L9.75 -9.85 Q9.75 -5.6 7.05 -2.85 4.35 0.0 -0.05 0.0 -4.4 0.0 -7.05 -2.85 L-7.1 -2.85 Q-9.8 -5.6 -9.8 -9.85 L-9.8 -17.25 Q-9.8 -21.55 -7.05 -24.2 -4.4 -27.0 -0.05 -27.0 4.35 -27.0 7.05 -24.2 9.75 -21.55 9.75 -17.25 M-2.45 -16.95 Q-2.45 -20.0 0.0 -20.0 2.5 -20.0 2.5 -16.95 L2.5 -10.2 Q2.5 -7.15 0.0 -7.15 -2.45 -7.15 -2.45 -10.2 L-2.45 -16.95 M0.45 -17.0 Q0.45 -17.9 -0.05 -18.05 -0.5 -17.9 -0.5 -17.0 L-0.5 -10.25 Q-0.5 -9.35 -0.05 -9.2 0.45 -9.35 0.45 -10.25 L0.45 -17.0" fill="#ffffff" fill-rule="evenodd" stroke="none"/>
    <path d="M7.8 -9.8 Q7.8 -6.4 5.65 -4.2 3.5 -1.95 0.0 -1.95 -3.45 -1.95 -5.6 -4.2 -7.75 -6.4 -7.75 -9.8 L-7.75 -17.2 Q-7.75 -19.9 -6.4 -21.8 L-5.6 -22.75 Q-3.45 -24.95 0.0 -24.95 3.5 -24.95 5.65 -22.75 L6.45 -21.8 Q7.8 -19.9 7.8 -17.2 L7.8 -9.8 M-2.45 -16.95 L-2.45 -10.2 Q-2.45 -7.15 0.0 -7.15 2.5 -7.15 2.5 -10.2 L2.5 -16.95 Q2.5 -20.0 0.0 -20.0 -2.45 -20.0 -2.45 -16.95" fill="#000000" fill-rule="evenodd" stroke="none"/>
  </g>
</svg>
