<?xml version="1.0" encoding="UTF-8" standalone="no"?>
<svg xmlns:xlink="http://www.w3.org/1999/xlink" height="26.3px" width="18.85px" xmlns="http://www.w3.org/2000/svg">
  <g transform="matrix(1.0, 0.0, 0.0, 1.0, 8.95, 26.3)">
    <path d="M-6.35 -26.3 L2.1 -26.3 Q9.0 -26.3 8.8 -20.65 8.95 -18.8 6.85 -16.35 L6.7 -16.2 6.55 -16.05 6.6 -16.05 Q9.9 -14.0 9.9 -9.25 10.0 -0.25 0.3 0.0 L-0.3 0.0 -6.95 0.0 Q-7.8 0.0 -8.35 -0.55 L-8.8 -1.2 -8.95 -2.0 -8.95 -7.15 -8.8 -7.95 -8.35 -8.55 Q-7.8 -9.15 -6.95 -9.15 L-0.15 -9.15 0.3 -9.2 0.55 -9.35 0.6 -9.45 -4.1 -9.45 Q-4.95 -9.45 -5.5 -10.0 -6.1 -10.6 -6.1 -11.45 L-6.1 -14.7 -5.9 -15.5 -5.4 -16.2 -4.25 -17.25 -6.35 -17.25 Q-7.2 -17.25 -7.75 -17.8 -8.35 -18.4 -8.35 -19.25 L-8.35 -24.3 Q-8.35 -25.15 -7.75 -25.7 -7.2 -26.3 -6.35 -26.3 M5.85 -23.2 Q4.65 -24.25 2.15 -24.25 L-6.3 -24.25 -6.3 -19.2 1.05 -19.2 -4.05 -14.65 -4.05 -11.4 0.75 -11.4 Q2.6 -11.4 2.6 -9.3 2.6 -7.1 -0.1 -7.1 L-6.9 -7.1 -6.9 -1.95 -0.25 -1.95 Q7.95 -1.95 7.95 -9.2 7.95 -14.25 3.0 -15.25 L5.35 -17.6 Q6.85 -19.35 6.85 -20.6 6.85 -22.3 5.85 -23.2" fill="#ffffff" fill-rule="evenodd" stroke="none"/>
    <path d="M5.85 -23.2 Q6.85 -22.3 6.85 -20.6 6.85 -19.35 5.35 -17.6 L3.0 -15.25 Q7.95 -14.25 7.95 -9.2 7.95 -1.95 -0.25 -1.95 L-6.9 -1.95 -6.9 -7.1 -0.1 -7.1 Q2.6 -7.1 2.6 -9.3 2.6 -11.4 0.75 -11.4 L-4.05 -11.4 -4.05 -14.65 1.05 -19.2 -6.3 -19.2 -6.3 -24.25 2.15 -24.25 Q4.65 -24.25 5.85 -23.2" fill="#000000" fill-rule="evenodd" stroke="none"/>
  </g>
</svg>
