<?xml version="1.0" encoding="UTF-8" standalone="no"?>
<svg xmlns:xlink="http://www.w3.org/1999/xlink" height="26.3px" width="18.65px" xmlns="http://www.w3.org/2000/svg">
  <g transform="matrix(1.0, 0.0, 0.0, 1.0, 8.85, 26.3)">
    <path d="M-7.8 -25.7 Q-7.25 -26.3 -6.4 -26.3 L5.95 -26.3 Q6.8 -26.3 7.4 -25.7 7.95 -25.15 7.95 -24.3 L7.95 -19.25 Q7.95 -18.4 7.4 -17.8 7.0 -17.45 6.5 -17.3 9.8 -15.0 9.8 -9.45 9.8 -5.1 6.7 -2.35 L6.65 -2.3 Q3.95 0.0 0.3 0.0 L-6.85 0.0 Q-7.7 0.0 -8.25 -0.55 -8.85 -1.15 -8.85 -2.0 L-8.85 -7.35 Q-8.85 -8.2 -8.25 -8.75 -7.7 -9.35 -6.85 -9.35 L-0.2 -9.35 0.45 -9.4 Q0.3 -9.8 -0.4 -9.8 L-6.4 -9.8 Q-7.25 -9.8 -7.8 -10.35 -8.4 -10.95 -8.4 -11.8 L-8.4 -24.3 Q-8.4 -25.15 -7.8 -25.7 M-1.0 -16.9 L-1.0 -19.2 6.0 -19.2 6.0 -24.25 -6.35 -24.25 -6.35 -11.75 -0.35 -11.75 Q2.5 -11.75 2.5 -9.35 2.5 -7.3 -0.15 -7.3 L-6.8 -7.3 -6.8 -1.95 0.35 -1.95 Q3.25 -1.95 5.4 -3.8 7.85 -5.95 7.85 -9.4 7.85 -16.9 0.2 -16.9 L-1.0 -16.9" fill="#ffffff" fill-rule="evenodd" stroke="none"/>
    <path d="M-1.0 -16.9 L0.2 -16.9 Q7.85 -16.9 7.85 -9.4 7.85 -5.95 5.4 -3.8 3.25 -1.95 0.35 -1.95 L-6.8 -1.95 -6.8 -7.3 -0.15 -7.3 Q2.5 -7.3 2.5 -9.35 2.5 -11.75 -0.35 -11.75 L-6.35 -11.75 -6.35 -24.25 6.0 -24.25 6.0 -19.2 -1.0 -19.2 -1.0 -16.9" fill="#000000" fill-rule="evenodd" stroke="none"/>
  </g>
</svg>
