<?xml version="1.0" encoding="UTF-8" standalone="no"?>
<svg xmlns:xlink="http://www.w3.org/1999/xlink" height="26.3px" width="12.75px" xmlns="http://www.w3.org/2000/svg">
  <g transform="matrix(1.0, 0.0, 0.0, 1.0, 6.4, 26.3)">
    <path d="M4.35 -26.3 Q5.2 -26.3 5.8 -25.7 6.35 -25.15 6.35 -24.3 L6.35 -2.0 Q6.35 -1.15 5.8 -0.55 5.2 0.0 4.35 0.0 L-0.9 0.0 Q-1.75 0.0 -2.3 -0.55 -2.9 -1.15 -2.9 -2.0 L-2.9 -17.15 -4.4 -17.15 Q-5.25 -17.15 -5.8 -17.7 -6.4 -18.3 -6.4 -19.15 L-6.4 -24.3 Q-6.4 -25.15 -5.8 -25.7 -5.25 -26.3 -4.4 -26.3 L4.35 -26.3 M-4.35 -24.25 L-4.35 -19.1 -0.85 -19.1 -0.85 -1.95 4.4 -1.95 4.4 -24.25 -4.35 -24.25" fill="#ffffff" fill-rule="evenodd" stroke="none"/>
    <path d="M-4.35 -24.25 L4.4 -24.25 4.4 -1.95 -0.85 -1.95 -0.85 -19.1 -4.35 -19.1 -4.35 -24.25" fill="#000000" fill-rule="evenodd" stroke="none"/>
  </g>
</svg>
