<?xml version="1.0" encoding="UTF-8" standalone="no"?>
<svg xmlns:xlink="http://www.w3.org/1999/xlink" height="49.95px" width="131.1px" xmlns="http://www.w3.org/2000/svg">
  <g transform="matrix(1.0, 0.0, 0.0, 1.0, 4.95, 4.7)">
    <path d="M112.75 8.75 L111.05 16.05 117.25 16.05 115.55 23.35 109.35 23.35 107.35 31.8 114.65 31.8 112.9 39.45 95.65 39.45 104.55 1.1 121.15 1.1 119.4 8.75 112.75 8.75 M98.65 6.35 Q98.95 8.75 97.9 13.55 L97.45 15.25 87.5 15.25 89.0 7.6 Q88.9 6.75 87.8 6.75 86.85 6.75 86.4 7.5 85.85 8.2 85.15 11.15 L80.85 29.55 Q80.25 32.2 80.4 33.0 80.5 33.8 81.55 33.8 82.65 33.8 83.25 32.85 83.9 31.95 84.5 29.25 L85.6 24.65 83.6 24.65 85.0 18.85 96.65 18.85 91.8 39.45 85.5 39.45 85.25 36.7 Q83.8 38.5 82.05 39.4 80.3 40.25 78.15 40.25 75.6 40.25 73.75 39.05 71.8 37.8 71.1 36.05 70.35 34.15 70.55 32.25 70.7 30.3 71.7 26.3 L74.3 14.9 Q75.55 9.55 76.75 6.9 77.95 4.45 81.3 2.35 84.55 0.3 89.05 0.3 93.4 0.3 95.9 2.05 98.35 3.95 98.65 6.35 M45.15 8.75 L38.0 39.45 28.0 39.45 35.2 8.75 29.25 8.75 31.05 1.1 52.9 1.1 51.1 8.75 45.15 8.75 M59.4 25.75 Q60.0 20.15 61.6 9.6 57.5 20.65 55.95 25.75 L59.4 25.75 M54.4 32.55 L52.25 39.45 41.9 39.45 56.0 1.1 70.35 1.1 67.15 39.45 57.0 39.45 58.05 32.55 54.4 32.55 M27.1 4.7 Q27.55 6.7 26.5 11.2 L26.1 12.7 16.8 12.7 17.5 9.85 Q17.95 7.85 17.7 7.3 17.5 6.75 16.75 6.75 15.85 6.75 15.25 7.5 14.6 8.15 14.25 9.75 13.8 11.75 14.05 12.65 14.25 13.6 16.3 15.0 22.0 18.9 23.15 21.5 24.3 24.0 23.0 29.65 22.0 33.75 20.55 35.7 19.15 37.65 16.15 38.95 13.05 40.25 9.4 40.25 5.45 40.25 2.95 38.75 0.45 37.25 0.15 34.9 -0.2 32.6 0.85 28.25 L1.45 25.75 10.75 25.75 9.65 30.4 Q9.1 32.5 9.35 33.15 9.6 33.8 10.55 33.8 11.55 33.8 12.2 33.0 12.85 32.25 13.25 30.65 14.0 27.25 13.4 26.25 12.7 25.15 9.6 22.75 6.45 20.35 5.45 19.2 4.5 18.1 4.2 16.1 3.9 14.1 4.55 11.05 5.65 6.65 7.25 4.65 8.8 2.6 11.6 1.4 14.35 0.3 17.9 0.3 21.8 0.3 24.2 1.55 26.6 2.8 27.1 4.7" fill="#ffffff" fill-rule="evenodd" stroke="none"/>
    <path d="M112.75 8.75 L111.05 16.05 117.25 16.05 115.55 23.35 109.35 23.35 107.35 31.8 114.65 31.8 112.9 39.45 95.65 39.45 104.55 1.1 121.15 1.1 119.4 8.75 112.75 8.75 M98.65 6.35 Q98.95 8.75 97.9 13.55 L97.45 15.25 87.5 15.25 89.0 7.6 Q88.9 6.75 87.8 6.75 86.85 6.75 86.4 7.5 85.85 8.2 85.15 11.15 L80.85 29.55 Q80.25 32.2 80.4 33.0 80.5 33.8 81.55 33.8 82.65 33.8 83.25 32.85 83.9 31.95 84.5 29.25 L85.6 24.65 83.6 24.65 85.0 18.85 96.65 18.85 91.8 39.45 85.5 39.45 85.25 36.7 Q83.8 38.5 82.05 39.4 80.3 40.25 78.15 40.25 75.6 40.25 73.75 39.05 71.8 37.8 71.1 36.05 70.35 34.15 70.55 32.25 70.7 30.3 71.7 26.3 L74.3 14.9 Q75.55 9.55 76.75 6.9 77.95 4.45 81.3 2.35 84.55 0.3 89.05 0.3 93.4 0.3 95.9 2.05 98.35 3.95 98.65 6.35 M45.15 8.75 L38.0 39.45 28.0 39.45 35.2 8.75 29.25 8.75 31.05 1.1 52.9 1.1 51.1 8.75 45.15 8.75 M59.4 25.75 Q60.0 20.15 61.6 9.6 57.5 20.65 55.95 25.75 L59.4 25.75 M54.4 32.55 L52.25 39.45 41.9 39.45 56.0 1.1 70.35 1.1 67.15 39.45 57.0 39.45 58.05 32.55 54.4 32.55 M27.1 4.7 Q27.55 6.7 26.5 11.2 L26.1 12.7 16.8 12.7 17.5 9.85 Q17.95 7.85 17.7 7.3 17.5 6.75 16.75 6.75 15.85 6.75 15.25 7.5 14.6 8.15 14.25 9.75 13.8 11.75 14.05 12.65 14.25 13.6 16.3 15.0 22.0 18.9 23.15 21.5 24.3 24.0 23.0 29.65 22.0 33.75 20.55 35.7 19.15 37.65 16.15 38.95 13.05 40.25 9.4 40.25 5.45 40.25 2.95 38.75 0.45 37.25 0.15 34.9 -0.2 32.6 0.85 28.25 L1.45 25.75 10.75 25.75 9.65 30.4 Q9.1 32.5 9.35 33.15 9.6 33.8 10.55 33.8 11.55 33.8 12.2 33.0 12.85 32.25 13.25 30.65 14.0 27.25 13.4 26.25 12.7 25.15 9.6 22.75 6.45 20.35 5.45 19.2 4.5 18.1 4.2 16.1 3.9 14.1 4.55 11.05 5.65 6.65 7.25 4.65 8.8 2.6 11.6 1.4 14.35 0.3 17.9 0.3 21.8 0.3 24.2 1.55 26.6 2.8 27.1 4.7" fill="none" stroke="#ffffff" stroke-linecap="round" stroke-linejoin="round" stroke-width="10.0"/>
    <path d="M121.1 0.8 L119.35 8.45 112.7 8.45 111.0 15.75 117.2 15.75 115.5 23.05 109.3 23.05 107.3 31.5 114.6 31.5 112.85 39.15 95.6 39.15 104.5 0.8 121.1 0.8 M98.6 6.05 Q98.9 8.45 97.8 13.25 L97.4 14.95 87.45 14.95 88.95 7.3 Q88.8 6.45 87.75 6.45 86.8 6.45 86.35 7.2 85.8 7.9 85.1 10.85 L80.8 29.25 Q80.2 31.9 80.35 32.7 80.45 33.5 81.5 33.5 82.6 33.5 83.2 32.55 83.8 31.65 84.4 28.95 L85.5 24.35 83.5 24.35 84.9 18.55 96.55 18.55 91.75 39.15 85.45 39.15 85.2 36.4 Q83.7 38.2 82.0 39.1 80.25 39.95 78.1 39.95 75.55 39.95 73.7 38.75 71.7 37.5 71.05 35.75 70.3 33.85 70.5 31.95 70.65 30.0 71.65 26.0 L74.25 14.6 Q75.5 9.25 76.7 6.6 77.9 4.15 81.2 2.05 84.5 0.0 89.0 0.0 93.3 0.0 95.8 1.75 98.3 3.65 98.6 6.05 M45.1 8.45 L37.95 39.15 27.95 39.15 35.15 8.45 29.2 8.45 31.0 0.8 52.85 0.8 51.05 8.45 45.1 8.45 M52.2 39.15 L41.85 39.15 55.95 0.8 70.3 0.8 67.1 39.15 56.95 39.15 58.0 32.25 54.35 32.25 52.2 39.15 M59.3 25.45 Q59.9 19.85 61.55 9.3 57.45 20.35 55.85 25.45 L59.3 25.45 M26.05 12.4 L16.75 12.4 17.45 9.55 Q17.85 7.55 17.65 7.0 17.45 6.45 16.7 6.45 15.8 6.45 15.2 7.2 14.55 7.85 14.2 9.45 13.75 11.45 14.0 12.35 14.2 13.3 16.25 14.7 21.95 18.6 23.1 21.2 24.2 23.7 22.9 29.35 21.95 33.45 20.5 35.4 19.1 37.35 16.1 38.65 13.0 39.95 9.35 39.95 5.4 39.95 2.9 38.45 0.4 36.95 0.1 34.6 -0.25 32.3 0.8 27.95 L1.35 25.45 10.65 25.45 9.55 30.1 Q9.05 32.2 9.3 32.85 9.55 33.5 10.5 33.5 11.5 33.5 12.15 32.7 12.8 31.95 13.2 30.35 13.95 26.95 13.35 25.95 12.6 24.85 9.5 22.45 6.4 20.05 5.4 18.9 4.45 17.8 4.15 15.8 3.85 13.8 4.5 10.75 5.55 6.35 7.15 4.35 8.75 2.3 11.55 1.1 14.3 0.0 17.85 0.0 21.75 0.0 24.15 1.25 26.55 2.5 27.0 4.4 27.45 6.4 26.4 10.9 L26.05 12.4" fill="url(#gradient0)" fill-rule="evenodd" stroke="none"/>
  </g>
  <defs>
    <linearGradient gradientTransform="matrix(-0.0032, -0.0243, 0.0191, 0.0, 207.75, 19.95)" gradientUnits="userSpaceOnUse" id="gradient0" spreadMethod="pad" x1="-819.2" x2="819.2">
      <stop offset="0.1843137254901961" stop-color="#ff7700"/>
      <stop offset="0.7843137254901961" stop-color="#cc2232"/>
    </linearGradient>
  </defs>
</svg>
