<?xml version="1.0" encoding="UTF-8" standalone="no"?>
<svg xmlns:xlink="http://www.w3.org/1999/xlink" height="49.85px" width="366.6px" xmlns="http://www.w3.org/2000/svg">
  <g transform="matrix(1.0, 0.0, 0.0, 1.0, 4.95, 4.7)">
    <path d="M346.15 6.2 Q345.0 6.2 344.5 7.0 343.95 7.85 343.3 10.75 L338.95 29.55 Q338.1 32.9 338.3 33.6 338.45 34.25 339.55 34.25 340.6 34.25 341.15 33.5 L342.3 29.85 347.4 6.95 Q347.25 6.2 346.15 6.2 M352.7 1.4 Q354.95 2.55 355.8 4.1 356.65 5.65 356.65 7.7 L355.6 14.0 352.6 26.85 Q351.6 31.15 350.6 33.2 349.75 35.1 347.8 36.9 345.9 38.65 343.6 39.4 L338.7 40.15 Q335.25 40.15 333.15 39.35 331.1 38.6 330.15 36.9 329.15 35.25 329.0 33.35 328.85 31.45 329.85 27.45 L333.0 14.0 Q334.2 8.7 335.7 6.1 337.25 3.5 340.3 1.9 343.4 0.3 347.3 0.3 350.4 0.3 352.7 1.4 M319.85 8.65 L314.5 31.65 Q313.8 33.9 311.8 36.0 309.85 38.1 307.15 39.1 304.45 40.15 301.15 40.15 297.1 40.15 294.85 38.85 292.5 37.5 292.0 35.2 291.4 32.8 292.25 29.25 L301.85 29.25 301.05 32.6 Q300.95 33.35 301.45 33.8 301.8 34.25 302.7 34.25 303.5 34.25 304.0 33.85 L304.85 32.7 307.0 23.7 Q305.95 25.2 304.3 26.0 302.7 26.75 300.55 26.75 297.95 26.75 296.3 25.35 294.6 23.9 294.55 21.95 294.4 20.1 295.25 16.55 L295.95 13.5 Q296.8 9.55 297.65 7.45 298.45 5.5 300.2 3.85 301.85 2.15 304.45 1.2 307.05 0.3 310.1 0.3 313.95 0.3 316.2 1.35 318.4 2.45 319.25 4.45 320.15 6.5 319.85 8.65 M310.5 6.95 Q310.2 6.2 309.2 6.2 308.55 6.2 307.7 6.75 306.95 7.4 306.3 10.05 L304.6 17.35 Q304.05 19.75 304.55 20.35 305.0 20.9 305.7 20.9 306.75 20.9 307.35 20.2 308.05 19.35 308.5 17.35 L310.1 10.3 Q310.75 7.8 310.5 6.95 M282.2 10.45 Q281.45 13.55 280.35 14.95 279.25 16.3 276.5 17.7 278.4 18.55 279.1 20.2 279.85 21.9 278.35 28.25 277.25 33.0 275.9 35.15 274.45 37.35 271.55 38.75 268.6 40.15 264.2 40.15 259.9 40.15 257.8 38.8 255.55 37.45 255.05 35.25 254.45 33.0 255.7 27.8 256.45 24.4 257.65 21.75 258.75 19.25 261.95 17.7 260.35 16.8 259.9 14.95 259.45 13.1 260.15 10.2 261.3 5.25 264.65 2.75 267.95 0.3 273.4 0.3 279.7 0.3 281.5 2.95 283.35 5.6 282.2 10.45 M269.75 9.35 L269.1 12.3 Q268.65 14.1 268.9 14.7 269.05 15.35 270.05 15.35 270.95 15.35 271.45 14.75 272.0 14.0 272.4 12.0 L273.05 9.35 Q273.45 7.4 273.25 6.8 273.1 6.2 272.15 6.2 271.15 6.2 270.65 6.85 270.2 7.5 269.75 9.35 M268.45 21.75 Q267.5 21.75 266.9 22.45 266.35 23.15 265.8 25.4 L264.65 30.35 Q264.05 32.8 264.35 33.6 264.65 34.25 265.7 34.25 266.65 34.25 267.25 33.55 L268.3 30.3 269.5 25.4 Q270.0 23.2 269.75 22.45 269.45 21.75 268.45 21.75 M224.1 7.95 L225.7 1.05 243.95 1.05 242.05 9.45 228.95 39.4 219.4 39.4 233.5 7.95 224.1 7.95 M205.25 23.9 L204.55 27.0 202.85 33.0 Q202.0 35.05 200.3 36.6 198.55 38.3 196.05 39.25 193.4 40.15 190.35 40.15 186.45 40.15 184.25 39.1 182.05 38.0 181.2 36.0 180.35 34.05 180.6 31.8 180.85 29.75 182.4 23.25 L183.6 17.95 Q185.15 11.2 185.95 8.8 186.65 6.55 188.65 4.45 190.6 2.35 193.3 1.35 196.05 0.3 199.3 0.3 203.3 0.3 205.65 1.6 207.95 2.9 208.45 5.25 209.05 7.55 208.25 11.2 L198.65 11.2 199.4 7.85 Q199.5 7.15 199.1 6.65 198.65 6.2 197.8 6.2 197.0 6.2 196.5 6.6 195.9 7.1 195.65 7.75 L193.45 16.75 Q194.55 15.25 196.15 14.45 197.75 13.7 199.85 13.7 202.5 13.7 204.2 15.1 205.85 16.5 205.95 18.5 206.0 20.55 205.25 23.9 M194.75 19.55 Q193.7 19.55 193.1 20.25 192.45 21.05 192.0 23.15 L190.35 30.15 Q189.75 32.7 190.0 33.5 190.2 34.25 191.3 34.25 191.9 34.25 192.75 33.7 193.5 33.05 194.2 30.4 L195.9 23.15 Q196.35 21.1 196.05 20.3 195.75 19.55 194.75 19.55 M168.55 21.85 L167.3 27.3 Q166.4 31.25 165.5 33.3 164.65 35.2 163.0 36.8 161.4 38.4 158.85 39.3 156.4 40.15 153.1 40.15 149.3 40.15 146.9 38.85 L146.6 38.7 Q144.35 37.45 143.75 35.0 143.15 32.5 144.4 27.15 L144.9 25.1 154.45 25.1 153.9 27.45 Q153.0 31.3 152.9 32.75 152.8 34.25 154.4 34.25 155.15 34.25 155.65 33.85 L156.35 32.85 159.3 20.75 Q159.8 18.65 159.55 17.8 159.2 17.0 158.2 17.0 157.5 17.0 156.95 17.45 L156.15 18.25 155.55 20.45 146.05 20.45 151.0 1.05 171.6 1.05 170.15 7.2 158.2 7.2 156.65 13.75 Q159.5 11.15 163.05 11.15 166.95 11.15 168.55 13.35 170.05 15.55 168.55 21.85 M134.7 1.05 L128.9 26.1 131.6 26.1 130.1 32.65 127.35 32.65 125.75 39.4 116.2 39.4 117.8 32.65 106.4 32.65 107.95 26.1 122.0 1.05 134.7 1.05 M96.9 10.4 Q96.15 13.5 94.95 15.05 93.75 16.4 91.25 17.7 93.2 18.4 93.9 20.1 94.6 21.75 93.15 27.9 92.05 32.5 90.45 35.0 88.75 37.55 85.95 38.85 83.05 40.15 79.05 40.15 74.5 40.15 72.25 38.6 70.0 37.1 69.7 34.9 69.4 32.8 70.7 27.2 L71.45 24.2 81.05 24.2 79.55 30.45 Q79.0 32.9 79.15 33.6 79.25 34.25 80.3 34.25 81.4 34.25 81.95 33.45 82.5 32.5 83.35 28.95 L83.95 26.3 Q84.45 24.15 84.2 23.1 83.9 22.05 83.05 21.75 L79.35 21.4 80.7 15.8 84.95 15.5 Q85.8 15.3 86.4 14.4 L87.9 9.5 Q88.35 7.45 88.1 6.8 87.8 6.2 87.0 6.2 85.95 6.2 85.45 6.85 84.95 7.5 84.4 9.75 L83.65 12.95 74.0 12.95 74.8 9.65 Q76.05 4.2 79.05 2.25 81.95 0.3 87.5 0.3 94.35 0.3 96.15 2.95 98.0 5.7 96.9 10.4 M119.3 26.1 L123.1 9.75 115.05 26.1 119.3 26.1 M59.4 3.1 Q61.65 6.0 60.6 10.3 59.85 13.5 57.3 17.25 55.0 20.7 44.05 32.85 L54.45 32.85 52.95 39.4 31.9 39.4 33.2 33.95 Q46.4 18.25 48.75 14.95 51.4 11.35 51.9 9.25 52.2 7.7 51.9 6.95 51.55 6.2 50.45 6.2 49.35 6.2 48.65 7.0 47.95 7.8 47.3 10.45 L46.4 14.1 37.8 14.1 38.15 12.7 Q38.85 9.65 39.65 7.6 40.45 5.7 42.2 3.95 43.9 2.15 46.2 1.2 48.55 0.3 51.4 0.3 57.1 0.3 59.4 3.1 M13.05 1.05 L18.65 1.05 9.7 39.4 0.15 39.4 6.0 13.5 Q6.0 12.6 5.15 12.15 L0.95 11.7 0.05 11.7 1.05 7.2 Q8.35 5.7 13.05 1.05" fill="#ffffff" fill-rule="evenodd" stroke="none"/>
    <path d="M346.15 6.2 Q345.0 6.2 344.5 7.0 343.95 7.85 343.3 10.75 L338.95 29.55 Q338.1 32.9 338.3 33.6 338.45 34.25 339.55 34.25 340.6 34.25 341.15 33.5 L342.3 29.85 347.4 6.95 Q347.25 6.2 346.15 6.2 M352.7 1.4 Q354.95 2.55 355.8 4.1 356.65 5.65 356.65 7.7 L355.6 14.0 352.6 26.85 Q351.6 31.15 350.6 33.2 349.75 35.1 347.8 36.9 345.9 38.65 343.6 39.4 L338.7 40.15 Q335.25 40.15 333.15 39.35 331.1 38.6 330.15 36.9 329.15 35.25 329.0 33.35 328.85 31.45 329.85 27.45 L333.0 14.0 Q334.2 8.7 335.7 6.1 337.25 3.5 340.3 1.9 343.4 0.3 347.3 0.3 350.4 0.3 352.7 1.4 M319.85 8.65 L314.5 31.65 Q313.8 33.9 311.8 36.0 309.85 38.1 307.15 39.1 304.45 40.15 301.15 40.15 297.1 40.15 294.85 38.85 292.5 37.5 292.0 35.2 291.4 32.8 292.25 29.25 L301.85 29.25 301.05 32.6 Q300.95 33.35 301.45 33.8 301.8 34.25 302.7 34.25 303.5 34.25 304.0 33.85 L304.85 32.7 307.0 23.7 Q305.95 25.2 304.3 26.0 302.7 26.75 300.55 26.75 297.95 26.75 296.3 25.35 294.6 23.9 294.55 21.95 294.4 20.1 295.25 16.55 L295.95 13.5 Q296.8 9.55 297.65 7.45 298.45 5.5 300.2 3.85 301.85 2.15 304.45 1.2 307.05 0.3 310.1 0.3 313.95 0.3 316.2 1.35 318.4 2.45 319.25 4.45 320.15 6.5 319.85 8.65 M310.5 6.95 Q310.2 6.2 309.2 6.2 308.55 6.2 307.7 6.75 306.95 7.4 306.3 10.05 L304.6 17.35 Q304.05 19.75 304.55 20.35 305.0 20.9 305.7 20.9 306.75 20.9 307.35 20.2 308.05 19.35 308.5 17.35 L310.1 10.3 Q310.75 7.8 310.5 6.95 M282.2 10.45 Q281.45 13.55 280.35 14.95 279.25 16.3 276.5 17.7 278.4 18.55 279.1 20.2 279.85 21.9 278.35 28.25 277.25 33.0 275.9 35.15 274.45 37.35 271.55 38.75 268.6 40.15 264.2 40.15 259.9 40.15 257.8 38.8 255.55 37.45 255.05 35.25 254.45 33.0 255.7 27.8 256.45 24.4 257.65 21.75 258.75 19.25 261.95 17.7 260.35 16.8 259.9 14.95 259.45 13.1 260.15 10.2 261.3 5.25 264.65 2.75 267.95 0.3 273.4 0.3 279.7 0.3 281.5 2.95 283.35 5.6 282.2 10.45 M269.75 9.35 L269.1 12.3 Q268.65 14.1 268.9 14.7 269.05 15.35 270.05 15.35 270.95 15.35 271.45 14.75 272.0 14.0 272.4 12.0 L273.05 9.35 Q273.45 7.4 273.25 6.8 273.1 6.2 272.15 6.2 271.15 6.2 270.65 6.85 270.2 7.5 269.75 9.35 M268.45 21.75 Q267.5 21.75 266.9 22.45 266.35 23.15 265.8 25.4 L264.65 30.35 Q264.05 32.8 264.35 33.6 264.65 34.25 265.7 34.25 266.65 34.25 267.25 33.55 L268.3 30.3 269.5 25.4 Q270.0 23.2 269.75 22.45 269.45 21.75 268.45 21.75 M224.1 7.95 L225.7 1.05 243.95 1.05 242.05 9.45 228.95 39.4 219.4 39.4 233.5 7.95 224.1 7.95 M205.25 23.9 L204.55 27.0 202.85 33.0 Q202.0 35.05 200.3 36.6 198.55 38.3 196.05 39.25 193.4 40.15 190.35 40.15 186.45 40.15 184.25 39.1 182.05 38.0 181.2 36.0 180.35 34.05 180.6 31.8 180.85 29.75 182.4 23.25 L183.6 17.95 Q185.15 11.2 185.95 8.8 186.65 6.55 188.65 4.45 190.6 2.35 193.3 1.35 196.05 0.3 199.3 0.3 203.3 0.3 205.65 1.6 207.95 2.9 208.45 5.25 209.05 7.55 208.25 11.2 L198.65 11.2 199.4 7.85 Q199.5 7.15 199.1 6.65 198.65 6.2 197.8 6.2 197.0 6.2 196.5 6.6 195.9 7.1 195.65 7.75 L193.45 16.75 Q194.55 15.25 196.15 14.45 197.75 13.7 199.85 13.7 202.5 13.7 204.2 15.1 205.85 16.5 205.95 18.5 206.0 20.55 205.25 23.9 M194.75 19.55 Q193.7 19.55 193.1 20.25 192.45 21.05 192.0 23.15 L190.35 30.15 Q189.75 32.7 190.0 33.5 190.2 34.25 191.3 34.25 191.9 34.25 192.75 33.7 193.5 33.05 194.2 30.4 L195.9 23.15 Q196.35 21.1 196.05 20.3 195.75 19.55 194.75 19.55 M168.55 21.85 L167.3 27.3 Q166.4 31.25 165.5 33.3 164.65 35.2 163.0 36.8 161.4 38.4 158.85 39.3 156.4 40.15 153.1 40.15 149.3 40.15 146.9 38.85 L146.6 38.7 Q144.35 37.45 143.75 35.0 143.15 32.5 144.4 27.15 L144.9 25.1 154.45 25.1 153.9 27.45 Q153.0 31.3 152.9 32.75 152.8 34.25 154.4 34.25 155.15 34.25 155.65 33.85 L156.35 32.85 159.3 20.75 Q159.8 18.65 159.55 17.8 159.2 17.0 158.2 17.0 157.5 17.0 156.95 17.45 L156.15 18.25 155.55 20.45 146.05 20.45 151.0 1.05 171.6 1.05 170.15 7.2 158.2 7.2 156.65 13.75 Q159.5 11.15 163.05 11.15 166.95 11.15 168.55 13.35 170.05 15.55 168.55 21.85 M134.7 1.05 L128.9 26.1 131.6 26.1 130.1 32.65 127.35 32.65 125.75 39.4 116.2 39.4 117.8 32.65 106.4 32.65 107.95 26.1 122.0 1.05 134.7 1.05 M96.9 10.4 Q96.15 13.5 94.95 15.05 93.75 16.4 91.25 17.7 93.2 18.4 93.9 20.1 94.6 21.75 93.15 27.9 92.05 32.5 90.45 35.0 88.75 37.55 85.95 38.85 83.05 40.15 79.05 40.15 74.5 40.15 72.25 38.6 70.0 37.1 69.7 34.9 69.4 32.8 70.7 27.2 L71.45 24.2 81.05 24.2 79.55 30.45 Q79.0 32.9 79.15 33.6 79.25 34.25 80.3 34.25 81.4 34.25 81.95 33.45 82.5 32.5 83.35 28.95 L83.95 26.3 Q84.45 24.15 84.2 23.1 83.9 22.05 83.05 21.75 L79.35 21.4 80.7 15.8 84.95 15.5 Q85.8 15.3 86.4 14.4 L87.9 9.5 Q88.35 7.45 88.1 6.8 87.8 6.2 87.0 6.2 85.95 6.2 85.45 6.85 84.95 7.5 84.4 9.75 L83.65 12.95 74.0 12.95 74.8 9.65 Q76.05 4.2 79.05 2.25 81.95 0.3 87.5 0.3 94.35 0.3 96.15 2.95 98.0 5.7 96.9 10.4 M119.3 26.1 L123.1 9.75 115.05 26.1 119.3 26.1 M59.4 3.1 Q61.65 6.0 60.6 10.3 59.85 13.5 57.3 17.25 55.0 20.7 44.05 32.85 L54.45 32.85 52.95 39.4 31.9 39.4 33.2 33.95 Q46.4 18.25 48.75 14.95 51.4 11.35 51.9 9.25 52.2 7.7 51.9 6.95 51.55 6.2 50.45 6.2 49.35 6.2 48.65 7.0 47.95 7.8 47.3 10.45 L46.4 14.1 37.8 14.1 38.15 12.7 Q38.85 9.65 39.65 7.6 40.45 5.7 42.2 3.95 43.9 2.15 46.2 1.2 48.55 0.3 51.4 0.3 57.1 0.3 59.4 3.1 M13.05 1.05 L18.65 1.05 9.7 39.4 0.15 39.4 6.0 13.5 Q6.0 12.6 5.15 12.15 L0.95 11.7 0.05 11.7 1.05 7.2 Q8.35 5.7 13.05 1.05" fill="none" stroke="#ffffff" stroke-linecap="round" stroke-linejoin="round" stroke-width="10.0"/>
    <path d="M18.6 0.75 L9.65 39.1 0.1 39.1 5.9 13.2 Q5.95 12.3 5.1 11.85 L0.9 11.4 0.0 11.4 1.0 6.9 Q8.3 5.4 13.0 0.75 L18.6 0.75" fill="url(#gradient0)" fill-rule="evenodd" stroke="none"/>
    <path d="M51.35 0.0 Q57.05 0.0 59.3 2.8 61.6 5.7 60.55 10.0 59.8 13.2 57.25 16.95 54.95 20.4 44.0 32.55 L54.4 32.55 52.9 39.1 31.85 39.1 33.15 33.65 Q46.35 17.95 48.7 14.65 51.35 11.05 51.8 8.95 52.15 7.4 51.8 6.65 51.45 5.9 50.35 5.9 49.3 5.9 48.55 6.7 47.85 7.5 47.2 10.15 L46.35 13.8 37.75 13.8 38.05 12.4 Q38.8 9.35 39.6 7.3 40.4 5.4 42.15 3.65 43.85 1.85 46.1 0.9 48.5 0.0 51.35 0.0" fill="url(#gradient1)" fill-rule="evenodd" stroke="none"/>
    <path d="M87.45 0.0 Q94.3 0.0 96.1 2.65 97.95 5.4 96.8 10.1 96.05 13.2 94.85 14.75 93.7 16.1 91.15 17.4 93.15 18.1 93.85 19.8 94.55 21.45 93.1 27.6 91.95 32.2 90.35 34.7 88.7 37.25 85.9 38.55 83.0 39.85 79.0 39.85 74.45 39.85 72.2 38.3 69.95 36.8 69.65 34.6 69.35 32.5 70.65 26.9 L71.35 23.9 80.95 23.9 79.5 30.15 Q78.95 32.6 79.1 33.3 79.15 33.95 80.25 33.95 81.3 33.95 81.85 33.15 82.45 32.2 83.3 28.65 L83.9 26.0 Q84.4 23.85 84.1 22.8 83.8 21.75 83.0 21.45 L79.3 21.1 80.6 15.5 84.9 15.2 Q85.75 15.0 86.35 14.1 L87.85 9.2 Q88.25 7.15 88.05 6.5 87.75 5.9 86.9 5.9 85.9 5.9 85.4 6.55 84.9 7.2 84.35 9.45 L83.6 12.65 73.95 12.65 74.7 9.35 Q76.0 3.9 79.0 1.95 81.9 0.0 87.45 0.0" fill="url(#gradient2)" fill-rule="evenodd" stroke="none"/>
    <path d="M130.0 32.35 L127.25 32.35 125.7 39.1 116.15 39.1 117.7 32.35 106.3 32.35 107.85 25.8 121.95 0.75 134.65 0.75 128.8 25.8 131.5 25.8 130.0 32.35 M123.05 9.45 L114.95 25.8 119.2 25.8 123.05 9.45" fill="url(#gradient3)" fill-rule="evenodd" stroke="none"/>
    <path d="M171.55 0.75 L170.1 6.9 158.15 6.9 156.6 13.45 Q159.45 10.85 162.95 10.85 166.9 10.85 168.5 13.05 170.0 15.25 168.5 21.55 L167.2 27.0 Q166.3 30.95 165.45 33.0 164.6 34.9 162.95 36.5 161.35 38.1 158.8 39.0 156.35 39.85 153.05 39.85 149.25 39.85 146.85 38.55 144.3 37.3 143.65 34.7 143.1 32.2 144.35 26.85 L144.85 24.8 154.4 24.8 153.85 27.15 Q152.95 31.0 152.85 32.45 152.75 33.95 154.35 33.95 155.05 33.95 155.55 33.55 L156.3 32.55 159.2 20.45 Q159.75 18.35 159.5 17.5 159.15 16.7 158.15 16.7 157.4 16.7 156.9 17.15 L156.1 17.95 155.5 20.15 146.0 20.15 150.95 0.75 171.55 0.75" fill="url(#gradient4)" fill-rule="evenodd" stroke="none"/>
    <path d="M199.25 0.0 Q203.25 0.0 205.55 1.3 207.85 2.6 208.4 4.95 208.95 7.25 208.15 10.9 L198.55 10.9 199.35 7.55 Q199.45 6.85 199.05 6.35 198.6 5.9 197.7 5.9 196.95 5.9 196.4 6.3 195.8 6.8 195.55 7.45 L193.4 16.45 Q194.5 14.95 196.1 14.15 197.7 13.4 199.8 13.4 202.45 13.4 204.15 14.8 205.8 16.2 205.85 18.2 205.95 20.25 205.2 23.6 L204.5 26.7 202.75 32.7 Q201.9 34.75 200.25 36.3 198.5 38.0 196.0 38.95 193.35 39.85 190.3 39.85 186.4 39.85 184.2 38.8 182.0 37.7 181.15 35.7 180.3 33.75 180.55 31.5 180.8 29.45 182.35 22.95 L183.55 17.65 Q185.1 10.9 185.9 8.5 186.6 6.25 188.6 4.15 190.5 2.05 193.25 1.05 196.0 0.0 199.25 0.0 M196.0 20.0 Q195.7 19.25 194.7 19.25 193.65 19.25 193.05 19.95 192.4 20.75 191.95 22.85 L190.3 29.85 Q189.65 32.4 189.95 33.2 190.15 33.95 191.25 33.95 191.85 33.95 192.7 33.4 193.45 32.75 194.1 30.1 L195.85 22.85 Q196.3 20.8 196.0 20.0" fill="url(#gradient5)" fill-rule="evenodd" stroke="none"/>
    <path d="M243.9 0.75 L242.0 9.15 228.9 39.1 219.35 39.1 233.45 7.65 224.05 7.65 225.65 0.75 243.9 0.75" fill="url(#gradient6)" fill-rule="evenodd" stroke="none"/>
    <path d="M273.35 0.0 Q279.65 0.0 281.45 2.65 283.25 5.3 282.1 10.15 281.4 13.25 280.3 14.65 279.15 16.0 276.4 17.4 278.3 18.25 279.05 19.9 279.8 21.6 278.3 27.95 277.2 32.7 275.85 34.85 274.35 37.05 271.45 38.45 268.55 39.85 264.15 39.85 259.85 39.85 257.7 38.5 255.5 37.15 255.0 34.95 254.4 32.7 255.65 27.5 256.4 24.1 257.6 21.45 258.65 18.95 261.85 17.4 260.3 16.5 259.85 14.65 259.4 12.8 260.1 9.9 261.25 4.95 264.55 2.45 267.9 0.0 273.35 0.0 M272.05 5.9 Q271.1 5.9 270.6 6.55 270.15 7.2 269.7 9.05 L269.0 12.0 Q268.6 13.8 268.85 14.4 269.0 15.05 269.95 15.05 270.9 15.05 271.4 14.45 271.95 13.7 272.35 11.7 L273.0 9.05 Q273.4 7.1 273.2 6.5 273.05 5.9 272.05 5.9 M266.85 22.15 Q266.25 22.85 265.7 25.1 L264.55 30.05 Q263.95 32.5 264.3 33.3 264.55 33.95 265.65 33.95 266.6 33.95 267.2 33.25 267.65 32.6 268.25 30.0 L269.4 25.1 Q269.9 22.9 269.7 22.15 269.4 21.45 268.4 21.45 267.45 21.45 266.85 22.15" fill="url(#gradient7)" fill-rule="evenodd" stroke="none"/>
    <path d="M310.05 0.0 Q313.9 0.0 316.15 1.05 318.3 2.15 319.2 4.15 320.1 6.2 319.8 8.35 L314.45 31.35 Q313.7 33.6 311.75 35.7 309.8 37.8 307.1 38.8 304.4 39.85 301.1 39.85 297.05 39.85 294.8 38.55 292.45 37.2 291.95 34.9 291.3 32.5 292.15 28.95 L301.75 28.95 301.0 32.3 Q300.9 33.05 301.35 33.5 301.7 33.95 302.65 33.95 303.4 33.95 303.9 33.55 L304.75 32.4 306.95 23.4 Q305.9 24.9 304.25 25.7 302.65 26.45 300.5 26.45 297.9 26.45 296.2 25.05 294.5 23.6 294.45 21.65 294.3 19.8 295.15 16.25 L295.85 13.2 Q296.75 9.25 297.6 7.15 298.35 5.2 300.1 3.55 301.8 1.85 304.35 0.9 307.0 0.0 310.05 0.0 M310.4 6.65 Q310.1 5.9 309.1 5.9 308.45 5.9 307.65 6.45 306.85 7.1 306.2 9.75 L304.5 17.05 Q303.95 19.45 304.45 20.05 304.9 20.6 305.65 20.6 306.65 20.6 307.3 19.9 307.95 19.05 308.4 17.05 L310.05 10.0 Q310.65 7.5 310.4 6.65" fill="url(#gradient8)" fill-rule="evenodd" stroke="none"/>
    <path d="M352.65 1.1 Q354.85 2.25 355.75 3.8 356.6 5.35 356.55 7.4 356.45 9.4 355.55 13.7 L352.5 26.55 Q351.5 30.85 350.55 32.9 349.65 34.8 347.7 36.6 345.85 38.35 343.55 39.1 L338.65 39.85 Q335.2 39.85 333.1 39.05 331.0 38.3 330.05 36.6 329.1 34.95 328.95 33.05 328.8 31.15 329.8 27.15 L332.95 13.7 Q334.15 8.4 335.65 5.8 337.2 3.2 340.25 1.6 343.35 0.0 347.25 0.0 350.35 0.0 352.65 1.1 M346.05 5.9 Q344.95 5.9 344.4 6.7 343.85 7.55 343.2 10.45 L338.85 29.25 Q338.05 32.6 338.25 33.3 338.35 33.95 339.5 33.95 340.55 33.95 341.1 33.2 L342.25 29.55 347.3 6.65 Q347.15 5.9 346.05 5.9" fill="url(#gradient9)" fill-rule="evenodd" stroke="none"/>
  </g>
  <defs>
    <linearGradient gradientTransform="matrix(-0.0032, -0.0243, 0.0191, 0.0, 78.65, 19.9)" gradientUnits="userSpaceOnUse" id="gradient0" spreadMethod="pad" x1="-819.2" x2="819.2">
      <stop offset="0.1843137254901961" stop-color="#ff7700"/>
      <stop offset="0.7843137254901961" stop-color="#cc2232"/>
    </linearGradient>
    <linearGradient gradientTransform="matrix(-0.0032, -0.0243, 0.0191, 0.0, 82.05, 19.9)" gradientUnits="userSpaceOnUse" id="gradient1" spreadMethod="pad" x1="-819.2" x2="819.2">
      <stop offset="0.1843137254901961" stop-color="#ff7700"/>
      <stop offset="0.7843137254901961" stop-color="#cc2232"/>
    </linearGradient>
    <linearGradient gradientTransform="matrix(-0.0032, -0.0243, 0.0191, 0.0, 83.4, 19.9)" gradientUnits="userSpaceOnUse" id="gradient2" spreadMethod="pad" x1="-819.2" x2="819.2">
      <stop offset="0.1843137254901961" stop-color="#ff7700"/>
      <stop offset="0.7843137254901961" stop-color="#cc2232"/>
    </linearGradient>
    <linearGradient gradientTransform="matrix(-0.0032, -0.0243, 0.0191, 0.0, 87.95, 19.9)" gradientUnits="userSpaceOnUse" id="gradient3" spreadMethod="pad" x1="-819.2" x2="819.2">
      <stop offset="0.1843137254901961" stop-color="#ff7700"/>
      <stop offset="0.7843137254901961" stop-color="#cc2232"/>
    </linearGradient>
    <linearGradient gradientTransform="matrix(-0.0032, -0.0243, 0.0191, 0.0, 91.95, 19.9)" gradientUnits="userSpaceOnUse" id="gradient4" spreadMethod="pad" x1="-819.2" x2="819.2">
      <stop offset="0.1843137254901961" stop-color="#ff7700"/>
      <stop offset="0.7843137254901961" stop-color="#cc2232"/>
    </linearGradient>
    <linearGradient gradientTransform="matrix(-0.0032, -0.0243, 0.0191, 0.0, 92.75, 19.9)" gradientUnits="userSpaceOnUse" id="gradient5" spreadMethod="pad" x1="-819.2" x2="819.2">
      <stop offset="0.1843137254901961" stop-color="#ff7700"/>
      <stop offset="0.7843137254901961" stop-color="#cc2232"/>
    </linearGradient>
    <linearGradient gradientTransform="matrix(-0.0032, -0.0243, 0.0191, 0.0, 93.45, 19.9)" gradientUnits="userSpaceOnUse" id="gradient6" spreadMethod="pad" x1="-819.2" x2="819.2">
      <stop offset="0.1843137254901961" stop-color="#ff7700"/>
      <stop offset="0.7843137254901961" stop-color="#cc2232"/>
    </linearGradient>
    <linearGradient gradientTransform="matrix(-0.0032, -0.0243, 0.0191, 0.0, 95.7, 19.9)" gradientUnits="userSpaceOnUse" id="gradient7" spreadMethod="pad" x1="-819.2" x2="819.2">
      <stop offset="0.1843137254901961" stop-color="#ff7700"/>
      <stop offset="0.7843137254901961" stop-color="#cc2232"/>
    </linearGradient>
    <linearGradient gradientTransform="matrix(-0.0032, -0.0243, 0.0191, 0.0, 90.65, 19.9)" gradientUnits="userSpaceOnUse" id="gradient8" spreadMethod="pad" x1="-819.2" x2="819.2">
      <stop offset="0.1843137254901961" stop-color="#ff7700"/>
      <stop offset="0.7843137254901961" stop-color="#cc2232"/>
    </linearGradient>
    <linearGradient gradientTransform="matrix(-0.0032, -0.0243, 0.0191, 0.0, 89.15, 19.9)" gradientUnits="userSpaceOnUse" id="gradient9" spreadMethod="pad" x1="-819.2" x2="819.2">
      <stop offset="0.1843137254901961" stop-color="#ff7700"/>
      <stop offset="0.7843137254901961" stop-color="#cc2232"/>
    </linearGradient>
  </defs>
</svg>
