<?xml version="1.0" encoding="UTF-8" standalone="no"?>
<svg xmlns:xlink="http://www.w3.org/1999/xlink" height="16.2px" width="52.95px" xmlns="http://www.w3.org/2000/svg">
  <g transform="matrix(1.0, 0.0, 0.0, 1.0, 0.0, 0.0)">
    <path d="M8.0 0.0 L13.4 0.0 13.4 16.2 8.0 16.2 8.0 9.7 5.4 9.7 5.4 16.2 0.0 16.2 0.0 0.0 5.4 0.0 5.4 5.8 8.0 5.8 8.0 0.0" fill="#ffffff" fill-rule="evenodd" stroke="none"/>
    <path d="M25.75 5.95 L25.75 9.85 21.6 9.85 21.6 12.35 26.25 12.35 26.25 16.2 16.2 16.2 16.2 0.0 26.25 0.0 26.25 3.9 21.6 3.9 21.6 5.95 25.75 5.95" fill="#ffffff" fill-rule="evenodd" stroke="none"/>
    <path d="M38.0 16.2 L28.55 16.2 28.55 0.0 33.95 0.0 33.95 12.35 38.0 12.35 38.0 16.2" fill="#ffffff" fill-rule="evenodd" stroke="none"/>
    <path d="M50.55 9.7 Q48.95 10.7 45.9 10.65 L45.05 10.65 45.05 16.2 39.65 16.2 39.65 0.0 44.9 0.0 Q48.8 0.0 50.7 1.25 52.95 2.75 52.95 5.4 52.9 8.3 50.55 9.7 M45.45 3.55 L45.05 3.55 45.05 7.25 45.3 7.25 Q46.3 7.3 46.85 6.8 47.45 6.3 47.45 5.45 47.45 4.6 46.9 4.1 46.3 3.55 45.45 3.55" fill="#ffffff" fill-rule="evenodd" stroke="none"/>
  </g>
</svg>
