<?xml version="1.0" encoding="UTF-8" standalone="no"?>
<svg xmlns:xlink="http://www.w3.org/1999/xlink" height="255.15px" width="317.35px" xmlns="http://www.w3.org/2000/svg">
  <g transform="matrix(1.0, 0.0, 0.0, 1.0, 1.4, 1.5)">
    <path d="M74.2 65.7 L73.4 66.0 72.6 65.75 74.2 65.7" fill="#9c9c9c" fill-rule="evenodd" stroke="none"/>
    <path d="M167.05 33.9 Q163.4 33.5 163.05 28.95 163.4 24.4 167.05 24.0 170.7 24.4 171.05 28.95 170.7 33.5 167.05 33.9 M146.5 28.95 Q146.15 33.5 142.5 33.9 138.85 33.5 138.5 28.95 138.85 24.4 142.5 24.0 146.15 24.4 146.5 28.95" fill="#000000" fill-rule="evenodd" stroke="none"/>
    <path d="M200.05 89.85 Q203.55 96.35 211.35 95.95 L162.45 132.95 Q175.55 107.95 189.0 83.1 192.8 76.1 196.9 69.25 L205.15 55.5 217.3 59.05 215.2 82.75 200.1 89.4 200.05 89.85 M218.05 84.35 L220.25 60.15 225.75 62.4 225.45 78.2 243.3 128.8 252.0 188.2 253.8 250.6 159.4 250.65 159.45 140.65 161.4 137.5 215.2 96.8 215.6 96.45 215.85 95.45 215.6 94.95 205.25 90.0 217.55 85.05 218.05 84.35 M228.7 63.35 L244.8 68.05 280.15 102.7 300.5 141.1 312.7 212.65 304.7 213.6 304.4 213.4 303.55 213.3 287.4 215.65 287.2 215.65 266.6 218.05 Q264.85 206.3 261.2 195.3 258.6 187.55 253.95 180.6 L246.25 128.15 246.2 127.85 228.35 77.45 228.7 63.35 M89.65 90.95 L112.15 90.75 102.8 98.65 103.4 100.3 151.6 133.7 156.45 140.7 156.4 250.65 55.85 250.65 59.25 146.15 76.3 86.1 76.05 68.35 87.75 62.85 89.0 90.5 89.65 90.95 M91.6 88.05 L90.7 61.65 102.2 57.6 151.7 130.15 106.75 98.95 117.7 90.0 117.55 88.35 117.25 87.95 Q107.6 87.3 98.0 87.65 L91.6 88.05 M69.3 70.95 L73.05 69.4 73.35 85.5 56.25 145.85 55.1 181.65 Q50.9 189.2 47.55 197.25 46.55 199.6 45.65 202.05 L43.85 206.9 42.2 211.85 40.65 216.8 32.05 216.0 32.95 216.55 31.85 216.0 2.1 213.25 2.1 175.55 24.35 122.0 69.3 70.95" fill="#591f0b" fill-rule="evenodd" stroke="none"/>
    <path d="M105.5 53.3 L105.0 54.05 103.9 53.75 104.5 53.3 105.5 53.3 M171.85 85.4 L184.3 85.7 175.5 103.35 164.7 89.85 170.35 81.15 171.85 85.4 M186.85 85.55 L186.85 85.5 186.9 85.5 186.85 85.55 M185.25 82.7 L173.9 82.7 170.25 69.5 201.2 56.45 185.25 82.7 M108.0 58.05 L141.9 70.35 134.7 86.4 121.4 80.35 105.7 57.4 108.0 58.05 M134.9 89.7 Q136.2 90.25 136.85 89.05 L140.55 80.8 148.4 90.65 137.55 104.1 124.7 85.15 134.9 89.7" fill="#d1b8a2" fill-rule="evenodd" stroke="none"/>
    <path d="M105.5 53.3 L115.7 37.5 Q110.8 29.55 114.05 20.8 115.95 15.75 120.1 12.35 126.65 7.05 135.05 7.9 L137.3 5.6 Q141.1 1.55 145.35 -1.5 L170.9 -1.5 171.4 -1.3 Q177.05 2.5 181.35 8.05 187.6 10.0 191.4 15.35 197.4 23.65 194.1 33.2 L203.75 52.4 204.85 52.25 Q212.1 54.35 219.25 56.8 L227.95 59.65 246.3 65.55 246.6 65.65 282.4 100.7 282.7 101.05 303.25 139.9 303.4 140.35 315.95 213.7 315.7 214.9 315.35 215.05 314.65 215.45 306.65 216.4 313.75 227.65 Q314.15 228.35 313.4 229.0 L286.45 252.35 285.9 252.4 Q285.4 252.25 285.05 251.95 280.1 248.35 275.45 244.4 275.1 244.15 275.15 243.75 L276.2 239.4 272.0 237.55 Q271.35 237.2 271.3 236.65 270.85 230.9 271.35 225.25 271.6 222.8 272.75 220.4 L265.0 220.8 264.4 220.35 Q263.5 217.15 262.95 213.85 260.65 200.55 255.0 188.35 L256.85 252.05 256.5 253.2 255.35 253.6 54.3 253.65 53.55 253.45 52.8 252.1 54.9 188.35 Q47.7 203.3 42.65 219.2 42.55 219.6 42.1 219.45 L39.35 219.7 Q40.55 221.9 40.9 224.25 41.7 229.7 41.55 235.25 41.55 235.9 41.05 236.25 L37.0 238.35 38.45 242.1 Q38.8 243.0 38.0 243.75 L28.8 252.0 Q27.95 252.1 27.35 251.65 L-0.95 230.85 Q-1.65 230.3 -1.2 229.45 2.0 222.95 5.5 216.6 L-0.05 216.0 -0.9 214.6 -0.9 175.25 -0.75 174.7 21.7 120.6 21.95 120.15 67.3 68.7 73.4 66.0 74.2 65.7 88.1 59.6 Q96.05 56.25 103.9 53.75 L105.0 54.05 105.5 53.3 M175.35 10.2 Q168.35 10.2 163.4 15.0 158.4 19.8 158.4 26.55 158.4 33.3 163.4 38.1 168.35 42.9 175.35 42.9 182.35 42.9 187.35 38.1 192.3 33.3 192.3 26.55 192.3 19.8 187.35 15.0 182.35 10.2 175.35 10.2 M176.75 7.2 L170.35 1.5 145.95 1.5 138.7 8.6 149.9 12.35 150.65 12.95 150.4 13.95 149.35 14.5 147.4 14.1 149.6 17.1 Q152.2 20.95 152.45 25.55 L155.45 25.55 155.8 23.4 Q156.9 17.9 160.5 13.55 L158.15 14.05 156.9 12.95 157.0 11.8 168.25 8.5 176.75 7.2 M177.25 58.4 L176.5 58.6 Q167.75 53.25 157.5 52.5 143.25 52.35 130.2 58.5 L129.7 57.3 Q130.65 56.7 131.7 56.2 137.45 53.5 143.55 51.95 152.35 49.6 161.15 50.85 170.25 52.05 177.6 57.3 L177.25 58.4 M192.4 36.6 Q191.25 38.65 189.55 40.2 182.1 47.15 172.0 45.65 L181.9 51.9 184.0 57.1 182.7 57.7 180.4 53.3 168.9 46.0 Q164.2 42.85 160.3 38.85 156.1 34.6 155.5 28.55 L152.4 28.55 152.1 30.55 151.65 32.45 150.3 36.0 Q149.15 38.65 146.9 40.45 138.0 47.65 127.8 53.3 L125.5 57.7 124.5 57.4 126.35 51.9 135.15 46.35 Q124.85 47.35 117.65 39.95 L108.0 54.85 156.0 72.3 200.85 53.35 192.4 36.6 M162.0 88.45 L169.3 77.25 167.45 70.7 155.9 75.1 144.75 71.4 141.9 77.75 151.0 89.1 162.0 88.45 M171.85 85.4 L170.35 81.15 164.7 89.85 175.5 103.35 184.3 85.7 171.85 85.4 M200.05 89.85 L200.1 89.4 215.2 82.75 217.3 59.05 205.15 55.5 196.9 69.25 Q192.8 76.1 189.0 83.1 175.55 107.95 162.45 132.95 L211.35 95.95 Q203.55 96.35 200.05 89.85 M186.85 85.55 L186.9 85.5 186.85 85.5 186.85 85.55 M185.25 82.7 L201.2 56.45 170.25 69.5 173.9 82.7 185.25 82.7 M228.7 63.35 L228.35 77.45 246.2 127.85 246.25 128.15 253.95 180.6 Q258.6 187.55 261.2 195.3 264.85 206.3 266.6 218.05 L287.2 215.65 287.4 215.65 303.55 213.3 304.4 213.4 304.7 213.6 312.7 212.65 300.5 141.1 280.15 102.7 244.8 68.05 228.7 63.35 M218.05 84.35 L217.55 85.05 205.25 90.0 215.6 94.95 215.85 95.45 215.6 96.45 215.2 96.8 161.4 137.5 159.45 140.65 159.4 250.65 253.8 250.6 252.0 188.2 243.3 128.8 225.45 78.2 225.75 62.4 220.25 60.15 218.05 84.35 M173.8 106.1 L162.2 91.45 151.1 92.1 139.35 106.7 158.25 134.3 173.8 106.1 M139.1 11.95 Q131.15 9.1 124.05 13.4 118.3 16.8 116.45 23.15 114.3 30.45 118.75 36.5 123.35 42.7 130.85 43.35 139.65 44.2 145.45 37.5 150.05 32.2 149.2 25.4 148.05 15.8 139.1 11.95 M150.8 41.3 L151.75 42.15 Q155.2 43.2 159.05 43.35 L160.0 42.25 Q160.75 42.15 161.45 42.7 162.2 43.2 162.1 44.05 L160.45 45.4 154.5 46.05 Q150.65 45.9 148.6 42.9 149.05 41.1 150.8 41.3 M108.0 58.05 L105.7 57.4 121.4 80.35 134.7 86.4 141.9 70.35 108.0 58.05 M91.6 88.05 L98.0 87.65 Q107.6 87.3 117.25 87.95 L117.55 88.35 117.7 90.0 106.75 98.95 151.7 130.15 102.2 57.6 90.7 61.65 91.6 88.05 M89.65 90.95 L89.0 90.5 87.75 62.85 76.05 68.35 76.3 86.1 59.25 146.15 55.85 250.65 156.4 250.65 156.45 140.7 151.6 133.7 103.4 100.3 102.8 98.65 112.15 90.75 89.65 90.95 M134.9 89.7 L124.7 85.15 137.55 104.1 148.4 90.65 140.55 80.8 136.85 89.05 Q136.2 90.25 134.9 89.7 M69.3 70.95 L24.35 122.0 2.1 175.55 2.1 213.25 31.85 216.0 32.95 216.55 32.05 216.0 40.65 216.8 42.2 211.85 43.85 206.9 45.65 202.05 Q46.55 199.6 47.55 197.25 50.9 189.2 55.1 181.65 L56.25 145.85 73.35 85.5 73.05 69.4 69.3 70.95 M38.85 224.9 L35.7 219.4 8.45 217.45 1.95 229.15 28.1 248.65 35.3 242.25 33.85 238.55 Q30.35 235.75 27.2 232.65 26.35 231.8 27.5 231.2 L28.3 231.15 35.25 235.85 38.7 234.25 38.85 224.9 M284.7 231.1 L285.25 231.35 286.0 233.3 279.35 239.35 278.2 243.15 285.8 249.0 310.45 227.6 303.05 216.35 276.15 220.25 273.35 226.1 274.25 235.45 277.75 236.8 284.7 231.1" fill="#1a1a1a" fill-rule="evenodd" stroke="none"/>
    <path d="M176.75 7.2 L168.25 8.5 157.0 11.8 156.9 12.95 158.15 14.05 160.5 13.55 Q156.9 17.9 155.8 23.4 L155.45 25.55 152.45 25.55 Q152.2 20.95 149.6 17.1 L147.4 14.1 149.35 14.5 150.4 13.95 150.65 12.95 149.9 12.35 138.7 8.6 145.95 1.5 170.35 1.5 176.75 7.2 M192.4 36.6 L200.85 53.35 156.0 72.3 108.0 54.85 117.65 39.95 Q124.85 47.35 135.15 46.35 L126.35 51.9 124.5 57.4 125.5 57.7 127.8 53.3 Q138.0 47.65 146.9 40.45 149.15 38.65 150.3 36.0 L151.65 32.45 152.1 30.55 152.4 28.55 155.5 28.55 Q156.1 34.6 160.3 38.85 164.2 42.85 168.9 46.0 L180.4 53.3 182.7 57.7 184.0 57.1 181.9 51.9 172.0 45.65 Q182.1 47.15 189.55 40.2 191.25 38.65 192.4 36.6 M177.25 58.4 L177.6 57.3 Q170.25 52.05 161.15 50.85 152.35 49.6 143.55 51.95 137.45 53.5 131.7 56.2 130.65 56.7 129.7 57.3 L130.2 58.5 Q143.25 52.35 157.5 52.5 167.75 53.25 176.5 58.6 L177.25 58.4 M150.8 41.3 Q149.05 41.1 148.6 42.9 150.65 45.9 154.5 46.05 L160.45 45.4 162.1 44.05 Q162.2 43.2 161.45 42.7 160.75 42.15 160.0 42.25 L159.05 43.35 Q155.2 43.2 151.75 42.15 L150.8 41.3 M38.85 224.9 L38.7 234.25 35.25 235.85 28.3 231.15 27.5 231.2 Q26.35 231.8 27.2 232.65 30.35 235.75 33.85 238.55 L35.3 242.25 28.1 248.65 1.95 229.15 8.45 217.45 35.7 219.4 38.85 224.9 M284.7 231.1 L277.75 236.8 274.25 235.45 273.35 226.1 276.15 220.25 303.05 216.35 310.45 227.6 285.8 249.0 278.2 243.15 279.35 239.35 286.0 233.3 285.25 231.35 284.7 231.1" fill="#e6c6b0" fill-rule="evenodd" stroke="none"/>
    <path d="M175.35 10.2 Q182.35 10.2 187.35 15.0 192.3 19.8 192.3 26.55 192.3 33.3 187.35 38.1 182.35 42.9 175.35 42.9 168.35 42.9 163.4 38.1 158.4 33.3 158.4 26.55 158.4 19.8 163.4 15.0 168.35 10.2 175.35 10.2 M167.05 33.9 Q170.7 33.5 171.05 28.95 170.7 24.4 167.05 24.0 163.4 24.4 163.05 28.95 163.4 33.5 167.05 33.9 M139.1 11.95 Q148.05 15.8 149.2 25.4 150.05 32.2 145.45 37.5 139.65 44.2 130.85 43.35 123.35 42.7 118.75 36.5 114.3 30.45 116.45 23.15 118.3 16.8 124.05 13.4 131.15 9.1 139.1 11.95 M146.5 28.95 Q146.15 24.4 142.5 24.0 138.85 24.4 138.5 28.95 138.85 33.5 142.5 33.9 146.15 33.5 146.5 28.95" fill="#cfecef" fill-rule="evenodd" stroke="none"/>
    <path d="M162.0 88.45 L151.0 89.1 141.9 77.75 144.75 71.4 155.9 75.1 167.45 70.7 169.3 77.25 162.0 88.45 M173.8 106.1 L158.25 134.3 139.35 106.7 151.1 92.1 162.2 91.45 173.8 106.1" fill="#331c1a" fill-rule="evenodd" stroke="none"/>
  </g>
</svg>
