<?xml version="1.0" encoding="UTF-8" standalone="no"?>
<svg xmlns:xlink="http://www.w3.org/1999/xlink" height="71.5px" width="299.75px" xmlns="http://www.w3.org/2000/svg">
  <g transform="matrix(1.0, 0.0, 0.0, 1.0, 219.0, 151.95)">
    <path d="M-217.5 -140.45 L-217.5 -137.45 Q-217.5 -133.3 -214.6 -130.4 -211.65 -127.45 -207.5 -127.45 L-114.45 -127.45 Q-110.3 -127.45 -107.4 -130.4 -104.45 -133.3 -104.45 -137.45 L-104.45 -140.45 Q-104.45 -144.6 -107.4 -147.55 -110.3 -150.45 -114.45 -150.45 L-207.5 -150.45 Q-211.65 -150.45 -214.6 -147.55 -217.5 -144.6 -217.5 -140.45 Z" fill="none" stroke="#ff0000" stroke-linecap="round" stroke-linejoin="round" stroke-width="3.0"/>
    <path d="M79.25 -137.0 L66.2 -137.0" fill="none" stroke="#ff0000" stroke-linecap="round" stroke-linejoin="round" stroke-width="3.0"/>
    <path d="M79.25 -115.95 L66.2 -115.95" fill="none" stroke="#ff0000" stroke-linecap="round" stroke-linejoin="round" stroke-width="3.0"/>
    <path d="M79.25 -97.95 L66.2 -97.95" fill="none" stroke="#ff0000" stroke-linecap="round" stroke-linejoin="round" stroke-width="3.0"/>
    <path d="M79.25 -81.95 L66.2 -81.95" fill="none" stroke="#ff0000" stroke-linecap="round" stroke-linejoin="round" stroke-width="3.0"/>
  </g>
</svg>
