<?xml version="1.0" encoding="UTF-8" standalone="no"?>
<svg xmlns:xlink="http://www.w3.org/1999/xlink" height="51.2px" width="219.45px" xmlns="http://www.w3.org/2000/svg">
  <g transform="matrix(1.0, 0.0, 0.0, 1.0, 113.95, 44.6)">
    <path d="M80.3 -33.35 Q80.5 -30.8 79.25 -25.95 L78.85 -24.25 70.05 -24.25 70.95 -27.8 Q71.8 -31.2 71.7 -32.05 71.65 -32.9 70.75 -32.9 69.9 -32.9 69.5 -32.2 69.0 -31.45 68.25 -28.4 L63.5 -9.45 Q62.8 -6.8 62.9 -5.95 62.95 -5.1 63.85 -5.1 64.8 -5.1 65.4 -6.05 L66.65 -9.75 67.85 -14.45 66.1 -14.45 67.6 -20.45 77.9 -20.45 72.55 0.75 66.95 0.75 66.95 -2.1 Q65.5 -0.25 64.0 0.7 62.35 1.6 60.5 1.6 58.3 1.6 56.65 0.35 55.1 -0.95 54.5 -2.8 54.0 -4.65 54.2 -6.65 54.5 -8.7 55.5 -12.8 L58.45 -24.55 Q59.9 -30.2 61.05 -32.75 62.25 -35.35 65.25 -37.45 68.25 -39.6 72.15 -39.6 76.0 -39.6 78.15 -37.75 80.2 -35.9 80.3 -33.35 M98.5 -30.85 L92.65 -30.85 90.75 -23.35 96.2 -23.35 94.35 -15.85 88.9 -15.85 86.7 -7.15 93.1 -7.15 91.1 0.75 75.9 0.75 85.85 -38.8 100.5 -38.8 98.5 -30.85 M5.05 -32.15 Q4.5 -31.4 4.1 -29.85 3.6 -27.9 3.8 -26.9 4.0 -25.9 5.7 -24.45 10.5 -20.4 11.35 -17.8 12.25 -15.15 10.8 -9.35 9.75 -5.15 8.4 -3.15 7.05 -1.15 4.25 0.25 1.55 1.6 -1.7 1.6 -5.2 1.6 -7.3 0.0 -9.4 -1.55 -9.6 -3.95 -9.75 -6.4 -8.65 -10.8 L-8.0 -13.4 0.15 -13.4 -1.05 -8.6 Q-1.6 -6.4 -1.4 -5.75 -1.2 -5.1 -0.3 -5.1 0.55 -5.1 1.2 -5.9 1.8 -6.7 2.2 -8.3 3.05 -11.8 2.55 -12.85 1.95 -13.95 -0.65 -16.45 -3.35 -19.0 -4.1 -20.15 -4.85 -21.3 -5.05 -23.3 -5.25 -25.35 -4.45 -28.5 -3.3 -33.05 -1.85 -35.15 -0.3 -37.25 2.2 -38.4 4.75 -39.6 7.85 -39.6 11.3 -39.6 13.35 -38.3 15.45 -37.0 15.7 -35.05 16.05 -33.1 14.9 -28.4 L14.5 -26.8 6.35 -26.8 7.05 -29.75 Q7.6 -31.8 7.35 -32.35 7.2 -32.9 6.45 -32.9 5.65 -32.9 5.05 -32.15 M17.45 -30.85 L19.45 -38.8 38.6 -38.8 36.6 -30.85 31.4 -30.85 23.45 0.75 14.65 0.75 22.6 -30.85 17.45 -30.85 M55.8 -38.8 L50.9 0.75 41.9 0.75 43.25 -6.35 40.1 -6.35 37.75 0.75 28.7 0.75 43.1 -38.8 55.8 -38.8 M44.8 -13.35 Q45.8 -20.1 47.55 -29.95 43.4 -18.6 41.75 -13.35 L44.8 -13.35 M-50.1 -38.8 L-60.05 0.75 -67.75 0.75 -67.8 -17.2 -72.3 0.75 -79.65 0.75 -69.7 -38.8 -62.35 -38.8 -61.95 -21.0 -57.45 -38.8 -50.1 -38.8 M-16.1 -38.8 L-24.05 -7.15 -18.7 -7.15 -20.7 0.75 -34.85 0.75 -24.9 -38.8 -16.1 -38.8 M-31.4 -38.8 L-36.3 0.75 -45.3 0.75 -43.95 -6.35 -47.1 -6.35 -49.45 0.75 -58.5 0.75 -44.1 -38.8 -31.4 -38.8 M-42.4 -13.35 L-39.65 -29.95 -45.45 -13.35 -42.4 -13.35 M-83.15 0.75 L-91.95 0.75 -82.0 -38.8 -73.2 -38.8 -83.15 0.75" fill="none" stroke="#ffffff" stroke-linecap="round" stroke-linejoin="round" stroke-width="10.0"/>
    <path d="M-84.15 -38.8 L-86.15 -30.85 -92.2 -30.85 -94.1 -23.35 -88.7 -23.35 -90.55 -15.85 -95.95 -15.85 -100.15 0.75 -108.95 0.75 -99.0 -38.8 -84.15 -38.8" fill="none" stroke="#ffffff" stroke-linecap="round" stroke-linejoin="round" stroke-width="10.0"/>
    <path d="M80.3 -33.35 Q80.5 -30.8 79.25 -25.95 L78.85 -24.25 70.05 -24.25 70.95 -27.8 Q71.8 -31.2 71.7 -32.05 71.65 -32.9 70.75 -32.9 69.9 -32.9 69.5 -32.2 69.0 -31.45 68.25 -28.4 L63.5 -9.45 Q62.8 -6.8 62.9 -5.95 62.95 -5.1 63.85 -5.1 64.8 -5.1 65.4 -6.05 L66.65 -9.75 67.85 -14.45 66.1 -14.45 67.6 -20.45 77.9 -20.45 72.55 0.75 66.95 0.75 66.95 -2.1 Q65.5 -0.25 64.0 0.7 62.35 1.6 60.5 1.6 58.3 1.6 56.65 0.35 55.1 -0.95 54.5 -2.8 54.0 -4.65 54.2 -6.65 54.5 -8.7 55.5 -12.8 L58.45 -24.55 Q59.9 -30.2 61.05 -32.75 62.25 -35.35 65.25 -37.45 68.25 -39.6 72.15 -39.6 76.0 -39.6 78.15 -37.75 80.2 -35.9 80.3 -33.35 M98.5 -30.85 L92.65 -30.85 90.75 -23.35 96.2 -23.35 94.35 -15.85 88.9 -15.85 86.7 -7.15 93.1 -7.15 91.1 0.75 75.9 0.75 85.85 -38.8 100.5 -38.8 98.5 -30.85 M5.05 -32.15 Q4.5 -31.4 4.1 -29.85 3.6 -27.9 3.8 -26.9 4.0 -25.9 5.7 -24.45 10.5 -20.4 11.35 -17.8 12.25 -15.15 10.8 -9.35 9.75 -5.15 8.4 -3.15 7.05 -1.15 4.25 0.25 1.55 1.6 -1.7 1.6 -5.2 1.6 -7.3 0.0 -9.4 -1.55 -9.6 -3.95 -9.75 -6.4 -8.65 -10.8 L-8.0 -13.4 0.15 -13.4 -1.05 -8.6 Q-1.6 -6.4 -1.4 -5.75 -1.2 -5.1 -0.3 -5.1 0.55 -5.1 1.2 -5.9 1.8 -6.7 2.2 -8.3 3.05 -11.8 2.55 -12.85 1.95 -13.95 -0.65 -16.45 -3.35 -19.0 -4.1 -20.15 -4.85 -21.3 -5.05 -23.3 -5.25 -25.35 -4.45 -28.5 -3.3 -33.05 -1.85 -35.15 -0.3 -37.25 2.2 -38.4 4.75 -39.6 7.85 -39.6 11.3 -39.6 13.35 -38.3 15.45 -37.0 15.7 -35.05 16.05 -33.1 14.9 -28.4 L14.5 -26.8 6.35 -26.8 7.05 -29.75 Q7.6 -31.8 7.35 -32.35 7.2 -32.9 6.45 -32.9 5.65 -32.9 5.05 -32.15 M17.45 -30.85 L19.45 -38.8 38.6 -38.8 36.6 -30.85 31.4 -30.85 23.45 0.75 14.65 0.75 22.6 -30.85 17.45 -30.85 M55.8 -38.8 L50.9 0.75 41.9 0.75 43.25 -6.35 40.1 -6.35 37.75 0.75 28.7 0.75 43.1 -38.8 55.8 -38.8 M44.8 -13.35 Q45.8 -20.1 47.55 -29.95 43.4 -18.6 41.75 -13.35 L44.8 -13.35 M-50.1 -38.8 L-60.05 0.75 -67.75 0.75 -67.8 -17.2 -72.3 0.75 -79.65 0.75 -69.7 -38.8 -62.35 -38.8 -61.95 -21.0 -57.45 -38.8 -50.1 -38.8 M-16.1 -38.8 L-24.05 -7.15 -18.7 -7.15 -20.7 0.75 -34.85 0.75 -24.9 -38.8 -16.1 -38.8 M-31.4 -38.8 L-36.3 0.75 -45.3 0.75 -43.95 -6.35 -47.1 -6.35 -49.45 0.75 -58.5 0.75 -44.1 -38.8 -31.4 -38.8 M-84.15 -38.8 L-86.15 -30.85 -92.2 -30.85 -94.1 -23.35 -88.7 -23.35 -90.55 -15.85 -95.95 -15.85 -100.15 0.75 -108.95 0.75 -99.0 -38.8 -84.15 -38.8 M-42.4 -13.35 L-39.65 -29.95 -45.45 -13.35 -42.4 -13.35 M-83.15 0.75 L-91.95 0.75 -82.0 -38.8 -73.2 -38.8 -83.15 0.75" fill="url(#gradient0)" fill-rule="evenodd" stroke="none"/>
  </g>
  <defs>
    <linearGradient gradientTransform="matrix(0.0065, -0.026, 0.854, -3.0E-4, -36.15, -18.95)" gradientUnits="userSpaceOnUse" id="gradient0" spreadMethod="pad" x1="-819.2" x2="819.2">
      <stop offset="0.1843137254901961" stop-color="#ff7700"/>
      <stop offset="0.7843137254901961" stop-color="#cc2232"/>
    </linearGradient>
  </defs>
</svg>
