<?xml version="1.0" encoding="UTF-8" standalone="no"?>
<svg xmlns:xlink="http://www.w3.org/1999/xlink" height="225.45px" width="236.85px" xmlns="http://www.w3.org/2000/svg">
  <g transform="matrix(1.0, 0.0, 0.0, 1.0, -0.25, -0.05)">
    <path d="M195.85 74.25 Q196.15 80.5 198.6 86.1 198.9 86.75 199.65 86.9 L200.5 86.45 Q201.3 85.2 200.95 83.75 196.4 64.1 201.85 44.75 L203.15 39.95 Q203.7 37.7 202.7 35.45 202.1 34.0 200.5 33.8 L199.25 34.65 Q201.1 35.45 201.65 37.3 202.15 39.1 201.4 40.85 197.85 49.75 196.25 59.05 194.95 57.05 192.9 55.35 194.5 48.8 196.9 43.45 198.6 39.75 197.45 37.6 196.85 36.45 195.5 35.95 L195.5 31.7 Q199.05 31.7 201.7 33.65 205.25 36.2 204.15 40.4 201.2 52.5 200.5 60.55 199.7 70.0 201.45 78.85 202.55 84.35 202.2 86.95 201.55 91.15 197.4 91.7 192.65 92.35 190.2 88.0 188.3 84.65 188.7 79.7 193.65 77.55 195.85 74.25 M171.8 35.85 L170.85 35.5 Q173.4 35.2 175.35 33.0 180.5 27.2 185.7 22.05 L186.65 22.3 184.5 23.9 182.15 26.95 183.5 28.2 Q185.85 30.95 186.0 34.55 L185.25 32.4 Q184.45 30.1 182.45 28.7 L181.35 28.0 180.55 29.05 Q184.75 37.7 179.1 45.2 178.35 46.15 177.2 45.8 175.25 45.4 174.5 43.65 173.2 40.7 173.85 37.45 L178.05 36.5 174.0 35.05 173.1 35.5 171.8 35.85 M142.9 29.75 Q144.4 23.25 150.65 22.75 L153.4 22.9 Q157.7 24.15 158.65 28.7 L157.35 27.4 156.7 26.6 Q160.15 34.35 155.9 41.5 155.15 42.75 153.55 42.2 148.3 40.3 148.45 34.65 L153.35 32.9 148.3 32.25 Q148.55 30.1 149.05 28.1 150.2 23.7 154.55 24.75 153.7 24.35 152.85 24.2 145.6 22.8 142.9 29.75 M159.8 47.5 L160.35 46.95 Q165.65 43.3 172.2 44.85 176.05 45.65 178.0 48.2 L178.45 48.8 179.05 49.9 Q180.15 54.5 175.25 55.55 171.2 56.45 166.9 55.75 164.25 55.55 161.7 54.6 157.1 52.85 159.05 48.4 L159.8 47.5 M168.15 47.55 Q168.0 49.0 171.0 49.55 174.65 50.2 175.45 48.85 175.75 48.35 175.4 47.65 176.65 48.25 177.35 49.0 L176.2 47.55 173.45 45.85 Q168.95 44.05 162.9 46.15 L169.15 46.35 Q168.25 46.85 168.15 47.55 M176.95 53.2 Q168.9 55.6 160.8 52.9 165.0 55.45 169.75 55.5 174.0 55.8 176.95 53.2 M128.65 24.6 L124.25 24.9 Q120.8 26.35 120.5 31.3 120.4 32.45 120.6 40.65 120.75 48.9 120.4 54.5 119.2 73.1 111.85 78.35 107.65 81.35 104.2 81.45 101.05 81.55 99.5 79.4 98.0 77.25 98.75 74.05 99.6 70.55 102.85 67.3 108.7 61.35 111.45 48.45 112.95 41.65 113.9 28.8 114.45 21.45 118.35 19.6 122.05 17.8 130.0 20.5 L130.85 20.8 Q134.05 22.4 130.9 24.4 L129.6 24.8 128.65 24.6 M146.95 16.4 Q147.65 14.6 149.55 13.65 152.35 12.35 153.4 15.4 154.65 19.2 157.25 22.4 159.55 25.2 162.55 26.8 155.35 24.2 153.15 16.45 152.6 14.5 150.65 14.1 148.4 14.7 146.95 16.4 M117.45 36.15 Q117.7 51.35 113.6 65.65 L112.4 69.1 Q110.85 72.8 107.3 74.25 104.45 75.3 102.0 77.15 L101.85 77.95 Q103.9 80.4 106.75 78.95 115.05 74.9 117.1 65.95 120.05 53.25 118.5 40.45 L117.45 36.15" fill="#01000f" fill-rule="evenodd" stroke="none"/>
    <path d="M196.25 59.05 Q197.85 49.75 201.4 40.85 202.15 39.1 201.65 37.3 201.1 35.45 199.25 34.65 L200.5 33.8 Q202.1 34.0 202.7 35.45 203.7 37.7 203.15 39.95 L201.85 44.75 Q196.4 64.1 200.95 83.75 201.3 85.2 200.5 86.45 L199.65 86.9 Q198.9 86.75 198.6 86.1 196.15 80.5 195.85 74.25 L196.45 73.0 Q200.25 65.85 196.25 59.05 M168.15 47.55 Q168.25 46.85 169.15 46.35 L162.9 46.15 Q168.95 44.05 173.45 45.85 L176.2 47.55 177.35 49.0 Q176.65 48.25 175.4 47.65 175.75 48.35 175.45 48.85 174.65 50.2 171.0 49.55 168.0 49.0 168.15 47.55 M168.95 47.35 Q168.8 48.45 171.25 48.85 174.2 49.35 174.8 48.35 175.1 47.85 174.6 47.2 174.0 46.4 172.6 46.15 L169.8 46.35 Q169.0 46.75 168.95 47.35 M176.95 53.2 Q174.0 55.8 169.75 55.5 165.0 55.45 160.8 52.9 168.9 55.6 176.95 53.2 M117.45 36.15 L118.5 40.45 Q120.05 53.25 117.1 65.95 115.05 74.9 106.75 78.95 103.9 80.4 101.85 77.95 L102.0 77.15 Q104.45 75.3 107.3 74.25 110.85 72.8 112.4 69.1 L113.6 65.65 Q117.7 51.35 117.45 36.15" fill="#06082e" fill-rule="evenodd" stroke="none"/>
    <path d="M142.85 85.5 L147.8 85.35 146.65 88.6 Q144.15 87.7 142.85 85.5 M40.1 196.8 L40.15 196.5 Q45.7 188.45 54.85 184.55 52.05 186.5 48.75 189.15 42.05 194.5 40.1 196.8 M38.55 219.2 Q37.05 220.45 34.9 220.8 32.6 221.2 30.5 220.3 33.7 214.35 30.0 209.1 33.45 209.5 36.15 211.65 39.85 214.55 38.55 219.2 M235.85 216.1 L236.05 212.65 Q236.45 214.45 235.85 216.1" fill="#3a8bbe" fill-rule="evenodd" stroke="none"/>
    <path d="M195.5 31.7 L195.5 35.95 Q195.2 44.25 192.35 54.7 L192.3 54.85 191.5 54.25 Q201.9 15.95 177.7 7.95 176.0 5.35 172.55 3.5 169.1 1.65 165.05 1.1 157.55 0.15 152.2 3.75 L151.95 3.9 151.35 4.3 148.4 7.05 Q136.4 9.9 130.85 20.8 L130.0 20.5 Q135.65 9.3 147.7 5.55 149.05 5.15 150.3 4.2 157.55 -1.25 166.75 0.45 173.95 1.8 178.25 7.15 185.9 9.6 190.55 16.25 195.35 23.2 195.5 31.7 M201.1 118.95 Q191.05 128.9 177.5 133.3 170.85 135.4 165.45 131.55 161.1 128.45 158.35 124.05 L158.45 121.9 Q164.05 130.95 174.75 131.95 179.3 131.4 183.65 129.35 192.2 125.35 199.3 118.85 201.6 116.75 201.7 113.65 201.35 112.2 200.1 111.15 198.55 109.9 196.3 109.95 193.75 110.05 191.05 111.8 184.0 117.45 177.85 120.15 172.5 122.5 170.9 121.6 169.15 120.6 163.8 113.85 L163.6 113.55 164.35 112.5 Q169.55 119.4 171.35 120.45 172.85 121.35 177.15 119.4 181.5 117.4 187.3 113.0 L188.25 112.3 189.15 111.55 Q191.5 110.05 193.75 109.6 L194.9 109.4 Q200.9 108.55 203.0 114.25 203.3 116.15 202.15 117.95 L202.05 118.1 201.1 118.95 M101.95 119.9 L82.1 115.15 Q80.0 114.65 78.75 112.7 75.9 108.15 79.1 103.55 80.75 101.15 83.35 99.95 94.45 94.45 106.2 90.75 L110.45 89.25 110.9 90.55 110.75 90.3 109.45 90.75 Q96.7 94.85 84.6 100.45 79.8 102.65 78.55 107.8 78.25 109.95 79.55 111.9 80.15 112.75 81.05 113.05 93.05 117.25 105.6 119.7 L106.25 120.85 103.55 120.25 102.8 120.1 101.95 119.9 M127.4 52.35 Q126.45 39.8 128.2 27.35 L128.65 24.6 129.6 24.8 Q127.5 37.25 128.2 49.85 L128.3 52.15 127.4 52.35 M141.65 86.1 L141.75 85.4 142.85 85.5 Q144.15 87.7 146.65 88.6 L147.8 85.35 149.15 85.15 Q148.5 86.95 148.2 88.1 L147.95 89.05 147.9 89.2 Q147.5 91.4 141.65 86.1 M100.35 106.05 L114.4 100.6 114.5 101.75 111.3 103.0 102.25 106.4 108.05 107.05 107.4 107.8 92.7 105.9 Q90.0 106.05 88.95 105.35 L100.35 106.05" fill="#1b2e54" fill-rule="evenodd" stroke="none"/>
    <path d="M185.25 32.4 Q185.9 34.4 185.95 36.95 186.05 44.8 183.7 50.35 L178.45 48.8 178.0 48.2 Q176.05 45.65 172.2 44.85 L172.65 37.5 173.1 35.5 174.0 35.05 178.05 36.5 173.85 37.45 Q173.2 40.7 174.5 43.65 175.25 45.4 177.2 45.8 178.35 46.15 179.1 45.2 184.75 37.7 180.55 29.05 L181.35 28.0 182.45 28.7 Q184.45 30.1 185.25 32.4 M144.95 48.85 Q141.1 40.25 142.7 30.8 L142.9 29.75 Q145.6 22.8 152.85 24.2 153.7 24.35 154.55 24.75 150.2 23.7 149.05 28.1 148.55 30.1 148.3 32.25 L153.35 32.9 148.45 34.65 Q148.3 40.3 153.55 42.2 155.15 42.75 155.9 41.5 160.15 34.35 156.7 26.6 L157.35 27.4 Q160.85 36.95 157.55 46.7 L157.2 47.55 Q150.45 47.8 144.95 48.85 M176.15 84.0 Q179.25 82.85 181.45 85.3 184.45 88.65 183.85 93.05 L179.85 94.0 Q188.35 92.85 196.5 95.35 199.9 96.25 202.4 99.15 L202.5 100.55 Q207.4 95.75 214.45 96.65 L222.6 97.8 226.6 98.45 Q224.4 96.9 221.7 96.55 220.3 91.65 225.5 90.25 226.75 89.8 228.2 89.9 230.65 94.9 231.25 100.7 229.3 103.6 223.85 101.75 L220.85 104.55 Q218.95 106.3 217.3 107.1 212.7 109.45 207.6 106.05 205.35 104.65 202.5 103.95 197.8 102.25 193.15 103.65 L192.6 103.85 190.6 103.35 Q188.6 102.5 187.95 101.15 L179.2 98.1 Q175.0 96.1 175.2 93.4 L175.0 88.0 Q174.9 85.25 176.15 84.0 M231.25 100.7 Q231.3 102.45 229.65 103.75 L229.05 104.2 229.2 104.05 Q231.2 102.8 231.25 100.7 M207.65 113.9 Q207.0 114.9 204.9 114.95 203.8 115.0 203.0 114.25 200.9 108.55 194.9 109.4 L193.75 109.6 Q191.0 109.75 190.1 107.0 L189.9 106.3 Q191.25 104.9 193.4 104.2 L201.0 104.4 Q204.9 105.55 206.75 108.0 208.75 110.65 207.65 113.9 M149.0 79.85 L147.7 80.25 Q139.6 81.65 133.4 76.2 L137.1 70.5 132.75 75.6 130.4 72.5 Q132.15 71.1 135.9 70.2 137.3 69.85 144.75 74.1 149.35 76.7 149.0 79.85 M138.35 79.2 L141.9 73.7 Q140.85 74.2 140.2 74.95 138.6 76.75 137.5 78.85 L138.35 79.2 M116.5 122.35 Q109.65 118.1 110.95 110.4 111.25 108.7 112.5 107.4 116.25 103.45 121.75 101.65 L132.05 98.55 127.25 98.8 Q135.25 94.9 143.85 93.5 149.6 92.7 152.95 97.5 157.3 103.8 157.6 111.3 157.1 113.1 156.1 113.7 154.95 114.35 153.7 112.85 L153.1 111.1 Q151.55 106.75 149.95 105.55 155.0 115.6 152.45 121.8 150.35 123.8 148.1 124.45 145.2 125.3 143.9 123.0 143.85 119.6 141.75 116.8 L140.55 115.25 Q143.35 119.7 142.6 124.85 139.3 128.3 134.3 127.7 132.95 127.35 132.4 126.15 128.45 122.25 123.85 119.6 L122.15 119.65 Q118.9 122.05 114.95 121.2 L116.5 122.35 M126.35 125.3 Q127.5 125.95 128.95 126.3 L132.4 126.15 Q129.8 127.35 126.35 125.3 M106.85 120.2 Q104.55 116.5 106.25 111.9 108.3 106.35 114.05 104.8 108.7 108.3 109.7 114.6 110.2 118.0 112.6 120.55 111.05 121.35 110.2 121.3 108.45 121.2 106.25 118.95 L106.85 120.2" fill="#ffffff" fill-rule="evenodd" stroke="none"/>
    <path d="M168.95 47.35 Q169.0 46.75 169.8 46.35 L172.6 46.15 Q174.0 46.4 174.6 47.2 175.1 47.85 174.8 48.35 174.2 49.35 171.25 48.85 168.8 48.45 168.95 47.35" fill="#30477e" fill-rule="evenodd" stroke="none"/>
    <path d="M184.5 23.9 L183.5 28.2 182.15 26.95 184.5 23.9 M172.65 37.5 Q172.1 36.9 171.8 35.85 L173.1 35.5 172.65 37.5 M1.05 217.9 Q1.45 220.55 7.5 220.8 13.05 221.0 17.35 219.3 L16.2 220.4 15.4 220.75 Q9.45 222.2 2.7 222.25 L2.0 221.8 Q0.25 220.2 1.05 217.9 M18.85 219.45 Q19.0 221.7 22.25 222.2 25.1 222.7 27.8 221.7 L26.35 222.85 14.25 222.6 15.7 222.2 16.3 221.95 Q18.0 221.1 18.85 219.45 M30.5 220.3 Q32.6 221.2 34.9 220.8 37.05 220.45 38.55 219.2 L37.45 221.1 35.4 222.55 28.85 222.9 30.5 220.3" fill="#205aa6" fill-rule="evenodd" stroke="none"/>
    <path d="M196.25 59.05 Q200.25 65.85 196.45 73.0 L195.85 74.25 Q193.65 77.55 188.7 79.7 184.35 81.6 177.85 82.65 L158.8 83.65 176.25 81.95 Q181.15 81.7 185.7 80.1 191.3 78.15 194.95 73.7 196.85 71.05 197.25 67.85 197.85 63.3 195.05 59.7 189.05 51.9 179.05 49.9 L178.45 48.8 183.7 50.35 191.5 54.25 192.3 54.85 192.9 55.35 Q194.95 57.05 196.25 59.05 M131.9 52.0 L133.9 52.25 Q138.6 50.0 144.95 48.85 150.45 47.8 157.2 47.55 L159.8 47.5 159.05 48.4 Q147.45 48.35 136.6 52.0 L132.55 53.0 Q128.3 52.3 124.5 54.8 122.05 56.35 121.2 59.25 119.95 63.55 121.55 67.55 124.1 73.6 129.9 76.45 L130.9 78.45 129.7 78.2 129.15 77.1 Q120.6 72.6 119.9 63.0 119.4 56.4 125.25 53.3 126.25 52.7 127.4 52.35 L128.3 52.15 131.9 52.0 M170.15 76.3 Q177.95 75.7 185.6 77.35 186.25 77.55 185.8 77.9 167.75 76.2 150.15 80.45 L146.15 81.4 Q141.05 81.8 136.4 79.45 130.45 76.4 129.1 70.1 132.35 67.1 136.8 68.15 141.2 69.15 144.75 71.9 152.6 77.85 162.3 77.0 L170.15 76.3 M141.75 85.4 L139.55 85.0 137.4 84.35 137.0 83.25 Q143.25 85.45 149.8 85.0 L149.15 85.15 147.8 85.35 142.85 85.5 141.75 85.4 M149.0 79.85 L155.4 77.85 Q147.4 75.65 140.85 70.55 139.9 69.8 138.7 69.45 133.5 67.4 129.7 70.95 L130.4 72.5 132.75 75.6 133.4 76.2 Q139.6 81.65 147.7 80.25 L149.0 79.85" fill="#8c3000" fill-rule="evenodd" stroke="none"/>
    <path d="M193.65 59.6 Q193.95 58.9 193.25 58.6 192.55 58.3 192.25 59.05 192.0 59.7 192.65 60.0 193.4 60.35 193.65 59.6 M188.65 58.4 Q187.9 58.15 187.65 58.85 187.35 59.55 188.05 59.8 188.75 60.15 189.05 59.4 189.4 58.7 188.65 58.4 M193.6 64.2 Q193.9 63.45 193.15 63.15 192.4 62.85 192.1 63.55 191.8 64.35 192.55 64.65 193.3 64.95 193.6 64.2 M179.05 49.9 Q189.05 51.9 195.05 59.7 197.85 63.3 197.25 67.85 196.85 71.05 194.95 73.7 192.3 76.7 187.75 76.3 L179.55 74.8 158.6 76.2 Q154.8 76.2 147.8 72.0 L142.8 68.95 Q140.25 67.45 139.1 67.15 L130.4 67.4 Q131.3 63.55 129.0 66.05 127.3 67.85 124.8 67.8 122.05 67.7 120.9 65.2 L121.55 67.55 Q119.95 63.55 121.2 59.25 122.05 56.35 124.5 54.8 128.3 52.3 132.55 53.0 L136.6 52.0 Q147.45 48.35 159.05 48.4 157.1 52.85 161.7 54.6 164.25 55.55 166.9 55.75 171.2 56.45 175.25 55.55 180.15 54.5 179.05 49.9 M179.8 60.85 Q179.5 61.7 180.25 61.95 181.05 62.3 181.4 61.5 181.7 60.7 180.9 60.4 180.1 60.1 179.8 60.85 M181.0 55.05 Q181.75 55.35 182.0 54.65 182.3 53.95 181.6 53.65 180.85 53.35 180.6 54.05 180.3 54.8 181.0 55.05 M139.2 58.65 Q138.35 58.8 138.5 59.55 138.55 60.35 139.35 60.3 140.15 60.25 140.1 59.4 140.0 58.6 139.2 58.65 M138.75 54.75 Q138.65 54.0 137.9 54.05 137.2 54.1 137.25 54.9 137.3 55.65 138.1 55.6 138.8 55.55 138.75 54.75 M145.4 55.55 Q144.7 55.6 144.75 56.35 144.8 57.15 145.6 57.05 146.3 57.0 146.25 56.2 146.2 55.45 145.4 55.55 M152.4 61.4 Q153.25 61.35 153.15 60.45 153.05 59.6 152.25 59.65 151.4 59.75 151.45 60.6 151.5 61.45 152.4 61.4 M152.9 53.85 Q152.95 54.65 153.7 54.55 154.5 54.5 154.4 53.7 154.35 52.9 153.6 53.05 152.75 53.1 152.9 53.85" fill="#fee36a" fill-rule="evenodd" stroke="none"/>
    <path d="M193.65 59.6 Q193.4 60.35 192.65 60.0 192.0 59.7 192.25 59.05 192.55 58.3 193.25 58.6 193.95 58.9 193.65 59.6 M188.65 58.4 Q189.4 58.7 189.05 59.4 188.75 60.15 188.05 59.8 187.35 59.55 187.65 58.85 187.9 58.15 188.65 58.4 M193.6 64.2 Q193.3 64.95 192.55 64.65 191.8 64.35 192.1 63.55 192.4 62.85 193.15 63.15 193.9 63.45 193.6 64.2 M181.0 55.05 Q180.3 54.8 180.6 54.05 180.85 53.35 181.6 53.65 182.3 53.95 182.0 54.65 181.75 55.35 181.0 55.05 M179.8 60.85 Q180.1 60.1 180.9 60.4 181.7 60.7 181.4 61.5 181.05 62.3 180.25 61.95 179.5 61.7 179.8 60.85 M152.9 53.85 Q152.75 53.1 153.6 53.05 154.35 52.9 154.4 53.7 154.5 54.5 153.7 54.55 152.95 54.65 152.9 53.85 M152.4 61.4 Q151.5 61.45 151.45 60.6 151.4 59.75 152.25 59.65 153.05 59.6 153.15 60.45 153.25 61.35 152.4 61.4 M145.4 55.55 Q146.2 55.45 146.25 56.2 146.3 57.0 145.6 57.05 144.8 57.15 144.75 56.35 144.7 55.6 145.4 55.55 M138.75 54.75 Q138.8 55.55 138.1 55.6 137.3 55.65 137.25 54.9 137.2 54.1 137.9 54.05 138.65 54.0 138.75 54.75 M139.2 58.65 Q140.0 58.6 140.1 59.4 140.15 60.25 139.35 60.3 138.55 60.35 138.5 59.55 138.35 58.8 139.2 58.65" fill="#d56d19" fill-rule="evenodd" stroke="none"/>
    <path d="M121.55 67.55 L120.9 65.2 Q122.05 67.7 124.8 67.8 127.3 67.85 129.0 66.05 131.3 63.55 130.4 67.4 L139.1 67.15 Q140.25 67.45 142.8 68.95 L147.8 72.0 Q154.8 76.2 158.6 76.2 L179.55 74.8 187.75 76.3 Q192.3 76.7 194.95 73.7 191.3 78.15 185.7 80.1 181.15 81.7 176.25 81.95 L158.8 83.65 149.8 85.0 Q143.25 85.45 137.0 83.25 L136.7 82.7 Q134.75 79.4 130.9 78.45 L129.9 76.45 Q124.1 73.6 121.55 67.55 M170.15 76.3 L162.3 77.0 Q152.6 77.85 144.75 71.9 141.2 69.15 136.8 68.15 132.35 67.1 129.1 70.1 130.45 76.4 136.4 79.45 141.05 81.8 146.15 81.4 L150.15 80.45 Q167.75 76.2 185.8 77.9 186.25 77.55 185.6 77.35 177.95 75.7 170.15 76.3" fill="#e79829" fill-rule="evenodd" stroke="none"/>
    <path d="M187.3 113.0 Q186.25 110.6 187.35 108.55 L187.6 108.1 185.5 103.8 Q178.45 102.2 173.6 97.15 172.2 95.7 172.5 93.7 173.15 89.6 174.15 85.6 174.65 83.65 176.7 83.3 181.25 82.8 183.6 86.5 185.55 89.6 184.75 92.9 190.95 92.7 196.9 94.6 200.75 95.95 203.4 98.45 205.5 96.2 208.95 95.9 L220.7 96.55 Q220.75 90.3 226.75 89.05 228.65 88.75 229.4 90.5 L230.45 93.55 Q231.9 98.2 231.75 102.9 L231.3 103.95 Q227.75 107.4 222.95 105.75 217.15 113.1 208.3 114.75 L207.8 115.45 Q205.45 119.1 201.1 118.95 L202.05 118.1 Q204.35 118.1 206.0 116.9 207.65 115.65 207.65 113.9 208.75 110.65 206.75 108.0 204.9 105.55 201.0 104.4 L193.4 104.2 Q191.25 104.9 189.9 106.3 187.7 108.45 188.1 111.45 L188.25 112.3 187.3 113.0 M231.25 100.7 Q230.65 94.9 228.2 89.9 226.75 89.8 225.5 90.25 220.3 91.65 221.7 96.55 224.4 96.9 226.6 98.45 L222.6 97.8 214.45 96.65 Q207.4 95.75 202.5 100.55 L202.4 99.15 Q199.9 96.25 196.5 95.35 188.35 92.85 179.85 94.0 L183.85 93.05 Q184.45 88.65 181.45 85.3 179.25 82.85 176.15 84.0 175.2 84.25 174.85 85.1 173.25 89.0 173.7 93.1 173.85 94.75 174.75 96.0 179.1 101.85 186.75 103.0 L188.25 107.0 192.6 103.85 193.15 103.65 Q197.8 102.25 202.5 103.95 208.4 106.0 208.8 112.2 L208.8 113.6 Q213.6 113.3 217.05 109.95 L222.5 104.85 229.05 104.2 229.65 103.75 Q231.3 102.45 231.25 100.7 M158.55 111.9 L157.7 115.5 Q156.9 117.35 154.95 118.2 L154.15 118.55 Q153.95 122.05 151.75 124.85 148.2 129.15 142.65 128.9 L142.1 128.75 Q138.7 131.5 134.05 131.6 128.8 131.7 125.3 127.75 L123.9 125.35 120.55 124.9 118.95 125.8 Q114.8 127.15 110.75 125.05 L108.65 123.65 108.6 123.6 106.25 120.85 105.6 119.7 104.75 117.3 Q104.05 112.95 106.4 109.2 L107.4 107.8 108.05 107.05 Q109.9 105.2 112.5 104.3 L115.4 103.6 119.2 101.85 122.8 100.5 124.05 99.75 124.2 99.65 124.7 99.35 129.6 96.8 Q136.55 93.55 144.1 92.55 149.45 91.9 152.7 95.85 154.9 98.5 156.25 101.45 L158.25 107.5 158.55 111.9 M157.6 111.3 Q157.3 103.8 152.95 97.5 149.6 92.7 143.85 93.5 135.25 94.9 127.25 98.8 L132.05 98.55 121.75 101.65 Q116.25 103.45 112.5 107.4 111.25 108.7 110.95 110.4 109.65 118.1 116.5 122.35 119.4 124.3 122.95 124.35 L125.2 124.3 124.1 122.4 Q127.65 125.85 132.4 126.15 L128.95 126.3 Q127.5 125.95 126.35 125.3 L124.8 125.4 Q126.95 129.15 131.2 130.1 138.85 131.7 142.6 124.85 143.35 119.7 140.55 115.25 L141.75 116.8 Q143.85 119.6 143.9 123.0 143.9 125.65 142.85 128.0 L144.1 128.1 Q150.25 127.2 152.45 121.8 155.0 115.6 149.95 105.55 151.55 106.75 153.1 111.1 L153.7 112.85 154.6 117.4 Q155.9 116.6 156.75 115.0 157.65 113.25 157.6 111.3 M106.85 120.2 L107.1 120.6 Q109.35 123.75 113.45 124.5 L119.35 124.7 Q115.6 123.15 112.6 120.55 110.2 118.0 109.7 114.6 108.7 108.3 114.05 104.8 108.3 106.35 106.25 111.9 104.55 116.5 106.85 120.2" fill="#1d3f60" fill-rule="evenodd" stroke="none"/>
    <path d="M176.15 84.0 Q174.9 85.25 175.0 88.0 L175.2 93.4 Q175.0 96.1 179.2 98.1 L187.95 101.15 Q188.6 102.5 190.6 103.35 L192.6 103.85 188.25 107.0 186.75 103.0 Q179.1 101.85 174.75 96.0 173.85 94.75 173.7 93.1 173.25 89.0 174.85 85.1 175.2 84.25 176.15 84.0 M202.5 103.95 Q205.35 104.65 207.6 106.05 212.7 109.45 217.3 107.1 218.95 106.3 220.85 104.55 L223.85 101.75 Q229.3 103.6 231.25 100.7 231.2 102.8 229.2 104.05 L229.05 104.2 222.5 104.85 217.05 109.95 Q213.6 113.3 208.8 113.6 L208.8 112.2 Q208.4 106.0 202.5 103.95 M203.0 114.25 Q203.8 115.0 204.9 114.95 207.0 114.9 207.65 113.9 207.65 115.65 206.0 116.9 204.35 118.1 202.05 118.1 L202.15 117.95 Q203.3 116.15 203.0 114.25 M189.9 106.3 L190.1 107.0 Q191.0 109.75 193.75 109.6 191.5 110.05 189.15 111.55 L188.25 112.3 188.1 111.45 Q187.7 108.45 189.9 106.3 M157.6 111.3 Q157.65 113.25 156.75 115.0 155.9 116.6 154.6 117.4 L153.7 112.85 Q154.95 114.35 156.1 113.7 157.1 113.1 157.6 111.3 M152.45 121.8 Q150.25 127.2 144.1 128.1 L142.85 128.0 Q143.9 125.65 143.9 123.0 145.2 125.3 148.1 124.45 150.35 123.8 152.45 121.8 M142.6 124.85 Q138.85 131.7 131.2 130.1 126.95 129.15 124.8 125.4 L126.35 125.3 Q129.8 127.35 132.4 126.15 127.65 125.85 124.1 122.4 L125.2 124.3 122.95 124.35 Q119.4 124.3 116.5 122.35 L114.95 121.2 Q118.9 122.05 122.15 119.65 L123.85 119.6 Q128.45 122.25 132.4 126.15 132.95 127.35 134.3 127.7 139.3 128.3 142.6 124.85 M112.6 120.55 Q115.6 123.15 119.35 124.7 L113.45 124.5 Q109.35 123.75 107.1 120.6 L106.85 120.2 106.25 118.95 Q108.45 121.2 110.2 121.3 111.05 121.35 112.6 120.55" fill="#c2d6d4" fill-rule="evenodd" stroke="none"/>
    <path d="M196.9 94.6 L208.95 95.9 Q205.5 96.2 203.4 98.45 200.75 95.95 196.9 94.6" fill="#7a92a5" fill-rule="evenodd" stroke="none"/>
    <path d="M162.5 108.35 Q161.6 110.4 159.6 112.9 L158.6 113.95 158.55 111.9 158.25 107.5 158.05 105.85 159.2 103.95 162.5 108.35 M157.25 125.45 L156.75 132.25 Q148.0 132.3 133.85 136.6 125.95 139.0 119.15 136.95 111.35 134.55 106.55 126.5 L108.65 123.65 110.75 125.05 Q114.8 127.15 118.95 125.8 121.9 127.3 125.3 127.75 128.8 131.7 134.05 131.6 138.7 131.5 142.1 128.75 L142.65 128.9 Q148.2 129.15 151.75 124.85 155.1 124.8 157.25 125.45 M156.5 135.25 L156.2 139.3 156.8 141.1 Q143.0 147.25 128.15 150.55 118.6 152.7 109.45 149.4 103.95 145.1 101.6 138.6 99.65 133.2 104.3 129.35 107.7 137.1 115.5 140.35 122.15 143.15 129.15 141.4 142.8 137.85 156.5 135.25 M111.65 84.55 L115.6 82.95 Q123.2 88.65 122.9 98.4 L122.8 100.5 119.2 101.85 Q119.8 92.05 112.6 85.35 L111.65 84.55 M117.55 82.2 L121.6 80.6 Q127.85 85.85 128.05 94.15 L128.05 96.25 124.7 99.35 124.2 99.65 124.2 99.6 Q125.3 90.55 118.95 83.6 L117.55 82.2 M157.15 101.4 L156.95 100.7 157.25 101.2 157.15 101.4" fill="#f01f00" fill-rule="evenodd" stroke="none"/>
    <path d="M158.35 124.05 L157.75 136.05 Q157.65 140.25 159.4 144.3 L159.45 145.15 158.6 145.2 Q151.3 148.05 144.85 152.25 L144.55 152.45 Q140.3 154.7 135.95 156.4 125.4 160.85 114.05 160.6 106.3 160.4 100.4 155.6 93.5 149.7 91.9 137.2 91.65 135.05 91.55 132.75 L91.5 131.55 Q91.6 125.15 97.7 123.25 L98.85 123.15 101.95 119.9 102.8 120.1 101.85 121.3 97.85 126.15 96.6 127.55 95.3 128.6 97.8 124.65 Q92.7 125.15 92.6 130.7 92.4 139.0 95.25 146.45 98.45 154.9 106.85 158.05 112.5 160.25 118.6 159.7 132.4 158.2 144.4 151.45 L153.9 146.15 Q156.15 145.0 158.5 144.3 L156.2 139.3 156.5 135.25 156.75 132.25 157.25 125.45 157.7 115.5 158.55 111.9 158.6 113.95 158.6 116.7 Q162.1 114.55 163.85 110.8 L162.5 108.35 159.2 103.95 157.25 101.2 156.95 100.7 157.15 101.4 158.05 105.85 158.25 107.5 156.25 101.45 155.75 99.8 Q153.4 92.75 147.95 89.05 L148.2 88.1 Q150.85 89.8 152.65 92.3 L162.35 106.05 163.55 107.45 Q166.15 109.75 164.35 112.5 L163.6 113.55 158.6 118.25 158.45 121.9 158.35 124.05 M106.2 90.75 Q105.4 87.15 108.4 85.1 L110.7 83.65 Q119.65 78.4 129.7 78.2 L130.9 78.45 Q134.75 79.4 136.7 82.7 L137.0 83.25 137.4 84.35 137.5 84.8 139.55 85.0 141.75 85.4 141.65 86.1 137.55 86.05 136.95 87.6 Q136.25 85.15 134.85 82.6 134.25 81.5 133.05 80.9 127.45 78.4 121.6 80.6 L117.55 82.2 115.6 82.95 111.65 84.55 Q108.05 85.0 107.45 88.25 L107.4 89.1 108.9 87.05 Q116.35 93.65 115.4 103.6 L112.5 104.3 111.3 103.0 114.5 101.75 114.4 100.6 Q115.05 97.45 110.9 90.55 L110.45 89.25 106.2 90.75 M124.2 99.6 L124.2 99.65 124.05 99.75 124.2 99.6 M124.7 99.35 L128.05 96.25 129.0 95.4 Q131.95 94.35 129.6 96.8 L124.7 99.35" fill="#5f2916" fill-rule="evenodd" stroke="none"/>
    <path d="M162.5 108.35 L163.85 110.8 Q162.1 114.55 158.6 116.7 L158.6 113.95 159.6 112.9 Q161.6 110.4 162.5 108.35 M157.7 115.5 L157.25 125.45 Q155.1 124.8 151.75 124.85 153.95 122.05 154.15 118.55 L154.95 118.2 Q156.9 117.35 157.7 115.5 M156.75 132.25 L156.5 135.25 Q142.8 137.85 129.15 141.4 122.15 143.15 115.5 140.35 107.7 137.1 104.3 129.35 L106.55 126.5 Q111.35 134.55 119.15 136.95 125.95 139.0 133.85 136.6 148.0 132.3 156.75 132.25 M156.2 139.3 L158.5 144.3 Q156.15 145.0 153.9 146.15 L144.4 151.45 Q132.4 158.2 118.6 159.7 112.5 160.25 106.85 158.05 98.45 154.9 95.25 146.45 92.4 139.0 92.6 130.7 92.7 125.15 97.8 124.65 L95.3 128.6 96.6 127.55 Q92.5 139.7 99.7 147.25 104.4 152.2 111.75 153.75 112.8 154.0 113.15 153.15 113.55 152.2 112.1 151.3 L109.45 149.4 Q118.6 152.7 128.15 150.55 143.0 147.25 156.8 141.1 L156.2 139.3 M115.6 82.95 L117.55 82.2 118.95 83.6 Q125.3 90.55 124.2 99.6 L124.05 99.75 122.8 100.5 122.9 98.4 Q123.2 88.65 115.6 82.95 M121.6 80.6 Q127.45 78.4 133.05 80.9 134.25 81.5 134.85 82.6 136.25 85.15 136.95 87.6 L137.55 86.05 141.65 86.1 Q147.5 91.4 147.9 89.2 L147.95 89.05 Q153.4 92.75 155.75 99.8 L156.25 101.45 Q154.9 98.5 152.7 95.85 149.45 91.9 144.1 92.55 136.55 93.55 129.6 96.8 131.95 94.35 129.0 95.4 L128.05 96.25 128.05 94.15 Q127.85 85.85 121.6 80.6 M111.65 84.55 L112.6 85.35 Q119.8 92.05 119.2 101.85 L115.4 103.6 Q116.35 93.65 108.9 87.05 L107.4 89.1 107.45 88.25 Q108.05 85.0 111.65 84.55 M157.25 101.2 L159.2 103.95 158.05 105.85 157.15 101.4 157.25 101.2 M118.95 125.8 L120.55 124.9 123.9 125.35 125.3 127.75 Q121.9 127.3 118.95 125.8" fill="#ffbd20" fill-rule="evenodd" stroke="none"/>
    <path d="M159.4 144.3 L179.15 144.05 180.95 145.35 Q185.1 149.65 184.05 156.1 L179.45 153.45 173.25 168.3 179.6 171.55 178.45 174.85 Q174.6 183.35 167.4 189.15 165.4 190.7 162.9 190.1 149.75 180.2 133.4 179.2 124.5 179.3 115.9 180.95 L106.3 182.8 Q95.7 185.2 85.15 188.6 L79.1 189.0 Q69.25 187.7 61.85 181.1 L61.25 180.55 55.5 174.25 54.3 172.55 53.9 171.85 Q50.55 166.4 51.5 161.95 52.8 155.6 63.05 150.6 70.6 146.85 86.1 135.4 L91.5 131.55 91.55 132.75 81.55 139.9 Q70.6 147.9 63.45 151.45 54.1 156.05 52.55 161.55 50.9 167.4 57.6 175.4 60.1 178.35 62.85 180.7 66.8 184.05 71.3 185.95 L72.1 186.25 Q76.45 188.05 81.15 188.0 L81.5 188.0 82.9 187.85 84.9 187.35 Q102.7 181.8 121.25 179.1 142.6 175.75 160.85 187.4 L162.35 188.25 Q164.85 190.05 167.45 188.15 171.1 185.55 173.35 181.4 169.95 186.1 165.05 189.0 164.25 187.2 165.1 185.2 L180.3 149.9 181.0 149.8 182.1 150.0 182.6 150.25 182.95 150.5 Q182.8 147.1 179.65 146.35 L173.8 145.45 Q166.25 145.25 158.6 145.2 L159.45 145.15 159.4 144.3" fill="#13032a" fill-rule="evenodd" stroke="none"/>
    <path d="M158.6 145.2 Q166.25 145.25 173.8 145.45 L179.65 146.35 Q182.8 147.1 182.95 150.5 L182.6 150.25 182.1 150.0 181.0 149.8 180.3 149.9 165.1 185.2 Q164.25 187.2 165.05 189.0 169.95 186.1 173.35 181.4 171.1 185.55 167.45 188.15 164.85 190.05 162.35 188.25 162.5 184.55 159.7 182.45 151.0 175.95 140.05 175.8 145.85 172.8 152.3 172.2 L153.0 171.65 Q152.9 170.45 152.0 170.0 150.9 169.45 149.7 169.15 L122.2 170.4 Q93.8 173.1 65.9 180.1 L63.75 180.15 61.4 179.35 62.85 180.7 Q60.1 178.35 57.6 175.4 50.9 167.4 52.55 161.55 54.1 156.05 63.45 151.45 70.6 147.9 81.55 139.9 L91.55 132.75 Q91.65 135.05 91.9 137.2 90.85 145.35 94.35 152.7 L94.5 153.0 89.6 154.05 Q89.8 155.05 91.2 155.25 L100.4 155.6 Q106.3 160.4 114.05 160.6 125.4 160.85 135.95 156.4 L141.35 156.5 Q146.15 156.7 144.15 155.1 143.35 154.4 144.55 152.45 L144.85 152.25 Q151.3 148.05 158.6 145.2 M121.25 179.1 Q102.7 181.8 84.9 187.35 L82.9 187.85 85.5 186.8 Q102.85 180.35 121.25 179.1 M81.5 188.0 L81.15 188.0 Q76.45 188.05 72.1 186.25 76.5 187.85 81.5 188.0 M80.65 169.7 Q85.25 169.5 89.6 168.3 99.8 165.3 110.35 164.2 128.0 162.9 145.4 163.8 L141.15 162.8 111.65 161.0 96.1 160.65 90.6 160.65 Q85.35 159.9 82.6 163.95 L83.4 163.9 Q86.3 163.0 86.8 165.4 84.95 167.3 82.25 167.85 80.25 168.35 79.25 169.55 L80.65 169.7" fill="#5a2d85" fill-rule="evenodd" stroke="none"/>
    <path d="M184.05 156.1 Q188.9 158.45 192.9 161.85 196.0 164.5 197.1 168.4 197.45 169.65 197.1 170.85 193.45 184.05 188.5 197.0 L199.35 196.65 Q211.9 195.55 223.75 199.95 230.6 202.4 235.0 208.25 239.55 214.3 234.25 219.7 232.1 221.85 229.1 222.8 224.45 224.35 219.6 225.0 196.2 226.65 173.15 222.75 L166.75 221.65 Q160.2 221.4 154.95 217.8 153.7 216.9 153.7 215.5 153.75 210.1 158.1 206.35 172.8 193.7 178.45 174.85 L179.6 171.55 173.25 168.3 179.45 153.45 184.05 156.1 M61.85 181.1 Q49.35 188.25 40.6 199.4 38.7 201.85 37.55 204.85 L35.65 210.15 Q41.25 214.05 38.7 220.25 37.6 222.9 34.7 223.35 28.6 224.3 22.4 223.65 L1.8 222.7 Q-1.1 218.9 1.45 214.75 3.75 211.0 7.0 207.8 18.4 196.75 32.65 189.45 L53.9 171.85 54.3 172.55 33.15 190.15 Q22.4 195.8 14.65 201.8 3.65 210.3 1.05 217.9 0.25 220.2 2.0 221.8 L2.7 222.25 Q9.45 222.2 15.4 220.75 L16.2 220.4 Q21.1 216.55 19.5 210.45 L19.95 211.3 Q21.45 215.7 18.85 219.45 18.0 221.1 16.3 221.95 L15.7 222.2 14.25 222.6 26.35 222.85 27.8 221.7 Q31.35 218.4 30.95 213.25 30.8 211.05 29.55 209.05 19.85 208.7 10.7 211.8 18.4 208.3 27.1 207.7 L35.1 209.4 40.1 196.8 Q42.05 194.5 48.75 189.15 52.05 186.5 54.85 184.55 L61.25 180.55 61.85 181.1 M175.45 163.35 L173.9 167.25 181.1 170.95 Q174.1 193.85 161.6 204.55 155.95 209.35 155.05 213.05 154.1 217.1 159.0 219.05 162.9 220.6 176.5 222.25 L205.4 224.15 Q206.85 223.75 207.6 222.8 L208.3 220.9 208.15 218.35 208.05 218.45 Q207.05 212.65 202.25 208.8 L202.1 208.65 Q207.05 210.15 209.2 215.05 209.95 216.7 210.1 218.65 210.75 221.85 208.25 224.2 L223.6 223.1 224.2 222.6 Q226.45 220.5 225.55 218.0 223.7 208.8 214.55 205.3 L217.15 205.6 Q224.3 208.6 227.45 215.8 228.9 219.0 226.7 221.85 L226.15 222.55 Q230.4 220.55 234.3 217.8 L235.85 216.1 Q236.45 214.45 236.05 212.65 L235.75 211.65 Q234.35 208.1 231.75 206.05 223.5 199.0 212.55 198.45 196.0 197.3 179.5 199.05 L184.15 197.65 186.65 197.2 Q192.8 184.4 195.5 170.4 195.75 169.25 195.4 168.05 194.35 164.7 191.65 162.7 185.9 158.35 179.4 155.2 L175.45 163.35 M30.5 220.3 L28.85 222.9 35.4 222.55 37.45 221.1 38.55 219.2 Q39.85 214.55 36.15 211.65 33.45 209.5 30.0 209.1 33.7 214.35 30.5 220.3" fill="#041a27" fill-rule="evenodd" stroke="none"/>
    <path d="M130.4 72.5 L129.7 70.95 Q133.5 67.4 138.7 69.45 139.9 69.8 140.85 70.55 147.4 75.65 155.4 77.85 L149.0 79.85 Q149.35 76.7 144.75 74.1 137.3 69.85 135.9 70.2 132.15 71.1 130.4 72.5" fill="#b8d2ca" fill-rule="evenodd" stroke="none"/>
    <path d="M133.4 76.2 L132.75 75.6 137.1 70.5 133.4 76.2 M138.35 79.2 L137.5 78.85 Q138.6 76.75 140.2 74.95 140.85 74.2 141.9 73.7 L138.35 79.2" fill="#46779d" fill-rule="evenodd" stroke="none"/>
    <path d="M144.55 152.45 Q143.35 154.4 144.15 155.1 146.15 156.7 141.35 156.5 L135.95 156.4 Q140.3 154.7 144.55 152.45 M100.4 155.6 L91.2 155.25 Q89.8 155.05 89.6 154.05 L94.5 153.0 94.35 152.7 Q90.85 145.35 91.9 137.2 93.5 149.7 100.4 155.6 M62.85 180.7 L61.4 179.35 63.75 180.15 65.9 180.1 Q93.8 173.1 122.2 170.4 L149.7 169.15 Q150.9 169.45 152.0 170.0 152.9 170.45 153.0 171.65 L152.3 172.2 Q145.85 172.8 140.05 175.8 151.0 175.95 159.7 182.45 162.5 184.55 162.35 188.25 L160.85 187.4 Q142.6 175.75 121.25 179.1 102.85 180.35 85.5 186.8 L82.9 187.85 81.5 188.0 Q76.5 187.85 72.1 186.25 L71.3 185.95 Q66.8 184.05 62.85 180.7 M80.65 169.7 L79.25 169.55 Q80.25 168.35 82.25 167.85 84.95 167.3 86.8 165.4 86.3 163.0 83.4 163.9 L82.6 163.95 Q85.35 159.9 90.6 160.65 L96.1 160.65 111.65 161.0 141.15 162.8 145.4 163.8 Q128.0 162.9 110.35 164.2 99.8 165.3 89.6 168.3 85.25 169.5 80.65 169.7" fill="#391c31" fill-rule="evenodd" stroke="none"/>
    <path d="M97.85 126.15 L101.85 121.3 104.3 129.35 Q99.65 133.2 101.6 138.6 103.95 145.1 109.45 149.4 95.7 143.95 97.85 126.15 M103.55 120.25 L106.25 120.85 108.6 123.6 106.5 126.45 Q104.85 123.65 103.55 120.25" fill="#a81b01" fill-rule="evenodd" stroke="none"/>
    <path d="M96.6 127.55 L97.85 126.15 Q95.7 143.95 109.45 149.4 L112.1 151.3 Q113.55 152.2 113.15 153.15 112.8 154.0 111.75 153.75 104.4 152.2 99.7 147.25 92.5 139.7 96.6 127.55 M101.85 121.3 L102.8 120.1 103.55 120.25 Q104.85 123.65 106.5 126.45 L108.6 123.6 108.65 123.65 106.55 126.5 104.3 129.35 101.85 121.3" fill="#f27c01" fill-rule="evenodd" stroke="none"/>
    <path d="M184.5 23.9 L186.65 22.3 185.7 22.05 Q180.5 27.2 175.35 33.0 173.4 35.2 170.85 35.5 L171.8 35.85 Q172.1 36.9 172.65 37.5 L172.2 44.85 Q165.65 43.3 160.35 46.95 L159.8 47.5 157.2 47.55 157.55 46.7 Q160.85 36.95 157.35 27.4 L158.65 28.7 Q157.7 24.15 153.4 22.9 L150.65 22.75 Q144.4 23.25 142.9 29.75 L142.7 30.8 Q141.1 40.25 144.95 48.85 138.6 50.0 133.9 52.25 L131.9 52.0 Q131.3 32.9 135.85 22.5 141.9 8.6 158.05 7.4 154.55 7.25 153.2 6.1 152.05 5.1 152.5 3.55 L152.2 3.75 Q157.55 0.15 165.05 1.1 169.1 1.65 172.55 3.5 176.0 5.35 177.7 7.95 201.9 15.95 191.5 54.25 L183.7 50.35 Q186.05 44.8 185.95 36.95 185.9 34.4 185.25 32.4 L186.0 34.55 Q185.85 30.95 183.5 28.2 L184.5 23.9 M163.8 113.85 Q169.15 120.6 170.9 121.6 172.5 122.5 177.85 120.15 184.0 117.45 191.05 111.8 193.75 110.05 196.3 109.95 198.55 109.9 200.1 111.15 201.35 112.2 201.7 113.65 191.8 123.45 178.4 128.1 169.2 131.35 163.0 123.75 162.2 122.8 161.85 121.7 160.55 117.3 163.8 113.85 M208.05 218.45 Q204.45 221.3 187.8 221.0 171.8 220.7 165.75 218.45 163.05 217.4 163.05 215.2 163.05 213.4 164.9 210.6 165.95 208.95 168.8 205.45 171.45 202.2 172.3 200.75 174.2 197.5 178.35 186.35 L183.6 172.65 Q186.75 172.75 186.25 171.45 185.85 170.3 175.45 163.35 L179.4 155.2 Q185.9 158.35 191.65 162.7 194.35 164.7 195.4 168.05 195.75 169.25 195.5 170.4 192.8 184.4 186.65 197.2 L184.15 197.65 179.5 199.05 Q196.0 197.3 212.55 198.45 223.5 199.0 231.75 206.05 232.7 211.4 231.3 214.4 229.9 217.25 227.45 215.8 224.3 208.6 217.15 205.6 L214.55 205.3 Q223.7 208.8 225.55 218.0 222.55 223.3 216.25 221.85 212.85 220.95 210.1 218.65 209.95 216.7 209.2 215.05 207.05 210.15 202.1 208.65 L202.25 208.8 Q207.05 212.65 208.05 218.45 M146.95 16.4 Q148.4 14.7 150.65 14.1 152.6 14.5 153.15 16.45 155.35 24.2 162.55 26.8 159.55 25.2 157.25 22.4 154.65 19.2 153.4 15.4 152.35 12.35 149.55 13.65 147.65 14.6 146.95 16.4 M109.45 90.75 Q111.45 96.65 111.35 98.95 104.8 101.5 97.45 105.65 L100.35 106.05 88.95 105.35 Q90.0 106.05 92.7 105.9 L107.4 107.8 106.4 109.2 Q104.05 112.95 104.75 117.3 L84.6 112.1 Q80.7 111.05 78.55 107.8 79.8 102.65 84.6 100.45 96.7 94.85 109.45 90.75 M55.5 174.25 L33.9 194.2 29.5 200.0 Q26.35 204.8 27.1 207.7 18.4 208.3 10.7 211.8 19.85 208.7 29.55 209.05 30.8 211.05 30.95 213.25 31.35 218.4 27.8 221.7 25.1 222.7 22.25 222.2 19.0 221.7 18.85 219.45 21.45 215.7 19.95 211.3 L19.5 210.45 Q21.1 216.55 16.2 220.4 L17.35 219.3 Q13.05 221.0 7.5 220.8 1.45 220.55 1.05 217.9 3.65 210.3 14.65 201.8 22.4 195.8 33.15 190.15 L54.3 172.55 55.5 174.25" fill="#6fb9d7" fill-rule="evenodd" stroke="none"/>
    <path d="M152.2 3.75 L152.5 3.55 Q152.05 5.1 153.2 6.1 154.55 7.25 158.05 7.4 141.9 8.6 135.85 22.5 131.3 32.9 131.9 52.0 L128.3 52.15 128.2 49.85 Q127.5 37.25 129.6 24.8 L130.9 24.4 Q134.05 22.4 130.85 20.8 136.4 9.9 148.4 7.05 L151.35 4.3 151.95 3.9 152.2 3.75 M163.8 113.85 Q160.55 117.3 161.85 121.7 162.2 122.8 163.0 123.75 169.2 131.35 178.4 128.1 191.8 123.45 201.7 113.65 201.6 116.75 199.3 118.85 192.2 125.35 183.65 129.35 179.3 131.4 174.75 131.95 164.05 130.95 158.45 121.9 L158.6 118.25 163.6 113.55 163.8 113.85 M175.45 163.35 Q185.85 170.3 186.25 171.45 186.75 172.75 183.6 172.65 L178.35 186.35 Q174.2 197.5 172.3 200.75 171.45 202.2 168.8 205.45 165.95 208.95 164.9 210.6 163.05 213.4 163.05 215.2 163.05 217.4 165.75 218.45 171.8 220.7 187.8 221.0 204.45 221.3 208.05 218.45 L208.15 218.35 208.3 220.9 207.6 222.8 Q206.85 223.75 205.4 224.15 L176.5 222.25 Q162.9 220.6 159.0 219.05 154.1 217.1 155.05 213.05 155.95 209.35 161.6 204.55 174.1 193.85 181.1 170.95 L173.9 167.25 175.45 163.35 M210.1 218.65 Q212.85 220.95 216.25 221.85 222.55 223.3 225.55 218.0 226.45 220.5 224.2 222.6 L223.6 223.1 208.25 224.2 Q210.75 221.85 210.1 218.65 M227.45 215.8 Q229.9 217.25 231.3 214.4 232.7 211.4 231.75 206.05 234.35 208.1 235.75 211.65 L236.05 212.65 235.85 216.1 234.3 217.8 Q230.4 220.55 226.15 222.55 L226.7 221.85 Q228.9 219.0 227.45 215.8 M109.45 90.75 L110.75 90.3 110.9 90.55 Q115.05 97.45 114.4 100.6 L100.35 106.05 97.45 105.65 Q104.8 101.5 111.35 98.95 111.45 96.65 109.45 90.75 M105.6 119.7 Q93.05 117.25 81.05 113.05 80.15 112.75 79.55 111.9 78.25 109.95 78.55 107.8 80.7 111.05 84.6 112.1 L104.75 117.3 105.6 119.7 M54.85 184.55 Q45.7 188.45 40.15 196.5 L40.1 196.8 35.1 209.4 27.1 207.7 Q26.35 204.8 29.5 200.0 L33.9 194.2 55.5 174.25 61.25 180.55 54.85 184.55" fill="#3c84bb" fill-rule="evenodd" stroke="none"/>
  </g>
</svg>
