<?xml version="1.0" encoding="UTF-8" standalone="no"?>
<svg xmlns:xlink="http://www.w3.org/1999/xlink" height="257.65px" width="177.3px" xmlns="http://www.w3.org/2000/svg">
  <g transform="matrix(1.0, 0.0, 0.0, 1.0, -19.35, 0.0)">
    <path d="M171.35 101.05 Q170.25 103.8 167.5 108.55 164.35 114.0 162.75 115.15 155.0 111.5 149.35 106.4 142.9 100.55 145.3 97.65 154.6 94.2 161.95 96.05 166.25 97.15 169.05 99.15 L171.35 101.05" fill="#72251c" fill-rule="evenodd" stroke="none"/>
    <path d="M169.85 101.6 Q172.45 99.95 191.95 97.1 197.55 108.1 196.5 115.15 196.0 118.5 191.75 118.9 188.0 119.25 183.95 117.4 180.55 115.8 172.45 112.95 L164.0 110.0 Q165.55 104.3 169.85 101.6" fill="#1b2e54" fill-rule="evenodd" stroke="none"/>
    <path d="M169.85 101.6 Q172.35 100.0 191.15 97.2 196.75 108.6 195.8 114.85 195.3 118.0 191.15 118.15 187.65 118.3 183.7 116.45 180.55 115.0 173.0 112.2 L164.3 108.95 Q165.95 104.1 169.85 101.6" fill="#6fb9d7" fill-rule="evenodd" stroke="none"/>
    <path d="M165.4 106.35 Q178.45 109.85 182.5 110.35 179.5 106.65 181.55 102.0 L187.75 102.0 Q196.65 112.55 192.7 116.2 190.85 117.9 188.8 118.0 186.25 117.65 183.7 116.45 180.55 115.0 173.0 112.2 L164.3 108.95 165.4 106.35" fill="#3d7db8" fill-rule="evenodd" stroke="none"/>
    <path d="M179.5 106.65 Q183.2 108.85 185.95 113.35 L186.15 114.1 Q185.95 114.15 185.55 113.65 L182.75 110.55 Q180.05 107.9 178.2 106.9 175.2 105.4 179.5 106.65" fill="#1b2e54" fill-rule="evenodd" stroke="none"/>
    <path d="M178.45 94.05 Q182.25 92.05 185.2 91.15 188.6 90.15 189.75 91.15 190.9 92.1 191.65 94.25 192.4 96.55 192.15 98.95 191.5 105.3 184.65 107.35 178.35 109.3 173.8 106.2 172.15 105.15 171.05 103.45 170.1 102.1 169.9 100.95 169.75 100.05 172.35 98.0 174.85 96.0 178.45 94.05" fill="#1d3f60" fill-rule="evenodd" stroke="none"/>
    <path d="M178.65 94.55 Q186.95 90.1 189.1 91.85 190.2 92.7 190.85 94.7 191.55 96.85 191.3 99.05 190.7 104.75 184.4 106.7 178.55 108.45 174.4 105.65 171.2 103.5 170.8 100.85 170.6 100.0 173.0 98.15 175.3 96.3 178.65 94.55" fill="#ffffff" fill-rule="evenodd" stroke="none"/>
    <path d="M178.7 99.45 L183.75 99.8 Q186.0 100.4 185.5 101.55 184.65 103.4 185.55 104.4 186.4 105.3 188.1 104.8 186.45 106.05 184.4 106.7 L179.95 107.35 Q176.25 106.55 172.75 102.15 171.85 101.05 173.9 100.3 175.7 99.6 178.7 99.45" fill="#b8d2ca" fill-rule="evenodd" stroke="none"/>
    <path d="M169.35 100.15 Q163.65 104.65 162.25 113.75 156.0 110.65 151.6 104.9 149.85 102.7 149.05 100.85 148.25 99.1 148.65 98.55 149.15 98.0 151.3 97.4 L156.65 96.55 Q164.5 96.15 169.35 100.15" fill="#ffbd20" fill-rule="evenodd" stroke="none"/>
    <path d="M167.6 97.85 Q164.3 102.25 163.15 104.25 161.25 107.55 160.4 111.2 159.85 113.7 159.1 112.7 158.35 111.7 159.0 109.7 159.95 106.75 161.75 103.3 163.65 99.75 165.75 97.2 167.45 95.15 167.6 97.85" fill="#e31e00" fill-rule="evenodd" stroke="none"/>
    <path d="M164.95 96.0 Q161.8 100.55 160.7 102.6 158.9 105.95 158.15 109.6 157.65 112.1 156.9 111.2 156.15 110.25 156.7 108.25 158.65 101.2 163.0 95.5 164.7 93.4 164.95 96.0" fill="#e31e00" fill-rule="evenodd" stroke="none"/>
    <path d="M123.4 81.0 L131.35 81.75 136.0 93.3 126.5 91.45 123.4 81.0" fill="#1b2e54" fill-rule="evenodd" stroke="none"/>
    <path d="M124.25 81.0 L130.4 81.75 135.1 93.3 127.7 91.45 124.25 81.0" fill="#6fb9d7" fill-rule="evenodd" stroke="none"/>
    <path d="M124.25 81.0 L130.4 81.75 132.15 86.0 Q130.65 85.75 129.25 86.65 127.85 87.55 127.05 89.5 L124.25 81.0" fill="#3d7db8" fill-rule="evenodd" stroke="none"/>
    <path d="M166.5 37.25 Q177.45 36.95 172.85 46.5 171.6 48.95 170.9 53.8 170.15 58.65 170.1 64.15 170.05 77.25 173.65 83.65 175.8 87.5 175.95 91.9 176.15 96.95 173.2 99.05 170.0 101.3 166.95 99.25 164.1 97.2 161.75 91.35 158.8 83.95 161.05 68.4 161.95 62.05 163.55 56.05 165.1 50.3 166.65 47.0 168.7 42.75 168.45 41.55 168.1 40.25 165.0 40.85 160.65 41.55 166.5 37.25" fill="#111111" fill-rule="evenodd" stroke="none"/>
    <path d="M164.25 39.2 L166.5 37.25 Q177.45 36.95 172.85 46.5 171.6 48.95 170.9 53.8 170.15 58.65 170.1 64.15 170.05 77.25 173.65 83.65 175.8 87.5 175.95 91.9 176.15 96.95 173.2 99.05 L172.6 99.4 Q175.85 96.2 173.75 88.85 173.75 89.75 172.8 89.9 171.8 90.0 171.0 88.55 166.65 81.05 166.85 68.6 167.0 55.95 171.95 43.85 173.3 40.5 171.05 39.55 L164.25 39.2" fill="#502f4b" fill-rule="evenodd" stroke="none"/>
    <path d="M149.8 9.75 Q160.45 13.5 164.65 24.1 168.65 34.25 164.85 45.4 159.9 59.9 157.75 64.2 97.55 59.75 98.05 50.75 99.2 29.45 103.95 19.5 110.55 5.65 126.1 6.15 128.1 2.85 131.6 1.25 134.95 -0.3 138.65 0.1 142.4 0.45 145.35 2.85 148.5 5.5 149.8 9.75" fill="#1b2e54" fill-rule="evenodd" stroke="none"/>
    <path d="M148.1 10.05 Q159.35 14.2 163.6 24.4 167.6 34.0 163.85 45.0 159.05 59.0 156.95 63.15 98.6 58.8 99.1 50.1 99.6 40.25 100.7 33.85 102.1 25.4 104.85 19.8 111.6 6.25 128.05 7.3 L127.55 6.8 Q127.0 6.35 127.0 6.05 129.0 3.35 132.2 2.05 135.2 0.8 138.55 1.15 141.95 1.55 144.55 3.6 147.45 5.75 148.9 9.35 149.0 9.55 148.2 9.8 147.65 9.95 148.1 10.05" fill="#6fb9d7" fill-rule="evenodd" stroke="none"/>
    <path d="M121.95 12.4 Q119.95 13.7 118.1 17.25 113.55 16.15 110.0 19.6 106.7 22.8 104.95 29.0 103.25 35.1 103.65 42.1 104.1 49.45 106.8 55.5 98.9 52.95 99.1 50.1 99.6 40.25 100.7 33.85 102.1 25.4 104.85 19.8 111.6 6.25 128.05 7.3 L127.55 6.8 Q127.0 6.35 127.0 6.05 129.2 3.15 132.6 1.9 130.0 4.05 131.3 5.4 132.4 6.5 138.45 8.65 133.3 7.8 131.3 9.2 130.15 9.95 129.8 12.05 125.1 10.4 121.95 12.4" fill="#3d7db8" fill-rule="evenodd" stroke="none"/>
    <path d="M157.5 38.05 Q159.05 37.35 160.0 37.8 160.6 38.1 159.7 39.05 158.45 40.45 158.35 41.7 158.15 43.95 155.45 46.45 152.35 49.3 149.3 48.7 144.75 47.85 144.6 46.25 143.5 46.25 143.4 45.4 143.25 44.6 144.2 43.35 145.0 45.35 147.05 44.2 L148.9 44.4 152.8 41.3 Q155.8 38.85 157.5 38.05" fill="#3d7db8" fill-rule="evenodd" stroke="none"/>
    <path d="M132.85 28.95 Q134.9 30.8 135.35 33.8 136.05 38.4 135.2 44.7 134.45 50.6 132.75 54.85 131.75 57.45 125.0 57.75 L120.25 57.3 Q118.1 56.8 117.9 55.8 116.9 49.6 116.75 47.2 116.4 39.65 118.6 34.35 120.2 30.5 122.9 28.6 125.4 26.85 128.2 27.0 130.9 27.15 132.85 28.95" fill="#ffffff" fill-rule="evenodd" stroke="none"/>
    <path d="M158.95 41.1 Q159.95 42.35 159.8 44.5 159.5 50.0 152.55 58.85 148.4 59.0 143.45 56.8 L147.15 47.35 156.7 39.95 Q158.1 40.0 158.95 41.1" fill="#ffffff" fill-rule="evenodd" stroke="none"/>
    <path d="M118.4 34.75 L118.6 34.35 Q120.2 30.5 122.9 28.6 125.4 26.85 128.2 27.0 130.9 27.15 132.85 28.95 134.9 30.8 135.35 33.8 L135.6 35.5 Q132.55 31.0 127.45 30.6 122.2 30.25 118.4 34.75" fill="#2870a4" fill-rule="evenodd" stroke="none"/>
    <path d="M153.3 42.7 Q156.15 41.6 157.7 43.35 159.3 45.2 158.5 49.25 L157.9 51.0 Q157.45 52.0 157.55 51.3 158.45 45.75 156.4 44.05 154.75 42.8 151.9 44.05 L153.3 42.7" fill="#0c1748" fill-rule="evenodd" stroke="none"/>
    <path d="M158.5 49.25 Q159.3 45.25 157.75 43.45 156.3 41.7 153.55 42.65 L156.7 39.95 Q158.85 40.05 159.55 42.3 160.4 44.95 158.5 49.4 L158.5 49.25" fill="#2870a4" fill-rule="evenodd" stroke="none"/>
    <path d="M122.5 36.95 Q124.2 37.3 125.35 38.95 126.65 40.85 126.7 43.75 L126.7 45.75 121.3 46.35 126.5 48.3 Q126.15 51.5 124.9 54.55 L117.75 54.7 Q116.45 47.75 116.8 42.55 L117.1 41.0 Q117.75 38.8 119.3 37.65 120.8 36.6 122.5 36.95" fill="#111111" fill-rule="evenodd" stroke="none"/>
    <path d="M146.3 47.6 Q147.15 46.25 148.4 45.9 149.6 45.5 150.6 46.15 153.1 47.65 152.0 51.7 150.9 55.85 148.65 58.5 L143.2 57.15 146.3 47.6" fill="#111111" fill-rule="evenodd" stroke="none"/>
    <path d="M147.15 47.35 L149.6 45.8 Q151.1 46.0 151.85 47.55 152.7 49.25 152.0 51.7 150.85 55.9 148.65 58.45 L143.45 56.8 147.15 47.35" fill="#111111" fill-rule="evenodd" stroke="none"/>
    <path d="M130.15 16.35 Q128.4 15.25 126.4 15.15 121.6 15.1 119.45 21.3 120.05 17.4 122.0 15.25 123.75 13.2 126.1 13.0 128.4 12.85 130.2 14.45 132.2 16.15 132.85 19.25 131.95 17.5 130.15 16.35" fill="#1b2e54" fill-rule="evenodd" stroke="none"/>
    <path d="M154.05 41.35 L158.05 38.05 Q160.85 36.25 161.05 39.05 160.05 37.35 156.7 40.15 L150.7 45.45 147.85 47.15 Q146.7 47.5 145.65 46.7 145.15 46.3 145.25 46.1 L146.05 46.25 147.55 46.35 150.1 44.8 154.05 41.35" fill="#1b2e54" fill-rule="evenodd" stroke="none"/>
    <path d="M148.6 41.65 Q148.75 43.55 147.35 45.05 145.9 46.6 144.0 46.35 145.6 46.05 146.65 44.75 147.8 43.35 147.7 41.5 147.65 40.6 148.05 40.8 148.5 41.0 148.6 41.65" fill="#1b2e54" fill-rule="evenodd" stroke="none"/>
    <path d="M132.7 54.0 Q147.35 54.75 158.8 60.55 164.65 63.55 166.3 69.6 167.9 75.65 164.0 80.15 160.2 84.55 151.85 86.1 141.5 87.95 128.85 84.15 L119.9 83.6 112.3 83.75 Q105.15 83.05 102.4 81.35 97.65 78.45 98.2 70.7 93.2 63.65 92.25 58.3 91.3 52.95 94.65 50.35 97.95 47.85 102.2 49.15 106.35 50.35 110.1 54.7 L120.7 54.1 Q127.5 53.7 132.7 54.0" fill="#7b2d00" fill-rule="evenodd" stroke="none"/>
    <path d="M132.2 54.7 Q146.7 55.7 157.85 61.3 163.6 64.25 165.0 69.8 166.45 75.45 162.6 79.85 159.2 83.75 150.15 84.95 139.9 86.3 128.55 83.05 L121.6 82.8 Q115.45 83.1 113.15 82.9 L108.3 82.5 Q105.3 82.05 103.35 80.95 98.1 77.85 99.1 68.95 98.95 68.8 98.65 69.3 L98.3 69.6 Q93.9 63.15 93.2 58.25 92.4 53.3 95.6 51.0 98.55 48.7 102.8 50.2 106.4 51.55 109.8 55.1 125.1 54.25 132.2 54.7" fill="#fee36a" fill-rule="evenodd" stroke="none"/>
    <path d="M125.25 59.4 Q125.25 58.55 126.1 58.55 126.85 58.55 126.85 59.4 126.85 60.2 126.1 60.2 125.25 60.2 125.25 59.4" fill="#996400" fill-rule="evenodd" stroke="none"/>
    <path d="M132.0 64.55 Q132.0 63.6 132.85 63.6 133.8 63.6 133.8 64.55 133.8 65.45 132.85 65.45 132.0 65.45 132.0 64.55" fill="#996400" fill-rule="evenodd" stroke="none"/>
    <path d="M134.1 57.5 Q134.1 56.75 134.95 56.75 135.75 56.75 135.75 57.5 135.75 58.35 134.95 58.35 134.1 58.35 134.1 57.5" fill="#996400" fill-rule="evenodd" stroke="none"/>
    <path d="M118.35 62.15 Q118.35 61.3 119.2 61.3 120.1 61.3 120.1 62.15 120.1 63.05 119.2 63.05 118.35 63.05 118.35 62.15" fill="#996400" fill-rule="evenodd" stroke="none"/>
    <path d="M117.5 57.15 Q117.5 56.3 118.25 56.3 119.1 56.3 119.1 57.15 119.1 57.95 118.25 57.95 117.5 57.95 117.5 57.15" fill="#996400" fill-rule="evenodd" stroke="none"/>
    <path d="M163.9 72.4 Q163.95 71.5 164.4 71.5 164.85 71.45 164.85 72.25 164.85 73.05 164.35 73.1 163.9 73.15 163.9 72.4" fill="#996400" fill-rule="evenodd" stroke="none"/>
    <path d="M163.1 68.15 Q162.9 67.35 163.3 67.15 163.8 67.0 164.0 67.8 164.2 68.55 163.75 68.75 163.3 68.95 163.1 68.15" fill="#996400" fill-rule="evenodd" stroke="none"/>
    <path d="M105.95 58.75 Q103.55 64.8 110.85 70.1 113.35 71.85 123.75 74.8 136.2 78.2 138.45 79.1 145.9 82.1 150.9 82.5 159.1 83.15 163.85 78.15 L162.6 79.85 Q159.2 83.75 150.15 84.95 139.9 86.3 128.55 83.05 L121.6 82.8 Q115.45 83.1 113.15 82.9 L108.3 82.5 Q105.3 82.05 103.35 80.95 98.1 77.85 99.1 68.95 98.95 68.8 98.65 69.3 L98.3 69.6 Q93.9 63.15 93.2 58.25 92.4 53.3 95.6 51.0 96.85 50.0 98.35 49.75 94.8 51.05 94.25 55.45 93.75 59.4 95.7 62.05 97.45 64.55 99.8 63.65 101.7 63.0 102.9 60.8 103.7 59.3 103.2 58.25 102.8 57.3 101.85 57.3 104.55 54.15 107.4 58.15 L106.4 57.85 105.95 58.75" fill="#d59f32" fill-rule="evenodd" stroke="none"/>
    <path d="M121.95 81.65 Q122.2 82.35 120.7 82.45 L106.4 81.7 Q100.45 80.05 99.6 74.45 99.35 72.95 100.3 72.6 101.25 72.25 101.6 73.7 L102.5 76.7 Q103.3 78.25 104.9 79.2 108.95 81.6 120.45 81.05 121.7 81.0 121.95 81.65" fill="#ffed6c" fill-rule="evenodd" stroke="none"/>
    <path d="M102.0 66.65 L102.9 62.45 Q103.5 60.35 105.25 57.1 L105.7 57.05 105.85 57.55 Q102.2 64.7 108.2 69.95 113.65 74.6 125.6 76.95 L135.2 79.15 Q139.25 80.35 140.9 82.05 141.4 82.55 140.95 82.5 L139.9 82.1 Q137.95 80.75 134.6 80.45 L115.8 80.65 Q108.9 80.7 106.0 79.35 102.95 77.95 102.0 73.4 101.3 70.0 102.0 66.65" fill="#8c3000" fill-rule="evenodd" stroke="none"/>
    <path d="M130.45 78.75 Q131.3 78.9 131.25 79.25 131.2 79.7 130.0 79.6 L121.0 79.9 108.5 79.45 Q104.1 78.7 102.85 73.75 101.75 69.3 103.5 63.5 104.1 70.15 113.7 74.25 119.45 76.75 130.45 78.75" fill="#c1c6cd" fill-rule="evenodd" stroke="none"/>
    <path d="M107.3 57.1 Q107.8 57.3 107.45 57.55 L106.85 57.65 Q105.85 57.0 104.55 57.1 103.95 57.15 103.8 56.8 103.75 56.45 104.45 56.4 105.7 56.25 107.3 57.1" fill="#8c3000" fill-rule="evenodd" stroke="none"/>
    <path d="M106.0 69.2 Q109.85 73.55 119.4 76.3 120.2 77.85 119.6 79.95 L108.5 79.45 Q105.55 78.95 104.0 76.5 102.55 74.2 102.45 70.7 104.05 69.3 106.0 69.2" fill="#ffffff" fill-rule="evenodd" stroke="none"/>
    <path d="M119.7 79.95 L118.9 79.95 121.35 76.8 122.0 76.95 119.7 79.95" fill="#2c3d79" fill-rule="evenodd" stroke="none"/>
    <path d="M107.35 70.55 L103.15 74.8 103.0 74.1 106.9 70.1 107.35 70.55" fill="#476db1" fill-rule="evenodd" stroke="none"/>
    <path d="M114.45 74.6 L109.3 79.6 108.5 79.45 113.85 74.35 114.45 74.6" fill="#476db1" fill-rule="evenodd" stroke="none"/>
    <path d="M102.2 28.85 L99.6 26.85 Q97.7 25.6 96.35 25.85 95.0 26.2 94.6 33.6 L93.7 64.3 Q93.45 71.75 91.95 75.85 88.75 84.6 83.45 87.7 79.25 90.2 75.3 88.65 72.9 87.7 72.75 85.4 72.6 83.5 74.1 79.95 L77.7 72.55 81.85 63.45 Q85.2 55.05 86.95 44.65 L89.1 28.05 Q90.1 20.8 94.45 20.1 98.45 19.45 103.75 24.35 105.2 25.7 104.6 27.3 104.0 28.95 102.2 28.85" fill="#111111" fill-rule="evenodd" stroke="none"/>
    <path d="M160.0 63.7 Q160.85 64.75 160.85 65.65 160.85 66.5 160.1 66.85 158.1 67.75 153.6 65.55 148.3 63.0 146.55 61.75 144.2 60.05 144.2 58.35 144.2 56.65 151.4 59.3 158.45 61.85 160.0 63.7" fill="#d59f32" fill-rule="evenodd" stroke="none"/>
    <path d="M164.5 62.25 Q161.8 66.3 151.1 62.9 146.6 61.5 144.8 59.9 142.9 58.2 143.4 55.7 143.9 53.3 146.95 51.9 151.05 50.05 157.3 52.1 162.5 53.75 164.25 57.35 165.75 60.4 164.5 62.25" fill="#2f094d" fill-rule="evenodd" stroke="none"/>
    <path d="M160.5 61.0 L163.0 61.25 Q164.4 61.85 162.25 63.2 160.25 64.35 153.9 63.05 147.35 61.7 146.0 59.55 148.1 60.8 152.0 61.2 155.9 61.6 160.5 61.0" fill="#571b89" fill-rule="evenodd" stroke="none"/>
    <path d="M147.35 52.15 Q149.25 51.25 152.0 51.4 154.55 51.5 157.15 52.45 163.05 54.65 163.75 58.25 162.8 54.9 156.55 53.0 150.8 51.2 147.35 52.15" fill="#8c409c" fill-rule="evenodd" stroke="none"/>
    <path d="M160.5 56.25 Q159.55 57.6 155.7 56.45 152.65 55.6 153.0 54.15 153.15 53.3 154.25 52.8 L157.95 52.9 Q159.8 53.45 160.45 54.65 161.0 55.65 160.5 56.25" fill="#c575b8" fill-rule="evenodd" stroke="none"/>
    <path d="M160.1 55.7 L156.15 55.85 Q153.55 55.15 153.85 53.95 154.0 53.3 154.85 52.95 L157.95 53.0 Q159.45 53.45 160.0 54.45 160.45 55.2 160.1 55.7" fill="#f3d6ea" fill-rule="evenodd" stroke="none"/>
    <path d="M118.9 79.95 L119.85 78.7 119.6 79.95 118.9 79.95" fill="#476db1" fill-rule="evenodd" stroke="none"/>
    <path d="M118.1 35.15 Q119.6 32.25 122.05 30.5 124.45 28.9 127.15 28.85 129.85 28.8 132.05 30.45 134.45 32.25 135.65 35.65 136.05 36.8 135.9 37.75 135.75 38.7 135.35 37.65 133.25 32.0 127.95 31.25 122.65 30.4 118.1 35.15" fill="#1b2e54" fill-rule="evenodd" stroke="none"/>
    <path d="M123.1 86.95 Q124.45 87.55 125.05 88.35 130.0 88.6 136.4 90.95 144.25 93.8 150.95 98.75 169.1 112.1 173.4 135.4 174.6 142.1 175.4 144.45 173.25 146.15 160.1 146.25 L133.1 144.8 Q117.45 143.15 109.5 140.5 100.1 137.35 104.35 133.65 L109.0 130.75 Q111.8 128.8 112.45 126.75 113.25 124.2 113.25 119.35 111.55 120.3 108.7 119.3 106.2 118.4 103.4 116.35 100.75 114.3 99.05 112.05 97.2 109.65 97.25 108.05 97.3 106.45 97.7 105.65 98.05 104.95 98.8 104.5 L100.65 103.6 103.1 101.9 Q106.65 98.75 112.65 89.9 115.3 85.95 119.85 86.15 121.55 86.25 123.1 86.95" fill="#5f2916" fill-rule="evenodd" stroke="none"/>
    <path d="M173.9 143.45 Q175.05 152.0 173.95 165.35 172.5 182.95 167.25 201.3 167.15 201.75 163.35 202.35 L153.8 203.0 Q138.4 203.15 125.6 198.5 111.1 199.05 98.35 195.35 86.5 191.9 80.95 186.3 80.15 185.55 80.9 184.4 L82.45 182.45 Q89.25 173.15 94.9 163.1 98.85 156.05 101.2 150.65 100.85 142.3 104.15 137.75 108.3 131.95 119.15 130.25 137.35 127.35 151.4 130.25 167.1 133.5 173.9 143.45" fill="#341239" fill-rule="evenodd" stroke="none"/>
    <path d="M151.55 163.75 Q152.15 163.6 150.25 163.05 L144.5 162.3 138.45 162.45 Q136.95 162.7 137.05 163.2 137.1 163.7 138.35 163.5 L142.1 163.15 Q137.2 172.25 132.25 190.9 L130.95 194.85 Q130.45 195.55 129.05 196.0 L127.4 196.55 Q126.65 196.7 128.3 195.6 129.15 195.05 127.35 193.15 125.65 191.45 122.25 189.2 114.05 183.85 106.4 181.9 97.9 179.65 90.45 181.2 85.3 182.3 83.7 184.0 L82.5 185.4 Q82.15 185.85 81.95 185.7 81.55 185.2 83.7 182.4 90.3 173.35 96.05 163.15 100.15 155.95 102.5 150.75 100.9 138.85 110.3 132.8 113.9 131.05 119.15 130.25 136.55 127.5 150.25 130.05 165.5 132.9 172.7 141.9 174.2 151.05 172.9 165.4 171.45 182.5 166.35 200.15 L165.9 200.7 Q165.35 200.9 164.85 200.15 161.45 195.2 150.65 193.95 L141.15 193.65 Q136.35 194.0 132.55 194.95 133.5 190.05 136.25 181.1 139.95 169.15 143.35 163.35 L151.55 163.75" fill="#7f3d8c" fill-rule="evenodd" stroke="none"/>
    <path d="M107.3 106.0 Q109.15 106.0 110.95 106.85 113.15 107.85 114.25 109.7 111.75 115.35 105.95 123.55 99.2 133.1 90.75 141.8 90.2 142.3 85.55 137.35 80.9 132.3 81.3 130.9 89.9 125.35 96.7 118.65 101.95 113.35 107.3 106.0" fill="#1b2e54" fill-rule="evenodd" stroke="none"/>
    <path d="M113.85 109.1 Q111.1 114.85 105.05 123.25 98.1 133.05 89.95 141.45 L86.55 138.4 82.8 134.05 Q81.8 132.45 82.05 131.7 96.35 122.5 108.45 106.1 111.95 106.65 113.85 109.1" fill="#6fb9d7" fill-rule="evenodd" stroke="none"/>
    <path d="M136.55 91.95 Q144.2 94.8 150.7 99.65 168.2 112.65 172.25 134.75 L173.0 139.5 173.95 143.05 Q170.45 135.85 159.85 131.85 150.5 128.35 138.0 127.85 126.35 127.45 116.9 129.75 107.25 132.05 105.25 136.0 104.1 135.4 106.2 133.65 115.65 127.3 116.65 126.25 116.95 125.95 115.25 126.55 113.3 127.25 113.65 126.4 L114.25 118.8 Q121.0 109.65 123.65 102.0 125.4 96.9 124.7 92.75 124.4 96.8 122.7 101.5 120.3 108.0 115.9 113.3 116.25 109.25 112.95 106.9 110.75 105.35 107.45 104.8 L102.3 104.95 Q99.95 105.55 99.45 106.55 L98.75 107.25 Q98.6 107.15 98.7 106.55 98.85 105.35 100.4 104.65 102.8 103.55 104.1 102.4 106.4 100.35 109.0 96.9 L113.05 90.9 Q115.45 87.3 119.6 87.25 121.4 87.25 122.75 87.95 124.15 88.7 124.7 89.9 L125.05 89.4 125.3 89.1 Q130.25 89.55 136.55 91.95" fill="#ffbd20" fill-rule="evenodd" stroke="none"/>
    <path d="M59.45 218.35 L76.3 216.1 80.55 215.0 Q83.1 214.05 83.85 213.15 87.0 209.15 101.9 182.3 103.75 181.95 106.85 182.75 110.55 183.8 114.25 186.3 108.2 197.85 105.85 203.25 103.65 208.45 102.2 214.35 99.45 225.45 99.1 235.6 L98.55 244.7 Q97.6 246.95 92.15 249.75 85.75 252.95 76.65 254.8 44.45 261.15 26.55 253.4 23.5 252.05 22.4 249.05 21.7 246.9 22.05 244.7 23.5 235.4 29.3 229.55 34.2 224.6 42.75 221.8 49.0 219.75 59.45 218.35" fill="#1b2e54" fill-rule="evenodd" stroke="none"/>
    <path d="M142.2 194.25 L148.65 194.4 Q143.55 206.0 140.25 218.65 168.7 212.2 180.15 220.25 184.45 223.3 186.4 228.45 187.75 231.95 188.15 237.15 188.35 240.35 186.1 240.6 172.9 242.25 151.15 241.55 132.4 240.9 120.15 239.2 118.35 238.95 118.0 237.65 117.7 236.45 118.5 233.8 122.5 221.05 137.2 194.95 L142.2 194.25" fill="#1b2e54" fill-rule="evenodd" stroke="none"/>
    <path d="M76.9 217.3 Q78.75 217.0 81.3 215.9 84.05 214.75 84.8 213.75 86.95 211.05 103.1 182.2 107.75 182.15 113.3 185.75 107.45 196.9 104.9 202.8 102.2 209.0 100.8 214.55 98.15 225.25 97.75 235.3 L97.25 244.25 Q96.35 246.5 91.3 249.05 85.25 252.15 76.45 253.85 47.1 259.6 27.9 252.45 22.25 250.35 23.45 244.0 25.15 235.35 30.85 229.95 35.8 225.4 44.15 222.75 50.3 220.85 60.5 219.5 L76.9 217.3" fill="#6fb9d7" fill-rule="evenodd" stroke="none"/>
    <path d="M120.1 233.05 Q123.65 221.75 138.35 194.75 L147.65 194.3 Q142.2 206.9 138.85 219.75 166.35 213.6 178.1 220.6 186.0 225.25 186.85 236.55 187.0 239.3 184.65 239.6 160.85 242.55 121.3 238.15 119.6 238.0 119.4 236.7 119.25 235.65 120.1 233.05" fill="#6fb9d7" fill-rule="evenodd" stroke="none"/>
    <path d="M164.85 77.25 Q166.65 75.0 170.15 75.45 173.55 75.85 175.9 78.3 180.0 76.3 184.2 79.85 187.95 83.0 189.4 88.3 191.1 94.5 188.15 99.9 185.3 105.25 177.85 105.0 171.75 104.8 167.2 101.75 163.65 101.6 160.2 99.95 L157.75 98.75 155.4 98.05 Q154.3 98.2 153.15 99.3 L150.9 101.6 Q149.0 103.2 146.55 102.1 144.0 100.95 143.45 97.7 142.5 92.2 146.25 89.25 149.6 86.65 155.05 87.0 154.65 80.5 157.65 77.95 160.35 75.65 164.85 77.25" fill="#1d3f60" fill-rule="evenodd" stroke="none"/>
    <path d="M163.9 95.4 Q161.05 96.95 158.8 94.5 156.7 92.25 155.95 87.75 155.1 81.9 157.75 79.2 160.1 76.8 164.15 77.9 160.25 85.9 163.9 95.4" fill="#ffffff" fill-rule="evenodd" stroke="none"/>
    <path d="M176.6 79.25 Q180.15 77.55 183.45 80.35 187.0 83.45 188.4 88.4 190.1 94.3 187.25 99.45 184.5 104.5 177.5 104.15 171.75 103.9 167.35 100.85 164.75 100.95 161.15 99.35 157.05 97.55 156.05 97.4 156.25 96.9 155.9 96.85 L155.15 96.95 Q153.8 97.15 152.65 98.4 L150.45 100.65 Q148.65 102.1 146.75 101.1 144.8 100.05 144.4 97.4 143.65 92.7 147.0 89.95 150.15 87.45 155.05 87.75 157.4 99.2 164.4 96.15 167.0 99.05 170.9 97.35 171.15 98.15 172.45 98.75 173.85 99.4 175.45 99.35 179.8 99.3 181.55 95.1 182.15 93.8 181.7 93.2 181.35 92.75 180.9 92.8 181.0 91.85 181.5 90.6 182.05 89.5 182.4 89.25 L182.55 88.9 182.15 88.95 Q181.25 89.75 180.45 91.2 179.55 92.8 179.4 94.1 179.35 94.7 179.6 94.7 L180.0 94.0 Q180.2 93.3 180.45 93.6 180.7 93.9 180.55 94.5 179.9 97.45 176.45 98.25 L173.8 98.15 Q172.5 97.65 172.0 96.45 171.1 94.4 171.25 90.7 171.4 87.4 172.3 84.6 173.5 80.75 176.6 79.25" fill="#ffffff" fill-rule="evenodd" stroke="none"/>
    <path d="M163.2 86.15 Q163.2 81.05 165.15 78.1 166.55 76.0 169.7 76.45 172.6 76.8 175.0 78.95 172.75 80.2 171.7 82.9 170.45 86.3 170.2 90.2 169.9 93.9 170.55 96.3 168.95 97.5 166.8 96.65 164.85 95.8 164.3 94.05 163.2 90.3 163.2 86.15" fill="#ffffff" fill-rule="evenodd" stroke="none"/>
    <path d="M123.75 98.1 Q121.5 106.5 115.9 113.3 116.1 111.2 115.25 109.45 121.8 101.9 123.75 98.1" fill="#f27c01" fill-rule="evenodd" stroke="none"/>
    <path d="M123.7 112.65 Q121.65 120.65 118.1 124.2 L115.95 126.25 Q113.25 127.3 113.65 126.4 L114.25 118.8 Q121.0 109.65 123.65 102.0 124.55 99.5 124.8 97.55 125.7 104.55 123.7 112.65" fill="#f27c01" fill-rule="evenodd" stroke="none"/>
    <path d="M158.65 106.8 Q169.2 118.3 172.25 134.75 L173.0 139.5 173.95 143.05 Q171.55 138.1 165.6 134.6 165.5 127.1 163.5 119.2 161.55 111.85 158.65 106.8" fill="#f27c01" fill-rule="evenodd" stroke="none"/>
    <path d="M104.4 102.1 L106.65 99.8 Q108.3 98.75 110.55 99.1 112.65 99.35 114.65 100.65 116.65 102.0 117.95 103.95 119.3 106.0 119.45 108.15 L118.2 110.2 Q118.0 104.9 113.4 102.3 111.4 101.15 109.05 101.05 106.6 100.95 104.4 102.1" fill="#e31e00" fill-rule="evenodd" stroke="none"/>
    <path d="M118.2 110.2 Q118.15 108.4 117.5 106.8 L118.75 105.3 Q119.4 106.85 119.45 108.15 L118.2 110.2" fill="#a51800" fill-rule="evenodd" stroke="none"/>
    <path d="M121.3 104.7 L120.3 106.7 Q120.1 102.25 115.75 99.4 111.55 96.5 108.0 98.2 L109.25 96.5 Q110.35 95.9 112.2 96.1 114.1 96.3 115.95 97.35 120.55 99.85 121.3 104.7" fill="#e31e00" fill-rule="evenodd" stroke="none"/>
    <path d="M120.3 106.7 Q120.25 105.35 119.75 104.1 L120.75 102.7 121.3 104.7 120.3 106.7" fill="#a51800" fill-rule="evenodd" stroke="none"/>
    <path d="M129.7 110.3 L144.35 109.8 Q151.95 110.6 158.0 113.2 164.4 115.95 167.65 120.2 L169.95 125.85 Q166.7 121.1 159.15 117.95 152.1 115.05 143.2 114.2 134.3 113.4 126.65 115.05 118.5 116.75 114.2 120.7 L114.25 118.8 116.95 114.85 Q122.2 111.6 129.7 110.3" fill="#e31e00" fill-rule="evenodd" stroke="none"/>
    <path d="M167.65 120.2 L169.9 125.8 Q167.75 122.7 163.75 120.2 L162.4 115.5 Q165.6 117.6 167.65 120.2" fill="#a51800" fill-rule="evenodd" stroke="none"/>
    <path d="M114.25 118.8 L116.95 114.85 Q119.9 113.0 123.9 111.75 L122.65 116.1 Q117.3 117.85 114.2 120.7 L114.25 118.8" fill="#a51800" fill-rule="evenodd" stroke="none"/>
    <path d="M146.55 117.45 Q155.05 118.85 161.8 122.15 168.65 125.45 171.05 129.5 L172.1 133.95 Q167.9 129.0 160.3 125.85 153.25 122.9 144.7 121.95 136.4 121.1 128.85 122.3 121.2 123.45 116.45 126.4 L116.65 126.25 Q116.95 125.95 115.25 126.55 113.3 127.25 113.65 126.4 L114.1 123.35 Q120.1 118.7 129.2 117.3 137.4 115.95 146.55 117.45" fill="#e31e00" fill-rule="evenodd" stroke="none"/>
    <path d="M165.2 128.25 L164.4 123.55 Q169.2 126.35 171.05 129.5 L172.1 133.95 Q169.4 130.85 165.2 128.25" fill="#a51800" fill-rule="evenodd" stroke="none"/>
    <path d="M115.3 126.5 L115.25 126.55 114.6 126.75 114.55 126.75 114.0 126.85 113.75 126.85 113.65 126.75 113.55 126.6 113.8 125.85 113.8 125.7 113.95 125.1 113.95 124.95 114.0 124.25 114.0 124.15 114.1 123.35 Q117.35 120.9 121.3 119.3 119.85 122.45 118.1 124.2 L115.95 126.25 115.3 126.5" fill="#a51800" fill-rule="evenodd" stroke="none"/>
    <path d="M84.8 182.45 Q92.4 178.55 104.35 180.6 117.15 182.75 126.85 190.95 130.0 193.55 130.3 195.5 L127.4 196.55 Q126.65 196.7 128.3 195.6 129.15 195.05 127.35 193.15 125.65 191.45 122.25 189.2 114.05 183.85 106.4 181.9 97.9 179.65 90.45 181.2 85.3 182.3 83.7 184.0 L82.5 185.4 Q82.15 185.85 81.95 185.7 81.55 185.2 83.7 182.4 L84.8 182.45" fill="#4f2765" fill-rule="evenodd" stroke="none"/>
    <path d="M139.65 130.55 L123.7 131.3 Q115.7 132.4 109.75 134.7 106.15 138.5 105.8 144.5 105.65 146.85 106.15 148.5 106.7 150.15 107.6 150.15 105.05 156.3 96.5 167.45 88.9 177.4 83.7 182.4 90.3 173.35 96.05 163.15 100.15 155.95 102.5 150.75 100.9 138.85 110.3 132.8 113.9 131.05 119.15 130.25 136.55 127.5 150.25 130.05 165.5 132.9 172.7 141.9 174.2 151.05 172.9 165.4 171.45 182.5 166.35 200.15 L165.9 200.7 Q165.35 200.9 164.85 200.15 161.45 195.2 150.65 193.95 L141.15 193.65 Q136.35 194.0 132.55 194.95 L132.75 193.95 Q138.15 192.0 145.25 192.15 152.65 192.25 160.35 194.65 L161.65 195.05 Q162.45 195.1 162.8 194.2 167.4 183.05 168.4 163.65 168.85 155.45 168.4 148.65 167.95 141.8 166.8 138.7 158.0 131.45 139.65 130.55" fill="#622973" fill-rule="evenodd" stroke="none"/>
    <path d="M150.25 163.05 L144.5 162.3 138.45 162.45 Q136.95 162.7 137.05 163.2 137.1 163.7 138.35 163.5 L142.1 163.15 Q137.85 171.0 133.65 185.95 134.55 173.4 133.7 167.25 133.1 162.45 131.65 162.45 L129.6 162.1 127.35 161.25 Q125.3 159.95 131.65 159.35 L145.55 160.05 Q153.75 161.05 157.85 162.1 160.8 162.9 158.1 163.35 L153.5 163.7 Q152.85 163.7 151.15 164.45 L146.95 167.0 Q140.95 171.5 137.2 178.3 140.4 168.45 143.35 163.35 L151.55 163.75 Q152.15 163.6 150.25 163.05" fill="#4f2765" fill-rule="evenodd" stroke="none"/>
    <path d="M113.85 109.1 Q111.1 114.85 105.05 123.25 98.1 133.05 89.95 141.45 L88.45 140.2 89.1 139.0 Q98.75 131.55 110.35 113.1 110.35 111.25 109.15 110.15 107.9 109.05 106.0 109.4 L108.45 106.1 Q111.95 106.65 113.85 109.1" fill="#3d7db8" fill-rule="evenodd" stroke="none"/>
    <path d="M152.7 87.8 L155.05 87.75 Q157.4 99.2 164.4 96.15 167.0 99.05 170.9 97.35 171.4 98.95 174.6 99.3 178.15 99.65 180.3 97.2 179.6 100.0 181.3 101.5 L185.65 101.6 Q182.7 104.4 177.45 104.15 172.45 103.6 166.95 98.85 166.2 98.15 166.05 98.7 165.95 99.3 166.6 100.05 165.4 100.15 162.4 98.6 L157.05 95.85 Q157.7 95.0 156.15 92.2 154.6 89.45 152.7 87.8" fill="#b8d2ca" fill-rule="evenodd" stroke="none"/>
    <path d="M181.35 87.95 Q182.5 86.65 183.5 87.1 L183.85 87.55 183.45 88.2 Q182.8 88.55 182.4 89.9 L181.65 93.15 Q181.3 92.8 180.9 92.8 181.0 91.85 181.5 90.6 182.05 89.5 182.4 89.25 L182.55 88.9 182.15 88.95 Q181.25 89.75 180.45 91.2 179.55 92.8 179.4 94.1 179.35 94.7 179.6 94.7 L180.0 94.0 Q180.2 93.3 180.45 93.6 180.7 93.9 180.55 94.5 179.9 97.45 176.45 98.25 L173.8 98.15 Q172.5 97.65 172.0 96.45 L171.4 94.3 Q172.75 97.0 176.25 96.15 178.3 95.7 179.5 92.45 L180.35 89.9 Q180.85 88.55 181.35 87.95" fill="#b8d2ca" fill-rule="evenodd" stroke="none"/>
    <path d="M151.55 99.55 L150.45 100.65 Q148.65 102.1 146.75 101.1 144.8 100.05 144.4 97.4 144.15 95.65 144.5 93.95 144.45 97.75 146.2 99.75 148.3 102.1 151.55 99.55" fill="#b8d2ca" fill-rule="evenodd" stroke="none"/>
    <path d="M161.25 94.1 Q162.15 94.0 162.35 92.75 L162.3 88.85 Q162.6 92.0 163.9 95.4 161.2 96.9 159.0 94.7 157.0 92.75 156.2 88.6 157.15 91.3 158.8 92.9 160.2 94.3 161.25 94.1" fill="#b8d2ca" fill-rule="evenodd" stroke="none"/>
    <path d="M164.3 94.05 L163.7 91.4 Q164.65 93.5 166.65 94.2 L169.25 94.1 Q169.75 93.8 170.15 91.3 170.05 94.45 170.55 96.3 168.95 97.5 166.8 96.65 164.85 95.8 164.3 94.05" fill="#b8d2ca" fill-rule="evenodd" stroke="none"/>
    <path d="M88.5 132.55 Q92.75 137.75 92.15 143.0 91.45 148.2 86.25 150.65 L80.1 150.5 Q77.25 149.1 74.85 145.85 72.55 142.7 71.65 139.2 70.7 135.5 71.85 132.9 72.75 130.9 74.65 129.6 76.55 128.3 78.95 128.05 84.35 127.55 88.5 132.55" fill="#1d3f60" fill-rule="evenodd" stroke="none"/>
    <path d="M72.8 133.7 Q74.55 129.75 79.2 129.3 84.1 128.9 87.8 133.35 91.65 138.0 91.1 142.6 90.55 147.2 85.8 149.4 L80.25 149.25 Q77.7 148.05 75.5 145.1 73.4 142.35 72.65 139.25 71.8 135.95 72.8 133.7" fill="#ffffff" fill-rule="evenodd" stroke="none"/>
    <path d="M83.25 143.05 Q86.7 144.6 88.75 143.45 90.6 142.45 91.0 139.5 91.6 142.65 90.25 145.3 88.9 147.95 85.8 149.4 L80.25 149.25 Q77.7 148.05 75.5 145.1 73.4 142.35 72.65 139.25 71.8 135.95 72.8 133.7 73.85 131.5 76.15 130.25 74.2 133.3 76.5 137.2 78.75 140.95 83.25 143.05" fill="#b8d2ca" fill-rule="evenodd" stroke="none"/>
    <path d="M76.65 135.0 Q83.6 138.4 86.15 144.45 88.6 150.15 86.6 156.6 85.05 161.85 78.85 167.75 75.65 170.75 70.2 174.65 64.3 178.85 58.5 178.3 54.7 177.9 48.05 174.6 47.15 174.65 44.25 175.75 L33.0 180.05 Q29.4 181.05 26.65 179.7 24.1 180.3 21.9 178.95 19.4 177.4 19.35 174.05 19.15 165.9 25.15 160.15 27.5 157.9 31.6 155.2 L39.6 150.25 Q42.45 148.4 43.3 146.75 43.95 145.45 43.7 142.85 L37.15 142.1 Q32.7 141.65 30.8 140.7 28.15 139.25 26.85 136.75 25.7 134.5 25.9 132.1 26.15 129.75 27.55 128.45 29.05 127.05 31.3 127.5 37.35 128.85 43.95 129.45 52.5 130.2 57.8 129.25 69.55 127.1 76.65 135.0" fill="#1d3f60" fill-rule="evenodd" stroke="none"/>
    <path d="M85.0 144.75 Q87.05 150.1 85.15 156.4 83.6 161.5 77.85 166.9 74.9 169.75 69.7 173.35 64.0 177.4 58.35 176.95 54.55 176.6 48.15 173.45 46.1 172.3 45.45 171.55 44.05 169.95 44.9 167.7 45.45 166.2 46.95 164.9 48.6 163.35 50.75 162.85 56.45 161.55 62.85 167.85 63.45 168.55 63.6 168.2 63.85 167.9 63.2 167.2 L62.35 165.85 Q63.35 156.9 63.4 151.65 63.5 148.0 64.8 145.25 65.95 142.85 67.55 141.9 68.8 141.15 68.25 141.25 L67.1 141.8 Q64.95 143.15 63.95 144.85 62.65 147.15 62.35 151.0 L61.4 164.95 Q49.5 156.8 43.9 167.35 43.05 168.9 43.75 170.85 44.5 172.85 46.55 173.8 L32.9 179.0 Q29.35 179.95 27.45 178.4 26.2 176.35 26.55 173.25 26.95 169.6 29.6 167.5 36.6 161.95 48.75 159.55 49.5 159.4 52.2 160.2 L53.15 160.15 Q53.3 159.85 52.7 159.8 51.7 159.6 48.75 157.1 47.85 156.35 47.55 156.65 47.3 156.95 47.7 157.25 L48.9 158.75 Q40.3 160.8 35.75 162.7 31.9 164.25 29.1 166.65 26.25 169.05 25.4 172.45 24.5 175.85 26.15 178.75 24.1 179.05 22.6 177.9 20.75 176.6 20.65 173.95 20.5 166.1 26.7 160.3 29.1 158.05 33.25 155.4 L41.15 150.5 Q43.55 149.05 44.3 146.9 44.95 145.3 44.85 142.85 L46.15 142.55 Q47.0 142.4 44.75 141.8 L38.45 141.1 Q33.35 140.65 31.85 139.85 29.6 138.65 28.3 136.5 27.15 134.55 27.2 132.4 27.2 130.35 28.4 129.2 29.7 127.95 31.85 128.45 L44.2 130.3 Q52.5 131.05 57.6 130.1 63.25 129.05 68.05 130.55 72.75 132.05 76.05 135.75 82.7 138.9 85.0 144.75" fill="#ffffff" fill-rule="evenodd" stroke="none"/>
    <path d="M77.85 166.9 Q74.9 169.75 69.7 173.35 64.0 177.4 58.35 176.95 54.55 176.6 48.15 173.45 46.1 172.3 45.45 171.55 44.05 169.95 44.9 167.7 45.05 169.7 48.45 171.5 49.35 172.0 54.6 174.1 57.4 175.3 60.5 175.0 63.7 174.65 67.85 172.6 72.25 170.4 77.8 164.2 83.8 157.45 86.05 151.2 85.95 153.85 85.15 156.4 83.6 161.5 77.85 166.9" fill="#b8d2ca" fill-rule="evenodd" stroke="none"/>
    <path d="M25.15 175.35 Q25.25 177.15 26.15 178.75 24.1 179.05 22.6 177.9 20.75 176.6 20.65 173.95 L20.65 173.4 Q21.95 176.15 25.15 175.35" fill="#b8d2ca" fill-rule="evenodd" stroke="none"/>
    <path d="M32.9 179.0 Q29.35 179.95 27.45 178.4 L26.7 176.45 Q27.75 177.45 29.85 177.2 31.85 177.0 34.2 175.7 L43.75 170.8 Q44.5 172.85 46.55 173.8 L32.9 179.0" fill="#b8d2ca" fill-rule="evenodd" stroke="none"/>
    <path d="M62.05 158.15 L61.4 164.95 59.35 163.65 62.05 158.15" fill="#b8d2ca" fill-rule="evenodd" stroke="none"/>
    <path d="M53.35 143.05 Q50.25 143.75 47.45 147.25 L45.6 149.7 44.1 151.0 Q38.4 152.9 34.65 154.5 L41.15 150.5 Q43.55 149.05 44.3 146.9 44.95 145.3 44.85 142.85 L46.15 142.55 Q47.0 142.4 44.75 141.8 L38.45 141.1 Q33.35 140.65 31.85 139.85 28.95 138.35 27.8 135.35 L28.05 135.65 Q31.8 139.55 42.25 138.7 44.5 138.5 48.6 140.65 L53.35 143.05" fill="#b8d2ca" fill-rule="evenodd" stroke="none"/>
  </g>
</svg>
