<?xml version="1.0" encoding="UTF-8" standalone="no"?>
<svg xmlns:xlink="http://www.w3.org/1999/xlink" height="236.9px" width="163.4px" xmlns="http://www.w3.org/2000/svg">
  <g transform="matrix(1.0, 0.0, 0.0, 1.0, -23.45, -20.05)">
    <path d="M100.8 214.55 Q98.15 225.25 97.75 235.3 L97.25 244.25 Q96.35 246.5 91.3 249.05 85.25 252.15 76.45 253.85 47.1 259.6 27.9 252.45 24.35 251.15 23.45 247.95 24.5 249.2 26.85 249.45 27.25 251.75 33.25 253.25 39.2 254.8 42.05 253.4 48.6 255.9 64.45 254.05 80.5 252.3 90.1 247.85 92.1 246.9 93.1 245.8 94.05 244.7 94.4 242.95 L94.7 238.45 94.45 231.6 Q94.2 224.5 98.3 212.7 L105.15 195.6 Q104.35 194.25 102.25 193.05 100.1 191.85 97.95 191.5 L103.1 182.2 Q107.75 182.15 113.3 185.75 107.45 196.9 104.9 202.8 102.2 209.0 100.8 214.55" fill="#3d7db8" fill-rule="evenodd" stroke="none"/>
    <path d="M143.75 199.7 Q138.45 197.5 134.35 204.65 130.85 210.8 125.9 221.85 120.4 234.05 121.0 235.7 121.5 237.25 123.95 237.75 L156.9 239.5 Q176.2 240.2 177.85 238.55 178.55 239.5 181.95 239.2 185.5 238.9 186.85 237.6 186.65 239.35 184.65 239.6 160.85 242.55 121.3 238.15 119.6 238.0 119.4 236.7 119.25 235.65 120.1 233.05 123.65 221.75 138.35 194.75 L147.65 194.3 Q142.2 206.9 138.85 219.75 150.95 217.1 159.7 216.9 152.55 217.65 146.35 219.2 139.5 220.95 136.15 223.15 133.3 225.1 134.35 223.0 137.2 216.95 140.55 208.3 L143.75 199.7" fill="#3d7db8" fill-rule="evenodd" stroke="none"/>
    <path d="M171.6 225.0 L170.9 224.2 Q170.75 223.75 171.7 224.4 175.05 226.65 176.85 230.5 178.3 233.75 178.3 237.3 178.3 240.55 177.2 240.8 L175.3 241.1 Q177.3 240.1 177.3 237.4 177.3 234.8 176.2 231.75 174.7 227.35 171.6 225.0" fill="#1b2e54" fill-rule="evenodd" stroke="none"/>
    <path d="M46.6 237.2 Q47.35 236.5 47.6 236.6 47.85 236.75 47.25 237.7 41.75 246.25 42.6 256.5 42.65 257.2 42.0 256.85 41.3 256.55 41.25 255.55 40.65 250.8 42.05 245.9 43.5 240.65 46.6 237.2" fill="#1b2e54" fill-rule="evenodd" stroke="none"/>
    <path d="M35.2 232.4 Q35.95 232.05 36.05 232.25 L35.2 233.2 Q30.7 236.25 28.95 241.45 27.6 245.35 27.3 252.45 27.25 253.4 26.8 253.15 26.4 252.9 26.4 251.95 26.45 244.85 27.7 241.1 29.6 235.2 35.2 232.4" fill="#1b2e54" fill-rule="evenodd" stroke="none"/>
    <path d="M103.5 24.15 L104.05 25.45 103.15 25.5 101.3 24.2 98.55 22.6 Q94.7 20.95 93.1 24.45 92.4 25.8 92.05 24.45 91.85 23.75 91.2 24.45 90.55 25.3 89.95 27.8 89.15 31.45 88.3 39.3 L87.3 48.45 Q87.15 49.5 87.35 50.55 87.5 51.45 87.9 51.75 88.95 52.4 89.85 47.85 90.6 44.45 90.35 47.15 90.1 49.5 89.8 56.75 L89.05 67.15 Q87.7 79.45 82.8 82.8 79.65 85.0 77.4 85.3 75.6 85.5 74.75 84.65 L74.0 84.0 73.9 84.65 Q74.0 86.65 75.35 87.75 77.45 89.45 82.15 88.4 L75.3 88.65 Q72.9 87.7 72.75 85.4 72.6 83.5 74.1 79.95 L77.7 72.55 81.85 63.45 Q85.2 55.05 86.95 44.65 L89.1 28.05 Q90.1 20.85 94.4 20.15 98.25 19.4 103.5 24.15" fill="#502f4b" fill-rule="evenodd" stroke="none"/>
  </g>
</svg>
