<?xml version="1.0" encoding="UTF-8" standalone="no"?>
<svg xmlns:xlink="http://www.w3.org/1999/xlink" height="171.2px" width="177.85px" xmlns="http://www.w3.org/2000/svg">
  <g transform="matrix(1.0, 0.0, 0.0, 1.0, 0.0, -85.0)">
    <path d="M70.0 203.5 L75.0 218.2 Q79.6 230.15 86.2 241.35 89.95 247.7 84.2 249.65 76.3 252.35 59.75 254.45 41.45 256.7 29.05 253.95 24.25 252.9 21.4 251.35 18.85 249.9 18.7 248.6 19.9 231.1 35.05 226.65 47.85 222.9 68.5 228.65 67.0 224.8 60.2 203.95 67.85 197.1 70.0 203.5" fill="#172d7f" fill-rule="evenodd" stroke="none"/>
    <path d="M68.85 203.5 L73.75 217.9 Q78.25 229.55 84.85 240.7 88.55 247.0 83.15 248.8 74.35 251.7 58.75 253.6 41.85 255.6 29.95 253.2 25.25 252.2 22.45 250.75 19.95 249.4 19.85 248.15 20.95 230.65 36.3 226.85 49.2 223.65 70.35 230.25 68.85 226.5 61.05 203.5 66.8 197.1 68.85 203.5" fill="#6fb9d7" fill-rule="evenodd" stroke="none"/>
    <path d="M68.85 203.5 L72.7 215.0 Q68.6 211.4 67.05 210.75 64.55 209.85 64.5 213.55 L61.05 203.5 Q66.8 197.1 68.85 203.5" fill="#3c84bb" fill-rule="evenodd" stroke="none"/>
    <path d="M84.85 240.7 Q88.55 247.0 83.15 248.8 74.35 251.7 58.75 253.6 41.85 255.6 29.95 253.2 25.25 252.2 22.45 250.75 19.95 249.4 19.85 248.15 L20.2 244.45 Q20.9 249.65 24.75 245.6 25.45 248.9 27.95 248.95 30.3 249.05 31.25 246.25 32.65 250.3 38.45 251.55 43.4 252.65 52.75 251.8 L74.05 249.45 Q86.5 246.85 84.85 240.7" fill="#3c84bb" fill-rule="evenodd" stroke="none"/>
    <path d="M24.2 252.2 Q24.2 251.9 23.35 251.8 22.5 251.7 22.6 251.35 24.95 237.3 30.0 234.3 28.15 236.0 26.35 240.65 24.2 246.35 24.2 252.2" fill="#172d7f" fill-rule="evenodd" stroke="none"/>
    <path d="M30.8 253.6 Q29.25 254.1 29.35 253.0 30.8 242.85 34.6 238.7 32.45 242.3 31.8 244.75 30.95 247.85 30.8 253.6" fill="#172d7f" fill-rule="evenodd" stroke="none"/>
    <path d="M122.3 232.9 Q137.35 227.2 150.25 226.65 162.05 226.15 169.5 229.85 177.7 234.0 177.85 243.35 177.9 246.6 176.95 249.75 176.1 252.4 175.25 253.05 169.5 256.0 155.8 256.2 141.35 256.3 122.35 253.3 114.25 252.0 109.7 250.7 107.2 250.0 107.55 245.35 107.85 241.0 110.35 236.45 109.1 228.0 99.3 205.0 L108.65 202.0 122.3 232.9" fill="#172d7f" fill-rule="evenodd" stroke="none"/>
    <path d="M121.65 234.1 Q137.5 228.25 148.6 227.35 159.55 226.4 167.8 230.25 176.15 234.25 176.7 243.0 176.9 246.15 175.95 249.0 175.25 251.55 174.4 252.2 168.0 255.45 150.95 254.9 134.05 254.25 111.0 249.85 108.4 249.4 108.65 245.1 108.9 241.0 111.45 236.45 110.15 228.0 100.55 205.2 L107.6 202.45 Q112.7 214.4 121.65 234.1" fill="#6fb9d7" fill-rule="evenodd" stroke="none"/>
    <path d="M166.8 247.55 Q167.35 248.75 168.4 249.4 169.45 250.1 170.5 250.05 173.15 249.9 173.4 245.8 173.75 248.35 174.9 248.95 175.9 249.4 176.3 247.85 175.55 251.3 174.4 252.2 168.85 255.1 155.2 255.1 141.5 255.1 122.85 252.2 114.9 250.9 111.0 249.85 108.4 249.2 108.65 244.95 108.9 241.0 111.45 236.45 110.15 228.0 100.55 205.2 L107.6 202.45 111.75 212.05 Q110.45 209.9 107.05 211.35 105.5 212.0 105.5 213.7 L109.4 225.05 Q111.75 231.75 112.55 235.5 112.75 236.45 111.65 238.45 109.95 241.55 109.9 243.9 109.9 247.3 113.55 248.2 122.1 250.4 134.7 251.8 151.1 253.65 160.6 252.15 166.25 251.3 166.8 247.55" fill="#3c84bb" fill-rule="evenodd" stroke="none"/>
    <path d="M173.6 253.05 Q173.6 253.4 172.7 253.45 171.85 253.5 171.7 253.9 173.35 248.05 172.75 242.35 172.25 237.7 170.85 235.95 175.1 238.95 173.6 253.05" fill="#172d7f" fill-rule="evenodd" stroke="none"/>
    <path d="M165.25 254.8 Q166.55 249.05 166.45 246.05 166.35 243.6 165.05 240.0 166.8 242.65 167.1 246.9 167.3 249.6 166.8 254.3 166.7 255.65 165.25 254.8" fill="#172d7f" fill-rule="evenodd" stroke="none"/>
    <path d="M49.5 88.0 Q54.9 87.45 57.25 85.95 58.75 86.35 59.1 87.9 59.35 89.6 57.95 90.65 L56.05 92.55 54.85 94.7 Q53.9 96.35 52.55 97.05 50.7 97.95 46.35 98.45 43.4 103.15 33.15 103.45 23.95 103.8 16.35 100.85 7.6 97.45 2.4 92.7 -1.2 89.3 0.55 87.25 3.3 84.15 6.75 85.35 10.15 86.55 14.8 92.05 19.05 89.1 23.6 87.9 29.9 86.35 33.85 89.35 L45.75 88.35 47.9 89.1 49.5 88.0" fill="#2d4c76" fill-rule="evenodd" stroke="none"/>
    <path d="M50.8 87.85 Q53.25 87.7 56.4 86.5 57.85 86.2 58.4 87.65 59.0 89.05 57.6 90.15 56.4 91.05 55.75 92.05 L54.3 94.3 Q53.05 96.15 52.0 96.6 50.5 97.3 46.2 97.8 43.25 102.35 32.7 102.6 23.55 102.75 16.75 100.2 7.95 96.85 2.55 91.85 0.0 89.5 1.3 87.65 5.45 82.15 14.35 92.4 L13.85 93.2 Q13.5 93.65 14.65 92.8 18.7 89.95 24.1 88.7 30.65 87.15 33.95 89.85 L34.35 90.0 33.85 89.35 44.45 88.55 Q45.3 88.45 47.8 89.7 L48.95 90.0 48.5 89.35 50.8 87.85" fill="#ffffff" fill-rule="evenodd" stroke="none"/>
    <path d="M50.8 87.85 Q53.25 87.7 56.4 86.5 57.85 86.2 58.4 87.65 59.0 89.05 57.6 90.15 56.4 91.05 55.75 92.05 L54.3 94.3 Q53.05 96.15 52.0 96.6 50.5 97.3 46.2 97.8 43.25 102.35 32.7 102.6 23.55 102.75 16.75 100.2 7.95 96.85 2.55 91.85 0.0 89.5 1.3 87.65 5.45 82.15 14.35 92.4 L13.85 93.2 Q13.5 93.65 14.65 92.8 18.7 89.95 24.1 88.7 30.65 87.15 33.95 89.85 L34.35 90.0 33.85 89.35 44.45 88.55 Q45.3 88.45 47.8 89.7 L48.95 90.0 48.5 89.35 50.8 87.85" fill="#ffffff" fill-rule="evenodd" stroke="none"/>
  </g>
</svg>
