<?xml version="1.0" encoding="UTF-8" standalone="no"?>
<svg xmlns:xlink="http://www.w3.org/1999/xlink" height="208.4px" width="149.8px" xmlns="http://www.w3.org/2000/svg">
  <g transform="matrix(1.0, 0.0, 0.0, 1.0, -0.85, 0.0)">
    <path d="M58.35 89.15 L57.6 90.15 Q56.4 91.05 55.75 92.05 L54.3 94.3 Q53.05 96.15 52.0 96.6 50.5 97.3 46.2 97.8 43.25 102.35 32.7 102.6 23.55 102.75 16.75 100.2 7.95 96.85 2.55 91.85 0.0 89.5 1.3 87.65 L1.7 87.25 Q1.35 89.4 3.4 91.4 5.6 93.65 11.15 96.15 18.6 99.45 25.85 99.65 38.2 99.95 46.65 94.95 48.9 93.65 49.65 94.1 50.25 94.5 49.75 95.25 49.2 95.9 51.0 95.7 52.7 95.5 53.45 94.05 L54.55 91.4 Q55.05 90.25 56.15 89.85 L58.15 88.75 Q58.75 88.45 58.35 89.15" fill="#c2d6d4" fill-rule="evenodd" stroke="none"/>
    <path d="M44.45 98.1 Q44.9 101.55 42.3 104.15 39.7 106.8 36.35 106.4 33.75 106.15 31.8 106.35 L28.95 106.4 Q27.15 106.25 25.6 104.7 24.1 103.2 23.5 101.05 22.05 95.8 26.8 92.6 28.85 91.2 31.8 90.9 L37.4 91.5 Q43.85 93.4 44.45 98.1" fill="#2d4c76" fill-rule="evenodd" stroke="none"/>
    <path d="M43.65 97.65 Q44.25 100.5 41.75 103.2 39.3 105.95 36.15 105.6 34.0 105.4 31.9 105.55 L29.25 105.4 Q27.3 104.95 25.9 103.45 24.6 101.95 24.2 100.0 23.35 95.4 27.4 92.8 31.15 90.45 36.8 91.85 42.75 93.25 43.65 97.65" fill="#ffffff" fill-rule="evenodd" stroke="none"/>
    <path d="M43.55 100.2 Q42.95 102.35 41.0 104.0 38.7 105.85 36.15 105.6 34.0 105.4 31.9 105.55 L29.25 105.4 Q27.1 104.95 25.65 103.15 24.25 101.35 24.15 99.15 25.45 102.35 28.2 100.7 L29.75 98.55 Q31.35 96.75 34.0 96.85 37.85 97.0 39.5 100.9 40.0 102.3 41.9 101.5 43.2 100.9 43.55 100.2" fill="#c2d6d4" fill-rule="evenodd" stroke="none"/>
    <path d="M36.5 99.6 Q37.7 100.7 38.25 102.6 L39.3 112.15 Q40.25 117.75 42.35 123.5 L50.5 118.2 57.9 124.3 45.3 132.65 Q41.5 135.0 39.25 134.75 36.9 134.45 35.25 131.6 32.25 126.3 30.6 116.9 29.3 109.75 29.3 104.15 30.4 98.6 33.85 98.55 35.25 98.5 36.5 99.6" fill="#172d7f" fill-rule="evenodd" stroke="none"/>
    <path d="M35.9 99.95 Q37.0 100.9 37.45 102.6 38.1 114.05 41.9 124.4 43.85 123.0 51.2 118.8 L56.9 123.3 Q51.05 127.05 46.6 130.55 43.15 133.25 40.4 133.45 37.6 133.55 36.15 130.8 33.35 125.25 31.6 116.1 30.1 108.55 30.1 103.5 30.65 99.3 33.7 99.1 34.85 99.1 35.9 99.95" fill="#6fb9d7" fill-rule="evenodd" stroke="none"/>
    <path d="M45.95 128.85 Q49.8 126.3 52.55 119.9 L56.9 123.3 Q51.05 127.05 46.6 130.55 43.15 133.25 40.4 133.45 37.6 133.55 36.15 130.8 32.9 124.3 31.0 112.9 35.1 127.15 37.45 130.15 39.05 132.2 41.1 131.55 42.45 131.2 45.95 128.85" fill="#3c84bb" fill-rule="evenodd" stroke="none"/>
    <path d="M100.4 136.3 Q110.9 138.8 112.75 143.75 115.05 156.65 119.55 170.85 124.55 186.9 131.25 200.55 123.45 205.45 109.8 207.4 96.45 209.3 82.9 207.55 L82.5 205.45 56.9 206.7 46.1 206.05 41.45 205.2 Q40.75 203.3 41.7 190.95 38.85 177.5 40.55 164.0 41.7 154.6 46.0 140.7 46.85 138.2 56.65 136.3 66.25 134.45 78.25 134.35 91.4 134.2 100.4 136.3" fill="#2a0a4c" fill-rule="evenodd" stroke="none"/>
    <path d="M99.3 136.1 Q109.35 138.8 111.3 143.95 113.6 155.85 118.55 170.8 123.6 186.0 129.95 199.9 122.2 204.1 109.05 206.1 95.25 208.2 85.05 206.25 84.65 205.25 82.05 182.85 74.6 183.3 66.8 181.15 72.2 183.9 80.35 184.55 L82.5 203.95 Q71.15 206.15 56.2 205.45 L46.65 204.6 Q42.9 204.1 42.75 203.7 42.5 202.8 42.75 199.3 L43.4 192.0 Q40.45 177.5 41.95 164.2 43.1 154.85 47.25 141.4 48.0 138.35 57.4 136.1 66.3 134.0 78.0 133.95 90.5 133.8 99.3 136.1" fill="#611283" fill-rule="evenodd" stroke="none"/>
    <path d="M97.4 178.2 Q88.9 182.25 87.4 185.4 L90.95 207.0 85.05 206.25 Q84.65 205.25 82.05 182.85 74.6 183.3 66.8 181.15 72.2 183.9 80.35 184.55 L82.5 203.95 Q75.9 205.25 67.3 205.5 66.0 199.95 62.4 194.75 59.0 189.8 55.05 187.05 50.85 184.3 47.8 185.3 44.4 186.3 43.4 192.0 40.4 177.1 42.1 163.45 42.15 173.2 55.9 178.35 61.75 180.65 68.95 181.35 76.0 182.1 82.5 181.15 93.7 179.65 97.4 178.2" fill="#4c096a" fill-rule="evenodd" stroke="none"/>
    <path d="M111.3 143.95 L112.7 150.45 Q98.05 142.7 76.3 141.35 57.05 140.1 46.4 144.05 L47.25 141.4 Q47.8 139.25 52.7 137.5 57.3 135.8 64.7 134.8 L109.25 140.95 Q110.75 142.35 111.3 143.95" fill="#4c096a" fill-rule="evenodd" stroke="none"/>
    <path d="M127.4 118.4 Q126.55 120.15 121.5 124.15 116.1 128.45 111.0 131.0 110.9 133.25 111.9 137.95 L113.55 145.65 Q98.5 141.7 78.15 140.4 57.1 139.1 45.1 141.6 47.5 134.1 52.75 122.65 50.25 120.0 49.1 116.6 47.6 112.35 48.7 108.4 57.6 99.95 66.7 94.5 77.35 88.2 85.25 88.05 98.8 87.8 110.55 97.3 120.25 105.2 127.4 118.4" fill="#a62903" fill-rule="evenodd" stroke="none"/>
    <path d="M67.35 94.95 Q78.0 88.55 86.5 88.55 98.05 88.55 109.1 97.45 118.9 105.35 125.5 117.75 121.1 118.3 114.7 123.55 109.1 128.15 107.05 131.45 105.1 128.65 103.2 122.7 101.6 117.45 100.8 112.45 101.2 123.5 106.35 133.95 108.05 133.75 109.95 132.45 109.95 134.2 110.8 138.05 L112.1 144.2 Q75.8 136.45 46.8 140.15 48.3 135.6 50.85 130.1 L54.25 123.1 Q56.25 118.0 61.35 111.1 66.2 104.5 72.25 98.25 63.25 103.9 53.35 121.55 51.25 119.65 50.2 116.1 49.1 112.55 49.8 109.45 57.95 100.7 67.35 94.95" fill="#ffad00" fill-rule="evenodd" stroke="none"/>
    <path d="M53.35 121.4 Q50.35 118.75 49.6 113.5 58.9 105.3 67.9 101.5 60.95 107.75 53.35 121.4" fill="#f27c01" fill-rule="evenodd" stroke="none"/>
    <path d="M50.6 139.65 L46.8 140.0 Q48.45 134.95 53.8 124.05 51.85 132.2 50.6 139.65" fill="#f27c01" fill-rule="evenodd" stroke="none"/>
    <path d="M109.95 132.45 Q109.95 134.2 110.8 138.05 L112.1 144.2 106.35 143.05 Q102.1 128.05 101.3 118.1 102.65 126.4 106.35 133.95 108.05 133.75 109.95 132.45" fill="#f27c01" fill-rule="evenodd" stroke="none"/>
    <path d="M109.1 128.9 L107.05 131.45 Q104.65 127.9 102.5 120.25 104.85 124.05 109.1 128.9" fill="#f27c01" fill-rule="evenodd" stroke="none"/>
    <path d="M127.4 118.4 Q125.3 122.2 118.65 127.5 111.25 133.3 106.35 133.95 117.45 118.85 127.4 118.4" fill="#320407" fill-rule="evenodd" stroke="none"/>
    <path d="M105.25 133.3 L106.1 133.45 106.35 133.95 107.2 133.75 110.15 134.75 111.45 141.25 Q97.45 136.35 79.6 135.5 63.85 134.75 47.85 137.15 L49.65 132.8 Q72.65 126.05 105.25 133.3" fill="#e30000" fill-rule="evenodd" stroke="none"/>
    <path d="M69.6 121.85 Q89.2 120.35 102.65 124.15 103.4 127.1 104.7 130.3 93.7 126.95 78.6 126.55 62.45 126.2 51.05 129.65 L53.6 124.4 Q60.75 122.6 69.6 121.85" fill="#e30000" fill-rule="evenodd" stroke="none"/>
    <path d="M54.5 119.45 Q52.3 117.25 51.35 113.9 50.65 111.4 50.7 108.55 L53.25 106.0 Q52.95 111.95 56.05 116.85 L54.5 119.45" fill="#e30000" fill-rule="evenodd" stroke="none"/>
    <path d="M55.4 104.0 L57.9 101.75 Q57.6 108.05 59.55 111.4 L57.65 114.3 Q55.05 109.8 55.4 104.0" fill="#e30000" fill-rule="evenodd" stroke="none"/>
    <path d="M116.85 105.1 L120.0 109.0 Q115.95 110.4 111.25 113.9 106.5 117.55 103.0 122.0 L101.7 117.1 Q105.2 112.75 110.25 109.0 114.0 106.25 116.85 105.1" fill="#e30000" fill-rule="evenodd" stroke="none"/>
    <path d="M121.95 111.8 L124.1 115.35 Q118.95 116.95 114.4 120.45 110.35 123.55 105.7 129.05 L103.8 124.4 Q111.95 114.5 121.95 111.8" fill="#e30000" fill-rule="evenodd" stroke="none"/>
    <path d="M122.1 119.8 Q128.25 135.25 128.5 145.2 128.7 152.95 118.45 150.35 110.65 148.3 100.8 144.4 98.25 143.4 98.5 138.85 98.65 137.0 99.3 135.9 100.0 134.75 101.05 135.15 L109.4 138.15 Q116.15 140.4 119.1 140.7 118.8 137.65 116.75 131.85 L114.05 125.25 Q115.8 123.35 118.65 121.55 121.1 120.0 122.1 119.8" fill="#172d7f" fill-rule="evenodd" stroke="none"/>
    <path d="M101.0 135.65 Q115.5 140.8 120.15 141.8 119.85 138.8 117.6 132.05 115.75 126.45 114.8 124.55 117.05 122.0 121.35 120.05 128.05 135.15 127.55 145.25 127.45 148.7 125.3 149.6 L118.25 149.3 Q107.9 146.6 99.7 142.75 97.3 141.65 98.0 138.25 98.3 136.9 99.1 136.1 99.95 135.25 101.0 135.65" fill="#6fb9d7" fill-rule="evenodd" stroke="none"/>
    <path d="M100.8 140.2 Q103.7 141.6 110.0 143.95 118.3 147.0 120.5 147.45 126.4 148.7 127.55 145.25 127.45 148.7 125.3 149.6 L118.25 149.3 Q107.9 146.6 99.7 142.75 98.5 142.2 98.05 140.75 97.65 139.35 98.05 138.0 97.95 138.85 100.8 140.2" fill="#3c84bb" fill-rule="evenodd" stroke="none"/>
    <path d="M122.55 122.8 Q120.8 121.75 119.15 123.5 117.25 125.55 117.0 130.3 L114.8 124.55 Q117.05 122.0 121.35 120.05 L122.55 122.8" fill="#3c84bb" fill-rule="evenodd" stroke="none"/>
    <path d="M95.9 129.05 Q98.9 128.65 100.65 132.05 102.3 135.4 101.7 139.9 101.05 144.35 98.85 146.4 96.5 148.6 93.35 147.0 91.85 146.3 91.25 143.4 90.8 140.8 91.2 137.5 91.65 134.15 92.85 131.85 94.15 129.3 95.9 129.05" fill="#2d4c76" fill-rule="evenodd" stroke="none"/>
    <path d="M95.9 129.5 Q98.45 129.1 100.15 132.2 101.8 135.25 101.3 139.3 100.95 143.2 98.65 145.3 96.35 147.45 93.8 146.05 92.5 145.4 92.05 142.7 91.6 140.3 92.0 137.3 92.4 134.15 93.35 132.05 94.45 129.7 95.9 129.5" fill="#ffffff" fill-rule="evenodd" stroke="none"/>
    <path d="M91.85 139.05 Q92.95 141.6 96.1 142.25 99.3 142.9 101.3 139.3 100.95 143.2 98.65 145.3 96.35 147.45 93.8 146.05 91.6 144.85 91.85 139.05" fill="#c2d6d4" fill-rule="evenodd" stroke="none"/>
    <path d="M91.4 105.35 Q88.6 110.4 88.0 112.15 86.95 114.95 87.75 117.55 91.6 121.1 93.8 126.0 95.85 130.5 96.05 135.2 96.15 139.7 94.6 143.05 92.95 146.4 89.95 147.35 85.15 148.85 79.95 149.1 74.6 149.3 70.55 148.1 66.2 146.8 64.45 144.15 62.4 141.15 63.95 136.7 61.3 134.1 61.7 130.4 62.0 127.25 63.95 126.1 62.95 124.5 62.8 122.35 62.75 120.0 63.95 118.2 67.35 113.7 77.35 116.1 75.2 111.4 76.6 105.75 77.9 100.25 81.35 98.1 83.55 96.75 86.0 96.8 88.2 96.85 89.9 98.15 91.6 99.4 92.05 101.3 92.55 103.35 91.4 105.35" fill="#2d4c76" fill-rule="evenodd" stroke="none"/>
    <path d="M90.75 104.55 Q88.15 109.35 87.4 111.7 86.3 115.2 87.4 118.0 94.8 124.6 95.5 134.2 95.85 138.45 94.45 141.65 93.05 144.9 90.15 146.1 86.95 147.4 82.2 147.85 L73.0 147.45 Q62.2 145.3 65.1 136.7 65.35 135.8 65.0 135.85 L64.45 136.05 Q62.4 133.5 62.85 130.5 63.25 127.6 65.5 126.5 66.85 125.85 66.05 125.8 L64.75 125.6 Q63.7 123.45 63.8 121.4 63.9 119.25 65.35 117.9 69.0 114.55 78.95 117.55 79.7 117.8 79.25 117.35 L78.45 116.5 Q76.2 112.4 76.95 106.85 77.75 101.15 81.2 98.6 85.25 95.75 89.1 98.15 90.8 99.2 91.25 100.9 91.85 102.65 90.75 104.55" fill="#ffffff" fill-rule="evenodd" stroke="none"/>
    <path d="M78.95 117.55 Q79.7 117.8 79.25 117.35 L78.45 116.5 Q76.9 113.7 76.85 109.9 77.3 115.65 81.4 117.9 85.6 120.1 78.95 117.55" fill="#c2d6d4" fill-rule="evenodd" stroke="none"/>
    <path d="M84.0 127.75 Q82.85 127.6 82.6 127.15 82.3 126.7 83.55 126.7 85.5 126.7 87.95 127.8 90.7 129.0 91.85 130.75 L84.0 127.75" fill="#2d4c76" fill-rule="evenodd" stroke="none"/>
    <path d="M91.4 135.25 L82.05 133.95 Q79.9 132.9 81.6 132.45 L85.5 133.05 Q89.0 133.95 91.4 135.25" fill="#2d4c76" fill-rule="evenodd" stroke="none"/>
    <path d="M90.75 139.9 L86.75 141.15 82.5 140.95 Q80.45 140.3 80.9 139.9 L82.25 139.7 90.75 139.9" fill="#2d4c76" fill-rule="evenodd" stroke="none"/>
    <path d="M94.4 141.6 L94.45 141.65 Q93.05 144.9 90.15 146.1 83.55 148.75 75.05 147.8 65.3 146.7 64.55 140.8 64.95 142.25 67.1 142.95 L73.1 144.2 84.0 144.8 Q90.7 144.35 94.4 141.6" fill="#c2d6d4" fill-rule="evenodd" stroke="none"/>
    <path d="M88.85 78.0 L101.0 77.25 96.55 90.0 Q95.85 91.65 92.05 91.4 88.2 91.1 86.75 89.1 87.4 87.0 88.85 78.0" fill="#172d7f" fill-rule="evenodd" stroke="none"/>
    <path d="M89.95 79.6 L99.7 78.4 95.6 90.2 Q95.05 91.55 91.75 91.2 88.45 90.85 87.4 89.55 L89.95 79.6" fill="#6fb9d7" fill-rule="evenodd" stroke="none"/>
    <path d="M96.45 87.7 Q92.3 80.6 88.8 84.15 L89.95 79.6 99.7 78.4 96.45 87.7" fill="#3c84bb" fill-rule="evenodd" stroke="none"/>
    <path d="M63.25 29.35 L64.9 44.75 Q66.3 58.6 65.8 68.45 65.4 75.0 63.05 79.3 61.05 82.9 58.3 83.85 55.7 84.7 54.1 82.8 52.5 80.75 53.25 76.75 54.45 71.0 56.2 52.7 57.85 36.25 58.35 26.55 58.8 19.1 63.2 16.85 66.65 15.15 71.1 16.8 73.25 18.25 71.55 20.6 65.65 18.75 63.95 22.05 63.0 23.85 63.25 29.35" fill="#000000" fill-rule="evenodd" stroke="none"/>
    <path d="M72.15 19.05 Q67.65 17.0 64.05 18.2 59.85 19.6 59.75 25.35 59.6 31.95 57.65 51.85 55.55 72.3 54.65 74.9 53.4 78.6 54.45 81.2 52.7 79.75 53.25 76.75 54.45 71.0 56.2 52.7 57.85 36.25 58.35 26.55 58.8 19.1 63.2 16.85 66.65 15.15 71.1 16.8 72.25 17.6 72.15 19.05" fill="#363636" fill-rule="evenodd" stroke="none"/>
    <path d="M80.45 8.95 Q84.95 7.55 93.05 7.0 95.9 3.2 99.75 1.4 103.55 -0.45 107.15 0.15 110.9 0.8 113.45 4.05 116.3 7.55 117.0 13.6 127.9 21.0 128.05 34.75 128.1 46.6 120.0 66.95 117.0 73.15 107.6 73.7 99.5 74.05 88.7 70.35 78.75 66.9 71.35 61.65 63.7 56.3 63.65 52.35 63.4 24.65 71.15 15.15 74.6 10.85 80.45 8.95" fill="#172d7f" fill-rule="evenodd" stroke="none"/>
    <path d="M93.6 7.85 L95.75 7.45 Q96.25 7.25 94.35 6.95 97.0 3.95 100.4 2.5 103.8 1.0 106.95 1.55 114.3 2.75 115.65 12.9 L115.1 12.9 114.2 12.75 Q113.25 12.7 115.75 14.15 126.45 21.2 126.75 34.7 126.9 46.3 119.15 65.9 116.3 71.9 107.25 72.55 99.5 73.15 89.2 69.75 79.65 66.65 72.6 61.8 65.3 56.75 65.15 52.9 64.25 26.1 72.15 16.3 75.65 11.9 81.35 9.95 85.9 8.4 93.6 7.85" fill="#6fb9d7" fill-rule="evenodd" stroke="none"/>
    <path d="M73.25 61.15 Q65.85 56.25 65.15 52.9 64.25 48.75 64.95 41.15 64.8 46.95 66.85 50.15 68.55 52.85 72.45 54.5 L80.65 57.1 Q86.35 58.9 90.35 61.2 99.45 66.45 107.6 64.1 115.9 61.6 120.7 52.2 128.1 37.75 121.3 25.05 L123.65 24.6 Q124.5 24.25 123.2 21.65 127.75 29.0 126.4 40.55 125.2 50.65 119.15 65.9 116.3 71.9 107.55 72.35 100.0 72.75 89.75 69.15 80.65 66.0 73.25 61.15" fill="#3c84bb" fill-rule="evenodd" stroke="none"/>
    <path d="M115.65 12.9 L115.1 12.9 114.2 12.75 Q113.25 12.65 115.65 14.05 112.1 12.05 106.3 10.0 114.6 9.7 111.5 3.7 114.9 6.75 115.65 12.9" fill="#3c84bb" fill-rule="evenodd" stroke="none"/>
    <path d="M95.5 32.35 L101.3 32.15 Q104.5 33.45 105.85 37.25 107.15 40.75 106.7 45.6 106.15 50.45 104.05 55.05 101.85 59.95 98.5 63.25 92.4 62.25 86.75 55.9 86.1 51.75 87.4 46.2 88.55 41.35 90.8 36.8 92.3 33.65 95.5 32.35" fill="#ffffff" fill-rule="evenodd" stroke="none"/>
    <path d="M78.8 55.4 Q70.45 62.85 68.8 53.1 67.5 45.0 69.4 38.05 71.6 30.0 76.95 29.45 82.15 28.95 81.75 39.4 81.4 47.5 78.8 55.4" fill="#ffffff" fill-rule="evenodd" stroke="none"/>
    <path d="M81.55 34.7 Q77.25 27.05 69.05 38.15 71.8 29.95 76.95 29.45 78.95 29.3 80.15 30.85 81.4 32.35 81.55 34.7" fill="#2870a4" fill-rule="evenodd" stroke="none"/>
    <path d="M81.55 34.7 Q78.95 31.35 74.75 33.8 71.1 35.85 69.35 39.8 68.8 40.9 68.75 40.1 68.7 39.35 69.0 38.5 71.2 33.4 75.25 31.8 79.6 30.15 81.55 34.7" fill="#0c1748" fill-rule="evenodd" stroke="none"/>
    <path d="M137.9 22.95 Q143.7 23.25 142.8 35.1 141.6 48.95 142.8 57.35 144.05 66.0 148.25 73.55 150.35 77.25 150.55 80.55 150.75 83.55 149.3 85.15 147.9 86.85 145.2 86.5 142.35 86.0 138.95 83.15 132.35 77.55 130.7 68.0 129.4 60.5 131.05 48.3 131.8 42.85 133.6 34.1 134.45 30.15 133.65 28.7 132.2 26.35 123.2 26.35 120.4 26.1 120.45 24.3 120.45 23.6 121.1 23.15 L123.0 22.75 137.9 22.95" fill="#000000" fill-rule="evenodd" stroke="none"/>
    <path d="M143.45 60.8 Q144.8 67.35 148.25 73.55 150.7 77.8 150.65 81.3 149.9 83.65 148.65 84.3 146.7 85.45 143.0 82.9 140.05 80.95 138.15 76.9 136.15 72.65 134.35 64.3 133.9 62.0 134.45 61.0 135.0 59.85 136.45 62.95 137.9 66.25 139.85 67.65 141.55 68.9 143.0 68.4 144.75 67.8 143.45 60.8" fill="#363636" fill-rule="evenodd" stroke="none"/>
    <path d="M125.05 23.75 L139.45 24.6 Q140.2 25.3 138.1 26.4 136.0 27.6 134.75 26.65 133.5 25.75 130.6 25.15 L125.05 24.75 Q122.35 24.9 122.55 24.3 122.7 23.75 125.05 23.75" fill="#2a0a4c" fill-rule="evenodd" stroke="none"/>
    <path d="M105.7 50.7 Q103.1 37.2 91.85 34.95 93.6 32.3 96.55 31.7 98.9 31.15 101.3 32.15 105.05 33.65 106.3 38.4 107.65 43.5 105.7 50.7" fill="#2870a4" fill-rule="evenodd" stroke="none"/>
    <path d="M105.7 51.2 Q104.2 44.35 100.2 40.0 96.05 35.35 91.55 36.35 90.4 36.6 91.0 35.8 91.55 34.95 92.75 34.7 98.15 33.65 102.1 39.4 105.9 44.75 105.7 51.2" fill="#0c1748" fill-rule="evenodd" stroke="none"/>
    <path d="M83.1 21.9 Q81.0 18.3 78.0 19.15 74.8 20.05 71.05 26.4 74.35 18.1 78.65 17.7 80.35 17.6 81.65 18.85 82.85 20.0 83.1 21.9" fill="#0c1748" fill-rule="evenodd" stroke="none"/>
    <path d="M98.0 28.7 L105.95 34.0 Q108.25 36.0 108.05 37.75 108.0 35.8 101.5 32.2 L97.1 29.55 Q94.8 27.65 94.95 25.1 95.1 26.75 98.0 28.7" fill="#0c1748" fill-rule="evenodd" stroke="none"/>
    <path d="M102.05 46.7 Q103.6 47.1 104.5 48.6 105.5 50.15 105.25 52.2 104.45 55.05 102.7 58.05 100.75 61.35 98.4 63.25 97.0 62.95 95.3 62.05 94.0 60.7 94.15 58.4 94.2 57.05 95.1 53.5 L100.35 54.6 95.9 51.35 Q97.0 48.6 98.8 47.35 100.35 46.3 102.05 46.7" fill="#000000" fill-rule="evenodd" stroke="none"/>
    <path d="M77.55 39.4 Q78.85 39.15 79.9 39.9 81.1 40.75 81.55 42.55 L81.55 43.6 81.4 44.55 Q80.95 50.35 79.3 56.45 L75.0 55.15 Q73.45 51.6 73.7 46.9 L77.55 47.15 74.05 44.95 Q74.5 40.2 77.55 39.4" fill="#000000" fill-rule="evenodd" stroke="none"/>
    <path d="M65.4 51.85 Q76.05 51.2 86.05 55.2 95.6 59.05 102.65 66.5 118.3 56.55 121.9 64.1 123.65 67.85 121.95 71.25 120.5 74.25 118.3 74.55 117.05 83.3 101.8 83.0 L91.05 81.95 Q72.15 81.65 60.05 73.35 56.05 70.6 54.55 66.9 53.15 63.5 54.1 60.05 55.1 56.7 58.05 54.55 61.1 52.2 65.4 51.85" fill="#8c3000" fill-rule="evenodd" stroke="none"/>
    <path d="M67.3 52.05 Q77.8 51.8 87.0 55.6 96.1 59.3 102.65 66.5 108.95 62.1 113.8 61.25 119.4 60.3 121.1 64.6 122.1 67.15 121.35 69.75 120.6 72.5 118.25 73.55 118.15 72.25 117.7 71.6 117.6 80.15 107.8 81.6 104.4 82.1 99.3 81.8 L91.8 81.05 Q94.35 80.95 96.3 79.5 L105.55 80.2 Q110.75 79.8 112.6 77.6 114.3 75.7 114.8 73.75 L115.55 71.35 Q117.0 68.9 117.15 67.55 L116.85 64.4 118.45 63.95 115.15 63.9 Q113.45 64.65 113.1 66.25 115.05 64.95 116.15 64.85 116.8 68.45 114.2 71.0 111.7 73.4 107.8 73.75 100.75 74.4 97.4 77.25 94.25 80.1 88.85 80.65 L81.95 80.45 Q69.0 78.4 60.45 72.5 56.6 69.9 55.3 66.3 54.0 62.95 55.15 59.7 56.25 56.45 59.35 54.35 62.65 52.2 67.3 52.05" fill="#ffed6c" fill-rule="evenodd" stroke="none"/>
    <path d="M113.75 63.1 Q116.65 61.45 119.2 64.0 121.9 66.7 120.8 71.15 119.85 72.85 118.25 73.55 118.15 72.25 117.7 71.6 117.6 80.15 107.8 81.6 104.4 82.1 99.3 81.8 L91.8 81.05 Q94.35 80.95 96.3 79.5 L105.55 80.2 Q110.75 79.8 112.6 77.6 114.3 75.7 114.8 73.75 L115.55 71.35 Q117.0 68.9 117.15 67.55 L116.85 64.4 118.45 63.95 115.15 63.9 Q113.45 64.65 113.1 66.25 115.05 64.95 116.15 64.85 116.8 68.45 114.2 71.0 111.7 73.4 107.8 73.75 100.75 74.4 97.4 77.25 94.25 80.1 88.85 80.65 L81.95 80.45 Q69.0 78.4 60.45 72.5 57.05 70.15 55.55 66.95 54.9 65.5 54.7 64.0 55.9 67.1 61.75 71.6 67.85 76.3 78.35 77.6 89.25 78.95 97.2 75.7 L105.2 72.35 110.25 69.45 Q111.1 68.7 112.05 66.05 112.95 63.5 113.75 63.1" fill="#edb211" fill-rule="evenodd" stroke="none"/>
    <path d="M58.4 61.15 Q58.4 61.85 57.7 61.8 57.0 61.8 57.05 61.15 57.05 60.35 57.75 60.5 58.4 60.5 58.4 61.15" fill="#996400" fill-rule="evenodd" stroke="none"/>
    <path d="M60.85 56.95 Q60.85 57.7 60.05 57.7 59.4 57.55 59.4 56.9 59.4 56.25 60.1 56.25 60.85 56.25 60.85 56.95" fill="#996400" fill-rule="evenodd" stroke="none"/>
    <path d="M86.0 69.65 Q85.85 70.35 85.2 70.3 84.55 70.3 84.55 69.65 84.55 68.9 85.25 69.0 86.0 69.0 86.0 69.65" fill="#996400" fill-rule="evenodd" stroke="none"/>
    <path d="M87.95 63.95 Q87.95 64.6 87.2 64.6 86.5 64.55 86.5 63.9 86.5 63.25 87.3 63.25 87.95 63.25 87.95 63.95" fill="#996400" fill-rule="evenodd" stroke="none"/>
    <path d="M95.75 67.1 Q95.75 67.8 95.0 67.8 94.35 67.8 94.35 67.0 94.4 66.35 95.05 66.35 95.75 66.35 95.75 67.1" fill="#996400" fill-rule="evenodd" stroke="none"/>
    <path d="M95.9 71.25 Q95.9 72.0 95.2 72.0 94.45 71.9 94.45 71.25 94.45 70.6 95.25 70.6 95.95 70.6 95.9 71.25" fill="#996400" fill-rule="evenodd" stroke="none"/>
    <path d="M90.8 69.0 Q90.8 69.65 90.1 69.65 89.45 69.55 89.45 68.9 89.45 68.25 90.1 68.25 90.9 68.25 90.8 69.0" fill="#996400" fill-rule="evenodd" stroke="none"/>
    <path d="M77.8 47.95 Q82.5 48.55 85.25 50.7 88.4 53.1 87.85 56.9 87.5 59.85 83.35 60.7 L74.3 60.35 Q69.65 59.6 67.1 57.25 64.35 54.7 65.35 51.5 66.8 46.65 77.8 47.95" fill="#000000" fill-rule="evenodd" stroke="none"/>
    <path d="M75.85 48.3 Q78.1 48.4 79.4 49.2 80.8 50.1 80.35 51.55 79.7 53.55 74.1 53.05 71.7 52.85 70.5 52.0 69.25 51.1 69.8 49.9 70.5 48.0 75.85 48.3" fill="#7d7d7d" fill-rule="evenodd" stroke="none"/>
    <path d="M75.6 48.4 Q77.55 48.5 78.65 49.2 79.95 50.0 79.6 51.15 79.0 52.9 74.05 52.45 71.95 52.25 70.9 51.55 69.8 50.85 70.25 49.8 70.9 48.15 75.6 48.4" fill="#ffffff" fill-rule="evenodd" stroke="none"/>
    <path d="M113.4 75.0 Q112.8 76.7 110.8 78.05 108.65 79.45 104.35 79.45 L97.4 78.6 Q100.6 75.45 104.85 75.05 L108.95 74.55 Q110.9 74.05 113.25 72.85 113.8 73.6 113.4 75.0" fill="#ffffff" fill-rule="evenodd" stroke="none"/>
    <path d="M103.7 79.45 L102.5 75.5 103.1 75.4 104.4 79.45 103.7 79.45" fill="#616066" fill-rule="evenodd" stroke="none"/>
    <path d="M107.65 74.75 L109.15 78.75 108.55 78.95 107.15 74.85 107.65 74.75" fill="#616066" fill-rule="evenodd" stroke="none"/>
    <path d="M112.75 76.25 L112.3 76.75 111.0 73.9 111.65 73.7 112.75 76.25" fill="#616066" fill-rule="evenodd" stroke="none"/>
  </g>
</svg>
