<?xml version="1.0" encoding="UTF-8" standalone="no"?>
<svg xmlns:xlink="http://www.w3.org/1999/xlink" height="260.7px" width="129.45px" xmlns="http://www.w3.org/2000/svg">
  <g transform="matrix(1.0, 0.0, 0.0, 1.0, 1.5, 1.25)">
    <path d="M9.3 250.05 L9.55 250.15 Q9.75 252.75 7.05 253.5 4.75 254.05 3.75 252.1 3.1 250.85 3.1 249.5 L3.65 250.9 4.15 251.45 4.55 251.55 4.15 251.5 Q5.0 252.25 6.3 252.3 8.7 252.1 9.3 250.05 M4.7 248.15 Q3.75 249.5 3.65 250.9 3.7 249.5 4.65 248.15 L4.7 248.15" fill="#47525f" fill-rule="evenodd" stroke="none"/>
    <path d="M3.6 247.55 L4.7 248.05 4.65 248.15 Q3.7 249.5 3.65 250.9 L3.1 249.5 Q3.1 248.35 3.6 247.55" fill="#e9e9eb" fill-rule="evenodd" stroke="none"/>
    <path d="M4.7 248.05 L8.45 249.7 Q8.45 250.45 7.35 251.0 6.2 251.55 4.6 251.55 L4.55 251.55 4.15 251.45 3.65 250.9 Q3.75 249.5 4.7 248.15 L4.7 248.05" fill="#d0cfd0" fill-rule="evenodd" stroke="none"/>
    <path d="M8.45 249.7 L9.3 250.05 Q8.7 252.1 6.3 252.3 5.0 252.25 4.15 251.5 L4.55 251.55 4.6 251.55 Q6.2 251.55 7.35 251.0 8.45 250.45 8.45 249.7" fill="#b0aeb3" fill-rule="evenodd" stroke="none"/>
    <path d="M63.35 34.1 L67.0 10.4 70.2 34.25 Q68.65 35.75 68.45 38.05 68.25 40.1 66.55 40.95 L66.4 39.45 Q65.9 35.95 63.35 34.1 M46.0 135.55 L35.4 127.8 47.65 122.35 59.3 164.25 40.85 143.75 46.0 136.7 46.0 135.55 M80.5 139.65 L85.9 144.95 66.65 163.8 84.25 121.8 94.05 126.35 80.45 138.85 80.5 139.65 M17.2 132.8 L32.05 129.15 42.45 136.5 Q40.05 139.7 37.8 143.0 L37.5 143.95 37.55 144.4 37.8 144.85 59.6 169.05 60.9 172.65 59.45 256.2 32.15 256.05 31.95 251.2 34.65 248.85 34.2 240.15 31.55 238.35 32.25 232.3 31.2 230.8 27.6 160.15 15.4 143.95 17.2 132.8 M14.4 147.55 L24.65 160.75 28.0 227.6 20.95 220.65 20.45 220.25 19.75 220.2 Q14.35 221.05 9.85 223.5 5.95 225.65 2.9 229.4 L1.5 213.45 4.55 179.4 14.4 147.55 M84.15 139.3 L97.05 127.75 113.15 134.85 114.9 137.65 102.4 154.55 99.4 229.8 97.35 232.3 98.2 238.25 Q96.05 238.65 95.7 240.6 95.0 244.3 94.75 248.15 L94.8 248.55 99.05 252.3 98.85 256.45 62.45 256.25 64.05 170.55 89.1 146.0 89.3 144.15 84.15 139.3 M115.85 141.35 L122.85 180.85 124.3 226.5 121.0 222.3 120.05 221.75 109.8 220.2 109.1 220.25 108.5 220.6 102.5 226.6 105.4 155.15 115.85 141.35" fill="#591f0b" fill-rule="evenodd" stroke="none"/>
    <path d="M55.5 139.35 L59.25 131.3 61.15 135.25 56.4 142.65 55.5 139.35 M54.3 134.95 L50.95 122.95 58.35 126.2 54.3 134.95 M73.4 126.0 L80.6 122.75 76.5 132.55 73.4 126.0 M73.3 140.2 L69.35 135.4 72.45 131.1 74.95 136.25 73.3 140.2" fill="#d1b8a2" fill-rule="evenodd" stroke="none"/>
    <path d="M63.35 34.1 Q65.9 35.95 66.4 39.45 L66.55 40.95 Q68.25 40.1 68.45 38.05 68.65 35.75 70.2 34.25 L74.65 66.9 Q72.6 67.75 70.05 70.1 L66.25 73.65 66.2 73.75 65.45 73.75 Q64.75 70.75 61.2 68.4 L58.35 66.6 63.35 34.1 M63.35 73.75 L59.2 74.05 59.0 75.15 59.55 75.7 62.95 75.75 Q62.8 80.85 60.4 85.65 L60.55 86.05 61.55 86.5 Q63.65 84.95 64.2 82.35 64.85 79.0 64.95 75.75 L66.75 75.75 Q66.65 81.6 69.75 86.05 L70.2 86.5 71.3 85.65 Q69.55 82.6 69.1 79.05 L68.75 75.75 72.05 75.7 72.65 74.75 72.05 73.85 69.0 73.75 74.9 69.0 80.1 107.5 Q75.6 99.3 68.5 93.45 67.3 92.5 65.8 92.3 L64.3 92.4 Q61.2 93.9 59.0 96.9 55.15 102.25 52.0 108.0 L58.05 68.7 61.3 70.95 63.35 73.75 M65.4 93.85 Q76.85 101.9 80.85 115.55 L81.8 118.9 67.5 125.35 50.3 119.35 Q53.55 106.8 62.0 97.0 63.6 95.1 65.4 93.85" fill="#ae8367" fill-rule="evenodd" stroke="none"/>
    <path d="M3.6 247.55 L2.35 246.55 2.1 246.0 1.55 243.95 1.05 242.8 -1.5 213.6 1.55 179.05 12.4 143.9 15.15 130.55 Q31.6 126.25 47.25 119.25 L65.6 -0.2 66.35 -1.2 67.6 -1.25 68.55 -0.2 84.8 118.8 Q97.8 124.95 110.95 130.85 112.95 131.8 114.55 133.25 116.6 135.1 118.2 137.5 L125.85 180.45 127.95 245.65 127.75 246.5 104.75 256.45 101.95 254.55 101.2 258.95 100.3 259.45 30.0 258.85 29.05 253.45 Q27.6 255.5 25.15 255.55 16.8 254.5 9.55 250.15 L9.3 250.05 8.45 249.7 4.7 248.05 3.6 247.55 M70.2 34.25 L67.0 10.4 63.35 34.1 58.35 66.6 61.2 68.4 Q64.75 70.75 65.45 73.75 L66.2 73.75 66.25 73.65 70.05 70.1 Q72.6 67.75 74.65 66.9 L70.2 34.25 M65.4 93.85 Q63.6 95.1 62.0 97.0 53.55 106.8 50.3 119.35 L67.5 125.35 81.8 118.9 80.85 115.55 Q76.85 101.9 65.4 93.85 M63.35 73.75 L61.3 70.95 58.05 68.7 52.0 108.0 Q55.15 102.25 59.0 96.9 61.2 93.9 64.3 92.4 L65.8 92.3 Q67.3 92.5 68.5 93.45 75.6 99.3 80.1 107.5 L74.9 69.0 69.0 73.75 72.05 73.85 72.65 74.75 72.05 75.7 68.75 75.75 69.1 79.05 Q69.55 82.6 71.3 85.65 L70.2 86.5 69.75 86.05 Q66.65 81.6 66.75 75.75 L64.95 75.75 Q64.85 79.0 64.2 82.35 63.65 84.95 61.55 86.5 L60.55 86.05 60.4 85.65 Q62.8 80.85 62.95 75.75 L59.55 75.7 59.0 75.15 59.2 74.05 63.35 73.75 M54.3 134.95 L58.35 126.2 50.95 122.95 54.3 134.95 M55.5 139.35 L56.4 142.65 61.15 135.25 59.25 131.3 55.5 139.35 M46.0 135.55 L46.0 136.7 40.85 143.75 59.3 164.25 47.65 122.35 35.4 127.8 46.0 135.55 M73.4 126.0 L76.5 132.55 80.6 122.75 73.4 126.0 M67.25 137.55 L63.7 136.85 57.5 146.55 62.75 165.4 72.0 143.35 67.25 137.55 M61.55 126.45 L60.9 127.8 63.75 133.8 66.45 134.3 70.95 128.0 70.6 127.25 Q69.1 128.55 67.1 128.2 L61.55 126.45 M73.3 140.2 L74.95 136.25 72.45 131.1 69.35 135.4 73.3 140.2 M115.85 141.35 L105.4 155.15 102.5 226.6 108.5 220.6 109.1 220.25 109.8 220.2 120.05 221.75 121.0 222.3 124.3 226.5 122.85 180.85 115.85 141.35 M84.15 139.3 L89.3 144.15 89.1 146.0 64.05 170.55 62.45 256.25 98.85 256.45 99.05 252.3 94.8 248.55 94.75 248.15 Q95.0 244.3 95.7 240.6 96.05 238.65 98.2 238.25 L97.35 232.3 99.4 229.8 102.4 154.55 114.9 137.65 113.15 134.85 97.05 127.75 84.15 139.3 M14.4 147.55 L4.55 179.4 1.5 213.45 2.9 229.4 Q5.95 225.65 9.85 223.5 14.35 221.05 19.75 220.2 L20.45 220.25 20.95 220.65 28.0 227.6 24.65 160.75 14.4 147.55 M17.2 132.8 L15.4 143.95 27.6 160.15 31.2 230.8 32.25 232.3 31.55 238.35 34.2 240.15 34.65 248.85 31.95 251.2 32.15 256.05 59.45 256.2 60.9 172.65 59.6 169.05 37.8 144.85 37.55 144.4 37.5 143.95 37.8 143.0 Q40.05 139.7 42.45 136.5 L32.05 129.15 17.2 132.8 M80.5 139.65 L80.45 138.85 94.05 126.35 84.25 121.8 66.65 163.8 85.9 144.95 80.5 139.65 M15.4 233.2 L15.65 232.75 16.85 232.65 Q18.55 237.3 19.2 242.2 L26.6 242.2 29.15 232.95 19.45 223.25 10.55 224.6 5.55 230.95 4.65 244.75 24.35 253.25 31.7 247.6 31.3 241.55 30.4 241.1 28.05 245.15 21.65 245.05 Q19.85 244.75 18.8 243.3 15.35 238.85 15.4 233.2 M124.9 244.75 L124.0 230.9 119.0 224.6 110.1 223.25 100.4 232.95 Q100.8 235.8 101.55 238.55 L102.85 242.2 110.3 242.2 Q110.95 237.95 111.85 233.8 111.95 233.25 112.4 232.95 112.8 232.6 113.35 232.6 114.75 232.9 114.55 234.2 113.75 239.35 112.6 244.45 L112.1 245.15 101.85 245.25 Q101.1 245.25 100.8 244.7 L99.1 241.15 98.2 241.6 97.8 247.55 105.2 253.25 124.9 244.75" fill="#1a1a1a" fill-rule="evenodd" stroke="none"/>
    <path d="M124.9 244.75 L105.2 253.25 97.8 247.55 98.2 241.6 99.1 241.15 100.8 244.7 Q101.1 245.25 101.85 245.25 L112.1 245.15 112.6 244.45 Q113.75 239.35 114.55 234.2 114.75 232.9 113.35 232.6 112.8 232.6 112.4 232.95 111.95 233.25 111.85 233.8 110.95 237.95 110.3 242.2 L102.85 242.2 101.55 238.55 Q100.8 235.8 100.4 232.95 L110.1 223.25 119.0 224.6 124.0 230.9 124.9 244.75 M15.4 233.2 Q15.35 238.85 18.8 243.3 19.85 244.75 21.65 245.05 L28.05 245.15 30.4 241.1 31.3 241.55 31.7 247.6 24.35 253.25 4.65 244.75 5.55 230.95 10.55 224.6 19.45 223.25 29.15 232.95 26.6 242.2 19.2 242.2 Q18.55 237.3 16.85 232.65 L15.65 232.75 15.4 233.2" fill="#e6c6b0" fill-rule="evenodd" stroke="none"/>
    <path d="M61.55 126.45 L67.1 128.2 Q69.1 128.55 70.6 127.25 L70.95 128.0 66.45 134.3 63.75 133.8 60.9 127.8 61.55 126.45 M67.25 137.55 L72.0 143.35 62.75 165.4 57.5 146.55 63.7 136.85 67.25 137.55" fill="#331c1a" fill-rule="evenodd" stroke="none"/>
  </g>
</svg>
