<?xml version="1.0" encoding="UTF-8" standalone="no"?>
<svg xmlns:xlink="http://www.w3.org/1999/xlink" height="273.65px" width="165.15px" xmlns="http://www.w3.org/2000/svg">
  <g transform="matrix(1.0, 0.0, 0.0, 1.0, -17.4, 0.0)">
    <path d="M110.3 10.45 L110.3 12.5 102.3 20.9 102.3 18.75 102.35 18.75 110.3 10.45 M113.3 15.45 Q113.7 17.55 112.7 19.45 109.85 24.6 104.25 22.35 L104.2 20.4 Q105.6 21.2 107.3 21.25 112.8 20.75 113.3 15.45 M118.55 48.25 L115.25 5.7 88.2 5.7 79.85 55.1 69.0 119.35 45.0 131.6 23.1 184.6 24.1 257.0 25.95 260.3 32.15 271.65 162.15 271.65 167.85 262.6 176.55 194.2 176.9 191.75 159.2 137.2 124.05 119.35 118.55 48.25 M111.3 66.95 Q111.05 67.4 112.55 67.75 114.85 67.85 115.7 66.35 114.05 71.3 110.7 66.5 L111.3 66.95 M87.35 69.8 Q88.2 72.8 85.3 74.15 83.85 74.85 82.5 73.9 80.8 72.6 81.05 70.35 81.15 71.15 81.6 71.8 81.65 70.35 82.6 69.0 L82.7 68.95 Q81.7 70.35 81.6 71.8 L82.1 72.35 Q82.95 73.1 84.2 73.15 87.35 72.95 87.35 69.8 M61.3 138.5 Q62.05 144.35 56.55 146.0 54.2 146.75 52.2 145.4 L52.2 143.45 Q53.6 144.25 55.3 144.3 60.8 143.8 61.3 138.5 M58.3 133.5 L58.3 135.55 50.3 143.95 50.3 141.8 50.35 141.8 58.3 133.5 M65.85 118.6 L85.4 4.25 120.45 0.0 129.45 115.3 129.8 115.85 130.15 116.3 130.6 116.7 131.15 116.95 Q147.55 126.2 163.7 136.05 L182.55 191.3 173.55 264.25 165.25 273.65 28.75 273.65 18.45 258.45 17.4 183.5 40.55 127.45 65.85 118.6 M169.95 208.1 Q170.55 211.9 166.85 212.4 164.15 212.2 163.75 209.7 L163.6 208.15 Q163.7 208.95 164.15 209.6 L164.65 210.15 Q165.5 210.9 166.8 210.95 169.55 210.7 169.95 208.1" fill="#47525f" fill-rule="evenodd" stroke="none"/>
    <path d="M102.1 17.25 L102.05 17.45 102.05 17.4 102.1 17.25 M102.3 18.7 L102.35 18.75 102.3 18.75 102.3 18.7 M79.85 55.1 L117.8 49.0 118.55 48.25 124.05 119.35 159.2 137.2 176.9 191.75 176.55 194.2 25.95 260.3 24.1 257.0 23.1 184.6 45.0 131.6 69.0 119.35 79.85 55.1 M115.7 66.35 Q116.15 65.6 116.25 64.35 116.1 63.5 115.6 62.85 L115.5 64.05 115.55 62.85 114.55 62.0 113.85 61.75 Q110.2 61.65 110.0 65.0 L110.05 65.5 110.15 65.7 110.45 66.2 110.45 66.35 110.7 66.5 Q114.05 71.3 115.7 66.35 M85.7 67.45 L85.0 67.15 Q81.4 66.95 81.05 70.35 80.8 72.6 82.5 73.9 83.85 74.85 85.3 74.15 88.2 72.8 87.35 69.8 L86.7 68.3 85.7 67.45 M82.6 69.0 L83.1 68.75 82.7 68.95 82.6 69.0 M52.2 143.45 L59.1 136.2 58.3 135.55 58.3 133.5 57.95 133.25 57.6 133.35 57.75 133.3 Q50.9 131.25 49.1 138.6 L49.5 140.4 50.3 143.95 52.2 145.4 Q54.2 146.75 56.55 146.0 62.05 144.35 61.3 138.5 L60.15 135.1 60.2 136.3 Q59.45 143.6 52.2 143.45 M50.3 141.8 L50.3 141.75 50.35 141.8 50.3 141.8 M50.05 140.55 L50.05 140.5 50.1 140.3 50.05 140.55" fill="#bab9ba" fill-rule="evenodd" stroke="none"/>
    <path d="M110.3 10.45 L109.7 10.25 105.4 10.1 Q101.65 11.55 101.1 15.5 L102.3 20.9 104.25 22.35 Q109.85 24.6 112.7 19.45 113.7 17.55 113.3 15.45 L112.15 12.05 112.2 13.05 Q111.9 20.7 104.2 20.4 L111.1 13.15 110.3 12.5 110.3 10.45 M118.55 48.25 L117.8 49.0 79.85 55.1 88.2 5.7 115.25 5.7 118.55 48.25 M25.95 260.3 L176.55 194.2 167.85 262.6 162.15 271.65 32.15 271.65 25.95 260.3 M169.95 208.1 L169.3 206.5 168.25 205.25 167.55 204.95 Q164.0 204.75 163.6 208.15 L163.75 209.7 Q164.15 212.2 166.85 212.4 170.55 211.9 169.95 208.1" fill="#9c9c9c" fill-rule="evenodd" stroke="none"/>
    <path d="M110.3 12.5 L111.1 13.15 104.2 20.4 104.25 22.35 102.3 20.9 110.3 12.5 M58.3 135.55 L59.1 136.2 52.2 143.45 52.2 145.4 50.3 143.95 58.3 135.55" fill="#57565b" fill-rule="evenodd" stroke="none"/>
    <path d="M102.3 20.9 L101.1 15.5 102.05 17.4 102.05 17.45 102.3 18.7 102.3 18.75 102.3 20.9 M50.3 143.95 L49.5 140.4 49.95 141.3 50.05 140.5 50.05 140.55 50.3 141.75 50.3 141.8 50.3 143.95" fill="#79818b" fill-rule="evenodd" stroke="none"/>
    <path d="M109.7 10.25 L110.3 10.45 102.35 18.75 102.3 18.7 102.05 17.45 102.1 17.25 102.5 16.4 Q104.95 11.95 109.7 10.25 M115.5 64.05 Q115.5 65.25 114.3 66.1 113.05 66.95 111.3 66.95 L110.7 66.5 110.45 66.35 110.45 66.2 Q110.6 64.75 111.7 63.25 113.05 62.15 114.55 62.0 L115.55 62.85 115.5 64.05 M85.7 67.45 L86.7 68.3 Q86.8 70.4 85.2 71.65 83.65 72.55 82.1 72.35 L81.6 71.8 Q81.7 70.35 82.7 68.95 L83.1 68.75 85.7 67.45 M57.6 133.35 L57.95 133.25 58.3 133.5 50.35 141.8 50.3 141.75 50.05 140.55 50.1 140.3 50.45 139.55 Q52.75 135.0 57.6 133.35 M168.25 205.25 L169.3 206.5 Q169.3 208.0 167.95 209.1 166.6 210.15 164.65 210.15 L164.15 209.6 165.25 206.75 168.25 205.25" fill="#d0cfd0" fill-rule="evenodd" stroke="none"/>
    <path d="M101.1 15.5 Q101.65 11.55 105.4 10.1 L109.7 10.25 Q104.95 11.95 102.5 16.4 L102.1 17.25 102.05 17.4 101.1 15.5 M110.45 66.2 L110.15 65.7 110.05 65.5 110.0 65.0 Q110.2 61.65 113.85 61.75 L114.55 62.0 Q113.05 62.15 111.7 63.25 110.6 64.75 110.45 66.2 M81.05 70.35 Q81.4 66.95 85.0 67.15 L85.7 67.45 83.1 68.75 82.6 69.0 Q81.65 70.35 81.6 71.8 81.15 71.15 81.05 70.35 M49.5 140.4 L49.1 138.6 Q50.9 131.25 57.75 133.3 L57.6 133.35 Q52.75 135.0 50.45 139.55 L50.1 140.3 50.05 140.5 49.95 141.3 49.5 140.4 M163.6 208.15 Q164.0 204.75 167.55 204.95 L168.25 205.25 165.25 206.75 164.15 209.6 Q163.7 208.95 163.6 208.15" fill="#e9e9eb" fill-rule="evenodd" stroke="none"/>
    <path d="M104.2 20.4 Q111.9 20.7 112.2 13.05 L112.15 12.05 113.3 15.45 Q112.8 20.75 107.3 21.25 105.6 21.2 104.2 20.4 M115.5 64.05 L115.6 62.85 Q116.1 63.5 116.25 64.35 116.15 65.6 115.7 66.35 114.85 67.85 112.55 67.75 111.05 67.4 111.3 66.95 113.05 66.95 114.3 66.1 115.5 65.25 115.5 64.05 M86.7 68.3 L87.35 69.8 Q87.35 72.95 84.2 73.15 82.95 73.1 82.1 72.35 83.65 72.55 85.2 71.65 86.8 70.4 86.7 68.3 M52.2 143.45 Q59.45 143.6 60.2 136.3 L60.15 135.1 61.3 138.5 Q60.8 143.8 55.3 144.3 53.6 144.25 52.2 143.45 M169.3 206.5 L169.95 208.1 Q169.55 210.7 166.8 210.95 165.5 210.9 164.65 210.15 166.6 210.15 167.95 209.1 169.3 208.0 169.3 206.5" fill="#b0aeb3" fill-rule="evenodd" stroke="none"/>
  </g>
</svg>
