<?xml version="1.0" encoding="UTF-8" standalone="no"?>
<svg xmlns:xlink="http://www.w3.org/1999/xlink" height="324.6px" width="385.95px" xmlns="http://www.w3.org/2000/svg">
  <g transform="matrix(1.0, 0.0, 0.0, 1.0, 11.55, 40.9)">
    <path d="M367.5 183.85 L368.4 183.4 366.05 137.3 302.35 39.8 283.25 35.35 246.35 25.7 217.25 -33.95 154.45 -31.7 123.35 25.7 76.9 40.0 20.95 108.1 19.0 113.05 -7.1 178.35 -5.6 262.2 20.8 281.4 161.25 281.4 351.3 281.4 371.5 242.4 368.45 183.4 Q368.0 183.65 367.5 183.85 M362.7 201.5 Q363.65 204.8 361.05 207.45 359.8 208.7 357.95 208.15 354.15 207.05 354.45 202.6 L355.05 204.35 355.7 205.15 Q356.9 206.35 358.5 206.3 362.6 205.9 362.7 201.5 M354.8 283.7 L19.0 283.7 -11.55 265.75 -10.6 178.0 15.8 104.65 75.45 35.2 119.4 20.2 151.4 -37.45 219.35 -40.9 250.5 20.05 306.7 36.75 371.95 135.1 374.4 243.95 354.8 283.7 M251.5 33.9 Q252.45 37.55 249.75 40.0 L248.35 40.8 Q243.0 40.7 243.2 35.0 L243.85 36.75 244.5 37.55 Q245.7 38.55 247.3 38.7 251.35 38.3 251.5 33.9 M303.1 56.55 Q303.65 60.1 301.55 62.65 298.15 67.05 293.5 64.45 L293.45 62.2 Q294.9 63.1 296.75 63.15 302.55 62.6 303.1 56.55 M299.9 50.8 L299.9 53.15 291.4 62.75 291.4 60.3 291.45 60.3 299.9 50.8 M36.15 96.6 L36.8 98.4 37.45 99.2 Q38.65 100.35 40.25 100.35 44.4 99.95 44.45 95.55 45.1 98.85 43.1 101.15 41.85 102.7 40.0 102.3 36.05 101.25 36.15 96.6 M11.95 239.8 L11.95 242.15 3.45 251.8 3.45 249.35 3.5 249.35 11.95 239.8 M15.1 245.55 Q15.85 250.2 12.5 252.95 9.1 255.65 5.5 253.45 L5.45 251.2 Q6.95 252.15 8.75 252.2 14.6 251.6 15.1 245.55" fill="#47525f" fill-rule="evenodd" stroke="none"/>
    <path d="M283.25 35.35 L302.35 39.8 366.05 137.3 368.4 183.4 367.5 183.85 161.25 281.4 20.8 281.4 -5.6 262.2 -7.1 178.35 19.0 113.05 18.7 113.8 19.15 113.7 283.25 35.35 M303.1 56.55 Q303.25 54.2 301.9 52.65 302.35 55.25 301.25 57.75 L300.15 59.55 Q297.5 62.65 293.45 62.2 L300.75 53.9 299.9 53.15 299.9 50.8 299.55 50.5 299.3 50.65 Q297.35 48.9 294.2 50.65 290.7 52.45 290.15 56.6 L290.15 59.3 Q289.9 60.15 291.4 62.75 L293.5 64.45 Q298.15 67.05 301.55 62.65 303.65 60.1 303.1 56.55 M291.15 58.8 L291.15 58.75 291.2 58.6 291.15 58.8 M291.4 60.25 L291.45 60.3 291.4 60.3 291.4 60.25 M11.2 239.65 L11.35 239.6 Q4.0 237.3 2.15 245.6 L2.15 248.3 Q1.95 249.15 3.45 251.8 L5.5 253.45 Q9.1 255.65 12.5 252.95 15.85 250.2 15.1 245.55 15.35 243.3 13.9 241.65 14.45 244.4 13.25 246.75 10.75 251.8 5.45 251.2 L12.8 242.9 11.95 242.15 11.95 239.8 11.55 239.55 11.2 239.65 M3.15 247.8 L3.2 247.6 3.15 247.85 3.15 247.8 M3.45 249.25 L3.5 249.35 3.45 249.35 3.45 249.25" fill="#bab9ba" fill-rule="evenodd" stroke="none"/>
    <path d="M367.5 183.85 Q368.0 183.65 368.45 183.4 L371.5 242.4 351.3 281.4 161.25 281.4 367.5 183.85 M19.0 113.05 L20.95 108.1 76.9 40.0 123.35 25.7 154.45 -31.7 217.25 -33.95 246.35 25.7 283.25 35.35 19.15 113.7 19.0 113.05 M360.55 198.1 L357.75 198.0 Q354.3 198.8 354.45 202.6 354.15 207.05 357.95 208.15 359.8 208.7 361.05 207.45 363.65 204.8 362.7 201.5 362.6 200.3 361.85 199.3 L360.55 198.1 M250.65 31.75 Q250.1 31.0 249.35 30.55 247.95 29.7 246.45 30.05 243.1 31.2 243.2 35.0 243.0 40.7 248.35 40.8 L249.75 40.0 Q252.45 37.55 251.5 33.9 251.4 32.7 250.65 31.75 M42.25 92.15 L41.35 91.8 Q36.5 91.3 36.15 96.6 36.05 101.25 40.0 102.3 41.85 102.7 43.1 101.15 45.1 98.85 44.45 95.55 44.35 94.35 43.6 93.35 L42.25 92.15" fill="#9c9c9c" fill-rule="evenodd" stroke="none"/>
    <path d="M293.5 64.45 L291.4 62.75 299.9 53.15 300.75 53.9 293.45 62.2 293.5 64.45 M11.95 242.15 L12.8 242.9 5.45 251.2 5.5 253.45 3.45 251.8 11.95 242.15" fill="#57565b" fill-rule="evenodd" stroke="none"/>
    <path d="M291.4 62.75 Q289.9 60.15 290.15 59.3 L290.15 56.6 Q290.25 58.25 291.05 59.75 L291.15 58.75 291.15 58.8 291.1 59.75 291.4 60.25 291.4 60.3 291.4 62.75 M3.45 251.8 Q1.95 249.15 2.15 248.3 L2.15 245.6 Q2.25 247.25 3.05 248.75 L3.15 247.8 3.15 247.85 3.1 248.75 3.45 249.25 3.45 249.35 3.45 251.8" fill="#79818b" fill-rule="evenodd" stroke="none"/>
    <path d="M360.55 198.1 L361.85 199.3 Q361.85 204.75 356.75 205.3 L355.7 205.15 355.05 204.35 Q355.05 201.8 356.65 199.95 358.25 198.1 360.55 198.1 M249.35 30.55 Q250.1 31.0 250.65 31.75 250.75 37.15 245.55 37.75 L244.5 37.55 243.85 36.75 Q243.85 34.2 245.45 32.35 247.05 30.55 249.35 30.55 M299.3 50.65 L299.55 50.5 299.9 50.8 291.45 60.3 291.4 60.25 291.1 59.75 291.15 58.8 291.2 58.6 291.7 57.4 Q294.3 52.45 299.3 50.65 M36.8 98.4 Q36.8 95.8 38.4 94.0 40.0 92.15 42.25 92.15 L43.6 93.35 Q43.65 95.1 42.95 96.4 41.05 99.75 37.45 99.2 L36.8 98.4 M11.2 239.65 L11.55 239.55 11.95 239.8 3.5 249.35 3.45 249.25 3.1 248.75 3.15 247.85 3.2 247.6 3.8 246.4 Q6.25 241.4 11.2 239.65" fill="#d0cfd0" fill-rule="evenodd" stroke="none"/>
    <path d="M354.45 202.6 Q354.3 198.8 357.75 198.0 L360.55 198.1 Q358.25 198.1 356.65 199.95 355.05 201.8 355.05 204.35 L354.45 202.6 M243.2 35.0 Q243.1 31.2 246.45 30.05 247.95 29.7 249.35 30.55 247.05 30.55 245.45 32.35 243.85 34.2 243.85 36.75 L243.2 35.0 M290.15 56.6 Q290.7 52.45 294.2 50.65 297.35 48.9 299.3 50.65 294.3 52.45 291.7 57.4 L291.2 58.6 291.15 58.75 291.05 59.75 Q290.25 58.25 290.15 56.6 M36.15 96.6 Q36.5 91.3 41.35 91.8 L42.25 92.15 Q40.0 92.15 38.4 94.0 36.8 95.8 36.8 98.4 L36.15 96.6 M2.15 245.6 Q4.0 237.3 11.35 239.6 L11.2 239.65 Q6.25 241.4 3.8 246.4 L3.2 247.6 3.15 247.8 3.05 248.75 Q2.25 247.25 2.15 245.6" fill="#e9e9eb" fill-rule="evenodd" stroke="none"/>
    <path d="M361.85 199.3 Q362.6 200.3 362.7 201.5 362.6 205.9 358.5 206.3 356.9 206.35 355.7 205.15 L356.75 205.3 Q361.85 204.75 361.85 199.3 M250.65 31.75 Q251.4 32.7 251.5 33.9 251.35 38.3 247.3 38.7 245.7 38.55 244.5 37.55 L245.55 37.75 Q250.75 37.15 250.65 31.75 M293.45 62.2 Q297.5 62.65 300.15 59.55 L301.25 57.75 Q302.35 55.25 301.9 52.65 303.25 54.2 303.1 56.55 302.55 62.6 296.75 63.15 294.9 63.1 293.45 62.2 M43.6 93.35 Q44.35 94.35 44.45 95.55 44.4 99.95 40.25 100.35 38.65 100.35 37.45 99.2 41.05 99.75 42.95 96.4 43.65 95.1 43.6 93.35 M5.45 251.2 Q10.75 251.8 13.25 246.75 14.45 244.4 13.9 241.65 15.35 243.3 15.1 245.55 14.6 251.6 8.75 252.2 6.95 252.15 5.45 251.2" fill="#b0aeb3" fill-rule="evenodd" stroke="none"/>
  </g>
</svg>
