<?xml version="1.0" encoding="UTF-8" standalone="no"?>
<svg xmlns:xlink="http://www.w3.org/1999/xlink" height="88.95px" width="302.0px" xmlns="http://www.w3.org/2000/svg">
  <g transform="matrix(1.0, 0.0, 0.0, 1.0, 1.5, 1.5)">
    <path d="M299.0 9.55 L299.0 76.4 Q299.0 80.35 296.15 83.15 293.35 85.95 289.4 85.95 L9.55 85.95 Q5.6 85.95 2.8 83.15 0.0 80.35 0.0 76.4 L0.0 9.55 Q0.0 5.6 2.8 2.8 5.6 0.0 9.55 0.0 L289.4 0.0 Q293.35 0.0 296.15 2.8 299.0 5.6 299.0 9.55" fill="#ffffff" fill-rule="evenodd" stroke="none"/>
    <path d="M299.0 9.55 L299.0 76.4 Q299.0 80.35 296.15 83.15 293.35 85.95 289.4 85.95 L9.55 85.95 Q5.6 85.95 2.8 83.15 0.0 80.35 0.0 76.4 L0.0 9.55 Q0.0 5.6 2.8 2.8 5.6 0.0 9.55 0.0 L289.4 0.0 Q293.35 0.0 296.15 2.8 299.0 5.6 299.0 9.55 Z" fill="none" stroke="#ff7700" stroke-linecap="round" stroke-linejoin="round" stroke-width="3.0"/>
  </g>
</svg>
