<?xml version="1.0" encoding="UTF-8" standalone="no"?>
<svg xmlns:xlink="http://www.w3.org/1999/xlink" height="268.25px" width="334.9px" xmlns="http://www.w3.org/2000/svg">
  <g transform="matrix(1.0, 0.0, 0.0, 1.0, 0.0, 0.0)">
    <path d="M329.9 244.2 L329.55 244.95 299.1 261.55 288.4 251.1 290.25 247.35 284.9 244.4 286.85 229.75 281.0 230.25 279.9 229.05 274.65 203.65 271.25 200.2 273.7 214.75 274.5 266.75 273.9 268.05 273.0 268.25 60.35 268.25 59.6 268.05 58.85 266.7 61.25 199.45 Q61.15 197.85 61.95 183.6 L62.55 173.6 59.35 191.45 50.5 229.35 48.25 236.8 45.95 236.9 46.85 249.5 41.25 252.8 43.2 257.1 36.6 263.45 34.5 265.2 32.4 266.9 1.75 249.8 6.95 231.15 1.3 230.3 0.85 230.05 0.25 229.55 0.0 228.75 2.65 183.55 2.8 183.05 25.2 128.75 25.4 128.35 74.0 69.5 74.6 69.25 Q85.55 66.6 96.35 62.4 L108.75 57.5 130.65 26.0 130.85 25.65 Q136.35 16.95 143.75 9.95 L147.75 6.35 155.65 0.0 178.45 0.05 181.85 2.9 Q186.35 6.9 189.95 11.55 L218.6 55.2 Q232.5 61.3 246.95 65.7 L265.15 70.75 298.85 109.7 322.55 149.05 322.75 149.55 334.9 223.2 334.65 224.4 324.65 225.9 329.9 244.2 M183.75 18.0 L181.8 19.9 191.85 19.65 183.75 18.0 M186.9 15.55 L189.3 15.95 Q186.45 11.45 182.75 7.4 L177.0 2.45 176.3 2.5 156.75 2.85 150.3 7.9 142.9 13.75 139.65 18.35 136.5 22.8 Q147.75 18.4 159.15 14.85 167.05 12.3 175.0 13.75 L186.9 15.55 M207.05 42.85 L193.75 22.6 177.1 23.0 168.6 28.3 167.0 27.25 Q167.8 24.8 170.2 23.7 L171.3 23.15 161.1 23.35 145.1 22.7 139.7 24.8 133.75 27.05 122.6 43.0 112.5 57.55 169.85 73.8 215.5 55.7 207.05 42.85 M154.35 39.8 L155.35 38.3 156.05 38.3 Q157.0 38.15 157.3 39.2 169.1 42.8 179.8 36.65 L180.15 35.25 Q178.1 33.95 179.45 31.95 L180.3 32.05 Q183.2 32.65 183.2 35.55 182.7 40.35 177.4 41.9 174.1 42.95 170.65 43.25 183.7 42.55 194.75 48.2 196.8 49.3 198.35 51.25 200.05 53.35 200.95 56.1 200.0 59.6 192.75 58.5 185.5 57.35 176.65 53.9 167.75 50.45 158.5 52.85 149.15 55.2 142.65 58.4 136.1 61.6 134.95 61.7 126.85 61.35 127.95 54.25 128.35 51.6 130.75 50.5 138.5 46.8 147.0 45.15 154.85 43.6 163.0 43.05 158.1 42.85 154.35 39.8 M180.05 17.5 Q167.35 15.4 154.85 19.35 L151.05 20.55 176.15 20.0 180.05 17.5 M176.35 29.1 L173.65 28.85 Q172.55 27.65 173.75 26.45 L191.8 26.6 Q192.8 26.85 192.7 27.95 L192.6 28.55 183.85 29.3 188.45 30.65 188.95 31.6 188.4 32.75 Q182.15 33.05 176.9 29.6 L176.35 29.1 M165.9 49.3 Q170.7 49.45 176.0 51.3 L176.1 46.45 165.75 46.05 165.9 49.3 M179.1 46.85 L179.0 52.25 188.0 54.9 188.15 48.7 179.1 46.85 M191.0 55.7 L195.85 56.45 Q197.4 56.8 198.25 55.55 196.4 52.05 192.9 50.35 L191.1 49.6 191.0 55.7 M176.2 94.35 L185.6 109.7 196.85 90.0 185.85 92.8 Q184.55 92.95 184.15 91.75 L181.9 84.5 176.2 94.35 M180.65 80.65 L178.15 73.75 169.5 77.0 Q162.3 74.75 154.6 72.65 L151.45 81.1 159.7 94.3 173.55 92.95 180.65 80.65 M206.6 62.45 L181.5 72.4 186.5 89.55 198.9 86.35 212.6 62.35 214.3 59.4 206.6 62.45 M233.55 64.2 L231.85 89.5 220.15 95.6 229.15 101.2 229.15 102.65 168.7 145.65 169.45 265.25 271.65 265.25 270.85 214.85 256.9 133.9 240.55 78.5 239.1 65.55 233.55 64.2 M215.6 95.0 L229.15 87.7 230.6 63.5 218.4 58.3 171.9 139.7 225.15 101.75 215.6 96.0 215.6 95.0 M162.75 46.05 L152.25 47.3 152.6 52.05 Q157.75 50.3 162.9 49.55 L162.75 46.05 M183.95 112.65 L173.7 95.95 159.75 97.35 149.0 112.3 168.25 140.05 183.95 112.65 M165.9 144.15 L165.0 142.4 111.7 105.15 Q110.85 104.4 111.2 103.45 111.25 103.2 111.45 103.05 L121.4 96.45 97.2 94.7 Q96.75 95.0 96.45 94.55 L96.25 94.0 96.25 66.2 82.15 71.5 82.1 92.45 65.8 159.45 62.05 265.25 166.45 265.25 165.7 145.05 165.9 144.15 M296.65 111.5 L263.6 73.25 242.25 66.5 243.5 77.75 259.8 133.05 270.5 195.1 277.65 202.65 282.7 227.15 331.85 222.15 320.0 150.35 296.65 111.5 M143.05 48.9 L144.25 55.6 149.9 52.85 149.25 47.8 143.05 48.9 M99.25 92.55 L127.4 94.1 Q128.0 95.15 127.3 96.05 L127.0 96.35 121.15 100.25 115.25 104.0 162.55 137.05 109.4 60.6 99.25 64.95 99.25 92.55 M132.4 52.0 Q129.7 54.35 130.4 57.8 L133.9 58.85 133.05 51.5 132.4 52.0 M137.2 58.5 L141.5 56.8 140.1 49.45 136.05 50.35 Q135.7 54.1 136.9 57.7 L137.2 58.5 M150.1 84.6 L146.1 94.95 145.0 95.5 133.5 90.05 147.15 109.65 157.1 95.85 150.1 84.6 M144.05 91.95 L151.7 71.9 113.5 61.3 129.9 84.85 144.05 91.95 M79.15 71.95 L76.0 71.95 28.0 130.1 5.8 183.9 3.25 227.55 12.85 228.35 39.75 230.6 40.2 230.85 43.1 233.45 46.5 233.95 52.55 208.2 62.8 159.25 79.15 91.95 79.15 71.95 M30.85 246.0 L32.45 245.5 39.4 250.45 44.15 247.95 43.15 237.7 39.05 233.6 10.0 231.8 5.0 248.45 32.55 263.65 40.05 256.2 31.05 248.25 Q30.3 247.6 30.65 246.55 L30.85 246.0 M288.65 232.25 L287.65 242.5 292.4 245.0 298.85 240.4 299.35 240.1 Q300.75 239.85 301.1 241.2 301.35 242.0 300.6 242.7 L291.75 250.75 299.2 258.2 326.85 243.0 321.85 226.35 292.85 228.15 288.65 232.25" fill="#1a1a1a" fill-rule="evenodd" stroke="none"/>
    <path d="M215.6 95.0 L215.6 96.0 225.15 101.75 171.9 139.7 218.4 58.3 230.6 63.5 229.15 87.7 215.6 95.0 M233.55 64.2 L239.1 65.55 240.55 78.5 256.9 133.9 270.85 214.85 271.65 265.25 169.45 265.25 168.7 145.65 229.15 102.65 229.15 101.2 220.15 95.6 231.85 89.5 233.55 64.2 M296.65 111.5 L320.0 150.35 331.85 222.15 282.7 227.15 277.65 202.65 270.5 195.1 259.8 133.05 243.5 77.75 242.25 66.5 263.6 73.25 296.65 111.5 M165.9 144.15 L165.7 145.05 166.45 265.25 62.05 265.25 65.8 159.45 82.1 92.45 82.15 71.5 96.25 66.2 96.25 94.0 96.45 94.55 Q96.75 95.0 97.2 94.7 L121.4 96.45 111.45 103.05 Q111.25 103.2 111.2 103.45 110.85 104.4 111.7 105.15 L165.0 142.4 165.9 144.15 M99.25 92.55 L99.25 64.95 109.4 60.6 162.55 137.05 115.25 104.0 121.15 100.25 127.0 96.35 127.3 96.05 Q128.0 95.15 127.4 94.1 L99.25 92.55 M79.15 71.95 L79.15 91.95 62.8 159.25 52.55 208.2 46.5 233.95 43.1 233.45 40.2 230.85 39.75 230.6 12.85 228.35 3.25 227.55 5.8 183.9 28.0 130.1 76.0 71.95 79.15 71.95" fill="#591f0b" fill-rule="evenodd" stroke="none"/>
    <path d="M186.9 15.55 L175.0 13.75 Q179.3 7.35 185.1 12.1 186.7 13.35 186.9 15.55 M139.65 18.35 L142.9 13.75 150.3 7.9 Q153.9 13.0 147.75 16.15 144.0 18.05 139.65 18.35 M176.3 2.5 L177.0 2.45 182.75 7.4 182.0 7.65 Q177.35 7.0 176.3 2.5 M165.2 11.2 Q159.85 11.15 157.65 6.4 L156.95 4.4 Q164.85 4.0 172.55 5.9 170.75 10.8 165.2 11.2" fill="#ffffff" fill-rule="evenodd" stroke="none"/>
    <path d="M176.2 94.35 L181.9 84.5 184.15 91.75 Q184.55 92.95 185.85 92.8 L196.85 90.0 185.6 109.7 176.2 94.35 M212.6 62.35 L198.9 86.35 186.5 89.55 181.5 72.4 206.6 62.45 212.6 62.35 M144.05 91.95 L129.9 84.85 113.5 61.3 151.7 71.9 144.05 91.95 M150.1 84.6 L157.1 95.85 147.15 109.65 133.5 90.05 145.0 95.5 146.1 94.95 150.1 84.6" fill="#d1b8a2" fill-rule="evenodd" stroke="none"/>
    <path d="M139.7 24.8 L145.1 22.7 161.1 23.35 Q161.55 29.15 159.25 34.4 158.8 35.5 157.85 35.85 154.45 37.05 150.9 37.05 L144.05 37.05 141.95 36.85 140.95 36.45 Q138.1 30.85 139.7 24.8" fill="#000000" fill-rule="evenodd" stroke="none"/>
    <path d="M288.65 232.25 L292.85 228.15 321.85 226.35 326.85 243.0 299.2 258.2 291.75 250.75 300.6 242.7 Q301.35 242.0 301.1 241.2 300.75 239.85 299.35 240.1 L298.85 240.4 292.4 245.0 287.65 242.5 288.65 232.25 M30.85 246.0 L30.65 246.55 Q30.3 247.6 31.05 248.25 L40.05 256.2 32.55 263.65 5.0 248.45 10.0 231.8 39.05 233.6 43.15 237.7 44.15 247.95 39.4 250.45 32.45 245.5 30.85 246.0" fill="#e6c6b0" fill-rule="evenodd" stroke="none"/>
    <path d="M183.75 18.0 L191.85 19.65 181.8 19.9 183.75 18.0 M161.1 23.35 L171.3 23.15 170.2 23.7 Q167.8 24.8 167.0 27.25 L168.6 28.3 177.1 23.0 193.75 22.6 207.05 42.85 Q195.85 36.9 183.2 35.55 183.2 32.65 180.3 32.05 L179.45 31.95 Q178.1 33.95 180.15 35.25 L179.8 36.65 Q169.1 42.8 157.3 39.2 157.0 38.15 156.05 38.3 L155.35 38.3 154.35 39.8 153.9 39.7 Q151.85 39.25 150.9 37.05 154.45 37.05 157.85 35.85 158.8 35.5 159.25 34.4 161.55 29.15 161.1 23.35 M122.6 43.0 L133.75 27.05 139.7 24.8 Q138.1 30.85 140.95 36.45 L141.95 36.85 144.05 37.05 Q132.75 38.2 122.6 43.0 M176.35 29.1 L176.9 29.6 Q182.15 33.05 188.4 32.75 L188.95 31.6 188.45 30.65 183.85 29.3 192.6 28.55 192.7 27.95 Q192.8 26.85 191.8 26.6 L173.75 26.45 Q172.55 27.65 173.65 28.85 L176.35 29.1 M180.05 17.5 L176.15 20.0 151.05 20.55 154.85 19.35 Q167.35 15.4 180.05 17.5" fill="#f3e4de" fill-rule="evenodd" stroke="none"/>
    <path d="M182.75 7.4 Q186.45 11.45 189.3 15.95 L186.9 15.55 Q186.7 13.35 185.1 12.1 179.3 7.35 175.0 13.75 167.05 12.3 159.15 14.85 147.75 18.4 136.5 22.8 L139.65 18.35 Q144.0 18.05 147.75 16.15 153.9 13.0 150.3 7.9 L156.75 2.85 176.3 2.5 Q177.35 7.0 182.0 7.65 L182.75 7.4 M165.2 11.2 Q170.75 10.8 172.55 5.9 164.85 4.0 156.95 4.4 L157.65 6.4 Q159.85 11.15 165.2 11.2" fill="#990000" fill-rule="evenodd" stroke="none"/>
    <path d="M207.05 42.85 L215.5 55.7 169.85 73.8 112.5 57.55 122.6 43.0 Q132.75 38.2 144.05 37.05 L150.9 37.05 Q151.85 39.25 153.9 39.7 L154.35 39.8 Q158.1 42.85 163.0 43.05 154.85 43.6 147.0 45.15 138.5 46.8 130.75 50.5 128.35 51.6 127.95 54.25 126.85 61.35 134.95 61.7 136.1 61.6 142.65 58.4 149.15 55.2 158.5 52.85 167.75 50.45 176.65 53.9 185.5 57.35 192.75 58.5 200.0 59.6 200.95 56.1 200.05 53.35 198.35 51.25 196.8 49.3 194.75 48.2 183.7 42.55 170.65 43.25 174.1 42.95 177.4 41.9 182.7 40.35 183.2 35.55 195.85 36.9 207.05 42.85" fill="#819ec7" fill-rule="evenodd" stroke="none"/>
    <path d="M165.9 49.3 L165.75 46.05 176.1 46.45 176.0 51.3 Q170.7 49.45 165.9 49.3 M191.0 55.7 L191.1 49.6 192.9 50.35 Q196.4 52.05 198.25 55.55 197.4 56.8 195.85 56.45 L191.0 55.7 M179.1 46.85 L188.15 48.7 188.0 54.9 179.0 52.25 179.1 46.85 M162.75 46.05 L162.9 49.55 Q157.75 50.3 152.6 52.05 L152.25 47.3 162.75 46.05 M143.05 48.9 L149.25 47.8 149.9 52.85 144.25 55.6 143.05 48.9 M137.2 58.5 L136.9 57.7 Q135.7 54.1 136.05 50.35 L140.1 49.45 141.5 56.8 137.2 58.5 M132.4 52.0 L133.05 51.5 133.9 58.85 130.4 57.8 Q129.7 54.35 132.4 52.0" fill="#c1e3a4" fill-rule="evenodd" stroke="none"/>
    <path d="M180.65 80.65 L173.55 92.95 159.7 94.3 151.45 81.1 154.6 72.65 Q162.3 74.75 169.5 77.0 L178.15 73.75 180.65 80.65 M183.95 112.65 L168.25 140.05 149.0 112.3 159.75 97.35 173.7 95.95 183.95 112.65" fill="#331c1a" fill-rule="evenodd" stroke="none"/>
  </g>
</svg>
