<?xml version="1.0" encoding="UTF-8" standalone="no"?>
<svg xmlns:xlink="http://www.w3.org/1999/xlink" height="21.35px" width="62.55px" xmlns="http://www.w3.org/2000/svg">
  <g transform="matrix(1.0, 0.0, 0.0, 1.0, 0.0, 0.0)">
    <path d="M62.55 4.55 L59.35 4.55 59.35 20.9 54.05 20.9 54.05 4.55 50.9 4.55 50.9 0.45 62.55 0.45 62.55 4.55 M49.75 6.05 Q49.75 8.4 49.15 9.25 48.55 10.05 46.8 10.25 48.35 10.65 48.95 11.3 L49.6 12.5 49.75 20.9 44.8 20.9 44.8 14.15 44.55 12.1 Q44.3 11.7 43.2 11.7 L43.2 20.9 37.85 20.9 37.85 0.45 46.7 0.75 Q48.05 1.05 48.9 2.25 49.75 3.45 49.75 6.05 M44.45 4.25 L43.2 3.95 43.2 8.5 44.45 8.3 Q44.8 8.0 44.8 6.65 L44.8 5.55 Q44.8 4.6 44.45 4.25 M21.35 4.55 L21.35 20.9 16.05 20.9 16.05 4.55 12.9 4.55 12.9 0.45 24.55 0.45 24.55 4.55 21.35 4.55 M29.0 20.9 L23.5 20.9 26.2 0.45 33.9 0.45 36.95 20.9 31.55 20.9 31.25 17.25 29.3 17.25 29.0 20.9 M31.1 13.6 L30.3 5.0 Q29.45 11.15 29.3 13.6 L31.1 13.6 M11.7 6.65 L6.8 6.65 6.8 5.15 6.55 3.8 Q6.35 3.5 5.95 3.5 5.45 3.5 5.2 3.9 4.95 4.2 4.95 5.05 4.95 6.1 5.25 6.6 L6.75 7.85 Q10.2 9.9 11.2 11.3 12.15 12.7 12.15 15.7 12.15 17.85 11.6 18.9 11.1 19.95 9.65 20.65 8.25 21.35 6.25 21.35 4.05 21.35 2.6 20.55 1.1 19.75 0.6 18.5 0.15 17.25 0.15 14.9 L0.15 13.55 5.1 13.55 5.1 16.05 Q5.1 17.25 5.3 17.55 5.5 17.9 6.05 17.9 6.6 17.9 6.8 17.5 L7.1 16.25 Q7.1 14.5 6.6 13.9 L1.45 10.1 Q0.8 9.45 0.4 8.45 0.0 7.45 0.0 5.8 0.0 3.4 0.6 2.3 1.2 1.25 2.55 0.65 3.85 0.0 5.75 0.0 7.75 0.0 9.3 0.7 10.75 1.35 11.2 2.4 11.7 3.4 11.7 5.85 L11.7 6.65" fill="#ffffff" fill-rule="evenodd" stroke="none"/>
  </g>
</svg>
