<?xml version="1.0" encoding="UTF-8" standalone="no"?>
<svg xmlns:xlink="http://www.w3.org/1999/xlink" height="114.3px" width="630.45px" xmlns="http://www.w3.org/2000/svg">
  <g transform="matrix(1.0, 0.0, 0.0, 1.0, 0.0, 0.0)">
    <path d="M97.35 32.35 L106.7 34.0 Q110.1 34.8 110.25 35.25 110.5 36.45 93.05 34.15 L79.65 34.55 Q72.6 33.85 67.35 31.85 L59.8 32.95 Q54.9 33.3 49.65 33.0 36.85 32.25 28.45 28.2 22.25 29.05 14.6 26.6 7.3 24.25 2.8 20.3 -1.5 16.5 0.85 12.85 3.75 8.6 14.6 7.2 13.35 2.85 18.4 1.05 23.15 -0.65 31.3 0.45 39.65 1.65 46.1 5.25 53.5 9.4 56.25 15.55 57.05 13.6 59.75 13.1 62.4 12.6 65.8 13.65 69.5 14.85 72.8 17.45 76.45 20.4 78.95 24.55 88.9 25.4 94.85 28.2 97.35 29.4 98.05 30.55 98.8 31.7 97.35 32.35" fill="#eadeea" fill-rule="evenodd" stroke="none"/>
    <path d="M94.5 33.3 L108.05 35.2 Q112.15 35.85 106.4 35.55 L93.05 34.15 79.65 34.55 Q72.6 33.85 67.35 31.85 L59.8 32.95 Q54.9 33.3 49.65 33.0 36.85 32.25 28.45 28.2 22.45 29.05 16.1 27.35 10.3 25.8 7.4 23.1 6.0 21.8 5.8 20.55 5.6 19.25 6.8 18.3 9.65 16.0 19.0 15.85 17.8 11.6 22.5 9.85 26.95 8.2 34.55 9.25 42.25 10.45 48.4 14.1 55.45 18.2 58.15 24.35 59.05 22.4 61.15 21.7 63.2 21.0 65.75 21.65 68.4 22.25 70.6 24.1 73.1 26.15 74.45 29.2 L91.15 31.0 Q97.2 32.05 94.5 33.3" fill="url(#gradient0)" fill-rule="evenodd" stroke="none"/>
    <path d="M264.95 24.45 L269.75 24.75 Q271.6 25.2 272.25 26.15 272.95 27.05 272.25 28.2 271.6 29.4 269.65 30.55 L281.9 31.05 Q285.65 31.5 284.1 32.35 282.3 33.15 275.55 33.5 267.35 33.95 254.55 33.65 247.9 36.4 241.3 36.25 235.5 36.15 231.75 33.95 221.75 37.0 211.6 36.6 199.0 36.05 184.8 30.2 177.4 29.7 171.85 28.0 166.75 26.45 163.75 24.1 160.9 21.9 160.3 19.35 159.7 16.8 161.35 14.45 163.2 12.1 166.9 10.6 170.95 9.0 176.65 8.65 189.9 7.75 208.0 13.6 214.85 11.65 222.4 11.15 L235.35 11.55 Q241.2 12.4 244.4 14.2 247.8 16.1 247.2 18.45 255.65 17.55 260.8 19.75 262.9 20.65 264.0 22.0 265.05 23.2 264.95 24.45" fill="#eadeea" fill-rule="evenodd" stroke="none"/>
    <path d="M263.35 29.4 Q268.3 30.1 264.7 32.2 L278.7 31.7 Q285.3 31.6 284.2 32.3 282.5 33.05 275.85 33.5 267.45 34.0 254.55 33.65 247.9 36.4 241.3 36.25 235.5 36.15 231.75 33.95 221.75 37.0 211.6 36.6 199.0 36.05 184.8 30.2 176.4 29.75 173.05 27.05 171.6 25.9 171.65 24.55 171.65 23.25 173.25 22.15 176.8 19.6 185.5 19.55 195.95 19.5 210.0 23.25 236.65 15.35 233.55 25.55 242.5 24.55 247.45 25.6 252.2 26.6 252.0 29.15 259.6 28.85 263.35 29.4" fill="url(#gradient1)" fill-rule="evenodd" stroke="none"/>
    <path d="M347.5 45.55 Q348.95 46.1 349.7 47.0 350.4 47.8 350.3 48.75 354.4 48.35 355.4 49.8 355.85 50.45 355.35 51.3 354.85 52.15 353.45 52.95 L362.25 53.2 Q365.05 53.5 363.9 54.05 362.65 54.65 357.65 55.0 351.7 55.45 342.65 55.4 337.85 57.45 333.3 57.5 329.3 57.5 326.7 56.0 319.75 58.4 312.8 58.25 304.25 58.1 294.9 54.3 285.35 54.0 281.2 50.55 279.45 49.1 279.15 47.3 278.85 45.55 279.95 43.9 281.25 42.2 283.8 41.1 286.5 39.85 290.25 39.45 299.05 38.55 311.2 42.35 315.9 40.75 321.1 40.2 325.85 39.75 330.0 40.25 334.05 40.75 336.25 41.95 338.5 43.2 338.05 44.85 344.0 44.15 347.5 45.55" fill="#eadeea" fill-rule="evenodd" stroke="none"/>
    <path d="M337.9 49.85 Q341.2 50.45 341.0 52.25 345.95 51.75 349.0 52.15 352.5 52.65 349.85 54.2 365.4 52.9 363.8 53.95 362.6 54.5 357.7 54.9 L342.65 55.4 Q337.85 57.45 333.3 57.5 329.3 57.5 326.7 56.0 319.75 58.4 312.8 58.25 304.25 58.1 294.9 54.3 289.3 54.15 287.1 52.35 286.15 51.55 286.25 50.65 286.3 49.75 287.35 48.95 289.85 47.1 295.7 46.9 302.75 46.65 312.2 48.95 330.75 42.95 328.3 50.1 334.45 49.15 337.9 49.85" fill="url(#gradient2)" fill-rule="evenodd" stroke="none"/>
    <path d="M415.85 49.85 L423.9 50.45 Q427.35 51.4 426.75 53.15 434.35 54.15 436.25 55.9 437.85 57.35 435.05 58.95 432.5 60.4 427.8 61.15 L418.85 61.55 Q413.75 62.95 405.45 62.9 L393.8 61.95 385.65 62.7 376.8 62.1 Q364.85 62.55 365.0 62.05 365.05 61.85 367.45 61.6 L373.85 61.2 Q372.85 60.85 373.25 60.4 373.7 59.95 375.4 59.5 379.3 58.5 385.85 58.5 388.7 55.15 393.95 54.35 396.1 54.05 397.9 54.3 399.65 54.6 400.35 55.4 401.95 52.95 406.65 51.4 410.7 50.1 415.85 49.85" fill="#eadeea" fill-rule="evenodd" stroke="none"/>
    <path d="M432.2 57.95 Q433.85 58.85 432.1 59.9 430.35 60.95 426.7 61.5 422.75 62.0 418.85 61.55 413.75 62.95 405.45 62.9 L393.8 61.95 385.65 62.7 376.8 62.1 367.8 62.25 Q361.7 62.2 375.8 61.7 372.4 60.5 389.0 60.6 389.8 59.35 391.35 58.55 392.75 57.85 394.45 57.65 L397.45 57.85 Q398.85 58.2 399.5 59.0 401.1 56.6 405.5 55.05 409.4 53.65 414.2 53.4 418.85 53.1 421.8 53.95 424.95 54.85 424.4 56.6 430.3 56.9 432.2 57.95" fill="url(#gradient3)" fill-rule="evenodd" stroke="none"/>
    <path d="M425.15 91.6 Q428.25 90.65 431.55 90.35 L437.1 90.55 Q439.55 91.05 440.25 92.15 444.15 90.8 447.65 91.3 450.65 91.65 451.85 93.0 454.7 92.2 456.4 93.05 457.15 93.4 457.35 94.0 457.55 94.6 457.1 95.35 L463.8 94.25 Q466.1 94.05 465.6 94.55 465.1 95.1 461.6 96.1 L450.8 98.5 Q448.65 100.55 445.4 101.2 442.6 101.75 439.6 101.15 432.3 106.6 415.85 104.5 409.0 105.5 404.0 103.9 401.8 103.2 400.4 102.1 399.1 101.05 398.8 99.8 398.55 97.0 403.15 95.4 408.6 93.6 419.4 94.35 421.75 92.65 425.15 91.6" fill="#eadeea" fill-rule="evenodd" stroke="none"/>
    <path d="M424.5 98.55 Q429.15 95.1 432.35 94.85 435.4 94.55 436.75 97.0 440.7 95.6 443.65 95.5 446.45 95.45 447.45 96.65 450.95 95.65 453.25 95.5 456.1 95.3 455.3 96.65 L462.3 94.9 465.5 94.55 Q464.8 95.15 461.55 96.1 L450.8 98.5 Q448.65 100.55 445.4 101.2 442.6 101.75 439.6 101.15 432.3 106.6 415.85 104.5 L409.15 104.25 Q408.0 103.9 407.4 103.3 406.8 102.7 407.0 102.0 407.5 100.45 411.45 99.5 416.2 98.3 424.5 98.55" fill="url(#gradient4)" fill-rule="evenodd" stroke="none"/>
    <path d="M264.1 98.0 Q269.75 98.35 274.2 100.1 279.3 102.05 280.95 105.05 281.65 104.05 283.65 103.7 L288.0 103.85 Q290.6 104.4 292.8 105.65 295.35 107.05 296.85 109.15 304.1 109.35 308.3 110.65 310.1 111.2 310.55 111.75 311.05 112.35 309.95 112.75 L316.95 113.4 319.6 113.95 Q319.75 114.55 306.6 113.8 L296.7 114.3 Q291.55 114.1 287.8 113.15 L282.2 113.9 274.9 114.15 Q265.65 114.1 260.0 112.2 L250.15 111.65 Q245.0 110.65 242.25 108.8 239.25 106.8 241.15 105.05 243.35 102.95 251.8 101.85 251.3 99.7 255.15 98.65 258.7 97.6 264.1 98.0" fill="#eadeea" fill-rule="evenodd" stroke="none"/>
    <path d="M316.55 114.2 L306.6 113.8 296.7 114.3 Q291.55 114.1 287.8 113.15 L282.2 113.9 274.9 114.15 Q265.65 114.1 260.0 112.2 255.7 112.75 251.35 112.05 247.4 111.4 245.55 110.1 243.65 108.75 245.55 107.65 247.7 106.4 254.2 106.1 253.75 103.95 257.25 102.95 260.6 101.95 265.7 102.35 271.0 102.8 275.2 104.55 280.0 106.5 281.65 109.5 282.4 108.5 284.0 108.1 L287.35 107.95 Q289.25 108.25 290.75 109.15 292.4 110.1 293.15 111.6 L305.35 112.15 Q309.8 112.55 307.75 113.3 324.85 114.25 316.55 114.2" fill="url(#gradient5)" fill-rule="evenodd" stroke="none"/>
    <path d="M618.1 6.1 Q624.8 8.45 628.4 13.95 631.55 19.3 629.85 25.0 628.3 30.1 623.45 34.35 618.8 38.35 613.05 40.0 607.05 41.7 602.5 40.15 590.05 49.65 579.6 52.15 575.0 53.3 571.55 52.8 568.2 52.25 566.45 50.35 556.05 57.95 548.55 58.95 545.4 59.35 543.4 58.4 541.5 57.45 541.15 55.45 533.9 57.75 531.0 57.8 528.5 57.85 529.6 56.25 530.8 54.75 534.55 52.95 538.8 50.85 544.2 49.55 545.95 43.55 549.3 40.35 553.3 36.45 559.25 37.05 563.15 28.5 572.7 29.45 578.55 19.0 586.85 12.7 594.3 7.0 602.95 5.2 611.25 3.7 618.1 6.1" fill="#feffff" fill-rule="evenodd" stroke="none"/>
    <path d="M620.5 30.5 Q620.1 34.0 617.6 36.8 615.0 39.65 611.15 40.65 606.95 41.7 602.5 40.15 590.05 49.65 579.6 52.15 575.0 53.3 571.55 52.8 568.2 52.25 566.45 50.35 556.05 57.95 548.55 58.95 545.4 59.35 543.4 58.4 541.5 57.45 541.15 55.45 535.0 57.45 532.05 57.7 526.9 58.15 530.3 57.0 533.35 55.9 542.8 53.6 543.75 51.9 545.5 50.55 547.2 49.15 549.25 48.5 551.4 47.75 553.35 47.9 555.55 48.1 557.15 49.35 557.4 46.4 559.0 43.95 560.45 41.65 562.55 40.3 564.6 39.05 566.4 39.1 568.3 39.15 569.2 40.7 574.85 30.55 582.65 24.6 589.5 19.45 597.3 17.95 604.15 16.65 610.25 18.45 615.95 20.1 618.75 23.65 620.95 26.8 620.5 30.5" fill="url(#gradient6)" fill-rule="evenodd" stroke="none"/>
  </g>
  <defs>
    <linearGradient gradientTransform="matrix(0.0608, 0.0046, -0.018, 0.0156, 57.8, 22.2)" gradientUnits="userSpaceOnUse" id="gradient0" spreadMethod="pad" x1="-819.2" x2="819.2">
      <stop offset="0.058823529411764705" stop-color="#bbaabb"/>
      <stop offset="1.0" stop-color="#d0bdd3"/>
    </linearGradient>
    <linearGradient gradientTransform="matrix(0.0632, 0.004, -0.0265, 0.0096, 227.95, 28.05)" gradientUnits="userSpaceOnUse" id="gradient1" spreadMethod="pad" x1="-819.2" x2="819.2">
      <stop offset="0.058823529411764705" stop-color="#bbaabb"/>
      <stop offset="1.0" stop-color="#d0bdd3"/>
    </linearGradient>
    <linearGradient gradientTransform="matrix(0.0436, 0.0028, -0.0183, 0.0067, 325.05, 52.25)" gradientUnits="userSpaceOnUse" id="gradient2" spreadMethod="pad" x1="-819.2" x2="819.2">
      <stop offset="0.058823529411764705" stop-color="#bbaabb"/>
      <stop offset="1.0" stop-color="#d0bdd3"/>
    </linearGradient>
    <linearGradient gradientTransform="matrix(-0.0409, 6.0E-4, -0.0045, -0.0058, 399.3, 58.15)" gradientUnits="userSpaceOnUse" id="gradient3" spreadMethod="pad" x1="-819.2" x2="819.2">
      <stop offset="0.058823529411764705" stop-color="#bbaabb"/>
      <stop offset="1.0" stop-color="#d0bdd3"/>
    </linearGradient>
    <linearGradient gradientTransform="matrix(0.0287, -0.0039, 0.0211, 0.0052, 436.25, 99.75)" gradientUnits="userSpaceOnUse" id="gradient4" spreadMethod="pad" x1="-819.2" x2="819.2">
      <stop offset="0.058823529411764705" stop-color="#bbaabb"/>
      <stop offset="1.0" stop-color="#d0bdd3"/>
    </linearGradient>
    <linearGradient gradientTransform="matrix(0.0425, 0.0025, -0.0157, 0.0068, 281.85, 108.3)" gradientUnits="userSpaceOnUse" id="gradient5" spreadMethod="pad" x1="-819.2" x2="819.2">
      <stop offset="0.058823529411764705" stop-color="#bbaabb"/>
      <stop offset="1.0" stop-color="#d0bdd3"/>
    </linearGradient>
    <linearGradient gradientTransform="matrix(-0.0508, 0.0104, -0.023, -0.0231, 574.8, 38.2)" gradientUnits="userSpaceOnUse" id="gradient6" spreadMethod="pad" x1="-819.2" x2="819.2">
      <stop offset="0.058823529411764705" stop-color="#bbaabb"/>
      <stop offset="1.0" stop-color="#d0bdd3"/>
    </linearGradient>
  </defs>
</svg>
