<?xml version="1.0" encoding="UTF-8" standalone="no"?>
<svg xmlns:xlink="http://www.w3.org/1999/xlink" height="95.75px" width="78.15px" xmlns="http://www.w3.org/2000/svg">
  <g transform="matrix(1.0, 0.0, 0.0, 1.0, 0.0, 0.0)">
    <path d="M0.2 24.15 Q-0.3 17.2 0.45 11.05 1.25 4.6 3.25 0.0 L48.1 13.9 72.7 43.45 78.15 92.1 60.85 95.75 54.9 61.2 40.25 53.25 Q14.8 49.6 6.15 49.15 3.75 44.1 2.15 37.5 0.65 31.0 0.2 24.15" fill="#2d2323" fill-rule="evenodd" stroke="none"/>
    <path d="M70.95 43.55 L76.05 91.85 63.75 95.75 56.6 60.2 70.95 43.55" fill="url(#gradient0)" fill-rule="evenodd" stroke="none"/>
    <path d="M3.9 2.0 Q31.25 7.5 47.8 15.1 42.35 25.6 41.1 51.6 15.1 48.35 7.0 46.2 -4.5 16.1 3.9 2.0" fill="url(#gradient1)" fill-rule="evenodd" stroke="none"/>
    <path d="M47.8 15.1 Q69.55 41.3 70.95 43.55 71.05 47.75 69.25 51.3 67.75 54.3 65.0 56.55 62.7 58.45 60.1 59.5 57.8 60.4 56.6 60.2 48.35 55.4 41.1 51.6 40.05 16.2 47.8 15.1" fill="url(#gradient2)" fill-rule="evenodd" stroke="none"/>
    <path d="M11.35 44.05 Q11.85 44.65 11.8 45.35 11.75 46.05 11.3 46.45 10.8 46.85 10.15 46.75 9.35 46.55 8.6 45.7 8.1 45.05 8.2 44.45 8.35 43.9 8.9 43.55 L10.1 43.3 Q10.85 43.4 11.35 44.05" fill="#000000" fill-rule="evenodd" stroke="none"/>
    <path d="M11.5 43.35 Q12.05 43.95 12.0 44.7 11.95 45.35 11.45 45.8 L10.3 46.05 Q9.55 45.9 8.8 45.0 8.25 44.4 8.4 43.8 8.5 43.25 9.05 42.9 9.6 42.55 10.3 42.65 11.0 42.75 11.5 43.35" fill="#535353" fill-rule="evenodd" stroke="none"/>
    <path d="M10.9 43.25 L11.2 44.05 10.85 44.75 10.15 44.9 9.15 44.3 Q8.85 43.9 8.95 43.5 9.0 43.2 9.35 42.95 L10.1 42.8 10.9 43.25" fill="#9c9c9c" fill-rule="evenodd" stroke="none"/>
    <path d="M6.05 33.65 Q6.6 33.3 7.25 33.4 8.0 33.5 8.5 34.1 9.0 34.75 9.0 35.45 8.95 36.15 8.5 36.55 8.0 36.95 7.3 36.85 6.5 36.65 5.8 35.75 5.25 35.15 5.4 34.55 5.5 34.0 6.05 33.65" fill="#000000" fill-rule="evenodd" stroke="none"/>
    <path d="M8.7 33.45 Q9.2 34.05 9.15 34.8 9.15 35.45 8.65 35.9 8.15 36.3 7.5 36.15 6.7 36.0 5.95 35.1 5.45 34.5 5.6 33.9 5.7 33.35 6.25 33.0 6.8 32.65 7.45 32.75 8.2 32.85 8.7 33.45" fill="#535353" fill-rule="evenodd" stroke="none"/>
    <path d="M8.05 33.35 Q8.4 33.7 8.35 34.15 L8.05 34.85 7.3 35.0 Q6.8 34.9 6.35 34.4 6.05 34.0 6.1 33.6 L6.55 33.05 7.3 32.9 Q7.75 32.95 8.05 33.35" fill="#9c9c9c" fill-rule="evenodd" stroke="none"/>
    <path d="M6.1 21.7 Q6.6 22.3 6.55 23.05 6.55 23.7 6.05 24.1 5.55 24.55 4.9 24.4 4.1 24.25 3.35 23.35 2.85 22.75 3.0 22.1 3.1 21.55 3.65 21.2 L4.85 21.0 Q5.6 21.05 6.1 21.7" fill="#000000" fill-rule="evenodd" stroke="none"/>
    <path d="M6.25 21.05 Q6.8 21.65 6.75 22.35 6.7 23.05 6.25 23.45 5.75 23.85 5.05 23.75 L3.55 22.7 Q3.05 22.05 3.15 21.45 3.25 20.9 3.8 20.55 4.35 20.2 5.05 20.3 5.75 20.4 6.25 21.05" fill="#535353" fill-rule="evenodd" stroke="none"/>
    <path d="M5.65 20.9 L5.95 21.75 5.6 22.4 Q5.3 22.7 4.9 22.6 L3.95 21.95 Q3.6 21.6 3.7 21.2 3.75 20.85 4.1 20.6 L4.85 20.45 5.65 20.9" fill="#9c9c9c" fill-rule="evenodd" stroke="none"/>
    <path d="M5.65 10.75 Q6.15 11.35 6.1 12.1 6.1 12.75 5.6 13.15 5.1 13.6 4.45 13.45 3.65 13.3 2.9 12.4 2.4 11.8 2.5 11.2 2.65 10.6 3.2 10.3 L4.4 10.05 Q5.15 10.15 5.65 10.75" fill="#000000" fill-rule="evenodd" stroke="none"/>
    <path d="M5.8 10.05 Q6.35 10.7 6.3 11.4 6.25 12.1 5.8 12.5 5.3 12.9 4.6 12.8 L3.1 11.75 Q2.6 11.15 2.7 10.5 2.8 9.95 3.35 9.6 L4.6 9.4 Q5.3 9.45 5.8 10.05" fill="#535353" fill-rule="evenodd" stroke="none"/>
    <path d="M5.2 9.95 L5.5 10.8 5.15 11.45 Q4.85 11.75 4.45 11.65 L3.45 11.0 Q3.15 10.6 3.25 10.25 3.3 9.9 3.65 9.7 L4.4 9.55 Q4.85 9.6 5.2 9.95" fill="#9c9c9c" fill-rule="evenodd" stroke="none"/>
    <path d="M6.8 4.0 Q7.35 4.6 7.3 5.35 7.25 6.05 6.8 6.45 6.3 6.85 5.6 6.7 4.85 6.55 4.1 5.65 3.6 5.05 3.7 4.45 3.8 3.9 4.4 3.55 L5.6 3.3 Q6.3 3.4 6.8 4.0" fill="#000000" fill-rule="evenodd" stroke="none"/>
    <path d="M7.0 3.35 Q7.55 3.95 7.5 4.7 7.45 5.35 6.95 5.75 6.45 6.2 5.8 6.05 5.0 5.9 4.25 5.0 3.75 4.4 3.9 3.75 4.0 3.2 4.55 2.85 L5.75 2.65 Q6.5 2.7 7.0 3.35" fill="#535353" fill-rule="evenodd" stroke="none"/>
    <path d="M6.35 3.25 L6.65 4.05 6.35 4.75 5.6 4.9 Q5.15 4.8 4.65 4.25 4.35 3.85 4.45 3.5 4.5 3.15 4.85 2.95 L5.6 2.8 Q6.05 2.85 6.35 3.25" fill="#9c9c9c" fill-rule="evenodd" stroke="none"/>
    <path d="M11.7 48.7 L12.05 49.6 11.7 50.3 Q11.35 50.6 10.9 50.5 10.4 50.4 9.9 49.8 9.6 49.4 9.7 49.0 9.75 48.65 10.1 48.4 L10.9 48.25 Q11.4 48.3 11.7 48.7" fill="#000000" fill-rule="evenodd" stroke="none"/>
    <path d="M11.85 48.25 L12.15 49.15 11.8 49.85 11.05 50.05 Q10.55 49.95 10.05 49.35 9.7 49.0 9.8 48.55 9.85 48.2 10.2 48.0 L11.05 47.85 Q11.5 47.9 11.85 48.25" fill="#535353" fill-rule="evenodd" stroke="none"/>
    <path d="M11.4 48.2 L11.6 48.75 11.4 49.2 Q10.9 49.6 10.3 48.9 9.85 48.35 10.45 48.05 11.0 47.7 11.4 48.2" fill="#9c9c9c" fill-rule="evenodd" stroke="none"/>
    <path d="M44.85 46.85 L45.15 47.7 44.8 48.45 44.05 48.65 Q43.55 48.55 43.05 47.95 42.7 47.55 42.8 47.15 L43.25 46.55 44.05 46.4 44.85 46.85" fill="#000000" fill-rule="evenodd" stroke="none"/>
    <path d="M44.95 46.4 Q45.3 46.8 45.25 47.3 L44.95 48.0 44.15 48.2 Q43.65 48.1 43.15 47.5 42.85 47.1 42.9 46.7 43.0 46.35 43.35 46.1 L44.15 45.95 Q44.6 46.0 44.95 46.4" fill="#535353" fill-rule="evenodd" stroke="none"/>
    <path d="M44.55 46.35 L44.75 46.9 44.5 47.35 Q44.05 47.75 43.45 47.0 43.0 46.5 43.55 46.15 44.1 45.8 44.55 46.35" fill="#9c9c9c" fill-rule="evenodd" stroke="none"/>
    <path d="M49.75 50.1 Q50.1 50.5 50.05 51.0 L49.75 51.7 48.95 51.9 Q48.45 51.75 47.95 51.2 47.65 50.8 47.7 50.4 47.8 50.0 48.15 49.8 L48.95 49.65 Q49.4 49.7 49.75 50.1" fill="#000000" fill-rule="evenodd" stroke="none"/>
    <path d="M49.9 49.65 L50.2 50.55 49.85 51.25 49.05 51.45 48.1 50.75 Q47.75 50.35 47.85 49.95 47.9 49.6 48.3 49.35 L49.05 49.2 Q49.55 49.25 49.9 49.65" fill="#535353" fill-rule="evenodd" stroke="none"/>
    <path d="M49.45 49.6 L49.65 50.15 49.45 50.6 Q48.95 51.0 48.35 50.25 47.9 49.75 48.45 49.4 49.05 49.05 49.45 49.6" fill="#9c9c9c" fill-rule="evenodd" stroke="none"/>
    <path d="M56.2 53.45 Q56.55 53.85 56.5 54.35 L56.2 55.05 55.4 55.25 54.4 54.55 Q54.1 54.15 54.15 53.75 L54.6 53.15 55.4 53.0 Q55.9 53.05 56.2 53.45" fill="#000000" fill-rule="evenodd" stroke="none"/>
    <path d="M56.3 53.05 Q56.65 53.4 56.65 53.9 L56.3 54.6 Q56.0 54.9 55.55 54.8 55.0 54.7 54.55 54.1 54.2 53.7 54.3 53.3 54.35 52.95 54.7 52.75 L55.5 52.55 56.3 53.05" fill="#535353" fill-rule="evenodd" stroke="none"/>
    <path d="M55.9 52.95 L56.1 53.5 55.9 53.95 Q55.4 54.35 54.8 53.65 54.35 53.1 54.9 52.8 55.45 52.45 55.9 52.95" fill="#9c9c9c" fill-rule="evenodd" stroke="none"/>
    <path d="M60.4 56.35 Q60.75 56.75 60.7 57.2 L60.4 57.9 59.6 58.1 58.65 57.45 58.35 56.6 58.8 56.05 59.6 55.85 Q60.1 55.95 60.4 56.35" fill="#000000" fill-rule="evenodd" stroke="none"/>
    <path d="M60.1 55.85 L60.3 56.35 60.1 56.8 Q59.6 57.2 59.0 56.5 58.55 56.0 59.1 55.65 59.65 55.3 60.1 55.85" fill="#9c9c9c" fill-rule="evenodd" stroke="none"/>
    <path d="M70.2 54.15 L70.55 55.0 70.2 55.7 69.4 55.9 Q68.9 55.8 68.4 55.25 68.1 54.85 68.2 54.4 68.25 54.05 68.6 53.85 L69.4 53.65 70.2 54.15" fill="#000000" fill-rule="evenodd" stroke="none"/>
    <path d="M70.35 53.7 L70.65 54.6 70.3 55.3 69.55 55.45 68.55 54.8 Q68.2 54.4 68.3 54.0 68.35 53.65 68.7 53.4 L69.5 53.25 Q70.0 53.3 70.35 53.7" fill="#535353" fill-rule="evenodd" stroke="none"/>
    <path d="M69.9 53.65 L70.1 54.2 69.9 54.6 Q69.4 55.05 68.8 54.3 68.35 53.8 68.95 53.45 69.5 53.1 69.9 53.65" fill="#9c9c9c" fill-rule="evenodd" stroke="none"/>
    <path d="M70.9 62.0 Q71.25 62.4 71.2 62.9 71.2 63.35 70.85 63.6 70.55 63.9 70.1 63.8 69.6 63.7 69.15 63.1 68.8 62.7 68.85 62.3 L69.3 61.7 70.1 61.55 70.9 62.0" fill="#000000" fill-rule="evenodd" stroke="none"/>
    <path d="M70.2 61.1 Q70.7 61.2 71.0 61.6 71.35 62.0 71.3 62.45 L71.0 63.15 70.2 63.35 69.25 62.65 Q68.9 62.25 69.0 61.85 69.05 61.5 69.4 61.3 L70.2 61.1" fill="#535353" fill-rule="evenodd" stroke="none"/>
    <path d="M70.6 61.5 L70.8 62.05 70.6 62.5 Q70.1 62.9 69.5 62.2 69.05 61.65 69.6 61.35 70.15 61.0 70.6 61.5" fill="#9c9c9c" fill-rule="evenodd" stroke="none"/>
    <path d="M70.85 70.6 Q71.3 70.7 71.65 71.1 72.0 71.5 71.95 71.95 71.95 72.4 71.6 72.65 L70.85 72.85 69.85 72.15 Q69.55 71.75 69.6 71.35 L70.05 70.8 70.85 70.6" fill="#000000" fill-rule="evenodd" stroke="none"/>
    <path d="M70.95 70.2 Q71.45 70.25 71.75 70.65 72.1 71.05 72.05 71.5 L71.75 72.2 71.0 72.4 70.0 71.7 Q69.65 71.3 69.7 70.95 69.8 70.55 70.15 70.35 L70.95 70.2" fill="#535353" fill-rule="evenodd" stroke="none"/>
    <path d="M70.35 70.4 Q70.9 70.05 71.35 70.55 L71.55 71.1 71.35 71.55 Q70.85 72.0 70.25 71.25 69.8 70.7 70.35 70.4" fill="#9c9c9c" fill-rule="evenodd" stroke="none"/>
    <path d="M71.55 83.8 L70.75 83.95 Q70.25 83.85 69.8 83.3 69.45 82.9 69.55 82.5 69.6 82.1 69.95 81.9 L70.75 81.75 Q71.25 81.8 71.55 82.2 71.9 82.6 71.9 83.05 L71.55 83.8" fill="#000000" fill-rule="evenodd" stroke="none"/>
    <path d="M71.65 83.35 L70.85 83.5 Q70.4 83.4 69.9 82.85 69.55 82.45 69.65 82.05 69.7 81.7 70.05 81.45 L70.85 81.3 Q71.35 81.35 71.7 81.75 L72.0 82.65 71.65 83.35" fill="#535353" fill-rule="evenodd" stroke="none"/>
    <path d="M71.25 82.65 Q70.75 83.05 70.15 82.35 69.7 81.85 70.3 81.5 70.8 81.15 71.25 81.7 L71.45 82.2 71.25 82.65" fill="#9c9c9c" fill-rule="evenodd" stroke="none"/>
    <path d="M71.95 89.65 Q71.45 90.05 70.85 89.35 70.4 88.8 70.95 88.45 71.5 88.15 71.95 88.65 L72.15 89.2 71.95 89.65" fill="#9c9c9c" fill-rule="evenodd" stroke="none"/>
  </g>
  <defs>
    <linearGradient gradientTransform="matrix(-0.0117, 0.005, -0.0019, -0.0314, 66.35, 69.65)" gradientUnits="userSpaceOnUse" id="gradient0" spreadMethod="pad" x1="-819.2" x2="819.2">
      <stop offset="0.0" stop-color="#565656"/>
      <stop offset="0.403921568627451" stop-color="#999999"/>
      <stop offset="0.592156862745098" stop-color="#dbdbdb"/>
      <stop offset="0.7803921568627451" stop-color="#9b9b9b"/>
      <stop offset="1.0" stop-color="#0d0a0f"/>
    </linearGradient>
    <linearGradient gradientTransform="matrix(-0.0025, 0.0301, -0.0284, -0.0026, 24.4, 26.8)" gradientUnits="userSpaceOnUse" id="gradient1" spreadMethod="pad" x1="-819.2" x2="819.2">
      <stop offset="0.0" stop-color="#565656"/>
      <stop offset="0.403921568627451" stop-color="#999999"/>
      <stop offset="0.592156862745098" stop-color="#dbdbdb"/>
      <stop offset="0.7803921568627451" stop-color="#9b9b9b"/>
      <stop offset="1.0" stop-color="#0d0a0f"/>
    </linearGradient>
    <linearGradient gradientTransform="matrix(-0.0099, 0.0231, -0.0153, -0.0149, 56.0, 37.65)" gradientUnits="userSpaceOnUse" id="gradient2" spreadMethod="pad" x1="-819.2" x2="819.2">
      <stop offset="0.0" stop-color="#565656"/>
      <stop offset="0.403921568627451" stop-color="#999999"/>
      <stop offset="0.592156862745098" stop-color="#dbdbdb"/>
      <stop offset="0.7803921568627451" stop-color="#9b9b9b"/>
      <stop offset="1.0" stop-color="#0d0a0f"/>
    </linearGradient>
  </defs>
</svg>
