<?xml version="1.0" encoding="UTF-8" standalone="no"?>
<svg xmlns:xlink="http://www.w3.org/1999/xlink" height="26.7px" width="19.7px" xmlns="http://www.w3.org/2000/svg">
  <g transform="matrix(1.0, 0.0, 0.0, 1.0, 9.85, 26.7)">
    <path d="M-1.0 -26.7 L5.05 -26.7 Q5.75 -26.7 6.35 -26.25 L7.0 -25.1 6.85 -23.75 4.35 -19.05 Q9.85 -16.5 9.85 -10.25 9.85 -5.65 7.15 -2.9 4.45 0.0 -0.2 0.0 -4.5 0.0 -7.15 -2.8 -9.85 -5.5 -9.85 -9.8 -9.9 -12.35 -7.85 -16.1 L-2.75 -25.65 -2.0 -26.4 -1.0 -26.7 M-0.95 -24.65 L-6.05 -15.1 Q-7.8 -11.9 -7.8 -9.75 -7.8 -6.3 -5.7 -4.15 -3.55 -1.95 -0.15 -1.95 3.6 -1.95 5.75 -4.25 7.9 -6.45 7.9 -10.2 7.9 -15.55 2.8 -17.55 L0.0 -12.6 Q2.55 -12.4 2.55 -10.05 2.55 -7.3 -0.1 -7.3 -2.45 -7.3 -2.45 -9.7 -2.45 -10.55 -1.45 -12.3 L5.1 -24.65 -0.95 -24.65" fill="#ffffff" fill-rule="evenodd" stroke="none"/>
    <path d="M-0.95 -24.65 L5.1 -24.65 -1.45 -12.3 Q-2.45 -10.55 -2.45 -9.7 -2.45 -7.3 -0.1 -7.3 2.55 -7.3 2.55 -10.05 2.55 -12.4 0.0 -12.6 L2.8 -17.55 Q7.9 -15.55 7.9 -10.2 7.9 -6.45 5.75 -4.25 3.6 -1.95 -0.15 -1.95 -3.55 -1.95 -5.7 -4.15 -7.8 -6.3 -7.8 -9.75 -7.8 -11.9 -6.05 -15.1 L-0.95 -24.65" fill="#000000" fill-rule="evenodd" stroke="none"/>
  </g>
</svg>
