<?xml version="1.0" encoding="UTF-8" standalone="no"?>
<svg xmlns:xlink="http://www.w3.org/1999/xlink" height="303.9px" width="339.3px" xmlns="http://www.w3.org/2000/svg">
  <g transform="matrix(1.0, 0.0, 0.0, 1.0, 19.25, 33.1)">
    <path d="M294.35 60.5 L294.35 62.8 285.4 72.2 285.4 69.85 294.35 60.5 M297.75 66.3 Q297.65 69.4 294.75 71.65 291.75 73.9 287.55 73.9 L287.5 71.7 Q291.7 71.7 294.75 70.1 297.6 68.5 297.75 66.3 M285.35 72.3 L285.35 72.2 285.4 72.3 285.35 72.3 M305.6 171.75 L311.3 145.2 304.45 54.4 257.25 30.05 195.3 -1.9 186.75 -28.6 124.55 -28.6 107.35 -1.3 7.95 63.6 -3.7 101.8 -12.7 131.4 6.2 244.0 23.9 268.6 84.9 268.6 269.85 268.6 288.95 249.75 305.6 171.75 M198.35 -4.15 L310.45 54.8 320.05 145.6 291.4 252.95 272.45 270.8 17.25 270.8 3.55 246.5 -19.25 130.95 6.1 59.45 21.1 49.45 78.85 10.55 94.9 -0.25 Q109.0 -10.05 117.05 -25.25 118.45 -27.95 120.2 -30.5 L122.05 -33.1 190.7 -32.85 198.35 -4.15 M227.55 29.4 L228.25 30.2 Q233.95 33.1 235.5 27.3 L235.7 26.6 Q236.2 32.4 230.95 33.35 230.2 33.35 229.6 32.8 227.1 30.85 226.9 27.65 L227.55 29.4 M294.85 191.15 Q295.2 193.55 294.05 195.85 293.1 197.95 291.05 198.35 286.25 197.6 286.05 192.2 L286.75 193.95 287.4 194.75 Q292.6 197.55 294.5 192.55 L294.85 191.15 M136.55 -22.9 L136.55 -20.6 127.6 -11.2 127.6 -13.55 136.55 -22.9 M139.95 -17.1 Q139.9 -14.0 136.95 -11.75 133.95 -9.5 129.75 -9.5 L129.7 -11.7 130.15 -11.7 Q134.1 -11.8 136.95 -13.3 139.85 -14.9 139.95 -17.1 M127.55 -11.1 L127.55 -11.2 127.6 -11.1 127.55 -11.1 M8.5 88.8 Q13.65 91.65 15.6 86.6 L15.9 85.2 Q16.4 90.25 11.95 91.85 10.15 92.5 8.95 90.8 7.4 88.8 7.1 86.25 L7.8 88.0 8.5 88.8 M35.15 247.05 L35.15 249.35 26.15 258.75 26.15 256.4 35.15 247.05 M38.5 252.85 Q38.45 255.95 35.5 258.2 32.55 260.45 28.3 260.45 L28.25 258.25 Q32.5 258.25 35.5 256.6 38.4 255.05 38.5 252.85 M26.1 258.8 L26.1 258.75 26.15 258.8 26.1 258.8 M225.55 218.2 Q226.05 223.2 221.6 224.75 219.8 225.4 218.55 223.75 217.05 221.75 216.75 219.25 L217.45 221.0 218.1 221.8 Q223.7 224.65 225.4 218.9 L225.55 218.2" fill="#47525f" fill-rule="evenodd" stroke="none"/>
    <path d="M294.35 60.5 L293.95 60.2 Q289.85 60.2 286.95 61.95 284.05 63.7 284.05 66.2 L285.35 72.2 285.35 72.3 287.55 73.9 Q291.75 73.9 294.75 71.65 297.65 69.4 297.75 66.3 L296.45 62.3 295.25 63.55 294.35 62.8 294.35 60.5 M257.25 30.05 L304.45 54.4 311.3 145.2 305.6 171.75 84.9 268.6 23.9 268.6 6.2 244.0 -12.7 131.4 -3.7 101.8 257.25 30.05 M137.45 -19.85 L138.65 -21.1 Q138.65 -17.2 136.05 -14.45 133.6 -11.85 130.15 -11.7 L129.7 -11.7 137.45 -19.85 M24.8 252.7 L26.1 258.75 26.1 258.8 28.3 260.45 Q32.55 260.45 35.5 258.2 38.45 255.95 38.5 252.85 L37.2 248.85 36.05 250.05 35.15 249.35 35.15 247.05 34.75 246.75 Q30.6 246.75 27.75 248.5 24.8 250.25 24.8 252.7" fill="#bab9ba" fill-rule="evenodd" stroke="none"/>
    <path d="M305.6 171.75 L288.95 249.75 269.85 268.6 84.9 268.6 305.6 171.75 M-3.7 101.8 L7.95 63.6 107.35 -1.3 124.55 -28.6 186.75 -28.6 195.3 -1.9 257.25 30.05 -3.7 101.8 M234.8 24.45 L233.1 23.25 Q230.55 23.3 228.8 24.55 226.9 25.85 226.9 27.65 227.1 30.85 229.6 32.8 230.2 33.35 230.95 33.35 236.2 32.4 235.7 26.6 L234.8 24.45 M293.95 189.0 L292.25 187.8 Q289.75 187.85 288.0 189.1 286.05 190.4 286.05 192.2 286.25 197.6 291.05 198.35 293.1 197.95 294.05 195.85 295.2 193.55 294.85 191.15 L293.95 189.0 M136.15 -23.2 Q132.05 -23.2 129.2 -21.45 126.25 -19.7 126.25 -17.2 L127.55 -11.2 127.55 -11.1 129.75 -9.5 Q133.95 -9.5 136.95 -11.75 139.9 -14.0 139.95 -17.1 L138.65 -21.1 137.45 -19.85 136.55 -20.6 136.55 -22.9 136.15 -23.2 M15.9 85.2 L15.0 83.05 13.3 81.85 Q10.8 81.9 9.05 83.15 7.1 84.45 7.1 86.25 7.4 88.8 8.95 90.8 10.15 92.5 11.95 91.85 16.4 90.25 15.9 85.2 M224.65 216.05 L222.95 214.85 Q220.4 214.9 218.65 216.15 216.75 217.45 216.75 219.25 217.05 221.75 218.55 223.75 219.8 225.4 221.6 224.75 226.05 223.2 225.55 218.2 L224.65 216.05" fill="#9c9c9c" fill-rule="evenodd" stroke="none"/>
    <path d="M294.35 62.8 L295.25 63.55 287.5 71.7 287.55 73.9 285.35 72.3 285.4 72.3 285.4 72.2 294.35 62.8 M136.55 -20.6 L137.45 -19.85 129.7 -11.7 129.75 -9.5 127.55 -11.1 127.6 -11.1 127.6 -11.2 136.55 -20.6 M35.15 249.35 L36.05 250.05 28.25 258.25 28.3 260.45 26.1 258.8 26.15 258.8 26.15 258.75 35.15 249.35" fill="#57565b" fill-rule="evenodd" stroke="none"/>
    <path d="M285.35 72.2 L284.05 66.2 285.0 69.3 285.4 69.85 285.4 72.2 285.4 72.3 285.35 72.2 M127.55 -11.2 L126.25 -17.2 127.2 -14.1 127.6 -13.55 127.6 -11.2 127.6 -11.1 127.55 -11.2 M26.1 258.75 L24.8 252.7 25.8 255.8 26.15 256.4 26.15 258.75 26.15 258.8 26.1 258.75" fill="#79818b" fill-rule="evenodd" stroke="none"/>
    <path d="M293.95 60.2 L294.35 60.5 285.4 69.85 285.0 69.3 293.95 60.2 M233.1 23.25 L234.8 24.45 Q234.8 26.8 232.85 28.5 230.95 30.2 228.25 30.2 L227.55 29.4 Q227.55 26.85 229.25 25.05 230.85 23.35 233.1 23.25 M292.25 187.8 L293.95 189.0 Q293.95 191.35 292.05 193.05 290.1 194.75 287.4 194.75 L286.75 193.95 Q286.75 191.4 288.45 189.6 290.0 187.9 292.25 187.8 M136.15 -23.2 L136.55 -22.9 127.6 -13.55 127.2 -14.1 136.15 -23.2 M15.0 83.05 Q15.0 85.4 13.1 87.1 11.2 88.8 8.5 88.8 L7.8 88.0 Q7.8 85.45 9.5 83.65 11.05 81.95 13.3 81.85 L15.0 83.05 M34.75 246.75 L35.15 247.05 26.15 256.4 25.8 255.8 34.75 246.75 M222.95 214.85 L224.65 216.05 Q224.65 218.4 222.75 220.1 220.8 221.8 218.1 221.8 L217.45 221.0 Q217.45 218.45 219.1 216.65 220.7 214.95 222.95 214.85" fill="#d0cfd0" fill-rule="evenodd" stroke="none"/>
    <path d="M284.05 66.2 Q284.05 63.7 286.95 61.95 289.85 60.2 293.95 60.2 L285.0 69.3 284.05 66.2 M233.1 23.25 Q230.85 23.35 229.25 25.05 227.55 26.85 227.55 29.4 L226.9 27.65 Q226.9 25.85 228.8 24.55 230.55 23.3 233.1 23.25 M286.05 192.2 Q286.05 190.4 288.0 189.1 289.75 187.85 292.25 187.8 290.0 187.9 288.45 189.6 286.75 191.4 286.75 193.95 L286.05 192.2 M126.25 -17.2 Q126.25 -19.7 129.2 -21.45 132.05 -23.2 136.15 -23.2 L127.2 -14.1 126.25 -17.2 M7.8 88.0 L7.1 86.25 Q7.1 84.45 9.05 83.15 10.8 81.9 13.3 81.85 11.05 81.95 9.5 83.65 7.8 85.45 7.8 88.0 M24.8 252.7 Q24.8 250.25 27.75 248.5 30.6 246.75 34.75 246.75 L25.8 255.8 24.8 252.7 M216.75 219.25 Q216.75 217.45 218.65 216.15 220.4 214.9 222.95 214.85 220.7 214.95 219.1 216.65 217.45 218.45 217.45 221.0 L216.75 219.25" fill="#e9e9eb" fill-rule="evenodd" stroke="none"/>
    <path d="M295.25 63.55 L296.45 62.3 297.75 66.3 Q297.6 68.5 294.75 70.1 291.7 71.7 287.5 71.7 L295.25 63.55 M228.25 30.2 Q230.95 30.2 232.85 28.5 234.8 26.8 234.8 24.45 L235.7 26.6 235.5 27.3 Q233.95 33.1 228.25 30.2 M293.95 189.0 L294.85 191.15 294.5 192.55 Q292.6 197.55 287.4 194.75 290.1 194.75 292.05 193.05 293.95 191.35 293.95 189.0 M138.65 -21.1 L139.95 -17.1 Q139.85 -14.9 136.95 -13.3 134.1 -11.8 130.15 -11.7 133.6 -11.85 136.05 -14.45 138.65 -17.2 138.65 -21.1 M15.9 85.2 L15.6 86.6 Q13.65 91.65 8.5 88.8 11.2 88.8 13.1 87.1 15.0 85.4 15.0 83.05 L15.9 85.2 M36.05 250.05 L37.2 248.85 38.5 252.85 Q38.4 255.05 35.5 256.6 32.5 258.25 28.25 258.25 L36.05 250.05 M224.65 216.05 L225.55 218.2 225.4 218.9 Q223.7 224.65 218.1 221.8 220.8 221.8 222.75 220.1 224.65 218.4 224.65 216.05" fill="#b0aeb3" fill-rule="evenodd" stroke="none"/>
  </g>
</svg>
