<?xml version="1.0" encoding="UTF-8" standalone="no"?>
<svg xmlns:xlink="http://www.w3.org/1999/xlink" height="262.85px" width="259.0px" xmlns="http://www.w3.org/2000/svg">
  <g transform="matrix(1.0, 0.0, 0.0, 1.0, 0.0, 0.0)">
    <path d="M252.8 80.7 L253.4 81.35 259.0 153.6 244.95 233.7 245.25 234.15 Q245.95 235.3 245.5 236.35 L220.05 260.15 Q216.65 257.9 210.65 253.25 L197.0 242.9 200.35 237.45 198.2 227.8 199.9 226.2 197.5 211.65 Q194.9 196.0 190.45 180.75 L182.0 191.6 191.3 261.15 190.85 262.55 189.8 262.85 74.4 262.85 73.6 262.65 72.9 261.2 79.4 195.85 63.1 175.95 56.75 209.25 56.4 209.9 Q57.6 215.75 57.85 221.8 58.2 229.75 56.4 237.4 L59.9 243.85 36.7 260.1 36.0 259.75 11.2 236.85 5.15 201.6 0.0 144.6 10.75 85.9 11.5 84.75 65.35 52.2 65.5 51.85 75.9 44.8 Q83.25 39.3 91.65 35.85 94.1 34.8 96.8 34.25 105.45 32.85 114.25 32.8 L109.85 26.35 121.05 1.3 144.95 0.0 145.25 0.15 145.95 1.3 155.75 26.75 151.65 32.0 173.85 34.05 228.95 66.2 241.35 73.5 252.8 80.7 M172.35 36.2 L169.2 36.05 168.7 37.2 136.25 45.65 150.65 55.9 170.3 46.95 174.75 38.0 172.35 36.2 M206.5 160.2 L192.8 177.45 Q197.45 193.75 200.4 210.8 L202.65 224.1 216.4 213.7 233.5 217.25 234.35 217.75 242.55 230.0 256.05 153.1 250.8 86.2 206.5 160.2 M176.55 81.4 L179.95 84.6 183.25 87.9 183.65 88.55 Q183.95 89.2 183.6 89.8 L131.8 133.75 133.8 259.85 188.1 259.85 179.0 191.35 179.1 190.8 179.4 190.3 Q184.8 183.6 190.0 176.5 L190.6 175.75 204.0 158.55 249.85 81.95 228.2 69.0 227.45 68.8 199.2 52.2 194.5 77.3 176.55 81.4 M162.85 68.2 L162.7 68.95 133.25 128.55 180.05 88.85 171.9 80.65 172.2 79.6 192.2 75.05 196.45 50.25 177.3 39.6 162.85 68.2 M150.35 20.35 L140.95 16.3 Q138.1 17.85 134.75 18.05 131.0 18.4 127.4 16.85 L127.25 17.4 113.5 26.95 115.45 30.0 Q124.0 20.8 136.35 20.05 144.3 19.45 152.55 24.2 L150.35 20.35 M143.65 3.1 Q133.4 7.05 122.85 3.9 L113.2 25.65 125.85 16.0 126.75 13.2 127.85 13.3 128.0 14.9 Q131.6 16.4 135.55 15.9 138.45 15.6 140.95 14.2 L150.65 19.2 144.4 5.0 140.1 7.45 143.35 7.6 144.1 9.55 143.6 10.25 136.85 9.9 135.5 9.2 135.15 8.1 143.75 3.65 143.65 3.1 M131.9 10.0 Q130.3 11.6 128.0 11.85 L123.2 11.3 122.4 10.95 123.15 9.45 122.05 8.7 122.4 7.6 Q127.1 7.6 131.8 8.85 L131.9 10.0 M141.65 30.65 L142.25 31.95 Q133.55 37.1 123.75 33.85 L123.4 33.15 123.7 32.25 Q132.95 33.95 141.65 30.65 M147.4 33.35 L152.45 26.65 Q146.3 21.8 136.4 21.95 126.45 22.1 116.45 30.4 L119.1 34.5 104.6 36.15 Q118.6 40.45 132.95 43.4 L163.1 35.8 147.55 33.8 147.4 33.35 M85.3 91.6 Q85.2 91.05 85.4 90.65 88.55 84.85 91.85 79.1 L73.9 78.25 73.65 77.85 Q71.45 73.0 70.4 67.95 L66.4 55.45 14.2 86.65 41.55 145.05 82.45 195.55 76.1 259.85 130.8 259.85 128.15 133.6 85.3 91.6 M95.85 77.5 L95.6 78.45 88.4 90.5 129.35 130.6 130.7 126.8 93.05 36.85 68.7 52.7 75.55 75.3 95.05 76.35 Q95.8 76.7 95.85 77.5 M120.05 55.9 L128.15 45.35 96.85 38.15 101.8 50.45 120.05 55.9 M150.0 59.05 L142.55 53.8 139.55 62.1 150.85 86.0 168.15 51.25 150.0 59.05 M121.05 59.05 L103.3 54.0 116.8 86.1 127.0 61.75 124.45 55.05 121.5 58.9 121.05 59.05 M136.95 63.65 L129.6 63.3 118.45 89.95 132.4 123.15 148.9 88.9 136.95 63.65 M140.0 52.05 L131.6 46.1 126.6 52.25 129.65 60.3 136.9 60.65 140.0 52.05 M3.3 143.3 L2.95 144.0 8.15 201.35 8.05 202.0 13.15 231.7 22.25 217.65 22.65 217.4 Q31.3 215.45 40.05 214.05 L41.1 214.25 55.3 225.0 54.0 211.2 54.05 210.65 54.3 210.1 53.8 208.7 60.65 172.75 60.1 172.3 39.15 146.8 12.9 90.9 3.3 143.3 M219.65 231.35 Q220.65 229.9 221.25 231.55 222.7 235.5 223.3 239.75 L223.25 240.85 Q221.5 242.35 220.7 240.2 L220.25 238.55 210.15 243.25 209.55 243.25 202.45 239.65 200.25 242.9 219.6 256.75 241.35 236.9 242.55 235.5 232.35 219.8 216.8 216.8 201.3 228.9 203.25 236.7 209.9 240.2 219.7 235.5 Q218.45 233.2 219.65 231.35 M56.45 242.9 L54.3 239.6 Q50.7 241.4 47.15 241.4 41.7 241.35 36.45 238.55 36.7 240.15 35.25 240.9 L34.4 241.35 33.45 240.85 Q33.35 240.6 33.4 240.35 33.9 235.75 34.85 231.3 L36.05 230.6 37.3 231.2 37.0 235.5 46.8 240.2 53.45 236.65 55.45 228.9 39.95 216.8 24.4 219.8 14.25 235.55 37.15 256.75 56.45 242.9" fill="#1a1a1a" fill-rule="evenodd" stroke="none"/>
    <path d="M172.35 36.2 L174.75 38.0 170.3 46.95 150.65 55.9 136.25 45.65 168.7 37.2 169.2 36.05 172.35 36.2 M120.05 55.9 L101.8 50.45 96.85 38.15 128.15 45.35 120.05 55.9 M121.05 59.05 L121.5 58.9 124.45 55.05 127.0 61.75 116.8 86.1 103.3 54.0 121.05 59.05 M150.0 59.05 L168.15 51.25 150.85 86.0 139.55 62.1 142.55 53.8 150.0 59.05" fill="#d1b8a2" fill-rule="evenodd" stroke="none"/>
    <path d="M162.85 68.2 L177.3 39.6 196.45 50.25 192.2 75.05 172.2 79.6 171.9 80.65 180.05 88.85 133.25 128.55 162.7 68.95 162.85 68.2 M176.55 81.4 L194.5 77.3 199.2 52.2 227.45 68.8 228.2 69.0 249.85 81.95 204.0 158.55 190.6 175.75 190.0 176.5 Q184.8 183.6 179.4 190.3 L179.1 190.8 179.0 191.35 188.1 259.85 133.8 259.85 131.8 133.75 183.6 89.8 Q183.95 89.2 183.65 88.55 L183.25 87.9 179.95 84.6 176.55 81.4 M206.5 160.2 L250.8 86.2 256.05 153.1 242.55 230.0 234.35 217.75 233.5 217.25 216.4 213.7 202.65 224.1 200.4 210.8 Q197.45 193.75 192.8 177.45 L206.5 160.2 M95.85 77.5 Q95.8 76.7 95.05 76.35 L75.55 75.3 68.7 52.7 93.05 36.85 130.7 126.8 129.35 130.6 88.4 90.5 95.6 78.45 95.85 77.5 M85.3 91.6 L128.15 133.6 130.8 259.85 76.1 259.85 82.45 195.55 41.55 145.05 14.2 86.65 66.4 55.45 70.4 67.95 Q71.45 73.0 73.65 77.85 L73.9 78.25 91.85 79.1 Q88.55 84.85 85.4 90.65 85.2 91.05 85.3 91.6 M3.3 143.3 L12.9 90.9 39.15 146.8 60.1 172.3 60.65 172.75 53.8 208.7 54.3 210.1 54.05 210.65 54.0 211.2 55.3 225.0 41.1 214.25 40.05 214.05 Q31.3 215.45 22.65 217.4 L22.25 217.65 13.15 231.7 8.05 202.0 8.15 201.35 2.95 144.0 3.3 143.3" fill="#591f0b" fill-rule="evenodd" stroke="none"/>
    <path d="M147.4 33.35 L147.55 33.8 163.1 35.8 132.95 43.4 Q118.6 40.45 104.6 36.15 L119.1 34.5 116.45 30.4 Q126.45 22.1 136.4 21.95 146.3 21.8 152.45 26.65 L147.4 33.35 M141.65 30.65 Q132.95 33.95 123.7 32.25 L123.4 33.15 123.75 33.85 Q133.55 37.1 142.25 31.95 L141.65 30.65 M131.9 10.0 L131.8 8.85 Q127.1 7.6 122.4 7.6 L122.05 8.7 123.15 9.45 122.4 10.95 123.2 11.3 128.0 11.85 Q130.3 11.6 131.9 10.0 M143.65 3.1 L143.75 3.65 135.15 8.1 135.5 9.2 136.85 9.9 143.6 10.25 144.1 9.55 143.35 7.6 140.1 7.45 144.4 5.0 150.65 19.2 140.95 14.2 Q138.45 15.6 135.55 15.9 131.6 16.4 128.0 14.9 L127.85 13.3 126.75 13.2 125.85 16.0 113.2 25.65 122.85 3.9 Q133.4 7.05 143.65 3.1 M150.35 20.35 L152.55 24.2 Q144.3 19.45 136.35 20.05 124.0 20.8 115.45 30.0 L113.5 26.95 127.25 17.4 127.4 16.85 Q131.0 18.4 134.75 18.05 138.1 17.85 140.95 16.3 L150.35 20.35 M56.45 242.9 L37.15 256.75 14.25 235.55 24.4 219.8 39.95 216.8 55.45 228.9 53.45 236.65 46.8 240.2 37.0 235.5 37.3 231.2 36.05 230.6 34.85 231.3 Q33.9 235.75 33.4 240.35 33.35 240.6 33.45 240.85 L34.4 241.35 35.25 240.9 Q36.7 240.15 36.45 238.55 41.7 241.35 47.15 241.4 50.7 241.4 54.3 239.6 L56.45 242.9 M219.65 231.35 Q218.45 233.2 219.7 235.5 L209.9 240.2 203.25 236.7 201.3 228.9 216.8 216.8 232.35 219.8 242.55 235.5 241.35 236.9 219.6 256.75 200.25 242.9 202.45 239.65 209.55 243.25 210.15 243.25 220.25 238.55 220.7 240.2 Q221.5 242.35 223.25 240.85 L223.3 239.75 Q222.7 235.5 221.25 231.55 220.65 229.9 219.65 231.35" fill="#e6c6b0" fill-rule="evenodd" stroke="none"/>
    <path d="M136.95 63.65 L148.9 88.9 132.4 123.15 118.45 89.95 129.6 63.3 136.95 63.65 M140.0 52.05 L136.9 60.65 129.65 60.3 126.6 52.25 131.6 46.1 140.0 52.05" fill="#331c1a" fill-rule="evenodd" stroke="none"/>
  </g>
</svg>
