<?xml version="1.0" encoding="UTF-8" standalone="no"?>
<svg xmlns:xlink="http://www.w3.org/1999/xlink" height="241.1px" width="114.0px" xmlns="http://www.w3.org/2000/svg">
  <g transform="matrix(1.0, 0.0, 0.0, 1.0, 9.6, 20.25)">
    <path d="M50.85 136.5 Q48.5 135.7 47.8 134.7 45.7 136.6 38.25 138.25 L36.6 151.9 Q35.0 166.3 34.8 173.35 35.2 175.3 39.7 183.55 48.1 199.0 49.5 205.9 50.15 201.4 53.0 194.7 L58.35 183.15 Q62.45 174.65 62.8 172.75 62.25 165.65 60.0 151.4 L57.8 138.0 Q53.75 137.55 50.85 136.5 M49.1 41.6 L49.15 45.55 49.7 45.55 Q59.3 47.6 67.4 56.0 73.1 61.95 75.6 67.7 L76.05 68.85 70.85 70.95 Q75.0 83.7 77.55 103.05 L79.3 102.95 Q81.95 103.15 82.4 105.2 L82.4 105.75 100.9 104.35 Q103.35 103.95 104.2 106.4 104.65 107.8 104.2 109.3 103.7 110.9 102.3 111.65 98.9 113.55 93.9 113.45 L94.15 114.65 94.1 115.45 Q93.65 118.35 91.45 118.45 L90.05 118.3 82.4 118.75 Q77.05 120.0 74.2 117.45 75.65 128.75 75.6 133.55 L75.6 134.1 75.15 134.45 Q72.45 136.8 67.9 137.8 L71.45 165.95 Q73.3 179.25 72.75 191.75 72.1 205.9 68.55 213.15 66.5 217.3 62.95 219.2 59.5 221.2 55.95 220.15 51.0 218.8 49.65 212.95 48.55 218.85 43.7 220.45 40.15 221.55 36.55 219.8 32.9 218.0 30.75 213.95 26.85 206.9 25.65 192.7 24.55 180.25 25.85 166.85 L28.45 139.35 Q21.75 139.0 19.6 134.7 L19.4 134.45 19.4 134.1 20.85 118.75 Q18.1 121.2 12.95 120.25 8.95 119.4 5.2 120.1 L3.85 120.3 Q1.6 120.35 1.0 117.4 L0.95 116.65 1.15 115.45 Q-3.75 115.8 -7.3 114.0 -8.7 113.25 -9.3 111.7 -9.8 110.25 -9.4 108.8 -8.6 106.35 -6.15 106.6 L12.35 107.2 12.35 106.7 Q12.6 104.6 15.3 104.3 L17.05 104.3 Q18.75 85.2 22.45 72.0 L17.1 70.05 17.55 68.9 Q19.6 63.5 25.1 57.1 33.1 47.75 42.55 45.7 L42.65 45.7 43.0 45.65 42.9 41.7 49.1 41.6" fill="#221815" fill-rule="evenodd" stroke="none"/>
    <path d="M31.4 60.45 Q31.1 60.45 30.45 61.55 29.4 63.5 26.45 72.15 L18.7 69.35 Q20.65 64.05 25.45 58.15 33.15 48.9 42.8 46.85 45.1 48.6 49.45 46.75 59.25 48.8 67.15 57.5 72.4 63.2 74.45 68.15 L66.8 71.25 Q63.55 62.85 62.3 60.85 61.65 59.8 61.35 59.8 61.05 59.8 61.5 61.15 L65.05 70.0 Q67.75 77.7 68.55 86.65 L25.35 87.55 Q25.7 78.6 28.1 70.8 L31.35 61.85 Q31.7 60.4 31.4 60.45" fill="#ffbd20" fill-rule="evenodd" stroke="none"/>
    <path d="M26.05 73.05 Q24.2 81.35 23.8 89.15 L24.4 89.15 22.1 106.15 18.2 104.8 Q19.9 85.6 23.6 72.35 L26.05 73.05" fill="#488fc1" fill-rule="evenodd" stroke="none"/>
    <path d="M19.35 106.3 Q21.45 107.25 21.75 108.2 22.4 110.4 21.1 110.4 L14.4 108.1 Q13.4 107.75 13.55 106.75 13.8 105.75 15.45 105.5 17.2 105.25 19.35 106.3" fill="#ffffff" fill-rule="evenodd" stroke="none"/>
    <path d="M21.5 111.45 Q22.4 115.95 19.9 118.0 17.6 119.85 13.15 119.05 L6.85 118.65 3.8 119.1 Q2.6 119.1 2.2 117.1 1.85 115.05 3.65 114.4 7.45 112.95 11.05 114.7 L11.75 114.65 Q12.15 114.4 11.65 114.1 9.6 112.85 6.95 112.7 3.95 112.6 1.6 114.2 -3.45 114.6 -6.8 112.9 -8.55 112.05 -8.35 109.85 -8.2 107.6 -6.25 107.8 L4.45 108.2 12.15 108.4 Q14.35 108.8 21.5 111.45" fill="#ffffff" fill-rule="evenodd" stroke="none"/>
    <path d="M67.65 88.0 Q70.1 97.65 72.35 112.8 74.4 127.2 74.4 133.5 69.35 137.95 58.75 136.95 L51.75 135.55 Q48.8 134.6 48.65 133.8 48.3 131.85 48.25 114.1 L50.3 113.75 51.65 113.25 Q51.95 112.9 51.15 113.1 L47.8 113.3 43.5 113.1 Q42.5 112.85 42.55 113.1 L43.3 113.6 Q45.05 114.35 46.9 114.4 47.4 132.3 47.2 133.65 47.15 134.15 43.6 135.5 39.75 136.9 35.55 137.65 23.5 139.7 20.6 134.15 20.95 125.6 25.75 88.95 L67.65 88.0" fill="#592d85" fill-rule="evenodd" stroke="none"/>
    <path d="M27.05 167.0 L29.7 139.5 Q33.45 139.8 37.0 138.55 33.95 162.05 33.6 173.45 33.95 175.2 36.15 179.55 L40.9 188.35 Q47.7 201.1 48.5 207.4 49.15 212.45 47.4 215.7 45.9 218.65 42.9 219.45 39.95 220.15 36.95 218.65 33.75 217.0 31.8 213.35 28.0 206.45 26.85 192.35 25.85 180.0 27.05 167.0" fill="#488fc1" fill-rule="evenodd" stroke="none"/>
    <path d="M67.25 72.15 L69.65 71.3 Q73.95 84.5 76.45 103.55 L72.6 105.15 69.65 88.15 70.25 88.15 Q69.45 80.35 67.25 72.15" fill="#488fc1" fill-rule="evenodd" stroke="none"/>
    <path d="M75.35 105.1 Q77.5 104.0 79.2 104.15 80.85 104.3 81.1 105.35 81.4 106.25 80.4 106.7 L73.8 109.3 Q72.45 109.3 73.05 107.15 73.3 106.15 75.35 105.1" fill="#ffffff" fill-rule="evenodd" stroke="none"/>
    <path d="M75.3 116.85 Q72.75 114.95 73.4 110.4 80.45 107.45 82.7 106.9 L101.05 105.55 Q102.95 105.25 103.15 107.45 103.45 109.65 101.7 110.6 98.5 112.4 93.45 112.25 91.05 110.8 88.0 111.0 85.4 111.2 83.35 112.6 82.9 112.9 83.3 113.15 83.6 113.4 84.0 113.15 85.4 112.4 87.4 112.2 L91.4 112.5 Q93.2 113.15 92.9 115.2 92.65 117.25 91.45 117.25 L88.3 116.95 82.05 117.6 Q77.7 118.6 75.3 116.85" fill="#ffffff" fill-rule="evenodd" stroke="none"/>
    <path d="M70.3 166.1 Q72.05 179.05 71.5 191.45 70.95 205.55 67.4 212.65 65.6 216.3 62.55 218.1 59.6 219.75 56.65 219.15 53.6 218.5 51.9 215.6 50.05 212.4 50.55 207.35 51.05 201.0 57.25 188.0 L61.65 179.0 Q63.75 174.55 64.05 172.85 63.15 161.45 59.05 138.1 L66.7 137.7 70.3 166.1" fill="#488fc1" fill-rule="evenodd" stroke="none"/>
    <path d="M66.95 76.25 Q67.85 80.2 68.25 83.8 L25.6 84.7 Q25.75 81.15 26.55 77.15 L66.95 76.25" fill="#e31e00" fill-rule="evenodd" stroke="none"/>
    <path d="M27.55 68.9 L19.8 66.95 22.25 62.9 28.9 65.3 27.55 68.9" fill="#e31e00" fill-rule="evenodd" stroke="none"/>
    <path d="M65.6 68.2 L64.15 64.7 70.8 61.95 73.3 65.85 65.6 68.2" fill="#e31e00" fill-rule="evenodd" stroke="none"/>
    <path d="M46.1 46.6 Q44.6 46.7 44.1 45.9 L44.05 42.4 48.0 42.3 48.05 45.8 Q47.5 46.55 46.1 46.6" fill="#0068b6" fill-rule="evenodd" stroke="none"/>
    <path d="M67.05 -2.25 Q67.1 -4.4 69.45 -5.3 74.6 -7.35 77.5 -6.7 80.2 -6.0 81.45 -2.9 82.5 -0.3 83.0 5.1 L83.9 16.35 Q84.35 21.65 85.45 23.6 87.2 26.85 93.05 30.3 96.1 32.1 95.65 34.05 95.3 35.85 92.55 36.65 89.65 37.5 86.35 36.55 82.5 35.4 79.8 32.1 76.55 28.1 76.0 19.7 75.7 14.1 76.6 2.7 76.9 -1.2 75.15 -1.65 L73.0 -1.5 70.05 -0.85 Q67.0 -0.05 67.05 -2.25" fill="#000823" fill-rule="evenodd" stroke="none"/>
    <path d="M86.45 26.85 Q89.1 29.3 93.05 31.3 94.35 31.95 94.35 33.3 94.4 34.75 92.15 34.85 85.45 35.2 81.3 29.5 76.3 22.45 77.85 8.75 78.05 6.95 78.75 7.3 79.5 7.7 79.2 9.8 78.75 12.45 79.45 17.4 80.25 23.8 82.45 25.15 83.7 25.95 84.85 26.15 85.8 26.25 86.45 26.85" fill="#032853" fill-rule="evenodd" stroke="none"/>
    <path d="M71.45 -3.95 Q71.15 -4.65 73.0 -5.25 77.45 -6.55 79.65 -4.1 81.3 -2.25 81.1 0.25 80.95 1.9 80.45 1.85 79.9 1.85 79.65 -0.35 79.45 -2.55 77.55 -3.55 75.9 -4.45 73.7 -3.85 L71.45 -3.95" fill="#032853" fill-rule="evenodd" stroke="none"/>
    <path d="M-0.75 38.65 Q-3.5 37.95 -3.95 36.15 -4.45 34.25 -1.45 32.25 4.2 28.6 5.8 25.3 6.8 23.25 7.0 17.95 L7.45 6.7 Q7.75 1.25 8.65 -1.35 9.8 -4.5 12.45 -5.3 15.3 -6.1 20.6 -4.25 22.95 -3.45 23.05 -1.35 23.25 0.85 20.1 0.25 L15.0 -0.35 Q13.25 0.1 13.75 4.0 15.2 15.5 15.05 21.0 14.9 29.4 11.85 33.45 9.25 36.95 5.45 38.25 L-0.75 38.65" fill="#000823" fill-rule="evenodd" stroke="none"/>
    <path d="M-1.45 33.3 Q2.35 31.25 4.9 28.6 5.6 27.95 6.55 27.75 7.7 27.55 8.95 26.65 11.0 25.25 11.55 18.85 11.95 13.85 11.45 11.25 11.1 9.15 11.75 8.7 12.5 8.35 12.8 10.15 14.9 23.8 10.2 31.0 6.3 36.9 -0.45 36.75 -2.6 36.75 -2.65 35.35 -2.7 34.0 -1.45 33.3" fill="#032853" fill-rule="evenodd" stroke="none"/>
    <path d="M18.7 -2.9 Q18.4 -2.25 16.35 -2.65 14.15 -3.15 12.5 -2.1 10.75 -1.1 10.55 1.15 10.4 3.3 9.9 3.35 9.35 3.4 9.15 1.75 8.85 -0.75 10.4 -2.6 12.5 -5.15 17.05 -4.05 18.9 -3.55 18.7 -2.9" fill="#032853" fill-rule="evenodd" stroke="none"/>
    <path d="M66.35 -10.65 Q69.05 -8.55 70.2 -4.8 72.35 2.1 69.65 19.0 72.1 19.2 73.85 21.0 75.5 22.75 75.85 25.35 76.5 31.55 69.15 36.4 65.15 42.65 46.0 43.0 26.9 43.5 22.65 37.35 15.05 32.85 15.5 26.6 15.7 24.05 17.3 22.25 19.0 20.35 21.45 20.05 17.95 3.25 19.9 -3.75 20.85 -7.5 23.45 -9.75 25.95 -11.9 30.35 -13.05 30.9 -16.35 35.25 -18.35 39.15 -20.15 44.7 -20.25 50.15 -20.3 54.2 -18.75 58.65 -16.95 59.3 -13.7 63.75 -12.75 66.35 -10.65" fill="#000823" fill-rule="evenodd" stroke="none"/>
    <path d="M58.2 -13.1 Q66.25 -11.55 68.75 -4.45 71.3 2.95 68.75 19.0 64.4 19.15 61.35 21.8 L54.8 20.4 45.55 19.8 36.3 20.8 29.8 22.45 Q26.65 20.0 22.3 19.95 19.05 4.1 21.3 -3.45 23.5 -10.65 31.5 -12.5 L33.2 -13.15 31.65 -13.4 Q33.15 -18.75 44.7 -19.0 56.3 -19.25 58.05 -13.95 L56.4 -13.65 58.2 -13.1" fill="#488fc1" fill-rule="evenodd" stroke="none"/>
    <path d="M50.85 7.6 Q52.1 0.4 56.7 0.45 62.0 0.55 62.1 8.7 62.25 15.5 59.6 21.15 L51.05 19.7 Q49.8 13.25 50.85 7.6" fill="#ffffff" fill-rule="evenodd" stroke="none"/>
    <path d="M58.4 2.5 Q56.2 1.8 51.95 3.3 53.05 1.5 54.65 0.75 L57.75 0.45 Q61.35 1.4 62.2 6.2 60.45 3.2 58.4 2.5" fill="#0b4f7d" fill-rule="evenodd" stroke="none"/>
    <path d="M51.05 5.1 Q51.0 4.5 51.95 3.3 52.65 2.45 54.05 1.9 L57.25 1.55 Q61.35 2.15 62.3 7.55 61.05 3.85 58.0 2.95 54.8 1.9 51.8 4.9 51.05 5.7 51.05 5.1" fill="#000823" fill-rule="evenodd" stroke="none"/>
    <path d="M17.95 31.7 Q16.35 28.85 16.95 25.65 17.8 21.2 22.25 20.85 26.35 20.5 29.4 23.6 37.35 21.0 45.55 20.85 53.7 20.65 61.9 22.9 64.7 19.65 68.85 19.8 73.35 20.0 74.3 24.45 75.05 27.65 73.6 30.5 72.35 32.9 70.0 34.6 70.95 33.05 70.9 31.2 70.8 28.95 69.05 27.4 70.2 27.4 70.35 26.95 70.55 26.55 68.35 26.55 66.4 26.6 66.8 26.9 L67.45 27.25 68.25 27.85 Q69.2 28.95 69.35 30.9 69.5 33.35 67.85 35.45 63.15 41.4 46.0 41.8 28.55 42.2 23.65 36.95 21.9 35.05 22.0 32.55 22.05 30.65 23.2 28.8 L24.5 27.75 23.0 27.5 Q20.85 27.55 21.0 28.0 21.2 28.4 22.35 28.35 20.7 30.0 20.65 32.25 20.65 34.1 21.75 35.55 19.35 34.05 17.95 31.7" fill="#f9de65" fill-rule="evenodd" stroke="none"/>
    <path d="M51.65 17.35 Q50.75 15.3 50.9 12.25 51.0 9.0 52.35 7.45 54.45 4.9 56.5 6.8 58.6 8.65 58.35 12.95 L53.75 14.05 58.1 15.1 57.3 17.8 Q56.6 19.9 54.55 19.7 52.55 19.5 51.65 17.35" fill="#000823" fill-rule="evenodd" stroke="none"/>
    <path d="M39.7 7.8 Q41.05 13.5 40.0 19.95 L31.55 21.75 Q28.7 16.15 28.45 9.45 28.25 1.25 33.5 0.95 38.15 0.7 39.7 7.8" fill="#ffffff" fill-rule="evenodd" stroke="none"/>
    <path d="M39.9 13.35 L35.4 14.6 39.75 15.45 39.1 18.15 Q38.45 20.35 36.4 20.25 34.4 20.2 33.4 18.0 32.5 16.0 32.45 12.95 32.45 9.75 33.65 8.1 35.65 5.45 37.8 7.2 39.95 9.0 39.9 13.35" fill="#000823" fill-rule="evenodd" stroke="none"/>
    <path d="M34.6 -8.7 Q35.55 -7.6 35.4 -5.85 34.5 -9.15 32.3 -8.85 30.1 -8.55 29.85 -5.15 29.55 -7.45 30.4 -8.7 31.1 -9.8 32.45 -9.8 33.7 -9.75 34.6 -8.7" fill="#000823" fill-rule="evenodd" stroke="none"/>
    <path d="M59.5 -9.3 Q60.4 -8.1 60.15 -5.8 59.7 -9.2 57.5 -9.4 55.35 -9.6 54.55 -6.25 54.3 -8.0 55.25 -9.15 56.1 -10.2 57.4 -10.3 58.65 -10.4 59.5 -9.3" fill="#000823" fill-rule="evenodd" stroke="none"/>
    <path d="M31.9 3.1 Q30.0 3.85 28.3 6.9 28.95 2.05 32.5 1.0 36.0 0.0 38.4 3.6 34.1 2.3 31.9 3.1" fill="#0b4f7d" fill-rule="evenodd" stroke="none"/>
    <path d="M33.05 2.1 L36.25 2.3 Q37.65 2.75 38.4 3.6 39.35 4.75 39.4 5.35 39.4 5.95 38.65 5.2 35.5 2.35 32.4 3.5 29.3 4.5 28.25 8.3 28.95 2.8 33.05 2.1" fill="#000823" fill-rule="evenodd" stroke="none"/>
    <path d="M39.05 18.2 Q40.9 16.4 44.75 16.05 48.05 15.75 50.55 17.1 52.7 18.3 53.25 20.35 53.85 22.35 52.35 23.9 50.65 25.65 47.0 26.0 43.4 26.35 40.75 25.05 38.45 23.85 37.9 21.8 37.45 19.75 39.05 18.2" fill="#000823" fill-rule="evenodd" stroke="none"/>
    <path d="M42.0 17.7 Q42.9 16.8 44.75 16.65 46.4 16.5 47.5 17.2 48.6 17.7 48.85 18.7 49.15 19.7 48.4 20.4 47.6 21.25 45.85 21.45 44.1 21.65 42.85 20.95 41.7 20.35 41.45 19.4 41.2 18.45 42.0 17.7" fill="#032853" fill-rule="evenodd" stroke="none"/>
    <path d="M31.05 36.65 Q37.85 38.15 46.5 38.1 55.35 38.05 61.5 36.4 68.35 34.55 69.35 31.3 69.35 35.25 64.95 37.9 59.0 41.5 46.0 41.8 32.25 42.05 26.25 38.85 21.75 36.4 22.05 32.3 23.8 35.1 31.05 36.65" fill="#dda623" fill-rule="evenodd" stroke="none"/>
    <path d="M20.8 31.3 Q20.3 33.65 21.75 35.55 19.1 33.95 17.8 31.3 19.2 32.25 20.8 31.3" fill="#dda623" fill-rule="evenodd" stroke="none"/>
    <path d="M70.0 34.6 Q70.9 33.2 70.9 31.5 74.85 32.25 74.3 24.45 75.05 27.65 73.6 30.5 72.35 32.9 70.0 34.6" fill="#dda623" fill-rule="evenodd" stroke="none"/>
  </g>
</svg>
