<?xml version="1.0" encoding="UTF-8" standalone="no"?>
<svg xmlns:xlink="http://www.w3.org/1999/xlink" height="65.15px" width="254.95px" xmlns="http://www.w3.org/2000/svg">
  <g transform="matrix(1.0, 0.0, 0.0, 1.0, 5.5, 5.5)">
    <path d="M18.5 -5.5 Q32.7 -5.5 39.75 -0.7 49.95 5.85 49.95 18.05 50.1 28.45 41.85 33.9 L52.25 51.35 Q53.25 53.1 52.95 55.05 52.6 57.05 51.05 58.35 49.5 59.65 47.5 59.65 L28.0 59.65 Q26.4 59.65 25.05 58.8 23.7 57.9 23.0 56.45 L23.0 56.4 21.85 58.05 Q20.25 59.65 17.95 59.65 L0.0 59.65 Q-2.3 59.65 -3.9 58.05 -5.5 56.45 -5.5 54.15 L-5.5 0.0 Q-5.5 -2.3 -3.9 -3.9 -2.3 -5.5 0.0 -5.5 L18.5 -5.5" fill="#000000" fill-rule="evenodd" stroke="none"/>
    <path d="M53.5 -5.5 L87.05 -5.5 Q89.35 -5.5 90.95 -3.9 92.55 -2.3 92.55 0.0 L92.55 13.0 Q92.55 15.3 90.95 16.9 L90.1 17.65 Q90.95 18.95 90.95 20.65 L90.95 33.65 Q90.95 35.3 90.15 36.6 L90.95 37.25 Q92.55 38.85 92.55 41.15 L92.55 54.15 Q92.55 56.45 90.95 58.05 89.35 59.65 87.05 59.65 L53.5 59.65 Q51.2 59.65 49.6 58.05 48.0 56.45 48.0 54.15 L48.0 0.0 Q48.0 -2.3 49.6 -3.9 51.2 -5.5 53.5 -5.5" fill="#000000" fill-rule="evenodd" stroke="none"/>
    <path d="M103.4 -4.4 Q104.85 -5.5 106.65 -5.5 L128.75 -5.5 Q130.6 -5.5 132.1 -4.35 133.6 -3.2 134.1 -1.4 L148.25 52.75 Q148.65 54.45 148.05 56.05 147.45 57.65 146.05 58.65 144.6 59.65 142.9 59.65 L124.2 59.65 Q122.2 59.65 120.7 58.4 119.15 57.1 118.8 55.2 L118.35 52.75 115.2 52.75 114.65 55.25 Q114.25 57.15 112.75 58.4 111.2 59.65 109.25 59.65 L90.6 59.65 Q88.85 59.65 87.4 58.65 85.95 57.6 85.4 55.95 84.8 54.25 85.35 52.6 L101.4 -1.55 Q101.9 -3.3 103.4 -4.4" fill="#000000" fill-rule="evenodd" stroke="none"/>
    <path d="M148.1 -5.5 L163.7 -5.5 Q179.25 -5.5 187.9 1.45 L187.9 1.5 Q199.75 10.65 199.75 27.1 199.8 43.25 189.65 52.05 181.4 59.6 165.05 59.65 L148.1 59.65 Q145.8 59.65 144.2 58.05 142.6 56.45 142.6 54.15 L142.6 0.0 Q142.6 -2.3 144.2 -3.9 145.8 -5.5 148.1 -5.5" fill="#000000" fill-rule="evenodd" stroke="none"/>
    <path d="M190.3 -4.25 Q191.8 -5.5 193.75 -5.5 L212.55 -5.5 Q214.2 -5.5 215.6 -4.55 217.0 -3.65 217.65 -2.1 L218.9 0.95 220.1 -2.05 Q220.75 -3.6 222.15 -4.55 223.55 -5.5 225.2 -5.5 L243.9 -5.5 Q245.85 -5.5 247.35 -4.25 248.85 -3.05 249.3 -1.15 249.7 0.7 248.85 2.45 L233.85 32.5 233.85 54.15 Q233.85 56.45 232.25 58.05 230.65 59.65 228.35 59.65 L210.3 59.65 Q208.0 59.65 206.4 58.05 204.8 56.45 204.8 54.15 L204.8 32.55 188.9 2.6 Q187.95 0.8 188.35 -1.1 188.75 -3.0 190.3 -4.25" fill="#000000" fill-rule="evenodd" stroke="none"/>
    <path d="M26.55 17.45 Q26.5 11.35 18.7 11.4 L18.05 11.4 18.05 24.25 19.25 24.25 Q22.35 24.25 24.45 22.35 26.55 20.4 26.55 17.45 M18.5 0.0 Q30.7 0.0 36.75 3.9 44.45 8.85 44.45 18.05 44.45 27.85 34.1 31.6 L47.5 54.15 28.0 54.15 19.1 34.85 18.65 33.55 17.85 31.65 17.95 54.15 0.0 54.15 0.0 0.0 18.5 0.0" fill="#db1408" fill-rule="evenodd" stroke="none"/>
    <path d="M87.05 13.0 L71.55 13.0 71.55 20.65 85.45 20.65 85.45 33.65 71.55 33.65 71.55 41.15 87.05 41.15 87.05 54.15 53.5 54.15 53.5 0.0 87.05 0.0 87.05 13.0" fill="#db1408" fill-rule="evenodd" stroke="none"/>
    <path d="M116.2 20.85 L113.15 35.9 120.75 35.9 119.6 29.55 119.4 28.6 118.5 22.55 118.3 20.9 117.95 18.3 117.4 13.15 117.15 14.8 116.8 16.8 116.4 19.85 116.2 20.85 M110.7 47.25 L109.25 54.15 90.6 54.15 106.65 0.0 128.75 0.0 142.9 54.15 124.2 54.15 122.9 47.25 110.7 47.25" fill="#db1408" fill-rule="evenodd" stroke="none"/>
    <path d="M166.15 41.15 Q175.85 40.75 175.85 27.6 175.85 21.1 173.35 17.35 170.9 13.6 166.7 13.6 L166.15 13.6 166.15 41.15 M184.5 5.8 Q194.25 13.45 194.25 27.1 194.3 40.55 186.0 47.9 178.95 54.1 165.0 54.15 L148.1 54.15 148.1 0.0 163.7 0.0 Q177.05 0.0 184.5 5.8" fill="#db1408" fill-rule="evenodd" stroke="none"/>
    <path d="M225.2 0.0 L243.9 0.0 228.35 31.2 228.35 54.15 210.3 54.15 210.3 31.2 193.75 0.0 212.55 0.0 215.8 8.0 217.55 12.55 218.9 16.7 220.6 11.6 221.9 8.1 225.2 0.0" fill="#db1408" fill-rule="evenodd" stroke="none"/>
    <path d="M0.0 54.15 L0.0 32.35 5.6 34.5 10.8 36.1 17.95 37.95 17.95 54.15 0.0 54.15 M40.6 42.55 L47.5 54.15 28.0 54.15 20.9 38.75 28.5 40.7 36.0 42.1 40.6 42.55" fill="#ae1408" fill-rule="evenodd" stroke="none"/>
    <path d="M87.05 41.15 L87.05 54.15 53.5 54.15 53.5 42.3 Q62.65 41.3 71.55 38.75 L71.55 41.15 87.05 41.15" fill="#ae1408" fill-rule="evenodd" stroke="none"/>
    <path d="M135.4 25.6 L142.9 54.15 124.2 54.15 122.9 47.25 110.7 47.25 109.25 54.15 90.6 54.15 97.7 30.25 Q106.35 27.6 115.2 26.2 L113.15 35.9 120.75 35.9 119.6 29.6 119.4 28.65 119.0 25.7 Q127.15 24.75 135.4 25.6" fill="#ae1408" fill-rule="evenodd" stroke="none"/>
    <path d="M189.4 35.0 L193.5 34.85 Q191.7 42.85 186.0 47.9 178.95 54.15 165.0 54.1 L148.1 54.1 148.1 27.9 157.15 30.1 166.15 32.2 166.15 41.1 Q173.15 40.85 175.1 33.85 L189.4 35.0" fill="#ae1408" fill-rule="evenodd" stroke="none"/>
    <path d="M228.35 31.25 L228.35 54.15 210.3 54.15 210.3 32.2 220.45 29.6 230.45 27.0 228.35 31.25" fill="#ae1408" fill-rule="evenodd" stroke="none"/>
  </g>
</svg>
