<?xml version="1.0" encoding="UTF-8" standalone="no"?>
<svg xmlns:xlink="http://www.w3.org/1999/xlink" height="81.45px" width="63.45px" xmlns="http://www.w3.org/2000/svg">
  <g transform="matrix(1.0, 0.0, 0.0, 1.0, 0.0, 0.0)">
    <path d="M1.0 5.85 Q0.05 2.8 1.85 1.25 3.5 -0.1 6.55 0.0 9.45 0.2 11.85 1.6 14.4 3.15 14.65 5.3 10.45 30.0 35.65 50.1 37.95 51.95 32.7 54.4 L28.65 56.2 Q26.7 57.15 26.6 57.8 22.2 55.4 17.25 50.6 11.7 45.1 7.65 38.55 -2.75 21.75 1.0 5.85" fill="#000823" fill-rule="evenodd" stroke="none"/>
    <path d="M2.35 5.75 Q1.4 2.7 2.8 1.2 4.05 -0.15 6.65 0.0 9.05 0.25 11.05 1.65 13.2 3.2 13.45 5.35 9.25 30.1 34.5 50.2 36.8 52.0 32.8 54.4 L29.65 56.15 Q28.1 57.1 28.0 57.75 23.55 55.3 18.6 50.45 13.05 45.05 9.0 38.45 -1.35 21.7 2.35 5.75" fill="#488fc1" fill-rule="evenodd" stroke="none"/>
    <path d="M45.05 79.4 Q43.85 78.85 33.9 71.7 L22.2 63.2 Q22.95 58.15 26.75 50.6 31.1 41.95 34.7 41.2 40.05 46.45 49.0 57.0 59.5 69.4 63.35 75.9 63.9 76.8 61.85 77.85 59.95 78.8 56.75 79.45 48.95 81.05 45.05 79.4" fill="#000823" fill-rule="evenodd" stroke="none"/>
    <path d="M45.45 78.15 L34.6 70.75 23.15 62.6 Q23.85 57.95 27.35 51.15 31.4 43.3 34.8 42.75 39.8 47.4 49.4 59.0 59.95 71.7 62.95 77.45 63.25 78.25 62.6 79.25 61.8 80.45 60.05 81.05 54.95 82.55 45.45 78.15" fill="#ffbd20" fill-rule="evenodd" stroke="none"/>
    <path d="M36.25 44.15 L40.25 48.4 Q32.65 55.3 30.7 67.95 L25.45 64.2 Q25.85 58.4 28.75 53.1 31.6 47.85 36.25 44.15" fill="#e31e00" fill-rule="evenodd" stroke="none"/>
  </g>
</svg>
