<?xml version="1.0" encoding="UTF-8" standalone="no"?>
<svg xmlns:xlink="http://www.w3.org/1999/xlink" height="214.65px" width="249.3px" xmlns="http://www.w3.org/2000/svg">
  <g transform="matrix(1.0, 0.0, 0.0, 1.0, -15.25, -26.1)">
    <path d="M178.85 49.85 L179.4 51.2 179.95 51.85 Q180.85 52.75 182.3 52.75 185.7 52.55 185.8 49.0 186.55 51.9 184.35 53.8 183.65 54.45 182.6 54.45 178.75 53.85 178.85 49.85 M191.1 54.45 L184.9 30.8 97.7 31.2 81.0 81.6 73.95 103.1 37.55 146.75 22.05 182.7 20.3 227.6 32.45 238.9 83.5 238.9 252.05 238.9 259.45 229.0 257.15 168.05 255.15 163.6 238.95 127.6 202.15 96.25 191.1 54.45 M190.85 102.5 L197.95 95.1 197.95 96.9 190.85 104.35 190.85 102.5 M190.8 104.35 L190.85 104.4 190.8 104.4 190.8 104.35 M192.5 103.95 Q193.75 104.7 195.25 104.75 200.15 104.3 200.6 99.55 201.25 102.8 198.9 105.0 196.0 107.65 192.55 105.7 L192.5 103.95 M187.15 26.1 L208.4 93.45 243.1 128.1 262.2 166.95 264.55 230.6 258.15 240.75 30.45 240.75 15.25 229.85 18.8 181.95 33.3 143.95 65.8 107.7 Q67.1 106.3 67.95 104.6 70.5 99.45 72.35 94.45 L94.7 34.55 96.2 30.4 97.1 27.9 187.15 26.1 M247.25 174.9 L247.8 176.3 248.35 176.9 Q249.35 177.8 250.7 177.8 254.2 177.55 254.2 174.05 254.7 175.85 253.85 177.55 253.15 179.0 251.6 179.4 247.35 179.4 247.25 174.9 M86.75 71.9 L87.25 73.3 87.8 73.9 Q88.85 74.8 90.15 74.8 93.6 74.45 93.7 71.05 93.95 77.9 88.4 75.0 86.65 74.0 86.75 71.9" fill="#47525f" fill-rule="evenodd" stroke="none"/>
    <path d="M81.0 81.6 L191.1 54.45 202.15 96.25 238.95 127.6 255.15 163.6 83.5 238.9 32.45 238.9 20.3 227.6 22.05 182.7 37.55 146.75 73.95 103.1 81.0 81.6 M190.65 101.1 L190.6 101.3 190.6 101.25 190.65 101.1 M197.95 95.1 L197.65 94.85 197.4 94.95 Q195.1 93.55 192.3 95.5 189.95 97.1 189.8 100.0 L189.8 101.7 Q189.6 102.35 190.8 104.35 L190.8 104.4 192.55 105.7 Q196.0 107.65 198.9 105.0 201.25 102.8 200.6 99.55 L199.6 96.5 Q200.0 104.0 192.5 103.95 L198.65 97.5 197.95 96.9 197.95 95.1" fill="#bab9ba" fill-rule="evenodd" stroke="none"/>
    <path d="M184.0 46.35 L183.25 46.1 Q179.15 45.75 178.85 49.85 178.75 53.85 182.6 54.45 183.65 54.45 184.35 53.8 186.55 51.9 185.8 49.0 185.75 48.05 185.1 47.3 L184.0 46.35 M81.0 81.6 L97.7 31.2 184.9 30.8 191.1 54.45 81.0 81.6 M255.15 163.6 L257.15 168.05 259.45 229.0 252.05 238.9 83.5 238.9 255.15 163.6 M252.4 171.45 L251.65 171.15 Q247.5 170.8 247.25 174.9 247.35 179.4 251.6 179.4 253.15 179.0 253.85 177.55 254.7 175.85 254.2 174.05 254.15 173.15 253.5 172.35 L252.4 171.45 M91.85 68.45 L91.1 68.15 Q86.95 67.75 86.75 71.9 86.65 74.0 88.4 75.0 93.95 77.9 93.7 71.05 93.6 70.1 92.95 69.35 L91.85 68.45" fill="#9c9c9c" fill-rule="evenodd" stroke="none"/>
    <path d="M190.85 104.4 L190.85 104.35 197.95 96.9 198.65 97.5 192.5 103.95 192.55 105.7 190.8 104.4 190.85 104.4" fill="#57565b" fill-rule="evenodd" stroke="none"/>
    <path d="M190.6 101.3 L190.55 102.05 190.85 102.5 190.85 104.35 190.85 104.4 190.8 104.35 Q189.6 102.35 189.8 101.7 L189.8 100.0 Q189.9 101.05 190.5 102.05 L190.6 101.25 190.6 101.3" fill="#79818b" fill-rule="evenodd" stroke="none"/>
    <path d="M179.4 51.2 Q179.4 49.2 180.75 47.8 182.05 46.35 184.0 46.35 L185.1 47.3 Q185.1 51.5 180.8 51.95 L179.95 51.85 179.4 51.2 M190.6 101.3 L190.65 101.1 Q192.4 97.15 196.45 95.35 L197.4 94.95 197.65 94.85 197.95 95.1 190.85 102.5 190.55 102.05 190.6 101.3 M247.8 176.3 Q247.8 174.3 249.15 172.85 250.45 171.45 252.4 171.45 L253.5 172.35 253.5 172.7 Q253.0 177.3 248.35 176.9 L247.8 176.3 M87.25 73.3 Q87.25 71.3 88.6 69.85 89.95 68.45 91.85 68.45 L92.95 69.35 Q92.95 73.55 88.7 74.0 L87.8 73.9 87.25 73.3" fill="#d0cfd0" fill-rule="evenodd" stroke="none"/>
    <path d="M184.0 46.35 Q182.05 46.35 180.75 47.8 179.4 49.2 179.4 51.2 L178.85 49.85 Q179.15 45.75 183.25 46.1 L184.0 46.35 M197.4 94.95 L196.45 95.35 Q192.4 97.15 190.65 101.1 L190.6 101.25 190.5 102.05 Q189.9 101.05 189.8 100.0 189.95 97.1 192.3 95.5 195.1 93.55 197.4 94.95 M247.25 174.9 Q247.5 170.8 251.65 171.15 L252.4 171.45 Q250.45 171.45 249.15 172.85 247.8 174.3 247.8 176.3 L247.25 174.9 M91.85 68.45 Q89.95 68.45 88.6 69.85 87.25 71.3 87.25 73.3 L86.75 71.9 Q86.95 67.75 91.1 68.15 L91.85 68.45" fill="#e9e9eb" fill-rule="evenodd" stroke="none"/>
    <path d="M179.95 51.85 L180.8 51.95 Q185.1 51.5 185.1 47.3 185.75 48.05 185.8 49.0 185.7 52.55 182.3 52.75 180.85 52.75 179.95 51.85 M200.6 99.55 Q200.15 104.3 195.25 104.75 193.75 104.7 192.5 103.95 200.0 104.0 199.6 96.5 L200.6 99.55 M253.5 172.35 Q254.15 173.15 254.2 174.05 254.2 177.55 250.7 177.8 249.35 177.8 248.35 176.9 253.0 177.3 253.5 172.7 L253.5 172.35 M87.8 73.9 L88.7 74.0 Q92.95 73.55 92.95 69.35 93.6 70.1 93.7 71.05 93.6 74.45 90.15 74.8 88.85 74.8 87.8 73.9" fill="#b0aeb3" fill-rule="evenodd" stroke="none"/>
  </g>
</svg>
