<?xml version="1.0" encoding="UTF-8" standalone="no"?>
<svg xmlns:xlink="http://www.w3.org/1999/xlink" height="86.7px" width="109.05px" xmlns="http://www.w3.org/2000/svg">
  <g transform="matrix(1.0, 0.0, 0.0, 1.0, 0.0, 0.0)">
    <path d="M42.35 63.55 L49.0 62.2 49.65 82.7 42.95 83.7 42.35 63.55" fill="#000823" fill-rule="evenodd" stroke="none"/>
    <path d="M43.35 64.55 L47.95 63.55 48.65 81.65 44.0 82.4 43.35 64.55" fill="#488fc1" fill-rule="evenodd" stroke="none"/>
    <path d="M10.5 48.3 Q10.5 46.6 11.65 45.65 12.8 44.6 14.7 44.85 16.9 45.15 19.45 46.85 24.8 50.45 27.5 58.45 30.3 66.45 29.15 75.4 28.35 81.8 25.85 84.7 23.75 87.1 20.9 86.6 18.35 86.15 16.55 83.75 14.6 81.3 14.85 78.6 15.65 68.55 15.1 63.15 14.5 56.45 11.7 52.0 10.45 50.1 10.5 48.3" fill="#000823" fill-rule="evenodd" stroke="none"/>
    <path d="M17.4 68.5 Q25.75 64.4 22.2 69.35 19.6 72.9 18.85 77.3 18.15 81.45 19.4 84.4 18.45 84.0 17.6 82.9 16.75 81.7 16.45 80.3 16.1 79.1 16.5 75.8 L17.4 68.5" fill="#032853" fill-rule="evenodd" stroke="none"/>
    <path d="M8.2 43.45 Q2.2 35.2 5.35 31.75 6.35 30.6 8.7 29.8 L12.15 28.85 Q13.4 28.35 14.25 32.45 15.1 36.35 14.95 40.55 14.7 45.25 13.25 46.45 11.45 47.9 8.2 43.45" fill="#000823" fill-rule="evenodd" stroke="none"/>
    <path d="M68.6 44.05 Q62.55 50.35 52.1 52.4 43.35 54.1 32.8 52.6 23.7 51.25 16.6 48.1 9.8 45.1 9.5 42.6 7.55 24.4 14.15 14.7 19.8 6.5 30.4 5.55 32.3 3.45 35.4 1.95 38.7 0.35 42.3 0.1 51.2 -0.7 56.8 6.1 66.75 9.45 69.5 19.45 71.95 28.5 68.6 44.05" fill="#000823" fill-rule="evenodd" stroke="none"/>
    <path d="M67.35 43.45 Q61.6 49.5 51.8 51.45 43.6 53.1 33.65 51.6 25.0 50.35 18.3 47.4 11.9 44.55 11.5 42.2 8.75 25.75 15.1 16.1 20.65 7.65 31.1 6.45 L33.55 6.15 31.95 5.65 Q36.2 1.75 42.4 1.25 49.7 0.7 54.85 6.0 L51.1 5.8 55.8 7.05 Q65.35 10.2 68.0 19.8 70.45 28.6 67.35 43.45" fill="#488fc1" fill-rule="evenodd" stroke="none"/>
    <path d="M34.15 17.65 Q33.85 17.35 34.3 16.35 35.3 14.25 37.1 13.05 39.0 11.8 40.95 12.0 45.85 12.5 47.6 20.3 48.6 24.45 46.9 30.7 L44.55 37.7 Q44.3 38.45 42.75 38.7 41.2 38.95 39.25 38.7 34.4 38.05 33.9 36.0 33.55 34.5 34.8 24.75 35.85 16.15 35.15 16.95 34.45 17.85 34.15 17.65" fill="#000823" fill-rule="evenodd" stroke="none"/>
    <path d="M22.85 32.0 L23.25 41.25 Q20.85 41.55 17.75 40.65 14.4 30.55 14.9 25.85 13.45 26.55 14.0 23.9 14.4 21.95 15.75 20.3 16.9 18.9 17.75 18.75 20.2 18.45 21.6 23.7 22.5 27.2 22.85 32.0" fill="#000823" fill-rule="evenodd" stroke="none"/>
    <path d="M37.0 14.85 Q38.8 13.65 40.85 13.95 42.95 14.25 44.55 16.1 46.35 18.15 47.1 21.5 48.45 27.85 45.4 37.7 45.15 38.45 43.4 38.7 41.8 38.95 39.65 38.7 L35.9 37.75 Q34.15 37.0 33.9 36.0 33.0 32.35 32.95 27.5 32.85 21.9 34.15 18.7 35.1 16.15 37.0 14.85" fill="#ffffff" fill-rule="evenodd" stroke="none"/>
    <path d="M22.85 32.0 L23.25 41.25 16.9 41.55 Q13.85 32.4 14.65 26.05 15.35 20.55 18.0 20.15 22.05 19.55 22.85 32.0" fill="#ffffff" fill-rule="evenodd" stroke="none"/>
    <path d="M42.95 18.65 L42.85 20.0 38.45 20.35 42.5 21.85 Q42.0 24.15 40.75 26.35 39.0 28.45 36.95 28.35 34.95 28.3 34.45 26.15 33.85 23.75 34.3 20.75 34.65 18.2 35.55 16.45 L36.15 15.55 Q37.6 13.9 39.6 13.7 41.15 13.75 42.1 14.95 43.15 16.35 42.95 18.65" fill="#000823" fill-rule="evenodd" stroke="none"/>
    <path d="M19.1 19.95 L19.45 20.0 Q21.2 20.85 21.2 24.35 L21.15 25.55 18.6 25.5 21.05 27.0 Q20.8 29.0 20.1 30.7 19.15 32.35 17.9 32.1 16.7 31.9 16.3 30.0 15.5 25.75 16.15 23.2 16.45 21.45 17.45 20.6 18.2 19.9 19.1 19.95" fill="#000823" fill-rule="evenodd" stroke="none"/>
    <path d="M21.3 14.85 Q20.9 12.1 19.15 12.0 17.3 11.9 15.7 16.05 17.1 10.75 19.3 10.55 20.25 10.5 20.8 11.55 21.35 12.75 21.3 14.85" fill="#000823" fill-rule="evenodd" stroke="none"/>
    <path d="M62.85 32.4 Q69.1 33.15 71.55 38.75 73.9 44.35 71.4 51.8 68.75 59.85 61.35 66.6 54.7 72.25 40.7 73.65 28.3 75.15 16.9 70.45 5.0 65.6 1.15 56.7 -0.85 52.2 0.65 47.45 2.1 42.8 6.3 39.6 12.5 34.95 24.45 34.6 34.9 34.4 46.55 37.4 55.85 31.6 62.85 32.4" fill="#000823" fill-rule="evenodd" stroke="none"/>
    <path d="M62.4 33.85 Q68.0 34.45 70.1 39.4 72.1 44.0 70.35 50.55 68.5 57.25 63.5 62.8 60.3 66.4 56.15 68.5 50.65 71.15 41.55 72.6 29.15 73.75 18.4 69.85 6.6 65.55 2.35 56.6 0.3 52.35 1.8 47.75 3.25 43.25 7.4 40.2 13.35 35.7 25.1 35.55 35.25 35.4 46.7 38.35 56.05 33.15 62.4 33.85" fill="#ffe584" fill-rule="evenodd" stroke="none"/>
    <path d="M5.2 41.1 Q4.0 39.0 5.85 35.95 8.15 32.2 13.8 30.85 20.7 29.35 24.9 31.65 28.05 33.45 28.35 36.1 28.7 38.85 26.5 40.45 24.45 41.95 19.45 43.1 7.7 45.65 5.2 41.1" fill="#000823" fill-rule="evenodd" stroke="none"/>
    <path d="M10.0 35.1 Q9.55 34.4 10.25 33.35 11.05 32.1 13.05 31.75 L17.0 32.0 Q18.15 32.6 18.25 33.5 18.45 35.15 15.1 35.75 10.9 36.6 10.0 35.1" fill="#032853" fill-rule="evenodd" stroke="none"/>
    <path d="M40.05 41.7 Q39.95 42.35 39.3 42.25 38.7 42.1 38.85 41.5 39.0 40.85 39.55 41.05 40.15 41.15 40.05 41.7" fill="#b08000" fill-rule="evenodd" stroke="none"/>
    <path d="M34.3 44.55 Q34.2 45.25 33.55 45.15 32.85 45.0 33.0 44.35 33.15 43.6 33.75 43.75 34.5 43.95 34.3 44.55" fill="#b08000" fill-rule="evenodd" stroke="none"/>
    <path d="M33.75 39.05 Q33.7 39.7 33.0 39.55 32.45 39.45 32.5 38.85 32.65 38.25 33.3 38.35 33.85 38.5 33.75 39.05" fill="#b08000" fill-rule="evenodd" stroke="none"/>
    <path d="M44.8 44.8 Q44.65 45.4 44.05 45.3 43.35 45.2 43.55 44.55 43.65 43.9 44.25 44.05 44.9 44.15 44.8 44.8" fill="#b08000" fill-rule="evenodd" stroke="none"/>
    <path d="M46.15 41.2 Q46.05 41.85 45.45 41.65 44.85 41.55 44.95 40.95 45.05 40.35 45.7 40.45 46.3 40.6 46.15 41.2" fill="#b08000" fill-rule="evenodd" stroke="none"/>
    <path d="M3.65 47.75 L3.05 48.15 Q2.75 47.95 2.95 47.4 3.2 46.85 3.55 47.0 3.8 47.2 3.65 47.75" fill="#b08000" fill-rule="evenodd" stroke="none"/>
    <path d="M5.3 44.95 Q4.95 45.45 4.65 45.2 4.45 44.95 4.8 44.45 5.1 43.95 5.4 44.2 5.65 44.45 5.3 44.95" fill="#b08000" fill-rule="evenodd" stroke="none"/>
    <path d="M70.05 13.3 Q74.3 12.75 77.1 18.2 L83.15 31.05 Q87.05 39.2 91.0 45.1 93.05 48.1 97.25 50.75 L104.75 55.0 Q108.05 56.95 108.85 60.15 109.6 63.15 107.8 65.25 106.7 66.5 104.3 67.1 L98.85 67.45 Q91.55 66.85 86.5 61.7 82.45 57.65 80.15 53.25 78.15 49.2 76.2 41.8 L73.0 27.2 Q71.8 21.55 70.4 21.15 69.1 20.75 67.25 21.9 65.8 22.75 65.0 23.85 63.45 23.95 62.8 21.55 62.15 19.35 62.85 17.8 66.7 13.75 70.05 13.3" fill="#000823" fill-rule="evenodd" stroke="none"/>
    <path d="M66.95 16.05 Q70.25 14.4 71.9 16.5 73.7 18.65 75.1 26.6 76.8 35.6 80.9 44.9 85.55 55.55 90.5 59.5 94.5 62.75 92.65 62.95 L90.75 62.65 88.45 61.45 Q82.75 57.1 77.9 42.85 75.0 34.05 73.35 25.0 72.55 20.65 70.8 18.55 69.05 16.4 67.2 17.9 65.4 19.4 65.3 18.15 65.15 16.9 66.95 16.05" fill="#032853" fill-rule="evenodd" stroke="none"/>
    <path d="M53.75 41.55 Q54.9 41.7 54.85 42.4 54.85 43.1 53.05 42.8 54.95 47.0 54.3 50.7 53.7 54.3 50.65 56.8 43.9 62.3 29.3 60.4 28.3 60.3 28.15 59.9 27.95 59.5 29.1 59.6 35.0 60.2 40.1 59.35 45.35 58.5 48.65 56.35 52.15 54.05 52.85 50.7 53.6 47.05 50.9 42.65 48.65 42.7 47.35 43.35 47.05 43.55 47.4 43.15 L48.3 42.3 Q50.35 41.05 53.75 41.55" fill="#000823" fill-rule="evenodd" stroke="none"/>
    <path d="M32.95 19.25 Q33.35 15.15 35.4 13.0 37.9 10.35 42.15 12.1 40.1 15.7 37.8 17.65 35.15 19.8 32.95 19.25" fill="#0b4f7d" fill-rule="evenodd" stroke="none"/>
    <path d="M37.1 16.9 L42.85 11.5 Q39.2 17.85 36.25 19.75 33.05 21.8 31.3 17.9 32.65 19.1 34.25 18.7 35.5 18.45 37.1 16.9" fill="#000823" fill-rule="evenodd" stroke="none"/>
  </g>
</svg>
