<?xml version="1.0" encoding="UTF-8" standalone="no"?>
<svg xmlns:xlink="http://www.w3.org/1999/xlink" height="150.5px" width="69.0px" xmlns="http://www.w3.org/2000/svg">
  <g transform="matrix(1.0, 0.0, 0.0, 1.0, 1.55, 0.0)">
    <path d="M38.85 38.9 Q43.85 39.8 48.15 41.45 55.0 44.15 57.45 48.05 L58.35 49.9 Q61.5 58.95 62.65 74.55 L64.25 85.5 64.85 90.0 65.55 96.6 65.95 104.55 Q62.95 107.0 59.1 107.95 55.25 108.9 50.95 108.9 L42.95 108.15 31.65 107.55 Q29.75 106.8 29.25 106.15 L29.1 105.85 28.9 102.45 28.6 83.65 28.6 81.9 29.25 81.75 29.45 81.75 31.15 81.45 32.8 80.85 Q33.1 80.55 32.1 80.65 L29.8 80.95 29.25 80.95 26.2 80.95 23.75 80.8 22.8 80.65 Q21.45 80.45 21.65 80.65 L22.55 81.25 23.75 81.7 25.55 82.1 27.0 82.25 27.4 105.65 Q27.25 106.05 25.25 107.0 L23.75 107.6 21.85 108.35 21.8 108.3 21.8 108.35 20.1 108.9 Q20.85 109.1 18.3 109.55 L10.85 110.2 Q7.05 110.1 4.25 109.05 1.35 107.95 -0.05 105.35 0.05 102.2 0.65 97.7 L2.1 74.15 2.75 65.2 Q3.6 55.85 4.85 48.05 L4.9 47.6 Q5.65 42.6 13.45 40.05 17.5 38.65 22.55 38.2 L28.9 38.0 30.45 38.05 30.55 38.05 32.55 38.15 38.85 38.9 M0.55 76.25 L0.55 74.55 0.8 74.55 0.55 76.25" fill="#592d85" fill-rule="evenodd" stroke="none"/>
    <path d="M62.65 74.55 Q61.5 58.95 58.35 49.9 L57.45 48.05 Q55.0 44.15 48.15 41.45 43.85 39.8 38.85 38.9 44.35 39.75 48.95 41.45 56.1 44.15 58.7 48.05 L59.65 49.9 Q63.25 59.8 64.35 77.45 L63.8 74.55 62.65 74.55 M22.55 38.2 Q17.5 38.65 13.45 40.05 5.65 42.6 4.9 47.6 L4.85 48.05 Q3.6 55.85 2.75 65.2 L2.1 74.15 0.8 74.55 0.55 74.55 1.3 65.2 Q2.2 55.9 3.4 48.05 L3.5 47.6 Q4.3 42.6 12.5 40.05 16.95 38.6 22.55 38.2" fill="#000823" fill-rule="evenodd" stroke="none"/>
    <path d="M62.65 74.55 L63.8 74.55 64.35 77.45 Q66.8 90.1 67.4 102.85 L67.45 104.55 67.45 105.25 Q65.45 107.25 62.8 108.25 L60.45 109.15 58.0 109.75 63.2 150.5 61.7 150.5 56.45 109.65 47.15 110.1 50.6 131.5 52.1 141.9 52.2 142.65 53.1 150.5 51.6 150.5 50.75 142.7 45.65 110.0 40.75 109.25 Q32.7 109.5 31.75 109.15 30.2 108.65 29.25 108.05 28.4 107.5 28.1 107.05 27.05 107.9 24.95 108.8 L21.7 109.9 19.05 132.3 Q18.45 137.25 17.95 143.4 L17.45 150.5 16.0 150.5 20.1 110.7 Q15.9 112.0 11.45 111.9 L11.2 111.9 7.45 150.5 5.95 150.5 6.4 145.2 9.6 111.65 Q5.95 111.4 3.15 110.2 0.2 108.9 -1.35 106.1 L-1.55 105.75 -1.5 105.35 -0.95 97.7 0.0 89.1 0.55 76.25 0.8 74.55 2.1 74.15 0.65 97.7 Q0.05 102.2 -0.05 105.35 1.35 107.95 4.25 109.05 7.05 110.1 10.85 110.2 L18.3 109.55 Q20.85 109.1 20.1 108.9 L21.8 108.35 21.85 108.35 23.75 107.6 25.25 107.0 Q27.25 106.05 27.4 105.65 L27.0 82.25 25.55 82.1 23.75 81.7 22.55 81.25 21.65 80.65 Q21.45 80.45 22.8 80.65 L23.75 80.8 26.2 80.95 29.25 80.95 29.8 80.95 32.1 80.65 Q33.1 80.55 32.8 80.85 L31.15 81.45 29.45 81.75 29.25 81.75 28.6 81.9 28.6 83.65 28.9 102.45 29.1 105.85 29.25 106.15 Q29.75 106.8 31.65 107.55 L42.95 108.15 50.95 108.9 Q55.25 108.9 59.1 107.95 62.95 107.0 65.95 104.55 L65.55 96.6 64.85 90.0 64.25 85.5 62.65 74.55" fill="#000000" fill-rule="evenodd" stroke="none"/>
    <path d="M61.7 150.5 L53.1 150.5 52.2 142.65 52.1 141.9 50.6 131.5 47.15 110.1 56.45 109.65 61.7 150.5 M16.0 150.5 L7.45 150.5 11.2 111.9 11.45 111.9 Q15.9 112.0 20.1 110.7 L16.0 150.5" fill="#488fc1" fill-rule="evenodd" stroke="none"/>
    <path d="M54.95 2.6 Q58.2 5.2 57.85 10.0 57.15 20.05 57.85 30.35 58.65 42.5 61.2 51.6 L52.8 52.05 Q46.1 53.25 40.65 56.45 35.75 59.45 28.7 60.05 22.1 60.55 15.8 58.8 9.4 57.05 5.75 53.5 1.85 49.7 2.5 44.9 3.95 34.35 10.05 24.35 16.55 13.75 26.65 6.3 30.85 3.25 36.45 1.55 41.9 -0.15 46.85 0.0 52.05 0.2 54.95 2.6" fill="#000823" fill-rule="evenodd" stroke="none"/>
    <path d="M53.75 3.8 Q56.8 6.35 56.5 10.9 55.85 20.4 56.5 30.0 57.2 41.3 59.65 49.95 57.05 49.55 52.15 50.8 46.55 52.2 40.2 55.35 34.9 57.9 28.2 58.35 21.75 58.8 16.0 57.25 10.05 55.6 6.9 52.4 3.35 48.85 4.0 44.2 5.35 34.2 11.15 24.6 17.35 14.45 26.95 7.35 30.9 4.45 36.2 2.8 41.35 1.15 46.05 1.35 50.95 1.6 53.75 3.8" fill="#ffbd20" fill-rule="evenodd" stroke="none"/>
    <path d="M57.4 38.8 L58.8 46.55 Q48.45 45.75 37.6 50.15 27.35 54.3 17.95 52.45 9.2 50.7 4.0 44.5 L4.0 44.2 Q4.5 40.45 5.75 36.45 11.65 42.0 19.9 43.55 28.95 45.3 37.9 41.65 48.65 37.2 57.4 38.8" fill="#e31e00" fill-rule="evenodd" stroke="none"/>
  </g>
</svg>
