<?xml version="1.0" encoding="UTF-8" standalone="no"?>
<svg xmlns:xlink="http://www.w3.org/1999/xlink" height="94.2px" width="44.2px" xmlns="http://www.w3.org/2000/svg">
  <g transform="matrix(1.0, 0.0, 0.0, 1.0, 0.0, 0.0)">
    <path d="M2.0 87.65 Q0.05 79.9 1.5 75.9 2.0 74.5 16.6 52.35 21.65 52.9 29.45 56.4 38.25 60.3 39.15 63.8 34.1 69.45 24.1 78.9 12.15 90.0 5.85 94.1 4.95 94.65 3.8 92.7 2.8 90.85 2.0 87.65" fill="#000823" fill-rule="evenodd" stroke="none"/>
    <path d="M17.15 53.3 Q19.95 56.2 22.85 57.9 28.05 61.05 37.6 64.0 33.15 69.3 22.05 79.4 9.85 90.55 4.25 93.7 L2.5 93.55 Q1.25 92.8 0.55 91.05 -1.25 86.05 2.75 76.3 L17.15 53.3" fill="#ffbd20" fill-rule="evenodd" stroke="none"/>
    <path d="M34.65 67.2 L31.15 70.7 Q27.05 71.1 22.95 69.7 16.4 67.3 12.5 60.6 L15.75 55.65 Q20.45 63.9 34.65 67.2" fill="#e31e00" fill-rule="evenodd" stroke="none"/>
    <path d="M42.25 33.65 Q38.5 47.55 28.5 59.05 26.35 58.2 23.3 56.15 L18.45 52.45 23.75 44.75 Q27.25 39.45 28.9 34.75 33.85 21.1 25.85 5.85 39.6 -3.45 41.35 2.05 46.6 17.65 42.25 33.65" fill="#000823" fill-rule="evenodd" stroke="none"/>
    <path d="M41.1 33.9 Q37.35 47.25 27.15 58.75 22.9 57.05 19.3 53.5 L24.65 45.55 Q28.3 39.85 30.05 34.9 35.15 20.3 27.15 5.1 38.45 -2.65 40.25 2.8 45.4 18.3 41.1 33.9" fill="#488fc1" fill-rule="evenodd" stroke="none"/>
  </g>
</svg>
