<?xml version="1.0" encoding="UTF-8" standalone="no"?>
<svg xmlns:xlink="http://www.w3.org/1999/xlink" height="57.25px" width="51.2px" xmlns="http://www.w3.org/2000/svg">
  <g transform="matrix(1.0, 0.0, 0.0, 1.0, 0.0, 0.0)">
    <path d="M10.5 5.3 Q15.25 0.7 20.8 0.1 27.75 -0.65 34.05 5.4 37.5 8.7 41.1 14.9 46.9 24.6 49.15 39.3 L50.25 41.8 Q52.15 45.8 50.3 49.6 48.5 53.5 43.7 55.75 39.15 57.9 34.0 57.0 28.1 55.95 25.7 51.05 L25.25 50.15 23.75 49.0 21.55 46.2 Q21.0 49.15 18.95 50.7 17.05 52.1 14.7 51.6 12.35 51.15 9.55 47.6 L1.35 36.85 Q0.2 35.15 0.05 32.5 -0.15 29.9 0.7 27.6 L1.35 26.05 Q0.7 22.3 2.6 17.65 5.7 9.9 10.5 5.3" fill="#000823" fill-rule="evenodd" stroke="none"/>
    <path d="M11.5 6.2 Q15.9 2.05 20.95 1.5 27.05 0.8 32.5 5.9 36.05 9.15 39.95 15.6 45.65 25.35 47.8 40.0 48.4 44.15 43.3 47.7 37.05 52.05 32.35 49.0 33.85 47.9 34.6 46.05 35.3 44.15 34.95 42.35 L37.65 40.2 Q39.05 38.7 39.05 37.6 36.2 41.0 33.55 42.25 L29.85 43.7 Q31.85 44.05 34.3 42.75 34.35 46.9 30.7 48.75 27.15 50.6 24.8 48.05 17.8 39.85 20.15 34.95 L24.15 28.7 Q26.85 24.4 27.35 22.2 L23.1 28.65 19.15 34.6 Q18.1 36.45 18.15 38.9 18.3 41.4 19.45 43.3 12.75 41.95 10.35 36.2 8.3 31.45 9.95 27.0 L13.85 19.9 Q16.3 15.65 16.55 12.3 15.65 14.8 13.8 17.7 L10.7 22.45 Q7.2 28.1 7.9 32.85 0.0 27.9 3.9 18.2 6.95 10.6 11.5 6.2" fill="#ffffff" fill-rule="evenodd" stroke="none"/>
    <path d="M13.15 42.4 Q15.6 44.1 20.25 45.1 20.1 47.7 18.5 49.2 16.95 50.7 15.05 50.25 13.15 49.85 10.65 46.75 L2.55 36.0 Q1.6 34.7 1.45 32.4 1.3 30.1 2.1 28.1 4.1 32.25 8.1 34.3 9.35 39.8 13.15 42.4" fill="#ffffff" fill-rule="evenodd" stroke="none"/>
    <path d="M43.1 54.45 Q39.0 56.4 34.45 55.65 29.15 54.75 26.95 50.4 29.4 50.8 31.75 49.45 33.4 51.0 36.05 51.15 38.55 51.25 41.3 50.2 47.45 47.7 49.0 42.4 50.6 45.8 48.95 49.1 47.35 52.45 43.1 54.45" fill="#ffffff" fill-rule="evenodd" stroke="none"/>
  </g>
</svg>
