<?xml version="1.0" encoding="UTF-8" standalone="no"?>
<svg xmlns:xlink="http://www.w3.org/1999/xlink" height="54.3px" width="45.3px" xmlns="http://www.w3.org/2000/svg">
  <g transform="matrix(1.0, 0.0, 0.0, 1.0, 0.0, 0.0)">
    <path d="M2.75 15.65 Q4.55 11.35 7.4 7.5 9.55 4.45 11.45 2.9 15.7 -0.75 21.75 0.2 28.45 1.3 34.1 5.5 39.7 9.7 41.95 15.2 42.9 17.65 43.05 20.05 L42.95 22.5 43.6 23.15 Q44.85 24.45 45.2 26.8 45.45 28.95 44.9 30.85 41.65 39.35 40.45 43.45 39.05 48.1 34.7 47.9 30.9 47.65 28.65 44.15 L28.45 44.4 28.35 45.5 Q27.85 49.85 23.65 52.3 19.8 54.55 14.95 54.25 9.85 53.9 6.45 50.9 2.5 47.5 2.5 41.8 L2.55 39.9 2.15 39.0 Q-2.4 27.9 2.75 15.65" fill="#000823" fill-rule="evenodd" stroke="none"/>
    <path d="M4.05 16.2 Q5.8 12.05 8.45 8.35 10.6 5.5 12.3 3.95 16.2 0.8 21.5 1.65 26.55 2.45 31.15 5.2 35.7 8.0 38.45 11.85 41.35 15.95 41.6 20.2 41.9 24.85 38.8 28.9 36.75 19.95 26.65 11.55 L29.7 15.15 33.65 20.25 Q38.4 27.25 37.3 31.65 35.75 37.35 28.85 40.05 30.1 35.05 26.65 29.3 23.35 23.75 18.65 22.45 22.95 25.0 25.9 30.1 29.25 35.85 27.75 40.3 27.35 41.45 25.9 42.4 24.45 43.45 22.6 43.8 18.0 44.75 15.1 41.15 L19.8 41.3 Q17.1 41.1 14.25 39.8 11.05 38.35 8.85 36.0 9.35 38.05 12.8 40.05 16.1 45.4 21.45 45.1 23.55 45.0 25.4 44.0 27.15 43.05 28.0 41.8 L28.05 42.25 Q27.0 44.75 23.8 46.4 20.65 48.1 16.85 48.1 12.6 48.1 9.35 45.95 5.45 43.45 3.45 38.5 -0.9 27.75 4.05 16.2" fill="#ffffff" fill-rule="evenodd" stroke="none"/>
    <path d="M39.1 43.0 Q38.45 45.15 36.9 46.0 L33.65 46.25 Q31.95 45.8 30.65 44.4 29.25 42.95 28.95 41.15 32.55 40.1 35.35 37.3 38.35 34.25 38.6 30.6 41.2 28.45 42.55 24.15 43.55 25.1 43.8 26.95 44.05 28.85 43.55 30.4 40.4 38.6 39.1 43.0" fill="#ffffff" fill-rule="evenodd" stroke="none"/>
    <path d="M26.95 45.4 Q26.55 49.0 22.85 51.1 19.4 53.1 14.95 52.75 10.35 52.5 7.35 49.85 3.95 46.85 3.95 41.8 8.7 49.15 16.7 49.25 19.9 49.25 22.8 48.1 25.5 47.05 26.95 45.4" fill="#ffffff" fill-rule="evenodd" stroke="none"/>
  </g>
</svg>
