<?xml version="1.0" encoding="UTF-8" standalone="no"?>
<svg xmlns:xlink="http://www.w3.org/1999/xlink" height="27.3px" width="35.6px" xmlns="http://www.w3.org/2000/svg">
  <g transform="matrix(1.0, 0.0, 0.0, 1.0, 0.0, 0.0)">
    <path d="M20.05 24.4 L20.05 23.75 Q24.55 22.8 28.85 24.55 L33.0 26.2 32.45 26.9 Q26.15 24.85 20.05 24.4" fill="#488fc1" fill-rule="evenodd" stroke="none"/>
    <path d="M17.95 24.1 Q17.6 21.7 17.6 18.85 17.55 15.25 18.05 11.65 18.5 8.0 19.55 5.05 20.6 2.35 22.75 1.05 24.9 -0.25 27.4 0.05 29.95 0.4 32.05 2.5 34.15 4.6 35.05 8.65 35.85 12.85 35.5 16.1 35.15 19.4 34.35 21.65 L33.7 23.5 Q32.45 20.65 30.0 19.7 L24.25 19.55 Q21.15 20.5 18.55 23.3 L17.95 24.1 M0.75 20.15 Q1.0 19.3 0.75 19.35 0.1 16.35 0.0 14.1 -0.1 10.6 0.6 8.55 1.25 6.5 2.35 5.7 3.4 4.85 4.45 5.05 7.15 5.5 8.25 7.65 9.35 9.7 9.45 13.25 L9.6 17.0 9.45 19.7 9.4 20.3 7.75 18.8 Q6.1 17.8 4.6 17.8 3.0 17.8 2.0 18.5 1.55 18.85 0.75 20.15" fill="#0b4f7d" fill-rule="evenodd" stroke="none"/>
    <path d="M17.95 24.1 L18.55 23.3 Q21.15 20.5 24.25 19.55 L30.0 19.7 Q32.45 20.65 33.7 23.5 L33.9 24.0 34.15 25.6 Q34.25 26.55 33.95 27.05 33.7 27.6 32.95 26.9 32.15 26.1 30.1 25.2 28.1 24.3 25.25 23.95 L20.1 24.25 19.25 24.45 19.15 24.5 18.55 24.4 17.8 24.3 17.95 24.1 M9.4 20.3 L9.5 20.4 Q8.8 19.95 6.95 19.8 5.05 19.6 3.05 19.8 L0.75 20.15 Q1.55 18.85 2.0 18.5 3.0 17.8 4.6 17.8 6.1 17.8 7.75 18.8 L9.4 20.3" fill="#0c1748" fill-rule="evenodd" stroke="none"/>
  </g>
</svg>
