<?xml version="1.0" encoding="UTF-8" standalone="no"?>
<svg xmlns:xlink="http://www.w3.org/1999/xlink" height="225.7px" width="254.35px" xmlns="http://www.w3.org/2000/svg">
  <g transform="matrix(1.0, 0.0, 0.0, 1.0, 0.0, 0.0)">
    <path d="M183.45 60.0 L183.1 60.25 168.1 59.75 165.4 70.65 Q171.05 70.9 176.25 72.15 L178.65 72.9 182.95 74.4 189.6 76.7 201.1 80.35 224.55 105.2 245.0 141.8 254.35 196.45 253.75 197.95 248.4 198.45 252.65 209.65 251.8 210.45 227.75 224.6 Q224.55 222.0 221.85 218.95 219.75 216.55 219.55 213.05 L219.25 208.8 219.15 205.8 219.35 202.7 219.8 199.95 214.0 200.2 212.25 196.9 210.6 193.55 209.0 190.15 205.75 182.3 207.75 224.15 207.6 224.9 206.25 225.7 46.65 225.7 45.9 225.5 45.15 224.15 46.6 179.2 37.05 199.2 33.7 199.05 36.65 205.6 Q35.65 210.65 33.9 215.5 L32.7 218.7 32.5 219.05 29.65 221.2 24.9 224.35 1.95 210.5 1.3 209.25 5.85 197.4 0.85 197.05 0.0 195.55 2.3 165.85 19.25 125.75 59.9 80.4 84.65 69.85 83.45 60.45 67.35 61.75 66.95 61.45 66.6 61.1 66.4 60.7 66.35 60.3 66.3 59.75 84.35 8.55 95.05 0.0 157.25 0.0 168.05 9.75 183.75 58.65 183.45 60.0 M162.65 59.0 L162.2 58.15 156.55 25.9 119.5 13.05 95.25 22.95 89.55 58.75 88.85 59.65 86.45 60.15 87.7 70.25 128.15 84.25 162.55 68.5 165.1 59.65 162.65 59.0 M199.15 82.65 L183.75 78.05 183.4 83.05 194.8 115.25 205.3 173.65 215.35 197.15 251.1 195.3 242.1 142.6 222.3 107.15 199.15 82.65 M172.35 93.15 L172.75 75.45 164.85 73.55 132.5 130.85 169.75 104.75 166.3 103.0 162.5 100.7 162.05 99.95 162.05 99.4 172.35 93.15 M175.75 75.15 L175.1 94.8 166.6 99.8 174.0 103.9 173.85 105.55 129.45 136.7 131.75 222.6 204.7 222.7 202.35 174.15 191.9 116.2 180.45 83.75 180.8 77.1 175.75 75.15 M164.95 56.5 L180.2 57.5 165.3 11.05 156.65 3.0 95.6 3.0 87.05 9.95 69.9 58.55 86.75 57.1 92.45 21.6 93.35 20.45 118.9 10.0 119.95 10.0 158.35 23.35 159.35 24.5 164.95 56.5 M131.05 35.25 L128.2 35.2 127.65 34.65 127.85 33.55 141.75 33.35 142.35 34.25 141.75 35.2 137.95 35.25 131.05 35.25 M107.0 35.3 L101.1 36.7 100.7 36.55 100.45 35.3 Q108.05 33.3 116.05 33.7 L116.9 34.4 116.7 35.45 113.9 35.6 107.0 35.3 M103.65 61.9 L102.0 62.6 105.65 63.65 Q118.5 68.05 132.0 65.45 138.45 64.15 144.25 61.1 137.9 57.2 130.5 56.55 126.4 56.35 123.0 58.5 117.65 55.4 113.05 57.1 108.4 58.8 103.65 61.9 M94.45 65.35 L93.95 64.0 Q103.9 60.2 112.9 54.55 118.25 54.55 122.9 56.4 128.5 53.05 134.45 54.95 137.75 55.95 140.9 57.55 147.45 60.6 154.2 62.8 L154.55 63.1 153.65 64.5 146.85 62.2 Q134.5 68.25 120.9 68.1 110.3 68.0 100.6 64.2 L100.25 63.3 94.45 65.35 M94.65 97.55 L95.8 98.4 95.85 99.25 87.85 108.05 122.4 130.6 83.9 75.05 76.25 77.35 77.55 97.9 94.65 97.55 M108.25 96.35 L114.5 83.05 86.4 73.4 101.6 95.4 108.25 96.35 M117.5 83.75 L116.0 86.9 122.35 98.4 129.2 98.0 135.95 89.05 134.15 84.85 Q131.2 86.1 128.4 85.85 122.9 85.55 117.5 83.75 M114.45 90.25 L110.5 98.6 Q110.05 99.65 108.95 99.45 L103.95 98.7 112.2 110.65 119.75 99.85 114.45 90.25 M118.1 76.5 L118.85 75.65 119.65 75.75 120.25 76.75 Q125.45 77.65 130.45 76.65 L131.15 75.7 132.2 75.9 132.35 76.95 Q125.35 81.3 118.3 76.9 L118.1 76.5 M142.45 95.8 L149.4 94.65 162.35 71.9 136.85 83.6 142.45 95.8 M140.9 98.8 L137.35 92.15 131.9 99.4 141.05 109.6 147.55 98.0 141.85 98.95 140.9 98.8 M61.8 92.35 L60.15 84.6 21.6 127.6 5.15 166.75 3.1 194.25 35.55 196.15 Q37.15 191.9 39.0 187.8 L42.95 179.65 44.8 176.35 Q45.75 174.75 45.9 173.05 L48.4 147.35 Q48.95 141.85 50.35 136.45 L61.8 92.35 M62.75 82.35 L64.8 92.75 50.55 147.5 48.2 222.7 128.75 222.7 126.5 138.25 126.7 137.55 126.45 136.95 84.7 109.55 84.2 108.05 90.85 100.55 75.95 100.9 75.2 100.1 73.25 78.05 62.75 82.35 M128.85 131.25 L139.5 112.35 129.3 101.0 122.3 101.4 114.05 113.25 126.85 131.75 128.85 131.25 M249.3 208.8 L245.35 199.0 223.5 199.7 220.25 205.75 222.3 213.7 228.25 208.85 229.5 209.6 229.5 211.25 223.1 216.65 223.35 217.6 228.3 221.45 249.3 208.8 M33.6 205.45 L30.45 199.25 8.5 198.8 4.6 208.6 25.55 221.25 30.45 217.5 30.55 216.45 Q30.15 216.35 29.85 216.05 L24.6 211.25 Q24.15 210.85 24.1 210.25 24.1 209.6 24.5 209.15 24.9 208.7 25.55 208.65 26.15 208.65 26.6 209.05 L31.0 213.1 33.6 205.45" fill="#1a1a1a" fill-rule="evenodd" stroke="none"/>
    <path d="M164.95 56.5 L159.35 24.5 158.35 23.35 119.95 10.0 118.9 10.0 93.35 20.45 92.45 21.6 86.75 57.1 69.9 58.55 87.05 9.95 95.6 3.0 156.65 3.0 165.3 11.05 180.2 57.5 164.95 56.5 M175.75 75.15 L180.8 77.1 180.45 83.75 191.9 116.2 202.35 174.15 204.7 222.7 131.75 222.6 129.45 136.7 173.85 105.55 174.0 103.9 166.6 99.8 175.1 94.8 175.75 75.15 M172.35 93.15 L162.05 99.4 162.05 99.95 162.5 100.7 166.3 103.0 169.75 104.75 132.5 130.85 164.85 73.55 172.75 75.45 172.35 93.15 M199.15 82.65 L222.3 107.15 242.1 142.6 251.1 195.3 215.35 197.15 205.3 173.65 194.8 115.25 183.4 83.05 183.75 78.05 199.15 82.65 M94.65 97.55 L77.55 97.9 76.25 77.35 83.9 75.05 122.4 130.6 87.85 108.05 95.85 99.25 95.8 98.4 94.65 97.55 M62.75 82.35 L73.25 78.05 75.2 100.1 75.95 100.9 90.85 100.55 84.2 108.05 84.7 109.55 126.45 136.95 126.7 137.55 126.5 138.25 128.75 222.7 48.2 222.7 50.55 147.5 64.8 92.75 62.75 82.35 M61.8 92.35 L50.35 136.45 Q48.95 141.85 48.4 147.35 L45.9 173.05 Q45.75 174.75 44.8 176.35 L42.95 179.65 39.0 187.8 Q37.15 191.9 35.55 196.15 L3.1 194.25 5.15 166.75 21.6 127.6 60.15 84.6 61.8 92.35" fill="#591f0b" fill-rule="evenodd" stroke="none"/>
    <path d="M136.9 26.6 L132.75 29.5 Q129.95 31.55 126.55 30.6 L126.65 30.1 Q129.15 27.85 132.4 26.8 L134.65 25.8 Q139.45 23.0 144.3 25.45 140.15 24.3 136.9 26.6 M131.05 35.25 L137.95 35.25 Q137.2 37.85 134.2 38.15 131.25 38.05 131.05 35.25 M123.35 46.85 Q123.6 45.2 125.05 44.85 L126.05 44.7 127.5 46.7 128.85 46.45 131.25 43.75 Q131.55 48.15 126.8 47.65 L124.25 47.05 124.7 46.85 123.35 46.85 124.1 48.4 123.15 49.5 119.9 48.15 122.35 48.2 123.35 46.85 M107.0 35.3 L113.9 35.6 Q113.35 38.6 110.2 38.55 107.1 38.55 107.0 35.3 M117.8 31.2 Q113.1 30.45 109.05 27.5 105.8 25.05 101.8 26.1 L98.9 26.8 Q103.15 21.95 108.9 24.9 112.8 26.95 116.55 29.2 117.85 29.95 117.8 31.2 M113.15 44.15 Q113.95 45.9 115.85 46.4 116.65 45.05 118.35 44.95 L119.85 46.7 Q117.9 47.55 115.65 47.55 113.15 47.45 112.45 45.15 L113.15 44.15" fill="#000000" fill-rule="evenodd" stroke="none"/>
    <path d="M103.65 61.9 Q108.4 58.8 113.05 57.1 117.65 55.4 123.0 58.5 126.4 56.35 130.5 56.55 137.9 57.2 144.25 61.1 138.45 64.15 132.0 65.45 118.5 68.05 105.65 63.65 L102.0 62.6 103.65 61.9" fill="#854582" fill-rule="evenodd" stroke="none"/>
    <path d="M108.25 96.35 L101.6 95.4 86.4 73.4 114.5 83.05 108.25 96.35 M114.45 90.25 L119.75 99.85 112.2 110.65 103.95 98.7 108.95 99.45 Q110.05 99.65 110.5 98.6 L114.45 90.25 M140.9 98.8 L141.85 98.95 147.55 98.0 141.05 109.6 131.9 99.4 137.35 92.15 140.9 98.8 M142.45 95.8 L136.85 83.6 162.35 71.9 149.4 94.65 142.45 95.8" fill="#d1b8a2" fill-rule="evenodd" stroke="none"/>
    <path d="M162.65 59.0 L165.1 59.65 162.55 68.5 128.15 84.25 87.7 70.25 86.45 60.15 88.85 59.65 89.55 58.75 95.25 22.95 119.5 13.05 156.55 25.9 162.2 58.15 162.65 59.0 M136.9 26.6 Q140.15 24.3 144.3 25.45 139.45 23.0 134.65 25.8 L132.4 26.8 Q129.15 27.85 126.65 30.1 L126.55 30.6 Q129.95 31.55 132.75 29.5 L136.9 26.6 M137.95 35.25 L141.75 35.2 142.35 34.25 141.75 33.35 127.85 33.55 127.65 34.65 128.2 35.2 131.05 35.25 Q131.25 38.05 134.2 38.15 137.2 37.85 137.95 35.25 M123.35 46.85 L124.7 46.85 124.25 47.05 126.8 47.65 Q131.55 48.15 131.25 43.75 L128.85 46.45 127.5 46.7 126.05 44.7 125.05 44.85 Q123.6 45.2 123.35 46.85 L122.35 48.2 119.9 48.15 123.15 49.5 124.1 48.4 123.35 46.85 M113.9 35.6 L116.7 35.45 116.9 34.4 116.05 33.7 Q108.05 33.3 100.45 35.3 L100.7 36.55 101.1 36.7 107.0 35.3 Q107.1 38.55 110.2 38.55 113.35 38.6 113.9 35.6 M113.15 44.15 L112.45 45.15 Q113.15 47.45 115.65 47.55 117.9 47.55 119.85 46.7 L118.35 44.95 Q116.65 45.05 115.85 46.4 113.95 45.9 113.15 44.15 M117.8 31.2 Q117.85 29.95 116.55 29.2 112.8 26.95 108.9 24.9 103.15 21.95 98.9 26.8 L101.8 26.1 Q105.8 25.05 109.05 27.5 113.1 30.45 117.8 31.2 M94.45 65.35 L100.25 63.3 100.6 64.2 Q110.3 68.0 120.9 68.1 134.5 68.25 146.85 62.2 L153.65 64.5 154.55 63.1 154.2 62.8 Q147.45 60.6 140.9 57.55 137.75 55.95 134.45 54.95 128.5 53.05 122.9 56.4 118.25 54.55 112.9 54.55 103.9 60.2 93.95 64.0 L94.45 65.35 M118.1 76.5 L118.3 76.9 Q125.35 81.3 132.35 76.95 L132.2 75.9 131.15 75.7 130.45 76.65 Q125.45 77.65 120.25 76.75 L119.65 75.75 118.85 75.65 118.1 76.5 M33.6 205.45 L31.0 213.1 26.6 209.05 Q26.15 208.65 25.55 208.65 24.9 208.7 24.5 209.15 24.1 209.6 24.1 210.25 24.15 210.85 24.6 211.25 L29.85 216.05 Q30.15 216.35 30.55 216.45 L30.45 217.5 25.55 221.25 4.6 208.6 8.5 198.8 30.45 199.25 33.6 205.45 M249.3 208.8 L228.3 221.45 223.35 217.6 223.1 216.65 229.5 211.25 229.5 209.6 228.25 208.85 222.3 213.7 220.25 205.75 223.5 199.7 245.35 199.0 249.3 208.8" fill="#e6c6b0" fill-rule="evenodd" stroke="none"/>
    <path d="M117.5 83.75 Q122.9 85.55 128.4 85.85 131.2 86.1 134.15 84.85 L135.95 89.05 129.2 98.0 122.35 98.4 116.0 86.9 117.5 83.75 M128.85 131.25 L126.85 131.75 114.05 113.25 122.3 101.4 129.3 101.0 139.5 112.35 128.85 131.25" fill="#331c1a" fill-rule="evenodd" stroke="none"/>
  </g>
</svg>
