<?xml version="1.0" encoding="UTF-8" standalone="no"?>
<svg xmlns:xlink="http://www.w3.org/1999/xlink" height="273.65px" width="266.95px" xmlns="http://www.w3.org/2000/svg">
  <g transform="matrix(1.0, 0.0, 0.0, 1.0, 0.0, 0.0)">
    <path d="M196.75 61.35 L193.2 75.65 205.2 82.65 225.5 94.35 244.7 105.35 253.2 110.25 266.95 181.25 252.05 258.15 238.55 273.65 28.15 273.65 8.85 253.25 0.0 171.25 20.2 108.6 33.05 100.0 Q45.05 91.95 58.2 83.2 L75.7 71.7 Q74.1 67.65 71.0 58.05 L65.25 40.05 62.45 31.05 104.75 0.0 178.0 4.0 204.55 31.65 201.9 41.65 196.75 61.35" fill="#47525f" fill-rule="evenodd" stroke="none"/>
    <path d="M175.4 5.7 L198.45 33.2 189.25 76.05 251.45 113.75 263.2 183.1 262.0 188.3 71.9 271.7 30.6 271.7 10.9 250.9 5.75 171.9 22.05 112.25 82.75 74.0 66.4 33.2 106.55 5.7 175.4 5.7" fill="#bab9ba" fill-rule="evenodd" stroke="none"/>
    <path d="M262.0 188.25 L246.85 255.45 231.95 271.65 71.9 271.65 262.0 188.25" fill="#9c9c9c" fill-rule="evenodd" stroke="none"/>
    <path d="M175.35 5.7 L198.45 33.2 192.05 63.05 40.6 100.55 82.7 74.0 66.4 33.2 106.55 5.7 175.35 5.7" fill="#9c9c9c" fill-rule="evenodd" stroke="none"/>
    <path d="M105.95 22.25 L113.95 13.85 115.45 15.1 107.85 23.7 105.95 22.25" fill="#57565b" fill-rule="evenodd" stroke="none"/>
    <path d="M116.95 18.8 L116.95 19.1 Q116.25 24.15 110.95 24.6 109.25 24.55 107.85 23.7 L107.85 21.75 112.25 18.6 115.8 14.9 116.65 16.5 116.95 16.6 116.95 18.7 116.95 18.8" fill="#47525f" fill-rule="evenodd" stroke="none"/>
    <path d="M105.95 22.25 L105.95 20.1 113.95 11.8 113.95 13.85 105.95 22.25" fill="#47525f" fill-rule="evenodd" stroke="none"/>
    <path d="M104.75 16.85 L105.95 19.4 105.95 22.3 Q104.55 20.0 104.75 19.25 L104.75 16.85" fill="#79818b" fill-rule="evenodd" stroke="none"/>
    <path d="M109.25 13.8 Q112.1 11.9 113.6 11.55 L113.95 11.8 106.0 20.1 105.65 19.6 Q105.5 17.05 109.25 13.8" fill="#d0cfd0" fill-rule="evenodd" stroke="none"/>
    <path d="M104.75 16.65 Q105.45 11.55 110.75 10.85 112.3 10.85 113.55 11.55 112.1 11.9 109.2 13.8 105.5 17.05 105.6 19.6 104.8 18.25 104.75 16.65" fill="#e9e9eb" fill-rule="evenodd" stroke="none"/>
    <path d="M114.45 19.65 Q112.9 21.3 110.5 21.55 L107.85 21.75 115.8 13.4 Q116.45 15.8 114.45 19.65" fill="#bab9ba" fill-rule="evenodd" stroke="none"/>
    <path d="M116.95 16.8 Q116.45 22.1 110.95 22.6 109.25 22.55 107.85 21.75 L110.45 21.55 Q112.8 21.3 114.35 19.65 116.35 15.8 115.8 13.4 116.95 14.85 116.95 16.8" fill="#b0aeb3" fill-rule="evenodd" stroke="none"/>
    <path d="M234.55 126.1 L242.55 117.7 244.05 118.95 236.45 127.55 234.55 126.1" fill="#57565b" fill-rule="evenodd" stroke="none"/>
    <path d="M245.5 122.65 L245.5 122.95 Q244.8 128.0 239.5 128.45 237.8 128.4 236.4 127.55 L236.4 125.6 240.8 122.45 244.35 118.75 245.2 120.35 245.5 120.45 245.5 122.55 245.5 122.65" fill="#47525f" fill-rule="evenodd" stroke="none"/>
    <path d="M234.55 126.1 L234.55 123.95 242.55 115.65 242.55 117.7 234.55 126.1" fill="#47525f" fill-rule="evenodd" stroke="none"/>
    <path d="M233.35 120.7 L234.55 123.25 234.55 126.15 Q233.15 123.85 233.35 123.1 L233.35 120.7" fill="#79818b" fill-rule="evenodd" stroke="none"/>
    <path d="M237.8 117.65 Q240.65 115.75 242.15 115.4 L242.5 115.65 234.55 123.95 234.2 123.45 Q234.05 120.9 237.8 117.65" fill="#d0cfd0" fill-rule="evenodd" stroke="none"/>
    <path d="M233.35 120.5 Q234.05 115.4 239.35 114.7 240.9 114.7 242.15 115.4 240.7 115.75 237.8 117.65 234.1 120.9 234.2 123.45 233.4 122.1 233.35 120.5" fill="#e9e9eb" fill-rule="evenodd" stroke="none"/>
    <path d="M243.0 123.5 Q241.45 125.15 239.05 125.4 L236.4 125.6 244.35 117.25 Q245.0 119.65 243.0 123.5" fill="#bab9ba" fill-rule="evenodd" stroke="none"/>
    <path d="M245.5 120.65 Q245.0 125.95 239.5 126.45 237.8 126.4 236.4 125.6 L239.0 125.4 Q241.35 125.15 242.9 123.5 244.9 119.65 244.35 117.25 245.5 118.7 245.5 120.65" fill="#b0aeb3" fill-rule="evenodd" stroke="none"/>
    <path d="M32.05 265.75 L40.05 257.35 41.55 258.6 33.95 267.2 32.05 265.75" fill="#57565b" fill-rule="evenodd" stroke="none"/>
    <path d="M43.0 262.25 L43.0 262.55 Q42.3 267.6 37.0 268.05 35.3 268.0 33.9 267.15 L33.9 265.2 38.3 262.05 41.85 258.35 42.7 259.95 43.0 260.05 43.0 262.15 43.0 262.25" fill="#47525f" fill-rule="evenodd" stroke="none"/>
    <path d="M32.05 265.75 L32.05 263.6 40.05 255.3 40.05 257.35 32.05 265.75" fill="#47525f" fill-rule="evenodd" stroke="none"/>
    <path d="M30.85 260.3 L32.05 262.85 32.05 265.75 Q30.65 263.45 30.85 262.7 L30.85 260.3" fill="#79818b" fill-rule="evenodd" stroke="none"/>
    <path d="M35.3 257.3 Q38.15 255.4 39.65 255.05 L40.0 255.3 32.05 263.6 31.7 263.1 Q31.55 260.55 35.3 257.3" fill="#d0cfd0" fill-rule="evenodd" stroke="none"/>
    <path d="M30.85 260.15 Q31.55 255.05 36.85 254.35 38.4 254.35 39.65 255.05 38.2 255.4 35.3 257.3 31.6 260.55 31.7 263.1 30.9 261.75 30.85 260.15" fill="#e9e9eb" fill-rule="evenodd" stroke="none"/>
    <path d="M40.5 263.15 Q38.95 264.8 36.55 265.05 L33.9 265.25 41.85 256.9 Q42.5 259.3 40.5 263.15" fill="#bab9ba" fill-rule="evenodd" stroke="none"/>
    <path d="M43.0 260.3 Q42.5 265.6 37.0 266.1 35.3 266.05 33.9 265.25 L36.5 265.05 Q38.85 264.8 40.4 263.15 42.4 259.3 41.85 256.9 43.0 258.35 43.0 260.3" fill="#b0aeb3" fill-rule="evenodd" stroke="none"/>
    <path d="M252.65 204.45 Q252.4 207.25 249.5 207.5 246.6 207.25 246.35 204.45 246.6 201.65 249.5 201.4 252.4 201.65 252.65 204.45" fill="#47525f" fill-rule="evenodd" stroke="none"/>
    <path d="M246.25 203.15 L252.55 202.7 252.65 204.45 246.35 204.8 246.25 203.15" fill="#47525f" fill-rule="evenodd" stroke="none"/>
    <path d="M250.9 200.4 Q249.4 200.5 248.0 201.65 246.85 203.15 246.8 204.75 246.25 204.0 246.25 203.05 246.5 200.25 249.4 200.0 250.2 200.0 250.9 200.4" fill="#e9e9eb" fill-rule="evenodd" stroke="none"/>
    <path d="M250.45 204.7 Q248.85 205.55 247.3 205.25 L246.8 204.7 Q246.9 203.15 248.05 201.6 249.4 200.5 250.9 200.35 251.5 200.65 251.9 201.2 252.05 203.4 250.45 204.7" fill="#d0cfd0" fill-rule="evenodd" stroke="none"/>
    <path d="M252.55 203.05 Q252.25 205.85 249.4 206.1 248.1 206.05 247.25 205.3 248.85 205.5 250.4 204.6 252.0 203.35 251.9 201.2 252.5 202.0 252.55 203.05" fill="#b0aeb3" fill-rule="evenodd" stroke="none"/>
    <path d="M198.25 227.4 Q198.0 230.2 195.1 230.45 192.2 230.2 191.95 227.4 192.2 224.6 195.1 224.35 198.0 224.6 198.25 227.4" fill="#47525f" fill-rule="evenodd" stroke="none"/>
    <path d="M191.9 226.05 L198.2 225.6 198.3 227.35 192.0 227.7 191.9 226.05" fill="#47525f" fill-rule="evenodd" stroke="none"/>
    <path d="M196.55 223.3 Q195.05 223.4 193.65 224.55 192.5 226.05 192.45 227.65 191.9 226.9 191.9 225.95 192.15 223.15 195.05 222.9 195.85 222.9 196.55 223.3" fill="#e9e9eb" fill-rule="evenodd" stroke="none"/>
    <path d="M196.05 227.6 Q194.45 228.45 192.9 228.15 L192.4 227.6 Q192.5 226.05 193.65 224.5 195.0 223.4 196.5 223.25 L197.5 224.1 Q197.65 226.3 196.05 227.6" fill="#d0cfd0" fill-rule="evenodd" stroke="none"/>
    <path d="M198.2 225.95 Q197.9 228.75 195.05 229.0 193.75 228.95 192.9 228.2 194.5 228.4 196.05 227.5 197.65 226.25 197.55 224.1 198.15 224.9 198.2 225.95" fill="#b0aeb3" fill-rule="evenodd" stroke="none"/>
    <path d="M183.8 234.6 Q183.55 237.4 180.65 237.65 177.75 237.4 177.5 234.6 177.75 231.8 180.65 231.55 183.55 231.8 183.8 234.6" fill="#47525f" fill-rule="evenodd" stroke="none"/>
    <path d="M177.4 233.3 L183.7 232.85 183.8 234.6 177.5 234.95 177.4 233.3" fill="#47525f" fill-rule="evenodd" stroke="none"/>
    <path d="M182.05 230.55 Q180.55 230.65 179.15 231.8 178.0 233.3 177.95 234.9 177.4 234.15 177.4 233.2 177.65 230.4 180.55 230.15 L182.05 230.55" fill="#e9e9eb" fill-rule="evenodd" stroke="none"/>
    <path d="M181.6 234.85 Q180.0 235.7 178.45 235.4 L177.95 234.85 Q178.05 233.3 179.2 231.75 180.55 230.65 182.05 230.5 L183.05 231.35 Q183.2 233.55 181.6 234.85" fill="#d0cfd0" fill-rule="evenodd" stroke="none"/>
    <path d="M183.7 233.2 Q183.4 236.0 180.55 236.25 179.25 236.2 178.4 235.45 180.0 235.65 181.55 234.75 183.15 233.5 183.05 231.35 183.65 232.15 183.7 233.2" fill="#b0aeb3" fill-rule="evenodd" stroke="none"/>
    <path d="M81.5 84.5 Q81.25 87.3 78.35 87.55 75.45 87.3 75.2 84.5 75.45 81.7 78.35 81.45 81.25 81.7 81.5 84.5" fill="#47525f" fill-rule="evenodd" stroke="none"/>
    <path d="M75.15 83.2 L81.45 82.75 81.55 84.5 75.25 84.85 75.15 83.2" fill="#47525f" fill-rule="evenodd" stroke="none"/>
    <path d="M79.8 80.45 Q78.3 80.55 76.9 81.7 75.75 83.2 75.7 84.8 75.15 84.05 75.15 83.1 75.4 80.3 78.3 80.05 L79.8 80.45" fill="#e9e9eb" fill-rule="evenodd" stroke="none"/>
    <path d="M79.3 84.75 Q77.7 85.6 76.15 85.3 L75.65 84.75 Q75.75 83.2 76.9 81.65 78.25 80.55 79.75 80.4 L80.75 81.25 Q80.9 83.45 79.3 84.75" fill="#d0cfd0" fill-rule="evenodd" stroke="none"/>
    <path d="M81.45 83.1 Q81.15 85.9 78.3 86.15 77.0 86.1 76.15 85.35 77.75 85.55 79.3 84.65 80.9 83.4 80.8 81.25 81.4 82.05 81.45 83.1" fill="#b0aeb3" fill-rule="evenodd" stroke="none"/>
    <path d="M95.5 80.5 Q95.25 83.3 92.35 83.55 89.45 83.3 89.2 80.5 89.45 77.7 92.35 77.45 95.25 77.7 95.5 80.5" fill="#47525f" fill-rule="evenodd" stroke="none"/>
    <path d="M89.15 79.2 L95.45 78.75 95.55 80.5 89.25 80.85 89.15 79.2" fill="#47525f" fill-rule="evenodd" stroke="none"/>
    <path d="M93.8 76.45 Q92.3 76.55 90.9 77.7 89.75 79.2 89.7 80.8 89.15 80.05 89.15 79.1 89.4 76.3 92.3 76.05 93.1 76.05 93.8 76.45" fill="#e9e9eb" fill-rule="evenodd" stroke="none"/>
    <path d="M93.3 80.75 Q91.7 81.6 90.15 81.3 L89.65 80.75 Q89.75 79.2 90.9 77.65 92.25 76.55 93.75 76.4 L94.75 77.25 Q94.9 79.45 93.3 80.75" fill="#d0cfd0" fill-rule="evenodd" stroke="none"/>
    <path d="M95.45 79.1 Q95.15 81.9 92.3 82.15 91.0 82.1 90.15 81.35 91.75 81.55 93.3 80.65 94.9 79.4 94.8 77.25 95.4 78.05 95.45 79.1" fill="#b0aeb3" fill-rule="evenodd" stroke="none"/>
    <path d="M188.0 58.0 Q187.75 60.8 184.85 61.05 181.95 60.8 181.7 58.0 181.95 55.2 184.85 54.95 187.75 55.2 188.0 58.0" fill="#47525f" fill-rule="evenodd" stroke="none"/>
    <path d="M181.65 56.7 L187.95 56.25 188.05 58.0 181.75 58.35 181.65 56.7" fill="#47525f" fill-rule="evenodd" stroke="none"/>
    <path d="M186.3 53.95 Q184.8 54.05 183.4 55.2 182.25 56.7 182.2 58.3 181.65 57.55 181.65 56.6 181.9 53.8 184.8 53.55 L186.3 53.95" fill="#e9e9eb" fill-rule="evenodd" stroke="none"/>
    <path d="M185.8 58.25 Q184.2 59.1 182.65 58.8 L182.15 58.25 Q182.25 56.7 183.4 55.15 184.75 54.05 186.25 53.9 L187.25 54.75 Q187.4 56.95 185.8 58.25" fill="#d0cfd0" fill-rule="evenodd" stroke="none"/>
    <path d="M187.95 56.6 Q187.65 59.4 184.8 59.65 183.5 59.6 182.65 58.85 184.25 59.05 185.8 58.15 187.4 56.9 187.3 54.75 187.9 55.55 187.95 56.6" fill="#b0aeb3" fill-rule="evenodd" stroke="none"/>
  </g>
</svg>
