<?xml version="1.0" encoding="UTF-8" standalone="no"?>
<svg xmlns:xlink="http://www.w3.org/1999/xlink" height="283.05px" width="185.2px" xmlns="http://www.w3.org/2000/svg">
  <g transform="matrix(1.0, 0.0, 0.0, 1.0, -0.05, 0.0)">
    <path d="M164.4 150.75 Q165.0 154.3 162.35 156.75 159.05 159.8 155.35 157.65 L155.3 155.7 Q156.7 156.5 158.4 156.55 163.9 156.05 164.4 150.75 M161.4 145.75 L161.4 147.8 153.4 156.2 153.4 154.05 153.45 154.05 161.4 145.75 M115.45 72.7 L116.2 73.3 Q119.2 75.55 121.05 71.45 L121.2 70.7 Q121.95 72.9 120.15 74.15 115.5 77.1 114.9 71.35 L115.45 72.7 M82.6 2.65 L124.5 0.0 131.55 119.85 175.0 141.7 185.25 210.95 181.85 277.3 175.75 283.05 13.85 283.05 0.7 267.85 0.05 222.85 26.05 137.6 60.6 120.3 82.6 2.65 M124.5 78.45 L121.95 2.8 87.3 3.3 70.0 91.05 63.8 122.1 30.7 141.45 3.45 222.5 6.2 265.85 10.8 272.45 16.8 281.05 173.3 281.05 177.85 275.8 179.55 211.3 177.85 199.15 169.85 142.5 126.0 123.6 124.5 78.45 M81.25 80.6 Q82.1 84.85 78.15 85.4 75.3 85.15 75.05 82.35 L75.0 81.25 Q75.05 82.0 75.45 82.6 L76.3 83.2 Q77.4 84.7 80.1 82.95 81.4 82.1 81.25 80.6 M61.4 138.9 L61.4 136.75 68.25 129.65 69.4 128.45 69.4 130.5 61.4 138.9 M72.35 133.45 Q72.95 136.55 70.95 138.9 67.8 142.55 63.25 140.3 L63.25 138.4 Q64.65 139.2 66.35 139.25 71.85 138.75 72.35 133.45 M22.15 275.1 Q22.2 275.85 22.6 276.45 L23.1 277.0 23.45 277.05 Q23.5 277.65 25.25 277.65 28.45 277.6 28.4 274.45 29.15 277.95 26.0 279.1 L24.7 279.1 Q21.8 278.25 22.15 275.1 M27.65 274.2 L27.65 274.25 27.5 274.75 27.65 274.2 M174.85 211.65 Q175.5 214.9 172.45 215.7 170.15 216.25 169.15 214.3 168.5 213.05 168.5 211.7 168.6 212.5 169.05 213.15 169.1 211.7 170.05 210.35 L170.15 210.3 Q169.15 211.7 169.05 213.15 L169.55 213.7 Q170.4 214.45 171.7 214.5 174.45 214.25 174.85 211.65" fill="#47525f" fill-rule="evenodd" stroke="none"/>
    <path d="M155.35 157.65 Q159.05 159.8 162.35 156.75 165.0 154.3 164.4 150.75 L163.25 147.35 Q163.65 155.7 155.3 155.7 L162.2 148.45 161.4 147.8 161.4 145.75 161.05 145.5 160.7 145.6 Q160.75 145.0 158.95 144.85 153.25 145.2 152.2 150.8 L152.2 153.15 Q152.0 153.9 153.4 156.2 L155.35 157.65 M70.0 91.05 L69.8 92.0 124.5 78.45 126.0 123.6 169.85 142.5 177.85 199.15 10.8 272.45 6.2 265.85 3.45 222.5 30.7 141.45 63.8 122.1 70.0 91.05 M60.2 133.55 L60.25 135.85 Q60.35 137.5 61.4 138.9 L63.25 140.3 Q67.8 142.55 70.95 138.9 72.95 136.55 72.35 133.45 L71.2 130.05 Q71.65 137.65 64.25 138.55 L63.25 138.4 70.2 131.15 69.4 130.5 69.4 128.45 68.25 129.65 69.35 128.45 69.0 128.2 Q67.8 127.55 66.2 127.5 60.95 128.3 60.2 133.55 M153.15 152.75 L153.15 152.7 153.2 152.55 153.15 152.75 M153.45 154.05 L153.4 154.05 153.4 154.0 153.45 154.05" fill="#bab9ba" fill-rule="evenodd" stroke="none"/>
    <path d="M120.55 69.2 L119.5 68.35 118.8 68.1 Q115.2 67.85 114.9 71.35 115.5 77.1 120.15 74.15 121.95 72.9 121.2 70.7 121.05 69.85 120.55 69.2 M70.0 91.05 L87.3 3.3 121.95 2.8 124.5 78.45 69.8 92.0 70.0 91.05 M177.85 199.15 L179.55 211.3 177.85 275.8 173.3 281.05 16.8 281.05 10.8 272.45 177.85 199.15 M81.25 80.6 Q81.1 79.75 80.6 79.1 L80.5 80.3 80.55 79.1 79.55 78.25 78.85 78.0 Q75.2 77.75 75.0 81.25 L75.05 82.35 Q75.3 85.15 78.15 85.4 82.1 84.85 81.25 80.6 M26.7 272.1 L26.0 271.85 Q22.4 271.5 22.15 275.1 21.8 278.25 24.7 279.1 L26.0 279.1 Q29.15 277.95 28.4 274.45 28.25 273.6 27.75 272.95 L27.65 274.25 27.65 274.2 27.7 272.95 26.7 272.1 M173.15 208.8 L172.45 208.5 Q168.95 208.2 168.5 211.7 168.5 213.05 169.15 214.3 170.15 216.25 172.45 215.7 175.5 214.9 174.85 211.65 L174.2 209.6 174.2 210.05 173.15 208.8 M170.05 210.35 L170.55 210.1 170.15 210.3 170.05 210.35" fill="#9c9c9c" fill-rule="evenodd" stroke="none"/>
    <path d="M155.3 155.7 L155.35 157.65 153.4 156.2 161.4 147.8 162.2 148.45 155.3 155.7 M69.4 130.5 L70.2 131.15 63.25 138.4 63.25 140.3 61.4 138.9 69.4 130.5" fill="#57565b" fill-rule="evenodd" stroke="none"/>
    <path d="M153.4 156.2 Q152.0 153.9 152.2 153.15 L152.2 150.8 Q152.3 152.25 153.05 153.55 L153.15 152.7 153.15 152.75 153.1 153.55 153.4 154.0 153.4 154.05 153.4 156.2 M61.4 138.9 Q60.35 137.5 60.25 135.85 L60.2 133.55 Q60.3 135.0 61.05 136.25 L61.4 136.75 61.4 138.9" fill="#79818b" fill-rule="evenodd" stroke="none"/>
    <path d="M160.7 145.6 L161.05 145.5 161.4 145.75 153.45 154.05 153.4 154.0 153.1 153.55 153.15 152.75 153.2 152.55 153.7 151.5 Q156.05 147.2 160.7 145.6 M115.45 72.7 Q115.55 71.3 116.45 69.95 L119.5 68.35 120.55 69.2 Q120.55 70.9 119.3 72.1 118.0 73.3 116.2 73.3 L115.45 72.7 M79.55 78.25 L80.55 79.1 80.5 80.3 Q80.5 81.5 79.3 82.35 78.05 83.2 76.3 83.2 L75.45 82.6 Q75.55 81.05 76.7 79.5 78.05 78.4 79.55 78.25 M61.4 136.75 L61.05 136.25 Q62.6 130.55 68.2 128.5 L69.0 128.2 69.35 128.45 68.25 129.65 61.4 136.75 M22.6 276.45 Q22.7 274.9 23.85 273.35 25.2 272.25 26.7 272.1 L27.7 272.95 27.65 274.2 27.5 274.75 Q27.5 275.7 26.35 276.4 25.15 277.05 23.45 277.05 L23.1 277.0 22.6 276.45 M173.15 208.8 L174.2 210.05 Q174.2 211.55 172.85 212.65 171.5 213.7 169.55 213.7 L169.05 213.15 Q169.15 211.7 170.15 210.3 L170.55 210.1 173.15 208.8" fill="#d0cfd0" fill-rule="evenodd" stroke="none"/>
    <path d="M152.2 150.8 Q153.25 145.2 158.95 144.85 160.75 145.0 160.7 145.6 156.05 147.2 153.7 151.5 L153.2 152.55 153.15 152.7 153.05 153.55 Q152.3 152.25 152.2 150.8 M119.5 68.35 L116.45 69.95 Q115.55 71.3 115.45 72.7 L114.9 71.35 Q115.2 67.85 118.8 68.1 L119.5 68.35 M75.0 81.25 Q75.2 77.75 78.85 78.0 L79.55 78.25 Q78.05 78.4 76.7 79.5 75.55 81.05 75.45 82.6 75.05 82.0 75.0 81.25 M61.05 136.25 Q60.3 135.0 60.2 133.55 60.95 128.3 66.2 127.5 67.8 127.55 69.0 128.2 L68.2 128.5 Q62.6 130.55 61.05 136.25 M22.15 275.1 Q22.4 271.5 26.0 271.85 L26.7 272.1 Q25.2 272.25 23.85 273.35 22.7 274.9 22.6 276.45 22.2 275.85 22.15 275.1 M168.5 211.7 Q168.95 208.2 172.45 208.5 L173.15 208.8 170.55 210.1 170.05 210.35 Q169.1 211.7 169.05 213.15 168.6 212.5 168.5 211.7" fill="#e9e9eb" fill-rule="evenodd" stroke="none"/>
    <path d="M164.4 150.75 Q163.9 156.05 158.4 156.55 156.7 156.5 155.3 155.7 163.65 155.7 163.25 147.35 L164.4 150.75 M116.2 73.3 Q118.0 73.3 119.3 72.1 120.55 70.9 120.55 69.2 121.05 69.85 121.2 70.7 L121.05 71.45 Q119.2 75.55 116.2 73.3 M80.5 80.3 L80.6 79.1 Q81.1 79.75 81.25 80.6 81.4 82.1 80.1 82.95 77.4 84.7 76.3 83.2 78.05 83.2 79.3 82.35 80.5 81.5 80.5 80.3 M63.25 138.4 L64.25 138.55 Q71.65 137.65 71.2 130.05 L72.35 133.45 Q71.85 138.75 66.35 139.25 64.65 139.2 63.25 138.4 M27.65 274.25 L27.75 272.95 Q28.25 273.6 28.4 274.45 28.45 277.6 25.25 277.65 23.5 277.65 23.45 277.05 25.15 277.05 26.35 276.4 27.5 275.7 27.5 274.75 L27.65 274.25 M174.2 210.05 L174.2 209.6 174.85 211.65 Q174.45 214.25 171.7 214.5 170.4 214.45 169.55 213.7 171.5 213.7 172.85 212.65 174.2 211.55 174.2 210.05" fill="#b0aeb3" fill-rule="evenodd" stroke="none"/>
  </g>
</svg>
