<?xml version="1.0" encoding="UTF-8" standalone="no"?>
<svg xmlns:xlink="http://www.w3.org/1999/xlink" height="104.8px" width="59.05px" xmlns="http://www.w3.org/2000/svg">
  <g transform="matrix(1.0, 0.0, 0.0, 1.0, -3.85, 0.0)">
    <path d="M40.65 53.85 L40.9 52.2 40.9 52.15 40.95 52.2 42.2 53.55 Q43.6 55.45 43.75 57.7 L43.75 57.75 Q45.55 59.0 46.85 60.35 L49.25 63.2 Q50.1 64.3 51.45 64.55 L54.15 64.8 54.8 64.8 56.95 65.0 59.75 65.7 Q61.1 66.25 62.05 67.3 63.3 68.85 62.75 71.1 62.05 73.65 60.35 75.25 58.65 76.9 56.45 77.6 54.25 78.4 52.05 78.2 L50.0 77.85 48.75 77.4 47.6 77.1 Q47.1 77.15 46.0 77.9 45.1 78.55 44.5 80.8 L43.3 85.9 42.05 91.2 40.3 96.55 Q39.25 99.15 37.7 101.2 35.9 103.4 33.7 104.35 L29.55 104.45 28.15 103.45 Q27.3 102.65 27.0 100.95 26.6 99.2 27.35 96.25 28.35 92.1 28.45 89.65 L28.25 86.1 25.9 89.4 22.4 93.55 Q18.4 97.75 15.15 97.7 13.35 97.55 12.1 96.2 L11.85 95.75 Q10.85 94.4 11.1 92.8 11.35 91.1 12.35 89.3 13.25 87.45 14.4 85.75 L15.35 84.25 16.7 81.65 17.3 79.8 13.55 81.0 9.05 81.55 Q6.75 81.45 5.35 80.0 L5.2 79.85 Q3.5 77.7 3.95 76.05 4.4 74.65 6.15 73.6 7.85 72.55 10.5 71.45 13.8 69.95 16.05 68.65 L18.9 66.8 Q19.3 63.7 20.3 62.0 21.3 60.3 22.25 59.55 23.15 58.85 23.3 58.85 L23.2 58.85 25.55 57.45 Q25.7 55.95 26.45 54.6 27.5 52.6 29.6 51.3 30.15 50.9 30.8 50.65 L30.6 52.2 30.25 52.35 Q28.5 53.5 27.6 55.15 26.7 56.8 26.8 58.7 26.95 60.5 28.15 62.15 29.35 63.75 31.15 64.55 32.95 65.3 34.95 65.2 37.0 65.05 38.8 64.0 40.55 62.85 41.5 61.2 42.35 59.5 42.25 57.7 42.1 55.8 40.95 54.2 L40.65 53.85 M21.5 62.9 L20.5 66.0 19.85 68.8 19.6 70.0 19.5 68.05 18.4 68.8 15.75 70.45 12.4 72.1 Q10.7 72.75 9.05 73.5 7.35 74.25 6.35 75.2 5.35 76.15 5.6 77.4 6.05 79.25 7.8 79.65 L11.8 79.95 14.8 79.25 17.45 78.15 18.6 77.55 18.9 75.65 Q18.95 78.35 18.55 80.25 L17.65 83.15 17.15 84.15 Q14.7 87.65 13.7 89.95 12.65 92.2 12.85 93.6 12.95 95.0 14.2 95.9 L17.25 95.75 Q19.1 94.7 21.0 92.7 22.9 90.75 24.1 88.75 25.95 85.95 27.25 84.6 L28.6 83.25 Q29.85 85.1 30.0 87.55 30.1 89.95 29.65 92.55 L28.8 97.3 Q28.5 99.45 28.6 100.65 28.7 101.9 29.2 102.45 29.7 102.95 30.5 103.2 31.65 103.55 33.45 102.55 35.25 101.5 37.1 99.15 38.0 97.95 38.85 95.55 L40.45 90.4 41.85 85.0 43.05 80.9 Q43.65 78.85 44.45 77.45 45.2 76.05 46.45 75.65 47.75 75.2 50.05 76.15 52.4 76.95 54.75 76.6 57.15 76.2 58.95 74.7 60.75 73.2 61.3 70.8 61.6 69.0 60.7 68.0 59.7 67.0 58.1 66.55 L54.95 66.1 52.5 65.95 50.75 65.85 Q50.05 65.8 49.25 65.1 48.35 64.35 46.9 62.4 45.35 60.45 43.7 59.25 43.5 60.6 42.85 61.85 41.85 63.85 39.75 65.15 37.6 66.4 35.25 66.55 32.85 66.7 30.7 65.75 28.55 64.8 27.1 62.9 25.7 60.95 25.55 58.75 L25.55 58.4 24.8 59.05 22.8 60.85 Q22.05 61.45 21.5 62.9" fill="#000000" fill-rule="evenodd" stroke="none"/>
    <path d="M30.6 52.2 L30.45 53.2 29.9 57.2 Q30.15 58.85 31.35 60.0 32.55 61.2 34.2 61.65 L37.3 61.4 Q38.75 60.7 39.65 58.6 L40.55 54.55 40.65 53.85 40.95 54.2 Q42.1 55.8 42.25 57.7 42.35 59.5 41.5 61.2 40.55 62.85 38.8 64.0 37.0 65.05 34.95 65.2 32.95 65.3 31.15 64.55 29.35 63.75 28.15 62.15 26.95 60.5 26.8 58.7 26.7 56.8 27.6 55.15 28.5 53.5 30.25 52.35 L30.6 52.2 M21.5 62.9 Q22.05 61.45 22.8 60.85 L24.8 59.05 25.55 58.4 25.55 58.75 Q25.7 60.95 27.1 62.9 28.55 64.8 30.7 65.75 32.85 66.7 35.25 66.55 37.6 66.4 39.75 65.15 41.85 63.85 42.85 61.85 43.5 60.6 43.7 59.25 45.35 60.45 46.9 62.4 48.35 64.35 49.25 65.1 50.05 65.8 50.75 65.85 L52.5 65.95 54.95 66.1 58.1 66.55 Q59.7 67.0 60.7 68.0 61.6 69.0 61.3 70.8 60.75 73.2 58.95 74.7 57.15 76.2 54.75 76.6 52.4 76.95 50.05 76.15 47.75 75.2 46.45 75.65 45.2 76.05 44.45 77.45 43.65 78.85 43.05 80.9 L41.85 85.0 40.45 90.4 38.85 95.55 Q38.0 97.95 37.1 99.15 35.25 101.5 33.45 102.55 31.65 103.55 30.5 103.2 29.7 102.95 29.2 102.45 28.7 101.9 28.6 100.65 28.5 99.45 28.8 97.3 L29.65 92.55 Q30.1 89.95 30.0 87.55 29.85 85.1 28.6 83.25 L27.25 84.6 Q25.95 85.95 24.1 88.75 22.9 90.75 21.0 92.7 19.1 94.7 17.25 95.75 L14.2 95.9 Q12.95 95.0 12.85 93.6 12.65 92.2 13.7 89.95 14.7 87.65 17.15 84.15 L17.65 83.15 18.55 80.25 Q18.95 78.35 18.9 75.65 L18.6 77.55 17.45 78.15 14.8 79.25 11.8 79.95 7.8 79.65 Q6.05 79.25 5.6 77.4 5.35 76.15 6.35 75.2 7.35 74.25 9.05 73.5 10.7 72.75 12.4 72.1 L15.75 70.45 18.4 68.8 19.5 68.05 19.6 70.0 19.85 68.8 20.5 66.0 21.5 62.9" fill="#ffffff" fill-rule="evenodd" stroke="none"/>
    <path d="M50.05 2.85 L50.55 3.1 53.9 5.15 55.15 6.2 54.7 8.15 53.45 13.1 52.9 15.45 51.85 19.55 50.2 26.05 49.95 27.05 Q46.85 29.4 44.15 30.65 L41.6 31.55 Q37.8 32.55 35.0 31.65 L33.2 30.9 Q31.6 30.05 30.45 28.7 28.8 26.7 28.2 24.15 L29.2 20.85 30.8 15.65 31.5 13.5 Q33.25 7.95 35.65 5.15 38.05 2.4 40.7 1.65 L45.9 1.45 Q48.15 1.95 50.05 2.85 M48.1 33.5 Q46.05 37.95 43.2 40.0 L43.05 40.15 Q40.2 42.15 37.1 42.4 L31.6 41.85 31.15 41.7 Q28.35 40.7 26.55 39.15 24.8 37.55 24.65 35.95 L25.45 32.9 25.75 32.0 25.45 32.95 Q27.7 36.55 31.55 38.15 L32.1 38.35 39.8 38.65 Q41.65 38.2 43.4 37.25 45.8 35.9 48.1 33.5" fill="#f7bd1d" fill-rule="evenodd" stroke="none"/>
    <path d="M52.9 15.45 L52.1 20.1 50.95 26.8 50.0 32.05 49.45 34.3 Q47.3 39.2 44.05 41.45 L42.75 42.3 41.95 48.6 41.75 50.25 41.65 50.8 41.45 52.2 41.45 52.25 41.15 54.05 41.0 54.8 40.0 59.3 Q39.05 61.65 37.4 62.4 L34.0 62.65 Q32.2 62.2 30.85 60.85 29.55 59.55 29.25 57.75 L29.85 53.35 30.05 52.2 30.3 50.55 30.95 46.05 31.35 43.35 30.4 43.05 Q27.25 41.95 25.2 40.2 23.15 38.45 22.95 36.75 L23.8 33.45 25.6 27.35 27.7 20.55 29.4 14.95 30.15 12.65 Q31.95 6.7 34.45 3.8 36.9 0.95 39.6 0.3 L44.95 0.45 Q47.55 1.2 49.65 2.6 L50.05 2.85 Q48.15 1.95 45.9 1.45 L40.7 1.65 Q38.05 2.4 35.65 5.15 33.25 7.95 31.5 13.5 L30.8 15.65 29.2 20.85 28.2 24.15 28.15 24.05 26.95 28.05 26.7 28.85 25.75 32.0 25.45 32.9 24.65 35.95 Q24.8 37.55 26.55 39.15 28.35 40.7 31.15 41.7 L31.6 41.85 37.1 42.4 Q40.2 42.15 43.05 40.15 L43.2 40.0 Q46.05 37.95 48.1 33.5 L48.1 33.45 48.15 33.35 48.9 31.35 50.0 27.0 49.95 27.05 50.2 26.05 51.85 19.55 52.9 15.45 M40.7 48.3 L41.35 42.95 Q39.3 43.8 37.2 43.9 L32.45 43.6 32.05 46.3 31.7 48.85 31.55 49.95 31.05 53.3 30.5 57.6 Q30.9 59.95 32.55 60.9 34.2 61.85 36.05 61.25 37.9 60.65 38.85 58.3 L39.85 53.85 40.15 51.95 40.55 49.25 40.7 48.3" fill="#0b0923" fill-rule="evenodd" stroke="none"/>
    <path d="M28.2 24.15 Q28.8 26.7 30.45 28.7 31.6 30.05 33.2 30.9 L35.0 31.65 Q37.8 32.55 41.6 31.55 L44.15 30.65 Q46.85 29.4 49.95 27.05 L50.0 27.0 48.9 31.35 48.15 33.35 48.1 33.45 48.1 33.5 Q45.8 35.9 43.4 37.25 41.65 38.2 39.8 38.65 L32.1 38.35 31.55 38.15 Q27.7 36.55 25.45 32.95 L25.75 32.0 26.7 28.85 26.95 28.05 28.15 24.05 28.2 24.15" fill="#e21f08" fill-rule="evenodd" stroke="none"/>
    <path d="M40.7 48.3 L40.55 49.25 40.15 51.95 39.85 53.85 38.85 58.3 Q37.9 60.65 36.05 61.25 34.2 61.85 32.55 60.9 30.9 59.95 30.5 57.6 L31.05 53.3 31.55 49.95 31.7 48.85 32.05 46.3 32.45 43.6 37.2 43.9 Q39.3 43.8 41.35 42.95 L40.7 48.3" fill="#468fbc" fill-rule="evenodd" stroke="none"/>
  </g>
</svg>
