<?xml version="1.0" encoding="UTF-8" standalone="no"?>
<svg xmlns:xlink="http://www.w3.org/1999/xlink" height="275.75px" width="157.5px" xmlns="http://www.w3.org/2000/svg">
  <g transform="matrix(1.0, 0.0, 0.0, 1.0, 0.0, 0.0)">
    <path d="M94.0 43.25 L95.4 44.1 95.5 44.65 101.95 131.45 141.35 148.25 141.55 148.7 152.95 195.7 153.85 245.1 Q159.0 254.2 156.85 264.45 L129.25 273.3 124.3 269.5 123.4 275.25 122.5 275.75 39.0 275.75 Q36.5 271.7 37.4 266.8 L31.3 271.75 3.35 263.0 0.0 226.6 4.5 191.5 16.6 156.6 22.5 144.15 57.9 132.4 66.4 74.25 67.55 73.05 68.45 73.1 71.3 75.75 73.7 70.05 67.0 69.1 66.4 68.45 66.45 67.55 80.9 26.35 75.0 26.0 74.65 24.35 81.0 19.75 81.15 3.9 82.15 2.85 85.7 5.45 86.6 5.5 91.75 0.0 93.25 0.55 93.9 11.05 96.6 10.1 Q98.4 14.65 98.65 19.55 99.0 25.5 94.0 25.85 L92.3 25.9 91.85 26.4 90.95 26.6 84.3 26.6 78.35 43.2 88.7 35.25 89.4 35.6 Q85.2 41.35 79.95 45.85 L80.2 46.2 86.4 47.8 86.4 48.7 82.25 49.35 84.3 54.2 82.85 54.8 77.05 46.85 69.95 66.7 79.8 67.15 Q79.45 63.15 77.7 59.65 L72.65 63.7 72.0 62.85 Q72.75 61.35 73.9 60.2 75.8 58.2 78.45 57.7 86.4 86.55 86.8 116.9 L85.75 117.25 84.45 110.4 84.15 109.95 68.9 77.55 60.9 133.65 81.15 139.5 99.0 132.45 93.75 61.65 89.6 61.8 89.1 60.6 89.35 59.85 92.35 58.9 Q93.7 55.2 92.35 51.55 L90.3 56.5 88.85 56.4 88.85 54.65 Q88.95 51.9 90.05 49.5 L92.35 47.7 92.7 47.7 92.7 47.35 92.6 45.85 Q92.3 43.95 94.0 43.25 M90.95 12.0 L90.7 5.45 Q89.5 7.1 87.75 8.15 85.8 9.3 84.0 7.95 L84.0 12.35 90.95 12.0 M84.0 15.35 L84.0 16.95 86.85 15.2 84.0 15.35 M94.8 14.1 L81.0 23.35 94.95 22.7 94.8 14.1 M76.85 70.2 L73.2 78.95 84.0 104.55 Q82.7 87.15 80.25 70.15 L76.85 70.2 M42.15 142.3 L58.05 150.75 57.85 151.5 51.4 156.3 74.3 177.55 58.2 135.55 42.15 142.3 M75.9 142.95 L78.05 148.5 82.7 148.8 86.8 142.1 86.2 140.75 Q83.75 141.7 81.25 142.0 L77.1 141.5 75.9 142.95 M62.0 137.1 L66.8 149.7 74.0 140.6 62.0 137.1 M24.1 146.75 L19.8 156.75 34.5 171.9 41.0 253.6 40.5 254.85 42.0 262.85 40.35 264.45 40.5 272.75 80.5 272.75 76.55 183.75 48.0 157.25 47.6 155.65 53.55 151.1 37.05 142.4 24.1 146.75 M7.5 192.05 L3.05 226.9 5.35 244.85 10.55 239.1 11.25 238.65 25.25 234.8 26.0 234.8 Q26.4 234.9 26.7 235.15 L37.3 245.0 31.55 172.7 18.65 159.85 7.5 192.05 M71.0 160.6 L78.05 177.8 87.8 157.8 82.75 151.85 77.7 151.45 71.0 160.6 M75.3 149.7 L73.75 145.7 68.05 152.95 69.75 157.3 75.3 149.7 M92.75 146.85 L97.6 136.25 89.1 139.6 92.75 146.85 M101.35 135.3 L82.15 177.65 106.4 157.35 98.15 152.35 98.05 151.4 114.25 139.8 101.35 135.3 M110.0 158.25 L79.55 183.75 83.5 272.75 121.1 272.75 121.35 267.05 118.3 264.55 118.25 264.1 Q118.2 263.75 118.3 263.4 120.75 256.3 120.55 248.9 L120.9 248.3 124.5 173.4 124.65 172.85 135.5 149.0 117.7 141.05 102.35 151.7 Q107.2 153.7 110.3 157.55 L110.0 158.25 M89.15 154.75 L91.15 150.4 88.5 145.1 85.35 150.25 89.15 154.75 M135.1 239.45 Q142.6 238.05 149.5 240.8 L150.8 241.8 150.0 196.2 138.95 150.55 138.1 150.55 127.5 173.85 124.05 245.35 Q127.6 242.1 132.0 240.45 L134.8 239.55 123.7 249.75 123.8 250.35 125.35 255.7 125.45 255.9 127.3 259.2 136.9 257.9 Q137.35 256.25 138.1 254.8 138.3 254.35 138.85 254.4 L139.85 254.45 Q140.7 254.95 140.45 255.85 139.6 259.25 138.4 262.5 L137.7 262.9 136.8 262.8 136.15 262.0 Q136.05 261.7 136.1 261.4 L136.2 260.9 126.3 262.3 125.65 261.8 123.25 258.1 122.25 258.25 121.2 263.1 129.8 270.15 154.5 262.05 154.5 250.3 147.7 242.9 135.1 239.45 M12.45 241.45 L5.65 248.9 5.65 260.6 30.35 268.7 39.0 261.65 37.9 256.85 36.95 256.65 34.15 260.8 24.0 259.45 24.2 260.3 23.7 261.45 22.15 261.6 Q19.7 257.65 20.5 253.0 L20.8 252.6 21.95 252.8 22.45 253.75 23.25 256.45 32.85 257.75 Q35.8 253.45 36.45 248.3 L25.25 237.95 12.45 241.45" fill="#1a1a1a" fill-rule="evenodd" stroke="none"/>
    <path d="M90.95 12.0 L84.0 12.35 84.0 7.95 Q85.8 9.3 87.75 8.15 89.5 7.1 90.7 5.45 L90.95 12.0 M94.8 14.1 L94.95 22.7 81.0 23.35 94.8 14.1 M42.15 142.3 L58.2 135.55 74.3 177.55 51.4 156.3 57.85 151.5 58.05 150.75 42.15 142.3 M7.5 192.05 L18.65 159.85 31.55 172.7 37.3 245.0 26.7 235.15 Q26.4 234.9 26.0 234.8 L25.25 234.8 11.25 238.65 10.55 239.1 5.35 244.85 3.05 226.9 7.5 192.05 M24.1 146.75 L37.05 142.4 53.55 151.1 47.6 155.65 48.0 157.25 76.55 183.75 80.5 272.75 40.5 272.75 40.35 264.45 42.0 262.85 40.5 254.85 41.0 253.6 34.5 171.9 19.8 156.75 24.1 146.75 M110.0 158.25 L110.3 157.55 Q107.2 153.7 102.35 151.7 L117.7 141.05 135.5 149.0 124.65 172.85 124.5 173.4 120.9 248.3 120.55 248.9 Q120.75 256.3 118.3 263.4 118.2 263.75 118.25 264.1 L118.3 264.55 121.35 267.05 121.1 272.75 83.5 272.75 79.55 183.75 110.0 158.25 M101.35 135.3 L114.25 139.8 98.05 151.4 98.15 152.35 106.4 157.35 82.15 177.65 101.35 135.3 M134.8 239.55 L132.0 240.45 Q127.6 242.1 124.05 245.35 L127.5 173.85 138.1 150.55 138.95 150.55 150.0 196.2 150.8 241.8 149.5 240.8 Q142.6 238.05 135.1 239.45 L134.8 239.55" fill="#591f0b" fill-rule="evenodd" stroke="none"/>
    <path d="M94.0 25.85 L94.0 43.25 Q92.3 43.95 92.6 45.85 L92.7 47.35 92.35 47.7 90.05 49.5 90.95 26.6 91.85 26.4 92.3 25.9 94.0 25.85 M84.0 15.35 L86.85 15.2 84.0 16.95 84.0 15.35" fill="#000000" fill-rule="evenodd" stroke="none"/>
    <path d="M92.7 47.35 L92.7 47.7 92.35 47.7 92.7 47.35" fill="#ae8367" fill-rule="evenodd" stroke="none"/>
    <path d="M62.0 137.1 L74.0 140.6 66.8 149.7 62.0 137.1 M92.75 146.85 L89.1 139.6 97.6 136.25 92.75 146.85 M75.3 149.7 L69.75 157.3 68.05 152.95 73.75 145.7 75.3 149.7 M89.15 154.75 L85.35 150.25 88.5 145.1 91.15 150.4 89.15 154.75" fill="#d1b8a2" fill-rule="evenodd" stroke="none"/>
    <path d="M135.1 239.45 L147.7 242.9 154.5 250.3 154.5 262.05 129.8 270.15 121.2 263.1 122.25 258.25 123.25 258.1 125.65 261.8 126.3 262.3 136.2 260.9 136.1 261.4 Q136.05 261.7 136.15 262.0 L136.8 262.8 137.7 262.9 138.4 262.5 Q139.6 259.25 140.45 255.85 140.7 254.95 139.85 254.45 L138.85 254.4 Q138.3 254.35 138.1 254.8 137.35 256.25 136.9 257.9 L127.3 259.2 125.45 255.9 125.35 255.7 123.8 250.35 123.7 249.75 134.8 239.55 135.1 239.45 M12.45 241.45 L25.25 237.95 36.45 248.3 Q35.8 253.45 32.85 257.75 L23.25 256.45 22.45 253.75 21.95 252.8 20.8 252.6 20.5 253.0 Q19.7 257.65 22.15 261.6 L23.7 261.45 24.2 260.3 24.0 259.45 34.15 260.8 36.95 256.65 37.9 256.85 39.0 261.65 30.35 268.7 5.65 260.6 5.65 248.9 12.45 241.45" fill="#e6c6b0" fill-rule="evenodd" stroke="none"/>
    <path d="M90.05 49.5 Q88.95 51.9 88.85 54.65 L88.85 56.4 90.3 56.5 92.35 51.55 Q93.7 55.2 92.35 58.9 L89.35 59.85 89.1 60.6 89.6 61.8 93.75 61.65 99.0 132.45 81.15 139.5 60.9 133.65 68.9 77.55 84.15 109.95 84.45 110.4 85.75 117.25 86.8 116.9 Q86.4 86.55 78.45 57.7 75.8 58.2 73.9 60.2 72.75 61.35 72.0 62.85 L72.65 63.7 77.7 59.65 Q79.45 63.15 79.8 67.15 L69.95 66.7 77.05 46.85 82.85 54.8 84.3 54.2 82.25 49.35 86.4 48.7 86.4 47.8 80.2 46.2 79.95 45.85 Q85.2 41.35 89.4 35.6 L88.7 35.25 78.35 43.2 84.3 26.6 90.95 26.6 90.05 49.5 M76.85 70.2 L80.25 70.15 Q82.7 87.15 84.0 104.55 L73.2 78.95 76.85 70.2" fill="#94ba92" fill-rule="evenodd" stroke="none"/>
    <path d="M75.9 142.95 L77.1 141.5 81.25 142.0 Q83.75 141.7 86.2 140.75 L86.8 142.1 82.7 148.8 78.05 148.5 75.9 142.95 M71.0 160.6 L77.7 151.45 82.75 151.85 87.8 157.8 78.05 177.8 71.0 160.6" fill="#331c1a" fill-rule="evenodd" stroke="none"/>
  </g>
</svg>
