<?xml version="1.0" encoding="UTF-8" standalone="no"?>
<svg xmlns:xlink="http://www.w3.org/1999/xlink" height="37.4px" width="47.9px" xmlns="http://www.w3.org/2000/svg">
  <g transform="matrix(1.0, 0.0, 0.0, 1.0, 0.0, 0.0)">
    <path d="M44.65 21.0 Q46.3 22.2 46.7 24.05 47.05 25.9 45.5 28.4 44.35 30.1 42.2 30.85 40.05 31.6 37.4 31.5 L32.25 30.7 Q28.55 29.5 25.8 27.55 23.05 25.6 21.3 23.75 L18.7 21.2 Q15.6 18.55 12.05 16.5 8.5 14.5 4.0 13.05 2.65 12.6 1.85 11.5 1.05 10.4 1.45 8.95 1.85 7.5 4.05 5.95 5.55 5.0 7.3 5.15 9.0 5.35 10.65 6.15 12.25 6.95 13.55 7.9 L15.45 9.5 Q14.75 10.75 15.0 12.15 15.2 13.55 15.7 14.4 L17.55 17.3 18.65 19.25 Q19.0 19.9 19.2 19.55 19.4 19.2 19.25 18.75 L18.25 17.15 16.7 14.8 Q15.85 13.5 15.7 11.75 15.5 10.05 16.65 8.85 L18.55 6.8 21.4 3.6 23.6 1.55 25.4 1.35 26.3 1.75 25.95 1.9 Q25.6 2.1 25.1 3.1 L24.25 5.05 23.2 7.4 22.15 9.4 21.0 11.6 Q20.65 12.45 20.6 13.15 L20.75 14.75 21.35 16.8 22.3 19.2 23.1 20.6 23.6 20.5 23.5 19.85 23.0 18.8 22.35 17.1 21.8 15.6 Q21.2 13.7 21.65 12.3 22.15 10.95 22.95 9.7 L24.75 6.0 Q25.4 4.3 26.2 3.15 26.8 2.4 28.0 2.45 29.2 2.55 30.35 3.45 31.5 4.35 32.0 6.0 32.25 7.4 31.55 8.95 L29.9 11.8 Q29.0 13.1 28.75 13.75 L29.25 14.85 30.15 16.5 30.75 17.8 Q30.9 18.3 30.9 18.0 L31.1 17.15 40.7 19.25 Q43.0 19.85 44.65 21.0 M26.2 29.3 Q28.7 30.85 31.85 31.85 34.6 32.65 37.5 32.7 L41.9 32.2 Q41.3 33.45 39.85 34.55 38.25 35.7 35.9 36.05 33.55 36.35 30.8 35.15 28.0 33.85 26.85 32.35 25.7 30.9 25.8 29.65 L25.9 29.1 26.2 29.3" fill="#ffffff" fill-rule="evenodd" stroke="none"/>
    <path d="M44.15 19.15 Q46.3 20.1 47.4 22.4 48.0 23.9 47.85 25.6 47.6 27.35 46.55 29.05 45.45 30.6 43.7 31.5 43.45 32.7 42.5 33.9 41.35 35.35 39.5 36.35 37.6 37.3 35.25 37.4 32.9 37.5 30.25 36.35 27.55 35.1 26.0 33.5 24.5 31.9 24.3 30.15 24.25 29.15 24.6 28.3 L24.65 28.25 21.95 26.1 19.0 23.25 18.4 22.65 17.85 22.1 Q14.5 19.3 11.05 17.35 7.6 15.45 3.6 14.2 2.15 13.75 1.2 12.75 0.25 11.75 0.05 10.45 -0.15 9.55 0.4 8.05 0.95 6.55 3.3 4.9 5.35 3.65 7.65 3.95 9.95 4.3 12.05 5.5 14.15 6.7 15.6 8.05 L15.75 7.9 17.45 6.05 20.75 2.45 22.85 0.5 Q23.85 -0.05 24.75 0.0 L26.25 0.35 26.95 0.75 27.65 1.0 28.65 1.3 Q29.95 1.5 31.25 2.6 32.6 3.65 33.2 5.7 33.4 6.45 33.25 7.35 33.1 8.75 32.1 10.55 L31.75 11.1 31.05 12.2 30.7 12.75 30.45 13.2 30.05 13.8 30.5 14.65 30.8 15.2 31.0 15.5 31.25 16.0 33.65 16.4 36.85 17.05 39.5 17.65 39.95 17.75 Q42.05 18.2 44.15 19.15 M44.65 21.0 Q43.0 19.85 40.7 19.25 L31.1 17.15 30.9 18.0 Q30.9 18.3 30.75 17.8 L30.15 16.5 29.25 14.85 28.75 13.75 Q29.0 13.1 29.9 11.8 L31.55 8.95 Q32.25 7.4 32.0 6.0 31.5 4.35 30.35 3.45 29.2 2.55 28.0 2.45 26.8 2.4 26.2 3.15 25.4 4.3 24.75 6.0 L22.95 9.7 Q22.15 10.95 21.65 12.3 21.2 13.7 21.8 15.6 L22.35 17.1 23.0 18.8 23.5 19.85 23.6 20.5 23.1 20.6 22.3 19.2 21.35 16.8 20.75 14.75 20.6 13.15 Q20.65 12.45 21.0 11.6 L22.15 9.4 23.2 7.4 24.25 5.05 25.1 3.1 Q25.6 2.1 25.95 1.9 L26.3 1.75 25.4 1.35 23.6 1.55 21.4 3.6 18.55 6.8 16.65 8.85 Q15.5 10.05 15.7 11.75 15.85 13.5 16.7 14.8 L18.25 17.15 19.25 18.75 Q19.4 19.2 19.2 19.55 19.0 19.9 18.65 19.25 L17.55 17.3 15.7 14.4 Q15.2 13.55 15.0 12.15 14.75 10.75 15.45 9.5 L13.55 7.9 Q12.25 6.95 10.65 6.15 9.0 5.35 7.3 5.15 5.55 5.0 4.05 5.95 1.85 7.5 1.45 8.95 1.05 10.4 1.85 11.5 2.65 12.6 4.0 13.05 8.5 14.5 12.05 16.5 15.6 18.55 18.7 21.2 L21.3 23.75 Q23.05 25.6 25.8 27.55 28.55 29.5 32.25 30.7 L37.4 31.5 Q40.05 31.6 42.2 30.85 44.35 30.1 45.5 28.4 47.05 25.9 46.7 24.05 46.3 22.2 44.65 21.0 M26.2 29.3 L25.9 29.1 25.8 29.65 Q25.7 30.9 26.85 32.35 28.0 33.85 30.8 35.15 33.55 36.35 35.9 36.05 38.25 35.7 39.85 34.55 41.3 33.45 41.9 32.2 L37.5 32.7 Q34.6 32.65 31.85 31.85 28.7 30.85 26.2 29.3" fill="#000000" fill-rule="evenodd" stroke="none"/>
  </g>
</svg>
