<?xml version="1.0" encoding="UTF-8" standalone="no"?>
<svg xmlns:xlink="http://www.w3.org/1999/xlink" height="206.2px" width="162.85px" xmlns="http://www.w3.org/2000/svg">
  <g transform="matrix(1.0, 0.0, 0.0, 1.0, -0.1, -0.05)">
    <path d="M105.3 49.15 L105.25 53.45 Q105.25 57.75 105.55 62.0 105.9 66.85 104.65 71.55 L109.85 71.4 Q114.35 73.1 117.6 76.65 121.75 81.2 126.3 85.15 125.4 82.7 125.05 80.1 124.6 77.15 124.6 74.25 124.6 71.35 124.9 68.55 125.15 66.4 126.35 64.45 127.95 61.9 130.3 60.3 L132.05 58.75 Q133.9 56.7 134.05 53.95 134.15 52.7 134.6 51.65 136.05 47.85 140.45 47.55 142.2 47.5 143.3 48.85 144.65 50.55 145.2 52.7 146.15 56.45 143.4 58.85 L146.45 56.65 148.2 48.9 Q148.6 47.4 149.9 46.35 152.3 44.35 155.25 45.3 L157.2 45.45 Q160.2 45.9 162.35 48.0 163.0 48.7 162.95 49.8 L162.7 51.9 160.55 61.05 Q159.95 63.7 157.7 65.15 160.1 66.65 160.8 69.4 L160.85 70.65 Q160.4 72.95 158.0 73.75 L153.8 74.95 Q148.75 75.95 144.25 78.7 144.95 80.9 143.85 82.8 142.5 85.2 139.8 85.75 142.4 92.7 143.55 100.1 143.95 102.85 143.9 105.65 143.85 108.85 141.85 111.8 141.15 112.9 139.95 113.6 138.1 114.55 136.15 114.25 134.1 113.65 132.15 112.25 124.25 106.55 117.85 99.05 116.15 100.3 114.3 101.1 L112.6 101.3 Q109.4 100.65 108.1 97.35 107.45 102.25 108.4 107.15 108.8 109.35 109.9 111.35 L111.7 114.6 Q112.5 116.05 112.9 117.65 113.65 120.8 111.85 123.5 109.0 127.75 104.3 129.8 105.1 139.25 99.05 146.45 95.35 150.8 89.85 152.25 92.6 155.6 96.25 158.1 L105.6 163.85 Q108.35 165.3 110.65 167.8 L112.8 170.5 Q113.45 171.55 113.75 172.75 L114.9 177.65 Q115.75 181.7 114.55 185.65 113.05 190.75 106.75 192.25 100.4 193.75 92.05 193.65 83.7 193.55 76.7 190.5 77.5 195.3 76.15 200.05 75.6 202.0 73.6 202.7 L69.05 203.65 Q61.5 205.35 54.0 205.9 L26.0 205.0 Q23.0 204.45 20.3 203.3 18.0 202.25 17.05 199.8 15.8 196.65 16.7 193.25 17.85 188.9 21.4 186.05 27.7 181.1 35.7 179.45 48.45 176.95 59.7 183.2 59.0 176.45 56.15 170.1 50.35 171.7 44.15 171.9 36.85 172.75 30.6 169.45 28.75 168.45 27.45 166.65 26.75 165.7 26.7 164.35 26.4 157.6 30.1 151.8 35.35 143.6 41.15 135.8 L45.4 129.5 Q47.05 126.75 49.35 124.55 L49.3 124.0 50.0 122.8 40.45 115.25 38.1 114.75 Q36.7 114.4 35.7 113.3 32.5 114.05 29.3 112.6 L27.25 111.6 Q23.0 109.25 21.45 104.7 L21.1 102.8 21.15 97.3 Q21.3 94.2 23.25 91.75 23.25 90.4 23.4 89.1 23.75 86.7 25.75 85.25 29.7 82.35 34.3 84.25 37.45 85.65 39.45 88.65 41.9 87.55 44.3 88.7 45.35 89.3 46.05 90.25 50.2 95.65 46.45 101.4 L46.95 105.3 50.05 107.85 54.45 95.55 50.75 91.75 53.5 85.8 Q47.2 83.3 41.15 79.95 38.5 78.45 36.5 76.4 32.4 72.0 31.15 66.0 29.9 59.85 33.4 54.7 36.0 51.25 39.9 50.0 L41.25 54.2 42.25 57.05 Q42.85 58.55 44.2 59.35 49.15 59.0 53.3 61.75 57.7 64.65 59.8 69.55 L60.45 73.25 Q60.7 75.7 59.85 77.9 63.85 74.2 68.85 72.05 73.5 70.15 78.0 71.75 L77.55 70.0 78.05 69.15 78.9 72.05 73.15 72.2 Q62.9 75.3 56.5 84.0 L54.25 87.65 52.55 91.4 Q59.8 99.0 69.6 102.9 L70.7 102.2 71.0 99.35 72.2 94.6 Q74.25 89.5 77.25 84.75 L78.05 83.55 Q74.0 92.75 72.2 102.6 L71.8 103.45 Q70.95 104.45 69.4 104.4 67.15 104.15 65.5 102.65 L61.75 113.4 Q60.35 118.3 57.8 122.75 L57.4 123.2 Q55.15 124.7 52.55 123.9 L51.35 123.45 Q51.1 126.55 53.4 129.15 56.85 133.0 61.8 134.1 69.35 135.85 77.1 135.4 89.45 134.8 100.65 130.0 104.55 128.35 107.9 125.75 109.4 124.6 110.35 122.75 111.6 120.45 110.4 118.05 109.1 115.5 107.4 113.35 106.85 111.65 106.65 109.95 106.25 106.65 106.15 103.3 L106.35 98.65 Q106.65 93.6 104.7 88.9 103.65 86.3 104.4 83.85 L107.3 92.4 108.6 96.2 Q109.35 98.0 110.2 99.25 111.3 100.8 112.65 100.4 114.9 99.55 116.95 98.05 L116.65 97.7 114.25 94.85 115.1 93.9 119.35 98.6 Q125.45 106.35 133.45 112.05 135.8 113.7 138.45 112.55 140.4 111.7 141.5 109.8 143.4 106.5 142.7 102.85 141.1 94.25 138.05 86.1 136.35 86.35 134.65 86.1 130.5 85.7 127.3 83.35 L135.4 100.05 123.1 88.1 123.5 87.75 122.85 87.8 Q118.65 89.35 115.7 92.8 L114.95 93.55 112.2 96.2 Q116.0 89.2 123.6 86.7 L124.8 86.65 124.5 85.8 Q123.9 84.5 122.65 83.8 L120.05 80.95 Q116.95 76.5 112.3 73.7 108.7 71.45 105.0 73.2 102.4 74.4 101.65 77.15 L100.75 77.35 100.75 76.15 Q98.5 73.7 95.4 72.75 90.15 71.4 85.2 73.25 L81.35 74.75 80.65 73.25 Q85.05 70.55 90.1 70.2 L91.9 70.2 90.35 64.9 91.45 65.2 92.85 70.3 Q94.65 70.5 96.5 71.15 L98.35 72.0 101.5 74.25 Q104.95 69.2 104.7 62.9 104.35 53.5 104.8 44.05 L105.45 43.85 105.3 49.15 M144.1 65.3 L144.65 65.4 144.95 65.45 Q147.3 64.05 150.0 63.45 153.45 63.0 156.55 64.5 158.05 63.5 158.7 61.75 160.85 55.8 161.95 49.55 160.5 47.25 157.75 47.2 156.35 47.55 155.15 48.2 154.05 48.85 153.5 50.0 151.65 53.65 151.0 57.7 L146.35 59.9 148.3 58.2 Q149.35 57.15 149.85 55.85 L151.9 50.4 Q152.9 47.9 155.05 46.65 L152.5 46.55 Q150.8 46.75 149.65 48.05 148.9 48.95 148.6 50.0 147.5 53.8 147.5 57.9 L143.7 60.05 142.6 58.7 143.4 56.05 Q144.0 54.1 143.3 52.25 142.45 49.85 140.0 48.9 138.65 49.3 137.55 50.1 136.45 50.8 136.15 52.0 L134.95 57.0 Q134.7 57.85 133.85 58.65 130.8 61.35 128.05 64.15 127.4 64.8 127.0 65.6 125.0 69.55 125.9 74.0 L126.6 73.7 Q127.35 76.35 129.25 78.25 131.05 80.15 133.7 80.5 139.3 80.75 143.95 77.5 145.35 76.5 146.85 75.75 150.4 73.85 154.5 73.25 156.0 73.1 157.45 72.4 L158.65 71.5 Q159.9 70.2 158.9 68.5 157.05 65.3 153.25 64.45 148.25 63.35 144.4 66.3 L143.8 65.95 143.55 65.7 139.7 64.1 136.75 63.5 134.5 63.85 Q133.0 64.1 132.25 65.7 L131.75 65.9 Q131.95 64.5 132.95 63.9 136.1 61.75 140.0 62.7 L141.2 63.05 143.6 64.6 144.05 65.3 144.25 65.75 144.6 65.6 144.95 65.45 144.65 65.4 144.5 65.4 144.1 65.3 M128.95 79.65 L125.7 77.25 Q125.9 80.5 128.65 82.35 133.55 85.65 139.2 84.25 142.3 83.25 143.05 80.25 L143.25 79.15 Q138.25 81.8 132.65 81.2 130.65 80.95 128.95 79.65 M125.05 87.35 L124.8 87.7 123.85 87.8 124.9 88.7 125.05 87.35 M127.15 87.05 L126.2 89.85 129.7 92.85 127.15 87.05 M39.55 51.1 Q37.95 51.95 36.8 53.1 33.15 56.65 32.2 61.7 31.35 66.25 33.35 70.45 34.75 73.4 37.4 75.4 39.45 77.0 42.1 76.8 L48.9 77.0 Q51.3 77.3 52.35 79.35 L51.1 75.95 52.45 77.95 Q53.55 79.75 52.6 81.75 52.1 79.3 49.65 78.45 44.55 76.65 39.2 77.55 41.85 79.55 44.6 80.85 48.3 82.6 52.35 82.85 55.05 82.3 56.95 79.95 58.85 77.6 59.1 74.8 59.5 70.75 57.25 67.25 L54.85 64.35 Q50.05 59.65 43.45 59.85 L42.55 58.8 Q40.55 55.2 39.55 51.1 M29.4 85.55 Q28.15 85.8 27.0 86.35 25.8 86.85 25.3 88.05 23.9 91.65 24.75 95.4 L23.9 92.85 Q21.7 97.25 23.2 101.75 L22.5 100.95 Q22.45 106.4 26.8 109.65 30.35 112.25 34.7 111.6 33.0 107.35 34.7 103.0 36.55 98.15 41.25 96.75 L42.65 97.1 Q43.6 97.4 44.5 98.25 L45.85 99.85 Q46.95 97.85 46.7 95.6 46.35 92.8 44.35 90.6 43.35 89.55 41.95 89.5 L39.7 89.95 Q36.75 90.35 34.75 88.05 L36.3 88.75 36.85 88.6 38.6 89.45 Q34.9 85.2 29.4 85.55 M55.35 82.7 Q54.45 83.45 53.2 83.65 L51.85 83.8 54.2 84.65 55.35 82.7 M45.1 101.15 Q44.6 100.0 43.9 99.0 42.9 97.95 41.55 97.8 39.35 97.5 37.9 99.2 L36.35 101.35 Q33.4 105.85 35.25 110.85 36.35 113.75 39.55 114.25 L38.1 112.75 Q37.0 111.7 36.5 110.15 35.5 106.95 37.3 104.1 38.9 101.55 41.65 100.45 42.55 100.0 43.15 100.6 L46.2 104.25 45.1 101.15 M49.3 108.7 Q47.7 108.05 46.55 106.65 44.45 104.15 42.9 101.35 40.05 101.7 38.45 103.9 36.5 106.45 37.35 109.55 37.55 110.35 38.1 111.0 41.65 115.2 45.9 118.7 48.85 121.1 52.25 122.65 L55.7 122.75 Q57.45 122.3 58.15 120.45 61.55 111.3 64.45 102.05 L55.4 96.25 50.55 109.25 49.3 108.7 M72.7 149.1 Q73.25 151.8 76.05 152.6 L80.25 152.8 Q89.0 152.15 95.95 146.95 97.55 145.7 98.8 144.1 99.95 142.55 100.75 140.85 L101.95 137.4 Q102.85 134.05 102.85 130.55 89.4 137.05 74.35 136.95 L63.3 135.75 Q59.6 135.0 56.3 133.4 51.6 131.25 49.75 126.4 44.85 134.4 39.05 141.75 33.15 149.2 30.05 157.95 29.3 160.05 29.65 162.35 31.65 160.6 34.3 161.45 L37.0 162.2 Q42.3 162.4 47.4 161.1 54.5 159.35 61.7 157.0 66.3 155.4 71.0 155.75 69.85 150.55 70.55 145.1 70.75 143.35 71.8 141.7 78.85 142.45 86.0 141.8 L74.15 143.7 72.6 143.65 Q72.05 147.0 72.7 149.1 M64.85 158.4 L67.05 157.2 Q57.7 158.25 48.8 161.35 42.65 163.6 36.3 163.2 L32.9 162.5 Q31.3 162.6 30.1 163.8 32.45 167.7 37.05 168.8 L40.4 169.65 Q48.0 170.1 55.6 168.45 L54.3 161.55 56.35 161.35 Q57.05 168.45 59.55 175.15 61.45 180.25 60.55 185.6 L58.75 186.55 56.75 187.15 53.3 187.6 59.0 184.7 58.85 184.2 Q51.85 180.45 43.95 180.5 34.05 180.55 25.6 185.45 22.5 187.25 20.2 190.05 17.4 193.55 18.6 197.8 19.8 202.05 24.0 202.6 23.9 200.2 24.7 197.95 26.2 193.5 30.4 191.45 27.35 193.9 25.75 197.25 24.5 199.9 25.0 202.75 44.45 205.75 64.0 203.0 L68.85 201.75 Q70.7 201.05 72.45 200.05 L73.45 199.1 Q75.15 195.7 74.7 191.8 72.75 174.35 65.75 158.15 L64.85 158.4 M94.6 159.25 L87.85 152.85 Q83.65 154.1 79.2 154.05 L77.1 153.95 75.65 153.7 Q81.8 159.85 89.0 164.45 89.5 165.55 89.25 166.85 L88.5 168.85 Q85.6 173.7 85.45 179.35 L85.25 178.95 Q84.15 176.2 85.15 173.35 L84.65 173.15 Q78.75 172.85 76.55 177.75 75.45 180.1 75.7 182.8 75.95 185.35 77.05 187.75 77.55 188.75 78.5 189.55 81.95 191.2 85.95 191.6 93.45 192.35 101.0 191.5 105.45 191.3 109.55 189.35 112.8 187.75 113.15 184.1 114.25 179.75 113.0 175.4 111.75 171.1 108.4 167.85 106.85 166.3 105.2 165.45 99.7 162.65 94.6 159.25 M71.8 152.2 Q73.5 153.85 74.0 156.25 74.5 158.55 73.2 160.35 71.65 162.5 69.7 163.85 L74.05 177.6 Q76.05 173.0 80.95 172.15 L84.7 171.55 87.5 167.2 88.4 165.2 Q81.15 160.95 75.15 155.2 L73.05 152.8 71.8 152.2 M71.5 157.7 Q69.55 156.55 67.15 157.2 L69.1 162.2 71.85 158.55 71.5 157.7" fill="#000000" fill-rule="evenodd" stroke="none"/>
    <path d="M143.8 65.95 L144.4 66.3 Q148.25 63.35 153.25 64.45 157.05 65.3 158.9 68.5 159.9 70.2 158.65 71.5 L157.45 72.4 Q156.0 73.1 154.5 73.25 150.4 73.85 146.85 75.75 145.35 76.5 143.95 77.5 139.3 80.75 133.7 80.5 131.05 80.15 129.25 78.25 127.35 76.35 126.6 73.7 L125.9 74.0 Q125.0 69.55 127.0 65.6 127.4 64.8 128.05 64.15 130.8 61.35 133.85 58.65 134.7 57.85 134.95 57.0 L136.15 52.0 Q136.45 50.8 137.55 50.1 138.65 49.3 140.0 48.9 142.45 49.85 143.3 52.25 144.0 54.1 143.4 56.05 L142.6 58.7 143.7 60.05 147.5 57.9 Q147.5 53.8 148.6 50.0 148.9 48.95 149.65 48.05 150.8 46.75 152.5 46.55 L155.05 46.65 Q152.9 47.9 151.9 50.4 L149.85 55.85 Q149.35 57.15 148.3 58.2 L146.35 59.9 151.0 57.7 Q151.65 53.65 153.5 50.0 154.05 48.85 155.15 48.2 156.35 47.55 157.75 47.2 160.5 47.25 161.95 49.55 160.85 55.8 158.7 61.75 158.05 63.5 156.55 64.5 153.45 63.0 150.0 63.45 147.3 64.05 144.95 65.45 L144.65 65.4 144.1 65.3 144.05 65.3 143.6 64.6 141.2 63.05 140.0 62.7 Q136.1 61.75 132.95 63.9 131.95 64.5 131.75 65.9 L132.25 65.7 Q133.0 64.1 134.5 63.85 L136.75 63.5 139.7 64.1 143.55 65.7 143.55 65.9 143.8 65.95 M144.65 65.4 L144.95 65.45 144.6 65.6 144.65 65.4 M46.25 39.6 Q47.95 46.15 47.25 52.85 L46.9 54.65 42.55 53.1 41.3 47.5 43.1 48.25 43.7 44.85 42.2 43.0 43.8 43.4 Q44.35 40.1 42.45 37.45 L41.6 37.75 42.7 35.55 Q44.25 35.45 45.1 37.2 L46.25 39.6 M40.65 43.0 L40.85 38.15 41.0 39.45 40.65 43.0 M128.95 79.65 Q130.65 80.95 132.65 81.2 138.25 81.8 143.25 79.15 L143.05 80.25 Q142.3 83.25 139.2 84.25 133.55 85.65 128.65 82.35 125.9 80.5 125.7 77.25 L128.95 79.65 M29.4 85.55 Q34.9 85.2 38.6 89.45 L36.85 88.6 36.3 88.75 34.75 88.05 Q36.75 90.35 39.7 89.95 L41.95 89.5 Q43.35 89.55 44.35 90.6 46.35 92.8 46.7 95.6 46.95 97.85 45.85 99.85 L44.5 98.25 Q43.6 97.4 42.65 97.1 L41.25 96.75 Q36.55 98.15 34.7 103.0 33.0 107.35 34.7 111.6 30.35 112.25 26.8 109.65 22.45 106.4 22.5 100.95 L23.2 101.75 Q21.7 97.25 23.9 92.85 L24.75 95.4 Q23.9 91.65 25.3 88.05 25.8 86.85 27.0 86.35 28.15 85.8 29.4 85.55 M45.1 101.15 L46.2 104.25 43.15 100.6 Q42.55 100.0 41.65 100.45 38.9 101.55 37.3 104.1 35.5 106.95 36.5 110.15 37.0 111.7 38.1 112.75 L39.55 114.25 Q36.35 113.75 35.25 110.85 33.4 105.85 36.35 101.35 L37.9 99.2 Q39.35 97.5 41.55 97.8 42.9 97.95 43.9 99.0 44.6 100.0 45.1 101.15" fill="#ffffff" fill-rule="evenodd" stroke="none"/>
    <path d="M98.55 14.45 L103.2 12.3 Q105.5 12.8 105.9 14.9 L106.35 18.8 Q106.9 33.15 115.1 44.8 117.4 48.1 120.15 51.3 122.85 54.35 123.35 58.2 123.7 60.65 122.55 62.85 123.8 58.5 120.05 53.7 L120.0 54.6 119.2 55.25 Q118.7 55.4 117.85 54.85 114.15 52.05 111.2 46.4 108.25 40.8 106.5 33.2 104.8 25.65 104.75 17.1 104.7 14.6 103.8 14.05 102.9 13.55 101.35 14.4 L99.35 15.7 98.4 14.7 98.55 14.45 M33.45 48.45 Q33.2 48.1 33.55 47.25 33.85 46.45 35.4 45.7 L37.4 45.5 Q38.1 45.85 38.15 46.3 38.25 47.4 35.85 48.45 33.95 49.45 33.45 48.45 M3.3 41.15 L3.95 40.95 8.45 43.3 10.15 43.45 Q14.8 43.4 19.05 41.25 28.25 36.55 36.1 29.85 37.0 29.1 38.0 28.95 L36.75 30.8 Q28.1 40.0 16.95 45.65 11.35 48.45 5.75 45.75 3.6 44.75 2.9 42.5 2.7 41.85 3.3 41.15" fill="#0f2953" fill-rule="evenodd" stroke="none"/>
    <path d="M33.4 54.7 L31.1 54.8 30.35 54.15 Q29.65 53.4 29.45 52.5 28.95 50.0 30.7 48.25 34.05 44.95 38.95 44.8 38.4 37.85 39.0 30.75 L24.5 43.7 Q20.8 46.85 16.2 48.45 10.05 50.65 4.25 48.15 2.1 47.3 0.8 45.25 -0.65 42.9 0.9 40.8 1.65 39.8 2.7 39.45 9.45 36.7 16.25 34.55 29.0 30.7 39.2 22.05 41.4 20.2 43.25 18.05 49.1 11.25 57.9 9.35 59.65 4.75 63.75 2.1 68.7 -0.95 74.15 0.55 79.45 2.05 82.35 6.9 L85.65 7.45 Q92.95 9.45 98.55 14.45 L98.4 14.7 99.35 15.7 101.35 14.4 Q102.9 13.55 103.8 14.05 104.7 14.6 104.75 17.1 104.8 25.65 106.5 33.2 108.25 40.8 111.2 46.4 114.15 52.05 117.85 54.85 118.7 55.4 119.2 55.25 L120.0 54.6 120.05 53.7 Q123.8 58.5 122.55 62.85 120.8 66.05 118.1 65.75 115.25 65.5 111.7 61.85 109.7 59.75 108.05 56.05 106.55 52.55 105.4 48.3 L105.3 49.15 105.45 43.85 104.8 44.05 Q105.55 36.95 104.5 30.0 104.1 27.35 103.3 24.8 101.2 18.45 96.1 14.15 89.25 8.3 80.4 7.6 L81.3 6.9 Q76.8 0.45 68.95 1.2 65.65 1.75 62.9 3.7 60.05 5.8 58.75 9.0 L59.05 9.4 60.0 9.75 56.7 10.85 Q52.9 11.9 49.65 14.05 46.8 15.9 44.75 18.45 48.25 15.25 52.9 14.4 L55.25 14.35 Q57.0 14.95 57.85 16.7 59.95 20.75 58.65 24.75 L58.15 25.45 Q56.65 26.3 55.4 25.05 L55.15 23.3 54.65 21.2 53.7 19.45 Q52.0 19.45 50.4 20.85 L44.5 25.85 44.4 26.0 43.3 26.95 41.4 28.6 39.95 30.45 39.5 36.9 39.5 37.4 Q39.5 41.75 40.1 46.45 L41.25 54.2 39.9 50.0 Q36.0 51.25 33.4 54.7 M101.75 19.1 Q101.7 17.5 101.35 16.95 101.0 16.35 100.2 16.8 L100.6 17.35 101.75 19.1 M3.3 41.15 Q2.7 41.85 2.9 42.5 3.6 44.75 5.75 45.75 11.35 48.45 16.95 45.65 28.1 40.0 36.75 30.8 L38.0 28.95 Q37.0 29.1 36.1 29.85 28.25 36.55 19.05 41.25 14.8 43.4 10.15 43.45 L8.45 43.3 3.95 40.95 3.3 41.15 M33.45 48.45 Q33.95 49.45 35.85 48.45 38.25 47.4 38.15 46.3 38.1 45.85 37.4 45.5 L35.4 45.7 Q33.85 46.45 33.55 47.25 33.2 48.1 33.45 48.45" fill="#0b0923" fill-rule="evenodd" stroke="none"/>
    <path d="M104.8 44.05 Q104.35 53.5 104.7 62.9 104.95 69.2 101.5 74.25 L98.35 72.0 Q99.5 69.1 99.25 65.95 99.15 64.7 98.3 64.05 97.6 63.4 96.8 63.2 92.4 62.5 88.35 64.2 L87.35 64.05 Q82.85 63.65 79.6 66.8 L78.1 67.15 Q69.15 69.75 59.8 69.55 57.7 64.65 53.3 61.75 49.15 59.0 44.2 59.35 42.85 58.55 42.25 57.05 L41.25 54.2 40.1 46.45 Q39.5 41.75 39.5 37.4 L40.15 38.5 40.85 38.15 40.65 43.0 40.65 44.35 Q40.6 46.05 41.3 47.5 L42.55 53.1 46.9 54.65 47.25 52.85 Q47.95 46.15 46.25 39.6 L46.6 40.45 Q46.1 36.65 43.45 34.1 L45.4 30.2 46.45 31.05 Q46.3 29.7 45.15 29.2 43.45 31.25 42.65 34.0 41.75 34.5 41.5 35.55 41.15 36.95 39.9 37.6 L39.5 36.9 39.95 30.45 41.4 28.6 43.3 26.95 Q45.65 25.85 47.65 27.75 L46.9 26.95 Q45.9 26.0 44.4 26.0 L44.5 25.85 50.4 20.85 Q52.0 19.45 53.7 19.45 L54.65 21.2 55.15 23.3 55.4 25.05 Q56.65 26.3 58.15 25.45 L58.65 24.75 Q59.95 20.75 57.85 16.7 57.0 14.95 55.25 14.35 L52.9 14.4 Q48.25 15.25 44.75 18.45 46.8 15.9 49.65 14.05 52.9 11.9 56.7 10.85 L60.0 9.75 59.05 9.4 58.75 9.0 Q60.05 5.8 62.9 3.7 65.65 1.75 68.95 1.2 76.8 0.45 81.3 6.9 L80.4 7.6 Q89.25 8.3 96.1 14.15 101.2 18.45 103.3 24.8 104.1 27.35 104.5 30.0 105.55 36.95 104.8 44.05 M123.1 88.1 L135.4 100.05 127.3 83.35 Q130.5 85.7 134.65 86.1 136.35 86.35 138.05 86.1 141.1 94.25 142.7 102.85 143.4 106.5 141.5 109.8 140.4 111.7 138.45 112.55 135.8 113.7 133.45 112.05 125.45 106.35 119.35 98.6 119.2 96.65 119.6 94.65 120.45 90.5 124.6 90.0 L123.05 88.05 123.1 88.1 M55.35 82.7 L54.2 84.65 51.85 83.8 53.2 83.65 Q54.45 83.45 55.35 82.7 M49.3 108.7 L50.55 109.25 55.4 96.25 64.45 102.05 Q61.55 111.3 58.15 120.45 57.45 122.3 55.7 122.75 L52.25 122.65 Q48.85 121.1 45.9 118.7 41.65 115.2 38.1 111.0 37.55 110.35 37.35 109.55 36.5 106.45 38.45 103.9 40.05 101.7 42.9 101.35 44.45 104.15 46.55 106.65 47.7 108.05 49.3 108.7 M56.35 161.35 L64.85 158.4 65.75 158.15 Q72.75 174.35 74.7 191.8 75.15 195.7 73.45 199.1 L72.45 200.05 Q70.7 201.05 68.85 201.75 L64.0 203.0 Q44.45 205.75 25.0 202.75 24.5 199.9 25.75 197.25 27.35 193.9 30.4 191.45 26.2 193.5 24.7 197.95 23.9 200.2 24.0 202.6 19.8 202.05 18.6 197.8 17.4 193.55 20.2 190.05 22.5 187.25 25.6 185.45 34.05 180.55 43.95 180.5 51.85 180.45 58.85 184.2 L59.0 184.7 53.3 187.6 56.75 187.15 58.75 186.55 60.55 185.6 Q61.45 180.25 59.55 175.15 57.05 168.45 56.35 161.35" fill="#468fbc" fill-rule="evenodd" stroke="none"/>
    <path d="M80.65 73.25 L81.35 74.75 85.2 73.25 Q90.15 71.4 95.4 72.75 98.5 73.7 100.75 76.15 L100.75 77.35 101.65 77.15 Q102.4 74.4 105.0 73.2 108.7 71.45 112.3 73.7 116.95 76.5 120.05 80.95 116.6 81.65 113.75 83.65 109.15 86.95 107.3 92.4 L104.4 83.85 Q103.65 86.3 104.7 88.9 106.65 93.6 106.35 98.65 L106.15 103.3 Q96.3 112.05 83.5 115.3 L78.7 116.3 72.25 115.8 61.75 113.4 65.5 102.65 Q67.15 104.15 69.4 104.4 70.95 104.45 71.8 103.45 L72.2 102.6 Q74.0 92.75 78.05 83.55 L77.25 84.75 Q74.25 89.5 72.2 94.6 L71.8 95.05 56.5 84.0 Q62.9 75.3 73.15 72.2 L78.9 72.05 Q80.0 72.45 80.65 73.25 M122.65 83.8 Q123.9 84.5 124.5 85.8 L124.8 86.65 123.6 86.7 Q116.0 89.2 112.2 96.2 111.5 97.55 111.9 98.85 L112.1 99.35 Q114.5 99.2 116.65 97.7 L116.95 98.05 Q114.9 99.55 112.65 100.4 111.3 100.8 110.2 99.25 109.35 98.0 108.6 96.2 109.25 92.7 111.9 89.9 116.35 85.15 122.65 83.8 M107.4 113.35 Q109.1 115.5 110.4 118.05 111.6 120.45 110.35 122.75 109.4 124.6 107.9 125.75 104.55 128.35 100.65 130.0 89.45 134.8 77.1 135.4 69.35 135.85 61.8 134.1 56.85 133.0 53.4 129.15 51.1 126.55 51.35 123.45 L52.55 123.9 Q55.15 124.7 57.4 123.2 69.3 127.45 81.55 125.65 93.95 123.75 104.05 116.0 L107.4 113.35 M71.0 99.35 L70.7 102.2 69.6 102.9 Q59.8 99.0 52.55 91.4 L54.25 87.65 56.95 89.95 Q63.55 95.3 71.0 99.35" fill="#f7bd1d" fill-rule="evenodd" stroke="none"/>
    <path d="M98.35 72.0 L96.5 71.15 Q94.65 70.5 92.85 70.3 L91.45 65.2 90.35 64.9 88.35 64.2 Q92.4 62.5 96.8 63.2 97.6 63.4 98.3 64.05 99.15 64.7 99.25 65.95 99.5 69.1 98.35 72.0 M114.95 93.55 L115.7 92.8 Q118.65 89.35 122.85 87.8 L123.05 88.05 124.6 90.0 Q120.45 90.5 119.6 94.65 119.2 96.65 119.35 98.6 L115.1 93.9 114.95 93.55 M78.05 69.15 L77.55 70.0 78.0 71.75 Q73.5 70.15 68.85 72.05 63.85 74.2 59.85 77.9 60.7 75.7 60.45 73.25 L59.8 69.55 Q69.15 69.75 78.1 67.15 L79.6 66.8 78.05 69.15 M94.6 159.25 Q92.45 157.3 89.55 158.15 89.05 158.3 88.65 158.6 86.95 160.0 86.15 162.15 L76.25 154.05 77.1 153.95 79.2 154.05 Q83.65 154.1 87.85 152.85 L94.6 159.25 M78.5 189.55 L78.15 189.05 Q78.05 188.2 79.05 187.85 83.05 186.1 87.5 186.5 94.0 186.55 96.45 180.65 97.55 177.95 99.45 175.85 100.05 175.2 100.9 174.85 106.0 173.0 110.0 176.55 113.35 179.55 113.15 184.1 112.8 187.75 109.55 189.35 105.45 191.3 101.0 191.5 93.45 192.35 85.95 191.6 81.95 191.2 78.5 189.55" fill="#226ca7" fill-rule="evenodd" stroke="none"/>
    <path d="M90.35 64.9 L91.9 70.2 90.1 70.2 Q85.05 70.55 80.65 73.25 80.0 72.45 78.9 72.05 L78.05 69.15 79.6 66.8 Q82.85 63.65 87.35 64.05 L88.35 64.2 90.35 64.9" fill="#19519d" fill-rule="evenodd" stroke="none"/>
    <path d="M120.05 80.95 L122.65 83.8 Q116.35 85.15 111.9 89.9 109.25 92.7 108.6 96.2 L107.3 92.4 Q109.15 86.95 113.75 83.65 116.6 81.65 120.05 80.95" fill="#ee1e0b" fill-rule="evenodd" stroke="none"/>
    <path d="M112.2 96.2 L114.95 93.55 115.1 93.9 114.25 94.85 116.65 97.7 Q114.5 99.2 112.1 99.35 L111.9 98.85 Q111.5 97.55 112.2 96.2 M122.85 87.8 L123.5 87.75 123.1 88.1 123.05 88.05 122.85 87.8 M125.05 87.35 L124.9 88.7 123.85 87.8 124.8 87.7 125.05 87.35" fill="#5f2916" fill-rule="evenodd" stroke="none"/>
    <path d="M44.4 26.0 Q45.9 26.0 46.9 26.95 L47.65 27.75 Q45.65 25.85 43.3 26.95 L44.4 26.0 M39.5 36.9 L39.9 37.6 Q41.15 36.95 41.5 35.55 41.75 34.5 42.65 34.0 43.45 31.25 45.15 29.2 46.3 29.7 46.45 31.05 L45.4 30.2 43.45 34.1 Q46.1 36.65 46.6 40.45 L46.25 39.6 45.1 37.2 Q44.25 35.45 42.7 35.55 L41.6 37.75 41.0 39.45 40.85 38.15 40.15 38.5 39.5 37.4 39.5 36.9" fill="#192f54" fill-rule="evenodd" stroke="none"/>
    <path d="M41.3 47.5 Q40.6 46.05 40.65 44.35 L40.65 43.0 41.0 39.45 41.6 37.75 42.45 37.45 Q44.35 40.1 43.8 43.4 L42.2 43.0 43.7 44.85 43.1 48.25 41.3 47.5" fill="#111111" fill-rule="evenodd" stroke="none"/>
    <path d="M39.55 51.1 Q40.55 55.2 42.55 58.8 L43.45 59.85 Q50.05 59.65 54.85 64.35 L57.25 67.25 Q59.5 70.75 59.1 74.8 58.85 77.6 56.95 79.95 55.05 82.3 52.35 82.85 48.3 82.6 44.6 80.85 41.85 79.55 39.2 77.55 44.55 76.65 49.65 78.45 52.1 79.3 52.6 81.75 53.55 79.75 52.45 77.95 L51.1 75.95 52.35 79.35 Q51.3 77.3 48.9 77.0 L42.1 76.8 Q39.45 77.0 37.4 75.4 34.75 73.4 33.35 70.45 31.35 66.25 32.2 61.7 33.15 56.65 36.8 53.1 37.95 51.95 39.55 51.1" fill="#f5e36a" fill-rule="evenodd" stroke="none"/>
    <path d="M106.15 103.3 Q106.25 106.65 106.65 109.95 106.85 111.65 107.4 113.35 L104.05 116.0 Q93.95 123.75 81.55 125.65 69.3 127.45 57.4 123.2 L57.8 122.75 Q60.35 118.3 61.75 113.4 L72.25 115.8 78.7 116.3 83.5 115.3 Q96.3 112.05 106.15 103.3 M72.2 94.6 L71.0 99.35 Q63.55 95.3 56.95 89.95 L54.25 87.65 56.5 84.0 71.8 95.05 72.2 94.6" fill="#e21f08" fill-rule="evenodd" stroke="none"/>
    <path d="M74.15 143.7 L86.0 141.8 Q78.85 142.45 71.8 141.7 70.75 143.35 70.55 145.1 69.85 150.55 71.0 155.75 66.3 155.4 61.7 157.0 54.5 159.35 47.4 161.1 42.3 162.4 37.0 162.2 L34.3 161.45 Q31.65 160.6 29.65 162.35 29.3 160.05 30.05 157.95 33.15 149.2 39.05 141.75 44.85 134.4 49.75 126.4 51.6 131.25 56.3 133.4 59.6 135.0 63.3 135.75 L74.35 136.95 Q89.4 137.05 102.85 130.55 102.85 134.05 101.95 137.4 L100.75 140.85 Q99.95 142.55 98.8 144.1 97.55 145.7 95.95 146.95 89.0 152.15 80.25 152.8 L76.05 152.6 Q73.25 151.8 72.7 149.1 73.4 151.45 75.7 152.2 L80.9 152.5 Q79.9 152.05 79.45 151.25 78.35 149.5 78.55 147.4 78.7 145.85 80.15 145.55 L83.25 144.75 Q87.4 144.65 90.1 141.65 L79.3 143.45 74.15 143.7" fill="#582d83" fill-rule="evenodd" stroke="none"/>
    <path d="M74.15 143.7 L79.3 143.45 90.1 141.65 Q87.4 144.65 83.25 144.75 L80.15 145.55 Q78.7 145.85 78.55 147.4 78.35 149.5 79.45 151.25 79.9 152.05 80.9 152.5 L75.7 152.2 Q73.4 151.45 72.7 149.1 72.05 147.0 72.6 143.65 L74.15 143.7 M56.35 161.35 L54.3 161.55 55.6 168.45 Q48.0 170.1 40.4 169.65 L37.05 168.8 Q32.45 167.7 30.1 163.8 31.3 162.6 32.9 162.5 L36.3 163.2 Q42.65 163.6 48.8 161.35 57.7 158.25 67.05 157.2 L64.85 158.4 56.35 161.35 M71.5 157.7 L71.85 158.55 69.1 162.2 67.15 157.2 Q69.55 156.55 71.5 157.7" fill="#2c1838" fill-rule="evenodd" stroke="none"/>
    <path d="M77.1 153.95 L76.25 154.05 86.15 162.15 Q86.95 160.0 88.65 158.6 89.05 158.3 89.55 158.15 92.45 157.3 94.6 159.25 99.7 162.65 105.2 165.45 106.85 166.3 108.4 167.85 111.75 171.1 113.0 175.4 114.25 179.75 113.15 184.1 113.35 179.55 110.0 176.55 106.0 173.0 100.9 174.85 100.05 175.2 99.45 175.85 97.55 177.95 96.45 180.65 94.0 186.55 87.5 186.5 83.05 186.1 79.05 187.85 78.05 188.2 78.15 189.05 L78.5 189.55 Q77.55 188.75 77.05 187.75 75.95 185.35 75.7 182.8 75.45 180.1 76.55 177.75 78.75 172.85 84.65 173.15 L85.15 173.35 Q84.15 176.2 85.25 178.95 L85.45 179.35 Q85.6 173.7 88.5 168.85 L89.25 166.85 Q89.5 165.55 89.0 164.45 81.8 159.85 75.65 153.7 L77.1 153.95" fill="#3a7db4" fill-rule="evenodd" stroke="none"/>
  </g>
</svg>
