<?xml version="1.0" encoding="UTF-8" standalone="no"?>
<svg xmlns:xlink="http://www.w3.org/1999/xlink" height="197.1px" width="129.55px" xmlns="http://www.w3.org/2000/svg">
  <g transform="matrix(1.0, 0.0, 0.0, 1.0, 0.0, 0.0)">
    <path d="M84.25 21.2 L85.5 20.15 82.25 17.55 Q81.7 17.25 81.3 17.85 L80.85 19.0 Q80.45 17.9 81.0 16.9 L81.3 16.55 Q82.25 16.15 83.05 17.0 87.9 21.65 93.85 24.85 94.75 25.35 95.55 25.25 L95.85 23.55 96.2 24.95 96.0 25.75 Q94.85 26.1 93.55 25.4 L90.65 23.85 86.45 20.9 Q85.55 21.4 85.05 22.15 83.95 23.9 83.3 25.95 L83.05 27.1 Q82.55 23.9 84.25 21.2 M97.3 25.1 L96.65 22.35 Q97.45 22.45 97.65 23.45 97.9 24.45 97.45 25.4 97.2 25.8 96.8 25.7 97.25 25.65 97.3 25.1 M82.0 13.2 Q80.15 12.7 78.9 14.15 L77.75 15.65 Q78.6 11.9 82.35 12.55 L86.05 14.5 82.0 13.2" fill="#192f54" fill-rule="evenodd" stroke="none"/>
    <path d="M81.3 17.85 L81.8 18.0 Q83.8 19.05 84.25 21.2 82.55 23.9 83.05 27.1 L83.3 25.95 Q83.2 35.0 90.55 40.4 91.6 41.15 92.95 41.15 95.55 41.1 97.1 39.05 98.75 36.75 97.3 34.4 L96.2 30.4 97.45 25.4 Q97.9 24.45 97.65 23.45 97.45 22.45 96.65 22.35 L97.3 25.1 Q96.65 25.65 96.2 24.95 L95.85 23.55 95.55 25.25 Q94.75 25.35 93.85 24.85 87.9 21.65 83.05 17.0 82.25 16.15 81.3 16.55 L81.0 16.9 Q80.45 17.9 80.85 19.0 L81.3 17.85 M82.0 13.2 L86.05 14.5 82.35 12.55 Q78.6 11.9 77.75 15.65 L78.9 14.15 Q80.15 12.7 82.0 13.2 M41.2 60.8 Q39.45 53.65 36.8 46.85 33.9 39.4 35.1 31.3 36.0 25.35 39.7 20.35 44.2 14.25 51.25 10.95 L50.1 10.35 Q53.35 2.0 62.2 1.25 68.5 1.1 72.4 5.95 L71.4 7.0 80.45 7.25 Q86.3 8.1 90.65 11.6 92.65 13.2 94.1 15.3 98.45 21.55 100.15 29.05 100.7 31.45 100.85 33.95 101.0 36.2 102.15 37.9 94.4 41.9 88.5 48.3 82.65 46.5 77.35 49.35 73.95 51.05 73.25 54.75 72.6 58.35 74.0 61.7 77.05 69.15 84.65 71.65 L83.6 71.85 Q76.15 71.95 68.95 71.55 67.3 63.6 67.6 55.55 68.15 42.35 71.0 29.5 71.45 27.55 71.05 25.65 70.75 24.25 70.05 23.05 69.4 22.1 68.4 21.65 64.9 20.1 61.3 21.7 59.95 22.35 58.95 23.4 56.95 25.4 59.6 26.65 L60.4 26.4 62.35 25.65 Q64.0 25.0 65.55 25.95 65.95 26.95 65.7 28.0 63.2 39.6 59.75 51.05 L57.7 57.3 Q55.5 63.7 55.75 70.55 L51.8 70.85 Q52.1 73.9 55.1 75.4 L56.7 76.3 56.7 76.35 Q48.6 73.65 43.45 66.9 42.4 65.5 42.0 64.0 L41.2 60.8 M92.15 73.0 L94.15 73.05 81.0 76.85 80.75 76.5 82.3 76.15 Q87.55 75.2 92.15 73.0 M87.35 113.9 Q86.45 115.9 85.0 117.45 82.1 120.55 78.05 121.45 73.7 122.2 69.7 120.5 66.9 119.3 65.55 116.6 62.2 109.95 63.2 102.75 L70.2 102.8 70.45 103.75 Q72.35 108.1 70.4 112.6 L71.25 111.6 Q72.85 109.5 73.0 106.75 L73.05 106.3 79.9 109.9 81.15 110.55 81.2 110.55 87.35 113.9 M115.75 95.1 L117.5 94.1 Q121.55 92.05 125.35 94.3 127.3 96.05 127.75 98.7 128.45 102.75 127.8 106.85 L127.3 109.1 Q122.95 122.1 112.9 131.5 L114.65 133.3 Q120.05 138.75 118.55 146.3 117.85 149.95 115.1 152.55 116.35 148.4 115.15 144.3 115.85 147.55 114.65 150.55 L113.85 152.0 Q111.95 154.35 109.35 152.85 L111.7 154.35 Q108.65 155.2 106.45 152.75 104.45 150.55 104.7 147.3 105.25 139.3 107.3 131.3 109.55 129.55 111.4 127.35 L113.5 124.25 Q118.35 115.65 121.25 106.25 L118.7 108.05 118.7 106.4 Q118.55 100.45 115.75 95.1 M31.6 96.35 Q32.3 94.85 33.15 93.5 34.85 90.65 37.35 88.35 37.5 93.6 42.0 96.05 L43.45 96.65 39.8 100.1 44.85 96.9 46.9 96.85 Q48.2 98.05 48.55 99.45 L48.8 101.1 Q45.2 104.3 40.7 106.1 38.15 107.2 35.3 107.55 32.85 107.05 31.35 104.9 L30.75 103.75 Q29.85 100.0 31.6 96.35" fill="#468fbc" fill-rule="evenodd" stroke="none"/>
    <path d="M84.25 21.2 Q83.8 19.05 81.8 18.0 L81.3 17.85 Q81.7 17.25 82.25 17.55 L85.5 20.15 84.25 21.2 M96.2 24.95 Q96.65 25.65 97.3 25.1 97.25 25.65 96.8 25.7 97.2 25.8 97.45 25.4 L96.2 30.4 93.55 25.4 Q94.85 26.1 96.0 25.75 L96.2 24.95" fill="#3a7db4" fill-rule="evenodd" stroke="none"/>
    <path d="M97.3 34.4 Q98.75 36.75 97.1 39.05 95.55 41.1 92.95 41.15 91.6 41.15 90.55 40.4 83.2 35.0 83.3 25.95 83.95 23.9 85.05 22.15 85.55 21.4 86.45 20.9 L90.65 23.85 Q88.75 24.55 88.5 26.65 88.25 29.15 89.7 31.3 L92.9 30.1 90.65 32.85 Q92.35 36.35 96.15 36.65 96.9 36.35 97.1 35.55 L97.3 34.4 M90.95 69.0 Q89.1 65.4 91.95 62.2 94.0 59.95 96.9 59.65 99.9 59.65 102.9 60.6 97.1 62.85 94.0 68.2 92.75 70.35 90.95 69.0 M53.45 92.4 L56.4 101.65 51.7 101.55 52.2 98.95 Q52.4 96.5 50.55 94.75 L53.45 92.4 M47.95 96.5 L50.1 95.1 Q52.0 97.0 51.45 99.75 51.2 100.9 50.2 101.75 50.3 100.1 49.4 98.7 L47.95 96.5" fill="#ffffff" fill-rule="evenodd" stroke="none"/>
    <path d="M96.2 30.4 L97.3 34.4 97.1 35.55 Q96.9 36.35 96.15 36.65 92.35 36.35 90.65 32.85 L92.9 30.1 89.7 31.3 Q88.25 29.15 88.5 26.65 88.75 24.55 90.65 23.85 L93.55 25.4 96.2 30.4" fill="#111111" fill-rule="evenodd" stroke="none"/>
    <path d="M40.45 16.95 Q44.25 13.1 49.2 10.85 50.6 5.35 55.3 2.2 60.7 -1.4 66.95 0.85 71.0 2.25 73.4 5.7 79.65 5.35 85.4 7.45 89.1 8.75 92.0 11.65 L94.65 14.95 Q100.3 23.15 102.3 33.1 104.4 30.6 107.45 30.1 110.8 29.45 114.05 30.1 116.25 30.45 117.75 32.05 119.3 33.65 119.3 35.65 119.3 37.65 117.5 38.35 L115.9 38.95 Q109.9 40.6 104.0 38.9 L103.15 38.7 102.15 37.9 Q101.0 36.2 100.85 33.95 100.7 31.45 100.15 29.05 98.45 21.55 94.1 15.3 92.65 13.2 90.65 11.6 86.3 8.1 80.45 7.25 L71.4 7.0 72.4 5.95 Q68.5 1.1 62.2 1.25 53.35 2.0 50.1 10.35 L51.25 10.95 Q44.2 14.25 39.7 20.35 36.0 25.35 35.1 31.3 33.9 39.4 36.8 46.85 39.45 53.65 41.2 60.8 L38.4 54.45 35.95 48.4 Q33.8 43.1 33.5 37.2 33.05 27.1 38.65 19.15 L37.25 17.85 36.8 18.0 36.35 18.65 Q35.25 20.6 34.4 22.85 29.8 35.05 21.95 45.5 18.7 49.85 14.65 53.5 10.8 57.0 5.55 57.9 3.55 58.15 2.0 56.95 0.0 55.45 0.0 52.85 L0.1 53.55 Q1.25 48.35 5.75 45.6 L5.5 46.5 6.3 47.55 Q11.1 46.55 14.8 43.65 23.85 36.35 29.15 26.2 L34.0 16.15 Q34.5 15.05 35.6 14.4 37.65 15.0 38.85 16.95 L39.5 18.05 40.45 16.95 M84.3 77.05 Q95.3 82.4 103.45 91.6 L103.7 91.9 104.25 92.55 Q108.55 97.65 111.2 103.2 112.85 106.85 111.6 110.4 L110.4 113.1 109.2 114.8 Q105.25 119.8 99.45 122.5 93.8 125.15 87.65 125.6 L79.95 124.75 Q70.35 123.05 61.4 126.25 L60.9 126.45 60.65 123.15 Q60.2 118.05 59.1 112.75 58.0 107.4 56.6 102.35 L56.4 101.65 53.45 92.4 53.15 91.55 51.35 86.9 Q49.95 83.25 51.05 80.5 51.85 78.35 53.85 76.8 L55.55 77.45 Q51.25 80.7 52.55 85.7 L54.1 90.75 Q56.55 97.4 58.3 104.0 L58.25 104.15 Q57.55 108.15 60.05 111.35 L60.45 113.5 61.5 121.1 61.75 124.5 Q69.45 122.2 77.4 123.45 90.4 125.85 101.65 119.45 106.65 116.6 109.3 111.35 110.05 109.85 110.4 108.15 110.95 105.7 109.75 103.25 L105.75 96.35 Q98.45 86.05 87.35 79.8 L82.85 77.45 84.3 77.05 M56.7 76.35 L56.7 76.3 Q56.0 73.8 55.75 70.55 55.5 63.7 57.7 57.3 L59.75 51.05 Q63.2 39.6 65.7 28.0 65.95 26.95 65.55 25.95 64.0 25.0 62.35 25.65 L60.4 26.4 59.6 26.65 Q56.95 25.4 58.95 23.4 59.95 22.35 61.3 21.7 64.9 20.1 68.4 21.65 69.4 22.1 70.05 23.05 70.75 24.25 71.05 25.65 71.45 27.55 71.0 29.5 68.15 42.35 67.6 55.55 67.3 63.6 68.95 71.55 L69.4 74.7 69.55 75.8 69.8 77.85 Q70.15 81.05 69.5 82.9 68.8 84.8 66.45 84.95 64.95 85.1 63.35 84.45 L62.9 84.3 Q59.5 82.65 57.8 79.1 L57.3 78.05 56.7 76.35 M105.95 31.35 Q105.4 32.1 105.6 32.65 106.15 33.9 109.4 33.65 L111.35 33.25 Q112.0 32.95 112.0 32.2 112.05 31.65 111.2 30.95 110.4 30.3 108.25 30.35 106.55 30.55 105.95 31.35 M63.75 44.15 L63.0 45.4 Q61.65 48.15 60.8 51.1 59.75 54.85 59.0 58.75 57.65 65.45 58.1 72.3 58.35 76.15 60.8 79.05 62.9 81.65 66.2 82.05 68.15 82.15 67.85 80.35 67.55 79.65 66.75 79.4 64.05 78.25 62.9 75.75 60.45 70.5 60.85 64.7 61.5 55.2 63.75 46.0 64.0 44.95 63.75 44.15" fill="#0b0923" fill-rule="evenodd" stroke="none"/>
    <path d="M117.5 38.35 Q121.9 42.35 122.7 48.4 123.4 53.95 119.9 58.55 116.4 63.1 111.6 66.0 100.35 72.75 87.7 76.1 L84.3 77.05 82.85 77.45 81.55 77.8 Q84.1 83.9 84.25 90.8 84.35 96.95 83.6 103.2 83.15 107.0 81.15 110.55 L79.9 109.9 81.35 106.75 Q80.15 104.75 77.7 104.05 74.05 102.95 70.2 102.8 L63.2 102.75 Q62.2 109.95 65.55 116.6 66.9 119.3 69.7 120.5 73.7 122.2 78.05 121.45 82.1 120.55 85.0 117.45 86.45 115.9 87.35 113.9 L88.55 114.5 85.8 118.45 Q81.9 122.4 76.25 122.8 70.2 123.5 65.8 119.65 63.3 117.0 62.45 113.3 L61.75 112.85 60.05 111.35 Q57.55 108.15 58.25 104.15 L58.3 104.0 Q60.55 99.25 61.45 94.15 L62.9 84.3 63.35 84.45 61.9 95.65 60.7 100.1 59.7 102.75 Q66.45 100.9 73.45 102.05 77.0 102.55 79.8 104.7 80.85 105.45 81.35 106.7 83.1 100.2 82.8 93.05 L82.3 85.05 Q81.9 79.35 77.6 76.25 76.6 75.55 75.35 75.25 72.35 74.7 69.55 75.8 L69.4 74.7 Q73.5 73.3 77.6 74.2 79.65 74.75 80.75 76.5 L81.0 76.85 94.15 73.05 92.15 73.0 Q88.0 72.8 84.85 71.7 L84.65 71.65 Q77.05 69.15 74.0 61.7 72.6 58.35 73.25 54.75 73.95 51.05 77.35 49.35 82.65 46.5 88.5 48.3 94.4 41.9 102.15 37.9 L103.15 38.7 Q94.8 42.35 88.85 49.15 84.15 48.05 79.5 49.3 76.9 50.15 75.55 52.25 74.15 54.35 74.15 56.95 74.15 60.5 75.75 63.45 76.95 65.65 79.0 67.3 85.2 72.3 93.1 72.15 L96.4 71.6 Q106.8 69.25 115.05 62.55 109.95 63.5 104.95 62.05 102.8 61.35 101.0 62.5 98.3 64.05 96.15 66.6 L92.7 69.9 Q91.6 70.85 90.65 69.7 88.95 67.75 89.75 65.35 90.45 63.35 91.65 61.75 93.8 58.85 97.55 58.8 103.55 59.35 109.1 61.55 L114.95 61.35 Q116.85 60.55 118.15 59.05 123.15 53.05 120.75 45.65 119.45 41.55 115.9 38.95 L117.5 38.35 M103.7 91.9 Q106.5 89.8 109.8 90.2 113.3 90.85 115.15 94.05 119.05 90.9 123.95 91.7 125.55 92.15 126.75 93.75 129.1 96.9 129.45 100.75 130.15 108.7 126.25 115.85 121.5 124.5 114.4 131.25 120.05 136.4 120.05 144.05 120.05 150.35 115.25 154.1 112.75 156.1 109.45 155.65 104.9 154.95 103.7 150.45 102.9 147.35 103.9 144.25 104.95 141.0 105.15 137.6 101.05 148.35 92.1 155.1 L90.1 156.25 Q86.5 157.9 82.45 157.9 77.75 157.9 73.1 156.55 L73.85 155.35 Q78.65 156.75 83.65 155.85 L83.9 155.8 Q79.45 154.8 75.5 152.35 L74.6 151.85 66.75 146.85 65.65 146.1 Q62.8 144.0 59.4 143.65 L58.85 143.65 Q58.3 143.7 58.0 143.9 57.4 144.4 57.4 145.05 57.5 147.1 59.0 148.35 L63.1 151.1 62.4 152.25 Q57.9 150.1 55.9 145.55 55.35 144.3 55.8 142.7 56.4 140.4 58.2 138.95 61.05 136.6 63.2 133.6 62.0 133.35 61.6 132.2 60.0 127.75 60.65 123.15 L60.9 126.45 61.4 126.25 Q61.85 131.1 66.3 132.75 L67.15 133.1 Q63.6 137.7 59.2 141.35 58.1 142.25 57.25 143.45 59.25 142.15 61.6 142.55 63.1 142.9 64.2 143.75 72.95 150.6 83.3 154.45 L86.7 155.0 Q88.45 154.85 89.95 153.95 96.2 150.25 100.15 143.8 103.95 137.65 105.95 130.9 108.3 123.05 109.2 114.8 L110.4 113.1 108.2 127.8 Q112.6 123.8 114.8 118.35 117.0 112.75 116.75 106.6 116.5 100.4 113.35 95.0 111.75 92.25 108.7 91.6 L106.8 91.85 104.25 92.55 103.7 91.9 M56.6 102.35 Q55.15 104.25 53.0 103.1 L51.6 102.4 48.95 102.8 Q42.9 107.05 35.9 108.65 32.85 109.4 30.8 107.25 29.85 106.3 29.45 104.95 28.4 101.25 29.75 97.6 32.25 90.95 37.05 85.7 L38.1 83.95 Q39.3 80.7 42.2 79.05 46.55 76.65 51.55 75.75 45.15 72.65 41.65 66.6 41.1 65.7 40.9 64.75 L38.4 54.45 41.2 60.8 42.0 64.0 Q42.4 65.5 43.45 66.9 48.6 73.65 56.7 76.35 L57.3 78.05 55.55 77.45 53.85 76.8 52.75 76.3 52.3 76.35 Q49.95 76.6 47.45 77.35 45.7 80.95 45.65 83.7 45.65 80.95 47.4 77.35 45.55 77.9 43.9 78.8 40.05 80.9 39.1 85.1 37.85 90.8 42.25 94.25 42.95 94.8 43.85 95.15 L48.75 94.95 50.95 93.3 Q49.2 92.15 48.1 90.7 L51.0 93.3 53.15 91.55 53.45 92.4 50.55 94.75 Q52.4 96.5 52.2 98.95 L51.7 101.55 56.4 101.65 56.6 102.35 M90.95 69.0 Q92.75 70.35 94.0 68.2 97.1 62.85 102.9 60.6 99.9 59.65 96.9 59.65 94.0 59.95 91.95 62.2 89.1 65.4 90.95 69.0 M115.75 95.1 Q118.55 100.45 118.7 106.4 L118.7 108.05 121.25 106.25 Q118.35 115.65 113.5 124.25 L111.4 127.35 Q109.55 129.55 107.3 131.3 105.25 139.3 104.7 147.3 104.45 150.55 106.45 152.75 108.65 155.2 111.7 154.35 L109.35 152.85 Q111.95 154.35 113.85 152.0 L114.65 150.55 Q115.85 147.55 115.15 144.3 116.35 148.4 115.1 152.55 117.85 149.95 118.55 146.3 120.05 138.75 114.65 133.3 L112.9 131.5 Q122.95 122.1 127.3 109.1 L127.8 106.85 Q128.45 102.75 127.75 98.7 127.3 96.05 125.35 94.3 121.55 92.05 117.5 94.1 L115.75 95.1 M31.6 96.35 Q29.85 100.0 30.75 103.75 L31.35 104.9 Q32.85 107.05 35.3 107.55 38.15 107.2 40.7 106.1 45.2 104.3 48.8 101.1 L48.55 99.45 Q48.2 98.05 46.9 96.85 L44.85 96.9 39.8 100.1 43.45 96.65 42.0 96.05 Q37.5 93.6 37.35 88.35 34.85 90.65 33.15 93.5 32.3 94.85 31.6 96.35 M47.95 96.5 L49.4 98.7 Q50.3 100.1 50.2 101.75 51.2 100.9 51.45 99.75 52.0 97.0 50.1 95.1 L47.95 96.5 M73.0 106.75 Q72.85 109.5 71.25 111.6 L70.4 112.6 Q72.35 108.1 70.45 103.75 L73.0 106.75 M61.7 103.05 L59.7 104.4 59.5 105.1 Q59.1 108.55 61.9 110.65 L61.7 103.05" fill="#000000" fill-rule="evenodd" stroke="none"/>
    <path d="M103.15 38.7 L104.0 38.9 Q109.9 40.6 115.9 38.95 119.45 41.55 120.75 45.65 123.15 53.05 118.15 59.05 116.85 60.55 114.95 61.35 L109.1 61.55 Q103.55 59.35 97.55 58.8 93.8 58.85 91.65 61.75 90.45 63.35 89.75 65.35 88.95 67.75 90.65 69.7 91.6 70.85 92.7 69.9 L96.15 66.6 Q98.3 64.05 101.0 62.5 102.8 61.35 104.95 62.05 109.95 63.5 115.05 62.55 106.8 69.25 96.4 71.6 L93.1 72.15 Q85.2 72.3 79.0 67.3 76.95 65.65 75.75 63.45 74.15 60.5 74.15 56.95 74.15 54.35 75.55 52.25 76.9 50.15 79.5 49.3 84.15 48.05 88.85 49.15 94.8 42.35 103.15 38.7 M100.95 47.65 Q100.6 47.1 99.95 47.3 99.4 47.65 99.6 48.3 99.95 48.85 100.6 48.65 101.15 48.3 100.95 47.65 M106.05 43.8 Q106.6 43.45 106.4 42.8 106.05 42.25 105.4 42.45 104.85 42.8 105.05 43.45 105.4 44.0 106.05 43.8 M106.6 46.85 Q106.0 47.25 106.25 47.9 106.6 48.5 107.25 48.3 107.85 47.9 107.65 47.25 107.25 46.65 106.6 46.85 M97.1 55.45 Q97.75 55.1 97.5 54.35 97.15 53.7 96.4 54.0 L96.0 54.45 96.05 55.05 96.5 55.5 97.1 55.45 M92.75 50.55 Q93.3 50.2 93.1 49.55 92.75 49.0 92.1 49.2 91.55 49.55 91.75 50.2 92.1 50.75 92.75 50.55" fill="#f5e36a" fill-rule="evenodd" stroke="none"/>
    <path d="M100.95 47.65 Q101.15 48.3 100.6 48.65 99.95 48.85 99.6 48.3 99.4 47.65 99.95 47.3 100.6 47.1 100.95 47.65 M106.6 46.85 Q107.25 46.65 107.65 47.25 107.85 47.9 107.25 48.3 106.6 48.5 106.25 47.9 106.0 47.25 106.6 46.85 M106.05 43.8 Q105.4 44.0 105.05 43.45 104.85 42.8 105.4 42.45 106.05 42.25 106.4 42.8 106.6 43.45 106.05 43.8 M92.75 50.55 Q92.1 50.75 91.75 50.2 91.55 49.55 92.1 49.2 92.75 49.0 93.1 49.55 93.3 50.2 92.75 50.55 M97.1 55.45 L96.5 55.5 96.05 55.05 96.0 54.45 96.4 54.0 Q97.15 53.7 97.5 54.35 97.75 55.1 97.1 55.45" fill="#996412" fill-rule="evenodd" stroke="none"/>
    <path d="M0.0 52.85 Q0.35 46.6 5.85 43.55 7.35 42.7 8.95 42.1 13.65 40.5 17.45 37.05 23.6 31.4 28.15 24.35 31.05 19.8 33.05 14.95 34.15 12.35 36.7 13.15 39.5 14.25 40.45 16.95 L39.5 18.05 38.85 16.95 Q37.65 15.0 35.6 14.4 34.5 15.05 34.0 16.15 L29.15 26.2 Q23.85 36.35 14.8 43.65 11.1 46.55 6.3 47.55 L5.5 46.5 5.75 45.6 Q1.25 48.35 0.1 53.55 L0.0 52.85 M105.95 31.35 Q106.55 30.55 108.25 30.35 110.4 30.3 111.2 30.95 112.05 31.65 112.0 32.2 112.0 32.95 111.35 33.25 L109.4 33.65 Q106.15 33.9 105.6 32.65 105.4 32.1 105.95 31.35 M63.75 44.15 Q64.0 44.95 63.75 46.0 61.5 55.2 60.85 64.7 60.45 70.5 62.9 75.75 64.05 78.25 66.75 79.4 67.55 79.65 67.85 80.35 68.15 82.15 66.2 82.05 62.9 81.65 60.8 79.05 58.35 76.15 58.1 72.3 57.65 65.45 59.0 58.75 59.75 54.85 60.8 51.1 61.65 48.15 63.0 45.4 L63.75 44.15" fill="#0f2953" fill-rule="evenodd" stroke="none"/>
    <path d="M56.7 76.3 L55.1 75.4 Q52.1 73.9 51.8 70.85 L55.75 70.55 Q56.0 73.8 56.7 76.3 M68.95 71.55 Q76.15 71.95 83.6 71.85 L84.65 71.65 84.85 71.7 Q88.0 72.8 92.15 73.0 87.55 75.2 82.3 76.15 L80.75 76.5 Q79.65 74.75 77.6 74.2 73.5 73.3 69.4 74.7 L68.95 71.55" fill="#226ca7" fill-rule="evenodd" stroke="none"/>
    <path d="M69.55 75.8 Q72.35 74.7 75.35 75.25 76.6 75.55 77.6 76.25 81.9 79.35 82.3 85.05 L82.8 93.05 Q83.1 100.2 81.35 106.7 80.85 105.45 79.8 104.7 77.0 102.55 73.45 102.05 66.45 100.9 59.7 102.75 L60.7 100.1 60.85 100.1 Q71.45 96.65 82.2 99.1 L81.45 90.45 70.9 90.75 Q66.1 90.95 62.35 93.8 L61.9 95.65 63.35 84.45 Q64.95 85.1 66.45 84.95 68.8 84.8 69.5 82.9 70.15 81.05 69.8 77.85 L69.55 75.8 M62.9 84.3 L61.45 94.15 Q60.55 99.25 58.3 104.0 56.55 97.4 54.1 90.75 L52.55 85.7 Q51.25 80.7 55.55 77.45 L57.3 78.05 57.8 79.1 Q59.5 82.65 62.9 84.3 M60.05 111.35 L61.75 112.85 60.45 113.5 60.05 111.35 M65.8 119.65 Q70.2 123.5 76.25 122.8 81.9 122.4 85.8 118.45 93.35 118.35 99.85 114.65 106.85 110.65 109.75 103.25 110.95 105.7 110.4 108.15 110.05 109.85 109.3 111.35 106.65 116.6 101.65 119.45 90.4 125.85 77.4 123.45 69.45 122.2 61.75 124.5 L61.5 121.1 Q63.4 120.3 65.8 119.65 M70.2 102.8 Q74.05 102.95 77.7 104.05 80.15 104.75 81.35 106.75 L79.9 109.9 73.05 106.3 73.0 106.75 70.45 103.75 70.2 102.8 M81.15 110.55 Q83.15 107.0 83.6 103.2 84.35 96.95 84.25 90.8 84.1 83.9 81.55 77.8 L82.85 77.45 87.35 79.8 Q98.45 86.05 105.75 96.35 103.35 100.9 99.55 104.05 91.6 110.75 81.2 110.55 L81.15 110.55" fill="#f7bd1d" fill-rule="evenodd" stroke="none"/>
    <path d="M104.25 92.55 L106.8 91.85 108.7 91.6 Q111.75 92.25 113.35 95.0 116.5 100.4 116.75 106.6 117.0 112.75 114.8 118.35 112.6 123.8 108.2 127.8 L110.4 113.1 111.6 110.4 Q112.85 106.85 111.2 103.2 108.55 97.65 104.25 92.55 M109.2 114.8 Q108.3 123.05 105.95 130.9 103.95 137.65 100.15 143.8 96.2 150.25 89.95 153.95 88.45 154.85 86.7 155.0 L83.3 154.45 Q72.95 150.6 64.2 143.75 63.1 142.9 61.6 142.55 59.25 142.15 57.25 143.45 58.1 142.25 59.2 141.35 63.6 137.7 67.15 133.1 L66.3 132.75 Q61.85 131.1 61.4 126.25 70.35 123.05 79.95 124.75 L87.65 125.6 Q93.8 125.15 99.45 122.5 105.25 119.8 109.2 114.8 M58.85 143.65 Q57.55 144.1 57.4 145.05 57.4 144.4 58.0 143.9 58.3 143.7 58.85 143.65" fill="#582d83" fill-rule="evenodd" stroke="none"/>
    <path d="M45.65 83.7 Q45.7 80.95 47.45 77.35 49.95 76.6 52.3 76.35 L52.75 76.3 53.85 76.8 Q51.85 78.35 51.05 80.5 49.95 83.25 51.35 86.9 L53.15 91.55 51.0 93.3 48.1 90.7 46.45 87.9 45.65 83.7 M43.9 78.8 Q41.8 83.45 43.4 88.2 44.85 92.5 48.75 94.95 L43.85 95.15 Q42.95 94.8 42.25 94.25 37.85 90.8 39.1 85.1 40.05 80.9 43.9 78.8 M61.7 103.05 L61.9 110.65 Q59.1 108.55 59.5 105.1 L59.7 104.4 61.7 103.05" fill="#d49330" fill-rule="evenodd" stroke="none"/>
    <path d="M60.7 100.1 L61.9 95.65 62.35 93.8 Q66.1 90.95 70.9 90.75 L81.45 90.45 82.2 99.1 Q71.45 96.65 60.85 100.1 L60.7 100.1 M61.75 112.85 L62.45 113.3 Q63.3 117.0 65.8 119.65 63.4 120.3 61.5 121.1 L60.45 113.5 61.75 112.85 M85.8 118.45 L88.55 114.5 87.35 113.9 81.2 110.55 Q91.6 110.75 99.55 104.05 103.35 100.9 105.75 96.35 L109.75 103.25 Q106.85 110.65 99.85 114.65 93.35 118.35 85.8 118.45 M43.9 78.8 Q45.55 77.9 47.4 77.35 45.65 80.95 45.65 83.7 L46.45 87.9 48.1 90.7 Q49.2 92.15 50.95 93.3 L48.75 94.95 Q44.85 92.5 43.4 88.2 41.8 83.45 43.9 78.8" fill="#e21f08" fill-rule="evenodd" stroke="none"/>
    <path d="M58.85 143.65 L59.4 143.65 Q62.8 144.0 65.65 146.1 64.95 148.05 63.1 151.1 L59.0 148.35 Q57.5 147.1 57.4 145.05 57.55 144.1 58.85 143.65 M75.5 152.35 Q79.45 154.8 83.9 155.8 L83.65 155.85 Q78.65 156.75 73.85 155.35 L75.5 152.35" fill="#2c1838" fill-rule="evenodd" stroke="none"/>
    <path d="M73.1 156.55 L62.35 174.65 Q71.0 174.2 79.8 174.5 L86.45 175.75 Q94.6 177.8 98.6 184.75 99.5 186.3 99.65 188.0 99.8 190.15 98.4 191.75 96.3 194.0 93.35 195.0 L88.35 196.0 Q75.35 197.8 62.2 196.7 49.85 196.1 37.9 193.1 35.4 192.55 34.55 190.1 33.7 187.7 35.4 185.5 L39.2 181.15 47.55 172.15 Q55.75 162.8 62.4 152.25 L63.1 151.1 Q64.95 148.05 65.65 146.1 L66.75 146.85 Q61.45 157.95 53.55 167.4 47.8 174.3 41.5 180.65 L37.4 185.15 Q35.1 187.95 37.4 190.5 L38.75 191.4 Q44.75 193.25 51.05 194.25 62.85 195.95 74.65 195.7 75.85 195.7 76.35 194.65 77.65 191.8 75.95 189.15 74.3 186.4 72.15 183.95 75.1 184.95 76.6 187.65 L77.85 190.35 Q78.5 192.25 78.0 194.1 77.65 195.3 76.85 195.9 L87.25 195.2 Q89.55 194.9 90.0 192.65 90.35 191.0 89.7 189.45 87.4 183.85 81.75 181.4 L82.8 181.5 Q85.6 182.35 87.7 184.1 89.25 185.4 90.35 187.15 91.65 189.1 91.85 191.35 92.0 193.25 90.55 194.65 94.75 194.0 97.45 190.75 98.25 189.8 98.1 188.45 97.7 184.65 94.85 182.05 89.95 177.75 83.45 176.7 69.2 175.05 55.0 176.65 L60.5 175.1 69.95 160.35 74.6 151.85 75.5 152.35 73.85 155.35 73.1 156.55" fill="#0b1a27" fill-rule="evenodd" stroke="none"/>
    <path d="M66.75 146.85 L74.6 151.85 69.95 160.35 60.5 175.1 55.0 176.65 Q69.2 175.05 83.45 176.7 89.95 177.75 94.85 182.05 97.7 184.65 98.1 188.45 98.25 189.8 97.45 190.75 94.75 194.0 90.55 194.65 92.0 193.25 91.85 191.35 91.65 189.1 90.35 187.15 89.25 185.4 87.7 184.1 85.6 182.35 82.8 181.5 L81.75 181.4 Q87.4 183.85 89.7 189.45 90.35 191.0 90.0 192.65 89.55 194.9 87.25 195.2 L76.85 195.9 Q77.65 195.3 78.0 194.1 78.5 192.25 77.85 190.35 L76.6 187.65 Q75.1 184.95 72.15 183.95 74.3 186.4 75.95 189.15 77.65 191.8 76.35 194.65 75.85 195.7 74.65 195.7 62.85 195.95 51.05 194.25 44.75 193.25 38.75 191.4 L37.4 190.5 Q35.1 187.95 37.4 185.15 L41.5 180.65 Q47.8 174.3 53.55 167.4 61.45 157.95 66.75 146.85" fill="#378bba" fill-rule="evenodd" stroke="none"/>
  </g>
</svg>
