<?xml version="1.0" encoding="UTF-8" standalone="no"?>
<svg xmlns:xlink="http://www.w3.org/1999/xlink" height="35.55px" width="39.55px" xmlns="http://www.w3.org/2000/svg">
  <g transform="matrix(1.0, 0.0, 0.0, 1.0, 0.0, 0.0)">
    <path d="M18.85 0.1 Q20.7 -0.25 22.3 0.7 23.85 1.65 24.45 3.55 24.75 4.35 24.7 5.3 25.4 4.35 26.4 4.4 29.15 4.7 30.5 6.9 31.75 8.85 32.15 11.65 L32.5 11.2 Q33.5 10.35 34.95 10.7 36.45 11.1 37.7 12.4 38.95 13.7 39.25 15.65 L39.55 20.55 39.2 26.5 Q38.75 29.5 37.75 31.75 36.7 33.95 34.85 34.6 L31.95 34.9 Q30.9 34.7 30.1 34.25 29.6 34.0 29.05 33.85 27.2 35.05 24.55 35.45 21.6 35.85 18.5 34.3 15.5 32.55 14.45 30.1 13.45 27.7 13.75 25.5 L13.85 25.1 12.35 24.3 Q11.2 23.7 10.3 22.5 9.55 21.45 9.3 19.45 L6.6 17.55 3.15 14.9 0.5 12.4 Q-0.4 11.2 0.4 9.65 1.2 8.1 3.05 6.95 4.85 5.8 6.95 5.85 9.1 5.9 10.9 7.9 L11.4 8.5 11.95 7.2 Q13.3 4.4 15.05 2.5 16.85 0.55 18.85 0.1 M3.6 7.85 Q2.0 8.9 1.4 10.25 0.8 11.6 1.95 12.4 L5.2 14.75 7.9 17.05 9.0 18.05 11.0 9.15 10.8 8.8 Q9.15 6.85 7.2 6.8 5.25 6.75 3.6 7.85 M21.85 2.05 Q20.6 1.1 18.8 1.4 16.8 1.8 15.3 3.55 13.8 5.3 12.75 7.8 11.65 10.3 11.05 13.05 10.4 15.8 10.15 18.2 9.95 20.55 10.75 21.65 11.6 22.8 12.9 23.4 L15.4 24.75 Q16.6 25.45 17.15 26.9 18.25 29.95 20.5 31.45 22.75 33.0 25.15 32.4 L28.15 32.0 30.05 32.55 31.9 33.15 34.8 32.9 Q36.65 32.3 37.6 30.3 38.5 28.3 38.8 25.65 39.05 22.95 38.9 20.3 L38.5 15.9 Q38.2 14.15 37.15 13.2 36.15 12.25 34.95 12.1 33.75 11.9 32.95 12.5 32.15 13.1 32.3 14.4 32.6 16.45 32.15 18.55 L31.1 22.05 30.5 23.55 Q31.45 21.35 31.55 18.25 31.6 15.15 31.0 12.15 30.35 9.2 29.2 7.3 28.0 5.4 26.5 5.55 25.3 5.8 24.4 7.25 23.55 8.7 23.0 10.75 22.4 12.8 22.1 14.8 L21.65 18.15 21.5 19.55 21.55 17.8 22.0 13.6 Q22.35 11.1 23.2 8.55 23.85 6.5 23.45 4.75 23.05 3.05 21.85 2.05 M14.6 25.75 Q14.3 27.6 15.3 29.65 16.25 31.75 18.9 33.3 21.7 34.7 24.35 34.4 26.1 34.2 27.5 33.6 26.5 33.6 25.2 34.05 L21.8 33.85 Q20.0 33.2 18.5 31.65 16.95 30.1 16.25 27.9 15.7 26.3 14.65 25.6 L14.6 25.75" fill="#000000" fill-rule="evenodd" stroke="none"/>
    <path d="M21.85 2.05 Q23.05 3.05 23.45 4.75 23.85 6.5 23.2 8.55 22.35 11.1 22.0 13.6 L21.55 17.8 21.5 19.55 21.65 18.15 22.1 14.8 Q22.4 12.8 23.0 10.75 23.55 8.7 24.4 7.25 25.3 5.8 26.5 5.55 28.0 5.4 29.2 7.3 30.35 9.2 31.0 12.15 31.6 15.15 31.55 18.25 31.45 21.35 30.5 23.55 L31.1 22.05 32.15 18.55 Q32.6 16.45 32.3 14.4 32.15 13.1 32.95 12.5 33.75 11.9 34.95 12.1 36.15 12.25 37.15 13.2 38.2 14.15 38.5 15.9 L38.9 20.3 Q39.05 22.95 38.8 25.65 38.5 28.3 37.6 30.3 36.65 32.3 34.8 32.9 L31.9 33.15 30.05 32.55 28.15 32.0 25.15 32.4 Q22.75 33.0 20.5 31.45 18.25 29.95 17.15 26.9 16.6 25.45 15.4 24.75 L12.9 23.4 Q11.6 22.8 10.75 21.65 9.95 20.55 10.15 18.2 10.4 15.8 11.05 13.05 11.65 10.3 12.75 7.8 13.8 5.3 15.3 3.55 16.8 1.8 18.8 1.4 20.6 1.1 21.85 2.05 M3.6 7.85 Q5.25 6.75 7.2 6.8 9.15 6.85 10.8 8.8 L11.0 9.15 9.0 18.05 7.9 17.05 5.2 14.75 1.95 12.4 Q0.8 11.6 1.4 10.25 2.0 8.9 3.6 7.85 M14.6 25.75 L14.65 25.6 Q15.7 26.3 16.25 27.9 16.95 30.1 18.5 31.65 20.0 33.2 21.8 33.85 L25.2 34.05 Q26.5 33.6 27.5 33.6 26.1 34.2 24.35 34.4 21.7 34.7 18.9 33.3 16.25 31.75 15.3 29.65 14.3 27.6 14.6 25.75" fill="#ffffff" fill-rule="evenodd" stroke="none"/>
  </g>
</svg>
