<?xml version="1.0" encoding="UTF-8" standalone="no"?>
<svg xmlns:xlink="http://www.w3.org/1999/xlink" height="138.95px" width="70.45px" xmlns="http://www.w3.org/2000/svg">
  <g transform="matrix(1.0, 0.0, 0.0, 1.0, 0.0, 0.0)">
    <path d="M17.6 15.9 Q14.6 16.7 11.45 18.2 8.35 19.65 5.6 22.05 10.2 20.0 14.65 19.55 L22.85 19.25 29.15 19.55 25.85 20.15 21.0 20.3 14.75 20.95 Q11.25 21.55 7.2 23.05 3.15 24.65 2.05 26.9 0.95 29.15 2.6 31.1 4.3 33.05 8.6 33.85 8.05 31.2 9.35 29.5 10.7 27.8 13.2 27.0 15.7 26.15 18.6 26.25 21.55 26.3 24.1 27.25 26.65 28.2 28.05 30.0 23.6 27.6 19.75 27.4 15.85 27.2 13.25 28.35 10.6 29.55 9.75 31.35 8.9 33.15 10.4 34.75 11.2 35.4 13.15 35.95 L17.3 36.95 21.35 37.7 Q25.75 38.7 29.95 40.6 34.15 42.5 38.35 44.2 L41.0 45.2 45.15 45.95 Q47.5 46.1 49.95 45.15 52.4 44.25 54.55 41.6 56.6 39.0 56.75 36.25 56.9 33.5 55.35 31.2 53.75 28.85 50.5 27.5 47.3 26.1 42.5 26.2 43.9 25.4 46.05 25.55 48.2 25.65 50.5 26.6 52.8 27.5 54.6 29.05 56.4 30.65 57.05 32.8 58.25 30.25 58.0 27.0 57.75 23.75 56.85 20.7 L57.45 21.35 Q57.65 18.95 59.15 17.1 60.7 15.3 62.7 13.7 L66.45 10.6 67.75 9.05 Q68.45 8.05 68.75 6.8 69.1 5.6 68.5 4.45 67.95 3.25 66.0 2.4 63.2 1.25 59.95 1.75 56.65 2.3 53.9 4.9 51.15 7.5 49.9 12.55 L49.8 11.7 49.75 10.35 Q47.25 11.75 43.35 12.3 L35.05 13.15 26.5 14.1 22.95 14.7 17.6 15.9 M35.1 129.55 L35.05 129.5 Q33.45 126.95 33.1 124.85 L33.15 121.7 33.55 115.7 34.1 108.6 34.65 102.3 34.95 98.6 38.05 97.65 43.65 50.6 40.25 49.65 Q37.8 48.55 36.15 46.1 L35.15 44.6 33.2 43.75 32.3 43.4 26.7 41.0 Q23.9 39.9 21.05 39.3 L19.7 39.05 13.25 37.65 Q10.5 36.9 9.35 35.95 L9.0 35.5 8.6 35.45 8.35 35.4 Q4.65 34.8 2.5 33.15 0.3 31.5 0.0 29.15 L0.1 27.65 Q0.55 25.5 2.75 23.75 2.7 23.25 3.15 22.6 L4.05 21.4 4.55 20.85 Q7.75 17.95 12.05 16.2 16.3 14.45 22.05 13.4 L35.45 11.5 43.15 10.65 Q46.75 10.2 48.95 8.95 L49.15 8.85 49.5 8.65 Q50.85 5.65 52.65 3.9 54.4 2.2 56.05 1.4 58.55 0.15 61.35 0.0 64.1 -0.1 66.6 0.95 68.65 1.85 69.45 3.0 70.3 4.1 70.4 5.1 70.55 6.05 70.35 7.0 70.0 8.55 69.15 9.8 L67.5 11.75 66.75 12.4 65.35 13.6 64.65 14.2 61.1 17.3 Q59.55 18.9 59.1 20.8 L59.05 21.45 59.0 21.9 58.95 22.6 Q60.0 27.45 59.35 30.85 59.1 32.3 58.5 33.5 L58.3 33.85 58.85 38.3 Q59.15 41.05 58.05 43.35 L57.55 44.3 50.5 96.0 54.3 96.2 Q57.4 96.6 58.75 97.95 L57.15 103.95 54.6 112.45 51.45 121.9 48.05 130.9 44.8 137.9 Q44.4 138.5 43.45 138.15 L46.45 132.05 49.9 123.25 53.25 113.7 55.65 105.95 55.7 105.95 57.2 100.65 57.15 100.65 57.6 98.75 Q56.3 97.45 53.5 97.05 L50.4 96.8 50.1 99.1 49.75 101.4 48.25 101.35 55.65 46.6 54.95 47.2 Q52.95 48.85 50.6 49.7 48.15 50.6 45.4 50.65 L45.25 50.65 39.15 100.05 Q39.85 100.55 40.7 100.85 L38.85 100.4 37.75 99.9 37.95 98.5 35.9 99.15 35.65 102.75 35.2 108.85 34.7 115.65 34.35 121.5 34.25 124.6 Q34.6 127.4 35.1 129.55 M41.65 48.45 L47.05 48.9 Q49.9 48.55 52.35 47.1 54.8 45.7 56.2 43.45 57.6 41.25 57.3 38.45 55.55 42.5 53.0 44.4 50.4 46.3 47.5 46.65 L42.0 46.5 Q39.35 46.0 37.5 45.2 39.1 47.55 41.65 48.45" fill="#000823" fill-rule="evenodd" stroke="none"/>
    <path d="M17.6 15.9 L22.95 14.7 26.5 14.1 35.05 13.15 43.35 12.3 Q47.25 11.75 49.75 10.35 L49.8 11.7 49.9 12.55 Q51.15 7.5 53.9 4.9 56.65 2.3 59.95 1.75 63.2 1.25 66.0 2.4 67.95 3.25 68.5 4.45 69.1 5.6 68.75 6.8 68.45 8.05 67.75 9.05 L66.45 10.6 62.7 13.7 Q60.7 15.3 59.15 17.1 57.65 18.95 57.45 21.35 L56.85 20.7 Q57.75 23.75 58.0 27.0 58.25 30.25 57.05 32.8 56.4 30.65 54.6 29.05 52.8 27.5 50.5 26.6 48.2 25.65 46.05 25.55 43.9 25.4 42.5 26.2 47.3 26.1 50.5 27.5 53.75 28.85 55.35 31.2 56.9 33.5 56.75 36.25 56.6 39.0 54.55 41.6 52.4 44.25 49.95 45.15 47.5 46.1 45.15 45.95 L41.0 45.2 38.35 44.2 Q34.15 42.5 29.95 40.6 25.75 38.7 21.35 37.7 L17.3 36.95 13.15 35.95 Q11.2 35.4 10.4 34.75 8.9 33.15 9.75 31.35 10.6 29.55 13.25 28.35 15.85 27.2 19.75 27.4 23.6 27.6 28.05 30.0 26.65 28.2 24.1 27.25 21.55 26.3 18.6 26.25 15.7 26.15 13.2 27.0 10.7 27.8 9.35 29.5 8.05 31.2 8.6 33.85 4.3 33.05 2.6 31.1 0.95 29.15 2.05 26.9 3.15 24.65 7.2 23.05 11.25 21.55 14.75 20.95 L21.0 20.3 25.85 20.15 29.15 19.55 22.85 19.25 14.65 19.55 Q10.2 20.0 5.6 22.05 8.35 19.65 11.45 18.2 14.6 16.7 17.6 15.9 M41.65 48.45 Q39.1 47.55 37.5 45.2 39.35 46.0 42.0 46.5 L47.5 46.65 Q50.4 46.3 53.0 44.4 55.55 42.5 57.3 38.45 57.6 41.25 56.2 43.45 54.8 45.7 52.35 47.1 49.9 48.55 47.05 48.9 L41.65 48.45" fill="#ffffff" fill-rule="evenodd" stroke="none"/>
    <path d="M40.7 100.85 Q39.85 100.55 39.15 100.05 L45.25 50.65 45.4 50.65 Q48.15 50.6 50.6 49.7 52.95 48.85 54.95 47.2 L55.65 46.6 48.25 101.35 48.2 101.6 43.2 101.35 40.7 100.85" fill="#488fc1" fill-rule="evenodd" stroke="none"/>
    <path d="M43.45 138.15 L43.35 138.3 Q42.95 138.95 41.75 138.95 40.6 138.95 39.1 137.75 37.6 136.5 36.25 133.4 35.6 131.8 35.1 129.55 34.6 127.4 34.25 124.6 L34.35 121.5 34.7 115.65 35.2 108.85 35.65 102.75 35.9 99.15 37.95 98.5 37.75 99.9 38.85 100.4 Q37.25 100.95 35.75 101.7 L35.3 107.8 Q40.0 105.9 43.9 105.35 L50.75 105.05 Q53.65 105.3 55.65 105.95 L53.25 113.7 49.9 123.25 46.45 132.05 43.45 138.15 M50.1 99.1 L50.4 96.8 53.5 97.05 Q56.3 97.45 57.6 98.75 L57.15 100.65 Q53.7 99.4 50.1 99.1" fill="#ffbd20" fill-rule="evenodd" stroke="none"/>
    <path d="M38.85 100.4 L40.7 100.85 43.2 101.35 48.2 101.6 48.25 101.35 49.75 101.4 50.1 99.1 Q53.7 99.4 57.15 100.65 L57.2 100.65 55.7 105.95 55.65 105.95 Q53.65 105.3 50.75 105.05 L43.9 105.35 Q40.0 105.9 35.3 107.8 L35.75 101.7 Q37.25 100.95 38.85 100.4" fill="#e31e00" fill-rule="evenodd" stroke="none"/>
  </g>
</svg>
