<?xml version="1.0" encoding="UTF-8" standalone="no"?>
<svg xmlns:xlink="http://www.w3.org/1999/xlink" height="183.95px" width="113.35px" xmlns="http://www.w3.org/2000/svg">
  <g transform="matrix(1.0, 0.0, 0.0, 1.0, -0.15, 0.0)">
    <path d="M100.6 40.4 Q104.2 29.15 109.5 18.7 L111.35 14.6 Q112.4 11.85 111.2 9.2 110.2 7.1 108.4 5.75 103.15 2.05 96.65 1.35 89.75 0.45 83.2 2.55 79.65 3.8 76.2 5.2 65.25 9.7 57.4 18.15 L52.75 24.3 Q51.0 27.2 51.75 30.5 52.6 34.2 55.05 36.95 59.65 42.0 65.8 44.8 71.2 47.25 77.15 47.8 L88.9 48.3 Q93.9 48.7 98.2 50.85 L98.8 47.6 100.6 40.4 M50.05 27.45 Q50.3 25.7 51.3 24.05 54.75 18.6 60.1 13.9 65.4 9.2 72.25 5.7 79.1 2.25 87.1 0.55 L95.25 0.1 Q99.5 0.4 103.3 1.65 107.1 2.9 109.75 4.95 112.45 7.05 113.25 9.8 114.05 12.6 112.3 15.95 109.55 20.95 106.85 27.1 104.15 33.2 102.0 39.85 L101.15 42.65 Q99.65 47.8 98.85 52.8 L98.6 52.65 Q93.25 49.95 87.2 49.15 81.8 48.5 76.4 49.1 64.65 48.0 56.05 40.15 53.35 37.75 51.7 34.25 L50.0 30.2 Q49.8 28.8 50.05 27.45" fill="#000823" fill-rule="evenodd" stroke="none"/>
    <path d="M57.4 18.15 Q65.25 9.7 76.2 5.2 79.65 3.8 83.2 2.55 89.75 0.45 96.65 1.35 103.15 2.05 108.4 5.75 110.2 7.1 111.2 9.2 112.4 11.85 111.35 14.6 L109.5 18.7 Q104.2 29.15 100.6 40.4 98.15 38.65 95.2 37.5 90.8 35.65 85.8 35.4 L79.8 34.9 Q74.1 34.05 69.05 31.2 61.05 26.65 57.4 18.15 M98.8 47.6 L98.2 50.85 Q93.9 48.7 88.9 48.3 L77.15 47.8 Q71.2 47.25 65.8 44.8 59.65 42.0 55.05 36.95 52.6 34.2 51.75 30.5 51.0 27.2 52.75 24.3 55.65 33.15 63.8 37.95 69.6 41.45 76.4 42.15 88.35 42.2 98.8 47.6" fill="#ffbd20" fill-rule="evenodd" stroke="none"/>
    <path d="M100.6 40.4 L98.8 47.6 Q88.35 42.2 76.4 42.15 69.6 41.45 63.8 37.95 55.65 33.15 52.75 24.3 L57.4 18.15 Q61.05 26.65 69.05 31.2 74.1 34.05 79.8 34.9 L85.8 35.4 Q90.8 35.65 95.2 37.5 98.15 38.65 100.6 40.4" fill="#e31e00" fill-rule="evenodd" stroke="none"/>
    <path d="M101.15 42.65 Q97.8 69.05 88.05 93.9 L87.85 94.55 87.2 94.75 Q83.7 95.75 80.1 95.4 L77.6 95.0 68.0 128.2 Q65.4 137.65 61.8 146.8 57.5 157.7 51.7 167.6 47.75 174.35 42.05 179.7 L40.6 180.85 Q37.85 182.8 34.65 183.65 30.9 184.45 27.3 183.05 25.35 182.3 23.95 180.7 20.85 177.1 21.25 172.4 L21.4 170.5 19.6 172.65 Q16.7 175.8 12.5 176.2 8.0 176.15 4.75 173.15 3.05 171.5 2.0 169.35 L1.35 167.9 Q0.0 164.05 0.15 160.05 0.25 157.0 0.65 154.05 2.2 143.1 5.95 132.8 10.05 121.65 15.55 111.05 L17.3 107.7 33.45 78.1 Q30.55 76.7 28.3 74.2 26.2 71.85 25.85 68.75 L25.8 68.35 35.0 51.45 50.05 27.45 Q49.8 28.8 50.0 30.2 L44.15 39.7 Q35.3 53.9 27.3 68.6 L28.35 71.25 29.95 73.4 Q32.2 75.7 35.25 77.05 L41.25 79.1 Q48.75 81.55 56.65 80.75 L65.45 58.75 65.1 58.55 64.55 58.2 63.45 57.35 62.25 56.2 61.8 55.7 61.65 55.35 61.7 55.3 66.45 57.65 69.85 58.95 71.7 59.75 71.35 60.0 67.35 59.15 63.15 69.6 Q61.05 74.45 59.2 79.35 58.8 80.35 58.9 81.4 59.15 83.6 61.2 85.1 L66.3 88.65 Q73.05 93.1 81.15 94.05 84.05 94.2 86.8 93.3 L89.95 84.3 92.8 75.15 Q96.05 63.9 98.6 52.65 L98.85 52.8 Q99.65 47.8 101.15 42.65 M33.2 81.55 L26.8 93.1 Q18.8 107.3 12.0 122.1 7.15 132.75 3.95 143.9 2.1 150.35 1.7 157.05 1.55 159.8 1.75 162.55 1.9 164.5 2.4 166.35 3.45 170.45 6.95 173.0 9.9 175.15 13.6 174.5 L15.0 174.0 Q18.2 172.8 20.05 169.9 23.05 165.15 23.6 159.6 24.65 149.15 23.7 138.9 L22.55 124.65 22.5 121.3 Q22.55 120.0 22.95 118.85 23.65 116.7 24.65 114.65 28.4 107.35 32.5 100.15 L43.25 81.25 Q38.65 80.85 34.65 78.85 L33.2 81.55 M44.75 81.55 L35.7 97.6 Q31.6 104.85 27.7 112.25 L25.3 117.2 Q24.6 118.75 24.35 120.4 24.05 122.7 24.15 125.05 24.25 128.65 24.5 132.25 L25.55 153.4 Q25.7 158.1 24.6 162.6 27.8 158.2 31.45 154.35 37.8 147.75 44.9 141.7 L51.25 136.05 54.4 132.65 Q55.1 131.8 55.4 130.8 59.05 119.25 62.15 107.5 L66.3 90.85 64.2 89.35 Q59.7 86.55 56.95 82.1 L44.75 81.55 M76.2 94.6 L67.75 91.15 62.45 112.2 57.85 128.0 56.15 132.25 54.8 134.3 52.4 136.75 37.85 149.85 Q32.15 155.0 27.35 161.05 24.5 164.6 23.2 169.05 22.15 172.6 23.0 176.15 23.65 179.0 26.1 180.85 28.5 182.5 31.55 182.45 34.9 182.3 38.0 180.8 L41.2 178.65 Q43.35 176.85 45.05 174.65 51.6 166.35 55.85 156.75 L59.0 149.65 Q63.5 139.0 66.65 127.85 L73.05 105.6 75.65 96.85 76.2 94.6" fill="#000000" fill-rule="evenodd" stroke="none"/>
    <path d="M50.0 30.2 L51.7 34.25 Q53.35 37.75 56.05 40.15 64.65 48.0 76.4 49.1 81.8 48.5 87.2 49.15 93.25 49.95 98.6 52.65 96.05 63.9 92.8 75.15 L89.95 84.3 86.8 93.3 Q84.05 94.2 81.15 94.05 73.05 93.1 66.3 88.65 L61.2 85.1 Q59.15 83.6 58.9 81.4 58.8 80.35 59.2 79.35 61.05 74.45 63.15 69.6 L67.35 59.15 71.35 60.0 71.7 59.75 69.85 58.95 66.45 57.65 61.7 55.3 61.65 55.35 61.8 55.7 62.25 56.2 63.45 57.35 64.55 58.2 65.1 58.55 65.45 58.75 56.65 80.75 Q48.75 81.55 41.25 79.1 L35.25 77.05 Q32.2 75.7 29.95 73.4 L28.35 71.25 27.3 68.6 Q35.3 53.9 44.15 39.7 L50.0 30.2" fill="#592d85" fill-rule="evenodd" stroke="none"/>
    <path d="M33.2 81.55 L34.65 78.85 Q38.65 80.85 43.25 81.25 L32.5 100.15 Q28.4 107.35 24.65 114.65 23.65 116.7 22.95 118.85 22.55 120.0 22.5 121.3 L22.55 124.65 23.7 138.9 Q24.65 149.15 23.6 159.6 23.05 165.15 20.05 169.9 18.2 172.8 15.0 174.0 L13.6 174.5 Q9.9 175.15 6.95 173.0 3.45 170.45 2.4 166.35 1.9 164.5 1.75 162.55 1.55 159.8 1.7 157.05 2.1 150.35 3.95 143.9 7.15 132.75 12.0 122.1 18.8 107.3 26.8 93.1 L33.2 81.55 M76.2 94.6 L75.65 96.85 73.05 105.6 66.65 127.85 Q63.5 139.0 59.0 149.65 L55.85 156.75 Q51.6 166.35 45.05 174.65 43.35 176.85 41.2 178.65 L38.0 180.8 Q34.9 182.3 31.55 182.45 28.5 182.5 26.1 180.85 23.65 179.0 23.0 176.15 22.15 172.6 23.2 169.05 24.5 164.6 27.35 161.05 32.15 155.0 37.85 149.85 L52.4 136.75 54.8 134.3 56.15 132.25 57.85 128.0 62.45 112.2 67.75 91.15 76.2 94.6" fill="#488fc1" fill-rule="evenodd" stroke="none"/>
  </g>
</svg>
