<?xml version="1.0" encoding="UTF-8" standalone="no"?>
<svg xmlns:xlink="http://www.w3.org/1999/xlink" height="73.2px" width="133.85px" xmlns="http://www.w3.org/2000/svg">
  <g transform="matrix(1.0, 0.0, 0.0, 1.0, 0.0, 0.0)">
    <path d="M6.15 57.25 L6.25 57.1 Q7.95 54.6 9.75 53.45 10.3 53.1 12.65 52.25 L18.35 50.25 25.1 48.0 31.05 46.0 34.6 44.85 Q36.05 46.3 38.0 49.1 L38.4 49.65 84.3 35.55 Q84.65 33.2 85.9 31.2 87.2 29.05 89.7 27.8 L93.75 25.9 93.95 25.6 Q94.65 24.45 95.7 23.4 98.25 21.05 102.9 19.35 L103.5 18.95 103.85 18.7 104.35 18.25 Q105.75 16.85 106.25 14.7 L106.95 10.05 107.1 9.1 107.35 7.35 107.5 6.35 Q107.65 5.25 108.25 3.9 108.85 2.5 110.0 1.35 110.7 0.7 111.55 0.3 L113.85 0.0 Q115.25 0.05 117.1 1.3 119.35 2.85 120.75 5.25 122.1 7.65 122.4 10.45 122.6 12.3 122.1 14.7 121.55 17.1 119.75 19.85 L119.8 20.25 119.8 20.5 Q119.95 23.05 121.45 26.3 L124.85 33.3 Q128.25 40.2 130.4 45.6 132.6 51.05 133.4 55.6 134.2 60.15 133.5 64.4 L133.3 65.1 132.75 66.5 132.0 67.45 Q131.7 70.25 130.15 71.8 L128.9 72.65 Q126.75 73.7 124.2 72.7 121.65 71.75 119.15 68.95 L119.0 68.8 118.75 68.45 118.2 68.4 Q116.75 67.95 114.65 66.0 L110.05 61.3 109.55 60.8 109.1 60.3 Q107.05 58.25 104.6 56.45 L99.65 53.0 98.8 52.45 97.05 51.25 95.25 51.2 Q92.3 51.1 90.1 49.6 L88.1 47.95 44.1 60.7 44.4 61.65 Q45.3 64.65 44.6 66.45 L38.4 67.35 29.6 68.35 19.65 69.15 10.1 69.55 2.35 69.35 Q1.65 69.2 1.65 68.25 L8.4 68.55 17.85 68.3 28.0 67.6 35.75 66.8 37.05 66.65 37.15 66.65 38.95 66.4 39.35 66.35 43.4 65.7 39.95 60.35 87.0 46.65 86.45 45.8 Q85.05 43.5 84.5 40.9 84.1 39.1 84.15 37.25 L35.8 51.95 35.15 49.9 Q34.6 47.55 34.5 45.95 L32.1 46.8 32.1 46.75 26.85 48.55 26.85 48.6 25.35 49.1 18.85 51.35 13.35 53.3 Q11.05 54.15 10.5 54.45 8.0 55.9 6.15 57.25 M109.05 6.6 Q108.65 8.9 108.4 11.45 108.2 14.0 107.45 16.25 106.7 18.5 104.75 20.0 L105.65 20.1 Q103.65 20.7 101.65 21.55 99.65 22.45 97.95 23.65 96.3 24.85 95.35 26.4 L99.8 26.5 Q102.1 27.15 104.1 28.6 106.05 30.05 107.35 31.8 108.6 33.6 108.7 35.15 106.2 31.1 103.3 29.1 100.4 27.1 97.6 27.0 94.8 26.9 92.55 28.5 90.35 30.1 89.2 33.2 88.15 36.45 88.65 39.0 89.2 41.6 90.6 43.5 92.0 45.4 93.45 46.6 L95.7 48.35 103.2 53.5 Q107.05 56.0 110.25 59.2 L113.05 62.2 116.15 65.2 Q117.65 66.55 118.65 66.85 120.8 67.3 121.85 65.6 122.9 63.95 122.5 61.05 122.1 58.2 119.85 55.05 117.6 51.9 113.2 49.4 115.5 49.65 117.65 51.3 119.8 52.95 121.4 55.35 123.05 57.8 123.7 60.35 124.35 62.9 123.6 64.95 122.9 67.0 120.35 67.9 123.3 71.15 125.85 71.5 128.4 71.9 129.7 69.75 131.0 67.6 130.2 63.3 129.0 57.65 127.05 53.75 125.1 49.85 123.4 47.25 121.75 44.65 121.45 42.9 L125.05 48.1 Q127.25 51.15 129.2 55.15 131.15 59.15 131.9 64.1 132.45 60.5 132.05 57.1 131.65 53.7 130.7 50.7 L128.85 45.55 127.45 42.2 Q125.8 38.35 123.65 34.5 121.55 30.6 119.95 27.0 118.35 23.45 118.2 20.55 L117.05 21.25 116.25 21.65 Q119.85 17.85 120.55 14.15 121.3 10.45 120.0 7.4 118.7 4.35 116.2 2.6 114.45 1.4 113.15 1.55 111.85 1.7 111.0 2.6 110.15 3.5 109.65 4.65 L109.05 6.6 M86.75 32.9 Q85.65 35.3 85.75 38.1 85.85 40.95 87.05 43.55 88.25 46.15 90.35 47.85 92.45 49.55 95.3 49.65 93.65 48.5 91.8 46.55 89.95 44.6 88.7 41.95 87.5 39.3 87.7 36.1 87.9 32.9 90.4 29.3 87.9 30.55 86.75 32.9" fill="#000823" fill-rule="evenodd" stroke="none"/>
    <path d="M86.75 32.9 Q87.9 30.55 90.4 29.3 87.9 32.9 87.7 36.1 87.5 39.3 88.7 41.95 89.95 44.6 91.8 46.55 93.65 48.5 95.3 49.65 92.45 49.55 90.35 47.85 88.25 46.15 87.05 43.55 85.85 40.95 85.75 38.1 85.65 35.3 86.75 32.9 M109.05 6.6 L109.65 4.65 Q110.15 3.5 111.0 2.6 111.85 1.7 113.15 1.55 114.45 1.4 116.2 2.6 118.7 4.35 120.0 7.4 121.3 10.45 120.55 14.15 119.85 17.85 116.25 21.65 L117.05 21.25 118.2 20.55 Q118.35 23.45 119.95 27.0 121.55 30.6 123.65 34.5 125.8 38.35 127.45 42.2 L128.85 45.55 130.7 50.7 Q131.65 53.7 132.05 57.1 132.45 60.5 131.9 64.1 131.15 59.15 129.2 55.15 127.25 51.15 125.05 48.1 L121.45 42.9 Q121.75 44.65 123.4 47.25 125.1 49.85 127.05 53.75 129.0 57.65 130.2 63.3 131.0 67.6 129.7 69.75 128.4 71.9 125.85 71.5 123.3 71.15 120.35 67.9 122.9 67.0 123.6 64.95 124.35 62.9 123.7 60.35 123.05 57.8 121.4 55.35 119.8 52.95 117.65 51.3 115.5 49.65 113.2 49.4 117.6 51.9 119.85 55.05 122.1 58.2 122.5 61.05 122.9 63.95 121.85 65.6 120.8 67.3 118.65 66.85 117.65 66.55 116.15 65.2 L113.05 62.2 110.25 59.2 Q107.05 56.0 103.2 53.5 L95.7 48.35 93.45 46.6 Q92.0 45.4 90.6 43.5 89.2 41.6 88.65 39.0 88.15 36.45 89.2 33.2 90.35 30.1 92.55 28.5 94.8 26.9 97.6 27.0 100.4 27.1 103.3 29.1 106.2 31.1 108.7 35.15 108.6 33.6 107.35 31.8 106.05 30.05 104.1 28.6 102.1 27.15 99.8 26.5 L95.35 26.4 Q96.3 24.85 97.95 23.65 99.65 22.45 101.65 21.55 103.65 20.7 105.65 20.1 L104.75 20.0 Q106.7 18.5 107.45 16.25 108.2 14.0 108.4 11.45 108.65 8.9 109.05 6.6" fill="#ffffff" fill-rule="evenodd" stroke="none"/>
    <path d="M35.8 51.95 L84.15 37.25 Q84.1 39.1 84.5 40.9 85.05 43.5 86.45 45.8 L87.0 46.65 39.95 60.35 37.55 56.05 Q36.4 53.7 35.8 51.95" fill="#488fc1" fill-rule="evenodd" stroke="none"/>
    <path d="M6.15 57.25 Q8.0 55.9 10.5 54.45 11.05 54.15 13.35 53.3 L18.85 51.35 25.35 49.1 26.85 48.6 Q26.3 52.75 27.05 55.9 27.8 59.1 29.25 61.35 30.7 63.6 32.2 64.95 L34.65 66.9 35.75 66.8 28.0 67.6 17.85 68.3 8.4 68.55 1.65 68.25 1.45 68.2 Q0.7 68.1 0.25 67.0 -0.25 65.9 0.3 64.05 0.85 62.2 3.2 59.75 L6.15 57.25 M32.1 46.8 L34.5 45.95 Q34.6 47.55 35.15 49.9 L35.8 51.95 Q36.4 53.7 37.55 56.05 L39.95 60.35 43.4 65.7 39.35 66.35 Q35.3 61.35 33.35 56.5 31.4 51.6 32.1 46.8" fill="#ffbd20" fill-rule="evenodd" stroke="none"/>
    <path d="M26.85 48.6 L26.85 48.55 32.1 46.75 32.1 46.8 Q31.4 51.6 33.35 56.5 35.3 61.35 39.35 66.35 L38.95 66.4 37.15 66.65 37.05 66.65 35.75 66.8 34.65 66.9 32.2 64.95 Q30.7 63.6 29.25 61.35 27.8 59.1 27.05 55.9 26.3 52.75 26.85 48.6" fill="#e31e00" fill-rule="evenodd" stroke="none"/>
  </g>
</svg>
