<?xml version="1.0" encoding="UTF-8" standalone="no"?>
<svg xmlns:xlink="http://www.w3.org/1999/xlink" height="106.1px" width="105.3px" xmlns="http://www.w3.org/2000/svg">
  <g transform="matrix(1.0, 0.0, 0.0, 1.0, 0.0, 0.0)">
    <path d="M88.45 35.05 Q86.8 35.2 85.35 36.85 87.75 35.5 89.3 36.05 90.85 36.6 91.05 38.25 91.25 39.95 89.55 42.1 91.85 40.25 92.05 38.6 92.3 36.95 91.2 35.95 90.1 34.95 88.45 35.05 M88.45 17.85 Q91.25 20.7 93.1 23.5 94.95 26.3 95.5 28.85 96.05 31.45 94.9 33.55 93.55 32.4 93.3 32.45 93.1 32.5 94.35 34.45 97.8 39.8 97.2 45.15 96.6 50.5 91.2 56.5 85.85 62.55 75.0 69.85 L73.8 68.9 Q72.7 68.0 70.75 67.05 68.85 66.05 66.45 65.75 L63.85 61.3 60.45 56.25 Q58.4 53.55 55.25 50.3 52.05 47.05 49.4 44.95 L44.4 41.4 40.05 38.75 Q39.8 36.3 38.85 34.4 L37.05 31.3 36.1 30.1 Q43.65 19.4 49.8 14.2 55.95 8.95 61.3 8.45 66.7 8.0 71.95 11.55 73.9 12.85 73.95 12.6 74.0 12.35 72.85 11.0 75.0 9.95 77.55 10.55 80.1 11.15 82.9 13.05 85.65 15.0 88.45 17.85 M67.7 13.75 Q66.05 13.9 64.15 16.15 66.35 14.5 68.0 14.75 69.7 14.95 70.2 16.55 70.7 18.1 69.3 20.5 71.0 19.05 71.15 17.4 71.3 15.75 70.35 14.65 69.35 13.55 67.7 13.75" fill="#488fc1" fill-rule="evenodd" stroke="none"/>
    <path d="M94.35 23.05 Q96.35 26.35 96.85 29.45 97.35 32.6 95.75 34.95 98.5 39.5 98.85 43.55 99.15 47.2 97.3 50.9 101.75 53.1 103.65 55.35 105.65 57.75 105.25 60.4 104.9 63.0 102.7 66.05 100.5 69.1 97.1 72.8 L89.65 80.95 86.6 84.5 Q85.3 86.2 84.6 88.2 83.9 90.25 83.95 93.15 84.0 96.0 84.95 100.35 85.65 103.8 84.45 105.15 83.25 106.45 81.1 106.0 79.0 105.5 76.8 103.4 74.65 101.35 73.35 98.0 72.05 94.6 72.55 90.2 73.25 85.7 76.55 81.25 79.85 76.8 84.85 72.35 89.85 67.9 95.6 63.4 98.25 61.25 98.4 59.9 98.6 58.5 97.1 57.4 L94.25 55.45 Q92.25 57.8 89.35 60.35 84.1 65.0 75.65 70.65 77.45 73.1 77.15 75.85 76.85 78.6 74.75 80.9 72.6 83.25 68.85 84.3 L62.2 84.8 Q61.25 85.55 60.0 85.95 L56.65 86.1 Q55.05 85.7 54.0 84.2 L52.65 82.25 Q49.55 80.85 45.8 78.25 41.35 75.2 35.9 69.65 30.3 64.0 26.55 57.95 24.55 54.7 23.15 51.15 L22.2 49.8 Q20.05 46.1 20.3 44.05 20.4 43.15 20.8 42.55 20.35 38.85 21.25 35.95 22.35 32.25 24.8 30.15 27.2 28.05 30.05 27.8 32.9 27.55 35.3 29.45 41.2 21.1 45.9 15.95 48.55 13.1 51.0 11.15 L49.05 8.25 Q47.95 6.75 46.6 6.9 45.2 7.05 43.0 9.65 L33.8 20.2 Q29.25 25.1 24.75 28.3 20.2 31.5 15.7 32.05 11.3 32.45 7.95 31.1 4.6 29.75 2.55 27.5 0.55 25.3 0.1 23.15 -0.35 21.0 1.05 19.85 2.4 18.7 5.85 19.45 10.15 20.5 13.05 20.65 15.9 20.75 17.95 20.1 20.0 19.45 21.7 18.15 L25.35 15.2 33.65 7.95 Q37.4 4.6 40.5 2.5 43.6 0.35 46.25 0.05 48.9 -0.3 51.25 1.75 53.45 3.65 55.55 8.2 59.3 6.4 62.95 6.8 67.0 7.25 71.5 10.15 73.9 8.6 77.0 9.15 80.1 9.75 83.35 11.8 86.6 13.85 89.5 16.8 92.35 19.75 94.35 23.05 M88.45 17.85 Q85.65 15.0 82.9 13.05 80.1 11.15 77.55 10.55 75.0 9.95 72.85 11.0 74.0 12.35 73.95 12.6 73.9 12.85 71.95 11.55 66.7 8.0 61.3 8.45 55.95 8.95 49.8 14.2 43.65 19.4 36.1 30.1 L37.05 31.3 38.85 34.4 Q39.8 36.3 40.05 38.75 L44.4 41.4 49.4 44.95 Q52.05 47.05 55.25 50.3 58.4 53.55 60.45 56.25 L63.85 61.3 66.45 65.75 Q68.85 66.05 70.75 67.05 72.7 68.0 73.8 68.9 L75.0 69.85 Q85.85 62.55 91.2 56.5 96.6 50.5 97.2 45.15 97.8 39.8 94.35 34.45 93.1 32.5 93.3 32.45 93.55 32.4 94.9 33.55 96.05 31.45 95.5 28.85 94.95 26.3 93.1 23.5 91.25 20.7 88.45 17.85 M88.45 35.05 Q90.1 34.95 91.2 35.95 92.3 36.95 92.05 38.6 91.85 40.25 89.55 42.1 91.25 39.95 91.05 38.25 90.85 36.6 89.3 36.05 87.75 35.5 85.35 36.85 86.8 35.2 88.45 35.05 M103.2 57.15 Q102.2 55.4 99.5 53.75 97.5 52.7 97.2 53.35 96.9 54.05 98.95 55.45 101.15 56.9 101.8 59.15 102.45 61.4 100.75 63.55 99.05 65.65 99.45 66.05 99.85 66.45 101.45 65.25 L103.05 63.4 Q103.8 62.15 104.0 60.5 104.2 58.9 103.2 57.15 M91.5 71.45 Q93.6 69.8 93.3 69.05 93.05 68.3 91.3 69.45 84.1 74.85 80.5 79.95 76.9 85.0 76.1 89.4 75.25 93.85 76.5 97.4 77.75 100.9 80.3 103.3 81.65 104.55 82.6 104.3 83.55 104.1 83.9 103.1 84.3 102.15 84.05 101.15 L83.15 97.9 82.7 95.2 Q82.55 93.8 82.55 91.75 L82.25 90.25 81.5 89.15 Q81.1 88.5 80.75 86.85 80.5 85.05 81.75 82.65 83.05 80.3 85.05 77.9 L88.85 73.8 91.5 71.45 M67.7 13.75 Q69.35 13.55 70.35 14.65 71.3 15.75 71.15 17.4 71.0 19.05 69.3 20.5 70.7 18.1 70.2 16.55 69.7 14.95 68.0 14.75 66.35 14.5 64.15 16.15 66.05 13.9 67.7 13.75 M53.05 8.25 Q53.75 7.95 52.7 5.9 51.15 3.15 49.4 2.15 47.65 1.1 46.05 1.25 44.4 1.4 43.15 2.15 L41.25 3.7 Q40.0 5.3 40.4 5.7 40.8 6.1 42.95 4.45 45.15 2.8 47.35 3.5 49.6 4.15 50.95 6.4 52.35 8.5 53.05 8.25 M37.25 11.8 Q36.5 11.45 34.85 13.55 L32.45 16.15 28.2 19.85 Q25.8 21.8 23.4 23.0 21.0 24.25 19.2 23.95 17.55 23.6 16.9 23.15 L15.85 22.4 Q15.4 22.05 14.35 22.05 L10.9 21.8 8.2 21.3 5.0 20.35 3.0 20.4 Q2.05 20.75 1.8 21.7 1.55 22.65 2.75 24.05 5.05 26.65 8.6 27.95 12.1 29.25 16.5 28.55 20.95 27.85 26.1 24.35 31.25 20.85 36.85 13.8 38.05 12.1 37.25 11.8 M31.4 28.9 Q29.15 28.6 26.7 30.1 24.4 31.6 23.3 33.45 22.2 35.25 21.95 37.45 21.8 39.35 21.95 41.55 L22.35 41.35 Q24.15 40.7 26.65 41.3 29.7 42.05 31.55 43.9 33.4 45.7 34.8 48.3 L37.65 54.05 Q39.2 57.15 41.5 60.45 43.9 63.7 46.85 66.2 49.8 68.7 52.85 70.65 L58.35 74.35 Q60.9 76.05 62.4 77.75 64.05 79.7 64.0 81.35 63.95 82.7 63.25 83.75 67.8 83.9 70.45 82.65 73.4 81.35 74.75 79.25 76.35 76.85 76.15 74.65 75.9 72.4 74.35 70.7 72.85 68.95 70.6 67.95 68.3 67.0 65.9 67.05 64.15 63.55 61.4 59.6 58.7 55.6 54.35 51.1 50.0 46.7 46.05 43.9 42.15 41.1 38.7 39.25 38.85 36.85 37.9 34.55 37.0 32.3 35.3 30.75 33.6 29.2 31.4 28.9 M27.05 55.3 L25.8 54.1 Q28.45 59.15 32.35 63.95 36.7 69.25 41.9 73.55 46.4 77.35 51.0 79.9 47.25 74.75 43.7 70.9 38.7 65.45 34.45 61.8 L27.05 55.3 M36.65 62.9 L41.8 67.9 47.05 73.6 Q49.5 76.45 50.9 78.65 52.55 79.5 52.25 78.1 51.9 76.7 50.1 74.0 48.3 71.35 45.5 68.35 42.7 65.35 39.4 63.0 36.15 60.65 32.9 59.9 34.25 60.75 36.65 62.9" fill="#000823" fill-rule="evenodd" stroke="none"/>
    <path d="M103.2 57.15 Q104.2 58.9 104.0 60.5 103.8 62.15 103.05 63.4 L101.45 65.25 Q99.85 66.45 99.45 66.05 99.05 65.65 100.75 63.55 102.45 61.4 101.8 59.15 101.15 56.9 98.95 55.45 96.9 54.05 97.2 53.35 97.5 52.7 99.5 53.75 102.2 55.4 103.2 57.15 M91.5 71.45 L88.85 73.8 85.05 77.9 Q83.05 80.3 81.75 82.65 80.5 85.05 80.75 86.85 81.1 88.5 81.5 89.15 L82.25 90.25 82.55 91.75 Q82.55 93.8 82.7 95.2 L83.15 97.9 84.05 101.15 Q84.3 102.15 83.9 103.1 83.55 104.1 82.6 104.3 81.65 104.55 80.3 103.3 77.75 100.9 76.5 97.4 75.25 93.85 76.1 89.4 76.9 85.0 80.5 79.95 84.1 74.85 91.3 69.45 93.05 68.3 93.3 69.05 93.6 69.8 91.5 71.45 M53.05 8.25 Q52.35 8.5 50.95 6.4 49.6 4.15 47.35 3.5 45.15 2.8 42.95 4.45 40.8 6.1 40.4 5.7 40.0 5.3 41.25 3.7 L43.15 2.15 Q44.4 1.4 46.05 1.25 47.65 1.1 49.4 2.15 51.15 3.15 52.7 5.9 53.75 7.95 53.05 8.25 M37.25 11.8 Q38.05 12.1 36.85 13.8 31.25 20.85 26.1 24.35 20.95 27.85 16.5 28.55 12.1 29.25 8.6 27.95 5.05 26.65 2.75 24.05 1.55 22.65 1.8 21.7 2.05 20.75 3.0 20.4 L5.0 20.35 8.2 21.3 10.9 21.8 14.35 22.05 Q15.4 22.05 15.85 22.4 L16.9 23.15 Q17.55 23.6 19.2 23.95 21.0 24.25 23.4 23.0 25.8 21.8 28.2 19.85 L32.45 16.15 34.85 13.55 Q36.5 11.45 37.25 11.8" fill="#032853" fill-rule="evenodd" stroke="none"/>
    <path d="M27.05 55.3 L34.45 61.8 Q38.7 65.45 43.7 70.9 47.25 74.75 51.0 79.9 46.4 77.35 41.9 73.55 36.7 69.25 32.35 63.95 28.45 59.15 25.8 54.1 L27.05 55.3 M31.4 28.9 Q33.6 29.2 35.3 30.75 37.0 32.3 37.9 34.55 38.85 36.85 38.7 39.25 42.15 41.1 46.05 43.9 50.0 46.7 54.35 51.1 58.7 55.6 61.4 59.6 64.15 63.55 65.9 67.05 68.3 67.0 70.6 67.95 72.85 68.95 74.35 70.7 75.9 72.4 76.15 74.65 76.35 76.85 74.75 79.25 73.4 81.35 70.45 82.65 67.8 83.9 63.25 83.75 63.95 82.7 64.0 81.35 64.05 79.7 62.4 77.75 60.9 76.05 58.35 74.35 L52.85 70.65 Q49.8 68.7 46.85 66.2 43.9 63.7 41.5 60.45 39.2 57.15 37.65 54.05 L34.8 48.3 Q33.4 45.7 31.55 43.9 29.7 42.05 26.65 41.3 24.15 40.7 22.35 41.35 L21.95 41.55 Q21.8 39.35 21.95 37.45 22.2 35.25 23.3 33.45 24.4 31.6 26.7 30.1 29.15 28.6 31.4 28.9" fill="#f9de65" fill-rule="evenodd" stroke="none"/>
    <path d="M36.65 62.9 Q34.25 60.75 32.9 59.9 36.15 60.65 39.4 63.0 42.7 65.35 45.5 68.35 48.3 71.35 50.1 74.0 51.9 76.7 52.25 78.1 52.55 79.5 50.9 78.65 49.5 76.45 47.05 73.6 L41.8 67.9 36.65 62.9" fill="#fa5961" fill-rule="evenodd" stroke="none"/>
  </g>
</svg>
