<?xml version="1.0" encoding="UTF-8" standalone="no"?>
<svg xmlns:xlink="http://www.w3.org/1999/xlink" height="26.3px" width="26.4px" xmlns="http://www.w3.org/2000/svg">
  <g transform="matrix(1.0, 0.0, 0.0, 1.0, 0.0, 0.0)">
    <path d="M21.75 21.9 Q18.9 24.6 15.5 25.65 L8.85 26.05 Q5.55 25.4 3.15 23.0 0.8 20.5 0.2 17.25 -0.4 13.95 0.75 10.55 1.85 7.2 4.65 4.4 7.5 1.7 10.9 0.65 14.3 -0.4 17.55 0.25 20.85 0.9 23.25 3.3 25.6 5.8 26.2 9.05 26.8 12.35 25.65 15.75 24.55 19.1 21.75 21.9" fill="#000823" fill-rule="evenodd" stroke="none"/>
    <path d="M24.5 15.45 Q23.5 18.55 20.95 21.05 18.4 23.5 15.3 24.45 L9.25 24.8 Q6.3 24.25 4.1 22.05 1.95 19.8 1.45 16.85 0.9 13.85 1.9 10.8 2.95 7.7 5.45 5.2 8.05 2.75 11.1 1.8 L17.2 1.45 Q20.15 2.05 22.35 4.2 24.5 6.45 25.0 9.45 25.55 12.4 24.5 15.45" fill="#ffffff" fill-rule="evenodd" stroke="none"/>
    <path d="M19.05 13.85 Q18.25 15.6 16.7 17.15 15.1 18.7 13.35 19.45 11.6 20.2 10.0 20.1 8.4 20.0 7.35 18.95 6.3 17.85 6.2 16.3 6.1 14.7 6.9 12.9 7.65 11.15 9.2 9.6 10.8 8.05 12.55 7.3 14.35 6.55 15.95 6.65 17.55 6.75 18.6 7.8 19.6 8.9 19.7 10.5 19.8 12.1 19.05 13.85" fill="#0b4f7d" fill-rule="evenodd" stroke="none"/>
    <path d="M7.9 14.1 Q8.35 12.0 10.2 10.1 12.15 8.25 14.25 7.85 16.35 7.45 17.65 8.7 18.9 10.0 18.45 12.1 18.0 14.2 16.15 16.1 14.2 17.95 12.1 18.35 10.0 18.75 8.7 17.55 7.5 16.2 7.9 14.1" fill="#ffffff" fill-rule="evenodd" stroke="none"/>
    <path d="M11.2 13.9 Q11.35 13.1 12.05 12.4 12.8 11.7 13.6 11.55 14.4 11.4 14.9 11.85 15.35 12.35 15.2 13.15 L14.3 14.65 Q13.6 15.35 12.8 15.5 12.0 15.65 11.5 15.2 11.05 14.7 11.2 13.9" fill="#000823" fill-rule="evenodd" stroke="none"/>
  </g>
</svg>
