<?xml version="1.0" encoding="UTF-8" standalone="no"?>
<svg xmlns:xlink="http://www.w3.org/1999/xlink" height="16.3px" width="15.4px" xmlns="http://www.w3.org/2000/svg">
  <g transform="matrix(1.0, 0.0, 0.0, 1.0, 0.0, 0.0)">
    <path d="M12.75 6.55 Q13.1 8.0 12.5 9.0 11.9 10.0 10.6 10.0 9.3 10.05 7.6 8.6 5.95 7.05 5.55 5.55 5.15 4.05 5.8 3.1 6.4 2.1 7.75 2.15 9.1 2.2 10.9 3.7 12.4 5.1 12.75 6.55" fill="#032853" fill-rule="evenodd" stroke="none"/>
    <path d="M15.2 9.1 Q15.85 12.1 14.6 14.15 13.4 16.2 10.75 16.3 8.1 16.35 4.55 13.35 1.1 10.2 0.3 7.1 -0.5 4.0 0.8 1.95 2.1 -0.05 4.9 0.0 7.7 0.1 11.4 3.25 14.5 6.1 15.2 9.1 M12.75 6.55 Q12.4 5.1 10.9 3.7 9.1 2.2 7.75 2.15 6.4 2.1 5.8 3.1 5.15 4.05 5.55 5.55 5.95 7.05 7.6 8.6 9.3 10.05 10.6 10.0 11.9 10.0 12.5 9.0 13.1 8.0 12.75 6.55" fill="#000823" fill-rule="evenodd" stroke="none"/>
  </g>
</svg>
