<?xml version="1.0" encoding="UTF-8" standalone="no"?>
<svg xmlns:xlink="http://www.w3.org/1999/xlink" height="11.15px" width="12.5px" xmlns="http://www.w3.org/2000/svg">
  <g transform="matrix(1.0, 0.0, 0.0, 1.0, 0.0, 0.0)">
    <path d="M9.0 9.35 Q6.6 11.05 4.25 11.15 1.9 11.25 0.65 9.7 -0.45 8.05 0.35 5.8 1.15 3.6 3.45 1.8 5.85 0.1 8.25 0.0 10.6 -0.1 11.8 1.45 12.95 3.1 12.15 5.3 11.35 7.55 9.0 9.35" fill="#0b4f7d" fill-rule="evenodd" stroke="none"/>
    <path d="M8.3 8.25 Q6.4 9.6 4.55 9.65 2.65 9.75 1.65 8.5 0.75 7.2 1.4 5.45 2.05 3.65 3.9 2.25 5.85 0.9 7.7 0.8 9.6 0.7 10.55 1.95 11.45 3.25 10.8 5.05 10.2 6.8 8.3 8.25" fill="#ffffff" fill-rule="evenodd" stroke="none"/>
    <path d="M6.75 6.85 Q5.9 7.45 5.05 7.5 4.2 7.5 3.75 6.95 3.35 6.35 3.65 5.55 3.95 4.8 4.8 4.15 5.65 3.55 6.5 3.5 7.35 3.45 7.8 4.0 8.2 4.6 7.9 5.4 7.6 6.2 6.75 6.85 Z" fill="none" stroke="#000823" stroke-linecap="round" stroke-linejoin="round" stroke-width="0.5"/>
  </g>
</svg>
