<?xml version="1.0" encoding="UTF-8" standalone="no"?>
<svg xmlns:xlink="http://www.w3.org/1999/xlink" height="67.45px" width="463.9px" xmlns="http://www.w3.org/2000/svg">
  <g transform="matrix(1.0, 0.0, 0.0, 1.0, 4.5, 3.3)">
    <path d="M116.8 -2.95 L140.45 -2.9 Q144.2 -2.9 146.15 0.3 148.15 -2.9 151.85 -2.9 L175.45 -2.9 Q177.9 -2.45 179.3 -0.4 179.9 0.55 180.1 1.6 181.3 8.35 182.15 15.2 182.15 9.3 182.45 3.45 182.8 -2.5 188.65 -3.05 L222.2 -3.05 223.55 -2.9 Q228.45 -1.55 228.55 3.45 228.65 10.6 228.25 17.75 228.1 19.85 226.5 21.35 L226.85 23.45 Q227.1 30.25 227.0 37.1 L226.8 40.0 227.5 41.1 Q228.1 42.2 228.2 43.4 L228.8 57.6 Q228.85 59.65 227.65 61.25 225.6 64.1 222.2 64.1 L188.65 64.1 Q186.35 64.2 184.7 62.75 183.3 63.7 181.65 64.05 L162.45 64.1 Q159.6 64.1 157.65 62.0 L156.5 63.05 154.2 64.0 137.85 64.15 Q135.5 64.2 133.65 62.55 132.25 63.65 130.65 64.05 L110.2 63.9 Q99.3 63.75 88.0 63.9 L85.85 63.6 Q83.6 62.9 82.6 60.8 81.0 57.4 80.6 53.45 L78.85 59.95 77.9 61.85 Q76.45 63.65 74.2 64.15 L54.4 63.95 52.5 63.65 Q48.4 62.3 47.9 58.1 L43.75 60.45 Q34.7 64.95 24.35 64.0 15.3 63.45 7.9 58.05 1.5 53.3 -1.4 46.05 -4.4 38.65 -4.5 30.75 -4.65 18.6 2.4 8.8 6.1 3.65 11.8 0.85 23.95 -5.1 37.05 -1.75 50.25 1.55 56.55 13.75 58.55 17.55 55.85 20.95 L57.9 23.1 Q61.05 12.35 64.5 1.7 65.9 -2.7 70.45 -3.05 L92.5 -2.85 Q97.2 -2.8 98.8 1.8 L107.1 33.6 111.55 2.55 Q111.7 0.75 112.9 -0.6 114.5 -2.45 116.8 -2.95 M303.85 -1.85 Q305.6 -3.0 307.6 -3.0 L327.7 -2.95 Q330.55 -2.35 332.0 0.15 333.0 1.85 333.25 3.6 333.95 -1.7 338.95 -2.35 L359.55 -3.05 Q361.9 -2.45 364.2 -3.05 L397.75 -3.05 Q399.85 -3.05 401.6 -1.8 403.2 -3.0 405.45 -3.05 419.8 -3.85 433.9 -2.3 444.35 -0.95 451.25 7.0 455.55 11.95 456.35 18.45 457.2 24.95 454.6 30.8 452.65 35.1 448.65 37.65 L458.85 55.55 Q459.65 56.95 459.3 58.7 458.5 63.05 454.1 63.3 L433.45 64.0 Q430.3 64.0 428.45 61.75 426.45 64.1 423.4 64.1 L404.4 63.9 Q402.9 63.85 401.6 62.85 399.9 64.2 397.75 64.1 L364.2 64.1 Q361.55 64.05 359.65 62.15 L358.85 61.25 Q357.7 59.65 357.7 57.6 L357.7 29.3 347.45 59.7 Q346.15 63.4 342.35 64.05 L322.9 64.0 Q318.85 63.95 317.6 60.3 314.1 50.2 311.2 40.0 308.15 52.5 297.5 59.5 292.7 62.65 287.2 63.55 275.2 65.75 264.5 59.95 253.35 53.9 250.0 41.7 246.45 28.7 251.35 16.1 255.25 6.0 264.8 1.0 275.4 -4.55 287.1 -2.45 294.95 -1.1 301.15 4.25 300.85 1.7 302.45 -0.45 L303.1 -1.2 303.85 -1.85 M157.45 53.0 L157.65 53.2 157.85 53.0 157.45 53.0" fill="#000000" fill-rule="evenodd" stroke="none"/>
    <path d="M429.25 14.55 Q427.4 13.75 424.55 13.75 L423.9 13.75 423.9 24.15 422.3 24.25 422.3 12.55 422.95 12.55 Q427.1 12.5 429.05 14.25 L429.25 14.55 M433.3 55.3 L451.75 55.3 438.35 32.75 Q448.7 29.0 448.7 19.2 448.7 12.5 444.65 8.05 L443.9 7.15 Q450.3 12.0 450.3 20.4 450.3 30.2 439.95 33.95 L453.35 56.5 433.85 56.5 433.3 55.3 M414.0 4.4 Q417.05 6.35 415.35 9.65 412.7 14.7 408.15 10.85 L409.6 11.35 411.2 11.35 410.0 8.75 407.85 3.9 409.3 2.85 409.7 2.55 409.8 2.75 410.0 3.3 411.7 7.65 412.85 10.55 Q414.1 9.5 414.5 6.8 414.6 5.35 414.0 4.4 M422.1 34.0 L423.75 37.7 423.8 56.5 405.85 56.5 405.85 55.3 407.9 55.3 422.2 55.25 422.1 34.0 M409.95 51.85 L409.2 50.55 410.55 49.15 414.55 44.95 415.2 44.25 Q421.35 48.5 415.2 53.35 414.0 54.35 412.6 53.8 411.45 53.15 410.45 52.15 415.7 53.95 416.9 48.5 417.2 47.1 416.8 45.8 L410.3 52.05 409.95 51.85 M439.9 45.1 L440.55 44.4 Q446.9 48.8 440.4 53.65 L437.95 53.7 435.9 52.35 Q437.25 53.3 438.85 52.65 443.25 50.9 442.15 45.95 L439.85 48.15 438.2 49.75 435.65 52.2 435.5 52.3 435.3 52.0 434.55 50.7 435.9 49.3 439.9 45.1 M396.55 2.35 L398.15 2.35 398.15 15.35 382.65 15.35 382.65 20.65 381.05 20.65 381.05 14.15 396.5 14.15 396.55 4.6 396.55 2.35 M394.95 23.0 L396.55 23.0 396.55 36.0 382.65 36.0 382.65 41.15 381.05 41.15 381.05 34.8 394.95 34.8 394.95 23.0 M396.55 43.5 L398.15 43.5 398.15 56.5 364.6 56.5 364.6 55.3 396.55 55.3 396.55 43.5 M366.6 10.85 L365.8 9.55 367.15 8.15 371.2 3.9 371.85 3.2 372.95 3.95 Q376.45 6.9 374.05 10.9 372.9 12.8 370.9 13.05 368.6 12.95 367.1 11.2 370.55 13.05 372.65 9.85 374.1 7.55 373.45 4.8 L371.25 6.9 369.35 8.65 366.85 11.05 366.75 11.15 366.6 10.85 M391.1 45.4 L391.8 44.65 392.9 45.35 Q395.15 47.15 394.55 49.75 392.9 56.95 387.0 52.6 391.25 54.35 393.0 50.2 393.8 48.3 393.35 46.25 L391.1 48.45 389.35 50.1 386.85 52.5 386.7 52.6 386.5 52.3 385.75 51.0 387.1 49.6 391.1 45.4 M331.85 26.6 L331.1 31.7 Q330.1 23.5 328.65 16.6 L325.6 2.35 326.95 2.35 331.85 26.6 M357.95 2.35 L359.95 2.35 341.7 56.5 323.3 56.5 322.95 55.3 340.1 55.3 357.95 2.35 M344.85 2.45 L345.3 2.1 345.4 2.35 345.6 2.9 347.25 7.15 348.45 10.15 Q349.65 9.05 350.05 6.4 350.15 4.9 349.55 4.0 352.0 5.6 351.1 8.5 349.1 14.7 343.8 10.5 L345.15 10.95 Q346.0 11.15 346.8 10.95 L345.6 8.3 343.4 3.45 344.85 2.45 M332.15 44.1 L332.65 43.75 332.75 44.0 332.95 44.5 334.65 48.85 335.8 51.8 Q337.05 50.7 337.45 48.05 337.55 46.6 336.95 45.65 340.1 47.75 338.25 51.65 337.1 54.0 334.35 53.85 L331.25 52.2 Q332.45 52.8 333.9 52.65 L334.2 52.6 332.95 49.95 330.8 45.1 332.15 44.1 M312.65 10.85 L311.9 9.6 313.25 8.2 317.25 4.0 317.95 3.25 319.05 3.95 Q323.95 9.0 317.9 12.3 315.25 13.7 313.05 11.15 316.55 12.95 318.6 9.75 320.1 7.5 319.5 4.85 L313.0 11.1 312.85 11.2 312.65 10.85 M297.35 8.2 L296.55 7.3 Q310.0 20.15 304.45 38.45 299.4 55.0 282.05 56.5 272.1 56.85 264.1 50.75 279.1 59.9 293.55 50.7 301.25 45.8 303.45 36.95 L303.9 33.85 Q304.7 19.95 297.35 8.2 M291.65 42.3 L292.35 41.55 293.45 42.25 Q296.55 44.25 295.2 47.75 292.75 53.9 287.55 49.5 288.6 50.15 289.85 49.85 295.1 48.65 293.9 43.15 L291.65 45.3 289.95 46.95 287.4 49.4 287.25 49.5 287.05 49.15 286.3 47.9 287.65 46.5 291.65 42.3 M275.25 40.2 L274.8 39.8 Q270.35 29.3 274.6 18.9 277.2 12.5 282.5 15.4 L282.7 15.7 Q280.6 15.05 279.35 16.6 270.4 27.65 276.25 40.8 L275.25 40.2 M265.35 6.9 L265.8 6.55 265.9 6.8 266.15 7.4 267.8 11.6 268.95 14.6 Q270.15 13.5 270.55 10.85 270.65 9.35 270.05 8.45 272.55 10.2 271.6 12.9 269.35 19.1 264.3 14.95 L265.65 15.4 Q266.5 15.6 267.3 15.4 L266.15 12.8 263.95 7.9 265.35 6.9 M221.0 2.35 L222.6 2.35 222.6 15.35 207.1 15.35 207.1 20.65 205.5 20.65 205.5 14.15 221.0 14.15 221.0 2.35 M219.4 23.0 L221.0 23.0 221.0 36.0 207.1 36.0 207.1 41.15 205.5 41.15 205.5 34.8 219.4 34.8 219.4 23.0 M221.0 43.5 L222.6 43.5 222.6 56.5 189.05 56.5 189.05 55.3 203.75 55.3 221.0 55.3 221.0 43.5 M211.85 45.4 L213.3 44.35 213.7 44.05 213.8 44.25 214.0 44.8 215.7 49.15 216.85 52.05 Q218.1 51.0 218.5 48.3 218.6 46.85 218.0 45.9 221.0 47.85 219.35 51.1 216.75 56.15 212.15 52.35 L213.6 52.85 215.2 52.85 214.0 50.25 211.85 45.4 M192.95 2.3 L193.2 2.85 194.85 7.15 196.0 10.1 Q197.25 9.0 197.65 6.35 197.75 4.9 197.15 3.95 200.3 6.25 198.4 9.95 196.95 12.85 193.7 12.0 L191.3 10.4 192.75 10.9 Q193.6 11.1 194.4 10.9 L193.2 8.3 191.0 3.45 192.35 2.4 192.85 2.05 192.95 2.3 M144.05 25.4 L143.15 20.1 139.5 2.35 140.85 2.35 144.75 21.3 144.05 25.4 M138.0 55.3 L151.65 55.3 158.7 25.6 159.1 32.75 153.25 56.5 138.25 56.5 138.0 55.3 M162.85 55.3 L179.5 55.3 173.2 2.35 174.65 2.35 181.1 56.5 162.9 56.5 162.85 55.3 M165.35 4.35 Q168.8 6.75 166.25 10.7 164.55 13.35 161.65 12.3 L159.6 10.85 160.95 11.3 Q161.8 11.5 162.6 11.3 L161.4 8.65 159.2 3.8 160.65 2.8 161.1 2.45 161.2 2.7 161.4 3.25 163.05 7.5 164.25 10.5 Q165.45 9.4 165.85 6.75 165.95 5.25 165.35 4.35 M169.75 44.5 L171.4 48.8 172.55 51.75 Q173.8 50.65 174.2 48.0 174.3 46.55 173.7 45.6 176.35 47.55 175.1 50.65 172.8 56.15 167.85 52.05 168.5 52.4 169.3 52.55 170.15 52.75 170.95 52.55 L169.75 49.95 167.55 45.1 168.9 44.05 169.4 43.7 169.5 43.95 169.75 44.5 M131.05 4.25 Q133.35 5.85 132.6 8.4 130.6 15.1 125.2 10.7 L126.65 11.2 Q127.5 11.4 128.3 11.2 L127.1 8.6 124.9 3.75 126.25 2.7 126.75 2.35 126.85 2.6 127.1 3.15 128.75 7.45 129.9 10.4 Q131.15 9.3 131.55 6.65 131.65 5.2 131.05 4.25 M116.0 51.9 Q120.35 53.9 122.15 49.45 122.9 47.55 122.45 45.55 L115.9 51.8 115.75 51.95 115.55 51.55 114.8 50.35 116.15 48.95 120.15 44.75 120.85 44.05 Q126.2 47.55 121.7 52.8 120.55 54.15 118.85 53.5 117.25 52.95 116.0 51.9 M129.95 26.15 L130.05 25.2 131.25 32.0 129.8 56.5 110.6 56.5 110.8 55.3 128.2 55.3 129.95 26.15 M140.85 51.75 L140.1 50.5 141.45 49.1 145.45 44.9 146.15 44.15 147.25 44.85 Q149.85 46.6 148.9 49.65 146.75 56.6 141.35 52.1 145.45 53.75 147.3 50.1 148.3 48.05 147.7 45.75 L141.2 52.0 141.05 52.1 140.85 51.75 M91.7 2.35 L92.95 2.35 107.1 56.5 88.4 56.5 88.2 55.3 90.35 55.3 105.5 55.25 100.0 34.2 91.7 2.35 M84.95 49.6 L74.9 49.6 73.45 56.5 54.8 56.5 55.15 55.3 71.85 55.3 73.3 48.4 80.4 48.4 84.75 48.4 84.95 49.6 M94.35 44.5 L96.0 48.8 97.15 51.75 Q98.4 50.65 98.8 48.0 98.9 46.55 98.3 45.6 100.55 47.45 99.6 50.15 97.5 56.3 92.45 52.05 93.1 52.4 93.9 52.55 94.75 52.75 95.55 52.55 L94.35 49.95 92.15 45.1 93.5 44.05 94.0 43.7 94.1 43.95 94.35 44.5 M75.65 3.85 L76.35 3.1 77.45 3.8 Q79.9 5.65 79.15 8.45 77.35 15.3 71.55 11.05 76.1 12.9 77.8 8.05 78.35 6.5 77.9 4.7 L71.4 10.95 71.25 11.05 71.05 10.7 70.3 9.45 71.65 8.05 75.65 3.85 M79.5 17.45 L80.35 23.65 77.85 35.9 76.0 35.9 79.5 17.45 M27.5 35.4 L31.55 35.4 31.3 36.6 27.5 36.6 27.5 35.4 M21.3 39.7 Q18.75 33.6 19.45 26.85 L19.7 24.25 Q21.0 20.3 23.15 16.85 25.9 12.55 30.1 15.4 L30.25 15.7 Q23.2 15.05 21.6 22.65 19.7 31.7 22.75 40.65 21.95 40.3 21.3 39.7 M11.25 51.05 Q25.9 59.25 40.75 51.65 43.9 50.0 45.8 47.05 52.05 37.2 51.05 25.25 L52.65 25.25 Q53.85 37.85 47.35 48.2 45.4 51.25 42.3 52.8 26.25 61.0 11.25 51.05 M46.05 9.2 L44.55 7.5 Q48.55 10.6 51.25 15.7 L33.75 20.9 33.4 19.35 49.65 14.5 Q48.05 11.5 46.05 9.2 M37.35 40.45 L37.55 40.95 39.25 45.3 40.4 48.25 Q41.65 47.15 42.05 44.5 42.15 43.0 41.5 42.05 43.55 43.4 43.05 45.65 41.5 52.75 35.8 48.6 L37.15 49.05 Q38.0 49.25 38.8 49.05 L37.55 46.4 35.4 41.55 36.75 40.55 37.25 40.2 37.35 40.45 M60.4 45.25 L61.75 44.2 62.25 43.85 62.35 44.1 62.6 44.65 64.25 48.95 65.4 51.9 Q66.65 50.8 67.05 48.15 67.15 46.7 66.55 45.75 68.8 47.35 68.0 50.0 66.0 56.6 60.7 52.2 L62.15 52.7 Q63.0 52.9 63.8 52.7 L62.6 50.1 60.4 45.25 M12.15 11.8 L12.85 11.05 13.95 11.75 Q17.7 14.65 15.05 18.95 13.15 21.95 9.85 20.25 8.9 19.7 8.05 19.0 11.85 20.7 13.85 17.1 15.05 15.05 14.4 12.65 L7.9 18.9 7.75 19.0 7.55 18.65 6.8 17.4 8.15 16.0 12.15 11.8" fill="#706d6d" fill-rule="evenodd" stroke="none"/>
    <path d="M423.9 24.15 Q426.05 23.9 427.7 22.3 431.15 19.05 429.25 14.55 L429.05 14.25 Q432.4 18.05 429.45 22.35 426.95 26.05 422.3 25.4 L422.3 24.25 423.9 24.15 M444.65 8.05 Q438.95 2.55 431.1 1.75 417.8 0.45 404.25 1.15 L404.25 28.45 404.25 54.15 403.3 54.15 403.3 0.0 421.8 0.0 Q434.55 -1.05 443.9 7.15 L444.65 8.05 M429.25 48.8 L431.75 54.15 431.3 54.15 423.75 37.7 422.1 34.0 422.1 32.8 429.25 48.8 M363.0 54.15 L362.05 54.15 362.05 0.0 395.6 0.0 395.6 1.15 375.35 1.15 363.0 1.15 363.0 54.15 M382.65 20.65 L394.0 20.65 394.0 21.8 381.05 21.8 381.05 20.65 382.65 20.65 M382.65 41.15 L395.6 41.15 395.6 42.3 381.05 42.3 381.05 41.15 382.65 41.15 M331.85 26.6 Q332.5 22.1 333.5 17.9 L337.8 0.0 357.4 0.0 357.0 1.15 338.75 1.15 334.5 19.05 Q332.45 27.7 331.65 36.45 L331.1 31.7 331.85 26.6 M321.4 54.15 L320.8 54.15 305.5 0.0 324.45 0.0 324.7 1.15 306.4 1.15 321.4 54.15 M296.55 7.3 L297.35 8.2 Q295.75 6.55 294.0 5.35 L281.1 1.2 Q270.95 0.6 263.0 6.75 258.4 10.25 256.25 15.7 249.9 31.6 258.95 45.9 250.4 34.5 253.35 20.15 256.2 6.25 269.6 1.7 284.85 -3.35 296.55 7.3 M285.6 24.2 Q286.15 29.7 285.2 35.0 L285.3 35.05 Q284.95 37.35 283.65 39.0 279.85 43.95 275.25 40.2 L276.25 40.8 Q282.2 41.65 283.85 35.25 286.45 25.35 282.85 16.05 284.85 20.0 285.6 24.2 M205.5 20.65 L207.1 20.65 218.45 20.65 218.45 21.8 205.5 21.8 205.5 20.65 M207.1 41.15 L220.05 41.15 220.05 42.3 205.5 42.3 205.5 41.15 207.1 41.15 M187.45 54.15 L186.5 54.15 186.5 0.0 220.05 0.0 220.05 1.15 191.15 1.15 187.45 1.15 187.45 54.15 M172.2 1.15 L150.7 1.15 Q147.15 15.45 144.55 29.95 L144.05 25.4 144.75 21.3 149.75 0.0 172.05 0.0 172.2 1.15 M130.9 25.7 L136.45 54.15 135.7 54.15 131.25 32.0 130.05 25.2 130.25 21.05 130.9 25.7 M158.7 25.6 L159.3 20.75 159.75 28.35 160.6 42.75 161.25 54.15 160.3 54.15 159.1 32.75 158.7 25.6 M109.2 54.15 L108.05 54.15 115.85 0.0 138.3 0.0 138.55 1.15 116.75 1.15 112.05 34.3 109.2 54.15 M53.55 54.15 L52.25 54.15 68.3 0.0 90.35 0.0 90.65 1.15 69.25 1.15 53.55 54.15 M86.6 54.15 L85.85 54.15 84.95 49.6 84.75 48.4 85.5 48.4 86.05 51.3 86.6 54.15 M82.9 34.45 L83.35 37.0 80.2 37.05 75.75 37.05 76.0 35.9 77.85 35.9 82.4 35.9 80.35 23.65 79.5 17.45 80.0 14.3 82.9 34.45 M50.1 24.05 L25.9 24.05 25.9 34.25 24.95 34.25 24.95 22.9 50.1 22.9 50.1 24.05 M31.55 35.4 L32.55 35.4 Q32.1 42.4 25.5 42.3 22.8 41.95 21.3 39.7 21.95 40.3 22.75 40.65 26.1 41.95 28.95 39.95 30.75 38.75 31.3 36.6 L31.55 35.4 M44.55 7.5 L46.05 9.2 Q34.4 -2.0 18.55 2.6 5.25 6.25 2.05 19.75 -0.7 31.25 3.65 42.05 -3.3 28.7 3.05 13.75 6.6 5.3 15.2 2.25 31.75 -3.8 44.55 7.5 M30.25 15.7 L31.85 18.35 31.2 18.55 Q30.95 16.9 30.25 15.7" fill="#ffffff" fill-rule="evenodd" stroke="none"/>
    <path d="M172.2 1.15 L173.05 1.15 173.2 2.35 179.5 55.3 162.85 55.3 161.3 55.3 161.25 54.15 160.6 42.75 177.9 41.95 175.65 23.2 159.75 28.35 159.3 20.75 158.7 25.6 151.65 55.3 138.0 55.3 136.65 55.3 136.45 54.15 130.9 25.7 143.15 20.1 144.05 25.4 144.55 29.95 Q147.15 15.45 150.7 1.15 L172.2 1.15 M159.6 10.85 L161.65 12.3 Q164.55 13.35 166.25 10.7 168.8 6.75 165.35 4.35 L164.8 3.8 Q163.35 2.45 161.2 2.7 L161.1 2.45 160.65 2.8 Q159.3 3.0 158.45 4.15 155.7 8.05 159.6 10.85 M173.7 45.6 L173.15 45.05 Q171.65 43.75 169.5 43.95 L169.4 43.7 168.9 44.05 Q166.9 44.45 166.1 46.4 164.6 49.95 167.85 52.05 172.8 56.15 175.1 50.65 176.35 47.55 173.7 45.6 M116.0 51.9 Q117.25 52.95 118.85 53.5 120.55 54.15 121.7 52.8 126.2 47.55 120.85 44.05 116.05 41.45 114.2 47.6 113.5 49.95 115.55 51.55 L115.75 51.95 115.9 51.8 116.0 51.9 M129.95 26.15 L128.2 55.3 110.8 55.3 109.0 55.3 109.2 54.15 112.05 34.3 129.95 26.15 M147.25 44.85 Q145.05 42.55 142.3 43.95 136.6 46.85 140.85 51.75 L141.05 52.1 141.2 52.0 141.35 52.1 Q146.75 56.6 148.9 49.65 149.85 46.6 147.25 44.85" fill="url(#gradient0)" fill-rule="evenodd" stroke="none"/>
    <path d="M53.55 54.15 L69.25 1.15 90.65 1.15 91.35 1.15 91.7 2.35 100.0 34.2 99.75 33.4 82.9 34.45 80.0 14.3 79.5 17.45 76.0 35.9 75.75 37.05 80.2 37.05 80.4 48.4 73.3 48.4 71.85 55.3 55.15 55.3 53.2 55.3 53.55 54.15 M88.2 55.3 L86.8 55.3 86.6 54.15 86.05 51.3 86.85 55.25 90.35 55.3 88.2 55.3 M77.45 3.8 Q75.2 1.55 72.4 2.4 71.45 2.65 70.8 3.35 67.45 7.05 71.05 10.7 L71.25 11.05 71.4 10.95 71.55 11.05 Q77.35 15.3 79.15 8.45 79.9 5.65 77.45 3.8 M61.75 44.2 Q60.1 44.7 59.25 46.2 57.2 50.0 60.7 52.2 66.0 56.6 68.0 50.0 68.8 47.35 66.55 45.75 L66.0 45.2 Q64.55 43.9 62.35 44.1 L62.25 43.85 61.75 44.2" fill="url(#gradient1)" fill-rule="evenodd" stroke="none"/>
    <path d="M50.1 24.05 L51.05 24.05 51.05 25.25 Q52.05 37.2 45.8 47.05 43.9 50.0 40.75 51.65 25.9 59.25 11.25 51.05 9.4 49.8 7.8 48.15 L6.25 46.35 Q4.75 44.4 3.65 42.1 L19.5 25.85 19.7 24.25 19.45 26.85 Q18.75 33.6 21.3 39.7 22.8 41.95 25.5 42.3 32.1 42.4 32.55 35.4 L31.55 35.4 27.5 35.4 25.9 35.4 25.9 34.25 25.9 24.05 50.1 24.05 M41.5 42.05 L41.0 41.55 Q39.45 40.3 37.35 40.45 L37.25 40.2 36.75 40.55 Q34.4 41.25 33.75 43.6 32.9 46.9 35.8 48.6 41.5 52.75 43.05 45.65 43.55 43.4 41.5 42.05" fill="url(#gradient2)" fill-rule="evenodd" stroke="none"/>
    <path d="M422.3 24.25 L422.3 25.4 Q426.95 26.05 429.45 22.35 432.4 18.05 429.05 14.25 427.1 12.5 422.95 12.55 L422.3 12.55 422.3 24.25 M404.25 28.45 L404.25 1.15 Q417.8 0.45 431.1 1.75 438.95 2.55 444.65 8.05 448.7 12.5 448.7 19.2 448.7 29.0 438.35 32.75 L451.75 55.3 433.3 55.3 432.25 55.3 431.75 54.15 429.25 48.8 429.45 49.2 428.3 28.45 404.25 28.45 M414.0 4.4 L413.5 3.8 Q411.95 2.5 409.8 2.75 L409.7 2.55 409.3 2.85 Q407.55 3.3 406.75 4.9 405.0 8.55 408.15 10.85 412.7 14.7 415.35 9.65 417.05 6.35 414.0 4.4 M407.9 55.3 L405.85 55.3 404.25 55.25 407.9 55.3 M440.55 44.4 Q435.45 41.8 434.0 48.15 433.45 50.45 435.3 52.0 L435.5 52.3 435.65 52.2 435.8 52.3 435.9 52.35 437.95 53.7 440.4 53.65 Q446.9 48.8 440.55 44.4" fill="url(#gradient3)" fill-rule="evenodd" stroke="none"/>
    <path d="M396.5 1.15 L396.55 2.35 396.55 4.6 396.5 1.15 M394.9 21.8 L394.95 23.0 394.95 34.8 381.05 34.8 381.05 41.15 381.05 42.3 395.6 42.3 396.55 42.3 396.55 43.5 396.55 55.3 364.6 55.3 363.0 55.3 363.0 54.15 363.0 1.15 375.35 1.15 377.75 28.95 394.9 30.15 394.9 21.8 M372.95 3.95 Q371.65 2.4 369.6 2.35 367.4 2.25 366.0 4.05 363.2 7.65 366.6 10.85 L366.75 11.15 366.85 11.05 367.1 11.2 Q368.6 12.95 370.9 13.05 372.9 12.8 374.05 10.9 376.45 6.9 372.95 3.95 M392.9 45.35 Q391.4 43.55 389.2 44.25 382.35 46.4 386.5 52.3 L386.7 52.6 386.85 52.5 387.0 52.6 Q392.9 56.95 394.55 49.75 395.15 47.15 392.9 45.35" fill="url(#gradient4)" fill-rule="evenodd" stroke="none"/>
    <path d="M331.1 31.7 L331.65 36.45 Q332.45 27.7 334.5 19.05 L338.75 1.15 357.0 1.15 358.35 1.15 357.95 2.35 340.1 55.3 322.95 55.3 321.7 55.3 321.4 54.15 306.4 1.15 324.7 1.15 325.35 1.15 325.6 2.35 328.65 16.6 Q330.1 23.5 331.1 31.7 M345.4 2.35 L345.3 2.1 344.85 2.45 Q341.25 3.7 341.6 7.45 341.8 9.55 343.8 10.5 349.1 14.7 351.1 8.5 352.0 5.6 349.55 4.0 L349.05 3.4 Q347.5 2.1 345.4 2.35 M332.75 44.0 L332.65 43.75 332.15 44.1 Q331.6 44.2 331.1 44.5 L326.3 30.45 314.7 30.45 321.7 55.25 334.8 55.25 334.35 53.85 Q337.1 54.0 338.25 51.65 340.1 47.75 336.95 45.65 L336.4 45.15 Q334.8 43.75 332.75 44.0 M319.05 3.95 Q317.55 2.3 315.3 2.85 308.0 4.85 312.65 10.85 L312.85 11.2 313.0 11.1 313.05 11.15 Q315.25 13.7 317.9 12.3 323.95 9.0 319.05 3.95" fill="url(#gradient5)" fill-rule="evenodd" stroke="none"/>
    <path d="M258.95 45.9 Q249.9 31.6 256.25 15.7 258.4 10.25 263.0 6.75 270.95 0.6 281.1 1.2 L280.6 14.3 Q284.8 15.4 285.6 24.2 284.85 20.0 282.85 16.05 L282.7 15.7 282.5 15.4 Q277.2 12.5 274.6 18.9 270.35 29.3 274.8 39.8 L275.25 40.2 Q279.85 43.95 283.65 39.0 284.95 37.35 285.3 35.05 L303.45 36.95 Q301.25 45.8 293.55 50.7 279.1 59.9 264.1 50.75 L258.95 45.9 M293.45 42.25 Q291.65 40.4 289.3 41.35 L288.15 41.9 288.05 41.95 287.8 42.05 Q283.3 44.55 287.05 49.15 L287.25 49.5 287.4 49.4 287.55 49.5 Q292.75 53.9 295.2 47.75 296.55 44.25 293.45 42.25 M265.9 6.8 L265.8 6.55 265.35 6.9 Q264.05 7.15 263.25 8.25 260.3 12.1 264.3 14.95 269.35 19.1 271.6 12.9 272.55 10.2 270.05 8.45 L269.5 7.95 Q267.9 6.65 265.9 6.8" fill="url(#gradient6)" fill-rule="evenodd" stroke="none"/>
    <path d="M221.0 2.35 L221.0 14.15 205.5 14.15 205.5 20.65 205.5 21.8 218.45 21.8 219.4 21.8 219.4 23.0 219.4 34.8 205.5 34.8 205.5 41.15 205.5 42.3 220.05 42.3 221.0 42.3 221.0 43.5 221.0 55.3 203.75 55.3 193.7 12.0 Q196.95 12.85 198.4 9.95 200.3 6.25 197.15 3.95 L196.6 3.4 Q195.05 2.0 192.95 2.3 L192.85 2.05 192.35 2.4 191.5 2.7 191.15 1.15 220.05 1.15 221.0 1.15 221.0 2.35 M213.3 44.35 Q211.4 44.85 210.55 46.75 208.95 50.4 212.15 52.35 216.75 56.15 219.35 51.1 221.0 47.85 218.0 45.9 L217.45 45.35 Q215.9 43.95 213.8 44.25 L213.7 44.05 213.3 44.35" fill="url(#gradient7)" fill-rule="evenodd" stroke="none"/>
    <path d="M409.8 2.75 Q411.95 2.5 413.5 3.8 L414.0 4.4 Q414.6 5.35 414.5 6.8 414.1 9.5 412.85 10.55 L411.7 7.65 412.0 6.85 Q413.0 3.9 410.0 3.3 L409.8 2.75 M408.15 10.85 Q405.0 8.55 406.75 4.9 407.55 3.3 409.3 2.85 L407.85 3.9 407.45 4.4 Q405.75 8.05 410.0 8.75 L411.2 11.35 409.6 11.35 408.15 10.85 M409.95 51.85 Q407.85 50.1 408.6 47.5 410.2 41.7 415.2 44.25 L414.55 44.95 Q413.45 43.8 412.2 44.1 407.7 45.3 410.55 49.15 L409.2 50.55 409.95 51.85 M410.45 52.15 L410.3 52.05 416.8 45.8 Q417.2 47.1 416.9 48.5 415.7 53.95 410.45 52.15 M439.9 45.1 Q438.85 44.1 437.5 44.4 433.1 45.45 435.9 49.3 L434.55 50.7 435.3 52.0 Q433.45 50.45 434.0 48.15 435.45 41.8 440.55 44.4 L439.9 45.1 M438.2 49.75 L439.05 49.25 439.85 48.15 442.15 45.95 Q443.25 50.9 438.85 52.65 437.25 53.3 435.9 52.35 L435.8 52.3 435.65 52.2 438.2 49.75 M366.6 10.85 Q363.2 7.65 366.0 4.05 367.4 2.25 369.6 2.35 371.65 2.4 372.95 3.95 L371.85 3.2 371.2 3.9 Q370.8 3.6 370.35 3.65 364.4 2.65 367.15 8.15 L365.8 9.55 366.6 10.85 M367.1 11.2 L366.85 11.05 369.35 8.65 Q369.9 8.55 370.35 8.15 370.9 7.7 371.25 6.9 L373.45 4.8 Q374.1 7.55 372.65 9.85 370.55 13.05 367.1 11.2 M392.9 45.35 L391.8 44.65 391.1 45.4 Q390.15 44.25 388.9 44.55 384.0 45.7 387.1 49.6 L385.75 51.0 386.5 52.3 Q382.35 46.4 389.2 44.25 391.4 43.55 392.9 45.35 M391.1 48.45 L393.35 46.25 Q393.8 48.3 393.0 50.2 391.25 54.35 387.0 52.6 L386.85 52.5 389.35 50.1 390.25 49.6 391.1 48.45 M345.4 2.35 Q347.5 2.1 349.05 3.4 L349.55 4.0 Q350.15 4.9 350.05 6.4 349.65 9.05 348.45 10.15 L347.25 7.15 347.5 6.4 Q348.5 3.45 345.6 2.9 L345.4 2.35 M343.8 10.5 Q341.8 9.55 341.6 7.45 341.25 3.7 344.85 2.45 L343.4 3.45 Q341.85 4.9 342.85 6.75 343.8 8.55 345.6 8.3 L346.8 10.95 Q346.0 11.15 345.15 10.95 L343.8 10.5 M332.75 44.0 Q334.8 43.75 336.4 45.15 L336.95 45.65 Q337.55 46.6 337.45 48.05 337.05 50.7 335.8 51.8 L334.65 48.85 Q335.55 47.5 335.05 46.0 334.55 44.55 332.95 44.5 L332.75 44.0 M331.1 44.5 Q331.6 44.2 332.15 44.1 L330.8 45.1 330.35 46.0 Q329.1 49.45 332.95 49.95 L334.2 52.6 333.9 52.65 Q332.45 52.8 331.25 52.2 327.4 49.4 330.2 45.4 L331.1 44.5 M312.65 10.85 Q308.0 4.85 315.3 2.85 317.55 2.3 319.05 3.95 L317.95 3.25 317.25 4.0 Q315.9 3.0 314.4 3.6 310.8 5.15 313.25 8.2 L311.9 9.6 312.65 10.85 M313.05 11.15 L313.0 11.1 319.5 4.85 Q320.1 7.5 318.6 9.75 316.55 12.95 313.05 11.15 M293.45 42.25 L292.35 41.55 291.65 42.3 290.45 41.35 288.15 41.9 289.3 41.35 Q291.65 40.4 293.45 42.25 M287.65 46.5 L286.3 47.9 287.05 49.15 Q283.3 44.55 287.8 42.05 285.7 43.3 287.65 46.5 M287.4 49.4 L289.95 46.95 290.8 46.45 291.65 45.3 293.9 43.15 Q295.1 48.65 289.85 49.85 288.6 50.15 287.55 49.5 L287.4 49.4 M265.9 6.8 Q267.9 6.65 269.5 7.95 L270.05 8.45 Q270.65 9.35 270.55 10.85 270.15 13.5 268.95 14.6 L267.8 11.6 268.05 10.9 Q268.95 8.0 266.15 7.4 L265.9 6.8 M264.3 14.95 Q260.3 12.1 263.25 8.25 264.05 7.15 265.35 6.9 L263.95 7.9 Q263.55 8.55 263.4 9.25 262.55 12.6 266.15 12.8 L267.3 15.4 Q266.5 15.6 265.65 15.4 L264.3 14.95 M211.85 45.4 Q210.25 46.8 211.3 48.7 212.15 50.3 214.0 50.25 L215.2 52.85 213.6 52.85 212.15 52.35 Q208.95 50.4 210.55 46.75 211.4 44.85 213.3 44.35 L211.85 45.4 M215.7 49.15 L216.0 48.35 Q217.0 45.4 214.0 44.8 L213.8 44.25 Q215.9 43.95 217.45 45.35 L218.0 45.9 Q218.6 46.85 218.5 48.3 218.1 51.0 216.85 52.05 L215.7 49.15 M192.95 2.3 Q195.05 2.0 196.6 3.4 L197.15 3.95 Q197.75 4.9 197.65 6.35 197.25 9.0 196.0 10.1 L194.85 7.15 Q195.7 5.9 195.2 4.4 194.7 3.0 193.2 2.85 L192.95 2.3 M192.35 2.4 L191.0 3.45 Q189.4 5.05 190.55 6.95 191.45 8.4 193.2 8.3 L194.4 10.9 Q193.6 11.1 192.75 10.9 L191.3 10.4 Q188.65 8.85 189.15 5.7 189.55 3.5 191.5 2.7 L192.35 2.4 M165.35 4.35 Q165.95 5.25 165.85 6.75 165.45 9.4 164.25 10.5 L163.05 7.5 Q163.75 6.2 163.4 4.7 163.05 3.3 161.4 3.25 L161.2 2.7 Q163.35 2.45 164.8 3.8 L165.35 4.35 M160.65 2.8 L159.2 3.8 Q158.05 4.85 158.4 6.2 159.05 8.65 161.4 8.65 L162.6 11.3 Q161.8 11.5 160.95 11.3 L159.6 10.85 Q155.7 8.05 158.45 4.15 159.3 3.0 160.65 2.8 M171.4 48.8 Q172.15 47.55 171.75 46.0 171.4 44.7 169.75 44.5 L169.5 43.95 Q171.65 43.75 173.15 45.05 L173.7 45.6 Q174.3 46.55 174.2 48.0 173.8 50.65 172.55 51.75 L171.4 48.8 M168.9 44.05 L167.55 45.1 167.25 45.8 Q166.15 49.25 169.75 49.95 L170.95 52.55 Q170.15 52.75 169.3 52.55 168.5 52.4 167.85 52.05 164.6 49.95 166.1 46.4 166.9 44.45 168.9 44.05 M126.85 2.6 Q129.0 2.35 130.5 3.7 L131.05 4.25 Q131.65 5.2 131.55 6.65 131.15 9.3 129.9 10.4 L128.75 7.45 128.9 7.15 Q130.25 4.0 127.1 3.15 L126.85 2.6 M125.2 10.7 Q123.05 9.5 123.05 7.05 123.0 3.75 126.25 2.7 L124.9 3.75 Q123.2 5.65 124.7 7.65 125.6 8.8 127.1 8.6 L128.3 11.2 Q127.5 11.4 126.65 11.2 L125.2 10.7 M115.9 51.8 L122.45 45.55 Q122.9 47.55 122.15 49.45 120.35 53.9 116.0 51.9 L115.9 51.8 M120.85 44.05 L120.15 44.75 Q119.15 43.6 117.8 43.95 113.3 45.2 116.15 48.95 L114.8 50.35 115.55 51.55 Q113.5 49.95 114.2 47.6 116.05 41.45 120.85 44.05 M140.85 51.75 Q136.6 46.85 142.3 43.95 145.05 42.55 147.25 44.85 L146.15 44.15 145.45 44.9 Q144.65 43.8 143.25 44.05 138.35 45.15 141.45 49.1 L140.1 50.5 140.85 51.75 M141.35 52.1 L141.2 52.0 147.7 45.75 Q148.3 48.05 147.3 50.1 145.45 53.75 141.35 52.1 M96.0 48.8 Q96.9 47.55 96.4 46.0 95.95 44.7 94.35 44.5 L94.1 43.95 96.55 44.25 Q97.65 44.7 98.3 45.6 98.9 46.55 98.8 48.0 98.4 50.65 97.15 51.75 L96.0 48.8 M93.5 44.05 L92.15 45.1 Q90.8 46.35 91.45 48.0 92.25 50.0 94.35 49.95 L95.55 52.55 Q94.75 52.75 93.9 52.55 93.1 52.4 92.45 52.05 89.15 49.85 91.0 46.05 91.75 44.5 93.5 44.05 M77.45 3.8 L76.35 3.1 75.65 3.85 Q74.45 2.6 72.8 3.2 68.85 4.75 71.65 8.05 L70.3 9.45 71.05 10.7 Q67.45 7.05 70.8 3.35 71.45 2.65 72.4 2.4 75.2 1.55 77.45 3.8 M71.55 11.05 L71.4 10.95 77.9 4.7 Q78.35 6.5 77.8 8.05 76.1 12.9 71.55 11.05 M37.35 40.45 Q39.45 40.3 41.0 41.55 L41.5 42.05 Q42.15 43.0 42.05 44.5 41.65 47.15 40.4 48.25 L39.25 45.3 Q40.2 43.95 39.65 42.45 39.1 41.15 37.55 40.95 L37.35 40.45 M35.8 48.6 Q32.9 46.9 33.75 43.6 34.4 41.25 36.75 40.55 L35.4 41.55 Q33.8 43.05 34.85 44.85 35.85 46.55 37.55 46.4 L38.8 49.05 Q38.0 49.25 37.15 49.05 L35.8 48.6 M60.4 45.25 Q59.75 45.8 59.65 46.9 59.4 50.05 62.6 50.1 L63.8 52.7 Q63.0 52.9 62.15 52.7 L60.7 52.2 Q57.2 50.0 59.25 46.2 60.1 44.7 61.75 44.2 L60.4 45.25 M64.25 48.95 Q65.05 47.55 64.6 46.2 64.1 44.8 62.6 44.65 L62.35 44.1 Q64.55 43.9 66.0 45.2 L66.55 45.75 Q67.15 46.7 67.05 48.15 66.65 50.8 65.4 51.9 L64.25 48.95 M13.95 11.75 L12.85 11.05 12.15 11.8 Q11.4 10.65 10.0 10.95 5.05 12.05 8.15 16.0 L6.8 17.4 7.55 18.65 Q3.15 12.7 10.4 10.75 12.55 10.15 13.95 11.75 M8.05 19.0 L7.9 18.9 14.4 12.65 Q15.05 15.05 13.85 17.1 11.85 20.7 8.05 19.0" fill="#9c9c9c" fill-rule="evenodd" stroke="none"/>
    <path d="M410.0 3.3 Q413.0 3.9 412.0 6.85 L411.7 7.65 410.0 3.3 M407.85 3.9 L410.0 8.75 Q405.75 8.05 407.45 4.4 L407.85 3.9 M410.55 49.15 Q407.7 45.3 412.2 44.1 413.45 43.8 414.55 44.95 L410.55 49.15 M435.9 49.3 Q433.1 45.45 437.5 44.4 438.85 44.1 439.9 45.1 L435.9 49.3 M439.85 48.15 L439.05 49.25 438.2 49.75 439.85 48.15 M367.15 8.15 Q364.4 2.65 370.35 3.65 370.8 3.6 371.2 3.9 L367.15 8.15 M369.35 8.65 L371.25 6.9 Q370.9 7.7 370.35 8.15 369.9 8.55 369.35 8.65 M387.1 49.6 Q384.0 45.7 388.9 44.55 390.15 44.25 391.1 45.4 L387.1 49.6 M391.1 48.45 L390.25 49.6 389.35 50.1 391.1 48.45 M343.4 3.45 L345.6 8.3 Q343.8 8.55 342.85 6.75 341.85 4.9 343.4 3.45 M347.25 7.15 L345.6 2.9 Q348.5 3.45 347.5 6.4 L347.25 7.15 M330.8 45.1 L332.95 49.95 Q329.1 49.45 330.35 46.0 L330.8 45.1 M332.95 44.5 Q334.55 44.55 335.05 46.0 335.55 47.5 334.65 48.85 L332.95 44.5 M313.25 8.2 Q310.8 5.15 314.4 3.6 315.9 3.0 317.25 4.0 L313.25 8.2 M288.15 41.9 L290.45 41.35 291.65 42.3 287.65 46.5 Q285.7 43.3 287.8 42.05 L288.05 41.95 288.15 41.9 M289.95 46.95 L291.65 45.3 290.8 46.45 289.95 46.95 M263.95 7.9 L266.15 12.8 Q262.55 12.6 263.4 9.25 263.55 8.55 263.95 7.9 M266.15 7.4 Q268.95 8.0 268.05 10.9 L267.8 11.6 266.15 7.4 M214.0 50.25 Q212.15 50.3 211.3 48.7 210.25 46.8 211.85 45.4 L214.0 50.25 M214.0 44.8 Q217.0 45.4 216.0 48.35 L215.7 49.15 214.0 44.8 M193.2 2.85 Q194.7 3.0 195.2 4.4 195.7 5.9 194.85 7.15 L193.2 2.85 M191.0 3.45 L193.2 8.3 Q191.45 8.4 190.55 6.95 189.4 5.05 191.0 3.45 M163.05 7.5 L161.4 3.25 Q163.05 3.3 163.4 4.7 163.75 6.2 163.05 7.5 M159.2 3.8 L161.4 8.65 Q159.05 8.65 158.4 6.2 158.05 4.85 159.2 3.8 M169.75 44.5 Q171.4 44.7 171.75 46.0 172.15 47.55 171.4 48.8 L169.75 44.5 M169.75 49.95 Q166.15 49.25 167.25 45.8 L167.55 45.1 169.75 49.95 M127.1 3.15 Q130.25 4.0 128.9 7.15 L128.75 7.45 127.1 3.15 M127.1 8.6 Q125.6 8.8 124.7 7.65 123.2 5.65 124.9 3.75 L127.1 8.6 M120.15 44.75 L116.15 48.95 Q113.3 45.2 117.8 43.95 119.15 43.6 120.15 44.75 M141.45 49.1 Q138.35 45.15 143.25 44.05 144.65 43.8 145.45 44.9 L141.45 49.1 M96.0 48.8 L94.35 44.5 Q95.95 44.7 96.4 46.0 96.9 47.55 96.0 48.8 M92.15 45.1 L94.35 49.95 Q92.25 50.0 91.45 48.0 90.8 46.35 92.15 45.1 M71.65 8.05 Q68.85 4.75 72.8 3.2 74.45 2.6 75.65 3.85 L71.65 8.05 M37.55 40.95 Q39.1 41.15 39.65 42.45 40.2 43.95 39.25 45.3 L37.55 40.95 M62.6 50.1 Q59.4 50.05 59.65 46.9 59.75 45.8 60.4 45.25 L62.6 50.1 M62.6 44.65 Q64.1 44.8 64.6 46.2 65.05 47.55 64.25 48.95 L62.6 44.65 M8.15 16.0 Q5.05 12.05 10.0 10.95 11.4 10.65 12.15 11.8 L8.15 16.0 M37.55 46.4 Q35.85 46.55 34.85 44.85 33.8 43.05 35.4 41.55 L37.55 46.4" fill="#d5d4d4" fill-rule="evenodd" stroke="none"/>
    <path d="M404.25 28.45 L428.3 28.45 429.45 49.2 429.25 48.8 422.1 32.8 422.1 34.0 422.2 55.25 407.9 55.3 404.25 55.25 404.25 54.15 404.25 28.45 M415.2 44.25 Q410.2 41.7 408.6 47.5 407.85 50.1 409.95 51.85 L410.3 52.05 410.45 52.15 Q411.45 53.15 412.6 53.8 414.0 54.35 415.2 53.35 421.35 48.5 415.2 44.25 M395.6 1.15 L396.5 1.15 396.55 4.6 396.5 14.15 381.05 14.15 381.05 20.65 381.05 21.8 394.0 21.8 394.9 21.8 394.9 30.15 377.75 28.95 375.35 1.15 395.6 1.15 M334.35 53.85 L334.8 55.25 321.7 55.25 314.7 30.45 326.3 30.45 331.1 44.5 330.2 45.4 Q327.4 49.4 331.25 52.2 L334.35 53.85 M281.1 1.2 L294.0 5.35 Q295.75 6.55 297.35 8.2 304.7 19.95 303.9 33.85 L303.45 36.95 285.3 35.05 285.2 35.0 Q286.15 29.7 285.6 24.2 284.8 15.4 280.6 14.3 L281.1 1.2 M189.05 55.3 L187.45 55.3 187.45 54.15 187.45 1.15 191.15 1.15 191.5 2.7 Q189.55 3.5 189.15 5.7 188.65 8.85 191.3 10.4 L193.7 12.0 203.75 55.3 189.05 55.3 M143.15 20.1 L130.9 25.7 130.25 21.05 130.05 25.2 129.95 26.15 112.05 34.3 116.75 1.15 138.55 1.15 139.25 1.15 139.5 2.35 143.15 20.1 M159.75 28.35 L175.65 23.2 177.9 41.95 160.6 42.75 159.75 28.35 M131.05 4.25 L130.5 3.7 Q129.0 2.35 126.85 2.6 L126.75 2.35 126.25 2.7 Q123.0 3.75 123.05 7.05 123.05 9.5 125.2 10.7 130.6 15.1 132.6 8.4 133.35 5.85 131.05 4.25 M82.9 34.45 L99.75 33.4 100.0 34.2 105.5 55.25 90.35 55.3 86.85 55.25 86.05 51.3 85.5 48.4 84.75 48.4 80.4 48.4 80.2 37.05 83.35 37.0 82.9 34.45 M94.1 43.95 L94.0 43.7 93.5 44.05 Q91.75 44.5 91.0 46.05 89.15 49.85 92.45 52.05 97.5 56.3 99.6 50.15 100.55 47.45 98.3 45.6 97.65 44.7 96.55 44.25 L94.1 43.95 M19.7 24.25 L19.5 25.85 3.65 42.1 3.65 42.05 Q-0.7 31.25 2.05 19.75 5.25 6.25 18.55 2.6 34.4 -2.0 46.05 9.2 48.05 11.5 49.65 14.5 L33.4 19.35 32.15 19.7 31.85 18.35 30.25 15.7 30.1 15.4 Q25.9 12.55 23.15 16.85 21.0 20.3 19.7 24.25 M13.95 11.75 Q12.55 10.15 10.4 10.75 3.15 12.7 7.55 18.65 L7.75 19.0 7.9 18.9 8.05 19.0 Q8.9 19.7 9.85 20.25 13.15 21.95 15.05 18.95 17.7 14.65 13.95 11.75" fill="#848282" fill-rule="evenodd" stroke="none"/>
    <path d="M423.9 24.15 Q426.05 23.9 427.7 22.3 431.15 19.05 429.25 14.55 M423.9 24.15 L422.3 24.25 M429.05 14.25 L429.25 14.55 M444.65 8.05 L443.9 7.15 Q434.55 -1.05 421.8 0.0 L403.3 0.0 403.3 54.15 404.25 54.15 M423.75 37.7 L422.1 34.0 M423.75 37.7 L431.3 54.15 431.75 54.15 M363.0 54.15 L362.05 54.15 362.05 0.0 395.6 0.0 395.6 1.15 M382.65 20.65 L394.0 20.65 394.0 21.8 M382.65 41.15 L395.6 41.15 395.6 42.3 M381.05 20.65 L382.65 20.65 M382.65 41.15 L381.05 41.15 M357.0 1.15 L357.4 0.0 337.8 0.0 333.5 17.9 Q332.5 22.1 331.85 26.6 L331.1 31.7 M321.4 54.15 L320.8 54.15 305.5 0.0 324.45 0.0 324.7 1.15 M297.35 8.2 L296.55 7.3 Q284.85 -3.35 269.6 1.7 256.2 6.25 253.35 20.15 250.4 34.5 258.95 45.9 M275.25 40.2 L274.8 39.8 M282.5 15.4 L282.7 15.7 282.85 16.05 M276.25 40.8 Q282.2 41.65 283.85 35.25 286.45 25.35 282.85 16.05 M275.25 40.2 L276.25 40.8 M205.5 20.65 L207.1 20.65 218.45 20.65 218.45 21.8 M207.1 41.15 L220.05 41.15 220.05 42.3 M187.45 54.15 L186.5 54.15 186.5 0.0 220.05 0.0 220.05 1.15 M207.1 41.15 L205.5 41.15 M172.2 1.15 L172.05 0.0 149.75 0.0 144.75 21.3 144.05 25.4 M109.2 54.15 L108.05 54.15 115.85 0.0 138.3 0.0 138.55 1.15 M131.25 32.0 L130.05 25.2 M158.7 25.6 L159.1 32.75 160.3 54.15 161.25 54.15 M90.65 1.15 L90.35 0.0 68.3 0.0 52.25 54.15 53.55 54.15 M86.6 54.15 L85.85 54.15 84.95 49.6 M131.25 32.0 L135.7 54.15 136.45 54.15 M84.75 48.4 L84.95 49.6 M79.5 17.45 L80.35 23.65 82.4 35.9 77.85 35.9 76.0 35.9 M25.9 34.25 L24.95 34.25 24.95 22.9 50.1 22.9 50.1 24.05 M44.55 7.5 L46.05 9.2 M44.55 7.5 Q31.75 -3.8 15.2 2.25 6.6 5.3 3.05 13.75 -3.3 28.7 3.65 42.05 M30.1 15.4 L30.25 15.7 Q30.95 16.9 31.2 18.55 L31.85 18.35 M31.55 35.4 L31.3 36.6 Q30.75 38.75 28.95 39.95 26.1 41.95 22.75 40.65 21.95 40.3 21.3 39.7" fill="none" stroke="#ffffff" stroke-linecap="round" stroke-linejoin="round" stroke-width="1.0"/>
  </g>
  <defs>
    <linearGradient gradientTransform="matrix(0.043, 0.0, 0.0, 0.043, 144.25, 28.2)" gradientUnits="userSpaceOnUse" id="gradient0" spreadMethod="pad" x1="-819.2" x2="819.2">
      <stop offset="0.058823529411764705" stop-color="#969595"/>
      <stop offset="1.0" stop-color="#d1d1d2"/>
    </linearGradient>
    <linearGradient gradientTransform="matrix(0.0319, 0.0, 0.0, 0.0319, 79.35, 28.2)" gradientUnits="userSpaceOnUse" id="gradient1" spreadMethod="pad" x1="-819.2" x2="819.2">
      <stop offset="0.058823529411764705" stop-color="#969595"/>
      <stop offset="1.0" stop-color="#d1d1d2"/>
    </linearGradient>
    <linearGradient gradientTransform="matrix(0.0306, 0.0, 0.0, 0.0306, 26.0, 28.2)" gradientUnits="userSpaceOnUse" id="gradient2" spreadMethod="pad" x1="-819.2" x2="819.2">
      <stop offset="0.058823529411764705" stop-color="#969595"/>
      <stop offset="1.0" stop-color="#d1d1d2"/>
    </linearGradient>
    <linearGradient gradientTransform="matrix(0.029, 0.0, 0.0, 0.029, 428.0, 28.2)" gradientUnits="userSpaceOnUse" id="gradient3" spreadMethod="pad" x1="-819.2" x2="819.2">
      <stop offset="0.058823529411764705" stop-color="#969595"/>
      <stop offset="1.0" stop-color="#d1d1d2"/>
    </linearGradient>
    <linearGradient gradientTransform="matrix(0.0205, 0.0, 0.0, 0.0205, 379.75, 28.2)" gradientUnits="userSpaceOnUse" id="gradient4" spreadMethod="pad" x1="-819.2" x2="819.2">
      <stop offset="0.058823529411764705" stop-color="#969595"/>
      <stop offset="1.0" stop-color="#d1d1d2"/>
    </linearGradient>
    <linearGradient gradientTransform="matrix(0.0317, 0.0, 0.0, 0.0317, 332.35, 28.2)" gradientUnits="userSpaceOnUse" id="gradient5" spreadMethod="pad" x1="-819.2" x2="819.2">
      <stop offset="0.058823529411764705" stop-color="#969595"/>
      <stop offset="1.0" stop-color="#d1d1d2"/>
    </linearGradient>
    <linearGradient gradientTransform="matrix(0.031, 0.0, 0.0, 0.031, 279.05, 28.2)" gradientUnits="userSpaceOnUse" id="gradient6" spreadMethod="pad" x1="-819.2" x2="819.2">
      <stop offset="0.058823529411764705" stop-color="#969595"/>
      <stop offset="1.0" stop-color="#d1d1d2"/>
    </linearGradient>
    <linearGradient gradientTransform="matrix(0.0205, 0.0, 0.0, 0.0205, 204.2, 28.2)" gradientUnits="userSpaceOnUse" id="gradient7" spreadMethod="pad" x1="-819.2" x2="819.2">
      <stop offset="0.058823529411764705" stop-color="#969595"/>
      <stop offset="1.0" stop-color="#d1d1d2"/>
    </linearGradient>
  </defs>
</svg>
