<?xml version="1.0" encoding="UTF-8" standalone="no"?>
<svg xmlns:xlink="http://www.w3.org/1999/xlink" height="335.15px" width="295.15px" xmlns="http://www.w3.org/2000/svg">
  <g transform="matrix(1.0, 0.0, 0.0, 1.0, 17.65, 30.05)">
    <path d="M182.7 -16.9 L185.25 -3.45 190.1 21.9 193.05 36.75 199.65 44.1 210.75 56.0 216.55 62.25 211.25 71.35 Q206.5 79.55 204.7 85.4 L219.35 92.85 244.0 105.4 267.25 117.2 277.5 122.4 273.6 290.4 254.35 305.1 15.8 305.1 -5.4 287.05 -17.65 186.4 5.05 130.9 18.2 119.8 43.55 98.5 60.25 84.6 58.65 75.2 56.6 63.6 55.65 57.95 61.0 50.4 71.05 36.1 76.75 27.95 81.45 13.65 89.8 -11.95 94.2 -25.65 96.05 -30.05 182.7 -16.9" fill="#47525f" fill-rule="evenodd" stroke="none"/>
    <path d="M271.45 184.5 L263.85 288.5 250.75 302.15 18.5 302.15 12.5 296.1 271.45 184.5" fill="#9c9c9c" fill-rule="evenodd" stroke="none"/>
    <path d="M209.55 63.95 L199.55 93.4 270.9 126.3 271.45 184.45 12.5 296.0 0.8 284.15 -11.15 181.75 14.8 128.15 51.45 99.6 209.55 63.95" fill="#bab9ba" fill-rule="evenodd" stroke="none"/>
    <path d="M209.7 63.7 L209.65 64.05 51.5 99.65 67.3 87.35 62.45 59.35 82.5 26.4 100.2 -23.15 177.65 -10.8 191.65 44.1 209.7 63.7" fill="#9c9c9c" fill-rule="evenodd" stroke="none"/>
    <path d="M103.55 -1.65 L112.6 -11.2 114.3 -9.8 105.7 -0.05 103.55 -1.65" fill="#57565b" fill-rule="evenodd" stroke="none"/>
    <path d="M115.95 -5.6 L115.95 -5.25 Q115.2 0.5 109.15 1.0 107.25 0.95 105.65 0.0 L105.65 -2.25 110.65 -5.8 114.65 -10.0 115.65 -8.2 115.95 -8.05 115.95 -5.7 115.95 -5.6" fill="#47525f" fill-rule="evenodd" stroke="none"/>
    <path d="M103.55 -1.6 L103.55 -4.05 112.6 -13.45 112.6 -11.15 103.55 -1.6" fill="#47525f" fill-rule="evenodd" stroke="none"/>
    <path d="M102.25 -7.75 L103.6 -4.85 103.6 -1.55 Q102.0 -4.2 102.25 -5.05 L102.25 -7.75" fill="#79818b" fill-rule="evenodd" stroke="none"/>
    <path d="M107.3 -11.25 Q110.5 -13.4 112.2 -13.8 L112.6 -13.5 103.6 -4.1 103.2 -4.65 Q103.05 -7.55 107.3 -11.25" fill="#d0cfd0" fill-rule="evenodd" stroke="none"/>
    <path d="M102.25 -8.0 Q103.05 -13.8 109.05 -14.6 110.8 -14.6 112.25 -13.8 110.6 -13.4 107.3 -11.25 103.1 -7.55 103.2 -4.7 102.3 -6.2 102.25 -8.0" fill="#e9e9eb" fill-rule="evenodd" stroke="none"/>
    <path d="M113.15 -4.55 Q111.4 -2.7 108.65 -2.4 L105.65 -2.2 114.65 -11.65 Q115.4 -8.95 113.15 -4.55" fill="#bab9ba" fill-rule="evenodd" stroke="none"/>
    <path d="M115.95 -7.8 Q115.4 -1.8 109.15 -1.2 107.25 -1.25 105.65 -2.2 L108.6 -2.4 Q111.25 -2.7 113.0 -4.55 115.3 -8.95 114.65 -11.65 115.95 -10.0 115.95 -7.8" fill="#b0aeb3" fill-rule="evenodd" stroke="none"/>
    <path d="M-2.5 190.8 L6.55 181.25 8.25 182.65 -0.35 192.4 -2.5 190.8" fill="#57565b" fill-rule="evenodd" stroke="none"/>
    <path d="M9.9 186.8 L9.9 187.15 Q9.15 192.9 3.1 193.4 1.2 193.35 -0.4 192.4 L-0.4 190.15 4.6 186.6 8.6 182.4 9.6 184.2 9.9 184.35 9.9 186.7 9.9 186.8" fill="#47525f" fill-rule="evenodd" stroke="none"/>
    <path d="M-2.5 190.75 L-2.5 188.3 6.55 178.9 6.55 181.2 -2.5 190.75" fill="#47525f" fill-rule="evenodd" stroke="none"/>
    <path d="M-3.8 184.6 L-2.45 187.5 -2.45 190.8 Q-4.05 188.15 -3.8 187.3 L-3.8 184.6" fill="#79818b" fill-rule="evenodd" stroke="none"/>
    <path d="M1.25 181.2 Q4.45 179.05 6.15 178.65 L6.55 178.95 -2.45 188.35 -2.85 187.8 Q-3.0 184.9 1.25 181.2" fill="#d0cfd0" fill-rule="evenodd" stroke="none"/>
    <path d="M-3.9 184.45 Q-3.1 178.65 2.9 177.85 4.65 177.85 6.1 178.65 4.45 179.05 1.15 181.2 -3.05 184.9 -2.95 187.75 -3.85 186.25 -3.9 184.45" fill="#e9e9eb" fill-rule="evenodd" stroke="none"/>
    <path d="M7.1 187.9 Q5.35 189.75 2.6 190.05 L-0.4 190.25 8.6 180.8 Q9.35 183.5 7.1 187.9" fill="#bab9ba" fill-rule="evenodd" stroke="none"/>
    <path d="M9.9 184.65 Q9.35 190.65 3.1 191.25 1.2 191.2 -0.4 190.25 L2.55 190.05 Q5.2 189.75 6.95 187.9 9.25 183.5 8.6 180.8 9.9 182.45 9.9 184.65" fill="#b0aeb3" fill-rule="evenodd" stroke="none"/>
    <path d="M248.45 140.35 L257.5 130.8 259.2 132.2 250.6 141.95 248.45 140.35" fill="#57565b" fill-rule="evenodd" stroke="none"/>
    <path d="M260.9 136.4 L260.9 136.75 Q260.15 142.5 254.1 143.0 252.2 142.95 250.6 142.0 L250.6 139.75 255.6 136.2 259.6 132.0 260.6 133.8 260.9 133.95 260.9 136.3 260.9 136.4" fill="#47525f" fill-rule="evenodd" stroke="none"/>
    <path d="M248.45 140.35 L248.45 137.9 257.5 128.5 257.5 130.8 248.45 140.35" fill="#47525f" fill-rule="evenodd" stroke="none"/>
    <path d="M247.05 134.2 L248.4 137.1 248.4 140.4 Q246.8 137.75 247.05 136.9 L247.05 134.2" fill="#79818b" fill-rule="evenodd" stroke="none"/>
    <path d="M252.2 130.7 Q255.4 128.55 257.1 128.15 L257.5 128.45 248.5 137.85 248.1 137.3 Q247.95 134.4 252.2 130.7" fill="#d0cfd0" fill-rule="evenodd" stroke="none"/>
    <path d="M247.05 134.0 Q247.85 128.2 253.85 127.4 255.6 127.4 257.05 128.2 255.4 128.6 252.1 130.75 247.9 134.45 248.0 137.3 247.1 135.8 247.05 134.0" fill="#e9e9eb" fill-rule="evenodd" stroke="none"/>
    <path d="M258.1 137.4 Q256.35 139.25 253.6 139.55 L250.6 139.75 259.6 130.3 Q260.35 133.0 258.1 137.4" fill="#bab9ba" fill-rule="evenodd" stroke="none"/>
    <path d="M260.9 134.15 Q260.35 140.15 254.1 140.75 252.2 140.7 250.6 139.75 L253.55 139.55 Q256.2 139.25 257.95 137.4 260.25 133.0 259.6 130.3 260.9 131.95 260.9 134.15" fill="#b0aeb3" fill-rule="evenodd" stroke="none"/>
    <path d="M239.75 292.75 L248.8 283.2 250.5 284.6 241.9 294.35 239.75 292.75" fill="#57565b" fill-rule="evenodd" stroke="none"/>
    <path d="M252.15 288.8 L252.15 289.15 Q251.4 294.9 245.35 295.4 243.45 295.35 241.85 294.4 L241.85 292.15 246.85 288.6 250.85 284.4 251.85 286.2 252.15 286.35 252.15 288.7 252.15 288.8" fill="#47525f" fill-rule="evenodd" stroke="none"/>
    <path d="M239.75 292.8 L239.75 290.35 248.8 280.95 248.8 283.25 239.75 292.8" fill="#47525f" fill-rule="evenodd" stroke="none"/>
    <path d="M238.4 286.6 L239.75 289.5 239.75 292.8 Q238.15 290.15 238.4 289.3 L238.4 286.6" fill="#79818b" fill-rule="evenodd" stroke="none"/>
    <path d="M243.45 283.2 Q246.65 281.05 248.35 280.65 L248.75 280.95 239.75 290.35 239.35 289.8 Q239.2 286.9 243.45 283.2" fill="#d0cfd0" fill-rule="evenodd" stroke="none"/>
    <path d="M238.4 286.45 Q239.2 280.65 245.2 279.85 246.95 279.85 248.4 280.65 246.75 281.05 243.45 283.2 239.25 286.9 239.35 289.75 238.45 288.25 238.4 286.45" fill="#e9e9eb" fill-rule="evenodd" stroke="none"/>
    <path d="M249.35 289.85 Q247.6 291.7 244.85 292.0 L241.85 292.2 250.85 282.75 Q251.6 285.45 249.35 289.85" fill="#bab9ba" fill-rule="evenodd" stroke="none"/>
    <path d="M252.15 286.6 Q251.6 292.6 245.35 293.2 243.45 293.15 241.85 292.2 L244.8 292.0 Q247.45 291.7 249.2 289.85 251.5 285.45 250.85 282.75 252.15 284.4 252.15 286.6" fill="#b0aeb3" fill-rule="evenodd" stroke="none"/>
    <path d="M80.85 83.25 Q80.5 87.25 76.45 87.6 72.35 87.25 71.95 83.25 72.35 79.35 76.45 78.95 80.5 79.35 80.85 83.25" fill="#47525f" fill-rule="evenodd" stroke="none"/>
    <path d="M71.8 81.4 L80.7 80.8 80.85 83.3 71.95 83.75 71.8 81.4" fill="#47525f" fill-rule="evenodd" stroke="none"/>
    <path d="M78.4 77.45 Q76.2 77.7 74.3 79.25 72.7 81.45 72.55 83.7 71.8 82.6 71.8 81.25 72.2 77.35 76.3 76.95 77.4 76.95 78.4 77.45" fill="#e9e9eb" fill-rule="evenodd" stroke="none"/>
    <path d="M77.7 83.65 Q75.45 84.8 73.25 84.4 L72.55 83.65 Q72.65 81.4 74.3 79.25 76.25 77.6 78.4 77.45 L79.8 78.65 Q80.0 81.75 77.7 83.65" fill="#d0cfd0" fill-rule="evenodd" stroke="none"/>
    <path d="M80.75 81.25 Q80.35 85.25 76.25 85.55 74.5 85.55 73.25 84.45 75.45 84.75 77.75 83.45 80.0 81.7 79.85 78.65 80.75 79.8 80.75 81.25" fill="#b0aeb3" fill-rule="evenodd" stroke="none"/>
    <path d="M197.25 58.35 Q196.9 62.35 192.85 62.7 188.75 62.35 188.35 58.35 188.75 54.45 192.85 54.05 196.9 54.45 197.25 58.35" fill="#47525f" fill-rule="evenodd" stroke="none"/>
    <path d="M188.15 56.5 L197.05 55.9 197.2 58.4 188.3 58.85 188.15 56.5" fill="#47525f" fill-rule="evenodd" stroke="none"/>
    <path d="M194.75 52.55 Q192.55 52.8 190.65 54.35 189.05 56.55 188.9 58.8 188.15 57.7 188.15 56.35 188.55 52.45 192.65 52.05 193.75 52.05 194.75 52.55" fill="#e9e9eb" fill-rule="evenodd" stroke="none"/>
    <path d="M194.1 58.8 Q191.85 59.95 189.65 59.55 L188.95 58.8 Q189.05 56.55 190.7 54.4 192.65 52.75 194.8 52.6 195.6 53.05 196.2 53.8 196.4 56.9 194.1 58.8" fill="#d0cfd0" fill-rule="evenodd" stroke="none"/>
    <path d="M197.15 56.35 Q196.75 60.35 192.65 60.65 190.9 60.65 189.65 59.55 191.85 59.85 194.15 58.55 196.4 56.8 196.25 53.75 197.15 54.9 197.15 56.35" fill="#b0aeb3" fill-rule="evenodd" stroke="none"/>
    <path d="M37.55 296.7 Q37.2 300.7 33.15 301.05 29.05 300.7 28.65 296.7 29.05 292.8 33.15 292.4 37.2 292.8 37.55 296.7" fill="#47525f" fill-rule="evenodd" stroke="none"/>
    <path d="M28.55 294.8 L37.45 294.2 37.6 296.7 28.7 297.15 28.55 294.8" fill="#47525f" fill-rule="evenodd" stroke="none"/>
    <path d="M35.15 290.8 Q32.95 291.05 31.05 292.6 29.45 294.8 29.3 297.05 28.55 295.95 28.55 294.6 28.95 290.7 33.05 290.3 34.15 290.3 35.15 290.8" fill="#e9e9eb" fill-rule="evenodd" stroke="none"/>
    <path d="M34.45 297.05 Q32.2 298.2 30.0 297.8 L29.3 297.05 Q29.4 294.8 31.05 292.65 33.0 291.0 35.15 290.85 L36.55 292.05 Q36.75 295.15 34.45 297.05" fill="#d0cfd0" fill-rule="evenodd" stroke="none"/>
    <path d="M37.45 294.65 Q37.05 298.65 32.95 298.95 31.2 298.95 29.95 297.85 32.15 298.15 34.45 296.85 36.7 295.1 36.55 292.05 37.45 293.2 37.45 294.65" fill="#b0aeb3" fill-rule="evenodd" stroke="none"/>
    <path d="M72.9 282.8 Q72.55 286.8 68.5 287.15 64.4 286.8 64.0 282.8 64.4 278.9 68.5 278.5 72.55 278.9 72.9 282.8" fill="#47525f" fill-rule="evenodd" stroke="none"/>
    <path d="M63.85 280.9 L72.75 280.3 72.9 282.8 64.0 283.25 63.85 280.9" fill="#47525f" fill-rule="evenodd" stroke="none"/>
    <path d="M70.45 276.95 Q68.25 277.2 66.35 278.75 64.75 280.95 64.6 283.2 63.85 282.1 63.85 280.75 64.25 276.85 68.35 276.45 69.45 276.45 70.45 276.95" fill="#e9e9eb" fill-rule="evenodd" stroke="none"/>
    <path d="M69.75 283.15 Q67.5 284.3 65.3 283.9 L64.6 283.15 Q64.7 280.9 66.35 278.75 68.3 277.1 70.45 276.95 L71.85 278.15 Q72.05 281.25 69.75 283.15" fill="#d0cfd0" fill-rule="evenodd" stroke="none"/>
    <path d="M72.8 280.75 Q72.4 284.75 68.3 285.05 66.55 285.05 65.3 283.95 67.5 284.25 69.8 282.95 72.05 281.2 71.9 278.15 72.8 279.3 72.8 280.75" fill="#b0aeb3" fill-rule="evenodd" stroke="none"/>
    <path d="M264.1 201.65 Q263.75 205.65 259.7 206.0 255.6 205.65 255.2 201.65 255.6 197.75 259.7 197.35 263.75 197.75 264.1 201.65" fill="#47525f" fill-rule="evenodd" stroke="none"/>
    <path d="M255.1 199.75 L264.0 199.15 264.15 201.65 255.25 202.1 255.1 199.75" fill="#47525f" fill-rule="evenodd" stroke="none"/>
    <path d="M261.7 195.85 Q259.5 196.1 257.6 197.65 256.0 199.85 255.85 202.1 255.1 201.0 255.1 199.65 255.5 195.75 259.6 195.35 260.7 195.35 261.7 195.85" fill="#e9e9eb" fill-rule="evenodd" stroke="none"/>
    <path d="M261.0 202.0 Q258.75 203.15 256.55 202.75 L255.85 202.0 Q255.95 199.75 257.6 197.6 259.55 195.95 261.7 195.8 L263.1 197.0 Q263.3 200.1 261.0 202.0" fill="#d0cfd0" fill-rule="evenodd" stroke="none"/>
    <path d="M264.05 199.65 Q263.65 203.65 259.55 203.95 257.8 203.95 256.55 202.85 258.75 203.15 261.05 201.85 263.3 200.1 263.15 197.05 264.05 198.2 264.05 199.65" fill="#b0aeb3" fill-rule="evenodd" stroke="none"/>
  </g>
</svg>
