<?xml version="1.0" encoding="UTF-8" standalone="no"?>
<svg xmlns:xlink="http://www.w3.org/1999/xlink" height="97.55px" width="51.7px" xmlns="http://www.w3.org/2000/svg">
  <g transform="matrix(1.0, 0.0, 0.0, 1.0, 0.0, 0.0)">
    <path d="M47.55 13.6 L47.5 13.6 45.2 15.4 43.6 16.65 39.95 19.6 37.0 21.45 27.4 5.55 27.6 5.4 27.85 5.2 35.15 3.15 41.8 1.15 Q46.7 0.0 48.75 1.5 L49.2 1.85 51.1 5.3 Q51.0 7.9 50.2 10.25 L49.25 12.1 Q48.65 13.05 47.55 13.6 M34.65 22.65 Q32.2 23.75 29.45 24.55 28.25 23.6 26.7 21.25 L25.4 19.2 24.9 18.35 23.65 16.15 21.6 12.15 21.05 11.05 21.0 10.95 19.7 7.9 Q19.45 7.05 19.9 6.5 20.3 5.95 21.0 6.05 L23.75 5.95 24.15 5.9 23.15 6.05 24.55 8.95 25.2 10.2 25.75 11.3 28.45 16.1 29.0 16.95 29.3 17.45 33.25 23.2 34.65 22.65" fill="#ffbd20" fill-rule="evenodd" stroke="none"/>
    <path d="M47.55 13.6 L46.0 15.35 43.9 17.4 40.95 19.75 Q36.1 23.3 29.1 25.55 27.85 24.6 26.3 22.15 L24.75 19.6 23.2 20.5 17.9 23.75 13.1 26.75 10.3 28.5 11.15 30.15 13.3 34.15 15.9 39.05 17.8 42.55 Q19.15 41.95 20.5 41.9 22.55 41.85 24.25 43.9 L24.55 44.3 27.1 44.1 29.3 44.25 Q35.2 38.35 38.8 36.75 42.4 35.15 44.7 37.2 L47.6 39.45 50.65 41.7 Q52.0 42.85 51.65 44.7 51.35 46.5 49.7 48.05 48.1 49.6 45.65 49.9 L42.2 49.6 40.15 48.75 39.45 48.25 38.5 50.05 35.9 54.3 Q34.15 56.75 31.75 59.1 29.35 61.4 26.4 62.65 27.25 64.85 26.9 66.85 26.55 68.9 25.4 70.9 L22.9 75.0 21.4 77.7 20.75 79.0 Q23.65 80.05 24.8 82.1 25.95 84.2 25.3 86.75 L24.65 88.4 25.0 90.7 Q25.15 92.65 24.55 94.35 23.95 96.1 22.3 97.15 L19.6 97.2 Q18.25 96.5 17.5 94.45 L16.4 91.95 14.9 89.15 14.4 88.2 12.15 87.8 Q10.85 87.5 9.95 85.9 9.1 84.3 9.3 81.95 9.5 79.6 11.5 77.1 10.3 74.3 9.45 71.45 8.55 68.55 8.6 65.45 8.65 62.9 9.7 60.05 8.0 58.3 7.95 56.1 7.9 53.8 9.05 51.45 L10.2 49.55 7.85 45.2 4.8 39.3 2.0 33.8 0.45 30.35 Q-0.5 27.95 0.6 25.5 1.7 23.0 5.6 20.35 L9.75 17.7 15.1 14.45 20.4 11.3 19.1 8.5 Q18.85 7.85 18.85 7.0 18.85 6.1 19.3 5.55 19.7 4.95 20.75 5.25 L22.6 5.25 24.8 5.0 27.9 4.35 34.9 2.45 41.2 0.55 48.75 0.8 50.0 1.85 Q51.15 3.2 51.1 5.3 L49.2 1.85 48.75 1.5 Q46.7 0.0 41.8 1.15 L35.15 3.15 27.85 5.2 26.35 5.55 25.1 5.75 24.95 5.8 24.15 5.9 23.75 5.95 21.0 6.05 Q20.3 5.95 19.9 6.5 19.45 7.05 19.7 7.9 L21.0 10.95 21.05 11.05 21.6 12.15 23.65 16.15 24.9 18.35 25.4 19.2 26.7 21.25 Q28.25 23.6 29.45 24.55 32.2 23.75 34.65 22.65 L35.2 22.4 37.0 21.45 39.95 19.6 43.6 16.65 45.2 15.4 47.5 13.6 47.55 13.6 M11.95 86.35 Q12.5 86.8 13.2 86.95 L16.65 87.6 Q18.25 87.85 19.85 88.45 21.9 89.3 23.05 88.95 24.25 88.65 24.85 86.5 25.25 85.0 24.95 83.55 24.65 82.1 23.5 81.05 22.35 80.05 20.3 79.9 18.85 82.3 16.5 83.45 18.15 82.1 19.3 80.3 L21.35 76.75 22.75 74.05 24.8 70.25 Q25.75 68.3 25.95 66.2 26.15 64.15 25.15 61.9 24.7 60.85 24.95 60.85 25.15 60.85 25.6 61.15 L26.25 61.4 Q28.75 60.8 30.95 58.85 33.15 56.85 34.9 54.25 L37.9 49.2 39.85 45.05 40.55 43.35 40.35 44.6 39.7 47.35 42.4 48.5 46.45 49.0 Q48.35 48.85 49.6 47.55 50.85 46.25 51.1 44.7 L51.15 44.35 Q51.25 43.0 50.3 42.15 L47.6 40.15 44.9 38.3 Q44.1 37.6 42.85 37.2 L39.75 37.3 Q37.95 37.8 35.4 39.75 32.85 41.7 29.45 45.7 L28.0 45.25 25.2 45.35 Q26.0 46.85 26.25 48.55 L26.3 50.5 25.65 53.75 Q24.75 56.35 22.75 58.7 L21.65 59.75 Q20.2 61.0 18.45 61.6 16.05 62.4 13.75 62.1 11.9 61.8 10.55 60.8 9.55 63.45 9.55 65.8 9.55 68.8 10.45 71.5 11.3 74.25 12.5 77.05 L10.55 81.0 10.4 81.6 Q10.1 83.55 10.7 84.85 11.2 85.85 11.95 86.35 M23.2 16.85 L20.95 12.45 Q20.4 12.7 19.85 13.05 L17.75 14.2 11.5 17.7 6.35 20.9 Q2.5 23.5 1.4 25.65 0.35 27.75 1.3 30.1 L1.6 30.85 2.85 33.5 5.6 38.8 8.6 44.5 11.05 49.1 12.05 50.95 Q12.65 51.8 13.95 51.95 15.25 52.1 16.6 51.5 17.9 50.9 18.6 49.5 19.35 48.15 18.8 45.95 L17.35 43.35 14.95 38.9 12.3 33.95 10.15 29.95 9.25 28.3 12.15 26.45 17.15 23.25 22.7 19.7 23.9 18.95 24.25 18.75 23.2 16.85 M25.15 47.15 L23.7 44.75 23.6 44.65 23.5 44.55 Q22.1 43.15 20.45 43.15 L20.3 43.15 20.25 43.15 18.4 43.65 19.7 46.05 Q20.15 48.5 19.2 50.05 18.25 51.6 16.65 52.3 15.0 52.95 13.5 52.85 12.0 52.75 11.35 51.85 L10.65 50.5 9.9 51.75 Q8.8 53.8 8.85 55.8 8.9 57.8 10.45 59.5 L10.95 60.0 11.0 60.05 Q12.55 61.45 14.3 61.65 16.4 61.85 18.4 60.85 20.4 59.85 22.1 57.95 24.0 55.85 24.9 53.5 25.8 51.15 25.55 48.85 L25.15 47.15 M15.85 89.25 L17.1 91.65 18.05 93.75 Q18.7 95.45 19.8 96.05 L21.85 96.15 Q23.5 95.05 23.7 93.05 23.85 91.3 23.5 89.6 L23.35 89.65 Q22.0 90.3 19.4 89.15 17.8 88.5 15.9 88.35 L15.35 88.3 15.85 89.25" fill="#000000" fill-rule="evenodd" stroke="none"/>
    <path d="M11.95 86.35 Q11.2 85.85 10.7 84.85 10.1 83.55 10.4 81.6 L10.55 81.0 12.5 77.05 Q11.3 74.25 10.45 71.5 9.55 68.8 9.55 65.8 9.55 63.45 10.55 60.8 11.9 61.8 13.75 62.1 16.05 62.4 18.45 61.6 20.2 61.0 21.65 59.75 20.0 61.7 17.8 63.1 14.8 64.95 13.7 67.1 12.6 69.2 12.7 71.4 12.8 73.6 13.45 75.7 L14.7 79.6 Q13.05 81.3 12.3 83.2 11.6 85.05 12.45 86.65 L11.95 86.35 M26.3 50.5 L26.25 48.55 Q26.0 46.85 25.2 45.35 L28.0 45.25 29.45 45.7 Q32.85 41.7 35.4 39.75 37.95 37.8 39.75 37.3 L42.85 37.2 Q44.1 37.6 44.9 38.3 L47.6 40.15 50.3 42.15 Q51.25 43.0 51.15 44.35 50.6 43.0 49.35 42.25 48.1 41.55 46.45 40.95 44.8 40.35 43.05 39.45 41.25 38.5 39.2 39.65 37.15 40.75 35.0 42.95 L30.6 47.55 Q29.65 47.6 28.55 48.25 27.45 48.9 26.65 50.0 L26.3 50.5 M10.95 60.0 L10.45 59.5 Q8.9 57.8 8.85 55.8 8.8 53.8 9.9 51.75 L10.65 50.5 11.35 51.85 Q12.0 52.75 13.5 52.85 15.0 52.95 16.65 52.3 18.25 51.6 19.2 50.05 20.15 48.5 19.7 46.05 L18.4 43.65 20.25 43.15 20.3 43.15 20.45 43.15 Q22.1 43.15 23.5 44.55 L23.6 44.65 23.7 44.75 25.15 47.15 Q25.25 47.5 24.8 47.25 24.35 46.95 23.6 46.7 22.9 46.5 22.1 47.0 21.35 47.5 20.75 49.4 20.35 50.7 19.15 52.3 18.0 53.9 16.5 54.8 15.5 55.3 14.45 55.25 L12.45 55.45 Q11.5 55.65 10.9 56.9 10.4 58.15 10.55 58.95 10.7 59.65 10.95 60.0" fill="#c2d6d4" fill-rule="evenodd" stroke="none"/>
    <path d="M51.15 44.35 L51.1 44.7 Q50.85 46.25 49.6 47.55 48.35 48.85 46.45 49.0 L42.4 48.5 39.7 47.35 40.35 44.6 40.55 43.35 39.85 45.05 37.9 49.2 34.9 54.25 Q33.15 56.85 30.95 58.85 28.75 60.8 26.25 61.4 L25.6 61.15 Q25.15 60.85 24.95 60.85 24.7 60.85 25.15 61.9 26.15 64.15 25.95 66.2 25.75 68.3 24.8 70.25 L22.75 74.05 21.35 76.75 19.3 80.3 Q18.15 82.1 16.5 83.45 18.85 82.3 20.3 79.9 22.35 80.05 23.5 81.05 24.65 82.1 24.95 83.55 25.25 85.0 24.85 86.5 24.25 88.65 23.05 88.95 21.9 89.3 19.85 88.45 18.25 87.85 16.65 87.6 L13.2 86.95 Q12.5 86.8 11.95 86.35 L12.45 86.65 Q11.6 85.05 12.3 83.2 13.05 81.3 14.7 79.6 L13.45 75.7 Q12.8 73.6 12.7 71.4 12.6 69.2 13.7 67.1 14.8 64.95 17.8 63.1 20.0 61.7 21.65 59.75 L22.75 58.7 Q24.75 56.35 25.65 53.75 L26.3 50.5 26.65 50.0 Q27.45 48.9 28.55 48.25 29.65 47.6 30.6 47.55 L35.0 42.95 Q37.15 40.75 39.2 39.65 41.25 38.5 43.05 39.45 44.8 40.35 46.45 40.95 48.1 41.55 49.35 42.25 50.6 43.0 51.15 44.35 M10.95 60.0 Q10.7 59.65 10.55 58.95 10.4 58.15 10.9 56.9 11.5 55.65 12.45 55.45 L14.45 55.25 Q15.5 55.3 16.5 54.8 18.0 53.9 19.15 52.3 20.35 50.7 20.75 49.4 21.35 47.5 22.1 47.0 22.9 46.5 23.6 46.7 24.35 46.95 24.8 47.25 25.25 47.5 25.15 47.15 L25.55 48.85 Q25.8 51.15 24.9 53.5 24.0 55.85 22.1 57.95 20.4 59.85 18.4 60.85 16.4 61.85 14.3 61.65 12.55 61.45 11.0 60.05 L10.95 60.0 M15.85 89.25 L15.35 88.3 15.9 88.35 Q17.8 88.5 19.4 89.15 22.0 90.3 23.35 89.65 L23.5 89.6 Q23.85 91.3 23.7 93.05 23.5 95.05 21.85 96.15 L19.8 96.05 Q18.7 95.45 18.05 93.75 L17.1 91.65 15.85 89.25" fill="#ffffff" fill-rule="evenodd" stroke="none"/>
    <path d="M37.0 21.45 L35.2 22.4 34.65 22.65 33.25 23.2 29.3 17.45 29.0 16.95 28.45 16.1 25.75 11.3 25.2 10.2 24.55 8.95 23.15 6.05 24.15 5.9 24.95 5.8 25.1 5.75 26.35 5.55 27.85 5.2 27.6 5.4 27.4 5.55 37.0 21.45" fill="#e31e00" fill-rule="evenodd" stroke="none"/>
    <path d="M23.2 16.85 L24.25 18.75 23.9 18.95 22.7 19.7 17.15 23.25 12.15 26.45 9.25 28.3 10.15 29.95 12.3 33.95 14.95 38.9 17.35 43.35 18.8 45.95 Q19.35 48.15 18.6 49.5 17.9 50.9 16.6 51.5 15.25 52.1 13.95 51.95 12.65 51.8 12.05 50.95 L11.05 49.1 8.6 44.5 5.6 38.8 2.85 33.5 1.6 30.85 1.3 30.1 Q0.35 27.75 1.4 25.65 2.5 23.5 6.35 20.9 L11.5 17.7 17.75 14.2 19.85 13.05 Q20.4 12.7 20.95 12.45 L23.2 16.85" fill="#488fc1" fill-rule="evenodd" stroke="none"/>
  </g>
</svg>
