<?xml version="1.0" encoding="UTF-8" standalone="no"?>
<svg xmlns:xlink="http://www.w3.org/1999/xlink" height="166.25px" width="77.05px" xmlns="http://www.w3.org/2000/svg">
  <g transform="matrix(1.0, 0.0, 0.0, 1.0, 5.45, 0.0)">
    <path d="M59.55 39.75 Q58.9 37.7 58.4 35.15 57.4 30.25 57.65 23.1 L57.8 15.7 Q57.8 12.05 57.1 9.0 56.4 5.95 54.5 3.85 52.65 1.75 49.15 1.1 L41.9 1.3 Q37.8 2.05 33.5 4.35 32.2 5.05 29.45 7.0 26.7 9.0 23.1 12.4 19.45 15.75 15.65 20.6 11.8 25.45 8.3 31.9 6.5 35.25 4.95 39.1 3.6 42.45 2.45 46.2 L2.4 46.35 Q1.9 48.15 2.35 48.85 2.8 49.6 3.7 49.85 L9.5 50.95 18.6 51.65 29.7 51.9 41.6 51.6 52.9 50.75 62.4 49.25 Q63.3 49.05 62.65 47.6 L62.3 46.75 62.35 46.7 61.05 43.85 59.55 39.75 M2.4 50.4 Q1.65 50.1 1.25 49.45 0.8 48.7 1.3 46.85 3.7 38.2 7.25 31.5 10.75 24.8 14.75 19.8 18.75 14.85 22.55 11.45 26.35 8.05 29.2 6.1 L33.45 3.45 Q37.65 1.15 41.85 0.4 46.05 -0.35 50.15 0.35 53.75 1.0 55.55 3.1 57.4 5.2 58.0 8.3 58.6 11.45 58.55 15.15 L58.25 22.8 Q58.05 30.15 59.25 35.25 60.5 40.3 62.1 43.45 L64.55 48.05 Q65.45 49.55 64.5 49.75 L64.1 49.85 63.1 50.1 54.65 51.35 42.7 52.25 30.15 52.55 18.3 52.3 8.7 51.6 3.75 50.8 2.65 50.5 2.4 50.4" fill="#411c14" fill-rule="evenodd" stroke="none"/>
    <path d="M4.95 39.1 Q6.5 35.25 8.3 31.9 11.8 25.45 15.65 20.6 19.45 15.75 23.1 12.4 26.7 9.0 29.45 7.0 32.2 5.05 33.5 4.35 37.8 2.05 41.9 1.3 L49.15 1.1 Q52.65 1.75 54.5 3.85 56.4 5.95 57.1 9.0 57.8 12.05 57.8 15.7 L57.65 23.1 Q57.4 30.25 58.4 35.15 58.9 37.7 59.55 39.75 L51.7 40.7 41.05 41.55 28.85 41.9 16.35 41.2 Q10.25 40.6 4.95 39.1 M62.3 46.75 L62.65 47.6 Q63.3 49.05 62.4 49.25 L52.9 50.75 41.6 51.6 29.7 51.9 18.6 51.65 9.5 50.95 3.7 49.85 Q2.8 49.6 2.35 48.85 1.9 48.15 2.4 46.35 L2.45 46.2 Q7.3 47.35 13.55 48.0 L26.7 48.8 Q33.6 48.95 40.25 48.75 L52.65 48.0 62.3 46.75" fill="#ffbd20" fill-rule="evenodd" stroke="none"/>
    <path d="M4.95 39.1 Q10.25 40.6 16.35 41.2 L28.85 41.9 41.05 41.55 51.7 40.7 59.55 39.75 61.05 43.85 62.35 46.7 62.3 46.75 52.65 48.0 40.25 48.75 Q33.6 48.95 26.7 48.8 L13.55 48.0 Q7.3 47.35 2.45 46.2 3.6 42.45 4.95 39.1" fill="#e31e00" fill-rule="evenodd" stroke="none"/>
    <path d="M2.4 50.4 L2.65 50.5 3.75 50.8 3.65 51.25 2.9 55.8 2.35 59.85 -0.65 80.95 -3.8 121.1 Q-2.35 122.95 -0.4 124.25 0.9 125.0 2.4 125.3 10.55 126.85 18.65 124.95 L18.8 124.7 18.7 124.65 20.6 124.1 20.65 124.1 26.85 121.4 26.3 98.05 24.3 97.75 22.25 97.2 Q21.35 97.0 20.5 96.35 L32.9 96.6 28.2 97.65 28.95 121.9 Q31.9 124.2 35.7 123.95 L47.85 124.35 53.65 124.6 58.0 124.4 62.25 123.55 65.5 122.6 Q67.8 121.9 69.95 120.3 L69.65 115.55 68.65 106.05 67.25 95.75 65.6 85.35 63.8 74.8 Q63.15 71.05 62.65 67.3 62.55 66.45 62.7 65.6 L62.85 65.65 62.8 65.45 Q62.8 64.4 63.15 63.7 63.5 62.95 64.0 62.95 L64.35 62.55 63.35 62.9 63.95 59.85 Q64.4 57.0 64.15 54.1 63.95 51.85 63.1 50.1 L64.1 49.85 Q65.25 51.8 65.45 54.25 65.7 57.1 65.25 59.85 L63.45 67.15 Q65.75 73.6 66.7 80.3 L67.5 86.6 Q68.25 93.25 69.4 99.6 70.65 106.7 71.2 113.9 L71.6 121.0 Q68.75 123.3 65.35 124.5 L61.05 125.5 66.85 166.25 65.15 166.25 59.3 125.4 48.95 125.85 50.2 132.9 52.8 147.25 54.45 157.65 54.55 158.4 55.55 166.25 53.9 166.25 52.95 158.45 47.25 125.75 36.2 125.15 Q31.85 125.7 28.2 123.3 L27.65 122.8 Q26.1 123.85 24.15 124.55 L20.45 125.65 17.55 148.05 Q16.85 153.0 16.3 159.15 L15.75 166.25 14.15 166.25 18.7 126.45 Q14.0 127.75 9.05 127.65 L8.75 127.65 4.6 166.25 2.9 166.25 3.4 160.95 7.0 127.4 Q4.1 127.35 1.5 126.35 L-1.65 125.15 Q-4.2 123.8 -5.45 121.5 L-5.1 117.55 -4.85 113.45 -3.05 90.3 Q-1.9 74.95 0.85 59.85 L1.45 55.65 2.25 51.1 2.4 50.4" fill="#341239" fill-rule="evenodd" stroke="none"/>
    <path d="M62.7 65.6 L62.8 65.45 62.85 65.65 62.7 65.6 M64.0 62.95 L63.35 62.9 64.35 62.55 64.0 62.95" fill="#000823" fill-rule="evenodd" stroke="none"/>
    <path d="M3.75 50.8 L8.7 51.6 18.3 52.3 30.15 52.55 42.7 52.25 54.65 51.35 63.1 50.1 Q63.95 51.85 64.15 54.1 64.4 57.0 63.95 59.85 L63.35 62.9 64.0 62.95 Q63.5 62.95 63.15 63.7 62.8 64.4 62.8 65.45 L62.7 65.6 Q62.55 66.45 62.65 67.3 63.15 71.05 63.8 74.8 L65.6 85.35 67.25 95.75 68.65 106.05 69.65 115.55 69.95 120.3 Q67.8 121.9 65.5 122.6 L62.25 123.55 58.0 124.4 53.65 124.6 47.85 124.35 35.7 123.95 Q31.9 124.2 28.95 121.9 L28.2 97.65 32.9 96.6 20.5 96.35 Q21.35 97.0 22.25 97.2 L24.3 97.75 26.3 98.05 26.85 121.4 20.65 124.1 20.6 124.05 20.6 124.1 18.7 124.65 18.8 124.7 18.65 124.95 Q10.55 126.85 2.4 125.3 0.9 125.0 -0.4 124.25 -2.35 122.95 -3.8 121.1 L-0.65 80.95 2.35 59.85 2.9 55.8 3.65 51.25 3.75 50.8" fill="#592d85" fill-rule="evenodd" stroke="none"/>
    <path d="M65.15 166.25 L55.55 166.25 54.55 158.4 54.45 157.65 52.8 147.25 50.2 132.9 48.95 125.85 59.3 125.4 65.15 166.25 M14.15 166.25 L4.6 166.25 8.75 127.65 9.05 127.65 Q14.0 127.75 18.7 126.45 L14.15 166.25" fill="#488fc1" fill-rule="evenodd" stroke="none"/>
  </g>
</svg>
