<?xml version="1.0" encoding="UTF-8" standalone="no"?>
<svg xmlns:xlink="http://www.w3.org/1999/xlink" height="91.85px" width="98.0px" xmlns="http://www.w3.org/2000/svg">
  <g transform="matrix(1.0, 0.0, 0.0, 1.0, 0.0, 0.0)">
    <path d="M90.95 28.3 Q92.7 30.3 92.45 34.8 L91.65 44.7 Q91.25 49.95 91.35 55.75 91.5 61.55 92.85 67.9 93.95 72.65 95.3 76.75 L97.5 84.1 Q98.35 87.3 97.8 89.25 97.25 91.25 94.55 91.7 92.15 92.15 89.25 91.1 86.3 90.0 83.8 86.75 81.3 83.45 80.1 77.3 79.65 74.55 79.95 71.45 L80.05 70.4 80.15 69.6 81.45 62.45 82.55 56.85 82.8 55.65 83.2 53.1 84.95 43.15 85.9 37.9 85.05 44.1 83.6 53.6 83.25 56.15 Q82.45 62.35 82.4 67.2 L82.4 68.45 Q82.5 73.5 83.5 77.35 84.6 81.65 86.85 84.85 88.7 87.4 90.85 88.4 93.0 89.4 94.9 89.25 96.85 89.1 97.95 88.15 98.05 86.2 97.3 83.5 L95.5 77.45 93.4 70.35 Q94.3 74.2 93.65 75.6 93.0 76.95 91.6 76.65 90.2 76.3 88.9 74.95 87.55 73.6 87.1 71.9 86.75 70.35 86.6 66.55 L86.65 57.85 87.2 47.7 Q87.65 42.55 88.45 38.2 89.2 33.8 90.3 31.25 90.6 30.7 90.95 31.15 L91.7 32.15 Q92.1 32.75 92.4 32.65 92.15 29.8 90.95 28.3 M15.4 71.25 Q14.4 75.1 12.8 77.7 9.8 82.35 6.95 83.7 4.1 84.95 1.65 82.6 L2.0 82.9 Q-0.35 79.5 2.7 73.55 2.65 74.0 2.95 74.35 3.25 74.7 3.85 74.6 4.45 74.55 5.15 73.75 8.5 69.8 10.45 63.6 12.45 57.4 12.85 49.9 13.2 42.45 11.65 34.7 11.2 32.45 12.05 31.65 12.9 30.8 14.65 31.0 L17.15 31.45 17.1 32.8 Q15.45 32.4 15.1 33.3 14.65 34.45 15.75 38.25 16.45 40.8 16.85 44.7 L17.25 51.95 17.1 52.3 Q16.55 53.95 17.0 55.0 L16.3 55.55 Q14.1 57.45 12.95 59.95 11.8 62.45 12.05 65.05 12.3 67.7 14.2 69.95 L15.4 71.25 M79.5 28.3 Q81.7 27.25 83.7 26.8 82.2 27.4 81.5 28.2 80.75 29.0 81.15 29.45 L83.55 29.5 Q85.95 29.05 86.15 32.6 85.95 31.85 85.5 31.6 L83.15 31.55 80.8 32.35 79.95 32.75 79.1 33.15 78.95 33.2 Q77.75 33.05 77.15 32.3 76.6 31.5 76.8 30.55 77.05 29.65 78.25 28.95 L78.65 28.75 79.5 28.3" fill="#111111" fill-rule="evenodd" stroke="none"/>
    <path d="M90.95 28.3 Q92.15 29.8 92.4 32.65 92.1 32.75 91.7 32.15 L90.95 31.15 Q90.6 30.7 90.3 31.25 89.2 33.8 88.45 38.2 87.65 42.55 87.2 47.7 L86.65 57.85 86.6 66.55 Q86.75 70.35 87.1 71.9 87.55 73.6 88.9 74.95 90.2 76.3 91.6 76.65 93.0 76.95 93.65 75.6 94.3 74.2 93.4 70.35 L95.5 77.45 97.3 83.5 Q98.05 86.2 97.95 88.15 96.85 89.1 94.9 89.25 93.0 89.4 90.85 88.4 88.7 87.4 86.85 84.85 84.6 81.65 83.5 77.35 82.5 73.5 82.4 68.45 L82.4 67.2 Q82.45 62.35 83.25 56.15 L83.6 53.6 85.05 44.1 85.9 37.9 86.0 36.7 Q86.35 34.25 86.15 32.9 L86.15 32.6 Q85.95 29.05 83.55 29.5 L81.15 29.45 Q80.75 29.0 81.5 28.2 82.2 27.4 83.7 26.8 L83.85 26.7 Q87.45 25.9 89.75 27.25 L90.95 28.3 M1.65 82.6 L1.55 82.5 Q-0.05 80.75 0.0 78.25 0.05 75.8 1.1 73.3 2.15 70.8 3.65 69.0 5.45 66.85 6.85 63.55 8.2 60.3 9.1 56.45 10.05 52.65 10.5 48.85 L10.95 41.95 Q10.95 38.8 10.4 36.85 9.15 32.15 11.1 30.55 13.0 28.95 17.25 29.8 L17.15 31.45 14.65 31.0 Q12.9 30.8 12.05 31.65 11.2 32.45 11.65 34.7 13.2 42.45 12.85 49.9 12.45 57.4 10.45 63.6 8.5 69.8 5.15 73.75 4.45 74.55 3.85 74.6 3.25 74.7 2.95 74.35 2.65 74.0 2.7 73.55 -0.35 79.5 2.0 82.9 L1.65 82.6" fill="#2a1b2c" fill-rule="evenodd" stroke="none"/>
    <path d="M20.15 48.75 L20.05 48.15 Q19.35 44.15 18.4 37.25 17.7 32.0 18.65 27.15 19.65 22.25 22.3 18.15 25.0 14.1 29.25 11.35 33.5 8.6 39.35 7.65 L39.55 7.5 39.0 7.2 38.7 6.85 Q40.85 3.6 43.75 2.25 46.7 0.85 49.8 1.1 52.95 1.35 55.55 3.05 58.2 4.75 59.7 7.7 59.55 8.15 59.0 8.3 58.45 8.45 58.5 8.7 67.0 9.85 71.55 14.05 76.15 18.2 77.75 24.5 L78.65 28.75 78.25 28.95 Q77.05 29.65 76.8 30.55 76.6 31.5 77.15 32.3 77.75 33.05 78.95 33.2 L79.1 33.15 79.15 38.3 Q78.85 45.5 77.8 53.1 L75.95 53.0 Q71.9 53.25 67.85 56.55 L57.9 53.9 Q52.95 52.6 47.5 51.75 L48.2 51.45 53.35 51.15 Q56.2 51.5 58.2 52.4 60.25 53.3 61.05 54.1 61.8 54.8 62.05 54.25 62.35 53.75 62.25 52.8 L62.0 51.2 61.8 50.7 62.45 48.85 Q63.25 46.6 63.6 43.3 63.95 40.05 63.15 35.85 62.25 31.8 60.15 29.7 58.05 27.6 55.5 27.25 53.0 26.95 50.85 28.25 48.7 29.55 47.65 32.25 46.6 35.2 46.15 38.85 45.65 42.45 45.7 46.05 45.7 48.9 46.05 51.3 L45.9 51.5 36.3 50.85 35.85 50.15 Q35.25 49.3 34.15 48.65 L34.05 48.5 34.05 47.8 33.95 44.45 33.45 39.75 Q33.0 35.4 31.55 32.8 30.1 30.15 26.95 29.6 25.75 29.35 24.6 30.4 23.45 31.4 22.85 33.95 22.25 36.5 22.7 40.8 23.05 43.65 24.05 47.35 21.7 47.8 20.15 48.75 M30.0 25.65 Q29.9 21.55 28.35 20.35 26.8 19.15 24.9 21.05 22.95 22.9 21.65 28.05 23.2 23.85 24.95 22.65 26.7 21.45 28.1 22.45 29.5 23.4 30.0 25.65 M54.9 19.75 Q56.7 19.0 58.6 19.3 60.5 19.65 61.95 21.3 63.45 22.95 63.95 26.25 64.05 22.35 62.7 20.1 61.35 17.9 59.25 17.35 57.2 16.75 55.15 17.9 53.15 19.05 51.85 21.95 53.05 20.5 54.9 19.75" fill="#488fc1" fill-rule="evenodd" stroke="none"/>
    <path d="M17.25 29.8 Q17.4 28.4 17.7 27.0 18.75 21.9 21.45 17.7 24.1 13.5 28.25 10.7 32.35 7.9 37.75 7.05 39.95 3.15 43.2 1.45 46.45 -0.25 49.9 0.05 53.4 0.35 56.25 2.4 59.1 4.45 60.5 8.0 68.5 9.3 72.8 13.65 77.15 17.95 78.75 24.4 L79.5 28.3 78.65 28.75 77.75 24.5 Q76.15 18.2 71.55 14.05 67.0 9.85 58.5 8.7 58.45 8.45 59.0 8.3 59.55 8.15 59.7 7.7 58.2 4.75 55.55 3.05 52.95 1.35 49.8 1.1 46.7 0.85 43.75 2.25 40.85 3.6 38.7 6.85 L39.0 7.2 39.55 7.5 39.35 7.65 Q33.5 8.6 29.25 11.35 25.0 14.1 22.3 18.15 19.65 22.25 18.65 27.15 17.7 32.0 18.4 37.25 19.35 44.15 20.05 48.15 L20.15 48.75 19.6 49.15 19.25 49.45 19.1 48.75 17.4 37.5 Q17.05 35.1 17.1 32.8 L17.15 31.45 17.25 29.8 M77.8 53.1 Q78.85 45.5 79.15 38.3 L79.1 33.15 79.95 32.75 80.0 38.6 Q79.75 45.7 78.75 53.25 L77.8 53.1 M30.0 25.65 Q29.5 23.4 28.1 22.45 26.7 21.45 24.95 22.65 23.2 23.85 21.65 28.05 22.95 22.9 24.9 21.05 26.8 19.15 28.35 20.35 29.9 21.55 30.0 25.65 M54.9 19.75 Q53.05 20.5 51.85 21.95 53.15 19.05 55.15 17.9 57.2 16.75 59.25 17.35 61.35 17.9 62.7 20.1 64.05 22.35 63.95 26.25 63.45 22.95 61.95 21.3 60.5 19.65 58.6 19.3 56.7 19.0 54.9 19.75" fill="#1b2e54" fill-rule="evenodd" stroke="none"/>
    <path d="M24.05 47.35 Q23.05 43.65 22.7 40.8 22.25 36.5 22.85 33.95 23.45 31.4 24.6 30.4 25.75 29.35 26.95 29.6 30.1 30.15 31.55 32.8 33.0 35.4 33.45 39.75 L33.95 44.45 34.05 47.8 34.05 48.5 32.0 46.65 Q30.05 45.45 28.3 45.4 26.5 45.4 25.4 46.3 L24.65 47.25 24.05 47.35 M46.05 51.3 Q45.7 48.9 45.7 46.05 45.65 42.45 46.15 38.85 46.6 35.2 47.65 32.25 48.7 29.55 50.85 28.25 53.0 26.95 55.5 27.25 58.05 27.6 60.15 29.7 62.25 31.8 63.15 35.85 63.95 40.05 63.6 43.3 63.25 46.6 62.45 48.85 L61.8 50.7 Q60.55 47.85 58.1 46.9 L52.35 46.75 Q49.25 47.7 46.65 50.5 L46.05 51.3 M48.2 51.45 L47.5 51.75 47.25 51.7 47.35 51.65 48.2 51.45" fill="#0b4f7d" fill-rule="evenodd" stroke="none"/>
    <path d="M20.15 48.75 Q21.7 47.8 24.05 47.35 L24.65 47.25 25.15 47.15 Q29.6 46.7 32.2 47.65 33.3 48.1 34.15 48.65 35.25 49.3 35.85 50.15 L36.3 50.85 36.75 51.8 36.95 52.8 Q36.95 55.15 34.95 56.3 32.9 57.45 28.8 57.9 23.8 58.45 20.85 57.8 18.65 57.25 17.6 55.95 L17.0 55.0 Q16.55 53.95 17.1 52.3 L17.25 51.95 Q17.85 50.65 19.25 49.45 L19.6 49.15 20.15 48.75 M27.05 48.0 L30.45 48.1 Q32.7 48.35 34.05 49.0 32.4 47.85 30.05 47.5 27.65 47.2 25.25 47.55 L24.45 47.7 24.15 47.8 Q22.35 48.2 20.9 48.95 L20.3 49.35 19.35 50.15 Q18.7 50.8 18.4 51.55 18.75 50.85 19.4 50.3 L20.35 49.65 21.2 49.2 22.0 48.9 21.95 48.95 Q21.35 49.8 21.6 50.4 22.25 51.7 25.6 51.45 L25.85 51.4 27.05 51.25 28.0 50.9 Q28.75 50.5 28.7 49.75 28.7 49.1 27.8 48.4 L27.05 48.0" fill="#2f094d" fill-rule="evenodd" stroke="none"/>
    <path d="M22.0 48.9 L21.2 49.2 20.35 49.65 19.4 50.3 Q18.75 50.85 18.4 51.55 18.7 50.8 19.35 50.15 L20.3 49.35 20.9 48.95 Q22.35 48.2 24.15 47.8 L24.45 47.7 25.25 47.55 Q27.65 47.2 30.05 47.5 32.4 47.85 34.05 49.0 32.7 48.35 30.45 48.1 L27.05 48.0 24.5 47.8 24.45 47.8 24.2 47.85 Q22.6 48.1 22.0 48.9" fill="#8c409c" fill-rule="evenodd" stroke="none"/>
    <path d="M27.05 48.0 L27.8 48.4 Q28.7 49.1 28.7 49.75 28.75 50.5 28.0 50.9 L27.05 51.25 25.85 51.4 25.6 51.45 Q22.25 51.7 21.6 50.4 21.35 49.8 21.95 48.95 L22.0 48.9 Q22.6 48.1 24.2 47.85 L24.45 47.8 24.5 47.8 27.05 48.0 M22.1 49.95 Q22.6 50.95 25.1 50.8 L25.5 50.75 25.6 50.75 Q28.05 50.65 28.0 49.45 28.0 48.95 27.2 48.35 26.45 47.75 24.5 47.9 L24.4 47.9 24.2 47.95 Q22.85 48.15 22.4 48.8 21.9 49.5 22.1 49.95" fill="#c575b8" fill-rule="evenodd" stroke="none"/>
    <path d="M22.1 49.95 Q21.9 49.5 22.4 48.8 22.85 48.15 24.2 47.95 L24.4 47.9 24.5 47.9 Q26.45 47.75 27.2 48.35 28.0 48.95 28.0 49.45 28.05 50.65 25.6 50.75 L25.5 50.75 25.1 50.8 Q22.6 50.95 22.1 49.95" fill="#f3d6ea" fill-rule="evenodd" stroke="none"/>
    <path d="M34.05 48.5 L34.15 48.65 Q33.3 48.1 32.2 47.65 29.6 46.7 25.15 47.15 L24.65 47.25 25.4 46.3 Q26.5 45.4 28.3 45.4 30.05 45.45 32.0 46.65 L34.05 48.5 M45.9 51.5 L46.05 51.3 46.65 50.5 Q49.25 47.7 52.35 46.75 L58.1 46.9 Q60.55 47.85 61.8 50.7 L62.0 51.2 62.25 52.8 Q62.35 53.75 62.05 54.25 61.8 54.8 61.05 54.1 60.25 53.3 58.2 52.4 56.2 51.5 53.35 51.15 L48.2 51.45 47.35 51.65 47.25 51.7 46.65 51.6 45.9 51.5" fill="#0c1748" fill-rule="evenodd" stroke="none"/>
    <path d="M82.55 56.85 L81.45 62.45 80.15 69.6 77.2 72.65 Q75.3 74.25 71.05 75.75 66.85 77.25 61.1 78.3 55.35 79.35 48.9 79.6 L36.15 79.05 Q29.8 78.25 24.45 76.05 19.1 73.85 15.5 69.95 13.0 67.0 13.25 63.65 L13.4 62.65 Q13.4 63.15 13.75 63.3 14.15 63.4 14.3 62.7 14.35 62.0 14.0 61.8 L13.5 62.1 Q13.9 60.4 14.9 58.9 L15.05 59.4 15.8 58.95 Q16.05 58.3 15.75 58.0 L15.6 57.95 15.9 57.55 17.6 55.95 Q18.65 57.25 20.85 57.8 23.8 58.45 28.8 57.9 32.9 57.45 34.95 56.3 36.95 55.15 36.95 52.8 L36.75 51.8 47.05 52.45 58.25 54.65 68.05 57.2 Q70.2 55.6 72.75 54.7 75.25 53.75 77.65 53.95 80.05 54.2 81.95 56.1 L82.55 56.85 M44.65 54.3 Q44.75 53.6 44.05 53.4 43.35 53.35 43.15 54.0 43.1 54.75 43.75 54.9 44.5 55.0 44.65 54.3 M68.0 63.0 L66.85 63.05 Q66.8 63.45 67.9 63.85 69.2 67.85 68.6 70.1 67.95 72.35 65.6 73.3 63.25 74.2 59.3 74.1 L53.95 73.6 47.05 72.85 40.6 72.55 Q37.7 72.6 36.5 73.55 36.1 74.0 36.1 74.4 L36.7 74.45 Q38.35 73.5 41.45 73.45 L48.1 73.75 54.6 74.55 58.9 75.05 Q64.55 75.15 66.95 73.7 69.4 72.25 69.7 69.75 69.95 67.2 69.05 64.1 L70.4 64.75 Q70.8 64.7 70.3 64.25 69.8 63.75 68.0 63.0 M52.6 57.6 Q52.65 56.9 51.95 56.7 51.25 56.65 51.05 57.35 51.0 58.05 51.65 58.2 52.35 58.3 52.6 57.6 M45.4 61.2 Q45.5 60.4 44.75 60.15 43.95 60.1 43.7 60.85 43.65 61.65 44.4 61.85 45.2 61.95 45.4 61.2 M58.7 56.6 Q58.65 57.35 59.35 57.5 60.0 57.6 60.25 56.9 60.3 56.2 59.6 56.0 58.9 55.95 58.7 56.6 M56.9 61.1 Q56.85 61.85 57.55 62.1 58.3 62.15 58.5 61.45 58.6 60.7 57.85 60.45 57.15 60.4 56.9 61.1" fill="#fee36a" fill-rule="evenodd" stroke="none"/>
    <path d="M82.8 55.65 L82.55 56.85 81.95 56.1 Q80.05 54.2 77.65 53.95 75.25 53.75 72.75 54.7 70.2 55.6 68.05 57.2 L58.25 54.65 47.05 52.45 36.75 51.8 36.3 50.85 45.9 51.5 46.65 51.6 47.25 51.7 47.5 51.75 Q52.95 52.6 57.9 53.9 L67.85 56.55 Q71.9 53.25 75.95 53.0 L77.8 53.1 78.75 53.25 Q80.95 53.8 82.8 55.65 M80.15 69.6 L80.05 70.4 79.95 71.45 77.6 73.6 Q75.8 75.05 71.6 76.55 67.35 78.05 61.55 79.2 55.75 80.35 49.2 80.7 L36.1 80.25 Q29.55 79.4 23.85 76.95 19.05 74.8 15.4 71.25 L14.2 69.95 Q12.3 67.7 12.05 65.05 11.8 62.45 12.95 59.95 14.1 57.45 16.3 55.55 L17.0 55.0 17.6 55.95 15.9 57.55 15.6 57.95 Q15.3 57.95 15.05 58.45 L14.9 58.9 Q13.9 60.4 13.5 62.1 L13.4 62.45 13.4 62.65 13.25 63.65 Q13.0 67.0 15.5 69.95 19.1 73.85 24.45 76.05 29.8 78.25 36.15 79.05 L48.9 79.6 Q55.35 79.35 61.1 78.3 66.85 77.25 71.05 75.75 75.3 74.25 77.2 72.65 L80.15 69.6 M68.0 63.0 Q69.8 63.75 70.3 64.25 70.8 64.7 70.4 64.75 L69.05 64.1 Q69.95 67.2 69.7 69.75 69.4 72.25 66.95 73.7 64.55 75.15 58.9 75.05 L54.6 74.55 48.1 73.75 41.45 73.45 Q38.35 73.5 36.7 74.45 L36.1 74.4 Q36.1 74.0 36.5 73.55 37.7 72.6 40.6 72.55 L47.05 72.85 53.95 73.6 59.3 74.1 Q63.25 74.2 65.6 73.3 67.95 72.35 68.6 70.1 69.2 67.85 67.9 63.85 66.8 63.45 66.85 63.05 L68.0 63.0" fill="#000823" fill-rule="evenodd" stroke="none"/>
    <path d="M15.6 57.95 L15.75 58.0 Q16.05 58.3 15.8 58.95 L15.05 59.4 14.9 58.9 15.05 58.45 Q15.3 57.95 15.6 57.95 M13.5 62.1 L14.0 61.8 Q14.35 62.0 14.3 62.7 14.15 63.4 13.75 63.3 13.4 63.15 13.4 62.65 L13.4 62.45 13.5 62.1 M44.65 54.3 Q44.5 55.0 43.75 54.9 43.1 54.75 43.15 54.0 43.35 53.35 44.05 53.4 44.75 53.6 44.65 54.3 M56.9 61.1 Q57.15 60.4 57.85 60.45 58.6 60.7 58.5 61.45 58.3 62.15 57.55 62.1 56.85 61.85 56.9 61.1 M58.7 56.6 Q58.9 55.95 59.6 56.0 60.3 56.2 60.25 56.9 60.0 57.6 59.35 57.5 58.65 57.35 58.7 56.6 M45.4 61.2 Q45.2 61.95 44.4 61.85 43.65 61.65 43.7 60.85 43.95 60.1 44.75 60.15 45.5 60.4 45.4 61.2 M52.6 57.6 Q52.35 58.3 51.65 58.2 51.0 58.05 51.05 57.35 51.25 56.65 51.95 56.7 52.65 56.9 52.6 57.6" fill="#996400" fill-rule="evenodd" stroke="none"/>
  </g>
</svg>
