<?xml version="1.0" encoding="UTF-8" standalone="no"?>
<svg xmlns:xlink="http://www.w3.org/1999/xlink" height="91.4px" width="69.3px" xmlns="http://www.w3.org/2000/svg">
  <g transform="matrix(1.0, 0.0, 0.0, 1.0, 0.05, 0.0)">
    <path d="M35.0 12.6 L35.25 11.95 Q36.3 9.75 39.2 7.45 45.15 2.9 50.45 1.65 55.75 0.4 59.8 2.2 63.5 4.0 65.25 7.3 67.05 10.65 67.6 14.45 68.1 18.3 68.1 21.6 L68.1 21.7 Q67.1 26.95 65.0 29.85 62.95 32.8 60.35 33.25 L57.05 34.2 52.2 35.55 47.2 36.25 Q44.8 36.3 43.25 35.2 41.75 34.1 41.75 31.25 41.2 33.3 41.4 35.55 L41.9 39.8 Q41.5 37.75 41.35 35.45 41.2 33.1 41.8 31.05 42.4 28.95 44.2 27.65 45.7 26.75 47.9 25.7 L52.15 23.45 Q54.25 22.25 55.5 21.05 52.15 22.85 49.25 24.1 46.4 25.35 43.55 26.9 41.9 27.9 40.9 29.8 L40.3 31.25 41.0 29.55 38.85 28.05 Q37.75 27.05 37.05 25.55 36.35 24.05 36.5 22.15 L36.1 23.75 Q36.3 22.45 36.8 21.25 38.0 18.45 39.9 16.9 41.8 15.45 43.95 14.35 46.1 13.25 48.1 11.95 50.1 10.6 51.6 8.55 L47.05 11.5 Q44.7 12.65 42.5 13.8 40.3 14.9 38.5 16.45 37.45 17.35 36.7 18.55 36.05 16.95 35.65 15.1 35.3 13.25 35.7 11.15 L35.0 12.6 M56.2 38.55 L52.85 39.25 50.0 39.1 47.85 38.75 47.75 38.7 50.0 39.05 52.85 39.2 56.2 38.55 M34.35 14.9 L34.3 15.5 34.3 15.9 34.35 14.9 M34.75 18.5 L34.85 18.8 35.65 20.5 34.9 18.95 34.75 18.5 M31.1 29.0 L30.7 26.05 30.25 22.0 Q30.7 19.9 31.3 19.25 31.9 18.55 32.45 18.95 33.0 19.3 33.2 20.3 32.8 22.15 33.0 24.2 33.15 26.2 33.75 27.95 34.3 29.7 35.05 30.75 35.7 32.4 35.5 33.9 35.25 35.35 34.45 35.95 33.6 36.55 32.55 35.5 L32.2 35.0 Q31.7 33.55 31.6 32.4 L31.4 31.2 31.2 29.85 31.1 29.0" fill="#ffffff" fill-rule="evenodd" stroke="none"/>
    <path d="M45.15 50.8 L43.0 48.5 Q41.2 46.0 41.35 42.55 L41.4 41.6 Q40.95 40.9 40.75 40.0 L40.25 36.7 Q38.55 38.8 36.2 39.1 34.1 39.35 32.6 38.0 31.85 37.3 31.45 36.3 L30.75 34.25 30.45 32.6 28.95 20.65 Q28.85 18.8 29.85 16.8 30.85 14.75 32.6 13.35 L33.75 12.4 Q35.0 9.25 38.45 6.55 44.4 1.95 50.05 0.55 55.7 -0.8 60.25 1.15 63.5 2.7 65.35 5.35 67.2 8.05 68.05 11.15 68.85 14.25 69.05 17.05 L69.25 21.6 Q69.3 31.65 64.45 43.9 L64.2 46.4 Q63.8 50.3 60.75 52.4 58.6 53.85 55.65 54.1 L54.25 54.15 52.95 54.1 Q50.3 53.85 47.55 52.45 L46.15 51.6 45.15 50.8 M68.1 21.7 L68.1 21.6 Q68.1 18.3 67.6 14.45 67.05 10.65 65.25 7.3 63.5 4.0 59.8 2.2 55.75 0.4 50.45 1.65 45.15 2.9 39.2 7.45 36.3 9.75 35.25 11.95 L35.0 12.6 Q34.45 13.8 34.35 14.9 L34.3 15.9 34.7 18.4 34.75 18.5 34.9 18.95 35.65 20.5 36.15 19.5 36.7 18.55 Q37.45 17.35 38.5 16.45 40.3 14.9 42.5 13.8 44.7 12.65 47.05 11.5 L51.6 8.55 Q50.1 10.6 48.1 11.95 46.1 13.25 43.95 14.35 41.8 15.45 39.9 16.9 38.0 18.45 36.8 21.25 36.3 22.45 36.1 23.75 L36.0 25.4 36.15 27.4 36.25 27.9 36.35 28.25 37.25 30.5 37.3 30.6 Q38.25 32.2 39.9 33.8 L40.3 31.25 40.9 29.8 Q41.9 27.9 43.55 26.9 46.4 25.35 49.25 24.1 52.15 22.85 55.5 21.05 54.25 22.25 52.15 23.45 L47.9 25.7 Q45.7 26.75 44.2 27.65 42.4 28.95 41.8 31.05 41.2 33.1 41.35 35.45 41.5 37.75 41.9 39.8 42.45 41.75 44.25 42.55 L48.2 42.75 Q50.25 42.15 51.55 39.95 L49.65 39.65 48.95 39.45 47.85 38.75 50.0 39.1 52.85 39.25 56.2 38.55 57.6 38.1 Q57.2 38.75 56.3 39.15 L54.25 39.75 52.25 39.95 52.25 40.05 51.5 41.45 50.35 42.6 49.0 43.45 47.5 43.85 47.4 43.9 47.3 43.9 Q48.6 46.4 51.1 47.25 53.55 48.1 56.3 47.8 58.8 47.65 60.6 46.8 62.35 45.95 63.2 43.9 68.15 31.55 68.1 21.7 M46.6 43.9 Q44.3 44.0 42.5 42.6 42.35 45.7 44.05 47.95 45.7 50.2 48.2 51.45 50.7 52.7 53.1 52.9 57.35 53.2 60.0 51.45 62.7 49.65 63.05 46.25 61.2 47.95 58.7 48.55 L53.65 48.8 Q51.1 48.4 49.15 47.2 47.25 45.95 46.6 43.9 M31.4 31.2 L31.55 32.45 32.15 34.95 Q32.55 36.35 33.35 37.1 34.7 38.3 36.5 37.9 38.3 37.45 39.7 35.5 38.1 34.1 36.65 32.3 35.2 30.45 34.65 27.85 34.1 25.3 35.2 21.7 34.15 20.05 33.65 18.15 33.15 16.25 33.3 14.25 31.75 15.5 30.9 17.3 30.05 19.05 30.1 20.55 L30.55 24.95 31.1 29.0 31.2 29.85 31.4 31.2" fill="#000000" fill-rule="evenodd" stroke="none"/>
    <path d="M35.0 12.6 L35.7 11.15 Q35.3 13.25 35.65 15.1 36.05 16.95 36.7 18.55 L36.15 19.5 35.65 20.5 34.85 18.8 34.75 18.5 34.7 18.4 34.3 15.9 34.3 15.5 34.35 14.9 Q34.45 13.8 35.0 12.6 M36.1 23.75 L36.5 22.15 Q36.35 24.05 37.05 25.55 37.75 27.05 38.85 28.05 L41.0 29.55 40.3 31.25 39.9 33.8 Q38.25 32.2 37.3 30.6 L37.25 30.5 36.35 28.25 36.25 27.9 36.15 27.4 36.0 25.4 36.1 23.75 M41.9 39.8 L41.4 35.55 Q41.2 33.3 41.75 31.25 41.75 34.1 43.25 35.2 44.8 36.3 47.2 36.25 L52.2 35.55 57.05 34.2 60.35 33.25 Q62.95 32.8 65.0 29.85 67.1 26.95 68.1 21.7 68.15 31.55 63.2 43.9 62.35 45.95 60.6 46.8 58.8 47.65 56.3 47.8 53.55 48.1 51.1 47.25 48.6 46.4 47.3 43.9 L47.4 43.9 47.5 43.85 49.0 43.45 50.35 42.6 51.5 41.45 52.25 40.05 52.25 39.95 54.25 39.75 56.3 39.15 Q57.2 38.75 57.6 38.1 L56.2 38.55 52.85 39.2 50.0 39.05 47.75 38.7 47.85 38.75 48.95 39.45 49.65 39.65 51.55 39.95 Q50.25 42.15 48.2 42.75 L44.25 42.55 Q42.45 41.75 41.9 39.8 M46.6 43.9 Q47.25 45.95 49.15 47.2 51.1 48.4 53.65 48.8 L58.7 48.55 Q61.2 47.95 63.05 46.25 62.7 49.65 60.0 51.45 57.35 53.2 53.1 52.9 50.7 52.7 48.2 51.45 45.7 50.2 44.05 47.95 42.35 45.7 42.5 42.6 44.3 44.0 46.6 43.9 M31.1 29.0 L30.55 24.95 30.1 20.55 Q30.05 19.05 30.9 17.3 31.75 15.5 33.3 14.25 33.15 16.25 33.65 18.15 34.15 20.05 35.2 21.7 34.1 25.3 34.65 27.85 35.2 30.45 36.65 32.3 38.1 34.1 39.7 35.5 38.3 37.45 36.5 37.9 34.7 38.3 33.35 37.1 32.55 36.35 32.15 34.95 L31.55 32.45 31.4 31.2 31.6 32.4 Q31.7 33.55 32.2 35.0 L32.55 35.5 Q33.6 36.55 34.45 35.95 35.25 35.35 35.5 33.9 35.7 32.4 35.05 30.75 34.3 29.7 33.75 27.95 33.15 26.2 33.0 24.2 32.8 22.15 33.2 20.3 33.0 19.3 32.45 18.95 31.9 18.55 31.3 19.25 30.7 19.9 30.25 22.0 L30.7 26.05 31.1 29.0" fill="#c2d6d4" fill-rule="evenodd" stroke="none"/>
    <path d="M31.35 85.0 L29.3 87.85 Q27.2 90.25 23.75 91.35 22.5 91.65 20.25 90.55 18.0 89.45 15.2 87.55 L9.65 83.6 4.45 79.85 Q3.55 79.15 3.7 78.85 L4.35 78.95 4.55 79.15 7.2 81.05 11.65 84.05 15.45 86.55 16.05 86.95 16.3 87.1 17.25 87.7 19.45 89.1 Q21.25 90.2 22.85 90.6 24.45 90.95 26.0 89.6 24.2 90.05 23.0 89.2 21.8 88.35 21.6 86.3 21.45 83.9 22.05 81.65 22.7 79.4 23.6 77.75 24.55 76.05 25.25 75.3 26.65 73.75 28.2 72.95 29.8 72.1 31.0 72.25 32.25 72.4 32.6 73.8 L32.5 72.65 Q32.35 71.95 31.8 71.4 31.3 70.85 30.4 70.85 L25.8 70.75 23.25 70.5 21.3 70.2 16.6 69.2 9.55 67.15 4.85 66.85 Q3.0 67.45 2.05 68.75 1.05 70.1 0.9 71.6 0.75 73.1 1.25 74.15 L1.2 75.1 Q1.1 75.3 0.55 74.2 -0.6 71.6 0.55 69.45 1.7 67.3 4.15 66.3 L9.5 66.15 14.05 67.55 Q17.15 68.5 21.6 69.25 L31.6 70.0 Q32.7 70.05 33.25 71.9 L33.7 74.45 33.6 74.45 30.15 74.0 28.35 74.7 28.25 74.65 Q26.55 75.6 25.7 76.95 L25.1 78.0 24.5 79.7 24.25 80.85 24.2 81.4 24.2 81.55 24.15 81.85 24.15 82.0 24.15 83.05 26.35 83.7 31.35 85.0" fill="#411c14" fill-rule="evenodd" stroke="none"/>
    <path d="M25.8 70.75 Q23.65 71.35 22.0 73.55 20.3 75.75 19.3 78.6 18.3 81.45 18.1 84.15 17.9 86.85 18.55 88.5 L17.25 87.7 16.3 87.1 16.05 86.95 15.45 86.55 Q14.7 83.45 15.5 80.3 16.3 77.1 17.95 74.45 19.55 71.8 21.3 70.2 L23.25 70.5 25.8 70.75" fill="#e31e00" fill-rule="evenodd" stroke="none"/>
    <path d="M4.35 78.95 L3.4 77.8 2.2 75.9 1.25 74.15 Q0.75 73.1 0.9 71.6 1.05 70.1 2.05 68.75 3.0 67.45 4.85 66.85 L9.55 67.15 16.6 69.2 21.3 70.2 Q19.55 71.8 17.95 74.45 16.3 77.1 15.5 80.3 14.7 83.45 15.45 86.55 L11.65 84.05 7.2 81.05 4.55 79.15 4.35 78.95 M17.25 87.7 L18.55 88.5 Q17.9 86.85 18.1 84.15 18.3 81.45 19.3 78.6 20.3 75.75 22.0 73.55 23.65 71.35 25.8 70.75 L30.4 70.85 Q31.3 70.85 31.8 71.4 32.35 71.95 32.5 72.65 L32.6 73.8 Q32.25 72.4 31.0 72.25 29.8 72.1 28.2 72.95 26.65 73.75 25.25 75.3 24.55 76.05 23.6 77.75 22.7 79.4 22.05 81.65 21.45 83.9 21.6 86.3 21.8 88.35 23.0 89.2 24.2 90.05 26.0 89.6 24.45 90.95 22.85 90.6 21.25 90.2 19.45 89.1 L17.25 87.7" fill="#ffbd20" fill-rule="evenodd" stroke="none"/>
    <path d="M28.85 74.8 L32.7 75.4 37.15 76.1 40.0 76.65 Q40.4 76.65 41.15 74.25 L42.75 68.0 44.5 59.75 45.7 53.85 45.4 55.4 47.45 57.1 49.2 59.0 50.05 60.4 49.2 64.3 48.0 69.75 46.55 75.5 44.9 80.25 Q44.1 82.25 43.3 82.8 42.45 83.3 40.6 83.25 L36.55 82.95 32.25 82.2 28.85 81.5 27.45 81.15 27.55 80.05 27.95 77.55 Q28.25 76.1 28.85 74.8 M35.15 84.75 L37.5 85.1 43.05 85.35 44.95 84.95 43.05 85.4 37.5 85.15 35.15 84.75 M49.8 72.45 L49.95 71.8 50.05 71.45 49.8 72.45 M51.85 64.3 L52.05 63.4 52.45 61.85 52.2 62.85 51.85 64.3 M54.1 54.85 L54.25 54.15 54.15 54.55 54.1 54.85 M24.2 81.55 L24.2 81.4 24.25 80.85 24.2 81.55" fill="#488fc1" fill-rule="evenodd" stroke="none"/>
    <path d="M45.15 50.8 L46.15 51.6 45.7 53.85 44.5 59.75 42.75 68.0 41.15 74.25 Q40.4 76.65 40.0 76.65 L37.15 76.1 32.7 75.4 28.85 74.8 28.85 74.75 28.35 74.7 30.15 74.0 33.6 74.45 33.7 74.45 37.1 74.7 39.6 75.0 Q40.0 75.05 40.7 72.7 L42.15 66.6 43.7 58.6 45.15 50.8 M54.25 54.15 L55.65 54.1 53.95 61.95 51.75 71.15 49.55 79.2 Q48.5 82.75 47.6 84.5 46.75 86.0 44.15 86.3 41.55 86.65 38.2 86.2 L31.65 85.05 31.35 85.0 26.35 83.7 24.15 83.05 24.15 82.0 26.25 82.6 31.25 83.95 35.15 84.75 37.5 85.15 43.05 85.4 44.95 84.95 46.05 84.0 46.1 84.0 46.15 83.85 47.9 79.05 47.95 78.9 49.65 73.1 49.8 72.45 50.05 71.45 51.2 67.0 51.85 64.3 52.2 62.85 52.45 61.85 53.45 57.6 54.0 55.2 54.1 54.85 54.15 54.55 54.25 54.15" fill="#1d3f60" fill-rule="evenodd" stroke="none"/>
    <path d="M46.15 51.6 L47.55 52.45 Q50.3 53.85 52.95 54.1 L54.25 54.15 54.1 54.85 54.0 55.2 53.45 57.6 52.45 61.85 52.05 63.4 51.85 64.3 51.2 67.0 50.05 71.45 49.95 71.8 49.8 72.45 49.65 73.1 47.95 78.9 47.9 79.05 46.15 83.85 46.1 84.0 46.05 84.0 44.95 84.95 43.05 85.35 37.5 85.1 35.15 84.75 31.25 83.95 26.25 82.6 24.15 82.0 24.15 81.85 24.2 81.55 24.25 80.85 24.5 79.7 25.1 78.0 25.7 76.95 Q26.55 75.6 28.25 74.65 L28.35 74.7 28.85 74.75 28.85 74.8 Q28.25 76.1 27.95 77.55 L27.55 80.05 27.45 81.15 28.85 81.5 32.25 82.2 36.55 82.95 40.6 83.25 Q42.45 83.3 43.3 82.8 44.1 82.25 44.9 80.25 L46.55 75.5 48.0 69.75 49.2 64.3 50.05 60.4 49.2 59.0 47.45 57.1 45.4 55.4 45.7 53.85 46.15 51.6" fill="#0b4f7d" fill-rule="evenodd" stroke="none"/>
  </g>
</svg>
