<?xml version="1.0" encoding="UTF-8" standalone="no"?>
<svg xmlns:xlink="http://www.w3.org/1999/xlink" height="91.85px" width="98.0px" xmlns="http://www.w3.org/2000/svg">
  <g transform="matrix(1.0, 0.0, 0.0, 1.0, 0.0, 0.0)">
    <path d="M78.65 28.75 L78.25 28.95 Q77.05 29.65 76.8 30.55 76.6 31.5 77.15 32.3 77.75 33.05 78.95 33.2 L79.1 33.15 79.15 38.3 Q78.85 45.5 77.8 53.05 L75.95 53.0 Q71.9 53.25 67.85 56.55 L60.5 54.6 61.9 50.0 Q62.7 47.05 63.05 43.45 63.45 39.75 62.7 36.0 L62.9 36.3 62.45 35.15 Q61.35 31.4 59.3 29.45 57.1 27.45 54.6 27.25 L53.9 27.2 51.9 27.5 Q50.85 27.8 49.95 28.4 47.85 29.8 46.9 32.55 L46.45 34.2 46.4 34.3 Q46.0 35.0 45.9 35.65 L45.9 36.5 46.0 36.55 45.65 39.15 Q45.35 42.8 45.5 46.35 45.65 49.2 46.1 51.55 L36.35 50.85 35.9 50.15 34.1 48.55 34.05 46.9 33.95 42.9 33.9 42.0 33.9 41.15 32.9 37.1 33.25 37.45 32.65 36.15 32.85 36.35 Q32.0 33.85 31.05 32.45 30.15 31.1 29.25 30.5 28.3 29.9 27.55 29.75 26.35 29.45 25.25 30.15 24.15 30.9 23.45 33.0 22.8 35.05 22.9 38.75 L22.85 40.1 22.95 41.25 Q23.0 41.65 23.1 41.2 23.4 43.85 24.25 47.3 21.75 47.8 20.2 48.8 L20.05 48.15 Q19.35 44.15 18.4 37.25 17.7 32.0 18.7 27.15 19.65 22.25 22.3 18.15 25.0 14.1 29.25 11.35 33.5 8.6 39.35 7.65 L39.55 7.5 39.0 7.2 38.7 6.85 Q40.85 3.6 43.75 2.25 46.7 0.85 49.8 1.1 52.95 1.35 55.55 3.05 58.2 4.75 59.7 7.7 59.55 8.15 59.0 8.3 58.45 8.45 58.5 8.7 67.0 9.85 71.55 14.05 76.15 18.2 77.75 24.5 L78.65 28.75 M59.25 16.25 Q57.2 15.65 55.2 16.8 53.15 17.95 51.85 20.85 53.05 19.4 54.9 18.65 56.7 17.9 58.6 18.25 60.5 18.55 61.95 20.2 63.45 21.85 63.95 25.15 64.05 21.25 62.7 19.0 61.35 16.8 59.25 16.25 M24.9 19.95 Q22.95 21.8 21.65 26.95 23.2 22.75 24.95 21.55 26.7 20.4 28.1 21.35 29.5 22.3 30.0 24.55 29.9 20.45 28.35 19.25 26.8 18.05 24.9 19.95" fill="#488fc1" fill-rule="evenodd" stroke="none"/>
    <path d="M79.1 33.15 L78.95 33.2 Q77.75 33.05 77.15 32.3 76.6 31.5 76.8 30.55 77.05 29.65 78.25 28.95 L78.65 28.75 79.55 28.3 Q81.8 27.2 83.8 26.75 82.3 27.4 81.55 28.2 80.8 29.0 81.2 29.45 L83.6 29.5 Q84.9 29.25 85.5 30.1 86.1 31.0 86.2 32.9 86.05 31.85 85.5 31.6 L83.15 31.55 80.8 32.35 80.0 32.75 79.1 33.15 M33.9 42.0 L33.95 42.9 34.05 46.9 34.1 48.55 34.05 48.5 32.25 47.65 Q30.5 47.0 27.9 47.0 L27.85 45.8 31.35 45.1 27.95 43.65 Q28.3 40.6 29.55 39.35 30.8 38.1 32.05 38.6 33.35 39.15 33.85 41.4 L33.9 42.0 M63.05 43.45 Q62.7 47.05 61.9 50.0 L60.5 54.6 57.9 53.9 53.6 52.9 53.3 51.4 Q53.05 49.9 53.1 47.35 L58.25 46.35 53.3 44.95 53.6 43.15 Q54.15 40.25 55.55 38.8 56.9 37.4 58.5 37.35 60.1 37.3 61.4 38.45 62.65 39.65 62.95 41.9 L63.05 43.45 M92.45 32.65 L92.45 34.8 91.65 44.7 Q91.25 49.95 91.35 55.75 91.5 61.55 92.85 67.9 L93.45 70.35 Q94.35 74.2 93.7 75.6 93.05 76.95 91.65 76.65 90.25 76.3 88.95 74.95 87.6 73.6 87.15 71.9 86.8 70.35 86.65 66.55 L86.7 57.85 87.25 47.7 Q87.7 42.55 88.5 38.2 89.25 33.8 90.35 31.25 90.65 30.7 91.0 31.15 L91.75 32.15 Q92.15 32.75 92.45 32.65 M98.0 88.15 L97.8 89.25 Q97.25 91.25 94.55 91.7 92.15 92.15 89.25 91.1 86.3 90.0 83.8 86.75 81.3 83.45 80.1 77.3 79.65 74.55 79.95 71.45 L80.05 70.4 80.15 69.7 Q80.6 66.3 81.45 62.45 L82.55 56.8 82.8 55.65 83.2 53.1 84.95 43.15 86.2 35.25 86.05 36.7 85.1 44.1 83.65 53.6 83.3 56.2 83.1 57.65 Q82.55 62.4 82.5 66.35 L82.45 67.2 82.45 68.4 Q82.5 73.5 83.55 77.35 84.65 81.65 86.9 84.85 88.75 87.4 90.9 88.4 93.05 89.4 94.95 89.25 96.9 89.1 98.0 88.15 M15.4 71.25 Q14.4 75.1 12.8 77.7 9.8 82.35 6.95 83.7 4.1 84.95 1.65 82.6 L2.0 82.9 Q-0.35 79.5 2.7 73.55 2.6 74.0 2.95 74.35 3.25 74.7 3.85 74.6 4.45 74.55 5.15 73.75 8.5 69.8 10.45 63.6 12.45 57.4 12.8 49.9 13.2 42.45 11.65 34.7 11.2 32.45 12.05 31.65 12.9 30.8 14.65 31.0 L17.2 31.45 17.15 32.85 Q15.45 32.35 15.1 33.3 14.65 34.45 15.75 38.25 16.4 40.8 16.85 44.7 L17.25 52.1 17.15 52.3 Q16.6 53.9 17.05 54.95 L16.3 55.55 Q14.1 57.45 12.95 59.95 11.8 62.45 12.05 65.05 12.3 67.7 14.2 69.95 L15.4 71.25 M50.9 75.15 L50.45 75.15 42.5 75.25 Q41.75 75.25 41.7 75.6 41.65 75.9 42.8 76.1 L45.75 76.75 51.15 78.0 52.4 78.3 53.15 78.45 57.35 79.25 62.1 79.8 62.1 79.85 62.8 79.85 62.85 79.85 Q65.85 79.85 67.6 77.85 L68.65 76.5 68.95 75.9 Q69.7 74.45 70.05 72.65 70.7 69.45 70.35 65.9 69.3 69.35 66.2 71.3 63.15 73.25 58.95 74.1 L51.4 75.1 50.9 75.15 M69.95 59.7 L70.95 63.65 71.2 66.4 71.2 69.15 Q71.25 70.8 70.7 73.15 70.15 75.5 68.85 77.55 67.55 79.6 65.2 80.25 62.8 80.8 59.3 80.3 L52.2 78.95 45.7 77.45 38.4 76.15 Q35.45 75.75 33.2 76.65 L32.15 76.85 Q31.7 76.85 32.25 76.4 34.25 75.1 38.05 74.8 L47.35 74.5 Q54.65 74.5 60.1 73.0 65.55 71.5 68.1 68.3 70.65 65.1 69.25 60.0 L69.35 59.7 69.95 59.7" fill="#111111" fill-rule="evenodd" stroke="none"/>
    <path d="M78.65 28.75 L77.75 24.5 Q76.15 18.2 71.55 14.05 67.0 9.85 58.5 8.7 58.45 8.45 59.0 8.3 59.55 8.15 59.7 7.7 58.2 4.75 55.55 3.05 52.95 1.35 49.8 1.1 46.7 0.85 43.75 2.25 40.85 3.6 38.7 6.85 L39.0 7.2 39.55 7.5 39.35 7.65 Q33.5 8.6 29.25 11.35 25.0 14.1 22.3 18.15 19.65 22.25 18.7 27.15 17.7 32.0 18.4 37.25 19.35 44.15 20.05 48.15 L20.2 48.8 19.65 49.15 19.3 49.45 19.15 48.75 17.45 37.5 Q17.1 35.1 17.15 32.85 L17.2 31.45 17.3 29.85 17.75 27.0 Q18.8 21.9 21.5 17.7 24.15 13.5 28.3 10.7 32.4 7.9 37.8 7.05 40.0 3.15 43.25 1.45 46.5 -0.25 49.95 0.05 53.45 0.35 56.3 2.4 59.15 4.45 60.55 8.0 68.55 9.3 72.85 13.65 77.2 17.95 78.75 24.4 L79.55 28.3 78.65 28.75 M77.8 53.05 Q78.85 45.5 79.15 38.3 L79.1 33.15 80.0 32.75 80.05 38.6 Q79.8 45.7 78.8 53.25 L77.8 53.05 M59.25 16.25 Q61.35 16.8 62.7 19.0 64.05 21.25 63.95 25.15 63.45 21.85 61.95 20.2 60.5 18.55 58.6 18.25 56.7 17.9 54.9 18.65 53.05 19.4 51.85 20.85 53.15 17.95 55.2 16.8 57.2 15.65 59.25 16.25 M24.9 19.95 Q26.8 18.05 28.35 19.25 29.9 20.45 30.0 24.55 29.5 22.3 28.1 21.35 26.7 20.4 24.95 21.55 23.2 22.75 21.65 26.95 22.95 21.8 24.9 19.95" fill="#1b2e54" fill-rule="evenodd" stroke="none"/>
    <path d="M36.35 50.85 L46.1 51.55 46.65 51.6 53.6 52.9 57.9 53.9 60.5 54.6 67.85 56.55 Q71.9 53.25 75.95 53.0 L77.8 53.05 78.8 53.25 Q80.95 53.85 82.8 55.65 L82.55 56.8 82.0 56.1 Q80.5 54.6 78.65 54.15 L77.7 53.95 77.65 53.95 Q75.3 53.75 72.8 54.7 70.25 55.6 68.1 57.2 L60.25 55.15 58.3 54.65 Q53.0 53.35 47.1 52.45 L46.25 52.35 36.8 51.8 36.35 50.85 M86.2 32.9 Q86.1 31.0 85.5 30.1 84.9 29.25 83.6 29.5 L81.2 29.45 Q80.8 29.0 81.55 28.2 82.3 27.4 83.8 26.75 L83.9 26.7 Q87.5 25.9 89.8 27.25 91.0 28.0 91.7 29.45 92.3 30.75 92.45 32.65 92.15 32.75 91.75 32.15 L91.0 31.15 Q90.65 30.7 90.35 31.25 89.25 33.8 88.5 38.2 87.7 42.55 87.25 47.7 L86.7 57.85 86.65 66.55 Q86.8 70.35 87.15 71.9 87.6 73.6 88.95 74.95 90.25 76.3 91.65 76.65 93.05 76.95 93.7 75.6 94.35 74.2 93.45 70.35 L94.85 75.25 95.55 77.45 97.35 83.5 97.65 84.7 Q98.1 86.7 98.0 88.15 96.9 89.1 94.95 89.25 93.05 89.4 90.9 88.4 88.75 87.4 86.9 84.85 84.65 81.65 83.55 77.35 82.5 73.5 82.45 68.4 L82.45 67.2 82.5 66.35 Q82.55 62.4 83.1 57.65 L83.3 56.2 83.65 53.6 85.1 44.1 86.05 36.7 86.2 35.25 86.25 34.8 86.25 34.35 86.25 34.0 86.25 33.7 86.25 33.6 86.25 33.55 86.2 32.9 M79.95 71.45 L77.6 73.6 73.85 75.7 Q73.25 78.2 72.1 79.8 70.5 82.0 68.2 82.9 65.95 83.75 63.4 83.75 L58.35 83.5 53.6 82.6 48.2 81.35 45.45 80.85 36.1 80.25 Q29.55 79.4 23.85 76.95 19.05 74.8 15.4 71.25 L14.2 69.95 Q12.3 67.7 12.05 65.05 11.8 62.45 12.95 59.95 14.1 57.45 16.3 55.55 L17.05 54.95 17.05 55.0 17.25 55.4 17.65 55.95 17.25 56.3 15.95 57.55 15.65 57.95 Q15.35 57.95 15.1 58.45 L14.95 58.9 Q13.95 60.4 13.55 62.1 L13.45 62.45 13.45 62.65 13.3 63.65 Q13.05 67.0 15.55 69.95 L15.7 70.1 Q19.25 73.9 24.5 76.05 29.85 78.25 36.2 79.05 L43.5 79.65 43.55 79.6 47.6 80.05 52.65 81.25 Q55.35 81.95 57.9 82.25 L62.5 82.7 67.35 82.1 Q69.7 81.4 71.4 79.0 72.65 77.2 73.2 74.1 73.5 72.9 73.9 72.75 74.3 72.6 74.25 73.55 L74.1 74.55 Q76.1 73.6 77.25 72.65 L80.15 69.7 80.05 70.4 79.95 71.45 M1.65 82.6 L1.55 82.5 Q-0.05 80.75 0.0 78.25 0.05 75.8 1.1 73.3 2.15 70.8 3.65 69.0 5.45 66.85 6.85 63.55 8.2 60.3 9.1 56.45 10.05 52.65 10.5 48.85 11.0 45.1 10.95 41.95 10.95 38.8 10.4 36.85 9.2 32.15 11.1 30.55 13.0 28.95 17.3 29.85 L17.2 31.45 14.65 31.0 Q12.9 30.8 12.05 31.65 11.2 32.45 11.65 34.7 13.2 42.45 12.8 49.9 12.45 57.4 10.45 63.6 8.5 69.8 5.15 73.75 4.45 74.55 3.85 74.6 3.25 74.7 2.95 74.35 2.6 74.0 2.7 73.55 -0.35 79.5 2.0 82.9 L1.65 82.6 M69.35 59.7 L68.35 59.85 67.75 59.7 Q67.55 59.45 68.0 59.3 L70.8 59.15 Q71.4 59.35 71.25 59.65 L70.6 59.8 69.95 59.7 69.35 59.7" fill="#2a1b2c" fill-rule="evenodd" stroke="none"/>
    <path d="M22.9 38.75 Q22.8 35.05 23.45 33.0 24.15 30.9 25.25 30.15 26.35 29.45 27.55 29.75 28.3 29.9 29.25 30.5 30.15 31.1 31.05 32.45 32.0 33.85 32.85 36.35 L32.65 36.15 32.5 35.9 Q29.75 32.85 27.8 32.5 25.85 32.2 24.6 33.95 23.45 35.6 22.95 38.6 L22.9 38.75 M51.9 27.5 L53.9 27.2 54.6 27.25 Q57.1 27.45 59.3 29.45 61.35 31.4 62.45 35.15 61.45 32.9 59.8 31.4 57.75 29.55 55.3 29.1 52.85 28.65 50.5 29.9 48.2 31.1 46.55 34.05 L46.95 32.55 Q47.9 29.75 50.0 28.4 50.9 27.8 51.9 27.5" fill="#0b4f7d" fill-rule="evenodd" stroke="none"/>
    <path d="M23.1 41.2 Q23.0 41.65 22.95 41.25 L22.85 40.1 22.9 38.75 22.95 38.6 Q23.45 35.6 24.6 33.95 25.85 32.2 27.8 32.5 29.75 32.85 32.5 35.9 L32.65 36.15 33.25 37.45 32.9 37.1 Q31.1 35.4 29.25 34.75 27.25 34.0 25.6 35.4 23.95 36.85 23.1 41.2 M46.0 36.55 L45.9 36.5 45.9 35.65 Q46.0 35.0 46.4 34.3 L46.45 34.2 46.55 34.05 Q48.2 31.1 50.5 29.9 52.85 28.65 55.3 29.1 57.75 29.55 59.8 31.4 61.45 32.9 62.45 35.15 L62.9 36.3 62.7 36.0 Q60.25 32.85 57.3 31.8 54.15 30.65 51.2 31.8 48.25 32.9 46.35 36.2 L46.0 36.55" fill="#0c1748" fill-rule="evenodd" stroke="none"/>
    <path d="M24.25 47.3 Q23.4 43.85 23.1 41.2 23.95 36.85 25.6 35.4 27.25 34.0 29.25 34.75 31.1 35.4 32.9 37.1 L33.9 41.15 33.9 42.0 33.85 41.4 Q33.35 39.15 32.05 38.6 30.8 38.1 29.55 39.35 28.3 40.6 27.95 43.65 L31.35 45.1 27.85 45.8 27.9 47.0 25.2 47.15 24.25 47.3 M46.1 51.55 Q45.65 49.2 45.5 46.35 45.35 42.8 45.65 39.15 L46.0 36.55 46.35 36.2 Q48.25 32.9 51.2 31.8 54.15 30.65 57.3 31.8 60.25 32.85 62.7 36.0 63.45 39.75 63.05 43.45 L62.95 41.9 Q62.65 39.65 61.4 38.45 60.1 37.3 58.5 37.35 56.9 37.4 55.55 38.8 54.15 40.25 53.6 43.15 L53.3 44.95 58.25 46.35 53.1 47.35 Q53.05 49.9 53.3 51.4 L53.6 52.9 46.65 51.6 46.1 51.55 M46.45 34.2 L46.9 32.55 Q47.85 29.8 49.95 28.4 50.85 27.8 51.9 27.5 50.9 27.8 50.0 28.4 47.9 29.75 46.95 32.55 L46.55 34.05 46.45 34.2 M52.4 78.3 L51.15 78.0 45.75 76.75 42.8 76.1 Q41.65 75.9 41.7 75.6 41.75 75.25 42.5 75.25 L50.45 75.15 50.9 75.15 50.75 75.15 52.4 78.3 M51.4 75.1 L58.95 74.1 Q63.15 73.25 66.2 71.3 69.3 69.35 70.35 65.9 70.7 69.45 70.05 72.65 69.7 74.45 68.95 75.9 L66.0 71.45 65.5 71.75 67.05 74.1 68.65 76.5 67.6 77.85 Q65.85 79.85 62.85 79.85 L60.8 76.95 58.8 74.15 58.2 74.3 60.2 77.1 62.1 79.8 57.35 79.25 53.15 78.45 52.35 76.95 51.4 75.1" fill="#ffffff" fill-rule="evenodd" stroke="none"/>
    <path d="M82.55 56.8 L81.45 62.45 Q80.6 66.3 80.15 69.7 L77.25 72.65 Q76.1 73.6 74.1 74.55 L74.25 73.55 Q74.3 72.6 73.9 72.75 73.5 72.9 73.2 74.1 72.65 77.2 71.4 79.0 69.7 81.4 67.35 82.1 L62.5 82.7 57.9 82.25 Q55.35 81.95 52.65 81.25 L47.6 80.05 43.55 79.6 43.5 79.65 36.2 79.05 Q29.85 78.25 24.5 76.05 19.25 73.9 15.7 70.1 L15.55 69.95 Q13.05 67.0 13.3 63.65 L13.45 62.65 Q13.45 63.15 13.8 63.3 14.2 63.4 14.35 62.7 14.4 62.0 14.05 61.8 13.75 61.75 13.55 62.1 13.95 60.4 14.95 58.9 14.9 59.2 15.1 59.4 15.5 59.55 15.85 58.95 16.1 58.3 15.8 58.0 L15.65 57.95 15.95 57.55 17.25 56.3 17.65 55.95 Q18.7 57.25 20.9 57.8 23.85 58.45 28.85 57.9 L31.95 57.4 34.3 56.65 35.0 56.3 Q37.0 55.15 37.0 52.8 L36.8 51.8 46.25 52.35 47.1 52.45 Q53.0 53.35 58.3 54.65 L60.25 55.15 68.1 57.2 Q70.25 55.6 72.8 54.7 75.3 53.75 77.65 53.95 L77.7 53.95 78.65 54.15 Q80.5 54.6 82.0 56.1 L82.55 56.8 M44.7 54.3 Q44.75 53.6 44.05 53.4 43.35 53.35 43.15 54.0 43.1 54.75 43.75 54.9 44.45 55.0 44.7 54.3 M45.4 61.2 Q45.5 60.4 44.75 60.15 43.95 60.1 43.7 60.85 43.65 61.65 44.4 61.85 45.2 61.95 45.4 61.2 M51.05 57.35 L51.1 57.7 Q51.2 58.1 51.65 58.2 52.25 58.3 52.55 57.75 L52.6 57.6 Q52.65 56.9 51.95 56.7 51.25 56.65 51.05 57.35 M69.35 59.7 L69.25 60.0 Q70.65 65.1 68.1 68.3 65.55 71.5 60.1 73.0 54.65 74.5 47.35 74.5 L38.05 74.8 Q34.25 75.1 32.25 76.4 31.7 76.85 32.15 76.85 L33.2 76.65 Q35.45 75.75 38.4 76.15 L45.7 77.45 52.2 78.95 59.3 80.3 Q62.8 80.8 65.2 80.25 67.55 79.6 68.85 77.55 70.15 75.5 70.7 73.15 71.25 70.8 71.2 69.15 L71.2 66.4 70.95 63.65 69.95 59.7 70.6 59.8 71.25 59.65 Q71.4 59.35 70.8 59.15 L68.0 59.3 Q67.55 59.45 67.75 59.7 L68.35 59.85 69.35 59.7 M56.9 61.1 Q56.85 61.85 57.55 62.1 58.3 62.15 58.5 61.45 58.6 60.7 57.9 60.45 57.15 60.4 56.9 61.1 M60.25 56.9 Q60.3 56.3 59.8 56.05 L59.6 56.0 Q58.9 55.95 58.7 56.6 58.65 57.35 59.35 57.5 60.0 57.6 60.25 56.9" fill="#fee36a" fill-rule="evenodd" stroke="none"/>
    <path d="M20.2 48.8 Q21.75 47.8 24.25 47.3 L25.2 47.15 27.9 47.0 Q30.5 47.0 32.25 47.65 L34.05 48.5 34.1 48.55 35.9 50.15 36.35 50.85 36.8 51.8 37.0 52.8 Q37.0 55.15 35.0 56.3 L34.3 56.65 31.95 57.4 28.85 57.9 Q23.85 58.45 20.9 57.8 18.7 57.25 17.65 55.95 L17.25 55.4 17.05 55.0 17.05 54.95 Q16.6 53.9 17.15 52.3 L17.25 52.1 Q17.8 50.7 19.3 49.45 L19.65 49.15 20.2 48.8 M27.05 48.0 L30.5 48.1 Q32.7 48.35 34.05 49.0 L34.1 49.0 34.05 48.95 Q32.4 47.85 30.1 47.5 27.7 47.2 25.3 47.55 L24.35 47.75 Q22.45 48.15 20.95 48.95 L20.3 49.4 19.4 50.15 Q18.8 50.75 18.45 51.55 18.8 50.85 19.45 50.35 L20.35 49.7 Q20.75 49.4 21.25 49.2 L22.0 48.95 21.95 48.95 Q21.35 49.8 21.6 50.4 22.3 51.75 25.85 51.4 L26.75 51.3 28.0 50.9 Q28.75 50.5 28.7 49.75 28.7 49.1 27.8 48.4 L27.05 48.0" fill="#2f094d" fill-rule="evenodd" stroke="none"/>
    <path d="M22.0 48.95 L21.25 49.2 Q20.75 49.4 20.35 49.7 L19.45 50.35 Q18.8 50.85 18.45 51.55 18.8 50.75 19.4 50.15 L20.3 49.4 20.95 48.95 Q22.45 48.15 24.35 47.75 L25.3 47.55 Q27.7 47.2 30.1 47.5 32.4 47.85 34.05 48.95 L34.1 49.0 34.05 49.0 Q32.7 48.35 30.5 48.1 L27.05 48.0 24.5 47.8 24.35 47.85 Q22.6 48.1 22.0 48.95" fill="#8c409c" fill-rule="evenodd" stroke="none"/>
    <path d="M27.05 48.0 L27.8 48.4 Q28.7 49.1 28.7 49.75 28.75 50.5 28.0 50.9 L26.75 51.3 25.85 51.4 Q22.3 51.75 21.6 50.4 21.35 49.8 21.95 48.95 L22.0 48.95 Q22.6 48.1 24.35 47.85 L24.5 47.8 27.05 48.0 M22.1 49.95 Q22.6 51.0 25.3 50.8 L25.6 50.75 Q28.05 50.65 28.0 49.45 28.0 48.95 27.2 48.35 26.45 47.75 24.5 47.9 L24.4 47.95 Q22.9 48.15 22.4 48.8 21.9 49.5 22.1 49.95" fill="#c575b8" fill-rule="evenodd" stroke="none"/>
    <path d="M22.1 49.95 Q21.9 49.5 22.4 48.8 22.9 48.15 24.4 47.95 L24.5 47.9 Q26.45 47.75 27.2 48.35 28.0 48.95 28.0 49.45 28.05 50.65 25.6 50.75 L25.3 50.8 Q22.6 51.0 22.1 49.95" fill="#f3d6ea" fill-rule="evenodd" stroke="none"/>
    <path d="M44.7 54.3 Q44.45 55.0 43.75 54.9 43.1 54.75 43.15 54.0 43.35 53.35 44.05 53.4 44.75 53.6 44.7 54.3 M51.05 57.35 Q51.25 56.65 51.95 56.7 52.65 56.9 52.6 57.6 L52.55 57.75 Q52.25 58.3 51.65 58.2 51.2 58.1 51.1 57.7 L51.05 57.35 M45.4 61.2 Q45.2 61.95 44.4 61.85 43.65 61.65 43.7 60.85 43.95 60.1 44.75 60.15 45.5 60.4 45.4 61.2 M15.65 57.95 L15.8 58.0 Q16.1 58.3 15.85 58.95 15.5 59.55 15.1 59.4 14.9 59.2 14.95 58.9 L15.1 58.45 Q15.35 57.95 15.65 57.95 M13.55 62.1 Q13.75 61.75 14.05 61.8 14.4 62.0 14.35 62.7 14.2 63.4 13.8 63.3 13.45 63.15 13.45 62.65 L13.45 62.45 13.55 62.1 M60.25 56.9 Q60.0 57.6 59.35 57.5 58.65 57.35 58.7 56.6 58.9 55.95 59.6 56.0 L59.8 56.05 Q60.3 56.3 60.25 56.9 M56.9 61.1 Q57.15 60.4 57.9 60.45 58.6 60.7 58.5 61.45 58.3 62.15 57.55 62.1 56.85 61.85 56.9 61.1" fill="#996400" fill-rule="evenodd" stroke="none"/>
    <path d="M50.9 75.15 L51.4 75.1 52.35 76.95 53.15 78.45 52.4 78.3 50.75 75.15 50.9 75.15" fill="#2c3d79" fill-rule="evenodd" stroke="none"/>
    <path d="M68.95 75.9 L68.65 76.5 67.05 74.1 65.5 71.75 66.0 71.45 68.95 75.9 M62.85 79.85 L62.8 79.85 62.1 79.85 62.1 79.8 60.2 77.1 58.2 74.3 58.8 74.15 60.8 76.95 62.85 79.85" fill="#476db1" fill-rule="evenodd" stroke="none"/>
  </g>
</svg>
