<?xml version="1.0" encoding="UTF-8" standalone="no"?>
<svg xmlns:xlink="http://www.w3.org/1999/xlink" height="91.85px" width="98.0px" xmlns="http://www.w3.org/2000/svg">
  <g transform="matrix(1.0, 0.0, 0.0, 1.0, 0.0, 0.0)">
    <path d="M20.15 48.75 L20.05 48.15 Q19.35 44.15 18.4 37.25 17.7 32.0 18.7 27.15 19.65 22.25 22.3 18.15 25.0 14.1 29.25 11.35 33.5 8.6 39.35 7.65 L39.55 7.5 39.0 7.2 38.7 6.85 Q40.85 3.6 43.8 2.25 46.7 0.85 49.8 1.1 52.95 1.35 55.55 3.05 58.2 4.75 59.7 7.7 59.55 8.15 59.0 8.3 58.45 8.45 58.5 8.7 67.0 9.85 71.55 14.05 76.15 18.2 77.8 24.5 L78.65 28.75 78.25 28.95 Q77.05 29.65 76.8 30.55 76.6 31.5 77.15 32.3 77.75 33.05 78.95 33.2 L79.1 33.15 79.15 38.3 Q78.85 45.55 77.8 53.1 L75.9 53.0 Q71.85 53.25 67.8 56.55 L60.45 54.6 61.0 52.85 61.15 52.45 61.55 51.15 Q62.5 48.0 63.0 43.85 63.5 39.75 62.55 35.5 61.75 32.65 60.45 30.8 59.3 28.95 57.7 27.85 54.95 25.95 51.9 26.75 48.85 27.6 46.5 31.75 46.1 32.5 46.0 33.15 L46.0 34.0 Q46.15 34.2 46.45 33.65 L46.7 33.25 Q45.95 35.9 45.65 39.15 45.35 42.8 45.5 46.35 45.65 49.2 46.1 51.55 L36.3 50.85 35.85 50.15 35.35 49.55 34.25 47.6 34.15 44.6 33.65 39.9 Q33.35 36.9 32.55 34.75 L31.75 31.9 Q30.65 28.55 29.3 26.15 28.0 23.7 27.0 23.0 26.6 22.65 26.05 22.65 25.55 22.65 25.0 23.55 24.45 24.5 23.9 26.95 24.75 24.75 25.75 24.75 26.75 24.75 27.8 26.25 28.9 27.8 29.9 30.05 L30.45 31.25 Q29.15 30.1 27.15 29.75 25.95 29.5 24.8 30.55 23.65 31.55 23.05 34.1 22.45 36.65 22.9 40.95 L23.8 45.65 Q23.35 46.15 23.2 46.9 L23.35 47.5 Q21.45 47.95 20.15 48.75 M54.85 16.75 Q56.65 16.0 58.55 16.35 60.45 16.65 61.9 18.3 63.4 19.95 63.9 23.25 64.0 19.35 62.65 17.1 61.3 14.9 59.2 14.35 57.15 13.75 55.1 14.9 53.1 16.05 51.8 18.95 53.0 17.5 54.85 16.75" fill="#488fc1" fill-rule="evenodd" stroke="none"/>
    <path d="M17.25 29.85 Q17.4 28.4 17.7 27.0 18.75 21.9 21.45 17.7 24.1 13.5 28.25 10.7 32.35 7.9 37.75 7.05 39.95 3.15 43.2 1.45 46.45 -0.25 49.9 0.05 53.4 0.35 56.25 2.4 59.1 4.45 60.5 8.0 68.5 9.3 72.8 13.65 77.15 17.95 78.7 24.4 L79.5 28.3 78.65 28.75 77.8 24.5 Q76.15 18.2 71.55 14.05 67.0 9.85 58.5 8.7 58.45 8.45 59.0 8.3 59.55 8.15 59.7 7.7 58.2 4.75 55.55 3.05 52.95 1.35 49.8 1.1 46.7 0.85 43.8 2.25 40.85 3.6 38.7 6.85 L39.0 7.2 39.55 7.5 39.35 7.65 Q33.5 8.6 29.25 11.35 25.0 14.1 22.3 18.15 19.65 22.25 18.7 27.15 17.7 32.0 18.4 37.25 19.35 44.15 20.05 48.15 L20.15 48.75 19.6 49.15 19.25 49.45 19.1 48.75 17.4 37.5 Q17.1 35.15 17.1 32.85 L17.15 31.5 17.25 29.85 M54.85 16.75 Q53.0 17.5 51.8 18.95 53.1 16.05 55.1 14.9 57.15 13.75 59.2 14.35 61.3 14.9 62.65 17.1 64.0 19.35 63.9 23.25 63.4 19.95 61.9 18.3 60.45 16.65 58.55 16.35 56.65 16.0 54.85 16.75 M30.45 31.25 L29.9 30.05 Q28.9 27.8 27.8 26.25 26.75 24.75 25.75 24.75 24.75 24.75 23.9 26.95 24.45 24.5 25.0 23.55 25.55 22.65 26.05 22.65 26.6 22.65 27.0 23.0 28.0 23.7 29.3 26.15 30.65 28.55 31.75 31.9 L32.55 34.75 33.35 38.75 31.85 34.7 30.45 31.25 M77.8 53.1 Q78.85 45.55 79.15 38.3 L79.1 33.15 79.95 32.75 80.0 38.6 Q79.75 45.7 78.75 53.3 L77.8 53.1" fill="#1b2e54" fill-rule="evenodd" stroke="none"/>
    <path d="M32.55 34.75 Q33.35 36.9 33.65 39.9 L34.15 44.6 34.25 47.6 Q33.35 46.2 32.25 45.1 30.35 43.2 28.35 42.4 26.4 41.65 24.75 42.05 26.5 42.35 27.85 43.4 29.2 44.5 30.05 45.85 28.9 44.95 27.4 44.7 25.9 44.45 24.65 45.0 L23.8 45.65 22.9 40.95 Q22.45 36.65 23.05 34.1 23.65 31.55 24.8 30.55 25.95 29.5 27.15 29.75 29.15 30.1 30.45 31.25 L31.85 34.7 33.35 38.75 32.55 34.75" fill="#0b4f7d" fill-rule="evenodd" stroke="none"/>
    <path d="M34.25 47.6 L35.35 49.55 Q34.2 48.45 32.2 47.65 29.6 46.7 25.15 47.15 L23.35 47.5 23.2 46.9 Q23.35 46.15 23.8 45.65 L24.65 45.0 Q25.9 44.45 27.4 44.7 28.9 44.95 30.05 45.85 29.2 44.5 27.85 43.4 26.5 42.35 24.75 42.05 26.4 41.65 28.35 42.4 30.35 43.2 32.25 45.1 33.35 46.2 34.25 47.6 M46.7 33.25 L46.45 33.65 Q46.15 34.2 46.0 34.0 L46.0 33.15 Q46.1 32.5 46.5 31.75 48.85 27.6 51.9 26.75 54.95 25.95 57.7 27.85 59.3 28.95 60.45 30.8 L61.9 33.85 Q59.45 30.45 56.55 29.3 53.7 28.15 51.05 29.25 48.55 30.3 46.7 33.25" fill="#0c1748" fill-rule="evenodd" stroke="none"/>
    <path d="M19.25 49.45 L19.6 49.15 20.15 48.75 Q21.45 47.95 23.35 47.5 L25.15 47.15 Q29.6 46.7 32.2 47.65 34.2 48.45 35.35 49.55 L35.85 50.15 36.3 50.85 36.75 51.8 36.95 52.8 Q36.95 55.15 34.95 56.3 L34.25 56.65 31.9 57.4 28.8 57.9 Q23.8 58.45 20.85 57.8 18.65 57.25 17.6 55.95 L17.25 55.5 17.0 55.0 17.0 54.95 Q16.55 53.9 17.1 52.3 L17.25 51.95 Q17.85 50.65 19.25 49.45 M27.0 48.0 L30.45 48.1 Q32.7 48.35 34.05 49.0 32.4 47.85 30.05 47.5 27.65 47.15 25.25 47.55 L23.65 47.9 Q22.15 48.3 20.9 48.95 L20.3 49.35 19.35 50.15 Q18.7 50.8 18.4 51.55 18.75 50.85 19.4 50.35 19.8 49.95 20.35 49.65 L21.2 49.2 21.95 48.95 21.9 48.95 Q21.3 49.8 21.55 50.4 22.2 51.7 25.45 51.45 L25.8 51.4 27.95 50.9 Q28.7 50.5 28.65 49.75 L28.6 49.4 27.75 48.4 27.0 48.0" fill="#2f094d" fill-rule="evenodd" stroke="none"/>
    <path d="M27.0 48.0 L24.45 47.8 23.7 47.95 Q22.45 48.25 21.95 48.95 L21.2 49.2 20.35 49.65 Q19.8 49.95 19.4 50.35 18.75 50.85 18.4 51.55 18.7 50.8 19.35 50.15 L20.3 49.35 20.9 48.95 Q22.15 48.3 23.65 47.9 L25.25 47.55 Q27.65 47.15 30.05 47.5 32.4 47.85 34.05 49.0 32.7 48.35 30.45 48.1 L27.0 48.0" fill="#8c409c" fill-rule="evenodd" stroke="none"/>
    <path d="M23.8 48.0 L24.45 47.9 Q26.4 47.75 27.15 48.35 27.85 48.85 27.95 49.3 L27.95 49.45 Q28.0 50.65 25.55 50.75 L25.25 50.8 Q22.55 51.0 22.05 49.95 21.85 49.5 22.35 48.8 22.75 48.25 23.8 48.0" fill="#f3d6ea" fill-rule="evenodd" stroke="none"/>
    <path d="M23.8 48.0 Q22.75 48.25 22.35 48.8 21.85 49.5 22.05 49.95 22.55 51.0 25.25 50.8 L25.55 50.75 Q28.0 50.65 27.95 49.45 L27.95 49.3 Q27.85 48.85 27.15 48.35 26.4 47.75 24.45 47.9 L23.8 48.0 M21.95 48.95 Q22.45 48.25 23.7 47.95 L24.45 47.8 27.0 48.0 27.75 48.4 28.6 49.4 28.65 49.75 Q28.7 50.5 27.95 50.9 L25.8 51.4 25.45 51.45 Q22.2 51.7 21.55 50.4 21.3 49.8 21.9 48.95 L21.95 48.95" fill="#c575b8" fill-rule="evenodd" stroke="none"/>
    <path d="M17.25 29.85 L17.15 31.5 14.65 31.05 Q12.9 30.85 12.05 31.7 11.2 32.5 11.65 34.75 13.2 42.5 12.85 49.95 12.45 57.45 10.45 63.65 8.5 69.85 5.15 73.8 4.45 74.6 3.85 74.65 3.25 74.75 2.95 74.4 2.6 74.05 2.7 73.6 -0.35 79.55 2.0 82.95 L1.65 82.65 1.55 82.55 Q-0.05 80.8 0.0 78.3 0.05 75.85 1.1 73.35 2.15 70.85 3.65 69.05 5.45 66.9 6.85 63.6 8.2 60.35 9.1 56.5 10.05 52.7 10.5 48.9 11.0 45.15 11.0 42.0 10.95 38.85 10.45 36.9 9.2 32.2 11.1 30.6 13.0 29.0 17.25 29.85 M83.7 26.8 L83.85 26.7 Q87.45 25.9 89.75 27.25 L90.95 28.3 Q92.15 29.8 92.4 32.65 92.1 32.75 91.7 32.15 L90.95 31.15 Q90.6 30.7 90.3 31.25 89.2 33.8 88.45 38.2 87.65 42.55 87.2 47.7 L86.65 57.85 86.6 66.55 Q86.75 70.35 87.1 71.9 87.55 73.6 88.9 74.95 90.2 76.3 91.6 76.65 93.0 76.95 93.65 75.6 94.3 74.2 93.4 70.35 L95.5 77.45 97.3 83.5 Q98.05 86.2 97.95 88.15 96.85 89.1 94.9 89.25 93.0 89.4 90.85 88.4 88.7 87.4 86.85 84.85 84.6 81.65 83.5 77.35 82.45 73.5 82.4 68.4 L82.4 67.2 82.45 66.35 Q82.5 62.45 83.1 57.7 L83.25 56.2 83.6 53.6 85.05 44.1 85.9 37.9 86.0 36.7 Q86.35 34.25 86.15 32.9 L86.15 32.6 Q86.05 30.9 85.45 30.1 84.85 29.25 83.55 29.5 L81.15 29.45 Q80.75 29.0 81.5 28.2 82.2 27.4 83.7 26.8 M79.95 71.35 L77.5 73.6 73.9 75.65 Q73.25 78.2 72.1 79.8 70.5 82.0 68.2 82.9 65.95 83.75 63.4 83.75 L58.35 83.5 53.6 82.6 48.2 81.35 45.45 80.85 36.05 80.25 Q29.5 79.4 23.8 76.95 19.0 74.85 15.4 71.3 L14.15 69.95 Q12.25 67.7 12.0 65.05 11.75 62.45 12.9 59.95 14.05 57.45 16.25 55.55 L17.0 54.95 17.0 55.0 17.25 55.5 17.6 55.95 17.25 56.25 15.9 57.55 15.6 57.95 Q15.25 57.95 15.0 58.45 L14.9 58.95 Q13.9 60.45 13.5 62.2 L13.4 62.45 13.4 62.65 13.25 63.65 Q13.0 67.0 15.5 69.95 L15.7 70.15 Q19.25 73.9 24.45 76.05 29.8 78.25 36.15 79.05 L43.3 79.65 43.5 79.65 47.55 80.1 52.6 81.3 57.85 82.3 62.45 82.75 67.3 82.15 Q69.65 81.45 71.35 79.05 72.55 77.3 73.1 74.3 L73.2 74.25 Q73.5 72.9 73.9 72.75 74.3 72.6 74.25 73.55 L74.1 74.55 Q76.05 73.6 77.2 72.65 L80.15 69.6 80.05 70.4 79.95 71.35 M36.3 50.85 L46.1 51.55 46.6 51.6 53.55 52.9 57.85 53.9 60.45 54.6 67.8 56.55 Q71.85 53.25 75.9 53.0 L77.8 53.1 78.75 53.3 Q80.95 53.85 82.75 55.65 L82.55 56.85 81.95 56.15 Q80.45 54.65 78.6 54.2 L77.65 54.0 Q75.25 53.75 72.75 54.7 70.2 55.6 68.05 57.2 L60.25 55.15 58.25 54.65 47.05 52.45 46.25 52.35 36.75 51.8 36.3 50.85" fill="#2a1b2c" fill-rule="evenodd" stroke="none"/>
    <path d="M17.15 31.5 L17.1 32.85 Q15.45 32.45 15.1 33.35 14.65 34.5 15.75 38.3 16.4 40.85 16.85 44.75 L17.25 51.95 17.1 52.3 Q16.55 53.9 17.0 54.95 L16.25 55.55 Q14.05 57.45 12.9 59.95 11.75 62.45 12.0 65.05 12.25 67.7 14.15 69.95 L15.4 71.3 Q14.4 75.15 12.8 77.75 9.8 82.4 6.95 83.75 4.1 85.0 1.65 82.65 L2.0 82.95 Q-0.35 79.55 2.7 73.6 2.6 74.05 2.95 74.4 3.25 74.75 3.85 74.65 4.45 74.6 5.15 73.8 8.5 69.85 10.45 63.65 12.45 57.45 12.85 49.95 13.2 42.5 11.65 34.75 11.2 32.5 12.05 31.7 12.9 30.85 14.65 31.05 L17.15 31.5 M78.65 28.75 L79.5 28.3 Q81.7 27.25 83.7 26.8 82.2 27.4 81.5 28.2 80.75 29.0 81.15 29.45 L83.55 29.5 Q84.85 29.25 85.45 30.1 86.05 30.9 86.15 32.6 85.95 31.85 85.5 31.6 L83.15 31.55 Q81.95 31.8 80.8 32.35 L79.95 32.75 79.1 33.15 78.95 33.2 Q77.75 33.05 77.15 32.3 76.6 31.5 76.8 30.55 77.05 29.65 78.25 28.95 L78.65 28.75 M90.95 28.3 Q92.7 30.3 92.45 34.8 L91.65 44.7 Q91.25 49.95 91.35 55.75 91.5 61.55 92.85 67.9 93.95 72.65 95.3 76.75 L97.5 84.1 Q98.35 87.3 97.8 89.25 97.25 91.25 94.55 91.7 92.15 92.15 89.25 91.05 86.3 90.0 83.8 86.75 81.3 83.45 80.1 77.3 79.6 74.5 79.95 71.35 L80.05 70.4 80.15 69.6 81.45 62.45 82.55 56.85 82.75 55.65 83.2 53.1 84.95 43.15 85.9 37.9 85.05 44.1 83.6 53.6 83.25 56.2 83.1 57.7 Q82.5 62.45 82.45 66.35 L82.4 67.2 82.4 68.4 Q82.45 73.5 83.5 77.35 84.6 81.65 86.85 84.85 88.7 87.4 90.85 88.4 93.0 89.4 94.9 89.25 96.85 89.1 97.95 88.15 98.05 86.2 97.3 83.5 L95.5 77.45 93.4 70.35 Q94.3 74.2 93.65 75.6 93.0 76.95 91.6 76.65 90.2 76.3 88.9 74.95 87.55 73.6 87.1 71.9 86.75 70.35 86.6 66.55 L86.65 57.85 87.2 47.7 Q87.65 42.55 88.45 38.2 89.2 33.8 90.3 31.25 90.6 30.7 90.95 31.15 L91.7 32.15 Q92.1 32.75 92.4 32.65 92.15 29.8 90.95 28.3 M61.15 52.45 L61.0 52.85 60.45 54.6 57.85 53.9 53.55 52.9 53.25 51.45 Q53.0 49.95 53.05 47.4 L58.2 46.4 53.25 45.05 53.55 43.2 Q54.1 40.3 55.5 38.85 56.85 37.45 58.45 37.4 60.05 37.35 61.35 38.5 62.6 39.7 62.9 41.95 L63.0 43.5 Q62.65 47.1 61.85 50.05 L61.15 52.45 M67.95 59.35 L70.75 59.2 Q71.35 59.4 71.2 59.7 L70.55 59.85 69.95 59.75 70.9 63.65 71.2 66.4 71.15 69.15 Q71.2 70.8 70.65 73.15 70.1 75.5 68.8 77.55 67.5 79.6 65.15 80.25 62.75 80.8 59.25 80.3 L52.15 78.95 45.65 77.45 38.35 76.15 Q35.4 75.75 33.15 76.65 L32.1 76.85 Q31.65 76.85 32.2 76.4 34.2 75.1 38.0 74.8 L47.3 74.5 Q54.6 74.5 60.05 73.0 65.5 71.5 68.05 68.3 70.6 65.1 69.25 60.0 L69.25 59.75 68.3 59.9 Q67.95 60.0 67.7 59.75 67.5 59.5 67.95 59.35 M66.0 71.5 L65.95 71.45 65.45 71.75 65.5 71.8 Q62.65 73.4 58.95 74.15 L58.85 74.2 58.8 74.15 58.15 74.3 51.4 75.15 51.35 75.1 50.7 75.15 50.75 75.2 50.45 75.2 42.5 75.3 Q41.75 75.3 41.7 75.65 41.65 75.95 42.8 76.15 L45.75 76.8 51.1 78.05 57.35 79.3 62.8 79.9 Q65.85 79.9 67.6 77.9 69.4 75.9 70.05 72.7 70.7 69.5 70.35 65.95 69.3 69.4 66.2 71.35 L66.0 71.5" fill="#111111" fill-rule="evenodd" stroke="none"/>
    <path d="M17.6 55.95 Q18.65 57.25 20.85 57.8 23.8 58.45 28.8 57.9 L31.9 57.4 34.25 56.65 34.95 56.3 Q36.95 55.15 36.95 52.8 L36.75 51.8 46.25 52.35 47.05 52.45 58.25 54.65 60.25 55.15 68.05 57.2 Q70.2 55.6 72.75 54.7 75.25 53.75 77.65 54.0 L78.6 54.2 Q80.45 54.65 81.95 56.15 L82.55 56.85 81.45 62.45 80.15 69.6 77.2 72.65 Q76.05 73.6 74.1 74.55 L74.25 73.55 Q74.3 72.6 73.9 72.75 73.5 72.9 73.2 74.25 L73.1 74.3 Q72.55 77.3 71.35 79.05 69.65 81.45 67.3 82.15 L62.45 82.75 57.85 82.3 52.6 81.3 47.55 80.1 43.5 79.65 43.3 79.65 36.15 79.05 Q29.8 78.25 24.45 76.05 19.25 73.9 15.7 70.15 L15.5 69.95 Q13.0 67.0 13.25 63.65 L13.4 62.65 Q13.4 63.15 13.75 63.3 14.15 63.4 14.3 62.7 14.35 62.0 14.0 61.8 13.7 61.75 13.5 62.2 13.9 60.45 14.9 58.95 L15.05 59.4 15.8 58.95 Q16.05 58.3 15.75 58.0 L15.6 57.95 15.9 57.55 17.25 56.25 17.6 55.95 M57.85 60.45 Q57.1 60.4 56.85 61.1 56.8 61.85 57.5 62.1 58.25 62.15 58.45 61.45 58.55 60.7 57.85 60.45 M59.8 56.05 L59.6 56.0 Q58.9 55.95 58.7 56.6 58.65 57.35 59.35 57.5 60.0 57.6 60.25 56.9 60.3 56.3 59.8 56.05 M52.45 57.75 L52.5 57.6 Q52.6 56.9 51.9 56.7 51.2 56.65 51.0 57.35 L51.05 57.7 Q51.15 58.1 51.6 58.2 52.25 58.3 52.45 57.75 M44.75 60.15 Q43.95 60.1 43.7 60.85 43.65 61.65 44.4 61.85 45.2 61.95 45.4 61.2 45.5 60.4 44.75 60.15 M43.15 54.0 Q43.1 54.75 43.75 54.9 44.5 55.0 44.65 54.3 44.75 53.6 44.05 53.4 43.35 53.35 43.15 54.0 M67.95 59.35 Q67.5 59.5 67.7 59.75 67.95 60.0 68.3 59.9 L69.25 59.75 69.25 60.0 Q70.6 65.1 68.05 68.3 65.5 71.5 60.05 73.0 54.6 74.5 47.3 74.5 L38.0 74.8 Q34.2 75.1 32.2 76.4 31.65 76.85 32.1 76.85 L33.15 76.65 Q35.4 75.75 38.35 76.15 L45.65 77.45 52.15 78.95 59.25 80.3 Q62.75 80.8 65.15 80.25 67.5 79.6 68.8 77.55 70.1 75.5 70.65 73.15 71.2 70.8 71.15 69.15 L71.2 66.4 70.9 63.65 69.95 59.75 70.55 59.85 71.2 59.7 Q71.35 59.4 70.75 59.2 L67.95 59.35" fill="#fee36a" fill-rule="evenodd" stroke="none"/>
    <path d="M15.6 57.95 L15.75 58.0 Q16.05 58.3 15.8 58.95 L15.05 59.4 14.9 58.95 15.0 58.45 Q15.25 57.95 15.6 57.95 M13.5 62.2 Q13.7 61.75 14.0 61.8 14.35 62.0 14.3 62.7 14.15 63.4 13.75 63.3 13.4 63.15 13.4 62.65 L13.4 62.45 13.5 62.2 M52.45 57.75 Q52.25 58.3 51.6 58.2 51.15 58.1 51.05 57.7 L51.0 57.35 Q51.2 56.65 51.9 56.7 52.6 56.9 52.5 57.6 L52.45 57.75 M59.8 56.05 Q60.3 56.3 60.25 56.9 60.0 57.6 59.35 57.5 58.65 57.35 58.7 56.6 58.9 55.95 59.6 56.0 L59.8 56.05 M57.85 60.45 Q58.55 60.7 58.45 61.45 58.25 62.15 57.5 62.1 56.8 61.85 56.85 61.1 57.1 60.4 57.85 60.45 M43.15 54.0 Q43.35 53.35 44.05 53.4 44.75 53.6 44.65 54.3 44.5 55.0 43.75 54.9 43.1 54.75 43.15 54.0 M44.75 60.15 Q45.5 60.4 45.4 61.2 45.2 61.95 44.4 61.85 43.65 61.65 43.7 60.85 43.95 60.1 44.75 60.15" fill="#996400" fill-rule="evenodd" stroke="none"/>
    <path d="M46.1 51.55 Q45.65 49.2 45.5 46.35 45.35 42.8 45.65 39.15 45.95 35.9 46.7 33.25 48.55 30.3 51.05 29.25 53.7 28.15 56.55 29.3 59.45 30.45 61.9 33.85 L60.45 30.8 Q61.75 32.65 62.55 35.5 63.5 39.75 63.0 43.85 62.5 48.0 61.55 51.15 L61.15 52.45 61.85 50.05 Q62.65 47.1 63.0 43.5 L62.9 41.95 Q62.6 39.7 61.35 38.5 60.05 37.35 58.45 37.4 56.85 37.45 55.5 38.85 54.1 40.3 53.55 43.2 L53.25 45.05 58.2 46.4 53.05 47.4 Q53.0 49.95 53.25 51.45 L53.55 52.9 46.6 51.6 46.1 51.55 M65.5 71.8 L67.0 74.1 68.6 76.5 68.9 75.9 66.0 71.5 66.2 71.35 Q69.3 69.4 70.35 65.95 70.7 69.5 70.05 72.7 69.4 75.9 67.6 77.9 65.85 79.9 62.8 79.9 L57.35 79.3 51.1 78.05 45.75 76.8 42.8 76.15 Q41.65 75.95 41.7 75.65 41.75 75.3 42.5 75.3 L50.45 75.2 50.75 75.2 52.35 78.3 53.1 78.45 52.3 76.95 51.4 75.15 58.15 74.3 60.15 77.1 62.05 79.85 62.8 79.85 60.75 76.95 58.85 74.2 58.95 74.15 Q62.65 73.4 65.5 71.8" fill="#ffffff" fill-rule="evenodd" stroke="none"/>
    <path d="M65.5 71.8 L65.45 71.75 65.95 71.45 66.0 71.5 68.9 75.9 68.6 76.5 67.0 74.1 65.5 71.8 M58.15 74.3 L58.8 74.15 58.85 74.2 60.75 76.95 62.8 79.85 62.05 79.85 60.15 77.1 58.15 74.3" fill="#476db1" fill-rule="evenodd" stroke="none"/>
    <path d="M50.75 75.2 L50.7 75.15 51.35 75.1 51.4 75.15 52.3 76.95 53.1 78.45 52.35 78.3 50.75 75.2" fill="#2c3d79" fill-rule="evenodd" stroke="none"/>
  </g>
</svg>
