<?xml version="1.0" encoding="UTF-8" standalone="no"?>
<svg xmlns:xlink="http://www.w3.org/1999/xlink" height="90.8px" width="66.45px" xmlns="http://www.w3.org/2000/svg">
  <g transform="matrix(1.0, 0.0, 0.0, 1.0, 0.0, 0.0)">
    <path d="M17.85 41.5 L18.25 40.6 Q19.7 37.9 22.15 36.25 26.45 33.4 31.75 32.05 L31.35 28.7 Q31.1 26.35 31.1 23.15 31.05 19.9 31.5 16.35 31.95 12.8 33.05 9.55 34.2 6.25 36.25 3.8 38.6 1.05 41.9 0.3 45.2 -0.5 48.7 0.85 52.25 2.3 54.35 5.35 56.4 8.35 56.45 12.1 L56.45 12.6 Q56.25 16.2 55.2 19.15 L52.85 24.85 51.35 28.4 Q50.65 30.15 50.25 31.95 54.95 33.05 58.65 35.05 62.35 37.1 64.35 39.65 65.35 40.9 65.9 42.65 66.45 44.4 66.45 46.35 66.45 48.5 65.75 50.55 65.1 52.65 63.85 54.5 L63.85 54.7 63.9 57.0 Q63.9 76.0 56.55 85.45 54.45 88.1 51.1 89.35 47.8 90.6 43.85 90.75 L35.95 90.2 Q32.0 89.5 28.6 88.2 25.15 86.9 22.9 85.3 21.0 83.9 19.9 81.8 18.85 79.75 18.8 77.55 L17.65 76.55 16.25 73.65 14.3 69.0 12.3 64.0 12.1 63.5 10.75 60.0 10.15 58.35 10.9 57.0 11.85 59.6 13.5 63.95 15.4 68.8 17.15 73.1 18.35 75.65 18.85 76.2 19.0 75.25 Q19.25 74.25 19.75 73.4 L20.55 72.3 Q21.65 71.1 23.2 70.65 21.6 69.9 20.55 68.5 19.5 67.05 19.2 65.15 L19.1 63.7 Q19.1 61.45 20.1 59.45 L20.15 59.4 19.55 58.0 18.65 56.0 18.35 55.35 17.1 52.7 17.5 52.55 18.5 52.25 18.0 51.4 Q17.15 49.8 16.9 47.9 L16.9 47.85 16.8 46.45 16.9 45.05 Q17.05 43.75 17.45 42.6 L17.85 41.5 M50.25 27.25 L50.9 25.7 53.5 19.55 Q54.75 16.35 55.0 12.55 55.1 8.95 53.25 6.3 51.45 3.7 48.6 2.4 45.75 1.1 42.75 1.6 39.7 2.1 37.3 4.75 35.0 7.5 33.95 11.5 32.85 15.45 32.6 19.65 L32.6 20.15 32.55 20.95 32.5 23.95 32.55 25.95 32.6 27.1 32.85 29.55 33.05 31.0 33.2 31.9 38.05 31.1 Q40.9 30.95 43.8 31.1 L48.8 31.7 50.25 27.25 M64.6 49.55 L64.7 49.1 Q65.25 46.5 64.8 44.25 64.4 42.0 63.25 40.5 60.9 37.55 56.35 35.45 51.85 33.3 46.1 32.55 L34.35 32.9 Q28.35 33.95 22.95 37.4 20.7 38.95 19.45 41.4 18.25 43.85 18.25 46.55 18.25 48.9 19.4 50.95 L19.35 50.9 Q20.8 53.65 24.35 54.95 25.45 54.15 28.2 53.45 L34.4 52.3 41.1 51.85 46.35 52.45 47.25 53.1 47.3 53.1 47.3 53.25 Q47.25 53.75 46.2 53.65 L41.0 53.45 34.6 53.85 Q31.25 54.25 28.4 55.05 25.5 55.85 23.75 57.15 21.5 59.0 20.85 61.55 20.2 64.1 21.05 66.35 L21.35 67.0 21.3 66.95 Q21.75 67.85 22.5 68.5 L24.15 69.5 28.75 69.95 34.55 70.35 40.0 70.8 43.7 71.35 45.55 72.1 45.7 72.35 45.25 72.65 43.5 72.6 39.8 72.3 33.9 72.05 27.95 71.85 24.15 71.75 Q22.3 72.1 21.3 73.55 20.35 74.95 20.25 76.9 20.2 78.25 20.6 79.6 L20.55 79.5 Q20.8 80.5 21.35 81.45 L21.7 82.0 Q22.5 83.2 23.75 84.1 25.75 85.55 28.95 86.75 L34.95 88.5 35.85 88.7 43.35 89.35 Q47.1 89.25 50.25 88.15 L51.6 87.6 52.8 86.9 54.2 85.85 55.45 84.55 Q56.95 82.6 58.05 80.4 L59.9 75.8 60.05 75.4 61.65 68.65 61.95 66.35 62.15 64.2 62.45 58.7 62.45 58.45 62.45 55.7 62.45 54.1 63.95 51.45 64.6 49.55 M22.85 56.05 L23.1 55.9 Q20.45 54.8 18.85 52.7 L18.75 52.55 19.3 53.9 21.05 57.95 22.85 56.05" fill="#000000" fill-rule="evenodd" stroke="none"/>
    <path d="M32.6 20.15 L32.6 19.65 Q32.85 15.45 33.95 11.5 35.0 7.5 37.3 4.75 39.7 2.1 42.75 1.6 45.75 1.1 48.6 2.4 51.45 3.7 53.25 6.3 55.1 8.95 55.0 12.55 54.75 16.35 53.5 19.55 L50.9 25.7 50.25 27.25 50.5 26.55 Q47.7 29.95 44.6 30.5 41.5 31.05 38.75 29.45 36.05 27.9 34.4 24.9 32.7 21.9 32.75 18.2 L32.6 20.15 M32.85 29.55 L32.6 27.1 32.55 25.95 32.75 28.75 32.85 29.55 M19.4 50.95 Q18.25 48.9 18.25 46.55 18.25 43.85 19.45 41.4 20.7 38.95 22.95 37.4 28.35 33.95 34.35 32.9 L46.1 32.55 Q51.85 33.3 56.35 35.45 60.9 37.55 63.25 40.5 64.4 42.0 64.8 44.25 65.25 46.5 64.7 49.1 L64.6 49.55 64.95 46.9 Q64.4 49.15 63.25 50.25 62.15 51.4 60.55 51.8 L57.05 52.25 Q57.9 53.0 58.5 55.8 59.1 58.6 59.2 62.6 59.3 66.55 58.65 70.85 57.95 75.1 56.2 78.8 54.4 82.5 51.3 84.75 48.5 86.6 44.9 87.1 41.25 87.65 37.45 87.15 33.6 86.6 30.1 85.4 26.65 84.2 24.1 82.65 21.65 81.15 20.6 79.6 20.2 78.25 20.25 76.9 20.35 74.95 21.3 73.55 22.3 72.1 24.15 71.75 L27.95 71.85 33.9 72.05 39.8 72.3 43.5 72.6 45.25 72.65 44.1 72.7 47.6 73.4 49.35 73.95 Q49.8 74.05 49.8 73.8 L49.65 72.8 Q49.45 71.7 47.65 70.75 45.9 69.8 43.05 69.3 L39.65 69.1 34.5 68.95 28.85 68.7 24.0 68.15 Q22.0 67.7 21.35 67.0 L21.05 66.35 Q20.2 64.1 20.85 61.55 21.5 59.0 23.75 57.15 25.5 55.85 28.4 55.05 31.25 54.25 34.6 53.85 L41.0 53.45 46.2 53.65 Q47.25 53.75 47.3 53.25 L47.3 53.1 Q49.2 53.1 49.5 52.5 49.75 51.85 48.4 51.25 46.3 50.35 43.35 50.0 L37.2 49.65 31.35 50.0 27.05 50.8 22.65 51.5 Q20.65 51.55 19.4 50.95 M63.95 51.45 L62.45 54.1 62.45 55.7 62.4 54.1 63.95 51.45 M62.15 64.2 L61.95 66.35 61.65 68.65 61.9 66.4 62.15 64.2 M58.05 80.4 Q56.95 82.6 55.45 84.55 L54.2 85.85 55.4 84.55 Q56.9 82.55 58.05 80.4" fill="#ffffff" fill-rule="evenodd" stroke="none"/>
    <path d="M50.25 27.25 L48.8 31.7 43.8 31.1 Q40.9 30.95 38.05 31.1 L33.2 31.9 33.05 31.0 32.85 29.55 32.75 28.75 32.55 25.95 32.5 23.95 32.55 20.95 32.6 20.15 32.75 18.2 Q32.7 21.9 34.4 24.9 36.05 27.9 38.75 29.45 41.5 31.05 44.6 30.5 47.7 29.95 50.5 26.55 L50.25 27.25 M19.4 50.95 Q20.65 51.55 22.65 51.5 L27.05 50.8 31.35 50.0 37.2 49.65 43.35 50.0 Q46.3 50.35 48.4 51.25 49.75 51.85 49.5 52.5 49.2 53.1 47.3 53.1 L47.25 53.1 46.35 52.45 41.1 51.85 34.4 52.3 28.2 53.45 Q25.45 54.15 24.35 54.95 20.8 53.65 19.35 50.9 L19.4 50.95 M21.35 67.0 Q22.0 67.7 24.0 68.15 L28.85 68.7 34.5 68.95 39.65 69.1 43.05 69.3 Q45.9 69.8 47.65 70.75 49.45 71.7 49.65 72.8 L49.8 73.8 Q49.8 74.05 49.35 73.95 L47.6 73.4 44.1 72.7 45.25 72.65 45.7 72.35 45.55 72.1 43.7 71.35 40.0 70.8 34.55 70.35 28.75 69.95 24.15 69.5 22.5 68.5 Q21.75 67.85 21.3 66.95 L21.35 67.0 M20.6 79.6 Q21.65 81.15 24.1 82.65 26.65 84.2 30.1 85.4 33.6 86.6 37.45 87.15 41.25 87.65 44.9 87.1 48.5 86.6 51.3 84.75 54.4 82.5 56.2 78.8 57.95 75.1 58.65 70.85 59.3 66.55 59.2 62.6 59.1 58.6 58.5 55.8 57.9 53.0 57.05 52.25 L60.55 51.8 Q62.15 51.4 63.25 50.25 64.4 49.15 64.95 46.9 L64.6 49.55 63.95 51.45 62.4 54.1 62.45 55.7 62.45 58.45 62.45 58.7 62.15 64.2 61.9 66.4 61.65 68.65 60.05 75.4 59.9 75.8 58.05 80.4 Q56.9 82.55 55.4 84.55 L54.2 85.85 52.8 86.9 51.6 87.6 50.25 88.15 Q47.1 89.25 43.35 89.35 L35.85 88.7 34.95 88.5 28.95 86.75 Q25.75 85.55 23.75 84.1 22.5 83.2 21.7 82.0 L21.35 81.45 Q20.8 80.5 20.55 79.5 L20.6 79.6" fill="#c2d6d4" fill-rule="evenodd" stroke="none"/>
    <path d="M17.85 41.5 L17.45 42.6 16.25 40.95 12.15 34.85 Q10.5 32.35 8.75 31.6 6.95 30.85 5.35 31.25 3.75 31.6 2.65 32.65 1.6 33.7 1.3 34.8 L1.3 34.9 0.7 35.55 Q0.5 35.6 0.8 34.4 1.35 32.35 2.85 31.35 4.3 30.3 6.15 30.3 8.0 30.3 9.8 31.2 11.6 32.15 12.8 34.0 L15.35 38.05 17.85 41.5 M18.0 51.4 L18.5 52.25 17.5 52.55 17.1 52.7 16.7 52.9 Q16.1 53.1 15.45 53.45 L15.0 53.65 13.95 54.25 13.45 54.6 13.2 54.75 12.7 55.15 12.35 55.45 12.15 55.6 10.9 57.0 10.15 58.35 10.75 60.0 12.1 63.5 Q9.8 63.45 7.45 62.45 6.3 61.85 5.3 59.6 4.25 57.3 3.35 54.05 L1.65 47.45 0.1 41.25 Q-0.15 40.1 0.2 40.0 L0.55 40.4 0.6 40.8 1.4 43.95 2.9 49.15 4.45 54.45 5.6 58.0 Q6.2 60.0 7.2 61.3 8.2 62.65 10.25 62.6 8.6 61.8 8.25 60.35 7.85 58.95 9.05 57.25 10.45 55.3 12.4 54.0 14.3 52.7 16.1 52.0 17.15 51.55 18.0 51.4 M22.85 56.05 L21.05 57.95 19.3 53.9 18.75 52.55 18.85 52.7 Q20.45 54.8 23.1 55.9 L22.85 56.05" fill="#411c14" fill-rule="evenodd" stroke="none"/>
    <path d="M17.45 42.6 Q17.05 43.75 16.9 45.05 L13.9 45.85 Q10.9 46.8 8.3 48.7 5.65 50.6 4.2 53.5 L5.3 57.0 Q5.85 55.3 7.75 53.35 9.65 51.45 12.25 49.9 14.6 48.55 16.9 47.9 17.15 49.8 18.0 51.4 17.15 51.55 16.1 52.0 14.3 52.7 12.4 54.0 10.45 55.3 9.05 57.25 7.85 58.95 8.25 60.35 8.6 61.8 10.25 62.6 8.2 62.65 7.2 61.3 6.2 60.0 5.6 58.0 L4.45 54.45 2.9 49.15 1.4 43.95 0.6 40.8 0.55 40.4 0.6 39.05 0.9 36.8 1.3 34.9 1.3 34.8 Q1.6 33.7 2.65 32.65 3.75 31.6 5.35 31.25 6.95 30.85 8.75 31.6 10.5 32.35 12.15 34.85 L16.25 40.95 17.45 42.6" fill="#ffbd20" fill-rule="evenodd" stroke="none"/>
    <path d="M16.9 45.05 L16.8 46.45 16.9 47.85 16.9 47.9 Q14.6 48.55 12.25 49.9 9.65 51.45 7.75 53.35 5.85 55.3 5.3 57.0 L4.2 53.5 Q5.65 50.6 8.3 48.7 10.9 46.8 13.9 45.85 L16.9 45.05" fill="#e31e00" fill-rule="evenodd" stroke="none"/>
    <path d="M19.55 58.0 L20.15 59.4 20.1 59.45 Q19.1 61.45 19.1 63.7 L19.2 65.15 Q19.5 67.05 20.55 68.5 21.6 69.9 23.2 70.65 21.65 71.1 20.55 72.3 L19.75 73.4 Q18.85 72.5 18.4 71.3 L17.05 67.25 15.9 62.75 Q15.45 60.6 15.5 59.6 15.65 58.4 16.35 57.3 17.05 56.15 18.35 55.35 L19.55 58.0" fill="#6fb9d7" fill-rule="evenodd" stroke="none"/>
    <path d="M17.1 52.7 L18.35 55.35 18.65 56.0 19.55 58.0 18.35 55.35 Q17.05 56.15 16.35 57.3 15.65 58.4 15.5 59.6 15.45 60.6 15.9 62.75 L17.05 67.25 18.4 71.3 Q18.85 72.5 19.75 73.4 19.25 74.25 19.0 75.25 L18.85 76.2 18.35 75.65 17.15 73.1 15.4 68.8 13.5 63.95 11.85 59.6 10.9 57.0 12.35 55.45 12.7 55.15 13.2 54.75 13.45 54.6 13.95 54.25 15.0 53.65 15.45 53.45 Q16.1 53.1 16.7 52.9 L17.1 52.7" fill="#3d7db8" fill-rule="evenodd" stroke="none"/>
    <path d="M12.35 55.45 L10.9 57.0 12.15 55.6 12.35 55.45" fill="#1d3f60" fill-rule="evenodd" stroke="none"/>
  </g>
</svg>
