<?xml version="1.0" encoding="UTF-8" standalone="no"?>
<svg xmlns:xlink="http://www.w3.org/1999/xlink" height="69.75px" width="277.55px" xmlns="http://www.w3.org/2000/svg">
  <g transform="matrix(1.0, 0.0, 0.0, 1.0, 3.45, -4.95)">
    <path d="M271.2 6.3 L271.75 7.05 Q272.5 8.15 272.5 9.45 L272.5 45.45 Q272.55 47.45 271.2 48.65 L270.5 49.15 Q268.8 50.2 266.65 49.95 269.25 51.45 271.25 53.8 274.0 57.1 274.1 61.45 274.15 64.3 272.6 66.7 267.2 75.25 257.15 74.55 250.4 74.0 246.1 68.8 242.95 65.0 243.65 60.05 244.6 53.25 250.8 49.95 248.8 50.2 247.1 49.15 L246.4 48.6 Q245.1 47.25 245.0 45.45 L245.0 9.45 Q245.15 8.6 245.45 7.8 246.35 5.6 248.65 5.05 L268.0 4.95 Q269.9 4.95 271.2 6.3 M269.35 59.45 Q269.35 55.7 266.2 53.15 263.1 50.55 258.55 50.6 254.15 50.6 250.95 53.15 247.85 55.7 247.85 59.35 247.85 62.85 250.95 65.55 254.25 68.05 258.55 68.1 262.85 68.05 266.1 65.55 269.3 63.0 269.35 59.45 M249.45 43.45 L267.95 43.45 267.95 7.45 249.45 7.45 249.45 43.45 M236.2 17.75 Q240.3 22.65 241.25 29.0 242.4 36.35 238.5 42.5 236.15 46.25 232.25 48.2 L244.0 67.8 Q245.7 71.45 242.35 73.8 L241.05 74.4 217.25 73.1 Q216.75 73.15 216.45 72.75 214.35 70.3 213.25 67.45 213.3 70.65 211.9 73.1 211.35 74.15 210.4 74.3 199.7 74.8 188.95 74.35 L186.9 73.6 Q174.55 75.3 162.2 73.7 161.6 73.65 161.15 73.15 160.0 71.7 159.7 70.0 L159.25 67.35 153.7 67.35 Q153.35 70.55 151.65 73.15 150.9 74.25 149.45 74.7 L132.3 74.55 124.9 74.6 89.35 74.6 Q87.8 74.75 86.6 73.65 85.75 74.2 84.8 74.35 L83.65 74.6 50.15 74.6 Q46.0 74.3 45.65 70.05 42.25 73.5 37.35 74.05 26.6 75.9 16.5 72.05 5.45 67.9 0.25 57.5 -4.25 48.45 -3.3 38.5 -1.9 23.3 10.4 14.65 16.2 10.65 23.0 9.15 32.4 7.15 42.1 9.35 44.4 9.8 45.8 11.95 46.6 9.15 49.35 8.7 L56.9 8.25 Q64.4 7.45 71.75 9.35 72.8 9.55 73.35 10.55 73.95 11.55 73.8 12.7 L73.8 51.85 84.85 52.05 84.85 12.7 Q85.25 8.65 89.35 8.2 L124.9 8.2 Q128.45 8.45 128.8 11.9 L129.25 19.2 129.25 27.1 Q129.15 28.75 128.15 29.8 127.15 30.75 125.75 30.9 127.15 32.05 127.35 33.75 128.3 42.4 126.65 50.7 L125.9 51.95 Q127.9 52.45 128.8 54.1 L141.45 11.45 Q142.05 10.05 144.25 8.7 L151.15 8.3 170.65 8.6 Q172.0 9.0 172.75 10.25 L173.5 11.55 185.2 56.35 185.2 12.7 Q185.45 10.05 187.9 8.9 188.75 8.55 189.7 8.3 204.5 7.6 219.2 9.45 L223.2 9.9 Q231.0 11.6 236.2 17.75 M216.15 33.55 Q213.25 37.1 208.8 36.4 L208.8 22.7 Q213.35 22.2 216.4 25.5 219.3 29.65 216.15 33.55 M208.55 44.2 L209.4 46.25 209.9 47.65 219.35 68.1 240.05 68.1 225.8 44.2 Q236.8 40.25 236.8 29.85 236.8 20.1 228.6 14.85 222.2 10.7 209.25 10.7 L189.65 10.7 189.65 68.1 208.7 68.1 208.55 44.2 M162.9 60.85 L164.3 68.1 184.1 68.1 169.1 10.7 145.7 10.7 128.65 68.1 148.45 68.1 150.0 60.85 162.9 60.85 M124.85 24.45 L124.85 10.7 89.3 10.7 89.3 68.1 124.85 68.1 124.85 54.35 108.45 54.35 108.45 46.35 123.15 46.35 123.15 32.6 108.45 32.6 108.45 24.45 124.85 24.45 M160.65 48.85 L152.55 48.85 Q155.55 36.8 157.05 24.75 L160.65 48.85 M83.6 68.1 L83.6 54.35 69.25 54.35 69.25 10.7 50.1 10.7 50.1 68.1 83.6 68.1 M43.0 34.3 Q40.2 34.65 37.9 32.75 35.15 30.55 31.55 31.4 27.3 32.45 25.8 36.75 23.7 42.65 26.7 48.1 27.25 49.15 28.2 49.95 31.6 53.05 36.0 51.2 37.45 50.65 38.6 49.7 42.05 47.05 45.65 49.25 L45.65 32.3 Q44.75 33.85 43.0 34.3 M41.75 27.9 L41.75 12.05 Q27.3 8.2 14.25 15.35 7.9 18.9 4.35 25.35 1.45 30.6 0.95 36.4 0.1 46.0 4.75 54.55 8.15 60.85 14.35 64.25 22.85 68.95 32.7 68.0 37.15 67.55 41.5 66.15 L42.6 50.6 Q36.4 55.6 28.7 53.6 24.4 52.35 22.55 48.3 19.15 40.95 21.35 33.3 23.1 27.15 29.05 25.2 35.95 23.15 41.75 27.9" fill="#000000" fill-rule="evenodd" stroke="none"/>
    <path d="M249.45 43.45 L249.45 7.45 267.95 7.45 267.95 43.45 249.45 43.45 M269.35 59.45 Q269.3 63.0 266.1 65.55 262.85 68.05 258.55 68.1 254.25 68.05 250.95 65.55 247.85 62.85 247.85 59.35 247.85 55.7 250.95 53.15 254.15 50.6 258.55 50.6 263.1 50.55 266.2 53.15 269.35 55.7 269.35 59.45" fill="url(#gradient0)" fill-rule="evenodd" stroke="none"/>
    <path d="M208.55 44.2 L208.7 68.1 189.65 68.1 189.65 10.7 209.25 10.7 Q222.2 10.7 228.6 14.85 236.8 20.1 236.8 29.85 236.8 40.25 225.8 44.2 L240.05 68.1 219.35 68.1 209.9 47.65 209.4 46.25 208.55 44.2 M216.15 33.55 Q219.3 29.65 216.4 25.5 213.35 22.2 208.8 22.7 L208.8 36.4 Q213.25 37.1 216.15 33.55" fill="url(#gradient1)" fill-rule="evenodd" stroke="none"/>
    <path d="M162.9 60.85 L150.0 60.85 148.45 68.1 128.65 68.1 145.7 10.7 169.1 10.7 184.1 68.1 164.3 68.1 162.9 60.85 M160.65 48.85 L157.05 24.75 Q155.55 36.8 152.55 48.85 L160.65 48.85" fill="url(#gradient2)" fill-rule="evenodd" stroke="none"/>
    <path d="M124.85 24.45 L108.45 24.45 108.45 32.6 123.15 32.6 123.15 46.35 108.45 46.35 108.45 54.35 124.85 54.35 124.85 68.1 89.3 68.1 89.3 10.7 124.85 10.7 124.85 24.45" fill="url(#gradient3)" fill-rule="evenodd" stroke="none"/>
    <path d="M83.6 68.1 L50.1 68.1 50.1 10.7 69.25 10.7 69.25 54.35 83.6 54.35 83.6 68.1" fill="url(#gradient4)" fill-rule="evenodd" stroke="none"/>
    <path d="M41.75 27.9 Q35.95 23.15 29.05 25.2 23.1 27.15 21.35 33.3 19.15 40.95 22.55 48.3 24.4 52.35 28.7 53.6 36.4 55.6 42.6 50.6 L41.5 66.15 Q37.15 67.55 32.7 68.0 22.85 68.95 14.35 64.25 8.15 60.85 4.75 54.55 0.1 46.0 0.95 36.4 1.45 30.6 4.35 25.35 7.9 18.9 14.25 15.35 27.3 8.2 41.75 12.05 L41.75 27.9" fill="url(#gradient5)" fill-rule="evenodd" stroke="none"/>
  </g>
  <defs>
    <linearGradient gradientTransform="matrix(0.0131, 0.0, 0.0, 0.0131, 258.6, 37.75)" gradientUnits="userSpaceOnUse" id="gradient0" spreadMethod="pad" x1="-819.2" x2="819.2">
      <stop offset="0.0" stop-color="#f5f8d5"/>
      <stop offset="0.6274509803921569" stop-color="#f9ed3d"/>
    </linearGradient>
    <linearGradient gradientTransform="matrix(0.0307, 0.0, 0.0, 0.0307, 214.85, 39.4)" gradientUnits="userSpaceOnUse" id="gradient1" spreadMethod="pad" x1="-819.2" x2="819.2">
      <stop offset="0.0" stop-color="#f5f8d5"/>
      <stop offset="0.6274509803921569" stop-color="#f9ed3d"/>
    </linearGradient>
    <linearGradient gradientTransform="matrix(0.0338, 0.0, 0.0, 0.0338, 156.35, 39.4)" gradientUnits="userSpaceOnUse" id="gradient2" spreadMethod="pad" x1="-819.2" x2="819.2">
      <stop offset="0.0" stop-color="#f5f8d5"/>
      <stop offset="0.6274509803921569" stop-color="#f9ed3d"/>
    </linearGradient>
    <linearGradient gradientTransform="matrix(0.0217, 0.0, 0.0, 0.0217, 107.1, 39.4)" gradientUnits="userSpaceOnUse" id="gradient3" spreadMethod="pad" x1="-819.2" x2="819.2">
      <stop offset="0.0" stop-color="#f5f8d5"/>
      <stop offset="0.6274509803921569" stop-color="#f9ed3d"/>
    </linearGradient>
    <linearGradient gradientTransform="matrix(0.0204, 0.0, 0.0, 0.0204, 66.85, 39.4)" gradientUnits="userSpaceOnUse" id="gradient4" spreadMethod="pad" x1="-819.2" x2="819.2">
      <stop offset="0.0" stop-color="#f5f8d5"/>
      <stop offset="0.6274509803921569" stop-color="#f9ed3d"/>
    </linearGradient>
    <linearGradient gradientTransform="matrix(0.0254, 0.0, 0.0, 0.0254, 21.75, 39.4)" gradientUnits="userSpaceOnUse" id="gradient5" spreadMethod="pad" x1="-819.2" x2="819.2">
      <stop offset="0.0" stop-color="#f5f8d5"/>
      <stop offset="0.6274509803921569" stop-color="#f9ed3d"/>
    </linearGradient>
  </defs>
</svg>
