<?xml version="1.0" encoding="UTF-8" standalone="no"?>
<svg xmlns:xlink="http://www.w3.org/1999/xlink" height="272.4px" width="223.6px" xmlns="http://www.w3.org/2000/svg">
  <g transform="matrix(1.0, 0.0, 0.0, 1.0, 1.5, 1.5)">
    <path d="M163.8 142.7 L164.3 141.8 174.75 150.4 163.8 142.7 M174.95 150.55 L176.25 151.6 175.4 151.5 174.95 150.55 M151.35 148.85 L157.0 141.6 170.4 150.95 151.35 148.85" fill="#96a0ce" fill-rule="evenodd" stroke="none"/>
    <path d="M164.1 138.05 L162.95 138.45 161.35 140.95 156.55 138.45 147.25 150.15 147.7 151.25 181.65 155.15 182.4 154.45 182.45 153.4 164.1 138.05 M219.1 173.4 L213.7 225.45 209.3 241.65 Q205.5 237.15 200.85 234.05 197.45 231.7 192.85 233.0 L189.1 233.9 187.3 234.55 Q186.4 234.85 185.55 235.3 184.3 235.85 183.1 236.55 178.35 239.6 176.2 244.7 L175.75 238.8 175.0 232.95 173.9 227.25 Q171.2 215.4 164.75 204.95 L163.9 204.5 Q157.95 209.3 152.85 215.4 L152.2 216.45 159.65 267.5 90.75 266.8 94.35 197.65 157.05 129.85 157.25 128.0 151.3 122.85 166.5 120.4 171.15 98.0 214.55 123.5 219.1 173.4 M168.4 96.4 L164.2 118.0 146.65 121.0 146.25 122.0 153.8 128.95 99.85 187.2 113.2 162.55 151.1 86.4 168.4 96.4 M76.55 85.55 L110.2 161.8 106.3 168.95 73.95 131.7 80.4 120.2 Q80.9 119.25 79.9 118.7 L79.35 118.55 63.2 117.4 56.55 98.1 76.55 85.55 M76.7 121.4 Q73.1 126.75 70.95 132.45 L71.0 132.85 104.8 171.75 91.35 197.05 87.75 266.75 64.5 266.55 68.4 219.95 32.9 177.05 10.45 127.05 53.9 99.75 57.15 109.6 Q58.85 115.15 61.6 120.25 L76.7 121.4 M30.2 178.4 L48.25 203.05 Q42.9 214.05 39.95 225.65 38.95 229.7 40.35 234.4 36.2 231.45 31.6 230.45 L19.9 230.1 Q19.3 230.0 18.95 230.45 13.8 237.45 8.8 244.6 L4.6 225.95 1.5 176.55 9.5 132.25 30.2 178.4 M105.0 142.65 L91.45 112.25 Q103.75 133.55 108.9 139.1 L105.0 142.65 M106.3 145.5 L137.3 109.65 111.95 158.3 106.3 145.5" fill="#3a3d6a" fill-rule="evenodd" stroke="none"/>
    <path d="M138.1 23.25 Q133.95 12.75 122.7 9.7 116.1 7.85 114.9 1.5 L141.2 1.5 152.95 48.85 167.0 61.95 160.0 77.6 148.8 81.65 147.35 80.9 144.95 60.55 Q152.05 59.95 157.55 64.15 159.55 65.75 158.4 68.0 157.25 70.3 155.0 71.45 L154.25 71.9 153.4 72.2 152.45 72.35 Q150.95 69.95 150.3 67.45 L149.8 64.95 155.35 66.95 156.45 65.1 Q155.6 63.6 153.65 62.9 151.55 62.0 149.35 62.6 L148.15 62.9 Q145.2 71.55 153.45 75.15 L154.45 75.05 Q157.8 73.6 159.7 70.4 L160.35 69.15 160.9 67.85 Q161.6 66.0 161.3 64.2 L161.0 63.5 Q154.55 56.3 144.65 57.6 143.85 39.95 138.1 23.25 M94.25 10.55 Q91.25 11.8 89.5 14.45 84.6 22.15 84.1 31.55 83.9 35.9 83.05 40.2 81.15 50.0 79.4 59.9 77.7 55.85 73.1 56.4 66.3 57.5 62.45 62.5 61.9 63.15 62.0 64.15 62.35 69.1 66.0 72.4 70.75 76.85 74.05 71.5 75.9 68.6 73.7 65.95 71.4 63.25 68.35 64.9 L68.9 66.75 70.4 66.9 72.05 69.75 69.8 71.6 68.25 70.85 67.0 69.7 Q65.1 66.85 64.6 63.0 L68.95 61.1 Q72.4 59.85 75.9 59.85 78.65 64.95 78.7 70.8 78.75 76.45 78.4 82.1 77.4 81.3 76.3 80.85 70.8 78.3 64.85 76.95 L57.05 63.6 70.45 49.5 86.5 1.5 111.55 1.5 Q103.75 6.9 94.25 10.55" fill="#ffffff" fill-rule="evenodd" stroke="none"/>
    <path d="M124.25 44.65 L123.15 45.05 124.8 50.45 124.55 50.8 99.75 51.05 100.8 47.65 100.25 46.95 99.55 47.15 Q93.8 52.8 89.5 59.6 83.55 69.05 86.35 79.35 86.6 80.3 87.65 80.65 90.7 76.05 94.95 72.55 107.8 61.95 124.25 65.1 133.35 66.75 138.5 73.9 139.3 75.0 139.0 76.35 138.65 78.05 137.8 79.65 L138.2 80.3 138.95 80.5 Q140.15 79.95 140.85 78.75 144.45 72.65 141.2 66.3 134.85 53.75 124.25 44.65 M123.9 14.2 Q127.85 16.25 131.55 18.9 135.75 23.85 137.0 30.3 L137.45 32.45 Q129.05 29.6 121.3 34.75 115.05 38.85 107.85 37.0 101.0 35.25 94.35 33.1 92.15 32.4 90.2 33.45 L87.3 35.05 88.1 36.35 Q93.3 35.0 98.15 37.25 99.25 37.75 100.35 38.4 L89.7 39.6 89.1 40.2 89.85 42.0 97.5 41.6 93.75 42.95 Q111.9 39.3 130.0 42.8 L130.3 42.3 129.8 41.8 122.65 40.55 132.75 40.3 133.4 38.95 132.45 37.65 122.85 37.6 Q129.45 33.2 136.9 35.05 L137.95 33.85 Q143.0 57.35 144.35 81.45 140.2 82.9 126.85 86.35 L112.0 90.25 Q110.2 90.85 97.15 87.4 85.25 84.3 81.35 82.7 83.0 52.95 88.6 23.5 90.05 15.95 96.9 12.5 104.7 8.7 112.6 5.1 117.25 10.65 123.9 14.2 M96.65 51.8 Q97.8 54.65 100.95 54.15 L126.7 53.4 127.25 52.65 127.9 50.9 Q136.05 59.65 140.9 70.45 126.0 58.2 107.35 62.45 101.5 63.8 96.4 67.3 91.25 70.85 86.95 75.55 86.75 61.95 96.65 51.8 M28.1 243.55 Q26.1 248.4 26.6 253.75 L27.95 254.4 29.35 251.05 40.25 255.1 44.4 251.85 46.6 254.65 29.1 267.45 9.75 248.45 20.85 232.65 31.25 231.5 45.1 241.55 43.35 248.9 39.75 251.9 29.8 248.0 30.05 244.45 28.9 243.3 28.1 243.55 M179.25 243.95 L185.75 235.25 200.05 235.0 211.65 249.4 192.7 266.6 176.35 250.45 177.95 247.85 185.95 254.75 192.4 252.9 192.6 251.3 Q192.6 250.25 191.55 250.25 L190.95 250.35 186.65 251.6 179.2 244.9 179.25 243.95" fill="#cacfe6" fill-rule="evenodd" stroke="none"/>
    <path d="M95.45 90.65 L105.5 93.75 105.85 101.0 97.85 108.3 95.45 90.65 M108.5 93.95 L115.75 92.5 115.75 99.75 108.7 99.6 108.5 93.95 M118.75 91.55 L127.65 87.85 126.25 107.6 118.75 100.65 118.75 91.55" fill="#990000" fill-rule="evenodd" stroke="none"/>
    <path d="M92.4 89.1 L93.35 97.0 89.95 103.0 86.95 101.65 79.8 85.45 92.4 89.1 M146.5 84.05 L148.5 84.95 133.15 104.65 129.7 101.4 130.7 87.65 146.5 84.05 M139.55 102.8 L111.15 137.1 88.75 105.75 91.2 106.15 94.0 102.0 95.75 112.0 96.8 112.65 108.6 102.6 116.65 102.8 127.55 112.1 128.4 111.75 129.45 105.3 133.1 108.2 139.55 102.8" fill="#d7dcec" fill-rule="evenodd" stroke="none"/>
    <path d="M160.9 213.2 Q160.9 211.4 162.15 210.15 162.8 209.45 163.6 209.15 L164.1 210.15 Q162.55 211.05 161.95 213.0 L161.5 214.75 160.9 213.2" fill="#e9e9eb" fill-rule="evenodd" stroke="none"/>
    <path d="M164.1 210.15 L166.3 214.45 166.05 214.6 Q164.05 215.75 162.1 215.45 L161.5 214.75 161.95 213.0 Q162.55 211.05 164.1 210.15" fill="#d0cfd0" fill-rule="evenodd" stroke="none"/>
    <path d="M167.65 217.25 Q166.65 218.25 164.9 218.3 160.6 217.65 160.9 213.2 L161.5 214.75 162.1 215.45 Q163.2 216.45 164.75 216.45 L167.0 215.8 167.65 217.25" fill="#47525f" fill-rule="evenodd" stroke="none"/>
    <path d="M166.3 214.45 L167.0 215.8 164.75 216.45 Q163.2 216.45 162.1 215.45 164.05 215.75 166.05 214.6 L166.3 214.45" fill="#b0aeb3" fill-rule="evenodd" stroke="none"/>
    <path d="M163.6 209.15 L163.3 208.5 155.25 216.75 162.85 268.8 162.3 270.15 161.35 270.5 62.85 269.5 61.5 268.7 61.35 267.9 65.4 220.6 50.45 205.45 40.65 225.3 44.4 237.35 48.15 240.45 46.3 249.35 50.25 255.15 29.4 270.9 Q23.2 266.3 14.55 257.65 5.9 248.95 4.5 243.3 3.1 237.6 1.6 226.3 L-1.5 176.55 7.5 126.05 8.2 124.95 75.2 82.85 62.95 79.5 53.75 63.7 67.7 48.2 84.0 -0.45 85.4 -1.5 142.35 -1.5 143.8 -0.35 155.75 47.7 170.2 61.05 161.85 80.0 152.2 83.6 216.7 121.3 217.25 121.8 217.45 122.5 222.1 173.3 216.7 225.85 211.6 244.55 215.1 250.25 193.15 269.85 192.4 269.65 Q185.0 263.3 178.15 256.2 175.75 253.65 174.3 250.7 173.35 248.7 173.35 246.25 173.35 231.1 167.65 217.25 L167.0 215.8 166.3 214.45 164.1 210.15 163.6 209.15 M163.8 142.7 L174.75 150.4 164.3 141.8 163.8 142.7 M164.1 138.05 L182.45 153.4 182.4 154.45 181.65 155.15 147.7 151.25 147.25 150.15 156.55 138.45 161.35 140.95 162.95 138.45 164.1 138.05 M174.95 150.55 L175.4 151.5 176.25 151.6 174.95 150.55 M219.1 173.4 L214.55 123.5 171.15 98.0 166.5 120.4 151.3 122.85 157.25 128.0 157.05 129.85 94.35 197.65 90.75 266.8 159.65 267.5 152.2 216.45 152.85 215.4 Q157.95 209.3 163.9 204.5 L164.75 204.95 Q171.2 215.4 173.9 227.25 L175.0 232.95 175.75 238.8 176.2 244.7 Q178.35 239.6 183.1 236.55 184.3 235.85 185.55 235.3 186.4 234.85 187.3 234.55 L189.1 233.9 192.85 233.0 Q197.45 231.7 200.85 234.05 205.5 237.15 209.3 241.65 L213.7 225.45 219.1 173.4 M168.4 96.4 L151.1 86.4 113.2 162.55 99.85 187.2 153.8 128.95 146.25 122.0 146.65 121.0 164.2 118.0 168.4 96.4 M138.1 23.25 Q143.85 39.95 144.65 57.6 154.55 56.3 161.0 63.5 L161.3 64.2 Q161.6 66.0 160.9 67.85 L160.35 69.15 159.7 70.4 Q157.8 73.6 154.45 75.05 L153.45 75.15 Q145.2 71.55 148.15 62.9 L149.35 62.6 Q151.55 62.0 153.65 62.9 155.6 63.6 156.45 65.1 L155.35 66.95 149.8 64.95 150.3 67.45 Q150.95 69.95 152.45 72.35 L153.4 72.2 154.25 71.9 155.0 71.45 Q157.25 70.3 158.4 68.0 159.55 65.75 157.55 64.15 152.05 59.95 144.95 60.55 L147.35 80.9 148.8 81.65 160.0 77.6 167.0 61.95 152.95 48.85 141.2 1.5 114.9 1.5 Q116.1 7.85 122.7 9.7 133.95 12.75 138.1 23.25 M123.9 14.2 Q117.25 10.65 112.6 5.1 104.7 8.7 96.9 12.5 90.05 15.95 88.6 23.5 83.0 52.95 81.35 82.7 85.25 84.3 97.15 87.4 110.2 90.85 112.0 90.25 L126.85 86.35 Q140.2 82.9 144.35 81.45 143.0 57.35 137.95 33.85 L136.9 35.05 Q129.45 33.2 122.85 37.6 L132.45 37.65 133.4 38.95 132.75 40.3 122.65 40.55 129.8 41.8 130.3 42.3 130.0 42.8 Q111.9 39.3 93.75 42.95 L97.5 41.6 89.85 42.0 89.1 40.2 89.7 39.6 100.35 38.4 Q99.25 37.75 98.15 37.25 93.3 35.0 88.1 36.35 L87.3 35.05 90.2 33.45 Q92.15 32.4 94.35 33.1 101.0 35.25 107.85 37.0 115.05 38.85 121.3 34.75 129.05 29.6 137.45 32.45 L137.0 30.3 Q135.75 23.85 131.55 18.9 127.85 16.25 123.9 14.2 M124.25 44.65 Q134.85 53.75 141.2 66.3 144.45 72.65 140.85 78.75 140.15 79.95 138.95 80.5 L138.2 80.3 137.8 79.65 Q138.65 78.05 139.0 76.35 139.3 75.0 138.5 73.9 133.35 66.75 124.25 65.1 107.8 61.95 94.95 72.55 90.7 76.05 87.65 80.65 86.6 80.3 86.35 79.35 83.55 69.05 89.5 59.6 93.8 52.8 99.55 47.15 L100.25 46.95 100.8 47.65 99.75 51.05 124.55 50.8 124.8 50.45 123.15 45.05 124.25 44.65 M94.25 10.55 Q103.75 6.9 111.55 1.5 L86.5 1.5 70.45 49.5 57.05 63.6 64.85 76.95 Q70.8 78.3 76.3 80.85 77.4 81.3 78.4 82.1 78.75 76.45 78.7 70.8 78.65 64.95 75.9 59.85 72.4 59.85 68.95 61.1 L64.6 63.0 Q65.1 66.85 67.0 69.7 L68.25 70.85 69.8 71.6 72.05 69.75 70.4 66.9 68.9 66.75 68.35 64.9 Q71.4 63.25 73.7 65.95 75.9 68.6 74.05 71.5 70.75 76.85 66.0 72.4 62.35 69.1 62.0 64.15 61.9 63.15 62.45 62.5 66.3 57.5 73.1 56.4 77.7 55.85 79.4 59.9 81.15 50.0 83.05 40.2 83.9 35.9 84.1 31.55 84.6 22.15 89.5 14.45 91.25 11.8 94.25 10.55 M96.65 51.8 Q86.75 61.95 86.95 75.55 91.25 70.85 96.4 67.3 101.5 63.8 107.35 62.45 126.0 58.2 140.9 70.45 136.05 59.65 127.9 50.9 L127.25 52.65 126.7 53.4 100.95 54.15 Q97.8 54.65 96.65 51.8 M92.4 89.1 L79.8 85.45 86.95 101.65 89.95 103.0 93.35 97.0 92.4 89.1 M108.5 93.95 L108.7 99.6 115.75 99.75 115.75 92.5 108.5 93.95 M95.45 90.65 L97.85 108.3 105.85 101.0 105.5 93.75 95.45 90.65 M146.5 84.05 L130.7 87.65 129.7 101.4 133.15 104.65 148.5 84.95 146.5 84.05 M118.75 91.55 L118.75 100.65 126.25 107.6 127.65 87.85 118.75 91.55 M30.2 178.4 L9.5 132.25 1.5 176.55 4.6 225.95 8.8 244.6 Q13.8 237.45 18.95 230.45 19.3 230.0 19.9 230.1 L31.6 230.45 Q36.2 231.45 40.35 234.4 38.95 229.7 39.95 225.65 42.9 214.05 48.25 203.05 L30.2 178.4 M76.7 121.4 L61.6 120.25 Q58.85 115.15 57.15 109.6 L53.9 99.75 10.45 127.05 32.9 177.05 68.4 219.95 64.5 266.55 87.75 266.75 91.35 197.05 104.8 171.75 71.0 132.85 70.95 132.45 Q73.1 126.75 76.7 121.4 M76.55 85.55 L56.55 98.1 63.2 117.4 79.35 118.55 79.9 118.7 Q80.9 119.25 80.4 120.2 L73.95 131.7 106.3 168.95 110.2 161.8 76.55 85.55 M139.55 102.8 L133.1 108.2 129.45 105.3 128.4 111.75 127.55 112.1 116.65 102.8 108.6 102.6 96.8 112.65 95.75 112.0 94.0 102.0 91.2 106.15 88.75 105.75 111.15 137.1 139.55 102.8 M105.0 142.65 L108.9 139.1 Q103.75 133.55 91.45 112.25 L105.0 142.65 M151.35 148.85 L170.4 150.95 157.0 141.6 151.35 148.85 M106.3 145.5 L111.95 158.3 137.3 109.65 106.3 145.5 M28.1 243.55 L28.9 243.3 30.05 244.45 29.8 248.0 39.75 251.9 43.35 248.9 45.1 241.55 31.25 231.5 20.85 232.65 9.75 248.45 29.1 267.45 46.6 254.65 44.4 251.85 40.25 255.1 29.35 251.05 27.95 254.4 26.6 253.75 Q26.1 248.4 28.1 243.55 M179.25 243.95 L179.2 244.9 186.65 251.6 190.95 250.35 191.55 250.25 Q192.6 250.25 192.6 251.3 L192.4 252.9 185.95 254.75 177.95 247.85 176.35 250.45 192.7 266.6 211.65 249.4 200.05 235.0 185.75 235.25 179.25 243.95" fill="#1a1a1a" fill-rule="evenodd" stroke="none"/>
  </g>
</svg>
