<?xml version="1.0" encoding="UTF-8" standalone="no"?>
<svg xmlns:xlink="http://www.w3.org/1999/xlink" height="30.75px" width="27.8px" xmlns="http://www.w3.org/2000/svg">
  <g transform="matrix(1.0, 0.0, 0.0, 1.0, 0.0, 0.0)">
    <path d="M27.8 11.75 L21.1 13.75 Q17.0 15.05 15.25 16.15 16.85 17.25 20.6 19.3 16.65 17.3 14.8 16.6 14.75 18.8 15.8 23.75 L17.45 30.75 15.55 23.9 Q14.1 19.1 13.0 17.2 L10.1 21.8 12.45 16.95 Q10.45 16.8 6.25 17.75 L0.0 19.25 6.05 17.45 Q10.15 16.15 11.85 15.05 L6.5 11.8 Q10.45 13.85 12.3 14.55 12.4 12.35 11.3 7.4 L9.6 0.0 11.6 7.25 Q13.0 12.05 14.1 13.95 L17.15 9.2 Q15.3 12.5 14.7 14.25 L20.9 13.4 27.8 11.75" fill="#ffffff" fill-rule="evenodd" stroke="none"/>
  </g>
</svg>
