<?xml version="1.0" encoding="UTF-8" standalone="no"?>
<svg xmlns:xlink="http://www.w3.org/1999/xlink" height="80.4px" width="104.0px" xmlns="http://www.w3.org/2000/svg">
  <g transform="matrix(1.0, 0.0, 0.0, 1.0, 0.0, 0.0)">
    <path d="M22.8 69.95 Q20.45 76.0 17.35 78.2 14.7 80.05 12.1 78.9 9.7 77.8 8.45 75.05 7.25 72.2 8.1 69.6 11.35 60.0 12.2 54.65 13.25 48.0 11.65 43.05 10.9 40.85 11.35 39.1 11.8 37.45 13.15 36.8 16.25 35.25 20.4 39.9 24.7 44.75 25.35 53.1 26.1 61.6 22.8 69.95" fill="#000823" fill-rule="evenodd" stroke="none"/>
    <path d="M10.4 67.3 L13.15 60.4 Q22.25 58.5 17.55 62.4 14.15 65.25 12.35 69.35 10.6 73.2 11.15 76.35 9.2 74.8 9.2 71.65 9.25 70.4 10.4 67.3" fill="#032853" fill-rule="evenodd" stroke="none"/>
    <path d="M10.4 21.75 Q11.75 20.9 14.2 20.7 L17.8 20.55 Q19.05 20.45 18.95 24.6 18.8 28.6 17.55 32.7 16.2 37.2 14.5 38.0 12.4 38.95 10.35 33.85 6.55 24.4 10.4 21.75" fill="#000823" fill-rule="evenodd" stroke="none"/>
    <path d="M75.75 25.6 Q75.9 34.95 68.85 49.25 61.4 53.9 50.8 53.35 41.8 52.85 31.95 48.75 23.45 45.2 17.35 40.45 11.5 35.8 11.8 33.3 14.4 15.2 23.2 7.35 30.65 0.8 41.2 2.45 43.5 0.9 46.95 0.2 L54.1 0.0 Q62.85 1.45 66.7 9.45 75.55 15.2 75.75 25.6" fill="#000823" fill-rule="evenodd" stroke="none"/>
    <path d="M61.2 7.8 L65.5 10.2 Q74.0 15.5 74.2 25.6 74.4 34.7 67.75 48.35 60.7 52.85 50.75 52.3 42.3 51.85 33.05 48.0 25.0 44.7 19.15 40.15 13.65 35.8 13.8 33.35 15.2 16.8 23.75 8.95 31.2 2.15 41.65 3.55 L44.05 3.85 42.6 3.0 Q47.75 0.2 53.85 1.3 61.15 2.45 64.8 8.9 L61.2 7.8" fill="#488fc1" fill-rule="evenodd" stroke="none"/>
    <path d="M49.85 11.35 Q54.5 13.05 54.25 21.0 54.15 25.3 51.05 31.0 L47.05 37.2 Q46.65 37.85 45.0 37.7 L41.65 36.85 Q37.1 35.0 37.1 32.9 37.15 31.4 40.75 22.15 43.85 14.1 43.0 14.75 42.05 15.45 41.85 15.1 41.65 14.75 42.3 13.9 43.8 12.1 45.85 11.4 47.95 10.65 49.85 11.35" fill="#000823" fill-rule="evenodd" stroke="none"/>
    <path d="M28.2 18.0 Q28.25 21.6 27.35 26.35 L25.4 35.35 Q23.1 35.1 20.3 33.5 19.5 22.65 21.15 18.4 19.5 18.8 20.75 16.3 21.6 14.5 23.3 13.25 24.8 12.15 25.65 12.2 28.15 12.5 28.2 18.0" fill="#000823" fill-rule="evenodd" stroke="none"/>
    <path d="M41.6 16.2 Q43.2 13.9 45.35 13.15 47.4 12.35 49.25 13.15 53.65 15.05 53.5 22.1 53.25 28.8 47.9 37.35 47.5 38.05 45.75 37.85 L42.05 36.95 Q37.1 35.0 37.1 32.9 37.15 29.15 38.3 24.45 39.6 18.95 41.6 16.2" fill="#ffffff" fill-rule="evenodd" stroke="none"/>
    <path d="M23.15 14.7 Q24.4 13.5 25.65 13.6 29.7 14.0 27.35 26.35 L25.4 35.35 Q22.0 35.75 19.25 34.1 18.55 24.55 20.85 18.5 21.85 16.0 23.15 14.7" fill="#ffffff" fill-rule="evenodd" stroke="none"/>
    <path d="M30.35 5.95 Q30.65 7.25 30.1 9.3 30.3 6.5 28.7 6.0 26.85 5.45 24.35 9.05 26.95 4.3 29.2 4.6 30.15 4.75 30.35 5.95" fill="#000823" fill-rule="evenodd" stroke="none"/>
    <path d="M73.0 44.8 Q73.9 50.8 69.65 57.45 65.1 64.6 56.25 69.4 48.45 73.2 34.45 71.1 22.05 69.5 12.1 62.2 1.8 54.6 0.2 45.0 -0.65 40.1 1.95 35.9 4.6 31.7 9.45 29.65 16.6 26.6 28.25 29.25 38.5 31.6 49.05 37.4 59.55 34.0 66.1 36.5 72.05 38.7 73.0 44.8" fill="#000823" fill-rule="evenodd" stroke="none"/>
    <path d="M71.45 45.1 Q72.3 50.1 68.95 55.95 65.6 62.0 59.35 66.2 55.25 68.9 50.75 69.85 44.75 71.15 35.55 70.25 23.2 68.45 13.75 62.0 3.35 54.9 1.4 45.15 0.45 40.55 3.05 36.4 5.55 32.45 10.35 30.4 17.25 27.5 28.7 30.3 38.55 32.7 49.0 38.4 59.3 35.6 65.3 37.8 70.6 39.8 71.45 45.1" fill="#ffe584" fill-rule="evenodd" stroke="none"/>
    <path d="M7.95 30.8 Q7.3 28.5 9.9 25.95 13.0 22.9 18.9 23.0 25.95 23.2 29.45 26.5 32.1 29.0 31.7 31.65 31.35 34.4 28.8 35.4 26.45 36.4 21.3 36.2 9.25 35.8 7.95 30.8" fill="#000823" fill-rule="evenodd" stroke="none"/>
    <path d="M22.55 26.65 Q22.35 28.25 18.9 28.1 14.6 27.85 14.15 26.15 13.85 25.35 14.8 24.55 15.85 23.55 17.95 23.65 20.45 23.75 21.7 24.9 22.65 25.75 22.55 26.65" fill="#032853" fill-rule="evenodd" stroke="none"/>
    <path d="M40.85 40.3 Q40.35 40.05 40.55 39.45 40.8 38.95 41.35 39.2 41.9 39.4 41.65 40.05 41.4 40.55 40.85 40.3" fill="#b08000" fill-rule="evenodd" stroke="none"/>
    <path d="M34.55 41.7 Q33.9 41.4 34.2 40.75 34.45 40.1 35.1 40.45 35.7 40.65 35.45 41.35 35.1 42.0 34.55 41.7" fill="#b08000" fill-rule="evenodd" stroke="none"/>
    <path d="M35.4 36.15 Q34.8 35.9 35.1 35.35 35.4 34.8 35.9 35.0 36.5 35.3 36.25 35.8 35.95 36.45 35.4 36.15" fill="#b08000" fill-rule="evenodd" stroke="none"/>
    <path d="M44.65 44.45 Q44.1 44.2 44.3 43.55 44.65 43.0 45.2 43.25 45.8 43.55 45.55 44.15 45.2 44.7 44.65 44.45" fill="#b08000" fill-rule="evenodd" stroke="none"/>
    <path d="M46.95 41.2 Q46.4 41.0 46.65 40.45 46.95 39.9 47.45 40.15 48.0 40.35 47.75 40.95 47.5 41.5 46.95 41.2" fill="#b08000" fill-rule="evenodd" stroke="none"/>
    <path d="M4.2 37.2 Q3.95 36.9 4.3 36.4 4.6 35.9 4.9 36.1 5.2 36.35 4.9 36.9 4.5 37.35 4.2 37.2" fill="#b08000" fill-rule="evenodd" stroke="none"/>
    <path d="M6.45 34.7 Q6.3 34.4 6.75 34.0 7.2 33.55 7.45 33.9 7.6 34.25 7.15 34.6 L6.45 34.7" fill="#b08000" fill-rule="evenodd" stroke="none"/>
    <path d="M77.8 19.75 Q82.05 20.25 83.4 26.2 L86.15 40.15 Q87.9 49.15 90.3 55.75 91.55 59.15 95.0 62.85 L101.2 68.75 Q104.0 71.45 104.0 74.75 103.95 77.85 101.7 79.45 100.35 80.4 97.85 80.4 95.3 80.4 92.45 79.4 85.5 76.95 81.85 70.75 78.9 65.8 77.85 61.05 76.8 56.55 76.75 48.9 L77.25 33.95 Q77.5 28.2 76.2 27.4 75.05 26.75 73.0 27.4 71.35 27.85 70.3 28.7 68.8 28.5 68.75 25.95 68.65 23.65 69.65 22.35 74.4 19.35 77.8 19.75" fill="#000823" fill-rule="evenodd" stroke="none"/>
    <path d="M71.95 23.3 Q72.15 22.05 74.1 21.6 77.65 20.85 78.8 23.3 80.0 25.85 79.5 33.9 78.9 43.05 80.55 53.1 82.5 64.55 86.3 69.6 89.4 73.8 87.55 73.55 85.8 73.3 83.85 71.05 79.3 65.4 78.15 50.4 77.5 41.3 78.1 31.95 78.45 27.5 77.25 25.0 76.0 22.5 73.9 23.55 71.8 24.55 71.95 23.3" fill="#032853" fill-rule="evenodd" stroke="none"/>
    <path d="M39.55 77.0 Q36.5 74.15 34.2 68.9 L56.45 68.3 Q54.45 74.05 51.55 77.0 48.75 79.85 45.6 79.85 42.5 79.8 39.55 77.0" fill="#000823" fill-rule="evenodd" stroke="none"/>
    <path d="M40.45 75.65 Q37.6 73.0 35.4 67.7 L55.25 66.9 Q53.7 72.05 51.2 74.95 48.8 77.8 46.0 78.0 43.1 78.15 40.45 75.65" fill="#ffe584" fill-rule="evenodd" stroke="none"/>
    <path d="M51.1 4.2 L54.4 4.4 Q55.9 5.2 56.6 7.15 57.35 9.25 56.65 12.15 56.9 7.2 53.55 5.85 50.45 4.65 47.85 6.8 49.2 4.8 51.1 4.2" fill="#000823" fill-rule="evenodd" stroke="none"/>
  </g>
</svg>
