<?xml version="1.0" encoding="UTF-8" standalone="no"?>
<svg xmlns:xlink="http://www.w3.org/1999/xlink" height="13.8px" width="29.0px" xmlns="http://www.w3.org/2000/svg">
  <g transform="matrix(1.0, 0.0, 0.0, 1.0, 0.0, 0.0)">
    <path d="M22.75 0.95 Q24.6 -0.25 26.6 0.05 28.05 0.5 28.7 1.9 29.35 3.45 28.65 5.7 L28.1 7.0 23.85 6.25 27.45 8.65 Q26.3 10.95 24.6 12.6 22.3 14.25 20.35 13.65 18.5 13.1 18.5 10.85 18.5 8.4 19.7 5.6 20.7 3.2 21.95 1.7 L22.75 0.95" fill="#000823" fill-rule="evenodd" stroke="none"/>
    <path d="M5.1 1.1 L5.4 1.25 Q6.95 2.5 6.1 5.85 L5.75 7.0 3.3 6.35 5.25 8.4 3.55 11.8 Q2.1 13.15 1.0 12.65 -0.1 12.1 0.0 10.2 0.25 5.8 1.5 3.55 2.15 1.9 3.35 1.3 L5.1 1.1" fill="#000823" fill-rule="evenodd" stroke="none"/>
  </g>
</svg>
