<?xml version="1.0" encoding="UTF-8" standalone="no"?>
<svg xmlns:xlink="http://www.w3.org/1999/xlink" height="18.3px" width="16.6px" xmlns="http://www.w3.org/2000/svg">
  <g transform="matrix(1.0, 0.0, 0.0, 1.0, -36.0, -57.15)">
    <path d="M36.05 63.6 Q35.85 61.25 36.3 60.3 42.8 53.15 49.7 62.15 51.5 64.45 52.6 67.2 52.2 70.25 50.05 72.5 48.2 74.4 45.95 75.45 L43.5 74.7 41.4 73.3 40.15 72.0 Q36.2 65.95 36.05 63.6 M46.0 73.95 Q49.95 72.7 51.45 67.3 L49.3 66.8 Q42.7 66.4 41.55 71.95 42.85 74.9 46.0 73.95" fill="#000823" fill-rule="evenodd" stroke="none"/>
    <path d="M46.0 73.95 Q42.85 74.9 41.55 71.95 42.7 66.4 49.3 66.8 L51.45 67.3 Q49.95 72.7 46.0 73.95" fill="#ed7773" fill-rule="evenodd" stroke="none"/>
  </g>
</svg>
