<?xml version="1.0" encoding="UTF-8" standalone="no"?>
<svg xmlns:xlink="http://www.w3.org/1999/xlink" height="29.8px" width="37.0px" xmlns="http://www.w3.org/2000/svg">
  <g transform="matrix(1.0, 0.0, 0.0, 1.0, -18.8, -8.75)">
    <path d="M25.75 10.25 Q31.9 10.55 32.55 16.65 32.95 19.85 30.3 21.05 27.0 22.6 23.2 22.05 17.6 21.3 19.15 15.8 20.55 10.95 25.75 10.25" fill="#488fc1" fill-rule="evenodd" stroke="none"/>
    <path d="M45.75 8.75 L49.05 9.3 Q54.45 11.0 55.5 20.1 56.5 29.15 54.0 29.75 51.5 30.35 50.8 28.3 44.15 24.3 38.4 19.4 38.7 15.05 41.5 11.65 43.2 9.6 45.75 8.75" fill="#488fc1" fill-rule="evenodd" stroke="none"/>
    <path d="M37.1 31.7 Q37.25 28.35 38.25 24.3 39.55 18.75 41.6 15.95 43.2 13.7 45.4 12.9 47.5 12.1 49.4 12.95 51.35 13.75 52.5 16.0 53.7 18.4 53.6 21.95 53.5 26.3 51.0 31.75 50.2 28.25 45.9 28.3 43.75 28.35 41.35 29.3 39.0 30.25 37.1 31.7 M48.15 37.1 L47.95 37.45 Q43.95 34.55 40.65 33.55 L37.95 32.8 Q46.05 30.35 48.05 36.85 L48.15 37.1 M23.15 14.6 Q24.4 13.35 25.65 13.5 29.55 13.9 28.0 25.35 24.0 23.9 20.0 23.4 L19.55 23.5 Q20.0 20.7 20.85 18.45 21.85 15.95 23.15 14.6" fill="#0b4f7d" fill-rule="evenodd" stroke="none"/>
    <path d="M51.0 31.75 L51.2 33.15 Q51.3 35.95 50.2 37.85 49.65 38.7 49.15 38.55 48.6 38.35 48.15 37.1 L48.05 36.85 Q46.05 30.35 37.95 32.8 L37.75 32.85 Q36.25 32.7 37.05 31.75 L37.1 31.7 Q39.0 30.25 41.35 29.3 43.75 28.35 45.9 28.3 50.2 28.25 51.0 31.75" fill="#000823" fill-rule="evenodd" stroke="none"/>
  </g>
</svg>
