<?xml version="1.0" encoding="UTF-8" standalone="no"?>
<svg xmlns:xlink="http://www.w3.org/1999/xlink" height="36.45px" width="38.95px" xmlns="http://www.w3.org/2000/svg">
  <g transform="matrix(1.0, 0.0, 0.0, 1.0, -22.65, -39.6)">
    <path d="M61.45 43.4 Q61.8 43.85 61.25 43.95 60.75 44.05 60.35 43.6 60.0 43.35 59.5 45.9 L55.05 60.55 Q52.1 69.6 50.0 72.8 47.6 76.5 44.45 76.0 41.7 75.55 39.85 72.75 38.35 70.4 37.05 66.65 L34.85 60.7 Q33.4 57.45 31.05 55.35 28.15 52.7 23.35 51.05 L22.7 50.55 Q22.55 50.15 23.25 50.35 35.25 52.8 41.85 52.8 47.65 52.7 52.55 50.6 56.6 48.9 57.8 45.85 58.65 43.75 58.15 42.0 L56.6 40.45 Q55.75 39.3 56.8 39.75 59.6 40.9 61.45 43.4" fill="#000823" fill-rule="evenodd" stroke="none"/>
    <path d="M51.65 65.4 Q50.65 72.65 46.75 74.65 L43.25 74.85 Q41.45 74.25 40.05 72.2 39.55 69.75 40.85 67.85 42.0 66.2 44.25 65.3 46.35 64.45 48.45 64.45 50.65 64.5 51.65 65.4" fill="#ed7773" fill-rule="evenodd" stroke="none"/>
  </g>
</svg>
