<?xml version="1.0" encoding="UTF-8" standalone="no"?>
<svg xmlns:xlink="http://www.w3.org/1999/xlink" height="137.5px" width="79.95px" xmlns="http://www.w3.org/2000/svg">
  <g transform="matrix(1.0, 0.0, 0.0, 1.0, 0.0, 0.0)">
    <path d="M50.0 37.0 L68.4 97.35 61.85 100.0 Q58.1 101.4 56.1 101.2 L38.0 44.9 50.0 37.0" fill="#000823" fill-rule="evenodd" stroke="none"/>
    <path d="M47.55 34.7 L67.0 98.25 62.0 100.2 Q59.15 101.15 57.5 100.75 L38.6 41.4 47.55 34.7" fill="#488fc1" fill-rule="evenodd" stroke="none"/>
    <path d="M78.55 111.1 Q80.35 127.35 79.8 134.85 79.75 135.9 77.5 135.65 75.45 135.4 72.35 134.1 64.95 131.05 62.65 127.45 61.85 126.2 52.85 101.2 56.3 97.45 63.7 93.3 72.2 88.55 75.55 90.0 77.1 97.3 78.55 111.1" fill="#000823" fill-rule="evenodd" stroke="none"/>
    <path d="M77.75 113.05 Q79.35 129.55 78.55 135.9 78.45 136.75 77.3 137.25 76.0 137.8 74.2 137.25 69.1 135.7 63.7 126.65 63.1 125.6 58.85 114.4 L54.0 101.3 Q57.1 97.85 63.9 94.1 71.7 89.9 74.75 91.3 76.35 98.0 77.75 113.05" fill="#ffbd20" fill-rule="evenodd" stroke="none"/>
    <path d="M75.2 93.3 L76.1 99.1 Q65.95 100.5 57.2 109.95 L54.95 103.8 Q58.55 99.25 64.0 96.5 69.3 93.75 75.2 93.3" fill="#e31e00" fill-rule="evenodd" stroke="none"/>
    <path d="M77.3 7.8 Q79.95 10.55 79.25 13.45 L78.45 15.35 Q76.8 17.7 73.6 18.8 L69.8 20.0 Q66.45 20.9 65.0 21.55 62.7 22.6 61.6 24.15 L60.75 25.85 Q59.75 31.05 57.7 34.1 L55.7 36.35 55.4 36.55 54.1 41.15 Q52.95 45.2 49.05 47.25 45.55 49.15 41.25 48.9 36.7 48.7 33.25 46.35 29.35 43.65 28.6 39.35 L28.2 37.45 25.95 35.1 Q20.05 28.75 16.65 26.3 L15.45 25.6 Q7.55 20.35 6.6 18.2 L6.4 17.6 5.85 17.25 Q2.5 15.15 1.0 12.6 -0.5 10.05 0.25 7.65 L1.0 6.25 Q2.25 4.3 5.15 3.5 5.45 2.55 8.15 1.4 14.35 -0.7 22.6 0.35 29.35 1.3 42.3 5.2 L50.3 7.55 Q54.4 8.6 56.65 8.35 L57.35 8.2 Q61.55 4.25 66.75 3.85 73.0 3.45 77.3 7.8" fill="#000823" fill-rule="evenodd" stroke="none"/>
    <path d="M76.05 9.0 Q78.8 11.85 76.9 14.5 75.6 16.35 73.05 17.2 L65.6 19.5 Q61.2 21.1 59.8 24.0 L59.5 23.05 Q58.3 31.9 54.6 35.0 55.2 30.6 50.8 26.2 48.9 24.4 46.85 23.35 44.7 22.25 43.1 22.45 52.2 26.1 53.6 32.75 54.2 35.65 52.85 38.3 51.55 41.0 48.5 42.65 40.2 47.15 31.5 38.4 L24.8 31.4 Q20.75 27.15 17.55 24.95 L12.05 21.15 Q8.7 18.65 8.1 17.45 7.25 15.35 8.85 13.85 10.45 12.45 13.5 12.35 16.9 12.35 20.3 14.15 24.25 16.2 27.4 20.15 26.7 17.4 23.55 14.9 20.65 12.55 16.9 11.5 13.0 10.5 10.35 11.4 7.25 12.5 6.75 15.8 3.85 14.0 2.6 11.9 1.4 10.0 1.85 8.3 2.35 6.5 4.35 5.55 6.5 4.5 9.9 4.65 17.0 4.9 24.5 7.75 L29.35 9.6 Q31.6 10.45 32.85 10.4 L28.5 8.3 22.9 5.75 Q15.45 2.8 8.75 3.05 14.85 0.95 23.0 2.0 L32.55 3.95 45.6 8.05 Q53.3 10.5 56.85 10.0 56.5 10.6 56.05 12.2 60.6 6.0 66.85 5.55 72.35 5.2 76.05 9.0" fill="#ffffff" fill-rule="evenodd" stroke="none"/>
    <path d="M30.25 39.05 Q34.5 43.4 39.45 44.65 46.6 46.45 52.5 40.65 51.5 44.05 48.1 45.85 45.0 47.45 41.0 47.15 37.0 46.85 34.05 44.85 30.9 42.6 30.25 39.05" fill="#ffffff" fill-rule="evenodd" stroke="none"/>
  </g>
</svg>
