<?xml version="1.0" encoding="UTF-8" standalone="no"?>
<svg xmlns:xlink="http://www.w3.org/1999/xlink" height="145.4px" width="78.05px" xmlns="http://www.w3.org/2000/svg">
  <g transform="matrix(1.0, 0.0, 0.0, 1.0, 0.0, 0.0)">
    <path d="M30.0 123.4 Q23.4 138.3 19.2 144.55 18.65 145.5 16.8 144.1 15.15 142.8 13.1 140.2 8.25 133.8 8.05 129.55 8.0 128.45 12.7 101.95 17.6 100.4 26.1 100.6 35.8 100.7 38.05 103.6 35.6 110.75 30.0 123.4" fill="#000823" fill-rule="evenodd" stroke="none"/>
    <path d="M28.35 124.65 Q21.45 139.75 17.6 144.85 17.1 145.55 15.9 145.35 14.45 145.2 13.15 143.8 9.5 139.95 9.35 129.35 9.35 128.2 11.35 116.4 L13.7 102.6 Q17.45 104.15 20.7 104.6 26.75 105.45 36.65 104.35 34.6 111.0 28.35 124.65" fill="#ffbd20" fill-rule="evenodd" stroke="none"/>
    <path d="M35.25 108.5 L33.35 113.15 Q29.65 115.1 25.4 115.35 18.45 115.75 12.2 111.1 L13.2 105.3 Q20.85 111.0 35.25 108.5" fill="#e31e00" fill-rule="evenodd" stroke="none"/>
    <path d="M38.2 41.15 L30.2 103.65 23.1 103.4 Q19.15 103.2 17.3 102.15 L23.9 43.45 38.2 41.15" fill="#000823" fill-rule="evenodd" stroke="none"/>
    <path d="M36.9 38.05 L28.55 103.95 23.2 103.7 Q20.15 103.35 18.85 102.35 L26.05 40.5 36.9 38.05" fill="#488fc1" fill-rule="evenodd" stroke="none"/>
    <path d="M74.3 15.55 Q76.9 17.05 77.7 19.2 L78.05 20.8 Q78.15 23.3 76.1 25.4 74.05 27.5 70.25 28.75 L69.6 28.95 69.35 29.45 Q67.9 31.15 58.9 34.4 L57.55 34.85 Q53.85 36.25 46.4 41.0 L43.6 42.75 42.8 44.5 Q41.0 48.55 36.55 50.15 32.65 51.6 28.15 50.65 23.9 49.8 21.0 47.2 17.7 44.2 17.6 40.05 L17.45 35.25 17.25 34.9 Q16.4 33.8 15.85 32.3 14.65 28.95 14.95 23.5 L14.7 22.4 14.45 21.7 Q13.85 19.95 11.8 18.35 L4.15 13.55 Q1.35 11.65 0.35 8.95 0.0 8.1 0.0 7.0 0.0 4.05 3.3 2.0 8.6 -1.25 14.55 0.75 19.4 2.35 22.55 7.3 L23.25 7.55 Q25.35 8.4 29.55 8.4 L37.8 8.05 Q51.4 7.45 58.1 8.2 66.45 9.2 71.9 12.8 74.3 14.55 74.3 15.55" fill="#000823" fill-rule="evenodd" stroke="none"/>
    <path d="M69.45 15.5 Q72.75 16.25 74.55 17.7 76.25 19.15 76.35 20.95 76.35 22.75 74.7 24.4 72.95 26.05 69.75 27.1 70.0 23.75 67.35 22.0 64.95 20.4 60.95 20.45 57.1 20.5 53.7 22.05 50.0 23.7 48.6 26.25 52.65 23.1 57.0 22.15 60.75 21.25 64.0 22.1 66.95 22.9 68.15 24.7 69.4 26.55 67.95 28.35 67.15 29.4 63.3 30.9 L57.0 33.3 Q53.35 34.7 48.4 37.75 L40.2 42.85 Q29.6 49.25 22.65 42.75 20.15 40.4 19.5 37.5 18.85 34.7 20.15 31.95 23.1 25.85 32.8 24.6 29.55 23.3 24.5 26.3 19.15 29.5 18.65 33.95 15.8 30.0 16.85 21.15 L16.35 22.0 Q15.6 18.8 11.8 16.25 L5.1 12.15 Q2.85 10.65 2.0 8.55 0.8 5.55 4.25 3.45 8.75 0.65 13.95 2.35 19.95 4.3 22.85 11.45 L22.6 9.1 Q25.9 10.5 33.95 10.05 L47.7 9.3 57.4 9.7 Q65.6 10.65 70.95 14.25 64.5 12.35 56.55 13.4 L45.75 15.4 49.35 15.5 54.5 14.85 69.45 15.5" fill="#ffffff" fill-rule="evenodd" stroke="none"/>
    <path d="M41.2 43.85 Q39.75 47.15 36.1 48.5 32.75 49.75 28.8 49.05 24.9 48.35 22.25 46.05 19.35 43.5 19.3 39.95 23.6 47.05 30.9 46.95 36.05 46.95 41.2 43.85" fill="#ffffff" fill-rule="evenodd" stroke="none"/>
  </g>
</svg>
