<?xml version="1.0" encoding="UTF-8" standalone="no"?>
<svg xmlns:xlink="http://www.w3.org/1999/xlink" height="31.65px" width="27.15px" xmlns="http://www.w3.org/2000/svg">
  <g transform="matrix(1.0, 0.0, 0.0, 1.0, 0.0, 0.0)">
    <path d="M27.15 15.8 Q27.15 22.25 24.05 26.45 20.65 31.1 14.5 31.65 L14.5 29.25 Q16.55 28.5 16.55 26.35 L16.55 5.25 Q16.55 3.05 14.5 2.3 L14.5 0.0 Q20.65 0.5 24.05 5.15 27.15 9.35 27.15 15.8 M12.65 2.3 Q10.55 3.1 10.55 5.25 L10.55 26.35 Q10.55 28.5 12.65 29.25 L12.65 31.65 Q6.45 31.1 3.1 26.45 0.0 22.25 0.0 15.8 0.0 9.35 3.1 5.15 6.45 0.5 12.65 0.0 L12.65 2.3" fill="url(#gradient0)" fill-rule="evenodd" stroke="none"/>
  </g>
  <defs>
    <linearGradient gradientTransform="matrix(0.0, -0.0207, 0.9999, 7.0E-4, 42.1, 15.4)" gradientUnits="userSpaceOnUse" id="gradient0" spreadMethod="pad" x1="-819.2" x2="819.2">
      <stop offset="0.0" stop-color="#4e05ae"/>
      <stop offset="1.0" stop-color="#ff88ae"/>
    </linearGradient>
  </defs>
</svg>
