<?xml version="1.0" encoding="UTF-8" standalone="no"?>
<svg xmlns:xlink="http://www.w3.org/1999/xlink" height="30.45px" width="27.8px" xmlns="http://www.w3.org/2000/svg">
  <g transform="matrix(1.0, 0.0, 0.0, 1.0, 0.0, 0.0)">
    <path d="M27.8 1.25 Q27.8 1.7 26.15 2.85 24.5 4.0 24.5 7.4 L24.5 17.25 24.4 17.25 22.1 13.15 22.1 7.4 Q22.1 4.0 20.45 2.85 18.8 1.7 18.8 1.25 18.8 0.0 20.55 0.0 L26.05 0.0 Q27.8 0.0 27.8 1.25 M24.5 20.6 L24.5 30.45 18.4 30.45 3.5 4.75 Q2.45 2.95 1.3 2.6 0.1 2.15 0.1 1.25 0.1 0.1 2.15 0.0 L12.65 0.0 24.5 20.6 M5.65 24.05 Q6.05 26.95 7.5 27.9 8.9 28.8 8.9 29.3 8.9 30.45 6.75 30.45 L2.15 30.45 Q0.0 30.45 0.0 29.3 0.0 28.8 1.4 27.9 2.9 26.95 3.25 24.05 L3.25 7.65 3.35 7.65 5.65 11.75 5.65 24.05" fill="url(#gradient0)" fill-rule="evenodd" stroke="none"/>
  </g>
  <defs>
    <linearGradient gradientTransform="matrix(0.0, -0.0207, 0.9999, 7.0E-4, 12.65, 14.85)" gradientUnits="userSpaceOnUse" id="gradient0" spreadMethod="pad" x1="-819.2" x2="819.2">
      <stop offset="0.0" stop-color="#4e05ae"/>
      <stop offset="1.0" stop-color="#ff88ae"/>
    </linearGradient>
  </defs>
</svg>
