<?xml version="1.0" encoding="UTF-8" standalone="no"?>
<svg xmlns:xlink="http://www.w3.org/1999/xlink" height="31.65px" width="26.3px" xmlns="http://www.w3.org/2000/svg">
  <g transform="matrix(1.0, 0.0, 0.0, 1.0, 0.0, 0.0)">
    <path d="M22.0 10.15 Q20.2 2.55 14.35 2.3 L14.35 0.0 Q18.65 0.3 21.3 1.45 21.9 1.45 22.45 0.75 23.05 0.0 23.7 0.0 24.8 0.0 24.8 1.25 L24.8 10.35 Q24.8 11.8 23.55 11.8 22.4 11.8 22.0 10.15 M24.85 15.6 Q26.3 15.6 26.3 16.8 26.3 17.5 25.55 18.05 24.8 18.5 24.8 19.25 L24.8 27.3 Q20.2 31.5 14.35 31.65 L14.35 29.25 Q16.25 28.7 16.25 26.65 L16.25 19.35 Q16.25 18.25 14.55 17.95 13.5 17.7 13.5 16.7 13.5 15.6 15.15 15.6 L24.85 15.6 M12.55 0.0 L12.55 2.3 Q10.55 3.05 10.55 6.0 L10.55 25.5 Q10.55 28.6 12.55 29.25 L12.55 31.65 Q7.25 31.45 3.6 26.9 0.0 22.35 0.0 15.8 0.0 9.25 3.6 4.7 7.25 0.1 12.55 0.0" fill="url(#gradient0)" fill-rule="evenodd" stroke="none"/>
  </g>
  <defs>
    <linearGradient gradientTransform="matrix(0.0, -0.0207, 0.9999, 7.0E-4, -17.5, 15.4)" gradientUnits="userSpaceOnUse" id="gradient0" spreadMethod="pad" x1="-819.2" x2="819.2">
      <stop offset="0.0" stop-color="#4e05ae"/>
      <stop offset="1.0" stop-color="#ff88ae"/>
    </linearGradient>
  </defs>
</svg>
