<?xml version="1.0" encoding="UTF-8" standalone="no"?>
<svg xmlns:xlink="http://www.w3.org/1999/xlink" height="31.1px" width="29.65px" xmlns="http://www.w3.org/2000/svg">
  <g transform="matrix(1.0, 0.0, 0.0, 1.0, 0.0, 0.0)">
    <path d="M16.6 6.15 Q16.6 3.3 14.1 2.4 L14.1 0.0 14.3 0.0 Q19.85 0.0 22.15 1.1 26.3 3.15 26.3 7.8 26.45 13.75 19.15 15.5 L19.15 15.55 Q26.25 16.6 26.3 21.45 L26.3 25.05 Q26.3 26.25 26.75 26.25 L27.5 25.65 Q27.95 25.05 28.5 25.05 29.65 25.05 29.65 26.25 29.65 27.85 27.4 29.6 25.65 31.1 22.8 31.1 19.95 31.1 18.2 29.35 16.6 27.7 16.6 24.2 L16.6 21.45 Q16.6 17.25 14.1 17.05 L14.1 14.65 Q16.6 14.35 16.6 11.1 L16.6 6.15 M14.55 29.2 Q14.55 30.45 13.05 30.45 L1.55 30.45 Q0.0 30.45 0.0 29.2 0.0 28.35 0.9 28.1 1.95 27.8 2.15 27.4 L2.3 25.9 2.3 4.55 2.15 3.05 Q1.95 2.65 0.9 2.35 0.0 2.1 0.0 1.25 0.0 0.0 1.55 0.0 L12.3 0.0 12.3 25.9 Q12.3 27.65 13.65 28.1 14.55 28.35 14.55 29.2" fill="url(#gradient0)" fill-rule="evenodd" stroke="none"/>
  </g>
  <defs>
    <linearGradient gradientTransform="matrix(0.0, -0.0207, 0.9999, 7.0E-4, -46.9, 14.85)" gradientUnits="userSpaceOnUse" id="gradient0" spreadMethod="pad" x1="-819.2" x2="819.2">
      <stop offset="0.0" stop-color="#4e05ae"/>
      <stop offset="1.0" stop-color="#ff88ae"/>
    </linearGradient>
  </defs>
</svg>
