<?xml version="1.0" encoding="UTF-8" standalone="no"?>
<svg xmlns:xlink="http://www.w3.org/1999/xlink" height="30.45px" width="28.3px" xmlns="http://www.w3.org/2000/svg">
  <g transform="matrix(1.0, 0.0, 0.0, 1.0, 0.0, 0.0)">
    <path d="M25.85 25.75 Q26.3 27.75 27.25 28.15 28.3 28.6 28.3 29.4 28.3 30.45 26.05 30.45 L15.9 30.45 Q13.9 30.45 13.9 29.35 13.9 28.55 14.7 28.2 15.95 27.45 15.55 25.7 L14.7 22.55 8.75 22.55 9.35 20.2 14.3 20.2 10.2 2.2 10.75 0.0 19.75 0.0 25.85 25.75 M10.35 10.3 L6.55 24.25 Q5.8 27.1 7.85 28.0 9.05 28.55 9.05 29.35 9.05 30.45 6.95 30.45 L2.25 30.45 Q0.0 30.45 0.0 29.25 0.0 28.65 1.55 27.85 3.4 26.9 4.3 23.6 L9.2 5.7 9.3 5.7 10.35 10.3" fill="url(#gradient0)" fill-rule="evenodd" stroke="none"/>
  </g>
  <defs>
    <linearGradient gradientTransform="matrix(0.0, -0.0207, 0.9999, 7.0E-4, -76.5, 14.85)" gradientUnits="userSpaceOnUse" id="gradient0" spreadMethod="pad" x1="-819.2" x2="819.2">
      <stop offset="0.0" stop-color="#4e05ae"/>
      <stop offset="1.0" stop-color="#ff88ae"/>
    </linearGradient>
  </defs>
</svg>
