<?xml version="1.0" encoding="UTF-8" standalone="no"?>
<svg xmlns:xlink="http://www.w3.org/1999/xlink" height="30.45px" width="25.35px" xmlns="http://www.w3.org/2000/svg">
  <g transform="matrix(1.0, 0.0, 0.0, 1.0, 0.0, 0.0)">
    <path d="M25.35 9.5 Q25.35 10.7 24.0 10.7 22.75 10.7 22.55 8.7 21.8 4.05 19.5 2.35 L19.5 0.0 25.35 0.0 25.35 9.5 M17.65 0.0 L17.65 25.9 Q17.65 27.65 19.05 28.1 19.95 28.35 19.95 29.2 19.95 30.45 18.45 30.45 L6.9 30.45 Q5.4 30.45 5.4 29.2 5.4 28.35 6.3 28.1 L7.55 27.4 7.7 25.9 7.7 0.0 17.65 0.0 M0.0 0.0 L5.85 0.0 5.85 2.35 Q3.55 4.05 2.8 8.7 2.6 10.7 1.35 10.7 0.0 10.7 0.0 9.5 L0.0 0.0" fill="url(#gradient0)" fill-rule="evenodd" stroke="none"/>
  </g>
  <defs>
    <linearGradient gradientTransform="matrix(0.0, -0.0207, 0.9999, 7.0E-4, -106.0, 14.85)" gradientUnits="userSpaceOnUse" id="gradient0" spreadMethod="pad" x1="-819.2" x2="819.2">
      <stop offset="0.0" stop-color="#4e05ae"/>
      <stop offset="1.0" stop-color="#ff88ae"/>
    </linearGradient>
  </defs>
</svg>
