<?xml version="1.0" encoding="UTF-8" standalone="no"?>
<svg xmlns:xlink="http://www.w3.org/1999/xlink" height="31.1px" width="27.85px" xmlns="http://www.w3.org/2000/svg">
  <g transform="matrix(1.0, 0.0, 0.0, 1.0, 0.0, 0.0)">
    <path d="M20.4 2.55 Q19.0 1.7 19.0 1.2 19.0 0.0 21.1 0.0 L25.75 0.0 Q27.85 0.0 27.85 1.2 27.85 1.7 26.45 2.55 25.0 3.5 24.6 6.45 L24.6 21.8 Q24.35 26.3 21.55 28.9 19.35 30.95 16.8 31.0 L16.8 28.6 Q21.9 27.05 22.25 21.7 L22.25 6.45 Q21.9 3.5 20.4 2.55 M13.65 2.35 Q12.25 2.8 12.25 4.55 L12.25 24.15 Q12.25 27.9 14.95 28.65 L14.95 31.1 Q9.35 31.1 6.45 29.5 2.3 27.2 2.3 23.85 L2.3 4.55 2.15 3.05 Q1.95 2.65 0.9 2.35 0.0 2.1 0.0 1.25 0.0 0.0 1.5 0.0 L13.05 0.0 Q14.55 0.0 14.55 1.25 14.55 2.1 13.65 2.35" fill="url(#gradient0)" fill-rule="evenodd" stroke="none"/>
  </g>
  <defs>
    <linearGradient gradientTransform="matrix(0.0, -0.0207, 0.9999, 7.0E-4, -134.0, 14.85)" gradientUnits="userSpaceOnUse" id="gradient0" spreadMethod="pad" x1="-819.2" x2="819.2">
      <stop offset="0.0" stop-color="#4e05ae"/>
      <stop offset="1.0" stop-color="#ff88ae"/>
    </linearGradient>
  </defs>
</svg>
