<?xml version="1.0" encoding="UTF-8" standalone="no"?>
<svg xmlns:xlink="http://www.w3.org/1999/xlink" height="30.45px" width="22.85px" xmlns="http://www.w3.org/2000/svg">
  <g transform="matrix(1.0, 0.0, 0.0, 1.0, 0.0, 0.0)">
    <path d="M14.5 1.25 Q14.5 2.1 13.65 2.35 12.25 2.8 12.25 4.55 L12.25 30.45 1.5 30.45 Q0.0 30.45 0.0 29.2 0.0 28.35 0.9 28.1 2.25 27.65 2.25 25.9 L2.25 4.55 Q2.25 2.8 0.9 2.35 0.0 2.1 0.0 1.25 0.0 0.0 1.5 0.0 L13.0 0.0 Q14.5 0.0 14.5 1.25 M21.65 19.9 Q22.65 19.9 22.65 21.45 L22.65 28.7 22.85 28.55 22.85 30.15 22.65 30.0 22.65 30.45 14.05 30.45 14.05 28.1 Q18.65 27.45 20.1 21.0 20.35 19.9 21.65 19.9" fill="url(#gradient0)" fill-rule="evenodd" stroke="none"/>
  </g>
  <defs>
    <linearGradient gradientTransform="matrix(0.0, -0.0207, 0.9999, 7.0E-4, -164.8, 14.85)" gradientUnits="userSpaceOnUse" id="gradient0" spreadMethod="pad" x1="-819.2" x2="819.2">
      <stop offset="0.0" stop-color="#4e05ae"/>
      <stop offset="1.0" stop-color="#ff88ae"/>
    </linearGradient>
  </defs>
</svg>
