<?xml version="1.0" encoding="UTF-8" standalone="no"?>
<svg xmlns:xlink="http://www.w3.org/1999/xlink" height="30.45px" width="14.55px" xmlns="http://www.w3.org/2000/svg">
  <g transform="matrix(1.0, 0.0, 0.0, 1.0, 0.0, 0.0)">
    <path d="M12.25 25.9 Q12.25 27.1 12.4 27.4 12.6 27.8 13.65 28.1 14.55 28.35 14.55 29.2 14.55 30.45 13.05 30.45 L1.5 30.45 Q0.0 30.45 0.0 29.2 0.0 28.35 0.9 28.1 1.95 27.8 2.15 27.4 L2.3 25.9 2.3 4.55 2.15 3.05 Q1.95 2.65 0.9 2.35 0.0 2.1 0.0 1.25 0.0 0.0 1.5 0.0 L13.05 0.0 Q14.55 0.0 14.55 1.25 14.55 2.1 13.65 2.35 12.25 2.8 12.25 4.55 L12.25 25.9" fill="url(#gradient0)" fill-rule="evenodd" stroke="none"/>
  </g>
  <defs>
    <linearGradient gradientTransform="matrix(0.0, -0.0207, 0.9999, 7.0E-4, -244.7, 14.85)" gradientUnits="userSpaceOnUse" id="gradient0" spreadMethod="pad" x1="-819.2" x2="819.2">
      <stop offset="0.0" stop-color="#4e05ae"/>
      <stop offset="1.0" stop-color="#ff88ae"/>
    </linearGradient>
  </defs>
</svg>
