<?xml version="1.0" encoding="UTF-8" standalone="no"?>
<svg xmlns:xlink="http://www.w3.org/1999/xlink" height="31.65px" width="22.35px" xmlns="http://www.w3.org/2000/svg">
  <g transform="matrix(1.0, 0.0, 0.0, 1.0, 0.0, 0.0)">
    <path d="M18.95 28.7 Q15.75 31.55 11.05 31.65 L11.05 29.25 Q14.7 28.15 14.8 25.5 14.85 23.2 9.9 21.05 5.05 19.0 3.0 17.2 0.0 14.45 0.0 10.15 0.0 5.6 3.0 2.85 5.85 0.1 10.45 0.0 L10.45 2.3 Q7.55 3.35 7.55 5.65 7.55 8.4 13.5 10.75 22.35 14.15 22.35 21.1 22.35 25.7 18.95 28.7 M16.4 4.85 Q14.6 2.8 12.3 2.3 L12.3 0.0 Q14.85 0.05 18.05 1.55 L19.05 0.85 Q19.55 0.1 20.05 0.1 21.25 0.1 21.25 1.8 L21.25 8.75 Q21.25 10.7 19.9 10.7 18.65 10.7 18.45 9.1 18.1 6.8 16.4 4.85 M1.3 19.9 Q2.6 19.9 2.8 21.25 3.25 24.0 4.9 26.2 6.75 28.75 9.25 29.25 L9.25 31.65 Q7.25 31.6 5.55 30.85 3.95 30.1 3.45 30.1 2.75 30.1 2.25 30.8 1.75 31.45 1.25 31.45 0.0 31.45 0.0 29.75 L0.0 21.9 Q0.0 19.9 1.3 19.9" fill="url(#gradient0)" fill-rule="evenodd" stroke="none"/>
  </g>
  <defs>
    <linearGradient gradientTransform="matrix(0.0, -0.0207, 0.9999, 7.0E-4, -322.35, 15.4)" gradientUnits="userSpaceOnUse" id="gradient0" spreadMethod="pad" x1="-819.2" x2="819.2">
      <stop offset="0.0" stop-color="#4e05ae"/>
      <stop offset="1.0" stop-color="#ff88ae"/>
    </linearGradient>
  </defs>
</svg>
