<?xml version="1.0" encoding="UTF-8" standalone="no"?>
<svg xmlns:xlink="http://www.w3.org/1999/xlink" height="31.65px" width="9.2px" xmlns="http://www.w3.org/2000/svg">
  <g transform="matrix(1.0, 0.0, 0.0, 1.0, 0.0, 0.0)">
    <path d="M8.05 10.85 Q6.2 16.3 6.1 19.5 6.0 21.15 4.6 21.15 3.25 21.15 3.15 19.5 3.0 16.1 1.2 10.85 0.0 7.35 0.0 5.55 0.0 0.0 4.6 0.0 9.2 0.0 9.2 5.55 9.2 7.15 8.05 10.85 M4.8 22.85 Q6.7 22.85 7.95 24.15 9.2 25.45 9.2 27.25 9.2 29.05 7.95 30.35 6.7 31.65 4.8 31.65 2.95 31.65 1.65 30.35 0.4 29.05 0.4 27.25 0.4 25.45 1.65 24.15 2.95 22.85 4.8 22.85" fill="url(#gradient0)" fill-rule="evenodd" stroke="none"/>
  </g>
  <defs>
    <linearGradient gradientTransform="matrix(0.0, -0.0207, 0.9999, 7.0E-4, -349.45, 15.4)" gradientUnits="userSpaceOnUse" id="gradient0" spreadMethod="pad" x1="-819.2" x2="819.2">
      <stop offset="0.0" stop-color="#4e05ae"/>
      <stop offset="1.0" stop-color="#ff88ae"/>
    </linearGradient>
  </defs>
</svg>
