<?xml version="1.0" encoding="UTF-8" standalone="no"?>
<svg xmlns:xlink="http://www.w3.org/1999/xlink" height="211.05px" width="28.9px" xmlns="http://www.w3.org/2000/svg">
  <g transform="matrix(1.0, 0.0, 0.0, 1.0, 0.0, 0.0)">
    <path d="M3.95 211.05 L0.0 211.05 Q1.25 141.6 1.5 57.85 L1.55 0.0 6.45 0.0 6.05 58.9 5.6 90.0 5.25 148.05 3.95 211.05 M19.35 19.35 Q18.6 20.9 16.8 21.15 14.2 21.35 12.7 19.1 10.95 16.6 13.1 14.7 13.1 15.8 13.5 16.7 15.2 21.25 19.35 19.35 M12.8 38.55 Q12.7 42.9 16.95 43.6 18.25 43.85 19.35 43.05 17.3 46.25 14.05 44.0 10.6 41.65 12.8 38.55 M13.6 59.55 Q13.5 62.9 16.45 64.3 18.4 65.25 20.2 63.9 18.05 67.0 15.0 64.85 11.65 62.5 13.6 59.55 M13.6 83.25 Q13.5 86.6 16.4 88.1 18.3 89.0 20.15 87.65 18.1 90.85 14.9 88.65 11.4 86.3 13.6 83.25 M20.05 111.4 Q17.85 114.55 14.7 112.4 11.45 110.3 13.5 107.0 13.3 109.7 15.55 111.35 17.8 113.0 20.05 111.4 M13.4 130.65 Q13.3 135.0 17.55 135.75 18.8 135.95 19.9 135.15 19.2 136.8 17.3 137.0 14.65 137.2 13.15 134.95 11.55 132.6 13.4 130.65 M13.3 154.45 Q13.05 157.2 15.3 158.85 17.55 160.45 19.8 158.85 17.7 162.0 14.45 159.9 10.95 157.55 13.3 154.45 M19.65 182.55 Q17.85 185.3 15.05 183.9 11.15 182.0 13.1 178.2 12.85 180.95 15.15 182.55 17.45 184.1 19.65 182.55 M19.6 206.3 Q17.4 209.4 14.2 207.25 10.9 204.95 13.0 201.85 12.8 204.6 15.0 206.25 17.35 207.9 19.6 206.3" fill="#47525f" fill-rule="evenodd" stroke="none"/>
    <path d="M3.95 211.05 L5.25 148.05 5.6 90.0 6.05 58.9 6.45 0.0 28.9 0.0 28.6 54.9 Q28.4 81.95 28.6 131.65 L28.85 211.05 25.3 211.05 25.5 201.2 24.85 211.05 8.2 211.05 8.35 143.2 Q7.45 172.95 6.5 211.05 L3.95 211.05 M19.35 19.35 L20.2 18.15 20.15 15.45 Q17.8 12.0 13.9 13.6 13.2 13.85 13.1 14.7 10.95 16.6 12.7 19.1 14.2 21.35 16.8 21.15 18.6 20.9 19.35 19.35 M19.35 43.05 L20.15 41.9 20.05 39.2 Q17.8 35.6 13.85 37.35 13.15 37.6 12.8 38.55 10.6 41.65 14.05 44.0 17.3 46.25 19.35 43.05 M20.2 63.9 L21.0 62.85 20.9 60.1 Q18.65 56.65 14.75 58.4 13.95 58.7 13.6 59.55 11.65 62.5 15.0 64.85 18.05 67.0 20.2 63.9 M20.15 87.65 L21.0 86.55 20.9 83.85 Q18.65 80.3 14.75 82.1 13.95 82.5 13.6 83.25 11.4 86.3 14.9 88.65 18.1 90.85 20.15 87.65 M13.5 107.0 Q11.45 110.3 14.7 112.4 17.85 114.55 20.05 111.4 L20.85 110.3 20.75 107.55 Q18.4 104.05 14.6 105.8 13.85 106.05 13.5 107.0 M19.9 135.15 L20.75 134.0 20.7 131.25 Q18.3 127.8 14.5 129.6 13.7 129.95 13.4 130.65 11.55 132.6 13.15 134.95 14.65 137.2 17.3 137.0 19.2 136.8 19.9 135.15 M13.3 154.45 Q10.95 157.55 14.45 159.9 17.7 162.0 19.8 158.85 L20.6 157.75 20.5 155.0 Q18.15 151.4 14.35 153.25 13.45 153.65 13.3 154.45 M13.1 178.2 Q11.15 182.0 15.05 183.9 17.85 185.3 19.65 182.55 L20.5 181.45 20.4 178.7 Q18.1 175.3 14.2 176.95 13.25 177.3 13.1 178.2 M13.0 201.85 Q10.9 204.95 14.2 207.25 17.4 209.4 19.6 206.3 L20.35 205.2 20.25 202.5 Q17.95 198.9 14.05 200.7 13.25 201.0 13.0 201.85" fill="url(#gradient0)" fill-rule="evenodd" stroke="none"/>
    <path d="M13.1 14.7 Q13.2 13.85 13.9 13.6 17.8 12.0 20.15 15.45 L20.2 18.15 19.35 19.35 Q15.2 21.25 13.5 16.7 13.1 15.8 13.1 14.7 M14.95 37.6 Q13.75 38.3 14.25 39.55 14.85 40.95 16.3 41.35 17.85 41.8 18.8 40.3 L18.75 38.6 Q17.2 36.3 14.95 37.6 M18.8 14.9 Q16.8 12.15 14.6 14.4 14.05 14.8 14.25 15.4 15.1 18.15 17.75 17.65 L18.9 16.6 18.8 14.9 M12.8 38.55 Q13.15 37.6 13.85 37.35 17.8 35.6 20.05 39.2 L20.15 41.9 19.35 43.05 Q18.25 43.85 16.95 43.6 12.7 42.9 12.8 38.55 M15.25 58.85 L15.2 60.4 15.6 60.95 Q17.45 63.8 19.65 61.2 L19.65 59.55 Q17.7 56.95 15.25 58.85 M20.2 63.9 Q18.4 65.25 16.45 64.3 13.5 62.9 13.6 59.55 13.95 58.7 14.75 58.4 18.65 56.65 20.9 60.1 L21.0 62.85 20.2 63.9 M13.6 83.25 Q13.95 82.5 14.75 82.1 18.65 80.3 20.9 83.85 L21.0 86.55 20.15 87.65 Q18.3 89.0 16.4 88.1 13.5 86.6 13.6 83.25 M15.25 82.6 Q14.8 84.45 16.35 85.55 18.25 87.05 19.65 84.95 L19.65 83.2 Q17.7 80.6 15.25 82.6 M20.05 111.4 Q17.8 113.0 15.55 111.35 13.3 109.7 13.5 107.0 13.85 106.05 14.6 105.8 18.4 104.05 20.75 107.55 L20.85 110.3 20.05 111.4 M16.3 129.25 Q15.6 129.4 15.05 130.05 14.8 134.0 18.2 133.1 L19.4 132.4 19.35 130.7 Q18.2 128.85 16.3 129.25 M15.45 106.25 Q14.5 106.9 14.95 108.0 15.65 109.6 17.45 109.8 18.9 109.95 19.55 108.7 L19.5 106.95 Q17.7 104.45 15.45 106.25 M19.9 135.15 Q18.8 135.95 17.55 135.75 13.3 135.0 13.4 130.65 13.7 129.95 14.5 129.6 18.3 127.8 20.7 131.25 L20.75 134.0 19.9 135.15 M14.9 153.8 Q14.3 156.25 16.75 157.1 18.4 157.65 19.25 156.15 L19.2 154.45 Q18.15 152.6 16.15 152.95 15.3 153.05 14.9 153.8 M19.8 158.85 Q17.55 160.45 15.3 158.85 13.05 157.2 13.3 154.45 13.45 153.65 14.35 153.25 18.15 151.4 20.5 155.0 L20.6 157.75 19.8 158.85 M15.05 177.4 Q14.15 178.05 14.7 179.1 16.55 182.55 19.15 179.85 L19.1 178.2 Q17.4 175.65 15.05 177.4 M19.65 182.55 Q17.45 184.1 15.15 182.55 12.85 180.95 13.1 178.2 13.25 177.3 14.2 176.95 18.1 175.3 20.4 178.7 L20.5 181.45 19.65 182.55 M14.85 201.4 Q14.0 202.95 15.75 204.2 17.6 205.55 19.05 203.6 L19.0 201.85 Q17.7 199.7 15.5 200.7 15.0 200.9 14.85 201.4 M13.0 201.85 Q13.25 201.0 14.05 200.7 17.95 198.9 20.25 202.5 L20.35 205.2 19.6 206.3 Q17.35 207.9 15.0 206.25 12.8 204.6 13.0 201.85" fill="#535353" fill-rule="evenodd" stroke="none"/>
    <path d="M18.8 14.9 L18.9 16.6 17.75 17.65 Q15.1 18.15 14.25 15.4 14.05 14.8 14.6 14.4 16.8 12.15 18.8 14.9 M14.95 37.6 Q17.2 36.3 18.75 38.6 L18.8 40.3 Q17.85 41.8 16.3 41.35 14.85 40.95 14.25 39.55 13.75 38.3 14.95 37.6 M15.25 58.85 Q17.7 56.95 19.65 59.55 L19.65 61.2 Q17.45 63.8 15.6 60.95 L15.2 60.4 15.25 58.85 M15.25 82.6 Q17.7 80.6 19.65 83.2 L19.65 84.95 Q18.25 87.05 16.35 85.55 14.8 84.45 15.25 82.6 M15.45 106.25 Q17.7 104.45 19.5 106.95 L19.55 108.7 Q18.9 109.95 17.45 109.8 15.65 109.6 14.95 108.0 14.5 106.9 15.45 106.25 M16.3 129.25 Q18.2 128.85 19.35 130.7 L19.4 132.4 18.2 133.1 Q14.8 134.0 15.05 130.05 15.6 129.4 16.3 129.25 M14.9 153.8 Q15.3 153.05 16.15 152.95 18.15 152.6 19.2 154.45 L19.25 156.15 Q18.4 157.65 16.75 157.1 14.3 156.25 14.9 153.8 M15.05 177.4 Q17.4 175.65 19.1 178.2 L19.15 179.85 Q16.55 182.55 14.7 179.1 14.15 178.05 15.05 177.4 M14.85 201.4 Q15.0 200.9 15.5 200.7 17.7 199.7 19.0 201.85 L19.05 203.6 Q17.6 205.55 15.75 204.2 14.0 202.95 14.85 201.4" fill="#9c9c9c" fill-rule="evenodd" stroke="none"/>
    <path d="M25.3 211.05 L24.85 211.05 25.5 201.2 25.3 211.05 M8.2 211.05 L6.5 211.05 Q7.45 172.95 8.35 143.2 L8.2 211.05" fill="#848484" fill-rule="evenodd" stroke="none"/>
  </g>
  <defs>
    <linearGradient gradientTransform="matrix(-6.0E-4, -0.3394, 0.0185, -0.0105, 14.05, 79.1)" gradientUnits="userSpaceOnUse" id="gradient0" spreadMethod="pad" x1="-819.2" x2="819.2">
      <stop offset="0.058823529411764705" stop-color="#969595"/>
      <stop offset="1.0" stop-color="#d1d1d2"/>
    </linearGradient>
  </defs>
</svg>
