<?xml version="1.0" encoding="UTF-8" standalone="no"?>
<svg xmlns:xlink="http://www.w3.org/1999/xlink" height="30.0px" width="556.5px" xmlns="http://www.w3.org/2000/svg">
  <g transform="matrix(1.0, 0.0, 0.0, 1.0, 0.0, 0.0)">
    <path d="M28.0 23.65 L0.4 23.9 Q-0.05 22.05 0.0 17.3 -0.05 11.3 0.6 0.75 10.85 0.0 77.9 0.0 143.85 0.0 263.2 0.75 L339.65 0.75 422.35 0.45 Q520.1 0.2 555.25 2.3 556.7 7.7 556.45 16.1 L556.05 22.45 555.3 28.45 553.1 28.4 553.8 27.2 431.7 24.0 Q395.6 23.35 355.3 22.85 L297.95 22.8 Q282.7 22.55 266.9 22.55 179.4 22.1 105.95 22.65 64.95 22.95 37.55 23.4 L28.0 23.65 M526.2 20.35 Q417.9 20.05 350.6 20.15 L460.35 22.7 551.2 24.35 552.35 6.45 407.65 3.65 527.15 11.25 526.9 11.75 526.2 12.7 Q523.1 16.7 526.2 20.35 M539.6 12.1 L540.9 12.2 544.0 20.4 536.65 20.35 537.65 18.8 538.4 18.0 Q540.6 15.3 539.6 12.1 M496.9 10.9 Q495.7 12.0 495.65 13.6 495.6 15.15 496.7 16.25 497.75 17.35 499.35 17.35 500.9 17.35 502.1 16.25 503.2 15.1 503.3 13.55 503.3 12.0 502.25 10.9 501.1 9.75 499.55 9.8 498.0 9.75 496.9 10.9 M477.35 9.1 Q475.8 9.1 474.6 10.25 473.4 11.35 473.4 12.95 473.35 14.45 474.45 15.6 475.55 16.7 477.15 16.75 478.65 16.7 479.85 15.6 481.0 14.45 481.05 12.95 481.1 11.35 480.0 10.25 478.9 9.1 477.35 9.1 M456.35 8.65 Q454.7 8.65 453.6 9.8 452.4 10.9 452.35 12.45 452.3 14.0 453.45 15.15 454.5 16.25 456.15 16.3 457.7 16.25 458.85 15.15 460.05 14.0 460.1 12.45 460.1 10.85 459.0 9.8 457.9 8.65 456.35 8.65 M430.85 15.2 Q432.55 17.25 435.0 15.6 437.15 14.15 437.1 11.7 437.0 10.0 435.45 9.2 L434.4 8.45 431.75 8.6 Q428.35 10.75 429.75 14.5 430.0 15.25 430.85 15.2 M412.4 9.25 L411.4 8.6 408.8 8.7 Q405.25 10.85 406.9 14.6 407.15 15.35 407.95 15.6 410.95 17.55 413.25 14.4 415.4 11.35 412.4 9.25 M389.4 9.25 L388.3 8.45 385.65 8.55 Q382.25 10.75 383.8 14.45 384.1 15.35 385.0 15.5 388.65 17.35 390.6 13.7 392.0 10.95 389.4 9.25 M361.7 15.4 Q364.75 17.6 367.15 14.3 369.25 11.15 366.15 9.15 L365.15 8.35 362.45 8.45 Q358.85 10.7 360.6 14.4 360.95 15.2 361.7 15.4 M342.9 9.05 L341.8 8.25 339.1 8.35 Q335.6 10.6 337.35 14.3 337.65 15.0 338.35 15.3 340.25 17.1 342.6 15.6 344.8 14.1 344.7 11.6 344.5 9.7 342.9 9.05 M319.45 8.95 L318.4 8.15 315.65 8.25 Q312.1 10.6 313.8 14.25 314.0 14.9 314.95 15.25 318.2 17.2 320.35 14.15 322.5 11.05 319.45 8.95 M295.85 8.85 L294.75 8.05 292.1 8.15 Q288.5 10.3 290.25 14.15 290.6 14.85 291.35 15.2 294.35 17.3 296.75 14.0 299.0 10.85 295.85 8.85 M272.1 8.85 L271.1 8.05 268.3 8.15 Q264.8 10.35 266.5 14.2 266.8 14.9 267.6 15.25 270.55 17.15 273.0 13.95 275.15 10.9 272.1 8.85 M251.1 9.7 L250.0 8.95 247.3 9.05 Q243.6 11.2 245.35 15.1 245.55 15.7 246.55 16.05 249.6 18.2 252.05 14.85 254.35 11.65 251.1 9.7 M227.2 9.7 L226.05 8.9 223.3 9.0 Q219.75 11.2 221.35 15.05 221.55 15.7 222.45 15.8 224.3 17.9 226.9 16.25 229.2 14.75 229.05 12.2 228.8 10.45 227.2 9.7 M198.3 15.75 Q201.1 18.2 203.65 15.25 206.35 12.15 203.05 9.6 L201.95 8.85 199.15 8.9 Q195.55 11.15 197.2 15.0 197.55 15.75 198.3 15.75 M178.85 9.55 L177.7 8.75 174.95 8.9 Q171.25 11.2 173.05 14.95 173.4 15.85 174.3 16.0 177.65 17.85 179.95 14.75 182.2 11.65 178.85 9.55 M154.45 9.5 L153.4 8.65 150.6 8.75 Q146.95 11.1 148.65 14.95 148.9 15.7 149.95 15.95 152.75 18.0 155.2 15.15 158.0 11.9 154.45 9.5 M130.0 9.65 L128.85 8.9 126.0 9.0 Q122.4 11.2 124.2 15.0 124.5 15.85 125.4 16.1 128.85 18.15 131.1 14.9 133.2 11.8 130.0 9.65 M100.6 15.8 Q101.45 16.75 102.4 17.0 L78.6 16.85 Q83.1 15.35 82.25 11.4 81.85 10.0 80.6 9.55 L79.5 8.7 76.6 8.8 Q72.9 11.05 74.75 14.95 75.05 15.7 75.95 16.0 L77.05 16.8 54.05 16.7 Q56.65 15.75 57.4 13.35 58.2 10.75 55.7 9.45 L54.55 8.65 51.65 8.75 Q47.95 11.1 49.9 14.95 50.2 15.6 51.05 15.95 L51.85 16.65 31.8 16.5 32.1 16.0 33.05 14.85 33.15 14.65 Q35.4 11.05 32.45 7.65 L123.5 3.15 4.0 3.7 Q4.5 11.0 6.95 21.7 21.3 19.75 69.55 18.3 97.65 17.3 117.0 17.1 L103.4 17.0 Q105.0 16.5 106.05 15.4 108.75 12.05 105.4 9.55 L104.25 8.75 101.35 8.9 Q97.7 11.2 99.4 15.0 99.75 15.85 100.6 15.8 M19.9 16.45 L14.4 16.45 13.25 8.6 22.25 8.15 21.35 9.45 20.5 10.4 Q18.2 13.3 19.9 16.45" fill="url(#gradient0)" fill-rule="evenodd" stroke="none"/>
    <path d="M527.15 11.25 Q527.7 10.3 528.7 9.55 529.4 8.85 530.25 8.45 L529.8 19.25 528.75 18.65 Q525.15 16.0 526.9 11.75 L527.15 11.25 M530.3 8.4 Q534.9 6.5 538.3 9.75 539.25 10.7 539.6 12.1 540.6 15.3 538.4 18.0 L537.65 18.8 Q536.2 19.95 534.0 19.95 L532.5 19.85 532.85 16.5 535.45 16.95 Q537.2 17.1 538.25 15.8 539.95 13.55 538.4 11.25 536.65 8.6 533.5 9.6 L533.65 7.85 530.3 8.4 M497.25 11.0 L498.85 10.95 Q500.2 11.8 499.75 13.55 L499.4 14.45 497.5 15.3 Q494.85 13.45 497.25 11.0 M475.25 14.7 L474.75 14.4 Q472.4 12.45 475.05 10.35 L476.6 10.3 Q478.5 11.6 477.15 13.85 L475.25 14.7 M454.0 9.9 L455.6 9.85 Q457.1 10.75 456.65 12.45 456.4 13.1 455.8 13.6 L454.25 14.2 Q452.95 13.85 452.6 12.55 452.45 11.85 453.05 11.05 453.45 10.4 454.0 9.9 M408.15 9.9 L409.85 9.85 Q411.7 11.15 410.35 13.0 409.05 14.6 407.6 13.85 407.1 13.65 406.95 13.25 406.0 11.05 408.15 9.9 M431.1 9.8 L432.75 9.75 433.75 10.8 Q434.25 13.25 431.55 14.1 430.9 14.2 430.4 13.65 428.7 11.35 431.1 9.8 M386.75 9.75 Q389.3 12.2 385.9 14.05 384.85 14.5 384.25 13.7 382.55 11.4 385.1 9.8 L386.75 9.75 M364.45 12.1 Q363.55 14.4 361.15 13.9 360.4 13.45 360.35 12.7 360.05 10.7 361.9 9.7 L363.55 9.65 Q365.0 10.45 364.45 12.1 M338.5 9.6 L340.2 9.6 340.85 10.75 Q341.65 13.95 337.8 13.8 337.15 13.2 337.05 12.6 336.65 10.7 338.5 9.6 M316.75 9.5 Q318.0 10.05 317.8 11.5 317.55 13.2 316.0 13.9 314.9 14.3 314.25 13.45 312.5 11.2 315.05 9.55 L316.75 9.5 M267.75 9.45 L269.4 9.4 Q271.95 11.5 269.1 13.3 L268.55 13.7 267.0 13.7 Q265.1 11.25 267.75 9.45 M291.4 9.4 L293.15 9.35 Q295.2 10.7 293.7 12.55 292.55 14.05 290.75 13.65 288.75 11.25 291.4 9.4 M246.65 10.35 L248.4 10.3 Q249.85 11.15 249.4 12.7 248.95 14.05 247.55 14.65 246.3 15.15 245.6 14.05 244.3 11.8 246.65 10.35 M225.5 11.35 Q225.95 13.85 223.15 14.7 222.55 14.9 222.15 14.4 219.9 12.2 222.7 10.3 L224.45 10.15 225.5 11.35 M176.1 10.05 L177.15 11.2 Q177.8 13.45 175.35 14.6 174.2 14.95 173.55 14.1 171.8 11.75 174.35 10.15 L176.1 10.05 M201.4 11.25 Q201.85 13.55 199.5 14.6 198.8 14.8 198.35 14.6 195.6 12.45 198.6 10.2 L200.3 10.15 201.4 11.25 M125.4 10.25 L127.25 10.2 Q129.85 12.8 126.25 14.45 124.45 15.2 124.0 13.2 123.6 11.25 125.4 10.25 M149.95 10.1 L151.65 10.05 Q154.25 12.55 150.9 14.45 150.15 14.85 149.6 14.45 147.35 12.1 149.95 10.1 M102.55 10.1 Q105.1 12.3 101.9 14.3 L100.85 14.7 100.1 14.5 Q98.1 12.05 100.85 10.2 L102.55 10.1 M75.95 10.15 L77.75 10.05 Q80.2 12.5 76.95 14.3 L75.0 14.25 Q73.5 11.7 75.95 10.15 M22.25 8.15 Q26.35 4.2 31.4 7.0 L32.45 7.65 Q35.4 11.05 33.15 14.65 L33.15 12.2 Q34.15 7.95 29.45 7.4 26.25 7.5 25.1 10.35 L22.0 9.7 20.75 11.45 21.35 9.45 22.25 8.15 M33.05 14.85 L32.1 16.0 Q29.2 17.7 25.8 16.9 20.95 15.9 20.75 11.65 L25.75 12.95 26.0 13.25 Q27.95 14.6 30.6 14.25 L33.05 14.85 M51.05 10.05 L52.8 9.95 Q55.15 11.6 53.25 13.6 51.75 15.1 50.1 14.2 48.7 11.6 51.05 10.05" fill="#9c9c9c" fill-rule="evenodd" stroke="none"/>
    <path d="M553.1 28.4 L551.55 30.0 428.65 27.0 Q356.35 26.0 265.8 26.1 180.35 26.1 106.95 27.0 69.5 27.35 43.45 27.9 41.15 27.55 38.15 27.85 L37.35 28.05 35.1 28.1 29.75 28.2 16.65 28.55 13.6 28.6 10.5 28.75 2.8 29.0 Q1.4 27.1 0.65 24.4 L28.0 23.65 37.55 23.4 Q64.95 22.95 105.95 22.65 179.4 22.1 266.9 22.55 282.7 22.55 297.95 22.8 L355.3 22.85 Q395.6 23.35 431.7 24.0 L553.8 27.2 553.1 28.4 M530.25 8.45 L530.3 8.4 533.65 7.85 533.5 9.6 532.85 16.5 532.5 19.85 534.0 19.95 Q536.2 19.95 537.65 18.8 L536.65 20.35 Q535.0 22.15 532.25 22.1 528.2 22.1 526.2 20.35 523.1 16.7 526.2 12.7 L526.9 11.75 Q525.15 16.0 528.75 18.65 L529.8 19.25 530.25 8.45 M435.45 9.2 Q437.0 10.0 437.1 11.7 437.15 14.15 435.0 15.6 432.55 17.25 430.85 15.2 L432.8 14.95 Q437.2 13.35 435.45 9.2 M407.95 15.6 Q410.65 15.75 412.3 13.7 413.95 11.4 412.4 9.25 415.4 11.35 413.25 14.4 410.95 17.55 407.95 15.6 M385.0 15.5 Q387.65 15.75 389.25 13.55 390.8 11.35 389.4 9.25 392.0 10.95 390.6 13.7 388.65 17.35 385.0 15.5 M366.15 9.15 Q369.25 11.15 367.15 14.3 364.75 17.6 361.7 15.4 364.45 15.6 366.1 13.5 367.7 11.25 366.15 9.15 M338.35 15.3 Q342.65 15.4 343.45 11.3 343.65 10.1 342.9 9.05 344.5 9.7 344.7 11.6 344.8 14.1 342.6 15.6 340.25 17.1 338.35 15.3 M314.95 15.25 Q317.6 15.45 319.3 13.3 321.0 11.1 319.45 8.95 322.5 11.05 320.35 14.15 318.2 17.2 314.95 15.25 M291.35 15.2 Q294.7 15.3 296.25 12.55 297.15 10.65 295.85 8.85 299.0 10.85 296.75 14.0 294.35 17.3 291.35 15.2 M267.6 15.25 Q271.0 15.35 272.45 12.55 273.45 10.6 272.1 8.85 275.15 10.9 273.0 13.95 270.55 17.15 267.6 15.25 M251.1 9.7 Q254.35 11.65 252.05 14.85 249.6 18.2 246.55 16.05 250.9 16.15 251.7 12.1 251.95 10.75 251.1 9.7 M222.45 15.8 L224.5 15.45 Q229.1 13.75 227.2 9.7 228.8 10.45 229.05 12.2 229.2 14.75 226.9 16.25 224.3 17.9 222.45 15.8 M203.05 9.6 Q206.35 12.15 203.65 15.25 201.1 18.2 198.3 15.75 201.95 16.25 203.45 13.3 204.4 11.15 203.05 9.6 M174.3 16.0 Q177.1 16.2 178.8 13.95 180.45 11.65 178.85 9.55 182.2 11.65 179.95 14.75 177.65 17.85 174.3 16.0 M149.95 15.95 Q152.75 16.2 154.5 13.95 156.15 11.65 154.45 9.5 158.0 11.9 155.2 15.15 152.75 18.0 149.95 15.95 M125.4 16.1 Q128.2 16.35 129.9 14.1 131.6 11.85 130.0 9.65 133.2 11.8 131.1 14.9 128.85 18.15 125.4 16.1 M100.6 15.8 Q105.2 16.2 106.05 11.95 106.2 10.6 105.4 9.55 108.75 12.05 106.05 15.4 105.0 16.5 103.4 17.0 L102.4 17.0 Q101.45 16.75 100.6 15.8 M75.95 16.0 Q78.9 16.25 80.6 14.0 82.2 11.7 80.6 9.55 81.85 10.0 82.25 11.4 83.1 15.35 78.6 16.85 L77.05 16.8 75.95 16.0 M54.05 16.7 L51.85 16.65 51.05 15.95 Q55.45 15.95 56.3 11.8 56.55 10.55 55.7 9.45 58.2 10.75 57.4 13.35 56.65 15.75 54.05 16.7 M31.8 16.5 Q30.25 19.3 26.9 19.35 22.45 19.35 19.9 16.45 18.2 13.3 20.5 10.4 L21.35 9.45 20.75 11.45 22.0 9.7 25.1 10.35 33.15 12.2 33.15 14.65 33.05 14.85 30.6 14.25 25.75 12.95 20.75 11.65 Q20.95 15.9 25.8 16.9 29.2 17.7 32.1 16.0 L31.8 16.5" fill="#47525f" fill-rule="evenodd" stroke="none"/>
    <path d="M527.15 11.25 L407.65 3.65 552.35 6.45 551.2 24.35 460.35 22.7 350.6 20.15 Q417.9 20.05 526.2 20.35 528.2 22.1 532.25 22.1 535.0 22.15 536.65 20.35 L544.0 20.4 540.9 12.2 539.6 12.1 Q539.25 10.7 538.3 9.75 534.9 6.5 530.3 8.4 L530.25 8.45 Q529.4 8.85 528.7 9.55 527.7 10.3 527.15 11.25" fill="#848484" fill-rule="evenodd" stroke="none"/>
    <path d="M533.5 9.6 Q536.65 8.6 538.4 11.25 539.95 13.55 538.25 15.8 537.2 17.1 535.45 16.95 L532.85 16.5 533.5 9.6 M25.1 10.35 Q26.25 7.5 29.45 7.4 34.15 7.95 33.15 12.2 L25.1 10.35 M30.6 14.25 Q27.95 14.6 26.0 13.25 L25.75 12.95 30.6 14.25" fill="#d5d4d4" fill-rule="evenodd" stroke="none"/>
    <path d="M497.25 11.0 Q494.85 13.45 497.5 15.3 L499.4 14.45 499.75 13.55 Q500.2 11.8 498.85 10.95 L497.25 11.0 M477.35 9.1 Q478.9 9.1 480.0 10.25 481.1 11.35 481.05 12.95 481.0 14.45 479.85 15.6 478.65 16.7 477.15 16.75 475.55 16.7 474.45 15.6 473.35 14.45 473.4 12.95 473.4 11.35 474.6 10.25 475.8 9.1 477.35 9.1 M496.9 10.9 Q498.0 9.75 499.55 9.8 501.1 9.75 502.25 10.9 503.3 12.0 503.3 13.55 503.2 15.1 502.1 16.25 500.9 17.35 499.35 17.35 497.75 17.35 496.7 16.25 495.6 15.15 495.65 13.6 495.7 12.0 496.9 10.9 M475.25 14.7 L477.15 13.85 Q478.5 11.6 476.6 10.3 L475.05 10.35 Q472.4 12.45 474.75 14.4 L475.25 14.7 M456.35 8.65 Q457.9 8.65 459.0 9.8 460.1 10.85 460.1 12.45 460.05 14.0 458.85 15.15 457.7 16.25 456.15 16.3 454.5 16.25 453.45 15.15 452.3 14.0 452.35 12.45 452.4 10.9 453.6 9.8 454.7 8.65 456.35 8.65 M454.0 9.9 Q453.45 10.4 453.05 11.05 452.45 11.85 452.6 12.55 452.95 13.85 454.25 14.2 L455.8 13.6 Q456.4 13.1 456.65 12.45 457.1 10.75 455.6 9.85 L454.0 9.9 M435.45 9.2 Q437.2 13.35 432.8 14.95 L430.85 15.2 Q430.0 15.25 429.75 14.5 428.35 10.75 431.75 8.6 L434.4 8.45 435.45 9.2 M431.1 9.8 Q428.7 11.35 430.4 13.65 430.9 14.2 431.55 14.1 434.25 13.25 433.75 10.8 L432.75 9.75 431.1 9.8 M408.15 9.9 Q406.0 11.05 406.95 13.25 407.1 13.65 407.6 13.85 409.05 14.6 410.35 13.0 411.7 11.15 409.85 9.85 L408.15 9.9 M407.95 15.6 Q407.15 15.35 406.9 14.6 405.25 10.85 408.8 8.7 L411.4 8.6 412.4 9.25 Q413.95 11.4 412.3 13.7 410.65 15.75 407.95 15.6 M386.75 9.75 L385.1 9.8 Q382.55 11.4 384.25 13.7 384.85 14.5 385.9 14.05 389.3 12.2 386.75 9.75 M385.0 15.5 Q384.1 15.35 383.8 14.45 382.25 10.75 385.65 8.55 L388.3 8.45 389.4 9.25 Q390.8 11.35 389.25 13.55 387.65 15.75 385.0 15.5 M361.7 15.4 Q360.95 15.2 360.6 14.4 358.85 10.7 362.45 8.45 L365.15 8.35 366.15 9.15 Q367.7 11.25 366.1 13.5 364.45 15.6 361.7 15.4 M364.45 12.1 Q365.0 10.45 363.55 9.65 L361.9 9.7 Q360.05 10.7 360.35 12.7 360.4 13.45 361.15 13.9 363.55 14.4 364.45 12.1 M342.9 9.05 Q343.65 10.1 343.45 11.3 342.65 15.4 338.35 15.3 337.65 15.0 337.35 14.3 335.6 10.6 339.1 8.35 L341.8 8.25 342.9 9.05 M338.5 9.6 Q336.65 10.7 337.05 12.6 337.15 13.2 337.8 13.8 341.65 13.95 340.85 10.75 L340.2 9.6 338.5 9.6 M314.95 15.25 Q314.0 14.9 313.8 14.25 312.1 10.6 315.65 8.25 L318.4 8.15 319.45 8.95 Q321.0 11.1 319.3 13.3 317.6 15.45 314.95 15.25 M316.75 9.5 L315.05 9.55 Q312.5 11.2 314.25 13.45 314.9 14.3 316.0 13.9 317.55 13.2 317.8 11.5 318.0 10.05 316.75 9.5 M291.35 15.2 Q290.6 14.85 290.25 14.15 288.5 10.3 292.1 8.15 L294.75 8.05 295.85 8.85 Q297.15 10.65 296.25 12.55 294.7 15.3 291.35 15.2 M291.4 9.4 Q288.75 11.25 290.75 13.65 292.55 14.05 293.7 12.55 295.2 10.7 293.15 9.35 L291.4 9.4 M267.75 9.45 Q265.1 11.25 267.0 13.7 L268.55 13.7 269.1 13.3 Q271.95 11.5 269.4 9.4 L267.75 9.45 M267.6 15.25 Q266.8 14.9 266.5 14.2 264.8 10.35 268.3 8.15 L271.1 8.05 272.1 8.85 Q273.45 10.6 272.45 12.55 271.0 15.35 267.6 15.25 M246.65 10.35 Q244.3 11.8 245.6 14.05 246.3 15.15 247.55 14.65 248.95 14.05 249.4 12.7 249.85 11.15 248.4 10.3 L246.65 10.35 M246.55 16.05 Q245.55 15.7 245.35 15.1 243.6 11.2 247.3 9.05 L250.0 8.95 251.1 9.7 Q251.95 10.75 251.7 12.1 250.9 16.15 246.55 16.05 M225.5 11.35 L224.45 10.15 222.7 10.3 Q219.9 12.2 222.15 14.4 222.55 14.9 223.15 14.7 225.95 13.85 225.5 11.35 M222.45 15.8 Q221.55 15.7 221.35 15.05 219.75 11.2 223.3 9.0 L226.05 8.9 227.2 9.7 Q229.1 13.75 224.5 15.45 L222.45 15.8 M203.05 9.6 Q204.4 11.15 203.45 13.3 201.95 16.25 198.3 15.75 197.55 15.75 197.2 15.0 195.55 11.15 199.15 8.9 L201.95 8.85 203.05 9.6 M201.4 11.25 L200.3 10.15 198.6 10.2 Q195.6 12.45 198.35 14.6 198.8 14.8 199.5 14.6 201.85 13.55 201.4 11.25 M176.1 10.05 L174.35 10.15 Q171.8 11.75 173.55 14.1 174.2 14.95 175.35 14.6 177.8 13.45 177.15 11.2 L176.1 10.05 M174.3 16.0 Q173.4 15.85 173.05 14.95 171.25 11.2 174.95 8.9 L177.7 8.75 178.85 9.55 Q180.45 11.65 178.8 13.95 177.1 16.2 174.3 16.0 M149.95 15.95 Q148.9 15.7 148.65 14.95 146.95 11.1 150.6 8.75 L153.4 8.65 154.45 9.5 Q156.15 11.65 154.5 13.95 152.75 16.2 149.95 15.95 M149.95 10.1 Q147.35 12.1 149.6 14.45 150.15 14.85 150.9 14.45 154.25 12.55 151.65 10.05 L149.95 10.1 M125.4 10.25 Q123.6 11.25 124.0 13.2 124.45 15.2 126.25 14.45 129.85 12.8 127.25 10.2 L125.4 10.25 M125.4 16.1 Q124.5 15.85 124.2 15.0 122.4 11.2 126.0 9.0 L128.85 8.9 130.0 9.65 Q131.6 11.85 129.9 14.1 128.2 16.35 125.4 16.1 M102.55 10.1 L100.85 10.2 Q98.1 12.05 100.1 14.5 L100.85 14.7 101.9 14.3 Q105.1 12.3 102.55 10.1 M105.4 9.55 Q106.2 10.6 106.05 11.95 105.2 16.2 100.6 15.8 99.75 15.85 99.4 15.0 97.7 11.2 101.35 8.9 L104.25 8.75 105.4 9.55 M75.95 16.0 Q75.05 15.7 74.75 14.95 72.9 11.05 76.6 8.8 L79.5 8.7 80.6 9.55 Q82.2 11.7 80.6 14.0 78.9 16.25 75.95 16.0 M75.95 10.15 Q73.5 11.7 75.0 14.25 L76.95 14.3 Q80.2 12.5 77.75 10.05 L75.95 10.15 M51.05 10.05 Q48.7 11.6 50.1 14.2 51.75 15.1 53.25 13.6 55.15 11.6 52.8 9.95 L51.05 10.05 M51.05 15.95 Q50.2 15.6 49.9 14.95 47.95 11.1 51.65 8.75 L54.55 8.65 55.7 9.45 Q56.55 10.55 56.3 11.8 55.45 15.95 51.05 15.95" fill="#535353" fill-rule="evenodd" stroke="none"/>
    <path d="M102.4 17.0 L103.4 17.0 117.0 17.1 Q97.65 17.3 69.55 18.3 21.3 19.75 6.95 21.7 4.5 11.0 4.0 3.7 L123.5 3.15 32.45 7.65 31.4 7.0 Q26.35 4.2 22.25 8.15 L13.25 8.6 14.4 16.45 19.9 16.45 Q22.45 19.35 26.9 19.35 30.25 19.3 31.8 16.5 L51.85 16.65 54.05 16.7 77.05 16.8 78.6 16.85 102.4 17.0" fill="#a09fa0" fill-rule="evenodd" stroke="none"/>
  </g>
  <defs>
    <linearGradient gradientTransform="matrix(-0.3394, 6.0E-4, -0.0105, -0.0185, 278.45, 15.25)" gradientUnits="userSpaceOnUse" id="gradient0" spreadMethod="pad" x1="-819.2" x2="819.2">
      <stop offset="0.058823529411764705" stop-color="#969595"/>
      <stop offset="1.0" stop-color="#d1d1d2"/>
    </linearGradient>
  </defs>
</svg>
