<?xml version="1.0" encoding="UTF-8" standalone="no"?>
<svg xmlns:xlink="http://www.w3.org/1999/xlink" height="36.5px" width="147.7px" xmlns="http://www.w3.org/2000/svg">
  <g transform="matrix(1.0, 0.0, 0.0, 1.0, 73.85, 18.25)">
    <path d="M65.5 -17.5 Q68.65 -17.5 70.85 -14.6 73.05 -11.65 73.1 -7.5 L73.1 7.5 Q73.05 11.65 70.85 14.55 68.65 17.5 65.5 17.5 L-65.5 17.5 Q-68.65 17.5 -70.9 14.55 -73.1 11.65 -73.1 7.5 L-73.1 -7.5 Q-73.1 -11.65 -70.9 -14.6 -68.65 -17.5 -65.5 -17.5 L65.5 -17.5" fill="#003366" fill-rule="evenodd" stroke="none"/>
    <path d="M65.5 -17.5 L-65.5 -17.5 Q-68.65 -17.5 -70.9 -14.6 -73.1 -11.65 -73.1 -7.5 L-73.1 7.5 Q-73.1 11.65 -70.9 14.55 -68.65 17.5 -65.5 17.5 L65.5 17.5 Q68.65 17.5 70.85 14.55 73.05 11.65 73.1 7.5 L73.1 -7.5 Q73.05 -11.65 70.85 -14.6 68.65 -17.5 65.5 -17.5 Z" fill="none" stroke="#d4d0c8" stroke-linecap="round" stroke-linejoin="round" stroke-width="1.5"/>
  </g>
</svg>
