<?xml version="1.0" encoding="UTF-8" standalone="no"?>
<svg xmlns:xlink="http://www.w3.org/1999/xlink" height="265.8px" width="333.75px" xmlns="http://www.w3.org/2000/svg">
  <g transform="matrix(1.0, 0.0, 0.0, 1.0, -0.05, -0.05)">
    <path d="M269.25 198.1 L270.2 204.7 271.05 264.35 270.45 265.65 269.55 265.85 59.9 265.2 59.15 265.0 58.45 264.05 61.15 201.15 Q55.6 216.8 47.7 232.05 L44.4 231.9 Q44.75 231.95 45.05 234.9 44.55 241.25 42.65 246.85 L39.55 247.85 39.3 258.05 30.0 263.2 29.35 262.8 2.15 244.15 6.7 229.15 0.9 228.65 0.05 227.2 1.4 184.1 1.5 183.6 24.0 125.3 24.3 124.85 70.05 73.15 Q84.15 64.5 107.95 56.55 L107.95 56.6 110.4 55.15 148.85 0.7 Q149.4 0.35 150.05 0.35 167.25 0.05 184.45 0.05 L214.65 52.9 Q239.05 60.8 262.45 70.45 L295.6 102.9 323.0 149.6 323.2 150.15 333.8 225.3 333.3 226.55 327.35 227.25 331.85 242.85 304.2 261.35 295.35 256.9 294.7 246.35 291.2 244.5 290.75 243.35 Q290.0 240.75 289.7 238.2 L289.55 235.35 Q289.6 232.1 290.65 228.85 L291.45 228.0 291.85 227.85 292.0 227.5 291.85 227.15 291.45 227.0 291.4 226.9 291.55 226.35 330.6 224.1 320.3 150.9 293.35 104.9 260.6 72.8 239.2 64.15 259.55 134.05 268.5 193.4 266.4 193.5 266.2 194.05 Q266.15 194.6 266.45 195.0 267.7 196.65 269.25 198.1 M328.75 241.65 L324.25 227.35 293.6 228.75 291.45 233.55 293.75 242.8 295.95 243.35 305.95 240.3 306.3 241.85 297.55 245.95 297.55 254.6 303.95 258.15 328.75 241.65 M183.4 18.1 L183.65 17.2 Q184.3 16.65 185.0 17.2 L185.3 17.5 Q186.45 26.2 180.85 32.9 178.9 32.85 177.1 31.7 175.15 30.4 175.95 28.6 L176.35 28.4 180.1 30.6 Q184.05 25.6 183.4 18.1 M167.9 35.95 L172.15 35.55 173.1 34.25 170.85 29.05 170.9 27.95 171.9 27.55 172.1 27.75 Q175.2 31.05 174.75 35.5 L175.6 35.45 177.6 35.4 Q182.75 35.45 187.45 38.1 197.9 43.85 207.2 51.7 L207.25 52.6 Q199.15 58.45 189.2 60.8 183.2 62.3 177.2 62.75 L170.15 62.8 166.6 62.55 165.9 62.55 154.95 61.9 144.1 60.45 133.45 58.1 Q130.7 57.3 128.25 55.7 L125.1 53.45 Q123.15 53.3 123.4 51.3 L123.4 50.2 Q134.4 42.85 146.8 39.25 L157.2 37.0 159.25 36.7 Q157.55 35.3 157.55 33.0 L158.45 32.1 158.55 32.15 Q159.7 32.85 160.2 34.6 L160.6 35.0 Q164.25 36.0 167.9 35.95 M173.8 48.3 Q158.25 47.1 142.9 49.5 135.05 50.8 127.4 52.8 132.7 56.75 139.35 57.7 157.95 60.7 176.8 60.75 L186.8 59.7 Q195.65 57.7 203.35 52.9 190.55 49.7 177.55 48.65 L173.8 48.3 M169.8 37.7 Q147.25 38.8 127.45 49.7 138.2 46.8 149.05 45.75 175.4 43.3 201.25 49.35 L197.35 46.3 Q188.4 38.85 177.5 37.5 L169.8 37.7 M198.55 40.3 L206.2 44.0 182.7 2.8 150.8 3.0 113.65 56.0 Q136.35 65.85 160.55 70.9 167.2 72.3 173.55 70.35 183.45 67.4 192.85 63.5 202.3 59.5 210.95 54.0 L211.1 53.85 207.3 46.85 197.45 41.25 198.55 40.3 M190.35 93.5 L216.3 57.4 214.65 55.95 189.6 67.6 186.35 91.15 190.35 93.5 M185.95 94.35 L185.0 99.65 188.6 95.95 185.95 94.35 M173.9 87.85 L182.7 96.15 186.45 68.85 173.65 73.4 173.9 87.85 M170.7 74.2 L166.4 74.85 160.15 73.95 160.65 86.0 171.2 85.45 170.7 74.2 M231.5 61.05 L229.4 86.9 216.9 92.3 222.0 95.5 226.95 98.8 Q227.55 99.15 227.8 100.0 L227.6 100.75 142.8 165.05 137.55 260.9 137.45 261.5 137.0 261.9 136.8 262.1 Q135.8 262.45 135.15 261.85 L134.8 261.35 134.55 260.75 139.85 164.2 156.15 141.1 110.6 103.7 110.1 102.95 110.15 102.05 116.55 97.3 111.75 96.2 106.95 95.05 Q101.2 94.15 96.3 92.1 L95.45 62.85 Q88.65 66.65 81.8 70.4 L66.0 157.75 61.45 262.15 268.0 262.8 267.15 204.7 256.6 134.85 235.55 62.7 231.5 61.05 M212.25 91.35 L226.8 85.05 228.55 60.15 219.0 58.8 148.45 157.0 223.6 100.1 212.6 92.65 212.25 91.35 M175.4 114.35 L159.05 127.05 162.35 132.5 175.4 114.35 M183.9 100.75 L170.2 88.5 159.7 89.05 143.55 100.65 143.15 100.5 141.2 92.2 137.0 96.5 144.55 107.25 170.5 114.35 183.9 100.75 M147.25 18.0 L148.1 17.35 149.1 17.8 149.2 18.6 Q146.8 27.1 154.4 31.35 L154.7 32.1 153.8 33.1 Q144.6 28.35 147.25 18.0 M122.05 46.15 L131.1 39.9 131.85 40.05 132.25 40.7 132.1 41.45 122.6 47.3 122.05 46.15 M109.15 58.95 L134.75 94.5 140.7 88.4 138.2 67.95 110.2 58.2 109.15 58.95 M121.4 97.05 L114.05 102.65 157.9 138.7 160.35 135.3 105.95 59.65 98.5 63.65 99.1 90.15 120.95 95.8 121.4 97.05 M157.7 86.85 L157.1 73.2 141.35 68.85 144.75 96.35 157.7 86.85 M72.05 75.35 L26.65 126.6 4.35 184.45 3.05 225.8 46.3 228.95 61.45 192.45 63.0 157.55 78.45 72.15 72.05 75.35 M157.35 124.55 L167.55 116.65 147.4 111.15 157.35 124.55 M40.9 231.6 L9.7 229.35 5.3 243.4 30.1 259.9 36.45 256.4 36.5 247.7 27.8 243.4 28.3 241.9 29.2 241.6 38.15 245.1 40.3 244.55 42.6 235.35 40.9 231.6" fill="#1a1a1a" fill-rule="evenodd" stroke="none"/>
    <path d="M174.45 20.35 L176.2 20.2 Q175.25 21.25 175.15 23.7 175.35 27.65 177.65 28.05 179.95 27.65 180.2 23.7 180.0 20.4 178.4 19.6 L183.4 18.1 Q184.05 25.6 180.1 30.6 L176.35 28.4 175.95 28.6 175.55 28.0 Q173.75 24.45 174.45 20.35 M149.2 18.6 L152.55 19.75 Q155.1 20.65 156.3 20.25 L156.9 21.25 Q156.3 20.65 155.45 20.5 153.15 20.85 152.95 24.85 153.15 28.8 155.45 29.2 L156.35 28.9 155.7 30.85 Q155.6 31.85 154.7 32.1 L154.4 31.35 Q146.8 27.1 149.2 18.6" fill="#ffffff" fill-rule="evenodd" stroke="none"/>
    <path d="M269.25 198.1 Q267.7 196.65 266.45 195.0 266.15 194.6 266.2 194.05 L266.4 193.5 268.5 193.4 278.9 202.85 280.9 226.0 290.0 226.0 291.0 226.55 291.4 226.9 291.45 227.0 291.45 228.0 290.65 228.85 290.0 228.9 280.55 229.0 Q278.65 229.35 278.45 227.6 277.0 215.95 276.05 204.25 L269.25 198.1 M185.3 17.5 L185.0 17.2 Q184.3 16.65 183.65 17.2 L183.4 18.1 178.4 19.6 Q180.0 20.4 180.2 23.7 179.95 27.65 177.65 28.05 175.35 27.65 175.15 23.7 175.25 21.25 176.2 20.2 L174.45 20.35 Q173.35 20.25 172.85 19.75 172.9 18.15 178.2 15.3 183.5 12.4 185.45 13.45 187.8 16.3 185.3 17.5 M147.25 18.0 Q144.05 16.95 146.35 13.9 147.95 12.9 152.4 15.6 156.8 18.3 156.85 19.85 L156.3 20.25 Q155.1 20.65 152.55 19.75 L149.2 18.6 149.1 17.8 148.1 17.35 147.25 18.0 M156.9 21.25 Q157.85 22.3 158.0 24.85 157.8 27.95 156.35 28.9 L155.45 29.2 Q153.15 28.8 152.95 24.85 153.15 20.85 155.45 20.5 156.3 20.65 156.9 21.25" fill="#000000" fill-rule="evenodd" stroke="none"/>
    <path d="M169.8 37.7 L177.5 37.5 Q188.4 38.85 197.35 46.3 L201.25 49.35 Q175.4 43.3 149.05 45.75 138.2 46.8 127.45 49.7 147.25 38.8 169.8 37.7 M173.8 48.3 L177.55 48.65 Q190.55 49.7 203.35 52.9 195.65 57.7 186.8 59.7 L176.8 60.75 Q157.95 60.7 139.35 57.7 132.7 56.75 127.4 52.8 135.05 50.8 142.9 49.5 158.25 47.1 173.8 48.3" fill="#96a0ce" fill-rule="evenodd" stroke="none"/>
    <path d="M185.95 94.35 L188.6 95.95 185.0 99.65 185.95 94.35" fill="#cacfe6" fill-rule="evenodd" stroke="none"/>
    <path d="M268.5 193.4 L259.55 134.05 239.2 64.15 260.6 72.8 293.35 104.9 320.3 150.9 330.6 224.1 291.55 226.35 291.4 226.9 291.0 226.55 290.0 226.0 280.9 226.0 278.9 202.85 268.5 193.4 M175.4 114.35 L162.35 132.5 159.05 127.05 175.4 114.35 M212.25 91.35 L212.6 92.65 223.6 100.1 148.45 157.0 219.0 58.8 228.55 60.15 226.8 85.05 212.25 91.35 M231.5 61.05 L235.55 62.7 256.6 134.85 267.15 204.7 268.0 262.8 61.45 262.15 66.0 157.75 81.8 70.4 Q88.65 66.65 95.45 62.85 L96.3 92.1 Q101.2 94.15 106.95 95.05 L111.75 96.2 116.55 97.3 110.15 102.05 110.1 102.95 110.6 103.7 156.15 141.1 139.85 164.2 134.55 260.75 134.8 261.35 135.15 261.85 Q135.8 262.45 136.8 262.1 L137.0 261.9 137.45 261.5 137.55 260.9 142.8 165.05 227.6 100.75 227.8 100.0 Q227.55 99.15 226.95 98.8 L222.0 95.5 216.9 92.3 229.4 86.9 231.5 61.05 M121.4 97.05 L120.95 95.8 99.1 90.15 98.5 63.65 105.95 59.65 160.35 135.3 157.9 138.7 114.05 102.65 121.4 97.05 M157.35 124.55 L147.4 111.15 167.55 116.65 157.35 124.55 M72.05 75.35 L78.45 72.15 63.0 157.55 61.45 192.45 46.3 228.95 3.05 225.8 4.35 184.45 26.65 126.6 72.05 75.35" fill="#3a3d6a" fill-rule="evenodd" stroke="none"/>
    <path d="M291.45 227.0 L291.85 227.15 292.0 227.5 291.85 227.85 291.45 228.0 291.45 227.0" fill="#003399" fill-rule="evenodd" stroke="none"/>
    <path d="M170.7 74.2 L171.2 85.45 160.65 86.0 160.15 73.95 166.4 74.85 170.7 74.2 M173.9 87.85 L173.65 73.4 186.45 68.85 182.7 96.15 173.9 87.85 M157.7 86.85 L144.75 96.35 141.35 68.85 157.1 73.2 157.7 86.85" fill="#8b3425" fill-rule="evenodd" stroke="none"/>
    <path d="M328.75 241.65 L303.95 258.15 297.55 254.6 297.55 245.95 306.3 241.85 305.95 240.3 295.95 243.35 293.75 242.8 291.45 233.55 293.6 228.75 324.25 227.35 328.75 241.65 M185.3 17.5 Q187.8 16.3 185.45 13.45 183.5 12.4 178.2 15.3 172.9 18.15 172.85 19.75 173.35 20.25 174.45 20.35 173.75 24.45 175.55 28.0 L175.95 28.6 Q175.15 30.4 177.1 31.7 178.9 32.85 180.85 32.9 186.45 26.2 185.3 17.5 M144.1 60.45 L154.95 61.9 165.9 62.55 166.6 62.55 170.15 62.8 177.2 62.75 Q183.2 62.3 189.2 60.8 199.15 58.45 207.25 52.6 L207.2 51.7 Q197.9 43.85 187.45 38.1 182.75 35.45 177.6 35.4 L175.6 35.45 174.75 35.5 Q175.2 31.05 172.1 27.75 L171.9 27.55 170.9 27.95 170.85 29.05 173.1 34.25 172.15 35.55 167.9 35.95 160.85 35.0 160.4 34.6 Q159.9 32.8 158.6 32.1 L158.55 32.15 158.45 32.1 157.55 33.0 Q157.55 35.3 159.25 36.7 L157.2 37.0 146.8 39.25 Q134.4 42.85 123.4 50.2 L123.4 51.3 Q123.15 53.3 125.1 53.45 L128.25 55.7 Q130.7 57.3 133.45 58.1 L133.4 58.35 144.1 60.45 M198.55 40.3 L197.45 41.25 207.3 46.85 211.1 53.85 210.95 54.0 Q202.3 59.5 192.85 63.5 183.45 67.4 173.55 70.35 167.2 72.3 160.55 70.9 136.35 65.85 113.65 56.0 L150.8 3.0 182.7 2.8 206.2 44.0 198.55 40.3 M156.3 20.25 L156.85 19.85 Q156.8 18.3 152.4 15.6 147.95 12.9 146.35 13.9 144.05 16.95 147.25 18.0 144.6 28.35 153.8 33.1 L154.7 32.1 Q155.6 31.85 155.7 30.85 L156.35 28.9 Q157.8 27.95 158.0 24.85 157.85 22.3 156.9 21.25 L156.3 20.25 M122.05 46.15 L122.6 47.3 132.1 41.45 132.25 40.7 131.85 40.05 131.1 39.9 122.05 46.15 M40.9 231.6 L42.6 235.35 40.3 244.55 38.15 245.1 29.2 241.6 28.3 241.9 27.8 243.4 36.5 247.7 36.45 256.4 30.1 259.9 5.3 243.4 9.7 229.35 40.9 231.6" fill="#c2c6de" fill-rule="evenodd" stroke="none"/>
    <path d="M190.35 93.5 L186.35 91.15 189.6 67.6 214.65 55.95 216.3 57.4 190.35 93.5 M183.9 100.75 L170.5 114.35 144.55 107.25 137.0 96.5 141.2 92.2 143.15 100.5 143.55 100.65 159.7 89.05 170.2 88.5 183.9 100.75 M109.15 58.95 L110.2 58.2 138.2 67.95 140.7 88.4 134.75 94.5 109.15 58.95" fill="#d7dcec" fill-rule="evenodd" stroke="none"/>
  </g>
</svg>
