<?xml version="1.0" encoding="UTF-8" standalone="no"?>
<svg xmlns:xlink="http://www.w3.org/1999/xlink" height="253.75px" width="123.4px" xmlns="http://www.w3.org/2000/svg">
  <g transform="matrix(1.0, 0.0, 0.0, 1.0, 0.0, 0.0)">
    <path d="M81.85 18.4 L82.05 9.3 72.4 2.85 50.85 2.85 43.0 10.2 43.45 16.8 45.55 46.35 46.25 45.75 Q50.15 43.05 54.2 45.8 59.3 49.3 63.3 54.25 L64.25 55.85 64.05 56.35 63.6 55.85 63.25 69.55 69.05 67.95 69.45 65.4 70.55 64.45 71.35 65.15 71.15 68.7 72.3 69.15 73.65 72.1 Q78.2 81.6 80.25 91.95 L81.85 18.4 M85.0 8.25 L85.05 8.9 82.75 113.9 Q98.15 119.25 112.15 127.25 L120.3 175.85 121.95 228.05 Q123.55 232.25 123.4 236.8 L123.15 244.35 101.55 253.55 98.1 250.3 97.5 253.1 96.5 253.55 31.8 253.55 30.85 253.1 30.2 249.35 25.45 253.75 Q14.6 249.35 4.05 243.95 L4.35 228.35 0.0 203.35 0.0 202.9 4.65 169.55 16.65 126.35 Q31.55 119.4 46.65 113.65 L39.9 9.35 44.25 5.45 Q46.4 3.65 49.05 2.85 60.95 -0.7 73.65 0.15 L85.0 8.25 M61.1 55.3 L52.8 48.55 Q50.7 46.9 48.35 47.65 L47.5 49.05 48.95 52.5 48.45 53.55 47.1 53.9 45.85 52.95 49.1 101.2 Q49.8 87.85 54.95 75.4 56.3 72.2 56.9 68.85 57.3 66.7 58.45 64.7 L59.85 64.95 59.6 68.25 61.1 69.4 61.1 55.3 M51.3 54.25 L51.7 54.0 57.9 54.2 58.45 55.1 58.05 55.8 57.1 56.1 Q56.65 56.95 55.5 57.1 54.25 56.95 54.15 56.0 L51.65 55.85 51.1 55.3 51.3 54.25 M79.05 47.4 L78.6 47.0 Q77.75 46.0 77.9 44.5 L66.6 52.25 65.8 52.15 Q64.45 50.55 66.1 49.15 72.0 43.85 79.45 41.35 81.85 42.6 80.85 45.6 L80.5 46.55 79.05 47.4 M68.95 53.75 L77.05 53.5 77.45 54.3 76.85 55.25 75.5 55.25 75.6 55.1 72.65 55.0 71.5 55.25 69.4 55.25 68.85 54.7 68.95 53.75 M70.35 69.45 L68.55 70.2 Q62.05 72.4 58.75 70.05 52.15 85.8 49.8 102.3 L49.05 101.45 49.95 114.95 Q55.2 117.15 61.0 117.6 70.8 117.8 79.75 113.85 80.3 108.1 79.65 102.05 77.85 84.85 70.35 69.45 M55.75 97.65 L56.45 96.25 Q58.3 92.75 61.35 90.45 63.85 88.5 66.8 89.75 72.65 92.2 74.85 98.15 L75.6 99.8 75.8 100.35 76.45 102.05 78.05 107.25 77.1 108.05 Q76.5 108.3 76.35 107.65 74.25 99.4 68.5 93.1 67.05 91.55 64.9 91.6 62.9 91.4 61.5 93.1 56.9 98.6 54.8 105.4 53.9 108.4 52.1 110.9 L51.0 110.0 52.45 106.6 54.25 101.6 55.75 97.65 M65.0 120.6 L63.2 120.6 62.8 126.4 65.0 126.1 65.0 120.6 M78.2 117.65 L74.8 118.9 74.25 125.8 78.2 117.65 M71.8 118.7 L68.0 120.1 67.9 128.0 70.9 129.9 71.8 118.7 M53.3 119.05 L49.8 118.05 52.9 127.45 53.3 127.15 53.3 119.05 M60.25 120.2 L56.3 119.1 56.3 129.0 59.7 127.2 60.25 120.2 M53.9 132.65 L53.3 130.75 52.95 131.0 54.45 137.15 64.3 142.55 Q68.55 138.7 71.2 133.65 L65.3 129.95 61.5 129.65 55.05 133.0 53.9 132.65 M110.0 132.45 L103.0 144.3 99.3 225.05 106.45 218.15 106.85 218.15 107.25 218.2 Q111.8 219.6 116.05 221.7 117.6 222.55 118.8 224.05 L117.3 176.2 110.0 132.45 M81.8 132.7 L86.7 136.55 87.0 137.3 86.65 138.4 54.0 179.4 54.65 250.55 95.1 250.55 95.25 247.45 92.9 244.95 Q92.85 244.35 92.95 243.85 L93.65 240.35 Q94.9 235.35 95.0 230.35 95.0 229.0 96.15 228.2 L100.0 143.75 108.7 128.7 94.4 121.25 81.8 132.7 M59.3 151.85 L61.8 154.65 66.15 144.95 59.3 151.85 M57.8 163.6 L58.7 162.5 58.55 161.95 57.8 163.6 M31.35 123.8 L19.85 127.8 28.65 152.4 32.3 229.3 Q32.7 230.4 32.75 231.7 L32.8 232.8 Q32.75 238.85 34.6 244.6 L33.1 246.5 33.25 250.55 51.65 250.55 50.65 178.5 51.85 177.0 57.5 164.3 36.3 137.7 36.05 136.65 36.35 136.2 Q39.15 133.15 42.3 130.65 L31.35 123.8 M19.35 141.75 L17.8 133.4 7.55 170.15 2.95 203.05 6.95 226.05 10.7 221.4 11.0 221.05 11.4 220.85 20.1 218.2 20.9 218.15 29.15 226.15 25.7 152.9 19.35 141.75 M62.1 144.8 L55.7 141.25 57.95 148.95 62.1 144.8 M78.15 132.45 Q78.2 132.05 78.5 131.8 L91.3 120.05 82.0 116.85 61.6 162.5 60.65 163.5 60.8 164.4 59.05 168.25 83.35 137.75 78.5 133.5 Q78.1 133.1 78.15 132.45 M46.35 130.4 L46.25 130.8 46.0 131.15 39.55 136.95 58.0 160.1 45.5 117.2 34.6 122.3 45.5 129.35 Q46.2 129.75 46.35 130.4 M15.85 231.6 L16.05 231.05 Q16.1 230.95 16.25 230.9 L17.6 230.55 17.9 230.95 18.3 231.85 19.0 235.7 19.5 239.4 26.05 239.15 29.45 235.15 29.65 230.85 20.1 221.3 12.7 223.55 7.3 230.5 6.7 242.3 24.85 250.45 31.45 243.85 29.85 239.05 26.85 242.1 17.65 242.3 17.2 241.65 Q16.55 239.15 16.25 236.65 L15.85 231.6 M97.45 239.15 L95.9 243.9 102.45 250.45 120.6 242.3 120.05 230.55 114.6 223.55 107.25 221.3 97.7 230.85 97.9 235.2 101.25 239.15 107.75 239.4 109.1 231.05 110.3 230.45 111.55 231.6 110.5 241.7 100.15 242.0 97.45 239.15" fill="#1a1a1a" fill-rule="evenodd" stroke="none"/>
    <path d="M43.45 16.8 L43.0 10.2 50.85 2.85 72.4 2.85 82.05 9.3 81.85 18.4 Q79.8 16.25 77.15 15.35 73.8 14.45 71.1 17.05 66.3 21.7 62.75 27.5 60.1 22.6 56.05 18.5 50.9 13.4 44.8 17.7 L44.3 17.65 43.45 16.8 M75.5 55.25 L73.9 56.5 71.5 55.25 72.65 55.0 75.6 55.1 75.5 55.25 M55.75 97.65 L54.55 96.5 54.25 101.6 52.45 106.6 53.25 93.15 56.45 96.25 55.75 97.65 M77.1 108.05 L78.05 107.25 76.45 102.05 77.0 97.95 76.15 98.9 75.6 99.8 74.85 98.15 77.55 95.75 77.7 95.7 Q78.85 96.2 78.75 97.55 78.5 100.65 77.6 103.7 L78.9 107.45 78.2 108.35 77.1 108.05" fill="#000000" fill-rule="evenodd" stroke="none"/>
    <path d="M75.8 100.35 L75.6 99.8 76.15 98.9 75.8 100.35" fill="#b3cde3" fill-rule="evenodd" stroke="none"/>
    <path d="M48.45 53.55 L48.95 52.5 47.5 49.05 48.35 47.65 Q50.7 46.9 52.8 48.55 L61.1 55.3 58.45 55.1 57.9 54.2 51.7 54.0 51.3 54.25 48.45 53.55 M65.8 52.15 L66.6 52.25 77.9 44.5 Q77.75 46.0 78.6 47.0 L79.05 47.4 78.4 50.2 Q77.65 52.65 77.05 53.5 L68.95 53.75 66.75 53.3 Q65.8 52.8 65.8 52.15" fill="#b191be" fill-rule="evenodd" stroke="none"/>
    <path d="M54.25 101.6 L54.55 96.5 55.75 97.65 54.25 101.6 M76.45 102.05 L75.8 100.35 76.15 98.9 77.0 97.95 76.45 102.05" fill="#ffffff" fill-rule="evenodd" stroke="none"/>
    <path d="M77.7 95.7 L77.55 95.75 77.65 95.6 77.7 95.7" fill="#993300" fill-rule="evenodd" stroke="none"/>
    <path d="M78.2 117.65 L74.25 125.8 74.8 118.9 78.2 117.65 M53.3 119.05 L53.3 127.15 52.9 127.45 49.8 118.05 53.3 119.05 M53.9 132.65 L55.05 133.0 61.5 129.65 65.3 129.95 71.2 133.65 Q68.55 138.7 64.3 142.55 L54.45 137.15 52.95 131.0 53.3 130.75 53.9 132.65" fill="#cacfe6" fill-rule="evenodd" stroke="none"/>
    <path d="M46.35 130.4 Q46.2 129.75 45.5 129.35 L34.6 122.3 45.5 117.2 58.0 160.1 39.55 136.95 46.0 131.15 46.25 130.8 46.35 130.4 M78.15 132.45 Q78.1 133.1 78.5 133.5 L83.35 137.75 59.05 168.25 60.8 164.4 60.65 163.5 61.6 162.5 82.0 116.85 91.3 120.05 78.5 131.8 Q78.2 132.05 78.15 132.45 M62.1 144.8 L57.95 148.95 55.7 141.25 62.1 144.8 M19.35 141.75 L25.7 152.9 29.15 226.15 20.9 218.15 20.1 218.2 11.4 220.85 11.0 221.05 10.7 221.4 6.95 226.05 2.95 203.05 7.55 170.15 17.8 133.4 19.35 141.75 M31.35 123.8 L42.3 130.65 Q39.15 133.15 36.35 136.2 L36.05 136.65 36.3 137.7 57.5 164.3 51.85 177.0 50.65 178.5 51.65 250.55 33.25 250.55 33.1 246.5 34.6 244.6 Q32.75 238.85 32.8 232.8 L32.75 231.7 Q32.7 230.4 32.3 229.3 L28.65 152.4 19.85 127.8 31.35 123.8 M57.8 163.6 L58.55 161.95 58.7 162.5 57.8 163.6 M59.3 151.85 L66.15 144.95 61.8 154.65 59.3 151.85 M81.8 132.7 L94.4 121.25 108.7 128.7 100.0 143.75 96.15 228.2 Q95.0 229.0 95.0 230.35 94.9 235.35 93.65 240.35 L92.95 243.85 Q92.85 244.35 92.9 244.95 L95.25 247.45 95.1 250.55 54.65 250.55 54.0 179.4 86.65 138.4 87.0 137.3 86.7 136.55 81.8 132.7 M110.0 132.45 L117.3 176.2 118.8 224.05 Q117.6 222.55 116.05 221.7 111.8 219.6 107.25 218.2 L106.85 218.15 106.45 218.15 99.3 225.05 103.0 144.3 110.0 132.45" fill="#3a3d6a" fill-rule="evenodd" stroke="none"/>
    <path d="M81.85 18.4 L80.25 91.95 Q78.2 81.6 73.65 72.1 L72.3 69.15 71.15 68.7 71.35 65.15 70.55 64.45 69.45 65.4 69.05 67.95 63.25 69.55 63.6 55.85 64.05 56.35 64.25 55.85 63.3 54.25 Q59.3 49.3 54.2 45.8 50.15 43.05 46.25 45.75 L45.55 46.35 43.45 16.8 44.3 17.65 44.8 17.7 Q50.9 13.4 56.05 18.5 60.1 22.6 62.75 27.5 66.3 21.7 71.1 17.05 73.8 14.45 77.15 15.35 79.8 16.25 81.85 18.4 M61.1 55.3 L61.1 69.4 59.6 68.25 59.85 64.95 58.45 64.7 Q57.3 66.7 56.9 68.85 56.3 72.2 54.95 75.4 49.8 87.85 49.1 101.2 L45.85 52.95 47.1 53.9 48.45 53.55 51.3 54.25 51.1 55.3 51.65 55.85 54.15 56.0 Q54.25 56.95 55.5 57.1 56.65 56.95 57.1 56.1 L58.05 55.8 58.45 55.1 61.1 55.3 M79.05 47.4 L80.5 46.55 80.85 45.6 Q81.85 42.6 79.45 41.35 72.0 43.85 66.1 49.15 64.45 50.55 65.8 52.15 65.8 52.8 66.75 53.3 L68.95 53.75 68.85 54.7 69.4 55.25 71.5 55.25 73.9 56.5 75.5 55.25 76.85 55.25 77.45 54.3 77.05 53.5 Q77.65 52.65 78.4 50.2 L79.05 47.4 M70.35 69.45 Q77.85 84.85 79.65 102.05 80.3 108.1 79.75 113.85 70.8 117.8 61.0 117.6 55.2 117.15 49.95 114.95 L49.05 101.45 49.8 102.3 Q52.15 85.8 58.75 70.05 62.05 72.4 68.55 70.2 L70.35 69.45 M56.45 96.25 L53.25 93.15 52.45 106.6 51.0 110.0 52.1 110.9 Q53.9 108.4 54.8 105.4 56.9 98.6 61.5 93.1 62.9 91.4 64.9 91.6 67.05 91.55 68.5 93.1 74.25 99.4 76.35 107.65 76.5 108.3 77.1 108.05 L78.2 108.35 78.9 107.45 77.6 103.7 Q78.5 100.65 78.75 97.55 78.85 96.2 77.7 95.7 L77.65 95.6 77.55 95.75 74.85 98.15 Q72.65 92.2 66.8 89.75 63.85 88.5 61.35 90.45 58.3 92.75 56.45 96.25 M97.45 239.15 L100.15 242.0 110.5 241.7 111.55 231.6 110.3 230.45 109.1 231.05 107.75 239.4 101.25 239.15 97.9 235.2 97.7 230.85 107.25 221.3 114.6 223.55 120.05 230.55 120.6 242.3 102.45 250.45 95.9 243.9 97.45 239.15 M15.85 231.6 L16.25 236.65 Q16.55 239.15 17.2 241.65 L17.65 242.3 26.85 242.1 29.85 239.05 31.45 243.85 24.85 250.45 6.7 242.3 7.3 230.5 12.7 223.55 20.1 221.3 29.65 230.85 29.45 235.15 26.05 239.15 19.5 239.4 19.0 235.7 18.3 231.85 17.9 230.95 17.6 230.55 16.25 230.9 Q16.1 230.95 16.05 231.05 L15.85 231.6" fill="#edf4f8" fill-rule="evenodd" stroke="none"/>
    <path d="M65.0 120.6 L65.0 126.1 62.8 126.4 63.2 120.6 65.0 120.6 M71.8 118.7 L70.9 129.9 67.9 128.0 68.0 120.1 71.8 118.7 M60.25 120.2 L59.7 127.2 56.3 129.0 56.3 119.1 60.25 120.2" fill="#990000" fill-rule="evenodd" stroke="none"/>
  </g>
</svg>
