<?xml version="1.0" encoding="UTF-8" standalone="no"?>
<svg xmlns:xlink="http://www.w3.org/1999/xlink" height="217.95px" width="487.0px" xmlns="http://www.w3.org/2000/svg">
  <g transform="matrix(1.0, 0.0, 0.0, 1.0, 0.0, 0.0)">
    <path d="M64.75 149.15 L64.85 150.45 65.75 148.75 64.75 149.15 M343.4 217.7 L343.4 217.95 341.9 217.95 343.4 217.7 M479.55 69.2 Q476.65 76.05 471.75 85.85 L463.7 101.9 Q454.8 120.15 454.5 128.6 454.2 136.3 451.7 143.55 449.75 149.3 447.7 156.6 445.6 163.85 440.95 170.2 L433.7 180.1 Q431.15 183.6 425.5 185.85 L418.3 185.85 413.1 185.05 412.8 185.5 Q407.75 192.85 401.4 193.8 L329.15 206.75 Q317.95 208.95 311.55 204.45 308.85 202.6 307.05 199.55 L306.0 198.05 299.05 204.45 Q291.0 211.05 282.7 214.05 270.25 218.45 259.1 214.15 249.8 210.6 242.75 201.5 L241.7 200.1 Q234.55 190.2 230.65 175.65 L162.55 168.65 Q157.2 177.5 147.45 179.45 140.45 180.8 133.95 178.7 134.55 183.3 132.9 186.15 131.8 187.85 128.85 189.8 L86.55 214.5 Q82.5 216.9 79.4 217.05 77.15 217.9 69.6 214.55 L67.95 212.85 Q61.2 205.85 58.15 201.8 53.55 195.6 51.3 188.95 50.1 185.4 49.1 180.5 L47.4 171.95 Q45.3 161.5 41.9 155.4 39.9 151.85 34.1 145.15 28.8 138.95 26.6 134.5 24.0 129.15 20.05 118.7 16.0 107.75 13.7 102.85 L6.5 86.85 Q2.8 77.85 1.25 70.6 -2.65 52.3 5.65 37.35 11.9 26.15 30.95 23.45 43.2 21.75 62.7 23.65 L79.2 25.0 Q88.2 25.45 95.3 24.8 112.65 23.2 124.75 14.2 134.55 6.9 150.0 1.95 156.05 0.0 163.35 2.15 L169.55 4.25 176.2 6.1 Q186.25 8.0 202.05 5.8 L219.9 2.9 Q231.1 0.9 237.85 0.25 248.0 -0.8 261.25 2.4 L272.7 5.5 284.15 8.7 Q289.45 10.1 296.05 10.6 L320.65 11.0 332.95 11.85 Q339.15 12.75 347.6 15.8 L361.7 21.1 Q369.75 23.9 375.8 24.5 383.55 25.15 390.65 22.6 414.75 14.0 430.3 11.7 453.7 8.3 470.5 15.85 485.8 22.75 486.9 38.0 487.75 49.95 479.55 69.2" fill="#ffffff" fill-rule="evenodd" stroke="none"/>
  </g>
</svg>
