<?xml version="1.0" encoding="UTF-8" standalone="no"?>
<svg xmlns:xlink="http://www.w3.org/1999/xlink" height="267.4px" width="238.4px" xmlns="http://www.w3.org/2000/svg">
  <g transform="matrix(1.0, 0.0, 0.0, 1.0, 0.0, 0.0)">
    <path d="M178.15 94.85 L162.3 98.0 169.45 103.15 169.7 104.05 169.3 105.1 101.3 177.15 96.85 262.8 96.75 263.35 95.85 264.1 117.9 263.65 171.3 264.7 171.3 263.9 163.55 199.7 Q168.8 193.5 179.3 182.9 L198.0 153.6 230.25 98.15 183.8 71.7 178.15 94.85 M176.25 92.3 L181.05 70.1 161.7 59.0 105.9 167.85 165.95 104.3 157.3 97.4 176.25 92.3 M8.45 243.45 Q7.75 242.75 7.55 241.95 3.55 227.0 1.95 211.7 -1.0 183.35 0.5 154.95 1.85 128.7 5.95 102.65 6.05 102.05 6.55 101.8 L63.25 66.6 83.15 54.35 92.05 1.65 Q92.25 0.6 93.5 0.4 L150.1 0.0 Q151.3 0.05 151.6 1.3 L159.2 53.8 Q160.2 55.2 161.6 55.9 171.3 61.1 180.95 66.6 L233.05 96.3 Q233.4 96.95 234.9 110.45 236.4 123.9 237.1 152.7 L238.15 197.85 238.4 214.4 235.35 222.3 227.45 242.4 228.25 244.75 204.9 265.75 202.85 265.65 183.55 245.95 185.55 241.8 181.85 222.3 Q178.55 207.05 174.7 191.95 L166.65 200.05 174.25 267.2 66.25 267.4 69.3 204.05 54.55 187.65 Q52.85 200.7 52.25 213.8 51.85 223.35 52.55 233.0 L53.8 234.35 51.3 243.65 48.15 241.75 50.65 235.35 35.05 223.45 22.8 225.8 10.8 241.55 9.35 240.7 8.95 240.75 Q7.05 241.7 8.45 243.45 M177.6 191.05 L187.35 234.8 196.15 224.3 209.9 225.7 211.3 227.25 225.35 239.65 231.0 222.3 Q233.65 215.35 234.6 213.85 235.6 212.15 234.8 165.5 233.95 118.8 231.45 102.05 L177.6 191.05 M138.7 10.6 L142.05 11.2 Q142.3 10.5 142.05 9.65 141.4 7.7 139.5 7.15 L138.2 7.6 132.5 9.45 138.7 10.6 M130.6 8.3 L130.95 7.35 Q138.4 3.75 146.55 3.15 L147.35 4.05 146.65 5.95 143.55 6.25 144.6 8.3 144.95 9.65 145.05 11.85 149.15 13.8 147.5 15.6 128.1 11.05 127.7 10.15 127.7 10.05 127.6 10.15 125.65 11.35 125.05 11.35 138.2 43.4 137.4 44.15 132.1 41.8 118.3 50.2 107.95 40.4 101.35 42.65 100.65 42.0 115.2 11.65 112.5 12.35 109.8 13.05 Q103.35 14.95 97.35 12.5 L97.35 11.4 100.0 10.8 99.25 6.35 96.3 5.65 96.65 3.4 94.8 3.4 86.4 54.05 111.9 59.95 118.1 60.55 121.2 60.5 124.25 60.25 Q140.4 58.15 156.15 53.45 L148.8 3.0 99.55 3.35 112.6 7.25 112.15 7.3 111.15 8.45 Q111.05 8.95 111.35 9.4 111.6 9.85 112.15 10.0 L115.65 10.7 118.75 8.0 127.3 8.15 127.9 8.85 127.9 9.55 Q129.3 8.3 131.15 9.2 L130.6 8.3 M122.0 28.0 L132.55 36.25 121.25 11.05 119.1 11.05 106.8 35.25 122.0 28.0 M131.05 38.95 L121.6 31.3 109.2 37.4 118.65 46.95 131.05 38.95 M106.2 10.2 L110.45 9.45 106.8 8.25 102.3 7.2 102.25 7.8 Q102.75 11.25 106.2 10.2 M115.8 64.55 L117.1 74.15 123.1 73.6 123.65 64.45 115.8 64.55 M113.5 64.6 L114.15 64.15 101.5 61.0 104.05 83.65 114.15 74.85 113.5 64.6 M99.1 60.4 L86.55 57.15 94.45 76.45 96.8 77.85 99.9 72.0 99.1 60.4 M97.85 81.15 Q98.3 85.6 105.95 96.5 113.6 107.35 117.1 111.4 L118.15 77.05 115.9 77.25 102.3 87.95 100.4 77.4 97.85 81.15 M157.4 56.2 L139.9 60.35 139.15 74.25 142.55 79.15 Q153.75 70.35 159.0 57.65 L157.4 56.2 M136.85 60.75 L125.8 63.9 126.1 74.3 135.7 81.95 136.85 60.75 M137.7 86.3 L124.1 76.55 121.2 76.8 120.1 110.2 Q134.45 95.25 148.8 78.05 L142.85 82.75 138.9 79.1 137.7 86.3 M58.2 73.35 L8.95 103.45 Q21.8 129.9 36.35 155.4 44.6 169.75 55.15 182.8 63.25 192.85 71.9 202.55 L72.25 203.05 68.75 264.7 94.25 263.7 94.0 263.25 93.9 262.65 98.45 176.45 98.65 175.65 112.0 149.35 75.3 106.55 81.45 96.8 64.6 94.7 58.2 73.35 M60.9 71.7 L66.75 92.15 85.1 94.55 78.7 106.35 113.5 146.45 117.4 138.75 83.4 57.9 60.9 71.7 M33.85 157.1 Q20.0 133.05 7.9 108.1 4.45 131.45 3.35 154.95 2.0 183.15 4.8 211.25 6.15 225.0 9.3 238.55 L21.2 223.15 35.15 220.4 49.35 230.6 Q48.7 222.0 49.2 213.55 50.0 199.0 51.9 184.6 42.0 171.3 33.85 157.1 M116.75 115.4 L104.15 99.0 112.45 119.25 116.75 115.4 M119.65 136.3 L127.35 120.9 114.95 125.2 119.65 136.3 M129.3 117.05 L143.65 87.85 113.75 122.25 129.3 117.05 M47.7 243.0 L49.0 245.8 Q41.85 249.2 34.1 245.3 L31.9 244.35 31.1 247.25 28.7 247.25 32.3 235.85 32.65 241.4 Q40.15 246.5 47.7 243.0 M217.4 235.6 L208.95 227.25 197.45 227.15 189.3 237.15 189.45 239.45 197.4 245.9 201.05 244.9 Q200.8 244.0 200.9 243.15 200.95 242.65 201.4 242.3 L201.85 242.05 202.35 242.25 202.85 242.45 203.15 242.8 204.8 244.8 Q207.5 247.55 205.8 250.15 L202.55 247.6 196.45 248.85 188.6 242.65 186.9 245.25 203.95 262.55 224.8 243.9 217.4 235.6" fill="#1a1a1a" fill-rule="evenodd" stroke="none"/>
    <path d="M178.15 94.85 L183.8 71.7 230.25 98.15 198.0 153.6 179.3 182.9 Q168.8 193.5 163.55 199.7 L171.3 263.9 171.3 264.7 117.9 263.65 95.85 264.1 96.75 263.35 96.85 262.8 101.3 177.15 169.3 105.1 169.7 104.05 169.45 103.15 162.3 98.0 178.15 94.85 M176.25 92.3 L157.3 97.4 165.95 104.3 105.9 167.85 161.7 59.0 181.05 70.1 176.25 92.3 M177.6 191.05 L231.45 102.05 Q233.95 118.8 234.8 165.5 235.6 212.15 234.6 213.85 233.65 215.35 231.0 222.3 L225.35 239.65 211.3 227.25 209.9 225.7 196.15 224.3 187.35 234.8 177.6 191.05 M58.2 73.35 L64.6 94.7 81.45 96.8 75.3 106.55 112.0 149.35 98.65 175.65 98.45 176.45 93.9 262.65 94.0 263.25 94.25 263.7 68.75 264.7 72.25 203.05 71.9 202.55 Q63.25 192.85 55.15 182.8 44.6 169.75 36.35 155.4 21.8 129.9 8.95 103.45 L58.2 73.35 M60.9 71.7 L83.4 57.9 117.4 138.75 113.5 146.45 78.7 106.35 85.1 94.55 66.75 92.15 60.9 71.7 M33.85 157.1 Q42.0 171.3 51.9 184.6 50.0 199.0 49.2 213.55 48.7 222.0 49.35 230.6 L35.15 220.4 21.2 223.15 9.3 238.55 Q6.15 225.0 4.8 211.25 2.0 183.15 3.35 154.95 4.45 131.45 7.9 108.1 20.0 133.05 33.85 157.1" fill="#3a3d6a" fill-rule="evenodd" stroke="none"/>
    <path d="M127.7 10.15 L128.1 11.05 147.5 15.6 149.15 13.8 145.05 11.85 144.95 9.65 144.6 8.3 143.55 6.25 146.65 5.95 147.35 4.05 146.55 3.15 Q138.4 3.75 130.95 7.35 L130.6 8.3 127.9 8.85 127.3 8.15 118.75 8.0 115.65 10.7 112.15 10.0 115.15 9.55 111.15 8.45 112.15 7.3 112.6 7.25 99.55 3.35 148.8 3.0 156.15 53.45 Q140.4 58.15 124.25 60.25 L121.2 60.5 118.1 60.55 111.9 59.95 86.4 54.05 94.8 3.4 96.65 3.4 96.3 5.65 99.25 6.35 100.0 10.8 97.35 11.4 97.35 12.5 Q103.35 14.95 109.8 13.05 L112.5 12.35 115.2 11.65 100.65 42.0 101.35 42.65 107.95 40.4 118.3 50.2 132.1 41.8 137.4 44.15 138.2 43.4 125.05 11.35 125.65 11.35 127.6 10.15 127.7 10.15" fill="#cacfe6" fill-rule="evenodd" stroke="none"/>
    <path d="M138.2 7.6 L139.5 7.15 Q141.4 7.7 142.05 9.65 142.3 10.5 142.05 11.2 L138.7 10.6 138.2 7.6 M106.8 8.25 L106.5 8.5 Q105.7 9.2 106.2 10.2 102.75 11.25 102.25 7.8 L102.3 7.2 106.8 8.25" fill="#ffffff" fill-rule="evenodd" stroke="none"/>
    <path d="M8.45 243.45 Q7.05 241.7 8.95 240.75 L9.35 240.7 10.8 241.55 32.75 262.8 50.65 249.2 49.0 245.8 47.7 243.0 48.15 241.75 51.3 243.65 54.35 249.35 33.05 266.25 8.45 243.45 M138.7 10.6 L132.5 9.45 138.2 7.6 138.7 10.6 M130.6 8.3 L131.15 9.2 Q129.3 8.3 127.9 9.55 L127.9 8.85 130.6 8.3 M112.15 10.0 Q111.6 9.85 111.35 9.4 111.05 8.95 111.15 8.45 L115.15 9.55 112.15 10.0 M127.6 10.15 L127.7 10.05 127.7 10.15 127.6 10.15 M106.8 8.25 L110.45 9.45 106.2 10.2 Q105.7 9.2 106.5 8.5 L106.8 8.25" fill="#000000" fill-rule="evenodd" stroke="none"/>
    <path d="M113.5 64.6 L114.15 74.85 104.05 83.65 101.5 61.0 114.15 64.15 113.5 64.6 M115.8 64.55 L123.65 64.45 123.1 73.6 117.1 74.15 115.8 64.55 M136.85 60.75 L135.7 81.95 126.1 74.3 125.8 63.9 136.85 60.75" fill="#990000" fill-rule="evenodd" stroke="none"/>
    <path d="M157.4 56.2 L159.0 57.65 Q153.75 70.35 142.55 79.15 L139.15 74.25 139.9 60.35 157.4 56.2 M97.85 81.15 L100.4 77.4 102.3 87.95 115.9 77.25 118.15 77.05 117.1 111.4 Q113.6 107.35 105.95 96.5 98.3 85.6 97.85 81.15 M99.1 60.4 L99.9 72.0 96.8 77.85 94.45 76.45 86.55 57.15 99.1 60.4 M137.7 86.3 L138.9 79.1 142.85 82.75 148.8 78.05 Q134.45 95.25 120.1 110.2 L121.2 76.8 124.1 76.55 137.7 86.3 M129.3 117.05 L113.75 122.25 143.65 87.85 129.3 117.05 M119.65 136.3 L114.95 125.2 127.35 120.9 119.65 136.3 M116.75 115.4 L112.45 119.25 104.15 99.0 116.75 115.4" fill="#d7dcec" fill-rule="evenodd" stroke="none"/>
    <path d="M10.8 241.55 L22.8 225.8 35.05 223.45 50.65 235.35 48.15 241.75 47.7 243.0 Q40.15 246.5 32.65 241.4 L32.3 235.85 28.7 247.25 31.1 247.25 31.9 244.35 34.1 245.3 Q41.85 249.2 49.0 245.8 L50.65 249.2 32.75 262.8 10.8 241.55 M217.4 235.6 L224.8 243.9 203.95 262.55 186.9 245.25 188.6 242.65 196.45 248.85 202.55 247.6 205.8 250.15 Q207.5 247.55 204.8 244.8 L203.15 242.8 202.85 242.45 202.35 242.25 201.85 242.05 201.4 242.3 Q200.95 242.65 200.9 243.15 200.8 244.0 201.05 244.9 L197.4 245.9 189.45 239.45 189.3 237.15 197.45 227.15 208.95 227.25 217.4 235.6" fill="#373a48" fill-rule="evenodd" stroke="none"/>
    <path d="M131.05 38.95 L118.65 46.95 109.2 37.4 121.6 31.3 131.05 38.95 M122.0 28.0 L106.8 35.25 119.1 11.05 121.25 11.05 132.55 36.25 122.0 28.0" fill="#64442f" fill-rule="evenodd" stroke="none"/>
  </g>
</svg>
