<?xml version="1.0" encoding="UTF-8" standalone="no"?>
<svg xmlns:xlink="http://www.w3.org/1999/xlink" height="306.7px" width="199.9px" xmlns="http://www.w3.org/2000/svg">
  <g transform="matrix(1.0, 0.0, 0.0, 1.0, -11.65, 13.9)">
    <path d="M192.95 123.8 L211.55 193.3 205.6 282.8 186.8 292.8 32.15 292.8 17.75 285.9 11.65 215.45 39.25 123.5 45.8 119.4 58.85 111.0 68.5 104.4 Q67.3 100.55 64.75 95.35 L61.85 89.7 88.75 -8.35 134.0 -13.3 137.15 -13.9 166.3 100.2 161.9 104.5 Q157.95 108.45 155.2 112.65 L168.95 116.95 185.2 121.6 192.95 123.8 M20.2 269.3 L21.3 282.35 33.85 290.0 184.9 290.0 199.75 279.55 205.45 194.05 203.8 188.75 184.9 128.45 149.6 115.95 159.85 98.25 153.3 72.35 152.65 72.55 153.25 72.35 132.6 -9.45 91.45 -4.95 68.05 89.7 68.95 93.25 72.05 105.65 47.55 125.05 15.65 216.25 20.2 269.3 M117.65 6.9 L126.05 -1.9 126.05 0.25 117.6 9.15 117.6 6.9 117.65 6.9 M129.25 3.4 Q129.4 5.35 128.95 7.1 127.9 10.75 124.25 11.5 121.75 12.15 119.6 10.7 L119.6 8.65 Q121.1 9.5 122.9 9.55 128.7 9.0 129.25 3.4 M83.75 79.25 Q84.15 81.6 82.95 83.3 L82.0 84.35 Q79.4 85.95 77.0 83.85 L76.1 82.85 75.6 81.45 75.45 79.7 Q75.55 80.6 76.05 81.35 76.25 79.45 77.45 77.6 L78.9 76.45 81.55 75.55 82.9 76.65 Q83.1 77.6 82.75 78.8 82.45 79.85 81.6 80.7 79.5 82.5 76.75 82.05 77.9 83.1 79.55 83.1 83.35 82.8 83.75 79.25 M80.0 114.05 L80.0 116.2 71.5 125.1 71.5 122.85 71.55 122.85 80.0 114.05 M83.15 119.35 Q83.4 121.2 82.9 123.1 82.55 124.8 81.15 125.85 L79.3 127.0 Q76.3 128.35 73.5 126.65 L73.5 124.6 Q75.0 125.45 76.8 125.5 82.65 124.95 83.15 119.35 M182.05 276.25 L182.1 276.3 182.05 276.3 182.05 276.25 M182.1 276.25 L182.1 274.05 190.55 265.25 190.55 267.4 182.1 276.25 M184.05 277.85 L184.05 275.8 Q185.55 276.65 187.35 276.7 193.2 276.15 193.7 270.55 L193.4 274.3 Q193.1 276.0 191.75 277.15 189.95 278.8 187.35 278.8 185.6 278.9 184.05 277.85 M36.55 273.8 Q36.85 275.55 36.5 277.0 36.1 278.95 34.15 279.65 31.3 280.9 29.3 278.6 28.5 277.65 28.45 276.55 L28.3 274.8 28.95 276.45 29.55 277.15 Q32.0 279.05 34.7 277.5 36.6 276.25 36.55 273.8 M198.05 203.85 Q198.55 206.4 197.3 208.45 L196.35 209.45 Q193.7 211.15 191.35 209.1 L190.45 208.05 Q189.95 207.25 189.85 206.2 L189.8 204.85 Q189.9 205.75 190.45 206.55 L191.15 207.3 Q193.65 209.25 196.2 207.55 198.15 206.3 198.05 203.85 M191.85 202.8 L191.65 203.05 191.8 202.8 191.85 202.8" fill="#47525f" fill-rule="evenodd" stroke="none"/>
    <path d="M20.2 269.3 L15.65 216.25 47.55 125.05 72.05 105.65 68.95 93.25 152.65 72.55 153.3 72.35 159.85 98.25 149.6 115.95 184.9 128.45 203.8 188.75 20.2 269.3 M126.9 0.95 L128.0 -0.2 Q128.45 2.65 126.9 5.4 L125.75 6.85 Q123.05 8.85 119.6 8.65 L126.9 0.95 M80.0 114.05 L79.6 113.75 79.3 113.85 79.55 113.75 Q76.15 112.2 73.1 114.3 70.55 116.15 70.25 119.45 L70.25 121.95 Q70.3 123.65 71.5 125.1 L73.5 126.65 Q76.3 128.35 79.3 127.0 L81.15 125.85 Q82.55 124.8 82.9 123.1 83.4 121.2 83.15 119.35 83.3 117.85 82.5 116.5 L81.95 115.75 Q82.25 117.15 81.9 118.7 81.4 120.7 80.35 122.3 79.6 123.4 78.35 123.9 L73.5 124.6 80.85 116.9 80.0 116.2 80.0 114.05 M74.8 116.35 Q73.4 117.55 72.6 118.7 L73.45 117.6 74.8 116.35 M71.35 121.15 L71.25 121.5 71.25 121.45 71.35 121.15 M71.5 122.8 L71.55 122.85 71.5 122.85 71.5 122.8 M184.05 275.8 L191.4 268.1 192.5 266.95 192.5 268.7 Q192.45 270.5 191.65 272.25 190.25 275.3 186.9 275.6 L184.05 275.8" fill="#bab9ba" fill-rule="evenodd" stroke="none"/>
    <path d="M203.8 188.75 L205.45 194.05 199.75 279.55 184.9 290.0 33.85 290.0 21.3 282.35 20.2 269.3 203.8 188.75 M68.95 93.25 L68.05 89.7 91.45 -4.95 132.6 -9.45 153.25 72.35 152.65 72.55 68.95 93.25 M126.05 -1.9 L125.7 -2.2 125.45 -2.15 125.65 -2.2 123.5 -2.85 Q121.2 -3.0 119.15 -1.65 116.65 0.15 116.3 3.45 L116.3 5.95 Q116.1 6.7 117.6 9.15 L119.6 10.7 Q121.75 12.15 124.25 11.5 127.9 10.75 128.95 7.1 129.4 5.35 129.25 3.4 L129.25 3.15 Q129.2 1.25 128.0 -0.2 L126.9 0.95 126.05 0.25 126.05 -1.9 M117.35 5.3 L117.3 5.5 117.3 5.45 117.35 5.3 M117.6 6.85 L117.65 6.9 117.6 6.9 117.6 6.85 M75.45 79.7 L75.6 81.45 76.1 82.85 77.0 83.85 Q79.4 85.95 82.0 84.35 L82.95 83.3 Q84.15 81.6 83.75 79.25 L82.9 76.65 81.55 75.55 Q80.15 74.9 78.7 75.2 77.5 75.5 76.7 76.35 75.3 77.7 75.45 79.7 M180.85 271.05 L180.85 273.15 Q180.6 273.95 182.05 276.25 L182.05 276.3 182.1 276.35 184.05 277.85 Q185.6 278.9 187.35 278.8 189.95 278.8 191.75 277.15 193.1 276.0 193.4 274.3 L193.7 270.55 193.7 270.35 Q193.65 268.4 192.5 266.95 L191.4 268.1 190.55 267.4 190.55 265.25 190.15 265.0 Q188.55 265.35 185.55 267.35 182.2 270.3 181.8 272.6 L181.8 272.55 Q182.25 270.2 185.5 267.35 188.55 265.35 190.1 265.0 188.8 264.25 187.15 264.25 181.5 265.0 180.8 270.4 L180.85 271.05 M35.7 271.75 Q35.15 271.05 34.4 270.65 L31.6 270.35 Q30.35 270.6 29.6 271.45 28.25 273.0 28.3 274.8 L28.45 276.55 Q28.5 277.65 29.3 278.6 31.3 280.9 34.15 279.65 36.1 278.95 36.5 277.0 36.85 275.55 36.55 273.8 36.45 272.65 35.7 271.75 M198.05 203.85 L197.2 201.9 195.9 200.75 Q194.2 200.95 192.6 202.05 193.95 201.0 195.9 200.7 193.25 199.6 191.05 201.5 189.55 202.95 189.8 204.85 L189.85 206.2 Q189.95 207.25 190.45 208.05 L191.35 209.1 Q193.7 211.15 196.35 209.45 L197.3 208.45 Q198.55 206.4 198.05 203.85 M191.95 202.65 L191.85 202.8 191.8 202.8 191.95 202.65" fill="#9c9c9c" fill-rule="evenodd" stroke="none"/>
    <path d="M126.05 0.25 L126.9 0.95 119.6 8.65 119.6 10.7 117.6 9.15 126.05 0.25 M80.0 116.2 L80.85 116.9 73.5 124.6 73.5 126.65 71.5 125.1 80.0 116.2 M182.1 276.3 L182.1 276.35 182.1 276.25 190.55 267.4 191.4 268.1 184.05 275.8 184.05 277.85 182.1 276.35 182.05 276.3 182.1 276.3" fill="#57565b" fill-rule="evenodd" stroke="none"/>
    <path d="M117.3 5.5 L117.25 6.35 117.6 6.85 117.6 6.9 117.6 9.15 Q116.1 6.7 116.3 5.95 L116.3 3.45 Q116.4 4.95 117.2 6.35 L117.3 5.45 117.3 5.5 M71.5 125.1 Q70.3 123.65 70.25 121.95 L70.25 119.45 Q70.35 121.0 71.15 122.3 L71.25 121.45 71.25 121.5 71.2 122.3 71.5 122.8 71.5 122.85 71.5 125.1 M180.85 271.05 Q181.0 272.35 181.7 273.5 L181.8 272.55 181.8 272.6 181.75 273.5 182.1 274.05 182.1 276.25 182.1 276.35 182.1 276.3 182.05 276.25 Q180.6 273.95 180.85 273.15 L180.85 271.05" fill="#79818b" fill-rule="evenodd" stroke="none"/>
    <path d="M125.45 -2.15 L125.7 -2.2 126.05 -1.9 117.65 6.9 117.6 6.85 117.25 6.35 117.3 5.5 117.35 5.3 Q118.3 2.9 120.0 1.2 L121.1 0.2 124.9 -1.9 125.35 -2.1 125.45 -2.15 M79.3 113.85 L79.6 113.75 80.0 114.05 71.55 122.85 71.5 122.8 71.2 122.3 71.25 121.5 71.35 121.15 Q71.6 119.95 72.6 118.7 73.4 117.55 74.8 116.35 L75.0 116.15 75.1 116.1 78.7 114.1 79.3 113.85 M182.1 274.05 L181.75 273.5 181.8 272.6 Q182.2 270.3 185.55 267.35 188.55 265.35 190.15 265.0 L190.55 265.25 182.1 274.05 M34.4 270.65 Q35.15 271.05 35.7 271.75 35.85 273.95 34.4 275.35 L32.7 276.7 Q31.1 277.5 29.55 277.15 L28.95 276.45 Q28.95 274.05 30.5 272.35 32.1 270.65 34.4 270.65 M192.6 202.05 Q194.2 200.95 195.9 200.75 L197.2 201.9 196.9 203.85 Q196.5 205.5 195.2 206.25 193.15 207.45 191.15 207.3 L190.45 206.55 191.35 203.65 191.65 203.05 191.85 202.8 191.95 202.65 192.05 202.45 192.6 202.05" fill="#d0cfd0" fill-rule="evenodd" stroke="none"/>
    <path d="M125.45 -2.15 L125.35 -2.1 124.9 -1.9 121.1 0.2 120.0 1.2 Q118.3 2.9 117.35 5.3 L117.3 5.45 117.2 6.35 Q116.4 4.95 116.3 3.45 116.65 0.15 119.15 -1.65 121.2 -3.0 123.5 -2.85 L125.65 -2.2 125.45 -2.15 M75.45 79.7 Q75.3 77.7 76.7 76.35 77.5 75.5 78.7 75.2 80.15 74.9 81.55 75.55 L78.9 76.45 77.45 77.6 Q76.25 79.45 76.05 81.35 75.55 80.6 75.45 79.7 M70.25 119.45 Q70.55 116.15 73.1 114.3 76.15 112.2 79.55 113.75 L79.3 113.85 78.7 114.1 75.1 116.1 75.0 116.15 74.8 116.35 73.45 117.6 72.6 118.7 Q71.6 119.95 71.35 121.15 L71.25 121.45 71.15 122.3 Q70.35 121.0 70.25 119.45 M181.8 272.55 L181.7 273.5 Q181.0 272.35 180.85 271.05 L180.8 270.4 Q181.5 265.0 187.15 264.25 188.8 264.25 190.1 265.0 188.55 265.35 185.5 267.35 182.25 270.2 181.8 272.55 M28.3 274.8 Q28.25 273.0 29.6 271.45 30.35 270.6 31.6 270.35 L34.4 270.65 Q32.1 270.65 30.5 272.35 28.95 274.05 28.95 276.45 L28.3 274.8 M189.8 204.85 Q189.55 202.95 191.05 201.5 193.25 199.6 195.9 200.7 193.95 201.0 192.6 202.05 L192.05 202.45 191.95 202.65 191.8 202.8 191.65 203.05 191.35 203.65 190.45 206.55 Q189.9 205.75 189.8 204.85" fill="#e9e9eb" fill-rule="evenodd" stroke="none"/>
    <path d="M128.0 -0.2 Q129.2 1.25 129.25 3.15 L129.25 3.4 Q128.7 9.0 122.9 9.55 121.1 9.5 119.6 8.65 123.05 8.85 125.75 6.85 L126.9 5.4 Q128.45 2.65 128.0 -0.2 M82.9 76.65 L83.75 79.25 Q83.35 82.8 79.55 83.1 77.9 83.1 76.75 82.05 79.5 82.5 81.6 80.7 82.45 79.85 82.75 78.8 83.1 77.6 82.9 76.65 M73.5 124.6 L78.35 123.9 Q79.6 123.4 80.35 122.3 81.4 120.7 81.9 118.7 82.25 117.15 81.95 115.75 L82.5 116.5 Q83.3 117.85 83.15 119.35 82.65 124.95 76.8 125.5 75.0 125.45 73.5 124.6 M35.7 271.75 Q36.45 272.65 36.55 273.8 36.6 276.25 34.7 277.5 32.0 279.05 29.55 277.15 31.1 277.5 32.7 276.7 L34.4 275.35 Q35.85 273.95 35.7 271.75 M197.2 201.9 L198.05 203.85 Q198.15 206.3 196.2 207.55 193.65 209.25 191.15 207.3 193.15 207.45 195.2 206.25 196.5 205.5 196.9 203.85 L197.2 201.9 M192.5 266.95 Q193.65 268.4 193.7 270.35 L193.7 270.55 Q193.2 276.15 187.35 276.7 185.55 276.65 184.05 275.8 L186.9 275.6 Q190.25 275.3 191.65 272.25 192.45 270.5 192.5 268.7 L192.5 266.95" fill="#b0aeb3" fill-rule="evenodd" stroke="none"/>
  </g>
</svg>
