<?xml version="1.0" encoding="UTF-8" standalone="no"?>
<svg xmlns:xlink="http://www.w3.org/1999/xlink" height="268.95px" width="148.2px" xmlns="http://www.w3.org/2000/svg">
  <g transform="matrix(1.0, 0.0, 0.0, 1.0, 1.5, 1.2)">
    <path d="M91.2 25.55 L90.3 21.95 95.05 25.6 91.2 25.55 M99.0 42.5 L97.7 41.55 81.7 49.15 80.5 51.75 Q83.0 56.35 87.05 59.8 L86.5 59.7 86.0 60.0 85.65 60.35 85.55 60.7 Q85.85 62.55 85.15 64.35 L81.2 65.3 Q75.35 66.65 69.65 64.35 L67.9 61.3 67.35 61.4 66.9 61.55 66.6 61.85 Q65.95 62.65 66.2 63.95 63.7 68.0 60.4 71.55 55.9 76.4 53.95 82.7 51.6 90.1 54.25 97.85 55.0 100.05 57.15 99.35 57.45 96.6 58.85 94.4 61.7 89.9 65.25 86.3 70.05 81.5 76.75 81.35 88.4 81.05 95.3 90.9 96.1 92.05 95.95 93.4 95.65 96.65 95.9 99.75 L97.5 99.75 Q99.35 96.95 100.7 93.6 103.7 86.2 98.45 79.7 91.25 70.75 87.55 60.1 L88.45 60.75 Q91.1 62.65 94.15 61.8 L94.2 60.95 94.05 60.95 91.35 59.95 90.05 59.5 Q86.85 57.7 84.85 54.7 L94.3 54.15 94.85 53.25 94.7 51.95 93.95 51.45 82.75 51.95 98.1 44.1 Q99.15 43.55 99.0 42.5 M98.25 38.25 L109.25 84.25 98.45 104.45 97.65 104.3 96.9 104.6 96.45 105.2 90.05 107.45 88.5 106.45 79.0 111.0 Q67.5 109.3 56.95 104.8 L43.1 83.3 55.1 37.4 57.5 37.45 60.2 41.2 Q66.15 48.4 75.45 47.6 84.55 46.45 89.1 38.1 L98.25 38.25 M87.5 66.3 Q96.6 76.15 99.6 88.9 100.0 90.55 99.55 92.4 93.25 79.75 79.1 78.55 75.15 78.6 71.5 80.4 61.1 85.3 54.9 94.9 51.7 82.8 60.0 73.7 L67.1 65.75 Q76.3 71.8 86.15 67.05 L87.5 66.3 M55.15 45.95 L68.6 52.0 68.05 51.85 Q62.8 50.8 60.15 53.45 L60.85 54.4 68.15 54.85 Q67.65 56.7 65.85 57.5 L64.8 57.95 Q61.6 59.4 58.0 59.25 L57.5 59.85 57.75 60.9 Q64.05 61.8 68.45 57.6 70.8 55.35 70.65 51.95 L71.2 50.4 Q63.95 45.8 55.35 43.4 L54.4 44.65 55.15 45.95 M128.85 242.85 L128.05 243.15 127.55 250.25 122.4 250.95 116.45 243.95 116.8 238.3 124.95 228.15 133.8 228.8 143.25 238.0 142.25 256.55 126.05 262.4 112.3 253.05 113.15 247.35 115.1 247.05 Q120.45 253.65 128.7 253.1 L129.05 254.0 130.05 254.55 131.45 253.6 130.35 244.35 Q130.35 243.4 129.5 243.05 L128.85 242.85 M12.35 226.55 L21.6 224.4 34.45 236.5 Q34.2 244.1 29.5 250.0 L20.65 248.7 Q20.55 246.0 21.3 243.65 21.6 242.65 20.95 241.95 L20.65 241.65 18.8 242.15 Q16.55 246.5 18.4 250.75 L18.85 251.7 30.5 253.1 34.55 247.45 35.2 247.7 36.2 254.7 28.55 261.6 4.35 253.0 5.05 236.85 12.35 226.55" fill="#d1ede0" fill-rule="evenodd" stroke="none"/>
    <path d="M88.1 17.7 Q83.5 10.9 75.4 9.95 67.1 9.15 61.0 15.05 L64.5 1.55 89.65 2.4 94.15 21.0 Q91.35 18.85 88.1 17.7 M41.4 132.75 L41.65 134.25 69.4 168.25 61.6 185.1 60.0 264.6 37.05 264.4 36.8 258.25 39.05 256.2 39.0 255.1 38.6 250.8 38.0 246.45 37.9 246.15 37.7 245.8 37.1 245.4 Q36.6 245.05 36.1 244.85 L37.0 239.9 37.3 237.9 37.35 236.9 37.3 235.85 37.15 235.4 35.1 233.05 28.45 153.65 20.65 139.25 19.25 140.25 25.5 154.15 31.85 229.9 22.05 221.35 11.1 223.75 10.75 224.05 7.25 228.7 3.8 233.4 1.5 217.05 4.5 175.7 20.2 122.9 34.5 117.15 50.05 125.9 41.4 132.75 M53.8 124.95 L38.05 115.7 54.6 108.95 71.95 162.8 70.8 165.25 44.95 133.6 54.15 126.1 Q54.65 125.45 53.8 124.95 M72.05 153.3 L77.45 149.9 73.75 158.65 72.05 153.3 M71.1 150.35 L70.85 149.6 71.45 150.15 71.1 150.35 M74.95 163.5 L98.6 107.8 Q103.75 110.2 108.9 112.55 L94.15 127.7 Q93.7 128.1 94.0 128.8 L94.25 129.25 100.95 133.5 70.3 173.35 74.95 163.5 M128.45 129.05 Q124.5 135.95 121.05 143.55 L117.0 233.3 Q113.65 238.2 113.4 244.25 L110.55 245.25 109.25 253.95 114.45 258.15 113.8 264.4 63.0 264.45 64.6 185.7 104.35 134.05 104.5 132.65 97.7 128.0 111.8 113.9 133.75 123.95 143.7 180.8 142.35 233.0 134.55 225.85 131.4 225.85 125.15 226.85 Q122.15 227.25 120.15 229.35 L124.05 144.0 Q127.4 137.15 129.6 130.1 L128.45 129.05" fill="#3a3d6a" fill-rule="evenodd" stroke="none"/>
    <path d="M84.05 40.05 Q79.65 44.7 73.45 44.7 67.25 44.7 62.85 40.05 58.45 35.35 58.45 28.7 58.45 22.05 62.85 17.4 67.25 12.7 73.45 12.7 79.65 12.7 84.05 17.4 88.45 22.05 88.45 28.7 88.45 35.35 84.05 40.05 M68.25 28.8 Q68.65 33.85 72.8 34.3 77.0 33.85 77.4 28.8 77.0 23.75 72.8 23.3 68.65 23.8 68.25 28.8" fill="#ffffff" fill-rule="evenodd" stroke="none"/>
    <path d="M95.9 28.6 L97.5 35.25 90.4 35.1 91.45 28.7 95.9 28.6" fill="#96a0ce" fill-rule="evenodd" stroke="none"/>
    <path d="M105.8 57.05 L105.45 55.6 Q106.05 54.75 106.25 53.55 L105.8 57.05" fill="#47525f" fill-rule="evenodd" stroke="none"/>
    <path d="M105.0 53.6 L104.1 49.9 104.25 49.85 Q104.95 50.25 105.5 50.9 L105.0 53.6" fill="#d0cfd0" fill-rule="evenodd" stroke="none"/>
    <path d="M105.45 55.6 L105.0 53.6 105.5 50.9 106.25 53.55 Q106.05 54.75 105.45 55.6" fill="#b0aeb3" fill-rule="evenodd" stroke="none"/>
    <path d="M104.1 49.9 L104.05 49.75 104.25 49.85 104.1 49.9" fill="#e9e9eb" fill-rule="evenodd" stroke="none"/>
    <path d="M68.25 28.8 Q68.65 23.8 72.8 23.3 77.0 23.75 77.4 28.8 77.0 33.85 72.8 34.3 68.65 33.85 68.25 28.8" fill="#000000" fill-rule="evenodd" stroke="none"/>
    <path d="M71.35 121.55 L65.95 124.4 65.6 111.9 71.6 113.45 71.35 121.55 M74.4 121.0 L74.55 113.85 77.75 113.95 77.45 120.65 74.4 121.0 M80.8 113.4 L86.85 110.25 85.5 126.35 80.4 121.4 80.8 113.4" fill="#990000" fill-rule="evenodd" stroke="none"/>
    <path d="M61.95 122.0 L58.05 108.55 62.55 110.4 62.85 121.5 61.95 122.0 M65.2 128.2 L78.35 123.6 85.65 130.7 79.55 145.0 74.1 148.5 Q66.85 139.75 64.2 128.35 L65.2 128.2 M89.05 119.9 L89.85 110.7 94.85 108.9 90.1 120.25 89.05 119.9" fill="#d7dcec" fill-rule="evenodd" stroke="none"/>
    <path d="M105.8 57.05 L112.35 84.65 101.25 105.7 135.7 121.55 136.55 122.65 146.7 180.45 145.3 235.85 146.1 236.85 144.65 258.85 125.3 265.5 117.3 260.1 116.55 266.55 115.2 267.35 75.6 267.75 35.6 267.35 34.2 266.2 33.9 260.85 29.55 264.7 1.9 254.95 Q1.45 235.8 -1.5 216.9 L1.5 175.3 17.55 121.35 Q35.8 113.65 54.05 105.9 L40.0 83.2 62.45 -1.2 90.85 -0.6 Q94.2 7.25 96.2 15.7 L104.05 49.75 104.1 49.9 105.0 53.6 105.45 55.6 105.8 57.05 M88.1 17.7 Q91.35 18.85 94.15 21.0 L89.65 2.4 64.5 1.55 61.0 15.05 Q67.1 9.15 75.4 9.95 83.5 10.9 88.1 17.7 M95.9 28.6 L91.45 28.7 90.4 35.1 97.5 35.25 95.9 28.6 M98.25 38.25 L89.1 38.1 Q84.55 46.45 75.45 47.6 66.15 48.4 60.2 41.2 L57.5 37.45 55.1 37.4 43.1 83.3 56.95 104.8 Q67.5 109.3 79.0 111.0 L88.5 106.45 90.05 107.45 96.45 105.2 96.9 104.6 97.65 104.3 98.45 104.45 109.25 84.25 98.25 38.25 M99.0 42.5 Q99.15 43.55 98.1 44.1 L82.75 51.95 93.95 51.45 94.7 51.95 94.85 53.25 94.3 54.15 84.85 54.7 Q86.85 57.7 90.05 59.5 L91.35 59.95 94.05 60.95 94.2 60.95 94.15 61.8 Q91.1 62.65 88.45 60.75 L87.55 60.1 Q91.25 70.75 98.45 79.7 103.7 86.2 100.7 93.6 99.35 96.95 97.5 99.75 L95.9 99.75 Q95.65 96.65 95.95 93.4 96.1 92.05 95.3 90.9 88.4 81.05 76.75 81.35 70.05 81.5 65.25 86.3 61.7 89.9 58.85 94.4 57.45 96.6 57.15 99.35 55.0 100.05 54.25 97.85 51.6 90.1 53.95 82.7 55.9 76.4 60.4 71.55 63.7 68.0 66.2 63.95 65.95 62.65 66.6 61.85 L66.9 61.55 67.35 61.4 67.9 61.3 69.65 64.35 Q75.35 66.65 81.2 65.3 L85.15 64.35 Q85.85 62.55 85.55 60.7 L85.65 60.35 86.0 60.0 86.5 59.7 87.05 59.8 Q83.0 56.35 80.5 51.75 L81.7 49.15 97.7 41.55 99.0 42.5 M91.2 25.55 L95.05 25.6 90.3 21.95 91.2 25.55 M84.05 40.05 Q88.45 35.35 88.45 28.7 88.45 22.05 84.05 17.4 79.65 12.7 73.45 12.7 67.25 12.7 62.85 17.4 58.45 22.05 58.45 28.7 58.45 35.35 62.85 40.05 67.25 44.7 73.45 44.7 79.65 44.7 84.05 40.05 M55.15 45.95 L54.4 44.65 55.35 43.4 Q63.95 45.8 71.2 50.4 L70.65 51.95 Q70.8 55.35 68.45 57.6 64.05 61.8 57.75 60.9 L57.5 59.85 58.0 59.25 Q61.6 59.4 64.8 57.95 L65.85 57.5 Q67.65 56.7 68.15 54.85 L60.85 54.4 60.15 53.45 Q62.8 50.8 68.05 51.85 L68.6 52.0 55.15 45.95 M87.5 66.3 L86.15 67.05 Q76.3 71.8 67.1 65.75 L60.0 73.7 Q51.7 82.8 54.9 94.9 61.1 85.3 71.5 80.4 75.15 78.6 79.1 78.55 93.25 79.75 99.55 92.4 100.0 90.55 99.6 88.9 96.6 76.15 87.5 66.3 M56.3 34.4 L56.15 33.75 55.95 34.4 56.3 34.4 M61.95 122.0 L62.85 121.5 62.55 110.4 58.05 108.55 61.95 122.0 M80.8 113.4 L80.4 121.4 85.5 126.35 86.85 110.25 80.8 113.4 M74.4 121.0 L77.45 120.65 77.75 113.95 74.55 113.85 74.4 121.0 M71.35 121.55 L71.6 113.45 65.6 111.9 65.95 124.4 71.35 121.55 M53.8 124.95 Q54.65 125.45 54.15 126.1 L44.95 133.6 70.8 165.25 71.95 162.8 54.6 108.95 38.05 115.7 53.8 124.95 M41.4 132.75 L50.05 125.9 34.5 117.15 20.2 122.9 4.5 175.7 1.5 217.05 3.8 233.4 7.25 228.7 10.75 224.05 11.1 223.75 22.05 221.35 31.85 229.9 25.5 154.15 19.25 140.25 20.65 139.25 28.45 153.65 35.1 233.05 37.15 235.4 37.3 235.85 37.35 236.9 37.3 237.9 37.0 239.9 36.1 244.85 Q36.6 245.05 37.1 245.4 L37.7 245.8 37.9 246.15 38.0 246.45 38.6 250.8 39.0 255.1 39.05 256.2 36.8 258.25 37.05 264.4 60.0 264.6 61.6 185.1 69.4 168.25 41.65 134.25 41.4 132.75 M65.2 128.2 L64.2 128.35 Q66.85 139.75 74.1 148.5 L79.55 145.0 85.65 130.7 78.35 123.6 65.2 128.2 M128.45 129.05 L129.6 130.1 Q127.4 137.15 124.05 144.0 L120.15 229.35 Q122.15 227.25 125.15 226.85 L131.4 225.85 134.55 225.85 142.35 233.0 143.7 180.8 133.75 123.95 111.8 113.9 97.7 128.0 104.5 132.65 104.35 134.05 64.6 185.7 63.0 264.45 113.8 264.4 114.45 258.15 109.25 253.95 110.55 245.25 113.4 244.25 Q113.65 238.2 117.0 233.3 L121.05 143.55 Q124.5 135.95 128.45 129.05 M74.95 163.5 L70.3 173.35 100.95 133.5 94.25 129.25 94.0 128.8 Q93.7 128.1 94.15 127.7 L108.9 112.55 Q103.75 110.2 98.6 107.8 L74.95 163.5 M71.1 150.35 L71.45 150.15 70.85 149.6 71.1 150.35 M72.05 153.3 L73.75 158.65 77.45 149.9 72.05 153.3 M89.05 119.9 L90.1 120.25 94.85 108.9 89.85 110.7 89.05 119.9 M12.35 226.55 L5.05 236.85 4.35 253.0 28.55 261.6 36.2 254.7 35.2 247.7 34.55 247.45 30.5 253.1 18.85 251.7 18.4 250.75 Q16.55 246.5 18.8 242.15 L20.65 241.65 20.95 241.95 Q21.6 242.65 21.3 243.65 20.55 246.0 20.65 248.7 L29.5 250.0 Q34.2 244.1 34.45 236.5 L21.6 224.4 12.35 226.55 M128.85 242.85 L129.5 243.05 Q130.35 243.4 130.35 244.35 L131.45 253.6 130.05 254.55 129.05 254.0 128.7 253.1 Q120.45 253.65 115.1 247.05 L113.15 247.35 112.3 253.05 126.05 262.4 142.25 256.55 143.25 238.0 133.8 228.8 124.95 228.15 116.8 238.3 116.45 243.95 122.4 250.95 127.55 250.25 128.05 243.15 128.85 242.85" fill="#1a1a1a" fill-rule="evenodd" stroke="none"/>
  </g>
</svg>
