<?xml version="1.0" encoding="UTF-8" standalone="no"?>
<svg xmlns:xlink="http://www.w3.org/1999/xlink" height="288.7px" width="193.5px" xmlns="http://www.w3.org/2000/svg">
  <g transform="matrix(1.0, 0.0, 0.0, 1.0, 0.0, 0.0)">
    <path d="M174.3 165.35 L183.05 170.25 193.5 224.15 181.55 275.75 169.95 288.7 18.35 288.7 8.05 268.9 0.0 216.5 21.5 156.5 29.75 151.75 Q37.45 147.3 45.85 142.4 L56.85 135.65 56.55 120.1 55.8 87.9 54.9 50.6 54.15 19.7 53.85 6.85 53.85 0.0 76.65 5.45 120.1 56.55 124.0 70.45 132.55 101.35 141.4 133.1 145.9 149.6 157.25 155.9 174.3 165.35" fill="#47525f" fill-rule="evenodd" stroke="none"/>
    <path d="M177.8 171.9 L179.55 185.1 10.2 259.4 5.75 217.05 21.35 165.95 59.5 138.55 59.5 96.7 120.6 81.55 138.0 150.4 177.8 171.9" fill="#bab9ba" fill-rule="evenodd" stroke="none"/>
    <path d="M179.55 185.05 L184.8 224.0 176.2 273.45 167.05 286.0 21.9 286.0 10.6 263.25 10.2 259.35 179.55 185.05" fill="#9c9c9c" fill-rule="evenodd" stroke="none"/>
    <path d="M59.5 6.8 L79.4 10.55 114.85 58.95 120.6 81.5 59.5 96.65 59.5 6.8" fill="#9c9c9c" fill-rule="evenodd" stroke="none"/>
    <path d="M65.05 25.3 L73.05 16.9 74.55 18.15 66.95 26.75 65.05 25.3" fill="#57565b" fill-rule="evenodd" stroke="none"/>
    <path d="M76.05 21.8 L76.05 22.1 Q75.35 27.15 70.05 27.6 68.35 27.55 66.95 26.7 L66.95 24.75 71.35 21.6 74.9 17.9 75.75 19.5 76.05 19.6 76.05 21.7 76.05 21.8" fill="#47525f" fill-rule="evenodd" stroke="none"/>
    <path d="M65.05 25.3 L65.05 23.15 73.05 14.85 73.05 16.9 65.05 25.3" fill="#47525f" fill-rule="evenodd" stroke="none"/>
    <path d="M63.9 19.85 L65.1 22.4 65.1 25.3 Q63.7 23.0 63.9 22.25 L63.9 19.85" fill="#79818b" fill-rule="evenodd" stroke="none"/>
    <path d="M68.35 16.85 Q71.2 14.95 72.7 14.6 L73.05 14.85 65.1 23.15 64.75 22.65 Q64.6 20.1 68.35 16.85" fill="#d0cfd0" fill-rule="evenodd" stroke="none"/>
    <path d="M63.85 19.7 Q64.55 14.6 69.85 13.9 71.4 13.9 72.65 14.6 71.2 14.95 68.3 16.85 64.6 20.1 64.7 22.65 63.9 21.3 63.85 19.7" fill="#e9e9eb" fill-rule="evenodd" stroke="none"/>
    <path d="M73.55 22.7 Q72.0 24.35 69.6 24.6 L66.95 24.8 74.9 16.45 Q75.55 18.85 73.55 22.7" fill="#bab9ba" fill-rule="evenodd" stroke="none"/>
    <path d="M76.05 19.85 Q75.55 25.15 70.05 25.65 68.35 25.6 66.95 24.8 L69.55 24.6 Q71.9 24.35 73.45 22.7 75.45 18.85 74.9 16.45 76.05 17.9 76.05 19.85" fill="#b0aeb3" fill-rule="evenodd" stroke="none"/>
    <path d="M59.45 153.55 L67.45 145.15 68.95 146.4 61.35 155.0 59.45 153.55" fill="#57565b" fill-rule="evenodd" stroke="none"/>
    <path d="M70.4 150.1 L70.4 150.4 Q69.7 155.45 64.4 155.9 62.7 155.85 61.3 155.0 L61.3 153.05 65.7 149.9 69.25 146.2 70.1 147.8 70.4 147.9 70.4 150.0 70.4 150.1" fill="#47525f" fill-rule="evenodd" stroke="none"/>
    <path d="M59.45 153.55 L59.45 151.4 67.45 143.1 67.45 145.15 59.45 153.55" fill="#47525f" fill-rule="evenodd" stroke="none"/>
    <path d="M58.25 148.15 L59.45 150.7 59.45 153.6 Q58.05 151.3 58.25 150.55 L58.25 148.15" fill="#79818b" fill-rule="evenodd" stroke="none"/>
    <path d="M62.7 145.1 Q65.55 143.2 67.05 142.85 L67.4 143.1 59.45 151.4 59.1 150.9 Q58.95 148.35 62.7 145.1" fill="#d0cfd0" fill-rule="evenodd" stroke="none"/>
    <path d="M58.25 147.95 Q58.95 142.85 64.25 142.15 65.8 142.15 67.05 142.85 65.6 143.2 62.7 145.1 59.0 148.35 59.1 150.9 58.3 149.55 58.25 147.95" fill="#e9e9eb" fill-rule="evenodd" stroke="none"/>
    <path d="M67.9 150.95 Q66.35 152.6 63.95 152.85 L61.3 153.05 69.25 144.7 Q69.9 147.1 67.9 150.95" fill="#bab9ba" fill-rule="evenodd" stroke="none"/>
    <path d="M70.4 148.1 Q69.9 153.4 64.4 153.9 62.7 153.85 61.3 153.05 L63.9 152.85 Q66.25 152.6 67.8 150.95 69.8 147.1 69.25 144.7 70.4 146.15 70.4 148.1" fill="#b0aeb3" fill-rule="evenodd" stroke="none"/>
    <path d="M156.55 279.3 L164.55 270.9 166.05 272.15 158.45 280.75 156.55 279.3" fill="#57565b" fill-rule="evenodd" stroke="none"/>
    <path d="M167.55 275.8 L167.55 276.1 Q166.85 281.15 161.55 281.6 159.85 281.55 158.45 280.7 L158.45 278.75 162.85 275.6 166.4 271.9 167.25 273.5 167.55 273.6 167.55 275.7 167.55 275.8" fill="#47525f" fill-rule="evenodd" stroke="none"/>
    <path d="M156.55 279.3 L156.55 277.15 164.55 268.85 164.55 270.9 156.55 279.3" fill="#47525f" fill-rule="evenodd" stroke="none"/>
    <path d="M155.35 273.85 L156.55 276.4 156.55 279.3 Q155.15 277.0 155.35 276.25 L155.35 273.85" fill="#79818b" fill-rule="evenodd" stroke="none"/>
    <path d="M159.85 270.85 Q162.7 268.95 164.2 268.6 L164.55 268.85 156.6 277.15 156.25 276.65 Q156.1 274.1 159.85 270.85" fill="#d0cfd0" fill-rule="evenodd" stroke="none"/>
    <path d="M155.35 273.7 Q156.05 268.6 161.35 267.9 162.9 267.9 164.15 268.6 162.7 268.95 159.8 270.85 156.1 274.1 156.2 276.65 155.4 275.3 155.35 273.7" fill="#e9e9eb" fill-rule="evenodd" stroke="none"/>
    <path d="M165.05 276.7 Q163.5 278.35 161.1 278.6 L158.45 278.8 166.4 270.45 Q167.05 272.85 165.05 276.7" fill="#bab9ba" fill-rule="evenodd" stroke="none"/>
    <path d="M167.55 273.85 Q167.05 279.15 161.55 279.65 159.85 279.6 158.45 278.8 L161.05 278.6 Q163.4 278.35 164.95 276.7 166.95 272.85 166.4 270.45 167.55 271.9 167.55 273.85" fill="#b0aeb3" fill-rule="evenodd" stroke="none"/>
    <path d="M23.7 266.45 Q23.4 269.95 19.8 270.3 16.2 269.95 15.85 266.45 16.2 263.0 19.8 262.65 23.4 263.0 23.7 266.45" fill="#47525f" fill-rule="evenodd" stroke="none"/>
    <path d="M15.75 264.8 L23.6 264.25 23.75 266.45 15.9 266.85 15.75 264.8" fill="#47525f" fill-rule="evenodd" stroke="none"/>
    <path d="M21.5 261.3 Q19.6 261.5 17.9 262.9 16.5 264.8 16.35 266.8 15.7 265.85 15.7 264.65 16.05 261.2 19.65 260.85 L21.5 261.3" fill="#e9e9eb" fill-rule="evenodd" stroke="none"/>
    <path d="M20.95 266.75 Q18.95 267.8 17.0 267.45 L16.4 266.75 Q16.5 264.8 17.95 262.9 19.65 261.45 21.55 261.3 22.25 261.7 22.8 262.35 22.95 265.1 20.95 266.75" fill="#d0cfd0" fill-rule="evenodd" stroke="none"/>
    <path d="M23.6 264.65 Q23.25 268.15 19.65 268.45 18.1 268.45 17.0 267.45 18.95 267.75 20.95 266.6 22.95 265.05 22.8 262.35 23.6 263.35 23.6 264.65" fill="#b0aeb3" fill-rule="evenodd" stroke="none"/>
    <path d="M59.45 249.55 Q59.15 253.05 55.55 253.4 51.95 253.05 51.6 249.55 51.95 246.1 55.55 245.75 59.15 246.1 59.45 249.55" fill="#47525f" fill-rule="evenodd" stroke="none"/>
    <path d="M51.5 247.95 L59.35 247.4 59.5 249.6 51.65 250.0 51.5 247.95" fill="#47525f" fill-rule="evenodd" stroke="none"/>
    <path d="M57.3 244.4 Q55.4 244.6 53.7 246.0 52.3 247.9 52.15 249.9 51.5 248.95 51.5 247.75 51.85 244.3 55.45 243.95 56.45 243.95 57.3 244.4" fill="#e9e9eb" fill-rule="evenodd" stroke="none"/>
    <path d="M56.7 249.9 Q54.7 250.95 52.75 250.6 L52.15 249.9 Q52.25 247.95 53.7 246.05 55.4 244.6 57.3 244.45 L58.55 245.5 Q58.7 248.25 56.7 249.9" fill="#d0cfd0" fill-rule="evenodd" stroke="none"/>
    <path d="M59.35 247.75 Q59.0 251.25 55.4 251.55 53.85 251.55 52.75 250.55 54.7 250.85 56.7 249.7 58.7 248.15 58.55 245.45 59.35 246.45 59.35 247.75" fill="#b0aeb3" fill-rule="evenodd" stroke="none"/>
    <path d="M177.5 199.5 Q177.2 203.0 173.6 203.35 170.0 203.0 169.65 199.5 170.0 196.05 173.6 195.7 177.2 196.05 177.5 199.5" fill="#47525f" fill-rule="evenodd" stroke="none"/>
    <path d="M169.55 197.85 L177.4 197.3 177.55 199.5 169.7 199.9 169.55 197.85" fill="#47525f" fill-rule="evenodd" stroke="none"/>
    <path d="M175.35 194.35 Q173.45 194.55 171.75 195.95 170.35 197.85 170.2 199.85 169.55 198.9 169.55 197.7 169.9 194.25 173.5 193.9 174.5 193.9 175.35 194.35" fill="#e9e9eb" fill-rule="evenodd" stroke="none"/>
    <path d="M174.75 199.8 Q172.75 200.85 170.8 200.5 L170.2 199.8 Q170.3 197.85 171.75 195.95 173.45 194.5 175.35 194.35 L176.6 195.4 Q176.75 198.15 174.75 199.8" fill="#d0cfd0" fill-rule="evenodd" stroke="none"/>
    <path d="M177.4 197.7 Q177.05 201.2 173.45 201.5 171.9 201.5 170.8 200.5 172.75 200.8 174.75 199.65 176.75 198.1 176.6 195.4 177.4 196.4 177.4 197.7" fill="#b0aeb3" fill-rule="evenodd" stroke="none"/>
  </g>
</svg>
