<?xml version="1.0" encoding="UTF-8" standalone="no"?>
<svg xmlns:xlink="http://www.w3.org/1999/xlink" height="266.95px" width="161.45px" xmlns="http://www.w3.org/2000/svg">
  <g transform="matrix(1.0, 0.0, 0.0, 1.0, 0.0, 0.0)">
    <path d="M81.7 24.1 Q88.25 35.2 92.6 47.1 L94.35 52.2 95.9 57.3 107.25 126.05 154.65 154.3 155.15 154.75 155.4 155.35 161.45 191.05 161.45 191.55 152.3 252.35 152.3 252.45 152.0 253.75 151.85 254.25 Q151.5 254.9 150.85 255.0 L150.4 255.0 149.85 255.0 143.55 260.7 136.6 266.35 136.1 266.55 135.85 266.55 122.05 253.8 122.1 253.65 123.2 250.65 Q124.05 248.55 124.15 246.3 L124.15 244.7 Q123.55 234.35 119.85 224.75 L118.85 222.35 116.7 217.3 111.45 222.2 116.7 262.45 116.05 263.85 80.3 266.95 80.0 266.95 76.15 266.65 46.3 263.3 45.9 263.15 45.4 263.05 44.9 262.1 47.9 225.55 38.05 215.55 34.2 232.4 36.85 238.4 Q38.55 241.95 39.35 245.5 L39.35 245.55 37.75 250.45 40.0 253.2 39.8 254.35 25.6 265.3 25.25 265.15 12.75 254.45 Q10.5 252.4 9.15 249.95 6.7 245.3 5.25 240.2 L3.85 235.4 2.35 230.5 0.0 193.95 6.5 158.3 7.2 157.15 55.25 127.3 53.55 1.3 54.25 0.05 Q56.25 -0.15 57.95 0.65 60.5 1.7 62.55 3.6 L70.9 11.45 75.0 15.45 78.75 19.65 81.7 24.1 M67.35 24.5 L67.55 24.1 68.05 23.85 Q68.9 23.4 69.85 23.85 73.4 25.25 76.15 27.85 L78.95 30.2 Q79.8 30.9 80.2 32.15 80.9 34.25 79.85 35.9 78.55 37.9 76.2 38.35 L73.05 37.6 Q71.9 37.35 71.4 36.3 L70.4 33.65 Q69.35 29.55 73.15 28.05 70.8 25.75 67.7 25.5 L67.35 24.5 M96.6 89.5 Q91.45 92.75 88.15 97.75 86.95 99.9 86.05 102.15 84.05 107.1 82.65 112.2 79.95 121.75 79.35 131.8 L93.05 128.1 93.5 128.35 104.15 125.75 98.05 88.65 96.6 89.5 M88.35 52.55 L86.25 57.05 Q89.5 58.55 92.75 57.15 87.3 38.35 77.0 21.75 75.75 20.6 74.15 19.8 72.35 18.8 70.3 18.4 67.95 18.5 66.05 19.95 62.9 22.45 61.55 26.15 59.7 31.35 58.9 36.6 57.75 44.25 57.2 52.15 L58.2 126.5 77.35 131.3 78.2 115.5 79.1 96.65 Q79.7 82.45 81.65 68.35 L82.4 63.35 82.65 62.0 83.65 58.65 85.45 53.65 86.05 52.3 Q86.45 51.35 87.45 51.35 L88.35 52.55 M87.15 59.5 L85.6 58.85 85.45 59.25 Q82.95 66.45 81.4 90.8 L80.35 111.45 Q81.75 106.45 83.9 101.3 88.25 90.75 97.7 86.65 L93.15 59.15 Q89.3 60.45 87.15 59.5 M70.9 15.25 L61.6 5.55 Q57.6 3.5 56.6 2.65 L56.95 30.95 Q58.75 23.05 61.6 20.0 66.35 14.6 70.9 15.25 M78.4 34.15 L78.4 32.4 75.05 29.75 72.3 30.85 Q71.75 32.6 72.6 34.4 73.35 35.9 74.9 36.4 L76.1 36.25 Q77.05 36.25 77.75 35.65 78.4 35.0 78.4 34.15 M55.45 130.7 L42.25 138.9 46.3 150.95 57.6 152.3 58.0 152.6 58.3 153.45 54.3 161.8 76.75 186.15 78.55 182.65 55.45 130.7 M67.45 143.35 L66.3 144.6 64.8 144.4 79.15 164.05 79.5 141.7 78.3 141.9 69.2 149.15 68.7 149.2 68.45 148.8 67.45 143.35 M63.1 140.6 L65.15 141.35 67.15 138.15 66.65 131.7 58.5 129.65 63.1 140.6 M77.85 134.6 L78.3 138.85 82.8 138.05 82.45 134.75 77.85 134.6 M75.75 134.3 L69.8 133.45 70.55 144.65 76.35 139.6 75.75 134.3 M77.0 171.8 L80.5 179.6 91.15 158.4 77.0 171.8 M72.0 160.55 L75.7 168.85 77.75 166.9 72.0 160.55 M9.9 159.0 L25.15 193.05 50.35 224.1 Q50.75 224.55 50.95 225.15 L48.05 260.85 63.1 262.3 65.6 207.85 75.3 189.0 51.35 163.05 Q50.7 162.3 51.2 161.3 L54.55 154.9 45.0 153.85 Q44.05 153.8 43.75 152.85 L39.65 140.55 9.9 159.0 M8.6 163.4 L3.0 193.95 5.35 230.2 10.25 246.55 18.15 237.1 Q18.45 236.7 19.0 236.75 L27.4 235.35 27.9 235.55 34.4 240.45 31.3 232.7 31.25 232.25 35.6 212.9 22.5 194.4 8.6 163.4 M91.05 131.85 L84.65 134.4 84.8 138.65 90.45 143.25 91.05 131.85 M93.65 140.15 L95.95 142.45 109.25 131.9 105.5 128.5 94.05 131.65 93.65 140.15 M83.0 141.05 L81.5 141.35 81.15 163.75 98.05 144.65 96.3 145.95 95.75 145.95 93.45 144.15 93.2 146.95 92.45 147.7 91.35 147.8 83.0 141.05 M104.7 141.0 Q100.65 146.15 97.65 152.1 L81.75 183.8 81.0 184.5 73.6 198.7 109.75 160.1 105.25 156.35 105.0 155.9 Q104.95 155.6 105.05 155.4 L105.65 154.7 Q111.75 152.55 118.0 150.75 L120.15 137.5 112.5 133.15 Q108.05 136.65 104.7 141.0 M158.45 191.35 L153.15 160.0 118.95 214.85 Q123.0 225.3 125.6 236.1 126.55 240.1 126.05 244.5 L130.2 239.9 142.2 239.9 143.15 240.6 149.85 248.55 158.45 191.35 M112.9 158.7 Q113.75 159.45 113.25 160.55 L113.05 160.95 68.6 208.45 66.1 262.6 80.2 263.95 113.5 261.3 108.35 221.8 108.6 220.8 116.1 213.75 151.95 156.2 122.95 139.1 120.45 152.55 120.05 153.0 109.7 156.25 112.9 158.7 M24.35 245.45 Q25.3 244.8 26.0 245.45 L26.4 246.4 26.3 249.25 30.8 251.7 34.8 249.9 36.2 245.55 26.6 238.35 19.95 239.3 11.7 249.5 25.65 262.0 36.4 253.35 35.8 252.75 Q33.25 253.8 30.85 253.6 27.3 253.1 23.95 251.3 23.2 251.0 23.25 250.3 L23.9 246.45 24.35 245.45 M141.4 242.9 L131.5 242.75 126.95 248.05 127.45 249.7 131.2 252.95 132.35 252.65 Q132.15 252.1 132.1 251.55 132.1 251.25 132.25 251.05 132.8 250.3 133.7 250.2 L134.55 250.95 Q136.45 253.05 137.9 255.55 L137.85 256.35 137.15 257.2 136.05 256.9 Q135.75 256.85 135.6 256.65 L134.4 255.25 130.75 255.05 Q128.35 254.3 126.25 252.6 L125.6 253.2 136.15 263.1 148.75 251.95 141.4 242.9" fill="#1a1a1a" fill-rule="evenodd" stroke="none"/>
    <path d="M87.15 59.5 Q89.3 60.45 93.15 59.15 L97.7 86.65 Q88.25 90.75 83.9 101.3 81.75 106.45 80.35 111.45 L81.4 90.8 Q82.95 66.45 85.45 59.25 L85.6 58.85 87.15 59.5 M88.35 52.55 L87.45 51.35 Q86.45 51.35 86.05 52.3 L85.45 53.65 83.65 58.65 82.65 62.0 82.4 63.35 81.65 68.35 Q79.7 82.45 79.1 96.65 L78.2 115.5 77.35 131.3 58.2 126.5 57.2 52.15 Q57.75 44.25 58.9 36.6 59.7 31.35 61.55 26.15 62.9 22.45 66.05 19.95 67.95 18.5 70.3 18.4 72.35 18.8 74.15 19.8 75.75 20.6 77.0 21.75 87.3 38.35 92.75 57.15 89.5 58.55 86.25 57.05 L88.35 52.55 M96.6 89.5 L98.05 88.65 104.15 125.75 93.5 128.35 93.05 128.1 79.35 131.8 Q79.95 121.75 82.65 112.2 84.05 107.1 86.05 102.15 86.95 99.9 88.15 97.75 91.45 92.75 96.6 89.5 M67.35 24.5 L67.7 25.5 Q70.8 25.75 73.15 28.05 69.35 29.55 70.4 33.65 L71.4 36.3 Q71.9 37.35 73.05 37.6 L76.2 38.35 Q78.55 37.9 79.85 35.9 80.9 34.25 80.2 32.15 79.8 30.9 78.95 30.2 L76.15 27.85 Q73.4 25.25 69.85 23.85 68.9 23.4 68.05 23.85 L67.55 24.1 67.35 24.5 M141.4 242.9 L148.75 251.95 136.15 263.1 125.6 253.2 126.25 252.6 Q128.35 254.3 130.75 255.05 L134.4 255.25 135.6 256.65 Q135.75 256.85 136.05 256.9 L137.15 257.2 137.85 256.35 137.9 255.55 Q136.45 253.05 134.55 250.95 L133.7 250.2 Q132.8 250.3 132.25 251.05 132.1 251.25 132.1 251.55 132.15 252.1 132.35 252.65 L131.2 252.95 127.45 249.7 126.95 248.05 131.5 242.75 141.4 242.9 M24.35 245.45 L23.9 246.45 23.25 250.3 Q23.2 251.0 23.95 251.3 27.3 253.1 30.85 253.6 33.25 253.8 35.8 252.75 L36.4 253.35 25.65 262.0 11.7 249.5 19.95 239.3 26.6 238.35 36.2 245.55 34.8 249.9 30.8 251.7 26.3 249.25 26.4 246.4 26.0 245.45 Q25.3 244.8 24.35 245.45" fill="#969bc5" fill-rule="evenodd" stroke="none"/>
    <path d="M70.9 15.25 Q66.35 14.6 61.6 20.0 58.75 23.05 56.95 30.95 L56.6 2.65 Q57.6 3.5 61.6 5.55 L70.9 15.25 M55.45 130.7 L78.55 182.65 76.75 186.15 54.3 161.8 58.3 153.45 58.0 152.6 57.6 152.3 46.3 150.95 42.25 138.9 55.45 130.7 M8.6 163.4 L22.5 194.4 35.6 212.9 31.25 232.25 31.3 232.7 34.4 240.45 27.9 235.55 27.4 235.35 19.0 236.75 Q18.45 236.7 18.15 237.1 L10.25 246.55 5.35 230.2 3.0 193.95 8.6 163.4 M9.9 159.0 L39.65 140.55 43.75 152.85 Q44.05 153.8 45.0 153.85 L54.55 154.9 51.2 161.3 Q50.7 162.3 51.35 163.05 L75.3 189.0 65.6 207.85 63.1 262.3 48.05 260.85 50.95 225.15 Q50.75 224.55 50.35 224.1 L25.15 193.05 9.9 159.0 M72.0 160.55 L77.75 166.9 75.7 168.85 72.0 160.55 M77.0 171.8 L91.15 158.4 80.5 179.6 77.0 171.8 M104.7 141.0 Q108.05 136.65 112.5 133.15 L120.15 137.5 118.0 150.75 Q111.75 152.55 105.65 154.7 L105.05 155.4 Q104.95 155.6 105.0 155.9 L105.25 156.35 109.75 160.1 73.6 198.7 81.0 184.5 81.75 183.8 97.65 152.1 Q100.65 146.15 104.7 141.0 M112.9 158.7 L109.7 156.25 120.05 153.0 120.45 152.55 122.95 139.1 151.95 156.2 116.1 213.75 108.6 220.8 108.35 221.8 113.5 261.3 80.2 263.95 66.1 262.6 68.6 208.45 113.05 160.95 113.25 160.55 Q113.75 159.45 112.9 158.7 M158.45 191.35 L149.85 248.55 143.15 240.6 142.2 239.9 130.2 239.9 126.05 244.5 Q126.55 240.1 125.6 236.1 123.0 225.3 118.95 214.85 L153.15 160.0 158.45 191.35" fill="#3a3d6a" fill-rule="evenodd" stroke="none"/>
    <path d="M76.1 36.25 L74.9 36.4 Q73.35 35.9 72.6 34.4 71.75 32.6 72.3 30.85 L75.05 29.75 78.4 32.4 78.4 34.15 Q77.95 33.6 77.1 33.5 75.65 33.65 75.5 35.05 75.6 35.85 76.1 36.25" fill="#ffffff" fill-rule="evenodd" stroke="none"/>
    <path d="M78.4 34.15 Q78.4 35.0 77.75 35.65 77.05 36.25 76.1 36.25 75.6 35.85 75.5 35.05 75.65 33.65 77.1 33.5 77.95 33.6 78.4 34.15" fill="#000000" fill-rule="evenodd" stroke="none"/>
    <path d="M63.1 140.6 L58.5 129.65 66.65 131.7 67.15 138.15 65.15 141.35 63.1 140.6 M67.45 143.35 L68.45 148.8 68.7 149.2 69.2 149.15 78.3 141.9 79.5 141.7 79.15 164.05 64.8 144.4 66.3 144.6 67.45 143.35 M83.0 141.05 L91.35 147.8 92.45 147.7 93.2 146.95 93.45 144.15 95.75 145.95 96.3 145.95 98.05 144.65 81.15 163.75 81.5 141.35 83.0 141.05 M93.65 140.15 L94.05 131.65 105.5 128.5 109.25 131.9 95.95 142.45 93.65 140.15" fill="#cacfe6" fill-rule="evenodd" stroke="none"/>
    <path d="M75.75 134.3 L76.35 139.6 70.55 144.65 69.8 133.45 75.75 134.3 M77.85 134.6 L82.45 134.75 82.8 138.05 78.3 138.85 77.85 134.6 M91.05 131.85 L90.45 143.25 84.8 138.65 84.65 134.4 91.05 131.85" fill="#990000" fill-rule="evenodd" stroke="none"/>
  </g>
</svg>
