<?xml version="1.0" encoding="UTF-8" standalone="no"?>
<svg xmlns:xlink="http://www.w3.org/1999/xlink" height="296.55px" width="177.9px" xmlns="http://www.w3.org/2000/svg">
  <g transform="matrix(1.0, 0.0, 0.0, 1.0, -3.7, 10.3)">
    <path d="M171.7 183.3 L165.55 145.2 127.15 119.0 129.1 66.6 131.6 -3.8 62.55 6.35 65.85 82.3 67.0 109.55 28.8 142.5 8.55 215.85 11.1 253.75 12.45 274.35 16.4 283.45 167.8 283.45 176.0 269.3 176.7 214.2 171.7 183.3 M125.35 9.95 Q126.15 16.05 120.45 17.6 118.05 18.3 116.0 17.1 L115.95 15.05 Q117.4 15.9 119.15 15.95 124.85 15.45 125.35 9.95 M121.15 6.0 L122.3 4.75 122.3 6.9 114.05 15.6 114.05 13.35 121.15 6.0 M103.1 -4.05 Q120.35 -7.85 137.75 -10.3 L133.25 119.7 Q136.65 122.8 140.8 125.1 L170.8 141.65 181.6 203.55 178.7 270.7 171.65 286.25 12.5 286.25 6.7 275.75 3.7 221.35 24.65 139.4 61.05 106.9 56.6 5.65 70.6 2.85 103.1 -4.05 M59.75 129.4 L59.8 129.45 59.75 129.45 59.75 129.4 M59.8 129.4 L59.8 127.25 68.05 118.65 68.05 120.75 59.8 129.4 M71.15 123.8 Q71.9 129.9 66.25 131.55 63.75 132.25 61.75 130.95 L61.75 128.95 Q63.2 129.75 64.95 129.8 70.65 129.3 71.15 123.8 M163.5 197.65 L163.9 196.9 163.95 196.9 163.5 197.65 M161.9 198.7 Q162.0 199.7 162.55 200.55 L163.25 201.25 163.95 201.6 Q169.3 203.4 170.0 197.95 171.25 203.25 166.05 204.15 161.65 203.5 161.9 198.7 M161.1 268.45 L169.35 259.85 169.35 261.95 161.1 270.6 161.1 268.45 M163.0 272.15 L163.0 270.15 Q164.45 270.95 166.25 271.0 171.9 270.5 172.45 265.0 173.2 271.1 167.5 272.8 165.15 273.45 163.0 272.15 M161.05 270.6 L161.1 270.65 161.05 270.65 161.05 270.6 M22.2 260.9 Q22.95 263.65 20.8 264.9 14.7 268.2 14.05 261.35 L14.65 263.0 Q15.15 258.25 20.0 257.3 L21.35 258.4 Q21.0 264.2 15.35 263.65 L16.0 263.95 Q21.0 266.05 22.2 260.9" fill="#47525f" fill-rule="evenodd" stroke="none"/>
    <path d="M129.1 66.6 L127.15 119.0 165.55 145.2 171.7 183.3 11.1 253.75 8.55 215.85 28.8 142.5 67.0 109.55 65.85 82.3 129.1 66.6 M123.15 7.55 L124.2 6.4 Q124.7 15.05 116.2 15.05 L115.95 15.05 123.15 7.55 M58.6 123.9 L58.6 126.35 Q58.35 127.1 59.75 129.4 L59.75 129.45 59.8 129.5 61.75 130.95 Q63.75 132.25 66.25 131.55 71.9 129.9 71.15 123.8 L69.95 120.3 Q70.5 128.95 62.0 128.95 L61.75 128.95 68.9 121.45 68.05 120.75 68.05 118.65 67.7 118.35 67.05 118.1 Q59.95 116.65 58.6 123.9 M163.0 270.15 L170.15 262.65 171.25 261.5 171.3 262.3 Q171.1 270.4 163.0 270.15" fill="#bab9ba" fill-rule="evenodd" stroke="none"/>
    <path d="M129.1 66.6 L65.85 82.3 62.55 6.35 131.6 -3.8 129.1 66.6 M11.1 253.75 L171.7 183.3 176.7 214.2 176.0 269.3 167.8 283.45 16.4 283.45 12.45 274.35 11.1 253.75 M125.35 9.95 L124.2 6.4 123.15 7.55 122.3 6.9 122.3 4.75 121.15 6.0 122.25 4.75 121.9 4.5 121.3 4.25 Q114.25 2.8 112.8 10.0 L112.8 12.45 Q112.6 13.2 114.05 15.6 L116.0 17.1 Q118.05 18.3 120.45 17.6 126.15 16.05 125.35 9.95 M163.9 196.9 L164.0 196.8 163.95 196.9 163.9 196.9 M167.75 194.95 L167.9 194.85 Q162.9 193.55 161.9 198.7 161.65 203.5 166.05 204.15 171.25 203.25 170.0 197.95 L169.2 196.0 167.75 194.95 M160.85 266.8 L160.8 267.05 160.8 267.0 160.85 266.8 M169.35 259.85 L168.75 259.6 Q162.65 257.6 160.35 263.8 L159.85 265.55 159.85 267.55 Q159.65 268.3 161.05 270.6 L161.05 270.65 161.1 270.7 163.0 272.15 Q165.15 273.45 167.5 272.8 173.2 271.1 172.45 265.0 L171.25 261.5 170.15 262.65 169.35 261.95 169.35 259.85 M22.2 260.9 L21.35 258.4 20.0 257.3 19.1 257.0 Q14.3 256.6 14.05 261.35 14.7 268.2 20.8 264.9 22.95 263.65 22.2 260.9" fill="#9c9c9c" fill-rule="evenodd" stroke="none"/>
    <path d="M116.0 17.1 L114.05 15.6 122.3 6.9 123.15 7.55 115.95 15.05 116.0 17.1 M59.8 129.45 L59.8 129.5 59.8 129.4 68.05 120.75 68.9 121.45 61.75 128.95 61.75 130.95 59.8 129.5 59.75 129.45 59.8 129.45 M161.1 270.7 L161.1 270.6 169.35 261.95 170.15 262.65 163.0 270.15 163.0 272.15 161.1 270.7 161.05 270.65 161.1 270.65 161.1 270.7" fill="#57565b" fill-rule="evenodd" stroke="none"/>
    <path d="M114.05 15.6 Q112.6 13.2 112.8 12.45 L112.8 10.0 Q112.9 11.5 113.65 12.85 L114.05 13.35 114.05 15.6 M58.6 123.9 Q58.7 125.4 59.45 126.7 L59.8 127.25 59.8 129.4 59.8 129.5 59.8 129.45 59.75 129.4 Q58.35 127.1 58.6 126.35 L58.6 123.9 M160.8 267.05 L160.75 267.9 161.1 268.45 161.1 270.6 161.1 270.7 161.1 270.65 161.05 270.6 Q159.65 268.3 159.85 267.55 L159.85 265.55 Q160.0 266.75 160.7 267.9 L160.8 267.0 160.8 267.05" fill="#79818b" fill-rule="evenodd" stroke="none"/>
    <path d="M121.9 4.5 L122.25 4.75 121.15 6.0 114.05 13.35 113.65 12.85 Q115.0 6.9 121.05 4.8 L121.9 4.5 M59.8 127.25 L59.45 126.7 59.65 125.8 Q62.0 120.25 67.7 118.35 L68.05 118.65 59.8 127.25 M164.0 196.8 L164.6 196.2 Q166.1 195.1 167.75 194.95 L169.2 196.0 169.05 196.9 Q168.0 201.7 163.25 201.25 L162.55 200.55 163.5 197.65 163.95 196.9 164.0 196.8 M160.85 266.8 L161.35 265.75 Q163.85 261.4 168.75 259.6 L169.35 259.85 161.1 268.45 160.75 267.9 160.8 267.05 160.85 266.8" fill="#d0cfd0" fill-rule="evenodd" stroke="none"/>
    <path d="M112.8 10.0 Q114.25 2.8 121.3 4.25 L121.9 4.5 121.05 4.8 Q115.0 6.9 113.65 12.85 112.9 11.5 112.8 10.0 M59.45 126.7 Q58.7 125.4 58.6 123.9 59.95 116.65 67.05 118.1 L67.7 118.35 Q62.0 120.25 59.65 125.8 L59.45 126.7 M163.9 196.9 L163.5 197.65 162.55 200.55 Q162.0 199.7 161.9 198.7 162.9 193.55 167.9 194.85 L167.75 194.95 Q166.1 195.1 164.6 196.2 L164.0 196.8 163.9 196.9 M168.75 259.6 Q163.85 261.4 161.35 265.75 L160.85 266.8 160.8 267.0 160.7 267.9 Q160.0 266.75 159.85 265.55 L160.35 263.8 Q162.65 257.6 168.75 259.6 M14.05 261.35 Q14.3 256.6 19.1 257.0 L20.0 257.3 Q15.15 258.25 14.65 263.0 L14.05 261.35" fill="#e9e9eb" fill-rule="evenodd" stroke="none"/>
    <path d="M124.2 6.4 L125.35 9.95 Q124.85 15.45 119.15 15.95 117.4 15.9 115.95 15.05 L116.2 15.05 Q124.7 15.05 124.2 6.4 M61.75 128.95 L62.0 128.95 Q70.5 128.95 69.95 120.3 L71.15 123.8 Q70.65 129.3 64.95 129.8 63.2 129.75 61.75 128.95 M170.0 197.95 Q169.3 203.4 163.95 201.6 L163.25 201.25 Q168.0 201.7 169.05 196.9 L169.2 196.0 170.0 197.95 M21.35 258.4 L22.2 260.9 Q21.0 266.05 16.0 263.95 L15.35 263.65 Q21.0 264.2 21.35 258.4 M172.45 265.0 Q171.9 270.5 166.25 271.0 164.45 270.95 163.0 270.15 171.1 270.4 171.3 262.3 L171.25 261.5 172.45 265.0" fill="#b0aeb3" fill-rule="evenodd" stroke="none"/>
  </g>
</svg>
