<?xml version="1.0" encoding="UTF-8" standalone="no"?>
<svg xmlns:xlink="http://www.w3.org/1999/xlink" height="262.95px" width="143.85px" xmlns="http://www.w3.org/2000/svg">
  <g transform="matrix(1.0, 0.0, 0.0, 1.0, 0.0, 0.0)">
    <path d="M95.0 23.25 L94.35 3.15 63.05 3.0 61.75 23.5 95.0 23.25 M95.8 0.15 L96.85 0.6 98.0 23.2 99.9 23.35 100.75 24.05 101.4 32.2 100.15 32.75 99.8 32.9 97.65 32.85 97.8 110.25 130.65 126.65 131.45 127.7 142.45 180.2 142.9 234.65 143.2 236.5 143.5 238.9 Q144.25 247.35 143.35 255.9 L127.45 262.3 114.65 255.8 114.1 262.3 112.95 262.95 73.95 262.5 38.5 262.95 37.25 262.2 36.45 256.7 30.35 262.85 4.95 254.2 Q4.5 254.15 4.15 253.8 L0.05 216.75 0.0 216.3 5.5 175.3 19.5 126.1 20.3 125.15 54.5 108.8 58.25 32.6 53.8 31.7 54.85 24.15 58.75 23.55 60.7 0.5 61.65 0.0 95.8 0.15 M98.45 29.85 L98.0 26.2 57.0 26.55 56.7 29.6 98.45 29.85 M90.75 52.2 L91.55 49.15 91.3 48.75 Q87.25 47.55 83.8 49.9 82.35 50.9 82.4 52.55 L81.95 53.55 80.9 53.3 80.5 52.75 Q80.15 51.45 80.7 50.55 83.9 45.55 90.25 46.35 91.15 46.65 91.9 47.25 94.7 49.4 92.35 52.85 L91.0 52.8 90.75 52.2 M92.1 35.8 Q93.65 36.75 92.45 38.15 L78.8 49.05 Q78.1 49.2 77.7 48.65 77.15 47.95 77.7 47.4 84.3 40.95 91.6 35.5 L92.1 35.8 M81.2 65.95 L82.05 62.3 82.7 62.35 Q86.6 68.45 93.8 69.75 L93.55 71.15 Q88.35 70.8 84.4 67.55 83.75 67.05 83.2 65.85 80.2 69.55 75.55 68.95 72.7 68.75 70.35 66.4 67.5 69.7 63.75 69.75 L61.2 69.7 60.55 68.8 61.2 67.85 Q65.75 68.35 68.9 64.9 70.25 63.45 70.6 61.6 L71.2 61.35 72.0 61.75 71.6 65.1 Q74.05 67.65 76.65 67.45 79.25 67.25 81.2 65.95 M80.85 75.65 L92.65 71.7 93.3 72.55 Q93.3 73.1 92.8 73.5 92.45 73.75 92.4 73.5 L81.55 77.5 80.95 77.4 80.25 77.95 80.15 78.0 78.8 77.5 79.0 76.4 79.45 76.15 79.55 76.1 80.4 76.25 80.85 75.65 M94.15 92.8 L93.85 93.25 93.1 93.4 93.3 92.9 Q93.55 92.0 94.15 92.8 M59.15 75.5 L57.55 108.3 74.75 114.7 94.25 108.8 88.4 110.8 94.55 109.05 94.65 32.85 61.25 32.6 60.95 38.7 61.05 38.6 Q61.3 38.4 61.6 38.35 L63.1 38.4 Q68.6 42.65 73.25 47.45 L72.4 49.0 60.85 40.2 59.25 73.2 59.15 75.5 M61.5 71.05 L71.35 76.4 71.9 77.05 Q72.1 77.95 71.25 78.25 L70.35 78.1 61.45 73.2 60.55 72.35 60.9 71.3 61.5 71.05 M69.8 53.1 L70.45 51.95 Q70.2 50.3 68.75 49.15 66.45 47.4 64.0 48.0 L63.4 50.2 63.05 50.6 62.1 50.7 61.55 50.15 Q61.2 46.75 64.55 45.65 69.2 46.15 71.75 49.95 73.75 52.9 70.75 54.5 L69.8 53.95 69.8 53.1 M69.9 121.9 L69.65 117.7 65.4 114.9 65.65 126.4 69.9 121.9 M80.15 116.65 L79.6 123.0 84.3 127.05 85.65 114.3 80.15 116.65 M77.05 117.5 L72.7 118.15 72.9 121.2 76.65 121.9 77.05 117.5 M53.95 128.75 L45.35 136.15 69.85 166.05 71.1 163.65 55.55 111.65 38.65 119.7 53.85 128.1 53.95 128.75 M43.0 136.3 L43.35 135.3 51.2 128.7 36.45 120.75 22.2 127.55 8.4 175.9 2.95 216.5 5.55 244.25 Q9.95 226.8 12.5 226.9 L15.8 226.55 Q20.2 224.15 24.5 225.15 29.85 226.6 34.6 230.4 L29.0 154.3 23.0 142.75 23.9 142.05 30.95 153.95 36.8 232.25 39.95 235.1 38.2 244.4 39.9 246.7 39.8 259.95 60.5 259.7 61.6 185.55 69.45 167.4 68.5 167.4 43.0 136.3 M62.4 113.3 L58.75 111.95 62.6 124.9 62.4 113.3 M64.6 131.55 L69.45 147.75 74.75 150.9 76.5 149.8 84.5 131.2 77.3 125.05 72.0 124.1 64.6 131.55 M124.55 134.5 L125.4 135.2 120.45 146.25 115.15 233.95 118.4 230.85 121.6 227.7 121.95 227.4 122.35 227.25 Q132.25 225.6 139.9 231.85 L139.45 180.7 128.65 129.05 107.45 118.45 94.65 130.35 101.35 134.1 101.45 134.65 101.25 135.15 63.6 185.7 62.5 259.65 111.5 259.95 111.7 254.2 110.3 253.35 109.95 253.1 109.7 252.75 109.55 252.4 Q109.55 247.5 112.6 243.6 L118.45 145.95 121.0 140.55 123.6 135.15 124.0 134.75 124.55 134.5 M79.05 151.4 L79.0 151.6 73.9 163.65 Q73.6 164.25 72.95 164.45 L67.1 177.7 98.95 134.9 92.05 131.0 92.0 130.4 105.55 117.5 95.7 112.55 79.15 151.25 79.05 151.4 M72.75 158.6 L74.6 154.3 70.75 152.0 72.75 158.6 M92.35 112.85 L88.3 114.0 87.55 124.1 92.35 112.85 M125.7 242.6 L125.85 242.1 126.25 241.65 126.7 241.25 128.15 241.85 131.05 252.0 130.0 252.8 129.05 252.65 127.95 251.2 122.1 250.8 115.1 245.3 112.8 247.7 112.55 251.2 127.6 259.4 140.95 253.9 141.1 237.05 132.0 228.65 123.35 230.1 116.3 237.05 116.3 242.5 123.15 247.9 127.05 248.1 125.75 243.1 125.7 242.6 M22.75 246.95 L31.8 247.05 36.9 236.3 24.6 225.9 13.8 229.0 Q8.3 240.05 6.9 252.0 L29.55 259.65 36.65 252.15 36.95 247.45 35.95 246.4 33.5 249.75 22.3 249.95 20.85 252.05 19.65 251.7 21.1 240.35 22.8 240.3 23.3 240.95 22.75 246.95" fill="#1a1a1a" fill-rule="evenodd" stroke="none"/>
    <path d="M85.95 10.6 L85.95 16.75 80.55 16.75 80.55 22.15 74.4 22.15 74.4 16.75 69.0 16.75 69.0 10.6 74.4 10.6 74.4 5.2 80.55 5.2 80.55 10.6 85.95 10.6" fill="#993300" fill-rule="evenodd" stroke="none"/>
    <path d="M98.45 29.85 L56.7 29.6 57.0 26.55 98.0 26.2 98.45 29.85 M43.0 136.3 L68.5 167.4 69.45 167.4 61.6 185.55 60.5 259.7 39.8 259.95 39.9 246.7 38.2 244.4 39.95 235.1 36.8 232.25 30.95 153.95 23.9 142.05 23.0 142.75 29.0 154.3 34.6 230.4 Q29.85 226.6 24.5 225.15 20.2 224.15 15.8 226.55 L12.5 226.9 Q9.95 226.8 5.55 244.25 L2.95 216.5 8.4 175.9 22.2 127.55 36.45 120.75 51.2 128.7 43.35 135.3 43.0 136.3 M53.95 128.75 L53.85 128.1 38.65 119.7 55.55 111.65 71.1 163.65 69.85 166.05 45.35 136.15 53.95 128.75 M72.75 158.6 L70.75 152.0 74.6 154.3 72.75 158.6 M79.05 151.4 L79.15 151.25 95.7 112.55 105.55 117.5 92.0 130.4 92.05 131.0 98.95 134.9 67.1 177.7 72.95 164.45 Q73.6 164.25 73.9 163.65 L79.0 151.6 79.05 151.4 M124.55 134.5 L124.0 134.75 123.6 135.15 121.0 140.55 118.45 145.95 112.6 243.6 Q109.55 247.5 109.55 252.4 L109.7 252.75 109.95 253.1 110.3 253.35 111.7 254.2 111.5 259.95 62.5 259.65 63.6 185.7 101.25 135.15 101.45 134.65 101.35 134.1 94.65 130.35 107.45 118.45 128.65 129.05 139.45 180.7 139.9 231.85 Q132.25 225.6 122.35 227.25 L121.95 227.4 121.6 227.7 118.4 230.85 115.15 233.95 120.45 146.25 125.4 135.2 124.55 134.5" fill="#3a3d6a" fill-rule="evenodd" stroke="none"/>
    <path d="M85.95 10.6 L80.55 10.6 80.55 5.2 74.4 5.2 74.4 10.6 69.0 10.6 69.0 16.75 74.4 16.75 74.4 22.15 80.55 22.15 80.55 16.75 85.95 16.75 85.95 10.6 M95.0 23.25 L61.75 23.5 63.05 3.0 94.35 3.15 95.0 23.25 M88.15 84.0 L88.05 80.05 87.15 83.85 Q77.2 80.75 67.15 83.0 L66.9 80.4 66.2 80.15 66.15 83.3 64.45 83.75 64.3 84.65 66.2 84.3 66.6 87.45 67.2 84.05 Q77.3 82.75 87.1 84.9 L87.9 87.3 88.1 85.05 90.5 85.35 90.75 84.5 88.15 84.0 M92.4 73.5 Q92.2 78.1 92.45 81.3 92.7 84.45 92.2 91.75 86.35 90.25 82.0 87.75 77.65 85.2 73.05 87.35 68.4 89.5 62.2 93.9 L62.4 88.8 Q62.7 80.95 61.45 73.2 L70.35 78.1 Q72.2 79.8 74.7 79.75 77.7 79.55 80.15 78.0 L80.25 77.95 81.55 77.5 92.4 73.5" fill="#ffffff" fill-rule="evenodd" stroke="none"/>
    <path d="M84.35 52.5 L84.1 51.05 84.5 50.7 84.55 50.7 Q86.3 49.3 87.5 50.95 L87.8 51.9 86.8 53.3 86.5 53.7 85.25 53.8 84.35 52.5 M93.3 72.55 L94.15 92.8 Q93.55 92.0 93.3 92.9 L93.1 93.4 92.4 93.7 80.5 89.1 Q74.8 86.75 70.2 90.75 65.95 94.5 60.55 96.2 61.45 87.45 61.15 78.65 61.1 77.3 60.45 76.25 L59.15 75.5 59.25 73.2 Q59.3 72.3 59.9 71.7 60.55 71.05 61.5 71.05 L60.9 71.3 60.55 72.35 61.45 73.2 Q62.7 80.95 62.4 88.8 L62.2 93.9 Q68.4 89.5 73.05 87.35 77.65 85.2 82.0 87.75 86.35 90.25 92.2 91.75 92.7 84.45 92.45 81.3 92.2 78.1 92.4 73.5 92.45 73.75 92.8 73.5 93.3 73.1 93.3 72.55 M71.35 76.4 Q73.1 78.1 75.35 77.7 77.6 77.2 79.45 76.15 L79.0 76.4 78.8 77.5 80.15 78.0 Q77.7 79.55 74.7 79.75 72.2 79.8 70.35 78.1 L71.25 78.25 Q72.1 77.95 71.9 77.05 L71.35 76.4 M79.55 76.1 L80.85 75.65 80.4 76.25 79.55 76.1 M88.15 84.0 L90.75 84.5 90.5 85.35 88.1 85.05 87.9 87.3 87.1 84.9 Q77.3 82.75 67.2 84.05 L66.6 87.45 66.2 84.3 64.3 84.65 64.45 83.75 66.15 83.3 66.2 80.15 66.9 80.4 67.15 83.0 Q77.2 80.75 87.15 83.85 L88.05 80.05 88.15 84.0 M81.55 77.5 L80.25 77.95 80.95 77.4 81.55 77.5 M66.8 52.45 L65.9 51.95 65.8 51.05 67.05 49.65 Q68.85 49.75 68.85 51.6 L68.75 52.35 68.45 52.5 66.8 52.45" fill="#000000" fill-rule="evenodd" stroke="none"/>
    <path d="M90.75 52.2 L91.0 52.8 92.35 52.85 Q94.7 49.4 91.9 47.25 91.15 46.65 90.25 46.35 83.9 45.55 80.7 50.55 80.15 51.45 80.5 52.75 L80.9 53.3 81.95 53.55 82.4 52.55 84.35 52.5 85.25 53.8 86.5 53.7 86.8 53.3 87.65 52.35 90.75 52.2 M92.1 35.8 L91.6 35.5 Q84.3 40.95 77.7 47.4 77.15 47.95 77.7 48.65 78.1 49.2 78.8 49.05 L92.45 38.15 Q93.65 36.75 92.1 35.8 M81.2 65.95 Q79.25 67.25 76.65 67.45 74.05 67.65 71.6 65.1 L72.0 61.75 71.2 61.35 70.6 61.6 Q70.25 63.45 68.9 64.9 65.75 68.35 61.2 67.85 L60.55 68.8 61.2 69.7 63.75 69.75 Q67.5 69.7 70.35 66.4 72.7 68.75 75.55 68.95 80.2 69.55 83.2 65.85 83.75 67.05 84.4 67.55 88.35 70.8 93.55 71.15 L93.8 69.75 Q86.6 68.45 82.7 62.35 L82.05 62.3 81.2 65.95 M93.3 72.55 L92.65 71.7 80.85 75.65 79.55 76.1 79.45 76.15 Q77.6 77.2 75.35 77.7 73.1 78.1 71.35 76.4 L61.5 71.05 Q60.55 71.05 59.9 71.7 59.3 72.3 59.25 73.2 L60.85 40.2 72.4 49.0 73.25 47.45 Q68.6 42.65 63.1 38.4 L61.6 38.35 Q61.3 38.4 61.05 38.6 L60.95 38.7 61.25 32.6 94.65 32.85 94.55 109.05 88.4 110.8 94.25 108.8 74.75 114.7 57.55 108.3 59.15 75.5 60.45 76.25 Q61.1 77.3 61.15 78.65 61.45 87.45 60.55 96.2 65.95 94.5 70.2 90.75 74.8 86.75 80.5 89.1 L92.4 93.7 93.1 93.4 93.85 93.25 94.15 92.8 93.3 72.55 M69.8 53.1 L69.8 53.95 70.75 54.5 Q73.75 52.9 71.75 49.95 69.2 46.15 64.55 45.65 61.2 46.75 61.55 50.15 L62.1 50.7 63.05 50.6 63.4 50.2 65.0 50.95 65.1 51.85 Q65.9 52.5 66.8 52.45 L68.45 52.5 69.8 53.1 M125.7 242.6 L125.75 243.1 127.05 248.1 123.15 247.9 116.3 242.5 116.3 237.05 123.35 230.1 132.0 228.65 141.1 237.05 140.95 253.9 127.6 259.4 112.55 251.2 112.8 247.7 115.1 245.3 122.1 250.8 127.95 251.2 129.05 252.65 130.0 252.8 131.05 252.0 128.15 241.85 126.7 241.25 126.25 241.65 125.85 242.1 125.7 242.6 M22.75 246.95 L23.3 240.95 22.8 240.3 21.1 240.35 19.65 251.7 20.85 252.05 22.3 249.95 33.5 249.75 35.95 246.4 36.95 247.45 36.65 252.15 29.55 259.65 6.9 252.0 Q8.3 240.05 13.8 229.0 L24.6 225.9 36.9 236.3 31.8 247.05 22.75 246.95" fill="#cacfe6" fill-rule="evenodd" stroke="none"/>
    <path d="M82.4 52.55 Q82.35 50.9 83.8 49.9 87.25 47.55 91.3 48.75 L91.55 49.15 90.75 52.2 87.65 52.35 86.8 53.3 87.8 51.9 87.5 50.95 Q86.3 49.3 84.55 50.7 L84.5 50.65 84.5 50.7 84.1 51.05 84.35 52.5 82.4 52.55 M63.4 50.2 L64.0 48.0 Q66.45 47.4 68.75 49.15 70.2 50.3 70.45 51.95 L69.8 53.1 68.45 52.5 68.75 52.35 68.85 51.6 Q68.85 49.75 67.05 49.65 L65.8 51.05 65.9 51.95 66.8 52.45 Q65.9 52.5 65.1 51.85 L65.0 50.95 63.4 50.2" fill="#996699" fill-rule="evenodd" stroke="none"/>
    <path d="M77.05 117.5 L76.65 121.9 72.9 121.2 72.7 118.15 77.05 117.5 M80.15 116.65 L85.65 114.3 84.3 127.05 79.6 123.0 80.15 116.65 M69.9 121.9 L65.65 126.4 65.4 114.9 69.65 117.7 69.9 121.9" fill="#990000" fill-rule="evenodd" stroke="none"/>
    <path d="M64.6 131.55 L72.0 124.1 77.3 125.05 84.5 131.2 76.5 149.8 74.75 150.9 69.45 147.75 64.6 131.55 M62.4 113.3 L62.6 124.9 58.75 111.95 62.4 113.3 M92.35 112.85 L87.55 124.1 88.3 114.0 92.35 112.85" fill="#d7dcec" fill-rule="evenodd" stroke="none"/>
  </g>
</svg>
