<?xml version="1.0" encoding="UTF-8" standalone="no"?>
<svg xmlns:xlink="http://www.w3.org/1999/xlink" height="285.85px" width="235.4px" xmlns="http://www.w3.org/2000/svg">
  <g transform="matrix(1.0, 0.0, 0.0, 1.0, 0.0, 0.0)">
    <path d="M162.75 61.65 Q163.45 63.95 162.15 65.85 160.7 68.1 158.25 67.45 154.7 66.4 154.95 62.45 155.05 63.4 155.55 64.15 L156.25 64.85 Q158.55 66.55 161.0 65.05 162.95 63.95 162.75 61.65 M164.9 107.6 Q165.6 111.25 162.9 113.7 159.6 116.75 155.8 114.45 L155.8 112.55 Q157.2 113.35 158.9 113.4 164.4 112.9 164.9 107.6 M160.8 103.8 L161.95 102.6 161.95 104.65 153.95 113.05 153.95 110.9 160.8 103.8 M234.15 142.5 L235.4 210.85 224.15 275.65 213.4 285.4 30.6 285.85 9.65 267.9 0.0 172.35 18.65 138.15 62.75 101.4 59.85 57.0 98.9 0.0 148.05 9.75 178.8 68.3 171.75 100.7 234.15 142.5 M227.15 174.7 L224.85 142.8 168.75 103.55 172.9 69.0 144.25 12.15 101.8 5.9 68.45 58.35 68.45 95.05 68.4 104.05 23.25 141.7 8.75 173.4 15.15 265.4 16.85 267.05 32.95 283.15 211.05 282.7 220.9 272.85 229.7 210.5 227.15 174.7 M107.65 12.3 L108.8 11.1 108.8 13.15 100.8 21.55 100.8 19.4 107.65 12.3 M111.75 16.1 Q112.45 19.7 109.75 22.15 106.35 25.2 102.65 22.95 L102.65 21.05 Q104.05 21.85 105.75 21.9 111.25 21.4 111.75 16.1 M156.85 60.7 L156.4 61.4 156.8 60.7 156.85 60.7 M80.05 82.6 Q80.75 85.1 78.95 86.9 78.3 87.6 77.3 87.95 72.25 88.1 72.2 82.9 L72.85 84.45 73.45 85.25 Q74.55 86.25 76.1 86.25 79.65 85.95 80.05 82.6 M35.05 269.1 L35.0 271.35 Q34.65 274.85 31.25 275.15 27.25 274.5 27.25 270.05 L27.85 271.6 28.45 272.3 Q29.55 273.25 31.1 273.3 34.95 272.95 35.05 269.1 M202.95 271.8 L209.8 264.7 210.95 263.5 210.95 265.55 202.95 273.95 202.95 271.8 M213.9 268.5 Q214.45 272.2 211.9 274.6 208.6 277.8 204.8 275.35 L204.8 273.45 Q206.2 274.25 207.9 274.3 213.4 273.8 213.9 268.5" fill="#47525f" fill-rule="evenodd" stroke="none"/>
    <path d="M155.8 114.45 Q159.6 116.75 162.9 113.7 165.6 111.25 164.9 107.6 L163.75 104.2 163.75 105.2 Q163.25 112.7 155.8 112.55 L162.75 105.3 161.95 104.65 161.95 102.6 160.8 103.8 161.55 102.35 Q158.05 102.35 155.6 104.45 153.15 106.55 153.15 109.5 L153.95 113.05 155.8 114.45 M172.9 69.0 L168.75 103.55 224.85 142.8 227.15 174.7 16.85 267.05 15.15 265.4 8.75 173.4 23.25 141.7 68.4 104.05 68.45 95.05 172.9 69.0 M109.6 13.8 L110.6 12.7 Q111.25 16.7 108.35 19.3 106.0 21.5 102.65 21.05 L109.6 13.8 M211.75 266.2 L212.75 265.1 Q213.5 268.35 211.15 270.8 208.5 273.65 204.8 273.45 L211.75 266.2" fill="#bab9ba" fill-rule="evenodd" stroke="none"/>
    <path d="M154.95 62.45 Q154.7 66.4 158.25 67.45 160.7 68.1 162.15 65.85 163.45 63.95 162.75 61.65 L161.95 59.75 160.55 58.75 160.7 58.65 Q155.8 57.4 154.95 62.45 M227.15 174.7 L229.7 210.5 220.9 272.85 211.05 282.7 32.95 283.15 16.85 267.05 227.15 174.7 M68.45 95.05 L68.45 58.35 101.8 5.9 144.25 12.15 172.9 69.0 68.45 95.05 M108.8 13.15 L108.8 11.1 107.65 12.3 108.4 10.85 Q104.9 10.85 102.45 12.95 100.0 15.05 100.0 18.0 L100.8 21.55 102.65 22.95 Q106.35 25.2 109.75 22.15 112.45 19.7 111.75 16.1 L110.6 12.7 109.6 13.8 108.8 13.15 M156.8 60.7 L156.9 60.6 156.85 60.7 156.8 60.7 M79.25 80.15 L77.95 79.1 77.1 78.8 Q72.55 78.4 72.2 82.9 72.25 88.1 77.3 87.95 78.3 87.6 78.95 86.9 80.75 85.1 80.05 82.6 L79.25 80.15 M35.05 269.1 Q34.95 268.05 34.25 267.2 L33.0 266.15 32.15 265.85 Q27.55 265.5 27.25 270.05 27.25 274.5 31.25 275.15 34.65 274.85 35.0 271.35 L35.05 269.1 M210.55 263.25 Q207.05 263.25 204.6 265.35 202.15 267.45 202.15 270.4 L202.95 273.95 204.8 275.35 Q208.6 277.8 211.9 274.6 214.45 272.2 213.9 268.5 L212.75 265.1 211.75 266.2 210.95 265.55 210.95 263.5 209.8 264.7 210.55 263.25" fill="#9c9c9c" fill-rule="evenodd" stroke="none"/>
    <path d="M155.8 114.45 L153.95 113.05 161.95 104.65 162.75 105.3 155.8 112.55 155.8 114.45 M108.8 13.15 L109.6 13.8 102.65 21.05 102.65 22.95 100.8 21.55 108.8 13.15 M210.95 265.55 L211.75 266.2 204.8 273.45 204.8 275.35 202.95 273.95 210.95 265.55" fill="#57565b" fill-rule="evenodd" stroke="none"/>
    <path d="M153.95 113.05 L153.15 109.5 153.6 110.4 153.95 110.9 153.95 113.05 M100.8 21.55 L100.0 18.0 100.45 18.9 100.8 19.4 100.8 21.55 M202.15 270.4 L202.6 271.3 202.95 271.8 202.95 273.95 202.15 270.4" fill="#79818b" fill-rule="evenodd" stroke="none"/>
    <path d="M160.55 58.75 L161.95 59.75 Q162.05 61.2 161.15 62.5 159.3 65.3 156.25 64.85 L155.55 64.15 156.4 61.4 156.85 60.7 156.9 60.6 160.55 58.75 M161.55 102.35 L160.8 103.8 153.95 110.9 153.6 110.4 Q154.95 104.6 160.75 102.65 L161.55 102.35 M108.4 10.85 L107.65 12.3 100.8 19.4 100.45 18.9 Q100.65 17.9 101.1 17.05 103.6 12.45 108.4 10.85 M77.95 79.1 L79.25 80.15 Q79.25 84.85 74.45 85.35 L73.45 85.25 72.85 84.45 Q73.1 81.7 75.25 80.4 76.55 79.65 77.95 79.1 M33.0 266.15 L34.25 267.2 Q34.25 271.85 29.45 272.4 L28.45 272.3 27.85 271.6 Q27.85 269.35 29.35 267.75 30.85 266.15 33.0 266.15 M202.6 271.3 Q204.05 265.7 209.75 263.55 L210.55 263.25 209.8 264.7 202.95 271.8 202.6 271.3" fill="#d0cfd0" fill-rule="evenodd" stroke="none"/>
    <path d="M154.95 62.45 Q155.8 57.4 160.7 58.65 L160.55 58.75 156.9 60.6 156.8 60.7 156.4 61.4 155.55 64.15 Q155.05 63.4 154.95 62.45 M153.15 109.5 Q153.15 106.55 155.6 104.45 158.05 102.35 161.55 102.35 L160.75 102.65 Q154.95 104.6 153.6 110.4 L153.15 109.5 M100.0 18.0 Q100.0 15.05 102.45 12.95 104.9 10.85 108.4 10.85 103.6 12.45 101.1 17.05 100.65 17.9 100.45 18.9 L100.0 18.0 M72.2 82.9 Q72.55 78.4 77.1 78.8 L77.95 79.1 Q76.55 79.65 75.25 80.4 73.1 81.7 72.85 84.45 L72.2 82.9 M27.25 270.05 Q27.55 265.5 32.15 265.85 L33.0 266.15 Q30.85 266.15 29.35 267.75 27.85 269.35 27.85 271.6 L27.25 270.05 M210.55 263.25 L209.75 263.55 Q204.05 265.7 202.6 271.3 L202.15 270.4 Q202.15 267.45 204.6 265.35 207.05 263.25 210.55 263.25" fill="#e9e9eb" fill-rule="evenodd" stroke="none"/>
    <path d="M161.95 59.75 L162.75 61.65 Q162.95 63.95 161.0 65.05 158.55 66.55 156.25 64.85 159.3 65.3 161.15 62.5 162.05 61.2 161.95 59.75 M155.8 112.55 Q163.25 112.7 163.75 105.2 L163.75 104.2 164.9 107.6 Q164.4 112.9 158.9 113.4 157.2 113.35 155.8 112.55 M110.6 12.7 L111.75 16.1 Q111.25 21.4 105.75 21.9 104.05 21.85 102.65 21.05 106.0 21.5 108.35 19.3 111.25 16.7 110.6 12.7 M79.25 80.15 L80.05 82.6 Q79.65 85.95 76.1 86.25 74.55 86.25 73.45 85.25 L74.45 85.35 Q79.25 84.85 79.25 80.15 M34.25 267.2 Q34.95 268.05 35.05 269.1 34.95 272.95 31.1 273.3 29.55 273.25 28.45 272.3 L29.45 272.4 Q34.25 271.85 34.25 267.2 M212.75 265.1 L213.9 268.5 Q213.4 273.8 207.9 274.3 206.2 274.25 204.8 273.45 208.5 273.65 211.15 270.8 213.5 268.35 212.75 265.1" fill="#b0aeb3" fill-rule="evenodd" stroke="none"/>
  </g>
</svg>
