<?xml version="1.0" encoding="UTF-8" standalone="no"?>
<svg xmlns:xlink="http://www.w3.org/1999/xlink" height="263.5px" width="207.45px" xmlns="http://www.w3.org/2000/svg">
  <g transform="matrix(1.0, 0.0, 0.0, 1.0, 0.0, 0.0)">
    <path d="M47.15 234.7 L47.9 235.25 Q48.25 235.25 48.5 235.75 L48.7 236.85 49.35 249.05 30.7 262.85 29.2 262.45 10.7 244.4 4.1 221.55 0.0 173.1 8.65 126.9 9.35 125.45 53.7 97.95 67.3 89.05 59.6 73.9 68.5 47.65 60.5 47.6 59.9 46.85 59.65 46.4 59.6 45.9 59.75 45.35 87.45 0.7 88.75 0.0 119.55 0.5 Q120.5 0.7 120.95 1.5 L121.25 2.1 121.7 2.9 122.65 4.95 141.85 43.95 Q142.4 45.25 141.0 45.95 L140.55 46.1 135.25 46.35 129.85 46.55 140.4 74.85 137.1 88.65 152.95 97.95 197.9 122.15 198.75 123.35 203.6 164.3 203.7 165.15 204.25 170.25 204.1 171.8 203.95 173.7 201.5 198.25 195.5 243.0 174.85 262.85 156.3 249.05 Q154.95 226.7 150.3 204.95 L143.6 218.8 149.3 263.5 146.3 263.5 140.65 218.35 142.75 213.8 Q146.95 203.9 152.55 194.8 L195.15 124.1 159.2 104.7 155.65 125.05 139.9 129.0 146.45 134.4 146.25 135.95 84.0 201.75 78.1 263.5 75.05 263.5 81.05 200.95 94.4 175.3 61.95 138.45 61.7 138.1 66.85 127.9 51.8 125.9 50.55 123.7 49.4 121.4 48.4 119.0 Q46.55 114.25 46.0 109.05 L45.75 106.4 12.05 127.3 32.05 172.55 56.5 202.15 59.2 263.5 56.2 263.5 53.55 202.75 48.55 196.8 45.55 233.4 47.15 234.7 M201.25 170.2 L196.3 128.05 152.3 200.9 157.55 220.55 157.55 220.7 159.35 233.9 169.25 225.9 169.8 225.75 Q176.35 225.85 184.7 230.65 189.6 233.45 193.1 238.8 L198.55 197.85 201.25 170.2 M121.2 34.75 Q117.7 37.45 114.3 33.7 109.9 28.85 114.5 24.8 116.15 23.35 118.65 23.3 L114.55 19.85 Q114.15 22.6 112.05 23.4 L110.75 23.05 Q109.6 17.7 115.2 16.9 115.7 17.1 116.1 17.45 123.0 24.05 130.5 29.2 L130.45 29.65 Q129.15 31.6 127.2 29.75 L122.15 34.6 121.55 34.55 121.2 34.35 121.2 34.75 M122.2 32.0 L125.3 28.85 Q123.2 28.0 121.65 26.4 L120.4 25.1 116.95 25.55 Q114.55 25.8 113.85 28.05 114.25 31.05 116.65 33.0 118.6 34.4 120.8 33.75 L122.2 32.0 M70.55 73.9 Q67.95 76.6 64.2 76.25 L63.75 76.2 70.5 88.95 71.7 89.25 Q81.95 92.55 90.9 94.9 99.85 97.2 104.35 96.0 L121.05 91.6 134.2 88.05 135.5 82.85 132.4 82.25 131.9 81.4 136.0 80.9 137.25 76.2 Q125.2 76.7 113.85 80.95 L113.15 80.65 113.8 85.4 113.05 86.65 112.3 86.5 Q108.15 63.95 121.3 45.15 L128.0 34.9 129.65 35.95 129.65 36.85 127.7 36.95 Q125.55 40.0 125.25 43.75 L138.15 43.2 119.95 6.3 119.8 5.6 120.65 4.25 119.7 3.5 89.55 3.05 87.95 5.6 63.7 44.65 80.0 44.65 80.0 40.15 77.75 38.9 77.5 39.5 76.6 39.9 75.1 39.15 75.6 38.55 Q78.65 35.2 81.35 38.75 83.75 41.8 83.0 45.8 L83.5 46.45 82.75 48.4 Q100.2 59.5 99.2 80.15 L97.9 80.2 Q97.1 60.65 80.9 49.5 L80.9 47.7 71.7 47.65 63.05 74.35 Q66.95 73.5 70.35 71.15 76.0 67.2 82.4 65.3 88.65 63.3 91.8 68.7 97.1 77.95 90.6 85.85 L90.3 85.75 Q80.0 82.1 71.0 76.0 L70.9 74.9 71.35 74.45 89.35 84.6 Q94.35 75.6 88.85 67.0 88.1 65.8 86.75 65.7 77.3 66.7 70.55 73.9 M123.65 45.5 Q117.05 53.2 114.45 63.05 112.35 71.15 112.95 79.5 124.3 73.85 137.0 74.2 L126.45 45.95 123.65 45.5 M94.3 20.85 Q91.9 21.25 90.4 23.3 95.55 26.25 92.95 31.6 92.05 33.45 90.4 34.25 82.45 38.15 78.9 30.25 L78.5 30.0 77.55 30.35 Q75.3 30.4 74.45 28.35 81.55 27.9 86.65 22.95 88.4 21.25 90.6 20.3 95.95 17.95 98.45 23.5 L97.1 24.5 94.3 20.85 M86.9 33.6 Q90.3 32.1 92.7 28.9 L93.0 28.5 91.75 26.9 89.4 25.0 Q85.65 28.6 80.7 29.75 L82.9 33.3 86.25 33.95 86.9 33.6 M135.15 90.9 L120.4 94.95 119.25 107.2 124.0 110.6 137.35 92.75 135.15 90.9 M137.8 97.95 L88.85 192.25 142.95 135.1 141.55 134.5 Q136.85 132.55 135.25 128.0 L135.35 127.55 Q143.95 124.6 153.1 122.95 L156.3 103.85 140.15 93.95 139.5 94.7 138.8 96.2 137.65 96.55 137.95 97.25 137.8 97.95 M71.35 93.75 L81.35 110.85 83.45 109.55 83.45 95.5 72.8 92.95 71.35 93.75 M68.7 91.95 L48.75 104.6 53.5 123.25 70.25 125.8 Q68.85 132.05 64.9 137.25 L95.85 172.4 99.2 166.0 70.2 97.95 68.4 93.05 Q68.1 92.3 68.7 91.95 M79.9 113.5 L83.65 118.0 83.5 113.05 Q82.0 114.7 80.4 113.8 L79.9 113.5 M29.6 174.35 L10.8 131.85 3.05 173.0 7.1 221.15 12.05 239.4 18.95 228.55 19.4 228.1 20.0 227.9 Q27.85 226.75 35.4 227.85 39.1 228.25 42.55 230.95 L42.55 224.0 45.85 193.65 29.6 174.35 M107.25 109.05 L115.65 115.2 117.25 96.35 108.1 100.55 107.25 109.05 M104.95 101.25 L96.95 102.4 97.3 106.95 104.3 108.05 104.95 101.25 M118.3 118.65 L117.35 119.45 Q110.2 115.9 103.75 111.0 L103.2 137.35 124.05 113.85 119.05 110.75 118.3 118.65 M96.35 109.85 L85.4 119.05 84.65 119.15 100.2 137.85 100.8 110.55 96.35 109.85 M93.9 101.9 L86.5 97.65 86.55 114.65 94.3 107.65 93.9 101.9 M99.05 99.1 L92.4 97.55 95.8 99.5 99.05 99.1 M99.25 141.05 L83.9 123.65 93.85 146.0 99.25 141.05 M100.75 162.0 L120.2 125.65 95.1 148.95 100.75 162.0 M159.8 240.6 L165.05 245.45 173.35 241.85 172.9 238.0 174.9 238.15 Q177.3 241.9 177.05 246.35 L175.95 246.8 174.4 244.65 Q169.7 247.5 164.2 248.45 L159.6 244.5 159.05 247.45 175.15 259.4 192.1 242.85 184.4 230.75 170.65 228.65 159.8 237.6 159.8 240.6 M45.7 240.65 L45.7 237.4 34.85 228.65 21.15 230.75 13.45 242.85 30.4 259.4 46.5 247.45 45.95 244.45 41.05 248.55 31.15 244.65 30.2 246.55 28.55 246.6 Q28.05 242.9 29.95 239.65 L30.7 238.5 31.55 237.45 32.85 238.4 32.2 241.85 40.5 245.45 45.7 240.65" fill="#1a1a1a" fill-rule="evenodd" stroke="none"/>
    <path d="M146.3 263.5 L78.1 263.5 84.0 201.75 146.25 135.95 146.45 134.4 139.9 129.0 155.65 125.05 159.2 104.7 195.15 124.1 152.55 194.8 Q146.95 203.9 142.75 213.8 L140.65 218.35 146.3 263.5 M75.05 263.5 L59.2 263.5 56.5 202.15 32.05 172.55 12.05 127.3 45.75 106.4 46.0 109.05 Q46.55 114.25 48.4 119.0 L49.4 121.4 50.55 123.7 51.8 125.9 66.85 127.9 61.7 138.1 61.95 138.45 94.4 175.3 81.05 200.95 75.05 263.5 M201.25 170.2 L198.55 197.85 193.1 238.8 Q189.6 233.45 184.7 230.65 176.35 225.85 169.8 225.75 L169.25 225.9 159.35 233.9 157.55 220.7 157.55 220.55 152.3 200.9 196.3 128.05 201.25 170.2 M137.8 97.95 L137.95 97.25 137.65 96.55 138.8 96.2 139.5 94.7 140.15 93.95 156.3 103.85 153.1 122.95 Q143.95 124.6 135.35 127.55 L135.25 128.0 Q136.85 132.55 141.55 134.5 L142.95 135.1 88.85 192.25 137.8 97.95 M68.7 91.95 Q68.1 92.3 68.4 93.05 L70.2 97.95 99.2 166.0 95.85 172.4 64.9 137.25 Q68.85 132.05 70.25 125.8 L53.5 123.25 48.75 104.6 68.7 91.95 M29.6 174.35 L45.85 193.65 42.55 224.0 42.55 230.95 Q39.1 228.25 35.4 227.85 27.85 226.75 20.0 227.9 L19.4 228.1 18.95 228.55 12.05 239.4 7.1 221.15 3.05 173.0 10.8 131.85 29.6 174.35 M100.75 162.0 L95.1 148.95 120.2 125.65 100.75 162.0 M99.25 141.05 L93.85 146.0 83.9 123.65 99.25 141.05" fill="#3a3d6a" fill-rule="evenodd" stroke="none"/>
    <path d="M203.6 164.3 Q204.45 164.35 205.2 164.75 L203.7 165.15 203.6 164.3" fill="#e9e9eb" fill-rule="evenodd" stroke="none"/>
    <path d="M205.2 164.75 L206.45 165.8 206.45 166.05 Q206.6 168.8 204.25 170.25 L203.7 165.15 205.2 164.75" fill="#d0cfd0" fill-rule="evenodd" stroke="none"/>
    <path d="M206.45 165.8 Q207.15 166.65 207.25 167.7 L207.25 168.1 Q206.95 171.2 204.1 171.8 L204.25 170.25 Q206.6 168.8 206.45 166.05 L206.45 165.8" fill="#b0aeb3" fill-rule="evenodd" stroke="none"/>
    <path d="M207.25 167.7 Q208.25 171.8 204.65 173.45 L203.95 173.7 204.1 171.8 Q206.95 171.2 207.25 168.1 L207.25 167.7 M47.15 234.7 L47.15 234.55 47.15 234.7 M49.1 232.6 L49.0 232.75 49.05 232.6 49.1 232.6" fill="#47525f" fill-rule="evenodd" stroke="none"/>
    <path d="M116.65 33.0 Q114.25 31.05 113.85 28.05 114.55 25.8 116.95 25.55 L120.4 25.1 121.65 26.4 Q123.2 28.0 125.3 28.85 L122.2 32.0 Q122.2 30.45 119.95 29.95 118.4 30.05 117.35 31.8 L116.65 33.0 M71.35 74.45 L70.55 73.9 Q77.3 66.7 86.75 65.7 88.1 65.8 88.85 67.0 94.35 75.6 89.35 84.6 L71.35 74.45 M82.9 33.3 L80.7 29.75 Q85.65 28.6 89.4 25.0 L91.75 26.9 93.0 28.5 92.7 28.9 Q90.3 32.1 86.9 33.6 L85.6 30.4 84.55 30.35 82.9 33.3" fill="#ffffff" fill-rule="evenodd" stroke="none"/>
    <path d="M121.55 34.55 L121.2 34.75 121.2 34.35 121.55 34.55 M116.65 33.0 L117.35 31.8 Q118.4 30.05 119.95 29.95 122.2 30.45 122.2 32.0 L120.8 33.75 Q118.6 34.4 116.65 33.0 M119.8 5.6 L111.05 6.3 Q105.0 6.85 103.6 12.75 L102.7 11.45 Q97.3 3.15 87.95 5.6 L89.55 3.05 119.7 3.5 120.65 4.25 119.8 5.6 M82.9 33.3 L84.55 30.35 85.6 30.4 86.9 33.6 86.25 33.95 82.9 33.3" fill="#000000" fill-rule="evenodd" stroke="none"/>
    <path d="M121.55 34.55 L122.15 34.6 127.2 29.75 Q129.15 31.6 130.45 29.65 L130.5 29.2 Q123.0 24.05 116.1 17.45 115.7 17.1 115.2 16.9 109.6 17.7 110.75 23.05 L112.05 23.4 Q114.15 22.6 114.55 19.85 L118.65 23.3 Q116.15 23.35 114.5 24.8 109.9 28.85 114.3 33.7 117.7 37.45 121.2 34.75 L121.55 34.55 M119.8 5.6 L119.95 6.3 138.15 43.2 125.25 43.75 Q125.55 40.0 127.7 36.95 L129.65 36.85 129.65 35.95 128.0 34.9 121.3 45.15 Q108.15 63.95 112.3 86.5 L113.05 86.65 113.8 85.4 113.15 80.65 113.85 80.95 Q125.2 76.7 137.25 76.2 L136.0 80.9 131.9 81.4 132.4 82.25 135.5 82.85 134.2 88.05 121.05 91.6 104.35 96.0 Q99.85 97.2 90.9 94.9 81.95 92.55 71.7 89.25 L70.5 88.95 63.75 76.2 64.2 76.25 Q67.95 76.6 70.55 73.9 L71.35 74.45 70.9 74.9 71.0 76.0 Q80.0 82.1 90.3 85.75 L90.6 85.85 Q97.1 77.95 91.8 68.7 88.65 63.3 82.4 65.3 76.0 67.2 70.35 71.15 66.95 73.5 63.05 74.35 L71.7 47.65 80.9 47.7 80.9 49.5 Q97.1 60.65 97.9 80.2 L99.2 80.15 Q100.2 59.5 82.75 48.4 L83.5 46.45 83.0 45.8 Q83.75 41.8 81.35 38.75 78.65 35.2 75.6 38.55 L75.1 39.15 76.6 39.9 77.5 39.5 77.75 38.9 80.0 40.15 80.0 44.65 63.7 44.65 87.95 5.6 Q97.3 3.15 102.7 11.45 L103.6 12.75 Q105.0 6.85 111.05 6.3 L119.8 5.6 M123.65 45.5 L126.45 45.95 137.0 74.2 Q124.3 73.85 112.95 79.5 112.35 71.15 114.45 63.05 117.05 53.2 123.65 45.5 M94.3 20.85 L97.1 24.5 98.45 23.5 Q95.95 17.95 90.6 20.3 88.4 21.25 86.65 22.95 81.55 27.9 74.45 28.35 75.3 30.4 77.55 30.35 L78.5 30.0 78.9 30.25 Q82.45 38.15 90.4 34.25 92.05 33.45 92.95 31.6 95.55 26.25 90.4 23.3 91.9 21.25 94.3 20.85 M135.15 90.9 L137.35 92.75 124.0 110.6 119.25 107.2 120.4 94.95 135.15 90.9 M71.35 93.75 L72.8 92.95 83.45 95.5 83.45 109.55 81.35 110.85 71.35 93.75 M79.9 113.5 L80.4 113.8 Q82.0 114.7 83.5 113.05 L83.65 118.0 79.9 113.5 M96.35 109.85 L100.8 110.55 100.2 137.85 84.65 119.15 85.4 119.05 96.35 109.85 M118.3 118.65 L119.05 110.75 124.05 113.85 103.2 137.35 103.75 111.0 Q110.2 115.9 117.35 119.45 L118.3 118.65 M99.05 99.1 L95.8 99.5 92.4 97.55 99.05 99.1 M159.8 240.6 L159.8 237.6 170.65 228.65 184.4 230.75 192.1 242.85 175.15 259.4 159.05 247.45 159.6 244.5 164.2 248.45 Q169.7 247.5 174.4 244.65 L175.95 246.8 177.05 246.35 Q177.3 241.9 174.9 238.15 L172.9 238.0 173.35 241.85 165.05 245.45 159.8 240.6 M45.7 240.65 L40.5 245.45 32.2 241.85 32.85 238.4 31.55 237.45 30.7 238.5 29.95 239.65 Q28.05 242.9 28.55 246.6 L30.2 246.55 31.15 244.65 41.05 248.55 45.95 244.45 46.5 247.45 30.4 259.4 13.45 242.85 21.15 230.75 34.85 228.65 45.7 237.4 45.7 240.65" fill="#cacfe6" fill-rule="evenodd" stroke="none"/>
    <path d="M104.95 101.25 L104.3 108.05 97.3 106.95 96.95 102.4 104.95 101.25 M107.25 109.05 L108.1 100.55 117.25 96.35 115.65 115.2 107.25 109.05 M93.9 101.9 L94.3 107.65 86.55 114.65 86.5 97.65 93.9 101.9" fill="#990000" fill-rule="evenodd" stroke="none"/>
  </g>
</svg>
