<?xml version="1.0" encoding="UTF-8" standalone="no"?>
<svg xmlns:xlink="http://www.w3.org/1999/xlink" height="340.35px" width="287.0px" xmlns="http://www.w3.org/2000/svg">
  <g transform="matrix(1.0, 0.0, 0.0, 1.0, 22.7, 54.05)">
    <path d="M174.75 32.25 Q175.35 40.75 168.05 37.55 165.2 36.35 165.5 33.4 L166.2 35.25 166.9 36.05 167.7 36.4 Q173.9 38.75 174.75 32.25 M20.85 79.25 L-8.1 97.25 -18.3 194.95 -11.7 258.8 -3.35 267.9 259.45 153.2 250.6 96.6 175.6 53.9 178.0 43.85 186.7 -5.6 141.35 -47.1 82.85 -49.85 52.55 -0.45 61.55 53.8 Q41.15 66.55 20.85 79.25 M191.85 -11.45 L183.35 50.35 256.7 92.2 264.3 162.8 248.5 273.8 232.4 286.3 7.65 286.3 -18.15 261.8 -22.7 184.3 -16.8 98.0 54.15 50.45 42.0 -2.35 79.8 -52.85 143.8 -54.05 191.85 -11.45 M259.5 153.25 L-3.35 267.95 10.6 283.2 229.65 283.2 242.5 270.35 248.05 228.8 259.9 158.0 259.5 153.25 M254.15 168.5 L254.35 171.05 Q254.45 173.05 252.75 173.9 245.5 177.85 244.9 169.45 245.0 170.6 245.6 171.5 L246.45 172.3 247.2 172.7 Q253.35 174.8 254.15 168.5 M247.15 167.4 L246.8 167.85 247.1 167.4 247.15 167.4 M92.05 -43.85 L92.05 -41.4 82.55 -31.4 82.55 -33.95 82.6 -33.95 92.05 -43.85 M95.6 -37.9 Q96.2 -28.25 86.65 -29.5 L84.85 -29.7 84.8 -32.0 Q86.5 -31.05 88.5 -31.0 95.05 -31.6 95.6 -37.9 M71.4 57.8 L71.4 60.4 Q71.35 61.35 70.75 61.9 63.8 68.5 62.1 58.95 L62.85 60.75 63.55 61.6 64.3 62.0 Q70.5 64.2 71.4 57.8 M10.7 96.95 L10.7 99.4 1.2 109.35 1.2 106.8 1.25 106.8 10.7 96.95 M14.25 102.9 Q14.7 112.5 5.3 111.25 L3.5 111.1 3.45 108.75 Q5.1 109.7 7.1 109.75 13.65 109.2 14.25 102.9 M10.05 269.25 L10.75 271.3 11.7 268.95 10.8 271.3 11.65 272.1 Q12.9 273.25 14.65 273.25 18.9 272.9 19.35 268.9 19.75 270.85 18.6 272.0 11.55 278.35 10.05 269.25" fill="#47525f" fill-rule="evenodd" stroke="none"/>
    <path d="M178.0 43.85 L175.6 53.9 250.6 96.6 259.45 153.2 -3.35 267.9 -11.7 258.8 -18.3 194.95 -8.1 97.25 20.85 79.25 178.0 43.85 M93.0 -40.65 L94.25 -41.95 Q94.8 -32.15 85.1 -32.0 L84.8 -32.0 93.0 -40.65 M9.85 96.75 Q3.9 94.4 0.4 101.15 0.0 102.0 -0.25 102.95 L-0.25 105.75 Q-0.5 106.65 1.2 109.35 L3.5 111.1 5.3 111.25 Q14.7 112.5 14.25 102.9 L12.9 98.85 12.95 99.6 Q12.75 109.1 3.45 108.75 L11.65 100.15 10.7 99.4 10.7 96.95 10.25 96.65 9.85 96.75 M0.9 105.2 L0.95 105.0 0.9 105.25 0.9 105.2 M1.2 106.75 L1.25 106.8 1.2 106.8 1.2 106.75" fill="#bab9ba" fill-rule="evenodd" stroke="none"/>
    <path d="M174.75 32.25 Q174.6 31.0 173.8 30.0 L172.0 28.75 Q169.35 28.8 167.5 30.1 165.5 31.5 165.5 33.4 165.2 36.35 168.05 37.55 175.35 40.75 174.75 32.25 M178.0 43.85 L20.85 79.25 Q41.15 66.55 61.55 53.8 L52.55 -0.45 82.85 -49.85 141.35 -47.1 186.7 -5.6 178.0 43.85 M259.5 153.25 L259.9 158.0 248.05 228.8 242.5 270.35 229.65 283.2 10.6 283.2 -3.35 267.95 259.5 153.25 M253.2 166.25 L251.6 165.0 Q248.8 165.0 246.85 166.3 244.9 167.65 244.9 169.45 245.5 177.85 252.75 173.9 254.45 173.05 254.35 171.05 L254.15 168.5 253.2 166.25 M247.1 167.4 L247.15 167.4 247.1 167.4 M92.05 -41.4 L92.05 -43.85 91.65 -44.15 84.85 -39.9 Q87.45 -42.9 91.6 -44.15 L90.85 -44.45 Q82.85 -45.95 81.15 -37.85 L81.15 -35.05 Q80.9 -34.15 82.55 -31.4 L84.85 -29.7 86.65 -29.5 Q96.2 -28.25 95.6 -37.9 L94.25 -41.95 93.0 -40.65 92.05 -41.4 M82.6 -33.95 L82.55 -33.95 82.55 -34.05 82.6 -33.95 M82.25 -35.5 L82.25 -35.6 82.3 -35.75 82.25 -35.5 M68.95 54.3 L67.95 53.95 Q62.4 53.45 62.1 58.95 63.8 68.5 70.75 61.9 71.35 61.35 71.4 60.4 L71.4 57.8 Q71.25 56.55 70.45 55.55 69.8 54.75 68.95 54.3 M16.75 264.85 Q13.95 264.85 12.0 266.15 10.05 267.4 10.05 269.25 11.55 278.35 18.6 272.0 19.75 270.85 19.35 268.9 L18.4 266.05 16.75 264.85" fill="#9c9c9c" fill-rule="evenodd" stroke="none"/>
    <path d="M165.5 33.4 Q165.5 31.5 167.5 30.1 169.35 28.8 172.0 28.75 169.65 28.85 167.95 30.65 166.2 32.55 166.2 35.25 L165.5 33.4 M244.9 169.45 Q244.9 167.65 246.85 166.3 248.8 165.0 251.6 165.0 249.4 165.25 247.45 166.9 L247.15 167.4 247.1 167.4 246.8 167.85 245.6 171.5 Q245.0 170.6 244.9 169.45 M81.15 -37.85 Q82.85 -45.95 90.85 -44.45 L91.6 -44.15 Q87.45 -42.9 84.85 -39.9 83.25 -38.15 82.3 -35.75 L82.25 -35.6 82.15 -34.55 Q81.25 -36.1 81.15 -37.85 M62.1 58.95 Q62.4 53.45 67.95 53.95 L68.95 54.3 Q66.4 54.3 64.6 56.2 62.85 58.1 62.85 60.75 L62.1 58.95 M-0.25 102.95 Q0.0 102.0 0.4 101.15 3.9 94.4 9.85 96.75 5.0 98.55 2.2 102.8 L0.95 105.0 0.9 105.2 0.75 106.2 Q-0.15 104.65 -0.25 102.95 M16.75 264.85 L12.35 267.1 11.7 268.95 10.75 271.3 10.05 269.25 Q10.05 267.4 12.0 266.15 13.95 264.85 16.75 264.85" fill="#e9e9eb" fill-rule="evenodd" stroke="none"/>
    <path d="M172.0 28.75 L173.8 30.0 Q173.8 32.5 171.75 34.3 169.75 36.05 166.9 36.05 L166.2 35.25 Q166.2 32.55 167.95 30.65 169.65 28.85 172.0 28.75 M251.6 165.0 L253.2 166.25 Q253.2 168.75 251.25 170.55 249.25 172.3 246.45 172.3 L245.6 171.5 246.8 167.85 247.15 167.4 247.45 166.9 Q249.4 165.25 251.6 165.0 M84.85 -39.9 L91.65 -44.15 92.05 -43.85 82.6 -33.95 82.55 -34.05 82.2 -34.55 82.25 -35.5 82.3 -35.75 Q83.25 -38.15 84.85 -39.9 M68.95 54.3 Q69.8 54.75 70.45 55.55 70.45 58.05 68.4 59.8 66.4 61.6 63.55 61.6 L62.85 60.75 Q62.85 58.1 64.6 56.2 66.4 54.3 68.95 54.3 M0.95 105.0 L2.2 102.8 Q5.0 98.55 9.85 96.75 L10.25 96.65 10.7 96.95 1.25 106.8 1.2 106.75 0.8 106.2 0.9 105.25 0.95 105.0 M11.7 268.95 L12.35 267.1 16.75 264.85 18.4 266.05 Q18.4 268.55 16.45 270.35 14.4 272.1 11.65 272.1 L10.8 271.3 11.7 268.95" fill="#d0cfd0" fill-rule="evenodd" stroke="none"/>
    <path d="M173.8 30.0 Q174.6 31.0 174.75 32.25 173.9 38.75 167.7 36.4 L166.9 36.05 Q169.75 36.05 171.75 34.3 173.8 32.5 173.8 30.0 M253.2 166.25 L254.15 168.5 Q253.35 174.8 247.2 172.7 L246.45 172.3 Q249.25 172.3 251.25 170.55 253.2 168.75 253.2 166.25 M94.25 -41.95 L95.6 -37.9 Q95.05 -31.6 88.5 -31.0 86.5 -31.05 84.8 -32.0 L85.1 -32.0 Q94.8 -32.15 94.25 -41.95 M70.45 55.55 Q71.25 56.55 71.4 57.8 70.5 64.2 64.3 62.0 L63.55 61.6 Q66.4 61.6 68.4 59.8 70.45 58.05 70.45 55.55 M3.45 108.75 Q12.75 109.1 12.95 99.6 L12.9 98.85 14.25 102.9 Q13.65 109.2 7.1 109.75 5.1 109.7 3.45 108.75 M11.65 272.1 Q14.4 272.1 16.45 270.35 18.4 268.55 18.4 266.05 L19.35 268.9 Q18.9 272.9 14.65 273.25 12.9 273.25 11.65 272.1" fill="#b0aeb3" fill-rule="evenodd" stroke="none"/>
    <path d="M92.05 -41.4 L93.0 -40.65 84.8 -32.0 84.85 -29.7 82.55 -31.4 92.05 -41.4 M10.7 99.4 L11.65 100.15 3.45 108.75 3.5 111.1 1.2 109.35 10.7 99.4" fill="#57565b" fill-rule="evenodd" stroke="none"/>
    <path d="M82.55 -31.4 Q80.9 -34.15 81.15 -35.05 L81.15 -37.85 Q81.25 -36.1 82.15 -34.55 L82.25 -35.6 82.25 -35.5 82.2 -34.55 82.55 -34.05 82.55 -33.95 82.55 -31.4 M-0.25 102.95 Q-0.15 104.65 0.75 106.2 L0.9 105.2 0.9 105.25 0.8 106.2 1.2 106.75 1.2 106.8 1.2 109.35 Q-0.5 106.65 -0.25 105.75 L-0.25 102.95" fill="#79818b" fill-rule="evenodd" stroke="none"/>
  </g>
</svg>
