<?xml version="1.0" encoding="UTF-8" standalone="no"?>
<svg xmlns:xlink="http://www.w3.org/1999/xlink" height="274.6px" width="218.15px" xmlns="http://www.w3.org/2000/svg">
  <g transform="matrix(1.0, 0.0, 0.0, 1.0, 0.0, 0.0)">
    <path d="M215.15 173.4 L210.25 128.6 161.85 204.45 169.0 230.35 169.8 243.8 175.9 235.15 176.2 234.9 176.9 234.8 Q184.0 234.95 189.8 237.8 195.9 240.8 200.75 246.5 L210.05 222.75 215.15 173.4 M164.2 117.7 L163.25 120.3 148.35 123.8 155.3 129.2 154.75 130.6 108.55 168.1 107.7 270.2 156.35 271.55 148.4 215.35 148.6 214.4 159.0 203.3 209.8 123.75 167.85 98.9 164.2 117.7 M212.6 122.2 L218.15 173.2 213.0 223.25 202.95 249.1 205.9 253.5 183.9 273.3 Q173.6 264.9 165.05 254.4 L167.5 250.35 159.5 208.6 159.2 207.45 151.45 215.7 159.55 272.9 159.2 274.2 158.0 274.6 106.25 273.15 62.5 274.55 61.55 273.8 61.35 273.0 65.25 219.7 50.95 204.35 Q47.55 221.6 46.15 238.85 L53.1 243.75 49.75 252.65 53.55 256.6 53.75 257.8 34.05 273.65 32.5 273.25 11.55 252.55 3.45 225.75 0.0 176.8 8.45 126.65 Q27.95 114.5 47.6 102.5 62.55 93.3 76.75 83.1 L60.1 33.45 60.2 32.3 78.2 14.9 Q82.4 10.65 87.5 7.3 94.45 2.65 102.7 0.65 L111.2 0.1 Q121.55 1.45 130.85 6.25 147.6 14.95 159.5 29.55 L159.6 30.65 146.2 82.9 148.75 84.15 212.6 122.2 M138.4 11.95 L134.95 10.3 120.0 3.3 118.5 3.35 103.3 3.6 99.9 3.65 84.55 11.05 81.9 12.35 70.1 25.6 68.75 27.1 63.2 33.3 80.05 83.0 108.05 89.75 115.85 89.7 143.15 82.7 156.5 30.7 151.55 25.45 150.15 24.05 138.4 11.95 M121.8 27.6 L122.25 26.55 123.45 26.55 123.85 27.2 123.25 29.3 122.85 30.15 Q132.8 36.8 140.15 46.45 141.45 48.1 141.85 50.05 144.8 65.0 139.35 79.4 L138.0 79.1 Q139.15 69.9 133.7 62.45 132.1 60.25 129.75 59.2 123.85 56.65 118.9 52.7 110.35 45.75 110.85 34.65 L109.85 34.65 Q110.7 39.45 109.7 44.1 108.05 51.8 101.3 55.2 L98.2 56.75 Q86.8 62.55 87.3 75.1 87.75 72.55 89.75 70.85 102.15 60.2 118.3 62.65 130.05 64.35 136.4 74.35 L135.9 81.75 Q128.3 77.95 120.25 75.7 113.05 73.85 105.75 74.75 96.75 76.15 88.4 80.1 L87.15 77.55 86.1 77.6 Q80.3 69.05 80.15 58.65 79.95 43.5 91.55 34.0 L93.5 32.5 Q95.8 30.9 98.45 29.35 L98.25 28.2 98.8 24.45 99.0 24.25 100.3 24.3 100.65 25.0 100.5 25.55 100.25 27.8 100.65 27.45 Q104.75 28.05 106.75 31.45 L106.0 32.35 Q111.85 33.35 117.4 31.85 120.95 31.0 121.8 27.6 M139.8 49.15 Q139.2 47.5 138.05 46.15 130.9 37.85 121.65 31.75 118.35 34.45 114.0 34.65 L112.85 34.6 Q112.05 46.65 122.25 53.2 126.1 55.6 130.25 57.35 137.85 60.35 140.05 68.15 143.05 58.35 139.8 49.15 M99.2 31.25 Q85.2 39.45 82.8 49.1 80.15 59.85 83.4 67.8 L85.0 71.65 Q84.9 64.6 89.1 60.3 94.6 54.6 99.55 53.65 106.7 52.1 107.4 45.0 107.85 40.65 107.85 36.1 L107.85 34.6 Q100.95 33.95 99.2 31.25 M101.3 30.45 Q102.95 31.85 105.2 32.2 103.45 30.2 100.75 29.3 100.3 29.6 101.3 30.45 M120.45 28.1 Q119.1 30.8 116.1 31.1 L115.3 30.65 113.2 32.1 112.3 31.5 Q113.75 28.1 117.3 26.85 119.75 25.85 120.45 28.1 M89.5 77.6 Q90.95 76.6 92.55 75.85 L92.5 75.7 91.95 70.45 Q88.6 72.8 89.5 77.6 M100.55 73.15 L99.5 66.15 93.85 69.1 94.45 74.95 Q97.4 73.75 100.55 73.15 M102.55 72.9 L109.65 72.25 109.95 64.0 Q105.8 64.2 101.45 65.4 L102.55 72.9 M111.95 64.05 L111.65 72.3 Q116.3 72.4 120.85 73.45 L123.85 66.25 123.5 65.85 Q120.9 64.95 117.95 64.65 L111.95 64.05 M118.8 79.4 L119.1 79.75 119.0 80.8 Q112.75 83.05 106.0 81.75 L105.95 80.35 118.8 79.4 M117.35 97.6 L112.4 93.25 111.15 93.25 105.95 99.65 108.15 105.05 115.0 105.1 117.35 97.6 M130.9 77.1 L134.5 79.1 134.4 74.9 132.2 71.85 130.9 77.1 M130.35 70.4 Q128.7 67.5 125.3 66.6 L122.8 73.95 129.0 76.1 130.05 72.5 130.35 70.4 M142.15 94.3 L145.95 86.35 144.6 85.4 116.35 92.7 126.85 101.95 142.15 94.3 M151.3 129.5 L143.4 123.25 143.3 122.8 143.6 122.0 161.1 118.1 165.1 97.25 148.65 87.6 114.35 159.5 151.3 129.5 M30.85 176.0 L10.2 132.3 3.0 176.75 6.35 224.95 13.8 247.3 24.6 232.85 25.05 232.4 25.65 232.2 33.95 231.45 34.4 231.6 43.05 236.9 42.8 231.1 48.45 201.5 30.85 176.0 M59.4 117.45 L54.7 100.8 11.4 127.85 33.4 174.45 51.15 200.1 68.25 218.65 68.3 219.25 64.5 271.55 104.7 270.2 105.55 167.35 106.1 166.2 71.0 132.3 Q70.5 131.55 71.0 130.6 L76.2 121.6 60.3 120.1 59.4 117.45 M79.35 118.85 Q80.25 119.15 80.2 120.0 L79.9 120.95 73.95 130.95 108.6 164.2 109.2 163.75 76.3 87.5 57.35 99.15 62.55 117.85 79.35 118.85 M103.8 102.2 L102.25 103.7 84.6 99.2 97.0 127.9 105.75 106.35 103.8 102.2 M115.15 108.1 L108.25 108.05 98.7 131.8 110.85 160.0 124.9 130.45 115.15 108.1 M119.8 99.75 L117.6 106.2 126.65 126.85 140.0 98.75 126.4 105.25 119.8 99.75 M78.85 85.8 L83.1 95.65 101.3 100.55 107.55 92.7 78.85 85.8 M48.45 256.3 Q41.15 256.7 33.8 254.15 L33.35 255.8 32.35 256.25 30.85 255.7 Q31.1 250.65 33.35 246.35 L34.85 246.4 34.5 251.2 46.4 253.65 49.9 244.75 33.7 234.5 26.55 235.15 14.6 251.3 33.7 270.15 50.1 257.2 48.85 255.95 48.7 255.8 48.45 256.3 M189.75 238.0 L177.65 237.8 170.2 248.45 177.45 254.85 180.1 254.1 Q179.7 253.1 179.65 252.05 179.6 250.85 181.0 250.9 L181.8 251.6 185.9 258.25 185.2 259.3 Q182.7 259.2 181.9 256.7 L176.75 258.0 170.15 252.35 168.35 254.6 183.95 269.75 202.3 252.9 189.75 238.0" fill="#1a1a1a" fill-rule="evenodd" stroke="none"/>
    <path d="M164.2 117.7 L167.85 98.9 209.8 123.75 159.0 203.3 148.6 214.4 148.4 215.35 156.35 271.55 107.7 270.2 108.55 168.1 154.75 130.6 155.3 129.2 148.35 123.8 163.25 120.3 164.2 117.7 M215.15 173.4 L210.05 222.75 200.75 246.5 Q195.9 240.8 189.8 237.8 184.0 234.95 176.9 234.8 L176.2 234.9 175.9 235.15 169.8 243.8 169.0 230.35 161.85 204.45 210.25 128.6 215.15 173.4 M79.35 118.85 L62.55 117.85 57.35 99.15 76.3 87.5 109.2 163.75 108.6 164.2 73.95 130.95 79.9 120.95 80.2 120.0 Q80.25 119.15 79.35 118.85 M59.4 117.45 L60.3 120.1 76.2 121.6 71.0 130.6 Q70.5 131.55 71.0 132.3 L106.1 166.2 105.55 167.35 104.7 270.2 64.5 271.55 68.3 219.25 68.25 218.65 51.15 200.1 33.4 174.45 11.4 127.85 54.7 100.8 59.4 117.45 M30.85 176.0 L48.45 201.5 42.8 231.1 43.05 236.9 34.4 231.6 33.95 231.45 25.65 232.2 25.05 232.4 24.6 232.85 13.8 247.3 6.35 224.95 3.0 176.75 10.2 132.3 30.85 176.0 M151.3 129.5 L114.35 159.5 148.65 87.6 165.1 97.25 161.1 118.1 143.6 122.0 143.3 122.8 143.4 123.25 151.3 129.5" fill="#106557" fill-rule="evenodd" stroke="none"/>
    <path d="M134.95 10.3 L138.4 11.95 Q132.8 12.45 127.25 13.5 120.65 14.9 113.85 15.5 97.35 16.75 81.9 12.35 L84.55 11.05 Q92.35 13.15 100.65 13.65 118.0 14.1 134.95 10.3 M150.15 24.05 L151.55 25.45 Q145.95 33.05 136.8 34.5 128.75 35.65 123.25 29.3 L123.85 27.2 123.45 26.55 122.25 26.55 121.8 27.6 Q119.1 24.05 115.7 21.45 114.05 20.2 112.25 19.8 105.1 19.55 100.5 25.55 L100.65 25.0 100.3 24.3 99.0 24.25 Q103.35 18.9 110.0 17.3 112.5 16.55 114.65 18.25 121.45 23.45 127.3 29.8 129.3 31.95 132.2 32.5 143.4 33.55 150.15 24.05 M68.75 27.1 L70.1 25.6 Q75.15 30.55 81.45 33.7 85.0 35.45 88.4 33.45 94.5 29.95 98.8 24.45 L98.25 28.2 93.5 32.5 91.55 34.0 Q87.15 37.3 81.95 35.6 74.35 32.95 68.75 27.1 M124.5 22.5 Q124.55 19.2 128.25 18.05 L131.4 17.1 Q135.3 15.9 138.5 18.45 141.15 20.5 141.2 24.0 L140.45 24.6 124.5 22.5 M138.85 22.25 Q137.95 20.3 136.35 18.8 135.65 18.2 134.9 18.2 130.55 18.15 127.45 20.9 L138.85 22.25 M86.55 19.3 L81.5 22.45 92.75 22.4 86.55 19.3 M96.55 23.2 L96.15 24.25 78.95 24.4 78.3 23.55 79.4 22.2 Q83.3 16.15 89.15 18.85 93.0 20.65 96.55 23.2" fill="#000000" fill-rule="evenodd" stroke="none"/>
    <path d="M138.4 11.95 L150.15 24.05 Q143.4 33.55 132.2 32.5 129.3 31.95 127.3 29.8 121.45 23.45 114.65 18.25 112.5 16.55 110.0 17.3 103.35 18.9 99.0 24.25 L98.8 24.45 Q94.5 29.95 88.4 33.45 85.0 35.45 81.45 33.7 75.15 30.55 70.1 25.6 L81.9 12.35 Q97.35 16.75 113.85 15.5 120.65 14.9 127.25 13.5 132.8 12.45 138.4 11.95 M103.3 3.6 L118.5 3.35 112.3 8.6 Q108.1 5.65 103.3 3.6 M124.5 22.5 L140.45 24.6 141.2 24.0 Q141.15 20.5 138.5 18.45 135.3 15.9 131.4 17.1 L128.25 18.05 Q124.55 19.2 124.5 22.5 M96.55 23.2 Q93.0 20.65 89.15 18.85 83.3 16.15 79.4 22.2 L78.3 23.55 78.95 24.4 96.15 24.25 96.55 23.2 M117.35 97.6 L115.0 105.1 108.15 105.05 105.95 99.65 111.15 93.25 112.4 93.25 117.35 97.6 M115.15 108.1 L124.9 130.45 110.85 160.0 98.7 131.8 108.25 108.05 115.15 108.1" fill="#0e4239" fill-rule="evenodd" stroke="none"/>
    <path d="M151.55 25.45 L156.5 30.7 143.15 82.7 115.85 89.7 108.05 89.75 80.05 83.0 63.2 33.3 68.75 27.1 Q74.35 32.95 81.95 35.6 87.15 37.3 91.55 34.0 79.95 43.5 80.15 58.65 80.3 69.05 86.1 77.6 L87.15 77.55 88.4 80.1 Q96.75 76.15 105.75 74.75 113.05 73.85 120.25 75.7 128.3 77.95 135.9 81.75 L136.4 74.35 Q130.05 64.35 118.3 62.65 102.15 60.2 89.75 70.85 87.75 72.55 87.3 75.1 86.8 62.55 98.2 56.75 L101.3 55.2 Q108.05 51.8 109.7 44.1 110.7 39.45 109.85 34.65 L110.85 34.65 Q110.35 45.75 118.9 52.7 123.85 56.65 129.75 59.2 132.1 60.25 133.7 62.45 139.15 69.9 138.0 79.1 L139.35 79.4 Q144.8 65.0 141.85 50.05 141.45 48.1 140.15 46.45 132.8 36.8 122.85 30.15 L123.25 29.3 Q128.75 35.65 136.8 34.5 145.95 33.05 151.55 25.45 M84.55 11.05 L99.9 3.65 103.3 3.6 Q108.1 5.65 112.3 8.6 L118.5 3.35 120.0 3.3 134.95 10.3 Q118.0 14.1 100.65 13.65 92.35 13.15 84.55 11.05 M138.85 22.25 L127.45 20.9 Q130.55 18.15 134.9 18.2 135.65 18.2 136.35 18.8 137.95 20.3 138.85 22.25 M121.8 27.6 Q120.95 31.0 117.4 31.85 111.85 33.35 106.0 32.35 L106.75 31.45 Q104.75 28.05 100.65 27.45 L100.25 27.8 100.5 25.55 Q105.1 19.55 112.25 19.8 114.05 20.2 115.7 21.45 119.1 24.05 121.8 27.6 M98.25 28.2 L98.45 29.35 Q95.8 30.9 93.5 32.5 L98.25 28.2 M86.55 19.3 L92.75 22.4 81.5 22.45 86.55 19.3 M120.45 28.1 Q119.75 25.85 117.3 26.85 113.75 28.1 112.3 31.5 L113.2 32.1 115.3 30.65 116.1 31.1 Q119.1 30.8 120.45 28.1 M101.3 30.45 Q100.3 29.6 100.75 29.3 103.45 30.2 105.2 32.2 102.95 31.85 101.3 30.45 M118.8 79.4 L105.95 80.35 106.0 81.75 Q112.75 83.05 119.0 80.8 L119.1 79.75 118.8 79.4 M142.15 94.3 L126.85 101.95 116.35 92.7 144.6 85.4 145.95 86.35 142.15 94.3 M103.8 102.2 L105.75 106.35 97.0 127.9 84.6 99.2 102.25 103.7 103.8 102.2 M119.8 99.75 L126.4 105.25 140.0 98.75 126.65 126.85 117.6 106.2 119.8 99.75 M78.85 85.8 L107.55 92.7 101.3 100.55 83.1 95.65 78.85 85.8 M48.85 255.95 L50.1 257.2 33.7 270.15 14.6 251.3 26.55 235.15 33.7 234.5 49.9 244.75 46.4 253.65 34.5 251.2 34.85 246.4 33.35 246.35 Q31.1 250.65 30.85 255.7 L32.35 256.25 33.35 255.8 33.8 254.15 Q41.15 256.7 48.45 256.3 L48.85 255.95 M189.75 238.0 L202.3 252.9 183.95 269.75 168.35 254.6 170.15 252.35 176.75 258.0 181.9 256.7 Q182.7 259.2 185.2 259.3 L185.9 258.25 181.8 251.6 181.0 250.9 Q179.6 250.85 179.65 252.05 179.7 253.1 180.1 254.1 L177.45 254.85 170.2 248.45 177.65 237.8 189.75 238.0" fill="#c1d9cb" fill-rule="evenodd" stroke="none"/>
    <path d="M139.8 49.15 Q143.05 58.35 140.05 68.15 137.85 60.35 130.25 57.35 126.1 55.6 122.25 53.2 112.05 46.65 112.85 34.6 L114.0 34.65 Q118.35 34.45 121.65 31.75 130.9 37.85 138.05 46.15 139.2 47.5 139.8 49.15 M99.2 31.25 Q100.95 33.95 107.85 34.6 L107.85 36.1 Q107.85 40.65 107.4 45.0 106.7 52.1 99.55 53.65 94.6 54.6 89.1 60.3 84.9 64.6 85.0 71.65 L83.4 67.8 Q80.15 59.85 82.8 49.1 85.2 39.45 99.2 31.25" fill="#3d6558" fill-rule="evenodd" stroke="none"/>
    <path d="M111.95 64.05 L117.95 64.65 Q120.9 64.95 123.5 65.85 L123.85 66.25 120.85 73.45 Q116.3 72.4 111.65 72.3 L111.95 64.05 M102.55 72.9 L101.45 65.4 Q105.8 64.2 109.95 64.0 L109.65 72.25 102.55 72.9 M100.55 73.15 Q97.4 73.75 94.45 74.95 L93.85 69.1 99.5 66.15 100.55 73.15 M89.5 77.6 Q88.6 72.8 91.95 70.45 L92.5 75.7 92.55 75.85 Q90.95 76.6 89.5 77.6 M130.35 70.4 L130.05 72.5 129.0 76.1 122.8 73.95 125.3 66.6 Q128.7 67.5 130.35 70.4 M130.9 77.1 L132.2 71.85 134.4 74.9 134.5 79.1 130.9 77.1 M48.45 256.3 L48.7 255.8 48.85 255.95 48.45 256.3" fill="#ffffff" fill-rule="evenodd" stroke="none"/>
  </g>
</svg>
