<?xml version="1.0" encoding="UTF-8" standalone="no"?>
<svg xmlns:xlink="http://www.w3.org/1999/xlink" height="229.4px" width="259.25px" xmlns="http://www.w3.org/2000/svg">
  <g transform="matrix(1.0, 0.0, 0.0, 1.0, -27.0, -45.25)">
    <path d="M187.3 103.9 L186.95 104.45 187.25 103.9 187.3 103.9 M186.2 106.8 L186.8 107.35 187.3 107.6 Q191.6 109.1 192.15 104.7 191.6 112.45 186.3 107.15 185.6 106.4 185.65 105.3 185.75 106.1 186.2 106.8 M277.3 181.55 L276.0 172.85 237.45 127.7 199.0 118.85 198.15 111.85 192.3 60.0 120.35 49.9 111.55 117.1 87.1 136.6 50.25 163.3 31.7 211.8 35.75 262.0 45.5 272.4 71.55 272.4 267.1 272.4 281.35 252.3 277.3 181.55 M196.55 55.7 L205.75 112.6 240.1 123.6 282.1 175.95 286.25 256.85 269.5 274.65 43.55 274.65 31.45 265.8 27.0 210.85 46.5 160.35 92.95 125.8 107.4 113.45 117.6 45.25 196.55 55.7 M230.6 140.05 Q231.75 140.7 233.15 140.75 237.7 140.35 238.15 135.95 238.35 143.15 231.25 142.0 L230.65 141.65 230.6 140.05 M234.75 132.8 L235.7 131.8 235.7 133.5 229.05 140.45 229.05 138.7 234.75 132.8 M269.55 190.7 L269.1 194.25 268.95 194.2 Q273.45 196.55 274.35 191.6 273.7 199.45 268.4 194.05 267.85 193.4 267.9 192.35 267.95 193.05 268.4 193.7 268.5 192.2 269.45 190.75 L269.55 190.7 M125.3 65.75 L131.95 58.85 131.95 60.5 125.35 67.5 125.3 67.5 125.3 65.75 M134.4 63.0 Q134.5 70.25 127.5 68.8 L126.85 68.65 126.85 67.1 Q128.0 67.75 129.4 67.8 133.95 67.4 134.4 63.0 M63.9 167.4 Q64.1 174.6 57.05 173.45 L56.4 173.1 56.4 171.5 Q57.55 172.15 58.95 172.2 63.5 171.8 63.9 167.4 M60.5 164.25 L61.45 163.25 61.45 164.95 54.85 171.9 54.85 170.15 60.5 164.25" fill="#47525f" fill-rule="evenodd" stroke="none"/>
    <path d="M198.15 111.85 L199.0 118.85 237.45 127.7 276.0 172.85 277.3 181.55 71.55 272.4 45.5 272.4 35.75 262.0 31.7 211.8 50.25 163.3 87.1 136.6 198.15 111.85 M238.15 135.95 L237.2 133.15 237.2 133.7 Q237.05 140.3 230.6 140.05 L235.7 133.5 235.7 131.8 234.75 132.8 235.35 131.6 234.85 131.4 Q229.25 130.25 228.05 136.0 L228.4 137.55 229.05 140.45 230.65 141.65 231.25 142.0 Q238.35 143.15 238.15 135.95 M132.6 61.05 L133.45 60.2 133.5 60.75 Q133.35 67.35 126.85 67.1 L132.6 61.05 M63.9 167.4 L62.95 164.6 63.0 165.2 Q62.75 171.8 56.4 171.5 L61.45 164.95 61.45 163.25 60.5 164.25 61.15 163.05 60.65 162.85 Q55.05 161.75 53.85 167.45 L54.2 169.0 54.85 171.9 56.4 173.1 57.05 173.45 Q64.1 174.6 63.9 167.4" fill="#bab9ba" fill-rule="evenodd" stroke="none"/>
    <path d="M191.5 103.15 L190.45 102.25 187.3 103.9 187.25 103.9 190.45 102.25 189.75 102.0 Q186.1 101.6 185.65 105.3 185.6 106.4 186.3 107.15 191.6 112.45 192.15 104.7 L191.5 103.15 M198.15 111.85 L87.1 136.6 111.55 117.1 120.35 49.9 192.3 60.0 198.15 111.85 M71.55 272.4 L277.3 181.55 281.35 252.3 267.1 272.4 71.55 272.4 M273.7 190.1 L272.65 189.15 Q270.65 189.15 269.3 190.1 267.9 191.05 267.9 192.35 267.85 193.4 268.4 194.05 273.7 199.45 274.35 191.6 274.25 190.75 273.7 190.1 M269.9 190.4 L269.55 190.7 269.45 190.75 269.9 190.4 M131.55 58.65 L131.1 58.45 Q125.5 57.35 124.35 63.05 L125.3 67.5 125.35 67.5 126.85 68.65 127.5 68.8 Q134.5 70.25 134.4 63.0 L133.45 60.2 132.6 61.05 131.95 60.5 131.95 58.85 125.3 65.75 125.3 65.7 131.55 58.65" fill="#9c9c9c" fill-rule="evenodd" stroke="none"/>
    <path d="M186.95 104.45 L186.2 106.8 Q185.75 106.1 185.65 105.3 186.1 101.6 189.75 102.0 L190.45 102.25 187.25 103.9 186.95 104.45 M228.4 137.55 L228.05 136.0 Q229.25 130.25 234.85 131.4 L235.35 131.6 234.7 131.85 Q229.75 133.6 228.8 138.3 L228.4 137.55 M272.65 189.15 L269.9 190.4 269.45 190.75 Q268.5 192.2 268.4 193.7 267.95 193.05 267.9 192.35 267.9 191.05 269.3 190.1 270.65 189.15 272.65 189.15 M124.35 63.05 Q125.5 57.35 131.1 58.45 L131.55 58.65 Q126.8 60.15 125.15 64.8 L125.05 65.3 124.35 63.05 M54.2 169.0 L53.85 167.45 Q55.05 161.75 60.65 162.85 L61.15 163.05 60.5 163.3 Q55.65 164.95 54.55 169.75 L54.2 169.0" fill="#e9e9eb" fill-rule="evenodd" stroke="none"/>
    <path d="M186.95 104.45 L187.3 103.9 190.45 102.25 191.5 103.15 Q191.5 104.9 190.15 106.1 188.7 107.35 186.8 107.35 L186.2 106.8 186.95 104.45 M235.35 131.6 L234.75 132.8 229.05 138.7 228.8 138.3 Q229.75 133.6 234.7 131.85 L235.35 131.6 M272.65 189.15 L273.7 190.1 Q273.7 191.8 272.35 193.05 271.0 194.25 269.1 194.25 L269.55 190.7 269.9 190.4 272.65 189.15 M131.55 58.65 L125.3 65.7 125.05 65.3 125.15 64.8 Q126.8 60.15 131.55 58.65 M61.15 163.05 L60.5 164.25 54.85 170.15 54.55 169.75 Q55.65 164.95 60.5 163.3 L61.15 163.05" fill="#d0cfd0" fill-rule="evenodd" stroke="none"/>
    <path d="M186.8 107.35 Q188.7 107.35 190.15 106.1 191.5 104.9 191.5 103.15 L192.15 104.7 Q191.6 109.1 187.3 107.6 L186.8 107.35 M230.6 140.05 Q237.05 140.3 237.2 133.7 L237.2 133.15 238.15 135.95 Q237.7 140.35 233.15 140.75 231.75 140.7 230.6 140.05 M269.1 194.25 Q271.0 194.25 272.35 193.05 273.7 191.8 273.7 190.1 274.25 190.75 274.35 191.6 273.45 196.55 268.95 194.2 L269.1 194.25 M133.45 60.2 L134.4 63.0 Q133.95 67.4 129.4 67.8 128.0 67.75 126.85 67.1 133.35 67.35 133.5 60.75 L133.45 60.2 M56.4 171.5 Q62.75 171.8 63.0 165.2 L62.95 164.6 63.9 167.4 Q63.5 171.8 58.95 172.2 57.55 172.15 56.4 171.5" fill="#b0aeb3" fill-rule="evenodd" stroke="none"/>
    <path d="M230.65 141.65 L229.05 140.45 235.7 133.5 230.6 140.05 230.65 141.65 M131.95 60.5 L132.6 61.05 126.85 67.1 126.85 68.65 125.35 67.5 131.95 60.5 M56.4 173.1 L54.85 171.9 61.45 164.95 56.4 171.5 56.4 173.1" fill="#57565b" fill-rule="evenodd" stroke="none"/>
    <path d="M229.05 140.45 L228.4 137.55 228.8 138.3 229.05 138.7 229.05 140.45 M125.3 65.7 L125.3 65.75 125.3 67.5 124.35 63.05 125.05 65.3 125.3 65.7 M54.85 171.9 L54.2 169.0 54.55 169.75 54.85 170.15 54.85 171.9" fill="#79818b" fill-rule="evenodd" stroke="none"/>
  </g>
</svg>
