<?xml version="1.0" encoding="UTF-8" standalone="no"?>
<svg xmlns:xlink="http://www.w3.org/1999/xlink" height="250.45px" width="285.45px" xmlns="http://www.w3.org/2000/svg">
  <g transform="matrix(1.0, 0.0, 0.0, 1.0, 0.0, 0.0)">
    <path d="M170.15 17.7 Q160.6 17.85 152.25 21.95 L165.5 22.05 166.1 22.95 165.5 23.9 149.45 23.95 149.05 24.2 148.05 23.8 Q148.1 22.6 149.05 22.0 158.7 15.75 170.05 15.85 L170.7 16.7 170.15 17.7 M176.55 1.1 L176.65 1.6 183.7 70.55 185.15 71.35 185.75 71.2 211.75 78.45 212.9 76.3 228.25 81.85 254.1 111.8 276.6 149.9 276.8 150.45 281.9 187.85 281.8 188.6 282.1 189.3 285.45 214.25 284.85 215.7 276.25 216.55 285.05 226.25 285.1 226.8 270.1 246.25 269.8 246.15 264.65 244.2 253.3 240.05 Q248.25 238.3 243.5 235.95 L242.55 235.35 242.2 232.8 242.15 230.35 242.6 225.55 Q242.7 224.7 243.05 223.95 L245.55 218.95 240.85 219.25 240.5 218.65 240.2 217.95 Q236.7 205.45 232.5 193.45 L231.25 189.95 230.15 187.2 231.75 200.0 233.35 248.5 233.0 249.65 231.85 250.05 230.25 250.05 228.75 250.05 143.75 250.45 50.05 250.1 49.3 249.9 48.55 248.55 50.25 199.8 48.45 203.55 46.6 207.3 42.85 214.6 41.4 217.1 39.7 220.0 38.5 220.3 38.2 232.1 34.65 234.05 35.9 238.7 31.85 242.65 27.7 246.55 27.0 247.15 26.65 247.0 23.25 245.4 15.2 240.9 Q11.1 238.55 7.2 236.0 L1.85 232.6 6.45 217.2 1.2 216.65 0.35 215.3 0.0 186.45 0.1 185.85 20.4 135.2 20.65 134.8 61.65 86.7 66.7 84.5 71.65 82.1 Q79.8 77.95 88.35 75.1 L91.9 74.0 95.3 72.7 101.7 1.4 103.2 0.0 175.15 0.25 176.55 1.1 M174.85 13.7 L173.8 3.25 104.6 3.0 103.75 13.0 100.7 48.15 Q113.4 39.2 119.4 37.1 L126.7 34.6 126.35 33.6 Q125.65 30.95 126.7 28.5 L126.95 28.25 128.15 28.65 127.85 32.95 130.7 33.25 Q139.75 34.35 148.9 33.4 L149.15 33.2 149.35 31.9 149.25 30.6 148.75 29.25 148.6 28.9 149.4 28.15 150.85 28.8 Q151.7 29.3 152.05 30.45 152.55 31.9 151.8 33.15 L151.35 33.9 Q164.35 36.9 175.45 44.15 L175.65 44.4 171.8 42.8 Q168.2 41.15 158.85 37.35 149.5 33.55 135.4 35.8 121.7 35.15 113.25 40.95 104.75 46.7 100.45 51.1 L100.1 55.3 102.2 54.15 Q105.35 52.7 108.65 51.6 119.6 48.15 130.8 46.6 147.35 44.05 164.0 45.65 171.85 46.3 178.05 51.1 L178.7 51.6 174.85 13.7 M179.0 54.45 Q172.65 48.65 164.15 47.55 147.2 45.95 130.4 48.65 L122.15 49.9 Q110.05 51.4 99.85 57.8 L98.5 73.6 129.15 82.7 152.45 82.95 180.3 70.7 179.0 54.45 M186.55 74.45 L148.2 146.45 191.9 112.2 182.5 107.8 Q181.4 107.3 181.8 105.95 181.85 105.7 182.05 105.55 L195.4 99.8 197.3 77.7 186.55 74.45 M182.1 72.95 L181.5 73.45 154.55 85.3 158.35 99.7 168.4 99.7 183.5 73.85 182.1 72.95 M211.7 81.5 L200.25 78.5 198.25 101.35 197.95 101.65 197.35 102.1 186.8 106.55 195.35 110.6 195.8 110.85 196.05 111.25 196.2 111.7 Q196.25 112.6 195.7 113.05 L147.0 151.15 145.3 154.0 145.25 247.45 230.25 247.05 228.75 200.1 228.95 199.3 220.85 142.75 212.25 98.25 211.7 81.5 M215.2 97.8 L223.8 142.3 228.3 174.1 230.9 180.85 232.15 184.3 233.65 188.4 Q239.0 201.85 242.45 216.15 L282.3 213.1 273.9 151.2 251.7 113.6 226.25 84.1 214.7 79.85 215.2 97.8 M131.7 26.35 L131.3 26.5 129.95 25.95 129.6 26.25 114.4 25.95 113.85 25.4 114.05 24.3 127.0 24.2 Q117.2 20.4 106.8 21.2 L106.4 20.2 106.9 20.05 Q119.15 17.05 129.8 23.75 L131.9 25.05 131.7 26.35 M83.35 80.0 L83.9 104.65 107.5 105.0 107.55 106.4 107.1 107.1 105.9 107.3 105.8 108.05 97.65 115.0 137.7 143.7 93.3 76.4 83.35 80.0 M96.45 75.5 L110.8 97.45 122.7 103.1 130.0 86.1 97.45 76.45 96.45 75.5 M133.45 85.75 L129.45 95.1 137.55 105.65 147.4 105.05 153.9 94.65 151.6 85.95 133.45 85.75 M63.75 88.9 L23.1 136.55 3.0 186.7 3.35 213.9 25.65 216.0 34.45 216.4 35.05 216.6 35.5 216.95 38.15 217.2 50.5 192.65 51.65 158.9 67.15 102.4 66.85 87.55 63.75 88.9 M69.85 86.45 L70.1 103.0 54.65 159.2 51.6 247.1 142.25 247.45 142.3 154.1 138.35 147.85 94.35 116.35 94.0 115.35 Q93.9 114.8 94.2 114.4 L94.9 113.6 102.05 107.35 81.5 107.2 80.0 81.5 69.85 86.45 M159.55 118.8 L168.1 102.7 156.3 102.4 154.95 98.65 150.1 106.45 159.55 118.8 M147.55 108.1 L137.65 108.7 127.1 122.25 144.0 147.85 158.0 121.7 147.55 108.1 M135.0 107.25 L128.1 98.25 124.35 106.35 123.8 106.6 114.0 102.3 125.35 119.6 135.0 107.25 M33.7 219.45 L9.25 218.3 4.9 231.9 26.6 243.8 32.9 237.7 31.5 234.3 Q28.25 231.75 25.3 229.0 24.95 228.7 25.0 228.15 L25.1 227.6 26.15 227.4 27.1 227.45 32.85 231.6 35.75 230.1 35.7 221.6 33.7 219.45 M251.8 226.85 L252.35 227.25 252.6 227.7 252.55 228.15 246.8 234.4 269.35 242.8 281.65 226.45 272.95 216.85 249.25 218.65 244.4 225.05 244.9 232.05 251.3 226.6 Q251.55 226.65 251.8 226.85" fill="#1a1a1a" fill-rule="evenodd" stroke="none"/>
    <path d="M103.75 13.0 L104.6 3.0 173.8 3.25 174.85 13.7 Q168.05 8.1 158.9 7.95 146.8 9.05 137.85 17.6 125.75 8.55 110.6 10.5 106.75 10.8 103.75 13.0" fill="#003399" fill-rule="evenodd" stroke="none"/>
    <path d="M182.1 72.95 L183.5 73.85 168.4 99.7 158.35 99.7 154.55 85.3 181.5 73.45 182.1 72.95 M96.45 75.5 L97.45 76.45 130.0 86.1 122.7 103.1 110.8 97.45 96.45 75.5 M159.55 118.8 L150.1 106.45 154.95 98.65 156.3 102.4 168.1 102.7 159.55 118.8 M251.8 226.85 Q251.55 226.65 251.3 226.6 L244.9 232.05 244.4 225.05 249.25 218.65 272.95 216.85 281.65 226.45 269.35 242.8 246.8 234.4 252.55 228.15 252.6 227.7 252.35 227.25 251.8 226.85 M33.7 219.45 L35.7 221.6 35.75 230.1 32.85 231.6 27.1 227.45 26.15 227.4 25.1 227.6 25.0 228.15 Q24.95 228.7 25.3 229.0 28.25 231.75 31.5 234.3 L32.9 237.7 26.6 243.8 4.9 231.9 9.25 218.3 33.7 219.45 M135.0 107.25 L125.35 119.6 114.0 102.3 123.8 106.6 124.35 106.35 128.1 98.25 135.0 107.25" fill="#c1d9cb" fill-rule="evenodd" stroke="none"/>
    <path d="M186.55 74.45 L197.3 77.7 195.4 99.8 182.05 105.55 Q181.85 105.7 181.8 105.95 181.4 107.3 182.5 107.8 L191.9 112.2 148.2 146.45 186.55 74.45 M215.2 97.8 L214.7 79.85 226.25 84.1 251.7 113.6 273.9 151.2 282.3 213.1 242.45 216.15 Q239.0 201.85 233.65 188.4 L232.15 184.3 230.9 180.85 228.3 174.1 223.8 142.3 215.2 97.8 M211.7 81.5 L212.25 98.25 220.85 142.75 228.95 199.3 228.75 200.1 230.25 247.05 145.25 247.45 145.3 154.0 147.0 151.15 195.7 113.05 Q196.25 112.6 196.2 111.7 L196.05 111.25 195.8 110.85 195.35 110.6 186.8 106.55 197.35 102.1 197.95 101.65 198.25 101.35 200.25 78.5 211.7 81.5 M83.35 80.0 L93.3 76.4 137.7 143.7 97.65 115.0 105.8 108.05 105.9 107.3 107.1 107.1 107.55 106.4 107.5 105.0 83.9 104.65 83.35 80.0 M69.85 86.45 L80.0 81.5 81.5 107.2 102.05 107.35 94.9 113.6 94.2 114.4 Q93.9 114.8 94.0 115.35 L94.35 116.35 138.35 147.85 142.3 154.1 142.25 247.45 51.6 247.1 54.65 159.2 70.1 103.0 69.85 86.45 M63.75 88.9 L66.85 87.55 67.15 102.4 51.65 158.9 50.5 192.65 38.15 217.2 35.5 216.95 35.05 216.6 34.45 216.4 25.65 216.0 3.35 213.9 3.0 186.7 23.1 136.55 63.75 88.9" fill="#106557" fill-rule="evenodd" stroke="none"/>
    <path d="M133.45 85.75 L151.6 85.95 153.9 94.65 147.4 105.05 137.55 105.65 129.45 95.1 133.45 85.75 M147.55 108.1 L158.0 121.7 144.0 147.85 127.1 122.25 137.65 108.7 147.55 108.1" fill="#0e4239" fill-rule="evenodd" stroke="none"/>
    <path d="M170.15 17.7 L170.7 16.7 170.05 15.85 Q158.7 15.75 149.05 22.0 148.1 22.6 148.05 23.8 L149.05 24.2 149.45 23.95 165.5 23.9 166.1 22.95 165.5 22.05 152.25 21.95 Q160.6 17.85 170.15 17.7 M103.75 13.0 Q106.75 10.8 110.6 10.5 125.75 8.55 137.85 17.6 146.8 9.05 158.9 7.95 168.05 8.1 174.85 13.7 L178.7 51.6 178.05 51.1 Q171.85 46.3 164.0 45.65 147.35 44.05 130.8 46.6 119.6 48.15 108.65 51.6 105.35 52.7 102.2 54.15 L100.1 55.3 100.45 51.1 Q104.75 46.7 113.25 40.95 121.7 35.15 135.4 35.8 149.5 33.55 158.85 37.35 168.2 41.15 171.8 42.8 L175.65 44.4 175.45 44.15 Q164.35 36.9 151.35 33.9 L151.8 33.15 Q152.55 31.9 152.05 30.45 151.7 29.3 150.85 28.8 L149.4 28.15 148.6 28.9 148.75 29.25 149.25 30.6 149.35 31.9 149.15 33.2 148.9 33.4 Q139.75 34.35 130.7 33.25 L127.85 32.95 128.15 28.65 126.95 28.25 126.7 28.5 Q125.65 30.95 126.35 33.6 L126.7 34.6 119.4 37.1 Q113.4 39.2 100.7 48.15 L103.75 13.0 M179.0 54.45 L180.3 70.7 152.45 82.95 129.15 82.7 98.5 73.6 99.85 57.8 Q110.05 51.4 122.15 49.9 L130.4 48.65 Q147.2 45.95 164.15 47.55 172.65 48.65 179.0 54.45 M131.7 26.35 L131.9 25.05 129.8 23.75 Q119.15 17.05 106.9 20.05 L106.4 20.2 106.8 21.2 Q117.2 20.4 127.0 24.2 L114.05 24.3 113.85 25.4 114.4 25.95 129.6 26.25 129.95 25.95 131.3 26.5 131.7 26.35" fill="#b6e4e3" fill-rule="evenodd" stroke="none"/>
  </g>
</svg>
