<?xml version="1.0" encoding="UTF-8" standalone="no"?>
<svg xmlns:xlink="http://www.w3.org/1999/xlink" height="304.5px" width="226.45px" xmlns="http://www.w3.org/2000/svg">
  <g transform="matrix(1.0, 0.0, 0.0, 1.0, 0.0, 0.0)">
    <path d="M218.55 194.0 L213.95 167.35 158.05 130.8 153.1 112.25 60.65 132.9 11.6 161.95 3.75 222.7 13.25 283.8 15.05 295.3 37.6 301.8 182.75 301.8 203.75 293.15 217.7 232.4 218.55 194.0 M167.95 134.25 L226.25 164.1 226.45 231.9 212.6 297.25 183.9 304.5 36.8 304.5 10.0 299.75 0.0 230.6 6.5 162.5 69.55 120.45 99.9 6.0 130.5 0.0 167.95 134.25 M122.8 21.75 L115.7 24.35 115.65 22.4 117.15 22.3 122.8 21.75 M120.65 13.65 L121.8 12.45 121.8 14.5 113.8 22.9 113.8 20.75 120.65 13.65 M100.5 10.7 L74.7 123.75 60.6 132.85 153.1 112.2 126.3 6.4 100.5 10.7 M27.65 160.65 L28.8 159.45 28.8 161.5 20.8 169.9 20.8 167.75 27.65 160.65 M31.75 164.45 L31.65 166.2 Q30.65 174.1 22.7 171.35 L22.65 169.4 Q24.05 170.2 25.75 170.25 31.25 169.75 31.75 164.45 M144.7 104.55 Q144.8 106.85 143.7 108.6 142.6 110.35 141.0 110.45 139.35 110.55 138.15 108.95 136.95 107.35 136.85 104.9 136.95 105.9 137.5 106.7 L138.2 107.4 Q139.25 108.35 140.75 108.35 144.35 108.05 144.7 104.55 M138.8 103.2 L138.85 103.2 138.4 103.9 138.8 103.2 M82.2 119.9 Q84.1 121.4 86.3 120.45 88.7 119.5 88.7 116.85 88.95 118.9 88.0 120.85 87.05 122.8 85.45 123.2 83.85 123.55 82.55 122.15 81.25 120.7 80.95 118.05 L81.5 119.2 82.2 119.9 M82.8 115.7 L82.85 115.7 82.4 116.4 82.8 115.7 M22.5 289.7 L23.2 290.4 27.35 291.05 29.7 287.2 Q29.9 289.45 28.85 291.35 27.8 293.25 26.2 293.5 24.55 293.7 23.3 292.15 22.0 290.55 21.85 287.9 21.95 288.9 22.5 289.7 M208.2 212.4 Q210.1 214.0 212.35 213.05 214.75 211.9 214.7 209.2 214.9 211.5 213.85 213.4 212.8 215.3 211.2 215.55 209.55 215.75 208.3 214.15 207.0 212.55 206.85 209.9 206.95 210.9 207.5 211.7 L208.2 212.4 M208.45 208.75 L208.85 208.2 208.4 208.9 208.45 208.75 M182.3 293.4 L182.3 291.25 189.15 284.15 190.3 282.95 190.3 285.0 182.3 293.4 M191.3 292.25 L184.2 294.85 184.15 292.9 185.65 292.8 191.3 292.25" fill="#47525f" fill-rule="evenodd" stroke="none"/>
    <path d="M13.25 283.8 L3.75 222.7 11.6 161.95 60.65 132.9 153.1 112.25 158.05 130.8 213.95 167.35 218.55 194.0 13.25 283.8 M122.6 15.15 L123.6 14.05 Q123.6 17.5 121.3 19.95 119.5 21.8 117.15 22.3 L115.65 22.4 122.6 15.15 M28.8 161.5 L28.8 159.45 27.65 160.65 28.4 159.2 Q24.9 159.2 22.45 161.3 20.0 163.4 20.0 166.35 L20.8 169.9 22.7 171.35 Q30.65 174.1 31.65 166.2 L31.75 164.45 30.6 161.05 28.7 167.8 22.65 169.4 28.8 161.5 M191.1 285.65 L192.1 284.55 Q192.1 288.0 189.8 290.45 188.0 292.3 185.65 292.8 L184.15 292.9 191.1 285.65" fill="#bab9ba" fill-rule="evenodd" stroke="none"/>
    <path d="M13.25 283.8 L218.55 194.0 217.7 232.4 203.75 293.15 182.75 301.8 37.6 301.8 15.05 295.3 13.25 283.8 M122.6 15.15 L121.8 14.5 121.8 12.45 120.65 13.65 121.4 12.2 Q117.9 12.2 115.45 14.3 113.0 16.4 113.0 19.35 L113.8 22.9 115.7 24.35 122.8 21.75 Q124.5 20.3 124.75 17.45 L123.6 14.05 122.6 15.15 M100.5 10.7 L126.3 6.4 153.1 112.2 60.6 132.85 74.7 123.75 100.5 10.7 M144.7 104.55 L143.9 102.3 142.5 101.3 Q140.15 101.3 138.5 102.35 136.85 103.4 136.85 104.9 136.95 107.35 138.15 108.95 139.35 110.55 141.0 110.45 142.6 110.35 143.7 108.6 144.8 106.85 144.7 104.55 M138.85 103.2 L138.8 103.2 138.9 103.1 138.85 103.2 M88.7 116.85 L87.9 114.8 Q87.35 114.15 86.65 113.75 L86.0 113.85 Q83.9 113.85 82.45 115.1 80.95 116.3 80.95 118.05 81.25 120.7 82.55 122.15 83.85 123.55 85.45 123.2 87.05 122.8 88.0 120.85 88.95 118.9 88.7 116.85 M82.8 115.7 L82.9 115.6 82.85 115.7 82.8 115.7 M28.9 285.3 L25.65 284.8 21.85 287.9 Q22.0 290.55 23.3 292.15 24.55 293.7 26.2 293.5 27.8 293.25 28.85 291.35 29.9 289.45 29.7 287.2 L28.9 285.3 M214.7 209.2 L213.9 207.3 211.55 206.45 208.85 208.2 208.45 208.75 206.85 209.9 Q207.0 212.55 208.3 214.15 209.55 215.75 211.2 215.55 212.8 215.3 213.85 213.4 214.9 211.5 214.7 209.2 M189.9 282.7 Q186.4 282.7 183.95 284.8 181.5 286.9 181.5 289.85 L182.3 293.4 184.2 294.85 191.3 292.25 Q193.25 290.4 193.25 287.95 L192.1 284.55 191.1 285.65 190.3 285.0 190.3 282.95 189.15 284.15 189.9 282.7" fill="#9c9c9c" fill-rule="evenodd" stroke="none"/>
    <path d="M113.0 19.35 Q113.0 16.4 115.45 14.3 117.9 12.2 121.4 12.2 L113.45 20.25 113.0 19.35 M20.0 166.35 Q20.0 163.4 22.45 161.3 24.9 159.2 28.4 159.2 L20.45 167.25 20.0 166.35 M136.85 104.9 Q136.85 103.4 138.5 102.35 140.15 101.3 142.5 101.3 L138.9 103.1 138.8 103.2 138.4 103.9 137.5 106.7 Q136.95 105.9 136.85 104.9 M80.95 118.05 Q80.95 116.3 82.45 115.1 83.9 113.85 86.0 113.85 L82.9 115.6 82.8 115.7 82.4 116.4 81.5 119.2 80.95 118.05 M25.65 284.8 L22.5 289.7 Q21.95 288.9 21.85 287.9 L25.65 284.8 M206.85 209.9 L208.45 208.75 208.4 208.9 207.5 211.7 Q206.95 210.9 206.85 209.9 M181.95 290.75 L181.5 289.85 Q181.5 286.9 183.95 284.8 186.4 282.7 189.9 282.7 L181.95 290.75" fill="#e9e9eb" fill-rule="evenodd" stroke="none"/>
    <path d="M121.4 12.2 L120.65 13.65 113.8 20.75 113.45 20.25 121.4 12.2 M28.4 159.2 L27.65 160.65 20.8 167.75 20.45 167.25 28.4 159.2 M142.5 101.3 L143.9 102.3 Q144.15 104.9 142.0 106.45 140.05 107.7 138.2 107.4 L137.5 106.7 138.4 103.9 138.85 103.2 138.9 103.1 142.5 101.3 M87.9 114.8 Q88.2 117.45 86.0 118.95 84.1 120.25 82.2 119.9 L81.5 119.2 82.4 116.4 82.85 115.7 82.9 115.6 86.0 113.85 86.65 113.75 Q87.35 114.15 87.9 114.8 M28.9 285.3 Q29.1 287.6 27.5 289.05 25.65 290.7 23.2 290.4 L22.5 289.7 25.65 284.8 28.9 285.3 M213.9 207.3 Q214.15 209.95 212.0 211.45 210.05 212.65 208.2 212.4 L207.5 211.7 208.4 208.9 208.85 208.2 211.55 206.45 213.9 207.3 M181.95 290.75 L189.9 282.7 189.15 284.15 182.3 291.25 181.95 290.75" fill="#d0cfd0" fill-rule="evenodd" stroke="none"/>
    <path d="M123.6 14.05 L124.75 17.45 Q124.5 20.3 122.8 21.75 L117.15 22.3 Q119.5 21.8 121.3 19.95 123.6 17.5 123.6 14.05 M22.65 169.4 L28.7 167.8 30.6 161.05 31.75 164.45 Q31.25 169.75 25.75 170.25 24.05 170.2 22.65 169.4 M143.9 102.3 L144.7 104.55 Q144.35 108.05 140.75 108.35 139.25 108.35 138.2 107.4 140.05 107.7 142.0 106.45 144.15 104.9 143.9 102.3 M87.9 114.8 L88.7 116.85 Q88.7 119.5 86.3 120.45 84.1 121.4 82.2 119.9 84.1 120.25 86.0 118.95 88.2 117.45 87.9 114.8 M23.2 290.4 Q25.65 290.7 27.5 289.05 29.1 287.6 28.9 285.3 L29.7 287.2 27.35 291.05 23.2 290.4 M213.9 207.3 L214.7 209.2 Q214.75 211.9 212.35 213.05 210.1 214.0 208.2 212.4 210.05 212.65 212.0 211.45 214.15 209.95 213.9 207.3 M192.1 284.55 L193.25 287.95 Q193.25 290.4 191.3 292.25 L185.65 292.8 Q188.0 292.3 189.8 290.45 192.1 288.0 192.1 284.55" fill="#b0aeb3" fill-rule="evenodd" stroke="none"/>
    <path d="M121.8 14.5 L122.6 15.15 115.65 22.4 115.7 24.35 113.8 22.9 121.8 14.5 M28.8 161.5 L22.65 169.4 22.7 171.35 20.8 169.9 28.8 161.5 M190.3 285.0 L191.1 285.65 184.15 292.9 184.2 294.85 182.3 293.4 190.3 285.0" fill="#57565b" fill-rule="evenodd" stroke="none"/>
    <path d="M113.8 22.9 L113.0 19.35 113.45 20.25 113.8 20.75 113.8 22.9 M20.8 169.9 L20.0 166.35 20.45 167.25 20.8 167.75 20.8 169.9 M181.5 289.85 L181.95 290.75 182.3 291.25 182.3 293.4 181.5 289.85" fill="#79818b" fill-rule="evenodd" stroke="none"/>
  </g>
</svg>
