<?xml version="1.0" encoding="UTF-8" standalone="no"?>
<svg xmlns:xlink="http://www.w3.org/1999/xlink" height="280.1px" width="195.0px" xmlns="http://www.w3.org/2000/svg">
  <g transform="matrix(1.0, 0.0, 0.0, 1.0, 0.0, 0.0)">
    <path d="M149.75 126.35 L186.4 148.7 144.25 214.9 137.3 223.65 125.8 221.75 118.85 229.05 132.9 238.6 133.7 243.65 107.6 236.75 100.15 239.1 99.2 240.7 105.4 254.4 134.5 276.05 138.9 275.2 139.25 277.2 97.05 277.2 99.0 183.95 138.3 153.6 138.3 151.9 133.4 147.95 146.0 144.65 149.75 126.35 M110.35 48.45 L109.55 47.25 110.15 47.35 110.05 45.8 111.5 46.3 Q113.65 45.35 113.5 42.65 113.4 40.1 110.65 40.15 L113.75 36.4 116.1 49.85 Q113.55 51.05 110.35 48.45 M90.7 40.2 Q89.25 40.8 88.75 42.4 87.75 45.7 90.55 46.8 90.0 48.1 88.95 48.65 87.05 49.5 85.1 49.1 L86.7 42.8 86.9 40.8 86.65 39.05 87.35 35.9 Q89.9 37.5 90.7 40.2 M57.2 143.3 L52.7 125.8 67.6 116.55 95.1 181.35 67.0 154.55 72.15 145.3 57.2 143.3 M63.65 154.35 L64.0 155.8 96.15 186.4 94.85 238.7 86.3 235.05 60.55 244.15 60.9 240.35 74.75 230.25 68.4 223.4 55.45 224.75 30.8 194.95 11.4 151.3 50.0 127.45 55.45 146.1 68.3 147.45 63.65 154.35 M147.0 124.7 L143.7 142.5 128.8 146.45 134.6 152.7 101.6 178.15 131.65 115.35 147.0 124.7 M144.3 219.4 L146.8 216.5 187.45 152.7 192.0 199.25 185.55 247.8 184.7 250.85 184.4 247.2 Q173.85 237.45 163.7 229.3 L145.6 225.65 144.3 219.4 M89.25 254.8 L94.8 241.55 94.05 277.25 57.65 277.7 57.8 276.2 61.9 277.05 89.25 254.8 M28.15 196.3 L44.9 216.7 42.7 226.75 25.45 229.5 10.15 250.7 6.5 240.4 3.05 195.25 10.15 155.8 28.15 196.3" fill="#106557" fill-rule="evenodd" stroke="none"/>
    <path d="M149.75 126.35 L146.0 144.65 133.4 147.95 138.3 151.9 138.3 153.6 99.0 183.95 97.05 277.2 139.25 277.2 138.9 275.2 134.5 276.05 105.4 254.4 99.2 240.7 100.15 239.1 107.6 236.75 133.7 243.65 132.9 238.6 118.85 229.05 125.8 221.75 137.3 223.65 144.25 214.9 186.4 148.7 149.75 126.35 M190.0 148.15 L195.0 199.05 188.5 248.4 184.35 261.9 141.8 274.4 142.0 279.85 54.8 280.1 54.85 275.45 12.85 265.3 11.95 264.7 3.5 240.85 0.0 195.35 8.0 150.6 8.9 149.35 30.7 135.9 57.2 121.25 Q63.25 117.25 68.2 111.55 L68.5 111.3 81.9 49.55 84.05 39.65 84.25 39.15 84.55 38.65 85.45 35.15 85.2 33.95 92.1 1.3 92.3 0.85 92.65 0.55 Q93.05 0.25 93.55 0.25 101.6 0.05 109.7 0.0 L110.4 0.75 110.65 1.15 129.8 111.1 130.85 111.7 131.8 111.95 189.3 146.95 190.0 148.15 M110.35 48.45 L112.9 54.1 112.1 54.85 111.85 54.75 109.75 51.7 Q106.65 46.35 108.7 40.55 109.85 37.4 112.4 35.0 L113.35 34.1 112.35 28.25 104.6 32.7 103.9 31.9 Q103.85 31.7 103.95 31.65 106.0 30.0 108.15 28.55 L111.95 26.15 107.9 2.95 94.8 3.1 89.8 26.75 98.0 33.45 97.15 34.55 89.35 28.9 88.3 33.9 89.35 34.55 Q92.15 36.5 93.0 39.9 93.4 41.6 93.3 43.35 L93.05 45.55 Q92.7 47.85 91.25 49.75 91.0 50.05 90.6 50.15 89.25 50.85 87.75 51.0 L84.65 51.25 80.25 71.9 89.5 58.9 90.7 59.65 87.4 65.0 Q93.3 64.6 99.2 65.85 L100.8 66.3 Q105.35 63.7 110.6 63.75 L112.9 64.05 109.85 59.3 110.6 58.5 111.35 58.65 119.05 69.25 118.65 70.25 117.55 70.3 114.8 66.65 113.1 66.2 Q106.95 64.9 101.35 68.05 L100.7 68.4 Q94.25 66.45 87.7 67.0 L85.85 67.25 78.95 78.1 72.1 110.4 99.4 117.55 126.7 110.65 123.5 92.15 Q119.4 87.3 113.75 84.15 L109.15 82.05 104.55 80.75 98.05 80.1 Q88.65 81.25 81.6 87.5 L78.65 90.0 78.35 90.1 77.65 89.15 Q80.25 85.8 83.55 83.45 87.25 80.8 91.6 79.35 98.95 76.9 106.4 78.85 114.95 81.15 121.5 87.2 L122.9 88.65 116.1 49.85 113.75 36.4 110.65 40.15 110.05 45.8 110.15 47.35 109.55 47.25 110.35 48.45 M96.1 37.95 Q96.15 37.25 96.7 37.05 L97.05 37.05 Q97.95 37.2 97.95 38.1 L95.85 59.5 95.65 60.2 95.3 60.4 Q94.65 60.6 94.25 60.05 L94.15 59.7 Q95.0 48.8 96.1 37.95 M90.7 40.2 Q89.9 37.5 87.35 35.9 L86.65 39.05 86.9 40.8 86.7 42.8 85.1 49.1 Q87.05 49.5 88.95 48.65 90.0 48.1 90.55 46.8 91.7 43.9 90.75 40.4 L90.7 40.2 M63.65 154.35 L68.3 147.45 55.45 146.1 50.0 127.45 11.4 151.3 30.8 194.95 55.45 224.75 68.4 223.4 74.75 230.25 60.9 240.35 60.55 244.15 86.3 235.05 94.85 238.7 96.15 186.4 64.0 155.8 63.65 154.35 M57.2 143.3 L72.15 145.3 67.0 154.55 95.1 181.35 67.6 116.55 52.7 125.8 57.2 143.3 M128.9 114.2 L128.4 113.45 102.1 120.0 112.25 128.0 125.75 120.75 128.9 114.2 M147.0 124.7 L131.65 115.35 101.6 178.15 134.6 152.7 128.8 146.45 143.7 142.5 147.0 124.7 M70.05 114.0 L73.1 121.25 89.55 127.15 96.7 119.95 70.7 113.1 70.05 114.0 M96.4 123.4 Q94.95 124.85 94.95 126.9 94.95 128.95 96.4 130.4 97.8 131.85 99.85 131.85 101.9 131.85 103.35 130.4 104.75 128.95 104.75 126.9 104.75 124.85 103.35 123.4 101.9 121.95 99.85 121.95 97.8 121.95 96.4 123.4 M104.9 133.1 L112.15 149.2 123.6 125.3 112.0 131.25 106.85 127.5 104.9 133.1 M92.95 127.95 L90.3 130.35 74.75 125.2 86.2 152.35 94.6 133.1 92.95 127.95 M97.4 134.2 L87.8 156.2 97.6 179.55 110.45 152.75 102.05 134.2 97.4 134.2 M144.3 219.4 L145.6 225.65 163.7 229.3 Q173.85 237.45 184.4 247.2 L184.7 250.85 185.55 247.8 192.0 199.25 187.45 152.7 146.8 216.5 144.3 219.4 M142.85 225.15 L141.95 222.2 139.95 224.3 142.85 225.15 M107.3 239.8 L102.7 241.4 107.5 252.25 135.45 273.1 181.95 259.4 181.65 248.2 162.6 231.15 127.0 224.6 122.75 228.6 156.4 250.5 156.15 251.85 107.3 239.8 M86.15 238.1 L39.4 254.5 38.45 253.45 71.0 229.6 66.95 226.0 27.1 232.15 11.4 254.15 14.35 262.6 61.2 273.95 87.05 252.8 91.9 240.6 86.15 238.1 M89.25 254.8 L61.9 277.05 57.8 276.2 57.65 277.7 94.05 277.25 94.8 241.55 89.25 254.8 M136.9 244.45 L146.05 246.85 136.3 240.7 136.9 244.45 M28.15 196.3 L10.15 155.8 3.05 195.25 6.5 240.4 10.15 250.7 25.45 229.5 42.7 226.75 44.9 216.7 28.15 196.3 M52.0 225.3 L47.35 219.65 45.9 226.25 52.0 225.3 M57.45 245.25 L57.7 242.55 49.95 247.9 57.45 245.25" fill="#1a1a1a" fill-rule="evenodd" stroke="none"/>
    <path d="M116.1 49.85 L122.9 88.65 121.5 87.2 Q114.95 81.15 106.4 78.85 98.95 76.9 91.6 79.35 87.25 80.8 83.55 83.45 80.25 85.8 77.65 89.15 L78.35 90.1 78.65 90.0 81.6 87.5 Q88.65 81.25 98.05 80.1 L104.55 80.75 109.15 82.05 113.75 84.15 Q119.4 87.3 123.5 92.15 L126.7 110.65 99.4 117.55 72.1 110.4 78.95 78.1 85.85 67.25 87.7 67.0 Q94.25 66.45 100.7 68.4 L101.35 68.05 Q106.95 64.9 113.1 66.2 L114.8 66.65 117.55 70.3 118.65 70.25 119.05 69.25 111.35 58.65 110.6 58.5 109.85 59.3 112.9 64.05 110.6 63.75 Q105.35 63.7 100.8 66.3 L99.2 65.85 Q93.3 64.6 87.4 65.0 L90.7 59.65 89.5 58.9 80.25 71.9 84.65 51.25 87.75 51.0 Q89.25 50.85 90.6 50.15 91.0 50.05 91.25 49.75 92.7 47.85 93.05 45.55 L93.3 43.35 Q93.4 41.6 93.0 39.9 92.15 36.5 89.35 34.55 L88.3 33.9 89.35 28.9 97.15 34.55 98.0 33.45 89.8 26.75 94.8 3.1 107.9 2.95 111.95 26.15 108.15 28.55 Q106.0 30.0 103.95 31.65 103.85 31.7 103.9 31.9 L104.6 32.7 112.35 28.25 113.35 34.1 112.4 35.0 Q109.85 37.4 108.7 40.55 106.65 46.35 109.75 51.7 L111.85 54.75 112.1 54.85 112.9 54.1 110.35 48.45 Q113.55 51.05 116.1 49.85 M96.1 37.95 Q95.0 48.8 94.15 59.7 L94.25 60.05 Q94.65 60.6 95.3 60.4 L95.65 60.2 95.85 59.5 97.95 38.1 Q97.95 37.2 97.05 37.05 L96.7 37.05 Q96.15 37.25 96.1 37.95 M107.3 239.8 L156.15 251.85 156.4 250.5 122.75 228.6 127.0 224.6 162.6 231.15 181.65 248.2 181.95 259.4 135.45 273.1 107.5 252.25 102.7 241.4 107.3 239.8 M86.15 238.1 L91.9 240.6 87.05 252.8 61.2 273.95 14.35 262.6 11.4 254.15 27.1 232.15 66.95 226.0 71.0 229.6 38.45 253.45 39.4 254.5 86.15 238.1" fill="#d56a6a" fill-rule="evenodd" stroke="none"/>
    <path d="M110.05 45.8 L110.65 40.15 Q113.4 40.1 113.5 42.65 113.65 45.35 111.5 46.3 L110.05 45.8 M90.55 46.8 Q87.75 45.7 88.75 42.4 89.25 40.8 90.7 40.2 L90.75 40.4 Q91.7 43.9 90.55 46.8" fill="#000000" fill-rule="evenodd" stroke="none"/>
    <path d="M128.9 114.2 L125.75 120.75 112.25 128.0 102.1 120.0 128.4 113.45 128.9 114.2 M70.05 114.0 L70.7 113.1 96.7 119.95 89.55 127.15 73.1 121.25 70.05 114.0 M92.95 127.95 L94.6 133.1 86.2 152.35 74.75 125.2 90.3 130.35 92.95 127.95 M104.9 133.1 L106.85 127.5 112.0 131.25 123.6 125.3 112.15 149.2 104.9 133.1" fill="#c1d9cb" fill-rule="evenodd" stroke="none"/>
    <path d="M96.4 123.4 Q97.8 121.95 99.85 121.95 101.9 121.95 103.35 123.4 104.75 124.85 104.75 126.9 104.75 128.95 103.35 130.4 101.9 131.85 99.85 131.85 97.8 131.85 96.4 130.4 94.95 128.95 94.95 126.9 94.95 124.85 96.4 123.4 M97.4 134.2 L102.05 134.2 110.45 152.75 97.6 179.55 87.8 156.2 97.4 134.2" fill="#0e4239" fill-rule="evenodd" stroke="none"/>
  </g>
</svg>
