<?xml version="1.0" encoding="UTF-8" standalone="no"?>
<svg xmlns:xlink="http://www.w3.org/1999/xlink" height="319.85px" width="275.3px" xmlns="http://www.w3.org/2000/svg">
  <g transform="matrix(1.0, 0.0, 0.0, 1.0, 17.9, 42.05)">
    <path d="M191.95 39.3 L192.65 41.05 193.35 41.85 194.1 42.2 Q200.05 44.4 200.95 38.2 202.15 41.65 199.4 43.15 192.65 46.85 191.95 39.3 M202.55 161.2 L204.65 160.25 192.1 121.95 150.05 95.95 153.15 87.9 245.25 69.4 231.05 42.2 224.0 39.75 223.3 39.9 223.95 39.75 150.7 14.4 21.55 -35.05 -9.7 -16.15 26.5 38.55 56.7 77.45 77.1 95.35 45.6 108.3 18.75 192.95 21.0 240.15 21.9 257.85 36.95 274.75 190.15 274.75 204.45 260.4 210.5 182.6 204.65 160.3 202.55 161.2 M222.7 32.95 L235.6 36.85 257.4 77.5 155.05 93.5 197.55 117.65 219.35 193.4 210.9 263.2 192.9 277.8 33.25 277.8 15.45 252.85 12.2 192.25 36.7 109.3 69.65 96.3 18.5 41.85 -17.9 -19.85 21.5 -42.05 42.0 -33.65 47.0 -31.6 127.35 1.35 142.7 7.75 Q154.1 12.5 165.8 16.05 L222.7 32.95 M194.2 175.2 L194.9 176.95 195.6 177.75 196.35 178.15 Q202.3 180.3 203.2 174.1 204.2 181.5 197.2 180.2 194.4 179.5 194.25 176.6 L194.2 175.2 M3.15 -6.95 L12.3 -16.45 12.3 -14.1 3.1 -4.45 3.1 -6.95 3.15 -6.95 M5.25 -5.05 Q6.85 -4.1 8.85 -4.05 15.15 -4.65 15.75 -10.7 16.2 -1.4 7.05 -2.55 L5.3 -2.8 5.25 -5.05 M27.45 249.4 L28.15 250.2 28.9 250.55 Q34.95 252.7 35.75 246.5 36.75 254.0 29.75 252.55 27.05 251.95 26.8 249.05 L26.75 247.6 27.45 249.4" fill="#47525f" fill-rule="evenodd" stroke="none"/>
    <path d="M223.3 39.9 L224.0 39.75 231.05 42.2 245.25 69.4 153.15 87.9 150.05 95.95 192.1 121.95 204.65 160.25 202.55 161.2 Q111.8 200.7 21.0 240.15 L18.75 192.95 45.6 108.3 77.1 95.35 56.7 77.45 223.3 39.9 M14.4 -14.65 L14.45 -13.7 Q14.2 -4.65 5.25 -5.05 L13.2 -13.35 14.4 -14.65" fill="#bab9ba" fill-rule="evenodd" stroke="none"/>
    <path d="M198.6 34.8 L197.6 34.45 Q192.25 33.95 191.95 39.3 192.65 46.85 199.4 43.15 202.15 41.65 200.95 38.2 200.8 37.0 200.0 36.0 199.4 35.25 198.6 34.8 M202.55 161.2 L204.65 160.3 210.5 182.6 204.45 260.4 190.15 274.75 36.95 274.75 21.9 257.85 21.0 240.15 Q111.8 200.7 202.55 161.2 M56.7 77.45 L26.5 38.55 -9.7 -16.15 21.55 -35.05 150.7 14.4 223.95 39.75 223.3 39.9 56.7 77.45 M200.8 170.7 L199.85 170.35 Q194.55 169.9 194.2 175.2 L194.25 176.6 Q194.4 179.5 197.2 180.2 204.2 181.5 203.2 174.1 203.05 172.9 202.25 171.9 L200.8 170.7 M2.85 -8.65 L2.8 -8.4 2.8 -8.5 2.85 -8.65 M3.1 -7.0 L3.15 -6.95 3.1 -6.95 3.1 -7.0 M12.3 -16.45 L11.9 -16.75 11.6 -16.65 Q5.4 -18.9 2.3 -12.4 L1.7 -10.65 1.7 -7.95 Q1.45 -7.1 3.1 -4.45 L5.3 -2.8 7.05 -2.55 Q16.2 -1.4 15.75 -10.7 L14.4 -14.65 13.2 -13.35 12.3 -14.1 12.3 -16.45 M26.75 247.6 L26.8 249.05 Q27.05 251.95 29.75 252.55 36.75 254.0 35.75 246.5 35.6 245.3 34.8 244.35 L33.35 243.1 32.4 242.75 Q27.05 242.25 26.75 247.6" fill="#9c9c9c" fill-rule="evenodd" stroke="none"/>
    <path d="M191.95 39.3 Q192.25 33.95 197.6 34.45 L198.6 34.8 Q196.1 34.8 194.4 36.65 192.65 38.5 192.65 41.05 L191.95 39.3 M194.2 175.2 Q194.55 169.9 199.85 170.35 L200.8 170.7 Q198.35 170.7 196.6 172.55 194.9 174.35 194.9 176.95 L194.2 175.2 M11.6 -16.65 L10.65 -16.3 Q5.2 -14.1 2.85 -8.65 L2.8 -8.5 2.7 -7.5 Q1.8 -9.0 1.7 -10.65 L2.3 -12.4 Q5.4 -18.9 11.6 -16.65 M27.45 249.4 L26.75 247.6 Q27.05 242.25 32.4 242.75 L33.35 243.1 Q30.9 243.1 29.2 244.95 27.45 246.8 27.45 249.4" fill="#e9e9eb" fill-rule="evenodd" stroke="none"/>
    <path d="M192.65 41.05 Q192.65 38.5 194.4 36.65 196.1 34.8 198.6 34.8 199.4 35.25 200.0 36.0 200.0 38.45 198.05 40.15 196.1 41.85 193.35 41.85 L192.65 41.05 M194.9 176.95 Q194.9 174.35 196.6 172.55 198.35 170.7 200.8 170.7 L202.25 171.9 Q202.25 174.3 200.3 176.05 198.35 177.75 195.6 177.75 L194.9 176.95 M2.85 -8.65 Q5.2 -14.1 10.65 -16.3 L11.6 -16.65 11.9 -16.75 12.3 -16.45 3.15 -6.95 3.1 -7.0 2.75 -7.5 2.8 -8.4 2.85 -8.65 M28.15 250.2 L27.45 249.4 Q27.45 246.8 29.2 244.95 30.9 243.1 33.35 243.1 L34.8 244.35 34.8 244.6 Q34.3 250.6 28.15 250.2" fill="#d0cfd0" fill-rule="evenodd" stroke="none"/>
    <path d="M200.0 36.0 Q200.8 37.0 200.95 38.2 200.05 44.4 194.1 42.2 L193.35 41.85 Q196.1 41.85 198.05 40.15 200.0 38.45 200.0 36.0 M202.25 171.9 Q203.05 172.9 203.2 174.1 202.3 180.3 196.35 178.15 L195.6 177.75 Q198.35 177.75 200.3 176.05 202.25 174.3 202.25 171.9 M5.25 -5.05 Q14.2 -4.65 14.45 -13.7 L14.4 -14.65 15.75 -10.7 Q15.15 -4.65 8.85 -4.05 6.85 -4.1 5.25 -5.05 M35.75 246.5 Q34.95 252.7 28.9 250.55 L28.15 250.2 Q34.3 250.6 34.8 244.6 L34.8 244.35 Q35.6 245.3 35.75 246.5" fill="#b0aeb3" fill-rule="evenodd" stroke="none"/>
    <path d="M13.2 -13.35 L5.25 -5.05 5.3 -2.8 3.1 -4.45 12.3 -14.1 13.2 -13.35" fill="#57565b" fill-rule="evenodd" stroke="none"/>
    <path d="M2.8 -8.4 L2.75 -7.5 3.1 -7.0 3.1 -6.95 3.1 -4.45 Q1.45 -7.1 1.7 -7.95 L1.7 -10.65 Q1.8 -9.0 2.7 -7.5 L2.8 -8.5 2.8 -8.4" fill="#79818b" fill-rule="evenodd" stroke="none"/>
  </g>
</svg>
