<?xml version="1.0" encoding="UTF-8" standalone="no"?>
<svg xmlns:xlink="http://www.w3.org/1999/xlink" height="264.0px" width="190.4px" xmlns="http://www.w3.org/2000/svg">
  <g transform="matrix(1.0, 0.0, 0.0, 1.0, 0.0, 0.0)">
    <path d="M166.8 63.35 L134.25 55.8 125.95 53.4 Q109.35 48.7 93.5 41.95 67.5 30.7 41.75 18.65 24.0 10.4 6.1 2.5 4.65 3.15 2.55 5.6 0.45 8.05 4.2 18.65 7.9 29.25 15.85 43.75 L16.35 43.55 Q16.5 41.65 16.8 39.8 17.3 37.05 19.7 36.7 21.45 36.75 22.5 38.25 24.6 41.4 24.85 45.25 L27.45 46.8 28.75 43.6 Q29.05 42.95 29.65 42.55 30.2 42.1 30.85 41.85 L32.1 42.05 33.1 43.35 33.6 44.45 34.35 47.85 34.75 51.6 39.1 55.1 Q40.4 53.05 42.25 51.35 43.2 50.6 44.3 50.35 45.1 50.35 45.75 50.8 47.6 51.95 47.5 54.05 47.35 57.55 45.65 60.5 L48.2 62.85 Q51.05 58.5 55.7 57.85 57.45 57.75 58.3 59.25 59.25 60.9 58.85 63.05 58.15 67.1 56.15 70.9 L56.65 71.45 58.25 70.55 59.05 70.15 59.9 69.85 60.75 69.6 61.6 69.35 63.35 69.25 63.6 69.3 64.05 69.6 64.15 70.65 64.0 72.4 63.1 74.85 61.8 77.05 63.55 79.2 63.8 78.5 64.2 77.7 65.05 76.2 65.9 75.1 66.75 74.45 Q67.05 74.15 67.45 73.95 68.3 73.85 68.65 74.5 70.2 77.3 69.9 80.7 69.6 83.65 69.8 86.65 69.9 88.55 70.65 90.4 72.1 94.15 72.65 98.25 L72.0 98.7 71.25 98.55 67.9 90.55 Q66.55 87.55 64.65 84.9 50.55 65.05 30.7 51.15 L26.0 47.75 Q21.8 44.65 16.9 45.5 21.15 52.2 26.2 58.0 39.05 72.65 51.4 87.65 L71.1 112.0 Q82.25 119.75 95.9 117.8 102.3 114.2 108.8 111.15 110.0 105.3 112.05 99.65 112.75 97.8 113.75 96.1 114.25 95.3 115.15 94.95 132.45 87.7 150.9 84.1 169.65 80.4 188.0 75.25 186.05 70.2 181.15 68.0 174.2 64.95 166.8 63.35 M178.45 64.45 Q183.75 65.7 187.45 69.25 190.05 71.2 190.35 74.55 190.5 76.15 190.25 77.85 163.95 86.4 136.9 91.15 126.65 93.0 118.4 99.2 116.0 101.05 114.65 103.85 112.65 108.1 112.0 112.8 L146.85 129.05 156.7 183.75 156.15 232.05 156.45 232.45 Q157.4 243.5 155.5 254.45 144.95 260.4 138.2 260.1 131.45 259.75 129.6 256.85 L128.95 262.6 Q90.15 264.7 50.8 263.7 L49.2 257.25 44.25 261.8 18.35 251.15 14.1 220.35 17.7 178.85 33.35 127.2 68.45 113.45 Q41.25 80.2 15.15 45.95 8.15 36.7 3.7 26.15 -0.4 16.55 0.05 6.25 0.15 3.8 2.0 2.2 L4.85 0.0 Q45.95 16.3 86.05 34.85 102.1 42.3 119.3 47.85 148.5 57.25 178.45 64.45 M138.7 136.65 Q139.0 136.0 139.7 136.1 L140.85 137.6 135.25 150.55 131.5 226.3 Q136.3 221.55 143.2 221.05 L153.2 229.4 153.7 184.15 144.05 130.35 123.25 121.1 110.6 133.45 115.55 137.5 Q116.1 138.5 115.35 139.4 L89.0 167.45 84.8 260.95 126.2 260.45 126.75 255.25 121.6 252.0 121.55 243.2 124.55 240.9 Q125.0 235.05 128.3 230.25 L132.25 150.15 Q135.35 143.3 138.7 136.65 M86.7 55.5 Q93.0 60.9 88.45 67.9 79.0 64.6 78.1 54.5 L75.4 52.2 76.15 51.35 Q87.6 50.1 97.55 54.95 L97.15 55.75 96.45 56.15 93.95 55.4 84.85 54.65 80.35 54.9 80.8 54.9 80.0 55.15 80.1 56.65 82.0 61.2 85.0 63.9 87.45 65.85 88.0 64.05 Q89.4 59.6 85.55 56.5 L86.7 55.5 M76.55 56.55 Q76.95 57.05 76.55 57.55 73.3 64.45 74.75 71.9 L74.0 72.7 72.8 71.95 Q71.3 63.95 74.85 56.45 L76.2 56.2 76.55 56.55 M18.7 40.0 L18.35 43.0 22.6 44.1 Q22.3 40.55 19.8 38.6 L18.7 40.0 M31.1 43.85 L29.85 45.4 29.25 47.8 32.6 50.0 Q32.8 46.6 31.1 43.85 M41.4 55.2 L40.7 56.35 44.05 59.15 Q46.15 55.95 45.05 52.5 42.65 53.05 41.4 55.2 M64.9 81.05 L67.6 85.1 Q68.15 80.6 67.45 76.25 L64.9 81.05 M62.3 71.25 Q59.95 71.35 58.05 72.9 L60.45 75.5 Q62.0 73.6 62.3 71.25 M56.6 60.4 L56.35 59.8 Q52.1 60.8 49.6 64.25 L54.6 69.35 Q57.3 65.2 56.6 60.4 M49.55 123.55 L35.95 128.75 20.7 179.15 17.05 220.2 18.75 232.65 Q23.1 226.35 27.6 220.15 27.9 219.75 28.45 219.7 33.15 218.65 37.1 220.15 42.65 222.15 47.35 226.5 L42.85 158.2 38.5 149.1 38.4 148.6 Q38.25 147.25 39.75 147.0 L40.5 147.6 Q43.25 152.25 45.6 157.15 L45.8 157.7 50.55 229.5 Q52.75 230.9 53.9 233.2 L53.95 233.95 51.95 240.1 Q52.65 240.4 52.85 241.15 L55.25 250.15 55.3 250.9 55.2 251.25 52.15 254.3 52.3 260.7 81.8 260.9 86.0 167.4 57.65 138.25 Q56.75 137.35 57.55 136.25 L57.9 136.05 Q60.95 133.8 64.05 131.7 L49.55 123.55 M106.85 115.1 L97.9 119.6 101.2 129.0 106.85 115.1 M95.6 122.15 L95.1 120.7 85.7 120.45 84.8 122.3 87.25 129.0 91.75 129.35 95.6 122.15 M99.5 133.25 L96.95 126.0 94.1 131.3 97.6 137.95 99.5 133.25 M68.2 131.05 L68.3 132.0 61.05 137.45 84.05 161.1 69.2 116.35 53.25 122.2 68.2 131.05 M107.2 134.4 L106.9 133.2 120.3 119.8 110.05 115.25 91.95 159.9 112.05 138.5 107.2 134.4 M84.55 130.3 L82.95 125.95 78.55 134.9 80.05 139.4 84.55 130.3 M77.2 130.85 L82.6 119.85 72.0 115.3 77.2 130.85 M91.25 132.3 L87.05 132.0 81.4 143.5 87.65 162.45 96.1 141.6 91.25 132.3 M34.0 233.25 L35.05 232.75 36.15 233.05 37.6 245.1 45.1 245.1 47.25 240.25 48.85 240.0 50.9 233.95 37.05 220.9 29.55 222.3 20.95 234.7 20.75 249.1 43.6 258.55 52.25 250.1 50.3 243.0 49.15 243.0 47.3 247.6 46.7 248.05 35.4 247.85 Q33.6 240.65 34.0 233.25 M128.05 235.3 L127.6 240.6 133.4 246.3 140.1 246.25 140.25 242.95 Q139.4 241.15 138.85 239.3 138.7 238.8 139.05 238.35 140.2 237.1 141.3 238.6 142.75 240.55 142.9 242.75 143.05 245.5 142.55 248.3 142.5 248.7 142.05 248.6 L132.85 249.1 Q132.3 249.1 131.9 248.75 L126.2 243.45 124.5 244.4 124.5 250.5 137.8 258.05 153.05 252.15 153.8 233.95 142.8 224.1 136.75 224.6 128.05 235.3" fill="#1a1a1a" fill-rule="evenodd" stroke="none"/>
    <path d="M166.8 63.35 Q174.2 64.95 181.15 68.0 186.05 70.2 188.0 75.25 169.65 80.4 150.9 84.1 132.45 87.7 115.15 94.95 114.25 95.3 113.75 96.1 112.75 97.8 112.05 99.65 110.0 105.3 108.8 111.15 102.3 114.2 95.9 117.8 82.25 119.75 71.1 112.0 L51.4 87.65 Q39.05 72.65 26.2 58.0 21.15 52.2 16.9 45.5 21.8 44.65 26.0 47.75 L30.7 51.15 Q50.55 65.05 64.65 84.9 66.55 87.55 67.9 90.55 L71.25 98.55 72.0 98.7 72.65 98.25 Q72.1 94.15 70.65 90.4 69.9 88.55 69.8 86.65 69.6 83.65 69.9 80.7 70.2 77.3 68.65 74.5 68.3 73.85 67.45 73.95 67.05 74.15 66.75 74.45 L65.9 75.1 65.05 76.2 64.2 77.7 63.8 78.5 63.55 79.2 61.8 77.05 63.1 74.85 64.0 72.4 64.15 70.65 64.05 69.6 63.6 69.3 63.35 69.25 61.6 69.35 60.75 69.6 59.9 69.85 59.05 70.15 58.25 70.55 56.65 71.45 56.15 70.9 Q58.15 67.1 58.85 63.05 59.25 60.9 58.3 59.25 57.45 57.75 55.7 57.85 51.05 58.5 48.2 62.85 L45.65 60.5 Q47.35 57.55 47.5 54.05 47.6 51.95 45.75 50.8 45.1 50.35 44.3 50.35 43.2 50.6 42.25 51.35 40.4 53.05 39.1 55.1 L34.75 51.6 34.35 47.85 33.6 44.45 33.1 43.35 32.1 42.05 30.85 41.85 Q30.2 42.1 29.65 42.55 29.05 42.95 28.75 43.6 L27.45 46.8 24.85 45.25 Q24.6 41.4 22.5 38.25 21.45 36.75 19.7 36.7 17.3 37.05 16.8 39.8 16.5 41.65 16.35 43.55 L15.85 43.75 Q7.9 29.25 4.2 18.65 0.45 8.05 2.55 5.6 4.65 3.15 6.1 2.5 24.0 10.4 41.75 18.65 67.5 30.7 93.5 41.95 109.35 48.7 125.95 53.4 L134.25 55.8 166.8 63.35 M84.85 54.65 L93.95 55.4 96.45 56.15 97.15 55.75 97.55 54.95 Q87.6 50.1 76.15 51.35 L75.4 52.2 78.1 54.5 Q79.0 64.6 88.45 67.9 93.0 60.9 86.7 55.5 L84.85 54.65 M76.55 56.55 L76.2 56.2 74.85 56.45 Q71.3 63.95 72.8 71.95 L74.0 72.7 74.75 71.9 Q73.3 64.45 76.55 57.55 76.95 57.05 76.55 56.55 M106.85 115.1 L101.2 129.0 97.9 119.6 106.85 115.1 M99.5 133.25 L97.6 137.95 94.1 131.3 96.95 126.0 99.5 133.25 M77.2 130.85 L72.0 115.3 82.6 119.85 77.2 130.85 M84.55 130.3 L80.05 139.4 78.55 134.9 82.95 125.95 84.55 130.3 M128.05 235.3 L136.75 224.6 142.8 224.1 153.8 233.95 153.05 252.15 137.8 258.05 124.5 250.5 124.5 244.4 126.2 243.45 131.9 248.75 Q132.3 249.1 132.85 249.1 L142.05 248.6 Q142.5 248.7 142.55 248.3 143.05 245.5 142.9 242.75 142.75 240.55 141.3 238.6 140.2 237.1 139.05 238.35 138.7 238.8 138.85 239.3 139.4 241.15 140.25 242.95 L140.1 246.25 133.4 246.3 127.6 240.6 128.05 235.3 M34.0 233.25 Q33.6 240.65 35.4 247.85 L46.7 248.05 47.3 247.6 49.15 243.0 50.3 243.0 52.25 250.1 43.6 258.55 20.75 249.1 20.95 234.7 29.55 222.3 37.05 220.9 50.9 233.95 48.85 240.0 47.25 240.25 45.1 245.1 37.6 245.1 36.15 233.05 35.05 232.75 34.0 233.25" fill="#c1d9cb" fill-rule="evenodd" stroke="none"/>
    <path d="M138.7 136.65 Q135.35 143.3 132.25 150.15 L128.3 230.25 Q125.0 235.05 124.55 240.9 L121.55 243.2 121.6 252.0 126.75 255.25 126.2 260.45 84.8 260.95 89.0 167.45 115.35 139.4 Q116.1 138.5 115.55 137.5 L110.6 133.45 123.25 121.1 144.05 130.35 153.7 184.15 153.2 229.4 143.2 221.05 Q136.3 221.55 131.5 226.3 L135.25 150.55 140.85 137.6 139.7 136.1 Q139.0 136.0 138.7 136.65 M49.55 123.55 L64.05 131.7 Q60.95 133.8 57.9 136.05 L57.55 136.25 Q56.75 137.35 57.65 138.25 L86.0 167.4 81.8 260.9 52.3 260.7 52.15 254.3 55.2 251.25 55.3 250.9 55.25 250.15 52.85 241.15 Q52.65 240.4 51.95 240.1 L53.95 233.95 53.9 233.2 Q52.75 230.9 50.55 229.5 L45.8 157.7 45.6 157.15 Q43.25 152.25 40.5 147.6 L39.75 147.0 Q38.25 147.25 38.4 148.6 L38.5 149.1 42.85 158.2 47.35 226.5 Q42.65 222.15 37.1 220.15 33.15 218.65 28.45 219.7 27.9 219.75 27.6 220.15 23.1 226.35 18.75 232.65 L17.05 220.2 20.7 179.15 35.95 128.75 49.55 123.55 M107.2 134.4 L112.05 138.5 91.95 159.9 110.05 115.25 120.3 119.8 106.9 133.2 107.2 134.4 M68.2 131.05 L53.25 122.2 69.2 116.35 84.05 161.1 61.05 137.45 68.3 132.0 68.2 131.05" fill="#106557" fill-rule="evenodd" stroke="none"/>
    <path d="M84.85 54.65 L86.7 55.5 85.55 56.5 80.1 56.65 80.0 55.15 80.8 54.9 80.35 54.9 84.85 54.65 M85.0 63.9 L82.0 61.2 82.4 60.7 Q83.85 59.85 85.4 61.1 86.75 62.55 85.5 63.65 L85.0 63.9" fill="#000000" fill-rule="evenodd" stroke="none"/>
    <path d="M85.55 56.5 Q89.4 59.6 88.0 64.05 L87.45 65.85 85.0 63.9 85.5 63.65 Q86.75 62.55 85.4 61.1 83.85 59.85 82.4 60.7 L82.0 61.2 80.1 56.65 85.55 56.5 M56.6 60.4 Q57.3 65.2 54.6 69.35 L49.6 64.25 Q52.1 60.8 56.35 59.8 L56.6 60.4 M62.3 71.25 Q62.0 73.6 60.45 75.5 L58.05 72.9 Q59.95 71.35 62.3 71.25 M64.9 81.05 L67.45 76.25 Q68.15 80.6 67.6 85.1 L64.9 81.05 M41.4 55.2 Q42.65 53.05 45.05 52.5 46.15 55.95 44.05 59.15 L40.7 56.35 41.4 55.2 M31.1 43.85 Q32.8 46.6 32.6 50.0 L29.25 47.8 29.85 45.4 31.1 43.85 M18.7 40.0 L19.8 38.6 Q22.3 40.55 22.6 44.1 L18.35 43.0 18.7 40.0" fill="#ffffff" fill-rule="evenodd" stroke="none"/>
    <path d="M95.6 122.15 L91.75 129.35 87.25 129.0 84.8 122.3 85.7 120.45 95.1 120.7 95.6 122.15 M91.25 132.3 L96.1 141.6 87.65 162.45 81.4 143.5 87.05 132.0 91.25 132.3" fill="#0e4239" fill-rule="evenodd" stroke="none"/>
  </g>
</svg>
