<?xml version="1.0" encoding="UTF-8" standalone="no"?>
<svg xmlns:xlink="http://www.w3.org/1999/xlink" height="329.6px" width="359.4px" xmlns="http://www.w3.org/2000/svg">
  <g transform="matrix(1.0, 0.0, 0.0, 1.0, 13.65, 38.0)">
    <path d="M344.25 246.05 Q343.5 260.5 340.65 274.9 L325.8 291.6 2.4 291.6 Q-1.85 283.85 -3.3 275.65 -9.9 239.1 -13.65 202.0 L44.15 103.8 91.05 67.8 62.2 8.35 74.95 -26.8 207.85 -38.0 285.15 1.65 243.05 70.6 268.4 83.1 269.05 83.35 269.3 83.6 Q291.9 107.7 313.95 132.4 330.05 150.55 345.7 169.2 346.05 207.65 344.25 246.05 M251.65 13.75 L260.25 4.4 260.25 6.7 251.6 16.2 251.6 13.75 251.65 13.75 M263.5 10.05 Q264.0 19.25 255.35 18.05 L253.7 17.85 253.65 15.65 Q255.2 16.55 257.0 16.6 262.95 16.0 263.5 10.05 M236.95 52.9 L237.0 55.35 Q237.0 57.15 235.6 57.95 229.05 61.8 228.5 53.8 228.6 54.85 229.15 55.7 L229.9 56.5 230.6 56.85 Q236.2 58.9 236.95 52.9 M332.65 168.55 L297.7 123.45 265.75 88.85 234.9 73.65 239.55 63.25 274.6 0.6 Q240.8 -15.4 206.95 -31.5 L78.65 -16.15 68.75 2.1 96.45 74.3 50.1 107.35 48.75 108.25 -10.65 203.55 -0.1 274.55 6.3 288.6 70.6 288.6 72.65 287.7 70.6 288.65 322.75 288.65 335.0 272.2 340.15 246.05 334.5 171.6 332.65 168.55 M325.65 185.75 L326.35 186.1 Q330.25 187.4 331.8 185.1 329.0 191.25 325.6 185.75 L325.65 185.75 M7.3 201.65 L8.55 200.25 8.55 202.6 -0.1 212.05 -0.1 209.65 7.3 201.65 M11.7 205.9 Q11.95 215.7 2.75 214.15 L1.95 213.7 1.9 211.5 Q3.4 212.4 5.25 212.45 11.2 211.9 11.7 205.9" fill="#47525f" fill-rule="evenodd" stroke="none"/>
    <path d="M261.15 7.45 L262.25 6.2 Q262.75 15.65 253.95 15.65 L253.65 15.65 261.15 7.45 M239.55 63.25 L234.9 73.65 265.75 88.85 297.7 123.45 332.65 168.55 72.65 287.7 70.6 288.6 6.3 288.6 -0.1 274.55 -10.65 203.55 48.75 108.25 50.1 107.35 239.55 63.25 M8.55 202.6 L8.55 200.25 7.3 201.65 8.1 200.0 7.45 199.7 Q-1.55 198.8 -1.0 208.05 L-0.1 212.05 1.95 213.7 2.75 214.15 Q11.95 215.7 11.7 205.9 L10.5 202.1 10.55 202.8 Q10.4 211.85 1.9 211.5 L9.4 203.3 8.55 202.6" fill="#bab9ba" fill-rule="evenodd" stroke="none"/>
    <path d="M260.25 4.4 L259.9 4.1 259.6 4.2 Q255.95 4.2 253.35 6.6 250.75 8.9 250.75 12.2 L251.6 16.2 253.7 17.85 255.35 18.05 Q264.0 19.25 263.5 10.05 L262.25 6.2 261.15 7.45 260.25 6.7 260.25 4.4 M251.4 12.05 L251.35 12.3 251.35 12.25 251.4 12.05 M251.6 13.7 L251.65 13.75 251.6 13.75 251.6 13.7 M232.6 50.7 L234.75 49.5 233.8 49.15 Q228.9 48.75 228.5 53.8 229.05 61.8 235.6 57.95 237.0 57.15 237.0 55.35 L236.95 52.9 236.1 50.75 234.75 49.55 232.6 50.7 M239.55 63.25 L50.1 107.35 96.45 74.3 68.75 2.1 78.65 -16.15 206.95 -31.5 Q240.8 -15.4 274.6 0.6 L239.55 63.25 M72.65 287.7 L332.65 168.55 334.5 171.6 340.15 246.05 335.0 272.2 322.75 288.65 70.6 288.65 72.65 287.7 M331.8 185.1 L332.7 182.15 331.85 180.0 330.5 178.8 328.55 179.8 330.5 178.75 329.55 178.6 Q323.25 178.6 324.9 184.95 L325.6 185.75 Q329.0 191.25 331.8 185.1" fill="#9c9c9c" fill-rule="evenodd" stroke="none"/>
    <path d="M259.6 4.2 Q254.65 6.05 251.95 10.95 251.6 11.45 251.4 12.05 L251.35 12.25 251.25 13.2 250.75 12.2 Q250.75 8.9 253.35 6.6 255.95 4.2 259.6 4.2 M228.5 53.8 Q228.9 48.75 233.8 49.15 L234.75 49.5 232.6 50.7 230.5 51.8 229.15 55.7 Q228.6 54.85 228.5 53.8 M324.9 184.95 Q323.25 178.6 329.55 178.6 L330.5 178.75 328.55 179.8 326.6 180.75 324.9 184.95 M-1.0 208.05 Q-1.55 198.8 7.45 199.7 L8.1 200.0 Q7.65 200.15 7.25 200.35 0.85 202.65 -0.5 209.1 L-1.0 208.05" fill="#e9e9eb" fill-rule="evenodd" stroke="none"/>
    <path d="M259.6 4.2 L259.9 4.1 260.25 4.4 251.65 13.75 251.6 13.7 251.35 12.3 251.4 12.05 Q251.6 11.45 251.95 10.95 254.65 6.05 259.6 4.2 M232.6 50.7 L234.75 49.55 236.1 50.75 Q236.1 53.1 234.3 54.8 232.45 56.5 229.9 56.5 L229.15 55.7 230.5 51.8 232.6 50.7 M331.85 180.0 Q331.85 182.4 330.05 184.05 328.2 185.75 325.65 185.75 L325.6 185.75 324.9 184.95 326.6 180.75 328.55 179.8 330.5 178.8 331.85 180.0 M8.1 200.0 L7.3 201.65 -0.1 209.65 -0.5 209.1 Q0.85 202.65 7.25 200.35 7.65 200.15 8.1 200.0" fill="#d0cfd0" fill-rule="evenodd" stroke="none"/>
    <path d="M262.25 6.2 L263.5 10.05 Q262.95 16.0 257.0 16.6 255.2 16.55 253.65 15.65 L253.95 15.65 Q262.75 15.65 262.25 6.2 M236.1 50.75 L236.95 52.9 Q236.2 58.9 230.6 56.85 L229.9 56.5 Q232.45 56.5 234.3 54.8 236.1 53.1 236.1 50.75 M331.85 180.0 L332.7 182.15 331.8 185.1 Q330.25 187.4 326.35 186.1 L325.65 185.75 Q328.2 185.75 330.05 184.05 331.85 182.4 331.85 180.0 M1.9 211.5 Q10.4 211.85 10.55 202.8 L10.5 202.1 11.7 205.9 Q11.2 211.9 5.25 212.45 3.4 212.4 1.9 211.5" fill="#b0aeb3" fill-rule="evenodd" stroke="none"/>
    <path d="M260.25 6.7 L261.15 7.45 253.65 15.65 253.7 17.85 251.6 16.2 260.25 6.7 M8.55 202.6 L9.4 203.3 1.9 211.5 1.95 213.7 -0.1 212.05 8.55 202.6" fill="#57565b" fill-rule="evenodd" stroke="none"/>
    <path d="M251.35 12.3 L251.6 13.7 251.6 13.75 251.6 16.2 250.75 12.2 251.25 13.2 251.35 12.25 251.35 12.3 M-0.1 212.05 L-1.0 208.05 -0.5 209.1 -0.1 209.65 -0.1 212.05" fill="#79818b" fill-rule="evenodd" stroke="none"/>
  </g>
</svg>
