<?xml version="1.0" encoding="UTF-8" standalone="no"?>
<svg xmlns:xlink="http://www.w3.org/1999/xlink" height="273.25px" width="301.15px" xmlns="http://www.w3.org/2000/svg">
  <g transform="matrix(1.0, 0.0, 0.0, 1.0, 0.0, 0.0)">
    <path d="M101.05 83.8 L69.85 15.1 70.85 13.0 120.15 0.55 176.0 0.0 228.25 13.55 229.45 15.1 196.35 84.15 232.05 96.9 Q253.5 110.05 266.9 128.35 L289.55 166.9 289.75 167.4 301.15 232.65 301.1 233.55 288.75 236.2 291.85 239.35 Q297.0 244.4 300.95 250.2 L301.05 250.35 283.25 272.35 256.65 262.5 256.2 261.7 258.7 253.1 256.6 250.4 263.2 240.4 253.2 241.7 244.15 213.45 245.35 223.7 246.1 271.75 245.5 273.05 244.6 273.25 147.15 273.25 54.8 272.7 54.05 272.5 53.35 271.6 54.75 208.15 Q53.35 211.6 51.2 221.35 49.05 231.05 46.25 238.05 L43.3 245.2 42.95 245.5 41.5 245.4 41.5 245.6 Q42.45 252.25 41.6 259.05 L38.35 260.35 39.85 261.8 33.75 271.15 26.5 271.35 1.2 255.15 5.75 241.75 0.8 241.2 0.0 239.7 2.8 198.35 2.9 197.9 21.75 151.55 22.05 151.15 69.25 96.45 98.35 86.55 101.6 84.95 101.05 83.8 M199.9 9.3 L177.7 4.05 167.85 3.45 167.45 4.25 162.2 5.6 171.2 6.05 171.8 6.95 171.25 7.9 168.35 8.0 Q189.05 13.6 203.55 29.75 207.6 34.15 205.85 39.95 L204.5 39.65 203.3 33.55 202.35 30.95 Q201.3 29.0 199.1 27.95 L199.25 28.55 198.85 29.35 197.75 29.35 Q186.4 18.4 170.75 17.35 165.55 16.65 162.05 12.75 151.75 17.25 140.8 14.5 138.0 13.65 137.7 10.55 131.95 10.2 126.3 11.45 120.25 12.7 114.9 15.9 L123.7 14.25 Q130.95 13.45 138.4 14.65 L138.65 15.2 138.2 16.05 Q127.3 15.15 116.9 18.3 104.95 21.85 94.15 28.35 L93.6 27.3 Q104.9 19.7 116.6 13.0 125.85 7.75 136.35 8.6 L143.85 8.45 144.0 9.3 139.65 11.0 Q143.45 13.3 147.95 13.25 156.85 13.2 165.0 10.05 L165.3 9.45 154.85 6.4 154.6 5.35 155.1 4.75 163.4 3.25 163.9 3.1 160.75 3.15 131.6 3.4 141.65 4.5 142.0 5.35 142.45 5.65 142.75 6.35 142.2 7.35 129.75 7.7 129.5 6.65 130.0 6.05 135.1 5.75 127.55 4.75 127.55 3.45 114.3 5.15 73.35 15.45 82.05 34.7 104.9 85.0 130.75 94.4 129.2 89.0 130.2 88.45 130.9 88.8 133.15 95.25 Q138.9 97.6 145.0 98.15 151.65 98.95 158.1 96.8 165.0 94.6 171.55 91.2 L175.0 89.6 179.55 78.05 180.45 78.65 177.5 88.55 192.65 82.35 193.6 82.9 216.85 34.5 225.75 16.0 199.9 9.3 M192.0 21.2 L189.85 19.5 Q179.15 12.95 167.05 9.75 L167.1 9.9 Q167.55 11.5 165.05 12.0 L164.25 12.15 Q167.3 14.7 171.15 15.2 182.2 16.3 192.0 21.2 M200.95 39.65 L201.65 40.0 Q203.15 43.5 200.25 45.55 L199.25 45.1 199.35 43.95 Q200.65 42.45 200.0 40.6 L200.0 40.25 200.95 39.65 M192.1 85.5 L163.25 97.95 167.75 113.45 179.25 111.6 193.95 86.55 192.1 85.5 M205.95 123.7 L205.3 125.05 150.1 164.85 148.7 270.25 243.1 270.25 242.35 223.9 240.2 207.85 232.4 162.45 218.25 111.95 219.3 110.1 221.15 111.15 235.3 161.65 242.6 204.25 Q250.9 220.65 255.0 238.7 L297.95 231.7 286.85 168.2 264.55 130.2 Q236.85 97.65 209.2 91.8 L208.0 114.6 196.85 118.55 Q200.95 120.5 204.9 122.75 205.5 123.05 205.95 123.7 M206.25 90.8 L196.85 87.6 156.4 156.6 201.5 124.05 191.5 119.0 191.3 118.6 191.8 117.25 205.45 112.7 206.25 90.8 M167.45 131.8 L177.3 114.95 165.75 116.0 163.6 109.95 158.5 117.95 167.45 131.8 M98.7 28.6 Q93.45 36.25 93.35 45.7 L92.85 45.85 91.95 45.45 Q90.9 35.4 97.55 27.8 L98.3 27.95 98.7 28.6 M119.85 79.25 L120.3 78.7 Q124.45 83.7 126.9 90.0 L125.7 90.75 119.85 79.25 M100.7 88.95 L129.75 115.9 135.75 99.35 103.45 87.65 100.7 88.95 M71.65 115.05 L72.35 114.15 73.5 114.05 74.65 115.5 59.3 171.8 57.35 204.75 57.85 205.6 56.35 269.7 145.7 270.25 147.1 164.05 147.3 163.35 148.8 162.1 100.3 129.15 99.85 128.4 99.85 128.05 Q103.85 123.75 109.15 120.8 L88.6 119.3 88.25 118.85 Q88.1 118.65 88.1 118.45 87.05 106.0 86.65 93.5 L71.2 98.7 24.5 152.85 5.8 198.85 3.1 238.45 41.6 242.4 44.75 233.6 Q46.35 229.2 47.55 224.7 52.95 203.95 55.25 182.7 L56.35 171.15 71.65 115.05 M97.6 89.8 L89.6 92.5 90.65 116.5 114.6 118.45 114.85 120.6 103.85 127.9 145.15 156.0 97.6 89.8 M144.9 117.25 L155.85 116.5 162.45 106.1 160.55 99.55 Q149.75 102.55 138.8 100.2 L136.45 106.4 144.9 117.25 M134.2 135.6 L151.3 159.35 165.75 134.7 155.95 119.5 143.45 120.1 142.8 119.3 142.8 118.25 142.4 118.95 135.2 109.7 131.15 119.35 107.05 99.15 134.2 135.6 M261.8 252.2 L259.1 260.25 282.75 269.05 297.65 250.1 286.05 237.7 266.6 240.85 259.95 249.95 261.8 252.2 M37.55 245.05 L8.9 242.1 4.2 253.65 27.7 268.55 32.3 268.35 36.35 262.6 34.6 261.15 34.3 260.95 33.25 260.1 Q32.75 259.7 32.7 259.1 32.6 258.5 32.95 258.0 L33.95 257.45 Q34.55 257.35 35.05 257.7 L35.6 258.15 39.1 256.85 38.85 246.95 37.55 245.05" fill="#1a1a1a" fill-rule="evenodd" stroke="none"/>
    <path d="M199.9 9.3 L225.75 16.0 216.85 34.5 Q215.8 27.75 211.8 22.2 206.5 14.9 199.9 9.3 M82.05 34.7 L73.35 15.45 114.3 5.15 Q98.05 12.15 85.7 25.1 81.85 29.1 82.05 34.7 M160.75 3.15 L163.9 3.1 163.4 3.25 160.75 3.15 M206.25 90.8 L205.45 112.7 191.8 117.25 191.3 118.6 191.5 119.0 201.5 124.05 156.4 156.6 196.85 87.6 206.25 90.8 M205.95 123.7 Q205.5 123.05 204.9 122.75 200.95 120.5 196.85 118.55 L208.0 114.6 209.2 91.8 Q236.85 97.65 264.55 130.2 L286.85 168.2 297.95 231.7 255.0 238.7 Q250.9 220.65 242.6 204.25 L235.3 161.65 221.15 111.15 219.3 110.1 218.25 111.95 232.4 162.45 240.2 207.85 242.35 223.9 243.1 270.25 148.7 270.25 150.1 164.85 205.3 125.05 205.95 123.7 M97.6 89.8 L145.15 156.0 103.85 127.9 114.85 120.6 114.6 118.45 90.65 116.5 89.6 92.5 97.6 89.8 M71.65 115.05 L56.35 171.15 55.25 182.7 Q52.95 203.95 47.55 224.7 46.35 229.2 44.75 233.6 L41.6 242.4 3.1 238.45 5.8 198.85 24.5 152.85 71.2 98.7 86.65 93.5 Q87.05 106.0 88.1 118.45 88.1 118.65 88.25 118.85 L88.6 119.3 109.15 120.8 Q103.85 123.75 99.85 128.05 L99.85 128.4 100.3 129.15 148.8 162.1 147.3 163.35 147.1 164.05 145.7 270.25 56.35 269.7 57.85 205.6 57.35 204.75 59.3 171.8 74.65 115.5 73.5 114.05 72.35 114.15 71.65 115.05" fill="#106557" fill-rule="evenodd" stroke="none"/>
    <path d="M192.0 21.2 Q182.2 16.3 171.15 15.2 167.3 14.7 164.25 12.15 L165.05 12.0 Q167.55 11.5 167.1 9.9 L167.05 9.75 Q179.15 12.95 189.85 19.5 L192.0 21.2 M192.1 85.5 L193.95 86.55 179.25 111.6 167.75 113.45 163.25 97.95 192.1 85.5 M167.45 131.8 L158.5 117.95 163.6 109.95 165.75 116.0 177.3 114.95 167.45 131.8 M100.7 88.95 L103.45 87.65 135.75 99.35 129.75 115.9 100.7 88.95 M143.45 120.1 L134.2 135.6 107.05 99.15 131.15 119.35 135.2 109.7 142.4 118.95 142.8 118.25 142.8 119.3 143.45 120.1 M37.55 245.05 L38.85 246.95 39.1 256.85 35.6 258.15 35.05 257.7 Q34.55 257.35 33.95 257.45 L32.95 258.0 Q32.6 258.5 32.7 259.1 32.75 259.7 33.25 260.1 L34.3 260.95 34.6 261.15 36.35 262.6 32.3 268.35 27.7 268.55 4.2 253.65 8.9 242.1 37.55 245.05 M261.8 252.2 L259.95 249.95 266.6 240.85 286.05 237.7 297.65 250.1 282.75 269.05 259.1 260.25 261.8 252.2" fill="#c1d9cb" fill-rule="evenodd" stroke="none"/>
    <path d="M101.05 83.8 L101.6 84.95 98.35 86.55 101.05 83.8" fill="#e9e9eb" fill-rule="evenodd" stroke="none"/>
    <path d="M144.9 117.25 L136.45 106.4 138.8 100.2 Q149.75 102.55 160.55 99.55 L162.45 106.1 155.85 116.5 144.9 117.25 M143.45 120.1 L155.95 119.5 165.75 134.7 151.3 159.35 134.2 135.6 143.45 120.1" fill="#0e4239" fill-rule="evenodd" stroke="none"/>
    <path d="M163.4 3.25 L155.1 4.75 154.6 5.35 154.85 6.4 165.3 9.45 165.0 10.05 Q156.85 13.2 147.95 13.25 143.45 13.3 139.65 11.0 L144.0 9.3 143.85 8.45 136.35 8.6 Q125.85 7.75 116.6 13.0 104.9 19.7 93.6 27.3 L94.15 28.35 Q104.95 21.85 116.9 18.3 127.3 15.15 138.2 16.05 L138.65 15.2 138.4 14.65 Q130.95 13.45 123.7 14.25 L114.9 15.9 Q120.25 12.7 126.3 11.45 131.95 10.2 137.7 10.55 138.0 13.65 140.8 14.5 151.75 17.25 162.05 12.75 165.55 16.65 170.75 17.35 186.4 18.4 197.75 29.35 L198.85 29.35 199.25 28.55 199.1 27.95 Q201.3 29.0 202.35 30.95 L203.3 33.55 204.5 39.65 205.85 39.95 Q207.6 34.15 203.55 29.75 189.05 13.6 168.35 8.0 L171.25 7.9 171.8 6.95 171.2 6.05 162.2 5.6 167.45 4.25 167.85 3.45 177.7 4.05 199.9 9.3 Q206.5 14.9 211.8 22.2 215.8 27.75 216.85 34.5 L193.6 82.9 192.65 82.35 177.5 88.55 180.45 78.65 179.55 78.05 175.0 89.6 171.55 91.2 Q165.0 94.6 158.1 96.8 151.65 98.95 145.0 98.15 138.9 97.6 133.15 95.25 L130.9 88.8 130.2 88.45 129.2 89.0 130.75 94.4 104.9 85.0 82.05 34.7 Q81.85 29.1 85.7 25.1 98.05 12.15 114.3 5.15 L127.55 3.45 127.55 4.75 135.1 5.75 130.0 6.05 129.5 6.65 129.75 7.7 142.2 7.35 142.75 6.35 142.45 5.65 142.0 5.35 141.65 4.5 131.6 3.4 160.75 3.15 163.4 3.25 M200.95 39.65 L200.0 40.25 200.0 40.6 Q200.65 42.45 199.35 43.95 L199.25 45.1 200.25 45.55 Q203.15 43.5 201.65 40.0 L200.95 39.65 M98.7 28.6 L98.3 27.95 97.55 27.8 Q90.9 35.4 91.95 45.45 L92.85 45.85 93.35 45.7 Q93.45 36.25 98.7 28.6 M119.85 79.25 L125.7 90.75 126.9 90.0 Q124.45 83.7 120.3 78.7 L119.85 79.25" fill="#e0ebe3" fill-rule="evenodd" stroke="none"/>
  </g>
</svg>
