<?xml version="1.0" encoding="UTF-8" standalone="no"?>
<svg xmlns:xlink="http://www.w3.org/1999/xlink" height="120.3px" width="182.75px" xmlns="http://www.w3.org/2000/svg">
  <g transform="matrix(1.0, 0.0, 0.0, 1.0, -0.1, 0.0)">
    <use height="119.8" transform="matrix(1.0, 0.0, 0.0, 1.0, 0.1, 0.0)" width="182.75" xlink:href="#shape0"/>
    <use height="38.0" transform="matrix(1.0, 0.0, 0.0, 1.0, 86.05, 32.95)" width="54.55" xlink:href="#shape1"/>
  </g>
  <defs>
    <g id="shape0" transform="matrix(1.0, 0.0, 0.0, 1.0, 0.0, 0.0)">
      <path d="M176.8 50.3 Q178.35 50.4 179.85 51.5 180.95 52.35 181.65 53.55 180.35 51.5 177.9 50.55 L176.8 50.3 M182.1 63.95 Q178.9 73.25 170.7 78.9 168.45 80.4 166.05 81.55 165.45 76.85 163.45 73.5 L163.3 73.9 Q162.3 75.9 159.95 77.45 155.7 80.25 149.35 80.0 141.9 79.75 137.65 77.65 132.9 75.2 132.8 70.65 132.75 67.6 135.0 65.2 L137.9 62.9 Q139.0 62.25 140.2 61.75 142.35 60.8 144.7 60.55 L146.6 60.4 145.95 43.1 Q149.9 45.25 150.6 49.7 151.45 55.3 150.2 60.7 156.45 61.55 161.45 65.35 167.9 60.1 172.1 52.95 173.2 50.7 175.6 50.35 L175.8 50.35 Q173.9 51.25 172.1 52.95 L174.75 52.75 Q176.25 53.3 177.35 54.85 180.15 58.8 178.05 65.0 176.3 70.15 170.85 75.95 L168.2 78.7 Q167.6 79.35 168.8 78.7 171.35 77.3 174.35 74.75 177.65 71.85 179.95 68.7 L182.1 63.95 M59.5 92.75 L59.05 95.45 58.15 98.75 Q56.9 102.15 54.45 105.0 47.45 112.95 36.6 113.8 25.55 114.25 16.7 107.65 8.1 101.35 2.5 92.1 0.1 88.1 0.0 83.5 0.3 78.85 5.9 75.85 11.15 73.0 14.85 74.05 17.95 74.95 23.1 79.9 47.65 103.7 53.55 93.35 54.9 90.95 54.95 88.15 55.0 85.7 54.05 81.95 L51.8 73.95 Q50.05 68.1 49.0 63.1 46.95 53.7 50.5 50.25 53.5 47.35 59.4 49.35 61.85 50.2 62.6 49.85 63.2 49.55 62.35 48.5 L59.85 46.45 Q58.15 45.25 56.55 44.65 L55.2 44.4 58.45 45.15 60.4 45.85 62.55 46.85 65.45 48.85 66.25 49.8 Q67.2 51.8 66.3 53.9 65.75 55.25 64.6 55.5 63.35 55.5 62.4 54.75 61.25 54.1 59.95 54.1 L57.9 54.35 Q56.45 54.8 55.25 55.95 53.55 57.45 53.0 59.75 52.35 62.25 53.5 65.1 58.2 77.65 59.25 86.3 L59.15 86.85 Q58.75 89.75 59.5 92.75 M32.7 81.45 Q35.45 83.25 38.55 84.2 42.4 85.2 44.9 82.15 45.5 81.35 45.5 80.3 45.5 76.15 43.75 72.15 46.4 77.25 46.0 81.0 45.65 83.95 47.05 85.7 47.85 86.55 49.9 87.65 50.55 88.05 50.35 88.3 L49.0 88.6 Q46.35 88.65 42.1 87.4 35.9 85.55 32.7 81.45 M134.6 65.3 Q129.7 66.25 124.4 68.0 L124.85 56.95 Q125.9 54.15 128.5 53.2 130.85 52.45 132.5 54.3 135.05 57.15 134.7 61.25 L129.35 63.8 134.75 64.0 134.6 65.3 M102.3 77.35 L93.25 82.3 92.95 81.9 91.85 80.2 Q86.95 72.15 86.3 62.8 86.55 59.9 88.3 57.85 90.15 55.6 92.8 55.3 95.55 54.9 97.85 56.95 100.45 59.2 101.65 63.8 L93.6 68.25 102.3 67.45 Q102.9 73.25 102.65 75.45 L102.3 77.35 M151.3 61.55 L146.4 61.85 Q145.1 62.35 144.65 63.35 144.45 63.7 144.4 64.15 L144.35 64.95 Q144.55 68.1 152.0 69.15 155.2 69.6 157.0 68.7 157.85 68.25 158.3 67.6 158.75 66.85 158.65 65.8 158.3 62.75 151.3 61.55 M145.3 79.1 Q149.55 79.7 153.55 79.25 157.55 78.8 159.15 77.55 153.95 78.65 146.2 77.35 137.5 75.85 133.9 72.15 134.2 74.95 137.6 76.85 140.55 78.5 145.3 79.1 M39.8 112.65 Q51.05 110.9 57.1 100.05 47.95 108.8 39.0 110.9 32.7 112.35 22.95 110.7 32.05 113.85 39.8 112.65" fill="#111111" fill-rule="evenodd" stroke="none"/>
      <path d="M176.8 50.3 L177.9 50.55 Q180.35 51.5 181.65 53.55 182.9 55.6 182.75 57.95 L182.1 63.95 179.95 68.7 Q177.65 71.85 174.35 74.75 171.35 77.3 168.8 78.7 167.6 79.35 168.2 78.7 L170.85 75.95 Q176.3 70.15 178.05 65.0 180.15 58.8 177.35 54.85 176.25 53.3 174.75 52.75 L172.1 52.95 Q173.9 51.25 175.8 50.35 L176.8 50.3 M0.0 83.5 Q0.0 79.25 2.35 75.55 4.25 72.55 7.35 70.85 11.75 68.45 16.5 69.5 19.65 70.3 22.05 72.4 L32.7 81.45 Q35.9 85.55 42.1 87.4 46.35 88.65 49.0 88.6 L50.35 88.3 Q50.55 88.05 49.9 87.65 47.85 86.55 47.05 85.7 45.65 83.95 46.0 81.0 46.4 77.25 43.75 72.15 L41.5 66.0 Q40.25 62.3 39.95 58.3 39.6 53.4 42.45 49.35 L46.1 46.0 Q49.45 44.2 53.05 44.25 L55.2 44.4 56.55 44.65 Q58.15 45.25 59.85 46.45 L62.35 48.5 Q63.2 49.55 62.6 49.85 61.85 50.2 59.4 49.35 53.5 47.35 50.5 50.25 46.95 53.7 49.0 63.1 50.05 68.1 51.8 73.95 L54.05 81.95 Q55.0 85.7 54.95 88.15 54.9 90.95 53.55 93.35 47.65 103.7 23.1 79.9 17.95 74.95 14.85 74.05 11.15 73.0 5.9 75.85 0.3 78.85 0.0 83.5 M145.3 79.1 Q140.55 78.5 137.6 76.85 134.2 74.95 133.9 72.15 137.5 75.85 146.2 77.35 153.95 78.65 159.15 77.55 157.55 78.8 153.55 79.25 149.55 79.7 145.3 79.1 M39.8 112.65 Q32.05 113.85 22.95 110.7 32.7 112.35 39.0 110.9 47.95 108.8 57.1 100.05 51.05 110.9 39.8 112.65" fill="#363636" fill-rule="evenodd" stroke="none"/>
      <path d="M166.05 81.55 L166.1 82.2 Q166.95 90.7 160.6 97.8 155.15 103.85 144.95 108.35 136.1 112.2 125.45 114.2 115.85 115.95 108.7 115.6 100.9 118.9 93.7 119.6 86.7 120.3 81.25 118.5 75.8 116.75 72.75 112.9 69.55 108.9 69.45 103.25 65.55 102.1 62.95 99.3 60.6 96.75 59.6 93.25 L59.5 92.75 Q58.75 89.75 59.15 86.85 L59.25 86.3 Q59.75 83.45 61.3 81.6 L62.45 80.3 Q63.25 79.5 64.1 78.85 67.15 76.65 71.15 76.45 L73.4 76.5 Q79.1 76.9 86.4 80.8 82.75 78.95 78.6 78.15 L69.2 77.9 Q67.5 78.35 66.0 79.1 61.9 81.5 61.0 86.25 60.4 89.35 61.25 92.55 62.15 96.1 64.85 98.75 L64.9 98.8 65.7 99.45 69.6 101.65 Q70.0 100.15 70.55 98.75 L72.25 94.85 Q70.7 100.25 71.6 105.65 72.4 110.15 75.85 113.45 79.7 117.15 85.05 117.95 95.7 119.55 105.6 115.15 L92.95 115.6 85.5 115.0 Q81.0 113.95 77.7 110.8 73.15 106.35 73.45 99.95 73.6 97.35 74.2 94.85 75.25 90.6 77.9 87.05 L75.15 86.35 77.1 85.8 Q78.4 85.75 79.55 86.55 L80.45 87.5 80.95 88.6 78.85 87.5 Q76.4 90.9 77.35 94.9 78.25 98.6 80.7 101.25 83.7 104.4 87.5 106.7 90.7 108.65 94.25 110.15 107.6 115.55 121.9 113.6 131.4 112.35 140.3 108.75 146.55 106.05 152.45 102.4 157.7 99.1 161.2 94.05 164.45 89.4 164.8 83.8 165.1 79.65 163.85 75.6 L163.3 73.9 163.45 73.5 Q165.45 76.85 166.05 81.55 M75.9 106.8 Q79.3 112.7 86.0 113.9 92.0 114.9 97.75 113.2 L90.4 110.15 89.65 109.75 Q86.15 107.95 83.4 105.85 L83.3 105.8 79.2 102.1 78.55 101.35 Q75.8 97.95 75.5 94.55 73.9 98.8 74.6 102.9 74.95 105.0 75.9 106.8" fill="#7d1d00" fill-rule="evenodd" stroke="none"/>
      <path d="M164.2 78.75 Q164.0 80.2 163.1 80.2 162.15 80.1 162.45 78.7 162.65 77.2 163.6 77.25 164.45 77.25 164.2 78.75 M163.25 86.65 Q162.95 88.15 162.1 88.1 161.2 88.1 161.45 86.6 161.65 85.05 162.6 85.1 163.5 85.1 163.25 86.65 M115.5 88.8 Q116.0 88.3 116.6 88.4 117.25 88.35 117.65 88.85 118.05 89.2 118.0 89.85 L117.45 90.9 Q117.0 91.3 116.35 91.3 115.75 91.3 115.35 90.85 114.9 90.4 115.0 89.85 115.0 89.15 115.5 88.8 M104.15 96.3 Q104.15 95.6 104.7 95.2 105.15 94.8 105.8 94.8 106.4 94.8 106.8 95.25 107.2 95.7 107.15 96.35 107.1 96.95 106.65 97.35 106.15 97.8 105.55 97.75 104.9 97.75 104.5 97.3 104.05 96.85 104.15 96.3 M105.95 86.35 Q106.45 85.85 107.05 85.9 107.7 85.85 108.1 86.35 108.5 86.75 108.45 87.4 L107.9 88.45 Q107.45 88.85 106.8 88.85 106.2 88.85 105.8 88.4 105.35 87.95 105.45 87.35 105.5 86.7 105.95 86.35 M125.7 92.15 Q125.75 91.55 126.25 91.1 126.7 90.7 127.35 90.7 127.95 90.7 128.35 91.15 128.8 91.55 128.75 92.15 L128.2 93.2 Q127.7 93.6 127.1 93.6 126.45 93.6 126.05 93.15 125.65 92.75 125.7 92.15 M124.3 82.85 Q123.6 82.85 123.25 82.45 122.8 82.0 122.9 81.4 122.9 80.8 123.45 80.35 123.85 79.95 124.55 79.95 125.15 79.95 125.55 80.4 125.95 80.85 125.9 81.45 125.85 82.05 125.4 82.5 L124.3 82.85" fill="#996400" fill-rule="evenodd" stroke="none"/>
      <path d="M164.2 78.75 Q164.45 77.25 163.6 77.25 162.65 77.2 162.45 78.7 162.15 80.1 163.1 80.2 164.0 80.2 164.2 78.75 M163.3 73.9 L163.85 75.6 Q165.1 79.65 164.8 83.8 163.85 94.05 151.1 100.3 145.55 102.95 137.1 104.9 128.25 106.95 119.4 107.5 97.7 108.6 89.55 100.3 83.8 94.45 83.2 91.25 83.0 90.4 83.2 88.9 L83.1 86.65 Q82.8 85.35 81.15 84.45 79.6 83.6 77.45 83.3 72.35 82.65 69.6 85.0 66.3 87.85 65.3 90.75 64.4 93.15 65.15 96.05 65.9 99.2 64.95 98.85 L64.85 98.75 Q62.15 96.1 61.25 92.55 60.4 89.35 61.0 86.25 61.9 81.5 66.0 79.1 67.5 78.35 69.2 77.9 L78.6 78.15 Q82.75 78.95 86.4 80.8 L91.25 83.6 93.2 82.35 93.25 82.3 102.3 77.35 114.95 71.45 Q119.85 69.45 124.4 68.0 129.7 66.25 134.6 65.3 L135.0 65.2 Q132.75 67.6 132.8 70.65 132.9 75.2 137.65 77.65 141.9 79.75 149.35 80.0 155.7 80.25 159.95 77.45 162.3 75.9 163.3 73.9 M65.7 99.45 L64.9 98.8 64.95 98.85 65.7 99.45 M163.25 86.65 Q163.5 85.1 162.6 85.1 161.65 85.05 161.45 86.6 161.2 88.1 162.1 88.1 162.95 88.15 163.25 86.65 M105.95 86.35 Q105.5 86.7 105.45 87.35 105.35 87.95 105.8 88.4 106.2 88.85 106.8 88.85 107.45 88.85 107.9 88.45 L108.45 87.4 Q108.5 86.75 108.1 86.35 107.7 85.85 107.05 85.9 106.45 85.85 105.95 86.35 M104.15 96.3 Q104.05 96.85 104.5 97.3 104.9 97.75 105.55 97.75 106.15 97.8 106.65 97.35 107.1 96.95 107.15 96.35 107.2 95.7 106.8 95.25 106.4 94.8 105.8 94.8 105.15 94.8 104.7 95.2 104.15 95.6 104.15 96.3 M115.5 88.8 Q115.0 89.15 115.0 89.85 114.9 90.4 115.35 90.85 115.75 91.3 116.35 91.3 117.0 91.3 117.45 90.9 L118.0 89.85 Q118.05 89.2 117.65 88.85 117.25 88.35 116.6 88.4 116.0 88.3 115.5 88.8 M124.3 82.85 L125.4 82.5 Q125.85 82.05 125.9 81.45 125.95 80.85 125.55 80.4 125.15 79.95 124.55 79.95 123.85 79.95 123.45 80.35 122.9 80.8 122.9 81.4 122.8 82.0 123.25 82.45 123.6 82.85 124.3 82.85 M125.7 92.15 Q125.65 92.75 126.05 93.15 126.45 93.6 127.1 93.6 127.7 93.6 128.2 93.2 L128.75 92.15 Q128.8 91.55 128.35 91.15 127.95 90.7 127.35 90.7 126.7 90.7 126.25 91.1 125.75 91.55 125.7 92.15" fill="#ffed6c" fill-rule="evenodd" stroke="none"/>
      <path d="M124.4 68.0 Q119.85 69.45 114.95 71.45 115.85 66.45 115.35 60.15 114.75 52.65 112.35 45.35 110.7 40.35 106.2 37.85 101.85 35.35 97.3 36.65 92.2 38.05 89.2 43.5 86.45 48.65 86.1 56.1 85.95 59.45 86.3 62.8 86.95 72.15 91.85 80.2 L92.95 81.9 93.2 82.35 91.25 83.6 86.4 80.8 Q79.1 76.9 73.4 76.5 L71.15 76.45 Q63.5 64.95 62.4 54.75 63.35 55.5 64.6 55.5 65.75 55.25 66.3 53.9 67.2 51.8 66.25 49.8 L65.45 48.85 62.55 46.85 Q63.3 42.0 65.7 37.55 69.55 30.25 77.45 24.55 84.25 19.65 92.9 16.65 89.4 17.0 87.0 15.85 84.8 14.75 84.05 12.7 83.2 10.7 84.05 8.35 84.9 5.85 87.2 3.8 L86.0 4.55 Q89.0 2.45 92.9 2.1 98.0 1.6 103.3 4.1 108.55 6.55 112.35 11.2 109.4 11.65 110.05 11.9 L113.35 12.5 Q123.95 13.25 130.3 16.75 137.0 20.45 140.4 27.95 143.75 35.4 144.55 48.05 144.85 53.5 144.7 60.55 142.35 60.8 140.2 61.75 140.25 58.15 139.95 54.7 138.85 41.9 132.55 40.15 126.5 38.5 125.05 54.6 L124.85 56.95 124.4 68.0 M134.55 27.1 L130.65 26.9 Q128.8 27.6 127.8 29.6 131.65 26.55 134.7 29.0 138.05 31.6 139.85 40.6 139.35 29.6 134.55 27.1 M95.45 21.55 Q92.35 21.85 90.0 24.7 87.25 27.95 86.0 34.2 89.9 25.0 94.95 23.6 99.45 22.35 104.25 27.55 103.2 24.8 100.75 23.1 98.2 21.3 95.45 21.55" fill="#6fb9d7" fill-rule="evenodd" stroke="none"/>
      <path d="M134.55 27.1 Q139.35 29.6 139.85 40.6 138.05 31.6 134.7 29.0 131.65 26.55 127.8 29.6 128.8 27.6 130.65 26.9 L134.55 27.1 M95.45 21.55 Q98.2 21.3 100.75 23.1 103.2 24.8 104.25 27.55 99.45 22.35 94.95 23.6 89.9 25.0 86.0 34.2 87.25 27.95 90.0 24.7 92.35 21.85 95.45 21.55" fill="#0c1748" fill-rule="evenodd" stroke="none"/>
      <path d="M58.45 45.15 Q59.45 38.7 62.3 33.5 66.6 25.5 75.6 19.75 77.35 10.6 82.2 5.45 86.5 0.75 92.7 0.1 98.45 -0.55 104.35 2.4 110.25 5.45 114.45 11.25 125.45 12.0 131.85 15.45 138.55 19.0 142.0 26.45 144.85 32.75 145.95 43.1 L146.6 60.4 144.7 60.55 Q144.85 53.5 144.55 48.05 143.75 35.4 140.4 27.95 137.0 20.45 130.3 16.75 123.95 13.25 113.35 12.5 L110.05 11.9 Q109.4 11.65 112.35 11.2 108.55 6.55 103.3 4.1 98.0 1.6 92.9 2.1 89.0 2.45 86.0 4.55 80.55 9.75 77.85 18.65 L80.5 18.6 76.9 21.5 Q68.7 28.05 63.45 37.0 61.0 41.15 60.4 45.85 L58.45 45.15 M57.9 54.35 L59.95 54.1 60.95 63.95 Q61.9 71.6 64.1 78.85 63.25 79.5 62.45 80.3 L60.65 73.05 Q58.15 62.5 57.9 54.35" fill="#0d1e74" fill-rule="evenodd" stroke="none"/>
      <path d="M86.0 4.55 L87.2 3.8 Q84.9 5.85 84.05 8.35 83.2 10.7 84.05 12.7 84.8 14.75 87.0 15.85 89.4 17.0 92.9 16.65 84.25 19.65 77.45 24.55 69.55 30.25 65.7 37.55 63.3 42.0 62.55 46.85 L60.4 45.85 Q61.0 41.15 63.45 37.0 68.7 28.05 76.9 21.5 L80.5 18.6 77.85 18.65 Q80.55 9.75 86.0 4.55 M62.4 54.75 Q63.5 64.95 71.15 76.45 67.15 76.65 64.1 78.85 61.9 71.6 60.95 63.95 L59.95 54.1 Q61.25 54.1 62.4 54.75" fill="#3c84bb" fill-rule="evenodd" stroke="none"/>
      <path d="M135.0 65.2 L134.6 65.3 134.75 64.0 129.35 63.8 134.7 61.25 Q135.05 57.15 132.5 54.3 130.85 52.45 128.5 53.2 125.9 54.15 124.85 56.95 L125.05 54.6 Q126.5 38.5 132.55 40.15 138.85 41.9 139.95 54.7 140.25 58.15 140.2 61.75 139.0 62.25 137.9 62.9 L135.0 65.2 M114.95 71.45 L102.3 77.35 102.65 75.45 Q102.9 73.25 102.3 67.45 L93.6 68.25 101.65 63.8 Q100.45 59.2 97.85 56.95 95.55 54.9 92.8 55.3 90.15 55.6 88.3 57.85 86.55 59.9 86.3 62.8 85.95 59.45 86.1 56.1 86.45 48.65 89.2 43.5 92.2 38.05 97.3 36.65 101.85 35.35 106.2 37.85 110.7 40.35 112.35 45.35 114.75 52.65 115.35 60.15 115.85 66.45 114.95 71.45 M93.25 82.3 L93.2 82.35 92.95 81.9 93.25 82.3 M147.25 62.0 L151.55 61.75 Q157.8 62.9 158.05 65.5 158.2 66.5 157.65 67.2 L156.65 67.95 152.25 68.3 Q145.65 67.4 145.45 64.65 L145.45 64.15 Q145.55 63.0 146.6 62.35 L147.25 62.0 M75.9 106.8 L79.2 102.1 83.3 105.8 79.5 111.0 80.35 111.6 84.05 106.4 83.4 105.85 Q86.15 107.95 89.65 109.75 L86.8 114.0 88.0 114.15 90.4 110.15 97.75 113.2 Q92.0 114.9 86.0 113.9 79.3 112.7 75.9 106.8 74.95 105.0 74.6 102.9 73.9 98.8 75.5 94.55 75.8 97.95 78.55 101.35 L75.4 105.7 75.9 106.8" fill="#ffffff" fill-rule="evenodd" stroke="none"/>
      <path d="M64.85 98.75 L64.95 98.85 Q65.9 99.2 65.15 96.05 64.4 93.15 65.3 90.75 66.3 87.85 69.6 85.0 72.35 82.65 77.45 83.3 79.6 83.6 81.15 84.45 82.8 85.35 83.1 86.65 L83.2 88.9 Q83.0 90.4 83.2 91.25 83.8 94.45 89.55 100.3 97.7 108.6 119.4 107.5 128.25 106.95 137.1 104.9 145.55 102.95 151.1 100.3 163.85 94.05 164.8 83.8 164.45 89.4 161.2 94.05 157.7 99.1 152.45 102.4 146.55 106.05 140.3 108.75 131.4 112.35 121.9 113.6 107.6 115.55 94.25 110.15 90.7 108.65 87.5 106.7 83.7 104.4 80.7 101.25 78.25 98.6 77.35 94.9 76.4 90.9 78.85 87.5 L80.95 88.6 80.45 87.5 79.55 86.55 Q78.4 85.75 77.1 85.8 L75.15 86.35 77.9 87.05 Q75.25 90.6 74.2 94.85 73.6 97.35 73.45 99.95 73.15 106.35 77.7 110.8 81.0 113.95 85.5 115.0 L92.95 115.6 105.6 115.15 Q95.7 119.55 85.05 117.95 79.7 117.15 75.85 113.45 72.4 110.15 71.6 105.65 70.7 100.25 72.25 94.85 L70.55 98.75 Q70.0 100.15 69.6 101.65 L65.7 99.45 64.95 98.85 64.9 98.8 64.85 98.75" fill="#edb211" fill-rule="evenodd" stroke="none"/>
      <path d="M151.3 61.55 Q158.3 62.75 158.65 65.8 158.75 66.85 158.3 67.6 157.85 68.25 157.0 68.7 155.2 69.6 152.0 69.15 144.55 68.1 144.35 64.95 L144.4 64.15 Q144.45 63.7 144.65 63.35 145.1 62.35 146.4 61.85 L151.3 61.55 M147.25 62.0 L146.6 62.35 Q145.55 63.0 145.45 64.15 L145.45 64.65 Q145.65 67.4 152.25 68.3 L156.65 67.95 157.65 67.2 Q158.2 66.5 158.05 65.5 157.8 62.9 151.55 61.75 L147.25 62.0" fill="#7d7d7d" fill-rule="evenodd" stroke="none"/>
      <path d="M79.2 102.1 L75.9 106.8 75.4 105.7 78.55 101.35 79.2 102.1 M90.4 110.15 L88.0 114.15 86.8 114.0 89.65 109.75 90.4 110.15 M83.4 105.85 L84.05 106.4 80.35 111.6 79.5 111.0 83.3 105.8 83.4 105.85" fill="#616066" fill-rule="evenodd" stroke="none"/>
    </g>
    <g id="shape1" transform="matrix(1.0, 0.0, 0.0, 1.0, 0.0, 0.0)">
      <path d="M38.7 25.15 L38.65 25.1 Q39.75 11.75 41.85 8.65 43.95 5.5 46.15 6.1 52.5 7.85 54.35 21.95 L54.3 22.45 53.0 21.5 50.95 20.75 49.1 20.3 44.7 20.75 Q40.8 21.25 39.75 23.2 L38.7 25.15 M2.2 37.55 Q1.35 36.65 1.1 34.65 L0.7 31.35 Q0.0 27.4 0.0 20.8 0.0 13.05 1.65 8.65 4.15 2.15 10.65 0.15 L14.2 0.0 Q16.4 0.25 18.55 1.25 23.75 3.8 25.2 9.2 28.05 17.2 28.85 23.15 L28.9 23.8 Q26.85 22.2 23.7 22.65 20.45 23.05 18.1 23.7 15.7 24.35 9.95 26.8 4.2 29.25 3.3 32.65 2.35 36.0 2.2 37.55" fill="#2870a4" fill-rule="evenodd" stroke="none"/>
      <path d="M54.3 22.45 L54.55 22.75 54.55 23.0 54.3 22.95 52.95 22.7 50.85 22.65 46.8 22.85 42.0 23.5 Q39.75 23.95 38.45 25.85 L38.7 25.2 38.7 25.15 39.75 23.2 Q40.8 21.25 44.7 20.75 L49.1 20.3 50.95 20.75 53.0 21.5 54.3 22.45 M28.9 23.8 L29.05 23.9 29.15 24.35 28.9 24.35 Q25.65 24.35 22.45 25.6 L15.45 28.1 Q11.0 29.75 7.3 31.75 3.75 33.7 2.3 37.6 L2.15 38.0 2.2 37.55 Q2.35 36.0 3.3 32.65 4.2 29.25 9.95 26.8 15.7 24.35 18.1 23.7 20.45 23.05 23.7 22.65 26.85 22.2 28.9 23.8" fill="#0c1748" fill-rule="evenodd" stroke="none"/>
    </g>
  </defs>
</svg>
