<?xml version="1.0" encoding="UTF-8" standalone="no"?>
<svg xmlns:xlink="http://www.w3.org/1999/xlink" height="229.7px" width="207.7px" xmlns="http://www.w3.org/2000/svg">
  <g transform="matrix(1.0, 0.0, 0.0, 1.0, 0.0, 0.0)">
    <use height="229.7" transform="matrix(1.0, 0.0, 0.0, 1.0, 0.0, 0.0)" width="207.7" xlink:href="#shape0"/>
  </g>
  <defs>
    <g id="shape0" transform="matrix(1.0, 0.0, 0.0, 1.0, 0.0, 0.0)">
      <path d="M158.9 84.55 L151.35 88.7 138.1 80.35 128.65 85.25 121.75 81.15 118.3 92.85 130.7 94.2 141.6 101.95 156.15 97.65 173.35 100.4 156.15 101.1 141.0 103.85 129.3 98.35 116.25 97.65 108.7 96.25 102.5 114.85 102.5 91.45 114.9 90.75 114.9 74.95 121.05 70.15 122.45 51.55 139.65 35.75 125.9 52.95 124.5 63.95 136.0 64.3 141.0 55.0 148.55 53.65 141.7 59.15 136.9 66.0 127.25 68.05 124.5 73.55 121.75 76.3 130.45 83.15 137.55 78.4 150.65 84.55 158.9 84.55" fill="#ffffff" fill-rule="evenodd" stroke="none"/>
      <path d="M83.25 69.5 L80.5 53.0 66.05 45.4 60.55 30.3 54.35 24.1 61.9 26.15 68.4 42.75 83.9 50.9 86.0 66.05 97.65 76.35 88.05 88.05 96.95 103.2 92.85 104.55 81.85 88.05 92.85 75.65 83.25 69.5" fill="#ffffff" fill-rule="evenodd" stroke="none"/>
      <path d="M84.1 119.75 L80.75 121.95 66.7 107.3 50.2 117.6 39.9 110.05 28.2 115.55 12.4 94.95 30.95 112.15 39.2 103.2 48.8 113.5 67.4 100.45 84.1 119.75" fill="#ffffff" fill-rule="evenodd" stroke="none"/>
      <path d="M54.35 114.85 L58.45 110.05 57.75 118.3 50.9 135.5 38.4 132.65 30.95 143.75 17.9 144.45 0.0 141.7 26.15 141.7 38.5 130.7 48.85 130.7 54.35 114.85" fill="#ffffff" fill-rule="evenodd" stroke="none"/>
      <path d="M85.25 138.9 L83.9 143.7 70.15 154.7 70.15 176.05 54.35 177.4 47.45 200.1 16.5 213.15 43.3 198.05 50.9 173.3 67.4 171.9 66.7 152.65 85.25 138.9" fill="#ffffff" fill-rule="evenodd" stroke="none"/>
      <path d="M107.3 156.15 L114.2 152.0 131.35 167.8 124.5 185.7 137.55 191.9 136.0 214.9 156.15 229.7 133.45 218.0 131.35 196.7 118.3 185.0 125.2 171.25 107.3 156.15" fill="#ffffff" fill-rule="evenodd" stroke="none"/>
      <path d="M175.0 119.4 L160.95 133.4 152.0 119.4 123.8 132.7 121.75 127.2 152.7 114.8 162.35 127.9 174.7 116.9 185.7 122.35 200.85 112.75 188.45 126.5 175.0 119.4" fill="#ffffff" fill-rule="evenodd" stroke="none"/>
      <path d="M158.2 126.45 L152.7 144.4 165.75 153.35 165.75 169.85 181.55 169.85 162.3 173.95 163.15 154.9 145.8 142.35 154.75 121.65 158.2 126.45" fill="#ffffff" fill-rule="evenodd" stroke="none"/>
      <path d="M130.7 191.85 L135.5 195.3 120.35 198.7 116.9 218.65 101.1 226.9 112.8 215.9 114.85 198.05 130.7 191.85" fill="#ffffff" fill-rule="evenodd" stroke="none"/>
      <path d="M68.1 174.7 L77.05 182.95 74.3 195.35 93.55 218.0 69.45 194.65 74.3 182.95 62.6 175.4 68.1 174.7" fill="#ffffff" fill-rule="evenodd" stroke="none"/>
      <path d="M68.1 159.55 L69.5 164.35 57.1 156.1 41.3 167.1 22.4 161.9 6.9 175.35 22.05 158.85 44.05 162.95 57.1 153.35 68.1 159.55" fill="#ffffff" fill-rule="evenodd" stroke="none"/>
      <path d="M169.15 171.25 L167.1 182.95 180.2 189.8 178.85 208.4 191.2 221.45 174.7 209.75 178.15 192.6 163.7 182.25 167.85 171.25 169.15 171.25" fill="#ffffff" fill-rule="evenodd" stroke="none"/>
      <path d="M180.2 189.8 L178.15 190.45 174.7 189.1 188.45 184.3 202.9 177.4 191.2 187.7 180.2 189.8" fill="#ffffff" fill-rule="evenodd" stroke="none"/>
      <path d="M121.05 165.05 L123.8 166.45 110.75 174.7 112.8 187.05 92.85 199.45 106.6 187.05 105.9 171.95 121.05 165.05" fill="#ffffff" fill-rule="evenodd" stroke="none"/>
      <path d="M127.25 175.35 L141.0 172.6 145.1 182.9 163.7 182.25 143.75 186.35 139.6 176.75 123.8 177.4 127.25 175.35" fill="#ffffff" fill-rule="evenodd" stroke="none"/>
      <path d="M164.55 127.75 L169.15 143.75 183.6 145.8 187.05 154.7 207.7 154.7 185.0 158.85 181.25 147.25 165.75 144.4 162.45 130.55 164.55 127.75" fill="#ffffff" fill-rule="evenodd" stroke="none"/>
      <path d="M41.3 110.05 L46.85 99.7 37.9 89.4 49.55 96.95 45.4 110.7 41.3 110.05" fill="#ffffff" fill-rule="evenodd" stroke="none"/>
      <path d="M69.5 172.6 L83.25 169.2 83.9 158.2 87.35 156.8 87.35 171.25 68.1 174.7 69.5 172.6" fill="#ffffff" fill-rule="evenodd" stroke="none"/>
      <path d="M104.55 39.9 L85.3 61.2 84.6 55.0 101.15 38.55 99.75 0.0 104.55 39.9" fill="#ffffff" fill-rule="evenodd" stroke="none"/>
      <path d="M132.0 108.0 Q136.9 118.65 146.3 119.2 155.7 119.75 160.75 118.4 L148.35 127.45 Q141.9 131.85 138.7 139.1 136.4 145.7 139.75 149.95 143.05 154.15 148.15 158.0 144.2 155.15 137.35 155.85 130.45 156.55 126.5 159.55 122.35 163.3 122.4 168.05 L122.4 177.9 Q112.4 168.7 103.2 172.35 94.05 176.0 92.1 188.95 89.8 176.45 82.2 170.2 74.6 164.0 62.6 171.7 63.6 167.75 66.1 162.05 68.6 156.35 66.65 152.7 62.8 148.75 53.7 148.7 L39.3 149.25 Q46.55 148.2 53.25 142.7 59.9 137.25 60.45 130.0 60.0 123.5 54.25 119.35 48.5 115.2 43.1 112.35 L56.25 111.75 Q64.9 111.1 69.4 105.25 72.85 97.65 71.0 87.95 69.2 78.25 68.65 77.35 L77.95 87.9 Q83.2 94.0 89.35 93.55 97.2 91.5 98.75 83.3 100.3 75.1 101.05 67.6 102.15 73.8 105.3 82.3 108.4 90.8 114.1 92.85 120.7 94.0 129.05 91.2 137.35 88.45 141.65 84.6 141.0 88.15 136.15 95.8 131.35 103.4 132.0 108.0" fill="#fff200" fill-rule="evenodd" stroke="none"/>
    </g>
  </defs>
</svg>
