<?xml version="1.0" encoding="UTF-8" standalone="no"?>
<svg xmlns:xlink="http://www.w3.org/1999/xlink" height="349.75px" width="135.2px" xmlns="http://www.w3.org/2000/svg">
  <g transform="matrix(1.0, 0.0, 0.0, 1.0, 0.0, 0.0)">
    <use height="97.55" transform="matrix(1.0, 0.0, 0.0, 1.0, 0.0, 183.5)" width="51.7" xlink:href="#shape0"/>
    <use height="166.25" transform="matrix(1.0, 0.0, 0.0, 1.0, 10.45, 183.5)" width="77.05" xlink:href="#shape1"/>
    <use height="91.85" transform="matrix(1.0, 0.0, 0.0, 1.0, 4.65, 106.95)" width="98.0" xlink:href="#shape2"/>
    <use height="90.8" transform="matrix(1.0, 0.1053, 0.0, 1.0, 67.4, 154.3)" width="66.45" xlink:href="#shape3"/>
  </g>
  <defs>
    <g id="shape0" transform="matrix(1.0, 0.0, 0.0, 1.0, 0.0, 0.0)">
      <path d="M47.55 13.6 L47.5 13.6 45.2 15.4 43.6 16.65 39.95 19.6 37.0 21.45 27.4 5.55 27.6 5.4 27.85 5.2 35.15 3.15 41.8 1.15 Q46.7 0.0 48.75 1.5 L49.2 1.85 51.1 5.3 Q51.0 7.9 50.2 10.25 L49.25 12.1 Q48.65 13.05 47.55 13.6 M34.65 22.65 Q32.2 23.75 29.45 24.55 28.25 23.6 26.7 21.25 L25.4 19.2 24.9 18.35 23.65 16.15 21.6 12.15 21.05 11.05 21.0 10.95 19.7 7.9 Q19.45 7.05 19.9 6.5 20.3 5.95 21.0 6.05 L23.75 5.95 24.15 5.9 23.15 6.05 24.55 8.95 25.2 10.2 25.75 11.3 28.45 16.1 29.0 16.95 29.3 17.45 33.25 23.2 34.65 22.65" fill="#ffbd20" fill-rule="evenodd" stroke="none"/>
      <path d="M47.55 13.6 L46.0 15.35 43.9 17.4 40.95 19.75 Q36.1 23.3 29.1 25.55 27.85 24.6 26.3 22.15 L24.75 19.6 23.2 20.5 17.9 23.75 13.1 26.75 10.3 28.5 11.15 30.15 13.3 34.15 15.9 39.05 17.8 42.55 Q19.15 41.95 20.5 41.9 22.55 41.85 24.25 43.9 L24.55 44.3 27.1 44.1 29.3 44.25 Q35.2 38.35 38.8 36.75 42.4 35.15 44.7 37.2 L47.6 39.45 50.65 41.7 Q52.0 42.85 51.65 44.7 51.35 46.5 49.7 48.05 48.1 49.6 45.65 49.9 L42.2 49.6 40.15 48.75 39.45 48.25 38.5 50.05 35.9 54.3 Q34.15 56.75 31.75 59.1 29.35 61.4 26.4 62.65 27.25 64.85 26.9 66.85 26.55 68.9 25.4 70.9 L22.9 75.0 21.4 77.7 20.75 79.0 Q23.65 80.05 24.8 82.1 25.95 84.2 25.3 86.75 L24.65 88.4 25.0 90.7 Q25.15 92.65 24.55 94.35 23.95 96.1 22.3 97.15 L19.6 97.2 Q18.25 96.5 17.5 94.45 L16.4 91.95 14.9 89.15 14.4 88.2 12.15 87.8 Q10.85 87.5 9.95 85.9 9.1 84.3 9.3 81.95 9.5 79.6 11.5 77.1 10.3 74.3 9.45 71.45 8.55 68.55 8.6 65.45 8.65 62.9 9.7 60.05 8.0 58.3 7.95 56.1 7.9 53.8 9.05 51.45 L10.2 49.55 7.85 45.2 4.8 39.3 2.0 33.8 0.45 30.35 Q-0.5 27.95 0.6 25.5 1.7 23.0 5.6 20.35 L9.75 17.7 15.1 14.45 20.4 11.3 19.1 8.5 Q18.85 7.85 18.85 7.0 18.85 6.1 19.3 5.55 19.7 4.95 20.75 5.25 L22.6 5.25 24.8 5.0 27.9 4.35 34.9 2.45 41.2 0.55 48.75 0.8 50.0 1.85 Q51.15 3.2 51.1 5.3 L49.2 1.85 48.75 1.5 Q46.7 0.0 41.8 1.15 L35.15 3.15 27.85 5.2 26.35 5.55 25.1 5.75 24.95 5.8 24.15 5.9 23.75 5.95 21.0 6.05 Q20.3 5.95 19.9 6.5 19.45 7.05 19.7 7.9 L21.0 10.95 21.05 11.05 21.6 12.15 23.65 16.15 24.9 18.35 25.4 19.2 26.7 21.25 Q28.25 23.6 29.45 24.55 32.2 23.75 34.65 22.65 L35.2 22.4 37.0 21.45 39.95 19.6 43.6 16.65 45.2 15.4 47.5 13.6 47.55 13.6 M11.95 86.35 Q12.5 86.8 13.2 86.95 L16.65 87.6 Q18.25 87.85 19.85 88.45 21.9 89.3 23.05 88.95 24.25 88.65 24.85 86.5 25.25 85.0 24.95 83.55 24.65 82.1 23.5 81.05 22.35 80.05 20.3 79.9 18.85 82.3 16.5 83.45 18.15 82.1 19.3 80.3 L21.35 76.75 22.75 74.05 24.8 70.25 Q25.75 68.3 25.95 66.2 26.15 64.15 25.15 61.9 24.7 60.85 24.95 60.85 25.15 60.85 25.6 61.15 L26.25 61.4 Q28.75 60.8 30.95 58.85 33.15 56.85 34.9 54.25 L37.9 49.2 39.85 45.05 40.55 43.35 40.35 44.6 39.7 47.35 42.4 48.5 46.45 49.0 Q48.35 48.85 49.6 47.55 50.85 46.25 51.1 44.7 L51.15 44.35 Q51.25 43.0 50.3 42.15 L47.6 40.15 44.9 38.3 Q44.1 37.6 42.85 37.2 L39.75 37.3 Q37.95 37.8 35.4 39.75 32.85 41.7 29.45 45.7 L28.0 45.25 25.2 45.35 Q26.0 46.85 26.25 48.55 L26.3 50.5 25.65 53.75 Q24.75 56.35 22.75 58.7 L21.65 59.75 Q20.2 61.0 18.45 61.6 16.05 62.4 13.75 62.1 11.9 61.8 10.55 60.8 9.55 63.45 9.55 65.8 9.55 68.8 10.45 71.5 11.3 74.25 12.5 77.05 L10.55 81.0 10.4 81.6 Q10.1 83.55 10.7 84.85 11.2 85.85 11.95 86.35 M23.2 16.85 L20.95 12.45 Q20.4 12.7 19.85 13.05 L17.75 14.2 11.5 17.7 6.35 20.9 Q2.5 23.5 1.4 25.65 0.35 27.75 1.3 30.1 L1.6 30.85 2.85 33.5 5.6 38.8 8.6 44.5 11.05 49.1 12.05 50.95 Q12.65 51.8 13.95 51.95 15.25 52.1 16.6 51.5 17.9 50.9 18.6 49.5 19.35 48.15 18.8 45.95 L17.35 43.35 14.95 38.9 12.3 33.95 10.15 29.95 9.25 28.3 12.15 26.45 17.15 23.25 22.7 19.7 23.9 18.95 24.25 18.75 23.2 16.85 M25.15 47.15 L23.7 44.75 23.6 44.65 23.5 44.55 Q22.1 43.15 20.45 43.15 L20.3 43.15 20.25 43.15 18.4 43.65 19.7 46.05 Q20.15 48.5 19.2 50.05 18.25 51.6 16.65 52.3 15.0 52.95 13.5 52.85 12.0 52.75 11.35 51.85 L10.65 50.5 9.9 51.75 Q8.8 53.8 8.85 55.8 8.9 57.8 10.45 59.5 L10.95 60.0 11.0 60.05 Q12.55 61.45 14.3 61.65 16.4 61.85 18.4 60.85 20.4 59.85 22.1 57.95 24.0 55.85 24.9 53.5 25.8 51.15 25.55 48.85 L25.15 47.15 M15.85 89.25 L17.1 91.65 18.05 93.75 Q18.7 95.45 19.8 96.05 L21.85 96.15 Q23.5 95.05 23.7 93.05 23.85 91.3 23.5 89.6 L23.35 89.65 Q22.0 90.3 19.4 89.15 17.8 88.5 15.9 88.35 L15.35 88.3 15.85 89.25" fill="#000000" fill-rule="evenodd" stroke="none"/>
      <path d="M11.95 86.35 Q11.2 85.85 10.7 84.85 10.1 83.55 10.4 81.6 L10.55 81.0 12.5 77.05 Q11.3 74.25 10.45 71.5 9.55 68.8 9.55 65.8 9.55 63.45 10.55 60.8 11.9 61.8 13.75 62.1 16.05 62.4 18.45 61.6 20.2 61.0 21.65 59.75 20.0 61.7 17.8 63.1 14.8 64.95 13.7 67.1 12.6 69.2 12.7 71.4 12.8 73.6 13.45 75.7 L14.7 79.6 Q13.05 81.3 12.3 83.2 11.6 85.05 12.45 86.65 L11.95 86.35 M26.3 50.5 L26.25 48.55 Q26.0 46.85 25.2 45.35 L28.0 45.25 29.45 45.7 Q32.85 41.7 35.4 39.75 37.95 37.8 39.75 37.3 L42.85 37.2 Q44.1 37.6 44.9 38.3 L47.6 40.15 50.3 42.15 Q51.25 43.0 51.15 44.35 50.6 43.0 49.35 42.25 48.1 41.55 46.45 40.95 44.8 40.35 43.05 39.45 41.25 38.5 39.2 39.65 37.15 40.75 35.0 42.95 L30.6 47.55 Q29.65 47.6 28.55 48.25 27.45 48.9 26.65 50.0 L26.3 50.5 M10.95 60.0 L10.45 59.5 Q8.9 57.8 8.85 55.8 8.8 53.8 9.9 51.75 L10.65 50.5 11.35 51.85 Q12.0 52.75 13.5 52.85 15.0 52.95 16.65 52.3 18.25 51.6 19.2 50.05 20.15 48.5 19.7 46.05 L18.4 43.65 20.25 43.15 20.3 43.15 20.45 43.15 Q22.1 43.15 23.5 44.55 L23.6 44.65 23.7 44.75 25.15 47.15 Q25.25 47.5 24.8 47.25 24.35 46.95 23.6 46.7 22.9 46.5 22.1 47.0 21.35 47.5 20.75 49.4 20.35 50.7 19.15 52.3 18.0 53.9 16.5 54.8 15.5 55.3 14.45 55.25 L12.45 55.45 Q11.5 55.65 10.9 56.9 10.4 58.15 10.55 58.95 10.7 59.65 10.95 60.0" fill="#c2d6d4" fill-rule="evenodd" stroke="none"/>
      <path d="M51.15 44.35 L51.1 44.7 Q50.85 46.25 49.6 47.55 48.35 48.85 46.45 49.0 L42.4 48.5 39.7 47.35 40.35 44.6 40.55 43.35 39.85 45.05 37.9 49.2 34.9 54.25 Q33.15 56.85 30.95 58.85 28.75 60.8 26.25 61.4 L25.6 61.15 Q25.15 60.85 24.95 60.85 24.7 60.85 25.15 61.9 26.15 64.15 25.95 66.2 25.75 68.3 24.8 70.25 L22.75 74.05 21.35 76.75 19.3 80.3 Q18.15 82.1 16.5 83.45 18.85 82.3 20.3 79.9 22.35 80.05 23.5 81.05 24.65 82.1 24.95 83.55 25.25 85.0 24.85 86.5 24.25 88.65 23.05 88.95 21.9 89.3 19.85 88.45 18.25 87.85 16.65 87.6 L13.2 86.95 Q12.5 86.8 11.95 86.35 L12.45 86.65 Q11.6 85.05 12.3 83.2 13.05 81.3 14.7 79.6 L13.45 75.7 Q12.8 73.6 12.7 71.4 12.6 69.2 13.7 67.1 14.8 64.95 17.8 63.1 20.0 61.7 21.65 59.75 L22.75 58.7 Q24.75 56.35 25.65 53.75 L26.3 50.5 26.65 50.0 Q27.45 48.9 28.55 48.25 29.65 47.6 30.6 47.55 L35.0 42.95 Q37.15 40.75 39.2 39.65 41.25 38.5 43.05 39.45 44.8 40.35 46.45 40.95 48.1 41.55 49.35 42.25 50.6 43.0 51.15 44.35 M10.95 60.0 Q10.7 59.65 10.55 58.95 10.4 58.15 10.9 56.9 11.5 55.65 12.45 55.45 L14.45 55.25 Q15.5 55.3 16.5 54.8 18.0 53.9 19.15 52.3 20.35 50.7 20.75 49.4 21.35 47.5 22.1 47.0 22.9 46.5 23.6 46.7 24.35 46.95 24.8 47.25 25.25 47.5 25.15 47.15 L25.55 48.85 Q25.8 51.15 24.9 53.5 24.0 55.85 22.1 57.95 20.4 59.85 18.4 60.85 16.4 61.85 14.3 61.65 12.55 61.45 11.0 60.05 L10.95 60.0 M15.85 89.25 L15.35 88.3 15.9 88.35 Q17.8 88.5 19.4 89.15 22.0 90.3 23.35 89.65 L23.5 89.6 Q23.85 91.3 23.7 93.05 23.5 95.05 21.85 96.15 L19.8 96.05 Q18.7 95.45 18.05 93.75 L17.1 91.65 15.85 89.25" fill="#ffffff" fill-rule="evenodd" stroke="none"/>
      <path d="M37.0 21.45 L35.2 22.4 34.65 22.65 33.25 23.2 29.3 17.45 29.0 16.95 28.45 16.1 25.75 11.3 25.2 10.2 24.55 8.95 23.15 6.05 24.15 5.9 24.95 5.8 25.1 5.75 26.35 5.55 27.85 5.2 27.6 5.4 27.4 5.55 37.0 21.45" fill="#e31e00" fill-rule="evenodd" stroke="none"/>
      <path d="M23.2 16.85 L24.25 18.75 23.9 18.95 22.7 19.7 17.15 23.25 12.15 26.45 9.25 28.3 10.15 29.95 12.3 33.95 14.95 38.9 17.35 43.35 18.8 45.95 Q19.35 48.15 18.6 49.5 17.9 50.9 16.6 51.5 15.25 52.1 13.95 51.95 12.65 51.8 12.05 50.95 L11.05 49.1 8.6 44.5 5.6 38.8 2.85 33.5 1.6 30.85 1.3 30.1 Q0.35 27.75 1.4 25.65 2.5 23.5 6.35 20.9 L11.5 17.7 17.75 14.2 19.85 13.05 Q20.4 12.7 20.95 12.45 L23.2 16.85" fill="#488fc1" fill-rule="evenodd" stroke="none"/>
    </g>
    <g id="shape1" transform="matrix(1.0, 0.0, 0.0, 1.0, 5.45, 0.0)">
      <path d="M59.55 39.75 Q58.9 37.7 58.4 35.15 57.4 30.25 57.65 23.1 L57.8 15.7 Q57.8 12.05 57.1 9.0 56.4 5.95 54.5 3.85 52.65 1.75 49.15 1.1 L41.9 1.3 Q37.8 2.05 33.5 4.35 32.2 5.05 29.45 7.0 26.7 9.0 23.1 12.4 19.45 15.75 15.65 20.6 11.8 25.45 8.3 31.9 6.5 35.25 4.95 39.1 3.6 42.45 2.45 46.2 L2.4 46.35 Q1.9 48.15 2.35 48.85 2.8 49.6 3.7 49.85 L9.5 50.95 18.6 51.65 29.7 51.9 41.6 51.6 52.9 50.75 62.4 49.25 Q63.3 49.05 62.65 47.6 L62.3 46.75 62.35 46.7 61.05 43.85 59.55 39.75 M2.4 50.4 Q1.65 50.1 1.25 49.45 0.8 48.7 1.3 46.85 3.7 38.2 7.25 31.5 10.75 24.8 14.75 19.8 18.75 14.85 22.55 11.45 26.35 8.05 29.2 6.1 L33.45 3.45 Q37.65 1.15 41.85 0.4 46.05 -0.35 50.15 0.35 53.75 1.0 55.55 3.1 57.4 5.2 58.0 8.3 58.6 11.45 58.55 15.15 L58.25 22.8 Q58.05 30.15 59.25 35.25 60.5 40.3 62.1 43.45 L64.55 48.05 Q65.45 49.55 64.5 49.75 L64.1 49.85 63.1 50.1 54.65 51.35 42.7 52.25 30.15 52.55 18.3 52.3 8.7 51.6 3.75 50.8 2.65 50.5 2.4 50.4" fill="#411c14" fill-rule="evenodd" stroke="none"/>
      <path d="M4.95 39.1 Q6.5 35.25 8.3 31.9 11.8 25.45 15.65 20.6 19.45 15.75 23.1 12.4 26.7 9.0 29.45 7.0 32.2 5.05 33.5 4.35 37.8 2.05 41.9 1.3 L49.15 1.1 Q52.65 1.75 54.5 3.85 56.4 5.95 57.1 9.0 57.8 12.05 57.8 15.7 L57.65 23.1 Q57.4 30.25 58.4 35.15 58.9 37.7 59.55 39.75 L51.7 40.7 41.05 41.55 28.85 41.9 16.35 41.2 Q10.25 40.6 4.95 39.1 M62.3 46.75 L62.65 47.6 Q63.3 49.05 62.4 49.25 L52.9 50.75 41.6 51.6 29.7 51.9 18.6 51.65 9.5 50.95 3.7 49.85 Q2.8 49.6 2.35 48.85 1.9 48.15 2.4 46.35 L2.45 46.2 Q7.3 47.35 13.55 48.0 L26.7 48.8 Q33.6 48.95 40.25 48.75 L52.65 48.0 62.3 46.75" fill="#ffbd20" fill-rule="evenodd" stroke="none"/>
      <path d="M4.95 39.1 Q10.25 40.6 16.35 41.2 L28.85 41.9 41.05 41.55 51.7 40.7 59.55 39.75 61.05 43.85 62.35 46.7 62.3 46.75 52.65 48.0 40.25 48.75 Q33.6 48.95 26.7 48.8 L13.55 48.0 Q7.3 47.35 2.45 46.2 3.6 42.45 4.95 39.1" fill="#e31e00" fill-rule="evenodd" stroke="none"/>
      <path d="M2.4 50.4 L2.65 50.5 3.75 50.8 3.65 51.25 2.9 55.8 2.35 59.85 -0.65 80.95 -3.8 121.1 Q-2.35 122.95 -0.4 124.25 0.9 125.0 2.4 125.3 10.55 126.85 18.65 124.95 L18.8 124.7 18.7 124.65 20.6 124.1 20.65 124.1 26.85 121.4 26.3 98.05 24.3 97.75 22.25 97.2 Q21.35 97.0 20.5 96.35 L32.9 96.6 28.2 97.65 28.95 121.9 Q31.9 124.2 35.7 123.95 L47.85 124.35 53.65 124.6 58.0 124.4 62.25 123.55 65.5 122.6 Q67.8 121.9 69.95 120.3 L69.65 115.55 68.65 106.05 67.25 95.75 65.6 85.35 63.8 74.8 Q63.15 71.05 62.65 67.3 62.55 66.45 62.7 65.6 L62.85 65.65 62.8 65.45 Q62.8 64.4 63.15 63.7 63.5 62.95 64.0 62.95 L64.35 62.55 63.35 62.9 63.95 59.85 Q64.4 57.0 64.15 54.1 63.95 51.85 63.1 50.1 L64.1 49.85 Q65.25 51.8 65.45 54.25 65.7 57.1 65.25 59.85 L63.45 67.15 Q65.75 73.6 66.7 80.3 L67.5 86.6 Q68.25 93.25 69.4 99.6 70.65 106.7 71.2 113.9 L71.6 121.0 Q68.75 123.3 65.35 124.5 L61.05 125.5 66.85 166.25 65.15 166.25 59.3 125.4 48.95 125.85 50.2 132.9 52.8 147.25 54.45 157.65 54.55 158.4 55.55 166.25 53.9 166.25 52.95 158.45 47.25 125.75 36.2 125.15 Q31.85 125.7 28.2 123.3 L27.65 122.8 Q26.1 123.85 24.15 124.55 L20.45 125.65 17.55 148.05 Q16.85 153.0 16.3 159.15 L15.75 166.25 14.15 166.25 18.7 126.45 Q14.0 127.75 9.05 127.65 L8.75 127.65 4.6 166.25 2.9 166.25 3.4 160.95 7.0 127.4 Q4.1 127.35 1.5 126.35 L-1.65 125.15 Q-4.2 123.8 -5.45 121.5 L-5.1 117.55 -4.85 113.45 -3.05 90.3 Q-1.9 74.95 0.85 59.85 L1.45 55.65 2.25 51.1 2.4 50.4" fill="#341239" fill-rule="evenodd" stroke="none"/>
      <path d="M62.7 65.6 L62.8 65.45 62.85 65.65 62.7 65.6 M64.0 62.95 L63.35 62.9 64.35 62.55 64.0 62.95" fill="#000823" fill-rule="evenodd" stroke="none"/>
      <path d="M3.75 50.8 L8.7 51.6 18.3 52.3 30.15 52.55 42.7 52.25 54.65 51.35 63.1 50.1 Q63.95 51.85 64.15 54.1 64.4 57.0 63.95 59.85 L63.35 62.9 64.0 62.95 Q63.5 62.95 63.15 63.7 62.8 64.4 62.8 65.45 L62.7 65.6 Q62.55 66.45 62.65 67.3 63.15 71.05 63.8 74.8 L65.6 85.35 67.25 95.75 68.65 106.05 69.65 115.55 69.95 120.3 Q67.8 121.9 65.5 122.6 L62.25 123.55 58.0 124.4 53.65 124.6 47.85 124.35 35.7 123.95 Q31.9 124.2 28.95 121.9 L28.2 97.65 32.9 96.6 20.5 96.35 Q21.35 97.0 22.25 97.2 L24.3 97.75 26.3 98.05 26.85 121.4 20.65 124.1 20.6 124.05 20.6 124.1 18.7 124.65 18.8 124.7 18.65 124.95 Q10.55 126.85 2.4 125.3 0.9 125.0 -0.4 124.25 -2.35 122.95 -3.8 121.1 L-0.65 80.95 2.35 59.85 2.9 55.8 3.65 51.25 3.75 50.8" fill="#592d85" fill-rule="evenodd" stroke="none"/>
      <path d="M65.15 166.25 L55.55 166.25 54.55 158.4 54.45 157.65 52.8 147.25 50.2 132.9 48.95 125.85 59.3 125.4 65.15 166.25 M14.15 166.25 L4.6 166.25 8.75 127.65 9.05 127.65 Q14.0 127.75 18.7 126.45 L14.15 166.25" fill="#488fc1" fill-rule="evenodd" stroke="none"/>
    </g>
    <g id="shape2" transform="matrix(1.0, 0.0, 0.0, 1.0, 0.0, 0.0)">
      <path d="M20.15 48.75 L20.05 48.15 Q19.35 44.15 18.4 37.25 17.7 32.0 18.7 27.15 19.65 22.25 22.3 18.15 25.0 14.1 29.25 11.35 33.5 8.6 39.35 7.65 L39.55 7.5 39.0 7.2 38.7 6.85 Q40.85 3.6 43.8 2.25 46.7 0.85 49.8 1.1 52.95 1.35 55.55 3.05 58.2 4.75 59.7 7.7 59.55 8.15 59.0 8.3 58.45 8.45 58.5 8.7 67.0 9.85 71.55 14.05 76.15 18.2 77.8 24.5 L78.65 28.75 78.25 28.95 Q77.05 29.65 76.8 30.55 76.6 31.5 77.15 32.3 77.75 33.05 78.95 33.2 L79.1 33.15 79.15 38.3 Q78.85 45.55 77.8 53.1 L75.9 53.0 Q71.85 53.25 67.8 56.55 L60.45 54.6 61.0 52.85 61.15 52.45 61.55 51.15 Q62.5 48.0 63.0 43.85 63.5 39.75 62.55 35.5 61.75 32.65 60.45 30.8 59.3 28.95 57.7 27.85 54.95 25.95 51.9 26.75 48.85 27.6 46.5 31.75 46.1 32.5 46.0 33.15 L46.0 34.0 Q46.15 34.2 46.45 33.65 L46.7 33.25 Q45.95 35.9 45.65 39.15 45.35 42.8 45.5 46.35 45.65 49.2 46.1 51.55 L36.3 50.85 35.85 50.15 35.35 49.55 34.25 47.6 34.15 44.6 33.65 39.9 Q33.35 36.9 32.55 34.75 L31.75 31.9 Q30.65 28.55 29.3 26.15 28.0 23.7 27.0 23.0 26.6 22.65 26.05 22.65 25.55 22.65 25.0 23.55 24.45 24.5 23.9 26.95 24.75 24.75 25.75 24.75 26.75 24.75 27.8 26.25 28.9 27.8 29.9 30.05 L30.45 31.25 Q29.15 30.1 27.15 29.75 25.95 29.5 24.8 30.55 23.65 31.55 23.05 34.1 22.45 36.65 22.9 40.95 L23.8 45.65 Q23.35 46.15 23.2 46.9 L23.35 47.5 Q21.45 47.95 20.15 48.75 M54.85 16.75 Q56.65 16.0 58.55 16.35 60.45 16.65 61.9 18.3 63.4 19.95 63.9 23.25 64.0 19.35 62.65 17.1 61.3 14.9 59.2 14.35 57.15 13.75 55.1 14.9 53.1 16.05 51.8 18.95 53.0 17.5 54.85 16.75" fill="#488fc1" fill-rule="evenodd" stroke="none"/>
      <path d="M17.25 29.85 Q17.4 28.4 17.7 27.0 18.75 21.9 21.45 17.7 24.1 13.5 28.25 10.7 32.35 7.9 37.75 7.05 39.95 3.15 43.2 1.45 46.45 -0.25 49.9 0.05 53.4 0.35 56.25 2.4 59.1 4.45 60.5 8.0 68.5 9.3 72.8 13.65 77.15 17.95 78.7 24.4 L79.5 28.3 78.65 28.75 77.8 24.5 Q76.15 18.2 71.55 14.05 67.0 9.85 58.5 8.7 58.45 8.45 59.0 8.3 59.55 8.15 59.7 7.7 58.2 4.75 55.55 3.05 52.95 1.35 49.8 1.1 46.7 0.85 43.8 2.25 40.85 3.6 38.7 6.85 L39.0 7.2 39.55 7.5 39.35 7.65 Q33.5 8.6 29.25 11.35 25.0 14.1 22.3 18.15 19.65 22.25 18.7 27.15 17.7 32.0 18.4 37.25 19.35 44.15 20.05 48.15 L20.15 48.75 19.6 49.15 19.25 49.45 19.1 48.75 17.4 37.5 Q17.1 35.15 17.1 32.85 L17.15 31.5 17.25 29.85 M54.85 16.75 Q53.0 17.5 51.8 18.95 53.1 16.05 55.1 14.9 57.15 13.75 59.2 14.35 61.3 14.9 62.65 17.1 64.0 19.35 63.9 23.25 63.4 19.95 61.9 18.3 60.45 16.65 58.55 16.35 56.65 16.0 54.85 16.75 M30.45 31.25 L29.9 30.05 Q28.9 27.8 27.8 26.25 26.75 24.75 25.75 24.75 24.75 24.75 23.9 26.95 24.45 24.5 25.0 23.55 25.55 22.65 26.05 22.65 26.6 22.65 27.0 23.0 28.0 23.7 29.3 26.15 30.65 28.55 31.75 31.9 L32.55 34.75 33.35 38.75 31.85 34.7 30.45 31.25 M77.8 53.1 Q78.85 45.55 79.15 38.3 L79.1 33.15 79.95 32.75 80.0 38.6 Q79.75 45.7 78.75 53.3 L77.8 53.1" fill="#1b2e54" fill-rule="evenodd" stroke="none"/>
      <path d="M32.55 34.75 Q33.35 36.9 33.65 39.9 L34.15 44.6 34.25 47.6 Q33.35 46.2 32.25 45.1 30.35 43.2 28.35 42.4 26.4 41.65 24.75 42.05 26.5 42.35 27.85 43.4 29.2 44.5 30.05 45.85 28.9 44.95 27.4 44.7 25.9 44.45 24.65 45.0 L23.8 45.65 22.9 40.95 Q22.45 36.65 23.05 34.1 23.65 31.55 24.8 30.55 25.95 29.5 27.15 29.75 29.15 30.1 30.45 31.25 L31.85 34.7 33.35 38.75 32.55 34.75" fill="#0b4f7d" fill-rule="evenodd" stroke="none"/>
      <path d="M34.25 47.6 L35.35 49.55 Q34.2 48.45 32.2 47.65 29.6 46.7 25.15 47.15 L23.35 47.5 23.2 46.9 Q23.35 46.15 23.8 45.65 L24.65 45.0 Q25.9 44.45 27.4 44.7 28.9 44.95 30.05 45.85 29.2 44.5 27.85 43.4 26.5 42.35 24.75 42.05 26.4 41.65 28.35 42.4 30.35 43.2 32.25 45.1 33.35 46.2 34.25 47.6 M46.7 33.25 L46.45 33.65 Q46.15 34.2 46.0 34.0 L46.0 33.15 Q46.1 32.5 46.5 31.75 48.85 27.6 51.9 26.75 54.95 25.95 57.7 27.85 59.3 28.95 60.45 30.8 L61.9 33.85 Q59.45 30.45 56.55 29.3 53.7 28.15 51.05 29.25 48.55 30.3 46.7 33.25" fill="#0c1748" fill-rule="evenodd" stroke="none"/>
      <path d="M19.25 49.45 L19.6 49.15 20.15 48.75 Q21.45 47.95 23.35 47.5 L25.15 47.15 Q29.6 46.7 32.2 47.65 34.2 48.45 35.35 49.55 L35.85 50.15 36.3 50.85 36.75 51.8 36.95 52.8 Q36.95 55.15 34.95 56.3 L34.25 56.65 31.9 57.4 28.8 57.9 Q23.8 58.45 20.85 57.8 18.65 57.25 17.6 55.95 L17.25 55.5 17.0 55.0 17.0 54.95 Q16.55 53.9 17.1 52.3 L17.25 51.95 Q17.85 50.65 19.25 49.45 M27.0 48.0 L30.45 48.1 Q32.7 48.35 34.05 49.0 32.4 47.85 30.05 47.5 27.65 47.15 25.25 47.55 L23.65 47.9 Q22.15 48.3 20.9 48.95 L20.3 49.35 19.35 50.15 Q18.7 50.8 18.4 51.55 18.75 50.85 19.4 50.35 19.8 49.95 20.35 49.65 L21.2 49.2 21.95 48.95 21.9 48.95 Q21.3 49.8 21.55 50.4 22.2 51.7 25.45 51.45 L25.8 51.4 27.95 50.9 Q28.7 50.5 28.65 49.75 L28.6 49.4 27.75 48.4 27.0 48.0" fill="#2f094d" fill-rule="evenodd" stroke="none"/>
      <path d="M27.0 48.0 L24.45 47.8 23.7 47.95 Q22.45 48.25 21.95 48.95 L21.2 49.2 20.35 49.65 Q19.8 49.95 19.4 50.35 18.75 50.85 18.4 51.55 18.7 50.8 19.35 50.15 L20.3 49.35 20.9 48.95 Q22.15 48.3 23.65 47.9 L25.25 47.55 Q27.65 47.15 30.05 47.5 32.4 47.85 34.05 49.0 32.7 48.35 30.45 48.1 L27.0 48.0" fill="#8c409c" fill-rule="evenodd" stroke="none"/>
      <path d="M23.8 48.0 L24.45 47.9 Q26.4 47.75 27.15 48.35 27.85 48.85 27.95 49.3 L27.95 49.45 Q28.0 50.65 25.55 50.75 L25.25 50.8 Q22.55 51.0 22.05 49.95 21.85 49.5 22.35 48.8 22.75 48.25 23.8 48.0" fill="#f3d6ea" fill-rule="evenodd" stroke="none"/>
      <path d="M23.8 48.0 Q22.75 48.25 22.35 48.8 21.85 49.5 22.05 49.95 22.55 51.0 25.25 50.8 L25.55 50.75 Q28.0 50.65 27.95 49.45 L27.95 49.3 Q27.85 48.85 27.15 48.35 26.4 47.75 24.45 47.9 L23.8 48.0 M21.95 48.95 Q22.45 48.25 23.7 47.95 L24.45 47.8 27.0 48.0 27.75 48.4 28.6 49.4 28.65 49.75 Q28.7 50.5 27.95 50.9 L25.8 51.4 25.45 51.45 Q22.2 51.7 21.55 50.4 21.3 49.8 21.9 48.95 L21.95 48.95" fill="#c575b8" fill-rule="evenodd" stroke="none"/>
      <path d="M17.25 29.85 L17.15 31.5 14.65 31.05 Q12.9 30.85 12.05 31.7 11.2 32.5 11.65 34.75 13.2 42.5 12.85 49.95 12.45 57.45 10.45 63.65 8.5 69.85 5.15 73.8 4.45 74.6 3.85 74.65 3.25 74.75 2.95 74.4 2.6 74.05 2.7 73.6 -0.35 79.55 2.0 82.95 L1.65 82.65 1.55 82.55 Q-0.05 80.8 0.0 78.3 0.05 75.85 1.1 73.35 2.15 70.85 3.65 69.05 5.45 66.9 6.85 63.6 8.2 60.35 9.1 56.5 10.05 52.7 10.5 48.9 11.0 45.15 11.0 42.0 10.95 38.85 10.45 36.9 9.2 32.2 11.1 30.6 13.0 29.0 17.25 29.85 M83.7 26.8 L83.85 26.7 Q87.45 25.9 89.75 27.25 L90.95 28.3 Q92.15 29.8 92.4 32.65 92.1 32.75 91.7 32.15 L90.95 31.15 Q90.6 30.7 90.3 31.25 89.2 33.8 88.45 38.2 87.65 42.55 87.2 47.7 L86.65 57.85 86.6 66.55 Q86.75 70.35 87.1 71.9 87.55 73.6 88.9 74.95 90.2 76.3 91.6 76.65 93.0 76.95 93.65 75.6 94.3 74.2 93.4 70.35 L95.5 77.45 97.3 83.5 Q98.05 86.2 97.95 88.15 96.85 89.1 94.9 89.25 93.0 89.4 90.85 88.4 88.7 87.4 86.85 84.85 84.6 81.65 83.5 77.35 82.45 73.5 82.4 68.4 L82.4 67.2 82.45 66.35 Q82.5 62.45 83.1 57.7 L83.25 56.2 83.6 53.6 85.05 44.1 85.9 37.9 86.0 36.7 Q86.35 34.25 86.15 32.9 L86.15 32.6 Q86.05 30.9 85.45 30.1 84.85 29.25 83.55 29.5 L81.15 29.45 Q80.75 29.0 81.5 28.2 82.2 27.4 83.7 26.8 M79.95 71.35 L77.5 73.6 73.9 75.65 Q73.25 78.2 72.1 79.8 70.5 82.0 68.2 82.9 65.95 83.75 63.4 83.75 L58.35 83.5 53.6 82.6 48.2 81.35 45.45 80.85 36.05 80.25 Q29.5 79.4 23.8 76.95 19.0 74.85 15.4 71.3 L14.15 69.95 Q12.25 67.7 12.0 65.05 11.75 62.45 12.9 59.95 14.05 57.45 16.25 55.55 L17.0 54.95 17.0 55.0 17.25 55.5 17.6 55.95 17.25 56.25 15.9 57.55 15.6 57.95 Q15.25 57.95 15.0 58.45 L14.9 58.95 Q13.9 60.45 13.5 62.2 L13.4 62.45 13.4 62.65 13.25 63.65 Q13.0 67.0 15.5 69.95 L15.7 70.15 Q19.25 73.9 24.45 76.05 29.8 78.25 36.15 79.05 L43.3 79.65 43.5 79.65 47.55 80.1 52.6 81.3 57.85 82.3 62.45 82.75 67.3 82.15 Q69.65 81.45 71.35 79.05 72.55 77.3 73.1 74.3 L73.2 74.25 Q73.5 72.9 73.9 72.75 74.3 72.6 74.25 73.55 L74.1 74.55 Q76.05 73.6 77.2 72.65 L80.15 69.6 80.05 70.4 79.95 71.35 M36.3 50.85 L46.1 51.55 46.6 51.6 53.55 52.9 57.85 53.9 60.45 54.6 67.8 56.55 Q71.85 53.25 75.9 53.0 L77.8 53.1 78.75 53.3 Q80.95 53.85 82.75 55.65 L82.55 56.85 81.95 56.15 Q80.45 54.65 78.6 54.2 L77.65 54.0 Q75.25 53.75 72.75 54.7 70.2 55.6 68.05 57.2 L60.25 55.15 58.25 54.65 47.05 52.45 46.25 52.35 36.75 51.8 36.3 50.85" fill="#2a1b2c" fill-rule="evenodd" stroke="none"/>
      <path d="M17.15 31.5 L17.1 32.85 Q15.45 32.45 15.1 33.35 14.65 34.5 15.75 38.3 16.4 40.85 16.85 44.75 L17.25 51.95 17.1 52.3 Q16.55 53.9 17.0 54.95 L16.25 55.55 Q14.05 57.45 12.9 59.95 11.75 62.45 12.0 65.05 12.25 67.7 14.15 69.95 L15.4 71.3 Q14.4 75.15 12.8 77.75 9.8 82.4 6.95 83.75 4.1 85.0 1.65 82.65 L2.0 82.95 Q-0.35 79.55 2.7 73.6 2.6 74.05 2.95 74.4 3.25 74.75 3.85 74.65 4.45 74.6 5.15 73.8 8.5 69.85 10.45 63.65 12.45 57.45 12.85 49.95 13.2 42.5 11.65 34.75 11.2 32.5 12.05 31.7 12.9 30.85 14.65 31.05 L17.15 31.5 M78.65 28.75 L79.5 28.3 Q81.7 27.25 83.7 26.8 82.2 27.4 81.5 28.2 80.75 29.0 81.15 29.45 L83.55 29.5 Q84.85 29.25 85.45 30.1 86.05 30.9 86.15 32.6 85.95 31.85 85.5 31.6 L83.15 31.55 Q81.95 31.8 80.8 32.35 L79.95 32.75 79.1 33.15 78.95 33.2 Q77.75 33.05 77.15 32.3 76.6 31.5 76.8 30.55 77.05 29.65 78.25 28.95 L78.65 28.75 M90.95 28.3 Q92.7 30.3 92.45 34.8 L91.65 44.7 Q91.25 49.95 91.35 55.75 91.5 61.55 92.85 67.9 93.95 72.65 95.3 76.75 L97.5 84.1 Q98.35 87.3 97.8 89.25 97.25 91.25 94.55 91.7 92.15 92.15 89.25 91.05 86.3 90.0 83.8 86.75 81.3 83.45 80.1 77.3 79.6 74.5 79.95 71.35 L80.05 70.4 80.15 69.6 81.45 62.45 82.55 56.85 82.75 55.65 83.2 53.1 84.95 43.15 85.9 37.9 85.05 44.1 83.6 53.6 83.25 56.2 83.1 57.7 Q82.5 62.45 82.45 66.35 L82.4 67.2 82.4 68.4 Q82.45 73.5 83.5 77.35 84.6 81.65 86.85 84.85 88.7 87.4 90.85 88.4 93.0 89.4 94.9 89.25 96.85 89.1 97.95 88.15 98.05 86.2 97.3 83.5 L95.5 77.45 93.4 70.35 Q94.3 74.2 93.65 75.6 93.0 76.95 91.6 76.65 90.2 76.3 88.9 74.95 87.55 73.6 87.1 71.9 86.75 70.35 86.6 66.55 L86.65 57.85 87.2 47.7 Q87.65 42.55 88.45 38.2 89.2 33.8 90.3 31.25 90.6 30.7 90.95 31.15 L91.7 32.15 Q92.1 32.75 92.4 32.65 92.15 29.8 90.95 28.3 M61.15 52.45 L61.0 52.85 60.45 54.6 57.85 53.9 53.55 52.9 53.25 51.45 Q53.0 49.95 53.05 47.4 L58.2 46.4 53.25 45.05 53.55 43.2 Q54.1 40.3 55.5 38.85 56.85 37.45 58.45 37.4 60.05 37.35 61.35 38.5 62.6 39.7 62.9 41.95 L63.0 43.5 Q62.65 47.1 61.85 50.05 L61.15 52.45 M67.95 59.35 L70.75 59.2 Q71.35 59.4 71.2 59.7 L70.55 59.85 69.95 59.75 70.9 63.65 71.2 66.4 71.15 69.15 Q71.2 70.8 70.65 73.15 70.1 75.5 68.8 77.55 67.5 79.6 65.15 80.25 62.75 80.8 59.25 80.3 L52.15 78.95 45.65 77.45 38.35 76.15 Q35.4 75.75 33.15 76.65 L32.1 76.85 Q31.65 76.85 32.2 76.4 34.2 75.1 38.0 74.8 L47.3 74.5 Q54.6 74.5 60.05 73.0 65.5 71.5 68.05 68.3 70.6 65.1 69.25 60.0 L69.25 59.75 68.3 59.9 Q67.95 60.0 67.7 59.75 67.5 59.5 67.95 59.35 M66.0 71.5 L65.95 71.45 65.45 71.75 65.5 71.8 Q62.65 73.4 58.95 74.15 L58.85 74.2 58.8 74.15 58.15 74.3 51.4 75.15 51.35 75.1 50.7 75.15 50.75 75.2 50.45 75.2 42.5 75.3 Q41.75 75.3 41.7 75.65 41.65 75.95 42.8 76.15 L45.75 76.8 51.1 78.05 57.35 79.3 62.8 79.9 Q65.85 79.9 67.6 77.9 69.4 75.9 70.05 72.7 70.7 69.5 70.35 65.95 69.3 69.4 66.2 71.35 L66.0 71.5" fill="#111111" fill-rule="evenodd" stroke="none"/>
      <path d="M17.6 55.95 Q18.65 57.25 20.85 57.8 23.8 58.45 28.8 57.9 L31.9 57.4 34.25 56.65 34.95 56.3 Q36.95 55.15 36.95 52.8 L36.75 51.8 46.25 52.35 47.05 52.45 58.25 54.65 60.25 55.15 68.05 57.2 Q70.2 55.6 72.75 54.7 75.25 53.75 77.65 54.0 L78.6 54.2 Q80.45 54.65 81.95 56.15 L82.55 56.85 81.45 62.45 80.15 69.6 77.2 72.65 Q76.05 73.6 74.1 74.55 L74.25 73.55 Q74.3 72.6 73.9 72.75 73.5 72.9 73.2 74.25 L73.1 74.3 Q72.55 77.3 71.35 79.05 69.65 81.45 67.3 82.15 L62.45 82.75 57.85 82.3 52.6 81.3 47.55 80.1 43.5 79.65 43.3 79.65 36.15 79.05 Q29.8 78.25 24.45 76.05 19.25 73.9 15.7 70.15 L15.5 69.95 Q13.0 67.0 13.25 63.65 L13.4 62.65 Q13.4 63.15 13.75 63.3 14.15 63.4 14.3 62.7 14.35 62.0 14.0 61.8 13.7 61.75 13.5 62.2 13.9 60.45 14.9 58.95 L15.05 59.4 15.8 58.95 Q16.05 58.3 15.75 58.0 L15.6 57.95 15.9 57.55 17.25 56.25 17.6 55.95 M57.85 60.45 Q57.1 60.4 56.85 61.1 56.8 61.85 57.5 62.1 58.25 62.15 58.45 61.45 58.55 60.7 57.85 60.45 M59.8 56.05 L59.6 56.0 Q58.9 55.95 58.7 56.6 58.65 57.35 59.35 57.5 60.0 57.6 60.25 56.9 60.3 56.3 59.8 56.05 M52.45 57.75 L52.5 57.6 Q52.6 56.9 51.9 56.7 51.2 56.65 51.0 57.35 L51.05 57.7 Q51.15 58.1 51.6 58.2 52.25 58.3 52.45 57.75 M44.75 60.15 Q43.95 60.1 43.7 60.85 43.65 61.65 44.4 61.85 45.2 61.95 45.4 61.2 45.5 60.4 44.75 60.15 M43.15 54.0 Q43.1 54.75 43.75 54.9 44.5 55.0 44.65 54.3 44.75 53.6 44.05 53.4 43.35 53.35 43.15 54.0 M67.95 59.35 Q67.5 59.5 67.7 59.75 67.95 60.0 68.3 59.9 L69.25 59.75 69.25 60.0 Q70.6 65.1 68.05 68.3 65.5 71.5 60.05 73.0 54.6 74.5 47.3 74.5 L38.0 74.8 Q34.2 75.1 32.2 76.4 31.65 76.85 32.1 76.85 L33.15 76.65 Q35.4 75.75 38.35 76.15 L45.65 77.45 52.15 78.95 59.25 80.3 Q62.75 80.8 65.15 80.25 67.5 79.6 68.8 77.55 70.1 75.5 70.65 73.15 71.2 70.8 71.15 69.15 L71.2 66.4 70.9 63.65 69.95 59.75 70.55 59.85 71.2 59.7 Q71.35 59.4 70.75 59.2 L67.95 59.35" fill="#fee36a" fill-rule="evenodd" stroke="none"/>
      <path d="M15.6 57.95 L15.75 58.0 Q16.05 58.3 15.8 58.95 L15.05 59.4 14.9 58.95 15.0 58.45 Q15.25 57.95 15.6 57.95 M13.5 62.2 Q13.7 61.75 14.0 61.8 14.35 62.0 14.3 62.7 14.15 63.4 13.75 63.3 13.4 63.15 13.4 62.65 L13.4 62.45 13.5 62.2 M52.45 57.75 Q52.25 58.3 51.6 58.2 51.15 58.1 51.05 57.7 L51.0 57.35 Q51.2 56.65 51.9 56.7 52.6 56.9 52.5 57.6 L52.45 57.75 M59.8 56.05 Q60.3 56.3 60.25 56.9 60.0 57.6 59.35 57.5 58.65 57.35 58.7 56.6 58.9 55.95 59.6 56.0 L59.8 56.05 M57.85 60.45 Q58.55 60.7 58.45 61.45 58.25 62.15 57.5 62.1 56.8 61.85 56.85 61.1 57.1 60.4 57.85 60.45 M43.15 54.0 Q43.35 53.35 44.05 53.4 44.75 53.6 44.65 54.3 44.5 55.0 43.75 54.9 43.1 54.75 43.15 54.0 M44.75 60.15 Q45.5 60.4 45.4 61.2 45.2 61.95 44.4 61.85 43.65 61.65 43.7 60.85 43.95 60.1 44.75 60.15" fill="#996400" fill-rule="evenodd" stroke="none"/>
      <path d="M46.1 51.55 Q45.65 49.2 45.5 46.35 45.35 42.8 45.65 39.15 45.95 35.9 46.7 33.25 48.55 30.3 51.05 29.25 53.7 28.15 56.55 29.3 59.45 30.45 61.9 33.85 L60.45 30.8 Q61.75 32.65 62.55 35.5 63.5 39.75 63.0 43.85 62.5 48.0 61.55 51.15 L61.15 52.45 61.85 50.05 Q62.65 47.1 63.0 43.5 L62.9 41.95 Q62.6 39.7 61.35 38.5 60.05 37.35 58.45 37.4 56.85 37.45 55.5 38.85 54.1 40.3 53.55 43.2 L53.25 45.05 58.2 46.4 53.05 47.4 Q53.0 49.95 53.25 51.45 L53.55 52.9 46.6 51.6 46.1 51.55 M65.5 71.8 L67.0 74.1 68.6 76.5 68.9 75.9 66.0 71.5 66.2 71.35 Q69.3 69.4 70.35 65.95 70.7 69.5 70.05 72.7 69.4 75.9 67.6 77.9 65.85 79.9 62.8 79.9 L57.35 79.3 51.1 78.05 45.75 76.8 42.8 76.15 Q41.65 75.95 41.7 75.65 41.75 75.3 42.5 75.3 L50.45 75.2 50.75 75.2 52.35 78.3 53.1 78.45 52.3 76.95 51.4 75.15 58.15 74.3 60.15 77.1 62.05 79.85 62.8 79.85 60.75 76.95 58.85 74.2 58.95 74.15 Q62.65 73.4 65.5 71.8" fill="#ffffff" fill-rule="evenodd" stroke="none"/>
      <path d="M65.5 71.8 L65.45 71.75 65.95 71.45 66.0 71.5 68.9 75.9 68.6 76.5 67.0 74.1 65.5 71.8 M58.15 74.3 L58.8 74.15 58.85 74.2 60.75 76.95 62.8 79.85 62.05 79.85 60.15 77.1 58.15 74.3" fill="#476db1" fill-rule="evenodd" stroke="none"/>
      <path d="M50.75 75.2 L50.7 75.15 51.35 75.1 51.4 75.15 52.3 76.95 53.1 78.45 52.35 78.3 50.75 75.2" fill="#2c3d79" fill-rule="evenodd" stroke="none"/>
    </g>
    <g id="shape3" transform="matrix(1.0, 0.0, 0.0, 1.0, 0.0, 0.0)">
      <path d="M17.85 41.5 L18.25 40.6 Q19.7 37.9 22.15 36.25 26.45 33.4 31.75 32.05 L31.35 28.7 Q31.1 26.35 31.1 23.15 31.05 19.9 31.5 16.35 31.95 12.8 33.05 9.55 34.2 6.25 36.25 3.8 38.6 1.05 41.9 0.3 45.2 -0.5 48.7 0.85 52.25 2.3 54.35 5.35 56.4 8.35 56.45 12.1 L56.45 12.6 Q56.25 16.2 55.2 19.15 L52.85 24.85 51.35 28.4 Q50.65 30.15 50.25 31.95 54.95 33.05 58.65 35.05 62.35 37.1 64.35 39.65 65.35 40.9 65.9 42.65 66.45 44.4 66.45 46.35 66.45 48.5 65.75 50.55 65.1 52.65 63.85 54.5 L63.85 54.7 63.9 57.0 Q63.9 76.0 56.55 85.45 54.45 88.1 51.1 89.35 47.8 90.6 43.85 90.75 L35.95 90.2 Q32.0 89.5 28.6 88.2 25.15 86.9 22.9 85.3 21.0 83.9 19.9 81.8 18.85 79.75 18.8 77.55 L17.65 76.55 16.25 73.65 14.3 69.0 12.3 64.0 12.1 63.5 10.75 60.0 10.15 58.35 10.9 57.0 11.85 59.6 13.5 63.95 15.4 68.8 17.15 73.1 18.35 75.65 18.85 76.2 19.0 75.25 Q19.25 74.25 19.75 73.4 L20.55 72.3 Q21.65 71.1 23.2 70.65 21.6 69.9 20.55 68.5 19.5 67.05 19.2 65.15 L19.1 63.7 Q19.1 61.45 20.1 59.45 L20.15 59.4 19.55 58.0 18.65 56.0 18.35 55.35 17.1 52.7 17.5 52.55 18.5 52.25 18.0 51.4 Q17.15 49.8 16.9 47.9 L16.9 47.85 16.8 46.45 16.9 45.05 Q17.05 43.75 17.45 42.6 L17.85 41.5 M50.25 27.25 L50.9 25.7 53.5 19.55 Q54.75 16.35 55.0 12.55 55.1 8.95 53.25 6.3 51.45 3.7 48.6 2.4 45.75 1.1 42.75 1.6 39.7 2.1 37.3 4.75 35.0 7.5 33.95 11.5 32.85 15.45 32.6 19.65 L32.6 20.15 32.55 20.95 32.5 23.95 32.55 25.95 32.6 27.1 32.85 29.55 33.05 31.0 33.2 31.9 38.05 31.1 Q40.9 30.95 43.8 31.1 L48.8 31.7 50.25 27.25 M64.6 49.55 L64.7 49.1 Q65.25 46.5 64.8 44.25 64.4 42.0 63.25 40.5 60.9 37.55 56.35 35.45 51.85 33.3 46.1 32.55 L34.35 32.9 Q28.35 33.95 22.95 37.4 20.7 38.95 19.45 41.4 18.25 43.85 18.25 46.55 18.25 48.9 19.4 50.95 L19.35 50.9 Q20.8 53.65 24.35 54.95 25.45 54.15 28.2 53.45 L34.4 52.3 41.1 51.85 46.35 52.45 47.25 53.1 47.3 53.1 47.3 53.25 Q47.25 53.75 46.2 53.65 L41.0 53.45 34.6 53.85 Q31.25 54.25 28.4 55.05 25.5 55.85 23.75 57.15 21.5 59.0 20.85 61.55 20.2 64.1 21.05 66.35 L21.35 67.0 21.3 66.95 Q21.75 67.85 22.5 68.5 L24.15 69.5 28.75 69.95 34.55 70.35 40.0 70.8 43.7 71.35 45.55 72.1 45.7 72.35 45.25 72.65 43.5 72.6 39.8 72.3 33.9 72.05 27.95 71.85 24.15 71.75 Q22.3 72.1 21.3 73.55 20.35 74.95 20.25 76.9 20.2 78.25 20.6 79.6 L20.55 79.5 Q20.8 80.5 21.35 81.45 L21.7 82.0 Q22.5 83.2 23.75 84.1 25.75 85.55 28.95 86.75 L34.95 88.5 35.85 88.7 43.35 89.35 Q47.1 89.25 50.25 88.15 L51.6 87.6 52.8 86.9 54.2 85.85 55.45 84.55 Q56.95 82.6 58.05 80.4 L59.9 75.8 60.05 75.4 61.65 68.65 61.95 66.35 62.15 64.2 62.45 58.7 62.45 58.45 62.45 55.7 62.45 54.1 63.95 51.45 64.6 49.55 M22.85 56.05 L23.1 55.9 Q20.45 54.8 18.85 52.7 L18.75 52.55 19.3 53.9 21.05 57.95 22.85 56.05" fill="#000000" fill-rule="evenodd" stroke="none"/>
      <path d="M32.6 20.15 L32.6 19.65 Q32.85 15.45 33.95 11.5 35.0 7.5 37.3 4.75 39.7 2.1 42.75 1.6 45.75 1.1 48.6 2.4 51.45 3.7 53.25 6.3 55.1 8.95 55.0 12.55 54.75 16.35 53.5 19.55 L50.9 25.7 50.25 27.25 50.5 26.55 Q47.7 29.95 44.6 30.5 41.5 31.05 38.75 29.45 36.05 27.9 34.4 24.9 32.7 21.9 32.75 18.2 L32.6 20.15 M32.85 29.55 L32.6 27.1 32.55 25.95 32.75 28.75 32.85 29.55 M19.4 50.95 Q18.25 48.9 18.25 46.55 18.25 43.85 19.45 41.4 20.7 38.95 22.95 37.4 28.35 33.95 34.35 32.9 L46.1 32.55 Q51.85 33.3 56.35 35.45 60.9 37.55 63.25 40.5 64.4 42.0 64.8 44.25 65.25 46.5 64.7 49.1 L64.6 49.55 64.95 46.9 Q64.4 49.15 63.25 50.25 62.15 51.4 60.55 51.8 L57.05 52.25 Q57.9 53.0 58.5 55.8 59.1 58.6 59.2 62.6 59.3 66.55 58.65 70.85 57.95 75.1 56.2 78.8 54.4 82.5 51.3 84.75 48.5 86.6 44.9 87.1 41.25 87.65 37.45 87.15 33.6 86.6 30.1 85.4 26.65 84.2 24.1 82.65 21.65 81.15 20.6 79.6 20.2 78.25 20.25 76.9 20.35 74.95 21.3 73.55 22.3 72.1 24.15 71.75 L27.95 71.85 33.9 72.05 39.8 72.3 43.5 72.6 45.25 72.65 44.1 72.7 47.6 73.4 49.35 73.95 Q49.8 74.05 49.8 73.8 L49.65 72.8 Q49.45 71.7 47.65 70.75 45.9 69.8 43.05 69.3 L39.65 69.1 34.5 68.95 28.85 68.7 24.0 68.15 Q22.0 67.7 21.35 67.0 L21.05 66.35 Q20.2 64.1 20.85 61.55 21.5 59.0 23.75 57.15 25.5 55.85 28.4 55.05 31.25 54.25 34.6 53.85 L41.0 53.45 46.2 53.65 Q47.25 53.75 47.3 53.25 L47.3 53.1 Q49.2 53.1 49.5 52.5 49.75 51.85 48.4 51.25 46.3 50.35 43.35 50.0 L37.2 49.65 31.35 50.0 27.05 50.8 22.65 51.5 Q20.65 51.55 19.4 50.95 M63.95 51.45 L62.45 54.1 62.45 55.7 62.4 54.1 63.95 51.45 M62.15 64.2 L61.95 66.35 61.65 68.65 61.9 66.4 62.15 64.2 M58.05 80.4 Q56.95 82.6 55.45 84.55 L54.2 85.85 55.4 84.55 Q56.9 82.55 58.05 80.4" fill="#ffffff" fill-rule="evenodd" stroke="none"/>
      <path d="M50.25 27.25 L48.8 31.7 43.8 31.1 Q40.9 30.95 38.05 31.1 L33.2 31.9 33.05 31.0 32.85 29.55 32.75 28.75 32.55 25.95 32.5 23.95 32.55 20.95 32.6 20.15 32.75 18.2 Q32.7 21.9 34.4 24.9 36.05 27.9 38.75 29.45 41.5 31.05 44.6 30.5 47.7 29.95 50.5 26.55 L50.25 27.25 M19.4 50.95 Q20.65 51.55 22.65 51.5 L27.05 50.8 31.35 50.0 37.2 49.65 43.35 50.0 Q46.3 50.35 48.4 51.25 49.75 51.85 49.5 52.5 49.2 53.1 47.3 53.1 L47.25 53.1 46.35 52.45 41.1 51.85 34.4 52.3 28.2 53.45 Q25.45 54.15 24.35 54.95 20.8 53.65 19.35 50.9 L19.4 50.95 M21.35 67.0 Q22.0 67.7 24.0 68.15 L28.85 68.7 34.5 68.95 39.65 69.1 43.05 69.3 Q45.9 69.8 47.65 70.75 49.45 71.7 49.65 72.8 L49.8 73.8 Q49.8 74.05 49.35 73.95 L47.6 73.4 44.1 72.7 45.25 72.65 45.7 72.35 45.55 72.1 43.7 71.35 40.0 70.8 34.55 70.35 28.75 69.95 24.15 69.5 22.5 68.5 Q21.75 67.85 21.3 66.95 L21.35 67.0 M20.6 79.6 Q21.65 81.15 24.1 82.65 26.65 84.2 30.1 85.4 33.6 86.6 37.45 87.15 41.25 87.65 44.9 87.1 48.5 86.6 51.3 84.75 54.4 82.5 56.2 78.8 57.95 75.1 58.65 70.85 59.3 66.55 59.2 62.6 59.1 58.6 58.5 55.8 57.9 53.0 57.05 52.25 L60.55 51.8 Q62.15 51.4 63.25 50.25 64.4 49.15 64.95 46.9 L64.6 49.55 63.95 51.45 62.4 54.1 62.45 55.7 62.45 58.45 62.45 58.7 62.15 64.2 61.9 66.4 61.65 68.65 60.05 75.4 59.9 75.8 58.05 80.4 Q56.9 82.55 55.4 84.55 L54.2 85.85 52.8 86.9 51.6 87.6 50.25 88.15 Q47.1 89.25 43.35 89.35 L35.85 88.7 34.95 88.5 28.95 86.75 Q25.75 85.55 23.75 84.1 22.5 83.2 21.7 82.0 L21.35 81.45 Q20.8 80.5 20.55 79.5 L20.6 79.6" fill="#c2d6d4" fill-rule="evenodd" stroke="none"/>
      <path d="M17.85 41.5 L17.45 42.6 16.25 40.95 12.15 34.85 Q10.5 32.35 8.75 31.6 6.95 30.85 5.35 31.25 3.75 31.6 2.65 32.65 1.6 33.7 1.3 34.8 L1.3 34.9 0.7 35.55 Q0.5 35.6 0.8 34.4 1.35 32.35 2.85 31.35 4.3 30.3 6.15 30.3 8.0 30.3 9.8 31.2 11.6 32.15 12.8 34.0 L15.35 38.05 17.85 41.5 M18.0 51.4 L18.5 52.25 17.5 52.55 17.1 52.7 16.7 52.9 Q16.1 53.1 15.45 53.45 L15.0 53.65 13.95 54.25 13.45 54.6 13.2 54.75 12.7 55.15 12.35 55.45 12.15 55.6 10.9 57.0 10.15 58.35 10.75 60.0 12.1 63.5 Q9.8 63.45 7.45 62.45 6.3 61.85 5.3 59.6 4.25 57.3 3.35 54.05 L1.65 47.45 0.1 41.25 Q-0.15 40.1 0.2 40.0 L0.55 40.4 0.6 40.8 1.4 43.95 2.9 49.15 4.45 54.45 5.6 58.0 Q6.2 60.0 7.2 61.3 8.2 62.65 10.25 62.6 8.6 61.8 8.25 60.35 7.85 58.95 9.05 57.25 10.45 55.3 12.4 54.0 14.3 52.7 16.1 52.0 17.15 51.55 18.0 51.4 M22.85 56.05 L21.05 57.95 19.3 53.9 18.75 52.55 18.85 52.7 Q20.45 54.8 23.1 55.9 L22.85 56.05" fill="#411c14" fill-rule="evenodd" stroke="none"/>
      <path d="M17.45 42.6 Q17.05 43.75 16.9 45.05 L13.9 45.85 Q10.9 46.8 8.3 48.7 5.65 50.6 4.2 53.5 L5.3 57.0 Q5.85 55.3 7.75 53.35 9.65 51.45 12.25 49.9 14.6 48.55 16.9 47.9 17.15 49.8 18.0 51.4 17.15 51.55 16.1 52.0 14.3 52.7 12.4 54.0 10.45 55.3 9.05 57.25 7.85 58.95 8.25 60.35 8.6 61.8 10.25 62.6 8.2 62.65 7.2 61.3 6.2 60.0 5.6 58.0 L4.45 54.45 2.9 49.15 1.4 43.95 0.6 40.8 0.55 40.4 0.6 39.05 0.9 36.8 1.3 34.9 1.3 34.8 Q1.6 33.7 2.65 32.65 3.75 31.6 5.35 31.25 6.95 30.85 8.75 31.6 10.5 32.35 12.15 34.85 L16.25 40.95 17.45 42.6" fill="#ffbd20" fill-rule="evenodd" stroke="none"/>
      <path d="M16.9 45.05 L16.8 46.45 16.9 47.85 16.9 47.9 Q14.6 48.55 12.25 49.9 9.65 51.45 7.75 53.35 5.85 55.3 5.3 57.0 L4.2 53.5 Q5.65 50.6 8.3 48.7 10.9 46.8 13.9 45.85 L16.9 45.05" fill="#e31e00" fill-rule="evenodd" stroke="none"/>
      <path d="M19.55 58.0 L20.15 59.4 20.1 59.45 Q19.1 61.45 19.1 63.7 L19.2 65.15 Q19.5 67.05 20.55 68.5 21.6 69.9 23.2 70.65 21.65 71.1 20.55 72.3 L19.75 73.4 Q18.85 72.5 18.4 71.3 L17.05 67.25 15.9 62.75 Q15.45 60.6 15.5 59.6 15.65 58.4 16.35 57.3 17.05 56.15 18.35 55.35 L19.55 58.0" fill="#6fb9d7" fill-rule="evenodd" stroke="none"/>
      <path d="M17.1 52.7 L18.35 55.35 18.65 56.0 19.55 58.0 18.35 55.35 Q17.05 56.15 16.35 57.3 15.65 58.4 15.5 59.6 15.45 60.6 15.9 62.75 L17.05 67.25 18.4 71.3 Q18.85 72.5 19.75 73.4 19.25 74.25 19.0 75.25 L18.85 76.2 18.35 75.65 17.15 73.1 15.4 68.8 13.5 63.95 11.85 59.6 10.9 57.0 12.35 55.45 12.7 55.15 13.2 54.75 13.45 54.6 13.95 54.25 15.0 53.65 15.45 53.45 Q16.1 53.1 16.7 52.9 L17.1 52.7" fill="#3d7db8" fill-rule="evenodd" stroke="none"/>
      <path d="M12.35 55.45 L10.9 57.0 12.15 55.6 12.35 55.45" fill="#1d3f60" fill-rule="evenodd" stroke="none"/>
    </g>
  </defs>
</svg>
