<?xml version="1.0" encoding="UTF-8" standalone="no"?>
<svg xmlns:xlink="http://www.w3.org/1999/xlink" height="349.75px" width="135.2px" xmlns="http://www.w3.org/2000/svg">
  <g transform="matrix(1.0, 0.0, 0.0, 1.0, 0.0, 0.0)">
    <use height="97.55" transform="matrix(1.0, 0.0, 0.0, 1.0, 0.0, 183.0)" width="51.7" xlink:href="#shape0"/>
    <use height="166.25" transform="matrix(1.0, 0.0, 0.0, 1.0, 10.45, 183.0)" width="77.05" xlink:href="#shape1"/>
    <use height="91.85" transform="matrix(1.0, 0.0, 0.0, 1.0, 4.65, 105.05)" width="98.0" xlink:href="#shape2"/>
    <use height="90.8" transform="matrix(0.9997, -0.0223, 0.0223, 0.9997, 66.45, 153.85)" width="66.45" xlink:href="#shape3"/>
  </g>
  <defs>
    <g id="shape0" transform="matrix(1.0, 0.0, 0.0, 1.0, 0.0, 0.0)">
      <path d="M47.55 13.6 L47.5 13.6 45.2 15.4 43.6 16.65 39.95 19.6 37.0 21.45 27.4 5.55 27.6 5.4 27.85 5.2 35.15 3.15 41.8 1.15 Q46.7 0.0 48.75 1.5 L49.2 1.85 51.1 5.3 Q51.0 7.9 50.2 10.25 L49.25 12.1 Q48.65 13.05 47.55 13.6 M34.65 22.65 Q32.2 23.75 29.45 24.55 28.25 23.6 26.7 21.25 L25.4 19.2 24.9 18.35 23.65 16.15 21.6 12.15 21.05 11.05 21.0 10.95 19.7 7.9 Q19.45 7.05 19.9 6.5 20.3 5.95 21.0 6.05 L23.75 5.95 24.15 5.9 23.15 6.05 24.55 8.95 25.2 10.2 25.75 11.3 28.45 16.1 29.0 16.95 29.3 17.45 33.25 23.2 34.65 22.65" fill="#ffbd20" fill-rule="evenodd" stroke="none"/>
      <path d="M47.55 13.6 L46.0 15.35 43.9 17.4 40.95 19.75 Q36.1 23.3 29.1 25.55 27.85 24.6 26.3 22.15 L24.75 19.6 23.2 20.5 17.9 23.75 13.1 26.75 10.3 28.5 11.15 30.15 13.3 34.15 15.9 39.05 17.8 42.55 Q19.15 41.95 20.5 41.9 22.55 41.85 24.25 43.9 L24.55 44.3 27.1 44.1 29.3 44.25 Q35.2 38.35 38.8 36.75 42.4 35.15 44.7 37.2 L47.6 39.45 50.65 41.7 Q52.0 42.85 51.65 44.7 51.35 46.5 49.7 48.05 48.1 49.6 45.65 49.9 L42.2 49.6 40.15 48.75 39.45 48.25 38.5 50.05 35.9 54.3 Q34.15 56.75 31.75 59.1 29.35 61.4 26.4 62.65 27.25 64.85 26.9 66.85 26.55 68.9 25.4 70.9 L22.9 75.0 21.4 77.7 20.75 79.0 Q23.65 80.05 24.8 82.1 25.95 84.2 25.3 86.75 L24.65 88.4 25.0 90.7 Q25.15 92.65 24.55 94.35 23.95 96.1 22.3 97.15 L19.6 97.2 Q18.25 96.5 17.5 94.45 L16.4 91.95 14.9 89.15 14.4 88.2 12.15 87.8 Q10.85 87.5 9.95 85.9 9.1 84.3 9.3 81.95 9.5 79.6 11.5 77.1 10.3 74.3 9.45 71.45 8.55 68.55 8.6 65.45 8.65 62.9 9.7 60.05 8.0 58.3 7.95 56.1 7.9 53.8 9.05 51.45 L10.2 49.55 7.85 45.2 4.8 39.3 2.0 33.8 0.45 30.35 Q-0.5 27.95 0.6 25.5 1.7 23.0 5.6 20.35 L9.75 17.7 15.1 14.45 20.4 11.3 19.1 8.5 Q18.85 7.85 18.85 7.0 18.85 6.1 19.3 5.55 19.7 4.95 20.75 5.25 L22.6 5.25 24.8 5.0 27.9 4.35 34.9 2.45 41.2 0.55 48.75 0.8 50.0 1.85 Q51.15 3.2 51.1 5.3 L49.2 1.85 48.75 1.5 Q46.7 0.0 41.8 1.15 L35.15 3.15 27.85 5.2 26.35 5.55 25.1 5.75 24.95 5.8 24.15 5.9 23.75 5.95 21.0 6.05 Q20.3 5.95 19.9 6.5 19.45 7.05 19.7 7.9 L21.0 10.95 21.05 11.05 21.6 12.15 23.65 16.15 24.9 18.35 25.4 19.2 26.7 21.25 Q28.25 23.6 29.45 24.55 32.2 23.75 34.65 22.65 L35.2 22.4 37.0 21.45 39.95 19.6 43.6 16.65 45.2 15.4 47.5 13.6 47.55 13.6 M11.95 86.35 Q12.5 86.8 13.2 86.95 L16.65 87.6 Q18.25 87.85 19.85 88.45 21.9 89.3 23.05 88.95 24.25 88.65 24.85 86.5 25.25 85.0 24.95 83.55 24.65 82.1 23.5 81.05 22.35 80.05 20.3 79.9 18.85 82.3 16.5 83.45 18.15 82.1 19.3 80.3 L21.35 76.75 22.75 74.05 24.8 70.25 Q25.75 68.3 25.95 66.2 26.15 64.15 25.15 61.9 24.7 60.85 24.95 60.85 25.15 60.85 25.6 61.15 L26.25 61.4 Q28.75 60.8 30.95 58.85 33.15 56.85 34.9 54.25 L37.9 49.2 39.85 45.05 40.55 43.35 40.35 44.6 39.7 47.35 42.4 48.5 46.45 49.0 Q48.35 48.85 49.6 47.55 50.85 46.25 51.1 44.7 L51.15 44.35 Q51.25 43.0 50.3 42.15 L47.6 40.15 44.9 38.3 Q44.1 37.6 42.85 37.2 L39.75 37.3 Q37.95 37.8 35.4 39.75 32.85 41.7 29.45 45.7 L28.0 45.25 25.2 45.35 Q26.0 46.85 26.25 48.55 L26.3 50.5 25.65 53.75 Q24.75 56.35 22.75 58.7 L21.65 59.75 Q20.2 61.0 18.45 61.6 16.05 62.4 13.75 62.1 11.9 61.8 10.55 60.8 9.55 63.45 9.55 65.8 9.55 68.8 10.45 71.5 11.3 74.25 12.5 77.05 L10.55 81.0 10.4 81.6 Q10.1 83.55 10.7 84.85 11.2 85.85 11.95 86.35 M23.2 16.85 L20.95 12.45 Q20.4 12.7 19.85 13.05 L17.75 14.2 11.5 17.7 6.35 20.9 Q2.5 23.5 1.4 25.65 0.35 27.75 1.3 30.1 L1.6 30.85 2.85 33.5 5.6 38.8 8.6 44.5 11.05 49.1 12.05 50.95 Q12.65 51.8 13.95 51.95 15.25 52.1 16.6 51.5 17.9 50.9 18.6 49.5 19.35 48.15 18.8 45.95 L17.35 43.35 14.95 38.9 12.3 33.95 10.15 29.95 9.25 28.3 12.15 26.45 17.15 23.25 22.7 19.7 23.9 18.95 24.25 18.75 23.2 16.85 M25.15 47.15 L23.7 44.75 23.6 44.65 23.5 44.55 Q22.1 43.15 20.45 43.15 L20.3 43.15 20.25 43.15 18.4 43.65 19.7 46.05 Q20.15 48.5 19.2 50.05 18.25 51.6 16.65 52.3 15.0 52.95 13.5 52.85 12.0 52.75 11.35 51.85 L10.65 50.5 9.9 51.75 Q8.8 53.8 8.85 55.8 8.9 57.8 10.45 59.5 L10.95 60.0 11.0 60.05 Q12.55 61.45 14.3 61.65 16.4 61.85 18.4 60.85 20.4 59.85 22.1 57.95 24.0 55.85 24.9 53.5 25.8 51.15 25.55 48.85 L25.15 47.15 M15.85 89.25 L17.1 91.65 18.05 93.75 Q18.7 95.45 19.8 96.05 L21.85 96.15 Q23.5 95.05 23.7 93.05 23.85 91.3 23.5 89.6 L23.35 89.65 Q22.0 90.3 19.4 89.15 17.8 88.5 15.9 88.35 L15.35 88.3 15.85 89.25" fill="#000000" fill-rule="evenodd" stroke="none"/>
      <path d="M11.95 86.35 Q11.2 85.85 10.7 84.85 10.1 83.55 10.4 81.6 L10.55 81.0 12.5 77.05 Q11.3 74.25 10.45 71.5 9.55 68.8 9.55 65.8 9.55 63.45 10.55 60.8 11.9 61.8 13.75 62.1 16.05 62.4 18.45 61.6 20.2 61.0 21.65 59.75 20.0 61.7 17.8 63.1 14.8 64.95 13.7 67.1 12.6 69.2 12.7 71.4 12.8 73.6 13.45 75.7 L14.7 79.6 Q13.05 81.3 12.3 83.2 11.6 85.05 12.45 86.65 L11.95 86.35 M26.3 50.5 L26.25 48.55 Q26.0 46.85 25.2 45.35 L28.0 45.25 29.45 45.7 Q32.85 41.7 35.4 39.75 37.95 37.8 39.75 37.3 L42.85 37.2 Q44.1 37.6 44.9 38.3 L47.6 40.15 50.3 42.15 Q51.25 43.0 51.15 44.35 50.6 43.0 49.35 42.25 48.1 41.55 46.45 40.95 44.8 40.35 43.05 39.45 41.25 38.5 39.2 39.65 37.15 40.75 35.0 42.95 L30.6 47.55 Q29.65 47.6 28.55 48.25 27.45 48.9 26.65 50.0 L26.3 50.5 M10.95 60.0 L10.45 59.5 Q8.9 57.8 8.85 55.8 8.8 53.8 9.9 51.75 L10.65 50.5 11.35 51.85 Q12.0 52.75 13.5 52.85 15.0 52.95 16.65 52.3 18.25 51.6 19.2 50.05 20.15 48.5 19.7 46.05 L18.4 43.65 20.25 43.15 20.3 43.15 20.45 43.15 Q22.1 43.15 23.5 44.55 L23.6 44.65 23.7 44.75 25.15 47.15 Q25.25 47.5 24.8 47.25 24.35 46.95 23.6 46.7 22.9 46.5 22.1 47.0 21.35 47.5 20.75 49.4 20.35 50.7 19.15 52.3 18.0 53.9 16.5 54.8 15.5 55.3 14.45 55.25 L12.45 55.45 Q11.5 55.65 10.9 56.9 10.4 58.15 10.55 58.95 10.7 59.65 10.95 60.0" fill="#c2d6d4" fill-rule="evenodd" stroke="none"/>
      <path d="M51.15 44.35 L51.1 44.7 Q50.85 46.25 49.6 47.55 48.35 48.85 46.45 49.0 L42.4 48.5 39.7 47.35 40.35 44.6 40.55 43.35 39.85 45.05 37.9 49.2 34.9 54.25 Q33.15 56.85 30.95 58.85 28.75 60.8 26.25 61.4 L25.6 61.15 Q25.15 60.85 24.95 60.85 24.7 60.85 25.15 61.9 26.15 64.15 25.95 66.2 25.75 68.3 24.8 70.25 L22.75 74.05 21.35 76.75 19.3 80.3 Q18.15 82.1 16.5 83.45 18.85 82.3 20.3 79.9 22.35 80.05 23.5 81.05 24.65 82.1 24.95 83.55 25.25 85.0 24.85 86.5 24.25 88.65 23.05 88.95 21.9 89.3 19.85 88.45 18.25 87.85 16.65 87.6 L13.2 86.95 Q12.5 86.8 11.95 86.35 L12.45 86.65 Q11.6 85.05 12.3 83.2 13.05 81.3 14.7 79.6 L13.45 75.7 Q12.8 73.6 12.7 71.4 12.6 69.2 13.7 67.1 14.8 64.95 17.8 63.1 20.0 61.7 21.65 59.75 L22.75 58.7 Q24.75 56.35 25.65 53.75 L26.3 50.5 26.65 50.0 Q27.45 48.9 28.55 48.25 29.65 47.6 30.6 47.55 L35.0 42.95 Q37.15 40.75 39.2 39.65 41.25 38.5 43.05 39.45 44.8 40.35 46.45 40.95 48.1 41.55 49.35 42.25 50.6 43.0 51.15 44.35 M10.95 60.0 Q10.7 59.65 10.55 58.95 10.4 58.15 10.9 56.9 11.5 55.65 12.45 55.45 L14.45 55.25 Q15.5 55.3 16.5 54.8 18.0 53.9 19.15 52.3 20.35 50.7 20.75 49.4 21.35 47.5 22.1 47.0 22.9 46.5 23.6 46.7 24.35 46.95 24.8 47.25 25.25 47.5 25.15 47.15 L25.55 48.85 Q25.8 51.15 24.9 53.5 24.0 55.85 22.1 57.95 20.4 59.85 18.4 60.85 16.4 61.85 14.3 61.65 12.55 61.45 11.0 60.05 L10.95 60.0 M15.85 89.25 L15.35 88.3 15.9 88.35 Q17.8 88.5 19.4 89.15 22.0 90.3 23.35 89.65 L23.5 89.6 Q23.85 91.3 23.7 93.05 23.5 95.05 21.85 96.15 L19.8 96.05 Q18.7 95.45 18.05 93.75 L17.1 91.65 15.85 89.25" fill="#ffffff" fill-rule="evenodd" stroke="none"/>
      <path d="M37.0 21.45 L35.2 22.4 34.65 22.65 33.25 23.2 29.3 17.45 29.0 16.95 28.45 16.1 25.75 11.3 25.2 10.2 24.55 8.95 23.15 6.05 24.15 5.9 24.95 5.8 25.1 5.75 26.35 5.55 27.85 5.2 27.6 5.4 27.4 5.55 37.0 21.45" fill="#e31e00" fill-rule="evenodd" stroke="none"/>
      <path d="M23.2 16.85 L24.25 18.75 23.9 18.95 22.7 19.7 17.15 23.25 12.15 26.45 9.25 28.3 10.15 29.95 12.3 33.95 14.95 38.9 17.35 43.35 18.8 45.95 Q19.35 48.15 18.6 49.5 17.9 50.9 16.6 51.5 15.25 52.1 13.95 51.95 12.65 51.8 12.05 50.95 L11.05 49.1 8.6 44.5 5.6 38.8 2.85 33.5 1.6 30.85 1.3 30.1 Q0.35 27.75 1.4 25.65 2.5 23.5 6.35 20.9 L11.5 17.7 17.75 14.2 19.85 13.05 Q20.4 12.7 20.95 12.45 L23.2 16.85" fill="#488fc1" fill-rule="evenodd" stroke="none"/>
    </g>
    <g id="shape1" transform="matrix(1.0, 0.0, 0.0, 1.0, 5.45, 0.0)">
      <path d="M59.55 39.75 Q58.9 37.7 58.4 35.15 57.4 30.25 57.65 23.1 L57.8 15.7 Q57.8 12.05 57.1 9.0 56.4 5.95 54.5 3.85 52.65 1.75 49.15 1.1 L41.9 1.3 Q37.8 2.05 33.5 4.35 32.2 5.05 29.45 7.0 26.7 9.0 23.1 12.4 19.45 15.75 15.65 20.6 11.8 25.45 8.3 31.9 6.5 35.25 4.95 39.1 3.6 42.45 2.45 46.2 L2.4 46.35 Q1.9 48.15 2.35 48.85 2.8 49.6 3.7 49.85 L9.5 50.95 18.6 51.65 29.7 51.9 41.6 51.6 52.9 50.75 62.4 49.25 Q63.3 49.05 62.65 47.6 L62.3 46.75 62.35 46.7 61.05 43.85 59.55 39.75 M2.4 50.4 Q1.65 50.1 1.25 49.45 0.8 48.7 1.3 46.85 3.7 38.2 7.25 31.5 10.75 24.8 14.75 19.8 18.75 14.85 22.55 11.45 26.35 8.05 29.2 6.1 L33.45 3.45 Q37.65 1.15 41.85 0.4 46.05 -0.35 50.15 0.35 53.75 1.0 55.55 3.1 57.4 5.2 58.0 8.3 58.6 11.45 58.55 15.15 L58.25 22.8 Q58.05 30.15 59.25 35.25 60.5 40.3 62.1 43.45 L64.55 48.05 Q65.45 49.55 64.5 49.75 L64.1 49.85 63.1 50.1 54.65 51.35 42.7 52.25 30.15 52.55 18.3 52.3 8.7 51.6 3.75 50.8 2.65 50.5 2.4 50.4" fill="#411c14" fill-rule="evenodd" stroke="none"/>
      <path d="M4.95 39.1 Q6.5 35.25 8.3 31.9 11.8 25.45 15.65 20.6 19.45 15.75 23.1 12.4 26.7 9.0 29.45 7.0 32.2 5.05 33.5 4.35 37.8 2.05 41.9 1.3 L49.15 1.1 Q52.65 1.75 54.5 3.85 56.4 5.95 57.1 9.0 57.8 12.05 57.8 15.7 L57.65 23.1 Q57.4 30.25 58.4 35.15 58.9 37.7 59.55 39.75 L51.7 40.7 41.05 41.55 28.85 41.9 16.35 41.2 Q10.25 40.6 4.95 39.1 M62.3 46.75 L62.65 47.6 Q63.3 49.05 62.4 49.25 L52.9 50.75 41.6 51.6 29.7 51.9 18.6 51.65 9.5 50.95 3.7 49.85 Q2.8 49.6 2.35 48.85 1.9 48.15 2.4 46.35 L2.45 46.2 Q7.3 47.35 13.55 48.0 L26.7 48.8 Q33.6 48.95 40.25 48.75 L52.65 48.0 62.3 46.75" fill="#ffbd20" fill-rule="evenodd" stroke="none"/>
      <path d="M4.95 39.1 Q10.25 40.6 16.35 41.2 L28.85 41.9 41.05 41.55 51.7 40.7 59.55 39.75 61.05 43.85 62.35 46.7 62.3 46.75 52.65 48.0 40.25 48.75 Q33.6 48.95 26.7 48.8 L13.55 48.0 Q7.3 47.35 2.45 46.2 3.6 42.45 4.95 39.1" fill="#e31e00" fill-rule="evenodd" stroke="none"/>
      <path d="M2.4 50.4 L2.65 50.5 3.75 50.8 3.65 51.25 2.9 55.8 2.35 59.85 -0.65 80.95 -3.8 121.1 Q-2.35 122.95 -0.4 124.25 0.9 125.0 2.4 125.3 10.55 126.85 18.65 124.95 L18.8 124.7 18.7 124.65 20.6 124.1 20.65 124.1 26.85 121.4 26.3 98.05 24.3 97.75 22.25 97.2 Q21.35 97.0 20.5 96.35 L32.9 96.6 28.2 97.65 28.95 121.9 Q31.9 124.2 35.7 123.95 L47.85 124.35 53.65 124.6 58.0 124.4 62.25 123.55 65.5 122.6 Q67.8 121.9 69.95 120.3 L69.65 115.55 68.65 106.05 67.25 95.75 65.6 85.35 63.8 74.8 Q63.15 71.05 62.65 67.3 62.55 66.45 62.7 65.6 L62.85 65.65 62.8 65.45 Q62.8 64.4 63.15 63.7 63.5 62.95 64.0 62.95 L64.35 62.55 63.35 62.9 63.95 59.85 Q64.4 57.0 64.15 54.1 63.95 51.85 63.1 50.1 L64.1 49.85 Q65.25 51.8 65.45 54.25 65.7 57.1 65.25 59.85 L63.45 67.15 Q65.75 73.6 66.7 80.3 L67.5 86.6 Q68.25 93.25 69.4 99.6 70.65 106.7 71.2 113.9 L71.6 121.0 Q68.75 123.3 65.35 124.5 L61.05 125.5 66.85 166.25 65.15 166.25 59.3 125.4 48.95 125.85 50.2 132.9 52.8 147.25 54.45 157.65 54.55 158.4 55.55 166.25 53.9 166.25 52.95 158.45 47.25 125.75 36.2 125.15 Q31.85 125.7 28.2 123.3 L27.65 122.8 Q26.1 123.85 24.15 124.55 L20.45 125.65 17.55 148.05 Q16.85 153.0 16.3 159.15 L15.75 166.25 14.15 166.25 18.7 126.45 Q14.0 127.75 9.05 127.65 L8.75 127.65 4.6 166.25 2.9 166.25 3.4 160.95 7.0 127.4 Q4.1 127.35 1.5 126.35 L-1.65 125.15 Q-4.2 123.8 -5.45 121.5 L-5.1 117.55 -4.85 113.45 -3.05 90.3 Q-1.9 74.95 0.85 59.85 L1.45 55.65 2.25 51.1 2.4 50.4" fill="#341239" fill-rule="evenodd" stroke="none"/>
      <path d="M62.7 65.6 L62.8 65.45 62.85 65.65 62.7 65.6 M64.0 62.95 L63.35 62.9 64.35 62.55 64.0 62.95" fill="#000823" fill-rule="evenodd" stroke="none"/>
      <path d="M3.75 50.8 L8.7 51.6 18.3 52.3 30.15 52.55 42.7 52.25 54.65 51.35 63.1 50.1 Q63.95 51.85 64.15 54.1 64.4 57.0 63.95 59.85 L63.35 62.9 64.0 62.95 Q63.5 62.95 63.15 63.7 62.8 64.4 62.8 65.45 L62.7 65.6 Q62.55 66.45 62.65 67.3 63.15 71.05 63.8 74.8 L65.6 85.35 67.25 95.75 68.65 106.05 69.65 115.55 69.95 120.3 Q67.8 121.9 65.5 122.6 L62.25 123.55 58.0 124.4 53.65 124.6 47.85 124.35 35.7 123.95 Q31.9 124.2 28.95 121.9 L28.2 97.65 32.9 96.6 20.5 96.35 Q21.35 97.0 22.25 97.2 L24.3 97.75 26.3 98.05 26.85 121.4 20.65 124.1 20.6 124.05 20.6 124.1 18.7 124.65 18.8 124.7 18.65 124.95 Q10.55 126.85 2.4 125.3 0.9 125.0 -0.4 124.25 -2.35 122.95 -3.8 121.1 L-0.65 80.95 2.35 59.85 2.9 55.8 3.65 51.25 3.75 50.8" fill="#592d85" fill-rule="evenodd" stroke="none"/>
      <path d="M65.15 166.25 L55.55 166.25 54.55 158.4 54.45 157.65 52.8 147.25 50.2 132.9 48.95 125.85 59.3 125.4 65.15 166.25 M14.15 166.25 L4.6 166.25 8.75 127.65 9.05 127.65 Q14.0 127.75 18.7 126.45 L14.15 166.25" fill="#488fc1" fill-rule="evenodd" stroke="none"/>
    </g>
    <g id="shape2" transform="matrix(1.0, 0.0, 0.0, 1.0, 0.0, 0.0)">
      <path d="M78.65 28.75 L78.25 28.95 Q77.05 29.65 76.8 30.55 76.6 31.5 77.15 32.3 77.75 33.05 78.95 33.2 L79.1 33.15 79.15 38.3 Q78.85 45.5 77.8 53.05 L75.95 53.0 Q71.9 53.25 67.85 56.55 L60.5 54.6 61.9 50.0 Q62.7 47.05 63.05 43.45 63.45 39.75 62.7 36.0 L62.9 36.3 62.45 35.15 Q61.35 31.4 59.3 29.45 57.1 27.45 54.6 27.25 L53.9 27.2 51.9 27.5 Q50.85 27.8 49.95 28.4 47.85 29.8 46.9 32.55 L46.45 34.2 46.4 34.3 Q46.0 35.0 45.9 35.65 L45.9 36.5 46.0 36.55 45.65 39.15 Q45.35 42.8 45.5 46.35 45.65 49.2 46.1 51.55 L36.35 50.85 35.9 50.15 34.1 48.55 34.05 46.9 33.95 42.9 33.9 42.0 33.9 41.15 32.9 37.1 33.25 37.45 32.65 36.15 32.85 36.35 Q32.0 33.85 31.05 32.45 30.15 31.1 29.25 30.5 28.3 29.9 27.55 29.75 26.35 29.45 25.25 30.15 24.15 30.9 23.45 33.0 22.8 35.05 22.9 38.75 L22.85 40.1 22.95 41.25 Q23.0 41.65 23.1 41.2 23.4 43.85 24.25 47.3 21.75 47.8 20.2 48.8 L20.05 48.15 Q19.35 44.15 18.4 37.25 17.7 32.0 18.7 27.15 19.65 22.25 22.3 18.15 25.0 14.1 29.25 11.35 33.5 8.6 39.35 7.65 L39.55 7.5 39.0 7.2 38.7 6.85 Q40.85 3.6 43.75 2.25 46.7 0.85 49.8 1.1 52.95 1.35 55.55 3.05 58.2 4.75 59.7 7.7 59.55 8.15 59.0 8.3 58.45 8.45 58.5 8.7 67.0 9.85 71.55 14.05 76.15 18.2 77.75 24.5 L78.65 28.75 M59.25 16.25 Q57.2 15.65 55.2 16.8 53.15 17.95 51.85 20.85 53.05 19.4 54.9 18.65 56.7 17.9 58.6 18.25 60.5 18.55 61.95 20.2 63.45 21.85 63.95 25.15 64.05 21.25 62.7 19.0 61.35 16.8 59.25 16.25 M24.9 19.95 Q22.95 21.8 21.65 26.95 23.2 22.75 24.95 21.55 26.7 20.4 28.1 21.35 29.5 22.3 30.0 24.55 29.9 20.45 28.35 19.25 26.8 18.05 24.9 19.95" fill="#488fc1" fill-rule="evenodd" stroke="none"/>
      <path d="M79.1 33.15 L78.95 33.2 Q77.75 33.05 77.15 32.3 76.6 31.5 76.8 30.55 77.05 29.65 78.25 28.95 L78.65 28.75 79.55 28.3 Q81.8 27.2 83.8 26.75 82.3 27.4 81.55 28.2 80.8 29.0 81.2 29.45 L83.6 29.5 Q84.9 29.25 85.5 30.1 86.1 31.0 86.2 32.9 86.05 31.85 85.5 31.6 L83.15 31.55 80.8 32.35 80.0 32.75 79.1 33.15 M33.9 42.0 L33.95 42.9 34.05 46.9 34.1 48.55 34.05 48.5 32.25 47.65 Q30.5 47.0 27.9 47.0 L27.85 45.8 31.35 45.1 27.95 43.65 Q28.3 40.6 29.55 39.35 30.8 38.1 32.05 38.6 33.35 39.15 33.85 41.4 L33.9 42.0 M63.05 43.45 Q62.7 47.05 61.9 50.0 L60.5 54.6 57.9 53.9 53.6 52.9 53.3 51.4 Q53.05 49.9 53.1 47.35 L58.25 46.35 53.3 44.95 53.6 43.15 Q54.15 40.25 55.55 38.8 56.9 37.4 58.5 37.35 60.1 37.3 61.4 38.45 62.65 39.65 62.95 41.9 L63.05 43.45 M92.45 32.65 L92.45 34.8 91.65 44.7 Q91.25 49.95 91.35 55.75 91.5 61.55 92.85 67.9 L93.45 70.35 Q94.35 74.2 93.7 75.6 93.05 76.95 91.65 76.65 90.25 76.3 88.95 74.95 87.6 73.6 87.15 71.9 86.8 70.35 86.65 66.55 L86.7 57.85 87.25 47.7 Q87.7 42.55 88.5 38.2 89.25 33.8 90.35 31.25 90.65 30.7 91.0 31.15 L91.75 32.15 Q92.15 32.75 92.45 32.65 M98.0 88.15 L97.8 89.25 Q97.25 91.25 94.55 91.7 92.15 92.15 89.25 91.1 86.3 90.0 83.8 86.75 81.3 83.45 80.1 77.3 79.65 74.55 79.95 71.45 L80.05 70.4 80.15 69.7 Q80.6 66.3 81.45 62.45 L82.55 56.8 82.8 55.65 83.2 53.1 84.95 43.15 86.2 35.25 86.05 36.7 85.1 44.1 83.65 53.6 83.3 56.2 83.1 57.65 Q82.55 62.4 82.5 66.35 L82.45 67.2 82.45 68.4 Q82.5 73.5 83.55 77.35 84.65 81.65 86.9 84.85 88.75 87.4 90.9 88.4 93.05 89.4 94.95 89.25 96.9 89.1 98.0 88.15 M15.4 71.25 Q14.4 75.1 12.8 77.7 9.8 82.35 6.95 83.7 4.1 84.95 1.65 82.6 L2.0 82.9 Q-0.35 79.5 2.7 73.55 2.6 74.0 2.95 74.35 3.25 74.7 3.85 74.6 4.45 74.55 5.15 73.75 8.5 69.8 10.45 63.6 12.45 57.4 12.8 49.9 13.2 42.45 11.65 34.7 11.2 32.45 12.05 31.65 12.9 30.8 14.65 31.0 L17.2 31.45 17.15 32.85 Q15.45 32.35 15.1 33.3 14.65 34.45 15.75 38.25 16.4 40.8 16.85 44.7 L17.25 52.1 17.15 52.3 Q16.6 53.9 17.05 54.95 L16.3 55.55 Q14.1 57.45 12.95 59.95 11.8 62.45 12.05 65.05 12.3 67.7 14.2 69.95 L15.4 71.25 M50.9 75.15 L50.45 75.15 42.5 75.25 Q41.75 75.25 41.7 75.6 41.65 75.9 42.8 76.1 L45.75 76.75 51.15 78.0 52.4 78.3 53.15 78.45 57.35 79.25 62.1 79.8 62.1 79.85 62.8 79.85 62.85 79.85 Q65.85 79.85 67.6 77.85 L68.65 76.5 68.95 75.9 Q69.7 74.45 70.05 72.65 70.7 69.45 70.35 65.9 69.3 69.35 66.2 71.3 63.15 73.25 58.95 74.1 L51.4 75.1 50.9 75.15 M69.95 59.7 L70.95 63.65 71.2 66.4 71.2 69.15 Q71.25 70.8 70.7 73.15 70.15 75.5 68.85 77.55 67.55 79.6 65.2 80.25 62.8 80.8 59.3 80.3 L52.2 78.95 45.7 77.45 38.4 76.15 Q35.45 75.75 33.2 76.65 L32.15 76.85 Q31.7 76.85 32.25 76.4 34.25 75.1 38.05 74.8 L47.35 74.5 Q54.65 74.5 60.1 73.0 65.55 71.5 68.1 68.3 70.65 65.1 69.25 60.0 L69.35 59.7 69.95 59.7" fill="#111111" fill-rule="evenodd" stroke="none"/>
      <path d="M78.65 28.75 L77.75 24.5 Q76.15 18.2 71.55 14.05 67.0 9.85 58.5 8.7 58.45 8.45 59.0 8.3 59.55 8.15 59.7 7.7 58.2 4.75 55.55 3.05 52.95 1.35 49.8 1.1 46.7 0.85 43.75 2.25 40.85 3.6 38.7 6.85 L39.0 7.2 39.55 7.5 39.35 7.65 Q33.5 8.6 29.25 11.35 25.0 14.1 22.3 18.15 19.65 22.25 18.7 27.15 17.7 32.0 18.4 37.25 19.35 44.15 20.05 48.15 L20.2 48.8 19.65 49.15 19.3 49.45 19.15 48.75 17.45 37.5 Q17.1 35.1 17.15 32.85 L17.2 31.45 17.3 29.85 17.75 27.0 Q18.8 21.9 21.5 17.7 24.15 13.5 28.3 10.7 32.4 7.9 37.8 7.05 40.0 3.15 43.25 1.45 46.5 -0.25 49.95 0.05 53.45 0.35 56.3 2.4 59.15 4.45 60.55 8.0 68.55 9.3 72.85 13.65 77.2 17.95 78.75 24.4 L79.55 28.3 78.65 28.75 M77.8 53.05 Q78.85 45.5 79.15 38.3 L79.1 33.15 80.0 32.75 80.05 38.6 Q79.8 45.7 78.8 53.25 L77.8 53.05 M59.25 16.25 Q61.35 16.8 62.7 19.0 64.05 21.25 63.95 25.15 63.45 21.85 61.95 20.2 60.5 18.55 58.6 18.25 56.7 17.9 54.9 18.65 53.05 19.4 51.85 20.85 53.15 17.95 55.2 16.8 57.2 15.65 59.25 16.25 M24.9 19.95 Q26.8 18.05 28.35 19.25 29.9 20.45 30.0 24.55 29.5 22.3 28.1 21.35 26.7 20.4 24.95 21.55 23.2 22.75 21.65 26.95 22.95 21.8 24.9 19.95" fill="#1b2e54" fill-rule="evenodd" stroke="none"/>
      <path d="M36.35 50.85 L46.1 51.55 46.65 51.6 53.6 52.9 57.9 53.9 60.5 54.6 67.85 56.55 Q71.9 53.25 75.95 53.0 L77.8 53.05 78.8 53.25 Q80.95 53.85 82.8 55.65 L82.55 56.8 82.0 56.1 Q80.5 54.6 78.65 54.15 L77.7 53.95 77.65 53.95 Q75.3 53.75 72.8 54.7 70.25 55.6 68.1 57.2 L60.25 55.15 58.3 54.65 Q53.0 53.35 47.1 52.45 L46.25 52.35 36.8 51.8 36.35 50.85 M86.2 32.9 Q86.1 31.0 85.5 30.1 84.9 29.25 83.6 29.5 L81.2 29.45 Q80.8 29.0 81.55 28.2 82.3 27.4 83.8 26.75 L83.9 26.7 Q87.5 25.9 89.8 27.25 91.0 28.0 91.7 29.45 92.3 30.75 92.45 32.65 92.15 32.75 91.75 32.15 L91.0 31.15 Q90.65 30.7 90.35 31.25 89.25 33.8 88.5 38.2 87.7 42.55 87.25 47.7 L86.7 57.85 86.65 66.55 Q86.8 70.35 87.15 71.9 87.6 73.6 88.95 74.95 90.25 76.3 91.65 76.65 93.05 76.95 93.7 75.6 94.35 74.2 93.45 70.35 L94.85 75.25 95.55 77.45 97.35 83.5 97.65 84.7 Q98.1 86.7 98.0 88.15 96.9 89.1 94.95 89.25 93.05 89.4 90.9 88.4 88.75 87.4 86.9 84.85 84.65 81.65 83.55 77.35 82.5 73.5 82.45 68.4 L82.45 67.2 82.5 66.35 Q82.55 62.4 83.1 57.65 L83.3 56.2 83.65 53.6 85.1 44.1 86.05 36.7 86.2 35.25 86.25 34.8 86.25 34.35 86.25 34.0 86.25 33.7 86.25 33.6 86.25 33.55 86.2 32.9 M79.95 71.45 L77.6 73.6 73.85 75.7 Q73.25 78.2 72.1 79.8 70.5 82.0 68.2 82.9 65.95 83.75 63.4 83.75 L58.35 83.5 53.6 82.6 48.2 81.35 45.45 80.85 36.1 80.25 Q29.55 79.4 23.85 76.95 19.05 74.8 15.4 71.25 L14.2 69.95 Q12.3 67.7 12.05 65.05 11.8 62.45 12.95 59.95 14.1 57.45 16.3 55.55 L17.05 54.95 17.05 55.0 17.25 55.4 17.65 55.95 17.25 56.3 15.95 57.55 15.65 57.95 Q15.35 57.95 15.1 58.45 L14.95 58.9 Q13.95 60.4 13.55 62.1 L13.45 62.45 13.45 62.65 13.3 63.65 Q13.05 67.0 15.55 69.95 L15.7 70.1 Q19.25 73.9 24.5 76.05 29.85 78.25 36.2 79.05 L43.5 79.65 43.55 79.6 47.6 80.05 52.65 81.25 Q55.35 81.95 57.9 82.25 L62.5 82.7 67.35 82.1 Q69.7 81.4 71.4 79.0 72.65 77.2 73.2 74.1 73.5 72.9 73.9 72.75 74.3 72.6 74.25 73.55 L74.1 74.55 Q76.1 73.6 77.25 72.65 L80.15 69.7 80.05 70.4 79.95 71.45 M1.65 82.6 L1.55 82.5 Q-0.05 80.75 0.0 78.25 0.05 75.8 1.1 73.3 2.15 70.8 3.65 69.0 5.45 66.85 6.85 63.55 8.2 60.3 9.1 56.45 10.05 52.65 10.5 48.85 11.0 45.1 10.95 41.95 10.95 38.8 10.4 36.85 9.2 32.15 11.1 30.55 13.0 28.95 17.3 29.85 L17.2 31.45 14.65 31.0 Q12.9 30.8 12.05 31.65 11.2 32.45 11.65 34.7 13.2 42.45 12.8 49.9 12.45 57.4 10.45 63.6 8.5 69.8 5.15 73.75 4.45 74.55 3.85 74.6 3.25 74.7 2.95 74.35 2.6 74.0 2.7 73.55 -0.35 79.5 2.0 82.9 L1.65 82.6 M69.35 59.7 L68.35 59.85 67.75 59.7 Q67.55 59.45 68.0 59.3 L70.8 59.15 Q71.4 59.35 71.25 59.65 L70.6 59.8 69.95 59.7 69.35 59.7" fill="#2a1b2c" fill-rule="evenodd" stroke="none"/>
      <path d="M22.9 38.75 Q22.8 35.05 23.45 33.0 24.15 30.9 25.25 30.15 26.35 29.45 27.55 29.75 28.3 29.9 29.25 30.5 30.15 31.1 31.05 32.45 32.0 33.85 32.85 36.35 L32.65 36.15 32.5 35.9 Q29.75 32.85 27.8 32.5 25.85 32.2 24.6 33.95 23.45 35.6 22.95 38.6 L22.9 38.75 M51.9 27.5 L53.9 27.2 54.6 27.25 Q57.1 27.45 59.3 29.45 61.35 31.4 62.45 35.15 61.45 32.9 59.8 31.4 57.75 29.55 55.3 29.1 52.85 28.65 50.5 29.9 48.2 31.1 46.55 34.05 L46.95 32.55 Q47.9 29.75 50.0 28.4 50.9 27.8 51.9 27.5" fill="#0b4f7d" fill-rule="evenodd" stroke="none"/>
      <path d="M23.1 41.2 Q23.0 41.65 22.95 41.25 L22.85 40.1 22.9 38.75 22.95 38.6 Q23.45 35.6 24.6 33.95 25.85 32.2 27.8 32.5 29.75 32.85 32.5 35.9 L32.65 36.15 33.25 37.45 32.9 37.1 Q31.1 35.4 29.25 34.75 27.25 34.0 25.6 35.4 23.95 36.85 23.1 41.2 M46.0 36.55 L45.9 36.5 45.9 35.65 Q46.0 35.0 46.4 34.3 L46.45 34.2 46.55 34.05 Q48.2 31.1 50.5 29.9 52.85 28.65 55.3 29.1 57.75 29.55 59.8 31.4 61.45 32.9 62.45 35.15 L62.9 36.3 62.7 36.0 Q60.25 32.85 57.3 31.8 54.15 30.65 51.2 31.8 48.25 32.9 46.35 36.2 L46.0 36.55" fill="#0c1748" fill-rule="evenodd" stroke="none"/>
      <path d="M24.25 47.3 Q23.4 43.85 23.1 41.2 23.95 36.85 25.6 35.4 27.25 34.0 29.25 34.75 31.1 35.4 32.9 37.1 L33.9 41.15 33.9 42.0 33.85 41.4 Q33.35 39.15 32.05 38.6 30.8 38.1 29.55 39.35 28.3 40.6 27.95 43.65 L31.35 45.1 27.85 45.8 27.9 47.0 25.2 47.15 24.25 47.3 M46.1 51.55 Q45.65 49.2 45.5 46.35 45.35 42.8 45.65 39.15 L46.0 36.55 46.35 36.2 Q48.25 32.9 51.2 31.8 54.15 30.65 57.3 31.8 60.25 32.85 62.7 36.0 63.45 39.75 63.05 43.45 L62.95 41.9 Q62.65 39.65 61.4 38.45 60.1 37.3 58.5 37.35 56.9 37.4 55.55 38.8 54.15 40.25 53.6 43.15 L53.3 44.95 58.25 46.35 53.1 47.35 Q53.05 49.9 53.3 51.4 L53.6 52.9 46.65 51.6 46.1 51.55 M46.45 34.2 L46.9 32.55 Q47.85 29.8 49.95 28.4 50.85 27.8 51.9 27.5 50.9 27.8 50.0 28.4 47.9 29.75 46.95 32.55 L46.55 34.05 46.45 34.2 M52.4 78.3 L51.15 78.0 45.75 76.75 42.8 76.1 Q41.65 75.9 41.7 75.6 41.75 75.25 42.5 75.25 L50.45 75.15 50.9 75.15 50.75 75.15 52.4 78.3 M51.4 75.1 L58.95 74.1 Q63.15 73.25 66.2 71.3 69.3 69.35 70.35 65.9 70.7 69.45 70.05 72.65 69.7 74.45 68.95 75.9 L66.0 71.45 65.5 71.75 67.05 74.1 68.65 76.5 67.6 77.85 Q65.85 79.85 62.85 79.85 L60.8 76.95 58.8 74.15 58.2 74.3 60.2 77.1 62.1 79.8 57.35 79.25 53.15 78.45 52.35 76.95 51.4 75.1" fill="#ffffff" fill-rule="evenodd" stroke="none"/>
      <path d="M82.55 56.8 L81.45 62.45 Q80.6 66.3 80.15 69.7 L77.25 72.65 Q76.1 73.6 74.1 74.55 L74.25 73.55 Q74.3 72.6 73.9 72.75 73.5 72.9 73.2 74.1 72.65 77.2 71.4 79.0 69.7 81.4 67.35 82.1 L62.5 82.7 57.9 82.25 Q55.35 81.95 52.65 81.25 L47.6 80.05 43.55 79.6 43.5 79.65 36.2 79.05 Q29.85 78.25 24.5 76.05 19.25 73.9 15.7 70.1 L15.55 69.95 Q13.05 67.0 13.3 63.65 L13.45 62.65 Q13.45 63.15 13.8 63.3 14.2 63.4 14.35 62.7 14.4 62.0 14.05 61.8 13.75 61.75 13.55 62.1 13.95 60.4 14.95 58.9 14.9 59.2 15.1 59.4 15.5 59.55 15.85 58.95 16.1 58.3 15.8 58.0 L15.65 57.95 15.95 57.55 17.25 56.3 17.65 55.95 Q18.7 57.25 20.9 57.8 23.85 58.45 28.85 57.9 L31.95 57.4 34.3 56.65 35.0 56.3 Q37.0 55.15 37.0 52.8 L36.8 51.8 46.25 52.35 47.1 52.45 Q53.0 53.35 58.3 54.65 L60.25 55.15 68.1 57.2 Q70.25 55.6 72.8 54.7 75.3 53.75 77.65 53.95 L77.7 53.95 78.65 54.15 Q80.5 54.6 82.0 56.1 L82.55 56.8 M44.7 54.3 Q44.75 53.6 44.05 53.4 43.35 53.35 43.15 54.0 43.1 54.75 43.75 54.9 44.45 55.0 44.7 54.3 M45.4 61.2 Q45.5 60.4 44.75 60.15 43.95 60.1 43.7 60.85 43.65 61.65 44.4 61.85 45.2 61.95 45.4 61.2 M51.05 57.35 L51.1 57.7 Q51.2 58.1 51.65 58.2 52.25 58.3 52.55 57.75 L52.6 57.6 Q52.65 56.9 51.95 56.7 51.25 56.65 51.05 57.35 M69.35 59.7 L69.25 60.0 Q70.65 65.1 68.1 68.3 65.55 71.5 60.1 73.0 54.65 74.5 47.35 74.5 L38.05 74.8 Q34.25 75.1 32.25 76.4 31.7 76.85 32.15 76.85 L33.2 76.65 Q35.45 75.75 38.4 76.15 L45.7 77.45 52.2 78.95 59.3 80.3 Q62.8 80.8 65.2 80.25 67.55 79.6 68.85 77.55 70.15 75.5 70.7 73.15 71.25 70.8 71.2 69.15 L71.2 66.4 70.95 63.65 69.95 59.7 70.6 59.8 71.25 59.65 Q71.4 59.35 70.8 59.15 L68.0 59.3 Q67.55 59.45 67.75 59.7 L68.35 59.85 69.35 59.7 M56.9 61.1 Q56.85 61.85 57.55 62.1 58.3 62.15 58.5 61.45 58.6 60.7 57.9 60.45 57.15 60.4 56.9 61.1 M60.25 56.9 Q60.3 56.3 59.8 56.05 L59.6 56.0 Q58.9 55.95 58.7 56.6 58.65 57.35 59.35 57.5 60.0 57.6 60.25 56.9" fill="#fee36a" fill-rule="evenodd" stroke="none"/>
      <path d="M20.2 48.8 Q21.75 47.8 24.25 47.3 L25.2 47.15 27.9 47.0 Q30.5 47.0 32.25 47.65 L34.05 48.5 34.1 48.55 35.9 50.15 36.35 50.85 36.8 51.8 37.0 52.8 Q37.0 55.15 35.0 56.3 L34.3 56.65 31.95 57.4 28.85 57.9 Q23.85 58.45 20.9 57.8 18.7 57.25 17.65 55.95 L17.25 55.4 17.05 55.0 17.05 54.95 Q16.6 53.9 17.15 52.3 L17.25 52.1 Q17.8 50.7 19.3 49.45 L19.65 49.15 20.2 48.8 M27.05 48.0 L30.5 48.1 Q32.7 48.35 34.05 49.0 L34.1 49.0 34.05 48.95 Q32.4 47.85 30.1 47.5 27.7 47.2 25.3 47.55 L24.35 47.75 Q22.45 48.15 20.95 48.95 L20.3 49.4 19.4 50.15 Q18.8 50.75 18.45 51.55 18.8 50.85 19.45 50.35 L20.35 49.7 Q20.75 49.4 21.25 49.2 L22.0 48.95 21.95 48.95 Q21.35 49.8 21.6 50.4 22.3 51.75 25.85 51.4 L26.75 51.3 28.0 50.9 Q28.75 50.5 28.7 49.75 28.7 49.1 27.8 48.4 L27.05 48.0" fill="#2f094d" fill-rule="evenodd" stroke="none"/>
      <path d="M22.0 48.95 L21.25 49.2 Q20.75 49.4 20.35 49.7 L19.45 50.35 Q18.8 50.85 18.45 51.55 18.8 50.75 19.4 50.15 L20.3 49.4 20.95 48.95 Q22.45 48.15 24.35 47.75 L25.3 47.55 Q27.7 47.2 30.1 47.5 32.4 47.85 34.05 48.95 L34.1 49.0 34.05 49.0 Q32.7 48.35 30.5 48.1 L27.05 48.0 24.5 47.8 24.35 47.85 Q22.6 48.1 22.0 48.95" fill="#8c409c" fill-rule="evenodd" stroke="none"/>
      <path d="M27.05 48.0 L27.8 48.4 Q28.7 49.1 28.7 49.75 28.75 50.5 28.0 50.9 L26.75 51.3 25.85 51.4 Q22.3 51.75 21.6 50.4 21.35 49.8 21.95 48.95 L22.0 48.95 Q22.6 48.1 24.35 47.85 L24.5 47.8 27.05 48.0 M22.1 49.95 Q22.6 51.0 25.3 50.8 L25.6 50.75 Q28.05 50.65 28.0 49.45 28.0 48.95 27.2 48.35 26.45 47.75 24.5 47.9 L24.4 47.95 Q22.9 48.15 22.4 48.8 21.9 49.5 22.1 49.95" fill="#c575b8" fill-rule="evenodd" stroke="none"/>
      <path d="M22.1 49.95 Q21.9 49.5 22.4 48.8 22.9 48.15 24.4 47.95 L24.5 47.9 Q26.45 47.75 27.2 48.35 28.0 48.95 28.0 49.45 28.05 50.65 25.6 50.75 L25.3 50.8 Q22.6 51.0 22.1 49.95" fill="#f3d6ea" fill-rule="evenodd" stroke="none"/>
      <path d="M44.7 54.3 Q44.45 55.0 43.75 54.9 43.1 54.75 43.15 54.0 43.35 53.35 44.05 53.4 44.75 53.6 44.7 54.3 M51.05 57.35 Q51.25 56.65 51.95 56.7 52.65 56.9 52.6 57.6 L52.55 57.75 Q52.25 58.3 51.65 58.2 51.2 58.1 51.1 57.7 L51.05 57.35 M45.4 61.2 Q45.2 61.95 44.4 61.85 43.65 61.65 43.7 60.85 43.95 60.1 44.75 60.15 45.5 60.4 45.4 61.2 M15.65 57.95 L15.8 58.0 Q16.1 58.3 15.85 58.95 15.5 59.55 15.1 59.4 14.9 59.2 14.95 58.9 L15.1 58.45 Q15.35 57.95 15.65 57.95 M13.55 62.1 Q13.75 61.75 14.05 61.8 14.4 62.0 14.35 62.7 14.2 63.4 13.8 63.3 13.45 63.15 13.45 62.65 L13.45 62.45 13.55 62.1 M60.25 56.9 Q60.0 57.6 59.35 57.5 58.65 57.35 58.7 56.6 58.9 55.95 59.6 56.0 L59.8 56.05 Q60.3 56.3 60.25 56.9 M56.9 61.1 Q57.15 60.4 57.9 60.45 58.6 60.7 58.5 61.45 58.3 62.15 57.55 62.1 56.85 61.85 56.9 61.1" fill="#996400" fill-rule="evenodd" stroke="none"/>
      <path d="M50.9 75.15 L51.4 75.1 52.35 76.95 53.15 78.45 52.4 78.3 50.75 75.15 50.9 75.15" fill="#2c3d79" fill-rule="evenodd" stroke="none"/>
      <path d="M68.95 75.9 L68.65 76.5 67.05 74.1 65.5 71.75 66.0 71.45 68.95 75.9 M62.85 79.85 L62.8 79.85 62.1 79.85 62.1 79.8 60.2 77.1 58.2 74.3 58.8 74.15 60.8 76.95 62.85 79.85" fill="#476db1" fill-rule="evenodd" stroke="none"/>
    </g>
    <g id="shape3" transform="matrix(1.0, 0.0, 0.0, 1.0, 0.0, 0.0)">
      <path d="M17.85 41.5 L18.25 40.6 Q19.7 37.9 22.15 36.25 26.45 33.4 31.75 32.05 L31.35 28.7 Q31.1 26.35 31.1 23.15 31.05 19.9 31.5 16.35 31.95 12.8 33.05 9.55 34.2 6.25 36.25 3.8 38.6 1.05 41.9 0.3 45.2 -0.5 48.7 0.85 52.25 2.3 54.35 5.35 56.4 8.35 56.45 12.1 L56.45 12.6 Q56.25 16.2 55.2 19.15 L52.85 24.85 51.35 28.4 Q50.65 30.15 50.25 31.95 54.95 33.05 58.65 35.05 62.35 37.1 64.35 39.65 65.35 40.9 65.9 42.65 66.45 44.4 66.45 46.35 66.45 48.5 65.75 50.55 65.1 52.65 63.85 54.5 L63.85 54.7 63.9 57.0 Q63.9 76.0 56.55 85.45 54.45 88.1 51.1 89.35 47.8 90.6 43.85 90.75 L35.95 90.2 Q32.0 89.5 28.6 88.2 25.15 86.9 22.9 85.3 21.0 83.9 19.9 81.8 18.85 79.75 18.8 77.55 L17.65 76.55 16.25 73.65 14.3 69.0 12.3 64.0 12.1 63.5 10.75 60.0 10.15 58.35 10.9 57.0 11.85 59.6 13.5 63.95 15.4 68.8 17.15 73.1 18.35 75.65 18.85 76.2 19.0 75.25 Q19.25 74.25 19.75 73.4 L20.55 72.3 Q21.65 71.1 23.2 70.65 21.6 69.9 20.55 68.5 19.5 67.05 19.2 65.15 L19.1 63.7 Q19.1 61.45 20.1 59.45 L20.15 59.4 19.55 58.0 18.65 56.0 18.35 55.35 17.1 52.7 17.5 52.55 18.5 52.25 18.0 51.4 Q17.15 49.8 16.9 47.9 L16.9 47.85 16.8 46.45 16.9 45.05 Q17.05 43.75 17.45 42.6 L17.85 41.5 M50.25 27.25 L50.9 25.7 53.5 19.55 Q54.75 16.35 55.0 12.55 55.1 8.95 53.25 6.3 51.45 3.7 48.6 2.4 45.75 1.1 42.75 1.6 39.7 2.1 37.3 4.75 35.0 7.5 33.95 11.5 32.85 15.45 32.6 19.65 L32.6 20.15 32.55 20.95 32.5 23.95 32.55 25.95 32.6 27.1 32.85 29.55 33.05 31.0 33.2 31.9 38.05 31.1 Q40.9 30.95 43.8 31.1 L48.8 31.7 50.25 27.25 M64.6 49.55 L64.7 49.1 Q65.25 46.5 64.8 44.25 64.4 42.0 63.25 40.5 60.9 37.55 56.35 35.45 51.85 33.3 46.1 32.55 L34.35 32.9 Q28.35 33.95 22.95 37.4 20.7 38.95 19.45 41.4 18.25 43.85 18.25 46.55 18.25 48.9 19.4 50.95 L19.35 50.9 Q20.8 53.65 24.35 54.95 25.45 54.15 28.2 53.45 L34.4 52.3 41.1 51.85 46.35 52.45 47.25 53.1 47.3 53.1 47.3 53.25 Q47.25 53.75 46.2 53.65 L41.0 53.45 34.6 53.85 Q31.25 54.25 28.4 55.05 25.5 55.85 23.75 57.15 21.5 59.0 20.85 61.55 20.2 64.1 21.05 66.35 L21.35 67.0 21.3 66.95 Q21.75 67.85 22.5 68.5 L24.15 69.5 28.75 69.95 34.55 70.35 40.0 70.8 43.7 71.35 45.55 72.1 45.7 72.35 45.25 72.65 43.5 72.6 39.8 72.3 33.9 72.05 27.95 71.85 24.15 71.75 Q22.3 72.1 21.3 73.55 20.35 74.95 20.25 76.9 20.2 78.25 20.6 79.6 L20.55 79.5 Q20.8 80.5 21.35 81.45 L21.7 82.0 Q22.5 83.2 23.75 84.1 25.75 85.55 28.95 86.75 L34.95 88.5 35.85 88.7 43.35 89.35 Q47.1 89.25 50.25 88.15 L51.6 87.6 52.8 86.9 54.2 85.85 55.45 84.55 Q56.95 82.6 58.05 80.4 L59.9 75.8 60.05 75.4 61.65 68.65 61.95 66.35 62.15 64.2 62.45 58.7 62.45 58.45 62.45 55.7 62.45 54.1 63.95 51.45 64.6 49.55 M22.85 56.05 L23.1 55.9 Q20.45 54.8 18.85 52.7 L18.75 52.55 19.3 53.9 21.05 57.95 22.85 56.05" fill="#000000" fill-rule="evenodd" stroke="none"/>
      <path d="M32.6 20.15 L32.6 19.65 Q32.85 15.45 33.95 11.5 35.0 7.5 37.3 4.75 39.7 2.1 42.75 1.6 45.75 1.1 48.6 2.4 51.45 3.7 53.25 6.3 55.1 8.95 55.0 12.55 54.75 16.35 53.5 19.55 L50.9 25.7 50.25 27.25 50.5 26.55 Q47.7 29.95 44.6 30.5 41.5 31.05 38.75 29.45 36.05 27.9 34.4 24.9 32.7 21.9 32.75 18.2 L32.6 20.15 M32.85 29.55 L32.6 27.1 32.55 25.95 32.75 28.75 32.85 29.55 M19.4 50.95 Q18.25 48.9 18.25 46.55 18.25 43.85 19.45 41.4 20.7 38.95 22.95 37.4 28.35 33.95 34.35 32.9 L46.1 32.55 Q51.85 33.3 56.35 35.45 60.9 37.55 63.25 40.5 64.4 42.0 64.8 44.25 65.25 46.5 64.7 49.1 L64.6 49.55 64.95 46.9 Q64.4 49.15 63.25 50.25 62.15 51.4 60.55 51.8 L57.05 52.25 Q57.9 53.0 58.5 55.8 59.1 58.6 59.2 62.6 59.3 66.55 58.65 70.85 57.95 75.1 56.2 78.8 54.4 82.5 51.3 84.75 48.5 86.6 44.9 87.1 41.25 87.65 37.45 87.15 33.6 86.6 30.1 85.4 26.65 84.2 24.1 82.65 21.65 81.15 20.6 79.6 20.2 78.25 20.25 76.9 20.35 74.95 21.3 73.55 22.3 72.1 24.15 71.75 L27.95 71.85 33.9 72.05 39.8 72.3 43.5 72.6 45.25 72.65 44.1 72.7 47.6 73.4 49.35 73.95 Q49.8 74.05 49.8 73.8 L49.65 72.8 Q49.45 71.7 47.65 70.75 45.9 69.8 43.05 69.3 L39.65 69.1 34.5 68.95 28.85 68.7 24.0 68.15 Q22.0 67.7 21.35 67.0 L21.05 66.35 Q20.2 64.1 20.85 61.55 21.5 59.0 23.75 57.15 25.5 55.85 28.4 55.05 31.25 54.25 34.6 53.85 L41.0 53.45 46.2 53.65 Q47.25 53.75 47.3 53.25 L47.3 53.1 Q49.2 53.1 49.5 52.5 49.75 51.85 48.4 51.25 46.3 50.35 43.35 50.0 L37.2 49.65 31.35 50.0 27.05 50.8 22.65 51.5 Q20.65 51.55 19.4 50.95 M63.95 51.45 L62.45 54.1 62.45 55.7 62.4 54.1 63.95 51.45 M62.15 64.2 L61.95 66.35 61.65 68.65 61.9 66.4 62.15 64.2 M58.05 80.4 Q56.95 82.6 55.45 84.55 L54.2 85.85 55.4 84.55 Q56.9 82.55 58.05 80.4" fill="#ffffff" fill-rule="evenodd" stroke="none"/>
      <path d="M50.25 27.25 L48.8 31.7 43.8 31.1 Q40.9 30.95 38.05 31.1 L33.2 31.9 33.05 31.0 32.85 29.55 32.75 28.75 32.55 25.95 32.5 23.95 32.55 20.95 32.6 20.15 32.75 18.2 Q32.7 21.9 34.4 24.9 36.05 27.9 38.75 29.45 41.5 31.05 44.6 30.5 47.7 29.95 50.5 26.55 L50.25 27.25 M19.4 50.95 Q20.65 51.55 22.65 51.5 L27.05 50.8 31.35 50.0 37.2 49.65 43.35 50.0 Q46.3 50.35 48.4 51.25 49.75 51.85 49.5 52.5 49.2 53.1 47.3 53.1 L47.25 53.1 46.35 52.45 41.1 51.85 34.4 52.3 28.2 53.45 Q25.45 54.15 24.35 54.95 20.8 53.65 19.35 50.9 L19.4 50.95 M21.35 67.0 Q22.0 67.7 24.0 68.15 L28.85 68.7 34.5 68.95 39.65 69.1 43.05 69.3 Q45.9 69.8 47.65 70.75 49.45 71.7 49.65 72.8 L49.8 73.8 Q49.8 74.05 49.35 73.95 L47.6 73.4 44.1 72.7 45.25 72.65 45.7 72.35 45.55 72.1 43.7 71.35 40.0 70.8 34.55 70.35 28.75 69.95 24.15 69.5 22.5 68.5 Q21.75 67.85 21.3 66.95 L21.35 67.0 M20.6 79.6 Q21.65 81.15 24.1 82.65 26.65 84.2 30.1 85.4 33.6 86.6 37.45 87.15 41.25 87.65 44.9 87.1 48.5 86.6 51.3 84.75 54.4 82.5 56.2 78.8 57.95 75.1 58.65 70.85 59.3 66.55 59.2 62.6 59.1 58.6 58.5 55.8 57.9 53.0 57.05 52.25 L60.55 51.8 Q62.15 51.4 63.25 50.25 64.4 49.15 64.95 46.9 L64.6 49.55 63.95 51.45 62.4 54.1 62.45 55.7 62.45 58.45 62.45 58.7 62.15 64.2 61.9 66.4 61.65 68.65 60.05 75.4 59.9 75.8 58.05 80.4 Q56.9 82.55 55.4 84.55 L54.2 85.85 52.8 86.9 51.6 87.6 50.25 88.15 Q47.1 89.25 43.35 89.35 L35.85 88.7 34.95 88.5 28.95 86.75 Q25.75 85.55 23.75 84.1 22.5 83.2 21.7 82.0 L21.35 81.45 Q20.8 80.5 20.55 79.5 L20.6 79.6" fill="#c2d6d4" fill-rule="evenodd" stroke="none"/>
      <path d="M17.85 41.5 L17.45 42.6 16.25 40.95 12.15 34.85 Q10.5 32.35 8.75 31.6 6.95 30.85 5.35 31.25 3.75 31.6 2.65 32.65 1.6 33.7 1.3 34.8 L1.3 34.9 0.7 35.55 Q0.5 35.6 0.8 34.4 1.35 32.35 2.85 31.35 4.3 30.3 6.15 30.3 8.0 30.3 9.8 31.2 11.6 32.15 12.8 34.0 L15.35 38.05 17.85 41.5 M18.0 51.4 L18.5 52.25 17.5 52.55 17.1 52.7 16.7 52.9 Q16.1 53.1 15.45 53.45 L15.0 53.65 13.95 54.25 13.45 54.6 13.2 54.75 12.7 55.15 12.35 55.45 12.15 55.6 10.9 57.0 10.15 58.35 10.75 60.0 12.1 63.5 Q9.8 63.45 7.45 62.45 6.3 61.85 5.3 59.6 4.25 57.3 3.35 54.05 L1.65 47.45 0.1 41.25 Q-0.15 40.1 0.2 40.0 L0.55 40.4 0.6 40.8 1.4 43.95 2.9 49.15 4.45 54.45 5.6 58.0 Q6.2 60.0 7.2 61.3 8.2 62.65 10.25 62.6 8.6 61.8 8.25 60.35 7.85 58.95 9.05 57.25 10.45 55.3 12.4 54.0 14.3 52.7 16.1 52.0 17.15 51.55 18.0 51.4 M22.85 56.05 L21.05 57.95 19.3 53.9 18.75 52.55 18.85 52.7 Q20.45 54.8 23.1 55.9 L22.85 56.05" fill="#411c14" fill-rule="evenodd" stroke="none"/>
      <path d="M17.45 42.6 Q17.05 43.75 16.9 45.05 L13.9 45.85 Q10.9 46.8 8.3 48.7 5.65 50.6 4.2 53.5 L5.3 57.0 Q5.85 55.3 7.75 53.35 9.65 51.45 12.25 49.9 14.6 48.55 16.9 47.9 17.15 49.8 18.0 51.4 17.15 51.55 16.1 52.0 14.3 52.7 12.4 54.0 10.45 55.3 9.05 57.25 7.85 58.95 8.25 60.35 8.6 61.8 10.25 62.6 8.2 62.65 7.2 61.3 6.2 60.0 5.6 58.0 L4.45 54.45 2.9 49.15 1.4 43.95 0.6 40.8 0.55 40.4 0.6 39.05 0.9 36.8 1.3 34.9 1.3 34.8 Q1.6 33.7 2.65 32.65 3.75 31.6 5.35 31.25 6.95 30.85 8.75 31.6 10.5 32.35 12.15 34.85 L16.25 40.95 17.45 42.6" fill="#ffbd20" fill-rule="evenodd" stroke="none"/>
      <path d="M16.9 45.05 L16.8 46.45 16.9 47.85 16.9 47.9 Q14.6 48.55 12.25 49.9 9.65 51.45 7.75 53.35 5.85 55.3 5.3 57.0 L4.2 53.5 Q5.65 50.6 8.3 48.7 10.9 46.8 13.9 45.85 L16.9 45.05" fill="#e31e00" fill-rule="evenodd" stroke="none"/>
      <path d="M19.55 58.0 L20.15 59.4 20.1 59.45 Q19.1 61.45 19.1 63.7 L19.2 65.15 Q19.5 67.05 20.55 68.5 21.6 69.9 23.2 70.65 21.65 71.1 20.55 72.3 L19.75 73.4 Q18.85 72.5 18.4 71.3 L17.05 67.25 15.9 62.75 Q15.45 60.6 15.5 59.6 15.65 58.4 16.35 57.3 17.05 56.15 18.35 55.35 L19.55 58.0" fill="#6fb9d7" fill-rule="evenodd" stroke="none"/>
      <path d="M17.1 52.7 L18.35 55.35 18.65 56.0 19.55 58.0 18.35 55.35 Q17.05 56.15 16.35 57.3 15.65 58.4 15.5 59.6 15.45 60.6 15.9 62.75 L17.05 67.25 18.4 71.3 Q18.85 72.5 19.75 73.4 19.25 74.25 19.0 75.25 L18.85 76.2 18.35 75.65 17.15 73.1 15.4 68.8 13.5 63.95 11.85 59.6 10.9 57.0 12.35 55.45 12.7 55.15 13.2 54.75 13.45 54.6 13.95 54.25 15.0 53.65 15.45 53.45 Q16.1 53.1 16.7 52.9 L17.1 52.7" fill="#3d7db8" fill-rule="evenodd" stroke="none"/>
      <path d="M12.35 55.45 L10.9 57.0 12.15 55.6 12.35 55.45" fill="#1d3f60" fill-rule="evenodd" stroke="none"/>
    </g>
  </defs>
</svg>
