<?xml version="1.0" encoding="UTF-8" standalone="no"?>
<svg xmlns:xlink="http://www.w3.org/1999/xlink" height="349.75px" width="135.2px" xmlns="http://www.w3.org/2000/svg">
  <g transform="matrix(1.0, 0.0, 0.0, 1.0, 0.0, 0.0)">
    <use height="97.55" transform="matrix(1.0, 0.0, 0.0, 1.0, 0.0, 183.0)" width="51.7" xlink:href="#shape0"/>
    <use height="166.25" transform="matrix(1.0, 0.0, 0.0, 1.0, 10.45, 183.0)" width="77.05" xlink:href="#shape1"/>
    <use height="91.85" transform="matrix(1.0, 0.0, 0.0, 1.0, 4.65, 104.85)" width="98.0" xlink:href="#shape2"/>
    <use height="91.4" transform="matrix(1.0, 0.0, 0.0, 1.0, 64.5, 116.6)" width="69.3" xlink:href="#shape3"/>
  </g>
  <defs>
    <g id="shape0" transform="matrix(1.0, 0.0, 0.0, 1.0, 0.0, 0.0)">
      <path d="M47.55 13.6 L47.5 13.6 45.2 15.4 43.6 16.65 39.95 19.6 37.0 21.45 27.4 5.55 27.6 5.4 27.85 5.2 35.15 3.15 41.8 1.15 Q46.7 0.0 48.75 1.5 L49.2 1.85 51.1 5.3 Q51.0 7.9 50.2 10.25 L49.25 12.1 Q48.65 13.05 47.55 13.6 M34.65 22.65 Q32.2 23.75 29.45 24.55 28.25 23.6 26.7 21.25 L25.4 19.2 24.9 18.35 23.65 16.15 21.6 12.15 21.05 11.05 21.0 10.95 19.7 7.9 Q19.45 7.05 19.9 6.5 20.3 5.95 21.0 6.05 L23.75 5.95 24.15 5.9 23.15 6.05 24.55 8.95 25.2 10.2 25.75 11.3 28.45 16.1 29.0 16.95 29.3 17.45 33.25 23.2 34.65 22.65" fill="#ffbd20" fill-rule="evenodd" stroke="none"/>
      <path d="M47.55 13.6 L46.0 15.35 43.9 17.4 40.95 19.75 Q36.1 23.3 29.1 25.55 27.85 24.6 26.3 22.15 L24.75 19.6 23.2 20.5 17.9 23.75 13.1 26.75 10.3 28.5 11.15 30.15 13.3 34.15 15.9 39.05 17.8 42.55 Q19.15 41.95 20.5 41.9 22.55 41.85 24.25 43.9 L24.55 44.3 27.1 44.1 29.3 44.25 Q35.2 38.35 38.8 36.75 42.4 35.15 44.7 37.2 L47.6 39.45 50.65 41.7 Q52.0 42.85 51.65 44.7 51.35 46.5 49.7 48.05 48.1 49.6 45.65 49.9 L42.2 49.6 40.15 48.75 39.45 48.25 38.5 50.05 35.9 54.3 Q34.15 56.75 31.75 59.1 29.35 61.4 26.4 62.65 27.25 64.85 26.9 66.85 26.55 68.9 25.4 70.9 L22.9 75.0 21.4 77.7 20.75 79.0 Q23.65 80.05 24.8 82.1 25.95 84.2 25.3 86.75 L24.65 88.4 25.0 90.7 Q25.15 92.65 24.55 94.35 23.95 96.1 22.3 97.15 L19.6 97.2 Q18.25 96.5 17.5 94.45 L16.4 91.95 14.9 89.15 14.4 88.2 12.15 87.8 Q10.85 87.5 9.95 85.9 9.1 84.3 9.3 81.95 9.5 79.6 11.5 77.1 10.3 74.3 9.45 71.45 8.55 68.55 8.6 65.45 8.65 62.9 9.7 60.05 8.0 58.3 7.95 56.1 7.9 53.8 9.05 51.45 L10.2 49.55 7.85 45.2 4.8 39.3 2.0 33.8 0.45 30.35 Q-0.5 27.95 0.6 25.5 1.7 23.0 5.6 20.35 L9.75 17.7 15.1 14.45 20.4 11.3 19.1 8.5 Q18.85 7.85 18.85 7.0 18.85 6.1 19.3 5.55 19.7 4.95 20.75 5.25 L22.6 5.25 24.8 5.0 27.9 4.35 34.9 2.45 41.2 0.55 48.75 0.8 50.0 1.85 Q51.15 3.2 51.1 5.3 L49.2 1.85 48.75 1.5 Q46.7 0.0 41.8 1.15 L35.15 3.15 27.85 5.2 26.35 5.55 25.1 5.75 24.95 5.8 24.15 5.9 23.75 5.95 21.0 6.05 Q20.3 5.95 19.9 6.5 19.45 7.05 19.7 7.9 L21.0 10.95 21.05 11.05 21.6 12.15 23.65 16.15 24.9 18.35 25.4 19.2 26.7 21.25 Q28.25 23.6 29.45 24.55 32.2 23.75 34.65 22.65 L35.2 22.4 37.0 21.45 39.95 19.6 43.6 16.65 45.2 15.4 47.5 13.6 47.55 13.6 M11.95 86.35 Q12.5 86.8 13.2 86.95 L16.65 87.6 Q18.25 87.85 19.85 88.45 21.9 89.3 23.05 88.95 24.25 88.65 24.85 86.5 25.25 85.0 24.95 83.55 24.65 82.1 23.5 81.05 22.35 80.05 20.3 79.9 18.85 82.3 16.5 83.45 18.15 82.1 19.3 80.3 L21.35 76.75 22.75 74.05 24.8 70.25 Q25.75 68.3 25.95 66.2 26.15 64.15 25.15 61.9 24.7 60.85 24.95 60.85 25.15 60.85 25.6 61.15 L26.25 61.4 Q28.75 60.8 30.95 58.85 33.15 56.85 34.9 54.25 L37.9 49.2 39.85 45.05 40.55 43.35 40.35 44.6 39.7 47.35 42.4 48.5 46.45 49.0 Q48.35 48.85 49.6 47.55 50.85 46.25 51.1 44.7 L51.15 44.35 Q51.25 43.0 50.3 42.15 L47.6 40.15 44.9 38.3 Q44.1 37.6 42.85 37.2 L39.75 37.3 Q37.95 37.8 35.4 39.75 32.85 41.7 29.45 45.7 L28.0 45.25 25.2 45.35 Q26.0 46.85 26.25 48.55 L26.3 50.5 25.65 53.75 Q24.75 56.35 22.75 58.7 L21.65 59.75 Q20.2 61.0 18.45 61.6 16.05 62.4 13.75 62.1 11.9 61.8 10.55 60.8 9.55 63.45 9.55 65.8 9.55 68.8 10.45 71.5 11.3 74.25 12.5 77.05 L10.55 81.0 10.4 81.6 Q10.1 83.55 10.7 84.85 11.2 85.85 11.95 86.35 M23.2 16.85 L20.95 12.45 Q20.4 12.7 19.85 13.05 L17.75 14.2 11.5 17.7 6.35 20.9 Q2.5 23.5 1.4 25.65 0.35 27.75 1.3 30.1 L1.6 30.85 2.85 33.5 5.6 38.8 8.6 44.5 11.05 49.1 12.05 50.95 Q12.65 51.8 13.95 51.95 15.25 52.1 16.6 51.5 17.9 50.9 18.6 49.5 19.35 48.15 18.8 45.95 L17.35 43.35 14.95 38.9 12.3 33.95 10.15 29.95 9.25 28.3 12.15 26.45 17.15 23.25 22.7 19.7 23.9 18.95 24.25 18.75 23.2 16.85 M25.15 47.15 L23.7 44.75 23.6 44.65 23.5 44.55 Q22.1 43.15 20.45 43.15 L20.3 43.15 20.25 43.15 18.4 43.65 19.7 46.05 Q20.15 48.5 19.2 50.05 18.25 51.6 16.65 52.3 15.0 52.95 13.5 52.85 12.0 52.75 11.35 51.85 L10.65 50.5 9.9 51.75 Q8.8 53.8 8.85 55.8 8.9 57.8 10.45 59.5 L10.95 60.0 11.0 60.05 Q12.55 61.45 14.3 61.65 16.4 61.85 18.4 60.85 20.4 59.85 22.1 57.95 24.0 55.85 24.9 53.5 25.8 51.15 25.55 48.85 L25.15 47.15 M15.85 89.25 L17.1 91.65 18.05 93.75 Q18.7 95.45 19.8 96.05 L21.85 96.15 Q23.5 95.05 23.7 93.05 23.85 91.3 23.5 89.6 L23.35 89.65 Q22.0 90.3 19.4 89.15 17.8 88.5 15.9 88.35 L15.35 88.3 15.85 89.25" fill="#000000" fill-rule="evenodd" stroke="none"/>
      <path d="M11.95 86.35 Q11.2 85.85 10.7 84.85 10.1 83.55 10.4 81.6 L10.55 81.0 12.5 77.05 Q11.3 74.25 10.45 71.5 9.55 68.8 9.55 65.8 9.55 63.45 10.55 60.8 11.9 61.8 13.75 62.1 16.05 62.4 18.45 61.6 20.2 61.0 21.65 59.75 20.0 61.7 17.8 63.1 14.8 64.95 13.7 67.1 12.6 69.2 12.7 71.4 12.8 73.6 13.45 75.7 L14.7 79.6 Q13.05 81.3 12.3 83.2 11.6 85.05 12.45 86.65 L11.95 86.35 M26.3 50.5 L26.25 48.55 Q26.0 46.85 25.2 45.35 L28.0 45.25 29.45 45.7 Q32.85 41.7 35.4 39.75 37.95 37.8 39.75 37.3 L42.85 37.2 Q44.1 37.6 44.9 38.3 L47.6 40.15 50.3 42.15 Q51.25 43.0 51.15 44.35 50.6 43.0 49.35 42.25 48.1 41.55 46.45 40.95 44.8 40.35 43.05 39.45 41.25 38.5 39.2 39.65 37.15 40.75 35.0 42.95 L30.6 47.55 Q29.65 47.6 28.55 48.25 27.45 48.9 26.65 50.0 L26.3 50.5 M10.95 60.0 L10.45 59.5 Q8.9 57.8 8.85 55.8 8.8 53.8 9.9 51.75 L10.65 50.5 11.35 51.85 Q12.0 52.75 13.5 52.85 15.0 52.95 16.65 52.3 18.25 51.6 19.2 50.05 20.15 48.5 19.7 46.05 L18.4 43.65 20.25 43.15 20.3 43.15 20.45 43.15 Q22.1 43.15 23.5 44.55 L23.6 44.65 23.7 44.75 25.15 47.15 Q25.25 47.5 24.8 47.25 24.35 46.95 23.6 46.7 22.9 46.5 22.1 47.0 21.35 47.5 20.75 49.4 20.35 50.7 19.15 52.3 18.0 53.9 16.5 54.8 15.5 55.3 14.45 55.25 L12.45 55.45 Q11.5 55.65 10.9 56.9 10.4 58.15 10.55 58.95 10.7 59.65 10.95 60.0" fill="#c2d6d4" fill-rule="evenodd" stroke="none"/>
      <path d="M51.15 44.35 L51.1 44.7 Q50.85 46.25 49.6 47.55 48.35 48.85 46.45 49.0 L42.4 48.5 39.7 47.35 40.35 44.6 40.55 43.35 39.85 45.05 37.9 49.2 34.9 54.25 Q33.15 56.85 30.95 58.85 28.75 60.8 26.25 61.4 L25.6 61.15 Q25.15 60.85 24.95 60.85 24.7 60.85 25.15 61.9 26.15 64.15 25.95 66.2 25.75 68.3 24.8 70.25 L22.75 74.05 21.35 76.75 19.3 80.3 Q18.15 82.1 16.5 83.45 18.85 82.3 20.3 79.9 22.35 80.05 23.5 81.05 24.65 82.1 24.95 83.55 25.25 85.0 24.85 86.5 24.25 88.65 23.05 88.95 21.9 89.3 19.85 88.45 18.25 87.85 16.65 87.6 L13.2 86.95 Q12.5 86.8 11.95 86.35 L12.45 86.65 Q11.6 85.05 12.3 83.2 13.05 81.3 14.7 79.6 L13.45 75.7 Q12.8 73.6 12.7 71.4 12.6 69.2 13.7 67.1 14.8 64.95 17.8 63.1 20.0 61.7 21.65 59.75 L22.75 58.7 Q24.75 56.35 25.65 53.75 L26.3 50.5 26.65 50.0 Q27.45 48.9 28.55 48.25 29.65 47.6 30.6 47.55 L35.0 42.95 Q37.15 40.75 39.2 39.65 41.25 38.5 43.05 39.45 44.8 40.35 46.45 40.95 48.1 41.55 49.35 42.25 50.6 43.0 51.15 44.35 M10.95 60.0 Q10.7 59.65 10.55 58.95 10.4 58.15 10.9 56.9 11.5 55.65 12.45 55.45 L14.45 55.25 Q15.5 55.3 16.5 54.8 18.0 53.9 19.15 52.3 20.35 50.7 20.75 49.4 21.35 47.5 22.1 47.0 22.9 46.5 23.6 46.7 24.35 46.95 24.8 47.25 25.25 47.5 25.15 47.15 L25.55 48.85 Q25.8 51.15 24.9 53.5 24.0 55.85 22.1 57.95 20.4 59.85 18.4 60.85 16.4 61.85 14.3 61.65 12.55 61.45 11.0 60.05 L10.95 60.0 M15.85 89.25 L15.35 88.3 15.9 88.35 Q17.8 88.5 19.4 89.15 22.0 90.3 23.35 89.65 L23.5 89.6 Q23.85 91.3 23.7 93.05 23.5 95.05 21.85 96.15 L19.8 96.05 Q18.7 95.45 18.05 93.75 L17.1 91.65 15.85 89.25" fill="#ffffff" fill-rule="evenodd" stroke="none"/>
      <path d="M37.0 21.45 L35.2 22.4 34.65 22.65 33.25 23.2 29.3 17.45 29.0 16.95 28.45 16.1 25.75 11.3 25.2 10.2 24.55 8.95 23.15 6.05 24.15 5.9 24.95 5.8 25.1 5.75 26.35 5.55 27.85 5.2 27.6 5.4 27.4 5.55 37.0 21.45" fill="#e31e00" fill-rule="evenodd" stroke="none"/>
      <path d="M23.2 16.85 L24.25 18.75 23.9 18.95 22.7 19.7 17.15 23.25 12.15 26.45 9.25 28.3 10.15 29.95 12.3 33.95 14.95 38.9 17.35 43.35 18.8 45.95 Q19.35 48.15 18.6 49.5 17.9 50.9 16.6 51.5 15.25 52.1 13.95 51.95 12.65 51.8 12.05 50.95 L11.05 49.1 8.6 44.5 5.6 38.8 2.85 33.5 1.6 30.85 1.3 30.1 Q0.35 27.75 1.4 25.65 2.5 23.5 6.35 20.9 L11.5 17.7 17.75 14.2 19.85 13.05 Q20.4 12.7 20.95 12.45 L23.2 16.85" fill="#488fc1" fill-rule="evenodd" stroke="none"/>
    </g>
    <g id="shape1" transform="matrix(1.0, 0.0, 0.0, 1.0, 5.45, 0.0)">
      <path d="M59.55 39.75 Q58.9 37.7 58.4 35.15 57.4 30.25 57.65 23.1 L57.8 15.7 Q57.8 12.05 57.1 9.0 56.4 5.95 54.5 3.85 52.65 1.75 49.15 1.1 L41.9 1.3 Q37.8 2.05 33.5 4.35 32.2 5.05 29.45 7.0 26.7 9.0 23.1 12.4 19.45 15.75 15.65 20.6 11.8 25.45 8.3 31.9 6.5 35.25 4.95 39.1 3.6 42.45 2.45 46.2 L2.4 46.35 Q1.9 48.15 2.35 48.85 2.8 49.6 3.7 49.85 L9.5 50.95 18.6 51.65 29.7 51.9 41.6 51.6 52.9 50.75 62.4 49.25 Q63.3 49.05 62.65 47.6 L62.3 46.75 62.35 46.7 61.05 43.85 59.55 39.75 M2.4 50.4 Q1.65 50.1 1.25 49.45 0.8 48.7 1.3 46.85 3.7 38.2 7.25 31.5 10.75 24.8 14.75 19.8 18.75 14.85 22.55 11.45 26.35 8.05 29.2 6.1 L33.45 3.45 Q37.65 1.15 41.85 0.4 46.05 -0.35 50.15 0.35 53.75 1.0 55.55 3.1 57.4 5.2 58.0 8.3 58.6 11.45 58.55 15.15 L58.25 22.8 Q58.05 30.15 59.25 35.25 60.5 40.3 62.1 43.45 L64.55 48.05 Q65.45 49.55 64.5 49.75 L64.1 49.85 63.1 50.1 54.65 51.35 42.7 52.25 30.15 52.55 18.3 52.3 8.7 51.6 3.75 50.8 2.65 50.5 2.4 50.4" fill="#411c14" fill-rule="evenodd" stroke="none"/>
      <path d="M4.95 39.1 Q6.5 35.25 8.3 31.9 11.8 25.45 15.65 20.6 19.45 15.75 23.1 12.4 26.7 9.0 29.45 7.0 32.2 5.05 33.5 4.35 37.8 2.05 41.9 1.3 L49.15 1.1 Q52.65 1.75 54.5 3.85 56.4 5.95 57.1 9.0 57.8 12.05 57.8 15.7 L57.65 23.1 Q57.4 30.25 58.4 35.15 58.9 37.7 59.55 39.75 L51.7 40.7 41.05 41.55 28.85 41.9 16.35 41.2 Q10.25 40.6 4.95 39.1 M62.3 46.75 L62.65 47.6 Q63.3 49.05 62.4 49.25 L52.9 50.75 41.6 51.6 29.7 51.9 18.6 51.65 9.5 50.95 3.7 49.85 Q2.8 49.6 2.35 48.85 1.9 48.15 2.4 46.35 L2.45 46.2 Q7.3 47.35 13.55 48.0 L26.7 48.8 Q33.6 48.95 40.25 48.75 L52.65 48.0 62.3 46.75" fill="#ffbd20" fill-rule="evenodd" stroke="none"/>
      <path d="M4.95 39.1 Q10.25 40.6 16.35 41.2 L28.85 41.9 41.05 41.55 51.7 40.7 59.55 39.75 61.05 43.85 62.35 46.7 62.3 46.75 52.65 48.0 40.25 48.75 Q33.6 48.95 26.7 48.8 L13.55 48.0 Q7.3 47.35 2.45 46.2 3.6 42.45 4.95 39.1" fill="#e31e00" fill-rule="evenodd" stroke="none"/>
      <path d="M2.4 50.4 L2.65 50.5 3.75 50.8 3.65 51.25 2.9 55.8 2.35 59.85 -0.65 80.95 -3.8 121.1 Q-2.35 122.95 -0.4 124.25 0.9 125.0 2.4 125.3 10.55 126.85 18.65 124.95 L18.8 124.7 18.7 124.65 20.6 124.1 20.65 124.1 26.85 121.4 26.3 98.05 24.3 97.75 22.25 97.2 Q21.35 97.0 20.5 96.35 L32.9 96.6 28.2 97.65 28.95 121.9 Q31.9 124.2 35.7 123.95 L47.85 124.35 53.65 124.6 58.0 124.4 62.25 123.55 65.5 122.6 Q67.8 121.9 69.95 120.3 L69.65 115.55 68.65 106.05 67.25 95.75 65.6 85.35 63.8 74.8 Q63.15 71.05 62.65 67.3 62.55 66.45 62.7 65.6 L62.85 65.65 62.8 65.45 Q62.8 64.4 63.15 63.7 63.5 62.95 64.0 62.95 L64.35 62.55 63.35 62.9 63.95 59.85 Q64.4 57.0 64.15 54.1 63.95 51.85 63.1 50.1 L64.1 49.85 Q65.25 51.8 65.45 54.25 65.7 57.1 65.25 59.85 L63.45 67.15 Q65.75 73.6 66.7 80.3 L67.5 86.6 Q68.25 93.25 69.4 99.6 70.65 106.7 71.2 113.9 L71.6 121.0 Q68.75 123.3 65.35 124.5 L61.05 125.5 66.85 166.25 65.15 166.25 59.3 125.4 48.95 125.85 50.2 132.9 52.8 147.25 54.45 157.65 54.55 158.4 55.55 166.25 53.9 166.25 52.95 158.45 47.25 125.75 36.2 125.15 Q31.85 125.7 28.2 123.3 L27.65 122.8 Q26.1 123.85 24.15 124.55 L20.45 125.65 17.55 148.05 Q16.85 153.0 16.3 159.15 L15.75 166.25 14.15 166.25 18.7 126.45 Q14.0 127.75 9.05 127.65 L8.75 127.65 4.6 166.25 2.9 166.25 3.4 160.95 7.0 127.4 Q4.1 127.35 1.5 126.35 L-1.65 125.15 Q-4.2 123.8 -5.45 121.5 L-5.1 117.55 -4.85 113.45 -3.05 90.3 Q-1.9 74.95 0.85 59.85 L1.45 55.65 2.25 51.1 2.4 50.4" fill="#341239" fill-rule="evenodd" stroke="none"/>
      <path d="M62.7 65.6 L62.8 65.45 62.85 65.65 62.7 65.6 M64.0 62.95 L63.35 62.9 64.35 62.55 64.0 62.95" fill="#000823" fill-rule="evenodd" stroke="none"/>
      <path d="M3.75 50.8 L8.7 51.6 18.3 52.3 30.15 52.55 42.7 52.25 54.65 51.35 63.1 50.1 Q63.95 51.85 64.15 54.1 64.4 57.0 63.95 59.85 L63.35 62.9 64.0 62.95 Q63.5 62.95 63.15 63.7 62.8 64.4 62.8 65.45 L62.7 65.6 Q62.55 66.45 62.65 67.3 63.15 71.05 63.8 74.8 L65.6 85.35 67.25 95.75 68.65 106.05 69.65 115.55 69.95 120.3 Q67.8 121.9 65.5 122.6 L62.25 123.55 58.0 124.4 53.65 124.6 47.85 124.35 35.7 123.95 Q31.9 124.2 28.95 121.9 L28.2 97.65 32.9 96.6 20.5 96.35 Q21.35 97.0 22.25 97.2 L24.3 97.75 26.3 98.05 26.85 121.4 20.65 124.1 20.6 124.05 20.6 124.1 18.7 124.65 18.8 124.7 18.65 124.95 Q10.55 126.85 2.4 125.3 0.9 125.0 -0.4 124.25 -2.35 122.95 -3.8 121.1 L-0.65 80.95 2.35 59.85 2.9 55.8 3.65 51.25 3.75 50.8" fill="#592d85" fill-rule="evenodd" stroke="none"/>
      <path d="M65.15 166.25 L55.55 166.25 54.55 158.4 54.45 157.65 52.8 147.25 50.2 132.9 48.95 125.85 59.3 125.4 65.15 166.25 M14.15 166.25 L4.6 166.25 8.75 127.65 9.05 127.65 Q14.0 127.75 18.7 126.45 L14.15 166.25" fill="#488fc1" fill-rule="evenodd" stroke="none"/>
    </g>
    <g id="shape2" transform="matrix(1.0, 0.0, 0.0, 1.0, 0.0, 0.0)">
      <path d="M90.95 28.3 Q92.7 30.3 92.45 34.8 L91.65 44.7 Q91.25 49.95 91.35 55.75 91.5 61.55 92.85 67.9 93.95 72.65 95.3 76.75 L97.5 84.1 Q98.35 87.3 97.8 89.25 97.25 91.25 94.55 91.7 92.15 92.15 89.25 91.1 86.3 90.0 83.8 86.75 81.3 83.45 80.1 77.3 79.65 74.55 79.95 71.45 L80.05 70.4 80.15 69.6 81.45 62.45 82.55 56.85 82.8 55.65 83.2 53.1 84.95 43.15 85.9 37.9 85.05 44.1 83.6 53.6 83.25 56.15 Q82.45 62.35 82.4 67.2 L82.4 68.45 Q82.5 73.5 83.5 77.35 84.6 81.65 86.85 84.85 88.7 87.4 90.85 88.4 93.0 89.4 94.9 89.25 96.85 89.1 97.95 88.15 98.05 86.2 97.3 83.5 L95.5 77.45 93.4 70.35 Q94.3 74.2 93.65 75.6 93.0 76.95 91.6 76.65 90.2 76.3 88.9 74.95 87.55 73.6 87.1 71.9 86.75 70.35 86.6 66.55 L86.65 57.85 87.2 47.7 Q87.65 42.55 88.45 38.2 89.2 33.8 90.3 31.25 90.6 30.7 90.95 31.15 L91.7 32.15 Q92.1 32.75 92.4 32.65 92.15 29.8 90.95 28.3 M15.4 71.25 Q14.4 75.1 12.8 77.7 9.8 82.35 6.95 83.7 4.1 84.95 1.65 82.6 L2.0 82.9 Q-0.35 79.5 2.7 73.55 2.65 74.0 2.95 74.35 3.25 74.7 3.85 74.6 4.45 74.55 5.15 73.75 8.5 69.8 10.45 63.6 12.45 57.4 12.85 49.9 13.2 42.45 11.65 34.7 11.2 32.45 12.05 31.65 12.9 30.8 14.65 31.0 L17.15 31.45 17.1 32.8 Q15.45 32.4 15.1 33.3 14.65 34.45 15.75 38.25 16.45 40.8 16.85 44.7 L17.25 51.95 17.1 52.3 Q16.55 53.95 17.0 55.0 L16.3 55.55 Q14.1 57.45 12.95 59.95 11.8 62.45 12.05 65.05 12.3 67.7 14.2 69.95 L15.4 71.25 M79.5 28.3 Q81.7 27.25 83.7 26.8 82.2 27.4 81.5 28.2 80.75 29.0 81.15 29.45 L83.55 29.5 Q85.95 29.05 86.15 32.6 85.95 31.85 85.5 31.6 L83.15 31.55 80.8 32.35 79.95 32.75 79.1 33.15 78.95 33.2 Q77.75 33.05 77.15 32.3 76.6 31.5 76.8 30.55 77.05 29.65 78.25 28.95 L78.65 28.75 79.5 28.3" fill="#111111" fill-rule="evenodd" stroke="none"/>
      <path d="M90.95 28.3 Q92.15 29.8 92.4 32.65 92.1 32.75 91.7 32.15 L90.95 31.15 Q90.6 30.7 90.3 31.25 89.2 33.8 88.45 38.2 87.65 42.55 87.2 47.7 L86.65 57.85 86.6 66.55 Q86.75 70.35 87.1 71.9 87.55 73.6 88.9 74.95 90.2 76.3 91.6 76.65 93.0 76.95 93.65 75.6 94.3 74.2 93.4 70.35 L95.5 77.45 97.3 83.5 Q98.05 86.2 97.95 88.15 96.85 89.1 94.9 89.25 93.0 89.4 90.85 88.4 88.7 87.4 86.85 84.85 84.6 81.65 83.5 77.35 82.5 73.5 82.4 68.45 L82.4 67.2 Q82.45 62.35 83.25 56.15 L83.6 53.6 85.05 44.1 85.9 37.9 86.0 36.7 Q86.35 34.25 86.15 32.9 L86.15 32.6 Q85.95 29.05 83.55 29.5 L81.15 29.45 Q80.75 29.0 81.5 28.2 82.2 27.4 83.7 26.8 L83.85 26.7 Q87.45 25.9 89.75 27.25 L90.95 28.3 M1.65 82.6 L1.55 82.5 Q-0.05 80.75 0.0 78.25 0.05 75.8 1.1 73.3 2.15 70.8 3.65 69.0 5.45 66.85 6.85 63.55 8.2 60.3 9.1 56.45 10.05 52.65 10.5 48.85 L10.95 41.95 Q10.95 38.8 10.4 36.85 9.15 32.15 11.1 30.55 13.0 28.95 17.25 29.8 L17.15 31.45 14.65 31.0 Q12.9 30.8 12.05 31.65 11.2 32.45 11.65 34.7 13.2 42.45 12.85 49.9 12.45 57.4 10.45 63.6 8.5 69.8 5.15 73.75 4.45 74.55 3.85 74.6 3.25 74.7 2.95 74.35 2.65 74.0 2.7 73.55 -0.35 79.5 2.0 82.9 L1.65 82.6" fill="#2a1b2c" fill-rule="evenodd" stroke="none"/>
      <path d="M20.15 48.75 L20.05 48.15 Q19.35 44.15 18.4 37.25 17.7 32.0 18.65 27.15 19.65 22.25 22.3 18.15 25.0 14.1 29.25 11.35 33.5 8.6 39.35 7.65 L39.55 7.5 39.0 7.2 38.7 6.85 Q40.85 3.6 43.75 2.25 46.7 0.85 49.8 1.1 52.95 1.35 55.55 3.05 58.2 4.75 59.7 7.7 59.55 8.15 59.0 8.3 58.45 8.45 58.5 8.7 67.0 9.85 71.55 14.05 76.15 18.2 77.75 24.5 L78.65 28.75 78.25 28.95 Q77.05 29.65 76.8 30.55 76.6 31.5 77.15 32.3 77.75 33.05 78.95 33.2 L79.1 33.15 79.15 38.3 Q78.85 45.5 77.8 53.1 L75.95 53.0 Q71.9 53.25 67.85 56.55 L57.9 53.9 Q52.95 52.6 47.5 51.75 L48.2 51.45 53.35 51.15 Q56.2 51.5 58.2 52.4 60.25 53.3 61.05 54.1 61.8 54.8 62.05 54.25 62.35 53.75 62.25 52.8 L62.0 51.2 61.8 50.7 62.45 48.85 Q63.25 46.6 63.6 43.3 63.95 40.05 63.15 35.85 62.25 31.8 60.15 29.7 58.05 27.6 55.5 27.25 53.0 26.95 50.85 28.25 48.7 29.55 47.65 32.25 46.6 35.2 46.15 38.85 45.65 42.45 45.7 46.05 45.7 48.9 46.05 51.3 L45.9 51.5 36.3 50.85 35.85 50.15 Q35.25 49.3 34.15 48.65 L34.05 48.5 34.05 47.8 33.95 44.45 33.45 39.75 Q33.0 35.4 31.55 32.8 30.1 30.15 26.95 29.6 25.75 29.35 24.6 30.4 23.45 31.4 22.85 33.95 22.25 36.5 22.7 40.8 23.05 43.65 24.05 47.35 21.7 47.8 20.15 48.75 M30.0 25.65 Q29.9 21.55 28.35 20.35 26.8 19.15 24.9 21.05 22.95 22.9 21.65 28.05 23.2 23.85 24.95 22.65 26.7 21.45 28.1 22.45 29.5 23.4 30.0 25.65 M54.9 19.75 Q56.7 19.0 58.6 19.3 60.5 19.65 61.95 21.3 63.45 22.95 63.95 26.25 64.05 22.35 62.7 20.1 61.35 17.9 59.25 17.35 57.2 16.75 55.15 17.9 53.15 19.05 51.85 21.95 53.05 20.5 54.9 19.75" fill="#488fc1" fill-rule="evenodd" stroke="none"/>
      <path d="M17.25 29.8 Q17.4 28.4 17.7 27.0 18.75 21.9 21.45 17.7 24.1 13.5 28.25 10.7 32.35 7.9 37.75 7.05 39.95 3.15 43.2 1.45 46.45 -0.25 49.9 0.05 53.4 0.35 56.25 2.4 59.1 4.45 60.5 8.0 68.5 9.3 72.8 13.65 77.15 17.95 78.75 24.4 L79.5 28.3 78.65 28.75 77.75 24.5 Q76.15 18.2 71.55 14.05 67.0 9.85 58.5 8.7 58.45 8.45 59.0 8.3 59.55 8.15 59.7 7.7 58.2 4.75 55.55 3.05 52.95 1.35 49.8 1.1 46.7 0.85 43.75 2.25 40.85 3.6 38.7 6.85 L39.0 7.2 39.55 7.5 39.35 7.65 Q33.5 8.6 29.25 11.35 25.0 14.1 22.3 18.15 19.65 22.25 18.65 27.15 17.7 32.0 18.4 37.25 19.35 44.15 20.05 48.15 L20.15 48.75 19.6 49.15 19.25 49.45 19.1 48.75 17.4 37.5 Q17.05 35.1 17.1 32.8 L17.15 31.45 17.25 29.8 M77.8 53.1 Q78.85 45.5 79.15 38.3 L79.1 33.15 79.95 32.75 80.0 38.6 Q79.75 45.7 78.75 53.25 L77.8 53.1 M30.0 25.65 Q29.5 23.4 28.1 22.45 26.7 21.45 24.95 22.65 23.2 23.85 21.65 28.05 22.95 22.9 24.9 21.05 26.8 19.15 28.35 20.35 29.9 21.55 30.0 25.65 M54.9 19.75 Q53.05 20.5 51.85 21.95 53.15 19.05 55.15 17.9 57.2 16.75 59.25 17.35 61.35 17.9 62.7 20.1 64.05 22.35 63.95 26.25 63.45 22.95 61.95 21.3 60.5 19.65 58.6 19.3 56.7 19.0 54.9 19.75" fill="#1b2e54" fill-rule="evenodd" stroke="none"/>
      <path d="M24.05 47.35 Q23.05 43.65 22.7 40.8 22.25 36.5 22.85 33.95 23.45 31.4 24.6 30.4 25.75 29.35 26.95 29.6 30.1 30.15 31.55 32.8 33.0 35.4 33.45 39.75 L33.95 44.45 34.05 47.8 34.05 48.5 32.0 46.65 Q30.05 45.45 28.3 45.4 26.5 45.4 25.4 46.3 L24.65 47.25 24.05 47.35 M46.05 51.3 Q45.7 48.9 45.7 46.05 45.65 42.45 46.15 38.85 46.6 35.2 47.65 32.25 48.7 29.55 50.85 28.25 53.0 26.95 55.5 27.25 58.05 27.6 60.15 29.7 62.25 31.8 63.15 35.85 63.95 40.05 63.6 43.3 63.25 46.6 62.45 48.85 L61.8 50.7 Q60.55 47.85 58.1 46.9 L52.35 46.75 Q49.25 47.7 46.65 50.5 L46.05 51.3 M48.2 51.45 L47.5 51.75 47.25 51.7 47.35 51.65 48.2 51.45" fill="#0b4f7d" fill-rule="evenodd" stroke="none"/>
      <path d="M20.15 48.75 Q21.7 47.8 24.05 47.35 L24.65 47.25 25.15 47.15 Q29.6 46.7 32.2 47.65 33.3 48.1 34.15 48.65 35.25 49.3 35.85 50.15 L36.3 50.85 36.75 51.8 36.95 52.8 Q36.95 55.15 34.95 56.3 32.9 57.45 28.8 57.9 23.8 58.45 20.85 57.8 18.65 57.25 17.6 55.95 L17.0 55.0 Q16.55 53.95 17.1 52.3 L17.25 51.95 Q17.85 50.65 19.25 49.45 L19.6 49.15 20.15 48.75 M27.05 48.0 L30.45 48.1 Q32.7 48.35 34.05 49.0 32.4 47.85 30.05 47.5 27.65 47.2 25.25 47.55 L24.45 47.7 24.15 47.8 Q22.35 48.2 20.9 48.95 L20.3 49.35 19.35 50.15 Q18.7 50.8 18.4 51.55 18.75 50.85 19.4 50.3 L20.35 49.65 21.2 49.2 22.0 48.9 21.95 48.95 Q21.35 49.8 21.6 50.4 22.25 51.7 25.6 51.45 L25.85 51.4 27.05 51.25 28.0 50.9 Q28.75 50.5 28.7 49.75 28.7 49.1 27.8 48.4 L27.05 48.0" fill="#2f094d" fill-rule="evenodd" stroke="none"/>
      <path d="M22.0 48.9 L21.2 49.2 20.35 49.65 19.4 50.3 Q18.75 50.85 18.4 51.55 18.7 50.8 19.35 50.15 L20.3 49.35 20.9 48.95 Q22.35 48.2 24.15 47.8 L24.45 47.7 25.25 47.55 Q27.65 47.2 30.05 47.5 32.4 47.85 34.05 49.0 32.7 48.35 30.45 48.1 L27.05 48.0 24.5 47.8 24.45 47.8 24.2 47.85 Q22.6 48.1 22.0 48.9" fill="#8c409c" fill-rule="evenodd" stroke="none"/>
      <path d="M27.05 48.0 L27.8 48.4 Q28.7 49.1 28.7 49.75 28.75 50.5 28.0 50.9 L27.05 51.25 25.85 51.4 25.6 51.45 Q22.25 51.7 21.6 50.4 21.35 49.8 21.95 48.95 L22.0 48.9 Q22.6 48.1 24.2 47.85 L24.45 47.8 24.5 47.8 27.05 48.0 M22.1 49.95 Q22.6 50.95 25.1 50.8 L25.5 50.75 25.6 50.75 Q28.05 50.65 28.0 49.45 28.0 48.95 27.2 48.35 26.45 47.75 24.5 47.9 L24.4 47.9 24.2 47.95 Q22.85 48.15 22.4 48.8 21.9 49.5 22.1 49.95" fill="#c575b8" fill-rule="evenodd" stroke="none"/>
      <path d="M22.1 49.95 Q21.9 49.5 22.4 48.8 22.85 48.15 24.2 47.95 L24.4 47.9 24.5 47.9 Q26.45 47.75 27.2 48.35 28.0 48.95 28.0 49.45 28.05 50.65 25.6 50.75 L25.5 50.75 25.1 50.8 Q22.6 50.95 22.1 49.95" fill="#f3d6ea" fill-rule="evenodd" stroke="none"/>
      <path d="M34.05 48.5 L34.15 48.65 Q33.3 48.1 32.2 47.65 29.6 46.7 25.15 47.15 L24.65 47.25 25.4 46.3 Q26.5 45.4 28.3 45.4 30.05 45.45 32.0 46.65 L34.05 48.5 M45.9 51.5 L46.05 51.3 46.65 50.5 Q49.25 47.7 52.35 46.75 L58.1 46.9 Q60.55 47.85 61.8 50.7 L62.0 51.2 62.25 52.8 Q62.35 53.75 62.05 54.25 61.8 54.8 61.05 54.1 60.25 53.3 58.2 52.4 56.2 51.5 53.35 51.15 L48.2 51.45 47.35 51.65 47.25 51.7 46.65 51.6 45.9 51.5" fill="#0c1748" fill-rule="evenodd" stroke="none"/>
      <path d="M82.55 56.85 L81.45 62.45 80.15 69.6 77.2 72.65 Q75.3 74.25 71.05 75.75 66.85 77.25 61.1 78.3 55.35 79.35 48.9 79.6 L36.15 79.05 Q29.8 78.25 24.45 76.05 19.1 73.85 15.5 69.95 13.0 67.0 13.25 63.65 L13.4 62.65 Q13.4 63.15 13.75 63.3 14.15 63.4 14.3 62.7 14.35 62.0 14.0 61.8 L13.5 62.1 Q13.9 60.4 14.9 58.9 L15.05 59.4 15.8 58.95 Q16.05 58.3 15.75 58.0 L15.6 57.95 15.9 57.55 17.6 55.95 Q18.65 57.25 20.85 57.8 23.8 58.45 28.8 57.9 32.9 57.45 34.95 56.3 36.95 55.15 36.95 52.8 L36.75 51.8 47.05 52.45 58.25 54.65 68.05 57.2 Q70.2 55.6 72.75 54.7 75.25 53.75 77.65 53.95 80.05 54.2 81.95 56.1 L82.55 56.85 M44.65 54.3 Q44.75 53.6 44.05 53.4 43.35 53.35 43.15 54.0 43.1 54.75 43.75 54.9 44.5 55.0 44.65 54.3 M68.0 63.0 L66.85 63.05 Q66.8 63.45 67.9 63.85 69.2 67.85 68.6 70.1 67.95 72.35 65.6 73.3 63.25 74.2 59.3 74.1 L53.95 73.6 47.05 72.85 40.6 72.55 Q37.7 72.6 36.5 73.55 36.1 74.0 36.1 74.4 L36.7 74.45 Q38.35 73.5 41.45 73.45 L48.1 73.75 54.6 74.55 58.9 75.05 Q64.55 75.15 66.95 73.7 69.4 72.25 69.7 69.75 69.95 67.2 69.05 64.1 L70.4 64.75 Q70.8 64.7 70.3 64.25 69.8 63.75 68.0 63.0 M52.6 57.6 Q52.65 56.9 51.95 56.7 51.25 56.65 51.05 57.35 51.0 58.05 51.65 58.2 52.35 58.3 52.6 57.6 M45.4 61.2 Q45.5 60.4 44.75 60.15 43.95 60.1 43.7 60.85 43.65 61.65 44.4 61.85 45.2 61.95 45.4 61.2 M58.7 56.6 Q58.65 57.35 59.35 57.5 60.0 57.6 60.25 56.9 60.3 56.2 59.6 56.0 58.9 55.95 58.7 56.6 M56.9 61.1 Q56.85 61.85 57.55 62.1 58.3 62.15 58.5 61.45 58.6 60.7 57.85 60.45 57.15 60.4 56.9 61.1" fill="#fee36a" fill-rule="evenodd" stroke="none"/>
      <path d="M82.8 55.65 L82.55 56.85 81.95 56.1 Q80.05 54.2 77.65 53.95 75.25 53.75 72.75 54.7 70.2 55.6 68.05 57.2 L58.25 54.65 47.05 52.45 36.75 51.8 36.3 50.85 45.9 51.5 46.65 51.6 47.25 51.7 47.5 51.75 Q52.95 52.6 57.9 53.9 L67.85 56.55 Q71.9 53.25 75.95 53.0 L77.8 53.1 78.75 53.25 Q80.95 53.8 82.8 55.65 M80.15 69.6 L80.05 70.4 79.95 71.45 77.6 73.6 Q75.8 75.05 71.6 76.55 67.35 78.05 61.55 79.2 55.75 80.35 49.2 80.7 L36.1 80.25 Q29.55 79.4 23.85 76.95 19.05 74.8 15.4 71.25 L14.2 69.95 Q12.3 67.7 12.05 65.05 11.8 62.45 12.95 59.95 14.1 57.45 16.3 55.55 L17.0 55.0 17.6 55.95 15.9 57.55 15.6 57.95 Q15.3 57.95 15.05 58.45 L14.9 58.9 Q13.9 60.4 13.5 62.1 L13.4 62.45 13.4 62.65 13.25 63.65 Q13.0 67.0 15.5 69.95 19.1 73.85 24.45 76.05 29.8 78.25 36.15 79.05 L48.9 79.6 Q55.35 79.35 61.1 78.3 66.85 77.25 71.05 75.75 75.3 74.25 77.2 72.65 L80.15 69.6 M68.0 63.0 Q69.8 63.75 70.3 64.25 70.8 64.7 70.4 64.75 L69.05 64.1 Q69.95 67.2 69.7 69.75 69.4 72.25 66.95 73.7 64.55 75.15 58.9 75.05 L54.6 74.55 48.1 73.75 41.45 73.45 Q38.35 73.5 36.7 74.45 L36.1 74.4 Q36.1 74.0 36.5 73.55 37.7 72.6 40.6 72.55 L47.05 72.85 53.95 73.6 59.3 74.1 Q63.25 74.2 65.6 73.3 67.95 72.35 68.6 70.1 69.2 67.85 67.9 63.85 66.8 63.45 66.85 63.05 L68.0 63.0" fill="#000823" fill-rule="evenodd" stroke="none"/>
      <path d="M15.6 57.95 L15.75 58.0 Q16.05 58.3 15.8 58.95 L15.05 59.4 14.9 58.9 15.05 58.45 Q15.3 57.95 15.6 57.95 M13.5 62.1 L14.0 61.8 Q14.35 62.0 14.3 62.7 14.15 63.4 13.75 63.3 13.4 63.15 13.4 62.65 L13.4 62.45 13.5 62.1 M44.65 54.3 Q44.5 55.0 43.75 54.9 43.1 54.75 43.15 54.0 43.35 53.35 44.05 53.4 44.75 53.6 44.65 54.3 M56.9 61.1 Q57.15 60.4 57.85 60.45 58.6 60.7 58.5 61.45 58.3 62.15 57.55 62.1 56.85 61.85 56.9 61.1 M58.7 56.6 Q58.9 55.95 59.6 56.0 60.3 56.2 60.25 56.9 60.0 57.6 59.35 57.5 58.65 57.35 58.7 56.6 M45.4 61.2 Q45.2 61.95 44.4 61.85 43.65 61.65 43.7 60.85 43.95 60.1 44.75 60.15 45.5 60.4 45.4 61.2 M52.6 57.6 Q52.35 58.3 51.65 58.2 51.0 58.05 51.05 57.35 51.25 56.65 51.95 56.7 52.65 56.9 52.6 57.6" fill="#996400" fill-rule="evenodd" stroke="none"/>
    </g>
    <g id="shape3" transform="matrix(1.0, 0.0, 0.0, 1.0, 0.05, 0.0)">
      <path d="M35.0 12.6 L35.25 11.95 Q36.3 9.75 39.2 7.45 45.15 2.9 50.45 1.65 55.75 0.4 59.8 2.2 63.5 4.0 65.25 7.3 67.05 10.65 67.6 14.45 68.1 18.3 68.1 21.6 L68.1 21.7 Q67.1 26.95 65.0 29.85 62.95 32.8 60.35 33.25 L57.05 34.2 52.2 35.55 47.2 36.25 Q44.8 36.3 43.25 35.2 41.75 34.1 41.75 31.25 41.2 33.3 41.4 35.55 L41.9 39.8 Q41.5 37.75 41.35 35.45 41.2 33.1 41.8 31.05 42.4 28.95 44.2 27.65 45.7 26.75 47.9 25.7 L52.15 23.45 Q54.25 22.25 55.5 21.05 52.15 22.85 49.25 24.1 46.4 25.35 43.55 26.9 41.9 27.9 40.9 29.8 L40.3 31.25 41.0 29.55 38.85 28.05 Q37.75 27.05 37.05 25.55 36.35 24.05 36.5 22.15 L36.1 23.75 Q36.3 22.45 36.8 21.25 38.0 18.45 39.9 16.9 41.8 15.45 43.95 14.35 46.1 13.25 48.1 11.95 50.1 10.6 51.6 8.55 L47.05 11.5 Q44.7 12.65 42.5 13.8 40.3 14.9 38.5 16.45 37.45 17.35 36.7 18.55 36.05 16.95 35.65 15.1 35.3 13.25 35.7 11.15 L35.0 12.6 M56.2 38.55 L52.85 39.25 50.0 39.1 47.85 38.75 47.75 38.7 50.0 39.05 52.85 39.2 56.2 38.55 M34.35 14.9 L34.3 15.5 34.3 15.9 34.35 14.9 M34.75 18.5 L34.85 18.8 35.65 20.5 34.9 18.95 34.75 18.5 M31.1 29.0 L30.7 26.05 30.25 22.0 Q30.7 19.9 31.3 19.25 31.9 18.55 32.45 18.95 33.0 19.3 33.2 20.3 32.8 22.15 33.0 24.2 33.15 26.2 33.75 27.95 34.3 29.7 35.05 30.75 35.7 32.4 35.5 33.9 35.25 35.35 34.45 35.95 33.6 36.55 32.55 35.5 L32.2 35.0 Q31.7 33.55 31.6 32.4 L31.4 31.2 31.2 29.85 31.1 29.0" fill="#ffffff" fill-rule="evenodd" stroke="none"/>
      <path d="M45.15 50.8 L43.0 48.5 Q41.2 46.0 41.35 42.55 L41.4 41.6 Q40.95 40.9 40.75 40.0 L40.25 36.7 Q38.55 38.8 36.2 39.1 34.1 39.35 32.6 38.0 31.85 37.3 31.45 36.3 L30.75 34.25 30.45 32.6 28.95 20.65 Q28.85 18.8 29.85 16.8 30.85 14.75 32.6 13.35 L33.75 12.4 Q35.0 9.25 38.45 6.55 44.4 1.95 50.05 0.55 55.7 -0.8 60.25 1.15 63.5 2.7 65.35 5.35 67.2 8.05 68.05 11.15 68.85 14.25 69.05 17.05 L69.25 21.6 Q69.3 31.65 64.45 43.9 L64.2 46.4 Q63.8 50.3 60.75 52.4 58.6 53.85 55.65 54.1 L54.25 54.15 52.95 54.1 Q50.3 53.85 47.55 52.45 L46.15 51.6 45.15 50.8 M68.1 21.7 L68.1 21.6 Q68.1 18.3 67.6 14.45 67.05 10.65 65.25 7.3 63.5 4.0 59.8 2.2 55.75 0.4 50.45 1.65 45.15 2.9 39.2 7.45 36.3 9.75 35.25 11.95 L35.0 12.6 Q34.45 13.8 34.35 14.9 L34.3 15.9 34.7 18.4 34.75 18.5 34.9 18.95 35.65 20.5 36.15 19.5 36.7 18.55 Q37.45 17.35 38.5 16.45 40.3 14.9 42.5 13.8 44.7 12.65 47.05 11.5 L51.6 8.55 Q50.1 10.6 48.1 11.95 46.1 13.25 43.95 14.35 41.8 15.45 39.9 16.9 38.0 18.45 36.8 21.25 36.3 22.45 36.1 23.75 L36.0 25.4 36.15 27.4 36.25 27.9 36.35 28.25 37.25 30.5 37.3 30.6 Q38.25 32.2 39.9 33.8 L40.3 31.25 40.9 29.8 Q41.9 27.9 43.55 26.9 46.4 25.35 49.25 24.1 52.15 22.85 55.5 21.05 54.25 22.25 52.15 23.45 L47.9 25.7 Q45.7 26.75 44.2 27.65 42.4 28.95 41.8 31.05 41.2 33.1 41.35 35.45 41.5 37.75 41.9 39.8 42.45 41.75 44.25 42.55 L48.2 42.75 Q50.25 42.15 51.55 39.95 L49.65 39.65 48.95 39.45 47.85 38.75 50.0 39.1 52.85 39.25 56.2 38.55 57.6 38.1 Q57.2 38.75 56.3 39.15 L54.25 39.75 52.25 39.95 52.25 40.05 51.5 41.45 50.35 42.6 49.0 43.45 47.5 43.85 47.4 43.9 47.3 43.9 Q48.6 46.4 51.1 47.25 53.55 48.1 56.3 47.8 58.8 47.65 60.6 46.8 62.35 45.95 63.2 43.9 68.15 31.55 68.1 21.7 M46.6 43.9 Q44.3 44.0 42.5 42.6 42.35 45.7 44.05 47.95 45.7 50.2 48.2 51.45 50.7 52.7 53.1 52.9 57.35 53.2 60.0 51.45 62.7 49.65 63.05 46.25 61.2 47.95 58.7 48.55 L53.65 48.8 Q51.1 48.4 49.15 47.2 47.25 45.95 46.6 43.9 M31.4 31.2 L31.55 32.45 32.15 34.95 Q32.55 36.35 33.35 37.1 34.7 38.3 36.5 37.9 38.3 37.45 39.7 35.5 38.1 34.1 36.65 32.3 35.2 30.45 34.65 27.85 34.1 25.3 35.2 21.7 34.15 20.05 33.65 18.15 33.15 16.25 33.3 14.25 31.75 15.5 30.9 17.3 30.05 19.05 30.1 20.55 L30.55 24.95 31.1 29.0 31.2 29.85 31.4 31.2" fill="#000000" fill-rule="evenodd" stroke="none"/>
      <path d="M35.0 12.6 L35.7 11.15 Q35.3 13.25 35.65 15.1 36.05 16.95 36.7 18.55 L36.15 19.5 35.65 20.5 34.85 18.8 34.75 18.5 34.7 18.4 34.3 15.9 34.3 15.5 34.35 14.9 Q34.45 13.8 35.0 12.6 M36.1 23.75 L36.5 22.15 Q36.35 24.05 37.05 25.55 37.75 27.05 38.85 28.05 L41.0 29.55 40.3 31.25 39.9 33.8 Q38.25 32.2 37.3 30.6 L37.25 30.5 36.35 28.25 36.25 27.9 36.15 27.4 36.0 25.4 36.1 23.75 M41.9 39.8 L41.4 35.55 Q41.2 33.3 41.75 31.25 41.75 34.1 43.25 35.2 44.8 36.3 47.2 36.25 L52.2 35.55 57.05 34.2 60.35 33.25 Q62.95 32.8 65.0 29.85 67.1 26.95 68.1 21.7 68.15 31.55 63.2 43.9 62.35 45.95 60.6 46.8 58.8 47.65 56.3 47.8 53.55 48.1 51.1 47.25 48.6 46.4 47.3 43.9 L47.4 43.9 47.5 43.85 49.0 43.45 50.35 42.6 51.5 41.45 52.25 40.05 52.25 39.95 54.25 39.75 56.3 39.15 Q57.2 38.75 57.6 38.1 L56.2 38.55 52.85 39.2 50.0 39.05 47.75 38.7 47.85 38.75 48.95 39.45 49.65 39.65 51.55 39.95 Q50.25 42.15 48.2 42.75 L44.25 42.55 Q42.45 41.75 41.9 39.8 M46.6 43.9 Q47.25 45.95 49.15 47.2 51.1 48.4 53.65 48.8 L58.7 48.55 Q61.2 47.95 63.05 46.25 62.7 49.65 60.0 51.45 57.35 53.2 53.1 52.9 50.7 52.7 48.2 51.45 45.7 50.2 44.05 47.95 42.35 45.7 42.5 42.6 44.3 44.0 46.6 43.9 M31.1 29.0 L30.55 24.95 30.1 20.55 Q30.05 19.05 30.9 17.3 31.75 15.5 33.3 14.25 33.15 16.25 33.65 18.15 34.15 20.05 35.2 21.7 34.1 25.3 34.65 27.85 35.2 30.45 36.65 32.3 38.1 34.1 39.7 35.5 38.3 37.45 36.5 37.9 34.7 38.3 33.35 37.1 32.55 36.35 32.15 34.95 L31.55 32.45 31.4 31.2 31.6 32.4 Q31.7 33.55 32.2 35.0 L32.55 35.5 Q33.6 36.55 34.45 35.95 35.25 35.35 35.5 33.9 35.7 32.4 35.05 30.75 34.3 29.7 33.75 27.95 33.15 26.2 33.0 24.2 32.8 22.15 33.2 20.3 33.0 19.3 32.45 18.95 31.9 18.55 31.3 19.25 30.7 19.9 30.25 22.0 L30.7 26.05 31.1 29.0" fill="#c2d6d4" fill-rule="evenodd" stroke="none"/>
      <path d="M31.35 85.0 L29.3 87.85 Q27.2 90.25 23.75 91.35 22.5 91.65 20.25 90.55 18.0 89.45 15.2 87.55 L9.65 83.6 4.45 79.85 Q3.55 79.15 3.7 78.85 L4.35 78.95 4.55 79.15 7.2 81.05 11.65 84.05 15.45 86.55 16.05 86.95 16.3 87.1 17.25 87.7 19.45 89.1 Q21.25 90.2 22.85 90.6 24.45 90.95 26.0 89.6 24.2 90.05 23.0 89.2 21.8 88.35 21.6 86.3 21.45 83.9 22.05 81.65 22.7 79.4 23.6 77.75 24.55 76.05 25.25 75.3 26.65 73.75 28.2 72.95 29.8 72.1 31.0 72.25 32.25 72.4 32.6 73.8 L32.5 72.65 Q32.35 71.95 31.8 71.4 31.3 70.85 30.4 70.85 L25.8 70.75 23.25 70.5 21.3 70.2 16.6 69.2 9.55 67.15 4.85 66.85 Q3.0 67.45 2.05 68.75 1.05 70.1 0.9 71.6 0.75 73.1 1.25 74.15 L1.2 75.1 Q1.1 75.3 0.55 74.2 -0.6 71.6 0.55 69.45 1.7 67.3 4.15 66.3 L9.5 66.15 14.05 67.55 Q17.15 68.5 21.6 69.25 L31.6 70.0 Q32.7 70.05 33.25 71.9 L33.7 74.45 33.6 74.45 30.15 74.0 28.35 74.7 28.25 74.65 Q26.55 75.6 25.7 76.95 L25.1 78.0 24.5 79.7 24.25 80.85 24.2 81.4 24.2 81.55 24.15 81.85 24.15 82.0 24.15 83.05 26.35 83.7 31.35 85.0" fill="#411c14" fill-rule="evenodd" stroke="none"/>
      <path d="M25.8 70.75 Q23.65 71.35 22.0 73.55 20.3 75.75 19.3 78.6 18.3 81.45 18.1 84.15 17.9 86.85 18.55 88.5 L17.25 87.7 16.3 87.1 16.05 86.95 15.45 86.55 Q14.7 83.45 15.5 80.3 16.3 77.1 17.95 74.45 19.55 71.8 21.3 70.2 L23.25 70.5 25.8 70.75" fill="#e31e00" fill-rule="evenodd" stroke="none"/>
      <path d="M4.35 78.95 L3.4 77.8 2.2 75.9 1.25 74.15 Q0.75 73.1 0.9 71.6 1.05 70.1 2.05 68.75 3.0 67.45 4.85 66.85 L9.55 67.15 16.6 69.2 21.3 70.2 Q19.55 71.8 17.95 74.45 16.3 77.1 15.5 80.3 14.7 83.45 15.45 86.55 L11.65 84.05 7.2 81.05 4.55 79.15 4.35 78.95 M17.25 87.7 L18.55 88.5 Q17.9 86.85 18.1 84.15 18.3 81.45 19.3 78.6 20.3 75.75 22.0 73.55 23.65 71.35 25.8 70.75 L30.4 70.85 Q31.3 70.85 31.8 71.4 32.35 71.95 32.5 72.65 L32.6 73.8 Q32.25 72.4 31.0 72.25 29.8 72.1 28.2 72.95 26.65 73.75 25.25 75.3 24.55 76.05 23.6 77.75 22.7 79.4 22.05 81.65 21.45 83.9 21.6 86.3 21.8 88.35 23.0 89.2 24.2 90.05 26.0 89.6 24.45 90.95 22.85 90.6 21.25 90.2 19.45 89.1 L17.25 87.7" fill="#ffbd20" fill-rule="evenodd" stroke="none"/>
      <path d="M28.85 74.8 L32.7 75.4 37.15 76.1 40.0 76.65 Q40.4 76.65 41.15 74.25 L42.75 68.0 44.5 59.75 45.7 53.85 45.4 55.4 47.45 57.1 49.2 59.0 50.05 60.4 49.2 64.3 48.0 69.75 46.55 75.5 44.9 80.25 Q44.1 82.25 43.3 82.8 42.45 83.3 40.6 83.25 L36.55 82.95 32.25 82.2 28.85 81.5 27.45 81.15 27.55 80.05 27.95 77.55 Q28.25 76.1 28.85 74.8 M35.15 84.75 L37.5 85.1 43.05 85.35 44.95 84.95 43.05 85.4 37.5 85.15 35.15 84.75 M49.8 72.45 L49.95 71.8 50.05 71.45 49.8 72.45 M51.85 64.3 L52.05 63.4 52.45 61.85 52.2 62.85 51.85 64.3 M54.1 54.85 L54.25 54.15 54.15 54.55 54.1 54.85 M24.2 81.55 L24.2 81.4 24.25 80.85 24.2 81.55" fill="#488fc1" fill-rule="evenodd" stroke="none"/>
      <path d="M45.15 50.8 L46.15 51.6 45.7 53.85 44.5 59.75 42.75 68.0 41.15 74.25 Q40.4 76.65 40.0 76.65 L37.15 76.1 32.7 75.4 28.85 74.8 28.85 74.75 28.35 74.7 30.15 74.0 33.6 74.45 33.7 74.45 37.1 74.7 39.6 75.0 Q40.0 75.05 40.7 72.7 L42.15 66.6 43.7 58.6 45.15 50.8 M54.25 54.15 L55.65 54.1 53.95 61.95 51.75 71.15 49.55 79.2 Q48.5 82.75 47.6 84.5 46.75 86.0 44.15 86.3 41.55 86.65 38.2 86.2 L31.65 85.05 31.35 85.0 26.35 83.7 24.15 83.05 24.15 82.0 26.25 82.6 31.25 83.95 35.15 84.75 37.5 85.15 43.05 85.4 44.95 84.95 46.05 84.0 46.1 84.0 46.15 83.85 47.9 79.05 47.95 78.9 49.65 73.1 49.8 72.45 50.05 71.45 51.2 67.0 51.85 64.3 52.2 62.85 52.45 61.85 53.45 57.6 54.0 55.2 54.1 54.85 54.15 54.55 54.25 54.15" fill="#1d3f60" fill-rule="evenodd" stroke="none"/>
      <path d="M46.15 51.6 L47.55 52.45 Q50.3 53.85 52.95 54.1 L54.25 54.15 54.1 54.85 54.0 55.2 53.45 57.6 52.45 61.85 52.05 63.4 51.85 64.3 51.2 67.0 50.05 71.45 49.95 71.8 49.8 72.45 49.65 73.1 47.95 78.9 47.9 79.05 46.15 83.85 46.1 84.0 46.05 84.0 44.95 84.95 43.05 85.35 37.5 85.1 35.15 84.75 31.25 83.95 26.25 82.6 24.15 82.0 24.15 81.85 24.2 81.55 24.25 80.85 24.5 79.7 25.1 78.0 25.7 76.95 Q26.55 75.6 28.25 74.65 L28.35 74.7 28.85 74.75 28.85 74.8 Q28.25 76.1 27.95 77.55 L27.55 80.05 27.45 81.15 28.85 81.5 32.25 82.2 36.55 82.95 40.6 83.25 Q42.45 83.3 43.3 82.8 44.1 82.25 44.9 80.25 L46.55 75.5 48.0 69.75 49.2 64.3 50.05 60.4 49.2 59.0 47.45 57.1 45.4 55.4 45.7 53.85 46.15 51.6" fill="#0b4f7d" fill-rule="evenodd" stroke="none"/>
    </g>
  </defs>
</svg>
