<?xml version="1.0" encoding="UTF-8" standalone="no"?>
<svg xmlns:xlink="http://www.w3.org/1999/xlink" height="27.0px" width="20.75px" xmlns="http://www.w3.org/2000/svg">
  <g transform="matrix(1.0, 0.0, 0.0, 1.0, 10.85, 27.0)">
    <use height="27.0" transform="matrix(1.0, 0.0, 0.0, 1.0, -9.85, -27.0)" width="19.75" xlink:href="#shape0"/>
  </g>
  <defs>
    <g id="shape0" transform="matrix(1.0, 0.0, 0.0, 1.0, 9.85, 27.0)">
      <path d="M6.55 -24.75 Q9.15 -22.5 9.15 -18.95 9.15 -16.4 7.95 -14.65 9.9 -12.55 9.9 -9.3 9.85 -4.95 6.8 -2.3 4.05 0.0 0.0 0.0 -4.0 0.0 -6.7 -2.3 L-6.75 -2.3 Q-9.8 -4.95 -9.85 -9.3 -9.85 -12.6 -7.85 -14.65 -9.05 -16.45 -9.1 -18.95 -9.1 -22.5 -6.5 -24.75 -4.1 -27.0 0.0 -27.0 4.15 -27.0 6.6 -24.75 L6.55 -24.75 M2.6 -9.6 Q2.6 -7.0 0.05 -7.0 -2.45 -7.0 -2.45 -9.6 -2.45 -12.25 0.05 -12.25 2.6 -12.25 2.6 -9.6 M2.3 -18.4 Q2.3 -16.15 0.05 -16.15 -2.15 -16.15 -2.15 -18.4 -2.15 -20.65 0.05 -20.65 2.3 -20.65 2.3 -18.4 M6.6 -21.55 L5.3 -23.2 Q3.35 -24.95 0.05 -24.95 -3.2 -24.95 -5.15 -23.2 L-6.45 -21.55 Q-7.05 -20.4 -7.05 -18.9 -7.05 -15.95 -4.8 -14.45 -6.3 -13.6 -7.05 -12.3 -7.8 -11.0 -7.8 -9.25 -7.8 -5.85 -5.4 -3.8 -3.2 -1.95 0.05 -1.95 3.35 -1.95 5.55 -3.8 7.95 -5.85 7.95 -9.25 7.95 -11.0 7.2 -12.3 6.45 -13.6 4.95 -14.45 7.2 -15.9 7.2 -18.9 7.2 -20.4 6.6 -21.55" fill="#ffffff" fill-rule="evenodd" stroke="none"/>
      <path d="M6.6 -21.55 Q7.2 -20.4 7.2 -18.9 7.2 -15.9 4.95 -14.45 6.45 -13.6 7.2 -12.3 7.95 -11.0 7.95 -9.25 7.95 -5.85 5.55 -3.8 3.35 -1.95 0.05 -1.95 -3.2 -1.95 -5.4 -3.8 -7.8 -5.85 -7.8 -9.25 -7.8 -11.0 -7.05 -12.3 -6.3 -13.6 -4.8 -14.45 -7.05 -15.95 -7.05 -18.9 -7.05 -20.4 -6.45 -21.55 L-5.15 -23.2 Q-3.2 -24.95 0.05 -24.95 3.35 -24.95 5.3 -23.2 L6.6 -21.55 M2.3 -18.4 Q2.3 -20.65 0.05 -20.65 -2.15 -20.65 -2.15 -18.4 -2.15 -16.15 0.05 -16.15 2.3 -16.15 2.3 -18.4 M2.6 -9.6 Q2.6 -12.25 0.05 -12.25 -2.45 -12.25 -2.45 -9.6 -2.45 -7.0 0.05 -7.0 2.6 -7.0 2.6 -9.6" fill="#000000" fill-rule="evenodd" stroke="none"/>
    </g>
  </defs>
</svg>
