<?xml version="1.0" encoding="UTF-8" standalone="no"?>
<svg xmlns:xlink="http://www.w3.org/1999/xlink" height="27.0px" width="20.75px" xmlns="http://www.w3.org/2000/svg">
  <g transform="matrix(1.0, 0.0, 0.0, 1.0, 10.85, 27.0)">
    <use height="26.65" transform="matrix(1.0, 0.0, 0.0, 1.0, -9.8, -26.65)" width="19.65" xlink:href="#shape0"/>
  </g>
  <defs>
    <g id="shape0" transform="matrix(1.0, 0.0, 0.0, 1.0, 9.8, 26.65)">
      <path d="M5.85 -25.05 Q8.15 -23.45 9.15 -20.75 10.75 -16.55 8.8 -12.45 6.0 -6.65 2.85 -1.1 2.4 -0.35 1.6 -0.1 L-5.0 0.0 Q-6.15 -0.2 -6.55 -1.05 -6.8 -1.65 -6.6 -2.2 -5.65 -4.95 -4.3 -7.6 -7.55 -9.0 -8.95 -12.25 -10.25 -15.45 -9.6 -18.65 -9.0 -21.5 -7.05 -23.8 -4.9 -25.9 -1.9 -26.45 L3.35 -26.2 Q4.7 -25.95 5.85 -25.05 M0.2 -14.05 Q-2.4 -14.25 -2.4 -16.6 -2.4 -19.3 0.25 -19.3 2.6 -19.3 2.6 -16.95 2.6 -16.1 1.6 -14.35 L-4.95 -2.0 1.1 -2.0 6.2 -11.55 Q7.95 -14.75 7.95 -16.85 7.95 -20.3 5.85 -22.45 3.75 -24.6 0.3 -24.6 -3.4 -24.6 -5.6 -22.35 -7.75 -20.15 -7.75 -16.45 -7.75 -11.1 -2.65 -9.05 L0.2 -14.05" fill="#ffffff" fill-rule="evenodd" stroke="none"/>
      <path d="M0.2 -14.05 L-2.65 -9.05 Q-7.75 -11.1 -7.75 -16.45 -7.75 -20.15 -5.6 -22.35 -3.4 -24.6 0.3 -24.6 3.75 -24.6 5.85 -22.45 7.95 -20.3 7.95 -16.85 7.95 -14.75 6.2 -11.55 L1.1 -2.0 -4.95 -2.0 1.6 -14.35 Q2.6 -16.1 2.6 -16.95 2.6 -19.3 0.25 -19.3 -2.4 -19.3 -2.4 -16.6 -2.4 -14.25 0.2 -14.05" fill="#000000" fill-rule="evenodd" stroke="none"/>
    </g>
  </defs>
</svg>
