<?xml version="1.0" encoding="UTF-8" standalone="no"?>
<svg xmlns:xlink="http://www.w3.org/1999/xlink" height="27.0px" width="20.75px" xmlns="http://www.w3.org/2000/svg">
  <g transform="matrix(1.0, 0.0, 0.0, 1.0, 10.85, 27.0)">
    <use height="26.6" transform="matrix(1.0, 0.0, 0.0, 1.0, -9.5, -26.6)" width="19.0" xlink:href="#shape0"/>
  </g>
  <defs>
    <g id="shape0" transform="matrix(1.0, 0.0, 0.0, 1.0, 9.5, 26.6)">
      <path d="M-1.05 -15.5 Q-2.05 -16.4 -2.05 -17.6 -2.05 -19.6 -0.15 -19.6 1.8 -19.6 1.8 -17.55 1.8 -16.4 -2.8 -11.75 -7.45 -7.1 -7.45 -5.4 -7.45 -1.95 -3.7 -1.95 L7.55 -1.95 7.55 -7.1 -0.05 -7.1 5.6 -13.15 Q7.15 -15.1 7.15 -17.25 7.15 -20.25 5.55 -22.15 L5.15 -22.6 Q3.15 -24.55 -0.1 -24.55 -3.3 -24.55 -5.25 -22.45 L-5.5 -22.15 Q-7.15 -20.15 -7.15 -17.1 -7.15 -13.9 -4.65 -11.95 L-1.05 -15.5 M-3.75 0.0 Q-9.6 0.0 -9.5 -5.45 -9.75 -7.2 -6.45 -10.9 -9.2 -13.35 -9.2 -17.15 -9.2 -21.3 -6.75 -23.85 -4.25 -26.6 -0.15 -26.6 4.0 -26.6 6.5 -24.05 L6.55 -24.05 Q9.1 -21.55 9.1 -17.3 9.15 -14.5 7.2 -12.0 L7.15 -11.95 4.6 -9.15 7.5 -9.15 Q8.35 -9.15 8.95 -8.55 9.5 -8.0 9.5 -7.15 L9.5 -2.0 Q9.5 -1.15 8.95 -0.55 8.35 0.0 7.5 0.0 L-3.75 0.0" fill="#ffffff" fill-rule="evenodd" stroke="none"/>
      <path d="M-1.05 -15.5 L-4.65 -11.95 Q-7.15 -13.9 -7.15 -17.1 -7.15 -20.15 -5.5 -22.15 L-5.25 -22.45 Q-3.3 -24.55 -0.1 -24.55 3.15 -24.55 5.15 -22.6 L5.55 -22.15 Q7.15 -20.25 7.15 -17.25 7.15 -15.1 5.6 -13.15 L-0.05 -7.1 7.55 -7.1 7.55 -1.95 -3.7 -1.95 Q-7.45 -1.95 -7.45 -5.4 -7.45 -7.1 -2.8 -11.75 1.8 -16.4 1.8 -17.55 1.8 -19.6 -0.15 -19.6 -2.05 -19.6 -2.05 -17.6 -2.05 -16.4 -1.05 -15.5" fill="#000000" fill-rule="evenodd" stroke="none"/>
    </g>
  </defs>
</svg>
