<?xml version="1.0" encoding="UTF-8" standalone="no"?>
<svg xmlns:xlink="http://www.w3.org/1999/xlink" height="27.0px" width="20.75px" xmlns="http://www.w3.org/2000/svg">
  <g transform="matrix(1.0, 0.0, 0.0, 1.0, 10.85, 27.0)">
    <use height="26.7" transform="matrix(1.0, 0.0, 0.0, 1.0, -10.85, -26.7)" width="20.65" xlink:href="#shape0"/>
  </g>
  <defs>
    <g id="shape0" transform="matrix(1.0, 0.0, 0.0, 1.0, 10.85, 26.7)">
      <path d="M-3.25 -25.1 L-2.55 -25.8 -1.55 -26.1 3.65 -26.1 3.95 -26.05 4.45 -26.4 5.3 -26.6 Q7.35 -27.3 7.35 -23.9 L7.35 -13.55 7.8 -13.55 Q8.65 -13.55 9.25 -12.95 9.8 -12.4 9.8 -11.55 L9.8 -6.4 Q9.8 -5.55 9.25 -4.95 8.65 -4.4 7.8 -4.4 L7.35 -4.4 7.35 -2.0 Q7.35 -1.15 6.8 -0.55 6.2 0.0 5.35 0.0 L0.4 0.0 Q-0.45 0.0 -1.0 -0.55 -1.6 -1.15 -1.6 -2.0 L-1.6 -4.4 -5.45 -4.4 Q-10.85 -4.35 -10.85 -9.9 -10.9 -11.55 -9.65 -13.85 L-9.6 -13.9 -3.25 -25.1 M5.35 -24.55 L4.95 -24.0 0.45 -16.3 0.45 -11.5 -3.4 -11.5 3.7 -24.05 -1.5 -24.05 -7.85 -12.85 Q-8.8 -11.1 -8.8 -9.85 -8.8 -6.35 -5.4 -6.35 L0.45 -6.35 0.45 -1.95 5.4 -1.95 5.4 -6.35 7.85 -6.35 7.85 -11.5 5.4 -11.5 5.4 -23.85 5.35 -24.55" fill="#ffffff" fill-rule="evenodd" stroke="none"/>
      <path d="M5.35 -24.55 L5.4 -23.85 5.4 -11.5 7.85 -11.5 7.85 -6.35 5.4 -6.35 5.4 -1.95 0.45 -1.95 0.45 -6.35 -5.4 -6.35 Q-8.8 -6.35 -8.8 -9.85 -8.8 -11.1 -7.85 -12.85 L-1.5 -24.05 3.7 -24.05 -3.4 -11.5 0.45 -11.5 0.45 -16.3 4.95 -24.0 5.35 -24.55" fill="#000000" fill-rule="evenodd" stroke="none"/>
    </g>
  </defs>
</svg>
