<?xml version="1.0" encoding="UTF-8" standalone="no"?>
<svg xmlns:xlink="http://www.w3.org/1999/xlink" height="27.0px" width="20.75px" xmlns="http://www.w3.org/2000/svg">
  <g transform="matrix(1.0, 0.0, 0.0, 1.0, 10.85, 27.0)">
    <use height="26.3" transform="matrix(1.0, 0.0, 0.0, 1.0, -8.9, -26.3)" width="17.85" xlink:href="#shape0"/>
  </g>
  <defs>
    <g id="shape0" transform="matrix(1.0, 0.0, 0.0, 1.0, 8.9, 26.3)">
      <path d="M-6.9 -26.3 L1.9 -26.3 Q9.2 -26.3 8.95 -20.65 9.0 -19.75 8.2 -16.95 L8.15 -16.95 3.3 -1.4 2.6 -0.4 Q2.05 0.0 1.4 0.0 L-4.55 0.0 Q-5.2 0.0 -5.7 -0.4 -6.25 -0.8 -6.45 -1.4 L-6.4 -2.65 -1.35 -17.15 -6.9 -17.15 Q-7.75 -17.15 -8.3 -17.7 -8.9 -18.3 -8.9 -19.15 L-8.9 -24.3 Q-8.9 -25.15 -8.3 -25.7 -7.75 -26.3 -6.9 -26.3 M6.3 -17.5 L7.0 -20.6 Q7.0 -24.25 1.95 -24.25 L-6.85 -24.25 -6.85 -19.1 1.5 -19.1 -4.5 -1.95 1.45 -1.95 6.3 -17.5" fill="#ffffff" fill-rule="evenodd" stroke="none"/>
      <path d="M6.3 -17.5 L1.45 -1.95 -4.5 -1.95 1.5 -19.1 -6.85 -19.1 -6.85 -24.25 1.95 -24.25 Q7.0 -24.25 7.0 -20.6 L6.3 -17.5" fill="#000000" fill-rule="evenodd" stroke="none"/>
    </g>
  </defs>
</svg>
