<?xml version="1.0" encoding="UTF-8" standalone="no"?>
<svg xmlns:xlink="http://www.w3.org/1999/xlink" height="78.1px" width="666.85px" xmlns="http://www.w3.org/2000/svg">
  <g transform="matrix(1.0, 0.0, 0.0, 1.0, 21.05, 6.05)">
    <use height="38.65" transform="matrix(1.0, 0.0, 0.0, 1.0, 22.55, 33.4)" width="601.85" xlink:href="#shape0"/>
    <use height="31.7" id="g1" transform="matrix(0.8539, 0.0, 0.0, 0.8539, 61.1231, 38.4219)" width="32.2" xlink:href="#sprite0"/>
    <use height="31.7" id="g2" transform="matrix(0.8539, 0.0, 0.0, 0.8539, 88.9231, 38.4219)" width="32.2" xlink:href="#sprite0"/>
    <use height="31.7" id="g3" transform="matrix(0.8539, 0.0, 0.0, 0.8539, 116.7731, 38.4219)" width="32.2" xlink:href="#sprite0"/>
    <use height="31.7" id="g4" transform="matrix(0.8539, 0.0, 0.0, 0.8539, 144.6231, 38.4219)" width="32.2" xlink:href="#sprite0"/>
    <use height="31.7" id="g5" transform="matrix(0.8539, 0.0, 0.0, 0.8539, 172.4731, 38.4219)" width="32.2" xlink:href="#sprite0"/>
    <use height="31.7" id="g6" transform="matrix(0.8539, 0.0, 0.0, 0.8539, 200.2731, 38.4219)" width="32.2" xlink:href="#sprite0"/>
    <use height="31.7" id="g7" transform="matrix(0.8539, 0.0, 0.0, 0.8539, 399.1231, 38.4219)" width="32.2" xlink:href="#sprite0"/>
    <use height="31.7" id="g8" transform="matrix(0.8539, 0.0, 0.0, 0.8539, 426.9731, 38.4219)" width="32.2" xlink:href="#sprite0"/>
    <use height="31.7" id="g9" transform="matrix(0.8539, 0.0, 0.0, 0.8539, 454.8231, 38.4219)" width="32.2" xlink:href="#sprite0"/>
    <use height="31.7" id="g10" transform="matrix(0.8539, 0.0, 0.0, 0.8539, 482.6731, 38.4219)" width="32.2" xlink:href="#sprite0"/>
    <use height="31.7" id="g11" transform="matrix(0.8539, 0.0, 0.0, 0.8539, 510.5231, 38.4219)" width="32.2" xlink:href="#sprite0"/>
    <use height="31.7" id="g12" transform="matrix(0.8539, 0.0, 0.0, 0.8539, 538.3731, 38.4219)" width="32.2" xlink:href="#sprite0"/>
    <use height="42.1" id="mc" transform="matrix(1.0, 0.0, 0.0, 1.0, -21.05, -6.05)" width="666.85" xlink:href="#sprite2"/>
  </g>
  <defs>
    <g id="shape0" transform="matrix(1.0, 0.0, 0.0, 1.0, -22.55, -33.4)">
      <path d="M624.4 70.05 L24.4 70.05 24.4 33.4 624.4 33.4 624.4 70.05" fill="#000000" fill-rule="evenodd" stroke="none"/>
      <path d="M622.6 72.05 L22.55 72.05 22.55 68.45 622.6 68.45 622.6 72.05" fill="#454545" fill-rule="evenodd" stroke="none"/>
    </g>
    <g id="sprite0" transform="matrix(1.0, 0.0, 0.0, 1.0, 0.5, 0.15)">
      <use height="31.7" id="gear" transform="matrix(1.0, 0.0, 0.0, 1.0, -0.5, -0.15)" width="32.2" xlink:href="#sprite1"/>
      <use height="25.2" transform="matrix(1.0, 0.0, 0.0, 1.0, 3.5, 3.75)" width="25.2" xlink:href="#shape2"/>
    </g>
    <g id="sprite1" transform="matrix(1.0, 0.0, 0.0, 1.0, 16.1, 15.85)">
      <use height="31.7" transform="matrix(1.0, 0.0, 0.0, 1.0, -16.1, -15.85)" width="32.2" xlink:href="#shape1"/>
    </g>
    <g id="shape1" transform="matrix(1.0, 0.0, 0.0, 1.0, 16.1, 15.85)">
      <path d="M9.15 -7.5 L12.25 -9.25 14.25 -7.0 11.2 -4.1 11.9 -1.55 16.1 -0.95 15.6 1.45 11.95 2.1 11.35 4.65 14.65 7.05 12.5 9.15 9.65 7.7 7.6 9.85 9.2 13.05 6.95 14.75 3.8 12.0 1.95 12.5 1.45 15.75 -1.65 15.85 -3.05 12.35 -4.5 11.9 -7.1 14.8 -9.1 13.0 -8.25 9.65 -9.65 8.2 -12.55 9.55 -14.45 7.2 -11.85 4.25 -12.3 2.15 -16.1 1.25 -15.85 -1.4 -12.15 -2.3 -11.55 -4.25 -14.2 -7.1 -13.0 -9.1 -9.25 -7.8 -7.75 -9.2 -9.35 -12.3 -7.35 -14.0 -4.25 -11.2 -2.2 -11.7 -1.8 -15.85 1.2 -15.6 2.2 -11.6 3.8 -11.2 6.45 -13.85 8.95 -12.2 7.65 -9.0 9.15 -7.5" fill="#535353" fill-rule="evenodd" stroke="none"/>
    </g>
    <g id="shape2" transform="matrix(1.0, 0.0, 0.0, 1.0, 0.0, 0.0)">
      <path d="M25.2 12.6 Q25.15 16.1 23.5 18.95 21.8 21.8 19.0 23.5 16.15 25.2 12.6 25.2 9.1 25.15 6.25 23.5 3.4 21.8 1.75 19.0 0.05 16.15 0.0 12.6 0.05 9.1 1.7 6.25 3.4 3.4 6.25 1.75 9.1 0.05 12.6 0.0 16.1 0.05 18.95 1.7 21.8 3.4 23.5 6.25 25.15 9.1 25.2 12.6" fill="#0d0d0d" fill-rule="evenodd" stroke="none"/>
      <path d="M23.85 12.0 Q23.8 15.25 22.25 17.9 20.7 20.5 18.05 22.1 15.4 23.65 12.15 23.7 8.9 23.65 6.25 22.1 3.6 20.55 2.05 17.9 0.5 15.25 0.45 12.0 0.5 8.75 2.05 6.1 3.6 3.45 6.25 1.9 8.85 0.35 12.15 0.3 15.4 0.35 18.05 1.9 20.65 3.45 22.25 6.1 23.8 8.7 23.85 12.0" fill="#5e5e5e" fill-rule="evenodd" stroke="none"/>
      <path d="M21.65 12.4 Q21.6 15.0 20.4 17.1 19.15 19.2 17.05 20.45 14.9 21.7 12.3 21.75 9.7 21.7 7.6 20.5 5.5 19.25 4.25 17.15 3.0 15.0 2.95 12.4 3.0 9.8 4.2 7.7 5.45 5.6 7.55 4.35 9.7 3.1 12.3 3.05 14.9 3.1 17.0 4.3 19.1 5.55 20.35 7.65 21.6 9.8 21.65 12.4" fill="#292929" fill-rule="evenodd" stroke="none"/>
      <path d="M20.95 12.3 Q20.9 14.75 19.75 16.75 18.6 18.7 16.6 19.9 14.6 21.05 12.15 21.1 9.7 21.05 7.7 19.9 5.75 18.75 4.55 16.75 3.4 14.75 3.35 12.3 3.4 9.85 4.55 7.85 5.7 5.9 7.7 4.7 9.7 3.55 12.15 3.5 14.6 3.55 16.6 4.7 18.55 5.85 19.75 7.85 20.9 9.85 20.95 12.3" fill="#5e5e5e" fill-rule="evenodd" stroke="none"/>
      <path d="M16.35 12.15 Q16.3 14.0 15.05 15.2 13.85 16.45 12.0 16.5 10.15 16.45 8.95 15.2 7.7 14.0 7.65 12.15 7.7 10.3 8.9 9.1 10.15 7.85 12.0 7.8 13.85 7.85 15.05 9.05 16.3 10.3 16.35 12.15" fill="#ffffff" fill-rule="evenodd" stroke="none"/>
      <path d="M16.75 12.55 Q16.7 14.4 15.45 15.6 14.25 16.85 12.4 16.9 10.55 16.85 9.3 15.6 8.1 14.4 8.05 12.55 8.1 10.7 9.3 9.5 10.55 8.25 12.4 8.2 14.25 8.25 15.45 9.45 16.7 10.7 16.75 12.55" fill="#000000" fill-rule="evenodd" stroke="none"/>
    </g>
    <g id="sprite2" transform="matrix(1.0, 0.0, 0.0, 1.0, -22.35, -1.8)">
      <use height="42.1" transform="matrix(1.0, 0.0, 0.0, 1.0, 30.95, 1.8)" width="658.25" xlink:href="#shape3"/>
    </g>
    <g id="shape3" transform="matrix(1.0, 0.0, 0.0, 1.0, -30.95, -1.8)">
      <path d="M32.95 39.75 L32.9 38.95 73.3 1.8 74.25 1.8 33.15 39.75 32.95 39.75 M32.8 36.9 L32.75 35.95 70.3 1.8 71.25 1.8 32.8 36.9 M32.1 23.05 L32.05 22.2 55.65 1.8 56.6 1.8 32.1 23.05 M31.95 20.4 L31.9 19.6 52.7 1.8 53.6 1.8 31.95 20.4 M31.3 8.05 L31.25 7.3 37.95 1.8 38.9 1.8 31.3 8.05 M31.15 5.7 L31.1 4.95 35.0 1.8 35.95 1.8 31.15 5.7 M88.0 1.8 L88.95 1.8 50.0 39.75 48.9 39.75 88.0 1.8 M91.0 1.8 L91.95 1.8 53.45 39.75 52.35 39.75 91.0 1.8 M105.65 1.8 L106.6 1.8 70.3 39.75 69.2 39.75 105.65 1.8 M108.7 1.8 L109.6 1.8 73.75 39.75 72.65 39.75 108.7 1.8 M123.35 1.8 L124.3 1.8 90.6 39.75 89.55 39.75 123.35 1.8 M126.35 1.8 L127.3 1.8 94.05 39.75 93.0 39.75 126.35 1.8 M141.05 1.8 L141.95 1.8 110.9 39.75 109.85 39.75 141.05 1.8 M144.05 1.8 L145.0 1.8 114.35 39.75 113.3 39.75 144.05 1.8 M158.7 1.8 L159.65 1.8 131.25 39.75 130.15 39.75 158.7 1.8 M161.7 1.8 L162.6 1.8 134.65 39.75 133.55 39.75 161.7 1.8 M176.4 1.8 L177.35 1.8 151.55 39.75 150.45 39.75 176.4 1.8 M179.35 1.8 L180.3 1.8 154.95 39.75 153.85 39.75 179.35 1.8 M194.05 1.8 L195.0 1.8 171.85 39.75 170.75 39.75 194.05 1.8 M197.05 1.8 L198.0 1.8 175.25 39.75 174.15 39.75 197.05 1.8 M211.75 1.8 L212.7 1.8 192.15 39.75 191.1 39.75 211.75 1.8 M214.7 1.8 L215.65 1.8 195.55 39.75 194.5 39.75 214.7 1.8 M229.45 1.8 L230.35 1.8 212.5 39.75 211.4 39.75 229.45 1.8 M232.4 1.8 L233.35 1.8 215.9 39.75 214.8 39.75 232.4 1.8 M247.05 1.8 L248.0 1.8 232.75 39.75 231.65 39.75 247.05 1.8 M250.1 1.8 L251.0 1.8 236.2 39.75 235.1 39.75 250.1 1.8 M264.75 1.8 L265.7 1.8 253.05 39.75 251.95 39.75 264.75 1.8 M267.75 1.8 L268.7 1.8 256.5 39.75 255.4 39.75 267.75 1.8 M282.45 1.8 L283.35 1.8 273.35 39.75 272.3 39.75 282.45 1.8 M285.45 1.8 L286.4 1.8 276.8 39.75 275.75 39.75 285.45 1.8 M300.1 1.8 L301.05 1.8 293.65 39.75 292.6 39.75 300.1 1.8 M303.1 1.8 L304.05 1.8 297.1 39.75 296.05 39.75 303.1 1.8 M317.8 1.8 L318.75 1.8 314.0 39.75 312.9 39.75 317.8 1.8 M320.8 1.8 L321.75 1.8 317.45 39.75 316.35 39.75 320.8 1.8 M335.1 1.8 L335.95 1.8 333.75 39.75 332.75 39.75 335.1 1.8 M337.95 1.8 L338.9 1.8 337.15 39.75 336.05 39.75 337.95 1.8 M352.7 1.8 L353.6 1.8 354.05 39.75 353.0 39.75 352.7 1.8 M355.6 1.8 L356.6 1.8 357.45 39.75 356.4 39.75 355.6 1.8 M370.3 1.8 L371.25 1.8 374.35 39.75 373.25 39.75 370.3 1.8 M373.3 1.8 L374.25 1.8 377.8 39.75 376.7 39.75 373.3 1.8 M388.0 1.8 L388.95 1.8 394.65 39.75 393.55 39.75 388.0 1.8 M391.0 1.8 L391.95 1.8 398.1 39.75 397.0 39.75 391.0 1.8 M405.7 1.8 L406.6 1.8 414.95 39.75 413.85 39.75 405.7 1.8 M408.65 1.8 L409.65 1.8 418.4 39.75 417.3 39.75 408.65 1.8 M423.35 1.8 L424.3 1.8 435.25 39.75 434.15 39.75 423.35 1.8 M426.35 1.8 L427.3 1.8 438.7 39.75 437.6 39.75 426.35 1.8 M441.05 1.8 L442.0 1.8 455.55 39.75 454.5 39.75 441.05 1.8 M444.0 1.8 L444.95 1.8 458.95 39.75 457.9 39.75 444.0 1.8 M458.7 1.8 L459.65 1.8 475.9 39.75 474.8 39.75 458.7 1.8 M461.65 1.8 L462.6 1.8 479.3 39.75 478.2 39.75 461.65 1.8 M476.4 1.8 L477.35 1.8 496.2 39.75 495.1 39.75 476.4 1.8 M479.35 1.8 L480.3 1.8 499.6 39.75 498.5 39.75 479.35 1.8 M494.1 1.8 L495.0 1.8 516.5 39.75 515.4 39.75 494.1 1.8 M497.0 1.8 L498.0 1.8 519.9 39.75 518.8 39.75 497.0 1.8 M511.75 1.8 L512.7 1.8 536.8 39.75 535.75 39.75 511.75 1.8 M514.7 1.8 L515.65 1.8 540.2 39.75 539.15 39.75 514.7 1.8 M529.45 1.8 L530.4 1.8 557.15 39.75 556.05 39.75 529.45 1.8 M532.4 1.8 L533.35 1.8 560.55 39.75 559.45 39.75 532.4 1.8 M547.1 1.8 L548.0 1.8 577.4 39.75 576.3 39.75 547.1 1.8 M550.05 1.8 L551.0 1.8 580.85 39.75 579.75 39.75 550.05 1.8 M564.75 1.8 L565.7 1.8 597.7 39.75 596.6 39.75 564.75 1.8 M567.75 1.8 L568.7 1.8 601.15 39.75 600.05 39.75 567.75 1.8 M582.4 1.8 L583.4 1.8 618.0 39.75 616.9 39.75 582.4 1.8 M585.4 1.8 L586.4 1.8 621.45 39.75 620.4 39.75 585.4 1.8 M600.1 1.8 L601.05 1.8 638.3 39.75 637.25 39.75 600.1 1.8 M603.1 1.8 L604.05 1.8 641.75 39.75 640.7 39.75 603.1 1.8 M617.8 1.8 L618.75 1.8 658.65 39.75 657.55 39.75 617.8 1.8 M620.8 1.8 L621.75 1.8 662.1 39.75 661.0 39.75 620.8 1.8 M635.45 1.8 L636.4 1.8 678.95 39.75 677.85 39.75 635.45 1.8 M638.4 1.8 L639.4 1.8 682.35 39.75 681.25 39.75 638.4 1.8 M653.15 1.8 L654.1 1.8 688.5 30.7 688.55 31.65 653.15 1.8 M656.1 1.8 L657.05 1.8 688.35 27.85 688.4 28.75 656.1 1.8 M670.8 1.8 L671.8 1.8 687.6 14.4 687.65 15.2 670.8 1.8 M673.8 1.8 L674.75 1.8 687.5 11.85 687.55 12.65 673.8 1.8" fill="#919191" fill-rule="evenodd" stroke="none"/>
      <path d="M32.9 38.95 L32.8 36.9 71.25 1.8 73.3 1.8 32.9 38.95 M32.05 22.2 L31.95 20.4 53.6 1.8 55.65 1.8 32.05 22.2 M31.25 7.3 L31.15 5.7 35.95 1.8 37.95 1.8 31.25 7.3 M88.95 1.8 L91.0 1.8 52.35 39.75 50.0 39.75 88.95 1.8 M106.6 1.8 L108.7 1.8 72.65 39.75 70.3 39.75 106.6 1.8 M124.3 1.8 L126.35 1.8 93.0 39.75 90.6 39.75 124.3 1.8 M141.95 1.8 L144.05 1.8 113.3 39.75 110.9 39.75 141.95 1.8 M159.65 1.8 L161.7 1.8 133.55 39.75 131.25 39.75 159.65 1.8 M177.35 1.8 L179.35 1.8 153.85 39.75 151.55 39.75 177.35 1.8 M195.0 1.8 L197.05 1.8 174.15 39.75 171.85 39.75 195.0 1.8 M212.7 1.8 L214.7 1.8 194.5 39.75 192.15 39.75 212.7 1.8 M230.35 1.8 L232.4 1.8 214.8 39.75 212.5 39.75 230.35 1.8 M248.0 1.8 L250.1 1.8 235.1 39.75 232.75 39.75 248.0 1.8 M265.7 1.8 L267.75 1.8 255.4 39.75 253.05 39.75 265.7 1.8 M283.35 1.8 L285.45 1.8 275.75 39.75 273.35 39.75 283.35 1.8 M301.05 1.8 L303.1 1.8 296.05 39.75 293.65 39.75 301.05 1.8 M318.75 1.8 L320.8 1.8 316.35 39.75 314.0 39.75 318.75 1.8 M335.95 1.8 L337.95 1.8 336.05 39.75 333.75 39.75 335.95 1.8 M353.6 1.8 L355.6 1.8 356.4 39.75 354.05 39.75 353.6 1.8 M371.25 1.8 L373.3 1.8 376.7 39.75 374.35 39.75 371.25 1.8 M388.95 1.8 L391.0 1.8 397.0 39.75 394.65 39.75 388.95 1.8 M406.6 1.8 L408.65 1.8 417.3 39.75 414.95 39.75 406.6 1.8 M424.3 1.8 L426.35 1.8 437.6 39.75 435.25 39.75 424.3 1.8 M442.0 1.8 L444.0 1.8 457.9 39.75 455.55 39.75 442.0 1.8 M459.65 1.8 L461.65 1.8 478.2 39.75 475.9 39.75 459.65 1.8 M477.35 1.8 L479.35 1.8 498.5 39.75 496.2 39.75 477.35 1.8 M495.0 1.8 L497.0 1.8 518.8 39.75 516.5 39.75 495.0 1.8 M512.7 1.8 L514.7 1.8 539.15 39.75 536.8 39.75 512.7 1.8 M530.4 1.8 L532.4 1.8 559.45 39.75 557.15 39.75 530.4 1.8 M548.0 1.8 L550.05 1.8 579.75 39.75 577.4 39.75 548.0 1.8 M565.7 1.8 L567.75 1.8 600.05 39.75 597.7 39.75 565.7 1.8 M583.4 1.8 L585.4 1.8 620.4 39.75 618.0 39.75 583.4 1.8 M601.05 1.8 L603.1 1.8 640.7 39.75 638.3 39.75 601.05 1.8 M618.75 1.8 L620.8 1.8 661.0 39.75 658.65 39.75 618.75 1.8 M636.4 1.8 L638.4 1.8 681.25 39.75 678.95 39.75 636.4 1.8 M654.1 1.8 L656.1 1.8 688.4 28.75 688.5 30.7 654.1 1.8 M671.8 1.8 L673.8 1.8 687.55 12.65 687.6 14.4 671.8 1.8" fill="#4d4d4d" fill-rule="evenodd" stroke="none"/>
      <path d="M688.55 31.65 L688.95 39.75 682.35 39.75 639.4 1.8 653.15 1.8 688.55 31.65 M32.75 35.95 L32.1 23.05 56.6 1.8 70.3 1.8 32.75 35.95 M31.9 19.6 L31.3 8.05 38.9 1.8 52.7 1.8 31.9 19.6 M31.1 4.95 L30.95 1.8 35.0 1.8 31.1 4.95 M74.25 1.8 L88.0 1.8 48.9 39.75 33.15 39.75 74.25 1.8 M91.95 1.8 L105.65 1.8 69.2 39.75 53.45 39.75 91.95 1.8 M109.6 1.8 L123.35 1.8 89.55 39.75 73.75 39.75 109.6 1.8 M127.3 1.8 L141.05 1.8 109.85 39.75 94.05 39.75 127.3 1.8 M145.0 1.8 L158.7 1.8 130.15 39.75 114.35 39.75 145.0 1.8 M162.6 1.8 L176.4 1.8 150.45 39.75 134.65 39.75 162.6 1.8 M180.3 1.8 L194.05 1.8 170.75 39.75 154.95 39.75 180.3 1.8 M198.0 1.8 L211.75 1.8 191.1 39.75 175.25 39.75 198.0 1.8 M215.65 1.8 L229.45 1.8 211.4 39.75 195.55 39.75 215.65 1.8 M233.35 1.8 L247.05 1.8 231.65 39.75 215.9 39.75 233.35 1.8 M251.0 1.8 L264.75 1.8 251.95 39.75 236.2 39.75 251.0 1.8 M268.7 1.8 L282.45 1.8 272.3 39.75 256.5 39.75 268.7 1.8 M286.4 1.8 L300.1 1.8 292.6 39.75 276.8 39.75 286.4 1.8 M304.05 1.8 L317.8 1.8 312.9 39.75 297.1 39.75 304.05 1.8 M321.75 1.8 L335.1 1.8 332.75 39.75 317.45 39.75 321.75 1.8 M338.9 1.8 L352.7 1.8 353.0 39.75 337.15 39.75 338.9 1.8 M356.6 1.8 L370.3 1.8 373.25 39.75 357.45 39.75 356.6 1.8 M374.25 1.8 L388.0 1.8 393.55 39.75 377.8 39.75 374.25 1.8 M391.95 1.8 L405.7 1.8 413.85 39.75 398.1 39.75 391.95 1.8 M409.65 1.8 L423.35 1.8 434.15 39.75 418.4 39.75 409.65 1.8 M427.3 1.8 L441.05 1.8 454.5 39.75 438.7 39.75 427.3 1.8 M444.95 1.8 L458.7 1.8 474.8 39.75 458.95 39.75 444.95 1.8 M462.6 1.8 L476.4 1.8 495.1 39.75 479.3 39.75 462.6 1.8 M480.3 1.8 L494.1 1.8 515.4 39.75 499.6 39.75 480.3 1.8 M498.0 1.8 L511.75 1.8 535.75 39.75 519.9 39.75 498.0 1.8 M515.65 1.8 L529.45 1.8 556.05 39.75 540.2 39.75 515.65 1.8 M533.35 1.8 L547.1 1.8 576.3 39.75 560.55 39.75 533.35 1.8 M551.0 1.8 L564.75 1.8 596.6 39.75 580.85 39.75 551.0 1.8 M568.7 1.8 L582.4 1.8 616.9 39.75 601.15 39.75 568.7 1.8 M586.4 1.8 L600.1 1.8 637.25 39.75 621.45 39.75 586.4 1.8 M604.05 1.8 L617.8 1.8 657.55 39.75 641.75 39.75 604.05 1.8 M621.75 1.8 L635.45 1.8 677.85 39.75 662.1 39.75 621.75 1.8 M657.05 1.8 L670.8 1.8 687.65 15.2 688.35 27.85 657.05 1.8 M674.75 1.8 L686.95 1.8 687.5 11.85 674.75 1.8" fill="#737373" fill-rule="evenodd" stroke="none"/>
      <path d="M688.95 39.75 L689.2 43.9 33.2 43.9 32.95 39.75 33.15 39.75 48.9 39.75 50.0 39.75 52.35 39.75 53.45 39.75 69.2 39.75 70.3 39.75 72.65 39.75 73.75 39.75 89.55 39.75 90.6 39.75 93.0 39.75 94.05 39.75 109.85 39.75 110.9 39.75 113.3 39.75 114.35 39.75 130.15 39.75 131.25 39.75 133.55 39.75 134.65 39.75 150.45 39.75 151.55 39.75 153.85 39.75 154.95 39.75 170.75 39.75 171.85 39.75 174.15 39.75 175.25 39.75 191.1 39.75 192.15 39.75 194.5 39.75 195.55 39.75 211.4 39.75 212.5 39.75 214.8 39.75 215.9 39.75 231.65 39.75 232.75 39.75 235.1 39.75 236.2 39.75 251.95 39.75 253.05 39.75 255.4 39.75 256.5 39.75 272.3 39.75 273.35 39.75 275.75 39.75 276.8 39.75 292.6 39.75 293.65 39.75 296.05 39.75 297.1 39.75 312.9 39.75 314.0 39.75 316.35 39.75 317.45 39.75 332.75 39.75 333.75 39.75 336.05 39.75 337.15 39.75 353.0 39.75 354.05 39.75 356.4 39.75 357.45 39.75 373.25 39.75 374.35 39.75 376.7 39.75 377.8 39.75 393.55 39.75 394.65 39.75 397.0 39.75 398.1 39.75 413.85 39.75 414.95 39.75 417.3 39.75 418.4 39.75 434.15 39.75 435.25 39.75 437.6 39.75 438.7 39.75 454.5 39.75 455.55 39.75 457.9 39.75 458.95 39.75 474.8 39.75 475.9 39.75 478.2 39.75 479.3 39.75 495.1 39.75 496.2 39.75 498.5 39.75 499.6 39.75 515.4 39.75 516.5 39.75 518.8 39.75 519.9 39.75 535.75 39.75 536.8 39.75 539.15 39.75 540.2 39.75 556.05 39.75 557.15 39.75 559.45 39.75 560.55 39.75 576.3 39.75 577.4 39.75 579.75 39.75 580.85 39.75 596.6 39.75 597.7 39.75 600.05 39.75 601.15 39.75 616.9 39.75 618.0 39.75 620.4 39.75 621.45 39.75 637.25 39.75 638.3 39.75 640.7 39.75 641.75 39.75 657.55 39.75 658.65 39.75 661.0 39.75 662.1 39.75 677.85 39.75 678.95 39.75 681.25 39.75 682.35 39.75 688.95 39.75" fill="#454545" fill-rule="evenodd" stroke="none"/>
    </g>
  </defs>
</svg>
