<?xml version="1.0" encoding="UTF-8" standalone="no"?>
<svg xmlns:xlink="http://www.w3.org/1999/xlink" height="123.85px" width="189.15px" xmlns="http://www.w3.org/2000/svg">
  <g transform="matrix(1.0, 0.0, 0.0, 1.0, 73.9, 0.0)">
    <use data-characterId="30" height="96.65" transform="matrix(0.3764, 0.0214, -0.0214, 0.3764, 47.7, 86.35)" width="54.2" xlink:href="#shape0"/>
    <use data-characterId="291" height="104.45" transform="matrix(0.617, 0.035, -0.0405, 0.7135, -72.9386, 33.2899)" width="311.9" xlink:href="#shape1"/>
    <use data-characterId="292" height="14.45" transform="matrix(0.935, 0.049, -0.049, 0.935, -62.2772, 89.7064)" width="181.2" xlink:href="#text0"/>
    <use data-characterId="293" height="91.0" transform="matrix(1.0, 0.0, 0.0, 1.0, 17.1, 4.0)" width="83.55" xlink:href="#shape2"/>
    <use data-characterId="154" height="33.25" transform="matrix(0.3994, 0.0737, -0.0737, 0.3994, 44.12, 28.1037)" width="113.2" xlink:href="#shape3"/>
    <use data-characterId="155" height="16.0" transform="matrix(0.5133, 0.0919, -0.0919, 0.5133, 58.6, 20.3)" width="38.2" xlink:href="#shape4"/>
    <use data-characterId="30" height="96.65" transform="matrix(0.3764, 0.0214, -0.0214, 0.3764, 46.7, 82.35)" width="54.2" xlink:href="#shape0"/>
    <use data-characterId="291" height="104.45" transform="matrix(0.617, 0.035, -0.0405, 0.7135, -73.9386, 29.2899)" width="311.9" xlink:href="#shape1"/>
    <use data-characterId="292" height="14.45" transform="matrix(0.935, 0.049, -0.049, 0.935, -63.2772, 85.7064)" width="181.2" xlink:href="#text0"/>
    <use data-characterId="293" height="91.0" transform="matrix(1.0, 0.0, 0.0, 1.0, 16.1, 0.0)" width="83.55" xlink:href="#shape2"/>
    <use data-characterId="154" height="33.25" transform="matrix(0.3994, 0.0737, -0.0737, 0.3994, 43.12, 24.1037)" width="113.2" xlink:href="#shape3"/>
    <use data-characterId="155" height="16.0" transform="matrix(0.5133, 0.0919, -0.0919, 0.5133, 57.6, 16.3)" width="38.2" xlink:href="#shape4"/>
  </g>
  <defs>
    <g id="shape0" transform="matrix(1.0, 0.0, 0.0, 1.0, 0.0, 0.0)">
      <path d="M5.85 93.35 Q-0.15 90.4 0.0 90.0 L0.0 0.0 54.2 0.0 54.2 90.0 Q54.15 90.4 46.95 93.35 39.7 96.25 25.65 96.65 11.8 96.25 5.85 93.35" fill="url(#gradient0)" fill-rule="evenodd" stroke="none"/>
    </g>
    <linearGradient gradientTransform="matrix(0.0303, 0.0, 0.0, 0.0303, 25.7, 48.35)" gradientUnits="userSpaceOnUse" id="gradient0" spreadMethod="pad" x1="-819.2" x2="819.2">
      <stop offset="0.0" stop-color="#000000" stop-opacity="0.6"/>
      <stop offset="0.403921568627451" stop-color="#000000" stop-opacity="0.6"/>
      <stop offset="0.592156862745098" stop-color="#000000" stop-opacity="0.6"/>
      <stop offset="0.7803921568627451" stop-color="#000000" stop-opacity="0.6"/>
      <stop offset="1.0" stop-color="#000000" stop-opacity="0.6"/>
    </linearGradient>
    <g id="shape1" transform="matrix(1.0, 0.0, 0.0, 1.0, 126.6, 67.1)">
      <path d="M55.65 -63.85 L51.25 -63.75 50.65 -63.75 50.35 -66.95 50.95 -67.0 51.05 -67.0 55.35 -67.1 55.65 -63.85 M185.25 8.25 L185.25 8.2 185.3 8.25 185.25 8.25 M183.5 6.1 L183.45 6.1 Q132.2 4.3 73.15 3.75 45.2 3.45 15.55 3.5 L14.25 3.5 10.85 3.5 8.55 3.5 -41.25 3.65 -60.1 3.8 -68.05 3.85 -68.0 4.2 -68.3 4.2 -70.6 4.25 -89.05 4.6 -120.15 5.35 -124.75 5.45 -124.35 3.1 -107.9 2.3 -89.35 1.6 -70.9 1.05 -70.05 1.05 -70.1 0.6 -60.7 0.5 Q-18.0 0.1 27.1 0.3 L47.05 1.6 66.7 3.0 Q67.55 2.8 69.15 1.5 70.7 0.2 71.65 0.0 135.4 0.5 179.35 3.85 L183.5 6.1 M176.25 8.0 L176.45 8.4 177.65 11.45 178.5 13.65 Q179.3 12.8 179.7 10.9 179.7 9.8 179.25 9.1 L179.9 9.55 Q180.65 10.3 180.7 11.75 179.85 15.7 177.15 15.05 175.8 14.75 175.1 13.85 L176.15 14.2 177.35 14.25 176.45 12.35 174.9 8.8 174.8 8.5 174.95 8.35 Q175.75 7.8 176.25 8.0 M178.25 27.3 L179.85 27.15 Q180.5 27.3 181.25 27.95 183.6 31.2 181.35 32.8 180.2 33.6 179.1 33.5 L180.8 32.15 178.8 31.55 175.1 30.4 175.2 29.1 175.2 29.0 175.25 28.7 175.4 28.75 175.85 28.9 178.95 30.05 181.1 30.85 Q181.0 29.65 179.9 28.15 179.05 27.45 178.25 27.3 M-117.45 6.8 L-117.3 7.2 -115.95 10.7 -114.95 13.15 Q-114.05 12.2 -113.6 10.1 -113.6 8.8 -114.15 8.0 -112.8 8.6 -112.5 10.3 L-112.9 12.6 Q-114.05 15.35 -116.5 14.8 -117.9 14.5 -118.65 13.65 L-118.8 13.45 -117.65 13.85 -116.3 13.9 -117.3 11.65 -119.05 7.7 -117.9 6.85 -117.45 6.8 M-117.25 25.55 Q-115.65 24.6 -113.75 26.05 -111.65 28.6 -112.3 30.35 -112.6 31.0 -113.25 31.55 -114.45 32.5 -115.7 32.5 L-113.9 30.85 -116.25 30.3 -120.45 29.3 -120.5 27.8 -120.5 27.35 -120.3 27.4 -119.75 27.6 -116.2 28.65 -113.7 29.35 Q-113.9 28.05 -115.3 26.4 -116.3 25.6 -117.25 25.55" fill="#000000" fill-opacity="0.6" fill-rule="evenodd" stroke="none"/>
      <path d="M-126.6 36.95 L-125.9 23.15 -125.05 7.25 -124.75 5.45 -120.15 5.35 -123.45 8.55 -124.7 36.7 -126.6 36.95" fill="#000000" fill-opacity="0.6" fill-rule="evenodd" stroke="none"/>
      <path d="M-118.8 13.45 L-118.65 13.65 -119.65 13.8 -119.45 26.45 -120.3 27.4 -120.5 27.35 -120.5 27.8 Q-121.5 29.75 -119.9 31.8 -117.7 33.45 -115.7 32.5 -114.45 32.5 -113.25 31.55 -112.6 31.0 -112.3 30.35 L-110.2 30.45 -90.0 31.55 -86.55 31.75 -70.15 32.85 -86.45 33.15 -88.65 33.15 -111.55 33.0 -122.8 32.85 -121.4 10.3 -120.65 10.3 Q-120.5 12.55 -118.8 13.45 M-112.9 12.6 L-112.5 10.3 -100.2 10.25 -112.9 12.6" fill="#000000" fill-opacity="0.6" fill-rule="evenodd" stroke="none"/>
      <path d="M175.1 13.85 Q175.8 14.75 177.15 15.05 179.85 15.7 180.7 11.75 180.65 10.3 179.9 9.55 L180.85 9.65 179.85 27.15 178.25 27.3 177.7 27.3 177.8 15.2 160.95 13.3 Q144.35 11.4 115.0 6.95 144.55 7.2 162.45 8.35 L174.1 9.15 Q173.65 9.7 173.4 10.6 173.45 12.95 175.1 13.85 M175.3 32.3 L137.05 30.55 175.2 29.0 175.2 29.1 Q174.3 30.55 175.3 32.3" fill="#000000" fill-opacity="0.6" fill-rule="evenodd" stroke="none"/>
      <path d="M176.45 8.4 L176.25 8.0 176.9 7.95 Q178.55 8.05 179.25 9.1 179.7 9.8 179.7 10.9 179.3 12.8 178.5 13.65 L177.65 11.45 178.05 10.25 Q178.0 8.55 176.45 8.4 M174.8 8.5 L174.9 8.8 Q174.35 9.2 174.15 10.05 174.2 11.9 175.85 12.3 L176.45 12.35 177.35 14.25 176.15 14.2 175.1 13.85 Q173.45 12.95 173.4 10.6 173.65 9.7 174.1 9.15 L174.8 8.5 M177.7 27.3 L178.25 27.3 Q179.05 27.45 179.9 28.15 181.0 29.65 181.1 30.85 L178.95 30.05 178.3 28.9 Q177.0 27.8 175.85 28.9 L175.4 28.75 175.8 28.3 Q176.7 27.35 177.7 27.3 M179.1 33.5 Q177.3 34.2 175.5 32.65 L175.3 32.3 Q174.3 30.55 175.2 29.1 L175.1 30.4 Q175.25 32.1 176.95 32.35 178.0 32.25 178.8 31.55 L180.8 32.15 179.1 33.5 M-117.3 7.2 L-117.45 6.8 -116.75 6.75 Q-114.9 6.85 -114.15 8.0 -113.6 8.8 -113.6 10.1 -114.05 12.2 -114.95 13.15 L-115.95 10.7 -115.45 9.3 Q-115.5 7.4 -117.3 7.2 M-117.9 6.85 L-119.05 7.7 Q-119.65 8.15 -119.9 9.1 -119.85 11.2 -117.95 11.6 L-117.3 11.65 -116.3 13.9 -117.65 13.85 -118.8 13.45 Q-120.5 12.55 -120.65 10.3 L-120.7 9.8 Q-120.05 7.25 -117.9 6.85 M-119.45 26.45 Q-118.45 25.45 -117.25 25.55 -116.3 25.6 -115.3 26.4 -113.9 28.05 -113.7 29.35 L-116.2 28.65 Q-116.9 26.9 -118.6 26.85 L-119.75 27.6 -120.3 27.4 -119.45 26.45 M-115.7 32.5 Q-117.7 33.45 -119.9 31.8 -121.5 29.75 -120.5 27.8 L-120.45 29.3 Q-120.2 31.15 -118.45 31.35 -116.95 31.45 -116.25 30.3 L-113.9 30.85 -115.7 32.5" fill="#000000" fill-opacity="0.6" fill-rule="evenodd" stroke="none"/>
      <path d="M174.9 8.8 L176.45 12.35 175.85 12.3 Q174.2 11.9 174.15 10.05 174.35 9.2 174.9 8.8 M177.65 11.45 L176.45 8.4 Q178.0 8.55 178.05 10.25 L177.65 11.45 M178.95 30.05 L175.85 28.9 Q177.0 27.8 178.3 28.9 L178.95 30.05 M175.1 30.4 L178.8 31.55 Q178.0 32.25 176.95 32.35 175.25 32.1 175.1 30.4 M-119.05 7.7 L-117.3 11.65 -117.95 11.6 Q-119.85 11.2 -119.9 9.1 -119.65 8.15 -119.05 7.7 M-115.95 10.7 L-117.3 7.2 Q-115.5 7.4 -115.45 9.3 L-115.95 10.7 M-116.2 28.65 L-119.75 27.6 -118.6 26.85 Q-116.9 26.9 -116.2 28.65 M-120.45 29.3 L-116.25 30.3 Q-116.95 31.45 -118.45 31.35 -120.2 31.15 -120.45 29.3" fill="#000000" fill-opacity="0.6" fill-rule="evenodd" stroke="none"/>
      <path d="M185.25 8.2 L185.25 8.25 185.1 13.45 184.65 27.3 184.3 36.25 Q157.35 34.75 133.85 35.55 L89.2 37.0 71.2 36.9 66.65 36.8 66.6 36.3 63.75 4.95 63.65 3.85 68.1 3.8 73.15 3.75 Q132.2 4.3 183.45 6.1 L183.5 6.1 185.3 6.25 185.25 8.2 M176.25 8.0 Q175.75 7.8 174.95 8.35 L174.8 8.5 174.1 9.15 162.45 8.35 Q144.55 7.2 115.0 6.95 144.35 11.4 160.95 13.3 L177.8 15.2 177.7 27.3 Q176.7 27.35 175.8 28.3 L175.4 28.75 175.25 28.7 175.2 29.0 137.05 30.55 175.3 32.3 175.5 32.65 Q177.3 34.2 179.1 33.5 180.2 33.6 181.35 32.8 183.6 31.2 181.25 27.95 180.5 27.3 179.85 27.15 L180.85 9.65 179.9 9.55 179.25 9.1 Q178.55 8.05 176.9 7.95 L176.25 8.0" fill="url(#gradient1)" fill-rule="evenodd" stroke="none"/>
      <path d="M-53.5 35.55 L-65.05 36.9 -67.65 36.85 -83.1 36.1 -86.2 35.95 Q-106.25 34.9 -126.6 37.0 L-126.6 36.95 -124.7 36.7 -123.45 8.55 -120.15 5.35 -89.05 4.6 -70.6 4.25 -68.3 4.2 -68.0 4.2 -53.5 35.55 M-117.45 6.8 L-117.9 6.85 Q-120.05 7.25 -120.7 9.8 L-120.65 10.3 -121.4 10.3 -122.8 32.85 -111.55 33.0 -88.65 33.15 -86.45 33.15 -70.15 32.85 -86.55 31.75 -90.0 31.55 -110.2 30.45 -112.3 30.35 Q-111.65 28.6 -113.75 26.05 -115.65 24.6 -117.25 25.55 -118.45 25.45 -119.45 26.45 L-119.65 13.8 -118.65 13.65 Q-117.9 14.5 -116.5 14.8 -114.05 15.35 -112.9 12.6 L-100.2 10.25 -112.5 10.3 Q-112.8 8.6 -114.15 8.0 -114.9 6.85 -116.75 6.75 L-117.45 6.8" fill="url(#gradient2)" fill-rule="evenodd" stroke="none"/>
      <path d="M63.75 4.95 L66.6 36.3 65.7 36.45 -7.0 36.35 -18.7 36.3 Q-52.35 38.7 -53.5 35.55 L-68.0 4.2 -68.05 3.85 -60.1 3.8 -41.25 3.65 8.55 3.5 10.85 3.5 14.25 3.5 15.55 3.5 Q42.95 3.95 63.75 4.95" fill="url(#gradient3)" fill-rule="evenodd" stroke="none"/>
    </g>
    <linearGradient gradientTransform="matrix(0.1131, 0.0, 0.0, 0.0204, 92.65, 20.25)" gradientUnits="userSpaceOnUse" id="gradient1" spreadMethod="pad" x1="-819.2" x2="819.2">
      <stop offset="0.0" stop-color="#000000" stop-opacity="0.6"/>
      <stop offset="1.0" stop-color="#000000" stop-opacity="0.6"/>
    </linearGradient>
    <linearGradient gradientTransform="matrix(0.1131, 0.0, 0.0, 0.0204, -34.0, 20.5)" gradientUnits="userSpaceOnUse" id="gradient2" spreadMethod="pad" x1="-819.2" x2="819.2">
      <stop offset="0.0" stop-color="#000000" stop-opacity="0.6"/>
      <stop offset="1.0" stop-color="#000000" stop-opacity="0.6"/>
    </linearGradient>
    <linearGradient gradientTransform="matrix(1.8889, 0.0, 0.0, 0.0204, 500.05, 19.9)" gradientUnits="userSpaceOnUse" id="gradient3" spreadMethod="pad" x1="-819.2" x2="819.2">
      <stop offset="0.0" stop-color="#000000" stop-opacity="0.6"/>
      <stop offset="1.0" stop-color="#000000" stop-opacity="0.6"/>
    </linearGradient>
    <g id="text0" transform="matrix(1.0, 0.0, 0.0, 1.0, 17.5, -4.4)">
      <g transform="matrix(1.0, 0.0, 0.0, 1.0, -18.4, 0.0)">
        <use fill="#000000" fill-opacity="0.6" height="14.45" transform="matrix(0.3906, 0.0, 0.0, 0.3906, 0.0, 17.0)" width="181.2" xlink:href="#font_______W7_C0"/>
        <use fill="#000000" fill-opacity="0.6" height="14.45" transform="matrix(0.3906, 0.0, 0.0, 0.3906, 13.45, 17.0)" width="181.2" xlink:href="#font_______W7_o0"/>
        <use fill="#000000" fill-opacity="0.6" height="14.45" transform="matrix(0.3906, 0.0, 0.0, 0.3906, 24.2, 17.0)" width="181.2" xlink:href="#font_______W7_g0"/>
        <use fill="#000000" fill-opacity="0.6" height="14.45" transform="matrix(0.3906, 0.0, 0.0, 0.3906, 35.25, 17.0)" width="181.2" xlink:href="#font_______W7_s0"/>
        <use fill="#000000" fill-opacity="0.6" height="14.45" transform="matrix(0.3906, 0.0, 0.0, 0.3906, 45.65, 17.0)" width="181.2" xlink:href="#font_______W7_p0"/>
        <use fill="#000000" fill-opacity="0.6" height="14.45" transform="matrix(0.3906, 0.0, 0.0, 0.3906, 57.25, 17.0)" width="181.2" xlink:href="#font_______W7_o0"/>
        <use fill="#000000" fill-opacity="0.6" height="14.45" transform="matrix(0.3906, 0.0, 0.0, 0.3906, 68.0, 17.0)" width="181.2" xlink:href="#font_______W7_t0"/>
        <use fill="#000000" fill-opacity="0.6" height="14.45" transform="matrix(0.3906, 0.0, 0.0, 0.3906, 77.45, 17.0)" width="181.2" xlink:href="#font_______W7_t0"/>
        <use fill="#000000" fill-opacity="0.6" height="14.45" transform="matrix(0.3906, 0.0, 0.0, 0.3906, 86.95, 17.0)" width="181.2" xlink:href="#font_______W7_e0"/>
        <use fill="#000000" fill-opacity="0.6" height="14.45" transform="matrix(0.3906, 0.0, 0.0, 0.3906, 98.15, 17.0)" width="181.2" xlink:href="#font_______W7_r0"/>
        <use fill="#000000" fill-opacity="0.6" height="14.45" transform="matrix(0.3906, 0.0, 0.0, 0.3906, 105.6, 17.0)" width="181.2" xlink:href="#font_______W7__0"/>
        <use fill="#000000" fill-opacity="0.6" height="14.45" transform="matrix(0.3906, 0.0, 0.0, 0.3906, 109.9, 17.0)" width="181.2" xlink:href="#font_______W7_s0"/>
        <use fill="#000000" fill-opacity="0.6" height="14.45" transform="matrix(0.3906, 0.0, 0.0, 0.3906, 126.95, 17.0)" width="181.2" xlink:href="#font_______W7_G0"/>
        <use fill="#000000" fill-opacity="0.6" height="14.45" transform="matrix(0.3906, 0.0, 0.0, 0.3906, 141.1, 17.0)" width="181.2" xlink:href="#font_______W7_u0"/>
        <use fill="#000000" fill-opacity="0.6" height="14.45" transform="matrix(0.3906, 0.0, 0.0, 0.3906, 152.4, 17.0)" width="181.2" xlink:href="#font_______W7_i0"/>
        <use fill="#000000" fill-opacity="0.6" height="14.45" transform="matrix(0.3906, 0.0, 0.0, 0.3906, 159.75, 17.0)" width="181.2" xlink:href="#font_______W7_d0"/>
        <use fill="#000000" fill-opacity="0.6" height="14.45" transform="matrix(0.3906, 0.0, 0.0, 0.3906, 171.4, 17.0)" width="181.2" xlink:href="#font_______W7_e0"/>
      </g>
    </g>
    <g id="font_______W7_C0">
      <path d="M26.2 -15.4 L26.2 -15.4 Q21.6 -8.3 16.1 -8.3 12.35 -8.3 10.4 -10.7 8.6 -12.9 8.6 -16.75 8.6 -21.2 11.05 -23.95 13.55 -26.6 17.95 -26.6 23.65 -26.6 27.3 -22.25 L31.1 -26.05 Q28.65 -28.9 25.1 -30.55 21.55 -32.15 17.8 -32.15 10.8 -32.15 6.45 -27.4 2.05 -22.7 2.05 -15.6 2.05 -8.95 6.35 -4.45 10.7 0.05 17.3 0.05 25.6 0.05 32.65 -7.35 L26.2 -15.4" fill-rule="evenodd" stroke="none"/>
    </g>
    <g id="font_______W7_o0">
      <path d="M15.8 -13.5 L15.8 -13.5 Q16.45 -11.85 16.45 -10.4 16.45 -6.85 12.35 -6.85 10.6 -6.85 9.35 -8.05 8.15 -9.35 8.15 -11.05 8.15 -13.25 9.8 -14.6 11.4 -16.0 13.7 -16.0 16.1 -16.0 18.3 -14.3 L15.8 -13.5 M25.7 -11.4 L25.7 -11.4 Q25.7 -13.8 24.75 -16.35 L21.25 -15.25 22.7 -17.2 Q18.35 -21.45 13.15 -21.45 8.45 -21.45 5.1 -18.2 1.8 -14.95 1.8 -10.3 1.8 -5.5 5.4 -2.65 8.65 0.05 13.65 0.05 18.75 0.05 22.2 -3.2 25.7 -6.4 25.7 -11.4" fill-rule="evenodd" stroke="none"/>
    </g>
    <g id="font_______W7_g0">
      <path d="M21.25 -12.75 L21.25 -12.75 21.05 -10.5 18.9 -14.7 Q15.2 -11.7 11.9 -11.7 10.85 -11.7 10.0 -12.55 9.05 -13.45 9.05 -14.45 9.05 -16.75 13.35 -16.75 15.6 -16.75 18.05 -15.7 20.3 -14.7 21.2 -13.55 L21.25 -12.75 M26.3 -10.4 L26.3 -10.4 Q26.3 -15.45 24.2 -21.5 L20.0 -20.3 20.3 -19.15 Q16.35 -21.45 12.1 -21.45 8.15 -21.45 5.4 -19.3 2.35 -16.95 2.35 -13.2 2.35 -9.45 5.85 -7.35 8.8 -5.6 12.75 -5.6 16.55 -5.6 19.75 -6.9 17.8 -3.95 13.25 -3.95 8.55 -3.95 4.75 -6.35 L1.8 2.9 Q6.7 4.75 11.2 4.75 18.25 4.75 22.25 0.65 26.3 -3.4 26.3 -10.4" fill-rule="evenodd" stroke="none"/>
    </g>
    <g id="font_______W7_s0">
      <path d="M25.05 -6.35 L25.05 -6.35 Q25.05 -12.25 15.35 -13.65 8.7 -14.6 8.7 -15.7 8.7 -17.05 12.35 -17.05 17.1 -17.05 22.25 -14.8 L23.8 -18.2 Q19.05 -21.45 12.25 -21.45 8.55 -21.45 6.05 -20.35 2.6 -18.85 2.6 -15.7 2.6 -13.1 4.75 -11.8 6.5 -10.75 10.95 -10.05 L16.3 -8.95 Q17.8 -8.4 17.8 -7.5 17.8 -6.2 15.25 -6.2 12.3 -6.2 9.1 -7.45 5.9 -8.7 3.8 -10.65 L1.0 -2.6 Q6.45 0.05 14.3 0.05 25.05 0.05 25.05 -6.35" fill-rule="evenodd" stroke="none"/>
    </g>
    <g id="font_______W7_p0">
      <path d="M20.7 -12.7 L20.7 -12.7 Q20.7 -9.3 17.35 -9.3 14.95 -9.3 12.7 -12.0 L10.6 -8.4 10.05 -13.4 Q12.6 -16.55 16.2 -16.55 18.05 -16.55 19.35 -15.55 20.7 -14.5 20.7 -12.7 M27.8 -10.85 L27.8 -10.85 Q27.8 -15.55 24.6 -18.5 21.4 -21.45 16.7 -21.45 12.55 -21.45 9.35 -19.15 L9.2 -20.75 4.35 -21.45 2.05 4.75 11.95 3.3 11.35 -1.45 Q14.35 0.05 17.2 0.05 21.85 0.05 24.85 -3.05 27.8 -6.15 27.8 -10.85" fill-rule="evenodd" stroke="none"/>
    </g>
    <g id="font_______W7_t0">
      <path d="M18.7 -12.2 L18.7 -12.2 Q17.0 -9.35 14.9 -9.35 11.95 -9.35 11.95 -15.4 L21.65 -15.4 20.1 -22.55 12.4 -21.45 Q12.75 -24.2 13.6 -27.95 L8.95 -28.85 Q7.75 -24.65 7.1 -20.75 L0.75 -19.9 1.75 -15.4 6.55 -15.4 6.5 -12.55 Q6.5 -6.8 7.75 -4.05 9.5 0.05 14.55 0.05 19.1 0.05 23.25 -4.15 L18.7 -12.2" fill-rule="evenodd" stroke="none"/>
    </g>
    <g id="font_______W7_e0">
      <path d="M19.45 -9.9 L19.45 -9.9 Q16.75 -7.55 13.6 -7.55 10.45 -7.55 9.15 -9.9 L19.45 -9.9 M9.0 -13.4 L9.0 -13.4 Q9.7 -14.95 11.5 -15.95 13.2 -16.8 15.1 -16.8 18.05 -16.8 19.65 -14.35 L9.0 -13.4 M23.25 -9.9 L23.25 -9.9 24.3 -9.9 26.7 -12.6 Q25.85 -16.7 22.9 -19.1 19.9 -21.45 15.15 -21.45 9.65 -21.45 5.9 -18.65 1.8 -15.6 1.8 -10.4 1.8 -5.35 5.8 -2.5 9.3 0.05 14.6 0.05 22.45 0.05 27.15 -4.25 L23.25 -9.9" fill-rule="evenodd" stroke="none"/>
    </g>
    <g id="font_______W7_r0">
      <path d="M18.3 -20.6 L18.3 -20.6 Q16.55 -21.45 14.75 -21.45 11.5 -21.45 8.7 -18.65 L8.45 -20.75 4.45 -21.45 2.55 0.05 10.65 -1.4 9.3 -12.8 Q10.55 -14.85 12.3 -14.85 13.25 -14.85 14.55 -13.85 L16.55 -12.05 18.3 -20.6" fill-rule="evenodd" stroke="none"/>
    </g>
    <g id="font_______W7__0">
      <path d="M2.05 -32.15 L2.05 -32.15 3.65 -20.7 7.3 -20.7 8.95 -32.15 2.05 -32.15" fill-rule="evenodd" stroke="none"/>
    </g>
    <g id="font_______W7_G0">
      <path d="M32.3 -18.1 L32.3 -18.1 18.0 -16.6 18.9 -11.9 23.25 -11.9 Q20.15 -7.9 16.2 -7.9 12.45 -7.9 10.45 -10.35 8.6 -12.65 8.6 -16.5 8.6 -20.8 10.75 -23.45 13.05 -26.4 17.25 -26.4 23.2 -26.4 27.5 -21.3 L31.25 -25.15 Q28.6 -28.35 25.0 -30.25 21.2 -32.15 17.25 -32.15 10.5 -32.15 6.15 -27.05 2.05 -22.25 2.05 -15.35 2.05 -8.75 6.15 -4.35 10.25 0.05 16.8 0.05 21.35 0.05 25.6 -2.45 L25.1 0.35 34.1 -0.6 32.3 -18.1" fill-rule="evenodd" stroke="none"/>
    </g>
    <g id="font_______W7_u0">
      <path d="M24.1 -20.75 L24.1 -20.75 19.25 -21.45 17.9 -8.95 16.15 -11.65 Q13.35 -8.1 10.6 -8.1 9.0 -8.1 8.15 -9.4 7.25 -10.65 7.25 -12.3 7.25 -15.75 8.6 -19.75 L3.9 -21.15 Q2.05 -16.35 2.05 -11.4 2.05 -6.45 4.25 -3.4 6.75 0.05 11.5 0.05 14.55 0.05 17.1 -1.5 L16.95 0.1 26.8 -1.35 24.1 -20.75" fill-rule="evenodd" stroke="none"/>
    </g>
    <g id="font_______W7_i0">
      <path d="M11.6 -20.75 L11.6 -20.75 6.75 -21.45 4.45 0.05 14.3 -1.4 11.6 -20.75 M11.9 -31.5 L11.9 -31.5 6.5 -32.15 4.9 -24.95 13.2 -26.1 11.9 -31.5" fill-rule="evenodd" stroke="none"/>
    </g>
    <g id="font_______W7_d0">
      <path d="M18.35 -8.95 L18.35 -8.95 16.8 -11.9 Q14.75 -9.45 12.45 -9.45 10.9 -9.45 10.0 -10.4 9.1 -11.4 9.1 -12.95 9.1 -14.5 10.7 -15.6 12.15 -16.5 13.7 -16.5 16.6 -16.5 18.8 -14.55 L18.35 -8.95 M24.9 -31.55 L24.9 -31.55 20.15 -32.2 19.15 -19.55 Q16.05 -21.45 12.65 -21.45 8.15 -21.45 4.95 -18.25 1.8 -15.0 1.8 -10.5 1.8 -6.05 4.6 -3.05 7.4 0.05 11.85 0.05 14.65 0.05 17.7 -1.5 L17.6 0.0 27.65 -1.45 24.9 -31.55" fill-rule="evenodd" stroke="none"/>
    </g>
    <g id="shape2" transform="matrix(1.0, 0.0, 0.0, 1.0, -16.1, 7.15)">
      <path d="M98.4 9.6 L99.65 9.85 85.05 83.85 24.5 71.9 Q21.4 71.45 18.75 70.0 15.55 68.25 16.25 64.7 L30.4 -7.15 90.95 4.9 90.7 6.25 98.4 9.6" fill="#000000" fill-opacity="0.6" fill-rule="evenodd" stroke="none"/>
      <path d="M95.3 12.25 L96.45 12.45 83.2 79.45 28.4 68.6 41.65 1.7 95.3 12.25 M92.15 14.35 L91.2 13.85 Q90.1 13.35 89.2 14.2 87.55 15.65 88.95 17.6 L89.05 17.65 89.1 17.7 90.4 18.9 Q92.65 18.8 93.2 16.8 L93.2 15.9 92.9 15.15 92.15 14.35 M77.95 74.5 L78.0 74.55 78.1 74.65 Q78.45 75.4 79.3 75.7 81.3 76.6 82.15 73.95 82.45 72.95 81.95 72.25 L81.8 72.05 81.4 71.6 Q81.05 71.05 80.1 70.65 78.95 70.25 78.15 71.1 76.3 72.65 77.95 74.5 M86.45 42.5 L86.7 41.6 38.55 31.95 38.3 33.1 86.45 42.5 M44.25 4.9 L43.8 4.9 Q41.95 6.45 43.25 8.6 L43.25 8.75 43.3 8.7 43.35 8.75 Q43.8 9.55 44.6 9.9 46.65 10.7 47.55 8.0 47.85 7.05 47.35 6.4 L47.2 6.2 46.4 5.45 45.8 5.25 44.25 4.9 M55.6 41.7 L53.6 42.85 54.45 45.55 52.8 46.55 49.95 44.95 48.55 46.45 48.55 46.9 50.3 49.3 Q49.65 50.0 49.4 50.9 L46.2 51.1 45.6 53.25 45.55 53.8 48.5 55.0 48.5 56.55 46.05 58.6 47.2 60.95 47.45 61.4 49.9 60.8 50.7 62.05 49.55 64.5 49.6 64.95 51.3 66.85 53.9 64.85 55.05 65.4 55.5 68.15 55.75 68.7 58.4 69.0 59.4 66.35 61.0 66.25 63.2 69.15 65.45 68.05 64.6 65.05 66.75 63.6 68.95 65.3 71.15 63.8 70.75 63.45 68.8 61.15 69.75 59.2 72.9 59.2 73.9 57.1 73.45 56.8 70.45 55.65 70.35 53.6 73.15 51.75 72.9 51.35 71.9 49.25 71.6 49.05 68.95 49.9 68.05 48.55 69.5 46.4 69.25 45.95 67.4 44.15 64.95 45.75 63.65 45.15 63.65 42.05 63.25 41.7 60.7 41.05 59.7 44.3 57.75 44.4 56.3 42.05 55.6 41.7 M35.7 62.7 Q34.85 61.35 33.45 61.65 32.8 61.75 32.4 62.15 30.75 63.65 32.1 65.45 L32.25 65.6 33.5 66.8 35.4 66.1 36.1 65.55 Q36.85 64.25 36.05 63.05 L35.7 62.7 M71.6 49.05 L71.75 49.35 Q71.8 49.25 71.9 49.25 L71.75 49.35 71.6 49.05 M58.9 66.3 L59.1 66.35 58.95 66.4 58.9 66.3" fill="url(#gradient4)" fill-rule="evenodd" stroke="none"/>
      <path d="M28.4 68.6 Q25.6 68.25 23.2 66.95 20.35 65.35 20.95 62.1 L33.75 -2.95 88.55 8.0 89.3 8.45 89.3 9.4 88.35 9.2 88.55 8.0 88.3 9.2 35.4 -1.35 36.8 -0.4 Q40.0 1.25 41.65 1.7 L28.4 68.6 M92.9 15.15 L93.2 15.9 93.2 16.8 Q92.65 18.8 90.4 18.9 L89.1 17.7 Q90.4 18.8 91.5 18.05 93.05 16.95 92.8 15.25 L92.9 15.15 M81.65 72.15 L81.8 72.05 81.95 72.25 Q82.45 72.95 82.15 73.95 81.3 76.6 79.3 75.7 78.45 75.4 78.1 74.65 L78.7 75.0 80.2 74.7 Q81.8 73.9 81.65 72.15 M47.2 6.2 L47.35 6.4 Q47.85 7.05 47.55 8.0 46.65 10.7 44.6 9.9 43.8 9.55 43.35 8.75 L44.05 9.2 45.55 8.8 Q47.15 8.05 47.0 6.35 L47.2 6.2 M36.05 63.05 Q36.85 64.25 36.1 65.55 L35.4 66.1 33.5 66.8 32.25 65.6 32.95 66.05 34.45 65.75 Q35.8 65.0 35.9 63.2 L36.05 63.05" fill="#000000" fill-opacity="0.6" fill-rule="evenodd" stroke="none"/>
      <path d="M89.45 16.3 Q88.8 15.8 89.15 14.85 89.5 13.6 90.9 13.9 L91.85 14.6 89.45 16.3 M91.6 16.05 Q91.1 16.85 90.45 16.75 L91.6 16.05 M80.7 71.5 L78.4 73.15 Q77.55 72.2 78.4 71.2 L78.7 70.9 Q80.0 70.35 80.7 71.5 M43.85 7.35 L43.5 6.95 Q43.2 6.45 43.45 5.85 43.6 5.05 44.25 4.9 L45.8 5.25 46.1 5.65 43.85 7.35 M32.6 64.25 Q31.95 63.75 32.3 62.75 32.65 61.5 34.0 61.9 34.75 62.05 34.95 62.55 L32.6 64.25" fill="#000000" fill-opacity="0.6" fill-rule="evenodd" stroke="none"/>
      <path d="M88.95 17.6 Q87.55 15.65 89.2 14.2 90.1 13.35 91.2 13.85 L92.15 14.35 91.85 14.6 90.9 13.9 Q89.5 13.6 89.15 14.85 88.8 15.8 89.45 16.3 L88.7 16.9 88.95 17.6 M89.1 17.7 L89.05 17.65 90.45 16.75 Q91.1 16.85 91.6 16.05 L92.8 15.25 Q93.05 16.95 91.5 18.05 90.4 18.8 89.1 17.7 M81.4 71.6 L81.05 71.25 80.7 71.5 Q80.0 70.35 78.7 70.9 L78.4 71.2 Q77.55 72.2 78.4 73.15 L77.65 73.7 77.95 74.5 Q76.3 72.65 78.15 71.1 78.95 70.25 80.1 70.65 81.05 71.05 81.4 71.6 M78.0 74.55 L79.4 73.65 Q80.05 73.65 80.45 72.95 L81.65 72.15 Q81.8 73.9 80.2 74.7 L78.7 75.0 78.1 74.65 78.0 74.55 M43.25 8.6 Q41.95 6.45 43.8 4.9 L44.25 4.9 Q43.6 5.05 43.45 5.85 43.2 6.45 43.5 6.95 L43.85 7.35 42.95 7.9 43.25 8.6 M45.8 5.25 L46.4 5.45 46.1 5.65 45.8 5.25 M43.35 8.75 L43.3 8.7 47.0 6.35 Q47.15 8.05 45.55 8.8 L44.05 9.2 43.35 8.75 M32.1 65.45 Q30.75 63.65 32.4 62.15 32.8 61.75 33.45 61.65 34.85 61.35 35.7 62.7 L35.35 62.35 34.95 62.55 Q34.75 62.05 34.0 61.9 32.65 61.5 32.3 62.75 31.95 63.75 32.6 64.25 L31.85 64.75 32.1 65.45 M32.25 65.6 L34.3 64.55 35.9 63.2 Q35.8 65.0 34.45 65.75 L32.95 66.05 32.25 65.6" fill="#000000" fill-opacity="0.6" fill-rule="evenodd" stroke="none"/>
      <path d="M88.95 17.6 L88.7 16.9 89.45 16.3 91.85 14.6 92.15 14.35 92.9 15.15 92.8 15.25 91.6 16.05 90.45 16.75 89.05 17.65 88.95 17.6 M80.7 71.5 L81.05 71.25 81.4 71.6 81.8 72.05 81.65 72.15 80.45 72.95 Q80.05 73.65 79.4 73.65 L78.0 74.55 77.95 74.5 77.65 73.7 78.4 73.15 80.7 71.5 M43.25 8.6 L42.95 7.9 43.85 7.35 46.1 5.65 46.4 5.45 47.2 6.2 47.0 6.35 43.3 8.7 43.25 8.75 43.25 8.6 M35.7 62.7 L36.05 63.05 35.9 63.2 34.3 64.55 32.25 65.6 32.1 65.45 31.85 64.75 32.6 64.25 34.95 62.55 35.35 62.35 35.7 62.7 M62.4 53.05 Q60.9 50.8 58.25 51.2 57.6 51.45 57.1 51.85 54.3 54.0 56.05 57.15 57.7 59.8 60.75 58.6 L61.95 57.85 Q63.15 56.75 63.15 55.2 63.1 54.05 62.4 53.05 M65.5 50.65 Q67.25 53.3 66.75 56.45 66.05 59.55 63.45 61.35 60.75 63.1 57.7 62.55 54.6 61.9 52.8 59.25 51.0 56.55 51.65 53.45 52.2 50.4 54.85 48.6 57.4 46.75 60.6 47.45 63.7 48.0 65.5 50.65 M66.0 50.55 Q64.05 47.7 60.8 47.1 57.45 46.4 54.7 48.35 51.9 50.25 51.3 53.55 50.55 56.8 52.45 59.65 54.4 62.5 57.6 63.15 60.95 63.7 63.75 61.85 66.6 60.0 67.25 56.7 67.75 53.4 66.0 50.55 M64.9 63.2 Q61.35 65.5 57.25 64.75 53.05 63.9 50.75 60.4 48.3 56.9 49.2 52.8 49.95 48.55 53.5 46.3 56.9 44.0 61.15 44.7 65.25 45.55 67.65 49.1 69.95 52.5 69.2 56.7 68.35 60.8 64.9 63.2" fill="#000000" fill-opacity="0.6" fill-rule="evenodd" stroke="none"/>
      <path d="M88.3 9.2 L95.3 12.25 41.65 1.7 Q40.0 1.25 36.8 -0.4 L35.4 -1.35 88.3 9.2" fill="#000000" fill-opacity="0.6" fill-rule="evenodd" stroke="none"/>
      <path d="M86.45 42.5 L38.3 33.1 38.55 31.95 86.7 41.6 86.45 42.5 M55.6 41.7 L56.3 42.05 57.75 44.4 59.7 44.3 63.4 45.05 63.25 41.7 63.65 42.05 63.65 45.15 64.95 45.75 Q66.6 46.65 67.8 48.25 L69.25 45.95 69.5 46.4 68.05 48.55 68.95 49.9 Q69.85 51.4 70.2 53.05 L72.9 51.35 71.75 49.35 71.9 49.25 Q71.8 49.25 71.75 49.35 L71.6 49.05 71.9 49.25 72.9 51.35 73.15 51.75 70.35 53.6 70.45 55.65 69.9 58.75 72.65 58.75 73.45 56.8 73.9 57.1 72.9 59.2 69.75 59.2 68.8 61.15 66.95 63.45 68.7 64.85 70.75 63.45 71.15 63.8 68.95 65.3 66.75 63.6 64.6 65.05 65.45 68.05 63.2 69.15 61.0 66.25 59.4 66.35 58.4 69.0 55.75 68.7 55.5 68.15 58.25 68.6 58.95 66.4 59.1 66.35 58.9 66.3 55.05 65.4 53.9 64.85 51.3 66.85 49.6 64.95 49.55 64.5 51.05 66.3 53.4 64.55 Q51.9 63.55 50.7 62.05 L49.9 60.8 47.45 61.4 47.2 60.95 49.65 60.35 Q48.65 58.5 48.5 56.55 L48.5 55.0 45.55 53.8 45.6 53.25 48.55 54.6 49.4 50.9 Q49.65 50.0 50.3 49.3 L48.55 46.9 48.55 46.45 50.35 49.25 Q51.3 47.65 52.8 46.55 L54.45 45.55 Q55.9 44.7 57.7 44.4 L55.6 41.7 M61.1 66.25 L63.05 68.7 65.2 67.65 64.55 65.1 61.1 66.25 M64.9 63.2 Q68.35 60.8 69.2 56.7 69.95 52.5 67.65 49.1 65.25 45.55 61.15 44.7 56.9 44.0 53.5 46.3 49.95 48.55 49.2 52.8 48.3 56.9 50.75 60.4 53.05 63.9 57.25 64.75 61.35 65.5 64.9 63.2" fill="#000000" fill-opacity="0.6" fill-rule="evenodd" stroke="none"/>
      <path d="M54.45 45.55 L53.6 42.85 55.6 41.7 57.7 44.4 Q55.9 44.7 54.45 45.55 M59.7 44.3 L60.7 41.05 63.25 41.7 63.4 45.05 59.7 44.3 M64.95 45.75 L67.4 44.15 69.25 45.95 67.8 48.25 Q66.6 46.65 64.95 45.75 M68.95 49.9 L71.6 49.05 71.75 49.35 72.9 51.35 70.2 53.05 Q69.85 51.4 68.95 49.9 M70.45 55.65 L73.45 56.8 72.65 58.75 69.9 58.75 70.45 55.65 M68.8 61.15 L70.75 63.45 68.7 64.85 66.95 63.45 68.8 61.15 M55.5 68.15 L55.05 65.4 58.9 66.3 58.95 66.4 58.25 68.6 55.5 68.15 M49.55 64.5 L50.7 62.05 Q51.9 63.55 53.4 64.55 L51.05 66.3 49.55 64.5 M47.2 60.95 L46.05 58.6 48.5 56.55 Q48.65 58.5 49.65 60.35 L47.2 60.95 M45.6 53.25 L46.2 51.1 49.4 50.9 48.55 54.6 45.6 53.25 M48.55 46.45 L49.95 44.95 52.8 46.55 Q51.3 47.65 50.35 49.25 L48.55 46.45 M65.5 50.65 Q63.7 48.0 60.6 47.45 57.4 46.75 54.85 48.6 52.2 50.4 51.65 53.45 51.0 56.55 52.8 59.25 54.6 61.9 57.7 62.55 60.75 63.1 63.45 61.35 66.05 59.55 66.75 56.45 67.25 53.3 65.5 50.65 M66.0 50.55 Q67.75 53.4 67.25 56.7 66.6 60.0 63.75 61.85 60.95 63.7 57.6 63.15 54.4 62.5 52.45 59.65 50.55 56.8 51.3 53.55 51.9 50.25 54.7 48.35 57.45 46.4 60.8 47.1 64.05 47.7 66.0 50.55 M61.1 66.25 L64.55 65.1 65.2 67.65 63.05 68.7 61.1 66.25" fill="#000000" fill-opacity="0.6" fill-rule="evenodd" stroke="none"/>
      <path d="M56.05 57.15 Q54.3 54.0 57.1 51.85 57.6 51.45 58.25 51.2 60.9 50.8 62.4 53.05 60.6 50.75 57.95 51.75 56.4 52.3 55.9 53.8 55.25 55.5 56.05 57.15" fill="#000000" fill-opacity="0.6" fill-rule="evenodd" stroke="none"/>
      <path d="M62.4 53.05 Q63.1 54.05 63.15 55.2 63.15 56.75 61.95 57.85 L60.75 58.6 Q57.7 59.8 56.05 57.15 55.25 55.5 55.9 53.8 56.4 52.3 57.95 51.75 60.6 50.75 62.4 53.05" fill="#000000" fill-opacity="0.6" fill-rule="evenodd" stroke="none"/>
    </g>
    <linearGradient gradientTransform="matrix(0.0436, 0.0098, -0.008, 0.0485, 62.5, 40.5)" gradientUnits="userSpaceOnUse" id="gradient4" spreadMethod="pad" x1="-819.2" x2="819.2">
      <stop offset="0.0" stop-color="#000000" stop-opacity="0.6"/>
      <stop offset="0.5490196078431373" stop-color="#000000" stop-opacity="0.6"/>
      <stop offset="1.0" stop-color="#000000" stop-opacity="0.6"/>
    </linearGradient>
    <g id="shape3" transform="matrix(1.0, 0.0, 0.0, 1.0, -0.05, 0.0)">
      <path d="M110.1 0.05 Q110.7 3.6 110.35 7.3 110.15 9.3 108.25 9.6 L105.25 10.3 Q104.0 10.75 103.15 11.85 102.8 12.35 102.75 13.0 102.45 16.4 103.15 19.95 103.65 22.35 102.55 24.45 101.2 26.85 98.65 28.05 96.9 28.85 94.95 29.05 L91.2 29.75 Q90.2 29.9 89.3 30.35 89.9 26.15 88.95 22.1 L88.45 19.8 91.5 19.15 92.05 21.5 93.75 21.2 Q94.55 19.7 94.35 18.0 L94.1 14.95 94.6 12.7 Q95.45 7.45 99.05 3.55 101.0 2.4 103.2 2.0 L109.1 1.95 109.55 0.0 110.1 0.05 M97.2 30.85 L98.0 30.5 100.85 28.65 100.5 29.0 Q99.15 30.35 97.2 30.85 M112.65 13.65 L113.2 13.4 112.6 11.2 113.25 13.4 112.65 13.65 M107.45 5.55 Q107.05 5.1 106.4 5.1 105.75 5.1 105.35 5.55 104.9 5.95 104.9 6.6 104.9 7.25 105.35 7.65 105.75 8.1 106.4 8.1 107.05 8.1 107.45 7.65 L107.9 6.6 Q107.9 5.95 107.45 5.55 M101.7 10.55 Q102.15 10.15 102.15 9.5 102.15 8.85 101.7 8.45 101.3 8.0 100.65 8.0 100.0 8.0 99.6 8.45 99.15 8.85 99.15 9.5 99.15 10.15 99.6 10.55 100.0 11.0 100.65 11.0 L101.7 10.55 M81.1 7.85 L81.55 6.8 Q81.55 6.15 81.1 5.75 80.7 5.3 80.05 5.3 79.4 5.3 79.0 5.75 78.55 6.15 78.55 6.8 78.55 7.45 79.0 7.85 79.4 8.3 80.05 8.3 80.7 8.3 81.1 7.85 M83.4 1.3 Q83.85 5.1 82.7 8.7 82.25 10.1 80.9 10.1 L77.15 9.6 Q74.45 9.15 71.8 10.2 69.05 11.3 67.9 14.0 67.05 16.0 68.1 18.1 69.85 21.7 73.65 23.1 L76.6 23.15 Q78.2 21.85 77.95 19.75 77.85 18.65 78.6 18.0 79.35 17.55 80.0 17.6 L81.55 18.0 Q82.05 18.05 82.4 18.45 L82.9 19.3 83.2 21.3 83.25 23.8 83.1 25.8 Q82.9 27.05 81.8 28.05 79.8 29.65 77.2 29.95 L71.75 31.15 75.2 31.55 73.0 31.4 Q67.6 30.75 63.65 26.9 61.5 24.85 60.65 22.0 L60.25 20.5 Q60.95 15.55 63.0 11.1 66.1 4.5 73.0 1.7 77.6 1.1 82.35 2.65 L82.5 2.65 83.4 1.3 M100.85 15.4 Q100.45 14.95 99.8 14.95 99.15 14.95 98.75 15.4 98.3 15.8 98.3 16.45 98.3 17.1 98.75 17.5 99.15 17.95 99.8 17.95 100.45 17.95 100.85 17.5 101.3 17.1 101.3 16.45 101.3 15.8 100.85 15.4 M82.25 21.45 Q82.25 20.8 81.8 20.4 81.4 19.95 80.75 19.95 80.1 19.95 79.7 20.4 79.25 20.8 79.25 21.45 79.25 22.1 79.7 22.5 80.1 22.95 80.75 22.95 81.4 22.95 81.8 22.5 L82.25 21.45 M99.9 22.3 Q99.25 22.3 98.85 22.75 98.4 23.15 98.4 23.8 98.4 24.45 98.85 24.85 99.25 25.3 99.9 25.3 100.55 25.3 100.95 24.85 L101.4 23.8 Q101.4 23.15 100.95 22.75 100.55 22.3 99.9 22.3 M95.45 26.9 Q95.45 26.25 95.0 25.85 94.6 25.4 93.95 25.4 93.3 25.4 92.9 25.85 92.45 26.25 92.45 26.9 92.45 27.55 92.9 27.95 93.3 28.4 93.95 28.4 94.6 28.4 95.0 27.95 95.45 27.55 95.45 26.9 M64.2 5.8 Q63.1 7.0 62.35 8.3 61.3 10.05 60.8 11.4 61.25 10.05 62.3 8.3 63.05 7.0 64.2 5.8 M59.9 15.85 L60.05 18.65 60.25 20.5 Q59.75 18.2 59.9 15.85 M74.2 5.15 Q73.8 4.7 73.15 4.7 72.5 4.7 72.1 5.15 71.65 5.55 71.65 6.2 71.65 6.85 72.1 7.25 72.5 7.7 73.15 7.7 73.8 7.7 74.2 7.25 L74.65 6.2 Q74.65 5.55 74.2 5.15 M68.25 8.55 Q67.85 8.1 67.2 8.1 66.55 8.1 66.15 8.55 65.7 8.95 65.7 9.6 65.7 10.25 66.15 10.65 66.55 11.1 67.2 11.1 L68.25 10.65 68.7 9.6 Q68.7 8.95 68.25 8.55 M63.6 17.9 Q64.0 18.35 64.65 18.35 65.3 18.35 65.7 17.9 L66.15 16.85 Q66.15 16.2 65.7 15.8 65.3 15.35 64.65 15.35 64.0 15.35 63.6 15.8 63.15 16.2 63.15 16.85 63.15 17.5 63.6 17.9 M67.95 24.45 L68.4 23.4 Q68.4 22.75 67.95 22.35 67.55 21.9 66.9 21.9 66.25 21.9 65.85 22.35 65.4 22.75 65.4 23.4 65.4 24.05 65.85 24.45 66.25 24.9 66.9 24.9 67.55 24.9 67.95 24.45 M51.6 8.25 Q51.6 7.6 51.15 7.2 50.75 6.75 50.1 6.75 49.45 6.75 49.05 7.2 48.6 7.6 48.6 8.25 48.6 8.9 49.05 9.3 49.45 9.75 50.1 9.75 50.75 9.75 51.15 9.3 L51.6 8.25 M45.8 1.95 Q50.6 2.6 53.95 6.1 55.1 7.25 55.95 8.7 53.5 4.85 49.1 3.05 L45.8 1.95 M57.25 19.7 L56.65 21.15 Q55.5 23.45 53.95 25.5 L50.65 27.75 Q48.9 28.65 47.0 29.0 L38.65 30.4 Q33.8 28.5 31.25 23.95 L30.4 22.45 31.05 15.95 Q31.35 13.45 32.65 11.3 36.05 5.6 41.8 1.9 43.7 1.65 45.75 1.95 49.85 3.5 52.7 6.65 55.5 9.8 56.95 13.9 58.0 16.85 57.25 19.7 M39.35 2.5 L39.85 2.3 41.8 1.9 39.35 2.5 M43.2 5.3 Q42.55 5.3 42.15 5.75 41.7 6.15 41.7 6.8 41.7 7.45 42.15 7.85 42.55 8.3 43.2 8.3 43.85 8.3 44.25 7.85 L44.7 6.8 Q44.7 6.15 44.25 5.75 43.85 5.3 43.2 5.3 M45.9 12.1 L45.65 11.95 45.8 12.05 45.65 12.0 45.65 11.95 Q44.05 10.55 42.2 10.65 40.55 11.0 39.3 12.15 36.65 14.5 37.7 18.1 38.35 20.35 40.6 21.3 L43.55 21.5 44.7 21.3 Q45.6 21.05 46.4 20.6 48.1 19.6 48.45 17.6 49.1 14.05 45.9 12.1 M38.8 16.55 Q38.85 18.65 40.2 20.05 41.55 21.4 43.55 21.5 41.6 21.55 40.15 20.05 38.8 18.6 38.8 16.55 M54.2 21.0 Q54.65 20.6 54.65 19.95 54.65 19.3 54.2 18.9 53.8 18.45 53.15 18.45 52.5 18.45 52.1 18.9 51.65 19.3 51.65 19.95 51.65 20.6 52.1 21.0 52.5 21.45 53.15 21.45 L54.2 21.0 M53.85 15.3 L54.9 14.85 55.35 13.8 Q55.35 13.15 54.9 12.75 54.5 12.3 53.85 12.3 53.2 12.3 52.8 12.75 52.35 13.15 52.35 13.8 52.35 14.45 52.8 14.85 53.2 15.3 53.85 15.3 M50.1 27.1 L50.55 26.05 Q50.55 25.4 50.1 25.0 49.7 24.55 49.05 24.55 48.4 24.55 48.0 25.0 47.55 25.4 47.55 26.05 47.55 26.7 48.0 27.1 48.4 27.55 49.05 27.55 49.7 27.55 50.1 27.1 M80.9 25.6 Q80.5 25.15 79.85 25.15 79.2 25.15 78.8 25.6 78.35 26.0 78.35 26.65 78.35 27.3 78.8 27.7 79.2 28.15 79.85 28.15 80.5 28.15 80.9 27.7 81.35 27.3 81.35 26.65 81.35 26.0 80.9 25.6 M41.8 25.6 Q41.15 25.6 40.75 26.05 40.3 26.45 40.3 27.1 40.3 27.75 40.75 28.15 41.15 28.6 41.8 28.6 42.45 28.6 42.85 28.15 L43.3 27.1 Q43.3 26.45 42.85 26.05 42.45 25.6 41.8 25.6 M74.4 27.2 Q74.4 26.55 73.95 26.15 73.55 25.7 72.9 25.7 72.25 25.7 71.85 26.15 71.4 26.55 71.4 27.2 71.4 27.85 71.85 28.25 72.25 28.7 72.9 28.7 L73.95 28.25 Q74.4 27.85 74.4 27.2 M37.05 8.3 Q36.4 8.3 36.0 8.75 35.55 9.15 35.55 9.8 35.55 10.45 36.0 10.85 36.4 11.3 37.05 11.3 L38.1 10.85 38.55 9.8 Q38.55 9.15 38.1 8.75 37.7 8.3 37.05 8.3 M20.2 21.4 L19.65 19.5 22.15 17.7 22.25 18.05 22.15 17.75 19.7 19.55 20.2 21.4 M9.25 30.5 Q7.35 29.7 5.85 28.5 1.3 25.1 0.3 19.5 L0.7 21.05 Q1.2 16.45 1.8 14.05 2.4 11.6 3.55 10.25 L6.4 6.95 Q8.15 4.95 11.85 3.8 L19.45 1.45 24.2 2.8 25.25 1.25 26.0 1.75 Q25.75 4.9 24.15 7.6 23.15 9.4 21.15 9.8 L17.85 9.4 Q13.95 9.2 10.65 11.6 8.3 13.35 8.4 16.25 L8.7 17.45 Q10.0 20.5 13.0 21.85 15.15 22.7 17.25 22.4 20.55 21.9 23.5 23.05 24.2 23.45 24.35 24.25 L24.3 25.4 23.7 26.7 Q22.95 27.85 21.7 28.25 L19.05 29.0 16.45 29.8 9.25 30.5 M21.15 8.75 Q21.8 8.75 22.2 8.3 L22.65 7.25 Q22.65 6.6 22.2 6.2 21.8 5.75 21.15 5.75 20.5 5.75 20.1 6.2 19.65 6.6 19.65 7.25 19.65 7.9 20.1 8.3 20.5 8.75 21.15 8.75 M36.05 16.15 Q36.05 15.5 35.6 15.1 35.2 14.65 34.55 14.65 33.9 14.65 33.5 15.1 33.05 15.5 33.05 16.15 33.05 16.8 33.5 17.2 33.9 17.65 34.55 17.65 35.2 17.65 35.6 17.2 L36.05 16.15 M35.0 21.15 Q34.55 21.55 34.55 22.2 34.55 22.85 35.0 23.25 35.4 23.7 36.05 23.7 36.7 23.7 37.1 23.25 L37.55 22.2 Q37.55 21.55 37.1 21.15 36.7 20.7 36.05 20.7 35.4 20.7 35.0 21.15 M14.15 4.95 Q13.5 4.95 13.1 5.4 12.65 5.8 12.65 6.45 12.65 7.1 13.1 7.5 13.5 7.95 14.15 7.95 14.8 7.95 15.2 7.5 15.65 7.1 15.65 6.45 15.65 5.8 15.2 5.4 14.8 4.95 14.15 4.95 M7.55 8.3 Q6.9 8.3 6.5 8.75 6.05 9.15 6.05 9.8 6.05 10.45 6.5 10.85 6.9 11.3 7.55 11.3 8.2 11.3 8.6 10.85 9.05 10.45 9.05 9.8 9.05 9.15 8.6 8.75 8.2 8.3 7.55 8.3 M8.65 23.0 Q8.25 22.55 7.6 22.55 6.95 22.55 6.55 23.0 6.1 23.4 6.1 24.05 6.1 24.7 6.55 25.1 6.95 25.55 7.6 25.55 8.25 25.55 8.65 25.1 L9.1 24.05 Q9.1 23.4 8.65 23.0 M6.95 16.5 Q6.95 15.85 6.5 15.45 6.1 15.0 5.45 15.0 4.8 15.0 4.4 15.45 3.95 15.85 3.95 16.5 3.95 17.15 4.4 17.55 4.8 18.0 5.45 18.0 6.1 18.0 6.5 17.55 6.95 17.15 6.95 16.5 M15.85 28.35 L16.3 27.3 Q16.3 26.65 15.85 26.25 15.45 25.8 14.8 25.8 14.15 25.8 13.75 26.25 13.3 26.65 13.3 27.3 13.3 27.95 13.75 28.35 14.15 28.8 14.8 28.8 15.45 28.8 15.85 28.35 M20.4 26.95 Q20.8 27.4 21.45 27.4 L22.5 26.95 Q22.95 26.55 22.95 25.9 22.95 25.25 22.5 24.85 22.1 24.4 21.45 24.4 20.8 24.4 20.4 24.85 19.95 25.25 19.95 25.9 19.95 26.55 20.4 26.95" fill="#000000" fill-opacity="0.6" fill-rule="evenodd" stroke="none"/>
      <path d="M110.1 0.05 L112.25 0.25 112.05 1.6 111.5 6.2 111.5 7.55 112.6 11.2 113.2 13.4 112.65 13.65 110.15 14.3 109.3 11.2 108.35 11.1 Q106.9 10.9 105.95 11.65 L104.75 12.85 104.9 20.6 Q105.0 22.95 103.85 25.0 L103.5 25.45 100.95 28.55 100.85 28.65 98.0 30.5 97.2 30.85 91.6 31.7 91.4 33.1 88.9 33.25 89.3 30.35 Q90.2 29.9 91.2 29.75 L94.95 29.05 Q96.9 28.85 98.65 28.05 101.2 26.85 102.55 24.45 103.65 22.35 103.15 19.95 102.45 16.4 102.75 13.0 102.8 12.35 103.15 11.85 104.0 10.75 105.25 10.3 L108.25 9.6 Q110.15 9.3 110.35 7.3 110.7 3.6 110.1 0.05 M75.2 31.55 L71.75 31.15 77.2 29.95 Q79.8 29.65 81.8 28.05 82.9 27.05 83.1 25.8 L83.25 23.8 83.2 21.3 82.9 19.3 82.4 18.45 Q82.05 18.05 81.55 18.0 L80.0 17.6 Q79.35 17.55 78.6 18.0 77.85 18.65 77.95 19.75 78.2 21.85 76.6 23.15 L73.65 23.1 Q69.85 21.7 68.1 18.1 67.05 16.0 67.9 14.0 69.05 11.3 71.8 10.2 74.45 9.15 77.15 9.6 L80.9 10.1 Q82.25 10.1 82.7 8.7 83.85 5.1 83.4 1.3 L85.55 2.1 Q83.05 7.4 83.85 13.3 L80.85 13.45 80.7 11.55 Q78.5 9.7 75.7 10.3 73.15 10.6 71.35 12.55 70.1 13.85 69.9 15.7 69.6 18.25 71.4 20.2 L72.8 21.25 75.25 22.1 75.35 18.7 73.4 18.7 74.2 15.95 81.65 16.2 86.85 16.0 87.2 18.5 85.2 18.7 84.6 28.85 75.2 31.55 M45.8 1.95 L49.1 3.05 Q53.5 4.85 55.95 8.7 58.1 12.2 57.9 16.4 57.8 18.15 57.25 19.7 58.0 16.85 56.95 13.9 55.5 9.8 52.7 6.65 49.85 3.5 45.75 1.95 L45.8 1.95 M53.95 25.5 L51.75 28.05 Q50.4 29.5 48.5 30.3 L44.9 31.35 Q41.65 31.65 38.65 30.4 L47.0 29.0 Q48.9 28.65 50.65 27.75 L53.95 25.5 M45.8 12.05 L45.65 11.95 45.9 12.1 45.8 12.05 M43.55 21.5 L40.6 21.3 Q38.35 20.35 37.7 18.1 36.65 14.5 39.3 12.15 40.55 11.0 42.2 10.65 44.05 10.55 45.65 11.95 L45.65 12.0 41.8 12.25 Q40.95 12.45 40.25 13.05 38.9 14.4 38.8 16.55 38.8 18.6 40.15 20.05 41.6 21.55 43.55 21.5 M26.0 1.75 L27.55 2.75 Q24.3 7.15 23.55 12.5 L23.35 13.95 20.8 13.85 20.5 11.05 Q17.8 9.9 15.0 10.7 11.05 11.85 10.35 15.85 10.05 17.5 10.95 19.05 12.0 20.9 14.0 21.6 L20.2 21.4 19.7 19.55 22.15 17.75 22.25 18.05 25.7 24.4 29.15 27.95 26.7 30.15 24.7 28.85 Q22.55 30.3 20.05 31.0 14.45 32.2 9.25 30.5 L16.45 29.8 19.05 29.0 21.7 28.25 Q22.95 27.85 23.7 26.7 L24.3 25.4 24.35 24.25 Q24.2 23.45 23.5 23.05 20.55 21.9 17.25 22.4 15.15 22.7 13.0 21.85 10.0 20.5 8.7 17.45 L8.4 16.25 Q8.3 13.35 10.65 11.6 13.95 9.2 17.85 9.4 L21.15 9.8 Q23.15 9.4 24.15 7.6 25.75 4.9 26.0 1.75" fill="#000000" fill-opacity="0.6" fill-rule="evenodd" stroke="none"/>
      <path d="M107.45 5.55 Q107.9 5.95 107.9 6.6 L107.45 7.65 Q107.05 8.1 106.4 8.1 105.75 8.1 105.35 7.65 104.9 7.25 104.9 6.6 104.9 5.95 105.35 5.55 105.75 5.1 106.4 5.1 107.05 5.1 107.45 5.55 M106.2 5.45 Q105.6 5.5 105.55 6.1 105.6 6.7 106.2 6.75 106.8 6.7 106.85 6.1 106.8 5.5 106.2 5.45 M101.7 10.55 L100.65 11.0 Q100.0 11.0 99.6 10.55 99.15 10.15 99.15 9.5 99.15 8.85 99.6 8.45 100.0 8.0 100.65 8.0 101.3 8.0 101.7 8.45 102.15 8.85 102.15 9.5 102.15 10.15 101.7 10.55 M100.45 9.7 Q101.0 9.65 101.1 9.05 101.05 8.45 100.45 8.4 99.85 8.45 99.8 9.05 99.85 9.65 100.45 9.7 M81.1 7.85 Q80.7 8.3 80.05 8.3 79.4 8.3 79.0 7.85 78.55 7.45 78.55 6.8 78.55 6.15 79.0 5.75 79.4 5.3 80.05 5.3 80.7 5.3 81.1 5.75 81.55 6.15 81.55 6.8 L81.1 7.85 M82.25 21.45 L81.8 22.5 Q81.4 22.95 80.75 22.95 80.1 22.95 79.7 22.5 79.25 22.1 79.25 21.45 79.25 20.8 79.7 20.4 80.1 19.95 80.75 19.95 81.4 19.95 81.8 20.4 82.25 20.8 82.25 21.45 M100.85 15.4 Q101.3 15.8 101.3 16.45 101.3 17.1 100.85 17.5 100.45 17.95 99.8 17.95 99.15 17.95 98.75 17.5 98.3 17.1 98.3 16.45 98.3 15.8 98.75 15.4 99.15 14.95 99.8 14.95 100.45 14.95 100.85 15.4 M99.6 16.65 Q100.2 16.6 100.25 16.0 100.2 15.4 99.6 15.35 99.0 15.4 98.95 16.0 99.0 16.6 99.6 16.65 M99.9 22.3 Q100.55 22.3 100.95 22.75 101.4 23.15 101.4 23.8 L100.95 24.85 Q100.55 25.3 99.9 25.3 99.25 25.3 98.85 24.85 98.4 24.45 98.4 23.8 98.4 23.15 98.85 22.75 99.25 22.3 99.9 22.3 M99.7 24.0 Q100.3 23.95 100.35 23.35 100.3 22.75 99.7 22.7 99.1 22.75 99.05 23.35 99.1 23.95 99.7 24.0 M94.45 26.45 Q94.4 25.85 93.8 25.8 93.2 25.85 93.15 26.45 93.2 27.05 93.8 27.1 94.4 27.05 94.45 26.45 M95.45 26.9 Q95.45 27.55 95.0 27.95 94.6 28.4 93.95 28.4 93.3 28.4 92.9 27.95 92.45 27.55 92.45 26.9 92.45 26.25 92.9 25.85 93.3 25.4 93.95 25.4 94.6 25.4 95.0 25.85 95.45 26.25 95.45 26.9 M73.6 5.75 Q73.55 5.15 72.95 5.1 72.35 5.15 72.3 5.75 72.35 6.3 72.95 6.4 73.55 6.35 73.6 5.75 M74.2 5.15 Q74.65 5.55 74.65 6.2 L74.2 7.25 Q73.8 7.7 73.15 7.7 72.5 7.7 72.1 7.25 71.65 6.85 71.65 6.2 71.65 5.55 72.1 5.15 72.5 4.7 73.15 4.7 73.8 4.7 74.2 5.15 M79.25 6.3 Q79.3 6.85 79.9 6.95 80.5 6.9 80.55 6.3 80.5 5.7 79.9 5.65 79.3 5.7 79.25 6.3 M68.25 8.55 Q68.7 8.95 68.7 9.6 L68.25 10.65 67.2 11.1 Q66.55 11.1 66.15 10.65 65.7 10.25 65.7 9.6 65.7 8.95 66.15 8.55 66.55 8.1 67.2 8.1 67.85 8.1 68.25 8.55 M67.7 9.15 Q67.65 8.55 67.05 8.5 66.45 8.55 66.4 9.15 66.45 9.7 67.05 9.8 67.65 9.75 67.7 9.15 M63.6 17.9 Q63.15 17.5 63.15 16.85 63.15 16.2 63.6 15.8 64.0 15.35 64.65 15.35 65.3 15.35 65.7 15.8 66.15 16.2 66.15 16.85 L65.7 17.9 Q65.3 18.35 64.65 18.35 64.0 18.35 63.6 17.9 M66.7 22.3 Q66.1 22.35 66.05 22.95 66.1 23.55 66.7 23.6 67.3 23.55 67.35 22.95 67.3 22.35 66.7 22.3 M64.5 17.0 Q65.1 16.95 65.15 16.35 65.1 15.75 64.5 15.7 63.9 15.75 63.85 16.35 63.9 16.95 64.5 17.0 M67.95 24.45 Q67.55 24.9 66.9 24.9 66.25 24.9 65.85 24.45 65.4 24.05 65.4 23.4 65.4 22.75 65.85 22.35 66.25 21.9 66.9 21.9 67.55 21.9 67.95 22.35 68.4 22.75 68.4 23.4 L67.95 24.45 M80.6 20.3 Q80.0 20.35 79.95 20.95 80.0 21.55 80.6 21.6 81.2 21.55 81.25 20.95 81.2 20.35 80.6 20.3 M51.6 8.25 L51.15 9.3 Q50.75 9.75 50.1 9.75 49.45 9.75 49.05 9.3 48.6 8.9 48.6 8.25 48.6 7.6 49.05 7.2 49.45 6.75 50.1 6.75 50.75 6.75 51.15 7.2 51.6 7.6 51.6 8.25 M43.2 5.3 Q43.85 5.3 44.25 5.75 44.7 6.15 44.7 6.8 L44.25 7.85 Q43.85 8.3 43.2 8.3 42.55 8.3 42.15 7.85 41.7 7.45 41.7 6.8 41.7 6.15 42.15 5.75 42.55 5.3 43.2 5.3 M49.9 7.15 Q49.3 7.2 49.25 7.8 49.3 8.4 49.9 8.45 50.5 8.4 50.55 7.8 50.5 7.2 49.9 7.15 M43.05 6.95 Q43.65 6.9 43.7 6.3 43.65 5.7 43.05 5.65 42.45 5.7 42.4 6.3 42.45 6.9 43.05 6.95 M53.7 14.0 Q54.25 13.95 54.35 13.35 54.25 12.75 53.7 12.7 53.1 12.75 53.05 13.35 53.1 13.95 53.7 14.0 M53.85 15.3 Q53.2 15.3 52.8 14.85 52.35 14.45 52.35 13.8 52.35 13.15 52.8 12.75 53.2 12.3 53.85 12.3 54.5 12.3 54.9 12.75 55.35 13.15 55.35 13.8 L54.9 14.85 53.85 15.3 M54.2 21.0 L53.15 21.45 Q52.5 21.45 52.1 21.0 51.65 20.6 51.65 19.95 51.65 19.3 52.1 18.9 52.5 18.45 53.15 18.45 53.8 18.45 54.2 18.9 54.65 19.3 54.65 19.95 54.65 20.6 54.2 21.0 M53.0 18.85 Q52.4 18.9 52.35 19.5 52.4 20.1 53.0 20.15 53.6 20.1 53.65 19.5 53.6 18.9 53.0 18.85 M50.1 27.1 Q49.7 27.55 49.05 27.55 48.4 27.55 48.0 27.1 47.55 26.7 47.55 26.05 47.55 25.4 48.0 25.0 48.4 24.55 49.05 24.55 49.7 24.55 50.1 25.0 50.55 25.4 50.55 26.05 L50.1 27.1 M41.6 25.95 Q41.0 26.0 40.95 26.6 41.0 27.2 41.6 27.25 42.2 27.2 42.25 26.6 42.2 26.0 41.6 25.95 M48.9 24.95 Q48.3 25.0 48.25 25.6 48.3 26.2 48.9 26.25 49.5 26.2 49.55 25.6 49.5 25.0 48.9 24.95 M41.8 25.6 Q42.45 25.6 42.85 26.05 43.3 26.45 43.3 27.1 L42.85 28.15 Q42.45 28.6 41.8 28.6 41.15 28.6 40.75 28.15 40.3 27.75 40.3 27.1 40.3 26.45 40.75 26.05 41.15 25.6 41.8 25.6 M80.9 25.6 Q81.35 26.0 81.35 26.65 81.35 27.3 80.9 27.7 80.5 28.15 79.85 28.15 79.2 28.15 78.8 27.7 78.35 27.3 78.35 26.65 78.35 26.0 78.8 25.6 79.2 25.15 79.85 25.15 80.5 25.15 80.9 25.6 M79.0 26.2 Q79.05 26.8 79.65 26.85 80.25 26.8 80.3 26.2 80.25 25.6 79.65 25.55 79.05 25.6 79.0 26.2 M74.4 27.2 Q74.4 27.85 73.95 28.25 L72.9 28.7 Q72.25 28.7 71.85 28.25 71.4 27.85 71.4 27.2 71.4 26.55 71.85 26.15 72.25 25.7 72.9 25.7 73.55 25.7 73.95 26.15 74.4 26.55 74.4 27.2 M72.7 27.35 Q73.3 27.25 73.35 26.7 73.25 26.1 72.7 26.05 72.1 26.1 72.05 26.7 72.1 27.3 72.7 27.35 M37.05 8.3 Q37.7 8.3 38.1 8.75 38.55 9.15 38.55 9.8 L38.1 10.85 37.05 11.3 Q36.4 11.3 36.0 10.85 35.55 10.45 35.55 9.8 35.55 9.15 36.0 8.75 36.4 8.3 37.05 8.3 M36.9 9.95 Q37.5 9.9 37.55 9.3 37.5 8.7 36.9 8.65 36.3 8.7 36.25 9.3 36.3 9.9 36.9 9.95 M21.0 7.4 Q21.6 7.35 21.65 6.75 21.6 6.15 21.0 6.1 20.4 6.15 20.35 6.75 20.4 7.35 21.0 7.4 M21.15 8.75 Q20.5 8.75 20.1 8.3 19.65 7.9 19.65 7.25 19.65 6.6 20.1 6.2 20.5 5.75 21.15 5.75 21.8 5.75 22.2 6.2 22.65 6.6 22.65 7.25 L22.2 8.3 Q21.8 8.75 21.15 8.75 M36.05 16.15 L35.6 17.2 Q35.2 17.65 34.55 17.65 33.9 17.65 33.5 17.2 33.05 16.8 33.05 16.15 33.05 15.5 33.5 15.1 33.9 14.65 34.55 14.65 35.2 14.65 35.6 15.1 36.05 15.5 36.05 16.15 M33.75 15.65 Q33.8 16.25 34.4 16.3 35.0 16.2 35.05 15.65 35.0 15.05 34.4 15.0 33.8 15.05 33.75 15.65 M35.0 21.15 Q35.4 20.7 36.05 20.7 36.7 20.7 37.1 21.15 37.55 21.55 37.55 22.2 L37.1 23.25 Q36.7 23.7 36.05 23.7 35.4 23.7 35.0 23.25 34.55 22.85 34.55 22.2 34.55 21.55 35.0 21.15 M36.5 21.75 Q36.45 21.15 35.85 21.1 35.25 21.15 35.2 21.75 35.25 22.35 35.85 22.4 36.45 22.35 36.5 21.75 M14.0 5.35 Q13.4 5.4 13.35 6.0 13.4 6.6 14.0 6.65 14.6 6.6 14.65 6.0 14.6 5.4 14.0 5.35 M14.15 4.95 Q14.8 4.95 15.2 5.4 15.65 5.8 15.65 6.45 15.65 7.1 15.2 7.5 14.8 7.95 14.15 7.95 13.5 7.95 13.1 7.5 12.65 7.1 12.65 6.45 12.65 5.8 13.1 5.4 13.5 4.95 14.15 4.95 M7.55 8.3 Q8.2 8.3 8.6 8.75 9.05 9.15 9.05 9.8 9.05 10.45 8.6 10.85 8.2 11.3 7.55 11.3 6.9 11.3 6.5 10.85 6.05 10.45 6.05 9.8 6.05 9.15 6.5 8.75 6.9 8.3 7.55 8.3 M5.9 16.05 Q5.85 15.45 5.25 15.4 4.65 15.45 4.6 16.05 4.65 16.65 5.25 16.7 5.85 16.65 5.9 16.05 M6.75 9.35 Q6.8 9.95 7.4 10.0 8.0 9.95 8.05 9.35 8.0 8.75 7.4 8.7 6.8 8.75 6.75 9.35 M6.95 16.5 Q6.95 17.15 6.5 17.55 6.1 18.0 5.45 18.0 4.8 18.0 4.4 17.55 3.95 17.15 3.95 16.5 3.95 15.85 4.4 15.45 4.8 15.0 5.45 15.0 6.1 15.0 6.5 15.45 6.95 15.85 6.95 16.5 M8.65 23.0 Q9.1 23.4 9.1 24.05 L8.65 25.1 Q8.25 25.55 7.6 25.55 6.95 25.55 6.55 25.1 6.1 24.7 6.1 24.05 6.1 23.4 6.55 23.0 6.95 22.55 7.6 22.55 8.25 22.55 8.65 23.0 M8.05 23.55 Q8.0 22.95 7.4 22.9 6.8 22.95 6.75 23.55 6.8 24.15 7.4 24.2 8.0 24.15 8.05 23.55 M15.85 28.35 Q15.45 28.8 14.8 28.8 14.15 28.8 13.75 28.35 13.3 27.95 13.3 27.3 13.3 26.65 13.75 26.25 14.15 25.8 14.8 25.8 15.45 25.8 15.85 26.25 16.3 26.65 16.3 27.3 L15.85 28.35 M21.95 25.45 Q21.9 24.85 21.3 24.8 20.7 24.85 20.65 25.45 20.7 26.05 21.3 26.1 21.9 26.05 21.95 25.45 M13.95 26.8 Q14.0 27.35 14.6 27.45 15.2 27.4 15.25 26.8 15.2 26.2 14.6 26.15 14.0 26.2 13.95 26.8 M20.4 26.95 Q19.95 26.55 19.95 25.9 19.95 25.25 20.4 24.85 20.8 24.4 21.45 24.4 22.1 24.4 22.5 24.85 22.95 25.25 22.95 25.9 22.95 26.55 22.5 26.95 L21.45 27.4 Q20.8 27.4 20.4 26.95" fill="#000000" fill-opacity="0.6" fill-rule="evenodd" stroke="none"/>
      <path d="M106.2 5.45 Q106.8 5.5 106.85 6.1 106.8 6.7 106.2 6.75 105.6 6.7 105.55 6.1 105.6 5.5 106.2 5.45 M100.45 9.7 Q99.85 9.65 99.8 9.05 99.85 8.45 100.45 8.4 101.05 8.45 101.1 9.05 101.0 9.65 100.45 9.7 M99.6 16.65 Q99.0 16.6 98.95 16.0 99.0 15.4 99.6 15.35 100.2 15.4 100.25 16.0 100.2 16.6 99.6 16.65 M99.7 24.0 Q99.1 23.95 99.05 23.35 99.1 22.75 99.7 22.7 100.3 22.75 100.35 23.35 100.3 23.95 99.7 24.0 M94.45 26.45 Q94.4 27.05 93.8 27.1 93.2 27.05 93.15 26.45 93.2 25.85 93.8 25.8 94.4 25.85 94.45 26.45 M73.6 5.75 Q73.55 6.35 72.95 6.4 72.35 6.3 72.3 5.75 72.35 5.15 72.95 5.1 73.55 5.15 73.6 5.75 M79.25 6.3 Q79.3 5.7 79.9 5.65 80.5 5.7 80.55 6.3 80.5 6.9 79.9 6.95 79.3 6.85 79.25 6.3 M67.7 9.15 Q67.65 9.75 67.05 9.8 66.45 9.7 66.4 9.15 66.45 8.55 67.05 8.5 67.65 8.55 67.7 9.15 M64.5 17.0 Q63.9 16.95 63.85 16.35 63.9 15.75 64.5 15.7 65.1 15.75 65.15 16.35 65.1 16.95 64.5 17.0 M66.7 22.3 Q67.3 22.35 67.35 22.95 67.3 23.55 66.7 23.6 66.1 23.55 66.05 22.95 66.1 22.35 66.7 22.3 M80.6 20.3 Q81.2 20.35 81.25 20.95 81.2 21.55 80.6 21.6 80.0 21.55 79.95 20.95 80.0 20.35 80.6 20.3 M43.05 6.95 Q42.45 6.9 42.4 6.3 42.45 5.7 43.05 5.65 43.65 5.7 43.7 6.3 43.65 6.9 43.05 6.95 M49.9 7.15 Q50.5 7.2 50.55 7.8 50.5 8.4 49.9 8.45 49.3 8.4 49.25 7.8 49.3 7.2 49.9 7.15 M53.7 14.0 Q53.1 13.95 53.05 13.35 53.1 12.75 53.7 12.7 54.25 12.75 54.35 13.35 54.25 13.95 53.7 14.0 M53.0 18.85 Q53.6 18.9 53.65 19.5 53.6 20.1 53.0 20.15 52.4 20.1 52.35 19.5 52.4 18.9 53.0 18.85 M48.9 24.95 Q49.5 25.0 49.55 25.6 49.5 26.2 48.9 26.25 48.3 26.2 48.25 25.6 48.3 25.0 48.9 24.95 M41.6 25.95 Q42.2 26.0 42.25 26.6 42.2 27.2 41.6 27.25 41.0 27.2 40.95 26.6 41.0 26.0 41.6 25.95 M79.0 26.2 Q79.05 25.6 79.65 25.55 80.25 25.6 80.3 26.2 80.25 26.8 79.65 26.85 79.05 26.8 79.0 26.2 M72.7 27.35 Q72.1 27.3 72.05 26.7 72.1 26.1 72.7 26.05 73.25 26.1 73.35 26.7 73.3 27.25 72.7 27.35 M36.9 9.95 Q36.3 9.9 36.25 9.3 36.3 8.7 36.9 8.65 37.5 8.7 37.55 9.3 37.5 9.9 36.9 9.95 M21.0 7.4 Q20.4 7.35 20.35 6.75 20.4 6.15 21.0 6.1 21.6 6.15 21.65 6.75 21.6 7.35 21.0 7.4 M33.75 15.65 Q33.8 15.05 34.4 15.0 35.0 15.05 35.05 15.65 35.0 16.2 34.4 16.3 33.8 16.25 33.75 15.65 M36.5 21.75 Q36.45 22.35 35.85 22.4 35.25 22.35 35.2 21.75 35.25 21.15 35.85 21.1 36.45 21.15 36.5 21.75 M14.0 5.35 Q14.6 5.4 14.65 6.0 14.6 6.6 14.0 6.65 13.4 6.6 13.35 6.0 13.4 5.4 14.0 5.35 M6.75 9.35 Q6.8 8.75 7.4 8.7 8.0 8.75 8.05 9.35 8.0 9.95 7.4 10.0 6.8 9.95 6.75 9.35 M5.9 16.05 Q5.85 16.65 5.25 16.7 4.65 16.65 4.6 16.05 4.65 15.45 5.25 15.4 5.85 15.45 5.9 16.05 M8.05 23.55 Q8.0 24.15 7.4 24.2 6.8 24.15 6.75 23.55 6.8 22.95 7.4 22.9 8.0 22.95 8.05 23.55 M13.95 26.8 Q14.0 26.2 14.6 26.15 15.2 26.2 15.25 26.8 15.2 27.4 14.6 27.45 14.0 27.35 13.95 26.8 M21.95 25.45 Q21.9 26.05 21.3 26.1 20.7 26.05 20.65 25.45 20.7 24.85 21.3 24.8 21.9 24.85 21.95 25.45" fill="#000000" fill-opacity="0.6" fill-rule="evenodd" stroke="none"/>
      <path d="M99.05 3.55 Q95.45 7.45 94.6 12.7 L94.1 14.95 94.05 15.1 93.8 13.35 Q93.5 11.45 93.9 9.45 94.3 7.65 95.5 6.2 97.15 4.25 99.55 3.05 L99.05 3.55 M73.0 1.7 Q66.1 4.5 63.0 11.1 60.95 15.55 60.25 20.5 L60.05 18.65 59.9 15.85 60.0 14.95 Q60.05 14.1 60.25 13.3 L60.8 11.4 Q61.3 10.05 62.35 8.3 63.1 7.0 64.2 5.8 66.05 3.85 68.45 2.8 70.75 1.7 73.55 1.5 L73.0 1.7 M30.4 22.45 L30.0 21.1 Q29.6 19.6 29.65 18.15 29.75 14.65 30.65 11.3 31.15 9.45 32.3 7.85 35.0 4.05 39.35 2.5 L41.8 1.9 Q36.05 5.6 32.65 11.3 31.35 13.45 31.05 15.95 L30.4 22.45 M0.3 19.5 L0.1 17.75 Q-0.2 12.7 2.55 8.6 5.3 4.5 9.85 2.7 14.45 0.8 19.45 1.45 L11.85 3.8 Q8.15 4.95 6.4 6.95 L3.55 10.25 Q2.4 11.6 1.8 14.05 1.2 16.45 0.7 21.05 L0.3 19.5" fill="#000000" fill-opacity="0.6" fill-rule="evenodd" stroke="none"/>
    </g>
    <g id="shape4" transform="matrix(1.0, 0.0, 0.0, 1.0, 0.0, 0.0)">
      <path d="M37.1 0.0 L38.2 0.0 38.2 5.45 37.4 5.45 37.4 4.5 32.95 4.5 32.95 6.55 35.15 6.55 35.15 5.6 36.15 5.6 36.15 10.1 35.5 10.1 35.5 8.95 33.25 8.95 33.25 11.7 36.8 11.7 36.8 9.75 37.75 9.75 37.75 16.0 36.95 16.0 36.95 15.4 28.0 15.4 28.0 14.55 29.6 14.55 29.55 2.75 27.65 2.75 27.65 1.6 37.1 1.6 37.1 0.0 M26.35 2.45 L25.25 2.45 25.25 14.45 26.55 14.45 26.55 15.55 19.8 15.55 19.8 14.75 21.75 14.75 21.75 9.95 17.75 9.95 17.75 14.3 18.85 14.3 18.85 15.4 11.65 15.4 11.65 14.6 13.25 14.6 13.25 2.3 11.65 2.3 11.65 1.0 18.55 1.0 18.55 2.1 17.4 2.1 17.4 6.6 21.25 6.6 21.25 2.45 19.95 2.45 19.95 1.15 26.35 1.15 26.35 2.45 M10.7 0.7 L10.7 6.8 9.9 6.8 9.9 5.2 8.15 5.2 8.15 14.15 8.95 14.15 8.95 15.25 1.75 15.25 1.75 14.45 3.85 14.45 3.85 5.2 1.3 5.2 1.3 6.45 0.0 6.45 0.0 0.7 1.1 0.7 1.1 2.0 9.75 2.0 9.75 0.7 10.7 0.7" fill="#000000" fill-opacity="0.6" fill-rule="evenodd" stroke="none"/>
    </g>
  </defs>
</svg>
