<?xml version="1.0" encoding="UTF-8" standalone="no"?>
<svg xmlns:xlink="http://www.w3.org/1999/xlink" height="306.8px" width="239.65px" xmlns="http://www.w3.org/2000/svg">
  <g transform="matrix(1.0, 0.0, 0.0, 1.0, -0.15, 2.65)">
    <use height="138.95" transform="matrix(1.0, 0.0, 0.0, 1.0, 37.75, 0.0)" width="70.45" xlink:href="#shape0"/>
    <use height="183.95" transform="matrix(1.0, 0.0, 0.0, 1.0, 0.15, 120.2)" width="113.35" xlink:href="#shape1"/>
    <use height="73.2" transform="matrix(1.0, 0.0, 0.0, 1.0, 100.2, 83.8)" width="133.85" xlink:href="#shape2"/>
    <use height="106.1" transform="matrix(1.0, 0.0, 0.0, 1.0, 56.5, 61.0)" width="105.3" xlink:href="#shape3"/>
    <use height="26.3" transform="matrix(1.0, 0.0, 0.0, 1.0, 98.85, 80.5)" width="26.4" xlink:href="#shape4"/>
    <use height="16.3" transform="matrix(1.0, 0.0, 0.0, 1.0, 102.95, 104.05)" width="15.4" xlink:href="#shape5"/>
    <use height="11.15" transform="matrix(1.0, 0.0, 0.0, 1.0, 121.3, 106.65)" width="12.5" xlink:href="#shape6"/>
  </g>
  <defs>
    <g id="shape0" transform="matrix(1.0, 0.0, 0.0, 1.0, 0.0, 0.0)">
      <path d="M17.6 15.9 Q14.6 16.7 11.45 18.2 8.35 19.65 5.6 22.05 10.2 20.0 14.65 19.55 L22.85 19.25 29.15 19.55 25.85 20.15 21.0 20.3 14.75 20.95 Q11.25 21.55 7.2 23.05 3.15 24.65 2.05 26.9 0.95 29.15 2.6 31.1 4.3 33.05 8.6 33.85 8.05 31.2 9.35 29.5 10.7 27.8 13.2 27.0 15.7 26.15 18.6 26.25 21.55 26.3 24.1 27.25 26.65 28.2 28.05 30.0 23.6 27.6 19.75 27.4 15.85 27.2 13.25 28.35 10.6 29.55 9.75 31.35 8.9 33.15 10.4 34.75 11.2 35.4 13.15 35.95 L17.3 36.95 21.35 37.7 Q25.75 38.7 29.95 40.6 34.15 42.5 38.35 44.2 L41.0 45.2 45.15 45.95 Q47.5 46.1 49.95 45.15 52.4 44.25 54.55 41.6 56.6 39.0 56.75 36.25 56.9 33.5 55.35 31.2 53.75 28.85 50.5 27.5 47.3 26.1 42.5 26.2 43.9 25.4 46.05 25.55 48.2 25.65 50.5 26.6 52.8 27.5 54.6 29.05 56.4 30.65 57.05 32.8 58.25 30.25 58.0 27.0 57.75 23.75 56.85 20.7 L57.45 21.35 Q57.65 18.95 59.15 17.1 60.7 15.3 62.7 13.7 L66.45 10.6 67.75 9.05 Q68.45 8.05 68.75 6.8 69.1 5.6 68.5 4.45 67.95 3.25 66.0 2.4 63.2 1.25 59.95 1.75 56.65 2.3 53.9 4.9 51.15 7.5 49.9 12.55 L49.8 11.7 49.75 10.35 Q47.25 11.75 43.35 12.3 L35.05 13.15 26.5 14.1 22.95 14.7 17.6 15.9 M35.1 129.55 L35.05 129.5 Q33.45 126.95 33.1 124.85 L33.15 121.7 33.55 115.7 34.1 108.6 34.65 102.3 34.95 98.6 38.05 97.65 43.65 50.6 40.25 49.65 Q37.8 48.55 36.15 46.1 L35.15 44.6 33.2 43.75 32.3 43.4 26.7 41.0 Q23.9 39.9 21.05 39.3 L19.7 39.05 13.25 37.65 Q10.5 36.9 9.35 35.95 L9.0 35.5 8.6 35.45 8.35 35.4 Q4.65 34.8 2.5 33.15 0.3 31.5 0.0 29.15 L0.1 27.65 Q0.55 25.5 2.75 23.75 2.7 23.25 3.15 22.6 L4.05 21.4 4.55 20.85 Q7.75 17.95 12.05 16.2 16.3 14.45 22.05 13.4 L35.45 11.5 43.15 10.65 Q46.75 10.2 48.95 8.95 L49.15 8.85 49.5 8.65 Q50.85 5.65 52.65 3.9 54.4 2.2 56.05 1.4 58.55 0.15 61.35 0.0 64.1 -0.1 66.6 0.95 68.65 1.85 69.45 3.0 70.3 4.1 70.4 5.1 70.55 6.05 70.35 7.0 70.0 8.55 69.15 9.8 L67.5 11.75 66.75 12.4 65.35 13.6 64.65 14.2 61.1 17.3 Q59.55 18.9 59.1 20.8 L59.05 21.45 59.0 21.9 58.95 22.6 Q60.0 27.45 59.35 30.85 59.1 32.3 58.5 33.5 L58.3 33.85 58.85 38.3 Q59.15 41.05 58.05 43.35 L57.55 44.3 50.5 96.0 54.3 96.2 Q57.4 96.6 58.75 97.95 L57.15 103.95 54.6 112.45 51.45 121.9 48.05 130.9 44.8 137.9 Q44.4 138.5 43.45 138.15 L46.45 132.05 49.9 123.25 53.25 113.7 55.65 105.95 55.7 105.95 57.2 100.65 57.15 100.65 57.6 98.75 Q56.3 97.45 53.5 97.05 L50.4 96.8 50.1 99.1 49.75 101.4 48.25 101.35 55.65 46.6 54.95 47.2 Q52.95 48.85 50.6 49.7 48.15 50.6 45.4 50.65 L45.25 50.65 39.15 100.05 Q39.85 100.55 40.7 100.85 L38.85 100.4 37.75 99.9 37.95 98.5 35.9 99.15 35.65 102.75 35.2 108.85 34.7 115.65 34.35 121.5 34.25 124.6 Q34.6 127.4 35.1 129.55 M41.65 48.45 L47.05 48.9 Q49.9 48.55 52.35 47.1 54.8 45.7 56.2 43.45 57.6 41.25 57.3 38.45 55.55 42.5 53.0 44.4 50.4 46.3 47.5 46.65 L42.0 46.5 Q39.35 46.0 37.5 45.2 39.1 47.55 41.65 48.45" fill="#000823" fill-rule="evenodd" stroke="none"/>
      <path d="M17.6 15.9 L22.95 14.7 26.5 14.1 35.05 13.15 43.35 12.3 Q47.25 11.75 49.75 10.35 L49.8 11.7 49.9 12.55 Q51.15 7.5 53.9 4.9 56.65 2.3 59.95 1.75 63.2 1.25 66.0 2.4 67.95 3.25 68.5 4.45 69.1 5.6 68.75 6.8 68.45 8.05 67.75 9.05 L66.45 10.6 62.7 13.7 Q60.7 15.3 59.15 17.1 57.65 18.95 57.45 21.35 L56.85 20.7 Q57.75 23.75 58.0 27.0 58.25 30.25 57.05 32.8 56.4 30.65 54.6 29.05 52.8 27.5 50.5 26.6 48.2 25.65 46.05 25.55 43.9 25.4 42.5 26.2 47.3 26.1 50.5 27.5 53.75 28.85 55.35 31.2 56.9 33.5 56.75 36.25 56.6 39.0 54.55 41.6 52.4 44.25 49.95 45.15 47.5 46.1 45.15 45.95 L41.0 45.2 38.35 44.2 Q34.15 42.5 29.95 40.6 25.75 38.7 21.35 37.7 L17.3 36.95 13.15 35.95 Q11.2 35.4 10.4 34.75 8.9 33.15 9.75 31.35 10.6 29.55 13.25 28.35 15.85 27.2 19.75 27.4 23.6 27.6 28.05 30.0 26.65 28.2 24.1 27.25 21.55 26.3 18.6 26.25 15.7 26.15 13.2 27.0 10.7 27.8 9.35 29.5 8.05 31.2 8.6 33.85 4.3 33.05 2.6 31.1 0.95 29.15 2.05 26.9 3.15 24.65 7.2 23.05 11.25 21.55 14.75 20.95 L21.0 20.3 25.85 20.15 29.15 19.55 22.85 19.25 14.65 19.55 Q10.2 20.0 5.6 22.05 8.35 19.65 11.45 18.2 14.6 16.7 17.6 15.9 M41.65 48.45 Q39.1 47.55 37.5 45.2 39.35 46.0 42.0 46.5 L47.5 46.65 Q50.4 46.3 53.0 44.4 55.55 42.5 57.3 38.45 57.6 41.25 56.2 43.45 54.8 45.7 52.35 47.1 49.9 48.55 47.05 48.9 L41.65 48.45" fill="#ffffff" fill-rule="evenodd" stroke="none"/>
      <path d="M40.7 100.85 Q39.85 100.55 39.15 100.05 L45.25 50.65 45.4 50.65 Q48.15 50.6 50.6 49.7 52.95 48.85 54.95 47.2 L55.65 46.6 48.25 101.35 48.2 101.6 43.2 101.35 40.7 100.85" fill="#488fc1" fill-rule="evenodd" stroke="none"/>
      <path d="M43.45 138.15 L43.35 138.3 Q42.95 138.95 41.75 138.95 40.6 138.95 39.1 137.75 37.6 136.5 36.25 133.4 35.6 131.8 35.1 129.55 34.6 127.4 34.25 124.6 L34.35 121.5 34.7 115.65 35.2 108.85 35.65 102.75 35.9 99.15 37.95 98.5 37.75 99.9 38.85 100.4 Q37.25 100.95 35.75 101.7 L35.3 107.8 Q40.0 105.9 43.9 105.35 L50.75 105.05 Q53.65 105.3 55.65 105.95 L53.25 113.7 49.9 123.25 46.45 132.05 43.45 138.15 M50.1 99.1 L50.4 96.8 53.5 97.05 Q56.3 97.45 57.6 98.75 L57.15 100.65 Q53.7 99.4 50.1 99.1" fill="#ffbd20" fill-rule="evenodd" stroke="none"/>
      <path d="M38.85 100.4 L40.7 100.85 43.2 101.35 48.2 101.6 48.25 101.35 49.75 101.4 50.1 99.1 Q53.7 99.4 57.15 100.65 L57.2 100.65 55.7 105.95 55.65 105.95 Q53.65 105.3 50.75 105.05 L43.9 105.35 Q40.0 105.9 35.3 107.8 L35.75 101.7 Q37.25 100.95 38.85 100.4" fill="#e31e00" fill-rule="evenodd" stroke="none"/>
    </g>
    <g id="shape1" transform="matrix(1.0, 0.0, 0.0, 1.0, -0.15, 0.0)">
      <path d="M100.6 40.4 Q104.2 29.15 109.5 18.7 L111.35 14.6 Q112.4 11.85 111.2 9.2 110.2 7.1 108.4 5.75 103.15 2.05 96.65 1.35 89.75 0.45 83.2 2.55 79.65 3.8 76.2 5.2 65.25 9.7 57.4 18.15 L52.75 24.3 Q51.0 27.2 51.75 30.5 52.6 34.2 55.05 36.95 59.65 42.0 65.8 44.8 71.2 47.25 77.15 47.8 L88.9 48.3 Q93.9 48.7 98.2 50.85 L98.8 47.6 100.6 40.4 M50.05 27.45 Q50.3 25.7 51.3 24.05 54.75 18.6 60.1 13.9 65.4 9.2 72.25 5.7 79.1 2.25 87.1 0.55 L95.25 0.1 Q99.5 0.4 103.3 1.65 107.1 2.9 109.75 4.95 112.45 7.05 113.25 9.8 114.05 12.6 112.3 15.95 109.55 20.95 106.85 27.1 104.15 33.2 102.0 39.85 L101.15 42.65 Q99.65 47.8 98.85 52.8 L98.6 52.65 Q93.25 49.95 87.2 49.15 81.8 48.5 76.4 49.1 64.65 48.0 56.05 40.15 53.35 37.75 51.7 34.25 L50.0 30.2 Q49.8 28.8 50.05 27.45" fill="#000823" fill-rule="evenodd" stroke="none"/>
      <path d="M57.4 18.15 Q65.25 9.7 76.2 5.2 79.65 3.8 83.2 2.55 89.75 0.45 96.65 1.35 103.15 2.05 108.4 5.75 110.2 7.1 111.2 9.2 112.4 11.85 111.35 14.6 L109.5 18.7 Q104.2 29.15 100.6 40.4 98.15 38.65 95.2 37.5 90.8 35.65 85.8 35.4 L79.8 34.9 Q74.1 34.05 69.05 31.2 61.05 26.65 57.4 18.15 M98.8 47.6 L98.2 50.85 Q93.9 48.7 88.9 48.3 L77.15 47.8 Q71.2 47.25 65.8 44.8 59.65 42.0 55.05 36.95 52.6 34.2 51.75 30.5 51.0 27.2 52.75 24.3 55.65 33.15 63.8 37.95 69.6 41.45 76.4 42.15 88.35 42.2 98.8 47.6" fill="#ffbd20" fill-rule="evenodd" stroke="none"/>
      <path d="M100.6 40.4 L98.8 47.6 Q88.35 42.2 76.4 42.15 69.6 41.45 63.8 37.95 55.65 33.15 52.75 24.3 L57.4 18.15 Q61.05 26.65 69.05 31.2 74.1 34.05 79.8 34.9 L85.8 35.4 Q90.8 35.65 95.2 37.5 98.15 38.65 100.6 40.4" fill="#e31e00" fill-rule="evenodd" stroke="none"/>
      <path d="M101.15 42.65 Q97.8 69.05 88.05 93.9 L87.85 94.55 87.2 94.75 Q83.7 95.75 80.1 95.4 L77.6 95.0 68.0 128.2 Q65.4 137.65 61.8 146.8 57.5 157.7 51.7 167.6 47.75 174.35 42.05 179.7 L40.6 180.85 Q37.85 182.8 34.65 183.65 30.9 184.45 27.3 183.05 25.35 182.3 23.95 180.7 20.85 177.1 21.25 172.4 L21.4 170.5 19.6 172.65 Q16.7 175.8 12.5 176.2 8.0 176.15 4.75 173.15 3.05 171.5 2.0 169.35 L1.35 167.9 Q0.0 164.05 0.15 160.05 0.25 157.0 0.65 154.05 2.2 143.1 5.95 132.8 10.05 121.65 15.55 111.05 L17.3 107.7 33.45 78.1 Q30.55 76.7 28.3 74.2 26.2 71.85 25.85 68.75 L25.8 68.35 35.0 51.45 50.05 27.45 Q49.8 28.8 50.0 30.2 L44.15 39.7 Q35.3 53.9 27.3 68.6 L28.35 71.25 29.95 73.4 Q32.2 75.7 35.25 77.05 L41.25 79.1 Q48.75 81.55 56.65 80.75 L65.45 58.75 65.1 58.55 64.55 58.2 63.45 57.35 62.25 56.2 61.8 55.7 61.65 55.35 61.7 55.3 66.45 57.65 69.85 58.95 71.7 59.75 71.35 60.0 67.35 59.15 63.15 69.6 Q61.05 74.45 59.2 79.35 58.8 80.35 58.9 81.4 59.15 83.6 61.2 85.1 L66.3 88.65 Q73.05 93.1 81.15 94.05 84.05 94.2 86.8 93.3 L89.95 84.3 92.8 75.15 Q96.05 63.9 98.6 52.65 L98.85 52.8 Q99.65 47.8 101.15 42.65 M33.2 81.55 L26.8 93.1 Q18.8 107.3 12.0 122.1 7.15 132.75 3.95 143.9 2.1 150.35 1.7 157.05 1.55 159.8 1.75 162.55 1.9 164.5 2.4 166.35 3.45 170.45 6.95 173.0 9.9 175.15 13.6 174.5 L15.0 174.0 Q18.2 172.8 20.05 169.9 23.05 165.15 23.6 159.6 24.65 149.15 23.7 138.9 L22.55 124.65 22.5 121.3 Q22.55 120.0 22.95 118.85 23.65 116.7 24.65 114.65 28.4 107.35 32.5 100.15 L43.25 81.25 Q38.65 80.85 34.65 78.85 L33.2 81.55 M44.75 81.55 L35.7 97.6 Q31.6 104.85 27.7 112.25 L25.3 117.2 Q24.6 118.75 24.35 120.4 24.05 122.7 24.15 125.05 24.25 128.65 24.5 132.25 L25.55 153.4 Q25.7 158.1 24.6 162.6 27.8 158.2 31.45 154.35 37.8 147.75 44.9 141.7 L51.25 136.05 54.4 132.65 Q55.1 131.8 55.4 130.8 59.05 119.25 62.15 107.5 L66.3 90.85 64.2 89.35 Q59.7 86.55 56.95 82.1 L44.75 81.55 M76.2 94.6 L67.75 91.15 62.45 112.2 57.85 128.0 56.15 132.25 54.8 134.3 52.4 136.75 37.85 149.85 Q32.15 155.0 27.35 161.05 24.5 164.6 23.2 169.05 22.15 172.6 23.0 176.15 23.65 179.0 26.1 180.85 28.5 182.5 31.55 182.45 34.9 182.3 38.0 180.8 L41.2 178.65 Q43.35 176.85 45.05 174.65 51.6 166.35 55.85 156.75 L59.0 149.65 Q63.5 139.0 66.65 127.85 L73.05 105.6 75.65 96.85 76.2 94.6" fill="#000000" fill-rule="evenodd" stroke="none"/>
      <path d="M50.0 30.2 L51.7 34.25 Q53.35 37.75 56.05 40.15 64.65 48.0 76.4 49.1 81.8 48.5 87.2 49.15 93.25 49.95 98.6 52.65 96.05 63.9 92.8 75.15 L89.95 84.3 86.8 93.3 Q84.05 94.2 81.15 94.05 73.05 93.1 66.3 88.65 L61.2 85.1 Q59.15 83.6 58.9 81.4 58.8 80.35 59.2 79.35 61.05 74.45 63.15 69.6 L67.35 59.15 71.35 60.0 71.7 59.75 69.85 58.95 66.45 57.65 61.7 55.3 61.65 55.35 61.8 55.7 62.25 56.2 63.45 57.35 64.55 58.2 65.1 58.55 65.45 58.75 56.65 80.75 Q48.75 81.55 41.25 79.1 L35.25 77.05 Q32.2 75.7 29.95 73.4 L28.35 71.25 27.3 68.6 Q35.3 53.9 44.15 39.7 L50.0 30.2" fill="#592d85" fill-rule="evenodd" stroke="none"/>
      <path d="M33.2 81.55 L34.65 78.85 Q38.65 80.85 43.25 81.25 L32.5 100.15 Q28.4 107.35 24.65 114.65 23.65 116.7 22.95 118.85 22.55 120.0 22.5 121.3 L22.55 124.65 23.7 138.9 Q24.65 149.15 23.6 159.6 23.05 165.15 20.05 169.9 18.2 172.8 15.0 174.0 L13.6 174.5 Q9.9 175.15 6.95 173.0 3.45 170.45 2.4 166.35 1.9 164.5 1.75 162.55 1.55 159.8 1.7 157.05 2.1 150.35 3.95 143.9 7.15 132.75 12.0 122.1 18.8 107.3 26.8 93.1 L33.2 81.55 M76.2 94.6 L75.65 96.85 73.05 105.6 66.65 127.85 Q63.5 139.0 59.0 149.65 L55.85 156.75 Q51.6 166.35 45.05 174.65 43.35 176.85 41.2 178.65 L38.0 180.8 Q34.9 182.3 31.55 182.45 28.5 182.5 26.1 180.85 23.65 179.0 23.0 176.15 22.15 172.6 23.2 169.05 24.5 164.6 27.35 161.05 32.15 155.0 37.85 149.85 L52.4 136.75 54.8 134.3 56.15 132.25 57.85 128.0 62.45 112.2 67.75 91.15 76.2 94.6" fill="#488fc1" fill-rule="evenodd" stroke="none"/>
    </g>
    <g id="shape2" transform="matrix(1.0, 0.0, 0.0, 1.0, 0.0, 0.0)">
      <path d="M6.15 57.25 L6.25 57.1 Q7.95 54.6 9.75 53.45 10.3 53.1 12.65 52.25 L18.35 50.25 25.1 48.0 31.05 46.0 34.6 44.85 Q36.05 46.3 38.0 49.1 L38.4 49.65 84.3 35.55 Q84.65 33.2 85.9 31.2 87.2 29.05 89.7 27.8 L93.75 25.9 93.95 25.6 Q94.65 24.45 95.7 23.4 98.25 21.05 102.9 19.35 L103.5 18.95 103.85 18.7 104.35 18.25 Q105.75 16.85 106.25 14.7 L106.95 10.05 107.1 9.1 107.35 7.35 107.5 6.35 Q107.65 5.25 108.25 3.9 108.85 2.5 110.0 1.35 110.7 0.7 111.55 0.3 L113.85 0.0 Q115.25 0.05 117.1 1.3 119.35 2.85 120.75 5.25 122.1 7.65 122.4 10.45 122.6 12.3 122.1 14.7 121.55 17.1 119.75 19.85 L119.8 20.25 119.8 20.5 Q119.95 23.05 121.45 26.3 L124.85 33.3 Q128.25 40.2 130.4 45.6 132.6 51.05 133.4 55.6 134.2 60.15 133.5 64.4 L133.3 65.1 132.75 66.5 132.0 67.45 Q131.7 70.25 130.15 71.8 L128.9 72.65 Q126.75 73.7 124.2 72.7 121.65 71.75 119.15 68.95 L119.0 68.8 118.75 68.45 118.2 68.4 Q116.75 67.95 114.65 66.0 L110.05 61.3 109.55 60.8 109.1 60.3 Q107.05 58.25 104.6 56.45 L99.65 53.0 98.8 52.45 97.05 51.25 95.25 51.2 Q92.3 51.1 90.1 49.6 L88.1 47.95 44.1 60.7 44.4 61.65 Q45.3 64.65 44.6 66.45 L38.4 67.35 29.6 68.35 19.65 69.15 10.1 69.55 2.35 69.35 Q1.65 69.2 1.65 68.25 L8.4 68.55 17.85 68.3 28.0 67.6 35.75 66.8 37.05 66.65 37.15 66.65 38.95 66.4 39.35 66.35 43.4 65.7 39.95 60.35 87.0 46.65 86.45 45.8 Q85.05 43.5 84.5 40.9 84.1 39.1 84.15 37.25 L35.8 51.95 35.15 49.9 Q34.6 47.55 34.5 45.95 L32.1 46.8 32.1 46.75 26.85 48.55 26.85 48.6 25.35 49.1 18.85 51.35 13.35 53.3 Q11.05 54.15 10.5 54.45 8.0 55.9 6.15 57.25 M109.05 6.6 Q108.65 8.9 108.4 11.45 108.2 14.0 107.45 16.25 106.7 18.5 104.75 20.0 L105.65 20.1 Q103.65 20.7 101.65 21.55 99.65 22.45 97.95 23.65 96.3 24.85 95.35 26.4 L99.8 26.5 Q102.1 27.15 104.1 28.6 106.05 30.05 107.35 31.8 108.6 33.6 108.7 35.15 106.2 31.1 103.3 29.1 100.4 27.1 97.6 27.0 94.8 26.9 92.55 28.5 90.35 30.1 89.2 33.2 88.15 36.45 88.65 39.0 89.2 41.6 90.6 43.5 92.0 45.4 93.45 46.6 L95.7 48.35 103.2 53.5 Q107.05 56.0 110.25 59.2 L113.05 62.2 116.15 65.2 Q117.65 66.55 118.65 66.85 120.8 67.3 121.85 65.6 122.9 63.95 122.5 61.05 122.1 58.2 119.85 55.05 117.6 51.9 113.2 49.4 115.5 49.65 117.65 51.3 119.8 52.95 121.4 55.35 123.05 57.8 123.7 60.35 124.35 62.9 123.6 64.95 122.9 67.0 120.35 67.9 123.3 71.15 125.85 71.5 128.4 71.9 129.7 69.75 131.0 67.6 130.2 63.3 129.0 57.65 127.05 53.75 125.1 49.85 123.4 47.25 121.75 44.65 121.45 42.9 L125.05 48.1 Q127.25 51.15 129.2 55.15 131.15 59.15 131.9 64.1 132.45 60.5 132.05 57.1 131.65 53.7 130.7 50.7 L128.85 45.55 127.45 42.2 Q125.8 38.35 123.65 34.5 121.55 30.6 119.95 27.0 118.35 23.45 118.2 20.55 L117.05 21.25 116.25 21.65 Q119.85 17.85 120.55 14.15 121.3 10.45 120.0 7.4 118.7 4.35 116.2 2.6 114.45 1.4 113.15 1.55 111.85 1.7 111.0 2.6 110.15 3.5 109.65 4.65 L109.05 6.6 M86.75 32.9 Q85.65 35.3 85.75 38.1 85.85 40.95 87.05 43.55 88.25 46.15 90.35 47.85 92.45 49.55 95.3 49.65 93.65 48.5 91.8 46.55 89.95 44.6 88.7 41.95 87.5 39.3 87.7 36.1 87.9 32.9 90.4 29.3 87.9 30.55 86.75 32.9" fill="#000823" fill-rule="evenodd" stroke="none"/>
      <path d="M86.75 32.9 Q87.9 30.55 90.4 29.3 87.9 32.9 87.7 36.1 87.5 39.3 88.7 41.95 89.95 44.6 91.8 46.55 93.65 48.5 95.3 49.65 92.45 49.55 90.35 47.85 88.25 46.15 87.05 43.55 85.85 40.95 85.75 38.1 85.65 35.3 86.75 32.9 M109.05 6.6 L109.65 4.65 Q110.15 3.5 111.0 2.6 111.85 1.7 113.15 1.55 114.45 1.4 116.2 2.6 118.7 4.35 120.0 7.4 121.3 10.45 120.55 14.15 119.85 17.85 116.25 21.65 L117.05 21.25 118.2 20.55 Q118.35 23.45 119.95 27.0 121.55 30.6 123.65 34.5 125.8 38.35 127.45 42.2 L128.85 45.55 130.7 50.7 Q131.65 53.7 132.05 57.1 132.45 60.5 131.9 64.1 131.15 59.15 129.2 55.15 127.25 51.15 125.05 48.1 L121.45 42.9 Q121.75 44.65 123.4 47.25 125.1 49.85 127.05 53.75 129.0 57.65 130.2 63.3 131.0 67.6 129.7 69.75 128.4 71.9 125.85 71.5 123.3 71.15 120.35 67.9 122.9 67.0 123.6 64.95 124.35 62.9 123.7 60.35 123.05 57.8 121.4 55.35 119.8 52.95 117.65 51.3 115.5 49.65 113.2 49.4 117.6 51.9 119.85 55.05 122.1 58.2 122.5 61.05 122.9 63.95 121.85 65.6 120.8 67.3 118.65 66.85 117.65 66.55 116.15 65.2 L113.05 62.2 110.25 59.2 Q107.05 56.0 103.2 53.5 L95.7 48.35 93.45 46.6 Q92.0 45.4 90.6 43.5 89.2 41.6 88.65 39.0 88.15 36.45 89.2 33.2 90.35 30.1 92.55 28.5 94.8 26.9 97.6 27.0 100.4 27.1 103.3 29.1 106.2 31.1 108.7 35.15 108.6 33.6 107.35 31.8 106.05 30.05 104.1 28.6 102.1 27.15 99.8 26.5 L95.35 26.4 Q96.3 24.85 97.95 23.65 99.65 22.45 101.65 21.55 103.65 20.7 105.65 20.1 L104.75 20.0 Q106.7 18.5 107.45 16.25 108.2 14.0 108.4 11.45 108.65 8.9 109.05 6.6" fill="#ffffff" fill-rule="evenodd" stroke="none"/>
      <path d="M35.8 51.95 L84.15 37.25 Q84.1 39.1 84.5 40.9 85.05 43.5 86.45 45.8 L87.0 46.65 39.95 60.35 37.55 56.05 Q36.4 53.7 35.8 51.95" fill="#488fc1" fill-rule="evenodd" stroke="none"/>
      <path d="M6.15 57.25 Q8.0 55.9 10.5 54.45 11.05 54.15 13.35 53.3 L18.85 51.35 25.35 49.1 26.85 48.6 Q26.3 52.75 27.05 55.9 27.8 59.1 29.25 61.35 30.7 63.6 32.2 64.95 L34.65 66.9 35.75 66.8 28.0 67.6 17.85 68.3 8.4 68.55 1.65 68.25 1.45 68.2 Q0.7 68.1 0.25 67.0 -0.25 65.9 0.3 64.05 0.85 62.2 3.2 59.75 L6.15 57.25 M32.1 46.8 L34.5 45.95 Q34.6 47.55 35.15 49.9 L35.8 51.95 Q36.4 53.7 37.55 56.05 L39.95 60.35 43.4 65.7 39.35 66.35 Q35.3 61.35 33.35 56.5 31.4 51.6 32.1 46.8" fill="#ffbd20" fill-rule="evenodd" stroke="none"/>
      <path d="M26.85 48.6 L26.85 48.55 32.1 46.75 32.1 46.8 Q31.4 51.6 33.35 56.5 35.3 61.35 39.35 66.35 L38.95 66.4 37.15 66.65 37.05 66.65 35.75 66.8 34.65 66.9 32.2 64.95 Q30.7 63.6 29.25 61.35 27.8 59.1 27.05 55.9 26.3 52.75 26.85 48.6" fill="#e31e00" fill-rule="evenodd" stroke="none"/>
    </g>
    <g id="shape3" transform="matrix(1.0, 0.0, 0.0, 1.0, 0.0, 0.0)">
      <path d="M88.45 35.05 Q86.8 35.2 85.35 36.85 87.75 35.5 89.3 36.05 90.85 36.6 91.05 38.25 91.25 39.95 89.55 42.1 91.85 40.25 92.05 38.6 92.3 36.95 91.2 35.95 90.1 34.95 88.45 35.05 M88.45 17.85 Q91.25 20.7 93.1 23.5 94.95 26.3 95.5 28.85 96.05 31.45 94.9 33.55 93.55 32.4 93.3 32.45 93.1 32.5 94.35 34.45 97.8 39.8 97.2 45.15 96.6 50.5 91.2 56.5 85.85 62.55 75.0 69.85 L73.8 68.9 Q72.7 68.0 70.75 67.05 68.85 66.05 66.45 65.75 L63.85 61.3 60.45 56.25 Q58.4 53.55 55.25 50.3 52.05 47.05 49.4 44.95 L44.4 41.4 40.05 38.75 Q39.8 36.3 38.85 34.4 L37.05 31.3 36.1 30.1 Q43.65 19.4 49.8 14.2 55.95 8.95 61.3 8.45 66.7 8.0 71.95 11.55 73.9 12.85 73.95 12.6 74.0 12.35 72.85 11.0 75.0 9.95 77.55 10.55 80.1 11.15 82.9 13.05 85.65 15.0 88.45 17.85 M67.7 13.75 Q66.05 13.9 64.15 16.15 66.35 14.5 68.0 14.75 69.7 14.95 70.2 16.55 70.7 18.1 69.3 20.5 71.0 19.05 71.15 17.4 71.3 15.75 70.35 14.65 69.35 13.55 67.7 13.75" fill="#488fc1" fill-rule="evenodd" stroke="none"/>
      <path d="M94.35 23.05 Q96.35 26.35 96.85 29.45 97.35 32.6 95.75 34.95 98.5 39.5 98.85 43.55 99.15 47.2 97.3 50.9 101.75 53.1 103.65 55.35 105.65 57.75 105.25 60.4 104.9 63.0 102.7 66.05 100.5 69.1 97.1 72.8 L89.65 80.95 86.6 84.5 Q85.3 86.2 84.6 88.2 83.9 90.25 83.95 93.15 84.0 96.0 84.95 100.35 85.65 103.8 84.45 105.15 83.25 106.45 81.1 106.0 79.0 105.5 76.8 103.4 74.65 101.35 73.35 98.0 72.05 94.6 72.55 90.2 73.25 85.7 76.55 81.25 79.85 76.8 84.85 72.35 89.85 67.9 95.6 63.4 98.25 61.25 98.4 59.9 98.6 58.5 97.1 57.4 L94.25 55.45 Q92.25 57.8 89.35 60.35 84.1 65.0 75.65 70.65 77.45 73.1 77.15 75.85 76.85 78.6 74.75 80.9 72.6 83.25 68.85 84.3 L62.2 84.8 Q61.25 85.55 60.0 85.95 L56.65 86.1 Q55.05 85.7 54.0 84.2 L52.65 82.25 Q49.55 80.85 45.8 78.25 41.35 75.2 35.9 69.65 30.3 64.0 26.55 57.95 24.55 54.7 23.15 51.15 L22.2 49.8 Q20.05 46.1 20.3 44.05 20.4 43.15 20.8 42.55 20.35 38.85 21.25 35.95 22.35 32.25 24.8 30.15 27.2 28.05 30.05 27.8 32.9 27.55 35.3 29.45 41.2 21.1 45.9 15.95 48.55 13.1 51.0 11.15 L49.05 8.25 Q47.95 6.75 46.6 6.9 45.2 7.05 43.0 9.65 L33.8 20.2 Q29.25 25.1 24.75 28.3 20.2 31.5 15.7 32.05 11.3 32.45 7.95 31.1 4.6 29.75 2.55 27.5 0.55 25.3 0.1 23.15 -0.35 21.0 1.05 19.85 2.4 18.7 5.85 19.45 10.15 20.5 13.05 20.65 15.9 20.75 17.95 20.1 20.0 19.45 21.7 18.15 L25.35 15.2 33.65 7.95 Q37.4 4.6 40.5 2.5 43.6 0.35 46.25 0.05 48.9 -0.3 51.25 1.75 53.45 3.65 55.55 8.2 59.3 6.4 62.95 6.8 67.0 7.25 71.5 10.15 73.9 8.6 77.0 9.15 80.1 9.75 83.35 11.8 86.6 13.85 89.5 16.8 92.35 19.75 94.35 23.05 M88.45 17.85 Q85.65 15.0 82.9 13.05 80.1 11.15 77.55 10.55 75.0 9.95 72.85 11.0 74.0 12.35 73.95 12.6 73.9 12.85 71.95 11.55 66.7 8.0 61.3 8.45 55.95 8.95 49.8 14.2 43.65 19.4 36.1 30.1 L37.05 31.3 38.85 34.4 Q39.8 36.3 40.05 38.75 L44.4 41.4 49.4 44.95 Q52.05 47.05 55.25 50.3 58.4 53.55 60.45 56.25 L63.85 61.3 66.45 65.75 Q68.85 66.05 70.75 67.05 72.7 68.0 73.8 68.9 L75.0 69.85 Q85.85 62.55 91.2 56.5 96.6 50.5 97.2 45.15 97.8 39.8 94.35 34.45 93.1 32.5 93.3 32.45 93.55 32.4 94.9 33.55 96.05 31.45 95.5 28.85 94.95 26.3 93.1 23.5 91.25 20.7 88.45 17.85 M88.45 35.05 Q90.1 34.95 91.2 35.95 92.3 36.95 92.05 38.6 91.85 40.25 89.55 42.1 91.25 39.95 91.05 38.25 90.85 36.6 89.3 36.05 87.75 35.5 85.35 36.85 86.8 35.2 88.45 35.05 M103.2 57.15 Q102.2 55.4 99.5 53.75 97.5 52.7 97.2 53.35 96.9 54.05 98.95 55.45 101.15 56.9 101.8 59.15 102.45 61.4 100.75 63.55 99.05 65.65 99.45 66.05 99.85 66.45 101.45 65.25 L103.05 63.4 Q103.8 62.15 104.0 60.5 104.2 58.9 103.2 57.15 M91.5 71.45 Q93.6 69.8 93.3 69.05 93.05 68.3 91.3 69.45 84.1 74.85 80.5 79.95 76.9 85.0 76.1 89.4 75.25 93.85 76.5 97.4 77.75 100.9 80.3 103.3 81.65 104.55 82.6 104.3 83.55 104.1 83.9 103.1 84.3 102.15 84.05 101.15 L83.15 97.9 82.7 95.2 Q82.55 93.8 82.55 91.75 L82.25 90.25 81.5 89.15 Q81.1 88.5 80.75 86.85 80.5 85.05 81.75 82.65 83.05 80.3 85.05 77.9 L88.85 73.8 91.5 71.45 M67.7 13.75 Q69.35 13.55 70.35 14.65 71.3 15.75 71.15 17.4 71.0 19.05 69.3 20.5 70.7 18.1 70.2 16.55 69.7 14.95 68.0 14.75 66.35 14.5 64.15 16.15 66.05 13.9 67.7 13.75 M53.05 8.25 Q53.75 7.95 52.7 5.9 51.15 3.15 49.4 2.15 47.65 1.1 46.05 1.25 44.4 1.4 43.15 2.15 L41.25 3.7 Q40.0 5.3 40.4 5.7 40.8 6.1 42.95 4.45 45.15 2.8 47.35 3.5 49.6 4.15 50.95 6.4 52.35 8.5 53.05 8.25 M37.25 11.8 Q36.5 11.45 34.85 13.55 L32.45 16.15 28.2 19.85 Q25.8 21.8 23.4 23.0 21.0 24.25 19.2 23.95 17.55 23.6 16.9 23.15 L15.85 22.4 Q15.4 22.05 14.35 22.05 L10.9 21.8 8.2 21.3 5.0 20.35 3.0 20.4 Q2.05 20.75 1.8 21.7 1.55 22.65 2.75 24.05 5.05 26.65 8.6 27.95 12.1 29.25 16.5 28.55 20.95 27.85 26.1 24.35 31.25 20.85 36.85 13.8 38.05 12.1 37.25 11.8 M31.4 28.9 Q29.15 28.6 26.7 30.1 24.4 31.6 23.3 33.45 22.2 35.25 21.95 37.45 21.8 39.35 21.95 41.55 L22.35 41.35 Q24.15 40.7 26.65 41.3 29.7 42.05 31.55 43.9 33.4 45.7 34.8 48.3 L37.65 54.05 Q39.2 57.15 41.5 60.45 43.9 63.7 46.85 66.2 49.8 68.7 52.85 70.65 L58.35 74.35 Q60.9 76.05 62.4 77.75 64.05 79.7 64.0 81.35 63.95 82.7 63.25 83.75 67.8 83.9 70.45 82.65 73.4 81.35 74.75 79.25 76.35 76.85 76.15 74.65 75.9 72.4 74.35 70.7 72.85 68.95 70.6 67.95 68.3 67.0 65.9 67.05 64.15 63.55 61.4 59.6 58.7 55.6 54.35 51.1 50.0 46.7 46.05 43.9 42.15 41.1 38.7 39.25 38.85 36.85 37.9 34.55 37.0 32.3 35.3 30.75 33.6 29.2 31.4 28.9 M27.05 55.3 L25.8 54.1 Q28.45 59.15 32.35 63.95 36.7 69.25 41.9 73.55 46.4 77.35 51.0 79.9 47.25 74.75 43.7 70.9 38.7 65.45 34.45 61.8 L27.05 55.3 M36.65 62.9 L41.8 67.9 47.05 73.6 Q49.5 76.45 50.9 78.65 52.55 79.5 52.25 78.1 51.9 76.7 50.1 74.0 48.3 71.35 45.5 68.35 42.7 65.35 39.4 63.0 36.15 60.65 32.9 59.9 34.25 60.75 36.65 62.9" fill="#000823" fill-rule="evenodd" stroke="none"/>
      <path d="M103.2 57.15 Q104.2 58.9 104.0 60.5 103.8 62.15 103.05 63.4 L101.45 65.25 Q99.85 66.45 99.45 66.05 99.05 65.65 100.75 63.55 102.45 61.4 101.8 59.15 101.15 56.9 98.95 55.45 96.9 54.05 97.2 53.35 97.5 52.7 99.5 53.75 102.2 55.4 103.2 57.15 M91.5 71.45 L88.85 73.8 85.05 77.9 Q83.05 80.3 81.75 82.65 80.5 85.05 80.75 86.85 81.1 88.5 81.5 89.15 L82.25 90.25 82.55 91.75 Q82.55 93.8 82.7 95.2 L83.15 97.9 84.05 101.15 Q84.3 102.15 83.9 103.1 83.55 104.1 82.6 104.3 81.65 104.55 80.3 103.3 77.75 100.9 76.5 97.4 75.25 93.85 76.1 89.4 76.9 85.0 80.5 79.95 84.1 74.85 91.3 69.45 93.05 68.3 93.3 69.05 93.6 69.8 91.5 71.45 M53.05 8.25 Q52.35 8.5 50.95 6.4 49.6 4.15 47.35 3.5 45.15 2.8 42.95 4.45 40.8 6.1 40.4 5.7 40.0 5.3 41.25 3.7 L43.15 2.15 Q44.4 1.4 46.05 1.25 47.65 1.1 49.4 2.15 51.15 3.15 52.7 5.9 53.75 7.95 53.05 8.25 M37.25 11.8 Q38.05 12.1 36.85 13.8 31.25 20.85 26.1 24.35 20.95 27.85 16.5 28.55 12.1 29.25 8.6 27.95 5.05 26.65 2.75 24.05 1.55 22.65 1.8 21.7 2.05 20.75 3.0 20.4 L5.0 20.35 8.2 21.3 10.9 21.8 14.35 22.05 Q15.4 22.05 15.85 22.4 L16.9 23.15 Q17.55 23.6 19.2 23.95 21.0 24.25 23.4 23.0 25.8 21.8 28.2 19.85 L32.45 16.15 34.85 13.55 Q36.5 11.45 37.25 11.8" fill="#032853" fill-rule="evenodd" stroke="none"/>
      <path d="M27.05 55.3 L34.45 61.8 Q38.7 65.45 43.7 70.9 47.25 74.75 51.0 79.9 46.4 77.35 41.9 73.55 36.7 69.25 32.35 63.95 28.45 59.15 25.8 54.1 L27.05 55.3 M31.4 28.9 Q33.6 29.2 35.3 30.75 37.0 32.3 37.9 34.55 38.85 36.85 38.7 39.25 42.15 41.1 46.05 43.9 50.0 46.7 54.35 51.1 58.7 55.6 61.4 59.6 64.15 63.55 65.9 67.05 68.3 67.0 70.6 67.95 72.85 68.95 74.35 70.7 75.9 72.4 76.15 74.65 76.35 76.85 74.75 79.25 73.4 81.35 70.45 82.65 67.8 83.9 63.25 83.75 63.95 82.7 64.0 81.35 64.05 79.7 62.4 77.75 60.9 76.05 58.35 74.35 L52.85 70.65 Q49.8 68.7 46.85 66.2 43.9 63.7 41.5 60.45 39.2 57.15 37.65 54.05 L34.8 48.3 Q33.4 45.7 31.55 43.9 29.7 42.05 26.65 41.3 24.15 40.7 22.35 41.35 L21.95 41.55 Q21.8 39.35 21.95 37.45 22.2 35.25 23.3 33.45 24.4 31.6 26.7 30.1 29.15 28.6 31.4 28.9" fill="#f9de65" fill-rule="evenodd" stroke="none"/>
      <path d="M36.65 62.9 Q34.25 60.75 32.9 59.9 36.15 60.65 39.4 63.0 42.7 65.35 45.5 68.35 48.3 71.35 50.1 74.0 51.9 76.7 52.25 78.1 52.55 79.5 50.9 78.65 49.5 76.45 47.05 73.6 L41.8 67.9 36.65 62.9" fill="#fa5961" fill-rule="evenodd" stroke="none"/>
    </g>
    <g id="shape4" transform="matrix(1.0, 0.0, 0.0, 1.0, 0.0, 0.0)">
      <path d="M21.75 21.9 Q18.9 24.6 15.5 25.65 L8.85 26.05 Q5.55 25.4 3.15 23.0 0.8 20.5 0.2 17.25 -0.4 13.95 0.75 10.55 1.85 7.2 4.65 4.4 7.5 1.7 10.9 0.65 14.3 -0.4 17.55 0.25 20.85 0.9 23.25 3.3 25.6 5.8 26.2 9.05 26.8 12.35 25.65 15.75 24.55 19.1 21.75 21.9" fill="#000823" fill-rule="evenodd" stroke="none"/>
      <path d="M24.5 15.45 Q23.5 18.55 20.95 21.05 18.4 23.5 15.3 24.45 L9.25 24.8 Q6.3 24.25 4.1 22.05 1.95 19.8 1.45 16.85 0.9 13.85 1.9 10.8 2.95 7.7 5.45 5.2 8.05 2.75 11.1 1.8 L17.2 1.45 Q20.15 2.05 22.35 4.2 24.5 6.45 25.0 9.45 25.55 12.4 24.5 15.45" fill="#ffffff" fill-rule="evenodd" stroke="none"/>
      <path d="M19.05 13.85 Q18.25 15.6 16.7 17.15 15.1 18.7 13.35 19.45 11.6 20.2 10.0 20.1 8.4 20.0 7.35 18.95 6.3 17.85 6.2 16.3 6.1 14.7 6.9 12.9 7.65 11.15 9.2 9.6 10.8 8.05 12.55 7.3 14.35 6.55 15.95 6.65 17.55 6.75 18.6 7.8 19.6 8.9 19.7 10.5 19.8 12.1 19.05 13.85" fill="#0b4f7d" fill-rule="evenodd" stroke="none"/>
      <path d="M7.9 14.1 Q8.35 12.0 10.2 10.1 12.15 8.25 14.25 7.85 16.35 7.45 17.65 8.7 18.9 10.0 18.45 12.1 18.0 14.2 16.15 16.1 14.2 17.95 12.1 18.35 10.0 18.75 8.7 17.55 7.5 16.2 7.9 14.1" fill="#ffffff" fill-rule="evenodd" stroke="none"/>
      <path d="M11.2 13.9 Q11.35 13.1 12.05 12.4 12.8 11.7 13.6 11.55 14.4 11.4 14.9 11.85 15.35 12.35 15.2 13.15 L14.3 14.65 Q13.6 15.35 12.8 15.5 12.0 15.65 11.5 15.2 11.05 14.7 11.2 13.9" fill="#000823" fill-rule="evenodd" stroke="none"/>
    </g>
    <g id="shape5" transform="matrix(1.0, 0.0, 0.0, 1.0, 0.0, 0.0)">
      <path d="M12.75 6.55 Q13.1 8.0 12.5 9.0 11.9 10.0 10.6 10.0 9.3 10.05 7.6 8.6 5.95 7.05 5.55 5.55 5.15 4.05 5.8 3.1 6.4 2.1 7.75 2.15 9.1 2.2 10.9 3.7 12.4 5.1 12.75 6.55" fill="#032853" fill-rule="evenodd" stroke="none"/>
      <path d="M15.2 9.1 Q15.85 12.1 14.6 14.15 13.4 16.2 10.75 16.3 8.1 16.35 4.55 13.35 1.1 10.2 0.3 7.1 -0.5 4.0 0.8 1.95 2.1 -0.05 4.9 0.0 7.7 0.1 11.4 3.25 14.5 6.1 15.2 9.1 M12.75 6.55 Q12.4 5.1 10.9 3.7 9.1 2.2 7.75 2.15 6.4 2.1 5.8 3.1 5.15 4.05 5.55 5.55 5.95 7.05 7.6 8.6 9.3 10.05 10.6 10.0 11.9 10.0 12.5 9.0 13.1 8.0 12.75 6.55" fill="#000823" fill-rule="evenodd" stroke="none"/>
    </g>
    <g id="shape6" transform="matrix(1.0, 0.0, 0.0, 1.0, 0.0, 0.0)">
      <path d="M9.0 9.35 Q6.6 11.05 4.25 11.15 1.9 11.25 0.65 9.7 -0.45 8.05 0.35 5.8 1.15 3.6 3.45 1.8 5.85 0.1 8.25 0.0 10.6 -0.1 11.8 1.45 12.95 3.1 12.15 5.3 11.35 7.55 9.0 9.35" fill="#0b4f7d" fill-rule="evenodd" stroke="none"/>
      <path d="M8.3 8.25 Q6.4 9.6 4.55 9.65 2.65 9.75 1.65 8.5 0.75 7.2 1.4 5.45 2.05 3.65 3.9 2.25 5.85 0.9 7.7 0.8 9.6 0.7 10.55 1.95 11.45 3.25 10.8 5.05 10.2 6.8 8.3 8.25" fill="#ffffff" fill-rule="evenodd" stroke="none"/>
      <path d="M6.75 6.85 Q5.9 7.45 5.05 7.5 4.2 7.5 3.75 6.95 3.35 6.35 3.65 5.55 3.95 4.8 4.8 4.15 5.65 3.55 6.5 3.5 7.35 3.45 7.8 4.0 8.2 4.6 7.9 5.4 7.6 6.2 6.75 6.85 Z" fill="none" stroke="#000823" stroke-linecap="round" stroke-linejoin="round" stroke-width="0.5"/>
    </g>
  </defs>
</svg>
