<?xml version="1.0" encoding="UTF-8" standalone="no"?>
<svg xmlns:xlink="http://www.w3.org/1999/xlink" height="409.3px" width="304.15px" xmlns="http://www.w3.org/2000/svg">
  <g transform="matrix(1.0, 0.0, 0.0, 1.0, 89.85, 223.9)">
    <use height="144.0" transform="matrix(0.8, 0.0, 0.0, 0.8, -78.4, -72.02)" width="212.45" xlink:href="#shape0"/>
  </g>
  <defs>
    <g id="shape0" transform="matrix(1.0, 0.0, 0.0, 1.0, -0.25, -0.1)">
      <path d="M208.2 69.85 Q212.9 59.6 208.8 49.15 207.75 46.55 206.2 44.25 199.15 33.75 186.85 33.25 183.55 33.15 180.8 34.25 L180.05 34.6 Q177.95 35.6 176.3 37.1 174.7 38.65 173.9 40.7 169.3 51.95 165.65 63.55 L158.05 63.85 Q160.05 70.7 159.6 77.7 166.15 79.05 172.15 76.3 173.25 75.8 173.95 74.9 175.65 72.6 175.85 69.45 176.45 60.85 181.15 53.7 L182.45 53.6 Q183.75 54.8 184.0 56.55 184.8 62.4 187.55 67.75 190.75 74.1 196.95 76.0 L198.45 76.45 199.05 76.25 Q201.55 76.3 203.75 75.25 L204.6 74.8 206.2 73.65 205.8 74.15 207.1 73.35 Q207.7 72.1 207.7 71.15 L208.2 69.85 M91.15 23.45 L98.8 36.1 Q108.4 41.0 118.05 44.9 119.45 45.5 121.0 45.45 L127.15 46.1 Q129.8 46.45 132.25 47.5 132.75 47.7 133.1 48.15 136.55 53.0 133.3 57.95 L137.1 62.2 Q141.35 56.75 147.8 54.95 149.55 54.5 151.05 55.0 156.5 57.25 157.75 62.95 L161.45 63.15 Q163.25 63.1 164.75 62.1 167.4 52.7 170.95 43.7 171.9 41.25 173.35 39.1 178.75 31.1 188.55 31.75 195.15 32.55 200.6 36.2 211.65 43.45 212.6 56.85 213.25 65.65 208.45 72.95 207.5 74.4 206.2 75.2 198.8 80.05 191.2 75.55 L189.55 73.9 Q183.95 65.4 182.6 55.25 180.35 57.3 179.5 60.3 177.3 68.0 176.25 75.85 168.5 80.55 159.45 79.0 158.95 84.3 156.2 88.75 155.3 90.25 154.0 91.35 147.15 96.95 138.4 97.35 L141.65 100.15 Q145.45 103.3 145.95 107.8 139.45 112.35 131.45 113.15 135.9 117.35 139.75 122.25 L145.65 129.45 Q148.85 133.15 148.45 137.8 L146.05 138.65 Q137.1 141.25 127.7 142.5 L111.7 143.8 Q102.7 144.8 94.65 142.2 92.65 133.55 98.95 127.15 100.15 126.0 101.6 125.15 112.95 118.6 125.15 123.4 L117.85 115.15 109.6 115.6 Q106.5 110.25 100.8 107.8 L97.05 105.75 Q87.65 99.75 87.75 88.45 83.6 88.85 79.7 87.25 L73.7 76.1 Q72.15 77.2 70.5 77.65 68.95 77.85 67.7 77.1 62.5 83.85 57.55 90.9 56.3 92.7 53.9 93.35 53.7 95.1 52.75 96.55 51.15 99.0 48.35 99.7 L47.05 99.1 Q43.0 101.8 41.5 105.7 42.95 106.05 44.25 106.8 45.35 107.4 45.4 108.9 45.5 111.65 43.5 113.7 40.85 116.35 37.35 116.35 34.9 116.05 34.4 113.55 L34.15 115.95 35.9 117.85 Q37.3 119.45 37.0 121.45 36.35 125.9 32.0 127.15 29.8 126.55 27.75 125.25 24.05 122.9 24.25 118.75 22.6 124.15 18.85 128.4 L17.65 129.55 Q15.3 131.3 12.45 130.5 9.05 129.65 8.3 126.05 7.8 123.45 9.45 121.4 L12.6 117.45 Q17.5 111.75 21.0 104.95 27.65 91.8 41.5 86.7 42.3 84.7 43.9 83.45 45.65 82.15 47.95 82.7 L55.2 73.6 48.15 71.85 Q44.6 70.9 42.15 68.0 38.95 64.2 39.3 59.0 39.95 55.35 42.45 52.55 L45.4 55.3 48.6 57.15 53.45 55.1 55.4 51.05 Q57.4 48.1 60.8 47.15 L62.0 46.95 Q64.5 40.3 70.4 36.95 72.55 35.8 75.0 35.25 85.2 32.6 95.35 35.05 L97.6 35.7 Q92.7 28.5 88.9 20.45 L89.35 20.0 91.15 23.45 M130.4 55.5 L132.05 56.8 Q134.25 53.35 132.05 50.25 131.35 49.3 130.35 48.95 126.05 47.9 121.6 48.1 L119.05 47.4 Q114.95 46.45 111.55 44.3 97.0 33.95 79.45 35.7 L76.0 36.25 88.9 41.85 89.05 45.95 97.8 49.25 98.4 49.5 Q102.6 51.05 106.3 53.8 L108.15 57.4 Q109.4 60.2 107.75 62.8 106.95 64.0 105.9 64.4 97.6 67.2 88.75 69.1 L88.3 69.8 Q86.75 71.7 84.45 72.85 L83.45 73.1 Q81.05 73.2 78.9 72.15 L77.15 72.45 76.7 72.65 74.95 75.1 76.45 77.65 80.0 84.1 81.0 86.0 Q84.15 87.25 87.85 87.2 L87.9 86.35 Q88.3 83.1 89.6 80.0 90.3 78.3 91.55 77.2 108.1 62.7 128.25 54.05 L130.4 55.5 M82.15 40.1 L80.8 39.5 80.0 39.1 Q75.5 36.7 70.9 38.85 68.05 40.2 67.4 43.65 L67.05 41.35 63.45 47.1 71.85 49.7 72.1 49.25 73.55 50.15 76.15 52.2 77.15 52.9 79.65 53.95 82.15 55.2 83.95 56.0 84.7 55.05 82.9 54.3 82.95 53.45 92.65 57.6 100.7 57.3 88.25 58.85 88.9 60.05 Q89.75 61.6 90.0 63.35 90.3 65.65 89.4 67.9 98.2 66.55 105.9 62.7 106.55 62.35 106.85 61.6 108.8 57.1 104.55 54.35 95.65 48.7 85.5 45.65 L85.45 45.65 85.45 45.7 85.7 44.85 87.95 45.6 87.75 44.65 Q87.75 43.15 86.7 42.1 85.6 41.0 84.05 41.0 L82.15 40.1 M87.95 56.45 L85.1 55.25 84.25 56.25 86.85 57.5 87.75 58.25 90.1 58.0 90.95 57.65 87.95 56.45 M83.15 56.65 Q86.9 59.7 86.0 64.45 84.9 70.05 79.55 71.7 85.45 73.55 88.15 67.95 90.6 62.7 86.35 58.35 L83.15 56.65 M81.95 56.45 L71.5 52.0 74.1 52.15 Q67.9 48.7 61.05 48.55 59.75 49.1 58.75 50.0 53.25 54.45 53.45 61.7 53.55 64.45 55.3 66.2 56.1 61.45 58.45 57.2 57.65 59.9 57.1 62.7 56.2 67.0 58.05 70.8 59.7 74.1 63.45 74.2 61.65 69.0 64.95 64.55 63.55 68.4 64.8 72.25 65.85 75.55 69.15 76.2 74.05 76.75 75.75 72.25 L74.95 72.0 Q72.95 73.55 70.5 72.8 73.95 72.55 76.25 70.0 L75.5 71.4 Q82.1 71.4 84.65 65.35 87.05 59.65 81.95 56.45 M153.5 89.75 Q155.7 85.8 156.9 81.45 158.05 77.25 157.55 73.05 156.95 67.6 155.65 62.3 154.6 57.8 150.25 56.2 141.75 58.35 136.7 65.5 133.5 59.55 128.0 55.45 107.55 64.3 91.15 79.2 89.4 84.85 89.7 90.75 89.95 96.0 93.3 99.9 94.6 101.5 96.35 102.55 L103.5 107.3 Q107.6 110.3 110.7 114.0 L112.8 112.7 116.25 110.3 Q118.65 108.7 121.35 107.8 132.0 104.1 143.15 105.25 139.3 100.0 134.55 95.55 126.25 87.7 115.0 89.0 119.3 85.6 124.4 88.15 132.3 84.85 135.0 76.65 L134.85 78.45 134.35 80.55 133.9 81.4 133.8 81.55 Q130.65 86.05 125.6 88.2 L126.3 88.65 126.15 88.75 126.6 88.9 136.8 95.6 Q143.8 95.9 150.15 93.15 152.65 92.1 153.5 89.75 M48.8 57.85 L47.3 57.2 42.6 53.55 Q39.45 58.7 41.2 64.45 41.7 66.15 42.95 67.45 48.65 73.55 56.95 71.95 56.0 69.55 54.55 67.55 50.65 62.3 52.9 55.9 L48.8 57.85 M57.75 72.9 L55.8 73.05 58.15 73.3 57.75 72.9 M47.15 83.8 Q44.35 83.65 43.0 86.25 41.8 88.6 43.05 91.15 L44.9 94.45 Q46.35 96.8 48.6 98.05 51.6 97.0 52.5 93.8 48.7 94.55 46.1 91.75 45.15 90.65 45.15 89.1 45.15 86.05 47.15 83.8 M41.2 87.8 L38.9 88.45 Q26.95 94.1 21.85 106.35 18.8 113.75 13.1 119.25 10.55 121.65 10.2 125.05 9.9 127.85 12.45 128.55 15.3 129.5 17.55 127.5 19.55 125.7 20.65 123.35 24.4 115.35 27.1 106.7 25.4 113.75 25.95 117.8 26.45 121.85 27.4 123.15 28.35 124.4 32.5 125.6 34.1 124.9 34.85 123.7 35.85 122.1 35.5 120.05 L34.75 118.15 Q34.1 117.1 32.85 116.65 L32.05 117.95 Q33.45 112.85 33.75 107.5 L33.8 106.95 Q33.5 110.6 35.9 113.4 36.55 114.15 37.7 114.4 40.1 115.05 42.05 113.6 44.55 111.65 44.45 108.3 44.45 107.4 43.8 107.0 42.15 106.05 40.6 107.2 L39.6 109.3 41.0 102.5 45.9 98.05 Q42.85 94.7 41.75 90.65 L41.2 87.8 M55.85 90.8 L66.75 76.85 64.0 75.1 56.35 73.85 46.85 86.1 Q46.1 87.05 46.1 88.3 47.05 93.0 52.0 92.85 54.4 92.6 55.85 90.8 M124.4 107.9 L116.7 112.05 Q121.1 116.35 124.75 121.35 L127.05 124.9 123.15 127.35 125.25 124.7 Q113.15 119.25 102.1 125.95 99.15 127.7 97.45 130.55 94.55 135.4 95.5 140.9 95.65 141.75 96.45 141.75 L103.6 142.35 Q102.75 139.95 103.15 137.3 104.0 132.05 108.15 128.95 L108.1 129.45 Q106.4 131.15 105.25 133.5 103.35 137.5 104.4 141.6 L104.75 142.35 Q122.3 142.85 139.4 139.25 142.7 138.45 145.45 136.45 145.55 132.25 142.8 128.5 135.6 118.55 126.65 110.15 L124.4 107.9 M141.35 109.1 Q143.0 108.55 143.85 107.25 134.75 105.55 125.75 107.45 L130.5 112.2 135.4 111.0 141.35 109.1 M115.45 112.9 L113.3 114.45 116.75 114.1 115.45 112.9" fill="#000000" fill-rule="evenodd" stroke="none"/>
      <path d="M186.85 33.25 L180.8 34.25 Q183.55 33.15 186.85 33.25 M180.05 34.6 L179.2 35.3 Q179.55 36.85 180.75 37.9 186.7 43.0 192.45 48.5 194.1 50.05 194.45 52.05 L197.35 69.65 Q197.85 72.75 200.6 74.15 199.25 75.65 197.3 75.95 L196.95 76.0 Q190.75 74.1 187.55 67.75 184.8 62.4 184.0 56.55 183.75 54.8 182.45 53.6 L181.15 53.7 Q176.45 60.85 175.85 69.45 175.65 72.6 173.95 74.9 173.25 75.8 172.15 76.3 166.15 79.05 159.6 77.7 160.05 70.7 158.05 63.85 L165.65 63.55 Q169.3 51.95 173.9 40.7 174.7 38.65 176.3 37.1 177.95 35.6 180.05 34.6 M201.4 74.55 L201.7 74.7 204.6 74.8 203.75 75.25 Q201.55 76.3 199.05 76.25 200.55 75.7 201.15 74.9 L201.4 74.55 M207.7 71.0 L208.2 69.85 207.7 71.15 207.7 71.0 M88.9 20.45 Q92.7 28.5 97.6 35.7 L95.35 35.05 Q90.9 32.45 85.75 31.85 73.7 31.6 65.2 40.0 60.4 44.85 54.85 48.5 L55.4 51.05 53.45 55.1 48.6 57.15 45.4 55.3 41.05 49.75 Q38.7 46.55 36.9 43.35 L37.15 43.65 Q37.85 43.95 38.05 43.1 L39.9 46.85 42.35 50.1 45.7 53.75 49.65 53.15 Q48.5 49.4 46.25 46.15 44.65 43.8 42.5 41.75 L43.45 42.5 Q41.4 40.0 38.3 39.0 L38.25 35.25 39.35 35.45 37.9 34.6 Q36.85 35.1 37.2 36.65 37.75 39.15 37.6 41.6 37.55 42.5 37.0 43.15 L36.65 42.9 34.15 37.7 Q34.15 32.55 38.8 32.45 L37.6 32.3 Q33.7 32.9 33.9 37.05 L32.8 32.8 Q36.2 27.95 40.4 23.75 L41.35 25.1 42.95 28.1 43.75 28.35 44.95 27.75 Q46.0 23.5 42.65 20.5 L41.6 19.7 Q36.55 19.55 33.55 23.6 L40.5 13.6 39.6 13.75 39.2 13.55 Q39.05 9.0 42.05 5.7 47.55 -0.4 55.35 2.4 L55.0 3.3 Q63.0 0.2 71.2 2.5 74.2 3.25 76.8 5.0 85.15 10.9 88.9 20.45 M85.45 45.65 L85.4 45.8 85.45 45.7 85.45 45.65 M92.65 57.6 L94.6 57.3 85.05 52.25 86.35 46.0 85.5 45.65 Q95.65 48.7 104.55 54.35 108.8 57.1 106.85 61.6 106.55 62.35 105.9 62.7 98.2 66.55 89.4 67.9 90.3 65.65 90.0 63.35 89.75 61.6 88.9 60.05 L88.25 58.85 100.7 57.3 92.65 57.6 M57.75 72.9 L58.15 73.3 55.8 73.05 57.75 72.9 M124.4 107.9 L126.65 110.15 Q135.6 118.55 142.8 128.5 145.55 132.25 145.45 136.45 142.7 138.45 139.4 139.25 122.3 142.85 104.75 142.35 L104.4 141.6 Q103.35 137.5 105.25 133.5 106.4 131.15 108.1 129.45 L108.15 128.95 Q104.0 132.05 103.15 137.3 102.75 139.95 103.6 142.35 L96.45 141.75 Q95.65 141.75 95.5 140.9 94.55 135.4 97.45 130.55 99.15 127.7 102.1 125.95 113.15 119.25 125.25 124.7 L123.15 127.35 127.05 124.9 124.75 121.35 Q121.1 116.35 116.7 112.05 L124.4 107.9 M55.85 90.8 Q54.4 92.6 52.0 92.85 47.05 93.0 46.1 88.3 46.1 87.05 46.85 86.1 L56.35 73.85 64.0 75.1 66.75 76.85 55.85 90.8" fill="#468fbc" fill-rule="evenodd" stroke="none"/>
      <path d="M186.85 33.25 Q199.15 33.75 206.2 44.25 207.75 46.55 208.8 49.15 212.9 59.6 208.2 69.85 L207.7 71.0 206.55 68.75 Q207.55 71.35 206.2 73.65 L204.6 74.8 201.7 74.7 201.4 74.55 201.85 72.5 200.6 74.15 Q197.85 72.75 197.35 69.65 L194.45 52.05 Q194.1 50.05 192.45 48.5 186.7 43.0 180.75 37.9 179.55 36.85 179.2 35.3 L180.05 34.6 180.8 34.25 186.85 33.25 M95.35 35.05 Q85.2 32.6 75.0 35.25 72.55 35.8 70.4 36.95 64.5 40.3 62.0 46.95 L60.8 47.15 Q57.4 48.1 55.4 51.05 L54.85 48.5 Q60.4 44.85 65.2 40.0 73.7 31.6 85.75 31.85 90.9 32.45 95.35 35.05 M85.45 45.65 L85.5 45.65 86.35 46.0 85.05 52.25 94.6 57.3 92.65 57.6 82.95 53.45 85.4 45.8 85.45 45.65" fill="#226ca7" fill-rule="evenodd" stroke="none"/>
      <path d="M200.6 74.15 L201.85 72.5 201.4 74.55 201.15 74.9 Q200.55 75.7 199.05 76.25 L198.45 76.45 196.95 76.0 197.3 75.95 Q199.25 75.65 200.6 74.15 M206.2 73.65 Q207.55 71.35 206.55 68.75 L207.7 71.0 207.7 71.15 Q207.7 72.1 207.1 73.35 L205.8 74.15 206.2 73.65 M33.9 37.05 Q33.7 32.9 37.6 32.3 L38.8 32.45 Q34.15 32.55 34.15 37.7 L33.9 37.05 M36.65 42.9 L37.0 43.15 Q37.55 42.5 37.6 41.6 37.75 39.15 37.2 36.65 36.85 35.1 37.9 34.6 L39.35 35.45 38.25 35.25 38.3 39.0 Q41.4 40.0 43.45 42.5 L42.5 41.75 Q41.4 40.85 40.1 40.3 L38.35 40.45 38.5 43.25 38.7 44.1 38.05 43.1 Q37.85 43.95 37.15 43.65 L36.9 43.35 36.65 42.9" fill="#192f54" fill-rule="evenodd" stroke="none"/>
      <path d="M121.6 48.1 Q126.05 47.9 130.35 48.95 131.35 49.3 132.05 50.25 134.25 53.35 132.05 56.8 L130.4 55.5 130.8 54.45 Q131.35 53.05 130.7 51.95 128.35 51.4 126.15 52.5 109.35 60.95 94.9 73.1 L90.75 76.45 Q86.0 80.05 83.65 85.35 L84.15 86.1 87.9 86.35 87.85 87.2 Q84.15 87.25 81.0 86.0 L80.0 84.1 Q80.7 78.4 84.45 72.85 86.75 71.7 88.3 69.8 L88.75 69.1 Q97.6 67.2 105.9 64.4 106.95 64.0 107.75 62.8 109.4 60.2 108.15 57.4 L106.3 53.8 107.5 53.15 Q114.55 49.55 121.6 48.1 M82.15 40.1 L81.1 41.1 Q76.5 46.05 77.15 52.9 L76.15 52.2 Q75.8 48.8 76.95 45.5 78.2 41.95 80.8 39.5 L82.15 40.1 M79.65 53.95 Q79.35 46.4 84.85 41.3 L84.05 41.0 Q85.6 41.0 86.7 42.1 87.75 43.15 87.75 44.65 L86.95 43.25 Q86.4 43.2 85.95 43.8 82.0 48.85 82.15 55.2 L79.65 53.95 M97.8 49.25 L89.05 45.95 88.9 41.85 76.0 36.25 79.45 35.7 Q97.0 33.95 111.55 44.3 104.7 45.5 98.6 48.85 L97.8 49.25 M87.95 56.45 L86.85 57.5 84.25 56.25 85.1 55.25 87.95 56.45 M77.15 72.45 Q76.45 75.05 76.45 77.65 L74.95 75.1 76.7 72.65 77.15 72.45 M73.55 50.15 L72.1 49.25 71.85 49.7 63.45 47.1 67.05 41.35 67.4 43.65 Q68.05 40.2 70.9 38.85 75.5 36.7 80.0 39.1 L78.05 38.3 Q74.1 42.35 73.65 48.1 L73.55 50.15" fill="#f7bd1d" fill-rule="evenodd" stroke="none"/>
      <path d="M73.6 1.7 Q74.6 0.0 76.6 0.8 L83.75 3.4 Q95.2 8.0 107.0 5.4 L109.75 4.65 Q116.05 2.7 120.25 7.55 117.45 4.65 112.15 5.55 112.75 5.7 113.0 6.4 113.2 7.1 112.15 7.7 108.5 9.4 103.0 9.4 97.45 9.35 90.95 7.55 84.5 5.8 77.9 2.35 76.0 1.35 75.2 1.85 L74.8 2.25 73.6 1.7 M36.6 53.6 Q36.35 51.15 38.65 50.2 L39.55 50.5 Q39.7 53.0 37.35 54.3 L36.65 53.85 36.6 53.6 M29.05 35.05 Q26.25 42.0 20.95 47.5 L16.7 51.85 Q12.1 56.65 5.35 55.9 2.85 55.35 2.25 52.95 L2.45 52.5 3.35 52.25 Q8.45 54.7 13.3 51.3 L17.3 48.05 Q22.25 43.55 26.15 37.8 27.35 36.1 29.05 35.05" fill="#0f2953" fill-rule="evenodd" stroke="none"/>
      <path d="M91.15 23.45 L89.35 20.0 88.9 20.45 Q85.15 10.9 76.8 5.0 74.2 3.25 71.2 2.5 63.0 0.2 55.0 3.3 L55.35 2.4 Q47.55 -0.4 42.05 5.7 39.05 9.0 39.2 13.55 L39.6 13.75 40.5 13.6 33.55 23.6 Q36.55 19.55 41.6 19.7 L42.65 20.5 Q46.0 23.5 44.95 27.75 L43.75 28.35 42.95 28.1 41.35 25.1 40.4 23.75 Q36.2 27.95 32.8 32.8 L33.9 37.05 34.15 37.7 36.65 42.9 36.9 43.35 Q38.7 46.55 41.05 49.75 L45.4 55.3 42.45 52.55 Q39.95 55.35 39.3 59.0 36.55 61.25 35.15 58.05 34.7 56.95 34.85 55.8 35.55 51.2 39.5 49.0 34.4 42.2 32.05 33.85 26.05 43.55 18.75 52.35 13.9 58.2 6.35 58.3 1.5 58.4 0.3 54.1 0.0 52.95 1.05 51.9 4.5 48.6 8.9 46.15 19.75 40.15 27.6 30.35 31.95 24.9 35.55 18.75 36.95 16.35 38.75 14.2 37.55 5.85 44.9 1.75 49.05 -0.6 53.55 1.0 54.85 1.4 56.15 1.95 64.8 -1.65 73.6 1.7 L74.8 2.25 75.2 1.85 Q76.0 1.35 77.9 2.35 84.5 5.8 90.95 7.55 97.45 9.35 103.0 9.4 108.5 9.4 112.15 7.7 113.2 7.1 113.0 6.4 112.75 5.7 112.15 5.55 117.45 4.65 120.25 7.55 122.4 11.3 118.75 13.6 115.8 15.5 112.3 15.75 106.5 16.0 100.75 14.6 91.15 12.2 82.2 7.7 87.95 14.85 91.15 23.45 M29.05 35.05 Q27.35 36.1 26.15 37.8 22.25 43.55 17.3 48.05 L13.3 51.3 Q8.45 54.7 3.35 52.25 L2.45 52.5 2.25 52.95 Q2.85 55.35 5.35 55.9 12.1 56.65 16.7 51.85 L20.95 47.5 Q26.25 42.0 29.05 35.05 M36.6 53.6 L36.65 53.85 37.35 54.3 Q39.7 53.0 39.55 50.5 L38.65 50.2 Q36.35 51.15 36.6 53.6" fill="#0b0923" fill-rule="evenodd" stroke="none"/>
      <path d="M77.15 52.9 Q76.5 46.05 81.1 41.1 L82.15 40.1 84.05 41.0 84.85 41.3 Q79.35 46.4 79.65 53.95 L77.15 52.9 M80.8 39.5 Q78.2 41.95 76.95 45.5 75.8 48.8 76.15 52.2 L73.55 50.15 73.65 48.1 Q74.1 42.35 78.05 38.3 L80.0 39.1 80.8 39.5" fill="#ee1e0b" fill-rule="evenodd" stroke="none"/>
      <path d="M85.4 45.8 L82.95 53.45 82.9 54.3 84.7 55.05 83.95 56.0 82.15 55.2 Q82.0 48.85 85.95 43.8 86.4 43.2 86.95 43.25 L87.75 44.65 87.95 45.6 85.7 44.85 85.45 45.7 85.4 45.8" fill="#5f2916" fill-rule="evenodd" stroke="none"/>
      <path d="M121.6 48.1 Q114.55 49.55 107.5 53.15 L106.3 53.8 Q102.6 51.05 98.4 49.5 L97.8 49.25 98.6 48.85 Q104.7 45.5 111.55 44.3 114.95 46.45 119.05 47.4 L121.6 48.1 M84.45 72.85 Q80.7 78.4 80.0 84.1 L76.45 77.65 Q76.45 75.05 77.15 72.45 L78.9 72.15 Q81.05 73.2 83.45 73.1 L84.45 72.85 M86.85 57.5 L87.95 56.45 90.95 57.65 90.1 58.0 87.75 58.25 86.85 57.5" fill="#e21f08" fill-rule="evenodd" stroke="none"/>
      <path d="M87.9 86.35 L84.15 86.1 83.65 85.35 Q86.0 80.05 90.75 76.45 L94.9 73.1 Q109.35 60.95 126.15 52.5 128.35 51.4 130.7 51.95 131.35 53.05 130.8 54.45 L130.4 55.5 128.25 54.05 Q108.1 62.7 91.55 77.2 90.3 78.3 89.6 80.0 88.3 83.1 87.9 86.35" fill="#390608" fill-rule="evenodd" stroke="none"/>
      <path d="M134.35 80.55 L134.85 78.45 135.0 76.65 Q132.3 84.85 124.4 88.15 119.3 85.6 115.0 89.0 126.25 87.7 134.55 95.55 139.3 100.0 143.15 105.25 132.0 104.1 121.35 107.8 118.65 108.7 116.25 110.3 L112.8 112.7 110.7 114.0 Q107.6 110.3 103.5 107.3 L96.35 102.55 Q94.6 101.5 93.3 99.9 89.95 96.0 89.7 90.75 89.4 84.85 91.15 79.2 107.55 64.3 128.0 55.45 133.5 59.55 136.7 65.5 141.75 58.35 150.25 56.2 154.6 57.8 155.65 62.3 156.95 67.6 157.55 73.05 158.05 77.25 156.9 81.45 155.7 85.8 153.5 89.75 L153.95 88.3 Q147.6 93.35 139.3 91.75 136.9 91.45 135.0 90.3 133.95 89.6 133.8 88.45 138.6 81.6 136.45 73.4 L135.95 71.6 Q136.4 76.4 134.35 80.55 M126.6 88.9 L126.15 88.75 126.3 88.65 126.6 88.9" fill="#582d83" fill-rule="evenodd" stroke="none"/>
      <path d="M83.15 56.65 L86.35 58.35 Q90.6 62.7 88.15 67.95 85.45 73.55 79.55 71.7 84.9 70.05 86.0 64.45 86.9 59.7 83.15 56.65 M81.95 56.45 Q87.05 59.65 84.65 65.35 82.1 71.4 75.5 71.4 L76.25 70.0 Q73.95 72.55 70.5 72.8 72.95 73.55 74.95 72.0 L75.75 72.25 Q74.05 76.75 69.15 76.2 65.85 75.55 64.8 72.25 63.55 68.4 64.95 64.55 61.65 69.0 63.45 74.2 59.7 74.1 58.05 70.8 56.2 67.0 57.1 62.7 57.65 59.9 58.45 57.2 56.1 61.45 55.3 66.2 53.55 64.45 53.45 61.7 53.25 54.45 58.75 50.0 59.75 49.1 61.05 48.55 67.9 48.7 74.1 52.15 L71.5 52.0 81.95 56.45 M42.5 41.75 Q44.65 43.8 46.25 46.15 48.5 49.4 49.65 53.15 L45.7 53.75 42.35 50.1 44.1 49.95 43.1 47.05 41.15 46.3 42.55 45.9 Q41.65 43.1 39.0 42.05 L38.5 43.25 38.35 40.45 40.1 40.3 Q41.4 40.85 42.5 41.75 M39.9 46.85 L38.05 43.1 38.7 44.1 39.9 46.85 M47.15 83.8 Q45.15 86.05 45.15 89.1 45.15 90.65 46.1 91.75 48.7 94.55 52.5 93.8 51.6 97.0 48.6 98.05 46.35 96.8 44.9 94.45 L43.05 91.15 Q41.8 88.6 43.0 86.25 44.35 83.65 47.15 83.8 M41.2 87.8 L41.75 90.65 Q42.85 94.7 45.9 98.05 L41.0 102.5 39.6 109.3 40.6 107.2 Q42.15 106.05 43.8 107.0 44.45 107.4 44.45 108.3 44.55 111.65 42.05 113.6 40.1 115.05 37.7 114.4 36.55 114.15 35.9 113.4 33.5 110.6 33.8 106.95 L33.75 107.5 Q33.45 112.85 32.05 117.95 L32.85 116.65 Q34.1 117.1 34.75 118.15 L35.5 120.05 Q35.85 122.1 34.85 123.7 34.1 124.9 32.5 125.6 28.35 124.4 27.4 123.15 26.45 121.85 25.95 117.8 25.4 113.75 27.1 106.7 24.4 115.35 20.65 123.35 19.55 125.7 17.55 127.5 15.3 129.5 12.45 128.55 9.9 127.85 10.2 125.05 10.55 121.65 13.1 119.25 18.8 113.75 21.85 106.35 26.95 94.1 38.9 88.45 L41.2 87.8" fill="#ffffff" fill-rule="evenodd" stroke="none"/>
      <path d="M153.5 89.75 Q152.65 92.1 150.15 93.15 143.8 95.9 136.8 95.6 L126.6 88.9 126.3 88.65 125.6 88.2 Q130.65 86.05 133.8 81.55 L133.9 81.4 134.35 80.55 Q136.4 76.4 135.95 71.6 L136.45 73.4 Q138.6 81.6 133.8 88.45 133.95 89.6 135.0 90.3 136.9 91.45 139.3 91.75 147.6 93.35 153.95 88.3 L153.5 89.75 M115.45 112.9 L116.75 114.1 113.3 114.45 115.45 112.9 M141.35 109.1 L135.4 111.0 130.5 112.2 125.75 107.45 Q134.75 105.55 143.85 107.25 143.0 108.55 141.35 109.1" fill="#2c1838" fill-rule="evenodd" stroke="none"/>
      <path d="M42.35 50.1 L39.9 46.85 38.7 44.1 38.5 43.25 39.0 42.05 Q41.65 43.1 42.55 45.9 L41.15 46.3 43.1 47.05 44.1 49.95 42.35 50.1" fill="#111111" fill-rule="evenodd" stroke="none"/>
      <path d="M48.8 57.85 L52.9 55.9 Q50.65 62.3 54.55 67.55 56.0 69.55 56.95 71.95 48.65 73.55 42.95 67.45 41.7 66.15 41.2 64.45 39.45 58.7 42.6 53.55 L47.3 57.2 48.8 57.85" fill="#f5e36a" fill-rule="evenodd" stroke="none"/>
    </g>
  </defs>
</svg>
