<?xml version="1.0" encoding="UTF-8" standalone="no"?>
<svg xmlns:xlink="http://www.w3.org/1999/xlink" height="409.3px" width="304.15px" xmlns="http://www.w3.org/2000/svg">
  <g transform="matrix(1.0, 0.0, 0.0, 1.0, 89.85, 223.9)">
    <use height="205.85" transform="matrix(0.8, 0.0, 0.0, 0.8, -20.02, -106.75)" width="134.7" xlink:href="#shape0"/>
    <use height="90.6" id="tama" transform="matrix(0.8, 0.0, 0.0, 0.8, 47.4704, -96.4596)" width="87.3" xlink:href="#sprite0"/>
    <use height="37.4" transform="matrix(0.8, 0.0, 0.0, 0.8, 45.6, -66.75)" width="47.9" xlink:href="#shape2"/>
  </g>
  <defs>
    <g id="shape0" transform="matrix(1.0, 0.0, 0.0, 1.0, -0.1, 0.0)">
      <path d="M39.7 18.1 L42.4 15.2 Q43.8 13.75 45.45 12.6 50.15 9.2 55.6 8.1 58.05 3.3 63.1 1.1 67.6 -0.9 72.15 0.7 77.85 2.75 80.3 8.25 L83.0 8.95 Q85.45 9.45 87.8 10.35 L89.85 11.15 92.45 8.45 Q93.95 7.05 95.85 7.05 98.9 7.45 100.6 10.25 L109.3 24.9 Q113.7 32.55 119.9 38.7 125.1 43.9 130.7 48.65 133.0 50.55 134.4 52.95 L134.8 54.3 Q135.05 57.3 132.1 58.6 128.7 60.15 125.25 58.9 118.8 56.8 114.7 51.2 112.05 47.55 110.3 43.55 105.55 32.35 100.45 21.25 L98.05 15.9 Q97.1 13.7 95.05 12.55 L93.3 13.7 Q98.05 18.4 99.3 25.1 100.7 32.6 100.2 40.2 L99.05 54.9 98.9 56.35 97.9 55.75 Q99.35 44.8 99.3 33.7 99.25 28.05 97.6 22.7 96.15 18.05 92.5 14.7 L91.2 17.0 89.05 16.9 88.75 16.6 88.5 16.3 88.3 15.8 88.2 15.4 Q88.2 14.9 88.35 14.4 L89.2 12.25 Q87.5 11.35 85.7 10.7 82.7 9.75 79.8 9.35 L78.25 8.9 79.2 8.4 79.4 7.95 Q77.3 4.1 73.3 2.35 67.5 -0.05 61.95 2.75 58.25 4.6 56.7 8.05 L57.6 8.65 Q54.45 9.35 51.45 10.45 46.15 12.45 42.45 16.7 34.05 26.2 35.45 38.9 36.3 46.45 38.8 53.55 39.65 55.95 39.35 58.55 L37.6 54.15 Q35.95 49.5 34.6 41.95 33.6 36.1 34.55 30.5 35.5 25.05 38.2 20.45 36.95 18.15 36.1 18.85 35.15 19.65 33.9 23.85 L31.2 30.45 27.0 38.5 21.75 46.65 Q19.0 50.55 16.15 53.5 13.3 56.45 10.7 57.75 6.05 59.95 3.25 59.2 0.75 58.5 0.15 55.2 0.3 50.45 5.65 47.15 5.35 47.5 5.4 48.0 5.45 48.55 5.9 48.9 L7.3 49.0 Q11.8 47.65 16.55 43.35 21.3 39.05 25.55 32.45 29.8 25.9 32.85 17.85 33.75 15.5 34.8 15.3 35.85 15.15 37.0 16.45 L38.95 19.2 39.7 18.1 M105.75 27.85 Q109.0 40.65 117.6 50.75 L120.2 53.55 Q121.75 55.0 123.45 55.7 127.4 57.25 131.2 55.25 L132.65 54.05 131.95 52.9 126.35 53.05 Q124.2 52.55 122.35 51.2 119.45 49.0 117.3 45.95 111.05 37.1 105.75 27.85" fill="#0b0923" fill-rule="evenodd" stroke="none"/>
      <path d="M39.35 58.55 Q39.65 55.95 38.8 53.55 36.3 46.45 35.45 38.9 34.05 26.2 42.45 16.7 46.15 12.45 51.45 10.45 54.45 9.35 57.6 8.65 L56.7 8.05 Q58.25 4.6 61.95 2.75 67.5 -0.05 73.3 2.35 77.3 4.1 79.4 7.95 L79.2 8.4 78.25 8.9 79.8 9.35 Q82.7 9.75 85.7 10.7 87.5 11.35 89.2 12.25 L88.35 14.4 Q88.2 14.9 88.2 15.4 L88.3 15.8 88.5 16.3 88.75 16.6 89.05 16.9 91.2 17.0 92.5 14.7 Q96.15 18.05 97.6 22.7 99.25 28.05 99.3 33.7 99.35 44.8 97.9 55.75 L98.9 56.35 99.65 57.05 Q101.2 58.8 101.6 61.3 102.0 63.8 101.25 66.35 100.55 68.85 98.75 70.65 L94.4 73.9 99.25 69.3 Q100.9 67.6 100.3 65.3 100.0 64.1 99.2 63.2 L96.9 60.95 Q95.9 60.3 94.75 60.05 88.65 59.65 82.85 61.5 L74.1 63.8 62.9 64.35 Q57.35 63.45 51.55 64.2 46.8 64.65 43.0 67.3 41.65 68.2 41.5 69.55 41.15 72.9 43.4 75.2 40.65 73.45 39.35 70.7 38.5 68.9 38.65 66.75 L39.35 58.55 M120.8 76.4 L121.8 76.35 122.05 78.0 121.85 82.65 Q121.2 89.1 119.35 95.45 118.7 97.7 117.65 99.75 115.55 104.1 112.25 107.2 110.35 108.95 107.7 109.4 105.4 109.65 103.55 108.4 L99.35 105.2 Q94.6 101.2 91.3 95.6 93.15 92.55 96.1 91.55 99.2 90.6 102.55 91.65 105.0 95.35 106.25 99.75 L106.6 101.05 Q106.75 99.2 107.2 97.4 107.55 96.15 108.2 94.95 111.5 88.9 112.1 81.95 112.3 79.4 111.7 77.0 L120.8 76.4 M32.9 96.75 L34.0 98.85 Q35.05 100.55 36.85 101.45 39.7 102.7 42.75 102.35 L33.2 110.15 Q30.9 112.15 28.0 113.05 24.25 114.2 21.35 111.95 18.8 110.05 18.45 107.0 17.95 102.9 21.5 101.2 23.7 100.15 25.05 101.95 L22.95 104.9 32.9 96.75 M51.65 172.75 L51.3 175.55 59.5 181.2 54.65 195.0 38.1 195.7 34.15 195.05 Q31.7 194.7 29.4 193.85 28.45 193.5 27.9 192.75 26.05 190.4 27.6 187.9 30.9 182.55 35.95 178.95 L39.6 175.9 Q40.6 175.05 41.25 173.9 L45.9 165.6 45.0 167.55 48.05 167.45 Q51.95 168.65 51.65 172.75 M72.65 166.5 Q75.45 167.4 78.75 167.7 L75.4 189.0 80.0 191.0 77.3 188.65 Q83.25 186.05 89.55 185.8 L94.75 186.1 Q98.5 187.0 100.7 190.4 102.2 192.65 102.8 195.25 103.65 199.15 102.75 202.55 L98.9 203.4 Q99.85 199.55 97.95 196.35 96.7 194.25 94.85 192.65 94.05 191.95 92.7 191.55 L94.3 193.05 Q95.6 194.2 96.5 195.75 97.45 197.45 97.85 199.1 L98.25 201.65 Q98.35 202.75 97.75 203.45 L91.15 204.1 Q79.55 204.95 67.9 203.8 L61.2 202.5 Q58.85 202.0 56.7 201.1 55.65 200.6 56.0 199.5 L59.85 187.45 67.4 164.7 72.65 166.5" fill="#468fbc" fill-rule="evenodd" stroke="none"/>
      <path d="M39.7 18.1 L38.95 19.2 37.0 16.45 Q35.85 15.15 34.8 15.3 33.75 15.5 32.85 17.85 29.8 25.9 25.55 32.45 21.3 39.05 16.55 43.35 11.8 47.65 7.3 49.0 L5.9 48.9 Q5.45 48.55 5.4 48.0 5.35 47.5 5.65 47.15 0.3 50.45 0.15 55.2 L0.15 53.25 Q0.25 51.3 1.25 49.65 3.9 45.25 8.7 43.5 10.35 42.95 11.75 41.95 22.4 34.8 28.8 23.65 30.1 21.45 30.85 18.95 31.55 16.5 33.15 14.55 34.3 13.15 35.9 13.9 38.45 14.95 39.7 17.6 L39.7 18.1 M105.75 27.85 Q111.05 37.1 117.3 45.95 119.45 49.0 122.35 51.2 124.2 52.55 126.35 53.05 L131.95 52.9 132.65 54.05 131.2 55.25 Q127.4 57.25 123.45 55.7 121.75 55.0 120.2 53.55 L117.6 50.75 Q109.0 40.65 105.75 27.85" fill="#0f2953" fill-rule="evenodd" stroke="none"/>
      <path d="M37.6 54.15 L39.35 58.55 38.65 66.75 Q38.5 68.9 39.35 70.7 40.65 73.45 43.4 75.2 46.05 77.5 49.4 78.5 50.85 78.0 52.1 77.2 56.2 74.65 60.65 73.25 L60.5 68.6 61.2 67.9 61.4 73.0 Q65.9 71.7 70.65 72.45 L74.35 73.2 74.2 66.85 75.2 67.4 75.3 73.5 77.45 74.35 Q79.95 71.25 83.8 71.3 85.9 71.3 87.7 72.35 89.9 73.7 91.55 75.8 L94.4 73.9 98.75 70.65 Q100.55 68.85 101.25 66.35 102.0 63.8 101.6 61.3 101.2 58.8 99.65 57.05 L98.9 56.35 99.05 54.9 Q102.2 55.5 102.95 58.4 104.15 62.9 102.55 67.35 102.0 68.75 101.1 70.0 97.85 74.55 92.7 76.9 97.45 82.05 104.0 84.85 L105.7 85.75 106.85 87.05 Q108.5 90.8 105.95 94.2 L107.05 94.55 Q108.35 92.25 109.3 89.55 L110.35 86.1 Q111.6 81.5 110.55 76.8 L120.8 76.4 111.7 77.0 Q112.3 79.4 112.1 81.95 111.5 88.9 108.2 94.95 107.55 96.15 107.2 97.4 106.75 99.2 106.6 101.05 L106.25 99.75 Q105.0 95.35 102.55 91.65 L99.05 87.9 Q96.95 87.8 95.25 89.05 91.55 91.7 91.05 96.05 L91.3 95.6 Q94.6 101.2 99.35 105.2 L103.55 108.4 Q105.4 109.65 107.7 109.4 110.35 108.95 112.25 107.2 115.55 104.1 117.65 99.75 118.7 97.7 119.35 95.45 121.2 89.1 121.85 82.65 L122.05 78.0 121.8 76.35 122.5 76.6 Q123.75 83.9 121.95 91.25 120.1 98.95 115.45 105.5 112.5 109.7 107.55 110.4 L105.4 110.05 Q104.2 109.8 103.2 109.15 L98.7 105.65 Q102.0 114.3 106.75 122.25 L98.05 125.45 Q100.85 128.35 101.85 132.1 102.7 135.3 103.2 138.6 L103.9 145.25 Q104.25 149.85 103.15 154.4 102.05 159.05 99.15 162.6 96.7 165.45 93.25 166.6 86.75 168.85 80.05 167.85 L78.75 179.25 Q78.4 183.5 77.3 187.45 85.7 184.15 94.7 184.85 96.8 185.15 98.6 186.3 100.95 187.75 102.3 190.4 103.1 192.0 103.5 193.75 104.3 197.45 104.7 201.25 L104.75 202.45 104.55 202.75 Q103.95 203.3 103.25 203.5 95.65 205.5 87.55 205.6 70.9 206.7 54.85 202.75 L53.6 202.35 53.05 201.8 Q52.55 199.45 53.8 197.45 47.55 198.4 41.3 197.7 L35.2 196.6 Q32.1 196.05 29.15 194.95 26.5 193.95 25.5 191.05 24.95 189.45 25.5 188.1 27.15 183.9 30.75 181.2 34.6 178.25 38.25 175.05 L39.95 173.1 44.25 165.5 Q42.1 165.25 40.35 164.25 37.85 162.7 36.2 160.15 34.55 157.65 33.75 155.0 33.2 153.15 34.7 151.7 35.95 150.5 36.35 149.05 37.45 144.85 37.75 140.6 38.15 134.4 41.15 129.15 L36.45 125.45 Q36.0 125.05 36.0 124.55 35.8 119.8 40.4 117.85 L41.25 115.95 Q43.7 109.35 44.8 102.2 L39.15 106.55 30.7 113.3 Q27.3 115.9 23.3 114.75 22.2 114.3 21.35 113.55 18.8 111.4 17.35 108.3 11.15 107.2 8.45 101.5 7.35 99.25 7.3 96.85 7.2 91.75 10.9 88.15 L13.6 85.25 16.5 81.85 Q17.45 80.9 18.7 80.6 21.4 80.25 23.8 81.75 28.2 84.35 28.6 89.3 L29.65 89.45 Q30.5 89.8 31.25 90.3 L33.15 91.9 34.05 90.05 Q35.4 87.35 37.65 85.35 41.75 81.65 46.85 79.5 42.15 77.85 38.9 74.25 36.45 71.5 36.85 67.65 37.1 65.05 37.5 62.45 38.1 58.25 37.6 54.15 M97.15 82.25 L87.1 73.75 Q86.2 73.0 85.1 72.6 82.0 71.9 79.65 73.8 78.55 74.7 78.0 76.15 68.45 71.9 58.8 75.8 55.25 77.25 52.4 79.9 50.7 81.4 50.0 83.75 48.95 87.25 48.35 90.9 L46.35 103.35 45.25 109.75 43.65 116.3 43.9 115.8 42.95 118.3 42.2 119.45 Q40.05 119.65 38.65 121.15 37.65 122.3 37.55 123.9 38.4 125.2 39.7 126.05 L44.45 129.0 Q47.35 130.65 50.45 131.85 53.9 133.15 57.5 133.9 L61.65 134.75 68.85 134.55 Q76.4 133.4 83.35 130.15 86.5 128.7 89.7 127.4 L103.85 121.55 99.3 112.0 95.9 102.95 95.5 102.6 Q91.0 102.3 88.25 98.75 84.5 94.05 81.4 88.7 79.8 85.95 79.6 82.55 81.6 88.5 85.35 93.65 L87.7 96.3 89.65 98.1 Q89.25 96.2 90.0 94.6 93.1 87.85 100.35 86.55 103.05 86.0 105.25 87.3 L106.05 87.65 105.9 87.3 Q104.25 85.35 101.5 85.05 L97.15 82.25 M105.35 89.2 Q104.7 88.05 103.05 87.75 L100.9 87.65 105.2 93.2 Q106.25 91.0 105.35 89.2 M15.8 85.15 Q14.7 86.75 13.95 88.65 L14.25 86.25 Q12.85 87.2 11.9 88.4 10.35 90.5 10.2 93.35 L9.85 92.2 Q7.05 97.35 10.6 102.25 12.95 105.6 16.75 106.85 14.95 103.85 16.95 101.0 19.1 97.95 22.9 97.9 25.5 97.85 27.25 99.9 L32.35 95.4 Q32.6 92.75 30.2 91.3 28.9 90.5 27.5 89.95 25.6 89.1 25.1 86.95 L26.45 88.5 26.7 87.95 27.15 89.3 27.55 89.55 Q26.45 84.6 21.95 82.55 L18.1 82.4 Q16.75 83.65 15.8 85.15 M45.2 99.85 L45.65 97.15 Q46.85 90.65 47.65 84.15 47.95 81.6 49.85 79.65 L41.65 83.75 38.45 86.35 37.5 87.35 Q36.0 89.1 35.05 91.25 33.6 94.5 34.95 97.8 35.55 99.2 36.85 99.85 40.65 101.65 44.8 100.95 L45.2 99.85 M32.9 96.75 L22.95 104.9 25.05 101.95 Q23.7 100.15 21.5 101.2 17.95 102.9 18.45 107.0 18.8 110.05 21.35 111.95 24.25 114.2 28.0 113.05 30.9 112.15 33.2 110.15 L42.75 102.35 Q39.7 102.7 36.85 101.45 35.05 100.55 34.0 98.85 L32.9 96.75 M56.0 161.95 Q60.3 161.2 61.85 157.1 L65.4 146.85 Q65.95 145.0 65.35 143.15 L57.05 141.65 57.0 141.6 57.5 141.2 53.8 139.45 51.15 136.6 Q58.8 141.35 67.9 141.45 66.45 148.15 65.45 154.95 65.0 157.9 66.8 160.25 68.85 162.95 71.95 163.8 L80.9 165.75 Q85.3 166.65 89.75 165.85 L92.15 165.1 96.65 162.95 Q99.6 161.2 100.75 157.85 L101.8 153.65 Q103.6 143.65 101.3 133.9 100.2 129.35 96.95 125.9 90.25 128.0 83.75 131.1 77.65 134.05 71.0 135.2 55.7 137.6 42.35 129.85 40.6 133.85 39.6 138.15 39.05 140.65 38.9 143.25 38.7 147.35 36.9 151.0 36.0 152.8 35.5 154.8 35.35 155.4 35.65 156.0 36.85 158.8 39.2 160.8 L41.8 162.45 Q43.1 163.15 44.6 163.4 50.55 164.4 56.0 161.95 M20.35 100.45 Q23.3 98.75 26.05 100.85 L26.8 100.35 Q25.65 98.8 23.6 98.5 21.0 98.2 19.0 99.8 16.0 102.2 16.95 105.95 17.1 102.3 20.35 100.45 M45.9 165.6 L41.25 173.9 Q40.6 175.05 39.6 175.9 L35.95 178.95 Q30.9 182.55 27.6 187.9 26.05 190.4 27.9 192.75 28.45 193.5 29.4 193.85 31.7 194.7 34.15 195.05 L38.1 195.7 54.65 195.0 59.5 181.2 51.3 175.55 51.65 172.75 54.85 163.9 45.9 165.6 M63.55 159.7 Q61.45 162.45 58.2 163.2 L57.2 163.35 Q55.35 169.3 55.1 175.55 L60.15 179.35 65.55 163.35 63.55 159.7 M72.65 166.5 L67.4 164.7 59.85 187.45 56.0 199.5 Q55.65 200.6 56.7 201.1 58.85 202.0 61.2 202.5 L67.9 203.8 Q79.55 204.95 91.15 204.1 L97.75 203.45 Q98.35 202.75 98.25 201.65 L97.85 199.1 Q97.45 197.45 96.5 195.75 95.6 194.2 94.3 193.05 L92.7 191.55 Q94.05 191.95 94.85 192.65 96.7 194.25 97.95 196.35 99.85 199.55 98.9 203.4 L102.75 202.55 Q103.65 199.15 102.8 195.25 102.2 192.65 100.7 190.4 98.5 187.0 94.75 186.1 L89.55 185.8 Q83.25 186.05 77.3 188.65 L80.0 191.0 75.4 189.0 78.75 167.7 Q75.45 167.4 72.65 166.5 M94.25 101.25 L90.8 97.2 Q91.1 99.85 93.5 100.95 L94.25 101.25" fill="#000000" fill-rule="evenodd" stroke="none"/>
      <path d="M43.4 75.2 Q41.15 72.9 41.5 69.55 41.65 68.2 43.0 67.3 46.8 64.65 51.55 64.2 57.35 63.45 62.9 64.35 L74.1 63.8 82.85 61.5 Q88.65 59.65 94.75 60.05 95.9 60.3 96.9 60.95 L99.2 63.2 Q100.0 64.1 100.3 65.3 100.9 67.6 99.25 69.3 L94.4 73.9 91.55 75.8 Q89.9 73.7 87.7 72.35 85.9 71.3 83.8 71.3 79.95 71.25 77.45 74.35 L75.3 73.5 75.2 67.4 74.2 66.85 Q71.4 64.7 67.75 64.75 63.8 64.95 61.2 67.9 L60.5 68.6 60.65 73.25 Q56.2 74.65 52.1 77.2 50.85 78.0 49.4 78.5 46.05 77.5 43.4 75.2 M91.3 95.6 L91.05 96.05 Q91.55 91.7 95.25 89.05 96.95 87.8 99.05 87.9 L102.55 91.65 Q99.2 90.6 96.1 91.55 93.15 92.55 91.3 95.6 M51.65 172.75 Q51.95 168.65 48.05 167.45 L45.0 167.55 45.9 165.6 54.85 163.9 51.65 172.75" fill="#226ca7" fill-rule="evenodd" stroke="none"/>
      <path d="M45.25 109.75 L45.4 110.85 45.9 110.5 48.7 110.7 54.4 112.2 Q60.05 113.85 66.05 113.05 L78.3 111.45 Q83.4 110.65 88.25 109.05 91.2 108.15 93.6 106.4 95.4 105.05 95.9 102.95 L99.3 112.0 91.6 116.25 Q81.5 121.55 69.75 121.35 L58.4 120.55 54.1 120.0 Q48.55 118.4 42.95 118.3 L43.9 115.8 43.65 116.3 45.25 109.75 M85.35 93.65 Q85.9 87.35 91.0 83.5 93.65 81.45 97.15 82.25 L101.5 85.05 Q97.7 84.1 94.15 86.0 91.15 87.5 89.2 90.35 87.45 92.95 87.7 96.3 L85.35 93.65 M45.2 99.85 Q40.9 99.9 38.2 96.55 37.2 95.3 37.0 93.75 L36.8 89.8 Q36.8 88.4 37.5 87.35 L38.45 86.35 41.65 83.75 Q39.3 87.25 39.4 91.6 39.4 93.0 40.35 94.3 41.55 95.9 43.45 96.55 L45.65 97.15 45.2 99.85" fill="#e21f08" fill-rule="evenodd" stroke="none"/>
      <path d="M45.25 109.75 L46.35 103.35 48.35 90.9 Q48.95 87.25 50.0 83.75 50.7 81.4 52.4 79.9 55.25 77.25 58.8 75.8 68.45 71.9 78.0 76.15 78.55 74.7 79.65 73.8 82.0 71.9 85.1 72.6 86.2 73.0 87.1 73.75 L97.15 82.25 Q93.65 81.45 91.0 83.5 85.9 87.35 85.35 93.65 81.6 88.5 79.6 82.55 79.8 85.95 81.4 88.7 84.5 94.05 88.25 98.75 91.0 102.3 95.5 102.6 L95.9 102.95 Q95.4 105.05 93.6 106.4 91.2 108.15 88.25 109.05 83.4 110.65 78.3 111.45 L66.05 113.05 Q60.05 113.85 54.4 112.2 L48.7 110.7 45.9 110.5 45.4 110.85 45.25 109.75 M101.5 85.05 Q104.25 85.35 105.9 87.3 L106.05 87.65 105.25 87.3 Q103.05 86.0 100.35 86.55 93.1 87.85 90.0 94.6 89.25 96.2 89.65 98.1 L87.7 96.3 Q87.45 92.95 89.2 90.35 91.15 87.5 94.15 86.0 97.7 84.1 101.5 85.05 M37.5 87.35 Q36.8 88.4 36.8 89.8 L37.0 93.75 Q37.2 95.3 38.2 96.55 40.9 99.9 45.2 99.85 L44.8 100.95 Q40.65 101.65 36.85 99.85 35.55 99.2 34.95 97.8 33.6 94.5 35.05 91.25 36.0 89.1 37.5 87.35 M45.65 97.15 L43.45 96.55 Q41.55 95.9 40.35 94.3 39.4 93.0 39.4 91.6 39.3 87.25 41.65 83.75 L49.85 79.65 Q47.95 81.6 47.65 84.15 46.85 90.65 45.65 97.15 M99.3 112.0 L103.85 121.55 89.7 127.4 Q86.5 128.7 83.35 130.15 76.4 133.4 68.85 134.55 L61.65 134.75 57.5 133.9 Q53.9 133.15 50.45 131.85 47.35 130.65 44.45 129.0 L39.7 126.05 Q38.4 125.2 37.55 123.9 37.65 122.3 38.65 121.15 40.05 119.65 42.2 119.45 L42.95 118.3 Q48.55 118.4 54.1 120.0 L58.4 120.55 69.75 121.35 Q81.5 121.55 91.6 116.25 L99.3 112.0" fill="#f7bd1d" fill-rule="evenodd" stroke="none"/>
      <path d="M105.35 89.2 Q106.25 91.0 105.2 93.2 L100.9 87.65 103.05 87.75 Q104.7 88.05 105.35 89.2 M94.25 101.25 L93.5 100.95 Q91.1 99.85 90.8 97.2 L94.25 101.25" fill="#d49330" fill-rule="evenodd" stroke="none"/>
      <path d="M15.8 85.15 Q16.75 83.65 18.1 82.4 L21.95 82.55 Q26.45 84.6 27.55 89.55 L27.15 89.3 26.7 87.95 26.45 88.5 25.1 86.95 Q25.6 89.1 27.5 89.95 28.9 90.5 30.2 91.3 32.6 92.75 32.35 95.4 L27.25 99.9 Q25.5 97.85 22.9 97.9 19.1 97.95 16.95 101.0 14.95 103.85 16.75 106.85 12.95 105.6 10.6 102.25 7.05 97.35 9.85 92.2 L10.2 93.35 Q10.35 90.5 11.9 88.4 12.85 87.2 14.25 86.25 L13.95 88.65 Q14.7 86.75 15.8 85.15 M20.35 100.45 Q17.1 102.3 16.95 105.95 16.0 102.2 19.0 99.8 21.0 98.2 23.6 98.5 25.65 98.8 26.8 100.35 L26.05 100.85 Q23.3 98.75 20.35 100.45" fill="#ffffff" fill-rule="evenodd" stroke="none"/>
      <path d="M74.2 66.85 L74.35 73.2 70.65 72.45 Q65.9 71.7 61.4 73.0 L61.2 67.9 Q63.8 64.95 67.75 64.75 71.4 64.7 74.2 66.85" fill="#19519d" fill-rule="evenodd" stroke="none"/>
      <path d="M53.8 139.45 L49.25 137.25 48.65 137.7 Q48.7 141.5 51.7 143.8 L57.9 149.0 Q59.35 150.35 60.1 152.35 59.65 154.85 57.7 156.45 53.25 160.05 48.25 162.75 L56.0 161.95 Q50.55 164.4 44.6 163.4 43.1 163.15 41.8 162.45 L39.2 160.8 Q36.85 158.8 35.65 156.0 35.35 155.4 35.5 154.8 36.0 152.8 36.9 151.0 38.7 147.35 38.9 143.25 39.05 140.65 39.6 138.15 40.6 133.85 42.35 129.85 55.7 137.6 71.0 135.2 77.65 134.05 83.75 131.1 90.25 128.0 96.95 125.9 100.2 129.35 101.3 133.9 103.6 143.65 101.8 153.65 L100.75 157.85 Q99.6 161.2 96.65 162.95 L92.15 165.1 89.75 165.85 Q85.3 166.65 80.9 165.75 L71.95 163.8 Q68.85 162.95 66.8 160.25 65.0 157.9 65.45 154.95 66.45 148.15 67.9 141.45 58.8 141.35 51.15 136.6 L53.8 139.45 M57.05 141.65 L56.95 141.65 57.0 141.6 57.05 141.65" fill="#582d83" fill-rule="evenodd" stroke="none"/>
      <path d="M56.0 161.95 L48.25 162.75 Q53.25 160.05 57.7 156.45 59.65 154.85 60.1 152.35 59.35 150.35 57.9 149.0 L51.7 143.8 Q48.7 141.5 48.65 137.7 L49.25 137.25 53.8 139.45 57.5 141.2 57.0 141.6 56.95 141.65 57.05 141.65 65.35 143.15 Q65.95 145.0 65.4 146.85 L61.85 157.1 Q60.3 161.2 56.0 161.95" fill="#2c1838" fill-rule="evenodd" stroke="none"/>
    </g>
    <g id="sprite0" transform="matrix(1.0, 0.0, 0.0, 1.0, 30.1, 31.45)">
      <use height="62.9" transform="matrix(1.0, 0.0, 0.0, 1.0, -30.1, -31.45)" width="60.15" xlink:href="#shape1"/>
    </g>
    <g id="shape1" transform="matrix(1.0, 0.0, 0.0, 1.0, -0.15, 0.0)">
      <path d="M41.2 3.95 L41.15 4.0 41.3 4.0 44.35 3.65 45.1 3.6 49.85 3.3 50.1 7.7 50.1 10.1 49.75 10.45 47.5 10.8 45.55 11.05 44.6 11.15 36.4 11.95 33.15 17.35 Q38.35 28.65 45.4 38.9 L48.7 43.9 40.45 52.5 40.25 52.7 38.35 54.95 36.45 57.35 35.6 58.4 34.3 60.1 33.5 61.15 32.05 62.9 Q30.6 62.8 29.95 61.3 L29.3 60.4 28.2 58.8 27.65 57.95 26.25 56.0 25.6 55.0 Q21.25 48.5 15.35 43.2 L15.05 42.65 Q23.8 32.45 27.0 19.2 L27.55 17.35 24.35 12.1 15.95 11.2 14.75 11.05 12.8 10.8 11.4 10.55 Q10.85 10.45 10.8 10.0 L10.75 9.2 10.75 7.2 11.0 3.3 16.05 3.65 18.8 3.95 19.5 4.05 19.3 3.75 Q18.95 3.3 19.25 2.85 L19.5 2.5 23.6 2.4 36.5 2.4 41.35 2.85 41.2 3.95 M44.4 6.85 L42.0 9.25 42.85 9.45 Q44.45 9.3 44.6 7.7 L44.4 6.85 M41.3 8.5 L43.65 6.15 Q41.6 5.6 41.25 7.7 41.2 8.1 41.3 8.5 M41.15 9.85 Q40.25 9.15 40.1 7.7 40.25 6.15 41.3 5.45 L40.2 5.55 37.4 10.25 40.5 9.9 41.15 9.85 M43.9 5.2 Q45.4 5.8 45.6 7.7 L45.1 9.3 48.1 8.9 48.65 4.7 43.9 5.2 M41.95 38.2 L43.25 38.85 41.9 36.6 37.6 29.35 29.4 25.7 26.75 24.55 25.0 29.65 28.0 31.2 41.95 38.2 M41.95 42.6 Q41.05 43.25 41.3 44.35 L43.8 42.35 Q42.85 41.85 41.95 42.6 M44.15 45.15 L44.4 44.85 44.65 43.4 42.15 45.4 Q43.1 45.85 44.15 45.15 M39.1 48.25 L41.25 49.2 43.65 46.5 42.95 46.6 Q41.5 46.45 40.65 45.3 L40.2 43.85 40.4 42.95 26.4 36.65 22.6 35.0 19.65 39.65 20.85 40.15 22.1 39.8 23.45 40.4 25.05 42.0 39.1 48.25 M34.8 9.0 L35.5 9.6 38.0 5.3 36.5 4.05 35.25 4.1 29.2 4.25 34.8 9.0 M25.45 6.7 L22.5 4.4 22.0 4.4 Q24.5 8.6 27.15 12.45 28.0 13.7 29.3 14.6 L31.5 16.2 33.45 12.95 25.45 6.7 M20.7 6.0 L19.85 6.0 Q20.7 7.2 20.4 8.55 20.15 9.6 19.2 10.1 L23.4 10.5 20.7 6.0 M29.35 18.0 L28.25 20.0 29.85 20.75 34.35 22.7 32.2 18.0 29.35 18.0 M19.5 7.75 Q19.35 6.15 17.75 6.0 L16.95 6.25 19.3 8.6 19.5 7.75 M16.0 7.75 Q16.15 9.35 17.75 9.5 L18.6 9.3 16.25 6.95 Q16.05 7.25 16.0 7.75 M12.25 9.2 L15.8 9.7 Q14.6 8.25 15.3 6.7 L15.75 5.9 12.7 5.45 12.25 9.2 M23.25 41.2 L22.1 40.8 21.3 41.05 23.8 43.05 Q24.05 42.3 23.25 41.2 M20.35 42.55 Q20.5 44.15 22.1 44.3 L22.95 44.1 20.6 41.75 20.35 42.55 M25.05 47.75 L21.05 46.6 25.7 52.6 27.0 54.4 32.65 56.5 34.75 57.05 37.9 53.1 36.05 52.1 25.05 47.75" fill="#441c0c" fill-rule="evenodd" stroke="none"/>
      <path d="M41.3 4.0 L41.2 3.95 41.35 2.85 36.5 2.4 30.15 1.6 23.6 2.4 19.5 2.5 19.25 2.85 Q18.95 3.3 19.3 3.75 L18.8 3.95 16.05 3.65 Q20.25 1.5 25.0 0.6 L26.25 0.4 30.15 0.1 Q38.05 0.3 44.35 3.65 L41.3 4.0 M10.75 7.2 L10.75 9.2 9.9 10.0 Q1.8 18.1 1.5 30.25 1.8 42.4 9.9 50.5 17.35 57.95 28.2 58.8 L29.3 60.4 Q17.05 59.8 8.85 51.55 4.25 46.95 2.05 41.15 -2.2 29.0 3.1 17.3 5.8 11.45 10.75 7.2 M12.8 10.8 L14.75 11.05 Q8.85 15.8 6.5 23.15 3.4 33.0 8.5 42.1 13.6 51.25 23.55 53.95 L25.6 55.0 26.25 56.0 Q18.9 54.95 13.3 50.15 5.4 43.3 4.45 32.95 3.25 19.85 12.8 10.8 M34.3 60.1 L35.6 58.4 Q43.05 57.15 48.8 52.25 57.85 44.45 58.45 32.4 59.05 19.5 50.1 10.1 L50.1 7.7 51.45 8.95 Q60.0 17.45 60.3 30.25 60.0 43.05 51.45 51.55 44.35 58.7 34.3 60.1 M38.35 54.95 L40.25 52.7 Q51.55 47.35 54.05 35.2 56.15 25.1 50.65 16.55 48.6 13.3 45.55 11.05 L47.5 10.8 Q50.95 13.85 53.05 17.95 58.75 29.0 54.0 40.3 49.45 51.2 38.35 54.95" fill="#4f2713" fill-rule="evenodd" stroke="none"/>
      <path d="M41.3 4.0 L41.15 4.0 41.2 3.95 41.3 4.0 M36.5 2.4 L23.6 2.4 30.15 1.6 36.5 2.4 M19.3 3.75 L19.5 4.05 18.8 3.95 19.3 3.75 M10.75 9.2 L10.8 10.0 Q1.1 19.6 2.4 33.1 3.35 42.95 10.25 49.95 17.5 57.2 27.65 57.95 L28.2 58.8 Q17.35 57.95 9.9 50.5 1.8 42.4 1.5 30.25 1.8 18.1 9.9 10.0 L10.75 9.2 M35.6 58.4 L36.45 57.35 Q44.1 55.55 49.75 49.9 57.65 42.0 57.95 30.15 57.65 18.3 49.75 10.45 L50.1 10.1 Q59.05 19.5 58.45 32.4 57.85 44.45 48.8 52.25 43.05 57.15 35.6 58.4" fill="#a89678" fill-rule="evenodd" stroke="none"/>
      <path d="M45.1 3.6 L44.35 3.65 Q38.05 0.3 30.15 0.1 L26.25 0.4 30.75 0.0 Q38.75 0.2 45.1 3.6" fill="#724a30" fill-rule="evenodd" stroke="none"/>
      <path d="M41.3 8.5 Q41.2 8.1 41.25 7.7 41.6 5.6 43.65 6.15 L41.3 8.5 M44.4 6.85 L44.6 7.7 Q44.45 9.3 42.85 9.45 L42.0 9.25 44.4 6.85 M44.15 45.15 Q43.1 45.85 42.15 45.4 L44.65 43.4 44.4 44.85 44.15 45.15 M41.95 42.6 Q42.85 41.85 43.8 42.35 L41.3 44.35 Q41.05 43.25 41.95 42.6 M16.0 7.75 Q16.05 7.25 16.25 6.95 L18.6 9.3 17.75 9.5 Q16.15 9.35 16.0 7.75 M19.5 7.75 L19.3 8.6 16.95 6.25 17.75 6.0 Q19.35 6.15 19.5 7.75 M20.35 42.55 L20.6 41.75 22.95 44.1 22.1 44.3 Q20.5 44.15 20.35 42.55 M23.25 41.2 Q24.05 42.3 23.8 43.05 L21.3 41.05 22.1 40.8 23.25 41.2" fill="#d7cdbb" fill-rule="evenodd" stroke="none"/>
      <path d="M15.95 11.2 L24.35 12.1 27.55 17.35 27.0 19.2 Q23.8 32.45 15.05 42.65 L15.35 43.2 Q21.25 48.5 25.6 55.0 L23.55 53.95 22.3 52.95 Q17.25 51.25 13.4 47.45 6.8 40.95 6.55 30.8 6.8 20.6 13.4 13.55 14.6 12.25 15.95 11.2 M40.45 52.5 L48.7 43.9 45.4 38.9 Q38.35 28.65 33.15 17.35 L36.4 11.95 44.6 11.15 Q51.75 16.65 53.55 25.4 55.55 35.3 50.0 43.55 47.2 47.8 42.95 50.65 L40.45 52.5 M46.05 37.8 L48.6 41.5 Q50.4 39.45 51.3 36.9 52.6 33.25 52.4 29.4 51.85 18.25 43.0 11.75 L41.65 12.05 Q38.8 11.65 36.35 13.2 33.8 16.5 35.55 20.15 40.0 29.5 46.05 37.8 M14.45 42.25 Q18.5 37.2 21.35 31.55 L23.75 25.95 Q25.15 22.1 25.9 17.95 26.3 15.65 24.6 14.0 22.2 12.4 19.25 12.3 15.05 14.65 12.0 18.35 10.25 20.5 9.3 23.5 6.2 33.5 11.7 42.45 14.8 47.45 19.85 49.4 L18.65 48.0 Q17.45 46.65 15.95 45.75 13.95 44.4 14.45 42.25" fill="#a99b81" fill-rule="evenodd" stroke="none"/>
      <path d="M41.15 9.85 L40.5 9.9 37.4 10.25 40.2 5.55 41.3 5.45 Q40.25 6.15 40.1 7.7 40.25 9.15 41.15 9.85 M43.9 5.2 L48.65 4.7 48.1 8.9 45.1 9.3 45.6 7.7 Q45.4 5.8 43.9 5.2 M20.7 6.0 L23.4 10.5 19.2 10.1 Q20.15 9.6 20.4 8.55 20.7 7.2 19.85 6.0 L20.7 6.0 M12.25 9.2 L12.7 5.45 15.75 5.9 15.3 6.7 Q14.6 8.25 15.8 9.7 L12.25 9.2" fill="#b5a581" fill-rule="evenodd" stroke="none"/>
      <path d="M14.75 11.05 L15.95 11.2 Q14.6 12.25 13.4 13.55 6.8 20.6 6.55 30.8 6.8 40.95 13.4 47.45 17.25 51.25 22.3 52.95 L23.55 53.95 Q13.6 51.25 8.5 42.1 3.4 33.0 6.5 23.15 8.85 15.8 14.75 11.05 M40.25 52.7 L40.45 52.5 42.95 50.65 Q47.2 47.8 50.0 43.55 55.55 35.3 53.55 25.4 51.75 16.65 44.6 11.15 L45.55 11.05 Q48.6 13.3 50.65 16.55 56.15 25.1 54.05 35.2 51.55 47.35 40.25 52.7" fill="#887c64" fill-rule="evenodd" stroke="none"/>
      <path d="M10.8 10.0 Q10.85 10.45 11.4 10.55 L12.8 10.8 Q3.25 19.85 4.45 32.95 5.4 43.3 13.3 50.15 18.9 54.95 26.25 56.0 L27.65 57.95 Q17.5 57.2 10.25 49.95 3.35 42.95 2.4 33.1 1.1 19.6 10.8 10.0 M36.45 57.35 L38.35 54.95 Q49.45 51.2 54.0 40.3 58.75 29.0 53.05 17.95 50.95 13.85 47.5 10.8 L49.75 10.45 Q57.65 18.3 57.95 30.15 57.65 42.0 49.75 49.9 44.1 55.55 36.45 57.35" fill="#f0e6ca" fill-rule="evenodd" stroke="none"/>
      <path d="M36.35 13.2 Q38.8 11.65 41.65 12.05 L43.0 11.75 Q51.85 18.25 52.4 29.4 52.6 33.25 51.3 36.9 50.4 39.45 48.6 41.5 L46.05 37.8 Q50.35 29.45 46.7 20.6 43.8 13.75 36.35 13.2 M24.6 14.0 Q16.75 16.25 12.2 23.4 8.65 29.55 11.25 36.2 12.4 39.5 14.45 42.25 13.95 44.4 15.95 45.75 17.45 46.65 18.65 48.0 L19.85 49.4 Q14.8 47.45 11.7 42.45 6.2 33.5 9.3 23.5 10.25 20.5 12.0 18.35 15.05 14.65 19.25 12.3 22.2 12.4 24.6 14.0" fill="#c4b696" fill-rule="evenodd" stroke="none"/>
      <path d="M46.05 37.8 Q40.0 29.5 35.55 20.15 33.8 16.5 36.35 13.2 43.8 13.75 46.7 20.6 50.35 29.45 46.05 37.8 M24.6 14.0 Q26.3 15.65 25.9 17.95 25.15 22.1 23.75 25.95 L21.35 31.55 Q18.5 37.2 14.45 42.25 12.4 39.5 11.25 36.2 8.65 29.55 12.2 23.4 16.75 16.25 24.6 14.0" fill="#d8ceba" fill-rule="evenodd" stroke="none"/>
      <path d="M41.9 36.6 L43.25 38.85 41.95 38.2 41.9 36.6 M28.0 31.2 L25.0 29.65 26.75 24.55 29.4 25.7 28.0 31.2 M40.65 45.3 Q41.5 46.45 42.95 46.6 L43.65 46.5 41.25 49.2 39.1 48.25 40.65 45.3 M25.05 42.0 L23.45 40.4 22.1 39.8 20.85 40.15 19.65 39.65 22.6 35.0 26.4 36.65 25.05 42.0 M35.25 4.1 L36.5 4.05 38.0 5.3 35.5 9.6 34.8 9.0 35.25 4.1 M29.3 14.6 Q28.0 13.7 27.15 12.45 24.5 8.6 22.0 4.4 L22.5 4.4 25.45 6.7 26.55 8.3 Q28.7 11.05 29.3 14.6 M29.85 20.75 L28.25 20.0 29.35 18.0 29.85 20.75 M25.7 52.6 L21.05 46.6 25.05 47.75 25.7 52.6 M36.05 52.1 L37.9 53.1 34.75 57.05 32.65 56.5 36.05 52.1" fill="#af9f81" fill-rule="evenodd" stroke="none"/>
      <path d="M41.9 36.6 L41.95 38.2 28.0 31.2 29.4 25.7 37.6 29.35 41.9 36.6 M40.65 45.3 L39.1 48.25 25.05 42.0 26.4 36.65 40.4 42.95 40.2 43.85 40.65 45.3 M35.25 4.1 L34.8 9.0 29.2 4.25 35.25 4.1 M29.3 14.6 Q28.7 11.05 26.55 8.3 L25.45 6.7 33.45 12.95 31.5 16.2 29.3 14.6 M29.85 20.75 L29.35 18.0 32.2 18.0 34.35 22.7 29.85 20.75 M25.7 52.6 L25.05 47.75 36.05 52.1 32.65 56.5 27.0 54.4 25.7 52.6" fill="#c4b898" fill-rule="evenodd" stroke="none"/>
    </g>
    <g id="shape2" transform="matrix(1.0, 0.0, 0.0, 1.0, 0.0, 0.0)">
      <path d="M44.65 21.0 Q46.3 22.2 46.7 24.05 47.05 25.9 45.5 28.4 44.35 30.1 42.2 30.85 40.05 31.6 37.4 31.5 L32.25 30.7 Q28.55 29.5 25.8 27.55 23.05 25.6 21.3 23.75 L18.7 21.2 Q15.6 18.55 12.05 16.5 8.5 14.5 4.0 13.05 2.65 12.6 1.85 11.5 1.05 10.4 1.45 8.95 1.85 7.5 4.05 5.95 5.55 5.0 7.3 5.15 9.0 5.35 10.65 6.15 12.25 6.95 13.55 7.9 L15.45 9.5 Q14.75 10.75 15.0 12.15 15.2 13.55 15.7 14.4 L17.55 17.3 18.65 19.25 Q19.0 19.9 19.2 19.55 19.4 19.2 19.25 18.75 L18.25 17.15 16.7 14.8 Q15.85 13.5 15.7 11.75 15.5 10.05 16.65 8.85 L18.55 6.8 21.4 3.6 23.6 1.55 25.4 1.35 26.3 1.75 25.95 1.9 Q25.6 2.1 25.1 3.1 L24.25 5.05 23.2 7.4 22.15 9.4 21.0 11.6 Q20.65 12.45 20.6 13.15 L20.75 14.75 21.35 16.8 22.3 19.2 23.1 20.6 23.6 20.5 23.5 19.85 23.0 18.8 22.35 17.1 21.8 15.6 Q21.2 13.7 21.65 12.3 22.15 10.95 22.95 9.7 L24.75 6.0 Q25.4 4.3 26.2 3.15 26.8 2.4 28.0 2.45 29.2 2.55 30.35 3.45 31.5 4.35 32.0 6.0 32.25 7.4 31.55 8.95 L29.9 11.8 Q29.0 13.1 28.75 13.75 L29.25 14.85 30.15 16.5 30.75 17.8 Q30.9 18.3 30.9 18.0 L31.1 17.15 40.7 19.25 Q43.0 19.85 44.65 21.0 M26.2 29.3 Q28.7 30.85 31.85 31.85 34.6 32.65 37.5 32.7 L41.9 32.2 Q41.3 33.45 39.85 34.55 38.25 35.7 35.9 36.05 33.55 36.35 30.8 35.15 28.0 33.85 26.85 32.35 25.7 30.9 25.8 29.65 L25.9 29.1 26.2 29.3" fill="#ffffff" fill-rule="evenodd" stroke="none"/>
      <path d="M44.15 19.15 Q46.3 20.1 47.4 22.4 48.0 23.9 47.85 25.6 47.6 27.35 46.55 29.05 45.45 30.6 43.7 31.5 43.45 32.7 42.5 33.9 41.35 35.35 39.5 36.35 37.6 37.3 35.25 37.4 32.9 37.5 30.25 36.35 27.55 35.1 26.0 33.5 24.5 31.9 24.3 30.15 24.25 29.15 24.6 28.3 L24.65 28.25 21.95 26.1 19.0 23.25 18.4 22.65 17.85 22.1 Q14.5 19.3 11.05 17.35 7.6 15.45 3.6 14.2 2.15 13.75 1.2 12.75 0.25 11.75 0.05 10.45 -0.15 9.55 0.4 8.05 0.95 6.55 3.3 4.9 5.35 3.65 7.65 3.95 9.95 4.3 12.05 5.5 14.15 6.7 15.6 8.05 L15.75 7.9 17.45 6.05 20.75 2.45 22.85 0.5 Q23.85 -0.05 24.75 0.0 L26.25 0.35 26.95 0.75 27.65 1.0 28.65 1.3 Q29.95 1.5 31.25 2.6 32.6 3.65 33.2 5.7 33.4 6.45 33.25 7.35 33.1 8.75 32.1 10.55 L31.75 11.1 31.05 12.2 30.7 12.75 30.45 13.2 30.05 13.8 30.5 14.65 30.8 15.2 31.0 15.5 31.25 16.0 33.65 16.4 36.85 17.05 39.5 17.65 39.95 17.75 Q42.05 18.2 44.15 19.15 M44.65 21.0 Q43.0 19.85 40.7 19.25 L31.1 17.15 30.9 18.0 Q30.9 18.3 30.75 17.8 L30.15 16.5 29.25 14.85 28.75 13.75 Q29.0 13.1 29.9 11.8 L31.55 8.95 Q32.25 7.4 32.0 6.0 31.5 4.35 30.35 3.45 29.2 2.55 28.0 2.45 26.8 2.4 26.2 3.15 25.4 4.3 24.75 6.0 L22.95 9.7 Q22.15 10.95 21.65 12.3 21.2 13.7 21.8 15.6 L22.35 17.1 23.0 18.8 23.5 19.85 23.6 20.5 23.1 20.6 22.3 19.2 21.35 16.8 20.75 14.75 20.6 13.15 Q20.65 12.45 21.0 11.6 L22.15 9.4 23.2 7.4 24.25 5.05 25.1 3.1 Q25.6 2.1 25.95 1.9 L26.3 1.75 25.4 1.35 23.6 1.55 21.4 3.6 18.55 6.8 16.65 8.85 Q15.5 10.05 15.7 11.75 15.85 13.5 16.7 14.8 L18.25 17.15 19.25 18.75 Q19.4 19.2 19.2 19.55 19.0 19.9 18.65 19.25 L17.55 17.3 15.7 14.4 Q15.2 13.55 15.0 12.15 14.75 10.75 15.45 9.5 L13.55 7.9 Q12.25 6.95 10.65 6.15 9.0 5.35 7.3 5.15 5.55 5.0 4.05 5.95 1.85 7.5 1.45 8.95 1.05 10.4 1.85 11.5 2.65 12.6 4.0 13.05 8.5 14.5 12.05 16.5 15.6 18.55 18.7 21.2 L21.3 23.75 Q23.05 25.6 25.8 27.55 28.55 29.5 32.25 30.7 L37.4 31.5 Q40.05 31.6 42.2 30.85 44.35 30.1 45.5 28.4 47.05 25.9 46.7 24.05 46.3 22.2 44.65 21.0 M26.2 29.3 L25.9 29.1 25.8 29.65 Q25.7 30.9 26.85 32.35 28.0 33.85 30.8 35.15 33.55 36.35 35.9 36.05 38.25 35.7 39.85 34.55 41.3 33.45 41.9 32.2 L37.5 32.7 Q34.6 32.65 31.85 31.85 28.7 30.85 26.2 29.3" fill="#000000" fill-rule="evenodd" stroke="none"/>
    </g>
  </defs>
</svg>
