<?xml version="1.0" encoding="UTF-8" standalone="no"?>
<svg xmlns:xlink="http://www.w3.org/1999/xlink" height="409.3px" width="304.15px" xmlns="http://www.w3.org/2000/svg">
  <g transform="matrix(1.0, 0.0, 0.0, 1.0, 89.85, 223.9)">
    <use height="231.7" transform="matrix(0.8, 0.0, 0.0, 0.8, -24.87, -126.15)" width="191.05" xlink:href="#shape0"/>
  </g>
  <defs>
    <g id="shape0" transform="matrix(1.0, 0.0, 0.0, 1.0, -0.1, -0.25)">
      <path d="M152.95 26.7 Q157.55 15.85 165.3 7.2 168.45 3.75 172.65 1.35 174.6 0.25 176.8 0.25 180.15 0.7 180.5 3.9 182.05 3.05 183.7 2.35 185.9 1.4 187.9 1.95 189.0 2.35 189.45 3.5 189.7 4.15 189.6 4.85 189.05 9.35 185.75 12.6 187.3 12.25 188.65 12.9 190.95 13.85 191.15 16.4 191.3 18.35 190.25 20.0 185.95 26.6 182.05 33.5 175.45 45.2 163.6 51.35 L164.4 49.75 Q167.75 48.1 169.25 44.55 170.4 41.8 169.75 38.85 168.9 34.75 165.45 32.6 161.45 30.2 156.95 31.75 154.05 32.75 152.3 35.15 150.45 37.8 150.4 41.05 L149.4 43.25 Q148.95 41.2 149.3 39.05 149.45 38.15 149.75 37.3 L150.2 36.15 151.9 33.6 152.2 33.3 Q156.55 29.4 162.05 30.2 166.65 31.05 169.4 34.95 173.0 40.1 170.1 45.7 173.3 44.15 175.6 41.35 L177.3 39.05 183.45 28.2 188.1 20.1 Q189.5 17.8 189.35 15.5 189.3 14.25 188.35 13.8 L186.15 14.35 Q184.1 14.85 182.75 16.55 180.6 19.3 179.7 22.8 179.25 19.9 180.9 17.4 L183.95 12.9 187.8 6.85 188.6 5.05 Q189.0 3.95 188.05 3.35 L185.1 3.25 Q183.55 4.0 182.25 5.05 175.85 10.4 170.3 16.8 L172.05 13.75 Q173.65 11.45 175.7 9.35 177.95 7.05 179.05 4.05 179.0 2.9 177.9 2.25 176.5 1.5 174.85 2.25 169.5 4.7 165.2 9.1 162.05 12.35 159.8 16.3 156.1 22.7 152.95 29.4 L152.75 27.05 152.95 26.7 M137.25 90.35 Q138.7 96.7 138.8 103.15 L124.0 110.2 Q113.65 115.15 103.15 119.7 101.65 120.3 99.85 120.35 L98.6 120.35 93.8 119.7 Q99.65 119.15 104.95 116.85 115.65 112.25 126.2 107.25 L133.65 103.8 137.55 102.0 Q135.6 99.75 134.2 97.1 129.2 87.4 127.4 76.5 L128.9 75.7 129.25 77.55 133.25 91.95 133.9 93.6 137.25 90.35 M40.65 121.85 Q39.5 115.6 44.0 111.4 47.05 108.5 51.2 108.9 L51.8 110.2 49.15 110.85 49.85 110.2 Q46.35 109.75 44.0 112.6 41.15 116.05 41.6 120.65 43.35 117.95 46.5 118.8 49.9 119.55 50.9 122.7 L50.35 122.95 Q49.4 120.2 46.55 119.4 43.55 118.6 41.9 121.15 L40.65 121.85 M47.5 95.65 Q43.0 86.75 41.35 77.05 40.9 74.55 41.0 72.05 41.3 65.5 43.3 59.25 L42.55 59.15 33.05 72.7 Q30.4 76.45 27.05 79.7 21.6 85.05 15.3 89.7 11.65 92.35 7.1 92.9 3.9 93.35 1.6 91.2 0.0 89.6 0.1 87.4 2.15 82.6 7.05 80.7 L7.2 82.7 Q9.7 83.15 12.1 82.15 26.25 76.55 34.6 64.15 37.85 59.3 42.15 55.5 L43.55 56.5 Q44.2 57.05 44.4 57.8 L45.35 56.35 Q49.1 51.2 54.7 48.35 L56.3 47.5 Q57.95 41.7 63.15 38.5 66.0 36.8 69.25 36.75 76.35 36.7 80.5 42.35 88.15 41.55 94.85 45.35 97.1 46.6 98.85 48.5 107.5 57.9 109.6 70.6 L115.95 70.35 Q118.5 70.85 120.5 72.9 L126.9 68.35 129.05 70.05 Q130.65 71.55 131.6 73.5 L127.3 76.0 126.35 70.45 121.15 74.15 115.35 78.45 Q111.3 81.45 107.3 84.65 112.05 90.85 116.95 96.85 118.55 98.75 119.1 101.45 119.45 103.25 117.95 104.35 115.75 106.05 113.05 106.0 108.7 105.8 105.45 102.8 100.65 98.35 98.2 92.15 86.8 101.45 77.05 112.25 L76.75 111.65 Q76.5 111.15 76.65 110.75 77.05 109.8 77.75 108.95 L78.9 107.7 80.5 106.05 86.75 100.2 97.7 90.65 89.3 57.7 Q88.65 55.25 86.9 54.0 L85.95 54.25 85.1 54.8 84.25 55.5 83.5 56.3 82.85 57.05 82.35 57.7 80.65 57.2 Q79.4 56.6 79.85 55.15 80.5 52.95 82.4 51.1 85.1 48.35 88.6 48.7 89.95 48.9 90.8 49.95 91.85 51.2 92.4 52.7 97.05 64.85 102.55 76.85 103.9 79.4 105.55 81.95 L106.55 83.55 110.2 80.65 109.6 76.6 Q108.7 70.1 106.85 64.1 L106.6 63.3 104.15 57.05 103.75 56.3 Q101.0 50.7 95.65 47.1 91.75 44.45 87.0 44.15 L78.5 43.5 79.55 42.25 Q76.3 38.55 71.35 37.9 65.3 37.35 60.75 41.4 58.2 43.8 57.3 47.2 L58.35 47.6 Q51.8 50.35 47.45 55.75 42.5 61.85 41.8 69.6 40.9 79.65 45.65 88.6 L45.0 88.6 47.5 95.65 M111.25 70.75 L110.75 71.75 Q112.85 73.9 115.75 72.85 L116.0 72.15 Q115.85 71.35 115.2 71.0 113.25 69.8 111.25 70.75 M96.1 73.2 Q95.65 71.65 94.7 70.75 94.9 75.45 96.1 80.0 98.6 89.7 104.0 97.9 106.5 101.6 110.95 102.8 114.55 103.65 116.95 101.25 L116.85 100.45 116.2 99.85 Q111.6 100.4 108.15 97.25 103.95 93.35 101.5 88.05 98.25 80.95 96.1 73.2 M114.2 77.6 L115.3 76.75 110.4 75.85 110.25 80.65 110.9 80.15 114.2 77.6" fill="#0b0923" fill-rule="evenodd" stroke="none"/>
      <path d="M152.75 27.05 L152.95 29.4 Q156.1 22.7 159.8 16.3 162.05 12.35 165.2 9.1 169.5 4.7 174.85 2.25 176.5 1.5 177.9 2.25 179.0 2.9 179.05 4.05 177.95 7.05 175.7 9.35 173.65 11.45 172.05 13.75 L170.3 16.8 Q175.85 10.4 182.25 5.05 183.55 4.0 185.1 3.25 L188.05 3.35 Q189.0 3.95 188.6 5.05 L187.8 6.85 183.95 12.9 180.9 17.4 Q179.25 19.9 179.7 22.8 180.6 19.3 182.75 16.55 184.1 14.85 186.15 14.35 L188.35 13.8 Q189.3 14.25 189.35 15.5 189.5 17.8 188.1 20.1 L183.45 28.2 177.3 39.05 175.6 41.35 Q173.3 44.15 170.1 45.7 173.0 40.1 169.4 34.95 166.65 31.05 162.05 30.2 156.55 29.4 152.2 33.3 L152.15 32.65 151.9 33.6 150.2 36.15 Q147.05 29.15 141.95 23.5 140.45 21.8 139.45 19.75 138.55 17.9 138.7 15.95 138.8 14.85 139.95 14.35 L141.75 13.95 Q144.7 14.2 146.7 16.25 151.15 20.9 152.75 27.05 M150.4 41.05 Q150.45 37.8 152.3 35.15 154.05 32.75 156.95 31.75 161.45 30.2 165.45 32.6 168.9 34.75 169.75 38.85 170.4 41.8 169.25 44.55 167.75 48.1 164.4 49.75 166.85 46.25 166.85 42.05 166.8 37.75 162.6 36.1 L155.15 36.3 Q151.85 37.9 150.4 41.05 M105.55 81.95 Q103.9 79.4 102.55 76.85 L100.95 68.3 101.15 66.85 Q101.4 64.5 103.1 62.8 L105.7 65.55 104.3 64.4 Q103.05 65.65 103.5 67.5 L104.45 70.65 105.9 69.8 105.0 72.05 106.55 75.05 108.15 73.85 108.65 79.6 105.55 81.95 M106.0 66.0 L105.8 64.95 107.15 68.65 106.0 66.0 M51.8 110.2 L54.0 113.35 Q56.05 116.2 58.85 118.0 L50.9 122.7 Q49.9 119.55 46.5 118.8 43.35 117.95 41.6 120.65 41.15 116.05 44.0 112.6 46.35 109.75 49.85 110.2 L49.15 110.85 51.8 110.2 M50.35 122.95 L49.6 122.45 Q46.15 119.4 41.9 121.15 43.55 118.6 46.55 119.4 49.4 120.2 50.35 122.95" fill="#ffffff" fill-rule="evenodd" stroke="none"/>
      <path d="M163.6 51.35 Q158.25 62.65 152.0 73.6 L149.05 78.25 Q147.55 80.45 145.6 82.25 L137.25 90.35 133.9 93.6 133.25 91.95 Q142.9 84.55 149.4 74.35 155.95 64.15 161.1 53.0 L164.25 46.15 Q165.65 43.2 164.6 40.55 164.25 39.6 163.5 38.95 162.1 37.6 160.15 37.45 154.5 36.8 151.85 41.95 L144.85 55.8 Q141.45 62.7 137.25 69.4 134.2 74.25 129.25 77.55 L128.9 75.7 127.4 76.5 127.3 76.0 131.6 73.5 Q135.35 70.6 137.65 66.55 144.1 55.1 149.4 43.25 L150.4 41.05 Q151.85 37.9 155.15 36.3 L162.6 36.1 Q166.8 37.75 166.85 42.05 166.85 46.25 164.4 49.75 L163.6 51.35 M99.85 120.35 L104.25 153.55 102.9 155.4 101.35 157.2 Q99.3 159.25 96.55 160.6 L99.8 177.15 Q101.15 184.2 99.1 191.0 L98.75 191.8 Q95.9 197.1 90.0 198.9 81.7 201.4 73.0 199.45 67.95 204.65 64.15 210.65 71.4 207.55 79.35 207.4 83.75 207.3 87.8 208.95 92.75 211.15 95.7 215.5 98.75 219.9 99.8 225.15 100.25 227.5 98.65 229.3 97.95 230.1 97.1 230.25 80.65 232.25 64.3 231.9 52.3 231.65 40.9 228.6 39.9 228.25 39.7 227.3 39.5 226.2 39.75 225.1 40.3 222.85 41.4 220.9 44.5 215.15 48.65 209.8 42.7 209.6 37.2 207.5 34.9 206.65 33.55 204.7 32.5 203.25 32.75 201.6 33.3 198.35 35.9 196.1 39.6 192.75 43.7 189.75 L44.55 188.75 50.1 178.4 Q46.95 177.25 44.05 175.55 42.5 174.65 41.55 173.15 38.25 167.9 40.95 161.95 38.9 160.9 37.1 159.25 35.7 157.9 35.4 156.1 34.7 151.95 38.25 149.3 L45.15 143.35 Q40.25 146.05 34.65 145.25 32.55 144.8 31.15 143.15 28.2 139.5 29.3 134.8 29.55 133.8 30.05 133.1 34.2 126.4 40.65 121.85 L41.9 121.15 Q46.15 119.4 49.6 122.45 L50.35 122.95 50.9 122.7 58.85 118.0 Q56.05 116.2 54.0 113.35 L51.8 110.2 51.2 108.9 47.5 95.65 45.0 88.6 45.65 88.6 Q48.75 96.2 50.65 104.1 52.75 112.75 60.55 116.9 L65.25 113.2 Q72.05 107.9 80.5 106.05 L78.9 107.7 Q67.05 111.15 59.8 121.05 56.3 125.75 53.85 130.95 L50.0 139.5 45.3 146.45 42.6 148.65 Q37.55 152.15 37.3 155.0 37.1 157.85 41.05 160.1 L41.65 160.45 42.05 159.65 43.15 157.65 43.75 156.75 45.2 154.8 Q53.65 152.8 62.35 152.0 75.2 150.85 87.9 151.95 93.0 152.55 95.95 156.5 96.5 157.55 96.45 158.95 L96.45 159.3 Q100.3 156.85 102.4 153.35 L102.1 151.15 101.1 143.6 98.6 120.35 99.85 120.35 M149.75 37.3 Q147.2 32.0 143.35 27.3 L140.55 23.95 139.1 21.85 Q137.25 18.85 137.65 15.2 137.9 12.6 140.85 12.65 144.4 12.85 147.1 15.25 152.15 19.8 152.95 26.7 L152.75 27.05 Q151.15 20.9 146.7 16.25 144.7 14.2 141.75 13.95 L139.95 14.35 Q138.8 14.85 138.7 15.95 138.55 17.9 139.45 19.75 140.45 21.8 141.95 23.5 147.05 29.15 150.2 36.15 L149.75 37.3 M152.2 33.3 L151.9 33.6 152.15 32.65 152.2 33.3 M110.9 80.15 L110.25 80.65 110.4 75.85 115.3 76.75 114.2 77.6 110.9 76.7 110.9 80.15 M46.8 121.55 Q43.75 120.6 41.05 122.8 35.9 126.45 32.2 131.7 L31.25 133.5 Q30.0 136.9 30.95 140.35 31.5 142.5 33.6 143.5 L39.3 143.65 Q44.05 141.9 48.2 139.0 L50.15 135.05 46.65 129.3 39.9 132.2 45.9 127.85 45.4 126.45 Q45.2 125.9 45.7 125.35 46.9 124.1 48.35 123.85 48.45 121.95 46.8 121.55 M59.55 118.8 L57.05 120.55 46.85 126.4 Q48.05 130.5 50.6 134.05 54.4 126.2 59.55 118.8 M59.6 178.8 L60.35 178.75 59.4 178.85 Q63.35 178.95 66.6 176.7 69.35 174.8 68.45 171.8 L65.7 172.25 61.3 171.25 66.1 171.65 69.8 171.35 Q70.05 171.95 69.7 172.65 66.4 179.15 61.15 184.4 63.85 184.15 66.45 185.1 L69.65 186.4 Q75.65 188.65 81.9 190.5 L90.15 191.1 93.9 190.5 Q95.25 190.45 95.75 191.6 96.6 190.5 96.95 189.2 98.7 182.85 97.6 176.35 L94.95 162.95 Q94.55 161.05 94.6 159.2 94.6 157.9 93.75 156.8 90.9 153.2 86.25 152.55 69.15 151.1 52.2 153.95 49.1 154.3 46.2 155.4 42.7 160.35 42.25 166.2 42.0 169.15 43.35 171.7 45.0 174.85 48.15 176.5 53.55 179.35 59.6 178.8 M54.65 187.85 L57.3 179.8 51.2 178.75 49.3 182.8 46.65 188.1 45.65 189.4 38.25 196.3 Q35.9 198.45 35.45 201.6 35.25 202.95 35.9 204.1 36.25 204.7 36.85 205.1 42.55 208.5 49.35 208.85 L59.9 196.05 54.3 190.8 54.65 187.85 M58.8 179.85 L57.9 181.65 Q56.05 185.75 55.65 190.3 L60.9 194.9 58.15 191.75 Q56.5 189.6 56.85 186.7 56.95 186.05 57.35 185.55 60.25 181.6 64.3 178.9 L63.1 179.25 58.8 179.85 M62.15 185.6 L59.25 186.35 58.65 187.1 Q58.5 190.65 61.25 192.8 L62.3 193.3 68.3 186.75 Q66.05 185.6 63.1 185.6 L62.15 185.6 M74.55 197.75 Q82.6 199.35 90.25 196.25 93.15 195.15 94.6 192.5 L93.55 191.9 83.2 191.5 79.6 190.9 74.55 197.75 M75.65 193.9 Q77.15 192.3 77.85 190.3 L69.7 187.25 Q60.7 196.9 52.6 207.2 47.8 213.2 44.5 220.15 43.55 222.2 42.85 224.4 42.5 225.55 43.1 226.35 L43.7 226.9 Q48.3 228.95 53.25 229.35 L77.1 230.35 87.75 229.7 Q88.9 227.95 88.65 225.9 88.15 222.05 86.1 219.0 84.85 217.1 83.05 215.45 84.35 215.75 85.4 216.95 86.85 218.45 87.9 220.35 89.2 222.7 89.4 225.6 89.55 227.65 89.05 229.6 93.25 229.5 97.0 227.95 L97.9 227.1 98.1 225.75 Q97.5 218.05 91.5 212.9 89.05 210.8 85.9 209.8 75.9 207.0 66.25 211.05 L64.15 212.0 66.85 214.75 62.25 212.45 Q63.1 209.85 64.45 207.9 69.6 200.6 75.65 193.9" fill="#000000" fill-rule="evenodd" stroke="none"/>
      <path d="M129.25 77.55 Q134.2 74.25 137.25 69.4 141.45 62.7 144.85 55.8 L151.85 41.95 Q154.5 36.8 160.15 37.45 162.1 37.6 163.5 38.95 164.25 39.6 164.6 40.55 165.65 43.2 164.25 46.15 L161.1 53.0 Q155.95 64.15 149.4 74.35 142.9 84.55 133.25 91.95 L129.25 77.55 M45.65 88.6 Q40.9 79.65 41.8 69.6 42.5 61.85 47.45 55.75 51.8 50.35 58.35 47.6 L57.3 47.2 Q58.2 43.8 60.75 41.4 65.3 37.35 71.35 37.9 76.3 38.55 79.55 42.25 L78.5 43.5 87.0 44.15 Q91.75 44.45 95.65 47.1 101.0 50.7 103.75 56.3 101.55 54.2 98.85 54.75 97.75 54.85 96.9 55.7 L96.0 56.8 Q98.65 53.45 102.35 55.85 L104.15 57.05 106.6 63.3 106.5 63.9 Q104.45 63.3 103.05 61.7 L98.85 57.5 98.35 58.5 98.2 59.7 98.8 58.6 Q100.75 59.8 101.95 61.65 100.5 64.85 100.95 68.3 L102.55 76.85 Q97.05 64.85 92.4 52.7 91.85 51.2 90.8 49.95 89.95 48.9 88.6 48.7 85.1 48.35 82.4 51.1 80.5 52.95 79.85 55.15 79.4 56.6 80.65 57.2 L82.35 57.7 82.85 57.05 83.5 56.3 84.25 55.5 85.1 54.8 85.95 54.25 86.9 54.0 Q88.65 55.25 89.3 57.7 L97.7 90.65 86.75 100.2 Q71.85 106.6 56.25 111.25 L56.45 111.85 Q57.75 115.0 60.55 116.9 52.75 112.75 50.65 104.1 48.75 96.2 45.65 88.6 M106.85 64.1 Q108.7 70.1 109.6 76.6 L110.2 80.65 106.55 83.55 105.55 81.95 108.65 79.6 108.15 73.85 108.3 73.6 Q108.1 71.05 107.15 68.65 L105.8 64.95 106.7 64.75 106.85 64.1 M46.8 121.55 Q48.45 121.95 48.35 123.85 46.9 124.1 45.7 125.35 45.2 125.9 45.4 126.45 L45.9 127.85 39.9 132.2 46.65 129.3 50.15 135.05 48.2 139.0 Q44.05 141.9 39.3 143.65 L33.6 143.5 Q31.5 142.5 30.95 140.35 30.0 136.9 31.25 133.5 L32.2 131.7 Q35.9 126.45 41.05 122.8 43.75 120.6 46.8 121.55 M49.3 182.8 Q51.5 182.8 53.1 184.3 54.65 185.75 54.65 187.85 L54.3 190.8 59.9 196.05 49.35 208.85 Q42.55 208.5 36.85 205.1 36.25 204.7 35.9 204.1 35.25 202.95 35.45 201.6 35.9 198.45 38.25 196.3 L45.65 189.4 46.65 188.1 49.3 182.8 M75.65 193.9 Q69.6 200.6 64.45 207.9 63.1 209.85 62.25 212.45 L66.85 214.75 64.15 212.0 66.25 211.05 Q75.9 207.0 85.9 209.8 89.05 210.8 91.5 212.9 97.5 218.05 98.1 225.75 L97.9 227.1 97.0 227.95 Q93.25 229.5 89.05 229.6 89.55 227.65 89.4 225.6 89.2 222.7 87.9 220.35 86.85 218.45 85.4 216.95 84.35 215.75 83.05 215.45 84.85 217.1 86.1 219.0 88.15 222.05 88.65 225.9 88.9 227.95 87.75 229.7 L77.1 230.35 53.25 229.35 Q48.3 228.95 43.7 226.9 L43.1 226.35 Q42.5 225.55 42.85 224.4 43.55 222.2 44.5 220.15 47.8 213.2 52.6 207.2 60.7 196.9 69.7 187.25 L77.85 190.3 Q77.15 192.3 75.65 193.9" fill="#468fbc" fill-rule="evenodd" stroke="none"/>
      <path d="M103.75 56.3 L104.15 57.05 102.35 55.85 Q98.65 53.45 96.0 56.8 L96.9 55.7 Q97.75 54.85 98.85 54.75 101.55 54.2 103.75 56.3 M106.6 63.3 L106.85 64.1 106.7 64.75 105.8 64.95 106.0 66.0 105.7 65.55 103.1 62.8 Q101.4 64.5 101.15 66.85 L100.95 68.3 Q100.5 64.85 101.95 61.65 100.75 59.8 98.8 58.6 L98.2 59.7 98.35 58.5 98.85 57.5 103.05 61.7 Q104.45 63.3 106.5 63.9 L106.6 63.3" fill="#192f54" fill-rule="evenodd" stroke="none"/>
      <path d="M105.7 65.55 L106.0 66.0 107.15 68.65 Q108.1 71.05 108.3 73.6 L108.15 73.85 106.55 75.05 105.0 72.05 105.9 69.8 104.45 70.65 103.5 67.5 Q103.05 65.65 104.3 64.4 L105.7 65.55" fill="#111111" fill-rule="evenodd" stroke="none"/>
      <path d="M0.1 87.4 Q1.0 83.05 5.0 80.9 8.25 79.2 11.7 77.85 18.05 75.5 23.4 71.55 28.3 68.0 32.4 63.6 L42.25 53.75 45.35 56.35 44.4 57.8 Q44.2 57.05 43.55 56.5 L42.15 55.5 Q37.85 59.3 34.6 64.15 26.25 76.55 12.1 82.15 9.7 83.15 7.2 82.7 L7.05 80.7 Q2.15 82.6 0.1 87.4 M111.25 70.75 Q113.25 69.8 115.2 71.0 115.85 71.35 116.0 72.15 L115.75 72.85 Q112.85 73.9 110.75 71.75 L111.25 70.75 M96.1 73.2 Q98.25 80.95 101.5 88.05 103.95 93.35 108.15 97.25 111.6 100.4 116.2 99.85 L116.85 100.45 116.95 101.25 Q114.55 103.65 110.95 102.8 106.5 101.6 104.0 97.9 98.6 89.7 96.1 80.0 94.9 75.45 94.7 70.75 95.65 71.65 96.1 73.2" fill="#0f2953" fill-rule="evenodd" stroke="none"/>
      <path d="M78.9 107.7 L77.75 108.95 Q77.05 109.8 76.65 110.75 76.5 111.15 76.75 111.65 L77.05 112.25 Q86.8 101.45 98.2 92.15 100.65 98.35 105.45 102.8 108.7 105.8 113.05 106.0 115.75 106.05 117.95 104.35 119.45 103.25 119.1 101.45 118.55 98.75 116.95 96.85 112.05 90.85 107.3 84.65 111.3 81.45 115.35 78.45 113.55 86.65 116.6 94.5 119.55 102.15 126.2 107.25 115.65 112.25 104.95 116.85 99.65 119.15 93.8 119.7 L98.6 120.35 101.1 143.6 Q99.15 140.9 96.3 139.1 88.4 133.95 78.9 133.0 64.3 131.15 51.1 137.35 L50.0 139.5 53.85 130.95 Q56.3 125.75 59.8 121.05 67.05 111.15 78.9 107.7 M121.15 74.15 L126.35 70.45 127.3 76.0 127.4 76.5 Q129.2 87.4 134.2 97.1 135.6 99.75 137.55 102.0 L133.65 103.8 Q125.05 95.05 122.45 83.05 121.5 78.6 121.15 74.15 M45.3 146.45 Q55.85 142.35 66.95 141.55 78.65 140.45 89.95 143.95 96.85 146.1 102.1 151.15 L102.4 153.35 Q100.3 156.85 96.45 159.3 L96.45 158.95 Q96.5 157.55 95.95 156.5 97.0 152.7 93.1 151.3 88.55 149.55 83.6 149.5 70.9 148.85 58.2 150.95 50.05 152.05 42.5 155.5 40.95 156.2 41.2 157.8 41.3 158.6 41.8 159.35 L42.05 159.65 41.65 160.45 41.05 160.1 Q37.1 157.85 37.3 155.0 37.55 152.15 42.6 148.65 L45.3 146.45 M43.15 157.65 L43.35 157.05 43.75 156.75 43.15 157.65" fill="#f7bd1d" fill-rule="evenodd" stroke="none"/>
      <path d="M115.35 78.45 L121.15 74.15 Q121.5 78.6 122.45 83.05 125.05 95.05 133.65 103.8 L126.2 107.25 Q119.55 102.15 116.6 94.5 113.55 86.65 115.35 78.45 M45.3 146.45 L50.0 139.5 51.1 137.35 Q64.3 131.15 78.9 133.0 88.4 133.95 96.3 139.1 99.15 140.9 101.1 143.6 L102.1 151.15 Q96.85 146.1 89.95 143.95 78.65 140.45 66.95 141.55 55.85 142.35 45.3 146.45" fill="#e21f08" fill-rule="evenodd" stroke="none"/>
      <path d="M110.9 80.15 L110.9 76.7 114.2 77.6 110.9 80.15" fill="#f5e36a" fill-rule="evenodd" stroke="none"/>
      <path d="M86.75 100.2 L80.5 106.05 Q72.05 107.9 65.25 113.2 L60.55 116.9 Q57.75 115.0 56.45 111.85 L56.25 111.25 Q71.85 106.6 86.75 100.2 M49.3 182.8 L51.2 178.75 57.3 179.8 54.65 187.85 Q54.65 185.75 53.1 184.3 51.5 182.8 49.3 182.8" fill="#226ca7" fill-rule="evenodd" stroke="none"/>
      <path d="M59.55 118.8 Q54.4 126.2 50.6 134.05 48.05 130.5 46.85 126.4 L57.05 120.55 59.55 118.8" fill="#d49330" fill-rule="evenodd" stroke="none"/>
      <path d="M65.7 172.25 L68.45 171.8 Q69.35 174.8 66.6 176.7 63.35 178.95 59.4 178.85 L60.35 178.75 59.6 178.8 58.6 178.75 Q60.45 178.45 62.05 177.15 L62.65 176.6 62.85 175.65 Q62.6 174.7 61.7 174.55 58.15 174.1 54.7 172.95 L53.4 172.1 52.45 170.9 Q58.9 172.5 65.7 172.25 M68.3 186.75 L62.3 193.3 61.25 192.8 Q58.5 190.65 58.65 187.1 L59.25 186.35 62.15 185.6 68.3 186.75 M74.55 197.75 L79.6 190.9 83.2 191.5 93.55 191.9 94.6 192.5 Q93.15 195.15 90.25 196.25 82.6 199.35 74.55 197.75" fill="#2c1838" fill-rule="evenodd" stroke="none"/>
      <path d="M59.6 178.8 Q53.55 179.35 48.15 176.5 45.0 174.85 43.35 171.7 42.0 169.15 42.25 166.2 42.7 160.35 46.2 155.4 49.1 154.3 52.2 153.95 69.15 151.1 86.25 152.55 90.9 153.2 93.75 156.8 94.6 157.9 94.6 159.2 94.55 161.05 94.95 162.95 L97.6 176.35 Q98.7 182.85 96.95 189.2 96.6 190.5 95.75 191.6 95.25 190.45 93.9 190.5 L90.15 191.1 81.9 190.5 Q75.65 188.65 69.65 186.4 L66.45 185.1 Q63.85 184.15 61.15 184.4 66.4 179.15 69.7 172.65 70.05 171.95 69.8 171.35 L66.1 171.65 61.3 171.25 65.7 172.25 Q58.9 172.5 52.45 170.9 L53.4 172.1 54.7 172.95 Q58.15 174.1 61.7 174.55 62.6 174.7 62.85 175.65 L62.65 176.6 62.05 177.15 Q60.45 178.45 58.6 178.75 L59.6 178.8 M62.15 185.6 L63.1 185.6 Q66.05 185.6 68.3 186.75 L62.15 185.6" fill="#582d83" fill-rule="evenodd" stroke="none"/>
      <path d="M43.75 156.75 L43.35 157.05 43.15 157.65 42.05 159.65 41.8 159.35 Q41.3 158.6 41.2 157.8 40.95 156.2 42.5 155.5 50.05 152.05 58.2 150.95 70.9 148.85 83.6 149.5 88.55 149.55 93.1 151.3 97.0 152.7 95.95 156.5 93.0 152.55 87.9 151.95 75.2 150.85 62.35 152.0 53.65 152.8 45.2 154.8 L43.75 156.75" fill="#390608" fill-rule="evenodd" stroke="none"/>
    </g>
  </defs>
</svg>
