<?xml version="1.0" encoding="UTF-8" standalone="no"?>
<svg xmlns:xlink="http://www.w3.org/1999/xlink" height="409.3px" width="304.15px" xmlns="http://www.w3.org/2000/svg">
  <g transform="matrix(1.0, 0.0, 0.0, 1.0, 89.85, 223.9)">
    <use height="194.2" transform="matrix(0.8, 0.0, 0.0, 0.8, -41.96, -92.26)" width="156.2" xlink:href="#shape0"/>
  </g>
  <defs>
    <g id="shape0" transform="matrix(1.0, 0.0, 0.0, 1.0, -0.05, -0.05)">
      <path d="M114.3 19.4 L116.05 17.5 Q118.05 15.55 120.75 14.65 124.65 13.3 128.6 14.1 L129.65 14.35 129.2 13.5 130.0 14.4 Q131.9 13.0 133.05 11.0 134.7 8.1 134.05 4.9 133.65 2.85 131.7 2.6 131.2 2.8 130.9 3.15 129.1 5.35 127.7 7.95 L127.0 9.05 126.25 9.8 128.15 11.75 125.6 10.0 125.3 9.9 Q122.35 8.35 119.3 7.1 L115.85 5.35 110.05 1.55 109.05 1.15 Q107.55 1.35 107.65 2.6 L109.0 3.5 Q112.4 6.3 114.65 9.7 111.3 6.45 107.8 3.5 L107.15 2.95 Q105.3 1.45 103.55 2.8 102.4 5.15 103.55 7.7 105.0 10.8 107.3 13.25 109.35 15.5 110.95 17.9 L109.15 17.1 104.0 10.65 Q102.35 8.4 102.1 5.65 102.0 4.65 102.2 3.65 102.4 2.85 103.0 2.25 104.65 0.45 106.9 1.5 L107.45 0.6 Q108.75 -0.35 110.05 0.35 L113.05 2.45 Q115.2 4.05 117.7 5.15 L125.65 8.7 Q127.35 6.6 128.45 4.35 129.65 1.85 132.1 1.5 133.25 1.65 134.0 2.5 135.45 4.1 135.2 6.25 134.95 8.2 134.35 10.05 133.9 11.45 133.0 12.65 L131.1 15.0 131.25 15.15 132.35 18.65 134.9 19.85 Q139.9 22.4 144.0 26.3 L142.0 26.15 Q138.3 22.95 133.95 20.45 130.8 18.8 127.3 18.45 124.85 18.25 122.8 19.1 120.65 19.9 119.9 21.55 L118.3 20.95 Q120.7 18.3 124.2 17.7 127.75 16.95 131.05 18.2 L130.55 16.6 129.8 15.75 Q127.45 14.35 124.8 14.65 121.45 14.9 118.35 16.5 116.2 17.65 114.9 19.65 L114.3 19.4 M112.15 105.4 L112.85 105.95 116.1 103.95 Q115.15 102.45 113.65 101.55 L112.65 100.4 112.05 98.9 109.95 91.25 Q108.65 86.85 107.0 82.7 L104.6 76.95 100.2 78.1 105.45 76.25 109.45 74.9 131.35 68.15 135.75 66.65 138.05 65.45 Q139.7 64.3 140.85 62.75 142.95 59.8 143.25 56.3 143.5 53.6 142.6 50.85 140.9 45.9 136.2 43.85 132.45 42.15 128.25 42.8 L126.25 43.15 Q122.0 44.2 118.45 47.0 116.2 48.75 114.05 50.6 L113.65 50.95 109.95 53.95 106.55 56.2 97.55 61.6 91.6 64.65 88.05 66.25 91.1 64.5 Q85.15 62.6 79.2 64.3 75.9 65.3 72.75 66.8 70.4 68.0 68.5 69.8 L66.95 71.35 Q59.55 73.25 53.05 77.25 L50.9 79.05 50.15 79.7 Q49.0 80.75 48.05 81.95 45.8 84.6 45.75 88.05 45.75 89.2 46.05 90.35 46.3 91.3 46.9 92.15 L48.25 93.25 Q52.85 95.4 57.65 94.25 L57.95 93.5 63.15 83.9 61.45 88.9 57.75 97.65 57.25 98.75 63.25 96.3 60.85 98.25 57.0 100.45 55.2 101.1 Q54.05 101.45 53.0 102.05 51.5 103.1 51.35 105.15 51.3 106.1 51.6 107.05 53.05 111.35 55.75 115.2 L56.05 113.65 56.95 110.6 Q58.15 107.4 60.7 105.0 64.1 101.95 67.7 100.3 71.3 98.65 75.8 98.15 80.25 97.7 86.25 98.1 95.35 98.6 102.55 100.75 107.9 102.35 112.15 105.4 M112.25 50.7 Q116.9 47.2 121.85 44.1 124.0 42.8 126.45 42.1 130.3 40.9 134.25 41.65 L134.95 41.1 Q137.0 39.95 135.95 37.95 L137.5 38.4 137.55 39.5 137.2 40.55 Q136.6 41.6 135.5 41.95 139.3 43.2 141.65 46.45 143.65 49.3 144.05 52.9 148.45 49.35 151.3 44.55 153.35 41.1 151.7 37.65 L152.95 36.9 153.4 37.75 153.9 39.75 Q154.2 42.6 152.75 44.9 149.2 50.25 144.15 54.35 144.2 57.1 143.25 59.8 142.0 63.2 139.45 65.75 137.8 67.4 135.6 68.1 L116.0 73.6 105.7 76.65 Q108.8 83.35 111.0 90.25 L113.55 98.5 Q113.85 99.45 114.45 100.3 L116.65 102.9 118.1 104.6 114.15 106.95 116.0 108.85 119.65 113.2 Q126.75 122.9 131.3 134.1 132.8 137.8 133.25 141.9 133.65 145.35 132.15 148.35 129.75 153.2 125.1 155.95 117.75 160.2 109.2 160.0 L108.75 160.9 110.75 163.25 113.2 165.4 Q115.25 166.6 116.65 168.6 121.45 167.8 125.35 170.8 131.0 175.0 133.5 181.8 134.2 183.7 134.5 185.7 134.7 186.8 134.3 187.85 133.75 189.15 132.4 190.0 129.95 191.7 127.1 192.4 120.9 194.0 114.45 194.15 111.45 194.35 108.3 194.05 L103.6 193.45 Q97.8 191.75 94.55 186.65 91.15 181.25 89.75 175.0 88.45 169.2 91.45 164.05 92.05 163.0 92.9 162.1 L94.95 159.9 96.55 157.95 Q94.55 157.3 93.0 156.05 91.2 154.6 90.65 152.25 89.75 148.35 90.1 144.4 90.45 140.5 89.05 136.95 L89.05 139.55 88.6 141.4 Q88.25 142.25 87.5 142.85 86.7 143.55 85.65 143.9 L84.25 144.25 Q78.45 145.35 72.7 147.05 70.9 151.0 70.85 155.4 L76.85 160.1 Q79.25 161.95 81.1 164.2 L81.75 165.55 Q81.95 166.35 81.75 167.2 81.5 168.05 80.85 168.75 79.25 170.35 77.25 171.15 73.6 172.35 69.75 172.8 63.75 173.3 57.65 172.75 L51.75 171.55 Q50.55 171.25 49.85 170.55 L48.85 169.35 Q47.95 167.7 48.95 166.05 51.8 161.5 56.4 158.6 59.35 156.75 60.8 153.7 62.45 150.25 64.4 147.2 61.9 146.65 59.9 145.1 L57.1 142.3 54.1 138.45 53.9 138.3 Q53.25 137.65 52.95 136.85 52.35 135.25 53.15 133.8 L53.85 132.3 Q54.95 130.1 55.3 127.7 L55.4 124.4 Q55.2 120.7 55.5 117.15 52.95 113.95 51.35 110.3 L49.95 106.65 49.65 105.1 Q49.6 103.8 50.3 102.7 50.75 101.9 51.4 101.35 53.0 99.85 55.1 99.7 L57.25 95.15 55.4 95.35 46.65 102.5 41.9 106.25 Q39.7 107.8 37.0 108.1 34.75 108.35 32.95 106.95 30.6 105.1 29.5 102.4 L29.15 101.25 Q28.15 97.45 31.05 95.0 33.15 93.25 35.75 94.0 37.05 94.25 37.05 95.5 L38.15 94.65 38.65 94.25 43.45 90.0 44.7 88.95 44.7 88.3 Q44.75 86.45 45.55 84.7 46.25 83.2 47.25 81.85 50.4 77.55 54.85 75.35 L55.95 74.8 56.55 74.5 65.5 71.15 67.9 68.7 Q69.8 66.85 72.1 65.35 77.65 61.9 84.25 61.95 88.55 62.0 92.65 63.6 L109.35 52.9 111.35 51.4 112.25 50.7 M112.75 25.6 Q111.25 27.05 109.4 27.7 L105.5 28.0 104.5 26.5 105.15 26.8 Q109.0 27.75 111.85 25.1 L112.75 25.6 M103.2 20.4 L104.75 21.2 Q103.85 21.2 103.2 22.1 102.55 23.0 102.55 24.25 L101.25 23.1 101.25 23.05 Q101.4 21.1 103.2 20.4 M35.0 94.4 Q33.45 94.0 31.85 94.95 L30.35 96.7 Q29.25 98.1 29.45 99.85 29.85 102.95 32.2 105.25 33.65 106.75 35.85 107.05 38.65 107.35 41.15 105.85 L42.65 104.75 54.8 95.4 52.6 95.4 Q49.9 95.3 47.55 94.05 45.05 92.65 44.75 89.9 L34.3 98.45 36.4 95.5 Q36.1 94.45 35.0 94.4 M71.65 124.9 L70.5 124.3 71.9 124.55 78.55 124.0 Q82.3 123.15 85.6 121.75 88.0 126.95 89.65 132.45 91.5 138.55 91.2 144.95 91.0 148.9 92.7 152.35 93.0 150.0 94.55 148.2 96.45 146.0 98.95 144.45 101.8 142.7 105.15 141.4 116.0 137.3 127.2 140.0 130.4 140.75 132.05 143.45 131.85 139.9 130.7 136.55 127.2 126.45 121.35 117.55 119.05 114.0 116.45 110.9 L114.2 108.65 Q112.3 106.95 110.2 105.55 108.0 104.15 105.6 103.1 100.4 100.9 94.95 100.05 L83.85 98.95 74.45 99.45 Q69.45 100.25 65.35 103.25 L62.05 105.95 Q58.4 109.45 57.45 114.5 56.55 119.45 56.9 124.25 57.25 128.55 55.35 132.7 L54.7 134.2 Q53.6 136.65 55.6 138.75 L58.6 141.85 Q60.5 143.7 62.95 144.75 66.25 146.25 69.95 145.85 L77.95 144.0 Q80.9 143.15 84.1 142.8 85.45 142.55 86.5 141.65 L87.2 141.4 Q87.8 140.15 87.9 138.8 L87.95 136.55 87.8 134.15 87.0 130.45 86.6 128.9 85.55 126.4 84.35 124.85 82.55 125.35 Q77.0 127.35 71.65 124.9 M68.75 153.95 L68.55 154.55 68.5 153.7 Q68.4 152.0 67.05 151.15 65.45 150.25 63.65 150.7 62.5 152.7 61.7 154.55 L60.7 156.2 58.8 158.05 55.05 161.3 Q53.25 163.1 51.8 165.15 51.2 165.95 51.0 167.0 50.8 167.9 51.1 168.75 51.7 170.4 53.65 170.75 59.5 172.05 65.3 171.65 71.95 171.5 78.15 169.1 79.9 168.5 80.1 166.85 79.3 165.05 78.0 163.95 73.4 159.95 68.3 156.6 L68.75 153.95 M128.45 142.05 Q125.55 140.65 122.2 140.55 L115.75 140.8 Q116.35 145.5 114.4 149.65 L109.7 159.1 Q115.95 158.55 121.75 156.25 L125.1 154.7 Q126.85 153.85 128.3 152.6 131.5 149.9 131.1 145.9 130.8 143.2 128.45 142.05 M114.65 143.3 L114.65 140.95 111.6 141.45 Q106.65 142.35 102.15 144.2 L102.5 148.5 Q102.3 149.85 101.7 151.05 99.75 155.05 97.1 158.8 L100.45 159.0 97.95 159.15 Q96.95 159.3 96.35 159.7 91.75 162.7 90.85 168.1 90.15 172.25 91.3 176.4 92.75 181.6 96.15 186.0 98.05 189.4 101.3 191.15 104.7 192.9 108.65 192.9 L122.3 192.05 Q125.85 191.6 129.05 189.95 L130.3 189.55 Q131.75 189.05 132.45 187.75 133.1 187.1 133.15 186.2 133.35 183.55 132.4 181.3 129.55 174.55 123.5 170.55 121.0 168.95 117.95 169.4 L116.7 169.9 117.1 170.45 118.15 172.15 119.25 174.2 Q119.8 175.5 119.95 176.85 117.45 172.25 114.05 168.45 113.0 167.25 111.8 166.55 110.05 165.5 109.2 163.7 108.4 161.95 107.9 160.2 L108.8 158.75 111.7 153.55 Q114.5 148.85 114.65 143.3 M101.6 144.4 Q96.2 146.4 93.45 151.45 92.45 153.4 94.05 154.8 L94.95 155.4 97.35 156.7 Q100.4 152.7 101.55 148.2 L101.6 144.4" fill="#000000" fill-rule="evenodd" stroke="none"/>
      <path d="M110.95 17.9 Q109.35 15.5 107.3 13.25 105.0 10.8 103.55 7.7 102.4 5.15 103.55 2.8 105.3 1.45 107.15 2.95 L107.8 3.5 Q111.3 6.45 114.65 9.7 112.4 6.3 109.0 3.5 L107.65 2.6 Q107.55 1.35 109.05 1.15 L110.05 1.55 115.85 5.35 119.3 7.1 Q122.35 8.35 125.3 9.9 L125.6 10.0 128.15 11.75 126.25 9.8 127.0 9.05 127.7 7.95 Q129.1 5.35 130.9 3.15 131.2 2.8 131.7 2.6 133.65 2.85 134.05 4.9 134.7 8.1 133.05 11.0 131.9 13.0 130.0 14.4 L129.2 13.5 129.65 14.35 128.6 14.1 Q124.65 13.3 120.75 14.65 118.05 15.55 116.05 17.5 L114.3 19.4 110.95 17.9 M114.9 19.65 Q116.2 17.65 118.35 16.5 121.45 14.9 124.8 14.65 127.45 14.35 129.8 15.75 L130.55 16.6 131.05 18.2 Q127.75 16.95 124.2 17.7 120.7 18.3 118.3 20.95 L114.9 19.65 M43.45 90.0 L38.65 94.25 Q37.4 92.45 35.25 91.9 L33.3 92.05 Q28.75 92.6 27.3 96.95 26.6 99.1 27.9 100.85 22.55 98.95 20.45 93.85 18.75 89.75 21.0 86.2 L21.35 87.35 Q21.5 84.55 22.9 82.5 23.85 81.1 25.4 80.25 L25.1 82.65 Q25.85 80.75 26.75 79.0 27.15 78.15 27.8 77.45 L29.25 76.55 Q32.6 75.55 35.2 77.75 37.9 80.05 38.7 83.55 L38.0 83.0 37.85 81.95 37.6 82.5 36.05 80.8 36.7 82.3 Q37.5 83.9 39.35 84.3 40.45 84.6 41.3 85.25 43.75 87.0 43.45 90.0 M38.15 94.65 L37.05 95.5 Q37.05 94.25 35.75 94.0 33.15 93.25 31.05 95.0 28.15 97.45 29.15 101.25 27.95 100.3 27.7 98.6 27.5 96.85 29.2 94.7 31.1 92.65 33.3 92.45 35.55 92.25 37.1 93.4 37.8 93.95 38.15 94.65 M102.55 24.25 Q102.55 23.0 103.2 22.1 103.85 21.2 104.75 21.2 L111.85 25.1 Q109.0 27.75 105.15 26.8 L104.5 26.5 102.55 24.25" fill="#ffffff" fill-rule="evenodd" stroke="none"/>
      <path d="M119.9 21.55 Q120.65 19.9 122.8 19.1 124.85 18.25 127.3 18.45 130.8 18.8 133.95 20.45 138.3 22.95 142.0 26.15 L140.1 26.05 Q129.7 25.3 119.9 21.55 M111.35 51.4 L109.35 52.9 105.25 53.0 93.0 55.95 Q83.8 58.4 75.1 62.3 67.45 65.7 58.95 65.5 L53.0 65.45 56.55 74.5 55.95 74.8 Q50.0 66.05 47.35 55.75 46.7 53.1 46.55 50.4 46.45 47.75 46.7 45.15 47.05 41.5 48.55 38.25 53.0 28.4 63.15 24.25 L62.1 23.85 Q63.3 19.1 67.55 16.45 73.7 12.7 80.3 15.8 82.75 17.0 84.35 18.9 L83.3 20.15 93.25 20.6 Q93.35 22.7 94.0 24.6 94.6 26.25 96.45 26.05 L97.15 25.6 97.85 24.95 97.55 22.15 Q101.2 24.1 103.55 27.4 L106.2 31.9 Q107.4 34.4 108.2 37.05 109.4 41.1 110.25 45.3 L111.35 51.4 M151.7 37.65 Q153.35 41.1 151.3 44.55 148.45 49.35 144.05 52.9 143.65 49.3 141.65 46.45 139.3 43.2 135.5 41.95 136.6 41.6 137.2 40.55 L137.55 39.5 137.5 38.4 Q141.3 39.45 145.4 39.35 148.7 39.2 151.7 37.65 M35.0 94.4 Q36.1 94.45 36.4 95.5 L34.3 98.45 44.75 89.9 Q45.05 92.65 47.55 94.05 49.9 95.3 52.6 95.4 L54.8 95.4 42.65 104.75 41.15 105.85 Q38.65 107.35 35.85 107.05 33.65 106.75 32.2 105.25 29.85 102.95 29.45 99.85 29.25 98.1 30.35 96.7 L31.85 94.95 Q33.45 94.0 35.0 94.4 M68.75 153.95 L68.3 156.6 Q73.4 159.95 78.0 163.95 79.3 165.05 80.1 166.85 79.9 168.5 78.15 169.1 71.95 171.5 65.3 171.65 59.5 172.05 53.65 170.75 51.7 170.4 51.1 168.75 50.8 167.9 51.0 167.0 51.2 165.95 51.8 165.15 53.25 163.1 55.05 161.3 L58.8 158.05 60.7 156.2 61.7 154.55 Q62.5 152.7 63.65 150.7 65.45 150.25 67.05 151.15 68.4 152.0 68.5 153.7 L68.55 154.55 68.75 153.95" fill="#468fbc" fill-rule="evenodd" stroke="none"/>
      <path d="M152.6 29.4 Q153.35 29.8 153.3 30.7 153.2 32.0 152.6 32.85 151.0 35.05 148.45 36.2 145.25 37.55 141.85 37.0 137.7 36.35 133.7 34.8 125.0 31.7 117.35 26.25 L116.0 25.15 115.95 24.9 Q117.85 25.35 119.7 26.35 127.2 30.15 135.1 32.45 138.8 33.5 142.65 33.7 146.05 33.85 148.75 32.1 L150.05 30.75 Q151.15 29.35 152.6 29.4 M53.6 28.95 L52.45 30.1 Q52.1 29.15 51.45 28.85 50.5 28.45 48.45 29.9 41.45 34.95 34.3 38.05 27.1 41.2 20.8 42.15 L9.95 41.75 Q8.6 41.25 8.75 40.4 8.9 39.55 9.6 39.3 3.35 39.15 0.6 42.95 1.5 40.95 3.5 39.65 7.9 36.85 13.1 37.9 L15.75 38.55 Q21.05 39.05 26.3 37.8 32.25 36.45 37.85 34.25 41.6 32.65 44.9 30.5 L47.15 28.9 Q49.05 27.45 51.2 27.15 52.95 27.25 53.6 28.95" fill="#0f2953" fill-rule="evenodd" stroke="none"/>
      <path d="M110.95 17.9 L114.3 19.4 114.9 19.65 118.3 20.95 119.9 21.55 Q129.7 25.3 140.1 26.05 L142.0 26.15 144.0 26.3 150.05 26.9 Q153.2 27.25 154.9 28.35 156.55 29.45 156.2 31.8 155.9 33.9 154.05 35.9 L152.95 36.9 151.7 37.65 Q148.7 39.2 145.4 39.35 141.3 39.45 137.5 38.4 L135.95 37.95 Q131.4 36.3 127.25 33.85 120.1 29.45 112.75 25.6 L111.85 25.1 104.75 21.2 103.2 20.4 101.85 19.75 Q99.05 18.45 98.3 19.1 97.7 19.8 97.6 20.8 99.6 21.75 101.25 23.1 L102.55 24.25 104.5 26.5 105.5 28.0 Q107.4 31.05 108.5 34.45 111.05 42.3 112.25 50.7 L111.35 51.4 110.25 45.3 Q109.4 41.1 108.2 37.05 107.4 34.4 106.2 31.9 L103.55 27.4 Q101.2 24.1 97.55 22.15 L97.85 24.95 97.15 25.6 96.45 26.05 Q94.6 26.25 94.0 24.6 93.35 22.7 93.25 20.6 L83.3 20.15 84.35 18.9 Q82.75 17.0 80.3 15.8 73.7 12.7 67.55 16.45 63.3 19.1 62.1 23.85 L63.15 24.25 Q53.0 28.4 48.55 38.25 47.05 41.5 46.7 45.15 46.45 47.75 46.55 50.4 46.7 53.1 47.35 55.75 50.0 66.05 55.95 74.8 L54.85 75.35 52.05 70.9 Q49.75 66.4 47.75 61.7 46.1 57.65 45.5 53.35 43.95 42.0 50.4 32.55 48.95 33.2 47.5 34.3 L44.8 36.4 Q39.8 39.95 34.25 42.7 L27.8 45.95 Q19.0 50.2 9.5 51.1 5.55 51.05 2.15 49.1 0.65 48.3 0.2 46.5 -0.2 44.7 0.6 42.95 3.35 39.15 9.6 39.3 8.9 39.55 8.75 40.4 8.6 41.25 9.95 41.75 L20.8 42.15 Q27.1 41.2 34.3 38.05 41.45 34.95 48.45 29.9 50.5 28.45 51.45 28.85 52.1 29.15 52.45 30.1 L53.6 28.95 Q56.75 26.0 61.05 24.15 62.3 19.4 65.25 16.75 68.2 14.1 71.95 13.5 75.7 12.85 79.25 14.25 82.85 15.65 85.25 19.0 L93.25 19.35 93.55 17.25 Q94.3 14.5 96.7 13.6 99.05 12.75 103.3 14.5 L109.15 17.1 110.95 17.9 M44.7 88.3 L44.7 88.95 43.45 90.0 Q43.75 87.0 41.3 85.25 40.45 84.6 39.35 84.3 37.5 83.9 36.7 82.3 L36.05 80.8 37.6 82.5 37.85 81.95 38.0 83.0 38.7 83.55 Q37.9 80.05 35.2 77.75 32.6 75.55 29.25 76.55 L27.8 77.45 Q27.15 78.15 26.75 79.0 25.85 80.75 25.1 82.65 L25.4 80.25 Q23.85 81.1 22.9 82.5 21.5 84.55 21.35 87.35 L21.0 86.2 Q18.75 89.75 20.45 93.85 22.55 98.95 27.9 100.85 26.6 99.1 27.3 96.95 28.75 92.6 33.3 92.05 L35.25 91.9 Q37.4 92.45 38.65 94.25 L38.15 94.65 Q37.8 93.95 37.1 93.4 35.55 92.25 33.3 92.45 31.1 92.65 29.2 94.7 27.5 96.85 27.7 98.6 27.95 100.3 29.15 101.25 L29.5 102.4 26.3 101.35 Q23.25 100.35 21.3 97.75 19.8 95.65 19.05 93.4 17.6 88.95 20.15 85.05 L22.15 82.35 Q23.45 80.8 25.05 79.55 L25.55 79.3 Q26.6 77.65 27.9 76.25 28.65 75.45 29.75 75.15 L31.5 74.75 Q34.9 75.05 37.0 77.5 38.45 79.15 39.0 81.1 L39.5 83.4 40.8 83.7 Q43.65 84.3 44.45 87.2 L44.7 88.3 M152.6 29.4 Q151.15 29.35 150.05 30.75 L148.75 32.1 Q146.05 33.85 142.65 33.7 138.8 33.5 135.1 32.45 127.2 30.15 119.7 26.35 117.85 25.35 115.95 24.9 L116.0 25.15 117.35 26.25 Q125.0 31.7 133.7 34.8 137.7 36.35 141.85 37.0 145.25 37.55 148.45 36.2 151.0 35.05 152.6 32.85 153.2 32.0 153.3 30.7 153.35 29.8 152.6 29.4" fill="#0b0923" fill-rule="evenodd" stroke="none"/>
      <path d="M53.05 77.25 Q59.55 73.25 66.95 71.35 L68.5 69.8 Q70.4 68.0 72.75 66.8 75.9 65.3 79.2 64.3 85.15 62.6 91.1 64.5 L88.05 66.25 91.6 64.65 97.55 61.6 106.55 56.2 109.95 53.95 113.65 50.95 114.05 50.6 Q116.2 48.75 118.45 47.0 122.0 44.2 126.25 43.15 L128.25 42.8 Q132.45 42.15 136.2 43.85 140.9 45.9 142.6 50.85 143.5 53.6 143.25 56.3 142.95 59.8 140.85 62.75 139.7 64.3 138.05 65.45 L135.75 66.65 131.35 68.15 109.45 74.9 105.45 76.25 100.2 78.1 104.6 76.95 107.0 82.7 Q108.65 86.85 109.95 91.25 L112.05 98.9 112.65 100.4 113.65 101.55 Q115.15 102.45 116.1 103.95 L112.85 105.95 112.15 105.4 113.15 104.75 113.7 104.3 114.15 103.65 Q113.0 102.4 111.25 102.05 L103.35 99.7 Q92.8 96.2 81.85 96.8 75.9 96.7 70.2 98.45 65.65 99.75 61.75 102.5 58.95 104.6 55.35 105.15 54.4 105.3 53.9 106.2 53.6 106.7 53.65 107.25 53.8 110.65 56.05 113.65 L55.75 115.2 Q53.05 111.35 51.6 107.05 51.3 106.1 51.35 105.15 51.5 103.1 53.0 102.05 54.05 101.45 55.2 101.1 L57.0 100.45 60.85 98.25 63.25 96.3 57.25 98.75 57.75 97.65 Q60.35 95.4 63.65 93.65 68.3 91.2 73.4 90.0 L78.5 88.8 Q88.35 87.6 98.05 89.7 104.2 91.1 110.1 93.35 L107.5 84.85 Q96.65 81.25 85.15 81.55 77.45 81.75 70.0 84.05 L66.75 85.15 Q63.9 86.4 61.75 88.5 L61.65 88.65 61.45 88.9 63.15 83.9 57.95 93.5 59.15 90.65 57.0 90.85 54.0 89.8 Q52.6 89.1 51.65 87.9 50.75 86.8 50.7 85.2 50.65 80.9 53.05 77.25 M129.05 49.4 Q131.65 50.8 133.0 54.15 133.7 56.05 134.0 57.7 L134.0 63.15 133.6 64.6 132.3 67.25 131.75 68.0 127.5 69.25 122.9 70.45 123.85 69.4 125.65 66.5 Q126.55 64.65 126.75 62.2 126.9 59.75 125.6 56.9 124.15 54.1 121.65 53.15 119.2 52.15 116.65 52.25 L111.8 52.6 Q112.75 52.4 115.05 50.1 117.3 47.8 119.2 47.6 121.1 47.35 123.8 47.65 126.45 47.95 129.05 49.4 M50.9 79.05 Q49.6 80.25 48.55 81.7 L48.3 82.4 Q47.2 86.65 49.6 90.15 L51.0 91.6 53.0 92.65 56.0 93.45 57.95 93.5 57.65 94.25 Q52.85 95.4 48.25 93.25 L46.9 92.15 Q46.3 91.3 46.05 90.35 45.75 89.2 45.75 88.05 45.8 84.6 48.05 81.95 49.0 80.75 50.15 79.7 L50.9 79.05" fill="#f7bd1d" fill-rule="evenodd" stroke="none"/>
      <path d="M109.35 52.9 L92.65 63.6 Q88.55 62.0 84.25 61.95 77.65 61.9 72.1 65.35 69.8 66.85 67.9 68.7 L65.5 71.15 56.55 74.5 53.0 65.45 58.95 65.5 Q67.45 65.7 75.1 62.3 83.8 58.4 93.0 55.95 L105.25 53.0 109.35 52.9 M102.5 148.5 L102.15 144.2 Q106.65 142.35 111.6 141.45 L114.65 140.95 114.65 143.3 Q110.95 142.45 107.35 144.0 105.1 145.0 103.5 147.2 L102.5 148.5 M132.45 187.75 Q131.75 189.05 130.3 189.55 L129.05 189.95 Q125.85 191.6 122.3 192.05 L108.65 192.9 Q104.7 192.9 101.3 191.15 98.05 189.4 96.15 186.0 L95.05 183.75 Q94.1 181.3 94.2 178.95 94.3 176.65 95.7 175.05 97.15 173.5 100.15 173.3 102.55 173.25 104.5 174.6 106.45 175.9 108.25 177.9 L112.0 181.75 Q114.0 183.65 116.4 184.75 118.85 185.85 122.0 185.45 127.35 184.7 129.8 185.35 132.25 186.0 132.45 187.1 L132.45 187.75" fill="#226ca7" fill-rule="evenodd" stroke="none"/>
      <path d="M53.05 77.25 Q50.65 80.9 50.7 85.2 50.75 86.8 51.65 87.9 52.6 89.1 54.0 89.8 L57.0 90.85 59.15 90.65 57.95 93.5 56.0 93.45 53.0 92.65 51.0 91.6 49.6 90.15 Q47.2 86.65 48.3 82.4 L48.55 81.7 Q49.6 80.25 50.9 79.05 L53.05 77.25 M61.45 88.9 L61.65 88.65 61.75 88.5 Q63.9 86.4 66.75 85.15 L70.0 84.05 Q77.45 81.75 85.15 81.55 96.65 81.25 107.5 84.85 L110.1 93.35 Q104.2 91.1 98.05 89.7 88.35 87.6 78.5 88.8 L73.4 90.0 Q68.3 91.2 63.65 93.65 60.35 95.4 57.75 97.65 L61.45 88.9 M129.05 49.4 Q126.45 47.95 123.8 47.65 121.1 47.35 119.2 47.6 117.3 47.8 115.05 50.1 112.75 52.4 111.8 52.6 L116.65 52.25 Q119.2 52.15 121.65 53.15 124.15 54.1 125.6 56.9 126.9 59.75 126.75 62.2 126.55 64.65 125.65 66.5 L123.85 69.4 122.9 70.45 127.5 69.25 131.75 68.0 132.3 67.25 133.6 64.6 134.0 63.15 134.0 57.7 Q133.7 56.05 133.0 54.15 131.65 50.8 129.05 49.4" fill="#e21f08" fill-rule="evenodd" stroke="none"/>
      <path d="M56.05 113.65 Q53.8 110.65 53.65 107.25 53.6 106.7 53.9 106.2 54.4 105.3 55.35 105.15 58.95 104.6 61.75 102.5 65.65 99.75 70.2 98.45 75.9 96.7 81.85 96.8 92.8 96.2 103.35 99.7 L111.25 102.05 Q113.0 102.4 114.15 103.65 L113.7 104.3 113.15 104.75 112.15 105.4 Q107.9 102.35 102.55 100.75 95.35 98.6 86.25 98.1 80.25 97.7 75.8 98.15 71.3 98.65 67.7 100.3 64.1 101.95 60.7 105.0 58.15 107.4 56.95 110.6 L56.05 113.65" fill="#390608" fill-rule="evenodd" stroke="none"/>
      <path d="M86.5 141.65 Q85.45 142.55 84.1 142.8 80.9 143.15 77.95 144.0 L69.95 145.85 Q66.25 146.25 62.95 144.75 60.5 143.7 58.6 141.85 L55.6 138.75 Q53.6 136.65 54.7 134.2 L55.35 132.7 Q57.25 128.55 56.9 124.25 56.55 119.45 57.45 114.5 58.4 109.45 62.05 105.95 L65.35 103.25 Q69.45 100.25 74.45 99.45 L83.85 98.95 94.95 100.05 Q100.4 100.9 105.6 103.1 108.0 104.15 110.2 105.55 112.3 106.95 114.2 108.65 L116.45 110.9 Q119.05 114.0 121.35 117.55 127.2 126.45 130.7 136.55 131.85 139.9 132.05 143.45 130.4 140.75 127.2 140.0 116.0 137.3 105.15 141.4 101.8 142.7 98.95 144.45 96.45 146.0 94.55 148.2 93.0 150.0 92.7 152.35 91.0 148.9 91.2 144.95 91.5 138.55 89.65 132.45 88.0 126.95 85.6 121.75 82.3 123.15 78.55 124.0 L71.9 124.55 70.5 124.3 71.65 124.9 65.05 124.05 66.65 124.85 71.55 127.15 Q73.8 128.3 75.95 129.75 L78.9 132.25 Q83.0 136.55 86.5 141.65" fill="#582d83" fill-rule="evenodd" stroke="none"/>
      <path d="M71.65 124.9 Q77.0 127.35 82.55 125.35 L84.35 124.85 85.55 126.4 86.6 128.9 87.0 130.45 87.8 134.15 87.95 136.55 87.9 138.8 Q87.8 140.15 87.2 141.4 L86.5 141.65 Q83.0 136.55 78.9 132.25 L75.95 129.75 Q73.8 128.3 71.55 127.15 L66.65 124.85 65.05 124.05 71.65 124.9 M128.45 142.05 Q130.8 143.2 131.1 145.9 131.5 149.9 128.3 152.6 126.85 153.85 125.1 154.7 L121.75 156.25 Q115.95 158.55 109.7 159.1 L114.4 149.65 Q116.35 145.5 115.75 140.8 L122.2 140.55 Q125.55 140.65 128.45 142.05 M101.6 144.4 L101.55 148.2 Q100.4 152.7 97.35 156.7 L94.95 155.4 94.05 154.8 Q92.45 153.4 93.45 151.45 96.2 146.4 101.6 144.4" fill="#2c1838" fill-rule="evenodd" stroke="none"/>
      <path d="M102.5 148.5 L103.5 147.2 Q105.1 145.0 107.35 144.0 110.95 142.45 114.65 143.3 114.5 148.85 111.7 153.55 L108.8 158.75 107.9 160.2 Q108.4 161.95 109.2 163.7 110.05 165.5 111.8 166.55 113.0 167.25 114.05 168.45 117.45 172.25 119.95 176.85 119.8 175.5 119.25 174.2 L118.15 172.15 117.1 170.45 116.7 169.9 117.95 169.4 Q121.0 168.95 123.5 170.55 129.55 174.55 132.4 181.3 133.35 183.55 133.15 186.2 133.1 187.1 132.45 187.75 L132.45 187.1 Q132.25 186.0 129.8 185.35 127.35 184.7 122.0 185.45 118.85 185.85 116.4 184.75 114.0 183.65 112.0 181.75 L108.25 177.9 Q106.45 175.9 104.5 174.6 102.55 173.25 100.15 173.3 97.15 173.5 95.7 175.05 94.3 176.65 94.2 178.95 94.1 181.3 95.05 183.75 L96.15 186.0 Q92.75 181.6 91.3 176.4 90.15 172.25 90.85 168.1 91.75 162.7 96.35 159.7 96.95 159.3 97.95 159.15 L100.45 159.0 97.1 158.8 Q99.75 155.05 101.7 151.05 102.3 149.85 102.5 148.5" fill="#3a7db4" fill-rule="evenodd" stroke="none"/>
    </g>
  </defs>
</svg>
