<?xml version="1.0" encoding="UTF-8" standalone="no"?>
<svg xmlns:xlink="http://www.w3.org/1999/xlink" height="409.3px" width="304.15px" xmlns="http://www.w3.org/2000/svg">
  <g transform="matrix(1.0, 0.0, 0.0, 1.0, 89.85, 223.9)">
    <use height="153.9" transform="matrix(0.8, 0.0, 0.0, 0.8, -53.12, -79.5)" width="167.5" xlink:href="#shape0"/>
  </g>
  <defs>
    <g id="shape0" transform="matrix(1.0, 0.0, 0.0, 1.0, -0.35, 0.0)">
      <path d="M160.95 146.8 Q163.15 144.7 164.4 141.85 165.8 138.65 166.0 135.15 L166.3 127.25 Q166.1 117.0 162.7 107.3 160.65 101.5 156.65 96.85 154.85 94.7 152.4 93.55 150.25 92.5 148.0 92.95 141.8 93.5 139.2 98.95 138.35 100.75 138.65 102.7 139.4 107.2 139.7 111.8 140.05 117.5 138.55 122.95 L136.5 130.4 Q135.5 133.85 135.15 137.4 134.75 141.5 136.8 145.05 138.15 147.3 140.35 148.65 L142.2 149.75 143.85 150.6 Q146.65 151.75 149.5 151.8 L150.9 151.75 152.6 151.75 153.05 151.45 Q155.75 150.85 158.2 149.2 159.7 148.2 160.95 146.8 M108.25 48.2 Q114.25 48.85 119.8 51.8 123.55 53.7 125.45 57.25 127.0 60.15 126.2 63.55 125.95 64.65 125.1 65.55 123.05 67.55 120.35 68.9 L124.2 74.0 125.8 75.45 130.65 78.85 125.65 84.25 Q127.85 88.1 127.85 92.55 129.65 90.6 132.1 89.8 135.3 88.55 138.4 89.7 141.15 90.6 143.0 92.85 145.25 91.95 147.8 91.7 151.25 91.45 154.2 93.25 156.45 94.6 158.05 96.7 161.35 101.2 163.4 106.5 168.55 119.55 167.75 133.8 167.65 135.9 167.15 138.0 166.45 140.9 165.15 143.4 163.4 146.85 160.4 149.45 156.4 152.8 151.0 153.25 L146.7 152.55 142.4 151.1 Q140.35 150.1 138.45 148.9 136.4 147.55 135.2 145.45 134.25 143.7 134.05 141.75 133.45 135.7 135.35 129.75 130.3 131.3 125.05 131.45 120.2 131.6 115.65 129.95 113.45 129.2 111.7 127.75 108.15 124.65 106.4 120.1 L101.85 108.4 Q97.95 111.65 95.05 115.45 93.8 117.15 93.0 119.0 92.35 120.5 92.1 122.2 L89.5 124.4 Q88.1 125.5 86.5 126.25 83.35 127.7 80.15 127.55 L80.75 130.65 81.35 131.95 Q83.95 135.5 87.75 137.9 L90.7 139.7 Q92.55 140.7 94.2 142.05 L97.2 144.9 Q99.2 147.25 99.4 150.5 L96.8 151.7 94.1 152.65 Q85.05 154.35 75.8 153.75 71.2 153.7 66.8 152.6 65.05 152.05 63.4 151.3 L61.95 150.25 Q62.3 148.7 63.35 147.55 65.95 144.7 69.45 143.25 72.5 142.0 75.45 140.9 L72.95 139.35 70.75 137.55 Q69.55 136.35 68.65 134.95 65.7 130.0 67.6 124.55 L65.8 123.15 63.55 120.85 Q63.0 120.1 63.0 119.2 63.15 111.95 65.65 105.15 62.95 102.15 60.6 98.9 60.05 98.2 59.8 97.25 L59.3 99.1 Q60.65 100.7 60.5 102.8 L60.25 103.95 Q59.7 105.55 58.25 106.6 57.15 107.55 55.65 107.5 L51.3 103.25 Q50.75 102.65 50.45 101.85 L51.8 98.45 49.3 102.2 46.5 105.55 44.6 107.05 Q43.15 107.85 41.5 107.7 39.65 107.55 38.65 105.85 37.35 103.7 38.2 101.3 38.65 100.0 39.85 99.1 43.1 96.85 45.75 93.95 L44.0 93.5 Q41.1 93.25 39.35 91.15 L27.0 97.45 Q24.4 98.7 21.4 98.75 L18.7 98.4 Q14.0 96.75 12.95 91.6 L12.55 90.05 Q12.05 87.45 13.3 85.05 15.25 81.2 19.45 81.0 20.75 81.05 21.75 81.75 23.0 82.75 23.45 84.35 L24.4 83.8 25.15 83.4 27.7 81.95 30.65 80.25 36.25 77.1 Q36.95 74.25 38.3 72.35 40.0 69.95 41.85 69.6 L45.2 68.7 47.9 67.75 49.05 67.35 51.95 66.25 65.9 60.5 66.25 60.8 49.8 68.45 44.15 70.65 Q39.4 71.95 37.95 76.85 36.3 82.45 38.9 87.65 40.0 89.75 41.75 91.05 44.05 92.75 46.8 92.55 49.75 92.45 52.2 90.7 55.65 88.2 57.95 84.95 L59.7 82.95 Q66.5 76.05 74.6 70.8 L75.2 70.4 67.65 76.7 67.4 79.8 66.3 88.15 68.15 86.6 Q68.75 86.1 68.25 86.7 67.25 87.85 66.55 89.2 65.55 91.15 64.85 93.25 61.45 94.6 62.0 98.15 62.15 99.05 62.75 99.75 L66.2 103.75 66.9 102.2 Q68.7 98.15 71.5 94.9 73.65 92.4 76.55 90.9 L79.95 89.0 Q89.55 83.35 100.25 80.95 107.2 79.35 114.15 79.5 119.8 79.65 124.3 82.8 L128.45 78.8 126.85 77.9 125.15 77.2 124.25 76.55 Q122.2 74.1 120.5 71.45 115.0 62.65 107.85 55.55 100.75 48.55 90.9 48.05 85.6 47.8 80.8 49.8 75.65 51.95 71.75 55.9 L68.55 59.2 66.7 60.6 Q68.75 56.65 72.1 53.6 74.9 51.05 78.35 49.3 80.55 48.3 82.9 47.6 L87.85 46.6 92.9 47.1 106.2 48.05 107.25 48.1 108.25 48.2 M111.0 50.45 L102.05 49.8 Q110.15 55.1 115.95 62.95 L118.35 66.15 119.8 68.2 Q122.7 66.9 124.55 64.45 125.5 63.2 125.35 61.55 124.95 57.6 121.9 55.05 L119.1 53.1 Q115.65 51.1 111.5 50.55 L111.0 50.45 M106.9 118.2 L109.3 123.05 Q110.35 125.05 111.95 126.25 115.6 128.9 120.15 129.7 128.15 130.9 135.8 128.05 131.75 128.35 129.25 124.9 127.25 122.05 125.85 118.8 125.15 117.1 124.8 115.35 123.9 110.9 125.5 106.45 L127.55 100.65 Q128.55 97.65 130.45 95.35 132.85 92.25 136.8 91.55 137.55 91.85 138.15 92.35 L140.5 94.5 141.65 93.65 139.2 91.85 Q137.9 90.95 136.45 90.5 L133.95 90.35 Q129.5 91.2 126.8 94.9 127.0 92.7 126.65 90.45 126.25 88.0 125.0 86.0 122.1 81.55 116.7 80.75 109.85 79.8 103.0 81.4 92.5 83.75 83.05 88.7 L75.95 92.75 Q74.5 93.7 73.25 94.9 L71.25 97.2 Q67.0 103.6 64.75 111.0 63.95 113.75 63.65 116.55 63.55 117.6 64.05 118.6 64.55 119.7 65.4 120.65 68.45 124.05 72.95 125.35 79.3 127.3 85.6 125.4 88.55 124.6 90.2 122.0 L90.6 121.3 90.65 119.65 Q90.9 117.6 91.9 115.7 L92.95 113.95 100.1 107.65 114.65 97.1 102.75 107.95 103.7 110.35 106.95 118.6 106.9 118.2 M131.45 95.5 Q130.5 96.65 129.85 98.0 L127.0 104.6 140.4 94.6 Q138.05 91.6 134.6 93.1 132.75 93.9 131.45 95.5 M18.5 82.5 L16.4 82.9 Q13.95 84.75 13.7 87.95 L13.75 90.1 Q14.25 94.0 17.6 96.0 18.85 96.7 20.3 96.8 L23.1 96.85 26.7 95.7 33.35 92.85 38.6 90.3 Q35.3 85.5 35.8 79.6 27.6 83.4 19.35 87.15 L22.0 84.95 Q21.5 81.95 18.5 82.5 M62.4 81.65 Q59.2 85.85 55.5 89.75 53.45 91.9 50.75 92.95 49.3 93.45 48.1 94.3 44.85 96.5 41.8 99.1 39.65 100.9 39.15 103.6 38.95 104.75 39.75 105.6 40.1 106.0 40.6 106.2 43.1 107.05 45.1 105.3 L46.15 104.3 Q51.5 98.25 55.1 90.9 L53.7 94.9 Q52.85 97.55 52.45 100.25 52.05 102.65 54.05 104.3 55.4 105.4 56.9 106.25 L57.4 105.85 Q58.7 104.8 59.2 103.2 59.7 101.5 58.5 99.95 L58.0 99.4 57.15 100.55 Q58.95 97.05 59.95 93.2 L60.3 91.8 59.95 96.3 62.6 90.25 64.55 89.45 65.85 80.15 65.85 79.85 65.9 79.35 65.95 79.25 66.0 78.55 65.0 79.1 64.8 79.25 63.05 80.95 62.4 81.65 M64.3 91.0 L62.85 92.35 64.1 91.9 64.3 91.0 M79.95 132.6 Q78.9 130.2 79.25 127.6 73.65 127.8 68.7 125.15 L67.95 128.9 Q67.9 131.0 68.9 132.85 70.3 135.35 72.4 137.1 L77.6 141.25 75.35 141.95 Q71.2 143.05 67.65 145.15 65.8 146.3 64.6 148.2 64.05 149.05 64.6 149.9 65.5 151.15 67.05 151.55 75.25 152.9 83.35 152.75 88.75 152.65 94.25 151.25 96.2 150.65 97.65 149.2 97.2 145.4 94.0 143.3 L90.15 141.15 Q83.9 138.25 79.95 132.6 M137.4 99.9 L126.25 106.15 Q125.5 108.4 125.15 110.7 124.7 113.65 126.5 115.9 127.0 116.5 127.75 116.85 129.0 117.5 130.1 117.1 131.95 116.65 133.3 115.3 135.75 112.8 138.6 111.0 L137.4 99.9 M138.1 120.35 Q138.9 116.35 138.7 112.35 L132.65 117.35 Q129.75 119.9 126.4 118.35 128.3 121.5 130.55 124.5 131.45 125.75 132.8 126.55 L134.9 127.4 136.1 127.3 Q137.4 123.85 138.1 120.35" fill="#000000" fill-rule="evenodd" stroke="none"/>
      <path d="M148.0 92.95 Q150.25 92.5 152.4 93.55 154.85 94.7 156.65 96.85 160.65 101.5 162.7 107.3 166.1 117.0 166.3 127.25 L166.0 135.15 Q165.8 138.65 164.4 141.85 163.15 144.7 160.95 146.8 159.05 148.6 156.5 149.7 L154.2 150.45 Q154.85 149.6 154.9 148.55 L154.6 146.9 152.85 150.65 151.35 150.7 Q148.85 150.6 146.85 149.7 148.0 148.9 148.3 147.25 L148.35 147.1 145.8 149.15 Q144.15 147.85 143.65 145.7 143.25 144.15 144.0 142.75 146.7 137.8 147.6 132.3 149.1 123.25 147.1 114.4 L145.45 106.4 144.35 99.1 Q144.1 97.05 145.25 95.05 146.05 93.55 148.0 92.95 M106.2 48.05 L92.9 47.1 87.85 46.6 82.9 47.6 Q80.55 48.3 78.35 49.3 74.9 51.05 72.1 53.6 68.75 56.65 66.7 60.6 L66.25 60.8 65.9 60.5 51.95 66.25 Q50.45 64.1 49.9 61.55 L49.8 60.45 Q50.85 58.9 52.8 58.8 58.5 58.35 62.8 54.65 L65.1 52.6 Q67.45 50.45 70.1 48.55 74.6 45.35 80.15 44.9 L85.7 45.65 94.7 46.5 Q98.6 46.35 101.0 43.5 L101.15 38.4 Q101.2 36.6 102.05 35.35 L102.75 34.5 106.2 48.05 M67.95 128.9 L68.7 125.15 Q73.65 127.8 79.25 127.6 78.9 130.2 79.95 132.6 77.55 130.65 74.95 129.0 74.0 128.45 72.85 128.2 70.2 127.75 67.95 128.9 M137.4 99.9 L138.6 111.0 Q135.75 112.8 133.3 115.3 131.95 116.65 130.1 117.1 129.0 117.5 127.75 116.85 127.0 116.5 126.5 115.9 124.7 113.65 125.15 110.7 125.5 108.4 126.25 106.15 L137.4 99.9" fill="#226ca7" fill-rule="evenodd" stroke="none"/>
      <path d="M148.0 92.95 Q146.05 93.55 145.25 95.05 144.1 97.05 144.35 99.1 L145.45 106.4 147.1 114.4 Q149.1 123.25 147.6 132.3 146.7 137.8 144.0 142.75 143.25 144.15 143.65 145.7 144.15 147.85 145.8 149.15 L145.15 149.45 Q143.7 150.1 142.2 149.75 L140.35 148.65 Q138.15 147.3 136.8 145.05 134.75 141.5 135.15 137.4 135.5 133.85 136.5 130.4 L138.55 122.95 Q140.05 117.5 139.7 111.8 139.4 107.2 138.65 102.7 138.35 100.75 139.2 98.95 141.8 93.5 148.0 92.95 M146.85 149.7 Q148.85 150.6 151.35 150.7 L152.85 150.65 150.9 151.75 149.5 151.8 Q146.65 151.75 143.85 150.6 145.85 150.45 146.85 149.7 M154.2 150.45 L156.5 149.7 Q159.05 148.6 160.95 146.8 159.7 148.2 158.2 149.2 155.75 150.85 153.05 151.45 L154.2 150.45 M107.25 48.1 L106.2 48.05 102.75 34.5 102.05 35.35 Q101.2 36.6 101.15 38.4 L101.0 43.5 Q98.6 46.35 94.7 46.5 L85.7 45.65 80.15 44.9 Q74.6 45.35 70.1 48.55 67.45 50.45 65.1 52.6 L62.8 54.65 Q58.5 58.35 52.8 58.8 50.85 58.9 49.8 60.45 L49.9 61.55 Q50.45 64.1 51.95 66.25 L49.05 67.35 Q46.15 62.95 44.0 58.15 41.8 53.2 41.45 47.6 41.15 42.35 42.8 37.25 44.55 32.0 48.45 28.1 51.75 24.85 55.8 22.55 L54.7 22.25 Q55.4 18.4 58.2 15.6 59.4 14.4 60.85 13.5 62.25 12.7 63.85 12.2 L67.1 11.6 Q72.35 11.45 76.35 15.1 L75.45 16.45 84.65 15.85 85.95 17.5 Q86.4 18.0 87.05 18.3 L87.9 18.4 88.3 18.35 89.55 16.95 Q94.8 19.05 98.0 23.6 L100.75 28.2 103.15 33.55 105.05 39.45 107.25 48.1 M18.5 82.5 Q21.5 81.95 22.0 84.95 L19.35 87.15 Q27.6 83.4 35.8 79.6 35.3 85.5 38.6 90.3 L33.35 92.85 26.7 95.7 23.1 96.85 20.3 96.8 Q18.85 96.7 17.6 96.0 14.25 94.0 13.75 90.1 L13.7 87.95 Q13.95 84.75 16.4 82.9 L18.5 82.5 M79.95 132.6 Q83.9 138.25 90.15 141.15 L94.0 143.3 Q97.2 145.4 97.65 149.2 96.2 150.65 94.25 151.25 88.75 152.65 83.35 152.75 75.25 152.9 67.05 151.55 65.5 151.15 64.6 149.9 64.05 149.05 64.6 148.2 65.8 146.3 67.65 145.15 71.2 143.05 75.35 141.95 L77.6 141.25 72.4 137.1 Q70.3 135.35 68.9 132.85 67.9 131.0 67.95 128.9 70.2 127.75 72.85 128.2 74.0 128.45 74.95 129.0 77.55 130.65 79.95 132.6" fill="#468fbc" fill-rule="evenodd" stroke="none"/>
      <path d="M1.0 60.8 L0.95 60.95 0.95 60.25 Q1.2 57.6 2.9 55.6 4.6 53.65 6.95 52.45 9.3 51.3 11.4 51.0 14.6 50.55 18.5 48.25 22.4 45.95 26.25 42.7 30.05 39.45 33.0 36.15 35.95 32.8 37.25 30.3 39.7 25.55 41.95 25.75 44.0 25.95 45.8 29.35 L45.3 29.95 44.75 30.8 43.75 28.9 Q42.8 27.4 41.75 27.4 40.7 27.4 39.45 29.55 35.1 37.0 29.8 42.8 24.5 48.55 19.1 52.0 13.7 55.45 9.05 56.0 8.1 56.1 7.7 55.7 7.3 55.25 7.35 54.75 7.4 54.2 7.7 53.9 2.0 56.25 1.0 60.8 M143.0 7.25 Q141.1 10.45 137.45 11.8 L135.05 12.55 131.6 13.3 Q120.95 14.1 110.55 11.5 L106.45 10.35 116.2 10.85 Q121.95 11.3 127.5 10.8 131.3 10.65 134.65 9.15 L137.95 7.5 Q140.5 6.05 141.55 3.05 141.75 2.45 142.25 1.95 142.8 2.25 143.25 2.65 L143.8 3.5 Q144.05 5.55 143.0 7.25" fill="#0f2953" fill-rule="evenodd" stroke="none"/>
      <path d="M108.25 48.2 L107.25 48.1 105.05 39.45 103.15 33.55 100.75 28.2 98.0 23.6 Q94.8 19.05 89.55 16.95 L88.3 18.35 87.9 18.4 87.05 18.3 Q86.4 18.0 85.95 17.5 L84.65 15.85 75.45 16.45 76.35 15.1 Q72.35 11.45 67.1 11.6 L63.85 12.2 Q62.25 12.7 60.85 13.5 59.4 14.4 58.2 15.6 55.4 18.4 54.7 22.25 L55.8 22.55 Q51.75 24.85 48.45 28.1 44.55 32.0 42.8 37.25 41.15 42.35 41.45 47.6 41.8 53.2 44.0 58.15 46.15 62.95 49.05 67.35 L47.9 67.75 Q45.25 63.45 43.05 58.7 41.25 54.75 40.65 50.6 39.2 40.8 43.9 32.15 L42.85 31.05 42.3 31.15 41.85 31.65 37.7 38.4 34.35 43.4 26.95 52.55 Q23.8 56.25 20.05 59.5 25.15 62.8 25.7 68.75 L26.35 69.15 28.5 69.75 Q30.9 70.55 31.65 72.95 32.85 76.9 30.65 80.25 L27.7 81.95 Q29.65 80.2 30.05 77.75 L30.25 75.65 Q30.15 72.1 27.2 70.45 L25.65 69.75 Q22.6 68.8 21.55 65.6 L23.4 67.5 23.5 67.4 23.55 67.2 23.9 68.3 24.75 69.0 Q24.2 66.4 22.65 64.3 21.0 62.0 18.65 60.7 14.55 64.75 8.9 65.75 L8.15 67.9 8.25 65.85 7.05 66.0 Q4.1 69.2 3.55 73.6 L3.1 72.2 Q0.55 77.0 2.8 81.95 3.55 83.7 4.7 85.3 6.25 87.55 8.8 88.75 L11.55 90.05 Q10.6 88.7 10.65 87.05 10.8 83.7 13.3 81.6 15.0 80.2 17.05 79.85 L20.4 79.6 Q24.15 79.8 25.15 83.4 L24.4 83.8 Q23.85 81.25 21.5 80.35 17.35 78.95 13.95 81.75 12.25 83.2 11.65 85.35 10.85 88.0 12.55 90.05 L12.95 91.6 Q5.7 90.05 2.0 83.6 1.0 81.8 0.6 79.95 0.0 76.85 0.9 74.15 2.45 69.5 5.35 65.95 L3.1 65.0 Q0.95 63.65 1.0 60.8 2.0 56.25 7.7 53.9 7.4 54.2 7.35 54.75 7.3 55.25 7.7 55.7 8.1 56.1 9.05 56.0 13.7 55.45 19.1 52.0 24.5 48.55 29.8 42.8 35.1 37.0 39.45 29.55 40.7 27.4 41.75 27.4 42.8 27.4 43.75 28.9 L44.75 30.8 45.3 29.95 45.8 29.35 Q48.85 25.35 53.7 22.65 54.45 17.85 57.15 14.9 59.85 11.95 63.5 11.0 67.15 10.0 70.85 11.0 74.5 12.05 77.25 15.15 L84.05 14.6 Q83.15 12.55 82.95 10.8 82.65 7.95 84.6 6.35 86.55 4.7 91.1 4.9 L100.8 5.55 Q105.9 5.9 111.55 5.8 L123.45 4.5 132.1 2.35 139.25 0.45 144.3 0.2 Q146.25 0.65 146.7 3.0 147.15 5.05 146.1 7.55 145.05 10.1 141.9 12.25 138.7 14.4 132.65 15.45 129.5 15.95 125.95 15.55 L118.15 14.35 109.0 12.85 99.25 11.35 91.55 10.3 Q88.45 10.05 88.0 10.9 87.65 11.85 87.95 12.9 88.2 14.0 88.75 14.95 L89.0 15.45 89.1 15.45 Q94.05 17.05 97.4 20.95 100.75 24.9 103.05 30.45 105.3 36.0 106.9 42.65 L108.25 48.2 M143.0 7.25 Q144.05 5.55 143.8 3.5 L143.25 2.65 Q142.8 2.25 142.25 1.95 141.75 2.45 141.55 3.05 140.5 6.05 137.95 7.5 L134.65 9.15 Q131.3 10.65 127.5 10.8 121.95 11.3 116.2 10.85 L106.45 10.35 110.55 11.5 Q120.95 14.1 131.6 13.3 L135.05 12.55 137.45 11.8 Q141.1 10.45 143.0 7.25" fill="#0b0923" fill-rule="evenodd" stroke="none"/>
      <path d="M66.7 60.6 L68.55 59.2 71.75 55.9 Q75.65 51.95 80.8 49.8 85.6 47.8 90.9 48.05 100.75 48.55 107.85 55.55 115.0 62.65 120.5 71.45 122.2 74.1 124.25 76.55 L125.15 77.2 126.85 77.9 128.45 78.8 124.3 82.8 126.95 79.2 121.15 78.65 101.5 79.55 Q96.7 80.45 91.9 81.9 82.3 84.6 74.5 91.05 L70.1 94.9 68.15 96.5 Q67.05 97.3 66.1 98.25 65.75 98.6 65.75 99.15 65.75 100.85 66.9 102.2 L66.2 103.75 62.75 99.75 Q62.15 99.05 62.0 98.15 61.45 94.6 64.85 93.25 65.55 91.15 66.55 89.2 67.25 87.85 68.25 86.7 68.75 86.1 68.15 86.6 75.5 78.65 85.5 74.8 L91.15 72.8 Q96.9 70.95 102.85 70.45 110.85 69.8 118.9 70.25 L113.9 62.95 Q98.85 62.4 84.7 67.8 80.5 69.35 76.45 71.5 70.9 74.5 67.4 79.8 L67.65 76.7 75.2 70.4 74.6 70.8 Q66.5 76.05 59.7 82.95 56.95 84.3 53.75 84.0 51.05 83.5 49.6 81.1 48.0 78.45 47.95 75.4 47.9 71.7 50.0 68.7 50.35 68.25 49.8 68.45 L66.25 60.8 66.7 60.6 M57.95 84.95 Q55.65 88.2 52.2 90.7 49.75 92.45 46.8 92.55 44.05 92.75 41.75 91.05 40.0 89.75 38.9 87.65 36.3 82.45 37.95 76.85 39.4 71.95 44.15 70.65 41.5 76.65 44.05 82.65 45.35 85.7 48.3 87.0 L51.9 88.25 55.65 87.65 57.95 84.95 M111.0 50.45 Q113.5 52.1 115.2 54.45 L116.65 56.8 Q118.35 60.15 115.95 62.95 110.15 55.1 102.05 49.8 L111.0 50.45 M118.35 66.15 Q120.7 64.1 121.2 61.3 121.65 58.7 120.6 56.3 L118.75 53.25 Q118.15 52.55 117.25 52.2 114.4 51.1 111.5 50.55 115.65 51.1 119.1 53.1 L121.9 55.05 Q124.95 57.6 125.35 61.55 125.5 63.2 124.55 64.45 122.7 66.9 119.8 68.2 L118.35 66.15" fill="#f7bd1d" fill-rule="evenodd" stroke="none"/>
      <path d="M68.15 86.6 L66.3 88.15 67.4 79.8 Q70.9 74.5 76.45 71.5 80.5 69.35 84.7 67.8 98.85 62.4 113.9 62.95 L118.9 70.25 Q110.85 69.8 102.85 70.45 96.9 70.95 91.15 72.8 L85.5 74.8 Q75.5 78.65 68.15 86.6 M59.7 82.95 L57.95 84.95 55.65 87.65 51.9 88.25 48.3 87.0 Q45.35 85.7 44.05 82.65 41.5 76.65 44.15 70.65 L49.8 68.45 Q50.35 68.25 50.0 68.7 47.9 71.7 47.95 75.4 48.0 78.45 49.6 81.1 51.05 83.5 53.75 84.0 56.95 84.3 59.7 82.95 M115.95 62.95 Q118.35 60.15 116.65 56.8 L115.2 54.45 Q113.5 52.1 111.0 50.45 L111.5 50.55 Q114.4 51.1 117.25 52.2 118.15 52.55 118.75 53.25 L120.6 56.3 Q121.65 58.7 121.2 61.3 120.7 64.1 118.35 66.15 L115.95 62.95" fill="#e21f08" fill-rule="evenodd" stroke="none"/>
      <path d="M106.9 118.2 Q106.15 114.3 106.65 110.35 107.0 107.7 108.95 105.7 113.3 101.35 118.15 97.9 L118.45 97.6 102.8 107.95 103.7 110.35 102.75 107.95 114.65 97.1 100.1 107.65 99.8 107.8 95.4 110.2 88.3 113.7 Q86.45 114.6 84.25 114.55 80.8 114.1 77.35 114.55 81.85 116.0 86.6 116.75 88.15 116.9 89.2 117.65 89.8 118.15 89.75 118.8 89.7 120.3 90.6 121.3 L90.2 122.0 Q88.55 124.6 85.6 125.4 79.3 127.3 72.95 125.35 68.45 124.05 65.4 120.65 64.55 119.7 64.05 118.6 63.55 117.6 63.65 116.55 63.95 113.75 64.75 111.0 67.0 103.6 71.25 97.2 L73.25 94.9 Q74.5 93.7 75.95 92.75 L83.05 88.7 Q92.5 83.75 103.0 81.4 109.85 79.8 116.7 80.75 122.1 81.55 125.0 86.0 126.25 88.0 126.65 90.45 127.0 92.7 126.8 94.9 129.5 91.2 133.95 90.35 L136.45 90.5 Q137.9 90.95 139.2 91.85 L141.65 93.65 140.5 94.5 138.15 92.35 Q137.55 91.85 136.8 91.55 132.85 92.25 130.45 95.35 128.55 97.65 127.55 100.65 L125.5 106.45 Q123.9 110.9 124.8 115.35 125.15 117.1 125.85 118.8 127.25 122.05 129.25 124.9 131.75 128.35 135.8 128.05 128.15 130.9 120.15 129.7 115.6 128.9 111.95 126.25 110.35 125.05 109.3 123.05 L106.9 118.2 M90.65 119.65 Q90.95 116.5 92.95 113.95 L91.9 115.7 Q90.9 117.6 90.65 119.65" fill="#582d83" fill-rule="evenodd" stroke="none"/>
      <path d="M124.3 82.8 Q119.8 79.65 114.15 79.5 107.2 79.35 100.25 80.95 89.55 83.35 79.95 89.0 L76.55 90.9 Q73.65 92.4 71.5 94.9 68.7 98.15 66.9 102.2 65.75 100.85 65.75 99.15 65.75 98.6 66.1 98.25 67.05 97.3 68.15 96.5 L70.1 94.9 74.5 91.05 Q82.3 84.6 91.9 81.9 96.7 80.45 101.5 79.55 L121.15 78.65 126.95 79.2 124.3 82.8" fill="#390608" fill-rule="evenodd" stroke="none"/>
      <path d="M103.7 110.35 L102.8 107.95 118.45 97.6 118.15 97.9 Q113.3 101.35 108.95 105.7 107.0 107.7 106.65 110.35 106.15 114.3 106.9 118.2 L106.95 118.6 103.7 110.35 M90.6 121.3 Q89.7 120.3 89.75 118.8 89.8 118.15 89.2 117.65 88.15 116.9 86.6 116.75 81.85 116.0 77.35 114.55 80.8 114.1 84.25 114.55 86.45 114.6 88.3 113.7 L95.4 110.2 99.8 107.8 100.1 107.65 92.95 113.95 Q90.95 116.5 90.65 119.65 L90.6 121.3 M131.45 95.5 Q132.75 93.9 134.6 93.1 138.05 91.6 140.4 94.6 L127.0 104.6 129.85 98.0 Q130.5 96.65 131.45 95.5 M138.1 120.35 Q137.4 123.85 136.1 127.3 L134.9 127.4 132.8 126.55 Q131.45 125.75 130.55 124.5 128.3 121.5 126.4 118.35 129.75 119.9 132.65 117.35 L138.7 112.35 Q138.9 116.35 138.1 120.35" fill="#2c1838" fill-rule="evenodd" stroke="none"/>
      <path d="M27.7 81.95 L25.15 83.4 Q24.15 79.8 20.4 79.6 L17.05 79.85 Q15.0 80.2 13.3 81.6 10.8 83.7 10.65 87.05 10.6 88.7 11.55 90.05 L8.8 88.75 Q6.25 87.55 4.7 85.3 3.55 83.7 2.8 81.95 0.55 77.0 3.1 72.2 L3.55 73.6 Q4.1 69.2 7.05 66.0 L8.25 65.85 8.15 67.9 8.9 65.75 Q14.55 64.75 18.65 60.7 21.0 62.0 22.65 64.3 24.2 66.4 24.75 69.0 L23.9 68.3 23.55 67.2 23.5 67.4 23.4 67.5 21.55 65.6 Q22.6 68.8 25.65 69.75 L27.2 70.45 Q30.15 72.1 30.25 75.65 L30.05 77.75 Q29.65 80.2 27.7 81.95 M24.4 83.8 L23.45 84.35 Q23.0 82.75 21.75 81.75 20.75 81.05 19.45 81.0 15.25 81.2 13.3 85.05 12.05 87.45 12.55 90.05 10.85 88.0 11.65 85.35 12.25 83.2 13.95 81.75 17.35 78.95 21.5 80.35 23.85 81.25 24.4 83.8 M65.85 80.15 L64.55 89.45 62.6 90.25 59.95 96.3 60.3 91.8 59.95 93.2 Q58.95 97.05 57.15 100.55 L58.0 99.4 58.5 99.95 Q59.7 101.5 59.2 103.2 58.7 104.8 57.4 105.85 L56.9 106.25 Q55.4 105.4 54.05 104.3 52.05 102.65 52.45 100.25 52.85 97.55 53.7 94.9 L55.1 90.9 Q51.5 98.25 46.15 104.3 L45.1 105.3 Q43.1 107.05 40.6 106.2 40.1 106.0 39.75 105.6 38.95 104.75 39.15 103.6 39.65 100.9 41.8 99.1 44.85 96.5 48.1 94.3 49.3 93.45 50.75 92.95 53.45 91.9 55.5 89.75 59.2 85.85 62.4 81.65 L65.9 79.35 65.85 79.85 64.05 81.5 65.85 80.15 M63.05 80.95 L64.8 79.25 65.6 78.85 65.0 79.1 66.0 78.55 65.95 79.25 63.05 80.95 M64.3 91.0 L64.1 91.9 62.85 92.35 64.3 91.0" fill="#ffffff" fill-rule="evenodd" stroke="none"/>
      <path d="M62.4 81.65 L63.05 80.95 65.95 79.25 65.9 79.35 62.4 81.65 M64.8 79.25 L65.0 79.1 65.6 78.85 64.8 79.25 M65.85 79.85 L65.85 80.15 64.05 81.5 65.85 79.85" fill="#2d4c76" fill-rule="evenodd" stroke="none"/>
      <path d="M145.8 149.15 L148.35 147.1 148.3 147.25 Q148.0 148.9 146.85 149.7 145.85 150.45 143.85 150.6 L142.2 149.75 Q143.7 150.1 145.15 149.45 L145.8 149.15 M152.85 150.65 L154.6 146.9 154.9 148.55 Q154.85 149.6 154.2 150.45 L153.05 151.45 152.6 151.75 150.9 151.75 152.85 150.65" fill="#192f54" fill-rule="evenodd" stroke="none"/>
    </g>
  </defs>
</svg>
