<?xml version="1.0" encoding="UTF-8" standalone="no"?>
<svg xmlns:xlink="http://www.w3.org/1999/xlink" height="367.3px" width="278.55px" xmlns="http://www.w3.org/2000/svg">
  <g transform="matrix(1.0, 0.0, 0.0, 1.0, 169.5, 0.0)">
    <use height="81.45" transform="matrix(0.9937, -0.109, 0.0907, 0.8268, -157.25, 177.1)" width="63.45" xlink:href="#shape0"/>
    <use height="86.7" transform="matrix(1.0, 0.0, 0.0, 1.0, -124.75, 140.7)" width="109.05" xlink:href="#shape1"/>
    <use height="27.3" transform="matrix(1.0, 0.0, 0.0, 1.0, -111.2, 151.4)" width="35.6" xlink:href="#shape2"/>
    <use height="150.5" transform="matrix(1.0, 0.0, 0.0, 1.0, -123.35, 216.8)" width="69.0" xlink:href="#shape3"/>
    <use height="94.2" transform="matrix(0.987, 0.1574, -0.1378, 0.8641, -60.65, 152.65)" width="44.2" xlink:href="#shape4"/>
    <use height="57.25" transform="matrix(0.9915, 0.1264, -0.1264, 0.9915, -58.35, 106.55)" width="51.2" xlink:href="#shape5"/>
    <use height="54.3" transform="matrix(0.9958, -0.088, 0.088, 0.9958, -169.5, 131.7)" width="45.3" xlink:href="#shape6"/>
  </g>
  <defs>
    <g id="shape0" transform="matrix(1.0, 0.0, 0.0, 1.0, 0.0, 0.0)">
      <path d="M1.0 5.85 Q0.05 2.8 1.85 1.25 3.5 -0.1 6.55 0.0 9.45 0.2 11.85 1.6 14.4 3.15 14.65 5.3 10.45 30.0 35.65 50.1 37.95 51.95 32.7 54.4 L28.65 56.2 Q26.7 57.15 26.6 57.8 22.2 55.4 17.25 50.6 11.7 45.1 7.65 38.55 -2.75 21.75 1.0 5.85" fill="#000823" fill-rule="evenodd" stroke="none"/>
      <path d="M2.35 5.75 Q1.4 2.7 2.8 1.2 4.05 -0.15 6.65 0.0 9.05 0.25 11.05 1.65 13.2 3.2 13.45 5.35 9.25 30.1 34.5 50.2 36.8 52.0 32.8 54.4 L29.65 56.15 Q28.1 57.1 28.0 57.75 23.55 55.3 18.6 50.45 13.05 45.05 9.0 38.45 -1.35 21.7 2.35 5.75" fill="#488fc1" fill-rule="evenodd" stroke="none"/>
      <path d="M45.05 79.4 Q43.85 78.85 33.9 71.7 L22.2 63.2 Q22.95 58.15 26.75 50.6 31.1 41.95 34.7 41.2 40.05 46.45 49.0 57.0 59.5 69.4 63.35 75.9 63.9 76.8 61.85 77.85 59.95 78.8 56.75 79.45 48.95 81.05 45.05 79.4" fill="#000823" fill-rule="evenodd" stroke="none"/>
      <path d="M45.45 78.15 L34.6 70.75 23.15 62.6 Q23.85 57.95 27.35 51.15 31.4 43.3 34.8 42.75 39.8 47.4 49.4 59.0 59.95 71.7 62.95 77.45 63.25 78.25 62.6 79.25 61.8 80.45 60.05 81.05 54.95 82.55 45.45 78.15" fill="#ffbd20" fill-rule="evenodd" stroke="none"/>
      <path d="M36.25 44.15 L40.25 48.4 Q32.65 55.3 30.7 67.95 L25.45 64.2 Q25.85 58.4 28.75 53.1 31.6 47.85 36.25 44.15" fill="#e31e00" fill-rule="evenodd" stroke="none"/>
    </g>
    <g id="shape1" transform="matrix(1.0, 0.0, 0.0, 1.0, 0.0, 0.0)">
      <path d="M42.35 63.55 L49.0 62.2 49.65 82.7 42.95 83.7 42.35 63.55" fill="#000823" fill-rule="evenodd" stroke="none"/>
      <path d="M43.35 64.55 L47.95 63.55 48.65 81.65 44.0 82.4 43.35 64.55" fill="#488fc1" fill-rule="evenodd" stroke="none"/>
      <path d="M10.5 48.3 Q10.5 46.6 11.65 45.65 12.8 44.6 14.7 44.85 16.9 45.15 19.45 46.85 24.8 50.45 27.5 58.45 30.3 66.45 29.15 75.4 28.35 81.8 25.85 84.7 23.75 87.1 20.9 86.6 18.35 86.15 16.55 83.75 14.6 81.3 14.85 78.6 15.65 68.55 15.1 63.15 14.5 56.45 11.7 52.0 10.45 50.1 10.5 48.3" fill="#000823" fill-rule="evenodd" stroke="none"/>
      <path d="M17.4 68.5 Q25.75 64.4 22.2 69.35 19.6 72.9 18.85 77.3 18.15 81.45 19.4 84.4 18.45 84.0 17.6 82.9 16.75 81.7 16.45 80.3 16.1 79.1 16.5 75.8 L17.4 68.5" fill="#032853" fill-rule="evenodd" stroke="none"/>
      <path d="M8.2 43.45 Q2.2 35.2 5.35 31.75 6.35 30.6 8.7 29.8 L12.15 28.85 Q13.4 28.35 14.25 32.45 15.1 36.35 14.95 40.55 14.7 45.25 13.25 46.45 11.45 47.9 8.2 43.45" fill="#000823" fill-rule="evenodd" stroke="none"/>
      <path d="M68.6 44.05 Q62.55 50.35 52.1 52.4 43.35 54.1 32.8 52.6 23.7 51.25 16.6 48.1 9.8 45.1 9.5 42.6 7.55 24.4 14.15 14.7 19.8 6.5 30.4 5.55 32.3 3.45 35.4 1.95 38.7 0.35 42.3 0.1 51.2 -0.7 56.8 6.1 66.75 9.45 69.5 19.45 71.95 28.5 68.6 44.05" fill="#000823" fill-rule="evenodd" stroke="none"/>
      <path d="M67.35 43.45 Q61.6 49.5 51.8 51.45 43.6 53.1 33.65 51.6 25.0 50.35 18.3 47.4 11.9 44.55 11.5 42.2 8.75 25.75 15.1 16.1 20.65 7.65 31.1 6.45 L33.55 6.15 31.95 5.65 Q36.2 1.75 42.4 1.25 49.7 0.7 54.85 6.0 L51.1 5.8 55.8 7.05 Q65.35 10.2 68.0 19.8 70.45 28.6 67.35 43.45" fill="#488fc1" fill-rule="evenodd" stroke="none"/>
      <path d="M34.15 17.65 Q33.85 17.35 34.3 16.35 35.3 14.25 37.1 13.05 39.0 11.8 40.95 12.0 45.85 12.5 47.6 20.3 48.6 24.45 46.9 30.7 L44.55 37.7 Q44.3 38.45 42.75 38.7 41.2 38.95 39.25 38.7 34.4 38.05 33.9 36.0 33.55 34.5 34.8 24.75 35.85 16.15 35.15 16.95 34.45 17.85 34.15 17.65" fill="#000823" fill-rule="evenodd" stroke="none"/>
      <path d="M22.85 32.0 L23.25 41.25 Q20.85 41.55 17.75 40.65 14.4 30.55 14.9 25.85 13.45 26.55 14.0 23.9 14.4 21.95 15.75 20.3 16.9 18.9 17.75 18.75 20.2 18.45 21.6 23.7 22.5 27.2 22.85 32.0" fill="#000823" fill-rule="evenodd" stroke="none"/>
      <path d="M37.0 14.85 Q38.8 13.65 40.85 13.95 42.95 14.25 44.55 16.1 46.35 18.15 47.1 21.5 48.45 27.85 45.4 37.7 45.15 38.45 43.4 38.7 41.8 38.95 39.65 38.7 L35.9 37.75 Q34.15 37.0 33.9 36.0 33.0 32.35 32.95 27.5 32.85 21.9 34.15 18.7 35.1 16.15 37.0 14.85" fill="#ffffff" fill-rule="evenodd" stroke="none"/>
      <path d="M22.85 32.0 L23.25 41.25 16.9 41.55 Q13.85 32.4 14.65 26.05 15.35 20.55 18.0 20.15 22.05 19.55 22.85 32.0" fill="#ffffff" fill-rule="evenodd" stroke="none"/>
      <path d="M47.4 24.3 L47.5 25.7 43.25 26.65 47.4 27.55 Q47.25 29.9 46.35 32.2 44.9 34.5 42.85 34.75 40.85 35.0 40.05 32.9 39.15 30.65 39.15 27.6 39.15 25.0 39.8 23.15 L40.25 22.15 Q41.5 20.35 43.45 19.9 44.95 19.7 46.05 20.8 47.3 22.0 47.4 24.3" fill="#000823" fill-rule="evenodd" stroke="none"/>
      <path d="M20.4 23.2 L20.75 23.25 Q22.5 24.1 22.5 27.6 L22.45 28.8 19.9 28.75 22.35 30.25 Q22.1 32.25 21.4 33.95 20.45 35.6 19.2 35.35 18.0 35.15 17.6 33.25 16.8 29.0 17.45 26.45 17.75 24.7 18.75 23.85 19.5 23.15 20.4 23.2" fill="#000823" fill-rule="evenodd" stroke="none"/>
      <path d="M21.3 14.85 Q20.9 12.1 19.15 12.0 17.3 11.9 15.7 16.05 17.1 10.75 19.3 10.55 20.25 10.5 20.8 11.55 21.35 12.75 21.3 14.85" fill="#000823" fill-rule="evenodd" stroke="none"/>
      <path d="M62.85 32.4 Q69.1 33.15 71.55 38.75 73.9 44.35 71.4 51.8 68.75 59.85 61.35 66.6 54.7 72.25 40.7 73.65 28.3 75.15 16.9 70.45 5.0 65.6 1.15 56.7 -0.85 52.2 0.65 47.45 2.1 42.8 6.3 39.6 12.5 34.95 24.45 34.6 34.9 34.4 46.55 37.4 55.85 31.6 62.85 32.4" fill="#000823" fill-rule="evenodd" stroke="none"/>
      <path d="M62.4 33.85 Q68.0 34.45 70.1 39.4 72.1 44.0 70.35 50.55 68.5 57.25 63.5 62.8 60.3 66.4 56.15 68.5 50.65 71.15 41.55 72.6 29.15 73.75 18.4 69.85 6.6 65.55 2.35 56.6 0.3 52.35 1.8 47.75 3.25 43.25 7.4 40.2 13.35 35.7 25.1 35.55 35.25 35.4 46.7 38.35 56.05 33.15 62.4 33.85" fill="#ffe584" fill-rule="evenodd" stroke="none"/>
      <path d="M5.2 41.1 Q4.0 39.0 5.85 35.95 8.15 32.2 13.8 30.85 20.7 29.35 24.9 31.65 28.05 33.45 28.35 36.1 28.7 38.85 26.5 40.45 24.45 41.95 19.45 43.1 7.7 45.65 5.2 41.1" fill="#000823" fill-rule="evenodd" stroke="none"/>
      <path d="M10.0 35.1 Q9.55 34.4 10.25 33.35 11.05 32.1 13.05 31.75 L17.0 32.0 Q18.15 32.6 18.25 33.5 18.45 35.15 15.1 35.75 10.9 36.6 10.0 35.1" fill="#032853" fill-rule="evenodd" stroke="none"/>
      <path d="M40.05 41.7 Q39.95 42.35 39.3 42.25 38.7 42.1 38.85 41.5 39.0 40.85 39.55 41.05 40.15 41.15 40.05 41.7" fill="#b08000" fill-rule="evenodd" stroke="none"/>
      <path d="M34.3 44.55 Q34.2 45.25 33.55 45.15 32.85 45.0 33.0 44.35 33.15 43.6 33.75 43.75 34.5 43.95 34.3 44.55" fill="#b08000" fill-rule="evenodd" stroke="none"/>
      <path d="M33.75 39.05 Q33.7 39.7 33.0 39.55 32.45 39.45 32.5 38.85 32.65 38.25 33.3 38.35 33.85 38.5 33.75 39.05" fill="#b08000" fill-rule="evenodd" stroke="none"/>
      <path d="M44.8 44.8 Q44.65 45.4 44.05 45.3 43.35 45.2 43.55 44.55 43.65 43.9 44.25 44.05 44.9 44.15 44.8 44.8" fill="#b08000" fill-rule="evenodd" stroke="none"/>
      <path d="M46.15 41.2 Q46.05 41.85 45.45 41.65 44.85 41.55 44.95 40.95 45.05 40.35 45.7 40.45 46.3 40.6 46.15 41.2" fill="#b08000" fill-rule="evenodd" stroke="none"/>
      <path d="M3.65 47.75 L3.05 48.15 Q2.75 47.95 2.95 47.4 3.2 46.85 3.55 47.0 3.8 47.2 3.65 47.75" fill="#b08000" fill-rule="evenodd" stroke="none"/>
      <path d="M5.3 44.95 Q4.95 45.45 4.65 45.2 4.45 44.95 4.8 44.45 5.1 43.95 5.4 44.2 5.65 44.45 5.3 44.95" fill="#b08000" fill-rule="evenodd" stroke="none"/>
      <path d="M70.05 13.3 Q74.3 12.75 77.1 18.2 L83.15 31.05 Q87.05 39.2 91.0 45.1 93.05 48.1 97.25 50.75 L104.75 55.0 Q108.05 56.95 108.85 60.15 109.6 63.15 107.8 65.25 106.7 66.5 104.3 67.1 L98.85 67.45 Q91.55 66.85 86.5 61.7 82.45 57.65 80.15 53.25 78.15 49.2 76.2 41.8 L73.0 27.2 Q71.8 21.55 70.4 21.15 69.1 20.75 67.25 21.9 65.8 22.75 65.0 23.85 63.45 23.95 62.8 21.55 62.15 19.35 62.85 17.8 66.7 13.75 70.05 13.3" fill="#000823" fill-rule="evenodd" stroke="none"/>
      <path d="M66.95 16.05 Q70.25 14.4 71.9 16.5 73.7 18.65 75.1 26.6 76.8 35.6 80.9 44.9 85.55 55.55 90.5 59.5 94.5 62.75 92.65 62.95 L90.75 62.65 88.45 61.45 Q82.75 57.1 77.9 42.85 75.0 34.05 73.35 25.0 72.55 20.65 70.8 18.55 69.05 16.4 67.2 17.9 65.4 19.4 65.3 18.15 65.15 16.9 66.95 16.05" fill="#032853" fill-rule="evenodd" stroke="none"/>
      <path d="M53.75 41.55 Q54.9 41.7 54.85 42.4 54.85 43.1 53.05 42.8 54.95 47.0 54.3 50.7 53.7 54.3 50.65 56.8 43.9 62.3 29.3 60.4 28.3 60.3 28.15 59.9 27.95 59.5 29.1 59.6 35.0 60.2 40.1 59.35 45.35 58.5 48.65 56.35 52.15 54.05 52.85 50.7 53.6 47.05 50.9 42.65 48.65 42.7 47.35 43.35 47.05 43.55 47.4 43.15 L48.3 42.3 Q50.35 41.05 53.75 41.55" fill="#000823" fill-rule="evenodd" stroke="none"/>
      <path d="M32.95 19.25 Q33.35 15.15 35.4 13.0 37.9 10.35 42.15 12.1 40.1 15.7 37.8 17.65 35.15 19.8 32.95 19.25" fill="#0b4f7d" fill-rule="evenodd" stroke="none"/>
      <path d="M37.1 16.9 L42.85 11.5 Q39.2 17.85 36.25 19.75 33.05 21.8 31.3 17.9 32.65 19.1 34.25 18.7 35.5 18.45 37.1 16.9" fill="#000823" fill-rule="evenodd" stroke="none"/>
    </g>
    <g id="shape2" transform="matrix(1.0, 0.0, 0.0, 1.0, 0.0, 0.0)">
      <path d="M20.05 24.4 L20.05 23.75 Q24.55 22.8 28.85 24.55 L33.0 26.2 32.45 26.9 Q26.15 24.85 20.05 24.4" fill="#488fc1" fill-rule="evenodd" stroke="none"/>
      <path d="M17.95 24.1 Q17.6 21.7 17.6 18.85 17.55 15.25 18.05 11.65 18.5 8.0 19.55 5.05 20.6 2.35 22.75 1.05 24.9 -0.25 27.4 0.05 29.95 0.4 32.05 2.5 34.15 4.6 35.05 8.65 35.85 12.85 35.5 16.1 35.15 19.4 34.35 21.65 L33.7 23.5 Q32.45 20.65 30.0 19.7 L24.25 19.55 Q21.15 20.5 18.55 23.3 L17.95 24.1 M0.75 20.15 Q1.0 19.3 0.75 19.35 0.1 16.35 0.0 14.1 -0.1 10.6 0.6 8.55 1.25 6.5 2.35 5.7 3.4 4.85 4.45 5.05 7.15 5.5 8.25 7.65 9.35 9.7 9.45 13.25 L9.6 17.0 9.45 19.7 9.4 20.3 7.75 18.8 Q6.1 17.8 4.6 17.8 3.0 17.8 2.0 18.5 1.55 18.85 0.75 20.15" fill="#0b4f7d" fill-rule="evenodd" stroke="none"/>
      <path d="M17.95 24.1 L18.55 23.3 Q21.15 20.5 24.25 19.55 L30.0 19.7 Q32.45 20.65 33.7 23.5 L33.9 24.0 34.15 25.6 Q34.25 26.55 33.95 27.05 33.7 27.6 32.95 26.9 32.15 26.1 30.1 25.2 28.1 24.3 25.25 23.95 L20.1 24.25 19.25 24.45 19.15 24.5 18.55 24.4 17.8 24.3 17.95 24.1 M9.4 20.3 L9.5 20.4 Q8.8 19.95 6.95 19.8 5.05 19.6 3.05 19.8 L0.75 20.15 Q1.55 18.85 2.0 18.5 3.0 17.8 4.6 17.8 6.1 17.8 7.75 18.8 L9.4 20.3" fill="#0c1748" fill-rule="evenodd" stroke="none"/>
    </g>
    <g id="shape3" transform="matrix(1.0, 0.0, 0.0, 1.0, 1.55, 0.0)">
      <path d="M38.85 38.9 Q43.85 39.8 48.15 41.45 55.0 44.15 57.45 48.05 L58.35 49.9 Q61.5 58.95 62.65 74.55 L64.25 85.5 64.85 90.0 65.55 96.6 65.95 104.55 Q62.95 107.0 59.1 107.95 55.25 108.9 50.95 108.9 L42.95 108.15 31.65 107.55 Q29.75 106.8 29.25 106.15 L29.1 105.85 28.9 102.45 28.6 83.65 28.6 81.9 29.25 81.75 29.45 81.75 31.15 81.45 32.8 80.85 Q33.1 80.55 32.1 80.65 L29.8 80.95 29.25 80.95 26.2 80.95 23.75 80.8 22.8 80.65 Q21.45 80.45 21.65 80.65 L22.55 81.25 23.75 81.7 25.55 82.1 27.0 82.25 27.4 105.65 Q27.25 106.05 25.25 107.0 L23.75 107.6 21.85 108.35 21.8 108.3 21.8 108.35 20.1 108.9 Q20.85 109.1 18.3 109.55 L10.85 110.2 Q7.05 110.1 4.25 109.05 1.35 107.95 -0.05 105.35 0.05 102.2 0.65 97.7 L2.1 74.15 2.75 65.2 Q3.6 55.85 4.85 48.05 L4.9 47.6 Q5.65 42.6 13.45 40.05 17.5 38.65 22.55 38.2 L28.9 38.0 30.45 38.05 30.55 38.05 32.55 38.15 38.85 38.9 M0.55 76.25 L0.55 74.55 0.8 74.55 0.55 76.25" fill="#592d85" fill-rule="evenodd" stroke="none"/>
      <path d="M62.65 74.55 Q61.5 58.95 58.35 49.9 L57.45 48.05 Q55.0 44.15 48.15 41.45 43.85 39.8 38.85 38.9 44.35 39.75 48.95 41.45 56.1 44.15 58.7 48.05 L59.65 49.9 Q63.25 59.8 64.35 77.45 L63.8 74.55 62.65 74.55 M22.55 38.2 Q17.5 38.65 13.45 40.05 5.65 42.6 4.9 47.6 L4.85 48.05 Q3.6 55.85 2.75 65.2 L2.1 74.15 0.8 74.55 0.55 74.55 1.3 65.2 Q2.2 55.9 3.4 48.05 L3.5 47.6 Q4.3 42.6 12.5 40.05 16.95 38.6 22.55 38.2" fill="#000823" fill-rule="evenodd" stroke="none"/>
      <path d="M62.65 74.55 L63.8 74.55 64.35 77.45 Q66.8 90.1 67.4 102.85 L67.45 104.55 67.45 105.25 Q65.45 107.25 62.8 108.25 L60.45 109.15 58.0 109.75 63.2 150.5 61.7 150.5 56.45 109.65 47.15 110.1 50.6 131.5 52.1 141.9 52.2 142.65 53.1 150.5 51.6 150.5 50.75 142.7 45.65 110.0 40.75 109.25 Q32.7 109.5 31.75 109.15 30.2 108.65 29.25 108.05 28.4 107.5 28.1 107.05 27.05 107.9 24.95 108.8 L21.7 109.9 19.05 132.3 Q18.45 137.25 17.95 143.4 L17.45 150.5 16.0 150.5 20.1 110.7 Q15.9 112.0 11.45 111.9 L11.2 111.9 7.45 150.5 5.95 150.5 6.4 145.2 9.6 111.65 Q5.95 111.4 3.15 110.2 0.2 108.9 -1.35 106.1 L-1.55 105.75 -1.5 105.35 -0.95 97.7 0.0 89.1 0.55 76.25 0.8 74.55 2.1 74.15 0.65 97.7 Q0.05 102.2 -0.05 105.35 1.35 107.95 4.25 109.05 7.05 110.1 10.85 110.2 L18.3 109.55 Q20.85 109.1 20.1 108.9 L21.8 108.35 21.85 108.35 23.75 107.6 25.25 107.0 Q27.25 106.05 27.4 105.65 L27.0 82.25 25.55 82.1 23.75 81.7 22.55 81.25 21.65 80.65 Q21.45 80.45 22.8 80.65 L23.75 80.8 26.2 80.95 29.25 80.95 29.8 80.95 32.1 80.65 Q33.1 80.55 32.8 80.85 L31.15 81.45 29.45 81.75 29.25 81.75 28.6 81.9 28.6 83.65 28.9 102.45 29.1 105.85 29.25 106.15 Q29.75 106.8 31.65 107.55 L42.95 108.15 50.95 108.9 Q55.25 108.9 59.1 107.95 62.95 107.0 65.95 104.55 L65.55 96.6 64.85 90.0 64.25 85.5 62.65 74.55" fill="#000000" fill-rule="evenodd" stroke="none"/>
      <path d="M61.7 150.5 L53.1 150.5 52.2 142.65 52.1 141.9 50.6 131.5 47.15 110.1 56.45 109.65 61.7 150.5 M16.0 150.5 L7.45 150.5 11.2 111.9 11.45 111.9 Q15.9 112.0 20.1 110.7 L16.0 150.5" fill="#488fc1" fill-rule="evenodd" stroke="none"/>
      <path d="M54.95 2.6 Q58.2 5.2 57.85 10.0 57.15 20.05 57.85 30.35 58.65 42.5 61.2 51.6 L52.8 52.05 Q46.1 53.25 40.65 56.45 35.75 59.45 28.7 60.05 22.1 60.55 15.8 58.8 9.4 57.05 5.75 53.5 1.85 49.7 2.5 44.9 3.95 34.35 10.05 24.35 16.55 13.75 26.65 6.3 30.85 3.25 36.45 1.55 41.9 -0.15 46.85 0.0 52.05 0.2 54.95 2.6" fill="#000823" fill-rule="evenodd" stroke="none"/>
      <path d="M53.75 3.8 Q56.8 6.35 56.5 10.9 55.85 20.4 56.5 30.0 57.2 41.3 59.65 49.95 57.05 49.55 52.15 50.8 46.55 52.2 40.2 55.35 34.9 57.9 28.2 58.35 21.75 58.8 16.0 57.25 10.05 55.6 6.9 52.4 3.35 48.85 4.0 44.2 5.35 34.2 11.15 24.6 17.35 14.45 26.95 7.35 30.9 4.45 36.2 2.8 41.35 1.15 46.05 1.35 50.95 1.6 53.75 3.8" fill="#ffbd20" fill-rule="evenodd" stroke="none"/>
      <path d="M57.4 38.8 L58.8 46.55 Q48.45 45.75 37.6 50.15 27.35 54.3 17.95 52.45 9.2 50.7 4.0 44.5 L4.0 44.2 Q4.5 40.45 5.75 36.45 11.65 42.0 19.9 43.55 28.95 45.3 37.9 41.65 48.65 37.2 57.4 38.8" fill="#e31e00" fill-rule="evenodd" stroke="none"/>
    </g>
    <g id="shape4" transform="matrix(1.0, 0.0, 0.0, 1.0, 0.0, 0.0)">
      <path d="M2.0 87.65 Q0.05 79.9 1.5 75.9 2.0 74.5 16.6 52.35 21.65 52.9 29.45 56.4 38.25 60.3 39.15 63.8 34.1 69.45 24.1 78.9 12.15 90.0 5.85 94.1 4.95 94.65 3.8 92.7 2.8 90.85 2.0 87.65" fill="#000823" fill-rule="evenodd" stroke="none"/>
      <path d="M17.15 53.3 Q19.95 56.2 22.85 57.9 28.05 61.05 37.6 64.0 33.15 69.3 22.05 79.4 9.85 90.55 4.25 93.7 L2.5 93.55 Q1.25 92.8 0.55 91.05 -1.25 86.05 2.75 76.3 L17.15 53.3" fill="#ffbd20" fill-rule="evenodd" stroke="none"/>
      <path d="M34.65 67.2 L31.15 70.7 Q27.05 71.1 22.95 69.7 16.4 67.3 12.5 60.6 L15.75 55.65 Q20.45 63.9 34.65 67.2" fill="#e31e00" fill-rule="evenodd" stroke="none"/>
      <path d="M42.25 33.65 Q38.5 47.55 28.5 59.05 26.35 58.2 23.3 56.15 L18.45 52.45 23.75 44.75 Q27.25 39.45 28.9 34.75 33.85 21.1 25.85 5.85 39.6 -3.45 41.35 2.05 46.6 17.65 42.25 33.65" fill="#000823" fill-rule="evenodd" stroke="none"/>
      <path d="M41.1 33.9 Q37.35 47.25 27.15 58.75 22.9 57.05 19.3 53.5 L24.65 45.55 Q28.3 39.85 30.05 34.9 35.15 20.3 27.15 5.1 38.45 -2.65 40.25 2.8 45.4 18.3 41.1 33.9" fill="#488fc1" fill-rule="evenodd" stroke="none"/>
    </g>
    <g id="shape5" transform="matrix(1.0, 0.0, 0.0, 1.0, 0.0, 0.0)">
      <path d="M10.5 5.3 Q15.25 0.7 20.8 0.1 27.75 -0.65 34.05 5.4 37.5 8.7 41.1 14.9 46.9 24.6 49.15 39.3 L50.25 41.8 Q52.15 45.8 50.3 49.6 48.5 53.5 43.7 55.75 39.15 57.9 34.0 57.0 28.1 55.95 25.7 51.05 L25.25 50.15 23.75 49.0 21.55 46.2 Q21.0 49.15 18.95 50.7 17.05 52.1 14.7 51.6 12.35 51.15 9.55 47.6 L1.35 36.85 Q0.2 35.15 0.05 32.5 -0.15 29.9 0.7 27.6 L1.35 26.05 Q0.7 22.3 2.6 17.65 5.7 9.9 10.5 5.3" fill="#000823" fill-rule="evenodd" stroke="none"/>
      <path d="M11.5 6.2 Q15.9 2.05 20.95 1.5 27.05 0.8 32.5 5.9 36.05 9.15 39.95 15.6 45.65 25.35 47.8 40.0 48.4 44.15 43.3 47.7 37.05 52.05 32.35 49.0 33.85 47.9 34.6 46.05 35.3 44.15 34.95 42.35 L37.65 40.2 Q39.05 38.7 39.05 37.6 36.2 41.0 33.55 42.25 L29.85 43.7 Q31.85 44.05 34.3 42.75 34.35 46.9 30.7 48.75 27.15 50.6 24.8 48.05 17.8 39.85 20.15 34.95 L24.15 28.7 Q26.85 24.4 27.35 22.2 L23.1 28.65 19.15 34.6 Q18.1 36.45 18.15 38.9 18.3 41.4 19.45 43.3 12.75 41.95 10.35 36.2 8.3 31.45 9.95 27.0 L13.85 19.9 Q16.3 15.65 16.55 12.3 15.65 14.8 13.8 17.7 L10.7 22.45 Q7.2 28.1 7.9 32.85 0.0 27.9 3.9 18.2 6.95 10.6 11.5 6.2" fill="#ffffff" fill-rule="evenodd" stroke="none"/>
      <path d="M13.15 42.4 Q15.6 44.1 20.25 45.1 20.1 47.7 18.5 49.2 16.95 50.7 15.05 50.25 13.15 49.85 10.65 46.75 L2.55 36.0 Q1.6 34.7 1.45 32.4 1.3 30.1 2.1 28.1 4.1 32.25 8.1 34.3 9.35 39.8 13.15 42.4" fill="#ffffff" fill-rule="evenodd" stroke="none"/>
      <path d="M43.1 54.45 Q39.0 56.4 34.45 55.65 29.15 54.75 26.95 50.4 29.4 50.8 31.75 49.45 33.4 51.0 36.05 51.15 38.55 51.25 41.3 50.2 47.45 47.7 49.0 42.4 50.6 45.8 48.95 49.1 47.35 52.45 43.1 54.45" fill="#ffffff" fill-rule="evenodd" stroke="none"/>
    </g>
    <g id="shape6" transform="matrix(1.0, 0.0, 0.0, 1.0, 0.0, 0.0)">
      <path d="M2.75 15.65 Q4.55 11.35 7.4 7.5 9.55 4.45 11.45 2.9 15.7 -0.75 21.75 0.2 28.45 1.3 34.1 5.5 39.7 9.7 41.95 15.2 42.9 17.65 43.05 20.05 L42.95 22.5 43.6 23.15 Q44.85 24.45 45.2 26.8 45.45 28.95 44.9 30.85 41.65 39.35 40.45 43.45 39.05 48.1 34.7 47.9 30.9 47.65 28.65 44.15 L28.45 44.4 28.35 45.5 Q27.85 49.85 23.65 52.3 19.8 54.55 14.95 54.25 9.85 53.9 6.45 50.9 2.5 47.5 2.5 41.8 L2.55 39.9 2.15 39.0 Q-2.4 27.9 2.75 15.65" fill="#000823" fill-rule="evenodd" stroke="none"/>
      <path d="M4.05 16.2 Q5.8 12.05 8.45 8.35 10.6 5.5 12.3 3.95 16.2 0.8 21.5 1.65 26.55 2.45 31.15 5.2 35.7 8.0 38.45 11.85 41.35 15.95 41.6 20.2 41.9 24.85 38.8 28.9 36.75 19.95 26.65 11.55 L29.7 15.15 33.65 20.25 Q38.4 27.25 37.3 31.65 35.75 37.35 28.85 40.05 30.1 35.05 26.65 29.3 23.35 23.75 18.65 22.45 22.95 25.0 25.9 30.1 29.25 35.85 27.75 40.3 27.35 41.45 25.9 42.4 24.45 43.45 22.6 43.8 18.0 44.75 15.1 41.15 L19.8 41.3 Q17.1 41.1 14.25 39.8 11.05 38.35 8.85 36.0 9.35 38.05 12.8 40.05 16.1 45.4 21.45 45.1 23.55 45.0 25.4 44.0 27.15 43.05 28.0 41.8 L28.05 42.25 Q27.0 44.75 23.8 46.4 20.65 48.1 16.85 48.1 12.6 48.1 9.35 45.95 5.45 43.45 3.45 38.5 -0.9 27.75 4.05 16.2" fill="#ffffff" fill-rule="evenodd" stroke="none"/>
      <path d="M39.1 43.0 Q38.45 45.15 36.9 46.0 L33.65 46.25 Q31.95 45.8 30.65 44.4 29.25 42.95 28.95 41.15 32.55 40.1 35.35 37.3 38.35 34.25 38.6 30.6 41.2 28.45 42.55 24.15 43.55 25.1 43.8 26.95 44.05 28.85 43.55 30.4 40.4 38.6 39.1 43.0" fill="#ffffff" fill-rule="evenodd" stroke="none"/>
      <path d="M26.95 45.4 Q26.55 49.0 22.85 51.1 19.4 53.1 14.95 52.75 10.35 52.5 7.35 49.85 3.95 46.85 3.95 41.8 8.7 49.15 16.7 49.25 19.9 49.25 22.8 48.1 25.5 47.05 26.95 45.4" fill="#ffffff" fill-rule="evenodd" stroke="none"/>
    </g>
  </defs>
</svg>
