<?xml version="1.0" encoding="UTF-8" standalone="no"?>
<svg xmlns:xlink="http://www.w3.org/1999/xlink" height="147.05px" width="112.8px" xmlns="http://www.w3.org/2000/svg">
  <g transform="matrix(1.0, 0.0, 0.0, 1.0, -1.45, 0.0)">
    <use data-characterId="30" height="96.65" transform="matrix(0.3764, 0.0214, -0.0214, 0.3764, 46.75, 109.55)" width="54.2" xlink:href="#shape0"/>
    <use data-characterId="285" height="110.0" transform="matrix(1.0, 0.0, 0.0, 1.0, 16.75, 5.0)" width="84.45" xlink:href="#shape1"/>
    <use data-characterId="122" height="262.35" transform="matrix(0.3856, 0.0219, -0.0219, 0.3856, 26.95, 9.3)" width="187.35" xlink:href="#shape2"/>
    <use data-characterId="31" height="37.0" transform="matrix(0.617, 0.035, -0.0405, 0.7135, 1.4808, 108.7518)" width="185.25" xlink:href="#shape3"/>
    <use data-characterId="286" height="12.6" transform="matrix(0.935, 0.0533, -0.0533, 0.935, 36.5769, 118.3558)" width="46.1" xlink:href="#text0"/>
    <use data-characterId="113" height="57.25" transform="matrix(0.3055, 0.0174, -0.0174, 0.3055, 49.9805, 76.2017)" width="57.1" xlink:href="#shape4"/>
    <use data-characterId="30" height="96.65" transform="matrix(0.3764, 0.0214, -0.0214, 0.3764, 46.75, 104.55)" width="54.2" xlink:href="#shape0"/>
    <use data-characterId="285" height="110.0" transform="matrix(1.0, 0.0, 0.0, 1.0, 16.75, 0.0)" width="84.45" xlink:href="#shape1"/>
    <use data-characterId="122" height="262.35" transform="matrix(0.3856, 0.0219, -0.0219, 0.3856, 26.95, 4.3)" width="187.35" xlink:href="#shape2"/>
    <use data-characterId="31" height="37.0" transform="matrix(0.617, 0.035, -0.0405, 0.7135, 1.4808, 103.7518)" width="185.25" xlink:href="#shape3"/>
    <use data-characterId="286" height="12.6" transform="matrix(0.935, 0.0533, -0.0533, 0.935, 36.5769, 113.3558)" width="46.1" xlink:href="#text0"/>
    <use data-characterId="113" height="57.25" transform="matrix(0.3055, 0.0174, -0.0174, 0.3055, 49.9805, 71.2017)" width="57.1" xlink:href="#shape4"/>
  </g>
  <defs>
    <g id="shape0" transform="matrix(1.0, 0.0, 0.0, 1.0, 0.0, 0.0)">
      <path d="M5.85 93.35 Q-0.15 90.4 0.0 90.0 L0.0 0.0 54.2 0.0 54.2 90.0 Q54.15 90.4 46.95 93.35 39.7 96.25 25.65 96.65 11.8 96.25 5.85 93.35" fill="url(#gradient0)" fill-rule="evenodd" stroke="none"/>
    </g>
    <linearGradient gradientTransform="matrix(0.0303, 0.0, 0.0, 0.0303, 25.7, 48.35)" gradientUnits="userSpaceOnUse" id="gradient0" spreadMethod="pad" x1="-819.2" x2="819.2">
      <stop offset="0.0" stop-color="#000000" stop-opacity="0.6"/>
      <stop offset="0.403921568627451" stop-color="#000000" stop-opacity="0.6"/>
      <stop offset="0.592156862745098" stop-color="#000000" stop-opacity="0.6"/>
      <stop offset="0.7803921568627451" stop-color="#000000" stop-opacity="0.6"/>
      <stop offset="1.0" stop-color="#000000" stop-opacity="0.6"/>
    </linearGradient>
    <g id="shape1" transform="matrix(1.0, 0.0, 0.0, 1.0, -16.75, 0.0)">
      <path d="M94.5 74.55 L94.6 74.4 94.5 74.55 M93.8 75.05 L94.05 75.75 94.25 76.0 94.5 76.15 Q96.45 76.9 96.85 74.95 97.2 76.5 95.85 76.8 93.7 77.2 93.8 75.05 M23.05 98.7 L22.15 99.05 27.75 105.3 89.15 108.8 92.95 103.25 98.3 75.45 98.2 70.65 98.0 58.8 76.35 44.3 80.1 35.7 81.15 33.3 73.7 4.0 56.75 0.85 44.55 29.0 46.5 41.25 46.55 41.75 25.6 52.35 17.85 74.85 21.8 98.65 22.15 99.0 23.05 98.7 M57.9 5.8 L61.15 2.8 61.1 3.6 57.85 6.65 57.9 5.8 M62.2 4.8 Q62.1 7.9 59.1 7.35 L58.55 7.25 58.55 6.5 59.7 6.85 Q61.9 6.8 62.2 4.8 M55.35 0.0 L75.4 2.0 83.15 31.15 79.15 42.7 101.2 59.25 100.25 79.5 95.05 104.1 92.2 110.0 24.85 106.15 19.75 99.65 16.75 74.7 23.85 50.85 42.55 42.9 44.1 42.15 42.4 27.85 55.35 0.0 M27.7 56.35 L27.75 55.55 27.8 55.55 31.05 52.55 31.0 53.3 27.7 56.35 M32.1 54.5 Q32.05 57.65 29.05 57.1 L28.45 56.95 28.5 56.2 Q29.0 56.55 29.65 56.6 31.75 56.55 32.1 54.5 M41.55 95.35 Q41.8 97.8 39.45 97.15 38.25 96.95 38.55 95.5 38.5 95.9 38.7 96.15 L39.0 96.5 39.25 96.6 Q41.2 97.4 41.55 95.35 M39.25 94.9 L39.15 95.05 39.25 94.9" fill="#000000" fill-opacity="0.6" fill-rule="evenodd" stroke="none"/>
      <path d="M98.2 70.65 L23.05 98.7 22.15 99.0 21.8 98.65 17.85 74.85 25.6 52.35 46.55 41.75 46.5 41.25 80.1 35.7 76.35 44.3 98.0 58.8 98.2 70.65 M61.4 3.85 L61.85 3.4 61.8 3.65 Q61.6 6.75 58.55 6.5 L61.4 3.85 M27.4 54.3 L27.35 55.2 Q27.2 55.45 27.7 56.35 L28.45 56.95 29.05 57.1 Q32.05 57.65 32.1 54.5 L31.7 53.2 31.75 53.5 Q31.45 56.55 28.5 56.2 L31.3 53.55 31.0 53.3 31.05 52.55 30.8 52.45 Q28.8 51.55 27.6 53.7 L27.4 54.3 M27.75 55.55 L27.75 55.5 27.8 55.55 27.75 55.55 M27.7 55.05 L27.7 55.0 27.75 54.95 27.7 55.05" fill="#000000" fill-opacity="0.6" fill-rule="evenodd" stroke="none"/>
      <path d="M95.1 74.05 L96.15 73.75 95.8 73.6 Q94.05 73.3 93.8 75.05 93.7 77.2 95.85 76.8 97.2 76.5 96.85 74.95 L96.6 74.15 96.15 73.75 95.1 74.05 M98.2 70.65 L98.3 75.45 92.95 103.25 89.15 108.8 27.75 105.3 22.15 99.05 23.05 98.7 98.2 70.65 M46.5 41.25 L44.55 29.0 56.75 0.85 73.7 4.0 81.15 33.3 80.1 35.7 46.5 41.25 M61.15 2.8 L61.0 2.7 60.9 2.7 59.1 2.6 Q57.75 3.1 57.5 4.55 L57.45 5.45 Q57.35 5.75 57.85 6.65 L58.55 7.25 59.1 7.35 Q62.1 7.9 62.2 4.8 L61.85 3.4 61.4 3.85 61.1 3.6 61.15 2.8 M57.8 5.2 L57.8 5.3 57.8 5.2 M41.3 94.6 L40.75 94.2 40.8 94.2 Q38.9 93.55 38.55 95.5 38.25 96.95 39.45 97.15 41.8 97.8 41.55 95.35 L41.3 94.6 M39.35 94.85 L39.25 94.9 39.35 94.85" fill="#000000" fill-opacity="0.6" fill-rule="evenodd" stroke="none"/>
      <path d="M94.6 74.4 L94.5 74.55 94.05 75.75 93.8 75.05 Q94.05 73.3 95.8 73.6 L96.15 73.75 95.1 74.05 94.6 74.4 M60.9 2.7 L60.7 2.75 Q58.7 3.4 57.8 5.2 L57.8 5.3 57.75 5.6 Q57.45 5.1 57.5 4.55 57.75 3.1 59.1 2.6 L60.9 2.7 M27.7 55.0 L27.65 55.35 27.4 54.3 27.6 53.7 Q28.8 51.55 30.8 52.45 28.95 52.9 27.95 54.55 L27.75 54.95 27.7 55.0 M38.55 95.5 Q38.9 93.55 40.8 94.2 L40.75 94.2 39.35 94.85 39.25 94.9 39.15 95.05 38.7 96.15 Q38.5 95.9 38.55 95.5" fill="#000000" fill-opacity="0.6" fill-rule="evenodd" stroke="none"/>
      <path d="M94.6 74.4 L95.1 74.05 96.15 73.75 96.6 74.15 Q96.55 74.95 95.9 75.55 95.15 76.05 94.25 76.0 L94.05 75.75 94.5 74.55 94.6 74.4 M60.9 2.7 L61.0 2.7 61.15 2.8 57.9 5.8 57.8 5.6 57.8 5.3 57.8 5.2 Q58.7 3.4 60.7 2.75 L60.9 2.7 M27.75 55.5 L27.7 55.35 27.7 55.05 27.75 54.95 27.95 54.55 Q28.95 52.9 30.8 52.45 L31.05 52.55 27.8 55.55 27.75 55.5 M40.75 94.2 L41.3 94.6 Q41.25 95.45 40.55 95.95 39.9 96.55 39.0 96.5 L38.7 96.15 39.15 95.05 39.25 94.9 39.35 94.85 40.75 94.2" fill="#000000" fill-opacity="0.6" fill-rule="evenodd" stroke="none"/>
      <path d="M96.85 74.95 Q96.45 76.9 94.5 76.15 L94.25 76.0 Q95.15 76.05 95.9 75.55 96.55 74.95 96.6 74.15 L96.85 74.95 M61.85 3.4 L62.2 4.8 Q61.9 6.8 59.7 6.85 L58.55 6.5 Q61.6 6.75 61.8 3.65 L61.85 3.4 M28.5 56.2 Q31.45 56.55 31.75 53.5 L31.7 53.2 32.1 54.5 Q31.75 56.55 29.65 56.6 29.0 56.55 28.5 56.2 M41.3 94.6 L41.55 95.35 Q41.2 97.4 39.25 96.6 L39.0 96.5 Q39.9 96.55 40.55 95.95 41.25 95.45 41.3 94.6" fill="#000000" fill-opacity="0.6" fill-rule="evenodd" stroke="none"/>
      <path d="M61.1 3.6 L61.4 3.85 58.55 6.5 58.55 7.25 57.85 6.65 61.1 3.6 M31.0 53.3 L31.3 53.55 28.5 56.2 28.45 56.95 27.7 56.35 31.0 53.3" fill="#000000" fill-opacity="0.6" fill-rule="evenodd" stroke="none"/>
      <path d="M57.8 5.3 L57.8 5.6 57.9 5.8 57.85 6.65 Q57.35 5.75 57.45 5.45 L57.5 4.55 Q57.45 5.1 57.75 5.6 L57.8 5.3 M27.7 56.35 Q27.2 55.45 27.35 55.2 L27.4 54.3 27.65 55.35 27.7 55.0 27.7 55.05 27.7 55.35 27.75 55.5 27.75 55.55 27.7 56.35" fill="#000000" fill-opacity="0.6" fill-rule="evenodd" stroke="none"/>
    </g>
    <g id="shape2" transform="matrix(1.0, 0.0, 0.0, 1.0, 0.0, 0.0)">
      <path d="M182.75 132.9 L187.35 174.3 182.8 218.6 177.85 240.35 177.45 240.7 179.65 244.5 161.5 261.05 Q152.2 254.25 144.25 245.95 L144.05 245.75 143.9 245.45 144.1 243.4 Q146.5 230.05 141.1 217.2 L139.75 213.4 137.45 205.6 131.35 211.7 137.55 260.65 137.15 261.9 136.05 262.35 52.85 262.35 51.35 260.75 55.3 214.7 44.9 202.9 41.65 234.2 41.5 234.95 40.0 241.95 43.15 246.4 42.95 247.75 26.35 260.4 5.5 241.65 6.65 239.45 2.5 220.05 0.0 176.3 7.3 136.45 7.7 135.45 65.7 98.5 62.0 84.9 61.2 81.7 64.6 68.0 65.75 64.9 55.2 63.55 54.85 62.25 78.65 0.7 79.2 0.0 116.7 0.5 117.15 1.05 136.75 61.2 136.6 62.55 126.55 63.75 130.4 81.9 127.25 95.95 126.4 98.45 182.1 132.2 182.75 132.9 M180.25 137.35 L139.55 203.2 144.1 212.0 145.25 214.3 Q149.95 224.25 149.35 235.25 L155.5 228.85 167.35 228.55 175.35 238.05 179.8 218.3 184.35 174.5 180.25 137.35 M127.3 41.95 L122.5 27.25 114.6 3.0 81.1 2.75 58.4 61.45 68.65 62.35 69.0 62.7 63.65 81.95 68.9 98.65 88.3 106.2 88.8 107.15 94.35 150.9 97.95 107.5 98.55 106.1 123.65 97.15 128.4 81.95 123.4 61.45 Q124.0 60.95 124.5 60.9 L133.3 60.3 127.3 41.95 M91.7 31.05 Q85.95 26.05 79.15 28.1 L77.4 29.15 76.4 28.7 76.25 28.3 Q85.3 21.25 92.55 30.35 L91.7 31.05 M81.55 34.2 L78.8 37.7 Q84.7 37.25 90.25 39.4 87.35 35.75 82.85 34.5 L81.55 34.2 M81.9 39.55 L78.2 39.8 77.85 40.2 77.75 41.1 Q82.95 42.2 88.1 40.9 L85.75 40.2 Q83.85 39.6 81.9 39.55 M82.15 49.0 L81.95 50.1 83.55 51.2 85.6 50.2 Q89.85 48.4 94.3 49.25 L95.3 52.8 99.45 52.6 98.4 49.25 99.4 48.4 Q105.0 48.0 110.05 50.35 L112.0 50.1 110.35 48.85 110.4 48.3 111.05 47.6 117.7 51.35 117.5 52.25 114.55 51.55 Q113.8 54.5 113.4 57.5 112.4 65.15 111.9 72.75 111.25 83.35 107.35 93.35 105.7 97.55 101.95 100.3 95.45 105.05 89.55 99.75 88.4 98.65 88.05 97.35 82.15 75.3 77.55 52.85 L76.05 54.5 74.75 53.95 Q77.05 50.05 81.25 48.35 L82.15 49.0 M99.15 39.55 Q103.65 34.1 110.2 31.9 118.15 29.2 118.95 37.45 L121.3 39.0 120.95 40.0 118.2 39.25 117.65 42.0 Q107.9 46.7 99.15 40.4 L99.15 39.55 M93.65 42.45 L76.85 42.95 73.75 45.15 72.7 44.75 72.65 43.6 75.75 41.25 75.8 40.1 72.8 40.2 72.15 39.8 72.4 38.4 75.5 38.1 Q77.25 34.1 80.75 31.25 90.6 32.45 94.45 41.3 L93.65 42.45 M109.7 38.45 L110.15 37.65 116.0 36.9 Q116.45 33.55 113.3 33.8 107.65 34.75 103.45 38.75 L108.95 38.45 109.1 39.25 108.6 39.9 103.45 40.75 104.95 41.3 Q110.6 42.95 115.95 40.65 L116.15 39.0 112.0 39.25 110.15 39.3 109.7 38.45 M114.95 27.5 Q112.85 25.35 110.0 25.85 L102.5 30.35 101.65 29.35 Q104.55 25.55 109.4 24.2 114.5 22.6 116.95 27.15 L115.85 28.05 114.95 27.5 M102.8 52.7 L105.85 51.8 102.1 51.2 102.8 52.7 M91.85 51.85 Q89.6 51.85 87.35 52.75 L92.3 53.7 Q91.9 52.9 91.85 51.85 M84.3 53.5 L85.2 53.95 79.75 51.55 79.3 51.8 Q82.3 74.05 86.0 82.35 89.65 90.6 95.25 90.1 106.3 92.3 108.85 80.25 111.35 68.15 111.55 52.2 L97.55 55.4 Q92.3 56.3 87.25 54.65 L84.3 53.5 M90.55 96.85 Q93.4 100.75 97.65 98.95 104.5 96.0 106.15 88.7 99.7 93.95 91.9 91.45 89.45 90.7 87.35 87.3 87.9 93.35 90.55 96.85 M48.7 134.45 L48.95 134.05 Q52.95 131.65 57.3 129.95 L35.6 128.35 34.9 127.6 33.75 122.4 10.7 137.05 28.65 175.85 44.05 198.4 44.5 198.4 Q52.0 205.9 58.35 214.35 L54.5 259.35 74.3 259.35 76.55 194.6 88.3 172.55 48.95 135.95 48.5 134.9 48.7 134.45 M64.85 128.0 L65.1 129.2 52.55 135.2 89.75 169.85 92.95 163.45 76.65 125.75 71.5 132.9 70.7 132.9 70.4 132.45 Q67.65 117.4 65.7 102.05 L36.5 120.65 37.25 125.5 63.7 127.4 64.85 128.0 M71.9 127.35 L85.0 108.1 68.7 101.85 71.9 127.35 M9.45 141.35 L3.0 176.3 5.5 219.7 9.05 236.2 16.35 226.25 16.7 225.8 17.2 225.6 25.55 225.9 Q32.05 227.65 38.05 231.4 38.75 235.4 39.85 228.45 41.0 221.2 42.3 201.15 L26.15 177.55 9.45 141.35 M125.25 129.35 L151.8 126.15 151.6 117.2 125.5 101.4 117.55 134.15 Q116.45 134.6 115.65 133.65 L114.0 131.45 112.35 129.15 Q104.6 146.15 96.35 162.95 91.0 173.9 85.15 184.65 95.2 173.85 105.8 163.6 119.2 150.7 133.2 138.35 L124.25 130.5 125.25 129.35 M133.1 134.1 Q137.1 135.75 137.0 138.95 L107.35 165.2 79.55 195.05 77.35 259.35 134.35 259.35 128.25 211.35 136.65 202.15 178.8 134.0 154.65 119.05 154.85 127.45 Q154.9 128.8 153.5 128.95 L129.4 131.9 Q131.15 133.2 133.1 134.1 M100.6 111.7 L97.0 155.55 110.4 126.25 100.6 111.7 M116.1 129.2 L122.6 100.75 101.8 108.1 116.1 129.2 M86.3 111.5 L78.65 122.85 91.5 152.5 86.3 111.5 M147.15 245.2 L161.1 257.6 176.2 243.7 166.05 231.4 156.8 231.7 149.2 239.85 149.3 240.5 154.95 244.95 157.75 243.65 158.3 241.6 159.75 241.65 162.95 247.15 162.75 247.95 161.15 248.45 160.6 248.25 159.4 246.4 154.5 248.15 148.15 243.4 147.15 245.2 M9.0 241.3 L26.0 256.95 39.6 246.45 38.05 244.4 35.25 246.4 23.3 243.25 Q22.35 240.45 23.85 237.3 24.2 236.6 25.15 236.65 L25.9 237.1 25.8 241.2 34.55 243.3 37.05 241.4 38.55 235.3 25.5 227.0 18.4 228.4 9.0 241.3" fill="#000000" fill-opacity="0.6" fill-rule="evenodd" stroke="none"/>
      <path d="M180.25 137.35 L184.35 174.5 179.8 218.3 175.35 238.05 167.35 228.55 155.5 228.85 149.35 235.25 Q149.95 224.25 145.25 214.3 L144.1 212.0 139.55 203.2 180.25 137.35 M122.5 27.25 Q116.25 16.05 104.0 11.8 91.25 7.4 81.1 16.75 67.45 29.35 66.45 48.1 66.1 55.1 71.55 58.8 L68.65 62.35 58.4 61.45 81.1 2.75 114.6 3.0 122.5 27.25 M123.4 61.45 L120.75 59.5 Q126.4 57.25 127.3 51.45 128.0 46.65 127.3 41.95 L133.3 60.3 124.5 60.9 Q124.0 60.95 123.4 61.45 M81.55 34.2 L82.85 34.5 Q87.35 35.75 90.25 39.4 84.7 37.25 78.8 37.7 L81.55 34.2 M108.95 38.45 L103.45 38.75 Q107.65 34.75 113.3 33.8 116.45 33.55 116.0 36.9 L110.15 37.65 109.7 38.45 108.95 38.45 M91.85 51.85 Q91.9 52.9 92.3 53.7 L87.35 52.75 Q89.6 51.85 91.85 51.85 M102.8 52.7 L102.1 51.2 105.85 51.8 102.8 52.7 M64.85 128.0 L63.7 127.4 37.25 125.5 36.5 120.65 65.7 102.05 Q67.65 117.4 70.4 132.45 L70.7 132.9 71.5 132.9 76.65 125.75 92.95 163.45 89.75 169.85 52.55 135.2 65.1 129.2 64.85 128.0 M48.7 134.45 L48.5 134.9 48.95 135.95 88.3 172.55 76.55 194.6 74.3 259.35 54.5 259.35 58.35 214.35 Q52.0 205.9 44.5 198.4 L44.05 198.4 28.65 175.85 10.7 137.05 33.75 122.4 34.9 127.6 35.6 128.35 57.3 129.95 Q52.95 131.65 48.95 134.05 L48.7 134.45 M90.55 96.85 Q87.9 93.35 87.35 87.3 89.45 90.7 91.9 91.45 99.7 93.95 106.15 88.7 104.5 96.0 97.65 98.95 93.4 100.75 90.55 96.85 M133.1 134.1 Q131.15 133.2 129.4 131.9 L153.5 128.95 Q154.9 128.8 154.85 127.45 L154.65 119.05 178.8 134.0 136.65 202.15 128.25 211.35 134.35 259.35 77.35 259.35 79.55 195.05 107.35 165.2 137.0 138.95 Q137.1 135.75 133.1 134.1 M125.25 129.35 L124.25 130.5 133.2 138.35 Q119.2 150.7 105.8 163.6 95.2 173.85 85.15 184.65 91.0 173.9 96.35 162.95 104.6 146.15 112.35 129.15 L114.0 131.45 115.65 133.65 Q116.45 134.6 117.55 134.15 L125.5 101.4 151.6 117.2 151.8 126.15 125.25 129.35 M9.45 141.35 L26.15 177.55 42.3 201.15 Q41.0 221.2 39.85 228.45 38.75 235.4 38.05 231.4 32.05 227.65 25.55 225.9 L17.2 225.6 16.7 225.8 16.35 226.25 9.05 236.2 5.5 219.7 3.0 176.3 9.45 141.35" fill="#000000" fill-opacity="0.6" fill-rule="evenodd" stroke="none"/>
      <path d="M9.0 241.3 L18.4 228.4 25.5 227.0 38.55 235.3 37.05 241.4 34.55 243.3 25.8 241.2 25.9 237.1 25.15 236.65 Q24.2 236.6 23.85 237.3 22.35 240.45 23.3 243.25 L35.25 246.4 38.05 244.4 39.6 246.45 26.0 256.95 9.0 241.3 M147.15 245.2 L148.15 243.4 154.5 248.15 159.4 246.4 160.6 248.25 161.15 248.45 162.75 247.95 162.95 247.15 159.75 241.65 158.3 241.6 157.75 243.65 154.95 244.95 149.3 240.5 149.2 239.85 156.8 231.7 166.05 231.4 176.2 243.7 161.1 257.6 147.15 245.2" fill="#000000" fill-opacity="0.6" fill-rule="evenodd" stroke="none"/>
      <path d="M85.75 40.2 L88.1 40.9 Q82.95 42.2 77.75 41.1 L77.85 40.2 78.2 39.8 81.9 39.55 Q83.0 42.15 85.75 40.2 M112.0 39.25 L116.15 39.0 115.95 40.65 Q110.6 42.95 104.95 41.3 L103.45 40.75 108.6 39.9 Q109.1 40.35 110.05 40.4 111.5 40.3 112.0 39.25 M84.3 53.5 L87.25 54.65 Q92.3 56.3 97.55 55.4 L111.55 52.2 Q111.35 68.15 108.85 80.25 106.3 92.3 95.25 90.1 89.65 90.6 86.0 82.35 82.3 74.05 79.3 51.8 L79.75 51.55 85.2 53.95 84.3 53.5" fill="#000000" fill-opacity="0.6" fill-rule="evenodd" stroke="none"/>
      <path d="M81.9 39.55 Q83.85 39.6 85.75 40.2 83.0 42.15 81.9 39.55 M108.95 38.45 L109.7 38.45 110.15 39.3 112.0 39.25 Q111.5 40.3 110.05 40.4 109.1 40.35 108.6 39.9 L109.1 39.25 108.95 38.45" fill="#000000" fill-opacity="0.6" fill-rule="evenodd" stroke="none"/>
      <path d="M71.9 127.35 L68.7 101.85 85.0 108.1 71.9 127.35 M86.3 111.5 L91.5 152.5 78.65 122.85 86.3 111.5 M116.1 129.2 L101.8 108.1 122.6 100.75 116.1 129.2 M100.6 111.7 L110.4 126.25 97.0 155.55 100.6 111.7" fill="#000000" fill-opacity="0.6" fill-rule="evenodd" stroke="none"/>
      <path d="M122.5 27.25 L127.3 41.95 Q128.0 46.65 127.3 51.45 126.4 57.25 120.75 59.5 L123.4 61.45 128.4 81.95 123.65 97.15 98.55 106.1 97.95 107.5 94.35 150.9 88.8 107.15 88.3 106.2 68.9 98.65 63.65 81.95 69.0 62.7 68.65 62.35 71.55 58.8 Q66.1 55.1 66.45 48.1 67.45 29.35 81.1 16.75 91.25 7.4 104.0 11.8 116.25 16.05 122.5 27.25 M91.7 31.05 L92.55 30.35 Q85.3 21.25 76.25 28.3 L76.4 28.7 77.4 29.15 79.15 28.1 Q85.95 26.05 91.7 31.05 M93.65 42.45 L94.45 41.3 Q90.6 32.45 80.75 31.25 77.25 34.1 75.5 38.1 L72.4 38.4 72.15 39.8 72.8 40.2 75.8 40.1 75.75 41.25 72.65 43.6 72.7 44.75 73.75 45.15 76.85 42.95 93.65 42.45 M99.15 39.55 L99.15 40.4 Q107.9 46.7 117.65 42.0 L118.2 39.25 120.95 40.0 121.3 39.0 118.95 37.45 Q118.15 29.2 110.2 31.9 103.65 34.1 99.15 39.55 M82.15 49.0 L81.25 48.35 Q77.05 50.05 74.75 53.95 L76.05 54.5 77.55 52.85 Q82.15 75.3 88.05 97.35 88.4 98.65 89.55 99.75 95.45 105.05 101.95 100.3 105.7 97.55 107.35 93.35 111.25 83.35 111.9 72.75 112.4 65.15 113.4 57.5 113.8 54.5 114.55 51.55 L117.5 52.25 117.7 51.35 111.05 47.6 110.4 48.3 110.35 48.85 112.0 50.1 110.05 50.35 Q105.0 48.0 99.4 48.4 L98.4 49.25 99.45 52.6 95.3 52.8 94.3 49.25 Q89.85 48.4 85.6 50.2 L83.55 51.2 81.95 50.1 82.15 49.0 M114.95 27.5 L115.85 28.05 116.95 27.15 Q114.5 22.6 109.4 24.2 104.55 25.55 101.65 29.35 L102.5 30.35 110.0 25.85 Q112.85 25.35 114.95 27.5" fill="#000000" fill-opacity="0.6" fill-rule="evenodd" stroke="none"/>
    </g>
    <g id="shape3" transform="matrix(1.0, 0.0, 0.0, 1.0, -0.05, 0.0)">
      <path d="M185.25 8.2 L185.3 8.25 185.25 8.25 185.25 8.2 M1.9 5.2 L2.3 2.85 18.75 2.05 59.05 0.7 Q83.4 0.05 109.4 0.3 115.1 0.55 118.85 1.6 122.65 2.7 128.15 3.0 L129.3 1.5 Q130.05 0.2 130.5 0.0 160.7 0.5 181.5 3.85 L183.45 6.1 103.3 3.5 Q60.0 3.6 6.5 5.1 L1.9 5.2 M176.25 8.0 L176.45 8.4 177.65 11.45 178.5 13.65 Q179.3 12.8 179.7 10.9 179.7 9.8 179.25 9.1 L179.9 9.55 Q180.65 10.3 180.7 11.75 179.85 15.7 177.15 15.05 175.8 14.75 175.1 13.85 L176.15 14.2 177.35 14.25 176.45 12.35 174.9 8.8 174.8 8.5 174.95 8.35 Q175.75 7.8 176.25 8.0 M178.25 27.3 L179.85 27.15 Q180.5 27.3 181.25 27.95 183.6 31.2 181.35 32.8 180.2 33.6 179.1 33.5 L180.8 32.15 178.8 31.55 175.1 30.4 175.2 29.1 175.2 29.0 175.25 28.7 175.4 28.75 175.85 28.9 178.95 30.05 181.1 30.85 Q181.0 29.65 179.9 28.15 179.05 27.45 178.25 27.3 M9.35 6.95 L10.7 10.45 11.7 12.9 Q12.6 11.95 13.05 9.85 13.05 8.55 12.5 7.75 13.85 8.35 14.15 10.05 L13.75 12.35 Q12.6 15.1 10.15 14.55 8.75 14.25 8.0 13.4 L7.85 13.2 9.0 13.6 10.35 13.65 9.35 11.4 7.6 7.45 8.75 6.6 9.2 6.55 9.35 6.95 M9.4 25.3 Q11.0 24.35 12.9 25.8 15.0 28.35 14.35 30.1 L13.4 31.3 Q12.2 32.25 10.95 32.25 L12.75 30.6 10.4 30.05 6.2 29.05 6.15 27.55 6.15 27.1 6.35 27.15 6.9 27.35 10.45 28.4 12.95 29.1 Q12.75 27.8 11.35 26.15 10.35 25.35 9.4 25.3" fill="#000000" fill-opacity="0.6" fill-rule="evenodd" stroke="none"/>
      <path d="M0.05 36.7 L0.75 22.9 Q1.05 14.95 1.6 7.0 L1.9 5.2 6.5 5.1 3.2 8.3 1.95 36.45 0.05 36.7" fill="#000000" fill-opacity="0.6" fill-rule="evenodd" stroke="none"/>
      <path d="M13.75 12.35 L14.15 10.05 26.45 10.0 13.75 12.35 M8.0 13.4 L7.0 13.55 7.2 26.2 6.35 27.15 6.15 27.1 6.15 27.55 Q5.15 29.5 6.75 31.55 8.95 33.2 10.95 32.25 12.2 32.25 13.4 31.3 L14.35 30.1 16.45 30.2 36.65 31.3 56.5 32.6 Q50.4 32.9 38.0 32.9 L15.1 32.75 3.85 32.6 5.25 10.05 6.0 10.05 Q6.15 12.3 7.85 13.2 L8.0 13.4" fill="#000000" fill-opacity="0.6" fill-rule="evenodd" stroke="none"/>
      <path d="M175.1 13.85 Q175.8 14.75 177.15 15.05 179.85 15.7 180.7 11.75 180.65 10.3 179.9 9.55 L180.85 9.65 179.85 27.15 178.25 27.3 177.7 27.3 177.8 15.2 160.95 13.3 Q144.35 11.4 115.0 6.95 144.55 7.2 162.45 8.35 L174.1 9.15 Q173.65 9.7 173.4 10.6 173.45 12.95 175.1 13.85 M175.3 32.3 L137.05 30.55 175.2 29.0 175.2 29.1 Q174.3 30.55 175.3 32.3" fill="#000000" fill-opacity="0.6" fill-rule="evenodd" stroke="none"/>
      <path d="M176.45 8.4 L176.25 8.0 176.9 7.95 Q178.55 8.05 179.25 9.1 179.7 9.8 179.7 10.9 179.3 12.8 178.5 13.65 L177.65 11.45 178.05 10.25 Q178.0 8.55 176.45 8.4 M174.8 8.5 L174.9 8.8 Q174.35 9.2 174.15 10.05 174.2 11.9 175.85 12.3 L176.45 12.35 177.35 14.25 176.15 14.2 175.1 13.85 Q173.45 12.95 173.4 10.6 173.65 9.7 174.1 9.15 L174.8 8.5 M177.7 27.3 L178.25 27.3 Q179.05 27.45 179.9 28.15 181.0 29.65 181.1 30.85 L178.95 30.05 178.3 28.9 Q177.0 27.8 175.85 28.9 L175.4 28.75 175.8 28.3 Q176.7 27.35 177.7 27.3 M179.1 33.5 Q177.3 34.2 175.5 32.65 L175.3 32.3 Q174.3 30.55 175.2 29.1 L175.1 30.4 Q175.25 32.1 176.95 32.35 178.0 32.25 178.8 31.55 L180.8 32.15 179.1 33.5 M10.7 10.45 L11.2 9.05 Q11.15 7.15 9.35 6.95 L9.2 6.55 9.9 6.5 Q11.75 6.6 12.5 7.75 13.05 8.55 13.05 9.85 12.6 11.95 11.7 12.9 L10.7 10.45 M7.2 26.2 Q8.2 25.2 9.4 25.3 10.35 25.35 11.35 26.15 12.75 27.8 12.95 29.1 L10.45 28.4 Q9.75 26.65 8.05 26.6 L6.9 27.35 6.35 27.15 7.2 26.2 M6.0 10.05 L5.95 9.55 Q6.6 7.0 8.75 6.6 L7.6 7.45 Q7.0 7.9 6.75 8.85 6.8 10.95 8.7 11.35 L9.35 11.4 10.35 13.65 9.0 13.6 7.85 13.2 Q6.15 12.3 6.0 10.05 M6.15 27.55 L6.2 29.05 Q6.45 30.9 8.2 31.1 9.7 31.2 10.4 30.05 L12.75 30.6 10.95 32.25 Q8.95 33.2 6.75 31.55 5.15 29.5 6.15 27.55" fill="#000000" fill-opacity="0.6" fill-rule="evenodd" stroke="none"/>
      <path d="M174.9 8.8 L176.45 12.35 175.85 12.3 Q174.2 11.9 174.15 10.05 174.35 9.2 174.9 8.8 M177.65 11.45 L176.45 8.4 Q178.0 8.55 178.05 10.25 L177.65 11.45 M175.85 28.9 Q177.0 27.8 178.3 28.9 L178.95 30.05 175.85 28.9 M175.1 30.4 L178.8 31.55 Q178.0 32.25 176.95 32.35 175.25 32.1 175.1 30.4 M9.35 6.95 Q11.15 7.15 11.2 9.05 L10.7 10.45 9.35 6.95 M9.35 11.4 L8.7 11.35 Q6.8 10.95 6.75 8.85 7.0 7.9 7.6 7.45 L9.35 11.4 M10.45 28.4 L6.9 27.35 8.05 26.6 Q9.75 26.65 10.45 28.4 M6.2 29.05 L10.4 30.05 Q9.7 31.2 8.2 31.1 6.45 30.9 6.2 29.05" fill="#000000" fill-opacity="0.6" fill-rule="evenodd" stroke="none"/>
      <path d="M183.45 6.1 L185.3 6.25 185.25 8.2 185.25 8.25 185.1 13.45 184.65 27.3 184.3 36.25 Q157.35 34.75 133.85 35.55 L89.2 37.0 Q65.15 37.15 43.55 35.85 22.0 34.5 0.05 36.75 L0.05 36.7 1.95 36.45 3.2 8.3 6.5 5.1 Q60.0 3.6 103.3 3.5 L183.45 6.1 M176.25 8.0 Q175.75 7.8 174.95 8.35 L174.8 8.5 174.1 9.15 162.45 8.35 Q144.55 7.2 115.0 6.95 144.35 11.4 160.95 13.3 L177.8 15.2 177.7 27.3 Q176.7 27.35 175.8 28.3 L175.4 28.75 175.25 28.7 175.2 29.0 137.05 30.55 175.3 32.3 175.5 32.65 Q177.3 34.2 179.1 33.5 180.2 33.6 181.35 32.8 183.6 31.2 181.25 27.95 180.5 27.3 179.85 27.15 L180.85 9.65 179.9 9.55 179.25 9.1 Q178.55 8.05 176.9 7.95 L176.25 8.0 M12.5 7.75 Q11.75 6.6 9.9 6.5 L9.2 6.55 8.75 6.6 Q6.6 7.0 5.95 9.55 L6.0 10.05 5.25 10.05 3.85 32.6 15.1 32.75 38.0 32.9 Q50.4 32.9 56.5 32.6 L36.65 31.3 16.45 30.2 14.35 30.1 Q15.0 28.35 12.9 25.8 11.0 24.35 9.4 25.3 8.2 25.2 7.2 26.2 L7.0 13.55 8.0 13.4 Q8.75 14.25 10.15 14.55 12.6 15.1 13.75 12.35 L26.45 10.0 14.15 10.05 Q13.85 8.35 12.5 7.75" fill="url(#gradient1)" fill-rule="evenodd" stroke="none"/>
    </g>
    <linearGradient gradientTransform="matrix(0.1131, 0.0, 0.0, 0.0204, 92.65, 20.25)" gradientUnits="userSpaceOnUse" id="gradient1" spreadMethod="pad" x1="-819.2" x2="819.2">
      <stop offset="0.0" stop-color="#000000" stop-opacity="0.6"/>
      <stop offset="1.0" stop-color="#000000" stop-opacity="0.6"/>
    </linearGradient>
    <g id="text0" transform="matrix(1.0, 0.0, 0.0, 1.0, -50.55, -4.45)">
      <g transform="matrix(1.0, 0.0, 0.0, 1.0, 49.9, 0.0)">
        <use fill="#000000" fill-opacity="0.6" height="12.6" transform="matrix(0.3906, 0.0, 0.0, 0.3906, 0.0, 17.0)" width="46.1" xlink:href="#font_______W7_S0"/>
        <use fill="#000000" fill-opacity="0.6" height="12.6" transform="matrix(0.3906, 0.0, 0.0, 0.3906, 12.15, 17.0)" width="46.1" xlink:href="#font_______W7_t0"/>
        <use fill="#000000" fill-opacity="0.6" height="12.6" transform="matrix(0.3906, 0.0, 0.0, 0.3906, 20.6, 17.0)" width="46.1" xlink:href="#font_______W7_a0"/>
        <use fill="#000000" fill-opacity="0.6" height="12.6" transform="matrix(0.3906, 0.0, 0.0, 0.3906, 31.15, 17.0)" width="46.1" xlink:href="#font_______W7_r0"/>
        <use fill="#000000" fill-opacity="0.6" height="12.6" transform="matrix(0.3906, 0.0, 0.0, 0.3906, 37.6, 17.0)" width="46.1" xlink:href="#font_______W7_t0"/>
      </g>
    </g>
    <g id="font_______W7_S0">
      <path d="M31.55 -9.25 L31.55 -9.25 Q31.55 -13.4 28.3 -15.85 25.95 -17.65 19.7 -19.75 10.7 -22.75 10.7 -24.2 10.7 -25.4 11.9 -26.1 13.0 -26.75 14.65 -26.75 21.7 -26.75 27.4 -23.2 L30.25 -27.8 Q24.05 -32.15 16.75 -32.15 11.9 -32.15 8.45 -30.45 4.0 -28.25 4.0 -23.9 4.0 -20.3 7.85 -18.05 9.4 -17.1 15.9 -14.75 23.85 -11.9 23.85 -10.1 23.85 -8.7 22.45 -7.9 21.25 -7.25 19.75 -7.25 15.9 -7.25 12.1 -9.95 8.85 -12.25 6.35 -15.9 L1.55 -6.1 Q4.85 -3.25 9.45 -1.6 14.1 0.05 18.65 0.05 23.45 0.05 27.15 -2.15 31.55 -4.75 31.55 -9.25" fill-rule="evenodd" stroke="none"/>
    </g>
    <g id="font_______W7_t0">
      <path d="M18.7 -12.2 L18.7 -12.2 Q17.0 -9.35 14.9 -9.35 11.95 -9.35 11.95 -15.4 L21.65 -15.4 20.1 -22.55 12.4 -21.45 Q12.75 -24.2 13.6 -27.95 L8.95 -28.85 Q7.75 -24.65 7.1 -20.75 L0.75 -19.9 1.75 -15.4 6.55 -15.4 6.5 -12.55 Q6.5 -6.8 7.75 -4.05 9.5 0.05 14.55 0.05 19.1 0.05 23.25 -4.15 L18.7 -12.2" fill-rule="evenodd" stroke="none"/>
    </g>
    <g id="font_______W7_a0">
      <path d="M19.05 -8.85 L19.05 -8.85 18.5 -5.05 17.1 -9.0 Q14.35 -6.2 10.6 -6.2 9.95 -6.2 9.45 -6.75 9.0 -7.2 9.0 -7.85 9.0 -10.2 13.7 -10.2 15.9 -10.2 19.05 -8.85 M27.4 -6.8 L27.4 -6.8 Q27.4 -21.45 13.35 -21.45 7.15 -21.45 2.55 -18.35 L4.3 -14.35 Q8.3 -16.55 13.15 -16.55 17.85 -16.55 18.85 -13.35 15.4 -14.5 12.8 -14.5 8.6 -14.5 5.6 -12.8 1.8 -10.75 1.8 -6.95 1.8 -3.5 4.9 -1.55 7.55 0.05 11.15 0.05 13.95 0.05 17.35 -0.95 L17.0 0.15 26.7 -0.3 Q27.4 -3.45 27.4 -6.8" fill-rule="evenodd" stroke="none"/>
    </g>
    <g id="font_______W7_r0">
      <path d="M18.3 -20.6 L18.3 -20.6 Q16.55 -21.45 14.75 -21.45 11.5 -21.45 8.7 -18.65 L8.45 -20.75 4.45 -21.45 2.55 0.05 10.65 -1.4 9.3 -12.8 Q10.55 -14.85 12.3 -14.85 13.25 -14.85 14.55 -13.85 L16.55 -12.05 18.3 -20.6" fill-rule="evenodd" stroke="none"/>
    </g>
    <g id="shape4" transform="matrix(1.0, 0.0, 0.0, 1.0, -0.1, 0.0)">
      <path d="M44.15 4.15 Q48.25 3.4 52.05 4.8 L52.4 5.0 52.3 11.35 52.25 12.55 Q56.95 19.4 57.2 28.65 56.95 39.1 50.85 46.55 L50.85 48.45 50.25 54.2 Q46.95 55.8 43.1 54.6 L42.4 54.05 42.25 53.8 Q36.25 57.05 28.6 57.25 20.95 57.05 14.95 53.75 L14.75 54.3 14.4 54.75 8.05 54.95 Q6.45 53.25 6.75 50.75 L6.9 47.7 6.85 47.2 Q3.0 42.7 1.3 37.15 -0.8 29.9 0.85 22.5 2.4 15.75 6.8 10.6 15.0 0.95 27.95 0.05 L28.3 0.05 28.6 0.05 Q37.0 0.25 43.5 4.2 L44.15 4.15 M50.75 10.0 L51.2 5.6 42.35 5.6 Q42.7 27.1 43.4 48.6 43.45 50.9 43.95 52.95 L47.55 53.2 49.45 52.9 Q49.55 33.1 50.45 13.35 L50.75 10.0 M40.95 5.25 Q41.05 4.75 41.2 4.9 L41.4 4.8 Q35.75 1.65 28.6 1.45 17.05 1.75 9.4 9.45 1.7 17.1 1.4 28.65 1.65 37.85 6.6 44.65 L6.5 43.3 6.35 41.05 6.05 39.7 Q1.4 28.1 7.05 17.05 11.65 8.15 21.3 5.15 31.5 2.15 40.85 7.15 L40.95 5.25 M45.1 11.4 L45.35 12.2 47.45 10.1 46.65 9.85 Q45.25 10.0 45.1 11.4 M40.8 9.45 L40.8 8.75 Q35.55 5.45 28.65 5.3 18.7 5.6 12.0 12.3 5.3 19.0 5.05 28.9 5.2 33.9 6.95 38.05 L7.95 37.8 14.45 37.8 15.3 38.55 15.05 47.8 17.35 48.85 17.4 46.3 17.4 42.55 16.8 27.7 17.8 27.05 Q22.25 25.8 26.4 27.25 L26.7 27.55 26.7 51.5 26.7 51.95 29.25 52.05 29.25 51.35 29.25 47.1 29.3 44.85 28.85 16.2 30.2 15.55 38.9 15.85 38.7 49.4 38.7 49.8 41.85 47.95 41.85 47.1 41.95 42.75 41.95 38.3 41.0 14.95 40.85 11.15 40.8 9.45 M44.55 12.65 Q44.5 11.25 45.1 10.1 45.7 8.9 46.6 8.8 47.5 8.7 48.2 9.75 48.9 10.75 48.95 12.35 48.4 13.7 46.65 13.9 45.1 13.75 44.55 12.65 M48.3 45.2 L48.65 46.05 Q49.15 47.55 48.1 48.55 L46.3 49.2 Q44.8 49.15 44.1 47.55 43.75 46.05 44.6 45.2 L45.65 44.45 Q47.35 44.0 48.3 45.2 M46.3 12.95 L46.65 13.0 Q48.75 12.6 48.05 10.7 L46.3 12.95 M50.85 42.75 L50.85 44.4 Q55.35 38.0 55.55 29.2 55.4 21.65 52.1 15.6 L52.05 16.5 Q51.5 20.6 52.6 24.4 53.15 26.45 53.2 28.65 53.35 33.65 51.5 38.1 50.6 40.15 50.85 42.75 M51.15 34.95 Q51.9 31.85 51.85 28.65 L51.65 24.65 51.15 34.95 M44.9 46.45 L44.9 47.25 Q45.45 48.6 46.85 48.1 L47.6 47.8 44.9 46.45 M47.9 46.25 Q47.35 44.95 45.9 45.3 45.55 45.45 45.3 45.7 L47.95 47.0 47.9 46.25 M38.0 18.15 L38.1 16.8 29.9 16.9 31.25 53.15 37.5 53.45 37.55 53.2 Q36.9 35.65 38.0 18.15 M35.4 21.6 L35.0 20.95 32.75 21.0 32.45 21.65 35.4 21.6 M32.05 23.7 Q30.8 22.05 32.1 20.4 L32.25 20.3 Q33.9 18.95 35.6 20.25 L35.8 20.5 Q37.0 22.1 35.7 23.75 L35.55 23.9 Q33.9 25.2 32.2 23.85 L32.05 23.7 M35.4 48.0 Q37.9 50.5 35.05 52.15 L32.75 52.05 Q31.1 50.6 32.2 48.6 33.2 47.3 35.0 47.8 L35.4 48.0 M32.4 22.2 L32.8 22.85 35.05 22.8 35.35 22.15 32.4 22.2 M20.1 34.85 Q19.2 34.05 19.3 32.95 19.55 30.6 21.75 30.6 23.45 30.5 23.95 32.0 24.55 33.8 23.2 34.9 L20.1 34.85 M23.55 48.15 Q24.4 48.75 24.5 49.6 24.85 52.4 22.1 52.65 21.25 52.3 20.65 51.7 18.85 49.95 20.8 48.1 L23.55 48.15 M9.4 44.7 L9.2 45.45 Q9.35 46.9 10.75 47.05 L11.55 46.85 9.4 44.7 M9.05 47.25 L8.8 46.95 Q7.8 45.3 9.05 43.7 10.1 42.75 11.45 43.15 L12.0 43.35 Q13.1 43.95 13.25 45.45 13.05 47.15 11.75 47.7 10.7 48.45 9.05 47.25 M12.35 45.45 Q12.2 44.05 10.75 43.9 L10.0 44.1 12.15 46.25 12.35 45.45 M14.2 38.7 L7.45 38.8 8.6 53.65 Q9.45 54.1 10.5 54.05 L14.1 53.7 14.2 38.7 M21.65 31.4 L20.9 31.6 23.05 33.75 23.25 32.95 Q23.1 31.55 21.65 31.4 M22.45 34.35 L20.3 32.2 20.1 32.95 Q20.35 34.35 21.65 34.55 L22.45 34.35 M22.15 48.6 Q21.45 48.65 21.1 49.0 20.65 49.4 20.55 50.15 L20.75 50.9 22.85 48.8 22.15 48.6 M35.3 49.15 L33.1 49.1 32.65 49.55 32.6 50.35 35.3 49.15 M25.55 28.05 L17.9 28.15 19.3 53.15 24.75 53.25 25.55 28.05 M41.95 51.4 L41.85 49.6 38.7 51.3 38.55 53.05 38.35 54.05 42.0 52.4 41.95 51.4 M25.95 54.9 L23.3 55.25 Q28.6 56.35 33.95 55.25 L30.85 54.9 Q29.8 54.75 29.55 53.85 L29.45 53.4 26.6 53.3 25.95 54.9 M33.2 51.4 L34.55 51.7 35.7 49.95 33.2 51.4 M21.35 51.55 L22.1 51.75 Q23.9 51.55 23.6 49.7 L21.35 51.55 M15.15 51.45 L15.15 52.25 17.45 53.45 17.3 52.6 Q17.2 51.75 17.25 50.65 L15.1 49.4 15.15 51.45" fill="#000000" fill-opacity="0.6" fill-rule="evenodd" stroke="none"/>
      <path d="M50.75 10.0 L50.45 13.35 Q49.55 33.1 49.45 52.9 L47.55 53.2 43.95 52.95 Q43.45 50.9 43.4 48.6 42.7 27.1 42.35 5.6 L51.2 5.6 50.75 10.0 M48.95 12.35 Q48.9 10.75 48.2 9.75 47.5 8.7 46.6 8.8 45.7 8.9 45.1 10.1 44.5 11.25 44.55 12.65 L44.6 45.2 Q43.75 46.05 44.1 47.55 44.8 49.15 46.3 49.2 46.8 49.75 47.7 49.65 L48.1 48.55 Q49.15 47.55 48.65 46.05 L48.3 45.2 48.05 41.5 Q47.2 35.85 47.35 30.15 47.65 21.15 48.95 12.35 M38.0 18.15 Q36.9 35.65 37.55 53.2 L37.5 53.45 31.25 53.15 29.9 16.9 38.1 16.8 38.0 18.15 M35.55 23.9 L35.7 23.75 Q37.0 22.1 35.8 20.5 L35.6 20.25 Q33.9 18.95 32.25 20.3 L32.1 20.4 Q30.8 22.05 32.05 23.7 32.7 32.75 31.85 41.85 31.65 43.75 31.7 45.7 31.7 47.3 32.2 48.6 31.1 50.6 32.75 52.05 L35.05 52.15 Q37.9 50.5 35.4 48.0 34.65 36.55 35.35 25.1 L35.55 23.9 M23.2 34.9 Q24.55 33.8 23.95 32.0 23.45 30.5 21.75 30.6 19.55 30.6 19.3 32.95 19.2 34.05 20.1 34.85 L20.8 48.1 Q18.85 49.95 20.65 51.7 21.25 52.3 22.1 52.65 24.85 52.4 24.5 49.6 24.4 48.75 23.55 48.15 L23.2 34.9 M9.05 43.7 Q7.8 45.3 8.8 46.95 L9.05 47.25 Q8.85 50.0 10.4 52.15 10.75 52.65 11.4 52.4 L11.75 47.7 Q13.05 47.15 13.25 45.45 13.1 43.95 12.0 43.35 12.3 41.75 11.6 40.3 L11.4 40.05 10.2 39.95 Q8.8 41.5 9.05 43.7 M14.2 38.7 L14.1 53.7 10.5 54.05 Q9.45 54.1 8.6 53.65 L7.45 38.8 14.2 38.7 M25.55 28.05 L24.75 53.25 19.3 53.15 17.9 28.15 25.55 28.05" fill="#000000" fill-opacity="0.6" fill-rule="evenodd" stroke="none"/>
      <path d="M6.5 43.3 L6.6 44.65 Q1.65 37.85 1.4 28.65 1.7 17.1 9.4 9.45 17.05 1.75 28.6 1.45 35.75 1.65 41.4 4.8 L41.2 4.9 Q41.05 4.75 40.95 5.25 35.45 2.3 28.5 2.1 17.25 2.4 9.8 9.9 2.3 17.35 2.0 28.6 2.2 37.0 6.5 43.3 M40.85 11.15 L41.0 14.95 Q38.6 13.0 35.2 12.55 30.25 11.95 25.95 12.6 16.7 14.25 11.6 22.15 8.2 28.0 10.7 34.3 L12.05 37.4 9.6 37.55 Q7.6 32.95 7.75 27.7 7.85 22.9 10.4 19.05 15.75 11.05 25.25 9.1 33.55 7.45 40.85 11.15 M41.95 38.3 L41.95 42.75 39.4 43.95 Q39.25 42.35 39.25 40.75 L41.95 38.3 M29.3 44.85 L29.25 47.1 27.4 47.55 27.4 45.1 29.3 44.85 M17.4 42.55 L17.4 46.3 16.15 45.55 15.9 41.9 17.4 42.55 M52.05 16.5 L52.1 15.6 Q55.4 21.65 55.55 29.2 55.35 38.0 50.85 44.4 L50.85 42.75 Q54.75 36.6 54.95 28.6 54.75 21.85 52.05 16.5 M41.95 51.4 L42.0 52.4 38.35 54.05 38.55 53.05 41.95 51.4 M30.85 54.9 L33.95 55.25 Q28.6 56.35 23.3 55.25 L25.95 54.9 30.85 54.9 M17.3 52.6 L17.45 53.45 15.15 52.25 15.15 51.45 17.3 52.6" fill="#000000" fill-opacity="0.6" fill-rule="evenodd" stroke="none"/>
      <path d="M44.15 4.15 L43.5 4.2 Q37.0 0.25 28.6 0.05 L29.2 0.0 Q37.65 0.2 44.15 4.15 M1.3 37.15 Q3.0 42.7 6.85 47.2 L6.9 47.7 Q2.95 43.0 1.3 37.15" fill="#000000" fill-opacity="0.6" fill-rule="evenodd" stroke="none"/>
      <path d="M40.8 9.45 L40.85 11.15 Q33.55 7.45 25.25 9.1 15.75 11.05 10.4 19.05 7.85 22.9 7.75 27.7 7.6 32.95 9.6 37.55 L12.05 37.4 14.45 37.8 7.95 37.8 Q3.5 25.3 11.45 14.7 17.0 7.25 26.3 6.1 34.15 5.3 40.8 9.45 M41.95 42.75 L41.85 47.1 39.25 48.7 38.7 49.4 38.9 15.85 30.2 15.55 Q33.5 13.75 37.2 14.75 40.15 15.65 39.9 19.05 39.05 29.85 39.25 40.75 39.25 42.35 39.4 43.95 L41.95 42.75 M29.25 47.1 L29.25 51.35 26.7 51.5 26.7 27.55 26.4 27.25 Q22.25 25.8 17.8 27.05 19.55 26.25 21.6 26.15 L24.6 26.45 Q27.6 26.9 27.45 30.1 27.1 37.6 27.4 45.1 L27.4 47.55 29.25 47.1 M17.4 46.3 L17.35 48.85 15.05 47.8 15.3 38.55 15.9 41.9 16.15 45.55 17.4 46.3" fill="#000000" fill-opacity="0.6" fill-rule="evenodd" stroke="none"/>
      <path d="M7.95 37.8 L6.95 38.05 Q5.2 33.9 5.05 28.9 5.3 19.0 12.0 12.3 18.7 5.6 28.65 5.3 35.55 5.45 40.8 8.75 L40.8 9.45 Q34.15 5.3 26.3 6.1 17.0 7.25 11.45 14.7 3.5 25.3 7.95 37.8 M41.85 47.1 L41.85 47.95 38.7 49.8 38.7 49.4 39.25 48.7 41.85 47.1 M29.25 51.35 L29.25 52.05 26.7 51.95 26.7 51.5 29.25 51.35 M51.15 34.95 L51.65 24.65 51.85 28.65 Q51.9 31.85 51.15 34.95" fill="#000000" fill-opacity="0.6" fill-rule="evenodd" stroke="none"/>
      <path d="M45.1 11.4 Q45.25 10.0 46.65 9.85 L47.45 10.1 45.35 12.2 45.1 11.4 M46.3 12.95 L48.05 10.7 Q48.75 12.6 46.65 13.0 L46.3 12.95 M44.9 46.45 L47.6 47.8 46.85 48.1 Q45.45 48.6 44.9 47.25 L44.9 46.45 M47.9 46.25 L47.95 47.0 45.3 45.7 Q45.55 45.45 45.9 45.3 47.35 44.95 47.9 46.25 M35.4 21.6 L32.45 21.65 32.75 21.0 35.0 20.95 35.4 21.6 M32.4 22.2 L35.35 22.15 35.05 22.8 32.8 22.85 32.4 22.2 M9.4 44.7 L11.55 46.85 10.75 47.05 Q9.35 46.9 9.2 45.45 L9.4 44.7 M12.35 45.45 L12.15 46.25 10.0 44.1 10.75 43.9 Q12.2 44.05 12.35 45.45 M22.45 34.35 L21.65 34.55 Q20.35 34.35 20.1 32.95 L20.3 32.2 22.45 34.35 M21.65 31.4 Q23.1 31.55 23.25 32.95 L23.05 33.75 20.9 31.6 21.65 31.4 M22.15 48.6 L22.85 48.8 20.75 50.9 20.55 50.15 Q20.65 49.4 21.1 49.0 21.45 48.65 22.15 48.6 M35.3 49.15 L32.6 50.35 32.65 49.55 33.1 49.1 35.3 49.15 M33.2 51.4 L35.7 49.95 34.55 51.7 33.2 51.4 M21.35 51.55 L23.6 49.7 Q23.9 51.55 22.1 51.75 L21.35 51.55" fill="#000000" fill-opacity="0.6" fill-rule="evenodd" stroke="none"/>
      <path d="M48.95 12.35 Q47.65 21.15 47.35 30.15 47.2 35.85 48.05 41.5 L48.3 45.2 Q47.35 44.0 45.65 44.45 L44.6 45.2 44.55 12.65 Q45.1 13.75 46.65 13.9 48.4 13.7 48.95 12.35 M48.1 48.55 L47.7 49.65 Q46.8 49.75 46.3 49.2 L48.1 48.55 M35.55 23.9 L35.35 25.1 Q34.65 36.55 35.4 48.0 L35.0 47.8 Q33.2 47.3 32.2 48.6 31.7 47.3 31.7 45.7 31.65 43.75 31.85 41.85 32.7 32.75 32.05 23.7 L32.2 23.85 Q33.9 25.2 35.55 23.9 M20.1 34.85 L23.2 34.9 23.55 48.15 20.8 48.1 20.1 34.85 M9.05 43.7 Q8.8 41.5 10.2 39.95 L11.4 40.05 11.6 40.3 Q12.3 41.75 12.0 43.35 L11.45 43.15 Q10.1 42.75 9.05 43.7 M11.75 47.7 L11.4 52.4 Q10.75 52.65 10.4 52.15 8.85 50.0 9.05 47.25 10.7 48.45 11.75 47.7" fill="#000000" fill-opacity="0.6" fill-rule="evenodd" stroke="none"/>
      <path d="M40.95 5.25 L40.85 7.15 Q31.5 2.15 21.3 5.15 11.65 8.15 7.05 17.05 1.4 28.1 6.05 39.7 L6.35 41.05 6.5 43.3 Q2.2 37.0 2.0 28.6 2.3 17.35 9.8 9.9 17.25 2.4 28.5 2.1 35.45 2.3 40.95 5.25 M41.0 14.95 L41.95 38.3 39.25 40.75 Q39.05 29.85 39.9 19.05 40.15 15.65 37.2 14.75 33.5 13.75 30.2 15.55 L28.85 16.2 29.3 44.85 27.4 45.1 Q27.1 37.6 27.45 30.1 27.6 26.9 24.6 26.45 L21.6 26.15 Q19.55 26.25 17.8 27.05 L16.8 27.7 17.4 42.55 15.9 41.9 15.3 38.55 14.45 37.8 12.05 37.4 10.7 34.3 Q8.2 28.0 11.6 22.15 16.7 14.25 25.95 12.6 30.25 11.95 35.2 12.55 38.6 13.0 41.0 14.95 M50.85 42.75 Q50.6 40.15 51.5 38.1 53.35 33.65 53.2 28.65 53.15 26.45 52.6 24.4 51.5 20.6 52.05 16.5 54.75 21.85 54.95 28.6 54.75 36.6 50.85 42.75 M38.55 53.05 L38.7 51.3 41.85 49.6 41.95 51.4 38.55 53.05 M25.95 54.9 L26.6 53.3 29.45 53.4 29.55 53.85 Q29.8 54.75 30.85 54.9 L25.95 54.9 M15.15 51.45 L15.1 49.4 17.25 50.65 Q17.2 51.75 17.3 52.6 L15.15 51.45" fill="#000000" fill-opacity="0.6" fill-rule="evenodd" stroke="none"/>
    </g>
  </defs>
</svg>
