<?xml version="1.0" encoding="UTF-8" standalone="no"?>
<svg xmlns:xlink="http://www.w3.org/1999/xlink" height="78.35px" width="414.8px" xmlns="http://www.w3.org/2000/svg">
  <g transform="matrix(1.0, 0.0, 0.0, 1.0, 16.95, -1.95)">
    <use height="78.35" transform="matrix(1.0, 0.0, 0.0, 1.0, -16.95, 1.95)" width="414.8" xlink:href="#shape0"/>
  </g>
  <defs>
    <g id="shape0" transform="matrix(1.0, 0.0, 0.0, 1.0, 16.95, -1.95)">
      <path d="M394.35 9.3 Q391.65 5.3 387.35 2.9 392.5 4.15 394.85 9.1 394.8 10.0 394.35 9.3 M378.85 11.4 L380.25 10.8 381.75 14.6 380.25 14.8 378.85 11.4 M378.85 60.65 L380.25 60.05 381.75 63.85 380.25 64.05 378.85 60.65 M-4.35 11.4 L-2.95 10.8 -1.45 14.6 -2.95 14.8 -4.35 11.4 M-14.25 9.35 Q-12.1 4.65 -7.2 3.35 -11.7 5.75 -14.45 10.0 L-14.25 9.35 M-4.35 60.65 L-2.95 60.05 -1.45 63.85 -2.95 64.05 -4.35 60.65" fill="#745234" fill-rule="evenodd" stroke="none"/>
      <path d="M394.35 9.3 Q394.8 10.0 394.85 9.1 392.5 4.15 387.35 2.9 391.65 5.3 394.35 9.3 M395.45 80.3 L395.45 14.6 395.1 13.35 Q392.25 4.5 383.05 2.9 L-2.05 2.9 -3.7 3.15 Q-12.7 5.55 -15.2 14.6 L-15.2 80.3 -16.95 80.3 -16.95 17.95 Q-16.95 10.45 -13.2 6.25 -9.5 2.0 -2.05 1.95 L383.05 1.95 Q390.45 2.0 394.15 6.25 397.85 10.45 397.85 17.95 L397.85 80.3 395.45 80.3 M379.05 11.15 Q381.6 9.85 382.35 12.35 L382.3 13.65 381.75 14.9 Q378.6 15.95 378.4 12.6 378.35 12.1 378.55 11.65 L379.05 11.15 M378.85 11.4 L380.25 14.8 381.75 14.6 380.25 10.8 378.85 11.4 M379.55 60.15 L381.7 60.2 Q382.75 60.7 382.65 62.05 382.35 64.0 381.2 64.35 380.1 64.7 379.1 63.95 378.1 63.2 378.15 61.85 378.4 60.5 379.55 60.15 M378.85 60.65 L380.25 64.05 381.75 63.85 380.25 60.05 378.85 60.65 M-4.35 11.4 L-2.95 14.8 -1.45 14.6 -2.95 10.8 -4.35 11.4 M-3.6 10.9 L-1.45 10.95 Q-0.4 11.45 -0.5 12.8 -0.8 14.75 -1.95 15.1 -3.05 15.45 -4.05 14.7 -5.05 13.95 -5.0 12.6 -4.75 11.25 -3.6 10.9 M-14.25 9.35 L-14.45 10.0 Q-11.7 5.75 -7.2 3.35 -12.1 4.65 -14.25 9.35 M-5.0 61.85 Q-4.75 60.5 -3.6 60.15 L-1.45 60.2 Q-0.4 60.7 -0.5 62.05 -0.8 64.0 -1.95 64.35 -3.05 64.7 -4.05 63.95 -5.05 63.2 -5.0 61.85 M-4.35 60.65 L-2.95 64.05 -1.45 63.85 -2.95 60.05 -4.35 60.65" fill="#56341a" fill-rule="evenodd" stroke="none"/>
      <path d="M-11.75 80.3 L-11.75 14.6 Q-11.1 6.7 -3.35 5.1 L-2.1 4.95 383.05 4.95 Q390.85 5.55 392.5 13.35 L392.7 14.6 392.7 80.3 389.9 80.3 389.9 16.8 Q389.3 9.25 381.75 7.65 L380.4 7.55 -0.05 7.55 Q-7.8 8.15 -9.35 15.55 L-9.55 16.8 -9.55 80.3 -11.75 80.3" fill="#000000" fill-rule="evenodd" stroke="none"/>
      <path d="M-15.2 80.3 L-15.2 14.6 Q-12.7 5.55 -3.7 3.15 L-2.05 2.9 383.05 2.9 Q392.25 4.5 395.1 13.35 L395.45 14.6 395.45 80.3 392.7 80.3 392.7 14.6 392.5 13.35 Q390.85 5.55 383.05 4.95 L-2.1 4.95 -3.35 5.1 Q-11.1 6.7 -11.75 14.6 L-11.75 80.3 -15.2 80.3 M379.05 11.15 Q381.3 9.15 384.15 11.65 385.2 14.15 383.5 16.2 381.85 18.25 379.3 17.0 376.6 14.9 378.2 12.15 L378.55 11.65 Q378.35 12.1 378.4 12.6 378.6 15.95 381.75 14.9 L382.3 13.65 382.35 12.35 Q381.6 9.85 379.05 11.15 M378.05 61.2 Q378.55 60.15 379.75 59.85 382.35 59.15 384.15 60.9 385.2 63.0 383.95 64.95 L382.6 66.3 379.45 66.3 379.3 66.25 Q376.65 64.25 378.05 61.2 M379.55 60.15 Q378.4 60.5 378.15 61.85 378.1 63.2 379.1 63.95 380.1 64.7 381.2 64.35 382.35 64.0 382.65 62.05 382.75 60.7 381.7 60.2 L379.55 60.15 M0.3 65.45 L-0.7 66.3 -3.75 66.3 -3.8 66.3 Q-6.7 64.35 -5.25 61.2 -4.65 60.0 -3.2 59.65 -0.8 58.95 0.9 60.85 2.1 63.4 0.3 65.45 M-3.6 10.9 Q-4.75 11.25 -5.0 12.6 -5.05 13.95 -4.05 14.7 -3.05 15.45 -1.95 15.1 -0.8 14.75 -0.5 12.8 -0.4 11.45 -1.45 10.95 L-3.6 10.9 M-0.6 16.9 L-3.8 17.05 Q-6.15 15.6 -5.45 12.65 -5.25 11.95 -4.75 11.55 -1.85 9.05 0.9 11.6 2.25 14.8 -0.6 16.9 M-5.0 61.85 Q-5.05 63.2 -4.05 63.95 -3.05 64.7 -1.95 64.35 -0.8 64.0 -0.5 62.05 -0.4 60.7 -1.45 60.2 L-3.6 60.15 Q-4.75 60.5 -5.0 61.85" fill="#42200b" fill-rule="evenodd" stroke="none"/>
      <path d="M378.55 11.65 L378.2 12.15 Q376.6 14.9 379.3 17.0 381.85 18.25 383.5 16.2 385.2 14.15 384.15 11.65 381.3 9.15 379.05 11.15 L378.55 11.65 M-9.55 80.3 L-9.55 16.8 -9.35 15.55 Q-7.8 8.15 -0.05 7.55 L380.4 7.55 381.75 7.65 Q389.3 9.25 389.9 16.8 L389.9 80.3 -9.55 80.3 M378.05 61.2 Q376.65 64.25 379.3 66.25 L379.45 66.3 382.6 66.3 383.95 64.95 Q385.2 63.0 384.15 60.9 382.35 59.15 379.75 59.85 378.55 60.15 378.05 61.2 M0.3 65.45 Q2.1 63.4 0.9 60.85 -0.8 58.95 -3.2 59.65 -4.65 60.0 -5.25 61.2 -6.7 64.35 -3.8 66.3 L-3.75 66.3 -0.7 66.3 0.3 65.45 M-0.6 16.9 Q2.25 14.8 0.9 11.6 -1.85 9.05 -4.75 11.55 -5.25 11.95 -5.45 12.65 -6.15 15.6 -3.8 17.05 L-0.6 16.9" fill="#f7bd1d" fill-opacity="0.4" fill-rule="evenodd" stroke="none"/>
    </g>
  </defs>
</svg>
