<?xml version="1.0" encoding="UTF-8" standalone="no"?>
<svg xmlns:xlink="http://www.w3.org/1999/xlink" height="92.4px" width="112.75px" xmlns="http://www.w3.org/2000/svg">
  <g transform="matrix(1.0, 0.0, 0.0, 1.0, 5.0, 2.0)">
    <use data-characterId="314" height="92.4" transform="matrix(1.0, 0.0, 0.0, 1.0, -5.0, -2.0)" width="107.75" xlink:href="#shape0"/>
    <use data-characterId="444" height="21.35" transform="matrix(1.0, 0.0, 0.0, 1.0, 6.45, 28.6)" width="62.55" xlink:href="#shape1"/>
    <use data-characterId="444" height="21.35" transform="matrix(1.0, 0.0, 0.0, 1.0, 7.3, 29.45)" width="62.55" xlink:href="#shape1"/>
    <use data-characterId="444" height="21.35" transform="matrix(1.0, 0.0, 0.0, 1.0, 8.3, 30.45)" width="62.55" xlink:href="#shape1"/>
  </g>
  <defs>
    <g id="shape0" transform="matrix(1.0, 0.0, 0.0, 1.0, 0.0, 0.0)">
      <path d="M102.65 40.95 Q102.6 37.65 97.2 35.4 L19.35 3.2 Q13.95 0.95 10.05 2.9 6.15 4.8 6.1 9.75 L5.0 76.7 Q4.9 81.65 8.6 83.45 12.35 85.25 17.6 82.85 L97.5 46.65 Q102.75 44.25 102.65 40.95 M107.65 43.9 L107.65 43.95 Q108.55 50.2 99.6 54.3 L19.7 90.55 19.65 90.6 Q11.95 94.0 6.45 91.05 -0.15 88.15 0.0 79.75 L1.1 12.8 Q1.2 4.65 7.85 1.55 13.45 -1.6 21.3 1.7 L21.25 1.7 99.1 33.95 Q108.25 37.65 107.65 43.9" fill="#51000a" fill-rule="evenodd" stroke="none"/>
      <path d="M102.65 40.95 Q102.75 44.25 97.5 46.65 L17.6 82.85 Q12.35 85.25 8.6 83.45 4.9 81.65 5.0 76.7 L6.1 9.75 Q6.15 4.8 10.05 2.9 13.95 0.95 19.35 3.2 L97.2 35.4 Q102.6 37.65 102.65 40.95" fill="url(#gradient0)" fill-rule="evenodd" stroke="none"/>
    </g>
    <linearGradient gradientTransform="matrix(0.0671, 0.0, 0.0, 0.0501, 46.0, 43.95)" gradientUnits="userSpaceOnUse" id="gradient0" spreadMethod="pad" x1="-819.2" x2="819.2">
      <stop offset="0.0" stop-color="#650c0b"/>
      <stop offset="0.3686274509803922" stop-color="#d5160b"/>
      <stop offset="0.6745098039215687" stop-color="#e1180a"/>
      <stop offset="1.0" stop-color="#650c0b"/>
    </linearGradient>
    <g id="shape1" transform="matrix(1.0, 0.0, 0.0, 1.0, 0.0, 0.0)">
      <path d="M62.55 4.55 L59.35 4.55 59.35 20.9 54.05 20.9 54.05 4.55 50.9 4.55 50.9 0.45 62.55 0.45 62.55 4.55 M49.75 6.05 Q49.75 8.4 49.15 9.25 48.55 10.05 46.8 10.25 48.35 10.65 48.95 11.3 L49.6 12.5 49.75 20.9 44.8 20.9 44.8 14.15 44.55 12.1 Q44.3 11.7 43.2 11.7 L43.2 20.9 37.85 20.9 37.85 0.45 46.7 0.75 Q48.05 1.05 48.9 2.25 49.75 3.45 49.75 6.05 M44.45 4.25 L43.2 3.95 43.2 8.5 44.45 8.3 Q44.8 8.0 44.8 6.65 L44.8 5.55 Q44.8 4.6 44.45 4.25 M21.35 4.55 L21.35 20.9 16.05 20.9 16.05 4.55 12.9 4.55 12.9 0.45 24.55 0.45 24.55 4.55 21.35 4.55 M29.0 20.9 L23.5 20.9 26.2 0.45 33.9 0.45 36.95 20.9 31.55 20.9 31.25 17.25 29.3 17.25 29.0 20.9 M31.1 13.6 L30.3 5.0 Q29.45 11.15 29.3 13.6 L31.1 13.6 M11.7 6.65 L6.8 6.65 6.8 5.15 6.55 3.8 Q6.35 3.5 5.95 3.5 5.45 3.5 5.2 3.9 4.95 4.2 4.95 5.05 4.95 6.1 5.25 6.6 L6.75 7.85 Q10.2 9.9 11.2 11.3 12.15 12.7 12.15 15.7 12.15 17.85 11.6 18.9 11.1 19.95 9.65 20.65 8.25 21.35 6.25 21.35 4.05 21.35 2.6 20.55 1.1 19.75 0.6 18.5 0.15 17.25 0.15 14.9 L0.15 13.55 5.1 13.55 5.1 16.05 Q5.1 17.25 5.3 17.55 5.5 17.9 6.05 17.9 6.6 17.9 6.8 17.5 L7.1 16.25 Q7.1 14.5 6.6 13.9 L1.45 10.1 Q0.8 9.45 0.4 8.45 0.0 7.45 0.0 5.8 0.0 3.4 0.6 2.3 1.2 1.25 2.55 0.65 3.85 0.0 5.75 0.0 7.75 0.0 9.3 0.7 10.75 1.35 11.2 2.4 11.7 3.4 11.7 5.85 L11.7 6.65" fill="#000000" fill-opacity="0.29803923" fill-rule="evenodd" stroke="none"/>
    </g>
  </defs>
</svg>
