<?xml version="1.0" encoding="UTF-8" standalone="no"?>
<svg xmlns:xlink="http://www.w3.org/1999/xlink" height="272.3px" width="247.9px" xmlns="http://www.w3.org/2000/svg">
  <g transform="matrix(1.0, 0.0, 0.0, 1.0, -398.45, -109.6)">
    <use height="97.55" transform="matrix(-1.0, 0.0, 0.0, 1.0, 551.3, 234.15)" width="51.7" xlink:href="#shape0"/>
    <use height="150.5" transform="matrix(-1.0, 0.0, 0.0, 1.0, 537.4, 230.75)" width="69.0" xlink:href="#shape1"/>
    <use height="97.55" transform="matrix(0.9864, -0.1614, 0.1614, 0.9864, 436.95, 239.25)" width="51.7" xlink:href="#shape0"/>
    <use height="80.4" transform="matrix(-1.0, 0.0, 0.0, 1.0, 541.3, 161.4)" width="104.0" xlink:href="#shape2"/>
    <use height="13.8" transform="matrix(-1.0, 0.0, 0.0, 1.0, 519.75, 174.0)" width="29.0" xlink:href="#shape3"/>
    <use height="18.3" transform="matrix(-1.0, 0.0, 0.0, 1.0, 505.3, 218.55)" width="16.6" xlink:href="#shape4"/>
  </g>
  <defs>
    <g id="shape0" transform="matrix(1.0, 0.0, 0.0, 1.0, 0.0, 0.0)">
      <path d="M47.55 13.6 L47.5 13.6 45.2 15.4 43.6 16.65 39.95 19.6 37.0 21.45 27.4 5.55 27.6 5.4 27.85 5.2 35.15 3.15 41.8 1.15 Q46.7 0.0 48.75 1.5 L49.2 1.85 51.1 5.3 Q51.0 7.9 50.2 10.25 L49.25 12.1 Q48.65 13.05 47.55 13.6 M34.65 22.65 Q32.2 23.75 29.45 24.55 28.25 23.6 26.7 21.25 L25.4 19.2 24.9 18.35 23.65 16.15 21.6 12.15 21.05 11.05 21.0 10.95 19.7 7.9 Q19.45 7.05 19.9 6.5 20.3 5.95 21.0 6.05 L23.75 5.95 24.15 5.9 23.15 6.05 24.55 8.95 25.2 10.2 25.75 11.3 28.45 16.1 29.0 16.95 29.3 17.45 33.25 23.2 34.65 22.65" fill="#ffbd20" fill-rule="evenodd" stroke="none"/>
      <path d="M47.55 13.6 L46.0 15.35 43.9 17.4 40.95 19.75 Q36.1 23.3 29.1 25.55 27.85 24.6 26.3 22.15 L24.75 19.6 23.2 20.5 17.9 23.75 13.1 26.75 10.3 28.5 11.15 30.15 13.3 34.15 15.9 39.05 17.8 42.55 Q19.15 41.95 20.5 41.9 22.55 41.85 24.25 43.9 L24.55 44.3 27.1 44.1 29.3 44.25 Q35.2 38.35 38.8 36.75 42.4 35.15 44.7 37.2 L47.6 39.45 50.65 41.7 Q52.0 42.85 51.65 44.7 51.35 46.5 49.7 48.05 48.1 49.6 45.65 49.9 L42.2 49.6 40.15 48.75 39.45 48.25 38.5 50.05 35.9 54.3 Q34.15 56.75 31.75 59.1 29.35 61.4 26.4 62.65 27.25 64.85 26.9 66.85 26.55 68.9 25.4 70.9 L22.9 75.0 21.4 77.7 20.75 79.0 Q23.65 80.05 24.8 82.1 25.95 84.2 25.3 86.75 L24.65 88.4 25.0 90.7 Q25.15 92.65 24.55 94.35 23.95 96.1 22.3 97.15 L19.6 97.2 Q18.25 96.5 17.5 94.45 L16.4 91.95 14.9 89.15 14.4 88.2 12.15 87.8 Q10.85 87.5 9.95 85.9 9.1 84.3 9.3 81.95 9.5 79.6 11.5 77.1 10.3 74.3 9.45 71.45 8.55 68.55 8.6 65.45 8.65 62.9 9.7 60.05 8.0 58.3 7.95 56.1 7.9 53.8 9.05 51.45 L10.2 49.55 7.85 45.2 4.8 39.3 2.0 33.8 0.45 30.35 Q-0.5 27.95 0.6 25.5 1.7 23.0 5.6 20.35 L9.75 17.7 15.1 14.45 20.4 11.3 19.1 8.5 Q18.85 7.85 18.85 7.0 18.85 6.1 19.3 5.55 19.7 4.95 20.75 5.25 L22.6 5.25 24.8 5.0 27.9 4.35 34.9 2.45 41.2 0.55 48.75 0.8 50.0 1.85 Q51.15 3.2 51.1 5.3 L49.2 1.85 48.75 1.5 Q46.7 0.0 41.8 1.15 L35.15 3.15 27.85 5.2 26.35 5.55 25.1 5.75 24.95 5.8 24.15 5.9 23.75 5.95 21.0 6.05 Q20.3 5.95 19.9 6.5 19.45 7.05 19.7 7.9 L21.0 10.95 21.05 11.05 21.6 12.15 23.65 16.15 24.9 18.35 25.4 19.2 26.7 21.25 Q28.25 23.6 29.45 24.55 32.2 23.75 34.65 22.65 L35.2 22.4 37.0 21.45 39.95 19.6 43.6 16.65 45.2 15.4 47.5 13.6 47.55 13.6 M11.95 86.35 Q12.5 86.8 13.2 86.95 L16.65 87.6 Q18.25 87.85 19.85 88.45 21.9 89.3 23.05 88.95 24.25 88.65 24.85 86.5 25.25 85.0 24.95 83.55 24.65 82.1 23.5 81.05 22.35 80.05 20.3 79.9 18.85 82.3 16.5 83.45 18.15 82.1 19.3 80.3 L21.35 76.75 22.75 74.05 24.8 70.25 Q25.75 68.3 25.95 66.2 26.15 64.15 25.15 61.9 24.7 60.85 24.95 60.85 25.15 60.85 25.6 61.15 L26.25 61.4 Q28.75 60.8 30.95 58.85 33.15 56.85 34.9 54.25 L37.9 49.2 39.85 45.05 40.55 43.35 40.35 44.6 39.7 47.35 42.4 48.5 46.45 49.0 Q48.35 48.85 49.6 47.55 50.85 46.25 51.1 44.7 L51.15 44.35 Q51.25 43.0 50.3 42.15 L47.6 40.15 44.9 38.3 Q44.1 37.6 42.85 37.2 L39.75 37.3 Q37.95 37.8 35.4 39.75 32.85 41.7 29.45 45.7 L28.0 45.25 25.2 45.35 Q26.0 46.85 26.25 48.55 L26.3 50.5 25.65 53.75 Q24.75 56.35 22.75 58.7 L21.65 59.75 Q20.2 61.0 18.45 61.6 16.05 62.4 13.75 62.1 11.9 61.8 10.55 60.8 9.55 63.45 9.55 65.8 9.55 68.8 10.45 71.5 11.3 74.25 12.5 77.05 L10.55 81.0 10.4 81.6 Q10.1 83.55 10.7 84.85 11.2 85.85 11.95 86.35 M23.2 16.85 L20.95 12.45 Q20.4 12.7 19.85 13.05 L17.75 14.2 11.5 17.7 6.35 20.9 Q2.5 23.5 1.4 25.65 0.35 27.75 1.3 30.1 L1.6 30.85 2.85 33.5 5.6 38.8 8.6 44.5 11.05 49.1 12.05 50.95 Q12.65 51.8 13.95 51.95 15.25 52.1 16.6 51.5 17.9 50.9 18.6 49.5 19.35 48.15 18.8 45.95 L17.35 43.35 14.95 38.9 12.3 33.95 10.15 29.95 9.25 28.3 12.15 26.45 17.15 23.25 22.7 19.7 23.9 18.95 24.25 18.75 23.2 16.85 M25.15 47.15 L23.7 44.75 23.6 44.65 23.5 44.55 Q22.1 43.15 20.45 43.15 L20.3 43.15 20.25 43.15 18.4 43.65 19.7 46.05 Q20.15 48.5 19.2 50.05 18.25 51.6 16.65 52.3 15.0 52.95 13.5 52.85 12.0 52.75 11.35 51.85 L10.65 50.5 9.9 51.75 Q8.8 53.8 8.85 55.8 8.9 57.8 10.45 59.5 L10.95 60.0 11.0 60.05 Q12.55 61.45 14.3 61.65 16.4 61.85 18.4 60.85 20.4 59.85 22.1 57.95 24.0 55.85 24.9 53.5 25.8 51.15 25.55 48.85 L25.15 47.15 M15.85 89.25 L17.1 91.65 18.05 93.75 Q18.7 95.45 19.8 96.05 L21.85 96.15 Q23.5 95.05 23.7 93.05 23.85 91.3 23.5 89.6 L23.35 89.65 Q22.0 90.3 19.4 89.15 17.8 88.5 15.9 88.35 L15.35 88.3 15.85 89.25" fill="#000000" fill-rule="evenodd" stroke="none"/>
      <path d="M11.95 86.35 Q11.2 85.85 10.7 84.85 10.1 83.55 10.4 81.6 L10.55 81.0 12.5 77.05 Q11.3 74.25 10.45 71.5 9.55 68.8 9.55 65.8 9.55 63.45 10.55 60.8 11.9 61.8 13.75 62.1 16.05 62.4 18.45 61.6 20.2 61.0 21.65 59.75 20.0 61.7 17.8 63.1 14.8 64.95 13.7 67.1 12.6 69.2 12.7 71.4 12.8 73.6 13.45 75.7 L14.7 79.6 Q13.05 81.3 12.3 83.2 11.6 85.05 12.45 86.65 L11.95 86.35 M26.3 50.5 L26.25 48.55 Q26.0 46.85 25.2 45.35 L28.0 45.25 29.45 45.7 Q32.85 41.7 35.4 39.75 37.95 37.8 39.75 37.3 L42.85 37.2 Q44.1 37.6 44.9 38.3 L47.6 40.15 50.3 42.15 Q51.25 43.0 51.15 44.35 50.6 43.0 49.35 42.25 48.1 41.55 46.45 40.95 44.8 40.35 43.05 39.45 41.25 38.5 39.2 39.65 37.15 40.75 35.0 42.95 L30.6 47.55 Q29.65 47.6 28.55 48.25 27.45 48.9 26.65 50.0 L26.3 50.5 M10.95 60.0 L10.45 59.5 Q8.9 57.8 8.85 55.8 8.8 53.8 9.9 51.75 L10.65 50.5 11.35 51.85 Q12.0 52.75 13.5 52.85 15.0 52.95 16.65 52.3 18.25 51.6 19.2 50.05 20.15 48.5 19.7 46.05 L18.4 43.65 20.25 43.15 20.3 43.15 20.45 43.15 Q22.1 43.15 23.5 44.55 L23.6 44.65 23.7 44.75 25.15 47.15 Q25.25 47.5 24.8 47.25 24.35 46.95 23.6 46.7 22.9 46.5 22.1 47.0 21.35 47.5 20.75 49.4 20.35 50.7 19.15 52.3 18.0 53.9 16.5 54.8 15.5 55.3 14.45 55.25 L12.45 55.45 Q11.5 55.65 10.9 56.9 10.4 58.15 10.55 58.95 10.7 59.65 10.95 60.0" fill="#c2d6d4" fill-rule="evenodd" stroke="none"/>
      <path d="M51.15 44.35 L51.1 44.7 Q50.85 46.25 49.6 47.55 48.35 48.85 46.45 49.0 L42.4 48.5 39.7 47.35 40.35 44.6 40.55 43.35 39.85 45.05 37.9 49.2 34.9 54.25 Q33.15 56.85 30.95 58.85 28.75 60.8 26.25 61.4 L25.6 61.15 Q25.15 60.85 24.95 60.85 24.7 60.85 25.15 61.9 26.15 64.15 25.95 66.2 25.75 68.3 24.8 70.25 L22.75 74.05 21.35 76.75 19.3 80.3 Q18.15 82.1 16.5 83.45 18.85 82.3 20.3 79.9 22.35 80.05 23.5 81.05 24.65 82.1 24.95 83.55 25.25 85.0 24.85 86.5 24.25 88.65 23.05 88.95 21.9 89.3 19.85 88.45 18.25 87.85 16.65 87.6 L13.2 86.95 Q12.5 86.8 11.95 86.35 L12.45 86.65 Q11.6 85.05 12.3 83.2 13.05 81.3 14.7 79.6 L13.45 75.7 Q12.8 73.6 12.7 71.4 12.6 69.2 13.7 67.1 14.8 64.95 17.8 63.1 20.0 61.7 21.65 59.75 L22.75 58.7 Q24.75 56.35 25.65 53.75 L26.3 50.5 26.65 50.0 Q27.45 48.9 28.55 48.25 29.65 47.6 30.6 47.55 L35.0 42.95 Q37.15 40.75 39.2 39.65 41.25 38.5 43.05 39.45 44.8 40.35 46.45 40.95 48.1 41.55 49.35 42.25 50.6 43.0 51.15 44.35 M10.95 60.0 Q10.7 59.65 10.55 58.95 10.4 58.15 10.9 56.9 11.5 55.65 12.45 55.45 L14.45 55.25 Q15.5 55.3 16.5 54.8 18.0 53.9 19.15 52.3 20.35 50.7 20.75 49.4 21.35 47.5 22.1 47.0 22.9 46.5 23.6 46.7 24.35 46.95 24.8 47.25 25.25 47.5 25.15 47.15 L25.55 48.85 Q25.8 51.15 24.9 53.5 24.0 55.85 22.1 57.95 20.4 59.85 18.4 60.85 16.4 61.85 14.3 61.65 12.55 61.45 11.0 60.05 L10.95 60.0 M15.85 89.25 L15.35 88.3 15.9 88.35 Q17.8 88.5 19.4 89.15 22.0 90.3 23.35 89.65 L23.5 89.6 Q23.85 91.3 23.7 93.05 23.5 95.05 21.85 96.15 L19.8 96.05 Q18.7 95.45 18.05 93.75 L17.1 91.65 15.85 89.25" fill="#ffffff" fill-rule="evenodd" stroke="none"/>
      <path d="M37.0 21.45 L35.2 22.4 34.65 22.65 33.25 23.2 29.3 17.45 29.0 16.95 28.45 16.1 25.75 11.3 25.2 10.2 24.55 8.95 23.15 6.05 24.15 5.9 24.95 5.8 25.1 5.75 26.35 5.55 27.85 5.2 27.6 5.4 27.4 5.55 37.0 21.45" fill="#e31e00" fill-rule="evenodd" stroke="none"/>
      <path d="M23.2 16.85 L24.25 18.75 23.9 18.95 22.7 19.7 17.15 23.25 12.15 26.45 9.25 28.3 10.15 29.95 12.3 33.95 14.95 38.9 17.35 43.35 18.8 45.95 Q19.35 48.15 18.6 49.5 17.9 50.9 16.6 51.5 15.25 52.1 13.95 51.95 12.65 51.8 12.05 50.95 L11.05 49.1 8.6 44.5 5.6 38.8 2.85 33.5 1.6 30.85 1.3 30.1 Q0.35 27.75 1.4 25.65 2.5 23.5 6.35 20.9 L11.5 17.7 17.75 14.2 19.85 13.05 Q20.4 12.7 20.95 12.45 L23.2 16.85" fill="#488fc1" fill-rule="evenodd" stroke="none"/>
    </g>
    <g id="shape1" transform="matrix(1.0, 0.0, 0.0, 1.0, 1.55, 0.0)">
      <path d="M38.85 38.9 Q43.85 39.8 48.15 41.45 55.0 44.15 57.45 48.05 L58.35 49.9 Q61.5 58.95 62.65 74.55 L64.25 85.5 64.85 90.0 65.55 96.6 65.95 104.55 Q62.95 107.0 59.1 107.95 55.25 108.9 50.95 108.9 L42.95 108.15 31.65 107.55 Q29.75 106.8 29.25 106.15 L29.1 105.85 28.9 102.45 28.6 83.65 28.6 81.9 29.25 81.75 29.45 81.75 31.15 81.45 32.8 80.85 Q33.1 80.55 32.1 80.65 L29.8 80.95 29.25 80.95 26.2 80.95 23.75 80.8 22.8 80.65 Q21.45 80.45 21.65 80.65 L22.55 81.25 23.75 81.7 25.55 82.1 27.0 82.25 27.4 105.65 Q27.25 106.05 25.25 107.0 L23.75 107.6 21.85 108.35 21.8 108.3 21.8 108.35 20.1 108.9 Q20.85 109.1 18.3 109.55 L10.85 110.2 Q7.05 110.1 4.25 109.05 1.35 107.95 -0.05 105.35 0.05 102.2 0.65 97.7 L2.1 74.15 2.75 65.2 Q3.6 55.85 4.85 48.05 L4.9 47.6 Q5.65 42.6 13.45 40.05 17.5 38.65 22.55 38.2 L28.9 38.0 30.45 38.05 30.55 38.05 32.55 38.15 38.85 38.9 M0.55 76.25 L0.55 74.55 0.8 74.55 0.55 76.25" fill="#592d85" fill-rule="evenodd" stroke="none"/>
      <path d="M62.65 74.55 Q61.5 58.95 58.35 49.9 L57.45 48.05 Q55.0 44.15 48.15 41.45 43.85 39.8 38.85 38.9 44.35 39.75 48.95 41.45 56.1 44.15 58.7 48.05 L59.65 49.9 Q63.25 59.8 64.35 77.45 L63.8 74.55 62.65 74.55 M22.55 38.2 Q17.5 38.65 13.45 40.05 5.65 42.6 4.9 47.6 L4.85 48.05 Q3.6 55.85 2.75 65.2 L2.1 74.15 0.8 74.55 0.55 74.55 1.3 65.2 Q2.2 55.9 3.4 48.05 L3.5 47.6 Q4.3 42.6 12.5 40.05 16.95 38.6 22.55 38.2" fill="#000823" fill-rule="evenodd" stroke="none"/>
      <path d="M62.65 74.55 L63.8 74.55 64.35 77.45 Q66.8 90.1 67.4 102.85 L67.45 104.55 67.45 105.25 Q65.45 107.25 62.8 108.25 L60.45 109.15 58.0 109.75 63.2 150.5 61.7 150.5 56.45 109.65 47.15 110.1 50.6 131.5 52.1 141.9 52.2 142.65 53.1 150.5 51.6 150.5 50.75 142.7 45.65 110.0 40.75 109.25 Q32.7 109.5 31.75 109.15 30.2 108.65 29.25 108.05 28.4 107.5 28.1 107.05 27.05 107.9 24.95 108.8 L21.7 109.9 19.05 132.3 Q18.45 137.25 17.95 143.4 L17.45 150.5 16.0 150.5 20.1 110.7 Q15.9 112.0 11.45 111.9 L11.2 111.9 7.45 150.5 5.95 150.5 6.4 145.2 9.6 111.65 Q5.95 111.4 3.15 110.2 0.2 108.9 -1.35 106.1 L-1.55 105.75 -1.5 105.35 -0.95 97.7 0.0 89.1 0.55 76.25 0.8 74.55 2.1 74.15 0.65 97.7 Q0.05 102.2 -0.05 105.35 1.35 107.95 4.25 109.05 7.05 110.1 10.85 110.2 L18.3 109.55 Q20.85 109.1 20.1 108.9 L21.8 108.35 21.85 108.35 23.75 107.6 25.25 107.0 Q27.25 106.05 27.4 105.65 L27.0 82.25 25.55 82.1 23.75 81.7 22.55 81.25 21.65 80.65 Q21.45 80.45 22.8 80.65 L23.75 80.8 26.2 80.95 29.25 80.95 29.8 80.95 32.1 80.65 Q33.1 80.55 32.8 80.85 L31.15 81.45 29.45 81.75 29.25 81.75 28.6 81.9 28.6 83.65 28.9 102.45 29.1 105.85 29.25 106.15 Q29.75 106.8 31.65 107.55 L42.95 108.15 50.95 108.9 Q55.25 108.9 59.1 107.95 62.95 107.0 65.95 104.55 L65.55 96.6 64.85 90.0 64.25 85.5 62.65 74.55" fill="#000000" fill-rule="evenodd" stroke="none"/>
      <path d="M61.7 150.5 L53.1 150.5 52.2 142.65 52.1 141.9 50.6 131.5 47.15 110.1 56.45 109.65 61.7 150.5 M16.0 150.5 L7.45 150.5 11.2 111.9 11.45 111.9 Q15.9 112.0 20.1 110.7 L16.0 150.5" fill="#488fc1" fill-rule="evenodd" stroke="none"/>
      <path d="M54.95 2.6 Q58.2 5.2 57.85 10.0 57.15 20.05 57.85 30.35 58.65 42.5 61.2 51.6 L52.8 52.05 Q46.1 53.25 40.65 56.45 35.75 59.45 28.7 60.05 22.1 60.55 15.8 58.8 9.4 57.05 5.75 53.5 1.85 49.7 2.5 44.9 3.95 34.35 10.05 24.35 16.55 13.75 26.65 6.3 30.85 3.25 36.45 1.55 41.9 -0.15 46.85 0.0 52.05 0.2 54.95 2.6" fill="#000823" fill-rule="evenodd" stroke="none"/>
      <path d="M53.75 3.8 Q56.8 6.35 56.5 10.9 55.85 20.4 56.5 30.0 57.2 41.3 59.65 49.95 57.05 49.55 52.15 50.8 46.55 52.2 40.2 55.35 34.9 57.9 28.2 58.35 21.75 58.8 16.0 57.25 10.05 55.6 6.9 52.4 3.35 48.85 4.0 44.2 5.35 34.2 11.15 24.6 17.35 14.45 26.95 7.35 30.9 4.45 36.2 2.8 41.35 1.15 46.05 1.35 50.95 1.6 53.75 3.8" fill="#ffbd20" fill-rule="evenodd" stroke="none"/>
      <path d="M57.4 38.8 L58.8 46.55 Q48.45 45.75 37.6 50.15 27.35 54.3 17.95 52.45 9.2 50.7 4.0 44.5 L4.0 44.2 Q4.5 40.45 5.75 36.45 11.65 42.0 19.9 43.55 28.95 45.3 37.9 41.65 48.65 37.2 57.4 38.8" fill="#e31e00" fill-rule="evenodd" stroke="none"/>
    </g>
    <g id="shape2" transform="matrix(1.0, 0.0, 0.0, 1.0, 0.0, 0.0)">
      <path d="M22.8 69.95 Q20.45 76.0 17.35 78.2 14.7 80.05 12.1 78.9 9.7 77.8 8.45 75.05 7.25 72.2 8.1 69.6 11.35 60.0 12.2 54.65 13.25 48.0 11.65 43.05 10.9 40.85 11.35 39.1 11.8 37.45 13.15 36.8 16.25 35.25 20.4 39.9 24.7 44.75 25.35 53.1 26.1 61.6 22.8 69.95" fill="#000823" fill-rule="evenodd" stroke="none"/>
      <path d="M10.4 67.3 L13.15 60.4 Q22.25 58.5 17.55 62.4 14.15 65.25 12.35 69.35 10.6 73.2 11.15 76.35 9.2 74.8 9.2 71.65 9.25 70.4 10.4 67.3" fill="#032853" fill-rule="evenodd" stroke="none"/>
      <path d="M10.4 21.75 Q11.75 20.9 14.2 20.7 L17.8 20.55 Q19.05 20.45 18.95 24.6 18.8 28.6 17.55 32.7 16.2 37.2 14.5 38.0 12.4 38.95 10.35 33.85 6.55 24.4 10.4 21.75" fill="#000823" fill-rule="evenodd" stroke="none"/>
      <path d="M75.75 25.6 Q75.9 34.95 68.85 49.25 61.4 53.9 50.8 53.35 41.8 52.85 31.95 48.75 23.45 45.2 17.35 40.45 11.5 35.8 11.8 33.3 14.4 15.2 23.2 7.35 30.65 0.8 41.2 2.45 43.5 0.9 46.95 0.2 L54.1 0.0 Q62.85 1.45 66.7 9.45 75.55 15.2 75.75 25.6" fill="#000823" fill-rule="evenodd" stroke="none"/>
      <path d="M61.2 7.8 L65.5 10.2 Q74.0 15.5 74.2 25.6 74.4 34.7 67.75 48.35 60.7 52.85 50.75 52.3 42.3 51.85 33.05 48.0 25.0 44.7 19.15 40.15 13.65 35.8 13.8 33.35 15.2 16.8 23.75 8.95 31.2 2.15 41.65 3.55 L44.05 3.85 42.6 3.0 Q47.75 0.2 53.85 1.3 61.15 2.45 64.8 8.9 L61.2 7.8" fill="#488fc1" fill-rule="evenodd" stroke="none"/>
      <path d="M49.85 11.35 Q54.5 13.05 54.25 21.0 54.15 25.3 51.05 31.0 L47.05 37.2 Q46.65 37.85 45.0 37.7 L41.65 36.85 Q37.1 35.0 37.1 32.9 37.15 31.4 40.75 22.15 43.85 14.1 43.0 14.75 42.05 15.45 41.85 15.1 41.65 14.75 42.3 13.9 43.8 12.1 45.85 11.4 47.95 10.65 49.85 11.35" fill="#000823" fill-rule="evenodd" stroke="none"/>
      <path d="M28.2 18.0 Q28.25 21.6 27.35 26.35 L25.4 35.35 Q23.1 35.1 20.3 33.5 19.5 22.65 21.15 18.4 19.5 18.8 20.75 16.3 21.6 14.5 23.3 13.25 24.8 12.15 25.65 12.2 28.15 12.5 28.2 18.0" fill="#000823" fill-rule="evenodd" stroke="none"/>
      <path d="M41.6 16.2 Q43.2 13.9 45.35 13.15 47.4 12.35 49.25 13.15 53.65 15.05 53.5 22.1 53.25 28.8 47.9 37.35 47.5 38.05 45.75 37.85 L42.05 36.95 Q37.1 35.0 37.1 32.9 37.15 29.15 38.3 24.45 39.6 18.95 41.6 16.2" fill="#ffffff" fill-rule="evenodd" stroke="none"/>
      <path d="M23.15 14.7 Q24.4 13.5 25.65 13.6 29.7 14.0 27.35 26.35 L25.4 35.35 Q22.0 35.75 19.25 34.1 18.55 24.55 20.85 18.5 21.85 16.0 23.15 14.7" fill="#ffffff" fill-rule="evenodd" stroke="none"/>
      <path d="M30.35 5.95 Q30.65 7.25 30.1 9.3 30.3 6.5 28.7 6.0 26.85 5.45 24.35 9.05 26.95 4.3 29.2 4.6 30.15 4.75 30.35 5.95" fill="#000823" fill-rule="evenodd" stroke="none"/>
      <path d="M73.0 44.8 Q73.9 50.8 69.65 57.45 65.1 64.6 56.25 69.4 48.45 73.2 34.45 71.1 22.05 69.5 12.1 62.2 1.8 54.6 0.2 45.0 -0.65 40.1 1.95 35.9 4.6 31.7 9.45 29.65 16.6 26.6 28.25 29.25 38.5 31.6 49.05 37.4 59.55 34.0 66.1 36.5 72.05 38.7 73.0 44.8" fill="#000823" fill-rule="evenodd" stroke="none"/>
      <path d="M71.45 45.1 Q72.3 50.1 68.95 55.95 65.6 62.0 59.35 66.2 55.25 68.9 50.75 69.85 44.75 71.15 35.55 70.25 23.2 68.45 13.75 62.0 3.35 54.9 1.4 45.15 0.45 40.55 3.05 36.4 5.55 32.45 10.35 30.4 17.25 27.5 28.7 30.3 38.55 32.7 49.0 38.4 59.3 35.6 65.3 37.8 70.6 39.8 71.45 45.1" fill="#ffe584" fill-rule="evenodd" stroke="none"/>
      <path d="M7.95 30.8 Q7.3 28.5 9.9 25.95 13.0 22.9 18.9 23.0 25.95 23.2 29.45 26.5 32.1 29.0 31.7 31.65 31.35 34.4 28.8 35.4 26.45 36.4 21.3 36.2 9.25 35.8 7.95 30.8" fill="#000823" fill-rule="evenodd" stroke="none"/>
      <path d="M22.55 26.65 Q22.35 28.25 18.9 28.1 14.6 27.85 14.15 26.15 13.85 25.35 14.8 24.55 15.85 23.55 17.95 23.65 20.45 23.75 21.7 24.9 22.65 25.75 22.55 26.65" fill="#032853" fill-rule="evenodd" stroke="none"/>
      <path d="M40.85 40.3 Q40.35 40.05 40.55 39.45 40.8 38.95 41.35 39.2 41.9 39.4 41.65 40.05 41.4 40.55 40.85 40.3" fill="#b08000" fill-rule="evenodd" stroke="none"/>
      <path d="M34.55 41.7 Q33.9 41.4 34.2 40.75 34.45 40.1 35.1 40.45 35.7 40.65 35.45 41.35 35.1 42.0 34.55 41.7" fill="#b08000" fill-rule="evenodd" stroke="none"/>
      <path d="M35.4 36.15 Q34.8 35.9 35.1 35.35 35.4 34.8 35.9 35.0 36.5 35.3 36.25 35.8 35.95 36.45 35.4 36.15" fill="#b08000" fill-rule="evenodd" stroke="none"/>
      <path d="M44.65 44.45 Q44.1 44.2 44.3 43.55 44.65 43.0 45.2 43.25 45.8 43.55 45.55 44.15 45.2 44.7 44.65 44.45" fill="#b08000" fill-rule="evenodd" stroke="none"/>
      <path d="M46.95 41.2 Q46.4 41.0 46.65 40.45 46.95 39.9 47.45 40.15 48.0 40.35 47.75 40.95 47.5 41.5 46.95 41.2" fill="#b08000" fill-rule="evenodd" stroke="none"/>
      <path d="M4.2 37.2 Q3.95 36.9 4.3 36.4 4.6 35.9 4.9 36.1 5.2 36.35 4.9 36.9 4.5 37.35 4.2 37.2" fill="#b08000" fill-rule="evenodd" stroke="none"/>
      <path d="M6.45 34.7 Q6.3 34.4 6.75 34.0 7.2 33.55 7.45 33.9 7.6 34.25 7.15 34.6 L6.45 34.7" fill="#b08000" fill-rule="evenodd" stroke="none"/>
      <path d="M77.8 19.75 Q82.05 20.25 83.4 26.2 L86.15 40.15 Q87.9 49.15 90.3 55.75 91.55 59.15 95.0 62.85 L101.2 68.75 Q104.0 71.45 104.0 74.75 103.95 77.85 101.7 79.45 100.35 80.4 97.85 80.4 95.3 80.4 92.45 79.4 85.5 76.95 81.85 70.75 78.9 65.8 77.85 61.05 76.8 56.55 76.75 48.9 L77.25 33.95 Q77.5 28.2 76.2 27.4 75.05 26.75 73.0 27.4 71.35 27.85 70.3 28.7 68.8 28.5 68.75 25.95 68.65 23.65 69.65 22.35 74.4 19.35 77.8 19.75" fill="#000823" fill-rule="evenodd" stroke="none"/>
      <path d="M71.95 23.3 Q72.15 22.05 74.1 21.6 77.65 20.85 78.8 23.3 80.0 25.85 79.5 33.9 78.9 43.05 80.55 53.1 82.5 64.55 86.3 69.6 89.4 73.8 87.55 73.55 85.8 73.3 83.85 71.05 79.3 65.4 78.15 50.4 77.5 41.3 78.1 31.95 78.45 27.5 77.25 25.0 76.0 22.5 73.9 23.55 71.8 24.55 71.95 23.3" fill="#032853" fill-rule="evenodd" stroke="none"/>
      <path d="M39.55 77.0 Q36.5 74.15 34.2 68.9 L56.45 68.3 Q54.45 74.05 51.55 77.0 48.75 79.85 45.6 79.85 42.5 79.8 39.55 77.0" fill="#000823" fill-rule="evenodd" stroke="none"/>
      <path d="M40.45 75.65 Q37.6 73.0 35.4 67.7 L55.25 66.9 Q53.7 72.05 51.2 74.95 48.8 77.8 46.0 78.0 43.1 78.15 40.45 75.65" fill="#ffe584" fill-rule="evenodd" stroke="none"/>
      <path d="M51.1 4.2 L54.4 4.4 Q55.9 5.2 56.6 7.15 57.35 9.25 56.65 12.15 56.9 7.2 53.55 5.85 50.45 4.65 47.85 6.8 49.2 4.8 51.1 4.2" fill="#000823" fill-rule="evenodd" stroke="none"/>
    </g>
    <g id="shape3" transform="matrix(1.0, 0.0, 0.0, 1.0, 0.0, 0.0)">
      <path d="M22.75 0.95 Q24.6 -0.25 26.6 0.05 28.05 0.5 28.7 1.9 29.35 3.45 28.65 5.7 L28.1 7.0 23.85 6.25 27.45 8.65 Q26.3 10.95 24.6 12.6 22.3 14.25 20.35 13.65 18.5 13.1 18.5 10.85 18.5 8.4 19.7 5.6 20.7 3.2 21.95 1.7 L22.75 0.95" fill="#000823" fill-rule="evenodd" stroke="none"/>
      <path d="M5.1 1.1 L5.4 1.25 Q6.95 2.5 6.1 5.85 L5.75 7.0 3.3 6.35 5.25 8.4 3.55 11.8 Q2.1 13.15 1.0 12.65 -0.1 12.1 0.0 10.2 0.25 5.8 1.5 3.55 2.15 1.9 3.35 1.3 L5.1 1.1" fill="#000823" fill-rule="evenodd" stroke="none"/>
    </g>
    <g id="shape4" transform="matrix(1.0, 0.0, 0.0, 1.0, -36.0, -57.15)">
      <path d="M36.05 63.6 Q35.85 61.25 36.3 60.3 42.8 53.15 49.7 62.15 51.5 64.45 52.6 67.2 52.2 70.25 50.05 72.5 48.2 74.4 45.95 75.45 L43.5 74.7 41.4 73.3 40.15 72.0 Q36.2 65.95 36.05 63.6 M46.0 73.95 Q49.95 72.7 51.45 67.3 L49.3 66.8 Q42.7 66.4 41.55 71.95 42.85 74.9 46.0 73.95" fill="#000823" fill-rule="evenodd" stroke="none"/>
      <path d="M46.0 73.95 Q42.85 74.9 41.55 71.95 42.7 66.4 49.3 66.8 L51.45 67.3 Q49.95 72.7 46.0 73.95" fill="#ed7773" fill-rule="evenodd" stroke="none"/>
    </g>
  </defs>
</svg>
