<?xml version="1.0" encoding="UTF-8" standalone="no"?>
<svg xmlns:xlink="http://www.w3.org/1999/xlink" height="272.3px" width="247.9px" xmlns="http://www.w3.org/2000/svg">
  <g transform="matrix(1.0, 0.0, 0.0, 1.0, -398.45, -109.6)">
    <use height="137.5" transform="matrix(1.0, 0.0, 0.0, 1.0, 417.05, 128.3)" width="79.95" xlink:href="#shape0"/>
    <use height="150.5" transform="matrix(1.0, 0.0, 0.0, 1.0, 465.9, 230.75)" width="69.0" xlink:href="#shape1"/>
    <use height="80.4" transform="matrix(1.0, 0.0, 0.0, 1.0, 462.0, 161.4)" width="104.0" xlink:href="#shape2"/>
    <use height="13.8" transform="matrix(1.0, 0.0, 0.0, 1.0, 483.55, 174.0)" width="29.0" xlink:href="#shape3"/>
    <use height="36.45" transform="matrix(1.0, 0.0, 0.0, 1.0, 484.65, 201.0)" width="38.95" xlink:href="#shape4"/>
    <use height="29.8" transform="matrix(1.0, 0.0, 0.0, 1.0, 480.8, 170.15)" width="37.0" xlink:href="#shape5"/>
    <use height="145.4" transform="matrix(0.9604, 0.2719, -0.2719, 0.9604, 546.35, 109.6)" width="78.05" xlink:href="#shape6"/>
  </g>
  <defs>
    <g id="shape0" transform="matrix(1.0, 0.0, 0.0, 1.0, 0.0, 0.0)">
      <path d="M50.0 37.0 L68.4 97.35 61.85 100.0 Q58.1 101.4 56.1 101.2 L38.0 44.9 50.0 37.0" fill="#000823" fill-rule="evenodd" stroke="none"/>
      <path d="M47.55 34.7 L67.0 98.25 62.0 100.2 Q59.15 101.15 57.5 100.75 L38.6 41.4 47.55 34.7" fill="#488fc1" fill-rule="evenodd" stroke="none"/>
      <path d="M78.55 111.1 Q80.35 127.35 79.8 134.85 79.75 135.9 77.5 135.65 75.45 135.4 72.35 134.1 64.95 131.05 62.65 127.45 61.85 126.2 52.85 101.2 56.3 97.45 63.7 93.3 72.2 88.55 75.55 90.0 77.1 97.3 78.55 111.1" fill="#000823" fill-rule="evenodd" stroke="none"/>
      <path d="M77.75 113.05 Q79.35 129.55 78.55 135.9 78.45 136.75 77.3 137.25 76.0 137.8 74.2 137.25 69.1 135.7 63.7 126.65 63.1 125.6 58.85 114.4 L54.0 101.3 Q57.1 97.85 63.9 94.1 71.7 89.9 74.75 91.3 76.35 98.0 77.75 113.05" fill="#ffbd20" fill-rule="evenodd" stroke="none"/>
      <path d="M75.2 93.3 L76.1 99.1 Q65.95 100.5 57.2 109.95 L54.95 103.8 Q58.55 99.25 64.0 96.5 69.3 93.75 75.2 93.3" fill="#e31e00" fill-rule="evenodd" stroke="none"/>
      <path d="M77.3 7.8 Q79.95 10.55 79.25 13.45 L78.45 15.35 Q76.8 17.7 73.6 18.8 L69.8 20.0 Q66.45 20.9 65.0 21.55 62.7 22.6 61.6 24.15 L60.75 25.85 Q59.75 31.05 57.7 34.1 L55.7 36.35 55.4 36.55 54.1 41.15 Q52.95 45.2 49.05 47.25 45.55 49.15 41.25 48.9 36.7 48.7 33.25 46.35 29.35 43.65 28.6 39.35 L28.2 37.45 25.95 35.1 Q20.05 28.75 16.65 26.3 L15.45 25.6 Q7.55 20.35 6.6 18.2 L6.4 17.6 5.85 17.25 Q2.5 15.15 1.0 12.6 -0.5 10.05 0.25 7.65 L1.0 6.25 Q2.25 4.3 5.15 3.5 5.45 2.55 8.15 1.4 14.35 -0.7 22.6 0.35 29.35 1.3 42.3 5.2 L50.3 7.55 Q54.4 8.6 56.65 8.35 L57.35 8.2 Q61.55 4.25 66.75 3.85 73.0 3.45 77.3 7.8" fill="#000823" fill-rule="evenodd" stroke="none"/>
      <path d="M76.05 9.0 Q78.8 11.85 76.9 14.5 75.6 16.35 73.05 17.2 L65.6 19.5 Q61.2 21.1 59.8 24.0 L59.5 23.05 Q58.3 31.9 54.6 35.0 55.2 30.6 50.8 26.2 48.9 24.4 46.85 23.35 44.7 22.25 43.1 22.45 52.2 26.1 53.6 32.75 54.2 35.65 52.85 38.3 51.55 41.0 48.5 42.65 40.2 47.15 31.5 38.4 L24.8 31.4 Q20.75 27.15 17.55 24.95 L12.05 21.15 Q8.7 18.65 8.1 17.45 7.25 15.35 8.85 13.85 10.45 12.45 13.5 12.35 16.9 12.35 20.3 14.15 24.25 16.2 27.4 20.15 26.7 17.4 23.55 14.9 20.65 12.55 16.9 11.5 13.0 10.5 10.35 11.4 7.25 12.5 6.75 15.8 3.85 14.0 2.6 11.9 1.4 10.0 1.85 8.3 2.35 6.5 4.35 5.55 6.5 4.5 9.9 4.65 17.0 4.9 24.5 7.75 L29.35 9.6 Q31.6 10.45 32.85 10.4 L28.5 8.3 22.9 5.75 Q15.45 2.8 8.75 3.05 14.85 0.95 23.0 2.0 L32.55 3.95 45.6 8.05 Q53.3 10.5 56.85 10.0 56.5 10.6 56.05 12.2 60.6 6.0 66.85 5.55 72.35 5.2 76.05 9.0" fill="#ffffff" fill-rule="evenodd" stroke="none"/>
      <path d="M30.25 39.05 Q34.5 43.4 39.45 44.65 46.6 46.45 52.5 40.65 51.5 44.05 48.1 45.85 45.0 47.45 41.0 47.15 37.0 46.85 34.05 44.85 30.9 42.6 30.25 39.05" fill="#ffffff" fill-rule="evenodd" stroke="none"/>
    </g>
    <g id="shape1" transform="matrix(1.0, 0.0, 0.0, 1.0, 1.55, 0.0)">
      <path d="M38.85 38.9 Q43.85 39.8 48.15 41.45 55.0 44.15 57.45 48.05 L58.35 49.9 Q61.5 58.95 62.65 74.55 L64.25 85.5 64.85 90.0 65.55 96.6 65.95 104.55 Q62.95 107.0 59.1 107.95 55.25 108.9 50.95 108.9 L42.95 108.15 31.65 107.55 Q29.75 106.8 29.25 106.15 L29.1 105.85 28.9 102.45 28.6 83.65 28.6 81.9 29.25 81.75 29.45 81.75 31.15 81.45 32.8 80.85 Q33.1 80.55 32.1 80.65 L29.8 80.95 29.25 80.95 26.2 80.95 23.75 80.8 22.8 80.65 Q21.45 80.45 21.65 80.65 L22.55 81.25 23.75 81.7 25.55 82.1 27.0 82.25 27.4 105.65 Q27.25 106.05 25.25 107.0 L23.75 107.6 21.85 108.35 21.8 108.3 21.8 108.35 20.1 108.9 Q20.85 109.1 18.3 109.55 L10.85 110.2 Q7.05 110.1 4.25 109.05 1.35 107.95 -0.05 105.35 0.05 102.2 0.65 97.7 L2.1 74.15 2.75 65.2 Q3.6 55.85 4.85 48.05 L4.9 47.6 Q5.65 42.6 13.45 40.05 17.5 38.65 22.55 38.2 L28.9 38.0 30.45 38.05 30.55 38.05 32.55 38.15 38.85 38.9 M0.55 76.25 L0.55 74.55 0.8 74.55 0.55 76.25" fill="#592d85" fill-rule="evenodd" stroke="none"/>
      <path d="M62.65 74.55 Q61.5 58.95 58.35 49.9 L57.45 48.05 Q55.0 44.15 48.15 41.45 43.85 39.8 38.85 38.9 44.35 39.75 48.95 41.45 56.1 44.15 58.7 48.05 L59.65 49.9 Q63.25 59.8 64.35 77.45 L63.8 74.55 62.65 74.55 M22.55 38.2 Q17.5 38.65 13.45 40.05 5.65 42.6 4.9 47.6 L4.85 48.05 Q3.6 55.85 2.75 65.2 L2.1 74.15 0.8 74.55 0.55 74.55 1.3 65.2 Q2.2 55.9 3.4 48.05 L3.5 47.6 Q4.3 42.6 12.5 40.05 16.95 38.6 22.55 38.2" fill="#000823" fill-rule="evenodd" stroke="none"/>
      <path d="M62.65 74.55 L63.8 74.55 64.35 77.45 Q66.8 90.1 67.4 102.85 L67.45 104.55 67.45 105.25 Q65.45 107.25 62.8 108.25 L60.45 109.15 58.0 109.75 63.2 150.5 61.7 150.5 56.45 109.65 47.15 110.1 50.6 131.5 52.1 141.9 52.2 142.65 53.1 150.5 51.6 150.5 50.75 142.7 45.65 110.0 40.75 109.25 Q32.7 109.5 31.75 109.15 30.2 108.65 29.25 108.05 28.4 107.5 28.1 107.05 27.05 107.9 24.95 108.8 L21.7 109.9 19.05 132.3 Q18.45 137.25 17.95 143.4 L17.45 150.5 16.0 150.5 20.1 110.7 Q15.9 112.0 11.45 111.9 L11.2 111.9 7.45 150.5 5.95 150.5 6.4 145.2 9.6 111.65 Q5.95 111.4 3.15 110.2 0.2 108.9 -1.35 106.1 L-1.55 105.75 -1.5 105.35 -0.95 97.7 0.0 89.1 0.55 76.25 0.8 74.55 2.1 74.15 0.65 97.7 Q0.05 102.2 -0.05 105.35 1.35 107.95 4.25 109.05 7.05 110.1 10.85 110.2 L18.3 109.55 Q20.85 109.1 20.1 108.9 L21.8 108.35 21.85 108.35 23.75 107.6 25.25 107.0 Q27.25 106.05 27.4 105.65 L27.0 82.25 25.55 82.1 23.75 81.7 22.55 81.25 21.65 80.65 Q21.45 80.45 22.8 80.65 L23.75 80.8 26.2 80.95 29.25 80.95 29.8 80.95 32.1 80.65 Q33.1 80.55 32.8 80.85 L31.15 81.45 29.45 81.75 29.25 81.75 28.6 81.9 28.6 83.65 28.9 102.45 29.1 105.85 29.25 106.15 Q29.75 106.8 31.65 107.55 L42.95 108.15 50.95 108.9 Q55.25 108.9 59.1 107.95 62.95 107.0 65.95 104.55 L65.55 96.6 64.85 90.0 64.25 85.5 62.65 74.55" fill="#000000" fill-rule="evenodd" stroke="none"/>
      <path d="M61.7 150.5 L53.1 150.5 52.2 142.65 52.1 141.9 50.6 131.5 47.15 110.1 56.45 109.65 61.7 150.5 M16.0 150.5 L7.45 150.5 11.2 111.9 11.45 111.9 Q15.9 112.0 20.1 110.7 L16.0 150.5" fill="#488fc1" fill-rule="evenodd" stroke="none"/>
      <path d="M54.95 2.6 Q58.2 5.2 57.85 10.0 57.15 20.05 57.85 30.35 58.65 42.5 61.2 51.6 L52.8 52.05 Q46.1 53.25 40.65 56.45 35.75 59.45 28.7 60.05 22.1 60.55 15.8 58.8 9.4 57.05 5.75 53.5 1.85 49.7 2.5 44.9 3.95 34.35 10.05 24.35 16.55 13.75 26.65 6.3 30.85 3.25 36.45 1.55 41.9 -0.15 46.85 0.0 52.05 0.2 54.95 2.6" fill="#000823" fill-rule="evenodd" stroke="none"/>
      <path d="M53.75 3.8 Q56.8 6.35 56.5 10.9 55.85 20.4 56.5 30.0 57.2 41.3 59.65 49.95 57.05 49.55 52.15 50.8 46.55 52.2 40.2 55.35 34.9 57.9 28.2 58.35 21.75 58.8 16.0 57.25 10.05 55.6 6.9 52.4 3.35 48.85 4.0 44.2 5.35 34.2 11.15 24.6 17.35 14.45 26.95 7.35 30.9 4.45 36.2 2.8 41.35 1.15 46.05 1.35 50.95 1.6 53.75 3.8" fill="#ffbd20" fill-rule="evenodd" stroke="none"/>
      <path d="M57.4 38.8 L58.8 46.55 Q48.45 45.75 37.6 50.15 27.35 54.3 17.95 52.45 9.2 50.7 4.0 44.5 L4.0 44.2 Q4.5 40.45 5.75 36.45 11.65 42.0 19.9 43.55 28.95 45.3 37.9 41.65 48.65 37.2 57.4 38.8" fill="#e31e00" fill-rule="evenodd" stroke="none"/>
    </g>
    <g id="shape2" transform="matrix(1.0, 0.0, 0.0, 1.0, 0.0, 0.0)">
      <path d="M22.8 69.95 Q20.45 76.0 17.35 78.2 14.7 80.05 12.1 78.9 9.7 77.8 8.45 75.05 7.25 72.2 8.1 69.6 11.35 60.0 12.2 54.65 13.25 48.0 11.65 43.05 10.9 40.85 11.35 39.1 11.8 37.45 13.15 36.8 16.25 35.25 20.4 39.9 24.7 44.75 25.35 53.1 26.1 61.6 22.8 69.95" fill="#000823" fill-rule="evenodd" stroke="none"/>
      <path d="M10.4 67.3 L13.15 60.4 Q22.25 58.5 17.55 62.4 14.15 65.25 12.35 69.35 10.6 73.2 11.15 76.35 9.2 74.8 9.2 71.65 9.25 70.4 10.4 67.3" fill="#032853" fill-rule="evenodd" stroke="none"/>
      <path d="M10.4 21.75 Q11.75 20.9 14.2 20.7 L17.8 20.55 Q19.05 20.45 18.95 24.6 18.8 28.6 17.55 32.7 16.2 37.2 14.5 38.0 12.4 38.95 10.35 33.85 6.55 24.4 10.4 21.75" fill="#000823" fill-rule="evenodd" stroke="none"/>
      <path d="M75.75 25.6 Q75.9 34.95 68.85 49.25 61.4 53.9 50.8 53.35 41.8 52.85 31.95 48.75 23.45 45.2 17.35 40.45 11.5 35.8 11.8 33.3 14.4 15.2 23.2 7.35 30.65 0.8 41.2 2.45 43.5 0.9 46.95 0.2 L54.1 0.0 Q62.85 1.45 66.7 9.45 75.55 15.2 75.75 25.6" fill="#000823" fill-rule="evenodd" stroke="none"/>
      <path d="M61.2 7.8 L65.5 10.2 Q74.0 15.5 74.2 25.6 74.4 34.7 67.75 48.35 60.7 52.85 50.75 52.3 42.3 51.85 33.05 48.0 25.0 44.7 19.15 40.15 13.65 35.8 13.8 33.35 15.2 16.8 23.75 8.95 31.2 2.15 41.65 3.55 L44.05 3.85 42.6 3.0 Q47.75 0.2 53.85 1.3 61.15 2.45 64.8 8.9 L61.2 7.8" fill="#488fc1" fill-rule="evenodd" stroke="none"/>
      <path d="M49.85 11.35 Q54.5 13.05 54.25 21.0 54.15 25.3 51.05 31.0 L47.05 37.2 Q46.65 37.85 45.0 37.7 L41.65 36.85 Q37.1 35.0 37.1 32.9 37.15 31.4 40.75 22.15 43.85 14.1 43.0 14.75 42.05 15.45 41.85 15.1 41.65 14.75 42.3 13.9 43.8 12.1 45.85 11.4 47.95 10.65 49.85 11.35" fill="#000823" fill-rule="evenodd" stroke="none"/>
      <path d="M28.2 18.0 Q28.25 21.6 27.35 26.35 L25.4 35.35 Q23.1 35.1 20.3 33.5 19.5 22.65 21.15 18.4 19.5 18.8 20.75 16.3 21.6 14.5 23.3 13.25 24.8 12.15 25.65 12.2 28.15 12.5 28.2 18.0" fill="#000823" fill-rule="evenodd" stroke="none"/>
      <path d="M41.6 16.2 Q43.2 13.9 45.35 13.15 47.4 12.35 49.25 13.15 53.65 15.05 53.5 22.1 53.25 28.8 47.9 37.35 47.5 38.05 45.75 37.85 L42.05 36.95 Q37.1 35.0 37.1 32.9 37.15 29.15 38.3 24.45 39.6 18.95 41.6 16.2" fill="#ffffff" fill-rule="evenodd" stroke="none"/>
      <path d="M23.15 14.7 Q24.4 13.5 25.65 13.6 29.7 14.0 27.35 26.35 L25.4 35.35 Q22.0 35.75 19.25 34.1 18.55 24.55 20.85 18.5 21.85 16.0 23.15 14.7" fill="#ffffff" fill-rule="evenodd" stroke="none"/>
      <path d="M30.35 5.95 Q30.65 7.25 30.1 9.3 30.3 6.5 28.7 6.0 26.85 5.45 24.35 9.05 26.95 4.3 29.2 4.6 30.15 4.75 30.35 5.95" fill="#000823" fill-rule="evenodd" stroke="none"/>
      <path d="M73.0 44.8 Q73.9 50.8 69.65 57.45 65.1 64.6 56.25 69.4 48.45 73.2 34.45 71.1 22.05 69.5 12.1 62.2 1.8 54.6 0.2 45.0 -0.65 40.1 1.95 35.9 4.6 31.7 9.45 29.65 16.6 26.6 28.25 29.25 38.5 31.6 49.05 37.4 59.55 34.0 66.1 36.5 72.05 38.7 73.0 44.8" fill="#000823" fill-rule="evenodd" stroke="none"/>
      <path d="M71.45 45.1 Q72.3 50.1 68.95 55.95 65.6 62.0 59.35 66.2 55.25 68.9 50.75 69.85 44.75 71.15 35.55 70.25 23.2 68.45 13.75 62.0 3.35 54.9 1.4 45.15 0.45 40.55 3.05 36.4 5.55 32.45 10.35 30.4 17.25 27.5 28.7 30.3 38.55 32.7 49.0 38.4 59.3 35.6 65.3 37.8 70.6 39.8 71.45 45.1" fill="#ffe584" fill-rule="evenodd" stroke="none"/>
      <path d="M7.95 30.8 Q7.3 28.5 9.9 25.95 13.0 22.9 18.9 23.0 25.95 23.2 29.45 26.5 32.1 29.0 31.7 31.65 31.35 34.4 28.8 35.4 26.45 36.4 21.3 36.2 9.25 35.8 7.95 30.8" fill="#000823" fill-rule="evenodd" stroke="none"/>
      <path d="M22.55 26.65 Q22.35 28.25 18.9 28.1 14.6 27.85 14.15 26.15 13.85 25.35 14.8 24.55 15.85 23.55 17.95 23.65 20.45 23.75 21.7 24.9 22.65 25.75 22.55 26.65" fill="#032853" fill-rule="evenodd" stroke="none"/>
      <path d="M40.85 40.3 Q40.35 40.05 40.55 39.45 40.8 38.95 41.35 39.2 41.9 39.4 41.65 40.05 41.4 40.55 40.85 40.3" fill="#b08000" fill-rule="evenodd" stroke="none"/>
      <path d="M34.55 41.7 Q33.9 41.4 34.2 40.75 34.45 40.1 35.1 40.45 35.7 40.65 35.45 41.35 35.1 42.0 34.55 41.7" fill="#b08000" fill-rule="evenodd" stroke="none"/>
      <path d="M35.4 36.15 Q34.8 35.9 35.1 35.35 35.4 34.8 35.9 35.0 36.5 35.3 36.25 35.8 35.95 36.45 35.4 36.15" fill="#b08000" fill-rule="evenodd" stroke="none"/>
      <path d="M44.65 44.45 Q44.1 44.2 44.3 43.55 44.65 43.0 45.2 43.25 45.8 43.55 45.55 44.15 45.2 44.7 44.65 44.45" fill="#b08000" fill-rule="evenodd" stroke="none"/>
      <path d="M46.95 41.2 Q46.4 41.0 46.65 40.45 46.95 39.9 47.45 40.15 48.0 40.35 47.75 40.95 47.5 41.5 46.95 41.2" fill="#b08000" fill-rule="evenodd" stroke="none"/>
      <path d="M4.2 37.2 Q3.95 36.9 4.3 36.4 4.6 35.9 4.9 36.1 5.2 36.35 4.9 36.9 4.5 37.35 4.2 37.2" fill="#b08000" fill-rule="evenodd" stroke="none"/>
      <path d="M6.45 34.7 Q6.3 34.4 6.75 34.0 7.2 33.55 7.45 33.9 7.6 34.25 7.15 34.6 L6.45 34.7" fill="#b08000" fill-rule="evenodd" stroke="none"/>
      <path d="M77.8 19.75 Q82.05 20.25 83.4 26.2 L86.15 40.15 Q87.9 49.15 90.3 55.75 91.55 59.15 95.0 62.85 L101.2 68.75 Q104.0 71.45 104.0 74.75 103.95 77.85 101.7 79.45 100.35 80.4 97.85 80.4 95.3 80.4 92.45 79.4 85.5 76.95 81.85 70.75 78.9 65.8 77.85 61.05 76.8 56.55 76.75 48.9 L77.25 33.95 Q77.5 28.2 76.2 27.4 75.05 26.75 73.0 27.4 71.35 27.85 70.3 28.7 68.8 28.5 68.75 25.95 68.65 23.65 69.65 22.35 74.4 19.35 77.8 19.75" fill="#000823" fill-rule="evenodd" stroke="none"/>
      <path d="M71.95 23.3 Q72.15 22.05 74.1 21.6 77.65 20.85 78.8 23.3 80.0 25.85 79.5 33.9 78.9 43.05 80.55 53.1 82.5 64.55 86.3 69.6 89.4 73.8 87.55 73.55 85.8 73.3 83.85 71.05 79.3 65.4 78.15 50.4 77.5 41.3 78.1 31.95 78.45 27.5 77.25 25.0 76.0 22.5 73.9 23.55 71.8 24.55 71.95 23.3" fill="#032853" fill-rule="evenodd" stroke="none"/>
      <path d="M39.55 77.0 Q36.5 74.15 34.2 68.9 L56.45 68.3 Q54.45 74.05 51.55 77.0 48.75 79.85 45.6 79.85 42.5 79.8 39.55 77.0" fill="#000823" fill-rule="evenodd" stroke="none"/>
      <path d="M40.45 75.65 Q37.6 73.0 35.4 67.7 L55.25 66.9 Q53.7 72.05 51.2 74.95 48.8 77.8 46.0 78.0 43.1 78.15 40.45 75.65" fill="#ffe584" fill-rule="evenodd" stroke="none"/>
      <path d="M51.1 4.2 L54.4 4.4 Q55.9 5.2 56.6 7.15 57.35 9.25 56.65 12.15 56.9 7.2 53.55 5.85 50.45 4.65 47.85 6.8 49.2 4.8 51.1 4.2" fill="#000823" fill-rule="evenodd" stroke="none"/>
    </g>
    <g id="shape3" transform="matrix(1.0, 0.0, 0.0, 1.0, 0.0, 0.0)">
      <path d="M22.75 0.95 Q24.6 -0.25 26.6 0.05 28.05 0.5 28.7 1.9 29.35 3.45 28.65 5.7 L28.1 7.0 23.85 6.25 27.45 8.65 Q26.3 10.95 24.6 12.6 22.3 14.25 20.35 13.65 18.5 13.1 18.5 10.85 18.5 8.4 19.7 5.6 20.7 3.2 21.95 1.7 L22.75 0.95" fill="#000823" fill-rule="evenodd" stroke="none"/>
      <path d="M5.1 1.1 L5.4 1.25 Q6.95 2.5 6.1 5.85 L5.75 7.0 3.3 6.35 5.25 8.4 3.55 11.8 Q2.1 13.15 1.0 12.65 -0.1 12.1 0.0 10.2 0.25 5.8 1.5 3.55 2.15 1.9 3.35 1.3 L5.1 1.1" fill="#000823" fill-rule="evenodd" stroke="none"/>
    </g>
    <g id="shape4" transform="matrix(1.0, 0.0, 0.0, 1.0, -22.65, -39.6)">
      <path d="M61.45 43.4 Q61.8 43.85 61.25 43.95 60.75 44.05 60.35 43.6 60.0 43.35 59.5 45.9 L55.05 60.55 Q52.1 69.6 50.0 72.8 47.6 76.5 44.45 76.0 41.7 75.55 39.85 72.75 38.35 70.4 37.05 66.65 L34.85 60.7 Q33.4 57.45 31.05 55.35 28.15 52.7 23.35 51.05 L22.7 50.55 Q22.55 50.15 23.25 50.35 35.25 52.8 41.85 52.8 47.65 52.7 52.55 50.6 56.6 48.9 57.8 45.85 58.65 43.75 58.15 42.0 L56.6 40.45 Q55.75 39.3 56.8 39.75 59.6 40.9 61.45 43.4" fill="#000823" fill-rule="evenodd" stroke="none"/>
      <path d="M51.65 65.4 Q50.65 72.65 46.75 74.65 L43.25 74.85 Q41.45 74.25 40.05 72.2 39.55 69.75 40.85 67.85 42.0 66.2 44.25 65.3 46.35 64.45 48.45 64.45 50.65 64.5 51.65 65.4" fill="#ed7773" fill-rule="evenodd" stroke="none"/>
    </g>
    <g id="shape5" transform="matrix(1.0, 0.0, 0.0, 1.0, -18.8, -8.75)">
      <path d="M25.75 10.25 Q31.9 10.55 32.55 16.65 32.95 19.85 30.3 21.05 27.0 22.6 23.2 22.05 17.6 21.3 19.15 15.8 20.55 10.95 25.75 10.25" fill="#488fc1" fill-rule="evenodd" stroke="none"/>
      <path d="M45.75 8.75 L49.05 9.3 Q54.45 11.0 55.5 20.1 56.5 29.15 54.0 29.75 51.5 30.35 50.8 28.3 44.15 24.3 38.4 19.4 38.7 15.05 41.5 11.65 43.2 9.6 45.75 8.75" fill="#488fc1" fill-rule="evenodd" stroke="none"/>
      <path d="M37.1 31.7 Q37.25 28.35 38.25 24.3 39.55 18.75 41.6 15.95 43.2 13.7 45.4 12.9 47.5 12.1 49.4 12.95 51.35 13.75 52.5 16.0 53.7 18.4 53.6 21.95 53.5 26.3 51.0 31.75 50.2 28.25 45.9 28.3 43.75 28.35 41.35 29.3 39.0 30.25 37.1 31.7 M48.15 37.1 L47.95 37.45 Q43.95 34.55 40.65 33.55 L37.95 32.8 Q46.05 30.35 48.05 36.85 L48.15 37.1 M23.15 14.6 Q24.4 13.35 25.65 13.5 29.55 13.9 28.0 25.35 24.0 23.9 20.0 23.4 L19.55 23.5 Q20.0 20.7 20.85 18.45 21.85 15.95 23.15 14.6" fill="#0b4f7d" fill-rule="evenodd" stroke="none"/>
      <path d="M51.0 31.75 L51.2 33.15 Q51.3 35.95 50.2 37.85 49.65 38.7 49.15 38.55 48.6 38.35 48.15 37.1 L48.05 36.85 Q46.05 30.35 37.95 32.8 L37.75 32.85 Q36.25 32.7 37.05 31.75 L37.1 31.7 Q39.0 30.25 41.35 29.3 43.75 28.35 45.9 28.3 50.2 28.25 51.0 31.75" fill="#000823" fill-rule="evenodd" stroke="none"/>
    </g>
    <g id="shape6" transform="matrix(1.0, 0.0, 0.0, 1.0, 0.0, 0.0)">
      <path d="M30.0 123.4 Q23.4 138.3 19.2 144.55 18.65 145.5 16.8 144.1 15.15 142.8 13.1 140.2 8.25 133.8 8.05 129.55 8.0 128.45 12.7 101.95 17.6 100.4 26.1 100.6 35.8 100.7 38.05 103.6 35.6 110.75 30.0 123.4" fill="#000823" fill-rule="evenodd" stroke="none"/>
      <path d="M28.35 124.65 Q21.45 139.75 17.6 144.85 17.1 145.55 15.9 145.35 14.45 145.2 13.15 143.8 9.5 139.95 9.35 129.35 9.35 128.2 11.35 116.4 L13.7 102.6 Q17.45 104.15 20.7 104.6 26.75 105.45 36.65 104.35 34.6 111.0 28.35 124.65" fill="#ffbd20" fill-rule="evenodd" stroke="none"/>
      <path d="M35.25 108.5 L33.35 113.15 Q29.65 115.1 25.4 115.35 18.45 115.75 12.2 111.1 L13.2 105.3 Q20.85 111.0 35.25 108.5" fill="#e31e00" fill-rule="evenodd" stroke="none"/>
      <path d="M38.2 41.15 L30.2 103.65 23.1 103.4 Q19.15 103.2 17.3 102.15 L23.9 43.45 38.2 41.15" fill="#000823" fill-rule="evenodd" stroke="none"/>
      <path d="M36.9 38.05 L28.55 103.95 23.2 103.7 Q20.15 103.35 18.85 102.35 L26.05 40.5 36.9 38.05" fill="#488fc1" fill-rule="evenodd" stroke="none"/>
      <path d="M74.3 15.55 Q76.9 17.05 77.7 19.2 L78.05 20.8 Q78.15 23.3 76.1 25.4 74.05 27.5 70.25 28.75 L69.6 28.95 69.35 29.45 Q67.9 31.15 58.9 34.4 L57.55 34.85 Q53.85 36.25 46.4 41.0 L43.6 42.75 42.8 44.5 Q41.0 48.55 36.55 50.15 32.65 51.6 28.15 50.65 23.9 49.8 21.0 47.2 17.7 44.2 17.6 40.05 L17.45 35.25 17.25 34.9 Q16.4 33.8 15.85 32.3 14.65 28.95 14.95 23.5 L14.7 22.4 14.45 21.7 Q13.85 19.95 11.8 18.35 L4.15 13.55 Q1.35 11.65 0.35 8.95 0.0 8.1 0.0 7.0 0.0 4.05 3.3 2.0 8.6 -1.25 14.55 0.75 19.4 2.35 22.55 7.3 L23.25 7.55 Q25.35 8.4 29.55 8.4 L37.8 8.05 Q51.4 7.45 58.1 8.2 66.45 9.2 71.9 12.8 74.3 14.55 74.3 15.55" fill="#000823" fill-rule="evenodd" stroke="none"/>
      <path d="M69.45 15.5 Q72.75 16.25 74.55 17.7 76.25 19.15 76.35 20.95 76.35 22.75 74.7 24.4 72.95 26.05 69.75 27.1 70.0 23.75 67.35 22.0 64.95 20.4 60.95 20.45 57.1 20.5 53.7 22.05 50.0 23.7 48.6 26.25 52.65 23.1 57.0 22.15 60.75 21.25 64.0 22.1 66.95 22.9 68.15 24.7 69.4 26.55 67.95 28.35 67.15 29.4 63.3 30.9 L57.0 33.3 Q53.35 34.7 48.4 37.75 L40.2 42.85 Q29.6 49.25 22.65 42.75 20.15 40.4 19.5 37.5 18.85 34.7 20.15 31.95 23.1 25.85 32.8 24.6 29.55 23.3 24.5 26.3 19.15 29.5 18.65 33.95 15.8 30.0 16.85 21.15 L16.35 22.0 Q15.6 18.8 11.8 16.25 L5.1 12.15 Q2.85 10.65 2.0 8.55 0.8 5.55 4.25 3.45 8.75 0.65 13.95 2.35 19.95 4.3 22.85 11.45 L22.6 9.1 Q25.9 10.5 33.95 10.05 L47.7 9.3 57.4 9.7 Q65.6 10.65 70.95 14.25 64.5 12.35 56.55 13.4 L45.75 15.4 49.35 15.5 54.5 14.85 69.45 15.5" fill="#ffffff" fill-rule="evenodd" stroke="none"/>
      <path d="M41.2 43.85 Q39.75 47.15 36.1 48.5 32.75 49.75 28.8 49.05 24.9 48.35 22.25 46.05 19.35 43.5 19.3 39.95 23.6 47.05 30.9 46.95 36.05 46.95 41.2 43.85" fill="#ffffff" fill-rule="evenodd" stroke="none"/>
    </g>
  </defs>
</svg>
