<?xml version="1.0" encoding="UTF-8" standalone="no"?>
<svg xmlns:xlink="http://www.w3.org/1999/xlink" height="46.95px" width="223.4px" xmlns="http://www.w3.org/2000/svg">
  <g transform="matrix(1.0, 0.0, 0.0, 1.0, 54.4, 16.3)">
    <use height="30.65" transform="matrix(1.0, 0.0, 0.0, 1.0, -54.4, -13.8)" width="105.25" xlink:href="#shape0"/>
    <use height="30.65" transform="matrix(1.0, 0.0, 0.0, 1.0, -52.75, -15.9)" width="105.25" xlink:href="#shape0"/>
    <use height="16.2" transform="matrix(0.8917, 0.0, 0.0, 1.0, -36.7, -9.25)" width="52.95" xlink:href="#shape1"/>
    <use height="16.2" transform="matrix(0.8917, 0.0, 0.0, 1.0, -35.75, -8.2)" width="52.95" xlink:href="#shape1"/>
    <use height="16.2" transform="matrix(0.8917, 0.0, 0.0, 1.0, -34.5, -7.15)" width="52.95" xlink:href="#shape1"/>
    <use height="32.95" id="btn" transform="matrix(1.18, 0.0, 0.0, 0.9697, -52.4, -16.3)" width="88.9" xlink:href="#button0"/>
    <use height="15.7" id="btnsnd" transform="matrix(1.0, 0.0, 0.0, 1.0, 73.95, 0.65)" width="95.05" xlink:href="#sprite0"/>
  </g>
  <defs>
    <g id="shape0" transform="matrix(1.0, 0.0, 0.0, 1.0, 0.0, 0.0)">
      <path d="M0.4 6.2 Q-0.5 3.55 0.7 1.8 1.9 0.05 4.65 0.0 L105.25 0.0 105.25 30.65 16.45 30.65 Q14.6 30.65 12.8 29.8 10.95 29.0 9.55 27.6 8.15 26.2 7.45 24.45 L0.4 6.2" fill="url(#gradient0)" fill-rule="evenodd" stroke="none"/>
    </g>
    <linearGradient gradientTransform="matrix(0.0, -0.0187, 0.0187, 0.0, 52.65, 15.35)" gradientUnits="userSpaceOnUse" id="gradient0" spreadMethod="pad" x1="-819.2" x2="819.2">
      <stop offset="0.0" stop-color="#000000" stop-opacity="0.39607844"/>
      <stop offset="0.5490196078431373" stop-color="#000000" stop-opacity="0.39607844"/>
      <stop offset="1.0" stop-color="#000000" stop-opacity="0.39607844"/>
    </linearGradient>
    <g id="shape1" transform="matrix(1.0, 0.0, 0.0, 1.0, 0.0, 0.0)">
      <path d="M8.0 0.0 L13.4 0.0 13.4 16.2 8.0 16.2 8.0 9.7 5.4 9.7 5.4 16.2 0.0 16.2 0.0 0.0 5.4 0.0 5.4 5.8 8.0 5.8 8.0 0.0" fill="#000000" fill-opacity="0.29803923" fill-rule="evenodd" stroke="none"/>
      <path d="M25.75 5.95 L25.75 9.85 21.6 9.85 21.6 12.35 26.25 12.35 26.25 16.2 16.2 16.2 16.2 0.0 26.25 0.0 26.25 3.9 21.6 3.9 21.6 5.95 25.75 5.95" fill="#000000" fill-opacity="0.29803923" fill-rule="evenodd" stroke="none"/>
      <path d="M38.0 16.2 L28.55 16.2 28.55 0.0 33.95 0.0 33.95 12.35 38.0 12.35 38.0 16.2" fill="#000000" fill-opacity="0.29803923" fill-rule="evenodd" stroke="none"/>
      <path d="M50.55 9.7 Q48.95 10.7 45.9 10.65 L45.05 10.65 45.05 16.2 39.65 16.2 39.65 0.0 44.9 0.0 Q48.8 0.0 50.7 1.25 52.95 2.75 52.95 5.4 52.9 8.3 50.55 9.7 M45.45 3.55 L45.05 3.55 45.05 7.25 45.3 7.25 Q46.3 7.3 46.85 6.8 47.45 6.3 47.45 5.45 47.45 4.6 46.9 4.1 46.3 3.55 45.45 3.55" fill="#000000" fill-opacity="0.29803923" fill-rule="evenodd" stroke="none"/>
    </g>
    <g id="sprite0" transform="matrix(1.0, 0.0, 0.0, 1.0, -11.95, 5.3)">
      <use height="15.7" transform="matrix(1.0, 0.0, 0.0, 1.0, 11.95, -5.3)" width="95.05" xlink:href="#text0"/>
    </g>
    <g id="text0" transform="matrix(1.0, 0.0, 0.0, 1.0, -24.85, -4.15)">
      <g transform="matrix(1.0, 0.0, 0.0, 1.0, 23.9, 0.0)">
        <use fill="#333333" height="15.7" transform="matrix(0.3516, 0.0, 0.0, 0.3516, 0.0, 18.0)" width="95.05" xlink:href="#font_______b0"/>
        <use fill="#333333" height="15.7" transform="matrix(0.3516, 0.0, 0.0, 0.3516, 8.0, 18.0)" width="95.05" xlink:href="#font_______u0"/>
        <use fill="#333333" height="15.7" transform="matrix(0.3516, 0.0, 0.0, 0.3516, 16.0, 18.0)" width="95.05" xlink:href="#font_______t0"/>
        <use fill="#333333" height="15.7" transform="matrix(0.3516, 0.0, 0.0, 0.3516, 24.0, 18.0)" width="95.05" xlink:href="#font_______t0"/>
        <use fill="#333333" height="15.7" transform="matrix(0.3516, 0.0, 0.0, 0.3516, 32.0, 18.0)" width="95.05" xlink:href="#font_______o0"/>
        <use fill="#333333" height="15.7" transform="matrix(0.3516, 0.0, 0.0, 0.3516, 40.0, 18.0)" width="95.05" xlink:href="#font_______n0"/>
        <use fill="#333333" height="15.7" transform="matrix(0.3516, 0.0, 0.0, 0.3516, 48.0, 18.0)" width="95.05" xlink:href="#font________0"/>
        <use fill="#333333" height="15.7" transform="matrix(0.3516, 0.0, 0.0, 0.3516, 56.0, 18.0)" width="95.05" xlink:href="#font_______s0"/>
        <use fill="#333333" height="15.7" transform="matrix(0.3516, 0.0, 0.0, 0.3516, 64.0, 18.0)" width="95.05" xlink:href="#font_______o0"/>
        <use fill="#333333" height="15.7" transform="matrix(0.3516, 0.0, 0.0, 0.3516, 72.0, 18.0)" width="95.05" xlink:href="#font_______u0"/>
        <use fill="#333333" height="15.7" transform="matrix(0.3516, 0.0, 0.0, 0.3516, 80.0, 18.0)" width="95.05" xlink:href="#font_______n0"/>
        <use fill="#333333" height="15.7" transform="matrix(0.3516, 0.0, 0.0, 0.3516, 88.0, 18.0)" width="95.05" xlink:href="#font_______d0"/>
      </g>
    </g>
    <g id="font_______b0">
      <path d="M6.6 -13.4 L6.6 -13.4 Q6.6 -20.2 8.6 -22.2 10.6 -24.2 12.8 -24.2 15.0 -24.2 16.4 -22.8 18.8 -20.4 18.8 -14.2 18.8 -7.8 16.2 -5.2 14.8 -3.8 12.4 -3.8 10.4 -3.8 8.6 -5.6 6.6 -7.6 6.6 -13.4 M6.6 -23.4 L6.6 -23.4 6.6 -39.4 2.4 -39.4 2.4 -0.2 6.6 -0.2 6.6 -3.8 Q9.6 -0.2 13.4 -0.2 16.6 -0.2 19.6 -3.4 22.8 -6.6 22.8 -14.6 22.8 -22.2 19.6 -25.4 17.2 -27.8 14.0 -27.8 9.8 -27.8 6.6 -23.4" fill-rule="evenodd" stroke="none"/>
    </g>
    <g id="font_______u0">
      <path d="M18.0 -4.4 L18.0 -4.4 18.0 -0.4 22.2 -0.4 22.2 -27.8 18.0 -27.8 18.0 -11.4 Q18.0 -8.0 16.0 -5.8 14.0 -3.8 11.2 -3.8 8.8 -3.8 7.8 -4.8 6.8 -5.8 6.8 -8.2 L6.8 -27.8 2.6 -27.8 2.6 -7.2 Q2.6 -4.2 4.8 -2.2 6.6 -0.2 10.0 -0.2 14.9 -0.2 18.0 -4.4" fill-rule="evenodd" stroke="none"/>
    </g>
    <g id="font_______t0">
      <path d="M8.2 -5.6 L8.2 -5.6 Q8.2 -0.2 15.0 -0.2 17.6 -0.2 22.6 -1.6 L22.6 -5.8 Q19.0 -4.2 15.6 -4.2 12.4 -4.2 12.4 -6.4 L12.4 -24.4 21.4 -24.4 21.4 -27.8 12.4 -27.8 12.4 -36.6 8.2 -36.6 8.2 -27.8 2.0 -27.8 2.0 -24.4 8.2 -24.4 8.2 -5.6" fill-rule="evenodd" stroke="none"/>
    </g>
    <g id="font_______o0">
      <path d="M12.8 -24.2 L12.8 -24.2 Q15.0 -24.2 16.8 -22.4 19.0 -20.2 19.0 -14.0 19.0 -8.0 16.8 -5.8 15.0 -4.0 12.8 -4.0 10.4 -4.0 8.6 -5.8 6.4 -8.0 6.4 -14.0 6.4 -20.2 8.6 -22.4 10.4 -24.2 12.8 -24.2 M5.2 -24.6 L5.2 -24.6 Q2.0 -21.4 2.0 -14.0 2.0 -6.8 5.2 -3.6 8.4 -0.2 12.8 -0.2 17.0 -0.2 20.2 -3.6 23.4 -6.8 23.4 -14.0 23.4 -21.4 20.2 -24.6 17.0 -27.8 12.8 -27.8 8.4 -27.8 5.2 -24.6" fill-rule="evenodd" stroke="none"/>
    </g>
    <g id="font_______n0">
      <path d="M18.4 -20.0 L18.4 -20.0 18.4 -0.2 22.6 -0.2 22.6 -20.4 Q22.6 -23.8 20.6 -25.8 18.6 -27.8 15.4 -27.8 11.8 -27.8 9.4 -25.4 L7.0 -22.6 7.0 -27.8 2.8 -27.8 2.8 -0.2 7.0 -0.2 7.0 -14.8 Q7.0 -19.2 9.8 -22.0 12.0 -24.2 14.2 -24.2 16.2 -24.2 17.4 -23.0 18.4 -21.8 18.4 -20.0" fill-rule="evenodd" stroke="none"/>
    </g>
    <g id="font________0">
      <path d="M25.4 5.2 L25.4 5.2 25.4 2.6 0.0 2.6 0.0 5.2 25.4 5.2" fill-rule="evenodd" stroke="none"/>
    </g>
    <g id="font_______s0">
      <path d="M17.4 -19.6 L17.4 -19.6 21.4 -19.6 Q21.6 -23.0 19.2 -25.4 16.8 -27.8 12.8 -27.8 8.2 -27.8 6.0 -25.6 3.8 -23.4 3.8 -20.8 3.8 -18.2 5.6 -16.4 7.2 -14.8 12.2 -13.0 15.6 -11.8 16.8 -10.6 18.0 -9.4 18.0 -8.2 18.0 -6.6 16.8 -5.4 15.4 -4.0 12.6 -4.0 9.8 -4.0 8.4 -5.4 7.2 -6.6 7.2 -11.0 L3.2 -11.0 Q3.0 -5.4 5.6 -2.8 8.0 -0.2 12.8 -0.2 17.2 -0.2 20.0 -3.2 22.0 -5.2 22.0 -8.0 22.0 -11.0 20.2 -12.8 18.6 -14.4 15.0 -15.6 10.4 -17.2 9.0 -18.6 8.0 -19.6 8.0 -20.6 8.0 -22.0 9.2 -23.2 10.2 -24.2 12.8 -24.2 14.8 -24.2 16.0 -23.0 17.2 -21.8 17.4 -19.6" fill-rule="evenodd" stroke="none"/>
    </g>
    <g id="font_______d0">
      <path d="M12.4 -24.2 L12.4 -24.2 Q14.4 -24.2 15.8 -22.8 18.4 -20.2 18.4 -14.6 18.4 -8.4 15.8 -5.8 14.0 -4.0 12.2 -4.0 10.0 -4.0 8.6 -5.4 6.4 -7.6 6.4 -14.2 6.4 -20.0 9.0 -22.6 10.6 -24.2 12.4 -24.2 M18.2 -4.4 L18.2 -4.4 18.2 -0.2 22.4 -0.2 22.4 -39.4 18.2 -39.4 18.2 -24.8 Q15.5 -27.8 12.0 -27.8 8.6 -27.8 5.8 -25.0 2.0 -21.2 2.0 -14.6 2.0 -6.6 5.4 -3.2 8.2 -0.2 11.2 -0.2 15.1 -0.2 18.2 -4.4" fill-rule="evenodd" stroke="none"/>
    </g>
  </defs>
</svg>
