<?xml version="1.0" encoding="UTF-8" standalone="no"?>
<svg xmlns:xlink="http://www.w3.org/1999/xlink" height="433.1px" width="327.95px" xmlns="http://www.w3.org/2000/svg">
  <g transform="matrix(1.0, 0.0, 0.0, 1.0, 164.0, 433.1)">
    <use height="36.0" transform="matrix(1.0, 0.0, 0.0, 1.0, -80.8, -36.0)" width="159.0" xlink:href="#shape0"/>
    <use height="96.65" transform="matrix(1.0, 0.0, 0.0, 1.0, -28.4, -108.0)" width="54.2" xlink:href="#shape1"/>
    <use height="37.0" transform="matrix(1.0, 0.0, 0.0, 1.0, -93.9, -94.35)" width="185.25" xlink:href="#shape2"/>
    <use height="16.45" transform="matrix(1.0, 0.0, 0.0, 1.0, -75.4, -83.5)" width="155.1" xlink:href="#text0"/>
    <use height="223.45" transform="matrix(1.0, 0.0, 0.0, 1.0, -141.75, -321.75)" width="285.3" xlink:href="#shape3"/>
    <use height="265.8" transform="matrix(0.781, 0.0, 0.0, 0.781, -129.4109, -306.0109)" width="333.75" xlink:href="#shape4"/>
    <use height="59.15" transform="matrix(1.0, 0.0, 0.0, 1.0, -30.4, -205.55)" width="57.15" xlink:href="#shape5"/>
  </g>
  <defs>
    <g id="shape0" transform="matrix(1.0, 0.0, 0.0, 1.0, 0.0, 0.0)">
      <path d="M135.7 30.75 Q113.3 35.8 79.5 36.0 45.7 35.8 23.3 30.75 0.85 25.65 0.0 18.0 0.85 10.35 23.3 5.25 45.7 0.2 79.5 0.0 113.3 0.2 135.7 5.25 158.15 10.35 159.0 18.0 158.15 25.65 135.7 30.75" fill="#000000" fill-opacity="0.39607844" fill-rule="evenodd" stroke="none"/>
    </g>
    <g id="shape1" transform="matrix(1.0, 0.0, 0.0, 1.0, 0.0, 0.0)">
      <path d="M5.85 93.35 Q-0.15 90.4 0.0 90.0 L0.0 0.0 54.2 0.0 54.2 90.0 Q54.15 90.4 46.95 93.35 39.7 96.25 25.65 96.65 11.8 96.25 5.85 93.35" fill="url(#gradient0)" fill-rule="evenodd" stroke="none"/>
    </g>
    <linearGradient gradientTransform="matrix(0.0303, 0.0, 0.0, 0.0303, 25.7, 48.35)" gradientUnits="userSpaceOnUse" id="gradient0" spreadMethod="pad" x1="-819.2" x2="819.2">
      <stop offset="0.0" stop-color="#565656"/>
      <stop offset="0.403921568627451" stop-color="#9a9999"/>
      <stop offset="0.592156862745098" stop-color="#dbdbda"/>
      <stop offset="0.7803921568627451" stop-color="#9b9a9a"/>
      <stop offset="1.0" stop-color="#151213"/>
    </linearGradient>
    <g id="shape2" transform="matrix(1.0, 0.0, 0.0, 1.0, -0.05, 0.0)">
      <path d="M185.25 8.2 L185.3 8.25 185.25 8.25 185.25 8.2 M1.9 5.2 L2.3 2.85 18.75 2.05 59.05 0.7 Q83.4 0.05 109.4 0.3 115.1 0.55 118.85 1.6 122.65 2.7 128.15 3.0 L129.3 1.5 Q130.05 0.2 130.5 0.0 160.7 0.5 181.5 3.85 L183.45 6.1 103.3 3.5 Q60.0 3.6 6.5 5.1 L1.9 5.2 M176.25 8.0 L176.45 8.4 177.65 11.45 178.5 13.65 Q179.3 12.8 179.7 10.9 179.7 9.8 179.25 9.1 L179.9 9.55 Q180.65 10.3 180.7 11.75 179.85 15.7 177.15 15.05 175.8 14.75 175.1 13.85 L176.15 14.2 177.35 14.25 176.45 12.35 174.9 8.8 174.8 8.5 174.95 8.35 Q175.75 7.8 176.25 8.0 M178.25 27.3 L179.85 27.15 Q180.5 27.3 181.25 27.95 183.6 31.2 181.35 32.8 180.2 33.6 179.1 33.5 L180.8 32.15 178.8 31.55 175.1 30.4 175.2 29.1 175.2 29.0 175.25 28.7 175.4 28.75 175.85 28.9 178.95 30.05 181.1 30.85 Q181.0 29.65 179.9 28.15 179.05 27.45 178.25 27.3 M9.35 6.95 L10.7 10.45 11.7 12.9 Q12.6 11.95 13.05 9.85 13.05 8.55 12.5 7.75 13.85 8.35 14.15 10.05 L13.75 12.35 Q12.6 15.1 10.15 14.55 8.75 14.25 8.0 13.4 L7.85 13.2 9.0 13.6 10.35 13.65 9.35 11.4 7.6 7.45 8.75 6.6 9.2 6.55 9.35 6.95 M9.4 25.3 Q11.0 24.35 12.9 25.8 15.0 28.35 14.35 30.1 L13.4 31.3 Q12.2 32.25 10.95 32.25 L12.75 30.6 10.4 30.05 6.2 29.05 6.15 27.55 6.15 27.1 6.35 27.15 6.9 27.35 10.45 28.4 12.95 29.1 Q12.75 27.8 11.35 26.15 10.35 25.35 9.4 25.3" fill="#47525f" fill-rule="evenodd" stroke="none"/>
      <path d="M0.05 36.7 L0.75 22.9 Q1.05 14.95 1.6 7.0 L1.9 5.2 6.5 5.1 3.2 8.3 1.95 36.45 0.05 36.7" fill="#cdcdcd" fill-rule="evenodd" stroke="none"/>
      <path d="M13.75 12.35 L14.15 10.05 26.45 10.0 13.75 12.35 M8.0 13.4 L7.0 13.55 7.2 26.2 6.35 27.15 6.15 27.1 6.15 27.55 Q5.15 29.5 6.75 31.55 8.95 33.2 10.95 32.25 12.2 32.25 13.4 31.3 L14.35 30.1 16.45 30.2 36.65 31.3 56.5 32.6 Q50.4 32.9 38.0 32.9 L15.1 32.75 3.85 32.6 5.25 10.05 6.0 10.05 Q6.15 12.3 7.85 13.2 L8.0 13.4" fill="#848484" fill-rule="evenodd" stroke="none"/>
      <path d="M175.1 13.85 Q175.8 14.75 177.15 15.05 179.85 15.7 180.7 11.75 180.65 10.3 179.9 9.55 L180.85 9.65 179.85 27.15 178.25 27.3 177.7 27.3 177.8 15.2 160.95 13.3 Q144.35 11.4 115.0 6.95 144.55 7.2 162.45 8.35 L174.1 9.15 Q173.65 9.7 173.4 10.6 173.45 12.95 175.1 13.85 M175.3 32.3 L137.05 30.55 175.2 29.0 175.2 29.1 Q174.3 30.55 175.3 32.3" fill="#a09fa0" fill-rule="evenodd" stroke="none"/>
      <path d="M176.45 8.4 L176.25 8.0 176.9 7.95 Q178.55 8.05 179.25 9.1 179.7 9.8 179.7 10.9 179.3 12.8 178.5 13.65 L177.65 11.45 178.05 10.25 Q178.0 8.55 176.45 8.4 M174.8 8.5 L174.9 8.8 Q174.35 9.2 174.15 10.05 174.2 11.9 175.85 12.3 L176.45 12.35 177.35 14.25 176.15 14.2 175.1 13.85 Q173.45 12.95 173.4 10.6 173.65 9.7 174.1 9.15 L174.8 8.5 M177.7 27.3 L178.25 27.3 Q179.05 27.45 179.9 28.15 181.0 29.65 181.1 30.85 L178.95 30.05 178.3 28.9 Q177.0 27.8 175.85 28.9 L175.4 28.75 175.8 28.3 Q176.7 27.35 177.7 27.3 M179.1 33.5 Q177.3 34.2 175.5 32.65 L175.3 32.3 Q174.3 30.55 175.2 29.1 L175.1 30.4 Q175.25 32.1 176.95 32.35 178.0 32.25 178.8 31.55 L180.8 32.15 179.1 33.5 M10.7 10.45 L11.2 9.05 Q11.15 7.15 9.35 6.95 L9.2 6.55 9.9 6.5 Q11.75 6.6 12.5 7.75 13.05 8.55 13.05 9.85 12.6 11.95 11.7 12.9 L10.7 10.45 M7.2 26.2 Q8.2 25.2 9.4 25.3 10.35 25.35 11.35 26.15 12.75 27.8 12.95 29.1 L10.45 28.4 Q9.75 26.65 8.05 26.6 L6.9 27.35 6.35 27.15 7.2 26.2 M6.0 10.05 L5.95 9.55 Q6.6 7.0 8.75 6.6 L7.6 7.45 Q7.0 7.9 6.75 8.85 6.8 10.95 8.7 11.35 L9.35 11.4 10.35 13.65 9.0 13.6 7.85 13.2 Q6.15 12.3 6.0 10.05 M6.15 27.55 L6.2 29.05 Q6.45 30.9 8.2 31.1 9.7 31.2 10.4 30.05 L12.75 30.6 10.95 32.25 Q8.95 33.2 6.75 31.55 5.15 29.5 6.15 27.55" fill="#9c9c9c" fill-rule="evenodd" stroke="none"/>
      <path d="M174.9 8.8 L176.45 12.35 175.85 12.3 Q174.2 11.9 174.15 10.05 174.35 9.2 174.9 8.8 M177.65 11.45 L176.45 8.4 Q178.0 8.55 178.05 10.25 L177.65 11.45 M175.85 28.9 Q177.0 27.8 178.3 28.9 L178.95 30.05 175.85 28.9 M175.1 30.4 L178.8 31.55 Q178.0 32.25 176.95 32.35 175.25 32.1 175.1 30.4 M9.35 6.95 Q11.15 7.15 11.2 9.05 L10.7 10.45 9.35 6.95 M9.35 11.4 L8.7 11.35 Q6.8 10.95 6.75 8.85 7.0 7.9 7.6 7.45 L9.35 11.4 M10.45 28.4 L6.9 27.35 8.05 26.6 Q9.75 26.65 10.45 28.4 M6.2 29.05 L10.4 30.05 Q9.7 31.2 8.2 31.1 6.45 30.9 6.2 29.05" fill="#d5d4d4" fill-rule="evenodd" stroke="none"/>
      <path d="M183.45 6.1 L185.3 6.25 185.25 8.2 185.25 8.25 185.1 13.45 184.65 27.3 184.3 36.25 Q157.35 34.75 133.85 35.55 L89.2 37.0 Q65.15 37.15 43.55 35.85 22.0 34.5 0.05 36.75 L0.05 36.7 1.95 36.45 3.2 8.3 6.5 5.1 Q60.0 3.6 103.3 3.5 L183.45 6.1 M176.25 8.0 Q175.75 7.8 174.95 8.35 L174.8 8.5 174.1 9.15 162.45 8.35 Q144.55 7.2 115.0 6.95 144.35 11.4 160.95 13.3 L177.8 15.2 177.7 27.3 Q176.7 27.35 175.8 28.3 L175.4 28.75 175.25 28.7 175.2 29.0 137.05 30.55 175.3 32.3 175.5 32.65 Q177.3 34.2 179.1 33.5 180.2 33.6 181.35 32.8 183.6 31.2 181.25 27.95 180.5 27.3 179.85 27.15 L180.85 9.65 179.9 9.55 179.25 9.1 Q178.55 8.05 176.9 7.95 L176.25 8.0 M12.5 7.75 Q11.75 6.6 9.9 6.5 L9.2 6.55 8.75 6.6 Q6.6 7.0 5.95 9.55 L6.0 10.05 5.25 10.05 3.85 32.6 15.1 32.75 38.0 32.9 Q50.4 32.9 56.5 32.6 L36.65 31.3 16.45 30.2 14.35 30.1 Q15.0 28.35 12.9 25.8 11.0 24.35 9.4 25.3 8.2 25.2 7.2 26.2 L7.0 13.55 8.0 13.4 Q8.75 14.25 10.15 14.55 12.6 15.1 13.75 12.35 L26.45 10.0 14.15 10.05 Q13.85 8.35 12.5 7.75" fill="url(#gradient1)" fill-rule="evenodd" stroke="none"/>
    </g>
    <linearGradient gradientTransform="matrix(0.1131, 0.0, 0.0, 0.0204, 92.65, 20.25)" gradientUnits="userSpaceOnUse" id="gradient1" spreadMethod="pad" x1="-819.2" x2="819.2">
      <stop offset="0.0" stop-color="#9a9a9a"/>
      <stop offset="1.0" stop-color="#ffffff"/>
    </linearGradient>
    <g id="text0" transform="matrix(1.0, 0.0, 0.0, 1.0, -1.3, -5.65)">
      <g transform="matrix(1.0, 0.0, 0.0, 1.0, 0.0, 0.0)">
        <use fill="#000000" height="16.45" transform="matrix(0.5078, 0.0, 0.0, 0.5078, 0.0, 22.0)" width="155.1" xlink:href="#font_______W7_B0"/>
        <use fill="#000000" height="16.45" transform="matrix(0.5078, 0.0, 0.0, 0.5078, 17.25, 22.0)" width="155.1" xlink:href="#font_______W7_o0"/>
        <use fill="#000000" height="16.45" transform="matrix(0.5078, 0.0, 0.0, 0.5078, 30.2, 22.0)" width="155.1" xlink:href="#font_______W7_t0"/>
        <use fill="#000000" height="16.45" transform="matrix(0.5078, 0.0, 0.0, 0.5078, 41.55, 22.0)" width="155.1" xlink:href="#font_______W7_t0"/>
        <use fill="#000000" height="16.45" transform="matrix(0.5078, 0.0, 0.0, 0.5078, 52.9, 22.0)" width="155.1" xlink:href="#font_______W7_o0"/>
        <use fill="#000000" height="16.45" transform="matrix(0.5078, 0.0, 0.0, 0.5078, 65.9, 22.0)" width="155.1" xlink:href="#font_______W7_m0"/>
        <use fill="#000000" height="16.45" transform="matrix(0.5078, 0.0, 0.0, 0.5078, 83.9, 22.0)" width="155.1" xlink:href="#font_______W7_f0"/>
        <use fill="#000000" height="16.45" transform="matrix(0.5078, 0.0, 0.0, 0.5078, 92.35, 22.0)" width="155.1" xlink:href="#font_______W7_e0"/>
        <use fill="#000000" height="16.45" transform="matrix(0.5078, 0.0, 0.0, 0.5078, 105.9, 22.0)" width="155.1" xlink:href="#font_______W7_e0"/>
        <use fill="#000000" height="16.45" transform="matrix(0.5078, 0.0, 0.0, 0.5078, 119.45, 22.0)" width="155.1" xlink:href="#font_______W7_d0"/>
        <use fill="#000000" height="16.45" transform="matrix(0.5078, 0.0, 0.0, 0.5078, 133.55, 22.0)" width="155.1" xlink:href="#font_______W7_e0"/>
        <use fill="#000000" height="16.45" transform="matrix(0.5078, 0.0, 0.0, 0.5078, 147.1, 22.0)" width="155.1" xlink:href="#font_______W7_r0"/>
      </g>
    </g>
    <g id="font_______W7_B0">
      <path d="M25.75 -11.3 L25.75 -11.3 Q25.75 -8.4 21.9 -8.4 18.5 -8.4 14.4 -12.15 L12.5 -7.75 11.95 -13.45 Q15.45 -15.85 18.95 -15.85 21.25 -15.85 23.3 -14.7 25.75 -13.4 25.75 -11.3 M23.15 -23.7 L23.15 -23.7 Q23.15 -22.05 21.2 -20.35 L19.0 -20.45 Q15.05 -20.45 11.45 -18.65 L10.85 -24.45 Q15.3 -26.5 18.75 -26.5 L21.55 -25.95 Q23.15 -25.2 23.15 -23.7 M33.9 -10.25 L33.9 -10.25 Q33.9 -14.55 29.85 -17.3 32.05 -20.45 32.05 -23.5 32.05 -27.75 28.35 -29.85 25.45 -31.6 20.9 -31.6 14.3 -31.6 10.4 -29.6 L10.2 -31.55 5.3 -32.15 2.55 0.05 13.15 -1.1 13.05 -2.3 Q17.4 -0.6 21.5 -0.6 26.1 -0.6 29.75 -3.05 33.9 -5.85 33.9 -10.25" fill-rule="evenodd" stroke="none"/>
    </g>
    <g id="font_______W7_o0">
      <path d="M15.8 -13.5 L15.8 -13.5 Q16.45 -11.85 16.45 -10.4 16.45 -6.85 12.35 -6.85 10.6 -6.85 9.35 -8.05 8.15 -9.35 8.15 -11.05 8.15 -13.25 9.8 -14.6 11.4 -16.0 13.7 -16.0 16.1 -16.0 18.3 -14.3 L15.8 -13.5 M25.7 -11.4 L25.7 -11.4 Q25.7 -13.8 24.75 -16.35 L21.25 -15.25 22.7 -17.2 Q18.35 -21.45 13.15 -21.45 8.45 -21.45 5.1 -18.2 1.8 -14.95 1.8 -10.3 1.8 -5.5 5.4 -2.65 8.65 0.05 13.65 0.05 18.75 0.05 22.2 -3.2 25.7 -6.4 25.7 -11.4" fill-rule="evenodd" stroke="none"/>
    </g>
    <g id="font_______W7_t0">
      <path d="M18.7 -12.2 L18.7 -12.2 Q17.0 -9.35 14.9 -9.35 11.95 -9.35 11.95 -15.4 L21.65 -15.4 20.1 -22.55 12.4 -21.45 Q12.75 -24.2 13.6 -27.95 L8.95 -28.85 Q7.75 -24.65 7.1 -20.75 L0.75 -19.9 1.75 -15.4 6.55 -15.4 6.5 -12.55 Q6.5 -6.8 7.75 -4.05 9.5 0.05 14.55 0.05 19.1 0.05 23.25 -4.15 L18.7 -12.2" fill-rule="evenodd" stroke="none"/>
    </g>
    <g id="font_______W7_m0">
      <path d="M35.35 -9.0 L35.35 -9.0 Q35.35 -21.45 27.8 -21.45 24.2 -21.45 21.15 -18.8 19.2 -21.45 15.65 -21.45 12.4 -21.45 9.45 -19.2 L9.25 -20.75 4.35 -21.45 2.05 0.05 11.95 -1.4 10.25 -13.85 Q12.25 -15.8 13.75 -15.8 16.4 -15.8 16.4 -11.2 16.4 -8.95 15.2 -5.8 L12.95 -0.75 22.1 0.1 Q23.3 -4.75 23.3 -9.55 23.3 -12.35 22.95 -14.3 24.5 -15.7 25.75 -15.7 28.25 -15.7 28.25 -11.2 28.25 -7.95 25.1 -0.65 L34.25 0.2 Q35.35 -4.25 35.35 -9.0" fill-rule="evenodd" stroke="none"/>
    </g>
    <g id="font_______W7_f0">
      <path d="M16.3 -23.5 L16.3 -23.5 11.45 -22.7 Q11.8 -25.5 12.65 -26.6 13.65 -27.85 16.3 -27.85 L17.0 -27.85 16.25 -32.0 14.1 -32.15 Q5.9 -32.15 5.05 -21.65 L1.3 -20.95 2.15 -16.7 4.55 -16.7 Q4.1 -5.65 4.1 -0.95 L13.95 0.05 Q11.85 -9.65 11.45 -16.65 L17.3 -16.6 16.3 -23.5" fill-rule="evenodd" stroke="none"/>
    </g>
    <g id="font_______W7_e0">
      <path d="M19.45 -9.9 L19.45 -9.9 Q16.75 -7.55 13.6 -7.55 10.45 -7.55 9.15 -9.9 L19.45 -9.9 M9.0 -13.4 L9.0 -13.4 Q9.7 -14.95 11.5 -15.95 13.2 -16.8 15.1 -16.8 18.05 -16.8 19.65 -14.35 L9.0 -13.4 M23.25 -9.9 L23.25 -9.9 24.3 -9.9 26.7 -12.6 Q25.85 -16.7 22.9 -19.1 19.9 -21.45 15.15 -21.45 9.65 -21.45 5.9 -18.65 1.8 -15.6 1.8 -10.4 1.8 -5.35 5.8 -2.5 9.3 0.05 14.6 0.05 22.45 0.05 27.15 -4.25 L23.25 -9.9" fill-rule="evenodd" stroke="none"/>
    </g>
    <g id="font_______W7_d0">
      <path d="M18.35 -8.95 L18.35 -8.95 16.8 -11.9 Q14.75 -9.45 12.45 -9.45 10.9 -9.45 10.0 -10.4 9.1 -11.4 9.1 -12.95 9.1 -14.5 10.7 -15.6 12.15 -16.5 13.7 -16.5 16.6 -16.5 18.8 -14.55 L18.35 -8.95 M24.9 -31.55 L24.9 -31.55 20.15 -32.2 19.15 -19.55 Q16.05 -21.45 12.65 -21.45 8.15 -21.45 4.95 -18.25 1.8 -15.0 1.8 -10.5 1.8 -6.05 4.6 -3.05 7.4 0.05 11.85 0.05 14.65 0.05 17.7 -1.5 L17.6 0.0 27.65 -1.45 24.9 -31.55" fill-rule="evenodd" stroke="none"/>
    </g>
    <g id="font_______W7_r0">
      <path d="M18.3 -20.6 L18.3 -20.6 Q16.55 -21.45 14.75 -21.45 11.5 -21.45 8.7 -18.65 L8.45 -20.75 4.45 -21.45 2.55 0.05 10.65 -1.4 9.3 -12.8 Q10.55 -14.85 12.3 -14.85 13.25 -14.85 14.55 -13.85 L16.55 -12.05 18.3 -20.6" fill-rule="evenodd" stroke="none"/>
    </g>
    <g id="shape3" transform="matrix(1.0, 0.0, 0.0, 1.0, -42.2, -62.85)">
      <path d="M309.6 215.8 L310.1 217.0 310.55 217.55 Q311.5 218.35 312.6 218.35 315.65 218.1 315.7 215.05 316.1 216.1 315.4 217.1 311.55 222.7 309.6 215.8 M150.55 284.25 L304.1 284.25 318.4 272.75 323.1 227.1 317.4 201.4 316.7 201.7 317.35 201.4 311.35 174.2 264.65 128.35 237.0 119.55 231.5 117.8 216.4 77.5 168.05 70.8 143.3 108.15 113.9 122.45 79.65 158.55 70.55 168.2 45.4 219.0 46.75 263.9 61.0 284.25 150.55 284.25 M320.45 278.0 L305.65 286.3 58.7 286.3 42.2 265.15 44.2 217.85 66.8 165.75 114.3 118.85 Q126.75 111.95 139.3 105.25 139.8 105.0 140.05 104.55 L144.55 97.9 163.9 66.15 164.1 65.8 164.2 65.55 164.45 65.2 165.95 62.85 219.35 73.45 234.65 114.15 274.2 128.4 318.5 177.6 327.5 226.6 320.45 278.0 M212.2 84.15 L212.5 83.9 212.0 84.45 212.2 84.15 M215.45 87.15 Q215.95 91.1 212.55 92.7 L208.4 92.55 208.3 91.0 Q209.4 91.65 210.75 91.65 215.05 91.3 215.45 87.15 M224.65 113.35 Q224.2 119.8 219.35 115.4 218.55 114.75 218.6 113.6 218.65 114.3 219.05 114.9 L219.6 115.45 Q220.45 116.2 221.6 116.2 224.4 115.95 224.65 113.35 M220.05 112.2 L219.85 112.5 220.05 112.2 M98.05 147.45 Q99.9 148.9 101.85 147.65 103.35 146.75 103.2 144.95 103.6 146.25 102.75 147.3 98.8 152.15 97.1 145.7 L97.55 146.9 98.05 147.45 M50.75 221.2 L56.1 215.65 56.95 214.75 56.95 216.3 50.75 222.9 50.7 222.9 50.7 221.25 50.75 221.2 M59.3 218.65 Q59.7 221.05 58.15 222.9 55.65 225.85 52.2 224.0 L52.2 222.55 Q53.3 223.15 54.6 223.2 58.9 222.8 59.3 218.65 M271.45 275.1 L271.45 275.05 276.8 269.5 277.65 268.6 277.65 270.15 271.45 276.75 271.45 275.1 M280.0 272.5 Q280.5 275.85 277.8 277.65 275.5 279.25 272.9 277.85 L272.9 276.4 Q274.0 277.0 275.35 277.05 279.65 276.65 280.0 272.5" fill="#47525f" fill-rule="evenodd" stroke="none"/>
      <path d="M316.7 201.7 L150.55 274.1 150.55 284.25 61.0 284.25 46.75 263.9 45.4 219.0 70.55 168.2 79.65 158.55 237.0 119.55 264.65 128.35 311.35 174.2 317.35 201.4 316.7 201.7 M213.75 85.35 L214.55 84.5 Q215.05 87.4 212.95 89.5 211.0 91.3 208.3 91.0 L213.75 85.35 M56.6 214.55 Q54.1 213.4 51.9 215.0 49.95 216.35 49.8 218.7 L49.8 220.55 Q49.6 221.1 50.7 222.9 L50.75 222.9 52.2 224.0 Q55.65 225.85 58.15 222.9 59.7 221.05 59.3 218.65 59.35 217.15 58.4 216.0 59.0 219.0 56.8 221.05 54.9 222.8 52.2 222.55 L57.6 216.85 56.95 216.3 56.95 214.75 56.1 215.65 56.6 214.55 M50.5 220.2 L50.7 219.5 50.5 220.2 M50.7 221.15 L50.75 221.2 50.7 221.25 50.7 221.15 M278.35 270.7 L279.1 269.85 Q279.5 275.3 274.15 276.15 L272.9 276.4 278.35 270.7" fill="#bab9ba" fill-rule="evenodd" stroke="none"/>
      <path d="M314.1 212.75 L312.05 212.55 Q309.6 213.25 309.6 215.8 311.55 222.7 315.4 217.1 316.1 216.1 315.7 215.05 315.65 214.25 315.1 213.6 L314.1 212.75 M316.7 201.7 L317.4 201.4 323.1 227.1 318.4 272.75 304.1 284.25 150.55 284.25 150.55 274.1 316.7 201.7 M79.65 158.55 L113.9 122.45 143.3 108.15 168.05 70.8 216.4 77.5 231.5 117.8 237.0 119.55 79.65 158.55 M212.2 84.15 L212.8 83.05 Q211.7 82.55 210.6 82.5 206.5 83.1 205.95 87.2 L205.95 89.0 Q205.8 89.6 206.9 91.4 L208.4 92.55 212.55 92.7 Q215.95 91.1 215.45 87.15 L214.55 84.5 213.75 85.35 213.1 84.85 213.1 83.25 212.5 83.9 212.2 84.15 M224.05 111.45 Q223.65 110.95 223.1 110.65 L222.6 110.75 223.1 110.6 Q219.3 109.65 218.6 113.6 218.55 114.75 219.35 115.4 224.2 119.8 224.65 113.35 L224.7 112.95 224.05 111.45 M220.1 112.15 L220.05 112.2 220.1 112.15 M103.2 144.95 Q103.1 144.1 102.55 143.45 L101.6 142.65 Q100.65 142.1 99.55 142.4 97.05 143.1 97.1 145.7 98.8 152.15 102.75 147.3 103.6 146.25 103.2 144.95 M271.45 275.1 L271.45 275.0 271.45 275.05 271.45 275.1 M270.5 272.55 L270.5 274.4 Q270.35 274.95 271.45 276.75 L272.9 277.85 Q275.5 279.25 277.8 277.65 280.5 275.85 280.0 272.5 L279.1 269.85 278.35 270.7 277.65 270.15 277.65 268.6 276.8 269.5 277.3 268.4 275.15 267.85 Q271.1 268.45 270.5 272.55 M271.45 273.35 L271.25 274.05 271.45 273.35" fill="#9c9c9c" fill-rule="evenodd" stroke="none"/>
      <path d="M213.1 84.85 L213.75 85.35 208.3 91.0 208.4 92.55 206.9 91.4 213.1 84.85 M56.95 216.3 L57.6 216.85 52.2 222.55 52.2 224.0 50.75 222.9 56.95 216.3 M278.35 270.7 L272.9 276.4 272.9 277.85 271.45 276.75 277.65 270.15 278.35 270.7" fill="#57565b" fill-rule="evenodd" stroke="none"/>
      <path d="M206.9 91.4 Q205.8 89.6 205.95 89.0 L205.95 87.2 Q206.0 88.3 206.6 89.35 L206.9 89.7 206.9 91.4 M49.8 218.7 Q49.85 219.85 50.45 220.85 L50.5 220.2 50.7 221.15 50.7 221.25 50.7 222.9 Q49.6 221.1 49.8 220.55 L49.8 218.7 M271.45 275.0 L271.45 275.1 271.45 276.75 Q270.35 274.95 270.5 274.4 L270.5 272.55 Q270.55 273.7 271.15 274.7 L271.25 274.05 271.45 275.0" fill="#79818b" fill-rule="evenodd" stroke="none"/>
      <path d="M310.1 217.0 Q310.1 215.25 311.25 214.0 312.45 212.75 314.1 212.75 L315.1 213.6 Q315.1 217.2 311.35 217.65 L310.55 217.55 310.1 217.0 M212.8 83.05 L212.2 84.15 212.0 84.45 206.9 89.7 206.6 89.35 Q207.05 86.55 209.45 84.85 211.0 83.8 212.8 83.05 M222.6 110.75 L223.1 110.65 Q223.65 110.95 224.05 111.45 224.25 112.7 223.55 113.65 221.9 115.8 219.6 115.45 L219.05 114.9 219.85 112.5 220.05 112.2 220.1 112.15 222.4 110.75 222.55 110.75 222.6 110.75 M102.55 143.45 L102.3 144.9 Q101.3 147.8 98.05 147.45 L97.55 146.9 Q97.55 145.15 98.75 143.9 99.9 142.65 101.6 142.65 L102.55 143.45 M50.7 219.5 Q52.45 216.35 55.8 214.9 L56.6 214.55 56.1 215.65 50.75 221.2 50.7 221.15 50.5 220.2 50.7 219.5 M271.45 275.05 L271.45 275.0 271.25 274.05 271.45 273.35 Q272.95 270.7 275.7 269.25 L277.3 268.4 276.8 269.5 271.45 275.05" fill="#d0cfd0" fill-rule="evenodd" stroke="none"/>
      <path d="M310.1 217.0 L309.6 215.8 Q309.6 213.25 312.05 212.55 L314.1 212.75 Q312.45 212.75 311.25 214.0 310.1 215.25 310.1 217.0 M205.95 87.2 Q206.5 83.1 210.6 82.5 211.7 82.55 212.8 83.05 211.0 83.8 209.45 84.85 207.05 86.55 206.6 89.35 206.0 88.3 205.95 87.2 M218.6 113.6 Q219.3 109.65 223.1 110.6 L222.6 110.75 222.55 110.75 222.4 110.75 220.1 112.15 220.05 112.2 219.85 112.5 219.05 114.9 Q218.65 114.3 218.6 113.6 M101.6 142.65 Q99.9 142.65 98.75 143.9 97.55 145.15 97.55 146.9 L97.1 145.7 Q97.05 143.1 99.55 142.4 100.65 142.1 101.6 142.65 M56.6 214.55 L55.8 214.9 Q52.45 216.35 50.7 219.5 L50.5 220.2 50.45 220.85 Q49.85 219.85 49.8 218.7 49.95 216.35 51.9 215.0 54.1 213.4 56.6 214.55 M271.25 274.05 L271.15 274.7 Q270.55 273.7 270.5 272.55 271.1 268.45 275.15 267.85 L277.3 268.4 275.7 269.25 Q272.95 270.7 271.45 273.35 L271.25 274.05" fill="#e9e9eb" fill-rule="evenodd" stroke="none"/>
      <path d="M315.7 215.05 Q315.65 218.1 312.6 218.35 311.5 218.35 310.55 217.55 L311.35 217.65 Q315.1 217.2 315.1 213.6 315.65 214.25 315.7 215.05 M214.55 84.5 L215.45 87.15 Q215.05 91.3 210.75 91.65 209.4 91.65 208.3 91.0 211.0 91.3 212.95 89.5 215.05 87.4 214.55 84.5 M224.05 111.45 L224.7 112.95 224.65 113.35 Q224.4 115.95 221.6 116.2 220.45 116.2 219.6 115.45 221.9 115.8 223.55 113.65 224.25 112.7 224.05 111.45 M98.05 147.45 Q101.3 147.8 102.3 144.9 L102.55 143.45 Q103.1 144.1 103.2 144.95 103.35 146.75 101.85 147.65 99.9 148.9 98.05 147.45 M52.2 222.55 Q54.9 222.8 56.8 221.05 59.0 219.0 58.4 216.0 59.35 217.15 59.3 218.65 58.9 222.8 54.6 223.2 53.3 223.15 52.2 222.55 M272.9 276.4 L274.15 276.15 Q279.5 275.3 279.1 269.85 L280.0 272.5 Q279.65 276.65 275.35 277.05 274.0 277.0 272.9 276.4" fill="#b0aeb3" fill-rule="evenodd" stroke="none"/>
    </g>
    <g id="shape4" transform="matrix(1.0, 0.0, 0.0, 1.0, -0.05, -0.05)">
      <path d="M269.25 198.1 L270.2 204.7 271.05 264.35 270.45 265.65 269.55 265.85 59.9 265.2 59.15 265.0 58.45 264.05 61.15 201.15 Q55.6 216.8 47.7 232.05 L44.4 231.9 Q44.75 231.95 45.05 234.9 44.55 241.25 42.65 246.85 L39.55 247.85 39.3 258.05 30.0 263.2 29.35 262.8 2.15 244.15 6.7 229.15 0.9 228.65 0.05 227.2 1.4 184.1 1.5 183.6 24.0 125.3 24.3 124.85 70.05 73.15 Q84.15 64.5 107.95 56.55 L107.95 56.6 110.4 55.15 148.85 0.7 Q149.4 0.35 150.05 0.35 167.25 0.05 184.45 0.05 L214.65 52.9 Q239.05 60.8 262.45 70.45 L295.6 102.9 323.0 149.6 323.2 150.15 333.8 225.3 333.3 226.55 327.35 227.25 331.85 242.85 304.2 261.35 295.35 256.9 294.7 246.35 291.2 244.5 290.75 243.35 Q290.0 240.75 289.7 238.2 L289.55 235.35 Q289.6 232.1 290.65 228.85 L291.45 228.0 291.85 227.85 292.0 227.5 291.85 227.15 291.45 227.0 291.4 226.9 291.55 226.35 330.6 224.1 320.3 150.9 293.35 104.9 260.6 72.8 239.2 64.15 259.55 134.05 268.5 193.4 266.4 193.5 266.2 194.05 Q266.15 194.6 266.45 195.0 267.7 196.65 269.25 198.1 M328.75 241.65 L324.25 227.35 293.6 228.75 291.45 233.55 293.75 242.8 295.95 243.35 305.95 240.3 306.3 241.85 297.55 245.95 297.55 254.6 303.95 258.15 328.75 241.65 M183.4 18.1 L183.65 17.2 Q184.3 16.65 185.0 17.2 L185.3 17.5 Q186.45 26.2 180.85 32.9 178.9 32.85 177.1 31.7 175.15 30.4 175.95 28.6 L176.35 28.4 180.1 30.6 Q184.05 25.6 183.4 18.1 M167.9 35.95 L172.15 35.55 173.1 34.25 170.85 29.05 170.9 27.95 171.9 27.55 172.1 27.75 Q175.2 31.05 174.75 35.5 L175.6 35.45 177.6 35.4 Q182.75 35.45 187.45 38.1 197.9 43.85 207.2 51.7 L207.25 52.6 Q199.15 58.45 189.2 60.8 183.2 62.3 177.2 62.75 L170.15 62.8 166.6 62.55 165.9 62.55 154.95 61.9 144.1 60.45 133.45 58.1 Q130.7 57.3 128.25 55.7 L125.1 53.45 Q123.15 53.3 123.4 51.3 L123.4 50.2 Q134.4 42.85 146.8 39.25 L157.2 37.0 159.25 36.7 Q157.55 35.3 157.55 33.0 L158.45 32.1 158.55 32.15 Q159.7 32.85 160.2 34.6 L160.6 35.0 Q164.25 36.0 167.9 35.95 M173.8 48.3 Q158.25 47.1 142.9 49.5 135.05 50.8 127.4 52.8 132.7 56.75 139.35 57.7 157.95 60.7 176.8 60.75 L186.8 59.7 Q195.65 57.7 203.35 52.9 190.55 49.7 177.55 48.65 L173.8 48.3 M169.8 37.7 Q147.25 38.8 127.45 49.7 138.2 46.8 149.05 45.75 175.4 43.3 201.25 49.35 L197.35 46.3 Q188.4 38.85 177.5 37.5 L169.8 37.7 M198.55 40.3 L206.2 44.0 182.7 2.8 150.8 3.0 113.65 56.0 Q136.35 65.85 160.55 70.9 167.2 72.3 173.55 70.35 183.45 67.4 192.85 63.5 202.3 59.5 210.95 54.0 L211.1 53.85 207.3 46.85 197.45 41.25 198.55 40.3 M190.35 93.5 L216.3 57.4 214.65 55.95 189.6 67.6 186.35 91.15 190.35 93.5 M185.95 94.35 L185.0 99.65 188.6 95.95 185.95 94.35 M173.9 87.85 L182.7 96.15 186.45 68.85 173.65 73.4 173.9 87.85 M170.7 74.2 L166.4 74.85 160.15 73.95 160.65 86.0 171.2 85.45 170.7 74.2 M231.5 61.05 L229.4 86.9 216.9 92.3 222.0 95.5 226.95 98.8 Q227.55 99.15 227.8 100.0 L227.6 100.75 142.8 165.05 137.55 260.9 137.45 261.5 137.0 261.9 136.8 262.1 Q135.8 262.45 135.15 261.85 L134.8 261.35 134.55 260.75 139.85 164.2 156.15 141.1 110.6 103.7 110.1 102.95 110.15 102.05 116.55 97.3 111.75 96.2 106.95 95.05 Q101.2 94.15 96.3 92.1 L95.45 62.85 Q88.65 66.65 81.8 70.4 L66.0 157.75 61.45 262.15 268.0 262.8 267.15 204.7 256.6 134.85 235.55 62.7 231.5 61.05 M212.25 91.35 L226.8 85.05 228.55 60.15 219.0 58.8 148.45 157.0 223.6 100.1 212.6 92.65 212.25 91.35 M175.4 114.35 L159.05 127.05 162.35 132.5 175.4 114.35 M183.9 100.75 L170.2 88.5 159.7 89.05 143.55 100.65 143.15 100.5 141.2 92.2 137.0 96.5 144.55 107.25 170.5 114.35 183.9 100.75 M147.25 18.0 L148.1 17.35 149.1 17.8 149.2 18.6 Q146.8 27.1 154.4 31.35 L154.7 32.1 153.8 33.1 Q144.6 28.35 147.25 18.0 M122.05 46.15 L131.1 39.9 131.85 40.05 132.25 40.7 132.1 41.45 122.6 47.3 122.05 46.15 M109.15 58.95 L134.75 94.5 140.7 88.4 138.2 67.95 110.2 58.2 109.15 58.95 M121.4 97.05 L114.05 102.65 157.9 138.7 160.35 135.3 105.95 59.65 98.5 63.65 99.1 90.15 120.95 95.8 121.4 97.05 M157.7 86.85 L157.1 73.2 141.35 68.85 144.75 96.35 157.7 86.85 M72.05 75.35 L26.65 126.6 4.35 184.45 3.05 225.8 46.3 228.95 61.45 192.45 63.0 157.55 78.45 72.15 72.05 75.35 M157.35 124.55 L167.55 116.65 147.4 111.15 157.35 124.55 M40.9 231.6 L9.7 229.35 5.3 243.4 30.1 259.9 36.45 256.4 36.5 247.7 27.8 243.4 28.3 241.9 29.2 241.6 38.15 245.1 40.3 244.55 42.6 235.35 40.9 231.6" fill="#1a1a1a" fill-rule="evenodd" stroke="none"/>
      <path d="M174.45 20.35 L176.2 20.2 Q175.25 21.25 175.15 23.7 175.35 27.65 177.65 28.05 179.95 27.65 180.2 23.7 180.0 20.4 178.4 19.6 L183.4 18.1 Q184.05 25.6 180.1 30.6 L176.35 28.4 175.95 28.6 175.55 28.0 Q173.75 24.45 174.45 20.35 M149.2 18.6 L152.55 19.75 Q155.1 20.65 156.3 20.25 L156.9 21.25 Q156.3 20.65 155.45 20.5 153.15 20.85 152.95 24.85 153.15 28.8 155.45 29.2 L156.35 28.9 155.7 30.85 Q155.6 31.85 154.7 32.1 L154.4 31.35 Q146.8 27.1 149.2 18.6" fill="#ffffff" fill-rule="evenodd" stroke="none"/>
      <path d="M269.25 198.1 Q267.7 196.65 266.45 195.0 266.15 194.6 266.2 194.05 L266.4 193.5 268.5 193.4 278.9 202.85 280.9 226.0 290.0 226.0 291.0 226.55 291.4 226.9 291.45 227.0 291.45 228.0 290.65 228.85 290.0 228.9 280.55 229.0 Q278.65 229.35 278.45 227.6 277.0 215.95 276.05 204.25 L269.25 198.1 M185.3 17.5 L185.0 17.2 Q184.3 16.65 183.65 17.2 L183.4 18.1 178.4 19.6 Q180.0 20.4 180.2 23.7 179.95 27.65 177.65 28.05 175.35 27.65 175.15 23.7 175.25 21.25 176.2 20.2 L174.45 20.35 Q173.35 20.25 172.85 19.75 172.9 18.15 178.2 15.3 183.5 12.4 185.45 13.45 187.8 16.3 185.3 17.5 M147.25 18.0 Q144.05 16.95 146.35 13.9 147.95 12.9 152.4 15.6 156.8 18.3 156.85 19.85 L156.3 20.25 Q155.1 20.65 152.55 19.75 L149.2 18.6 149.1 17.8 148.1 17.35 147.25 18.0 M156.9 21.25 Q157.85 22.3 158.0 24.85 157.8 27.95 156.35 28.9 L155.45 29.2 Q153.15 28.8 152.95 24.85 153.15 20.85 155.45 20.5 156.3 20.65 156.9 21.25" fill="#000000" fill-rule="evenodd" stroke="none"/>
      <path d="M169.8 37.7 L177.5 37.5 Q188.4 38.85 197.35 46.3 L201.25 49.35 Q175.4 43.3 149.05 45.75 138.2 46.8 127.45 49.7 147.25 38.8 169.8 37.7 M173.8 48.3 L177.55 48.65 Q190.55 49.7 203.35 52.9 195.65 57.7 186.8 59.7 L176.8 60.75 Q157.95 60.7 139.35 57.7 132.7 56.75 127.4 52.8 135.05 50.8 142.9 49.5 158.25 47.1 173.8 48.3" fill="#96a0ce" fill-rule="evenodd" stroke="none"/>
      <path d="M185.95 94.35 L188.6 95.95 185.0 99.65 185.95 94.35" fill="#cacfe6" fill-rule="evenodd" stroke="none"/>
      <path d="M268.5 193.4 L259.55 134.05 239.2 64.15 260.6 72.8 293.35 104.9 320.3 150.9 330.6 224.1 291.55 226.35 291.4 226.9 291.0 226.55 290.0 226.0 280.9 226.0 278.9 202.85 268.5 193.4 M175.4 114.35 L162.35 132.5 159.05 127.05 175.4 114.35 M212.25 91.35 L212.6 92.65 223.6 100.1 148.45 157.0 219.0 58.8 228.55 60.15 226.8 85.05 212.25 91.35 M231.5 61.05 L235.55 62.7 256.6 134.85 267.15 204.7 268.0 262.8 61.45 262.15 66.0 157.75 81.8 70.4 Q88.65 66.65 95.45 62.85 L96.3 92.1 Q101.2 94.15 106.95 95.05 L111.75 96.2 116.55 97.3 110.15 102.05 110.1 102.95 110.6 103.7 156.15 141.1 139.85 164.2 134.55 260.75 134.8 261.35 135.15 261.85 Q135.8 262.45 136.8 262.1 L137.0 261.9 137.45 261.5 137.55 260.9 142.8 165.05 227.6 100.75 227.8 100.0 Q227.55 99.15 226.95 98.8 L222.0 95.5 216.9 92.3 229.4 86.9 231.5 61.05 M121.4 97.05 L120.95 95.8 99.1 90.15 98.5 63.65 105.95 59.65 160.35 135.3 157.9 138.7 114.05 102.65 121.4 97.05 M157.35 124.55 L147.4 111.15 167.55 116.65 157.35 124.55 M72.05 75.35 L78.45 72.15 63.0 157.55 61.45 192.45 46.3 228.95 3.05 225.8 4.35 184.45 26.65 126.6 72.05 75.35" fill="#3a3d6a" fill-rule="evenodd" stroke="none"/>
      <path d="M291.45 227.0 L291.85 227.15 292.0 227.5 291.85 227.85 291.45 228.0 291.45 227.0" fill="#003399" fill-rule="evenodd" stroke="none"/>
      <path d="M170.7 74.2 L171.2 85.45 160.65 86.0 160.15 73.95 166.4 74.85 170.7 74.2 M173.9 87.85 L173.65 73.4 186.45 68.85 182.7 96.15 173.9 87.85 M157.7 86.85 L144.75 96.35 141.35 68.85 157.1 73.2 157.7 86.85" fill="#8b3425" fill-rule="evenodd" stroke="none"/>
      <path d="M328.75 241.65 L303.95 258.15 297.55 254.6 297.55 245.95 306.3 241.85 305.95 240.3 295.95 243.35 293.75 242.8 291.45 233.55 293.6 228.75 324.25 227.35 328.75 241.65 M185.3 17.5 Q187.8 16.3 185.45 13.45 183.5 12.4 178.2 15.3 172.9 18.15 172.85 19.75 173.35 20.25 174.45 20.35 173.75 24.45 175.55 28.0 L175.95 28.6 Q175.15 30.4 177.1 31.7 178.9 32.85 180.85 32.9 186.45 26.2 185.3 17.5 M144.1 60.45 L154.95 61.9 165.9 62.55 166.6 62.55 170.15 62.8 177.2 62.75 Q183.2 62.3 189.2 60.8 199.15 58.45 207.25 52.6 L207.2 51.7 Q197.9 43.85 187.45 38.1 182.75 35.45 177.6 35.4 L175.6 35.45 174.75 35.5 Q175.2 31.05 172.1 27.75 L171.9 27.55 170.9 27.95 170.85 29.05 173.1 34.25 172.15 35.55 167.9 35.95 160.85 35.0 160.4 34.6 Q159.9 32.8 158.6 32.1 L158.55 32.15 158.45 32.1 157.55 33.0 Q157.55 35.3 159.25 36.7 L157.2 37.0 146.8 39.25 Q134.4 42.85 123.4 50.2 L123.4 51.3 Q123.15 53.3 125.1 53.45 L128.25 55.7 Q130.7 57.3 133.45 58.1 L133.4 58.35 144.1 60.45 M198.55 40.3 L197.45 41.25 207.3 46.85 211.1 53.85 210.95 54.0 Q202.3 59.5 192.85 63.5 183.45 67.4 173.55 70.35 167.2 72.3 160.55 70.9 136.35 65.85 113.65 56.0 L150.8 3.0 182.7 2.8 206.2 44.0 198.55 40.3 M156.3 20.25 L156.85 19.85 Q156.8 18.3 152.4 15.6 147.95 12.9 146.35 13.9 144.05 16.95 147.25 18.0 144.6 28.35 153.8 33.1 L154.7 32.1 Q155.6 31.85 155.7 30.85 L156.35 28.9 Q157.8 27.95 158.0 24.85 157.85 22.3 156.9 21.25 L156.3 20.25 M122.05 46.15 L122.6 47.3 132.1 41.45 132.25 40.7 131.85 40.05 131.1 39.9 122.05 46.15 M40.9 231.6 L42.6 235.35 40.3 244.55 38.15 245.1 29.2 241.6 28.3 241.9 27.8 243.4 36.5 247.7 36.45 256.4 30.1 259.9 5.3 243.4 9.7 229.35 40.9 231.6" fill="#c2c6de" fill-rule="evenodd" stroke="none"/>
      <path d="M190.35 93.5 L186.35 91.15 189.6 67.6 214.65 55.95 216.3 57.4 190.35 93.5 M183.9 100.75 L170.5 114.35 144.55 107.25 137.0 96.5 141.2 92.2 143.15 100.5 143.55 100.65 159.7 89.05 170.2 88.5 183.9 100.75 M109.15 58.95 L110.2 58.2 138.2 67.95 140.7 88.4 134.75 94.5 109.15 58.95" fill="#d7dcec" fill-rule="evenodd" stroke="none"/>
    </g>
    <g id="shape5" transform="matrix(1.0, 0.0, 0.0, 1.0, -0.05, 0.0)">
      <path d="M40.95 2.45 L41.9 2.8 Q42.4 1.4 44.05 1.25 46.25 1.45 46.45 3.8 L46.45 6.35 48.8 8.45 Q56.9 16.5 57.2 28.65 56.85 40.75 48.8 48.85 42.05 55.65 32.45 56.95 L32.05 57.95 Q31.35 59.0 29.8 59.15 28.3 59.0 27.6 58.05 L27.2 57.2 Q16.0 56.45 8.4 48.85 3.45 43.9 1.4 37.45 -0.45 31.7 0.25 25.75 1.75 13.25 11.8 5.55 L12.4 3.05 Q13.25 0.65 15.6 1.55 16.3 1.85 16.4 2.8 L17.0 2.55 Q21.85 0.45 27.2 0.1 33.95 0.0 40.1 2.5 L40.95 2.45 M40.75 9.5 L41.65 9.15 41.65 3.8 40.95 3.4 Q39.9 3.3 39.45 4.1 L39.5 20.75 40.05 21.3 41.6 21.05 41.65 14.2 41.0 13.95 Q39.6 13.25 39.65 11.65 39.65 10.3 40.75 9.5 M43.6 13.8 L42.65 14.2 Q42.3 22.35 43.9 21.75 L44.95 21.3 44.95 2.65 Q44.35 2.05 43.6 2.4 42.9 2.55 42.75 3.3 L42.65 9.15 43.55 9.5 Q44.2 9.85 44.5 10.65 L44.55 12.55 Q44.25 13.35 43.6 13.8 M42.85 10.1 L41.65 10.1 43.85 12.05 42.85 10.1 M40.75 10.9 L40.5 11.65 Q40.7 13.2 42.15 13.3 L42.65 13.2 40.75 10.9 M33.35 54.6 L33.1 55.4 Q42.4 53.9 48.75 46.85 56.75 37.95 55.55 25.9 54.45 15.35 46.45 8.2 L46.45 9.2 46.45 11.55 Q53.05 18.45 53.3 28.6 53.05 39.1 46.05 46.1 40.85 51.3 33.75 52.75 L33.35 54.6 M34.15 50.65 L34.05 51.35 Q40.4 49.85 45.1 45.15 51.7 38.55 51.95 28.6 51.75 19.75 46.45 13.6 L46.45 14.6 Q46.75 17.8 46.0 20.7 45.25 23.6 42.2 21.75 L41.45 22.0 Q39.2 22.8 38.3 20.55 L33.3 21.2 33.3 23.05 33.95 23.4 Q35.1 23.95 34.9 25.15 L34.35 26.45 32.4 27.25 32.4 29.2 33.85 30.25 33.95 31.8 32.3 32.9 Q34.1 41.75 34.15 50.65 M38.25 4.0 L38.65 3.4 Q29.1 -0.05 19.35 3.1 L19.75 3.6 20.0 4.15 Q29.1 3.05 38.25 4.0 M25.35 51.1 L25.1 48.35 Q25.25 40.65 27.35 32.9 26.65 32.65 26.2 32.25 24.7 30.8 26.4 29.55 L26.9 29.2 26.9 27.25 Q25.3 27.3 24.75 25.95 L24.5 24.95 Q24.55 24.05 25.5 23.4 L26.0 23.05 26.0 21.35 19.95 20.65 Q19.2 22.95 16.85 21.95 L16.1 21.7 Q15.1 23.2 13.3 22.4 12.1 22.0 12.05 20.75 L11.8 13.3 11.8 12.35 Q5.45 18.9 5.2 28.6 5.45 38.55 12.05 45.15 17.6 50.7 25.5 51.75 L25.35 51.1 M16.8 15.6 L16.5 20.75 17.35 21.35 Q18.95 21.55 19.0 19.95 19.1 12.15 18.85 4.35 L18.65 3.7 17.7 3.35 16.6 3.85 16.95 9.95 Q17.9 10.35 18.3 11.4 L18.35 13.15 16.85 14.9 16.8 15.6 M38.2 19.4 L38.2 5.0 Q29.6 4.0 20.9 5.1 L20.0 5.2 20.1 19.4 Q29.1 21.65 38.2 19.4 M33.5 24.4 Q33.3 23.9 32.85 23.9 L27.1 23.4 Q24.95 24.0 26.25 25.85 L26.9 26.45 32.3 26.4 Q33.3 26.4 33.55 25.55 33.7 24.95 33.5 24.4 M27.15 21.35 L27.15 22.95 32.0 22.95 32.0 21.35 27.15 21.35 M15.1 9.8 L15.65 9.7 15.35 3.25 14.95 2.65 14.2 2.25 Q12.95 2.6 12.95 4.0 L13.1 20.6 Q13.1 21.5 14.2 21.7 15.6 21.55 15.55 20.15 L15.3 15.05 Q13.7 14.6 13.35 13.25 L13.3 11.85 Q13.6 10.25 15.1 9.8 M26.35 54.95 L25.85 53.15 Q17.2 52.25 11.1 46.1 3.0 37.75 4.15 26.1 5.05 16.85 11.8 10.5 L11.8 8.1 11.8 7.3 Q2.9 14.65 1.7 25.95 0.55 37.1 7.7 45.9 15.0 54.85 26.6 55.7 L26.35 54.95 M17.25 11.6 L16.6 10.8 15.15 10.8 17.3 13.05 17.25 11.6 M14.45 11.5 L14.2 12.25 Q14.3 13.7 15.85 13.9 L16.6 13.7 14.45 11.5 M27.3 30.4 L26.75 31.15 27.3 32.2 32.6 31.95 32.8 30.9 32.4 30.15 31.05 30.2 27.3 30.4 M31.25 29.1 L31.25 27.25 28.2 27.25 28.3 29.1 31.25 29.1 M32.6 42.15 Q32.15 37.5 31.2 32.9 L28.45 32.9 27.2 39.55 Q26.25 45.2 26.95 51.0 L27.15 52.3 27.15 52.25 Q27.35 49.85 29.75 49.65 31.9 49.85 32.3 51.85 33.05 47.05 32.6 42.15 M30.7 58.1 L32.0 53.55 Q31.35 54.95 29.75 54.85 27.85 54.65 27.35 53.05 L28.65 57.7 30.7 58.1 M29.0 53.7 L29.75 53.95 Q31.9 53.5 31.2 51.5 L29.0 53.7 M29.75 50.6 Q28.25 50.75 28.1 52.25 L28.35 53.05 30.55 50.85 29.75 50.6" fill="#212753" fill-rule="evenodd" stroke="none"/>
      <path d="M40.95 2.45 L40.1 2.5 Q33.95 0.0 27.2 0.1 L29.2 0.0 Q35.6 0.15 40.95 2.45 M46.45 9.2 L46.45 8.2 Q54.45 15.35 55.55 25.9 56.75 37.95 48.75 46.85 42.4 53.9 33.1 55.4 L33.35 54.6 Q44.1 52.5 50.45 43.3 55.05 36.65 54.95 28.6 54.75 17.0 46.45 9.2 M46.45 14.6 L46.45 13.6 Q51.75 19.75 51.95 28.6 51.7 38.55 45.1 45.15 40.4 49.85 34.05 51.35 L34.15 50.65 Q40.2 49.15 44.65 44.7 51.05 38.3 51.3 28.65 51.15 20.45 46.45 14.6 M19.75 3.6 L19.35 3.1 Q29.1 -0.05 38.65 3.4 L38.25 4.0 Q33.8 2.25 28.5 2.1 23.8 2.25 19.75 3.6 M25.35 51.1 L25.5 51.75 Q17.6 50.7 12.05 45.15 5.45 38.55 5.2 28.6 5.45 18.9 11.8 12.35 L11.8 13.3 Q6.1 19.55 5.85 28.65 6.1 38.3 12.5 44.7 17.85 50.0 25.35 51.1 M26.35 54.95 L26.6 55.7 Q15.0 54.85 7.7 45.9 0.55 37.1 1.7 25.95 2.9 14.65 11.8 7.3 L11.8 8.1 Q3.55 15.15 2.3 25.9 1.25 35.3 6.7 43.25 13.85 53.8 26.35 54.95" fill="#514f6f" fill-rule="evenodd" stroke="none"/>
      <path d="M41.0 13.95 L41.65 14.2 41.6 21.05 40.05 21.3 39.5 20.75 39.45 4.1 Q39.9 3.3 40.95 3.4 L41.65 3.8 41.65 9.15 40.75 9.5 40.4 4.85 Q39.7 5.45 39.65 6.45 39.35 12.5 39.85 18.55 39.95 19.55 40.65 19.75 41.55 19.1 41.5 17.7 L41.0 13.95 M43.55 9.5 L42.65 9.15 42.75 3.3 Q42.9 2.55 43.6 2.4 44.35 2.05 44.95 2.65 L44.95 21.3 43.9 21.75 Q42.3 22.35 42.65 14.2 L43.6 13.8 44.0 20.3 44.55 12.55 44.5 10.65 44.25 4.4 43.55 4.3 43.55 9.5 M36.15 9.6 Q34.9 7.5 32.4 7.85 29.75 8.15 27.1 7.8 24.95 7.25 23.1 8.3 20.7 10.35 22.5 12.35 24.25 14.4 26.55 15.0 L31.75 15.4 Q34.7 15.25 36.3 13.5 37.3 11.55 36.15 9.6 M27.5 24.1 L27.45 24.1 Q26.9 24.25 26.9 24.5 26.85 24.85 27.9 25.35 L30.85 25.25 Q31.6 24.85 31.6 24.5 31.5 24.1 30.4 23.85 L27.5 24.1 M27.15 21.35 L32.0 21.35 32.0 22.95 27.15 22.95 27.15 21.35 M33.5 24.4 Q33.7 24.95 33.55 25.55 33.3 26.4 32.3 26.4 L26.9 26.45 26.25 25.85 Q24.95 24.0 27.1 23.4 L32.85 23.9 Q33.3 23.9 33.5 24.4 M38.2 19.4 Q29.1 21.65 20.1 19.4 L20.0 5.2 20.9 5.1 Q29.6 4.0 38.2 5.0 L38.2 19.4 M16.95 9.95 L16.6 3.85 17.7 3.35 18.65 3.7 18.85 4.35 Q19.1 12.15 19.0 19.95 18.95 21.55 17.35 21.35 L16.5 20.75 16.8 15.6 17.85 19.6 18.35 13.15 18.3 11.4 17.45 5.4 16.95 9.95 M15.3 15.05 L15.55 20.15 Q15.6 21.55 14.2 21.7 13.1 21.5 13.1 20.6 L12.95 4.0 Q12.95 2.6 14.2 2.25 L14.95 2.65 15.35 3.25 15.65 9.7 15.1 9.8 14.3 3.55 13.4 4.2 13.3 11.85 13.35 13.25 14.15 20.3 14.85 20.25 15.3 15.05 M31.05 30.2 L32.4 30.15 32.8 30.9 32.6 31.95 27.3 32.2 26.75 31.15 27.3 30.4 27.4 31.15 31.25 31.35 31.5 30.7 31.05 30.2 M31.25 29.1 L28.3 29.1 28.2 27.25 31.25 27.25 31.25 29.1 M27.9 48.35 Q29.05 49.75 30.55 48.65 32.0 47.2 31.6 44.95 31.65 41.3 30.8 37.75 30.7 36.45 29.75 35.6 28.7 35.65 28.3 38.1 27.95 40.5 27.95 41.5 26.8 45.1 27.9 48.35 M32.6 42.15 Q33.05 47.05 32.3 51.85 31.9 49.85 29.75 49.65 27.35 49.85 27.15 52.25 L27.15 52.3 26.95 51.0 Q26.25 45.2 27.2 39.55 L28.45 32.9 31.2 32.9 Q32.15 37.5 32.6 42.15 M30.7 58.1 L28.65 57.7 27.35 53.05 Q27.85 54.65 29.75 54.85 31.35 54.95 32.0 53.55 L30.7 58.1 M29.1 55.9 Q28.65 57.55 30.25 57.4 31.35 56.6 30.65 55.85 L29.1 55.9" fill="#69839d" fill-rule="evenodd" stroke="none"/>
      <path d="M40.75 9.5 Q39.65 10.3 39.65 11.65 39.6 13.25 41.0 13.95 L41.5 17.7 Q41.55 19.1 40.65 19.75 39.95 19.55 39.85 18.55 39.35 12.5 39.65 6.45 39.7 5.45 40.4 4.85 L40.75 9.5 M43.55 9.5 L43.55 4.3 44.25 4.4 44.5 10.65 Q44.2 9.85 43.55 9.5 M44.55 12.55 L44.0 20.3 43.6 13.8 Q44.25 13.35 44.55 12.55 M34.2 11.4 L33.9 10.25 26.9 9.5 Q25.3 9.3 24.4 10.6 24.5 12.95 27.0 13.65 31.6 14.85 34.2 11.4 M36.15 9.6 Q37.3 11.55 36.3 13.5 34.7 15.25 31.75 15.4 L26.55 15.0 Q24.25 14.4 22.5 12.35 20.7 10.35 23.1 8.3 24.95 7.25 27.1 7.8 29.75 8.15 32.4 7.85 34.9 7.5 36.15 9.6 M27.5 24.1 L30.4 23.85 Q31.5 24.1 31.6 24.5 31.6 24.85 30.85 25.25 L27.9 25.35 Q26.85 24.85 26.9 24.5 26.9 24.25 27.45 24.1 L27.5 24.1 M16.8 15.6 L16.85 14.9 18.35 13.15 17.85 19.6 16.8 15.6 M18.3 11.4 Q17.9 10.35 16.95 9.95 L17.45 5.4 18.3 11.4 M15.3 15.05 L14.85 20.25 14.15 20.3 13.35 13.25 Q13.7 14.6 15.3 15.05 M13.3 11.85 L13.4 4.2 14.3 3.55 15.1 9.8 Q13.6 10.25 13.3 11.85 M27.3 30.4 L31.05 30.2 31.5 30.7 31.25 31.35 27.4 31.15 27.3 30.4 M27.9 48.35 Q26.8 45.1 27.95 41.5 27.95 40.5 28.3 38.1 28.7 35.65 29.75 35.6 30.7 36.45 30.8 37.75 31.65 41.3 31.6 44.95 32.0 47.2 30.55 48.65 29.05 49.75 27.9 48.35 M29.1 55.9 L30.65 55.85 Q31.35 56.6 30.25 57.4 28.65 57.55 29.1 55.9" fill="#899db1" fill-rule="evenodd" stroke="none"/>
      <path d="M40.75 10.9 L42.65 13.2 42.15 13.3 Q40.7 13.2 40.5 11.65 L40.75 10.9 M42.85 10.1 L43.85 12.05 41.65 10.1 42.85 10.1 M14.45 11.5 L16.6 13.7 15.85 13.9 Q14.3 13.7 14.2 12.25 L14.45 11.5 M17.25 11.6 L17.3 13.05 15.15 10.8 16.6 10.8 17.25 11.6 M29.75 50.6 L30.55 50.85 28.35 53.05 28.1 52.25 Q28.25 50.75 29.75 50.6 M29.0 53.7 L31.2 51.5 Q31.9 53.5 29.75 53.95 L29.0 53.7" fill="#a1b1c1" fill-rule="evenodd" stroke="none"/>
      <path d="M33.35 54.6 L33.75 52.75 Q40.85 51.3 46.05 46.1 53.05 39.1 53.3 28.6 53.05 18.45 46.45 11.55 L46.45 9.2 Q54.75 17.0 54.95 28.6 55.05 36.65 50.45 43.3 44.1 52.5 33.35 54.6 M45.35 22.9 Q47.1 21.7 46.9 19.6 L46.55 17.25 Q49.55 22.9 49.55 29.45 49.05 40.8 38.0 44.45 L34.9 45.55 34.8 45.15 34.35 43.45 Q38.75 41.7 42.1 38.05 45.75 33.5 45.85 27.7 45.85 25.2 45.35 22.9 M38.25 4.0 Q29.1 3.05 20.0 4.15 L19.75 3.6 Q23.8 2.25 28.5 2.1 33.8 2.25 38.25 4.0 M24.25 45.1 Q24.15 46.55 24.3 47.8 17.65 47.8 13.35 43.15 8.2 37.55 7.7 29.6 7.2 22.7 11.3 17.35 L11.35 17.65 Q11.15 19.95 11.85 21.75 7.8 29.5 12.4 37.1 16.5 43.85 24.25 45.1 M11.8 8.1 L11.8 10.5 Q5.05 16.85 4.15 26.1 3.0 37.75 11.1 46.1 17.2 52.25 25.85 53.15 L26.35 54.95 Q13.85 53.8 6.7 43.25 1.25 35.3 2.3 25.9 3.55 15.15 11.8 8.1" fill="#afc1d9" fill-rule="evenodd" stroke="none"/>
      <path d="M34.15 50.65 Q34.1 41.75 32.3 32.9 L33.95 31.8 34.35 43.45 34.8 45.15 34.9 45.55 38.0 44.45 Q49.05 40.8 49.55 29.45 49.55 22.9 46.55 17.25 L46.9 19.6 Q47.1 21.7 45.35 22.9 L35.9 22.55 34.9 25.15 Q35.1 23.95 33.95 23.4 L33.3 23.05 33.3 21.2 38.3 20.55 Q39.2 22.8 41.45 22.0 L42.2 21.75 Q45.25 23.6 46.0 20.7 46.75 17.8 46.45 14.6 51.15 20.45 51.3 28.65 51.05 38.3 44.65 44.7 40.2 49.15 34.15 50.65 M33.85 30.25 L32.4 29.2 32.4 27.25 34.35 26.45 33.6 28.35 33.85 30.25 M24.25 45.1 L24.95 39.9 Q25.7 35.8 24.45 31.95 L25.5 28.35 23.3 25.55 24.45 22.3 Q22.8 22.45 21.25 23.1 17.0 25.0 12.6 23.2 L11.85 21.75 Q11.15 19.95 11.35 17.65 L11.3 17.35 Q7.2 22.7 7.7 29.6 8.2 37.55 13.35 43.15 17.65 47.8 24.3 47.8 24.15 46.55 24.25 45.1 M11.8 13.3 L12.05 20.75 Q12.1 22.0 13.3 22.4 15.1 23.2 16.1 21.7 L16.85 21.95 Q19.2 22.95 19.95 20.65 L26.0 21.35 26.0 23.05 25.5 23.4 Q24.55 24.05 24.5 24.95 L24.75 25.95 Q25.3 27.3 26.9 27.25 L26.9 29.2 26.4 29.55 Q24.7 30.8 26.2 32.25 26.65 32.65 27.35 32.9 25.25 40.65 25.1 48.35 L25.35 51.1 Q17.85 50.0 12.5 44.7 6.1 38.3 5.85 28.65 6.1 19.55 11.8 13.3" fill="#9ab4cc" fill-rule="evenodd" stroke="none"/>
      <path d="M33.95 31.8 L33.85 30.25 33.6 28.35 34.35 26.45 34.9 25.15 35.9 22.55 45.35 22.9 Q45.85 25.2 45.85 27.7 45.75 33.5 42.1 38.05 38.75 41.7 34.35 43.45 L33.95 31.8 M11.85 21.75 L12.6 23.2 Q17.0 25.0 21.25 23.1 22.8 22.45 24.45 22.3 L23.3 25.55 25.5 28.35 24.45 31.95 Q25.7 35.8 24.95 39.9 L24.25 45.1 Q16.5 43.85 12.4 37.1 7.8 29.5 11.85 21.75" fill="#c5d3e3" fill-rule="evenodd" stroke="none"/>
      <path d="M34.2 11.4 Q31.6 14.85 27.0 13.65 24.5 12.95 24.4 10.6 25.3 9.3 26.9 9.5 L33.9 10.25 34.2 11.4" fill="#a1b3bf" fill-rule="evenodd" stroke="none"/>
    </g>
  </defs>
</svg>
