<?xml version="1.0" encoding="UTF-8" standalone="no"?>
<svg xmlns:xlink="http://www.w3.org/1999/xlink" height="433.1px" width="327.95px" xmlns="http://www.w3.org/2000/svg">
  <g transform="matrix(1.0, 0.0, 0.0, 1.0, 164.0, 433.1)">
    <use height="36.0" transform="matrix(1.0, 0.0, 0.0, 1.0, -79.55, -36.0)" width="159.0" xlink:href="#shape0"/>
    <use height="96.65" transform="matrix(1.0, 0.0, 0.0, 1.0, -27.15, -108.0)" width="54.2" xlink:href="#shape1"/>
    <use height="37.0" transform="matrix(1.0, 0.0, 0.0, 1.0, -92.65, -94.35)" width="185.25" xlink:href="#shape2"/>
    <use height="15.4" transform="matrix(1.0, 0.0, 0.0, 1.0, -64.95, -81.45)" width="138.9" xlink:href="#text0"/>
    <use height="277.9" transform="matrix(1.0, 0.0, 0.0, 1.0, -76.15, -376.45)" width="152.2" xlink:href="#shape3"/>
    <use height="253.75" transform="matrix(1.0, 0.0, 0.0, 1.0, -62.0, -353.85)" width="123.4" xlink:href="#shape4"/>
    <use height="59.15" transform="matrix(1.0, 0.0, 0.0, 1.0, -29.15, -212.95)" width="57.15" xlink:href="#shape5"/>
  </g>
  <defs>
    <g id="shape0" transform="matrix(1.0, 0.0, 0.0, 1.0, 0.0, 0.0)">
      <path d="M135.7 30.75 Q113.3 35.8 79.5 36.0 45.7 35.8 23.3 30.75 0.85 25.65 0.0 18.0 0.85 10.35 23.3 5.25 45.7 0.2 79.5 0.0 113.3 0.2 135.7 5.25 158.15 10.35 159.0 18.0 158.15 25.65 135.7 30.75" fill="#000000" fill-opacity="0.39607844" fill-rule="evenodd" stroke="none"/>
    </g>
    <g id="shape1" transform="matrix(1.0, 0.0, 0.0, 1.0, 0.0, 0.0)">
      <path d="M5.85 93.35 Q-0.15 90.4 0.0 90.0 L0.0 0.0 54.2 0.0 54.2 90.0 Q54.15 90.4 46.95 93.35 39.7 96.25 25.65 96.65 11.8 96.25 5.85 93.35" fill="url(#gradient0)" fill-rule="evenodd" stroke="none"/>
    </g>
    <linearGradient gradientTransform="matrix(0.0303, 0.0, 0.0, 0.0303, 25.7, 48.35)" gradientUnits="userSpaceOnUse" id="gradient0" spreadMethod="pad" x1="-819.2" x2="819.2">
      <stop offset="0.0" stop-color="#565656"/>
      <stop offset="0.403921568627451" stop-color="#9a9999"/>
      <stop offset="0.592156862745098" stop-color="#dbdbda"/>
      <stop offset="0.7803921568627451" stop-color="#9b9a9a"/>
      <stop offset="1.0" stop-color="#151213"/>
    </linearGradient>
    <g id="shape2" transform="matrix(1.0, 0.0, 0.0, 1.0, -0.05, 0.0)">
      <path d="M185.25 8.2 L185.3 8.25 185.25 8.25 185.25 8.2 M1.9 5.2 L2.3 2.85 18.75 2.05 59.05 0.7 Q83.4 0.05 109.4 0.3 115.1 0.55 118.85 1.6 122.65 2.7 128.15 3.0 L129.3 1.5 Q130.05 0.2 130.5 0.0 160.7 0.5 181.5 3.85 L183.45 6.1 103.3 3.5 Q60.0 3.6 6.5 5.1 L1.9 5.2 M176.25 8.0 L176.45 8.4 177.65 11.45 178.5 13.65 Q179.3 12.8 179.7 10.9 179.7 9.8 179.25 9.1 L179.9 9.55 Q180.65 10.3 180.7 11.75 179.85 15.7 177.15 15.05 175.8 14.75 175.1 13.85 L176.15 14.2 177.35 14.25 176.45 12.35 174.9 8.8 174.8 8.5 174.95 8.35 Q175.75 7.8 176.25 8.0 M178.25 27.3 L179.85 27.15 Q180.5 27.3 181.25 27.95 183.6 31.2 181.35 32.8 180.2 33.6 179.1 33.5 L180.8 32.15 178.8 31.55 175.1 30.4 175.2 29.1 175.2 29.0 175.25 28.7 175.4 28.75 175.85 28.9 178.95 30.05 181.1 30.85 Q181.0 29.65 179.9 28.15 179.05 27.45 178.25 27.3 M9.35 6.95 L10.7 10.45 11.7 12.9 Q12.6 11.95 13.05 9.85 13.05 8.55 12.5 7.75 13.85 8.35 14.15 10.05 L13.75 12.35 Q12.6 15.1 10.15 14.55 8.75 14.25 8.0 13.4 L7.85 13.2 9.0 13.6 10.35 13.65 9.35 11.4 7.6 7.45 8.75 6.6 9.2 6.55 9.35 6.95 M9.4 25.3 Q11.0 24.35 12.9 25.8 15.0 28.35 14.35 30.1 L13.4 31.3 Q12.2 32.25 10.95 32.25 L12.75 30.6 10.4 30.05 6.2 29.05 6.15 27.55 6.15 27.1 6.35 27.15 6.9 27.35 10.45 28.4 12.95 29.1 Q12.75 27.8 11.35 26.15 10.35 25.35 9.4 25.3" fill="#47525f" fill-rule="evenodd" stroke="none"/>
      <path d="M0.05 36.7 L0.75 22.9 Q1.05 14.95 1.6 7.0 L1.9 5.2 6.5 5.1 3.2 8.3 1.95 36.45 0.05 36.7" fill="#cdcdcd" fill-rule="evenodd" stroke="none"/>
      <path d="M13.75 12.35 L14.15 10.05 26.45 10.0 13.75 12.35 M8.0 13.4 L7.0 13.55 7.2 26.2 6.35 27.15 6.15 27.1 6.15 27.55 Q5.15 29.5 6.75 31.55 8.95 33.2 10.95 32.25 12.2 32.25 13.4 31.3 L14.35 30.1 16.45 30.2 36.65 31.3 56.5 32.6 Q50.4 32.9 38.0 32.9 L15.1 32.75 3.85 32.6 5.25 10.05 6.0 10.05 Q6.15 12.3 7.85 13.2 L8.0 13.4" fill="#848484" fill-rule="evenodd" stroke="none"/>
      <path d="M175.1 13.85 Q175.8 14.75 177.15 15.05 179.85 15.7 180.7 11.75 180.65 10.3 179.9 9.55 L180.85 9.65 179.85 27.15 178.25 27.3 177.7 27.3 177.8 15.2 160.95 13.3 Q144.35 11.4 115.0 6.95 144.55 7.2 162.45 8.35 L174.1 9.15 Q173.65 9.7 173.4 10.6 173.45 12.95 175.1 13.85 M175.3 32.3 L137.05 30.55 175.2 29.0 175.2 29.1 Q174.3 30.55 175.3 32.3" fill="#a09fa0" fill-rule="evenodd" stroke="none"/>
      <path d="M176.45 8.4 L176.25 8.0 176.9 7.95 Q178.55 8.05 179.25 9.1 179.7 9.8 179.7 10.9 179.3 12.8 178.5 13.65 L177.65 11.45 178.05 10.25 Q178.0 8.55 176.45 8.4 M174.8 8.5 L174.9 8.8 Q174.35 9.2 174.15 10.05 174.2 11.9 175.85 12.3 L176.45 12.35 177.35 14.25 176.15 14.2 175.1 13.85 Q173.45 12.95 173.4 10.6 173.65 9.7 174.1 9.15 L174.8 8.5 M177.7 27.3 L178.25 27.3 Q179.05 27.45 179.9 28.15 181.0 29.65 181.1 30.85 L178.95 30.05 178.3 28.9 Q177.0 27.8 175.85 28.9 L175.4 28.75 175.8 28.3 Q176.7 27.35 177.7 27.3 M179.1 33.5 Q177.3 34.2 175.5 32.65 L175.3 32.3 Q174.3 30.55 175.2 29.1 L175.1 30.4 Q175.25 32.1 176.95 32.35 178.0 32.25 178.8 31.55 L180.8 32.15 179.1 33.5 M10.7 10.45 L11.2 9.05 Q11.15 7.15 9.35 6.95 L9.2 6.55 9.9 6.5 Q11.75 6.6 12.5 7.75 13.05 8.55 13.05 9.85 12.6 11.95 11.7 12.9 L10.7 10.45 M7.2 26.2 Q8.2 25.2 9.4 25.3 10.35 25.35 11.35 26.15 12.75 27.8 12.95 29.1 L10.45 28.4 Q9.75 26.65 8.05 26.6 L6.9 27.35 6.35 27.15 7.2 26.2 M6.0 10.05 L5.95 9.55 Q6.6 7.0 8.75 6.6 L7.6 7.45 Q7.0 7.9 6.75 8.85 6.8 10.95 8.7 11.35 L9.35 11.4 10.35 13.65 9.0 13.6 7.85 13.2 Q6.15 12.3 6.0 10.05 M6.15 27.55 L6.2 29.05 Q6.45 30.9 8.2 31.1 9.7 31.2 10.4 30.05 L12.75 30.6 10.95 32.25 Q8.95 33.2 6.75 31.55 5.15 29.5 6.15 27.55" fill="#9c9c9c" fill-rule="evenodd" stroke="none"/>
      <path d="M174.9 8.8 L176.45 12.35 175.85 12.3 Q174.2 11.9 174.15 10.05 174.35 9.2 174.9 8.8 M177.65 11.45 L176.45 8.4 Q178.0 8.55 178.05 10.25 L177.65 11.45 M175.85 28.9 Q177.0 27.8 178.3 28.9 L178.95 30.05 175.85 28.9 M175.1 30.4 L178.8 31.55 Q178.0 32.25 176.95 32.35 175.25 32.1 175.1 30.4 M9.35 6.95 Q11.15 7.15 11.2 9.05 L10.7 10.45 9.35 6.95 M9.35 11.4 L8.7 11.35 Q6.8 10.95 6.75 8.85 7.0 7.9 7.6 7.45 L9.35 11.4 M10.45 28.4 L6.9 27.35 8.05 26.6 Q9.75 26.65 10.45 28.4 M6.2 29.05 L10.4 30.05 Q9.7 31.2 8.2 31.1 6.45 30.9 6.2 29.05" fill="#d5d4d4" fill-rule="evenodd" stroke="none"/>
      <path d="M183.45 6.1 L185.3 6.25 185.25 8.2 185.25 8.25 185.1 13.45 184.65 27.3 184.3 36.25 Q157.35 34.75 133.85 35.55 L89.2 37.0 Q65.15 37.15 43.55 35.85 22.0 34.5 0.05 36.75 L0.05 36.7 1.95 36.45 3.2 8.3 6.5 5.1 Q60.0 3.6 103.3 3.5 L183.45 6.1 M176.25 8.0 Q175.75 7.8 174.95 8.35 L174.8 8.5 174.1 9.15 162.45 8.35 Q144.55 7.2 115.0 6.95 144.35 11.4 160.95 13.3 L177.8 15.2 177.7 27.3 Q176.7 27.35 175.8 28.3 L175.4 28.75 175.25 28.7 175.2 29.0 137.05 30.55 175.3 32.3 175.5 32.65 Q177.3 34.2 179.1 33.5 180.2 33.6 181.35 32.8 183.6 31.2 181.25 27.95 180.5 27.3 179.85 27.15 L180.85 9.65 179.9 9.55 179.25 9.1 Q178.55 8.05 176.9 7.95 L176.25 8.0 M12.5 7.75 Q11.75 6.6 9.9 6.5 L9.2 6.55 8.75 6.6 Q6.6 7.0 5.95 9.55 L6.0 10.05 5.25 10.05 3.85 32.6 15.1 32.75 38.0 32.9 Q50.4 32.9 56.5 32.6 L36.65 31.3 16.45 30.2 14.35 30.1 Q15.0 28.35 12.9 25.8 11.0 24.35 9.4 25.3 8.2 25.2 7.2 26.2 L7.0 13.55 8.0 13.4 Q8.75 14.25 10.15 14.55 12.6 15.1 13.75 12.35 L26.45 10.0 14.15 10.05 Q13.85 8.35 12.5 7.75" fill="url(#gradient1)" fill-rule="evenodd" stroke="none"/>
    </g>
    <linearGradient gradientTransform="matrix(0.1131, 0.0, 0.0, 0.0204, 92.65, 20.25)" gradientUnits="userSpaceOnUse" id="gradient1" spreadMethod="pad" x1="-819.2" x2="819.2">
      <stop offset="0.0" stop-color="#9a9a9a"/>
      <stop offset="1.0" stop-color="#ffffff"/>
    </linearGradient>
    <g id="text0" transform="matrix(1.0, 0.0, 0.0, 1.0, 8.85, -5.7)">
      <g transform="matrix(1.0, 0.0, 0.0, 1.0, -10.15, 0.0)">
        <use fill="#000000" height="15.4" transform="matrix(0.4746, 0.0, 0.0, 0.4746, 0.0, 21.0)" width="138.9" xlink:href="#font_______W7_B0"/>
        <use fill="#000000" height="15.4" transform="matrix(0.4746, 0.0, 0.0, 0.4746, 16.85, 21.0)" width="138.9" xlink:href="#font_______W7_l0"/>
        <use fill="#000000" height="15.4" transform="matrix(0.4746, 0.0, 0.0, 0.4746, 25.65, 21.0)" width="138.9" xlink:href="#font_______W7_o0"/>
        <use fill="#000000" height="15.4" transform="matrix(0.4746, 0.0, 0.0, 0.4746, 38.55, 21.0)" width="138.9" xlink:href="#font_______W7_o0"/>
        <use fill="#000000" height="15.4" transform="matrix(0.4746, 0.0, 0.0, 0.4746, 51.45, 21.0)" width="138.9" xlink:href="#font_______W7_d0"/>
        <use fill="#000000" height="15.4" transform="matrix(0.4746, 0.0, 0.0, 0.4746, 65.35, 21.0)" width="138.9" xlink:href="#font_______W7_s0"/>
        <use fill="#000000" height="15.4" transform="matrix(0.4746, 0.0, 0.0, 0.4746, 77.8, 21.0)" width="138.9" xlink:href="#font_______W7_u0"/>
        <use fill="#000000" height="15.4" transform="matrix(0.4746, 0.0, 0.0, 0.4746, 91.3, 21.0)" width="138.9" xlink:href="#font_______W7_c0"/>
        <use fill="#000000" height="15.4" transform="matrix(0.4746, 0.0, 0.0, 0.4746, 104.2, 21.0)" width="138.9" xlink:href="#font_______W7_k0"/>
        <use fill="#000000" height="15.4" transform="matrix(0.4746, 0.0, 0.0, 0.4746, 118.0, 21.0)" width="138.9" xlink:href="#font_______W7_e0"/>
        <use fill="#000000" height="15.4" transform="matrix(0.4746, 0.0, 0.0, 0.4746, 131.4, 21.0)" width="138.9" xlink:href="#font_______W7_r0"/>
      </g>
    </g>
    <g id="font_______W7_B0">
      <path d="M25.75 -11.3 L25.75 -11.3 Q25.75 -8.4 21.9 -8.4 18.5 -8.4 14.4 -12.15 L12.5 -7.75 11.95 -13.45 Q15.45 -15.85 18.95 -15.85 21.25 -15.85 23.3 -14.7 25.75 -13.4 25.75 -11.3 M23.15 -23.7 L23.15 -23.7 Q23.15 -22.05 21.2 -20.35 L19.0 -20.45 Q15.05 -20.45 11.45 -18.65 L10.85 -24.45 Q15.3 -26.5 18.75 -26.5 L21.55 -25.95 Q23.15 -25.2 23.15 -23.7 M33.9 -10.25 L33.9 -10.25 Q33.9 -14.55 29.85 -17.3 32.05 -20.45 32.05 -23.5 32.05 -27.75 28.35 -29.85 25.45 -31.6 20.9 -31.6 14.3 -31.6 10.4 -29.6 L10.2 -31.55 5.3 -32.15 2.55 0.05 13.15 -1.1 13.05 -2.3 Q17.4 -0.6 21.5 -0.6 26.1 -0.6 29.75 -3.05 33.9 -5.85 33.9 -10.25" fill-rule="evenodd" stroke="none"/>
    </g>
    <g id="font_______W7_l0">
      <path d="M11.6 -31.5 L11.6 -31.5 6.9 -32.15 4.35 0.05 14.4 -1.4 11.6 -31.5" fill-rule="evenodd" stroke="none"/>
    </g>
    <g id="font_______W7_o0">
      <path d="M15.8 -13.5 L15.8 -13.5 Q16.45 -11.85 16.45 -10.4 16.45 -6.85 12.35 -6.85 10.6 -6.85 9.35 -8.05 8.15 -9.35 8.15 -11.05 8.15 -13.25 9.8 -14.6 11.4 -16.0 13.7 -16.0 16.1 -16.0 18.3 -14.3 L15.8 -13.5 M25.7 -11.4 L25.7 -11.4 Q25.7 -13.8 24.75 -16.35 L21.25 -15.25 22.7 -17.2 Q18.35 -21.45 13.15 -21.45 8.45 -21.45 5.1 -18.2 1.8 -14.95 1.8 -10.3 1.8 -5.5 5.4 -2.65 8.65 0.05 13.65 0.05 18.75 0.05 22.2 -3.2 25.7 -6.4 25.7 -11.4" fill-rule="evenodd" stroke="none"/>
    </g>
    <g id="font_______W7_d0">
      <path d="M18.35 -8.95 L18.35 -8.95 16.8 -11.9 Q14.75 -9.45 12.45 -9.45 10.9 -9.45 10.0 -10.4 9.1 -11.4 9.1 -12.95 9.1 -14.5 10.7 -15.6 12.15 -16.5 13.7 -16.5 16.6 -16.5 18.8 -14.55 L18.35 -8.95 M24.9 -31.55 L24.9 -31.55 20.15 -32.2 19.15 -19.55 Q16.05 -21.45 12.65 -21.45 8.15 -21.45 4.95 -18.25 1.8 -15.0 1.8 -10.5 1.8 -6.05 4.6 -3.05 7.4 0.05 11.85 0.05 14.65 0.05 17.7 -1.5 L17.6 0.0 27.65 -1.45 24.9 -31.55" fill-rule="evenodd" stroke="none"/>
    </g>
    <g id="font_______W7_s0">
      <path d="M25.05 -6.35 L25.05 -6.35 Q25.05 -12.25 15.35 -13.65 8.7 -14.6 8.7 -15.7 8.7 -17.05 12.35 -17.05 17.1 -17.05 22.25 -14.8 L23.8 -18.2 Q19.05 -21.45 12.25 -21.45 8.55 -21.45 6.05 -20.35 2.6 -18.85 2.6 -15.7 2.6 -13.1 4.75 -11.8 6.5 -10.75 10.95 -10.05 L16.3 -8.95 Q17.8 -8.4 17.8 -7.5 17.8 -6.2 15.25 -6.2 12.3 -6.2 9.1 -7.45 5.9 -8.7 3.8 -10.65 L1.0 -2.6 Q6.45 0.05 14.3 0.05 25.05 0.05 25.05 -6.35" fill-rule="evenodd" stroke="none"/>
    </g>
    <g id="font_______W7_u0">
      <path d="M24.1 -20.75 L24.1 -20.75 19.25 -21.45 17.9 -8.95 16.15 -11.65 Q13.35 -8.1 10.6 -8.1 9.0 -8.1 8.15 -9.4 7.25 -10.65 7.25 -12.3 7.25 -15.75 8.6 -19.75 L3.9 -21.15 Q2.05 -16.35 2.05 -11.4 2.05 -6.45 4.25 -3.4 6.75 0.05 11.5 0.05 14.55 0.05 17.1 -1.5 L16.95 0.1 26.8 -1.35 24.1 -20.75" fill-rule="evenodd" stroke="none"/>
    </g>
    <g id="font_______W7_c0">
      <path d="M21.35 -12.5 L21.35 -12.5 Q19.95 -10.5 17.75 -9.15 15.35 -7.6 13.15 -7.6 11.4 -7.6 10.2 -8.85 8.9 -10.05 8.9 -11.8 8.9 -14.1 10.65 -15.4 12.2 -16.55 14.55 -16.55 18.9 -16.55 21.9 -13.7 L24.4 -17.55 Q19.65 -21.45 13.1 -21.45 8.05 -21.45 4.9 -18.4 1.8 -15.3 1.8 -10.3 1.8 -5.6 5.7 -2.65 9.25 0.05 14.1 0.05 17.2 0.05 20.45 -1.1 24.05 -2.3 25.9 -4.4 L21.35 -12.5" fill-rule="evenodd" stroke="none"/>
    </g>
    <g id="font_______W7_k0">
      <path d="M20.35 -12.2 L20.35 -12.2 26.9 -17.9 24.8 -21.8 10.85 -14.65 9.3 -31.45 4.6 -32.15 2.05 0.05 12.1 -1.4 11.35 -9.1 13.25 -6.05 15.8 -8.25 22.05 0.25 28.6 -6.95 20.35 -12.2" fill-rule="evenodd" stroke="none"/>
    </g>
    <g id="font_______W7_e0">
      <path d="M19.45 -9.9 L19.45 -9.9 Q16.75 -7.55 13.6 -7.55 10.45 -7.55 9.15 -9.9 L19.45 -9.9 M9.0 -13.4 L9.0 -13.4 Q9.7 -14.95 11.5 -15.95 13.2 -16.8 15.1 -16.8 18.05 -16.8 19.65 -14.35 L9.0 -13.4 M23.25 -9.9 L23.25 -9.9 24.3 -9.9 26.7 -12.6 Q25.85 -16.7 22.9 -19.1 19.9 -21.45 15.15 -21.45 9.65 -21.45 5.9 -18.65 1.8 -15.6 1.8 -10.4 1.8 -5.35 5.8 -2.5 9.3 0.05 14.6 0.05 22.45 0.05 27.15 -4.25 L23.25 -9.9" fill-rule="evenodd" stroke="none"/>
    </g>
    <g id="font_______W7_r0">
      <path d="M18.3 -20.6 L18.3 -20.6 Q16.55 -21.45 14.75 -21.45 11.5 -21.45 8.7 -18.65 L8.45 -20.75 4.45 -21.45 2.55 0.05 10.65 -1.4 9.3 -12.8 Q10.55 -14.85 12.3 -14.85 13.25 -14.85 14.55 -13.85 L16.55 -12.05 18.3 -20.6" fill-rule="evenodd" stroke="none"/>
    </g>
    <g id="shape3" transform="matrix(1.0, 0.0, 0.0, 1.0, -16.55, 0.0)">
      <path d="M126.0 65.8 L128.0 38.55 115.95 14.1 76.95 9.0 62.65 28.3 67.4 80.3 72.9 129.95 44.95 136.95 24.15 182.1 20.75 257.9 21.2 258.8 28.85 275.3 152.85 275.3 161.1 267.05 161.1 221.35 157.3 199.1 148.15 145.55 120.2 130.5 126.0 65.8 M136.7 47.55 L124.05 127.15 153.15 141.75 164.75 212.85 168.75 269.35 155.2 277.9 25.2 277.9 17.0 261.9 16.55 186.75 38.8 135.1 66.75 125.6 56.85 31.3 74.9 0.0 119.95 8.9 136.7 47.55 M113.7 60.95 L114.35 61.3 Q119.55 63.25 120.3 57.75 121.25 64.25 115.1 63.05 112.65 62.4 112.55 59.95 L112.5 58.55 Q112.6 59.5 113.1 60.25 L113.7 60.95 M114.35 56.8 L114.4 56.8 114.1 57.2 114.35 56.8 M84.65 17.6 L85.8 16.4 85.8 18.45 77.8 26.85 77.8 24.7 84.65 17.6 M88.75 21.4 Q88.95 30.2 80.45 28.5 L79.65 28.25 79.65 26.35 Q81.05 27.15 82.75 27.2 88.25 26.7 88.75 21.4 M78.4 67.95 Q79.35 74.45 73.25 73.1 70.3 72.3 70.6 68.9 L71.2 70.45 71.8 71.15 72.45 71.5 Q77.65 73.35 78.4 67.95 M41.75 184.45 Q42.2 192.55 34.2 191.5 L32.7 191.35 32.65 189.4 Q34.05 190.2 35.75 190.25 41.25 189.75 41.75 184.45 M30.75 189.9 L30.75 189.85 30.8 189.9 30.75 189.9 M38.75 179.45 L38.75 181.5 30.8 189.85 30.8 187.75 38.75 179.45 M147.75 212.0 L148.35 213.55 148.95 214.25 149.6 214.55 Q154.85 216.5 155.55 211.05 156.55 214.0 154.2 215.4 148.35 218.65 147.75 212.0 M30.3 266.7 L30.9 267.4 31.55 267.7 Q36.75 269.7 37.5 264.2 38.45 270.75 32.3 269.5 30.15 269.0 29.9 266.8 L29.7 265.15 30.3 266.7" fill="#47525f" fill-rule="evenodd" stroke="none"/>
      <path d="M126.0 65.8 L120.2 130.5 148.15 145.55 157.3 199.1 21.2 258.8 20.75 257.9 24.15 182.1 44.95 136.95 72.9 129.95 67.4 80.3 126.0 65.8 M86.6 19.1 L87.6 18.0 87.65 18.65 Q87.5 26.65 79.65 26.35 L86.6 19.1 M32.7 191.35 L34.2 191.5 Q42.2 192.55 41.75 184.45 L40.6 181.05 Q41.1 189.4 32.9 189.4 L32.65 189.4 39.55 182.15 38.75 181.5 38.75 179.45 38.4 179.2 37.8 178.95 Q31.05 177.6 29.6 184.5 L29.6 186.85 Q29.4 187.6 30.75 189.85 L30.75 189.9 32.7 191.35" fill="#bab9ba" fill-rule="evenodd" stroke="none"/>
      <path d="M67.4 80.3 L62.65 28.3 76.95 9.0 115.95 14.1 128.0 38.55 126.0 65.8 67.4 80.3 M157.3 199.1 L161.1 221.35 161.1 267.05 152.85 275.3 28.85 275.3 21.2 258.8 157.3 199.1 M120.3 57.75 Q120.2 56.7 119.5 55.85 L118.25 54.8 117.6 54.9 118.25 54.75 Q113.35 53.65 112.5 58.55 L112.55 59.95 Q112.65 62.4 115.1 63.05 121.25 64.25 120.3 57.75 M114.4 56.8 L114.35 56.8 114.45 56.7 114.4 56.8 M85.4 16.15 L84.8 15.9 Q78.0 14.6 76.6 21.5 L76.65 23.85 Q76.75 25.45 77.8 26.85 L79.65 28.25 80.45 28.5 Q88.95 30.2 88.75 21.4 L87.6 18.0 86.6 19.1 85.8 18.45 85.8 16.4 84.65 17.6 85.75 16.4 85.4 16.15 M78.4 67.95 Q78.3 66.9 77.6 66.05 L76.35 65.0 75.5 64.7 Q70.95 64.3 70.6 68.9 70.3 72.3 73.25 73.1 79.35 74.45 78.4 67.95 M153.5 208.1 L152.65 207.8 Q148.0 207.45 147.75 212.0 148.35 218.65 154.2 215.4 156.55 214.0 155.55 211.05 155.45 210.0 154.75 209.15 L153.5 208.1 M36.7 262.3 L35.2 261.25 Q32.95 261.3 31.4 262.4 29.7 263.55 29.7 265.15 L29.9 266.8 Q30.15 269.0 32.3 269.5 38.45 270.75 37.5 264.2 37.4 263.15 36.7 262.3" fill="#9c9c9c" fill-rule="evenodd" stroke="none"/>
      <path d="M85.8 18.45 L86.6 19.1 79.65 26.35 79.65 28.25 77.8 26.85 85.8 18.45 M32.65 189.4 L32.7 191.35 30.75 189.9 30.8 189.9 30.8 189.85 38.75 181.5 39.55 182.15 32.65 189.4" fill="#57565b" fill-rule="evenodd" stroke="none"/>
      <path d="M77.8 26.85 Q76.75 25.45 76.65 23.85 L76.6 21.5 Q76.7 22.95 77.45 24.2 L77.8 24.7 77.8 26.85 M30.75 189.85 Q29.4 187.6 29.6 186.85 L29.6 184.5 Q29.7 185.95 30.45 187.25 L30.8 187.75 30.8 189.85 30.8 189.9 30.75 189.85" fill="#79818b" fill-rule="evenodd" stroke="none"/>
      <path d="M119.5 55.85 Q119.5 57.95 117.8 59.45 116.1 60.95 113.7 60.95 L113.1 60.25 114.1 57.2 114.4 56.8 114.45 56.7 117.6 54.9 118.25 54.8 119.5 55.85 M85.4 16.15 L85.75 16.4 84.65 17.6 77.8 24.7 77.45 24.2 77.65 23.3 Q80.0 17.85 85.4 16.15 M76.35 65.0 L77.6 66.05 Q77.6 68.15 75.9 69.65 74.2 71.15 71.8 71.15 L71.2 70.45 Q71.2 68.2 72.7 66.6 74.2 65.0 76.35 65.0 M38.4 179.2 L38.75 179.45 30.8 187.75 30.45 187.25 Q31.8 181.5 37.6 179.5 L38.4 179.2 M148.35 213.55 Q148.35 211.3 149.85 209.7 151.35 208.1 153.5 208.1 L154.75 209.15 Q154.75 211.25 153.05 212.75 151.35 214.25 148.95 214.25 L148.35 213.55 M36.7 262.3 Q36.7 264.4 35.0 265.9 33.3 267.4 30.9 267.4 L30.3 266.7 Q30.3 264.45 31.8 262.85 33.2 261.35 35.2 261.25 L36.7 262.3" fill="#d0cfd0" fill-rule="evenodd" stroke="none"/>
      <path d="M112.5 58.55 Q113.35 53.65 118.25 54.75 L117.6 54.9 114.45 56.7 114.35 56.8 114.1 57.2 113.1 60.25 Q112.6 59.5 112.5 58.55 M76.6 21.5 Q78.0 14.6 84.8 15.9 L85.4 16.15 Q80.0 17.85 77.65 23.3 L77.45 24.2 Q76.7 22.95 76.6 21.5 M70.6 68.9 Q70.95 64.3 75.5 64.7 L76.35 65.0 Q74.2 65.0 72.7 66.6 71.2 68.2 71.2 70.45 L70.6 68.9 M29.6 184.5 Q31.05 177.6 37.8 178.95 L38.4 179.2 37.6 179.5 Q31.8 181.5 30.45 187.25 29.7 185.95 29.6 184.5 M147.75 212.0 Q148.0 207.45 152.65 207.8 L153.5 208.1 Q151.35 208.1 149.85 209.7 148.35 211.3 148.35 213.55 L147.75 212.0 M35.2 261.25 Q33.2 261.35 31.8 262.85 30.3 264.45 30.3 266.7 L29.7 265.15 Q29.7 263.55 31.4 262.4 32.95 261.3 35.2 261.25" fill="#e9e9eb" fill-rule="evenodd" stroke="none"/>
      <path d="M119.5 55.85 Q120.2 56.7 120.3 57.75 119.55 63.25 114.35 61.3 L113.7 60.95 Q116.1 60.95 117.8 59.45 119.5 57.95 119.5 55.85 M87.6 18.0 L88.75 21.4 Q88.25 26.7 82.75 27.2 81.05 27.15 79.65 26.35 87.5 26.65 87.65 18.65 L87.6 18.0 M77.6 66.05 Q78.3 66.9 78.4 67.95 77.65 73.35 72.45 71.5 L71.8 71.15 Q74.2 71.15 75.9 69.65 77.6 68.15 77.6 66.05 M41.75 184.45 Q41.25 189.75 35.75 190.25 34.05 190.2 32.65 189.4 L32.9 189.4 Q41.1 189.4 40.6 181.05 L41.75 184.45 M154.75 209.15 Q155.45 210.0 155.55 211.05 154.85 216.5 149.6 214.55 L148.95 214.25 Q151.35 214.25 153.05 212.75 154.75 211.25 154.75 209.15 M30.9 267.4 Q33.3 267.4 35.0 265.9 36.7 264.4 36.7 262.3 37.4 263.15 37.5 264.2 36.75 269.7 31.55 267.7 L30.9 267.4" fill="#b0aeb3" fill-rule="evenodd" stroke="none"/>
    </g>
    <g id="shape4" transform="matrix(1.0, 0.0, 0.0, 1.0, 0.0, 0.0)">
      <path d="M81.85 18.4 L82.05 9.3 72.4 2.85 50.85 2.85 43.0 10.2 43.45 16.8 45.55 46.35 46.25 45.75 Q50.15 43.05 54.2 45.8 59.3 49.3 63.3 54.25 L64.25 55.85 64.05 56.35 63.6 55.85 63.25 69.55 69.05 67.95 69.45 65.4 70.55 64.45 71.35 65.15 71.15 68.7 72.3 69.15 73.65 72.1 Q78.2 81.6 80.25 91.95 L81.85 18.4 M85.0 8.25 L85.05 8.9 82.75 113.9 Q98.15 119.25 112.15 127.25 L120.3 175.85 121.95 228.05 Q123.55 232.25 123.4 236.8 L123.15 244.35 101.55 253.55 98.1 250.3 97.5 253.1 96.5 253.55 31.8 253.55 30.85 253.1 30.2 249.35 25.45 253.75 Q14.6 249.35 4.05 243.95 L4.35 228.35 0.0 203.35 0.0 202.9 4.65 169.55 16.65 126.35 Q31.55 119.4 46.65 113.65 L39.9 9.35 44.25 5.45 Q46.4 3.65 49.05 2.85 60.95 -0.7 73.65 0.15 L85.0 8.25 M61.1 55.3 L52.8 48.55 Q50.7 46.9 48.35 47.65 L47.5 49.05 48.95 52.5 48.45 53.55 47.1 53.9 45.85 52.95 49.1 101.2 Q49.8 87.85 54.95 75.4 56.3 72.2 56.9 68.85 57.3 66.7 58.45 64.7 L59.85 64.95 59.6 68.25 61.1 69.4 61.1 55.3 M51.3 54.25 L51.7 54.0 57.9 54.2 58.45 55.1 58.05 55.8 57.1 56.1 Q56.65 56.95 55.5 57.1 54.25 56.95 54.15 56.0 L51.65 55.85 51.1 55.3 51.3 54.25 M79.05 47.4 L78.6 47.0 Q77.75 46.0 77.9 44.5 L66.6 52.25 65.8 52.15 Q64.45 50.55 66.1 49.15 72.0 43.85 79.45 41.35 81.85 42.6 80.85 45.6 L80.5 46.55 79.05 47.4 M68.95 53.75 L77.05 53.5 77.45 54.3 76.85 55.25 75.5 55.25 75.6 55.1 72.65 55.0 71.5 55.25 69.4 55.25 68.85 54.7 68.95 53.75 M70.35 69.45 L68.55 70.2 Q62.05 72.4 58.75 70.05 52.15 85.8 49.8 102.3 L49.05 101.45 49.95 114.95 Q55.2 117.15 61.0 117.6 70.8 117.8 79.75 113.85 80.3 108.1 79.65 102.05 77.85 84.85 70.35 69.45 M55.75 97.65 L56.45 96.25 Q58.3 92.75 61.35 90.45 63.85 88.5 66.8 89.75 72.65 92.2 74.85 98.15 L75.6 99.8 75.8 100.35 76.45 102.05 78.05 107.25 77.1 108.05 Q76.5 108.3 76.35 107.65 74.25 99.4 68.5 93.1 67.05 91.55 64.9 91.6 62.9 91.4 61.5 93.1 56.9 98.6 54.8 105.4 53.9 108.4 52.1 110.9 L51.0 110.0 52.45 106.6 54.25 101.6 55.75 97.65 M65.0 120.6 L63.2 120.6 62.8 126.4 65.0 126.1 65.0 120.6 M78.2 117.65 L74.8 118.9 74.25 125.8 78.2 117.65 M71.8 118.7 L68.0 120.1 67.9 128.0 70.9 129.9 71.8 118.7 M53.3 119.05 L49.8 118.05 52.9 127.45 53.3 127.15 53.3 119.05 M60.25 120.2 L56.3 119.1 56.3 129.0 59.7 127.2 60.25 120.2 M53.9 132.65 L53.3 130.75 52.95 131.0 54.45 137.15 64.3 142.55 Q68.55 138.7 71.2 133.65 L65.3 129.95 61.5 129.65 55.05 133.0 53.9 132.65 M110.0 132.45 L103.0 144.3 99.3 225.05 106.45 218.15 106.85 218.15 107.25 218.2 Q111.8 219.6 116.05 221.7 117.6 222.55 118.8 224.05 L117.3 176.2 110.0 132.45 M81.8 132.7 L86.7 136.55 87.0 137.3 86.65 138.4 54.0 179.4 54.65 250.55 95.1 250.55 95.25 247.45 92.9 244.95 Q92.85 244.35 92.95 243.85 L93.65 240.35 Q94.9 235.35 95.0 230.35 95.0 229.0 96.15 228.2 L100.0 143.75 108.7 128.7 94.4 121.25 81.8 132.7 M59.3 151.85 L61.8 154.65 66.15 144.95 59.3 151.85 M57.8 163.6 L58.7 162.5 58.55 161.95 57.8 163.6 M31.35 123.8 L19.85 127.8 28.65 152.4 32.3 229.3 Q32.7 230.4 32.75 231.7 L32.8 232.8 Q32.75 238.85 34.6 244.6 L33.1 246.5 33.25 250.55 51.65 250.55 50.65 178.5 51.85 177.0 57.5 164.3 36.3 137.7 36.05 136.65 36.35 136.2 Q39.15 133.15 42.3 130.65 L31.35 123.8 M19.35 141.75 L17.8 133.4 7.55 170.15 2.95 203.05 6.95 226.05 10.7 221.4 11.0 221.05 11.4 220.85 20.1 218.2 20.9 218.15 29.15 226.15 25.7 152.9 19.35 141.75 M62.1 144.8 L55.7 141.25 57.95 148.95 62.1 144.8 M78.15 132.45 Q78.2 132.05 78.5 131.8 L91.3 120.05 82.0 116.85 61.6 162.5 60.65 163.5 60.8 164.4 59.05 168.25 83.35 137.75 78.5 133.5 Q78.1 133.1 78.15 132.45 M46.35 130.4 L46.25 130.8 46.0 131.15 39.55 136.95 58.0 160.1 45.5 117.2 34.6 122.3 45.5 129.35 Q46.2 129.75 46.35 130.4 M15.85 231.6 L16.05 231.05 Q16.1 230.95 16.25 230.9 L17.6 230.55 17.9 230.95 18.3 231.85 19.0 235.7 19.5 239.4 26.05 239.15 29.45 235.15 29.65 230.85 20.1 221.3 12.7 223.55 7.3 230.5 6.7 242.3 24.85 250.45 31.45 243.85 29.85 239.05 26.85 242.1 17.65 242.3 17.2 241.65 Q16.55 239.15 16.25 236.65 L15.85 231.6 M97.45 239.15 L95.9 243.9 102.45 250.45 120.6 242.3 120.05 230.55 114.6 223.55 107.25 221.3 97.7 230.85 97.9 235.2 101.25 239.15 107.75 239.4 109.1 231.05 110.3 230.45 111.55 231.6 110.5 241.7 100.15 242.0 97.45 239.15" fill="#1a1a1a" fill-rule="evenodd" stroke="none"/>
      <path d="M43.45 16.8 L43.0 10.2 50.85 2.85 72.4 2.85 82.05 9.3 81.85 18.4 Q79.8 16.25 77.15 15.35 73.8 14.45 71.1 17.05 66.3 21.7 62.75 27.5 60.1 22.6 56.05 18.5 50.9 13.4 44.8 17.7 L44.3 17.65 43.45 16.8 M75.5 55.25 L73.9 56.5 71.5 55.25 72.65 55.0 75.6 55.1 75.5 55.25 M55.75 97.65 L54.55 96.5 54.25 101.6 52.45 106.6 53.25 93.15 56.45 96.25 55.75 97.65 M77.1 108.05 L78.05 107.25 76.45 102.05 77.0 97.95 76.15 98.9 75.6 99.8 74.85 98.15 77.55 95.75 77.7 95.7 Q78.85 96.2 78.75 97.55 78.5 100.65 77.6 103.7 L78.9 107.45 78.2 108.35 77.1 108.05" fill="#000000" fill-rule="evenodd" stroke="none"/>
      <path d="M75.8 100.35 L75.6 99.8 76.15 98.9 75.8 100.35" fill="#b3cde3" fill-rule="evenodd" stroke="none"/>
      <path d="M48.45 53.55 L48.95 52.5 47.5 49.05 48.35 47.65 Q50.7 46.9 52.8 48.55 L61.1 55.3 58.45 55.1 57.9 54.2 51.7 54.0 51.3 54.25 48.45 53.55 M65.8 52.15 L66.6 52.25 77.9 44.5 Q77.75 46.0 78.6 47.0 L79.05 47.4 78.4 50.2 Q77.65 52.65 77.05 53.5 L68.95 53.75 66.75 53.3 Q65.8 52.8 65.8 52.15" fill="#b191be" fill-rule="evenodd" stroke="none"/>
      <path d="M54.25 101.6 L54.55 96.5 55.75 97.65 54.25 101.6 M76.45 102.05 L75.8 100.35 76.15 98.9 77.0 97.95 76.45 102.05" fill="#ffffff" fill-rule="evenodd" stroke="none"/>
      <path d="M77.7 95.7 L77.55 95.75 77.65 95.6 77.7 95.7" fill="#993300" fill-rule="evenodd" stroke="none"/>
      <path d="M78.2 117.65 L74.25 125.8 74.8 118.9 78.2 117.65 M53.3 119.05 L53.3 127.15 52.9 127.45 49.8 118.05 53.3 119.05 M53.9 132.65 L55.05 133.0 61.5 129.65 65.3 129.95 71.2 133.65 Q68.55 138.7 64.3 142.55 L54.45 137.15 52.95 131.0 53.3 130.75 53.9 132.65" fill="#cacfe6" fill-rule="evenodd" stroke="none"/>
      <path d="M46.35 130.4 Q46.2 129.75 45.5 129.35 L34.6 122.3 45.5 117.2 58.0 160.1 39.55 136.95 46.0 131.15 46.25 130.8 46.35 130.4 M78.15 132.45 Q78.1 133.1 78.5 133.5 L83.35 137.75 59.05 168.25 60.8 164.4 60.65 163.5 61.6 162.5 82.0 116.85 91.3 120.05 78.5 131.8 Q78.2 132.05 78.15 132.45 M62.1 144.8 L57.95 148.95 55.7 141.25 62.1 144.8 M19.35 141.75 L25.7 152.9 29.15 226.15 20.9 218.15 20.1 218.2 11.4 220.85 11.0 221.05 10.7 221.4 6.95 226.05 2.95 203.05 7.55 170.15 17.8 133.4 19.35 141.75 M31.35 123.8 L42.3 130.65 Q39.15 133.15 36.35 136.2 L36.05 136.65 36.3 137.7 57.5 164.3 51.85 177.0 50.65 178.5 51.65 250.55 33.25 250.55 33.1 246.5 34.6 244.6 Q32.75 238.85 32.8 232.8 L32.75 231.7 Q32.7 230.4 32.3 229.3 L28.65 152.4 19.85 127.8 31.35 123.8 M57.8 163.6 L58.55 161.95 58.7 162.5 57.8 163.6 M59.3 151.85 L66.15 144.95 61.8 154.65 59.3 151.85 M81.8 132.7 L94.4 121.25 108.7 128.7 100.0 143.75 96.15 228.2 Q95.0 229.0 95.0 230.35 94.9 235.35 93.65 240.35 L92.95 243.85 Q92.85 244.35 92.9 244.95 L95.25 247.45 95.1 250.55 54.65 250.55 54.0 179.4 86.65 138.4 87.0 137.3 86.7 136.55 81.8 132.7 M110.0 132.45 L117.3 176.2 118.8 224.05 Q117.6 222.55 116.05 221.7 111.8 219.6 107.25 218.2 L106.85 218.15 106.45 218.15 99.3 225.05 103.0 144.3 110.0 132.45" fill="#3a3d6a" fill-rule="evenodd" stroke="none"/>
      <path d="M81.85 18.4 L80.25 91.95 Q78.2 81.6 73.65 72.1 L72.3 69.15 71.15 68.7 71.35 65.15 70.55 64.45 69.45 65.4 69.05 67.95 63.25 69.55 63.6 55.85 64.05 56.35 64.25 55.85 63.3 54.25 Q59.3 49.3 54.2 45.8 50.15 43.05 46.25 45.75 L45.55 46.35 43.45 16.8 44.3 17.65 44.8 17.7 Q50.9 13.4 56.05 18.5 60.1 22.6 62.75 27.5 66.3 21.7 71.1 17.05 73.8 14.45 77.15 15.35 79.8 16.25 81.85 18.4 M61.1 55.3 L61.1 69.4 59.6 68.25 59.85 64.95 58.45 64.7 Q57.3 66.7 56.9 68.85 56.3 72.2 54.95 75.4 49.8 87.85 49.1 101.2 L45.85 52.95 47.1 53.9 48.45 53.55 51.3 54.25 51.1 55.3 51.65 55.85 54.15 56.0 Q54.25 56.95 55.5 57.1 56.65 56.95 57.1 56.1 L58.05 55.8 58.45 55.1 61.1 55.3 M79.05 47.4 L80.5 46.55 80.85 45.6 Q81.85 42.6 79.45 41.35 72.0 43.85 66.1 49.15 64.45 50.55 65.8 52.15 65.8 52.8 66.75 53.3 L68.95 53.75 68.85 54.7 69.4 55.25 71.5 55.25 73.9 56.5 75.5 55.25 76.85 55.25 77.45 54.3 77.05 53.5 Q77.65 52.65 78.4 50.2 L79.05 47.4 M70.35 69.45 Q77.85 84.85 79.65 102.05 80.3 108.1 79.75 113.85 70.8 117.8 61.0 117.6 55.2 117.15 49.95 114.95 L49.05 101.45 49.8 102.3 Q52.15 85.8 58.75 70.05 62.05 72.4 68.55 70.2 L70.35 69.45 M56.45 96.25 L53.25 93.15 52.45 106.6 51.0 110.0 52.1 110.9 Q53.9 108.4 54.8 105.4 56.9 98.6 61.5 93.1 62.9 91.4 64.9 91.6 67.05 91.55 68.5 93.1 74.25 99.4 76.35 107.65 76.5 108.3 77.1 108.05 L78.2 108.35 78.9 107.45 77.6 103.7 Q78.5 100.65 78.75 97.55 78.85 96.2 77.7 95.7 L77.65 95.6 77.55 95.75 74.85 98.15 Q72.65 92.2 66.8 89.75 63.85 88.5 61.35 90.45 58.3 92.75 56.45 96.25 M97.45 239.15 L100.15 242.0 110.5 241.7 111.55 231.6 110.3 230.45 109.1 231.05 107.75 239.4 101.25 239.15 97.9 235.2 97.7 230.85 107.25 221.3 114.6 223.55 120.05 230.55 120.6 242.3 102.45 250.45 95.9 243.9 97.45 239.15 M15.85 231.6 L16.25 236.65 Q16.55 239.15 17.2 241.65 L17.65 242.3 26.85 242.1 29.85 239.05 31.45 243.85 24.85 250.45 6.7 242.3 7.3 230.5 12.7 223.55 20.1 221.3 29.65 230.85 29.45 235.15 26.05 239.15 19.5 239.4 19.0 235.7 18.3 231.85 17.9 230.95 17.6 230.55 16.25 230.9 Q16.1 230.95 16.05 231.05 L15.85 231.6" fill="#edf4f8" fill-rule="evenodd" stroke="none"/>
      <path d="M65.0 120.6 L65.0 126.1 62.8 126.4 63.2 120.6 65.0 120.6 M71.8 118.7 L70.9 129.9 67.9 128.0 68.0 120.1 71.8 118.7 M60.25 120.2 L59.7 127.2 56.3 129.0 56.3 119.1 60.25 120.2" fill="#990000" fill-rule="evenodd" stroke="none"/>
    </g>
    <g id="shape5" transform="matrix(1.0, 0.0, 0.0, 1.0, -0.05, 0.0)">
      <path d="M40.95 2.45 L41.9 2.8 Q42.4 1.4 44.05 1.25 46.25 1.45 46.45 3.8 L46.45 6.35 48.8 8.45 Q56.9 16.5 57.2 28.65 56.85 40.75 48.8 48.85 42.05 55.65 32.45 56.95 L32.05 57.95 Q31.35 59.0 29.8 59.15 28.3 59.0 27.6 58.05 L27.2 57.2 Q16.0 56.45 8.4 48.85 3.45 43.9 1.4 37.45 -0.45 31.7 0.25 25.75 1.75 13.25 11.8 5.55 L12.4 3.05 Q13.25 0.65 15.6 1.55 16.3 1.85 16.4 2.8 L17.0 2.55 Q21.85 0.45 27.2 0.1 33.95 0.0 40.1 2.5 L40.95 2.45 M40.75 9.5 L41.65 9.15 41.65 3.8 40.95 3.4 Q39.9 3.3 39.45 4.1 L39.5 20.75 40.05 21.3 41.6 21.05 41.65 14.2 41.0 13.95 Q39.6 13.25 39.65 11.65 39.65 10.3 40.75 9.5 M43.6 13.8 L42.65 14.2 Q42.3 22.35 43.9 21.75 L44.95 21.3 44.95 2.65 Q44.35 2.05 43.6 2.4 42.9 2.55 42.75 3.3 L42.65 9.15 43.55 9.5 Q44.2 9.85 44.5 10.65 L44.55 12.55 Q44.25 13.35 43.6 13.8 M42.85 10.1 L41.65 10.1 43.85 12.05 42.85 10.1 M40.75 10.9 L40.5 11.65 Q40.7 13.2 42.15 13.3 L42.65 13.2 40.75 10.9 M33.35 54.6 L33.1 55.4 Q42.4 53.9 48.75 46.85 56.75 37.95 55.55 25.9 54.45 15.35 46.45 8.2 L46.45 9.2 46.45 11.55 Q53.05 18.45 53.3 28.6 53.05 39.1 46.05 46.1 40.85 51.3 33.75 52.75 L33.35 54.6 M34.15 50.65 L34.05 51.35 Q40.4 49.85 45.1 45.15 51.7 38.55 51.95 28.6 51.75 19.75 46.45 13.6 L46.45 14.6 Q46.75 17.8 46.0 20.7 45.25 23.6 42.2 21.75 L41.45 22.0 Q39.2 22.8 38.3 20.55 L33.3 21.2 33.3 23.05 33.95 23.4 Q35.1 23.95 34.9 25.15 L34.35 26.45 32.4 27.25 32.4 29.2 33.85 30.25 33.95 31.8 32.3 32.9 Q34.1 41.75 34.15 50.65 M38.25 4.0 L38.65 3.4 Q29.1 -0.05 19.35 3.1 L19.75 3.6 20.0 4.15 Q29.1 3.05 38.25 4.0 M25.35 51.1 L25.1 48.35 Q25.25 40.65 27.35 32.9 26.65 32.65 26.2 32.25 24.7 30.8 26.4 29.55 L26.9 29.2 26.9 27.25 Q25.3 27.3 24.75 25.95 L24.5 24.95 Q24.55 24.05 25.5 23.4 L26.0 23.05 26.0 21.35 19.95 20.65 Q19.2 22.95 16.85 21.95 L16.1 21.7 Q15.1 23.2 13.3 22.4 12.1 22.0 12.05 20.75 L11.8 13.3 11.8 12.35 Q5.45 18.9 5.2 28.6 5.45 38.55 12.05 45.15 17.6 50.7 25.5 51.75 L25.35 51.1 M16.8 15.6 L16.5 20.75 17.35 21.35 Q18.95 21.55 19.0 19.95 19.1 12.15 18.85 4.35 L18.65 3.7 17.7 3.35 16.6 3.85 16.95 9.95 Q17.9 10.35 18.3 11.4 L18.35 13.15 16.85 14.9 16.8 15.6 M38.2 19.4 L38.2 5.0 Q29.6 4.0 20.9 5.1 L20.0 5.2 20.1 19.4 Q29.1 21.65 38.2 19.4 M33.5 24.4 Q33.3 23.9 32.85 23.9 L27.1 23.4 Q24.95 24.0 26.25 25.85 L26.9 26.45 32.3 26.4 Q33.3 26.4 33.55 25.55 33.7 24.95 33.5 24.4 M27.15 21.35 L27.15 22.95 32.0 22.95 32.0 21.35 27.15 21.35 M15.1 9.8 L15.65 9.7 15.35 3.25 14.95 2.65 14.2 2.25 Q12.95 2.6 12.95 4.0 L13.1 20.6 Q13.1 21.5 14.2 21.7 15.6 21.55 15.55 20.15 L15.3 15.05 Q13.7 14.6 13.35 13.25 L13.3 11.85 Q13.6 10.25 15.1 9.8 M26.35 54.95 L25.85 53.15 Q17.2 52.25 11.1 46.1 3.0 37.75 4.15 26.1 5.05 16.85 11.8 10.5 L11.8 8.1 11.8 7.3 Q2.9 14.65 1.7 25.95 0.55 37.1 7.7 45.9 15.0 54.85 26.6 55.7 L26.35 54.95 M17.25 11.6 L16.6 10.8 15.15 10.8 17.3 13.05 17.25 11.6 M14.45 11.5 L14.2 12.25 Q14.3 13.7 15.85 13.9 L16.6 13.7 14.45 11.5 M27.3 30.4 L26.75 31.15 27.3 32.2 32.6 31.95 32.8 30.9 32.4 30.15 31.05 30.2 27.3 30.4 M31.25 29.1 L31.25 27.25 28.2 27.25 28.3 29.1 31.25 29.1 M32.6 42.15 Q32.15 37.5 31.2 32.9 L28.45 32.9 27.2 39.55 Q26.25 45.2 26.95 51.0 L27.15 52.3 27.15 52.25 Q27.35 49.85 29.75 49.65 31.9 49.85 32.3 51.85 33.05 47.05 32.6 42.15 M30.7 58.1 L32.0 53.55 Q31.35 54.95 29.75 54.85 27.85 54.65 27.35 53.05 L28.65 57.7 30.7 58.1 M29.0 53.7 L29.75 53.95 Q31.9 53.5 31.2 51.5 L29.0 53.7 M29.75 50.6 Q28.25 50.75 28.1 52.25 L28.35 53.05 30.55 50.85 29.75 50.6" fill="#212753" fill-rule="evenodd" stroke="none"/>
      <path d="M40.95 2.45 L40.1 2.5 Q33.95 0.0 27.2 0.1 L29.2 0.0 Q35.6 0.15 40.95 2.45 M46.45 9.2 L46.45 8.2 Q54.45 15.35 55.55 25.9 56.75 37.95 48.75 46.85 42.4 53.9 33.1 55.4 L33.35 54.6 Q44.1 52.5 50.45 43.3 55.05 36.65 54.95 28.6 54.75 17.0 46.45 9.2 M46.45 14.6 L46.45 13.6 Q51.75 19.75 51.95 28.6 51.7 38.55 45.1 45.15 40.4 49.85 34.05 51.35 L34.15 50.65 Q40.2 49.15 44.65 44.7 51.05 38.3 51.3 28.65 51.15 20.45 46.45 14.6 M19.75 3.6 L19.35 3.1 Q29.1 -0.05 38.65 3.4 L38.25 4.0 Q33.8 2.25 28.5 2.1 23.8 2.25 19.75 3.6 M25.35 51.1 L25.5 51.75 Q17.6 50.7 12.05 45.15 5.45 38.55 5.2 28.6 5.45 18.9 11.8 12.35 L11.8 13.3 Q6.1 19.55 5.85 28.65 6.1 38.3 12.5 44.7 17.85 50.0 25.35 51.1 M26.35 54.95 L26.6 55.7 Q15.0 54.85 7.7 45.9 0.55 37.1 1.7 25.95 2.9 14.65 11.8 7.3 L11.8 8.1 Q3.55 15.15 2.3 25.9 1.25 35.3 6.7 43.25 13.85 53.8 26.35 54.95" fill="#514f6f" fill-rule="evenodd" stroke="none"/>
      <path d="M41.0 13.95 L41.65 14.2 41.6 21.05 40.05 21.3 39.5 20.75 39.45 4.1 Q39.9 3.3 40.95 3.4 L41.65 3.8 41.65 9.15 40.75 9.5 40.4 4.85 Q39.7 5.45 39.65 6.45 39.35 12.5 39.85 18.55 39.95 19.55 40.65 19.75 41.55 19.1 41.5 17.7 L41.0 13.95 M43.55 9.5 L42.65 9.15 42.75 3.3 Q42.9 2.55 43.6 2.4 44.35 2.05 44.95 2.65 L44.95 21.3 43.9 21.75 Q42.3 22.35 42.65 14.2 L43.6 13.8 44.0 20.3 44.55 12.55 44.5 10.65 44.25 4.4 43.55 4.3 43.55 9.5 M36.15 9.6 Q34.9 7.5 32.4 7.85 29.75 8.15 27.1 7.8 24.95 7.25 23.1 8.3 20.7 10.35 22.5 12.35 24.25 14.4 26.55 15.0 L31.75 15.4 Q34.7 15.25 36.3 13.5 37.3 11.55 36.15 9.6 M27.5 24.1 L27.45 24.1 Q26.9 24.25 26.9 24.5 26.85 24.85 27.9 25.35 L30.85 25.25 Q31.6 24.85 31.6 24.5 31.5 24.1 30.4 23.85 L27.5 24.1 M27.15 21.35 L32.0 21.35 32.0 22.95 27.15 22.95 27.15 21.35 M33.5 24.4 Q33.7 24.95 33.55 25.55 33.3 26.4 32.3 26.4 L26.9 26.45 26.25 25.85 Q24.95 24.0 27.1 23.4 L32.85 23.9 Q33.3 23.9 33.5 24.4 M38.2 19.4 Q29.1 21.65 20.1 19.4 L20.0 5.2 20.9 5.1 Q29.6 4.0 38.2 5.0 L38.2 19.4 M16.95 9.95 L16.6 3.85 17.7 3.35 18.65 3.7 18.85 4.35 Q19.1 12.15 19.0 19.95 18.95 21.55 17.35 21.35 L16.5 20.75 16.8 15.6 17.85 19.6 18.35 13.15 18.3 11.4 17.45 5.4 16.95 9.95 M15.3 15.05 L15.55 20.15 Q15.6 21.55 14.2 21.7 13.1 21.5 13.1 20.6 L12.95 4.0 Q12.95 2.6 14.2 2.25 L14.95 2.65 15.35 3.25 15.65 9.7 15.1 9.8 14.3 3.55 13.4 4.2 13.3 11.85 13.35 13.25 14.15 20.3 14.85 20.25 15.3 15.05 M31.05 30.2 L32.4 30.15 32.8 30.9 32.6 31.95 27.3 32.2 26.75 31.15 27.3 30.4 27.4 31.15 31.25 31.35 31.5 30.7 31.05 30.2 M31.25 29.1 L28.3 29.1 28.2 27.25 31.25 27.25 31.25 29.1 M27.9 48.35 Q29.05 49.75 30.55 48.65 32.0 47.2 31.6 44.95 31.65 41.3 30.8 37.75 30.7 36.45 29.75 35.6 28.7 35.65 28.3 38.1 27.95 40.5 27.95 41.5 26.8 45.1 27.9 48.35 M32.6 42.15 Q33.05 47.05 32.3 51.85 31.9 49.85 29.75 49.65 27.35 49.85 27.15 52.25 L27.15 52.3 26.95 51.0 Q26.25 45.2 27.2 39.55 L28.45 32.9 31.2 32.9 Q32.15 37.5 32.6 42.15 M30.7 58.1 L28.65 57.7 27.35 53.05 Q27.85 54.65 29.75 54.85 31.35 54.95 32.0 53.55 L30.7 58.1 M29.1 55.9 Q28.65 57.55 30.25 57.4 31.35 56.6 30.65 55.85 L29.1 55.9" fill="#69839d" fill-rule="evenodd" stroke="none"/>
      <path d="M40.75 9.5 Q39.65 10.3 39.65 11.65 39.6 13.25 41.0 13.95 L41.5 17.7 Q41.55 19.1 40.65 19.75 39.95 19.55 39.85 18.55 39.35 12.5 39.65 6.45 39.7 5.45 40.4 4.85 L40.75 9.5 M43.55 9.5 L43.55 4.3 44.25 4.4 44.5 10.65 Q44.2 9.85 43.55 9.5 M44.55 12.55 L44.0 20.3 43.6 13.8 Q44.25 13.35 44.55 12.55 M34.2 11.4 L33.9 10.25 26.9 9.5 Q25.3 9.3 24.4 10.6 24.5 12.95 27.0 13.65 31.6 14.85 34.2 11.4 M36.15 9.6 Q37.3 11.55 36.3 13.5 34.7 15.25 31.75 15.4 L26.55 15.0 Q24.25 14.4 22.5 12.35 20.7 10.35 23.1 8.3 24.95 7.25 27.1 7.8 29.75 8.15 32.4 7.85 34.9 7.5 36.15 9.6 M27.5 24.1 L30.4 23.85 Q31.5 24.1 31.6 24.5 31.6 24.85 30.85 25.25 L27.9 25.35 Q26.85 24.85 26.9 24.5 26.9 24.25 27.45 24.1 L27.5 24.1 M16.8 15.6 L16.85 14.9 18.35 13.15 17.85 19.6 16.8 15.6 M18.3 11.4 Q17.9 10.35 16.95 9.95 L17.45 5.4 18.3 11.4 M15.3 15.05 L14.85 20.25 14.15 20.3 13.35 13.25 Q13.7 14.6 15.3 15.05 M13.3 11.85 L13.4 4.2 14.3 3.55 15.1 9.8 Q13.6 10.25 13.3 11.85 M27.3 30.4 L31.05 30.2 31.5 30.7 31.25 31.35 27.4 31.15 27.3 30.4 M27.9 48.35 Q26.8 45.1 27.95 41.5 27.95 40.5 28.3 38.1 28.7 35.65 29.75 35.6 30.7 36.45 30.8 37.75 31.65 41.3 31.6 44.95 32.0 47.2 30.55 48.65 29.05 49.75 27.9 48.35 M29.1 55.9 L30.65 55.85 Q31.35 56.6 30.25 57.4 28.65 57.55 29.1 55.9" fill="#899db1" fill-rule="evenodd" stroke="none"/>
      <path d="M40.75 10.9 L42.65 13.2 42.15 13.3 Q40.7 13.2 40.5 11.65 L40.75 10.9 M42.85 10.1 L43.85 12.05 41.65 10.1 42.85 10.1 M14.45 11.5 L16.6 13.7 15.85 13.9 Q14.3 13.7 14.2 12.25 L14.45 11.5 M17.25 11.6 L17.3 13.05 15.15 10.8 16.6 10.8 17.25 11.6 M29.75 50.6 L30.55 50.85 28.35 53.05 28.1 52.25 Q28.25 50.75 29.75 50.6 M29.0 53.7 L31.2 51.5 Q31.9 53.5 29.75 53.95 L29.0 53.7" fill="#a1b1c1" fill-rule="evenodd" stroke="none"/>
      <path d="M33.35 54.6 L33.75 52.75 Q40.85 51.3 46.05 46.1 53.05 39.1 53.3 28.6 53.05 18.45 46.45 11.55 L46.45 9.2 Q54.75 17.0 54.95 28.6 55.05 36.65 50.45 43.3 44.1 52.5 33.35 54.6 M45.35 22.9 Q47.1 21.7 46.9 19.6 L46.55 17.25 Q49.55 22.9 49.55 29.45 49.05 40.8 38.0 44.45 L34.9 45.55 34.8 45.15 34.35 43.45 Q38.75 41.7 42.1 38.05 45.75 33.5 45.85 27.7 45.85 25.2 45.35 22.9 M38.25 4.0 Q29.1 3.05 20.0 4.15 L19.75 3.6 Q23.8 2.25 28.5 2.1 33.8 2.25 38.25 4.0 M24.25 45.1 Q24.15 46.55 24.3 47.8 17.65 47.8 13.35 43.15 8.2 37.55 7.7 29.6 7.2 22.7 11.3 17.35 L11.35 17.65 Q11.15 19.95 11.85 21.75 7.8 29.5 12.4 37.1 16.5 43.85 24.25 45.1 M11.8 8.1 L11.8 10.5 Q5.05 16.85 4.15 26.1 3.0 37.75 11.1 46.1 17.2 52.25 25.85 53.15 L26.35 54.95 Q13.85 53.8 6.7 43.25 1.25 35.3 2.3 25.9 3.55 15.15 11.8 8.1" fill="#afc1d9" fill-rule="evenodd" stroke="none"/>
      <path d="M34.15 50.65 Q34.1 41.75 32.3 32.9 L33.95 31.8 34.35 43.45 34.8 45.15 34.9 45.55 38.0 44.45 Q49.05 40.8 49.55 29.45 49.55 22.9 46.55 17.25 L46.9 19.6 Q47.1 21.7 45.35 22.9 L35.9 22.55 34.9 25.15 Q35.1 23.95 33.95 23.4 L33.3 23.05 33.3 21.2 38.3 20.55 Q39.2 22.8 41.45 22.0 L42.2 21.75 Q45.25 23.6 46.0 20.7 46.75 17.8 46.45 14.6 51.15 20.45 51.3 28.65 51.05 38.3 44.65 44.7 40.2 49.15 34.15 50.65 M33.85 30.25 L32.4 29.2 32.4 27.25 34.35 26.45 33.6 28.35 33.85 30.25 M24.25 45.1 L24.95 39.9 Q25.7 35.8 24.45 31.95 L25.5 28.35 23.3 25.55 24.45 22.3 Q22.8 22.45 21.25 23.1 17.0 25.0 12.6 23.2 L11.85 21.75 Q11.15 19.95 11.35 17.65 L11.3 17.35 Q7.2 22.7 7.7 29.6 8.2 37.55 13.35 43.15 17.65 47.8 24.3 47.8 24.15 46.55 24.25 45.1 M11.8 13.3 L12.05 20.75 Q12.1 22.0 13.3 22.4 15.1 23.2 16.1 21.7 L16.85 21.95 Q19.2 22.95 19.95 20.65 L26.0 21.35 26.0 23.05 25.5 23.4 Q24.55 24.05 24.5 24.95 L24.75 25.95 Q25.3 27.3 26.9 27.25 L26.9 29.2 26.4 29.55 Q24.7 30.8 26.2 32.25 26.65 32.65 27.35 32.9 25.25 40.65 25.1 48.35 L25.35 51.1 Q17.85 50.0 12.5 44.7 6.1 38.3 5.85 28.65 6.1 19.55 11.8 13.3" fill="#9ab4cc" fill-rule="evenodd" stroke="none"/>
      <path d="M33.95 31.8 L33.85 30.25 33.6 28.35 34.35 26.45 34.9 25.15 35.9 22.55 45.35 22.9 Q45.85 25.2 45.85 27.7 45.75 33.5 42.1 38.05 38.75 41.7 34.35 43.45 L33.95 31.8 M11.85 21.75 L12.6 23.2 Q17.0 25.0 21.25 23.1 22.8 22.45 24.45 22.3 L23.3 25.55 25.5 28.35 24.45 31.95 Q25.7 35.8 24.95 39.9 L24.25 45.1 Q16.5 43.85 12.4 37.1 7.8 29.5 11.85 21.75" fill="#c5d3e3" fill-rule="evenodd" stroke="none"/>
      <path d="M34.2 11.4 Q31.6 14.85 27.0 13.65 24.5 12.95 24.4 10.6 25.3 9.3 26.9 9.5 L33.9 10.25 34.2 11.4" fill="#a1b3bf" fill-rule="evenodd" stroke="none"/>
    </g>
  </defs>
</svg>
