<?xml version="1.0" encoding="UTF-8" standalone="no"?>
<svg xmlns:xlink="http://www.w3.org/1999/xlink" height="433.1px" width="327.95px" xmlns="http://www.w3.org/2000/svg">
  <g transform="matrix(1.0, 0.0, 0.0, 1.0, 164.0, 433.1)">
    <use height="36.0" transform="matrix(1.0, 0.0, 0.0, 1.0, -79.5, -36.0)" width="159.0" xlink:href="#shape0"/>
    <use height="96.65" transform="matrix(1.0, 0.0, 0.0, 1.0, -27.1, -108.0)" width="54.2" xlink:href="#shape1"/>
    <use height="37.0" transform="matrix(1.0, 0.0, 0.0, 1.0, -92.6, -94.35)" width="185.25" xlink:href="#shape2"/>
    <use height="15.35" transform="matrix(1.0, 0.0, 0.0, 1.0, -80.35, -81.0)" width="160.05" xlink:href="#text0"/>
    <use height="285.85" transform="matrix(1.0, 0.0, 0.0, 1.0, -117.7, -386.7)" width="235.4" xlink:href="#shape3"/>
    <use height="263.5" transform="matrix(1.0, 0.0, 0.0, 1.0, -100.8, -366.55)" width="207.45" xlink:href="#shape4"/>
    <use height="59.15" transform="matrix(1.0, 0.0, 0.0, 1.0, -29.1, -227.0)" width="57.15" xlink:href="#shape5"/>
  </g>
  <defs>
    <g id="shape0" transform="matrix(1.0, 0.0, 0.0, 1.0, 0.0, 0.0)">
      <path d="M135.7 30.75 Q113.3 35.8 79.5 36.0 45.7 35.8 23.3 30.75 0.85 25.65 0.0 18.0 0.85 10.35 23.3 5.25 45.7 0.2 79.5 0.0 113.3 0.2 135.7 5.25 158.15 10.35 159.0 18.0 158.15 25.65 135.7 30.75" fill="#000000" fill-opacity="0.39607844" fill-rule="evenodd" stroke="none"/>
    </g>
    <g id="shape1" transform="matrix(1.0, 0.0, 0.0, 1.0, 0.0, 0.0)">
      <path d="M5.85 93.35 Q-0.15 90.4 0.0 90.0 L0.0 0.0 54.2 0.0 54.2 90.0 Q54.15 90.4 46.95 93.35 39.7 96.25 25.65 96.65 11.8 96.25 5.85 93.35" fill="url(#gradient0)" fill-rule="evenodd" stroke="none"/>
    </g>
    <linearGradient gradientTransform="matrix(0.0303, 0.0, 0.0, 0.0303, 25.7, 48.35)" gradientUnits="userSpaceOnUse" id="gradient0" spreadMethod="pad" x1="-819.2" x2="819.2">
      <stop offset="0.0" stop-color="#565656"/>
      <stop offset="0.403921568627451" stop-color="#9a9999"/>
      <stop offset="0.592156862745098" stop-color="#dbdbda"/>
      <stop offset="0.7803921568627451" stop-color="#9b9a9a"/>
      <stop offset="1.0" stop-color="#151213"/>
    </linearGradient>
    <g id="shape2" transform="matrix(1.0, 0.0, 0.0, 1.0, -0.05, 0.0)">
      <path d="M185.25 8.2 L185.3 8.25 185.25 8.25 185.25 8.2 M1.9 5.2 L2.3 2.85 18.75 2.05 59.05 0.7 Q83.4 0.05 109.4 0.3 115.1 0.55 118.85 1.6 122.65 2.7 128.15 3.0 L129.3 1.5 Q130.05 0.2 130.5 0.0 160.7 0.5 181.5 3.85 L183.45 6.1 103.3 3.5 Q60.0 3.6 6.5 5.1 L1.9 5.2 M176.25 8.0 L176.45 8.4 177.65 11.45 178.5 13.65 Q179.3 12.8 179.7 10.9 179.7 9.8 179.25 9.1 L179.9 9.55 Q180.65 10.3 180.7 11.75 179.85 15.7 177.15 15.05 175.8 14.75 175.1 13.85 L176.15 14.2 177.35 14.25 176.45 12.35 174.9 8.8 174.8 8.5 174.95 8.35 Q175.75 7.8 176.25 8.0 M178.25 27.3 L179.85 27.15 Q180.5 27.3 181.25 27.95 183.6 31.2 181.35 32.8 180.2 33.6 179.1 33.5 L180.8 32.15 178.8 31.55 175.1 30.4 175.2 29.1 175.2 29.0 175.25 28.7 175.4 28.75 175.85 28.9 178.95 30.05 181.1 30.85 Q181.0 29.65 179.9 28.15 179.05 27.45 178.25 27.3 M9.35 6.95 L10.7 10.45 11.7 12.9 Q12.6 11.95 13.05 9.85 13.05 8.55 12.5 7.75 13.85 8.35 14.15 10.05 L13.75 12.35 Q12.6 15.1 10.15 14.55 8.75 14.25 8.0 13.4 L7.85 13.2 9.0 13.6 10.35 13.65 9.35 11.4 7.6 7.45 8.75 6.6 9.2 6.55 9.35 6.95 M9.4 25.3 Q11.0 24.35 12.9 25.8 15.0 28.35 14.35 30.1 L13.4 31.3 Q12.2 32.25 10.95 32.25 L12.75 30.6 10.4 30.05 6.2 29.05 6.15 27.55 6.15 27.1 6.35 27.15 6.9 27.35 10.45 28.4 12.95 29.1 Q12.75 27.8 11.35 26.15 10.35 25.35 9.4 25.3" fill="#47525f" fill-rule="evenodd" stroke="none"/>
      <path d="M0.05 36.7 L0.75 22.9 Q1.05 14.95 1.6 7.0 L1.9 5.2 6.5 5.1 3.2 8.3 1.95 36.45 0.05 36.7" fill="#cdcdcd" fill-rule="evenodd" stroke="none"/>
      <path d="M13.75 12.35 L14.15 10.05 26.45 10.0 13.75 12.35 M8.0 13.4 L7.0 13.55 7.2 26.2 6.35 27.15 6.15 27.1 6.15 27.55 Q5.15 29.5 6.75 31.55 8.95 33.2 10.95 32.25 12.2 32.25 13.4 31.3 L14.35 30.1 16.45 30.2 36.65 31.3 56.5 32.6 Q50.4 32.9 38.0 32.9 L15.1 32.75 3.85 32.6 5.25 10.05 6.0 10.05 Q6.15 12.3 7.85 13.2 L8.0 13.4" fill="#848484" fill-rule="evenodd" stroke="none"/>
      <path d="M175.1 13.85 Q175.8 14.75 177.15 15.05 179.85 15.7 180.7 11.75 180.65 10.3 179.9 9.55 L180.85 9.65 179.85 27.15 178.25 27.3 177.7 27.3 177.8 15.2 160.95 13.3 Q144.35 11.4 115.0 6.95 144.55 7.2 162.45 8.35 L174.1 9.15 Q173.65 9.7 173.4 10.6 173.45 12.95 175.1 13.85 M175.3 32.3 L137.05 30.55 175.2 29.0 175.2 29.1 Q174.3 30.55 175.3 32.3" fill="#a09fa0" fill-rule="evenodd" stroke="none"/>
      <path d="M176.45 8.4 L176.25 8.0 176.9 7.95 Q178.55 8.05 179.25 9.1 179.7 9.8 179.7 10.9 179.3 12.8 178.5 13.65 L177.65 11.45 178.05 10.25 Q178.0 8.55 176.45 8.4 M174.8 8.5 L174.9 8.8 Q174.35 9.2 174.15 10.05 174.2 11.9 175.85 12.3 L176.45 12.35 177.35 14.25 176.15 14.2 175.1 13.85 Q173.45 12.95 173.4 10.6 173.65 9.7 174.1 9.15 L174.8 8.5 M177.7 27.3 L178.25 27.3 Q179.05 27.45 179.9 28.15 181.0 29.65 181.1 30.85 L178.95 30.05 178.3 28.9 Q177.0 27.8 175.85 28.9 L175.4 28.75 175.8 28.3 Q176.7 27.35 177.7 27.3 M179.1 33.5 Q177.3 34.2 175.5 32.65 L175.3 32.3 Q174.3 30.55 175.2 29.1 L175.1 30.4 Q175.25 32.1 176.95 32.35 178.0 32.25 178.8 31.55 L180.8 32.15 179.1 33.5 M10.7 10.45 L11.2 9.05 Q11.15 7.15 9.35 6.95 L9.2 6.55 9.9 6.5 Q11.75 6.6 12.5 7.75 13.05 8.55 13.05 9.85 12.6 11.95 11.7 12.9 L10.7 10.45 M7.2 26.2 Q8.2 25.2 9.4 25.3 10.35 25.35 11.35 26.15 12.75 27.8 12.95 29.1 L10.45 28.4 Q9.75 26.65 8.05 26.6 L6.9 27.35 6.35 27.15 7.2 26.2 M6.0 10.05 L5.95 9.55 Q6.6 7.0 8.75 6.6 L7.6 7.45 Q7.0 7.9 6.75 8.85 6.8 10.95 8.7 11.35 L9.35 11.4 10.35 13.65 9.0 13.6 7.85 13.2 Q6.15 12.3 6.0 10.05 M6.15 27.55 L6.2 29.05 Q6.45 30.9 8.2 31.1 9.7 31.2 10.4 30.05 L12.75 30.6 10.95 32.25 Q8.95 33.2 6.75 31.55 5.15 29.5 6.15 27.55" fill="#9c9c9c" fill-rule="evenodd" stroke="none"/>
      <path d="M174.9 8.8 L176.45 12.35 175.85 12.3 Q174.2 11.9 174.15 10.05 174.35 9.2 174.9 8.8 M177.65 11.45 L176.45 8.4 Q178.0 8.55 178.05 10.25 L177.65 11.45 M175.85 28.9 Q177.0 27.8 178.3 28.9 L178.95 30.05 175.85 28.9 M175.1 30.4 L178.8 31.55 Q178.0 32.25 176.95 32.35 175.25 32.1 175.1 30.4 M9.35 6.95 Q11.15 7.15 11.2 9.05 L10.7 10.45 9.35 6.95 M9.35 11.4 L8.7 11.35 Q6.8 10.95 6.75 8.85 7.0 7.9 7.6 7.45 L9.35 11.4 M10.45 28.4 L6.9 27.35 8.05 26.6 Q9.75 26.65 10.45 28.4 M6.2 29.05 L10.4 30.05 Q9.7 31.2 8.2 31.1 6.45 30.9 6.2 29.05" fill="#d5d4d4" fill-rule="evenodd" stroke="none"/>
      <path d="M183.45 6.1 L185.3 6.25 185.25 8.2 185.25 8.25 185.1 13.45 184.65 27.3 184.3 36.25 Q157.35 34.75 133.85 35.55 L89.2 37.0 Q65.15 37.15 43.55 35.85 22.0 34.5 0.05 36.75 L0.05 36.7 1.95 36.45 3.2 8.3 6.5 5.1 Q60.0 3.6 103.3 3.5 L183.45 6.1 M176.25 8.0 Q175.75 7.8 174.95 8.35 L174.8 8.5 174.1 9.15 162.45 8.35 Q144.55 7.2 115.0 6.95 144.35 11.4 160.95 13.3 L177.8 15.2 177.7 27.3 Q176.7 27.35 175.8 28.3 L175.4 28.75 175.25 28.7 175.2 29.0 137.05 30.55 175.3 32.3 175.5 32.65 Q177.3 34.2 179.1 33.5 180.2 33.6 181.35 32.8 183.6 31.2 181.25 27.95 180.5 27.3 179.85 27.15 L180.85 9.65 179.9 9.55 179.25 9.1 Q178.55 8.05 176.9 7.95 L176.25 8.0 M12.5 7.75 Q11.75 6.6 9.9 6.5 L9.2 6.55 8.75 6.6 Q6.6 7.0 5.95 9.55 L6.0 10.05 5.25 10.05 3.85 32.6 15.1 32.75 38.0 32.9 Q50.4 32.9 56.5 32.6 L36.65 31.3 16.45 30.2 14.35 30.1 Q15.0 28.35 12.9 25.8 11.0 24.35 9.4 25.3 8.2 25.2 7.2 26.2 L7.0 13.55 8.0 13.4 Q8.75 14.25 10.15 14.55 12.6 15.1 13.75 12.35 L26.45 10.0 14.15 10.05 Q13.85 8.35 12.5 7.75" fill="url(#gradient1)" fill-rule="evenodd" stroke="none"/>
    </g>
    <linearGradient gradientTransform="matrix(0.1131, 0.0, 0.0, 0.0204, 92.65, 20.25)" gradientUnits="userSpaceOnUse" id="gradient1" spreadMethod="pad" x1="-819.2" x2="819.2">
      <stop offset="0.0" stop-color="#9a9a9a"/>
      <stop offset="1.0" stop-color="#ffffff"/>
    </linearGradient>
    <g id="text0" transform="matrix(1.0, 0.0, 0.0, 1.0, 7.45, -5.75)">
      <g transform="matrix(1.0, 0.0, 0.0, 1.0, -8.7, 0.0)">
        <use fill="#000000" height="15.35" transform="matrix(0.4746, 0.0, 0.0, 0.4746, 0.0, 21.0)" width="160.05" xlink:href="#font_______W7_D0"/>
        <use fill="#000000" height="15.35" transform="matrix(0.4746, 0.0, 0.0, 0.4746, 16.6, 21.0)" width="160.05" xlink:href="#font_______W7_o0"/>
        <use fill="#000000" height="15.35" transform="matrix(0.4746, 0.0, 0.0, 0.4746, 29.5, 21.0)" width="160.05" xlink:href="#font_______W7_u0"/>
        <use fill="#000000" height="15.35" transform="matrix(0.4746, 0.0, 0.0, 0.4746, 43.0, 21.0)" width="160.05" xlink:href="#font_______W7_b0"/>
        <use fill="#000000" height="15.35" transform="matrix(0.4746, 0.0, 0.0, 0.4746, 57.1, 21.0)" width="160.05" xlink:href="#font_______W7_l0"/>
        <use fill="#000000" height="15.35" transform="matrix(0.4746, 0.0, 0.0, 0.4746, 65.9, 21.0)" width="160.05" xlink:href="#font_______W7_e0"/>
        <use fill="#000000" height="15.35" transform="matrix(0.4746, 0.0, 0.0, 0.4746, 87.25, 21.0)" width="160.05" xlink:href="#font_______W7_T0"/>
        <use fill="#000000" height="15.35" transform="matrix(0.4746, 0.0, 0.0, 0.4746, 102.8, 21.0)" width="160.05" xlink:href="#font_______W7_a0"/>
        <use fill="#000000" height="15.35" transform="matrix(0.4746, 0.0, 0.0, 0.4746, 116.6, 21.0)" width="160.05" xlink:href="#font_______W7_l0"/>
        <use fill="#000000" height="15.35" transform="matrix(0.4746, 0.0, 0.0, 0.4746, 125.4, 21.0)" width="160.05" xlink:href="#font_______W7_k0"/>
        <use fill="#000000" height="15.35" transform="matrix(0.4746, 0.0, 0.0, 0.4746, 139.15, 21.0)" width="160.05" xlink:href="#font_______W7_e0"/>
        <use fill="#000000" height="15.35" transform="matrix(0.4746, 0.0, 0.0, 0.4746, 152.55, 21.0)" width="160.05" xlink:href="#font_______W7_r0"/>
      </g>
    </g>
    <g id="font_______W7_D0">
      <path d="M26.25 -17.9 L26.25 -17.9 Q26.25 -14.65 24.8 -12.6 23.1 -10.25 20.0 -10.25 16.6 -10.25 14.1 -12.65 L12.3 -9.6 10.95 -24.15 Q14.8 -25.95 17.05 -25.95 20.5 -25.95 23.3 -23.65 26.25 -21.25 26.25 -17.9 M33.4 -15.95 L33.4 -15.95 Q33.4 -22.6 29.35 -27.0 25.15 -31.55 18.55 -31.55 14.75 -31.55 10.4 -29.7 L10.25 -31.5 5.3 -32.15 2.55 0.05 13.15 -1.1 13.1 -1.6 Q15.65 -0.6 18.75 -0.6 25.45 -0.6 29.5 -4.95 33.4 -9.15 33.4 -15.95" fill-rule="evenodd" stroke="none"/>
    </g>
    <g id="font_______W7_o0">
      <path d="M15.8 -13.5 L15.8 -13.5 Q16.45 -11.85 16.45 -10.4 16.45 -6.85 12.35 -6.85 10.6 -6.85 9.35 -8.05 8.15 -9.35 8.15 -11.05 8.15 -13.25 9.8 -14.6 11.4 -16.0 13.7 -16.0 16.1 -16.0 18.3 -14.3 L15.8 -13.5 M25.7 -11.4 L25.7 -11.4 Q25.7 -13.8 24.75 -16.35 L21.25 -15.25 22.7 -17.2 Q18.35 -21.45 13.15 -21.45 8.45 -21.45 5.1 -18.2 1.8 -14.95 1.8 -10.3 1.8 -5.5 5.4 -2.65 8.65 0.05 13.65 0.05 18.75 0.05 22.2 -3.2 25.7 -6.4 25.7 -11.4" fill-rule="evenodd" stroke="none"/>
    </g>
    <g id="font_______W7_u0">
      <path d="M24.1 -20.75 L24.1 -20.75 19.25 -21.45 17.9 -8.95 16.15 -11.65 Q13.35 -8.1 10.6 -8.1 9.0 -8.1 8.15 -9.4 7.25 -10.65 7.25 -12.3 7.25 -15.75 8.6 -19.75 L3.9 -21.15 Q2.05 -16.35 2.05 -11.4 2.05 -6.45 4.25 -3.4 6.75 0.05 11.5 0.05 14.55 0.05 17.1 -1.5 L16.95 0.1 26.8 -1.35 24.1 -20.75" fill-rule="evenodd" stroke="none"/>
    </g>
    <g id="font_______W7_b0">
      <path d="M20.9 -12.9 L20.9 -12.9 Q20.9 -9.4 17.6 -9.4 15.3 -9.4 13.25 -11.85 L11.45 -8.4 10.95 -14.2 Q13.25 -16.5 16.3 -16.5 17.85 -16.5 19.35 -15.5 20.9 -14.45 20.9 -12.9 M28.25 -10.45 L28.25 -10.45 Q28.25 -15.0 25.1 -18.25 21.9 -21.45 17.35 -21.45 13.75 -21.45 10.5 -19.25 L9.35 -31.5 4.65 -32.15 2.05 0.05 12.15 -0.75 12.15 -2.05 Q14.7 0.05 18.2 0.05 22.6 0.05 25.4 -3.0 28.25 -6.0 28.25 -10.45" fill-rule="evenodd" stroke="none"/>
    </g>
    <g id="font_______W7_l0">
      <path d="M11.6 -31.5 L11.6 -31.5 6.9 -32.15 4.35 0.05 14.4 -1.4 11.6 -31.5" fill-rule="evenodd" stroke="none"/>
    </g>
    <g id="font_______W7_e0">
      <path d="M19.45 -9.9 L19.45 -9.9 Q16.75 -7.55 13.6 -7.55 10.45 -7.55 9.15 -9.9 L19.45 -9.9 M9.0 -13.4 L9.0 -13.4 Q9.7 -14.95 11.5 -15.95 13.2 -16.8 15.1 -16.8 18.05 -16.8 19.65 -14.35 L9.0 -13.4 M23.25 -9.9 L23.25 -9.9 24.3 -9.9 26.7 -12.6 Q25.85 -16.7 22.9 -19.1 19.9 -21.45 15.15 -21.45 9.65 -21.45 5.9 -18.65 1.8 -15.6 1.8 -10.4 1.8 -5.35 5.8 -2.5 9.3 0.05 14.6 0.05 22.45 0.05 27.15 -4.25 L23.25 -9.9" fill-rule="evenodd" stroke="none"/>
    </g>
    <g id="font_______W7_T0">
      <path d="M30.8 -32.15 L30.8 -32.15 0.75 -29.4 1.85 -24.25 13.45 -24.25 11.0 0.05 21.6 -1.1 18.95 -24.25 32.35 -24.25 30.8 -32.15" fill-rule="evenodd" stroke="none"/>
    </g>
    <g id="font_______W7_a0">
      <path d="M19.05 -8.85 L19.05 -8.85 18.5 -5.05 17.1 -9.0 Q14.35 -6.2 10.6 -6.2 9.95 -6.2 9.45 -6.75 9.0 -7.2 9.0 -7.85 9.0 -10.2 13.7 -10.2 15.9 -10.2 19.05 -8.85 M27.4 -6.8 L27.4 -6.8 Q27.4 -21.45 13.35 -21.45 7.15 -21.45 2.55 -18.35 L4.3 -14.35 Q8.3 -16.55 13.15 -16.55 17.85 -16.55 18.85 -13.35 15.4 -14.5 12.8 -14.5 8.6 -14.5 5.6 -12.8 1.8 -10.75 1.8 -6.95 1.8 -3.5 4.9 -1.55 7.55 0.05 11.15 0.05 13.95 0.05 17.35 -0.95 L17.0 0.15 26.7 -0.3 Q27.4 -3.45 27.4 -6.8" fill-rule="evenodd" stroke="none"/>
    </g>
    <g id="font_______W7_k0">
      <path d="M20.35 -12.2 L20.35 -12.2 26.9 -17.9 24.8 -21.8 10.85 -14.65 9.3 -31.45 4.6 -32.15 2.05 0.05 12.1 -1.4 11.35 -9.1 13.25 -6.05 15.8 -8.25 22.05 0.25 28.6 -6.95 20.35 -12.2" fill-rule="evenodd" stroke="none"/>
    </g>
    <g id="font_______W7_r0">
      <path d="M18.3 -20.6 L18.3 -20.6 Q16.55 -21.45 14.75 -21.45 11.5 -21.45 8.7 -18.65 L8.45 -20.75 4.45 -21.45 2.55 0.05 10.65 -1.4 9.3 -12.8 Q10.55 -14.85 12.3 -14.85 13.25 -14.85 14.55 -13.85 L16.55 -12.05 18.3 -20.6" fill-rule="evenodd" stroke="none"/>
    </g>
    <g id="shape3" transform="matrix(1.0, 0.0, 0.0, 1.0, 0.0, 0.0)">
      <path d="M162.75 61.65 Q163.45 63.95 162.15 65.85 160.7 68.1 158.25 67.45 154.7 66.4 154.95 62.45 155.05 63.4 155.55 64.15 L156.25 64.85 Q158.55 66.55 161.0 65.05 162.95 63.95 162.75 61.65 M164.9 107.6 Q165.6 111.25 162.9 113.7 159.6 116.75 155.8 114.45 L155.8 112.55 Q157.2 113.35 158.9 113.4 164.4 112.9 164.9 107.6 M160.8 103.8 L161.95 102.6 161.95 104.65 153.95 113.05 153.95 110.9 160.8 103.8 M234.15 142.5 L235.4 210.85 224.15 275.65 213.4 285.4 30.6 285.85 9.65 267.9 0.0 172.35 18.65 138.15 62.75 101.4 59.85 57.0 98.9 0.0 148.05 9.75 178.8 68.3 171.75 100.7 234.15 142.5 M227.15 174.7 L224.85 142.8 168.75 103.55 172.9 69.0 144.25 12.15 101.8 5.9 68.45 58.35 68.45 95.05 68.4 104.05 23.25 141.7 8.75 173.4 15.15 265.4 16.85 267.05 32.95 283.15 211.05 282.7 220.9 272.85 229.7 210.5 227.15 174.7 M107.65 12.3 L108.8 11.1 108.8 13.15 100.8 21.55 100.8 19.4 107.65 12.3 M111.75 16.1 Q112.45 19.7 109.75 22.15 106.35 25.2 102.65 22.95 L102.65 21.05 Q104.05 21.85 105.75 21.9 111.25 21.4 111.75 16.1 M156.85 60.7 L156.4 61.4 156.8 60.7 156.85 60.7 M80.05 82.6 Q80.75 85.1 78.95 86.9 78.3 87.6 77.3 87.95 72.25 88.1 72.2 82.9 L72.85 84.45 73.45 85.25 Q74.55 86.25 76.1 86.25 79.65 85.95 80.05 82.6 M35.05 269.1 L35.0 271.35 Q34.65 274.85 31.25 275.15 27.25 274.5 27.25 270.05 L27.85 271.6 28.45 272.3 Q29.55 273.25 31.1 273.3 34.95 272.95 35.05 269.1 M202.95 271.8 L209.8 264.7 210.95 263.5 210.95 265.55 202.95 273.95 202.95 271.8 M213.9 268.5 Q214.45 272.2 211.9 274.6 208.6 277.8 204.8 275.35 L204.8 273.45 Q206.2 274.25 207.9 274.3 213.4 273.8 213.9 268.5" fill="#47525f" fill-rule="evenodd" stroke="none"/>
      <path d="M155.8 114.45 Q159.6 116.75 162.9 113.7 165.6 111.25 164.9 107.6 L163.75 104.2 163.75 105.2 Q163.25 112.7 155.8 112.55 L162.75 105.3 161.95 104.65 161.95 102.6 160.8 103.8 161.55 102.35 Q158.05 102.35 155.6 104.45 153.15 106.55 153.15 109.5 L153.95 113.05 155.8 114.45 M172.9 69.0 L168.75 103.55 224.85 142.8 227.15 174.7 16.85 267.05 15.15 265.4 8.75 173.4 23.25 141.7 68.4 104.05 68.45 95.05 172.9 69.0 M109.6 13.8 L110.6 12.7 Q111.25 16.7 108.35 19.3 106.0 21.5 102.65 21.05 L109.6 13.8 M211.75 266.2 L212.75 265.1 Q213.5 268.35 211.15 270.8 208.5 273.65 204.8 273.45 L211.75 266.2" fill="#bab9ba" fill-rule="evenodd" stroke="none"/>
      <path d="M154.95 62.45 Q154.7 66.4 158.25 67.45 160.7 68.1 162.15 65.85 163.45 63.95 162.75 61.65 L161.95 59.75 160.55 58.75 160.7 58.65 Q155.8 57.4 154.95 62.45 M227.15 174.7 L229.7 210.5 220.9 272.85 211.05 282.7 32.95 283.15 16.85 267.05 227.15 174.7 M68.45 95.05 L68.45 58.35 101.8 5.9 144.25 12.15 172.9 69.0 68.45 95.05 M108.8 13.15 L108.8 11.1 107.65 12.3 108.4 10.85 Q104.9 10.85 102.45 12.95 100.0 15.05 100.0 18.0 L100.8 21.55 102.65 22.95 Q106.35 25.2 109.75 22.15 112.45 19.7 111.75 16.1 L110.6 12.7 109.6 13.8 108.8 13.15 M156.8 60.7 L156.9 60.6 156.85 60.7 156.8 60.7 M79.25 80.15 L77.95 79.1 77.1 78.8 Q72.55 78.4 72.2 82.9 72.25 88.1 77.3 87.95 78.3 87.6 78.95 86.9 80.75 85.1 80.05 82.6 L79.25 80.15 M35.05 269.1 Q34.95 268.05 34.25 267.2 L33.0 266.15 32.15 265.85 Q27.55 265.5 27.25 270.05 27.25 274.5 31.25 275.15 34.65 274.85 35.0 271.35 L35.05 269.1 M210.55 263.25 Q207.05 263.25 204.6 265.35 202.15 267.45 202.15 270.4 L202.95 273.95 204.8 275.35 Q208.6 277.8 211.9 274.6 214.45 272.2 213.9 268.5 L212.75 265.1 211.75 266.2 210.95 265.55 210.95 263.5 209.8 264.7 210.55 263.25" fill="#9c9c9c" fill-rule="evenodd" stroke="none"/>
      <path d="M155.8 114.45 L153.95 113.05 161.95 104.65 162.75 105.3 155.8 112.55 155.8 114.45 M108.8 13.15 L109.6 13.8 102.65 21.05 102.65 22.95 100.8 21.55 108.8 13.15 M210.95 265.55 L211.75 266.2 204.8 273.45 204.8 275.35 202.95 273.95 210.95 265.55" fill="#57565b" fill-rule="evenodd" stroke="none"/>
      <path d="M153.95 113.05 L153.15 109.5 153.6 110.4 153.95 110.9 153.95 113.05 M100.8 21.55 L100.0 18.0 100.45 18.9 100.8 19.4 100.8 21.55 M202.15 270.4 L202.6 271.3 202.95 271.8 202.95 273.95 202.15 270.4" fill="#79818b" fill-rule="evenodd" stroke="none"/>
      <path d="M160.55 58.75 L161.95 59.75 Q162.05 61.2 161.15 62.5 159.3 65.3 156.25 64.85 L155.55 64.15 156.4 61.4 156.85 60.7 156.9 60.6 160.55 58.75 M161.55 102.35 L160.8 103.8 153.95 110.9 153.6 110.4 Q154.95 104.6 160.75 102.65 L161.55 102.35 M108.4 10.85 L107.65 12.3 100.8 19.4 100.45 18.9 Q100.65 17.9 101.1 17.05 103.6 12.45 108.4 10.85 M77.95 79.1 L79.25 80.15 Q79.25 84.85 74.45 85.35 L73.45 85.25 72.85 84.45 Q73.1 81.7 75.25 80.4 76.55 79.65 77.95 79.1 M33.0 266.15 L34.25 267.2 Q34.25 271.85 29.45 272.4 L28.45 272.3 27.85 271.6 Q27.85 269.35 29.35 267.75 30.85 266.15 33.0 266.15 M202.6 271.3 Q204.05 265.7 209.75 263.55 L210.55 263.25 209.8 264.7 202.95 271.8 202.6 271.3" fill="#d0cfd0" fill-rule="evenodd" stroke="none"/>
      <path d="M154.95 62.45 Q155.8 57.4 160.7 58.65 L160.55 58.75 156.9 60.6 156.8 60.7 156.4 61.4 155.55 64.15 Q155.05 63.4 154.95 62.45 M153.15 109.5 Q153.15 106.55 155.6 104.45 158.05 102.35 161.55 102.35 L160.75 102.65 Q154.95 104.6 153.6 110.4 L153.15 109.5 M100.0 18.0 Q100.0 15.05 102.45 12.95 104.9 10.85 108.4 10.85 103.6 12.45 101.1 17.05 100.65 17.9 100.45 18.9 L100.0 18.0 M72.2 82.9 Q72.55 78.4 77.1 78.8 L77.95 79.1 Q76.55 79.65 75.25 80.4 73.1 81.7 72.85 84.45 L72.2 82.9 M27.25 270.05 Q27.55 265.5 32.15 265.85 L33.0 266.15 Q30.85 266.15 29.35 267.75 27.85 269.35 27.85 271.6 L27.25 270.05 M210.55 263.25 L209.75 263.55 Q204.05 265.7 202.6 271.3 L202.15 270.4 Q202.15 267.45 204.6 265.35 207.05 263.25 210.55 263.25" fill="#e9e9eb" fill-rule="evenodd" stroke="none"/>
      <path d="M161.95 59.75 L162.75 61.65 Q162.95 63.95 161.0 65.05 158.55 66.55 156.25 64.85 159.3 65.3 161.15 62.5 162.05 61.2 161.95 59.75 M155.8 112.55 Q163.25 112.7 163.75 105.2 L163.75 104.2 164.9 107.6 Q164.4 112.9 158.9 113.4 157.2 113.35 155.8 112.55 M110.6 12.7 L111.75 16.1 Q111.25 21.4 105.75 21.9 104.05 21.85 102.65 21.05 106.0 21.5 108.35 19.3 111.25 16.7 110.6 12.7 M79.25 80.15 L80.05 82.6 Q79.65 85.95 76.1 86.25 74.55 86.25 73.45 85.25 L74.45 85.35 Q79.25 84.85 79.25 80.15 M34.25 267.2 Q34.95 268.05 35.05 269.1 34.95 272.95 31.1 273.3 29.55 273.25 28.45 272.3 L29.45 272.4 Q34.25 271.85 34.25 267.2 M212.75 265.1 L213.9 268.5 Q213.4 273.8 207.9 274.3 206.2 274.25 204.8 273.45 208.5 273.65 211.15 270.8 213.5 268.35 212.75 265.1" fill="#b0aeb3" fill-rule="evenodd" stroke="none"/>
    </g>
    <g id="shape4" transform="matrix(1.0, 0.0, 0.0, 1.0, 0.0, 0.0)">
      <path d="M47.15 234.7 L47.9 235.25 Q48.25 235.25 48.5 235.75 L48.7 236.85 49.35 249.05 30.7 262.85 29.2 262.45 10.7 244.4 4.1 221.55 0.0 173.1 8.65 126.9 9.35 125.45 53.7 97.95 67.3 89.05 59.6 73.9 68.5 47.65 60.5 47.6 59.9 46.85 59.65 46.4 59.6 45.9 59.75 45.35 87.45 0.7 88.75 0.0 119.55 0.5 Q120.5 0.7 120.95 1.5 L121.25 2.1 121.7 2.9 122.65 4.95 141.85 43.95 Q142.4 45.25 141.0 45.95 L140.55 46.1 135.25 46.35 129.85 46.55 140.4 74.85 137.1 88.65 152.95 97.95 197.9 122.15 198.75 123.35 203.6 164.3 203.7 165.15 204.25 170.25 204.1 171.8 203.95 173.7 201.5 198.25 195.5 243.0 174.85 262.85 156.3 249.05 Q154.95 226.7 150.3 204.95 L143.6 218.8 149.3 263.5 146.3 263.5 140.65 218.35 142.75 213.8 Q146.95 203.9 152.55 194.8 L195.15 124.1 159.2 104.7 155.65 125.05 139.9 129.0 146.45 134.4 146.25 135.95 84.0 201.75 78.1 263.5 75.05 263.5 81.05 200.95 94.4 175.3 61.95 138.45 61.7 138.1 66.85 127.9 51.8 125.9 50.55 123.7 49.4 121.4 48.4 119.0 Q46.55 114.25 46.0 109.05 L45.75 106.4 12.05 127.3 32.05 172.55 56.5 202.15 59.2 263.5 56.2 263.5 53.55 202.75 48.55 196.8 45.55 233.4 47.15 234.7 M201.25 170.2 L196.3 128.05 152.3 200.9 157.55 220.55 157.55 220.7 159.35 233.9 169.25 225.9 169.8 225.75 Q176.35 225.85 184.7 230.65 189.6 233.45 193.1 238.8 L198.55 197.85 201.25 170.2 M121.2 34.75 Q117.7 37.45 114.3 33.7 109.9 28.85 114.5 24.8 116.15 23.35 118.65 23.3 L114.55 19.85 Q114.15 22.6 112.05 23.4 L110.75 23.05 Q109.6 17.7 115.2 16.9 115.7 17.1 116.1 17.45 123.0 24.05 130.5 29.2 L130.45 29.65 Q129.15 31.6 127.2 29.75 L122.15 34.6 121.55 34.55 121.2 34.35 121.2 34.75 M122.2 32.0 L125.3 28.85 Q123.2 28.0 121.65 26.4 L120.4 25.1 116.95 25.55 Q114.55 25.8 113.85 28.05 114.25 31.05 116.65 33.0 118.6 34.4 120.8 33.75 L122.2 32.0 M70.55 73.9 Q67.95 76.6 64.2 76.25 L63.75 76.2 70.5 88.95 71.7 89.25 Q81.95 92.55 90.9 94.9 99.85 97.2 104.35 96.0 L121.05 91.6 134.2 88.05 135.5 82.85 132.4 82.25 131.9 81.4 136.0 80.9 137.25 76.2 Q125.2 76.7 113.85 80.95 L113.15 80.65 113.8 85.4 113.05 86.65 112.3 86.5 Q108.15 63.95 121.3 45.15 L128.0 34.9 129.65 35.95 129.65 36.85 127.7 36.95 Q125.55 40.0 125.25 43.75 L138.15 43.2 119.95 6.3 119.8 5.6 120.65 4.25 119.7 3.5 89.55 3.05 87.95 5.6 63.7 44.65 80.0 44.65 80.0 40.15 77.75 38.9 77.5 39.5 76.6 39.9 75.1 39.15 75.6 38.55 Q78.65 35.2 81.35 38.75 83.75 41.8 83.0 45.8 L83.5 46.45 82.75 48.4 Q100.2 59.5 99.2 80.15 L97.9 80.2 Q97.1 60.65 80.9 49.5 L80.9 47.7 71.7 47.65 63.05 74.35 Q66.95 73.5 70.35 71.15 76.0 67.2 82.4 65.3 88.65 63.3 91.8 68.7 97.1 77.95 90.6 85.85 L90.3 85.75 Q80.0 82.1 71.0 76.0 L70.9 74.9 71.35 74.45 89.35 84.6 Q94.35 75.6 88.85 67.0 88.1 65.8 86.75 65.7 77.3 66.7 70.55 73.9 M123.65 45.5 Q117.05 53.2 114.45 63.05 112.35 71.15 112.95 79.5 124.3 73.85 137.0 74.2 L126.45 45.95 123.65 45.5 M94.3 20.85 Q91.9 21.25 90.4 23.3 95.55 26.25 92.95 31.6 92.05 33.45 90.4 34.25 82.45 38.15 78.9 30.25 L78.5 30.0 77.55 30.35 Q75.3 30.4 74.45 28.35 81.55 27.9 86.65 22.95 88.4 21.25 90.6 20.3 95.95 17.95 98.45 23.5 L97.1 24.5 94.3 20.85 M86.9 33.6 Q90.3 32.1 92.7 28.9 L93.0 28.5 91.75 26.9 89.4 25.0 Q85.65 28.6 80.7 29.75 L82.9 33.3 86.25 33.95 86.9 33.6 M135.15 90.9 L120.4 94.95 119.25 107.2 124.0 110.6 137.35 92.75 135.15 90.9 M137.8 97.95 L88.85 192.25 142.95 135.1 141.55 134.5 Q136.85 132.55 135.25 128.0 L135.35 127.55 Q143.95 124.6 153.1 122.95 L156.3 103.85 140.15 93.95 139.5 94.7 138.8 96.2 137.65 96.55 137.95 97.25 137.8 97.95 M71.35 93.75 L81.35 110.85 83.45 109.55 83.45 95.5 72.8 92.95 71.35 93.75 M68.7 91.95 L48.75 104.6 53.5 123.25 70.25 125.8 Q68.85 132.05 64.9 137.25 L95.85 172.4 99.2 166.0 70.2 97.95 68.4 93.05 Q68.1 92.3 68.7 91.95 M79.9 113.5 L83.65 118.0 83.5 113.05 Q82.0 114.7 80.4 113.8 L79.9 113.5 M29.6 174.35 L10.8 131.85 3.05 173.0 7.1 221.15 12.05 239.4 18.95 228.55 19.4 228.1 20.0 227.9 Q27.85 226.75 35.4 227.85 39.1 228.25 42.55 230.95 L42.55 224.0 45.85 193.65 29.6 174.35 M107.25 109.05 L115.65 115.2 117.25 96.35 108.1 100.55 107.25 109.05 M104.95 101.25 L96.95 102.4 97.3 106.95 104.3 108.05 104.95 101.25 M118.3 118.65 L117.35 119.45 Q110.2 115.9 103.75 111.0 L103.2 137.35 124.05 113.85 119.05 110.75 118.3 118.65 M96.35 109.85 L85.4 119.05 84.65 119.15 100.2 137.85 100.8 110.55 96.35 109.85 M93.9 101.9 L86.5 97.65 86.55 114.65 94.3 107.65 93.9 101.9 M99.05 99.1 L92.4 97.55 95.8 99.5 99.05 99.1 M99.25 141.05 L83.9 123.65 93.85 146.0 99.25 141.05 M100.75 162.0 L120.2 125.65 95.1 148.95 100.75 162.0 M159.8 240.6 L165.05 245.45 173.35 241.85 172.9 238.0 174.9 238.15 Q177.3 241.9 177.05 246.35 L175.95 246.8 174.4 244.65 Q169.7 247.5 164.2 248.45 L159.6 244.5 159.05 247.45 175.15 259.4 192.1 242.85 184.4 230.75 170.65 228.65 159.8 237.6 159.8 240.6 M45.7 240.65 L45.7 237.4 34.85 228.65 21.15 230.75 13.45 242.85 30.4 259.4 46.5 247.45 45.95 244.45 41.05 248.55 31.15 244.65 30.2 246.55 28.55 246.6 Q28.05 242.9 29.95 239.65 L30.7 238.5 31.55 237.45 32.85 238.4 32.2 241.85 40.5 245.45 45.7 240.65" fill="#1a1a1a" fill-rule="evenodd" stroke="none"/>
      <path d="M146.3 263.5 L78.1 263.5 84.0 201.75 146.25 135.95 146.45 134.4 139.9 129.0 155.65 125.05 159.2 104.7 195.15 124.1 152.55 194.8 Q146.95 203.9 142.75 213.8 L140.65 218.35 146.3 263.5 M75.05 263.5 L59.2 263.5 56.5 202.15 32.05 172.55 12.05 127.3 45.75 106.4 46.0 109.05 Q46.55 114.25 48.4 119.0 L49.4 121.4 50.55 123.7 51.8 125.9 66.85 127.9 61.7 138.1 61.95 138.45 94.4 175.3 81.05 200.95 75.05 263.5 M201.25 170.2 L198.55 197.85 193.1 238.8 Q189.6 233.45 184.7 230.65 176.35 225.85 169.8 225.75 L169.25 225.9 159.35 233.9 157.55 220.7 157.55 220.55 152.3 200.9 196.3 128.05 201.25 170.2 M137.8 97.95 L137.95 97.25 137.65 96.55 138.8 96.2 139.5 94.7 140.15 93.95 156.3 103.85 153.1 122.95 Q143.95 124.6 135.35 127.55 L135.25 128.0 Q136.85 132.55 141.55 134.5 L142.95 135.1 88.85 192.25 137.8 97.95 M68.7 91.95 Q68.1 92.3 68.4 93.05 L70.2 97.95 99.2 166.0 95.85 172.4 64.9 137.25 Q68.85 132.05 70.25 125.8 L53.5 123.25 48.75 104.6 68.7 91.95 M29.6 174.35 L45.85 193.65 42.55 224.0 42.55 230.95 Q39.1 228.25 35.4 227.85 27.85 226.75 20.0 227.9 L19.4 228.1 18.95 228.55 12.05 239.4 7.1 221.15 3.05 173.0 10.8 131.85 29.6 174.35 M100.75 162.0 L95.1 148.95 120.2 125.65 100.75 162.0 M99.25 141.05 L93.85 146.0 83.9 123.65 99.25 141.05" fill="#3a3d6a" fill-rule="evenodd" stroke="none"/>
      <path d="M203.6 164.3 Q204.45 164.35 205.2 164.75 L203.7 165.15 203.6 164.3" fill="#e9e9eb" fill-rule="evenodd" stroke="none"/>
      <path d="M205.2 164.75 L206.45 165.8 206.45 166.05 Q206.6 168.8 204.25 170.25 L203.7 165.15 205.2 164.75" fill="#d0cfd0" fill-rule="evenodd" stroke="none"/>
      <path d="M206.45 165.8 Q207.15 166.65 207.25 167.7 L207.25 168.1 Q206.95 171.2 204.1 171.8 L204.25 170.25 Q206.6 168.8 206.45 166.05 L206.45 165.8" fill="#b0aeb3" fill-rule="evenodd" stroke="none"/>
      <path d="M207.25 167.7 Q208.25 171.8 204.65 173.45 L203.95 173.7 204.1 171.8 Q206.95 171.2 207.25 168.1 L207.25 167.7 M47.15 234.7 L47.15 234.55 47.15 234.7 M49.1 232.6 L49.0 232.75 49.05 232.6 49.1 232.6" fill="#47525f" fill-rule="evenodd" stroke="none"/>
      <path d="M116.65 33.0 Q114.25 31.05 113.85 28.05 114.55 25.8 116.95 25.55 L120.4 25.1 121.65 26.4 Q123.2 28.0 125.3 28.85 L122.2 32.0 Q122.2 30.45 119.95 29.95 118.4 30.05 117.35 31.8 L116.65 33.0 M71.35 74.45 L70.55 73.9 Q77.3 66.7 86.75 65.7 88.1 65.8 88.85 67.0 94.35 75.6 89.35 84.6 L71.35 74.45 M82.9 33.3 L80.7 29.75 Q85.65 28.6 89.4 25.0 L91.75 26.9 93.0 28.5 92.7 28.9 Q90.3 32.1 86.9 33.6 L85.6 30.4 84.55 30.35 82.9 33.3" fill="#ffffff" fill-rule="evenodd" stroke="none"/>
      <path d="M121.55 34.55 L121.2 34.75 121.2 34.35 121.55 34.55 M116.65 33.0 L117.35 31.8 Q118.4 30.05 119.95 29.95 122.2 30.45 122.2 32.0 L120.8 33.75 Q118.6 34.4 116.65 33.0 M119.8 5.6 L111.05 6.3 Q105.0 6.85 103.6 12.75 L102.7 11.45 Q97.3 3.15 87.95 5.6 L89.55 3.05 119.7 3.5 120.65 4.25 119.8 5.6 M82.9 33.3 L84.55 30.35 85.6 30.4 86.9 33.6 86.25 33.95 82.9 33.3" fill="#000000" fill-rule="evenodd" stroke="none"/>
      <path d="M121.55 34.55 L122.15 34.6 127.2 29.75 Q129.15 31.6 130.45 29.65 L130.5 29.2 Q123.0 24.05 116.1 17.45 115.7 17.1 115.2 16.9 109.6 17.7 110.75 23.05 L112.05 23.4 Q114.15 22.6 114.55 19.85 L118.65 23.3 Q116.15 23.35 114.5 24.8 109.9 28.85 114.3 33.7 117.7 37.45 121.2 34.75 L121.55 34.55 M119.8 5.6 L119.95 6.3 138.15 43.2 125.25 43.75 Q125.55 40.0 127.7 36.95 L129.65 36.85 129.65 35.95 128.0 34.9 121.3 45.15 Q108.15 63.95 112.3 86.5 L113.05 86.65 113.8 85.4 113.15 80.65 113.85 80.95 Q125.2 76.7 137.25 76.2 L136.0 80.9 131.9 81.4 132.4 82.25 135.5 82.85 134.2 88.05 121.05 91.6 104.35 96.0 Q99.85 97.2 90.9 94.9 81.95 92.55 71.7 89.25 L70.5 88.95 63.75 76.2 64.2 76.25 Q67.95 76.6 70.55 73.9 L71.35 74.45 70.9 74.9 71.0 76.0 Q80.0 82.1 90.3 85.75 L90.6 85.85 Q97.1 77.95 91.8 68.7 88.65 63.3 82.4 65.3 76.0 67.2 70.35 71.15 66.95 73.5 63.05 74.35 L71.7 47.65 80.9 47.7 80.9 49.5 Q97.1 60.65 97.9 80.2 L99.2 80.15 Q100.2 59.5 82.75 48.4 L83.5 46.45 83.0 45.8 Q83.75 41.8 81.35 38.75 78.65 35.2 75.6 38.55 L75.1 39.15 76.6 39.9 77.5 39.5 77.75 38.9 80.0 40.15 80.0 44.65 63.7 44.65 87.95 5.6 Q97.3 3.15 102.7 11.45 L103.6 12.75 Q105.0 6.85 111.05 6.3 L119.8 5.6 M123.65 45.5 L126.45 45.95 137.0 74.2 Q124.3 73.85 112.95 79.5 112.35 71.15 114.45 63.05 117.05 53.2 123.65 45.5 M94.3 20.85 L97.1 24.5 98.45 23.5 Q95.95 17.95 90.6 20.3 88.4 21.25 86.65 22.95 81.55 27.9 74.45 28.35 75.3 30.4 77.55 30.35 L78.5 30.0 78.9 30.25 Q82.45 38.15 90.4 34.25 92.05 33.45 92.95 31.6 95.55 26.25 90.4 23.3 91.9 21.25 94.3 20.85 M135.15 90.9 L137.35 92.75 124.0 110.6 119.25 107.2 120.4 94.95 135.15 90.9 M71.35 93.75 L72.8 92.95 83.45 95.5 83.45 109.55 81.35 110.85 71.35 93.75 M79.9 113.5 L80.4 113.8 Q82.0 114.7 83.5 113.05 L83.65 118.0 79.9 113.5 M96.35 109.85 L100.8 110.55 100.2 137.85 84.65 119.15 85.4 119.05 96.35 109.85 M118.3 118.65 L119.05 110.75 124.05 113.85 103.2 137.35 103.75 111.0 Q110.2 115.9 117.35 119.45 L118.3 118.65 M99.05 99.1 L95.8 99.5 92.4 97.55 99.05 99.1 M159.8 240.6 L159.8 237.6 170.65 228.65 184.4 230.75 192.1 242.85 175.15 259.4 159.05 247.45 159.6 244.5 164.2 248.45 Q169.7 247.5 174.4 244.65 L175.95 246.8 177.05 246.35 Q177.3 241.9 174.9 238.15 L172.9 238.0 173.35 241.85 165.05 245.45 159.8 240.6 M45.7 240.65 L40.5 245.45 32.2 241.85 32.85 238.4 31.55 237.45 30.7 238.5 29.95 239.65 Q28.05 242.9 28.55 246.6 L30.2 246.55 31.15 244.65 41.05 248.55 45.95 244.45 46.5 247.45 30.4 259.4 13.45 242.85 21.15 230.75 34.85 228.65 45.7 237.4 45.7 240.65" fill="#cacfe6" fill-rule="evenodd" stroke="none"/>
      <path d="M104.95 101.25 L104.3 108.05 97.3 106.95 96.95 102.4 104.95 101.25 M107.25 109.05 L108.1 100.55 117.25 96.35 115.65 115.2 107.25 109.05 M93.9 101.9 L94.3 107.65 86.55 114.65 86.5 97.65 93.9 101.9" fill="#990000" fill-rule="evenodd" stroke="none"/>
    </g>
    <g id="shape5" transform="matrix(1.0, 0.0, 0.0, 1.0, -0.05, 0.0)">
      <path d="M40.95 2.45 L41.9 2.8 Q42.4 1.4 44.05 1.25 46.25 1.45 46.45 3.8 L46.45 6.35 48.8 8.45 Q56.9 16.5 57.2 28.65 56.85 40.75 48.8 48.85 42.05 55.65 32.45 56.95 L32.05 57.95 Q31.35 59.0 29.8 59.15 28.3 59.0 27.6 58.05 L27.2 57.2 Q16.0 56.45 8.4 48.85 3.45 43.9 1.4 37.45 -0.45 31.7 0.25 25.75 1.75 13.25 11.8 5.55 L12.4 3.05 Q13.25 0.65 15.6 1.55 16.3 1.85 16.4 2.8 L17.0 2.55 Q21.85 0.45 27.2 0.1 33.95 0.0 40.1 2.5 L40.95 2.45 M40.75 9.5 L41.65 9.15 41.65 3.8 40.95 3.4 Q39.9 3.3 39.45 4.1 L39.5 20.75 40.05 21.3 41.6 21.05 41.65 14.2 41.0 13.95 Q39.6 13.25 39.65 11.65 39.65 10.3 40.75 9.5 M43.6 13.8 L42.65 14.2 Q42.3 22.35 43.9 21.75 L44.95 21.3 44.95 2.65 Q44.35 2.05 43.6 2.4 42.9 2.55 42.75 3.3 L42.65 9.15 43.55 9.5 Q44.2 9.85 44.5 10.65 L44.55 12.55 Q44.25 13.35 43.6 13.8 M42.85 10.1 L41.65 10.1 43.85 12.05 42.85 10.1 M40.75 10.9 L40.5 11.65 Q40.7 13.2 42.15 13.3 L42.65 13.2 40.75 10.9 M33.35 54.6 L33.1 55.4 Q42.4 53.9 48.75 46.85 56.75 37.95 55.55 25.9 54.45 15.35 46.45 8.2 L46.45 9.2 46.45 11.55 Q53.05 18.45 53.3 28.6 53.05 39.1 46.05 46.1 40.85 51.3 33.75 52.75 L33.35 54.6 M34.15 50.65 L34.05 51.35 Q40.4 49.85 45.1 45.15 51.7 38.55 51.95 28.6 51.75 19.75 46.45 13.6 L46.45 14.6 Q46.75 17.8 46.0 20.7 45.25 23.6 42.2 21.75 L41.45 22.0 Q39.2 22.8 38.3 20.55 L33.3 21.2 33.3 23.05 33.95 23.4 Q35.1 23.95 34.9 25.15 L34.35 26.45 32.4 27.25 32.4 29.2 33.85 30.25 33.95 31.8 32.3 32.9 Q34.1 41.75 34.15 50.65 M38.25 4.0 L38.65 3.4 Q29.1 -0.05 19.35 3.1 L19.75 3.6 20.0 4.15 Q29.1 3.05 38.25 4.0 M25.35 51.1 L25.1 48.35 Q25.25 40.65 27.35 32.9 26.65 32.65 26.2 32.25 24.7 30.8 26.4 29.55 L26.9 29.2 26.9 27.25 Q25.3 27.3 24.75 25.95 L24.5 24.95 Q24.55 24.05 25.5 23.4 L26.0 23.05 26.0 21.35 19.95 20.65 Q19.2 22.95 16.85 21.95 L16.1 21.7 Q15.1 23.2 13.3 22.4 12.1 22.0 12.05 20.75 L11.8 13.3 11.8 12.35 Q5.45 18.9 5.2 28.6 5.45 38.55 12.05 45.15 17.6 50.7 25.5 51.75 L25.35 51.1 M16.8 15.6 L16.5 20.75 17.35 21.35 Q18.95 21.55 19.0 19.95 19.1 12.15 18.85 4.35 L18.65 3.7 17.7 3.35 16.6 3.85 16.95 9.95 Q17.9 10.35 18.3 11.4 L18.35 13.15 16.85 14.9 16.8 15.6 M38.2 19.4 L38.2 5.0 Q29.6 4.0 20.9 5.1 L20.0 5.2 20.1 19.4 Q29.1 21.65 38.2 19.4 M33.5 24.4 Q33.3 23.9 32.85 23.9 L27.1 23.4 Q24.95 24.0 26.25 25.85 L26.9 26.45 32.3 26.4 Q33.3 26.4 33.55 25.55 33.7 24.95 33.5 24.4 M27.15 21.35 L27.15 22.95 32.0 22.95 32.0 21.35 27.15 21.35 M15.1 9.8 L15.65 9.7 15.35 3.25 14.95 2.65 14.2 2.25 Q12.95 2.6 12.95 4.0 L13.1 20.6 Q13.1 21.5 14.2 21.7 15.6 21.55 15.55 20.15 L15.3 15.05 Q13.7 14.6 13.35 13.25 L13.3 11.85 Q13.6 10.25 15.1 9.8 M26.35 54.95 L25.85 53.15 Q17.2 52.25 11.1 46.1 3.0 37.75 4.15 26.1 5.05 16.85 11.8 10.5 L11.8 8.1 11.8 7.3 Q2.9 14.65 1.7 25.95 0.55 37.1 7.7 45.9 15.0 54.85 26.6 55.7 L26.35 54.95 M17.25 11.6 L16.6 10.8 15.15 10.8 17.3 13.05 17.25 11.6 M14.45 11.5 L14.2 12.25 Q14.3 13.7 15.85 13.9 L16.6 13.7 14.45 11.5 M27.3 30.4 L26.75 31.15 27.3 32.2 32.6 31.95 32.8 30.9 32.4 30.15 31.05 30.2 27.3 30.4 M31.25 29.1 L31.25 27.25 28.2 27.25 28.3 29.1 31.25 29.1 M32.6 42.15 Q32.15 37.5 31.2 32.9 L28.45 32.9 27.2 39.55 Q26.25 45.2 26.95 51.0 L27.15 52.3 27.15 52.25 Q27.35 49.85 29.75 49.65 31.9 49.85 32.3 51.85 33.05 47.05 32.6 42.15 M30.7 58.1 L32.0 53.55 Q31.35 54.95 29.75 54.85 27.85 54.65 27.35 53.05 L28.65 57.7 30.7 58.1 M29.0 53.7 L29.75 53.95 Q31.9 53.5 31.2 51.5 L29.0 53.7 M29.75 50.6 Q28.25 50.75 28.1 52.25 L28.35 53.05 30.55 50.85 29.75 50.6" fill="#212753" fill-rule="evenodd" stroke="none"/>
      <path d="M40.95 2.45 L40.1 2.5 Q33.95 0.0 27.2 0.1 L29.2 0.0 Q35.6 0.15 40.95 2.45 M46.45 9.2 L46.45 8.2 Q54.45 15.35 55.55 25.9 56.75 37.95 48.75 46.85 42.4 53.9 33.1 55.4 L33.35 54.6 Q44.1 52.5 50.45 43.3 55.05 36.65 54.95 28.6 54.75 17.0 46.45 9.2 M46.45 14.6 L46.45 13.6 Q51.75 19.75 51.95 28.6 51.7 38.55 45.1 45.15 40.4 49.85 34.05 51.35 L34.15 50.65 Q40.2 49.15 44.65 44.7 51.05 38.3 51.3 28.65 51.15 20.45 46.45 14.6 M19.75 3.6 L19.35 3.1 Q29.1 -0.05 38.65 3.4 L38.25 4.0 Q33.8 2.25 28.5 2.1 23.8 2.25 19.75 3.6 M25.35 51.1 L25.5 51.75 Q17.6 50.7 12.05 45.15 5.45 38.55 5.2 28.6 5.45 18.9 11.8 12.35 L11.8 13.3 Q6.1 19.55 5.85 28.65 6.1 38.3 12.5 44.7 17.85 50.0 25.35 51.1 M26.35 54.95 L26.6 55.7 Q15.0 54.85 7.7 45.9 0.55 37.1 1.7 25.95 2.9 14.65 11.8 7.3 L11.8 8.1 Q3.55 15.15 2.3 25.9 1.25 35.3 6.7 43.25 13.85 53.8 26.35 54.95" fill="#514f6f" fill-rule="evenodd" stroke="none"/>
      <path d="M41.0 13.95 L41.65 14.2 41.6 21.05 40.05 21.3 39.5 20.75 39.45 4.1 Q39.9 3.3 40.95 3.4 L41.65 3.8 41.65 9.15 40.75 9.5 40.4 4.85 Q39.7 5.45 39.65 6.45 39.35 12.5 39.85 18.55 39.95 19.55 40.65 19.75 41.55 19.1 41.5 17.7 L41.0 13.95 M43.55 9.5 L42.65 9.15 42.75 3.3 Q42.9 2.55 43.6 2.4 44.35 2.05 44.95 2.65 L44.95 21.3 43.9 21.75 Q42.3 22.35 42.65 14.2 L43.6 13.8 44.0 20.3 44.55 12.55 44.5 10.65 44.25 4.4 43.55 4.3 43.55 9.5 M36.15 9.6 Q34.9 7.5 32.4 7.85 29.75 8.15 27.1 7.8 24.95 7.25 23.1 8.3 20.7 10.35 22.5 12.35 24.25 14.4 26.55 15.0 L31.75 15.4 Q34.7 15.25 36.3 13.5 37.3 11.55 36.15 9.6 M27.5 24.1 L27.45 24.1 Q26.9 24.25 26.9 24.5 26.85 24.85 27.9 25.35 L30.85 25.25 Q31.6 24.85 31.6 24.5 31.5 24.1 30.4 23.85 L27.5 24.1 M27.15 21.35 L32.0 21.35 32.0 22.95 27.15 22.95 27.15 21.35 M33.5 24.4 Q33.7 24.95 33.55 25.55 33.3 26.4 32.3 26.4 L26.9 26.45 26.25 25.85 Q24.95 24.0 27.1 23.4 L32.85 23.9 Q33.3 23.9 33.5 24.4 M38.2 19.4 Q29.1 21.65 20.1 19.4 L20.0 5.2 20.9 5.1 Q29.6 4.0 38.2 5.0 L38.2 19.4 M16.95 9.95 L16.6 3.85 17.7 3.35 18.65 3.7 18.85 4.35 Q19.1 12.15 19.0 19.95 18.95 21.55 17.35 21.35 L16.5 20.75 16.8 15.6 17.85 19.6 18.35 13.15 18.3 11.4 17.45 5.4 16.95 9.95 M15.3 15.05 L15.55 20.15 Q15.6 21.55 14.2 21.7 13.1 21.5 13.1 20.6 L12.95 4.0 Q12.95 2.6 14.2 2.25 L14.95 2.65 15.35 3.25 15.65 9.7 15.1 9.8 14.3 3.55 13.4 4.2 13.3 11.85 13.35 13.25 14.15 20.3 14.85 20.25 15.3 15.05 M31.05 30.2 L32.4 30.15 32.8 30.9 32.6 31.95 27.3 32.2 26.75 31.15 27.3 30.4 27.4 31.15 31.25 31.35 31.5 30.7 31.05 30.2 M31.25 29.1 L28.3 29.1 28.2 27.25 31.25 27.25 31.25 29.1 M27.9 48.35 Q29.05 49.75 30.55 48.65 32.0 47.2 31.6 44.95 31.65 41.3 30.8 37.75 30.7 36.45 29.75 35.6 28.7 35.65 28.3 38.1 27.95 40.5 27.95 41.5 26.8 45.1 27.9 48.35 M32.6 42.15 Q33.05 47.05 32.3 51.85 31.9 49.85 29.75 49.65 27.35 49.85 27.15 52.25 L27.15 52.3 26.95 51.0 Q26.25 45.2 27.2 39.55 L28.45 32.9 31.2 32.9 Q32.15 37.5 32.6 42.15 M30.7 58.1 L28.65 57.7 27.35 53.05 Q27.85 54.65 29.75 54.85 31.35 54.95 32.0 53.55 L30.7 58.1 M29.1 55.9 Q28.65 57.55 30.25 57.4 31.35 56.6 30.65 55.85 L29.1 55.9" fill="#69839d" fill-rule="evenodd" stroke="none"/>
      <path d="M40.75 9.5 Q39.65 10.3 39.65 11.65 39.6 13.25 41.0 13.95 L41.5 17.7 Q41.55 19.1 40.65 19.75 39.95 19.55 39.85 18.55 39.35 12.5 39.65 6.45 39.7 5.45 40.4 4.85 L40.75 9.5 M43.55 9.5 L43.55 4.3 44.25 4.4 44.5 10.65 Q44.2 9.85 43.55 9.5 M44.55 12.55 L44.0 20.3 43.6 13.8 Q44.25 13.35 44.55 12.55 M34.2 11.4 L33.9 10.25 26.9 9.5 Q25.3 9.3 24.4 10.6 24.5 12.95 27.0 13.65 31.6 14.85 34.2 11.4 M36.15 9.6 Q37.3 11.55 36.3 13.5 34.7 15.25 31.75 15.4 L26.55 15.0 Q24.25 14.4 22.5 12.35 20.7 10.35 23.1 8.3 24.95 7.25 27.1 7.8 29.75 8.15 32.4 7.85 34.9 7.5 36.15 9.6 M27.5 24.1 L30.4 23.85 Q31.5 24.1 31.6 24.5 31.6 24.85 30.85 25.25 L27.9 25.35 Q26.85 24.85 26.9 24.5 26.9 24.25 27.45 24.1 L27.5 24.1 M16.8 15.6 L16.85 14.9 18.35 13.15 17.85 19.6 16.8 15.6 M18.3 11.4 Q17.9 10.35 16.95 9.95 L17.45 5.4 18.3 11.4 M15.3 15.05 L14.85 20.25 14.15 20.3 13.35 13.25 Q13.7 14.6 15.3 15.05 M13.3 11.85 L13.4 4.2 14.3 3.55 15.1 9.8 Q13.6 10.25 13.3 11.85 M27.3 30.4 L31.05 30.2 31.5 30.7 31.25 31.35 27.4 31.15 27.3 30.4 M27.9 48.35 Q26.8 45.1 27.95 41.5 27.95 40.5 28.3 38.1 28.7 35.65 29.75 35.6 30.7 36.45 30.8 37.75 31.65 41.3 31.6 44.95 32.0 47.2 30.55 48.65 29.05 49.75 27.9 48.35 M29.1 55.9 L30.65 55.85 Q31.35 56.6 30.25 57.4 28.65 57.55 29.1 55.9" fill="#899db1" fill-rule="evenodd" stroke="none"/>
      <path d="M40.75 10.9 L42.65 13.2 42.15 13.3 Q40.7 13.2 40.5 11.65 L40.75 10.9 M42.85 10.1 L43.85 12.05 41.65 10.1 42.85 10.1 M14.45 11.5 L16.6 13.7 15.85 13.9 Q14.3 13.7 14.2 12.25 L14.45 11.5 M17.25 11.6 L17.3 13.05 15.15 10.8 16.6 10.8 17.25 11.6 M29.75 50.6 L30.55 50.85 28.35 53.05 28.1 52.25 Q28.25 50.75 29.75 50.6 M29.0 53.7 L31.2 51.5 Q31.9 53.5 29.75 53.95 L29.0 53.7" fill="#a1b1c1" fill-rule="evenodd" stroke="none"/>
      <path d="M33.35 54.6 L33.75 52.75 Q40.85 51.3 46.05 46.1 53.05 39.1 53.3 28.6 53.05 18.45 46.45 11.55 L46.45 9.2 Q54.75 17.0 54.95 28.6 55.05 36.65 50.45 43.3 44.1 52.5 33.35 54.6 M45.35 22.9 Q47.1 21.7 46.9 19.6 L46.55 17.25 Q49.55 22.9 49.55 29.45 49.05 40.8 38.0 44.45 L34.9 45.55 34.8 45.15 34.35 43.45 Q38.75 41.7 42.1 38.05 45.75 33.5 45.85 27.7 45.85 25.2 45.35 22.9 M38.25 4.0 Q29.1 3.05 20.0 4.15 L19.75 3.6 Q23.8 2.25 28.5 2.1 33.8 2.25 38.25 4.0 M24.25 45.1 Q24.15 46.55 24.3 47.8 17.65 47.8 13.35 43.15 8.2 37.55 7.7 29.6 7.2 22.7 11.3 17.35 L11.35 17.65 Q11.15 19.95 11.85 21.75 7.8 29.5 12.4 37.1 16.5 43.85 24.25 45.1 M11.8 8.1 L11.8 10.5 Q5.05 16.85 4.15 26.1 3.0 37.75 11.1 46.1 17.2 52.25 25.85 53.15 L26.35 54.95 Q13.85 53.8 6.7 43.25 1.25 35.3 2.3 25.9 3.55 15.15 11.8 8.1" fill="#afc1d9" fill-rule="evenodd" stroke="none"/>
      <path d="M34.15 50.65 Q34.1 41.75 32.3 32.9 L33.95 31.8 34.35 43.45 34.8 45.15 34.9 45.55 38.0 44.45 Q49.05 40.8 49.55 29.45 49.55 22.9 46.55 17.25 L46.9 19.6 Q47.1 21.7 45.35 22.9 L35.9 22.55 34.9 25.15 Q35.1 23.95 33.95 23.4 L33.3 23.05 33.3 21.2 38.3 20.55 Q39.2 22.8 41.45 22.0 L42.2 21.75 Q45.25 23.6 46.0 20.7 46.75 17.8 46.45 14.6 51.15 20.45 51.3 28.65 51.05 38.3 44.65 44.7 40.2 49.15 34.15 50.65 M33.85 30.25 L32.4 29.2 32.4 27.25 34.35 26.45 33.6 28.35 33.85 30.25 M24.25 45.1 L24.95 39.9 Q25.7 35.8 24.45 31.95 L25.5 28.35 23.3 25.55 24.45 22.3 Q22.8 22.45 21.25 23.1 17.0 25.0 12.6 23.2 L11.85 21.75 Q11.15 19.95 11.35 17.65 L11.3 17.35 Q7.2 22.7 7.7 29.6 8.2 37.55 13.35 43.15 17.65 47.8 24.3 47.8 24.15 46.55 24.25 45.1 M11.8 13.3 L12.05 20.75 Q12.1 22.0 13.3 22.4 15.1 23.2 16.1 21.7 L16.85 21.95 Q19.2 22.95 19.95 20.65 L26.0 21.35 26.0 23.05 25.5 23.4 Q24.55 24.05 24.5 24.95 L24.75 25.95 Q25.3 27.3 26.9 27.25 L26.9 29.2 26.4 29.55 Q24.7 30.8 26.2 32.25 26.65 32.65 27.35 32.9 25.25 40.65 25.1 48.35 L25.35 51.1 Q17.85 50.0 12.5 44.7 6.1 38.3 5.85 28.65 6.1 19.55 11.8 13.3" fill="#9ab4cc" fill-rule="evenodd" stroke="none"/>
      <path d="M33.95 31.8 L33.85 30.25 33.6 28.35 34.35 26.45 34.9 25.15 35.9 22.55 45.35 22.9 Q45.85 25.2 45.85 27.7 45.75 33.5 42.1 38.05 38.75 41.7 34.35 43.45 L33.95 31.8 M11.85 21.75 L12.6 23.2 Q17.0 25.0 21.25 23.1 22.8 22.45 24.45 22.3 L23.3 25.55 25.5 28.35 24.45 31.95 Q25.7 35.8 24.95 39.9 L24.25 45.1 Q16.5 43.85 12.4 37.1 7.8 29.5 11.85 21.75" fill="#c5d3e3" fill-rule="evenodd" stroke="none"/>
      <path d="M34.2 11.4 Q31.6 14.85 27.0 13.65 24.5 12.95 24.4 10.6 25.3 9.3 26.9 9.5 L33.9 10.25 34.2 11.4" fill="#a1b3bf" fill-rule="evenodd" stroke="none"/>
    </g>
  </defs>
</svg>
