<?xml version="1.0" encoding="UTF-8" standalone="no"?>
<svg xmlns:xlink="http://www.w3.org/1999/xlink" height="433.1px" width="327.95px" xmlns="http://www.w3.org/2000/svg">
  <g transform="matrix(1.0, 0.0, 0.0, 1.0, 164.0, 433.1)">
    <use height="36.0" transform="matrix(1.0, 0.0, 0.0, 1.0, -79.55, -36.0)" width="159.0" xlink:href="#shape0"/>
    <use height="96.65" transform="matrix(1.0, 0.0, 0.0, 1.0, -27.15, -108.0)" width="54.2" xlink:href="#shape1"/>
    <use height="37.0" transform="matrix(1.0, 0.0, 0.0, 1.0, -92.65, -94.35)" width="185.25" xlink:href="#shape2"/>
    <use height="14.25" transform="matrix(1.0, 0.0, 0.0, 1.0, -82.3, -82.65)" width="164.25" xlink:href="#text0"/>
    <use height="296.55" transform="matrix(1.0, 0.0, 0.0, 1.0, -89.0, -394.5)" width="177.9" xlink:href="#shape3"/>
    <use height="262.95" transform="matrix(1.0356, 0.0, 0.0, 1.0356, -75.4, -371.5)" width="143.85" xlink:href="#shape4"/>
    <use height="59.15" transform="matrix(1.0, 0.0, 0.0, 1.0, -29.15, -223.55)" width="57.15" xlink:href="#shape5"/>
  </g>
  <defs>
    <g id="shape0" transform="matrix(1.0, 0.0, 0.0, 1.0, 0.0, 0.0)">
      <path d="M135.7 30.75 Q113.3 35.8 79.5 36.0 45.7 35.8 23.3 30.75 0.85 25.65 0.0 18.0 0.85 10.35 23.3 5.25 45.7 0.2 79.5 0.0 113.3 0.2 135.7 5.25 158.15 10.35 159.0 18.0 158.15 25.65 135.7 30.75" fill="#000000" fill-opacity="0.39607844" fill-rule="evenodd" stroke="none"/>
    </g>
    <g id="shape1" transform="matrix(1.0, 0.0, 0.0, 1.0, 0.0, 0.0)">
      <path d="M5.85 93.35 Q-0.15 90.4 0.0 90.0 L0.0 0.0 54.2 0.0 54.2 90.0 Q54.15 90.4 46.95 93.35 39.7 96.25 25.65 96.65 11.8 96.25 5.85 93.35" fill="url(#gradient0)" fill-rule="evenodd" stroke="none"/>
    </g>
    <linearGradient gradientTransform="matrix(0.0303, 0.0, 0.0, 0.0303, 25.7, 48.35)" gradientUnits="userSpaceOnUse" id="gradient0" spreadMethod="pad" x1="-819.2" x2="819.2">
      <stop offset="0.0" stop-color="#565656"/>
      <stop offset="0.403921568627451" stop-color="#9a9999"/>
      <stop offset="0.592156862745098" stop-color="#dbdbda"/>
      <stop offset="0.7803921568627451" stop-color="#9b9a9a"/>
      <stop offset="1.0" stop-color="#151213"/>
    </linearGradient>
    <g id="shape2" transform="matrix(1.0, 0.0, 0.0, 1.0, -0.05, 0.0)">
      <path d="M185.25 8.2 L185.3 8.25 185.25 8.25 185.25 8.2 M1.9 5.2 L2.3 2.85 18.75 2.05 59.05 0.7 Q83.4 0.05 109.4 0.3 115.1 0.55 118.85 1.6 122.65 2.7 128.15 3.0 L129.3 1.5 Q130.05 0.2 130.5 0.0 160.7 0.5 181.5 3.85 L183.45 6.1 103.3 3.5 Q60.0 3.6 6.5 5.1 L1.9 5.2 M176.25 8.0 L176.45 8.4 177.65 11.45 178.5 13.65 Q179.3 12.8 179.7 10.9 179.7 9.8 179.25 9.1 L179.9 9.55 Q180.65 10.3 180.7 11.75 179.85 15.7 177.15 15.05 175.8 14.75 175.1 13.85 L176.15 14.2 177.35 14.25 176.45 12.35 174.9 8.8 174.8 8.5 174.95 8.35 Q175.75 7.8 176.25 8.0 M178.25 27.3 L179.85 27.15 Q180.5 27.3 181.25 27.95 183.6 31.2 181.35 32.8 180.2 33.6 179.1 33.5 L180.8 32.15 178.8 31.55 175.1 30.4 175.2 29.1 175.2 29.0 175.25 28.7 175.4 28.75 175.85 28.9 178.95 30.05 181.1 30.85 Q181.0 29.65 179.9 28.15 179.05 27.45 178.25 27.3 M9.35 6.95 L10.7 10.45 11.7 12.9 Q12.6 11.95 13.05 9.85 13.05 8.55 12.5 7.75 13.85 8.35 14.15 10.05 L13.75 12.35 Q12.6 15.1 10.15 14.55 8.75 14.25 8.0 13.4 L7.85 13.2 9.0 13.6 10.35 13.65 9.35 11.4 7.6 7.45 8.75 6.6 9.2 6.55 9.35 6.95 M9.4 25.3 Q11.0 24.35 12.9 25.8 15.0 28.35 14.35 30.1 L13.4 31.3 Q12.2 32.25 10.95 32.25 L12.75 30.6 10.4 30.05 6.2 29.05 6.15 27.55 6.15 27.1 6.35 27.15 6.9 27.35 10.45 28.4 12.95 29.1 Q12.75 27.8 11.35 26.15 10.35 25.35 9.4 25.3" fill="#47525f" fill-rule="evenodd" stroke="none"/>
      <path d="M0.05 36.7 L0.75 22.9 Q1.05 14.95 1.6 7.0 L1.9 5.2 6.5 5.1 3.2 8.3 1.95 36.45 0.05 36.7" fill="#cdcdcd" fill-rule="evenodd" stroke="none"/>
      <path d="M13.75 12.35 L14.15 10.05 26.45 10.0 13.75 12.35 M8.0 13.4 L7.0 13.55 7.2 26.2 6.35 27.15 6.15 27.1 6.15 27.55 Q5.15 29.5 6.75 31.55 8.95 33.2 10.95 32.25 12.2 32.25 13.4 31.3 L14.35 30.1 16.45 30.2 36.65 31.3 56.5 32.6 Q50.4 32.9 38.0 32.9 L15.1 32.75 3.85 32.6 5.25 10.05 6.0 10.05 Q6.15 12.3 7.85 13.2 L8.0 13.4" fill="#848484" fill-rule="evenodd" stroke="none"/>
      <path d="M175.1 13.85 Q175.8 14.75 177.15 15.05 179.85 15.7 180.7 11.75 180.65 10.3 179.9 9.55 L180.85 9.65 179.85 27.15 178.25 27.3 177.7 27.3 177.8 15.2 160.95 13.3 Q144.35 11.4 115.0 6.95 144.55 7.2 162.45 8.35 L174.1 9.15 Q173.65 9.7 173.4 10.6 173.45 12.95 175.1 13.85 M175.3 32.3 L137.05 30.55 175.2 29.0 175.2 29.1 Q174.3 30.55 175.3 32.3" fill="#a09fa0" fill-rule="evenodd" stroke="none"/>
      <path d="M176.45 8.4 L176.25 8.0 176.9 7.95 Q178.55 8.05 179.25 9.1 179.7 9.8 179.7 10.9 179.3 12.8 178.5 13.65 L177.65 11.45 178.05 10.25 Q178.0 8.55 176.45 8.4 M174.8 8.5 L174.9 8.8 Q174.35 9.2 174.15 10.05 174.2 11.9 175.85 12.3 L176.45 12.35 177.35 14.25 176.15 14.2 175.1 13.85 Q173.45 12.95 173.4 10.6 173.65 9.7 174.1 9.15 L174.8 8.5 M177.7 27.3 L178.25 27.3 Q179.05 27.45 179.9 28.15 181.0 29.65 181.1 30.85 L178.95 30.05 178.3 28.9 Q177.0 27.8 175.85 28.9 L175.4 28.75 175.8 28.3 Q176.7 27.35 177.7 27.3 M179.1 33.5 Q177.3 34.2 175.5 32.65 L175.3 32.3 Q174.3 30.55 175.2 29.1 L175.1 30.4 Q175.25 32.1 176.95 32.35 178.0 32.25 178.8 31.55 L180.8 32.15 179.1 33.5 M10.7 10.45 L11.2 9.05 Q11.15 7.15 9.35 6.95 L9.2 6.55 9.9 6.5 Q11.75 6.6 12.5 7.75 13.05 8.55 13.05 9.85 12.6 11.95 11.7 12.9 L10.7 10.45 M7.2 26.2 Q8.2 25.2 9.4 25.3 10.35 25.35 11.35 26.15 12.75 27.8 12.95 29.1 L10.45 28.4 Q9.75 26.65 8.05 26.6 L6.9 27.35 6.35 27.15 7.2 26.2 M6.0 10.05 L5.95 9.55 Q6.6 7.0 8.75 6.6 L7.6 7.45 Q7.0 7.9 6.75 8.85 6.8 10.95 8.7 11.35 L9.35 11.4 10.35 13.65 9.0 13.6 7.85 13.2 Q6.15 12.3 6.0 10.05 M6.15 27.55 L6.2 29.05 Q6.45 30.9 8.2 31.1 9.7 31.2 10.4 30.05 L12.75 30.6 10.95 32.25 Q8.95 33.2 6.75 31.55 5.15 29.5 6.15 27.55" fill="#9c9c9c" fill-rule="evenodd" stroke="none"/>
      <path d="M174.9 8.8 L176.45 12.35 175.85 12.3 Q174.2 11.9 174.15 10.05 174.35 9.2 174.9 8.8 M177.65 11.45 L176.45 8.4 Q178.0 8.55 178.05 10.25 L177.65 11.45 M175.85 28.9 Q177.0 27.8 178.3 28.9 L178.95 30.05 175.85 28.9 M175.1 30.4 L178.8 31.55 Q178.0 32.25 176.95 32.35 175.25 32.1 175.1 30.4 M9.35 6.95 Q11.15 7.15 11.2 9.05 L10.7 10.45 9.35 6.95 M9.35 11.4 L8.7 11.35 Q6.8 10.95 6.75 8.85 7.0 7.9 7.6 7.45 L9.35 11.4 M10.45 28.4 L6.9 27.35 8.05 26.6 Q9.75 26.65 10.45 28.4 M6.2 29.05 L10.4 30.05 Q9.7 31.2 8.2 31.1 6.45 30.9 6.2 29.05" fill="#d5d4d4" fill-rule="evenodd" stroke="none"/>
      <path d="M183.45 6.1 L185.3 6.25 185.25 8.2 185.25 8.25 185.1 13.45 184.65 27.3 184.3 36.25 Q157.35 34.75 133.85 35.55 L89.2 37.0 Q65.15 37.15 43.55 35.85 22.0 34.5 0.05 36.75 L0.05 36.7 1.95 36.45 3.2 8.3 6.5 5.1 Q60.0 3.6 103.3 3.5 L183.45 6.1 M176.25 8.0 Q175.75 7.8 174.95 8.35 L174.8 8.5 174.1 9.15 162.45 8.35 Q144.55 7.2 115.0 6.95 144.35 11.4 160.95 13.3 L177.8 15.2 177.7 27.3 Q176.7 27.35 175.8 28.3 L175.4 28.75 175.25 28.7 175.2 29.0 137.05 30.55 175.3 32.3 175.5 32.65 Q177.3 34.2 179.1 33.5 180.2 33.6 181.35 32.8 183.6 31.2 181.25 27.95 180.5 27.3 179.85 27.15 L180.85 9.65 179.9 9.55 179.25 9.1 Q178.55 8.05 176.9 7.95 L176.25 8.0 M12.5 7.75 Q11.75 6.6 9.9 6.5 L9.2 6.55 8.75 6.6 Q6.6 7.0 5.95 9.55 L6.0 10.05 5.25 10.05 3.85 32.6 15.1 32.75 38.0 32.9 Q50.4 32.9 56.5 32.6 L36.65 31.3 16.45 30.2 14.35 30.1 Q15.0 28.35 12.9 25.8 11.0 24.35 9.4 25.3 8.2 25.2 7.2 26.2 L7.0 13.55 8.0 13.4 Q8.75 14.25 10.15 14.55 12.6 15.1 13.75 12.35 L26.45 10.0 14.15 10.05 Q13.85 8.35 12.5 7.75" fill="url(#gradient1)" fill-rule="evenodd" stroke="none"/>
    </g>
    <linearGradient gradientTransform="matrix(0.1131, 0.0, 0.0, 0.0204, 92.65, 20.25)" gradientUnits="userSpaceOnUse" id="gradient1" spreadMethod="pad" x1="-819.2" x2="819.2">
      <stop offset="0.0" stop-color="#9a9a9a"/>
      <stop offset="1.0" stop-color="#ffffff"/>
    </linearGradient>
    <g id="text0" transform="matrix(1.0, 0.0, 0.0, 1.0, 8.95, -4.85)">
      <g transform="matrix(1.0, 0.0, 0.0, 1.0, -9.35, 0.0)">
        <use fill="#000000" height="14.25" transform="matrix(0.4395, 0.0, 0.0, 0.4395, 0.0, 19.0)" width="164.25" xlink:href="#font_______W7_A0"/>
        <use fill="#000000" height="14.25" transform="matrix(0.4395, 0.0, 0.0, 0.4395, 14.4, 19.0)" width="164.25" xlink:href="#font_______W7_m0"/>
        <use fill="#000000" height="14.25" transform="matrix(0.4395, 0.0, 0.0, 0.4395, 28.45, 19.0)" width="164.25" xlink:href="#font_______W7_b0"/>
        <use fill="#000000" height="14.25" transform="matrix(0.4395, 0.0, 0.0, 0.4395, 39.4, 19.0)" width="164.25" xlink:href="#font_______W7_u0"/>
        <use fill="#000000" height="14.25" transform="matrix(0.4395, 0.0, 0.0, 0.4395, 49.8, 19.0)" width="164.25" xlink:href="#font_______W7_l0"/>
        <use fill="#000000" height="14.25" transform="matrix(0.4395, 0.0, 0.0, 0.4395, 55.85, 19.0)" width="164.25" xlink:href="#font_______W7_a0"/>
        <use fill="#000000" height="14.25" transform="matrix(0.4395, 0.0, 0.0, 0.4395, 66.5, 19.0)" width="164.25" xlink:href="#font_______W7_n0"/>
        <use fill="#000000" height="14.25" transform="matrix(0.4395, 0.0, 0.0, 0.4395, 77.0, 19.0)" width="164.25" xlink:href="#font_______W7_c0"/>
        <use fill="#000000" height="14.25" transform="matrix(0.4395, 0.0, 0.0, 0.4395, 86.8, 19.0)" width="164.25" xlink:href="#font_______W7_e0"/>
        <use fill="#000000" height="14.25" transform="matrix(0.4395, 0.0, 0.0, 0.4395, 102.45, 19.0)" width="164.25" xlink:href="#font_______W7_C0"/>
        <use fill="#000000" height="14.25" transform="matrix(0.4395, 0.0, 0.0, 0.4395, 115.25, 19.0)" width="164.25" xlink:href="#font_______W7_h0"/>
        <use fill="#000000" height="14.25" transform="matrix(0.4395, 0.0, 0.0, 0.4395, 126.2, 19.0)" width="164.25" xlink:href="#font_______W7_a0"/>
        <use fill="#000000" height="14.25" transform="matrix(0.4395, 0.0, 0.0, 0.4395, 136.85, 19.0)" width="164.25" xlink:href="#font_______W7_s0"/>
        <use fill="#000000" height="14.25" transform="matrix(0.4395, 0.0, 0.0, 0.4395, 146.25, 19.0)" width="164.25" xlink:href="#font_______W7_e0"/>
        <use fill="#000000" height="14.25" transform="matrix(0.4395, 0.0, 0.0, 0.4395, 156.55, 19.0)" width="164.25" xlink:href="#font_______W7_r0"/>
      </g>
    </g>
    <g id="font_______W7_A0">
      <path d="M14.9 -11.95 L14.9 -11.95 19.2 -22.85 22.9 -13.4 14.9 -11.95 M21.7 -29.25 L21.7 -29.25 22.1 -30.3 17.9 -32.15 0.75 -4.5 10.15 0.05 12.75 -6.5 25.6 -6.5 28.15 0.05 37.4 -4.5 21.7 -29.25" fill-rule="evenodd" stroke="none"/>
    </g>
    <g id="font_______W7_m0">
      <path d="M35.35 -9.0 L35.35 -9.0 Q35.35 -21.45 27.8 -21.45 24.2 -21.45 21.15 -18.8 19.2 -21.45 15.65 -21.45 12.4 -21.45 9.45 -19.2 L9.25 -20.75 4.35 -21.45 2.05 0.05 11.95 -1.4 10.25 -13.85 Q12.25 -15.8 13.75 -15.8 16.4 -15.8 16.4 -11.2 16.4 -8.95 15.2 -5.8 L12.95 -0.75 22.1 0.1 Q23.3 -4.75 23.3 -9.55 23.3 -12.35 22.95 -14.3 24.5 -15.7 25.75 -15.7 28.25 -15.7 28.25 -11.2 28.25 -7.95 25.1 -0.65 L34.25 0.2 Q35.35 -4.25 35.35 -9.0" fill-rule="evenodd" stroke="none"/>
    </g>
    <g id="font_______W7_b0">
      <path d="M20.9 -12.9 L20.9 -12.9 Q20.9 -9.4 17.6 -9.4 15.3 -9.4 13.25 -11.85 L11.45 -8.4 10.95 -14.2 Q13.25 -16.5 16.3 -16.5 17.85 -16.5 19.35 -15.5 20.9 -14.45 20.9 -12.9 M28.25 -10.45 L28.25 -10.45 Q28.25 -15.0 25.1 -18.25 21.9 -21.45 17.35 -21.45 13.75 -21.45 10.5 -19.25 L9.35 -31.5 4.65 -32.15 2.05 0.05 12.15 -0.75 12.15 -2.05 Q14.7 0.05 18.2 0.05 22.6 0.05 25.4 -3.0 28.25 -6.0 28.25 -10.45" fill-rule="evenodd" stroke="none"/>
    </g>
    <g id="font_______W7_u0">
      <path d="M24.1 -20.75 L24.1 -20.75 19.25 -21.45 17.9 -8.95 16.15 -11.65 Q13.35 -8.1 10.6 -8.1 9.0 -8.1 8.15 -9.4 7.25 -10.65 7.25 -12.3 7.25 -15.75 8.6 -19.75 L3.9 -21.15 Q2.05 -16.35 2.05 -11.4 2.05 -6.45 4.25 -3.4 6.75 0.05 11.5 0.05 14.55 0.05 17.1 -1.5 L16.95 0.1 26.8 -1.35 24.1 -20.75" fill-rule="evenodd" stroke="none"/>
    </g>
    <g id="font_______W7_l0">
      <path d="M11.6 -31.5 L11.6 -31.5 6.9 -32.15 4.35 0.05 14.4 -1.4 11.6 -31.5" fill-rule="evenodd" stroke="none"/>
    </g>
    <g id="font_______W7_a0">
      <path d="M19.05 -8.85 L19.05 -8.85 18.5 -5.05 17.1 -9.0 Q14.35 -6.2 10.6 -6.2 9.95 -6.2 9.45 -6.75 9.0 -7.2 9.0 -7.85 9.0 -10.2 13.7 -10.2 15.9 -10.2 19.05 -8.85 M27.4 -6.8 L27.4 -6.8 Q27.4 -21.45 13.35 -21.45 7.15 -21.45 2.55 -18.35 L4.3 -14.35 Q8.3 -16.55 13.15 -16.55 17.85 -16.55 18.85 -13.35 15.4 -14.5 12.8 -14.5 8.6 -14.5 5.6 -12.8 1.8 -10.75 1.8 -6.95 1.8 -3.5 4.9 -1.55 7.55 0.05 11.15 0.05 13.95 0.05 17.35 -0.95 L17.0 0.15 26.7 -0.3 Q27.4 -3.45 27.4 -6.8" fill-rule="evenodd" stroke="none"/>
    </g>
    <g id="font_______W7_n0">
      <path d="M27.0 -9.05 L27.0 -9.05 Q27.0 -14.5 24.65 -17.8 21.9 -21.45 16.6 -21.45 12.6 -21.45 9.45 -18.85 L9.2 -20.75 4.35 -21.45 2.05 0.05 11.95 -1.4 10.35 -12.55 Q12.95 -15.85 15.9 -15.85 19.4 -15.85 19.4 -10.6 19.4 -6.9 16.6 -1.3 L26.2 0.0 Q27.0 -6.5 27.0 -9.05" fill-rule="evenodd" stroke="none"/>
    </g>
    <g id="font_______W7_c0">
      <path d="M21.35 -12.5 L21.35 -12.5 Q19.95 -10.5 17.75 -9.15 15.35 -7.6 13.15 -7.6 11.4 -7.6 10.2 -8.85 8.9 -10.05 8.9 -11.8 8.9 -14.1 10.65 -15.4 12.2 -16.55 14.55 -16.55 18.9 -16.55 21.9 -13.7 L24.4 -17.55 Q19.65 -21.45 13.1 -21.45 8.05 -21.45 4.9 -18.4 1.8 -15.3 1.8 -10.3 1.8 -5.6 5.7 -2.65 9.25 0.05 14.1 0.05 17.2 0.05 20.45 -1.1 24.05 -2.3 25.9 -4.4 L21.35 -12.5" fill-rule="evenodd" stroke="none"/>
    </g>
    <g id="font_______W7_e0">
      <path d="M19.45 -9.9 L19.45 -9.9 Q16.75 -7.55 13.6 -7.55 10.45 -7.55 9.15 -9.9 L19.45 -9.9 M9.0 -13.4 L9.0 -13.4 Q9.7 -14.95 11.5 -15.95 13.2 -16.8 15.1 -16.8 18.05 -16.8 19.65 -14.35 L9.0 -13.4 M23.25 -9.9 L23.25 -9.9 24.3 -9.9 26.7 -12.6 Q25.85 -16.7 22.9 -19.1 19.9 -21.45 15.15 -21.45 9.65 -21.45 5.9 -18.65 1.8 -15.6 1.8 -10.4 1.8 -5.35 5.8 -2.5 9.3 0.05 14.6 0.05 22.45 0.05 27.15 -4.25 L23.25 -9.9" fill-rule="evenodd" stroke="none"/>
    </g>
    <g id="font_______W7_C0">
      <path d="M26.2 -15.4 L26.2 -15.4 Q21.6 -8.3 16.1 -8.3 12.35 -8.3 10.4 -10.7 8.6 -12.9 8.6 -16.75 8.6 -21.2 11.05 -23.95 13.55 -26.6 17.95 -26.6 23.65 -26.6 27.3 -22.25 L31.1 -26.05 Q28.65 -28.9 25.1 -30.55 21.55 -32.15 17.8 -32.15 10.8 -32.15 6.45 -27.4 2.05 -22.7 2.05 -15.6 2.05 -8.95 6.35 -4.45 10.7 0.05 17.3 0.05 25.6 0.05 32.65 -7.35 L26.2 -15.4" fill-rule="evenodd" stroke="none"/>
    </g>
    <g id="font_______W7_h0">
      <path d="M28.1 -7.6 L28.1 -7.6 Q28.1 -13.7 25.7 -17.25 22.9 -21.45 17.05 -21.45 13.35 -21.45 10.45 -19.3 L9.3 -31.55 4.65 -32.15 2.05 0.05 12.1 -1.4 11.0 -12.9 Q13.45 -15.95 16.35 -15.95 20.1 -15.95 20.1 -10.2 20.1 -6.55 17.6 -1.55 L27.6 0.05 28.1 -7.6" fill-rule="evenodd" stroke="none"/>
    </g>
    <g id="font_______W7_s0">
      <path d="M25.05 -6.35 L25.05 -6.35 Q25.05 -12.25 15.35 -13.65 8.7 -14.6 8.7 -15.7 8.7 -17.05 12.35 -17.05 17.1 -17.05 22.25 -14.8 L23.8 -18.2 Q19.05 -21.45 12.25 -21.45 8.55 -21.45 6.05 -20.35 2.6 -18.85 2.6 -15.7 2.6 -13.1 4.75 -11.8 6.5 -10.75 10.95 -10.05 L16.3 -8.95 Q17.8 -8.4 17.8 -7.5 17.8 -6.2 15.25 -6.2 12.3 -6.2 9.1 -7.45 5.9 -8.7 3.8 -10.65 L1.0 -2.6 Q6.45 0.05 14.3 0.05 25.05 0.05 25.05 -6.35" fill-rule="evenodd" stroke="none"/>
    </g>
    <g id="font_______W7_r0">
      <path d="M18.3 -20.6 L18.3 -20.6 Q16.55 -21.45 14.75 -21.45 11.5 -21.45 8.7 -18.65 L8.45 -20.75 4.45 -21.45 2.55 0.05 10.65 -1.4 9.3 -12.8 Q10.55 -14.85 12.3 -14.85 13.25 -14.85 14.55 -13.85 L16.55 -12.05 18.3 -20.6" fill-rule="evenodd" stroke="none"/>
    </g>
    <g id="shape3" transform="matrix(1.0, 0.0, 0.0, 1.0, -3.7, 10.3)">
      <path d="M171.7 183.3 L165.55 145.2 127.15 119.0 129.1 66.6 131.6 -3.8 62.55 6.35 65.85 82.3 67.0 109.55 28.8 142.5 8.55 215.85 11.1 253.75 12.45 274.35 16.4 283.45 167.8 283.45 176.0 269.3 176.7 214.2 171.7 183.3 M125.35 9.95 Q126.15 16.05 120.45 17.6 118.05 18.3 116.0 17.1 L115.95 15.05 Q117.4 15.9 119.15 15.95 124.85 15.45 125.35 9.95 M121.15 6.0 L122.3 4.75 122.3 6.9 114.05 15.6 114.05 13.35 121.15 6.0 M103.1 -4.05 Q120.35 -7.85 137.75 -10.3 L133.25 119.7 Q136.65 122.8 140.8 125.1 L170.8 141.65 181.6 203.55 178.7 270.7 171.65 286.25 12.5 286.25 6.7 275.75 3.7 221.35 24.65 139.4 61.05 106.9 56.6 5.65 70.6 2.85 103.1 -4.05 M59.75 129.4 L59.8 129.45 59.75 129.45 59.75 129.4 M59.8 129.4 L59.8 127.25 68.05 118.65 68.05 120.75 59.8 129.4 M71.15 123.8 Q71.9 129.9 66.25 131.55 63.75 132.25 61.75 130.95 L61.75 128.95 Q63.2 129.75 64.95 129.8 70.65 129.3 71.15 123.8 M163.5 197.65 L163.9 196.9 163.95 196.9 163.5 197.65 M161.9 198.7 Q162.0 199.7 162.55 200.55 L163.25 201.25 163.95 201.6 Q169.3 203.4 170.0 197.95 171.25 203.25 166.05 204.15 161.65 203.5 161.9 198.7 M161.1 268.45 L169.35 259.85 169.35 261.95 161.1 270.6 161.1 268.45 M163.0 272.15 L163.0 270.15 Q164.45 270.95 166.25 271.0 171.9 270.5 172.45 265.0 173.2 271.1 167.5 272.8 165.15 273.45 163.0 272.15 M161.05 270.6 L161.1 270.65 161.05 270.65 161.05 270.6 M22.2 260.9 Q22.95 263.65 20.8 264.9 14.7 268.2 14.05 261.35 L14.65 263.0 Q15.15 258.25 20.0 257.3 L21.35 258.4 Q21.0 264.2 15.35 263.65 L16.0 263.95 Q21.0 266.05 22.2 260.9" fill="#47525f" fill-rule="evenodd" stroke="none"/>
      <path d="M129.1 66.6 L127.15 119.0 165.55 145.2 171.7 183.3 11.1 253.75 8.55 215.85 28.8 142.5 67.0 109.55 65.85 82.3 129.1 66.6 M123.15 7.55 L124.2 6.4 Q124.7 15.05 116.2 15.05 L115.95 15.05 123.15 7.55 M58.6 123.9 L58.6 126.35 Q58.35 127.1 59.75 129.4 L59.75 129.45 59.8 129.5 61.75 130.95 Q63.75 132.25 66.25 131.55 71.9 129.9 71.15 123.8 L69.95 120.3 Q70.5 128.95 62.0 128.95 L61.75 128.95 68.9 121.45 68.05 120.75 68.05 118.65 67.7 118.35 67.05 118.1 Q59.95 116.65 58.6 123.9 M163.0 270.15 L170.15 262.65 171.25 261.5 171.3 262.3 Q171.1 270.4 163.0 270.15" fill="#bab9ba" fill-rule="evenodd" stroke="none"/>
      <path d="M129.1 66.6 L65.85 82.3 62.55 6.35 131.6 -3.8 129.1 66.6 M11.1 253.75 L171.7 183.3 176.7 214.2 176.0 269.3 167.8 283.45 16.4 283.45 12.45 274.35 11.1 253.75 M125.35 9.95 L124.2 6.4 123.15 7.55 122.3 6.9 122.3 4.75 121.15 6.0 122.25 4.75 121.9 4.5 121.3 4.25 Q114.25 2.8 112.8 10.0 L112.8 12.45 Q112.6 13.2 114.05 15.6 L116.0 17.1 Q118.05 18.3 120.45 17.6 126.15 16.05 125.35 9.95 M163.9 196.9 L164.0 196.8 163.95 196.9 163.9 196.9 M167.75 194.95 L167.9 194.85 Q162.9 193.55 161.9 198.7 161.65 203.5 166.05 204.15 171.25 203.25 170.0 197.95 L169.2 196.0 167.75 194.95 M160.85 266.8 L160.8 267.05 160.8 267.0 160.85 266.8 M169.35 259.85 L168.75 259.6 Q162.65 257.6 160.35 263.8 L159.85 265.55 159.85 267.55 Q159.65 268.3 161.05 270.6 L161.05 270.65 161.1 270.7 163.0 272.15 Q165.15 273.45 167.5 272.8 173.2 271.1 172.45 265.0 L171.25 261.5 170.15 262.65 169.35 261.95 169.35 259.85 M22.2 260.9 L21.35 258.4 20.0 257.3 19.1 257.0 Q14.3 256.6 14.05 261.35 14.7 268.2 20.8 264.9 22.95 263.65 22.2 260.9" fill="#9c9c9c" fill-rule="evenodd" stroke="none"/>
      <path d="M116.0 17.1 L114.05 15.6 122.3 6.9 123.15 7.55 115.95 15.05 116.0 17.1 M59.8 129.45 L59.8 129.5 59.8 129.4 68.05 120.75 68.9 121.45 61.75 128.95 61.75 130.95 59.8 129.5 59.75 129.45 59.8 129.45 M161.1 270.7 L161.1 270.6 169.35 261.95 170.15 262.65 163.0 270.15 163.0 272.15 161.1 270.7 161.05 270.65 161.1 270.65 161.1 270.7" fill="#57565b" fill-rule="evenodd" stroke="none"/>
      <path d="M114.05 15.6 Q112.6 13.2 112.8 12.45 L112.8 10.0 Q112.9 11.5 113.65 12.85 L114.05 13.35 114.05 15.6 M58.6 123.9 Q58.7 125.4 59.45 126.7 L59.8 127.25 59.8 129.4 59.8 129.5 59.8 129.45 59.75 129.4 Q58.35 127.1 58.6 126.35 L58.6 123.9 M160.8 267.05 L160.75 267.9 161.1 268.45 161.1 270.6 161.1 270.7 161.1 270.65 161.05 270.6 Q159.65 268.3 159.85 267.55 L159.85 265.55 Q160.0 266.75 160.7 267.9 L160.8 267.0 160.8 267.05" fill="#79818b" fill-rule="evenodd" stroke="none"/>
      <path d="M121.9 4.5 L122.25 4.75 121.15 6.0 114.05 13.35 113.65 12.85 Q115.0 6.9 121.05 4.8 L121.9 4.5 M59.8 127.25 L59.45 126.7 59.65 125.8 Q62.0 120.25 67.7 118.35 L68.05 118.65 59.8 127.25 M164.0 196.8 L164.6 196.2 Q166.1 195.1 167.75 194.95 L169.2 196.0 169.05 196.9 Q168.0 201.7 163.25 201.25 L162.55 200.55 163.5 197.65 163.95 196.9 164.0 196.8 M160.85 266.8 L161.35 265.75 Q163.85 261.4 168.75 259.6 L169.35 259.85 161.1 268.45 160.75 267.9 160.8 267.05 160.85 266.8" fill="#d0cfd0" fill-rule="evenodd" stroke="none"/>
      <path d="M112.8 10.0 Q114.25 2.8 121.3 4.25 L121.9 4.5 121.05 4.8 Q115.0 6.9 113.65 12.85 112.9 11.5 112.8 10.0 M59.45 126.7 Q58.7 125.4 58.6 123.9 59.95 116.65 67.05 118.1 L67.7 118.35 Q62.0 120.25 59.65 125.8 L59.45 126.7 M163.9 196.9 L163.5 197.65 162.55 200.55 Q162.0 199.7 161.9 198.7 162.9 193.55 167.9 194.85 L167.75 194.95 Q166.1 195.1 164.6 196.2 L164.0 196.8 163.9 196.9 M168.75 259.6 Q163.85 261.4 161.35 265.75 L160.85 266.8 160.8 267.0 160.7 267.9 Q160.0 266.75 159.85 265.55 L160.35 263.8 Q162.65 257.6 168.75 259.6 M14.05 261.35 Q14.3 256.6 19.1 257.0 L20.0 257.3 Q15.15 258.25 14.65 263.0 L14.05 261.35" fill="#e9e9eb" fill-rule="evenodd" stroke="none"/>
      <path d="M124.2 6.4 L125.35 9.95 Q124.85 15.45 119.15 15.95 117.4 15.9 115.95 15.05 L116.2 15.05 Q124.7 15.05 124.2 6.4 M61.75 128.95 L62.0 128.95 Q70.5 128.95 69.95 120.3 L71.15 123.8 Q70.65 129.3 64.95 129.8 63.2 129.75 61.75 128.95 M170.0 197.95 Q169.3 203.4 163.95 201.6 L163.25 201.25 Q168.0 201.7 169.05 196.9 L169.2 196.0 170.0 197.95 M21.35 258.4 L22.2 260.9 Q21.0 266.05 16.0 263.95 L15.35 263.65 Q21.0 264.2 21.35 258.4 M172.45 265.0 Q171.9 270.5 166.25 271.0 164.45 270.95 163.0 270.15 171.1 270.4 171.3 262.3 L171.25 261.5 172.45 265.0" fill="#b0aeb3" fill-rule="evenodd" stroke="none"/>
    </g>
    <g id="shape4" transform="matrix(1.0, 0.0, 0.0, 1.0, 0.0, 0.0)">
      <path d="M95.0 23.25 L94.35 3.15 63.05 3.0 61.75 23.5 95.0 23.25 M95.8 0.15 L96.85 0.6 98.0 23.2 99.9 23.35 100.75 24.05 101.4 32.2 100.15 32.75 99.8 32.9 97.65 32.85 97.8 110.25 130.65 126.65 131.45 127.7 142.45 180.2 142.9 234.65 143.2 236.5 143.5 238.9 Q144.25 247.35 143.35 255.9 L127.45 262.3 114.65 255.8 114.1 262.3 112.95 262.95 73.95 262.5 38.5 262.95 37.25 262.2 36.45 256.7 30.35 262.85 4.95 254.2 Q4.5 254.15 4.15 253.8 L0.05 216.75 0.0 216.3 5.5 175.3 19.5 126.1 20.3 125.15 54.5 108.8 58.25 32.6 53.8 31.7 54.85 24.15 58.75 23.55 60.7 0.5 61.65 0.0 95.8 0.15 M98.45 29.85 L98.0 26.2 57.0 26.55 56.7 29.6 98.45 29.85 M90.75 52.2 L91.55 49.15 91.3 48.75 Q87.25 47.55 83.8 49.9 82.35 50.9 82.4 52.55 L81.95 53.55 80.9 53.3 80.5 52.75 Q80.15 51.45 80.7 50.55 83.9 45.55 90.25 46.35 91.15 46.65 91.9 47.25 94.7 49.4 92.35 52.85 L91.0 52.8 90.75 52.2 M92.1 35.8 Q93.65 36.75 92.45 38.15 L78.8 49.05 Q78.1 49.2 77.7 48.65 77.15 47.95 77.7 47.4 84.3 40.95 91.6 35.5 L92.1 35.8 M81.2 65.95 L82.05 62.3 82.7 62.35 Q86.6 68.45 93.8 69.75 L93.55 71.15 Q88.35 70.8 84.4 67.55 83.75 67.05 83.2 65.85 80.2 69.55 75.55 68.95 72.7 68.75 70.35 66.4 67.5 69.7 63.75 69.75 L61.2 69.7 60.55 68.8 61.2 67.85 Q65.75 68.35 68.9 64.9 70.25 63.45 70.6 61.6 L71.2 61.35 72.0 61.75 71.6 65.1 Q74.05 67.65 76.65 67.45 79.25 67.25 81.2 65.95 M80.85 75.65 L92.65 71.7 93.3 72.55 Q93.3 73.1 92.8 73.5 92.45 73.75 92.4 73.5 L81.55 77.5 80.95 77.4 80.25 77.95 80.15 78.0 78.8 77.5 79.0 76.4 79.45 76.15 79.55 76.1 80.4 76.25 80.85 75.65 M94.15 92.8 L93.85 93.25 93.1 93.4 93.3 92.9 Q93.55 92.0 94.15 92.8 M59.15 75.5 L57.55 108.3 74.75 114.7 94.25 108.8 88.4 110.8 94.55 109.05 94.65 32.85 61.25 32.6 60.95 38.7 61.05 38.6 Q61.3 38.4 61.6 38.35 L63.1 38.4 Q68.6 42.65 73.25 47.45 L72.4 49.0 60.85 40.2 59.25 73.2 59.15 75.5 M61.5 71.05 L71.35 76.4 71.9 77.05 Q72.1 77.95 71.25 78.25 L70.35 78.1 61.45 73.2 60.55 72.35 60.9 71.3 61.5 71.05 M69.8 53.1 L70.45 51.95 Q70.2 50.3 68.75 49.15 66.45 47.4 64.0 48.0 L63.4 50.2 63.05 50.6 62.1 50.7 61.55 50.15 Q61.2 46.75 64.55 45.65 69.2 46.15 71.75 49.95 73.75 52.9 70.75 54.5 L69.8 53.95 69.8 53.1 M69.9 121.9 L69.65 117.7 65.4 114.9 65.65 126.4 69.9 121.9 M80.15 116.65 L79.6 123.0 84.3 127.05 85.65 114.3 80.15 116.65 M77.05 117.5 L72.7 118.15 72.9 121.2 76.65 121.9 77.05 117.5 M53.95 128.75 L45.35 136.15 69.85 166.05 71.1 163.65 55.55 111.65 38.65 119.7 53.85 128.1 53.95 128.75 M43.0 136.3 L43.35 135.3 51.2 128.7 36.45 120.75 22.2 127.55 8.4 175.9 2.95 216.5 5.55 244.25 Q9.95 226.8 12.5 226.9 L15.8 226.55 Q20.2 224.15 24.5 225.15 29.85 226.6 34.6 230.4 L29.0 154.3 23.0 142.75 23.9 142.05 30.95 153.95 36.8 232.25 39.95 235.1 38.2 244.4 39.9 246.7 39.8 259.95 60.5 259.7 61.6 185.55 69.45 167.4 68.5 167.4 43.0 136.3 M62.4 113.3 L58.75 111.95 62.6 124.9 62.4 113.3 M64.6 131.55 L69.45 147.75 74.75 150.9 76.5 149.8 84.5 131.2 77.3 125.05 72.0 124.1 64.6 131.55 M124.55 134.5 L125.4 135.2 120.45 146.25 115.15 233.95 118.4 230.85 121.6 227.7 121.95 227.4 122.35 227.25 Q132.25 225.6 139.9 231.85 L139.45 180.7 128.65 129.05 107.45 118.45 94.65 130.35 101.35 134.1 101.45 134.65 101.25 135.15 63.6 185.7 62.5 259.65 111.5 259.95 111.7 254.2 110.3 253.35 109.95 253.1 109.7 252.75 109.55 252.4 Q109.55 247.5 112.6 243.6 L118.45 145.95 121.0 140.55 123.6 135.15 124.0 134.75 124.55 134.5 M79.05 151.4 L79.0 151.6 73.9 163.65 Q73.6 164.25 72.95 164.45 L67.1 177.7 98.95 134.9 92.05 131.0 92.0 130.4 105.55 117.5 95.7 112.55 79.15 151.25 79.05 151.4 M72.75 158.6 L74.6 154.3 70.75 152.0 72.75 158.6 M92.35 112.85 L88.3 114.0 87.55 124.1 92.35 112.85 M125.7 242.6 L125.85 242.1 126.25 241.65 126.7 241.25 128.15 241.85 131.05 252.0 130.0 252.8 129.05 252.65 127.95 251.2 122.1 250.8 115.1 245.3 112.8 247.7 112.55 251.2 127.6 259.4 140.95 253.9 141.1 237.05 132.0 228.65 123.35 230.1 116.3 237.05 116.3 242.5 123.15 247.9 127.05 248.1 125.75 243.1 125.7 242.6 M22.75 246.95 L31.8 247.05 36.9 236.3 24.6 225.9 13.8 229.0 Q8.3 240.05 6.9 252.0 L29.55 259.65 36.65 252.15 36.95 247.45 35.95 246.4 33.5 249.75 22.3 249.95 20.85 252.05 19.65 251.7 21.1 240.35 22.8 240.3 23.3 240.95 22.75 246.95" fill="#1a1a1a" fill-rule="evenodd" stroke="none"/>
      <path d="M85.95 10.6 L85.95 16.75 80.55 16.75 80.55 22.15 74.4 22.15 74.4 16.75 69.0 16.75 69.0 10.6 74.4 10.6 74.4 5.2 80.55 5.2 80.55 10.6 85.95 10.6" fill="#993300" fill-rule="evenodd" stroke="none"/>
      <path d="M98.45 29.85 L56.7 29.6 57.0 26.55 98.0 26.2 98.45 29.85 M43.0 136.3 L68.5 167.4 69.45 167.4 61.6 185.55 60.5 259.7 39.8 259.95 39.9 246.7 38.2 244.4 39.95 235.1 36.8 232.25 30.95 153.95 23.9 142.05 23.0 142.75 29.0 154.3 34.6 230.4 Q29.85 226.6 24.5 225.15 20.2 224.15 15.8 226.55 L12.5 226.9 Q9.95 226.8 5.55 244.25 L2.95 216.5 8.4 175.9 22.2 127.55 36.45 120.75 51.2 128.7 43.35 135.3 43.0 136.3 M53.95 128.75 L53.85 128.1 38.65 119.7 55.55 111.65 71.1 163.65 69.85 166.05 45.35 136.15 53.95 128.75 M72.75 158.6 L70.75 152.0 74.6 154.3 72.75 158.6 M79.05 151.4 L79.15 151.25 95.7 112.55 105.55 117.5 92.0 130.4 92.05 131.0 98.95 134.9 67.1 177.7 72.95 164.45 Q73.6 164.25 73.9 163.65 L79.0 151.6 79.05 151.4 M124.55 134.5 L124.0 134.75 123.6 135.15 121.0 140.55 118.45 145.95 112.6 243.6 Q109.55 247.5 109.55 252.4 L109.7 252.75 109.95 253.1 110.3 253.35 111.7 254.2 111.5 259.95 62.5 259.65 63.6 185.7 101.25 135.15 101.45 134.65 101.35 134.1 94.65 130.35 107.45 118.45 128.65 129.05 139.45 180.7 139.9 231.85 Q132.25 225.6 122.35 227.25 L121.95 227.4 121.6 227.7 118.4 230.85 115.15 233.95 120.45 146.25 125.4 135.2 124.55 134.5" fill="#3a3d6a" fill-rule="evenodd" stroke="none"/>
      <path d="M85.95 10.6 L80.55 10.6 80.55 5.2 74.4 5.2 74.4 10.6 69.0 10.6 69.0 16.75 74.4 16.75 74.4 22.15 80.55 22.15 80.55 16.75 85.95 16.75 85.95 10.6 M95.0 23.25 L61.75 23.5 63.05 3.0 94.35 3.15 95.0 23.25 M88.15 84.0 L88.05 80.05 87.15 83.85 Q77.2 80.75 67.15 83.0 L66.9 80.4 66.2 80.15 66.15 83.3 64.45 83.75 64.3 84.65 66.2 84.3 66.6 87.45 67.2 84.05 Q77.3 82.75 87.1 84.9 L87.9 87.3 88.1 85.05 90.5 85.35 90.75 84.5 88.15 84.0 M92.4 73.5 Q92.2 78.1 92.45 81.3 92.7 84.45 92.2 91.75 86.35 90.25 82.0 87.75 77.65 85.2 73.05 87.35 68.4 89.5 62.2 93.9 L62.4 88.8 Q62.7 80.95 61.45 73.2 L70.35 78.1 Q72.2 79.8 74.7 79.75 77.7 79.55 80.15 78.0 L80.25 77.95 81.55 77.5 92.4 73.5" fill="#ffffff" fill-rule="evenodd" stroke="none"/>
      <path d="M84.35 52.5 L84.1 51.05 84.5 50.7 84.55 50.7 Q86.3 49.3 87.5 50.95 L87.8 51.9 86.8 53.3 86.5 53.7 85.25 53.8 84.35 52.5 M93.3 72.55 L94.15 92.8 Q93.55 92.0 93.3 92.9 L93.1 93.4 92.4 93.7 80.5 89.1 Q74.8 86.75 70.2 90.75 65.95 94.5 60.55 96.2 61.45 87.45 61.15 78.65 61.1 77.3 60.45 76.25 L59.15 75.5 59.25 73.2 Q59.3 72.3 59.9 71.7 60.55 71.05 61.5 71.05 L60.9 71.3 60.55 72.35 61.45 73.2 Q62.7 80.95 62.4 88.8 L62.2 93.9 Q68.4 89.5 73.05 87.35 77.65 85.2 82.0 87.75 86.35 90.25 92.2 91.75 92.7 84.45 92.45 81.3 92.2 78.1 92.4 73.5 92.45 73.75 92.8 73.5 93.3 73.1 93.3 72.55 M71.35 76.4 Q73.1 78.1 75.35 77.7 77.6 77.2 79.45 76.15 L79.0 76.4 78.8 77.5 80.15 78.0 Q77.7 79.55 74.7 79.75 72.2 79.8 70.35 78.1 L71.25 78.25 Q72.1 77.95 71.9 77.05 L71.35 76.4 M79.55 76.1 L80.85 75.65 80.4 76.25 79.55 76.1 M88.15 84.0 L90.75 84.5 90.5 85.35 88.1 85.05 87.9 87.3 87.1 84.9 Q77.3 82.75 67.2 84.05 L66.6 87.45 66.2 84.3 64.3 84.65 64.45 83.75 66.15 83.3 66.2 80.15 66.9 80.4 67.15 83.0 Q77.2 80.75 87.15 83.85 L88.05 80.05 88.15 84.0 M81.55 77.5 L80.25 77.95 80.95 77.4 81.55 77.5 M66.8 52.45 L65.9 51.95 65.8 51.05 67.05 49.65 Q68.85 49.75 68.85 51.6 L68.75 52.35 68.45 52.5 66.8 52.45" fill="#000000" fill-rule="evenodd" stroke="none"/>
      <path d="M90.75 52.2 L91.0 52.8 92.35 52.85 Q94.7 49.4 91.9 47.25 91.15 46.65 90.25 46.35 83.9 45.55 80.7 50.55 80.15 51.45 80.5 52.75 L80.9 53.3 81.95 53.55 82.4 52.55 84.35 52.5 85.25 53.8 86.5 53.7 86.8 53.3 87.65 52.35 90.75 52.2 M92.1 35.8 L91.6 35.5 Q84.3 40.95 77.7 47.4 77.15 47.95 77.7 48.65 78.1 49.2 78.8 49.05 L92.45 38.15 Q93.65 36.75 92.1 35.8 M81.2 65.95 Q79.25 67.25 76.65 67.45 74.05 67.65 71.6 65.1 L72.0 61.75 71.2 61.35 70.6 61.6 Q70.25 63.45 68.9 64.9 65.75 68.35 61.2 67.85 L60.55 68.8 61.2 69.7 63.75 69.75 Q67.5 69.7 70.35 66.4 72.7 68.75 75.55 68.95 80.2 69.55 83.2 65.85 83.75 67.05 84.4 67.55 88.35 70.8 93.55 71.15 L93.8 69.75 Q86.6 68.45 82.7 62.35 L82.05 62.3 81.2 65.95 M93.3 72.55 L92.65 71.7 80.85 75.65 79.55 76.1 79.45 76.15 Q77.6 77.2 75.35 77.7 73.1 78.1 71.35 76.4 L61.5 71.05 Q60.55 71.05 59.9 71.7 59.3 72.3 59.25 73.2 L60.85 40.2 72.4 49.0 73.25 47.45 Q68.6 42.65 63.1 38.4 L61.6 38.35 Q61.3 38.4 61.05 38.6 L60.95 38.7 61.25 32.6 94.65 32.85 94.55 109.05 88.4 110.8 94.25 108.8 74.75 114.7 57.55 108.3 59.15 75.5 60.45 76.25 Q61.1 77.3 61.15 78.65 61.45 87.45 60.55 96.2 65.95 94.5 70.2 90.75 74.8 86.75 80.5 89.1 L92.4 93.7 93.1 93.4 93.85 93.25 94.15 92.8 93.3 72.55 M69.8 53.1 L69.8 53.95 70.75 54.5 Q73.75 52.9 71.75 49.95 69.2 46.15 64.55 45.65 61.2 46.75 61.55 50.15 L62.1 50.7 63.05 50.6 63.4 50.2 65.0 50.95 65.1 51.85 Q65.9 52.5 66.8 52.45 L68.45 52.5 69.8 53.1 M125.7 242.6 L125.75 243.1 127.05 248.1 123.15 247.9 116.3 242.5 116.3 237.05 123.35 230.1 132.0 228.65 141.1 237.05 140.95 253.9 127.6 259.4 112.55 251.2 112.8 247.7 115.1 245.3 122.1 250.8 127.95 251.2 129.05 252.65 130.0 252.8 131.05 252.0 128.15 241.85 126.7 241.25 126.25 241.65 125.85 242.1 125.7 242.6 M22.75 246.95 L23.3 240.95 22.8 240.3 21.1 240.35 19.65 251.7 20.85 252.05 22.3 249.95 33.5 249.75 35.95 246.4 36.95 247.45 36.65 252.15 29.55 259.65 6.9 252.0 Q8.3 240.05 13.8 229.0 L24.6 225.9 36.9 236.3 31.8 247.05 22.75 246.95" fill="#cacfe6" fill-rule="evenodd" stroke="none"/>
      <path d="M82.4 52.55 Q82.35 50.9 83.8 49.9 87.25 47.55 91.3 48.75 L91.55 49.15 90.75 52.2 87.65 52.35 86.8 53.3 87.8 51.9 87.5 50.95 Q86.3 49.3 84.55 50.7 L84.5 50.65 84.5 50.7 84.1 51.05 84.35 52.5 82.4 52.55 M63.4 50.2 L64.0 48.0 Q66.45 47.4 68.75 49.15 70.2 50.3 70.45 51.95 L69.8 53.1 68.45 52.5 68.75 52.35 68.85 51.6 Q68.85 49.75 67.05 49.65 L65.8 51.05 65.9 51.95 66.8 52.45 Q65.9 52.5 65.1 51.85 L65.0 50.95 63.4 50.2" fill="#996699" fill-rule="evenodd" stroke="none"/>
      <path d="M77.05 117.5 L76.65 121.9 72.9 121.2 72.7 118.15 77.05 117.5 M80.15 116.65 L85.65 114.3 84.3 127.05 79.6 123.0 80.15 116.65 M69.9 121.9 L65.65 126.4 65.4 114.9 69.65 117.7 69.9 121.9" fill="#990000" fill-rule="evenodd" stroke="none"/>
      <path d="M64.6 131.55 L72.0 124.1 77.3 125.05 84.5 131.2 76.5 149.8 74.75 150.9 69.45 147.75 64.6 131.55 M62.4 113.3 L62.6 124.9 58.75 111.95 62.4 113.3 M92.35 112.85 L87.55 124.1 88.3 114.0 92.35 112.85" fill="#d7dcec" fill-rule="evenodd" stroke="none"/>
    </g>
    <g id="shape5" transform="matrix(1.0, 0.0, 0.0, 1.0, -0.05, 0.0)">
      <path d="M40.95 2.45 L41.9 2.8 Q42.4 1.4 44.05 1.25 46.25 1.45 46.45 3.8 L46.45 6.35 48.8 8.45 Q56.9 16.5 57.2 28.65 56.85 40.75 48.8 48.85 42.05 55.65 32.45 56.95 L32.05 57.95 Q31.35 59.0 29.8 59.15 28.3 59.0 27.6 58.05 L27.2 57.2 Q16.0 56.45 8.4 48.85 3.45 43.9 1.4 37.45 -0.45 31.7 0.25 25.75 1.75 13.25 11.8 5.55 L12.4 3.05 Q13.25 0.65 15.6 1.55 16.3 1.85 16.4 2.8 L17.0 2.55 Q21.85 0.45 27.2 0.1 33.95 0.0 40.1 2.5 L40.95 2.45 M40.75 9.5 L41.65 9.15 41.65 3.8 40.95 3.4 Q39.9 3.3 39.45 4.1 L39.5 20.75 40.05 21.3 41.6 21.05 41.65 14.2 41.0 13.95 Q39.6 13.25 39.65 11.65 39.65 10.3 40.75 9.5 M43.6 13.8 L42.65 14.2 Q42.3 22.35 43.9 21.75 L44.95 21.3 44.95 2.65 Q44.35 2.05 43.6 2.4 42.9 2.55 42.75 3.3 L42.65 9.15 43.55 9.5 Q44.2 9.85 44.5 10.65 L44.55 12.55 Q44.25 13.35 43.6 13.8 M42.85 10.1 L41.65 10.1 43.85 12.05 42.85 10.1 M40.75 10.9 L40.5 11.65 Q40.7 13.2 42.15 13.3 L42.65 13.2 40.75 10.9 M33.35 54.6 L33.1 55.4 Q42.4 53.9 48.75 46.85 56.75 37.95 55.55 25.9 54.45 15.35 46.45 8.2 L46.45 9.2 46.45 11.55 Q53.05 18.45 53.3 28.6 53.05 39.1 46.05 46.1 40.85 51.3 33.75 52.75 L33.35 54.6 M34.15 50.65 L34.05 51.35 Q40.4 49.85 45.1 45.15 51.7 38.55 51.95 28.6 51.75 19.75 46.45 13.6 L46.45 14.6 Q46.75 17.8 46.0 20.7 45.25 23.6 42.2 21.75 L41.45 22.0 Q39.2 22.8 38.3 20.55 L33.3 21.2 33.3 23.05 33.95 23.4 Q35.1 23.95 34.9 25.15 L34.35 26.45 32.4 27.25 32.4 29.2 33.85 30.25 33.95 31.8 32.3 32.9 Q34.1 41.75 34.15 50.65 M38.25 4.0 L38.65 3.4 Q29.1 -0.05 19.35 3.1 L19.75 3.6 20.0 4.15 Q29.1 3.05 38.25 4.0 M25.35 51.1 L25.1 48.35 Q25.25 40.65 27.35 32.9 26.65 32.65 26.2 32.25 24.7 30.8 26.4 29.55 L26.9 29.2 26.9 27.25 Q25.3 27.3 24.75 25.95 L24.5 24.95 Q24.55 24.05 25.5 23.4 L26.0 23.05 26.0 21.35 19.95 20.65 Q19.2 22.95 16.85 21.95 L16.1 21.7 Q15.1 23.2 13.3 22.4 12.1 22.0 12.05 20.75 L11.8 13.3 11.8 12.35 Q5.45 18.9 5.2 28.6 5.45 38.55 12.05 45.15 17.6 50.7 25.5 51.75 L25.35 51.1 M16.8 15.6 L16.5 20.75 17.35 21.35 Q18.95 21.55 19.0 19.95 19.1 12.15 18.85 4.35 L18.65 3.7 17.7 3.35 16.6 3.85 16.95 9.95 Q17.9 10.35 18.3 11.4 L18.35 13.15 16.85 14.9 16.8 15.6 M38.2 19.4 L38.2 5.0 Q29.6 4.0 20.9 5.1 L20.0 5.2 20.1 19.4 Q29.1 21.65 38.2 19.4 M33.5 24.4 Q33.3 23.9 32.85 23.9 L27.1 23.4 Q24.95 24.0 26.25 25.85 L26.9 26.45 32.3 26.4 Q33.3 26.4 33.55 25.55 33.7 24.95 33.5 24.4 M27.15 21.35 L27.15 22.95 32.0 22.95 32.0 21.35 27.15 21.35 M15.1 9.8 L15.65 9.7 15.35 3.25 14.95 2.65 14.2 2.25 Q12.95 2.6 12.95 4.0 L13.1 20.6 Q13.1 21.5 14.2 21.7 15.6 21.55 15.55 20.15 L15.3 15.05 Q13.7 14.6 13.35 13.25 L13.3 11.85 Q13.6 10.25 15.1 9.8 M26.35 54.95 L25.85 53.15 Q17.2 52.25 11.1 46.1 3.0 37.75 4.15 26.1 5.05 16.85 11.8 10.5 L11.8 8.1 11.8 7.3 Q2.9 14.65 1.7 25.95 0.55 37.1 7.7 45.9 15.0 54.85 26.6 55.7 L26.35 54.95 M17.25 11.6 L16.6 10.8 15.15 10.8 17.3 13.05 17.25 11.6 M14.45 11.5 L14.2 12.25 Q14.3 13.7 15.85 13.9 L16.6 13.7 14.45 11.5 M27.3 30.4 L26.75 31.15 27.3 32.2 32.6 31.95 32.8 30.9 32.4 30.15 31.05 30.2 27.3 30.4 M31.25 29.1 L31.25 27.25 28.2 27.25 28.3 29.1 31.25 29.1 M32.6 42.15 Q32.15 37.5 31.2 32.9 L28.45 32.9 27.2 39.55 Q26.25 45.2 26.95 51.0 L27.15 52.3 27.15 52.25 Q27.35 49.85 29.75 49.65 31.9 49.85 32.3 51.85 33.05 47.05 32.6 42.15 M30.7 58.1 L32.0 53.55 Q31.35 54.95 29.75 54.85 27.85 54.65 27.35 53.05 L28.65 57.7 30.7 58.1 M29.0 53.7 L29.75 53.95 Q31.9 53.5 31.2 51.5 L29.0 53.7 M29.75 50.6 Q28.25 50.75 28.1 52.25 L28.35 53.05 30.55 50.85 29.75 50.6" fill="#212753" fill-rule="evenodd" stroke="none"/>
      <path d="M40.95 2.45 L40.1 2.5 Q33.95 0.0 27.2 0.1 L29.2 0.0 Q35.6 0.15 40.95 2.45 M46.45 9.2 L46.45 8.2 Q54.45 15.35 55.55 25.9 56.75 37.95 48.75 46.85 42.4 53.9 33.1 55.4 L33.35 54.6 Q44.1 52.5 50.45 43.3 55.05 36.65 54.95 28.6 54.75 17.0 46.45 9.2 M46.45 14.6 L46.45 13.6 Q51.75 19.75 51.95 28.6 51.7 38.55 45.1 45.15 40.4 49.85 34.05 51.35 L34.15 50.65 Q40.2 49.15 44.65 44.7 51.05 38.3 51.3 28.65 51.15 20.45 46.45 14.6 M19.75 3.6 L19.35 3.1 Q29.1 -0.05 38.65 3.4 L38.25 4.0 Q33.8 2.25 28.5 2.1 23.8 2.25 19.75 3.6 M25.35 51.1 L25.5 51.75 Q17.6 50.7 12.05 45.15 5.45 38.55 5.2 28.6 5.45 18.9 11.8 12.35 L11.8 13.3 Q6.1 19.55 5.85 28.65 6.1 38.3 12.5 44.7 17.85 50.0 25.35 51.1 M26.35 54.95 L26.6 55.7 Q15.0 54.85 7.7 45.9 0.55 37.1 1.7 25.95 2.9 14.65 11.8 7.3 L11.8 8.1 Q3.55 15.15 2.3 25.9 1.25 35.3 6.7 43.25 13.85 53.8 26.35 54.95" fill="#514f6f" fill-rule="evenodd" stroke="none"/>
      <path d="M41.0 13.95 L41.65 14.2 41.6 21.05 40.05 21.3 39.5 20.75 39.45 4.1 Q39.9 3.3 40.95 3.4 L41.65 3.8 41.65 9.15 40.75 9.5 40.4 4.85 Q39.7 5.45 39.65 6.45 39.35 12.5 39.85 18.55 39.95 19.55 40.65 19.75 41.55 19.1 41.5 17.7 L41.0 13.95 M43.55 9.5 L42.65 9.15 42.75 3.3 Q42.9 2.55 43.6 2.4 44.35 2.05 44.95 2.65 L44.95 21.3 43.9 21.75 Q42.3 22.35 42.65 14.2 L43.6 13.8 44.0 20.3 44.55 12.55 44.5 10.65 44.25 4.4 43.55 4.3 43.55 9.5 M36.15 9.6 Q34.9 7.5 32.4 7.85 29.75 8.15 27.1 7.8 24.95 7.25 23.1 8.3 20.7 10.35 22.5 12.35 24.25 14.4 26.55 15.0 L31.75 15.4 Q34.7 15.25 36.3 13.5 37.3 11.55 36.15 9.6 M27.5 24.1 L27.45 24.1 Q26.9 24.25 26.9 24.5 26.85 24.85 27.9 25.35 L30.85 25.25 Q31.6 24.85 31.6 24.5 31.5 24.1 30.4 23.85 L27.5 24.1 M27.15 21.35 L32.0 21.35 32.0 22.95 27.15 22.95 27.15 21.35 M33.5 24.4 Q33.7 24.95 33.55 25.55 33.3 26.4 32.3 26.4 L26.9 26.45 26.25 25.85 Q24.95 24.0 27.1 23.4 L32.85 23.9 Q33.3 23.9 33.5 24.4 M38.2 19.4 Q29.1 21.65 20.1 19.4 L20.0 5.2 20.9 5.1 Q29.6 4.0 38.2 5.0 L38.2 19.4 M16.95 9.95 L16.6 3.85 17.7 3.35 18.65 3.7 18.85 4.35 Q19.1 12.15 19.0 19.95 18.95 21.55 17.35 21.35 L16.5 20.75 16.8 15.6 17.85 19.6 18.35 13.15 18.3 11.4 17.45 5.4 16.95 9.95 M15.3 15.05 L15.55 20.15 Q15.6 21.55 14.2 21.7 13.1 21.5 13.1 20.6 L12.95 4.0 Q12.95 2.6 14.2 2.25 L14.95 2.65 15.35 3.25 15.65 9.7 15.1 9.8 14.3 3.55 13.4 4.2 13.3 11.85 13.35 13.25 14.15 20.3 14.85 20.25 15.3 15.05 M31.05 30.2 L32.4 30.15 32.8 30.9 32.6 31.95 27.3 32.2 26.75 31.15 27.3 30.4 27.4 31.15 31.25 31.35 31.5 30.7 31.05 30.2 M31.25 29.1 L28.3 29.1 28.2 27.25 31.25 27.25 31.25 29.1 M27.9 48.35 Q29.05 49.75 30.55 48.65 32.0 47.2 31.6 44.95 31.65 41.3 30.8 37.75 30.7 36.45 29.75 35.6 28.7 35.65 28.3 38.1 27.95 40.5 27.95 41.5 26.8 45.1 27.9 48.35 M32.6 42.15 Q33.05 47.05 32.3 51.85 31.9 49.85 29.75 49.65 27.35 49.85 27.15 52.25 L27.15 52.3 26.95 51.0 Q26.25 45.2 27.2 39.55 L28.45 32.9 31.2 32.9 Q32.15 37.5 32.6 42.15 M30.7 58.1 L28.65 57.7 27.35 53.05 Q27.85 54.65 29.75 54.85 31.35 54.95 32.0 53.55 L30.7 58.1 M29.1 55.9 Q28.65 57.55 30.25 57.4 31.35 56.6 30.65 55.85 L29.1 55.9" fill="#69839d" fill-rule="evenodd" stroke="none"/>
      <path d="M40.75 9.5 Q39.65 10.3 39.65 11.65 39.6 13.25 41.0 13.95 L41.5 17.7 Q41.55 19.1 40.65 19.75 39.95 19.55 39.85 18.55 39.35 12.5 39.65 6.45 39.7 5.45 40.4 4.85 L40.75 9.5 M43.55 9.5 L43.55 4.3 44.25 4.4 44.5 10.65 Q44.2 9.85 43.55 9.5 M44.55 12.55 L44.0 20.3 43.6 13.8 Q44.25 13.35 44.55 12.55 M34.2 11.4 L33.9 10.25 26.9 9.5 Q25.3 9.3 24.4 10.6 24.5 12.95 27.0 13.65 31.6 14.85 34.2 11.4 M36.15 9.6 Q37.3 11.55 36.3 13.5 34.7 15.25 31.75 15.4 L26.55 15.0 Q24.25 14.4 22.5 12.35 20.7 10.35 23.1 8.3 24.95 7.25 27.1 7.8 29.75 8.15 32.4 7.85 34.9 7.5 36.15 9.6 M27.5 24.1 L30.4 23.85 Q31.5 24.1 31.6 24.5 31.6 24.85 30.85 25.25 L27.9 25.35 Q26.85 24.85 26.9 24.5 26.9 24.25 27.45 24.1 L27.5 24.1 M16.8 15.6 L16.85 14.9 18.35 13.15 17.85 19.6 16.8 15.6 M18.3 11.4 Q17.9 10.35 16.95 9.95 L17.45 5.4 18.3 11.4 M15.3 15.05 L14.85 20.25 14.15 20.3 13.35 13.25 Q13.7 14.6 15.3 15.05 M13.3 11.85 L13.4 4.2 14.3 3.55 15.1 9.8 Q13.6 10.25 13.3 11.85 M27.3 30.4 L31.05 30.2 31.5 30.7 31.25 31.35 27.4 31.15 27.3 30.4 M27.9 48.35 Q26.8 45.1 27.95 41.5 27.95 40.5 28.3 38.1 28.7 35.65 29.75 35.6 30.7 36.45 30.8 37.75 31.65 41.3 31.6 44.95 32.0 47.2 30.55 48.65 29.05 49.75 27.9 48.35 M29.1 55.9 L30.65 55.85 Q31.35 56.6 30.25 57.4 28.65 57.55 29.1 55.9" fill="#899db1" fill-rule="evenodd" stroke="none"/>
      <path d="M40.75 10.9 L42.65 13.2 42.15 13.3 Q40.7 13.2 40.5 11.65 L40.75 10.9 M42.85 10.1 L43.85 12.05 41.65 10.1 42.85 10.1 M14.45 11.5 L16.6 13.7 15.85 13.9 Q14.3 13.7 14.2 12.25 L14.45 11.5 M17.25 11.6 L17.3 13.05 15.15 10.8 16.6 10.8 17.25 11.6 M29.75 50.6 L30.55 50.85 28.35 53.05 28.1 52.25 Q28.25 50.75 29.75 50.6 M29.0 53.7 L31.2 51.5 Q31.9 53.5 29.75 53.95 L29.0 53.7" fill="#a1b1c1" fill-rule="evenodd" stroke="none"/>
      <path d="M33.35 54.6 L33.75 52.75 Q40.85 51.3 46.05 46.1 53.05 39.1 53.3 28.6 53.05 18.45 46.45 11.55 L46.45 9.2 Q54.75 17.0 54.95 28.6 55.05 36.65 50.45 43.3 44.1 52.5 33.35 54.6 M45.35 22.9 Q47.1 21.7 46.9 19.6 L46.55 17.25 Q49.55 22.9 49.55 29.45 49.05 40.8 38.0 44.45 L34.9 45.55 34.8 45.15 34.35 43.45 Q38.75 41.7 42.1 38.05 45.75 33.5 45.85 27.7 45.85 25.2 45.35 22.9 M38.25 4.0 Q29.1 3.05 20.0 4.15 L19.75 3.6 Q23.8 2.25 28.5 2.1 33.8 2.25 38.25 4.0 M24.25 45.1 Q24.15 46.55 24.3 47.8 17.65 47.8 13.35 43.15 8.2 37.55 7.7 29.6 7.2 22.7 11.3 17.35 L11.35 17.65 Q11.15 19.95 11.85 21.75 7.8 29.5 12.4 37.1 16.5 43.85 24.25 45.1 M11.8 8.1 L11.8 10.5 Q5.05 16.85 4.15 26.1 3.0 37.75 11.1 46.1 17.2 52.25 25.85 53.15 L26.35 54.95 Q13.85 53.8 6.7 43.25 1.25 35.3 2.3 25.9 3.55 15.15 11.8 8.1" fill="#afc1d9" fill-rule="evenodd" stroke="none"/>
      <path d="M34.15 50.65 Q34.1 41.75 32.3 32.9 L33.95 31.8 34.35 43.45 34.8 45.15 34.9 45.55 38.0 44.45 Q49.05 40.8 49.55 29.45 49.55 22.9 46.55 17.25 L46.9 19.6 Q47.1 21.7 45.35 22.9 L35.9 22.55 34.9 25.15 Q35.1 23.95 33.95 23.4 L33.3 23.05 33.3 21.2 38.3 20.55 Q39.2 22.8 41.45 22.0 L42.2 21.75 Q45.25 23.6 46.0 20.7 46.75 17.8 46.45 14.6 51.15 20.45 51.3 28.65 51.05 38.3 44.65 44.7 40.2 49.15 34.15 50.65 M33.85 30.25 L32.4 29.2 32.4 27.25 34.35 26.45 33.6 28.35 33.85 30.25 M24.25 45.1 L24.95 39.9 Q25.7 35.8 24.45 31.95 L25.5 28.35 23.3 25.55 24.45 22.3 Q22.8 22.45 21.25 23.1 17.0 25.0 12.6 23.2 L11.85 21.75 Q11.15 19.95 11.35 17.65 L11.3 17.35 Q7.2 22.7 7.7 29.6 8.2 37.55 13.35 43.15 17.65 47.8 24.3 47.8 24.15 46.55 24.25 45.1 M11.8 13.3 L12.05 20.75 Q12.1 22.0 13.3 22.4 15.1 23.2 16.1 21.7 L16.85 21.95 Q19.2 22.95 19.95 20.65 L26.0 21.35 26.0 23.05 25.5 23.4 Q24.55 24.05 24.5 24.95 L24.75 25.95 Q25.3 27.3 26.9 27.25 L26.9 29.2 26.4 29.55 Q24.7 30.8 26.2 32.25 26.65 32.65 27.35 32.9 25.25 40.65 25.1 48.35 L25.35 51.1 Q17.85 50.0 12.5 44.7 6.1 38.3 5.85 28.65 6.1 19.55 11.8 13.3" fill="#9ab4cc" fill-rule="evenodd" stroke="none"/>
      <path d="M33.95 31.8 L33.85 30.25 33.6 28.35 34.35 26.45 34.9 25.15 35.9 22.55 45.35 22.9 Q45.85 25.2 45.85 27.7 45.75 33.5 42.1 38.05 38.75 41.7 34.35 43.45 L33.95 31.8 M11.85 21.75 L12.6 23.2 Q17.0 25.0 21.25 23.1 22.8 22.45 24.45 22.3 L23.3 25.55 25.5 28.35 24.45 31.95 Q25.7 35.8 24.95 39.9 L24.25 45.1 Q16.5 43.85 12.4 37.1 7.8 29.5 11.85 21.75" fill="#c5d3e3" fill-rule="evenodd" stroke="none"/>
      <path d="M34.2 11.4 Q31.6 14.85 27.0 13.65 24.5 12.95 24.4 10.6 25.3 9.3 26.9 9.5 L33.9 10.25 34.2 11.4" fill="#a1b3bf" fill-rule="evenodd" stroke="none"/>
    </g>
  </defs>
</svg>
