<?xml version="1.0" encoding="UTF-8" standalone="no"?>
<svg xmlns:xlink="http://www.w3.org/1999/xlink" height="433.1px" width="327.95px" xmlns="http://www.w3.org/2000/svg">
  <g transform="matrix(1.0, 0.0, 0.0, 1.0, 164.0, 433.1)">
    <use height="36.0" transform="matrix(1.0, 0.0, 0.0, 1.0, -79.5, -36.0)" width="159.0" xlink:href="#shape0"/>
    <use height="96.65" transform="matrix(1.0, 0.0, 0.0, 1.0, -27.1, -108.0)" width="54.2" xlink:href="#shape1"/>
    <use height="37.0" transform="matrix(1.0, 0.0, 0.0, 1.0, -92.6, -94.35)" width="185.25" xlink:href="#shape2"/>
    <use height="15.35" transform="matrix(1.0, 0.0, 0.0, 1.0, -72.35, -80.55)" width="143.95" xlink:href="#text0"/>
    <use height="288.7" transform="matrix(1.0, 0.0, 0.0, 1.0, -96.75, -386.35)" width="193.5" xlink:href="#shape3"/>
    <use height="266.95" transform="matrix(1.0, 0.0, 0.0, 1.0, -82.7, -365.85)" width="161.45" xlink:href="#shape4"/>
    <use height="59.15" transform="matrix(1.0, 0.0, 0.0, 1.0, -29.1, -201.35)" width="57.15" xlink:href="#shape5"/>
  </g>
  <defs>
    <g id="shape0" transform="matrix(1.0, 0.0, 0.0, 1.0, 0.0, 0.0)">
      <path d="M135.7 30.75 Q113.3 35.8 79.5 36.0 45.7 35.8 23.3 30.75 0.85 25.65 0.0 18.0 0.85 10.35 23.3 5.25 45.7 0.2 79.5 0.0 113.3 0.2 135.7 5.25 158.15 10.35 159.0 18.0 158.15 25.65 135.7 30.75" fill="#000000" fill-opacity="0.39607844" fill-rule="evenodd" stroke="none"/>
    </g>
    <g id="shape1" transform="matrix(1.0, 0.0, 0.0, 1.0, 0.0, 0.0)">
      <path d="M5.85 93.35 Q-0.15 90.4 0.0 90.0 L0.0 0.0 54.2 0.0 54.2 90.0 Q54.15 90.4 46.95 93.35 39.7 96.25 25.65 96.65 11.8 96.25 5.85 93.35" fill="url(#gradient0)" fill-rule="evenodd" stroke="none"/>
    </g>
    <linearGradient gradientTransform="matrix(0.0303, 0.0, 0.0, 0.0303, 25.7, 48.35)" gradientUnits="userSpaceOnUse" id="gradient0" spreadMethod="pad" x1="-819.2" x2="819.2">
      <stop offset="0.0" stop-color="#565656"/>
      <stop offset="0.403921568627451" stop-color="#9a9999"/>
      <stop offset="0.592156862745098" stop-color="#dbdbda"/>
      <stop offset="0.7803921568627451" stop-color="#9b9a9a"/>
      <stop offset="1.0" stop-color="#151213"/>
    </linearGradient>
    <g id="shape2" transform="matrix(1.0, 0.0, 0.0, 1.0, -0.05, 0.0)">
      <path d="M185.25 8.2 L185.3 8.25 185.25 8.25 185.25 8.2 M1.9 5.2 L2.3 2.85 18.75 2.05 59.05 0.7 Q83.4 0.05 109.4 0.3 115.1 0.55 118.85 1.6 122.65 2.7 128.15 3.0 L129.3 1.5 Q130.05 0.2 130.5 0.0 160.7 0.5 181.5 3.85 L183.45 6.1 103.3 3.5 Q60.0 3.6 6.5 5.1 L1.9 5.2 M176.25 8.0 L176.45 8.4 177.65 11.45 178.5 13.65 Q179.3 12.8 179.7 10.9 179.7 9.8 179.25 9.1 L179.9 9.55 Q180.65 10.3 180.7 11.75 179.85 15.7 177.15 15.05 175.8 14.75 175.1 13.85 L176.15 14.2 177.35 14.25 176.45 12.35 174.9 8.8 174.8 8.5 174.95 8.35 Q175.75 7.8 176.25 8.0 M178.25 27.3 L179.85 27.15 Q180.5 27.3 181.25 27.95 183.6 31.2 181.35 32.8 180.2 33.6 179.1 33.5 L180.8 32.15 178.8 31.55 175.1 30.4 175.2 29.1 175.2 29.0 175.25 28.7 175.4 28.75 175.85 28.9 178.95 30.05 181.1 30.85 Q181.0 29.65 179.9 28.15 179.05 27.45 178.25 27.3 M9.35 6.95 L10.7 10.45 11.7 12.9 Q12.6 11.95 13.05 9.85 13.05 8.55 12.5 7.75 13.85 8.35 14.15 10.05 L13.75 12.35 Q12.6 15.1 10.15 14.55 8.75 14.25 8.0 13.4 L7.85 13.2 9.0 13.6 10.35 13.65 9.35 11.4 7.6 7.45 8.75 6.6 9.2 6.55 9.35 6.95 M9.4 25.3 Q11.0 24.35 12.9 25.8 15.0 28.35 14.35 30.1 L13.4 31.3 Q12.2 32.25 10.95 32.25 L12.75 30.6 10.4 30.05 6.2 29.05 6.15 27.55 6.15 27.1 6.35 27.15 6.9 27.35 10.45 28.4 12.95 29.1 Q12.75 27.8 11.35 26.15 10.35 25.35 9.4 25.3" fill="#47525f" fill-rule="evenodd" stroke="none"/>
      <path d="M0.05 36.7 L0.75 22.9 Q1.05 14.95 1.6 7.0 L1.9 5.2 6.5 5.1 3.2 8.3 1.95 36.45 0.05 36.7" fill="#cdcdcd" fill-rule="evenodd" stroke="none"/>
      <path d="M13.75 12.35 L14.15 10.05 26.45 10.0 13.75 12.35 M8.0 13.4 L7.0 13.55 7.2 26.2 6.35 27.15 6.15 27.1 6.15 27.55 Q5.15 29.5 6.75 31.55 8.95 33.2 10.95 32.25 12.2 32.25 13.4 31.3 L14.35 30.1 16.45 30.2 36.65 31.3 56.5 32.6 Q50.4 32.9 38.0 32.9 L15.1 32.75 3.85 32.6 5.25 10.05 6.0 10.05 Q6.15 12.3 7.85 13.2 L8.0 13.4" fill="#848484" fill-rule="evenodd" stroke="none"/>
      <path d="M175.1 13.85 Q175.8 14.75 177.15 15.05 179.85 15.7 180.7 11.75 180.65 10.3 179.9 9.55 L180.85 9.65 179.85 27.15 178.25 27.3 177.7 27.3 177.8 15.2 160.95 13.3 Q144.35 11.4 115.0 6.95 144.55 7.2 162.45 8.35 L174.1 9.15 Q173.65 9.7 173.4 10.6 173.45 12.95 175.1 13.85 M175.3 32.3 L137.05 30.55 175.2 29.0 175.2 29.1 Q174.3 30.55 175.3 32.3" fill="#a09fa0" fill-rule="evenodd" stroke="none"/>
      <path d="M176.45 8.4 L176.25 8.0 176.9 7.95 Q178.55 8.05 179.25 9.1 179.7 9.8 179.7 10.9 179.3 12.8 178.5 13.65 L177.65 11.45 178.05 10.25 Q178.0 8.55 176.45 8.4 M174.8 8.5 L174.9 8.8 Q174.35 9.2 174.15 10.05 174.2 11.9 175.85 12.3 L176.45 12.35 177.35 14.25 176.15 14.2 175.1 13.85 Q173.45 12.95 173.4 10.6 173.65 9.7 174.1 9.15 L174.8 8.5 M177.7 27.3 L178.25 27.3 Q179.05 27.45 179.9 28.15 181.0 29.65 181.1 30.85 L178.95 30.05 178.3 28.9 Q177.0 27.8 175.85 28.9 L175.4 28.75 175.8 28.3 Q176.7 27.35 177.7 27.3 M179.1 33.5 Q177.3 34.2 175.5 32.65 L175.3 32.3 Q174.3 30.55 175.2 29.1 L175.1 30.4 Q175.25 32.1 176.95 32.35 178.0 32.25 178.8 31.55 L180.8 32.15 179.1 33.5 M10.7 10.45 L11.2 9.05 Q11.15 7.15 9.35 6.95 L9.2 6.55 9.9 6.5 Q11.75 6.6 12.5 7.75 13.05 8.55 13.05 9.85 12.6 11.95 11.7 12.9 L10.7 10.45 M7.2 26.2 Q8.2 25.2 9.4 25.3 10.35 25.35 11.35 26.15 12.75 27.8 12.95 29.1 L10.45 28.4 Q9.75 26.65 8.05 26.6 L6.9 27.35 6.35 27.15 7.2 26.2 M6.0 10.05 L5.95 9.55 Q6.6 7.0 8.75 6.6 L7.6 7.45 Q7.0 7.9 6.75 8.85 6.8 10.95 8.7 11.35 L9.35 11.4 10.35 13.65 9.0 13.6 7.85 13.2 Q6.15 12.3 6.0 10.05 M6.15 27.55 L6.2 29.05 Q6.45 30.9 8.2 31.1 9.7 31.2 10.4 30.05 L12.75 30.6 10.95 32.25 Q8.95 33.2 6.75 31.55 5.15 29.5 6.15 27.55" fill="#9c9c9c" fill-rule="evenodd" stroke="none"/>
      <path d="M174.9 8.8 L176.45 12.35 175.85 12.3 Q174.2 11.9 174.15 10.05 174.35 9.2 174.9 8.8 M177.65 11.45 L176.45 8.4 Q178.0 8.55 178.05 10.25 L177.65 11.45 M175.85 28.9 Q177.0 27.8 178.3 28.9 L178.95 30.05 175.85 28.9 M175.1 30.4 L178.8 31.55 Q178.0 32.25 176.95 32.35 175.25 32.1 175.1 30.4 M9.35 6.95 Q11.15 7.15 11.2 9.05 L10.7 10.45 9.35 6.95 M9.35 11.4 L8.7 11.35 Q6.8 10.95 6.75 8.85 7.0 7.9 7.6 7.45 L9.35 11.4 M10.45 28.4 L6.9 27.35 8.05 26.6 Q9.75 26.65 10.45 28.4 M6.2 29.05 L10.4 30.05 Q9.7 31.2 8.2 31.1 6.45 30.9 6.2 29.05" fill="#d5d4d4" fill-rule="evenodd" stroke="none"/>
      <path d="M183.45 6.1 L185.3 6.25 185.25 8.2 185.25 8.25 185.1 13.45 184.65 27.3 184.3 36.25 Q157.35 34.75 133.85 35.55 L89.2 37.0 Q65.15 37.15 43.55 35.85 22.0 34.5 0.05 36.75 L0.05 36.7 1.95 36.45 3.2 8.3 6.5 5.1 Q60.0 3.6 103.3 3.5 L183.45 6.1 M176.25 8.0 Q175.75 7.8 174.95 8.35 L174.8 8.5 174.1 9.15 162.45 8.35 Q144.55 7.2 115.0 6.95 144.35 11.4 160.95 13.3 L177.8 15.2 177.7 27.3 Q176.7 27.35 175.8 28.3 L175.4 28.75 175.25 28.7 175.2 29.0 137.05 30.55 175.3 32.3 175.5 32.65 Q177.3 34.2 179.1 33.5 180.2 33.6 181.35 32.8 183.6 31.2 181.25 27.95 180.5 27.3 179.85 27.15 L180.85 9.65 179.9 9.55 179.25 9.1 Q178.55 8.05 176.9 7.95 L176.25 8.0 M12.5 7.75 Q11.75 6.6 9.9 6.5 L9.2 6.55 8.75 6.6 Q6.6 7.0 5.95 9.55 L6.0 10.05 5.25 10.05 3.85 32.6 15.1 32.75 38.0 32.9 Q50.4 32.9 56.5 32.6 L36.65 31.3 16.45 30.2 14.35 30.1 Q15.0 28.35 12.9 25.8 11.0 24.35 9.4 25.3 8.2 25.2 7.2 26.2 L7.0 13.55 8.0 13.4 Q8.75 14.25 10.15 14.55 12.6 15.1 13.75 12.35 L26.45 10.0 14.15 10.05 Q13.85 8.35 12.5 7.75" fill="url(#gradient1)" fill-rule="evenodd" stroke="none"/>
    </g>
    <linearGradient gradientTransform="matrix(0.1131, 0.0, 0.0, 0.0204, 92.65, 20.25)" gradientUnits="userSpaceOnUse" id="gradient1" spreadMethod="pad" x1="-819.2" x2="819.2">
      <stop offset="0.0" stop-color="#9a9a9a"/>
      <stop offset="1.0" stop-color="#ffffff"/>
    </linearGradient>
    <g id="text0" transform="matrix(1.0, 0.0, 0.0, 1.0, 11.4, -5.75)">
      <g transform="matrix(1.0, 0.0, 0.0, 1.0, -12.65, 0.0)">
        <use fill="#000000" height="15.35" transform="matrix(0.4746, 0.0, 0.0, 0.4746, 0.0, 21.0)" width="143.95" xlink:href="#font_______W7_B0"/>
        <use fill="#000000" height="15.35" transform="matrix(0.4746, 0.0, 0.0, 0.4746, 16.85, 21.0)" width="143.95" xlink:href="#font_______W7_a0"/>
        <use fill="#000000" height="15.35" transform="matrix(0.4746, 0.0, 0.0, 0.4746, 30.65, 21.0)" width="143.95" xlink:href="#font_______W7_c0"/>
        <use fill="#000000" height="15.35" transform="matrix(0.4746, 0.0, 0.0, 0.4746, 43.5, 21.0)" width="143.95" xlink:href="#font_______W7_k0"/>
        <use fill="#000000" height="15.35" transform="matrix(0.4746, 0.0, 0.0, 0.4746, 57.3, 21.0)" width="143.95" xlink:href="#font_______W7_s0"/>
        <use fill="#000000" height="15.35" transform="matrix(0.4746, 0.0, 0.0, 0.4746, 69.75, 21.0)" width="143.95" xlink:href="#font_______W7_t0"/>
        <use fill="#000000" height="15.35" transform="matrix(0.4746, 0.0, 0.0, 0.4746, 81.1, 21.0)" width="143.95" xlink:href="#font_______W7_a0"/>
        <use fill="#000000" height="15.35" transform="matrix(0.4746, 0.0, 0.0, 0.4746, 94.9, 21.0)" width="143.95" xlink:href="#font_______W7_b0"/>
        <use fill="#000000" height="15.35" transform="matrix(0.4746, 0.0, 0.0, 0.4746, 109.0, 21.0)" width="143.95" xlink:href="#font_______W7_b0"/>
        <use fill="#000000" height="15.35" transform="matrix(0.4746, 0.0, 0.0, 0.4746, 123.05, 21.0)" width="143.95" xlink:href="#font_______W7_e0"/>
        <use fill="#000000" height="15.35" transform="matrix(0.4746, 0.0, 0.0, 0.4746, 136.45, 21.0)" width="143.95" xlink:href="#font_______W7_r0"/>
      </g>
    </g>
    <g id="font_______W7_B0">
      <path d="M25.75 -11.3 L25.75 -11.3 Q25.75 -8.4 21.9 -8.4 18.5 -8.4 14.4 -12.15 L12.5 -7.75 11.95 -13.45 Q15.45 -15.85 18.95 -15.85 21.25 -15.85 23.3 -14.7 25.75 -13.4 25.75 -11.3 M23.15 -23.7 L23.15 -23.7 Q23.15 -22.05 21.2 -20.35 L19.0 -20.45 Q15.05 -20.45 11.45 -18.65 L10.85 -24.45 Q15.3 -26.5 18.75 -26.5 L21.55 -25.95 Q23.15 -25.2 23.15 -23.7 M33.9 -10.25 L33.9 -10.25 Q33.9 -14.55 29.85 -17.3 32.05 -20.45 32.05 -23.5 32.05 -27.75 28.35 -29.85 25.45 -31.6 20.9 -31.6 14.3 -31.6 10.4 -29.6 L10.2 -31.55 5.3 -32.15 2.55 0.05 13.15 -1.1 13.05 -2.3 Q17.4 -0.6 21.5 -0.6 26.1 -0.6 29.75 -3.05 33.9 -5.85 33.9 -10.25" fill-rule="evenodd" stroke="none"/>
    </g>
    <g id="font_______W7_a0">
      <path d="M19.05 -8.85 L19.05 -8.85 18.5 -5.05 17.1 -9.0 Q14.35 -6.2 10.6 -6.2 9.95 -6.2 9.45 -6.75 9.0 -7.2 9.0 -7.85 9.0 -10.2 13.7 -10.2 15.9 -10.2 19.05 -8.85 M27.4 -6.8 L27.4 -6.8 Q27.4 -21.45 13.35 -21.45 7.15 -21.45 2.55 -18.35 L4.3 -14.35 Q8.3 -16.55 13.15 -16.55 17.85 -16.55 18.85 -13.35 15.4 -14.5 12.8 -14.5 8.6 -14.5 5.6 -12.8 1.8 -10.75 1.8 -6.95 1.8 -3.5 4.9 -1.55 7.55 0.05 11.15 0.05 13.95 0.05 17.35 -0.95 L17.0 0.15 26.7 -0.3 Q27.4 -3.45 27.4 -6.8" fill-rule="evenodd" stroke="none"/>
    </g>
    <g id="font_______W7_c0">
      <path d="M21.35 -12.5 L21.35 -12.5 Q19.95 -10.5 17.75 -9.15 15.35 -7.6 13.15 -7.6 11.4 -7.6 10.2 -8.85 8.9 -10.05 8.9 -11.8 8.9 -14.1 10.65 -15.4 12.2 -16.55 14.55 -16.55 18.9 -16.55 21.9 -13.7 L24.4 -17.55 Q19.65 -21.45 13.1 -21.45 8.05 -21.45 4.9 -18.4 1.8 -15.3 1.8 -10.3 1.8 -5.6 5.7 -2.65 9.25 0.05 14.1 0.05 17.2 0.05 20.45 -1.1 24.05 -2.3 25.9 -4.4 L21.35 -12.5" fill-rule="evenodd" stroke="none"/>
    </g>
    <g id="font_______W7_k0">
      <path d="M20.35 -12.2 L20.35 -12.2 26.9 -17.9 24.8 -21.8 10.85 -14.65 9.3 -31.45 4.6 -32.15 2.05 0.05 12.1 -1.4 11.35 -9.1 13.25 -6.05 15.8 -8.25 22.05 0.25 28.6 -6.95 20.35 -12.2" fill-rule="evenodd" stroke="none"/>
    </g>
    <g id="font_______W7_s0">
      <path d="M25.05 -6.35 L25.05 -6.35 Q25.05 -12.25 15.35 -13.65 8.7 -14.6 8.7 -15.7 8.7 -17.05 12.35 -17.05 17.1 -17.05 22.25 -14.8 L23.8 -18.2 Q19.05 -21.45 12.25 -21.45 8.55 -21.45 6.05 -20.35 2.6 -18.85 2.6 -15.7 2.6 -13.1 4.75 -11.8 6.5 -10.75 10.95 -10.05 L16.3 -8.95 Q17.8 -8.4 17.8 -7.5 17.8 -6.2 15.25 -6.2 12.3 -6.2 9.1 -7.45 5.9 -8.7 3.8 -10.65 L1.0 -2.6 Q6.45 0.05 14.3 0.05 25.05 0.05 25.05 -6.35" fill-rule="evenodd" stroke="none"/>
    </g>
    <g id="font_______W7_t0">
      <path d="M18.7 -12.2 L18.7 -12.2 Q17.0 -9.35 14.9 -9.35 11.95 -9.35 11.95 -15.4 L21.65 -15.4 20.1 -22.55 12.4 -21.45 Q12.75 -24.2 13.6 -27.95 L8.95 -28.85 Q7.75 -24.65 7.1 -20.75 L0.75 -19.9 1.75 -15.4 6.55 -15.4 6.5 -12.55 Q6.5 -6.8 7.75 -4.05 9.5 0.05 14.55 0.05 19.1 0.05 23.25 -4.15 L18.7 -12.2" fill-rule="evenodd" stroke="none"/>
    </g>
    <g id="font_______W7_b0">
      <path d="M20.9 -12.9 L20.9 -12.9 Q20.9 -9.4 17.6 -9.4 15.3 -9.4 13.25 -11.85 L11.45 -8.4 10.95 -14.2 Q13.25 -16.5 16.3 -16.5 17.85 -16.5 19.35 -15.5 20.9 -14.45 20.9 -12.9 M28.25 -10.45 L28.25 -10.45 Q28.25 -15.0 25.1 -18.25 21.9 -21.45 17.35 -21.45 13.75 -21.45 10.5 -19.25 L9.35 -31.5 4.65 -32.15 2.05 0.05 12.15 -0.75 12.15 -2.05 Q14.7 0.05 18.2 0.05 22.6 0.05 25.4 -3.0 28.25 -6.0 28.25 -10.45" fill-rule="evenodd" stroke="none"/>
    </g>
    <g id="font_______W7_e0">
      <path d="M19.45 -9.9 L19.45 -9.9 Q16.75 -7.55 13.6 -7.55 10.45 -7.55 9.15 -9.9 L19.45 -9.9 M9.0 -13.4 L9.0 -13.4 Q9.7 -14.95 11.5 -15.95 13.2 -16.8 15.1 -16.8 18.05 -16.8 19.65 -14.35 L9.0 -13.4 M23.25 -9.9 L23.25 -9.9 24.3 -9.9 26.7 -12.6 Q25.85 -16.7 22.9 -19.1 19.9 -21.45 15.15 -21.45 9.65 -21.45 5.9 -18.65 1.8 -15.6 1.8 -10.4 1.8 -5.35 5.8 -2.5 9.3 0.05 14.6 0.05 22.45 0.05 27.15 -4.25 L23.25 -9.9" fill-rule="evenodd" stroke="none"/>
    </g>
    <g id="font_______W7_r0">
      <path d="M18.3 -20.6 L18.3 -20.6 Q16.55 -21.45 14.75 -21.45 11.5 -21.45 8.7 -18.65 L8.45 -20.75 4.45 -21.45 2.55 0.05 10.65 -1.4 9.3 -12.8 Q10.55 -14.85 12.3 -14.85 13.25 -14.85 14.55 -13.85 L16.55 -12.05 18.3 -20.6" fill-rule="evenodd" stroke="none"/>
    </g>
    <g id="shape3" transform="matrix(1.0, 0.0, 0.0, 1.0, 0.0, 0.0)">
      <path d="M174.3 165.35 L183.05 170.25 193.5 224.15 181.55 275.75 169.95 288.7 18.35 288.7 8.05 268.9 0.0 216.5 21.5 156.5 29.75 151.75 Q37.45 147.3 45.85 142.4 L56.85 135.65 56.55 120.1 55.8 87.9 54.9 50.6 54.15 19.7 53.85 6.85 53.85 0.0 76.65 5.45 120.1 56.55 124.0 70.45 132.55 101.35 141.4 133.1 145.9 149.6 157.25 155.9 174.3 165.35" fill="#47525f" fill-rule="evenodd" stroke="none"/>
      <path d="M177.8 171.9 L179.55 185.1 10.2 259.4 5.75 217.05 21.35 165.95 59.5 138.55 59.5 96.7 120.6 81.55 138.0 150.4 177.8 171.9" fill="#bab9ba" fill-rule="evenodd" stroke="none"/>
      <path d="M179.55 185.05 L184.8 224.0 176.2 273.45 167.05 286.0 21.9 286.0 10.6 263.25 10.2 259.35 179.55 185.05" fill="#9c9c9c" fill-rule="evenodd" stroke="none"/>
      <path d="M59.5 6.8 L79.4 10.55 114.85 58.95 120.6 81.5 59.5 96.65 59.5 6.8" fill="#9c9c9c" fill-rule="evenodd" stroke="none"/>
      <path d="M65.05 25.3 L73.05 16.9 74.55 18.15 66.95 26.75 65.05 25.3" fill="#57565b" fill-rule="evenodd" stroke="none"/>
      <path d="M76.05 21.8 L76.05 22.1 Q75.35 27.15 70.05 27.6 68.35 27.55 66.95 26.7 L66.95 24.75 71.35 21.6 74.9 17.9 75.75 19.5 76.05 19.6 76.05 21.7 76.05 21.8" fill="#47525f" fill-rule="evenodd" stroke="none"/>
      <path d="M65.05 25.3 L65.05 23.15 73.05 14.85 73.05 16.9 65.05 25.3" fill="#47525f" fill-rule="evenodd" stroke="none"/>
      <path d="M63.9 19.85 L65.1 22.4 65.1 25.3 Q63.7 23.0 63.9 22.25 L63.9 19.85" fill="#79818b" fill-rule="evenodd" stroke="none"/>
      <path d="M68.35 16.85 Q71.2 14.95 72.7 14.6 L73.05 14.85 65.1 23.15 64.75 22.65 Q64.6 20.1 68.35 16.85" fill="#d0cfd0" fill-rule="evenodd" stroke="none"/>
      <path d="M63.85 19.7 Q64.55 14.6 69.85 13.9 71.4 13.9 72.65 14.6 71.2 14.95 68.3 16.85 64.6 20.1 64.7 22.65 63.9 21.3 63.85 19.7" fill="#e9e9eb" fill-rule="evenodd" stroke="none"/>
      <path d="M73.55 22.7 Q72.0 24.35 69.6 24.6 L66.95 24.8 74.9 16.45 Q75.55 18.85 73.55 22.7" fill="#bab9ba" fill-rule="evenodd" stroke="none"/>
      <path d="M76.05 19.85 Q75.55 25.15 70.05 25.65 68.35 25.6 66.95 24.8 L69.55 24.6 Q71.9 24.35 73.45 22.7 75.45 18.85 74.9 16.45 76.05 17.9 76.05 19.85" fill="#b0aeb3" fill-rule="evenodd" stroke="none"/>
      <path d="M59.45 153.55 L67.45 145.15 68.95 146.4 61.35 155.0 59.45 153.55" fill="#57565b" fill-rule="evenodd" stroke="none"/>
      <path d="M70.4 150.1 L70.4 150.4 Q69.7 155.45 64.4 155.9 62.7 155.85 61.3 155.0 L61.3 153.05 65.7 149.9 69.25 146.2 70.1 147.8 70.4 147.9 70.4 150.0 70.4 150.1" fill="#47525f" fill-rule="evenodd" stroke="none"/>
      <path d="M59.45 153.55 L59.45 151.4 67.45 143.1 67.45 145.15 59.45 153.55" fill="#47525f" fill-rule="evenodd" stroke="none"/>
      <path d="M58.25 148.15 L59.45 150.7 59.45 153.6 Q58.05 151.3 58.25 150.55 L58.25 148.15" fill="#79818b" fill-rule="evenodd" stroke="none"/>
      <path d="M62.7 145.1 Q65.55 143.2 67.05 142.85 L67.4 143.1 59.45 151.4 59.1 150.9 Q58.95 148.35 62.7 145.1" fill="#d0cfd0" fill-rule="evenodd" stroke="none"/>
      <path d="M58.25 147.95 Q58.95 142.85 64.25 142.15 65.8 142.15 67.05 142.85 65.6 143.2 62.7 145.1 59.0 148.35 59.1 150.9 58.3 149.55 58.25 147.95" fill="#e9e9eb" fill-rule="evenodd" stroke="none"/>
      <path d="M67.9 150.95 Q66.35 152.6 63.95 152.85 L61.3 153.05 69.25 144.7 Q69.9 147.1 67.9 150.95" fill="#bab9ba" fill-rule="evenodd" stroke="none"/>
      <path d="M70.4 148.1 Q69.9 153.4 64.4 153.9 62.7 153.85 61.3 153.05 L63.9 152.85 Q66.25 152.6 67.8 150.95 69.8 147.1 69.25 144.7 70.4 146.15 70.4 148.1" fill="#b0aeb3" fill-rule="evenodd" stroke="none"/>
      <path d="M156.55 279.3 L164.55 270.9 166.05 272.15 158.45 280.75 156.55 279.3" fill="#57565b" fill-rule="evenodd" stroke="none"/>
      <path d="M167.55 275.8 L167.55 276.1 Q166.85 281.15 161.55 281.6 159.85 281.55 158.45 280.7 L158.45 278.75 162.85 275.6 166.4 271.9 167.25 273.5 167.55 273.6 167.55 275.7 167.55 275.8" fill="#47525f" fill-rule="evenodd" stroke="none"/>
      <path d="M156.55 279.3 L156.55 277.15 164.55 268.85 164.55 270.9 156.55 279.3" fill="#47525f" fill-rule="evenodd" stroke="none"/>
      <path d="M155.35 273.85 L156.55 276.4 156.55 279.3 Q155.15 277.0 155.35 276.25 L155.35 273.85" fill="#79818b" fill-rule="evenodd" stroke="none"/>
      <path d="M159.85 270.85 Q162.7 268.95 164.2 268.6 L164.55 268.85 156.6 277.15 156.25 276.65 Q156.1 274.1 159.85 270.85" fill="#d0cfd0" fill-rule="evenodd" stroke="none"/>
      <path d="M155.35 273.7 Q156.05 268.6 161.35 267.9 162.9 267.9 164.15 268.6 162.7 268.95 159.8 270.85 156.1 274.1 156.2 276.65 155.4 275.3 155.35 273.7" fill="#e9e9eb" fill-rule="evenodd" stroke="none"/>
      <path d="M165.05 276.7 Q163.5 278.35 161.1 278.6 L158.45 278.8 166.4 270.45 Q167.05 272.85 165.05 276.7" fill="#bab9ba" fill-rule="evenodd" stroke="none"/>
      <path d="M167.55 273.85 Q167.05 279.15 161.55 279.65 159.85 279.6 158.45 278.8 L161.05 278.6 Q163.4 278.35 164.95 276.7 166.95 272.85 166.4 270.45 167.55 271.9 167.55 273.85" fill="#b0aeb3" fill-rule="evenodd" stroke="none"/>
      <path d="M23.7 266.45 Q23.4 269.95 19.8 270.3 16.2 269.95 15.85 266.45 16.2 263.0 19.8 262.65 23.4 263.0 23.7 266.45" fill="#47525f" fill-rule="evenodd" stroke="none"/>
      <path d="M15.75 264.8 L23.6 264.25 23.75 266.45 15.9 266.85 15.75 264.8" fill="#47525f" fill-rule="evenodd" stroke="none"/>
      <path d="M21.5 261.3 Q19.6 261.5 17.9 262.9 16.5 264.8 16.35 266.8 15.7 265.85 15.7 264.65 16.05 261.2 19.65 260.85 L21.5 261.3" fill="#e9e9eb" fill-rule="evenodd" stroke="none"/>
      <path d="M20.95 266.75 Q18.95 267.8 17.0 267.45 L16.4 266.75 Q16.5 264.8 17.95 262.9 19.65 261.45 21.55 261.3 22.25 261.7 22.8 262.35 22.95 265.1 20.95 266.75" fill="#d0cfd0" fill-rule="evenodd" stroke="none"/>
      <path d="M23.6 264.65 Q23.25 268.15 19.65 268.45 18.1 268.45 17.0 267.45 18.95 267.75 20.95 266.6 22.95 265.05 22.8 262.35 23.6 263.35 23.6 264.65" fill="#b0aeb3" fill-rule="evenodd" stroke="none"/>
      <path d="M59.45 249.55 Q59.15 253.05 55.55 253.4 51.95 253.05 51.6 249.55 51.95 246.1 55.55 245.75 59.15 246.1 59.45 249.55" fill="#47525f" fill-rule="evenodd" stroke="none"/>
      <path d="M51.5 247.95 L59.35 247.4 59.5 249.6 51.65 250.0 51.5 247.95" fill="#47525f" fill-rule="evenodd" stroke="none"/>
      <path d="M57.3 244.4 Q55.4 244.6 53.7 246.0 52.3 247.9 52.15 249.9 51.5 248.95 51.5 247.75 51.85 244.3 55.45 243.95 56.45 243.95 57.3 244.4" fill="#e9e9eb" fill-rule="evenodd" stroke="none"/>
      <path d="M56.7 249.9 Q54.7 250.95 52.75 250.6 L52.15 249.9 Q52.25 247.95 53.7 246.05 55.4 244.6 57.3 244.45 L58.55 245.5 Q58.7 248.25 56.7 249.9" fill="#d0cfd0" fill-rule="evenodd" stroke="none"/>
      <path d="M59.35 247.75 Q59.0 251.25 55.4 251.55 53.85 251.55 52.75 250.55 54.7 250.85 56.7 249.7 58.7 248.15 58.55 245.45 59.35 246.45 59.35 247.75" fill="#b0aeb3" fill-rule="evenodd" stroke="none"/>
      <path d="M177.5 199.5 Q177.2 203.0 173.6 203.35 170.0 203.0 169.65 199.5 170.0 196.05 173.6 195.7 177.2 196.05 177.5 199.5" fill="#47525f" fill-rule="evenodd" stroke="none"/>
      <path d="M169.55 197.85 L177.4 197.3 177.55 199.5 169.7 199.9 169.55 197.85" fill="#47525f" fill-rule="evenodd" stroke="none"/>
      <path d="M175.35 194.35 Q173.45 194.55 171.75 195.95 170.35 197.85 170.2 199.85 169.55 198.9 169.55 197.7 169.9 194.25 173.5 193.9 174.5 193.9 175.35 194.35" fill="#e9e9eb" fill-rule="evenodd" stroke="none"/>
      <path d="M174.75 199.8 Q172.75 200.85 170.8 200.5 L170.2 199.8 Q170.3 197.85 171.75 195.95 173.45 194.5 175.35 194.35 L176.6 195.4 Q176.75 198.15 174.75 199.8" fill="#d0cfd0" fill-rule="evenodd" stroke="none"/>
      <path d="M177.4 197.7 Q177.05 201.2 173.45 201.5 171.9 201.5 170.8 200.5 172.75 200.8 174.75 199.65 176.75 198.1 176.6 195.4 177.4 196.4 177.4 197.7" fill="#b0aeb3" fill-rule="evenodd" stroke="none"/>
    </g>
    <g id="shape4" transform="matrix(1.0, 0.0, 0.0, 1.0, 0.0, 0.0)">
      <path d="M81.7 24.1 Q88.25 35.2 92.6 47.1 L94.35 52.2 95.9 57.3 107.25 126.05 154.65 154.3 155.15 154.75 155.4 155.35 161.45 191.05 161.45 191.55 152.3 252.35 152.3 252.45 152.0 253.75 151.85 254.25 Q151.5 254.9 150.85 255.0 L150.4 255.0 149.85 255.0 143.55 260.7 136.6 266.35 136.1 266.55 135.85 266.55 122.05 253.8 122.1 253.65 123.2 250.65 Q124.05 248.55 124.15 246.3 L124.15 244.7 Q123.55 234.35 119.85 224.75 L118.85 222.35 116.7 217.3 111.45 222.2 116.7 262.45 116.05 263.85 80.3 266.95 80.0 266.95 76.15 266.65 46.3 263.3 45.9 263.15 45.4 263.05 44.9 262.1 47.9 225.55 38.05 215.55 34.2 232.4 36.85 238.4 Q38.55 241.95 39.35 245.5 L39.35 245.55 37.75 250.45 40.0 253.2 39.8 254.35 25.6 265.3 25.25 265.15 12.75 254.45 Q10.5 252.4 9.15 249.95 6.7 245.3 5.25 240.2 L3.85 235.4 2.35 230.5 0.0 193.95 6.5 158.3 7.2 157.15 55.25 127.3 53.55 1.3 54.25 0.05 Q56.25 -0.15 57.95 0.65 60.5 1.7 62.55 3.6 L70.9 11.45 75.0 15.45 78.75 19.65 81.7 24.1 M67.35 24.5 L67.55 24.1 68.05 23.85 Q68.9 23.4 69.85 23.85 73.4 25.25 76.15 27.85 L78.95 30.2 Q79.8 30.9 80.2 32.15 80.9 34.25 79.85 35.9 78.55 37.9 76.2 38.35 L73.05 37.6 Q71.9 37.35 71.4 36.3 L70.4 33.65 Q69.35 29.55 73.15 28.05 70.8 25.75 67.7 25.5 L67.35 24.5 M96.6 89.5 Q91.45 92.75 88.15 97.75 86.95 99.9 86.05 102.15 84.05 107.1 82.65 112.2 79.95 121.75 79.35 131.8 L93.05 128.1 93.5 128.35 104.15 125.75 98.05 88.65 96.6 89.5 M88.35 52.55 L86.25 57.05 Q89.5 58.55 92.75 57.15 87.3 38.35 77.0 21.75 75.75 20.6 74.15 19.8 72.35 18.8 70.3 18.4 67.95 18.5 66.05 19.95 62.9 22.45 61.55 26.15 59.7 31.35 58.9 36.6 57.75 44.25 57.2 52.15 L58.2 126.5 77.35 131.3 78.2 115.5 79.1 96.65 Q79.7 82.45 81.65 68.35 L82.4 63.35 82.65 62.0 83.65 58.65 85.45 53.65 86.05 52.3 Q86.45 51.35 87.45 51.35 L88.35 52.55 M87.15 59.5 L85.6 58.85 85.45 59.25 Q82.95 66.45 81.4 90.8 L80.35 111.45 Q81.75 106.45 83.9 101.3 88.25 90.75 97.7 86.65 L93.15 59.15 Q89.3 60.45 87.15 59.5 M70.9 15.25 L61.6 5.55 Q57.6 3.5 56.6 2.65 L56.95 30.95 Q58.75 23.05 61.6 20.0 66.35 14.6 70.9 15.25 M78.4 34.15 L78.4 32.4 75.05 29.75 72.3 30.85 Q71.75 32.6 72.6 34.4 73.35 35.9 74.9 36.4 L76.1 36.25 Q77.05 36.25 77.75 35.65 78.4 35.0 78.4 34.15 M55.45 130.7 L42.25 138.9 46.3 150.95 57.6 152.3 58.0 152.6 58.3 153.45 54.3 161.8 76.75 186.15 78.55 182.65 55.45 130.7 M67.45 143.35 L66.3 144.6 64.8 144.4 79.15 164.05 79.5 141.7 78.3 141.9 69.2 149.15 68.7 149.2 68.45 148.8 67.45 143.35 M63.1 140.6 L65.15 141.35 67.15 138.15 66.65 131.7 58.5 129.65 63.1 140.6 M77.85 134.6 L78.3 138.85 82.8 138.05 82.45 134.75 77.85 134.6 M75.75 134.3 L69.8 133.45 70.55 144.65 76.35 139.6 75.75 134.3 M77.0 171.8 L80.5 179.6 91.15 158.4 77.0 171.8 M72.0 160.55 L75.7 168.85 77.75 166.9 72.0 160.55 M9.9 159.0 L25.15 193.05 50.35 224.1 Q50.75 224.55 50.95 225.15 L48.05 260.85 63.1 262.3 65.6 207.85 75.3 189.0 51.35 163.05 Q50.7 162.3 51.2 161.3 L54.55 154.9 45.0 153.85 Q44.05 153.8 43.75 152.85 L39.65 140.55 9.9 159.0 M8.6 163.4 L3.0 193.95 5.35 230.2 10.25 246.55 18.15 237.1 Q18.45 236.7 19.0 236.75 L27.4 235.35 27.9 235.55 34.4 240.45 31.3 232.7 31.25 232.25 35.6 212.9 22.5 194.4 8.6 163.4 M91.05 131.85 L84.65 134.4 84.8 138.65 90.45 143.25 91.05 131.85 M93.65 140.15 L95.95 142.45 109.25 131.9 105.5 128.5 94.05 131.65 93.65 140.15 M83.0 141.05 L81.5 141.35 81.15 163.75 98.05 144.65 96.3 145.95 95.75 145.95 93.45 144.15 93.2 146.95 92.45 147.7 91.35 147.8 83.0 141.05 M104.7 141.0 Q100.65 146.15 97.65 152.1 L81.75 183.8 81.0 184.5 73.6 198.7 109.75 160.1 105.25 156.35 105.0 155.9 Q104.95 155.6 105.05 155.4 L105.65 154.7 Q111.75 152.55 118.0 150.75 L120.15 137.5 112.5 133.15 Q108.05 136.65 104.7 141.0 M158.45 191.35 L153.15 160.0 118.95 214.85 Q123.0 225.3 125.6 236.1 126.55 240.1 126.05 244.5 L130.2 239.9 142.2 239.9 143.15 240.6 149.85 248.55 158.45 191.35 M112.9 158.7 Q113.75 159.45 113.25 160.55 L113.05 160.95 68.6 208.45 66.1 262.6 80.2 263.95 113.5 261.3 108.35 221.8 108.6 220.8 116.1 213.75 151.95 156.2 122.95 139.1 120.45 152.55 120.05 153.0 109.7 156.25 112.9 158.7 M24.35 245.45 Q25.3 244.8 26.0 245.45 L26.4 246.4 26.3 249.25 30.8 251.7 34.8 249.9 36.2 245.55 26.6 238.35 19.95 239.3 11.7 249.5 25.65 262.0 36.4 253.35 35.8 252.75 Q33.25 253.8 30.85 253.6 27.3 253.1 23.95 251.3 23.2 251.0 23.25 250.3 L23.9 246.45 24.35 245.45 M141.4 242.9 L131.5 242.75 126.95 248.05 127.45 249.7 131.2 252.95 132.35 252.65 Q132.15 252.1 132.1 251.55 132.1 251.25 132.25 251.05 132.8 250.3 133.7 250.2 L134.55 250.95 Q136.45 253.05 137.9 255.55 L137.85 256.35 137.15 257.2 136.05 256.9 Q135.75 256.85 135.6 256.65 L134.4 255.25 130.75 255.05 Q128.35 254.3 126.25 252.6 L125.6 253.2 136.15 263.1 148.75 251.95 141.4 242.9" fill="#1a1a1a" fill-rule="evenodd" stroke="none"/>
      <path d="M87.15 59.5 Q89.3 60.45 93.15 59.15 L97.7 86.65 Q88.25 90.75 83.9 101.3 81.75 106.45 80.35 111.45 L81.4 90.8 Q82.95 66.45 85.45 59.25 L85.6 58.85 87.15 59.5 M88.35 52.55 L87.45 51.35 Q86.45 51.35 86.05 52.3 L85.45 53.65 83.65 58.65 82.65 62.0 82.4 63.35 81.65 68.35 Q79.7 82.45 79.1 96.65 L78.2 115.5 77.35 131.3 58.2 126.5 57.2 52.15 Q57.75 44.25 58.9 36.6 59.7 31.35 61.55 26.15 62.9 22.45 66.05 19.95 67.95 18.5 70.3 18.4 72.35 18.8 74.15 19.8 75.75 20.6 77.0 21.75 87.3 38.35 92.75 57.15 89.5 58.55 86.25 57.05 L88.35 52.55 M96.6 89.5 L98.05 88.65 104.15 125.75 93.5 128.35 93.05 128.1 79.35 131.8 Q79.95 121.75 82.65 112.2 84.05 107.1 86.05 102.15 86.95 99.9 88.15 97.75 91.45 92.75 96.6 89.5 M67.35 24.5 L67.7 25.5 Q70.8 25.75 73.15 28.05 69.35 29.55 70.4 33.65 L71.4 36.3 Q71.9 37.35 73.05 37.6 L76.2 38.35 Q78.55 37.9 79.85 35.9 80.9 34.25 80.2 32.15 79.8 30.9 78.95 30.2 L76.15 27.85 Q73.4 25.25 69.85 23.85 68.9 23.4 68.05 23.85 L67.55 24.1 67.35 24.5 M141.4 242.9 L148.75 251.95 136.15 263.1 125.6 253.2 126.25 252.6 Q128.35 254.3 130.75 255.05 L134.4 255.25 135.6 256.65 Q135.75 256.85 136.05 256.9 L137.15 257.2 137.85 256.35 137.9 255.55 Q136.45 253.05 134.55 250.95 L133.7 250.2 Q132.8 250.3 132.25 251.05 132.1 251.25 132.1 251.55 132.15 252.1 132.35 252.65 L131.2 252.95 127.45 249.7 126.95 248.05 131.5 242.75 141.4 242.9 M24.35 245.45 L23.9 246.45 23.25 250.3 Q23.2 251.0 23.95 251.3 27.3 253.1 30.85 253.6 33.25 253.8 35.8 252.75 L36.4 253.35 25.65 262.0 11.7 249.5 19.95 239.3 26.6 238.35 36.2 245.55 34.8 249.9 30.8 251.7 26.3 249.25 26.4 246.4 26.0 245.45 Q25.3 244.8 24.35 245.45" fill="#969bc5" fill-rule="evenodd" stroke="none"/>
      <path d="M70.9 15.25 Q66.35 14.6 61.6 20.0 58.75 23.05 56.95 30.95 L56.6 2.65 Q57.6 3.5 61.6 5.55 L70.9 15.25 M55.45 130.7 L78.55 182.65 76.75 186.15 54.3 161.8 58.3 153.45 58.0 152.6 57.6 152.3 46.3 150.95 42.25 138.9 55.45 130.7 M8.6 163.4 L22.5 194.4 35.6 212.9 31.25 232.25 31.3 232.7 34.4 240.45 27.9 235.55 27.4 235.35 19.0 236.75 Q18.45 236.7 18.15 237.1 L10.25 246.55 5.35 230.2 3.0 193.95 8.6 163.4 M9.9 159.0 L39.65 140.55 43.75 152.85 Q44.05 153.8 45.0 153.85 L54.55 154.9 51.2 161.3 Q50.7 162.3 51.35 163.05 L75.3 189.0 65.6 207.85 63.1 262.3 48.05 260.85 50.95 225.15 Q50.75 224.55 50.35 224.1 L25.15 193.05 9.9 159.0 M72.0 160.55 L77.75 166.9 75.7 168.85 72.0 160.55 M77.0 171.8 L91.15 158.4 80.5 179.6 77.0 171.8 M104.7 141.0 Q108.05 136.65 112.5 133.15 L120.15 137.5 118.0 150.75 Q111.75 152.55 105.65 154.7 L105.05 155.4 Q104.95 155.6 105.0 155.9 L105.25 156.35 109.75 160.1 73.6 198.7 81.0 184.5 81.75 183.8 97.65 152.1 Q100.65 146.15 104.7 141.0 M112.9 158.7 L109.7 156.25 120.05 153.0 120.45 152.55 122.95 139.1 151.95 156.2 116.1 213.75 108.6 220.8 108.35 221.8 113.5 261.3 80.2 263.95 66.1 262.6 68.6 208.45 113.05 160.95 113.25 160.55 Q113.75 159.45 112.9 158.7 M158.45 191.35 L149.85 248.55 143.15 240.6 142.2 239.9 130.2 239.9 126.05 244.5 Q126.55 240.1 125.6 236.1 123.0 225.3 118.95 214.85 L153.15 160.0 158.45 191.35" fill="#3a3d6a" fill-rule="evenodd" stroke="none"/>
      <path d="M76.1 36.25 L74.9 36.4 Q73.35 35.9 72.6 34.4 71.75 32.6 72.3 30.85 L75.05 29.75 78.4 32.4 78.4 34.15 Q77.95 33.6 77.1 33.5 75.65 33.65 75.5 35.05 75.6 35.85 76.1 36.25" fill="#ffffff" fill-rule="evenodd" stroke="none"/>
      <path d="M78.4 34.15 Q78.4 35.0 77.75 35.65 77.05 36.25 76.1 36.25 75.6 35.85 75.5 35.05 75.65 33.65 77.1 33.5 77.95 33.6 78.4 34.15" fill="#000000" fill-rule="evenodd" stroke="none"/>
      <path d="M63.1 140.6 L58.5 129.65 66.65 131.7 67.15 138.15 65.15 141.35 63.1 140.6 M67.45 143.35 L68.45 148.8 68.7 149.2 69.2 149.15 78.3 141.9 79.5 141.7 79.15 164.05 64.8 144.4 66.3 144.6 67.45 143.35 M83.0 141.05 L91.35 147.8 92.45 147.7 93.2 146.95 93.45 144.15 95.75 145.95 96.3 145.95 98.05 144.65 81.15 163.75 81.5 141.35 83.0 141.05 M93.65 140.15 L94.05 131.65 105.5 128.5 109.25 131.9 95.95 142.45 93.65 140.15" fill="#cacfe6" fill-rule="evenodd" stroke="none"/>
      <path d="M75.75 134.3 L76.35 139.6 70.55 144.65 69.8 133.45 75.75 134.3 M77.85 134.6 L82.45 134.75 82.8 138.05 78.3 138.85 77.85 134.6 M91.05 131.85 L90.45 143.25 84.8 138.65 84.65 134.4 91.05 131.85" fill="#990000" fill-rule="evenodd" stroke="none"/>
    </g>
    <g id="shape5" transform="matrix(1.0, 0.0, 0.0, 1.0, -0.05, 0.0)">
      <path d="M40.95 2.45 L41.9 2.8 Q42.4 1.4 44.05 1.25 46.25 1.45 46.45 3.8 L46.45 6.35 48.8 8.45 Q56.9 16.5 57.2 28.65 56.85 40.75 48.8 48.85 42.05 55.65 32.45 56.95 L32.05 57.95 Q31.35 59.0 29.8 59.15 28.3 59.0 27.6 58.05 L27.2 57.2 Q16.0 56.45 8.4 48.85 3.45 43.9 1.4 37.45 -0.45 31.7 0.25 25.75 1.75 13.25 11.8 5.55 L12.4 3.05 Q13.25 0.65 15.6 1.55 16.3 1.85 16.4 2.8 L17.0 2.55 Q21.85 0.45 27.2 0.1 33.95 0.0 40.1 2.5 L40.95 2.45 M40.75 9.5 L41.65 9.15 41.65 3.8 40.95 3.4 Q39.9 3.3 39.45 4.1 L39.5 20.75 40.05 21.3 41.6 21.05 41.65 14.2 41.0 13.95 Q39.6 13.25 39.65 11.65 39.65 10.3 40.75 9.5 M43.6 13.8 L42.65 14.2 Q42.3 22.35 43.9 21.75 L44.95 21.3 44.95 2.65 Q44.35 2.05 43.6 2.4 42.9 2.55 42.75 3.3 L42.65 9.15 43.55 9.5 Q44.2 9.85 44.5 10.65 L44.55 12.55 Q44.25 13.35 43.6 13.8 M42.85 10.1 L41.65 10.1 43.85 12.05 42.85 10.1 M40.75 10.9 L40.5 11.65 Q40.7 13.2 42.15 13.3 L42.65 13.2 40.75 10.9 M33.35 54.6 L33.1 55.4 Q42.4 53.9 48.75 46.85 56.75 37.95 55.55 25.9 54.45 15.35 46.45 8.2 L46.45 9.2 46.45 11.55 Q53.05 18.45 53.3 28.6 53.05 39.1 46.05 46.1 40.85 51.3 33.75 52.75 L33.35 54.6 M34.15 50.65 L34.05 51.35 Q40.4 49.85 45.1 45.15 51.7 38.55 51.95 28.6 51.75 19.75 46.45 13.6 L46.45 14.6 Q46.75 17.8 46.0 20.7 45.25 23.6 42.2 21.75 L41.45 22.0 Q39.2 22.8 38.3 20.55 L33.3 21.2 33.3 23.05 33.95 23.4 Q35.1 23.95 34.9 25.15 L34.35 26.45 32.4 27.25 32.4 29.2 33.85 30.25 33.95 31.8 32.3 32.9 Q34.1 41.75 34.15 50.65 M38.25 4.0 L38.65 3.4 Q29.1 -0.05 19.35 3.1 L19.75 3.6 20.0 4.15 Q29.1 3.05 38.25 4.0 M25.35 51.1 L25.1 48.35 Q25.25 40.65 27.35 32.9 26.65 32.65 26.2 32.25 24.7 30.8 26.4 29.55 L26.9 29.2 26.9 27.25 Q25.3 27.3 24.75 25.95 L24.5 24.95 Q24.55 24.05 25.5 23.4 L26.0 23.05 26.0 21.35 19.95 20.65 Q19.2 22.95 16.85 21.95 L16.1 21.7 Q15.1 23.2 13.3 22.4 12.1 22.0 12.05 20.75 L11.8 13.3 11.8 12.35 Q5.45 18.9 5.2 28.6 5.45 38.55 12.05 45.15 17.6 50.7 25.5 51.75 L25.35 51.1 M16.8 15.6 L16.5 20.75 17.35 21.35 Q18.95 21.55 19.0 19.95 19.1 12.15 18.85 4.35 L18.65 3.7 17.7 3.35 16.6 3.85 16.95 9.95 Q17.9 10.35 18.3 11.4 L18.35 13.15 16.85 14.9 16.8 15.6 M38.2 19.4 L38.2 5.0 Q29.6 4.0 20.9 5.1 L20.0 5.2 20.1 19.4 Q29.1 21.65 38.2 19.4 M33.5 24.4 Q33.3 23.9 32.85 23.9 L27.1 23.4 Q24.95 24.0 26.25 25.85 L26.9 26.45 32.3 26.4 Q33.3 26.4 33.55 25.55 33.7 24.95 33.5 24.4 M27.15 21.35 L27.15 22.95 32.0 22.95 32.0 21.35 27.15 21.35 M15.1 9.8 L15.65 9.7 15.35 3.25 14.95 2.65 14.2 2.25 Q12.95 2.6 12.95 4.0 L13.1 20.6 Q13.1 21.5 14.2 21.7 15.6 21.55 15.55 20.15 L15.3 15.05 Q13.7 14.6 13.35 13.25 L13.3 11.85 Q13.6 10.25 15.1 9.8 M26.35 54.95 L25.85 53.15 Q17.2 52.25 11.1 46.1 3.0 37.75 4.15 26.1 5.05 16.85 11.8 10.5 L11.8 8.1 11.8 7.3 Q2.9 14.65 1.7 25.95 0.55 37.1 7.7 45.9 15.0 54.85 26.6 55.7 L26.35 54.95 M17.25 11.6 L16.6 10.8 15.15 10.8 17.3 13.05 17.25 11.6 M14.45 11.5 L14.2 12.25 Q14.3 13.7 15.85 13.9 L16.6 13.7 14.45 11.5 M27.3 30.4 L26.75 31.15 27.3 32.2 32.6 31.95 32.8 30.9 32.4 30.15 31.05 30.2 27.3 30.4 M31.25 29.1 L31.25 27.25 28.2 27.25 28.3 29.1 31.25 29.1 M32.6 42.15 Q32.15 37.5 31.2 32.9 L28.45 32.9 27.2 39.55 Q26.25 45.2 26.95 51.0 L27.15 52.3 27.15 52.25 Q27.35 49.85 29.75 49.65 31.9 49.85 32.3 51.85 33.05 47.05 32.6 42.15 M30.7 58.1 L32.0 53.55 Q31.35 54.95 29.75 54.85 27.85 54.65 27.35 53.05 L28.65 57.7 30.7 58.1 M29.0 53.7 L29.75 53.95 Q31.9 53.5 31.2 51.5 L29.0 53.7 M29.75 50.6 Q28.25 50.75 28.1 52.25 L28.35 53.05 30.55 50.85 29.75 50.6" fill="#212753" fill-rule="evenodd" stroke="none"/>
      <path d="M40.95 2.45 L40.1 2.5 Q33.95 0.0 27.2 0.1 L29.2 0.0 Q35.6 0.15 40.95 2.45 M46.45 9.2 L46.45 8.2 Q54.45 15.35 55.55 25.9 56.75 37.95 48.75 46.85 42.4 53.9 33.1 55.4 L33.35 54.6 Q44.1 52.5 50.45 43.3 55.05 36.65 54.95 28.6 54.75 17.0 46.45 9.2 M46.45 14.6 L46.45 13.6 Q51.75 19.75 51.95 28.6 51.7 38.55 45.1 45.15 40.4 49.85 34.05 51.35 L34.15 50.65 Q40.2 49.15 44.65 44.7 51.05 38.3 51.3 28.65 51.15 20.45 46.45 14.6 M19.75 3.6 L19.35 3.1 Q29.1 -0.05 38.65 3.4 L38.25 4.0 Q33.8 2.25 28.5 2.1 23.8 2.25 19.75 3.6 M25.35 51.1 L25.5 51.75 Q17.6 50.7 12.05 45.15 5.45 38.55 5.2 28.6 5.45 18.9 11.8 12.35 L11.8 13.3 Q6.1 19.55 5.85 28.65 6.1 38.3 12.5 44.7 17.85 50.0 25.35 51.1 M26.35 54.95 L26.6 55.7 Q15.0 54.85 7.7 45.9 0.55 37.1 1.7 25.95 2.9 14.65 11.8 7.3 L11.8 8.1 Q3.55 15.15 2.3 25.9 1.25 35.3 6.7 43.25 13.85 53.8 26.35 54.95" fill="#514f6f" fill-rule="evenodd" stroke="none"/>
      <path d="M41.0 13.95 L41.65 14.2 41.6 21.05 40.05 21.3 39.5 20.75 39.45 4.1 Q39.9 3.3 40.95 3.4 L41.65 3.8 41.65 9.15 40.75 9.5 40.4 4.85 Q39.7 5.45 39.65 6.45 39.35 12.5 39.85 18.55 39.95 19.55 40.65 19.75 41.55 19.1 41.5 17.7 L41.0 13.95 M43.55 9.5 L42.65 9.15 42.75 3.3 Q42.9 2.55 43.6 2.4 44.35 2.05 44.95 2.65 L44.95 21.3 43.9 21.75 Q42.3 22.35 42.65 14.2 L43.6 13.8 44.0 20.3 44.55 12.55 44.5 10.65 44.25 4.4 43.55 4.3 43.55 9.5 M36.15 9.6 Q34.9 7.5 32.4 7.85 29.75 8.15 27.1 7.8 24.95 7.25 23.1 8.3 20.7 10.35 22.5 12.35 24.25 14.4 26.55 15.0 L31.75 15.4 Q34.7 15.25 36.3 13.5 37.3 11.55 36.15 9.6 M27.5 24.1 L27.45 24.1 Q26.9 24.25 26.9 24.5 26.85 24.85 27.9 25.35 L30.85 25.25 Q31.6 24.85 31.6 24.5 31.5 24.1 30.4 23.85 L27.5 24.1 M27.15 21.35 L32.0 21.35 32.0 22.95 27.15 22.95 27.15 21.35 M33.5 24.4 Q33.7 24.95 33.55 25.55 33.3 26.4 32.3 26.4 L26.9 26.45 26.25 25.85 Q24.95 24.0 27.1 23.4 L32.85 23.9 Q33.3 23.9 33.5 24.4 M38.2 19.4 Q29.1 21.65 20.1 19.4 L20.0 5.2 20.9 5.1 Q29.6 4.0 38.2 5.0 L38.2 19.4 M16.95 9.95 L16.6 3.85 17.7 3.35 18.65 3.7 18.85 4.35 Q19.1 12.15 19.0 19.95 18.95 21.55 17.35 21.35 L16.5 20.75 16.8 15.6 17.85 19.6 18.35 13.15 18.3 11.4 17.45 5.4 16.95 9.95 M15.3 15.05 L15.55 20.15 Q15.6 21.55 14.2 21.7 13.1 21.5 13.1 20.6 L12.95 4.0 Q12.95 2.6 14.2 2.25 L14.95 2.65 15.35 3.25 15.65 9.7 15.1 9.8 14.3 3.55 13.4 4.2 13.3 11.85 13.35 13.25 14.15 20.3 14.85 20.25 15.3 15.05 M31.05 30.2 L32.4 30.15 32.8 30.9 32.6 31.95 27.3 32.2 26.75 31.15 27.3 30.4 27.4 31.15 31.25 31.35 31.5 30.7 31.05 30.2 M31.25 29.1 L28.3 29.1 28.2 27.25 31.25 27.25 31.25 29.1 M27.9 48.35 Q29.05 49.75 30.55 48.65 32.0 47.2 31.6 44.95 31.65 41.3 30.8 37.75 30.7 36.45 29.75 35.6 28.7 35.65 28.3 38.1 27.95 40.5 27.95 41.5 26.8 45.1 27.9 48.35 M32.6 42.15 Q33.05 47.05 32.3 51.85 31.9 49.85 29.75 49.65 27.35 49.85 27.15 52.25 L27.15 52.3 26.95 51.0 Q26.25 45.2 27.2 39.55 L28.45 32.9 31.2 32.9 Q32.15 37.5 32.6 42.15 M30.7 58.1 L28.65 57.7 27.35 53.05 Q27.85 54.65 29.75 54.85 31.35 54.95 32.0 53.55 L30.7 58.1 M29.1 55.9 Q28.65 57.55 30.25 57.4 31.35 56.6 30.65 55.85 L29.1 55.9" fill="#69839d" fill-rule="evenodd" stroke="none"/>
      <path d="M40.75 9.5 Q39.65 10.3 39.65 11.65 39.6 13.25 41.0 13.95 L41.5 17.7 Q41.55 19.1 40.65 19.75 39.95 19.55 39.85 18.55 39.35 12.5 39.65 6.45 39.7 5.45 40.4 4.85 L40.75 9.5 M43.55 9.5 L43.55 4.3 44.25 4.4 44.5 10.65 Q44.2 9.85 43.55 9.5 M44.55 12.55 L44.0 20.3 43.6 13.8 Q44.25 13.35 44.55 12.55 M34.2 11.4 L33.9 10.25 26.9 9.5 Q25.3 9.3 24.4 10.6 24.5 12.95 27.0 13.65 31.6 14.85 34.2 11.4 M36.15 9.6 Q37.3 11.55 36.3 13.5 34.7 15.25 31.75 15.4 L26.55 15.0 Q24.25 14.4 22.5 12.35 20.7 10.35 23.1 8.3 24.95 7.25 27.1 7.8 29.75 8.15 32.4 7.85 34.9 7.5 36.15 9.6 M27.5 24.1 L30.4 23.85 Q31.5 24.1 31.6 24.5 31.6 24.85 30.85 25.25 L27.9 25.35 Q26.85 24.85 26.9 24.5 26.9 24.25 27.45 24.1 L27.5 24.1 M16.8 15.6 L16.85 14.9 18.35 13.15 17.85 19.6 16.8 15.6 M18.3 11.4 Q17.9 10.35 16.95 9.95 L17.45 5.4 18.3 11.4 M15.3 15.05 L14.85 20.25 14.15 20.3 13.35 13.25 Q13.7 14.6 15.3 15.05 M13.3 11.85 L13.4 4.2 14.3 3.55 15.1 9.8 Q13.6 10.25 13.3 11.85 M27.3 30.4 L31.05 30.2 31.5 30.7 31.25 31.35 27.4 31.15 27.3 30.4 M27.9 48.35 Q26.8 45.1 27.95 41.5 27.95 40.5 28.3 38.1 28.7 35.65 29.75 35.6 30.7 36.45 30.8 37.75 31.65 41.3 31.6 44.95 32.0 47.2 30.55 48.65 29.05 49.75 27.9 48.35 M29.1 55.9 L30.65 55.85 Q31.35 56.6 30.25 57.4 28.65 57.55 29.1 55.9" fill="#899db1" fill-rule="evenodd" stroke="none"/>
      <path d="M40.75 10.9 L42.65 13.2 42.15 13.3 Q40.7 13.2 40.5 11.65 L40.75 10.9 M42.85 10.1 L43.85 12.05 41.65 10.1 42.85 10.1 M14.45 11.5 L16.6 13.7 15.85 13.9 Q14.3 13.7 14.2 12.25 L14.45 11.5 M17.25 11.6 L17.3 13.05 15.15 10.8 16.6 10.8 17.25 11.6 M29.75 50.6 L30.55 50.85 28.35 53.05 28.1 52.25 Q28.25 50.75 29.75 50.6 M29.0 53.7 L31.2 51.5 Q31.9 53.5 29.75 53.95 L29.0 53.7" fill="#a1b1c1" fill-rule="evenodd" stroke="none"/>
      <path d="M33.35 54.6 L33.75 52.75 Q40.85 51.3 46.05 46.1 53.05 39.1 53.3 28.6 53.05 18.45 46.45 11.55 L46.45 9.2 Q54.75 17.0 54.95 28.6 55.05 36.65 50.45 43.3 44.1 52.5 33.35 54.6 M45.35 22.9 Q47.1 21.7 46.9 19.6 L46.55 17.25 Q49.55 22.9 49.55 29.45 49.05 40.8 38.0 44.45 L34.9 45.55 34.8 45.15 34.35 43.45 Q38.75 41.7 42.1 38.05 45.75 33.5 45.85 27.7 45.85 25.2 45.35 22.9 M38.25 4.0 Q29.1 3.05 20.0 4.15 L19.75 3.6 Q23.8 2.25 28.5 2.1 33.8 2.25 38.25 4.0 M24.25 45.1 Q24.15 46.55 24.3 47.8 17.65 47.8 13.35 43.15 8.2 37.55 7.7 29.6 7.2 22.7 11.3 17.35 L11.35 17.65 Q11.15 19.95 11.85 21.75 7.8 29.5 12.4 37.1 16.5 43.85 24.25 45.1 M11.8 8.1 L11.8 10.5 Q5.05 16.85 4.15 26.1 3.0 37.75 11.1 46.1 17.2 52.25 25.85 53.15 L26.35 54.95 Q13.85 53.8 6.7 43.25 1.25 35.3 2.3 25.9 3.55 15.15 11.8 8.1" fill="#afc1d9" fill-rule="evenodd" stroke="none"/>
      <path d="M34.15 50.65 Q34.1 41.75 32.3 32.9 L33.95 31.8 34.35 43.45 34.8 45.15 34.9 45.55 38.0 44.45 Q49.05 40.8 49.55 29.45 49.55 22.9 46.55 17.25 L46.9 19.6 Q47.1 21.7 45.35 22.9 L35.9 22.55 34.9 25.15 Q35.1 23.95 33.95 23.4 L33.3 23.05 33.3 21.2 38.3 20.55 Q39.2 22.8 41.45 22.0 L42.2 21.75 Q45.25 23.6 46.0 20.7 46.75 17.8 46.45 14.6 51.15 20.45 51.3 28.65 51.05 38.3 44.65 44.7 40.2 49.15 34.15 50.65 M33.85 30.25 L32.4 29.2 32.4 27.25 34.35 26.45 33.6 28.35 33.85 30.25 M24.25 45.1 L24.95 39.9 Q25.7 35.8 24.45 31.95 L25.5 28.35 23.3 25.55 24.45 22.3 Q22.8 22.45 21.25 23.1 17.0 25.0 12.6 23.2 L11.85 21.75 Q11.15 19.95 11.35 17.65 L11.3 17.35 Q7.2 22.7 7.7 29.6 8.2 37.55 13.35 43.15 17.65 47.8 24.3 47.8 24.15 46.55 24.25 45.1 M11.8 13.3 L12.05 20.75 Q12.1 22.0 13.3 22.4 15.1 23.2 16.1 21.7 L16.85 21.95 Q19.2 22.95 19.95 20.65 L26.0 21.35 26.0 23.05 25.5 23.4 Q24.55 24.05 24.5 24.95 L24.75 25.95 Q25.3 27.3 26.9 27.25 L26.9 29.2 26.4 29.55 Q24.7 30.8 26.2 32.25 26.65 32.65 27.35 32.9 25.25 40.65 25.1 48.35 L25.35 51.1 Q17.85 50.0 12.5 44.7 6.1 38.3 5.85 28.65 6.1 19.55 11.8 13.3" fill="#9ab4cc" fill-rule="evenodd" stroke="none"/>
      <path d="M33.95 31.8 L33.85 30.25 33.6 28.35 34.35 26.45 34.9 25.15 35.9 22.55 45.35 22.9 Q45.85 25.2 45.85 27.7 45.75 33.5 42.1 38.05 38.75 41.7 34.35 43.45 L33.95 31.8 M11.85 21.75 L12.6 23.2 Q17.0 25.0 21.25 23.1 22.8 22.45 24.45 22.3 L23.3 25.55 25.5 28.35 24.45 31.95 Q25.7 35.8 24.95 39.9 L24.25 45.1 Q16.5 43.85 12.4 37.1 7.8 29.5 11.85 21.75" fill="#c5d3e3" fill-rule="evenodd" stroke="none"/>
      <path d="M34.2 11.4 Q31.6 14.85 27.0 13.65 24.5 12.95 24.4 10.6 25.3 9.3 26.9 9.5 L33.9 10.25 34.2 11.4" fill="#a1b3bf" fill-rule="evenodd" stroke="none"/>
    </g>
  </defs>
</svg>
