<?xml version="1.0" encoding="UTF-8" standalone="no"?>
<svg xmlns:xlink="http://www.w3.org/1999/xlink" height="433.1px" width="327.95px" xmlns="http://www.w3.org/2000/svg">
  <g transform="matrix(1.0, 0.0, 0.0, 1.0, 164.0, 433.1)">
    <use height="36.0" transform="matrix(1.0, 0.0, 0.0, 1.0, -80.3, -36.0)" width="159.0" xlink:href="#shape0"/>
    <use height="96.65" transform="matrix(1.0, 0.0, 0.0, 1.0, -27.9, -108.0)" width="54.2" xlink:href="#shape1"/>
    <use height="37.0" transform="matrix(1.0173, 0.0, 0.0, 1.0, -94.6491, -92.45)" width="185.25" xlink:href="#shape2"/>
    <use height="17.5" transform="matrix(0.8263, 0.0, 0.0, 1.0, -57.7466, -78.8)" width="134.6" xlink:href="#text0"/>
    <use height="306.7" transform="matrix(1.0, 0.0, 0.0, 1.0, -102.8, -404.45)" width="199.9" xlink:href="#shape3"/>
    <use height="268.95" transform="matrix(1.0604, 0.0, 0.0, 1.0604, -83.2405, -383.8224)" width="148.2" xlink:href="#shape4"/>
    <use height="59.15" transform="matrix(1.0, 0.0, 0.0, 1.0, -29.9, -217.5)" width="57.15" xlink:href="#shape5"/>
  </g>
  <defs>
    <g id="shape0" transform="matrix(1.0, 0.0, 0.0, 1.0, 0.0, 0.0)">
      <path d="M135.7 30.75 Q113.3 35.8 79.5 36.0 45.7 35.8 23.3 30.75 0.85 25.65 0.0 18.0 0.85 10.35 23.3 5.25 45.7 0.2 79.5 0.0 113.3 0.2 135.7 5.25 158.15 10.35 159.0 18.0 158.15 25.65 135.7 30.75" fill="#000000" fill-opacity="0.39607844" fill-rule="evenodd" stroke="none"/>
    </g>
    <g id="shape1" transform="matrix(1.0, 0.0, 0.0, 1.0, 0.0, 0.0)">
      <path d="M5.85 93.35 Q-0.15 90.4 0.0 90.0 L0.0 0.0 54.2 0.0 54.2 90.0 Q54.15 90.4 46.95 93.35 39.7 96.25 25.65 96.65 11.8 96.25 5.85 93.35" fill="url(#gradient0)" fill-rule="evenodd" stroke="none"/>
    </g>
    <linearGradient gradientTransform="matrix(0.0303, 0.0, 0.0, 0.0303, 25.7, 48.35)" gradientUnits="userSpaceOnUse" id="gradient0" spreadMethod="pad" x1="-819.2" x2="819.2">
      <stop offset="0.0" stop-color="#565656"/>
      <stop offset="0.403921568627451" stop-color="#9a9999"/>
      <stop offset="0.592156862745098" stop-color="#dbdbda"/>
      <stop offset="0.7803921568627451" stop-color="#9b9a9a"/>
      <stop offset="1.0" stop-color="#151213"/>
    </linearGradient>
    <g id="shape2" transform="matrix(1.0, 0.0, 0.0, 1.0, -0.05, 0.0)">
      <path d="M185.25 8.2 L185.3 8.25 185.25 8.25 185.25 8.2 M1.9 5.2 L2.3 2.85 18.75 2.05 59.05 0.7 Q83.4 0.05 109.4 0.3 115.1 0.55 118.85 1.6 122.65 2.7 128.15 3.0 L129.3 1.5 Q130.05 0.2 130.5 0.0 160.7 0.5 181.5 3.85 L183.45 6.1 103.3 3.5 Q60.0 3.6 6.5 5.1 L1.9 5.2 M176.25 8.0 L176.45 8.4 177.65 11.45 178.5 13.65 Q179.3 12.8 179.7 10.9 179.7 9.8 179.25 9.1 L179.9 9.55 Q180.65 10.3 180.7 11.75 179.85 15.7 177.15 15.05 175.8 14.75 175.1 13.85 L176.15 14.2 177.35 14.25 176.45 12.35 174.9 8.8 174.8 8.5 174.95 8.35 Q175.75 7.8 176.25 8.0 M178.25 27.3 L179.85 27.15 Q180.5 27.3 181.25 27.95 183.6 31.2 181.35 32.8 180.2 33.6 179.1 33.5 L180.8 32.15 178.8 31.55 175.1 30.4 175.2 29.1 175.2 29.0 175.25 28.7 175.4 28.75 175.85 28.9 178.95 30.05 181.1 30.85 Q181.0 29.65 179.9 28.15 179.05 27.45 178.25 27.3 M9.35 6.95 L10.7 10.45 11.7 12.9 Q12.6 11.95 13.05 9.85 13.05 8.55 12.5 7.75 13.85 8.35 14.15 10.05 L13.75 12.35 Q12.6 15.1 10.15 14.55 8.75 14.25 8.0 13.4 L7.85 13.2 9.0 13.6 10.35 13.65 9.35 11.4 7.6 7.45 8.75 6.6 9.2 6.55 9.35 6.95 M9.4 25.3 Q11.0 24.35 12.9 25.8 15.0 28.35 14.35 30.1 L13.4 31.3 Q12.2 32.25 10.95 32.25 L12.75 30.6 10.4 30.05 6.2 29.05 6.15 27.55 6.15 27.1 6.35 27.15 6.9 27.35 10.45 28.4 12.95 29.1 Q12.75 27.8 11.35 26.15 10.35 25.35 9.4 25.3" fill="#47525f" fill-rule="evenodd" stroke="none"/>
      <path d="M0.05 36.7 L0.75 22.9 Q1.05 14.95 1.6 7.0 L1.9 5.2 6.5 5.1 3.2 8.3 1.95 36.45 0.05 36.7" fill="#cdcdcd" fill-rule="evenodd" stroke="none"/>
      <path d="M13.75 12.35 L14.15 10.05 26.45 10.0 13.75 12.35 M8.0 13.4 L7.0 13.55 7.2 26.2 6.35 27.15 6.15 27.1 6.15 27.55 Q5.15 29.5 6.75 31.55 8.95 33.2 10.95 32.25 12.2 32.25 13.4 31.3 L14.35 30.1 16.45 30.2 36.65 31.3 56.5 32.6 Q50.4 32.9 38.0 32.9 L15.1 32.75 3.85 32.6 5.25 10.05 6.0 10.05 Q6.15 12.3 7.85 13.2 L8.0 13.4" fill="#848484" fill-rule="evenodd" stroke="none"/>
      <path d="M175.1 13.85 Q175.8 14.75 177.15 15.05 179.85 15.7 180.7 11.75 180.65 10.3 179.9 9.55 L180.85 9.65 179.85 27.15 178.25 27.3 177.7 27.3 177.8 15.2 160.95 13.3 Q144.35 11.4 115.0 6.95 144.55 7.2 162.45 8.35 L174.1 9.15 Q173.65 9.7 173.4 10.6 173.45 12.95 175.1 13.85 M175.3 32.3 L137.05 30.55 175.2 29.0 175.2 29.1 Q174.3 30.55 175.3 32.3" fill="#a09fa0" fill-rule="evenodd" stroke="none"/>
      <path d="M176.45 8.4 L176.25 8.0 176.9 7.95 Q178.55 8.05 179.25 9.1 179.7 9.8 179.7 10.9 179.3 12.8 178.5 13.65 L177.65 11.45 178.05 10.25 Q178.0 8.55 176.45 8.4 M174.8 8.5 L174.9 8.8 Q174.35 9.2 174.15 10.05 174.2 11.9 175.85 12.3 L176.45 12.35 177.35 14.25 176.15 14.2 175.1 13.85 Q173.45 12.95 173.4 10.6 173.65 9.7 174.1 9.15 L174.8 8.5 M177.7 27.3 L178.25 27.3 Q179.05 27.45 179.9 28.15 181.0 29.65 181.1 30.85 L178.95 30.05 178.3 28.9 Q177.0 27.8 175.85 28.9 L175.4 28.75 175.8 28.3 Q176.7 27.35 177.7 27.3 M179.1 33.5 Q177.3 34.2 175.5 32.65 L175.3 32.3 Q174.3 30.55 175.2 29.1 L175.1 30.4 Q175.25 32.1 176.95 32.35 178.0 32.25 178.8 31.55 L180.8 32.15 179.1 33.5 M10.7 10.45 L11.2 9.05 Q11.15 7.15 9.35 6.95 L9.2 6.55 9.9 6.5 Q11.75 6.6 12.5 7.75 13.05 8.55 13.05 9.85 12.6 11.95 11.7 12.9 L10.7 10.45 M7.2 26.2 Q8.2 25.2 9.4 25.3 10.35 25.35 11.35 26.15 12.75 27.8 12.95 29.1 L10.45 28.4 Q9.75 26.65 8.05 26.6 L6.9 27.35 6.35 27.15 7.2 26.2 M6.0 10.05 L5.95 9.55 Q6.6 7.0 8.75 6.6 L7.6 7.45 Q7.0 7.9 6.75 8.85 6.8 10.95 8.7 11.35 L9.35 11.4 10.35 13.65 9.0 13.6 7.85 13.2 Q6.15 12.3 6.0 10.05 M6.15 27.55 L6.2 29.05 Q6.45 30.9 8.2 31.1 9.7 31.2 10.4 30.05 L12.75 30.6 10.95 32.25 Q8.95 33.2 6.75 31.55 5.15 29.5 6.15 27.55" fill="#9c9c9c" fill-rule="evenodd" stroke="none"/>
      <path d="M174.9 8.8 L176.45 12.35 175.85 12.3 Q174.2 11.9 174.15 10.05 174.35 9.2 174.9 8.8 M177.65 11.45 L176.45 8.4 Q178.0 8.55 178.05 10.25 L177.65 11.45 M175.85 28.9 Q177.0 27.8 178.3 28.9 L178.95 30.05 175.85 28.9 M175.1 30.4 L178.8 31.55 Q178.0 32.25 176.95 32.35 175.25 32.1 175.1 30.4 M9.35 6.95 Q11.15 7.15 11.2 9.05 L10.7 10.45 9.35 6.95 M9.35 11.4 L8.7 11.35 Q6.8 10.95 6.75 8.85 7.0 7.9 7.6 7.45 L9.35 11.4 M10.45 28.4 L6.9 27.35 8.05 26.6 Q9.75 26.65 10.45 28.4 M6.2 29.05 L10.4 30.05 Q9.7 31.2 8.2 31.1 6.45 30.9 6.2 29.05" fill="#d5d4d4" fill-rule="evenodd" stroke="none"/>
      <path d="M183.45 6.1 L185.3 6.25 185.25 8.2 185.25 8.25 185.1 13.45 184.65 27.3 184.3 36.25 Q157.35 34.75 133.85 35.55 L89.2 37.0 Q65.15 37.15 43.55 35.85 22.0 34.5 0.05 36.75 L0.05 36.7 1.95 36.45 3.2 8.3 6.5 5.1 Q60.0 3.6 103.3 3.5 L183.45 6.1 M176.25 8.0 Q175.75 7.8 174.95 8.35 L174.8 8.5 174.1 9.15 162.45 8.35 Q144.55 7.2 115.0 6.95 144.35 11.4 160.95 13.3 L177.8 15.2 177.7 27.3 Q176.7 27.35 175.8 28.3 L175.4 28.75 175.25 28.7 175.2 29.0 137.05 30.55 175.3 32.3 175.5 32.65 Q177.3 34.2 179.1 33.5 180.2 33.6 181.35 32.8 183.6 31.2 181.25 27.95 180.5 27.3 179.85 27.15 L180.85 9.65 179.9 9.55 179.25 9.1 Q178.55 8.05 176.9 7.95 L176.25 8.0 M12.5 7.75 Q11.75 6.6 9.9 6.5 L9.2 6.55 8.75 6.6 Q6.6 7.0 5.95 9.55 L6.0 10.05 5.25 10.05 3.85 32.6 15.1 32.75 38.0 32.9 Q50.4 32.9 56.5 32.6 L36.65 31.3 16.45 30.2 14.35 30.1 Q15.0 28.35 12.9 25.8 11.0 24.35 9.4 25.3 8.2 25.2 7.2 26.2 L7.0 13.55 8.0 13.4 Q8.75 14.25 10.15 14.55 12.6 15.1 13.75 12.35 L26.45 10.0 14.15 10.05 Q13.85 8.35 12.5 7.75" fill="url(#gradient1)" fill-rule="evenodd" stroke="none"/>
    </g>
    <linearGradient gradientTransform="matrix(0.1131, 0.0, 0.0, 0.0204, 92.65, 20.25)" gradientUnits="userSpaceOnUse" id="gradient1" spreadMethod="pad" x1="-819.2" x2="819.2">
      <stop offset="0.0" stop-color="#9a9a9a"/>
      <stop offset="1.0" stop-color="#ffffff"/>
    </linearGradient>
    <g id="text0" transform="matrix(1.0, 0.0, 0.0, 1.0, -29.05, -5.75)">
      <g transform="matrix(1.0, 0.0, 0.0, 1.0, 28.25, 0.0)">
        <use fill="#000000" height="17.5" transform="matrix(0.4746, 0.0, 0.0, 0.4746, 0.0, 21.0)" width="134.6" xlink:href="#font_______W7_S0"/>
        <use fill="#000000" height="17.5" transform="matrix(0.4746, 0.0, 0.0, 0.4746, 15.75, 21.0)" width="134.6" xlink:href="#font_______W7_p0"/>
        <use fill="#000000" height="17.5" transform="matrix(0.4746, 0.0, 0.0, 0.4746, 29.65, 21.0)" width="134.6" xlink:href="#font_______W7_i0"/>
        <use fill="#000000" height="17.5" transform="matrix(0.4746, 0.0, 0.0, 0.4746, 38.4, 21.0)" width="134.6" xlink:href="#font_______W7_n0"/>
        <use fill="#000000" height="17.5" transform="matrix(0.4746, 0.0, 0.0, 0.4746, 60.0, 21.0)" width="134.6" xlink:href="#font_______W7_D0"/>
        <use fill="#000000" height="17.5" transform="matrix(0.4746, 0.0, 0.0, 0.4746, 76.6, 21.0)" width="134.6" xlink:href="#font_______W7_o0"/>
        <use fill="#000000" height="17.5" transform="matrix(0.4746, 0.0, 0.0, 0.4746, 89.5, 21.0)" width="134.6" xlink:href="#font_______W7_c0"/>
        <use fill="#000000" height="17.5" transform="matrix(0.4746, 0.0, 0.0, 0.4746, 102.35, 21.0)" width="134.6" xlink:href="#font_______W7_t0"/>
        <use fill="#000000" height="17.5" transform="matrix(0.4746, 0.0, 0.0, 0.4746, 113.75, 21.0)" width="134.6" xlink:href="#font_______W7_o0"/>
        <use fill="#000000" height="17.5" transform="matrix(0.4746, 0.0, 0.0, 0.4746, 126.65, 21.0)" width="134.6" xlink:href="#font_______W7_r0"/>
      </g>
    </g>
    <g id="font_______W7_S0">
      <path d="M31.55 -9.25 L31.55 -9.25 Q31.55 -13.4 28.3 -15.85 25.95 -17.65 19.7 -19.75 10.7 -22.75 10.7 -24.2 10.7 -25.4 11.9 -26.1 13.0 -26.75 14.65 -26.75 21.7 -26.75 27.4 -23.2 L30.25 -27.8 Q24.05 -32.15 16.75 -32.15 11.9 -32.15 8.45 -30.45 4.0 -28.25 4.0 -23.9 4.0 -20.3 7.85 -18.05 9.4 -17.1 15.9 -14.75 23.85 -11.9 23.85 -10.1 23.85 -8.7 22.45 -7.9 21.25 -7.25 19.75 -7.25 15.9 -7.25 12.1 -9.95 8.85 -12.25 6.35 -15.9 L1.55 -6.1 Q4.85 -3.25 9.45 -1.6 14.1 0.05 18.65 0.05 23.45 0.05 27.15 -2.15 31.55 -4.75 31.55 -9.25" fill-rule="evenodd" stroke="none"/>
    </g>
    <g id="font_______W7_p0">
      <path d="M20.7 -12.7 L20.7 -12.7 Q20.7 -9.3 17.35 -9.3 14.95 -9.3 12.7 -12.0 L10.6 -8.4 10.05 -13.4 Q12.6 -16.55 16.2 -16.55 18.05 -16.55 19.35 -15.55 20.7 -14.5 20.7 -12.7 M27.8 -10.85 L27.8 -10.85 Q27.8 -15.55 24.6 -18.5 21.4 -21.45 16.7 -21.45 12.55 -21.45 9.35 -19.15 L9.2 -20.75 4.35 -21.45 2.05 4.75 11.95 3.3 11.35 -1.45 Q14.35 0.05 17.2 0.05 21.85 0.05 24.85 -3.05 27.8 -6.15 27.8 -10.85" fill-rule="evenodd" stroke="none"/>
    </g>
    <g id="font_______W7_i0">
      <path d="M11.6 -20.75 L11.6 -20.75 6.75 -21.45 4.45 0.05 14.3 -1.4 11.6 -20.75 M11.9 -31.5 L11.9 -31.5 6.5 -32.15 4.9 -24.95 13.2 -26.1 11.9 -31.5" fill-rule="evenodd" stroke="none"/>
    </g>
    <g id="font_______W7_n0">
      <path d="M27.0 -9.05 L27.0 -9.05 Q27.0 -14.5 24.65 -17.8 21.9 -21.45 16.6 -21.45 12.6 -21.45 9.45 -18.85 L9.2 -20.75 4.35 -21.45 2.05 0.05 11.95 -1.4 10.35 -12.55 Q12.95 -15.85 15.9 -15.85 19.4 -15.85 19.4 -10.6 19.4 -6.9 16.6 -1.3 L26.2 0.0 Q27.0 -6.5 27.0 -9.05" fill-rule="evenodd" stroke="none"/>
    </g>
    <g id="font_______W7_D0">
      <path d="M26.25 -17.9 L26.25 -17.9 Q26.25 -14.65 24.8 -12.6 23.1 -10.25 20.0 -10.25 16.6 -10.25 14.1 -12.65 L12.3 -9.6 10.95 -24.15 Q14.8 -25.95 17.05 -25.95 20.5 -25.95 23.3 -23.65 26.25 -21.25 26.25 -17.9 M33.4 -15.95 L33.4 -15.95 Q33.4 -22.6 29.35 -27.0 25.15 -31.55 18.55 -31.55 14.75 -31.55 10.4 -29.7 L10.25 -31.5 5.3 -32.15 2.55 0.05 13.15 -1.1 13.1 -1.6 Q15.65 -0.6 18.75 -0.6 25.45 -0.6 29.5 -4.95 33.4 -9.15 33.4 -15.95" fill-rule="evenodd" stroke="none"/>
    </g>
    <g id="font_______W7_o0">
      <path d="M15.8 -13.5 L15.8 -13.5 Q16.45 -11.85 16.45 -10.4 16.45 -6.85 12.35 -6.85 10.6 -6.85 9.35 -8.05 8.15 -9.35 8.15 -11.05 8.15 -13.25 9.8 -14.6 11.4 -16.0 13.7 -16.0 16.1 -16.0 18.3 -14.3 L15.8 -13.5 M25.7 -11.4 L25.7 -11.4 Q25.7 -13.8 24.75 -16.35 L21.25 -15.25 22.7 -17.2 Q18.35 -21.45 13.15 -21.45 8.45 -21.45 5.1 -18.2 1.8 -14.95 1.8 -10.3 1.8 -5.5 5.4 -2.65 8.65 0.05 13.65 0.05 18.75 0.05 22.2 -3.2 25.7 -6.4 25.7 -11.4" fill-rule="evenodd" stroke="none"/>
    </g>
    <g id="font_______W7_c0">
      <path d="M21.35 -12.5 L21.35 -12.5 Q19.95 -10.5 17.75 -9.15 15.35 -7.6 13.15 -7.6 11.4 -7.6 10.2 -8.85 8.9 -10.05 8.9 -11.8 8.9 -14.1 10.65 -15.4 12.2 -16.55 14.55 -16.55 18.9 -16.55 21.9 -13.7 L24.4 -17.55 Q19.65 -21.45 13.1 -21.45 8.05 -21.45 4.9 -18.4 1.8 -15.3 1.8 -10.3 1.8 -5.6 5.7 -2.65 9.25 0.05 14.1 0.05 17.2 0.05 20.45 -1.1 24.05 -2.3 25.9 -4.4 L21.35 -12.5" fill-rule="evenodd" stroke="none"/>
    </g>
    <g id="font_______W7_t0">
      <path d="M18.7 -12.2 L18.7 -12.2 Q17.0 -9.35 14.9 -9.35 11.95 -9.35 11.95 -15.4 L21.65 -15.4 20.1 -22.55 12.4 -21.45 Q12.75 -24.2 13.6 -27.95 L8.95 -28.85 Q7.75 -24.65 7.1 -20.75 L0.75 -19.9 1.75 -15.4 6.55 -15.4 6.5 -12.55 Q6.5 -6.8 7.75 -4.05 9.5 0.05 14.55 0.05 19.1 0.05 23.25 -4.15 L18.7 -12.2" fill-rule="evenodd" stroke="none"/>
    </g>
    <g id="font_______W7_r0">
      <path d="M18.3 -20.6 L18.3 -20.6 Q16.55 -21.45 14.75 -21.45 11.5 -21.45 8.7 -18.65 L8.45 -20.75 4.45 -21.45 2.55 0.05 10.65 -1.4 9.3 -12.8 Q10.55 -14.85 12.3 -14.85 13.25 -14.85 14.55 -13.85 L16.55 -12.05 18.3 -20.6" fill-rule="evenodd" stroke="none"/>
    </g>
    <g id="shape3" transform="matrix(1.0, 0.0, 0.0, 1.0, -11.65, 13.9)">
      <path d="M192.95 123.8 L211.55 193.3 205.6 282.8 186.8 292.8 32.15 292.8 17.75 285.9 11.65 215.45 39.25 123.5 45.8 119.4 58.85 111.0 68.5 104.4 Q67.3 100.55 64.75 95.35 L61.85 89.7 88.75 -8.35 134.0 -13.3 137.15 -13.9 166.3 100.2 161.9 104.5 Q157.95 108.45 155.2 112.65 L168.95 116.95 185.2 121.6 192.95 123.8 M20.2 269.3 L21.3 282.35 33.85 290.0 184.9 290.0 199.75 279.55 205.45 194.05 203.8 188.75 184.9 128.45 149.6 115.95 159.85 98.25 153.3 72.35 152.65 72.55 153.25 72.35 132.6 -9.45 91.45 -4.95 68.05 89.7 68.95 93.25 72.05 105.65 47.55 125.05 15.65 216.25 20.2 269.3 M117.65 6.9 L126.05 -1.9 126.05 0.25 117.6 9.15 117.6 6.9 117.65 6.9 M129.25 3.4 Q129.4 5.35 128.95 7.1 127.9 10.75 124.25 11.5 121.75 12.15 119.6 10.7 L119.6 8.65 Q121.1 9.5 122.9 9.55 128.7 9.0 129.25 3.4 M83.75 79.25 Q84.15 81.6 82.95 83.3 L82.0 84.35 Q79.4 85.95 77.0 83.85 L76.1 82.85 75.6 81.45 75.45 79.7 Q75.55 80.6 76.05 81.35 76.25 79.45 77.45 77.6 L78.9 76.45 81.55 75.55 82.9 76.65 Q83.1 77.6 82.75 78.8 82.45 79.85 81.6 80.7 79.5 82.5 76.75 82.05 77.9 83.1 79.55 83.1 83.35 82.8 83.75 79.25 M80.0 114.05 L80.0 116.2 71.5 125.1 71.5 122.85 71.55 122.85 80.0 114.05 M83.15 119.35 Q83.4 121.2 82.9 123.1 82.55 124.8 81.15 125.85 L79.3 127.0 Q76.3 128.35 73.5 126.65 L73.5 124.6 Q75.0 125.45 76.8 125.5 82.65 124.95 83.15 119.35 M182.05 276.25 L182.1 276.3 182.05 276.3 182.05 276.25 M182.1 276.25 L182.1 274.05 190.55 265.25 190.55 267.4 182.1 276.25 M184.05 277.85 L184.05 275.8 Q185.55 276.65 187.35 276.7 193.2 276.15 193.7 270.55 L193.4 274.3 Q193.1 276.0 191.75 277.15 189.95 278.8 187.35 278.8 185.6 278.9 184.05 277.85 M36.55 273.8 Q36.85 275.55 36.5 277.0 36.1 278.95 34.15 279.65 31.3 280.9 29.3 278.6 28.5 277.65 28.45 276.55 L28.3 274.8 28.95 276.45 29.55 277.15 Q32.0 279.05 34.7 277.5 36.6 276.25 36.55 273.8 M198.05 203.85 Q198.55 206.4 197.3 208.45 L196.35 209.45 Q193.7 211.15 191.35 209.1 L190.45 208.05 Q189.95 207.25 189.85 206.2 L189.8 204.85 Q189.9 205.75 190.45 206.55 L191.15 207.3 Q193.65 209.25 196.2 207.55 198.15 206.3 198.05 203.85 M191.85 202.8 L191.65 203.05 191.8 202.8 191.85 202.8" fill="#47525f" fill-rule="evenodd" stroke="none"/>
      <path d="M20.2 269.3 L15.65 216.25 47.55 125.05 72.05 105.65 68.95 93.25 152.65 72.55 153.3 72.35 159.85 98.25 149.6 115.95 184.9 128.45 203.8 188.75 20.2 269.3 M126.9 0.95 L128.0 -0.2 Q128.45 2.65 126.9 5.4 L125.75 6.85 Q123.05 8.85 119.6 8.65 L126.9 0.95 M80.0 114.05 L79.6 113.75 79.3 113.85 79.55 113.75 Q76.15 112.2 73.1 114.3 70.55 116.15 70.25 119.45 L70.25 121.95 Q70.3 123.65 71.5 125.1 L73.5 126.65 Q76.3 128.35 79.3 127.0 L81.15 125.85 Q82.55 124.8 82.9 123.1 83.4 121.2 83.15 119.35 83.3 117.85 82.5 116.5 L81.95 115.75 Q82.25 117.15 81.9 118.7 81.4 120.7 80.35 122.3 79.6 123.4 78.35 123.9 L73.5 124.6 80.85 116.9 80.0 116.2 80.0 114.05 M74.8 116.35 Q73.4 117.55 72.6 118.7 L73.45 117.6 74.8 116.35 M71.35 121.15 L71.25 121.5 71.25 121.45 71.35 121.15 M71.5 122.8 L71.55 122.85 71.5 122.85 71.5 122.8 M184.05 275.8 L191.4 268.1 192.5 266.95 192.5 268.7 Q192.45 270.5 191.65 272.25 190.25 275.3 186.9 275.6 L184.05 275.8" fill="#bab9ba" fill-rule="evenodd" stroke="none"/>
      <path d="M203.8 188.75 L205.45 194.05 199.75 279.55 184.9 290.0 33.85 290.0 21.3 282.35 20.2 269.3 203.8 188.75 M68.95 93.25 L68.05 89.7 91.45 -4.95 132.6 -9.45 153.25 72.35 152.65 72.55 68.95 93.25 M126.05 -1.9 L125.7 -2.2 125.45 -2.15 125.65 -2.2 123.5 -2.85 Q121.2 -3.0 119.15 -1.65 116.65 0.15 116.3 3.45 L116.3 5.95 Q116.1 6.7 117.6 9.15 L119.6 10.7 Q121.75 12.15 124.25 11.5 127.9 10.75 128.95 7.1 129.4 5.35 129.25 3.4 L129.25 3.15 Q129.2 1.25 128.0 -0.2 L126.9 0.95 126.05 0.25 126.05 -1.9 M117.35 5.3 L117.3 5.5 117.3 5.45 117.35 5.3 M117.6 6.85 L117.65 6.9 117.6 6.9 117.6 6.85 M75.45 79.7 L75.6 81.45 76.1 82.85 77.0 83.85 Q79.4 85.95 82.0 84.35 L82.95 83.3 Q84.15 81.6 83.75 79.25 L82.9 76.65 81.55 75.55 Q80.15 74.9 78.7 75.2 77.5 75.5 76.7 76.35 75.3 77.7 75.45 79.7 M180.85 271.05 L180.85 273.15 Q180.6 273.95 182.05 276.25 L182.05 276.3 182.1 276.35 184.05 277.85 Q185.6 278.9 187.35 278.8 189.95 278.8 191.75 277.15 193.1 276.0 193.4 274.3 L193.7 270.55 193.7 270.35 Q193.65 268.4 192.5 266.95 L191.4 268.1 190.55 267.4 190.55 265.25 190.15 265.0 Q188.55 265.35 185.55 267.35 182.2 270.3 181.8 272.6 L181.8 272.55 Q182.25 270.2 185.5 267.35 188.55 265.35 190.1 265.0 188.8 264.25 187.15 264.25 181.5 265.0 180.8 270.4 L180.85 271.05 M35.7 271.75 Q35.15 271.05 34.4 270.65 L31.6 270.35 Q30.35 270.6 29.6 271.45 28.25 273.0 28.3 274.8 L28.45 276.55 Q28.5 277.65 29.3 278.6 31.3 280.9 34.15 279.65 36.1 278.95 36.5 277.0 36.85 275.55 36.55 273.8 36.45 272.65 35.7 271.75 M198.05 203.85 L197.2 201.9 195.9 200.75 Q194.2 200.95 192.6 202.05 193.95 201.0 195.9 200.7 193.25 199.6 191.05 201.5 189.55 202.95 189.8 204.85 L189.85 206.2 Q189.95 207.25 190.45 208.05 L191.35 209.1 Q193.7 211.15 196.35 209.45 L197.3 208.45 Q198.55 206.4 198.05 203.85 M191.95 202.65 L191.85 202.8 191.8 202.8 191.95 202.65" fill="#9c9c9c" fill-rule="evenodd" stroke="none"/>
      <path d="M126.05 0.25 L126.9 0.95 119.6 8.65 119.6 10.7 117.6 9.15 126.05 0.25 M80.0 116.2 L80.85 116.9 73.5 124.6 73.5 126.65 71.5 125.1 80.0 116.2 M182.1 276.3 L182.1 276.35 182.1 276.25 190.55 267.4 191.4 268.1 184.05 275.8 184.05 277.85 182.1 276.35 182.05 276.3 182.1 276.3" fill="#57565b" fill-rule="evenodd" stroke="none"/>
      <path d="M117.3 5.5 L117.25 6.35 117.6 6.85 117.6 6.9 117.6 9.15 Q116.1 6.7 116.3 5.95 L116.3 3.45 Q116.4 4.95 117.2 6.35 L117.3 5.45 117.3 5.5 M71.5 125.1 Q70.3 123.65 70.25 121.95 L70.25 119.45 Q70.35 121.0 71.15 122.3 L71.25 121.45 71.25 121.5 71.2 122.3 71.5 122.8 71.5 122.85 71.5 125.1 M180.85 271.05 Q181.0 272.35 181.7 273.5 L181.8 272.55 181.8 272.6 181.75 273.5 182.1 274.05 182.1 276.25 182.1 276.35 182.1 276.3 182.05 276.25 Q180.6 273.95 180.85 273.15 L180.85 271.05" fill="#79818b" fill-rule="evenodd" stroke="none"/>
      <path d="M125.45 -2.15 L125.7 -2.2 126.05 -1.9 117.65 6.9 117.6 6.85 117.25 6.35 117.3 5.5 117.35 5.3 Q118.3 2.9 120.0 1.2 L121.1 0.2 124.9 -1.9 125.35 -2.1 125.45 -2.15 M79.3 113.85 L79.6 113.75 80.0 114.05 71.55 122.85 71.5 122.8 71.2 122.3 71.25 121.5 71.35 121.15 Q71.6 119.95 72.6 118.7 73.4 117.55 74.8 116.35 L75.0 116.15 75.1 116.1 78.7 114.1 79.3 113.85 M182.1 274.05 L181.75 273.5 181.8 272.6 Q182.2 270.3 185.55 267.35 188.55 265.35 190.15 265.0 L190.55 265.25 182.1 274.05 M34.4 270.65 Q35.15 271.05 35.7 271.75 35.85 273.95 34.4 275.35 L32.7 276.7 Q31.1 277.5 29.55 277.15 L28.95 276.45 Q28.95 274.05 30.5 272.35 32.1 270.65 34.4 270.65 M192.6 202.05 Q194.2 200.95 195.9 200.75 L197.2 201.9 196.9 203.85 Q196.5 205.5 195.2 206.25 193.15 207.45 191.15 207.3 L190.45 206.55 191.35 203.65 191.65 203.05 191.85 202.8 191.95 202.65 192.05 202.45 192.6 202.05" fill="#d0cfd0" fill-rule="evenodd" stroke="none"/>
      <path d="M125.45 -2.15 L125.35 -2.1 124.9 -1.9 121.1 0.2 120.0 1.2 Q118.3 2.9 117.35 5.3 L117.3 5.45 117.2 6.35 Q116.4 4.95 116.3 3.45 116.65 0.15 119.15 -1.65 121.2 -3.0 123.5 -2.85 L125.65 -2.2 125.45 -2.15 M75.45 79.7 Q75.3 77.7 76.7 76.35 77.5 75.5 78.7 75.2 80.15 74.9 81.55 75.55 L78.9 76.45 77.45 77.6 Q76.25 79.45 76.05 81.35 75.55 80.6 75.45 79.7 M70.25 119.45 Q70.55 116.15 73.1 114.3 76.15 112.2 79.55 113.75 L79.3 113.85 78.7 114.1 75.1 116.1 75.0 116.15 74.8 116.35 73.45 117.6 72.6 118.7 Q71.6 119.95 71.35 121.15 L71.25 121.45 71.15 122.3 Q70.35 121.0 70.25 119.45 M181.8 272.55 L181.7 273.5 Q181.0 272.35 180.85 271.05 L180.8 270.4 Q181.5 265.0 187.15 264.25 188.8 264.25 190.1 265.0 188.55 265.35 185.5 267.35 182.25 270.2 181.8 272.55 M28.3 274.8 Q28.25 273.0 29.6 271.45 30.35 270.6 31.6 270.35 L34.4 270.65 Q32.1 270.65 30.5 272.35 28.95 274.05 28.95 276.45 L28.3 274.8 M189.8 204.85 Q189.55 202.95 191.05 201.5 193.25 199.6 195.9 200.7 193.95 201.0 192.6 202.05 L192.05 202.45 191.95 202.65 191.8 202.8 191.65 203.05 191.35 203.65 190.45 206.55 Q189.9 205.75 189.8 204.85" fill="#e9e9eb" fill-rule="evenodd" stroke="none"/>
      <path d="M128.0 -0.2 Q129.2 1.25 129.25 3.15 L129.25 3.4 Q128.7 9.0 122.9 9.55 121.1 9.5 119.6 8.65 123.05 8.85 125.75 6.85 L126.9 5.4 Q128.45 2.65 128.0 -0.2 M82.9 76.65 L83.75 79.25 Q83.35 82.8 79.55 83.1 77.9 83.1 76.75 82.05 79.5 82.5 81.6 80.7 82.45 79.85 82.75 78.8 83.1 77.6 82.9 76.65 M73.5 124.6 L78.35 123.9 Q79.6 123.4 80.35 122.3 81.4 120.7 81.9 118.7 82.25 117.15 81.95 115.75 L82.5 116.5 Q83.3 117.85 83.15 119.35 82.65 124.95 76.8 125.5 75.0 125.45 73.5 124.6 M35.7 271.75 Q36.45 272.65 36.55 273.8 36.6 276.25 34.7 277.5 32.0 279.05 29.55 277.15 31.1 277.5 32.7 276.7 L34.4 275.35 Q35.85 273.95 35.7 271.75 M197.2 201.9 L198.05 203.85 Q198.15 206.3 196.2 207.55 193.65 209.25 191.15 207.3 193.15 207.45 195.2 206.25 196.5 205.5 196.9 203.85 L197.2 201.9 M192.5 266.95 Q193.65 268.4 193.7 270.35 L193.7 270.55 Q193.2 276.15 187.35 276.7 185.55 276.65 184.05 275.8 L186.9 275.6 Q190.25 275.3 191.65 272.25 192.45 270.5 192.5 268.7 L192.5 266.95" fill="#b0aeb3" fill-rule="evenodd" stroke="none"/>
    </g>
    <g id="shape4" transform="matrix(1.0, 0.0, 0.0, 1.0, 1.5, 1.2)">
      <path d="M91.2 25.55 L90.3 21.95 95.05 25.6 91.2 25.55 M99.0 42.5 L97.7 41.55 81.7 49.15 80.5 51.75 Q83.0 56.35 87.05 59.8 L86.5 59.7 86.0 60.0 85.65 60.35 85.55 60.7 Q85.85 62.55 85.15 64.35 L81.2 65.3 Q75.35 66.65 69.65 64.35 L67.9 61.3 67.35 61.4 66.9 61.55 66.6 61.85 Q65.95 62.65 66.2 63.95 63.7 68.0 60.4 71.55 55.9 76.4 53.95 82.7 51.6 90.1 54.25 97.85 55.0 100.05 57.15 99.35 57.45 96.6 58.85 94.4 61.7 89.9 65.25 86.3 70.05 81.5 76.75 81.35 88.4 81.05 95.3 90.9 96.1 92.05 95.95 93.4 95.65 96.65 95.9 99.75 L97.5 99.75 Q99.35 96.95 100.7 93.6 103.7 86.2 98.45 79.7 91.25 70.75 87.55 60.1 L88.45 60.75 Q91.1 62.65 94.15 61.8 L94.2 60.95 94.05 60.95 91.35 59.95 90.05 59.5 Q86.85 57.7 84.85 54.7 L94.3 54.15 94.85 53.25 94.7 51.95 93.95 51.45 82.75 51.95 98.1 44.1 Q99.15 43.55 99.0 42.5 M98.25 38.25 L109.25 84.25 98.45 104.45 97.65 104.3 96.9 104.6 96.45 105.2 90.05 107.45 88.5 106.45 79.0 111.0 Q67.5 109.3 56.95 104.8 L43.1 83.3 55.1 37.4 57.5 37.45 60.2 41.2 Q66.15 48.4 75.45 47.6 84.55 46.45 89.1 38.1 L98.25 38.25 M87.5 66.3 Q96.6 76.15 99.6 88.9 100.0 90.55 99.55 92.4 93.25 79.75 79.1 78.55 75.15 78.6 71.5 80.4 61.1 85.3 54.9 94.9 51.7 82.8 60.0 73.7 L67.1 65.75 Q76.3 71.8 86.15 67.05 L87.5 66.3 M55.15 45.95 L68.6 52.0 68.05 51.85 Q62.8 50.8 60.15 53.45 L60.85 54.4 68.15 54.85 Q67.65 56.7 65.85 57.5 L64.8 57.95 Q61.6 59.4 58.0 59.25 L57.5 59.85 57.75 60.9 Q64.05 61.8 68.45 57.6 70.8 55.35 70.65 51.95 L71.2 50.4 Q63.95 45.8 55.35 43.4 L54.4 44.65 55.15 45.95 M128.85 242.85 L128.05 243.15 127.55 250.25 122.4 250.95 116.45 243.95 116.8 238.3 124.95 228.15 133.8 228.8 143.25 238.0 142.25 256.55 126.05 262.4 112.3 253.05 113.15 247.35 115.1 247.05 Q120.45 253.65 128.7 253.1 L129.05 254.0 130.05 254.55 131.45 253.6 130.35 244.35 Q130.35 243.4 129.5 243.05 L128.85 242.85 M12.35 226.55 L21.6 224.4 34.45 236.5 Q34.2 244.1 29.5 250.0 L20.65 248.7 Q20.55 246.0 21.3 243.65 21.6 242.65 20.95 241.95 L20.65 241.65 18.8 242.15 Q16.55 246.5 18.4 250.75 L18.85 251.7 30.5 253.1 34.55 247.45 35.2 247.7 36.2 254.7 28.55 261.6 4.35 253.0 5.05 236.85 12.35 226.55" fill="#d1ede0" fill-rule="evenodd" stroke="none"/>
      <path d="M88.1 17.7 Q83.5 10.9 75.4 9.95 67.1 9.15 61.0 15.05 L64.5 1.55 89.65 2.4 94.15 21.0 Q91.35 18.85 88.1 17.7 M41.4 132.75 L41.65 134.25 69.4 168.25 61.6 185.1 60.0 264.6 37.05 264.4 36.8 258.25 39.05 256.2 39.0 255.1 38.6 250.8 38.0 246.45 37.9 246.15 37.7 245.8 37.1 245.4 Q36.6 245.05 36.1 244.85 L37.0 239.9 37.3 237.9 37.35 236.9 37.3 235.85 37.15 235.4 35.1 233.05 28.45 153.65 20.65 139.25 19.25 140.25 25.5 154.15 31.85 229.9 22.05 221.35 11.1 223.75 10.75 224.05 7.25 228.7 3.8 233.4 1.5 217.05 4.5 175.7 20.2 122.9 34.5 117.15 50.05 125.9 41.4 132.75 M53.8 124.95 L38.05 115.7 54.6 108.95 71.95 162.8 70.8 165.25 44.95 133.6 54.15 126.1 Q54.65 125.45 53.8 124.95 M72.05 153.3 L77.45 149.9 73.75 158.65 72.05 153.3 M71.1 150.35 L70.85 149.6 71.45 150.15 71.1 150.35 M74.95 163.5 L98.6 107.8 Q103.75 110.2 108.9 112.55 L94.15 127.7 Q93.7 128.1 94.0 128.8 L94.25 129.25 100.95 133.5 70.3 173.35 74.95 163.5 M128.45 129.05 Q124.5 135.95 121.05 143.55 L117.0 233.3 Q113.65 238.2 113.4 244.25 L110.55 245.25 109.25 253.95 114.45 258.15 113.8 264.4 63.0 264.45 64.6 185.7 104.35 134.05 104.5 132.65 97.7 128.0 111.8 113.9 133.75 123.95 143.7 180.8 142.35 233.0 134.55 225.85 131.4 225.85 125.15 226.85 Q122.15 227.25 120.15 229.35 L124.05 144.0 Q127.4 137.15 129.6 130.1 L128.45 129.05" fill="#3a3d6a" fill-rule="evenodd" stroke="none"/>
      <path d="M84.05 40.05 Q79.65 44.7 73.45 44.7 67.25 44.7 62.85 40.05 58.45 35.35 58.45 28.7 58.45 22.05 62.85 17.4 67.25 12.7 73.45 12.7 79.65 12.7 84.05 17.4 88.45 22.05 88.45 28.7 88.45 35.35 84.05 40.05 M68.25 28.8 Q68.65 33.85 72.8 34.3 77.0 33.85 77.4 28.8 77.0 23.75 72.8 23.3 68.65 23.8 68.25 28.8" fill="#ffffff" fill-rule="evenodd" stroke="none"/>
      <path d="M95.9 28.6 L97.5 35.25 90.4 35.1 91.45 28.7 95.9 28.6" fill="#96a0ce" fill-rule="evenodd" stroke="none"/>
      <path d="M105.8 57.05 L105.45 55.6 Q106.05 54.75 106.25 53.55 L105.8 57.05" fill="#47525f" fill-rule="evenodd" stroke="none"/>
      <path d="M105.0 53.6 L104.1 49.9 104.25 49.85 Q104.95 50.25 105.5 50.9 L105.0 53.6" fill="#d0cfd0" fill-rule="evenodd" stroke="none"/>
      <path d="M105.45 55.6 L105.0 53.6 105.5 50.9 106.25 53.55 Q106.05 54.75 105.45 55.6" fill="#b0aeb3" fill-rule="evenodd" stroke="none"/>
      <path d="M104.1 49.9 L104.05 49.75 104.25 49.85 104.1 49.9" fill="#e9e9eb" fill-rule="evenodd" stroke="none"/>
      <path d="M68.25 28.8 Q68.65 23.8 72.8 23.3 77.0 23.75 77.4 28.8 77.0 33.85 72.8 34.3 68.65 33.85 68.25 28.8" fill="#000000" fill-rule="evenodd" stroke="none"/>
      <path d="M71.35 121.55 L65.95 124.4 65.6 111.9 71.6 113.45 71.35 121.55 M74.4 121.0 L74.55 113.85 77.75 113.95 77.45 120.65 74.4 121.0 M80.8 113.4 L86.85 110.25 85.5 126.35 80.4 121.4 80.8 113.4" fill="#990000" fill-rule="evenodd" stroke="none"/>
      <path d="M61.95 122.0 L58.05 108.55 62.55 110.4 62.85 121.5 61.95 122.0 M65.2 128.2 L78.35 123.6 85.65 130.7 79.55 145.0 74.1 148.5 Q66.85 139.75 64.2 128.35 L65.2 128.2 M89.05 119.9 L89.85 110.7 94.85 108.9 90.1 120.25 89.05 119.9" fill="#d7dcec" fill-rule="evenodd" stroke="none"/>
      <path d="M105.8 57.05 L112.35 84.65 101.25 105.7 135.7 121.55 136.55 122.65 146.7 180.45 145.3 235.85 146.1 236.85 144.65 258.85 125.3 265.5 117.3 260.1 116.55 266.55 115.2 267.35 75.6 267.75 35.6 267.35 34.2 266.2 33.9 260.85 29.55 264.7 1.9 254.95 Q1.45 235.8 -1.5 216.9 L1.5 175.3 17.55 121.35 Q35.8 113.65 54.05 105.9 L40.0 83.2 62.45 -1.2 90.85 -0.6 Q94.2 7.25 96.2 15.7 L104.05 49.75 104.1 49.9 105.0 53.6 105.45 55.6 105.8 57.05 M88.1 17.7 Q91.35 18.85 94.15 21.0 L89.65 2.4 64.5 1.55 61.0 15.05 Q67.1 9.15 75.4 9.95 83.5 10.9 88.1 17.7 M95.9 28.6 L91.45 28.7 90.4 35.1 97.5 35.25 95.9 28.6 M98.25 38.25 L89.1 38.1 Q84.55 46.45 75.45 47.6 66.15 48.4 60.2 41.2 L57.5 37.45 55.1 37.4 43.1 83.3 56.95 104.8 Q67.5 109.3 79.0 111.0 L88.5 106.45 90.05 107.45 96.45 105.2 96.9 104.6 97.65 104.3 98.45 104.45 109.25 84.25 98.25 38.25 M99.0 42.5 Q99.15 43.55 98.1 44.1 L82.75 51.95 93.95 51.45 94.7 51.95 94.85 53.25 94.3 54.15 84.85 54.7 Q86.85 57.7 90.05 59.5 L91.35 59.95 94.05 60.95 94.2 60.95 94.15 61.8 Q91.1 62.65 88.45 60.75 L87.55 60.1 Q91.25 70.75 98.45 79.7 103.7 86.2 100.7 93.6 99.35 96.95 97.5 99.75 L95.9 99.75 Q95.65 96.65 95.95 93.4 96.1 92.05 95.3 90.9 88.4 81.05 76.75 81.35 70.05 81.5 65.25 86.3 61.7 89.9 58.85 94.4 57.45 96.6 57.15 99.35 55.0 100.05 54.25 97.85 51.6 90.1 53.95 82.7 55.9 76.4 60.4 71.55 63.7 68.0 66.2 63.95 65.95 62.65 66.6 61.85 L66.9 61.55 67.35 61.4 67.9 61.3 69.65 64.35 Q75.35 66.65 81.2 65.3 L85.15 64.35 Q85.85 62.55 85.55 60.7 L85.65 60.35 86.0 60.0 86.5 59.7 87.05 59.8 Q83.0 56.35 80.5 51.75 L81.7 49.15 97.7 41.55 99.0 42.5 M91.2 25.55 L95.05 25.6 90.3 21.95 91.2 25.55 M84.05 40.05 Q88.45 35.35 88.45 28.7 88.45 22.05 84.05 17.4 79.65 12.7 73.45 12.7 67.25 12.7 62.85 17.4 58.45 22.05 58.45 28.7 58.45 35.35 62.85 40.05 67.25 44.7 73.45 44.7 79.65 44.7 84.05 40.05 M55.15 45.95 L54.4 44.65 55.35 43.4 Q63.95 45.8 71.2 50.4 L70.65 51.95 Q70.8 55.35 68.45 57.6 64.05 61.8 57.75 60.9 L57.5 59.85 58.0 59.25 Q61.6 59.4 64.8 57.95 L65.85 57.5 Q67.65 56.7 68.15 54.85 L60.85 54.4 60.15 53.45 Q62.8 50.8 68.05 51.85 L68.6 52.0 55.15 45.95 M87.5 66.3 L86.15 67.05 Q76.3 71.8 67.1 65.75 L60.0 73.7 Q51.7 82.8 54.9 94.9 61.1 85.3 71.5 80.4 75.15 78.6 79.1 78.55 93.25 79.75 99.55 92.4 100.0 90.55 99.6 88.9 96.6 76.15 87.5 66.3 M56.3 34.4 L56.15 33.75 55.95 34.4 56.3 34.4 M61.95 122.0 L62.85 121.5 62.55 110.4 58.05 108.55 61.95 122.0 M80.8 113.4 L80.4 121.4 85.5 126.35 86.85 110.25 80.8 113.4 M74.4 121.0 L77.45 120.65 77.75 113.95 74.55 113.85 74.4 121.0 M71.35 121.55 L71.6 113.45 65.6 111.9 65.95 124.4 71.35 121.55 M53.8 124.95 Q54.65 125.45 54.15 126.1 L44.95 133.6 70.8 165.25 71.95 162.8 54.6 108.95 38.05 115.7 53.8 124.95 M41.4 132.75 L50.05 125.9 34.5 117.15 20.2 122.9 4.5 175.7 1.5 217.05 3.8 233.4 7.25 228.7 10.75 224.05 11.1 223.75 22.05 221.35 31.85 229.9 25.5 154.15 19.25 140.25 20.65 139.25 28.45 153.65 35.1 233.05 37.15 235.4 37.3 235.85 37.35 236.9 37.3 237.9 37.0 239.9 36.1 244.85 Q36.6 245.05 37.1 245.4 L37.7 245.8 37.9 246.15 38.0 246.45 38.6 250.8 39.0 255.1 39.05 256.2 36.8 258.25 37.05 264.4 60.0 264.6 61.6 185.1 69.4 168.25 41.65 134.25 41.4 132.75 M65.2 128.2 L64.2 128.35 Q66.85 139.75 74.1 148.5 L79.55 145.0 85.65 130.7 78.35 123.6 65.2 128.2 M128.45 129.05 L129.6 130.1 Q127.4 137.15 124.05 144.0 L120.15 229.35 Q122.15 227.25 125.15 226.85 L131.4 225.85 134.55 225.85 142.35 233.0 143.7 180.8 133.75 123.95 111.8 113.9 97.7 128.0 104.5 132.65 104.35 134.05 64.6 185.7 63.0 264.45 113.8 264.4 114.45 258.15 109.25 253.95 110.55 245.25 113.4 244.25 Q113.65 238.2 117.0 233.3 L121.05 143.55 Q124.5 135.95 128.45 129.05 M74.95 163.5 L70.3 173.35 100.95 133.5 94.25 129.25 94.0 128.8 Q93.7 128.1 94.15 127.7 L108.9 112.55 Q103.75 110.2 98.6 107.8 L74.95 163.5 M71.1 150.35 L71.45 150.15 70.85 149.6 71.1 150.35 M72.05 153.3 L73.75 158.65 77.45 149.9 72.05 153.3 M89.05 119.9 L90.1 120.25 94.85 108.9 89.85 110.7 89.05 119.9 M12.35 226.55 L5.05 236.85 4.35 253.0 28.55 261.6 36.2 254.7 35.2 247.7 34.55 247.45 30.5 253.1 18.85 251.7 18.4 250.75 Q16.55 246.5 18.8 242.15 L20.65 241.65 20.95 241.95 Q21.6 242.65 21.3 243.65 20.55 246.0 20.65 248.7 L29.5 250.0 Q34.2 244.1 34.45 236.5 L21.6 224.4 12.35 226.55 M128.85 242.85 L129.5 243.05 Q130.35 243.4 130.35 244.35 L131.45 253.6 130.05 254.55 129.05 254.0 128.7 253.1 Q120.45 253.65 115.1 247.05 L113.15 247.35 112.3 253.05 126.05 262.4 142.25 256.55 143.25 238.0 133.8 228.8 124.95 228.15 116.8 238.3 116.45 243.95 122.4 250.95 127.55 250.25 128.05 243.15 128.85 242.85" fill="#1a1a1a" fill-rule="evenodd" stroke="none"/>
    </g>
    <g id="shape5" transform="matrix(1.0, 0.0, 0.0, 1.0, -0.05, 0.0)">
      <path d="M40.95 2.45 L41.9 2.8 Q42.4 1.4 44.05 1.25 46.25 1.45 46.45 3.8 L46.45 6.35 48.8 8.45 Q56.9 16.5 57.2 28.65 56.85 40.75 48.8 48.85 42.05 55.65 32.45 56.95 L32.05 57.95 Q31.35 59.0 29.8 59.15 28.3 59.0 27.6 58.05 L27.2 57.2 Q16.0 56.45 8.4 48.85 3.45 43.9 1.4 37.45 -0.45 31.7 0.25 25.75 1.75 13.25 11.8 5.55 L12.4 3.05 Q13.25 0.65 15.6 1.55 16.3 1.85 16.4 2.8 L17.0 2.55 Q21.85 0.45 27.2 0.1 33.95 0.0 40.1 2.5 L40.95 2.45 M40.75 9.5 L41.65 9.15 41.65 3.8 40.95 3.4 Q39.9 3.3 39.45 4.1 L39.5 20.75 40.05 21.3 41.6 21.05 41.65 14.2 41.0 13.95 Q39.6 13.25 39.65 11.65 39.65 10.3 40.75 9.5 M43.6 13.8 L42.65 14.2 Q42.3 22.35 43.9 21.75 L44.95 21.3 44.95 2.65 Q44.35 2.05 43.6 2.4 42.9 2.55 42.75 3.3 L42.65 9.15 43.55 9.5 Q44.2 9.85 44.5 10.65 L44.55 12.55 Q44.25 13.35 43.6 13.8 M42.85 10.1 L41.65 10.1 43.85 12.05 42.85 10.1 M40.75 10.9 L40.5 11.65 Q40.7 13.2 42.15 13.3 L42.65 13.2 40.75 10.9 M33.35 54.6 L33.1 55.4 Q42.4 53.9 48.75 46.85 56.75 37.95 55.55 25.9 54.45 15.35 46.45 8.2 L46.45 9.2 46.45 11.55 Q53.05 18.45 53.3 28.6 53.05 39.1 46.05 46.1 40.85 51.3 33.75 52.75 L33.35 54.6 M34.15 50.65 L34.05 51.35 Q40.4 49.85 45.1 45.15 51.7 38.55 51.95 28.6 51.75 19.75 46.45 13.6 L46.45 14.6 Q46.75 17.8 46.0 20.7 45.25 23.6 42.2 21.75 L41.45 22.0 Q39.2 22.8 38.3 20.55 L33.3 21.2 33.3 23.05 33.95 23.4 Q35.1 23.95 34.9 25.15 L34.35 26.45 32.4 27.25 32.4 29.2 33.85 30.25 33.95 31.8 32.3 32.9 Q34.1 41.75 34.15 50.65 M38.25 4.0 L38.65 3.4 Q29.1 -0.05 19.35 3.1 L19.75 3.6 20.0 4.15 Q29.1 3.05 38.25 4.0 M25.35 51.1 L25.1 48.35 Q25.25 40.65 27.35 32.9 26.65 32.65 26.2 32.25 24.7 30.8 26.4 29.55 L26.9 29.2 26.9 27.25 Q25.3 27.3 24.75 25.95 L24.5 24.95 Q24.55 24.05 25.5 23.4 L26.0 23.05 26.0 21.35 19.95 20.65 Q19.2 22.95 16.85 21.95 L16.1 21.7 Q15.1 23.2 13.3 22.4 12.1 22.0 12.05 20.75 L11.8 13.3 11.8 12.35 Q5.45 18.9 5.2 28.6 5.45 38.55 12.05 45.15 17.6 50.7 25.5 51.75 L25.35 51.1 M16.8 15.6 L16.5 20.75 17.35 21.35 Q18.95 21.55 19.0 19.95 19.1 12.15 18.85 4.35 L18.65 3.7 17.7 3.35 16.6 3.85 16.95 9.95 Q17.9 10.35 18.3 11.4 L18.35 13.15 16.85 14.9 16.8 15.6 M38.2 19.4 L38.2 5.0 Q29.6 4.0 20.9 5.1 L20.0 5.2 20.1 19.4 Q29.1 21.65 38.2 19.4 M33.5 24.4 Q33.3 23.9 32.85 23.9 L27.1 23.4 Q24.95 24.0 26.25 25.85 L26.9 26.45 32.3 26.4 Q33.3 26.4 33.55 25.55 33.7 24.95 33.5 24.4 M27.15 21.35 L27.15 22.95 32.0 22.95 32.0 21.35 27.15 21.35 M15.1 9.8 L15.65 9.7 15.35 3.25 14.95 2.65 14.2 2.25 Q12.95 2.6 12.95 4.0 L13.1 20.6 Q13.1 21.5 14.2 21.7 15.6 21.55 15.55 20.15 L15.3 15.05 Q13.7 14.6 13.35 13.25 L13.3 11.85 Q13.6 10.25 15.1 9.8 M26.35 54.95 L25.85 53.15 Q17.2 52.25 11.1 46.1 3.0 37.75 4.15 26.1 5.05 16.85 11.8 10.5 L11.8 8.1 11.8 7.3 Q2.9 14.65 1.7 25.95 0.55 37.1 7.7 45.9 15.0 54.85 26.6 55.7 L26.35 54.95 M17.25 11.6 L16.6 10.8 15.15 10.8 17.3 13.05 17.25 11.6 M14.45 11.5 L14.2 12.25 Q14.3 13.7 15.85 13.9 L16.6 13.7 14.45 11.5 M27.3 30.4 L26.75 31.15 27.3 32.2 32.6 31.95 32.8 30.9 32.4 30.15 31.05 30.2 27.3 30.4 M31.25 29.1 L31.25 27.25 28.2 27.25 28.3 29.1 31.25 29.1 M32.6 42.15 Q32.15 37.5 31.2 32.9 L28.45 32.9 27.2 39.55 Q26.25 45.2 26.95 51.0 L27.15 52.3 27.15 52.25 Q27.35 49.85 29.75 49.65 31.9 49.85 32.3 51.85 33.05 47.05 32.6 42.15 M30.7 58.1 L32.0 53.55 Q31.35 54.95 29.75 54.85 27.85 54.65 27.35 53.05 L28.65 57.7 30.7 58.1 M29.0 53.7 L29.75 53.95 Q31.9 53.5 31.2 51.5 L29.0 53.7 M29.75 50.6 Q28.25 50.75 28.1 52.25 L28.35 53.05 30.55 50.85 29.75 50.6" fill="#212753" fill-rule="evenodd" stroke="none"/>
      <path d="M40.95 2.45 L40.1 2.5 Q33.95 0.0 27.2 0.1 L29.2 0.0 Q35.6 0.15 40.95 2.45 M46.45 9.2 L46.45 8.2 Q54.45 15.35 55.55 25.9 56.75 37.95 48.75 46.85 42.4 53.9 33.1 55.4 L33.35 54.6 Q44.1 52.5 50.45 43.3 55.05 36.65 54.95 28.6 54.75 17.0 46.45 9.2 M46.45 14.6 L46.45 13.6 Q51.75 19.75 51.95 28.6 51.7 38.55 45.1 45.15 40.4 49.85 34.05 51.35 L34.15 50.65 Q40.2 49.15 44.65 44.7 51.05 38.3 51.3 28.65 51.15 20.45 46.45 14.6 M19.75 3.6 L19.35 3.1 Q29.1 -0.05 38.65 3.4 L38.25 4.0 Q33.8 2.25 28.5 2.1 23.8 2.25 19.75 3.6 M25.35 51.1 L25.5 51.75 Q17.6 50.7 12.05 45.15 5.45 38.55 5.2 28.6 5.45 18.9 11.8 12.35 L11.8 13.3 Q6.1 19.55 5.85 28.65 6.1 38.3 12.5 44.7 17.85 50.0 25.35 51.1 M26.35 54.95 L26.6 55.7 Q15.0 54.85 7.7 45.9 0.55 37.1 1.7 25.95 2.9 14.65 11.8 7.3 L11.8 8.1 Q3.55 15.15 2.3 25.9 1.25 35.3 6.7 43.25 13.85 53.8 26.35 54.95" fill="#514f6f" fill-rule="evenodd" stroke="none"/>
      <path d="M41.0 13.95 L41.65 14.2 41.6 21.05 40.05 21.3 39.5 20.75 39.45 4.1 Q39.9 3.3 40.95 3.4 L41.65 3.8 41.65 9.15 40.75 9.5 40.4 4.85 Q39.7 5.45 39.65 6.45 39.35 12.5 39.85 18.55 39.95 19.55 40.65 19.75 41.55 19.1 41.5 17.7 L41.0 13.95 M43.55 9.5 L42.65 9.15 42.75 3.3 Q42.9 2.55 43.6 2.4 44.35 2.05 44.95 2.65 L44.95 21.3 43.9 21.75 Q42.3 22.35 42.65 14.2 L43.6 13.8 44.0 20.3 44.55 12.55 44.5 10.65 44.25 4.4 43.55 4.3 43.55 9.5 M36.15 9.6 Q34.9 7.5 32.4 7.85 29.75 8.15 27.1 7.8 24.95 7.25 23.1 8.3 20.7 10.35 22.5 12.35 24.25 14.4 26.55 15.0 L31.75 15.4 Q34.7 15.25 36.3 13.5 37.3 11.55 36.15 9.6 M27.5 24.1 L27.45 24.1 Q26.9 24.25 26.9 24.5 26.85 24.85 27.9 25.35 L30.85 25.25 Q31.6 24.85 31.6 24.5 31.5 24.1 30.4 23.85 L27.5 24.1 M27.15 21.35 L32.0 21.35 32.0 22.95 27.15 22.95 27.15 21.35 M33.5 24.4 Q33.7 24.95 33.55 25.55 33.3 26.4 32.3 26.4 L26.9 26.45 26.25 25.85 Q24.95 24.0 27.1 23.4 L32.85 23.9 Q33.3 23.9 33.5 24.4 M38.2 19.4 Q29.1 21.65 20.1 19.4 L20.0 5.2 20.9 5.1 Q29.6 4.0 38.2 5.0 L38.2 19.4 M16.95 9.95 L16.6 3.85 17.7 3.35 18.65 3.7 18.85 4.35 Q19.1 12.15 19.0 19.95 18.95 21.55 17.35 21.35 L16.5 20.75 16.8 15.6 17.85 19.6 18.35 13.15 18.3 11.4 17.45 5.4 16.95 9.95 M15.3 15.05 L15.55 20.15 Q15.6 21.55 14.2 21.7 13.1 21.5 13.1 20.6 L12.95 4.0 Q12.95 2.6 14.2 2.25 L14.95 2.65 15.35 3.25 15.65 9.7 15.1 9.8 14.3 3.55 13.4 4.2 13.3 11.85 13.35 13.25 14.15 20.3 14.85 20.25 15.3 15.05 M31.05 30.2 L32.4 30.15 32.8 30.9 32.6 31.95 27.3 32.2 26.75 31.15 27.3 30.4 27.4 31.15 31.25 31.35 31.5 30.7 31.05 30.2 M31.25 29.1 L28.3 29.1 28.2 27.25 31.25 27.25 31.25 29.1 M27.9 48.35 Q29.05 49.75 30.55 48.65 32.0 47.2 31.6 44.95 31.65 41.3 30.8 37.75 30.7 36.45 29.75 35.6 28.7 35.65 28.3 38.1 27.95 40.5 27.95 41.5 26.8 45.1 27.9 48.35 M32.6 42.15 Q33.05 47.05 32.3 51.85 31.9 49.85 29.75 49.65 27.35 49.85 27.15 52.25 L27.15 52.3 26.95 51.0 Q26.25 45.2 27.2 39.55 L28.45 32.9 31.2 32.9 Q32.15 37.5 32.6 42.15 M30.7 58.1 L28.65 57.7 27.35 53.05 Q27.85 54.65 29.75 54.85 31.35 54.95 32.0 53.55 L30.7 58.1 M29.1 55.9 Q28.65 57.55 30.25 57.4 31.35 56.6 30.65 55.85 L29.1 55.9" fill="#69839d" fill-rule="evenodd" stroke="none"/>
      <path d="M40.75 9.5 Q39.65 10.3 39.65 11.65 39.6 13.25 41.0 13.95 L41.5 17.7 Q41.55 19.1 40.65 19.75 39.95 19.55 39.85 18.55 39.35 12.5 39.65 6.45 39.7 5.45 40.4 4.85 L40.75 9.5 M43.55 9.5 L43.55 4.3 44.25 4.4 44.5 10.65 Q44.2 9.85 43.55 9.5 M44.55 12.55 L44.0 20.3 43.6 13.8 Q44.25 13.35 44.55 12.55 M34.2 11.4 L33.9 10.25 26.9 9.5 Q25.3 9.3 24.4 10.6 24.5 12.95 27.0 13.65 31.6 14.85 34.2 11.4 M36.15 9.6 Q37.3 11.55 36.3 13.5 34.7 15.25 31.75 15.4 L26.55 15.0 Q24.25 14.4 22.5 12.35 20.7 10.35 23.1 8.3 24.95 7.25 27.1 7.8 29.75 8.15 32.4 7.85 34.9 7.5 36.15 9.6 M27.5 24.1 L30.4 23.85 Q31.5 24.1 31.6 24.5 31.6 24.85 30.85 25.25 L27.9 25.35 Q26.85 24.85 26.9 24.5 26.9 24.25 27.45 24.1 L27.5 24.1 M16.8 15.6 L16.85 14.9 18.35 13.15 17.85 19.6 16.8 15.6 M18.3 11.4 Q17.9 10.35 16.95 9.95 L17.45 5.4 18.3 11.4 M15.3 15.05 L14.85 20.25 14.15 20.3 13.35 13.25 Q13.7 14.6 15.3 15.05 M13.3 11.85 L13.4 4.2 14.3 3.55 15.1 9.8 Q13.6 10.25 13.3 11.85 M27.3 30.4 L31.05 30.2 31.5 30.7 31.25 31.35 27.4 31.15 27.3 30.4 M27.9 48.35 Q26.8 45.1 27.95 41.5 27.95 40.5 28.3 38.1 28.7 35.65 29.75 35.6 30.7 36.45 30.8 37.75 31.65 41.3 31.6 44.95 32.0 47.2 30.55 48.65 29.05 49.75 27.9 48.35 M29.1 55.9 L30.65 55.85 Q31.35 56.6 30.25 57.4 28.65 57.55 29.1 55.9" fill="#899db1" fill-rule="evenodd" stroke="none"/>
      <path d="M40.75 10.9 L42.65 13.2 42.15 13.3 Q40.7 13.2 40.5 11.65 L40.75 10.9 M42.85 10.1 L43.85 12.05 41.65 10.1 42.85 10.1 M14.45 11.5 L16.6 13.7 15.85 13.9 Q14.3 13.7 14.2 12.25 L14.45 11.5 M17.25 11.6 L17.3 13.05 15.15 10.8 16.6 10.8 17.25 11.6 M29.75 50.6 L30.55 50.85 28.35 53.05 28.1 52.25 Q28.25 50.75 29.75 50.6 M29.0 53.7 L31.2 51.5 Q31.9 53.5 29.75 53.95 L29.0 53.7" fill="#a1b1c1" fill-rule="evenodd" stroke="none"/>
      <path d="M33.35 54.6 L33.75 52.75 Q40.85 51.3 46.05 46.1 53.05 39.1 53.3 28.6 53.05 18.45 46.45 11.55 L46.45 9.2 Q54.75 17.0 54.95 28.6 55.05 36.65 50.45 43.3 44.1 52.5 33.35 54.6 M45.35 22.9 Q47.1 21.7 46.9 19.6 L46.55 17.25 Q49.55 22.9 49.55 29.45 49.05 40.8 38.0 44.45 L34.9 45.55 34.8 45.15 34.35 43.45 Q38.75 41.7 42.1 38.05 45.75 33.5 45.85 27.7 45.85 25.2 45.35 22.9 M38.25 4.0 Q29.1 3.05 20.0 4.15 L19.75 3.6 Q23.8 2.25 28.5 2.1 33.8 2.25 38.25 4.0 M24.25 45.1 Q24.15 46.55 24.3 47.8 17.65 47.8 13.35 43.15 8.2 37.55 7.7 29.6 7.2 22.7 11.3 17.35 L11.35 17.65 Q11.15 19.95 11.85 21.75 7.8 29.5 12.4 37.1 16.5 43.85 24.25 45.1 M11.8 8.1 L11.8 10.5 Q5.05 16.85 4.15 26.1 3.0 37.75 11.1 46.1 17.2 52.25 25.85 53.15 L26.35 54.95 Q13.85 53.8 6.7 43.25 1.25 35.3 2.3 25.9 3.55 15.15 11.8 8.1" fill="#afc1d9" fill-rule="evenodd" stroke="none"/>
      <path d="M34.15 50.65 Q34.1 41.75 32.3 32.9 L33.95 31.8 34.35 43.45 34.8 45.15 34.9 45.55 38.0 44.45 Q49.05 40.8 49.55 29.45 49.55 22.9 46.55 17.25 L46.9 19.6 Q47.1 21.7 45.35 22.9 L35.9 22.55 34.9 25.15 Q35.1 23.95 33.95 23.4 L33.3 23.05 33.3 21.2 38.3 20.55 Q39.2 22.8 41.45 22.0 L42.2 21.75 Q45.25 23.6 46.0 20.7 46.75 17.8 46.45 14.6 51.15 20.45 51.3 28.65 51.05 38.3 44.65 44.7 40.2 49.15 34.15 50.65 M33.85 30.25 L32.4 29.2 32.4 27.25 34.35 26.45 33.6 28.35 33.85 30.25 M24.25 45.1 L24.95 39.9 Q25.7 35.8 24.45 31.95 L25.5 28.35 23.3 25.55 24.45 22.3 Q22.8 22.45 21.25 23.1 17.0 25.0 12.6 23.2 L11.85 21.75 Q11.15 19.95 11.35 17.65 L11.3 17.35 Q7.2 22.7 7.7 29.6 8.2 37.55 13.35 43.15 17.65 47.8 24.3 47.8 24.15 46.55 24.25 45.1 M11.8 13.3 L12.05 20.75 Q12.1 22.0 13.3 22.4 15.1 23.2 16.1 21.7 L16.85 21.95 Q19.2 22.95 19.95 20.65 L26.0 21.35 26.0 23.05 25.5 23.4 Q24.55 24.05 24.5 24.95 L24.75 25.95 Q25.3 27.3 26.9 27.25 L26.9 29.2 26.4 29.55 Q24.7 30.8 26.2 32.25 26.65 32.65 27.35 32.9 25.25 40.65 25.1 48.35 L25.35 51.1 Q17.85 50.0 12.5 44.7 6.1 38.3 5.85 28.65 6.1 19.55 11.8 13.3" fill="#9ab4cc" fill-rule="evenodd" stroke="none"/>
      <path d="M33.95 31.8 L33.85 30.25 33.6 28.35 34.35 26.45 34.9 25.15 35.9 22.55 45.35 22.9 Q45.85 25.2 45.85 27.7 45.75 33.5 42.1 38.05 38.75 41.7 34.35 43.45 L33.95 31.8 M11.85 21.75 L12.6 23.2 Q17.0 25.0 21.25 23.1 22.8 22.45 24.45 22.3 L23.3 25.55 25.5 28.35 24.45 31.95 Q25.7 35.8 24.95 39.9 L24.25 45.1 Q16.5 43.85 12.4 37.1 7.8 29.5 11.85 21.75" fill="#c5d3e3" fill-rule="evenodd" stroke="none"/>
      <path d="M34.2 11.4 Q31.6 14.85 27.0 13.65 24.5 12.95 24.4 10.6 25.3 9.3 26.9 9.5 L33.9 10.25 34.2 11.4" fill="#a1b3bf" fill-rule="evenodd" stroke="none"/>
    </g>
  </defs>
</svg>
