<?xml version="1.0" encoding="UTF-8" standalone="no"?>
<svg xmlns:xlink="http://www.w3.org/1999/xlink" height="433.1px" width="327.95px" xmlns="http://www.w3.org/2000/svg">
  <g transform="matrix(1.0, 0.0, 0.0, 1.0, 164.0, 433.1)">
    <use height="36.0" transform="matrix(1.0, 0.0, 0.0, 1.0, -79.5, -36.0)" width="159.0" xlink:href="#shape0"/>
    <use height="96.65" transform="matrix(1.0, 0.0, 0.0, 1.0, -27.1, -108.0)" width="54.2" xlink:href="#shape1"/>
    <use height="37.0" transform="matrix(1.0, 0.0, 0.0, 1.0, -92.6, -93.45)" width="185.25" xlink:href="#shape2"/>
    <use height="17.5" transform="matrix(1.0, 0.0, 0.0, 1.0, -63.3, -79.85)" width="136.35" xlink:href="#text0"/>
    <use height="332.65" transform="matrix(1.0, 0.0, 0.0, 1.0, -164.0, -430.15)" width="327.95" xlink:href="#shape3"/>
    <use height="267.4" transform="matrix(1.1584, 0.0, 0.0, 1.1584, -136.3, -408.95)" width="238.4" xlink:href="#shape4"/>
    <use height="59.15" transform="matrix(1.0, 0.0, 0.0, 1.0, -29.1, -259.1)" width="57.15" xlink:href="#shape5"/>
  </g>
  <defs>
    <g id="shape0" transform="matrix(1.0, 0.0, 0.0, 1.0, 0.0, 0.0)">
      <path d="M135.7 30.75 Q113.3 35.8 79.5 36.0 45.7 35.8 23.3 30.75 0.85 25.65 0.0 18.0 0.85 10.35 23.3 5.25 45.7 0.2 79.5 0.0 113.3 0.2 135.7 5.25 158.15 10.35 159.0 18.0 158.15 25.65 135.7 30.75" fill="#000000" fill-opacity="0.39607844" fill-rule="evenodd" stroke="none"/>
    </g>
    <g id="shape1" transform="matrix(1.0, 0.0, 0.0, 1.0, 0.0, 0.0)">
      <path d="M5.85 93.35 Q-0.15 90.4 0.0 90.0 L0.0 0.0 54.2 0.0 54.2 90.0 Q54.15 90.4 46.95 93.35 39.7 96.25 25.65 96.65 11.8 96.25 5.85 93.35" fill="url(#gradient0)" fill-rule="evenodd" stroke="none"/>
    </g>
    <linearGradient gradientTransform="matrix(0.0303, 0.0, 0.0, 0.0303, 25.7, 48.35)" gradientUnits="userSpaceOnUse" id="gradient0" spreadMethod="pad" x1="-819.2" x2="819.2">
      <stop offset="0.0" stop-color="#565656"/>
      <stop offset="0.403921568627451" stop-color="#9a9999"/>
      <stop offset="0.592156862745098" stop-color="#dbdbda"/>
      <stop offset="0.7803921568627451" stop-color="#9b9a9a"/>
      <stop offset="1.0" stop-color="#151213"/>
    </linearGradient>
    <g id="shape2" transform="matrix(1.0, 0.0, 0.0, 1.0, -0.05, 0.0)">
      <path d="M185.25 8.2 L185.3 8.25 185.25 8.25 185.25 8.2 M1.9 5.2 L2.3 2.85 18.75 2.05 59.05 0.7 Q83.4 0.05 109.4 0.3 115.1 0.55 118.85 1.6 122.65 2.7 128.15 3.0 L129.3 1.5 Q130.05 0.2 130.5 0.0 160.7 0.5 181.5 3.85 L183.45 6.1 103.3 3.5 Q60.0 3.6 6.5 5.1 L1.9 5.2 M176.25 8.0 L176.45 8.4 177.65 11.45 178.5 13.65 Q179.3 12.8 179.7 10.9 179.7 9.8 179.25 9.1 L179.9 9.55 Q180.65 10.3 180.7 11.75 179.85 15.7 177.15 15.05 175.8 14.75 175.1 13.85 L176.15 14.2 177.35 14.25 176.45 12.35 174.9 8.8 174.8 8.5 174.95 8.35 Q175.75 7.8 176.25 8.0 M178.25 27.3 L179.85 27.15 Q180.5 27.3 181.25 27.95 183.6 31.2 181.35 32.8 180.2 33.6 179.1 33.5 L180.8 32.15 178.8 31.55 175.1 30.4 175.2 29.1 175.2 29.0 175.25 28.7 175.4 28.75 175.85 28.9 178.95 30.05 181.1 30.85 Q181.0 29.65 179.9 28.15 179.05 27.45 178.25 27.3 M9.35 6.95 L10.7 10.45 11.7 12.9 Q12.6 11.95 13.05 9.85 13.05 8.55 12.5 7.75 13.85 8.35 14.15 10.05 L13.75 12.35 Q12.6 15.1 10.15 14.55 8.75 14.25 8.0 13.4 L7.85 13.2 9.0 13.6 10.35 13.65 9.35 11.4 7.6 7.45 8.75 6.6 9.2 6.55 9.35 6.95 M9.4 25.3 Q11.0 24.35 12.9 25.8 15.0 28.35 14.35 30.1 L13.4 31.3 Q12.2 32.25 10.95 32.25 L12.75 30.6 10.4 30.05 6.2 29.05 6.15 27.55 6.15 27.1 6.35 27.15 6.9 27.35 10.45 28.4 12.95 29.1 Q12.75 27.8 11.35 26.15 10.35 25.35 9.4 25.3" fill="#47525f" fill-rule="evenodd" stroke="none"/>
      <path d="M0.05 36.7 L0.75 22.9 Q1.05 14.95 1.6 7.0 L1.9 5.2 6.5 5.1 3.2 8.3 1.95 36.45 0.05 36.7" fill="#cdcdcd" fill-rule="evenodd" stroke="none"/>
      <path d="M13.75 12.35 L14.15 10.05 26.45 10.0 13.75 12.35 M8.0 13.4 L7.0 13.55 7.2 26.2 6.35 27.15 6.15 27.1 6.15 27.55 Q5.15 29.5 6.75 31.55 8.95 33.2 10.95 32.25 12.2 32.25 13.4 31.3 L14.35 30.1 16.45 30.2 36.65 31.3 56.5 32.6 Q50.4 32.9 38.0 32.9 L15.1 32.75 3.85 32.6 5.25 10.05 6.0 10.05 Q6.15 12.3 7.85 13.2 L8.0 13.4" fill="#848484" fill-rule="evenodd" stroke="none"/>
      <path d="M175.1 13.85 Q175.8 14.75 177.15 15.05 179.85 15.7 180.7 11.75 180.65 10.3 179.9 9.55 L180.85 9.65 179.85 27.15 178.25 27.3 177.7 27.3 177.8 15.2 160.95 13.3 Q144.35 11.4 115.0 6.95 144.55 7.2 162.45 8.35 L174.1 9.15 Q173.65 9.7 173.4 10.6 173.45 12.95 175.1 13.85 M175.3 32.3 L137.05 30.55 175.2 29.0 175.2 29.1 Q174.3 30.55 175.3 32.3" fill="#a09fa0" fill-rule="evenodd" stroke="none"/>
      <path d="M176.45 8.4 L176.25 8.0 176.9 7.95 Q178.55 8.05 179.25 9.1 179.7 9.8 179.7 10.9 179.3 12.8 178.5 13.65 L177.65 11.45 178.05 10.25 Q178.0 8.55 176.45 8.4 M174.8 8.5 L174.9 8.8 Q174.35 9.2 174.15 10.05 174.2 11.9 175.85 12.3 L176.45 12.35 177.35 14.25 176.15 14.2 175.1 13.85 Q173.45 12.95 173.4 10.6 173.65 9.7 174.1 9.15 L174.8 8.5 M177.7 27.3 L178.25 27.3 Q179.05 27.45 179.9 28.15 181.0 29.65 181.1 30.85 L178.95 30.05 178.3 28.9 Q177.0 27.8 175.85 28.9 L175.4 28.75 175.8 28.3 Q176.7 27.35 177.7 27.3 M179.1 33.5 Q177.3 34.2 175.5 32.65 L175.3 32.3 Q174.3 30.55 175.2 29.1 L175.1 30.4 Q175.25 32.1 176.95 32.35 178.0 32.25 178.8 31.55 L180.8 32.15 179.1 33.5 M10.7 10.45 L11.2 9.05 Q11.15 7.15 9.35 6.95 L9.2 6.55 9.9 6.5 Q11.75 6.6 12.5 7.75 13.05 8.55 13.05 9.85 12.6 11.95 11.7 12.9 L10.7 10.45 M7.2 26.2 Q8.2 25.2 9.4 25.3 10.35 25.35 11.35 26.15 12.75 27.8 12.95 29.1 L10.45 28.4 Q9.75 26.65 8.05 26.6 L6.9 27.35 6.35 27.15 7.2 26.2 M6.0 10.05 L5.95 9.55 Q6.6 7.0 8.75 6.6 L7.6 7.45 Q7.0 7.9 6.75 8.85 6.8 10.95 8.7 11.35 L9.35 11.4 10.35 13.65 9.0 13.6 7.85 13.2 Q6.15 12.3 6.0 10.05 M6.15 27.55 L6.2 29.05 Q6.45 30.9 8.2 31.1 9.7 31.2 10.4 30.05 L12.75 30.6 10.95 32.25 Q8.95 33.2 6.75 31.55 5.15 29.5 6.15 27.55" fill="#9c9c9c" fill-rule="evenodd" stroke="none"/>
      <path d="M174.9 8.8 L176.45 12.35 175.85 12.3 Q174.2 11.9 174.15 10.05 174.35 9.2 174.9 8.8 M177.65 11.45 L176.45 8.4 Q178.0 8.55 178.05 10.25 L177.65 11.45 M175.85 28.9 Q177.0 27.8 178.3 28.9 L178.95 30.05 175.85 28.9 M175.1 30.4 L178.8 31.55 Q178.0 32.25 176.95 32.35 175.25 32.1 175.1 30.4 M9.35 6.95 Q11.15 7.15 11.2 9.05 L10.7 10.45 9.35 6.95 M9.35 11.4 L8.7 11.35 Q6.8 10.95 6.75 8.85 7.0 7.9 7.6 7.45 L9.35 11.4 M10.45 28.4 L6.9 27.35 8.05 26.6 Q9.75 26.65 10.45 28.4 M6.2 29.05 L10.4 30.05 Q9.7 31.2 8.2 31.1 6.45 30.9 6.2 29.05" fill="#d5d4d4" fill-rule="evenodd" stroke="none"/>
      <path d="M183.45 6.1 L185.3 6.25 185.25 8.2 185.25 8.25 185.1 13.45 184.65 27.3 184.3 36.25 Q157.35 34.75 133.85 35.55 L89.2 37.0 Q65.15 37.15 43.55 35.85 22.0 34.5 0.05 36.75 L0.05 36.7 1.95 36.45 3.2 8.3 6.5 5.1 Q60.0 3.6 103.3 3.5 L183.45 6.1 M176.25 8.0 Q175.75 7.8 174.95 8.35 L174.8 8.5 174.1 9.15 162.45 8.35 Q144.55 7.2 115.0 6.95 144.35 11.4 160.95 13.3 L177.8 15.2 177.7 27.3 Q176.7 27.35 175.8 28.3 L175.4 28.75 175.25 28.7 175.2 29.0 137.05 30.55 175.3 32.3 175.5 32.65 Q177.3 34.2 179.1 33.5 180.2 33.6 181.35 32.8 183.6 31.2 181.25 27.95 180.5 27.3 179.85 27.15 L180.85 9.65 179.9 9.55 179.25 9.1 Q178.55 8.05 176.9 7.95 L176.25 8.0 M12.5 7.75 Q11.75 6.6 9.9 6.5 L9.2 6.55 8.75 6.6 Q6.6 7.0 5.95 9.55 L6.0 10.05 5.25 10.05 3.85 32.6 15.1 32.75 38.0 32.9 Q50.4 32.9 56.5 32.6 L36.65 31.3 16.45 30.2 14.35 30.1 Q15.0 28.35 12.9 25.8 11.0 24.35 9.4 25.3 8.2 25.2 7.2 26.2 L7.0 13.55 8.0 13.4 Q8.75 14.25 10.15 14.55 12.6 15.1 13.75 12.35 L26.45 10.0 14.15 10.05 Q13.85 8.35 12.5 7.75" fill="url(#gradient1)" fill-rule="evenodd" stroke="none"/>
    </g>
    <linearGradient gradientTransform="matrix(0.1131, 0.0, 0.0, 0.0204, 92.65, 20.25)" gradientUnits="userSpaceOnUse" id="gradient1" spreadMethod="pad" x1="-819.2" x2="819.2">
      <stop offset="0.0" stop-color="#9a9a9a"/>
      <stop offset="1.0" stop-color="#ffffff"/>
    </linearGradient>
    <g id="text0" transform="matrix(1.0, 0.0, 0.0, 1.0, 7.75, -5.75)">
      <g transform="matrix(1.0, 0.0, 0.0, 1.0, -9.0, 0.0)">
        <use fill="#000000" height="17.5" transform="matrix(0.4746, 0.0, 0.0, 0.4746, 0.0, 21.0)" width="136.35" xlink:href="#font_______W7_L0"/>
        <use fill="#000000" height="17.5" transform="matrix(0.4746, 0.0, 0.0, 0.4746, 15.4, 21.0)" width="136.35" xlink:href="#font_______W7_e0"/>
        <use fill="#000000" height="17.5" transform="matrix(0.4746, 0.0, 0.0, 0.4746, 28.85, 21.0)" width="136.35" xlink:href="#font_______W7_g0"/>
        <use fill="#000000" height="17.5" transform="matrix(0.4746, 0.0, 0.0, 0.4746, 42.1, 21.0)" width="136.35" xlink:href="#font_______W7_a0"/>
        <use fill="#000000" height="17.5" transform="matrix(0.4746, 0.0, 0.0, 0.4746, 55.9, 21.0)" width="136.35" xlink:href="#font_______W7_l0"/>
        <use fill="#000000" height="17.5" transform="matrix(0.4746, 0.0, 0.0, 0.4746, 72.7, 21.0)" width="136.35" xlink:href="#font_______W7_E0"/>
        <use fill="#000000" height="17.5" transform="matrix(0.4746, 0.0, 0.0, 0.4746, 88.75, 21.0)" width="136.35" xlink:href="#font_______W7_a0"/>
        <use fill="#000000" height="17.5" transform="matrix(0.4746, 0.0, 0.0, 0.4746, 102.55, 21.0)" width="136.35" xlink:href="#font_______W7_g0"/>
        <use fill="#000000" height="17.5" transform="matrix(0.4746, 0.0, 0.0, 0.4746, 115.85, 21.0)" width="136.35" xlink:href="#font_______W7_l0"/>
        <use fill="#000000" height="17.5" transform="matrix(0.4746, 0.0, 0.0, 0.4746, 124.65, 21.0)" width="136.35" xlink:href="#font_______W7_e0"/>
      </g>
    </g>
    <g id="font_______W7_L0">
      <path d="M30.55 -8.45 L30.55 -8.45 12.65 -6.2 10.2 -31.55 5.3 -32.15 2.55 0.05 8.05 -0.55 32.1 -0.65 30.55 -8.45" fill-rule="evenodd" stroke="none"/>
    </g>
    <g id="font_______W7_e0">
      <path d="M19.45 -9.9 L19.45 -9.9 Q16.75 -7.55 13.6 -7.55 10.45 -7.55 9.15 -9.9 L19.45 -9.9 M9.0 -13.4 L9.0 -13.4 Q9.7 -14.95 11.5 -15.95 13.2 -16.8 15.1 -16.8 18.05 -16.8 19.65 -14.35 L9.0 -13.4 M23.25 -9.9 L23.25 -9.9 24.3 -9.9 26.7 -12.6 Q25.85 -16.7 22.9 -19.1 19.9 -21.45 15.15 -21.45 9.65 -21.45 5.9 -18.65 1.8 -15.6 1.8 -10.4 1.8 -5.35 5.8 -2.5 9.3 0.05 14.6 0.05 22.45 0.05 27.15 -4.25 L23.25 -9.9" fill-rule="evenodd" stroke="none"/>
    </g>
    <g id="font_______W7_g0">
      <path d="M21.25 -12.75 L21.25 -12.75 21.05 -10.5 18.9 -14.7 Q15.2 -11.7 11.9 -11.7 10.85 -11.7 10.0 -12.55 9.05 -13.45 9.05 -14.45 9.05 -16.75 13.35 -16.75 15.6 -16.75 18.05 -15.7 20.3 -14.7 21.2 -13.55 L21.25 -12.75 M26.3 -10.4 L26.3 -10.4 Q26.3 -15.45 24.2 -21.5 L20.0 -20.3 20.3 -19.15 Q16.35 -21.45 12.1 -21.45 8.15 -21.45 5.4 -19.3 2.35 -16.95 2.35 -13.2 2.35 -9.45 5.85 -7.35 8.8 -5.6 12.75 -5.6 16.55 -5.6 19.75 -6.9 17.8 -3.95 13.25 -3.95 8.55 -3.95 4.75 -6.35 L1.8 2.9 Q6.7 4.75 11.2 4.75 18.25 4.75 22.25 0.65 26.3 -3.4 26.3 -10.4" fill-rule="evenodd" stroke="none"/>
    </g>
    <g id="font_______W7_a0">
      <path d="M19.05 -8.85 L19.05 -8.85 18.5 -5.05 17.1 -9.0 Q14.35 -6.2 10.6 -6.2 9.95 -6.2 9.45 -6.75 9.0 -7.2 9.0 -7.85 9.0 -10.2 13.7 -10.2 15.9 -10.2 19.05 -8.85 M27.4 -6.8 L27.4 -6.8 Q27.4 -21.45 13.35 -21.45 7.15 -21.45 2.55 -18.35 L4.3 -14.35 Q8.3 -16.55 13.15 -16.55 17.85 -16.55 18.85 -13.35 15.4 -14.5 12.8 -14.5 8.6 -14.5 5.6 -12.8 1.8 -10.75 1.8 -6.95 1.8 -3.5 4.9 -1.55 7.55 0.05 11.15 0.05 13.95 0.05 17.35 -0.95 L17.0 0.15 26.7 -0.3 Q27.4 -3.45 27.4 -6.8" fill-rule="evenodd" stroke="none"/>
    </g>
    <g id="font_______W7_l0">
      <path d="M11.6 -31.5 L11.6 -31.5 6.9 -32.15 4.35 0.05 14.4 -1.4 11.6 -31.5" fill-rule="evenodd" stroke="none"/>
    </g>
    <g id="font_______W7_E0">
      <path d="M31.25 -9.2 L31.25 -9.2 12.6 -6.6 12.0 -12.95 30.3 -12.95 28.75 -20.5 11.5 -17.95 10.9 -24.05 31.85 -24.05 30.3 -31.55 10.45 -29.1 10.2 -31.5 5.3 -32.15 2.55 0.05 13.15 -1.1 13.1 -1.45 32.75 -1.45 31.25 -9.2" fill-rule="evenodd" stroke="none"/>
    </g>
    <g id="shape3" transform="matrix(1.0, 0.0, 0.0, 1.0, 22.45, 35.05)">
      <path d="M183.7 -18.75 L185.05 -20.15 185.05 -17.8 175.75 -8.05 175.75 -10.55 183.7 -18.75 M188.45 -14.35 L188.25 -12.25 Q186.55 -3.1 177.9 -6.45 L177.9 -8.65 Q179.5 -7.7 181.5 -7.65 187.85 -8.25 188.45 -14.35 M209.3 51.0 L202.7 47.0 191.5 -28.15 108.7 -20.85 92.45 43.9 10.3 91.85 7.55 101.05 -12.3 148.55 1.6 260.0 9.05 294.45 22.15 294.45 258.2 294.45 278.1 264.35 294.25 189.65 293.35 174.65 292.2 99.35 209.3 51.0 M208.7 38.1 L298.45 97.8 305.5 190.15 284.25 267.0 261.65 297.6 3.75 297.6 -4.95 261.0 -22.45 152.5 4.7 91.0 86.55 39.9 108.05 -26.85 193.6 -35.05 208.7 38.1 M283.8 104.7 L283.8 107.1 274.5 116.8 274.5 114.35 274.55 114.35 283.8 104.7 M287.25 110.5 L287.25 111.5 Q286.2 121.2 276.75 118.5 L276.7 116.25 Q278.35 117.15 280.3 117.25 286.7 116.65 287.25 110.5 M280.65 187.9 L281.35 189.7 282.05 190.5 Q284.75 192.6 287.65 190.8 289.8 189.45 289.7 186.8 290.6 190.05 288.0 191.85 281.7 195.9 280.65 187.9 M2.7 146.15 L2.7 148.5 -6.6 158.25 -6.6 155.75 -6.5 155.75 2.7 146.15 M6.15 151.9 L6.15 152.9 Q5.0 162.6 -4.3 159.9 L-4.4 157.65 Q-2.75 158.6 -0.8 158.65 5.6 158.05 6.15 151.9 M67.15 288.2 Q73.1 291.35 74.75 284.95 L74.8 284.5 Q75.45 287.05 73.95 288.65 67.95 294.8 65.8 286.15 L66.4 287.45 Q66.6 285.35 67.9 283.4 L67.95 283.4 Q66.6 285.35 66.45 287.4 L67.15 288.2 M11.1 281.9 L11.15 281.95 11.1 281.95 11.1 281.9 M11.15 281.9 L11.15 279.45 20.35 269.85 20.35 272.2 11.15 281.9 M23.85 275.65 L23.85 276.75 Q22.6 286.75 13.3 283.65 L13.3 281.4 Q14.9 282.3 16.9 282.35 23.25 281.8 23.85 275.65 M210.85 225.65 L210.95 227.1 Q211.1 228.45 210.1 229.4 203.6 235.5 201.95 226.8 L202.5 228.2 203.35 229.0 Q209.25 232.1 210.8 225.7 L210.85 225.65 M204.0 224.2 L203.7 224.65 203.95 224.2 204.0 224.2" fill="#47525f" fill-rule="evenodd" stroke="none"/>
      <path d="M185.95 -17.05 L187.1 -18.3 187.15 -17.45 Q187.05 -8.15 177.9 -8.65 L185.95 -17.05 M209.3 51.0 L292.2 99.35 293.35 174.65 22.15 294.45 9.05 294.45 1.6 260.0 -12.3 148.55 7.55 101.05 209.3 51.0 M283.8 107.1 L283.8 104.7 Q281.7 105.05 279.95 106.05 281.45 105.05 283.3 104.45 L281.95 104.1 Q274.8 103.3 273.1 110.55 L273.1 113.3 Q272.9 114.15 274.5 116.8 L276.75 118.5 Q286.2 121.2 287.25 111.5 L287.25 110.5 285.9 106.55 286.0 107.75 Q285.5 116.45 276.7 116.25 L284.7 107.85 283.8 107.1 M274.55 114.35 L274.5 114.35 274.5 114.25 274.55 114.35 M274.2 112.8 L274.2 112.75 Q274.9 111.15 275.9 109.8 L274.2 112.8 M2.7 148.5 L2.7 146.15 0.55 146.65 2.2 145.85 0.8 145.55 Q-6.4 144.75 -7.95 152.0 L-7.95 154.7 Q-8.2 155.55 -6.6 158.25 L-4.3 159.9 Q5.0 162.6 6.15 152.9 L6.15 151.9 4.85 148.0 Q5.2 157.85 -4.4 157.65 L3.6 149.25 2.7 148.5 M-6.5 155.75 L-6.6 155.75 -6.6 155.7 -6.5 155.75 M-6.85 154.25 L-6.85 154.2 Q-6.1 152.25 -4.9 150.7 L-6.85 154.25 M9.75 275.7 L9.75 278.4 Q9.5 279.3 11.1 281.9 L11.1 281.95 13.3 283.65 Q22.6 286.75 23.85 276.75 L23.85 275.65 22.5 271.7 Q22.9 281.8 13.3 281.4 L21.3 273.0 20.35 272.2 20.35 269.85 19.95 269.55 Q16.2 267.8 12.9 270.15 10.05 272.15 9.75 275.7" fill="#bab9ba" fill-rule="evenodd" stroke="none"/>
      <path d="M184.55 -20.45 Q176.55 -22.85 174.45 -14.55 L174.35 -14.3 174.35 -11.6 Q174.15 -10.7 175.75 -8.05 L177.9 -6.45 Q186.55 -3.1 188.25 -12.25 L188.45 -14.35 187.1 -18.3 185.95 -17.05 185.05 -17.8 185.05 -20.15 183.7 -18.75 184.55 -20.45 M7.55 101.05 L10.3 91.85 92.45 43.9 108.7 -20.85 191.5 -28.15 202.7 47.0 209.3 51.0 7.55 101.05 M293.35 174.65 L294.25 189.65 278.1 264.35 258.2 294.45 22.15 294.45 293.35 174.65 M287.3 183.35 Q284.3 182.1 282.05 184.25 280.4 185.7 280.65 187.9 281.7 195.9 288.0 191.85 290.6 190.05 289.7 186.8 289.55 185.55 288.75 184.6 L287.3 183.35 M74.8 284.5 Q74.7 283.3 73.85 282.3 L72.35 281.1 Q69.65 281.1 67.75 282.6 65.8 284.05 65.8 286.15 67.95 294.8 73.95 288.65 75.45 287.05 74.8 284.5 M68.5 282.9 L67.95 283.4 67.9 283.4 68.5 282.9 M210.85 225.65 L209.95 223.1 208.3 221.95 Q205.65 221.95 203.8 223.4 201.95 224.8 201.95 226.8 203.6 235.5 210.1 229.4 211.1 228.45 210.95 227.1 L210.85 225.65 M204.1 224.1 L204.0 224.2 203.95 224.2 204.1 224.1" fill="#9c9c9c" fill-rule="evenodd" stroke="none"/>
      <path d="M185.05 -17.8 L185.95 -17.05 177.9 -8.65 177.9 -6.45 175.75 -8.05 185.05 -17.8 M283.8 107.1 L284.7 107.85 276.7 116.25 276.75 118.5 274.5 116.8 283.8 107.1 M2.7 148.5 L3.6 149.25 -4.4 157.65 -4.3 159.9 -6.6 158.25 2.7 148.5 M11.15 281.95 L11.15 281.9 20.35 272.2 21.3 273.0 13.3 281.4 13.3 283.65 11.1 281.95 11.15 281.95" fill="#57565b" fill-rule="evenodd" stroke="none"/>
      <path d="M175.75 -8.05 Q174.15 -10.7 174.35 -11.6 L174.35 -14.3 Q174.5 -12.65 175.35 -11.15 L175.75 -10.55 175.75 -8.05 M274.5 116.8 Q272.9 114.15 273.1 113.3 L273.1 110.55 Q273.25 112.25 274.1 113.75 L274.2 112.75 274.2 112.8 274.5 114.25 274.5 114.35 274.5 116.8 M-6.6 158.25 Q-8.2 155.55 -7.95 154.7 L-7.95 152.0 Q-7.85 153.65 -7.0 155.15 L-6.85 154.2 -6.85 154.25 -6.6 155.7 -6.6 155.75 -6.6 158.25 M10.75 278.9 L11.15 279.45 11.15 281.9 11.15 281.95 11.1 281.9 Q9.5 279.3 9.75 278.4 L9.75 275.7 Q9.85 277.4 10.75 278.9" fill="#79818b" fill-rule="evenodd" stroke="none"/>
      <path d="M184.55 -20.45 L183.7 -18.75 175.75 -10.55 175.35 -11.15 Q176.85 -17.75 183.65 -20.1 L184.55 -20.45 M279.95 106.05 Q281.7 105.05 283.8 104.7 L274.55 114.35 274.5 114.25 274.2 112.8 275.9 109.8 Q277.55 107.5 279.95 106.05 M281.35 189.7 Q281.35 187.1 283.1 185.25 284.8 183.35 287.3 183.35 L288.75 184.6 Q288.75 187.0 286.8 188.75 284.8 190.5 282.05 190.5 L281.35 189.7 M0.55 146.65 L2.7 146.15 -6.5 155.75 -6.6 155.7 -6.85 154.25 -4.9 150.7 0.55 146.65 M73.85 282.3 Q73.85 284.75 71.9 286.45 69.95 288.2 67.15 288.2 L66.45 287.4 Q66.6 285.35 67.95 283.4 L68.5 282.9 72.35 281.1 73.85 282.3 M11.15 279.45 L10.75 278.9 Q12.2 272.35 19.0 269.9 L19.95 269.55 20.35 269.85 11.15 279.45 M208.3 221.95 L209.95 223.1 Q209.95 225.55 208.0 227.3 206.05 229.0 203.35 229.0 L202.5 228.2 203.7 224.65 204.0 224.2 204.1 224.1 208.3 221.95" fill="#d0cfd0" fill-rule="evenodd" stroke="none"/>
      <path d="M174.35 -14.3 L174.45 -14.55 Q176.55 -22.85 184.55 -20.45 L183.65 -20.1 Q176.85 -17.75 175.35 -11.15 174.5 -12.65 174.35 -14.3 M273.1 110.55 Q274.8 103.3 281.95 104.1 L283.3 104.45 Q281.45 105.05 279.95 106.05 277.55 107.5 275.9 109.8 274.9 111.15 274.2 112.75 L274.1 113.75 Q273.25 112.25 273.1 110.55 M280.65 187.9 Q280.4 185.7 282.05 184.25 284.3 182.1 287.3 183.35 284.8 183.35 283.1 185.25 281.35 187.1 281.35 189.7 L280.65 187.9 M-7.95 152.0 Q-6.4 144.75 0.8 145.55 L2.2 145.85 0.55 146.65 -4.9 150.7 Q-6.1 152.25 -6.85 154.2 L-7.0 155.15 Q-7.85 153.65 -7.95 152.0 M72.35 281.1 L68.5 282.9 67.9 283.4 Q66.6 285.35 66.4 287.45 L65.8 286.15 Q65.8 284.05 67.75 282.6 69.65 281.1 72.35 281.1 M10.75 278.9 Q9.85 277.4 9.75 275.7 10.05 272.15 12.9 270.15 16.2 267.8 19.95 269.55 L19.0 269.9 Q12.2 272.35 10.75 278.9 M201.95 226.8 Q201.95 224.8 203.8 223.4 205.65 221.95 208.3 221.95 L204.1 224.1 203.95 224.2 203.7 224.65 202.5 228.2 201.95 226.8" fill="#e9e9eb" fill-rule="evenodd" stroke="none"/>
      <path d="M187.1 -18.3 L188.45 -14.35 Q187.85 -8.25 181.5 -7.65 179.5 -7.7 177.9 -8.65 187.05 -8.15 187.15 -17.45 L187.1 -18.3 M276.7 116.25 Q285.5 116.45 286.0 107.75 L285.9 106.55 287.25 110.5 Q286.7 116.65 280.3 117.25 278.35 117.15 276.7 116.25 M288.75 184.6 Q289.55 185.55 289.7 186.8 289.8 189.45 287.65 190.8 284.75 192.6 282.05 190.5 284.8 190.5 286.8 188.75 288.75 187.0 288.75 184.6 M-4.4 157.65 Q5.2 157.85 4.85 148.0 L6.15 151.9 Q5.6 158.05 -0.8 158.65 -2.75 158.6 -4.4 157.65 M67.15 288.2 Q69.95 288.2 71.9 286.45 73.85 284.75 73.85 282.3 74.7 283.3 74.8 284.5 L74.75 284.95 Q73.1 291.35 67.15 288.2 M13.3 281.4 Q22.9 281.8 22.5 271.7 L23.85 275.65 Q23.25 281.8 16.9 282.35 14.9 282.3 13.3 281.4 M209.95 223.1 L210.85 225.65 210.8 225.7 Q209.25 232.1 203.35 229.0 206.05 229.0 208.0 227.3 209.95 225.55 209.95 223.1" fill="#b0aeb3" fill-rule="evenodd" stroke="none"/>
    </g>
    <g id="shape4" transform="matrix(1.0, 0.0, 0.0, 1.0, 0.0, 0.0)">
      <path d="M178.15 94.85 L162.3 98.0 169.45 103.15 169.7 104.05 169.3 105.1 101.3 177.15 96.85 262.8 96.75 263.35 95.85 264.1 117.9 263.65 171.3 264.7 171.3 263.9 163.55 199.7 Q168.8 193.5 179.3 182.9 L198.0 153.6 230.25 98.15 183.8 71.7 178.15 94.85 M176.25 92.3 L181.05 70.1 161.7 59.0 105.9 167.85 165.95 104.3 157.3 97.4 176.25 92.3 M8.45 243.45 Q7.75 242.75 7.55 241.95 3.55 227.0 1.95 211.7 -1.0 183.35 0.5 154.95 1.85 128.7 5.95 102.65 6.05 102.05 6.55 101.8 L63.25 66.6 83.15 54.35 92.05 1.65 Q92.25 0.6 93.5 0.4 L150.1 0.0 Q151.3 0.05 151.6 1.3 L159.2 53.8 Q160.2 55.2 161.6 55.9 171.3 61.1 180.95 66.6 L233.05 96.3 Q233.4 96.95 234.9 110.45 236.4 123.9 237.1 152.7 L238.15 197.85 238.4 214.4 235.35 222.3 227.45 242.4 228.25 244.75 204.9 265.75 202.85 265.65 183.55 245.95 185.55 241.8 181.85 222.3 Q178.55 207.05 174.7 191.95 L166.65 200.05 174.25 267.2 66.25 267.4 69.3 204.05 54.55 187.65 Q52.85 200.7 52.25 213.8 51.85 223.35 52.55 233.0 L53.8 234.35 51.3 243.65 48.15 241.75 50.65 235.35 35.05 223.45 22.8 225.8 10.8 241.55 9.35 240.7 8.95 240.75 Q7.05 241.7 8.45 243.45 M177.6 191.05 L187.35 234.8 196.15 224.3 209.9 225.7 211.3 227.25 225.35 239.65 231.0 222.3 Q233.65 215.35 234.6 213.85 235.6 212.15 234.8 165.5 233.95 118.8 231.45 102.05 L177.6 191.05 M138.7 10.6 L142.05 11.2 Q142.3 10.5 142.05 9.65 141.4 7.7 139.5 7.15 L138.2 7.6 132.5 9.45 138.7 10.6 M130.6 8.3 L130.95 7.35 Q138.4 3.75 146.55 3.15 L147.35 4.05 146.65 5.95 143.55 6.25 144.6 8.3 144.95 9.65 145.05 11.85 149.15 13.8 147.5 15.6 128.1 11.05 127.7 10.15 127.7 10.05 127.6 10.15 125.65 11.35 125.05 11.35 138.2 43.4 137.4 44.15 132.1 41.8 118.3 50.2 107.95 40.4 101.35 42.65 100.65 42.0 115.2 11.65 112.5 12.35 109.8 13.05 Q103.35 14.95 97.35 12.5 L97.35 11.4 100.0 10.8 99.25 6.35 96.3 5.65 96.65 3.4 94.8 3.4 86.4 54.05 111.9 59.95 118.1 60.55 121.2 60.5 124.25 60.25 Q140.4 58.15 156.15 53.45 L148.8 3.0 99.55 3.35 112.6 7.25 112.15 7.3 111.15 8.45 Q111.05 8.95 111.35 9.4 111.6 9.85 112.15 10.0 L115.65 10.7 118.75 8.0 127.3 8.15 127.9 8.85 127.9 9.55 Q129.3 8.3 131.15 9.2 L130.6 8.3 M122.0 28.0 L132.55 36.25 121.25 11.05 119.1 11.05 106.8 35.25 122.0 28.0 M131.05 38.95 L121.6 31.3 109.2 37.4 118.65 46.95 131.05 38.95 M106.2 10.2 L110.45 9.45 106.8 8.25 102.3 7.2 102.25 7.8 Q102.75 11.25 106.2 10.2 M115.8 64.55 L117.1 74.15 123.1 73.6 123.65 64.45 115.8 64.55 M113.5 64.6 L114.15 64.15 101.5 61.0 104.05 83.65 114.15 74.85 113.5 64.6 M99.1 60.4 L86.55 57.15 94.45 76.45 96.8 77.85 99.9 72.0 99.1 60.4 M97.85 81.15 Q98.3 85.6 105.95 96.5 113.6 107.35 117.1 111.4 L118.15 77.05 115.9 77.25 102.3 87.95 100.4 77.4 97.85 81.15 M157.4 56.2 L139.9 60.35 139.15 74.25 142.55 79.15 Q153.75 70.35 159.0 57.65 L157.4 56.2 M136.85 60.75 L125.8 63.9 126.1 74.3 135.7 81.95 136.85 60.75 M137.7 86.3 L124.1 76.55 121.2 76.8 120.1 110.2 Q134.45 95.25 148.8 78.05 L142.85 82.75 138.9 79.1 137.7 86.3 M58.2 73.35 L8.95 103.45 Q21.8 129.9 36.35 155.4 44.6 169.75 55.15 182.8 63.25 192.85 71.9 202.55 L72.25 203.05 68.75 264.7 94.25 263.7 94.0 263.25 93.9 262.65 98.45 176.45 98.65 175.65 112.0 149.35 75.3 106.55 81.45 96.8 64.6 94.7 58.2 73.35 M60.9 71.7 L66.75 92.15 85.1 94.55 78.7 106.35 113.5 146.45 117.4 138.75 83.4 57.9 60.9 71.7 M33.85 157.1 Q20.0 133.05 7.9 108.1 4.45 131.45 3.35 154.95 2.0 183.15 4.8 211.25 6.15 225.0 9.3 238.55 L21.2 223.15 35.15 220.4 49.35 230.6 Q48.7 222.0 49.2 213.55 50.0 199.0 51.9 184.6 42.0 171.3 33.85 157.1 M116.75 115.4 L104.15 99.0 112.45 119.25 116.75 115.4 M119.65 136.3 L127.35 120.9 114.95 125.2 119.65 136.3 M129.3 117.05 L143.65 87.85 113.75 122.25 129.3 117.05 M47.7 243.0 L49.0 245.8 Q41.85 249.2 34.1 245.3 L31.9 244.35 31.1 247.25 28.7 247.25 32.3 235.85 32.65 241.4 Q40.15 246.5 47.7 243.0 M217.4 235.6 L208.95 227.25 197.45 227.15 189.3 237.15 189.45 239.45 197.4 245.9 201.05 244.9 Q200.8 244.0 200.9 243.15 200.95 242.65 201.4 242.3 L201.85 242.05 202.35 242.25 202.85 242.45 203.15 242.8 204.8 244.8 Q207.5 247.55 205.8 250.15 L202.55 247.6 196.45 248.85 188.6 242.65 186.9 245.25 203.95 262.55 224.8 243.9 217.4 235.6" fill="#1a1a1a" fill-rule="evenodd" stroke="none"/>
      <path d="M178.15 94.85 L183.8 71.7 230.25 98.15 198.0 153.6 179.3 182.9 Q168.8 193.5 163.55 199.7 L171.3 263.9 171.3 264.7 117.9 263.65 95.85 264.1 96.75 263.35 96.85 262.8 101.3 177.15 169.3 105.1 169.7 104.05 169.45 103.15 162.3 98.0 178.15 94.85 M176.25 92.3 L157.3 97.4 165.95 104.3 105.9 167.85 161.7 59.0 181.05 70.1 176.25 92.3 M177.6 191.05 L231.45 102.05 Q233.95 118.8 234.8 165.5 235.6 212.15 234.6 213.85 233.65 215.35 231.0 222.3 L225.35 239.65 211.3 227.25 209.9 225.7 196.15 224.3 187.35 234.8 177.6 191.05 M58.2 73.35 L64.6 94.7 81.45 96.8 75.3 106.55 112.0 149.35 98.65 175.65 98.45 176.45 93.9 262.65 94.0 263.25 94.25 263.7 68.75 264.7 72.25 203.05 71.9 202.55 Q63.25 192.85 55.15 182.8 44.6 169.75 36.35 155.4 21.8 129.9 8.95 103.45 L58.2 73.35 M60.9 71.7 L83.4 57.9 117.4 138.75 113.5 146.45 78.7 106.35 85.1 94.55 66.75 92.15 60.9 71.7 M33.85 157.1 Q42.0 171.3 51.9 184.6 50.0 199.0 49.2 213.55 48.7 222.0 49.35 230.6 L35.15 220.4 21.2 223.15 9.3 238.55 Q6.15 225.0 4.8 211.25 2.0 183.15 3.35 154.95 4.45 131.45 7.9 108.1 20.0 133.05 33.85 157.1" fill="#3a3d6a" fill-rule="evenodd" stroke="none"/>
      <path d="M127.7 10.15 L128.1 11.05 147.5 15.6 149.15 13.8 145.05 11.85 144.95 9.65 144.6 8.3 143.55 6.25 146.65 5.95 147.35 4.05 146.55 3.15 Q138.4 3.75 130.95 7.35 L130.6 8.3 127.9 8.85 127.3 8.15 118.75 8.0 115.65 10.7 112.15 10.0 115.15 9.55 111.15 8.45 112.15 7.3 112.6 7.25 99.55 3.35 148.8 3.0 156.15 53.45 Q140.4 58.15 124.25 60.25 L121.2 60.5 118.1 60.55 111.9 59.95 86.4 54.05 94.8 3.4 96.65 3.4 96.3 5.65 99.25 6.35 100.0 10.8 97.35 11.4 97.35 12.5 Q103.35 14.95 109.8 13.05 L112.5 12.35 115.2 11.65 100.65 42.0 101.35 42.65 107.95 40.4 118.3 50.2 132.1 41.8 137.4 44.15 138.2 43.4 125.05 11.35 125.65 11.35 127.6 10.15 127.7 10.15" fill="#cacfe6" fill-rule="evenodd" stroke="none"/>
      <path d="M138.2 7.6 L139.5 7.15 Q141.4 7.7 142.05 9.65 142.3 10.5 142.05 11.2 L138.7 10.6 138.2 7.6 M106.8 8.25 L106.5 8.5 Q105.7 9.2 106.2 10.2 102.75 11.25 102.25 7.8 L102.3 7.2 106.8 8.25" fill="#ffffff" fill-rule="evenodd" stroke="none"/>
      <path d="M8.45 243.45 Q7.05 241.7 8.95 240.75 L9.35 240.7 10.8 241.55 32.75 262.8 50.65 249.2 49.0 245.8 47.7 243.0 48.15 241.75 51.3 243.65 54.35 249.35 33.05 266.25 8.45 243.45 M138.7 10.6 L132.5 9.45 138.2 7.6 138.7 10.6 M130.6 8.3 L131.15 9.2 Q129.3 8.3 127.9 9.55 L127.9 8.85 130.6 8.3 M112.15 10.0 Q111.6 9.85 111.35 9.4 111.05 8.95 111.15 8.45 L115.15 9.55 112.15 10.0 M127.6 10.15 L127.7 10.05 127.7 10.15 127.6 10.15 M106.8 8.25 L110.45 9.45 106.2 10.2 Q105.7 9.2 106.5 8.5 L106.8 8.25" fill="#000000" fill-rule="evenodd" stroke="none"/>
      <path d="M113.5 64.6 L114.15 74.85 104.05 83.65 101.5 61.0 114.15 64.15 113.5 64.6 M115.8 64.55 L123.65 64.45 123.1 73.6 117.1 74.15 115.8 64.55 M136.85 60.75 L135.7 81.95 126.1 74.3 125.8 63.9 136.85 60.75" fill="#990000" fill-rule="evenodd" stroke="none"/>
      <path d="M157.4 56.2 L159.0 57.65 Q153.75 70.35 142.55 79.15 L139.15 74.25 139.9 60.35 157.4 56.2 M97.85 81.15 L100.4 77.4 102.3 87.95 115.9 77.25 118.15 77.05 117.1 111.4 Q113.6 107.35 105.95 96.5 98.3 85.6 97.85 81.15 M99.1 60.4 L99.9 72.0 96.8 77.85 94.45 76.45 86.55 57.15 99.1 60.4 M137.7 86.3 L138.9 79.1 142.85 82.75 148.8 78.05 Q134.45 95.25 120.1 110.2 L121.2 76.8 124.1 76.55 137.7 86.3 M129.3 117.05 L113.75 122.25 143.65 87.85 129.3 117.05 M119.65 136.3 L114.95 125.2 127.35 120.9 119.65 136.3 M116.75 115.4 L112.45 119.25 104.15 99.0 116.75 115.4" fill="#d7dcec" fill-rule="evenodd" stroke="none"/>
      <path d="M10.8 241.55 L22.8 225.8 35.05 223.45 50.65 235.35 48.15 241.75 47.7 243.0 Q40.15 246.5 32.65 241.4 L32.3 235.85 28.7 247.25 31.1 247.25 31.9 244.35 34.1 245.3 Q41.85 249.2 49.0 245.8 L50.65 249.2 32.75 262.8 10.8 241.55 M217.4 235.6 L224.8 243.9 203.95 262.55 186.9 245.25 188.6 242.65 196.45 248.85 202.55 247.6 205.8 250.15 Q207.5 247.55 204.8 244.8 L203.15 242.8 202.85 242.45 202.35 242.25 201.85 242.05 201.4 242.3 Q200.95 242.65 200.9 243.15 200.8 244.0 201.05 244.9 L197.4 245.9 189.45 239.45 189.3 237.15 197.45 227.15 208.95 227.25 217.4 235.6" fill="#373a48" fill-rule="evenodd" stroke="none"/>
      <path d="M131.05 38.95 L118.65 46.95 109.2 37.4 121.6 31.3 131.05 38.95 M122.0 28.0 L106.8 35.25 119.1 11.05 121.25 11.05 132.55 36.25 122.0 28.0" fill="#64442f" fill-rule="evenodd" stroke="none"/>
    </g>
    <g id="shape5" transform="matrix(1.0, 0.0, 0.0, 1.0, -0.05, 0.0)">
      <path d="M40.95 2.45 L41.9 2.8 Q42.4 1.4 44.05 1.25 46.25 1.45 46.45 3.8 L46.45 6.35 48.8 8.45 Q56.9 16.5 57.2 28.65 56.85 40.75 48.8 48.85 42.05 55.65 32.45 56.95 L32.05 57.95 Q31.35 59.0 29.8 59.15 28.3 59.0 27.6 58.05 L27.2 57.2 Q16.0 56.45 8.4 48.85 3.45 43.9 1.4 37.45 -0.45 31.7 0.25 25.75 1.75 13.25 11.8 5.55 L12.4 3.05 Q13.25 0.65 15.6 1.55 16.3 1.85 16.4 2.8 L17.0 2.55 Q21.85 0.45 27.2 0.1 33.95 0.0 40.1 2.5 L40.95 2.45 M40.75 9.5 L41.65 9.15 41.65 3.8 40.95 3.4 Q39.9 3.3 39.45 4.1 L39.5 20.75 40.05 21.3 41.6 21.05 41.65 14.2 41.0 13.95 Q39.6 13.25 39.65 11.65 39.65 10.3 40.75 9.5 M43.6 13.8 L42.65 14.2 Q42.3 22.35 43.9 21.75 L44.95 21.3 44.95 2.65 Q44.35 2.05 43.6 2.4 42.9 2.55 42.75 3.3 L42.65 9.15 43.55 9.5 Q44.2 9.85 44.5 10.65 L44.55 12.55 Q44.25 13.35 43.6 13.8 M42.85 10.1 L41.65 10.1 43.85 12.05 42.85 10.1 M40.75 10.9 L40.5 11.65 Q40.7 13.2 42.15 13.3 L42.65 13.2 40.75 10.9 M33.35 54.6 L33.1 55.4 Q42.4 53.9 48.75 46.85 56.75 37.95 55.55 25.9 54.45 15.35 46.45 8.2 L46.45 9.2 46.45 11.55 Q53.05 18.45 53.3 28.6 53.05 39.1 46.05 46.1 40.85 51.3 33.75 52.75 L33.35 54.6 M34.15 50.65 L34.05 51.35 Q40.4 49.85 45.1 45.15 51.7 38.55 51.95 28.6 51.75 19.75 46.45 13.6 L46.45 14.6 Q46.75 17.8 46.0 20.7 45.25 23.6 42.2 21.75 L41.45 22.0 Q39.2 22.8 38.3 20.55 L33.3 21.2 33.3 23.05 33.95 23.4 Q35.1 23.95 34.9 25.15 L34.35 26.45 32.4 27.25 32.4 29.2 33.85 30.25 33.95 31.8 32.3 32.9 Q34.1 41.75 34.15 50.65 M38.25 4.0 L38.65 3.4 Q29.1 -0.05 19.35 3.1 L19.75 3.6 20.0 4.15 Q29.1 3.05 38.25 4.0 M25.35 51.1 L25.1 48.35 Q25.25 40.65 27.35 32.9 26.65 32.65 26.2 32.25 24.7 30.8 26.4 29.55 L26.9 29.2 26.9 27.25 Q25.3 27.3 24.75 25.95 L24.5 24.95 Q24.55 24.05 25.5 23.4 L26.0 23.05 26.0 21.35 19.95 20.65 Q19.2 22.95 16.85 21.95 L16.1 21.7 Q15.1 23.2 13.3 22.4 12.1 22.0 12.05 20.75 L11.8 13.3 11.8 12.35 Q5.45 18.9 5.2 28.6 5.45 38.55 12.05 45.15 17.6 50.7 25.5 51.75 L25.35 51.1 M16.8 15.6 L16.5 20.75 17.35 21.35 Q18.95 21.55 19.0 19.95 19.1 12.15 18.85 4.35 L18.65 3.7 17.7 3.35 16.6 3.85 16.95 9.95 Q17.9 10.35 18.3 11.4 L18.35 13.15 16.85 14.9 16.8 15.6 M38.2 19.4 L38.2 5.0 Q29.6 4.0 20.9 5.1 L20.0 5.2 20.1 19.4 Q29.1 21.65 38.2 19.4 M33.5 24.4 Q33.3 23.9 32.85 23.9 L27.1 23.4 Q24.95 24.0 26.25 25.85 L26.9 26.45 32.3 26.4 Q33.3 26.4 33.55 25.55 33.7 24.95 33.5 24.4 M27.15 21.35 L27.15 22.95 32.0 22.95 32.0 21.35 27.15 21.35 M15.1 9.8 L15.65 9.7 15.35 3.25 14.95 2.65 14.2 2.25 Q12.95 2.6 12.95 4.0 L13.1 20.6 Q13.1 21.5 14.2 21.7 15.6 21.55 15.55 20.15 L15.3 15.05 Q13.7 14.6 13.35 13.25 L13.3 11.85 Q13.6 10.25 15.1 9.8 M26.35 54.95 L25.85 53.15 Q17.2 52.25 11.1 46.1 3.0 37.75 4.15 26.1 5.05 16.85 11.8 10.5 L11.8 8.1 11.8 7.3 Q2.9 14.65 1.7 25.95 0.55 37.1 7.7 45.9 15.0 54.85 26.6 55.7 L26.35 54.95 M17.25 11.6 L16.6 10.8 15.15 10.8 17.3 13.05 17.25 11.6 M14.45 11.5 L14.2 12.25 Q14.3 13.7 15.85 13.9 L16.6 13.7 14.45 11.5 M27.3 30.4 L26.75 31.15 27.3 32.2 32.6 31.95 32.8 30.9 32.4 30.15 31.05 30.2 27.3 30.4 M31.25 29.1 L31.25 27.25 28.2 27.25 28.3 29.1 31.25 29.1 M32.6 42.15 Q32.15 37.5 31.2 32.9 L28.45 32.9 27.2 39.55 Q26.25 45.2 26.95 51.0 L27.15 52.3 27.15 52.25 Q27.35 49.85 29.75 49.65 31.9 49.85 32.3 51.85 33.05 47.05 32.6 42.15 M30.7 58.1 L32.0 53.55 Q31.35 54.95 29.75 54.85 27.85 54.65 27.35 53.05 L28.65 57.7 30.7 58.1 M29.0 53.7 L29.75 53.95 Q31.9 53.5 31.2 51.5 L29.0 53.7 M29.75 50.6 Q28.25 50.75 28.1 52.25 L28.35 53.05 30.55 50.85 29.75 50.6" fill="#212753" fill-rule="evenodd" stroke="none"/>
      <path d="M40.95 2.45 L40.1 2.5 Q33.95 0.0 27.2 0.1 L29.2 0.0 Q35.6 0.15 40.95 2.45 M46.45 9.2 L46.45 8.2 Q54.45 15.35 55.55 25.9 56.75 37.95 48.75 46.85 42.4 53.9 33.1 55.4 L33.35 54.6 Q44.1 52.5 50.45 43.3 55.05 36.65 54.95 28.6 54.75 17.0 46.45 9.2 M46.45 14.6 L46.45 13.6 Q51.75 19.75 51.95 28.6 51.7 38.55 45.1 45.15 40.4 49.85 34.05 51.35 L34.15 50.65 Q40.2 49.15 44.65 44.7 51.05 38.3 51.3 28.65 51.15 20.45 46.45 14.6 M19.75 3.6 L19.35 3.1 Q29.1 -0.05 38.65 3.4 L38.25 4.0 Q33.8 2.25 28.5 2.1 23.8 2.25 19.75 3.6 M25.35 51.1 L25.5 51.75 Q17.6 50.7 12.05 45.15 5.45 38.55 5.2 28.6 5.45 18.9 11.8 12.35 L11.8 13.3 Q6.1 19.55 5.85 28.65 6.1 38.3 12.5 44.7 17.85 50.0 25.35 51.1 M26.35 54.95 L26.6 55.7 Q15.0 54.85 7.7 45.9 0.55 37.1 1.7 25.95 2.9 14.65 11.8 7.3 L11.8 8.1 Q3.55 15.15 2.3 25.9 1.25 35.3 6.7 43.25 13.85 53.8 26.35 54.95" fill="#514f6f" fill-rule="evenodd" stroke="none"/>
      <path d="M41.0 13.95 L41.65 14.2 41.6 21.05 40.05 21.3 39.5 20.75 39.45 4.1 Q39.9 3.3 40.95 3.4 L41.65 3.8 41.65 9.15 40.75 9.5 40.4 4.85 Q39.7 5.45 39.65 6.45 39.35 12.5 39.85 18.55 39.95 19.55 40.65 19.75 41.55 19.1 41.5 17.7 L41.0 13.95 M43.55 9.5 L42.65 9.15 42.75 3.3 Q42.9 2.55 43.6 2.4 44.35 2.05 44.95 2.65 L44.95 21.3 43.9 21.75 Q42.3 22.35 42.65 14.2 L43.6 13.8 44.0 20.3 44.55 12.55 44.5 10.65 44.25 4.4 43.55 4.3 43.55 9.5 M36.15 9.6 Q34.9 7.5 32.4 7.85 29.75 8.15 27.1 7.8 24.95 7.25 23.1 8.3 20.7 10.35 22.5 12.35 24.25 14.4 26.55 15.0 L31.75 15.4 Q34.7 15.25 36.3 13.5 37.3 11.55 36.15 9.6 M27.5 24.1 L27.45 24.1 Q26.9 24.25 26.9 24.5 26.85 24.85 27.9 25.35 L30.85 25.25 Q31.6 24.85 31.6 24.5 31.5 24.1 30.4 23.85 L27.5 24.1 M27.15 21.35 L32.0 21.35 32.0 22.95 27.15 22.95 27.15 21.35 M33.5 24.4 Q33.7 24.95 33.55 25.55 33.3 26.4 32.3 26.4 L26.9 26.45 26.25 25.85 Q24.95 24.0 27.1 23.4 L32.85 23.9 Q33.3 23.9 33.5 24.4 M38.2 19.4 Q29.1 21.65 20.1 19.4 L20.0 5.2 20.9 5.1 Q29.6 4.0 38.2 5.0 L38.2 19.4 M16.95 9.95 L16.6 3.85 17.7 3.35 18.65 3.7 18.85 4.35 Q19.1 12.15 19.0 19.95 18.95 21.55 17.35 21.35 L16.5 20.75 16.8 15.6 17.85 19.6 18.35 13.15 18.3 11.4 17.45 5.4 16.95 9.95 M15.3 15.05 L15.55 20.15 Q15.6 21.55 14.2 21.7 13.1 21.5 13.1 20.6 L12.95 4.0 Q12.95 2.6 14.2 2.25 L14.95 2.65 15.35 3.25 15.65 9.7 15.1 9.8 14.3 3.55 13.4 4.2 13.3 11.85 13.35 13.25 14.15 20.3 14.85 20.25 15.3 15.05 M31.05 30.2 L32.4 30.15 32.8 30.9 32.6 31.95 27.3 32.2 26.75 31.15 27.3 30.4 27.4 31.15 31.25 31.35 31.5 30.7 31.05 30.2 M31.25 29.1 L28.3 29.1 28.2 27.25 31.25 27.25 31.25 29.1 M27.9 48.35 Q29.05 49.75 30.55 48.65 32.0 47.2 31.6 44.95 31.65 41.3 30.8 37.75 30.7 36.45 29.75 35.6 28.7 35.65 28.3 38.1 27.95 40.5 27.95 41.5 26.8 45.1 27.9 48.35 M32.6 42.15 Q33.05 47.05 32.3 51.85 31.9 49.85 29.75 49.65 27.35 49.85 27.15 52.25 L27.15 52.3 26.95 51.0 Q26.25 45.2 27.2 39.55 L28.45 32.9 31.2 32.9 Q32.15 37.5 32.6 42.15 M30.7 58.1 L28.65 57.7 27.35 53.05 Q27.85 54.65 29.75 54.85 31.35 54.95 32.0 53.55 L30.7 58.1 M29.1 55.9 Q28.65 57.55 30.25 57.4 31.35 56.6 30.65 55.85 L29.1 55.9" fill="#69839d" fill-rule="evenodd" stroke="none"/>
      <path d="M40.75 9.5 Q39.65 10.3 39.65 11.65 39.6 13.25 41.0 13.95 L41.5 17.7 Q41.55 19.1 40.65 19.75 39.95 19.55 39.85 18.55 39.35 12.5 39.65 6.45 39.7 5.45 40.4 4.85 L40.75 9.5 M43.55 9.5 L43.55 4.3 44.25 4.4 44.5 10.65 Q44.2 9.85 43.55 9.5 M44.55 12.55 L44.0 20.3 43.6 13.8 Q44.25 13.35 44.55 12.55 M34.2 11.4 L33.9 10.25 26.9 9.5 Q25.3 9.3 24.4 10.6 24.5 12.95 27.0 13.65 31.6 14.85 34.2 11.4 M36.15 9.6 Q37.3 11.55 36.3 13.5 34.7 15.25 31.75 15.4 L26.55 15.0 Q24.25 14.4 22.5 12.35 20.7 10.35 23.1 8.3 24.95 7.25 27.1 7.8 29.75 8.15 32.4 7.85 34.9 7.5 36.15 9.6 M27.5 24.1 L30.4 23.85 Q31.5 24.1 31.6 24.5 31.6 24.85 30.85 25.25 L27.9 25.35 Q26.85 24.85 26.9 24.5 26.9 24.25 27.45 24.1 L27.5 24.1 M16.8 15.6 L16.85 14.9 18.35 13.15 17.85 19.6 16.8 15.6 M18.3 11.4 Q17.9 10.35 16.95 9.95 L17.45 5.4 18.3 11.4 M15.3 15.05 L14.85 20.25 14.15 20.3 13.35 13.25 Q13.7 14.6 15.3 15.05 M13.3 11.85 L13.4 4.2 14.3 3.55 15.1 9.8 Q13.6 10.25 13.3 11.85 M27.3 30.4 L31.05 30.2 31.5 30.7 31.25 31.35 27.4 31.15 27.3 30.4 M27.9 48.35 Q26.8 45.1 27.95 41.5 27.95 40.5 28.3 38.1 28.7 35.65 29.75 35.6 30.7 36.45 30.8 37.75 31.65 41.3 31.6 44.95 32.0 47.2 30.55 48.65 29.05 49.75 27.9 48.35 M29.1 55.9 L30.65 55.85 Q31.35 56.6 30.25 57.4 28.65 57.55 29.1 55.9" fill="#899db1" fill-rule="evenodd" stroke="none"/>
      <path d="M40.75 10.9 L42.65 13.2 42.15 13.3 Q40.7 13.2 40.5 11.65 L40.75 10.9 M42.85 10.1 L43.85 12.05 41.65 10.1 42.85 10.1 M14.45 11.5 L16.6 13.7 15.85 13.9 Q14.3 13.7 14.2 12.25 L14.45 11.5 M17.25 11.6 L17.3 13.05 15.15 10.8 16.6 10.8 17.25 11.6 M29.75 50.6 L30.55 50.85 28.35 53.05 28.1 52.25 Q28.25 50.75 29.75 50.6 M29.0 53.7 L31.2 51.5 Q31.9 53.5 29.75 53.95 L29.0 53.7" fill="#a1b1c1" fill-rule="evenodd" stroke="none"/>
      <path d="M33.35 54.6 L33.75 52.75 Q40.85 51.3 46.05 46.1 53.05 39.1 53.3 28.6 53.05 18.45 46.45 11.55 L46.45 9.2 Q54.75 17.0 54.95 28.6 55.05 36.65 50.45 43.3 44.1 52.5 33.35 54.6 M45.35 22.9 Q47.1 21.7 46.9 19.6 L46.55 17.25 Q49.55 22.9 49.55 29.45 49.05 40.8 38.0 44.45 L34.9 45.55 34.8 45.15 34.35 43.45 Q38.75 41.7 42.1 38.05 45.75 33.5 45.85 27.7 45.85 25.2 45.35 22.9 M38.25 4.0 Q29.1 3.05 20.0 4.15 L19.75 3.6 Q23.8 2.25 28.5 2.1 33.8 2.25 38.25 4.0 M24.25 45.1 Q24.15 46.55 24.3 47.8 17.65 47.8 13.35 43.15 8.2 37.55 7.7 29.6 7.2 22.7 11.3 17.35 L11.35 17.65 Q11.15 19.95 11.85 21.75 7.8 29.5 12.4 37.1 16.5 43.85 24.25 45.1 M11.8 8.1 L11.8 10.5 Q5.05 16.85 4.15 26.1 3.0 37.75 11.1 46.1 17.2 52.25 25.85 53.15 L26.35 54.95 Q13.85 53.8 6.7 43.25 1.25 35.3 2.3 25.9 3.55 15.15 11.8 8.1" fill="#afc1d9" fill-rule="evenodd" stroke="none"/>
      <path d="M34.15 50.65 Q34.1 41.75 32.3 32.9 L33.95 31.8 34.35 43.45 34.8 45.15 34.9 45.55 38.0 44.45 Q49.05 40.8 49.55 29.45 49.55 22.9 46.55 17.25 L46.9 19.6 Q47.1 21.7 45.35 22.9 L35.9 22.55 34.9 25.15 Q35.1 23.95 33.95 23.4 L33.3 23.05 33.3 21.2 38.3 20.55 Q39.2 22.8 41.45 22.0 L42.2 21.75 Q45.25 23.6 46.0 20.7 46.75 17.8 46.45 14.6 51.15 20.45 51.3 28.65 51.05 38.3 44.65 44.7 40.2 49.15 34.15 50.65 M33.85 30.25 L32.4 29.2 32.4 27.25 34.35 26.45 33.6 28.35 33.85 30.25 M24.25 45.1 L24.95 39.9 Q25.7 35.8 24.45 31.95 L25.5 28.35 23.3 25.55 24.45 22.3 Q22.8 22.45 21.25 23.1 17.0 25.0 12.6 23.2 L11.85 21.75 Q11.15 19.95 11.35 17.65 L11.3 17.35 Q7.2 22.7 7.7 29.6 8.2 37.55 13.35 43.15 17.65 47.8 24.3 47.8 24.15 46.55 24.25 45.1 M11.8 13.3 L12.05 20.75 Q12.1 22.0 13.3 22.4 15.1 23.2 16.1 21.7 L16.85 21.95 Q19.2 22.95 19.95 20.65 L26.0 21.35 26.0 23.05 25.5 23.4 Q24.55 24.05 24.5 24.95 L24.75 25.95 Q25.3 27.3 26.9 27.25 L26.9 29.2 26.4 29.55 Q24.7 30.8 26.2 32.25 26.65 32.65 27.35 32.9 25.25 40.65 25.1 48.35 L25.35 51.1 Q17.85 50.0 12.5 44.7 6.1 38.3 5.85 28.65 6.1 19.55 11.8 13.3" fill="#9ab4cc" fill-rule="evenodd" stroke="none"/>
      <path d="M33.95 31.8 L33.85 30.25 33.6 28.35 34.35 26.45 34.9 25.15 35.9 22.55 45.35 22.9 Q45.85 25.2 45.85 27.7 45.75 33.5 42.1 38.05 38.75 41.7 34.35 43.45 L33.95 31.8 M11.85 21.75 L12.6 23.2 Q17.0 25.0 21.25 23.1 22.8 22.45 24.45 22.3 L23.3 25.55 25.5 28.35 24.45 31.95 Q25.7 35.8 24.95 39.9 L24.25 45.1 Q16.5 43.85 12.4 37.1 7.8 29.5 11.85 21.75" fill="#c5d3e3" fill-rule="evenodd" stroke="none"/>
      <path d="M34.2 11.4 Q31.6 14.85 27.0 13.65 24.5 12.95 24.4 10.6 25.3 9.3 26.9 9.5 L33.9 10.25 34.2 11.4" fill="#a1b3bf" fill-rule="evenodd" stroke="none"/>
    </g>
  </defs>
</svg>
