<?xml version="1.0" encoding="UTF-8" standalone="no"?>
<svg xmlns:xlink="http://www.w3.org/1999/xlink" height="433.1px" width="327.95px" xmlns="http://www.w3.org/2000/svg">
  <g transform="matrix(1.0, 0.0, 0.0, 1.0, 164.0, 433.1)">
    <use height="36.0" transform="matrix(1.0, 0.0, 0.0, 1.0, -79.5, -36.0)" width="159.0" xlink:href="#shape0"/>
    <use height="96.65" transform="matrix(1.0, 0.0, 0.0, 1.0, -27.1, -108.0)" width="54.2" xlink:href="#shape1"/>
    <use height="37.0" transform="matrix(1.0, 0.0, 0.0, 1.0, -91.0, -94.45)" width="185.25" xlink:href="#shape2"/>
    <use height="17.5" transform="matrix(1.0, 0.0, 0.0, 1.0, -34.2, -81.95)" width="73.9" xlink:href="#text0"/>
    <use height="335.15" transform="matrix(1.0, 0.0, 0.0, 1.0, -147.8, -433.1)" width="295.15" xlink:href="#shape3"/>
    <use height="272.4" transform="matrix(1.134, 0.0, 0.0, 1.134, -125.2009, -408.6009)" width="223.6" xlink:href="#shape4"/>
    <use height="59.15" transform="matrix(1.0, 0.0, 0.0, 1.0, -29.1, -236.2)" width="57.15" xlink:href="#shape5"/>
  </g>
  <defs>
    <g id="shape0" transform="matrix(1.0, 0.0, 0.0, 1.0, 0.0, 0.0)">
      <path d="M135.7 30.75 Q113.3 35.8 79.5 36.0 45.7 35.8 23.3 30.75 0.85 25.65 0.0 18.0 0.85 10.35 23.3 5.25 45.7 0.2 79.5 0.0 113.3 0.2 135.7 5.25 158.15 10.35 159.0 18.0 158.15 25.65 135.7 30.75" fill="#000000" fill-opacity="0.39607844" fill-rule="evenodd" stroke="none"/>
    </g>
    <g id="shape1" transform="matrix(1.0, 0.0, 0.0, 1.0, 0.0, 0.0)">
      <path d="M5.85 93.35 Q-0.15 90.4 0.0 90.0 L0.0 0.0 54.2 0.0 54.2 90.0 Q54.15 90.4 46.95 93.35 39.7 96.25 25.65 96.65 11.8 96.25 5.85 93.35" fill="url(#gradient0)" fill-rule="evenodd" stroke="none"/>
    </g>
    <linearGradient gradientTransform="matrix(0.0303, 0.0, 0.0, 0.0303, 25.7, 48.35)" gradientUnits="userSpaceOnUse" id="gradient0" spreadMethod="pad" x1="-819.2" x2="819.2">
      <stop offset="0.0" stop-color="#565656"/>
      <stop offset="0.403921568627451" stop-color="#9a9999"/>
      <stop offset="0.592156862745098" stop-color="#dbdbda"/>
      <stop offset="0.7803921568627451" stop-color="#9b9a9a"/>
      <stop offset="1.0" stop-color="#151213"/>
    </linearGradient>
    <g id="shape2" transform="matrix(1.0, 0.0, 0.0, 1.0, -0.05, 0.0)">
      <path d="M185.25 8.2 L185.3 8.25 185.25 8.25 185.25 8.2 M1.9 5.2 L2.3 2.85 18.75 2.05 59.05 0.7 Q83.4 0.05 109.4 0.3 115.1 0.55 118.85 1.6 122.65 2.7 128.15 3.0 L129.3 1.5 Q130.05 0.2 130.5 0.0 160.7 0.5 181.5 3.85 L183.45 6.1 103.3 3.5 Q60.0 3.6 6.5 5.1 L1.9 5.2 M176.25 8.0 L176.45 8.4 177.65 11.45 178.5 13.65 Q179.3 12.8 179.7 10.9 179.7 9.8 179.25 9.1 L179.9 9.55 Q180.65 10.3 180.7 11.75 179.85 15.7 177.15 15.05 175.8 14.75 175.1 13.85 L176.15 14.2 177.35 14.25 176.45 12.35 174.9 8.8 174.8 8.5 174.95 8.35 Q175.75 7.8 176.25 8.0 M178.25 27.3 L179.85 27.15 Q180.5 27.3 181.25 27.95 183.6 31.2 181.35 32.8 180.2 33.6 179.1 33.5 L180.8 32.15 178.8 31.55 175.1 30.4 175.2 29.1 175.2 29.0 175.25 28.7 175.4 28.75 175.85 28.9 178.95 30.05 181.1 30.85 Q181.0 29.65 179.9 28.15 179.05 27.45 178.25 27.3 M9.35 6.95 L10.7 10.45 11.7 12.9 Q12.6 11.95 13.05 9.85 13.05 8.55 12.5 7.75 13.85 8.35 14.15 10.05 L13.75 12.35 Q12.6 15.1 10.15 14.55 8.75 14.25 8.0 13.4 L7.85 13.2 9.0 13.6 10.35 13.65 9.35 11.4 7.6 7.45 8.75 6.6 9.2 6.55 9.35 6.95 M9.4 25.3 Q11.0 24.35 12.9 25.8 15.0 28.35 14.35 30.1 L13.4 31.3 Q12.2 32.25 10.95 32.25 L12.75 30.6 10.4 30.05 6.2 29.05 6.15 27.55 6.15 27.1 6.35 27.15 6.9 27.35 10.45 28.4 12.95 29.1 Q12.75 27.8 11.35 26.15 10.35 25.35 9.4 25.3" fill="#47525f" fill-rule="evenodd" stroke="none"/>
      <path d="M0.05 36.7 L0.75 22.9 Q1.05 14.95 1.6 7.0 L1.9 5.2 6.5 5.1 3.2 8.3 1.95 36.45 0.05 36.7" fill="#cdcdcd" fill-rule="evenodd" stroke="none"/>
      <path d="M13.75 12.35 L14.15 10.05 26.45 10.0 13.75 12.35 M8.0 13.4 L7.0 13.55 7.2 26.2 6.35 27.15 6.15 27.1 6.15 27.55 Q5.15 29.5 6.75 31.55 8.95 33.2 10.95 32.25 12.2 32.25 13.4 31.3 L14.35 30.1 16.45 30.2 36.65 31.3 56.5 32.6 Q50.4 32.9 38.0 32.9 L15.1 32.75 3.85 32.6 5.25 10.05 6.0 10.05 Q6.15 12.3 7.85 13.2 L8.0 13.4" fill="#848484" fill-rule="evenodd" stroke="none"/>
      <path d="M175.1 13.85 Q175.8 14.75 177.15 15.05 179.85 15.7 180.7 11.75 180.65 10.3 179.9 9.55 L180.85 9.65 179.85 27.15 178.25 27.3 177.7 27.3 177.8 15.2 160.95 13.3 Q144.35 11.4 115.0 6.95 144.55 7.2 162.45 8.35 L174.1 9.15 Q173.65 9.7 173.4 10.6 173.45 12.95 175.1 13.85 M175.3 32.3 L137.05 30.55 175.2 29.0 175.2 29.1 Q174.3 30.55 175.3 32.3" fill="#a09fa0" fill-rule="evenodd" stroke="none"/>
      <path d="M176.45 8.4 L176.25 8.0 176.9 7.95 Q178.55 8.05 179.25 9.1 179.7 9.8 179.7 10.9 179.3 12.8 178.5 13.65 L177.65 11.45 178.05 10.25 Q178.0 8.55 176.45 8.4 M174.8 8.5 L174.9 8.8 Q174.35 9.2 174.15 10.05 174.2 11.9 175.85 12.3 L176.45 12.35 177.35 14.25 176.15 14.2 175.1 13.85 Q173.45 12.95 173.4 10.6 173.65 9.7 174.1 9.15 L174.8 8.5 M177.7 27.3 L178.25 27.3 Q179.05 27.45 179.9 28.15 181.0 29.65 181.1 30.85 L178.95 30.05 178.3 28.9 Q177.0 27.8 175.85 28.9 L175.4 28.75 175.8 28.3 Q176.7 27.35 177.7 27.3 M179.1 33.5 Q177.3 34.2 175.5 32.65 L175.3 32.3 Q174.3 30.55 175.2 29.1 L175.1 30.4 Q175.25 32.1 176.95 32.35 178.0 32.25 178.8 31.55 L180.8 32.15 179.1 33.5 M10.7 10.45 L11.2 9.05 Q11.15 7.15 9.35 6.95 L9.2 6.55 9.9 6.5 Q11.75 6.6 12.5 7.75 13.05 8.55 13.05 9.85 12.6 11.95 11.7 12.9 L10.7 10.45 M7.2 26.2 Q8.2 25.2 9.4 25.3 10.35 25.35 11.35 26.15 12.75 27.8 12.95 29.1 L10.45 28.4 Q9.75 26.65 8.05 26.6 L6.9 27.35 6.35 27.15 7.2 26.2 M6.0 10.05 L5.95 9.55 Q6.6 7.0 8.75 6.6 L7.6 7.45 Q7.0 7.9 6.75 8.85 6.8 10.95 8.7 11.35 L9.35 11.4 10.35 13.65 9.0 13.6 7.85 13.2 Q6.15 12.3 6.0 10.05 M6.15 27.55 L6.2 29.05 Q6.45 30.9 8.2 31.1 9.7 31.2 10.4 30.05 L12.75 30.6 10.95 32.25 Q8.95 33.2 6.75 31.55 5.15 29.5 6.15 27.55" fill="#9c9c9c" fill-rule="evenodd" stroke="none"/>
      <path d="M174.9 8.8 L176.45 12.35 175.85 12.3 Q174.2 11.9 174.15 10.05 174.35 9.2 174.9 8.8 M177.65 11.45 L176.45 8.4 Q178.0 8.55 178.05 10.25 L177.65 11.45 M175.85 28.9 Q177.0 27.8 178.3 28.9 L178.95 30.05 175.85 28.9 M175.1 30.4 L178.8 31.55 Q178.0 32.25 176.95 32.35 175.25 32.1 175.1 30.4 M9.35 6.95 Q11.15 7.15 11.2 9.05 L10.7 10.45 9.35 6.95 M9.35 11.4 L8.7 11.35 Q6.8 10.95 6.75 8.85 7.0 7.9 7.6 7.45 L9.35 11.4 M10.45 28.4 L6.9 27.35 8.05 26.6 Q9.75 26.65 10.45 28.4 M6.2 29.05 L10.4 30.05 Q9.7 31.2 8.2 31.1 6.45 30.9 6.2 29.05" fill="#d5d4d4" fill-rule="evenodd" stroke="none"/>
      <path d="M183.45 6.1 L185.3 6.25 185.25 8.2 185.25 8.25 185.1 13.45 184.65 27.3 184.3 36.25 Q157.35 34.75 133.85 35.55 L89.2 37.0 Q65.15 37.15 43.55 35.85 22.0 34.5 0.05 36.75 L0.05 36.7 1.95 36.45 3.2 8.3 6.5 5.1 Q60.0 3.6 103.3 3.5 L183.45 6.1 M176.25 8.0 Q175.75 7.8 174.95 8.35 L174.8 8.5 174.1 9.15 162.45 8.35 Q144.55 7.2 115.0 6.95 144.35 11.4 160.95 13.3 L177.8 15.2 177.7 27.3 Q176.7 27.35 175.8 28.3 L175.4 28.75 175.25 28.7 175.2 29.0 137.05 30.55 175.3 32.3 175.5 32.65 Q177.3 34.2 179.1 33.5 180.2 33.6 181.35 32.8 183.6 31.2 181.25 27.95 180.5 27.3 179.85 27.15 L180.85 9.65 179.9 9.55 179.25 9.1 Q178.55 8.05 176.9 7.95 L176.25 8.0 M12.5 7.75 Q11.75 6.6 9.9 6.5 L9.2 6.55 8.75 6.6 Q6.6 7.0 5.95 9.55 L6.0 10.05 5.25 10.05 3.85 32.6 15.1 32.75 38.0 32.9 Q50.4 32.9 56.5 32.6 L36.65 31.3 16.45 30.2 14.35 30.1 Q15.0 28.35 12.9 25.8 11.0 24.35 9.4 25.3 8.2 25.2 7.2 26.2 L7.0 13.55 8.0 13.4 Q8.75 14.25 10.15 14.55 12.6 15.1 13.75 12.35 L26.45 10.0 14.15 10.05 Q13.85 8.35 12.5 7.75" fill="url(#gradient1)" fill-rule="evenodd" stroke="none"/>
    </g>
    <linearGradient gradientTransform="matrix(0.1131, 0.0, 0.0, 0.0204, 92.65, 20.25)" gradientUnits="userSpaceOnUse" id="gradient1" spreadMethod="pad" x1="-819.2" x2="819.2">
      <stop offset="0.0" stop-color="#9a9a9a"/>
      <stop offset="1.0" stop-color="#ffffff"/>
    </linearGradient>
    <g id="text0" transform="matrix(1.0, 0.0, 0.0, 1.0, -43.85, -5.75)">
      <g transform="matrix(1.0, 0.0, 0.0, 1.0, 42.55, 0.0)">
        <use fill="#000000" height="17.5" transform="matrix(0.4746, 0.0, 0.0, 0.4746, 0.0, 21.0)" width="73.9" xlink:href="#font_______W7_B0"/>
        <use fill="#000000" height="17.5" transform="matrix(0.4746, 0.0, 0.0, 0.4746, 16.85, 21.0)" width="73.9" xlink:href="#font_______W7_i0"/>
        <use fill="#000000" height="17.5" transform="matrix(0.4746, 0.0, 0.0, 0.4746, 25.65, 21.0)" width="73.9" xlink:href="#font_______W7_g0"/>
        <use fill="#000000" height="17.5" transform="matrix(0.4746, 0.0, 0.0, 0.4746, 38.95, 21.0)" width="73.9" xlink:href="#font_______W7_w0"/>
        <use fill="#000000" height="17.5" transform="matrix(0.4746, 0.0, 0.0, 0.4746, 53.8, 21.0)" width="73.9" xlink:href="#font_______W7_i0"/>
        <use fill="#000000" height="17.5" transform="matrix(0.4746, 0.0, 0.0, 0.4746, 62.6, 21.0)" width="73.9" xlink:href="#font_______W7_g0"/>
      </g>
    </g>
    <g id="font_______W7_B0">
      <path d="M25.75 -11.3 L25.75 -11.3 Q25.75 -8.4 21.9 -8.4 18.5 -8.4 14.4 -12.15 L12.5 -7.75 11.95 -13.45 Q15.45 -15.85 18.95 -15.85 21.25 -15.85 23.3 -14.7 25.75 -13.4 25.75 -11.3 M23.15 -23.7 L23.15 -23.7 Q23.15 -22.05 21.2 -20.35 L19.0 -20.45 Q15.05 -20.45 11.45 -18.65 L10.85 -24.45 Q15.3 -26.5 18.75 -26.5 L21.55 -25.95 Q23.15 -25.2 23.15 -23.7 M33.9 -10.25 L33.9 -10.25 Q33.9 -14.55 29.85 -17.3 32.05 -20.45 32.05 -23.5 32.05 -27.75 28.35 -29.85 25.45 -31.6 20.9 -31.6 14.3 -31.6 10.4 -29.6 L10.2 -31.55 5.3 -32.15 2.55 0.05 13.15 -1.1 13.05 -2.3 Q17.4 -0.6 21.5 -0.6 26.1 -0.6 29.75 -3.05 33.9 -5.85 33.9 -10.25" fill-rule="evenodd" stroke="none"/>
    </g>
    <g id="font_______W7_i0">
      <path d="M11.6 -20.75 L11.6 -20.75 6.75 -21.45 4.45 0.05 14.3 -1.4 11.6 -20.75 M11.9 -31.5 L11.9 -31.5 6.5 -32.15 4.9 -24.95 13.2 -26.1 11.9 -31.5" fill-rule="evenodd" stroke="none"/>
    </g>
    <g id="font_______W7_g0">
      <path d="M21.25 -12.75 L21.25 -12.75 21.05 -10.5 18.9 -14.7 Q15.2 -11.7 11.9 -11.7 10.85 -11.7 10.0 -12.55 9.05 -13.45 9.05 -14.45 9.05 -16.75 13.35 -16.75 15.6 -16.75 18.05 -15.7 20.3 -14.7 21.2 -13.55 L21.25 -12.75 M26.3 -10.4 L26.3 -10.4 Q26.3 -15.45 24.2 -21.5 L20.0 -20.3 20.3 -19.15 Q16.35 -21.45 12.1 -21.45 8.15 -21.45 5.4 -19.3 2.35 -16.95 2.35 -13.2 2.35 -9.45 5.85 -7.35 8.8 -5.6 12.75 -5.6 16.55 -5.6 19.75 -6.9 17.8 -3.95 13.25 -3.95 8.55 -3.95 4.75 -6.35 L1.8 2.9 Q6.7 4.75 11.2 4.75 18.25 4.75 22.25 0.65 26.3 -3.4 26.3 -10.4" fill-rule="evenodd" stroke="none"/>
    </g>
    <g id="font_______W7_w0">
      <path d="M23.1 -21.4 L23.1 -21.4 20.35 -10.05 16.6 -20.6 13.9 -21.45 9.35 -10.05 4.1 -21.35 0.5 -19.7 8.35 0.05 11.1 -0.5 14.9 -12.4 19.2 0.05 22.05 -0.55 31.2 -17.75 23.1 -21.4" fill-rule="evenodd" stroke="none"/>
    </g>
    <g id="shape3" transform="matrix(1.0, 0.0, 0.0, 1.0, 17.65, 30.05)">
      <path d="M182.7 -16.9 L185.25 -3.45 190.1 21.9 193.05 36.75 199.65 44.1 210.75 56.0 216.55 62.25 211.25 71.35 Q206.5 79.55 204.7 85.4 L219.35 92.85 244.0 105.4 267.25 117.2 277.5 122.4 273.6 290.4 254.35 305.1 15.8 305.1 -5.4 287.05 -17.65 186.4 5.05 130.9 18.2 119.8 43.55 98.5 60.25 84.6 58.65 75.2 56.6 63.6 55.65 57.95 61.0 50.4 71.05 36.1 76.75 27.95 81.45 13.65 89.8 -11.95 94.2 -25.65 96.05 -30.05 182.7 -16.9" fill="#47525f" fill-rule="evenodd" stroke="none"/>
      <path d="M271.45 184.5 L263.85 288.5 250.75 302.15 18.5 302.15 12.5 296.1 271.45 184.5" fill="#9c9c9c" fill-rule="evenodd" stroke="none"/>
      <path d="M209.55 63.95 L199.55 93.4 270.9 126.3 271.45 184.45 12.5 296.0 0.8 284.15 -11.15 181.75 14.8 128.15 51.45 99.6 209.55 63.95" fill="#bab9ba" fill-rule="evenodd" stroke="none"/>
      <path d="M209.7 63.7 L209.65 64.05 51.5 99.65 67.3 87.35 62.45 59.35 82.5 26.4 100.2 -23.15 177.65 -10.8 191.65 44.1 209.7 63.7" fill="#9c9c9c" fill-rule="evenodd" stroke="none"/>
      <path d="M103.55 -1.65 L112.6 -11.2 114.3 -9.8 105.7 -0.05 103.55 -1.65" fill="#57565b" fill-rule="evenodd" stroke="none"/>
      <path d="M115.95 -5.6 L115.95 -5.25 Q115.2 0.5 109.15 1.0 107.25 0.95 105.65 0.0 L105.65 -2.25 110.65 -5.8 114.65 -10.0 115.65 -8.2 115.95 -8.05 115.95 -5.7 115.95 -5.6" fill="#47525f" fill-rule="evenodd" stroke="none"/>
      <path d="M103.55 -1.6 L103.55 -4.05 112.6 -13.45 112.6 -11.15 103.55 -1.6" fill="#47525f" fill-rule="evenodd" stroke="none"/>
      <path d="M102.25 -7.75 L103.6 -4.85 103.6 -1.55 Q102.0 -4.2 102.25 -5.05 L102.25 -7.75" fill="#79818b" fill-rule="evenodd" stroke="none"/>
      <path d="M107.3 -11.25 Q110.5 -13.4 112.2 -13.8 L112.6 -13.5 103.6 -4.1 103.2 -4.65 Q103.05 -7.55 107.3 -11.25" fill="#d0cfd0" fill-rule="evenodd" stroke="none"/>
      <path d="M102.25 -8.0 Q103.05 -13.8 109.05 -14.6 110.8 -14.6 112.25 -13.8 110.6 -13.4 107.3 -11.25 103.1 -7.55 103.2 -4.7 102.3 -6.2 102.25 -8.0" fill="#e9e9eb" fill-rule="evenodd" stroke="none"/>
      <path d="M113.15 -4.55 Q111.4 -2.7 108.65 -2.4 L105.65 -2.2 114.65 -11.65 Q115.4 -8.95 113.15 -4.55" fill="#bab9ba" fill-rule="evenodd" stroke="none"/>
      <path d="M115.95 -7.8 Q115.4 -1.8 109.15 -1.2 107.25 -1.25 105.65 -2.2 L108.6 -2.4 Q111.25 -2.7 113.0 -4.55 115.3 -8.95 114.65 -11.65 115.95 -10.0 115.95 -7.8" fill="#b0aeb3" fill-rule="evenodd" stroke="none"/>
      <path d="M-2.5 190.8 L6.55 181.25 8.25 182.65 -0.35 192.4 -2.5 190.8" fill="#57565b" fill-rule="evenodd" stroke="none"/>
      <path d="M9.9 186.8 L9.9 187.15 Q9.15 192.9 3.1 193.4 1.2 193.35 -0.4 192.4 L-0.4 190.15 4.6 186.6 8.6 182.4 9.6 184.2 9.9 184.35 9.9 186.7 9.9 186.8" fill="#47525f" fill-rule="evenodd" stroke="none"/>
      <path d="M-2.5 190.75 L-2.5 188.3 6.55 178.9 6.55 181.2 -2.5 190.75" fill="#47525f" fill-rule="evenodd" stroke="none"/>
      <path d="M-3.8 184.6 L-2.45 187.5 -2.45 190.8 Q-4.05 188.15 -3.8 187.3 L-3.8 184.6" fill="#79818b" fill-rule="evenodd" stroke="none"/>
      <path d="M1.25 181.2 Q4.45 179.05 6.15 178.65 L6.55 178.95 -2.45 188.35 -2.85 187.8 Q-3.0 184.9 1.25 181.2" fill="#d0cfd0" fill-rule="evenodd" stroke="none"/>
      <path d="M-3.9 184.45 Q-3.1 178.65 2.9 177.85 4.65 177.85 6.1 178.65 4.45 179.05 1.15 181.2 -3.05 184.9 -2.95 187.75 -3.85 186.25 -3.9 184.45" fill="#e9e9eb" fill-rule="evenodd" stroke="none"/>
      <path d="M7.1 187.9 Q5.35 189.75 2.6 190.05 L-0.4 190.25 8.6 180.8 Q9.35 183.5 7.1 187.9" fill="#bab9ba" fill-rule="evenodd" stroke="none"/>
      <path d="M9.9 184.65 Q9.35 190.65 3.1 191.25 1.2 191.2 -0.4 190.25 L2.55 190.05 Q5.2 189.75 6.95 187.9 9.25 183.5 8.6 180.8 9.9 182.45 9.9 184.65" fill="#b0aeb3" fill-rule="evenodd" stroke="none"/>
      <path d="M248.45 140.35 L257.5 130.8 259.2 132.2 250.6 141.95 248.45 140.35" fill="#57565b" fill-rule="evenodd" stroke="none"/>
      <path d="M260.9 136.4 L260.9 136.75 Q260.15 142.5 254.1 143.0 252.2 142.95 250.6 142.0 L250.6 139.75 255.6 136.2 259.6 132.0 260.6 133.8 260.9 133.95 260.9 136.3 260.9 136.4" fill="#47525f" fill-rule="evenodd" stroke="none"/>
      <path d="M248.45 140.35 L248.45 137.9 257.5 128.5 257.5 130.8 248.45 140.35" fill="#47525f" fill-rule="evenodd" stroke="none"/>
      <path d="M247.05 134.2 L248.4 137.1 248.4 140.4 Q246.8 137.75 247.05 136.9 L247.05 134.2" fill="#79818b" fill-rule="evenodd" stroke="none"/>
      <path d="M252.2 130.7 Q255.4 128.55 257.1 128.15 L257.5 128.45 248.5 137.85 248.1 137.3 Q247.95 134.4 252.2 130.7" fill="#d0cfd0" fill-rule="evenodd" stroke="none"/>
      <path d="M247.05 134.0 Q247.85 128.2 253.85 127.4 255.6 127.4 257.05 128.2 255.4 128.6 252.1 130.75 247.9 134.45 248.0 137.3 247.1 135.8 247.05 134.0" fill="#e9e9eb" fill-rule="evenodd" stroke="none"/>
      <path d="M258.1 137.4 Q256.35 139.25 253.6 139.55 L250.6 139.75 259.6 130.3 Q260.35 133.0 258.1 137.4" fill="#bab9ba" fill-rule="evenodd" stroke="none"/>
      <path d="M260.9 134.15 Q260.35 140.15 254.1 140.75 252.2 140.7 250.6 139.75 L253.55 139.55 Q256.2 139.25 257.95 137.4 260.25 133.0 259.6 130.3 260.9 131.95 260.9 134.15" fill="#b0aeb3" fill-rule="evenodd" stroke="none"/>
      <path d="M239.75 292.75 L248.8 283.2 250.5 284.6 241.9 294.35 239.75 292.75" fill="#57565b" fill-rule="evenodd" stroke="none"/>
      <path d="M252.15 288.8 L252.15 289.15 Q251.4 294.9 245.35 295.4 243.45 295.35 241.85 294.4 L241.85 292.15 246.85 288.6 250.85 284.4 251.85 286.2 252.15 286.35 252.15 288.7 252.15 288.8" fill="#47525f" fill-rule="evenodd" stroke="none"/>
      <path d="M239.75 292.8 L239.75 290.35 248.8 280.95 248.8 283.25 239.75 292.8" fill="#47525f" fill-rule="evenodd" stroke="none"/>
      <path d="M238.4 286.6 L239.75 289.5 239.75 292.8 Q238.15 290.15 238.4 289.3 L238.4 286.6" fill="#79818b" fill-rule="evenodd" stroke="none"/>
      <path d="M243.45 283.2 Q246.65 281.05 248.35 280.65 L248.75 280.95 239.75 290.35 239.35 289.8 Q239.2 286.9 243.45 283.2" fill="#d0cfd0" fill-rule="evenodd" stroke="none"/>
      <path d="M238.4 286.45 Q239.2 280.65 245.2 279.85 246.95 279.85 248.4 280.65 246.75 281.05 243.45 283.2 239.25 286.9 239.35 289.75 238.45 288.25 238.4 286.45" fill="#e9e9eb" fill-rule="evenodd" stroke="none"/>
      <path d="M249.35 289.85 Q247.6 291.7 244.85 292.0 L241.85 292.2 250.85 282.75 Q251.6 285.45 249.35 289.85" fill="#bab9ba" fill-rule="evenodd" stroke="none"/>
      <path d="M252.15 286.6 Q251.6 292.6 245.35 293.2 243.45 293.15 241.85 292.2 L244.8 292.0 Q247.45 291.7 249.2 289.85 251.5 285.45 250.85 282.75 252.15 284.4 252.15 286.6" fill="#b0aeb3" fill-rule="evenodd" stroke="none"/>
      <path d="M80.85 83.25 Q80.5 87.25 76.45 87.6 72.35 87.25 71.95 83.25 72.35 79.35 76.45 78.95 80.5 79.35 80.85 83.25" fill="#47525f" fill-rule="evenodd" stroke="none"/>
      <path d="M71.8 81.4 L80.7 80.8 80.85 83.3 71.95 83.75 71.8 81.4" fill="#47525f" fill-rule="evenodd" stroke="none"/>
      <path d="M78.4 77.45 Q76.2 77.7 74.3 79.25 72.7 81.45 72.55 83.7 71.8 82.6 71.8 81.25 72.2 77.35 76.3 76.95 77.4 76.95 78.4 77.45" fill="#e9e9eb" fill-rule="evenodd" stroke="none"/>
      <path d="M77.7 83.65 Q75.45 84.8 73.25 84.4 L72.55 83.65 Q72.65 81.4 74.3 79.25 76.25 77.6 78.4 77.45 L79.8 78.65 Q80.0 81.75 77.7 83.65" fill="#d0cfd0" fill-rule="evenodd" stroke="none"/>
      <path d="M80.75 81.25 Q80.35 85.25 76.25 85.55 74.5 85.55 73.25 84.45 75.45 84.75 77.75 83.45 80.0 81.7 79.85 78.65 80.75 79.8 80.75 81.25" fill="#b0aeb3" fill-rule="evenodd" stroke="none"/>
      <path d="M197.25 58.35 Q196.9 62.35 192.85 62.7 188.75 62.35 188.35 58.35 188.75 54.45 192.85 54.05 196.9 54.45 197.25 58.35" fill="#47525f" fill-rule="evenodd" stroke="none"/>
      <path d="M188.15 56.5 L197.05 55.9 197.2 58.4 188.3 58.85 188.15 56.5" fill="#47525f" fill-rule="evenodd" stroke="none"/>
      <path d="M194.75 52.55 Q192.55 52.8 190.65 54.35 189.05 56.55 188.9 58.8 188.15 57.7 188.15 56.35 188.55 52.45 192.65 52.05 193.75 52.05 194.75 52.55" fill="#e9e9eb" fill-rule="evenodd" stroke="none"/>
      <path d="M194.1 58.8 Q191.85 59.95 189.65 59.55 L188.95 58.8 Q189.05 56.55 190.7 54.4 192.65 52.75 194.8 52.6 195.6 53.05 196.2 53.8 196.4 56.9 194.1 58.8" fill="#d0cfd0" fill-rule="evenodd" stroke="none"/>
      <path d="M197.15 56.35 Q196.75 60.35 192.65 60.65 190.9 60.65 189.65 59.55 191.85 59.85 194.15 58.55 196.4 56.8 196.25 53.75 197.15 54.9 197.15 56.35" fill="#b0aeb3" fill-rule="evenodd" stroke="none"/>
      <path d="M37.55 296.7 Q37.2 300.7 33.15 301.05 29.05 300.7 28.65 296.7 29.05 292.8 33.15 292.4 37.2 292.8 37.55 296.7" fill="#47525f" fill-rule="evenodd" stroke="none"/>
      <path d="M28.55 294.8 L37.45 294.2 37.6 296.7 28.7 297.15 28.55 294.8" fill="#47525f" fill-rule="evenodd" stroke="none"/>
      <path d="M35.15 290.8 Q32.95 291.05 31.05 292.6 29.45 294.8 29.3 297.05 28.55 295.95 28.55 294.6 28.95 290.7 33.05 290.3 34.15 290.3 35.15 290.8" fill="#e9e9eb" fill-rule="evenodd" stroke="none"/>
      <path d="M34.45 297.05 Q32.2 298.2 30.0 297.8 L29.3 297.05 Q29.4 294.8 31.05 292.65 33.0 291.0 35.15 290.85 L36.55 292.05 Q36.75 295.15 34.45 297.05" fill="#d0cfd0" fill-rule="evenodd" stroke="none"/>
      <path d="M37.45 294.65 Q37.05 298.65 32.95 298.95 31.2 298.95 29.95 297.85 32.15 298.15 34.45 296.85 36.7 295.1 36.55 292.05 37.45 293.2 37.45 294.65" fill="#b0aeb3" fill-rule="evenodd" stroke="none"/>
      <path d="M72.9 282.8 Q72.55 286.8 68.5 287.15 64.4 286.8 64.0 282.8 64.4 278.9 68.5 278.5 72.55 278.9 72.9 282.8" fill="#47525f" fill-rule="evenodd" stroke="none"/>
      <path d="M63.85 280.9 L72.75 280.3 72.9 282.8 64.0 283.25 63.85 280.9" fill="#47525f" fill-rule="evenodd" stroke="none"/>
      <path d="M70.45 276.95 Q68.25 277.2 66.35 278.75 64.75 280.95 64.6 283.2 63.85 282.1 63.85 280.75 64.25 276.85 68.35 276.45 69.45 276.45 70.45 276.95" fill="#e9e9eb" fill-rule="evenodd" stroke="none"/>
      <path d="M69.75 283.15 Q67.5 284.3 65.3 283.9 L64.6 283.15 Q64.7 280.9 66.35 278.75 68.3 277.1 70.45 276.95 L71.85 278.15 Q72.05 281.25 69.75 283.15" fill="#d0cfd0" fill-rule="evenodd" stroke="none"/>
      <path d="M72.8 280.75 Q72.4 284.75 68.3 285.05 66.55 285.05 65.3 283.95 67.5 284.25 69.8 282.95 72.05 281.2 71.9 278.15 72.8 279.3 72.8 280.75" fill="#b0aeb3" fill-rule="evenodd" stroke="none"/>
      <path d="M264.1 201.65 Q263.75 205.65 259.7 206.0 255.6 205.65 255.2 201.65 255.6 197.75 259.7 197.35 263.75 197.75 264.1 201.65" fill="#47525f" fill-rule="evenodd" stroke="none"/>
      <path d="M255.1 199.75 L264.0 199.15 264.15 201.65 255.25 202.1 255.1 199.75" fill="#47525f" fill-rule="evenodd" stroke="none"/>
      <path d="M261.7 195.85 Q259.5 196.1 257.6 197.65 256.0 199.85 255.85 202.1 255.1 201.0 255.1 199.65 255.5 195.75 259.6 195.35 260.7 195.35 261.7 195.85" fill="#e9e9eb" fill-rule="evenodd" stroke="none"/>
      <path d="M261.0 202.0 Q258.75 203.15 256.55 202.75 L255.85 202.0 Q255.95 199.75 257.6 197.6 259.55 195.95 261.7 195.8 L263.1 197.0 Q263.3 200.1 261.0 202.0" fill="#d0cfd0" fill-rule="evenodd" stroke="none"/>
      <path d="M264.05 199.65 Q263.65 203.65 259.55 203.95 257.8 203.95 256.55 202.85 258.75 203.15 261.05 201.85 263.3 200.1 263.15 197.05 264.05 198.2 264.05 199.65" fill="#b0aeb3" fill-rule="evenodd" stroke="none"/>
    </g>
    <g id="shape4" transform="matrix(1.0, 0.0, 0.0, 1.0, 1.5, 1.5)">
      <path d="M163.8 142.7 L164.3 141.8 174.75 150.4 163.8 142.7 M174.95 150.55 L176.25 151.6 175.4 151.5 174.95 150.55 M151.35 148.85 L157.0 141.6 170.4 150.95 151.35 148.85" fill="#96a0ce" fill-rule="evenodd" stroke="none"/>
      <path d="M164.1 138.05 L162.95 138.45 161.35 140.95 156.55 138.45 147.25 150.15 147.7 151.25 181.65 155.15 182.4 154.45 182.45 153.4 164.1 138.05 M219.1 173.4 L213.7 225.45 209.3 241.65 Q205.5 237.15 200.85 234.05 197.45 231.7 192.85 233.0 L189.1 233.9 187.3 234.55 Q186.4 234.85 185.55 235.3 184.3 235.85 183.1 236.55 178.35 239.6 176.2 244.7 L175.75 238.8 175.0 232.95 173.9 227.25 Q171.2 215.4 164.75 204.95 L163.9 204.5 Q157.95 209.3 152.85 215.4 L152.2 216.45 159.65 267.5 90.75 266.8 94.35 197.65 157.05 129.85 157.25 128.0 151.3 122.85 166.5 120.4 171.15 98.0 214.55 123.5 219.1 173.4 M168.4 96.4 L164.2 118.0 146.65 121.0 146.25 122.0 153.8 128.95 99.85 187.2 113.2 162.55 151.1 86.4 168.4 96.4 M76.55 85.55 L110.2 161.8 106.3 168.95 73.95 131.7 80.4 120.2 Q80.9 119.25 79.9 118.7 L79.35 118.55 63.2 117.4 56.55 98.1 76.55 85.55 M76.7 121.4 Q73.1 126.75 70.95 132.45 L71.0 132.85 104.8 171.75 91.35 197.05 87.75 266.75 64.5 266.55 68.4 219.95 32.9 177.05 10.45 127.05 53.9 99.75 57.15 109.6 Q58.85 115.15 61.6 120.25 L76.7 121.4 M30.2 178.4 L48.25 203.05 Q42.9 214.05 39.95 225.65 38.95 229.7 40.35 234.4 36.2 231.45 31.6 230.45 L19.9 230.1 Q19.3 230.0 18.95 230.45 13.8 237.45 8.8 244.6 L4.6 225.95 1.5 176.55 9.5 132.25 30.2 178.4 M105.0 142.65 L91.45 112.25 Q103.75 133.55 108.9 139.1 L105.0 142.65 M106.3 145.5 L137.3 109.65 111.95 158.3 106.3 145.5" fill="#3a3d6a" fill-rule="evenodd" stroke="none"/>
      <path d="M138.1 23.25 Q133.95 12.75 122.7 9.7 116.1 7.85 114.9 1.5 L141.2 1.5 152.95 48.85 167.0 61.95 160.0 77.6 148.8 81.65 147.35 80.9 144.95 60.55 Q152.05 59.95 157.55 64.15 159.55 65.75 158.4 68.0 157.25 70.3 155.0 71.45 L154.25 71.9 153.4 72.2 152.45 72.35 Q150.95 69.95 150.3 67.45 L149.8 64.95 155.35 66.95 156.45 65.1 Q155.6 63.6 153.65 62.9 151.55 62.0 149.35 62.6 L148.15 62.9 Q145.2 71.55 153.45 75.15 L154.45 75.05 Q157.8 73.6 159.7 70.4 L160.35 69.15 160.9 67.85 Q161.6 66.0 161.3 64.2 L161.0 63.5 Q154.55 56.3 144.65 57.6 143.85 39.95 138.1 23.25 M94.25 10.55 Q91.25 11.8 89.5 14.45 84.6 22.15 84.1 31.55 83.9 35.9 83.05 40.2 81.15 50.0 79.4 59.9 77.7 55.85 73.1 56.4 66.3 57.5 62.45 62.5 61.9 63.15 62.0 64.15 62.35 69.1 66.0 72.4 70.75 76.85 74.05 71.5 75.9 68.6 73.7 65.95 71.4 63.25 68.35 64.9 L68.9 66.75 70.4 66.9 72.05 69.75 69.8 71.6 68.25 70.85 67.0 69.7 Q65.1 66.85 64.6 63.0 L68.95 61.1 Q72.4 59.85 75.9 59.85 78.65 64.95 78.7 70.8 78.75 76.45 78.4 82.1 77.4 81.3 76.3 80.85 70.8 78.3 64.85 76.95 L57.05 63.6 70.45 49.5 86.5 1.5 111.55 1.5 Q103.75 6.9 94.25 10.55" fill="#ffffff" fill-rule="evenodd" stroke="none"/>
      <path d="M124.25 44.65 L123.15 45.05 124.8 50.45 124.55 50.8 99.75 51.05 100.8 47.65 100.25 46.95 99.55 47.15 Q93.8 52.8 89.5 59.6 83.55 69.05 86.35 79.35 86.6 80.3 87.65 80.65 90.7 76.05 94.95 72.55 107.8 61.95 124.25 65.1 133.35 66.75 138.5 73.9 139.3 75.0 139.0 76.35 138.65 78.05 137.8 79.65 L138.2 80.3 138.95 80.5 Q140.15 79.95 140.85 78.75 144.45 72.65 141.2 66.3 134.85 53.75 124.25 44.65 M123.9 14.2 Q127.85 16.25 131.55 18.9 135.75 23.85 137.0 30.3 L137.45 32.45 Q129.05 29.6 121.3 34.75 115.05 38.85 107.85 37.0 101.0 35.25 94.35 33.1 92.15 32.4 90.2 33.45 L87.3 35.05 88.1 36.35 Q93.3 35.0 98.15 37.25 99.25 37.75 100.35 38.4 L89.7 39.6 89.1 40.2 89.85 42.0 97.5 41.6 93.75 42.95 Q111.9 39.3 130.0 42.8 L130.3 42.3 129.8 41.8 122.65 40.55 132.75 40.3 133.4 38.95 132.45 37.65 122.85 37.6 Q129.45 33.2 136.9 35.05 L137.95 33.85 Q143.0 57.35 144.35 81.45 140.2 82.9 126.85 86.35 L112.0 90.25 Q110.2 90.85 97.15 87.4 85.25 84.3 81.35 82.7 83.0 52.95 88.6 23.5 90.05 15.95 96.9 12.5 104.7 8.7 112.6 5.1 117.25 10.65 123.9 14.2 M96.65 51.8 Q97.8 54.65 100.95 54.15 L126.7 53.4 127.25 52.65 127.9 50.9 Q136.05 59.65 140.9 70.45 126.0 58.2 107.35 62.45 101.5 63.8 96.4 67.3 91.25 70.85 86.95 75.55 86.75 61.95 96.65 51.8 M28.1 243.55 Q26.1 248.4 26.6 253.75 L27.95 254.4 29.35 251.05 40.25 255.1 44.4 251.85 46.6 254.65 29.1 267.45 9.75 248.45 20.85 232.65 31.25 231.5 45.1 241.55 43.35 248.9 39.75 251.9 29.8 248.0 30.05 244.45 28.9 243.3 28.1 243.55 M179.25 243.95 L185.75 235.25 200.05 235.0 211.65 249.4 192.7 266.6 176.35 250.45 177.95 247.85 185.95 254.75 192.4 252.9 192.6 251.3 Q192.6 250.25 191.55 250.25 L190.95 250.35 186.65 251.6 179.2 244.9 179.25 243.95" fill="#cacfe6" fill-rule="evenodd" stroke="none"/>
      <path d="M95.45 90.65 L105.5 93.75 105.85 101.0 97.85 108.3 95.45 90.65 M108.5 93.95 L115.75 92.5 115.75 99.75 108.7 99.6 108.5 93.95 M118.75 91.55 L127.65 87.85 126.25 107.6 118.75 100.65 118.75 91.55" fill="#990000" fill-rule="evenodd" stroke="none"/>
      <path d="M92.4 89.1 L93.35 97.0 89.95 103.0 86.95 101.65 79.8 85.45 92.4 89.1 M146.5 84.05 L148.5 84.95 133.15 104.65 129.7 101.4 130.7 87.65 146.5 84.05 M139.55 102.8 L111.15 137.1 88.75 105.75 91.2 106.15 94.0 102.0 95.75 112.0 96.8 112.65 108.6 102.6 116.65 102.8 127.55 112.1 128.4 111.75 129.45 105.3 133.1 108.2 139.55 102.8" fill="#d7dcec" fill-rule="evenodd" stroke="none"/>
      <path d="M160.9 213.2 Q160.9 211.4 162.15 210.15 162.8 209.45 163.6 209.15 L164.1 210.15 Q162.55 211.05 161.95 213.0 L161.5 214.75 160.9 213.2" fill="#e9e9eb" fill-rule="evenodd" stroke="none"/>
      <path d="M164.1 210.15 L166.3 214.45 166.05 214.6 Q164.05 215.75 162.1 215.45 L161.5 214.75 161.95 213.0 Q162.55 211.05 164.1 210.15" fill="#d0cfd0" fill-rule="evenodd" stroke="none"/>
      <path d="M167.65 217.25 Q166.65 218.25 164.9 218.3 160.6 217.65 160.9 213.2 L161.5 214.75 162.1 215.45 Q163.2 216.45 164.75 216.45 L167.0 215.8 167.65 217.25" fill="#47525f" fill-rule="evenodd" stroke="none"/>
      <path d="M166.3 214.45 L167.0 215.8 164.75 216.45 Q163.2 216.45 162.1 215.45 164.05 215.75 166.05 214.6 L166.3 214.45" fill="#b0aeb3" fill-rule="evenodd" stroke="none"/>
      <path d="M163.6 209.15 L163.3 208.5 155.25 216.75 162.85 268.8 162.3 270.15 161.35 270.5 62.85 269.5 61.5 268.7 61.35 267.9 65.4 220.6 50.45 205.45 40.65 225.3 44.4 237.35 48.15 240.45 46.3 249.35 50.25 255.15 29.4 270.9 Q23.2 266.3 14.55 257.65 5.9 248.95 4.5 243.3 3.1 237.6 1.6 226.3 L-1.5 176.55 7.5 126.05 8.2 124.95 75.2 82.85 62.95 79.5 53.75 63.7 67.7 48.2 84.0 -0.45 85.4 -1.5 142.35 -1.5 143.8 -0.35 155.75 47.7 170.2 61.05 161.85 80.0 152.2 83.6 216.7 121.3 217.25 121.8 217.45 122.5 222.1 173.3 216.7 225.85 211.6 244.55 215.1 250.25 193.15 269.85 192.4 269.65 Q185.0 263.3 178.15 256.2 175.75 253.65 174.3 250.7 173.35 248.7 173.35 246.25 173.35 231.1 167.65 217.25 L167.0 215.8 166.3 214.45 164.1 210.15 163.6 209.15 M163.8 142.7 L174.75 150.4 164.3 141.8 163.8 142.7 M164.1 138.05 L182.45 153.4 182.4 154.45 181.65 155.15 147.7 151.25 147.25 150.15 156.55 138.45 161.35 140.95 162.95 138.45 164.1 138.05 M174.95 150.55 L175.4 151.5 176.25 151.6 174.95 150.55 M219.1 173.4 L214.55 123.5 171.15 98.0 166.5 120.4 151.3 122.85 157.25 128.0 157.05 129.85 94.35 197.65 90.75 266.8 159.65 267.5 152.2 216.45 152.85 215.4 Q157.95 209.3 163.9 204.5 L164.75 204.95 Q171.2 215.4 173.9 227.25 L175.0 232.95 175.75 238.8 176.2 244.7 Q178.35 239.6 183.1 236.55 184.3 235.85 185.55 235.3 186.4 234.85 187.3 234.55 L189.1 233.9 192.85 233.0 Q197.45 231.7 200.85 234.05 205.5 237.15 209.3 241.65 L213.7 225.45 219.1 173.4 M168.4 96.4 L151.1 86.4 113.2 162.55 99.85 187.2 153.8 128.95 146.25 122.0 146.65 121.0 164.2 118.0 168.4 96.4 M138.1 23.25 Q143.85 39.95 144.65 57.6 154.55 56.3 161.0 63.5 L161.3 64.2 Q161.6 66.0 160.9 67.85 L160.35 69.15 159.7 70.4 Q157.8 73.6 154.45 75.05 L153.45 75.15 Q145.2 71.55 148.15 62.9 L149.35 62.6 Q151.55 62.0 153.65 62.9 155.6 63.6 156.45 65.1 L155.35 66.95 149.8 64.95 150.3 67.45 Q150.95 69.95 152.45 72.35 L153.4 72.2 154.25 71.9 155.0 71.45 Q157.25 70.3 158.4 68.0 159.55 65.75 157.55 64.15 152.05 59.95 144.95 60.55 L147.35 80.9 148.8 81.65 160.0 77.6 167.0 61.95 152.95 48.85 141.2 1.5 114.9 1.5 Q116.1 7.85 122.7 9.7 133.95 12.75 138.1 23.25 M123.9 14.2 Q117.25 10.65 112.6 5.1 104.7 8.7 96.9 12.5 90.05 15.95 88.6 23.5 83.0 52.95 81.35 82.7 85.25 84.3 97.15 87.4 110.2 90.85 112.0 90.25 L126.85 86.35 Q140.2 82.9 144.35 81.45 143.0 57.35 137.95 33.85 L136.9 35.05 Q129.45 33.2 122.85 37.6 L132.45 37.65 133.4 38.95 132.75 40.3 122.65 40.55 129.8 41.8 130.3 42.3 130.0 42.8 Q111.9 39.3 93.75 42.95 L97.5 41.6 89.85 42.0 89.1 40.2 89.7 39.6 100.35 38.4 Q99.25 37.75 98.15 37.25 93.3 35.0 88.1 36.35 L87.3 35.05 90.2 33.45 Q92.15 32.4 94.35 33.1 101.0 35.25 107.85 37.0 115.05 38.85 121.3 34.75 129.05 29.6 137.45 32.45 L137.0 30.3 Q135.75 23.85 131.55 18.9 127.85 16.25 123.9 14.2 M124.25 44.65 Q134.85 53.75 141.2 66.3 144.45 72.65 140.85 78.75 140.15 79.95 138.95 80.5 L138.2 80.3 137.8 79.65 Q138.65 78.05 139.0 76.35 139.3 75.0 138.5 73.9 133.35 66.75 124.25 65.1 107.8 61.95 94.95 72.55 90.7 76.05 87.65 80.65 86.6 80.3 86.35 79.35 83.55 69.05 89.5 59.6 93.8 52.8 99.55 47.15 L100.25 46.95 100.8 47.65 99.75 51.05 124.55 50.8 124.8 50.45 123.15 45.05 124.25 44.65 M94.25 10.55 Q103.75 6.9 111.55 1.5 L86.5 1.5 70.45 49.5 57.05 63.6 64.85 76.95 Q70.8 78.3 76.3 80.85 77.4 81.3 78.4 82.1 78.75 76.45 78.7 70.8 78.65 64.95 75.9 59.85 72.4 59.85 68.95 61.1 L64.6 63.0 Q65.1 66.85 67.0 69.7 L68.25 70.85 69.8 71.6 72.05 69.75 70.4 66.9 68.9 66.75 68.35 64.9 Q71.4 63.25 73.7 65.95 75.9 68.6 74.05 71.5 70.75 76.85 66.0 72.4 62.35 69.1 62.0 64.15 61.9 63.15 62.45 62.5 66.3 57.5 73.1 56.4 77.7 55.85 79.4 59.9 81.15 50.0 83.05 40.2 83.9 35.9 84.1 31.55 84.6 22.15 89.5 14.45 91.25 11.8 94.25 10.55 M96.65 51.8 Q86.75 61.95 86.95 75.55 91.25 70.85 96.4 67.3 101.5 63.8 107.35 62.45 126.0 58.2 140.9 70.45 136.05 59.65 127.9 50.9 L127.25 52.65 126.7 53.4 100.95 54.15 Q97.8 54.65 96.65 51.8 M92.4 89.1 L79.8 85.45 86.95 101.65 89.95 103.0 93.35 97.0 92.4 89.1 M108.5 93.95 L108.7 99.6 115.75 99.75 115.75 92.5 108.5 93.95 M95.45 90.65 L97.85 108.3 105.85 101.0 105.5 93.75 95.45 90.65 M146.5 84.05 L130.7 87.65 129.7 101.4 133.15 104.65 148.5 84.95 146.5 84.05 M118.75 91.55 L118.75 100.65 126.25 107.6 127.65 87.85 118.75 91.55 M30.2 178.4 L9.5 132.25 1.5 176.55 4.6 225.95 8.8 244.6 Q13.8 237.45 18.95 230.45 19.3 230.0 19.9 230.1 L31.6 230.45 Q36.2 231.45 40.35 234.4 38.95 229.7 39.95 225.65 42.9 214.05 48.25 203.05 L30.2 178.4 M76.7 121.4 L61.6 120.25 Q58.85 115.15 57.15 109.6 L53.9 99.75 10.45 127.05 32.9 177.05 68.4 219.95 64.5 266.55 87.75 266.75 91.35 197.05 104.8 171.75 71.0 132.85 70.95 132.45 Q73.1 126.75 76.7 121.4 M76.55 85.55 L56.55 98.1 63.2 117.4 79.35 118.55 79.9 118.7 Q80.9 119.25 80.4 120.2 L73.95 131.7 106.3 168.95 110.2 161.8 76.55 85.55 M139.55 102.8 L133.1 108.2 129.45 105.3 128.4 111.75 127.55 112.1 116.65 102.8 108.6 102.6 96.8 112.65 95.75 112.0 94.0 102.0 91.2 106.15 88.75 105.75 111.15 137.1 139.55 102.8 M105.0 142.65 L108.9 139.1 Q103.75 133.55 91.45 112.25 L105.0 142.65 M151.35 148.85 L170.4 150.95 157.0 141.6 151.35 148.85 M106.3 145.5 L111.95 158.3 137.3 109.65 106.3 145.5 M28.1 243.55 L28.9 243.3 30.05 244.45 29.8 248.0 39.75 251.9 43.35 248.9 45.1 241.55 31.25 231.5 20.85 232.65 9.75 248.45 29.1 267.45 46.6 254.65 44.4 251.85 40.25 255.1 29.35 251.05 27.95 254.4 26.6 253.75 Q26.1 248.4 28.1 243.55 M179.25 243.95 L179.2 244.9 186.65 251.6 190.95 250.35 191.55 250.25 Q192.6 250.25 192.6 251.3 L192.4 252.9 185.95 254.75 177.95 247.85 176.35 250.45 192.7 266.6 211.65 249.4 200.05 235.0 185.75 235.25 179.25 243.95" fill="#1a1a1a" fill-rule="evenodd" stroke="none"/>
    </g>
    <g id="shape5" transform="matrix(1.0, 0.0, 0.0, 1.0, -0.05, 0.0)">
      <path d="M40.95 2.45 L41.9 2.8 Q42.4 1.4 44.05 1.25 46.25 1.45 46.45 3.8 L46.45 6.35 48.8 8.45 Q56.9 16.5 57.2 28.65 56.85 40.75 48.8 48.85 42.05 55.65 32.45 56.95 L32.05 57.95 Q31.35 59.0 29.8 59.15 28.3 59.0 27.6 58.05 L27.2 57.2 Q16.0 56.45 8.4 48.85 3.45 43.9 1.4 37.45 -0.45 31.7 0.25 25.75 1.75 13.25 11.8 5.55 L12.4 3.05 Q13.25 0.65 15.6 1.55 16.3 1.85 16.4 2.8 L17.0 2.55 Q21.85 0.45 27.2 0.1 33.95 0.0 40.1 2.5 L40.95 2.45 M40.75 9.5 L41.65 9.15 41.65 3.8 40.95 3.4 Q39.9 3.3 39.45 4.1 L39.5 20.75 40.05 21.3 41.6 21.05 41.65 14.2 41.0 13.95 Q39.6 13.25 39.65 11.65 39.65 10.3 40.75 9.5 M43.6 13.8 L42.65 14.2 Q42.3 22.35 43.9 21.75 L44.95 21.3 44.95 2.65 Q44.35 2.05 43.6 2.4 42.9 2.55 42.75 3.3 L42.65 9.15 43.55 9.5 Q44.2 9.85 44.5 10.65 L44.55 12.55 Q44.25 13.35 43.6 13.8 M42.85 10.1 L41.65 10.1 43.85 12.05 42.85 10.1 M40.75 10.9 L40.5 11.65 Q40.7 13.2 42.15 13.3 L42.65 13.2 40.75 10.9 M33.35 54.6 L33.1 55.4 Q42.4 53.9 48.75 46.85 56.75 37.95 55.55 25.9 54.45 15.35 46.45 8.2 L46.45 9.2 46.45 11.55 Q53.05 18.45 53.3 28.6 53.05 39.1 46.05 46.1 40.85 51.3 33.75 52.75 L33.35 54.6 M34.15 50.65 L34.05 51.35 Q40.4 49.85 45.1 45.15 51.7 38.55 51.95 28.6 51.75 19.75 46.45 13.6 L46.45 14.6 Q46.75 17.8 46.0 20.7 45.25 23.6 42.2 21.75 L41.45 22.0 Q39.2 22.8 38.3 20.55 L33.3 21.2 33.3 23.05 33.95 23.4 Q35.1 23.95 34.9 25.15 L34.35 26.45 32.4 27.25 32.4 29.2 33.85 30.25 33.95 31.8 32.3 32.9 Q34.1 41.75 34.15 50.65 M38.25 4.0 L38.65 3.4 Q29.1 -0.05 19.35 3.1 L19.75 3.6 20.0 4.15 Q29.1 3.05 38.25 4.0 M25.35 51.1 L25.1 48.35 Q25.25 40.65 27.35 32.9 26.65 32.65 26.2 32.25 24.7 30.8 26.4 29.55 L26.9 29.2 26.9 27.25 Q25.3 27.3 24.75 25.95 L24.5 24.95 Q24.55 24.05 25.5 23.4 L26.0 23.05 26.0 21.35 19.95 20.65 Q19.2 22.95 16.85 21.95 L16.1 21.7 Q15.1 23.2 13.3 22.4 12.1 22.0 12.05 20.75 L11.8 13.3 11.8 12.35 Q5.45 18.9 5.2 28.6 5.45 38.55 12.05 45.15 17.6 50.7 25.5 51.75 L25.35 51.1 M16.8 15.6 L16.5 20.75 17.35 21.35 Q18.95 21.55 19.0 19.95 19.1 12.15 18.85 4.35 L18.65 3.7 17.7 3.35 16.6 3.85 16.95 9.95 Q17.9 10.35 18.3 11.4 L18.35 13.15 16.85 14.9 16.8 15.6 M38.2 19.4 L38.2 5.0 Q29.6 4.0 20.9 5.1 L20.0 5.2 20.1 19.4 Q29.1 21.65 38.2 19.4 M33.5 24.4 Q33.3 23.9 32.85 23.9 L27.1 23.4 Q24.95 24.0 26.25 25.85 L26.9 26.45 32.3 26.4 Q33.3 26.4 33.55 25.55 33.7 24.95 33.5 24.4 M27.15 21.35 L27.15 22.95 32.0 22.95 32.0 21.35 27.15 21.35 M15.1 9.8 L15.65 9.7 15.35 3.25 14.95 2.65 14.2 2.25 Q12.95 2.6 12.95 4.0 L13.1 20.6 Q13.1 21.5 14.2 21.7 15.6 21.55 15.55 20.15 L15.3 15.05 Q13.7 14.6 13.35 13.25 L13.3 11.85 Q13.6 10.25 15.1 9.8 M26.35 54.95 L25.85 53.15 Q17.2 52.25 11.1 46.1 3.0 37.75 4.15 26.1 5.05 16.85 11.8 10.5 L11.8 8.1 11.8 7.3 Q2.9 14.65 1.7 25.95 0.55 37.1 7.7 45.9 15.0 54.85 26.6 55.7 L26.35 54.95 M17.25 11.6 L16.6 10.8 15.15 10.8 17.3 13.05 17.25 11.6 M14.45 11.5 L14.2 12.25 Q14.3 13.7 15.85 13.9 L16.6 13.7 14.45 11.5 M27.3 30.4 L26.75 31.15 27.3 32.2 32.6 31.95 32.8 30.9 32.4 30.15 31.05 30.2 27.3 30.4 M31.25 29.1 L31.25 27.25 28.2 27.25 28.3 29.1 31.25 29.1 M32.6 42.15 Q32.15 37.5 31.2 32.9 L28.45 32.9 27.2 39.55 Q26.25 45.2 26.95 51.0 L27.15 52.3 27.15 52.25 Q27.35 49.85 29.75 49.65 31.9 49.85 32.3 51.85 33.05 47.05 32.6 42.15 M30.7 58.1 L32.0 53.55 Q31.35 54.95 29.75 54.85 27.85 54.65 27.35 53.05 L28.65 57.7 30.7 58.1 M29.0 53.7 L29.75 53.95 Q31.9 53.5 31.2 51.5 L29.0 53.7 M29.75 50.6 Q28.25 50.75 28.1 52.25 L28.35 53.05 30.55 50.85 29.75 50.6" fill="#212753" fill-rule="evenodd" stroke="none"/>
      <path d="M40.95 2.45 L40.1 2.5 Q33.95 0.0 27.2 0.1 L29.2 0.0 Q35.6 0.15 40.95 2.45 M46.45 9.2 L46.45 8.2 Q54.45 15.35 55.55 25.9 56.75 37.95 48.75 46.85 42.4 53.9 33.1 55.4 L33.35 54.6 Q44.1 52.5 50.45 43.3 55.05 36.65 54.95 28.6 54.75 17.0 46.45 9.2 M46.45 14.6 L46.45 13.6 Q51.75 19.75 51.95 28.6 51.7 38.55 45.1 45.15 40.4 49.85 34.05 51.35 L34.15 50.65 Q40.2 49.15 44.65 44.7 51.05 38.3 51.3 28.65 51.15 20.45 46.45 14.6 M19.75 3.6 L19.35 3.1 Q29.1 -0.05 38.65 3.4 L38.25 4.0 Q33.8 2.25 28.5 2.1 23.8 2.25 19.75 3.6 M25.35 51.1 L25.5 51.75 Q17.6 50.7 12.05 45.15 5.45 38.55 5.2 28.6 5.45 18.9 11.8 12.35 L11.8 13.3 Q6.1 19.55 5.85 28.65 6.1 38.3 12.5 44.7 17.85 50.0 25.35 51.1 M26.35 54.95 L26.6 55.7 Q15.0 54.85 7.7 45.9 0.55 37.1 1.7 25.95 2.9 14.65 11.8 7.3 L11.8 8.1 Q3.55 15.15 2.3 25.9 1.25 35.3 6.7 43.25 13.85 53.8 26.35 54.95" fill="#514f6f" fill-rule="evenodd" stroke="none"/>
      <path d="M41.0 13.95 L41.65 14.2 41.6 21.05 40.05 21.3 39.5 20.75 39.45 4.1 Q39.9 3.3 40.95 3.4 L41.65 3.8 41.65 9.15 40.75 9.5 40.4 4.85 Q39.7 5.45 39.65 6.45 39.35 12.5 39.85 18.55 39.95 19.55 40.65 19.75 41.55 19.1 41.5 17.7 L41.0 13.95 M43.55 9.5 L42.65 9.15 42.75 3.3 Q42.9 2.55 43.6 2.4 44.35 2.05 44.95 2.65 L44.95 21.3 43.9 21.75 Q42.3 22.35 42.65 14.2 L43.6 13.8 44.0 20.3 44.55 12.55 44.5 10.65 44.25 4.4 43.55 4.3 43.55 9.5 M36.15 9.6 Q34.9 7.5 32.4 7.85 29.75 8.15 27.1 7.8 24.95 7.25 23.1 8.3 20.7 10.35 22.5 12.35 24.25 14.4 26.55 15.0 L31.75 15.4 Q34.7 15.25 36.3 13.5 37.3 11.55 36.15 9.6 M27.5 24.1 L27.45 24.1 Q26.9 24.25 26.9 24.5 26.85 24.85 27.9 25.35 L30.85 25.25 Q31.6 24.85 31.6 24.5 31.5 24.1 30.4 23.85 L27.5 24.1 M27.15 21.35 L32.0 21.35 32.0 22.95 27.15 22.95 27.15 21.35 M33.5 24.4 Q33.7 24.95 33.55 25.55 33.3 26.4 32.3 26.4 L26.9 26.45 26.25 25.85 Q24.95 24.0 27.1 23.4 L32.85 23.9 Q33.3 23.9 33.5 24.4 M38.2 19.4 Q29.1 21.65 20.1 19.4 L20.0 5.2 20.9 5.1 Q29.6 4.0 38.2 5.0 L38.2 19.4 M16.95 9.95 L16.6 3.85 17.7 3.35 18.65 3.7 18.85 4.35 Q19.1 12.15 19.0 19.95 18.95 21.55 17.35 21.35 L16.5 20.75 16.8 15.6 17.85 19.6 18.35 13.15 18.3 11.4 17.45 5.4 16.95 9.95 M15.3 15.05 L15.55 20.15 Q15.6 21.55 14.2 21.7 13.1 21.5 13.1 20.6 L12.95 4.0 Q12.95 2.6 14.2 2.25 L14.95 2.65 15.35 3.25 15.65 9.7 15.1 9.8 14.3 3.55 13.4 4.2 13.3 11.85 13.35 13.25 14.15 20.3 14.85 20.25 15.3 15.05 M31.05 30.2 L32.4 30.15 32.8 30.9 32.6 31.95 27.3 32.2 26.75 31.15 27.3 30.4 27.4 31.15 31.25 31.35 31.5 30.7 31.05 30.2 M31.25 29.1 L28.3 29.1 28.2 27.25 31.25 27.25 31.25 29.1 M27.9 48.35 Q29.05 49.75 30.55 48.65 32.0 47.2 31.6 44.95 31.65 41.3 30.8 37.75 30.7 36.45 29.75 35.6 28.7 35.65 28.3 38.1 27.95 40.5 27.95 41.5 26.8 45.1 27.9 48.35 M32.6 42.15 Q33.05 47.05 32.3 51.85 31.9 49.85 29.75 49.65 27.35 49.85 27.15 52.25 L27.15 52.3 26.95 51.0 Q26.25 45.2 27.2 39.55 L28.45 32.9 31.2 32.9 Q32.15 37.5 32.6 42.15 M30.7 58.1 L28.65 57.7 27.35 53.05 Q27.85 54.65 29.75 54.85 31.35 54.95 32.0 53.55 L30.7 58.1 M29.1 55.9 Q28.65 57.55 30.25 57.4 31.35 56.6 30.65 55.85 L29.1 55.9" fill="#69839d" fill-rule="evenodd" stroke="none"/>
      <path d="M40.75 9.5 Q39.65 10.3 39.65 11.65 39.6 13.25 41.0 13.95 L41.5 17.7 Q41.55 19.1 40.65 19.75 39.95 19.55 39.85 18.55 39.35 12.5 39.65 6.45 39.7 5.45 40.4 4.85 L40.75 9.5 M43.55 9.5 L43.55 4.3 44.25 4.4 44.5 10.65 Q44.2 9.85 43.55 9.5 M44.55 12.55 L44.0 20.3 43.6 13.8 Q44.25 13.35 44.55 12.55 M34.2 11.4 L33.9 10.25 26.9 9.5 Q25.3 9.3 24.4 10.6 24.5 12.95 27.0 13.65 31.6 14.85 34.2 11.4 M36.15 9.6 Q37.3 11.55 36.3 13.5 34.7 15.25 31.75 15.4 L26.55 15.0 Q24.25 14.4 22.5 12.35 20.7 10.35 23.1 8.3 24.95 7.25 27.1 7.8 29.75 8.15 32.4 7.85 34.9 7.5 36.15 9.6 M27.5 24.1 L30.4 23.85 Q31.5 24.1 31.6 24.5 31.6 24.85 30.85 25.25 L27.9 25.35 Q26.85 24.85 26.9 24.5 26.9 24.25 27.45 24.1 L27.5 24.1 M16.8 15.6 L16.85 14.9 18.35 13.15 17.85 19.6 16.8 15.6 M18.3 11.4 Q17.9 10.35 16.95 9.95 L17.45 5.4 18.3 11.4 M15.3 15.05 L14.85 20.25 14.15 20.3 13.35 13.25 Q13.7 14.6 15.3 15.05 M13.3 11.85 L13.4 4.2 14.3 3.55 15.1 9.8 Q13.6 10.25 13.3 11.85 M27.3 30.4 L31.05 30.2 31.5 30.7 31.25 31.35 27.4 31.15 27.3 30.4 M27.9 48.35 Q26.8 45.1 27.95 41.5 27.95 40.5 28.3 38.1 28.7 35.65 29.75 35.6 30.7 36.45 30.8 37.75 31.65 41.3 31.6 44.95 32.0 47.2 30.55 48.65 29.05 49.75 27.9 48.35 M29.1 55.9 L30.65 55.85 Q31.35 56.6 30.25 57.4 28.65 57.55 29.1 55.9" fill="#899db1" fill-rule="evenodd" stroke="none"/>
      <path d="M40.75 10.9 L42.65 13.2 42.15 13.3 Q40.7 13.2 40.5 11.65 L40.75 10.9 M42.85 10.1 L43.85 12.05 41.65 10.1 42.85 10.1 M14.45 11.5 L16.6 13.7 15.85 13.9 Q14.3 13.7 14.2 12.25 L14.45 11.5 M17.25 11.6 L17.3 13.05 15.15 10.8 16.6 10.8 17.25 11.6 M29.75 50.6 L30.55 50.85 28.35 53.05 28.1 52.25 Q28.25 50.75 29.75 50.6 M29.0 53.7 L31.2 51.5 Q31.9 53.5 29.75 53.95 L29.0 53.7" fill="#a1b1c1" fill-rule="evenodd" stroke="none"/>
      <path d="M33.35 54.6 L33.75 52.75 Q40.85 51.3 46.05 46.1 53.05 39.1 53.3 28.6 53.05 18.45 46.45 11.55 L46.45 9.2 Q54.75 17.0 54.95 28.6 55.05 36.65 50.45 43.3 44.1 52.5 33.35 54.6 M45.35 22.9 Q47.1 21.7 46.9 19.6 L46.55 17.25 Q49.55 22.9 49.55 29.45 49.05 40.8 38.0 44.45 L34.9 45.55 34.8 45.15 34.35 43.45 Q38.75 41.7 42.1 38.05 45.75 33.5 45.85 27.7 45.85 25.2 45.35 22.9 M38.25 4.0 Q29.1 3.05 20.0 4.15 L19.75 3.6 Q23.8 2.25 28.5 2.1 33.8 2.25 38.25 4.0 M24.25 45.1 Q24.15 46.55 24.3 47.8 17.65 47.8 13.35 43.15 8.2 37.55 7.7 29.6 7.2 22.7 11.3 17.35 L11.35 17.65 Q11.15 19.95 11.85 21.75 7.8 29.5 12.4 37.1 16.5 43.85 24.25 45.1 M11.8 8.1 L11.8 10.5 Q5.05 16.85 4.15 26.1 3.0 37.75 11.1 46.1 17.2 52.25 25.85 53.15 L26.35 54.95 Q13.85 53.8 6.7 43.25 1.25 35.3 2.3 25.9 3.55 15.15 11.8 8.1" fill="#afc1d9" fill-rule="evenodd" stroke="none"/>
      <path d="M34.15 50.65 Q34.1 41.75 32.3 32.9 L33.95 31.8 34.35 43.45 34.8 45.15 34.9 45.55 38.0 44.45 Q49.05 40.8 49.55 29.45 49.55 22.9 46.55 17.25 L46.9 19.6 Q47.1 21.7 45.35 22.9 L35.9 22.55 34.9 25.15 Q35.1 23.95 33.95 23.4 L33.3 23.05 33.3 21.2 38.3 20.55 Q39.2 22.8 41.45 22.0 L42.2 21.75 Q45.25 23.6 46.0 20.7 46.75 17.8 46.45 14.6 51.15 20.45 51.3 28.65 51.05 38.3 44.65 44.7 40.2 49.15 34.15 50.65 M33.85 30.25 L32.4 29.2 32.4 27.25 34.35 26.45 33.6 28.35 33.85 30.25 M24.25 45.1 L24.95 39.9 Q25.7 35.8 24.45 31.95 L25.5 28.35 23.3 25.55 24.45 22.3 Q22.8 22.45 21.25 23.1 17.0 25.0 12.6 23.2 L11.85 21.75 Q11.15 19.95 11.35 17.65 L11.3 17.35 Q7.2 22.7 7.7 29.6 8.2 37.55 13.35 43.15 17.65 47.8 24.3 47.8 24.15 46.55 24.25 45.1 M11.8 13.3 L12.05 20.75 Q12.1 22.0 13.3 22.4 15.1 23.2 16.1 21.7 L16.85 21.95 Q19.2 22.95 19.95 20.65 L26.0 21.35 26.0 23.05 25.5 23.4 Q24.55 24.05 24.5 24.95 L24.75 25.95 Q25.3 27.3 26.9 27.25 L26.9 29.2 26.4 29.55 Q24.7 30.8 26.2 32.25 26.65 32.65 27.35 32.9 25.25 40.65 25.1 48.35 L25.35 51.1 Q17.85 50.0 12.5 44.7 6.1 38.3 5.85 28.65 6.1 19.55 11.8 13.3" fill="#9ab4cc" fill-rule="evenodd" stroke="none"/>
      <path d="M33.95 31.8 L33.85 30.25 33.6 28.35 34.35 26.45 34.9 25.15 35.9 22.55 45.35 22.9 Q45.85 25.2 45.85 27.7 45.75 33.5 42.1 38.05 38.75 41.7 34.35 43.45 L33.95 31.8 M11.85 21.75 L12.6 23.2 Q17.0 25.0 21.25 23.1 22.8 22.45 24.45 22.3 L23.3 25.55 25.5 28.35 24.45 31.95 Q25.7 35.8 24.95 39.9 L24.25 45.1 Q16.5 43.85 12.4 37.1 7.8 29.5 11.85 21.75" fill="#c5d3e3" fill-rule="evenodd" stroke="none"/>
      <path d="M34.2 11.4 Q31.6 14.85 27.0 13.65 24.5 12.95 24.4 10.6 25.3 9.3 26.9 9.5 L33.9 10.25 34.2 11.4" fill="#a1b3bf" fill-rule="evenodd" stroke="none"/>
    </g>
  </defs>
</svg>
