<?xml version="1.0" encoding="UTF-8" standalone="no"?>
<svg xmlns:xlink="http://www.w3.org/1999/xlink" height="576.45px" width="674.3px" xmlns="http://www.w3.org/2000/svg">
  <g transform="matrix(1.0, 0.0, 0.0, 1.0, 342.55, 323.75)">
    <use height="200.05" transform="matrix(1.246, 0.0, 0.0, 2.83, -321.0024, -313.446)" width="516.15" xlink:href="#shape0"/>
    <use height="200.05" transform="matrix(1.2769, 0.0, 0.0, 0.5349, -332.9495, -30.4758)" width="516.15" xlink:href="#shape0"/>
    <use height="12.2" transform="matrix(1.0, 0.0, 0.0, 1.0, -289.45, -221.45)" width="92.05" xlink:href="#text0"/>
    <use height="38.25" transform="matrix(1.0, 0.0, 0.0, 1.0, -204.45, -179.3)" width="122.6" xlink:href="#text1"/>
    <use height="25.2" transform="matrix(1.0, 0.0, 0.0, 1.0, 7.55, -153.9)" width="156.7" xlink:href="#text2"/>
    <use height="23.7" transform="matrix(1.0, 0.0, 0.0, 1.0, 14.2, -109.35)" width="168.05" xlink:href="#text3"/>
    <use height="12.25" transform="matrix(1.0, 0.0, 0.0, 1.0, 67.25, -303.65)" width="220.4" xlink:href="#text4"/>
    <use height="68.2" transform="matrix(1.0, 0.0, 0.0, 1.0, -231.4, -24.2)" width="437.4" xlink:href="#text5"/>
    <use height="25.2" transform="matrix(1.0, 0.0, 0.0, 1.0, 29.85, -194.45)" width="110.35" xlink:href="#text6"/>
    <use height="22.5" transform="matrix(0.4708, -0.2921, 0.2921, 0.4708, 186.6, -116.9)" width="116.55" xlink:href="#shape1"/>
    <use height="22.5" transform="matrix(0.4708, -0.2921, 0.2921, 0.4708, 166.75, -156.45)" width="116.55" xlink:href="#shape1"/>
    <use height="22.5" transform="matrix(0.4708, -0.2921, 0.2921, 0.4708, 146.9, -196.0)" width="116.55" xlink:href="#shape1"/>
    <use height="22.5" transform="matrix(1.0E-4, -0.553, 0.553, 1.0E-4, -155.7, -189.45)" width="116.55" xlink:href="#shape1"/>
    <use height="152.8" id="btn" transform="matrix(2.6238, 0.0, 0.0, 3.2803, -342.5708, -323.7595)" width="257.0" xlink:href="#button0"/>
  </g>
  <defs>
    <g id="shape0" transform="matrix(1.0, 0.0, 0.0, 1.0, -22.75, -11.45)">
      <path d="M538.9 211.5 L22.75 211.5 22.75 11.45 538.9 11.45 538.9 211.5" fill="#ffffff" fill-opacity="0.6" fill-rule="evenodd" stroke="none"/>
    </g>
    <g id="text0" transform="matrix(1.0, 0.0, 0.0, 1.0, -0.6, -0.55)">
      <g transform="matrix(1.0, 0.0, 0.0, 1.0, 0.0, 0.0)">
        <use fill="#000000" height="12.2" transform="matrix(0.2539, 0.0, 0.0, 0.2539, 0.0, 11.0)" width="92.05" xlink:href="#font_A-OTF_____Pro_501_C0"/>
        <use fill="#000000" height="12.2" transform="matrix(0.2539, 0.0, 0.0, 0.2539, 9.85, 11.0)" width="92.05" xlink:href="#font_A-OTF_____Pro_501_u0"/>
        <use fill="#000000" height="12.2" transform="matrix(0.2539, 0.0, 0.0, 0.2539, 18.05, 11.0)" width="92.05" xlink:href="#font_A-OTF_____Pro_501_r0"/>
        <use fill="#000000" height="12.2" transform="matrix(0.2539, 0.0, 0.0, 0.2539, 24.55, 11.0)" width="92.05" xlink:href="#font_A-OTF_____Pro_501_r0"/>
        <use fill="#000000" height="12.2" transform="matrix(0.2539, 0.0, 0.0, 0.2539, 31.05, 11.0)" width="92.05" xlink:href="#font_A-OTF_____Pro_501_e0"/>
        <use fill="#000000" height="12.2" transform="matrix(0.2539, 0.0, 0.0, 0.2539, 38.3, 11.0)" width="92.05" xlink:href="#font_A-OTF_____Pro_501_n0"/>
        <use fill="#000000" height="12.2" transform="matrix(0.2539, 0.0, 0.0, 0.2539, 46.5, 11.0)" width="92.05" xlink:href="#font_A-OTF_____Pro_501_t0"/>
        <use fill="#000000" height="12.2" transform="matrix(0.2539, 0.0, 0.0, 0.2539, 56.6, 11.0)" width="92.05" xlink:href="#font_A-OTF_____Pro_501_s0"/>
        <use fill="#000000" height="12.2" transform="matrix(0.2539, 0.0, 0.0, 0.2539, 63.85, 11.0)" width="92.05" xlink:href="#font_A-OTF_____Pro_501_t0"/>
        <use fill="#000000" height="12.2" transform="matrix(0.2539, 0.0, 0.0, 0.2539, 69.6, 11.0)" width="92.05" xlink:href="#font_A-OTF_____Pro_501_a0"/>
        <use fill="#000000" height="12.2" transform="matrix(0.2539, 0.0, 0.0, 0.2539, 77.8, 11.0)" width="92.05" xlink:href="#font_A-OTF_____Pro_501_g0"/>
        <use fill="#000000" height="12.2" transform="matrix(0.2539, 0.0, 0.0, 0.2539, 86.0, 11.0)" width="92.05" xlink:href="#font_A-OTF_____Pro_501_e0"/>
      </g>
    </g>
    <g id="font_A-OTF_____Pro_501_C0">
      <path d="M21.2 -41.2 L21.2 -41.2 Q11.65 -40.9 7.0 -34.7 2.4 -28.5 2.4 -20.1 2.4 -15.35 4.15 -10.55 5.9 -5.8 10.05 -2.55 14.2 0.7 21.25 0.8 27.55 0.65 30.9 -1.75 34.3 -4.2 35.55 -6.95 36.8 -9.7 36.75 -10.95 36.5 -13.8 33.15 -14.1 31.6 -14.1 30.85 -13.3 30.1 -12.55 29.5 -11.35 28.6 -9.5 26.8 -8.05 25.0 -6.65 21.2 -6.6 14.4 -7.0 12.1 -11.55 9.85 -16.1 10.0 -20.15 9.9 -21.65 10.55 -24.85 11.15 -28.1 13.6 -30.85 16.1 -33.6 21.5 -33.8 25.55 -33.75 27.3 -32.3 29.1 -30.85 30.15 -28.8 30.4 -27.6 33.1 -27.25 36.45 -27.35 36.75 -30.75 36.7 -33.9 32.75 -37.4 28.75 -40.9 21.2 -41.2 L21.2 -41.2" fill-rule="evenodd" stroke="none"/>
    </g>
    <g id="font_A-OTF_____Pro_501_u0">
      <path d="M3.4 -8.4 L3.4 -8.4 Q3.5 -4.25 6.15 -1.75 8.85 0.75 13.4 0.8 17.5 0.7 19.5 -0.5 21.45 -1.7 22.0 -2.5 22.45 -1.35 23.35 -0.3 24.2 0.75 25.9 0.8 29.3 0.4 29.2 -2.25 L29.0 -5.0 28.8 -7.85 28.8 -27.2 Q28.8 -28.3 28.0 -29.4 27.2 -30.5 25.6 -30.6 22.45 -30.3 22.2 -27.25 L22.2 -12.25 Q22.2 -10.3 20.45 -8.15 18.7 -5.95 15.15 -5.8 12.0 -5.9 10.95 -7.7 9.95 -9.45 10.0 -11.3 L10.0 -27.2 Q10.0 -28.15 9.25 -29.35 8.45 -30.5 6.75 -30.6 3.75 -30.35 3.4 -27.25 L3.4 -8.4 3.4 -8.4" fill-rule="evenodd" stroke="none"/>
    </g>
    <g id="font_A-OTF_____Pro_501_r0">
      <path d="M10.4 -14.95 L10.4 -14.95 Q10.45 -15.7 11.7 -17.8 12.95 -19.9 14.75 -21.8 16.6 -23.65 18.45 -23.8 L20.05 -23.6 21.75 -23.4 Q24.65 -23.65 24.7 -26.5 24.55 -28.7 22.65 -29.65 20.75 -30.6 18.75 -30.6 17.8 -30.75 15.3 -29.95 12.8 -29.15 10.4 -25.55 L10.4 -27.15 Q10.25 -29.6 8.95 -30.15 L7.1 -30.6 Q4.05 -30.45 3.8 -27.45 L3.8 -2.25 Q3.8 -1.2 4.55 -0.25 5.35 0.75 7.15 0.8 8.4 0.8 9.35 0.1 10.35 -0.65 10.4 -2.1 L10.4 -14.95 10.4 -14.95" fill-rule="evenodd" stroke="none"/>
    </g>
    <g id="font_A-OTF_____Pro_501_e0">
      <path d="M9.2 -18.6 L9.2 -18.6 Q9.3 -19.65 10.35 -21.8 11.45 -23.95 14.6 -24.2 17.35 -24.0 18.5 -22.25 19.65 -20.55 19.6 -19.2 19.75 -18.6 18.3 -18.6 L9.2 -18.6 9.2 -18.6 M22.5 -12.4 L22.5 -12.4 Q26.4 -12.5 26.2 -18.25 26.1 -23.65 22.8 -27.05 19.5 -30.5 14.55 -30.6 10.0 -30.7 6.25 -26.95 2.45 -23.2 2.2 -14.4 2.6 -5.0 6.95 -2.0 11.25 1.05 14.95 0.8 19.75 0.65 22.75 -1.75 25.75 -4.15 25.85 -7.15 25.85 -8.4 25.1 -9.4 24.3 -10.35 22.95 -10.4 21.15 -10.65 19.6 -8.25 17.45 -5.25 15.2 -5.6 11.25 -5.85 10.15 -8.35 9.05 -10.85 9.05 -12.4 L22.5 -12.4 22.5 -12.4" fill-rule="evenodd" stroke="none"/>
    </g>
    <g id="font_A-OTF_____Pro_501_n0">
      <path d="M28.8 -21.3 L28.8 -21.3 Q28.75 -25.45 26.05 -28.0 23.35 -30.5 18.8 -30.6 14.65 -30.45 12.7 -29.25 L10.15 -27.3 8.9 -29.45 Q8.0 -30.5 6.3 -30.6 3.0 -30.2 3.0 -27.55 L3.2 -24.75 3.4 -21.9 3.4 -2.6 Q3.4 -1.3 4.25 -0.3 5.1 0.75 6.7 0.8 9.7 0.6 10.0 -2.55 L10.0 -17.55 Q10.0 -19.45 11.75 -21.6 13.5 -23.8 17.1 -24.0 20.2 -23.85 21.25 -22.1 22.3 -20.35 22.2 -18.45 L22.2 -2.6 Q22.2 -1.45 23.0 -0.35 23.8 0.75 25.5 0.8 28.5 0.6 28.8 -2.55 L28.8 -21.3 28.8 -21.3" fill-rule="evenodd" stroke="none"/>
    </g>
    <g id="font_A-OTF_____Pro_501_t0">
      <path d="M6.4 -23.6 L6.4 -23.6 6.4 -7.7 Q6.2 -5.7 7.35 -2.65 8.5 0.45 13.3 0.8 17.85 0.45 20.0 -2.75 22.2 -5.9 22.2 -7.9 22.2 -9.05 21.4 -10.05 20.55 -11.1 18.95 -11.2 17.4 -11.55 15.85 -8.45 14.85 -6.25 13.85 -6.35 12.65 -6.7 12.8 -7.95 L12.8 -23.6 18.85 -23.6 Q19.75 -23.6 20.7 -24.3 21.65 -25.05 21.7 -26.65 21.55 -29.45 18.85 -29.8 L12.8 -29.8 12.8 -35.4 Q12.8 -36.5 12.05 -37.45 11.3 -38.45 9.7 -38.55 6.8 -38.45 6.4 -35.35 L6.4 -29.8 4.0 -29.8 Q3.0 -29.75 2.1 -29.0 1.2 -28.2 1.15 -26.75 1.15 -25.55 1.9 -24.6 2.65 -23.65 4.0 -23.6 L6.4 -23.6 6.4 -23.6" fill-rule="evenodd" stroke="none"/>
    </g>
    <g id="font_A-OTF_____Pro_501_s0">
      <path d="M14.15 0.8 L14.15 0.8 Q20.6 0.6 23.4 -2.35 26.25 -5.3 26.2 -8.95 26.25 -10.1 25.75 -11.85 25.3 -13.6 23.55 -15.15 22.4 -16.15 20.45 -16.8 18.55 -17.5 12.7 -19.0 9.65 -19.65 9.6 -21.6 9.75 -23.3 11.4 -23.9 13.05 -24.45 14.25 -24.4 17.0 -24.45 19.35 -22.7 21.6 -21.25 22.45 -21.5 24.15 -21.55 24.9 -22.6 25.65 -23.6 25.65 -24.6 25.4 -27.4 21.8 -28.95 18.2 -30.55 14.15 -30.6 8.55 -30.45 5.6 -27.7 2.65 -25.0 2.65 -21.3 2.6 -18.0 5.25 -15.7 7.95 -13.4 14.0 -12.25 L17.65 -11.25 Q19.15 -10.6 19.25 -8.85 19.3 -8.1 18.5 -6.9 17.7 -5.7 15.1 -5.55 12.3 -5.6 10.65 -6.5 9.0 -7.35 7.85 -8.6 L5.9 -10.25 4.45 -10.55 Q1.4 -10.4 1.25 -7.45 1.35 -4.7 4.9 -2.05 8.45 0.6 14.15 0.8 L14.15 0.8" fill-rule="evenodd" stroke="none"/>
    </g>
    <g id="font_A-OTF_____Pro_501_a0">
      <path d="M22.2 -10.2 L22.2 -10.2 Q22.2 -8.95 20.3 -7.35 18.35 -5.7 14.75 -5.55 12.25 -5.55 10.65 -6.4 9.05 -7.3 9.0 -9.4 9.3 -12.55 12.0 -13.25 L16.3 -13.8 Q21.9 -13.65 22.2 -12.2 L22.2 -10.2 22.2 -10.2 M28.8 -17.55 L28.8 -17.55 Q28.95 -19.7 28.35 -22.7 27.75 -25.75 25.05 -28.1 22.35 -30.45 16.1 -30.6 11.1 -30.55 7.55 -28.95 4.05 -27.35 3.9 -24.7 4.2 -21.7 7.15 -21.4 L8.3 -21.65 10.95 -23.05 Q12.7 -24.15 15.8 -24.2 20.3 -24.05 21.35 -22.25 22.35 -20.5 22.2 -19.25 21.1 -19.9 16.35 -20.2 8.05 -19.9 5.05 -16.5 2.05 -13.05 2.2 -9.45 2.25 -5.05 5.2 -2.1 8.2 0.9 13.75 1.0 19.2 1.1 23.45 -2.5 23.65 -1.3 24.3 -0.25 24.95 0.85 26.9 0.95 30.15 0.55 30.25 -1.9 L29.75 -4.15 Q28.95 -5.8 28.8 -8.35 L28.8 -17.55 28.8 -17.55" fill-rule="evenodd" stroke="none"/>
    </g>
    <g id="font_A-OTF_____Pro_501_g0">
      <path d="M10.2 -22.1 L10.2 -22.1 Q10.45 -24.1 12.7 -24.55 L16.1 -25.0 19.35 -24.65 Q21.7 -24.2 22.0 -22.1 21.75 -20.1 19.4 -19.6 L16.05 -19.2 12.95 -19.55 Q10.55 -20.0 10.2 -22.1 L10.2 -22.1 M13.15 -13.75 L13.15 -13.75 15.9 -13.6 Q22.6 -13.75 25.55 -16.3 28.45 -18.9 28.4 -22.05 28.3 -24.05 27.8 -24.95 L29.85 -26.55 Q30.75 -27.15 30.75 -28.7 30.6 -31.05 27.6 -31.45 26.8 -31.5 26.0 -31.0 L23.3 -29.25 Q22.0 -30.25 16.15 -30.6 10.35 -30.5 7.1 -28.2 3.85 -25.85 3.8 -22.1 3.9 -19.25 5.2 -17.8 6.45 -16.35 7.55 -15.75 L5.2 -10.65 Q4.5 -9.35 4.5 -7.95 4.7 -5.2 6.4 -4.6 8.05 -4.0 8.8 -4.1 L10.15 -4.25 11.7 -4.85 Q13.6 -5.9 17.4 -6.2 19.75 -6.2 21.55 -5.25 23.35 -4.3 23.4 -2.55 23.35 -0.55 21.5 0.15 19.6 0.85 17.0 0.8 12.2 0.7 9.85 -0.35 7.55 -1.45 6.9 -2.15 6.2 -2.85 5.05 -2.85 3.6 -2.8 2.85 -1.85 2.15 -0.9 2.1 0.2 2.05 2.25 5.7 4.45 9.35 6.65 17.3 6.8 L22.8 6.15 Q25.55 5.5 27.6 3.6 30.15 0.9 30.2 -2.45 30.3 -5.35 27.8 -8.35 25.25 -11.35 18.7 -11.55 L14.9 -11.2 11.75 -10.35 13.15 -13.75 13.15 -13.75" fill-rule="evenodd" stroke="none"/>
    </g>
    <g id="text1" transform="matrix(1.0, 0.0, 0.0, 1.0, -0.3, -0.5)">
      <g transform="matrix(1.0, 0.0, 0.0, 1.0, 0.0, 0.0)">
        <use fill="#000000" height="38.25" transform="matrix(0.2539, 0.0, 0.0, 0.2539, 0.0, 11.0)" width="122.6" xlink:href="#font_A-OTF_____Pro_501_Y0"/>
        <use fill="#000000" height="38.25" transform="matrix(0.2539, 0.0, 0.0, 0.2539, 8.9, 11.0)" width="122.6" xlink:href="#font_A-OTF_____Pro_501_o0"/>
        <use fill="#000000" height="38.25" transform="matrix(0.2539, 0.0, 0.0, 0.2539, 17.1, 11.0)" width="122.6" xlink:href="#font_A-OTF_____Pro_501_u0"/>
        <use fill="#000000" height="38.25" transform="matrix(0.2539, 0.0, 0.0, 0.2539, 25.3, 11.0)" width="122.6" xlink:href="#font_A-OTF_____Pro_501_r0"/>
        <use fill="#000000" height="38.25" transform="matrix(0.2539, 0.0, 0.0, 0.2539, 36.15, 11.0)" width="122.6" xlink:href="#font_A-OTF_____Pro_501_l0"/>
        <use fill="#000000" height="38.25" transform="matrix(0.2539, 0.0, 0.0, 0.2539, 40.25, 11.0)" width="122.6" xlink:href="#font_A-OTF_____Pro_501_i0"/>
        <use fill="#000000" height="38.25" transform="matrix(0.2539, 0.0, 0.0, 0.2539, 44.35, 11.0)" width="122.6" xlink:href="#font_A-OTF_____Pro_501_v0"/>
        <use fill="#000000" height="38.25" transform="matrix(0.2539, 0.0, 0.0, 0.2539, 52.55, 11.0)" width="122.6" xlink:href="#font_A-OTF_____Pro_501_e0"/>
        <use fill="#000000" height="38.25" transform="matrix(0.2539, 0.0, 0.0, 0.2539, 59.8, 11.0)" width="122.6" xlink:href="#font_A-OTF_____Pro_501_s0"/>
        <use fill="#000000" height="38.25" transform="matrix(0.2539, 0.0, 0.0, 0.2539, 67.05, 11.0)" width="122.6" xlink:href="#font_A-OTF_____Pro_501_.0"/>
      </g>
      <g transform="matrix(1.0, 0.0, 0.0, 1.0, 0.0, 0.0)">
        <use fill="#000000" height="38.25" transform="matrix(0.2539, 0.0, 0.0, 0.2539, 0.0, 24.0)" width="122.6" xlink:href="#font_A-OTF_____Pro_501_O0"/>
        <use fill="#000000" height="38.25" transform="matrix(0.2539, 0.0, 0.0, 0.2539, 10.6, 24.0)" width="122.6" xlink:href="#font_A-OTF_____Pro_501_n0"/>
        <use fill="#000000" height="38.25" transform="matrix(0.2539, 0.0, 0.0, 0.2539, 18.8, 24.0)" width="122.6" xlink:href="#font_A-OTF_____Pro_501_c0"/>
        <use fill="#000000" height="38.25" transform="matrix(0.2539, 0.0, 0.0, 0.2539, 26.05, 24.0)" width="122.6" xlink:href="#font_A-OTF_____Pro_501_e0"/>
        <use fill="#000000" height="38.25" transform="matrix(0.2539, 0.0, 0.0, 0.2539, 37.65, 24.0)" width="122.6" xlink:href="#font_A-OTF_____Pro_501_t0"/>
        <use fill="#000000" height="38.25" transform="matrix(0.2539, 0.0, 0.0, 0.2539, 43.4, 24.0)" width="122.6" xlink:href="#font_A-OTF_____Pro_501_h0"/>
        <use fill="#000000" height="38.25" transform="matrix(0.2539, 0.0, 0.0, 0.2539, 51.6, 24.0)" width="122.6" xlink:href="#font_A-OTF_____Pro_501_e0"/>
        <use fill="#000000" height="38.25" transform="matrix(0.2539, 0.0, 0.0, 0.2539, 58.85, 24.0)" width="122.6" xlink:href="#font_A-OTF_____Pro_501_y0"/>
        <use fill="#000000" height="38.25" transform="matrix(0.2539, 0.0, 0.0, 0.2539, 67.05, 24.0)" width="122.6" xlink:href="#font_A-OTF_____Pro_501__1"/>
        <use fill="#000000" height="38.25" transform="matrix(0.2539, 0.0, 0.0, 0.2539, 69.7, 24.0)" width="122.6" xlink:href="#font_A-OTF_____Pro_501_r0"/>
        <use fill="#000000" height="38.25" transform="matrix(0.2539, 0.0, 0.0, 0.2539, 76.2, 24.0)" width="122.6" xlink:href="#font_A-OTF_____Pro_501_e0"/>
        <use fill="#000000" height="38.25" transform="matrix(0.2539, 0.0, 0.0, 0.2539, 87.8, 24.0)" width="122.6" xlink:href="#font_A-OTF_____Pro_501_g0"/>
        <use fill="#000000" height="38.25" transform="matrix(0.2539, 0.0, 0.0, 0.2539, 96.0, 24.0)" width="122.6" xlink:href="#font_A-OTF_____Pro_501_o0"/>
        <use fill="#000000" height="38.25" transform="matrix(0.2539, 0.0, 0.0, 0.2539, 104.2, 24.0)" width="122.6" xlink:href="#font_A-OTF_____Pro_501_n0"/>
        <use fill="#000000" height="38.25" transform="matrix(0.2539, 0.0, 0.0, 0.2539, 112.4, 24.0)" width="122.6" xlink:href="#font_A-OTF_____Pro_501_e0"/>
        <use fill="#000000" height="38.25" transform="matrix(0.2539, 0.0, 0.0, 0.2539, 119.65, 24.0)" width="122.6" xlink:href="#font_A-OTF_____Pro_501__2"/>
      </g>
      <g transform="matrix(1.0, 0.0, 0.0, 1.0, 0.0, 0.0)">
        <use fill="#000000" height="38.25" transform="matrix(0.2539, 0.0, 0.0, 0.2539, 0.0, 37.0)" width="122.6" xlink:href="#font_A-OTF_____Pro_501_t0"/>
        <use fill="#000000" height="38.25" transform="matrix(0.2539, 0.0, 0.0, 0.2539, 5.75, 37.0)" width="122.6" xlink:href="#font_A-OTF_____Pro_501_h0"/>
        <use fill="#000000" height="38.25" transform="matrix(0.2539, 0.0, 0.0, 0.2539, 13.95, 37.0)" width="122.6" xlink:href="#font_A-OTF_____Pro_501_e0"/>
        <use fill="#000000" height="38.25" transform="matrix(0.2539, 0.0, 0.0, 0.2539, 25.55, 37.0)" width="122.6" xlink:href="#font_A-OTF_____Pro_501_g0"/>
        <use fill="#000000" height="38.25" transform="matrix(0.2539, 0.0, 0.0, 0.2539, 33.75, 37.0)" width="122.6" xlink:href="#font_A-OTF_____Pro_501_a0"/>
        <use fill="#000000" height="38.25" transform="matrix(0.2539, 0.0, 0.0, 0.2539, 41.95, 37.0)" width="122.6" xlink:href="#font_A-OTF_____Pro_501_m0"/>
        <use fill="#000000" height="38.25" transform="matrix(0.2539, 0.0, 0.0, 0.2539, 53.25, 37.0)" width="122.6" xlink:href="#font_A-OTF_____Pro_501_e0"/>
        <use fill="#000000" height="38.25" transform="matrix(0.2539, 0.0, 0.0, 0.2539, 64.85, 37.0)" width="122.6" xlink:href="#font_A-OTF_____Pro_501_i0"/>
        <use fill="#000000" height="38.25" transform="matrix(0.2539, 0.0, 0.0, 0.2539, 68.95, 37.0)" width="122.6" xlink:href="#font_A-OTF_____Pro_501_s0"/>
        <use fill="#000000" height="38.25" transform="matrix(0.2539, 0.0, 0.0, 0.2539, 80.55, 37.0)" width="122.6" xlink:href="#font_A-OTF_____Pro_501_o0"/>
        <use fill="#000000" height="38.25" transform="matrix(0.2539, 0.0, 0.0, 0.2539, 88.75, 37.0)" width="122.6" xlink:href="#font_A-OTF_____Pro_501_v0"/>
        <use fill="#000000" height="38.25" transform="matrix(0.2539, 0.0, 0.0, 0.2539, 96.95, 37.0)" width="122.6" xlink:href="#font_A-OTF_____Pro_501_e0"/>
        <use fill="#000000" height="38.25" transform="matrix(0.2539, 0.0, 0.0, 0.2539, 104.2, 37.0)" width="122.6" xlink:href="#font_A-OTF_____Pro_501_r0"/>
        <use fill="#000000" height="38.25" transform="matrix(0.2539, 0.0, 0.0, 0.2539, 110.7, 37.0)" width="122.6" xlink:href="#font_A-OTF_____Pro_501_.0"/>
      </g>
    </g>
    <g id="font_A-OTF_____Pro_501_Y0">
      <path d="M21.2 -16.6 L21.2 -16.6 22.25 -17.5 23.3 -19.25 33.45 -36.55 33.75 -37.65 Q33.8 -39.05 32.9 -40.25 32.05 -41.3 30.25 -41.4 28.0 -41.15 27.3 -39.65 L17.65 -23.05 7.9 -39.65 Q7.2 -41.05 5.05 -41.4 3.7 -41.4 2.6 -40.5 1.55 -39.6 1.45 -37.9 1.5 -37.0 1.8 -36.55 L11.9 -19.25 12.95 -17.55 14.0 -16.6 14.0 -2.45 Q14.0 -1.45 14.8 -0.35 15.6 0.7 17.65 0.8 18.95 0.8 20.05 0.0 21.15 -0.8 21.2 -2.45 L21.2 -16.6 21.2 -16.6" fill-rule="evenodd" stroke="none"/>
    </g>
    <g id="font_A-OTF_____Pro_501_o0">
      <path d="M16.1 -23.8 L16.1 -23.8 Q20.8 -23.45 22.1 -20.3 23.4 -17.1 23.2 -14.85 23.4 -12.65 22.1 -9.5 20.8 -6.3 16.1 -6.0 11.4 -6.3 10.1 -9.5 8.85 -12.65 9.0 -14.85 8.85 -17.1 10.15 -20.3 11.4 -23.45 16.1 -23.8 L16.1 -23.8 M16.1 -30.6 L16.1 -30.6 Q8.05 -30.25 5.05 -25.2 2.05 -20.2 2.2 -14.85 2.05 -9.55 5.05 -4.55 8.05 0.45 16.1 0.8 24.2 0.45 27.15 -4.55 30.15 -9.55 30.0 -14.85 30.15 -20.2 27.15 -25.2 24.2 -30.2 16.1 -30.6 L16.1 -30.6" fill-rule="evenodd" stroke="none"/>
    </g>
    <g id="font_A-OTF_____Pro_501_l0">
      <path d="M4.8 -2.6 L4.8 -2.6 Q5.1 0.55 8.25 0.8 9.9 0.7 10.65 -0.4 11.4 -1.5 11.4 -2.5 L11.4 -37.85 Q11.2 -40.85 8.05 -41.2 5.05 -40.8 4.8 -37.75 L4.8 -2.6 4.8 -2.6" fill-rule="evenodd" stroke="none"/>
    </g>
    <g id="font_A-OTF_____Pro_501_i0">
      <path d="M8.0 -41.2 L8.0 -41.2 Q6.25 -41.15 5.05 -40.0 3.9 -38.85 3.85 -37.1 4.15 -33.4 8.0 -33.0 11.85 -33.35 12.2 -37.1 12.15 -38.9 10.95 -40.0 9.7 -41.15 8.0 -41.2 L8.0 -41.2 M11.4 -27.25 L11.4 -27.25 Q11.4 -28.35 10.6 -29.45 9.8 -30.5 8.2 -30.6 5.15 -30.45 4.8 -27.25 L4.8 -2.5 Q4.8 -1.4 5.6 -0.35 6.4 0.75 8.0 0.8 11.1 0.65 11.4 -2.5 L11.4 -27.25 11.4 -27.25" fill-rule="evenodd" stroke="none"/>
    </g>
    <g id="font_A-OTF_____Pro_501_v0">
      <path d="M8.3 -27.85 L8.3 -27.85 7.25 -29.75 Q6.6 -30.55 5.05 -30.6 2.75 -30.45 2.05 -29.25 1.35 -28.05 1.4 -27.3 1.4 -26.5 1.75 -25.8 L10.85 -3.05 Q11.35 -1.55 12.35 -0.4 13.4 0.75 16.05 0.8 18.75 0.75 19.8 -0.4 20.85 -1.5 21.35 -3.05 L30.45 -25.8 30.8 -27.4 Q30.75 -29.05 29.6 -29.8 28.5 -30.6 27.2 -30.6 25.6 -30.55 24.95 -29.8 24.3 -29.0 23.9 -27.85 L16.1 -7.8 8.3 -27.85 8.3 -27.85" fill-rule="evenodd" stroke="none"/>
    </g>
    <g id="font_A-OTF_____Pro_501_.0">
      <path d="M8.0 -8.75 L8.0 -8.75 Q6.0 -8.7 4.65 -7.4 3.3 -6.05 3.25 -4.0 3.3 -1.95 4.6 -0.6 5.95 0.75 8.0 0.8 10.0 0.75 11.4 -0.6 12.75 -1.95 12.8 -4.0 12.75 -6.05 11.4 -7.4 10.0 -8.7 8.0 -8.75 L8.0 -8.75" fill-rule="evenodd" stroke="none"/>
    </g>
    <g id="font_A-OTF_____Pro_501_O0">
      <path d="M20.85 -34.0 L20.85 -34.0 Q26.8 -33.7 29.35 -29.35 31.9 -25.05 31.8 -20.2 31.9 -15.5 29.35 -11.1 26.85 -6.7 20.8 -6.4 14.9 -6.7 12.3 -11.0 9.75 -15.3 9.8 -20.2 9.75 -25.35 12.4 -29.55 15.1 -33.75 20.85 -34.0 L20.85 -34.0 M20.85 0.8 L20.85 0.8 Q27.5 0.7 31.6 -2.6 35.7 -5.9 37.55 -10.7 39.45 -15.5 39.4 -20.2 39.45 -24.9 37.55 -29.7 35.7 -34.5 31.6 -37.8 27.5 -41.05 20.85 -41.2 14.2 -41.05 10.05 -37.8 5.95 -34.5 4.1 -29.7 2.2 -24.9 2.25 -20.2 2.2 -15.5 4.1 -10.7 5.95 -5.9 10.05 -2.6 14.2 0.7 20.85 0.8 L20.85 0.8" fill-rule="evenodd" stroke="none"/>
    </g>
    <g id="font_A-OTF_____Pro_501_c0">
      <path d="M15.5 -30.6 L15.5 -30.6 Q10.05 -30.45 7.15 -27.8 4.25 -25.15 3.2 -21.5 2.15 -17.9 2.2 -14.85 2.4 -7.1 6.15 -3.05 9.95 1.0 15.2 1.0 20.45 0.7 23.4 -2.2 26.3 -5.15 26.35 -7.1 26.4 -10.0 23.15 -10.4 21.4 -10.5 19.9 -8.35 18.6 -6.65 17.55 -6.2 16.5 -5.75 15.35 -5.8 11.95 -5.95 10.5 -8.75 9.0 -11.55 9.0 -14.75 8.95 -17.8 10.3 -20.7 11.6 -23.6 14.85 -23.8 17.65 -23.9 19.45 -21.15 20.55 -19.6 21.25 -19.2 L22.75 -18.85 Q24.05 -18.85 25.05 -19.7 26.05 -20.55 26.1 -22.3 25.9 -25.75 22.5 -28.1 19.15 -30.5 15.5 -30.6 L15.5 -30.6" fill-rule="evenodd" stroke="none"/>
    </g>
    <g id="font_A-OTF_____Pro_501_h0">
      <path d="M28.8 -20.8 L28.8 -20.8 Q28.65 -25.7 25.4 -28.15 22.15 -30.6 18.0 -30.6 L14.75 -30.15 Q12.4 -29.55 10.0 -26.95 L10.0 -37.8 Q10.0 -38.85 9.25 -40.0 8.45 -41.1 6.8 -41.2 3.65 -40.85 3.4 -37.75 L3.4 -2.6 Q3.4 -1.65 4.15 -0.45 4.9 0.7 6.6 0.8 9.75 0.55 10.0 -2.55 L10.0 -16.2 Q10.0 -18.45 11.75 -21.0 13.5 -23.55 17.25 -23.8 20.5 -23.6 21.4 -21.75 22.3 -19.9 22.2 -18.75 L22.2 -2.6 Q22.2 -1.6 23.0 -0.45 23.75 0.7 25.45 0.8 28.55 0.6 28.8 -2.55 L28.8 -20.8 28.8 -20.8" fill-rule="evenodd" stroke="none"/>
    </g>
    <g id="font_A-OTF_____Pro_501_y0">
      <path d="M10.7 -8.65 L10.7 -8.65 Q11.55 -6.95 12.25 -6.25 12.95 -5.55 14.4 -5.15 12.55 0.15 9.75 -0.15 L8.0 -0.35 4.5 -1.1 Q3.65 -1.1 2.6 -0.35 1.55 0.45 1.45 2.2 1.45 6.55 9.6 6.8 12.55 6.9 15.05 5.6 17.55 4.25 19.3 0.35 L30.35 -25.3 30.8 -27.15 Q30.7 -29.35 29.55 -30.1 28.35 -30.85 27.4 -30.8 25.8 -30.7 25.05 -29.8 24.35 -28.95 24.2 -28.55 L17.15 -12.3 Q16.3 -12.05 15.35 -14.3 L7.85 -28.7 Q7.2 -30.5 4.65 -30.6 3.65 -30.6 2.55 -29.7 1.5 -28.85 1.4 -27.1 1.35 -26.35 1.95 -24.95 L10.7 -8.65 10.7 -8.65" fill-rule="evenodd" stroke="none"/>
    </g>
    <g id="font_A-OTF_____Pro_501__1">
      <path d="M7.8 -38.35 L7.8 -38.35 Q7.9 -40.4 6.75 -40.85 L5.2 -41.2 Q2.4 -41.15 2.6 -38.35 L3.8 -26.7 Q3.95 -25.35 5.2 -25.3 6.1 -25.4 6.35 -25.9 L6.6 -26.7 7.8 -38.35 7.8 -38.35" fill-rule="evenodd" stroke="none"/>
    </g>
    <g id="font_A-OTF_____Pro_501__2">
      <path d="M7.95 0.8 L7.95 0.8 5.75 3.1 4.15 4.4 Q3.8 4.8 3.85 5.3 4.0 6.7 5.3 6.75 6.75 6.65 9.6 3.75 12.45 0.85 12.8 -3.45 12.65 -6.5 11.05 -7.65 9.45 -8.85 8.0 -8.75 6.05 -8.75 4.65 -7.4 3.3 -6.1 3.25 -4.0 3.25 -2.1 4.5 -0.7 5.75 0.65 7.95 0.8 L7.95 0.8" fill-rule="evenodd" stroke="none"/>
    </g>
    <g id="font_A-OTF_____Pro_501_m0">
      <path d="M41.2 -23.05 L41.2 -23.05 Q41.2 -26.4 38.8 -28.45 36.45 -30.55 31.9 -30.6 28.05 -30.5 26.4 -29.45 24.75 -28.4 24.25 -27.7 22.85 -29.45 21.0 -30.05 L17.45 -30.6 Q14.0 -30.55 12.4 -29.65 10.8 -28.8 9.95 -27.75 9.75 -28.55 8.95 -29.5 8.1 -30.5 6.2 -30.6 4.55 -30.55 3.55 -29.6 2.55 -28.65 2.75 -27.2 L3.2 -24.85 3.4 -23.2 3.4 -2.6 Q3.4 -1.55 4.2 -0.4 5.0 0.7 6.65 0.8 9.75 0.55 10.0 -2.55 L10.0 -18.05 Q9.9 -19.2 10.8 -21.35 11.65 -23.55 15.05 -23.8 L17.3 -23.3 Q18.85 -22.7 19.0 -19.95 L19.0 -2.6 Q19.0 -1.6 19.8 -0.45 20.55 0.7 22.25 0.8 25.4 0.5 25.6 -2.55 L25.6 -18.05 Q25.5 -19.2 26.4 -21.35 27.3 -23.55 30.7 -23.8 L32.9 -23.3 Q34.45 -22.7 34.6 -19.95 L34.6 -2.6 Q34.6 -1.6 35.35 -0.45 36.15 0.7 37.85 0.8 40.95 0.6 41.2 -2.55 L41.2 -23.05 41.2 -23.05" fill-rule="evenodd" stroke="none"/>
    </g>
    <g id="text2" transform="matrix(1.0, 0.0, 0.0, 1.0, -61.55, -0.55)">
      <g transform="matrix(1.0, 0.0, 0.0, 1.0, 0.0, 0.0)">
        <use fill="#ff0000" height="25.2" transform="matrix(0.2539, 0.0, 0.0, 0.2539, 78.0, 11.0)" width="156.7" xlink:href="#font_A-OTF_____Pro_501_C0"/>
        <use fill="#ff0000" height="25.2" transform="matrix(0.2539, 0.0, 0.0, 0.2539, 87.85, 11.0)" width="156.7" xlink:href="#font_A-OTF_____Pro_501_l0"/>
        <use fill="#ff0000" height="25.2" transform="matrix(0.2539, 0.0, 0.0, 0.2539, 91.95, 11.0)" width="156.7" xlink:href="#font_A-OTF_____Pro_501_i0"/>
        <use fill="#ff0000" height="25.2" transform="matrix(0.2539, 0.0, 0.0, 0.2539, 96.05, 11.0)" width="156.7" xlink:href="#font_A-OTF_____Pro_501_c0"/>
        <use fill="#ff0000" height="25.2" transform="matrix(0.2539, 0.0, 0.0, 0.2539, 103.3, 11.0)" width="156.7" xlink:href="#font_A-OTF_____Pro_501_k0"/>
        <use fill="#ff0000" height="25.2" transform="matrix(0.2539, 0.0, 0.0, 0.2539, 115.85, 11.0)" width="156.7" xlink:href="#font_A-OTF_____Pro_501_t0"/>
        <use fill="#ff0000" height="25.2" transform="matrix(0.2539, 0.0, 0.0, 0.2539, 121.6, 11.0)" width="156.7" xlink:href="#font_A-OTF_____Pro_501_h0"/>
        <use fill="#ff0000" height="25.2" transform="matrix(0.2539, 0.0, 0.0, 0.2539, 129.8, 11.0)" width="156.7" xlink:href="#font_A-OTF_____Pro_501_e0"/>
        <use fill="#ff0000" height="25.2" transform="matrix(0.2539, 0.0, 0.0, 0.2539, 141.4, 11.0)" width="156.7" xlink:href="#font_A-OTF_____Pro_501_H0"/>
        <use fill="#ff0000" height="25.2" transform="matrix(0.2539, 0.0, 0.0, 0.2539, 151.25, 11.0)" width="156.7" xlink:href="#font_A-OTF_____Pro_501_e0"/>
        <use fill="#ff0000" height="25.2" transform="matrix(0.2539, 0.0, 0.0, 0.2539, 158.5, 11.0)" width="156.7" xlink:href="#font_A-OTF_____Pro_501_l0"/>
        <use fill="#ff0000" height="25.2" transform="matrix(0.2539, 0.0, 0.0, 0.2539, 162.6, 11.0)" width="156.7" xlink:href="#font_A-OTF_____Pro_501_p0"/>
        <use fill="#ff0000" height="25.2" transform="matrix(0.2539, 0.0, 0.0, 0.2539, 175.15, 11.0)" width="156.7" xlink:href="#font_A-OTF_____Pro_501_b0"/>
        <use fill="#ff0000" height="25.2" transform="matrix(0.2539, 0.0, 0.0, 0.2539, 183.35, 11.0)" width="156.7" xlink:href="#font_A-OTF_____Pro_501_u0"/>
        <use fill="#ff0000" height="25.2" transform="matrix(0.2539, 0.0, 0.0, 0.2539, 191.55, 11.0)" width="156.7" xlink:href="#font_A-OTF_____Pro_501_t0"/>
        <use fill="#ff0000" height="25.2" transform="matrix(0.2539, 0.0, 0.0, 0.2539, 197.3, 11.0)" width="156.7" xlink:href="#font_A-OTF_____Pro_501_t0"/>
        <use fill="#ff0000" height="25.2" transform="matrix(0.2539, 0.0, 0.0, 0.2539, 203.05, 11.0)" width="156.7" xlink:href="#font_A-OTF_____Pro_501_o0"/>
        <use fill="#ff0000" height="25.2" transform="matrix(0.2539, 0.0, 0.0, 0.2539, 211.25, 11.0)" width="156.7" xlink:href="#font_A-OTF_____Pro_501_n0"/>
      </g>
      <g transform="matrix(1.0, 0.0, 0.0, 1.0, 0.0, 0.0)">
        <use fill="#ff0000" height="25.2" transform="matrix(0.2539, 0.0, 0.0, 0.2539, 61.0, 24.0)" width="156.7" xlink:href="#font_A-OTF_____Pro_501_t0"/>
        <use fill="#ff0000" height="25.2" transform="matrix(0.2539, 0.0, 0.0, 0.2539, 66.75, 24.0)" width="156.7" xlink:href="#font_A-OTF_____Pro_501_o0"/>
        <use fill="#ff0000" height="25.2" transform="matrix(0.2539, 0.0, 0.0, 0.2539, 79.3, 24.0)" width="156.7" xlink:href="#font_A-OTF_____Pro_501_r0"/>
        <use fill="#ff0000" height="25.2" transform="matrix(0.2539, 0.0, 0.0, 0.2539, 85.8, 24.0)" width="156.7" xlink:href="#font_A-OTF_____Pro_501_e0"/>
        <use fill="#ff0000" height="25.2" transform="matrix(0.2539, 0.0, 0.0, 0.2539, 93.05, 24.0)" width="156.7" xlink:href="#font_A-OTF_____Pro_501_t0"/>
        <use fill="#ff0000" height="25.2" transform="matrix(0.2539, 0.0, 0.0, 0.2539, 98.8, 24.0)" width="156.7" xlink:href="#font_A-OTF_____Pro_501_u0"/>
        <use fill="#ff0000" height="25.2" transform="matrix(0.2539, 0.0, 0.0, 0.2539, 107.0, 24.0)" width="156.7" xlink:href="#font_A-OTF_____Pro_501_r0"/>
        <use fill="#ff0000" height="25.2" transform="matrix(0.2539, 0.0, 0.0, 0.2539, 113.5, 24.0)" width="156.7" xlink:href="#font_A-OTF_____Pro_501_n0"/>
        <use fill="#ff0000" height="25.2" transform="matrix(0.2539, 0.0, 0.0, 0.2539, 126.05, 24.0)" width="156.7" xlink:href="#font_A-OTF_____Pro_501_t0"/>
        <use fill="#ff0000" height="25.2" transform="matrix(0.2539, 0.0, 0.0, 0.2539, 131.8, 24.0)" width="156.7" xlink:href="#font_A-OTF_____Pro_501_o0"/>
        <use fill="#ff0000" height="25.2" transform="matrix(0.2539, 0.0, 0.0, 0.2539, 144.35, 24.0)" width="156.7" xlink:href="#font_A-OTF_____Pro_501_y0"/>
        <use fill="#ff0000" height="25.2" transform="matrix(0.2539, 0.0, 0.0, 0.2539, 152.55, 24.0)" width="156.7" xlink:href="#font_A-OTF_____Pro_501_o0"/>
        <use fill="#ff0000" height="25.2" transform="matrix(0.2539, 0.0, 0.0, 0.2539, 160.75, 24.0)" width="156.7" xlink:href="#font_A-OTF_____Pro_501_u0"/>
        <use fill="#ff0000" height="25.2" transform="matrix(0.2539, 0.0, 0.0, 0.2539, 168.95, 24.0)" width="156.7" xlink:href="#font_A-OTF_____Pro_501_r0"/>
        <use fill="#ff0000" height="25.2" transform="matrix(0.2539, 0.0, 0.0, 0.2539, 179.8, 24.0)" width="156.7" xlink:href="#font_A-OTF_____Pro_501_g0"/>
        <use fill="#ff0000" height="25.2" transform="matrix(0.2539, 0.0, 0.0, 0.2539, 188.0, 24.0)" width="156.7" xlink:href="#font_A-OTF_____Pro_501_a0"/>
        <use fill="#ff0000" height="25.2" transform="matrix(0.2539, 0.0, 0.0, 0.2539, 196.2, 24.0)" width="156.7" xlink:href="#font_A-OTF_____Pro_501_m0"/>
        <use fill="#ff0000" height="25.2" transform="matrix(0.2539, 0.0, 0.0, 0.2539, 207.5, 24.0)" width="156.7" xlink:href="#font_A-OTF_____Pro_501_e0"/>
        <use fill="#ff0000" height="25.2" transform="matrix(0.2539, 0.0, 0.0, 0.2539, 214.75, 24.0)" width="156.7" xlink:href="#font_A-OTF_____Pro_501_.0"/>
      </g>
    </g>
    <g id="font_A-OTF_____Pro_501_k0">
      <path d="M10.0 -17.25 L10.0 -17.25 10.0 -38.0 Q10.05 -39.05 9.25 -40.1 8.5 -41.1 6.8 -41.2 5.5 -41.15 4.5 -40.3 3.45 -39.45 3.4 -37.9 L3.4 -2.45 Q3.65 0.55 6.65 0.8 9.7 0.7 10.0 -2.35 L10.0 -8.45 15.2 -12.9 Q17.25 -13.1 18.65 -10.65 L24.35 -1.35 Q25.15 0.75 27.7 1.0 30.55 0.65 30.85 -2.25 30.7 -3.6 30.3 -4.15 L23.55 -14.75 22.5 -16.0 Q21.7 -16.95 20.25 -17.35 L29.1 -24.95 Q30.1 -25.7 30.15 -27.5 29.8 -30.3 26.6 -30.6 24.65 -30.35 24.3 -29.75 L10.0 -17.25 10.0 -17.25" fill-rule="evenodd" stroke="none"/>
    </g>
    <g id="font_A-OTF_____Pro_501_H0">
      <path d="M27.6 -17.8 L27.6 -17.8 27.6 -2.8 Q28.0 0.55 31.3 0.8 34.65 0.4 34.8 -2.8 L34.8 -37.55 Q34.55 -40.85 31.1 -41.2 27.8 -40.8 27.6 -37.55 L27.6 -25.0 11.2 -25.0 11.2 -37.55 Q10.85 -40.95 7.5 -41.2 4.2 -40.8 4.0 -37.55 L4.0 -2.8 Q4.35 0.55 7.7 0.8 9.45 0.7 10.35 -0.5 11.2 -1.7 11.2 -2.8 L11.2 -17.8 27.6 -17.8 27.6 -17.8" fill-rule="evenodd" stroke="none"/>
    </g>
    <g id="font_A-OTF_____Pro_501_p0">
      <path d="M10.0 -16.5 L10.0 -16.5 Q10.0 -19.05 11.6 -21.25 13.2 -23.45 16.65 -23.6 19.6 -23.65 21.15 -22.15 22.45 -20.85 22.95 -18.85 23.45 -16.85 23.4 -15.1 23.3 -9.35 21.3 -7.6 19.35 -5.8 16.9 -6.0 12.3 -6.25 11.1 -8.85 9.85 -11.4 10.0 -12.9 L10.0 -16.5 10.0 -16.5 M3.4 3.45 L3.4 3.45 Q3.65 6.4 6.85 6.75 8.5 6.65 9.25 5.5 10.0 4.4 10.0 3.35 L10.0 -1.8 Q12.25 0.1 14.6 0.5 L17.8 0.8 Q24.35 0.6 27.25 -3.95 30.1 -8.55 30.0 -14.65 30.05 -20.9 27.1 -25.6 24.1 -30.3 17.4 -30.55 13.85 -30.5 12.2 -29.4 10.5 -28.3 9.55 -27.05 9.45 -28.45 8.7 -29.5 8.0 -30.5 6.2 -30.55 4.2 -30.5 3.75 -29.35 3.35 -28.2 3.4 -26.95 L3.4 3.45 3.4 3.45" fill-rule="evenodd" stroke="none"/>
    </g>
    <g id="font_A-OTF_____Pro_501_b0">
      <path d="M10.0 -16.85 L10.0 -16.85 Q9.85 -18.35 11.1 -20.9 12.3 -23.5 16.9 -23.8 19.3 -23.95 21.3 -22.2 23.3 -20.45 23.4 -14.6 23.45 -10.7 21.85 -8.4 20.25 -6.05 16.65 -6.0 13.2 -6.15 11.6 -8.4 10.0 -10.65 10.0 -13.2 L10.0 -16.85 10.0 -16.85 M3.4 -2.75 L3.4 -2.75 Q3.35 -1.5 3.75 -0.4 4.2 0.75 6.2 0.8 9.55 0.4 9.55 -2.65 10.5 -1.4 12.2 -0.35 13.85 0.75 17.4 0.8 24.1 0.6 27.1 -4.1 30.05 -8.8 30.0 -15.05 30.1 -21.25 27.25 -25.8 24.35 -30.35 17.8 -30.6 L14.6 -30.25 Q12.25 -29.85 10.0 -27.95 L10.0 -37.85 Q10.0 -38.85 9.25 -39.95 8.5 -41.1 6.85 -41.2 3.65 -40.85 3.4 -37.9 L3.4 -2.75 3.4 -2.75" fill-rule="evenodd" stroke="none"/>
    </g>
    <g id="text3" transform="matrix(1.0, 0.0, 0.0, 1.0, -32.2, -0.55)">
      <g transform="matrix(1.0, 0.0, 0.0, 1.0, 0.0, 0.0)">
        <use fill="#000000" height="23.7" transform="matrix(0.2539, 0.0, 0.0, 0.2539, 47.0, 11.0)" width="168.05" xlink:href="#font_A-OTF_____Pro_501_C0"/>
        <use fill="#000000" height="23.7" transform="matrix(0.2539, 0.0, 0.0, 0.2539, 56.85, 11.0)" width="168.05" xlink:href="#font_A-OTF_____Pro_501_l0"/>
        <use fill="#000000" height="23.7" transform="matrix(0.2539, 0.0, 0.0, 0.2539, 60.95, 11.0)" width="168.05" xlink:href="#font_A-OTF_____Pro_501_i0"/>
        <use fill="#000000" height="23.7" transform="matrix(0.2539, 0.0, 0.0, 0.2539, 65.05, 11.0)" width="168.05" xlink:href="#font_A-OTF_____Pro_501_c0"/>
        <use fill="#000000" height="23.7" transform="matrix(0.2539, 0.0, 0.0, 0.2539, 72.3, 11.0)" width="168.05" xlink:href="#font_A-OTF_____Pro_501_k0"/>
        <use fill="#000000" height="23.7" transform="matrix(0.2539, 0.0, 0.0, 0.2539, 84.85, 11.0)" width="168.05" xlink:href="#font_A-OTF_____Pro_501_t0"/>
        <use fill="#000000" height="23.7" transform="matrix(0.2539, 0.0, 0.0, 0.2539, 90.6, 11.0)" width="168.05" xlink:href="#font_A-OTF_____Pro_501_h0"/>
        <use fill="#000000" height="23.7" transform="matrix(0.2539, 0.0, 0.0, 0.2539, 98.8, 11.0)" width="168.05" xlink:href="#font_A-OTF_____Pro_501_e0"/>
        <use fill="#000000" height="23.7" transform="matrix(0.2539, 0.0, 0.0, 0.2539, 110.4, 11.0)" width="168.05" xlink:href="#font_A-OTF_____Pro_501_S0"/>
        <use fill="#000000" height="23.7" transform="matrix(0.2539, 0.0, 0.0, 0.2539, 119.3, 11.0)" width="168.05" xlink:href="#font_A-OTF_____Pro_501_o0"/>
        <use fill="#000000" height="23.7" transform="matrix(0.2539, 0.0, 0.0, 0.2539, 127.5, 11.0)" width="168.05" xlink:href="#font_A-OTF_____Pro_501_u0"/>
        <use fill="#000000" height="23.7" transform="matrix(0.2539, 0.0, 0.0, 0.2539, 135.7, 11.0)" width="168.05" xlink:href="#font_A-OTF_____Pro_501_n0"/>
        <use fill="#000000" height="23.7" transform="matrix(0.2539, 0.0, 0.0, 0.2539, 143.9, 11.0)" width="168.05" xlink:href="#font_A-OTF_____Pro_501_d0"/>
        <use fill="#000000" height="23.7" transform="matrix(0.2539, 0.0, 0.0, 0.2539, 156.45, 11.0)" width="168.05" xlink:href="#font_A-OTF_____Pro_501_b0"/>
        <use fill="#000000" height="23.7" transform="matrix(0.2539, 0.0, 0.0, 0.2539, 164.65, 11.0)" width="168.05" xlink:href="#font_A-OTF_____Pro_501_u0"/>
        <use fill="#000000" height="23.7" transform="matrix(0.2539, 0.0, 0.0, 0.2539, 172.85, 11.0)" width="168.05" xlink:href="#font_A-OTF_____Pro_501_t0"/>
        <use fill="#000000" height="23.7" transform="matrix(0.2539, 0.0, 0.0, 0.2539, 178.6, 11.0)" width="168.05" xlink:href="#font_A-OTF_____Pro_501_t0"/>
        <use fill="#000000" height="23.7" transform="matrix(0.2539, 0.0, 0.0, 0.2539, 184.35, 11.0)" width="168.05" xlink:href="#font_A-OTF_____Pro_501_o0"/>
        <use fill="#000000" height="23.7" transform="matrix(0.2539, 0.0, 0.0, 0.2539, 192.55, 11.0)" width="168.05" xlink:href="#font_A-OTF_____Pro_501_n0"/>
      </g>
      <g transform="matrix(1.0, 0.0, 0.0, 1.0, 0.0, 0.0)">
        <use fill="#000000" height="23.7" transform="matrix(0.2539, 0.0, 0.0, 0.2539, 32.0, 24.0)" width="168.05" xlink:href="#font_A-OTF_____Pro_501_t0"/>
        <use fill="#000000" height="23.7" transform="matrix(0.2539, 0.0, 0.0, 0.2539, 37.75, 24.0)" width="168.05" xlink:href="#font_A-OTF_____Pro_501_o0"/>
        <use fill="#000000" height="23.7" transform="matrix(0.2539, 0.0, 0.0, 0.2539, 50.3, 24.0)" width="168.05" xlink:href="#font_A-OTF_____Pro_501_t0"/>
        <use fill="#000000" height="23.7" transform="matrix(0.2539, 0.0, 0.0, 0.2539, 56.05, 24.0)" width="168.05" xlink:href="#font_A-OTF_____Pro_501_u0"/>
        <use fill="#000000" height="23.7" transform="matrix(0.2539, 0.0, 0.0, 0.2539, 64.25, 24.0)" width="168.05" xlink:href="#font_A-OTF_____Pro_501_r0"/>
        <use fill="#000000" height="23.7" transform="matrix(0.2539, 0.0, 0.0, 0.2539, 70.75, 24.0)" width="168.05" xlink:href="#font_A-OTF_____Pro_501_n0"/>
        <use fill="#000000" height="23.7" transform="matrix(0.2539, 0.0, 0.0, 0.2539, 83.3, 24.0)" width="168.05" xlink:href="#font_A-OTF_____Pro_501_s0"/>
        <use fill="#000000" height="23.7" transform="matrix(0.2539, 0.0, 0.0, 0.2539, 90.55, 24.0)" width="168.05" xlink:href="#font_A-OTF_____Pro_501_o0"/>
        <use fill="#000000" height="23.7" transform="matrix(0.2539, 0.0, 0.0, 0.2539, 98.75, 24.0)" width="168.05" xlink:href="#font_A-OTF_____Pro_501_u0"/>
        <use fill="#000000" height="23.7" transform="matrix(0.2539, 0.0, 0.0, 0.2539, 106.95, 24.0)" width="168.05" xlink:href="#font_A-OTF_____Pro_501_n0"/>
        <use fill="#000000" height="23.7" transform="matrix(0.2539, 0.0, 0.0, 0.2539, 115.15, 24.0)" width="168.05" xlink:href="#font_A-OTF_____Pro_501_d0"/>
        <use fill="#000000" height="23.7" transform="matrix(0.2539, 0.0, 0.0, 0.2539, 127.7, 24.0)" width="168.05" xlink:href="#font_A-OTF_____Pro_501_o0"/>
        <use fill="#000000" height="23.7" transform="matrix(0.2539, 0.0, 0.0, 0.2539, 135.9, 24.0)" width="168.05" xlink:href="#font_A-OTF_____Pro_501_n0"/>
        <use fill="#000000" height="23.7" transform="matrix(0.2539, 0.0, 0.0, 0.2539, 148.45, 24.0)" width="168.05" xlink:href="#font_A-OTF_____Pro_501_a0"/>
        <use fill="#000000" height="23.7" transform="matrix(0.2539, 0.0, 0.0, 0.2539, 156.65, 24.0)" width="168.05" xlink:href="#font_A-OTF_____Pro_501_n0"/>
        <use fill="#000000" height="23.7" transform="matrix(0.2539, 0.0, 0.0, 0.2539, 164.85, 24.0)" width="168.05" xlink:href="#font_A-OTF_____Pro_501_d0"/>
        <use fill="#000000" height="23.7" transform="matrix(0.2539, 0.0, 0.0, 0.2539, 177.4, 24.0)" width="168.05" xlink:href="#font_A-OTF_____Pro_501_o0"/>
        <use fill="#000000" height="23.7" transform="matrix(0.2539, 0.0, 0.0, 0.2539, 185.6, 24.0)" width="168.05" xlink:href="#font_A-OTF_____Pro_501_f0"/>
        <use fill="#000000" height="23.7" transform="matrix(0.2539, 0.0, 0.0, 0.2539, 191.35, 24.0)" width="168.05" xlink:href="#font_A-OTF_____Pro_501_f0"/>
        <use fill="#000000" height="23.7" transform="matrix(0.2539, 0.0, 0.0, 0.2539, 197.1, 24.0)" width="168.05" xlink:href="#font_A-OTF_____Pro_501_.0"/>
      </g>
    </g>
    <g id="font_A-OTF_____Pro_501_S0">
      <path d="M17.55 -41.15 L17.55 -41.15 Q11.1 -41.1 7.5 -37.9 3.85 -34.7 3.8 -29.5 3.75 -25.4 6.5 -22.5 9.25 -19.6 15.55 -17.65 21.4 -15.9 23.55 -14.65 25.75 -13.35 25.65 -11.2 25.55 -9.0 23.55 -7.7 21.6 -6.4 18.8 -6.35 14.85 -6.55 12.7 -8.0 10.55 -9.5 9.85 -10.45 L7.45 -12.95 Q6.7 -13.5 5.6 -13.45 3.85 -13.4 2.9 -12.35 1.95 -11.3 1.9 -9.85 2.0 -7.05 6.4 -3.3 10.8 0.45 18.4 0.8 24.1 0.8 28.55 -2.3 32.95 -5.4 33.2 -11.5 33.3 -15.55 30.5 -18.5 27.7 -21.45 20.75 -23.45 15.45 -24.85 13.4 -26.1 11.35 -27.35 11.4 -29.65 11.35 -31.3 12.7 -32.7 14.1 -34.1 17.6 -34.2 20.1 -34.2 22.0 -33.45 23.95 -32.75 25.95 -31.05 27.4 -29.9 28.1 -29.65 L29.2 -29.45 Q32.6 -29.8 32.9 -33.0 32.55 -36.3 27.65 -38.65 22.8 -41.05 17.55 -41.15 L17.55 -41.15" fill-rule="evenodd" stroke="none"/>
    </g>
    <g id="font_A-OTF_____Pro_501_d0">
      <path d="M22.2 -13.2 L22.2 -13.2 Q22.35 -11.4 20.95 -8.85 19.6 -6.25 15.3 -6.0 11.4 -6.2 10.15 -9.0 8.9 -11.8 9.0 -14.8 9.25 -21.25 11.6 -22.65 13.95 -24.05 15.45 -23.8 20.3 -23.45 21.35 -20.6 22.4 -17.8 22.2 -16.85 L22.2 -13.2 22.2 -13.2 M28.8 -37.9 L28.8 -37.9 Q28.6 -40.85 25.4 -41.2 23.7 -41.1 22.95 -39.95 22.2 -38.85 22.2 -37.85 L22.2 -27.95 Q20.0 -29.85 17.65 -30.25 L14.5 -30.6 Q7.95 -30.35 5.05 -25.8 2.15 -21.25 2.2 -15.05 2.15 -8.8 5.2 -4.1 8.25 0.6 14.95 0.8 18.4 0.75 20.05 -0.35 21.7 -1.45 22.65 -2.65 22.7 0.4 26.0 0.8 28.0 0.75 28.45 -0.4 28.9 -1.5 28.8 -2.75 L28.8 -37.9 28.8 -37.9" fill-rule="evenodd" stroke="none"/>
    </g>
    <g id="font_A-OTF_____Pro_501_f0">
      <path d="M7.8 -23.6 L7.8 -23.6 7.8 -2.6 Q7.8 -1.5 8.65 -0.4 9.45 0.7 11.05 0.8 14.05 0.6 14.4 -2.55 L14.4 -23.6 18.75 -23.6 Q19.65 -23.6 20.65 -24.3 21.6 -25.05 21.7 -26.6 21.55 -29.4 18.75 -29.8 L14.4 -29.8 Q14.4 -33.0 15.3 -33.85 16.15 -34.7 17.85 -34.85 18.95 -34.95 19.8 -35.5 20.65 -36.05 20.7 -37.9 20.65 -39.8 19.6 -40.5 18.6 -41.2 17.25 -41.2 14.55 -41.3 11.35 -39.25 8.1 -37.25 7.8 -31.6 L7.8 -29.8 3.95 -29.8 Q3.1 -29.8 2.15 -29.05 1.15 -28.35 1.05 -26.75 1.2 -24.0 3.95 -23.6 L7.8 -23.6 7.8 -23.6" fill-rule="evenodd" stroke="none"/>
    </g>
    <g id="text4" transform="matrix(1.0, 0.0, 0.0, 1.0, -0.35, -0.5)">
      <g transform="matrix(1.0, 0.0, 0.0, 1.0, 0.0, 0.0)">
        <use fill="#000000" height="12.25" transform="matrix(0.2539, 0.0, 0.0, 0.2539, 0.0, 11.0)" width="220.4" xlink:href="#font_A-OTF_____Pro_501_Y0"/>
        <use fill="#000000" height="12.25" transform="matrix(0.2539, 0.0, 0.0, 0.2539, 8.9, 11.0)" width="220.4" xlink:href="#font_A-OTF_____Pro_501_o0"/>
        <use fill="#000000" height="12.25" transform="matrix(0.2539, 0.0, 0.0, 0.2539, 17.1, 11.0)" width="220.4" xlink:href="#font_A-OTF_____Pro_501_u0"/>
        <use fill="#000000" height="12.25" transform="matrix(0.2539, 0.0, 0.0, 0.2539, 25.3, 11.0)" width="220.4" xlink:href="#font_A-OTF_____Pro_501_r0"/>
        <use fill="#000000" height="12.25" transform="matrix(0.2539, 0.0, 0.0, 0.2539, 36.15, 11.0)" width="220.4" xlink:href="#font_A-OTF_____Pro_501_s0"/>
        <use fill="#000000" height="12.25" transform="matrix(0.2539, 0.0, 0.0, 0.2539, 43.4, 11.0)" width="220.4" xlink:href="#font_A-OTF_____Pro_501_c0"/>
        <use fill="#000000" height="12.25" transform="matrix(0.2539, 0.0, 0.0, 0.2539, 50.65, 11.0)" width="220.4" xlink:href="#font_A-OTF_____Pro_501_o0"/>
        <use fill="#000000" height="12.25" transform="matrix(0.2539, 0.0, 0.0, 0.2539, 58.85, 11.0)" width="220.4" xlink:href="#font_A-OTF_____Pro_501_r0"/>
        <use fill="#000000" height="12.25" transform="matrix(0.2539, 0.0, 0.0, 0.2539, 65.35, 11.0)" width="220.4" xlink:href="#font_A-OTF_____Pro_501_e0"/>
        <use fill="#000000" height="12.25" transform="matrix(0.2539, 0.0, 0.0, 0.2539, 72.6, 11.0)" width="220.4" xlink:href="#font_A-OTF_____Pro_501_.0"/>
        <use fill="#000000" height="12.25" transform="matrix(0.2539, 0.0, 0.0, 0.2539, 81.05, 11.0)" width="220.4" xlink:href="#font_A-OTF_____Pro_501_A0"/>
        <use fill="#000000" height="12.25" transform="matrix(0.2539, 0.0, 0.0, 0.2539, 90.9, 11.0)" width="220.4" xlink:href="#font_A-OTF_____Pro_501_i0"/>
        <use fill="#000000" height="12.25" transform="matrix(0.2539, 0.0, 0.0, 0.2539, 95.0, 11.0)" width="220.4" xlink:href="#font_A-OTF_____Pro_501_m0"/>
        <use fill="#000000" height="12.25" transform="matrix(0.2539, 0.0, 0.0, 0.2539, 110.65, 11.0)" width="220.4" xlink:href="#font_A-OTF_____Pro_501_f0"/>
        <use fill="#000000" height="12.25" transform="matrix(0.2539, 0.0, 0.0, 0.2539, 116.4, 11.0)" width="220.4" xlink:href="#font_A-OTF_____Pro_501_o0"/>
        <use fill="#000000" height="12.25" transform="matrix(0.2539, 0.0, 0.0, 0.2539, 124.6, 11.0)" width="220.4" xlink:href="#font_A-OTF_____Pro_501_r0"/>
        <use fill="#000000" height="12.25" transform="matrix(0.2539, 0.0, 0.0, 0.2539, 135.45, 11.0)" width="220.4" xlink:href="#font_A-OTF_____Pro_501_a0"/>
        <use fill="#000000" height="12.25" transform="matrix(0.2539, 0.0, 0.0, 0.2539, 148.0, 11.0)" width="220.4" xlink:href="#font_A-OTF_____Pro_501_h0"/>
        <use fill="#000000" height="12.25" transform="matrix(0.2539, 0.0, 0.0, 0.2539, 156.2, 11.0)" width="220.4" xlink:href="#font_A-OTF_____Pro_501_i0"/>
        <use fill="#000000" height="12.25" transform="matrix(0.2539, 0.0, 0.0, 0.2539, 160.3, 11.0)" width="220.4" xlink:href="#font_A-OTF_____Pro_501_g0"/>
        <use fill="#000000" height="12.25" transform="matrix(0.2539, 0.0, 0.0, 0.2539, 168.5, 11.0)" width="220.4" xlink:href="#font_A-OTF_____Pro_501_h0"/>
        <use fill="#000000" height="12.25" transform="matrix(0.2539, 0.0, 0.0, 0.2539, 181.05, 11.0)" width="220.4" xlink:href="#font_A-OTF_____Pro_501_s0"/>
        <use fill="#000000" height="12.25" transform="matrix(0.2539, 0.0, 0.0, 0.2539, 188.3, 11.0)" width="220.4" xlink:href="#font_A-OTF_____Pro_501_c0"/>
        <use fill="#000000" height="12.25" transform="matrix(0.2539, 0.0, 0.0, 0.2539, 195.55, 11.0)" width="220.4" xlink:href="#font_A-OTF_____Pro_501_o0"/>
        <use fill="#000000" height="12.25" transform="matrix(0.2539, 0.0, 0.0, 0.2539, 203.75, 11.0)" width="220.4" xlink:href="#font_A-OTF_____Pro_501_r0"/>
        <use fill="#000000" height="12.25" transform="matrix(0.2539, 0.0, 0.0, 0.2539, 210.25, 11.0)" width="220.4" xlink:href="#font_A-OTF_____Pro_501_e0"/>
        <use fill="#000000" height="12.25" transform="matrix(0.2539, 0.0, 0.0, 0.2539, 217.5, 11.0)" width="220.4" xlink:href="#font_A-OTF_____Pro_501__3"/>
      </g>
    </g>
    <g id="font_A-OTF_____Pro_501_A0">
      <path d="M19.4 -32.2 L19.4 -32.2 24.9 -16.55 13.95 -16.55 19.4 -32.2 19.4 -32.2 M30.15 -1.65 L30.15 -1.65 Q30.7 0.65 33.4 1.0 36.2 0.8 36.85 -0.7 37.55 -2.2 37.4 -2.65 L37.05 -4.15 24.5 -37.0 Q22.45 -41.55 19.2 -41.2 17.0 -41.05 15.85 -39.6 14.7 -38.1 14.35 -37.0 L1.7 -4.2 Q1.45 -3.7 1.4 -2.6 1.7 0.7 5.2 0.8 L6.85 0.5 Q7.9 0.1 8.65 -1.75 L11.5 -9.6 27.3 -9.6 30.15 -1.65 30.15 -1.65" fill-rule="evenodd" stroke="none"/>
    </g>
    <g id="font_A-OTF_____Pro_501__3">
      <path d="M8.0 -8.75 L8.0 -8.75 Q6.0 -8.7 4.65 -7.4 3.3 -6.05 3.25 -4.0 3.3 -1.95 4.6 -0.6 5.95 0.75 8.0 0.8 10.0 0.75 11.4 -0.6 12.75 -1.95 12.8 -4.0 12.75 -6.05 11.4 -7.4 10.0 -8.7 8.0 -8.75 L8.0 -8.75 M12.2 -35.05 L12.2 -35.05 Q12.5 -37.45 11.65 -39.3 10.75 -41.1 8.0 -41.2 5.05 -41.05 4.3 -39.05 3.55 -37.1 3.85 -35.05 L5.95 -13.05 Q6.15 -10.7 8.05 -10.65 9.85 -10.75 10.0 -13.05 L12.2 -35.05 12.2 -35.05" fill-rule="evenodd" stroke="none"/>
    </g>
    <g id="text5" transform="matrix(1.0, 0.0, 0.0, 1.0, -7.9, -0.55)">
      <g transform="matrix(1.0, 0.0, 0.0, 1.0, 0.0, 0.0)">
        <use fill="#993366" height="68.2" transform="matrix(0.2539, 0.0, 0.0, 0.2539, 118.0, 11.0)" width="437.4" xlink:href="#font_A-OTF_____Pro_501_G0"/>
        <use fill="#993366" height="68.2" transform="matrix(0.2539, 0.0, 0.0, 0.2539, 128.6, 11.0)" width="437.4" xlink:href="#font_A-OTF_____Pro_501_e0"/>
        <use fill="#993366" height="68.2" transform="matrix(0.2539, 0.0, 0.0, 0.2539, 135.85, 11.0)" width="437.4" xlink:href="#font_A-OTF_____Pro_501_t0"/>
        <use fill="#993366" height="68.2" transform="matrix(0.2539, 0.0, 0.0, 0.2539, 145.95, 11.0)" width="437.4" xlink:href="#font_A-OTF_____Pro_501_t0"/>
        <use fill="#993366" height="68.2" transform="matrix(0.2539, 0.0, 0.0, 0.2539, 151.7, 11.0)" width="437.4" xlink:href="#font_A-OTF_____Pro_501_h0"/>
        <use fill="#993366" height="68.2" transform="matrix(0.2539, 0.0, 0.0, 0.2539, 159.9, 11.0)" width="437.4" xlink:href="#font_A-OTF_____Pro_501_e0"/>
        <use fill="#993366" height="68.2" transform="matrix(0.2539, 0.0, 0.0, 0.2539, 171.5, 11.0)" width="437.4" xlink:href="#font_A-OTF_____Pro_501_C0"/>
        <use fill="#993366" height="68.2" transform="matrix(0.2539, 0.0, 0.0, 0.2539, 181.35, 11.0)" width="437.4" xlink:href="#font_A-OTF_____Pro_501_o0"/>
        <use fill="#993366" height="68.2" transform="matrix(0.2539, 0.0, 0.0, 0.2539, 189.55, 11.0)" width="437.4" xlink:href="#font_A-OTF_____Pro_501_g0"/>
        <use fill="#993366" height="68.2" transform="matrix(0.2539, 0.0, 0.0, 0.2539, 197.75, 11.0)" width="437.4" xlink:href="#font_A-OTF_____Pro_501_s0"/>
        <use fill="#993366" height="68.2" transform="matrix(0.2539, 0.0, 0.0, 0.2539, 209.35, 11.0)" width="437.4" xlink:href="#font_A-OTF_____Pro_501_t0"/>
        <use fill="#993366" height="68.2" transform="matrix(0.2539, 0.0, 0.0, 0.2539, 215.1, 11.0)" width="437.4" xlink:href="#font_A-OTF_____Pro_501_h0"/>
        <use fill="#993366" height="68.2" transform="matrix(0.2539, 0.0, 0.0, 0.2539, 223.3, 11.0)" width="437.4" xlink:href="#font_A-OTF_____Pro_501_a0"/>
        <use fill="#993366" height="68.2" transform="matrix(0.2539, 0.0, 0.0, 0.2539, 231.5, 11.0)" width="437.4" xlink:href="#font_A-OTF_____Pro_501_t0"/>
        <use fill="#993366" height="68.2" transform="matrix(0.2539, 0.0, 0.0, 0.2539, 241.6, 11.0)" width="437.4" xlink:href="#font_A-OTF_____Pro_501_a0"/>
        <use fill="#993366" height="68.2" transform="matrix(0.2539, 0.0, 0.0, 0.2539, 249.8, 11.0)" width="437.4" xlink:href="#font_A-OTF_____Pro_501_r0"/>
        <use fill="#993366" height="68.2" transform="matrix(0.2539, 0.0, 0.0, 0.2539, 256.3, 11.0)" width="437.4" xlink:href="#font_A-OTF_____Pro_501_e0"/>
        <use fill="#993366" height="68.2" transform="matrix(0.2539, 0.0, 0.0, 0.2539, 267.9, 11.0)" width="437.4" xlink:href="#font_A-OTF_____Pro_501_c0"/>
        <use fill="#993366" height="68.2" transform="matrix(0.2539, 0.0, 0.0, 0.2539, 275.15, 11.0)" width="437.4" xlink:href="#font_A-OTF_____Pro_501_l0"/>
        <use fill="#993366" height="68.2" transform="matrix(0.2539, 0.0, 0.0, 0.2539, 279.25, 11.0)" width="437.4" xlink:href="#font_A-OTF_____Pro_501_o0"/>
        <use fill="#993366" height="68.2" transform="matrix(0.2539, 0.0, 0.0, 0.2539, 287.45, 11.0)" width="437.4" xlink:href="#font_A-OTF_____Pro_501_s0"/>
        <use fill="#993366" height="68.2" transform="matrix(0.2539, 0.0, 0.0, 0.2539, 294.7, 11.0)" width="437.4" xlink:href="#font_A-OTF_____Pro_501_i0"/>
        <use fill="#993366" height="68.2" transform="matrix(0.2539, 0.0, 0.0, 0.2539, 298.8, 11.0)" width="437.4" xlink:href="#font_A-OTF_____Pro_501_n0"/>
        <use fill="#993366" height="68.2" transform="matrix(0.2539, 0.0, 0.0, 0.2539, 307.0, 11.0)" width="437.4" xlink:href="#font_A-OTF_____Pro_501_g0"/>
        <use fill="#993366" height="68.2" transform="matrix(0.2539, 0.0, 0.0, 0.2539, 319.55, 11.0)" width="437.4" xlink:href="#font_A-OTF_____Pro_501_i0"/>
        <use fill="#993366" height="68.2" transform="matrix(0.2539, 0.0, 0.0, 0.2539, 323.65, 11.0)" width="437.4" xlink:href="#font_A-OTF_____Pro_501_n0"/>
        <use fill="#993366" height="68.2" transform="matrix(0.2539, 0.0, 0.0, 0.2539, 331.85, 11.0)" width="437.4" xlink:href="#font_A-OTF_____Pro_501__3"/>
      </g>
      <g transform="matrix(1.0, 0.0, 0.0, 1.0, 0.0, 0.0)">
        <use fill="#006699" height="68.2" transform="matrix(0.2539, 0.0, 0.0, 0.2539, 15.0, 25.0)" width="437.4" xlink:href="#font_A-OTF_____Pro_501_C0"/>
        <use fill="#006699" height="68.2" transform="matrix(0.2539, 0.0, 0.0, 0.2539, 24.85, 25.0)" width="437.4" xlink:href="#font_A-OTF_____Pro_501_l0"/>
        <use fill="#006699" height="68.2" transform="matrix(0.2539, 0.0, 0.0, 0.2539, 28.95, 25.0)" width="437.4" xlink:href="#font_A-OTF_____Pro_501_i0"/>
        <use fill="#006699" height="68.2" transform="matrix(0.2539, 0.0, 0.0, 0.2539, 33.05, 25.0)" width="437.4" xlink:href="#font_A-OTF_____Pro_501_c0"/>
        <use fill="#006699" height="68.2" transform="matrix(0.2539, 0.0, 0.0, 0.2539, 40.3, 25.0)" width="437.4" xlink:href="#font_A-OTF_____Pro_501_k0"/>
        <use fill="#006699" height="68.2" transform="matrix(0.2539, 0.0, 0.0, 0.2539, 52.85, 25.0)" width="437.4" xlink:href="#font_A-OTF_____Pro_501_t0"/>
        <use fill="#006699" height="68.2" transform="matrix(0.2539, 0.0, 0.0, 0.2539, 58.6, 25.0)" width="437.4" xlink:href="#font_A-OTF_____Pro_501_o0"/>
        <use fill="#006699" height="68.2" transform="matrix(0.2539, 0.0, 0.0, 0.2539, 71.15, 25.0)" width="437.4" xlink:href="#font_A-OTF_____Pro_501_c0"/>
        <use fill="#006699" height="68.2" transform="matrix(0.2539, 0.0, 0.0, 0.2539, 78.4, 25.0)" width="437.4" xlink:href="#font_A-OTF_____Pro_501_h0"/>
        <use fill="#006699" height="68.2" transform="matrix(0.2539, 0.0, 0.0, 0.2539, 86.6, 25.0)" width="437.4" xlink:href="#font_A-OTF_____Pro_501_o0"/>
        <use fill="#006699" height="68.2" transform="matrix(0.2539, 0.0, 0.0, 0.2539, 94.8, 25.0)" width="437.4" xlink:href="#font_A-OTF_____Pro_501_o0"/>
        <use fill="#006699" height="68.2" transform="matrix(0.2539, 0.0, 0.0, 0.2539, 103.0, 25.0)" width="437.4" xlink:href="#font_A-OTF_____Pro_501_s0"/>
        <use fill="#006699" height="68.2" transform="matrix(0.2539, 0.0, 0.0, 0.2539, 110.25, 25.0)" width="437.4" xlink:href="#font_A-OTF_____Pro_501_e0"/>
        <use fill="#006699" height="68.2" transform="matrix(0.2539, 0.0, 0.0, 0.2539, 121.85, 25.0)" width="437.4" xlink:href="#font_A-OTF_____Pro_501_a0"/>
        <use fill="#006699" height="68.2" transform="matrix(0.2539, 0.0, 0.0, 0.2539, 134.4, 25.0)" width="437.4" xlink:href="#font_A-OTF_____Pro_501_b0"/>
        <use fill="#006699" height="68.2" transform="matrix(0.2539, 0.0, 0.0, 0.2539, 142.6, 25.0)" width="437.4" xlink:href="#font_A-OTF_____Pro_501_a0"/>
        <use fill="#006699" height="68.2" transform="matrix(0.2539, 0.0, 0.0, 0.2539, 150.8, 25.0)" width="437.4" xlink:href="#font_A-OTF_____Pro_501_d0"/>
        <use fill="#006699" height="68.2" transform="matrix(0.2539, 0.0, 0.0, 0.2539, 159.0, 25.0)" width="437.4" xlink:href="#font_A-OTF_____Pro_501_g0"/>
        <use fill="#006699" height="68.2" transform="matrix(0.2539, 0.0, 0.0, 0.2539, 167.2, 25.0)" width="437.4" xlink:href="#font_A-OTF_____Pro_501_e0"/>
        <use fill="#006699" height="68.2" transform="matrix(0.2539, 0.0, 0.0, 0.2539, 178.8, 25.0)" width="437.4" xlink:href="#font_A-OTF_____Pro_501_t0"/>
        <use fill="#006699" height="68.2" transform="matrix(0.2539, 0.0, 0.0, 0.2539, 184.55, 25.0)" width="437.4" xlink:href="#font_A-OTF_____Pro_501_h0"/>
        <use fill="#006699" height="68.2" transform="matrix(0.2539, 0.0, 0.0, 0.2539, 192.75, 25.0)" width="437.4" xlink:href="#font_A-OTF_____Pro_501_a0"/>
        <use fill="#006699" height="68.2" transform="matrix(0.2539, 0.0, 0.0, 0.2539, 200.95, 25.0)" width="437.4" xlink:href="#font_A-OTF_____Pro_501_t0"/>
        <use fill="#006699" height="68.2" transform="matrix(0.2539, 0.0, 0.0, 0.2539, 211.05, 25.0)" width="437.4" xlink:href="#font_A-OTF_____Pro_501_m0"/>
        <use fill="#006699" height="68.2" transform="matrix(0.2539, 0.0, 0.0, 0.2539, 222.35, 25.0)" width="437.4" xlink:href="#font_A-OTF_____Pro_501_a0"/>
        <use fill="#006699" height="68.2" transform="matrix(0.2539, 0.0, 0.0, 0.2539, 230.55, 25.0)" width="437.4" xlink:href="#font_A-OTF_____Pro_501_t0"/>
        <use fill="#006699" height="68.2" transform="matrix(0.2539, 0.0, 0.0, 0.2539, 236.3, 25.0)" width="437.4" xlink:href="#font_A-OTF_____Pro_501_c0"/>
        <use fill="#006699" height="68.2" transform="matrix(0.2539, 0.0, 0.0, 0.2539, 243.55, 25.0)" width="437.4" xlink:href="#font_A-OTF_____Pro_501_h0"/>
        <use fill="#006699" height="68.2" transform="matrix(0.2539, 0.0, 0.0, 0.2539, 251.75, 25.0)" width="437.4" xlink:href="#font_A-OTF_____Pro_501_e0"/>
        <use fill="#006699" height="68.2" transform="matrix(0.2539, 0.0, 0.0, 0.2539, 259.0, 25.0)" width="437.4" xlink:href="#font_A-OTF_____Pro_501_s0"/>
        <use fill="#006699" height="68.2" transform="matrix(0.2539, 0.0, 0.0, 0.2539, 270.6, 25.0)" width="437.4" xlink:href="#font_A-OTF_____Pro_501_t0"/>
        <use fill="#006699" height="68.2" transform="matrix(0.2539, 0.0, 0.0, 0.2539, 276.35, 25.0)" width="437.4" xlink:href="#font_A-OTF_____Pro_501_h0"/>
        <use fill="#006699" height="68.2" transform="matrix(0.2539, 0.0, 0.0, 0.2539, 284.55, 25.0)" width="437.4" xlink:href="#font_A-OTF_____Pro_501_e0"/>
        <use fill="#006699" height="68.2" transform="matrix(0.2539, 0.0, 0.0, 0.2539, 296.15, 25.0)" width="437.4" xlink:href="#font_A-OTF_____Pro_501_c0"/>
        <use fill="#006699" height="68.2" transform="matrix(0.2539, 0.0, 0.0, 0.2539, 303.4, 25.0)" width="437.4" xlink:href="#font_A-OTF_____Pro_501_o0"/>
        <use fill="#006699" height="68.2" transform="matrix(0.2539, 0.0, 0.0, 0.2539, 311.6, 25.0)" width="437.4" xlink:href="#font_A-OTF_____Pro_501_l0"/>
        <use fill="#006699" height="68.2" transform="matrix(0.2539, 0.0, 0.0, 0.2539, 315.7, 25.0)" width="437.4" xlink:href="#font_A-OTF_____Pro_501_o0"/>
        <use fill="#006699" height="68.2" transform="matrix(0.2539, 0.0, 0.0, 0.2539, 323.9, 25.0)" width="437.4" xlink:href="#font_A-OTF_____Pro_501_r0"/>
        <use fill="#006699" height="68.2" transform="matrix(0.2539, 0.0, 0.0, 0.2539, 334.75, 25.0)" width="437.4" xlink:href="#font_A-OTF_____Pro_501_o0"/>
        <use fill="#006699" height="68.2" transform="matrix(0.2539, 0.0, 0.0, 0.2539, 342.95, 25.0)" width="437.4" xlink:href="#font_A-OTF_____Pro_501_f0"/>
        <use fill="#006699" height="68.2" transform="matrix(0.2539, 0.0, 0.0, 0.2539, 353.05, 25.0)" width="437.4" xlink:href="#font_A-OTF_____Pro_501_t0"/>
        <use fill="#006699" height="68.2" transform="matrix(0.2539, 0.0, 0.0, 0.2539, 358.8, 25.0)" width="437.4" xlink:href="#font_A-OTF_____Pro_501_h0"/>
        <use fill="#006699" height="68.2" transform="matrix(0.2539, 0.0, 0.0, 0.2539, 367.0, 25.0)" width="437.4" xlink:href="#font_A-OTF_____Pro_501_e0"/>
        <use fill="#006699" height="68.2" transform="matrix(0.2539, 0.0, 0.0, 0.2539, 378.6, 25.0)" width="437.4" xlink:href="#font_A-OTF_____Pro_501_C0"/>
        <use fill="#006699" height="68.2" transform="matrix(0.2539, 0.0, 0.0, 0.2539, 388.45, 25.0)" width="437.4" xlink:href="#font_A-OTF_____Pro_501_o0"/>
        <use fill="#006699" height="68.2" transform="matrix(0.2539, 0.0, 0.0, 0.2539, 396.65, 25.0)" width="437.4" xlink:href="#font_A-OTF_____Pro_501_g0"/>
        <use fill="#006699" height="68.2" transform="matrix(0.2539, 0.0, 0.0, 0.2539, 404.85, 25.0)" width="437.4" xlink:href="#font_A-OTF_____Pro_501__2"/>
        <use fill="#006699" height="68.2" transform="matrix(0.2539, 0.0, 0.0, 0.2539, 413.3, 25.0)" width="437.4" xlink:href="#font_A-OTF_____Pro_501_a0"/>
        <use fill="#006699" height="68.2" transform="matrix(0.2539, 0.0, 0.0, 0.2539, 421.5, 25.0)" width="437.4" xlink:href="#font_A-OTF_____Pro_501_n0"/>
        <use fill="#006699" height="68.2" transform="matrix(0.2539, 0.0, 0.0, 0.2539, 429.7, 25.0)" width="437.4" xlink:href="#font_A-OTF_____Pro_501_d0"/>
      </g>
      <g transform="matrix(1.0, 0.0, 0.0, 1.0, 0.0, 0.0)">
        <use fill="#006699" height="68.2" transform="matrix(0.2539, 0.0, 0.0, 0.2539, 9.0, 39.0)" width="437.4" xlink:href="#font_A-OTF_____Pro_501_d0"/>
        <use fill="#006699" height="68.2" transform="matrix(0.2539, 0.0, 0.0, 0.2539, 17.2, 39.0)" width="437.4" xlink:href="#font_A-OTF_____Pro_501_r0"/>
        <use fill="#006699" height="68.2" transform="matrix(0.2539, 0.0, 0.0, 0.2539, 23.7, 39.0)" width="437.4" xlink:href="#font_A-OTF_____Pro_501_a0"/>
        <use fill="#006699" height="68.2" transform="matrix(0.2539, 0.0, 0.0, 0.2539, 31.9, 39.0)" width="437.4" xlink:href="#font_A-OTF_____Pro_501_g0"/>
        <use fill="#006699" height="68.2" transform="matrix(0.2539, 0.0, 0.0, 0.2539, 44.45, 39.0)" width="437.4" xlink:href="#font_A-OTF_____Pro_501_i0"/>
        <use fill="#006699" height="68.2" transform="matrix(0.2539, 0.0, 0.0, 0.2539, 48.55, 39.0)" width="437.4" xlink:href="#font_A-OTF_____Pro_501_t0"/>
        <use fill="#006699" height="68.2" transform="matrix(0.2539, 0.0, 0.0, 0.2539, 58.65, 39.0)" width="437.4" xlink:href="#font_A-OTF_____Pro_501_t0"/>
        <use fill="#006699" height="68.2" transform="matrix(0.2539, 0.0, 0.0, 0.2539, 64.4, 39.0)" width="437.4" xlink:href="#font_A-OTF_____Pro_501_o0"/>
        <use fill="#006699" height="68.2" transform="matrix(0.2539, 0.0, 0.0, 0.2539, 76.95, 39.0)" width="437.4" xlink:href="#font_A-OTF_____Pro_501_a0"/>
        <use fill="#006699" height="68.2" transform="matrix(0.2539, 0.0, 0.0, 0.2539, 85.15, 39.0)" width="437.4" xlink:href="#font_A-OTF_____Pro_501_i0"/>
        <use fill="#006699" height="68.2" transform="matrix(0.2539, 0.0, 0.0, 0.2539, 89.25, 39.0)" width="437.4" xlink:href="#font_A-OTF_____Pro_501_m0"/>
        <use fill="#006699" height="68.2" transform="matrix(0.2539, 0.0, 0.0, 0.2539, 100.55, 39.0)" width="437.4" xlink:href="#font_A-OTF_____Pro_501_.0"/>
        <use fill="#006699" height="68.2" transform="matrix(0.2539, 0.0, 0.0, 0.2539, 109.0, 39.0)" width="437.4" xlink:href="#font_A-OTF_____Pro_501_L0"/>
        <use fill="#006699" height="68.2" transform="matrix(0.2539, 0.0, 0.0, 0.2539, 117.2, 39.0)" width="437.4" xlink:href="#font_A-OTF_____Pro_501_e0"/>
        <use fill="#006699" height="68.2" transform="matrix(0.2539, 0.0, 0.0, 0.2539, 124.45, 39.0)" width="437.4" xlink:href="#font_A-OTF_____Pro_501_t0"/>
        <use fill="#006699" height="68.2" transform="matrix(0.2539, 0.0, 0.0, 0.2539, 134.55, 39.0)" width="437.4" xlink:href="#font_A-OTF_____Pro_501_g0"/>
        <use fill="#006699" height="68.2" transform="matrix(0.2539, 0.0, 0.0, 0.2539, 142.75, 39.0)" width="437.4" xlink:href="#font_A-OTF_____Pro_501_o0"/>
        <use fill="#006699" height="68.2" transform="matrix(0.2539, 0.0, 0.0, 0.2539, 155.3, 39.0)" width="437.4" xlink:href="#font_A-OTF_____Pro_501_o0"/>
        <use fill="#006699" height="68.2" transform="matrix(0.2539, 0.0, 0.0, 0.2539, 163.5, 39.0)" width="437.4" xlink:href="#font_A-OTF_____Pro_501_f0"/>
        <use fill="#006699" height="68.2" transform="matrix(0.2539, 0.0, 0.0, 0.2539, 173.6, 39.0)" width="437.4" xlink:href="#font_A-OTF_____Pro_501_t0"/>
        <use fill="#006699" height="68.2" transform="matrix(0.2539, 0.0, 0.0, 0.2539, 179.35, 39.0)" width="437.4" xlink:href="#font_A-OTF_____Pro_501_h0"/>
        <use fill="#006699" height="68.2" transform="matrix(0.2539, 0.0, 0.0, 0.2539, 187.55, 39.0)" width="437.4" xlink:href="#font_A-OTF_____Pro_501_e0"/>
        <use fill="#006699" height="68.2" transform="matrix(0.2539, 0.0, 0.0, 0.2539, 199.15, 39.0)" width="437.4" xlink:href="#font_A-OTF_____Pro_501_m0"/>
        <use fill="#006699" height="68.2" transform="matrix(0.2539, 0.0, 0.0, 0.2539, 210.45, 39.0)" width="437.4" xlink:href="#font_A-OTF_____Pro_501_o0"/>
        <use fill="#006699" height="68.2" transform="matrix(0.2539, 0.0, 0.0, 0.2539, 218.65, 39.0)" width="437.4" xlink:href="#font_A-OTF_____Pro_501_u0"/>
        <use fill="#006699" height="68.2" transform="matrix(0.2539, 0.0, 0.0, 0.2539, 226.85, 39.0)" width="437.4" xlink:href="#font_A-OTF_____Pro_501_s0"/>
        <use fill="#006699" height="68.2" transform="matrix(0.2539, 0.0, 0.0, 0.2539, 234.1, 39.0)" width="437.4" xlink:href="#font_A-OTF_____Pro_501_e0"/>
        <use fill="#006699" height="68.2" transform="matrix(0.2539, 0.0, 0.0, 0.2539, 245.7, 39.0)" width="437.4" xlink:href="#font_A-OTF_____Pro_501_t0"/>
        <use fill="#006699" height="68.2" transform="matrix(0.2539, 0.0, 0.0, 0.2539, 251.45, 39.0)" width="437.4" xlink:href="#font_A-OTF_____Pro_501_o0"/>
        <use fill="#006699" height="68.2" transform="matrix(0.2539, 0.0, 0.0, 0.2539, 264.0, 39.0)" width="437.4" xlink:href="#font_A-OTF_____Pro_501_t0"/>
        <use fill="#006699" height="68.2" transform="matrix(0.2539, 0.0, 0.0, 0.2539, 269.75, 39.0)" width="437.4" xlink:href="#font_A-OTF_____Pro_501_h0"/>
        <use fill="#006699" height="68.2" transform="matrix(0.2539, 0.0, 0.0, 0.2539, 277.95, 39.0)" width="437.4" xlink:href="#font_A-OTF_____Pro_501_r0"/>
        <use fill="#006699" height="68.2" transform="matrix(0.2539, 0.0, 0.0, 0.2539, 284.45, 39.0)" width="437.4" xlink:href="#font_A-OTF_____Pro_501_o0"/>
        <use fill="#006699" height="68.2" transform="matrix(0.2539, 0.0, 0.0, 0.2539, 292.65, 39.0)" width="437.4" xlink:href="#font_A-OTF_____Pro_501_w0"/>
        <use fill="#006699" height="68.2" transform="matrix(0.2539, 0.0, 0.0, 0.2539, 308.3, 39.0)" width="437.4" xlink:href="#font_A-OTF_____Pro_501_t0"/>
        <use fill="#006699" height="68.2" transform="matrix(0.2539, 0.0, 0.0, 0.2539, 314.05, 39.0)" width="437.4" xlink:href="#font_A-OTF_____Pro_501_h0"/>
        <use fill="#006699" height="68.2" transform="matrix(0.2539, 0.0, 0.0, 0.2539, 322.25, 39.0)" width="437.4" xlink:href="#font_A-OTF_____Pro_501_e0"/>
        <use fill="#006699" height="68.2" transform="matrix(0.2539, 0.0, 0.0, 0.2539, 333.85, 39.0)" width="437.4" xlink:href="#font_A-OTF_____Pro_501_b0"/>
        <use fill="#006699" height="68.2" transform="matrix(0.2539, 0.0, 0.0, 0.2539, 342.05, 39.0)" width="437.4" xlink:href="#font_A-OTF_____Pro_501_a0"/>
        <use fill="#006699" height="68.2" transform="matrix(0.2539, 0.0, 0.0, 0.2539, 350.25, 39.0)" width="437.4" xlink:href="#font_A-OTF_____Pro_501_d0"/>
        <use fill="#006699" height="68.2" transform="matrix(0.2539, 0.0, 0.0, 0.2539, 358.45, 39.0)" width="437.4" xlink:href="#font_A-OTF_____Pro_501_g0"/>
        <use fill="#006699" height="68.2" transform="matrix(0.2539, 0.0, 0.0, 0.2539, 366.65, 39.0)" width="437.4" xlink:href="#font_A-OTF_____Pro_501_e0"/>
        <use fill="#006699" height="68.2" transform="matrix(0.2539, 0.0, 0.0, 0.2539, 373.9, 39.0)" width="437.4" xlink:href="#font_A-OTF_____Pro_501_.0"/>
        <use fill="#006699" height="68.2" transform="matrix(0.2539, 0.0, 0.0, 0.2539, 382.35, 39.0)" width="437.4" xlink:href="#font_A-OTF_____Pro_501_Y0"/>
        <use fill="#006699" height="68.2" transform="matrix(0.2539, 0.0, 0.0, 0.2539, 391.25, 39.0)" width="437.4" xlink:href="#font_A-OTF_____Pro_501_o0"/>
        <use fill="#006699" height="68.2" transform="matrix(0.2539, 0.0, 0.0, 0.2539, 399.45, 39.0)" width="437.4" xlink:href="#font_A-OTF_____Pro_501_u0"/>
        <use fill="#006699" height="68.2" transform="matrix(0.2539, 0.0, 0.0, 0.2539, 407.65, 39.0)" width="437.4" xlink:href="#font_A-OTF_____Pro_501__1"/>
        <use fill="#006699" height="68.2" transform="matrix(0.2539, 0.0, 0.0, 0.2539, 410.3, 39.0)" width="437.4" xlink:href="#font_A-OTF_____Pro_501_l0"/>
        <use fill="#006699" height="68.2" transform="matrix(0.2539, 0.0, 0.0, 0.2539, 414.4, 39.0)" width="437.4" xlink:href="#font_A-OTF_____Pro_501_l0"/>
        <use fill="#006699" height="68.2" transform="matrix(0.2539, 0.0, 0.0, 0.2539, 422.85, 39.0)" width="437.4" xlink:href="#font_A-OTF_____Pro_501_g0"/>
        <use fill="#006699" height="68.2" transform="matrix(0.2539, 0.0, 0.0, 0.2539, 431.05, 39.0)" width="437.4" xlink:href="#font_A-OTF_____Pro_501_e0"/>
        <use fill="#006699" height="68.2" transform="matrix(0.2539, 0.0, 0.0, 0.2539, 438.3, 39.0)" width="437.4" xlink:href="#font_A-OTF_____Pro_501_t0"/>
      </g>
      <g transform="matrix(1.0, 0.0, 0.0, 1.0, 0.0, 0.0)">
        <use fill="#006699" height="68.2" transform="matrix(0.2539, 0.0, 0.0, 0.2539, 7.0, 53.0)" width="437.4" xlink:href="#font_A-OTF_____Pro_501_e0"/>
        <use fill="#006699" height="68.2" transform="matrix(0.2539, 0.0, 0.0, 0.2539, 14.25, 53.0)" width="437.4" xlink:href="#font_A-OTF_____Pro_501_x0"/>
        <use fill="#006699" height="68.2" transform="matrix(0.2539, 0.0, 0.0, 0.2539, 22.45, 53.0)" width="437.4" xlink:href="#font_A-OTF_____Pro_501_t0"/>
        <use fill="#006699" height="68.2" transform="matrix(0.2539, 0.0, 0.0, 0.2539, 28.2, 53.0)" width="437.4" xlink:href="#font_A-OTF_____Pro_501_r0"/>
        <use fill="#006699" height="68.2" transform="matrix(0.2539, 0.0, 0.0, 0.2539, 34.7, 53.0)" width="437.4" xlink:href="#font_A-OTF_____Pro_501_a0"/>
        <use fill="#006699" height="68.2" transform="matrix(0.2539, 0.0, 0.0, 0.2539, 47.25, 53.0)" width="437.4" xlink:href="#font_A-OTF_____Pro_501_p0"/>
        <use fill="#006699" height="68.2" transform="matrix(0.2539, 0.0, 0.0, 0.2539, 55.45, 53.0)" width="437.4" xlink:href="#font_A-OTF_____Pro_501_o0"/>
        <use fill="#006699" height="68.2" transform="matrix(0.2539, 0.0, 0.0, 0.2539, 63.65, 53.0)" width="437.4" xlink:href="#font_A-OTF_____Pro_501_i0"/>
        <use fill="#006699" height="68.2" transform="matrix(0.2539, 0.0, 0.0, 0.2539, 67.75, 53.0)" width="437.4" xlink:href="#font_A-OTF_____Pro_501_n0"/>
        <use fill="#006699" height="68.2" transform="matrix(0.2539, 0.0, 0.0, 0.2539, 75.95, 53.0)" width="437.4" xlink:href="#font_A-OTF_____Pro_501_t0"/>
        <use fill="#006699" height="68.2" transform="matrix(0.2539, 0.0, 0.0, 0.2539, 81.7, 53.0)" width="437.4" xlink:href="#font_A-OTF_____Pro_501_s0"/>
        <use fill="#006699" height="68.2" transform="matrix(0.2539, 0.0, 0.0, 0.2539, 93.3, 53.0)" width="437.4" xlink:href="#font_A-OTF_____Pro_501_f0"/>
        <use fill="#006699" height="68.2" transform="matrix(0.2539, 0.0, 0.0, 0.2539, 99.05, 53.0)" width="437.4" xlink:href="#font_A-OTF_____Pro_501_o0"/>
        <use fill="#006699" height="68.2" transform="matrix(0.2539, 0.0, 0.0, 0.2539, 107.25, 53.0)" width="437.4" xlink:href="#font_A-OTF_____Pro_501_r0"/>
        <use fill="#006699" height="68.2" transform="matrix(0.2539, 0.0, 0.0, 0.2539, 118.1, 53.0)" width="437.4" xlink:href="#font_A-OTF_____Pro_501_r0"/>
        <use fill="#006699" height="68.2" transform="matrix(0.2539, 0.0, 0.0, 0.2539, 124.6, 53.0)" width="437.4" xlink:href="#font_A-OTF_____Pro_501_e0"/>
        <use fill="#006699" height="68.2" transform="matrix(0.2539, 0.0, 0.0, 0.2539, 131.85, 53.0)" width="437.4" xlink:href="#font_A-OTF_____Pro_501_p0"/>
        <use fill="#006699" height="68.2" transform="matrix(0.2539, 0.0, 0.0, 0.2539, 140.05, 53.0)" width="437.4" xlink:href="#font_A-OTF_____Pro_501_e0"/>
        <use fill="#006699" height="68.2" transform="matrix(0.2539, 0.0, 0.0, 0.2539, 147.3, 53.0)" width="437.4" xlink:href="#font_A-OTF_____Pro_501_a0"/>
        <use fill="#006699" height="68.2" transform="matrix(0.2539, 0.0, 0.0, 0.2539, 155.5, 53.0)" width="437.4" xlink:href="#font_A-OTF_____Pro_501_t0"/>
        <use fill="#006699" height="68.2" transform="matrix(0.2539, 0.0, 0.0, 0.2539, 161.25, 53.0)" width="437.4" xlink:href="#font_A-OTF_____Pro_501_e0"/>
        <use fill="#006699" height="68.2" transform="matrix(0.2539, 0.0, 0.0, 0.2539, 168.5, 53.0)" width="437.4" xlink:href="#font_A-OTF_____Pro_501_d0"/>
        <use fill="#006699" height="68.2" transform="matrix(0.2539, 0.0, 0.0, 0.2539, 181.05, 53.0)" width="437.4" xlink:href="#font_A-OTF_____Pro_501_h0"/>
        <use fill="#006699" height="68.2" transform="matrix(0.2539, 0.0, 0.0, 0.2539, 189.25, 53.0)" width="437.4" xlink:href="#font_A-OTF_____Pro_501_i0"/>
        <use fill="#006699" height="68.2" transform="matrix(0.2539, 0.0, 0.0, 0.2539, 193.35, 53.0)" width="437.4" xlink:href="#font_A-OTF_____Pro_501_t0"/>
        <use fill="#006699" height="68.2" transform="matrix(0.2539, 0.0, 0.0, 0.2539, 199.1, 53.0)" width="437.4" xlink:href="#font_A-OTF_____Pro_501_s0"/>
        <use fill="#006699" height="68.2" transform="matrix(0.2539, 0.0, 0.0, 0.2539, 206.35, 53.0)" width="437.4" xlink:href="#font_A-OTF_____Pro_501_.0"/>
        <use fill="#006699" height="68.2" transform="matrix(0.2539, 0.0, 0.0, 0.2539, 214.8, 53.0)" width="437.4" xlink:href="#font_A-OTF_____Pro_501_T0"/>
        <use fill="#006699" height="68.2" transform="matrix(0.2539, 0.0, 0.0, 0.2539, 223.7, 53.0)" width="437.4" xlink:href="#font_A-OTF_____Pro_501_h0"/>
        <use fill="#006699" height="68.2" transform="matrix(0.2539, 0.0, 0.0, 0.2539, 231.9, 53.0)" width="437.4" xlink:href="#font_A-OTF_____Pro_501_r0"/>
        <use fill="#006699" height="68.2" transform="matrix(0.2539, 0.0, 0.0, 0.2539, 238.4, 53.0)" width="437.4" xlink:href="#font_A-OTF_____Pro_501_o0"/>
        <use fill="#006699" height="68.2" transform="matrix(0.2539, 0.0, 0.0, 0.2539, 246.6, 53.0)" width="437.4" xlink:href="#font_A-OTF_____Pro_501_w0"/>
        <use fill="#006699" height="68.2" transform="matrix(0.2539, 0.0, 0.0, 0.2539, 262.25, 53.0)" width="437.4" xlink:href="#font_A-OTF_____Pro_501_t0"/>
        <use fill="#006699" height="68.2" transform="matrix(0.2539, 0.0, 0.0, 0.2539, 268.0, 53.0)" width="437.4" xlink:href="#font_A-OTF_____Pro_501_h0"/>
        <use fill="#006699" height="68.2" transform="matrix(0.2539, 0.0, 0.0, 0.2539, 276.2, 53.0)" width="437.4" xlink:href="#font_A-OTF_____Pro_501_e0"/>
        <use fill="#006699" height="68.2" transform="matrix(0.2539, 0.0, 0.0, 0.2539, 287.8, 53.0)" width="437.4" xlink:href="#font_A-OTF_____Pro_501_g0"/>
        <use fill="#006699" height="68.2" transform="matrix(0.2539, 0.0, 0.0, 0.2539, 296.0, 53.0)" width="437.4" xlink:href="#font_A-OTF_____Pro_501_o0"/>
        <use fill="#006699" height="68.2" transform="matrix(0.2539, 0.0, 0.0, 0.2539, 304.2, 53.0)" width="437.4" xlink:href="#font_A-OTF_____Pro_501_l0"/>
        <use fill="#006699" height="68.2" transform="matrix(0.2539, 0.0, 0.0, 0.2539, 308.3, 53.0)" width="437.4" xlink:href="#font_A-OTF_____Pro_501_d0"/>
        <use fill="#006699" height="68.2" transform="matrix(0.2539, 0.0, 0.0, 0.2539, 320.85, 53.0)" width="437.4" xlink:href="#font_A-OTF_____Pro_501_b0"/>
        <use fill="#006699" height="68.2" transform="matrix(0.2539, 0.0, 0.0, 0.2539, 329.05, 53.0)" width="437.4" xlink:href="#font_A-OTF_____Pro_501_a0"/>
        <use fill="#006699" height="68.2" transform="matrix(0.2539, 0.0, 0.0, 0.2539, 337.25, 53.0)" width="437.4" xlink:href="#font_A-OTF_____Pro_501_d0"/>
        <use fill="#006699" height="68.2" transform="matrix(0.2539, 0.0, 0.0, 0.2539, 345.45, 53.0)" width="437.4" xlink:href="#font_A-OTF_____Pro_501_g0"/>
        <use fill="#006699" height="68.2" transform="matrix(0.2539, 0.0, 0.0, 0.2539, 353.65, 53.0)" width="437.4" xlink:href="#font_A-OTF_____Pro_501_e0"/>
        <use fill="#006699" height="68.2" transform="matrix(0.2539, 0.0, 0.0, 0.2539, 365.25, 53.0)" width="437.4" xlink:href="#font_A-OTF_____Pro_501_w0"/>
        <use fill="#006699" height="68.2" transform="matrix(0.2539, 0.0, 0.0, 0.2539, 376.55, 53.0)" width="437.4" xlink:href="#font_A-OTF_____Pro_501_h0"/>
        <use fill="#006699" height="68.2" transform="matrix(0.2539, 0.0, 0.0, 0.2539, 384.75, 53.0)" width="437.4" xlink:href="#font_A-OTF_____Pro_501_e0"/>
        <use fill="#006699" height="68.2" transform="matrix(0.2539, 0.0, 0.0, 0.2539, 392.0, 53.0)" width="437.4" xlink:href="#font_A-OTF_____Pro_501_n0"/>
        <use fill="#006699" height="68.2" transform="matrix(0.2539, 0.0, 0.0, 0.2539, 404.55, 53.0)" width="437.4" xlink:href="#font_A-OTF_____Pro_501_y0"/>
        <use fill="#006699" height="68.2" transform="matrix(0.2539, 0.0, 0.0, 0.2539, 412.75, 53.0)" width="437.4" xlink:href="#font_A-OTF_____Pro_501_o0"/>
        <use fill="#006699" height="68.2" transform="matrix(0.2539, 0.0, 0.0, 0.2539, 420.95, 53.0)" width="437.4" xlink:href="#font_A-OTF_____Pro_501_u0"/>
        <use fill="#006699" height="68.2" transform="matrix(0.2539, 0.0, 0.0, 0.2539, 429.15, 53.0)" width="437.4" xlink:href="#font_A-OTF_____Pro_501__1"/>
        <use fill="#006699" height="68.2" transform="matrix(0.2539, 0.0, 0.0, 0.2539, 431.8, 53.0)" width="437.4" xlink:href="#font_A-OTF_____Pro_501_r0"/>
        <use fill="#006699" height="68.2" transform="matrix(0.2539, 0.0, 0.0, 0.2539, 438.3, 53.0)" width="437.4" xlink:href="#font_A-OTF_____Pro_501_e0"/>
      </g>
      <g transform="matrix(1.0, 0.0, 0.0, 1.0, 0.0, 0.0)">
        <use fill="#006699" height="68.2" transform="matrix(0.2539, 0.0, 0.0, 0.2539, 37.0, 67.0)" width="437.4" xlink:href="#font_A-OTF_____Pro_501_i0"/>
        <use fill="#006699" height="68.2" transform="matrix(0.2539, 0.0, 0.0, 0.2539, 41.1, 67.0)" width="437.4" xlink:href="#font_A-OTF_____Pro_501_n0"/>
        <use fill="#006699" height="68.2" transform="matrix(0.2539, 0.0, 0.0, 0.2539, 53.65, 67.0)" width="437.4" xlink:href="#font_A-OTF_____Pro_501_t0"/>
        <use fill="#006699" height="68.2" transform="matrix(0.2539, 0.0, 0.0, 0.2539, 59.4, 67.0)" width="437.4" xlink:href="#font_A-OTF_____Pro_501_r0"/>
        <use fill="#006699" height="68.2" transform="matrix(0.2539, 0.0, 0.0, 0.2539, 65.9, 67.0)" width="437.4" xlink:href="#font_A-OTF_____Pro_501_o0"/>
        <use fill="#006699" height="68.2" transform="matrix(0.2539, 0.0, 0.0, 0.2539, 74.1, 67.0)" width="437.4" xlink:href="#font_A-OTF_____Pro_501_u0"/>
        <use fill="#006699" height="68.2" transform="matrix(0.2539, 0.0, 0.0, 0.2539, 82.3, 67.0)" width="437.4" xlink:href="#font_A-OTF_____Pro_501_b0"/>
        <use fill="#006699" height="68.2" transform="matrix(0.2539, 0.0, 0.0, 0.2539, 90.5, 67.0)" width="437.4" xlink:href="#font_A-OTF_____Pro_501_l0"/>
        <use fill="#006699" height="68.2" transform="matrix(0.2539, 0.0, 0.0, 0.2539, 94.6, 67.0)" width="437.4" xlink:href="#font_A-OTF_____Pro_501_e0"/>
        <use fill="#006699" height="68.2" transform="matrix(0.2539, 0.0, 0.0, 0.2539, 101.85, 67.0)" width="437.4" xlink:href="#font_A-OTF_____Pro_501_.0"/>
        <use fill="#006699" height="68.2" transform="matrix(0.2539, 0.0, 0.0, 0.2539, 110.3, 67.0)" width="437.4" xlink:href="#font_A-OTF_____Pro_501_I0"/>
        <use fill="#006699" height="68.2" transform="matrix(0.2539, 0.0, 0.0, 0.2539, 114.4, 67.0)" width="437.4" xlink:href="#font_A-OTF_____Pro_501_t0"/>
        <use fill="#006699" height="68.2" transform="matrix(0.2539, 0.0, 0.0, 0.2539, 124.5, 67.0)" width="437.4" xlink:href="#font_A-OTF_____Pro_501_w0"/>
        <use fill="#006699" height="68.2" transform="matrix(0.2539, 0.0, 0.0, 0.2539, 135.8, 67.0)" width="437.4" xlink:href="#font_A-OTF_____Pro_501_i0"/>
        <use fill="#006699" height="68.2" transform="matrix(0.2539, 0.0, 0.0, 0.2539, 139.9, 67.0)" width="437.4" xlink:href="#font_A-OTF_____Pro_501_l0"/>
        <use fill="#006699" height="68.2" transform="matrix(0.2539, 0.0, 0.0, 0.2539, 144.0, 67.0)" width="437.4" xlink:href="#font_A-OTF_____Pro_501_l0"/>
        <use fill="#006699" height="68.2" transform="matrix(0.2539, 0.0, 0.0, 0.2539, 152.45, 67.0)" width="437.4" xlink:href="#font_A-OTF_____Pro_501_k0"/>
        <use fill="#006699" height="68.2" transform="matrix(0.2539, 0.0, 0.0, 0.2539, 160.65, 67.0)" width="437.4" xlink:href="#font_A-OTF_____Pro_501_n0"/>
        <use fill="#006699" height="68.2" transform="matrix(0.2539, 0.0, 0.0, 0.2539, 168.85, 67.0)" width="437.4" xlink:href="#font_A-OTF_____Pro_501_o0"/>
        <use fill="#006699" height="68.2" transform="matrix(0.2539, 0.0, 0.0, 0.2539, 177.05, 67.0)" width="437.4" xlink:href="#font_A-OTF_____Pro_501_c0"/>
        <use fill="#006699" height="68.2" transform="matrix(0.2539, 0.0, 0.0, 0.2539, 184.3, 67.0)" width="437.4" xlink:href="#font_A-OTF_____Pro_501_k0"/>
        <use fill="#006699" height="68.2" transform="matrix(0.2539, 0.0, 0.0, 0.2539, 196.85, 67.0)" width="437.4" xlink:href="#font_A-OTF_____Pro_501_d0"/>
        <use fill="#006699" height="68.2" transform="matrix(0.2539, 0.0, 0.0, 0.2539, 205.05, 67.0)" width="437.4" xlink:href="#font_A-OTF_____Pro_501_o0"/>
        <use fill="#006699" height="68.2" transform="matrix(0.2539, 0.0, 0.0, 0.2539, 213.25, 67.0)" width="437.4" xlink:href="#font_A-OTF_____Pro_501_w0"/>
        <use fill="#006699" height="68.2" transform="matrix(0.2539, 0.0, 0.0, 0.2539, 224.55, 67.0)" width="437.4" xlink:href="#font_A-OTF_____Pro_501_n0"/>
        <use fill="#006699" height="68.2" transform="matrix(0.2539, 0.0, 0.0, 0.2539, 237.1, 67.0)" width="437.4" xlink:href="#font_A-OTF_____Pro_501_a0"/>
        <use fill="#006699" height="68.2" transform="matrix(0.2539, 0.0, 0.0, 0.2539, 245.3, 67.0)" width="437.4" xlink:href="#font_A-OTF_____Pro_501_l0"/>
        <use fill="#006699" height="68.2" transform="matrix(0.2539, 0.0, 0.0, 0.2539, 249.4, 67.0)" width="437.4" xlink:href="#font_A-OTF_____Pro_501_l0"/>
        <use fill="#006699" height="68.2" transform="matrix(0.2539, 0.0, 0.0, 0.2539, 257.85, 67.0)" width="437.4" xlink:href="#font_A-OTF_____Pro_501_t0"/>
        <use fill="#006699" height="68.2" transform="matrix(0.2539, 0.0, 0.0, 0.2539, 263.6, 67.0)" width="437.4" xlink:href="#font_A-OTF_____Pro_501_h0"/>
        <use fill="#006699" height="68.2" transform="matrix(0.2539, 0.0, 0.0, 0.2539, 271.8, 67.0)" width="437.4" xlink:href="#font_A-OTF_____Pro_501_e0"/>
        <use fill="#006699" height="68.2" transform="matrix(0.2539, 0.0, 0.0, 0.2539, 283.4, 67.0)" width="437.4" xlink:href="#font_A-OTF_____Pro_501_C0"/>
        <use fill="#006699" height="68.2" transform="matrix(0.2539, 0.0, 0.0, 0.2539, 293.25, 67.0)" width="437.4" xlink:href="#font_A-OTF_____Pro_501_o0"/>
        <use fill="#006699" height="68.2" transform="matrix(0.2539, 0.0, 0.0, 0.2539, 301.45, 67.0)" width="437.4" xlink:href="#font_A-OTF_____Pro_501_g0"/>
        <use fill="#006699" height="68.2" transform="matrix(0.2539, 0.0, 0.0, 0.2539, 309.65, 67.0)" width="437.4" xlink:href="#font_A-OTF_____Pro_501_s0"/>
        <use fill="#006699" height="68.2" transform="matrix(0.2539, 0.0, 0.0, 0.2539, 321.25, 67.0)" width="437.4" xlink:href="#font_A-OTF_____Pro_501_o0"/>
        <use fill="#006699" height="68.2" transform="matrix(0.2539, 0.0, 0.0, 0.2539, 329.45, 67.0)" width="437.4" xlink:href="#font_A-OTF_____Pro_501_n0"/>
        <use fill="#006699" height="68.2" transform="matrix(0.2539, 0.0, 0.0, 0.2539, 342.0, 67.0)" width="437.4" xlink:href="#font_A-OTF_____Pro_501_t0"/>
        <use fill="#006699" height="68.2" transform="matrix(0.2539, 0.0, 0.0, 0.2539, 347.75, 67.0)" width="437.4" xlink:href="#font_A-OTF_____Pro_501_h0"/>
        <use fill="#006699" height="68.2" transform="matrix(0.2539, 0.0, 0.0, 0.2539, 355.95, 67.0)" width="437.4" xlink:href="#font_A-OTF_____Pro_501_e0"/>
        <use fill="#006699" height="68.2" transform="matrix(0.2539, 0.0, 0.0, 0.2539, 367.55, 67.0)" width="437.4" xlink:href="#font_A-OTF_____Pro_501_s0"/>
        <use fill="#006699" height="68.2" transform="matrix(0.2539, 0.0, 0.0, 0.2539, 374.8, 67.0)" width="437.4" xlink:href="#font_A-OTF_____Pro_501_c0"/>
        <use fill="#006699" height="68.2" transform="matrix(0.2539, 0.0, 0.0, 0.2539, 382.05, 67.0)" width="437.4" xlink:href="#font_A-OTF_____Pro_501_r0"/>
        <use fill="#006699" height="68.2" transform="matrix(0.2539, 0.0, 0.0, 0.2539, 388.55, 67.0)" width="437.4" xlink:href="#font_A-OTF_____Pro_501_e0"/>
        <use fill="#006699" height="68.2" transform="matrix(0.2539, 0.0, 0.0, 0.2539, 395.8, 67.0)" width="437.4" xlink:href="#font_A-OTF_____Pro_501_e0"/>
        <use fill="#006699" height="68.2" transform="matrix(0.2539, 0.0, 0.0, 0.2539, 403.05, 67.0)" width="437.4" xlink:href="#font_A-OTF_____Pro_501_n0"/>
        <use fill="#006699" height="68.2" transform="matrix(0.2539, 0.0, 0.0, 0.2539, 411.25, 67.0)" width="437.4" xlink:href="#font_A-OTF_____Pro_501_.0"/>
      </g>
    </g>
    <g id="font_A-OTF_____Pro_501_G0">
      <path d="M20.85 -23.8 L20.85 -23.8 Q19.75 -23.8 18.8 -22.95 17.9 -22.1 17.85 -20.45 17.9 -19.0 18.75 -17.95 19.65 -16.85 21.1 -16.8 L30.1 -16.8 Q31.35 -16.8 31.4 -15.45 L31.4 -12.7 Q31.6 -11.6 29.85 -9.15 28.05 -6.65 22.25 -6.35 16.45 -6.45 13.15 -10.05 9.85 -13.65 9.8 -19.75 9.75 -25.25 12.7 -29.6 15.7 -33.95 22.05 -34.2 24.55 -34.25 26.35 -33.4 28.1 -32.55 30.05 -30.6 31.6 -29.05 32.45 -28.7 33.25 -28.3 33.8 -28.4 35.45 -28.45 36.3 -29.6 37.15 -30.7 37.15 -32.0 37.0 -35.05 32.7 -38.0 28.4 -40.95 21.5 -41.15 12.15 -40.8 7.3 -34.3 2.45 -27.8 2.45 -19.5 2.45 -11.05 7.45 -5.15 12.4 0.75 21.95 1.0 25.4 1.05 29.25 -0.1 33.1 -1.3 35.8 -4.25 38.5 -7.25 38.6 -12.65 L38.6 -17.85 Q38.45 -21.4 36.5 -22.65 34.6 -23.85 32.95 -23.8 L20.85 -23.8 20.85 -23.8" fill-rule="evenodd" stroke="none"/>
    </g>
    <g id="font_A-OTF_____Pro_501_L0">
      <path d="M4.0 -6.6 L4.0 -6.6 Q4.1 -2.35 5.85 -1.1 7.6 0.15 10.0 0.0 L27.45 0.0 Q28.6 0.05 29.6 -0.85 30.6 -1.75 30.65 -3.7 30.7 -5.0 29.85 -6.05 29.05 -7.15 27.15 -7.2 L12.7 -7.2 Q11.0 -7.05 11.2 -9.3 L11.2 -37.55 Q11.2 -38.7 10.35 -39.9 9.45 -41.1 7.7 -41.2 4.25 -40.85 4.0 -37.55 L4.0 -6.6 4.0 -6.6" fill-rule="evenodd" stroke="none"/>
    </g>
    <g id="font_A-OTF_____Pro_501_w0">
      <path d="M26.25 -3.4 L26.25 -3.4 Q27.2 0.8 31.4 0.8 34.2 0.7 35.2 -0.7 36.25 -2.15 36.65 -3.85 L42.95 -25.3 43.2 -27.25 Q42.85 -30.7 39.9 -30.8 38.3 -30.7 37.6 -29.6 36.9 -28.45 36.7 -27.55 L31.4 -7.55 26.95 -26.95 Q26.0 -30.25 22.2 -30.6 20.3 -30.5 19.15 -29.3 17.95 -28.1 17.7 -26.95 L13.25 -7.55 7.95 -27.45 Q7.4 -29.35 6.5 -30.0 5.6 -30.65 4.65 -30.6 2.75 -30.5 2.05 -29.25 1.4 -28.05 1.45 -27.0 L1.75 -25.2 8.0 -3.8 Q8.4 -2.05 9.45 -0.65 10.45 0.75 13.3 0.8 17.3 0.85 18.35 -3.35 L22.3 -21.7 26.25 -3.4 26.25 -3.4" fill-rule="evenodd" stroke="none"/>
    </g>
    <g id="font_A-OTF_____Pro_501_x0">
      <path d="M11.5 -15.2 L11.5 -15.2 2.25 -4.9 Q1.45 -4.15 1.4 -2.4 1.75 0.5 4.7 0.8 6.05 0.75 6.85 0.15 L8.05 -0.9 16.1 -10.05 24.15 -0.9 25.35 0.15 Q26.2 0.75 27.7 0.8 30.5 0.45 30.8 -2.7 30.55 -4.5 30.0 -4.9 L20.7 -15.2 29.3 -24.95 Q30.15 -25.95 30.1 -27.4 30.05 -28.6 29.05 -29.55 28.05 -30.55 26.5 -30.6 25.0 -30.6 24.0 -29.2 L16.1 -20.35 8.2 -29.2 Q7.45 -30.45 5.45 -30.6 2.45 -30.2 2.15 -27.15 2.25 -25.7 2.9 -24.95 L11.5 -15.2 11.5 -15.2" fill-rule="evenodd" stroke="none"/>
    </g>
    <g id="font_A-OTF_____Pro_501_T0">
      <path d="M21.2 -33.2 L21.2 -33.2 30.05 -33.2 Q31.25 -33.15 32.4 -33.95 33.55 -34.75 33.65 -36.6 33.65 -38.1 32.65 -39.25 31.7 -40.35 30.05 -40.4 L5.15 -40.4 Q4.0 -40.4 2.85 -39.5 1.65 -38.6 1.55 -36.8 1.8 -33.4 5.15 -33.2 L14.0 -33.2 14.0 -2.45 Q14.0 -1.45 14.8 -0.35 15.6 0.7 17.6 0.8 19.0 0.8 20.1 -0.05 21.15 -0.9 21.2 -2.55 L21.2 -33.2 21.2 -33.2" fill-rule="evenodd" stroke="none"/>
    </g>
    <g id="font_A-OTF_____Pro_501_I0">
      <path d="M4.4 -2.8 L4.4 -2.8 Q4.65 0.5 8.1 0.8 11.5 0.5 11.6 -2.8 L11.6 -37.55 Q11.4 -40.85 7.9 -41.2 6.15 -41.1 5.3 -40.05 4.4 -38.95 4.4 -37.55 L4.4 -2.8 4.4 -2.8" fill-rule="evenodd" stroke="none"/>
    </g>
    <g id="text6" transform="matrix(1.0, 0.0, 0.0, 1.0, -98.95, -0.55)">
      <g transform="matrix(1.0, 0.0, 0.0, 1.0, 0.0, 0.0)">
        <use fill="#000000" height="25.2" transform="matrix(0.2539, 0.0, 0.0, 0.2539, 98.0, 11.0)" width="110.35" xlink:href="#font_A-OTF_____Pro_501_C0"/>
        <use fill="#000000" height="25.2" transform="matrix(0.2539, 0.0, 0.0, 0.2539, 107.85, 11.0)" width="110.35" xlink:href="#font_A-OTF_____Pro_501_l0"/>
        <use fill="#000000" height="25.2" transform="matrix(0.2539, 0.0, 0.0, 0.2539, 111.95, 11.0)" width="110.35" xlink:href="#font_A-OTF_____Pro_501_i0"/>
        <use fill="#000000" height="25.2" transform="matrix(0.2539, 0.0, 0.0, 0.2539, 116.05, 11.0)" width="110.35" xlink:href="#font_A-OTF_____Pro_501_c0"/>
        <use fill="#000000" height="25.2" transform="matrix(0.2539, 0.0, 0.0, 0.2539, 123.3, 11.0)" width="110.35" xlink:href="#font_A-OTF_____Pro_501_k0"/>
        <use fill="#000000" height="25.2" transform="matrix(0.2539, 0.0, 0.0, 0.2539, 135.85, 11.0)" width="110.35" xlink:href="#font_A-OTF_____Pro_501_t0"/>
        <use fill="#000000" height="25.2" transform="matrix(0.2539, 0.0, 0.0, 0.2539, 141.6, 11.0)" width="110.35" xlink:href="#font_A-OTF_____Pro_501_h0"/>
        <use fill="#000000" height="25.2" transform="matrix(0.2539, 0.0, 0.0, 0.2539, 149.8, 11.0)" width="110.35" xlink:href="#font_A-OTF_____Pro_501_i0"/>
        <use fill="#000000" height="25.2" transform="matrix(0.2539, 0.0, 0.0, 0.2539, 153.9, 11.0)" width="110.35" xlink:href="#font_A-OTF_____Pro_501_s0"/>
        <use fill="#000000" height="25.2" transform="matrix(0.2539, 0.0, 0.0, 0.2539, 165.5, 11.0)" width="110.35" xlink:href="#font_A-OTF_____Pro_501_b0"/>
        <use fill="#000000" height="25.2" transform="matrix(0.2539, 0.0, 0.0, 0.2539, 173.7, 11.0)" width="110.35" xlink:href="#font_A-OTF_____Pro_501_u0"/>
        <use fill="#000000" height="25.2" transform="matrix(0.2539, 0.0, 0.0, 0.2539, 181.9, 11.0)" width="110.35" xlink:href="#font_A-OTF_____Pro_501_t0"/>
        <use fill="#000000" height="25.2" transform="matrix(0.2539, 0.0, 0.0, 0.2539, 187.65, 11.0)" width="110.35" xlink:href="#font_A-OTF_____Pro_501_t0"/>
        <use fill="#000000" height="25.2" transform="matrix(0.2539, 0.0, 0.0, 0.2539, 193.4, 11.0)" width="110.35" xlink:href="#font_A-OTF_____Pro_501_o0"/>
        <use fill="#000000" height="25.2" transform="matrix(0.2539, 0.0, 0.0, 0.2539, 201.6, 11.0)" width="110.35" xlink:href="#font_A-OTF_____Pro_501_n0"/>
      </g>
      <g transform="matrix(1.0, 0.0, 0.0, 1.0, 0.0, 0.0)">
        <use fill="#000000" height="25.2" transform="matrix(0.2539, 0.0, 0.0, 0.2539, 107.0, 24.0)" width="110.35" xlink:href="#font_A-OTF_____Pro_501_t0"/>
        <use fill="#000000" height="25.2" transform="matrix(0.2539, 0.0, 0.0, 0.2539, 112.75, 24.0)" width="110.35" xlink:href="#font_A-OTF_____Pro_501_o0"/>
        <use fill="#000000" height="25.2" transform="matrix(0.2539, 0.0, 0.0, 0.2539, 125.3, 24.0)" width="110.35" xlink:href="#font_A-OTF_____Pro_501_s0"/>
        <use fill="#000000" height="25.2" transform="matrix(0.2539, 0.0, 0.0, 0.2539, 132.55, 24.0)" width="110.35" xlink:href="#font_A-OTF_____Pro_501_e0"/>
        <use fill="#000000" height="25.2" transform="matrix(0.2539, 0.0, 0.0, 0.2539, 139.8, 24.0)" width="110.35" xlink:href="#font_A-OTF_____Pro_501_e0"/>
        <use fill="#000000" height="25.2" transform="matrix(0.2539, 0.0, 0.0, 0.2539, 151.4, 24.0)" width="110.35" xlink:href="#font_A-OTF_____Pro_501_a0"/>
        <use fill="#000000" height="25.2" transform="matrix(0.2539, 0.0, 0.0, 0.2539, 159.6, 24.0)" width="110.35" xlink:href="#font_A-OTF_____Pro_501_l0"/>
        <use fill="#000000" height="25.2" transform="matrix(0.2539, 0.0, 0.0, 0.2539, 163.7, 24.0)" width="110.35" xlink:href="#font_A-OTF_____Pro_501_l0"/>
        <use fill="#000000" height="25.2" transform="matrix(0.2539, 0.0, 0.0, 0.2539, 172.15, 24.0)" width="110.35" xlink:href="#font_A-OTF_____Pro_501_C0"/>
        <use fill="#000000" height="25.2" transform="matrix(0.2539, 0.0, 0.0, 0.2539, 182.0, 24.0)" width="110.35" xlink:href="#font_A-OTF_____Pro_501_o0"/>
        <use fill="#000000" height="25.2" transform="matrix(0.2539, 0.0, 0.0, 0.2539, 190.2, 24.0)" width="110.35" xlink:href="#font_A-OTF_____Pro_501_g0"/>
        <use fill="#000000" height="25.2" transform="matrix(0.2539, 0.0, 0.0, 0.2539, 198.4, 24.0)" width="110.35" xlink:href="#font_A-OTF_____Pro_501_s0"/>
        <use fill="#000000" height="25.2" transform="matrix(0.2539, 0.0, 0.0, 0.2539, 205.65, 24.0)" width="110.35" xlink:href="#font_A-OTF_____Pro_501_.0"/>
      </g>
    </g>
    <g id="shape1" transform="matrix(1.0, 0.0, 0.0, 1.0, 0.0, 0.0)">
      <path d="M0.0 22.5 L0.0 12.5 85.5 12.5 85.5 0.0 116.55 22.5 0.0 22.5" fill="#003399" fill-rule="evenodd" stroke="none"/>
    </g>
  </defs>
</svg>
