<?xml version="1.0" encoding="UTF-8" standalone="no"?>
<svg xmlns:xlink="http://www.w3.org/1999/xlink" height="23.75px" width="26.5px" xmlns="http://www.w3.org/2000/svg">
  <g transform="matrix(1.0, 0.0, 0.0, 1.0, 1.9, 0.75)">
    <use data-characterId="139" height="17.6" transform="matrix(1.0, 0.0, 0.0, 1.0, -0.5, -0.5)" width="23.8" xlink:href="#shape0"/>
    <use data-characterId="140" height="16.6" transform="matrix(1.0, 0.0, 0.0, 1.0, 0.0, 1.4)" width="22.8" xlink:href="#shape1"/>
  </g>
  <defs>
    <g id="shape0" transform="matrix(1.0, 0.0, 0.0, 1.0, 0.5, 0.5)">
      <path d="M22.2 3.15 L13.6 15.3 Q12.65 16.6 11.4 16.6 10.15 16.6 9.15 15.3 L0.6 3.15 Q-0.3 1.8 0.15 0.9 0.6 0.05 2.2 0.0 L20.55 0.0 Q22.15 0.05 22.65 0.9 23.1 1.8 22.2 3.15" fill="#6a5800" fill-rule="evenodd" stroke="none"/>
      <path d="M22.2 3.15 L13.6 15.3 Q12.65 16.6 11.4 16.6 10.15 16.6 9.15 15.3 L0.6 3.15 Q-0.3 1.8 0.15 0.9 0.6 0.05 2.2 0.0 L20.55 0.0 Q22.15 0.05 22.65 0.9 23.1 1.8 22.2 3.15 Z" fill="none" stroke="#6a5800" stroke-linecap="round" stroke-linejoin="round" stroke-width="1.0"/>
    </g>
    <g id="shape1" transform="matrix(1.0, 0.0, 0.0, 1.0, 0.0, 0.0)">
      <path d="M13.6 15.3 Q12.65 16.6 11.4 16.6 10.15 16.6 9.2 15.3 L0.6 3.15 Q-0.3 1.8 0.15 0.9 0.6 0.05 2.2 0.0 L20.6 0.0 Q22.2 0.05 22.65 0.9 23.1 1.8 22.2 3.15 L13.6 15.3" fill="url(#gradient0)" fill-rule="evenodd" stroke="none"/>
    </g>
    <linearGradient gradientTransform="matrix(0.0085, -0.0085, 0.0085, 0.0085, 11.4, 3.6)" gradientUnits="userSpaceOnUse" id="gradient0" spreadMethod="pad" x1="-819.2" x2="819.2">
      <stop offset="0.0" stop-color="#650c0b"/>
      <stop offset="0.5490196078431373" stop-color="#e1180a"/>
      <stop offset="1.0" stop-color="#650c0b"/>
    </linearGradient>
  </defs>
</svg>
