<?xml version="1.0" encoding="UTF-8" standalone="no"?>
<svg xmlns:xlink="http://www.w3.org/1999/xlink" height="40.9px" width="35.2px" xmlns="http://www.w3.org/2000/svg">
  <g transform="matrix(1.0, 0.0, 0.0, 1.0, 1.5, 1.75)">
    <use height="37.4" transform="matrix(0.697, 0.0, 0.0, 0.697, 4.95, 5.7)" width="32.2" xlink:href="#shape0"/>
  </g>
  <defs>
    <g id="shape0" transform="matrix(1.0, 0.0, 0.0, 1.0, 0.0, 0.0)">
      <path d="M17.3 17.15 Q18.7 16.1 22.75 12.05 18.85 16.1 17.8 17.65 20.4 18.55 32.2 18.65 20.55 18.8 17.85 19.7 L23.15 25.05 17.3 20.1 Q16.4 22.9 16.15 37.4 16.1 23.2 15.25 20.25 13.7 21.4 8.75 26.55 L14.8 19.8 Q12.2 18.9 0.0 18.75 L14.7 17.7 Q13.55 16.2 8.8 11.75 L15.3 17.3 Q16.2 14.4 16.5 0.0 16.5 14.2 17.3 17.15" fill="#ffffff" fill-rule="evenodd" stroke="none"/>
    </g>
  </defs>
</svg>
