<?xml version="1.0" encoding="UTF-8" standalone="no"?>
<svg xmlns:xlink="http://www.w3.org/1999/xlink" height="50.1px" width="189.75px" xmlns="http://www.w3.org/2000/svg">
  <g transform="matrix(1.0, 0.0, 0.0, 1.0, 97.6, 24.05)">
    <use height="31.55" transform="matrix(1.0, 0.0, 0.0, 1.0, -85.25, -16.05)" width="166.25" xlink:href="#text0"/>
  </g>
  <defs>
    <g id="text0" transform="matrix(1.0, 0.0, 0.0, 1.0, 97.15, -3.95)">
      <g transform="matrix(1.0, 0.0, 0.0, 1.0, -99.25, 0.0)">
        <use fill="#333333" height="31.55" transform="matrix(0.3125, 0.0, 0.0, 0.3125, 1.0, 14.0)" width="166.25" xlink:href="#font_______W7_I0"/>
        <use fill="#333333" height="31.55" transform="matrix(0.3125, 0.0, 0.0, 0.3125, 12.2, 14.0)" width="166.25" xlink:href="#font_______W7_m0"/>
        <use fill="#333333" height="31.55" transform="matrix(0.3125, 0.0, 0.0, 0.3125, 23.9, 14.0)" width="166.25" xlink:href="#font_______W7_a0"/>
        <use fill="#333333" height="31.55" transform="matrix(0.3125, 0.0, 0.0, 0.3125, 33.1, 14.0)" width="166.25" xlink:href="#font_______W7_y0"/>
        <use fill="#333333" height="31.55" transform="matrix(0.3125, 0.0, 0.0, 0.3125, 46.35, 14.0)" width="166.25" xlink:href="#font_______W7_b0"/>
        <use fill="#333333" height="31.55" transform="matrix(0.3125, 0.0, 0.0, 0.3125, 55.75, 14.0)" width="166.25" xlink:href="#font_______W7_e0"/>
        <use fill="#333333" height="31.55" transform="matrix(0.3125, 0.0, 0.0, 0.3125, 70.05, 14.0)" width="166.25" xlink:href="#font_______W7_j0"/>
        <use fill="#333333" height="31.55" transform="matrix(0.3125, 0.0, 0.0, 0.3125, 77.05, 14.0)" width="166.25" xlink:href="#font_______W7_u0"/>
        <use fill="#333333" height="31.55" transform="matrix(0.3125, 0.0, 0.0, 0.3125, 86.05, 14.0)" width="166.25" xlink:href="#font_______W7_s0"/>
        <use fill="#333333" height="31.55" transform="matrix(0.3125, 0.0, 0.0, 0.3125, 94.35, 14.0)" width="166.25" xlink:href="#font_______W7_t0"/>
        <use fill="#333333" height="31.55" transform="matrix(0.3125, 0.0, 0.0, 0.3125, 107.3, 14.0)" width="166.25" xlink:href="#font_______W7_a0"/>
        <use fill="#333333" height="31.55" transform="matrix(0.3125, 0.0, 0.0, 0.3125, 121.85, 14.0)" width="166.25" xlink:href="#font_______W7_f0"/>
        <use fill="#333333" height="31.55" transform="matrix(0.3125, 0.0, 0.0, 0.3125, 127.65, 14.0)" width="166.25" xlink:href="#font_______W7_l0"/>
        <use fill="#333333" height="31.55" transform="matrix(0.3125, 0.0, 0.0, 0.3125, 133.5, 14.0)" width="166.25" xlink:href="#font_______W7_u0"/>
        <use fill="#333333" height="31.55" transform="matrix(0.3125, 0.0, 0.0, 0.3125, 142.5, 14.0)" width="166.25" xlink:href="#font_______W7_n0"/>
        <use fill="#333333" height="31.55" transform="matrix(0.3125, 0.0, 0.0, 0.3125, 151.6, 14.0)" width="166.25" xlink:href="#font_______W7_k0"/>
        <use fill="#333333" height="31.55" transform="matrix(0.3125, 0.0, 0.0, 0.3125, 160.8, 14.0)" width="166.25" xlink:href="#font_______W7_y0"/>
      </g>
      <g transform="matrix(1.0, 0.0, 0.0, 1.0, -99.25, 0.0)">
        <use fill="#333333" height="31.55" transform="matrix(0.3125, 0.0, 0.0, 0.3125, 16.0, 34.0)" width="166.25" xlink:href="#font_______W7_-0"/>
        <use fill="#333333" height="31.55" transform="matrix(0.3125, 0.0, 0.0, 0.3125, 26.7, 34.0)" width="166.25" xlink:href="#font_______W7_b0"/>
        <use fill="#333333" height="31.55" transform="matrix(0.3125, 0.0, 0.0, 0.3125, 36.1, 34.0)" width="166.25" xlink:href="#font_______W7_u0"/>
        <use fill="#333333" height="31.55" transform="matrix(0.3125, 0.0, 0.0, 0.3125, 45.1, 34.0)" width="166.25" xlink:href="#font_______W7_t0"/>
        <use fill="#333333" height="31.55" transform="matrix(0.3125, 0.0, 0.0, 0.3125, 58.05, 34.0)" width="166.25" xlink:href="#font_______W7_I0"/>
        <use fill="#333333" height="31.55" transform="matrix(0.3125, 0.0, 0.0, 0.3125, 69.25, 34.0)" width="166.25" xlink:href="#font_______W7_a0"/>
        <use fill="#333333" height="31.55" transform="matrix(0.3125, 0.0, 0.0, 0.3125, 78.45, 34.0)" width="166.25" xlink:href="#font_______W7_m0"/>
        <use fill="#333333" height="31.55" transform="matrix(0.3125, 0.0, 0.0, 0.3125, 95.5, 34.0)" width="166.25" xlink:href="#font_______W7_s0"/>
        <use fill="#333333" height="31.55" transform="matrix(0.3125, 0.0, 0.0, 0.3125, 103.8, 34.0)" width="166.25" xlink:href="#font_______W7_p0"/>
        <use fill="#333333" height="31.55" transform="matrix(0.3125, 0.0, 0.0, 0.3125, 113.05, 34.0)" width="166.25" xlink:href="#font_______W7_u0"/>
        <use fill="#333333" height="31.55" transform="matrix(0.3125, 0.0, 0.0, 0.3125, 122.05, 34.0)" width="166.25" xlink:href="#font_______W7_n0"/>
        <use fill="#333333" height="31.55" transform="matrix(0.3125, 0.0, 0.0, 0.3125, 131.15, 34.0)" width="166.25" xlink:href="#font_______W7_k0"/>
        <use fill="#333333" height="31.55" transform="matrix(0.3125, 0.0, 0.0, 0.3125, 140.35, 34.0)" width="166.25" xlink:href="#font_______W7_y0"/>
        <use fill="#333333" height="31.55" transform="matrix(0.3125, 0.0, 0.0, 0.3125, 148.25, 34.0)" width="166.25" xlink:href="#font_______W7_.0"/>
      </g>
    </g>
    <g id="font_______W7_I0">
      <path d="M11.8 -31.5 L11.8 -31.5 6.9 -32.15 4.15 0.05 14.65 -1.1 11.8 -31.5" fill-rule="evenodd" stroke="none"/>
    </g>
    <g id="font_______W7_m0">
      <path d="M35.35 -9.0 L35.35 -9.0 Q35.35 -21.45 27.8 -21.45 24.2 -21.45 21.15 -18.8 19.2 -21.45 15.65 -21.45 12.4 -21.45 9.45 -19.2 L9.25 -20.75 4.35 -21.45 2.05 0.05 11.95 -1.4 10.25 -13.85 Q12.25 -15.8 13.75 -15.8 16.4 -15.8 16.4 -11.2 16.4 -8.95 15.2 -5.8 L12.95 -0.75 22.1 0.1 Q23.3 -4.75 23.3 -9.55 23.3 -12.35 22.95 -14.3 24.5 -15.7 25.75 -15.7 28.25 -15.7 28.25 -11.2 28.25 -7.95 25.1 -0.65 L34.25 0.2 Q35.35 -4.25 35.35 -9.0" fill-rule="evenodd" stroke="none"/>
    </g>
    <g id="font_______W7_a0">
      <path d="M19.05 -8.85 L19.05 -8.85 18.5 -5.05 17.1 -9.0 Q14.35 -6.2 10.6 -6.2 9.95 -6.2 9.45 -6.75 9.0 -7.2 9.0 -7.85 9.0 -10.2 13.7 -10.2 15.9 -10.2 19.05 -8.85 M27.4 -6.8 L27.4 -6.8 Q27.4 -21.45 13.35 -21.45 7.15 -21.45 2.55 -18.35 L4.3 -14.35 Q8.3 -16.55 13.15 -16.55 17.85 -16.55 18.85 -13.35 15.4 -14.5 12.8 -14.5 8.6 -14.5 5.6 -12.8 1.8 -10.75 1.8 -6.95 1.8 -3.5 4.9 -1.55 7.55 0.05 11.15 0.05 13.95 0.05 17.35 -0.95 L17.0 0.15 26.7 -0.3 Q27.4 -3.45 27.4 -6.8" fill-rule="evenodd" stroke="none"/>
    </g>
    <g id="font_______W7_y0">
      <path d="M21.2 -21.45 L21.2 -21.45 13.15 -10.8 3.65 -21.45 0.5 -19.75 8.5 -4.7 4.3 0.85 12.5 4.75 24.85 -19.65 21.2 -21.45" fill-rule="evenodd" stroke="none"/>
    </g>
    <g id="font_______W7_b0">
      <path d="M20.9 -12.9 L20.9 -12.9 Q20.9 -9.4 17.6 -9.4 15.3 -9.4 13.25 -11.85 L11.45 -8.4 10.95 -14.2 Q13.25 -16.5 16.3 -16.5 17.85 -16.5 19.35 -15.5 20.9 -14.45 20.9 -12.9 M28.25 -10.45 L28.25 -10.45 Q28.25 -15.0 25.1 -18.25 21.9 -21.45 17.35 -21.45 13.75 -21.45 10.5 -19.25 L9.35 -31.5 4.65 -32.15 2.05 0.05 12.15 -0.75 12.15 -2.05 Q14.7 0.05 18.2 0.05 22.6 0.05 25.4 -3.0 28.25 -6.0 28.25 -10.45" fill-rule="evenodd" stroke="none"/>
    </g>
    <g id="font_______W7_e0">
      <path d="M19.45 -9.9 L19.45 -9.9 Q16.75 -7.55 13.6 -7.55 10.45 -7.55 9.15 -9.9 L19.45 -9.9 M9.0 -13.4 L9.0 -13.4 Q9.7 -14.95 11.5 -15.95 13.2 -16.8 15.1 -16.8 18.05 -16.8 19.65 -14.35 L9.0 -13.4 M23.25 -9.9 L23.25 -9.9 24.3 -9.9 26.7 -12.6 Q25.85 -16.7 22.9 -19.1 19.9 -21.45 15.15 -21.45 9.65 -21.45 5.9 -18.65 1.8 -15.6 1.8 -10.4 1.8 -5.35 5.8 -2.5 9.3 0.05 14.6 0.05 22.45 0.05 27.15 -4.25 L23.25 -9.9" fill-rule="evenodd" stroke="none"/>
    </g>
    <g id="font_______W7_j0">
      <path d="M19.25 -8.15 L19.25 -8.15 Q19.25 -16.25 16.7 -21.45 L12.3 -20.05 Q13.6 -15.8 13.6 -11.55 13.6 -4.2 10.15 -4.2 7.7 -4.2 5.4 -7.7 L0.5 -0.3 Q2.1 1.7 5.1 3.2 8.1 4.75 10.55 4.75 19.25 4.75 19.25 -8.15 M18.0 -31.5 L18.0 -31.5 12.7 -32.15 11.05 -24.95 19.35 -26.1 18.0 -31.5" fill-rule="evenodd" stroke="none"/>
    </g>
    <g id="font_______W7_u0">
      <path d="M24.1 -20.75 L24.1 -20.75 19.25 -21.45 17.9 -8.95 16.15 -11.65 Q13.35 -8.1 10.6 -8.1 9.0 -8.1 8.15 -9.4 7.25 -10.65 7.25 -12.3 7.25 -15.75 8.6 -19.75 L3.9 -21.15 Q2.05 -16.35 2.05 -11.4 2.05 -6.45 4.25 -3.4 6.75 0.05 11.5 0.05 14.55 0.05 17.1 -1.5 L16.95 0.1 26.8 -1.35 24.1 -20.75" fill-rule="evenodd" stroke="none"/>
    </g>
    <g id="font_______W7_s0">
      <path d="M25.05 -6.35 L25.05 -6.35 Q25.05 -12.25 15.35 -13.65 8.7 -14.6 8.7 -15.7 8.7 -17.05 12.35 -17.05 17.1 -17.05 22.25 -14.8 L23.8 -18.2 Q19.05 -21.45 12.25 -21.45 8.55 -21.45 6.05 -20.35 2.6 -18.85 2.6 -15.7 2.6 -13.1 4.75 -11.8 6.5 -10.75 10.95 -10.05 L16.3 -8.95 Q17.8 -8.4 17.8 -7.5 17.8 -6.2 15.25 -6.2 12.3 -6.2 9.1 -7.45 5.9 -8.7 3.8 -10.65 L1.0 -2.6 Q6.45 0.05 14.3 0.05 25.05 0.05 25.05 -6.35" fill-rule="evenodd" stroke="none"/>
    </g>
    <g id="font_______W7_t0">
      <path d="M18.7 -12.2 L18.7 -12.2 Q17.0 -9.35 14.9 -9.35 11.95 -9.35 11.95 -15.4 L21.65 -15.4 20.1 -22.55 12.4 -21.45 Q12.75 -24.2 13.6 -27.95 L8.95 -28.85 Q7.75 -24.65 7.1 -20.75 L0.75 -19.9 1.75 -15.4 6.55 -15.4 6.5 -12.55 Q6.5 -6.8 7.75 -4.05 9.5 0.05 14.55 0.05 19.1 0.05 23.25 -4.15 L18.7 -12.2" fill-rule="evenodd" stroke="none"/>
    </g>
    <g id="font_______W7_f0">
      <path d="M16.3 -23.5 L16.3 -23.5 11.45 -22.7 Q11.8 -25.5 12.65 -26.6 13.65 -27.85 16.3 -27.85 L17.0 -27.85 16.25 -32.0 14.1 -32.15 Q5.9 -32.15 5.05 -21.65 L1.3 -20.95 2.15 -16.7 4.55 -16.7 Q4.1 -5.65 4.1 -0.95 L13.95 0.05 Q11.85 -9.65 11.45 -16.65 L17.3 -16.6 16.3 -23.5" fill-rule="evenodd" stroke="none"/>
    </g>
    <g id="font_______W7_l0">
      <path d="M11.6 -31.5 L11.6 -31.5 6.9 -32.15 4.35 0.05 14.4 -1.4 11.6 -31.5" fill-rule="evenodd" stroke="none"/>
    </g>
    <g id="font_______W7_n0">
      <path d="M27.0 -9.05 L27.0 -9.05 Q27.0 -14.5 24.65 -17.8 21.9 -21.45 16.6 -21.45 12.6 -21.45 9.45 -18.85 L9.2 -20.75 4.35 -21.45 2.05 0.05 11.95 -1.4 10.35 -12.55 Q12.95 -15.85 15.9 -15.85 19.4 -15.85 19.4 -10.6 19.4 -6.9 16.6 -1.3 L26.2 0.0 Q27.0 -6.5 27.0 -9.05" fill-rule="evenodd" stroke="none"/>
    </g>
    <g id="font_______W7_k0">
      <path d="M20.35 -12.2 L20.35 -12.2 26.9 -17.9 24.8 -21.8 10.85 -14.65 9.3 -31.45 4.6 -32.15 2.05 0.05 12.1 -1.4 11.35 -9.1 13.25 -6.05 15.8 -8.25 22.05 0.25 28.6 -6.95 20.35 -12.2" fill-rule="evenodd" stroke="none"/>
    </g>
    <g id="font_______W7_-0">
      <path d="M13.3 -20.55 L13.3 -20.55 2.1 -16.75 3.3 -11.35 14.9 -11.4 13.3 -20.55" fill-rule="evenodd" stroke="none"/>
    </g>
    <g id="font_______W7_p0">
      <path d="M20.7 -12.7 L20.7 -12.7 Q20.7 -9.3 17.35 -9.3 14.95 -9.3 12.7 -12.0 L10.6 -8.4 10.05 -13.4 Q12.6 -16.55 16.2 -16.55 18.05 -16.55 19.35 -15.55 20.7 -14.5 20.7 -12.7 M27.8 -10.85 L27.8 -10.85 Q27.8 -15.55 24.6 -18.5 21.4 -21.45 16.7 -21.45 12.55 -21.45 9.35 -19.15 L9.2 -20.75 4.35 -21.45 2.05 4.75 11.95 3.3 11.35 -1.45 Q14.35 0.05 17.2 0.05 21.85 0.05 24.85 -3.05 27.8 -6.15 27.8 -10.85" fill-rule="evenodd" stroke="none"/>
    </g>
    <g id="font_______W7_.0">
      <path d="M11.9 -7.35 L11.9 -7.35 4.9 -8.2 3.1 1.2 13.5 0.0 11.9 -7.35" fill-rule="evenodd" stroke="none"/>
    </g>
  </defs>
</svg>
