<?xml version="1.0" encoding="UTF-8" standalone="no"?>
<svg xmlns:xlink="http://www.w3.org/1999/xlink" height="50.1px" width="189.75px" xmlns="http://www.w3.org/2000/svg">
  <g transform="matrix(1.0, 0.0, 0.0, 1.0, 97.6, 24.05)">
    <use height="10.1" transform="matrix(1.0, 0.0, 0.0, 1.0, -25.95, -5.05)" width="50.15" xlink:href="#text0"/>
  </g>
  <defs>
    <g id="text0" transform="matrix(1.0, 0.0, 0.0, 1.0, -31.15, -3.95)">
      <g transform="matrix(1.0, 0.0, 0.0, 1.0, 29.75, 0.0)">
        <use fill="#333333" height="10.1" transform="matrix(0.3125, 0.0, 0.0, 0.3125, 0.0, 14.0)" width="50.15" xlink:href="#font_______W7_I0"/>
        <use fill="#333333" height="10.1" transform="matrix(0.3125, 0.0, 0.0, 0.3125, 5.85, 14.0)" width="50.15" xlink:href="#font_______W7__0"/>
        <use fill="#333333" height="10.1" transform="matrix(0.3125, 0.0, 0.0, 0.3125, 9.3, 14.0)" width="50.15" xlink:href="#font_______W7_m0"/>
        <use fill="#333333" height="10.1" transform="matrix(0.3125, 0.0, 0.0, 0.3125, 26.35, 14.0)" width="50.15" xlink:href="#font_______W7__2"/>
        <use fill="#333333" height="10.1" transform="matrix(0.3125, 0.0, 0.0, 0.3125, 36.75, 14.0)" width="50.15" xlink:href="#font_______W7_20"/>
        <use fill="#333333" height="10.1" transform="matrix(0.3125, 0.0, 0.0, 0.3125, 47.15, 14.0)" width="50.15" xlink:href="#font_______W7__3"/>
      </g>
    </g>
    <g id="font_______W7_I0">
      <path d="M11.8 -31.5 L11.8 -31.5 6.9 -32.15 4.15 0.05 14.65 -1.1 11.8 -31.5" fill-rule="evenodd" stroke="none"/>
    </g>
    <g id="font_______W7__0">
      <path d="M2.05 -32.15 L2.05 -32.15 3.65 -20.7 7.3 -20.7 8.95 -32.15 2.05 -32.15" fill-rule="evenodd" stroke="none"/>
    </g>
    <g id="font_______W7_m0">
      <path d="M35.35 -9.0 L35.35 -9.0 Q35.35 -21.45 27.8 -21.45 24.2 -21.45 21.15 -18.8 19.2 -21.45 15.65 -21.45 12.4 -21.45 9.45 -19.2 L9.25 -20.75 4.35 -21.45 2.05 0.05 11.95 -1.4 10.25 -13.85 Q12.25 -15.8 13.75 -15.8 16.4 -15.8 16.4 -11.2 16.4 -8.95 15.2 -5.8 L12.95 -0.75 22.1 0.1 Q23.3 -4.75 23.3 -9.55 23.3 -12.35 22.95 -14.3 24.5 -15.7 25.75 -15.7 28.25 -15.7 28.25 -11.2 28.25 -7.95 25.1 -0.65 L34.25 0.2 Q35.35 -4.25 35.35 -9.0" fill-rule="evenodd" stroke="none"/>
    </g>
    <g id="font_______W7__2">
      <path d="M18.95 -14.45 L18.95 -14.45 13.9 -13.9 14.55 -18.75 20.05 -18.7 18.95 -14.45 M30.7 -26.7 L30.7 -26.7 27.2 -26.3 27.85 -31.25 23.6 -32.15 21.85 -25.6 15.3 -24.85 16.2 -31.25 11.95 -32.15 9.85 -24.2 2.25 -23.25 3.35 -18.75 8.4 -18.75 6.9 -13.0 1.15 -12.35 2.15 -7.75 5.55 -7.75 3.8 -1.2 12.05 0.05 13.05 -7.75 17.2 -7.8 15.45 -1.2 23.7 0.05 24.75 -7.8 31.5 -7.8 30.05 -15.8 25.75 -15.3 26.2 -18.7 32.15 -18.7 30.7 -26.7" fill-rule="evenodd" stroke="none"/>
    </g>
    <g id="font_______W7_20">
      <path d="M28.95 -10.35 L28.95 -10.35 15.65 -7.5 Q27.6 -16.45 27.6 -22.9 27.6 -27.25 23.55 -29.85 20.0 -32.15 15.5 -32.15 7.8 -32.15 3.0 -25.6 L6.65 -21.9 Q8.15 -24.2 10.6 -25.45 13.05 -26.75 15.65 -26.75 17.6 -26.75 19.15 -25.7 20.75 -24.7 20.75 -22.9 20.75 -19.15 13.5 -13.0 8.05 -8.3 2.55 -5.3 L3.85 -0.55 30.7 -0.55 28.95 -10.35" fill-rule="evenodd" stroke="none"/>
    </g>
    <g id="font_______W7__3">
      <path d="M12.1 -7.5 L12.1 -7.5 5.1 -8.35 3.35 0.05 13.7 -1.15 12.1 -7.5 M11.0 -31.5 L11.0 -31.5 6.15 -32.15 4.3 -10.7 13.2 -12.15 11.0 -31.5" fill-rule="evenodd" stroke="none"/>
    </g>
  </defs>
</svg>
