<?xml version="1.0" encoding="UTF-8" standalone="no"?>
<svg xmlns:xlink="http://www.w3.org/1999/xlink" height="50.1px" width="189.75px" xmlns="http://www.w3.org/2000/svg">
  <g transform="matrix(1.0, 0.0, 0.0, 1.0, 97.6, 24.05)">
    <use height="30.45" transform="matrix(1.0, 0.0, 0.0, 1.0, -77.4, -14.05)" width="151.45" xlink:href="#text0"/>
  </g>
  <defs>
    <g id="text0" transform="matrix(1.0, 0.0, 0.0, 1.0, 52.3, -3.95)">
      <g transform="matrix(1.0, 0.0, 0.0, 1.0, -63.3, 0.0)">
        <use fill="#333333" height="30.45" transform="matrix(0.3125, 0.0, 0.0, 0.3125, 10.0, 14.0)" width="151.45" xlink:href="#font_______W7_I0"/>
        <use fill="#333333" height="30.45" transform="matrix(0.3125, 0.0, 0.0, 0.3125, 21.2, 14.0)" width="151.45" xlink:href="#font_______W7_d0"/>
        <use fill="#333333" height="30.45" transform="matrix(0.3125, 0.0, 0.0, 0.3125, 30.5, 14.0)" width="151.45" xlink:href="#font_______W7_o0"/>
        <use fill="#333333" height="30.45" transform="matrix(0.3125, 0.0, 0.0, 0.3125, 39.1, 14.0)" width="151.45" xlink:href="#font_______W7_n0"/>
        <use fill="#333333" height="30.45" transform="matrix(0.3125, 0.0, 0.0, 0.3125, 48.2, 14.0)" width="151.45" xlink:href="#font_______W7__1"/>
        <use fill="#333333" height="30.45" transform="matrix(0.3125, 0.0, 0.0, 0.3125, 51.65, 14.0)" width="151.45" xlink:href="#font_______W7_t0"/>
        <use fill="#333333" height="30.45" transform="matrix(0.3125, 0.0, 0.0, 0.3125, 64.6, 14.0)" width="151.45" xlink:href="#font_______W7_t0"/>
        <use fill="#333333" height="30.45" transform="matrix(0.3125, 0.0, 0.0, 0.3125, 72.2, 14.0)" width="151.45" xlink:href="#font_______W7_a0"/>
        <use fill="#333333" height="30.45" transform="matrix(0.3125, 0.0, 0.0, 0.3125, 81.4, 14.0)" width="151.45" xlink:href="#font_______W7_k0"/>
        <use fill="#333333" height="30.45" transform="matrix(0.3125, 0.0, 0.0, 0.3125, 90.6, 14.0)" width="151.45" xlink:href="#font_______W7_e0"/>
        <use fill="#333333" height="30.45" transform="matrix(0.3125, 0.0, 0.0, 0.3125, 104.9, 14.0)" width="151.45" xlink:href="#font_______W7__2"/>
        <use fill="#333333" height="30.45" transform="matrix(0.3125, 0.0, 0.0, 0.3125, 111.15, 14.0)" width="151.45" xlink:href="#font_______W7_N0"/>
        <use fill="#333333" height="30.45" transform="matrix(0.3125, 0.0, 0.0, 0.3125, 122.45, 14.0)" width="151.45" xlink:href="#font_______W7_o0"/>
        <use fill="#333333" height="30.45" transform="matrix(0.3125, 0.0, 0.0, 0.3125, 131.05, 14.0)" width="151.45" xlink:href="#font_______W7__2"/>
        <use fill="#333333" height="30.45" transform="matrix(0.3125, 0.0, 0.0, 0.3125, 142.65, 14.0)" width="151.45" xlink:href="#font_______W7_f0"/>
        <use fill="#333333" height="30.45" transform="matrix(0.3125, 0.0, 0.0, 0.3125, 148.45, 14.0)" width="151.45" xlink:href="#font_______W7_o0"/>
        <use fill="#333333" height="30.45" transform="matrix(0.3125, 0.0, 0.0, 0.3125, 157.05, 14.0)" width="151.45" xlink:href="#font_______W7_r0"/>
      </g>
      <g transform="matrix(1.0, 0.0, 0.0, 1.0, -63.3, 0.0)">
        <use fill="#333333" height="30.45" transform="matrix(0.3125, 0.0, 0.0, 0.3125, 46.0, 34.0)" width="151.45" xlink:href="#font_______W7_a0"/>
        <use fill="#333333" height="30.45" transform="matrix(0.3125, 0.0, 0.0, 0.3125, 55.2, 34.0)" width="151.45" xlink:href="#font_______W7_n0"/>
        <use fill="#333333" height="30.45" transform="matrix(0.3125, 0.0, 0.0, 0.3125, 69.65, 34.0)" width="151.45" xlink:href="#font_______W7_a0"/>
        <use fill="#333333" height="30.45" transform="matrix(0.3125, 0.0, 0.0, 0.3125, 78.85, 34.0)" width="151.45" xlink:href="#font_______W7_n0"/>
        <use fill="#333333" height="30.45" transform="matrix(0.3125, 0.0, 0.0, 0.3125, 87.95, 34.0)" width="151.45" xlink:href="#font_______W7_s0"/>
        <use fill="#333333" height="30.45" transform="matrix(0.3125, 0.0, 0.0, 0.3125, 96.25, 34.0)" width="151.45" xlink:href="#font_______W7_w0"/>
        <use fill="#333333" height="30.45" transform="matrix(0.3125, 0.0, 0.0, 0.3125, 106.15, 34.0)" width="151.45" xlink:href="#font_______W7_e0"/>
        <use fill="#333333" height="30.45" transform="matrix(0.3125, 0.0, 0.0, 0.3125, 115.1, 34.0)" width="151.45" xlink:href="#font_______W7_r0"/>
        <use fill="#333333" height="30.45" transform="matrix(0.3125, 0.0, 0.0, 0.3125, 121.05, 34.0)" width="151.45" xlink:href="#font_______W7_.0"/>
      </g>
    </g>
    <g id="font_______W7_I0">
      <path d="M11.8 -31.5 L11.8 -31.5 6.9 -32.15 4.15 0.05 14.65 -1.1 11.8 -31.5" fill-rule="evenodd" stroke="none"/>
    </g>
    <g id="font_______W7_d0">
      <path d="M18.35 -8.95 L18.35 -8.95 16.8 -11.9 Q14.75 -9.45 12.45 -9.45 10.9 -9.45 10.0 -10.4 9.1 -11.4 9.1 -12.95 9.1 -14.5 10.7 -15.6 12.15 -16.5 13.7 -16.5 16.6 -16.5 18.8 -14.55 L18.35 -8.95 M24.9 -31.55 L24.9 -31.55 20.15 -32.2 19.15 -19.55 Q16.05 -21.45 12.65 -21.45 8.15 -21.45 4.95 -18.25 1.8 -15.0 1.8 -10.5 1.8 -6.05 4.6 -3.05 7.4 0.05 11.85 0.05 14.65 0.05 17.7 -1.5 L17.6 0.0 27.65 -1.45 24.9 -31.55" fill-rule="evenodd" stroke="none"/>
    </g>
    <g id="font_______W7_o0">
      <path d="M15.8 -13.5 L15.8 -13.5 Q16.45 -11.85 16.45 -10.4 16.45 -6.85 12.35 -6.85 10.6 -6.85 9.35 -8.05 8.15 -9.35 8.15 -11.05 8.15 -13.25 9.8 -14.6 11.4 -16.0 13.7 -16.0 16.1 -16.0 18.3 -14.3 L15.8 -13.5 M25.7 -11.4 L25.7 -11.4 Q25.7 -13.8 24.75 -16.35 L21.25 -15.25 22.7 -17.2 Q18.35 -21.45 13.15 -21.45 8.45 -21.45 5.1 -18.2 1.8 -14.95 1.8 -10.3 1.8 -5.5 5.4 -2.65 8.65 0.05 13.65 0.05 18.75 0.05 22.2 -3.2 25.7 -6.4 25.7 -11.4" fill-rule="evenodd" stroke="none"/>
    </g>
    <g id="font_______W7_n0">
      <path d="M27.0 -9.05 L27.0 -9.05 Q27.0 -14.5 24.65 -17.8 21.9 -21.45 16.6 -21.45 12.6 -21.45 9.45 -18.85 L9.2 -20.75 4.35 -21.45 2.05 0.05 11.95 -1.4 10.35 -12.55 Q12.95 -15.85 15.9 -15.85 19.4 -15.85 19.4 -10.6 19.4 -6.9 16.6 -1.3 L26.2 0.0 Q27.0 -6.5 27.0 -9.05" fill-rule="evenodd" stroke="none"/>
    </g>
    <g id="font_______W7__1">
      <path d="M2.05 -32.15 L2.05 -32.15 3.65 -20.7 7.3 -20.7 8.95 -32.15 2.05 -32.15" fill-rule="evenodd" stroke="none"/>
    </g>
    <g id="font_______W7_t0">
      <path d="M18.7 -12.2 L18.7 -12.2 Q17.0 -9.35 14.9 -9.35 11.95 -9.35 11.95 -15.4 L21.65 -15.4 20.1 -22.55 12.4 -21.45 Q12.75 -24.2 13.6 -27.95 L8.95 -28.85 Q7.75 -24.65 7.1 -20.75 L0.75 -19.9 1.75 -15.4 6.55 -15.4 6.5 -12.55 Q6.5 -6.8 7.75 -4.05 9.5 0.05 14.55 0.05 19.1 0.05 23.25 -4.15 L18.7 -12.2" fill-rule="evenodd" stroke="none"/>
    </g>
    <g id="font_______W7_a0">
      <path d="M19.05 -8.85 L19.05 -8.85 18.5 -5.05 17.1 -9.0 Q14.35 -6.2 10.6 -6.2 9.95 -6.2 9.45 -6.75 9.0 -7.2 9.0 -7.85 9.0 -10.2 13.7 -10.2 15.9 -10.2 19.05 -8.85 M27.4 -6.8 L27.4 -6.8 Q27.4 -21.45 13.35 -21.45 7.15 -21.45 2.55 -18.35 L4.3 -14.35 Q8.3 -16.55 13.15 -16.55 17.85 -16.55 18.85 -13.35 15.4 -14.5 12.8 -14.5 8.6 -14.5 5.6 -12.8 1.8 -10.75 1.8 -6.95 1.8 -3.5 4.9 -1.55 7.55 0.05 11.15 0.05 13.95 0.05 17.35 -0.95 L17.0 0.15 26.7 -0.3 Q27.4 -3.45 27.4 -6.8" fill-rule="evenodd" stroke="none"/>
    </g>
    <g id="font_______W7_k0">
      <path d="M20.35 -12.2 L20.35 -12.2 26.9 -17.9 24.8 -21.8 10.85 -14.65 9.3 -31.45 4.6 -32.15 2.05 0.05 12.1 -1.4 11.35 -9.1 13.25 -6.05 15.8 -8.25 22.05 0.25 28.6 -6.95 20.35 -12.2" fill-rule="evenodd" stroke="none"/>
    </g>
    <g id="font_______W7_e0">
      <path d="M19.45 -9.9 L19.45 -9.9 Q16.75 -7.55 13.6 -7.55 10.45 -7.55 9.15 -9.9 L19.45 -9.9 M9.0 -13.4 L9.0 -13.4 Q9.7 -14.95 11.5 -15.95 13.2 -16.8 15.1 -16.8 18.05 -16.8 19.65 -14.35 L9.0 -13.4 M23.25 -9.9 L23.25 -9.9 24.3 -9.9 26.7 -12.6 Q25.85 -16.7 22.9 -19.1 19.9 -21.45 15.15 -21.45 9.65 -21.45 5.9 -18.65 1.8 -15.6 1.8 -10.4 1.8 -5.35 5.8 -2.5 9.3 0.05 14.6 0.05 22.45 0.05 27.15 -4.25 L23.25 -9.9" fill-rule="evenodd" stroke="none"/>
    </g>
    <g id="font_______W7__2">
      <path d="M2.05 -32.15 L2.05 -32.15 3.65 -20.7 7.3 -20.7 8.95 -32.15 2.05 -32.15 M11.05 -32.15 L11.05 -32.15 12.65 -20.7 16.35 -20.7 17.95 -32.15 11.05 -32.15" fill-rule="evenodd" stroke="none"/>
    </g>
    <g id="font_______W7_N0">
      <path d="M23.5 -32.15 L23.5 -32.15 24.85 -14.2 9.85 -31.5 5.1 -32.15 2.55 0.05 12.6 -1.4 10.6 -23.35 25.9 0.05 30.75 -0.65 33.55 -30.75 23.5 -32.15" fill-rule="evenodd" stroke="none"/>
    </g>
    <g id="font_______W7_f0">
      <path d="M16.3 -23.5 L16.3 -23.5 11.45 -22.7 Q11.8 -25.5 12.65 -26.6 13.65 -27.85 16.3 -27.85 L17.0 -27.85 16.25 -32.0 14.1 -32.15 Q5.9 -32.15 5.05 -21.65 L1.3 -20.95 2.15 -16.7 4.55 -16.7 Q4.1 -5.65 4.1 -0.95 L13.95 0.05 Q11.85 -9.65 11.45 -16.65 L17.3 -16.6 16.3 -23.5" fill-rule="evenodd" stroke="none"/>
    </g>
    <g id="font_______W7_r0">
      <path d="M18.3 -20.6 L18.3 -20.6 Q16.55 -21.45 14.75 -21.45 11.5 -21.45 8.7 -18.65 L8.45 -20.75 4.45 -21.45 2.55 0.05 10.65 -1.4 9.3 -12.8 Q10.55 -14.85 12.3 -14.85 13.25 -14.85 14.55 -13.85 L16.55 -12.05 18.3 -20.6" fill-rule="evenodd" stroke="none"/>
    </g>
    <g id="font_______W7_s0">
      <path d="M25.05 -6.35 L25.05 -6.35 Q25.05 -12.25 15.35 -13.65 8.7 -14.6 8.7 -15.7 8.7 -17.05 12.35 -17.05 17.1 -17.05 22.25 -14.8 L23.8 -18.2 Q19.05 -21.45 12.25 -21.45 8.55 -21.45 6.05 -20.35 2.6 -18.85 2.6 -15.7 2.6 -13.1 4.75 -11.8 6.5 -10.75 10.95 -10.05 L16.3 -8.95 Q17.8 -8.4 17.8 -7.5 17.8 -6.2 15.25 -6.2 12.3 -6.2 9.1 -7.45 5.9 -8.7 3.8 -10.65 L1.0 -2.6 Q6.45 0.05 14.3 0.05 25.05 0.05 25.05 -6.35" fill-rule="evenodd" stroke="none"/>
    </g>
    <g id="font_______W7_w0">
      <path d="M23.1 -21.4 L23.1 -21.4 20.35 -10.05 16.6 -20.6 13.9 -21.45 9.35 -10.05 4.1 -21.35 0.5 -19.7 8.35 0.05 11.1 -0.5 14.9 -12.4 19.2 0.05 22.05 -0.55 31.2 -17.75 23.1 -21.4" fill-rule="evenodd" stroke="none"/>
    </g>
    <g id="font_______W7_.0">
      <path d="M11.9 -7.35 L11.9 -7.35 4.9 -8.2 3.1 1.2 13.5 0.0 11.9 -7.35" fill-rule="evenodd" stroke="none"/>
    </g>
  </defs>
</svg>
