<?xml version="1.0" encoding="UTF-8" standalone="no"?>
<svg xmlns:xlink="http://www.w3.org/1999/xlink" height="323.05px" width="595.1px" xmlns="http://www.w3.org/2000/svg">
  <g transform="matrix(1.0, 0.0, 0.0, 1.0, 68.25, 14.45)">
    <use height="255.15" transform="matrix(0.5312, 0.0, 0.0, 0.5312, 72.4563, 13.3032)" width="317.35" xlink:href="#shape0"/>
    <use height="62.9" transform="matrix(0.7092, 0.0, 0.0, 0.7092, 135.1064, 77.3)" width="60.15" xlink:href="#shape1"/>
    <use height="265.8" transform="matrix(0.5539, 0.0, 0.0, 0.5539, 265.7277, -0.0223)" width="333.75" xlink:href="#shape2"/>
    <use height="59.15" transform="matrix(0.7092, 0.0, 0.0, 0.7092, 335.9355, 71.25)" width="57.15" xlink:href="#shape3"/>
    <use height="250.45" transform="matrix(0.5869, 0.0, 0.0, 0.5869, 132.7, 130.55)" width="285.45" xlink:href="#shape4"/>
    <use height="57.2" transform="matrix(0.7092, 0.0, 0.0, 0.7092, 195.9273, 212.2209)" width="56.95" xlink:href="#shape5"/>
    <use height="245.1" transform="matrix(0.5673, 0.0, 0.0, 0.5673, 316.8, 126.05)" width="264.55" xlink:href="#shape6"/>
    <use height="57.25" transform="matrix(0.7092, 0.0, 0.0, 0.7092, 370.2709, 205.75)" width="57.1" xlink:href="#shape7"/>
    <use height="21.65" transform="matrix(0.7092, 0.0, 0.0, 0.7092, 4.7638, 76.1205)" width="94.45" xlink:href="#text0"/>
    <use height="18.95" transform="matrix(0.7092, 0.0, 0.0, 0.7092, 201.3138, -3.3795)" width="191.5" xlink:href="#text1"/>
    <use height="21.65" transform="matrix(0.7092, 0.0, 0.0, 0.7092, 157.3382, 287.2705)" width="181.7" xlink:href="#text2"/>
    <use height="18.95" transform="matrix(0.7092, 0.0, 0.0, 0.7092, 335.801, 270.2205)" width="160.35" xlink:href="#text3"/>
  </g>
  <defs>
    <g id="shape0" transform="matrix(1.0, 0.0, 0.0, 1.0, 1.4, 1.5)">
      <path d="M74.2 65.7 L73.4 66.0 72.6 65.75 74.2 65.7" fill="#9c9c9c" fill-rule="evenodd" stroke="none"/>
      <path d="M167.05 33.9 Q163.4 33.5 163.05 28.95 163.4 24.4 167.05 24.0 170.7 24.4 171.05 28.95 170.7 33.5 167.05 33.9 M146.5 28.95 Q146.15 33.5 142.5 33.9 138.85 33.5 138.5 28.95 138.85 24.4 142.5 24.0 146.15 24.4 146.5 28.95" fill="#000000" fill-rule="evenodd" stroke="none"/>
      <path d="M200.05 89.85 Q203.55 96.35 211.35 95.95 L162.45 132.95 Q175.55 107.95 189.0 83.1 192.8 76.1 196.9 69.25 L205.15 55.5 217.3 59.05 215.2 82.75 200.1 89.4 200.05 89.85 M218.05 84.35 L220.25 60.15 225.75 62.4 225.45 78.2 243.3 128.8 252.0 188.2 253.8 250.6 159.4 250.65 159.45 140.65 161.4 137.5 215.2 96.8 215.6 96.45 215.85 95.45 215.6 94.95 205.25 90.0 217.55 85.05 218.05 84.35 M228.7 63.35 L244.8 68.05 280.15 102.7 300.5 141.1 312.7 212.65 304.7 213.6 304.4 213.4 303.55 213.3 287.4 215.65 287.2 215.65 266.6 218.05 Q264.85 206.3 261.2 195.3 258.6 187.55 253.95 180.6 L246.25 128.15 246.2 127.85 228.35 77.45 228.7 63.35 M89.65 90.95 L112.15 90.75 102.8 98.65 103.4 100.3 151.6 133.7 156.45 140.7 156.4 250.65 55.85 250.65 59.25 146.15 76.3 86.1 76.05 68.35 87.75 62.85 89.0 90.5 89.65 90.95 M91.6 88.05 L90.7 61.65 102.2 57.6 151.7 130.15 106.75 98.95 117.7 90.0 117.55 88.35 117.25 87.95 Q107.6 87.3 98.0 87.65 L91.6 88.05 M69.3 70.95 L73.05 69.4 73.35 85.5 56.25 145.85 55.1 181.65 Q50.9 189.2 47.55 197.25 46.55 199.6 45.65 202.05 L43.85 206.9 42.2 211.85 40.65 216.8 32.05 216.0 32.95 216.55 31.85 216.0 2.1 213.25 2.1 175.55 24.35 122.0 69.3 70.95" fill="#591f0b" fill-rule="evenodd" stroke="none"/>
      <path d="M105.5 53.3 L105.0 54.05 103.9 53.75 104.5 53.3 105.5 53.3 M171.85 85.4 L184.3 85.7 175.5 103.35 164.7 89.85 170.35 81.15 171.85 85.4 M186.85 85.55 L186.85 85.5 186.9 85.5 186.85 85.55 M185.25 82.7 L173.9 82.7 170.25 69.5 201.2 56.45 185.25 82.7 M108.0 58.05 L141.9 70.35 134.7 86.4 121.4 80.35 105.7 57.4 108.0 58.05 M134.9 89.7 Q136.2 90.25 136.85 89.05 L140.55 80.8 148.4 90.65 137.55 104.1 124.7 85.15 134.9 89.7" fill="#d1b8a2" fill-rule="evenodd" stroke="none"/>
      <path d="M105.5 53.3 L115.7 37.5 Q110.8 29.55 114.05 20.8 115.95 15.75 120.1 12.35 126.65 7.05 135.05 7.9 L137.3 5.6 Q141.1 1.55 145.35 -1.5 L170.9 -1.5 171.4 -1.3 Q177.05 2.5 181.35 8.05 187.6 10.0 191.4 15.35 197.4 23.65 194.1 33.2 L203.75 52.4 204.85 52.25 Q212.1 54.35 219.25 56.8 L227.95 59.65 246.3 65.55 246.6 65.65 282.4 100.7 282.7 101.05 303.25 139.9 303.4 140.35 315.95 213.7 315.7 214.9 315.35 215.05 314.65 215.45 306.65 216.4 313.75 227.65 Q314.15 228.35 313.4 229.0 L286.45 252.35 285.9 252.4 Q285.4 252.25 285.05 251.95 280.1 248.35 275.45 244.4 275.1 244.15 275.15 243.75 L276.2 239.4 272.0 237.55 Q271.35 237.2 271.3 236.65 270.85 230.9 271.35 225.25 271.6 222.8 272.75 220.4 L265.0 220.8 264.4 220.35 Q263.5 217.15 262.95 213.85 260.65 200.55 255.0 188.35 L256.85 252.05 256.5 253.2 255.35 253.6 54.3 253.65 53.55 253.45 52.8 252.1 54.9 188.35 Q47.7 203.3 42.65 219.2 42.55 219.6 42.1 219.45 L39.35 219.7 Q40.55 221.9 40.9 224.25 41.7 229.7 41.55 235.25 41.55 235.9 41.05 236.25 L37.0 238.35 38.45 242.1 Q38.8 243.0 38.0 243.75 L28.8 252.0 Q27.95 252.1 27.35 251.65 L-0.95 230.85 Q-1.65 230.3 -1.2 229.45 2.0 222.95 5.5 216.6 L-0.05 216.0 -0.9 214.6 -0.9 175.25 -0.75 174.7 21.7 120.6 21.95 120.15 67.3 68.7 73.4 66.0 74.2 65.7 88.1 59.6 Q96.05 56.25 103.9 53.75 L105.0 54.05 105.5 53.3 M175.35 10.2 Q168.35 10.2 163.4 15.0 158.4 19.8 158.4 26.55 158.4 33.3 163.4 38.1 168.35 42.9 175.35 42.9 182.35 42.9 187.35 38.1 192.3 33.3 192.3 26.55 192.3 19.8 187.35 15.0 182.35 10.2 175.35 10.2 M176.75 7.2 L170.35 1.5 145.95 1.5 138.7 8.6 149.9 12.35 150.65 12.95 150.4 13.95 149.35 14.5 147.4 14.1 149.6 17.1 Q152.2 20.95 152.45 25.55 L155.45 25.55 155.8 23.4 Q156.9 17.9 160.5 13.55 L158.15 14.05 156.9 12.95 157.0 11.8 168.25 8.5 176.75 7.2 M177.25 58.4 L176.5 58.6 Q167.75 53.25 157.5 52.5 143.25 52.35 130.2 58.5 L129.7 57.3 Q130.65 56.7 131.7 56.2 137.45 53.5 143.55 51.95 152.35 49.6 161.15 50.85 170.25 52.05 177.6 57.3 L177.25 58.4 M192.4 36.6 Q191.25 38.65 189.55 40.2 182.1 47.15 172.0 45.65 L181.9 51.9 184.0 57.1 182.7 57.7 180.4 53.3 168.9 46.0 Q164.2 42.85 160.3 38.85 156.1 34.6 155.5 28.55 L152.4 28.55 152.1 30.55 151.65 32.45 150.3 36.0 Q149.15 38.65 146.9 40.45 138.0 47.65 127.8 53.3 L125.5 57.7 124.5 57.4 126.35 51.9 135.15 46.35 Q124.85 47.35 117.65 39.95 L108.0 54.85 156.0 72.3 200.85 53.35 192.4 36.6 M162.0 88.45 L169.3 77.25 167.45 70.7 155.9 75.1 144.75 71.4 141.9 77.75 151.0 89.1 162.0 88.45 M171.85 85.4 L170.35 81.15 164.7 89.85 175.5 103.35 184.3 85.7 171.85 85.4 M200.05 89.85 L200.1 89.4 215.2 82.75 217.3 59.05 205.15 55.5 196.9 69.25 Q192.8 76.1 189.0 83.1 175.55 107.95 162.45 132.95 L211.35 95.95 Q203.55 96.35 200.05 89.85 M186.85 85.55 L186.9 85.5 186.85 85.5 186.85 85.55 M185.25 82.7 L201.2 56.45 170.25 69.5 173.9 82.7 185.25 82.7 M228.7 63.35 L228.35 77.45 246.2 127.85 246.25 128.15 253.95 180.6 Q258.6 187.55 261.2 195.3 264.85 206.3 266.6 218.05 L287.2 215.65 287.4 215.65 303.55 213.3 304.4 213.4 304.7 213.6 312.7 212.65 300.5 141.1 280.15 102.7 244.8 68.05 228.7 63.35 M218.05 84.35 L217.55 85.05 205.25 90.0 215.6 94.95 215.85 95.45 215.6 96.45 215.2 96.8 161.4 137.5 159.45 140.65 159.4 250.65 253.8 250.6 252.0 188.2 243.3 128.8 225.45 78.2 225.75 62.4 220.25 60.15 218.05 84.35 M173.8 106.1 L162.2 91.45 151.1 92.1 139.35 106.7 158.25 134.3 173.8 106.1 M139.1 11.95 Q131.15 9.1 124.05 13.4 118.3 16.8 116.45 23.15 114.3 30.45 118.75 36.5 123.35 42.7 130.85 43.35 139.65 44.2 145.45 37.5 150.05 32.2 149.2 25.4 148.05 15.8 139.1 11.95 M150.8 41.3 L151.75 42.15 Q155.2 43.2 159.05 43.35 L160.0 42.25 Q160.75 42.15 161.45 42.7 162.2 43.2 162.1 44.05 L160.45 45.4 154.5 46.05 Q150.65 45.9 148.6 42.9 149.05 41.1 150.8 41.3 M108.0 58.05 L105.7 57.4 121.4 80.35 134.7 86.4 141.9 70.35 108.0 58.05 M91.6 88.05 L98.0 87.65 Q107.6 87.3 117.25 87.95 L117.55 88.35 117.7 90.0 106.75 98.95 151.7 130.15 102.2 57.6 90.7 61.65 91.6 88.05 M89.65 90.95 L89.0 90.5 87.75 62.85 76.05 68.35 76.3 86.1 59.25 146.15 55.85 250.65 156.4 250.65 156.45 140.7 151.6 133.7 103.4 100.3 102.8 98.65 112.15 90.75 89.65 90.95 M134.9 89.7 L124.7 85.15 137.55 104.1 148.4 90.65 140.55 80.8 136.85 89.05 Q136.2 90.25 134.9 89.7 M69.3 70.95 L24.35 122.0 2.1 175.55 2.1 213.25 31.85 216.0 32.95 216.55 32.05 216.0 40.65 216.8 42.2 211.85 43.85 206.9 45.65 202.05 Q46.55 199.6 47.55 197.25 50.9 189.2 55.1 181.65 L56.25 145.85 73.35 85.5 73.05 69.4 69.3 70.95 M38.85 224.9 L35.7 219.4 8.45 217.45 1.95 229.15 28.1 248.65 35.3 242.25 33.85 238.55 Q30.35 235.75 27.2 232.65 26.35 231.8 27.5 231.2 L28.3 231.15 35.25 235.85 38.7 234.25 38.85 224.9 M284.7 231.1 L285.25 231.35 286.0 233.3 279.35 239.35 278.2 243.15 285.8 249.0 310.45 227.6 303.05 216.35 276.15 220.25 273.35 226.1 274.25 235.45 277.75 236.8 284.7 231.1" fill="#1a1a1a" fill-rule="evenodd" stroke="none"/>
      <path d="M176.75 7.2 L168.25 8.5 157.0 11.8 156.9 12.95 158.15 14.05 160.5 13.55 Q156.9 17.9 155.8 23.4 L155.45 25.55 152.45 25.55 Q152.2 20.95 149.6 17.1 L147.4 14.1 149.35 14.5 150.4 13.95 150.65 12.95 149.9 12.35 138.7 8.6 145.95 1.5 170.35 1.5 176.75 7.2 M192.4 36.6 L200.85 53.35 156.0 72.3 108.0 54.85 117.65 39.95 Q124.85 47.35 135.15 46.35 L126.35 51.9 124.5 57.4 125.5 57.7 127.8 53.3 Q138.0 47.65 146.9 40.45 149.15 38.65 150.3 36.0 L151.65 32.45 152.1 30.55 152.4 28.55 155.5 28.55 Q156.1 34.6 160.3 38.85 164.2 42.85 168.9 46.0 L180.4 53.3 182.7 57.7 184.0 57.1 181.9 51.9 172.0 45.65 Q182.1 47.15 189.55 40.2 191.25 38.65 192.4 36.6 M177.25 58.4 L177.6 57.3 Q170.25 52.05 161.15 50.85 152.35 49.6 143.55 51.95 137.45 53.5 131.7 56.2 130.65 56.7 129.7 57.3 L130.2 58.5 Q143.25 52.35 157.5 52.5 167.75 53.25 176.5 58.6 L177.25 58.4 M150.8 41.3 Q149.05 41.1 148.6 42.9 150.65 45.9 154.5 46.05 L160.45 45.4 162.1 44.05 Q162.2 43.2 161.45 42.7 160.75 42.15 160.0 42.25 L159.05 43.35 Q155.2 43.2 151.75 42.15 L150.8 41.3 M38.85 224.9 L38.7 234.25 35.25 235.85 28.3 231.15 27.5 231.2 Q26.35 231.8 27.2 232.65 30.35 235.75 33.85 238.55 L35.3 242.25 28.1 248.65 1.95 229.15 8.45 217.45 35.7 219.4 38.85 224.9 M284.7 231.1 L277.75 236.8 274.25 235.45 273.35 226.1 276.15 220.25 303.05 216.35 310.45 227.6 285.8 249.0 278.2 243.15 279.35 239.35 286.0 233.3 285.25 231.35 284.7 231.1" fill="#e6c6b0" fill-rule="evenodd" stroke="none"/>
      <path d="M175.35 10.2 Q182.35 10.2 187.35 15.0 192.3 19.8 192.3 26.55 192.3 33.3 187.35 38.1 182.35 42.9 175.35 42.9 168.35 42.9 163.4 38.1 158.4 33.3 158.4 26.55 158.4 19.8 163.4 15.0 168.35 10.2 175.35 10.2 M167.05 33.9 Q170.7 33.5 171.05 28.95 170.7 24.4 167.05 24.0 163.4 24.4 163.05 28.95 163.4 33.5 167.05 33.9 M139.1 11.95 Q148.05 15.8 149.2 25.4 150.05 32.2 145.45 37.5 139.65 44.2 130.85 43.35 123.35 42.7 118.75 36.5 114.3 30.45 116.45 23.15 118.3 16.8 124.05 13.4 131.15 9.1 139.1 11.95 M146.5 28.95 Q146.15 24.4 142.5 24.0 138.85 24.4 138.5 28.95 138.85 33.5 142.5 33.9 146.15 33.5 146.5 28.95" fill="#cfecef" fill-rule="evenodd" stroke="none"/>
      <path d="M162.0 88.45 L151.0 89.1 141.9 77.75 144.75 71.4 155.9 75.1 167.45 70.7 169.3 77.25 162.0 88.45 M173.8 106.1 L158.25 134.3 139.35 106.7 151.1 92.1 162.2 91.45 173.8 106.1" fill="#331c1a" fill-rule="evenodd" stroke="none"/>
    </g>
    <g id="shape1" transform="matrix(1.0, 0.0, 0.0, 1.0, -0.15, 0.0)">
      <path d="M41.2 3.95 L41.15 4.0 41.3 4.0 44.35 3.65 45.1 3.6 49.85 3.3 50.1 7.7 50.1 10.1 49.75 10.45 47.5 10.8 45.55 11.05 44.6 11.15 36.4 11.95 33.15 17.35 Q38.35 28.65 45.4 38.9 L48.7 43.9 40.45 52.5 40.25 52.7 38.35 54.95 36.45 57.35 35.6 58.4 34.3 60.1 33.5 61.15 32.05 62.9 Q30.6 62.8 29.95 61.3 L29.3 60.4 28.2 58.8 27.65 57.95 26.25 56.0 25.6 55.0 Q21.25 48.5 15.35 43.2 L15.05 42.65 Q23.8 32.45 27.0 19.2 L27.55 17.35 24.35 12.1 15.95 11.2 14.75 11.05 12.8 10.8 11.4 10.55 Q10.85 10.45 10.8 10.0 L10.75 9.2 10.75 7.2 11.0 3.3 16.05 3.65 18.8 3.95 19.5 4.05 19.3 3.75 Q18.95 3.3 19.25 2.85 L19.5 2.5 23.6 2.4 36.5 2.4 41.35 2.85 41.2 3.95 M44.4 6.85 L42.0 9.25 42.85 9.45 Q44.45 9.3 44.6 7.7 L44.4 6.85 M41.3 8.5 L43.65 6.15 Q41.6 5.6 41.25 7.7 41.2 8.1 41.3 8.5 M41.15 9.85 Q40.25 9.15 40.1 7.7 40.25 6.15 41.3 5.45 L40.2 5.55 37.4 10.25 40.5 9.9 41.15 9.85 M43.9 5.2 Q45.4 5.8 45.6 7.7 L45.1 9.3 48.1 8.9 48.65 4.7 43.9 5.2 M41.95 38.2 L43.25 38.85 41.9 36.6 37.6 29.35 29.4 25.7 26.75 24.55 25.0 29.65 28.0 31.2 41.95 38.2 M41.95 42.6 Q41.05 43.25 41.3 44.35 L43.8 42.35 Q42.85 41.85 41.95 42.6 M44.15 45.15 L44.4 44.85 44.65 43.4 42.15 45.4 Q43.1 45.85 44.15 45.15 M39.1 48.25 L41.25 49.2 43.65 46.5 42.95 46.6 Q41.5 46.45 40.65 45.3 L40.2 43.85 40.4 42.95 26.4 36.65 22.6 35.0 19.65 39.65 20.85 40.15 22.1 39.8 23.45 40.4 25.05 42.0 39.1 48.25 M34.8 9.0 L35.5 9.6 38.0 5.3 36.5 4.05 35.25 4.1 29.2 4.25 34.8 9.0 M25.45 6.7 L22.5 4.4 22.0 4.4 Q24.5 8.6 27.15 12.45 28.0 13.7 29.3 14.6 L31.5 16.2 33.45 12.95 25.45 6.7 M20.7 6.0 L19.85 6.0 Q20.7 7.2 20.4 8.55 20.15 9.6 19.2 10.1 L23.4 10.5 20.7 6.0 M29.35 18.0 L28.25 20.0 29.85 20.75 34.35 22.7 32.2 18.0 29.35 18.0 M19.5 7.75 Q19.35 6.15 17.75 6.0 L16.95 6.25 19.3 8.6 19.5 7.75 M16.0 7.75 Q16.15 9.35 17.75 9.5 L18.6 9.3 16.25 6.95 Q16.05 7.25 16.0 7.75 M12.25 9.2 L15.8 9.7 Q14.6 8.25 15.3 6.7 L15.75 5.9 12.7 5.45 12.25 9.2 M23.25 41.2 L22.1 40.8 21.3 41.05 23.8 43.05 Q24.05 42.3 23.25 41.2 M20.35 42.55 Q20.5 44.15 22.1 44.3 L22.95 44.1 20.6 41.75 20.35 42.55 M25.05 47.75 L21.05 46.6 25.7 52.6 27.0 54.4 32.65 56.5 34.75 57.05 37.9 53.1 36.05 52.1 25.05 47.75" fill="#441c0c" fill-rule="evenodd" stroke="none"/>
      <path d="M41.3 4.0 L41.2 3.95 41.35 2.85 36.5 2.4 30.15 1.6 23.6 2.4 19.5 2.5 19.25 2.85 Q18.95 3.3 19.3 3.75 L18.8 3.95 16.05 3.65 Q20.25 1.5 25.0 0.6 L26.25 0.4 30.15 0.1 Q38.05 0.3 44.35 3.65 L41.3 4.0 M10.75 7.2 L10.75 9.2 9.9 10.0 Q1.8 18.1 1.5 30.25 1.8 42.4 9.9 50.5 17.35 57.95 28.2 58.8 L29.3 60.4 Q17.05 59.8 8.85 51.55 4.25 46.95 2.05 41.15 -2.2 29.0 3.1 17.3 5.8 11.45 10.75 7.2 M12.8 10.8 L14.75 11.05 Q8.85 15.8 6.5 23.15 3.4 33.0 8.5 42.1 13.6 51.25 23.55 53.95 L25.6 55.0 26.25 56.0 Q18.9 54.95 13.3 50.15 5.4 43.3 4.45 32.95 3.25 19.85 12.8 10.8 M34.3 60.1 L35.6 58.4 Q43.05 57.15 48.8 52.25 57.85 44.45 58.45 32.4 59.05 19.5 50.1 10.1 L50.1 7.7 51.45 8.95 Q60.0 17.45 60.3 30.25 60.0 43.05 51.45 51.55 44.35 58.7 34.3 60.1 M38.35 54.95 L40.25 52.7 Q51.55 47.35 54.05 35.2 56.15 25.1 50.65 16.55 48.6 13.3 45.55 11.05 L47.5 10.8 Q50.95 13.85 53.05 17.95 58.75 29.0 54.0 40.3 49.45 51.2 38.35 54.95" fill="#4f2713" fill-rule="evenodd" stroke="none"/>
      <path d="M41.3 4.0 L41.15 4.0 41.2 3.95 41.3 4.0 M36.5 2.4 L23.6 2.4 30.15 1.6 36.5 2.4 M19.3 3.75 L19.5 4.05 18.8 3.95 19.3 3.75 M10.75 9.2 L10.8 10.0 Q1.1 19.6 2.4 33.1 3.35 42.95 10.25 49.95 17.5 57.2 27.65 57.95 L28.2 58.8 Q17.35 57.95 9.9 50.5 1.8 42.4 1.5 30.25 1.8 18.1 9.9 10.0 L10.75 9.2 M35.6 58.4 L36.45 57.35 Q44.1 55.55 49.75 49.9 57.65 42.0 57.95 30.15 57.65 18.3 49.75 10.45 L50.1 10.1 Q59.05 19.5 58.45 32.4 57.85 44.45 48.8 52.25 43.05 57.15 35.6 58.4" fill="#a89678" fill-rule="evenodd" stroke="none"/>
      <path d="M45.1 3.6 L44.35 3.65 Q38.05 0.3 30.15 0.1 L26.25 0.4 30.75 0.0 Q38.75 0.2 45.1 3.6" fill="#724a30" fill-rule="evenodd" stroke="none"/>
      <path d="M41.3 8.5 Q41.2 8.1 41.25 7.7 41.6 5.6 43.65 6.15 L41.3 8.5 M44.4 6.85 L44.6 7.7 Q44.45 9.3 42.85 9.45 L42.0 9.25 44.4 6.85 M44.15 45.15 Q43.1 45.85 42.15 45.4 L44.65 43.4 44.4 44.85 44.15 45.15 M41.95 42.6 Q42.85 41.85 43.8 42.35 L41.3 44.35 Q41.05 43.25 41.95 42.6 M16.0 7.75 Q16.05 7.25 16.25 6.95 L18.6 9.3 17.75 9.5 Q16.15 9.35 16.0 7.75 M19.5 7.75 L19.3 8.6 16.95 6.25 17.75 6.0 Q19.35 6.15 19.5 7.75 M20.35 42.55 L20.6 41.75 22.95 44.1 22.1 44.3 Q20.5 44.15 20.35 42.55 M23.25 41.2 Q24.05 42.3 23.8 43.05 L21.3 41.05 22.1 40.8 23.25 41.2" fill="#d7cdbb" fill-rule="evenodd" stroke="none"/>
      <path d="M15.95 11.2 L24.35 12.1 27.55 17.35 27.0 19.2 Q23.8 32.45 15.05 42.65 L15.35 43.2 Q21.25 48.5 25.6 55.0 L23.55 53.95 22.3 52.95 Q17.25 51.25 13.4 47.45 6.8 40.95 6.55 30.8 6.8 20.6 13.4 13.55 14.6 12.25 15.95 11.2 M40.45 52.5 L48.7 43.9 45.4 38.9 Q38.35 28.65 33.15 17.35 L36.4 11.95 44.6 11.15 Q51.75 16.65 53.55 25.4 55.55 35.3 50.0 43.55 47.2 47.8 42.95 50.65 L40.45 52.5 M46.05 37.8 L48.6 41.5 Q50.4 39.45 51.3 36.9 52.6 33.25 52.4 29.4 51.85 18.25 43.0 11.75 L41.65 12.05 Q38.8 11.65 36.35 13.2 33.8 16.5 35.55 20.15 40.0 29.5 46.05 37.8 M14.45 42.25 Q18.5 37.2 21.35 31.55 L23.75 25.95 Q25.15 22.1 25.9 17.95 26.3 15.65 24.6 14.0 22.2 12.4 19.25 12.3 15.05 14.65 12.0 18.35 10.25 20.5 9.3 23.5 6.2 33.5 11.7 42.45 14.8 47.45 19.85 49.4 L18.65 48.0 Q17.45 46.65 15.95 45.75 13.95 44.4 14.45 42.25" fill="#a99b81" fill-rule="evenodd" stroke="none"/>
      <path d="M41.15 9.85 L40.5 9.9 37.4 10.25 40.2 5.55 41.3 5.45 Q40.25 6.15 40.1 7.7 40.25 9.15 41.15 9.85 M43.9 5.2 L48.65 4.7 48.1 8.9 45.1 9.3 45.6 7.7 Q45.4 5.8 43.9 5.2 M20.7 6.0 L23.4 10.5 19.2 10.1 Q20.15 9.6 20.4 8.55 20.7 7.2 19.85 6.0 L20.7 6.0 M12.25 9.2 L12.7 5.45 15.75 5.9 15.3 6.7 Q14.6 8.25 15.8 9.7 L12.25 9.2" fill="#b5a581" fill-rule="evenodd" stroke="none"/>
      <path d="M14.75 11.05 L15.95 11.2 Q14.6 12.25 13.4 13.55 6.8 20.6 6.55 30.8 6.8 40.95 13.4 47.45 17.25 51.25 22.3 52.95 L23.55 53.95 Q13.6 51.25 8.5 42.1 3.4 33.0 6.5 23.15 8.85 15.8 14.75 11.05 M40.25 52.7 L40.45 52.5 42.95 50.65 Q47.2 47.8 50.0 43.55 55.55 35.3 53.55 25.4 51.75 16.65 44.6 11.15 L45.55 11.05 Q48.6 13.3 50.65 16.55 56.15 25.1 54.05 35.2 51.55 47.35 40.25 52.7" fill="#887c64" fill-rule="evenodd" stroke="none"/>
      <path d="M10.8 10.0 Q10.85 10.45 11.4 10.55 L12.8 10.8 Q3.25 19.85 4.45 32.95 5.4 43.3 13.3 50.15 18.9 54.95 26.25 56.0 L27.65 57.95 Q17.5 57.2 10.25 49.95 3.35 42.95 2.4 33.1 1.1 19.6 10.8 10.0 M36.45 57.35 L38.35 54.95 Q49.45 51.2 54.0 40.3 58.75 29.0 53.05 17.95 50.95 13.85 47.5 10.8 L49.75 10.45 Q57.65 18.3 57.95 30.15 57.65 42.0 49.75 49.9 44.1 55.55 36.45 57.35" fill="#f0e6ca" fill-rule="evenodd" stroke="none"/>
      <path d="M36.35 13.2 Q38.8 11.65 41.65 12.05 L43.0 11.75 Q51.85 18.25 52.4 29.4 52.6 33.25 51.3 36.9 50.4 39.45 48.6 41.5 L46.05 37.8 Q50.35 29.45 46.7 20.6 43.8 13.75 36.35 13.2 M24.6 14.0 Q16.75 16.25 12.2 23.4 8.65 29.55 11.25 36.2 12.4 39.5 14.45 42.25 13.95 44.4 15.95 45.75 17.45 46.65 18.65 48.0 L19.85 49.4 Q14.8 47.45 11.7 42.45 6.2 33.5 9.3 23.5 10.25 20.5 12.0 18.35 15.05 14.65 19.25 12.3 22.2 12.4 24.6 14.0" fill="#c4b696" fill-rule="evenodd" stroke="none"/>
      <path d="M46.05 37.8 Q40.0 29.5 35.55 20.15 33.8 16.5 36.35 13.2 43.8 13.75 46.7 20.6 50.35 29.45 46.05 37.8 M24.6 14.0 Q26.3 15.65 25.9 17.95 25.15 22.1 23.75 25.95 L21.35 31.55 Q18.5 37.2 14.45 42.25 12.4 39.5 11.25 36.2 8.65 29.55 12.2 23.4 16.75 16.25 24.6 14.0" fill="#d8ceba" fill-rule="evenodd" stroke="none"/>
      <path d="M41.9 36.6 L43.25 38.85 41.95 38.2 41.9 36.6 M28.0 31.2 L25.0 29.65 26.75 24.55 29.4 25.7 28.0 31.2 M40.65 45.3 Q41.5 46.45 42.95 46.6 L43.65 46.5 41.25 49.2 39.1 48.25 40.65 45.3 M25.05 42.0 L23.45 40.4 22.1 39.8 20.85 40.15 19.65 39.65 22.6 35.0 26.4 36.65 25.05 42.0 M35.25 4.1 L36.5 4.05 38.0 5.3 35.5 9.6 34.8 9.0 35.25 4.1 M29.3 14.6 Q28.0 13.7 27.15 12.45 24.5 8.6 22.0 4.4 L22.5 4.4 25.45 6.7 26.55 8.3 Q28.7 11.05 29.3 14.6 M29.85 20.75 L28.25 20.0 29.35 18.0 29.85 20.75 M25.7 52.6 L21.05 46.6 25.05 47.75 25.7 52.6 M36.05 52.1 L37.9 53.1 34.75 57.05 32.65 56.5 36.05 52.1" fill="#af9f81" fill-rule="evenodd" stroke="none"/>
      <path d="M41.9 36.6 L41.95 38.2 28.0 31.2 29.4 25.7 37.6 29.35 41.9 36.6 M40.65 45.3 L39.1 48.25 25.05 42.0 26.4 36.65 40.4 42.95 40.2 43.85 40.65 45.3 M35.25 4.1 L34.8 9.0 29.2 4.25 35.25 4.1 M29.3 14.6 Q28.7 11.05 26.55 8.3 L25.45 6.7 33.45 12.95 31.5 16.2 29.3 14.6 M29.85 20.75 L29.35 18.0 32.2 18.0 34.35 22.7 29.85 20.75 M25.7 52.6 L25.05 47.75 36.05 52.1 32.65 56.5 27.0 54.4 25.7 52.6" fill="#c4b898" fill-rule="evenodd" stroke="none"/>
    </g>
    <g id="shape2" transform="matrix(1.0, 0.0, 0.0, 1.0, -0.05, -0.05)">
      <path d="M269.25 198.1 L270.2 204.7 271.05 264.35 270.45 265.65 269.55 265.85 59.9 265.2 59.15 265.0 58.45 264.05 61.15 201.15 Q55.6 216.8 47.7 232.05 L44.4 231.9 Q44.75 231.95 45.05 234.9 44.55 241.25 42.65 246.85 L39.55 247.85 39.3 258.05 30.0 263.2 29.35 262.8 2.15 244.15 6.7 229.15 0.9 228.65 0.05 227.2 1.4 184.1 1.5 183.6 24.0 125.3 24.3 124.85 70.05 73.15 Q84.15 64.5 107.95 56.55 L107.95 56.6 110.4 55.15 148.85 0.7 Q149.4 0.35 150.05 0.35 167.25 0.05 184.45 0.05 L214.65 52.9 Q239.05 60.8 262.45 70.45 L295.6 102.9 323.0 149.6 323.2 150.15 333.8 225.3 333.3 226.55 327.35 227.25 331.85 242.85 304.2 261.35 295.35 256.9 294.7 246.35 291.2 244.5 290.75 243.35 Q290.0 240.75 289.7 238.2 L289.55 235.35 Q289.6 232.1 290.65 228.85 L291.45 228.0 291.85 227.85 292.0 227.5 291.85 227.15 291.45 227.0 291.4 226.9 291.55 226.35 330.6 224.1 320.3 150.9 293.35 104.9 260.6 72.8 239.2 64.15 259.55 134.05 268.5 193.4 266.4 193.5 266.2 194.05 Q266.15 194.6 266.45 195.0 267.7 196.65 269.25 198.1 M328.75 241.65 L324.25 227.35 293.6 228.75 291.45 233.55 293.75 242.8 295.95 243.35 305.95 240.3 306.3 241.85 297.55 245.95 297.55 254.6 303.95 258.15 328.75 241.65 M183.4 18.1 L183.65 17.2 Q184.3 16.65 185.0 17.2 L185.3 17.5 Q186.45 26.2 180.85 32.9 178.9 32.85 177.1 31.7 175.15 30.4 175.95 28.6 L176.35 28.4 180.1 30.6 Q184.05 25.6 183.4 18.1 M167.9 35.95 L172.15 35.55 173.1 34.25 170.85 29.05 170.9 27.95 171.9 27.55 172.1 27.75 Q175.2 31.05 174.75 35.5 L175.6 35.45 177.6 35.4 Q182.75 35.45 187.45 38.1 197.9 43.85 207.2 51.7 L207.25 52.6 Q199.15 58.45 189.2 60.8 183.2 62.3 177.2 62.75 L170.15 62.8 166.6 62.55 165.9 62.55 154.95 61.9 144.1 60.45 133.45 58.1 Q130.7 57.3 128.25 55.7 L125.1 53.45 Q123.15 53.3 123.4 51.3 L123.4 50.2 Q134.4 42.85 146.8 39.25 L157.2 37.0 159.25 36.7 Q157.55 35.3 157.55 33.0 L158.45 32.1 158.55 32.15 Q159.7 32.85 160.2 34.6 L160.6 35.0 Q164.25 36.0 167.9 35.95 M173.8 48.3 Q158.25 47.1 142.9 49.5 135.05 50.8 127.4 52.8 132.7 56.75 139.35 57.7 157.95 60.7 176.8 60.75 L186.8 59.7 Q195.65 57.7 203.35 52.9 190.55 49.7 177.55 48.65 L173.8 48.3 M169.8 37.7 Q147.25 38.8 127.45 49.7 138.2 46.8 149.05 45.75 175.4 43.3 201.25 49.35 L197.35 46.3 Q188.4 38.85 177.5 37.5 L169.8 37.7 M198.55 40.3 L206.2 44.0 182.7 2.8 150.8 3.0 113.65 56.0 Q136.35 65.85 160.55 70.9 167.2 72.3 173.55 70.35 183.45 67.4 192.85 63.5 202.3 59.5 210.95 54.0 L211.1 53.85 207.3 46.85 197.45 41.25 198.55 40.3 M190.35 93.5 L216.3 57.4 214.65 55.95 189.6 67.6 186.35 91.15 190.35 93.5 M185.95 94.35 L185.0 99.65 188.6 95.95 185.95 94.35 M173.9 87.85 L182.7 96.15 186.45 68.85 173.65 73.4 173.9 87.85 M170.7 74.2 L166.4 74.85 160.15 73.95 160.65 86.0 171.2 85.45 170.7 74.2 M231.5 61.05 L229.4 86.9 216.9 92.3 222.0 95.5 226.95 98.8 Q227.55 99.15 227.8 100.0 L227.6 100.75 142.8 165.05 137.55 260.9 137.45 261.5 137.0 261.9 136.8 262.1 Q135.8 262.45 135.15 261.85 L134.8 261.35 134.55 260.75 139.85 164.2 156.15 141.1 110.6 103.7 110.1 102.95 110.15 102.05 116.55 97.3 111.75 96.2 106.95 95.05 Q101.2 94.15 96.3 92.1 L95.45 62.85 Q88.65 66.65 81.8 70.4 L66.0 157.75 61.45 262.15 268.0 262.8 267.15 204.7 256.6 134.85 235.55 62.7 231.5 61.05 M212.25 91.35 L226.8 85.05 228.55 60.15 219.0 58.8 148.45 157.0 223.6 100.1 212.6 92.65 212.25 91.35 M175.4 114.35 L159.05 127.05 162.35 132.5 175.4 114.35 M183.9 100.75 L170.2 88.5 159.7 89.05 143.55 100.65 143.15 100.5 141.2 92.2 137.0 96.5 144.55 107.25 170.5 114.35 183.9 100.75 M147.25 18.0 L148.1 17.35 149.1 17.8 149.2 18.6 Q146.8 27.1 154.4 31.35 L154.7 32.1 153.8 33.1 Q144.6 28.35 147.25 18.0 M122.05 46.15 L131.1 39.9 131.85 40.05 132.25 40.7 132.1 41.45 122.6 47.3 122.05 46.15 M109.15 58.95 L134.75 94.5 140.7 88.4 138.2 67.95 110.2 58.2 109.15 58.95 M121.4 97.05 L114.05 102.65 157.9 138.7 160.35 135.3 105.95 59.65 98.5 63.65 99.1 90.15 120.95 95.8 121.4 97.05 M157.7 86.85 L157.1 73.2 141.35 68.85 144.75 96.35 157.7 86.85 M72.05 75.35 L26.65 126.6 4.35 184.45 3.05 225.8 46.3 228.95 61.45 192.45 63.0 157.55 78.45 72.15 72.05 75.35 M157.35 124.55 L167.55 116.65 147.4 111.15 157.35 124.55 M40.9 231.6 L9.7 229.35 5.3 243.4 30.1 259.9 36.45 256.4 36.5 247.7 27.8 243.4 28.3 241.9 29.2 241.6 38.15 245.1 40.3 244.55 42.6 235.35 40.9 231.6" fill="#1a1a1a" fill-rule="evenodd" stroke="none"/>
      <path d="M174.45 20.35 L176.2 20.2 Q175.25 21.25 175.15 23.7 175.35 27.65 177.65 28.05 179.95 27.65 180.2 23.7 180.0 20.4 178.4 19.6 L183.4 18.1 Q184.05 25.6 180.1 30.6 L176.35 28.4 175.95 28.6 175.55 28.0 Q173.75 24.45 174.45 20.35 M149.2 18.6 L152.55 19.75 Q155.1 20.65 156.3 20.25 L156.9 21.25 Q156.3 20.65 155.45 20.5 153.15 20.85 152.95 24.85 153.15 28.8 155.45 29.2 L156.35 28.9 155.7 30.85 Q155.6 31.85 154.7 32.1 L154.4 31.35 Q146.8 27.1 149.2 18.6" fill="#ffffff" fill-rule="evenodd" stroke="none"/>
      <path d="M269.25 198.1 Q267.7 196.65 266.45 195.0 266.15 194.6 266.2 194.05 L266.4 193.5 268.5 193.4 278.9 202.85 280.9 226.0 290.0 226.0 291.0 226.55 291.4 226.9 291.45 227.0 291.45 228.0 290.65 228.85 290.0 228.9 280.55 229.0 Q278.65 229.35 278.45 227.6 277.0 215.95 276.05 204.25 L269.25 198.1 M185.3 17.5 L185.0 17.2 Q184.3 16.65 183.65 17.2 L183.4 18.1 178.4 19.6 Q180.0 20.4 180.2 23.7 179.95 27.65 177.65 28.05 175.35 27.65 175.15 23.7 175.25 21.25 176.2 20.2 L174.45 20.35 Q173.35 20.25 172.85 19.75 172.9 18.15 178.2 15.3 183.5 12.4 185.45 13.45 187.8 16.3 185.3 17.5 M147.25 18.0 Q144.05 16.95 146.35 13.9 147.95 12.9 152.4 15.6 156.8 18.3 156.85 19.85 L156.3 20.25 Q155.1 20.65 152.55 19.75 L149.2 18.6 149.1 17.8 148.1 17.35 147.25 18.0 M156.9 21.25 Q157.85 22.3 158.0 24.85 157.8 27.95 156.35 28.9 L155.45 29.2 Q153.15 28.8 152.95 24.85 153.15 20.85 155.45 20.5 156.3 20.65 156.9 21.25" fill="#000000" fill-rule="evenodd" stroke="none"/>
      <path d="M169.8 37.7 L177.5 37.5 Q188.4 38.85 197.35 46.3 L201.25 49.35 Q175.4 43.3 149.05 45.75 138.2 46.8 127.45 49.7 147.25 38.8 169.8 37.7 M173.8 48.3 L177.55 48.65 Q190.55 49.7 203.35 52.9 195.65 57.7 186.8 59.7 L176.8 60.75 Q157.95 60.7 139.35 57.7 132.7 56.75 127.4 52.8 135.05 50.8 142.9 49.5 158.25 47.1 173.8 48.3" fill="#96a0ce" fill-rule="evenodd" stroke="none"/>
      <path d="M185.95 94.35 L188.6 95.95 185.0 99.65 185.95 94.35" fill="#cacfe6" fill-rule="evenodd" stroke="none"/>
      <path d="M268.5 193.4 L259.55 134.05 239.2 64.15 260.6 72.8 293.35 104.9 320.3 150.9 330.6 224.1 291.55 226.35 291.4 226.9 291.0 226.55 290.0 226.0 280.9 226.0 278.9 202.85 268.5 193.4 M175.4 114.35 L162.35 132.5 159.05 127.05 175.4 114.35 M212.25 91.35 L212.6 92.65 223.6 100.1 148.45 157.0 219.0 58.8 228.55 60.15 226.8 85.05 212.25 91.35 M231.5 61.05 L235.55 62.7 256.6 134.85 267.15 204.7 268.0 262.8 61.45 262.15 66.0 157.75 81.8 70.4 Q88.65 66.65 95.45 62.85 L96.3 92.1 Q101.2 94.15 106.95 95.05 L111.75 96.2 116.55 97.3 110.15 102.05 110.1 102.95 110.6 103.7 156.15 141.1 139.85 164.2 134.55 260.75 134.8 261.35 135.15 261.85 Q135.8 262.45 136.8 262.1 L137.0 261.9 137.45 261.5 137.55 260.9 142.8 165.05 227.6 100.75 227.8 100.0 Q227.55 99.15 226.95 98.8 L222.0 95.5 216.9 92.3 229.4 86.9 231.5 61.05 M121.4 97.05 L120.95 95.8 99.1 90.15 98.5 63.65 105.95 59.65 160.35 135.3 157.9 138.7 114.05 102.65 121.4 97.05 M157.35 124.55 L147.4 111.15 167.55 116.65 157.35 124.55 M72.05 75.35 L78.45 72.15 63.0 157.55 61.45 192.45 46.3 228.95 3.05 225.8 4.35 184.45 26.65 126.6 72.05 75.35" fill="#3a3d6a" fill-rule="evenodd" stroke="none"/>
      <path d="M291.45 227.0 L291.85 227.15 292.0 227.5 291.85 227.85 291.45 228.0 291.45 227.0" fill="#003399" fill-rule="evenodd" stroke="none"/>
      <path d="M170.7 74.2 L171.2 85.45 160.65 86.0 160.15 73.95 166.4 74.85 170.7 74.2 M173.9 87.85 L173.65 73.4 186.45 68.85 182.7 96.15 173.9 87.85 M157.7 86.85 L144.75 96.35 141.35 68.85 157.1 73.2 157.7 86.85" fill="#8b3425" fill-rule="evenodd" stroke="none"/>
      <path d="M328.75 241.65 L303.95 258.15 297.55 254.6 297.55 245.95 306.3 241.85 305.95 240.3 295.95 243.35 293.75 242.8 291.45 233.55 293.6 228.75 324.25 227.35 328.75 241.65 M185.3 17.5 Q187.8 16.3 185.45 13.45 183.5 12.4 178.2 15.3 172.9 18.15 172.85 19.75 173.35 20.25 174.45 20.35 173.75 24.45 175.55 28.0 L175.95 28.6 Q175.15 30.4 177.1 31.7 178.9 32.85 180.85 32.9 186.45 26.2 185.3 17.5 M144.1 60.45 L154.95 61.9 165.9 62.55 166.6 62.55 170.15 62.8 177.2 62.75 Q183.2 62.3 189.2 60.8 199.15 58.45 207.25 52.6 L207.2 51.7 Q197.9 43.85 187.45 38.1 182.75 35.45 177.6 35.4 L175.6 35.45 174.75 35.5 Q175.2 31.05 172.1 27.75 L171.9 27.55 170.9 27.95 170.85 29.05 173.1 34.25 172.15 35.55 167.9 35.95 160.85 35.0 160.4 34.6 Q159.9 32.8 158.6 32.1 L158.55 32.15 158.45 32.1 157.55 33.0 Q157.55 35.3 159.25 36.7 L157.2 37.0 146.8 39.25 Q134.4 42.85 123.4 50.2 L123.4 51.3 Q123.15 53.3 125.1 53.45 L128.25 55.7 Q130.7 57.3 133.45 58.1 L133.4 58.35 144.1 60.45 M198.55 40.3 L197.45 41.25 207.3 46.85 211.1 53.85 210.95 54.0 Q202.3 59.5 192.85 63.5 183.45 67.4 173.55 70.35 167.2 72.3 160.55 70.9 136.35 65.85 113.65 56.0 L150.8 3.0 182.7 2.8 206.2 44.0 198.55 40.3 M156.3 20.25 L156.85 19.85 Q156.8 18.3 152.4 15.6 147.95 12.9 146.35 13.9 144.05 16.95 147.25 18.0 144.6 28.35 153.8 33.1 L154.7 32.1 Q155.6 31.85 155.7 30.85 L156.35 28.9 Q157.8 27.95 158.0 24.85 157.85 22.3 156.9 21.25 L156.3 20.25 M122.05 46.15 L122.6 47.3 132.1 41.45 132.25 40.7 131.85 40.05 131.1 39.9 122.05 46.15 M40.9 231.6 L42.6 235.35 40.3 244.55 38.15 245.1 29.2 241.6 28.3 241.9 27.8 243.4 36.5 247.7 36.45 256.4 30.1 259.9 5.3 243.4 9.7 229.35 40.9 231.6" fill="#c2c6de" fill-rule="evenodd" stroke="none"/>
      <path d="M190.35 93.5 L186.35 91.15 189.6 67.6 214.65 55.95 216.3 57.4 190.35 93.5 M183.9 100.75 L170.5 114.35 144.55 107.25 137.0 96.5 141.2 92.2 143.15 100.5 143.55 100.65 159.7 89.05 170.2 88.5 183.9 100.75 M109.15 58.95 L110.2 58.2 138.2 67.95 140.7 88.4 134.75 94.5 109.15 58.95" fill="#d7dcec" fill-rule="evenodd" stroke="none"/>
    </g>
    <g id="shape3" transform="matrix(1.0, 0.0, 0.0, 1.0, -0.05, 0.0)">
      <path d="M40.95 2.45 L41.9 2.8 Q42.4 1.4 44.05 1.25 46.25 1.45 46.45 3.8 L46.45 6.35 48.8 8.45 Q56.9 16.5 57.2 28.65 56.85 40.75 48.8 48.85 42.05 55.65 32.45 56.95 L32.05 57.95 Q31.35 59.0 29.8 59.15 28.3 59.0 27.6 58.05 L27.2 57.2 Q16.0 56.45 8.4 48.85 3.45 43.9 1.4 37.45 -0.45 31.7 0.25 25.75 1.75 13.25 11.8 5.55 L12.4 3.05 Q13.25 0.65 15.6 1.55 16.3 1.85 16.4 2.8 L17.0 2.55 Q21.85 0.45 27.2 0.1 33.95 0.0 40.1 2.5 L40.95 2.45 M40.75 9.5 L41.65 9.15 41.65 3.8 40.95 3.4 Q39.9 3.3 39.45 4.1 L39.5 20.75 40.05 21.3 41.6 21.05 41.65 14.2 41.0 13.95 Q39.6 13.25 39.65 11.65 39.65 10.3 40.75 9.5 M43.6 13.8 L42.65 14.2 Q42.3 22.35 43.9 21.75 L44.95 21.3 44.95 2.65 Q44.35 2.05 43.6 2.4 42.9 2.55 42.75 3.3 L42.65 9.15 43.55 9.5 Q44.2 9.85 44.5 10.65 L44.55 12.55 Q44.25 13.35 43.6 13.8 M42.85 10.1 L41.65 10.1 43.85 12.05 42.85 10.1 M40.75 10.9 L40.5 11.65 Q40.7 13.2 42.15 13.3 L42.65 13.2 40.75 10.9 M33.35 54.6 L33.1 55.4 Q42.4 53.9 48.75 46.85 56.75 37.95 55.55 25.9 54.45 15.35 46.45 8.2 L46.45 9.2 46.45 11.55 Q53.05 18.45 53.3 28.6 53.05 39.1 46.05 46.1 40.85 51.3 33.75 52.75 L33.35 54.6 M34.15 50.65 L34.05 51.35 Q40.4 49.85 45.1 45.15 51.7 38.55 51.95 28.6 51.75 19.75 46.45 13.6 L46.45 14.6 Q46.75 17.8 46.0 20.7 45.25 23.6 42.2 21.75 L41.45 22.0 Q39.2 22.8 38.3 20.55 L33.3 21.2 33.3 23.05 33.95 23.4 Q35.1 23.95 34.9 25.15 L34.35 26.45 32.4 27.25 32.4 29.2 33.85 30.25 33.95 31.8 32.3 32.9 Q34.1 41.75 34.15 50.65 M38.25 4.0 L38.65 3.4 Q29.1 -0.05 19.35 3.1 L19.75 3.6 20.0 4.15 Q29.1 3.05 38.25 4.0 M25.35 51.1 L25.1 48.35 Q25.25 40.65 27.35 32.9 26.65 32.65 26.2 32.25 24.7 30.8 26.4 29.55 L26.9 29.2 26.9 27.25 Q25.3 27.3 24.75 25.95 L24.5 24.95 Q24.55 24.05 25.5 23.4 L26.0 23.05 26.0 21.35 19.95 20.65 Q19.2 22.95 16.85 21.95 L16.1 21.7 Q15.1 23.2 13.3 22.4 12.1 22.0 12.05 20.75 L11.8 13.3 11.8 12.35 Q5.45 18.9 5.2 28.6 5.45 38.55 12.05 45.15 17.6 50.7 25.5 51.75 L25.35 51.1 M16.8 15.6 L16.5 20.75 17.35 21.35 Q18.95 21.55 19.0 19.95 19.1 12.15 18.85 4.35 L18.65 3.7 17.7 3.35 16.6 3.85 16.95 9.95 Q17.9 10.35 18.3 11.4 L18.35 13.15 16.85 14.9 16.8 15.6 M38.2 19.4 L38.2 5.0 Q29.6 4.0 20.9 5.1 L20.0 5.2 20.1 19.4 Q29.1 21.65 38.2 19.4 M33.5 24.4 Q33.3 23.9 32.85 23.9 L27.1 23.4 Q24.95 24.0 26.25 25.85 L26.9 26.45 32.3 26.4 Q33.3 26.4 33.55 25.55 33.7 24.95 33.5 24.4 M27.15 21.35 L27.15 22.95 32.0 22.95 32.0 21.35 27.15 21.35 M15.1 9.8 L15.65 9.7 15.35 3.25 14.95 2.65 14.2 2.25 Q12.95 2.6 12.95 4.0 L13.1 20.6 Q13.1 21.5 14.2 21.7 15.6 21.55 15.55 20.15 L15.3 15.05 Q13.7 14.6 13.35 13.25 L13.3 11.85 Q13.6 10.25 15.1 9.8 M26.35 54.95 L25.85 53.15 Q17.2 52.25 11.1 46.1 3.0 37.75 4.15 26.1 5.05 16.85 11.8 10.5 L11.8 8.1 11.8 7.3 Q2.9 14.65 1.7 25.95 0.55 37.1 7.7 45.9 15.0 54.85 26.6 55.7 L26.35 54.95 M17.25 11.6 L16.6 10.8 15.15 10.8 17.3 13.05 17.25 11.6 M14.45 11.5 L14.2 12.25 Q14.3 13.7 15.85 13.9 L16.6 13.7 14.45 11.5 M27.3 30.4 L26.75 31.15 27.3 32.2 32.6 31.95 32.8 30.9 32.4 30.15 31.05 30.2 27.3 30.4 M31.25 29.1 L31.25 27.25 28.2 27.25 28.3 29.1 31.25 29.1 M32.6 42.15 Q32.15 37.5 31.2 32.9 L28.45 32.9 27.2 39.55 Q26.25 45.2 26.95 51.0 L27.15 52.3 27.15 52.25 Q27.35 49.85 29.75 49.65 31.9 49.85 32.3 51.85 33.05 47.05 32.6 42.15 M30.7 58.1 L32.0 53.55 Q31.35 54.95 29.75 54.85 27.85 54.65 27.35 53.05 L28.65 57.7 30.7 58.1 M29.0 53.7 L29.75 53.95 Q31.9 53.5 31.2 51.5 L29.0 53.7 M29.75 50.6 Q28.25 50.75 28.1 52.25 L28.35 53.05 30.55 50.85 29.75 50.6" fill="#212753" fill-rule="evenodd" stroke="none"/>
      <path d="M40.95 2.45 L40.1 2.5 Q33.95 0.0 27.2 0.1 L29.2 0.0 Q35.6 0.15 40.95 2.45 M46.45 9.2 L46.45 8.2 Q54.45 15.35 55.55 25.9 56.75 37.95 48.75 46.85 42.4 53.9 33.1 55.4 L33.35 54.6 Q44.1 52.5 50.45 43.3 55.05 36.65 54.95 28.6 54.75 17.0 46.45 9.2 M46.45 14.6 L46.45 13.6 Q51.75 19.75 51.95 28.6 51.7 38.55 45.1 45.15 40.4 49.85 34.05 51.35 L34.15 50.65 Q40.2 49.15 44.65 44.7 51.05 38.3 51.3 28.65 51.15 20.45 46.45 14.6 M19.75 3.6 L19.35 3.1 Q29.1 -0.05 38.65 3.4 L38.25 4.0 Q33.8 2.25 28.5 2.1 23.8 2.25 19.75 3.6 M25.35 51.1 L25.5 51.75 Q17.6 50.7 12.05 45.15 5.45 38.55 5.2 28.6 5.45 18.9 11.8 12.35 L11.8 13.3 Q6.1 19.55 5.85 28.65 6.1 38.3 12.5 44.7 17.85 50.0 25.35 51.1 M26.35 54.95 L26.6 55.7 Q15.0 54.85 7.7 45.9 0.55 37.1 1.7 25.95 2.9 14.65 11.8 7.3 L11.8 8.1 Q3.55 15.15 2.3 25.9 1.25 35.3 6.7 43.25 13.85 53.8 26.35 54.95" fill="#514f6f" fill-rule="evenodd" stroke="none"/>
      <path d="M41.0 13.95 L41.65 14.2 41.6 21.05 40.05 21.3 39.5 20.75 39.45 4.1 Q39.9 3.3 40.95 3.4 L41.65 3.8 41.65 9.15 40.75 9.5 40.4 4.85 Q39.7 5.45 39.65 6.45 39.35 12.5 39.85 18.55 39.95 19.55 40.65 19.75 41.55 19.1 41.5 17.7 L41.0 13.95 M43.55 9.5 L42.65 9.15 42.75 3.3 Q42.9 2.55 43.6 2.4 44.35 2.05 44.95 2.65 L44.95 21.3 43.9 21.75 Q42.3 22.35 42.65 14.2 L43.6 13.8 44.0 20.3 44.55 12.55 44.5 10.65 44.25 4.4 43.55 4.3 43.55 9.5 M36.15 9.6 Q34.9 7.5 32.4 7.85 29.75 8.15 27.1 7.8 24.95 7.25 23.1 8.3 20.7 10.35 22.5 12.35 24.25 14.4 26.55 15.0 L31.75 15.4 Q34.7 15.25 36.3 13.5 37.3 11.55 36.15 9.6 M27.5 24.1 L27.45 24.1 Q26.9 24.25 26.9 24.5 26.85 24.85 27.9 25.35 L30.85 25.25 Q31.6 24.85 31.6 24.5 31.5 24.1 30.4 23.85 L27.5 24.1 M27.15 21.35 L32.0 21.35 32.0 22.95 27.15 22.95 27.15 21.35 M33.5 24.4 Q33.7 24.95 33.55 25.55 33.3 26.4 32.3 26.4 L26.9 26.45 26.25 25.85 Q24.95 24.0 27.1 23.4 L32.85 23.9 Q33.3 23.9 33.5 24.4 M38.2 19.4 Q29.1 21.65 20.1 19.4 L20.0 5.2 20.9 5.1 Q29.6 4.0 38.2 5.0 L38.2 19.4 M16.95 9.95 L16.6 3.85 17.7 3.35 18.65 3.7 18.85 4.35 Q19.1 12.15 19.0 19.95 18.95 21.55 17.35 21.35 L16.5 20.75 16.8 15.6 17.85 19.6 18.35 13.15 18.3 11.4 17.45 5.4 16.95 9.95 M15.3 15.05 L15.55 20.15 Q15.6 21.55 14.2 21.7 13.1 21.5 13.1 20.6 L12.95 4.0 Q12.95 2.6 14.2 2.25 L14.95 2.65 15.35 3.25 15.65 9.7 15.1 9.8 14.3 3.55 13.4 4.2 13.3 11.85 13.35 13.25 14.15 20.3 14.85 20.25 15.3 15.05 M31.05 30.2 L32.4 30.15 32.8 30.9 32.6 31.95 27.3 32.2 26.75 31.15 27.3 30.4 27.4 31.15 31.25 31.35 31.5 30.7 31.05 30.2 M31.25 29.1 L28.3 29.1 28.2 27.25 31.25 27.25 31.25 29.1 M27.9 48.35 Q29.05 49.75 30.55 48.65 32.0 47.2 31.6 44.95 31.65 41.3 30.8 37.75 30.7 36.45 29.75 35.6 28.7 35.65 28.3 38.1 27.95 40.5 27.95 41.5 26.8 45.1 27.9 48.35 M32.6 42.15 Q33.05 47.05 32.3 51.85 31.9 49.85 29.75 49.65 27.35 49.85 27.15 52.25 L27.15 52.3 26.95 51.0 Q26.25 45.2 27.2 39.55 L28.45 32.9 31.2 32.9 Q32.15 37.5 32.6 42.15 M30.7 58.1 L28.65 57.7 27.35 53.05 Q27.85 54.65 29.75 54.85 31.35 54.95 32.0 53.55 L30.7 58.1 M29.1 55.9 Q28.65 57.55 30.25 57.4 31.35 56.6 30.65 55.85 L29.1 55.9" fill="#69839d" fill-rule="evenodd" stroke="none"/>
      <path d="M40.75 9.5 Q39.65 10.3 39.65 11.65 39.6 13.25 41.0 13.95 L41.5 17.7 Q41.55 19.1 40.65 19.75 39.95 19.55 39.85 18.55 39.35 12.5 39.65 6.45 39.7 5.45 40.4 4.85 L40.75 9.5 M43.55 9.5 L43.55 4.3 44.25 4.4 44.5 10.65 Q44.2 9.85 43.55 9.5 M44.55 12.55 L44.0 20.3 43.6 13.8 Q44.25 13.35 44.55 12.55 M34.2 11.4 L33.9 10.25 26.9 9.5 Q25.3 9.3 24.4 10.6 24.5 12.95 27.0 13.65 31.6 14.85 34.2 11.4 M36.15 9.6 Q37.3 11.55 36.3 13.5 34.7 15.25 31.75 15.4 L26.55 15.0 Q24.25 14.4 22.5 12.35 20.7 10.35 23.1 8.3 24.95 7.25 27.1 7.8 29.75 8.15 32.4 7.85 34.9 7.5 36.15 9.6 M27.5 24.1 L30.4 23.85 Q31.5 24.1 31.6 24.5 31.6 24.85 30.85 25.25 L27.9 25.35 Q26.85 24.85 26.9 24.5 26.9 24.25 27.45 24.1 L27.5 24.1 M16.8 15.6 L16.85 14.9 18.35 13.15 17.85 19.6 16.8 15.6 M18.3 11.4 Q17.9 10.35 16.95 9.95 L17.45 5.4 18.3 11.4 M15.3 15.05 L14.85 20.25 14.15 20.3 13.35 13.25 Q13.7 14.6 15.3 15.05 M13.3 11.85 L13.4 4.2 14.3 3.55 15.1 9.8 Q13.6 10.25 13.3 11.85 M27.3 30.4 L31.05 30.2 31.5 30.7 31.25 31.35 27.4 31.15 27.3 30.4 M27.9 48.35 Q26.8 45.1 27.95 41.5 27.95 40.5 28.3 38.1 28.7 35.65 29.75 35.6 30.7 36.45 30.8 37.75 31.65 41.3 31.6 44.95 32.0 47.2 30.55 48.65 29.05 49.75 27.9 48.35 M29.1 55.9 L30.65 55.85 Q31.35 56.6 30.25 57.4 28.65 57.55 29.1 55.9" fill="#899db1" fill-rule="evenodd" stroke="none"/>
      <path d="M40.75 10.9 L42.65 13.2 42.15 13.3 Q40.7 13.2 40.5 11.65 L40.75 10.9 M42.85 10.1 L43.85 12.05 41.65 10.1 42.85 10.1 M14.45 11.5 L16.6 13.7 15.85 13.9 Q14.3 13.7 14.2 12.25 L14.45 11.5 M17.25 11.6 L17.3 13.05 15.15 10.8 16.6 10.8 17.25 11.6 M29.75 50.6 L30.55 50.85 28.35 53.05 28.1 52.25 Q28.25 50.75 29.75 50.6 M29.0 53.7 L31.2 51.5 Q31.9 53.5 29.75 53.95 L29.0 53.7" fill="#a1b1c1" fill-rule="evenodd" stroke="none"/>
      <path d="M33.35 54.6 L33.75 52.75 Q40.85 51.3 46.05 46.1 53.05 39.1 53.3 28.6 53.05 18.45 46.45 11.55 L46.45 9.2 Q54.75 17.0 54.95 28.6 55.05 36.65 50.45 43.3 44.1 52.5 33.35 54.6 M45.35 22.9 Q47.1 21.7 46.9 19.6 L46.55 17.25 Q49.55 22.9 49.55 29.45 49.05 40.8 38.0 44.45 L34.9 45.55 34.8 45.15 34.35 43.45 Q38.75 41.7 42.1 38.05 45.75 33.5 45.85 27.7 45.85 25.2 45.35 22.9 M38.25 4.0 Q29.1 3.05 20.0 4.15 L19.75 3.6 Q23.8 2.25 28.5 2.1 33.8 2.25 38.25 4.0 M24.25 45.1 Q24.15 46.55 24.3 47.8 17.65 47.8 13.35 43.15 8.2 37.55 7.7 29.6 7.2 22.7 11.3 17.35 L11.35 17.65 Q11.15 19.95 11.85 21.75 7.8 29.5 12.4 37.1 16.5 43.85 24.25 45.1 M11.8 8.1 L11.8 10.5 Q5.05 16.85 4.15 26.1 3.0 37.75 11.1 46.1 17.2 52.25 25.85 53.15 L26.35 54.95 Q13.85 53.8 6.7 43.25 1.25 35.3 2.3 25.9 3.55 15.15 11.8 8.1" fill="#afc1d9" fill-rule="evenodd" stroke="none"/>
      <path d="M34.15 50.65 Q34.1 41.75 32.3 32.9 L33.95 31.8 34.35 43.45 34.8 45.15 34.9 45.55 38.0 44.45 Q49.05 40.8 49.55 29.45 49.55 22.9 46.55 17.25 L46.9 19.6 Q47.1 21.7 45.35 22.9 L35.9 22.55 34.9 25.15 Q35.1 23.95 33.95 23.4 L33.3 23.05 33.3 21.2 38.3 20.55 Q39.2 22.8 41.45 22.0 L42.2 21.75 Q45.25 23.6 46.0 20.7 46.75 17.8 46.45 14.6 51.15 20.45 51.3 28.65 51.05 38.3 44.65 44.7 40.2 49.15 34.15 50.65 M33.85 30.25 L32.4 29.2 32.4 27.25 34.35 26.45 33.6 28.35 33.85 30.25 M24.25 45.1 L24.95 39.9 Q25.7 35.8 24.45 31.95 L25.5 28.35 23.3 25.55 24.45 22.3 Q22.8 22.45 21.25 23.1 17.0 25.0 12.6 23.2 L11.85 21.75 Q11.15 19.95 11.35 17.65 L11.3 17.35 Q7.2 22.7 7.7 29.6 8.2 37.55 13.35 43.15 17.65 47.8 24.3 47.8 24.15 46.55 24.25 45.1 M11.8 13.3 L12.05 20.75 Q12.1 22.0 13.3 22.4 15.1 23.2 16.1 21.7 L16.85 21.95 Q19.2 22.95 19.95 20.65 L26.0 21.35 26.0 23.05 25.5 23.4 Q24.55 24.05 24.5 24.95 L24.75 25.95 Q25.3 27.3 26.9 27.25 L26.9 29.2 26.4 29.55 Q24.7 30.8 26.2 32.25 26.65 32.65 27.35 32.9 25.25 40.65 25.1 48.35 L25.35 51.1 Q17.85 50.0 12.5 44.7 6.1 38.3 5.85 28.65 6.1 19.55 11.8 13.3" fill="#9ab4cc" fill-rule="evenodd" stroke="none"/>
      <path d="M33.95 31.8 L33.85 30.25 33.6 28.35 34.35 26.45 34.9 25.15 35.9 22.55 45.35 22.9 Q45.85 25.2 45.85 27.7 45.75 33.5 42.1 38.05 38.75 41.7 34.35 43.45 L33.95 31.8 M11.85 21.75 L12.6 23.2 Q17.0 25.0 21.25 23.1 22.8 22.45 24.45 22.3 L23.3 25.55 25.5 28.35 24.45 31.95 Q25.7 35.8 24.95 39.9 L24.25 45.1 Q16.5 43.85 12.4 37.1 7.8 29.5 11.85 21.75" fill="#c5d3e3" fill-rule="evenodd" stroke="none"/>
      <path d="M34.2 11.4 Q31.6 14.85 27.0 13.65 24.5 12.95 24.4 10.6 25.3 9.3 26.9 9.5 L33.9 10.25 34.2 11.4" fill="#a1b3bf" fill-rule="evenodd" stroke="none"/>
    </g>
    <g id="shape4" transform="matrix(1.0, 0.0, 0.0, 1.0, 0.0, 0.0)">
      <path d="M170.15 17.7 Q160.6 17.85 152.25 21.95 L165.5 22.05 166.1 22.95 165.5 23.9 149.45 23.95 149.05 24.2 148.05 23.8 Q148.1 22.6 149.05 22.0 158.7 15.75 170.05 15.85 L170.7 16.7 170.15 17.7 M176.55 1.1 L176.65 1.6 183.7 70.55 185.15 71.35 185.75 71.2 211.75 78.45 212.9 76.3 228.25 81.85 254.1 111.8 276.6 149.9 276.8 150.45 281.9 187.85 281.8 188.6 282.1 189.3 285.45 214.25 284.85 215.7 276.25 216.55 285.05 226.25 285.1 226.8 270.1 246.25 269.8 246.15 264.65 244.2 253.3 240.05 Q248.25 238.3 243.5 235.95 L242.55 235.35 242.2 232.8 242.15 230.35 242.6 225.55 Q242.7 224.7 243.05 223.95 L245.55 218.95 240.85 219.25 240.5 218.65 240.2 217.95 Q236.7 205.45 232.5 193.45 L231.25 189.95 230.15 187.2 231.75 200.0 233.35 248.5 233.0 249.65 231.85 250.05 230.25 250.05 228.75 250.05 143.75 250.45 50.05 250.1 49.3 249.9 48.55 248.55 50.25 199.8 48.45 203.55 46.6 207.3 42.85 214.6 41.4 217.1 39.7 220.0 38.5 220.3 38.2 232.1 34.65 234.05 35.9 238.7 31.85 242.65 27.7 246.55 27.0 247.15 26.65 247.0 23.25 245.4 15.2 240.9 Q11.1 238.55 7.2 236.0 L1.85 232.6 6.45 217.2 1.2 216.65 0.35 215.3 0.0 186.45 0.1 185.85 20.4 135.2 20.65 134.8 61.65 86.7 66.7 84.5 71.65 82.1 Q79.8 77.95 88.35 75.1 L91.9 74.0 95.3 72.7 101.7 1.4 103.2 0.0 175.15 0.25 176.55 1.1 M174.85 13.7 L173.8 3.25 104.6 3.0 103.75 13.0 100.7 48.15 Q113.4 39.2 119.4 37.1 L126.7 34.6 126.35 33.6 Q125.65 30.95 126.7 28.5 L126.95 28.25 128.15 28.65 127.85 32.95 130.7 33.25 Q139.75 34.35 148.9 33.4 L149.15 33.2 149.35 31.9 149.25 30.6 148.75 29.25 148.6 28.9 149.4 28.15 150.85 28.8 Q151.7 29.3 152.05 30.45 152.55 31.9 151.8 33.15 L151.35 33.9 Q164.35 36.9 175.45 44.15 L175.65 44.4 171.8 42.8 Q168.2 41.15 158.85 37.35 149.5 33.55 135.4 35.8 121.7 35.15 113.25 40.95 104.75 46.7 100.45 51.1 L100.1 55.3 102.2 54.15 Q105.35 52.7 108.65 51.6 119.6 48.15 130.8 46.6 147.35 44.05 164.0 45.65 171.85 46.3 178.05 51.1 L178.7 51.6 174.85 13.7 M179.0 54.45 Q172.65 48.65 164.15 47.55 147.2 45.95 130.4 48.65 L122.15 49.9 Q110.05 51.4 99.85 57.8 L98.5 73.6 129.15 82.7 152.45 82.95 180.3 70.7 179.0 54.45 M186.55 74.45 L148.2 146.45 191.9 112.2 182.5 107.8 Q181.4 107.3 181.8 105.95 181.85 105.7 182.05 105.55 L195.4 99.8 197.3 77.7 186.55 74.45 M182.1 72.95 L181.5 73.45 154.55 85.3 158.35 99.7 168.4 99.7 183.5 73.85 182.1 72.95 M211.7 81.5 L200.25 78.5 198.25 101.35 197.95 101.65 197.35 102.1 186.8 106.55 195.35 110.6 195.8 110.85 196.05 111.25 196.2 111.7 Q196.25 112.6 195.7 113.05 L147.0 151.15 145.3 154.0 145.25 247.45 230.25 247.05 228.75 200.1 228.95 199.3 220.85 142.75 212.25 98.25 211.7 81.5 M215.2 97.8 L223.8 142.3 228.3 174.1 230.9 180.85 232.15 184.3 233.65 188.4 Q239.0 201.85 242.45 216.15 L282.3 213.1 273.9 151.2 251.7 113.6 226.25 84.1 214.7 79.85 215.2 97.8 M131.7 26.35 L131.3 26.5 129.95 25.95 129.6 26.25 114.4 25.95 113.85 25.4 114.05 24.3 127.0 24.2 Q117.2 20.4 106.8 21.2 L106.4 20.2 106.9 20.05 Q119.15 17.05 129.8 23.75 L131.9 25.05 131.7 26.35 M83.35 80.0 L83.9 104.65 107.5 105.0 107.55 106.4 107.1 107.1 105.9 107.3 105.8 108.05 97.65 115.0 137.7 143.7 93.3 76.4 83.35 80.0 M96.45 75.5 L110.8 97.45 122.7 103.1 130.0 86.1 97.45 76.45 96.45 75.5 M133.45 85.75 L129.45 95.1 137.55 105.65 147.4 105.05 153.9 94.65 151.6 85.95 133.45 85.75 M63.75 88.9 L23.1 136.55 3.0 186.7 3.35 213.9 25.65 216.0 34.45 216.4 35.05 216.6 35.5 216.95 38.15 217.2 50.5 192.65 51.65 158.9 67.15 102.4 66.85 87.55 63.75 88.9 M69.85 86.45 L70.1 103.0 54.65 159.2 51.6 247.1 142.25 247.45 142.3 154.1 138.35 147.85 94.35 116.35 94.0 115.35 Q93.9 114.8 94.2 114.4 L94.9 113.6 102.05 107.35 81.5 107.2 80.0 81.5 69.85 86.45 M159.55 118.8 L168.1 102.7 156.3 102.4 154.95 98.65 150.1 106.45 159.55 118.8 M147.55 108.1 L137.65 108.7 127.1 122.25 144.0 147.85 158.0 121.7 147.55 108.1 M135.0 107.25 L128.1 98.25 124.35 106.35 123.8 106.6 114.0 102.3 125.35 119.6 135.0 107.25 M33.7 219.45 L9.25 218.3 4.9 231.9 26.6 243.8 32.9 237.7 31.5 234.3 Q28.25 231.75 25.3 229.0 24.95 228.7 25.0 228.15 L25.1 227.6 26.15 227.4 27.1 227.45 32.85 231.6 35.75 230.1 35.7 221.6 33.7 219.45 M251.8 226.85 L252.35 227.25 252.6 227.7 252.55 228.15 246.8 234.4 269.35 242.8 281.65 226.45 272.95 216.85 249.25 218.65 244.4 225.05 244.9 232.05 251.3 226.6 Q251.55 226.65 251.8 226.85" fill="#1a1a1a" fill-rule="evenodd" stroke="none"/>
      <path d="M103.75 13.0 L104.6 3.0 173.8 3.25 174.85 13.7 Q168.05 8.1 158.9 7.95 146.8 9.05 137.85 17.6 125.75 8.55 110.6 10.5 106.75 10.8 103.75 13.0" fill="#003399" fill-rule="evenodd" stroke="none"/>
      <path d="M182.1 72.95 L183.5 73.85 168.4 99.7 158.35 99.7 154.55 85.3 181.5 73.45 182.1 72.95 M96.45 75.5 L97.45 76.45 130.0 86.1 122.7 103.1 110.8 97.45 96.45 75.5 M159.55 118.8 L150.1 106.45 154.95 98.65 156.3 102.4 168.1 102.7 159.55 118.8 M251.8 226.85 Q251.55 226.65 251.3 226.6 L244.9 232.05 244.4 225.05 249.25 218.65 272.95 216.85 281.65 226.45 269.35 242.8 246.8 234.4 252.55 228.15 252.6 227.7 252.35 227.25 251.8 226.85 M33.7 219.45 L35.7 221.6 35.75 230.1 32.85 231.6 27.1 227.45 26.15 227.4 25.1 227.6 25.0 228.15 Q24.95 228.7 25.3 229.0 28.25 231.75 31.5 234.3 L32.9 237.7 26.6 243.8 4.9 231.9 9.25 218.3 33.7 219.45 M135.0 107.25 L125.35 119.6 114.0 102.3 123.8 106.6 124.35 106.35 128.1 98.25 135.0 107.25" fill="#c1d9cb" fill-rule="evenodd" stroke="none"/>
      <path d="M186.55 74.45 L197.3 77.7 195.4 99.8 182.05 105.55 Q181.85 105.7 181.8 105.95 181.4 107.3 182.5 107.8 L191.9 112.2 148.2 146.45 186.55 74.45 M215.2 97.8 L214.7 79.85 226.25 84.1 251.7 113.6 273.9 151.2 282.3 213.1 242.45 216.15 Q239.0 201.85 233.65 188.4 L232.15 184.3 230.9 180.85 228.3 174.1 223.8 142.3 215.2 97.8 M211.7 81.5 L212.25 98.25 220.85 142.75 228.95 199.3 228.75 200.1 230.25 247.05 145.25 247.45 145.3 154.0 147.0 151.15 195.7 113.05 Q196.25 112.6 196.2 111.7 L196.05 111.25 195.8 110.85 195.35 110.6 186.8 106.55 197.35 102.1 197.95 101.65 198.25 101.35 200.25 78.5 211.7 81.5 M83.35 80.0 L93.3 76.4 137.7 143.7 97.65 115.0 105.8 108.05 105.9 107.3 107.1 107.1 107.55 106.4 107.5 105.0 83.9 104.65 83.35 80.0 M69.85 86.45 L80.0 81.5 81.5 107.2 102.05 107.35 94.9 113.6 94.2 114.4 Q93.9 114.8 94.0 115.35 L94.35 116.35 138.35 147.85 142.3 154.1 142.25 247.45 51.6 247.1 54.65 159.2 70.1 103.0 69.85 86.45 M63.75 88.9 L66.85 87.55 67.15 102.4 51.65 158.9 50.5 192.65 38.15 217.2 35.5 216.95 35.05 216.6 34.45 216.4 25.65 216.0 3.35 213.9 3.0 186.7 23.1 136.55 63.75 88.9" fill="#106557" fill-rule="evenodd" stroke="none"/>
      <path d="M133.45 85.75 L151.6 85.95 153.9 94.65 147.4 105.05 137.55 105.65 129.45 95.1 133.45 85.75 M147.55 108.1 L158.0 121.7 144.0 147.85 127.1 122.25 137.65 108.7 147.55 108.1" fill="#0e4239" fill-rule="evenodd" stroke="none"/>
      <path d="M170.15 17.7 L170.7 16.7 170.05 15.85 Q158.7 15.75 149.05 22.0 148.1 22.6 148.05 23.8 L149.05 24.2 149.45 23.95 165.5 23.9 166.1 22.95 165.5 22.05 152.25 21.95 Q160.6 17.85 170.15 17.7 M103.75 13.0 Q106.75 10.8 110.6 10.5 125.75 8.55 137.85 17.6 146.8 9.05 158.9 7.95 168.05 8.1 174.85 13.7 L178.7 51.6 178.05 51.1 Q171.85 46.3 164.0 45.65 147.35 44.05 130.8 46.6 119.6 48.15 108.65 51.6 105.35 52.7 102.2 54.15 L100.1 55.3 100.45 51.1 Q104.75 46.7 113.25 40.95 121.7 35.15 135.4 35.8 149.5 33.55 158.85 37.35 168.2 41.15 171.8 42.8 L175.65 44.4 175.45 44.15 Q164.35 36.9 151.35 33.9 L151.8 33.15 Q152.55 31.9 152.05 30.45 151.7 29.3 150.85 28.8 L149.4 28.15 148.6 28.9 148.75 29.25 149.25 30.6 149.35 31.9 149.15 33.2 148.9 33.4 Q139.75 34.35 130.7 33.25 L127.85 32.95 128.15 28.65 126.95 28.25 126.7 28.5 Q125.65 30.95 126.35 33.6 L126.7 34.6 119.4 37.1 Q113.4 39.2 100.7 48.15 L103.75 13.0 M179.0 54.45 L180.3 70.7 152.45 82.95 129.15 82.7 98.5 73.6 99.85 57.8 Q110.05 51.4 122.15 49.9 L130.4 48.65 Q147.2 45.95 164.15 47.55 172.65 48.65 179.0 54.45 M131.7 26.35 L131.9 25.05 129.8 23.75 Q119.15 17.05 106.9 20.05 L106.4 20.2 106.8 21.2 Q117.2 20.4 127.0 24.2 L114.05 24.3 113.85 25.4 114.4 25.95 129.6 26.25 129.95 25.95 131.3 26.5 131.7 26.35" fill="#b6e4e3" fill-rule="evenodd" stroke="none"/>
    </g>
    <g id="shape5" transform="matrix(1.0, 0.0, 0.0, 1.0, -0.25, -0.1)">
      <path d="M41.5 9.2 Q42.4 9.55 43.15 9.95 46.05 11.85 46.9 14.2 L47.35 15.85 47.65 17.9 47.25 18.65 44.0 19.2 38.3 19.95 37.2 18.3 37.9 23.9 45.75 25.9 Q47.7 26.7 49.5 27.85 L51.3 29.45 51.9 30.15 53.05 32.2 Q53.9 34.55 53.45 37.4 53.05 39.65 51.8 42.25 50.75 44.2 48.5 45.95 L41.3 49.9 41.5 51.65 41.65 52.55 41.55 54.25 40.85 54.55 36.85 54.55 33.35 54.55 32.45 54.35 32.1 53.1 32.0 51.75 29.9 51.65 29.95 52.0 30.05 53.35 30.25 54.95 30.05 55.55 29.7 55.8 21.15 55.75 20.85 54.7 20.85 53.9 20.8 52.15 20.8 50.7 Q14.65 48.7 10.65 43.65 L7.9 38.1 7.55 35.2 8.6 34.85 10.8 34.65 18.35 34.25 20.5 38.15 19.95 29.25 Q14.15 29.25 10.1 25.5 8.95 24.2 8.45 22.85 7.9 20.7 8.2 18.6 8.55 16.85 9.35 15.4 10.25 14.05 11.4 12.85 L14.5 10.85 17.6 9.4 17.5 8.85 17.35 8.15 17.1 6.75 17.15 4.7 17.75 4.4 24.8 4.3 25.3 5.6 25.4 6.25 25.5 7.1 27.25 6.95 27.1 6.05 27.05 5.4 26.95 4.05 31.85 2.35 33.7 2.05 35.15 2.35 35.4 3.05 35.6 5.0 35.8 6.45 35.85 7.15 35.9 7.6 38.4 8.15 Q40.1 8.6 41.5 9.2 M45.7 17.05 Q45.55 13.85 43.0 11.9 39.95 9.6 36.1 8.95 L36.85 15.25 Q38.5 16.2 39.2 17.9 L45.7 17.05 M50.5 31.85 Q50.15 30.75 49.3 29.9 44.5 25.35 38.05 25.6 L38.65 30.05 39.6 30.55 Q42.85 32.45 41.55 36.3 L39.75 38.5 41.0 47.75 45.35 45.65 Q47.2 44.6 48.4 43.0 52.3 37.95 50.5 31.85 M27.4 8.2 L25.7 8.35 26.75 14.8 28.3 14.65 27.4 8.2 M28.4 15.6 L26.8 15.75 27.6 23.3 29.5 23.7 28.4 15.6 M25.75 23.5 L23.6 5.85 19.25 5.95 20.8 20.4 21.2 26.55 Q22.1 40.45 22.3 54.4 L28.25 54.0 25.75 23.5 M33.65 3.4 L28.7 4.7 Q30.45 15.1 31.3 25.55 L32.1 34.2 33.65 52.85 39.75 52.65 33.65 3.4 M10.9 18.95 L10.85 19.95 Q10.85 20.9 11.15 21.85 13.15 27.7 19.8 27.9 L19.5 24.35 Q17.9 24.05 17.15 22.75 14.95 18.95 18.75 16.85 L17.85 10.85 Q14.85 12.2 12.8 14.55 11.15 16.4 10.9 18.95 M18.25 20.55 Q18.5 21.5 19.1 22.15 L18.9 18.45 Q17.95 19.3 18.25 20.55 M17.1 36.0 L9.45 36.65 9.8 37.65 Q13.15 45.05 20.75 48.3 L20.55 39.4 Q18.1 38.3 17.1 36.0 M38.85 31.85 L39.5 36.6 Q40.7 34.95 39.5 32.5 L38.85 31.85 M27.8 25.4 L28.1 28.4 30.2 28.6 29.75 25.5 27.8 25.4 M30.35 29.8 L28.2 29.6 29.05 39.75 31.25 39.65 30.35 29.8 M31.35 40.85 L29.15 40.95 29.75 49.8 31.9 49.75 31.35 40.85" fill="#005d51" fill-rule="evenodd" stroke="none"/>
      <path d="M46.9 14.2 Q46.05 11.85 43.15 9.95 42.4 9.55 41.5 9.2 38.85 7.4 35.8 6.45 L35.6 5.0 Q41.65 6.85 46.0 11.25 54.5 20.05 53.05 32.2 L51.9 30.15 51.95 28.7 Q51.75 20.2 46.9 14.2 M35.15 2.35 L33.7 2.05 Q21.3 -0.05 11.55 7.85 2.85 14.9 1.65 25.95 0.9 32.85 3.65 39.2 8.8 50.9 20.85 54.7 L21.15 55.75 29.7 55.8 Q33.45 55.6 36.85 54.55 L40.85 54.55 Q35.35 57.15 28.6 57.3 16.45 56.95 8.4 48.9 4.75 45.25 2.7 40.85 1.25 37.7 0.65 34.15 -0.1 29.5 0.5 24.9 1.2 19.5 3.95 14.75 6.75 10.0 10.95 6.65 14.95 3.5 19.8 1.7 24.05 0.1 28.6 0.1 40.7 0.4 48.8 8.5 56.9 16.55 57.2 28.7 56.85 40.8 48.8 48.9 45.5 52.2 41.55 54.25 L41.65 52.55 Q44.95 50.7 47.8 47.9 55.45 40.2 55.75 28.7 55.45 17.15 47.8 9.5 42.45 4.1 35.15 2.35 M26.95 4.05 L27.05 5.4 25.3 5.6 24.8 4.3 26.95 4.05 M17.1 6.75 L17.35 8.15 11.4 12.85 Q10.25 14.05 9.35 15.4 5.4 21.05 5.2 28.7 5.4 37.45 10.65 43.65 14.65 48.7 20.8 50.7 L20.8 52.15 Q15.35 50.4 11.1 46.15 4.1 39.15 3.85 28.7 4.1 18.2 11.1 11.2 13.8 8.45 17.1 6.75 M30.05 53.35 L29.95 52.0 32.0 51.75 32.1 53.1 30.05 53.35" fill="#006868" fill-rule="evenodd" stroke="none"/>
      <path d="M40.65 12.0 L42.45 12.1 43.6 13.4 Q44.15 15.45 42.2 16.35 41.3 16.6 40.6 16.35 L40.45 16.3 40.4 16.25 Q39.7 15.85 39.25 14.95 38.7 12.9 40.65 12.0 M41.6 15.7 L41.95 15.6 Q43.65 14.75 42.45 13.1 L41.6 15.7 M41.65 12.75 L40.95 12.8 Q39.7 13.35 40.05 14.7 L40.45 15.3 41.65 12.75 M46.05 37.3 Q48.15 37.85 48.0 39.95 47.45 42.05 45.3 41.9 44.3 41.65 43.85 41.05 L43.8 41.0 43.75 40.9 Q43.3 40.25 43.4 39.2 43.95 37.1 46.05 37.3 M44.8 40.8 L45.45 41.05 Q47.4 41.15 47.1 39.15 L44.8 40.8 M46.65 38.45 L45.95 38.1 Q44.6 38.0 44.2 39.35 L44.3 40.15 46.65 38.45 M13.5 18.1 L12.75 18.1 14.15 20.6 14.5 19.95 Q14.75 18.6 13.5 18.1 M10.85 19.95 L10.9 18.95 Q11.55 17.0 13.6 17.25 15.35 17.7 15.4 19.55 15.45 21.1 14.0 21.75 L12.3 21.65 Q11.15 21.15 10.85 19.95 M12.65 20.95 L13.35 21.0 12.0 18.55 11.65 19.1 Q11.4 20.45 12.65 20.95 M17.55 42.65 L17.85 42.0 15.0 42.3 15.45 42.9 Q16.6 43.65 17.55 42.65 M17.3 40.6 Q16.2 39.8 15.2 40.8 L14.9 41.45 17.75 41.15 17.3 40.6 M18.75 41.5 L18.5 42.45 Q17.95 44.1 16.25 44.15 L15.8 44.0 Q13.3 42.75 14.55 40.25 L15.4 39.85 Q17.95 38.9 18.75 41.5" fill="#0f6f61" fill-rule="evenodd" stroke="none"/>
      <path d="M40.65 12.0 Q38.7 12.9 39.25 14.95 39.7 15.85 40.4 16.25 L40.45 16.3 40.6 16.35 Q41.3 16.6 42.2 16.35 44.15 15.45 43.6 13.4 L42.45 12.1 40.65 12.0 M45.7 17.05 L39.2 17.9 Q38.5 16.2 36.85 15.25 L36.1 8.95 Q39.95 9.6 43.0 11.9 45.55 13.85 45.7 17.05 M50.5 31.85 Q52.3 37.95 48.4 43.0 47.2 44.6 45.35 45.65 L41.0 47.75 39.75 38.5 41.55 36.3 Q42.85 32.45 39.6 30.55 L38.65 30.05 38.05 25.6 Q44.5 25.35 49.3 29.9 50.15 30.75 50.5 31.85 M46.05 37.3 Q43.95 37.1 43.4 39.2 43.3 40.25 43.75 40.9 L43.8 41.0 43.85 41.05 Q44.3 41.65 45.3 41.9 47.45 42.05 48.0 39.95 48.15 37.85 46.05 37.3 M32.9 7.7 L31.15 6.85 Q30.6 9.15 30.85 11.4 L31.8 18.75 Q33.9 33.8 34.4 48.9 34.45 50.1 35.5 51.1 L37.15 50.9 Q37.65 50.05 37.55 48.95 L36.95 43.5 36.1 33.95 Q35.3 20.6 32.9 7.7 M27.4 8.2 L28.3 14.65 26.75 14.8 25.7 8.35 27.4 8.2 M24.25 24.5 Q24.2 18.9 23.7 13.7 23.2 8.5 22.1 8.2 20.85 8.6 21.15 13.7 21.45 18.8 22.2 24.2 L23.1 31.05 Q23.5 40.1 23.8 43.3 23.3 47.7 24.9 51.6 26.25 50.8 26.15 48.65 L25.8 45.15 Q24.55 38.45 24.3 31.65 L24.25 24.5 M33.65 3.4 L39.75 52.65 33.65 52.85 32.1 34.2 31.3 25.55 Q30.45 15.1 28.7 4.7 L33.65 3.4 M25.75 23.5 L28.25 54.0 22.3 54.4 Q22.1 40.45 21.2 26.55 L20.8 20.4 19.25 5.95 23.6 5.85 25.75 23.5 M10.85 19.95 Q11.15 21.15 12.3 21.65 L14.0 21.75 Q15.45 21.1 15.4 19.55 15.35 17.7 13.6 17.25 11.55 17.0 10.9 18.95 11.15 16.4 12.8 14.55 14.85 12.2 17.85 10.85 L18.75 16.85 Q14.95 18.95 17.15 22.75 17.9 24.05 19.5 24.35 L19.8 27.9 Q13.15 27.7 11.15 21.85 10.85 20.9 10.85 19.95 M18.75 41.5 Q17.95 38.9 15.4 39.85 L14.55 40.25 Q13.3 42.75 15.8 44.0 L16.25 44.15 Q17.95 44.1 18.5 42.45 L18.75 41.5 M17.1 36.0 Q18.1 38.3 20.55 39.4 L20.75 48.3 Q13.15 45.05 9.8 37.65 L9.45 36.65 17.1 36.0 M27.8 25.4 L29.75 25.5 30.2 28.6 28.1 28.4 27.8 25.4 M31.35 40.85 L31.9 49.75 29.75 49.8 29.15 40.95 31.35 40.85" fill="#85ab93" fill-rule="evenodd" stroke="none"/>
      <path d="M38.4 8.15 L35.9 7.6 35.85 7.15 38.4 8.15 M27.1 6.05 L27.25 6.95 25.5 7.1 25.4 6.25 27.1 6.05 M17.5 8.85 L17.6 9.4 14.5 10.85 Q15.9 9.7 17.5 8.85 M8.2 18.6 Q7.9 20.7 8.45 22.85 7.45 26.0 7.7 29.6 7.85 32.35 8.6 34.85 L7.55 35.2 7.9 38.1 Q6.0 33.85 5.85 28.7 6.0 23.1 8.2 18.6 M51.3 29.45 L49.5 27.85 Q49.25 23.0 47.25 18.65 L47.65 17.9 47.35 15.85 Q51.15 21.35 51.3 28.7 L51.3 29.45" fill="#85b599" fill-rule="evenodd" stroke="none"/>
      <path d="M41.5 9.2 Q40.1 8.6 38.4 8.15 L35.85 7.15 35.8 6.45 Q38.85 7.4 41.5 9.2 M35.4 3.05 L35.15 2.35 Q42.45 4.1 47.8 9.5 55.45 17.15 55.75 28.7 55.45 40.2 47.8 47.9 44.95 50.7 41.65 52.55 L41.5 51.65 Q44.6 49.9 47.2 47.3 L48.5 45.95 Q50.75 44.2 51.8 42.25 53.05 39.65 53.45 37.4 54.8 33.35 54.95 28.6 54.65 17.35 47.2 9.9 42.15 4.85 35.4 3.05 M33.7 2.05 L31.85 2.35 28.5 2.1 Q22.6 2.25 17.75 4.4 L17.15 4.7 Q6.8 9.85 3.35 20.8 0.5 29.95 4.3 38.8 9.25 50.2 20.85 53.9 L20.85 54.7 Q8.8 50.9 3.65 39.2 0.9 32.85 1.65 25.95 2.85 14.9 11.55 7.85 21.3 -0.05 33.7 2.05 M27.05 5.4 L27.1 6.05 25.4 6.25 25.3 5.6 27.05 5.4 M17.35 8.15 L17.5 8.85 Q15.9 9.7 14.5 10.85 L11.4 12.85 17.35 8.15 M9.35 15.4 Q8.55 16.85 8.2 18.6 6.0 23.1 5.85 28.7 6.0 33.85 7.9 38.1 L10.65 43.65 Q5.4 37.45 5.2 28.7 5.4 21.05 9.35 15.4 M29.7 55.8 L30.05 55.55 30.25 54.95 33.35 54.55 36.85 54.55 Q33.45 55.6 29.7 55.8 M29.95 52.0 L29.9 51.65 32.0 51.75 29.95 52.0 M51.9 30.15 L51.3 29.45 51.3 28.7 Q51.15 21.35 47.35 15.85 L46.9 14.2 Q51.75 20.2 51.95 28.7 L51.9 30.15" fill="#085854" fill-rule="evenodd" stroke="none"/>
      <path d="M41.65 12.75 L40.45 15.3 40.05 14.7 Q39.7 13.35 40.95 12.8 L41.65 12.75 M41.6 15.7 L42.45 13.1 Q43.65 14.75 41.95 15.6 L41.6 15.7 M46.65 38.45 L44.3 40.15 44.2 39.35 Q44.6 38.0 45.95 38.1 L46.65 38.45 M44.8 40.8 L47.1 39.15 Q47.4 41.15 45.45 41.05 L44.8 40.8 M13.5 18.1 Q14.75 18.6 14.5 19.95 L14.15 20.6 12.75 18.1 13.5 18.1 M12.65 20.95 Q11.4 20.45 11.65 19.1 L12.0 18.55 13.35 21.0 12.65 20.95 M17.3 40.6 L17.75 41.15 14.9 41.45 15.2 40.8 Q16.2 39.8 17.3 40.6 M17.55 42.65 Q16.6 43.65 15.45 42.9 L15.0 42.3 17.85 42.0 17.55 42.65" fill="#a0beac" fill-rule="evenodd" stroke="none"/>
      <path d="M35.6 5.0 L35.4 3.05 Q42.15 4.85 47.2 9.9 54.65 17.35 54.95 28.6 54.8 33.35 53.45 37.4 53.9 34.55 53.05 32.2 54.5 20.05 46.0 11.25 41.65 6.85 35.6 5.0 M31.85 2.35 L26.95 4.05 24.8 4.3 17.75 4.4 Q22.6 2.25 28.5 2.1 L31.85 2.35 M17.15 4.7 L17.1 6.75 Q13.8 8.45 11.1 11.2 4.1 18.2 3.85 28.7 4.1 39.15 11.1 46.15 15.35 50.4 20.8 52.15 L20.85 53.9 Q9.25 50.2 4.3 38.8 0.5 29.95 3.35 20.8 6.8 9.85 17.15 4.7 M8.45 22.85 Q8.95 24.2 10.1 25.5 8.85 29.75 10.65 34.3 L10.8 34.65 8.6 34.85 Q7.85 32.35 7.7 29.6 7.45 26.0 8.45 22.85 M30.25 54.95 L30.05 53.35 32.1 53.1 32.45 54.35 33.35 54.55 30.25 54.95 M41.5 51.65 L41.3 49.9 48.5 45.95 47.2 47.3 Q44.6 49.9 41.5 51.65 M49.5 27.85 Q47.7 26.7 45.75 25.9 45.45 22.35 44.0 19.2 L47.25 18.65 Q49.25 23.0 49.5 27.85" fill="#98bea8" fill-rule="evenodd" stroke="none"/>
      <path d="M10.1 25.5 Q14.15 29.25 19.95 29.25 L20.5 38.15 18.35 34.25 10.8 34.65 10.65 34.3 Q8.85 29.75 10.1 25.5 M45.75 25.9 L37.9 23.9 37.2 18.3 38.3 19.95 44.0 19.2 Q45.45 22.35 45.75 25.9 M28.4 15.6 L29.5 23.7 27.6 23.3 26.8 15.75 28.4 15.6 M18.25 20.55 Q17.95 19.3 18.9 18.45 L19.1 22.15 Q18.5 21.5 18.25 20.55 M38.85 31.85 L39.5 32.5 Q40.7 34.95 39.5 36.6 L38.85 31.85 M30.35 29.8 L31.25 39.65 29.05 39.75 28.2 29.6 30.35 29.8" fill="#c1d9cb" fill-rule="evenodd" stroke="none"/>
      <path d="M32.9 7.7 Q35.3 20.6 36.1 33.95 L36.95 43.5 37.55 48.95 Q37.65 50.05 37.15 50.9 L35.5 51.1 Q34.45 50.1 34.4 48.9 33.9 33.8 31.8 18.75 L30.85 11.4 Q30.6 9.15 31.15 6.85 L32.9 7.7 M24.25 24.5 L24.3 31.65 Q24.55 38.45 25.8 45.15 L26.15 48.65 Q26.25 50.8 24.9 51.6 23.3 47.7 23.8 43.3 23.5 40.1 23.1 31.05 L22.2 24.2 Q21.45 18.8 21.15 13.7 20.85 8.6 22.1 8.2 23.2 8.5 23.7 13.7 24.2 18.9 24.25 24.5" fill="#689878" fill-rule="evenodd" stroke="none"/>
    </g>
    <g id="shape6" transform="matrix(1.0, 0.0, 0.0, 1.0, 0.0, 0.0)">
      <path d="M137.3 98.45 L139.9 82.6 167.8 73.1 165.2 58.35 Q145.8 51.1 125.25 49.2 L114.05 48.75 Q102.7 49.45 91.95 53.45 L90.85 74.55 116.85 82.3 120.3 97.3 120.95 99.65 122.45 105.25 123.45 108.9 125.9 118.05 126.45 120.05 130.45 135.25 134.1 116.6 134.6 113.75 135.05 111.15 135.55 108.25 136.95 100.5 137.3 98.45 M171.5 75.3 L157.05 105.55 155.8 106.45 153.4 104.15 130.3 140.9 126.25 146.5 125.65 146.6 119.1 155.6 180.5 106.75 Q174.0 104.15 168.95 99.3 L167.5 97.85 167.35 97.65 167.3 97.4 167.4 96.8 168.5 95.95 198.8 92.75 191.8 82.15 171.5 75.3 M202.6 95.05 L173.1 98.5 184.45 106.4 184.0 107.8 114.25 163.25 109.15 241.75 213.4 241.75 212.95 200.5 210.45 182.35 202.5 143.1 191.6 101.75 191.75 100.6 192.85 100.0 194.3 100.45 194.5 101.0 205.4 142.45 213.4 181.85 Q220.1 196.5 223.45 211.95 L261.2 208.25 251.9 149.5 231.6 113.65 207.5 87.4 196.4 83.7 202.8 94.25 202.6 95.05 M209.45 85.1 L233.9 111.75 254.6 148.2 254.8 148.75 264.4 209.4 264.3 210.2 Q264.0 211.0 263.05 211.1 L257.4 211.65 264.2 219.25 264.55 220.1 251.35 237.6 Q250.7 238.45 249.65 238.1 L225.65 229.15 225.55 229.1 Q224.8 228.75 224.65 228.1 L222.7 219.35 Q222.65 219.05 222.75 218.7 L223.0 218.15 225.7 214.75 Q223.05 215.85 222.3 213.95 218.8 204.85 216.2 195.4 215.65 193.4 214.75 191.5 L215.95 200.45 216.4 243.25 215.8 244.55 214.9 244.75 46.9 244.7 46.15 244.5 45.45 243.55 48.15 182.5 37.45 219.05 Q37.25 219.85 36.45 220.25 L35.5 220.25 35.4 230.7 Q34.2 232.6 31.6 233.1 32.75 234.95 32.6 237.15 L32.3 237.8 24.35 244.85 23.2 244.95 17.7 241.95 Q9.25 237.15 1.0 231.8 0.35 231.35 0.65 230.45 L5.1 217.55 0.85 217.1 0.0 215.7 0.45 178.2 0.55 177.65 18.0 134.85 18.25 134.45 59.25 85.15 87.85 74.3 91.7 1.9 Q91.95 0.65 93.2 0.45 L157.25 0.0 Q158.15 0.1 158.3 0.85 L160.6 12.3 160.6 12.55 160.65 12.75 160.65 12.6 170.6 71.95 209.45 85.1 M146.75 24.2 L134.1 26.15 133.7 25.3 131.55 26.35 130.65 25.25 Q138.55 19.0 148.25 16.85 L149.3 17.75 Q142.6 20.55 135.55 24.2 L146.85 22.65 146.75 24.2 M157.65 12.75 L156.0 3.0 94.65 3.45 94.2 11.85 92.4 45.75 93.95 44.85 Q105.55 38.7 118.1 35.05 L117.5 34.45 Q116.1 32.7 116.6 30.45 116.9 29.2 117.75 28.25 L118.1 28.1 119.15 28.45 119.2 28.75 Q118.25 31.15 119.65 33.1 120.2 33.9 121.3 34.1 127.4 35.4 133.25 34.05 L133.55 33.65 133.2 30.7 134.15 30.15 134.85 30.45 135.0 30.75 Q135.7 32.2 135.5 33.85 L135.35 34.65 136.0 35.0 Q151.75 43.4 164.85 55.45 L157.65 12.75 M98.4 17.8 Q111.0 17.35 120.65 26.45 L120.25 27.5 119.85 27.65 Q110.3 20.5 98.8 18.8 L98.4 17.8 M99.15 25.2 L99.5 24.15 Q108.15 22.5 115.6 26.95 L115.05 27.9 Q107.65 25.3 99.9 25.95 L99.15 25.2 M91.6 77.85 L100.65 102.4 112.85 83.6 91.6 77.85 M160.8 54.65 Q148.2 44.0 133.85 35.95 110.7 35.35 92.25 48.2 L92.1 51.25 Q107.9 46.0 124.45 46.9 141.15 48.05 156.9 53.3 L160.8 54.65 M59.5 95.1 L90.35 101.2 91.3 101.75 91.4 103.2 81.7 107.15 125.6 143.25 127.85 140.2 104.3 102.3 100.65 107.15 100.1 107.25 98.85 106.25 88.2 77.4 65.8 85.7 59.5 95.1 M60.85 87.9 L20.75 136.15 3.45 178.55 3.05 214.35 34.8 217.15 Q38.65 200.3 44.0 183.7 48.65 169.2 50.25 153.9 L62.0 101.95 63.2 100.8 63.8 100.85 Q65.1 101.3 64.95 102.6 L53.2 154.5 51.45 175.25 48.5 241.7 106.15 241.75 111.3 162.4 123.85 145.7 77.75 107.75 77.35 106.85 Q77.05 106.0 77.9 105.7 81.05 104.25 84.35 103.05 L55.8 97.1 Q65.0 82.95 60.85 87.9 M151.6 101.45 L142.3 87.4 135.2 127.7 151.6 101.45 M126.7 132.65 L114.4 86.75 106.1 99.55 126.7 132.65 M143.5 83.8 L155.5 101.9 167.7 76.25 143.5 83.8 M31.25 219.85 L8.2 217.85 3.85 230.3 23.7 241.85 29.6 236.4 22.25 227.85 23.1 226.45 29.9 230.6 32.5 229.3 32.65 221.5 31.25 219.85 M254.6 213.05 L229.35 215.0 225.75 219.45 226.95 224.8 231.05 220.95 Q229.6 219.75 230.0 218.0 L231.4 218.3 Q235.85 220.45 235.9 224.3 233.95 225.3 232.9 223.25 L228.8 227.15 249.65 234.9 261.1 219.8 254.6 213.05" fill="#1a1a1a" fill-rule="evenodd" stroke="none"/>
      <path d="M120.3 97.3 L116.85 82.3 90.85 74.55 91.95 53.45 Q102.7 49.45 114.05 48.75 L125.25 49.2 Q145.8 51.1 165.2 58.35 L167.8 73.1 139.9 82.6 137.3 98.45 Q127.1 99.75 121.75 97.8 L120.3 97.3 M136.95 100.5 L135.55 108.25 Q133.05 110.75 129.3 109.65 125.2 108.35 122.45 105.25 L120.95 99.65 121.1 99.7 Q128.7 101.9 136.95 100.5 M135.05 111.15 L134.6 113.75 Q128.85 118.0 125.9 118.05 L123.45 108.9 124.7 109.75 Q129.7 113.3 135.05 111.15 M134.1 116.6 L130.45 135.25 126.45 120.05 Q129.4 119.8 134.1 116.6 M146.75 24.2 L146.85 22.65 135.55 24.2 Q142.6 20.55 149.3 17.75 L148.25 16.85 Q138.55 19.0 130.65 25.25 L131.55 26.35 133.7 25.3 134.1 26.15 146.75 24.2 M94.2 11.85 Q98.85 8.65 104.85 9.65 114.75 11.55 123.2 17.05 134.1 12.0 146.15 10.9 152.2 10.6 157.65 12.75 L164.85 55.45 Q151.75 43.4 136.0 35.0 L135.35 34.65 135.5 33.85 Q135.7 32.2 135.0 30.75 L134.85 30.45 134.15 30.15 133.2 30.7 133.55 33.65 133.25 34.05 Q127.4 35.4 121.3 34.1 120.2 33.9 119.65 33.1 118.25 31.15 119.2 28.75 L119.15 28.45 118.1 28.1 117.75 28.25 Q116.9 29.2 116.6 30.45 116.1 32.7 117.5 34.45 L118.1 35.05 Q105.55 38.7 93.95 44.85 L92.4 45.75 94.2 11.85 M99.15 25.2 L99.9 25.95 Q107.65 25.3 115.05 27.9 L115.6 26.95 Q108.15 22.5 99.5 24.15 L99.15 25.2 M98.4 17.8 L98.8 18.8 Q110.3 20.5 119.85 27.65 L120.25 27.5 120.65 26.45 Q111.0 17.35 98.4 17.8 M160.8 54.65 L156.9 53.3 Q141.15 48.05 124.45 46.9 107.9 46.0 92.1 51.25 L92.25 48.2 Q110.7 35.35 133.85 35.95 148.2 44.0 160.8 54.65 M254.6 213.05 L261.1 219.8 249.65 234.9 228.8 227.15 232.9 223.25 Q233.95 225.3 235.9 224.3 235.85 220.45 231.4 218.3 L230.0 218.0 Q229.6 219.75 231.05 220.95 L226.95 224.8 225.75 219.45 229.35 215.0 254.6 213.05 M31.25 219.85 L32.65 221.5 32.5 229.3 29.9 230.6 23.1 226.45 22.25 227.85 29.6 236.4 23.7 241.85 3.85 230.3 8.2 217.85 31.25 219.85" fill="#b3cee8" fill-rule="evenodd" stroke="none"/>
      <path d="M202.6 95.05 L202.8 94.25 196.4 83.7 207.5 87.4 231.6 113.65 251.9 149.5 261.2 208.25 223.45 211.95 Q220.1 196.5 213.4 181.85 L205.4 142.45 194.5 101.0 194.3 100.45 192.85 100.0 191.75 100.6 191.6 101.75 202.5 143.1 210.45 182.35 212.95 200.5 213.4 241.75 109.15 241.75 114.25 163.25 184.0 107.8 184.45 106.4 173.1 98.5 202.6 95.05 M171.5 75.3 L191.8 82.15 198.8 92.75 168.5 95.95 167.4 96.8 167.3 97.4 167.35 97.65 167.5 97.85 168.95 99.3 Q174.0 104.15 180.5 106.75 L119.1 155.6 125.65 146.6 126.25 146.5 130.3 140.9 153.4 104.15 155.8 106.45 157.05 105.55 171.5 75.3 M60.85 87.9 Q65.0 82.95 55.8 97.1 L84.35 103.05 Q81.05 104.25 77.9 105.7 77.05 106.0 77.35 106.85 L77.75 107.75 123.85 145.7 111.3 162.4 106.15 241.75 48.5 241.7 51.45 175.25 53.2 154.5 64.95 102.6 Q65.1 101.3 63.8 100.85 L63.2 100.8 62.0 101.95 50.25 153.9 Q48.65 169.2 44.0 183.7 38.65 200.3 34.8 217.15 L3.05 214.35 3.45 178.55 20.75 136.15 60.85 87.9 M59.5 95.1 L65.8 85.7 88.2 77.4 98.85 106.25 100.1 107.25 100.65 107.15 104.3 102.3 127.85 140.2 125.6 143.25 81.7 107.15 91.4 103.2 91.3 101.75 90.35 101.2 59.5 95.1" fill="#8d254e" fill-rule="evenodd" stroke="none"/>
      <path d="M94.2 11.85 L94.65 3.45 156.0 3.0 157.65 12.75 Q152.2 10.6 146.15 10.9 134.1 12.0 123.2 17.05 114.75 11.55 104.85 9.65 98.85 8.65 94.2 11.85" fill="#243f8c" fill-rule="evenodd" stroke="none"/>
      <path d="M91.6 77.85 L112.85 83.6 100.65 102.4 91.6 77.85 M151.6 101.45 L135.2 127.7 142.3 87.4 151.6 101.45 M126.7 132.65 L106.1 99.55 114.4 86.75 126.7 132.65 M143.5 83.8 L167.7 76.25 155.5 101.9 143.5 83.8" fill="#ffe1e9" fill-rule="evenodd" stroke="none"/>
      <path d="M120.3 97.3 L121.75 97.8 Q127.1 99.75 137.3 98.45 L136.95 100.5 Q128.7 101.9 121.1 99.7 L120.95 99.65 120.3 97.3 M135.55 108.25 L135.05 111.15 Q129.7 113.3 124.7 109.75 L123.45 108.9 122.45 105.25 Q125.2 108.35 129.3 109.65 133.05 110.75 135.55 108.25 M134.6 113.75 L134.1 116.6 Q129.4 119.8 126.45 120.05 L125.9 118.05 Q128.85 118.0 134.6 113.75" fill="#ff901f" fill-rule="evenodd" stroke="none"/>
    </g>
    <g id="shape7" transform="matrix(1.0, 0.0, 0.0, 1.0, -0.1, 0.0)">
      <path d="M44.15 4.15 Q48.25 3.4 52.05 4.8 L52.4 5.0 52.3 11.35 52.25 12.55 Q56.95 19.4 57.2 28.65 56.95 39.1 50.85 46.55 L50.85 48.45 50.25 54.2 Q46.95 55.8 43.1 54.6 L42.4 54.05 42.25 53.8 Q36.25 57.05 28.6 57.25 20.95 57.05 14.95 53.75 L14.75 54.3 14.4 54.75 8.05 54.95 Q6.45 53.25 6.75 50.75 L6.9 47.7 6.85 47.2 Q3.0 42.7 1.3 37.15 -0.8 29.9 0.85 22.5 2.4 15.75 6.8 10.6 15.0 0.95 27.95 0.05 L28.3 0.05 28.6 0.05 Q37.0 0.25 43.5 4.2 L44.15 4.15 M50.75 10.0 L51.2 5.6 42.35 5.6 Q42.7 27.1 43.4 48.6 43.45 50.9 43.95 52.95 L47.55 53.2 49.45 52.9 Q49.55 33.1 50.45 13.35 L50.75 10.0 M40.95 5.25 Q41.05 4.75 41.2 4.9 L41.4 4.8 Q35.75 1.65 28.6 1.45 17.05 1.75 9.4 9.45 1.7 17.1 1.4 28.65 1.65 37.85 6.6 44.65 L6.5 43.3 6.35 41.05 6.05 39.7 Q1.4 28.1 7.05 17.05 11.65 8.15 21.3 5.15 31.5 2.15 40.85 7.15 L40.95 5.25 M45.1 11.4 L45.35 12.2 47.45 10.1 46.65 9.85 Q45.25 10.0 45.1 11.4 M40.8 9.45 L40.8 8.75 Q35.55 5.45 28.65 5.3 18.7 5.6 12.0 12.3 5.3 19.0 5.05 28.9 5.2 33.9 6.95 38.05 L7.95 37.8 14.45 37.8 15.3 38.55 15.05 47.8 17.35 48.85 17.4 46.3 17.4 42.55 16.8 27.7 17.8 27.05 Q22.25 25.8 26.4 27.25 L26.7 27.55 26.7 51.5 26.7 51.95 29.25 52.05 29.25 51.35 29.25 47.1 29.3 44.85 28.85 16.2 30.2 15.55 38.9 15.85 38.7 49.4 38.7 49.8 41.85 47.95 41.85 47.1 41.95 42.75 41.95 38.3 41.0 14.95 40.85 11.15 40.8 9.45 M44.55 12.65 Q44.5 11.25 45.1 10.1 45.7 8.9 46.6 8.8 47.5 8.7 48.2 9.75 48.9 10.75 48.95 12.35 48.4 13.7 46.65 13.9 45.1 13.75 44.55 12.65 M48.3 45.2 L48.65 46.05 Q49.15 47.55 48.1 48.55 L46.3 49.2 Q44.8 49.15 44.1 47.55 43.75 46.05 44.6 45.2 L45.65 44.45 Q47.35 44.0 48.3 45.2 M46.3 12.95 L46.65 13.0 Q48.75 12.6 48.05 10.7 L46.3 12.95 M50.85 42.75 L50.85 44.4 Q55.35 38.0 55.55 29.2 55.4 21.65 52.1 15.6 L52.05 16.5 Q51.5 20.6 52.6 24.4 53.15 26.45 53.2 28.65 53.35 33.65 51.5 38.1 50.6 40.15 50.85 42.75 M51.15 34.95 Q51.9 31.85 51.85 28.65 L51.65 24.65 51.15 34.95 M44.9 46.45 L44.9 47.25 Q45.45 48.6 46.85 48.1 L47.6 47.8 44.9 46.45 M47.9 46.25 Q47.35 44.95 45.9 45.3 45.55 45.45 45.3 45.7 L47.95 47.0 47.9 46.25 M38.0 18.15 L38.1 16.8 29.9 16.9 31.25 53.15 37.5 53.45 37.55 53.2 Q36.9 35.65 38.0 18.15 M35.4 21.6 L35.0 20.95 32.75 21.0 32.45 21.65 35.4 21.6 M32.05 23.7 Q30.8 22.05 32.1 20.4 L32.25 20.3 Q33.9 18.95 35.6 20.25 L35.8 20.5 Q37.0 22.1 35.7 23.75 L35.55 23.9 Q33.9 25.2 32.2 23.85 L32.05 23.7 M35.4 48.0 Q37.9 50.5 35.05 52.15 L32.75 52.05 Q31.1 50.6 32.2 48.6 33.2 47.3 35.0 47.8 L35.4 48.0 M32.4 22.2 L32.8 22.85 35.05 22.8 35.35 22.15 32.4 22.2 M20.1 34.85 Q19.2 34.05 19.3 32.95 19.55 30.6 21.75 30.6 23.45 30.5 23.95 32.0 24.55 33.8 23.2 34.9 L20.1 34.85 M23.55 48.15 Q24.4 48.75 24.5 49.6 24.85 52.4 22.1 52.65 21.25 52.3 20.65 51.7 18.85 49.95 20.8 48.1 L23.55 48.15 M9.4 44.7 L9.2 45.45 Q9.35 46.9 10.75 47.05 L11.55 46.85 9.4 44.7 M9.05 47.25 L8.8 46.95 Q7.8 45.3 9.05 43.7 10.1 42.75 11.45 43.15 L12.0 43.35 Q13.1 43.95 13.25 45.45 13.05 47.15 11.75 47.7 10.7 48.45 9.05 47.25 M12.35 45.45 Q12.2 44.05 10.75 43.9 L10.0 44.1 12.15 46.25 12.35 45.45 M14.2 38.7 L7.45 38.8 8.6 53.65 Q9.45 54.1 10.5 54.05 L14.1 53.7 14.2 38.7 M21.65 31.4 L20.9 31.6 23.05 33.75 23.25 32.95 Q23.1 31.55 21.65 31.4 M22.45 34.35 L20.3 32.2 20.1 32.95 Q20.35 34.35 21.65 34.55 L22.45 34.35 M22.15 48.6 Q21.45 48.65 21.1 49.0 20.65 49.4 20.55 50.15 L20.75 50.9 22.85 48.8 22.15 48.6 M35.3 49.15 L33.1 49.1 32.65 49.55 32.6 50.35 35.3 49.15 M25.55 28.05 L17.9 28.15 19.3 53.15 24.75 53.25 25.55 28.05 M41.95 51.4 L41.85 49.6 38.7 51.3 38.55 53.05 38.35 54.05 42.0 52.4 41.95 51.4 M25.95 54.9 L23.3 55.25 Q28.6 56.35 33.95 55.25 L30.85 54.9 Q29.8 54.75 29.55 53.85 L29.45 53.4 26.6 53.3 25.95 54.9 M33.2 51.4 L34.55 51.7 35.7 49.95 33.2 51.4 M21.35 51.55 L22.1 51.75 Q23.9 51.55 23.6 49.7 L21.35 51.55 M15.15 51.45 L15.15 52.25 17.45 53.45 17.3 52.6 Q17.2 51.75 17.25 50.65 L15.1 49.4 15.15 51.45" fill="#5d0035" fill-rule="evenodd" stroke="none"/>
      <path d="M50.75 10.0 L50.45 13.35 Q49.55 33.1 49.45 52.9 L47.55 53.2 43.95 52.95 Q43.45 50.9 43.4 48.6 42.7 27.1 42.35 5.6 L51.2 5.6 50.75 10.0 M48.95 12.35 Q48.9 10.75 48.2 9.75 47.5 8.7 46.6 8.8 45.7 8.9 45.1 10.1 44.5 11.25 44.55 12.65 L44.6 45.2 Q43.75 46.05 44.1 47.55 44.8 49.15 46.3 49.2 46.8 49.75 47.7 49.65 L48.1 48.55 Q49.15 47.55 48.65 46.05 L48.3 45.2 48.05 41.5 Q47.2 35.85 47.35 30.15 47.65 21.15 48.95 12.35 M38.0 18.15 Q36.9 35.65 37.55 53.2 L37.5 53.45 31.25 53.15 29.9 16.9 38.1 16.8 38.0 18.15 M35.55 23.9 L35.7 23.75 Q37.0 22.1 35.8 20.5 L35.6 20.25 Q33.9 18.95 32.25 20.3 L32.1 20.4 Q30.8 22.05 32.05 23.7 32.7 32.75 31.85 41.85 31.65 43.75 31.7 45.7 31.7 47.3 32.2 48.6 31.1 50.6 32.75 52.05 L35.05 52.15 Q37.9 50.5 35.4 48.0 34.65 36.55 35.35 25.1 L35.55 23.9 M23.2 34.9 Q24.55 33.8 23.95 32.0 23.45 30.5 21.75 30.6 19.55 30.6 19.3 32.95 19.2 34.05 20.1 34.85 L20.8 48.1 Q18.85 49.95 20.65 51.7 21.25 52.3 22.1 52.65 24.85 52.4 24.5 49.6 24.4 48.75 23.55 48.15 L23.2 34.9 M9.05 43.7 Q7.8 45.3 8.8 46.95 L9.05 47.25 Q8.85 50.0 10.4 52.15 10.75 52.65 11.4 52.4 L11.75 47.7 Q13.05 47.15 13.25 45.45 13.1 43.95 12.0 43.35 12.3 41.75 11.6 40.3 L11.4 40.05 10.2 39.95 Q8.8 41.5 9.05 43.7 M14.2 38.7 L14.1 53.7 10.5 54.05 Q9.45 54.1 8.6 53.65 L7.45 38.8 14.2 38.7 M25.55 28.05 L24.75 53.25 19.3 53.15 17.9 28.15 25.55 28.05" fill="#e3c1d7" fill-rule="evenodd" stroke="none"/>
      <path d="M6.5 43.3 L6.6 44.65 Q1.65 37.85 1.4 28.65 1.7 17.1 9.4 9.45 17.05 1.75 28.6 1.45 35.75 1.65 41.4 4.8 L41.2 4.9 Q41.05 4.75 40.95 5.25 35.45 2.3 28.5 2.1 17.25 2.4 9.8 9.9 2.3 17.35 2.0 28.6 2.2 37.0 6.5 43.3 M40.85 11.15 L41.0 14.95 Q38.6 13.0 35.2 12.55 30.25 11.95 25.95 12.6 16.7 14.25 11.6 22.15 8.2 28.0 10.7 34.3 L12.05 37.4 9.6 37.55 Q7.6 32.95 7.75 27.7 7.85 22.9 10.4 19.05 15.75 11.05 25.25 9.1 33.55 7.45 40.85 11.15 M41.95 38.3 L41.95 42.75 39.4 43.95 Q39.25 42.35 39.25 40.75 L41.95 38.3 M29.3 44.85 L29.25 47.1 27.4 47.55 27.4 45.1 29.3 44.85 M17.4 42.55 L17.4 46.3 16.15 45.55 15.9 41.9 17.4 42.55 M52.05 16.5 L52.1 15.6 Q55.4 21.65 55.55 29.2 55.35 38.0 50.85 44.4 L50.85 42.75 Q54.75 36.6 54.95 28.6 54.75 21.85 52.05 16.5 M41.95 51.4 L42.0 52.4 38.35 54.05 38.55 53.05 41.95 51.4 M30.85 54.9 L33.95 55.25 Q28.6 56.35 23.3 55.25 L25.95 54.9 30.85 54.9 M17.3 52.6 L17.45 53.45 15.15 52.25 15.15 51.45 17.3 52.6" fill="#d2c0c0" fill-rule="evenodd" stroke="none"/>
      <path d="M44.15 4.15 L43.5 4.2 Q37.0 0.25 28.6 0.05 L29.2 0.0 Q37.65 0.2 44.15 4.15 M1.3 37.15 Q3.0 42.7 6.85 47.2 L6.9 47.7 Q2.95 43.0 1.3 37.15" fill="#8d3f6d" fill-rule="evenodd" stroke="none"/>
      <path d="M40.8 9.45 L40.85 11.15 Q33.55 7.45 25.25 9.1 15.75 11.05 10.4 19.05 7.85 22.9 7.75 27.7 7.6 32.95 9.6 37.55 L12.05 37.4 14.45 37.8 7.95 37.8 Q3.5 25.3 11.45 14.7 17.0 7.25 26.3 6.1 34.15 5.3 40.8 9.45 M41.95 42.75 L41.85 47.1 39.25 48.7 38.7 49.4 38.9 15.85 30.2 15.55 Q33.5 13.75 37.2 14.75 40.15 15.65 39.9 19.05 39.05 29.85 39.25 40.75 39.25 42.35 39.4 43.95 L41.95 42.75 M29.25 47.1 L29.25 51.35 26.7 51.5 26.7 27.55 26.4 27.25 Q22.25 25.8 17.8 27.05 19.55 26.25 21.6 26.15 L24.6 26.45 Q27.6 26.9 27.45 30.1 27.1 37.6 27.4 45.1 L27.4 47.55 29.25 47.1 M17.4 46.3 L17.35 48.85 15.05 47.8 15.3 38.55 15.9 41.9 16.15 45.55 17.4 46.3" fill="#bda3a3" fill-rule="evenodd" stroke="none"/>
      <path d="M7.95 37.8 L6.95 38.05 Q5.2 33.9 5.05 28.9 5.3 19.0 12.0 12.3 18.7 5.6 28.65 5.3 35.55 5.45 40.8 8.75 L40.8 9.45 Q34.15 5.3 26.3 6.1 17.0 7.25 11.45 14.7 3.5 25.3 7.95 37.8 M41.85 47.1 L41.85 47.95 38.7 49.8 38.7 49.4 39.25 48.7 41.85 47.1 M29.25 51.35 L29.25 52.05 26.7 51.95 26.7 51.5 29.25 51.35 M51.15 34.95 L51.65 24.65 51.85 28.65 Q51.9 31.85 51.15 34.95" fill="#aa8888" fill-rule="evenodd" stroke="none"/>
      <path d="M45.1 11.4 Q45.25 10.0 46.65 9.85 L47.45 10.1 45.35 12.2 45.1 11.4 M46.3 12.95 L48.05 10.7 Q48.75 12.6 46.65 13.0 L46.3 12.95 M44.9 46.45 L47.6 47.8 46.85 48.1 Q45.45 48.6 44.9 47.25 L44.9 46.45 M47.9 46.25 L47.95 47.0 45.3 45.7 Q45.55 45.45 45.9 45.3 47.35 44.95 47.9 46.25 M35.4 21.6 L32.45 21.65 32.75 21.0 35.0 20.95 35.4 21.6 M32.4 22.2 L35.35 22.15 35.05 22.8 32.8 22.85 32.4 22.2 M9.4 44.7 L11.55 46.85 10.75 47.05 Q9.35 46.9 9.2 45.45 L9.4 44.7 M12.35 45.45 L12.15 46.25 10.0 44.1 10.75 43.9 Q12.2 44.05 12.35 45.45 M22.45 34.35 L21.65 34.55 Q20.35 34.35 20.1 32.95 L20.3 32.2 22.45 34.35 M21.65 31.4 Q23.1 31.55 23.25 32.95 L23.05 33.75 20.9 31.6 21.65 31.4 M22.15 48.6 L22.85 48.8 20.75 50.9 20.55 50.15 Q20.65 49.4 21.1 49.0 21.45 48.65 22.15 48.6 M35.3 49.15 L32.6 50.35 32.65 49.55 33.1 49.1 35.3 49.15 M33.2 51.4 L35.7 49.95 34.55 51.7 33.2 51.4 M21.35 51.55 L23.6 49.7 Q23.9 51.55 22.1 51.75 L21.35 51.55" fill="#a68884" fill-rule="evenodd" stroke="none"/>
      <path d="M48.95 12.35 Q47.65 21.15 47.35 30.15 47.2 35.85 48.05 41.5 L48.3 45.2 Q47.35 44.0 45.65 44.45 L44.6 45.2 44.55 12.65 Q45.1 13.75 46.65 13.9 48.4 13.7 48.95 12.35 M48.1 48.55 L47.7 49.65 Q46.8 49.75 46.3 49.2 L48.1 48.55 M35.55 23.9 L35.35 25.1 Q34.65 36.55 35.4 48.0 L35.0 47.8 Q33.2 47.3 32.2 48.6 31.7 47.3 31.7 45.7 31.65 43.75 31.85 41.85 32.7 32.75 32.05 23.7 L32.2 23.85 Q33.9 25.2 35.55 23.9 M20.1 34.85 L23.2 34.9 23.55 48.15 20.8 48.1 20.1 34.85 M9.05 43.7 Q8.8 41.5 10.2 39.95 L11.4 40.05 11.6 40.3 Q12.3 41.75 12.0 43.35 L11.45 43.15 Q10.1 42.75 9.05 43.7 M11.75 47.7 L11.4 52.4 Q10.75 52.65 10.4 52.15 8.85 50.0 9.05 47.25 10.7 48.45 11.75 47.7" fill="#c7abb9" fill-rule="evenodd" stroke="none"/>
      <path d="M40.95 5.25 L40.85 7.15 Q31.5 2.15 21.3 5.15 11.65 8.15 7.05 17.05 1.4 28.1 6.05 39.7 L6.35 41.05 6.5 43.3 Q2.2 37.0 2.0 28.6 2.3 17.35 9.8 9.9 17.25 2.4 28.5 2.1 35.45 2.3 40.95 5.25 M41.0 14.95 L41.95 38.3 39.25 40.75 Q39.05 29.85 39.9 19.05 40.15 15.65 37.2 14.75 33.5 13.75 30.2 15.55 L28.85 16.2 29.3 44.85 27.4 45.1 Q27.1 37.6 27.45 30.1 27.6 26.9 24.6 26.45 L21.6 26.15 Q19.55 26.25 17.8 27.05 L16.8 27.7 17.4 42.55 15.9 41.9 15.3 38.55 14.45 37.8 12.05 37.4 10.7 34.3 Q8.2 28.0 11.6 22.15 16.7 14.25 25.95 12.6 30.25 11.95 35.2 12.55 38.6 13.0 41.0 14.95 M50.85 42.75 Q50.6 40.15 51.5 38.1 53.35 33.65 53.2 28.65 53.15 26.45 52.6 24.4 51.5 20.6 52.05 16.5 54.75 21.85 54.95 28.6 54.75 36.6 50.85 42.75 M38.55 53.05 L38.7 51.3 41.85 49.6 41.95 51.4 38.55 53.05 M25.95 54.9 L26.6 53.3 29.45 53.4 29.55 53.85 Q29.8 54.75 30.85 54.9 L25.95 54.9 M15.15 51.45 L15.1 49.4 17.25 50.65 Q17.2 51.75 17.3 52.6 L15.15 51.45" fill="#e3d7d7" fill-rule="evenodd" stroke="none"/>
    </g>
    <g id="text0" transform="matrix(1.0, 0.0, 0.0, 1.0, -1.5, -7.15)">
      <g transform="matrix(1.0, 0.0, 0.0, 1.0, 0.0, 0.0)">
        <use fill="#ffffff" height="21.65" transform="matrix(0.5859, 0.0, 0.0, 0.5859, 0.0, 26.0)" width="94.45" xlink:href="#font_______W7_F0"/>
        <use fill="#ffffff" height="21.65" transform="matrix(0.5859, 0.0, 0.0, 0.5859, 19.2, 26.0)" width="94.45" xlink:href="#font_______W7_l0"/>
        <use fill="#ffffff" height="21.65" transform="matrix(0.5859, 0.0, 0.0, 0.5859, 30.2, 26.0)" width="94.45" xlink:href="#font_______W7_u0"/>
        <use fill="#ffffff" height="21.65" transform="matrix(0.5859, 0.0, 0.0, 0.5859, 47.1, 26.0)" width="94.45" xlink:href="#font_______W7_n0"/>
        <use fill="#ffffff" height="21.65" transform="matrix(0.5859, 0.0, 0.0, 0.5859, 64.15, 26.0)" width="94.45" xlink:href="#font_______W7_k0"/>
        <use fill="#ffffff" height="21.65" transform="matrix(0.5859, 0.0, 0.0, 0.5859, 81.4, 26.0)" width="94.45" xlink:href="#font_______W7_y0"/>
      </g>
    </g>
    <g id="font_______W7_F0">
      <path d="M30.3 -31.55 L30.3 -31.55 10.45 -29.1 10.2 -31.5 5.3 -32.15 2.55 0.05 13.15 -1.1 12.2 -11.25 30.3 -11.25 28.75 -18.75 11.65 -16.25 10.9 -24.05 31.8 -24.05 30.3 -31.55" fill-rule="evenodd" stroke="none"/>
    </g>
    <g id="font_______W7_l0">
      <path d="M11.6 -31.5 L11.6 -31.5 6.9 -32.15 4.35 0.05 14.4 -1.4 11.6 -31.5" fill-rule="evenodd" stroke="none"/>
    </g>
    <g id="font_______W7_u0">
      <path d="M24.1 -20.75 L24.1 -20.75 19.25 -21.45 17.9 -8.95 16.15 -11.65 Q13.35 -8.1 10.6 -8.1 9.0 -8.1 8.15 -9.4 7.25 -10.65 7.25 -12.3 7.25 -15.75 8.6 -19.75 L3.9 -21.15 Q2.05 -16.35 2.05 -11.4 2.05 -6.45 4.25 -3.4 6.75 0.05 11.5 0.05 14.55 0.05 17.1 -1.5 L16.95 0.1 26.8 -1.35 24.1 -20.75" fill-rule="evenodd" stroke="none"/>
    </g>
    <g id="font_______W7_n0">
      <path d="M27.0 -9.05 L27.0 -9.05 Q27.0 -14.5 24.65 -17.8 21.9 -21.45 16.6 -21.45 12.6 -21.45 9.45 -18.85 L9.2 -20.75 4.35 -21.45 2.05 0.05 11.95 -1.4 10.35 -12.55 Q12.95 -15.85 15.9 -15.85 19.4 -15.85 19.4 -10.6 19.4 -6.9 16.6 -1.3 L26.2 0.0 Q27.0 -6.5 27.0 -9.05" fill-rule="evenodd" stroke="none"/>
    </g>
    <g id="font_______W7_k0">
      <path d="M20.35 -12.2 L20.35 -12.2 26.9 -17.9 24.8 -21.8 10.85 -14.65 9.3 -31.45 4.6 -32.15 2.05 0.05 12.1 -1.4 11.35 -9.1 13.25 -6.05 15.8 -8.25 22.05 0.25 28.6 -6.95 20.35 -12.2" fill-rule="evenodd" stroke="none"/>
    </g>
    <g id="font_______W7_y0">
      <path d="M21.2 -21.45 L21.2 -21.45 13.15 -10.8 3.65 -21.45 0.5 -19.75 8.5 -4.7 4.3 0.85 12.5 4.75 24.85 -19.65 21.2 -21.45" fill-rule="evenodd" stroke="none"/>
    </g>
    <g id="text1" transform="matrix(1.0, 0.0, 0.0, 1.0, -1.5, -7.15)">
      <g transform="matrix(1.0, 0.0, 0.0, 1.0, 0.0, 0.0)">
        <use fill="#ffffff" height="18.95" transform="matrix(0.5859, 0.0, 0.0, 0.5859, 0.0, 26.0)" width="191.5" xlink:href="#font_______W7_B0"/>
        <use fill="#ffffff" height="18.95" transform="matrix(0.5859, 0.0, 0.0, 0.5859, 21.05, 26.0)" width="191.5" xlink:href="#font_______W7_o0"/>
        <use fill="#ffffff" height="18.95" transform="matrix(0.5859, 0.0, 0.0, 0.5859, 37.2, 26.0)" width="191.5" xlink:href="#font_______W7_t0"/>
        <use fill="#ffffff" height="18.95" transform="matrix(0.5859, 0.0, 0.0, 0.5859, 51.4, 26.0)" width="191.5" xlink:href="#font_______W7_t0"/>
        <use fill="#ffffff" height="18.95" transform="matrix(0.5859, 0.0, 0.0, 0.5859, 65.6, 26.0)" width="191.5" xlink:href="#font_______W7_o0"/>
        <use fill="#ffffff" height="18.95" transform="matrix(0.5859, 0.0, 0.0, 0.5859, 81.7, 26.0)" width="191.5" xlink:href="#font_______W7_m0"/>
        <use fill="#ffffff" height="18.95" transform="matrix(0.5859, 0.0, 0.0, 0.5859, 103.65, 26.0)" width="191.5" xlink:href="#font_______W7_f0"/>
        <use fill="#ffffff" height="18.95" transform="matrix(0.5859, 0.0, 0.0, 0.5859, 114.55, 26.0)" width="191.5" xlink:href="#font_______W7_e0"/>
        <use fill="#ffffff" height="18.95" transform="matrix(0.5859, 0.0, 0.0, 0.5859, 131.35, 26.0)" width="191.5" xlink:href="#font_______W7_e0"/>
        <use fill="#ffffff" height="18.95" transform="matrix(0.5859, 0.0, 0.0, 0.5859, 148.1, 26.0)" width="191.5" xlink:href="#font_______W7_d0"/>
        <use fill="#ffffff" height="18.95" transform="matrix(0.5859, 0.0, 0.0, 0.5859, 165.5, 26.0)" width="191.5" xlink:href="#font_______W7_e0"/>
        <use fill="#ffffff" height="18.95" transform="matrix(0.5859, 0.0, 0.0, 0.5859, 182.3, 26.0)" width="191.5" xlink:href="#font_______W7_r0"/>
      </g>
    </g>
    <g id="font_______W7_B0">
      <path d="M25.75 -11.3 L25.75 -11.3 Q25.75 -8.4 21.9 -8.4 18.5 -8.4 14.4 -12.15 L12.5 -7.75 11.95 -13.45 Q15.45 -15.85 18.95 -15.85 21.25 -15.85 23.3 -14.7 25.75 -13.4 25.75 -11.3 M23.15 -23.7 L23.15 -23.7 Q23.15 -22.05 21.2 -20.35 L19.0 -20.45 Q15.05 -20.45 11.45 -18.65 L10.85 -24.45 Q15.3 -26.5 18.75 -26.5 L21.55 -25.95 Q23.15 -25.2 23.15 -23.7 M33.9 -10.25 L33.9 -10.25 Q33.9 -14.55 29.85 -17.3 32.05 -20.45 32.05 -23.5 32.05 -27.75 28.35 -29.85 25.45 -31.6 20.9 -31.6 14.3 -31.6 10.4 -29.6 L10.2 -31.55 5.3 -32.15 2.55 0.05 13.15 -1.1 13.05 -2.3 Q17.4 -0.6 21.5 -0.6 26.1 -0.6 29.75 -3.05 33.9 -5.85 33.9 -10.25" fill-rule="evenodd" stroke="none"/>
    </g>
    <g id="font_______W7_o0">
      <path d="M15.8 -13.5 L15.8 -13.5 Q16.45 -11.85 16.45 -10.4 16.45 -6.85 12.35 -6.85 10.6 -6.85 9.35 -8.05 8.15 -9.35 8.15 -11.05 8.15 -13.25 9.8 -14.6 11.4 -16.0 13.7 -16.0 16.1 -16.0 18.3 -14.3 L15.8 -13.5 M25.7 -11.4 L25.7 -11.4 Q25.7 -13.8 24.75 -16.35 L21.25 -15.25 22.7 -17.2 Q18.35 -21.45 13.15 -21.45 8.45 -21.45 5.1 -18.2 1.8 -14.95 1.8 -10.3 1.8 -5.5 5.4 -2.65 8.65 0.05 13.65 0.05 18.75 0.05 22.2 -3.2 25.7 -6.4 25.7 -11.4" fill-rule="evenodd" stroke="none"/>
    </g>
    <g id="font_______W7_t0">
      <path d="M18.7 -12.2 L18.7 -12.2 Q17.0 -9.35 14.9 -9.35 11.95 -9.35 11.95 -15.4 L21.65 -15.4 20.1 -22.55 12.4 -21.45 Q12.75 -24.2 13.6 -27.95 L8.95 -28.85 Q7.75 -24.65 7.1 -20.75 L0.75 -19.9 1.75 -15.4 6.55 -15.4 6.5 -12.55 Q6.5 -6.8 7.75 -4.05 9.5 0.05 14.55 0.05 19.1 0.05 23.25 -4.15 L18.7 -12.2" fill-rule="evenodd" stroke="none"/>
    </g>
    <g id="font_______W7_m0">
      <path d="M35.35 -9.0 L35.35 -9.0 Q35.35 -21.45 27.8 -21.45 24.2 -21.45 21.15 -18.8 19.2 -21.45 15.65 -21.45 12.4 -21.45 9.45 -19.2 L9.25 -20.75 4.35 -21.45 2.05 0.05 11.95 -1.4 10.25 -13.85 Q12.25 -15.8 13.75 -15.8 16.4 -15.8 16.4 -11.2 16.4 -8.95 15.2 -5.8 L12.95 -0.75 22.1 0.1 Q23.3 -4.75 23.3 -9.55 23.3 -12.35 22.95 -14.3 24.5 -15.7 25.75 -15.7 28.25 -15.7 28.25 -11.2 28.25 -7.95 25.1 -0.65 L34.25 0.2 Q35.35 -4.25 35.35 -9.0" fill-rule="evenodd" stroke="none"/>
    </g>
    <g id="font_______W7_f0">
      <path d="M16.3 -23.5 L16.3 -23.5 11.45 -22.7 Q11.8 -25.5 12.65 -26.6 13.65 -27.85 16.3 -27.85 L17.0 -27.85 16.25 -32.0 14.1 -32.15 Q5.9 -32.15 5.05 -21.65 L1.3 -20.95 2.15 -16.7 4.55 -16.7 Q4.1 -5.65 4.1 -0.95 L13.95 0.05 Q11.85 -9.65 11.45 -16.65 L17.3 -16.6 16.3 -23.5" fill-rule="evenodd" stroke="none"/>
    </g>
    <g id="font_______W7_e0">
      <path d="M19.45 -9.9 L19.45 -9.9 Q16.75 -7.55 13.6 -7.55 10.45 -7.55 9.15 -9.9 L19.45 -9.9 M9.0 -13.4 L9.0 -13.4 Q9.7 -14.95 11.5 -15.95 13.2 -16.8 15.1 -16.8 18.05 -16.8 19.65 -14.35 L9.0 -13.4 M23.25 -9.9 L23.25 -9.9 24.3 -9.9 26.7 -12.6 Q25.85 -16.7 22.9 -19.1 19.9 -21.45 15.15 -21.45 9.65 -21.45 5.9 -18.65 1.8 -15.6 1.8 -10.4 1.8 -5.35 5.8 -2.5 9.3 0.05 14.6 0.05 22.45 0.05 27.15 -4.25 L23.25 -9.9" fill-rule="evenodd" stroke="none"/>
    </g>
    <g id="font_______W7_d0">
      <path d="M18.35 -8.95 L18.35 -8.95 16.8 -11.9 Q14.75 -9.45 12.45 -9.45 10.9 -9.45 10.0 -10.4 9.1 -11.4 9.1 -12.95 9.1 -14.5 10.7 -15.6 12.15 -16.5 13.7 -16.5 16.6 -16.5 18.8 -14.55 L18.35 -8.95 M24.9 -31.55 L24.9 -31.55 20.15 -32.2 19.15 -19.55 Q16.05 -21.45 12.65 -21.45 8.15 -21.45 4.95 -18.25 1.8 -15.0 1.8 -10.5 1.8 -6.05 4.6 -3.05 7.4 0.05 11.85 0.05 14.65 0.05 17.7 -1.5 L17.6 0.0 27.65 -1.45 24.9 -31.55" fill-rule="evenodd" stroke="none"/>
    </g>
    <g id="font_______W7_r0">
      <path d="M18.3 -20.6 L18.3 -20.6 Q16.55 -21.45 14.75 -21.45 11.5 -21.45 8.7 -18.65 L8.45 -20.75 4.45 -21.45 2.55 0.05 10.65 -1.4 9.3 -12.8 Q10.55 -14.85 12.3 -14.85 13.25 -14.85 14.55 -13.85 L16.55 -12.05 18.3 -20.6" fill-rule="evenodd" stroke="none"/>
    </g>
    <g id="text2" transform="matrix(1.0, 0.0, 0.0, 1.0, 11.65, -7.15)">
      <g transform="matrix(1.0, 0.0, 0.0, 1.0, -12.65, 0.0)">
        <use fill="#ffffff" height="21.65" transform="matrix(0.5859, 0.0, 0.0, 0.5859, 0.0, 26.0)" width="181.7" xlink:href="#font_______W7_S0"/>
        <use fill="#ffffff" height="21.65" transform="matrix(0.5859, 0.0, 0.0, 0.5859, 18.7, 26.0)" width="181.7" xlink:href="#font_______W7_h0"/>
        <use fill="#ffffff" height="21.65" transform="matrix(0.5859, 0.0, 0.0, 0.5859, 35.35, 26.0)" width="181.7" xlink:href="#font_______W7_o0"/>
        <use fill="#ffffff" height="21.65" transform="matrix(0.5859, 0.0, 0.0, 0.5859, 50.5, 26.0)" width="181.7" xlink:href="#font_______W7_r0"/>
        <use fill="#ffffff" height="21.65" transform="matrix(0.5859, 0.0, 0.0, 0.5859, 60.7, 26.0)" width="181.7" xlink:href="#font_______W7_t0"/>
        <use fill="#ffffff" height="21.65" transform="matrix(0.5859, 0.0, 0.0, 0.5859, 82.9, 26.0)" width="181.7" xlink:href="#font_______W7_C0"/>
        <use fill="#ffffff" height="21.65" transform="matrix(0.5859, 0.0, 0.0, 0.5859, 102.1, 26.0)" width="181.7" xlink:href="#font_______W7_h0"/>
        <use fill="#ffffff" height="21.65" transform="matrix(0.5859, 0.0, 0.0, 0.5859, 118.75, 26.0)" width="181.7" xlink:href="#font_______W7_a0"/>
        <use fill="#ffffff" height="21.65" transform="matrix(0.5859, 0.0, 0.0, 0.5859, 135.0, 26.0)" width="181.7" xlink:href="#font_______W7_n0"/>
        <use fill="#ffffff" height="21.65" transform="matrix(0.5859, 0.0, 0.0, 0.5859, 151.05, 26.0)" width="181.7" xlink:href="#font_______W7_g0"/>
        <use fill="#ffffff" height="21.65" transform="matrix(0.5859, 0.0, 0.0, 0.5859, 166.7, 26.0)" width="181.7" xlink:href="#font_______W7_e0"/>
      </g>
    </g>
    <g id="font_______W7_S0">
      <path d="M31.55 -9.25 L31.55 -9.25 Q31.55 -13.4 28.3 -15.85 25.95 -17.65 19.7 -19.75 10.7 -22.75 10.7 -24.2 10.7 -25.4 11.9 -26.1 13.0 -26.75 14.65 -26.75 21.7 -26.75 27.4 -23.2 L30.25 -27.8 Q24.05 -32.15 16.75 -32.15 11.9 -32.15 8.45 -30.45 4.0 -28.25 4.0 -23.9 4.0 -20.3 7.85 -18.05 9.4 -17.1 15.9 -14.75 23.85 -11.9 23.85 -10.1 23.85 -8.7 22.45 -7.9 21.25 -7.25 19.75 -7.25 15.9 -7.25 12.1 -9.95 8.85 -12.25 6.35 -15.9 L1.55 -6.1 Q4.85 -3.25 9.45 -1.6 14.1 0.05 18.65 0.05 23.45 0.05 27.15 -2.15 31.55 -4.75 31.55 -9.25" fill-rule="evenodd" stroke="none"/>
    </g>
    <g id="font_______W7_h0">
      <path d="M28.1 -7.6 L28.1 -7.6 Q28.1 -13.7 25.7 -17.25 22.9 -21.45 17.05 -21.45 13.35 -21.45 10.45 -19.3 L9.3 -31.55 4.65 -32.15 2.05 0.05 12.1 -1.4 11.0 -12.9 Q13.45 -15.95 16.35 -15.95 20.1 -15.95 20.1 -10.2 20.1 -6.55 17.6 -1.55 L27.6 0.05 28.1 -7.6" fill-rule="evenodd" stroke="none"/>
    </g>
    <g id="font_______W7_C0">
      <path d="M26.2 -15.4 L26.2 -15.4 Q21.6 -8.3 16.1 -8.3 12.35 -8.3 10.4 -10.7 8.6 -12.9 8.6 -16.75 8.6 -21.2 11.05 -23.95 13.55 -26.6 17.95 -26.6 23.65 -26.6 27.3 -22.25 L31.1 -26.05 Q28.65 -28.9 25.1 -30.55 21.55 -32.15 17.8 -32.15 10.8 -32.15 6.45 -27.4 2.05 -22.7 2.05 -15.6 2.05 -8.95 6.35 -4.45 10.7 0.05 17.3 0.05 25.6 0.05 32.65 -7.35 L26.2 -15.4" fill-rule="evenodd" stroke="none"/>
    </g>
    <g id="font_______W7_a0">
      <path d="M19.05 -8.85 L19.05 -8.85 18.5 -5.05 17.1 -9.0 Q14.35 -6.2 10.6 -6.2 9.95 -6.2 9.45 -6.75 9.0 -7.2 9.0 -7.85 9.0 -10.2 13.7 -10.2 15.9 -10.2 19.05 -8.85 M27.4 -6.8 L27.4 -6.8 Q27.4 -21.45 13.35 -21.45 7.15 -21.45 2.55 -18.35 L4.3 -14.35 Q8.3 -16.55 13.15 -16.55 17.85 -16.55 18.85 -13.35 15.4 -14.5 12.8 -14.5 8.6 -14.5 5.6 -12.8 1.8 -10.75 1.8 -6.95 1.8 -3.5 4.9 -1.55 7.55 0.05 11.15 0.05 13.95 0.05 17.35 -0.95 L17.0 0.15 26.7 -0.3 Q27.4 -3.45 27.4 -6.8" fill-rule="evenodd" stroke="none"/>
    </g>
    <g id="font_______W7_g0">
      <path d="M21.25 -12.75 L21.25 -12.75 21.05 -10.5 18.9 -14.7 Q15.2 -11.7 11.9 -11.7 10.85 -11.7 10.0 -12.55 9.05 -13.45 9.05 -14.45 9.05 -16.75 13.35 -16.75 15.6 -16.75 18.05 -15.7 20.3 -14.7 21.2 -13.55 L21.25 -12.75 M26.3 -10.4 L26.3 -10.4 Q26.3 -15.45 24.2 -21.5 L20.0 -20.3 20.3 -19.15 Q16.35 -21.45 12.1 -21.45 8.15 -21.45 5.4 -19.3 2.35 -16.95 2.35 -13.2 2.35 -9.45 5.85 -7.35 8.8 -5.6 12.75 -5.6 16.55 -5.6 19.75 -6.9 17.8 -3.95 13.25 -3.95 8.55 -3.95 4.75 -6.35 L1.8 2.9 Q6.7 4.75 11.2 4.75 18.25 4.75 22.25 0.65 26.3 -3.4 26.3 -10.4" fill-rule="evenodd" stroke="none"/>
    </g>
    <g id="text3" transform="matrix(1.0, 0.0, 0.0, 1.0, -1.2, -7.15)">
      <g transform="matrix(1.0, 0.0, 0.0, 1.0, 0.0, 0.0)">
        <use fill="#ffffff" height="18.95" transform="matrix(0.5859, 0.0, 0.0, 0.5859, 0.0, 26.0)" width="160.35" xlink:href="#font_______W7_C0"/>
        <use fill="#ffffff" height="18.95" transform="matrix(0.5859, 0.0, 0.0, 0.5859, 20.2, 26.0)" width="160.35" xlink:href="#font_______W7_o0"/>
        <use fill="#ffffff" height="18.95" transform="matrix(0.5859, 0.0, 0.0, 0.5859, 36.3, 26.0)" width="160.35" xlink:href="#font_______W7_l0"/>
        <use fill="#ffffff" height="18.95" transform="matrix(0.5859, 0.0, 0.0, 0.5859, 47.3, 26.0)" width="160.35" xlink:href="#font_______W7_d0"/>
        <use fill="#ffffff" height="18.95" transform="matrix(0.5859, 0.0, 0.0, 0.5859, 74.7, 26.0)" width="160.35" xlink:href="#font_______W7_C0"/>
        <use fill="#ffffff" height="18.95" transform="matrix(0.5859, 0.0, 0.0, 0.5859, 94.9, 26.0)" width="160.35" xlink:href="#font_______W7_a0"/>
        <use fill="#ffffff" height="18.95" transform="matrix(0.5859, 0.0, 0.0, 0.5859, 112.15, 26.0)" width="160.35" xlink:href="#font_______W7_l0"/>
        <use fill="#ffffff" height="18.95" transform="matrix(0.5859, 0.0, 0.0, 0.5859, 123.15, 26.0)" width="160.35" xlink:href="#font_______W7_l0"/>
        <use fill="#ffffff" height="18.95" transform="matrix(0.5859, 0.0, 0.0, 0.5859, 134.1, 26.0)" width="160.35" xlink:href="#font_______W7_e0"/>
        <use fill="#ffffff" height="18.95" transform="matrix(0.5859, 0.0, 0.0, 0.5859, 150.85, 26.0)" width="160.35" xlink:href="#font_______W7_r0"/>
      </g>
    </g>
  </defs>
</svg>
