<?xml version="1.0" encoding="UTF-8" standalone="no"?>
<svg xmlns:xlink="http://www.w3.org/1999/xlink" height="323.05px" width="595.1px" xmlns="http://www.w3.org/2000/svg">
  <g transform="matrix(1.0, 0.0, 0.0, 1.0, 68.25, 14.45)">
    <use height="260.7" transform="matrix(0.7108, -0.0905, 0.0905, 0.7108, 49.9207, 37.0473)" width="129.45" xlink:href="#shape0"/>
    <use height="62.9" transform="matrix(0.6389, -0.0814, 0.0814, 0.6389, 92.3458, 147.4378)" width="60.15" xlink:href="#shape1"/>
    <use height="253.75" transform="matrix(0.6821, 0.0, 0.0, 0.6821, 172.3, 29.0)" width="123.4" xlink:href="#shape2"/>
    <use height="59.15" transform="matrix(0.6821, 0.0, 0.0, 0.6821, 195.7341, 131.6)" width="57.15" xlink:href="#shape3"/>
    <use height="250.0" transform="matrix(0.6346, 0.0808, -0.0808, 0.6346, 406.35, 46.65)" width="139.7" xlink:href="#shape4"/>
    <use height="57.25" transform="matrix(0.6763, 0.0861, -0.0861, 0.6763, 421.7176, 144.2586)" width="57.1" xlink:href="#shape5"/>
    <use height="280.1" transform="matrix(0.681, 0.0359, -0.0359, 0.681, 270.4, 32.15)" width="195.0" xlink:href="#shape6"/>
    <use height="57.2" transform="matrix(0.681, 0.0359, -0.0359, 0.681, 312.6167, 147.7771)" width="56.95" xlink:href="#shape7"/>
    <use height="47.75" transform="matrix(0.6574, 0.0, 0.0, 0.6574, 183.5416, 210.2572)" width="90.05" xlink:href="#text0"/>
    <use height="47.65" transform="matrix(0.6564, 0.0346, -0.0346, 0.6564, 292.6804, 232.1508)" width="100.8" xlink:href="#text1"/>
    <use height="17.75" transform="matrix(0.6518, 0.083, -0.083, 0.6518, 396.4798, 212.355)" width="177.0" xlink:href="#text2"/>
    <use height="47.65" transform="matrix(0.6496, -0.0971, 0.0971, 0.6496, 94.6309, 226.4714)" width="89.9" xlink:href="#text3"/>
  </g>
  <defs>
    <g id="shape0" transform="matrix(1.0, 0.0, 0.0, 1.0, 1.5, 1.25)">
      <path d="M9.3 250.05 L9.55 250.15 Q9.75 252.75 7.05 253.5 4.75 254.05 3.75 252.1 3.1 250.85 3.1 249.5 L3.65 250.9 4.15 251.45 4.55 251.55 4.15 251.5 Q5.0 252.25 6.3 252.3 8.7 252.1 9.3 250.05 M4.7 248.15 Q3.75 249.5 3.65 250.9 3.7 249.5 4.65 248.15 L4.7 248.15" fill="#47525f" fill-rule="evenodd" stroke="none"/>
      <path d="M3.6 247.55 L4.7 248.05 4.65 248.15 Q3.7 249.5 3.65 250.9 L3.1 249.5 Q3.1 248.35 3.6 247.55" fill="#e9e9eb" fill-rule="evenodd" stroke="none"/>
      <path d="M4.7 248.05 L8.45 249.7 Q8.45 250.45 7.35 251.0 6.2 251.55 4.6 251.55 L4.55 251.55 4.15 251.45 3.65 250.9 Q3.75 249.5 4.7 248.15 L4.7 248.05" fill="#d0cfd0" fill-rule="evenodd" stroke="none"/>
      <path d="M8.45 249.7 L9.3 250.05 Q8.7 252.1 6.3 252.3 5.0 252.25 4.15 251.5 L4.55 251.55 4.6 251.55 Q6.2 251.55 7.35 251.0 8.45 250.45 8.45 249.7" fill="#b0aeb3" fill-rule="evenodd" stroke="none"/>
      <path d="M63.35 34.1 L67.0 10.4 70.2 34.25 Q68.65 35.75 68.45 38.05 68.25 40.1 66.55 40.95 L66.4 39.45 Q65.9 35.95 63.35 34.1 M46.0 135.55 L35.4 127.8 47.65 122.35 59.3 164.25 40.85 143.75 46.0 136.7 46.0 135.55 M80.5 139.65 L85.9 144.95 66.65 163.8 84.25 121.8 94.05 126.35 80.45 138.85 80.5 139.65 M17.2 132.8 L32.05 129.15 42.45 136.5 Q40.05 139.7 37.8 143.0 L37.5 143.95 37.55 144.4 37.8 144.85 59.6 169.05 60.9 172.65 59.45 256.2 32.15 256.05 31.95 251.2 34.65 248.85 34.2 240.15 31.55 238.35 32.25 232.3 31.2 230.8 27.6 160.15 15.4 143.95 17.2 132.8 M14.4 147.55 L24.65 160.75 28.0 227.6 20.95 220.65 20.45 220.25 19.75 220.2 Q14.35 221.05 9.85 223.5 5.95 225.65 2.9 229.4 L1.5 213.45 4.55 179.4 14.4 147.55 M84.15 139.3 L97.05 127.75 113.15 134.85 114.9 137.65 102.4 154.55 99.4 229.8 97.35 232.3 98.2 238.25 Q96.05 238.65 95.7 240.6 95.0 244.3 94.75 248.15 L94.8 248.55 99.05 252.3 98.85 256.45 62.45 256.25 64.05 170.55 89.1 146.0 89.3 144.15 84.15 139.3 M115.85 141.35 L122.85 180.85 124.3 226.5 121.0 222.3 120.05 221.75 109.8 220.2 109.1 220.25 108.5 220.6 102.5 226.6 105.4 155.15 115.85 141.35" fill="#591f0b" fill-rule="evenodd" stroke="none"/>
      <path d="M55.5 139.35 L59.25 131.3 61.15 135.25 56.4 142.65 55.5 139.35 M54.3 134.95 L50.95 122.95 58.35 126.2 54.3 134.95 M73.4 126.0 L80.6 122.75 76.5 132.55 73.4 126.0 M73.3 140.2 L69.35 135.4 72.45 131.1 74.95 136.25 73.3 140.2" fill="#d1b8a2" fill-rule="evenodd" stroke="none"/>
      <path d="M63.35 34.1 Q65.9 35.95 66.4 39.45 L66.55 40.95 Q68.25 40.1 68.45 38.05 68.65 35.75 70.2 34.25 L74.65 66.9 Q72.6 67.75 70.05 70.1 L66.25 73.65 66.2 73.75 65.45 73.75 Q64.75 70.75 61.2 68.4 L58.35 66.6 63.35 34.1 M63.35 73.75 L59.2 74.05 59.0 75.15 59.55 75.7 62.95 75.75 Q62.8 80.85 60.4 85.65 L60.55 86.05 61.55 86.5 Q63.65 84.95 64.2 82.35 64.85 79.0 64.95 75.75 L66.75 75.75 Q66.65 81.6 69.75 86.05 L70.2 86.5 71.3 85.65 Q69.55 82.6 69.1 79.05 L68.75 75.75 72.05 75.7 72.65 74.75 72.05 73.85 69.0 73.75 74.9 69.0 80.1 107.5 Q75.6 99.3 68.5 93.45 67.3 92.5 65.8 92.3 L64.3 92.4 Q61.2 93.9 59.0 96.9 55.15 102.25 52.0 108.0 L58.05 68.7 61.3 70.95 63.35 73.75 M65.4 93.85 Q76.85 101.9 80.85 115.55 L81.8 118.9 67.5 125.35 50.3 119.35 Q53.55 106.8 62.0 97.0 63.6 95.1 65.4 93.85" fill="#ae8367" fill-rule="evenodd" stroke="none"/>
      <path d="M3.6 247.55 L2.35 246.55 2.1 246.0 1.55 243.95 1.05 242.8 -1.5 213.6 1.55 179.05 12.4 143.9 15.15 130.55 Q31.6 126.25 47.25 119.25 L65.6 -0.2 66.35 -1.2 67.6 -1.25 68.55 -0.2 84.8 118.8 Q97.8 124.95 110.95 130.85 112.95 131.8 114.55 133.25 116.6 135.1 118.2 137.5 L125.85 180.45 127.95 245.65 127.75 246.5 104.75 256.45 101.95 254.55 101.2 258.95 100.3 259.45 30.0 258.85 29.05 253.45 Q27.6 255.5 25.15 255.55 16.8 254.5 9.55 250.15 L9.3 250.05 8.45 249.7 4.7 248.05 3.6 247.55 M70.2 34.25 L67.0 10.4 63.35 34.1 58.35 66.6 61.2 68.4 Q64.75 70.75 65.45 73.75 L66.2 73.75 66.25 73.65 70.05 70.1 Q72.6 67.75 74.65 66.9 L70.2 34.25 M65.4 93.85 Q63.6 95.1 62.0 97.0 53.55 106.8 50.3 119.35 L67.5 125.35 81.8 118.9 80.85 115.55 Q76.85 101.9 65.4 93.85 M63.35 73.75 L61.3 70.95 58.05 68.7 52.0 108.0 Q55.15 102.25 59.0 96.9 61.2 93.9 64.3 92.4 L65.8 92.3 Q67.3 92.5 68.5 93.45 75.6 99.3 80.1 107.5 L74.9 69.0 69.0 73.75 72.05 73.85 72.65 74.75 72.05 75.7 68.75 75.75 69.1 79.05 Q69.55 82.6 71.3 85.65 L70.2 86.5 69.75 86.05 Q66.65 81.6 66.75 75.75 L64.95 75.75 Q64.85 79.0 64.2 82.35 63.65 84.95 61.55 86.5 L60.55 86.05 60.4 85.65 Q62.8 80.85 62.95 75.75 L59.55 75.7 59.0 75.15 59.2 74.05 63.35 73.75 M54.3 134.95 L58.35 126.2 50.95 122.95 54.3 134.95 M55.5 139.35 L56.4 142.65 61.15 135.25 59.25 131.3 55.5 139.35 M46.0 135.55 L46.0 136.7 40.85 143.75 59.3 164.25 47.65 122.35 35.4 127.8 46.0 135.55 M73.4 126.0 L76.5 132.55 80.6 122.75 73.4 126.0 M67.25 137.55 L63.7 136.85 57.5 146.55 62.75 165.4 72.0 143.35 67.25 137.55 M61.55 126.45 L60.9 127.8 63.75 133.8 66.45 134.3 70.95 128.0 70.6 127.25 Q69.1 128.55 67.1 128.2 L61.55 126.45 M73.3 140.2 L74.95 136.25 72.45 131.1 69.35 135.4 73.3 140.2 M115.85 141.35 L105.4 155.15 102.5 226.6 108.5 220.6 109.1 220.25 109.8 220.2 120.05 221.75 121.0 222.3 124.3 226.5 122.85 180.85 115.85 141.35 M84.15 139.3 L89.3 144.15 89.1 146.0 64.05 170.55 62.45 256.25 98.85 256.45 99.05 252.3 94.8 248.55 94.75 248.15 Q95.0 244.3 95.7 240.6 96.05 238.65 98.2 238.25 L97.35 232.3 99.4 229.8 102.4 154.55 114.9 137.65 113.15 134.85 97.05 127.75 84.15 139.3 M14.4 147.55 L4.55 179.4 1.5 213.45 2.9 229.4 Q5.95 225.65 9.85 223.5 14.35 221.05 19.75 220.2 L20.45 220.25 20.95 220.65 28.0 227.6 24.65 160.75 14.4 147.55 M17.2 132.8 L15.4 143.95 27.6 160.15 31.2 230.8 32.25 232.3 31.55 238.35 34.2 240.15 34.65 248.85 31.95 251.2 32.15 256.05 59.45 256.2 60.9 172.65 59.6 169.05 37.8 144.85 37.55 144.4 37.5 143.95 37.8 143.0 Q40.05 139.7 42.45 136.5 L32.05 129.15 17.2 132.8 M80.5 139.65 L80.45 138.85 94.05 126.35 84.25 121.8 66.65 163.8 85.9 144.95 80.5 139.65 M15.4 233.2 L15.65 232.75 16.85 232.65 Q18.55 237.3 19.2 242.2 L26.6 242.2 29.15 232.95 19.45 223.25 10.55 224.6 5.55 230.95 4.65 244.75 24.35 253.25 31.7 247.6 31.3 241.55 30.4 241.1 28.05 245.15 21.65 245.05 Q19.85 244.75 18.8 243.3 15.35 238.85 15.4 233.2 M124.9 244.75 L124.0 230.9 119.0 224.6 110.1 223.25 100.4 232.95 Q100.8 235.8 101.55 238.55 L102.85 242.2 110.3 242.2 Q110.95 237.95 111.85 233.8 111.95 233.25 112.4 232.95 112.8 232.6 113.35 232.6 114.75 232.9 114.55 234.2 113.75 239.35 112.6 244.45 L112.1 245.15 101.85 245.25 Q101.1 245.25 100.8 244.7 L99.1 241.15 98.2 241.6 97.8 247.55 105.2 253.25 124.9 244.75" fill="#1a1a1a" fill-rule="evenodd" stroke="none"/>
      <path d="M124.9 244.75 L105.2 253.25 97.8 247.55 98.2 241.6 99.1 241.15 100.8 244.7 Q101.1 245.25 101.85 245.25 L112.1 245.15 112.6 244.45 Q113.75 239.35 114.55 234.2 114.75 232.9 113.35 232.6 112.8 232.6 112.4 232.95 111.95 233.25 111.85 233.8 110.95 237.95 110.3 242.2 L102.85 242.2 101.55 238.55 Q100.8 235.8 100.4 232.95 L110.1 223.25 119.0 224.6 124.0 230.9 124.9 244.75 M15.4 233.2 Q15.35 238.85 18.8 243.3 19.85 244.75 21.65 245.05 L28.05 245.15 30.4 241.1 31.3 241.55 31.7 247.6 24.35 253.25 4.65 244.75 5.55 230.95 10.55 224.6 19.45 223.25 29.15 232.95 26.6 242.2 19.2 242.2 Q18.55 237.3 16.85 232.65 L15.65 232.75 15.4 233.2" fill="#e6c6b0" fill-rule="evenodd" stroke="none"/>
      <path d="M61.55 126.45 L67.1 128.2 Q69.1 128.55 70.6 127.25 L70.95 128.0 66.45 134.3 63.75 133.8 60.9 127.8 61.55 126.45 M67.25 137.55 L72.0 143.35 62.75 165.4 57.5 146.55 63.7 136.85 67.25 137.55" fill="#331c1a" fill-rule="evenodd" stroke="none"/>
    </g>
    <g id="shape1" transform="matrix(1.0, 0.0, 0.0, 1.0, -0.15, 0.0)">
      <path d="M41.2 3.95 L41.15 4.0 41.3 4.0 44.35 3.65 45.1 3.6 49.85 3.3 50.1 7.7 50.1 10.1 49.75 10.45 47.5 10.8 45.55 11.05 44.6 11.15 36.4 11.95 33.15 17.35 Q38.35 28.65 45.4 38.9 L48.7 43.9 40.45 52.5 40.25 52.7 38.35 54.95 36.45 57.35 35.6 58.4 34.3 60.1 33.5 61.15 32.05 62.9 Q30.6 62.8 29.95 61.3 L29.3 60.4 28.2 58.8 27.65 57.95 26.25 56.0 25.6 55.0 Q21.25 48.5 15.35 43.2 L15.05 42.65 Q23.8 32.45 27.0 19.2 L27.55 17.35 24.35 12.1 15.95 11.2 14.75 11.05 12.8 10.8 11.4 10.55 Q10.85 10.45 10.8 10.0 L10.75 9.2 10.75 7.2 11.0 3.3 16.05 3.65 18.8 3.95 19.5 4.05 19.3 3.75 Q18.95 3.3 19.25 2.85 L19.5 2.5 23.6 2.4 36.5 2.4 41.35 2.85 41.2 3.95 M44.4 6.85 L42.0 9.25 42.85 9.45 Q44.45 9.3 44.6 7.7 L44.4 6.85 M41.3 8.5 L43.65 6.15 Q41.6 5.6 41.25 7.7 41.2 8.1 41.3 8.5 M41.15 9.85 Q40.25 9.15 40.1 7.7 40.25 6.15 41.3 5.45 L40.2 5.55 37.4 10.25 40.5 9.9 41.15 9.85 M43.9 5.2 Q45.4 5.8 45.6 7.7 L45.1 9.3 48.1 8.9 48.65 4.7 43.9 5.2 M41.95 38.2 L43.25 38.85 41.9 36.6 37.6 29.35 29.4 25.7 26.75 24.55 25.0 29.65 28.0 31.2 41.95 38.2 M41.95 42.6 Q41.05 43.25 41.3 44.35 L43.8 42.35 Q42.85 41.85 41.95 42.6 M44.15 45.15 L44.4 44.85 44.65 43.4 42.15 45.4 Q43.1 45.85 44.15 45.15 M39.1 48.25 L41.25 49.2 43.65 46.5 42.95 46.6 Q41.5 46.45 40.65 45.3 L40.2 43.85 40.4 42.95 26.4 36.65 22.6 35.0 19.65 39.65 20.85 40.15 22.1 39.8 23.45 40.4 25.05 42.0 39.1 48.25 M34.8 9.0 L35.5 9.6 38.0 5.3 36.5 4.05 35.25 4.1 29.2 4.25 34.8 9.0 M25.45 6.7 L22.5 4.4 22.0 4.4 Q24.5 8.6 27.15 12.45 28.0 13.7 29.3 14.6 L31.5 16.2 33.45 12.95 25.45 6.7 M20.7 6.0 L19.85 6.0 Q20.7 7.2 20.4 8.55 20.15 9.6 19.2 10.1 L23.4 10.5 20.7 6.0 M29.35 18.0 L28.25 20.0 29.85 20.75 34.35 22.7 32.2 18.0 29.35 18.0 M19.5 7.75 Q19.35 6.15 17.75 6.0 L16.95 6.25 19.3 8.6 19.5 7.75 M16.0 7.75 Q16.15 9.35 17.75 9.5 L18.6 9.3 16.25 6.95 Q16.05 7.25 16.0 7.75 M12.25 9.2 L15.8 9.7 Q14.6 8.25 15.3 6.7 L15.75 5.9 12.7 5.45 12.25 9.2 M23.25 41.2 L22.1 40.8 21.3 41.05 23.8 43.05 Q24.05 42.3 23.25 41.2 M20.35 42.55 Q20.5 44.15 22.1 44.3 L22.95 44.1 20.6 41.75 20.35 42.55 M25.05 47.75 L21.05 46.6 25.7 52.6 27.0 54.4 32.65 56.5 34.75 57.05 37.9 53.1 36.05 52.1 25.05 47.75" fill="#441c0c" fill-rule="evenodd" stroke="none"/>
      <path d="M41.3 4.0 L41.2 3.95 41.35 2.85 36.5 2.4 30.15 1.6 23.6 2.4 19.5 2.5 19.25 2.85 Q18.95 3.3 19.3 3.75 L18.8 3.95 16.05 3.65 Q20.25 1.5 25.0 0.6 L26.25 0.4 30.15 0.1 Q38.05 0.3 44.35 3.65 L41.3 4.0 M10.75 7.2 L10.75 9.2 9.9 10.0 Q1.8 18.1 1.5 30.25 1.8 42.4 9.9 50.5 17.35 57.95 28.2 58.8 L29.3 60.4 Q17.05 59.8 8.85 51.55 4.25 46.95 2.05 41.15 -2.2 29.0 3.1 17.3 5.8 11.45 10.75 7.2 M12.8 10.8 L14.75 11.05 Q8.85 15.8 6.5 23.15 3.4 33.0 8.5 42.1 13.6 51.25 23.55 53.95 L25.6 55.0 26.25 56.0 Q18.9 54.95 13.3 50.15 5.4 43.3 4.45 32.95 3.25 19.85 12.8 10.8 M34.3 60.1 L35.6 58.4 Q43.05 57.15 48.8 52.25 57.85 44.45 58.45 32.4 59.05 19.5 50.1 10.1 L50.1 7.7 51.45 8.95 Q60.0 17.45 60.3 30.25 60.0 43.05 51.45 51.55 44.35 58.7 34.3 60.1 M38.35 54.95 L40.25 52.7 Q51.55 47.35 54.05 35.2 56.15 25.1 50.65 16.55 48.6 13.3 45.55 11.05 L47.5 10.8 Q50.95 13.85 53.05 17.95 58.75 29.0 54.0 40.3 49.45 51.2 38.35 54.95" fill="#4f2713" fill-rule="evenodd" stroke="none"/>
      <path d="M41.3 4.0 L41.15 4.0 41.2 3.95 41.3 4.0 M36.5 2.4 L23.6 2.4 30.15 1.6 36.5 2.4 M19.3 3.75 L19.5 4.05 18.8 3.95 19.3 3.75 M10.75 9.2 L10.8 10.0 Q1.1 19.6 2.4 33.1 3.35 42.95 10.25 49.95 17.5 57.2 27.65 57.95 L28.2 58.8 Q17.35 57.95 9.9 50.5 1.8 42.4 1.5 30.25 1.8 18.1 9.9 10.0 L10.75 9.2 M35.6 58.4 L36.45 57.35 Q44.1 55.55 49.75 49.9 57.65 42.0 57.95 30.15 57.65 18.3 49.75 10.45 L50.1 10.1 Q59.05 19.5 58.45 32.4 57.85 44.45 48.8 52.25 43.05 57.15 35.6 58.4" fill="#a89678" fill-rule="evenodd" stroke="none"/>
      <path d="M45.1 3.6 L44.35 3.65 Q38.05 0.3 30.15 0.1 L26.25 0.4 30.75 0.0 Q38.75 0.2 45.1 3.6" fill="#724a30" fill-rule="evenodd" stroke="none"/>
      <path d="M41.3 8.5 Q41.2 8.1 41.25 7.7 41.6 5.6 43.65 6.15 L41.3 8.5 M44.4 6.85 L44.6 7.7 Q44.45 9.3 42.85 9.45 L42.0 9.25 44.4 6.85 M44.15 45.15 Q43.1 45.85 42.15 45.4 L44.65 43.4 44.4 44.85 44.15 45.15 M41.95 42.6 Q42.85 41.85 43.8 42.35 L41.3 44.35 Q41.05 43.25 41.95 42.6 M16.0 7.75 Q16.05 7.25 16.25 6.95 L18.6 9.3 17.75 9.5 Q16.15 9.35 16.0 7.75 M19.5 7.75 L19.3 8.6 16.95 6.25 17.75 6.0 Q19.35 6.15 19.5 7.75 M20.35 42.55 L20.6 41.75 22.95 44.1 22.1 44.3 Q20.5 44.15 20.35 42.55 M23.25 41.2 Q24.05 42.3 23.8 43.05 L21.3 41.05 22.1 40.8 23.25 41.2" fill="#d7cdbb" fill-rule="evenodd" stroke="none"/>
      <path d="M15.95 11.2 L24.35 12.1 27.55 17.35 27.0 19.2 Q23.8 32.45 15.05 42.65 L15.35 43.2 Q21.25 48.5 25.6 55.0 L23.55 53.95 22.3 52.95 Q17.25 51.25 13.4 47.45 6.8 40.95 6.55 30.8 6.8 20.6 13.4 13.55 14.6 12.25 15.95 11.2 M40.45 52.5 L48.7 43.9 45.4 38.9 Q38.35 28.65 33.15 17.35 L36.4 11.95 44.6 11.15 Q51.75 16.65 53.55 25.4 55.55 35.3 50.0 43.55 47.2 47.8 42.95 50.65 L40.45 52.5 M46.05 37.8 L48.6 41.5 Q50.4 39.45 51.3 36.9 52.6 33.25 52.4 29.4 51.85 18.25 43.0 11.75 L41.65 12.05 Q38.8 11.65 36.35 13.2 33.8 16.5 35.55 20.15 40.0 29.5 46.05 37.8 M14.45 42.25 Q18.5 37.2 21.35 31.55 L23.75 25.95 Q25.15 22.1 25.9 17.95 26.3 15.65 24.6 14.0 22.2 12.4 19.25 12.3 15.05 14.65 12.0 18.35 10.25 20.5 9.3 23.5 6.2 33.5 11.7 42.45 14.8 47.45 19.85 49.4 L18.65 48.0 Q17.45 46.65 15.95 45.75 13.95 44.4 14.45 42.25" fill="#a99b81" fill-rule="evenodd" stroke="none"/>
      <path d="M41.15 9.85 L40.5 9.9 37.4 10.25 40.2 5.55 41.3 5.45 Q40.25 6.15 40.1 7.7 40.25 9.15 41.15 9.85 M43.9 5.2 L48.65 4.7 48.1 8.9 45.1 9.3 45.6 7.7 Q45.4 5.8 43.9 5.2 M20.7 6.0 L23.4 10.5 19.2 10.1 Q20.15 9.6 20.4 8.55 20.7 7.2 19.85 6.0 L20.7 6.0 M12.25 9.2 L12.7 5.45 15.75 5.9 15.3 6.7 Q14.6 8.25 15.8 9.7 L12.25 9.2" fill="#b5a581" fill-rule="evenodd" stroke="none"/>
      <path d="M14.75 11.05 L15.95 11.2 Q14.6 12.25 13.4 13.55 6.8 20.6 6.55 30.8 6.8 40.95 13.4 47.45 17.25 51.25 22.3 52.95 L23.55 53.95 Q13.6 51.25 8.5 42.1 3.4 33.0 6.5 23.15 8.85 15.8 14.75 11.05 M40.25 52.7 L40.45 52.5 42.95 50.65 Q47.2 47.8 50.0 43.55 55.55 35.3 53.55 25.4 51.75 16.65 44.6 11.15 L45.55 11.05 Q48.6 13.3 50.65 16.55 56.15 25.1 54.05 35.2 51.55 47.35 40.25 52.7" fill="#887c64" fill-rule="evenodd" stroke="none"/>
      <path d="M10.8 10.0 Q10.85 10.45 11.4 10.55 L12.8 10.8 Q3.25 19.85 4.45 32.95 5.4 43.3 13.3 50.15 18.9 54.95 26.25 56.0 L27.65 57.95 Q17.5 57.2 10.25 49.95 3.35 42.95 2.4 33.1 1.1 19.6 10.8 10.0 M36.45 57.35 L38.35 54.95 Q49.45 51.2 54.0 40.3 58.75 29.0 53.05 17.95 50.95 13.85 47.5 10.8 L49.75 10.45 Q57.65 18.3 57.95 30.15 57.65 42.0 49.75 49.9 44.1 55.55 36.45 57.35" fill="#f0e6ca" fill-rule="evenodd" stroke="none"/>
      <path d="M36.35 13.2 Q38.8 11.65 41.65 12.05 L43.0 11.75 Q51.85 18.25 52.4 29.4 52.6 33.25 51.3 36.9 50.4 39.45 48.6 41.5 L46.05 37.8 Q50.35 29.45 46.7 20.6 43.8 13.75 36.35 13.2 M24.6 14.0 Q16.75 16.25 12.2 23.4 8.65 29.55 11.25 36.2 12.4 39.5 14.45 42.25 13.95 44.4 15.95 45.75 17.45 46.65 18.65 48.0 L19.85 49.4 Q14.8 47.45 11.7 42.45 6.2 33.5 9.3 23.5 10.25 20.5 12.0 18.35 15.05 14.65 19.25 12.3 22.2 12.4 24.6 14.0" fill="#c4b696" fill-rule="evenodd" stroke="none"/>
      <path d="M46.05 37.8 Q40.0 29.5 35.55 20.15 33.8 16.5 36.35 13.2 43.8 13.75 46.7 20.6 50.35 29.45 46.05 37.8 M24.6 14.0 Q26.3 15.65 25.9 17.95 25.15 22.1 23.75 25.95 L21.35 31.55 Q18.5 37.2 14.45 42.25 12.4 39.5 11.25 36.2 8.65 29.55 12.2 23.4 16.75 16.25 24.6 14.0" fill="#d8ceba" fill-rule="evenodd" stroke="none"/>
      <path d="M41.9 36.6 L43.25 38.85 41.95 38.2 41.9 36.6 M28.0 31.2 L25.0 29.65 26.75 24.55 29.4 25.7 28.0 31.2 M40.65 45.3 Q41.5 46.45 42.95 46.6 L43.65 46.5 41.25 49.2 39.1 48.25 40.65 45.3 M25.05 42.0 L23.45 40.4 22.1 39.8 20.85 40.15 19.65 39.65 22.6 35.0 26.4 36.65 25.05 42.0 M35.25 4.1 L36.5 4.05 38.0 5.3 35.5 9.6 34.8 9.0 35.25 4.1 M29.3 14.6 Q28.0 13.7 27.15 12.45 24.5 8.6 22.0 4.4 L22.5 4.4 25.45 6.7 26.55 8.3 Q28.7 11.05 29.3 14.6 M29.85 20.75 L28.25 20.0 29.35 18.0 29.85 20.75 M25.7 52.6 L21.05 46.6 25.05 47.75 25.7 52.6 M36.05 52.1 L37.9 53.1 34.75 57.05 32.65 56.5 36.05 52.1" fill="#af9f81" fill-rule="evenodd" stroke="none"/>
      <path d="M41.9 36.6 L41.95 38.2 28.0 31.2 29.4 25.7 37.6 29.35 41.9 36.6 M40.65 45.3 L39.1 48.25 25.05 42.0 26.4 36.65 40.4 42.95 40.2 43.85 40.65 45.3 M35.25 4.1 L34.8 9.0 29.2 4.25 35.25 4.1 M29.3 14.6 Q28.7 11.05 26.55 8.3 L25.45 6.7 33.45 12.95 31.5 16.2 29.3 14.6 M29.85 20.75 L29.35 18.0 32.2 18.0 34.35 22.7 29.85 20.75 M25.7 52.6 L25.05 47.75 36.05 52.1 32.65 56.5 27.0 54.4 25.7 52.6" fill="#c4b898" fill-rule="evenodd" stroke="none"/>
    </g>
    <g id="shape2" transform="matrix(1.0, 0.0, 0.0, 1.0, 0.0, 0.0)">
      <path d="M81.85 18.4 L82.05 9.3 72.4 2.85 50.85 2.85 43.0 10.2 43.45 16.8 45.55 46.35 46.25 45.75 Q50.15 43.05 54.2 45.8 59.3 49.3 63.3 54.25 L64.25 55.85 64.05 56.35 63.6 55.85 63.25 69.55 69.05 67.95 69.45 65.4 70.55 64.45 71.35 65.15 71.15 68.7 72.3 69.15 73.65 72.1 Q78.2 81.6 80.25 91.95 L81.85 18.4 M85.0 8.25 L85.05 8.9 82.75 113.9 Q98.15 119.25 112.15 127.25 L120.3 175.85 121.95 228.05 Q123.55 232.25 123.4 236.8 L123.15 244.35 101.55 253.55 98.1 250.3 97.5 253.1 96.5 253.55 31.8 253.55 30.85 253.1 30.2 249.35 25.45 253.75 Q14.6 249.35 4.05 243.95 L4.35 228.35 0.0 203.35 0.0 202.9 4.65 169.55 16.65 126.35 Q31.55 119.4 46.65 113.65 L39.9 9.35 44.25 5.45 Q46.4 3.65 49.05 2.85 60.95 -0.7 73.65 0.15 L85.0 8.25 M61.1 55.3 L52.8 48.55 Q50.7 46.9 48.35 47.65 L47.5 49.05 48.95 52.5 48.45 53.55 47.1 53.9 45.85 52.95 49.1 101.2 Q49.8 87.85 54.95 75.4 56.3 72.2 56.9 68.85 57.3 66.7 58.45 64.7 L59.85 64.95 59.6 68.25 61.1 69.4 61.1 55.3 M51.3 54.25 L51.7 54.0 57.9 54.2 58.45 55.1 58.05 55.8 57.1 56.1 Q56.65 56.95 55.5 57.1 54.25 56.95 54.15 56.0 L51.65 55.85 51.1 55.3 51.3 54.25 M79.05 47.4 L78.6 47.0 Q77.75 46.0 77.9 44.5 L66.6 52.25 65.8 52.15 Q64.45 50.55 66.1 49.15 72.0 43.85 79.45 41.35 81.85 42.6 80.85 45.6 L80.5 46.55 79.05 47.4 M68.95 53.75 L77.05 53.5 77.45 54.3 76.85 55.25 75.5 55.25 75.6 55.1 72.65 55.0 71.5 55.25 69.4 55.25 68.85 54.7 68.95 53.75 M70.35 69.45 L68.55 70.2 Q62.05 72.4 58.75 70.05 52.15 85.8 49.8 102.3 L49.05 101.45 49.95 114.95 Q55.2 117.15 61.0 117.6 70.8 117.8 79.75 113.85 80.3 108.1 79.65 102.05 77.85 84.85 70.35 69.45 M55.75 97.65 L56.45 96.25 Q58.3 92.75 61.35 90.45 63.85 88.5 66.8 89.75 72.65 92.2 74.85 98.15 L75.6 99.8 75.8 100.35 76.45 102.05 78.05 107.25 77.1 108.05 Q76.5 108.3 76.35 107.65 74.25 99.4 68.5 93.1 67.05 91.55 64.9 91.6 62.9 91.4 61.5 93.1 56.9 98.6 54.8 105.4 53.9 108.4 52.1 110.9 L51.0 110.0 52.45 106.6 54.25 101.6 55.75 97.65 M65.0 120.6 L63.2 120.6 62.8 126.4 65.0 126.1 65.0 120.6 M78.2 117.65 L74.8 118.9 74.25 125.8 78.2 117.65 M71.8 118.7 L68.0 120.1 67.9 128.0 70.9 129.9 71.8 118.7 M53.3 119.05 L49.8 118.05 52.9 127.45 53.3 127.15 53.3 119.05 M60.25 120.2 L56.3 119.1 56.3 129.0 59.7 127.2 60.25 120.2 M53.9 132.65 L53.3 130.75 52.95 131.0 54.45 137.15 64.3 142.55 Q68.55 138.7 71.2 133.65 L65.3 129.95 61.5 129.65 55.05 133.0 53.9 132.65 M110.0 132.45 L103.0 144.3 99.3 225.05 106.45 218.15 106.85 218.15 107.25 218.2 Q111.8 219.6 116.05 221.7 117.6 222.55 118.8 224.05 L117.3 176.2 110.0 132.45 M81.8 132.7 L86.7 136.55 87.0 137.3 86.65 138.4 54.0 179.4 54.65 250.55 95.1 250.55 95.25 247.45 92.9 244.95 Q92.85 244.35 92.95 243.85 L93.65 240.35 Q94.9 235.35 95.0 230.35 95.0 229.0 96.15 228.2 L100.0 143.75 108.7 128.7 94.4 121.25 81.8 132.7 M59.3 151.85 L61.8 154.65 66.15 144.95 59.3 151.85 M57.8 163.6 L58.7 162.5 58.55 161.95 57.8 163.6 M31.35 123.8 L19.85 127.8 28.65 152.4 32.3 229.3 Q32.7 230.4 32.75 231.7 L32.8 232.8 Q32.75 238.85 34.6 244.6 L33.1 246.5 33.25 250.55 51.65 250.55 50.65 178.5 51.85 177.0 57.5 164.3 36.3 137.7 36.05 136.65 36.35 136.2 Q39.15 133.15 42.3 130.65 L31.35 123.8 M19.35 141.75 L17.8 133.4 7.55 170.15 2.95 203.05 6.95 226.05 10.7 221.4 11.0 221.05 11.4 220.85 20.1 218.2 20.9 218.15 29.15 226.15 25.7 152.9 19.35 141.75 M62.1 144.8 L55.7 141.25 57.95 148.95 62.1 144.8 M78.15 132.45 Q78.2 132.05 78.5 131.8 L91.3 120.05 82.0 116.85 61.6 162.5 60.65 163.5 60.8 164.4 59.05 168.25 83.35 137.75 78.5 133.5 Q78.1 133.1 78.15 132.45 M46.35 130.4 L46.25 130.8 46.0 131.15 39.55 136.95 58.0 160.1 45.5 117.2 34.6 122.3 45.5 129.35 Q46.2 129.75 46.35 130.4 M15.85 231.6 L16.05 231.05 Q16.1 230.95 16.25 230.9 L17.6 230.55 17.9 230.95 18.3 231.85 19.0 235.7 19.5 239.4 26.05 239.15 29.45 235.15 29.65 230.85 20.1 221.3 12.7 223.55 7.3 230.5 6.7 242.3 24.85 250.45 31.45 243.85 29.85 239.05 26.85 242.1 17.65 242.3 17.2 241.65 Q16.55 239.15 16.25 236.65 L15.85 231.6 M97.45 239.15 L95.9 243.9 102.45 250.45 120.6 242.3 120.05 230.55 114.6 223.55 107.25 221.3 97.7 230.85 97.9 235.2 101.25 239.15 107.75 239.4 109.1 231.05 110.3 230.45 111.55 231.6 110.5 241.7 100.15 242.0 97.45 239.15" fill="#1a1a1a" fill-rule="evenodd" stroke="none"/>
      <path d="M43.45 16.8 L43.0 10.2 50.85 2.85 72.4 2.85 82.05 9.3 81.85 18.4 Q79.8 16.25 77.15 15.35 73.8 14.45 71.1 17.05 66.3 21.7 62.75 27.5 60.1 22.6 56.05 18.5 50.9 13.4 44.8 17.7 L44.3 17.65 43.45 16.8 M75.5 55.25 L73.9 56.5 71.5 55.25 72.65 55.0 75.6 55.1 75.5 55.25 M55.75 97.65 L54.55 96.5 54.25 101.6 52.45 106.6 53.25 93.15 56.45 96.25 55.75 97.65 M77.1 108.05 L78.05 107.25 76.45 102.05 77.0 97.95 76.15 98.9 75.6 99.8 74.85 98.15 77.55 95.75 77.7 95.7 Q78.85 96.2 78.75 97.55 78.5 100.65 77.6 103.7 L78.9 107.45 78.2 108.35 77.1 108.05" fill="#000000" fill-rule="evenodd" stroke="none"/>
      <path d="M75.8 100.35 L75.6 99.8 76.15 98.9 75.8 100.35" fill="#b3cde3" fill-rule="evenodd" stroke="none"/>
      <path d="M48.45 53.55 L48.95 52.5 47.5 49.05 48.35 47.65 Q50.7 46.9 52.8 48.55 L61.1 55.3 58.45 55.1 57.9 54.2 51.7 54.0 51.3 54.25 48.45 53.55 M65.8 52.15 L66.6 52.25 77.9 44.5 Q77.75 46.0 78.6 47.0 L79.05 47.4 78.4 50.2 Q77.65 52.65 77.05 53.5 L68.95 53.75 66.75 53.3 Q65.8 52.8 65.8 52.15" fill="#b191be" fill-rule="evenodd" stroke="none"/>
      <path d="M54.25 101.6 L54.55 96.5 55.75 97.65 54.25 101.6 M76.45 102.05 L75.8 100.35 76.15 98.9 77.0 97.95 76.45 102.05" fill="#ffffff" fill-rule="evenodd" stroke="none"/>
      <path d="M77.7 95.7 L77.55 95.75 77.65 95.6 77.7 95.7" fill="#993300" fill-rule="evenodd" stroke="none"/>
      <path d="M78.2 117.65 L74.25 125.8 74.8 118.9 78.2 117.65 M53.3 119.05 L53.3 127.15 52.9 127.45 49.8 118.05 53.3 119.05 M53.9 132.65 L55.05 133.0 61.5 129.65 65.3 129.95 71.2 133.65 Q68.55 138.7 64.3 142.55 L54.45 137.15 52.95 131.0 53.3 130.75 53.9 132.65" fill="#cacfe6" fill-rule="evenodd" stroke="none"/>
      <path d="M46.35 130.4 Q46.2 129.75 45.5 129.35 L34.6 122.3 45.5 117.2 58.0 160.1 39.55 136.95 46.0 131.15 46.25 130.8 46.35 130.4 M78.15 132.45 Q78.1 133.1 78.5 133.5 L83.35 137.75 59.05 168.25 60.8 164.4 60.65 163.5 61.6 162.5 82.0 116.85 91.3 120.05 78.5 131.8 Q78.2 132.05 78.15 132.45 M62.1 144.8 L57.95 148.95 55.7 141.25 62.1 144.8 M19.35 141.75 L25.7 152.9 29.15 226.15 20.9 218.15 20.1 218.2 11.4 220.85 11.0 221.05 10.7 221.4 6.95 226.05 2.95 203.05 7.55 170.15 17.8 133.4 19.35 141.75 M31.35 123.8 L42.3 130.65 Q39.15 133.15 36.35 136.2 L36.05 136.65 36.3 137.7 57.5 164.3 51.85 177.0 50.65 178.5 51.65 250.55 33.25 250.55 33.1 246.5 34.6 244.6 Q32.75 238.85 32.8 232.8 L32.75 231.7 Q32.7 230.4 32.3 229.3 L28.65 152.4 19.85 127.8 31.35 123.8 M57.8 163.6 L58.55 161.95 58.7 162.5 57.8 163.6 M59.3 151.85 L66.15 144.95 61.8 154.65 59.3 151.85 M81.8 132.7 L94.4 121.25 108.7 128.7 100.0 143.75 96.15 228.2 Q95.0 229.0 95.0 230.35 94.9 235.35 93.65 240.35 L92.95 243.85 Q92.85 244.35 92.9 244.95 L95.25 247.45 95.1 250.55 54.65 250.55 54.0 179.4 86.65 138.4 87.0 137.3 86.7 136.55 81.8 132.7 M110.0 132.45 L117.3 176.2 118.8 224.05 Q117.6 222.55 116.05 221.7 111.8 219.6 107.25 218.2 L106.85 218.15 106.45 218.15 99.3 225.05 103.0 144.3 110.0 132.45" fill="#3a3d6a" fill-rule="evenodd" stroke="none"/>
      <path d="M81.85 18.4 L80.25 91.95 Q78.2 81.6 73.65 72.1 L72.3 69.15 71.15 68.7 71.35 65.15 70.55 64.45 69.45 65.4 69.05 67.95 63.25 69.55 63.6 55.85 64.05 56.35 64.25 55.85 63.3 54.25 Q59.3 49.3 54.2 45.8 50.15 43.05 46.25 45.75 L45.55 46.35 43.45 16.8 44.3 17.65 44.8 17.7 Q50.9 13.4 56.05 18.5 60.1 22.6 62.75 27.5 66.3 21.7 71.1 17.05 73.8 14.45 77.15 15.35 79.8 16.25 81.85 18.4 M61.1 55.3 L61.1 69.4 59.6 68.25 59.85 64.95 58.45 64.7 Q57.3 66.7 56.9 68.85 56.3 72.2 54.95 75.4 49.8 87.85 49.1 101.2 L45.85 52.95 47.1 53.9 48.45 53.55 51.3 54.25 51.1 55.3 51.65 55.85 54.15 56.0 Q54.25 56.95 55.5 57.1 56.65 56.95 57.1 56.1 L58.05 55.8 58.45 55.1 61.1 55.3 M79.05 47.4 L80.5 46.55 80.85 45.6 Q81.85 42.6 79.45 41.35 72.0 43.85 66.1 49.15 64.45 50.55 65.8 52.15 65.8 52.8 66.75 53.3 L68.95 53.75 68.85 54.7 69.4 55.25 71.5 55.25 73.9 56.5 75.5 55.25 76.85 55.25 77.45 54.3 77.05 53.5 Q77.65 52.65 78.4 50.2 L79.05 47.4 M70.35 69.45 Q77.85 84.85 79.65 102.05 80.3 108.1 79.75 113.85 70.8 117.8 61.0 117.6 55.2 117.15 49.95 114.95 L49.05 101.45 49.8 102.3 Q52.15 85.8 58.75 70.05 62.05 72.4 68.55 70.2 L70.35 69.45 M56.45 96.25 L53.25 93.15 52.45 106.6 51.0 110.0 52.1 110.9 Q53.9 108.4 54.8 105.4 56.9 98.6 61.5 93.1 62.9 91.4 64.9 91.6 67.05 91.55 68.5 93.1 74.25 99.4 76.35 107.65 76.5 108.3 77.1 108.05 L78.2 108.35 78.9 107.45 77.6 103.7 Q78.5 100.65 78.75 97.55 78.85 96.2 77.7 95.7 L77.65 95.6 77.55 95.75 74.85 98.15 Q72.65 92.2 66.8 89.75 63.85 88.5 61.35 90.45 58.3 92.75 56.45 96.25 M97.45 239.15 L100.15 242.0 110.5 241.7 111.55 231.6 110.3 230.45 109.1 231.05 107.75 239.4 101.25 239.15 97.9 235.2 97.7 230.85 107.25 221.3 114.6 223.55 120.05 230.55 120.6 242.3 102.45 250.45 95.9 243.9 97.45 239.15 M15.85 231.6 L16.25 236.65 Q16.55 239.15 17.2 241.65 L17.65 242.3 26.85 242.1 29.85 239.05 31.45 243.85 24.85 250.45 6.7 242.3 7.3 230.5 12.7 223.55 20.1 221.3 29.65 230.85 29.45 235.15 26.05 239.15 19.5 239.4 19.0 235.7 18.3 231.85 17.9 230.95 17.6 230.55 16.25 230.9 Q16.1 230.95 16.05 231.05 L15.85 231.6" fill="#edf4f8" fill-rule="evenodd" stroke="none"/>
      <path d="M65.0 120.6 L65.0 126.1 62.8 126.4 63.2 120.6 65.0 120.6 M71.8 118.7 L70.9 129.9 67.9 128.0 68.0 120.1 71.8 118.7 M60.25 120.2 L59.7 127.2 56.3 129.0 56.3 119.1 60.25 120.2" fill="#990000" fill-rule="evenodd" stroke="none"/>
    </g>
    <g id="shape3" transform="matrix(1.0, 0.0, 0.0, 1.0, -0.05, 0.0)">
      <path d="M40.95 2.45 L41.9 2.8 Q42.4 1.4 44.05 1.25 46.25 1.45 46.45 3.8 L46.45 6.35 48.8 8.45 Q56.9 16.5 57.2 28.65 56.85 40.75 48.8 48.85 42.05 55.65 32.45 56.95 L32.05 57.95 Q31.35 59.0 29.8 59.15 28.3 59.0 27.6 58.05 L27.2 57.2 Q16.0 56.45 8.4 48.85 3.45 43.9 1.4 37.45 -0.45 31.7 0.25 25.75 1.75 13.25 11.8 5.55 L12.4 3.05 Q13.25 0.65 15.6 1.55 16.3 1.85 16.4 2.8 L17.0 2.55 Q21.85 0.45 27.2 0.1 33.95 0.0 40.1 2.5 L40.95 2.45 M40.75 9.5 L41.65 9.15 41.65 3.8 40.95 3.4 Q39.9 3.3 39.45 4.1 L39.5 20.75 40.05 21.3 41.6 21.05 41.65 14.2 41.0 13.95 Q39.6 13.25 39.65 11.65 39.65 10.3 40.75 9.5 M43.6 13.8 L42.65 14.2 Q42.3 22.35 43.9 21.75 L44.95 21.3 44.95 2.65 Q44.35 2.05 43.6 2.4 42.9 2.55 42.75 3.3 L42.65 9.15 43.55 9.5 Q44.2 9.85 44.5 10.65 L44.55 12.55 Q44.25 13.35 43.6 13.8 M42.85 10.1 L41.65 10.1 43.85 12.05 42.85 10.1 M40.75 10.9 L40.5 11.65 Q40.7 13.2 42.15 13.3 L42.65 13.2 40.75 10.9 M33.35 54.6 L33.1 55.4 Q42.4 53.9 48.75 46.85 56.75 37.95 55.55 25.9 54.45 15.35 46.45 8.2 L46.45 9.2 46.45 11.55 Q53.05 18.45 53.3 28.6 53.05 39.1 46.05 46.1 40.85 51.3 33.75 52.75 L33.35 54.6 M34.15 50.65 L34.05 51.35 Q40.4 49.85 45.1 45.15 51.7 38.55 51.95 28.6 51.75 19.75 46.45 13.6 L46.45 14.6 Q46.75 17.8 46.0 20.7 45.25 23.6 42.2 21.75 L41.45 22.0 Q39.2 22.8 38.3 20.55 L33.3 21.2 33.3 23.05 33.95 23.4 Q35.1 23.95 34.9 25.15 L34.35 26.45 32.4 27.25 32.4 29.2 33.85 30.25 33.95 31.8 32.3 32.9 Q34.1 41.75 34.15 50.65 M38.25 4.0 L38.65 3.4 Q29.1 -0.05 19.35 3.1 L19.75 3.6 20.0 4.15 Q29.1 3.05 38.25 4.0 M25.35 51.1 L25.1 48.35 Q25.25 40.65 27.35 32.9 26.65 32.65 26.2 32.25 24.7 30.8 26.4 29.55 L26.9 29.2 26.9 27.25 Q25.3 27.3 24.75 25.95 L24.5 24.95 Q24.55 24.05 25.5 23.4 L26.0 23.05 26.0 21.35 19.95 20.65 Q19.2 22.95 16.85 21.95 L16.1 21.7 Q15.1 23.2 13.3 22.4 12.1 22.0 12.05 20.75 L11.8 13.3 11.8 12.35 Q5.45 18.9 5.2 28.6 5.45 38.55 12.05 45.15 17.6 50.7 25.5 51.75 L25.35 51.1 M16.8 15.6 L16.5 20.75 17.35 21.35 Q18.95 21.55 19.0 19.95 19.1 12.15 18.85 4.35 L18.65 3.7 17.7 3.35 16.6 3.85 16.95 9.95 Q17.9 10.35 18.3 11.4 L18.35 13.15 16.85 14.9 16.8 15.6 M38.2 19.4 L38.2 5.0 Q29.6 4.0 20.9 5.1 L20.0 5.2 20.1 19.4 Q29.1 21.65 38.2 19.4 M33.5 24.4 Q33.3 23.9 32.85 23.9 L27.1 23.4 Q24.95 24.0 26.25 25.85 L26.9 26.45 32.3 26.4 Q33.3 26.4 33.55 25.55 33.7 24.95 33.5 24.4 M27.15 21.35 L27.15 22.95 32.0 22.95 32.0 21.35 27.15 21.35 M15.1 9.8 L15.65 9.7 15.35 3.25 14.95 2.65 14.2 2.25 Q12.95 2.6 12.95 4.0 L13.1 20.6 Q13.1 21.5 14.2 21.7 15.6 21.55 15.55 20.15 L15.3 15.05 Q13.7 14.6 13.35 13.25 L13.3 11.85 Q13.6 10.25 15.1 9.8 M26.35 54.95 L25.85 53.15 Q17.2 52.25 11.1 46.1 3.0 37.75 4.15 26.1 5.05 16.85 11.8 10.5 L11.8 8.1 11.8 7.3 Q2.9 14.65 1.7 25.95 0.55 37.1 7.7 45.9 15.0 54.85 26.6 55.7 L26.35 54.95 M17.25 11.6 L16.6 10.8 15.15 10.8 17.3 13.05 17.25 11.6 M14.45 11.5 L14.2 12.25 Q14.3 13.7 15.85 13.9 L16.6 13.7 14.45 11.5 M27.3 30.4 L26.75 31.15 27.3 32.2 32.6 31.95 32.8 30.9 32.4 30.15 31.05 30.2 27.3 30.4 M31.25 29.1 L31.25 27.25 28.2 27.25 28.3 29.1 31.25 29.1 M32.6 42.15 Q32.15 37.5 31.2 32.9 L28.45 32.9 27.2 39.55 Q26.25 45.2 26.95 51.0 L27.15 52.3 27.15 52.25 Q27.35 49.85 29.75 49.65 31.9 49.85 32.3 51.85 33.05 47.05 32.6 42.15 M30.7 58.1 L32.0 53.55 Q31.35 54.95 29.75 54.85 27.85 54.65 27.35 53.05 L28.65 57.7 30.7 58.1 M29.0 53.7 L29.75 53.95 Q31.9 53.5 31.2 51.5 L29.0 53.7 M29.75 50.6 Q28.25 50.75 28.1 52.25 L28.35 53.05 30.55 50.85 29.75 50.6" fill="#212753" fill-rule="evenodd" stroke="none"/>
      <path d="M40.95 2.45 L40.1 2.5 Q33.95 0.0 27.2 0.1 L29.2 0.0 Q35.6 0.15 40.95 2.45 M46.45 9.2 L46.45 8.2 Q54.45 15.35 55.55 25.9 56.75 37.95 48.75 46.85 42.4 53.9 33.1 55.4 L33.35 54.6 Q44.1 52.5 50.45 43.3 55.05 36.65 54.95 28.6 54.75 17.0 46.45 9.2 M46.45 14.6 L46.45 13.6 Q51.75 19.75 51.95 28.6 51.7 38.55 45.1 45.15 40.4 49.85 34.05 51.35 L34.15 50.65 Q40.2 49.15 44.65 44.7 51.05 38.3 51.3 28.65 51.15 20.45 46.45 14.6 M19.75 3.6 L19.35 3.1 Q29.1 -0.05 38.65 3.4 L38.25 4.0 Q33.8 2.25 28.5 2.1 23.8 2.25 19.75 3.6 M25.35 51.1 L25.5 51.75 Q17.6 50.7 12.05 45.15 5.45 38.55 5.2 28.6 5.45 18.9 11.8 12.35 L11.8 13.3 Q6.1 19.55 5.85 28.65 6.1 38.3 12.5 44.7 17.85 50.0 25.35 51.1 M26.35 54.95 L26.6 55.7 Q15.0 54.85 7.7 45.9 0.55 37.1 1.7 25.95 2.9 14.65 11.8 7.3 L11.8 8.1 Q3.55 15.15 2.3 25.9 1.25 35.3 6.7 43.25 13.85 53.8 26.35 54.95" fill="#514f6f" fill-rule="evenodd" stroke="none"/>
      <path d="M41.0 13.95 L41.65 14.2 41.6 21.05 40.05 21.3 39.5 20.75 39.45 4.1 Q39.9 3.3 40.95 3.4 L41.65 3.8 41.65 9.15 40.75 9.5 40.4 4.85 Q39.7 5.45 39.65 6.45 39.35 12.5 39.85 18.55 39.95 19.55 40.65 19.75 41.55 19.1 41.5 17.7 L41.0 13.95 M43.55 9.5 L42.65 9.15 42.75 3.3 Q42.9 2.55 43.6 2.4 44.35 2.05 44.95 2.65 L44.95 21.3 43.9 21.75 Q42.3 22.35 42.65 14.2 L43.6 13.8 44.0 20.3 44.55 12.55 44.5 10.65 44.25 4.4 43.55 4.3 43.55 9.5 M36.15 9.6 Q34.9 7.5 32.4 7.85 29.75 8.15 27.1 7.8 24.95 7.25 23.1 8.3 20.7 10.35 22.5 12.35 24.25 14.4 26.55 15.0 L31.75 15.4 Q34.7 15.25 36.3 13.5 37.3 11.55 36.15 9.6 M27.5 24.1 L27.45 24.1 Q26.9 24.25 26.9 24.5 26.85 24.85 27.9 25.35 L30.85 25.25 Q31.6 24.85 31.6 24.5 31.5 24.1 30.4 23.85 L27.5 24.1 M27.15 21.35 L32.0 21.35 32.0 22.95 27.15 22.95 27.15 21.35 M33.5 24.4 Q33.7 24.95 33.55 25.55 33.3 26.4 32.3 26.4 L26.9 26.45 26.25 25.85 Q24.95 24.0 27.1 23.4 L32.85 23.9 Q33.3 23.9 33.5 24.4 M38.2 19.4 Q29.1 21.65 20.1 19.4 L20.0 5.2 20.9 5.1 Q29.6 4.0 38.2 5.0 L38.2 19.4 M16.95 9.95 L16.6 3.85 17.7 3.35 18.65 3.7 18.85 4.35 Q19.1 12.15 19.0 19.95 18.95 21.55 17.35 21.35 L16.5 20.75 16.8 15.6 17.85 19.6 18.35 13.15 18.3 11.4 17.45 5.4 16.95 9.95 M15.3 15.05 L15.55 20.15 Q15.6 21.55 14.2 21.7 13.1 21.5 13.1 20.6 L12.95 4.0 Q12.95 2.6 14.2 2.25 L14.95 2.65 15.35 3.25 15.65 9.7 15.1 9.8 14.3 3.55 13.4 4.2 13.3 11.85 13.35 13.25 14.15 20.3 14.85 20.25 15.3 15.05 M31.05 30.2 L32.4 30.15 32.8 30.9 32.6 31.95 27.3 32.2 26.75 31.15 27.3 30.4 27.4 31.15 31.25 31.35 31.5 30.7 31.05 30.2 M31.25 29.1 L28.3 29.1 28.2 27.25 31.25 27.25 31.25 29.1 M27.9 48.35 Q29.05 49.75 30.55 48.65 32.0 47.2 31.6 44.95 31.65 41.3 30.8 37.75 30.7 36.45 29.75 35.6 28.7 35.65 28.3 38.1 27.95 40.5 27.95 41.5 26.8 45.1 27.9 48.35 M32.6 42.15 Q33.05 47.05 32.3 51.85 31.9 49.85 29.75 49.65 27.35 49.85 27.15 52.25 L27.15 52.3 26.95 51.0 Q26.25 45.2 27.2 39.55 L28.45 32.9 31.2 32.9 Q32.15 37.5 32.6 42.15 M30.7 58.1 L28.65 57.7 27.35 53.05 Q27.85 54.65 29.75 54.85 31.35 54.95 32.0 53.55 L30.7 58.1 M29.1 55.9 Q28.65 57.55 30.25 57.4 31.35 56.6 30.65 55.85 L29.1 55.9" fill="#69839d" fill-rule="evenodd" stroke="none"/>
      <path d="M40.75 9.5 Q39.65 10.3 39.65 11.65 39.6 13.25 41.0 13.95 L41.5 17.7 Q41.55 19.1 40.65 19.75 39.95 19.55 39.85 18.55 39.35 12.5 39.65 6.45 39.7 5.45 40.4 4.85 L40.75 9.5 M43.55 9.5 L43.55 4.3 44.25 4.4 44.5 10.65 Q44.2 9.85 43.55 9.5 M44.55 12.55 L44.0 20.3 43.6 13.8 Q44.25 13.35 44.55 12.55 M34.2 11.4 L33.9 10.25 26.9 9.5 Q25.3 9.3 24.4 10.6 24.5 12.95 27.0 13.65 31.6 14.85 34.2 11.4 M36.15 9.6 Q37.3 11.55 36.3 13.5 34.7 15.25 31.75 15.4 L26.55 15.0 Q24.25 14.4 22.5 12.35 20.7 10.35 23.1 8.3 24.95 7.25 27.1 7.8 29.75 8.15 32.4 7.85 34.9 7.5 36.15 9.6 M27.5 24.1 L30.4 23.85 Q31.5 24.1 31.6 24.5 31.6 24.85 30.85 25.25 L27.9 25.35 Q26.85 24.85 26.9 24.5 26.9 24.25 27.45 24.1 L27.5 24.1 M16.8 15.6 L16.85 14.9 18.35 13.15 17.85 19.6 16.8 15.6 M18.3 11.4 Q17.9 10.35 16.95 9.95 L17.45 5.4 18.3 11.4 M15.3 15.05 L14.85 20.25 14.15 20.3 13.35 13.25 Q13.7 14.6 15.3 15.05 M13.3 11.85 L13.4 4.2 14.3 3.55 15.1 9.8 Q13.6 10.25 13.3 11.85 M27.3 30.4 L31.05 30.2 31.5 30.7 31.25 31.35 27.4 31.15 27.3 30.4 M27.9 48.35 Q26.8 45.1 27.95 41.5 27.95 40.5 28.3 38.1 28.7 35.65 29.75 35.6 30.7 36.45 30.8 37.75 31.65 41.3 31.6 44.95 32.0 47.2 30.55 48.65 29.05 49.75 27.9 48.35 M29.1 55.9 L30.65 55.85 Q31.35 56.6 30.25 57.4 28.65 57.55 29.1 55.9" fill="#899db1" fill-rule="evenodd" stroke="none"/>
      <path d="M40.75 10.9 L42.65 13.2 42.15 13.3 Q40.7 13.2 40.5 11.65 L40.75 10.9 M42.85 10.1 L43.85 12.05 41.65 10.1 42.85 10.1 M14.45 11.5 L16.6 13.7 15.85 13.9 Q14.3 13.7 14.2 12.25 L14.45 11.5 M17.25 11.6 L17.3 13.05 15.15 10.8 16.6 10.8 17.25 11.6 M29.75 50.6 L30.55 50.85 28.35 53.05 28.1 52.25 Q28.25 50.75 29.75 50.6 M29.0 53.7 L31.2 51.5 Q31.9 53.5 29.75 53.95 L29.0 53.7" fill="#a1b1c1" fill-rule="evenodd" stroke="none"/>
      <path d="M33.35 54.6 L33.75 52.75 Q40.85 51.3 46.05 46.1 53.05 39.1 53.3 28.6 53.05 18.45 46.45 11.55 L46.45 9.2 Q54.75 17.0 54.95 28.6 55.05 36.65 50.45 43.3 44.1 52.5 33.35 54.6 M45.35 22.9 Q47.1 21.7 46.9 19.6 L46.55 17.25 Q49.55 22.9 49.55 29.45 49.05 40.8 38.0 44.45 L34.9 45.55 34.8 45.15 34.35 43.45 Q38.75 41.7 42.1 38.05 45.75 33.5 45.85 27.7 45.85 25.2 45.35 22.9 M38.25 4.0 Q29.1 3.05 20.0 4.15 L19.75 3.6 Q23.8 2.25 28.5 2.1 33.8 2.25 38.25 4.0 M24.25 45.1 Q24.15 46.55 24.3 47.8 17.65 47.8 13.35 43.15 8.2 37.55 7.7 29.6 7.2 22.7 11.3 17.35 L11.35 17.65 Q11.15 19.95 11.85 21.75 7.8 29.5 12.4 37.1 16.5 43.85 24.25 45.1 M11.8 8.1 L11.8 10.5 Q5.05 16.85 4.15 26.1 3.0 37.75 11.1 46.1 17.2 52.25 25.85 53.15 L26.35 54.95 Q13.85 53.8 6.7 43.25 1.25 35.3 2.3 25.9 3.55 15.15 11.8 8.1" fill="#afc1d9" fill-rule="evenodd" stroke="none"/>
      <path d="M34.15 50.65 Q34.1 41.75 32.3 32.9 L33.95 31.8 34.35 43.45 34.8 45.15 34.9 45.55 38.0 44.45 Q49.05 40.8 49.55 29.45 49.55 22.9 46.55 17.25 L46.9 19.6 Q47.1 21.7 45.35 22.9 L35.9 22.55 34.9 25.15 Q35.1 23.95 33.95 23.4 L33.3 23.05 33.3 21.2 38.3 20.55 Q39.2 22.8 41.45 22.0 L42.2 21.75 Q45.25 23.6 46.0 20.7 46.75 17.8 46.45 14.6 51.15 20.45 51.3 28.65 51.05 38.3 44.65 44.7 40.2 49.15 34.15 50.65 M33.85 30.25 L32.4 29.2 32.4 27.25 34.35 26.45 33.6 28.35 33.85 30.25 M24.25 45.1 L24.95 39.9 Q25.7 35.8 24.45 31.95 L25.5 28.35 23.3 25.55 24.45 22.3 Q22.8 22.45 21.25 23.1 17.0 25.0 12.6 23.2 L11.85 21.75 Q11.15 19.95 11.35 17.65 L11.3 17.35 Q7.2 22.7 7.7 29.6 8.2 37.55 13.35 43.15 17.65 47.8 24.3 47.8 24.15 46.55 24.25 45.1 M11.8 13.3 L12.05 20.75 Q12.1 22.0 13.3 22.4 15.1 23.2 16.1 21.7 L16.85 21.95 Q19.2 22.95 19.95 20.65 L26.0 21.35 26.0 23.05 25.5 23.4 Q24.55 24.05 24.5 24.95 L24.75 25.95 Q25.3 27.3 26.9 27.25 L26.9 29.2 26.4 29.55 Q24.7 30.8 26.2 32.25 26.65 32.65 27.35 32.9 25.25 40.65 25.1 48.35 L25.35 51.1 Q17.85 50.0 12.5 44.7 6.1 38.3 5.85 28.65 6.1 19.55 11.8 13.3" fill="#9ab4cc" fill-rule="evenodd" stroke="none"/>
      <path d="M33.95 31.8 L33.85 30.25 33.6 28.35 34.35 26.45 34.9 25.15 35.9 22.55 45.35 22.9 Q45.85 25.2 45.85 27.7 45.75 33.5 42.1 38.05 38.75 41.7 34.35 43.45 L33.95 31.8 M11.85 21.75 L12.6 23.2 Q17.0 25.0 21.25 23.1 22.8 22.45 24.45 22.3 L23.3 25.55 25.5 28.35 24.45 31.95 Q25.7 35.8 24.95 39.9 L24.25 45.1 Q16.5 43.85 12.4 37.1 7.8 29.5 11.85 21.75" fill="#c5d3e3" fill-rule="evenodd" stroke="none"/>
      <path d="M34.2 11.4 Q31.6 14.85 27.0 13.65 24.5 12.95 24.4 10.6 25.3 9.3 26.9 9.5 L33.9 10.25 34.2 11.4" fill="#a1b3bf" fill-rule="evenodd" stroke="none"/>
    </g>
    <g id="shape4" transform="matrix(1.0, 0.0, 0.0, 1.0, 0.0, 0.0)">
      <path d="M90.8 23.5 L86.15 3.05 63.55 3.05 58.25 24.35 55.5 35.5 68.4 40.5 68.35 41.25 67.45 41.95 55.0 37.45 44.4 80.05 55.1 96.85 Q62.2 99.1 68.1 102.8 L68.3 103.3 70.3 141.5 76.35 103.95 Q75.85 102.85 76.6 102.45 78.65 101.4 80.85 100.65 L92.85 97.05 103.75 80.65 93.45 35.35 91.35 36.5 91.15 37.6 86.8 39.8 82.9 42.3 81.1 43.75 81.8 43.65 88.15 43.25 Q90.15 43.5 91.95 44.4 L93.1 45.0 92.15 46.3 86.75 45.55 81.55 45.8 81.0 45.8 Q82.25 47.75 84.65 48.45 L87.35 49.45 87.75 49.5 88.15 49.6 88.75 50.5 87.75 51.5 Q83.75 50.95 80.7 48.25 77.25 45.2 80.35 41.95 82.25 40.0 84.8 38.55 L77.95 41.0 76.95 39.95 77.35 39.3 92.75 33.45 90.8 23.5 M87.35 0.0 L88.1 0.2 88.85 1.25 106.85 80.6 96.05 97.65 96.1 98.35 128.55 114.6 129.35 115.7 138.9 166.1 138.9 166.6 131.75 215.95 139.7 223.45 137.8 244.3 119.6 250.0 111.8 245.6 Q112.1 247.15 111.0 248.2 L110.6 248.45 110.2 248.7 72.0 249.6 28.65 249.6 3.1 241.15 Q2.25 233.2 4.5 225.25 L5.4 222.3 7.25 216.35 0.0 201.0 2.4 162.5 16.4 112.15 17.05 111.3 52.35 98.15 41.35 79.95 60.9 1.2 61.45 0.5 87.35 0.0 M99.6 83.2 Q95.3 80.45 90.95 77.85 87.1 75.5 82.6 74.8 65.15 72.8 52.2 84.75 L54.6 87.75 54.2 88.75 53.8 88.9 Q50.15 86.8 49.95 82.65 49.15 65.5 63.8 55.25 L64.75 56.3 58.55 62.65 Q49.9 71.25 51.45 82.75 58.4 76.65 67.15 74.1 86.3 68.5 100.25 82.45 L99.6 83.2 M69.1 56.05 L69.7 56.3 70.0 56.7 Q69.55 59.95 66.55 58.4 65.5 57.9 65.1 56.75 L65.8 55.9 67.35 56.65 69.1 56.05 M69.65 45.05 L69.7 45.55 Q67.0 50.1 61.8 50.7 L61.3 49.35 66.95 45.7 56.4 46.15 55.5 45.1 Q62.6 41.3 69.65 45.05 M75.55 44.4 Q75.5 42.9 76.2 41.4 L77.25 41.5 77.6 42.2 Q76.0 47.2 78.75 52.0 79.55 53.45 78.8 55.1 78.25 56.3 77.2 57.1 80.25 57.15 82.15 54.85 L82.9 53.8 84.05 54.05 84.35 54.7 83.8 56.25 Q98.1 64.15 101.65 80.05 L101.0 80.5 100.25 80.35 Q95.4 66.2 82.9 57.4 80.95 59.7 78.0 59.45 76.1 59.1 74.8 57.75 L74.65 56.9 Q77.05 55.9 76.55 53.4 75.6 48.85 75.55 44.4 M64.55 104.05 L55.65 100.35 56.1 116.9 64.55 104.05 M35.95 129.35 L35.55 128.1 Q37.7 125.7 41.35 124.45 L28.25 123.2 27.3 121.95 29.0 110.05 19.1 113.7 5.4 162.85 3.05 200.8 9.0 213.1 10.95 209.65 Q21.75 209.6 24.1 210.9 26.45 212.2 28.6 213.65 L30.65 215.35 27.05 142.35 20.5 130.8 20.6 130.35 21.4 129.8 22.05 130.35 Q26.1 135.45 29.65 141.15 L30.0 141.8 33.85 218.55 37.35 222.1 36.0 230.05 Q37.45 230.05 37.75 231.5 L39.35 240.1 32.65 246.6 57.2 246.6 58.2 170.75 65.1 156.2 35.95 129.35 M30.45 120.4 L48.1 122.8 48.35 123.65 39.6 128.65 66.5 153.4 67.35 151.6 57.95 119.55 55.75 122.9 54.85 123.25 53.8 122.85 52.65 101.3 32.15 108.85 30.45 120.4 M65.55 108.0 L60.15 116.25 67.25 140.5 65.55 108.0 M121.7 122.65 L118.55 134.95 113.5 214.4 114.75 214.45 116.75 212.2 126.3 211.45 129.1 213.45 135.9 166.4 126.55 117.0 115.35 111.4 111.65 122.85 97.7 122.5 104.0 130.45 103.7 131.35 61.2 171.45 60.2 246.45 108.75 245.75 108.9 243.8 104.85 240.8 Q105.1 236.55 105.5 232.35 105.6 230.95 107.0 230.45 107.4 225.25 110.1 220.85 L115.55 134.55 119.95 121.0 121.55 121.15 121.7 122.65 M109.75 120.2 L112.65 110.05 95.2 101.3 94.45 103.05 87.05 121.75 Q86.4 123.35 84.9 122.4 L64.6 164.1 100.55 130.2 93.1 121.7 92.85 121.3 92.95 120.15 93.15 119.65 109.75 120.2 M83.2 119.05 L78.6 108.95 73.9 138.2 83.2 119.05 M85.75 117.35 L92.15 100.35 79.6 103.85 85.75 117.35 M18.1 222.45 L19.55 222.55 21.5 234.5 30.0 234.5 34.4 223.3 21.7 212.2 13.05 211.95 Q6.2 224.4 5.55 238.9 L28.3 246.4 36.3 239.4 35.2 232.95 Q30.4 238.15 23.25 237.45 L19.65 237.45 Q17.35 230.0 18.1 222.45 M110.5 225.3 L110.05 230.15 111.15 230.15 Q112.65 230.15 114.15 231.15 L115.35 235.05 121.0 235.35 120.3 229.35 121.35 228.55 Q122.25 228.8 122.55 229.7 123.85 233.6 124.15 237.75 L113.3 237.45 111.95 233.45 108.65 232.95 108.05 233.3 107.85 239.65 119.9 247.1 135.4 242.1 136.85 224.85 125.85 214.5 117.95 215.1 110.5 225.3" fill="#1a1a1a" fill-rule="evenodd" stroke="none"/>
      <path d="M58.25 24.35 L63.55 3.05 86.15 3.05 90.8 23.5 Q83.6 17.65 75.2 22.4 L74.05 23.15 Q65.7 16.75 58.25 24.35" fill="#4e3f4a" fill-rule="evenodd" stroke="none"/>
      <path d="M90.8 23.5 L92.75 33.45 77.35 39.3 76.95 39.95 77.95 41.0 84.8 38.55 Q82.25 40.0 80.35 41.95 77.25 45.2 80.7 48.25 83.75 50.95 87.75 51.5 L88.75 50.5 88.15 49.6 87.75 49.5 87.35 49.45 84.65 48.45 Q82.25 47.75 81.0 45.8 L81.55 45.8 86.75 45.55 92.15 46.3 93.1 45.0 91.95 44.4 Q90.15 43.5 88.15 43.25 L81.8 43.65 81.1 43.75 82.9 42.3 86.8 39.8 91.15 37.6 91.35 36.5 93.45 35.35 103.75 80.65 92.85 97.05 80.85 100.65 Q78.65 101.4 76.6 102.45 75.85 102.85 76.35 103.95 L70.3 141.5 68.3 103.3 68.1 102.8 Q62.2 99.1 55.1 96.85 L44.4 80.05 55.0 37.45 67.45 41.95 68.35 41.25 68.4 40.5 55.5 35.5 58.25 24.35 Q65.7 16.75 74.05 23.15 L75.2 22.4 Q83.6 17.65 90.8 23.5 M75.55 44.4 Q75.6 48.85 76.55 53.4 77.05 55.9 74.65 56.9 L74.8 57.75 Q76.1 59.1 78.0 59.45 80.95 59.7 82.9 57.4 95.4 66.2 100.25 80.35 L101.0 80.5 101.65 80.05 Q98.1 64.15 83.8 56.25 L84.35 54.7 84.05 54.05 82.9 53.8 82.15 54.85 Q80.25 57.15 77.2 57.1 78.25 56.3 78.8 55.1 79.55 53.45 78.75 52.0 76.0 47.2 77.6 42.2 L77.25 41.5 76.2 41.4 Q75.5 42.9 75.55 44.4 M69.65 45.05 Q62.6 41.3 55.5 45.1 L56.4 46.15 66.95 45.7 61.3 49.35 61.8 50.7 Q67.0 50.1 69.7 45.55 L69.65 45.05 M69.1 56.05 L67.35 56.65 65.8 55.9 65.1 56.75 Q65.5 57.9 66.55 58.4 69.55 59.95 70.0 56.7 L69.7 56.3 69.1 56.05 M99.6 83.2 L100.25 82.45 Q86.3 68.5 67.15 74.1 58.4 76.65 51.45 82.75 49.9 71.25 58.55 62.65 L64.75 56.3 63.8 55.25 Q49.15 65.5 49.95 82.65 50.15 86.8 53.8 88.9 L54.2 88.75 54.6 87.75 52.2 84.75 Q65.15 72.8 82.6 74.8 87.1 75.5 90.95 77.85 95.3 80.45 99.6 83.2" fill="#f2d9ed" fill-rule="evenodd" stroke="none"/>
      <path d="M64.55 104.05 L56.1 116.9 55.65 100.35 64.55 104.05 M65.55 108.0 L67.25 140.5 60.15 116.25 65.55 108.0 M85.75 117.35 L79.6 103.85 92.15 100.35 85.75 117.35 M83.2 119.05 L73.9 138.2 78.6 108.95 83.2 119.05" fill="#ffe1e9" fill-rule="evenodd" stroke="none"/>
      <path d="M30.45 120.4 L32.15 108.85 52.65 101.3 53.8 122.85 54.85 123.25 55.75 122.9 57.95 119.55 67.35 151.6 66.5 153.4 39.6 128.65 48.35 123.65 48.1 122.8 30.45 120.4 M35.95 129.35 L65.1 156.2 58.2 170.75 57.2 246.6 32.65 246.6 39.35 240.1 37.75 231.5 Q37.45 230.05 36.0 230.05 L37.35 222.1 33.85 218.55 30.0 141.8 29.65 141.15 Q26.1 135.45 22.05 130.35 L21.4 129.8 20.6 130.35 20.5 130.8 27.05 142.35 30.65 215.35 28.6 213.65 Q26.45 212.2 24.1 210.9 21.75 209.6 10.95 209.65 L9.0 213.1 3.05 200.8 5.4 162.85 19.1 113.7 29.0 110.05 27.3 121.95 28.25 123.2 41.35 124.45 Q37.7 125.7 35.55 128.1 L35.95 129.35 M109.75 120.2 L93.15 119.65 92.95 120.15 92.85 121.3 93.1 121.7 100.55 130.2 64.6 164.1 84.9 122.4 Q86.4 123.35 87.05 121.75 L94.45 103.05 95.2 101.3 112.65 110.05 109.75 120.2 M121.7 122.65 L121.55 121.15 119.95 121.0 115.55 134.55 110.1 220.85 Q107.4 225.25 107.0 230.45 105.6 230.95 105.5 232.35 105.1 236.55 104.85 240.8 L108.9 243.8 108.75 245.75 60.2 246.45 61.2 171.45 103.7 131.35 104.0 130.45 97.7 122.5 111.65 122.85 115.35 111.4 126.55 117.0 135.9 166.4 129.1 213.45 126.3 211.45 116.75 212.2 114.75 214.45 113.5 214.4 118.55 134.95 121.7 122.65" fill="#8d254e" fill-rule="evenodd" stroke="none"/>
      <path d="M110.5 225.3 L117.95 215.1 125.85 214.5 136.85 224.85 135.4 242.1 119.9 247.1 107.85 239.65 108.05 233.3 108.65 232.95 111.95 233.45 113.3 237.45 124.15 237.75 Q123.85 233.6 122.55 229.7 122.25 228.8 121.35 228.55 L120.3 229.35 121.0 235.35 115.35 235.05 114.15 231.15 Q112.65 230.15 111.15 230.15 L110.05 230.15 110.5 225.3 M18.1 222.45 Q17.35 230.0 19.65 237.45 L23.25 237.45 Q30.4 238.15 35.2 232.95 L36.3 239.4 28.3 246.4 5.55 238.9 Q6.2 224.4 13.05 211.95 L21.7 212.2 34.4 223.3 30.0 234.5 21.5 234.5 19.55 222.55 18.1 222.45" fill="#e3aed5" fill-rule="evenodd" stroke="none"/>
    </g>
    <g id="shape5" transform="matrix(1.0, 0.0, 0.0, 1.0, -0.1, 0.0)">
      <path d="M44.15 4.15 Q48.25 3.4 52.05 4.8 L52.4 5.0 52.3 11.35 52.25 12.55 Q56.95 19.4 57.2 28.65 56.95 39.1 50.85 46.55 L50.85 48.45 50.25 54.2 Q46.95 55.8 43.1 54.6 L42.4 54.05 42.25 53.8 Q36.25 57.05 28.6 57.25 20.95 57.05 14.95 53.75 L14.75 54.3 14.4 54.75 8.05 54.95 Q6.45 53.25 6.75 50.75 L6.9 47.7 6.85 47.2 Q3.0 42.7 1.3 37.15 -0.8 29.9 0.85 22.5 2.4 15.75 6.8 10.6 15.0 0.95 27.95 0.05 L28.3 0.05 28.6 0.05 Q37.0 0.25 43.5 4.2 L44.15 4.15 M50.75 10.0 L51.2 5.6 42.35 5.6 Q42.7 27.1 43.4 48.6 43.45 50.9 43.95 52.95 L47.55 53.2 49.45 52.9 Q49.55 33.1 50.45 13.35 L50.75 10.0 M40.95 5.25 Q41.05 4.75 41.2 4.9 L41.4 4.8 Q35.75 1.65 28.6 1.45 17.05 1.75 9.4 9.45 1.7 17.1 1.4 28.65 1.65 37.85 6.6 44.65 L6.5 43.3 6.35 41.05 6.05 39.7 Q1.4 28.1 7.05 17.05 11.65 8.15 21.3 5.15 31.5 2.15 40.85 7.15 L40.95 5.25 M45.1 11.4 L45.35 12.2 47.45 10.1 46.65 9.85 Q45.25 10.0 45.1 11.4 M40.8 9.45 L40.8 8.75 Q35.55 5.45 28.65 5.3 18.7 5.6 12.0 12.3 5.3 19.0 5.05 28.9 5.2 33.9 6.95 38.05 L7.95 37.8 14.45 37.8 15.3 38.55 15.05 47.8 17.35 48.85 17.4 46.3 17.4 42.55 16.8 27.7 17.8 27.05 Q22.25 25.8 26.4 27.25 L26.7 27.55 26.7 51.5 26.7 51.95 29.25 52.05 29.25 51.35 29.25 47.1 29.3 44.85 28.85 16.2 30.2 15.55 38.9 15.85 38.7 49.4 38.7 49.8 41.85 47.95 41.85 47.1 41.95 42.75 41.95 38.3 41.0 14.95 40.85 11.15 40.8 9.45 M44.55 12.65 Q44.5 11.25 45.1 10.1 45.7 8.9 46.6 8.8 47.5 8.7 48.2 9.75 48.9 10.75 48.95 12.35 48.4 13.7 46.65 13.9 45.1 13.75 44.55 12.65 M48.3 45.2 L48.65 46.05 Q49.15 47.55 48.1 48.55 L46.3 49.2 Q44.8 49.15 44.1 47.55 43.75 46.05 44.6 45.2 L45.65 44.45 Q47.35 44.0 48.3 45.2 M46.3 12.95 L46.65 13.0 Q48.75 12.6 48.05 10.7 L46.3 12.95 M50.85 42.75 L50.85 44.4 Q55.35 38.0 55.55 29.2 55.4 21.65 52.1 15.6 L52.05 16.5 Q51.5 20.6 52.6 24.4 53.15 26.45 53.2 28.65 53.35 33.65 51.5 38.1 50.6 40.15 50.85 42.75 M51.15 34.95 Q51.9 31.85 51.85 28.65 L51.65 24.65 51.15 34.95 M44.9 46.45 L44.9 47.25 Q45.45 48.6 46.85 48.1 L47.6 47.8 44.9 46.45 M47.9 46.25 Q47.35 44.95 45.9 45.3 45.55 45.45 45.3 45.7 L47.95 47.0 47.9 46.25 M38.0 18.15 L38.1 16.8 29.9 16.9 31.25 53.15 37.5 53.45 37.55 53.2 Q36.9 35.65 38.0 18.15 M35.4 21.6 L35.0 20.95 32.75 21.0 32.45 21.65 35.4 21.6 M32.05 23.7 Q30.8 22.05 32.1 20.4 L32.25 20.3 Q33.9 18.95 35.6 20.25 L35.8 20.5 Q37.0 22.1 35.7 23.75 L35.55 23.9 Q33.9 25.2 32.2 23.85 L32.05 23.7 M35.4 48.0 Q37.9 50.5 35.05 52.15 L32.75 52.05 Q31.1 50.6 32.2 48.6 33.2 47.3 35.0 47.8 L35.4 48.0 M32.4 22.2 L32.8 22.85 35.05 22.8 35.35 22.15 32.4 22.2 M20.1 34.85 Q19.2 34.05 19.3 32.95 19.55 30.6 21.75 30.6 23.45 30.5 23.95 32.0 24.55 33.8 23.2 34.9 L20.1 34.85 M23.55 48.15 Q24.4 48.75 24.5 49.6 24.85 52.4 22.1 52.65 21.25 52.3 20.65 51.7 18.85 49.95 20.8 48.1 L23.55 48.15 M9.4 44.7 L9.2 45.45 Q9.35 46.9 10.75 47.05 L11.55 46.85 9.4 44.7 M9.05 47.25 L8.8 46.95 Q7.8 45.3 9.05 43.7 10.1 42.75 11.45 43.15 L12.0 43.35 Q13.1 43.95 13.25 45.45 13.05 47.15 11.75 47.7 10.7 48.45 9.05 47.25 M12.35 45.45 Q12.2 44.05 10.75 43.9 L10.0 44.1 12.15 46.25 12.35 45.45 M14.2 38.7 L7.45 38.8 8.6 53.65 Q9.45 54.1 10.5 54.05 L14.1 53.7 14.2 38.7 M21.65 31.4 L20.9 31.6 23.05 33.75 23.25 32.95 Q23.1 31.55 21.65 31.4 M22.45 34.35 L20.3 32.2 20.1 32.95 Q20.35 34.35 21.65 34.55 L22.45 34.35 M22.15 48.6 Q21.45 48.65 21.1 49.0 20.65 49.4 20.55 50.15 L20.75 50.9 22.85 48.8 22.15 48.6 M35.3 49.15 L33.1 49.1 32.65 49.55 32.6 50.35 35.3 49.15 M25.55 28.05 L17.9 28.15 19.3 53.15 24.75 53.25 25.55 28.05 M41.95 51.4 L41.85 49.6 38.7 51.3 38.55 53.05 38.35 54.05 42.0 52.4 41.95 51.4 M25.95 54.9 L23.3 55.25 Q28.6 56.35 33.95 55.25 L30.85 54.9 Q29.8 54.75 29.55 53.85 L29.45 53.4 26.6 53.3 25.95 54.9 M33.2 51.4 L34.55 51.7 35.7 49.95 33.2 51.4 M21.35 51.55 L22.1 51.75 Q23.9 51.55 23.6 49.7 L21.35 51.55 M15.15 51.45 L15.15 52.25 17.45 53.45 17.3 52.6 Q17.2 51.75 17.25 50.65 L15.1 49.4 15.15 51.45" fill="#5d0035" fill-rule="evenodd" stroke="none"/>
      <path d="M50.75 10.0 L50.45 13.35 Q49.55 33.1 49.45 52.9 L47.55 53.2 43.95 52.95 Q43.45 50.9 43.4 48.6 42.7 27.1 42.35 5.6 L51.2 5.6 50.75 10.0 M48.95 12.35 Q48.9 10.75 48.2 9.75 47.5 8.7 46.6 8.8 45.7 8.9 45.1 10.1 44.5 11.25 44.55 12.65 L44.6 45.2 Q43.75 46.05 44.1 47.55 44.8 49.15 46.3 49.2 46.8 49.75 47.7 49.65 L48.1 48.55 Q49.15 47.55 48.65 46.05 L48.3 45.2 48.05 41.5 Q47.2 35.85 47.35 30.15 47.65 21.15 48.95 12.35 M38.0 18.15 Q36.9 35.65 37.55 53.2 L37.5 53.45 31.25 53.15 29.9 16.9 38.1 16.8 38.0 18.15 M35.55 23.9 L35.7 23.75 Q37.0 22.1 35.8 20.5 L35.6 20.25 Q33.9 18.95 32.25 20.3 L32.1 20.4 Q30.8 22.05 32.05 23.7 32.7 32.75 31.85 41.85 31.65 43.75 31.7 45.7 31.7 47.3 32.2 48.6 31.1 50.6 32.75 52.05 L35.05 52.15 Q37.9 50.5 35.4 48.0 34.65 36.55 35.35 25.1 L35.55 23.9 M23.2 34.9 Q24.55 33.8 23.95 32.0 23.45 30.5 21.75 30.6 19.55 30.6 19.3 32.95 19.2 34.05 20.1 34.85 L20.8 48.1 Q18.85 49.95 20.65 51.7 21.25 52.3 22.1 52.65 24.85 52.4 24.5 49.6 24.4 48.75 23.55 48.15 L23.2 34.9 M9.05 43.7 Q7.8 45.3 8.8 46.95 L9.05 47.25 Q8.85 50.0 10.4 52.15 10.75 52.65 11.4 52.4 L11.75 47.7 Q13.05 47.15 13.25 45.45 13.1 43.95 12.0 43.35 12.3 41.75 11.6 40.3 L11.4 40.05 10.2 39.95 Q8.8 41.5 9.05 43.7 M14.2 38.7 L14.1 53.7 10.5 54.05 Q9.45 54.1 8.6 53.65 L7.45 38.8 14.2 38.7 M25.55 28.05 L24.75 53.25 19.3 53.15 17.9 28.15 25.55 28.05" fill="#e3c1d7" fill-rule="evenodd" stroke="none"/>
      <path d="M6.5 43.3 L6.6 44.65 Q1.65 37.85 1.4 28.65 1.7 17.1 9.4 9.45 17.05 1.75 28.6 1.45 35.75 1.65 41.4 4.8 L41.2 4.9 Q41.05 4.75 40.95 5.25 35.45 2.3 28.5 2.1 17.25 2.4 9.8 9.9 2.3 17.35 2.0 28.6 2.2 37.0 6.5 43.3 M40.85 11.15 L41.0 14.95 Q38.6 13.0 35.2 12.55 30.25 11.95 25.95 12.6 16.7 14.25 11.6 22.15 8.2 28.0 10.7 34.3 L12.05 37.4 9.6 37.55 Q7.6 32.95 7.75 27.7 7.85 22.9 10.4 19.05 15.75 11.05 25.25 9.1 33.55 7.45 40.85 11.15 M41.95 38.3 L41.95 42.75 39.4 43.95 Q39.25 42.35 39.25 40.75 L41.95 38.3 M29.3 44.85 L29.25 47.1 27.4 47.55 27.4 45.1 29.3 44.85 M17.4 42.55 L17.4 46.3 16.15 45.55 15.9 41.9 17.4 42.55 M52.05 16.5 L52.1 15.6 Q55.4 21.65 55.55 29.2 55.35 38.0 50.85 44.4 L50.85 42.75 Q54.75 36.6 54.95 28.6 54.75 21.85 52.05 16.5 M41.95 51.4 L42.0 52.4 38.35 54.05 38.55 53.05 41.95 51.4 M30.85 54.9 L33.95 55.25 Q28.6 56.35 23.3 55.25 L25.95 54.9 30.85 54.9 M17.3 52.6 L17.45 53.45 15.15 52.25 15.15 51.45 17.3 52.6" fill="#d2c0c0" fill-rule="evenodd" stroke="none"/>
      <path d="M44.15 4.15 L43.5 4.2 Q37.0 0.25 28.6 0.05 L29.2 0.0 Q37.65 0.2 44.15 4.15 M1.3 37.15 Q3.0 42.7 6.85 47.2 L6.9 47.7 Q2.95 43.0 1.3 37.15" fill="#8d3f6d" fill-rule="evenodd" stroke="none"/>
      <path d="M40.8 9.45 L40.85 11.15 Q33.55 7.45 25.25 9.1 15.75 11.05 10.4 19.05 7.85 22.9 7.75 27.7 7.6 32.95 9.6 37.55 L12.05 37.4 14.45 37.8 7.95 37.8 Q3.5 25.3 11.45 14.7 17.0 7.25 26.3 6.1 34.15 5.3 40.8 9.45 M41.95 42.75 L41.85 47.1 39.25 48.7 38.7 49.4 38.9 15.85 30.2 15.55 Q33.5 13.75 37.2 14.75 40.15 15.65 39.9 19.05 39.05 29.85 39.25 40.75 39.25 42.35 39.4 43.95 L41.95 42.75 M29.25 47.1 L29.25 51.35 26.7 51.5 26.7 27.55 26.4 27.25 Q22.25 25.8 17.8 27.05 19.55 26.25 21.6 26.15 L24.6 26.45 Q27.6 26.9 27.45 30.1 27.1 37.6 27.4 45.1 L27.4 47.55 29.25 47.1 M17.4 46.3 L17.35 48.85 15.05 47.8 15.3 38.55 15.9 41.9 16.15 45.55 17.4 46.3" fill="#bda3a3" fill-rule="evenodd" stroke="none"/>
      <path d="M7.95 37.8 L6.95 38.05 Q5.2 33.9 5.05 28.9 5.3 19.0 12.0 12.3 18.7 5.6 28.65 5.3 35.55 5.45 40.8 8.75 L40.8 9.45 Q34.15 5.3 26.3 6.1 17.0 7.25 11.45 14.7 3.5 25.3 7.95 37.8 M41.85 47.1 L41.85 47.95 38.7 49.8 38.7 49.4 39.25 48.7 41.85 47.1 M29.25 51.35 L29.25 52.05 26.7 51.95 26.7 51.5 29.25 51.35 M51.15 34.95 L51.65 24.65 51.85 28.65 Q51.9 31.85 51.15 34.95" fill="#aa8888" fill-rule="evenodd" stroke="none"/>
      <path d="M45.1 11.4 Q45.25 10.0 46.65 9.85 L47.45 10.1 45.35 12.2 45.1 11.4 M46.3 12.95 L48.05 10.7 Q48.75 12.6 46.65 13.0 L46.3 12.95 M44.9 46.45 L47.6 47.8 46.85 48.1 Q45.45 48.6 44.9 47.25 L44.9 46.45 M47.9 46.25 L47.95 47.0 45.3 45.7 Q45.55 45.45 45.9 45.3 47.35 44.95 47.9 46.25 M35.4 21.6 L32.45 21.65 32.75 21.0 35.0 20.95 35.4 21.6 M32.4 22.2 L35.35 22.15 35.05 22.8 32.8 22.85 32.4 22.2 M9.4 44.7 L11.55 46.85 10.75 47.05 Q9.35 46.9 9.2 45.45 L9.4 44.7 M12.35 45.45 L12.15 46.25 10.0 44.1 10.75 43.9 Q12.2 44.05 12.35 45.45 M22.45 34.35 L21.65 34.55 Q20.35 34.35 20.1 32.95 L20.3 32.2 22.45 34.35 M21.65 31.4 Q23.1 31.55 23.25 32.95 L23.05 33.75 20.9 31.6 21.65 31.4 M22.15 48.6 L22.85 48.8 20.75 50.9 20.55 50.15 Q20.65 49.4 21.1 49.0 21.45 48.65 22.15 48.6 M35.3 49.15 L32.6 50.35 32.65 49.55 33.1 49.1 35.3 49.15 M33.2 51.4 L35.7 49.95 34.55 51.7 33.2 51.4 M21.35 51.55 L23.6 49.7 Q23.9 51.55 22.1 51.75 L21.35 51.55" fill="#a68884" fill-rule="evenodd" stroke="none"/>
      <path d="M48.95 12.35 Q47.65 21.15 47.35 30.15 47.2 35.85 48.05 41.5 L48.3 45.2 Q47.35 44.0 45.65 44.45 L44.6 45.2 44.55 12.65 Q45.1 13.75 46.65 13.9 48.4 13.7 48.95 12.35 M48.1 48.55 L47.7 49.65 Q46.8 49.75 46.3 49.2 L48.1 48.55 M35.55 23.9 L35.35 25.1 Q34.65 36.55 35.4 48.0 L35.0 47.8 Q33.2 47.3 32.2 48.6 31.7 47.3 31.7 45.7 31.65 43.75 31.85 41.85 32.7 32.75 32.05 23.7 L32.2 23.85 Q33.9 25.2 35.55 23.9 M20.1 34.85 L23.2 34.9 23.55 48.15 20.8 48.1 20.1 34.85 M9.05 43.7 Q8.8 41.5 10.2 39.95 L11.4 40.05 11.6 40.3 Q12.3 41.75 12.0 43.35 L11.45 43.15 Q10.1 42.75 9.05 43.7 M11.75 47.7 L11.4 52.4 Q10.75 52.65 10.4 52.15 8.85 50.0 9.05 47.25 10.7 48.45 11.75 47.7" fill="#c7abb9" fill-rule="evenodd" stroke="none"/>
      <path d="M40.95 5.25 L40.85 7.15 Q31.5 2.15 21.3 5.15 11.65 8.15 7.05 17.05 1.4 28.1 6.05 39.7 L6.35 41.05 6.5 43.3 Q2.2 37.0 2.0 28.6 2.3 17.35 9.8 9.9 17.25 2.4 28.5 2.1 35.45 2.3 40.95 5.25 M41.0 14.95 L41.95 38.3 39.25 40.75 Q39.05 29.85 39.9 19.05 40.15 15.65 37.2 14.75 33.5 13.75 30.2 15.55 L28.85 16.2 29.3 44.85 27.4 45.1 Q27.1 37.6 27.45 30.1 27.6 26.9 24.6 26.45 L21.6 26.15 Q19.55 26.25 17.8 27.05 L16.8 27.7 17.4 42.55 15.9 41.9 15.3 38.55 14.45 37.8 12.05 37.4 10.7 34.3 Q8.2 28.0 11.6 22.15 16.7 14.25 25.95 12.6 30.25 11.95 35.2 12.55 38.6 13.0 41.0 14.95 M50.85 42.75 Q50.6 40.15 51.5 38.1 53.35 33.65 53.2 28.65 53.15 26.45 52.6 24.4 51.5 20.6 52.05 16.5 54.75 21.85 54.95 28.6 54.75 36.6 50.85 42.75 M38.55 53.05 L38.7 51.3 41.85 49.6 41.95 51.4 38.55 53.05 M25.95 54.9 L26.6 53.3 29.45 53.4 29.55 53.85 Q29.8 54.75 30.85 54.9 L25.95 54.9 M15.15 51.45 L15.1 49.4 17.25 50.65 Q17.2 51.75 17.3 52.6 L15.15 51.45" fill="#e3d7d7" fill-rule="evenodd" stroke="none"/>
    </g>
    <g id="shape6" transform="matrix(1.0, 0.0, 0.0, 1.0, 0.0, 0.0)">
      <path d="M149.75 126.35 L186.4 148.7 144.25 214.9 137.3 223.65 125.8 221.75 118.85 229.05 132.9 238.6 133.7 243.65 107.6 236.75 100.15 239.1 99.2 240.7 105.4 254.4 134.5 276.05 138.9 275.2 139.25 277.2 97.05 277.2 99.0 183.95 138.3 153.6 138.3 151.9 133.4 147.95 146.0 144.65 149.75 126.35 M110.35 48.45 L109.55 47.25 110.15 47.35 110.05 45.8 111.5 46.3 Q113.65 45.35 113.5 42.65 113.4 40.1 110.65 40.15 L113.75 36.4 116.1 49.85 Q113.55 51.05 110.35 48.45 M90.7 40.2 Q89.25 40.8 88.75 42.4 87.75 45.7 90.55 46.8 90.0 48.1 88.95 48.65 87.05 49.5 85.1 49.1 L86.7 42.8 86.9 40.8 86.65 39.05 87.35 35.9 Q89.9 37.5 90.7 40.2 M57.2 143.3 L52.7 125.8 67.6 116.55 95.1 181.35 67.0 154.55 72.15 145.3 57.2 143.3 M63.65 154.35 L64.0 155.8 96.15 186.4 94.85 238.7 86.3 235.05 60.55 244.15 60.9 240.35 74.75 230.25 68.4 223.4 55.45 224.75 30.8 194.95 11.4 151.3 50.0 127.45 55.45 146.1 68.3 147.45 63.65 154.35 M147.0 124.7 L143.7 142.5 128.8 146.45 134.6 152.7 101.6 178.15 131.65 115.35 147.0 124.7 M144.3 219.4 L146.8 216.5 187.45 152.7 192.0 199.25 185.55 247.8 184.7 250.85 184.4 247.2 Q173.85 237.45 163.7 229.3 L145.6 225.65 144.3 219.4 M89.25 254.8 L94.8 241.55 94.05 277.25 57.65 277.7 57.8 276.2 61.9 277.05 89.25 254.8 M28.15 196.3 L44.9 216.7 42.7 226.75 25.45 229.5 10.15 250.7 6.5 240.4 3.05 195.25 10.15 155.8 28.15 196.3" fill="#106557" fill-rule="evenodd" stroke="none"/>
      <path d="M149.75 126.35 L146.0 144.65 133.4 147.95 138.3 151.9 138.3 153.6 99.0 183.95 97.05 277.2 139.25 277.2 138.9 275.2 134.5 276.05 105.4 254.4 99.2 240.7 100.15 239.1 107.6 236.75 133.7 243.65 132.9 238.6 118.85 229.05 125.8 221.75 137.3 223.65 144.25 214.9 186.4 148.7 149.75 126.35 M190.0 148.15 L195.0 199.05 188.5 248.4 184.35 261.9 141.8 274.4 142.0 279.85 54.8 280.1 54.85 275.45 12.85 265.3 11.95 264.7 3.5 240.85 0.0 195.35 8.0 150.6 8.9 149.35 30.7 135.9 57.2 121.25 Q63.25 117.25 68.2 111.55 L68.5 111.3 81.9 49.55 84.05 39.65 84.25 39.15 84.55 38.65 85.45 35.15 85.2 33.95 92.1 1.3 92.3 0.85 92.65 0.55 Q93.05 0.25 93.55 0.25 101.6 0.05 109.7 0.0 L110.4 0.75 110.65 1.15 129.8 111.1 130.85 111.7 131.8 111.95 189.3 146.95 190.0 148.15 M110.35 48.45 L112.9 54.1 112.1 54.85 111.85 54.75 109.75 51.7 Q106.65 46.35 108.7 40.55 109.85 37.4 112.4 35.0 L113.35 34.1 112.35 28.25 104.6 32.7 103.9 31.9 Q103.85 31.7 103.95 31.65 106.0 30.0 108.15 28.55 L111.95 26.15 107.9 2.95 94.8 3.1 89.8 26.75 98.0 33.45 97.15 34.55 89.35 28.9 88.3 33.9 89.35 34.55 Q92.15 36.5 93.0 39.9 93.4 41.6 93.3 43.35 L93.05 45.55 Q92.7 47.85 91.25 49.75 91.0 50.05 90.6 50.15 89.25 50.85 87.75 51.0 L84.65 51.25 80.25 71.9 89.5 58.9 90.7 59.65 87.4 65.0 Q93.3 64.6 99.2 65.85 L100.8 66.3 Q105.35 63.7 110.6 63.75 L112.9 64.05 109.85 59.3 110.6 58.5 111.35 58.65 119.05 69.25 118.65 70.25 117.55 70.3 114.8 66.65 113.1 66.2 Q106.95 64.9 101.35 68.05 L100.7 68.4 Q94.25 66.45 87.7 67.0 L85.85 67.25 78.95 78.1 72.1 110.4 99.4 117.55 126.7 110.65 123.5 92.15 Q119.4 87.3 113.75 84.15 L109.15 82.05 104.55 80.75 98.05 80.1 Q88.65 81.25 81.6 87.5 L78.65 90.0 78.35 90.1 77.65 89.15 Q80.25 85.8 83.55 83.45 87.25 80.8 91.6 79.35 98.95 76.9 106.4 78.85 114.95 81.15 121.5 87.2 L122.9 88.65 116.1 49.85 113.75 36.4 110.65 40.15 110.05 45.8 110.15 47.35 109.55 47.25 110.35 48.45 M96.1 37.95 Q96.15 37.25 96.7 37.05 L97.05 37.05 Q97.95 37.2 97.95 38.1 L95.85 59.5 95.65 60.2 95.3 60.4 Q94.65 60.6 94.25 60.05 L94.15 59.7 Q95.0 48.8 96.1 37.95 M90.7 40.2 Q89.9 37.5 87.35 35.9 L86.65 39.05 86.9 40.8 86.7 42.8 85.1 49.1 Q87.05 49.5 88.95 48.65 90.0 48.1 90.55 46.8 91.7 43.9 90.75 40.4 L90.7 40.2 M63.65 154.35 L68.3 147.45 55.45 146.1 50.0 127.45 11.4 151.3 30.8 194.95 55.45 224.75 68.4 223.4 74.75 230.25 60.9 240.35 60.55 244.15 86.3 235.05 94.85 238.7 96.15 186.4 64.0 155.8 63.65 154.35 M57.2 143.3 L72.15 145.3 67.0 154.55 95.1 181.35 67.6 116.55 52.7 125.8 57.2 143.3 M128.9 114.2 L128.4 113.45 102.1 120.0 112.25 128.0 125.75 120.75 128.9 114.2 M147.0 124.7 L131.65 115.35 101.6 178.15 134.6 152.7 128.8 146.45 143.7 142.5 147.0 124.7 M70.05 114.0 L73.1 121.25 89.55 127.15 96.7 119.95 70.7 113.1 70.05 114.0 M96.4 123.4 Q94.95 124.85 94.95 126.9 94.95 128.95 96.4 130.4 97.8 131.85 99.85 131.85 101.9 131.85 103.35 130.4 104.75 128.95 104.75 126.9 104.75 124.85 103.35 123.4 101.9 121.95 99.85 121.95 97.8 121.95 96.4 123.4 M104.9 133.1 L112.15 149.2 123.6 125.3 112.0 131.25 106.85 127.5 104.9 133.1 M92.95 127.95 L90.3 130.35 74.75 125.2 86.2 152.35 94.6 133.1 92.95 127.95 M97.4 134.2 L87.8 156.2 97.6 179.55 110.45 152.75 102.05 134.2 97.4 134.2 M144.3 219.4 L145.6 225.65 163.7 229.3 Q173.85 237.45 184.4 247.2 L184.7 250.85 185.55 247.8 192.0 199.25 187.45 152.7 146.8 216.5 144.3 219.4 M142.85 225.15 L141.95 222.2 139.95 224.3 142.85 225.15 M107.3 239.8 L102.7 241.4 107.5 252.25 135.45 273.1 181.95 259.4 181.65 248.2 162.6 231.15 127.0 224.6 122.75 228.6 156.4 250.5 156.15 251.85 107.3 239.8 M86.15 238.1 L39.4 254.5 38.45 253.45 71.0 229.6 66.95 226.0 27.1 232.15 11.4 254.15 14.35 262.6 61.2 273.95 87.05 252.8 91.9 240.6 86.15 238.1 M89.25 254.8 L61.9 277.05 57.8 276.2 57.65 277.7 94.05 277.25 94.8 241.55 89.25 254.8 M136.9 244.45 L146.05 246.85 136.3 240.7 136.9 244.45 M28.15 196.3 L10.15 155.8 3.05 195.25 6.5 240.4 10.15 250.7 25.45 229.5 42.7 226.75 44.9 216.7 28.15 196.3 M52.0 225.3 L47.35 219.65 45.9 226.25 52.0 225.3 M57.45 245.25 L57.7 242.55 49.95 247.9 57.45 245.25" fill="#1a1a1a" fill-rule="evenodd" stroke="none"/>
      <path d="M116.1 49.85 L122.9 88.65 121.5 87.2 Q114.95 81.15 106.4 78.85 98.95 76.9 91.6 79.35 87.25 80.8 83.55 83.45 80.25 85.8 77.65 89.15 L78.35 90.1 78.65 90.0 81.6 87.5 Q88.65 81.25 98.05 80.1 L104.55 80.75 109.15 82.05 113.75 84.15 Q119.4 87.3 123.5 92.15 L126.7 110.65 99.4 117.55 72.1 110.4 78.95 78.1 85.85 67.25 87.7 67.0 Q94.25 66.45 100.7 68.4 L101.35 68.05 Q106.95 64.9 113.1 66.2 L114.8 66.65 117.55 70.3 118.65 70.25 119.05 69.25 111.35 58.65 110.6 58.5 109.85 59.3 112.9 64.05 110.6 63.75 Q105.35 63.7 100.8 66.3 L99.2 65.85 Q93.3 64.6 87.4 65.0 L90.7 59.65 89.5 58.9 80.25 71.9 84.65 51.25 87.75 51.0 Q89.25 50.85 90.6 50.15 91.0 50.05 91.25 49.75 92.7 47.85 93.05 45.55 L93.3 43.35 Q93.4 41.6 93.0 39.9 92.15 36.5 89.35 34.55 L88.3 33.9 89.35 28.9 97.15 34.55 98.0 33.45 89.8 26.75 94.8 3.1 107.9 2.95 111.95 26.15 108.15 28.55 Q106.0 30.0 103.95 31.65 103.85 31.7 103.9 31.9 L104.6 32.7 112.35 28.25 113.35 34.1 112.4 35.0 Q109.85 37.4 108.7 40.55 106.65 46.35 109.75 51.7 L111.85 54.75 112.1 54.85 112.9 54.1 110.35 48.45 Q113.55 51.05 116.1 49.85 M96.1 37.95 Q95.0 48.8 94.15 59.7 L94.25 60.05 Q94.65 60.6 95.3 60.4 L95.65 60.2 95.85 59.5 97.95 38.1 Q97.95 37.2 97.05 37.05 L96.7 37.05 Q96.15 37.25 96.1 37.95 M107.3 239.8 L156.15 251.85 156.4 250.5 122.75 228.6 127.0 224.6 162.6 231.15 181.65 248.2 181.95 259.4 135.45 273.1 107.5 252.25 102.7 241.4 107.3 239.8 M86.15 238.1 L91.9 240.6 87.05 252.8 61.2 273.95 14.35 262.6 11.4 254.15 27.1 232.15 66.95 226.0 71.0 229.6 38.45 253.45 39.4 254.5 86.15 238.1" fill="#d56a6a" fill-rule="evenodd" stroke="none"/>
      <path d="M110.05 45.8 L110.65 40.15 Q113.4 40.1 113.5 42.65 113.65 45.35 111.5 46.3 L110.05 45.8 M90.55 46.8 Q87.75 45.7 88.75 42.4 89.25 40.8 90.7 40.2 L90.75 40.4 Q91.7 43.9 90.55 46.8" fill="#000000" fill-rule="evenodd" stroke="none"/>
      <path d="M128.9 114.2 L125.75 120.75 112.25 128.0 102.1 120.0 128.4 113.45 128.9 114.2 M70.05 114.0 L70.7 113.1 96.7 119.95 89.55 127.15 73.1 121.25 70.05 114.0 M92.95 127.95 L94.6 133.1 86.2 152.35 74.75 125.2 90.3 130.35 92.95 127.95 M104.9 133.1 L106.85 127.5 112.0 131.25 123.6 125.3 112.15 149.2 104.9 133.1" fill="#c1d9cb" fill-rule="evenodd" stroke="none"/>
      <path d="M96.4 123.4 Q97.8 121.95 99.85 121.95 101.9 121.95 103.35 123.4 104.75 124.85 104.75 126.9 104.75 128.95 103.35 130.4 101.9 131.85 99.85 131.85 97.8 131.85 96.4 130.4 94.95 128.95 94.95 126.9 94.95 124.85 96.4 123.4 M97.4 134.2 L102.05 134.2 110.45 152.75 97.6 179.55 87.8 156.2 97.4 134.2" fill="#0e4239" fill-rule="evenodd" stroke="none"/>
    </g>
    <g id="shape7" transform="matrix(1.0, 0.0, 0.0, 1.0, -0.25, -0.1)">
      <path d="M41.5 9.2 Q42.4 9.55 43.15 9.95 46.05 11.85 46.9 14.2 L47.35 15.85 47.65 17.9 47.25 18.65 44.0 19.2 38.3 19.95 37.2 18.3 37.9 23.9 45.75 25.9 Q47.7 26.7 49.5 27.85 L51.3 29.45 51.9 30.15 53.05 32.2 Q53.9 34.55 53.45 37.4 53.05 39.65 51.8 42.25 50.75 44.2 48.5 45.95 L41.3 49.9 41.5 51.65 41.65 52.55 41.55 54.25 40.85 54.55 36.85 54.55 33.35 54.55 32.45 54.35 32.1 53.1 32.0 51.75 29.9 51.65 29.95 52.0 30.05 53.35 30.25 54.95 30.05 55.55 29.7 55.8 21.15 55.75 20.85 54.7 20.85 53.9 20.8 52.15 20.8 50.7 Q14.65 48.7 10.65 43.65 L7.9 38.1 7.55 35.2 8.6 34.85 10.8 34.65 18.35 34.25 20.5 38.15 19.95 29.25 Q14.15 29.25 10.1 25.5 8.95 24.2 8.45 22.85 7.9 20.7 8.2 18.6 8.55 16.85 9.35 15.4 10.25 14.05 11.4 12.85 L14.5 10.85 17.6 9.4 17.5 8.85 17.35 8.15 17.1 6.75 17.15 4.7 17.75 4.4 24.8 4.3 25.3 5.6 25.4 6.25 25.5 7.1 27.25 6.95 27.1 6.05 27.05 5.4 26.95 4.05 31.85 2.35 33.7 2.05 35.15 2.35 35.4 3.05 35.6 5.0 35.8 6.45 35.85 7.15 35.9 7.6 38.4 8.15 Q40.1 8.6 41.5 9.2 M45.7 17.05 Q45.55 13.85 43.0 11.9 39.95 9.6 36.1 8.95 L36.85 15.25 Q38.5 16.2 39.2 17.9 L45.7 17.05 M50.5 31.85 Q50.15 30.75 49.3 29.9 44.5 25.35 38.05 25.6 L38.65 30.05 39.6 30.55 Q42.85 32.45 41.55 36.3 L39.75 38.5 41.0 47.75 45.35 45.65 Q47.2 44.6 48.4 43.0 52.3 37.95 50.5 31.85 M27.4 8.2 L25.7 8.35 26.75 14.8 28.3 14.65 27.4 8.2 M28.4 15.6 L26.8 15.75 27.6 23.3 29.5 23.7 28.4 15.6 M25.75 23.5 L23.6 5.85 19.25 5.95 20.8 20.4 21.2 26.55 Q22.1 40.45 22.3 54.4 L28.25 54.0 25.75 23.5 M33.65 3.4 L28.7 4.7 Q30.45 15.1 31.3 25.55 L32.1 34.2 33.65 52.85 39.75 52.65 33.65 3.4 M10.9 18.95 L10.85 19.95 Q10.85 20.9 11.15 21.85 13.15 27.7 19.8 27.9 L19.5 24.35 Q17.9 24.05 17.15 22.75 14.95 18.95 18.75 16.85 L17.85 10.85 Q14.85 12.2 12.8 14.55 11.15 16.4 10.9 18.95 M18.25 20.55 Q18.5 21.5 19.1 22.15 L18.9 18.45 Q17.95 19.3 18.25 20.55 M17.1 36.0 L9.45 36.65 9.8 37.65 Q13.15 45.05 20.75 48.3 L20.55 39.4 Q18.1 38.3 17.1 36.0 M38.85 31.85 L39.5 36.6 Q40.7 34.95 39.5 32.5 L38.85 31.85 M27.8 25.4 L28.1 28.4 30.2 28.6 29.75 25.5 27.8 25.4 M30.35 29.8 L28.2 29.6 29.05 39.75 31.25 39.65 30.35 29.8 M31.35 40.85 L29.15 40.95 29.75 49.8 31.9 49.75 31.35 40.85" fill="#005d51" fill-rule="evenodd" stroke="none"/>
      <path d="M46.9 14.2 Q46.05 11.85 43.15 9.95 42.4 9.55 41.5 9.2 38.85 7.4 35.8 6.45 L35.6 5.0 Q41.65 6.85 46.0 11.25 54.5 20.05 53.05 32.2 L51.9 30.15 51.95 28.7 Q51.75 20.2 46.9 14.2 M35.15 2.35 L33.7 2.05 Q21.3 -0.05 11.55 7.85 2.85 14.9 1.65 25.95 0.9 32.85 3.65 39.2 8.8 50.9 20.85 54.7 L21.15 55.75 29.7 55.8 Q33.45 55.6 36.85 54.55 L40.85 54.55 Q35.35 57.15 28.6 57.3 16.45 56.95 8.4 48.9 4.75 45.25 2.7 40.85 1.25 37.7 0.65 34.15 -0.1 29.5 0.5 24.9 1.2 19.5 3.95 14.75 6.75 10.0 10.95 6.65 14.95 3.5 19.8 1.7 24.05 0.1 28.6 0.1 40.7 0.4 48.8 8.5 56.9 16.55 57.2 28.7 56.85 40.8 48.8 48.9 45.5 52.2 41.55 54.25 L41.65 52.55 Q44.95 50.7 47.8 47.9 55.45 40.2 55.75 28.7 55.45 17.15 47.8 9.5 42.45 4.1 35.15 2.35 M26.95 4.05 L27.05 5.4 25.3 5.6 24.8 4.3 26.95 4.05 M17.1 6.75 L17.35 8.15 11.4 12.85 Q10.25 14.05 9.35 15.4 5.4 21.05 5.2 28.7 5.4 37.45 10.65 43.65 14.65 48.7 20.8 50.7 L20.8 52.15 Q15.35 50.4 11.1 46.15 4.1 39.15 3.85 28.7 4.1 18.2 11.1 11.2 13.8 8.45 17.1 6.75 M30.05 53.35 L29.95 52.0 32.0 51.75 32.1 53.1 30.05 53.35" fill="#006868" fill-rule="evenodd" stroke="none"/>
      <path d="M40.65 12.0 L42.45 12.1 43.6 13.4 Q44.15 15.45 42.2 16.35 41.3 16.6 40.6 16.35 L40.45 16.3 40.4 16.25 Q39.7 15.85 39.25 14.95 38.7 12.9 40.65 12.0 M41.6 15.7 L41.95 15.6 Q43.65 14.75 42.45 13.1 L41.6 15.7 M41.65 12.75 L40.95 12.8 Q39.7 13.35 40.05 14.7 L40.45 15.3 41.65 12.75 M46.05 37.3 Q48.15 37.85 48.0 39.95 47.45 42.05 45.3 41.9 44.3 41.65 43.85 41.05 L43.8 41.0 43.75 40.9 Q43.3 40.25 43.4 39.2 43.95 37.1 46.05 37.3 M44.8 40.8 L45.45 41.05 Q47.4 41.15 47.1 39.15 L44.8 40.8 M46.65 38.45 L45.95 38.1 Q44.6 38.0 44.2 39.35 L44.3 40.15 46.65 38.45 M13.5 18.1 L12.75 18.1 14.15 20.6 14.5 19.95 Q14.75 18.6 13.5 18.1 M10.85 19.95 L10.9 18.95 Q11.55 17.0 13.6 17.25 15.35 17.7 15.4 19.55 15.45 21.1 14.0 21.75 L12.3 21.65 Q11.15 21.15 10.85 19.95 M12.65 20.95 L13.35 21.0 12.0 18.55 11.65 19.1 Q11.4 20.45 12.65 20.95 M17.55 42.65 L17.85 42.0 15.0 42.3 15.45 42.9 Q16.6 43.65 17.55 42.65 M17.3 40.6 Q16.2 39.8 15.2 40.8 L14.9 41.45 17.75 41.15 17.3 40.6 M18.75 41.5 L18.5 42.45 Q17.95 44.1 16.25 44.15 L15.8 44.0 Q13.3 42.75 14.55 40.25 L15.4 39.85 Q17.95 38.9 18.75 41.5" fill="#0f6f61" fill-rule="evenodd" stroke="none"/>
      <path d="M40.65 12.0 Q38.7 12.9 39.25 14.95 39.7 15.85 40.4 16.25 L40.45 16.3 40.6 16.35 Q41.3 16.6 42.2 16.35 44.15 15.45 43.6 13.4 L42.45 12.1 40.65 12.0 M45.7 17.05 L39.2 17.9 Q38.5 16.2 36.85 15.25 L36.1 8.95 Q39.95 9.6 43.0 11.9 45.55 13.85 45.7 17.05 M50.5 31.85 Q52.3 37.95 48.4 43.0 47.2 44.6 45.35 45.65 L41.0 47.75 39.75 38.5 41.55 36.3 Q42.85 32.45 39.6 30.55 L38.65 30.05 38.05 25.6 Q44.5 25.35 49.3 29.9 50.15 30.75 50.5 31.85 M46.05 37.3 Q43.95 37.1 43.4 39.2 43.3 40.25 43.75 40.9 L43.8 41.0 43.85 41.05 Q44.3 41.65 45.3 41.9 47.45 42.05 48.0 39.95 48.15 37.85 46.05 37.3 M32.9 7.7 L31.15 6.85 Q30.6 9.15 30.85 11.4 L31.8 18.75 Q33.9 33.8 34.4 48.9 34.45 50.1 35.5 51.1 L37.15 50.9 Q37.65 50.05 37.55 48.95 L36.95 43.5 36.1 33.95 Q35.3 20.6 32.9 7.7 M27.4 8.2 L28.3 14.65 26.75 14.8 25.7 8.35 27.4 8.2 M24.25 24.5 Q24.2 18.9 23.7 13.7 23.2 8.5 22.1 8.2 20.85 8.6 21.15 13.7 21.45 18.8 22.2 24.2 L23.1 31.05 Q23.5 40.1 23.8 43.3 23.3 47.7 24.9 51.6 26.25 50.8 26.15 48.65 L25.8 45.15 Q24.55 38.45 24.3 31.65 L24.25 24.5 M33.65 3.4 L39.75 52.65 33.65 52.85 32.1 34.2 31.3 25.55 Q30.45 15.1 28.7 4.7 L33.65 3.4 M25.75 23.5 L28.25 54.0 22.3 54.4 Q22.1 40.45 21.2 26.55 L20.8 20.4 19.25 5.95 23.6 5.85 25.75 23.5 M10.85 19.95 Q11.15 21.15 12.3 21.65 L14.0 21.75 Q15.45 21.1 15.4 19.55 15.35 17.7 13.6 17.25 11.55 17.0 10.9 18.95 11.15 16.4 12.8 14.55 14.85 12.2 17.85 10.85 L18.75 16.85 Q14.95 18.95 17.15 22.75 17.9 24.05 19.5 24.35 L19.8 27.9 Q13.15 27.7 11.15 21.85 10.85 20.9 10.85 19.95 M18.75 41.5 Q17.95 38.9 15.4 39.85 L14.55 40.25 Q13.3 42.75 15.8 44.0 L16.25 44.15 Q17.95 44.1 18.5 42.45 L18.75 41.5 M17.1 36.0 Q18.1 38.3 20.55 39.4 L20.75 48.3 Q13.15 45.05 9.8 37.65 L9.45 36.65 17.1 36.0 M27.8 25.4 L29.75 25.5 30.2 28.6 28.1 28.4 27.8 25.4 M31.35 40.85 L31.9 49.75 29.75 49.8 29.15 40.95 31.35 40.85" fill="#85ab93" fill-rule="evenodd" stroke="none"/>
      <path d="M38.4 8.15 L35.9 7.6 35.85 7.15 38.4 8.15 M27.1 6.05 L27.25 6.95 25.5 7.1 25.4 6.25 27.1 6.05 M17.5 8.85 L17.6 9.4 14.5 10.85 Q15.9 9.7 17.5 8.85 M8.2 18.6 Q7.9 20.7 8.45 22.85 7.45 26.0 7.7 29.6 7.85 32.35 8.6 34.85 L7.55 35.2 7.9 38.1 Q6.0 33.85 5.85 28.7 6.0 23.1 8.2 18.6 M51.3 29.45 L49.5 27.85 Q49.25 23.0 47.25 18.65 L47.65 17.9 47.35 15.85 Q51.15 21.35 51.3 28.7 L51.3 29.45" fill="#85b599" fill-rule="evenodd" stroke="none"/>
      <path d="M41.5 9.2 Q40.1 8.6 38.4 8.15 L35.85 7.15 35.8 6.45 Q38.85 7.4 41.5 9.2 M35.4 3.05 L35.15 2.35 Q42.45 4.1 47.8 9.5 55.45 17.15 55.75 28.7 55.45 40.2 47.8 47.9 44.95 50.7 41.65 52.55 L41.5 51.65 Q44.6 49.9 47.2 47.3 L48.5 45.95 Q50.75 44.2 51.8 42.25 53.05 39.65 53.45 37.4 54.8 33.35 54.95 28.6 54.65 17.35 47.2 9.9 42.15 4.85 35.4 3.05 M33.7 2.05 L31.85 2.35 28.5 2.1 Q22.6 2.25 17.75 4.4 L17.15 4.7 Q6.8 9.85 3.35 20.8 0.5 29.95 4.3 38.8 9.25 50.2 20.85 53.9 L20.85 54.7 Q8.8 50.9 3.65 39.2 0.9 32.85 1.65 25.95 2.85 14.9 11.55 7.85 21.3 -0.05 33.7 2.05 M27.05 5.4 L27.1 6.05 25.4 6.25 25.3 5.6 27.05 5.4 M17.35 8.15 L17.5 8.85 Q15.9 9.7 14.5 10.85 L11.4 12.85 17.35 8.15 M9.35 15.4 Q8.55 16.85 8.2 18.6 6.0 23.1 5.85 28.7 6.0 33.85 7.9 38.1 L10.65 43.65 Q5.4 37.45 5.2 28.7 5.4 21.05 9.35 15.4 M29.7 55.8 L30.05 55.55 30.25 54.95 33.35 54.55 36.85 54.55 Q33.45 55.6 29.7 55.8 M29.95 52.0 L29.9 51.65 32.0 51.75 29.95 52.0 M51.9 30.15 L51.3 29.45 51.3 28.7 Q51.15 21.35 47.35 15.85 L46.9 14.2 Q51.75 20.2 51.95 28.7 L51.9 30.15" fill="#085854" fill-rule="evenodd" stroke="none"/>
      <path d="M41.65 12.75 L40.45 15.3 40.05 14.7 Q39.7 13.35 40.95 12.8 L41.65 12.75 M41.6 15.7 L42.45 13.1 Q43.65 14.75 41.95 15.6 L41.6 15.7 M46.65 38.45 L44.3 40.15 44.2 39.35 Q44.6 38.0 45.95 38.1 L46.65 38.45 M44.8 40.8 L47.1 39.15 Q47.4 41.15 45.45 41.05 L44.8 40.8 M13.5 18.1 Q14.75 18.6 14.5 19.95 L14.15 20.6 12.75 18.1 13.5 18.1 M12.65 20.95 Q11.4 20.45 11.65 19.1 L12.0 18.55 13.35 21.0 12.65 20.95 M17.3 40.6 L17.75 41.15 14.9 41.45 15.2 40.8 Q16.2 39.8 17.3 40.6 M17.55 42.65 Q16.6 43.65 15.45 42.9 L15.0 42.3 17.85 42.0 17.55 42.65" fill="#a0beac" fill-rule="evenodd" stroke="none"/>
      <path d="M35.6 5.0 L35.4 3.05 Q42.15 4.85 47.2 9.9 54.65 17.35 54.95 28.6 54.8 33.35 53.45 37.4 53.9 34.55 53.05 32.2 54.5 20.05 46.0 11.25 41.65 6.85 35.6 5.0 M31.85 2.35 L26.95 4.05 24.8 4.3 17.75 4.4 Q22.6 2.25 28.5 2.1 L31.85 2.35 M17.15 4.7 L17.1 6.75 Q13.8 8.45 11.1 11.2 4.1 18.2 3.85 28.7 4.1 39.15 11.1 46.15 15.35 50.4 20.8 52.15 L20.85 53.9 Q9.25 50.2 4.3 38.8 0.5 29.95 3.35 20.8 6.8 9.85 17.15 4.7 M8.45 22.85 Q8.95 24.2 10.1 25.5 8.85 29.75 10.65 34.3 L10.8 34.65 8.6 34.85 Q7.85 32.35 7.7 29.6 7.45 26.0 8.45 22.85 M30.25 54.95 L30.05 53.35 32.1 53.1 32.45 54.35 33.35 54.55 30.25 54.95 M41.5 51.65 L41.3 49.9 48.5 45.95 47.2 47.3 Q44.6 49.9 41.5 51.65 M49.5 27.85 Q47.7 26.7 45.75 25.9 45.45 22.35 44.0 19.2 L47.25 18.65 Q49.25 23.0 49.5 27.85" fill="#98bea8" fill-rule="evenodd" stroke="none"/>
      <path d="M10.1 25.5 Q14.15 29.25 19.95 29.25 L20.5 38.15 18.35 34.25 10.8 34.65 10.65 34.3 Q8.85 29.75 10.1 25.5 M45.75 25.9 L37.9 23.9 37.2 18.3 38.3 19.95 44.0 19.2 Q45.45 22.35 45.75 25.9 M28.4 15.6 L29.5 23.7 27.6 23.3 26.8 15.75 28.4 15.6 M18.25 20.55 Q17.95 19.3 18.9 18.45 L19.1 22.15 Q18.5 21.5 18.25 20.55 M38.85 31.85 L39.5 32.5 Q40.7 34.95 39.5 36.6 L38.85 31.85 M30.35 29.8 L31.25 39.65 29.05 39.75 28.2 29.6 30.35 29.8" fill="#c1d9cb" fill-rule="evenodd" stroke="none"/>
      <path d="M32.9 7.7 Q35.3 20.6 36.1 33.95 L36.95 43.5 37.55 48.95 Q37.65 50.05 37.15 50.9 L35.5 51.1 Q34.45 50.1 34.4 48.9 33.9 33.8 31.8 18.75 L30.85 11.4 Q30.6 9.15 31.15 6.85 L32.9 7.7 M24.25 24.5 L24.3 31.65 Q24.55 38.45 25.8 45.15 L26.15 48.65 Q26.25 50.8 24.9 51.6 23.3 47.7 23.8 43.3 23.5 40.1 23.1 31.05 L22.2 24.2 Q21.45 18.8 21.15 13.7 20.85 8.6 22.1 8.2 23.2 8.5 23.7 13.7 24.2 18.9 24.25 24.5" fill="#689878" fill-rule="evenodd" stroke="none"/>
    </g>
    <g id="text0" transform="matrix(1.0, 0.0, 0.0, 1.0, -0.9, -6.4)">
      <g transform="matrix(1.0, 0.0, 0.0, 1.0, 0.0, 0.0)">
        <use fill="#ffffff" height="47.75" transform="matrix(0.5469, 0.0, 0.0, 0.5469, 8.0, 24.0)" width="90.05" xlink:href="#font_______W7_B0"/>
        <use fill="#ffffff" height="47.75" transform="matrix(0.5469, 0.0, 0.0, 0.5469, 27.65, 24.0)" width="90.05" xlink:href="#font_______W7_l0"/>
        <use fill="#ffffff" height="47.75" transform="matrix(0.5469, 0.0, 0.0, 0.5469, 37.9, 24.0)" width="90.05" xlink:href="#font_______W7_o0"/>
        <use fill="#ffffff" height="47.75" transform="matrix(0.5469, 0.0, 0.0, 0.5469, 52.95, 24.0)" width="90.05" xlink:href="#font_______W7_o0"/>
        <use fill="#ffffff" height="47.75" transform="matrix(0.5469, 0.0, 0.0, 0.5469, 68.0, 24.0)" width="90.05" xlink:href="#font_______W7_d0"/>
      </g>
      <g transform="matrix(1.0, 0.0, 0.0, 1.0, 0.0, 0.0)">
        <use fill="#ffffff" height="47.75" transform="matrix(0.5469, 0.0, 0.0, 0.5469, 0.0, 54.0)" width="90.05" xlink:href="#font_______W7_S0"/>
        <use fill="#ffffff" height="47.75" transform="matrix(0.5469, 0.0, 0.0, 0.5469, 18.4, 54.0)" width="90.05" xlink:href="#font_______W7_u0"/>
        <use fill="#ffffff" height="47.75" transform="matrix(0.5469, 0.0, 0.0, 0.5469, 34.15, 54.0)" width="90.05" xlink:href="#font_______W7_c0"/>
        <use fill="#ffffff" height="47.75" transform="matrix(0.5469, 0.0, 0.0, 0.5469, 49.15, 54.0)" width="90.05" xlink:href="#font_______W7_k0"/>
        <use fill="#ffffff" height="47.75" transform="matrix(0.5469, 0.0, 0.0, 0.5469, 65.25, 54.0)" width="90.05" xlink:href="#font_______W7_e0"/>
        <use fill="#ffffff" height="47.75" transform="matrix(0.5469, 0.0, 0.0, 0.5469, 80.9, 54.0)" width="90.05" xlink:href="#font_______W7_r0"/>
      </g>
    </g>
    <g id="font_______W7_B0">
      <path d="M25.75 -11.3 L25.75 -11.3 Q25.75 -8.4 21.9 -8.4 18.5 -8.4 14.4 -12.15 L12.5 -7.75 11.95 -13.45 Q15.45 -15.85 18.95 -15.85 21.25 -15.85 23.3 -14.7 25.75 -13.4 25.75 -11.3 M23.15 -23.7 L23.15 -23.7 Q23.15 -22.05 21.2 -20.35 L19.0 -20.45 Q15.05 -20.45 11.45 -18.65 L10.85 -24.45 Q15.3 -26.5 18.75 -26.5 L21.55 -25.95 Q23.15 -25.2 23.15 -23.7 M33.9 -10.25 L33.9 -10.25 Q33.9 -14.55 29.85 -17.3 32.05 -20.45 32.05 -23.5 32.05 -27.75 28.35 -29.85 25.45 -31.6 20.9 -31.6 14.3 -31.6 10.4 -29.6 L10.2 -31.55 5.3 -32.15 2.55 0.05 13.15 -1.1 13.05 -2.3 Q17.4 -0.6 21.5 -0.6 26.1 -0.6 29.75 -3.05 33.9 -5.85 33.9 -10.25" fill-rule="evenodd" stroke="none"/>
    </g>
    <g id="font_______W7_l0">
      <path d="M11.6 -31.5 L11.6 -31.5 6.9 -32.15 4.35 0.05 14.4 -1.4 11.6 -31.5" fill-rule="evenodd" stroke="none"/>
    </g>
    <g id="font_______W7_o0">
      <path d="M15.8 -13.5 L15.8 -13.5 Q16.45 -11.85 16.45 -10.4 16.45 -6.85 12.35 -6.85 10.6 -6.85 9.35 -8.05 8.15 -9.35 8.15 -11.05 8.15 -13.25 9.8 -14.6 11.4 -16.0 13.7 -16.0 16.1 -16.0 18.3 -14.3 L15.8 -13.5 M25.7 -11.4 L25.7 -11.4 Q25.7 -13.8 24.75 -16.35 L21.25 -15.25 22.7 -17.2 Q18.35 -21.45 13.15 -21.45 8.45 -21.45 5.1 -18.2 1.8 -14.95 1.8 -10.3 1.8 -5.5 5.4 -2.65 8.65 0.05 13.65 0.05 18.75 0.05 22.2 -3.2 25.7 -6.4 25.7 -11.4" fill-rule="evenodd" stroke="none"/>
    </g>
    <g id="font_______W7_d0">
      <path d="M18.35 -8.95 L18.35 -8.95 16.8 -11.9 Q14.75 -9.45 12.45 -9.45 10.9 -9.45 10.0 -10.4 9.1 -11.4 9.1 -12.95 9.1 -14.5 10.7 -15.6 12.15 -16.5 13.7 -16.5 16.6 -16.5 18.8 -14.55 L18.35 -8.95 M24.9 -31.55 L24.9 -31.55 20.15 -32.2 19.15 -19.55 Q16.05 -21.45 12.65 -21.45 8.15 -21.45 4.95 -18.25 1.8 -15.0 1.8 -10.5 1.8 -6.05 4.6 -3.05 7.4 0.05 11.85 0.05 14.65 0.05 17.7 -1.5 L17.6 0.0 27.65 -1.45 24.9 -31.55" fill-rule="evenodd" stroke="none"/>
    </g>
    <g id="font_______W7_S0">
      <path d="M31.55 -9.25 L31.55 -9.25 Q31.55 -13.4 28.3 -15.85 25.95 -17.65 19.7 -19.75 10.7 -22.75 10.7 -24.2 10.7 -25.4 11.9 -26.1 13.0 -26.75 14.65 -26.75 21.7 -26.75 27.4 -23.2 L30.25 -27.8 Q24.05 -32.15 16.75 -32.15 11.9 -32.15 8.45 -30.45 4.0 -28.25 4.0 -23.9 4.0 -20.3 7.85 -18.05 9.4 -17.1 15.9 -14.75 23.85 -11.9 23.85 -10.1 23.85 -8.7 22.45 -7.9 21.25 -7.25 19.75 -7.25 15.9 -7.25 12.1 -9.95 8.85 -12.25 6.35 -15.9 L1.55 -6.1 Q4.85 -3.25 9.45 -1.6 14.1 0.05 18.65 0.05 23.45 0.05 27.15 -2.15 31.55 -4.75 31.55 -9.25" fill-rule="evenodd" stroke="none"/>
    </g>
    <g id="font_______W7_u0">
      <path d="M24.1 -20.75 L24.1 -20.75 19.25 -21.45 17.9 -8.95 16.15 -11.65 Q13.35 -8.1 10.6 -8.1 9.0 -8.1 8.15 -9.4 7.25 -10.65 7.25 -12.3 7.25 -15.75 8.6 -19.75 L3.9 -21.15 Q2.05 -16.35 2.05 -11.4 2.05 -6.45 4.25 -3.4 6.75 0.05 11.5 0.05 14.55 0.05 17.1 -1.5 L16.95 0.1 26.8 -1.35 24.1 -20.75" fill-rule="evenodd" stroke="none"/>
    </g>
    <g id="font_______W7_c0">
      <path d="M21.35 -12.5 L21.35 -12.5 Q19.95 -10.5 17.75 -9.15 15.35 -7.6 13.15 -7.6 11.4 -7.6 10.2 -8.85 8.9 -10.05 8.9 -11.8 8.9 -14.1 10.65 -15.4 12.2 -16.55 14.55 -16.55 18.9 -16.55 21.9 -13.7 L24.4 -17.55 Q19.65 -21.45 13.1 -21.45 8.05 -21.45 4.9 -18.4 1.8 -15.3 1.8 -10.3 1.8 -5.6 5.7 -2.65 9.25 0.05 14.1 0.05 17.2 0.05 20.45 -1.1 24.05 -2.3 25.9 -4.4 L21.35 -12.5" fill-rule="evenodd" stroke="none"/>
    </g>
    <g id="font_______W7_k0">
      <path d="M20.35 -12.2 L20.35 -12.2 26.9 -17.9 24.8 -21.8 10.85 -14.65 9.3 -31.45 4.6 -32.15 2.05 0.05 12.1 -1.4 11.35 -9.1 13.25 -6.05 15.8 -8.25 22.05 0.25 28.6 -6.95 20.35 -12.2" fill-rule="evenodd" stroke="none"/>
    </g>
    <g id="font_______W7_e0">
      <path d="M19.45 -9.9 L19.45 -9.9 Q16.75 -7.55 13.6 -7.55 10.45 -7.55 9.15 -9.9 L19.45 -9.9 M9.0 -13.4 L9.0 -13.4 Q9.7 -14.95 11.5 -15.95 13.2 -16.8 15.1 -16.8 18.05 -16.8 19.65 -14.35 L9.0 -13.4 M23.25 -9.9 L23.25 -9.9 24.3 -9.9 26.7 -12.6 Q25.85 -16.7 22.9 -19.1 19.9 -21.45 15.15 -21.45 9.65 -21.45 5.9 -18.65 1.8 -15.6 1.8 -10.4 1.8 -5.35 5.8 -2.5 9.3 0.05 14.6 0.05 22.45 0.05 27.15 -4.25 L23.25 -9.9" fill-rule="evenodd" stroke="none"/>
    </g>
    <g id="font_______W7_r0">
      <path d="M18.3 -20.6 L18.3 -20.6 Q16.55 -21.45 14.75 -21.45 11.5 -21.45 8.7 -18.65 L8.45 -20.75 4.45 -21.45 2.55 0.05 10.65 -1.4 9.3 -12.8 Q10.55 -14.85 12.3 -14.85 13.25 -14.85 14.55 -13.85 L16.55 -12.05 18.3 -20.6" fill-rule="evenodd" stroke="none"/>
    </g>
    <g id="text1" transform="matrix(1.0, 0.0, 0.0, 1.0, -1.45, -6.4)">
      <g transform="matrix(1.0, 0.0, 0.0, 1.0, 0.0, 0.0)">
        <use fill="#ffffff" height="47.65" transform="matrix(0.5469, 0.0, 0.0, 0.5469, 11.0, 24.0)" width="100.8" xlink:href="#font_______W7_P0"/>
        <use fill="#ffffff" height="47.65" transform="matrix(0.5469, 0.0, 0.0, 0.5469, 29.9, 24.0)" width="100.8" xlink:href="#font_______W7_e0"/>
        <use fill="#ffffff" height="47.65" transform="matrix(0.5469, 0.0, 0.0, 0.5469, 45.55, 24.0)" width="100.8" xlink:href="#font_______W7_n0"/>
        <use fill="#ffffff" height="47.65" transform="matrix(0.5469, 0.0, 0.0, 0.5469, 61.45, 24.0)" width="100.8" xlink:href="#font_______W7_n0"/>
        <use fill="#ffffff" height="47.65" transform="matrix(0.5469, 0.0, 0.0, 0.5469, 77.3, 24.0)" width="100.8" xlink:href="#font_______W7_y0"/>
      </g>
      <g transform="matrix(1.0, 0.0, 0.0, 1.0, 0.0, 0.0)">
        <use fill="#ffffff" height="47.65" transform="matrix(0.5469, 0.0, 0.0, 0.5469, 0.0, 54.0)" width="100.8" xlink:href="#font_______W7_P0"/>
        <use fill="#ffffff" height="47.65" transform="matrix(0.5469, 0.0, 0.0, 0.5469, 18.9, 54.0)" width="100.8" xlink:href="#font_______W7_i0"/>
        <use fill="#ffffff" height="47.65" transform="matrix(0.5469, 0.0, 0.0, 0.5469, 29.15, 54.0)" width="100.8" xlink:href="#font_______W7_n0"/>
        <use fill="#ffffff" height="47.65" transform="matrix(0.5469, 0.0, 0.0, 0.5469, 45.05, 54.0)" width="100.8" xlink:href="#font_______W7_c0"/>
        <use fill="#ffffff" height="47.65" transform="matrix(0.5469, 0.0, 0.0, 0.5469, 60.05, 54.0)" width="100.8" xlink:href="#font_______W7_h0"/>
        <use fill="#ffffff" height="47.65" transform="matrix(0.5469, 0.0, 0.0, 0.5469, 76.55, 54.0)" width="100.8" xlink:href="#font_______W7_e0"/>
        <use fill="#ffffff" height="47.65" transform="matrix(0.5469, 0.0, 0.0, 0.5469, 92.2, 54.0)" width="100.8" xlink:href="#font_______W7_r0"/>
      </g>
    </g>
    <g id="font_______W7_P0">
      <path d="M25.55 -21.45 L25.55 -21.45 Q25.55 -19.8 24.3 -18.6 23.1 -17.45 21.4 -17.45 17.4 -17.45 13.5 -20.8 L11.65 -16.3 10.9 -24.15 Q15.2 -26.45 18.85 -26.45 21.4 -26.45 23.3 -25.25 25.55 -23.9 25.55 -21.45 M32.5 -20.35 L32.5 -20.35 Q32.5 -25.9 28.85 -28.85 25.45 -31.55 19.75 -31.55 15.45 -31.55 10.4 -29.45 L10.2 -31.5 5.3 -32.15 2.55 0.05 13.15 -1.1 12.2 -11.0 Q15.95 -9.35 19.7 -9.35 25.2 -9.35 28.65 -12.05 32.5 -15.0 32.5 -20.35" fill-rule="evenodd" stroke="none"/>
    </g>
    <g id="font_______W7_n0">
      <path d="M27.0 -9.05 L27.0 -9.05 Q27.0 -14.5 24.65 -17.8 21.9 -21.45 16.6 -21.45 12.6 -21.45 9.45 -18.85 L9.2 -20.75 4.35 -21.45 2.05 0.05 11.95 -1.4 10.35 -12.55 Q12.95 -15.85 15.9 -15.85 19.4 -15.85 19.4 -10.6 19.4 -6.9 16.6 -1.3 L26.2 0.0 Q27.0 -6.5 27.0 -9.05" fill-rule="evenodd" stroke="none"/>
    </g>
    <g id="font_______W7_y0">
      <path d="M21.2 -21.45 L21.2 -21.45 13.15 -10.8 3.65 -21.45 0.5 -19.75 8.5 -4.7 4.3 0.85 12.5 4.75 24.85 -19.65 21.2 -21.45" fill-rule="evenodd" stroke="none"/>
    </g>
    <g id="font_______W7_i0">
      <path d="M11.6 -20.75 L11.6 -20.75 6.75 -21.45 4.45 0.05 14.3 -1.4 11.6 -20.75 M11.9 -31.5 L11.9 -31.5 6.5 -32.15 4.9 -24.95 13.2 -26.1 11.9 -31.5" fill-rule="evenodd" stroke="none"/>
    </g>
    <g id="font_______W7_h0">
      <path d="M28.1 -7.6 L28.1 -7.6 Q28.1 -13.7 25.7 -17.25 22.9 -21.45 17.05 -21.45 13.35 -21.45 10.45 -19.3 L9.3 -31.55 4.65 -32.15 2.05 0.05 12.1 -1.4 11.0 -12.9 Q13.45 -15.95 16.35 -15.95 20.1 -15.95 20.1 -10.2 20.1 -6.55 17.6 -1.55 L27.6 0.05 28.1 -7.6" fill-rule="evenodd" stroke="none"/>
    </g>
    <g id="text2" transform="matrix(1.0, 0.0, 0.0, 1.0, -0.4, -6.4)">
      <g transform="matrix(1.0, 0.0, 0.0, 1.0, 0.0, 0.0)">
        <use fill="#ffffff" height="17.75" transform="matrix(0.5469, 0.0, 0.0, 0.5469, 0.0, 24.0)" width="177.0" xlink:href="#font_______W7_T0"/>
        <use fill="#ffffff" height="17.75" transform="matrix(0.5469, 0.0, 0.0, 0.5469, 18.15, 24.0)" width="177.0" xlink:href="#font_______W7_e0"/>
        <use fill="#ffffff" height="17.75" transform="matrix(0.5469, 0.0, 0.0, 0.5469, 33.8, 24.0)" width="177.0" xlink:href="#font_______W7_l0"/>
        <use fill="#ffffff" height="17.75" transform="matrix(0.5469, 0.0, 0.0, 0.5469, 44.05, 24.0)" width="177.0" xlink:href="#font_______W7_e0"/>
        <use fill="#ffffff" height="17.75" transform="matrix(0.5469, 0.0, 0.0, 0.5469, 59.7, 24.0)" width="177.0" xlink:href="#font_______W7_m0"/>
        <use fill="#ffffff" height="17.75" transform="matrix(0.5469, 0.0, 0.0, 0.5469, 80.15, 24.0)" width="177.0" xlink:href="#font_______W7_a0"/>
        <use fill="#ffffff" height="17.75" transform="matrix(0.5469, 0.0, 0.0, 0.5469, 96.25, 24.0)" width="177.0" xlink:href="#font_______W7_r0"/>
        <use fill="#ffffff" height="17.75" transform="matrix(0.5469, 0.0, 0.0, 0.5469, 106.65, 24.0)" width="177.0" xlink:href="#font_______W7_k0"/>
        <use fill="#ffffff" height="17.75" transform="matrix(0.5469, 0.0, 0.0, 0.5469, 122.75, 24.0)" width="177.0" xlink:href="#font_______W7_e0"/>
        <use fill="#ffffff" height="17.75" transform="matrix(0.5469, 0.0, 0.0, 0.5469, 138.4, 24.0)" width="177.0" xlink:href="#font_______W7_t0"/>
        <use fill="#ffffff" height="17.75" transform="matrix(0.5469, 0.0, 0.0, 0.5469, 151.7, 24.0)" width="177.0" xlink:href="#font_______W7_e0"/>
        <use fill="#ffffff" height="17.75" transform="matrix(0.5469, 0.0, 0.0, 0.5469, 167.4, 24.0)" width="177.0" xlink:href="#font_______W7_r0"/>
      </g>
    </g>
    <g id="font_______W7_T0">
      <path d="M30.8 -32.15 L30.8 -32.15 0.75 -29.4 1.85 -24.25 13.45 -24.25 11.0 0.05 21.6 -1.1 18.95 -24.25 32.35 -24.25 30.8 -32.15" fill-rule="evenodd" stroke="none"/>
    </g>
    <g id="font_______W7_m0">
      <path d="M35.35 -9.0 L35.35 -9.0 Q35.35 -21.45 27.8 -21.45 24.2 -21.45 21.15 -18.8 19.2 -21.45 15.65 -21.45 12.4 -21.45 9.45 -19.2 L9.25 -20.75 4.35 -21.45 2.05 0.05 11.95 -1.4 10.25 -13.85 Q12.25 -15.8 13.75 -15.8 16.4 -15.8 16.4 -11.2 16.4 -8.95 15.2 -5.8 L12.95 -0.75 22.1 0.1 Q23.3 -4.75 23.3 -9.55 23.3 -12.35 22.95 -14.3 24.5 -15.7 25.75 -15.7 28.25 -15.7 28.25 -11.2 28.25 -7.95 25.1 -0.65 L34.25 0.2 Q35.35 -4.25 35.35 -9.0" fill-rule="evenodd" stroke="none"/>
    </g>
    <g id="font_______W7_a0">
      <path d="M19.05 -8.85 L19.05 -8.85 18.5 -5.05 17.1 -9.0 Q14.35 -6.2 10.6 -6.2 9.95 -6.2 9.45 -6.75 9.0 -7.2 9.0 -7.85 9.0 -10.2 13.7 -10.2 15.9 -10.2 19.05 -8.85 M27.4 -6.8 L27.4 -6.8 Q27.4 -21.45 13.35 -21.45 7.15 -21.45 2.55 -18.35 L4.3 -14.35 Q8.3 -16.55 13.15 -16.55 17.85 -16.55 18.85 -13.35 15.4 -14.5 12.8 -14.5 8.6 -14.5 5.6 -12.8 1.8 -10.75 1.8 -6.95 1.8 -3.5 4.9 -1.55 7.55 0.05 11.15 0.05 13.95 0.05 17.35 -0.95 L17.0 0.15 26.7 -0.3 Q27.4 -3.45 27.4 -6.8" fill-rule="evenodd" stroke="none"/>
    </g>
    <g id="font_______W7_t0">
      <path d="M18.7 -12.2 L18.7 -12.2 Q17.0 -9.35 14.9 -9.35 11.95 -9.35 11.95 -15.4 L21.65 -15.4 20.1 -22.55 12.4 -21.45 Q12.75 -24.2 13.6 -27.95 L8.95 -28.85 Q7.75 -24.65 7.1 -20.75 L0.75 -19.9 1.75 -15.4 6.55 -15.4 6.5 -12.55 Q6.5 -6.8 7.75 -4.05 9.5 0.05 14.55 0.05 19.1 0.05 23.25 -4.15 L18.7 -12.2" fill-rule="evenodd" stroke="none"/>
    </g>
    <g id="text3" transform="matrix(1.0, 0.0, 0.0, 1.0, -1.4, -6.4)">
      <g transform="matrix(1.0, 0.0, 0.0, 1.0, 0.0, 0.0)">
        <use fill="#ffffff" height="47.65" transform="matrix(0.5469, 0.0, 0.0, 0.5469, 0.0, 24.0)" width="89.9" xlink:href="#font_______W7_P0"/>
        <use fill="#ffffff" height="47.65" transform="matrix(0.5469, 0.0, 0.0, 0.5469, 18.9, 24.0)" width="89.9" xlink:href="#font_______W7_e0"/>
        <use fill="#ffffff" height="47.65" transform="matrix(0.5469, 0.0, 0.0, 0.5469, 34.55, 24.0)" width="89.9" xlink:href="#font_______W7_n0"/>
        <use fill="#ffffff" height="47.65" transform="matrix(0.5469, 0.0, 0.0, 0.5469, 50.45, 24.0)" width="89.9" xlink:href="#font_______W7_c0"/>
        <use fill="#ffffff" height="47.65" transform="matrix(0.5469, 0.0, 0.0, 0.5469, 65.45, 24.0)" width="89.9" xlink:href="#font_______W7_i0"/>
        <use fill="#ffffff" height="47.65" transform="matrix(0.5469, 0.0, 0.0, 0.5469, 75.7, 24.0)" width="89.9" xlink:href="#font_______W7_l0"/>
      </g>
      <g transform="matrix(1.0, 0.0, 0.0, 1.0, 0.0, 0.0)">
        <use fill="#ffffff" height="47.65" transform="matrix(0.5469, 0.0, 0.0, 0.5469, 0.0, 54.0)" width="89.9" xlink:href="#font_______W7_P0"/>
        <use fill="#ffffff" height="47.65" transform="matrix(0.5469, 0.0, 0.0, 0.5469, 18.9, 54.0)" width="89.9" xlink:href="#font_______W7_u0"/>
        <use fill="#ffffff" height="47.65" transform="matrix(0.5469, 0.0, 0.0, 0.5469, 34.65, 54.0)" width="89.9" xlink:href="#font_______W7_s0"/>
        <use fill="#ffffff" height="47.65" transform="matrix(0.5469, 0.0, 0.0, 0.5469, 49.15, 54.0)" width="89.9" xlink:href="#font_______W7_h0"/>
        <use fill="#ffffff" height="47.65" transform="matrix(0.5469, 0.0, 0.0, 0.5469, 65.65, 54.0)" width="89.9" xlink:href="#font_______W7_e0"/>
        <use fill="#ffffff" height="47.65" transform="matrix(0.5469, 0.0, 0.0, 0.5469, 81.3, 54.0)" width="89.9" xlink:href="#font_______W7_r0"/>
      </g>
    </g>
    <g id="font_______W7_s0">
      <path d="M25.05 -6.35 L25.05 -6.35 Q25.05 -12.25 15.35 -13.65 8.7 -14.6 8.7 -15.7 8.7 -17.05 12.35 -17.05 17.1 -17.05 22.25 -14.8 L23.8 -18.2 Q19.05 -21.45 12.25 -21.45 8.55 -21.45 6.05 -20.35 2.6 -18.85 2.6 -15.7 2.6 -13.1 4.75 -11.8 6.5 -10.75 10.95 -10.05 L16.3 -8.95 Q17.8 -8.4 17.8 -7.5 17.8 -6.2 15.25 -6.2 12.3 -6.2 9.1 -7.45 5.9 -8.7 3.8 -10.65 L1.0 -2.6 Q6.45 0.05 14.3 0.05 25.05 0.05 25.05 -6.35" fill-rule="evenodd" stroke="none"/>
    </g>
  </defs>
</svg>
