<?xml version="1.0" encoding="UTF-8" standalone="no"?>
<svg xmlns:xlink="http://www.w3.org/1999/xlink" height="323.05px" width="595.1px" xmlns="http://www.w3.org/2000/svg">
  <g transform="matrix(1.0, 0.0, 0.0, 1.0, 68.25, 14.45)">
    <use height="256.9" transform="matrix(0.5865, -0.0649, 0.0649, 0.5865, 45.85, 60.85)" width="228.15" xlink:href="#shape0"/>
    <use height="62.9" transform="matrix(0.5865, -0.0649, 0.0649, 0.5865, 103.688, 139.3403)" width="60.15" xlink:href="#shape1"/>
    <use height="263.5" transform="matrix(0.6189, 0.0435, -0.0435, 0.6189, 244.05, -0.6)" width="207.45" xlink:href="#shape2"/>
    <use height="59.15" transform="matrix(0.5887, 0.0414, -0.0414, 0.5887, 281.9794, 102.9521)" width="57.15" xlink:href="#shape3"/>
    <use height="256.4" transform="matrix(0.5903, 0.0, 0.0, 0.5903, 123.25, 121.55)" width="330.8" xlink:href="#shape4"/>
    <use height="57.2" transform="matrix(0.5903, 0.0, 0.0, 0.5903, 203.0976, 202.159)" width="56.95" xlink:href="#shape5"/>
    <use height="21.65" transform="matrix(0.6925, 0.1071, -0.1071, 0.6925, 330.6231, 269.3119)" width="195.9" xlink:href="#text0"/>
    <use height="264.75" transform="matrix(0.6925, 0.1071, -0.1071, 0.6925, 357.55, 78.85)" width="199.9" xlink:href="#shape6"/>
    <use height="57.25" transform="matrix(0.6925, 0.1071, -0.1071, 0.6925, 388.6192, 206.3607)" width="57.1" xlink:href="#shape7"/>
    <use height="18.95" transform="matrix(0.5865, -0.0649, 0.0649, 0.5865, -4.8204, 90.7255)" width="118.8" xlink:href="#text1"/>
    <use height="19.0" transform="matrix(0.6176, 0.0526, -0.0526, 0.6176, 334.0007, 43.695)" width="188.0" xlink:href="#text2"/>
    <use height="21.65" transform="matrix(0.7, 0.0, 0.0, 0.7, 174.365, 281.155)" width="130.6" xlink:href="#text3"/>
  </g>
  <defs>
    <g id="shape0" transform="matrix(1.0, 0.0, 0.0, 1.0, 0.0, 0.0)">
      <path d="M166.1 28.85 Q161.75 47.15 153.45 63.85 L181.2 80.6 220.9 103.0 221.7 104.3 228.15 158.9 228.15 159.35 215.55 228.2 218.2 233.4 Q211.4 241.45 203.25 248.9 199.75 252.1 195.15 254.1 L194.15 254.15 Q191.05 253.3 188.3 251.1 L186.2 249.45 Q181.95 246.1 178.3 242.05 177.15 240.75 176.8 239.25 176.15 236.7 176.1 234.0 175.65 210.95 167.4 189.4 L158.8 198.25 167.3 255.2 166.6 256.65 165.8 256.9 64.15 256.55 63.4 256.35 62.65 254.95 66.9 201.05 53.55 185.15 51.9 186.45 42.75 220.95 45.35 223.0 44.55 231.9 45.35 233.35 Q46.45 235.45 46.35 237.95 38.35 247.1 27.65 252.3 13.8 244.05 3.6 231.65 3.75 201.85 0.0 172.15 L6.45 108.05 6.55 107.7 6.85 107.25 7.2 106.95 7.6 106.75 8.45 106.8 76.95 64.35 77.0 63.8 Q72.5 55.95 68.5 47.8 L66.85 44.45 Q63.85 38.35 61.9 31.85 61.05 28.9 60.7 25.85 60.6 24.9 61.15 24.2 71.7 11.2 86.9 4.0 L86.6 5.0 87.15 3.85 100.65 0.0 135.0 0.0 Q147.4 5.35 158.1 13.5 160.65 15.4 162.9 17.75 167.55 22.5 166.1 28.85 M225.15 159.05 L219.2 108.75 169.65 186.85 Q175.6 201.3 177.9 216.7 L178.3 219.85 178.55 222.95 190.05 215.2 200.05 215.05 Q205.5 214.9 209.1 218.85 L209.95 219.95 213.2 224.65 225.15 159.05 M166.75 185.8 L218.1 104.9 175.8 81.0 171.9 101.05 155.2 104.75 161.3 110.0 161.35 111.6 115.55 147.7 114.9 148.0 113.3 253.7 164.1 253.9 155.75 197.95 166.75 185.8 M169.5 98.75 L173.15 79.0 155.35 69.45 119.1 141.1 157.7 110.7 154.45 107.75 151.25 104.75 Q150.45 104.05 150.7 103.1 L169.5 98.75 M148.8 22.05 L133.3 21.5 Q130.6 21.15 128.25 19.45 L127.7 20.8 127.35 21.2 126.2 21.8 Q124.25 22.45 122.6 21.45 L121.15 20.7 Q118.95 23.8 115.35 24.55 111.25 25.15 107.6 23.75 105.05 22.8 102.55 21.7 L97.05 22.45 Q96.2 22.4 95.5 21.9 93.9 20.8 93.65 19.0 90.95 20.5 88.0 21.15 L80.65 21.6 Q89.95 25.65 99.55 29.35 101.8 30.15 104.25 30.45 L109.15 31.3 Q127.2 30.15 143.85 23.3 L148.8 22.05 M155.0 23.9 L150.15 48.1 157.9 45.8 161.25 36.05 Q163.5 29.8 163.25 23.3 L159.8 22.95 155.0 23.9 M154.65 14.75 Q146.45 8.85 137.3 4.3 128.05 5.9 119.25 9.3 L118.35 8.7 118.55 7.6 131.15 3.0 100.85 3.0 93.15 5.05 102.0 10.8 101.0 11.55 89.35 6.05 Q78.35 12.15 68.1 19.25 L77.7 20.25 Q88.3 20.7 96.9 14.85 L97.95 15.25 97.95 16.4 96.35 17.5 96.9 19.1 103.35 18.7 106.7 20.6 Q111.2 23.1 116.0 21.1 119.05 19.9 119.4 16.5 119.6 14.65 117.9 13.6 110.9 9.45 103.55 13.3 L103.35 14.15 102.65 14.7 101.8 14.75 100.55 13.3 102.7 11.3 Q106.05 8.4 110.4 8.4 L117.4 9.7 Q119.9 10.5 121.55 12.5 124.15 15.65 122.2 19.0 L125.1 20.35 126.3 19.15 126.2 18.15 124.35 15.8 125.4 14.85 128.25 16.5 Q130.3 17.6 132.5 17.85 146.95 20.6 161.5 19.9 L154.65 14.75 M137.2 12.2 Q136.5 13.0 135.65 12.45 133.95 11.3 132.1 10.6 127.45 8.8 124.15 12.6 L123.55 12.7 Q122.5 12.4 122.1 11.1 123.85 7.8 127.45 7.15 132.35 6.3 136.35 9.2 138.3 10.55 137.2 12.2 M151.85 24.5 Q147.25 25.05 142.8 26.75 L135.35 29.25 132.75 52.25 Q138.7 51.6 144.3 49.85 L146.85 49.05 151.85 24.5 M83.9 12.65 Q91.15 7.4 98.9 11.8 L98.45 13.25 97.3 13.7 95.85 12.35 84.45 14.35 83.9 12.65 M81.45 25.15 L87.55 52.9 100.85 53.55 98.15 32.3 81.45 25.15 M101.3 33.15 L103.9 53.55 115.6 53.15 115.6 33.8 111.1 34.15 Q106.2 34.4 101.3 33.15 M115.6 56.25 L104.1 56.25 104.1 61.05 115.6 61.05 115.6 56.25 M118.6 61.05 L128.55 60.05 129.25 55.5 118.6 56.05 118.6 61.05 M110.7 66.05 L123.0 66.75 123.85 67.45 123.45 68.55 Q116.35 71.4 110.05 67.0 L110.7 66.05 M120.55 70.1 L150.5 63.15 153.45 56.55 Q140.3 62.3 126.05 63.5 108.85 64.9 91.65 64.05 84.05 63.2 77.8 59.15 L80.0 62.95 Q98.85 67.95 118.3 70.0 L120.55 70.1 M88.2 55.95 L89.3 60.6 101.3 61.0 101.1 56.55 88.2 55.95 M85.1 55.65 L74.1 52.45 74.7 53.6 86.0 59.75 85.1 55.65 M113.6 85.9 L120.2 85.6 121.9 78.15 117.15 74.35 111.6 79.15 113.6 85.9 M109.15 82.15 L106.5 84.8 87.55 80.05 100.7 108.3 110.9 87.35 109.15 82.15 M120.45 88.6 L113.45 88.9 102.3 111.8 115.85 140.8 130.6 111.7 120.45 88.6 M81.15 66.3 L85.95 76.5 105.5 81.8 112.55 73.4 81.15 66.3 M148.65 55.3 L155.3 52.35 156.5 49.3 149.45 51.45 148.65 55.3 M146.2 52.4 L132.3 55.3 131.6 59.5 145.35 56.4 146.2 52.4 M124.5 80.25 L123.0 86.9 132.35 108.25 146.85 79.6 131.95 86.05 124.5 80.25 M152.9 67.55 L152.0 66.55 120.55 73.2 132.4 82.8 148.65 75.5 152.9 67.55 M118.6 53.05 L129.65 52.45 132.4 30.2 118.6 33.4 118.6 53.05 M76.6 23.7 Q68.75 21.7 63.3 25.45 66.55 38.0 72.05 48.7 L84.35 52.45 78.1 24.05 76.6 23.7 M10.9 110.9 L9.3 110.3 3.05 172.3 3.6 177.5 4.1 182.6 Q5.55 198.0 6.3 213.25 L6.95 225.2 15.5 213.05 31.7 213.4 40.15 219.1 49.5 184.8 51.45 183.0 10.9 110.9 M78.8 103.0 L62.8 101.15 56.05 80.85 12.05 108.1 13.2 108.95 53.4 180.25 69.95 200.7 65.8 253.55 110.3 253.7 111.7 148.2 73.8 111.95 78.8 103.0 M78.55 67.75 L58.75 79.55 64.9 98.55 81.95 100.4 82.35 100.7 82.65 101.55 77.1 111.55 113.2 145.5 114.15 144.2 78.55 67.75 M214.95 232.9 L204.75 217.65 191.3 217.95 179.1 226.4 180.05 232.8 Q187.5 235.3 194.45 231.55 L194.65 228.85 195.1 228.25 Q198.25 231.15 198.05 235.4 L197.35 235.95 196.0 235.6 195.3 234.45 Q187.6 239.9 179.65 235.8 L178.15 238.65 Q185.6 245.9 194.35 251.7 205.35 243.1 214.95 232.9 M43.55 236.9 L42.3 233.95 Q37.65 236.3 32.5 234.95 29.3 234.25 26.35 232.7 L25.95 233.9 24.15 234.3 Q23.65 230.25 25.5 226.6 L26.65 226.5 27.35 227.3 27.2 229.8 Q33.35 233.4 40.0 231.7 40.85 231.6 41.65 231.1 L42.5 224.55 30.35 216.15 16.95 215.85 6.9 230.65 Q16.45 241.0 27.35 249.9 36.2 244.4 43.55 236.9" fill="#1a1a1a" fill-rule="evenodd" stroke="none"/>
      <path d="M169.5 98.75 L150.7 103.1 Q150.45 104.05 151.25 104.75 L154.45 107.75 157.7 110.7 119.1 141.1 155.35 69.45 173.15 79.0 169.5 98.75 M166.75 185.8 L155.75 197.95 164.1 253.9 113.3 253.7 114.9 148.0 115.55 147.7 161.35 111.6 161.3 110.0 155.2 104.75 171.9 101.05 175.8 81.0 218.1 104.9 166.75 185.8 M225.15 159.05 L213.2 224.65 209.95 219.95 209.1 218.85 Q205.5 214.9 200.05 215.05 L190.05 215.2 178.55 222.95 178.3 219.85 177.9 216.7 Q175.6 201.3 169.65 186.85 L219.2 108.75 225.15 159.05 M78.55 67.75 L114.15 144.2 113.2 145.5 77.1 111.55 82.65 101.55 82.35 100.7 81.95 100.4 64.9 98.55 58.75 79.55 78.55 67.75 M78.8 103.0 L73.8 111.95 111.7 148.2 110.3 253.7 65.8 253.55 69.95 200.7 53.4 180.25 13.2 108.95 12.05 108.1 56.05 80.85 62.8 101.15 78.8 103.0 M10.9 110.9 L51.45 183.0 49.5 184.8 40.15 219.1 31.7 213.4 15.5 213.05 6.95 225.2 6.3 213.25 Q5.55 198.0 4.1 182.6 L3.6 177.5 3.05 172.3 9.3 110.3 10.9 110.9" fill="#591f0b" fill-rule="evenodd" stroke="none"/>
      <path d="M155.0 23.9 L159.8 22.95 163.25 23.3 Q163.5 29.8 161.25 36.05 L157.9 45.8 150.15 48.1 155.0 23.9 M151.85 24.5 L146.85 49.05 144.3 49.85 Q138.7 51.6 132.75 52.25 L135.35 29.25 142.8 26.75 Q147.25 25.05 151.85 24.5 M118.6 61.05 L118.6 56.05 129.25 55.5 128.55 60.05 118.6 61.05 M115.6 56.25 L115.6 61.05 104.1 61.05 104.1 56.25 115.6 56.25 M101.3 33.15 Q106.2 34.4 111.1 34.15 L115.6 33.8 115.6 53.15 103.9 53.55 101.3 33.15 M81.45 25.15 L98.15 32.3 100.85 53.55 87.55 52.9 81.45 25.15 M85.1 55.65 L86.0 59.75 74.7 53.6 74.1 52.45 85.1 55.65 M88.2 55.95 L101.1 56.55 101.3 61.0 89.3 60.6 88.2 55.95 M146.2 52.4 L145.35 56.4 131.6 59.5 132.3 55.3 146.2 52.4 M148.65 55.3 L149.45 51.45 156.5 49.3 155.3 52.35 148.65 55.3 M76.6 23.7 L78.1 24.05 84.35 52.45 72.05 48.7 Q66.55 38.0 63.3 25.45 68.75 21.7 76.6 23.7 M118.6 53.05 L118.6 33.4 132.4 30.2 129.65 52.45 118.6 53.05" fill="#ffffff" fill-rule="evenodd" stroke="none"/>
      <path d="M109.15 82.15 L110.9 87.35 100.7 108.3 87.55 80.05 106.5 84.8 109.15 82.15 M81.15 66.3 L112.55 73.4 105.5 81.8 85.95 76.5 81.15 66.3 M152.9 67.55 L148.65 75.5 132.4 82.8 120.55 73.2 152.0 66.55 152.9 67.55 M124.5 80.25 L131.95 86.05 146.85 79.6 132.35 108.25 123.0 86.9 124.5 80.25" fill="#d1b8a2" fill-rule="evenodd" stroke="none"/>
      <path d="M43.55 236.9 Q36.2 244.4 27.35 249.9 16.45 241.0 6.9 230.65 L16.95 215.85 30.35 216.15 42.5 224.55 41.65 231.1 Q40.85 231.6 40.0 231.7 33.35 233.4 27.2 229.8 L27.35 227.3 26.65 226.5 25.5 226.6 Q23.65 230.25 24.15 234.3 L25.95 233.9 26.35 232.7 Q29.3 234.25 32.5 234.95 37.65 236.3 42.3 233.95 L43.55 236.9 M214.95 232.9 Q205.35 243.1 194.35 251.7 185.6 245.9 178.15 238.65 L179.65 235.8 Q187.6 239.9 195.3 234.45 L196.0 235.6 197.35 235.95 198.05 235.4 Q198.25 231.15 195.1 228.25 L194.65 228.85 194.45 231.55 Q187.5 235.3 180.05 232.8 L179.1 226.4 191.3 217.95 204.75 217.65 214.95 232.9" fill="#e6c6b0" fill-rule="evenodd" stroke="none"/>
      <path d="M148.8 22.05 L143.85 23.3 Q127.2 30.15 109.15 31.3 L104.25 30.45 Q101.8 30.15 99.55 29.35 89.95 25.65 80.65 21.6 L88.0 21.15 Q90.95 20.5 93.65 19.0 93.9 20.8 95.5 21.9 96.2 22.4 97.05 22.45 L102.55 21.7 Q105.05 22.8 107.6 23.75 111.25 25.15 115.35 24.55 118.95 23.8 121.15 20.7 L122.6 21.45 Q124.25 22.45 126.2 21.8 L127.35 21.2 127.7 20.8 128.25 19.45 Q130.6 21.15 133.3 21.5 L148.8 22.05 M137.2 12.2 Q138.3 10.55 136.35 9.2 132.35 6.3 127.45 7.15 123.85 7.8 122.1 11.1 122.5 12.4 123.55 12.7 L124.15 12.6 Q127.45 8.8 132.1 10.6 133.95 11.3 135.65 12.45 136.5 13.0 137.2 12.2 M154.65 14.75 L161.5 19.9 Q146.95 20.6 132.5 17.85 130.3 17.6 128.25 16.5 L125.4 14.85 124.35 15.8 126.2 18.15 126.3 19.15 125.1 20.35 122.2 19.0 Q124.15 15.65 121.55 12.5 119.9 10.5 117.4 9.7 L110.4 8.4 Q106.05 8.4 102.7 11.3 L100.55 13.3 101.8 14.75 102.65 14.7 103.35 14.15 103.55 13.3 Q110.9 9.45 117.9 13.6 119.6 14.65 119.4 16.5 119.05 19.9 116.0 21.1 111.2 23.1 106.7 20.6 L103.35 18.7 96.9 19.1 96.35 17.5 97.95 16.4 97.95 15.25 96.9 14.85 Q88.3 20.7 77.7 20.25 L68.1 19.25 Q78.35 12.15 89.35 6.05 L101.0 11.55 102.0 10.8 93.15 5.05 100.85 3.0 131.15 3.0 118.55 7.6 118.35 8.7 119.25 9.3 Q128.05 5.9 137.3 4.3 146.45 8.85 154.65 14.75 M83.9 12.65 L84.45 14.35 95.85 12.35 97.3 13.7 98.45 13.25 98.9 11.8 Q91.15 7.4 83.9 12.65 M120.55 70.1 L118.3 70.0 Q98.85 67.95 80.0 62.95 L77.8 59.15 Q84.05 63.2 91.65 64.05 108.85 64.9 126.05 63.5 140.3 62.3 153.45 56.55 L150.5 63.15 120.55 70.1 M110.7 66.05 L110.05 67.0 Q116.35 71.4 123.45 68.55 L123.85 67.45 123.0 66.75 110.7 66.05" fill="#f3e4de" fill-rule="evenodd" stroke="none"/>
      <path d="M113.6 85.9 L111.6 79.15 117.15 74.35 121.9 78.15 120.2 85.6 113.6 85.9 M120.45 88.6 L130.6 111.7 115.85 140.8 102.3 111.8 113.45 88.9 120.45 88.6" fill="#331c1a" fill-rule="evenodd" stroke="none"/>
    </g>
    <g id="shape1" transform="matrix(1.0, 0.0, 0.0, 1.0, -0.15, 0.0)">
      <path d="M41.2 3.95 L41.15 4.0 41.3 4.0 44.35 3.65 45.1 3.6 49.85 3.3 50.1 7.7 50.1 10.1 49.75 10.45 47.5 10.8 45.55 11.05 44.6 11.15 36.4 11.95 33.15 17.35 Q38.35 28.65 45.4 38.9 L48.7 43.9 40.45 52.5 40.25 52.7 38.35 54.95 36.45 57.35 35.6 58.4 34.3 60.1 33.5 61.15 32.05 62.9 Q30.6 62.8 29.95 61.3 L29.3 60.4 28.2 58.8 27.65 57.95 26.25 56.0 25.6 55.0 Q21.25 48.5 15.35 43.2 L15.05 42.65 Q23.8 32.45 27.0 19.2 L27.55 17.35 24.35 12.1 15.95 11.2 14.75 11.05 12.8 10.8 11.4 10.55 Q10.85 10.45 10.8 10.0 L10.75 9.2 10.75 7.2 11.0 3.3 16.05 3.65 18.8 3.95 19.5 4.05 19.3 3.75 Q18.95 3.3 19.25 2.85 L19.5 2.5 23.6 2.4 36.5 2.4 41.35 2.85 41.2 3.95 M44.4 6.85 L42.0 9.25 42.85 9.45 Q44.45 9.3 44.6 7.7 L44.4 6.85 M41.3 8.5 L43.65 6.15 Q41.6 5.6 41.25 7.7 41.2 8.1 41.3 8.5 M41.15 9.85 Q40.25 9.15 40.1 7.7 40.25 6.15 41.3 5.45 L40.2 5.55 37.4 10.25 40.5 9.9 41.15 9.85 M43.9 5.2 Q45.4 5.8 45.6 7.7 L45.1 9.3 48.1 8.9 48.65 4.7 43.9 5.2 M41.95 38.2 L43.25 38.85 41.9 36.6 37.6 29.35 29.4 25.7 26.75 24.55 25.0 29.65 28.0 31.2 41.95 38.2 M41.95 42.6 Q41.05 43.25 41.3 44.35 L43.8 42.35 Q42.85 41.85 41.95 42.6 M44.15 45.15 L44.4 44.85 44.65 43.4 42.15 45.4 Q43.1 45.85 44.15 45.15 M39.1 48.25 L41.25 49.2 43.65 46.5 42.95 46.6 Q41.5 46.45 40.65 45.3 L40.2 43.85 40.4 42.95 26.4 36.65 22.6 35.0 19.65 39.65 20.85 40.15 22.1 39.8 23.45 40.4 25.05 42.0 39.1 48.25 M34.8 9.0 L35.5 9.6 38.0 5.3 36.5 4.05 35.25 4.1 29.2 4.25 34.8 9.0 M25.45 6.7 L22.5 4.4 22.0 4.4 Q24.5 8.6 27.15 12.45 28.0 13.7 29.3 14.6 L31.5 16.2 33.45 12.95 25.45 6.7 M20.7 6.0 L19.85 6.0 Q20.7 7.2 20.4 8.55 20.15 9.6 19.2 10.1 L23.4 10.5 20.7 6.0 M29.35 18.0 L28.25 20.0 29.85 20.75 34.35 22.7 32.2 18.0 29.35 18.0 M19.5 7.75 Q19.35 6.15 17.75 6.0 L16.95 6.25 19.3 8.6 19.5 7.75 M16.0 7.75 Q16.15 9.35 17.75 9.5 L18.6 9.3 16.25 6.95 Q16.05 7.25 16.0 7.75 M12.25 9.2 L15.8 9.7 Q14.6 8.25 15.3 6.7 L15.75 5.9 12.7 5.45 12.25 9.2 M23.25 41.2 L22.1 40.8 21.3 41.05 23.8 43.05 Q24.05 42.3 23.25 41.2 M20.35 42.55 Q20.5 44.15 22.1 44.3 L22.95 44.1 20.6 41.75 20.35 42.55 M25.05 47.75 L21.05 46.6 25.7 52.6 27.0 54.4 32.65 56.5 34.75 57.05 37.9 53.1 36.05 52.1 25.05 47.75" fill="#441c0c" fill-rule="evenodd" stroke="none"/>
      <path d="M41.3 4.0 L41.2 3.95 41.35 2.85 36.5 2.4 30.15 1.6 23.6 2.4 19.5 2.5 19.25 2.85 Q18.95 3.3 19.3 3.75 L18.8 3.95 16.05 3.65 Q20.25 1.5 25.0 0.6 L26.25 0.4 30.15 0.1 Q38.05 0.3 44.35 3.65 L41.3 4.0 M10.75 7.2 L10.75 9.2 9.9 10.0 Q1.8 18.1 1.5 30.25 1.8 42.4 9.9 50.5 17.35 57.95 28.2 58.8 L29.3 60.4 Q17.05 59.8 8.85 51.55 4.25 46.95 2.05 41.15 -2.2 29.0 3.1 17.3 5.8 11.45 10.75 7.2 M12.8 10.8 L14.75 11.05 Q8.85 15.8 6.5 23.15 3.4 33.0 8.5 42.1 13.6 51.25 23.55 53.95 L25.6 55.0 26.25 56.0 Q18.9 54.95 13.3 50.15 5.4 43.3 4.45 32.95 3.25 19.85 12.8 10.8 M34.3 60.1 L35.6 58.4 Q43.05 57.15 48.8 52.25 57.85 44.45 58.45 32.4 59.05 19.5 50.1 10.1 L50.1 7.7 51.45 8.95 Q60.0 17.45 60.3 30.25 60.0 43.05 51.45 51.55 44.35 58.7 34.3 60.1 M38.35 54.95 L40.25 52.7 Q51.55 47.35 54.05 35.2 56.15 25.1 50.65 16.55 48.6 13.3 45.55 11.05 L47.5 10.8 Q50.95 13.85 53.05 17.95 58.75 29.0 54.0 40.3 49.45 51.2 38.35 54.95" fill="#4f2713" fill-rule="evenodd" stroke="none"/>
      <path d="M41.3 4.0 L41.15 4.0 41.2 3.95 41.3 4.0 M36.5 2.4 L23.6 2.4 30.15 1.6 36.5 2.4 M19.3 3.75 L19.5 4.05 18.8 3.95 19.3 3.75 M10.75 9.2 L10.8 10.0 Q1.1 19.6 2.4 33.1 3.35 42.95 10.25 49.95 17.5 57.2 27.65 57.95 L28.2 58.8 Q17.35 57.95 9.9 50.5 1.8 42.4 1.5 30.25 1.8 18.1 9.9 10.0 L10.75 9.2 M35.6 58.4 L36.45 57.35 Q44.1 55.55 49.75 49.9 57.65 42.0 57.95 30.15 57.65 18.3 49.75 10.45 L50.1 10.1 Q59.05 19.5 58.45 32.4 57.85 44.45 48.8 52.25 43.05 57.15 35.6 58.4" fill="#a89678" fill-rule="evenodd" stroke="none"/>
      <path d="M45.1 3.6 L44.35 3.65 Q38.05 0.3 30.15 0.1 L26.25 0.4 30.75 0.0 Q38.75 0.2 45.1 3.6" fill="#724a30" fill-rule="evenodd" stroke="none"/>
      <path d="M41.3 8.5 Q41.2 8.1 41.25 7.7 41.6 5.6 43.65 6.15 L41.3 8.5 M44.4 6.85 L44.6 7.7 Q44.45 9.3 42.85 9.45 L42.0 9.25 44.4 6.85 M44.15 45.15 Q43.1 45.85 42.15 45.4 L44.65 43.4 44.4 44.85 44.15 45.15 M41.95 42.6 Q42.85 41.85 43.8 42.35 L41.3 44.35 Q41.05 43.25 41.95 42.6 M16.0 7.75 Q16.05 7.25 16.25 6.95 L18.6 9.3 17.75 9.5 Q16.15 9.35 16.0 7.75 M19.5 7.75 L19.3 8.6 16.95 6.25 17.75 6.0 Q19.35 6.15 19.5 7.75 M20.35 42.55 L20.6 41.75 22.95 44.1 22.1 44.3 Q20.5 44.15 20.35 42.55 M23.25 41.2 Q24.05 42.3 23.8 43.05 L21.3 41.05 22.1 40.8 23.25 41.2" fill="#d7cdbb" fill-rule="evenodd" stroke="none"/>
      <path d="M15.95 11.2 L24.35 12.1 27.55 17.35 27.0 19.2 Q23.8 32.45 15.05 42.65 L15.35 43.2 Q21.25 48.5 25.6 55.0 L23.55 53.95 22.3 52.95 Q17.25 51.25 13.4 47.45 6.8 40.95 6.55 30.8 6.8 20.6 13.4 13.55 14.6 12.25 15.95 11.2 M40.45 52.5 L48.7 43.9 45.4 38.9 Q38.35 28.65 33.15 17.35 L36.4 11.95 44.6 11.15 Q51.75 16.65 53.55 25.4 55.55 35.3 50.0 43.55 47.2 47.8 42.95 50.65 L40.45 52.5 M46.05 37.8 L48.6 41.5 Q50.4 39.45 51.3 36.9 52.6 33.25 52.4 29.4 51.85 18.25 43.0 11.75 L41.65 12.05 Q38.8 11.65 36.35 13.2 33.8 16.5 35.55 20.15 40.0 29.5 46.05 37.8 M14.45 42.25 Q18.5 37.2 21.35 31.55 L23.75 25.95 Q25.15 22.1 25.9 17.95 26.3 15.65 24.6 14.0 22.2 12.4 19.25 12.3 15.05 14.65 12.0 18.35 10.25 20.5 9.3 23.5 6.2 33.5 11.7 42.45 14.8 47.45 19.85 49.4 L18.65 48.0 Q17.45 46.65 15.95 45.75 13.95 44.4 14.45 42.25" fill="#a99b81" fill-rule="evenodd" stroke="none"/>
      <path d="M41.15 9.85 L40.5 9.9 37.4 10.25 40.2 5.55 41.3 5.45 Q40.25 6.15 40.1 7.7 40.25 9.15 41.15 9.85 M43.9 5.2 L48.65 4.7 48.1 8.9 45.1 9.3 45.6 7.7 Q45.4 5.8 43.9 5.2 M20.7 6.0 L23.4 10.5 19.2 10.1 Q20.15 9.6 20.4 8.55 20.7 7.2 19.85 6.0 L20.7 6.0 M12.25 9.2 L12.7 5.45 15.75 5.9 15.3 6.7 Q14.6 8.25 15.8 9.7 L12.25 9.2" fill="#b5a581" fill-rule="evenodd" stroke="none"/>
      <path d="M14.75 11.05 L15.95 11.2 Q14.6 12.25 13.4 13.55 6.8 20.6 6.55 30.8 6.8 40.95 13.4 47.45 17.25 51.25 22.3 52.95 L23.55 53.95 Q13.6 51.25 8.5 42.1 3.4 33.0 6.5 23.15 8.85 15.8 14.75 11.05 M40.25 52.7 L40.45 52.5 42.95 50.65 Q47.2 47.8 50.0 43.55 55.55 35.3 53.55 25.4 51.75 16.65 44.6 11.15 L45.55 11.05 Q48.6 13.3 50.65 16.55 56.15 25.1 54.05 35.2 51.55 47.35 40.25 52.7" fill="#887c64" fill-rule="evenodd" stroke="none"/>
      <path d="M10.8 10.0 Q10.85 10.45 11.4 10.55 L12.8 10.8 Q3.25 19.85 4.45 32.95 5.4 43.3 13.3 50.15 18.9 54.95 26.25 56.0 L27.65 57.95 Q17.5 57.2 10.25 49.95 3.35 42.95 2.4 33.1 1.1 19.6 10.8 10.0 M36.45 57.35 L38.35 54.95 Q49.45 51.2 54.0 40.3 58.75 29.0 53.05 17.95 50.95 13.85 47.5 10.8 L49.75 10.45 Q57.65 18.3 57.95 30.15 57.65 42.0 49.75 49.9 44.1 55.55 36.45 57.35" fill="#f0e6ca" fill-rule="evenodd" stroke="none"/>
      <path d="M36.35 13.2 Q38.8 11.65 41.65 12.05 L43.0 11.75 Q51.85 18.25 52.4 29.4 52.6 33.25 51.3 36.9 50.4 39.45 48.6 41.5 L46.05 37.8 Q50.35 29.45 46.7 20.6 43.8 13.75 36.35 13.2 M24.6 14.0 Q16.75 16.25 12.2 23.4 8.65 29.55 11.25 36.2 12.4 39.5 14.45 42.25 13.95 44.4 15.95 45.75 17.45 46.65 18.65 48.0 L19.85 49.4 Q14.8 47.45 11.7 42.45 6.2 33.5 9.3 23.5 10.25 20.5 12.0 18.35 15.05 14.65 19.25 12.3 22.2 12.4 24.6 14.0" fill="#c4b696" fill-rule="evenodd" stroke="none"/>
      <path d="M46.05 37.8 Q40.0 29.5 35.55 20.15 33.8 16.5 36.35 13.2 43.8 13.75 46.7 20.6 50.35 29.45 46.05 37.8 M24.6 14.0 Q26.3 15.65 25.9 17.95 25.15 22.1 23.75 25.95 L21.35 31.55 Q18.5 37.2 14.45 42.25 12.4 39.5 11.25 36.2 8.65 29.55 12.2 23.4 16.75 16.25 24.6 14.0" fill="#d8ceba" fill-rule="evenodd" stroke="none"/>
      <path d="M41.9 36.6 L43.25 38.85 41.95 38.2 41.9 36.6 M28.0 31.2 L25.0 29.65 26.75 24.55 29.4 25.7 28.0 31.2 M40.65 45.3 Q41.5 46.45 42.95 46.6 L43.65 46.5 41.25 49.2 39.1 48.25 40.65 45.3 M25.05 42.0 L23.45 40.4 22.1 39.8 20.85 40.15 19.65 39.65 22.6 35.0 26.4 36.65 25.05 42.0 M35.25 4.1 L36.5 4.05 38.0 5.3 35.5 9.6 34.8 9.0 35.25 4.1 M29.3 14.6 Q28.0 13.7 27.15 12.45 24.5 8.6 22.0 4.4 L22.5 4.4 25.45 6.7 26.55 8.3 Q28.7 11.05 29.3 14.6 M29.85 20.75 L28.25 20.0 29.35 18.0 29.85 20.75 M25.7 52.6 L21.05 46.6 25.05 47.75 25.7 52.6 M36.05 52.1 L37.9 53.1 34.75 57.05 32.65 56.5 36.05 52.1" fill="#af9f81" fill-rule="evenodd" stroke="none"/>
      <path d="M41.9 36.6 L41.95 38.2 28.0 31.2 29.4 25.7 37.6 29.35 41.9 36.6 M40.65 45.3 L39.1 48.25 25.05 42.0 26.4 36.65 40.4 42.95 40.2 43.85 40.65 45.3 M35.25 4.1 L34.8 9.0 29.2 4.25 35.25 4.1 M29.3 14.6 Q28.7 11.05 26.55 8.3 L25.45 6.7 33.45 12.95 31.5 16.2 29.3 14.6 M29.85 20.75 L29.35 18.0 32.2 18.0 34.35 22.7 29.85 20.75 M25.7 52.6 L25.05 47.75 36.05 52.1 32.65 56.5 27.0 54.4 25.7 52.6" fill="#c4b898" fill-rule="evenodd" stroke="none"/>
    </g>
    <g id="shape2" transform="matrix(1.0, 0.0, 0.0, 1.0, 0.0, 0.0)">
      <path d="M47.15 234.7 L47.9 235.25 Q48.25 235.25 48.5 235.75 L48.7 236.85 49.35 249.05 30.7 262.85 29.2 262.45 10.7 244.4 4.1 221.55 0.0 173.1 8.65 126.9 9.35 125.45 53.7 97.95 67.3 89.05 59.6 73.9 68.5 47.65 60.5 47.6 59.9 46.85 59.65 46.4 59.6 45.9 59.75 45.35 87.45 0.7 88.75 0.0 119.55 0.5 Q120.5 0.7 120.95 1.5 L121.25 2.1 121.7 2.9 122.65 4.95 141.85 43.95 Q142.4 45.25 141.0 45.95 L140.55 46.1 135.25 46.35 129.85 46.55 140.4 74.85 137.1 88.65 152.95 97.95 197.9 122.15 198.75 123.35 203.6 164.3 203.7 165.15 204.25 170.25 204.1 171.8 203.95 173.7 201.5 198.25 195.5 243.0 174.85 262.85 156.3 249.05 Q154.95 226.7 150.3 204.95 L143.6 218.8 149.3 263.5 146.3 263.5 140.65 218.35 142.75 213.8 Q146.95 203.9 152.55 194.8 L195.15 124.1 159.2 104.7 155.65 125.05 139.9 129.0 146.45 134.4 146.25 135.95 84.0 201.75 78.1 263.5 75.05 263.5 81.05 200.95 94.4 175.3 61.95 138.45 61.7 138.1 66.85 127.9 51.8 125.9 50.55 123.7 49.4 121.4 48.4 119.0 Q46.55 114.25 46.0 109.05 L45.75 106.4 12.05 127.3 32.05 172.55 56.5 202.15 59.2 263.5 56.2 263.5 53.55 202.75 48.55 196.8 45.55 233.4 47.15 234.7 M201.25 170.2 L196.3 128.05 152.3 200.9 157.55 220.55 157.55 220.7 159.35 233.9 169.25 225.9 169.8 225.75 Q176.35 225.85 184.7 230.65 189.6 233.45 193.1 238.8 L198.55 197.85 201.25 170.2 M121.2 34.75 Q117.7 37.45 114.3 33.7 109.9 28.85 114.5 24.8 116.15 23.35 118.65 23.3 L114.55 19.85 Q114.15 22.6 112.05 23.4 L110.75 23.05 Q109.6 17.7 115.2 16.9 115.7 17.1 116.1 17.45 123.0 24.05 130.5 29.2 L130.45 29.65 Q129.15 31.6 127.2 29.75 L122.15 34.6 121.55 34.55 121.2 34.35 121.2 34.75 M122.2 32.0 L125.3 28.85 Q123.2 28.0 121.65 26.4 L120.4 25.1 116.95 25.55 Q114.55 25.8 113.85 28.05 114.25 31.05 116.65 33.0 118.6 34.4 120.8 33.75 L122.2 32.0 M70.55 73.9 Q67.95 76.6 64.2 76.25 L63.75 76.2 70.5 88.95 71.7 89.25 Q81.95 92.55 90.9 94.9 99.85 97.2 104.35 96.0 L121.05 91.6 134.2 88.05 135.5 82.85 132.4 82.25 131.9 81.4 136.0 80.9 137.25 76.2 Q125.2 76.7 113.85 80.95 L113.15 80.65 113.8 85.4 113.05 86.65 112.3 86.5 Q108.15 63.95 121.3 45.15 L128.0 34.9 129.65 35.95 129.65 36.85 127.7 36.95 Q125.55 40.0 125.25 43.75 L138.15 43.2 119.95 6.3 119.8 5.6 120.65 4.25 119.7 3.5 89.55 3.05 87.95 5.6 63.7 44.65 80.0 44.65 80.0 40.15 77.75 38.9 77.5 39.5 76.6 39.9 75.1 39.15 75.6 38.55 Q78.65 35.2 81.35 38.75 83.75 41.8 83.0 45.8 L83.5 46.45 82.75 48.4 Q100.2 59.5 99.2 80.15 L97.9 80.2 Q97.1 60.65 80.9 49.5 L80.9 47.7 71.7 47.65 63.05 74.35 Q66.95 73.5 70.35 71.15 76.0 67.2 82.4 65.3 88.65 63.3 91.8 68.7 97.1 77.95 90.6 85.85 L90.3 85.75 Q80.0 82.1 71.0 76.0 L70.9 74.9 71.35 74.45 89.35 84.6 Q94.35 75.6 88.85 67.0 88.1 65.8 86.75 65.7 77.3 66.7 70.55 73.9 M123.65 45.5 Q117.05 53.2 114.45 63.05 112.35 71.15 112.95 79.5 124.3 73.85 137.0 74.2 L126.45 45.95 123.65 45.5 M94.3 20.85 Q91.9 21.25 90.4 23.3 95.55 26.25 92.95 31.6 92.05 33.45 90.4 34.25 82.45 38.15 78.9 30.25 L78.5 30.0 77.55 30.35 Q75.3 30.4 74.45 28.35 81.55 27.9 86.65 22.95 88.4 21.25 90.6 20.3 95.95 17.95 98.45 23.5 L97.1 24.5 94.3 20.85 M86.9 33.6 Q90.3 32.1 92.7 28.9 L93.0 28.5 91.75 26.9 89.4 25.0 Q85.65 28.6 80.7 29.75 L82.9 33.3 86.25 33.95 86.9 33.6 M135.15 90.9 L120.4 94.95 119.25 107.2 124.0 110.6 137.35 92.75 135.15 90.9 M137.8 97.95 L88.85 192.25 142.95 135.1 141.55 134.5 Q136.85 132.55 135.25 128.0 L135.35 127.55 Q143.95 124.6 153.1 122.95 L156.3 103.85 140.15 93.95 139.5 94.7 138.8 96.2 137.65 96.55 137.95 97.25 137.8 97.95 M71.35 93.75 L81.35 110.85 83.45 109.55 83.45 95.5 72.8 92.95 71.35 93.75 M68.7 91.95 L48.75 104.6 53.5 123.25 70.25 125.8 Q68.85 132.05 64.9 137.25 L95.85 172.4 99.2 166.0 70.2 97.95 68.4 93.05 Q68.1 92.3 68.7 91.95 M79.9 113.5 L83.65 118.0 83.5 113.05 Q82.0 114.7 80.4 113.8 L79.9 113.5 M29.6 174.35 L10.8 131.85 3.05 173.0 7.1 221.15 12.05 239.4 18.95 228.55 19.4 228.1 20.0 227.9 Q27.85 226.75 35.4 227.85 39.1 228.25 42.55 230.95 L42.55 224.0 45.85 193.65 29.6 174.35 M107.25 109.05 L115.65 115.2 117.25 96.35 108.1 100.55 107.25 109.05 M104.95 101.25 L96.95 102.4 97.3 106.95 104.3 108.05 104.95 101.25 M118.3 118.65 L117.35 119.45 Q110.2 115.9 103.75 111.0 L103.2 137.35 124.05 113.85 119.05 110.75 118.3 118.65 M96.35 109.85 L85.4 119.05 84.65 119.15 100.2 137.85 100.8 110.55 96.35 109.85 M93.9 101.9 L86.5 97.65 86.55 114.65 94.3 107.65 93.9 101.9 M99.05 99.1 L92.4 97.55 95.8 99.5 99.05 99.1 M99.25 141.05 L83.9 123.65 93.85 146.0 99.25 141.05 M100.75 162.0 L120.2 125.65 95.1 148.95 100.75 162.0 M159.8 240.6 L165.05 245.45 173.35 241.85 172.9 238.0 174.9 238.15 Q177.3 241.9 177.05 246.35 L175.95 246.8 174.4 244.65 Q169.7 247.5 164.2 248.45 L159.6 244.5 159.05 247.45 175.15 259.4 192.1 242.85 184.4 230.75 170.65 228.65 159.8 237.6 159.8 240.6 M45.7 240.65 L45.7 237.4 34.85 228.65 21.15 230.75 13.45 242.85 30.4 259.4 46.5 247.45 45.95 244.45 41.05 248.55 31.15 244.65 30.2 246.55 28.55 246.6 Q28.05 242.9 29.95 239.65 L30.7 238.5 31.55 237.45 32.85 238.4 32.2 241.85 40.5 245.45 45.7 240.65" fill="#1a1a1a" fill-rule="evenodd" stroke="none"/>
      <path d="M146.3 263.5 L78.1 263.5 84.0 201.75 146.25 135.95 146.45 134.4 139.9 129.0 155.65 125.05 159.2 104.7 195.15 124.1 152.55 194.8 Q146.95 203.9 142.75 213.8 L140.65 218.35 146.3 263.5 M75.05 263.5 L59.2 263.5 56.5 202.15 32.05 172.55 12.05 127.3 45.75 106.4 46.0 109.05 Q46.55 114.25 48.4 119.0 L49.4 121.4 50.55 123.7 51.8 125.9 66.85 127.9 61.7 138.1 61.95 138.45 94.4 175.3 81.05 200.95 75.05 263.5 M201.25 170.2 L198.55 197.85 193.1 238.8 Q189.6 233.45 184.7 230.65 176.35 225.85 169.8 225.75 L169.25 225.9 159.35 233.9 157.55 220.7 157.55 220.55 152.3 200.9 196.3 128.05 201.25 170.2 M137.8 97.95 L137.95 97.25 137.65 96.55 138.8 96.2 139.5 94.7 140.15 93.95 156.3 103.85 153.1 122.95 Q143.95 124.6 135.35 127.55 L135.25 128.0 Q136.85 132.55 141.55 134.5 L142.95 135.1 88.85 192.25 137.8 97.95 M68.7 91.95 Q68.1 92.3 68.4 93.05 L70.2 97.95 99.2 166.0 95.85 172.4 64.9 137.25 Q68.85 132.05 70.25 125.8 L53.5 123.25 48.75 104.6 68.7 91.95 M29.6 174.35 L45.85 193.65 42.55 224.0 42.55 230.95 Q39.1 228.25 35.4 227.85 27.85 226.75 20.0 227.9 L19.4 228.1 18.95 228.55 12.05 239.4 7.1 221.15 3.05 173.0 10.8 131.85 29.6 174.35 M100.75 162.0 L95.1 148.95 120.2 125.65 100.75 162.0 M99.25 141.05 L93.85 146.0 83.9 123.65 99.25 141.05" fill="#3a3d6a" fill-rule="evenodd" stroke="none"/>
      <path d="M203.6 164.3 Q204.45 164.35 205.2 164.75 L203.7 165.15 203.6 164.3" fill="#e9e9eb" fill-rule="evenodd" stroke="none"/>
      <path d="M205.2 164.75 L206.45 165.8 206.45 166.05 Q206.6 168.8 204.25 170.25 L203.7 165.15 205.2 164.75" fill="#d0cfd0" fill-rule="evenodd" stroke="none"/>
      <path d="M206.45 165.8 Q207.15 166.65 207.25 167.7 L207.25 168.1 Q206.95 171.2 204.1 171.8 L204.25 170.25 Q206.6 168.8 206.45 166.05 L206.45 165.8" fill="#b0aeb3" fill-rule="evenodd" stroke="none"/>
      <path d="M207.25 167.7 Q208.25 171.8 204.65 173.45 L203.95 173.7 204.1 171.8 Q206.95 171.2 207.25 168.1 L207.25 167.7 M47.15 234.7 L47.15 234.55 47.15 234.7 M49.1 232.6 L49.0 232.75 49.05 232.6 49.1 232.6" fill="#47525f" fill-rule="evenodd" stroke="none"/>
      <path d="M116.65 33.0 Q114.25 31.05 113.85 28.05 114.55 25.8 116.95 25.55 L120.4 25.1 121.65 26.4 Q123.2 28.0 125.3 28.85 L122.2 32.0 Q122.2 30.45 119.95 29.95 118.4 30.05 117.35 31.8 L116.65 33.0 M71.35 74.45 L70.55 73.9 Q77.3 66.7 86.75 65.7 88.1 65.8 88.85 67.0 94.35 75.6 89.35 84.6 L71.35 74.45 M82.9 33.3 L80.7 29.75 Q85.65 28.6 89.4 25.0 L91.75 26.9 93.0 28.5 92.7 28.9 Q90.3 32.1 86.9 33.6 L85.6 30.4 84.55 30.35 82.9 33.3" fill="#ffffff" fill-rule="evenodd" stroke="none"/>
      <path d="M121.55 34.55 L121.2 34.75 121.2 34.35 121.55 34.55 M116.65 33.0 L117.35 31.8 Q118.4 30.05 119.95 29.95 122.2 30.45 122.2 32.0 L120.8 33.75 Q118.6 34.4 116.65 33.0 M119.8 5.6 L111.05 6.3 Q105.0 6.85 103.6 12.75 L102.7 11.45 Q97.3 3.15 87.95 5.6 L89.55 3.05 119.7 3.5 120.65 4.25 119.8 5.6 M82.9 33.3 L84.55 30.35 85.6 30.4 86.9 33.6 86.25 33.95 82.9 33.3" fill="#000000" fill-rule="evenodd" stroke="none"/>
      <path d="M121.55 34.55 L122.15 34.6 127.2 29.75 Q129.15 31.6 130.45 29.65 L130.5 29.2 Q123.0 24.05 116.1 17.45 115.7 17.1 115.2 16.9 109.6 17.7 110.75 23.05 L112.05 23.4 Q114.15 22.6 114.55 19.85 L118.65 23.3 Q116.15 23.35 114.5 24.8 109.9 28.85 114.3 33.7 117.7 37.45 121.2 34.75 L121.55 34.55 M119.8 5.6 L119.95 6.3 138.15 43.2 125.25 43.75 Q125.55 40.0 127.7 36.95 L129.65 36.85 129.65 35.95 128.0 34.9 121.3 45.15 Q108.15 63.95 112.3 86.5 L113.05 86.65 113.8 85.4 113.15 80.65 113.85 80.95 Q125.2 76.7 137.25 76.2 L136.0 80.9 131.9 81.4 132.4 82.25 135.5 82.85 134.2 88.05 121.05 91.6 104.35 96.0 Q99.85 97.2 90.9 94.9 81.95 92.55 71.7 89.25 L70.5 88.95 63.75 76.2 64.2 76.25 Q67.95 76.6 70.55 73.9 L71.35 74.45 70.9 74.9 71.0 76.0 Q80.0 82.1 90.3 85.75 L90.6 85.85 Q97.1 77.95 91.8 68.7 88.65 63.3 82.4 65.3 76.0 67.2 70.35 71.15 66.95 73.5 63.05 74.35 L71.7 47.65 80.9 47.7 80.9 49.5 Q97.1 60.65 97.9 80.2 L99.2 80.15 Q100.2 59.5 82.75 48.4 L83.5 46.45 83.0 45.8 Q83.75 41.8 81.35 38.75 78.65 35.2 75.6 38.55 L75.1 39.15 76.6 39.9 77.5 39.5 77.75 38.9 80.0 40.15 80.0 44.65 63.7 44.65 87.95 5.6 Q97.3 3.15 102.7 11.45 L103.6 12.75 Q105.0 6.85 111.05 6.3 L119.8 5.6 M123.65 45.5 L126.45 45.95 137.0 74.2 Q124.3 73.85 112.95 79.5 112.35 71.15 114.45 63.05 117.05 53.2 123.65 45.5 M94.3 20.85 L97.1 24.5 98.45 23.5 Q95.95 17.95 90.6 20.3 88.4 21.25 86.65 22.95 81.55 27.9 74.45 28.35 75.3 30.4 77.55 30.35 L78.5 30.0 78.9 30.25 Q82.45 38.15 90.4 34.25 92.05 33.45 92.95 31.6 95.55 26.25 90.4 23.3 91.9 21.25 94.3 20.85 M135.15 90.9 L137.35 92.75 124.0 110.6 119.25 107.2 120.4 94.95 135.15 90.9 M71.35 93.75 L72.8 92.95 83.45 95.5 83.45 109.55 81.35 110.85 71.35 93.75 M79.9 113.5 L80.4 113.8 Q82.0 114.7 83.5 113.05 L83.65 118.0 79.9 113.5 M96.35 109.85 L100.8 110.55 100.2 137.85 84.65 119.15 85.4 119.05 96.35 109.85 M118.3 118.65 L119.05 110.75 124.05 113.85 103.2 137.35 103.75 111.0 Q110.2 115.9 117.35 119.45 L118.3 118.65 M99.05 99.1 L95.8 99.5 92.4 97.55 99.05 99.1 M159.8 240.6 L159.8 237.6 170.65 228.65 184.4 230.75 192.1 242.85 175.15 259.4 159.05 247.45 159.6 244.5 164.2 248.45 Q169.7 247.5 174.4 244.65 L175.95 246.8 177.05 246.35 Q177.3 241.9 174.9 238.15 L172.9 238.0 173.35 241.85 165.05 245.45 159.8 240.6 M45.7 240.65 L40.5 245.45 32.2 241.85 32.85 238.4 31.55 237.45 30.7 238.5 29.95 239.65 Q28.05 242.9 28.55 246.6 L30.2 246.55 31.15 244.65 41.05 248.55 45.95 244.45 46.5 247.45 30.4 259.4 13.45 242.85 21.15 230.75 34.85 228.65 45.7 237.4 45.7 240.65" fill="#cacfe6" fill-rule="evenodd" stroke="none"/>
      <path d="M104.95 101.25 L104.3 108.05 97.3 106.95 96.95 102.4 104.95 101.25 M107.25 109.05 L108.1 100.55 117.25 96.35 115.65 115.2 107.25 109.05 M93.9 101.9 L94.3 107.65 86.55 114.65 86.5 97.65 93.9 101.9" fill="#990000" fill-rule="evenodd" stroke="none"/>
    </g>
    <g id="shape3" transform="matrix(1.0, 0.0, 0.0, 1.0, -0.05, 0.0)">
      <path d="M40.95 2.45 L41.9 2.8 Q42.4 1.4 44.05 1.25 46.25 1.45 46.45 3.8 L46.45 6.35 48.8 8.45 Q56.9 16.5 57.2 28.65 56.85 40.75 48.8 48.85 42.05 55.65 32.45 56.95 L32.05 57.95 Q31.35 59.0 29.8 59.15 28.3 59.0 27.6 58.05 L27.2 57.2 Q16.0 56.45 8.4 48.85 3.45 43.9 1.4 37.45 -0.45 31.7 0.25 25.75 1.75 13.25 11.8 5.55 L12.4 3.05 Q13.25 0.65 15.6 1.55 16.3 1.85 16.4 2.8 L17.0 2.55 Q21.85 0.45 27.2 0.1 33.95 0.0 40.1 2.5 L40.95 2.45 M40.75 9.5 L41.65 9.15 41.65 3.8 40.95 3.4 Q39.9 3.3 39.45 4.1 L39.5 20.75 40.05 21.3 41.6 21.05 41.65 14.2 41.0 13.95 Q39.6 13.25 39.65 11.65 39.65 10.3 40.75 9.5 M43.6 13.8 L42.65 14.2 Q42.3 22.35 43.9 21.75 L44.95 21.3 44.95 2.65 Q44.35 2.05 43.6 2.4 42.9 2.55 42.75 3.3 L42.65 9.15 43.55 9.5 Q44.2 9.85 44.5 10.65 L44.55 12.55 Q44.25 13.35 43.6 13.8 M42.85 10.1 L41.65 10.1 43.85 12.05 42.85 10.1 M40.75 10.9 L40.5 11.65 Q40.7 13.2 42.15 13.3 L42.65 13.2 40.75 10.9 M33.35 54.6 L33.1 55.4 Q42.4 53.9 48.75 46.85 56.75 37.95 55.55 25.9 54.45 15.35 46.45 8.2 L46.45 9.2 46.45 11.55 Q53.05 18.45 53.3 28.6 53.05 39.1 46.05 46.1 40.85 51.3 33.75 52.75 L33.35 54.6 M34.15 50.65 L34.05 51.35 Q40.4 49.85 45.1 45.15 51.7 38.55 51.95 28.6 51.75 19.75 46.45 13.6 L46.45 14.6 Q46.75 17.8 46.0 20.7 45.25 23.6 42.2 21.75 L41.45 22.0 Q39.2 22.8 38.3 20.55 L33.3 21.2 33.3 23.05 33.95 23.4 Q35.1 23.95 34.9 25.15 L34.35 26.45 32.4 27.25 32.4 29.2 33.85 30.25 33.95 31.8 32.3 32.9 Q34.1 41.75 34.15 50.65 M38.25 4.0 L38.65 3.4 Q29.1 -0.05 19.35 3.1 L19.75 3.6 20.0 4.15 Q29.1 3.05 38.25 4.0 M25.35 51.1 L25.1 48.35 Q25.25 40.65 27.35 32.9 26.65 32.65 26.2 32.25 24.7 30.8 26.4 29.55 L26.9 29.2 26.9 27.25 Q25.3 27.3 24.75 25.95 L24.5 24.95 Q24.55 24.05 25.5 23.4 L26.0 23.05 26.0 21.35 19.95 20.65 Q19.2 22.95 16.85 21.95 L16.1 21.7 Q15.1 23.2 13.3 22.4 12.1 22.0 12.05 20.75 L11.8 13.3 11.8 12.35 Q5.45 18.9 5.2 28.6 5.45 38.55 12.05 45.15 17.6 50.7 25.5 51.75 L25.35 51.1 M16.8 15.6 L16.5 20.75 17.35 21.35 Q18.95 21.55 19.0 19.95 19.1 12.15 18.85 4.35 L18.65 3.7 17.7 3.35 16.6 3.85 16.95 9.95 Q17.9 10.35 18.3 11.4 L18.35 13.15 16.85 14.9 16.8 15.6 M38.2 19.4 L38.2 5.0 Q29.6 4.0 20.9 5.1 L20.0 5.2 20.1 19.4 Q29.1 21.65 38.2 19.4 M33.5 24.4 Q33.3 23.9 32.85 23.9 L27.1 23.4 Q24.95 24.0 26.25 25.85 L26.9 26.45 32.3 26.4 Q33.3 26.4 33.55 25.55 33.7 24.95 33.5 24.4 M27.15 21.35 L27.15 22.95 32.0 22.95 32.0 21.35 27.15 21.35 M15.1 9.8 L15.65 9.7 15.35 3.25 14.95 2.65 14.2 2.25 Q12.95 2.6 12.95 4.0 L13.1 20.6 Q13.1 21.5 14.2 21.7 15.6 21.55 15.55 20.15 L15.3 15.05 Q13.7 14.6 13.35 13.25 L13.3 11.85 Q13.6 10.25 15.1 9.8 M26.35 54.95 L25.85 53.15 Q17.2 52.25 11.1 46.1 3.0 37.75 4.15 26.1 5.05 16.85 11.8 10.5 L11.8 8.1 11.8 7.3 Q2.9 14.65 1.7 25.95 0.55 37.1 7.7 45.9 15.0 54.85 26.6 55.7 L26.35 54.95 M17.25 11.6 L16.6 10.8 15.15 10.8 17.3 13.05 17.25 11.6 M14.45 11.5 L14.2 12.25 Q14.3 13.7 15.85 13.9 L16.6 13.7 14.45 11.5 M27.3 30.4 L26.75 31.15 27.3 32.2 32.6 31.95 32.8 30.9 32.4 30.15 31.05 30.2 27.3 30.4 M31.25 29.1 L31.25 27.25 28.2 27.25 28.3 29.1 31.25 29.1 M32.6 42.15 Q32.15 37.5 31.2 32.9 L28.45 32.9 27.2 39.55 Q26.25 45.2 26.95 51.0 L27.15 52.3 27.15 52.25 Q27.35 49.85 29.75 49.65 31.9 49.85 32.3 51.85 33.05 47.05 32.6 42.15 M30.7 58.1 L32.0 53.55 Q31.35 54.95 29.75 54.85 27.85 54.65 27.35 53.05 L28.65 57.7 30.7 58.1 M29.0 53.7 L29.75 53.95 Q31.9 53.5 31.2 51.5 L29.0 53.7 M29.75 50.6 Q28.25 50.75 28.1 52.25 L28.35 53.05 30.55 50.85 29.75 50.6" fill="#212753" fill-rule="evenodd" stroke="none"/>
      <path d="M40.95 2.45 L40.1 2.5 Q33.95 0.0 27.2 0.1 L29.2 0.0 Q35.6 0.15 40.95 2.45 M46.45 9.2 L46.45 8.2 Q54.45 15.35 55.55 25.9 56.75 37.95 48.75 46.85 42.4 53.9 33.1 55.4 L33.35 54.6 Q44.1 52.5 50.45 43.3 55.05 36.65 54.95 28.6 54.75 17.0 46.45 9.2 M46.45 14.6 L46.45 13.6 Q51.75 19.75 51.95 28.6 51.7 38.55 45.1 45.15 40.4 49.85 34.05 51.35 L34.15 50.65 Q40.2 49.15 44.65 44.7 51.05 38.3 51.3 28.65 51.15 20.45 46.45 14.6 M19.75 3.6 L19.35 3.1 Q29.1 -0.05 38.65 3.4 L38.25 4.0 Q33.8 2.25 28.5 2.1 23.8 2.25 19.75 3.6 M25.35 51.1 L25.5 51.75 Q17.6 50.7 12.05 45.15 5.45 38.55 5.2 28.6 5.45 18.9 11.8 12.35 L11.8 13.3 Q6.1 19.55 5.85 28.65 6.1 38.3 12.5 44.7 17.85 50.0 25.35 51.1 M26.35 54.95 L26.6 55.7 Q15.0 54.85 7.7 45.9 0.55 37.1 1.7 25.95 2.9 14.65 11.8 7.3 L11.8 8.1 Q3.55 15.15 2.3 25.9 1.25 35.3 6.7 43.25 13.85 53.8 26.35 54.95" fill="#514f6f" fill-rule="evenodd" stroke="none"/>
      <path d="M41.0 13.95 L41.65 14.2 41.6 21.05 40.05 21.3 39.5 20.75 39.45 4.1 Q39.9 3.3 40.95 3.4 L41.65 3.8 41.65 9.15 40.75 9.5 40.4 4.85 Q39.7 5.45 39.65 6.45 39.35 12.5 39.85 18.55 39.95 19.55 40.65 19.75 41.55 19.1 41.5 17.7 L41.0 13.95 M43.55 9.5 L42.65 9.15 42.75 3.3 Q42.9 2.55 43.6 2.4 44.35 2.05 44.95 2.65 L44.95 21.3 43.9 21.75 Q42.3 22.35 42.65 14.2 L43.6 13.8 44.0 20.3 44.55 12.55 44.5 10.65 44.25 4.4 43.55 4.3 43.55 9.5 M36.15 9.6 Q34.9 7.5 32.4 7.85 29.75 8.15 27.1 7.8 24.95 7.25 23.1 8.3 20.7 10.35 22.5 12.35 24.25 14.4 26.55 15.0 L31.75 15.4 Q34.7 15.25 36.3 13.5 37.3 11.55 36.15 9.6 M27.5 24.1 L27.45 24.1 Q26.9 24.25 26.9 24.5 26.85 24.85 27.9 25.35 L30.85 25.25 Q31.6 24.85 31.6 24.5 31.5 24.1 30.4 23.85 L27.5 24.1 M27.15 21.35 L32.0 21.35 32.0 22.95 27.15 22.95 27.15 21.35 M33.5 24.4 Q33.7 24.95 33.55 25.55 33.3 26.4 32.3 26.4 L26.9 26.45 26.25 25.85 Q24.95 24.0 27.1 23.4 L32.85 23.9 Q33.3 23.9 33.5 24.4 M38.2 19.4 Q29.1 21.65 20.1 19.4 L20.0 5.2 20.9 5.1 Q29.6 4.0 38.2 5.0 L38.2 19.4 M16.95 9.95 L16.6 3.85 17.7 3.35 18.65 3.7 18.85 4.35 Q19.1 12.15 19.0 19.95 18.95 21.55 17.35 21.35 L16.5 20.75 16.8 15.6 17.85 19.6 18.35 13.15 18.3 11.4 17.45 5.4 16.95 9.95 M15.3 15.05 L15.55 20.15 Q15.6 21.55 14.2 21.7 13.1 21.5 13.1 20.6 L12.95 4.0 Q12.95 2.6 14.2 2.25 L14.95 2.65 15.35 3.25 15.65 9.7 15.1 9.8 14.3 3.55 13.4 4.2 13.3 11.85 13.35 13.25 14.15 20.3 14.85 20.25 15.3 15.05 M31.05 30.2 L32.4 30.15 32.8 30.9 32.6 31.95 27.3 32.2 26.75 31.15 27.3 30.4 27.4 31.15 31.25 31.35 31.5 30.7 31.05 30.2 M31.25 29.1 L28.3 29.1 28.2 27.25 31.25 27.25 31.25 29.1 M27.9 48.35 Q29.05 49.75 30.55 48.65 32.0 47.2 31.6 44.95 31.65 41.3 30.8 37.75 30.7 36.45 29.75 35.6 28.7 35.65 28.3 38.1 27.95 40.5 27.95 41.5 26.8 45.1 27.9 48.35 M32.6 42.15 Q33.05 47.05 32.3 51.85 31.9 49.85 29.75 49.65 27.35 49.85 27.15 52.25 L27.15 52.3 26.95 51.0 Q26.25 45.2 27.2 39.55 L28.45 32.9 31.2 32.9 Q32.15 37.5 32.6 42.15 M30.7 58.1 L28.65 57.7 27.35 53.05 Q27.85 54.65 29.75 54.85 31.35 54.95 32.0 53.55 L30.7 58.1 M29.1 55.9 Q28.65 57.55 30.25 57.4 31.35 56.6 30.65 55.85 L29.1 55.9" fill="#69839d" fill-rule="evenodd" stroke="none"/>
      <path d="M40.75 9.5 Q39.65 10.3 39.65 11.65 39.6 13.25 41.0 13.95 L41.5 17.7 Q41.55 19.1 40.65 19.75 39.95 19.55 39.85 18.55 39.35 12.5 39.65 6.45 39.7 5.45 40.4 4.85 L40.75 9.5 M43.55 9.5 L43.55 4.3 44.25 4.4 44.5 10.65 Q44.2 9.85 43.55 9.5 M44.55 12.55 L44.0 20.3 43.6 13.8 Q44.25 13.35 44.55 12.55 M34.2 11.4 L33.9 10.25 26.9 9.5 Q25.3 9.3 24.4 10.6 24.5 12.95 27.0 13.65 31.6 14.85 34.2 11.4 M36.15 9.6 Q37.3 11.55 36.3 13.5 34.7 15.25 31.75 15.4 L26.55 15.0 Q24.25 14.4 22.5 12.35 20.7 10.35 23.1 8.3 24.95 7.25 27.1 7.8 29.75 8.15 32.4 7.85 34.9 7.5 36.15 9.6 M27.5 24.1 L30.4 23.85 Q31.5 24.1 31.6 24.5 31.6 24.85 30.85 25.25 L27.9 25.35 Q26.85 24.85 26.9 24.5 26.9 24.25 27.45 24.1 L27.5 24.1 M16.8 15.6 L16.85 14.9 18.35 13.15 17.85 19.6 16.8 15.6 M18.3 11.4 Q17.9 10.35 16.95 9.95 L17.45 5.4 18.3 11.4 M15.3 15.05 L14.85 20.25 14.15 20.3 13.35 13.25 Q13.7 14.6 15.3 15.05 M13.3 11.85 L13.4 4.2 14.3 3.55 15.1 9.8 Q13.6 10.25 13.3 11.85 M27.3 30.4 L31.05 30.2 31.5 30.7 31.25 31.35 27.4 31.15 27.3 30.4 M27.9 48.35 Q26.8 45.1 27.95 41.5 27.95 40.5 28.3 38.1 28.7 35.65 29.75 35.6 30.7 36.45 30.8 37.75 31.65 41.3 31.6 44.95 32.0 47.2 30.55 48.65 29.05 49.75 27.9 48.35 M29.1 55.9 L30.65 55.85 Q31.35 56.6 30.25 57.4 28.65 57.55 29.1 55.9" fill="#899db1" fill-rule="evenodd" stroke="none"/>
      <path d="M40.75 10.9 L42.65 13.2 42.15 13.3 Q40.7 13.2 40.5 11.65 L40.75 10.9 M42.85 10.1 L43.85 12.05 41.65 10.1 42.85 10.1 M14.45 11.5 L16.6 13.7 15.85 13.9 Q14.3 13.7 14.2 12.25 L14.45 11.5 M17.25 11.6 L17.3 13.05 15.15 10.8 16.6 10.8 17.25 11.6 M29.75 50.6 L30.55 50.85 28.35 53.05 28.1 52.25 Q28.25 50.75 29.75 50.6 M29.0 53.7 L31.2 51.5 Q31.9 53.5 29.75 53.95 L29.0 53.7" fill="#a1b1c1" fill-rule="evenodd" stroke="none"/>
      <path d="M33.35 54.6 L33.75 52.75 Q40.85 51.3 46.05 46.1 53.05 39.1 53.3 28.6 53.05 18.45 46.45 11.55 L46.45 9.2 Q54.75 17.0 54.95 28.6 55.05 36.65 50.45 43.3 44.1 52.5 33.35 54.6 M45.35 22.9 Q47.1 21.7 46.9 19.6 L46.55 17.25 Q49.55 22.9 49.55 29.45 49.05 40.8 38.0 44.45 L34.9 45.55 34.8 45.15 34.35 43.45 Q38.75 41.7 42.1 38.05 45.75 33.5 45.85 27.7 45.85 25.2 45.35 22.9 M38.25 4.0 Q29.1 3.05 20.0 4.15 L19.75 3.6 Q23.8 2.25 28.5 2.1 33.8 2.25 38.25 4.0 M24.25 45.1 Q24.15 46.55 24.3 47.8 17.65 47.8 13.35 43.15 8.2 37.55 7.7 29.6 7.2 22.7 11.3 17.35 L11.35 17.65 Q11.15 19.95 11.85 21.75 7.8 29.5 12.4 37.1 16.5 43.85 24.25 45.1 M11.8 8.1 L11.8 10.5 Q5.05 16.85 4.15 26.1 3.0 37.75 11.1 46.1 17.2 52.25 25.85 53.15 L26.35 54.95 Q13.85 53.8 6.7 43.25 1.25 35.3 2.3 25.9 3.55 15.15 11.8 8.1" fill="#afc1d9" fill-rule="evenodd" stroke="none"/>
      <path d="M34.15 50.65 Q34.1 41.75 32.3 32.9 L33.95 31.8 34.35 43.45 34.8 45.15 34.9 45.55 38.0 44.45 Q49.05 40.8 49.55 29.45 49.55 22.9 46.55 17.25 L46.9 19.6 Q47.1 21.7 45.35 22.9 L35.9 22.55 34.9 25.15 Q35.1 23.95 33.95 23.4 L33.3 23.05 33.3 21.2 38.3 20.55 Q39.2 22.8 41.45 22.0 L42.2 21.75 Q45.25 23.6 46.0 20.7 46.75 17.8 46.45 14.6 51.15 20.45 51.3 28.65 51.05 38.3 44.65 44.7 40.2 49.15 34.15 50.65 M33.85 30.25 L32.4 29.2 32.4 27.25 34.35 26.45 33.6 28.35 33.85 30.25 M24.25 45.1 L24.95 39.9 Q25.7 35.8 24.45 31.95 L25.5 28.35 23.3 25.55 24.45 22.3 Q22.8 22.45 21.25 23.1 17.0 25.0 12.6 23.2 L11.85 21.75 Q11.15 19.95 11.35 17.65 L11.3 17.35 Q7.2 22.7 7.7 29.6 8.2 37.55 13.35 43.15 17.65 47.8 24.3 47.8 24.15 46.55 24.25 45.1 M11.8 13.3 L12.05 20.75 Q12.1 22.0 13.3 22.4 15.1 23.2 16.1 21.7 L16.85 21.95 Q19.2 22.95 19.95 20.65 L26.0 21.35 26.0 23.05 25.5 23.4 Q24.55 24.05 24.5 24.95 L24.75 25.95 Q25.3 27.3 26.9 27.25 L26.9 29.2 26.4 29.55 Q24.7 30.8 26.2 32.25 26.65 32.65 27.35 32.9 25.25 40.65 25.1 48.35 L25.35 51.1 Q17.85 50.0 12.5 44.7 6.1 38.3 5.85 28.65 6.1 19.55 11.8 13.3" fill="#9ab4cc" fill-rule="evenodd" stroke="none"/>
      <path d="M33.95 31.8 L33.85 30.25 33.6 28.35 34.35 26.45 34.9 25.15 35.9 22.55 45.35 22.9 Q45.85 25.2 45.85 27.7 45.75 33.5 42.1 38.05 38.75 41.7 34.35 43.45 L33.95 31.8 M11.85 21.75 L12.6 23.2 Q17.0 25.0 21.25 23.1 22.8 22.45 24.45 22.3 L23.3 25.55 25.5 28.35 24.45 31.95 Q25.7 35.8 24.95 39.9 L24.25 45.1 Q16.5 43.85 12.4 37.1 7.8 29.5 11.85 21.75" fill="#c5d3e3" fill-rule="evenodd" stroke="none"/>
      <path d="M34.2 11.4 Q31.6 14.85 27.0 13.65 24.5 12.95 24.4 10.6 25.3 9.3 26.9 9.5 L33.9 10.25 34.2 11.4" fill="#a1b3bf" fill-rule="evenodd" stroke="none"/>
    </g>
    <g id="shape4" transform="matrix(1.0, 0.0, 0.0, 1.0, 0.0, 0.0)">
      <path d="M46.0 225.95 L47.35 238.65 41.65 243.45 42.4 244.3 42.8 245.0 Q43.45 246.2 43.15 247.45 L32.45 256.35 32.0 256.4 31.55 256.15 1.4 236.05 1.5 235.5 Q3.55 229.3 6.4 223.25 L0.8 222.55 0.0 221.1 2.2 176.3 2.3 175.8 23.15 123.0 23.4 122.6 72.2 65.4 109.95 52.55 111.25 51.2 128.6 23.9 155.25 0.0 176.0 1.25 201.85 21.75 202.3 22.3 214.85 50.1 261.9 64.0 262.5 64.4 293.55 95.0 293.85 95.35 317.35 138.8 317.5 139.25 330.35 213.35 330.1 214.55 329.8 214.85 318.2 216.3 330.8 230.05 330.6 230.95 311.4 254.0 310.0 254.1 281.9 243.0 281.65 242.55 Q281.4 241.85 281.55 241.2 L283.65 234.6 280.95 230.6 289.75 219.5 277.2 220.9 Q273.95 215.25 272.5 208.75 L270.7 201.8 267.7 191.5 266.65 188.0 268.7 204.8 267.3 252.75 267.1 253.6 265.85 254.2 162.1 255.2 59.6 254.75 58.85 254.55 58.1 253.2 60.15 189.05 61.4 186.2 Q61.7 185.25 61.15 184.55 L60.3 184.55 63.9 145.55 79.45 83.7 Q79.65 82.75 80.7 82.6 L81.3 82.6 81.8 82.95 82.1 83.3 82.35 84.45 66.9 145.9 63.35 183.5 61.15 251.75 160.65 252.2 162.35 139.5 Q162.4 138.8 163.0 138.3 L165.6 136.4 111.55 98.15 Q110.95 97.75 110.95 96.9 L111.05 96.45 111.25 96.0 111.6 95.65 120.1 90.3 96.25 87.15 95.85 86.75 95.55 86.35 95.4 85.85 94.9 60.5 74.25 67.65 25.85 124.35 5.2 176.7 3.1 219.8 43.55 224.4 44.15 226.05 44.05 226.5 44.75 227.05 45.1 226.3 46.0 225.95 M291.3 96.95 L260.7 66.8 230.1 57.75 228.95 82.3 215.95 87.4 226.2 92.9 226.0 95.0 165.35 140.3 163.65 252.2 264.35 251.25 265.7 204.9 262.8 181.4 255.55 129.6 238.75 73.4 238.85 72.25 239.75 71.55 240.35 71.6 240.85 71.75 241.3 72.1 241.6 72.55 258.5 129.1 265.75 180.95 267.9 184.3 278.8 217.7 327.1 212.3 314.6 140.05 291.3 96.95 M186.6 23.6 L186.35 23.05 182.1 23.15 175.3 27.5 Q178.5 26.65 181.75 27.65 182.65 27.9 182.9 29.0 L182.5 30.0 182.1 30.15 Q176.0 27.95 170.45 31.65 184.5 32.8 195.55 41.4 199.75 44.65 199.8 50.0 L199.2 50.65 198.0 50.0 Q188.0 43.0 176.85 38.35 168.6 34.95 161.95 36.75 155.3 38.5 148.4 42.05 141.45 45.55 131.7 53.95 L130.7 53.2 Q136.35 42.0 148.2 37.55 152.55 35.95 157.0 35.45 L163.55 34.5 Q166.8 34.0 169.95 34.55 185.55 37.85 197.6 48.0 195.1 41.7 188.4 38.95 L182.05 36.5 Q175.95 34.1 169.7 33.35 L169.4 32.6 168.5 32.9 167.7 32.2 Q173.6 24.7 182.55 21.8 L185.2 21.9 Q186.65 22.4 187.65 23.45 L187.1 23.9 186.6 23.6 M179.55 7.9 L174.5 3.9 156.8 2.65 152.35 6.6 131.0 25.7 114.8 51.25 151.0 62.25 151.95 63.15 176.8 63.9 176.65 62.65 176.75 62.15 177.1 61.65 177.5 61.35 210.7 48.25 199.65 23.85 179.55 7.9 M162.7 22.9 L163.8 22.7 164.4 23.6 164.35 31.75 163.4 32.35 162.5 31.75 162.7 22.9 M177.45 66.85 L174.5 67.05 151.35 66.1 148.05 76.2 159.05 86.05 172.4 84.45 179.3 75.4 177.45 66.85 M183.7 81.55 L195.5 80.65 211.75 51.55 211.4 51.2 179.8 63.7 183.7 81.55 M180.1 79.25 L175.0 85.95 184.05 101.3 193.75 83.8 182.1 84.65 181.05 83.5 180.1 79.25 M211.65 88.4 L211.2 88.1 Q210.4 87.1 211.3 86.1 L211.75 85.75 226.3 80.35 227.15 56.85 214.3 53.05 169.55 133.45 222.3 94.05 211.65 88.4 M167.25 131.45 L182.35 104.35 172.4 87.5 159.45 89.05 148.9 106.1 167.25 131.45 M144.05 23.9 L143.65 23.25 143.8 22.5 Q145.25 22.1 146.65 22.5 155.6 25.65 161.65 33.0 L160.85 33.9 Q156.4 30.1 150.45 30.3 L150.1 29.25 Q151.8 27.75 153.95 28.35 L153.05 27.55 Q149.25 24.1 144.05 23.9 M113.05 53.85 L112.1 55.2 142.6 83.25 148.65 64.65 113.05 53.85 M137.95 46.4 L136.65 47.75 154.5 37.25 Q143.55 40.95 137.95 46.4 M97.9 59.5 L98.4 84.5 124.6 87.9 125.8 88.75 125.65 90.15 115.1 97.0 163.25 131.05 108.9 55.9 97.9 59.5 M156.6 87.9 L147.0 79.3 144.5 86.1 Q144.25 86.65 143.65 86.85 L142.8 86.7 120.45 66.55 147.0 103.45 156.6 87.9 M291.5 228.15 L291.4 227.6 Q291.45 227.3 291.65 227.05 L293.45 227.0 Q295.25 230.3 296.4 233.95 296.9 235.65 295.0 235.9 294.45 235.6 294.2 235.2 293.35 233.7 292.75 232.1 L290.5 234.6 289.9 234.95 289.6 235.2 286.8 234.8 284.4 240.75 310.1 250.9 327.45 230.1 314.4 216.75 293.75 219.05 284.2 230.6 285.1 231.7 288.8 232.05 291.65 228.75 291.5 228.15 M44.25 237.75 L43.25 227.4 9.55 223.6 4.35 234.45 32.25 253.05 40.0 246.45 31.15 237.55 Q30.6 236.85 30.8 236.0 L31.05 235.4 32.45 235.35 Q36.2 238.05 39.7 241.15 L44.25 237.75" fill="#1a1a1a" fill-rule="evenodd" stroke="none"/>
      <path d="M43.55 224.4 L3.1 219.8 5.2 176.7 25.85 124.35 74.25 67.65 94.9 60.5 95.4 85.85 95.55 86.35 95.85 86.75 96.25 87.15 120.1 90.3 111.6 95.65 111.25 96.0 111.05 96.45 110.95 96.9 Q110.95 97.75 111.55 98.15 L165.6 136.4 163.0 138.3 Q162.4 138.8 162.35 139.5 L160.65 252.2 61.15 251.75 63.35 183.5 66.9 145.9 82.35 84.45 82.1 83.3 81.8 82.95 81.3 82.6 80.7 82.6 Q79.65 82.75 79.45 83.7 L63.9 145.55 60.3 184.55 Q54.1 192.3 49.9 201.2 L49.65 201.95 43.55 224.4 M291.3 96.95 L314.6 140.05 327.1 212.3 278.8 217.7 267.9 184.3 265.75 180.95 258.5 129.1 241.6 72.55 241.3 72.1 240.85 71.75 240.35 71.6 239.75 71.55 238.85 72.25 238.75 73.4 255.55 129.6 262.8 181.4 265.7 204.9 264.35 251.25 163.65 252.2 165.35 140.3 226.0 95.0 226.2 92.9 215.95 87.4 228.95 82.3 230.1 57.75 260.7 66.8 291.3 96.95 M211.65 88.4 L222.3 94.05 169.55 133.45 214.3 53.05 227.15 56.85 226.3 80.35 211.75 85.75 211.3 86.1 Q210.4 87.1 211.2 88.1 L211.65 88.4 M97.9 59.5 L108.9 55.9 163.25 131.05 115.1 97.0 125.65 90.15 125.8 88.75 124.6 87.9 98.4 84.5 97.9 59.5" fill="#106557" fill-rule="evenodd" stroke="none"/>
      <path d="M180.1 79.25 L181.05 83.5 182.1 84.65 193.75 83.8 184.05 101.3 175.0 85.95 180.1 79.25 M183.7 81.55 L179.8 63.7 211.4 51.2 211.75 51.55 195.5 80.65 183.7 81.55 M137.95 46.4 Q143.55 40.95 154.5 37.25 L136.65 47.75 137.95 46.4 M113.05 53.85 L148.65 64.65 142.6 83.25 112.1 55.2 113.05 53.85 M156.6 87.9 L147.0 103.45 120.45 66.55 142.8 86.7 143.65 86.85 Q144.25 86.65 144.5 86.1 L147.0 79.3 156.6 87.9 M44.25 237.75 L39.7 241.15 Q36.2 238.05 32.45 235.35 L31.05 235.4 30.8 236.0 Q30.6 236.85 31.15 237.55 L40.0 246.45 32.25 253.05 4.35 234.45 9.55 223.6 43.25 227.4 44.25 237.75 M291.5 228.15 L291.65 228.75 288.8 232.05 285.1 231.7 284.2 230.6 293.75 219.05 314.4 216.75 327.45 230.1 310.1 250.9 284.4 240.75 286.8 234.8 289.6 235.2 289.9 234.95 290.5 234.6 292.75 232.1 Q293.35 233.7 294.2 235.2 294.45 235.6 295.0 235.9 296.9 235.65 296.4 233.95 295.25 230.3 293.45 227.0 L291.65 227.05 Q291.45 227.3 291.4 227.6 L291.5 228.15" fill="#c1d9cb" fill-rule="evenodd" stroke="none"/>
      <path d="M152.35 6.6 L156.8 2.65 174.5 3.9 179.55 7.9 152.35 6.6 M177.45 66.85 L179.3 75.4 172.4 84.45 159.05 86.05 148.05 76.2 151.35 66.1 174.5 67.05 177.45 66.85 M167.25 131.45 L148.9 106.1 159.45 89.05 172.4 87.5 182.35 104.35 167.25 131.45" fill="#0e4239" fill-rule="evenodd" stroke="none"/>
      <path d="M46.0 225.95 L45.1 226.3 44.75 227.05 44.05 226.5 44.15 226.05 43.55 224.4 49.65 201.95 49.9 201.2 Q54.1 192.3 60.3 184.55 L61.15 184.55 Q61.7 185.25 61.4 186.2 L60.15 189.05 52.9 200.65 53.05 201.1 46.0 225.95" fill="#000000" fill-rule="evenodd" stroke="none"/>
      <path d="M186.6 23.6 L187.1 23.9 187.65 23.45 Q186.65 22.4 185.2 21.9 L182.55 21.8 Q173.6 24.7 167.7 32.2 L168.5 32.9 169.4 32.6 169.7 33.35 Q175.95 34.1 182.05 36.5 L188.4 38.95 Q195.1 41.7 197.6 48.0 185.55 37.85 169.95 34.55 166.8 34.0 163.55 34.5 L157.0 35.45 Q152.55 35.95 148.2 37.55 136.35 42.0 130.7 53.2 L131.7 53.95 Q141.45 45.55 148.4 42.05 155.3 38.5 161.95 36.75 168.6 34.95 176.85 38.35 188.0 43.0 198.0 50.0 L199.2 50.65 199.8 50.0 Q199.75 44.65 195.55 41.4 184.5 32.8 170.45 31.65 176.0 27.95 182.1 30.15 L182.5 30.0 182.9 29.0 Q182.65 27.9 181.75 27.65 178.5 26.65 175.3 27.5 L182.1 23.15 186.35 23.05 186.6 23.6 M152.35 6.6 L179.55 7.9 199.65 23.85 210.7 48.25 177.5 61.35 177.1 61.65 176.75 62.15 176.65 62.65 176.8 63.9 151.95 63.15 151.0 62.25 114.8 51.25 131.0 25.7 152.35 6.6 M162.7 22.9 L162.5 31.75 163.4 32.35 164.35 31.75 164.4 23.6 163.8 22.7 162.7 22.9 M144.05 23.9 Q149.25 24.1 153.05 27.55 L153.95 28.35 Q151.8 27.75 150.1 29.25 L150.45 30.3 Q156.4 30.1 160.85 33.9 L161.65 33.0 Q155.6 25.65 146.65 22.5 145.25 22.1 143.8 22.5 L143.65 23.25 144.05 23.9" fill="#edf3ef" fill-rule="evenodd" stroke="none"/>
    </g>
    <g id="shape5" transform="matrix(1.0, 0.0, 0.0, 1.0, -0.25, -0.1)">
      <path d="M41.5 9.2 Q42.4 9.55 43.15 9.95 46.05 11.85 46.9 14.2 L47.35 15.85 47.65 17.9 47.25 18.65 44.0 19.2 38.3 19.95 37.2 18.3 37.9 23.9 45.75 25.9 Q47.7 26.7 49.5 27.85 L51.3 29.45 51.9 30.15 53.05 32.2 Q53.9 34.55 53.45 37.4 53.05 39.65 51.8 42.25 50.75 44.2 48.5 45.95 L41.3 49.9 41.5 51.65 41.65 52.55 41.55 54.25 40.85 54.55 36.85 54.55 33.35 54.55 32.45 54.35 32.1 53.1 32.0 51.75 29.9 51.65 29.95 52.0 30.05 53.35 30.25 54.95 30.05 55.55 29.7 55.8 21.15 55.75 20.85 54.7 20.85 53.9 20.8 52.15 20.8 50.7 Q14.65 48.7 10.65 43.65 L7.9 38.1 7.55 35.2 8.6 34.85 10.8 34.65 18.35 34.25 20.5 38.15 19.95 29.25 Q14.15 29.25 10.1 25.5 8.95 24.2 8.45 22.85 7.9 20.7 8.2 18.6 8.55 16.85 9.35 15.4 10.25 14.05 11.4 12.85 L14.5 10.85 17.6 9.4 17.5 8.85 17.35 8.15 17.1 6.75 17.15 4.7 17.75 4.4 24.8 4.3 25.3 5.6 25.4 6.25 25.5 7.1 27.25 6.95 27.1 6.05 27.05 5.4 26.95 4.05 31.85 2.35 33.7 2.05 35.15 2.35 35.4 3.05 35.6 5.0 35.8 6.45 35.85 7.15 35.9 7.6 38.4 8.15 Q40.1 8.6 41.5 9.2 M45.7 17.05 Q45.55 13.85 43.0 11.9 39.95 9.6 36.1 8.95 L36.85 15.25 Q38.5 16.2 39.2 17.9 L45.7 17.05 M50.5 31.85 Q50.15 30.75 49.3 29.9 44.5 25.35 38.05 25.6 L38.65 30.05 39.6 30.55 Q42.85 32.45 41.55 36.3 L39.75 38.5 41.0 47.75 45.35 45.65 Q47.2 44.6 48.4 43.0 52.3 37.95 50.5 31.85 M27.4 8.2 L25.7 8.35 26.75 14.8 28.3 14.65 27.4 8.2 M28.4 15.6 L26.8 15.75 27.6 23.3 29.5 23.7 28.4 15.6 M25.75 23.5 L23.6 5.85 19.25 5.95 20.8 20.4 21.2 26.55 Q22.1 40.45 22.3 54.4 L28.25 54.0 25.75 23.5 M33.65 3.4 L28.7 4.7 Q30.45 15.1 31.3 25.55 L32.1 34.2 33.65 52.85 39.75 52.65 33.65 3.4 M10.9 18.95 L10.85 19.95 Q10.85 20.9 11.15 21.85 13.15 27.7 19.8 27.9 L19.5 24.35 Q17.9 24.05 17.15 22.75 14.95 18.95 18.75 16.85 L17.85 10.85 Q14.85 12.2 12.8 14.55 11.15 16.4 10.9 18.95 M18.25 20.55 Q18.5 21.5 19.1 22.15 L18.9 18.45 Q17.95 19.3 18.25 20.55 M17.1 36.0 L9.45 36.65 9.8 37.65 Q13.15 45.05 20.75 48.3 L20.55 39.4 Q18.1 38.3 17.1 36.0 M38.85 31.85 L39.5 36.6 Q40.7 34.95 39.5 32.5 L38.85 31.85 M27.8 25.4 L28.1 28.4 30.2 28.6 29.75 25.5 27.8 25.4 M30.35 29.8 L28.2 29.6 29.05 39.75 31.25 39.65 30.35 29.8 M31.35 40.85 L29.15 40.95 29.75 49.8 31.9 49.75 31.35 40.85" fill="#005d51" fill-rule="evenodd" stroke="none"/>
      <path d="M46.9 14.2 Q46.05 11.85 43.15 9.95 42.4 9.55 41.5 9.2 38.85 7.4 35.8 6.45 L35.6 5.0 Q41.65 6.85 46.0 11.25 54.5 20.05 53.05 32.2 L51.9 30.15 51.95 28.7 Q51.75 20.2 46.9 14.2 M35.15 2.35 L33.7 2.05 Q21.3 -0.05 11.55 7.85 2.85 14.9 1.65 25.95 0.9 32.85 3.65 39.2 8.8 50.9 20.85 54.7 L21.15 55.75 29.7 55.8 Q33.45 55.6 36.85 54.55 L40.85 54.55 Q35.35 57.15 28.6 57.3 16.45 56.95 8.4 48.9 4.75 45.25 2.7 40.85 1.25 37.7 0.65 34.15 -0.1 29.5 0.5 24.9 1.2 19.5 3.95 14.75 6.75 10.0 10.95 6.65 14.95 3.5 19.8 1.7 24.05 0.1 28.6 0.1 40.7 0.4 48.8 8.5 56.9 16.55 57.2 28.7 56.85 40.8 48.8 48.9 45.5 52.2 41.55 54.25 L41.65 52.55 Q44.95 50.7 47.8 47.9 55.45 40.2 55.75 28.7 55.45 17.15 47.8 9.5 42.45 4.1 35.15 2.35 M26.95 4.05 L27.05 5.4 25.3 5.6 24.8 4.3 26.95 4.05 M17.1 6.75 L17.35 8.15 11.4 12.85 Q10.25 14.05 9.35 15.4 5.4 21.05 5.2 28.7 5.4 37.45 10.65 43.65 14.65 48.7 20.8 50.7 L20.8 52.15 Q15.35 50.4 11.1 46.15 4.1 39.15 3.85 28.7 4.1 18.2 11.1 11.2 13.8 8.45 17.1 6.75 M30.05 53.35 L29.95 52.0 32.0 51.75 32.1 53.1 30.05 53.35" fill="#006868" fill-rule="evenodd" stroke="none"/>
      <path d="M40.65 12.0 L42.45 12.1 43.6 13.4 Q44.15 15.45 42.2 16.35 41.3 16.6 40.6 16.35 L40.45 16.3 40.4 16.25 Q39.7 15.85 39.25 14.95 38.7 12.9 40.65 12.0 M41.6 15.7 L41.95 15.6 Q43.65 14.75 42.45 13.1 L41.6 15.7 M41.65 12.75 L40.95 12.8 Q39.7 13.35 40.05 14.7 L40.45 15.3 41.65 12.75 M46.05 37.3 Q48.15 37.85 48.0 39.95 47.45 42.05 45.3 41.9 44.3 41.65 43.85 41.05 L43.8 41.0 43.75 40.9 Q43.3 40.25 43.4 39.2 43.95 37.1 46.05 37.3 M44.8 40.8 L45.45 41.05 Q47.4 41.15 47.1 39.15 L44.8 40.8 M46.65 38.45 L45.95 38.1 Q44.6 38.0 44.2 39.35 L44.3 40.15 46.65 38.45 M13.5 18.1 L12.75 18.1 14.15 20.6 14.5 19.95 Q14.75 18.6 13.5 18.1 M10.85 19.95 L10.9 18.95 Q11.55 17.0 13.6 17.25 15.35 17.7 15.4 19.55 15.45 21.1 14.0 21.75 L12.3 21.65 Q11.15 21.15 10.85 19.95 M12.65 20.95 L13.35 21.0 12.0 18.55 11.65 19.1 Q11.4 20.45 12.65 20.95 M17.55 42.65 L17.85 42.0 15.0 42.3 15.45 42.9 Q16.6 43.65 17.55 42.65 M17.3 40.6 Q16.2 39.8 15.2 40.8 L14.9 41.45 17.75 41.15 17.3 40.6 M18.75 41.5 L18.5 42.45 Q17.95 44.1 16.25 44.15 L15.8 44.0 Q13.3 42.75 14.55 40.25 L15.4 39.85 Q17.95 38.9 18.75 41.5" fill="#0f6f61" fill-rule="evenodd" stroke="none"/>
      <path d="M40.65 12.0 Q38.7 12.9 39.25 14.95 39.7 15.85 40.4 16.25 L40.45 16.3 40.6 16.35 Q41.3 16.6 42.2 16.35 44.15 15.45 43.6 13.4 L42.45 12.1 40.65 12.0 M45.7 17.05 L39.2 17.9 Q38.5 16.2 36.85 15.25 L36.1 8.95 Q39.95 9.6 43.0 11.9 45.55 13.85 45.7 17.05 M50.5 31.85 Q52.3 37.95 48.4 43.0 47.2 44.6 45.35 45.65 L41.0 47.75 39.75 38.5 41.55 36.3 Q42.85 32.45 39.6 30.55 L38.65 30.05 38.05 25.6 Q44.5 25.35 49.3 29.9 50.15 30.75 50.5 31.85 M46.05 37.3 Q43.95 37.1 43.4 39.2 43.3 40.25 43.75 40.9 L43.8 41.0 43.85 41.05 Q44.3 41.65 45.3 41.9 47.45 42.05 48.0 39.95 48.15 37.85 46.05 37.3 M32.9 7.7 L31.15 6.85 Q30.6 9.15 30.85 11.4 L31.8 18.75 Q33.9 33.8 34.4 48.9 34.45 50.1 35.5 51.1 L37.15 50.9 Q37.65 50.05 37.55 48.95 L36.95 43.5 36.1 33.95 Q35.3 20.6 32.9 7.7 M27.4 8.2 L28.3 14.65 26.75 14.8 25.7 8.35 27.4 8.2 M24.25 24.5 Q24.2 18.9 23.7 13.7 23.2 8.5 22.1 8.2 20.85 8.6 21.15 13.7 21.45 18.8 22.2 24.2 L23.1 31.05 Q23.5 40.1 23.8 43.3 23.3 47.7 24.9 51.6 26.25 50.8 26.15 48.65 L25.8 45.15 Q24.55 38.45 24.3 31.65 L24.25 24.5 M33.65 3.4 L39.75 52.65 33.65 52.85 32.1 34.2 31.3 25.55 Q30.45 15.1 28.7 4.7 L33.65 3.4 M25.75 23.5 L28.25 54.0 22.3 54.4 Q22.1 40.45 21.2 26.55 L20.8 20.4 19.25 5.95 23.6 5.85 25.75 23.5 M10.85 19.95 Q11.15 21.15 12.3 21.65 L14.0 21.75 Q15.45 21.1 15.4 19.55 15.35 17.7 13.6 17.25 11.55 17.0 10.9 18.95 11.15 16.4 12.8 14.55 14.85 12.2 17.85 10.85 L18.75 16.85 Q14.95 18.95 17.15 22.75 17.9 24.05 19.5 24.35 L19.8 27.9 Q13.15 27.7 11.15 21.85 10.85 20.9 10.85 19.95 M18.75 41.5 Q17.95 38.9 15.4 39.85 L14.55 40.25 Q13.3 42.75 15.8 44.0 L16.25 44.15 Q17.95 44.1 18.5 42.45 L18.75 41.5 M17.1 36.0 Q18.1 38.3 20.55 39.4 L20.75 48.3 Q13.15 45.05 9.8 37.65 L9.45 36.65 17.1 36.0 M27.8 25.4 L29.75 25.5 30.2 28.6 28.1 28.4 27.8 25.4 M31.35 40.85 L31.9 49.75 29.75 49.8 29.15 40.95 31.35 40.85" fill="#85ab93" fill-rule="evenodd" stroke="none"/>
      <path d="M38.4 8.15 L35.9 7.6 35.85 7.15 38.4 8.15 M27.1 6.05 L27.25 6.95 25.5 7.1 25.4 6.25 27.1 6.05 M17.5 8.85 L17.6 9.4 14.5 10.85 Q15.9 9.7 17.5 8.85 M8.2 18.6 Q7.9 20.7 8.45 22.85 7.45 26.0 7.7 29.6 7.85 32.35 8.6 34.85 L7.55 35.2 7.9 38.1 Q6.0 33.85 5.85 28.7 6.0 23.1 8.2 18.6 M51.3 29.45 L49.5 27.85 Q49.25 23.0 47.25 18.65 L47.65 17.9 47.35 15.85 Q51.15 21.35 51.3 28.7 L51.3 29.45" fill="#85b599" fill-rule="evenodd" stroke="none"/>
      <path d="M41.5 9.2 Q40.1 8.6 38.4 8.15 L35.85 7.15 35.8 6.45 Q38.85 7.4 41.5 9.2 M35.4 3.05 L35.15 2.35 Q42.45 4.1 47.8 9.5 55.45 17.15 55.75 28.7 55.45 40.2 47.8 47.9 44.95 50.7 41.65 52.55 L41.5 51.65 Q44.6 49.9 47.2 47.3 L48.5 45.95 Q50.75 44.2 51.8 42.25 53.05 39.65 53.45 37.4 54.8 33.35 54.95 28.6 54.65 17.35 47.2 9.9 42.15 4.85 35.4 3.05 M33.7 2.05 L31.85 2.35 28.5 2.1 Q22.6 2.25 17.75 4.4 L17.15 4.7 Q6.8 9.85 3.35 20.8 0.5 29.95 4.3 38.8 9.25 50.2 20.85 53.9 L20.85 54.7 Q8.8 50.9 3.65 39.2 0.9 32.85 1.65 25.95 2.85 14.9 11.55 7.85 21.3 -0.05 33.7 2.05 M27.05 5.4 L27.1 6.05 25.4 6.25 25.3 5.6 27.05 5.4 M17.35 8.15 L17.5 8.85 Q15.9 9.7 14.5 10.85 L11.4 12.85 17.35 8.15 M9.35 15.4 Q8.55 16.85 8.2 18.6 6.0 23.1 5.85 28.7 6.0 33.85 7.9 38.1 L10.65 43.65 Q5.4 37.45 5.2 28.7 5.4 21.05 9.35 15.4 M29.7 55.8 L30.05 55.55 30.25 54.95 33.35 54.55 36.85 54.55 Q33.45 55.6 29.7 55.8 M29.95 52.0 L29.9 51.65 32.0 51.75 29.95 52.0 M51.9 30.15 L51.3 29.45 51.3 28.7 Q51.15 21.35 47.35 15.85 L46.9 14.2 Q51.75 20.2 51.95 28.7 L51.9 30.15" fill="#085854" fill-rule="evenodd" stroke="none"/>
      <path d="M41.65 12.75 L40.45 15.3 40.05 14.7 Q39.7 13.35 40.95 12.8 L41.65 12.75 M41.6 15.7 L42.45 13.1 Q43.65 14.75 41.95 15.6 L41.6 15.7 M46.65 38.45 L44.3 40.15 44.2 39.35 Q44.6 38.0 45.95 38.1 L46.65 38.45 M44.8 40.8 L47.1 39.15 Q47.4 41.15 45.45 41.05 L44.8 40.8 M13.5 18.1 Q14.75 18.6 14.5 19.95 L14.15 20.6 12.75 18.1 13.5 18.1 M12.65 20.95 Q11.4 20.45 11.65 19.1 L12.0 18.55 13.35 21.0 12.65 20.95 M17.3 40.6 L17.75 41.15 14.9 41.45 15.2 40.8 Q16.2 39.8 17.3 40.6 M17.55 42.65 Q16.6 43.65 15.45 42.9 L15.0 42.3 17.85 42.0 17.55 42.65" fill="#a0beac" fill-rule="evenodd" stroke="none"/>
      <path d="M35.6 5.0 L35.4 3.05 Q42.15 4.85 47.2 9.9 54.65 17.35 54.95 28.6 54.8 33.35 53.45 37.4 53.9 34.55 53.05 32.2 54.5 20.05 46.0 11.25 41.65 6.85 35.6 5.0 M31.85 2.35 L26.95 4.05 24.8 4.3 17.75 4.4 Q22.6 2.25 28.5 2.1 L31.85 2.35 M17.15 4.7 L17.1 6.75 Q13.8 8.45 11.1 11.2 4.1 18.2 3.85 28.7 4.1 39.15 11.1 46.15 15.35 50.4 20.8 52.15 L20.85 53.9 Q9.25 50.2 4.3 38.8 0.5 29.95 3.35 20.8 6.8 9.85 17.15 4.7 M8.45 22.85 Q8.95 24.2 10.1 25.5 8.85 29.75 10.65 34.3 L10.8 34.65 8.6 34.85 Q7.85 32.35 7.7 29.6 7.45 26.0 8.45 22.85 M30.25 54.95 L30.05 53.35 32.1 53.1 32.45 54.35 33.35 54.55 30.25 54.95 M41.5 51.65 L41.3 49.9 48.5 45.95 47.2 47.3 Q44.6 49.9 41.5 51.65 M49.5 27.85 Q47.7 26.7 45.75 25.9 45.45 22.35 44.0 19.2 L47.25 18.65 Q49.25 23.0 49.5 27.85" fill="#98bea8" fill-rule="evenodd" stroke="none"/>
      <path d="M10.1 25.5 Q14.15 29.25 19.95 29.25 L20.5 38.15 18.35 34.25 10.8 34.65 10.65 34.3 Q8.85 29.75 10.1 25.5 M45.75 25.9 L37.9 23.9 37.2 18.3 38.3 19.95 44.0 19.2 Q45.45 22.35 45.75 25.9 M28.4 15.6 L29.5 23.7 27.6 23.3 26.8 15.75 28.4 15.6 M18.25 20.55 Q17.95 19.3 18.9 18.45 L19.1 22.15 Q18.5 21.5 18.25 20.55 M38.85 31.85 L39.5 32.5 Q40.7 34.95 39.5 36.6 L38.85 31.85 M30.35 29.8 L31.25 39.65 29.05 39.75 28.2 29.6 30.35 29.8" fill="#c1d9cb" fill-rule="evenodd" stroke="none"/>
      <path d="M32.9 7.7 Q35.3 20.6 36.1 33.95 L36.95 43.5 37.55 48.95 Q37.65 50.05 37.15 50.9 L35.5 51.1 Q34.45 50.1 34.4 48.9 33.9 33.8 31.8 18.75 L30.85 11.4 Q30.6 9.15 31.15 6.85 L32.9 7.7 M24.25 24.5 L24.3 31.65 Q24.55 38.45 25.8 45.15 L26.15 48.65 Q26.25 50.8 24.9 51.6 23.3 47.7 23.8 43.3 23.5 40.1 23.1 31.05 L22.2 24.2 Q21.45 18.8 21.15 13.7 20.85 8.6 22.1 8.2 23.2 8.5 23.7 13.7 24.2 18.9 24.25 24.5" fill="#689878" fill-rule="evenodd" stroke="none"/>
    </g>
    <g id="text0" transform="matrix(1.0, 0.0, 0.0, 1.0, -1.5, -7.15)">
      <g transform="matrix(1.0, 0.0, 0.0, 1.0, 0.0, 0.0)">
        <use fill="#ffffff" height="21.65" transform="matrix(0.5859, 0.0, 0.0, 0.5859, 0.0, 26.0)" width="195.9" xlink:href="#font_______W7_N0"/>
        <use fill="#ffffff" height="21.65" transform="matrix(0.5859, 0.0, 0.0, 0.5859, 21.15, 26.0)" width="195.9" xlink:href="#font_______W7_a0"/>
        <use fill="#ffffff" height="21.65" transform="matrix(0.5859, 0.0, 0.0, 0.5859, 38.4, 26.0)" width="195.9" xlink:href="#font_______W7_m0"/>
        <use fill="#ffffff" height="21.65" transform="matrix(0.5859, 0.0, 0.0, 0.5859, 60.3, 26.0)" width="195.9" xlink:href="#font_______W7_e0"/>
        <use fill="#ffffff" height="21.65" transform="matrix(0.5859, 0.0, 0.0, 0.5859, 87.1, 26.0)" width="195.9" xlink:href="#font_______W7_D0"/>
        <use fill="#ffffff" height="21.65" transform="matrix(0.5859, 0.0, 0.0, 0.5859, 107.85, 26.0)" width="195.9" xlink:href="#font_______W7_r0"/>
        <use fill="#ffffff" height="21.65" transform="matrix(0.5859, 0.0, 0.0, 0.5859, 119.05, 26.0)" width="195.9" xlink:href="#font_______W7_o0"/>
        <use fill="#ffffff" height="21.65" transform="matrix(0.5859, 0.0, 0.0, 0.5859, 135.2, 26.0)" width="195.9" xlink:href="#font_______W7_p0"/>
        <use fill="#ffffff" height="21.65" transform="matrix(0.5859, 0.0, 0.0, 0.5859, 152.55, 26.0)" width="195.9" xlink:href="#font_______W7_p0"/>
        <use fill="#ffffff" height="21.65" transform="matrix(0.5859, 0.0, 0.0, 0.5859, 169.9, 26.0)" width="195.9" xlink:href="#font_______W7_e0"/>
        <use fill="#ffffff" height="21.65" transform="matrix(0.5859, 0.0, 0.0, 0.5859, 186.7, 26.0)" width="195.9" xlink:href="#font_______W7_r0"/>
      </g>
    </g>
    <g id="font_______W7_N0">
      <path d="M23.5 -32.15 L23.5 -32.15 24.85 -14.2 9.85 -31.5 5.1 -32.15 2.55 0.05 12.6 -1.4 10.6 -23.35 25.9 0.05 30.75 -0.65 33.55 -30.75 23.5 -32.15" fill-rule="evenodd" stroke="none"/>
    </g>
    <g id="font_______W7_a0">
      <path d="M19.05 -8.85 L19.05 -8.85 18.5 -5.05 17.1 -9.0 Q14.35 -6.2 10.6 -6.2 9.95 -6.2 9.45 -6.75 9.0 -7.2 9.0 -7.85 9.0 -10.2 13.7 -10.2 15.9 -10.2 19.05 -8.85 M27.4 -6.8 L27.4 -6.8 Q27.4 -21.45 13.35 -21.45 7.15 -21.45 2.55 -18.35 L4.3 -14.35 Q8.3 -16.55 13.15 -16.55 17.85 -16.55 18.85 -13.35 15.4 -14.5 12.8 -14.5 8.6 -14.5 5.6 -12.8 1.8 -10.75 1.8 -6.95 1.8 -3.5 4.9 -1.55 7.55 0.05 11.15 0.05 13.95 0.05 17.35 -0.95 L17.0 0.15 26.7 -0.3 Q27.4 -3.45 27.4 -6.8" fill-rule="evenodd" stroke="none"/>
    </g>
    <g id="font_______W7_m0">
      <path d="M35.35 -9.0 L35.35 -9.0 Q35.35 -21.45 27.8 -21.45 24.2 -21.45 21.15 -18.8 19.2 -21.45 15.65 -21.45 12.4 -21.45 9.45 -19.2 L9.25 -20.75 4.35 -21.45 2.05 0.05 11.95 -1.4 10.25 -13.85 Q12.25 -15.8 13.75 -15.8 16.4 -15.8 16.4 -11.2 16.4 -8.95 15.2 -5.8 L12.95 -0.75 22.1 0.1 Q23.3 -4.75 23.3 -9.55 23.3 -12.35 22.95 -14.3 24.5 -15.7 25.75 -15.7 28.25 -15.7 28.25 -11.2 28.25 -7.95 25.1 -0.65 L34.25 0.2 Q35.35 -4.25 35.35 -9.0" fill-rule="evenodd" stroke="none"/>
    </g>
    <g id="font_______W7_e0">
      <path d="M19.45 -9.9 L19.45 -9.9 Q16.75 -7.55 13.6 -7.55 10.45 -7.55 9.15 -9.9 L19.45 -9.9 M9.0 -13.4 L9.0 -13.4 Q9.7 -14.95 11.5 -15.95 13.2 -16.8 15.1 -16.8 18.05 -16.8 19.65 -14.35 L9.0 -13.4 M23.25 -9.9 L23.25 -9.9 24.3 -9.9 26.7 -12.6 Q25.85 -16.7 22.9 -19.1 19.9 -21.45 15.15 -21.45 9.65 -21.45 5.9 -18.65 1.8 -15.6 1.8 -10.4 1.8 -5.35 5.8 -2.5 9.3 0.05 14.6 0.05 22.45 0.05 27.15 -4.25 L23.25 -9.9" fill-rule="evenodd" stroke="none"/>
    </g>
    <g id="font_______W7_D0">
      <path d="M26.25 -17.9 L26.25 -17.9 Q26.25 -14.65 24.8 -12.6 23.1 -10.25 20.0 -10.25 16.6 -10.25 14.1 -12.65 L12.3 -9.6 10.95 -24.15 Q14.8 -25.95 17.05 -25.95 20.5 -25.95 23.3 -23.65 26.25 -21.25 26.25 -17.9 M33.4 -15.95 L33.4 -15.95 Q33.4 -22.6 29.35 -27.0 25.15 -31.55 18.55 -31.55 14.75 -31.55 10.4 -29.7 L10.25 -31.5 5.3 -32.15 2.55 0.05 13.15 -1.1 13.1 -1.6 Q15.65 -0.6 18.75 -0.6 25.45 -0.6 29.5 -4.95 33.4 -9.15 33.4 -15.95" fill-rule="evenodd" stroke="none"/>
    </g>
    <g id="font_______W7_r0">
      <path d="M18.3 -20.6 L18.3 -20.6 Q16.55 -21.45 14.75 -21.45 11.5 -21.45 8.7 -18.65 L8.45 -20.75 4.45 -21.45 2.55 0.05 10.65 -1.4 9.3 -12.8 Q10.55 -14.85 12.3 -14.85 13.25 -14.85 14.55 -13.85 L16.55 -12.05 18.3 -20.6" fill-rule="evenodd" stroke="none"/>
    </g>
    <g id="font_______W7_o0">
      <path d="M15.8 -13.5 L15.8 -13.5 Q16.45 -11.85 16.45 -10.4 16.45 -6.85 12.35 -6.85 10.6 -6.85 9.35 -8.05 8.15 -9.35 8.15 -11.05 8.15 -13.25 9.8 -14.6 11.4 -16.0 13.7 -16.0 16.1 -16.0 18.3 -14.3 L15.8 -13.5 M25.7 -11.4 L25.7 -11.4 Q25.7 -13.8 24.75 -16.35 L21.25 -15.25 22.7 -17.2 Q18.35 -21.45 13.15 -21.45 8.45 -21.45 5.1 -18.2 1.8 -14.95 1.8 -10.3 1.8 -5.5 5.4 -2.65 8.65 0.05 13.65 0.05 18.75 0.05 22.2 -3.2 25.7 -6.4 25.7 -11.4" fill-rule="evenodd" stroke="none"/>
    </g>
    <g id="font_______W7_p0">
      <path d="M20.7 -12.7 L20.7 -12.7 Q20.7 -9.3 17.35 -9.3 14.95 -9.3 12.7 -12.0 L10.6 -8.4 10.05 -13.4 Q12.6 -16.55 16.2 -16.55 18.05 -16.55 19.35 -15.55 20.7 -14.5 20.7 -12.7 M27.8 -10.85 L27.8 -10.85 Q27.8 -15.55 24.6 -18.5 21.4 -21.45 16.7 -21.45 12.55 -21.45 9.35 -19.15 L9.2 -20.75 4.35 -21.45 2.05 4.75 11.95 3.3 11.35 -1.45 Q14.35 0.05 17.2 0.05 21.85 0.05 24.85 -3.05 27.8 -6.15 27.8 -10.85" fill-rule="evenodd" stroke="none"/>
    </g>
    <g id="shape6" transform="matrix(1.0, 0.0, 0.0, 1.0, 0.0, 0.0)">
      <path d="M162.9 67.4 L153.05 59.15 149.75 59.15 Q143.45 59.25 138.05 56.15 138.0 61.6 133.3 64.55 127.75 67.9 122.1 70.75 116.45 73.5 113.7 79.0 132.6 65.8 155.8 66.7 L162.9 67.4 M169.55 69.95 L168.2 71.3 Q152.25 83.05 137.8 96.5 L195.3 131.9 196.0 133.05 199.9 181.65 197.35 218.5 190.15 239.15 193.0 243.5 Q183.9 253.5 173.35 261.75 L155.8 245.5 158.7 241.15 Q153.65 224.95 147.1 209.4 L141.55 216.1 148.7 263.45 147.3 264.75 82.0 264.35 57.8 263.8 56.75 262.15 62.35 220.75 49.9 207.3 49.15 211.3 Q48.45 215.3 48.2 219.35 47.45 233.1 42.6 245.9 L45.3 250.8 27.95 263.65 Q27.2 263.45 26.7 263.0 L6.1 245.35 7.25 243.15 3.45 226.85 0.0 179.9 10.0 135.15 10.7 134.15 71.4 98.15 Q73.55 90.55 70.4 82.9 L59.85 56.85 52.6 62.9 51.15 62.7 18.15 39.35 17.7 38.75 29.35 13.65 30.35 13.05 45.4 19.55 62.95 0.0 63.45 0.1 103.4 20.3 145.05 42.2 144.4 43.45 135.0 44.8 140.6 47.8 Q157.0 56.25 169.55 69.95 M196.9 181.8 L193.35 137.7 149.5 207.05 160.3 235.2 166.95 227.45 167.25 227.3 167.95 227.15 Q174.1 227.7 179.35 230.15 183.9 232.4 187.55 236.55 L188.15 236.5 194.4 218.1 196.9 181.8 M166.35 117.6 L164.95 129.1 139.5 131.8 147.4 139.85 146.95 140.9 86.95 199.15 84.25 261.15 145.55 261.75 138.5 215.9 147.25 205.0 192.4 133.6 166.35 117.6 M162.85 126.35 L163.45 115.9 136.7 99.35 127.85 134.5 127.65 135.05 126.1 135.6 121.95 129.95 104.9 166.45 91.7 190.35 143.75 139.85 134.55 130.75 Q134.7 129.5 135.95 129.55 L162.85 126.35 M71.75 78.7 Q74.0 84.95 75.0 91.45 75.45 94.4 75.25 97.35 L96.05 107.55 96.1 108.2 103.5 156.05 107.1 106.35 108.1 104.85 138.8 90.75 Q130.5 90.25 123.85 85.2 122.75 84.3 121.45 84.15 L109.85 82.95 Q111.15 73.8 119.25 68.9 124.3 65.85 129.5 63.15 135.85 59.9 134.9 53.65 L135.45 52.55 149.3 56.2 131.1 45.8 130.75 44.05 Q126.5 47.2 124.05 51.85 L123.95 52.2 123.0 52.2 120.3 47.1 121.25 46.0 122.15 46.55 123.4 49.0 Q126.25 44.25 131.3 41.85 L131.65 41.8 132.25 42.45 137.8 41.25 123.7 34.05 123.05 35.05 114.6 32.15 Q109.5 34.9 105.6 39.15 L105.3 39.35 104.5 38.0 Q107.5 34.4 111.0 31.35 L112.15 30.55 Q108.35 28.5 105.15 31.2 L104.3 32.05 103.55 32.25 103.15 32.1 102.7 31.45 Q106.3 26.05 112.7 28.5 L114.25 29.2 100.55 22.25 63.15 3.35 46.45 22.8 31.4 16.3 20.9 37.6 51.95 59.55 59.9 53.0 Q60.95 52.7 61.3 53.6 L71.75 78.7 M78.35 71.45 Q79.1 66.25 83.95 64.7 87.1 63.6 89.25 66.0 95.6 73.2 89.35 80.1 87.6 82.0 85.2 81.5 77.65 80.05 78.3 72.1 L78.35 71.45 M119.8 37.7 L120.1 38.4 119.5 39.35 108.0 39.35 107.45 38.8 107.65 37.7 119.8 37.7 M120.5 36.4 L120.9 35.35 121.95 35.25 Q123.95 38.7 121.5 42.2 120.3 43.9 118.3 44.7 L117.4 44.1 Q119.7 40.85 121.1 37.2 L120.5 36.4 M85.3 78.75 Q89.0 78.05 89.4 73.0 L89.4 72.9 Q89.0 67.85 85.3 67.15 81.65 67.8 81.2 72.9 L81.2 73.05 Q81.65 78.05 85.3 78.75 M11.95 140.15 L3.05 179.95 6.45 226.6 9.55 239.85 17.5 228.6 Q17.65 228.35 17.95 228.4 L27.25 226.65 28.15 226.85 Q35.25 230.75 42.35 234.75 L42.6 231.35 43.05 227.95 Q45.0 216.25 47.45 204.55 L30.4 180.35 11.95 140.15 M41.1 119.7 L42.25 124.95 70.75 128.2 Q71.0 128.25 71.2 128.45 L71.6 128.65 Q72.6 129.75 71.25 130.35 64.55 133.45 57.6 136.0 L98.1 172.45 101.9 165.65 84.2 126.95 80.0 133.3 79.75 133.6 Q77.95 134.55 77.35 132.75 L71.95 101.5 41.1 119.7 M64.1 130.5 L40.4 127.7 40.0 127.4 38.4 121.35 13.4 136.05 32.95 178.75 65.25 219.45 65.4 220.4 59.9 260.9 81.25 261.1 83.95 198.6 96.6 175.15 53.5 136.35 53.65 134.85 Q58.9 132.7 64.1 130.5 M137.35 87.7 L141.8 87.75 165.35 69.85 Q139.35 65.1 116.65 79.2 125.4 81.25 133.0 86.2 134.9 87.4 137.35 87.7 M74.8 100.5 L79.65 128.5 92.4 108.85 74.8 100.5 M93.75 112.35 L86.2 124.0 100.3 154.9 93.75 112.35 M120.05 127.0 L109.8 110.9 106.5 155.95 120.05 127.0 M133.7 99.15 L110.9 107.05 125.8 130.4 133.7 99.15 M178.85 231.0 L168.45 230.2 161.4 238.6 161.7 240.8 168.05 246.45 170.1 244.9 169.75 244.5 Q169.35 244.0 169.4 243.4 169.45 242.8 169.95 242.4 170.45 242.0 171.05 242.05 171.65 242.1 172.05 242.6 L175.2 246.45 Q175.6 246.95 175.55 247.55 L175.0 248.55 173.9 248.9 172.9 248.35 172.0 247.25 168.85 249.55 167.9 249.85 166.95 249.5 160.45 243.75 159.35 245.25 173.35 258.4 189.65 243.45 185.95 239.2 185.9 239.15 185.65 238.85 178.85 231.0 M27.2 229.65 L19.5 230.8 9.65 244.95 27.55 260.2 41.9 250.2 40.65 248.35 38.1 250.4 37.75 250.55 33.9 251.05 33.5 251.0 26.55 247.75 26.35 248.55 26.05 249.05 Q25.25 250.15 24.1 249.4 L23.7 248.95 23.55 248.5 Q23.8 244.1 25.8 240.45 L26.4 240.3 26.9 240.45 Q28.25 240.8 27.95 242.15 L27.3 244.85 34.35 248.1 36.6 247.85 39.65 245.3 42.05 238.0 27.2 229.65" fill="#1a1a1a" fill-rule="evenodd" stroke="none"/>
      <path d="M162.9 67.4 L155.8 66.7 Q132.6 65.8 113.7 79.0 116.45 73.5 122.1 70.75 127.75 67.9 133.3 64.55 138.0 61.6 138.05 56.15 143.45 59.25 149.75 59.15 L153.05 59.15 162.9 67.4 M162.85 126.35 L135.95 129.55 Q134.7 129.5 134.55 130.75 L143.75 139.85 91.7 190.35 104.9 166.45 121.95 129.95 126.1 135.6 127.65 135.05 127.85 134.5 136.7 99.35 163.45 115.9 162.85 126.35 M166.35 117.6 L192.4 133.6 147.25 205.0 138.5 215.9 145.55 261.75 84.25 261.15 86.95 199.15 146.95 140.9 147.4 139.85 139.5 131.8 164.95 129.1 166.35 117.6 M196.9 181.8 L194.4 218.1 188.15 236.5 187.55 236.55 Q183.9 232.4 179.35 230.15 174.1 227.7 167.95 227.15 L167.25 227.3 166.95 227.45 160.3 235.2 149.5 207.05 193.35 137.7 196.9 181.8 M85.3 78.75 Q81.65 78.05 81.2 73.05 L81.2 72.9 Q81.65 67.8 85.3 67.15 89.0 67.85 89.4 72.9 L89.4 73.0 Q89.0 78.05 85.3 78.75 M137.35 87.7 Q134.9 87.4 133.0 86.2 125.4 81.25 116.65 79.2 139.35 65.1 165.35 69.85 L141.8 87.75 137.35 87.7 M64.1 130.5 Q58.9 132.7 53.65 134.85 L53.5 136.35 96.6 175.15 83.95 198.6 81.25 261.1 59.9 260.9 65.4 220.4 65.25 219.45 32.95 178.75 13.4 136.05 38.4 121.35 40.0 127.4 40.4 127.7 64.1 130.5 M41.1 119.7 L71.95 101.5 77.35 132.75 Q77.95 134.55 79.75 133.6 L80.0 133.3 84.2 126.95 101.9 165.65 98.1 172.45 57.6 136.0 Q64.55 133.45 71.25 130.35 72.6 129.75 71.6 128.65 L71.2 128.45 Q71.0 128.25 70.75 128.2 L42.25 124.95 41.1 119.7 M11.95 140.15 L30.4 180.35 47.45 204.55 Q45.0 216.25 43.05 227.95 L42.6 231.35 42.35 234.75 Q35.25 230.75 28.15 226.85 L27.25 226.65 17.95 228.4 Q17.65 228.35 17.5 228.6 L9.55 239.85 6.45 226.6 3.05 179.95 11.95 140.15" fill="#8d254e" fill-rule="evenodd" stroke="none"/>
      <path d="M100.55 22.25 L114.25 29.2 112.7 28.5 Q106.3 26.05 102.7 31.45 L103.15 32.1 103.55 32.25 104.3 32.05 105.15 31.2 Q108.35 28.5 112.15 30.55 L111.0 31.35 Q107.5 34.4 104.5 38.0 L105.3 39.35 105.6 39.15 Q109.5 34.9 114.6 32.15 L123.05 35.05 123.7 34.05 137.8 41.25 132.25 42.45 131.65 41.8 131.3 41.85 Q126.25 44.25 123.4 49.0 L122.15 46.55 121.25 46.0 120.3 47.1 123.0 52.2 123.95 52.2 124.05 51.85 Q126.5 47.2 130.75 44.05 L131.1 45.8 149.3 56.2 135.45 52.55 134.9 53.65 Q135.85 59.9 129.5 63.15 124.3 65.85 119.25 68.9 111.15 73.8 109.85 82.95 L121.45 84.15 Q122.75 84.3 123.85 85.2 130.5 90.25 138.8 90.75 L108.1 104.85 107.1 106.35 103.5 156.05 96.1 108.2 96.05 107.55 75.25 97.35 Q75.45 94.4 75.0 91.45 74.0 84.95 71.75 78.7 L72.45 77.3 Q74.3 73.3 78.3 72.1 77.65 80.05 85.2 81.5 87.6 82.0 89.35 80.1 95.6 73.2 89.25 66.0 87.1 63.6 83.95 64.7 79.1 66.25 78.35 71.45 73.35 68.9 72.6 63.15 71.9 58.15 74.4 53.85 75.75 51.5 78.4 51.8 81.05 52.35 83.15 54.1 89.05 49.7 89.85 42.1 90.45 36.2 89.55 30.55 87.75 31.25 86.15 30.25 85.4 29.75 85.2 28.95 86.35 26.95 88.55 26.15 94.55 23.95 100.55 22.25 M120.5 36.4 L121.1 37.2 Q119.7 40.85 117.4 44.1 L118.3 44.7 Q120.3 43.9 121.5 42.2 123.95 38.7 121.95 35.25 L120.9 35.35 120.5 36.4 M119.8 37.7 L107.65 37.7 107.45 38.8 108.0 39.35 119.5 39.35 120.1 38.4 119.8 37.7 M27.2 229.65 L42.05 238.0 39.65 245.3 36.6 247.85 34.35 248.1 27.3 244.85 27.95 242.15 Q28.25 240.8 26.9 240.45 L26.4 240.3 25.8 240.45 Q23.8 244.1 23.55 248.5 L23.7 248.95 24.1 249.4 Q25.25 250.15 26.05 249.05 L26.35 248.55 26.55 247.75 33.5 251.0 33.9 251.05 37.75 250.55 38.1 250.4 40.65 248.35 41.9 250.2 27.55 260.2 9.65 244.95 19.5 230.8 27.2 229.65 M178.85 231.0 L185.65 238.85 185.9 239.15 185.95 239.2 189.65 243.45 173.35 258.4 159.35 245.25 160.45 243.75 166.95 249.5 167.9 249.85 168.85 249.55 172.0 247.25 172.9 248.35 173.9 248.9 175.0 248.55 175.55 247.55 Q175.6 246.95 175.2 246.45 L172.05 242.6 Q171.65 242.1 171.05 242.05 170.45 242.0 169.95 242.4 169.45 242.8 169.4 243.4 169.35 244.0 169.75 244.5 L170.1 244.9 168.05 246.45 161.7 240.8 161.4 238.6 168.45 230.2 178.85 231.0" fill="#e3aed5" fill-rule="evenodd" stroke="none"/>
      <path d="M71.75 78.7 L61.3 53.6 Q60.95 52.7 59.9 53.0 L51.95 59.55 20.9 37.6 31.4 16.3 46.45 22.8 63.15 3.35 100.55 22.25 Q94.55 23.95 88.55 26.15 86.35 26.95 85.2 28.95 85.4 29.75 86.15 30.25 87.75 31.25 89.55 30.55 90.45 36.2 89.85 42.1 89.05 49.7 83.15 54.1 81.05 52.35 78.4 51.8 75.75 51.5 74.4 53.85 71.9 58.15 72.6 63.15 73.35 68.9 78.35 71.45 L78.3 72.1 Q74.3 73.3 72.45 77.3 L71.75 78.7" fill="#762e8b" fill-rule="evenodd" stroke="none"/>
      <path d="M133.7 99.15 L125.8 130.4 110.9 107.05 133.7 99.15 M120.05 127.0 L106.5 155.95 109.8 110.9 120.05 127.0 M93.75 112.35 L100.3 154.9 86.2 124.0 93.75 112.35 M74.8 100.5 L92.4 108.85 79.65 128.5 74.8 100.5" fill="#ffe1e9" fill-rule="evenodd" stroke="none"/>
    </g>
    <g id="shape7" transform="matrix(1.0, 0.0, 0.0, 1.0, -0.1, 0.0)">
      <path d="M44.15 4.15 Q48.25 3.4 52.05 4.8 L52.4 5.0 52.3 11.35 52.25 12.55 Q56.95 19.4 57.2 28.65 56.95 39.1 50.85 46.55 L50.85 48.45 50.25 54.2 Q46.95 55.8 43.1 54.6 L42.4 54.05 42.25 53.8 Q36.25 57.05 28.6 57.25 20.95 57.05 14.95 53.75 L14.75 54.3 14.4 54.75 8.05 54.95 Q6.45 53.25 6.75 50.75 L6.9 47.7 6.85 47.2 Q3.0 42.7 1.3 37.15 -0.8 29.9 0.85 22.5 2.4 15.75 6.8 10.6 15.0 0.95 27.95 0.05 L28.3 0.05 28.6 0.05 Q37.0 0.25 43.5 4.2 L44.15 4.15 M50.75 10.0 L51.2 5.6 42.35 5.6 Q42.7 27.1 43.4 48.6 43.45 50.9 43.95 52.95 L47.55 53.2 49.45 52.9 Q49.55 33.1 50.45 13.35 L50.75 10.0 M40.95 5.25 Q41.05 4.75 41.2 4.9 L41.4 4.8 Q35.75 1.65 28.6 1.45 17.05 1.75 9.4 9.45 1.7 17.1 1.4 28.65 1.65 37.85 6.6 44.65 L6.5 43.3 6.35 41.05 6.05 39.7 Q1.4 28.1 7.05 17.05 11.65 8.15 21.3 5.15 31.5 2.15 40.85 7.15 L40.95 5.25 M45.1 11.4 L45.35 12.2 47.45 10.1 46.65 9.85 Q45.25 10.0 45.1 11.4 M40.8 9.45 L40.8 8.75 Q35.55 5.45 28.65 5.3 18.7 5.6 12.0 12.3 5.3 19.0 5.05 28.9 5.2 33.9 6.95 38.05 L7.95 37.8 14.45 37.8 15.3 38.55 15.05 47.8 17.35 48.85 17.4 46.3 17.4 42.55 16.8 27.7 17.8 27.05 Q22.25 25.8 26.4 27.25 L26.7 27.55 26.7 51.5 26.7 51.95 29.25 52.05 29.25 51.35 29.25 47.1 29.3 44.85 28.85 16.2 30.2 15.55 38.9 15.85 38.7 49.4 38.7 49.8 41.85 47.95 41.85 47.1 41.95 42.75 41.95 38.3 41.0 14.95 40.85 11.15 40.8 9.45 M44.55 12.65 Q44.5 11.25 45.1 10.1 45.7 8.9 46.6 8.8 47.5 8.7 48.2 9.75 48.9 10.75 48.95 12.35 48.4 13.7 46.65 13.9 45.1 13.75 44.55 12.65 M48.3 45.2 L48.65 46.05 Q49.15 47.55 48.1 48.55 L46.3 49.2 Q44.8 49.15 44.1 47.55 43.75 46.05 44.6 45.2 L45.65 44.45 Q47.35 44.0 48.3 45.2 M46.3 12.95 L46.65 13.0 Q48.75 12.6 48.05 10.7 L46.3 12.95 M50.85 42.75 L50.85 44.4 Q55.35 38.0 55.55 29.2 55.4 21.65 52.1 15.6 L52.05 16.5 Q51.5 20.6 52.6 24.4 53.15 26.45 53.2 28.65 53.35 33.65 51.5 38.1 50.6 40.15 50.85 42.75 M51.15 34.95 Q51.9 31.85 51.85 28.65 L51.65 24.65 51.15 34.95 M44.9 46.45 L44.9 47.25 Q45.45 48.6 46.85 48.1 L47.6 47.8 44.9 46.45 M47.9 46.25 Q47.35 44.95 45.9 45.3 45.55 45.45 45.3 45.7 L47.95 47.0 47.9 46.25 M38.0 18.15 L38.1 16.8 29.9 16.9 31.25 53.15 37.5 53.45 37.55 53.2 Q36.9 35.65 38.0 18.15 M35.4 21.6 L35.0 20.95 32.75 21.0 32.45 21.65 35.4 21.6 M32.05 23.7 Q30.8 22.05 32.1 20.4 L32.25 20.3 Q33.9 18.95 35.6 20.25 L35.8 20.5 Q37.0 22.1 35.7 23.75 L35.55 23.9 Q33.9 25.2 32.2 23.85 L32.05 23.7 M35.4 48.0 Q37.9 50.5 35.05 52.15 L32.75 52.05 Q31.1 50.6 32.2 48.6 33.2 47.3 35.0 47.8 L35.4 48.0 M32.4 22.2 L32.8 22.85 35.05 22.8 35.35 22.15 32.4 22.2 M20.1 34.85 Q19.2 34.05 19.3 32.95 19.55 30.6 21.75 30.6 23.45 30.5 23.95 32.0 24.55 33.8 23.2 34.9 L20.1 34.85 M23.55 48.15 Q24.4 48.75 24.5 49.6 24.85 52.4 22.1 52.65 21.25 52.3 20.65 51.7 18.85 49.95 20.8 48.1 L23.55 48.15 M9.4 44.7 L9.2 45.45 Q9.35 46.9 10.75 47.05 L11.55 46.85 9.4 44.7 M9.05 47.25 L8.8 46.95 Q7.8 45.3 9.05 43.7 10.1 42.75 11.45 43.15 L12.0 43.35 Q13.1 43.95 13.25 45.45 13.05 47.15 11.75 47.7 10.7 48.45 9.05 47.25 M12.35 45.45 Q12.2 44.05 10.75 43.9 L10.0 44.1 12.15 46.25 12.35 45.45 M14.2 38.7 L7.45 38.8 8.6 53.65 Q9.45 54.1 10.5 54.05 L14.1 53.7 14.2 38.7 M21.65 31.4 L20.9 31.6 23.05 33.75 23.25 32.95 Q23.1 31.55 21.65 31.4 M22.45 34.35 L20.3 32.2 20.1 32.95 Q20.35 34.35 21.65 34.55 L22.45 34.35 M22.15 48.6 Q21.45 48.65 21.1 49.0 20.65 49.4 20.55 50.15 L20.75 50.9 22.85 48.8 22.15 48.6 M35.3 49.15 L33.1 49.1 32.65 49.55 32.6 50.35 35.3 49.15 M25.55 28.05 L17.9 28.15 19.3 53.15 24.75 53.25 25.55 28.05 M41.95 51.4 L41.85 49.6 38.7 51.3 38.55 53.05 38.35 54.05 42.0 52.4 41.95 51.4 M25.95 54.9 L23.3 55.25 Q28.6 56.35 33.95 55.25 L30.85 54.9 Q29.8 54.75 29.55 53.85 L29.45 53.4 26.6 53.3 25.95 54.9 M33.2 51.4 L34.55 51.7 35.7 49.95 33.2 51.4 M21.35 51.55 L22.1 51.75 Q23.9 51.55 23.6 49.7 L21.35 51.55 M15.15 51.45 L15.15 52.25 17.45 53.45 17.3 52.6 Q17.2 51.75 17.25 50.65 L15.1 49.4 15.15 51.45" fill="#5d0035" fill-rule="evenodd" stroke="none"/>
      <path d="M50.75 10.0 L50.45 13.35 Q49.55 33.1 49.45 52.9 L47.55 53.2 43.95 52.95 Q43.45 50.9 43.4 48.6 42.7 27.1 42.35 5.6 L51.2 5.6 50.75 10.0 M48.95 12.35 Q48.9 10.75 48.2 9.75 47.5 8.7 46.6 8.8 45.7 8.9 45.1 10.1 44.5 11.25 44.55 12.65 L44.6 45.2 Q43.75 46.05 44.1 47.55 44.8 49.15 46.3 49.2 46.8 49.75 47.7 49.65 L48.1 48.55 Q49.15 47.55 48.65 46.05 L48.3 45.2 48.05 41.5 Q47.2 35.85 47.35 30.15 47.65 21.15 48.95 12.35 M38.0 18.15 Q36.9 35.65 37.55 53.2 L37.5 53.45 31.25 53.15 29.9 16.9 38.1 16.8 38.0 18.15 M35.55 23.9 L35.7 23.75 Q37.0 22.1 35.8 20.5 L35.6 20.25 Q33.9 18.95 32.25 20.3 L32.1 20.4 Q30.8 22.05 32.05 23.7 32.7 32.75 31.85 41.85 31.65 43.75 31.7 45.7 31.7 47.3 32.2 48.6 31.1 50.6 32.75 52.05 L35.05 52.15 Q37.9 50.5 35.4 48.0 34.65 36.55 35.35 25.1 L35.55 23.9 M23.2 34.9 Q24.55 33.8 23.95 32.0 23.45 30.5 21.75 30.6 19.55 30.6 19.3 32.95 19.2 34.05 20.1 34.85 L20.8 48.1 Q18.85 49.95 20.65 51.7 21.25 52.3 22.1 52.65 24.85 52.4 24.5 49.6 24.4 48.75 23.55 48.15 L23.2 34.9 M9.05 43.7 Q7.8 45.3 8.8 46.95 L9.05 47.25 Q8.85 50.0 10.4 52.15 10.75 52.65 11.4 52.4 L11.75 47.7 Q13.05 47.15 13.25 45.45 13.1 43.95 12.0 43.35 12.3 41.75 11.6 40.3 L11.4 40.05 10.2 39.95 Q8.8 41.5 9.05 43.7 M14.2 38.7 L14.1 53.7 10.5 54.05 Q9.45 54.1 8.6 53.65 L7.45 38.8 14.2 38.7 M25.55 28.05 L24.75 53.25 19.3 53.15 17.9 28.15 25.55 28.05" fill="#e3c1d7" fill-rule="evenodd" stroke="none"/>
      <path d="M6.5 43.3 L6.6 44.65 Q1.65 37.85 1.4 28.65 1.7 17.1 9.4 9.45 17.05 1.75 28.6 1.45 35.75 1.65 41.4 4.8 L41.2 4.9 Q41.05 4.75 40.95 5.25 35.45 2.3 28.5 2.1 17.25 2.4 9.8 9.9 2.3 17.35 2.0 28.6 2.2 37.0 6.5 43.3 M40.85 11.15 L41.0 14.95 Q38.6 13.0 35.2 12.55 30.25 11.95 25.95 12.6 16.7 14.25 11.6 22.15 8.2 28.0 10.7 34.3 L12.05 37.4 9.6 37.55 Q7.6 32.95 7.75 27.7 7.85 22.9 10.4 19.05 15.75 11.05 25.25 9.1 33.55 7.45 40.85 11.15 M41.95 38.3 L41.95 42.75 39.4 43.95 Q39.25 42.35 39.25 40.75 L41.95 38.3 M29.3 44.85 L29.25 47.1 27.4 47.55 27.4 45.1 29.3 44.85 M17.4 42.55 L17.4 46.3 16.15 45.55 15.9 41.9 17.4 42.55 M52.05 16.5 L52.1 15.6 Q55.4 21.65 55.55 29.2 55.35 38.0 50.85 44.4 L50.85 42.75 Q54.75 36.6 54.95 28.6 54.75 21.85 52.05 16.5 M41.95 51.4 L42.0 52.4 38.35 54.05 38.55 53.05 41.95 51.4 M30.85 54.9 L33.95 55.25 Q28.6 56.35 23.3 55.25 L25.95 54.9 30.85 54.9 M17.3 52.6 L17.45 53.45 15.15 52.25 15.15 51.45 17.3 52.6" fill="#d2c0c0" fill-rule="evenodd" stroke="none"/>
      <path d="M44.15 4.15 L43.5 4.2 Q37.0 0.25 28.6 0.05 L29.2 0.0 Q37.65 0.2 44.15 4.15 M1.3 37.15 Q3.0 42.7 6.85 47.2 L6.9 47.7 Q2.95 43.0 1.3 37.15" fill="#8d3f6d" fill-rule="evenodd" stroke="none"/>
      <path d="M40.8 9.45 L40.85 11.15 Q33.55 7.45 25.25 9.1 15.75 11.05 10.4 19.05 7.85 22.9 7.75 27.7 7.6 32.95 9.6 37.55 L12.05 37.4 14.45 37.8 7.95 37.8 Q3.5 25.3 11.45 14.7 17.0 7.25 26.3 6.1 34.15 5.3 40.8 9.45 M41.95 42.75 L41.85 47.1 39.25 48.7 38.7 49.4 38.9 15.85 30.2 15.55 Q33.5 13.75 37.2 14.75 40.15 15.65 39.9 19.05 39.05 29.85 39.25 40.75 39.25 42.35 39.4 43.95 L41.95 42.75 M29.25 47.1 L29.25 51.35 26.7 51.5 26.7 27.55 26.4 27.25 Q22.25 25.8 17.8 27.05 19.55 26.25 21.6 26.15 L24.6 26.45 Q27.6 26.9 27.45 30.1 27.1 37.6 27.4 45.1 L27.4 47.55 29.25 47.1 M17.4 46.3 L17.35 48.85 15.05 47.8 15.3 38.55 15.9 41.9 16.15 45.55 17.4 46.3" fill="#bda3a3" fill-rule="evenodd" stroke="none"/>
      <path d="M7.95 37.8 L6.95 38.05 Q5.2 33.9 5.05 28.9 5.3 19.0 12.0 12.3 18.7 5.6 28.65 5.3 35.55 5.45 40.8 8.75 L40.8 9.45 Q34.15 5.3 26.3 6.1 17.0 7.25 11.45 14.7 3.5 25.3 7.95 37.8 M41.85 47.1 L41.85 47.95 38.7 49.8 38.7 49.4 39.25 48.7 41.85 47.1 M29.25 51.35 L29.25 52.05 26.7 51.95 26.7 51.5 29.25 51.35 M51.15 34.95 L51.65 24.65 51.85 28.65 Q51.9 31.85 51.15 34.95" fill="#aa8888" fill-rule="evenodd" stroke="none"/>
      <path d="M45.1 11.4 Q45.25 10.0 46.65 9.85 L47.45 10.1 45.35 12.2 45.1 11.4 M46.3 12.95 L48.05 10.7 Q48.75 12.6 46.65 13.0 L46.3 12.95 M44.9 46.45 L47.6 47.8 46.85 48.1 Q45.45 48.6 44.9 47.25 L44.9 46.45 M47.9 46.25 L47.95 47.0 45.3 45.7 Q45.55 45.45 45.9 45.3 47.35 44.95 47.9 46.25 M35.4 21.6 L32.45 21.65 32.75 21.0 35.0 20.95 35.4 21.6 M32.4 22.2 L35.35 22.15 35.05 22.8 32.8 22.85 32.4 22.2 M9.4 44.7 L11.55 46.85 10.75 47.05 Q9.35 46.9 9.2 45.45 L9.4 44.7 M12.35 45.45 L12.15 46.25 10.0 44.1 10.75 43.9 Q12.2 44.05 12.35 45.45 M22.45 34.35 L21.65 34.55 Q20.35 34.35 20.1 32.95 L20.3 32.2 22.45 34.35 M21.65 31.4 Q23.1 31.55 23.25 32.95 L23.05 33.75 20.9 31.6 21.65 31.4 M22.15 48.6 L22.85 48.8 20.75 50.9 20.55 50.15 Q20.65 49.4 21.1 49.0 21.45 48.65 22.15 48.6 M35.3 49.15 L32.6 50.35 32.65 49.55 33.1 49.1 35.3 49.15 M33.2 51.4 L35.7 49.95 34.55 51.7 33.2 51.4 M21.35 51.55 L23.6 49.7 Q23.9 51.55 22.1 51.75 L21.35 51.55" fill="#a68884" fill-rule="evenodd" stroke="none"/>
      <path d="M48.95 12.35 Q47.65 21.15 47.35 30.15 47.2 35.85 48.05 41.5 L48.3 45.2 Q47.35 44.0 45.65 44.45 L44.6 45.2 44.55 12.65 Q45.1 13.75 46.65 13.9 48.4 13.7 48.95 12.35 M48.1 48.55 L47.7 49.65 Q46.8 49.75 46.3 49.2 L48.1 48.55 M35.55 23.9 L35.35 25.1 Q34.65 36.55 35.4 48.0 L35.0 47.8 Q33.2 47.3 32.2 48.6 31.7 47.3 31.7 45.7 31.65 43.75 31.85 41.85 32.7 32.75 32.05 23.7 L32.2 23.85 Q33.9 25.2 35.55 23.9 M20.1 34.85 L23.2 34.9 23.55 48.15 20.8 48.1 20.1 34.85 M9.05 43.7 Q8.8 41.5 10.2 39.95 L11.4 40.05 11.6 40.3 Q12.3 41.75 12.0 43.35 L11.45 43.15 Q10.1 42.75 9.05 43.7 M11.75 47.7 L11.4 52.4 Q10.75 52.65 10.4 52.15 8.85 50.0 9.05 47.25 10.7 48.45 11.75 47.7" fill="#c7abb9" fill-rule="evenodd" stroke="none"/>
      <path d="M40.95 5.25 L40.85 7.15 Q31.5 2.15 21.3 5.15 11.65 8.15 7.05 17.05 1.4 28.1 6.05 39.7 L6.35 41.05 6.5 43.3 Q2.2 37.0 2.0 28.6 2.3 17.35 9.8 9.9 17.25 2.4 28.5 2.1 35.45 2.3 40.95 5.25 M41.0 14.95 L41.95 38.3 39.25 40.75 Q39.05 29.85 39.9 19.05 40.15 15.65 37.2 14.75 33.5 13.75 30.2 15.55 L28.85 16.2 29.3 44.85 27.4 45.1 Q27.1 37.6 27.45 30.1 27.6 26.9 24.6 26.45 L21.6 26.15 Q19.55 26.25 17.8 27.05 L16.8 27.7 17.4 42.55 15.9 41.9 15.3 38.55 14.45 37.8 12.05 37.4 10.7 34.3 Q8.2 28.0 11.6 22.15 16.7 14.25 25.95 12.6 30.25 11.95 35.2 12.55 38.6 13.0 41.0 14.95 M50.85 42.75 Q50.6 40.15 51.5 38.1 53.35 33.65 53.2 28.65 53.15 26.45 52.6 24.4 51.5 20.6 52.05 16.5 54.75 21.85 54.95 28.6 54.75 36.6 50.85 42.75 M38.55 53.05 L38.7 51.3 41.85 49.6 41.95 51.4 38.55 53.05 M25.95 54.9 L26.6 53.3 29.45 53.4 29.55 53.85 Q29.8 54.75 30.85 54.9 L25.95 54.9 M15.15 51.45 L15.1 49.4 17.25 50.65 Q17.2 51.75 17.3 52.6 L15.15 51.45" fill="#e3d7d7" fill-rule="evenodd" stroke="none"/>
    </g>
    <g id="text1" transform="matrix(1.0, 0.0, 0.0, 1.0, -1.05, -7.15)">
      <g transform="matrix(1.0, 0.0, 0.0, 1.0, 0.5, 0.0)">
        <use fill="#ffffff" height="18.95" transform="matrix(0.5859, 0.0, 0.0, 0.5859, 0.0, 26.0)" width="118.8" xlink:href="#font_______W7_Y0"/>
        <use fill="#ffffff" height="18.95" transform="matrix(0.5859, 0.0, 0.0, 0.5859, 19.9, 26.0)" width="118.8" xlink:href="#font_______W7_e0"/>
        <use fill="#ffffff" height="18.95" transform="matrix(0.5859, 0.0, 0.0, 0.5859, 36.7, 26.0)" width="118.8" xlink:href="#font_______W7_s0"/>
        <use fill="#ffffff" height="18.95" transform="matrix(0.5859, 0.0, 0.0, 0.5859, 62.25, 26.0)" width="118.8" xlink:href="#font_______W7_M0"/>
        <use fill="#ffffff" height="18.95" transform="matrix(0.5859, 0.0, 0.0, 0.5859, 86.2, 26.0)" width="118.8" xlink:href="#font_______W7_a0"/>
        <use fill="#ffffff" height="18.95" transform="matrix(0.5859, 0.0, 0.0, 0.5859, 103.45, 26.0)" width="118.8" xlink:href="#font_______W7_n0"/>
      </g>
    </g>
    <g id="font_______W7_Y0">
      <path d="M25.5 -32.15 L25.5 -32.15 15.75 -18.05 5.15 -31.95 0.75 -29.2 12.5 -12.7 10.15 0.05 21.35 -1.4 18.8 -12.8 33.25 -26.05 25.5 -32.15" fill-rule="evenodd" stroke="none"/>
    </g>
    <g id="font_______W7_s0">
      <path d="M25.05 -6.35 L25.05 -6.35 Q25.05 -12.25 15.35 -13.65 8.7 -14.6 8.7 -15.7 8.7 -17.05 12.35 -17.05 17.1 -17.05 22.25 -14.8 L23.8 -18.2 Q19.05 -21.45 12.25 -21.45 8.55 -21.45 6.05 -20.35 2.6 -18.85 2.6 -15.7 2.6 -13.1 4.75 -11.8 6.5 -10.75 10.95 -10.05 L16.3 -8.95 Q17.8 -8.4 17.8 -7.5 17.8 -6.2 15.25 -6.2 12.3 -6.2 9.1 -7.45 5.9 -8.7 3.8 -10.65 L1.0 -2.6 Q6.45 0.05 14.3 0.05 25.05 0.05 25.05 -6.35" fill-rule="evenodd" stroke="none"/>
    </g>
    <g id="font_______W7_M0">
      <path d="M35.55 -31.55 L35.55 -31.55 30.8 -32.15 20.2 -14.25 9.85 -31.5 5.1 -32.15 2.55 0.05 12.6 -1.4 10.85 -20.45 18.7 -2.25 22.0 -3.05 29.9 -20.9 28.25 0.05 38.3 -1.4 35.55 -31.55" fill-rule="evenodd" stroke="none"/>
    </g>
    <g id="font_______W7_n0">
      <path d="M27.0 -9.05 L27.0 -9.05 Q27.0 -14.5 24.65 -17.8 21.9 -21.45 16.6 -21.45 12.6 -21.45 9.45 -18.85 L9.2 -20.75 4.35 -21.45 2.05 0.05 11.95 -1.4 10.35 -12.55 Q12.95 -15.85 15.9 -15.85 19.4 -15.85 19.4 -10.6 19.4 -6.9 16.6 -1.3 L26.2 0.0 Q27.0 -6.5 27.0 -9.05" fill-rule="evenodd" stroke="none"/>
    </g>
    <g id="text2" transform="matrix(1.0, 0.0, 0.0, 1.0, -1.5, -7.15)">
      <g transform="matrix(1.0, 0.0, 0.0, 1.0, 0.0, 0.0)">
        <use fill="#ffffff" height="19.0" transform="matrix(0.5859, 0.0, 0.0, 0.5859, 0.0, 26.0)" width="188.0" xlink:href="#font_______W7_D0"/>
        <use fill="#ffffff" height="19.0" transform="matrix(0.5859, 0.0, 0.0, 0.5859, 19.75, 26.0)" width="188.0" xlink:href="#font_______W7_o0"/>
        <use fill="#ffffff" height="19.0" transform="matrix(0.5859, 0.0, 0.0, 0.5859, 34.9, 26.0)" width="188.0" xlink:href="#font_______W7_u0"/>
        <use fill="#ffffff" height="19.0" transform="matrix(0.5859, 0.0, 0.0, 0.5859, 50.8, 26.0)" width="188.0" xlink:href="#font_______W7_b0"/>
        <use fill="#ffffff" height="19.0" transform="matrix(0.5859, 0.0, 0.0, 0.5859, 67.4, 26.0)" width="188.0" xlink:href="#font_______W7_l0"/>
        <use fill="#ffffff" height="19.0" transform="matrix(0.5859, 0.0, 0.0, 0.5859, 77.4, 26.0)" width="188.0" xlink:href="#font_______W7_e0"/>
        <use fill="#ffffff" height="19.0" transform="matrix(0.5859, 0.0, 0.0, 0.5859, 102.15, 26.0)" width="188.0" xlink:href="#font_______W7_T0"/>
        <use fill="#ffffff" height="19.0" transform="matrix(0.5859, 0.0, 0.0, 0.5859, 120.55, 26.0)" width="188.0" xlink:href="#font_______W7_a0"/>
        <use fill="#ffffff" height="19.0" transform="matrix(0.5859, 0.0, 0.0, 0.5859, 136.85, 26.0)" width="188.0" xlink:href="#font_______W7_l0"/>
        <use fill="#ffffff" height="19.0" transform="matrix(0.5859, 0.0, 0.0, 0.5859, 146.85, 26.0)" width="188.0" xlink:href="#font_______W7_k0"/>
        <use fill="#ffffff" height="19.0" transform="matrix(0.5859, 0.0, 0.0, 0.5859, 163.05, 26.0)" width="188.0" xlink:href="#font_______W7_e0"/>
        <use fill="#ffffff" height="19.0" transform="matrix(0.5859, 0.0, 0.0, 0.5859, 178.8, 26.0)" width="188.0" xlink:href="#font_______W7_r0"/>
      </g>
    </g>
    <g id="font_______W7_u0">
      <path d="M24.1 -20.75 L24.1 -20.75 19.25 -21.45 17.9 -8.95 16.15 -11.65 Q13.35 -8.1 10.6 -8.1 9.0 -8.1 8.15 -9.4 7.25 -10.65 7.25 -12.3 7.25 -15.75 8.6 -19.75 L3.9 -21.15 Q2.05 -16.35 2.05 -11.4 2.05 -6.45 4.25 -3.4 6.75 0.05 11.5 0.05 14.55 0.05 17.1 -1.5 L16.95 0.1 26.8 -1.35 24.1 -20.75" fill-rule="evenodd" stroke="none"/>
    </g>
    <g id="font_______W7_b0">
      <path d="M20.9 -12.9 L20.9 -12.9 Q20.9 -9.4 17.6 -9.4 15.3 -9.4 13.25 -11.85 L11.45 -8.4 10.95 -14.2 Q13.25 -16.5 16.3 -16.5 17.85 -16.5 19.35 -15.5 20.9 -14.45 20.9 -12.9 M28.25 -10.45 L28.25 -10.45 Q28.25 -15.0 25.1 -18.25 21.9 -21.45 17.35 -21.45 13.75 -21.45 10.5 -19.25 L9.35 -31.5 4.65 -32.15 2.05 0.05 12.15 -0.75 12.15 -2.05 Q14.7 0.05 18.2 0.05 22.6 0.05 25.4 -3.0 28.25 -6.0 28.25 -10.45" fill-rule="evenodd" stroke="none"/>
    </g>
    <g id="font_______W7_l0">
      <path d="M11.6 -31.5 L11.6 -31.5 6.9 -32.15 4.35 0.05 14.4 -1.4 11.6 -31.5" fill-rule="evenodd" stroke="none"/>
    </g>
    <g id="font_______W7_T0">
      <path d="M30.8 -32.15 L30.8 -32.15 0.75 -29.4 1.85 -24.25 13.45 -24.25 11.0 0.05 21.6 -1.1 18.95 -24.25 32.35 -24.25 30.8 -32.15" fill-rule="evenodd" stroke="none"/>
    </g>
    <g id="font_______W7_k0">
      <path d="M20.35 -12.2 L20.35 -12.2 26.9 -17.9 24.8 -21.8 10.85 -14.65 9.3 -31.45 4.6 -32.15 2.05 0.05 12.1 -1.4 11.35 -9.1 13.25 -6.05 15.8 -8.25 22.05 0.25 28.6 -6.95 20.35 -12.2" fill-rule="evenodd" stroke="none"/>
    </g>
    <g id="text3" transform="matrix(1.0, 0.0, 0.0, 1.0, -0.45, -7.15)">
      <g transform="matrix(1.0, 0.0, 0.0, 1.0, 0.0, 0.0)">
        <use fill="#ffffff" height="21.65" transform="matrix(0.5859, 0.0, 0.0, 0.5859, 0.0, 26.0)" width="130.6" xlink:href="#font_______W7_T0"/>
        <use fill="#ffffff" height="21.65" transform="matrix(0.5859, 0.0, 0.0, 0.5859, 19.4, 26.0)" width="130.6" xlink:href="#font_______W7_i0"/>
        <use fill="#ffffff" height="21.65" transform="matrix(0.5859, 0.0, 0.0, 0.5859, 30.4, 26.0)" width="130.6" xlink:href="#font_______W7_g0"/>
        <use fill="#ffffff" height="21.65" transform="matrix(0.5859, 0.0, 0.0, 0.5859, 47.0, 26.0)" width="130.6" xlink:href="#font_______W7_h0"/>
        <use fill="#ffffff" height="21.65" transform="matrix(0.5859, 0.0, 0.0, 0.5859, 64.7, 26.0)" width="130.6" xlink:href="#font_______W7_t0"/>
        <use fill="#ffffff" height="21.65" transform="matrix(0.5859, 0.0, 0.0, 0.5859, 78.95, 26.0)" width="130.6" xlink:href="#font_______W7_w0"/>
        <use fill="#ffffff" height="21.65" transform="matrix(0.5859, 0.0, 0.0, 0.5859, 97.55, 26.0)" width="130.6" xlink:href="#font_______W7_a0"/>
        <use fill="#ffffff" height="21.65" transform="matrix(0.5859, 0.0, 0.0, 0.5859, 114.85, 26.0)" width="130.6" xlink:href="#font_______W7_d0"/>
      </g>
    </g>
    <g id="font_______W7_i0">
      <path d="M11.6 -20.75 L11.6 -20.75 6.75 -21.45 4.45 0.05 14.3 -1.4 11.6 -20.75 M11.9 -31.5 L11.9 -31.5 6.5 -32.15 4.9 -24.95 13.2 -26.1 11.9 -31.5" fill-rule="evenodd" stroke="none"/>
    </g>
    <g id="font_______W7_g0">
      <path d="M21.25 -12.75 L21.25 -12.75 21.05 -10.5 18.9 -14.7 Q15.2 -11.7 11.9 -11.7 10.85 -11.7 10.0 -12.55 9.05 -13.45 9.05 -14.45 9.05 -16.75 13.35 -16.75 15.6 -16.75 18.05 -15.7 20.3 -14.7 21.2 -13.55 L21.25 -12.75 M26.3 -10.4 L26.3 -10.4 Q26.3 -15.45 24.2 -21.5 L20.0 -20.3 20.3 -19.15 Q16.35 -21.45 12.1 -21.45 8.15 -21.45 5.4 -19.3 2.35 -16.95 2.35 -13.2 2.35 -9.45 5.85 -7.35 8.8 -5.6 12.75 -5.6 16.55 -5.6 19.75 -6.9 17.8 -3.95 13.25 -3.95 8.55 -3.95 4.75 -6.35 L1.8 2.9 Q6.7 4.75 11.2 4.75 18.25 4.75 22.25 0.65 26.3 -3.4 26.3 -10.4" fill-rule="evenodd" stroke="none"/>
    </g>
    <g id="font_______W7_h0">
      <path d="M28.1 -7.6 L28.1 -7.6 Q28.1 -13.7 25.7 -17.25 22.9 -21.45 17.05 -21.45 13.35 -21.45 10.45 -19.3 L9.3 -31.55 4.65 -32.15 2.05 0.05 12.1 -1.4 11.0 -12.9 Q13.45 -15.95 16.35 -15.95 20.1 -15.95 20.1 -10.2 20.1 -6.55 17.6 -1.55 L27.6 0.05 28.1 -7.6" fill-rule="evenodd" stroke="none"/>
    </g>
    <g id="font_______W7_t0">
      <path d="M18.7 -12.2 L18.7 -12.2 Q17.0 -9.35 14.9 -9.35 11.95 -9.35 11.95 -15.4 L21.65 -15.4 20.1 -22.55 12.4 -21.45 Q12.75 -24.2 13.6 -27.95 L8.95 -28.85 Q7.75 -24.65 7.1 -20.75 L0.75 -19.9 1.75 -15.4 6.55 -15.4 6.5 -12.55 Q6.5 -6.8 7.75 -4.05 9.5 0.05 14.55 0.05 19.1 0.05 23.25 -4.15 L18.7 -12.2" fill-rule="evenodd" stroke="none"/>
    </g>
    <g id="font_______W7_w0">
      <path d="M23.1 -21.4 L23.1 -21.4 20.35 -10.05 16.6 -20.6 13.9 -21.45 9.35 -10.05 4.1 -21.35 0.5 -19.7 8.35 0.05 11.1 -0.5 14.9 -12.4 19.2 0.05 22.05 -0.55 31.2 -17.75 23.1 -21.4" fill-rule="evenodd" stroke="none"/>
    </g>
    <g id="font_______W7_d0">
      <path d="M18.35 -8.95 L18.35 -8.95 16.8 -11.9 Q14.75 -9.45 12.45 -9.45 10.9 -9.45 10.0 -10.4 9.1 -11.4 9.1 -12.95 9.1 -14.5 10.7 -15.6 12.15 -16.5 13.7 -16.5 16.6 -16.5 18.8 -14.55 L18.35 -8.95 M24.9 -31.55 L24.9 -31.55 20.15 -32.2 19.15 -19.55 Q16.05 -21.45 12.65 -21.45 8.15 -21.45 4.95 -18.25 1.8 -15.0 1.8 -10.5 1.8 -6.05 4.6 -3.05 7.4 0.05 11.85 0.05 14.65 0.05 17.7 -1.5 L17.6 0.0 27.65 -1.45 24.9 -31.55" fill-rule="evenodd" stroke="none"/>
    </g>
  </defs>
</svg>
