<?xml version="1.0" encoding="UTF-8" standalone="no"?>
<svg xmlns:xlink="http://www.w3.org/1999/xlink" height="323.05px" width="595.1px" xmlns="http://www.w3.org/2000/svg">
  <g transform="matrix(1.0, 0.0, 0.0, 1.0, 68.25, 14.45)">
    <use height="225.7" transform="matrix(0.6434, -0.1111, 0.1111, 0.6434, 30.0, 48.3)" width="254.35" xlink:href="#shape0"/>
    <use height="62.9" transform="matrix(0.7214, -0.1245, 0.1245, 0.7214, 102.3082, 115.8313)" width="60.15" xlink:href="#shape1"/>
    <use height="262.95" transform="matrix(0.7585, 0.0, 0.0, 0.7585, 252.25, -11.15)" width="143.85" xlink:href="#shape2"/>
    <use height="59.15" transform="matrix(0.7325, 0.0, 0.0, 0.7325, 287.1366, 117.15)" width="57.15" xlink:href="#shape3"/>
    <use height="264.45" transform="matrix(0.7917, 0.0, 0.0, 0.7917, 154.55, 55.3)" width="141.75" xlink:href="#shape4"/>
    <use height="57.2" transform="matrix(0.7325, 0.0, 0.0, 0.7325, 192.1331, 186.6732)" width="56.95" xlink:href="#shape5"/>
    <use height="254.2" transform="matrix(0.7288, 0.0706, -0.0706, 0.7288, 321.95, 83.5)" width="281.15" xlink:href="#shape6"/>
    <use height="57.25" transform="matrix(0.7288, 0.0706, -0.0706, 0.7288, 390.8229, 189.6071)" width="57.1" xlink:href="#shape7"/>
    <use height="17.5" transform="matrix(0.7214, -0.1245, 0.1245, 0.7214, -33.0184, 97.6486)" width="141.7" xlink:href="#text0"/>
    <use height="41.3" transform="matrix(0.7325, 0.0, 0.0, 0.7325, 191.0796, -5.4883)" width="124.6" xlink:href="#text1"/>
    <use height="15.3" transform="matrix(0.7325, 0.0, 0.0, 0.7325, 155.579, 271.8617)" width="154.25" xlink:href="#text2"/>
    <use height="15.45" transform="matrix(0.7279, 0.0764, -0.0764, 0.7279, 354.1559, 281.4216)" width="130.2" xlink:href="#text3"/>
  </g>
  <defs>
    <g id="shape0" transform="matrix(1.0, 0.0, 0.0, 1.0, 0.0, 0.0)">
      <path d="M183.45 60.0 L183.1 60.25 168.1 59.75 165.4 70.65 Q171.05 70.9 176.25 72.15 L178.65 72.9 182.95 74.4 189.6 76.7 201.1 80.35 224.55 105.2 245.0 141.8 254.35 196.45 253.75 197.95 248.4 198.45 252.65 209.65 251.8 210.45 227.75 224.6 Q224.55 222.0 221.85 218.95 219.75 216.55 219.55 213.05 L219.25 208.8 219.15 205.8 219.35 202.7 219.8 199.95 214.0 200.2 212.25 196.9 210.6 193.55 209.0 190.15 205.75 182.3 207.75 224.15 207.6 224.9 206.25 225.7 46.65 225.7 45.9 225.5 45.15 224.15 46.6 179.2 37.05 199.2 33.7 199.05 36.65 205.6 Q35.65 210.65 33.9 215.5 L32.7 218.7 32.5 219.05 29.65 221.2 24.9 224.35 1.95 210.5 1.3 209.25 5.85 197.4 0.85 197.05 0.0 195.55 2.3 165.85 19.25 125.75 59.9 80.4 84.65 69.85 83.45 60.45 67.35 61.75 66.95 61.45 66.6 61.1 66.4 60.7 66.35 60.3 66.3 59.75 84.35 8.55 95.05 0.0 157.25 0.0 168.05 9.75 183.75 58.65 183.45 60.0 M162.65 59.0 L162.2 58.15 156.55 25.9 119.5 13.05 95.25 22.95 89.55 58.75 88.85 59.65 86.45 60.15 87.7 70.25 128.15 84.25 162.55 68.5 165.1 59.65 162.65 59.0 M199.15 82.65 L183.75 78.05 183.4 83.05 194.8 115.25 205.3 173.65 215.35 197.15 251.1 195.3 242.1 142.6 222.3 107.15 199.15 82.65 M172.35 93.15 L172.75 75.45 164.85 73.55 132.5 130.85 169.75 104.75 166.3 103.0 162.5 100.7 162.05 99.95 162.05 99.4 172.35 93.15 M175.75 75.15 L175.1 94.8 166.6 99.8 174.0 103.9 173.85 105.55 129.45 136.7 131.75 222.6 204.7 222.7 202.35 174.15 191.9 116.2 180.45 83.75 180.8 77.1 175.75 75.15 M164.95 56.5 L180.2 57.5 165.3 11.05 156.65 3.0 95.6 3.0 87.05 9.95 69.9 58.55 86.75 57.1 92.45 21.6 93.35 20.45 118.9 10.0 119.95 10.0 158.35 23.35 159.35 24.5 164.95 56.5 M131.05 35.25 L128.2 35.2 127.65 34.65 127.85 33.55 141.75 33.35 142.35 34.25 141.75 35.2 137.95 35.25 131.05 35.25 M107.0 35.3 L101.1 36.7 100.7 36.55 100.45 35.3 Q108.05 33.3 116.05 33.7 L116.9 34.4 116.7 35.45 113.9 35.6 107.0 35.3 M103.65 61.9 L102.0 62.6 105.65 63.65 Q118.5 68.05 132.0 65.45 138.45 64.15 144.25 61.1 137.9 57.2 130.5 56.55 126.4 56.35 123.0 58.5 117.65 55.4 113.05 57.1 108.4 58.8 103.65 61.9 M94.45 65.35 L93.95 64.0 Q103.9 60.2 112.9 54.55 118.25 54.55 122.9 56.4 128.5 53.05 134.45 54.95 137.75 55.95 140.9 57.55 147.45 60.6 154.2 62.8 L154.55 63.1 153.65 64.5 146.85 62.2 Q134.5 68.25 120.9 68.1 110.3 68.0 100.6 64.2 L100.25 63.3 94.45 65.35 M94.65 97.55 L95.8 98.4 95.85 99.25 87.85 108.05 122.4 130.6 83.9 75.05 76.25 77.35 77.55 97.9 94.65 97.55 M108.25 96.35 L114.5 83.05 86.4 73.4 101.6 95.4 108.25 96.35 M117.5 83.75 L116.0 86.9 122.35 98.4 129.2 98.0 135.95 89.05 134.15 84.85 Q131.2 86.1 128.4 85.85 122.9 85.55 117.5 83.75 M114.45 90.25 L110.5 98.6 Q110.05 99.65 108.95 99.45 L103.95 98.7 112.2 110.65 119.75 99.85 114.45 90.25 M118.1 76.5 L118.85 75.65 119.65 75.75 120.25 76.75 Q125.45 77.65 130.45 76.65 L131.15 75.7 132.2 75.9 132.35 76.95 Q125.35 81.3 118.3 76.9 L118.1 76.5 M142.45 95.8 L149.4 94.65 162.35 71.9 136.85 83.6 142.45 95.8 M140.9 98.8 L137.35 92.15 131.9 99.4 141.05 109.6 147.55 98.0 141.85 98.95 140.9 98.8 M61.8 92.35 L60.15 84.6 21.6 127.6 5.15 166.75 3.1 194.25 35.55 196.15 Q37.15 191.9 39.0 187.8 L42.95 179.65 44.8 176.35 Q45.75 174.75 45.9 173.05 L48.4 147.35 Q48.95 141.85 50.35 136.45 L61.8 92.35 M62.75 82.35 L64.8 92.75 50.55 147.5 48.2 222.7 128.75 222.7 126.5 138.25 126.7 137.55 126.45 136.95 84.7 109.55 84.2 108.05 90.85 100.55 75.95 100.9 75.2 100.1 73.25 78.05 62.75 82.35 M128.85 131.25 L139.5 112.35 129.3 101.0 122.3 101.4 114.05 113.25 126.85 131.75 128.85 131.25 M249.3 208.8 L245.35 199.0 223.5 199.7 220.25 205.75 222.3 213.7 228.25 208.85 229.5 209.6 229.5 211.25 223.1 216.65 223.35 217.6 228.3 221.45 249.3 208.8 M33.6 205.45 L30.45 199.25 8.5 198.8 4.6 208.6 25.55 221.25 30.45 217.5 30.55 216.45 Q30.15 216.35 29.85 216.05 L24.6 211.25 Q24.15 210.85 24.1 210.25 24.1 209.6 24.5 209.15 24.9 208.7 25.55 208.65 26.15 208.65 26.6 209.05 L31.0 213.1 33.6 205.45" fill="#1a1a1a" fill-rule="evenodd" stroke="none"/>
      <path d="M164.95 56.5 L159.35 24.5 158.35 23.35 119.95 10.0 118.9 10.0 93.35 20.45 92.45 21.6 86.75 57.1 69.9 58.55 87.05 9.95 95.6 3.0 156.65 3.0 165.3 11.05 180.2 57.5 164.95 56.5 M175.75 75.15 L180.8 77.1 180.45 83.75 191.9 116.2 202.35 174.15 204.7 222.7 131.75 222.6 129.45 136.7 173.85 105.55 174.0 103.9 166.6 99.8 175.1 94.8 175.75 75.15 M172.35 93.15 L162.05 99.4 162.05 99.95 162.5 100.7 166.3 103.0 169.75 104.75 132.5 130.85 164.85 73.55 172.75 75.45 172.35 93.15 M199.15 82.65 L222.3 107.15 242.1 142.6 251.1 195.3 215.35 197.15 205.3 173.65 194.8 115.25 183.4 83.05 183.75 78.05 199.15 82.65 M94.65 97.55 L77.55 97.9 76.25 77.35 83.9 75.05 122.4 130.6 87.85 108.05 95.85 99.25 95.8 98.4 94.65 97.55 M62.75 82.35 L73.25 78.05 75.2 100.1 75.95 100.9 90.85 100.55 84.2 108.05 84.7 109.55 126.45 136.95 126.7 137.55 126.5 138.25 128.75 222.7 48.2 222.7 50.55 147.5 64.8 92.75 62.75 82.35 M61.8 92.35 L50.35 136.45 Q48.95 141.85 48.4 147.35 L45.9 173.05 Q45.75 174.75 44.8 176.35 L42.95 179.65 39.0 187.8 Q37.15 191.9 35.55 196.15 L3.1 194.25 5.15 166.75 21.6 127.6 60.15 84.6 61.8 92.35" fill="#591f0b" fill-rule="evenodd" stroke="none"/>
      <path d="M136.9 26.6 L132.75 29.5 Q129.95 31.55 126.55 30.6 L126.65 30.1 Q129.15 27.85 132.4 26.8 L134.65 25.8 Q139.45 23.0 144.3 25.45 140.15 24.3 136.9 26.6 M131.05 35.25 L137.95 35.25 Q137.2 37.85 134.2 38.15 131.25 38.05 131.05 35.25 M123.35 46.85 Q123.6 45.2 125.05 44.85 L126.05 44.7 127.5 46.7 128.85 46.45 131.25 43.75 Q131.55 48.15 126.8 47.65 L124.25 47.05 124.7 46.85 123.35 46.85 124.1 48.4 123.15 49.5 119.9 48.15 122.35 48.2 123.35 46.85 M107.0 35.3 L113.9 35.6 Q113.35 38.6 110.2 38.55 107.1 38.55 107.0 35.3 M117.8 31.2 Q113.1 30.45 109.05 27.5 105.8 25.05 101.8 26.1 L98.9 26.8 Q103.15 21.95 108.9 24.9 112.8 26.95 116.55 29.2 117.85 29.95 117.8 31.2 M113.15 44.15 Q113.95 45.9 115.85 46.4 116.65 45.05 118.35 44.95 L119.85 46.7 Q117.9 47.55 115.65 47.55 113.15 47.45 112.45 45.15 L113.15 44.15" fill="#000000" fill-rule="evenodd" stroke="none"/>
      <path d="M103.65 61.9 Q108.4 58.8 113.05 57.1 117.65 55.4 123.0 58.5 126.4 56.35 130.5 56.55 137.9 57.2 144.25 61.1 138.45 64.15 132.0 65.45 118.5 68.05 105.65 63.65 L102.0 62.6 103.65 61.9" fill="#854582" fill-rule="evenodd" stroke="none"/>
      <path d="M108.25 96.35 L101.6 95.4 86.4 73.4 114.5 83.05 108.25 96.35 M114.45 90.25 L119.75 99.85 112.2 110.65 103.95 98.7 108.95 99.45 Q110.05 99.65 110.5 98.6 L114.45 90.25 M140.9 98.8 L141.85 98.95 147.55 98.0 141.05 109.6 131.9 99.4 137.35 92.15 140.9 98.8 M142.45 95.8 L136.85 83.6 162.35 71.9 149.4 94.65 142.45 95.8" fill="#d1b8a2" fill-rule="evenodd" stroke="none"/>
      <path d="M162.65 59.0 L165.1 59.65 162.55 68.5 128.15 84.25 87.7 70.25 86.45 60.15 88.85 59.65 89.55 58.75 95.25 22.95 119.5 13.05 156.55 25.9 162.2 58.15 162.65 59.0 M136.9 26.6 Q140.15 24.3 144.3 25.45 139.45 23.0 134.65 25.8 L132.4 26.8 Q129.15 27.85 126.65 30.1 L126.55 30.6 Q129.95 31.55 132.75 29.5 L136.9 26.6 M137.95 35.25 L141.75 35.2 142.35 34.25 141.75 33.35 127.85 33.55 127.65 34.65 128.2 35.2 131.05 35.25 Q131.25 38.05 134.2 38.15 137.2 37.85 137.95 35.25 M123.35 46.85 L124.7 46.85 124.25 47.05 126.8 47.65 Q131.55 48.15 131.25 43.75 L128.85 46.45 127.5 46.7 126.05 44.7 125.05 44.85 Q123.6 45.2 123.35 46.85 L122.35 48.2 119.9 48.15 123.15 49.5 124.1 48.4 123.35 46.85 M113.9 35.6 L116.7 35.45 116.9 34.4 116.05 33.7 Q108.05 33.3 100.45 35.3 L100.7 36.55 101.1 36.7 107.0 35.3 Q107.1 38.55 110.2 38.55 113.35 38.6 113.9 35.6 M113.15 44.15 L112.45 45.15 Q113.15 47.45 115.65 47.55 117.9 47.55 119.85 46.7 L118.35 44.95 Q116.65 45.05 115.85 46.4 113.95 45.9 113.15 44.15 M117.8 31.2 Q117.85 29.95 116.55 29.2 112.8 26.95 108.9 24.9 103.15 21.95 98.9 26.8 L101.8 26.1 Q105.8 25.05 109.05 27.5 113.1 30.45 117.8 31.2 M94.45 65.35 L100.25 63.3 100.6 64.2 Q110.3 68.0 120.9 68.1 134.5 68.25 146.85 62.2 L153.65 64.5 154.55 63.1 154.2 62.8 Q147.45 60.6 140.9 57.55 137.75 55.95 134.45 54.95 128.5 53.05 122.9 56.4 118.25 54.55 112.9 54.55 103.9 60.2 93.95 64.0 L94.45 65.35 M118.1 76.5 L118.3 76.9 Q125.35 81.3 132.35 76.95 L132.2 75.9 131.15 75.7 130.45 76.65 Q125.45 77.65 120.25 76.75 L119.65 75.75 118.85 75.65 118.1 76.5 M33.6 205.45 L31.0 213.1 26.6 209.05 Q26.15 208.65 25.55 208.65 24.9 208.7 24.5 209.15 24.1 209.6 24.1 210.25 24.15 210.85 24.6 211.25 L29.85 216.05 Q30.15 216.35 30.55 216.45 L30.45 217.5 25.55 221.25 4.6 208.6 8.5 198.8 30.45 199.25 33.6 205.45 M249.3 208.8 L228.3 221.45 223.35 217.6 223.1 216.65 229.5 211.25 229.5 209.6 228.25 208.85 222.3 213.7 220.25 205.75 223.5 199.7 245.35 199.0 249.3 208.8" fill="#e6c6b0" fill-rule="evenodd" stroke="none"/>
      <path d="M117.5 83.75 Q122.9 85.55 128.4 85.85 131.2 86.1 134.15 84.85 L135.95 89.05 129.2 98.0 122.35 98.4 116.0 86.9 117.5 83.75 M128.85 131.25 L126.85 131.75 114.05 113.25 122.3 101.4 129.3 101.0 139.5 112.35 128.85 131.25" fill="#331c1a" fill-rule="evenodd" stroke="none"/>
    </g>
    <g id="shape1" transform="matrix(1.0, 0.0, 0.0, 1.0, -0.15, 0.0)">
      <path d="M41.2 3.95 L41.15 4.0 41.3 4.0 44.35 3.65 45.1 3.6 49.85 3.3 50.1 7.7 50.1 10.1 49.75 10.45 47.5 10.8 45.55 11.05 44.6 11.15 36.4 11.95 33.15 17.35 Q38.35 28.65 45.4 38.9 L48.7 43.9 40.45 52.5 40.25 52.7 38.35 54.95 36.45 57.35 35.6 58.4 34.3 60.1 33.5 61.15 32.05 62.9 Q30.6 62.8 29.95 61.3 L29.3 60.4 28.2 58.8 27.65 57.95 26.25 56.0 25.6 55.0 Q21.25 48.5 15.35 43.2 L15.05 42.65 Q23.8 32.45 27.0 19.2 L27.55 17.35 24.35 12.1 15.95 11.2 14.75 11.05 12.8 10.8 11.4 10.55 Q10.85 10.45 10.8 10.0 L10.75 9.2 10.75 7.2 11.0 3.3 16.05 3.65 18.8 3.95 19.5 4.05 19.3 3.75 Q18.95 3.3 19.25 2.85 L19.5 2.5 23.6 2.4 36.5 2.4 41.35 2.85 41.2 3.95 M44.4 6.85 L42.0 9.25 42.85 9.45 Q44.45 9.3 44.6 7.7 L44.4 6.85 M41.3 8.5 L43.65 6.15 Q41.6 5.6 41.25 7.7 41.2 8.1 41.3 8.5 M41.15 9.85 Q40.25 9.15 40.1 7.7 40.25 6.15 41.3 5.45 L40.2 5.55 37.4 10.25 40.5 9.9 41.15 9.85 M43.9 5.2 Q45.4 5.8 45.6 7.7 L45.1 9.3 48.1 8.9 48.65 4.7 43.9 5.2 M41.95 38.2 L43.25 38.85 41.9 36.6 37.6 29.35 29.4 25.7 26.75 24.55 25.0 29.65 28.0 31.2 41.95 38.2 M41.95 42.6 Q41.05 43.25 41.3 44.35 L43.8 42.35 Q42.85 41.85 41.95 42.6 M44.15 45.15 L44.4 44.85 44.65 43.4 42.15 45.4 Q43.1 45.85 44.15 45.15 M39.1 48.25 L41.25 49.2 43.65 46.5 42.95 46.6 Q41.5 46.45 40.65 45.3 L40.2 43.85 40.4 42.95 26.4 36.65 22.6 35.0 19.65 39.65 20.85 40.15 22.1 39.8 23.45 40.4 25.05 42.0 39.1 48.25 M34.8 9.0 L35.5 9.6 38.0 5.3 36.5 4.05 35.25 4.1 29.2 4.25 34.8 9.0 M25.45 6.7 L22.5 4.4 22.0 4.4 Q24.5 8.6 27.15 12.45 28.0 13.7 29.3 14.6 L31.5 16.2 33.45 12.95 25.45 6.7 M20.7 6.0 L19.85 6.0 Q20.7 7.2 20.4 8.55 20.15 9.6 19.2 10.1 L23.4 10.5 20.7 6.0 M29.35 18.0 L28.25 20.0 29.85 20.75 34.35 22.7 32.2 18.0 29.35 18.0 M19.5 7.75 Q19.35 6.15 17.75 6.0 L16.95 6.25 19.3 8.6 19.5 7.75 M16.0 7.75 Q16.15 9.35 17.75 9.5 L18.6 9.3 16.25 6.95 Q16.05 7.25 16.0 7.75 M12.25 9.2 L15.8 9.7 Q14.6 8.25 15.3 6.7 L15.75 5.9 12.7 5.45 12.25 9.2 M23.25 41.2 L22.1 40.8 21.3 41.05 23.8 43.05 Q24.05 42.3 23.25 41.2 M20.35 42.55 Q20.5 44.15 22.1 44.3 L22.95 44.1 20.6 41.75 20.35 42.55 M25.05 47.75 L21.05 46.6 25.7 52.6 27.0 54.4 32.65 56.5 34.75 57.05 37.9 53.1 36.05 52.1 25.05 47.75" fill="#441c0c" fill-rule="evenodd" stroke="none"/>
      <path d="M41.3 4.0 L41.2 3.95 41.35 2.85 36.5 2.4 30.15 1.6 23.6 2.4 19.5 2.5 19.25 2.85 Q18.95 3.3 19.3 3.75 L18.8 3.95 16.05 3.65 Q20.25 1.5 25.0 0.6 L26.25 0.4 30.15 0.1 Q38.05 0.3 44.35 3.65 L41.3 4.0 M10.75 7.2 L10.75 9.2 9.9 10.0 Q1.8 18.1 1.5 30.25 1.8 42.4 9.9 50.5 17.35 57.95 28.2 58.8 L29.3 60.4 Q17.05 59.8 8.85 51.55 4.25 46.95 2.05 41.15 -2.2 29.0 3.1 17.3 5.8 11.45 10.75 7.2 M12.8 10.8 L14.75 11.05 Q8.85 15.8 6.5 23.15 3.4 33.0 8.5 42.1 13.6 51.25 23.55 53.95 L25.6 55.0 26.25 56.0 Q18.9 54.95 13.3 50.15 5.4 43.3 4.45 32.95 3.25 19.85 12.8 10.8 M34.3 60.1 L35.6 58.4 Q43.05 57.15 48.8 52.25 57.85 44.45 58.45 32.4 59.05 19.5 50.1 10.1 L50.1 7.7 51.45 8.95 Q60.0 17.45 60.3 30.25 60.0 43.05 51.45 51.55 44.35 58.7 34.3 60.1 M38.35 54.95 L40.25 52.7 Q51.55 47.35 54.05 35.2 56.15 25.1 50.65 16.55 48.6 13.3 45.55 11.05 L47.5 10.8 Q50.95 13.85 53.05 17.95 58.75 29.0 54.0 40.3 49.45 51.2 38.35 54.95" fill="#4f2713" fill-rule="evenodd" stroke="none"/>
      <path d="M41.3 4.0 L41.15 4.0 41.2 3.95 41.3 4.0 M36.5 2.4 L23.6 2.4 30.15 1.6 36.5 2.4 M19.3 3.75 L19.5 4.05 18.8 3.95 19.3 3.75 M10.75 9.2 L10.8 10.0 Q1.1 19.6 2.4 33.1 3.35 42.95 10.25 49.95 17.5 57.2 27.65 57.95 L28.2 58.8 Q17.35 57.95 9.9 50.5 1.8 42.4 1.5 30.25 1.8 18.1 9.9 10.0 L10.75 9.2 M35.6 58.4 L36.45 57.35 Q44.1 55.55 49.75 49.9 57.65 42.0 57.95 30.15 57.65 18.3 49.75 10.45 L50.1 10.1 Q59.05 19.5 58.45 32.4 57.85 44.45 48.8 52.25 43.05 57.15 35.6 58.4" fill="#a89678" fill-rule="evenodd" stroke="none"/>
      <path d="M45.1 3.6 L44.35 3.65 Q38.05 0.3 30.15 0.1 L26.25 0.4 30.75 0.0 Q38.75 0.2 45.1 3.6" fill="#724a30" fill-rule="evenodd" stroke="none"/>
      <path d="M41.3 8.5 Q41.2 8.1 41.25 7.7 41.6 5.6 43.65 6.15 L41.3 8.5 M44.4 6.85 L44.6 7.7 Q44.45 9.3 42.85 9.45 L42.0 9.25 44.4 6.85 M44.15 45.15 Q43.1 45.85 42.15 45.4 L44.65 43.4 44.4 44.85 44.15 45.15 M41.95 42.6 Q42.85 41.85 43.8 42.35 L41.3 44.35 Q41.05 43.25 41.95 42.6 M16.0 7.75 Q16.05 7.25 16.25 6.95 L18.6 9.3 17.75 9.5 Q16.15 9.35 16.0 7.75 M19.5 7.75 L19.3 8.6 16.95 6.25 17.75 6.0 Q19.35 6.15 19.5 7.75 M20.35 42.55 L20.6 41.75 22.95 44.1 22.1 44.3 Q20.5 44.15 20.35 42.55 M23.25 41.2 Q24.05 42.3 23.8 43.05 L21.3 41.05 22.1 40.8 23.25 41.2" fill="#d7cdbb" fill-rule="evenodd" stroke="none"/>
      <path d="M15.95 11.2 L24.35 12.1 27.55 17.35 27.0 19.2 Q23.8 32.45 15.05 42.65 L15.35 43.2 Q21.25 48.5 25.6 55.0 L23.55 53.95 22.3 52.95 Q17.25 51.25 13.4 47.45 6.8 40.95 6.55 30.8 6.8 20.6 13.4 13.55 14.6 12.25 15.95 11.2 M40.45 52.5 L48.7 43.9 45.4 38.9 Q38.35 28.65 33.15 17.35 L36.4 11.95 44.6 11.15 Q51.75 16.65 53.55 25.4 55.55 35.3 50.0 43.55 47.2 47.8 42.95 50.65 L40.45 52.5 M46.05 37.8 L48.6 41.5 Q50.4 39.45 51.3 36.9 52.6 33.25 52.4 29.4 51.85 18.25 43.0 11.75 L41.65 12.05 Q38.8 11.65 36.35 13.2 33.8 16.5 35.55 20.15 40.0 29.5 46.05 37.8 M14.45 42.25 Q18.5 37.2 21.35 31.55 L23.75 25.95 Q25.15 22.1 25.9 17.95 26.3 15.65 24.6 14.0 22.2 12.4 19.25 12.3 15.05 14.65 12.0 18.35 10.25 20.5 9.3 23.5 6.2 33.5 11.7 42.45 14.8 47.45 19.85 49.4 L18.65 48.0 Q17.45 46.65 15.95 45.75 13.95 44.4 14.45 42.25" fill="#a99b81" fill-rule="evenodd" stroke="none"/>
      <path d="M41.15 9.85 L40.5 9.9 37.4 10.25 40.2 5.55 41.3 5.45 Q40.25 6.15 40.1 7.7 40.25 9.15 41.15 9.85 M43.9 5.2 L48.65 4.7 48.1 8.9 45.1 9.3 45.6 7.7 Q45.4 5.8 43.9 5.2 M20.7 6.0 L23.4 10.5 19.2 10.1 Q20.15 9.6 20.4 8.55 20.7 7.2 19.85 6.0 L20.7 6.0 M12.25 9.2 L12.7 5.45 15.75 5.9 15.3 6.7 Q14.6 8.25 15.8 9.7 L12.25 9.2" fill="#b5a581" fill-rule="evenodd" stroke="none"/>
      <path d="M14.75 11.05 L15.95 11.2 Q14.6 12.25 13.4 13.55 6.8 20.6 6.55 30.8 6.8 40.95 13.4 47.45 17.25 51.25 22.3 52.95 L23.55 53.95 Q13.6 51.25 8.5 42.1 3.4 33.0 6.5 23.15 8.85 15.8 14.75 11.05 M40.25 52.7 L40.45 52.5 42.95 50.65 Q47.2 47.8 50.0 43.55 55.55 35.3 53.55 25.4 51.75 16.65 44.6 11.15 L45.55 11.05 Q48.6 13.3 50.65 16.55 56.15 25.1 54.05 35.2 51.55 47.35 40.25 52.7" fill="#887c64" fill-rule="evenodd" stroke="none"/>
      <path d="M10.8 10.0 Q10.85 10.45 11.4 10.55 L12.8 10.8 Q3.25 19.85 4.45 32.95 5.4 43.3 13.3 50.15 18.9 54.95 26.25 56.0 L27.65 57.95 Q17.5 57.2 10.25 49.95 3.35 42.95 2.4 33.1 1.1 19.6 10.8 10.0 M36.45 57.35 L38.35 54.95 Q49.45 51.2 54.0 40.3 58.75 29.0 53.05 17.95 50.95 13.85 47.5 10.8 L49.75 10.45 Q57.65 18.3 57.95 30.15 57.65 42.0 49.75 49.9 44.1 55.55 36.45 57.35" fill="#f0e6ca" fill-rule="evenodd" stroke="none"/>
      <path d="M36.35 13.2 Q38.8 11.65 41.65 12.05 L43.0 11.75 Q51.85 18.25 52.4 29.4 52.6 33.25 51.3 36.9 50.4 39.45 48.6 41.5 L46.05 37.8 Q50.35 29.45 46.7 20.6 43.8 13.75 36.35 13.2 M24.6 14.0 Q16.75 16.25 12.2 23.4 8.65 29.55 11.25 36.2 12.4 39.5 14.45 42.25 13.95 44.4 15.95 45.75 17.45 46.65 18.65 48.0 L19.85 49.4 Q14.8 47.45 11.7 42.45 6.2 33.5 9.3 23.5 10.25 20.5 12.0 18.35 15.05 14.65 19.25 12.3 22.2 12.4 24.6 14.0" fill="#c4b696" fill-rule="evenodd" stroke="none"/>
      <path d="M46.05 37.8 Q40.0 29.5 35.55 20.15 33.8 16.5 36.35 13.2 43.8 13.75 46.7 20.6 50.35 29.45 46.05 37.8 M24.6 14.0 Q26.3 15.65 25.9 17.95 25.15 22.1 23.75 25.95 L21.35 31.55 Q18.5 37.2 14.45 42.25 12.4 39.5 11.25 36.2 8.65 29.55 12.2 23.4 16.75 16.25 24.6 14.0" fill="#d8ceba" fill-rule="evenodd" stroke="none"/>
      <path d="M41.9 36.6 L43.25 38.85 41.95 38.2 41.9 36.6 M28.0 31.2 L25.0 29.65 26.75 24.55 29.4 25.7 28.0 31.2 M40.65 45.3 Q41.5 46.45 42.95 46.6 L43.65 46.5 41.25 49.2 39.1 48.25 40.65 45.3 M25.05 42.0 L23.45 40.4 22.1 39.8 20.85 40.15 19.65 39.65 22.6 35.0 26.4 36.65 25.05 42.0 M35.25 4.1 L36.5 4.05 38.0 5.3 35.5 9.6 34.8 9.0 35.25 4.1 M29.3 14.6 Q28.0 13.7 27.15 12.45 24.5 8.6 22.0 4.4 L22.5 4.4 25.45 6.7 26.55 8.3 Q28.7 11.05 29.3 14.6 M29.85 20.75 L28.25 20.0 29.35 18.0 29.85 20.75 M25.7 52.6 L21.05 46.6 25.05 47.75 25.7 52.6 M36.05 52.1 L37.9 53.1 34.75 57.05 32.65 56.5 36.05 52.1" fill="#af9f81" fill-rule="evenodd" stroke="none"/>
      <path d="M41.9 36.6 L41.95 38.2 28.0 31.2 29.4 25.7 37.6 29.35 41.9 36.6 M40.65 45.3 L39.1 48.25 25.05 42.0 26.4 36.65 40.4 42.95 40.2 43.85 40.65 45.3 M35.25 4.1 L34.8 9.0 29.2 4.25 35.25 4.1 M29.3 14.6 Q28.7 11.05 26.55 8.3 L25.45 6.7 33.45 12.95 31.5 16.2 29.3 14.6 M29.85 20.75 L29.35 18.0 32.2 18.0 34.35 22.7 29.85 20.75 M25.7 52.6 L25.05 47.75 36.05 52.1 32.65 56.5 27.0 54.4 25.7 52.6" fill="#c4b898" fill-rule="evenodd" stroke="none"/>
    </g>
    <g id="shape2" transform="matrix(1.0, 0.0, 0.0, 1.0, 0.0, 0.0)">
      <path d="M95.0 23.25 L94.35 3.15 63.05 3.0 61.75 23.5 95.0 23.25 M95.8 0.15 L96.85 0.6 98.0 23.2 99.9 23.35 100.75 24.05 101.4 32.2 100.15 32.75 99.8 32.9 97.65 32.85 97.8 110.25 130.65 126.65 131.45 127.7 142.45 180.2 142.9 234.65 143.2 236.5 143.5 238.9 Q144.25 247.35 143.35 255.9 L127.45 262.3 114.65 255.8 114.1 262.3 112.95 262.95 73.95 262.5 38.5 262.95 37.25 262.2 36.45 256.7 30.35 262.85 4.95 254.2 Q4.5 254.15 4.15 253.8 L0.05 216.75 0.0 216.3 5.5 175.3 19.5 126.1 20.3 125.15 54.5 108.8 58.25 32.6 53.8 31.7 54.85 24.15 58.75 23.55 60.7 0.5 61.65 0.0 95.8 0.15 M98.45 29.85 L98.0 26.2 57.0 26.55 56.7 29.6 98.45 29.85 M90.75 52.2 L91.55 49.15 91.3 48.75 Q87.25 47.55 83.8 49.9 82.35 50.9 82.4 52.55 L81.95 53.55 80.9 53.3 80.5 52.75 Q80.15 51.45 80.7 50.55 83.9 45.55 90.25 46.35 91.15 46.65 91.9 47.25 94.7 49.4 92.35 52.85 L91.0 52.8 90.75 52.2 M92.1 35.8 Q93.65 36.75 92.45 38.15 L78.8 49.05 Q78.1 49.2 77.7 48.65 77.15 47.95 77.7 47.4 84.3 40.95 91.6 35.5 L92.1 35.8 M81.2 65.95 L82.05 62.3 82.7 62.35 Q86.6 68.45 93.8 69.75 L93.55 71.15 Q88.35 70.8 84.4 67.55 83.75 67.05 83.2 65.85 80.2 69.55 75.55 68.95 72.7 68.75 70.35 66.4 67.5 69.7 63.75 69.75 L61.2 69.7 60.55 68.8 61.2 67.85 Q65.75 68.35 68.9 64.9 70.25 63.45 70.6 61.6 L71.2 61.35 72.0 61.75 71.6 65.1 Q74.05 67.65 76.65 67.45 79.25 67.25 81.2 65.95 M80.85 75.65 L92.65 71.7 93.3 72.55 Q93.3 73.1 92.8 73.5 92.45 73.75 92.4 73.5 L81.55 77.5 80.95 77.4 80.25 77.95 80.15 78.0 78.8 77.5 79.0 76.4 79.45 76.15 79.55 76.1 80.4 76.25 80.85 75.65 M94.15 92.8 L93.85 93.25 93.1 93.4 93.3 92.9 Q93.55 92.0 94.15 92.8 M59.15 75.5 L57.55 108.3 74.75 114.7 94.25 108.8 88.4 110.8 94.55 109.05 94.65 32.85 61.25 32.6 60.95 38.7 61.05 38.6 Q61.3 38.4 61.6 38.35 L63.1 38.4 Q68.6 42.65 73.25 47.45 L72.4 49.0 60.85 40.2 59.25 73.2 59.15 75.5 M61.5 71.05 L71.35 76.4 71.9 77.05 Q72.1 77.95 71.25 78.25 L70.35 78.1 61.45 73.2 60.55 72.35 60.9 71.3 61.5 71.05 M69.8 53.1 L70.45 51.95 Q70.2 50.3 68.75 49.15 66.45 47.4 64.0 48.0 L63.4 50.2 63.05 50.6 62.1 50.7 61.55 50.15 Q61.2 46.75 64.55 45.65 69.2 46.15 71.75 49.95 73.75 52.9 70.75 54.5 L69.8 53.95 69.8 53.1 M69.9 121.9 L69.65 117.7 65.4 114.9 65.65 126.4 69.9 121.9 M80.15 116.65 L79.6 123.0 84.3 127.05 85.65 114.3 80.15 116.65 M77.05 117.5 L72.7 118.15 72.9 121.2 76.65 121.9 77.05 117.5 M53.95 128.75 L45.35 136.15 69.85 166.05 71.1 163.65 55.55 111.65 38.65 119.7 53.85 128.1 53.95 128.75 M43.0 136.3 L43.35 135.3 51.2 128.7 36.45 120.75 22.2 127.55 8.4 175.9 2.95 216.5 5.55 244.25 Q9.95 226.8 12.5 226.9 L15.8 226.55 Q20.2 224.15 24.5 225.15 29.85 226.6 34.6 230.4 L29.0 154.3 23.0 142.75 23.9 142.05 30.95 153.95 36.8 232.25 39.95 235.1 38.2 244.4 39.9 246.7 39.8 259.95 60.5 259.7 61.6 185.55 69.45 167.4 68.5 167.4 43.0 136.3 M62.4 113.3 L58.75 111.95 62.6 124.9 62.4 113.3 M64.6 131.55 L69.45 147.75 74.75 150.9 76.5 149.8 84.5 131.2 77.3 125.05 72.0 124.1 64.6 131.55 M124.55 134.5 L125.4 135.2 120.45 146.25 115.15 233.95 118.4 230.85 121.6 227.7 121.95 227.4 122.35 227.25 Q132.25 225.6 139.9 231.85 L139.45 180.7 128.65 129.05 107.45 118.45 94.65 130.35 101.35 134.1 101.45 134.65 101.25 135.15 63.6 185.7 62.5 259.65 111.5 259.95 111.7 254.2 110.3 253.35 109.95 253.1 109.7 252.75 109.55 252.4 Q109.55 247.5 112.6 243.6 L118.45 145.95 121.0 140.55 123.6 135.15 124.0 134.75 124.55 134.5 M79.05 151.4 L79.0 151.6 73.9 163.65 Q73.6 164.25 72.95 164.45 L67.1 177.7 98.95 134.9 92.05 131.0 92.0 130.4 105.55 117.5 95.7 112.55 79.15 151.25 79.05 151.4 M72.75 158.6 L74.6 154.3 70.75 152.0 72.75 158.6 M92.35 112.85 L88.3 114.0 87.55 124.1 92.35 112.85 M125.7 242.6 L125.85 242.1 126.25 241.65 126.7 241.25 128.15 241.85 131.05 252.0 130.0 252.8 129.05 252.65 127.95 251.2 122.1 250.8 115.1 245.3 112.8 247.7 112.55 251.2 127.6 259.4 140.95 253.9 141.1 237.05 132.0 228.65 123.35 230.1 116.3 237.05 116.3 242.5 123.15 247.9 127.05 248.1 125.75 243.1 125.7 242.6 M22.75 246.95 L31.8 247.05 36.9 236.3 24.6 225.9 13.8 229.0 Q8.3 240.05 6.9 252.0 L29.55 259.65 36.65 252.15 36.95 247.45 35.95 246.4 33.5 249.75 22.3 249.95 20.85 252.05 19.65 251.7 21.1 240.35 22.8 240.3 23.3 240.95 22.75 246.95" fill="#1a1a1a" fill-rule="evenodd" stroke="none"/>
      <path d="M85.95 10.6 L85.95 16.75 80.55 16.75 80.55 22.15 74.4 22.15 74.4 16.75 69.0 16.75 69.0 10.6 74.4 10.6 74.4 5.2 80.55 5.2 80.55 10.6 85.95 10.6" fill="#993300" fill-rule="evenodd" stroke="none"/>
      <path d="M98.45 29.85 L56.7 29.6 57.0 26.55 98.0 26.2 98.45 29.85 M43.0 136.3 L68.5 167.4 69.45 167.4 61.6 185.55 60.5 259.7 39.8 259.95 39.9 246.7 38.2 244.4 39.95 235.1 36.8 232.25 30.95 153.95 23.9 142.05 23.0 142.75 29.0 154.3 34.6 230.4 Q29.85 226.6 24.5 225.15 20.2 224.15 15.8 226.55 L12.5 226.9 Q9.95 226.8 5.55 244.25 L2.95 216.5 8.4 175.9 22.2 127.55 36.45 120.75 51.2 128.7 43.35 135.3 43.0 136.3 M53.95 128.75 L53.85 128.1 38.65 119.7 55.55 111.65 71.1 163.65 69.85 166.05 45.35 136.15 53.95 128.75 M72.75 158.6 L70.75 152.0 74.6 154.3 72.75 158.6 M79.05 151.4 L79.15 151.25 95.7 112.55 105.55 117.5 92.0 130.4 92.05 131.0 98.95 134.9 67.1 177.7 72.95 164.45 Q73.6 164.25 73.9 163.65 L79.0 151.6 79.05 151.4 M124.55 134.5 L124.0 134.75 123.6 135.15 121.0 140.55 118.45 145.95 112.6 243.6 Q109.55 247.5 109.55 252.4 L109.7 252.75 109.95 253.1 110.3 253.35 111.7 254.2 111.5 259.95 62.5 259.65 63.6 185.7 101.25 135.15 101.45 134.65 101.35 134.1 94.65 130.35 107.45 118.45 128.65 129.05 139.45 180.7 139.9 231.85 Q132.25 225.6 122.35 227.25 L121.95 227.4 121.6 227.7 118.4 230.85 115.15 233.95 120.45 146.25 125.4 135.2 124.55 134.5" fill="#3a3d6a" fill-rule="evenodd" stroke="none"/>
      <path d="M85.95 10.6 L80.55 10.6 80.55 5.2 74.4 5.2 74.4 10.6 69.0 10.6 69.0 16.75 74.4 16.75 74.4 22.15 80.55 22.15 80.55 16.75 85.95 16.75 85.95 10.6 M95.0 23.25 L61.75 23.5 63.05 3.0 94.35 3.15 95.0 23.25 M88.15 84.0 L88.05 80.05 87.15 83.85 Q77.2 80.75 67.15 83.0 L66.9 80.4 66.2 80.15 66.15 83.3 64.45 83.75 64.3 84.65 66.2 84.3 66.6 87.45 67.2 84.05 Q77.3 82.75 87.1 84.9 L87.9 87.3 88.1 85.05 90.5 85.35 90.75 84.5 88.15 84.0 M92.4 73.5 Q92.2 78.1 92.45 81.3 92.7 84.45 92.2 91.75 86.35 90.25 82.0 87.75 77.65 85.2 73.05 87.35 68.4 89.5 62.2 93.9 L62.4 88.8 Q62.7 80.95 61.45 73.2 L70.35 78.1 Q72.2 79.8 74.7 79.75 77.7 79.55 80.15 78.0 L80.25 77.95 81.55 77.5 92.4 73.5" fill="#ffffff" fill-rule="evenodd" stroke="none"/>
      <path d="M84.35 52.5 L84.1 51.05 84.5 50.7 84.55 50.7 Q86.3 49.3 87.5 50.95 L87.8 51.9 86.8 53.3 86.5 53.7 85.25 53.8 84.35 52.5 M93.3 72.55 L94.15 92.8 Q93.55 92.0 93.3 92.9 L93.1 93.4 92.4 93.7 80.5 89.1 Q74.8 86.75 70.2 90.75 65.95 94.5 60.55 96.2 61.45 87.45 61.15 78.65 61.1 77.3 60.45 76.25 L59.15 75.5 59.25 73.2 Q59.3 72.3 59.9 71.7 60.55 71.05 61.5 71.05 L60.9 71.3 60.55 72.35 61.45 73.2 Q62.7 80.95 62.4 88.8 L62.2 93.9 Q68.4 89.5 73.05 87.35 77.65 85.2 82.0 87.75 86.35 90.25 92.2 91.75 92.7 84.45 92.45 81.3 92.2 78.1 92.4 73.5 92.45 73.75 92.8 73.5 93.3 73.1 93.3 72.55 M71.35 76.4 Q73.1 78.1 75.35 77.7 77.6 77.2 79.45 76.15 L79.0 76.4 78.8 77.5 80.15 78.0 Q77.7 79.55 74.7 79.75 72.2 79.8 70.35 78.1 L71.25 78.25 Q72.1 77.95 71.9 77.05 L71.35 76.4 M79.55 76.1 L80.85 75.65 80.4 76.25 79.55 76.1 M88.15 84.0 L90.75 84.5 90.5 85.35 88.1 85.05 87.9 87.3 87.1 84.9 Q77.3 82.75 67.2 84.05 L66.6 87.45 66.2 84.3 64.3 84.65 64.45 83.75 66.15 83.3 66.2 80.15 66.9 80.4 67.15 83.0 Q77.2 80.75 87.15 83.85 L88.05 80.05 88.15 84.0 M81.55 77.5 L80.25 77.95 80.95 77.4 81.55 77.5 M66.8 52.45 L65.9 51.95 65.8 51.05 67.05 49.65 Q68.85 49.75 68.85 51.6 L68.75 52.35 68.45 52.5 66.8 52.45" fill="#000000" fill-rule="evenodd" stroke="none"/>
      <path d="M90.75 52.2 L91.0 52.8 92.35 52.85 Q94.7 49.4 91.9 47.25 91.15 46.65 90.25 46.35 83.9 45.55 80.7 50.55 80.15 51.45 80.5 52.75 L80.9 53.3 81.95 53.55 82.4 52.55 84.35 52.5 85.25 53.8 86.5 53.7 86.8 53.3 87.65 52.35 90.75 52.2 M92.1 35.8 L91.6 35.5 Q84.3 40.95 77.7 47.4 77.15 47.95 77.7 48.65 78.1 49.2 78.8 49.05 L92.45 38.15 Q93.65 36.75 92.1 35.8 M81.2 65.95 Q79.25 67.25 76.65 67.45 74.05 67.65 71.6 65.1 L72.0 61.75 71.2 61.35 70.6 61.6 Q70.25 63.45 68.9 64.9 65.75 68.35 61.2 67.85 L60.55 68.8 61.2 69.7 63.75 69.75 Q67.5 69.7 70.35 66.4 72.7 68.75 75.55 68.95 80.2 69.55 83.2 65.85 83.75 67.05 84.4 67.55 88.35 70.8 93.55 71.15 L93.8 69.75 Q86.6 68.45 82.7 62.35 L82.05 62.3 81.2 65.95 M93.3 72.55 L92.65 71.7 80.85 75.65 79.55 76.1 79.45 76.15 Q77.6 77.2 75.35 77.7 73.1 78.1 71.35 76.4 L61.5 71.05 Q60.55 71.05 59.9 71.7 59.3 72.3 59.25 73.2 L60.85 40.2 72.4 49.0 73.25 47.45 Q68.6 42.65 63.1 38.4 L61.6 38.35 Q61.3 38.4 61.05 38.6 L60.95 38.7 61.25 32.6 94.65 32.85 94.55 109.05 88.4 110.8 94.25 108.8 74.75 114.7 57.55 108.3 59.15 75.5 60.45 76.25 Q61.1 77.3 61.15 78.65 61.45 87.45 60.55 96.2 65.95 94.5 70.2 90.75 74.8 86.75 80.5 89.1 L92.4 93.7 93.1 93.4 93.85 93.25 94.15 92.8 93.3 72.55 M69.8 53.1 L69.8 53.95 70.75 54.5 Q73.75 52.9 71.75 49.95 69.2 46.15 64.55 45.65 61.2 46.75 61.55 50.15 L62.1 50.7 63.05 50.6 63.4 50.2 65.0 50.95 65.1 51.85 Q65.9 52.5 66.8 52.45 L68.45 52.5 69.8 53.1 M125.7 242.6 L125.75 243.1 127.05 248.1 123.15 247.9 116.3 242.5 116.3 237.05 123.35 230.1 132.0 228.65 141.1 237.05 140.95 253.9 127.6 259.4 112.55 251.2 112.8 247.7 115.1 245.3 122.1 250.8 127.95 251.2 129.05 252.65 130.0 252.8 131.05 252.0 128.15 241.85 126.7 241.25 126.25 241.65 125.85 242.1 125.7 242.6 M22.75 246.95 L23.3 240.95 22.8 240.3 21.1 240.35 19.65 251.7 20.85 252.05 22.3 249.95 33.5 249.75 35.95 246.4 36.95 247.45 36.65 252.15 29.55 259.65 6.9 252.0 Q8.3 240.05 13.8 229.0 L24.6 225.9 36.9 236.3 31.8 247.05 22.75 246.95" fill="#cacfe6" fill-rule="evenodd" stroke="none"/>
      <path d="M82.4 52.55 Q82.35 50.9 83.8 49.9 87.25 47.55 91.3 48.75 L91.55 49.15 90.75 52.2 87.65 52.35 86.8 53.3 87.8 51.9 87.5 50.95 Q86.3 49.3 84.55 50.7 L84.5 50.65 84.5 50.7 84.1 51.05 84.35 52.5 82.4 52.55 M63.4 50.2 L64.0 48.0 Q66.45 47.4 68.75 49.15 70.2 50.3 70.45 51.95 L69.8 53.1 68.45 52.5 68.75 52.35 68.85 51.6 Q68.85 49.75 67.05 49.65 L65.8 51.05 65.9 51.95 66.8 52.45 Q65.9 52.5 65.1 51.85 L65.0 50.95 63.4 50.2" fill="#996699" fill-rule="evenodd" stroke="none"/>
      <path d="M77.05 117.5 L76.65 121.9 72.9 121.2 72.7 118.15 77.05 117.5 M80.15 116.65 L85.65 114.3 84.3 127.05 79.6 123.0 80.15 116.65 M69.9 121.9 L65.65 126.4 65.4 114.9 69.65 117.7 69.9 121.9" fill="#990000" fill-rule="evenodd" stroke="none"/>
      <path d="M64.6 131.55 L72.0 124.1 77.3 125.05 84.5 131.2 76.5 149.8 74.75 150.9 69.45 147.75 64.6 131.55 M62.4 113.3 L62.6 124.9 58.75 111.95 62.4 113.3 M92.35 112.85 L87.55 124.1 88.3 114.0 92.35 112.85" fill="#d7dcec" fill-rule="evenodd" stroke="none"/>
    </g>
    <g id="shape3" transform="matrix(1.0, 0.0, 0.0, 1.0, -0.05, 0.0)">
      <path d="M40.95 2.45 L41.9 2.8 Q42.4 1.4 44.05 1.25 46.25 1.45 46.45 3.8 L46.45 6.35 48.8 8.45 Q56.9 16.5 57.2 28.65 56.85 40.75 48.8 48.85 42.05 55.65 32.45 56.95 L32.05 57.95 Q31.35 59.0 29.8 59.15 28.3 59.0 27.6 58.05 L27.2 57.2 Q16.0 56.45 8.4 48.85 3.45 43.9 1.4 37.45 -0.45 31.7 0.25 25.75 1.75 13.25 11.8 5.55 L12.4 3.05 Q13.25 0.65 15.6 1.55 16.3 1.85 16.4 2.8 L17.0 2.55 Q21.85 0.45 27.2 0.1 33.95 0.0 40.1 2.5 L40.95 2.45 M40.75 9.5 L41.65 9.15 41.65 3.8 40.95 3.4 Q39.9 3.3 39.45 4.1 L39.5 20.75 40.05 21.3 41.6 21.05 41.65 14.2 41.0 13.95 Q39.6 13.25 39.65 11.65 39.65 10.3 40.75 9.5 M43.6 13.8 L42.65 14.2 Q42.3 22.35 43.9 21.75 L44.95 21.3 44.95 2.65 Q44.35 2.05 43.6 2.4 42.9 2.55 42.75 3.3 L42.65 9.15 43.55 9.5 Q44.2 9.85 44.5 10.65 L44.55 12.55 Q44.25 13.35 43.6 13.8 M42.85 10.1 L41.65 10.1 43.85 12.05 42.85 10.1 M40.75 10.9 L40.5 11.65 Q40.7 13.2 42.15 13.3 L42.65 13.2 40.75 10.9 M33.35 54.6 L33.1 55.4 Q42.4 53.9 48.75 46.85 56.75 37.95 55.55 25.9 54.45 15.35 46.45 8.2 L46.45 9.2 46.45 11.55 Q53.05 18.45 53.3 28.6 53.05 39.1 46.05 46.1 40.85 51.3 33.75 52.75 L33.35 54.6 M34.15 50.65 L34.05 51.35 Q40.4 49.85 45.1 45.15 51.7 38.55 51.95 28.6 51.75 19.75 46.45 13.6 L46.45 14.6 Q46.75 17.8 46.0 20.7 45.25 23.6 42.2 21.75 L41.45 22.0 Q39.2 22.8 38.3 20.55 L33.3 21.2 33.3 23.05 33.95 23.4 Q35.1 23.95 34.9 25.15 L34.35 26.45 32.4 27.25 32.4 29.2 33.85 30.25 33.95 31.8 32.3 32.9 Q34.1 41.75 34.15 50.65 M38.25 4.0 L38.65 3.4 Q29.1 -0.05 19.35 3.1 L19.75 3.6 20.0 4.15 Q29.1 3.05 38.25 4.0 M25.35 51.1 L25.1 48.35 Q25.25 40.65 27.35 32.9 26.65 32.65 26.2 32.25 24.7 30.8 26.4 29.55 L26.9 29.2 26.9 27.25 Q25.3 27.3 24.75 25.95 L24.5 24.95 Q24.55 24.05 25.5 23.4 L26.0 23.05 26.0 21.35 19.95 20.65 Q19.2 22.95 16.85 21.95 L16.1 21.7 Q15.1 23.2 13.3 22.4 12.1 22.0 12.05 20.75 L11.8 13.3 11.8 12.35 Q5.45 18.9 5.2 28.6 5.45 38.55 12.05 45.15 17.6 50.7 25.5 51.75 L25.35 51.1 M16.8 15.6 L16.5 20.75 17.35 21.35 Q18.95 21.55 19.0 19.95 19.1 12.15 18.85 4.35 L18.65 3.7 17.7 3.35 16.6 3.85 16.95 9.95 Q17.9 10.35 18.3 11.4 L18.35 13.15 16.85 14.9 16.8 15.6 M38.2 19.4 L38.2 5.0 Q29.6 4.0 20.9 5.1 L20.0 5.2 20.1 19.4 Q29.1 21.65 38.2 19.4 M33.5 24.4 Q33.3 23.9 32.85 23.9 L27.1 23.4 Q24.95 24.0 26.25 25.85 L26.9 26.45 32.3 26.4 Q33.3 26.4 33.55 25.55 33.7 24.95 33.5 24.4 M27.15 21.35 L27.15 22.95 32.0 22.95 32.0 21.35 27.15 21.35 M15.1 9.8 L15.65 9.7 15.35 3.25 14.95 2.65 14.2 2.25 Q12.95 2.6 12.95 4.0 L13.1 20.6 Q13.1 21.5 14.2 21.7 15.6 21.55 15.55 20.15 L15.3 15.05 Q13.7 14.6 13.35 13.25 L13.3 11.85 Q13.6 10.25 15.1 9.8 M26.35 54.95 L25.85 53.15 Q17.2 52.25 11.1 46.1 3.0 37.75 4.15 26.1 5.05 16.85 11.8 10.5 L11.8 8.1 11.8 7.3 Q2.9 14.65 1.7 25.95 0.55 37.1 7.7 45.9 15.0 54.85 26.6 55.7 L26.35 54.95 M17.25 11.6 L16.6 10.8 15.15 10.8 17.3 13.05 17.25 11.6 M14.45 11.5 L14.2 12.25 Q14.3 13.7 15.85 13.9 L16.6 13.7 14.45 11.5 M27.3 30.4 L26.75 31.15 27.3 32.2 32.6 31.95 32.8 30.9 32.4 30.15 31.05 30.2 27.3 30.4 M31.25 29.1 L31.25 27.25 28.2 27.25 28.3 29.1 31.25 29.1 M32.6 42.15 Q32.15 37.5 31.2 32.9 L28.45 32.9 27.2 39.55 Q26.25 45.2 26.95 51.0 L27.15 52.3 27.15 52.25 Q27.35 49.85 29.75 49.65 31.9 49.85 32.3 51.85 33.05 47.05 32.6 42.15 M30.7 58.1 L32.0 53.55 Q31.35 54.95 29.75 54.85 27.85 54.65 27.35 53.05 L28.65 57.7 30.7 58.1 M29.0 53.7 L29.75 53.95 Q31.9 53.5 31.2 51.5 L29.0 53.7 M29.75 50.6 Q28.25 50.75 28.1 52.25 L28.35 53.05 30.55 50.85 29.75 50.6" fill="#212753" fill-rule="evenodd" stroke="none"/>
      <path d="M40.95 2.45 L40.1 2.5 Q33.95 0.0 27.2 0.1 L29.2 0.0 Q35.6 0.15 40.95 2.45 M46.45 9.2 L46.45 8.2 Q54.45 15.35 55.55 25.9 56.75 37.95 48.75 46.85 42.4 53.9 33.1 55.4 L33.35 54.6 Q44.1 52.5 50.45 43.3 55.05 36.65 54.95 28.6 54.75 17.0 46.45 9.2 M46.45 14.6 L46.45 13.6 Q51.75 19.75 51.95 28.6 51.7 38.55 45.1 45.15 40.4 49.85 34.05 51.35 L34.15 50.65 Q40.2 49.15 44.65 44.7 51.05 38.3 51.3 28.65 51.15 20.45 46.45 14.6 M19.75 3.6 L19.35 3.1 Q29.1 -0.05 38.65 3.4 L38.25 4.0 Q33.8 2.25 28.5 2.1 23.8 2.25 19.75 3.6 M25.35 51.1 L25.5 51.75 Q17.6 50.7 12.05 45.15 5.45 38.55 5.2 28.6 5.45 18.9 11.8 12.35 L11.8 13.3 Q6.1 19.55 5.85 28.65 6.1 38.3 12.5 44.7 17.85 50.0 25.35 51.1 M26.35 54.95 L26.6 55.7 Q15.0 54.85 7.7 45.9 0.55 37.1 1.7 25.95 2.9 14.65 11.8 7.3 L11.8 8.1 Q3.55 15.15 2.3 25.9 1.25 35.3 6.7 43.25 13.85 53.8 26.35 54.95" fill="#514f6f" fill-rule="evenodd" stroke="none"/>
      <path d="M41.0 13.95 L41.65 14.2 41.6 21.05 40.05 21.3 39.5 20.75 39.45 4.1 Q39.9 3.3 40.95 3.4 L41.65 3.8 41.65 9.15 40.75 9.5 40.4 4.85 Q39.7 5.45 39.65 6.45 39.35 12.5 39.85 18.55 39.95 19.55 40.65 19.75 41.55 19.1 41.5 17.7 L41.0 13.95 M43.55 9.5 L42.65 9.15 42.75 3.3 Q42.9 2.55 43.6 2.4 44.35 2.05 44.95 2.65 L44.95 21.3 43.9 21.75 Q42.3 22.35 42.65 14.2 L43.6 13.8 44.0 20.3 44.55 12.55 44.5 10.65 44.25 4.4 43.55 4.3 43.55 9.5 M36.15 9.6 Q34.9 7.5 32.4 7.85 29.75 8.15 27.1 7.8 24.95 7.25 23.1 8.3 20.7 10.35 22.5 12.35 24.25 14.4 26.55 15.0 L31.75 15.4 Q34.7 15.25 36.3 13.5 37.3 11.55 36.15 9.6 M27.5 24.1 L27.45 24.1 Q26.9 24.25 26.9 24.5 26.85 24.85 27.9 25.35 L30.85 25.25 Q31.6 24.85 31.6 24.5 31.5 24.1 30.4 23.85 L27.5 24.1 M27.15 21.35 L32.0 21.35 32.0 22.95 27.15 22.95 27.15 21.35 M33.5 24.4 Q33.7 24.95 33.55 25.55 33.3 26.4 32.3 26.4 L26.9 26.45 26.25 25.85 Q24.95 24.0 27.1 23.4 L32.85 23.9 Q33.3 23.9 33.5 24.4 M38.2 19.4 Q29.1 21.65 20.1 19.4 L20.0 5.2 20.9 5.1 Q29.6 4.0 38.2 5.0 L38.2 19.4 M16.95 9.95 L16.6 3.85 17.7 3.35 18.65 3.7 18.85 4.35 Q19.1 12.15 19.0 19.95 18.95 21.55 17.35 21.35 L16.5 20.75 16.8 15.6 17.85 19.6 18.35 13.15 18.3 11.4 17.45 5.4 16.95 9.95 M15.3 15.05 L15.55 20.15 Q15.6 21.55 14.2 21.7 13.1 21.5 13.1 20.6 L12.95 4.0 Q12.95 2.6 14.2 2.25 L14.95 2.65 15.35 3.25 15.65 9.7 15.1 9.8 14.3 3.55 13.4 4.2 13.3 11.85 13.35 13.25 14.15 20.3 14.85 20.25 15.3 15.05 M31.05 30.2 L32.4 30.15 32.8 30.9 32.6 31.95 27.3 32.2 26.75 31.15 27.3 30.4 27.4 31.15 31.25 31.35 31.5 30.7 31.05 30.2 M31.25 29.1 L28.3 29.1 28.2 27.25 31.25 27.25 31.25 29.1 M27.9 48.35 Q29.05 49.75 30.55 48.65 32.0 47.2 31.6 44.95 31.65 41.3 30.8 37.75 30.7 36.45 29.75 35.6 28.7 35.65 28.3 38.1 27.95 40.5 27.95 41.5 26.8 45.1 27.9 48.35 M32.6 42.15 Q33.05 47.05 32.3 51.85 31.9 49.85 29.75 49.65 27.35 49.85 27.15 52.25 L27.15 52.3 26.95 51.0 Q26.25 45.2 27.2 39.55 L28.45 32.9 31.2 32.9 Q32.15 37.5 32.6 42.15 M30.7 58.1 L28.65 57.7 27.35 53.05 Q27.85 54.65 29.75 54.85 31.35 54.95 32.0 53.55 L30.7 58.1 M29.1 55.9 Q28.65 57.55 30.25 57.4 31.35 56.6 30.65 55.85 L29.1 55.9" fill="#69839d" fill-rule="evenodd" stroke="none"/>
      <path d="M40.75 9.5 Q39.65 10.3 39.65 11.65 39.6 13.25 41.0 13.95 L41.5 17.7 Q41.55 19.1 40.65 19.75 39.95 19.55 39.85 18.55 39.35 12.5 39.65 6.45 39.7 5.45 40.4 4.85 L40.75 9.5 M43.55 9.5 L43.55 4.3 44.25 4.4 44.5 10.65 Q44.2 9.85 43.55 9.5 M44.55 12.55 L44.0 20.3 43.6 13.8 Q44.25 13.35 44.55 12.55 M34.2 11.4 L33.9 10.25 26.9 9.5 Q25.3 9.3 24.4 10.6 24.5 12.95 27.0 13.65 31.6 14.85 34.2 11.4 M36.15 9.6 Q37.3 11.55 36.3 13.5 34.7 15.25 31.75 15.4 L26.55 15.0 Q24.25 14.4 22.5 12.35 20.7 10.35 23.1 8.3 24.95 7.25 27.1 7.8 29.75 8.15 32.4 7.85 34.9 7.5 36.15 9.6 M27.5 24.1 L30.4 23.85 Q31.5 24.1 31.6 24.5 31.6 24.85 30.85 25.25 L27.9 25.35 Q26.85 24.85 26.9 24.5 26.9 24.25 27.45 24.1 L27.5 24.1 M16.8 15.6 L16.85 14.9 18.35 13.15 17.85 19.6 16.8 15.6 M18.3 11.4 Q17.9 10.35 16.95 9.95 L17.45 5.4 18.3 11.4 M15.3 15.05 L14.85 20.25 14.15 20.3 13.35 13.25 Q13.7 14.6 15.3 15.05 M13.3 11.85 L13.4 4.2 14.3 3.55 15.1 9.8 Q13.6 10.25 13.3 11.85 M27.3 30.4 L31.05 30.2 31.5 30.7 31.25 31.35 27.4 31.15 27.3 30.4 M27.9 48.35 Q26.8 45.1 27.95 41.5 27.95 40.5 28.3 38.1 28.7 35.65 29.75 35.6 30.7 36.45 30.8 37.75 31.65 41.3 31.6 44.95 32.0 47.2 30.55 48.65 29.05 49.75 27.9 48.35 M29.1 55.9 L30.65 55.85 Q31.35 56.6 30.25 57.4 28.65 57.55 29.1 55.9" fill="#899db1" fill-rule="evenodd" stroke="none"/>
      <path d="M40.75 10.9 L42.65 13.2 42.15 13.3 Q40.7 13.2 40.5 11.65 L40.75 10.9 M42.85 10.1 L43.85 12.05 41.65 10.1 42.85 10.1 M14.45 11.5 L16.6 13.7 15.85 13.9 Q14.3 13.7 14.2 12.25 L14.45 11.5 M17.25 11.6 L17.3 13.05 15.15 10.8 16.6 10.8 17.25 11.6 M29.75 50.6 L30.55 50.85 28.35 53.05 28.1 52.25 Q28.25 50.75 29.75 50.6 M29.0 53.7 L31.2 51.5 Q31.9 53.5 29.75 53.95 L29.0 53.7" fill="#a1b1c1" fill-rule="evenodd" stroke="none"/>
      <path d="M33.35 54.6 L33.75 52.75 Q40.85 51.3 46.05 46.1 53.05 39.1 53.3 28.6 53.05 18.45 46.45 11.55 L46.45 9.2 Q54.75 17.0 54.95 28.6 55.05 36.65 50.45 43.3 44.1 52.5 33.35 54.6 M45.35 22.9 Q47.1 21.7 46.9 19.6 L46.55 17.25 Q49.55 22.9 49.55 29.45 49.05 40.8 38.0 44.45 L34.9 45.55 34.8 45.15 34.35 43.45 Q38.75 41.7 42.1 38.05 45.75 33.5 45.85 27.7 45.85 25.2 45.35 22.9 M38.25 4.0 Q29.1 3.05 20.0 4.15 L19.75 3.6 Q23.8 2.25 28.5 2.1 33.8 2.25 38.25 4.0 M24.25 45.1 Q24.15 46.55 24.3 47.8 17.65 47.8 13.35 43.15 8.2 37.55 7.7 29.6 7.2 22.7 11.3 17.35 L11.35 17.65 Q11.15 19.95 11.85 21.75 7.8 29.5 12.4 37.1 16.5 43.85 24.25 45.1 M11.8 8.1 L11.8 10.5 Q5.05 16.85 4.15 26.1 3.0 37.75 11.1 46.1 17.2 52.25 25.85 53.15 L26.35 54.95 Q13.85 53.8 6.7 43.25 1.25 35.3 2.3 25.9 3.55 15.15 11.8 8.1" fill="#afc1d9" fill-rule="evenodd" stroke="none"/>
      <path d="M34.15 50.65 Q34.1 41.75 32.3 32.9 L33.95 31.8 34.35 43.45 34.8 45.15 34.9 45.55 38.0 44.45 Q49.05 40.8 49.55 29.45 49.55 22.9 46.55 17.25 L46.9 19.6 Q47.1 21.7 45.35 22.9 L35.9 22.55 34.9 25.15 Q35.1 23.95 33.95 23.4 L33.3 23.05 33.3 21.2 38.3 20.55 Q39.2 22.8 41.45 22.0 L42.2 21.75 Q45.25 23.6 46.0 20.7 46.75 17.8 46.45 14.6 51.15 20.45 51.3 28.65 51.05 38.3 44.65 44.7 40.2 49.15 34.15 50.65 M33.85 30.25 L32.4 29.2 32.4 27.25 34.35 26.45 33.6 28.35 33.85 30.25 M24.25 45.1 L24.95 39.9 Q25.7 35.8 24.45 31.95 L25.5 28.35 23.3 25.55 24.45 22.3 Q22.8 22.45 21.25 23.1 17.0 25.0 12.6 23.2 L11.85 21.75 Q11.15 19.95 11.35 17.65 L11.3 17.35 Q7.2 22.7 7.7 29.6 8.2 37.55 13.35 43.15 17.65 47.8 24.3 47.8 24.15 46.55 24.25 45.1 M11.8 13.3 L12.05 20.75 Q12.1 22.0 13.3 22.4 15.1 23.2 16.1 21.7 L16.85 21.95 Q19.2 22.95 19.95 20.65 L26.0 21.35 26.0 23.05 25.5 23.4 Q24.55 24.05 24.5 24.95 L24.75 25.95 Q25.3 27.3 26.9 27.25 L26.9 29.2 26.4 29.55 Q24.7 30.8 26.2 32.25 26.65 32.65 27.35 32.9 25.25 40.65 25.1 48.35 L25.35 51.1 Q17.85 50.0 12.5 44.7 6.1 38.3 5.85 28.65 6.1 19.55 11.8 13.3" fill="#9ab4cc" fill-rule="evenodd" stroke="none"/>
      <path d="M33.95 31.8 L33.85 30.25 33.6 28.35 34.35 26.45 34.9 25.15 35.9 22.55 45.35 22.9 Q45.85 25.2 45.85 27.7 45.75 33.5 42.1 38.05 38.75 41.7 34.35 43.45 L33.95 31.8 M11.85 21.75 L12.6 23.2 Q17.0 25.0 21.25 23.1 22.8 22.45 24.45 22.3 L23.3 25.55 25.5 28.35 24.45 31.95 Q25.7 35.8 24.95 39.9 L24.25 45.1 Q16.5 43.85 12.4 37.1 7.8 29.5 11.85 21.75" fill="#c5d3e3" fill-rule="evenodd" stroke="none"/>
      <path d="M34.2 11.4 Q31.6 14.85 27.0 13.65 24.5 12.95 24.4 10.6 25.3 9.3 26.9 9.5 L33.9 10.25 34.2 11.4" fill="#a1b3bf" fill-rule="evenodd" stroke="none"/>
    </g>
    <g id="shape4" transform="matrix(1.0, 0.0, 0.0, 1.0, 0.0, 0.0)">
      <path d="M81.1 22.15 L81.5 21.75 81.5 19.65 84.95 19.7 Q83.3 23.25 79.1 23.65 74.4 24.4 69.95 22.6 67.65 21.75 66.4 19.45 L69.6 19.5 69.4 21.35 69.75 21.8 81.1 22.15 M74.5 7.8 Q76.9 6.95 78.0 4.3 L78.5 14.35 73.05 14.25 74.0 7.95 74.5 7.8 M48.95 131.3 L42.15 136.65 42.5 138.2 69.8 166.05 70.15 167.25 67.05 261.3 37.95 260.45 37.65 257.4 40.75 254.4 39.25 245.9 38.2 245.15 39.75 236.6 35.55 232.4 30.75 157.6 Q29.0 151.35 26.7 145.5 L26.05 144.95 25.45 144.8 Q24.35 145.45 24.65 146.65 L27.8 158.0 32.3 229.25 24.2 222.05 Q18.15 222.85 13.8 227.15 L11.15 229.9 5.9 235.8 3.0 216.75 7.1 176.6 21.9 127.4 34.8 122.45 48.95 131.3 M45.85 137.35 L52.4 132.3 Q53.75 131.15 52.4 129.95 L38.3 121.1 54.05 114.95 67.9 159.85 45.85 137.35 M73.15 167.4 L74.05 165.4 99.5 138.5 100.0 137.45 99.7 136.6 94.9 132.7 108.05 120.0 127.8 129.35 137.75 180.7 138.6 236.25 128.3 225.85 127.95 225.5 127.4 225.4 125.3 225.5 123.2 225.75 Q118.2 226.45 115.1 230.25 L118.9 148.0 Q123.3 142.1 124.75 135.75 L123.2 135.2 115.9 147.5 111.9 234.55 Q109.2 239.1 108.8 244.5 L106.75 245.2 105.3 255.25 111.2 258.8 111.2 261.45 70.05 261.35 73.15 167.4 M91.2 132.4 L91.5 133.55 96.2 137.6 77.6 157.25 96.25 114.75 105.15 118.65 91.2 132.4" fill="#106557" fill-rule="evenodd" stroke="none"/>
      <path d="M81.1 22.15 L69.75 21.8 69.4 21.35 69.6 19.5 66.4 19.45 Q67.65 21.75 69.95 22.6 74.4 24.4 79.1 23.65 83.3 23.25 84.95 19.7 L81.5 19.65 81.5 21.75 81.1 22.15 M87.15 21.55 Q85.9 23.55 82.65 25.4 89.85 67.95 94.45 111.5 L95.4 110.95 96.2 111.1 129.75 126.95 130.6 128.05 140.75 180.3 141.75 246.35 141.2 247.55 140.35 247.85 139.8 257.2 121.4 264.4 114.2 260.45 114.0 263.8 113.55 264.25 112.7 264.45 73.65 264.45 35.8 263.15 34.85 259.8 29.75 264.15 Q16.95 260.25 4.8 254.3 L0.0 216.95 4.1 176.25 19.3 125.85 56.35 110.5 68.95 25.45 Q65.15 23.8 63.75 21.3 62.6 19.15 63.4 16.85 L70.15 16.5 71.55 4.8 71.95 4.45 74.05 4.65 78.4 0.0 79.6 0.15 Q82.55 7.4 81.4 15.25 L81.2 16.35 87.95 17.3 Q88.4 19.55 87.15 21.55 M81.0 26.2 L76.0 26.85 70.6 26.1 68.6 39.75 73.7 44.3 74.15 36.0 74.5 35.8 74.85 35.75 75.25 35.8 75.8 36.35 75.7 45.2 75.55 45.9 74.5 46.15 73.8 45.7 72.75 46.05 68.3 42.15 63.15 81.5 66.9 63.8 67.35 61.4 Q67.65 58.45 69.85 56.65 70.0 56.5 70.25 56.5 L71.5 56.65 71.7 57.95 70.3 58.5 69.45 60.5 Q68.9 62.55 69.15 64.8 71.1 66.45 73.85 65.9 L76.15 65.95 79.3 65.75 80.1 65.5 Q81.0 62.55 79.95 59.35 L79.25 57.45 77.25 59.55 76.85 59.55 76.55 59.35 76.2 59.15 76.05 58.8 Q76.65 55.8 79.65 55.85 80.25 55.85 80.7 56.4 82.1 58.05 82.35 60.2 82.7 62.95 82.3 65.5 86.8 73.35 88.6 82.3 L83.75 41.8 78.25 46.5 76.95 45.85 Q77.0 45.45 77.2 45.3 L83.4 39.5 81.0 26.2 M82.9 47.95 L82.7 48.95 77.55 49.2 77.0 48.65 77.2 47.55 82.4 47.35 82.9 47.95 M88.75 86.0 L87.65 85.95 84.5 75.15 Q83.3 71.0 80.9 67.35 L68.5 67.0 64.9 85.4 63.85 86.25 62.75 85.9 59.2 111.75 Q64.55 114.0 70.05 116.05 L71.35 116.45 Q81.85 115.0 91.3 110.25 L90.45 101.25 89.7 101.15 Q86.55 89.5 81.9 78.4 80.05 74.0 75.8 72.2 74.65 72.9 73.45 74.1 72.2 75.25 68.75 80.4 65.3 85.55 62.6 100.35 L61.75 102.6 Q62.75 89.25 68.95 77.55 70.75 74.1 73.65 71.5 76.2 69.25 79.1 71.1 80.1 71.7 80.7 72.7 87.5 83.4 90.2 98.75 L88.75 86.0 M74.5 7.8 L74.0 7.95 73.05 14.25 78.5 14.35 78.0 4.3 Q76.9 6.95 74.5 7.8 M79.05 16.5 L72.35 16.4 72.05 17.1 72.35 18.05 72.15 18.9 71.65 19.3 71.5 20.0 79.5 20.25 79.45 19.35 Q78.35 18.3 79.25 17.15 L79.05 16.5 M67.75 48.0 L75.75 48.15 73.05 63.35 71.8 63.15 73.7 49.95 69.25 53.8 68.35 53.2 68.6 52.15 71.25 49.5 67.95 49.1 67.75 48.0 M78.5 49.75 L81.35 53.65 80.75 54.2 Q79.25 53.85 78.4 52.75 L76.9 50.65 77.55 49.75 78.5 49.75 M74.6 120.4 L70.6 119.9 69.3 122.45 71.7 127.4 75.95 129.25 79.95 121.7 79.05 119.9 74.6 120.4 M45.85 137.35 L67.9 159.85 54.05 114.95 38.3 121.1 52.4 129.95 Q53.75 131.15 52.4 132.3 L45.85 137.35 M48.95 131.3 L34.8 122.45 21.9 127.4 7.1 176.6 3.0 216.75 5.9 235.8 11.15 229.9 13.8 227.15 Q18.15 222.85 24.2 222.05 L32.3 229.25 27.8 158.0 24.65 146.65 Q24.35 145.45 25.45 144.8 L26.05 144.95 26.7 145.5 Q29.0 151.35 30.75 157.6 L35.55 232.4 39.75 236.6 38.2 245.15 39.25 245.9 40.75 254.4 37.65 257.4 37.95 260.45 67.05 261.3 70.15 167.25 69.8 166.05 42.5 138.2 42.15 136.65 48.95 131.3 M63.05 133.85 L64.1 137.35 68.9 128.5 67.5 125.6 63.05 133.85 M71.3 130.5 L65.35 141.4 71.9 162.8 81.7 140.5 75.65 132.35 71.3 130.5 M56.95 114.05 L61.8 129.85 67.75 118.9 56.95 114.05 M73.15 167.4 L70.05 261.35 111.2 261.45 111.2 258.8 105.3 255.25 106.75 245.2 108.8 244.5 Q109.2 239.1 111.9 234.55 L115.9 147.5 123.2 135.2 124.75 135.75 Q123.3 142.1 118.9 148.0 L115.1 230.25 Q118.2 226.45 123.2 225.75 L125.3 225.5 127.4 225.4 127.95 225.5 128.3 225.85 138.6 236.25 137.75 180.7 127.8 129.35 108.05 120.0 94.9 132.7 99.7 136.6 100.0 137.45 99.5 138.5 74.05 165.4 73.15 167.4 M91.55 113.5 L81.95 119.1 86.95 128.5 93.0 114.6 91.55 113.5 M91.2 132.4 L105.15 118.65 96.25 114.75 77.6 157.25 96.2 137.6 91.5 133.55 91.2 132.4 M85.4 132.0 L81.65 124.9 78.4 131.05 83.05 137.35 85.4 132.0 M122.3 242.15 L123.75 242.05 124.4 242.75 Q125.85 246.95 126.8 251.35 L126.5 251.9 125.75 252.3 115.55 252.45 115.0 251.75 Q114.2 249.6 113.7 247.35 L109.2 247.45 108.3 253.75 121.95 261.25 137.05 255.4 137.35 239.3 126.85 228.15 120.2 228.45 112.25 239.1 111.85 244.25 115.05 244.35 115.55 244.45 115.9 244.75 116.35 245.55 117.25 249.5 123.65 249.35 Q122.65 246.2 122.05 243.0 121.95 242.55 122.3 242.15 M7.75 238.35 L7.75 252.9 28.8 261.05 37.65 253.35 36.5 247.75 34.3 251.7 33.15 251.9 22.75 251.75 Q21.55 251.6 21.4 250.45 20.55 243.95 20.2 237.45 20.2 237.0 20.65 236.7 L22.1 236.75 22.55 237.6 24.15 248.8 32.35 249.1 35.0 244.35 35.3 243.7 36.8 237.85 23.75 225.1 17.0 225.7 7.75 238.35" fill="#1a1a1a" fill-rule="evenodd" stroke="none"/>
      <path d="M88.75 86.0 L90.2 98.75 Q87.5 83.4 80.7 72.7 80.1 71.7 79.1 71.1 76.2 69.25 73.65 71.5 70.75 74.1 68.95 77.55 62.75 89.25 61.75 102.6 L62.6 100.35 Q65.3 85.55 68.75 80.4 72.2 75.25 73.45 74.1 74.65 72.9 75.8 72.2 80.05 74.0 81.9 78.4 86.55 89.5 89.7 101.15 L90.45 101.25 91.3 110.25 Q81.85 115.0 71.35 116.45 L70.05 116.05 Q64.55 114.0 59.2 111.75 L62.75 85.9 63.85 86.25 64.9 85.4 68.5 67.0 80.9 67.35 Q83.3 71.0 84.5 75.15 L87.65 85.95 88.75 86.0 M82.9 47.95 L82.4 47.35 77.2 47.55 77.0 48.65 77.55 49.2 82.7 48.95 82.9 47.95 M81.0 26.2 L83.4 39.5 77.2 45.3 Q77.0 45.45 76.95 45.85 L78.25 46.5 83.75 41.8 88.6 82.3 Q86.8 73.35 82.3 65.5 82.7 62.95 82.35 60.2 82.1 58.05 80.7 56.4 80.25 55.85 79.65 55.85 76.65 55.8 76.05 58.8 L76.2 59.15 76.55 59.35 76.85 59.55 77.25 59.55 79.25 57.45 79.95 59.35 Q81.0 62.55 80.1 65.5 L79.3 65.75 76.15 65.95 73.85 65.9 Q71.1 66.45 69.15 64.8 68.9 62.55 69.45 60.5 L70.3 58.5 71.7 57.95 71.5 56.65 70.25 56.5 Q70.0 56.5 69.85 56.65 67.65 58.45 67.35 61.4 L66.9 63.8 63.15 81.5 68.3 42.15 72.75 46.05 73.8 45.7 74.5 46.15 75.55 45.9 75.7 45.2 75.8 36.35 75.25 35.8 74.85 35.75 74.5 35.8 74.15 36.0 73.7 44.3 68.6 39.75 70.6 26.1 76.0 26.85 81.0 26.2 M78.5 49.75 L77.55 49.75 76.9 50.65 78.4 52.75 Q79.25 53.85 80.75 54.2 L81.35 53.65 78.5 49.75 M67.75 48.0 L67.95 49.1 71.25 49.5 68.6 52.15 68.35 53.2 69.25 53.8 73.7 49.95 71.8 63.15 73.05 63.35 75.75 48.15 67.75 48.0 M79.05 16.5 L79.25 17.15 Q78.35 18.3 79.45 19.35 L79.5 20.25 71.5 20.0 71.65 19.3 72.15 18.9 72.35 18.05 72.05 17.1 72.35 16.4 79.05 16.5 M63.05 133.85 L67.5 125.6 68.9 128.5 64.1 137.35 63.05 133.85 M56.95 114.05 L67.75 118.9 61.8 129.85 56.95 114.05 M91.55 113.5 L93.0 114.6 86.95 128.5 81.95 119.1 91.55 113.5 M7.75 238.35 L17.0 225.7 23.75 225.1 36.8 237.85 35.3 243.7 35.0 244.35 32.35 249.1 24.15 248.8 22.55 237.6 22.1 236.75 20.65 236.7 Q20.2 237.0 20.2 237.45 20.55 243.95 21.4 250.45 21.55 251.6 22.75 251.75 L33.15 251.9 34.3 251.7 36.5 247.75 37.65 253.35 28.8 261.05 7.75 252.9 7.75 238.35 M122.3 242.15 Q121.95 242.55 122.05 243.0 122.65 246.2 123.65 249.35 L117.25 249.5 116.35 245.55 115.9 244.75 115.55 244.45 115.05 244.35 111.85 244.25 112.25 239.1 120.2 228.45 126.85 228.15 137.35 239.3 137.05 255.4 121.95 261.25 108.3 253.75 109.2 247.45 113.7 247.35 Q114.2 249.6 115.0 251.75 L115.55 252.45 125.75 252.3 126.5 251.9 126.8 251.35 Q125.85 246.95 124.4 242.75 L123.75 242.05 122.3 242.15 M85.4 132.0 L83.05 137.35 78.4 131.05 81.65 124.9 85.4 132.0" fill="#c1d9cb" fill-rule="evenodd" stroke="none"/>
      <path d="M74.6 120.4 L79.05 119.9 79.95 121.7 75.95 129.25 71.7 127.4 69.3 122.45 70.6 119.9 74.6 120.4 M71.3 130.5 L75.65 132.35 81.7 140.5 71.9 162.8 65.35 141.4 71.3 130.5" fill="#0e4239" fill-rule="evenodd" stroke="none"/>
    </g>
    <g id="shape5" transform="matrix(1.0, 0.0, 0.0, 1.0, -0.25, -0.1)">
      <path d="M41.5 9.2 Q42.4 9.55 43.15 9.95 46.05 11.85 46.9 14.2 L47.35 15.85 47.65 17.9 47.25 18.65 44.0 19.2 38.3 19.95 37.2 18.3 37.9 23.9 45.75 25.9 Q47.7 26.7 49.5 27.85 L51.3 29.45 51.9 30.15 53.05 32.2 Q53.9 34.55 53.45 37.4 53.05 39.65 51.8 42.25 50.75 44.2 48.5 45.95 L41.3 49.9 41.5 51.65 41.65 52.55 41.55 54.25 40.85 54.55 36.85 54.55 33.35 54.55 32.45 54.35 32.1 53.1 32.0 51.75 29.9 51.65 29.95 52.0 30.05 53.35 30.25 54.95 30.05 55.55 29.7 55.8 21.15 55.75 20.85 54.7 20.85 53.9 20.8 52.15 20.8 50.7 Q14.65 48.7 10.65 43.65 L7.9 38.1 7.55 35.2 8.6 34.85 10.8 34.65 18.35 34.25 20.5 38.15 19.95 29.25 Q14.15 29.25 10.1 25.5 8.95 24.2 8.45 22.85 7.9 20.7 8.2 18.6 8.55 16.85 9.35 15.4 10.25 14.05 11.4 12.85 L14.5 10.85 17.6 9.4 17.5 8.85 17.35 8.15 17.1 6.75 17.15 4.7 17.75 4.4 24.8 4.3 25.3 5.6 25.4 6.25 25.5 7.1 27.25 6.95 27.1 6.05 27.05 5.4 26.95 4.05 31.85 2.35 33.7 2.05 35.15 2.35 35.4 3.05 35.6 5.0 35.8 6.45 35.85 7.15 35.9 7.6 38.4 8.15 Q40.1 8.6 41.5 9.2 M45.7 17.05 Q45.55 13.85 43.0 11.9 39.95 9.6 36.1 8.95 L36.85 15.25 Q38.5 16.2 39.2 17.9 L45.7 17.05 M50.5 31.85 Q50.15 30.75 49.3 29.9 44.5 25.35 38.05 25.6 L38.65 30.05 39.6 30.55 Q42.85 32.45 41.55 36.3 L39.75 38.5 41.0 47.75 45.35 45.65 Q47.2 44.6 48.4 43.0 52.3 37.95 50.5 31.85 M27.4 8.2 L25.7 8.35 26.75 14.8 28.3 14.65 27.4 8.2 M28.4 15.6 L26.8 15.75 27.6 23.3 29.5 23.7 28.4 15.6 M25.75 23.5 L23.6 5.85 19.25 5.95 20.8 20.4 21.2 26.55 Q22.1 40.45 22.3 54.4 L28.25 54.0 25.75 23.5 M33.65 3.4 L28.7 4.7 Q30.45 15.1 31.3 25.55 L32.1 34.2 33.65 52.85 39.75 52.65 33.65 3.4 M10.9 18.95 L10.85 19.95 Q10.85 20.9 11.15 21.85 13.15 27.7 19.8 27.9 L19.5 24.35 Q17.9 24.05 17.15 22.75 14.95 18.95 18.75 16.85 L17.85 10.85 Q14.85 12.2 12.8 14.55 11.15 16.4 10.9 18.95 M18.25 20.55 Q18.5 21.5 19.1 22.15 L18.9 18.45 Q17.95 19.3 18.25 20.55 M17.1 36.0 L9.45 36.65 9.8 37.65 Q13.15 45.05 20.75 48.3 L20.55 39.4 Q18.1 38.3 17.1 36.0 M38.85 31.85 L39.5 36.6 Q40.7 34.95 39.5 32.5 L38.85 31.85 M27.8 25.4 L28.1 28.4 30.2 28.6 29.75 25.5 27.8 25.4 M30.35 29.8 L28.2 29.6 29.05 39.75 31.25 39.65 30.35 29.8 M31.35 40.85 L29.15 40.95 29.75 49.8 31.9 49.75 31.35 40.85" fill="#005d51" fill-rule="evenodd" stroke="none"/>
      <path d="M46.9 14.2 Q46.05 11.85 43.15 9.95 42.4 9.55 41.5 9.2 38.85 7.4 35.8 6.45 L35.6 5.0 Q41.65 6.85 46.0 11.25 54.5 20.05 53.05 32.2 L51.9 30.15 51.95 28.7 Q51.75 20.2 46.9 14.2 M35.15 2.35 L33.7 2.05 Q21.3 -0.05 11.55 7.85 2.85 14.9 1.65 25.95 0.9 32.85 3.65 39.2 8.8 50.9 20.85 54.7 L21.15 55.75 29.7 55.8 Q33.45 55.6 36.85 54.55 L40.85 54.55 Q35.35 57.15 28.6 57.3 16.45 56.95 8.4 48.9 4.75 45.25 2.7 40.85 1.25 37.7 0.65 34.15 -0.1 29.5 0.5 24.9 1.2 19.5 3.95 14.75 6.75 10.0 10.95 6.65 14.95 3.5 19.8 1.7 24.05 0.1 28.6 0.1 40.7 0.4 48.8 8.5 56.9 16.55 57.2 28.7 56.85 40.8 48.8 48.9 45.5 52.2 41.55 54.25 L41.65 52.55 Q44.95 50.7 47.8 47.9 55.45 40.2 55.75 28.7 55.45 17.15 47.8 9.5 42.45 4.1 35.15 2.35 M26.95 4.05 L27.05 5.4 25.3 5.6 24.8 4.3 26.95 4.05 M17.1 6.75 L17.35 8.15 11.4 12.85 Q10.25 14.05 9.35 15.4 5.4 21.05 5.2 28.7 5.4 37.45 10.65 43.65 14.65 48.7 20.8 50.7 L20.8 52.15 Q15.35 50.4 11.1 46.15 4.1 39.15 3.85 28.7 4.1 18.2 11.1 11.2 13.8 8.45 17.1 6.75 M30.05 53.35 L29.95 52.0 32.0 51.75 32.1 53.1 30.05 53.35" fill="#006868" fill-rule="evenodd" stroke="none"/>
      <path d="M40.65 12.0 L42.45 12.1 43.6 13.4 Q44.15 15.45 42.2 16.35 41.3 16.6 40.6 16.35 L40.45 16.3 40.4 16.25 Q39.7 15.85 39.25 14.95 38.7 12.9 40.65 12.0 M41.6 15.7 L41.95 15.6 Q43.65 14.75 42.45 13.1 L41.6 15.7 M41.65 12.75 L40.95 12.8 Q39.7 13.35 40.05 14.7 L40.45 15.3 41.65 12.75 M46.05 37.3 Q48.15 37.85 48.0 39.95 47.45 42.05 45.3 41.9 44.3 41.65 43.85 41.05 L43.8 41.0 43.75 40.9 Q43.3 40.25 43.4 39.2 43.95 37.1 46.05 37.3 M44.8 40.8 L45.45 41.05 Q47.4 41.15 47.1 39.15 L44.8 40.8 M46.65 38.45 L45.95 38.1 Q44.6 38.0 44.2 39.35 L44.3 40.15 46.65 38.45 M13.5 18.1 L12.75 18.1 14.15 20.6 14.5 19.95 Q14.75 18.6 13.5 18.1 M10.85 19.95 L10.9 18.95 Q11.55 17.0 13.6 17.25 15.35 17.7 15.4 19.55 15.45 21.1 14.0 21.75 L12.3 21.65 Q11.15 21.15 10.85 19.95 M12.65 20.95 L13.35 21.0 12.0 18.55 11.65 19.1 Q11.4 20.45 12.65 20.95 M17.55 42.65 L17.85 42.0 15.0 42.3 15.45 42.9 Q16.6 43.65 17.55 42.65 M17.3 40.6 Q16.2 39.8 15.2 40.8 L14.9 41.45 17.75 41.15 17.3 40.6 M18.75 41.5 L18.5 42.45 Q17.95 44.1 16.25 44.15 L15.8 44.0 Q13.3 42.75 14.55 40.25 L15.4 39.85 Q17.95 38.9 18.75 41.5" fill="#0f6f61" fill-rule="evenodd" stroke="none"/>
      <path d="M40.65 12.0 Q38.7 12.9 39.25 14.95 39.7 15.85 40.4 16.25 L40.45 16.3 40.6 16.35 Q41.3 16.6 42.2 16.35 44.15 15.45 43.6 13.4 L42.45 12.1 40.65 12.0 M45.7 17.05 L39.2 17.9 Q38.5 16.2 36.85 15.25 L36.1 8.95 Q39.95 9.6 43.0 11.9 45.55 13.85 45.7 17.05 M50.5 31.85 Q52.3 37.95 48.4 43.0 47.2 44.6 45.35 45.65 L41.0 47.75 39.75 38.5 41.55 36.3 Q42.85 32.45 39.6 30.55 L38.65 30.05 38.05 25.6 Q44.5 25.35 49.3 29.9 50.15 30.75 50.5 31.85 M46.05 37.3 Q43.95 37.1 43.4 39.2 43.3 40.25 43.75 40.9 L43.8 41.0 43.85 41.05 Q44.3 41.65 45.3 41.9 47.45 42.05 48.0 39.95 48.15 37.85 46.05 37.3 M32.9 7.7 L31.15 6.85 Q30.6 9.15 30.85 11.4 L31.8 18.75 Q33.9 33.8 34.4 48.9 34.45 50.1 35.5 51.1 L37.15 50.9 Q37.65 50.05 37.55 48.95 L36.95 43.5 36.1 33.95 Q35.3 20.6 32.9 7.7 M27.4 8.2 L28.3 14.65 26.75 14.8 25.7 8.35 27.4 8.2 M24.25 24.5 Q24.2 18.9 23.7 13.7 23.2 8.5 22.1 8.2 20.85 8.6 21.15 13.7 21.45 18.8 22.2 24.2 L23.1 31.05 Q23.5 40.1 23.8 43.3 23.3 47.7 24.9 51.6 26.25 50.8 26.15 48.65 L25.8 45.15 Q24.55 38.45 24.3 31.65 L24.25 24.5 M33.65 3.4 L39.75 52.65 33.65 52.85 32.1 34.2 31.3 25.55 Q30.45 15.1 28.7 4.7 L33.65 3.4 M25.75 23.5 L28.25 54.0 22.3 54.4 Q22.1 40.45 21.2 26.55 L20.8 20.4 19.25 5.95 23.6 5.85 25.75 23.5 M10.85 19.95 Q11.15 21.15 12.3 21.65 L14.0 21.75 Q15.45 21.1 15.4 19.55 15.35 17.7 13.6 17.25 11.55 17.0 10.9 18.95 11.15 16.4 12.8 14.55 14.85 12.2 17.85 10.85 L18.75 16.85 Q14.95 18.95 17.15 22.75 17.9 24.05 19.5 24.35 L19.8 27.9 Q13.15 27.7 11.15 21.85 10.85 20.9 10.85 19.95 M18.75 41.5 Q17.95 38.9 15.4 39.85 L14.55 40.25 Q13.3 42.75 15.8 44.0 L16.25 44.15 Q17.95 44.1 18.5 42.45 L18.75 41.5 M17.1 36.0 Q18.1 38.3 20.55 39.4 L20.75 48.3 Q13.15 45.05 9.8 37.65 L9.45 36.65 17.1 36.0 M27.8 25.4 L29.75 25.5 30.2 28.6 28.1 28.4 27.8 25.4 M31.35 40.85 L31.9 49.75 29.75 49.8 29.15 40.95 31.35 40.85" fill="#85ab93" fill-rule="evenodd" stroke="none"/>
      <path d="M38.4 8.15 L35.9 7.6 35.85 7.15 38.4 8.15 M27.1 6.05 L27.25 6.95 25.5 7.1 25.4 6.25 27.1 6.05 M17.5 8.85 L17.6 9.4 14.5 10.85 Q15.9 9.7 17.5 8.85 M8.2 18.6 Q7.9 20.7 8.45 22.85 7.45 26.0 7.7 29.6 7.85 32.35 8.6 34.85 L7.55 35.2 7.9 38.1 Q6.0 33.85 5.85 28.7 6.0 23.1 8.2 18.6 M51.3 29.45 L49.5 27.85 Q49.25 23.0 47.25 18.65 L47.65 17.9 47.35 15.85 Q51.15 21.35 51.3 28.7 L51.3 29.45" fill="#85b599" fill-rule="evenodd" stroke="none"/>
      <path d="M41.5 9.2 Q40.1 8.6 38.4 8.15 L35.85 7.15 35.8 6.45 Q38.85 7.4 41.5 9.2 M35.4 3.05 L35.15 2.35 Q42.45 4.1 47.8 9.5 55.45 17.15 55.75 28.7 55.45 40.2 47.8 47.9 44.95 50.7 41.65 52.55 L41.5 51.65 Q44.6 49.9 47.2 47.3 L48.5 45.95 Q50.75 44.2 51.8 42.25 53.05 39.65 53.45 37.4 54.8 33.35 54.95 28.6 54.65 17.35 47.2 9.9 42.15 4.85 35.4 3.05 M33.7 2.05 L31.85 2.35 28.5 2.1 Q22.6 2.25 17.75 4.4 L17.15 4.7 Q6.8 9.85 3.35 20.8 0.5 29.95 4.3 38.8 9.25 50.2 20.85 53.9 L20.85 54.7 Q8.8 50.9 3.65 39.2 0.9 32.85 1.65 25.95 2.85 14.9 11.55 7.85 21.3 -0.05 33.7 2.05 M27.05 5.4 L27.1 6.05 25.4 6.25 25.3 5.6 27.05 5.4 M17.35 8.15 L17.5 8.85 Q15.9 9.7 14.5 10.85 L11.4 12.85 17.35 8.15 M9.35 15.4 Q8.55 16.85 8.2 18.6 6.0 23.1 5.85 28.7 6.0 33.85 7.9 38.1 L10.65 43.65 Q5.4 37.45 5.2 28.7 5.4 21.05 9.35 15.4 M29.7 55.8 L30.05 55.55 30.25 54.95 33.35 54.55 36.85 54.55 Q33.45 55.6 29.7 55.8 M29.95 52.0 L29.9 51.65 32.0 51.75 29.95 52.0 M51.9 30.15 L51.3 29.45 51.3 28.7 Q51.15 21.35 47.35 15.85 L46.9 14.2 Q51.75 20.2 51.95 28.7 L51.9 30.15" fill="#085854" fill-rule="evenodd" stroke="none"/>
      <path d="M41.65 12.75 L40.45 15.3 40.05 14.7 Q39.7 13.35 40.95 12.8 L41.65 12.75 M41.6 15.7 L42.45 13.1 Q43.65 14.75 41.95 15.6 L41.6 15.7 M46.65 38.45 L44.3 40.15 44.2 39.35 Q44.6 38.0 45.95 38.1 L46.65 38.45 M44.8 40.8 L47.1 39.15 Q47.4 41.15 45.45 41.05 L44.8 40.8 M13.5 18.1 Q14.75 18.6 14.5 19.95 L14.15 20.6 12.75 18.1 13.5 18.1 M12.65 20.95 Q11.4 20.45 11.65 19.1 L12.0 18.55 13.35 21.0 12.65 20.95 M17.3 40.6 L17.75 41.15 14.9 41.45 15.2 40.8 Q16.2 39.8 17.3 40.6 M17.55 42.65 Q16.6 43.65 15.45 42.9 L15.0 42.3 17.85 42.0 17.55 42.65" fill="#a0beac" fill-rule="evenodd" stroke="none"/>
      <path d="M35.6 5.0 L35.4 3.05 Q42.15 4.85 47.2 9.9 54.65 17.35 54.95 28.6 54.8 33.35 53.45 37.4 53.9 34.55 53.05 32.2 54.5 20.05 46.0 11.25 41.65 6.85 35.6 5.0 M31.85 2.35 L26.95 4.05 24.8 4.3 17.75 4.4 Q22.6 2.25 28.5 2.1 L31.85 2.35 M17.15 4.7 L17.1 6.75 Q13.8 8.45 11.1 11.2 4.1 18.2 3.85 28.7 4.1 39.15 11.1 46.15 15.35 50.4 20.8 52.15 L20.85 53.9 Q9.25 50.2 4.3 38.8 0.5 29.95 3.35 20.8 6.8 9.85 17.15 4.7 M8.45 22.85 Q8.95 24.2 10.1 25.5 8.85 29.75 10.65 34.3 L10.8 34.65 8.6 34.85 Q7.85 32.35 7.7 29.6 7.45 26.0 8.45 22.85 M30.25 54.95 L30.05 53.35 32.1 53.1 32.45 54.35 33.35 54.55 30.25 54.95 M41.5 51.65 L41.3 49.9 48.5 45.95 47.2 47.3 Q44.6 49.9 41.5 51.65 M49.5 27.85 Q47.7 26.7 45.75 25.9 45.45 22.35 44.0 19.2 L47.25 18.65 Q49.25 23.0 49.5 27.85" fill="#98bea8" fill-rule="evenodd" stroke="none"/>
      <path d="M10.1 25.5 Q14.15 29.25 19.95 29.25 L20.5 38.15 18.35 34.25 10.8 34.65 10.65 34.3 Q8.85 29.75 10.1 25.5 M45.75 25.9 L37.9 23.9 37.2 18.3 38.3 19.95 44.0 19.2 Q45.45 22.35 45.75 25.9 M28.4 15.6 L29.5 23.7 27.6 23.3 26.8 15.75 28.4 15.6 M18.25 20.55 Q17.95 19.3 18.9 18.45 L19.1 22.15 Q18.5 21.5 18.25 20.55 M38.85 31.85 L39.5 32.5 Q40.7 34.95 39.5 36.6 L38.85 31.85 M30.35 29.8 L31.25 39.65 29.05 39.75 28.2 29.6 30.35 29.8" fill="#c1d9cb" fill-rule="evenodd" stroke="none"/>
      <path d="M32.9 7.7 Q35.3 20.6 36.1 33.95 L36.95 43.5 37.55 48.95 Q37.65 50.05 37.15 50.9 L35.5 51.1 Q34.45 50.1 34.4 48.9 33.9 33.8 31.8 18.75 L30.85 11.4 Q30.6 9.15 31.15 6.85 L32.9 7.7 M24.25 24.5 L24.3 31.65 Q24.55 38.45 25.8 45.15 L26.15 48.65 Q26.25 50.8 24.9 51.6 23.3 47.7 23.8 43.3 23.5 40.1 23.1 31.05 L22.2 24.2 Q21.45 18.8 21.15 13.7 20.85 8.6 22.1 8.2 23.2 8.5 23.7 13.7 24.2 18.9 24.25 24.5" fill="#689878" fill-rule="evenodd" stroke="none"/>
    </g>
    <g id="shape6" transform="matrix(1.0, 0.0, 0.0, 1.0, 0.0, 0.0)">
      <path d="M185.65 56.2 L179.0 77.25 220.15 91.0 246.85 117.7 268.1 155.0 268.3 155.5 277.3 210.2 281.15 215.6 268.6 237.45 227.8 231.25 227.85 252.85 226.45 253.6 49.1 254.2 48.2 253.9 47.95 253.2 47.75 247.8 47.6 232.9 11.3 235.95 11.05 235.6 8.8 230.2 6.55 224.75 Q4.35 219.3 2.65 213.7 2.05 211.8 3.9 210.45 L0.0 185.6 18.45 141.5 18.65 141.1 58.95 90.8 91.95 80.75 69.15 32.3 69.1 31.65 Q81.65 20.45 95.0 9.65 96.85 8.1 98.95 7.15 105.95 4.25 113.4 3.0 L118.5 2.4 Q136.85 0.0 155.3 0.0 L193.9 25.25 194.5 25.7 194.8 26.75 187.3 51.2 185.65 56.2 M155.0 23.3 Q152.0 24.0 149.35 22.6 L147.55 21.85 Q146.85 23.9 144.75 24.4 142.05 24.65 140.05 22.65 128.8 31.85 116.15 24.45 114.15 25.6 111.85 24.9 L110.3 24.45 110.15 20.95 Q99.1 25.85 86.9 25.2 110.0 33.7 122.75 35.45 135.5 37.2 145.85 33.6 L174.2 23.55 155.0 23.3 M157.35 12.5 L156.4 13.5 Q149.2 8.95 141.75 12.8 L140.85 12.25 Q148.55 5.75 157.05 11.8 L157.35 12.5 M155.45 6.65 L155.25 6.85 Q146.05 6.2 138.1 10.85 139.8 12.95 141.0 16.3 147.35 20.6 154.85 21.3 158.65 21.15 162.45 21.15 174.0 21.05 185.35 23.25 L154.05 2.75 Q131.5 3.15 109.3 6.75 114.3 8.2 117.95 11.75 126.5 8.0 135.45 9.8 L135.7 9.05 Q144.35 3.05 154.85 3.95 157.0 4.8 155.45 6.65 M152.6 63.0 L152.15 71.0 Q159.15 70.55 165.8 68.1 L169.0 66.8 170.3 60.75 152.6 63.0 M149.15 71.3 Q148.85 68.4 149.55 63.4 L136.4 65.1 137.95 72.35 149.15 71.3 M174.3 56.9 L182.85 54.9 191.45 27.5 180.8 25.75 174.3 56.9 M176.9 27.7 Q177.0 26.8 177.35 26.0 165.75 28.25 155.05 33.45 155.4 46.8 153.1 59.9 L171.05 57.6 Q174.95 42.95 176.9 27.7 M175.25 78.3 L180.45 62.4 Q173.65 68.85 164.45 71.5 156.1 73.95 147.3 74.55 L119.2 76.4 Q102.8 77.6 89.55 68.55 L94.6 79.25 111.85 84.2 120.85 86.8 Q121.25 86.85 121.5 87.5 L137.0 142.35 146.35 89.5 146.15 87.7 175.25 78.3 M150.0 60.35 Q152.35 47.55 152.05 34.45 L135.85 38.8 136.1 62.15 150.0 60.35 M173.5 60.2 L172.5 64.85 Q176.55 62.25 179.9 58.65 L173.5 60.2 M209.05 98.25 L203.0 88.2 180.25 80.6 164.7 114.85 164.25 114.95 160.65 111.0 139.2 146.85 137.6 148.85 136.6 148.85 127.6 160.7 189.85 113.85 176.4 104.6 176.8 103.3 209.05 98.25 M212.9 100.15 L211.7 100.9 182.0 105.3 Q188.6 109.05 193.9 113.75 L193.35 114.95 121.25 169.15 115.45 251.0 224.95 250.6 224.75 230.5 198.8 218.35 204.1 204.8 224.0 207.8 221.85 189.95 214.5 183.1 211.8 180.95 209.2 178.85 206.3 176.85 Q197.25 171.2 188.8 164.8 L193.85 151.25 194.4 151.05 217.85 158.75 207.3 107.0 207.35 106.45 Q207.8 105.3 209.05 105.25 L210.25 106.4 221.2 160.1 Q234.8 168.4 247.0 179.0 L249.8 181.55 252.7 184.1 255.5 186.7 Q264.85 195.8 273.5 205.75 L265.4 156.3 244.6 119.65 218.35 93.4 207.35 89.7 212.95 99.6 212.9 100.15 M158.85 108.25 L148.75 93.1 140.7 138.55 158.85 108.25 M149.8 89.25 L163.85 110.3 176.75 81.0 149.8 89.25 M222.25 165.6 Q209.15 159.4 195.6 154.25 L191.95 164.1 Q207.6 172.25 220.7 184.1 232.15 194.4 241.45 206.75 242.95 208.75 243.4 211.45 243.5 212.25 242.85 212.45 L241.95 212.8 225.35 210.75 205.65 207.55 202.0 217.25 Q216.9 223.05 232.05 228.1 236.9 229.65 242.0 230.45 L267.3 234.35 277.9 215.55 Q271.15 207.5 264.2 199.95 252.65 187.25 239.25 176.4 231.35 170.0 222.25 165.6 M113.05 17.9 L113.05 21.9 Q118.95 21.5 124.65 24.0 126.35 24.8 128.15 24.7 134.1 24.25 138.4 20.1 137.5 12.1 129.2 12.3 124.0 12.4 118.9 14.2 110.25 8.5 100.1 9.3 L83.4 23.0 Q98.5 25.0 111.7 17.5 L113.05 17.9 M112.2 13.75 L112.1 14.5 Q104.5 12.75 97.6 16.4 L96.45 15.6 Q103.65 9.1 112.2 13.75 M141.35 18.55 Q141.05 23.45 145.1 21.65 L145.75 20.85 141.35 18.55 M120.5 38.2 L116.4 37.15 119.5 62.5 133.1 62.4 132.9 39.4 Q127.35 39.95 120.5 38.2 M102.4 66.95 L102.8 71.7 Q108.9 73.2 117.55 73.4 L116.8 65.65 102.4 66.95 M99.4 67.05 Q94.1 66.7 89.45 64.85 L94.55 68.3 Q96.75 69.75 99.75 70.8 L99.4 67.05 M94.5 30.1 L94.6 31.8 Q96.2 48.2 101.65 64.0 L116.5 62.65 113.25 36.2 94.5 30.1 M76.9 28.35 L72.35 32.05 85.5 60.0 87.55 60.9 Q92.85 63.35 98.5 63.95 92.65 46.9 91.5 29.2 L86.0 28.1 76.9 28.35 M126.5 81.95 L127.05 81.0 Q135.0 81.95 142.05 78.4 L143.1 79.55 Q135.8 84.25 127.1 82.85 L126.5 81.95 M119.8 65.5 L120.6 73.35 134.9 72.6 133.4 65.35 119.8 65.5 M58.2 102.2 L57.1 101.35 Q57.05 100.55 57.55 99.9 L63.95 92.2 61.0 93.1 21.1 142.9 3.0 185.95 6.4 207.2 30.5 176.2 52.55 159.85 64.7 107.4 65.95 106.35 67.55 107.3 67.6 108.1 56.15 157.45 Q69.65 151.1 83.75 146.5 84.3 146.25 84.75 146.8 L90.7 159.85 Q71.25 178.1 50.6 195.45 L50.6 206.15 76.85 199.4 77.8 199.75 82.9 212.65 82.6 213.55 50.6 232.15 50.6 251.2 112.45 251.0 118.3 168.3 130.4 152.05 81.55 114.6 81.05 114.0 Q80.7 112.8 81.8 112.2 L89.05 108.1 58.2 102.2 M54.65 161.8 L32.7 178.2 5.25 213.55 12.9 233.1 48.65 229.8 79.6 211.85 76.3 202.65 Q58.05 208.2 39.2 211.65 L37.9 210.75 Q42.15 199.7 50.8 191.6 57.65 185.1 64.8 179.1 76.35 169.45 87.5 159.15 L82.9 149.65 77.25 152.0 Q65.75 156.5 54.65 161.8 M119.5 91.55 L111.65 104.6 132.4 137.2 119.5 91.55 M94.9 107.25 L85.25 113.6 132.25 149.65 134.7 146.4 109.9 107.45 105.25 115.0 104.15 115.3 103.7 115.1 93.35 83.5 69.2 90.65 61.3 99.75 93.75 105.95 94.9 107.25 M104.75 110.15 L117.7 88.75 96.3 82.8 104.75 110.15 M47.6 200.6 L44.4 207.55 47.6 206.9 47.6 200.6 M240.1 209.6 Q236.15 202.2 229.85 196.75 L226.3 193.65 232.45 208.8 240.1 209.6 M227.7 202.95 L225.8 199.25 227.05 208.3 229.25 208.5 227.7 202.95" fill="#1a1a1a" fill-rule="evenodd" stroke="none"/>
      <path d="M155.45 6.65 Q157.0 4.8 154.85 3.95 144.35 3.05 135.7 9.05 L135.45 9.8 Q126.5 8.0 117.95 11.75 114.3 8.2 109.3 6.75 131.5 3.15 154.05 2.75 L185.35 23.25 Q174.0 21.05 162.45 21.15 158.65 21.15 154.85 21.3 147.35 20.6 141.0 16.3 139.8 12.95 138.1 10.85 146.05 6.2 155.25 6.85 L155.45 6.65 M157.35 12.5 L157.05 11.8 Q148.55 5.75 140.85 12.25 L141.75 12.8 Q149.2 8.95 156.4 13.5 L157.35 12.5 M155.0 23.3 L174.2 23.55 145.85 33.6 Q135.5 37.2 122.75 35.45 110.0 33.7 86.9 25.2 99.1 25.85 110.15 20.95 L110.3 24.45 111.85 24.9 Q114.15 25.6 116.15 24.45 128.8 31.85 140.05 22.65 142.05 24.65 144.75 24.4 146.85 23.9 147.55 21.85 L149.35 22.6 Q152.0 24.0 155.0 23.3 M175.25 78.3 L146.15 87.7 146.35 89.5 137.0 142.35 121.5 87.5 Q121.25 86.85 120.85 86.8 L111.85 84.2 94.6 79.25 89.55 68.55 Q102.8 77.6 119.2 76.4 L147.3 74.55 Q156.1 73.95 164.45 71.5 173.65 68.85 180.45 62.4 L175.25 78.3 M112.2 13.75 Q103.65 9.1 96.45 15.6 L97.6 16.4 Q104.5 12.75 112.1 14.5 L112.2 13.75 M113.05 17.9 L111.7 17.5 Q98.5 25.0 83.4 23.0 L100.1 9.3 Q110.25 8.5 118.9 14.2 124.0 12.4 129.2 12.3 137.5 12.1 138.4 20.1 134.1 24.25 128.15 24.7 126.35 24.8 124.65 24.0 118.95 21.5 113.05 21.9 L113.05 17.9 M126.5 81.95 L127.1 82.85 Q135.8 84.25 143.1 79.55 L142.05 78.4 Q135.0 81.95 127.05 81.0 L126.5 81.95" fill="#f3deee" fill-rule="evenodd" stroke="none"/>
      <path d="M176.9 27.7 Q174.95 42.95 171.05 57.6 L153.1 59.9 Q155.4 46.8 155.05 33.45 165.75 28.25 177.35 26.0 177.0 26.8 176.9 27.7 M174.3 56.9 L180.8 25.75 191.45 27.5 182.85 54.9 174.3 56.9 M149.15 71.3 L137.95 72.35 136.4 65.1 149.55 63.4 Q148.85 68.4 149.15 71.3 M152.6 63.0 L170.3 60.75 169.0 66.8 165.8 68.1 Q159.15 70.55 152.15 71.0 L152.6 63.0 M173.5 60.2 L179.9 58.65 Q176.55 62.25 172.5 64.85 L173.5 60.2 M150.0 60.35 L136.1 62.15 135.85 38.8 152.05 34.45 Q152.35 47.55 150.0 60.35 M76.9 28.35 L86.0 28.1 91.5 29.2 Q92.65 46.9 98.5 63.95 92.85 63.35 87.55 60.9 L85.5 60.0 72.35 32.05 76.9 28.35 M94.5 30.1 L113.25 36.2 116.5 62.65 101.65 64.0 Q96.2 48.2 94.6 31.8 L94.5 30.1 M99.4 67.05 L99.75 70.8 Q96.75 69.75 94.55 68.3 L89.45 64.85 Q94.1 66.7 99.4 67.05 M102.4 66.95 L116.8 65.65 117.55 73.4 Q108.9 73.2 102.8 71.7 L102.4 66.95 M120.5 38.2 Q127.35 39.95 132.9 39.4 L133.1 62.4 119.5 62.5 116.4 37.15 120.5 38.2 M119.8 65.5 L133.4 65.35 134.9 72.6 120.6 73.35 119.8 65.5" fill="#ffffff" fill-rule="evenodd" stroke="none"/>
      <path d="M185.65 56.2 L187.3 51.2 187.75 51.65 Q187.75 53.75 186.65 55.25 L185.65 56.2" fill="#d0cfd0" fill-rule="evenodd" stroke="none"/>
      <path d="M212.9 100.15 L212.95 99.6 207.35 89.7 218.35 93.4 244.6 119.65 265.4 156.3 273.5 205.75 Q264.85 195.8 255.5 186.7 L252.7 184.1 249.8 181.55 247.0 179.0 Q234.8 168.4 221.2 160.1 L210.25 106.4 209.05 105.25 Q207.8 105.3 207.35 106.45 L207.3 107.0 217.85 158.75 194.4 151.05 193.85 151.25 188.8 164.8 Q197.25 171.2 206.3 176.85 L209.2 178.85 211.8 180.95 214.5 183.1 221.85 189.95 224.0 207.8 204.1 204.8 198.8 218.35 224.75 230.5 224.95 250.6 115.45 251.0 121.25 169.15 193.35 114.95 193.9 113.75 Q188.6 109.05 182.0 105.3 L211.7 100.9 212.9 100.15 M209.05 98.25 L176.8 103.3 176.4 104.6 189.85 113.85 127.6 160.7 136.6 148.85 137.6 148.85 139.2 146.85 160.65 111.0 164.25 114.95 164.7 114.85 180.25 80.6 203.0 88.2 209.05 98.25 M58.2 102.2 L89.05 108.1 81.8 112.2 Q80.7 112.8 81.05 114.0 L81.55 114.6 130.4 152.05 118.3 168.3 112.45 251.0 50.6 251.2 50.6 232.15 82.6 213.55 82.9 212.65 77.8 199.75 76.85 199.4 50.6 206.15 50.6 195.45 Q71.25 178.1 90.7 159.85 L84.75 146.8 Q84.3 146.25 83.75 146.5 69.65 151.1 56.15 157.45 L67.6 108.1 67.55 107.3 65.95 106.35 64.7 107.4 52.55 159.85 30.5 176.2 6.4 207.2 3.0 185.95 21.1 142.9 61.0 93.1 63.95 92.2 57.55 99.9 Q57.05 100.55 57.1 101.35 L58.2 102.2 M94.9 107.25 L93.75 105.95 61.3 99.75 69.2 90.65 93.35 83.5 103.7 115.1 104.15 115.3 105.25 115.0 109.9 107.45 134.7 146.4 132.25 149.65 85.25 113.6 94.9 107.25 M240.1 209.6 L232.45 208.8 226.3 193.65 229.85 196.75 Q236.15 202.2 240.1 209.6" fill="#8d254e" fill-rule="evenodd" stroke="none"/>
      <path d="M149.8 89.25 L176.75 81.0 163.85 110.3 149.8 89.25 M158.85 108.25 L140.7 138.55 148.75 93.1 158.85 108.25 M119.5 91.55 L132.4 137.2 111.65 104.6 119.5 91.55 M104.75 110.15 L96.3 82.8 117.7 88.75 104.75 110.15" fill="#ffe1e9" fill-rule="evenodd" stroke="none"/>
      <path d="M222.25 165.6 Q231.35 170.0 239.25 176.4 252.65 187.25 264.2 199.95 271.15 207.5 277.9 215.55 L267.3 234.35 242.0 230.45 Q236.9 229.65 232.05 228.1 216.9 223.05 202.0 217.25 L205.65 207.55 225.35 210.75 241.95 212.8 242.85 212.45 Q243.5 212.25 243.4 211.45 242.95 208.75 241.45 206.75 232.15 194.4 220.7 184.1 207.6 172.25 191.95 164.1 L195.6 154.25 Q209.15 159.4 222.25 165.6 M141.35 18.55 L145.75 20.85 145.1 21.65 Q141.05 23.45 141.35 18.55 M54.65 161.8 Q65.75 156.5 77.25 152.0 L82.9 149.65 87.5 159.15 Q76.35 169.45 64.8 179.1 57.65 185.1 50.8 191.6 42.15 199.7 37.9 210.75 L39.2 211.65 Q58.05 208.2 76.3 202.65 L79.6 211.85 48.65 229.8 12.9 233.1 5.25 213.55 32.7 178.2 54.65 161.8" fill="#e3aed5" fill-rule="evenodd" stroke="none"/>
    </g>
    <g id="shape7" transform="matrix(1.0, 0.0, 0.0, 1.0, -0.1, 0.0)">
      <path d="M44.15 4.15 Q48.25 3.4 52.05 4.8 L52.4 5.0 52.3 11.35 52.25 12.55 Q56.95 19.4 57.2 28.65 56.95 39.1 50.85 46.55 L50.85 48.45 50.25 54.2 Q46.95 55.8 43.1 54.6 L42.4 54.05 42.25 53.8 Q36.25 57.05 28.6 57.25 20.95 57.05 14.95 53.75 L14.75 54.3 14.4 54.75 8.05 54.95 Q6.45 53.25 6.75 50.75 L6.9 47.7 6.85 47.2 Q3.0 42.7 1.3 37.15 -0.8 29.9 0.85 22.5 2.4 15.75 6.8 10.6 15.0 0.95 27.95 0.05 L28.3 0.05 28.6 0.05 Q37.0 0.25 43.5 4.2 L44.15 4.15 M50.75 10.0 L51.2 5.6 42.35 5.6 Q42.7 27.1 43.4 48.6 43.45 50.9 43.95 52.95 L47.55 53.2 49.45 52.9 Q49.55 33.1 50.45 13.35 L50.75 10.0 M40.95 5.25 Q41.05 4.75 41.2 4.9 L41.4 4.8 Q35.75 1.65 28.6 1.45 17.05 1.75 9.4 9.45 1.7 17.1 1.4 28.65 1.65 37.85 6.6 44.65 L6.5 43.3 6.35 41.05 6.05 39.7 Q1.4 28.1 7.05 17.05 11.65 8.15 21.3 5.15 31.5 2.15 40.85 7.15 L40.95 5.25 M45.1 11.4 L45.35 12.2 47.45 10.1 46.65 9.85 Q45.25 10.0 45.1 11.4 M40.8 9.45 L40.8 8.75 Q35.55 5.45 28.65 5.3 18.7 5.6 12.0 12.3 5.3 19.0 5.05 28.9 5.2 33.9 6.95 38.05 L7.95 37.8 14.45 37.8 15.3 38.55 15.05 47.8 17.35 48.85 17.4 46.3 17.4 42.55 16.8 27.7 17.8 27.05 Q22.25 25.8 26.4 27.25 L26.7 27.55 26.7 51.5 26.7 51.95 29.25 52.05 29.25 51.35 29.25 47.1 29.3 44.85 28.85 16.2 30.2 15.55 38.9 15.85 38.7 49.4 38.7 49.8 41.85 47.95 41.85 47.1 41.95 42.75 41.95 38.3 41.0 14.95 40.85 11.15 40.8 9.45 M44.55 12.65 Q44.5 11.25 45.1 10.1 45.7 8.9 46.6 8.8 47.5 8.7 48.2 9.75 48.9 10.75 48.95 12.35 48.4 13.7 46.65 13.9 45.1 13.75 44.55 12.65 M48.3 45.2 L48.65 46.05 Q49.15 47.55 48.1 48.55 L46.3 49.2 Q44.8 49.15 44.1 47.55 43.75 46.05 44.6 45.2 L45.65 44.45 Q47.35 44.0 48.3 45.2 M46.3 12.95 L46.65 13.0 Q48.75 12.6 48.05 10.7 L46.3 12.95 M50.85 42.75 L50.85 44.4 Q55.35 38.0 55.55 29.2 55.4 21.65 52.1 15.6 L52.05 16.5 Q51.5 20.6 52.6 24.4 53.15 26.45 53.2 28.65 53.35 33.65 51.5 38.1 50.6 40.15 50.85 42.75 M51.15 34.95 Q51.9 31.85 51.85 28.65 L51.65 24.65 51.15 34.95 M44.9 46.45 L44.9 47.25 Q45.45 48.6 46.85 48.1 L47.6 47.8 44.9 46.45 M47.9 46.25 Q47.35 44.95 45.9 45.3 45.55 45.45 45.3 45.7 L47.95 47.0 47.9 46.25 M38.0 18.15 L38.1 16.8 29.9 16.9 31.25 53.15 37.5 53.45 37.55 53.2 Q36.9 35.65 38.0 18.15 M35.4 21.6 L35.0 20.95 32.75 21.0 32.45 21.65 35.4 21.6 M32.05 23.7 Q30.8 22.05 32.1 20.4 L32.25 20.3 Q33.9 18.95 35.6 20.25 L35.8 20.5 Q37.0 22.1 35.7 23.75 L35.55 23.9 Q33.9 25.2 32.2 23.85 L32.05 23.7 M35.4 48.0 Q37.9 50.5 35.05 52.15 L32.75 52.05 Q31.1 50.6 32.2 48.6 33.2 47.3 35.0 47.8 L35.4 48.0 M32.4 22.2 L32.8 22.85 35.05 22.8 35.35 22.15 32.4 22.2 M20.1 34.85 Q19.2 34.05 19.3 32.95 19.55 30.6 21.75 30.6 23.45 30.5 23.95 32.0 24.55 33.8 23.2 34.9 L20.1 34.85 M23.55 48.15 Q24.4 48.75 24.5 49.6 24.85 52.4 22.1 52.65 21.25 52.3 20.65 51.7 18.85 49.95 20.8 48.1 L23.55 48.15 M9.4 44.7 L9.2 45.45 Q9.35 46.9 10.75 47.05 L11.55 46.85 9.4 44.7 M9.05 47.25 L8.8 46.95 Q7.8 45.3 9.05 43.7 10.1 42.75 11.45 43.15 L12.0 43.35 Q13.1 43.95 13.25 45.45 13.05 47.15 11.75 47.7 10.7 48.45 9.05 47.25 M12.35 45.45 Q12.2 44.05 10.75 43.9 L10.0 44.1 12.15 46.25 12.35 45.45 M14.2 38.7 L7.45 38.8 8.6 53.65 Q9.45 54.1 10.5 54.05 L14.1 53.7 14.2 38.7 M21.65 31.4 L20.9 31.6 23.05 33.75 23.25 32.95 Q23.1 31.55 21.65 31.4 M22.45 34.35 L20.3 32.2 20.1 32.95 Q20.35 34.35 21.65 34.55 L22.45 34.35 M22.15 48.6 Q21.45 48.65 21.1 49.0 20.65 49.4 20.55 50.15 L20.75 50.9 22.85 48.8 22.15 48.6 M35.3 49.15 L33.1 49.1 32.65 49.55 32.6 50.35 35.3 49.15 M25.55 28.05 L17.9 28.15 19.3 53.15 24.75 53.25 25.55 28.05 M41.95 51.4 L41.85 49.6 38.7 51.3 38.55 53.05 38.35 54.05 42.0 52.4 41.95 51.4 M25.95 54.9 L23.3 55.25 Q28.6 56.35 33.95 55.25 L30.85 54.9 Q29.8 54.75 29.55 53.85 L29.45 53.4 26.6 53.3 25.95 54.9 M33.2 51.4 L34.55 51.7 35.7 49.95 33.2 51.4 M21.35 51.55 L22.1 51.75 Q23.9 51.55 23.6 49.7 L21.35 51.55 M15.15 51.45 L15.15 52.25 17.45 53.45 17.3 52.6 Q17.2 51.75 17.25 50.65 L15.1 49.4 15.15 51.45" fill="#5d0035" fill-rule="evenodd" stroke="none"/>
      <path d="M50.75 10.0 L50.45 13.35 Q49.55 33.1 49.45 52.9 L47.55 53.2 43.95 52.95 Q43.45 50.9 43.4 48.6 42.7 27.1 42.35 5.6 L51.2 5.6 50.75 10.0 M48.95 12.35 Q48.9 10.75 48.2 9.75 47.5 8.7 46.6 8.8 45.7 8.9 45.1 10.1 44.5 11.25 44.55 12.65 L44.6 45.2 Q43.75 46.05 44.1 47.55 44.8 49.15 46.3 49.2 46.8 49.75 47.7 49.65 L48.1 48.55 Q49.15 47.55 48.65 46.05 L48.3 45.2 48.05 41.5 Q47.2 35.85 47.35 30.15 47.65 21.15 48.95 12.35 M38.0 18.15 Q36.9 35.65 37.55 53.2 L37.5 53.45 31.25 53.15 29.9 16.9 38.1 16.8 38.0 18.15 M35.55 23.9 L35.7 23.75 Q37.0 22.1 35.8 20.5 L35.6 20.25 Q33.9 18.95 32.25 20.3 L32.1 20.4 Q30.8 22.05 32.05 23.7 32.7 32.75 31.85 41.85 31.65 43.75 31.7 45.7 31.7 47.3 32.2 48.6 31.1 50.6 32.75 52.05 L35.05 52.15 Q37.9 50.5 35.4 48.0 34.65 36.55 35.35 25.1 L35.55 23.9 M23.2 34.9 Q24.55 33.8 23.95 32.0 23.45 30.5 21.75 30.6 19.55 30.6 19.3 32.95 19.2 34.05 20.1 34.85 L20.8 48.1 Q18.85 49.95 20.65 51.7 21.25 52.3 22.1 52.65 24.85 52.4 24.5 49.6 24.4 48.75 23.55 48.15 L23.2 34.9 M9.05 43.7 Q7.8 45.3 8.8 46.95 L9.05 47.25 Q8.85 50.0 10.4 52.15 10.75 52.65 11.4 52.4 L11.75 47.7 Q13.05 47.15 13.25 45.45 13.1 43.95 12.0 43.35 12.3 41.75 11.6 40.3 L11.4 40.05 10.2 39.95 Q8.8 41.5 9.05 43.7 M14.2 38.7 L14.1 53.7 10.5 54.05 Q9.45 54.1 8.6 53.65 L7.45 38.8 14.2 38.7 M25.55 28.05 L24.75 53.25 19.3 53.15 17.9 28.15 25.55 28.05" fill="#e3c1d7" fill-rule="evenodd" stroke="none"/>
      <path d="M6.5 43.3 L6.6 44.65 Q1.65 37.85 1.4 28.65 1.7 17.1 9.4 9.45 17.05 1.75 28.6 1.45 35.75 1.65 41.4 4.8 L41.2 4.9 Q41.05 4.75 40.95 5.25 35.45 2.3 28.5 2.1 17.25 2.4 9.8 9.9 2.3 17.35 2.0 28.6 2.2 37.0 6.5 43.3 M40.85 11.15 L41.0 14.95 Q38.6 13.0 35.2 12.55 30.25 11.95 25.95 12.6 16.7 14.25 11.6 22.15 8.2 28.0 10.7 34.3 L12.05 37.4 9.6 37.55 Q7.6 32.95 7.75 27.7 7.85 22.9 10.4 19.05 15.75 11.05 25.25 9.1 33.55 7.45 40.85 11.15 M41.95 38.3 L41.95 42.75 39.4 43.95 Q39.25 42.35 39.25 40.75 L41.95 38.3 M29.3 44.85 L29.25 47.1 27.4 47.55 27.4 45.1 29.3 44.85 M17.4 42.55 L17.4 46.3 16.15 45.55 15.9 41.9 17.4 42.55 M52.05 16.5 L52.1 15.6 Q55.4 21.65 55.55 29.2 55.35 38.0 50.85 44.4 L50.85 42.75 Q54.75 36.6 54.95 28.6 54.75 21.85 52.05 16.5 M41.95 51.4 L42.0 52.4 38.35 54.05 38.55 53.05 41.95 51.4 M30.85 54.9 L33.95 55.25 Q28.6 56.35 23.3 55.25 L25.95 54.9 30.85 54.9 M17.3 52.6 L17.45 53.45 15.15 52.25 15.15 51.45 17.3 52.6" fill="#d2c0c0" fill-rule="evenodd" stroke="none"/>
      <path d="M44.15 4.15 L43.5 4.2 Q37.0 0.25 28.6 0.05 L29.2 0.0 Q37.65 0.2 44.15 4.15 M1.3 37.15 Q3.0 42.7 6.85 47.2 L6.9 47.7 Q2.95 43.0 1.3 37.15" fill="#8d3f6d" fill-rule="evenodd" stroke="none"/>
      <path d="M40.8 9.45 L40.85 11.15 Q33.55 7.45 25.25 9.1 15.75 11.05 10.4 19.05 7.85 22.9 7.75 27.7 7.6 32.95 9.6 37.55 L12.05 37.4 14.45 37.8 7.95 37.8 Q3.5 25.3 11.45 14.7 17.0 7.25 26.3 6.1 34.15 5.3 40.8 9.45 M41.95 42.75 L41.85 47.1 39.25 48.7 38.7 49.4 38.9 15.85 30.2 15.55 Q33.5 13.75 37.2 14.75 40.15 15.65 39.9 19.05 39.05 29.85 39.25 40.75 39.25 42.35 39.4 43.95 L41.95 42.75 M29.25 47.1 L29.25 51.35 26.7 51.5 26.7 27.55 26.4 27.25 Q22.25 25.8 17.8 27.05 19.55 26.25 21.6 26.15 L24.6 26.45 Q27.6 26.9 27.45 30.1 27.1 37.6 27.4 45.1 L27.4 47.55 29.25 47.1 M17.4 46.3 L17.35 48.85 15.05 47.8 15.3 38.55 15.9 41.9 16.15 45.55 17.4 46.3" fill="#bda3a3" fill-rule="evenodd" stroke="none"/>
      <path d="M7.95 37.8 L6.95 38.05 Q5.2 33.9 5.05 28.9 5.3 19.0 12.0 12.3 18.7 5.6 28.65 5.3 35.55 5.45 40.8 8.75 L40.8 9.45 Q34.15 5.3 26.3 6.1 17.0 7.25 11.45 14.7 3.5 25.3 7.95 37.8 M41.85 47.1 L41.85 47.95 38.7 49.8 38.7 49.4 39.25 48.7 41.85 47.1 M29.25 51.35 L29.25 52.05 26.7 51.95 26.7 51.5 29.25 51.35 M51.15 34.95 L51.65 24.65 51.85 28.65 Q51.9 31.85 51.15 34.95" fill="#aa8888" fill-rule="evenodd" stroke="none"/>
      <path d="M45.1 11.4 Q45.25 10.0 46.65 9.85 L47.45 10.1 45.35 12.2 45.1 11.4 M46.3 12.95 L48.05 10.7 Q48.75 12.6 46.65 13.0 L46.3 12.95 M44.9 46.45 L47.6 47.8 46.85 48.1 Q45.45 48.6 44.9 47.25 L44.9 46.45 M47.9 46.25 L47.95 47.0 45.3 45.7 Q45.55 45.45 45.9 45.3 47.35 44.95 47.9 46.25 M35.4 21.6 L32.45 21.65 32.75 21.0 35.0 20.95 35.4 21.6 M32.4 22.2 L35.35 22.15 35.05 22.8 32.8 22.85 32.4 22.2 M9.4 44.7 L11.55 46.85 10.75 47.05 Q9.35 46.9 9.2 45.45 L9.4 44.7 M12.35 45.45 L12.15 46.25 10.0 44.1 10.75 43.9 Q12.2 44.05 12.35 45.45 M22.45 34.35 L21.65 34.55 Q20.35 34.35 20.1 32.95 L20.3 32.2 22.45 34.35 M21.65 31.4 Q23.1 31.55 23.25 32.95 L23.05 33.75 20.9 31.6 21.65 31.4 M22.15 48.6 L22.85 48.8 20.75 50.9 20.55 50.15 Q20.65 49.4 21.1 49.0 21.45 48.65 22.15 48.6 M35.3 49.15 L32.6 50.35 32.65 49.55 33.1 49.1 35.3 49.15 M33.2 51.4 L35.7 49.95 34.55 51.7 33.2 51.4 M21.35 51.55 L23.6 49.7 Q23.9 51.55 22.1 51.75 L21.35 51.55" fill="#a68884" fill-rule="evenodd" stroke="none"/>
      <path d="M48.95 12.35 Q47.65 21.15 47.35 30.15 47.2 35.85 48.05 41.5 L48.3 45.2 Q47.35 44.0 45.65 44.45 L44.6 45.2 44.55 12.65 Q45.1 13.75 46.65 13.9 48.4 13.7 48.95 12.35 M48.1 48.55 L47.7 49.65 Q46.8 49.75 46.3 49.2 L48.1 48.55 M35.55 23.9 L35.35 25.1 Q34.65 36.55 35.4 48.0 L35.0 47.8 Q33.2 47.3 32.2 48.6 31.7 47.3 31.7 45.7 31.65 43.75 31.85 41.85 32.7 32.75 32.05 23.7 L32.2 23.85 Q33.9 25.2 35.55 23.9 M20.1 34.85 L23.2 34.9 23.55 48.15 20.8 48.1 20.1 34.85 M9.05 43.7 Q8.8 41.5 10.2 39.95 L11.4 40.05 11.6 40.3 Q12.3 41.75 12.0 43.35 L11.45 43.15 Q10.1 42.75 9.05 43.7 M11.75 47.7 L11.4 52.4 Q10.75 52.65 10.4 52.15 8.85 50.0 9.05 47.25 10.7 48.45 11.75 47.7" fill="#c7abb9" fill-rule="evenodd" stroke="none"/>
      <path d="M40.95 5.25 L40.85 7.15 Q31.5 2.15 21.3 5.15 11.65 8.15 7.05 17.05 1.4 28.1 6.05 39.7 L6.35 41.05 6.5 43.3 Q2.2 37.0 2.0 28.6 2.3 17.35 9.8 9.9 17.25 2.4 28.5 2.1 35.45 2.3 40.95 5.25 M41.0 14.95 L41.95 38.3 39.25 40.75 Q39.05 29.85 39.9 19.05 40.15 15.65 37.2 14.75 33.5 13.75 30.2 15.55 L28.85 16.2 29.3 44.85 27.4 45.1 Q27.1 37.6 27.45 30.1 27.6 26.9 24.6 26.45 L21.6 26.15 Q19.55 26.25 17.8 27.05 L16.8 27.7 17.4 42.55 15.9 41.9 15.3 38.55 14.45 37.8 12.05 37.4 10.7 34.3 Q8.2 28.0 11.6 22.15 16.7 14.25 25.95 12.6 30.25 11.95 35.2 12.55 38.6 13.0 41.0 14.95 M50.85 42.75 Q50.6 40.15 51.5 38.1 53.35 33.65 53.2 28.65 53.15 26.45 52.6 24.4 51.5 20.6 52.05 16.5 54.75 21.85 54.95 28.6 54.75 36.6 50.85 42.75 M38.55 53.05 L38.7 51.3 41.85 49.6 41.95 51.4 38.55 53.05 M25.95 54.9 L26.6 53.3 29.45 53.4 29.55 53.85 Q29.8 54.75 30.85 54.9 L25.95 54.9 M15.15 51.45 L15.1 49.4 17.25 50.65 Q17.2 51.75 17.3 52.6 L15.15 51.45" fill="#e3d7d7" fill-rule="evenodd" stroke="none"/>
    </g>
    <g id="text0" transform="matrix(1.0, 0.0, 0.0, 1.0, -1.2, -5.75)">
      <g transform="matrix(1.0, 0.0, 0.0, 1.0, 0.0, 0.0)">
        <use fill="#ffffff" height="17.5" transform="matrix(0.4746, 0.0, 0.0, 0.4746, 0.0, 21.0)" width="141.7" xlink:href="#font_______W7_M0"/>
        <use fill="#ffffff" height="17.5" transform="matrix(0.4746, 0.0, 0.0, 0.4746, 19.15, 21.0)" width="141.7" xlink:href="#font_______W7_i0"/>
        <use fill="#ffffff" height="17.5" transform="matrix(0.4746, 0.0, 0.0, 0.4746, 27.95, 21.0)" width="141.7" xlink:href="#font_______W7_c0"/>
        <use fill="#ffffff" height="17.5" transform="matrix(0.4746, 0.0, 0.0, 0.4746, 40.8, 21.0)" width="141.7" xlink:href="#font_______W7_r0"/>
        <use fill="#ffffff" height="17.5" transform="matrix(0.4746, 0.0, 0.0, 0.4746, 49.75, 21.0)" width="141.7" xlink:href="#font_______W7_o0"/>
        <use fill="#ffffff" height="17.5" transform="matrix(0.4746, 0.0, 0.0, 0.4746, 62.6, 21.0)" width="141.7" xlink:href="#font_______W7_m0"/>
        <use fill="#ffffff" height="17.5" transform="matrix(0.4746, 0.0, 0.0, 0.4746, 80.1, 21.0)" width="141.7" xlink:href="#font_______W7_a0"/>
        <use fill="#ffffff" height="17.5" transform="matrix(0.4746, 0.0, 0.0, 0.4746, 93.9, 21.0)" width="141.7" xlink:href="#font_______W7_n0"/>
        <use fill="#ffffff" height="17.5" transform="matrix(0.4746, 0.0, 0.0, 0.4746, 107.5, 21.0)" width="141.7" xlink:href="#font_______W7_g0"/>
        <use fill="#ffffff" height="17.5" transform="matrix(0.4746, 0.0, 0.0, 0.4746, 120.8, 21.0)" width="141.7" xlink:href="#font_______W7_e0"/>
        <use fill="#ffffff" height="17.5" transform="matrix(0.4746, 0.0, 0.0, 0.4746, 134.2, 21.0)" width="141.7" xlink:href="#font_______W7_r0"/>
      </g>
    </g>
    <g id="font_______W7_M0">
      <path d="M35.55 -31.55 L35.55 -31.55 30.8 -32.15 20.2 -14.25 9.85 -31.5 5.1 -32.15 2.55 0.05 12.6 -1.4 10.85 -20.45 18.7 -2.25 22.0 -3.05 29.9 -20.9 28.25 0.05 38.3 -1.4 35.55 -31.55" fill-rule="evenodd" stroke="none"/>
    </g>
    <g id="font_______W7_i0">
      <path d="M11.6 -20.75 L11.6 -20.75 6.75 -21.45 4.45 0.05 14.3 -1.4 11.6 -20.75 M11.9 -31.5 L11.9 -31.5 6.5 -32.15 4.9 -24.95 13.2 -26.1 11.9 -31.5" fill-rule="evenodd" stroke="none"/>
    </g>
    <g id="font_______W7_c0">
      <path d="M21.35 -12.5 L21.35 -12.5 Q19.95 -10.5 17.75 -9.15 15.35 -7.6 13.15 -7.6 11.4 -7.6 10.2 -8.85 8.9 -10.05 8.9 -11.8 8.9 -14.1 10.65 -15.4 12.2 -16.55 14.55 -16.55 18.9 -16.55 21.9 -13.7 L24.4 -17.55 Q19.65 -21.45 13.1 -21.45 8.05 -21.45 4.9 -18.4 1.8 -15.3 1.8 -10.3 1.8 -5.6 5.7 -2.65 9.25 0.05 14.1 0.05 17.2 0.05 20.45 -1.1 24.05 -2.3 25.9 -4.4 L21.35 -12.5" fill-rule="evenodd" stroke="none"/>
    </g>
    <g id="font_______W7_r0">
      <path d="M18.3 -20.6 L18.3 -20.6 Q16.55 -21.45 14.75 -21.45 11.5 -21.45 8.7 -18.65 L8.45 -20.75 4.45 -21.45 2.55 0.05 10.65 -1.4 9.3 -12.8 Q10.55 -14.85 12.3 -14.85 13.25 -14.85 14.55 -13.85 L16.55 -12.05 18.3 -20.6" fill-rule="evenodd" stroke="none"/>
    </g>
    <g id="font_______W7_o0">
      <path d="M15.8 -13.5 L15.8 -13.5 Q16.45 -11.85 16.45 -10.4 16.45 -6.85 12.35 -6.85 10.6 -6.85 9.35 -8.05 8.15 -9.35 8.15 -11.05 8.15 -13.25 9.8 -14.6 11.4 -16.0 13.7 -16.0 16.1 -16.0 18.3 -14.3 L15.8 -13.5 M25.7 -11.4 L25.7 -11.4 Q25.7 -13.8 24.75 -16.35 L21.25 -15.25 22.7 -17.2 Q18.35 -21.45 13.15 -21.45 8.45 -21.45 5.1 -18.2 1.8 -14.95 1.8 -10.3 1.8 -5.5 5.4 -2.65 8.65 0.05 13.65 0.05 18.75 0.05 22.2 -3.2 25.7 -6.4 25.7 -11.4" fill-rule="evenodd" stroke="none"/>
    </g>
    <g id="font_______W7_m0">
      <path d="M35.35 -9.0 L35.35 -9.0 Q35.35 -21.45 27.8 -21.45 24.2 -21.45 21.15 -18.8 19.2 -21.45 15.65 -21.45 12.4 -21.45 9.45 -19.2 L9.25 -20.75 4.35 -21.45 2.05 0.05 11.95 -1.4 10.25 -13.85 Q12.25 -15.8 13.75 -15.8 16.4 -15.8 16.4 -11.2 16.4 -8.95 15.2 -5.8 L12.95 -0.75 22.1 0.1 Q23.3 -4.75 23.3 -9.55 23.3 -12.35 22.95 -14.3 24.5 -15.7 25.75 -15.7 28.25 -15.7 28.25 -11.2 28.25 -7.95 25.1 -0.65 L34.25 0.2 Q35.35 -4.25 35.35 -9.0" fill-rule="evenodd" stroke="none"/>
    </g>
    <g id="font_______W7_a0">
      <path d="M19.05 -8.85 L19.05 -8.85 18.5 -5.05 17.1 -9.0 Q14.35 -6.2 10.6 -6.2 9.95 -6.2 9.45 -6.75 9.0 -7.2 9.0 -7.85 9.0 -10.2 13.7 -10.2 15.9 -10.2 19.05 -8.85 M27.4 -6.8 L27.4 -6.8 Q27.4 -21.45 13.35 -21.45 7.15 -21.45 2.55 -18.35 L4.3 -14.35 Q8.3 -16.55 13.15 -16.55 17.85 -16.55 18.85 -13.35 15.4 -14.5 12.8 -14.5 8.6 -14.5 5.6 -12.8 1.8 -10.75 1.8 -6.95 1.8 -3.5 4.9 -1.55 7.55 0.05 11.15 0.05 13.95 0.05 17.35 -0.95 L17.0 0.15 26.7 -0.3 Q27.4 -3.45 27.4 -6.8" fill-rule="evenodd" stroke="none"/>
    </g>
    <g id="font_______W7_n0">
      <path d="M27.0 -9.05 L27.0 -9.05 Q27.0 -14.5 24.65 -17.8 21.9 -21.45 16.6 -21.45 12.6 -21.45 9.45 -18.85 L9.2 -20.75 4.35 -21.45 2.05 0.05 11.95 -1.4 10.35 -12.55 Q12.95 -15.85 15.9 -15.85 19.4 -15.85 19.4 -10.6 19.4 -6.9 16.6 -1.3 L26.2 0.0 Q27.0 -6.5 27.0 -9.05" fill-rule="evenodd" stroke="none"/>
    </g>
    <g id="font_______W7_g0">
      <path d="M21.25 -12.75 L21.25 -12.75 21.05 -10.5 18.9 -14.7 Q15.2 -11.7 11.9 -11.7 10.85 -11.7 10.0 -12.55 9.05 -13.45 9.05 -14.45 9.05 -16.75 13.35 -16.75 15.6 -16.75 18.05 -15.7 20.3 -14.7 21.2 -13.55 L21.25 -12.75 M26.3 -10.4 L26.3 -10.4 Q26.3 -15.45 24.2 -21.5 L20.0 -20.3 20.3 -19.15 Q16.35 -21.45 12.1 -21.45 8.15 -21.45 5.4 -19.3 2.35 -16.95 2.35 -13.2 2.35 -9.45 5.85 -7.35 8.8 -5.6 12.75 -5.6 16.55 -5.6 19.75 -6.9 17.8 -3.95 13.25 -3.95 8.55 -3.95 4.75 -6.35 L1.8 2.9 Q6.7 4.75 11.2 4.75 18.25 4.75 22.25 0.65 26.3 -3.4 26.3 -10.4" fill-rule="evenodd" stroke="none"/>
    </g>
    <g id="font_______W7_e0">
      <path d="M19.45 -9.9 L19.45 -9.9 Q16.75 -7.55 13.6 -7.55 10.45 -7.55 9.15 -9.9 L19.45 -9.9 M9.0 -13.4 L9.0 -13.4 Q9.7 -14.95 11.5 -15.95 13.2 -16.8 15.1 -16.8 18.05 -16.8 19.65 -14.35 L9.0 -13.4 M23.25 -9.9 L23.25 -9.9 24.3 -9.9 26.7 -12.6 Q25.85 -16.7 22.9 -19.1 19.9 -21.45 15.15 -21.45 9.65 -21.45 5.9 -18.65 1.8 -15.6 1.8 -10.4 1.8 -5.35 5.8 -2.5 9.3 0.05 14.6 0.05 22.45 0.05 27.15 -4.25 L23.25 -9.9" fill-rule="evenodd" stroke="none"/>
    </g>
    <g id="text1" transform="matrix(1.0, 0.0, 0.0, 1.0, -0.45, -5.75)">
      <g transform="matrix(1.0, 0.0, 0.0, 1.0, 0.0, 0.0)">
        <use fill="#ffffff" height="41.3" transform="matrix(0.4746, 0.0, 0.0, 0.4746, 0.0, 21.0)" width="124.6" xlink:href="#font_______W7_A0"/>
        <use fill="#ffffff" height="41.3" transform="matrix(0.4746, 0.0, 0.0, 0.4746, 17.9, 21.0)" width="124.6" xlink:href="#font_______W7_m0"/>
        <use fill="#ffffff" height="41.3" transform="matrix(0.4746, 0.0, 0.0, 0.4746, 35.4, 21.0)" width="124.6" xlink:href="#font_______W7_b0"/>
        <use fill="#ffffff" height="41.3" transform="matrix(0.4746, 0.0, 0.0, 0.4746, 49.45, 21.0)" width="124.6" xlink:href="#font_______W7_u0"/>
        <use fill="#ffffff" height="41.3" transform="matrix(0.4746, 0.0, 0.0, 0.4746, 62.95, 21.0)" width="124.6" xlink:href="#font_______W7_l0"/>
        <use fill="#ffffff" height="41.3" transform="matrix(0.4746, 0.0, 0.0, 0.4746, 71.75, 21.0)" width="124.6" xlink:href="#font_______W7_a0"/>
        <use fill="#ffffff" height="41.3" transform="matrix(0.4746, 0.0, 0.0, 0.4746, 85.55, 21.0)" width="124.6" xlink:href="#font_______W7_n0"/>
        <use fill="#ffffff" height="41.3" transform="matrix(0.4746, 0.0, 0.0, 0.4746, 99.15, 21.0)" width="124.6" xlink:href="#font_______W7_c0"/>
        <use fill="#ffffff" height="41.3" transform="matrix(0.4746, 0.0, 0.0, 0.4746, 112.05, 21.0)" width="124.6" xlink:href="#font_______W7_e0"/>
      </g>
      <g transform="matrix(1.0, 0.0, 0.0, 1.0, 0.0, 0.0)">
        <use fill="#ffffff" height="41.3" transform="matrix(0.4746, 0.0, 0.0, 0.4746, 23.0, 47.0)" width="124.6" xlink:href="#font_______W7_C0"/>
        <use fill="#ffffff" height="41.3" transform="matrix(0.4746, 0.0, 0.0, 0.4746, 39.15, 47.0)" width="124.6" xlink:href="#font_______W7_h0"/>
        <use fill="#ffffff" height="41.3" transform="matrix(0.4746, 0.0, 0.0, 0.4746, 53.3, 47.0)" width="124.6" xlink:href="#font_______W7_a0"/>
        <use fill="#ffffff" height="41.3" transform="matrix(0.4746, 0.0, 0.0, 0.4746, 67.1, 47.0)" width="124.6" xlink:href="#font_______W7_s0"/>
        <use fill="#ffffff" height="41.3" transform="matrix(0.4746, 0.0, 0.0, 0.4746, 79.55, 47.0)" width="124.6" xlink:href="#font_______W7_e0"/>
        <use fill="#ffffff" height="41.3" transform="matrix(0.4746, 0.0, 0.0, 0.4746, 93.0, 47.0)" width="124.6" xlink:href="#font_______W7_r0"/>
      </g>
    </g>
    <g id="font_______W7_A0">
      <path d="M14.9 -11.95 L14.9 -11.95 19.2 -22.85 22.9 -13.4 14.9 -11.95 M21.7 -29.25 L21.7 -29.25 22.1 -30.3 17.9 -32.15 0.75 -4.5 10.15 0.05 12.75 -6.5 25.6 -6.5 28.15 0.05 37.4 -4.5 21.7 -29.25" fill-rule="evenodd" stroke="none"/>
    </g>
    <g id="font_______W7_b0">
      <path d="M20.9 -12.9 L20.9 -12.9 Q20.9 -9.4 17.6 -9.4 15.3 -9.4 13.25 -11.85 L11.45 -8.4 10.95 -14.2 Q13.25 -16.5 16.3 -16.5 17.85 -16.5 19.35 -15.5 20.9 -14.45 20.9 -12.9 M28.25 -10.45 L28.25 -10.45 Q28.25 -15.0 25.1 -18.25 21.9 -21.45 17.35 -21.45 13.75 -21.45 10.5 -19.25 L9.35 -31.5 4.65 -32.15 2.05 0.05 12.15 -0.75 12.15 -2.05 Q14.7 0.05 18.2 0.05 22.6 0.05 25.4 -3.0 28.25 -6.0 28.25 -10.45" fill-rule="evenodd" stroke="none"/>
    </g>
    <g id="font_______W7_u0">
      <path d="M24.1 -20.75 L24.1 -20.75 19.25 -21.45 17.9 -8.95 16.15 -11.65 Q13.35 -8.1 10.6 -8.1 9.0 -8.1 8.15 -9.4 7.25 -10.65 7.25 -12.3 7.25 -15.75 8.6 -19.75 L3.9 -21.15 Q2.05 -16.35 2.05 -11.4 2.05 -6.45 4.25 -3.4 6.75 0.05 11.5 0.05 14.55 0.05 17.1 -1.5 L16.95 0.1 26.8 -1.35 24.1 -20.75" fill-rule="evenodd" stroke="none"/>
    </g>
    <g id="font_______W7_l0">
      <path d="M11.6 -31.5 L11.6 -31.5 6.9 -32.15 4.35 0.05 14.4 -1.4 11.6 -31.5" fill-rule="evenodd" stroke="none"/>
    </g>
    <g id="font_______W7_C0">
      <path d="M26.2 -15.4 L26.2 -15.4 Q21.6 -8.3 16.1 -8.3 12.35 -8.3 10.4 -10.7 8.6 -12.9 8.6 -16.75 8.6 -21.2 11.05 -23.95 13.55 -26.6 17.95 -26.6 23.65 -26.6 27.3 -22.25 L31.1 -26.05 Q28.65 -28.9 25.1 -30.55 21.55 -32.15 17.8 -32.15 10.8 -32.15 6.45 -27.4 2.05 -22.7 2.05 -15.6 2.05 -8.95 6.35 -4.45 10.7 0.05 17.3 0.05 25.6 0.05 32.65 -7.35 L26.2 -15.4" fill-rule="evenodd" stroke="none"/>
    </g>
    <g id="font_______W7_h0">
      <path d="M28.1 -7.6 L28.1 -7.6 Q28.1 -13.7 25.7 -17.25 22.9 -21.45 17.05 -21.45 13.35 -21.45 10.45 -19.3 L9.3 -31.55 4.65 -32.15 2.05 0.05 12.1 -1.4 11.0 -12.9 Q13.45 -15.95 16.35 -15.95 20.1 -15.95 20.1 -10.2 20.1 -6.55 17.6 -1.55 L27.6 0.05 28.1 -7.6" fill-rule="evenodd" stroke="none"/>
    </g>
    <g id="font_______W7_s0">
      <path d="M25.05 -6.35 L25.05 -6.35 Q25.05 -12.25 15.35 -13.65 8.7 -14.6 8.7 -15.7 8.7 -17.05 12.35 -17.05 17.1 -17.05 22.25 -14.8 L23.8 -18.2 Q19.05 -21.45 12.25 -21.45 8.55 -21.45 6.05 -20.35 2.6 -18.85 2.6 -15.7 2.6 -13.1 4.75 -11.8 6.5 -10.75 10.95 -10.05 L16.3 -8.95 Q17.8 -8.4 17.8 -7.5 17.8 -6.2 15.25 -6.2 12.3 -6.2 9.1 -7.45 5.9 -8.7 3.8 -10.65 L1.0 -2.6 Q6.45 0.05 14.3 0.05 25.05 0.05 25.05 -6.35" fill-rule="evenodd" stroke="none"/>
    </g>
    <g id="text2" transform="matrix(1.0, 0.0, 0.0, 1.0, -1.2, -5.75)">
      <g transform="matrix(1.0, 0.0, 0.0, 1.0, 0.0, 0.0)">
        <use fill="#ffffff" height="15.3" transform="matrix(0.4746, 0.0, 0.0, 0.4746, 0.0, 21.0)" width="154.25" xlink:href="#font_______W7_B0"/>
        <use fill="#ffffff" height="15.3" transform="matrix(0.4746, 0.0, 0.0, 0.4746, 16.85, 21.0)" width="154.25" xlink:href="#font_______W7_e0"/>
        <use fill="#ffffff" height="15.3" transform="matrix(0.4746, 0.0, 0.0, 0.4746, 30.3, 21.0)" width="154.25" xlink:href="#font_______W7_a0"/>
        <use fill="#ffffff" height="15.3" transform="matrix(0.4746, 0.0, 0.0, 0.4746, 44.1, 21.0)" width="154.25" xlink:href="#font_______W7_n0"/>
        <use fill="#ffffff" height="15.3" transform="matrix(0.4746, 0.0, 0.0, 0.4746, 65.7, 21.0)" width="154.25" xlink:href="#font_______W7_C0"/>
        <use fill="#ffffff" height="15.3" transform="matrix(0.4746, 0.0, 0.0, 0.4746, 81.85, 21.0)" width="154.25" xlink:href="#font_______W7_o0"/>
        <use fill="#ffffff" height="15.3" transform="matrix(0.4746, 0.0, 0.0, 0.4746, 94.75, 21.0)" width="154.25" xlink:href="#font_______W7_u0"/>
        <use fill="#ffffff" height="15.3" transform="matrix(0.4746, 0.0, 0.0, 0.4746, 108.25, 21.0)" width="154.25" xlink:href="#font_______W7_n0"/>
        <use fill="#ffffff" height="15.3" transform="matrix(0.4746, 0.0, 0.0, 0.4746, 121.9, 21.0)" width="154.25" xlink:href="#font_______W7_t0"/>
        <use fill="#ffffff" height="15.3" transform="matrix(0.4746, 0.0, 0.0, 0.4746, 133.3, 21.0)" width="154.25" xlink:href="#font_______W7_e0"/>
        <use fill="#ffffff" height="15.3" transform="matrix(0.4746, 0.0, 0.0, 0.4746, 146.75, 21.0)" width="154.25" xlink:href="#font_______W7_r0"/>
      </g>
    </g>
    <g id="font_______W7_B0">
      <path d="M25.75 -11.3 L25.75 -11.3 Q25.75 -8.4 21.9 -8.4 18.5 -8.4 14.4 -12.15 L12.5 -7.75 11.95 -13.45 Q15.45 -15.85 18.95 -15.85 21.25 -15.85 23.3 -14.7 25.75 -13.4 25.75 -11.3 M23.15 -23.7 L23.15 -23.7 Q23.15 -22.05 21.2 -20.35 L19.0 -20.45 Q15.05 -20.45 11.45 -18.65 L10.85 -24.45 Q15.3 -26.5 18.75 -26.5 L21.55 -25.95 Q23.15 -25.2 23.15 -23.7 M33.9 -10.25 L33.9 -10.25 Q33.9 -14.55 29.85 -17.3 32.05 -20.45 32.05 -23.5 32.05 -27.75 28.35 -29.85 25.45 -31.6 20.9 -31.6 14.3 -31.6 10.4 -29.6 L10.2 -31.55 5.3 -32.15 2.55 0.05 13.15 -1.1 13.05 -2.3 Q17.4 -0.6 21.5 -0.6 26.1 -0.6 29.75 -3.05 33.9 -5.85 33.9 -10.25" fill-rule="evenodd" stroke="none"/>
    </g>
    <g id="font_______W7_t0">
      <path d="M18.7 -12.2 L18.7 -12.2 Q17.0 -9.35 14.9 -9.35 11.95 -9.35 11.95 -15.4 L21.65 -15.4 20.1 -22.55 12.4 -21.45 Q12.75 -24.2 13.6 -27.95 L8.95 -28.85 Q7.75 -24.65 7.1 -20.75 L0.75 -19.9 1.75 -15.4 6.55 -15.4 6.5 -12.55 Q6.5 -6.8 7.75 -4.05 9.5 0.05 14.55 0.05 19.1 0.05 23.25 -4.15 L18.7 -12.2" fill-rule="evenodd" stroke="none"/>
    </g>
    <g id="text3" transform="matrix(1.0, 0.0, 0.0, 1.0, -0.95, -5.7)">
      <g transform="matrix(1.0, 0.0, 0.0, 1.0, 0.0, 0.0)">
        <use fill="#ffffff" height="15.45" transform="matrix(0.4746, 0.0, 0.0, 0.4746, 0.0, 21.0)" width="130.2" xlink:href="#font_______W7_G0"/>
        <use fill="#ffffff" height="15.45" transform="matrix(0.4746, 0.0, 0.0, 0.4746, 16.95, 21.0)" width="130.2" xlink:href="#font_______W7_l0"/>
        <use fill="#ffffff" height="15.45" transform="matrix(0.4746, 0.0, 0.0, 0.4746, 25.75, 21.0)" width="130.2" xlink:href="#font_______W7_a0"/>
        <use fill="#ffffff" height="15.45" transform="matrix(0.4746, 0.0, 0.0, 0.4746, 39.55, 21.0)" width="130.2" xlink:href="#font_______W7_d0"/>
        <use fill="#ffffff" height="15.45" transform="matrix(0.4746, 0.0, 0.0, 0.4746, 53.5, 21.0)" width="130.2" xlink:href="#font_______W7_h0"/>
        <use fill="#ffffff" height="15.45" transform="matrix(0.4746, 0.0, 0.0, 0.4746, 67.65, 21.0)" width="130.2" xlink:href="#font_______W7_a0"/>
        <use fill="#ffffff" height="15.45" transform="matrix(0.4746, 0.0, 0.0, 0.4746, 81.45, 21.0)" width="130.2" xlink:href="#font_______W7_n0"/>
        <use fill="#ffffff" height="15.45" transform="matrix(0.4746, 0.0, 0.0, 0.4746, 95.05, 21.0)" width="130.2" xlink:href="#font_______W7_d0"/>
        <use fill="#ffffff" height="15.45" transform="matrix(0.4746, 0.0, 0.0, 0.4746, 109.0, 21.0)" width="130.2" xlink:href="#font_______W7_e0"/>
        <use fill="#ffffff" height="15.45" transform="matrix(0.4746, 0.0, 0.0, 0.4746, 122.45, 21.0)" width="130.2" xlink:href="#font_______W7_r0"/>
      </g>
    </g>
    <g id="font_______W7_G0">
      <path d="M32.3 -18.1 L32.3 -18.1 18.0 -16.6 18.9 -11.9 23.25 -11.9 Q20.15 -7.9 16.2 -7.9 12.45 -7.9 10.45 -10.35 8.6 -12.65 8.6 -16.5 8.6 -20.8 10.75 -23.45 13.05 -26.4 17.25 -26.4 23.2 -26.4 27.5 -21.3 L31.25 -25.15 Q28.6 -28.35 25.0 -30.25 21.2 -32.15 17.25 -32.15 10.5 -32.15 6.15 -27.05 2.05 -22.25 2.05 -15.35 2.05 -8.75 6.15 -4.35 10.25 0.05 16.8 0.05 21.35 0.05 25.6 -2.45 L25.1 0.35 34.1 -0.6 32.3 -18.1" fill-rule="evenodd" stroke="none"/>
    </g>
    <g id="font_______W7_d0">
      <path d="M18.35 -8.95 L18.35 -8.95 16.8 -11.9 Q14.75 -9.45 12.45 -9.45 10.9 -9.45 10.0 -10.4 9.1 -11.4 9.1 -12.95 9.1 -14.5 10.7 -15.6 12.15 -16.5 13.7 -16.5 16.6 -16.5 18.8 -14.55 L18.35 -8.95 M24.9 -31.55 L24.9 -31.55 20.15 -32.2 19.15 -19.55 Q16.05 -21.45 12.65 -21.45 8.15 -21.45 4.95 -18.25 1.8 -15.0 1.8 -10.5 1.8 -6.05 4.6 -3.05 7.4 0.05 11.85 0.05 14.65 0.05 17.7 -1.5 L17.6 0.0 27.65 -1.45 24.9 -31.55" fill-rule="evenodd" stroke="none"/>
    </g>
  </defs>
</svg>
