<?xml version="1.0" encoding="UTF-8" standalone="no"?>
<svg xmlns:xlink="http://www.w3.org/1999/xlink" height="323.05px" width="595.1px" xmlns="http://www.w3.org/2000/svg">
  <g transform="matrix(1.0, 0.0, 0.0, 1.0, 68.25, 14.45)">
    <use height="275.75" transform="matrix(0.7634, -0.0878, 0.0878, 0.7634, 3.95, 46.95)" width="157.5" xlink:href="#shape0"/>
    <use height="62.9" transform="matrix(0.749, -0.1702, 0.1702, 0.749, 57.1124, 189.9745)" width="60.15" xlink:href="#shape1"/>
    <use height="266.95" transform="matrix(0.7652, 0.0704, -0.0704, 0.7652, 130.95, 28.6)" width="161.45" xlink:href="#shape2"/>
    <use height="59.15" transform="matrix(0.7687, 0.0, 0.0, 0.7687, 157.5884, 169.05)" width="57.15" xlink:href="#shape3"/>
    <use height="276.1" transform="matrix(0.8284, -0.0692, 0.0692, 0.8284, 188.8, 47.35)" width="206.9" xlink:href="#shape4"/>
    <use height="260.2" transform="matrix(0.8861, 0.0705, -0.0705, 0.8861, 372.0, 40.75)" width="129.2" xlink:href="#shape5"/>
    <use height="57.25" transform="matrix(0.7329, 0.0583, -0.0583, 0.7329, 396.1233, 198.9058)" width="57.1" xlink:href="#shape6"/>
    <use height="57.2" transform="matrix(0.7651, -0.0639, 0.0639, 0.7651, 264.4977, 178.8605)" width="56.95" xlink:href="#shape7"/>
    <use height="15.25" transform="matrix(0.7634, -0.0878, 0.0878, 0.7634, -47.9794, 106.884)" width="112.65" xlink:href="#text0"/>
    <use height="15.35" transform="matrix(0.7687, 0.0, 0.0, 0.7687, 117.9724, 12.2699)" width="143.95" xlink:href="#text1"/>
    <use height="15.35" transform="matrix(0.7651, -0.0639, 0.0639, 0.7651, 205.0524, 281.7154)" width="192.5" xlink:href="#text2"/>
    <use height="15.35" transform="matrix(0.766, 0.0609, -0.0609, 0.766, 369.1664, 279.4085)" width="179.4" xlink:href="#text3"/>
  </g>
  <defs>
    <g id="shape0" transform="matrix(1.0, 0.0, 0.0, 1.0, 0.0, 0.0)">
      <path d="M94.0 43.25 L95.4 44.1 95.5 44.65 101.95 131.45 141.35 148.25 141.55 148.7 152.95 195.7 153.85 245.1 Q159.0 254.2 156.85 264.45 L129.25 273.3 124.3 269.5 123.4 275.25 122.5 275.75 39.0 275.75 Q36.5 271.7 37.4 266.8 L31.3 271.75 3.35 263.0 0.0 226.6 4.5 191.5 16.6 156.6 22.5 144.15 57.9 132.4 66.4 74.25 67.55 73.05 68.45 73.1 71.3 75.75 73.7 70.05 67.0 69.1 66.4 68.45 66.45 67.55 80.9 26.35 75.0 26.0 74.65 24.35 81.0 19.75 81.15 3.9 82.15 2.85 85.7 5.45 86.6 5.5 91.75 0.0 93.25 0.55 93.9 11.05 96.6 10.1 Q98.4 14.65 98.65 19.55 99.0 25.5 94.0 25.85 L92.3 25.9 91.85 26.4 90.95 26.6 84.3 26.6 78.35 43.2 88.7 35.25 89.4 35.6 Q85.2 41.35 79.95 45.85 L80.2 46.2 86.4 47.8 86.4 48.7 82.25 49.35 84.3 54.2 82.85 54.8 77.05 46.85 69.95 66.7 79.8 67.15 Q79.45 63.15 77.7 59.65 L72.65 63.7 72.0 62.85 Q72.75 61.35 73.9 60.2 75.8 58.2 78.45 57.7 86.4 86.55 86.8 116.9 L85.75 117.25 84.45 110.4 84.15 109.95 68.9 77.55 60.9 133.65 81.15 139.5 99.0 132.45 93.75 61.65 89.6 61.8 89.1 60.6 89.35 59.85 92.35 58.9 Q93.7 55.2 92.35 51.55 L90.3 56.5 88.85 56.4 88.85 54.65 Q88.95 51.9 90.05 49.5 L92.35 47.7 92.7 47.7 92.7 47.35 92.6 45.85 Q92.3 43.95 94.0 43.25 M90.95 12.0 L90.7 5.45 Q89.5 7.1 87.75 8.15 85.8 9.3 84.0 7.95 L84.0 12.35 90.95 12.0 M84.0 15.35 L84.0 16.95 86.85 15.2 84.0 15.35 M94.8 14.1 L81.0 23.35 94.95 22.7 94.8 14.1 M76.85 70.2 L73.2 78.95 84.0 104.55 Q82.7 87.15 80.25 70.15 L76.85 70.2 M42.15 142.3 L58.05 150.75 57.85 151.5 51.4 156.3 74.3 177.55 58.2 135.55 42.15 142.3 M75.9 142.95 L78.05 148.5 82.7 148.8 86.8 142.1 86.2 140.75 Q83.75 141.7 81.25 142.0 L77.1 141.5 75.9 142.95 M62.0 137.1 L66.8 149.7 74.0 140.6 62.0 137.1 M24.1 146.75 L19.8 156.75 34.5 171.9 41.0 253.6 40.5 254.85 42.0 262.85 40.35 264.45 40.5 272.75 80.5 272.75 76.55 183.75 48.0 157.25 47.6 155.65 53.55 151.1 37.05 142.4 24.1 146.75 M7.5 192.05 L3.05 226.9 5.35 244.85 10.55 239.1 11.25 238.65 25.25 234.8 26.0 234.8 Q26.4 234.9 26.7 235.15 L37.3 245.0 31.55 172.7 18.65 159.85 7.5 192.05 M71.0 160.6 L78.05 177.8 87.8 157.8 82.75 151.85 77.7 151.45 71.0 160.6 M75.3 149.7 L73.75 145.7 68.05 152.95 69.75 157.3 75.3 149.7 M92.75 146.85 L97.6 136.25 89.1 139.6 92.75 146.85 M101.35 135.3 L82.15 177.65 106.4 157.35 98.15 152.35 98.05 151.4 114.25 139.8 101.35 135.3 M110.0 158.25 L79.55 183.75 83.5 272.75 121.1 272.75 121.35 267.05 118.3 264.55 118.25 264.1 Q118.2 263.75 118.3 263.4 120.75 256.3 120.55 248.9 L120.9 248.3 124.5 173.4 124.65 172.85 135.5 149.0 117.7 141.05 102.35 151.7 Q107.2 153.7 110.3 157.55 L110.0 158.25 M89.15 154.75 L91.15 150.4 88.5 145.1 85.35 150.25 89.15 154.75 M135.1 239.45 Q142.6 238.05 149.5 240.8 L150.8 241.8 150.0 196.2 138.95 150.55 138.1 150.55 127.5 173.85 124.05 245.35 Q127.6 242.1 132.0 240.45 L134.8 239.55 123.7 249.75 123.8 250.35 125.35 255.7 125.45 255.9 127.3 259.2 136.9 257.9 Q137.35 256.25 138.1 254.8 138.3 254.35 138.85 254.4 L139.85 254.45 Q140.7 254.95 140.45 255.85 139.6 259.25 138.4 262.5 L137.7 262.9 136.8 262.8 136.15 262.0 Q136.05 261.7 136.1 261.4 L136.2 260.9 126.3 262.3 125.65 261.8 123.25 258.1 122.25 258.25 121.2 263.1 129.8 270.15 154.5 262.05 154.5 250.3 147.7 242.9 135.1 239.45 M12.45 241.45 L5.65 248.9 5.65 260.6 30.35 268.7 39.0 261.65 37.9 256.85 36.95 256.65 34.15 260.8 24.0 259.45 24.2 260.3 23.7 261.45 22.15 261.6 Q19.7 257.65 20.5 253.0 L20.8 252.6 21.95 252.8 22.45 253.75 23.25 256.45 32.85 257.75 Q35.8 253.45 36.45 248.3 L25.25 237.95 12.45 241.45" fill="#1a1a1a" fill-rule="evenodd" stroke="none"/>
      <path d="M90.95 12.0 L84.0 12.35 84.0 7.95 Q85.8 9.3 87.75 8.15 89.5 7.1 90.7 5.45 L90.95 12.0 M94.8 14.1 L94.95 22.7 81.0 23.35 94.8 14.1 M42.15 142.3 L58.2 135.55 74.3 177.55 51.4 156.3 57.85 151.5 58.05 150.75 42.15 142.3 M7.5 192.05 L18.65 159.85 31.55 172.7 37.3 245.0 26.7 235.15 Q26.4 234.9 26.0 234.8 L25.25 234.8 11.25 238.65 10.55 239.1 5.35 244.85 3.05 226.9 7.5 192.05 M24.1 146.75 L37.05 142.4 53.55 151.1 47.6 155.65 48.0 157.25 76.55 183.75 80.5 272.75 40.5 272.75 40.35 264.45 42.0 262.85 40.5 254.85 41.0 253.6 34.5 171.9 19.8 156.75 24.1 146.75 M110.0 158.25 L110.3 157.55 Q107.2 153.7 102.35 151.7 L117.7 141.05 135.5 149.0 124.65 172.85 124.5 173.4 120.9 248.3 120.55 248.9 Q120.75 256.3 118.3 263.4 118.2 263.75 118.25 264.1 L118.3 264.55 121.35 267.05 121.1 272.75 83.5 272.75 79.55 183.75 110.0 158.25 M101.35 135.3 L114.25 139.8 98.05 151.4 98.15 152.35 106.4 157.35 82.15 177.65 101.35 135.3 M134.8 239.55 L132.0 240.45 Q127.6 242.1 124.05 245.35 L127.5 173.85 138.1 150.55 138.95 150.55 150.0 196.2 150.8 241.8 149.5 240.8 Q142.6 238.05 135.1 239.45 L134.8 239.55" fill="#591f0b" fill-rule="evenodd" stroke="none"/>
      <path d="M94.0 25.85 L94.0 43.25 Q92.3 43.95 92.6 45.85 L92.7 47.35 92.35 47.7 90.05 49.5 90.95 26.6 91.85 26.4 92.3 25.9 94.0 25.85 M84.0 15.35 L86.85 15.2 84.0 16.95 84.0 15.35" fill="#000000" fill-rule="evenodd" stroke="none"/>
      <path d="M92.7 47.35 L92.7 47.7 92.35 47.7 92.7 47.35" fill="#ae8367" fill-rule="evenodd" stroke="none"/>
      <path d="M62.0 137.1 L74.0 140.6 66.8 149.7 62.0 137.1 M92.75 146.85 L89.1 139.6 97.6 136.25 92.75 146.85 M75.3 149.7 L69.75 157.3 68.05 152.95 73.75 145.7 75.3 149.7 M89.15 154.75 L85.35 150.25 88.5 145.1 91.15 150.4 89.15 154.75" fill="#d1b8a2" fill-rule="evenodd" stroke="none"/>
      <path d="M135.1 239.45 L147.7 242.9 154.5 250.3 154.5 262.05 129.8 270.15 121.2 263.1 122.25 258.25 123.25 258.1 125.65 261.8 126.3 262.3 136.2 260.9 136.1 261.4 Q136.05 261.7 136.15 262.0 L136.8 262.8 137.7 262.9 138.4 262.5 Q139.6 259.25 140.45 255.85 140.7 254.95 139.85 254.45 L138.85 254.4 Q138.3 254.35 138.1 254.8 137.35 256.25 136.9 257.9 L127.3 259.2 125.45 255.9 125.35 255.7 123.8 250.35 123.7 249.75 134.8 239.55 135.1 239.45 M12.45 241.45 L25.25 237.95 36.45 248.3 Q35.8 253.45 32.85 257.75 L23.25 256.45 22.45 253.75 21.95 252.8 20.8 252.6 20.5 253.0 Q19.7 257.65 22.15 261.6 L23.7 261.45 24.2 260.3 24.0 259.45 34.15 260.8 36.95 256.65 37.9 256.85 39.0 261.65 30.35 268.7 5.65 260.6 5.65 248.9 12.45 241.45" fill="#e6c6b0" fill-rule="evenodd" stroke="none"/>
      <path d="M90.05 49.5 Q88.95 51.9 88.85 54.65 L88.85 56.4 90.3 56.5 92.35 51.55 Q93.7 55.2 92.35 58.9 L89.35 59.85 89.1 60.6 89.6 61.8 93.75 61.65 99.0 132.45 81.15 139.5 60.9 133.65 68.9 77.55 84.15 109.95 84.45 110.4 85.75 117.25 86.8 116.9 Q86.4 86.55 78.45 57.7 75.8 58.2 73.9 60.2 72.75 61.35 72.0 62.85 L72.65 63.7 77.7 59.65 Q79.45 63.15 79.8 67.15 L69.95 66.7 77.05 46.85 82.85 54.8 84.3 54.2 82.25 49.35 86.4 48.7 86.4 47.8 80.2 46.2 79.95 45.85 Q85.2 41.35 89.4 35.6 L88.7 35.25 78.35 43.2 84.3 26.6 90.95 26.6 90.05 49.5 M76.85 70.2 L80.25 70.15 Q82.7 87.15 84.0 104.55 L73.2 78.95 76.85 70.2" fill="#94ba92" fill-rule="evenodd" stroke="none"/>
      <path d="M75.9 142.95 L77.1 141.5 81.25 142.0 Q83.75 141.7 86.2 140.75 L86.8 142.1 82.7 148.8 78.05 148.5 75.9 142.95 M71.0 160.6 L77.7 151.45 82.75 151.85 87.8 157.8 78.05 177.8 71.0 160.6" fill="#331c1a" fill-rule="evenodd" stroke="none"/>
    </g>
    <g id="shape1" transform="matrix(1.0, 0.0, 0.0, 1.0, -0.15, 0.0)">
      <path d="M41.2 3.95 L41.15 4.0 41.3 4.0 44.35 3.65 45.1 3.6 49.85 3.3 50.1 7.7 50.1 10.1 49.75 10.45 47.5 10.8 45.55 11.05 44.6 11.15 36.4 11.95 33.15 17.35 Q38.35 28.65 45.4 38.9 L48.7 43.9 40.45 52.5 40.25 52.7 38.35 54.95 36.45 57.35 35.6 58.4 34.3 60.1 33.5 61.15 32.05 62.9 Q30.6 62.8 29.95 61.3 L29.3 60.4 28.2 58.8 27.65 57.95 26.25 56.0 25.6 55.0 Q21.25 48.5 15.35 43.2 L15.05 42.65 Q23.8 32.45 27.0 19.2 L27.55 17.35 24.35 12.1 15.95 11.2 14.75 11.05 12.8 10.8 11.4 10.55 Q10.85 10.45 10.8 10.0 L10.75 9.2 10.75 7.2 11.0 3.3 16.05 3.65 18.8 3.95 19.5 4.05 19.3 3.75 Q18.95 3.3 19.25 2.85 L19.5 2.5 23.6 2.4 36.5 2.4 41.35 2.85 41.2 3.95 M44.4 6.85 L42.0 9.25 42.85 9.45 Q44.45 9.3 44.6 7.7 L44.4 6.85 M41.3 8.5 L43.65 6.15 Q41.6 5.6 41.25 7.7 41.2 8.1 41.3 8.5 M41.15 9.85 Q40.25 9.15 40.1 7.7 40.25 6.15 41.3 5.45 L40.2 5.55 37.4 10.25 40.5 9.9 41.15 9.85 M43.9 5.2 Q45.4 5.8 45.6 7.7 L45.1 9.3 48.1 8.9 48.65 4.7 43.9 5.2 M41.95 38.2 L43.25 38.85 41.9 36.6 37.6 29.35 29.4 25.7 26.75 24.55 25.0 29.65 28.0 31.2 41.95 38.2 M41.95 42.6 Q41.05 43.25 41.3 44.35 L43.8 42.35 Q42.85 41.85 41.95 42.6 M44.15 45.15 L44.4 44.85 44.65 43.4 42.15 45.4 Q43.1 45.85 44.15 45.15 M39.1 48.25 L41.25 49.2 43.65 46.5 42.95 46.6 Q41.5 46.45 40.65 45.3 L40.2 43.85 40.4 42.95 26.4 36.65 22.6 35.0 19.65 39.65 20.85 40.15 22.1 39.8 23.45 40.4 25.05 42.0 39.1 48.25 M34.8 9.0 L35.5 9.6 38.0 5.3 36.5 4.05 35.25 4.1 29.2 4.25 34.8 9.0 M25.45 6.7 L22.5 4.4 22.0 4.4 Q24.5 8.6 27.15 12.45 28.0 13.7 29.3 14.6 L31.5 16.2 33.45 12.95 25.45 6.7 M20.7 6.0 L19.85 6.0 Q20.7 7.2 20.4 8.55 20.15 9.6 19.2 10.1 L23.4 10.5 20.7 6.0 M29.35 18.0 L28.25 20.0 29.85 20.75 34.35 22.7 32.2 18.0 29.35 18.0 M19.5 7.75 Q19.35 6.15 17.75 6.0 L16.95 6.25 19.3 8.6 19.5 7.75 M16.0 7.75 Q16.15 9.35 17.75 9.5 L18.6 9.3 16.25 6.95 Q16.05 7.25 16.0 7.75 M12.25 9.2 L15.8 9.7 Q14.6 8.25 15.3 6.7 L15.75 5.9 12.7 5.45 12.25 9.2 M23.25 41.2 L22.1 40.8 21.3 41.05 23.8 43.05 Q24.05 42.3 23.25 41.2 M20.35 42.55 Q20.5 44.15 22.1 44.3 L22.95 44.1 20.6 41.75 20.35 42.55 M25.05 47.75 L21.05 46.6 25.7 52.6 27.0 54.4 32.65 56.5 34.75 57.05 37.9 53.1 36.05 52.1 25.05 47.75" fill="#441c0c" fill-rule="evenodd" stroke="none"/>
      <path d="M41.3 4.0 L41.2 3.95 41.35 2.85 36.5 2.4 30.15 1.6 23.6 2.4 19.5 2.5 19.25 2.85 Q18.95 3.3 19.3 3.75 L18.8 3.95 16.05 3.65 Q20.25 1.5 25.0 0.6 L26.25 0.4 30.15 0.1 Q38.05 0.3 44.35 3.65 L41.3 4.0 M10.75 7.2 L10.75 9.2 9.9 10.0 Q1.8 18.1 1.5 30.25 1.8 42.4 9.9 50.5 17.35 57.95 28.2 58.8 L29.3 60.4 Q17.05 59.8 8.85 51.55 4.25 46.95 2.05 41.15 -2.2 29.0 3.1 17.3 5.8 11.45 10.75 7.2 M12.8 10.8 L14.75 11.05 Q8.85 15.8 6.5 23.15 3.4 33.0 8.5 42.1 13.6 51.25 23.55 53.95 L25.6 55.0 26.25 56.0 Q18.9 54.95 13.3 50.15 5.4 43.3 4.45 32.95 3.25 19.85 12.8 10.8 M34.3 60.1 L35.6 58.4 Q43.05 57.15 48.8 52.25 57.85 44.45 58.45 32.4 59.05 19.5 50.1 10.1 L50.1 7.7 51.45 8.95 Q60.0 17.45 60.3 30.25 60.0 43.05 51.45 51.55 44.35 58.7 34.3 60.1 M38.35 54.95 L40.25 52.7 Q51.55 47.35 54.05 35.2 56.15 25.1 50.65 16.55 48.6 13.3 45.55 11.05 L47.5 10.8 Q50.95 13.85 53.05 17.95 58.75 29.0 54.0 40.3 49.45 51.2 38.35 54.95" fill="#4f2713" fill-rule="evenodd" stroke="none"/>
      <path d="M41.3 4.0 L41.15 4.0 41.2 3.95 41.3 4.0 M36.5 2.4 L23.6 2.4 30.15 1.6 36.5 2.4 M19.3 3.75 L19.5 4.05 18.8 3.95 19.3 3.75 M10.75 9.2 L10.8 10.0 Q1.1 19.6 2.4 33.1 3.35 42.95 10.25 49.95 17.5 57.2 27.65 57.95 L28.2 58.8 Q17.35 57.95 9.9 50.5 1.8 42.4 1.5 30.25 1.8 18.1 9.9 10.0 L10.75 9.2 M35.6 58.4 L36.45 57.35 Q44.1 55.55 49.75 49.9 57.65 42.0 57.95 30.15 57.65 18.3 49.75 10.45 L50.1 10.1 Q59.05 19.5 58.45 32.4 57.85 44.45 48.8 52.25 43.05 57.15 35.6 58.4" fill="#a89678" fill-rule="evenodd" stroke="none"/>
      <path d="M45.1 3.6 L44.35 3.65 Q38.05 0.3 30.15 0.1 L26.25 0.4 30.75 0.0 Q38.75 0.2 45.1 3.6" fill="#724a30" fill-rule="evenodd" stroke="none"/>
      <path d="M41.3 8.5 Q41.2 8.1 41.25 7.7 41.6 5.6 43.65 6.15 L41.3 8.5 M44.4 6.85 L44.6 7.7 Q44.45 9.3 42.85 9.45 L42.0 9.25 44.4 6.85 M44.15 45.15 Q43.1 45.85 42.15 45.4 L44.65 43.4 44.4 44.85 44.15 45.15 M41.95 42.6 Q42.85 41.85 43.8 42.35 L41.3 44.35 Q41.05 43.25 41.95 42.6 M16.0 7.75 Q16.05 7.25 16.25 6.95 L18.6 9.3 17.75 9.5 Q16.15 9.35 16.0 7.75 M19.5 7.75 L19.3 8.6 16.95 6.25 17.75 6.0 Q19.35 6.15 19.5 7.75 M20.35 42.55 L20.6 41.75 22.95 44.1 22.1 44.3 Q20.5 44.15 20.35 42.55 M23.25 41.2 Q24.05 42.3 23.8 43.05 L21.3 41.05 22.1 40.8 23.25 41.2" fill="#d7cdbb" fill-rule="evenodd" stroke="none"/>
      <path d="M15.95 11.2 L24.35 12.1 27.55 17.35 27.0 19.2 Q23.8 32.45 15.05 42.65 L15.35 43.2 Q21.25 48.5 25.6 55.0 L23.55 53.95 22.3 52.95 Q17.25 51.25 13.4 47.45 6.8 40.95 6.55 30.8 6.8 20.6 13.4 13.55 14.6 12.25 15.95 11.2 M40.45 52.5 L48.7 43.9 45.4 38.9 Q38.35 28.65 33.15 17.35 L36.4 11.95 44.6 11.15 Q51.75 16.65 53.55 25.4 55.55 35.3 50.0 43.55 47.2 47.8 42.95 50.65 L40.45 52.5 M46.05 37.8 L48.6 41.5 Q50.4 39.45 51.3 36.9 52.6 33.25 52.4 29.4 51.85 18.25 43.0 11.75 L41.65 12.05 Q38.8 11.65 36.35 13.2 33.8 16.5 35.55 20.15 40.0 29.5 46.05 37.8 M14.45 42.25 Q18.5 37.2 21.35 31.55 L23.75 25.95 Q25.15 22.1 25.9 17.95 26.3 15.65 24.6 14.0 22.2 12.4 19.25 12.3 15.05 14.65 12.0 18.35 10.25 20.5 9.3 23.5 6.2 33.5 11.7 42.45 14.8 47.45 19.85 49.4 L18.65 48.0 Q17.45 46.65 15.95 45.75 13.95 44.4 14.45 42.25" fill="#a99b81" fill-rule="evenodd" stroke="none"/>
      <path d="M41.15 9.85 L40.5 9.9 37.4 10.25 40.2 5.55 41.3 5.45 Q40.25 6.15 40.1 7.7 40.25 9.15 41.15 9.85 M43.9 5.2 L48.65 4.7 48.1 8.9 45.1 9.3 45.6 7.7 Q45.4 5.8 43.9 5.2 M20.7 6.0 L23.4 10.5 19.2 10.1 Q20.15 9.6 20.4 8.55 20.7 7.2 19.85 6.0 L20.7 6.0 M12.25 9.2 L12.7 5.45 15.75 5.9 15.3 6.7 Q14.6 8.25 15.8 9.7 L12.25 9.2" fill="#b5a581" fill-rule="evenodd" stroke="none"/>
      <path d="M14.75 11.05 L15.95 11.2 Q14.6 12.25 13.4 13.55 6.8 20.6 6.55 30.8 6.8 40.95 13.4 47.45 17.25 51.25 22.3 52.95 L23.55 53.95 Q13.6 51.25 8.5 42.1 3.4 33.0 6.5 23.15 8.85 15.8 14.75 11.05 M40.25 52.7 L40.45 52.5 42.95 50.65 Q47.2 47.8 50.0 43.55 55.55 35.3 53.55 25.4 51.75 16.65 44.6 11.15 L45.55 11.05 Q48.6 13.3 50.65 16.55 56.15 25.1 54.05 35.2 51.55 47.35 40.25 52.7" fill="#887c64" fill-rule="evenodd" stroke="none"/>
      <path d="M10.8 10.0 Q10.85 10.45 11.4 10.55 L12.8 10.8 Q3.25 19.85 4.45 32.95 5.4 43.3 13.3 50.15 18.9 54.95 26.25 56.0 L27.65 57.95 Q17.5 57.2 10.25 49.95 3.35 42.95 2.4 33.1 1.1 19.6 10.8 10.0 M36.45 57.35 L38.35 54.95 Q49.45 51.2 54.0 40.3 58.75 29.0 53.05 17.95 50.95 13.85 47.5 10.8 L49.75 10.45 Q57.65 18.3 57.95 30.15 57.65 42.0 49.75 49.9 44.1 55.55 36.45 57.35" fill="#f0e6ca" fill-rule="evenodd" stroke="none"/>
      <path d="M36.35 13.2 Q38.8 11.65 41.65 12.05 L43.0 11.75 Q51.85 18.25 52.4 29.4 52.6 33.25 51.3 36.9 50.4 39.45 48.6 41.5 L46.05 37.8 Q50.35 29.45 46.7 20.6 43.8 13.75 36.35 13.2 M24.6 14.0 Q16.75 16.25 12.2 23.4 8.65 29.55 11.25 36.2 12.4 39.5 14.45 42.25 13.95 44.4 15.95 45.75 17.45 46.65 18.65 48.0 L19.85 49.4 Q14.8 47.45 11.7 42.45 6.2 33.5 9.3 23.5 10.25 20.5 12.0 18.35 15.05 14.65 19.25 12.3 22.2 12.4 24.6 14.0" fill="#c4b696" fill-rule="evenodd" stroke="none"/>
      <path d="M46.05 37.8 Q40.0 29.5 35.55 20.15 33.8 16.5 36.35 13.2 43.8 13.75 46.7 20.6 50.35 29.45 46.05 37.8 M24.6 14.0 Q26.3 15.65 25.9 17.95 25.15 22.1 23.75 25.95 L21.35 31.55 Q18.5 37.2 14.45 42.25 12.4 39.5 11.25 36.2 8.65 29.55 12.2 23.4 16.75 16.25 24.6 14.0" fill="#d8ceba" fill-rule="evenodd" stroke="none"/>
      <path d="M41.9 36.6 L43.25 38.85 41.95 38.2 41.9 36.6 M28.0 31.2 L25.0 29.65 26.75 24.55 29.4 25.7 28.0 31.2 M40.65 45.3 Q41.5 46.45 42.95 46.6 L43.65 46.5 41.25 49.2 39.1 48.25 40.65 45.3 M25.05 42.0 L23.45 40.4 22.1 39.8 20.85 40.15 19.65 39.65 22.6 35.0 26.4 36.65 25.05 42.0 M35.25 4.1 L36.5 4.05 38.0 5.3 35.5 9.6 34.8 9.0 35.25 4.1 M29.3 14.6 Q28.0 13.7 27.15 12.45 24.5 8.6 22.0 4.4 L22.5 4.4 25.45 6.7 26.55 8.3 Q28.7 11.05 29.3 14.6 M29.85 20.75 L28.25 20.0 29.35 18.0 29.85 20.75 M25.7 52.6 L21.05 46.6 25.05 47.75 25.7 52.6 M36.05 52.1 L37.9 53.1 34.75 57.05 32.65 56.5 36.05 52.1" fill="#af9f81" fill-rule="evenodd" stroke="none"/>
      <path d="M41.9 36.6 L41.95 38.2 28.0 31.2 29.4 25.7 37.6 29.35 41.9 36.6 M40.65 45.3 L39.1 48.25 25.05 42.0 26.4 36.65 40.4 42.95 40.2 43.85 40.65 45.3 M35.25 4.1 L34.8 9.0 29.2 4.25 35.25 4.1 M29.3 14.6 Q28.7 11.05 26.55 8.3 L25.45 6.7 33.45 12.95 31.5 16.2 29.3 14.6 M29.85 20.75 L29.35 18.0 32.2 18.0 34.35 22.7 29.85 20.75 M25.7 52.6 L25.05 47.75 36.05 52.1 32.65 56.5 27.0 54.4 25.7 52.6" fill="#c4b898" fill-rule="evenodd" stroke="none"/>
    </g>
    <g id="shape2" transform="matrix(1.0, 0.0, 0.0, 1.0, 0.0, 0.0)">
      <path d="M81.7 24.1 Q88.25 35.2 92.6 47.1 L94.35 52.2 95.9 57.3 107.25 126.05 154.65 154.3 155.15 154.75 155.4 155.35 161.45 191.05 161.45 191.55 152.3 252.35 152.3 252.45 152.0 253.75 151.85 254.25 Q151.5 254.9 150.85 255.0 L150.4 255.0 149.85 255.0 143.55 260.7 136.6 266.35 136.1 266.55 135.85 266.55 122.05 253.8 122.1 253.65 123.2 250.65 Q124.05 248.55 124.15 246.3 L124.15 244.7 Q123.55 234.35 119.85 224.75 L118.85 222.35 116.7 217.3 111.45 222.2 116.7 262.45 116.05 263.85 80.3 266.95 80.0 266.95 76.15 266.65 46.3 263.3 45.9 263.15 45.4 263.05 44.9 262.1 47.9 225.55 38.05 215.55 34.2 232.4 36.85 238.4 Q38.55 241.95 39.35 245.5 L39.35 245.55 37.75 250.45 40.0 253.2 39.8 254.35 25.6 265.3 25.25 265.15 12.75 254.45 Q10.5 252.4 9.15 249.95 6.7 245.3 5.25 240.2 L3.85 235.4 2.35 230.5 0.0 193.95 6.5 158.3 7.2 157.15 55.25 127.3 53.55 1.3 54.25 0.05 Q56.25 -0.15 57.95 0.65 60.5 1.7 62.55 3.6 L70.9 11.45 75.0 15.45 78.75 19.65 81.7 24.1 M67.35 24.5 L67.55 24.1 68.05 23.85 Q68.9 23.4 69.85 23.85 73.4 25.25 76.15 27.85 L78.95 30.2 Q79.8 30.9 80.2 32.15 80.9 34.25 79.85 35.9 78.55 37.9 76.2 38.35 L73.05 37.6 Q71.9 37.35 71.4 36.3 L70.4 33.65 Q69.35 29.55 73.15 28.05 70.8 25.75 67.7 25.5 L67.35 24.5 M96.6 89.5 Q91.45 92.75 88.15 97.75 86.95 99.9 86.05 102.15 84.05 107.1 82.65 112.2 79.95 121.75 79.35 131.8 L93.05 128.1 93.5 128.35 104.15 125.75 98.05 88.65 96.6 89.5 M88.35 52.55 L86.25 57.05 Q89.5 58.55 92.75 57.15 87.3 38.35 77.0 21.75 75.75 20.6 74.15 19.8 72.35 18.8 70.3 18.4 67.95 18.5 66.05 19.95 62.9 22.45 61.55 26.15 59.7 31.35 58.9 36.6 57.75 44.25 57.2 52.15 L58.2 126.5 77.35 131.3 78.2 115.5 79.1 96.65 Q79.7 82.45 81.65 68.35 L82.4 63.35 82.65 62.0 83.65 58.65 85.45 53.65 86.05 52.3 Q86.45 51.35 87.45 51.35 L88.35 52.55 M87.15 59.5 L85.6 58.85 85.45 59.25 Q82.95 66.45 81.4 90.8 L80.35 111.45 Q81.75 106.45 83.9 101.3 88.25 90.75 97.7 86.65 L93.15 59.15 Q89.3 60.45 87.15 59.5 M70.9 15.25 L61.6 5.55 Q57.6 3.5 56.6 2.65 L56.95 30.95 Q58.75 23.05 61.6 20.0 66.35 14.6 70.9 15.25 M78.4 34.15 L78.4 32.4 75.05 29.75 72.3 30.85 Q71.75 32.6 72.6 34.4 73.35 35.9 74.9 36.4 L76.1 36.25 Q77.05 36.25 77.75 35.65 78.4 35.0 78.4 34.15 M55.45 130.7 L42.25 138.9 46.3 150.95 57.6 152.3 58.0 152.6 58.3 153.45 54.3 161.8 76.75 186.15 78.55 182.65 55.45 130.7 M67.45 143.35 L66.3 144.6 64.8 144.4 79.15 164.05 79.5 141.7 78.3 141.9 69.2 149.15 68.7 149.2 68.45 148.8 67.45 143.35 M63.1 140.6 L65.15 141.35 67.15 138.15 66.65 131.7 58.5 129.65 63.1 140.6 M77.85 134.6 L78.3 138.85 82.8 138.05 82.45 134.75 77.85 134.6 M75.75 134.3 L69.8 133.45 70.55 144.65 76.35 139.6 75.75 134.3 M77.0 171.8 L80.5 179.6 91.15 158.4 77.0 171.8 M72.0 160.55 L75.7 168.85 77.75 166.9 72.0 160.55 M9.9 159.0 L25.15 193.05 50.35 224.1 Q50.75 224.55 50.95 225.15 L48.05 260.85 63.1 262.3 65.6 207.85 75.3 189.0 51.35 163.05 Q50.7 162.3 51.2 161.3 L54.55 154.9 45.0 153.85 Q44.05 153.8 43.75 152.85 L39.65 140.55 9.9 159.0 M8.6 163.4 L3.0 193.95 5.35 230.2 10.25 246.55 18.15 237.1 Q18.45 236.7 19.0 236.75 L27.4 235.35 27.9 235.55 34.4 240.45 31.3 232.7 31.25 232.25 35.6 212.9 22.5 194.4 8.6 163.4 M91.05 131.85 L84.65 134.4 84.8 138.65 90.45 143.25 91.05 131.85 M93.65 140.15 L95.95 142.45 109.25 131.9 105.5 128.5 94.05 131.65 93.65 140.15 M83.0 141.05 L81.5 141.35 81.15 163.75 98.05 144.65 96.3 145.95 95.75 145.95 93.45 144.15 93.2 146.95 92.45 147.7 91.35 147.8 83.0 141.05 M104.7 141.0 Q100.65 146.15 97.65 152.1 L81.75 183.8 81.0 184.5 73.6 198.7 109.75 160.1 105.25 156.35 105.0 155.9 Q104.95 155.6 105.05 155.4 L105.65 154.7 Q111.75 152.55 118.0 150.75 L120.15 137.5 112.5 133.15 Q108.05 136.65 104.7 141.0 M158.45 191.35 L153.15 160.0 118.95 214.85 Q123.0 225.3 125.6 236.1 126.55 240.1 126.05 244.5 L130.2 239.9 142.2 239.9 143.15 240.6 149.85 248.55 158.45 191.35 M112.9 158.7 Q113.75 159.45 113.25 160.55 L113.05 160.95 68.6 208.45 66.1 262.6 80.2 263.95 113.5 261.3 108.35 221.8 108.6 220.8 116.1 213.75 151.95 156.2 122.95 139.1 120.45 152.55 120.05 153.0 109.7 156.25 112.9 158.7 M24.35 245.45 Q25.3 244.8 26.0 245.45 L26.4 246.4 26.3 249.25 30.8 251.7 34.8 249.9 36.2 245.55 26.6 238.35 19.95 239.3 11.7 249.5 25.65 262.0 36.4 253.35 35.8 252.75 Q33.25 253.8 30.85 253.6 27.3 253.1 23.95 251.3 23.2 251.0 23.25 250.3 L23.9 246.45 24.35 245.45 M141.4 242.9 L131.5 242.75 126.95 248.05 127.45 249.7 131.2 252.95 132.35 252.65 Q132.15 252.1 132.1 251.55 132.1 251.25 132.25 251.05 132.8 250.3 133.7 250.2 L134.55 250.95 Q136.45 253.05 137.9 255.55 L137.85 256.35 137.15 257.2 136.05 256.9 Q135.75 256.85 135.6 256.65 L134.4 255.25 130.75 255.05 Q128.35 254.3 126.25 252.6 L125.6 253.2 136.15 263.1 148.75 251.95 141.4 242.9" fill="#1a1a1a" fill-rule="evenodd" stroke="none"/>
      <path d="M87.15 59.5 Q89.3 60.45 93.15 59.15 L97.7 86.65 Q88.25 90.75 83.9 101.3 81.75 106.45 80.35 111.45 L81.4 90.8 Q82.95 66.45 85.45 59.25 L85.6 58.85 87.15 59.5 M88.35 52.55 L87.45 51.35 Q86.45 51.35 86.05 52.3 L85.45 53.65 83.65 58.65 82.65 62.0 82.4 63.35 81.65 68.35 Q79.7 82.45 79.1 96.65 L78.2 115.5 77.35 131.3 58.2 126.5 57.2 52.15 Q57.75 44.25 58.9 36.6 59.7 31.35 61.55 26.15 62.9 22.45 66.05 19.95 67.95 18.5 70.3 18.4 72.35 18.8 74.15 19.8 75.75 20.6 77.0 21.75 87.3 38.35 92.75 57.15 89.5 58.55 86.25 57.05 L88.35 52.55 M96.6 89.5 L98.05 88.65 104.15 125.75 93.5 128.35 93.05 128.1 79.35 131.8 Q79.95 121.75 82.65 112.2 84.05 107.1 86.05 102.15 86.95 99.9 88.15 97.75 91.45 92.75 96.6 89.5 M67.35 24.5 L67.7 25.5 Q70.8 25.75 73.15 28.05 69.35 29.55 70.4 33.65 L71.4 36.3 Q71.9 37.35 73.05 37.6 L76.2 38.35 Q78.55 37.9 79.85 35.9 80.9 34.25 80.2 32.15 79.8 30.9 78.95 30.2 L76.15 27.85 Q73.4 25.25 69.85 23.85 68.9 23.4 68.05 23.85 L67.55 24.1 67.35 24.5 M141.4 242.9 L148.75 251.95 136.15 263.1 125.6 253.2 126.25 252.6 Q128.35 254.3 130.75 255.05 L134.4 255.25 135.6 256.65 Q135.75 256.85 136.05 256.9 L137.15 257.2 137.85 256.35 137.9 255.55 Q136.45 253.05 134.55 250.95 L133.7 250.2 Q132.8 250.3 132.25 251.05 132.1 251.25 132.1 251.55 132.15 252.1 132.35 252.65 L131.2 252.95 127.45 249.7 126.95 248.05 131.5 242.75 141.4 242.9 M24.35 245.45 L23.9 246.45 23.25 250.3 Q23.2 251.0 23.95 251.3 27.3 253.1 30.85 253.6 33.25 253.8 35.8 252.75 L36.4 253.35 25.65 262.0 11.7 249.5 19.95 239.3 26.6 238.35 36.2 245.55 34.8 249.9 30.8 251.7 26.3 249.25 26.4 246.4 26.0 245.45 Q25.3 244.8 24.35 245.45" fill="#969bc5" fill-rule="evenodd" stroke="none"/>
      <path d="M70.9 15.25 Q66.35 14.6 61.6 20.0 58.75 23.05 56.95 30.95 L56.6 2.65 Q57.6 3.5 61.6 5.55 L70.9 15.25 M55.45 130.7 L78.55 182.65 76.75 186.15 54.3 161.8 58.3 153.45 58.0 152.6 57.6 152.3 46.3 150.95 42.25 138.9 55.45 130.7 M8.6 163.4 L22.5 194.4 35.6 212.9 31.25 232.25 31.3 232.7 34.4 240.45 27.9 235.55 27.4 235.35 19.0 236.75 Q18.45 236.7 18.15 237.1 L10.25 246.55 5.35 230.2 3.0 193.95 8.6 163.4 M9.9 159.0 L39.65 140.55 43.75 152.85 Q44.05 153.8 45.0 153.85 L54.55 154.9 51.2 161.3 Q50.7 162.3 51.35 163.05 L75.3 189.0 65.6 207.85 63.1 262.3 48.05 260.85 50.95 225.15 Q50.75 224.55 50.35 224.1 L25.15 193.05 9.9 159.0 M72.0 160.55 L77.75 166.9 75.7 168.85 72.0 160.55 M77.0 171.8 L91.15 158.4 80.5 179.6 77.0 171.8 M104.7 141.0 Q108.05 136.65 112.5 133.15 L120.15 137.5 118.0 150.75 Q111.75 152.55 105.65 154.7 L105.05 155.4 Q104.95 155.6 105.0 155.9 L105.25 156.35 109.75 160.1 73.6 198.7 81.0 184.5 81.75 183.8 97.65 152.1 Q100.65 146.15 104.7 141.0 M112.9 158.7 L109.7 156.25 120.05 153.0 120.45 152.55 122.95 139.1 151.95 156.2 116.1 213.75 108.6 220.8 108.35 221.8 113.5 261.3 80.2 263.95 66.1 262.6 68.6 208.45 113.05 160.95 113.25 160.55 Q113.75 159.45 112.9 158.7 M158.45 191.35 L149.85 248.55 143.15 240.6 142.2 239.9 130.2 239.9 126.05 244.5 Q126.55 240.1 125.6 236.1 123.0 225.3 118.95 214.85 L153.15 160.0 158.45 191.35" fill="#3a3d6a" fill-rule="evenodd" stroke="none"/>
      <path d="M76.1 36.25 L74.9 36.4 Q73.35 35.9 72.6 34.4 71.75 32.6 72.3 30.85 L75.05 29.75 78.4 32.4 78.4 34.15 Q77.95 33.6 77.1 33.5 75.65 33.65 75.5 35.05 75.6 35.85 76.1 36.25" fill="#ffffff" fill-rule="evenodd" stroke="none"/>
      <path d="M78.4 34.15 Q78.4 35.0 77.75 35.65 77.05 36.25 76.1 36.25 75.6 35.85 75.5 35.05 75.65 33.65 77.1 33.5 77.95 33.6 78.4 34.15" fill="#000000" fill-rule="evenodd" stroke="none"/>
      <path d="M63.1 140.6 L58.5 129.65 66.65 131.7 67.15 138.15 65.15 141.35 63.1 140.6 M67.45 143.35 L68.45 148.8 68.7 149.2 69.2 149.15 78.3 141.9 79.5 141.7 79.15 164.05 64.8 144.4 66.3 144.6 67.45 143.35 M83.0 141.05 L91.35 147.8 92.45 147.7 93.2 146.95 93.45 144.15 95.75 145.95 96.3 145.95 98.05 144.65 81.15 163.75 81.5 141.35 83.0 141.05 M93.65 140.15 L94.05 131.65 105.5 128.5 109.25 131.9 95.95 142.45 93.65 140.15" fill="#cacfe6" fill-rule="evenodd" stroke="none"/>
      <path d="M75.75 134.3 L76.35 139.6 70.55 144.65 69.8 133.45 75.75 134.3 M77.85 134.6 L82.45 134.75 82.8 138.05 78.3 138.85 77.85 134.6 M91.05 131.85 L90.45 143.25 84.8 138.65 84.65 134.4 91.05 131.85" fill="#990000" fill-rule="evenodd" stroke="none"/>
    </g>
    <g id="shape3" transform="matrix(1.0, 0.0, 0.0, 1.0, -0.05, 0.0)">
      <path d="M40.95 2.45 L41.9 2.8 Q42.4 1.4 44.05 1.25 46.25 1.45 46.45 3.8 L46.45 6.35 48.8 8.45 Q56.9 16.5 57.2 28.65 56.85 40.75 48.8 48.85 42.05 55.65 32.45 56.95 L32.05 57.95 Q31.35 59.0 29.8 59.15 28.3 59.0 27.6 58.05 L27.2 57.2 Q16.0 56.45 8.4 48.85 3.45 43.9 1.4 37.45 -0.45 31.7 0.25 25.75 1.75 13.25 11.8 5.55 L12.4 3.05 Q13.25 0.65 15.6 1.55 16.3 1.85 16.4 2.8 L17.0 2.55 Q21.85 0.45 27.2 0.1 33.95 0.0 40.1 2.5 L40.95 2.45 M40.75 9.5 L41.65 9.15 41.65 3.8 40.95 3.4 Q39.9 3.3 39.45 4.1 L39.5 20.75 40.05 21.3 41.6 21.05 41.65 14.2 41.0 13.95 Q39.6 13.25 39.65 11.65 39.65 10.3 40.75 9.5 M43.6 13.8 L42.65 14.2 Q42.3 22.35 43.9 21.75 L44.95 21.3 44.95 2.65 Q44.35 2.05 43.6 2.4 42.9 2.55 42.75 3.3 L42.65 9.15 43.55 9.5 Q44.2 9.85 44.5 10.65 L44.55 12.55 Q44.25 13.35 43.6 13.8 M42.85 10.1 L41.65 10.1 43.85 12.05 42.85 10.1 M40.75 10.9 L40.5 11.65 Q40.7 13.2 42.15 13.3 L42.65 13.2 40.75 10.9 M33.35 54.6 L33.1 55.4 Q42.4 53.9 48.75 46.85 56.75 37.95 55.55 25.9 54.45 15.35 46.45 8.2 L46.45 9.2 46.45 11.55 Q53.05 18.45 53.3 28.6 53.05 39.1 46.05 46.1 40.85 51.3 33.75 52.75 L33.35 54.6 M34.15 50.65 L34.05 51.35 Q40.4 49.85 45.1 45.15 51.7 38.55 51.95 28.6 51.75 19.75 46.45 13.6 L46.45 14.6 Q46.75 17.8 46.0 20.7 45.25 23.6 42.2 21.75 L41.45 22.0 Q39.2 22.8 38.3 20.55 L33.3 21.2 33.3 23.05 33.95 23.4 Q35.1 23.95 34.9 25.15 L34.35 26.45 32.4 27.25 32.4 29.2 33.85 30.25 33.95 31.8 32.3 32.9 Q34.1 41.75 34.15 50.65 M38.25 4.0 L38.65 3.4 Q29.1 -0.05 19.35 3.1 L19.75 3.6 20.0 4.15 Q29.1 3.05 38.25 4.0 M25.35 51.1 L25.1 48.35 Q25.25 40.65 27.35 32.9 26.65 32.65 26.2 32.25 24.7 30.8 26.4 29.55 L26.9 29.2 26.9 27.25 Q25.3 27.3 24.75 25.95 L24.5 24.95 Q24.55 24.05 25.5 23.4 L26.0 23.05 26.0 21.35 19.95 20.65 Q19.2 22.95 16.85 21.95 L16.1 21.7 Q15.1 23.2 13.3 22.4 12.1 22.0 12.05 20.75 L11.8 13.3 11.8 12.35 Q5.45 18.9 5.2 28.6 5.45 38.55 12.05 45.15 17.6 50.7 25.5 51.75 L25.35 51.1 M16.8 15.6 L16.5 20.75 17.35 21.35 Q18.95 21.55 19.0 19.95 19.1 12.15 18.85 4.35 L18.65 3.7 17.7 3.35 16.6 3.85 16.95 9.95 Q17.9 10.35 18.3 11.4 L18.35 13.15 16.85 14.9 16.8 15.6 M38.2 19.4 L38.2 5.0 Q29.6 4.0 20.9 5.1 L20.0 5.2 20.1 19.4 Q29.1 21.65 38.2 19.4 M33.5 24.4 Q33.3 23.9 32.85 23.9 L27.1 23.4 Q24.95 24.0 26.25 25.85 L26.9 26.45 32.3 26.4 Q33.3 26.4 33.55 25.55 33.7 24.95 33.5 24.4 M27.15 21.35 L27.15 22.95 32.0 22.95 32.0 21.35 27.15 21.35 M15.1 9.8 L15.65 9.7 15.35 3.25 14.95 2.65 14.2 2.25 Q12.95 2.6 12.95 4.0 L13.1 20.6 Q13.1 21.5 14.2 21.7 15.6 21.55 15.55 20.15 L15.3 15.05 Q13.7 14.6 13.35 13.25 L13.3 11.85 Q13.6 10.25 15.1 9.8 M26.35 54.95 L25.85 53.15 Q17.2 52.25 11.1 46.1 3.0 37.75 4.15 26.1 5.05 16.85 11.8 10.5 L11.8 8.1 11.8 7.3 Q2.9 14.65 1.7 25.95 0.55 37.1 7.7 45.9 15.0 54.85 26.6 55.7 L26.35 54.95 M17.25 11.6 L16.6 10.8 15.15 10.8 17.3 13.05 17.25 11.6 M14.45 11.5 L14.2 12.25 Q14.3 13.7 15.85 13.9 L16.6 13.7 14.45 11.5 M27.3 30.4 L26.75 31.15 27.3 32.2 32.6 31.95 32.8 30.9 32.4 30.15 31.05 30.2 27.3 30.4 M31.25 29.1 L31.25 27.25 28.2 27.25 28.3 29.1 31.25 29.1 M32.6 42.15 Q32.15 37.5 31.2 32.9 L28.45 32.9 27.2 39.55 Q26.25 45.2 26.95 51.0 L27.15 52.3 27.15 52.25 Q27.35 49.85 29.75 49.65 31.9 49.85 32.3 51.85 33.05 47.05 32.6 42.15 M30.7 58.1 L32.0 53.55 Q31.35 54.95 29.75 54.85 27.85 54.65 27.35 53.05 L28.65 57.7 30.7 58.1 M29.0 53.7 L29.75 53.95 Q31.9 53.5 31.2 51.5 L29.0 53.7 M29.75 50.6 Q28.25 50.75 28.1 52.25 L28.35 53.05 30.55 50.85 29.75 50.6" fill="#212753" fill-rule="evenodd" stroke="none"/>
      <path d="M40.95 2.45 L40.1 2.5 Q33.95 0.0 27.2 0.1 L29.2 0.0 Q35.6 0.15 40.95 2.45 M46.45 9.2 L46.45 8.2 Q54.45 15.35 55.55 25.9 56.75 37.95 48.75 46.85 42.4 53.9 33.1 55.4 L33.35 54.6 Q44.1 52.5 50.45 43.3 55.05 36.65 54.95 28.6 54.75 17.0 46.45 9.2 M46.45 14.6 L46.45 13.6 Q51.75 19.75 51.95 28.6 51.7 38.55 45.1 45.15 40.4 49.85 34.05 51.35 L34.15 50.65 Q40.2 49.15 44.65 44.7 51.05 38.3 51.3 28.65 51.15 20.45 46.45 14.6 M19.75 3.6 L19.35 3.1 Q29.1 -0.05 38.65 3.4 L38.25 4.0 Q33.8 2.25 28.5 2.1 23.8 2.25 19.75 3.6 M25.35 51.1 L25.5 51.75 Q17.6 50.7 12.05 45.15 5.45 38.55 5.2 28.6 5.45 18.9 11.8 12.35 L11.8 13.3 Q6.1 19.55 5.85 28.65 6.1 38.3 12.5 44.7 17.85 50.0 25.35 51.1 M26.35 54.95 L26.6 55.7 Q15.0 54.85 7.7 45.9 0.55 37.1 1.7 25.95 2.9 14.65 11.8 7.3 L11.8 8.1 Q3.55 15.15 2.3 25.9 1.25 35.3 6.7 43.25 13.85 53.8 26.35 54.95" fill="#514f6f" fill-rule="evenodd" stroke="none"/>
      <path d="M41.0 13.95 L41.65 14.2 41.6 21.05 40.05 21.3 39.5 20.75 39.45 4.1 Q39.9 3.3 40.95 3.4 L41.65 3.8 41.65 9.15 40.75 9.5 40.4 4.85 Q39.7 5.45 39.65 6.45 39.35 12.5 39.85 18.55 39.95 19.55 40.65 19.75 41.55 19.1 41.5 17.7 L41.0 13.95 M43.55 9.5 L42.65 9.15 42.75 3.3 Q42.9 2.55 43.6 2.4 44.35 2.05 44.95 2.65 L44.95 21.3 43.9 21.75 Q42.3 22.35 42.65 14.2 L43.6 13.8 44.0 20.3 44.55 12.55 44.5 10.65 44.25 4.4 43.55 4.3 43.55 9.5 M36.15 9.6 Q34.9 7.5 32.4 7.85 29.75 8.15 27.1 7.8 24.95 7.25 23.1 8.3 20.7 10.35 22.5 12.35 24.25 14.4 26.55 15.0 L31.75 15.4 Q34.7 15.25 36.3 13.5 37.3 11.55 36.15 9.6 M27.5 24.1 L27.45 24.1 Q26.9 24.25 26.9 24.5 26.85 24.85 27.9 25.35 L30.85 25.25 Q31.6 24.85 31.6 24.5 31.5 24.1 30.4 23.85 L27.5 24.1 M27.15 21.35 L32.0 21.35 32.0 22.95 27.15 22.95 27.15 21.35 M33.5 24.4 Q33.7 24.95 33.55 25.55 33.3 26.4 32.3 26.4 L26.9 26.45 26.25 25.85 Q24.95 24.0 27.1 23.4 L32.85 23.9 Q33.3 23.9 33.5 24.4 M38.2 19.4 Q29.1 21.65 20.1 19.4 L20.0 5.2 20.9 5.1 Q29.6 4.0 38.2 5.0 L38.2 19.4 M16.95 9.95 L16.6 3.85 17.7 3.35 18.65 3.7 18.85 4.35 Q19.1 12.15 19.0 19.95 18.95 21.55 17.35 21.35 L16.5 20.75 16.8 15.6 17.85 19.6 18.35 13.15 18.3 11.4 17.45 5.4 16.95 9.95 M15.3 15.05 L15.55 20.15 Q15.6 21.55 14.2 21.7 13.1 21.5 13.1 20.6 L12.95 4.0 Q12.95 2.6 14.2 2.25 L14.95 2.65 15.35 3.25 15.65 9.7 15.1 9.8 14.3 3.55 13.4 4.2 13.3 11.85 13.35 13.25 14.15 20.3 14.85 20.25 15.3 15.05 M31.05 30.2 L32.4 30.15 32.8 30.9 32.6 31.95 27.3 32.2 26.75 31.15 27.3 30.4 27.4 31.15 31.25 31.35 31.5 30.7 31.05 30.2 M31.25 29.1 L28.3 29.1 28.2 27.25 31.25 27.25 31.25 29.1 M27.9 48.35 Q29.05 49.75 30.55 48.65 32.0 47.2 31.6 44.95 31.65 41.3 30.8 37.75 30.7 36.45 29.75 35.6 28.7 35.65 28.3 38.1 27.95 40.5 27.95 41.5 26.8 45.1 27.9 48.35 M32.6 42.15 Q33.05 47.05 32.3 51.85 31.9 49.85 29.75 49.65 27.35 49.85 27.15 52.25 L27.15 52.3 26.95 51.0 Q26.25 45.2 27.2 39.55 L28.45 32.9 31.2 32.9 Q32.15 37.5 32.6 42.15 M30.7 58.1 L28.65 57.7 27.35 53.05 Q27.85 54.65 29.75 54.85 31.35 54.95 32.0 53.55 L30.7 58.1 M29.1 55.9 Q28.65 57.55 30.25 57.4 31.35 56.6 30.65 55.85 L29.1 55.9" fill="#69839d" fill-rule="evenodd" stroke="none"/>
      <path d="M40.75 9.5 Q39.65 10.3 39.65 11.65 39.6 13.25 41.0 13.95 L41.5 17.7 Q41.55 19.1 40.65 19.75 39.95 19.55 39.85 18.55 39.35 12.5 39.65 6.45 39.7 5.45 40.4 4.85 L40.75 9.5 M43.55 9.5 L43.55 4.3 44.25 4.4 44.5 10.65 Q44.2 9.85 43.55 9.5 M44.55 12.55 L44.0 20.3 43.6 13.8 Q44.25 13.35 44.55 12.55 M34.2 11.4 L33.9 10.25 26.9 9.5 Q25.3 9.3 24.4 10.6 24.5 12.95 27.0 13.65 31.6 14.85 34.2 11.4 M36.15 9.6 Q37.3 11.55 36.3 13.5 34.7 15.25 31.75 15.4 L26.55 15.0 Q24.25 14.4 22.5 12.35 20.7 10.35 23.1 8.3 24.95 7.25 27.1 7.8 29.75 8.15 32.4 7.85 34.9 7.5 36.15 9.6 M27.5 24.1 L30.4 23.85 Q31.5 24.1 31.6 24.5 31.6 24.85 30.85 25.25 L27.9 25.35 Q26.85 24.85 26.9 24.5 26.9 24.25 27.45 24.1 L27.5 24.1 M16.8 15.6 L16.85 14.9 18.35 13.15 17.85 19.6 16.8 15.6 M18.3 11.4 Q17.9 10.35 16.95 9.95 L17.45 5.4 18.3 11.4 M15.3 15.05 L14.85 20.25 14.15 20.3 13.35 13.25 Q13.7 14.6 15.3 15.05 M13.3 11.85 L13.4 4.2 14.3 3.55 15.1 9.8 Q13.6 10.25 13.3 11.85 M27.3 30.4 L31.05 30.2 31.5 30.7 31.25 31.35 27.4 31.15 27.3 30.4 M27.9 48.35 Q26.8 45.1 27.95 41.5 27.95 40.5 28.3 38.1 28.7 35.65 29.75 35.6 30.7 36.45 30.8 37.75 31.65 41.3 31.6 44.95 32.0 47.2 30.55 48.65 29.05 49.75 27.9 48.35 M29.1 55.9 L30.65 55.85 Q31.35 56.6 30.25 57.4 28.65 57.55 29.1 55.9" fill="#899db1" fill-rule="evenodd" stroke="none"/>
      <path d="M40.75 10.9 L42.65 13.2 42.15 13.3 Q40.7 13.2 40.5 11.65 L40.75 10.9 M42.85 10.1 L43.85 12.05 41.65 10.1 42.85 10.1 M14.45 11.5 L16.6 13.7 15.85 13.9 Q14.3 13.7 14.2 12.25 L14.45 11.5 M17.25 11.6 L17.3 13.05 15.15 10.8 16.6 10.8 17.25 11.6 M29.75 50.6 L30.55 50.85 28.35 53.05 28.1 52.25 Q28.25 50.75 29.75 50.6 M29.0 53.7 L31.2 51.5 Q31.9 53.5 29.75 53.95 L29.0 53.7" fill="#a1b1c1" fill-rule="evenodd" stroke="none"/>
      <path d="M33.35 54.6 L33.75 52.75 Q40.85 51.3 46.05 46.1 53.05 39.1 53.3 28.6 53.05 18.45 46.45 11.55 L46.45 9.2 Q54.75 17.0 54.95 28.6 55.05 36.65 50.45 43.3 44.1 52.5 33.35 54.6 M45.35 22.9 Q47.1 21.7 46.9 19.6 L46.55 17.25 Q49.55 22.9 49.55 29.45 49.05 40.8 38.0 44.45 L34.9 45.55 34.8 45.15 34.35 43.45 Q38.75 41.7 42.1 38.05 45.75 33.5 45.85 27.7 45.85 25.2 45.35 22.9 M38.25 4.0 Q29.1 3.05 20.0 4.15 L19.75 3.6 Q23.8 2.25 28.5 2.1 33.8 2.25 38.25 4.0 M24.25 45.1 Q24.15 46.55 24.3 47.8 17.65 47.8 13.35 43.15 8.2 37.55 7.7 29.6 7.2 22.7 11.3 17.35 L11.35 17.65 Q11.15 19.95 11.85 21.75 7.8 29.5 12.4 37.1 16.5 43.85 24.25 45.1 M11.8 8.1 L11.8 10.5 Q5.05 16.85 4.15 26.1 3.0 37.75 11.1 46.1 17.2 52.25 25.85 53.15 L26.35 54.95 Q13.85 53.8 6.7 43.25 1.25 35.3 2.3 25.9 3.55 15.15 11.8 8.1" fill="#afc1d9" fill-rule="evenodd" stroke="none"/>
      <path d="M34.15 50.65 Q34.1 41.75 32.3 32.9 L33.95 31.8 34.35 43.45 34.8 45.15 34.9 45.55 38.0 44.45 Q49.05 40.8 49.55 29.45 49.55 22.9 46.55 17.25 L46.9 19.6 Q47.1 21.7 45.35 22.9 L35.9 22.55 34.9 25.15 Q35.1 23.95 33.95 23.4 L33.3 23.05 33.3 21.2 38.3 20.55 Q39.2 22.8 41.45 22.0 L42.2 21.75 Q45.25 23.6 46.0 20.7 46.75 17.8 46.45 14.6 51.15 20.45 51.3 28.65 51.05 38.3 44.65 44.7 40.2 49.15 34.15 50.65 M33.85 30.25 L32.4 29.2 32.4 27.25 34.35 26.45 33.6 28.35 33.85 30.25 M24.25 45.1 L24.95 39.9 Q25.7 35.8 24.45 31.95 L25.5 28.35 23.3 25.55 24.45 22.3 Q22.8 22.45 21.25 23.1 17.0 25.0 12.6 23.2 L11.85 21.75 Q11.15 19.95 11.35 17.65 L11.3 17.35 Q7.2 22.7 7.7 29.6 8.2 37.55 13.35 43.15 17.65 47.8 24.3 47.8 24.15 46.55 24.25 45.1 M11.8 13.3 L12.05 20.75 Q12.1 22.0 13.3 22.4 15.1 23.2 16.1 21.7 L16.85 21.95 Q19.2 22.95 19.95 20.65 L26.0 21.35 26.0 23.05 25.5 23.4 Q24.55 24.05 24.5 24.95 L24.75 25.95 Q25.3 27.3 26.9 27.25 L26.9 29.2 26.4 29.55 Q24.7 30.8 26.2 32.25 26.65 32.65 27.35 32.9 25.25 40.65 25.1 48.35 L25.35 51.1 Q17.85 50.0 12.5 44.7 6.1 38.3 5.85 28.65 6.1 19.55 11.8 13.3" fill="#9ab4cc" fill-rule="evenodd" stroke="none"/>
      <path d="M33.95 31.8 L33.85 30.25 33.6 28.35 34.35 26.45 34.9 25.15 35.9 22.55 45.35 22.9 Q45.85 25.2 45.85 27.7 45.75 33.5 42.1 38.05 38.75 41.7 34.35 43.45 L33.95 31.8 M11.85 21.75 L12.6 23.2 Q17.0 25.0 21.25 23.1 22.8 22.45 24.45 22.3 L23.3 25.55 25.5 28.35 24.45 31.95 Q25.7 35.8 24.95 39.9 L24.25 45.1 Q16.5 43.85 12.4 37.1 7.8 29.5 11.85 21.75" fill="#c5d3e3" fill-rule="evenodd" stroke="none"/>
      <path d="M34.2 11.4 Q31.6 14.85 27.0 13.65 24.5 12.95 24.4 10.6 25.3 9.3 26.9 9.5 L33.9 10.25 34.2 11.4" fill="#a1b3bf" fill-rule="evenodd" stroke="none"/>
    </g>
    <g id="shape4" transform="matrix(1.0, 0.0, 0.0, 1.0, 0.0, 0.0)">
      <path d="M143.3 61.5 Q149.25 75.5 142.55 89.25 L140.5 93.65 159.8 106.6 159.95 107.0 161.6 106.95 201.7 130.8 202.2 131.5 201.45 134.1 206.9 179.25 202.7 230.75 194.5 252.9 197.65 257.15 197.55 258.25 177.05 276.05 Q166.55 268.7 158.75 258.35 L163.15 253.95 161.85 252.55 162.45 250.5 152.4 212.45 145.0 220.05 152.7 274.05 152.35 275.25 151.2 275.75 59.6 276.1 58.5 275.75 58.1 274.5 62.55 221.85 49.75 206.85 42.8 246.35 45.65 248.6 42.4 255.6 46.1 259.9 45.95 261.45 Q37.15 269.45 27.05 275.75 L26.35 275.7 4.9 255.25 8.5 250.35 3.6 228.35 0.0 181.05 8.1 133.55 9.0 132.25 73.55 93.5 74.35 93.25 61.5 72.3 70.05 52.75 93.9 0.9 95.3 0.0 121.25 0.9 122.65 1.9 142.8 60.1 143.3 61.5 M198.95 138.25 L154.9 209.8 164.85 247.8 177.75 233.35 178.65 233.4 192.3 250.3 199.75 230.3 203.9 179.45 198.95 138.25 M129.9 49.3 L132.6 53.8 136.5 51.0 135.3 47.65 132.8 46.85 129.9 49.3 M130.55 46.1 L119.0 43.55 115.8 46.1 114.95 45.8 114.55 45.0 Q108.3 49.05 101.45 45.35 L101.0 45.8 100.4 45.9 97.75 43.5 92.95 45.1 98.15 51.75 97.5 52.6 Q92.15 53.55 87.55 56.65 L88.25 58.15 Q95.35 54.15 101.95 58.95 L103.95 54.15 126.1 56.85 127.8 51.95 129.25 52.15 127.65 48.95 130.55 46.1 M92.45 11.1 L86.65 23.75 104.6 31.2 104.0 32.45 85.8 25.55 73.9 51.45 76.8 49.8 Q87.0 44.2 98.25 41.4 L99.85 42.75 100.7 42.6 101.05 42.75 102.8 43.7 Q105.3 45.15 108.25 45.0 L110.4 44.35 111.55 44.1 Q113.2 43.5 114.65 42.55 L115.5 42.65 116.1 43.5 117.2 42.65 116.85 41.1 116.35 39.7 114.85 36.7 115.6 35.55 115.95 35.65 116.4 36.0 Q118.0 37.7 118.75 39.95 L119.1 41.25 134.45 45.25 130.55 33.95 113.1 34.05 112.9 32.95 129.85 32.0 127.1 24.0 112.25 32.3 111.15 31.0 126.4 22.05 122.2 9.95 120.1 3.9 96.2 3.05 92.45 11.1 M82.95 33.65 L83.25 32.75 101.6 32.1 102.5 32.8 102.05 34.05 83.25 34.2 82.95 33.65 M118.0 63.4 Q98.95 62.85 82.05 71.1 75.15 74.4 69.3 79.15 L78.4 94.1 Q85.4 96.15 108.1 100.05 L118.35 97.3 Q129.95 94.2 137.6 93.0 L144.55 77.45 Q139.5 72.75 133.6 69.3 L128.15 66.2 128.15 66.9 Q120.0 73.55 115.65 83.0 113.5 87.65 112.7 92.7 L112.3 92.85 100.05 88.75 99.75 87.25 Q104.5 78.2 111.7 70.55 115.05 67.0 118.75 64.0 L118.0 63.4 M121.4 64.4 Q108.35 73.0 102.05 87.35 L111.25 90.45 Q113.45 75.15 126.1 66.1 L126.3 65.35 121.45 63.95 121.4 64.4 M103.4 60.7 Q115.05 60.35 126.25 63.2 L126.1 58.9 105.35 55.9 103.4 60.7 M101.2 61.1 Q95.7 55.5 88.85 60.15 L89.75 63.6 90.3 62.95 Q93.9 58.95 98.15 61.75 L101.2 61.1 M81.15 61.8 L81.35 58.8 78.3 53.95 92.8 45.15 Q82.2 48.9 72.45 54.7 L71.5 56.9 70.25 59.5 66.35 67.95 65.15 70.55 64.6 71.7 68.2 77.45 72.2 74.5 76.45 71.3 78.9 69.7 80.8 68.65 81.15 61.8 M83.35 58.5 L82.85 67.65 88.2 65.55 Q87.95 60.25 84.5 55.95 L83.35 58.5 M83.95 53.9 L84.65 53.85 Q85.6 54.1 86.4 55.0 L89.0 53.1 Q91.85 51.0 95.15 50.7 L92.45 47.3 80.75 54.2 82.0 56.15 Q82.7 54.3 83.95 53.9 M96.8 63.15 L94.8 62.35 92.0 64.15 96.8 63.15 M142.2 72.4 L144.7 74.8 143.65 71.75 142.2 72.4 M141.9 66.75 L136.3 66.8 136.4 68.2 140.2 71.05 143.0 69.85 141.9 66.75 M134.55 59.35 L139.35 59.35 137.2 53.05 132.9 56.05 134.55 59.35 M135.35 61.35 L136.05 64.55 141.25 64.75 140.1 61.5 135.35 61.35 M134.3 67.05 Q134.05 62.15 131.65 58.05 L128.5 54.05 Q127.35 59.15 128.5 64.15 L134.3 67.05 M138.2 96.0 L108.8 102.55 120.5 110.6 135.75 102.1 138.65 96.3 138.2 96.0 M57.65 128.05 L52.0 109.9 11.5 134.2 32.75 182.2 65.6 221.5 61.25 273.1 100.35 273.1 101.2 172.2 101.35 171.6 67.85 140.4 67.55 139.55 72.85 130.4 58.9 129.1 Q57.95 128.95 57.65 128.05 M76.35 128.85 Q74.45 134.1 70.8 139.05 L102.75 168.8 103.25 167.7 73.6 96.95 54.65 108.35 60.15 126.2 75.55 128.0 Q76.65 127.95 76.35 128.85 M10.25 138.75 L3.0 180.95 6.6 227.95 10.95 247.45 21.75 235.4 39.95 244.75 41.05 233.9 47.3 203.95 30.3 184.0 10.25 138.75 M159.55 109.1 L155.6 128.0 142.4 130.9 148.2 135.1 148.5 135.5 148.7 135.95 148.8 136.95 104.4 172.2 104.2 172.6 103.35 273.1 149.5 272.75 141.95 219.7 152.4 208.15 198.85 132.65 160.05 109.55 159.55 109.1 M138.95 103.3 L107.5 166.0 144.85 136.35 137.45 130.2 137.4 129.75 137.7 129.35 153.25 126.0 156.75 108.0 141.15 98.05 138.8 102.9 138.95 103.3 M115.0 110.4 L112.5 115.4 119.9 134.2 133.75 106.65 120.05 113.65 115.0 110.4 M102.85 117.4 L94.5 139.1 105.0 164.15 118.1 137.85 109.85 116.95 102.85 117.4 M112.5 108.7 L106.2 104.4 101.15 108.85 102.9 114.4 109.9 113.9 112.5 108.7 M82.05 109.35 L92.8 135.1 100.25 115.9 98.7 111.0 96.25 113.15 82.05 109.35 M103.65 102.65 L77.0 96.75 80.75 106.2 95.2 110.1 103.65 102.65 M38.15 257.05 L42.35 249.5 22.3 238.55 8.5 255.05 27.4 272.6 42.55 260.35 40.8 258.35 39.6 259.9 39.25 259.95 34.15 260.55 33.35 260.25 Q29.1 258.3 25.05 256.05 24.35 255.6 24.5 254.85 L25.85 250.3 Q26.0 249.85 26.55 249.8 27.4 249.45 27.8 250.3 28.65 252.05 27.7 254.3 L34.25 257.5 38.15 257.05 M178.9 259.45 Q179.9 260.95 178.25 261.75 176.4 261.7 175.6 259.75 L170.3 261.1 165.2 256.15 162.4 258.8 176.45 272.55 194.1 257.35 178.1 237.15 165.3 251.85 171.15 257.95 173.6 257.2 Q172.5 255.85 173.8 254.65 174.6 254.0 175.15 254.65 L178.9 259.45" fill="#1a1a1a" fill-rule="evenodd" stroke="none"/>
      <path d="M198.95 138.25 L203.9 179.45 199.75 230.3 192.3 250.3 178.65 233.4 177.75 233.35 164.85 247.8 154.9 209.8 198.95 138.25 M122.2 9.95 Q113.45 10.25 107.95 17.65 L107.85 17.9 Q101.55 10.25 92.45 11.1 L96.2 3.05 120.1 3.9 122.2 9.95 M138.95 103.3 L138.8 102.9 141.15 98.05 156.75 108.0 153.25 126.0 137.7 129.35 137.4 129.75 137.45 130.2 144.85 136.35 107.5 166.0 138.95 103.3 M159.55 109.1 L160.05 109.55 198.85 132.65 152.4 208.15 141.95 219.7 149.5 272.75 103.35 273.1 104.2 172.6 104.4 172.2 148.8 136.95 148.7 135.95 148.5 135.5 148.2 135.1 142.4 130.9 155.6 128.0 159.55 109.1 M10.25 138.75 L30.3 184.0 47.3 203.95 41.05 233.9 39.95 244.75 21.75 235.4 10.95 247.45 6.6 227.95 3.0 180.95 10.25 138.75 M76.35 128.85 Q76.65 127.95 75.55 128.0 L60.15 126.2 54.65 108.35 73.6 96.95 103.25 167.7 102.75 168.8 70.8 139.05 Q74.45 134.1 76.35 128.85 M57.65 128.05 Q57.95 128.95 58.9 129.1 L72.85 130.4 67.55 139.55 67.85 140.4 101.35 171.6 101.2 172.2 100.35 273.1 61.25 273.1 65.6 221.5 32.75 182.2 11.5 134.2 52.0 109.9 57.65 128.05" fill="#106557" fill-rule="evenodd" stroke="none"/>
      <path d="M122.2 9.95 L126.4 22.05 111.15 31.0 112.25 32.3 127.1 24.0 129.85 32.0 112.9 32.95 113.1 34.05 130.55 33.95 134.45 45.25 119.1 41.25 118.75 39.95 Q118.0 37.7 116.4 36.0 L115.95 35.65 115.6 35.55 114.85 36.7 116.35 39.7 116.85 41.1 117.2 42.65 116.1 43.5 115.5 42.65 114.65 42.55 Q113.2 43.5 111.55 44.1 L110.4 44.35 108.25 45.0 Q105.3 45.15 102.8 43.7 L101.05 42.75 100.7 42.6 99.85 42.75 98.25 41.4 Q87.0 44.2 76.8 49.8 L73.9 51.45 85.8 25.55 104.0 32.45 104.6 31.2 86.65 23.75 92.45 11.1 Q101.55 10.25 107.85 17.9 L107.95 17.65 Q113.45 10.25 122.2 9.95 M130.55 46.1 L127.65 48.95 129.25 52.15 127.8 51.95 126.1 56.85 103.95 54.15 101.95 58.95 Q95.35 54.15 88.25 58.15 L87.55 56.65 Q92.15 53.55 97.5 52.6 L98.15 51.75 92.95 45.1 97.75 43.5 100.4 45.9 101.0 45.8 101.45 45.35 Q108.3 49.05 114.55 45.0 L114.95 45.8 115.8 46.1 119.0 43.55 130.55 46.1 M118.0 63.4 L118.75 64.0 Q115.05 67.0 111.7 70.55 104.5 78.2 99.75 87.25 L100.05 88.75 112.3 92.85 112.7 92.7 Q113.5 87.65 115.65 83.0 120.0 73.55 128.15 66.9 L128.15 66.2 133.6 69.3 Q139.5 72.75 144.55 77.45 L137.6 93.0 Q129.95 94.2 118.35 97.3 L108.1 100.05 Q85.4 96.15 78.4 94.1 L69.3 79.15 Q75.15 74.4 82.05 71.1 98.95 62.85 118.0 63.4 M82.95 33.65 L83.25 34.2 102.05 34.05 102.5 32.8 101.6 32.1 83.25 32.75 82.95 33.65 M71.5 56.9 L72.45 54.7 Q82.2 48.9 92.8 45.15 L78.3 53.95 81.35 58.8 81.15 61.8 80.65 60.9 Q77.5 55.65 71.5 56.9 M72.2 74.5 L68.2 77.45 64.6 71.7 65.15 70.55 Q65.8 72.45 67.15 73.45 69.0 74.95 72.2 74.5 M83.35 58.5 L84.5 55.95 Q87.95 60.25 88.2 65.55 L82.85 67.65 83.35 58.5 M96.8 63.15 L92.0 64.15 94.8 62.35 96.8 63.15 M134.55 59.35 L132.9 56.05 137.2 53.05 139.35 59.35 134.55 59.35 M141.9 66.75 L143.0 69.85 140.2 71.05 136.4 68.2 136.3 66.8 141.9 66.75 M138.2 96.0 L138.65 96.3 135.75 102.1 120.5 110.6 108.8 102.55 138.2 96.0 M134.3 67.05 L128.5 64.15 Q127.35 59.15 128.5 54.05 L131.65 58.05 Q134.05 62.15 134.3 67.05 M70.55 68.85 L70.5 66.4 Q74.3 62.75 76.25 66.6 76.85 67.9 75.85 68.85 73.15 70.15 70.55 68.85 M115.0 110.4 L120.05 113.65 133.75 106.65 119.9 134.2 112.5 115.4 115.0 110.4 M178.9 259.45 L175.15 254.65 Q174.6 254.0 173.8 254.65 172.5 255.85 173.6 257.2 L171.15 257.95 165.3 251.85 178.1 237.15 194.1 257.35 176.45 272.55 162.4 258.8 165.2 256.15 170.3 261.1 175.6 259.75 Q176.4 261.7 178.25 261.75 179.9 260.95 178.9 259.45 M38.15 257.05 L34.25 257.5 27.7 254.3 Q28.65 252.05 27.8 250.3 27.4 249.45 26.55 249.8 26.0 249.85 25.85 250.3 L24.5 254.85 Q24.35 255.6 25.05 256.05 29.1 258.3 33.35 260.25 L34.15 260.55 39.25 259.95 39.6 259.9 40.8 258.35 42.55 260.35 27.4 272.6 8.5 255.05 22.3 238.55 42.35 249.5 38.15 257.05 M103.65 102.65 L95.2 110.1 80.75 106.2 77.0 96.75 103.65 102.65 M82.05 109.35 L96.25 113.15 98.7 111.0 100.25 115.9 92.8 135.1 82.05 109.35" fill="#c1d9cb" fill-rule="evenodd" stroke="none"/>
      <path d="M129.9 49.3 L132.8 46.85 135.3 47.65 136.5 51.0 132.6 53.8 129.9 49.3 M142.2 72.4 L143.65 71.75 144.7 74.8 142.2 72.4" fill="#ffd25f" fill-rule="evenodd" stroke="none"/>
      <path d="M103.4 60.7 L105.35 55.9 126.1 58.9 126.25 63.2 Q115.05 60.35 103.4 60.7 M121.4 64.4 L121.45 63.95 126.3 65.35 126.1 66.1 Q113.45 75.15 111.25 90.45 L102.05 87.35 Q108.35 73.0 121.4 64.4" fill="#ff7fed" fill-rule="evenodd" stroke="none"/>
      <path d="M101.2 61.1 L98.15 61.75 Q93.9 58.95 90.3 62.95 L89.75 63.6 88.85 60.15 Q95.7 55.5 101.2 61.1 M83.95 53.9 Q82.7 54.3 82.0 56.15 L80.75 54.2 92.45 47.3 95.15 50.7 Q91.85 51.0 89.0 53.1 L86.4 55.0 Q85.6 54.1 84.65 53.85 L83.95 53.9" fill="#7f81ff" fill-rule="evenodd" stroke="none"/>
      <path d="M142.8 60.1 Q144.15 59.2 145.95 59.5 L146.8 59.8 Q144.6 60.05 143.3 61.5 L142.8 60.1" fill="#e9e9eb" fill-rule="evenodd" stroke="none"/>
      <path d="M71.5 56.9 Q77.5 55.65 80.65 60.9 L81.15 61.8 80.8 68.65 78.9 69.7 Q80.65 66.85 79.55 63.7 77.05 56.8 70.25 59.5 L71.5 56.9 M76.45 71.3 L72.2 74.5 Q69.0 74.95 67.15 73.45 65.8 72.45 65.15 70.55 L66.35 67.95 Q66.65 71.35 69.6 72.2 73.4 73.25 76.45 71.3 M70.55 68.85 Q73.15 70.15 75.85 68.85 76.85 67.9 76.25 66.6 74.3 62.75 70.5 66.4 L70.55 68.85 M74.5 71.4 Q71.4 71.95 69.1 69.95 67.75 63.6 74.25 62.8 77.7 63.1 78.1 66.35 78.65 70.4 74.5 71.4" fill="#000000" fill-rule="evenodd" stroke="none"/>
      <path d="M78.9 69.7 L76.45 71.3 Q73.4 73.25 69.6 72.2 66.65 71.35 66.35 67.95 L70.25 59.5 Q77.05 56.8 79.55 63.7 80.65 66.85 78.9 69.7 M74.5 71.4 Q78.65 70.4 78.1 66.35 77.7 63.1 74.25 62.8 67.75 63.6 69.1 69.95 71.4 71.95 74.5 71.4" fill="#d5ff9f" fill-rule="evenodd" stroke="none"/>
      <path d="M112.5 108.7 L109.9 113.9 102.9 114.4 101.15 108.85 106.2 104.4 112.5 108.7 M102.85 117.4 L109.85 116.95 118.1 137.85 105.0 164.15 94.5 139.1 102.85 117.4" fill="#0e4239" fill-rule="evenodd" stroke="none"/>
    </g>
    <g id="shape5" transform="matrix(1.0, 0.0, 0.0, 1.0, 0.0, 0.0)">
      <path d="M45.25 29.75 L47.8 71.6 48.35 71.25 Q52.15 69.5 55.3 72.25 L55.15 73.5 54.4 73.55 52.75 72.7 49.9 72.5 49.85 72.55 Q48.55 78.05 54.2 77.75 60.85 78.4 62.65 71.55 L63.6 72.4 63.25 73.75 Q61.35 81.85 53.15 81.25 L53.45 82.55 58.3 83.45 78.4 84.05 77.5 79.8 76.2 80.5 Q69.5 83.65 66.65 76.5 65.8 74.4 65.7 72.2 L66.8 72.1 67.45 73.8 Q68.9 77.4 71.8 77.4 L75.8 77.3 Q79.05 76.5 78.95 71.7 L78.7 71.45 Q75.8 68.8 72.0 67.75 L72.25 66.7 73.5 66.75 Q81.2 67.8 80.5 75.4 80.35 77.1 79.0 78.35 L79.2 79.7 Q81.75 100.35 77.25 120.7 L76.9 120.9 Q63.15 126.55 52.9 116.25 52.05 115.45 52.25 114.05 54.15 99.65 52.0 85.4 L50.75 86.9 49.45 86.0 51.55 83.15 51.0 80.8 48.25 78.95 50.95 122.65 62.6 126.85 64.45 161.45 69.3 128.35 79.85 123.25 83.8 32.15 80.25 33.25 80.7 34.2 70.5 42.25 76.65 42.45 77.35 42.8 77.3 44.2 71.65 44.3 76.1 48.95 75.15 49.95 68.65 44.2 67.65 44.2 67.8 46.3 Q68.35 53.55 67.1 60.65 L71.8 63.55 73.0 60.2 71.55 57.9 72.6 56.9 79.0 63.1 78.4 64.35 74.7 62.15 74.3 63.15 Q73.2 66.4 69.9 64.95 L68.8 64.4 67.85 67.2 66.25 67.3 Q54.65 62.05 49.05 67.2 L48.6 65.75 49.8 65.1 Q54.4 62.9 56.1 58.1 L57.2 59.05 55.45 62.95 66.7 65.45 66.25 62.35 65.4 61.85 65.55 44.4 63.0 44.3 61.05 46.15 Q58.25 48.95 54.4 48.15 L53.7 47.3 54.65 46.25 56.2 46.15 Q59.0 46.0 60.85 43.9 L51.95 42.4 51.9 41.3 58.9 41.55 52.3 36.55 52.15 36.15 52.45 35.25 49.3 34.8 48.7 35.35 47.3 35.1 47.5 33.9 48.6 33.5 Q57.55 33.1 60.55 41.5 61.15 41.7 61.75 42.05 L67.1 42.25 68.9 39.9 Q74.95 32.45 84.25 30.2 L84.7 20.75 85.3 8.05 Q73.75 1.5 57.65 1.45 L43.85 7.5 45.25 29.75 M1.75 245.2 L1.6 240.9 Q1.1 211.55 1.8 182.25 L15.8 135.15 16.45 134.3 47.9 121.95 40.95 6.35 Q48.65 1.4 57.7 0.45 L61.8 0.05 Q76.0 -0.5 88.15 6.5 L88.35 7.3 82.9 122.0 Q83.25 121.95 91.8 125.5 L103.85 130.55 105.1 131.1 104.9 131.05 117.05 136.9 117.55 137.8 126.1 188.2 127.75 230.1 Q128.6 230.8 128.7 231.8 129.65 241.4 128.8 251.2 120.3 255.95 111.45 255.6 L110.8 255.35 109.3 254.85 102.4 252.2 101.55 259.85 101.25 260.2 30.8 259.45 29.55 254.35 25.1 257.7 Q13.15 253.95 1.85 248.6 L1.7 246.1 1.75 245.2 M78.3 86.1 Q66.0 86.75 53.9 84.6 55.7 99.35 54.6 106.05 53.5 112.7 55.4 116.05 57.25 119.4 59.3 119.9 66.9 121.95 75.55 119.8 77.6 112.1 76.45 102.2 L75.8 102.75 Q66.8 100.2 57.3 101.0 L57.35 100.55 Q67.35 98.95 76.35 101.15 L78.3 86.1 M50.15 146.1 L48.6 146.8 Q47.55 146.55 47.5 145.25 47.15 135.65 46.95 125.95 L29.3 132.6 28.15 143.55 45.0 146.3 45.45 147.15 45.3 147.95 36.0 151.9 61.2 175.0 61.95 173.55 52.75 142.4 50.15 146.1 M59.9 132.25 L54.95 139.25 61.45 161.2 59.9 132.25 M58.9 128.45 L49.95 125.5 50.3 140.7 58.9 128.45 M69.75 125.05 L69.8 126.35 62.55 126.55 62.3 125.55 69.75 125.05 M78.3 146.9 L77.45 146.35 76.9 145.35 66.0 171.8 62.2 179.6 64.6 176.8 90.4 152.25 83.6 146.6 83.35 146.25 Q82.7 145.35 83.4 144.55 83.9 143.95 84.65 143.95 L100.9 145.05 102.95 133.4 88.0 126.2 80.05 146.25 79.75 146.75 78.3 146.9 M72.6 129.4 L78.55 142.0 85.3 124.9 84.65 124.55 72.6 129.4 M75.1 141.7 L71.35 133.75 67.75 159.65 75.1 141.7 M103.0 147.8 L102.6 148.15 89.05 147.3 94.05 151.7 93.65 153.25 56.35 191.15 55.5 256.9 99.2 257.25 99.5 250.35 Q98.55 249.7 97.7 248.5 L97.55 248.0 98.15 239.95 100.0 239.15 104.7 155.0 110.65 144.55 111.25 144.55 112.25 146.05 107.7 155.5 103.6 229.3 110.85 221.65 112.65 221.85 114.3 222.05 117.45 223.1 Q120.35 224.2 123.0 226.1 L124.65 227.4 123.1 188.4 114.7 139.1 105.75 134.75 103.0 147.8 M38.05 147.85 L25.35 145.45 26.15 133.8 18.5 136.7 4.8 182.7 3.1 231.55 6.55 226.75 10.05 221.95 10.4 221.7 20.15 219.25 27.2 225.4 23.2 163.7 18.3 152.45 19.5 151.45 26.15 163.15 30.45 228.25 34.25 231.95 32.05 238.45 34.25 239.3 34.25 239.65 34.35 242.15 34.2 246.45 Q34.05 248.9 32.75 251.05 L32.35 251.75 32.85 257.05 52.5 256.9 53.35 190.75 59.8 177.75 32.0 152.1 32.1 150.4 38.05 147.85 M15.7 233.15 L15.75 232.05 17.4 231.6 19.45 243.55 26.05 243.25 31.05 232.85 19.3 222.35 11.75 223.75 5.15 233.85 4.65 247.0 24.75 254.7 31.85 248.1 31.5 241.4 30.7 241.25 27.7 246.0 17.8 246.4 17.1 243.8 Q16.6 241.35 16.25 238.9 L15.95 236.35 15.7 233.15 M100.75 242.1 L100.35 247.35 112.3 254.95 126.15 249.35 126.35 232.9 116.9 224.65 111.55 224.65 103.4 234.2 103.05 239.0 106.85 239.75 108.3 244.35 113.5 244.2 113.05 237.95 114.5 237.45 116.35 246.7 106.6 247.3 104.7 242.15 100.75 242.1" fill="#1a1a1a" fill-rule="evenodd" stroke="none"/>
      <path d="M45.25 29.75 L43.85 7.5 57.65 1.45 Q73.75 1.5 85.3 8.05 L84.7 20.75 Q83.25 15.3 80.25 10.55 79.1 8.7 77.25 7.6 70.75 3.75 65.7 10.2 62.65 7.4 58.65 6.45 54.9 5.6 52.5 8.3 45.8 15.9 47.95 26.3 L45.25 29.75" fill="#591c1c" fill-rule="evenodd" stroke="none"/>
      <path d="M84.7 20.75 L84.25 30.2 Q74.95 32.45 68.9 39.9 L67.1 42.25 61.75 42.05 Q61.15 41.7 60.55 41.5 57.55 33.1 48.6 33.5 L47.5 33.9 47.3 35.1 48.7 35.35 49.3 34.8 52.45 35.25 52.15 36.15 52.3 36.55 58.9 41.55 51.9 41.3 51.95 42.4 60.85 43.9 Q59.0 46.0 56.2 46.15 L54.65 46.25 53.7 47.3 54.4 48.15 Q58.25 48.95 61.05 46.15 L63.0 44.3 65.55 44.4 65.4 61.85 66.25 62.35 66.7 65.45 55.45 62.95 57.2 59.05 56.1 58.1 Q54.4 62.9 49.8 65.1 L48.6 65.75 49.05 67.2 Q54.65 62.05 66.25 67.3 L67.85 67.2 68.8 64.4 69.9 64.95 Q73.2 66.4 74.3 63.15 L74.7 62.15 78.4 64.35 79.0 63.1 72.6 56.9 71.55 57.9 73.0 60.2 71.8 63.55 67.1 60.65 Q68.35 53.55 67.8 46.3 L67.65 44.2 68.65 44.2 75.15 49.95 76.1 48.95 71.65 44.3 77.3 44.2 77.35 42.8 76.65 42.45 70.5 42.25 80.7 34.2 80.25 33.25 83.8 32.15 79.85 123.25 69.3 128.35 64.45 161.45 62.6 126.85 50.95 122.65 48.25 78.95 51.0 80.8 51.55 83.15 49.45 86.0 50.75 86.9 52.0 85.4 Q54.15 99.65 52.25 114.05 52.05 115.45 52.9 116.25 63.15 126.55 76.9 120.9 L77.25 120.7 Q81.75 100.35 79.2 79.7 L79.0 78.35 Q80.35 77.1 80.5 75.4 81.2 67.8 73.5 66.75 L72.25 66.7 72.0 67.75 Q75.8 68.8 78.7 71.45 L78.95 71.7 Q79.05 76.5 75.8 77.3 L71.8 77.4 Q68.9 77.4 67.45 73.8 L66.8 72.1 65.7 72.2 Q65.8 74.4 66.65 76.5 69.5 83.65 76.2 80.5 L77.5 79.8 78.4 84.05 58.3 83.45 53.45 82.55 53.15 81.25 Q61.35 81.85 63.25 73.75 L63.6 72.4 62.65 71.55 Q60.85 78.4 54.2 77.75 48.55 78.05 49.85 72.55 L49.9 72.5 52.75 72.7 54.4 73.55 55.15 73.5 55.3 72.25 Q52.15 69.5 48.35 71.25 L47.8 71.6 45.25 29.75 47.95 26.3 Q45.8 15.9 52.5 8.3 54.9 5.6 58.65 6.45 62.65 7.4 65.7 10.2 70.75 3.75 77.25 7.6 79.1 8.7 80.25 10.55 83.25 15.3 84.7 20.75 M69.75 125.05 L62.3 125.55 62.55 126.55 69.8 126.35 69.75 125.05" fill="#f9e8f8" fill-rule="evenodd" stroke="none"/>
      <path d="M50.15 146.1 L52.75 142.4 61.95 173.55 61.2 175.0 36.0 151.9 45.3 147.95 45.45 147.15 45.0 146.3 28.15 143.55 29.3 132.6 46.95 125.95 Q47.15 135.65 47.5 145.25 47.55 146.55 48.6 146.8 L50.15 146.1 M78.3 146.9 L79.75 146.75 80.05 146.25 88.0 126.2 102.95 133.4 100.9 145.05 84.65 143.95 Q83.9 143.95 83.4 144.55 82.7 145.35 83.35 146.25 L83.6 146.6 90.4 152.25 64.6 176.8 62.2 179.6 66.0 171.8 76.9 145.35 77.45 146.35 78.3 146.9 M38.05 147.85 L32.1 150.4 32.0 152.1 59.8 177.75 53.35 190.75 52.5 256.9 32.85 257.05 32.35 251.75 32.75 251.05 Q34.05 248.9 34.2 246.45 L34.35 242.15 34.25 239.65 34.25 239.3 32.05 238.45 34.25 231.95 30.45 228.25 26.15 163.15 19.5 151.45 18.3 152.45 23.2 163.7 27.2 225.4 20.15 219.25 10.4 221.7 10.05 221.95 6.55 226.75 3.1 231.55 4.8 182.7 18.5 136.7 26.15 133.8 25.35 145.45 38.05 147.85 M103.0 147.8 L105.75 134.75 114.7 139.1 123.1 188.4 124.65 227.4 123.0 226.1 Q120.35 224.2 117.45 223.1 L114.3 222.05 112.65 221.85 110.85 221.65 103.6 229.3 107.7 155.5 112.25 146.05 111.25 144.55 110.65 144.55 104.7 155.0 100.0 239.15 98.15 239.95 97.55 248.0 97.7 248.5 Q98.55 249.7 99.5 250.35 L99.2 257.25 55.5 256.9 56.35 191.15 93.65 153.25 94.05 151.7 89.05 147.3 102.6 148.15 103.0 147.8" fill="#8d254e" fill-rule="evenodd" stroke="none"/>
      <path d="M58.9 128.45 L50.3 140.7 49.95 125.5 58.9 128.45 M59.9 132.25 L61.45 161.2 54.95 139.25 59.9 132.25 M75.1 141.7 L67.75 159.65 71.35 133.75 75.1 141.7 M72.6 129.4 L84.65 124.55 85.3 124.9 78.55 142.0 72.6 129.4" fill="#ffe1e9" fill-rule="evenodd" stroke="none"/>
      <path d="M100.75 242.1 L104.7 242.15 106.6 247.3 116.35 246.7 114.5 237.45 113.05 237.95 113.5 244.2 108.3 244.35 106.85 239.75 103.05 239.0 103.4 234.2 111.55 224.65 116.9 224.65 126.35 232.9 126.15 249.35 112.3 254.95 100.35 247.35 100.75 242.1 M15.7 233.15 L15.95 236.35 16.25 238.9 Q16.6 241.35 17.1 243.8 L17.8 246.4 27.7 246.0 30.7 241.25 31.5 241.4 31.85 248.1 24.75 254.7 4.65 247.0 5.15 233.85 11.75 223.75 19.3 222.35 31.05 232.85 26.05 243.25 19.45 243.55 17.4 231.6 15.75 232.05 15.7 233.15" fill="#e3aed5" fill-rule="evenodd" stroke="none"/>
      <path d="M1.75 245.2 L1.7 246.1 0.0 245.2 1.75 245.2" fill="#b0aeb3" fill-rule="evenodd" stroke="none"/>
      <path d="M78.3 86.1 L76.35 101.15 Q67.35 98.95 57.35 100.55 L57.3 101.0 Q66.8 100.2 75.8 102.75 L76.45 102.2 Q77.6 112.1 75.55 119.8 66.9 121.95 59.3 119.9 57.25 119.4 55.4 116.05 53.5 112.7 54.6 106.05 55.7 99.35 53.9 84.6 66.0 86.75 78.3 86.1" fill="#ffffff" fill-rule="evenodd" stroke="none"/>
    </g>
    <g id="shape6" transform="matrix(1.0, 0.0, 0.0, 1.0, -0.1, 0.0)">
      <path d="M44.15 4.15 Q48.25 3.4 52.05 4.8 L52.4 5.0 52.3 11.35 52.25 12.55 Q56.95 19.4 57.2 28.65 56.95 39.1 50.85 46.55 L50.85 48.45 50.25 54.2 Q46.95 55.8 43.1 54.6 L42.4 54.05 42.25 53.8 Q36.25 57.05 28.6 57.25 20.95 57.05 14.95 53.75 L14.75 54.3 14.4 54.75 8.05 54.95 Q6.45 53.25 6.75 50.75 L6.9 47.7 6.85 47.2 Q3.0 42.7 1.3 37.15 -0.8 29.9 0.85 22.5 2.4 15.75 6.8 10.6 15.0 0.95 27.95 0.05 L28.3 0.05 28.6 0.05 Q37.0 0.25 43.5 4.2 L44.15 4.15 M50.75 10.0 L51.2 5.6 42.35 5.6 Q42.7 27.1 43.4 48.6 43.45 50.9 43.95 52.95 L47.55 53.2 49.45 52.9 Q49.55 33.1 50.45 13.35 L50.75 10.0 M40.95 5.25 Q41.05 4.75 41.2 4.9 L41.4 4.8 Q35.75 1.65 28.6 1.45 17.05 1.75 9.4 9.45 1.7 17.1 1.4 28.65 1.65 37.85 6.6 44.65 L6.5 43.3 6.35 41.05 6.05 39.7 Q1.4 28.1 7.05 17.05 11.65 8.15 21.3 5.15 31.5 2.15 40.85 7.15 L40.95 5.25 M45.1 11.4 L45.35 12.2 47.45 10.1 46.65 9.85 Q45.25 10.0 45.1 11.4 M40.8 9.45 L40.8 8.75 Q35.55 5.45 28.65 5.3 18.7 5.6 12.0 12.3 5.3 19.0 5.05 28.9 5.2 33.9 6.95 38.05 L7.95 37.8 14.45 37.8 15.3 38.55 15.05 47.8 17.35 48.85 17.4 46.3 17.4 42.55 16.8 27.7 17.8 27.05 Q22.25 25.8 26.4 27.25 L26.7 27.55 26.7 51.5 26.7 51.95 29.25 52.05 29.25 51.35 29.25 47.1 29.3 44.85 28.85 16.2 30.2 15.55 38.9 15.85 38.7 49.4 38.7 49.8 41.85 47.95 41.85 47.1 41.95 42.75 41.95 38.3 41.0 14.95 40.85 11.15 40.8 9.45 M44.55 12.65 Q44.5 11.25 45.1 10.1 45.7 8.9 46.6 8.8 47.5 8.7 48.2 9.75 48.9 10.75 48.95 12.35 48.4 13.7 46.65 13.9 45.1 13.75 44.55 12.65 M48.3 45.2 L48.65 46.05 Q49.15 47.55 48.1 48.55 L46.3 49.2 Q44.8 49.15 44.1 47.55 43.75 46.05 44.6 45.2 L45.65 44.45 Q47.35 44.0 48.3 45.2 M46.3 12.95 L46.65 13.0 Q48.75 12.6 48.05 10.7 L46.3 12.95 M50.85 42.75 L50.85 44.4 Q55.35 38.0 55.55 29.2 55.4 21.65 52.1 15.6 L52.05 16.5 Q51.5 20.6 52.6 24.4 53.15 26.45 53.2 28.65 53.35 33.65 51.5 38.1 50.6 40.15 50.85 42.75 M51.15 34.95 Q51.9 31.85 51.85 28.65 L51.65 24.65 51.15 34.95 M44.9 46.45 L44.9 47.25 Q45.45 48.6 46.85 48.1 L47.6 47.8 44.9 46.45 M47.9 46.25 Q47.35 44.95 45.9 45.3 45.55 45.45 45.3 45.7 L47.95 47.0 47.9 46.25 M38.0 18.15 L38.1 16.8 29.9 16.9 31.25 53.15 37.5 53.45 37.55 53.2 Q36.9 35.65 38.0 18.15 M35.4 21.6 L35.0 20.95 32.75 21.0 32.45 21.65 35.4 21.6 M32.05 23.7 Q30.8 22.05 32.1 20.4 L32.25 20.3 Q33.9 18.95 35.6 20.25 L35.8 20.5 Q37.0 22.1 35.7 23.75 L35.55 23.9 Q33.9 25.2 32.2 23.85 L32.05 23.7 M35.4 48.0 Q37.9 50.5 35.05 52.15 L32.75 52.05 Q31.1 50.6 32.2 48.6 33.2 47.3 35.0 47.8 L35.4 48.0 M32.4 22.2 L32.8 22.85 35.05 22.8 35.35 22.15 32.4 22.2 M20.1 34.85 Q19.2 34.05 19.3 32.95 19.55 30.6 21.75 30.6 23.45 30.5 23.95 32.0 24.55 33.8 23.2 34.9 L20.1 34.85 M23.55 48.15 Q24.4 48.75 24.5 49.6 24.85 52.4 22.1 52.65 21.25 52.3 20.65 51.7 18.85 49.95 20.8 48.1 L23.55 48.15 M9.4 44.7 L9.2 45.45 Q9.35 46.9 10.75 47.05 L11.55 46.85 9.4 44.7 M9.05 47.25 L8.8 46.95 Q7.8 45.3 9.05 43.7 10.1 42.75 11.45 43.15 L12.0 43.35 Q13.1 43.95 13.25 45.45 13.05 47.15 11.75 47.7 10.7 48.45 9.05 47.25 M12.35 45.45 Q12.2 44.05 10.75 43.9 L10.0 44.1 12.15 46.25 12.35 45.45 M14.2 38.7 L7.45 38.8 8.6 53.65 Q9.45 54.1 10.5 54.05 L14.1 53.7 14.2 38.7 M21.65 31.4 L20.9 31.6 23.05 33.75 23.25 32.95 Q23.1 31.55 21.65 31.4 M22.45 34.35 L20.3 32.2 20.1 32.95 Q20.35 34.35 21.65 34.55 L22.45 34.35 M22.15 48.6 Q21.45 48.65 21.1 49.0 20.65 49.4 20.55 50.15 L20.75 50.9 22.85 48.8 22.15 48.6 M35.3 49.15 L33.1 49.1 32.65 49.55 32.6 50.35 35.3 49.15 M25.55 28.05 L17.9 28.15 19.3 53.15 24.75 53.25 25.55 28.05 M41.95 51.4 L41.85 49.6 38.7 51.3 38.55 53.05 38.35 54.05 42.0 52.4 41.95 51.4 M25.95 54.9 L23.3 55.25 Q28.6 56.35 33.95 55.25 L30.85 54.9 Q29.8 54.75 29.55 53.85 L29.45 53.4 26.6 53.3 25.95 54.9 M33.2 51.4 L34.55 51.7 35.7 49.95 33.2 51.4 M21.35 51.55 L22.1 51.75 Q23.9 51.55 23.6 49.7 L21.35 51.55 M15.15 51.45 L15.15 52.25 17.45 53.45 17.3 52.6 Q17.2 51.75 17.25 50.65 L15.1 49.4 15.15 51.45" fill="#5d0035" fill-rule="evenodd" stroke="none"/>
      <path d="M50.75 10.0 L50.45 13.35 Q49.55 33.1 49.45 52.9 L47.55 53.2 43.95 52.95 Q43.45 50.9 43.4 48.6 42.7 27.1 42.35 5.6 L51.2 5.6 50.75 10.0 M48.95 12.35 Q48.9 10.75 48.2 9.75 47.5 8.7 46.6 8.8 45.7 8.9 45.1 10.1 44.5 11.25 44.55 12.65 L44.6 45.2 Q43.75 46.05 44.1 47.55 44.8 49.15 46.3 49.2 46.8 49.75 47.7 49.65 L48.1 48.55 Q49.15 47.55 48.65 46.05 L48.3 45.2 48.05 41.5 Q47.2 35.85 47.35 30.15 47.65 21.15 48.95 12.35 M38.0 18.15 Q36.9 35.65 37.55 53.2 L37.5 53.45 31.25 53.15 29.9 16.9 38.1 16.8 38.0 18.15 M35.55 23.9 L35.7 23.75 Q37.0 22.1 35.8 20.5 L35.6 20.25 Q33.9 18.95 32.25 20.3 L32.1 20.4 Q30.8 22.05 32.05 23.7 32.7 32.75 31.85 41.85 31.65 43.75 31.7 45.7 31.7 47.3 32.2 48.6 31.1 50.6 32.75 52.05 L35.05 52.15 Q37.9 50.5 35.4 48.0 34.65 36.55 35.35 25.1 L35.55 23.9 M23.2 34.9 Q24.55 33.8 23.95 32.0 23.45 30.5 21.75 30.6 19.55 30.6 19.3 32.95 19.2 34.05 20.1 34.85 L20.8 48.1 Q18.85 49.95 20.65 51.7 21.25 52.3 22.1 52.65 24.85 52.4 24.5 49.6 24.4 48.75 23.55 48.15 L23.2 34.9 M9.05 43.7 Q7.8 45.3 8.8 46.95 L9.05 47.25 Q8.85 50.0 10.4 52.15 10.75 52.65 11.4 52.4 L11.75 47.7 Q13.05 47.15 13.25 45.45 13.1 43.95 12.0 43.35 12.3 41.75 11.6 40.3 L11.4 40.05 10.2 39.95 Q8.8 41.5 9.05 43.7 M14.2 38.7 L14.1 53.7 10.5 54.05 Q9.45 54.1 8.6 53.65 L7.45 38.8 14.2 38.7 M25.55 28.05 L24.75 53.25 19.3 53.15 17.9 28.15 25.55 28.05" fill="#e3c1d7" fill-rule="evenodd" stroke="none"/>
      <path d="M6.5 43.3 L6.6 44.65 Q1.65 37.85 1.4 28.65 1.7 17.1 9.4 9.45 17.05 1.75 28.6 1.45 35.75 1.65 41.4 4.8 L41.2 4.9 Q41.05 4.75 40.95 5.25 35.45 2.3 28.5 2.1 17.25 2.4 9.8 9.9 2.3 17.35 2.0 28.6 2.2 37.0 6.5 43.3 M40.85 11.15 L41.0 14.95 Q38.6 13.0 35.2 12.55 30.25 11.95 25.95 12.6 16.7 14.25 11.6 22.15 8.2 28.0 10.7 34.3 L12.05 37.4 9.6 37.55 Q7.6 32.95 7.75 27.7 7.85 22.9 10.4 19.05 15.75 11.05 25.25 9.1 33.55 7.45 40.85 11.15 M41.95 38.3 L41.95 42.75 39.4 43.95 Q39.25 42.35 39.25 40.75 L41.95 38.3 M29.3 44.85 L29.25 47.1 27.4 47.55 27.4 45.1 29.3 44.85 M17.4 42.55 L17.4 46.3 16.15 45.55 15.9 41.9 17.4 42.55 M52.05 16.5 L52.1 15.6 Q55.4 21.65 55.55 29.2 55.35 38.0 50.85 44.4 L50.85 42.75 Q54.75 36.6 54.95 28.6 54.75 21.85 52.05 16.5 M41.95 51.4 L42.0 52.4 38.35 54.05 38.55 53.05 41.95 51.4 M30.85 54.9 L33.95 55.25 Q28.6 56.35 23.3 55.25 L25.95 54.9 30.85 54.9 M17.3 52.6 L17.45 53.45 15.15 52.25 15.15 51.45 17.3 52.6" fill="#d2c0c0" fill-rule="evenodd" stroke="none"/>
      <path d="M44.15 4.15 L43.5 4.2 Q37.0 0.25 28.6 0.05 L29.2 0.0 Q37.65 0.2 44.15 4.15 M1.3 37.15 Q3.0 42.7 6.85 47.2 L6.9 47.7 Q2.95 43.0 1.3 37.15" fill="#8d3f6d" fill-rule="evenodd" stroke="none"/>
      <path d="M40.8 9.45 L40.85 11.15 Q33.55 7.45 25.25 9.1 15.75 11.05 10.4 19.05 7.85 22.9 7.75 27.7 7.6 32.95 9.6 37.55 L12.05 37.4 14.45 37.8 7.95 37.8 Q3.5 25.3 11.45 14.7 17.0 7.25 26.3 6.1 34.15 5.3 40.8 9.45 M41.95 42.75 L41.85 47.1 39.25 48.7 38.7 49.4 38.9 15.85 30.2 15.55 Q33.5 13.75 37.2 14.75 40.15 15.65 39.9 19.05 39.05 29.85 39.25 40.75 39.25 42.35 39.4 43.95 L41.95 42.75 M29.25 47.1 L29.25 51.35 26.7 51.5 26.7 27.55 26.4 27.25 Q22.25 25.8 17.8 27.05 19.55 26.25 21.6 26.15 L24.6 26.45 Q27.6 26.9 27.45 30.1 27.1 37.6 27.4 45.1 L27.4 47.55 29.25 47.1 M17.4 46.3 L17.35 48.85 15.05 47.8 15.3 38.55 15.9 41.9 16.15 45.55 17.4 46.3" fill="#bda3a3" fill-rule="evenodd" stroke="none"/>
      <path d="M7.95 37.8 L6.95 38.05 Q5.2 33.9 5.05 28.9 5.3 19.0 12.0 12.3 18.7 5.6 28.65 5.3 35.55 5.45 40.8 8.75 L40.8 9.45 Q34.15 5.3 26.3 6.1 17.0 7.25 11.45 14.7 3.5 25.3 7.95 37.8 M41.85 47.1 L41.85 47.95 38.7 49.8 38.7 49.4 39.25 48.7 41.85 47.1 M29.25 51.35 L29.25 52.05 26.7 51.95 26.7 51.5 29.25 51.35 M51.15 34.95 L51.65 24.65 51.85 28.65 Q51.9 31.85 51.15 34.95" fill="#aa8888" fill-rule="evenodd" stroke="none"/>
      <path d="M45.1 11.4 Q45.25 10.0 46.65 9.85 L47.45 10.1 45.35 12.2 45.1 11.4 M46.3 12.95 L48.05 10.7 Q48.75 12.6 46.65 13.0 L46.3 12.95 M44.9 46.45 L47.6 47.8 46.85 48.1 Q45.45 48.6 44.9 47.25 L44.9 46.45 M47.9 46.25 L47.95 47.0 45.3 45.7 Q45.55 45.45 45.9 45.3 47.35 44.95 47.9 46.25 M35.4 21.6 L32.45 21.65 32.75 21.0 35.0 20.95 35.4 21.6 M32.4 22.2 L35.35 22.15 35.05 22.8 32.8 22.85 32.4 22.2 M9.4 44.7 L11.55 46.85 10.75 47.05 Q9.35 46.9 9.2 45.45 L9.4 44.7 M12.35 45.45 L12.15 46.25 10.0 44.1 10.75 43.9 Q12.2 44.05 12.35 45.45 M22.45 34.35 L21.65 34.55 Q20.35 34.35 20.1 32.95 L20.3 32.2 22.45 34.35 M21.65 31.4 Q23.1 31.55 23.25 32.95 L23.05 33.75 20.9 31.6 21.65 31.4 M22.15 48.6 L22.85 48.8 20.75 50.9 20.55 50.15 Q20.65 49.4 21.1 49.0 21.45 48.65 22.15 48.6 M35.3 49.15 L32.6 50.35 32.65 49.55 33.1 49.1 35.3 49.15 M33.2 51.4 L35.7 49.95 34.55 51.7 33.2 51.4 M21.35 51.55 L23.6 49.7 Q23.9 51.55 22.1 51.75 L21.35 51.55" fill="#a68884" fill-rule="evenodd" stroke="none"/>
      <path d="M48.95 12.35 Q47.65 21.15 47.35 30.15 47.2 35.85 48.05 41.5 L48.3 45.2 Q47.35 44.0 45.65 44.45 L44.6 45.2 44.55 12.65 Q45.1 13.75 46.65 13.9 48.4 13.7 48.95 12.35 M48.1 48.55 L47.7 49.65 Q46.8 49.75 46.3 49.2 L48.1 48.55 M35.55 23.9 L35.35 25.1 Q34.65 36.55 35.4 48.0 L35.0 47.8 Q33.2 47.3 32.2 48.6 31.7 47.3 31.7 45.7 31.65 43.75 31.85 41.85 32.7 32.75 32.05 23.7 L32.2 23.85 Q33.9 25.2 35.55 23.9 M20.1 34.85 L23.2 34.9 23.55 48.15 20.8 48.1 20.1 34.85 M9.05 43.7 Q8.8 41.5 10.2 39.95 L11.4 40.05 11.6 40.3 Q12.3 41.75 12.0 43.35 L11.45 43.15 Q10.1 42.75 9.05 43.7 M11.75 47.7 L11.4 52.4 Q10.75 52.65 10.4 52.15 8.85 50.0 9.05 47.25 10.7 48.45 11.75 47.7" fill="#c7abb9" fill-rule="evenodd" stroke="none"/>
      <path d="M40.95 5.25 L40.85 7.15 Q31.5 2.15 21.3 5.15 11.65 8.15 7.05 17.05 1.4 28.1 6.05 39.7 L6.35 41.05 6.5 43.3 Q2.2 37.0 2.0 28.6 2.3 17.35 9.8 9.9 17.25 2.4 28.5 2.1 35.45 2.3 40.95 5.25 M41.0 14.95 L41.95 38.3 39.25 40.75 Q39.05 29.85 39.9 19.05 40.15 15.65 37.2 14.75 33.5 13.75 30.2 15.55 L28.85 16.2 29.3 44.85 27.4 45.1 Q27.1 37.6 27.45 30.1 27.6 26.9 24.6 26.45 L21.6 26.15 Q19.55 26.25 17.8 27.05 L16.8 27.7 17.4 42.55 15.9 41.9 15.3 38.55 14.45 37.8 12.05 37.4 10.7 34.3 Q8.2 28.0 11.6 22.15 16.7 14.25 25.95 12.6 30.25 11.95 35.2 12.55 38.6 13.0 41.0 14.95 M50.85 42.75 Q50.6 40.15 51.5 38.1 53.35 33.65 53.2 28.65 53.15 26.45 52.6 24.4 51.5 20.6 52.05 16.5 54.75 21.85 54.95 28.6 54.75 36.6 50.85 42.75 M38.55 53.05 L38.7 51.3 41.85 49.6 41.95 51.4 38.55 53.05 M25.95 54.9 L26.6 53.3 29.45 53.4 29.55 53.85 Q29.8 54.75 30.85 54.9 L25.95 54.9 M15.15 51.45 L15.1 49.4 17.25 50.65 Q17.2 51.75 17.3 52.6 L15.15 51.45" fill="#e3d7d7" fill-rule="evenodd" stroke="none"/>
    </g>
    <g id="shape7" transform="matrix(1.0, 0.0, 0.0, 1.0, -0.25, -0.1)">
      <path d="M41.5 9.2 Q42.4 9.55 43.15 9.95 46.05 11.85 46.9 14.2 L47.35 15.85 47.65 17.9 47.25 18.65 44.0 19.2 38.3 19.95 37.2 18.3 37.9 23.9 45.75 25.9 Q47.7 26.7 49.5 27.85 L51.3 29.45 51.9 30.15 53.05 32.2 Q53.9 34.55 53.45 37.4 53.05 39.65 51.8 42.25 50.75 44.2 48.5 45.95 L41.3 49.9 41.5 51.65 41.65 52.55 41.55 54.25 40.85 54.55 36.85 54.55 33.35 54.55 32.45 54.35 32.1 53.1 32.0 51.75 29.9 51.65 29.95 52.0 30.05 53.35 30.25 54.95 30.05 55.55 29.7 55.8 21.15 55.75 20.85 54.7 20.85 53.9 20.8 52.15 20.8 50.7 Q14.65 48.7 10.65 43.65 L7.9 38.1 7.55 35.2 8.6 34.85 10.8 34.65 18.35 34.25 20.5 38.15 19.95 29.25 Q14.15 29.25 10.1 25.5 8.95 24.2 8.45 22.85 7.9 20.7 8.2 18.6 8.55 16.85 9.35 15.4 10.25 14.05 11.4 12.85 L14.5 10.85 17.6 9.4 17.5 8.85 17.35 8.15 17.1 6.75 17.15 4.7 17.75 4.4 24.8 4.3 25.3 5.6 25.4 6.25 25.5 7.1 27.25 6.95 27.1 6.05 27.05 5.4 26.95 4.05 31.85 2.35 33.7 2.05 35.15 2.35 35.4 3.05 35.6 5.0 35.8 6.45 35.85 7.15 35.9 7.6 38.4 8.15 Q40.1 8.6 41.5 9.2 M45.7 17.05 Q45.55 13.85 43.0 11.9 39.95 9.6 36.1 8.95 L36.85 15.25 Q38.5 16.2 39.2 17.9 L45.7 17.05 M50.5 31.85 Q50.15 30.75 49.3 29.9 44.5 25.35 38.05 25.6 L38.65 30.05 39.6 30.55 Q42.85 32.45 41.55 36.3 L39.75 38.5 41.0 47.75 45.35 45.65 Q47.2 44.6 48.4 43.0 52.3 37.95 50.5 31.85 M27.4 8.2 L25.7 8.35 26.75 14.8 28.3 14.65 27.4 8.2 M28.4 15.6 L26.8 15.75 27.6 23.3 29.5 23.7 28.4 15.6 M25.75 23.5 L23.6 5.85 19.25 5.95 20.8 20.4 21.2 26.55 Q22.1 40.45 22.3 54.4 L28.25 54.0 25.75 23.5 M33.65 3.4 L28.7 4.7 Q30.45 15.1 31.3 25.55 L32.1 34.2 33.65 52.85 39.75 52.65 33.65 3.4 M10.9 18.95 L10.85 19.95 Q10.85 20.9 11.15 21.85 13.15 27.7 19.8 27.9 L19.5 24.35 Q17.9 24.05 17.15 22.75 14.95 18.95 18.75 16.85 L17.85 10.85 Q14.85 12.2 12.8 14.55 11.15 16.4 10.9 18.95 M18.25 20.55 Q18.5 21.5 19.1 22.15 L18.9 18.45 Q17.95 19.3 18.25 20.55 M17.1 36.0 L9.45 36.65 9.8 37.65 Q13.15 45.05 20.75 48.3 L20.55 39.4 Q18.1 38.3 17.1 36.0 M38.85 31.85 L39.5 36.6 Q40.7 34.95 39.5 32.5 L38.85 31.85 M27.8 25.4 L28.1 28.4 30.2 28.6 29.75 25.5 27.8 25.4 M30.35 29.8 L28.2 29.6 29.05 39.75 31.25 39.65 30.35 29.8 M31.35 40.85 L29.15 40.95 29.75 49.8 31.9 49.75 31.35 40.85" fill="#005d51" fill-rule="evenodd" stroke="none"/>
      <path d="M46.9 14.2 Q46.05 11.85 43.15 9.95 42.4 9.55 41.5 9.2 38.85 7.4 35.8 6.45 L35.6 5.0 Q41.65 6.85 46.0 11.25 54.5 20.05 53.05 32.2 L51.9 30.15 51.95 28.7 Q51.75 20.2 46.9 14.2 M35.15 2.35 L33.7 2.05 Q21.3 -0.05 11.55 7.85 2.85 14.9 1.65 25.95 0.9 32.85 3.65 39.2 8.8 50.9 20.85 54.7 L21.15 55.75 29.7 55.8 Q33.45 55.6 36.85 54.55 L40.85 54.55 Q35.35 57.15 28.6 57.3 16.45 56.95 8.4 48.9 4.75 45.25 2.7 40.85 1.25 37.7 0.65 34.15 -0.1 29.5 0.5 24.9 1.2 19.5 3.95 14.75 6.75 10.0 10.95 6.65 14.95 3.5 19.8 1.7 24.05 0.1 28.6 0.1 40.7 0.4 48.8 8.5 56.9 16.55 57.2 28.7 56.85 40.8 48.8 48.9 45.5 52.2 41.55 54.25 L41.65 52.55 Q44.95 50.7 47.8 47.9 55.45 40.2 55.75 28.7 55.45 17.15 47.8 9.5 42.45 4.1 35.15 2.35 M26.95 4.05 L27.05 5.4 25.3 5.6 24.8 4.3 26.95 4.05 M17.1 6.75 L17.35 8.15 11.4 12.85 Q10.25 14.05 9.35 15.4 5.4 21.05 5.2 28.7 5.4 37.45 10.65 43.65 14.65 48.7 20.8 50.7 L20.8 52.15 Q15.35 50.4 11.1 46.15 4.1 39.15 3.85 28.7 4.1 18.2 11.1 11.2 13.8 8.45 17.1 6.75 M30.05 53.35 L29.95 52.0 32.0 51.75 32.1 53.1 30.05 53.35" fill="#006868" fill-rule="evenodd" stroke="none"/>
      <path d="M40.65 12.0 L42.45 12.1 43.6 13.4 Q44.15 15.45 42.2 16.35 41.3 16.6 40.6 16.35 L40.45 16.3 40.4 16.25 Q39.7 15.85 39.25 14.95 38.7 12.9 40.65 12.0 M41.6 15.7 L41.95 15.6 Q43.65 14.75 42.45 13.1 L41.6 15.7 M41.65 12.75 L40.95 12.8 Q39.7 13.35 40.05 14.7 L40.45 15.3 41.65 12.75 M46.05 37.3 Q48.15 37.85 48.0 39.95 47.45 42.05 45.3 41.9 44.3 41.65 43.85 41.05 L43.8 41.0 43.75 40.9 Q43.3 40.25 43.4 39.2 43.95 37.1 46.05 37.3 M44.8 40.8 L45.45 41.05 Q47.4 41.15 47.1 39.15 L44.8 40.8 M46.65 38.45 L45.95 38.1 Q44.6 38.0 44.2 39.35 L44.3 40.15 46.65 38.45 M13.5 18.1 L12.75 18.1 14.15 20.6 14.5 19.95 Q14.75 18.6 13.5 18.1 M10.85 19.95 L10.9 18.95 Q11.55 17.0 13.6 17.25 15.35 17.7 15.4 19.55 15.45 21.1 14.0 21.75 L12.3 21.65 Q11.15 21.15 10.85 19.95 M12.65 20.95 L13.35 21.0 12.0 18.55 11.65 19.1 Q11.4 20.45 12.65 20.95 M17.55 42.65 L17.85 42.0 15.0 42.3 15.45 42.9 Q16.6 43.65 17.55 42.65 M17.3 40.6 Q16.2 39.8 15.2 40.8 L14.9 41.45 17.75 41.15 17.3 40.6 M18.75 41.5 L18.5 42.45 Q17.95 44.1 16.25 44.15 L15.8 44.0 Q13.3 42.75 14.55 40.25 L15.4 39.85 Q17.95 38.9 18.75 41.5" fill="#0f6f61" fill-rule="evenodd" stroke="none"/>
      <path d="M40.65 12.0 Q38.7 12.9 39.25 14.95 39.7 15.85 40.4 16.25 L40.45 16.3 40.6 16.35 Q41.3 16.6 42.2 16.35 44.15 15.45 43.6 13.4 L42.45 12.1 40.65 12.0 M45.7 17.05 L39.2 17.9 Q38.5 16.2 36.85 15.25 L36.1 8.95 Q39.95 9.6 43.0 11.9 45.55 13.85 45.7 17.05 M50.5 31.85 Q52.3 37.95 48.4 43.0 47.2 44.6 45.35 45.65 L41.0 47.75 39.75 38.5 41.55 36.3 Q42.85 32.45 39.6 30.55 L38.65 30.05 38.05 25.6 Q44.5 25.35 49.3 29.9 50.15 30.75 50.5 31.85 M46.05 37.3 Q43.95 37.1 43.4 39.2 43.3 40.25 43.75 40.9 L43.8 41.0 43.85 41.05 Q44.3 41.65 45.3 41.9 47.45 42.05 48.0 39.95 48.15 37.85 46.05 37.3 M32.9 7.7 L31.15 6.85 Q30.6 9.15 30.85 11.4 L31.8 18.75 Q33.9 33.8 34.4 48.9 34.45 50.1 35.5 51.1 L37.15 50.9 Q37.65 50.05 37.55 48.95 L36.95 43.5 36.1 33.95 Q35.3 20.6 32.9 7.7 M27.4 8.2 L28.3 14.65 26.75 14.8 25.7 8.35 27.4 8.2 M24.25 24.5 Q24.2 18.9 23.7 13.7 23.2 8.5 22.1 8.2 20.85 8.6 21.15 13.7 21.45 18.8 22.2 24.2 L23.1 31.05 Q23.5 40.1 23.8 43.3 23.3 47.7 24.9 51.6 26.25 50.8 26.15 48.65 L25.8 45.15 Q24.55 38.45 24.3 31.65 L24.25 24.5 M33.65 3.4 L39.75 52.65 33.65 52.85 32.1 34.2 31.3 25.55 Q30.45 15.1 28.7 4.7 L33.65 3.4 M25.75 23.5 L28.25 54.0 22.3 54.4 Q22.1 40.45 21.2 26.55 L20.8 20.4 19.25 5.95 23.6 5.85 25.75 23.5 M10.85 19.95 Q11.15 21.15 12.3 21.65 L14.0 21.75 Q15.45 21.1 15.4 19.55 15.35 17.7 13.6 17.25 11.55 17.0 10.9 18.95 11.15 16.4 12.8 14.55 14.85 12.2 17.85 10.85 L18.75 16.85 Q14.95 18.95 17.15 22.75 17.9 24.05 19.5 24.35 L19.8 27.9 Q13.15 27.7 11.15 21.85 10.85 20.9 10.85 19.95 M18.75 41.5 Q17.95 38.9 15.4 39.85 L14.55 40.25 Q13.3 42.75 15.8 44.0 L16.25 44.15 Q17.95 44.1 18.5 42.45 L18.75 41.5 M17.1 36.0 Q18.1 38.3 20.55 39.4 L20.75 48.3 Q13.15 45.05 9.8 37.65 L9.45 36.65 17.1 36.0 M27.8 25.4 L29.75 25.5 30.2 28.6 28.1 28.4 27.8 25.4 M31.35 40.85 L31.9 49.75 29.75 49.8 29.15 40.95 31.35 40.85" fill="#85ab93" fill-rule="evenodd" stroke="none"/>
      <path d="M38.4 8.15 L35.9 7.6 35.85 7.15 38.4 8.15 M27.1 6.05 L27.25 6.95 25.5 7.1 25.4 6.25 27.1 6.05 M17.5 8.85 L17.6 9.4 14.5 10.85 Q15.9 9.7 17.5 8.85 M8.2 18.6 Q7.9 20.7 8.45 22.85 7.45 26.0 7.7 29.6 7.85 32.35 8.6 34.85 L7.55 35.2 7.9 38.1 Q6.0 33.85 5.85 28.7 6.0 23.1 8.2 18.6 M51.3 29.45 L49.5 27.85 Q49.25 23.0 47.25 18.65 L47.65 17.9 47.35 15.85 Q51.15 21.35 51.3 28.7 L51.3 29.45" fill="#85b599" fill-rule="evenodd" stroke="none"/>
      <path d="M41.5 9.2 Q40.1 8.6 38.4 8.15 L35.85 7.15 35.8 6.45 Q38.85 7.4 41.5 9.2 M35.4 3.05 L35.15 2.35 Q42.45 4.1 47.8 9.5 55.45 17.15 55.75 28.7 55.45 40.2 47.8 47.9 44.95 50.7 41.65 52.55 L41.5 51.65 Q44.6 49.9 47.2 47.3 L48.5 45.95 Q50.75 44.2 51.8 42.25 53.05 39.65 53.45 37.4 54.8 33.35 54.95 28.6 54.65 17.35 47.2 9.9 42.15 4.85 35.4 3.05 M33.7 2.05 L31.85 2.35 28.5 2.1 Q22.6 2.25 17.75 4.4 L17.15 4.7 Q6.8 9.85 3.35 20.8 0.5 29.95 4.3 38.8 9.25 50.2 20.85 53.9 L20.85 54.7 Q8.8 50.9 3.65 39.2 0.9 32.85 1.65 25.95 2.85 14.9 11.55 7.85 21.3 -0.05 33.7 2.05 M27.05 5.4 L27.1 6.05 25.4 6.25 25.3 5.6 27.05 5.4 M17.35 8.15 L17.5 8.85 Q15.9 9.7 14.5 10.85 L11.4 12.85 17.35 8.15 M9.35 15.4 Q8.55 16.85 8.2 18.6 6.0 23.1 5.85 28.7 6.0 33.85 7.9 38.1 L10.65 43.65 Q5.4 37.45 5.2 28.7 5.4 21.05 9.35 15.4 M29.7 55.8 L30.05 55.55 30.25 54.95 33.35 54.55 36.85 54.55 Q33.45 55.6 29.7 55.8 M29.95 52.0 L29.9 51.65 32.0 51.75 29.95 52.0 M51.9 30.15 L51.3 29.45 51.3 28.7 Q51.15 21.35 47.35 15.85 L46.9 14.2 Q51.75 20.2 51.95 28.7 L51.9 30.15" fill="#085854" fill-rule="evenodd" stroke="none"/>
      <path d="M41.65 12.75 L40.45 15.3 40.05 14.7 Q39.7 13.35 40.95 12.8 L41.65 12.75 M41.6 15.7 L42.45 13.1 Q43.65 14.75 41.95 15.6 L41.6 15.7 M46.65 38.45 L44.3 40.15 44.2 39.35 Q44.6 38.0 45.95 38.1 L46.65 38.45 M44.8 40.8 L47.1 39.15 Q47.4 41.15 45.45 41.05 L44.8 40.8 M13.5 18.1 Q14.75 18.6 14.5 19.95 L14.15 20.6 12.75 18.1 13.5 18.1 M12.65 20.95 Q11.4 20.45 11.65 19.1 L12.0 18.55 13.35 21.0 12.65 20.95 M17.3 40.6 L17.75 41.15 14.9 41.45 15.2 40.8 Q16.2 39.8 17.3 40.6 M17.55 42.65 Q16.6 43.65 15.45 42.9 L15.0 42.3 17.85 42.0 17.55 42.65" fill="#a0beac" fill-rule="evenodd" stroke="none"/>
      <path d="M35.6 5.0 L35.4 3.05 Q42.15 4.85 47.2 9.9 54.65 17.35 54.95 28.6 54.8 33.35 53.45 37.4 53.9 34.55 53.05 32.2 54.5 20.05 46.0 11.25 41.65 6.85 35.6 5.0 M31.85 2.35 L26.95 4.05 24.8 4.3 17.75 4.4 Q22.6 2.25 28.5 2.1 L31.85 2.35 M17.15 4.7 L17.1 6.75 Q13.8 8.45 11.1 11.2 4.1 18.2 3.85 28.7 4.1 39.15 11.1 46.15 15.35 50.4 20.8 52.15 L20.85 53.9 Q9.25 50.2 4.3 38.8 0.5 29.95 3.35 20.8 6.8 9.85 17.15 4.7 M8.45 22.85 Q8.95 24.2 10.1 25.5 8.85 29.75 10.65 34.3 L10.8 34.65 8.6 34.85 Q7.85 32.35 7.7 29.6 7.45 26.0 8.45 22.85 M30.25 54.95 L30.05 53.35 32.1 53.1 32.45 54.35 33.35 54.55 30.25 54.95 M41.5 51.65 L41.3 49.9 48.5 45.95 47.2 47.3 Q44.6 49.9 41.5 51.65 M49.5 27.85 Q47.7 26.7 45.75 25.9 45.45 22.35 44.0 19.2 L47.25 18.65 Q49.25 23.0 49.5 27.85" fill="#98bea8" fill-rule="evenodd" stroke="none"/>
      <path d="M10.1 25.5 Q14.15 29.25 19.95 29.25 L20.5 38.15 18.35 34.25 10.8 34.65 10.65 34.3 Q8.85 29.75 10.1 25.5 M45.75 25.9 L37.9 23.9 37.2 18.3 38.3 19.95 44.0 19.2 Q45.45 22.35 45.75 25.9 M28.4 15.6 L29.5 23.7 27.6 23.3 26.8 15.75 28.4 15.6 M18.25 20.55 Q17.95 19.3 18.9 18.45 L19.1 22.15 Q18.5 21.5 18.25 20.55 M38.85 31.85 L39.5 32.5 Q40.7 34.95 39.5 36.6 L38.85 31.85 M30.35 29.8 L31.25 39.65 29.05 39.75 28.2 29.6 30.35 29.8" fill="#c1d9cb" fill-rule="evenodd" stroke="none"/>
      <path d="M32.9 7.7 Q35.3 20.6 36.1 33.95 L36.95 43.5 37.55 48.95 Q37.65 50.05 37.15 50.9 L35.5 51.1 Q34.45 50.1 34.4 48.9 33.9 33.8 31.8 18.75 L30.85 11.4 Q30.6 9.15 31.15 6.85 L32.9 7.7 M24.25 24.5 L24.3 31.65 Q24.55 38.45 25.8 45.15 L26.15 48.65 Q26.25 50.8 24.9 51.6 23.3 47.7 23.8 43.3 23.5 40.1 23.1 31.05 L22.2 24.2 Q21.45 18.8 21.15 13.7 20.85 8.6 22.1 8.2 23.2 8.5 23.7 13.7 24.2 18.9 24.25 24.5" fill="#689878" fill-rule="evenodd" stroke="none"/>
    </g>
    <g id="text0" transform="matrix(1.0, 0.0, 0.0, 1.0, -1.2, -5.75)">
      <g transform="matrix(1.0, 0.0, 0.0, 1.0, 0.0, 0.0)">
        <use fill="#ffffff" height="15.25" transform="matrix(0.4746, 0.0, 0.0, 0.4746, 0.0, 21.0)" width="112.65" xlink:href="#font_______W7_D0"/>
        <use fill="#ffffff" height="15.25" transform="matrix(0.4746, 0.0, 0.0, 0.4746, 16.6, 21.0)" width="112.65" xlink:href="#font_______W7_o0"/>
        <use fill="#ffffff" height="15.25" transform="matrix(0.4746, 0.0, 0.0, 0.4746, 29.5, 21.0)" width="112.65" xlink:href="#font_______W7_w0"/>
        <use fill="#ffffff" height="15.25" transform="matrix(0.4746, 0.0, 0.0, 0.4746, 44.35, 21.0)" width="112.65" xlink:href="#font_______W7_n0"/>
        <use fill="#ffffff" height="15.25" transform="matrix(0.4746, 0.0, 0.0, 0.4746, 58.0, 21.0)" width="112.65" xlink:href="#font_______W7_s0"/>
        <use fill="#ffffff" height="15.25" transform="matrix(0.4746, 0.0, 0.0, 0.4746, 70.45, 21.0)" width="112.65" xlink:href="#font_______W7_i0"/>
        <use fill="#ffffff" height="15.25" transform="matrix(0.4746, 0.0, 0.0, 0.4746, 79.25, 21.0)" width="112.65" xlink:href="#font_______W7_z0"/>
        <use fill="#ffffff" height="15.25" transform="matrix(0.4746, 0.0, 0.0, 0.4746, 91.7, 21.0)" width="112.65" xlink:href="#font_______W7_e0"/>
        <use fill="#ffffff" height="15.25" transform="matrix(0.4746, 0.0, 0.0, 0.4746, 105.15, 21.0)" width="112.65" xlink:href="#font_______W7_r0"/>
      </g>
    </g>
    <g id="font_______W7_D0">
      <path d="M26.25 -17.9 L26.25 -17.9 Q26.25 -14.65 24.8 -12.6 23.1 -10.25 20.0 -10.25 16.6 -10.25 14.1 -12.65 L12.3 -9.6 10.95 -24.15 Q14.8 -25.95 17.05 -25.95 20.5 -25.95 23.3 -23.65 26.25 -21.25 26.25 -17.9 M33.4 -15.95 L33.4 -15.95 Q33.4 -22.6 29.35 -27.0 25.15 -31.55 18.55 -31.55 14.75 -31.55 10.4 -29.7 L10.25 -31.5 5.3 -32.15 2.55 0.05 13.15 -1.1 13.1 -1.6 Q15.65 -0.6 18.75 -0.6 25.45 -0.6 29.5 -4.95 33.4 -9.15 33.4 -15.95" fill-rule="evenodd" stroke="none"/>
    </g>
    <g id="font_______W7_o0">
      <path d="M15.8 -13.5 L15.8 -13.5 Q16.45 -11.85 16.45 -10.4 16.45 -6.85 12.35 -6.85 10.6 -6.85 9.35 -8.05 8.15 -9.35 8.15 -11.05 8.15 -13.25 9.8 -14.6 11.4 -16.0 13.7 -16.0 16.1 -16.0 18.3 -14.3 L15.8 -13.5 M25.7 -11.4 L25.7 -11.4 Q25.7 -13.8 24.75 -16.35 L21.25 -15.25 22.7 -17.2 Q18.35 -21.45 13.15 -21.45 8.45 -21.45 5.1 -18.2 1.8 -14.95 1.8 -10.3 1.8 -5.5 5.4 -2.65 8.65 0.05 13.65 0.05 18.75 0.05 22.2 -3.2 25.7 -6.4 25.7 -11.4" fill-rule="evenodd" stroke="none"/>
    </g>
    <g id="font_______W7_w0">
      <path d="M23.1 -21.4 L23.1 -21.4 20.35 -10.05 16.6 -20.6 13.9 -21.45 9.35 -10.05 4.1 -21.35 0.5 -19.7 8.35 0.05 11.1 -0.5 14.9 -12.4 19.2 0.05 22.05 -0.55 31.2 -17.75 23.1 -21.4" fill-rule="evenodd" stroke="none"/>
    </g>
    <g id="font_______W7_n0">
      <path d="M27.0 -9.05 L27.0 -9.05 Q27.0 -14.5 24.65 -17.8 21.9 -21.45 16.6 -21.45 12.6 -21.45 9.45 -18.85 L9.2 -20.75 4.35 -21.45 2.05 0.05 11.95 -1.4 10.35 -12.55 Q12.95 -15.85 15.9 -15.85 19.4 -15.85 19.4 -10.6 19.4 -6.9 16.6 -1.3 L26.2 0.0 Q27.0 -6.5 27.0 -9.05" fill-rule="evenodd" stroke="none"/>
    </g>
    <g id="font_______W7_s0">
      <path d="M25.05 -6.35 L25.05 -6.35 Q25.05 -12.25 15.35 -13.65 8.7 -14.6 8.7 -15.7 8.7 -17.05 12.35 -17.05 17.1 -17.05 22.25 -14.8 L23.8 -18.2 Q19.05 -21.45 12.25 -21.45 8.55 -21.45 6.05 -20.35 2.6 -18.85 2.6 -15.7 2.6 -13.1 4.75 -11.8 6.5 -10.75 10.95 -10.05 L16.3 -8.95 Q17.8 -8.4 17.8 -7.5 17.8 -6.2 15.25 -6.2 12.3 -6.2 9.1 -7.45 5.9 -8.7 3.8 -10.65 L1.0 -2.6 Q6.45 0.05 14.3 0.05 25.05 0.05 25.05 -6.35" fill-rule="evenodd" stroke="none"/>
    </g>
    <g id="font_______W7_i0">
      <path d="M11.6 -20.75 L11.6 -20.75 6.75 -21.45 4.45 0.05 14.3 -1.4 11.6 -20.75 M11.9 -31.5 L11.9 -31.5 6.5 -32.15 4.9 -24.95 13.2 -26.1 11.9 -31.5" fill-rule="evenodd" stroke="none"/>
    </g>
    <g id="font_______W7_z0">
      <path d="M24.1 -8.45 L24.1 -8.45 10.25 -5.15 23.6 -18.1 22.05 -21.25 1.6 -20.05 2.3 -16.15 15.5 -15.5 1.0 -3.4 1.95 -0.5 25.55 -0.45 24.1 -8.45" fill-rule="evenodd" stroke="none"/>
    </g>
    <g id="font_______W7_e0">
      <path d="M19.45 -9.9 L19.45 -9.9 Q16.75 -7.55 13.6 -7.55 10.45 -7.55 9.15 -9.9 L19.45 -9.9 M9.0 -13.4 L9.0 -13.4 Q9.7 -14.95 11.5 -15.95 13.2 -16.8 15.1 -16.8 18.05 -16.8 19.65 -14.35 L9.0 -13.4 M23.25 -9.9 L23.25 -9.9 24.3 -9.9 26.7 -12.6 Q25.85 -16.7 22.9 -19.1 19.9 -21.45 15.15 -21.45 9.65 -21.45 5.9 -18.65 1.8 -15.6 1.8 -10.4 1.8 -5.35 5.8 -2.5 9.3 0.05 14.6 0.05 22.45 0.05 27.15 -4.25 L23.25 -9.9" fill-rule="evenodd" stroke="none"/>
    </g>
    <g id="font_______W7_r0">
      <path d="M18.3 -20.6 L18.3 -20.6 Q16.55 -21.45 14.75 -21.45 11.5 -21.45 8.7 -18.65 L8.45 -20.75 4.45 -21.45 2.55 0.05 10.65 -1.4 9.3 -12.8 Q10.55 -14.85 12.3 -14.85 13.25 -14.85 14.55 -13.85 L16.55 -12.05 18.3 -20.6" fill-rule="evenodd" stroke="none"/>
    </g>
    <g id="text1" transform="matrix(1.0, 0.0, 0.0, 1.0, -1.2, -5.75)">
      <g transform="matrix(1.0, 0.0, 0.0, 1.0, 0.0, 0.0)">
        <use fill="#ffffff" height="15.35" transform="matrix(0.4746, 0.0, 0.0, 0.4746, 0.0, 21.0)" width="143.95" xlink:href="#font_______W7_B0"/>
        <use fill="#ffffff" height="15.35" transform="matrix(0.4746, 0.0, 0.0, 0.4746, 16.85, 21.0)" width="143.95" xlink:href="#font_______W7_a0"/>
        <use fill="#ffffff" height="15.35" transform="matrix(0.4746, 0.0, 0.0, 0.4746, 30.65, 21.0)" width="143.95" xlink:href="#font_______W7_c0"/>
        <use fill="#ffffff" height="15.35" transform="matrix(0.4746, 0.0, 0.0, 0.4746, 43.5, 21.0)" width="143.95" xlink:href="#font_______W7_k0"/>
        <use fill="#ffffff" height="15.35" transform="matrix(0.4746, 0.0, 0.0, 0.4746, 57.3, 21.0)" width="143.95" xlink:href="#font_______W7_s0"/>
        <use fill="#ffffff" height="15.35" transform="matrix(0.4746, 0.0, 0.0, 0.4746, 69.75, 21.0)" width="143.95" xlink:href="#font_______W7_t0"/>
        <use fill="#ffffff" height="15.35" transform="matrix(0.4746, 0.0, 0.0, 0.4746, 81.1, 21.0)" width="143.95" xlink:href="#font_______W7_a0"/>
        <use fill="#ffffff" height="15.35" transform="matrix(0.4746, 0.0, 0.0, 0.4746, 94.9, 21.0)" width="143.95" xlink:href="#font_______W7_b0"/>
        <use fill="#ffffff" height="15.35" transform="matrix(0.4746, 0.0, 0.0, 0.4746, 109.0, 21.0)" width="143.95" xlink:href="#font_______W7_b0"/>
        <use fill="#ffffff" height="15.35" transform="matrix(0.4746, 0.0, 0.0, 0.4746, 123.05, 21.0)" width="143.95" xlink:href="#font_______W7_e0"/>
        <use fill="#ffffff" height="15.35" transform="matrix(0.4746, 0.0, 0.0, 0.4746, 136.45, 21.0)" width="143.95" xlink:href="#font_______W7_r0"/>
      </g>
    </g>
    <g id="font_______W7_B0">
      <path d="M25.75 -11.3 L25.75 -11.3 Q25.75 -8.4 21.9 -8.4 18.5 -8.4 14.4 -12.15 L12.5 -7.75 11.95 -13.45 Q15.45 -15.85 18.95 -15.85 21.25 -15.85 23.3 -14.7 25.75 -13.4 25.75 -11.3 M23.15 -23.7 L23.15 -23.7 Q23.15 -22.05 21.2 -20.35 L19.0 -20.45 Q15.05 -20.45 11.45 -18.65 L10.85 -24.45 Q15.3 -26.5 18.75 -26.5 L21.55 -25.95 Q23.15 -25.2 23.15 -23.7 M33.9 -10.25 L33.9 -10.25 Q33.9 -14.55 29.85 -17.3 32.05 -20.45 32.05 -23.5 32.05 -27.75 28.35 -29.85 25.45 -31.6 20.9 -31.6 14.3 -31.6 10.4 -29.6 L10.2 -31.55 5.3 -32.15 2.55 0.05 13.15 -1.1 13.05 -2.3 Q17.4 -0.6 21.5 -0.6 26.1 -0.6 29.75 -3.05 33.9 -5.85 33.9 -10.25" fill-rule="evenodd" stroke="none"/>
    </g>
    <g id="font_______W7_a0">
      <path d="M19.05 -8.85 L19.05 -8.85 18.5 -5.05 17.1 -9.0 Q14.35 -6.2 10.6 -6.2 9.95 -6.2 9.45 -6.75 9.0 -7.2 9.0 -7.85 9.0 -10.2 13.7 -10.2 15.9 -10.2 19.05 -8.85 M27.4 -6.8 L27.4 -6.8 Q27.4 -21.45 13.35 -21.45 7.15 -21.45 2.55 -18.35 L4.3 -14.35 Q8.3 -16.55 13.15 -16.55 17.85 -16.55 18.85 -13.35 15.4 -14.5 12.8 -14.5 8.6 -14.5 5.6 -12.8 1.8 -10.75 1.8 -6.95 1.8 -3.5 4.9 -1.55 7.55 0.05 11.15 0.05 13.95 0.05 17.35 -0.95 L17.0 0.15 26.7 -0.3 Q27.4 -3.45 27.4 -6.8" fill-rule="evenodd" stroke="none"/>
    </g>
    <g id="font_______W7_c0">
      <path d="M21.35 -12.5 L21.35 -12.5 Q19.95 -10.5 17.75 -9.15 15.35 -7.6 13.15 -7.6 11.4 -7.6 10.2 -8.85 8.9 -10.05 8.9 -11.8 8.9 -14.1 10.65 -15.4 12.2 -16.55 14.55 -16.55 18.9 -16.55 21.9 -13.7 L24.4 -17.55 Q19.65 -21.45 13.1 -21.45 8.05 -21.45 4.9 -18.4 1.8 -15.3 1.8 -10.3 1.8 -5.6 5.7 -2.65 9.25 0.05 14.1 0.05 17.2 0.05 20.45 -1.1 24.05 -2.3 25.9 -4.4 L21.35 -12.5" fill-rule="evenodd" stroke="none"/>
    </g>
    <g id="font_______W7_k0">
      <path d="M20.35 -12.2 L20.35 -12.2 26.9 -17.9 24.8 -21.8 10.85 -14.65 9.3 -31.45 4.6 -32.15 2.05 0.05 12.1 -1.4 11.35 -9.1 13.25 -6.05 15.8 -8.25 22.05 0.25 28.6 -6.95 20.35 -12.2" fill-rule="evenodd" stroke="none"/>
    </g>
    <g id="font_______W7_t0">
      <path d="M18.7 -12.2 L18.7 -12.2 Q17.0 -9.35 14.9 -9.35 11.95 -9.35 11.95 -15.4 L21.65 -15.4 20.1 -22.55 12.4 -21.45 Q12.75 -24.2 13.6 -27.95 L8.95 -28.85 Q7.75 -24.65 7.1 -20.75 L0.75 -19.9 1.75 -15.4 6.55 -15.4 6.5 -12.55 Q6.5 -6.8 7.75 -4.05 9.5 0.05 14.55 0.05 19.1 0.05 23.25 -4.15 L18.7 -12.2" fill-rule="evenodd" stroke="none"/>
    </g>
    <g id="font_______W7_b0">
      <path d="M20.9 -12.9 L20.9 -12.9 Q20.9 -9.4 17.6 -9.4 15.3 -9.4 13.25 -11.85 L11.45 -8.4 10.95 -14.2 Q13.25 -16.5 16.3 -16.5 17.85 -16.5 19.35 -15.5 20.9 -14.45 20.9 -12.9 M28.25 -10.45 L28.25 -10.45 Q28.25 -15.0 25.1 -18.25 21.9 -21.45 17.35 -21.45 13.75 -21.45 10.5 -19.25 L9.35 -31.5 4.65 -32.15 2.05 0.05 12.15 -0.75 12.15 -2.05 Q14.7 0.05 18.2 0.05 22.6 0.05 25.4 -3.0 28.25 -6.0 28.25 -10.45" fill-rule="evenodd" stroke="none"/>
    </g>
    <g id="text2" transform="matrix(1.0, 0.0, 0.0, 1.0, 44.85, -5.75)">
      <g transform="matrix(1.0, 0.0, 0.0, 1.0, -46.15, 0.0)">
        <use fill="#ffffff" height="15.35" transform="matrix(0.4746, 0.0, 0.0, 0.4746, 0.0, 21.0)" width="192.5" xlink:href="#font_______W7_N0"/>
        <use fill="#ffffff" height="15.35" transform="matrix(0.4746, 0.0, 0.0, 0.4746, 16.9, 21.0)" width="192.5" xlink:href="#font_______W7_u0"/>
        <use fill="#ffffff" height="15.35" transform="matrix(0.4746, 0.0, 0.0, 0.4746, 30.45, 21.0)" width="192.5" xlink:href="#font_______W7_m0"/>
        <use fill="#ffffff" height="15.35" transform="matrix(0.4746, 0.0, 0.0, 0.4746, 48.0, 21.0)" width="192.5" xlink:href="#font_______W7_b0"/>
        <use fill="#ffffff" height="15.35" transform="matrix(0.4746, 0.0, 0.0, 0.4746, 62.05, 21.0)" width="192.5" xlink:href="#font_______W7_e0"/>
        <use fill="#ffffff" height="15.35" transform="matrix(0.4746, 0.0, 0.0, 0.4746, 75.45, 21.0)" width="192.5" xlink:href="#font_______W7_r0"/>
        <use fill="#ffffff" height="15.35" transform="matrix(0.4746, 0.0, 0.0, 0.4746, 92.3, 21.0)" width="192.5" xlink:href="#font_______W7_C0"/>
        <use fill="#ffffff" height="15.35" transform="matrix(0.4746, 0.0, 0.0, 0.4746, 108.45, 21.0)" width="192.5" xlink:href="#font_______W7_r0"/>
        <use fill="#ffffff" height="15.35" transform="matrix(0.4746, 0.0, 0.0, 0.4746, 117.4, 21.0)" width="192.5" xlink:href="#font_______W7_u0"/>
        <use fill="#ffffff" height="15.35" transform="matrix(0.4746, 0.0, 0.0, 0.4746, 130.9, 21.0)" width="192.5" xlink:href="#font_______W7_n0"/>
        <use fill="#ffffff" height="15.35" transform="matrix(0.4746, 0.0, 0.0, 0.4746, 144.55, 21.0)" width="192.5" xlink:href="#font_______W7_c0"/>
        <use fill="#ffffff" height="15.35" transform="matrix(0.4746, 0.0, 0.0, 0.4746, 157.45, 21.0)" width="192.5" xlink:href="#font_______W7_h0"/>
        <use fill="#ffffff" height="15.35" transform="matrix(0.4746, 0.0, 0.0, 0.4746, 171.6, 21.0)" width="192.5" xlink:href="#font_______W7_e0"/>
        <use fill="#ffffff" height="15.35" transform="matrix(0.4746, 0.0, 0.0, 0.4746, 185.0, 21.0)" width="192.5" xlink:href="#font_______W7_r0"/>
      </g>
    </g>
    <g id="font_______W7_N0">
      <path d="M23.5 -32.15 L23.5 -32.15 24.85 -14.2 9.85 -31.5 5.1 -32.15 2.55 0.05 12.6 -1.4 10.6 -23.35 25.9 0.05 30.75 -0.65 33.55 -30.75 23.5 -32.15" fill-rule="evenodd" stroke="none"/>
    </g>
    <g id="font_______W7_u0">
      <path d="M24.1 -20.75 L24.1 -20.75 19.25 -21.45 17.9 -8.95 16.15 -11.65 Q13.35 -8.1 10.6 -8.1 9.0 -8.1 8.15 -9.4 7.25 -10.65 7.25 -12.3 7.25 -15.75 8.6 -19.75 L3.9 -21.15 Q2.05 -16.35 2.05 -11.4 2.05 -6.45 4.25 -3.4 6.75 0.05 11.5 0.05 14.55 0.05 17.1 -1.5 L16.95 0.1 26.8 -1.35 24.1 -20.75" fill-rule="evenodd" stroke="none"/>
    </g>
    <g id="font_______W7_m0">
      <path d="M35.35 -9.0 L35.35 -9.0 Q35.35 -21.45 27.8 -21.45 24.2 -21.45 21.15 -18.8 19.2 -21.45 15.65 -21.45 12.4 -21.45 9.45 -19.2 L9.25 -20.75 4.35 -21.45 2.05 0.05 11.95 -1.4 10.25 -13.85 Q12.25 -15.8 13.75 -15.8 16.4 -15.8 16.4 -11.2 16.4 -8.95 15.2 -5.8 L12.95 -0.75 22.1 0.1 Q23.3 -4.75 23.3 -9.55 23.3 -12.35 22.95 -14.3 24.5 -15.7 25.75 -15.7 28.25 -15.7 28.25 -11.2 28.25 -7.95 25.1 -0.65 L34.25 0.2 Q35.35 -4.25 35.35 -9.0" fill-rule="evenodd" stroke="none"/>
    </g>
    <g id="font_______W7_C0">
      <path d="M26.2 -15.4 L26.2 -15.4 Q21.6 -8.3 16.1 -8.3 12.35 -8.3 10.4 -10.7 8.6 -12.9 8.6 -16.75 8.6 -21.2 11.05 -23.95 13.55 -26.6 17.95 -26.6 23.65 -26.6 27.3 -22.25 L31.1 -26.05 Q28.65 -28.9 25.1 -30.55 21.55 -32.15 17.8 -32.15 10.8 -32.15 6.45 -27.4 2.05 -22.7 2.05 -15.6 2.05 -8.95 6.35 -4.45 10.7 0.05 17.3 0.05 25.6 0.05 32.65 -7.35 L26.2 -15.4" fill-rule="evenodd" stroke="none"/>
    </g>
    <g id="font_______W7_h0">
      <path d="M28.1 -7.6 L28.1 -7.6 Q28.1 -13.7 25.7 -17.25 22.9 -21.45 17.05 -21.45 13.35 -21.45 10.45 -19.3 L9.3 -31.55 4.65 -32.15 2.05 0.05 12.1 -1.4 11.0 -12.9 Q13.45 -15.95 16.35 -15.95 20.1 -15.95 20.1 -10.2 20.1 -6.55 17.6 -1.55 L27.6 0.05 28.1 -7.6" fill-rule="evenodd" stroke="none"/>
    </g>
    <g id="text3" transform="matrix(1.0, 0.0, 0.0, 1.0, 42.6, -5.75)">
      <g transform="matrix(1.0, 0.0, 0.0, 1.0, -43.9, 0.0)">
        <use fill="#ffffff" height="15.35" transform="matrix(0.4746, 0.0, 0.0, 0.4746, 0.0, 21.0)" width="179.4" xlink:href="#font_______W7_M0"/>
        <use fill="#ffffff" height="15.35" transform="matrix(0.4746, 0.0, 0.0, 0.4746, 19.15, 21.0)" width="179.4" xlink:href="#font_______W7_o0"/>
        <use fill="#ffffff" height="15.35" transform="matrix(0.4746, 0.0, 0.0, 0.4746, 32.05, 21.0)" width="179.4" xlink:href="#font_______W7_v0"/>
        <use fill="#ffffff" height="15.35" transform="matrix(0.4746, 0.0, 0.0, 0.4746, 44.9, 21.0)" width="179.4" xlink:href="#font_______W7_e0"/>
        <use fill="#ffffff" height="15.35" transform="matrix(0.4746, 0.0, 0.0, 0.4746, 58.3, 21.0)" width="179.4" xlink:href="#font_______W7_r0"/>
        <use fill="#ffffff" height="15.35" transform="matrix(0.4746, 0.0, 0.0, 0.4746, 75.15, 21.0)" width="179.4" xlink:href="#font_______W7__1"/>
        <use fill="#ffffff" height="15.35" transform="matrix(0.4746, 0.0, 0.0, 0.4746, 101.0, 21.0)" width="179.4" xlink:href="#font_______W7_S0"/>
        <use fill="#ffffff" height="15.35" transform="matrix(0.4746, 0.0, 0.0, 0.4746, 116.75, 21.0)" width="179.4" xlink:href="#font_______W7_h0"/>
        <use fill="#ffffff" height="15.35" transform="matrix(0.4746, 0.0, 0.0, 0.4746, 130.9, 21.0)" width="179.4" xlink:href="#font_______W7_a0"/>
        <use fill="#ffffff" height="15.35" transform="matrix(0.4746, 0.0, 0.0, 0.4746, 144.7, 21.0)" width="179.4" xlink:href="#font_______W7_k0"/>
        <use fill="#ffffff" height="15.35" transform="matrix(0.4746, 0.0, 0.0, 0.4746, 158.5, 21.0)" width="179.4" xlink:href="#font_______W7_e0"/>
        <use fill="#ffffff" height="15.35" transform="matrix(0.4746, 0.0, 0.0, 0.4746, 171.9, 21.0)" width="179.4" xlink:href="#font_______W7_r0"/>
      </g>
    </g>
    <g id="font_______W7_M0">
      <path d="M35.55 -31.55 L35.55 -31.55 30.8 -32.15 20.2 -14.25 9.85 -31.5 5.1 -32.15 2.55 0.05 12.6 -1.4 10.85 -20.45 18.7 -2.25 22.0 -3.05 29.9 -20.9 28.25 0.05 38.3 -1.4 35.55 -31.55" fill-rule="evenodd" stroke="none"/>
    </g>
    <g id="font_______W7_v0">
      <path d="M19.45 -21.45 L19.45 -21.45 12.9 -8.05 3.85 -21.15 0.5 -18.8 11.65 0.05 14.95 -0.8 26.9 -16.95 19.45 -21.45" fill-rule="evenodd" stroke="none"/>
    </g>
    <g id="font_______W7__1">
      <path d="M18.05 -8.5 L18.05 -8.5 Q16.05 -7.1 13.15 -7.1 9.1 -7.1 9.1 -10.1 9.1 -12.3 12.45 -14.3 14.8 -11.35 18.05 -8.5 M18.5 -24.85 L18.5 -24.85 Q18.5 -23.0 14.7 -21.4 13.25 -24.0 13.25 -25.35 13.25 -26.25 13.95 -26.85 14.65 -27.45 15.5 -27.45 16.6 -27.45 17.5 -26.7 18.5 -25.95 18.5 -24.85 M36.5 -5.2 L36.5 -5.2 Q32.95 -5.45 29.2 -7.25 31.45 -10.05 33.0 -13.5 L23.45 -19.05 Q22.45 -14.85 21.35 -12.6 19.3 -14.5 17.55 -16.8 20.85 -18.35 22.3 -19.65 24.45 -21.45 24.45 -23.8 24.45 -32.15 15.15 -32.15 12.05 -32.15 9.95 -30.25 7.8 -28.3 7.8 -25.15 7.8 -22.2 9.45 -18.85 2.55 -15.1 2.55 -9.75 2.55 -5.15 6.6 -2.35 10.2 0.05 15.0 0.05 20.65 0.05 25.3 -3.45 30.75 -0.4 35.0 -0.05 L36.5 -5.2" fill-rule="evenodd" stroke="none"/>
    </g>
    <g id="font_______W7_S0">
      <path d="M31.55 -9.25 L31.55 -9.25 Q31.55 -13.4 28.3 -15.85 25.95 -17.65 19.7 -19.75 10.7 -22.75 10.7 -24.2 10.7 -25.4 11.9 -26.1 13.0 -26.75 14.65 -26.75 21.7 -26.75 27.4 -23.2 L30.25 -27.8 Q24.05 -32.15 16.75 -32.15 11.9 -32.15 8.45 -30.45 4.0 -28.25 4.0 -23.9 4.0 -20.3 7.85 -18.05 9.4 -17.1 15.9 -14.75 23.85 -11.9 23.85 -10.1 23.85 -8.7 22.45 -7.9 21.25 -7.25 19.75 -7.25 15.9 -7.25 12.1 -9.95 8.85 -12.25 6.35 -15.9 L1.55 -6.1 Q4.85 -3.25 9.45 -1.6 14.1 0.05 18.65 0.05 23.45 0.05 27.15 -2.15 31.55 -4.75 31.55 -9.25" fill-rule="evenodd" stroke="none"/>
    </g>
  </defs>
</svg>
