<?xml version="1.0" encoding="UTF-8" standalone="no"?>
<svg xmlns:xlink="http://www.w3.org/1999/xlink" height="323.05px" width="595.1px" xmlns="http://www.w3.org/2000/svg">
  <g transform="matrix(1.0, 0.0, 0.0, 1.0, 68.25, 14.45)">
    <use height="262.85" transform="matrix(0.7907, 0.0, 0.0, 0.7907, 6.25, 56.3)" width="259.0" xlink:href="#shape0"/>
    <use height="62.9" transform="matrix(0.7016, 0.0, 0.0, 0.7016, 89.7052, 154.85)" width="60.15" xlink:href="#shape1"/>
    <use height="268.95" transform="matrix(0.7439, 0.0, 0.0, 0.7439, 138.6841, 70.9073)" width="148.2" xlink:href="#shape2"/>
    <use height="59.15" transform="matrix(0.7016, 0.0, 0.0, 0.7016, 176.1351, 174.6)" width="57.15" xlink:href="#shape3"/>
    <use height="273.25" transform="matrix(0.7135, 0.0, 0.0, 0.7445, 212.0, 78.9)" width="301.15" xlink:href="#shape4"/>
    <use height="57.2" transform="matrix(0.6594, 0.0, 0.0, 0.6594, 300.2649, 203.8659)" width="56.95" xlink:href="#shape5"/>
    <use height="262.3" transform="matrix(0.848, 0.0, 0.0, 0.848, 346.85, 71.15)" width="194.35" xlink:href="#shape6"/>
    <use height="57.25" transform="matrix(0.7016, 0.0, 0.0, 0.7016, 408.4202, 209.8)" width="57.1" xlink:href="#shape7"/>
    <use height="20.2" transform="matrix(0.593, 0.0, 0.0, 0.7177, 153.454, 45.693)" width="136.9" xlink:href="#text0"/>
    <use height="20.2" transform="matrix(0.7177, 0.0, 0.0, 0.7177, 265.3547, 59.093)" width="143.2" xlink:href="#text1"/>
    <use height="17.7" transform="matrix(0.7264, 0.0, 0.0, 0.7264, 393.0406, 54.099)" width="115.6" xlink:href="#text2"/>
    <use height="17.7" transform="matrix(0.593, 0.0, 0.0, 0.7177, -7.2198, 62.693)" width="147.3" xlink:href="#text3"/>
  </g>
  <defs>
    <g id="shape0" transform="matrix(1.0, 0.0, 0.0, 1.0, 0.0, 0.0)">
      <path d="M252.8 80.7 L253.4 81.35 259.0 153.6 244.95 233.7 245.25 234.15 Q245.95 235.3 245.5 236.35 L220.05 260.15 Q216.65 257.9 210.65 253.25 L197.0 242.9 200.35 237.45 198.2 227.8 199.9 226.2 197.5 211.65 Q194.9 196.0 190.45 180.75 L182.0 191.6 191.3 261.15 190.85 262.55 189.8 262.85 74.4 262.85 73.6 262.65 72.9 261.2 79.4 195.85 63.1 175.95 56.75 209.25 56.4 209.9 Q57.6 215.75 57.85 221.8 58.2 229.75 56.4 237.4 L59.9 243.85 36.7 260.1 36.0 259.75 11.2 236.85 5.15 201.6 0.0 144.6 10.75 85.9 11.5 84.75 65.35 52.2 65.5 51.85 75.9 44.8 Q83.25 39.3 91.65 35.85 94.1 34.8 96.8 34.25 105.45 32.85 114.25 32.8 L109.85 26.35 121.05 1.3 144.95 0.0 145.25 0.15 145.95 1.3 155.75 26.75 151.65 32.0 173.85 34.05 228.95 66.2 241.35 73.5 252.8 80.7 M172.35 36.2 L169.2 36.05 168.7 37.2 136.25 45.65 150.65 55.9 170.3 46.95 174.75 38.0 172.35 36.2 M206.5 160.2 L192.8 177.45 Q197.45 193.75 200.4 210.8 L202.65 224.1 216.4 213.7 233.5 217.25 234.35 217.75 242.55 230.0 256.05 153.1 250.8 86.2 206.5 160.2 M176.55 81.4 L179.95 84.6 183.25 87.9 183.65 88.55 Q183.95 89.2 183.6 89.8 L131.8 133.75 133.8 259.85 188.1 259.85 179.0 191.35 179.1 190.8 179.4 190.3 Q184.8 183.6 190.0 176.5 L190.6 175.75 204.0 158.55 249.85 81.95 228.2 69.0 227.45 68.8 199.2 52.2 194.5 77.3 176.55 81.4 M162.85 68.2 L162.7 68.95 133.25 128.55 180.05 88.85 171.9 80.65 172.2 79.6 192.2 75.05 196.45 50.25 177.3 39.6 162.85 68.2 M150.35 20.35 L140.95 16.3 Q138.1 17.85 134.75 18.05 131.0 18.4 127.4 16.85 L127.25 17.4 113.5 26.95 115.45 30.0 Q124.0 20.8 136.35 20.05 144.3 19.45 152.55 24.2 L150.35 20.35 M143.65 3.1 Q133.4 7.05 122.85 3.9 L113.2 25.65 125.85 16.0 126.75 13.2 127.85 13.3 128.0 14.9 Q131.6 16.4 135.55 15.9 138.45 15.6 140.95 14.2 L150.65 19.2 144.4 5.0 140.1 7.45 143.35 7.6 144.1 9.55 143.6 10.25 136.85 9.9 135.5 9.2 135.15 8.1 143.75 3.65 143.65 3.1 M131.9 10.0 Q130.3 11.6 128.0 11.85 L123.2 11.3 122.4 10.95 123.15 9.45 122.05 8.7 122.4 7.6 Q127.1 7.6 131.8 8.85 L131.9 10.0 M141.65 30.65 L142.25 31.95 Q133.55 37.1 123.75 33.85 L123.4 33.15 123.7 32.25 Q132.95 33.95 141.65 30.65 M147.4 33.35 L152.45 26.65 Q146.3 21.8 136.4 21.95 126.45 22.1 116.45 30.4 L119.1 34.5 104.6 36.15 Q118.6 40.45 132.95 43.4 L163.1 35.8 147.55 33.8 147.4 33.35 M85.3 91.6 Q85.2 91.05 85.4 90.65 88.55 84.85 91.85 79.1 L73.9 78.25 73.65 77.85 Q71.45 73.0 70.4 67.95 L66.4 55.45 14.2 86.65 41.55 145.05 82.45 195.55 76.1 259.85 130.8 259.85 128.15 133.6 85.3 91.6 M95.85 77.5 L95.6 78.45 88.4 90.5 129.35 130.6 130.7 126.8 93.05 36.85 68.7 52.7 75.55 75.3 95.05 76.35 Q95.8 76.7 95.85 77.5 M120.05 55.9 L128.15 45.35 96.85 38.15 101.8 50.45 120.05 55.9 M150.0 59.05 L142.55 53.8 139.55 62.1 150.85 86.0 168.15 51.25 150.0 59.05 M121.05 59.05 L103.3 54.0 116.8 86.1 127.0 61.75 124.45 55.05 121.5 58.9 121.05 59.05 M136.95 63.65 L129.6 63.3 118.45 89.95 132.4 123.15 148.9 88.9 136.95 63.65 M140.0 52.05 L131.6 46.1 126.6 52.25 129.65 60.3 136.9 60.65 140.0 52.05 M3.3 143.3 L2.95 144.0 8.15 201.35 8.05 202.0 13.15 231.7 22.25 217.65 22.65 217.4 Q31.3 215.45 40.05 214.05 L41.1 214.25 55.3 225.0 54.0 211.2 54.05 210.65 54.3 210.1 53.8 208.7 60.65 172.75 60.1 172.3 39.15 146.8 12.9 90.9 3.3 143.3 M219.65 231.35 Q220.65 229.9 221.25 231.55 222.7 235.5 223.3 239.75 L223.25 240.85 Q221.5 242.35 220.7 240.2 L220.25 238.55 210.15 243.25 209.55 243.25 202.45 239.65 200.25 242.9 219.6 256.75 241.35 236.9 242.55 235.5 232.35 219.8 216.8 216.8 201.3 228.9 203.25 236.7 209.9 240.2 219.7 235.5 Q218.45 233.2 219.65 231.35 M56.45 242.9 L54.3 239.6 Q50.7 241.4 47.15 241.4 41.7 241.35 36.45 238.55 36.7 240.15 35.25 240.9 L34.4 241.35 33.45 240.85 Q33.35 240.6 33.4 240.35 33.9 235.75 34.85 231.3 L36.05 230.6 37.3 231.2 37.0 235.5 46.8 240.2 53.45 236.65 55.45 228.9 39.95 216.8 24.4 219.8 14.25 235.55 37.15 256.75 56.45 242.9" fill="#1a1a1a" fill-rule="evenodd" stroke="none"/>
      <path d="M172.35 36.2 L174.75 38.0 170.3 46.95 150.65 55.9 136.25 45.65 168.7 37.2 169.2 36.05 172.35 36.2 M120.05 55.9 L101.8 50.45 96.85 38.15 128.15 45.35 120.05 55.9 M121.05 59.05 L121.5 58.9 124.45 55.05 127.0 61.75 116.8 86.1 103.3 54.0 121.05 59.05 M150.0 59.05 L168.15 51.25 150.85 86.0 139.55 62.1 142.55 53.8 150.0 59.05" fill="#d1b8a2" fill-rule="evenodd" stroke="none"/>
      <path d="M162.85 68.2 L177.3 39.6 196.45 50.25 192.2 75.05 172.2 79.6 171.9 80.65 180.05 88.85 133.25 128.55 162.7 68.95 162.85 68.2 M176.55 81.4 L194.5 77.3 199.2 52.2 227.45 68.8 228.2 69.0 249.85 81.95 204.0 158.55 190.6 175.75 190.0 176.5 Q184.8 183.6 179.4 190.3 L179.1 190.8 179.0 191.35 188.1 259.85 133.8 259.85 131.8 133.75 183.6 89.8 Q183.95 89.2 183.65 88.55 L183.25 87.9 179.95 84.6 176.55 81.4 M206.5 160.2 L250.8 86.2 256.05 153.1 242.55 230.0 234.35 217.75 233.5 217.25 216.4 213.7 202.65 224.1 200.4 210.8 Q197.45 193.75 192.8 177.45 L206.5 160.2 M95.85 77.5 Q95.8 76.7 95.05 76.35 L75.55 75.3 68.7 52.7 93.05 36.85 130.7 126.8 129.35 130.6 88.4 90.5 95.6 78.45 95.85 77.5 M85.3 91.6 L128.15 133.6 130.8 259.85 76.1 259.85 82.45 195.55 41.55 145.05 14.2 86.65 66.4 55.45 70.4 67.95 Q71.45 73.0 73.65 77.85 L73.9 78.25 91.85 79.1 Q88.55 84.85 85.4 90.65 85.2 91.05 85.3 91.6 M3.3 143.3 L12.9 90.9 39.15 146.8 60.1 172.3 60.65 172.75 53.8 208.7 54.3 210.1 54.05 210.65 54.0 211.2 55.3 225.0 41.1 214.25 40.05 214.05 Q31.3 215.45 22.65 217.4 L22.25 217.65 13.15 231.7 8.05 202.0 8.15 201.35 2.95 144.0 3.3 143.3" fill="#591f0b" fill-rule="evenodd" stroke="none"/>
      <path d="M147.4 33.35 L147.55 33.8 163.1 35.8 132.95 43.4 Q118.6 40.45 104.6 36.15 L119.1 34.5 116.45 30.4 Q126.45 22.1 136.4 21.95 146.3 21.8 152.45 26.65 L147.4 33.35 M141.65 30.65 Q132.95 33.95 123.7 32.25 L123.4 33.15 123.75 33.85 Q133.55 37.1 142.25 31.95 L141.65 30.65 M131.9 10.0 L131.8 8.85 Q127.1 7.6 122.4 7.6 L122.05 8.7 123.15 9.45 122.4 10.95 123.2 11.3 128.0 11.85 Q130.3 11.6 131.9 10.0 M143.65 3.1 L143.75 3.65 135.15 8.1 135.5 9.2 136.85 9.9 143.6 10.25 144.1 9.55 143.35 7.6 140.1 7.45 144.4 5.0 150.65 19.2 140.95 14.2 Q138.45 15.6 135.55 15.9 131.6 16.4 128.0 14.9 L127.85 13.3 126.75 13.2 125.85 16.0 113.2 25.65 122.85 3.9 Q133.4 7.05 143.65 3.1 M150.35 20.35 L152.55 24.2 Q144.3 19.45 136.35 20.05 124.0 20.8 115.45 30.0 L113.5 26.95 127.25 17.4 127.4 16.85 Q131.0 18.4 134.75 18.05 138.1 17.85 140.95 16.3 L150.35 20.35 M56.45 242.9 L37.15 256.75 14.25 235.55 24.4 219.8 39.95 216.8 55.45 228.9 53.45 236.65 46.8 240.2 37.0 235.5 37.3 231.2 36.05 230.6 34.85 231.3 Q33.9 235.75 33.4 240.35 33.35 240.6 33.45 240.85 L34.4 241.35 35.25 240.9 Q36.7 240.15 36.45 238.55 41.7 241.35 47.15 241.4 50.7 241.4 54.3 239.6 L56.45 242.9 M219.65 231.35 Q218.45 233.2 219.7 235.5 L209.9 240.2 203.25 236.7 201.3 228.9 216.8 216.8 232.35 219.8 242.55 235.5 241.35 236.9 219.6 256.75 200.25 242.9 202.45 239.65 209.55 243.25 210.15 243.25 220.25 238.55 220.7 240.2 Q221.5 242.35 223.25 240.85 L223.3 239.75 Q222.7 235.5 221.25 231.55 220.65 229.9 219.65 231.35" fill="#e6c6b0" fill-rule="evenodd" stroke="none"/>
      <path d="M136.95 63.65 L148.9 88.9 132.4 123.15 118.45 89.95 129.6 63.3 136.95 63.65 M140.0 52.05 L136.9 60.65 129.65 60.3 126.6 52.25 131.6 46.1 140.0 52.05" fill="#331c1a" fill-rule="evenodd" stroke="none"/>
    </g>
    <g id="shape1" transform="matrix(1.0, 0.0, 0.0, 1.0, -0.15, 0.0)">
      <path d="M41.2 3.95 L41.15 4.0 41.3 4.0 44.35 3.65 45.1 3.6 49.85 3.3 50.1 7.7 50.1 10.1 49.75 10.45 47.5 10.8 45.55 11.05 44.6 11.15 36.4 11.95 33.15 17.35 Q38.35 28.65 45.4 38.9 L48.7 43.9 40.45 52.5 40.25 52.7 38.35 54.95 36.45 57.35 35.6 58.4 34.3 60.1 33.5 61.15 32.05 62.9 Q30.6 62.8 29.95 61.3 L29.3 60.4 28.2 58.8 27.65 57.95 26.25 56.0 25.6 55.0 Q21.25 48.5 15.35 43.2 L15.05 42.65 Q23.8 32.45 27.0 19.2 L27.55 17.35 24.35 12.1 15.95 11.2 14.75 11.05 12.8 10.8 11.4 10.55 Q10.85 10.45 10.8 10.0 L10.75 9.2 10.75 7.2 11.0 3.3 16.05 3.65 18.8 3.95 19.5 4.05 19.3 3.75 Q18.95 3.3 19.25 2.85 L19.5 2.5 23.6 2.4 36.5 2.4 41.35 2.85 41.2 3.95 M44.4 6.85 L42.0 9.25 42.85 9.45 Q44.45 9.3 44.6 7.7 L44.4 6.85 M41.3 8.5 L43.65 6.15 Q41.6 5.6 41.25 7.7 41.2 8.1 41.3 8.5 M41.15 9.85 Q40.25 9.15 40.1 7.7 40.25 6.15 41.3 5.45 L40.2 5.55 37.4 10.25 40.5 9.9 41.15 9.85 M43.9 5.2 Q45.4 5.8 45.6 7.7 L45.1 9.3 48.1 8.9 48.65 4.7 43.9 5.2 M41.95 38.2 L43.25 38.85 41.9 36.6 37.6 29.35 29.4 25.7 26.75 24.55 25.0 29.65 28.0 31.2 41.95 38.2 M41.95 42.6 Q41.05 43.25 41.3 44.35 L43.8 42.35 Q42.85 41.85 41.95 42.6 M44.15 45.15 L44.4 44.85 44.65 43.4 42.15 45.4 Q43.1 45.85 44.15 45.15 M39.1 48.25 L41.25 49.2 43.65 46.5 42.95 46.6 Q41.5 46.45 40.65 45.3 L40.2 43.85 40.4 42.95 26.4 36.65 22.6 35.0 19.65 39.65 20.85 40.15 22.1 39.8 23.45 40.4 25.05 42.0 39.1 48.25 M34.8 9.0 L35.5 9.6 38.0 5.3 36.5 4.05 35.25 4.1 29.2 4.25 34.8 9.0 M25.45 6.7 L22.5 4.4 22.0 4.4 Q24.5 8.6 27.15 12.45 28.0 13.7 29.3 14.6 L31.5 16.2 33.45 12.95 25.45 6.7 M20.7 6.0 L19.85 6.0 Q20.7 7.2 20.4 8.55 20.15 9.6 19.2 10.1 L23.4 10.5 20.7 6.0 M29.35 18.0 L28.25 20.0 29.85 20.75 34.35 22.7 32.2 18.0 29.35 18.0 M19.5 7.75 Q19.35 6.15 17.75 6.0 L16.95 6.25 19.3 8.6 19.5 7.75 M16.0 7.75 Q16.15 9.35 17.75 9.5 L18.6 9.3 16.25 6.95 Q16.05 7.25 16.0 7.75 M12.25 9.2 L15.8 9.7 Q14.6 8.25 15.3 6.7 L15.75 5.9 12.7 5.45 12.25 9.2 M23.25 41.2 L22.1 40.8 21.3 41.05 23.8 43.05 Q24.05 42.3 23.25 41.2 M20.35 42.55 Q20.5 44.15 22.1 44.3 L22.95 44.1 20.6 41.75 20.35 42.55 M25.05 47.75 L21.05 46.6 25.7 52.6 27.0 54.4 32.65 56.5 34.75 57.05 37.9 53.1 36.05 52.1 25.05 47.75" fill="#441c0c" fill-rule="evenodd" stroke="none"/>
      <path d="M41.3 4.0 L41.2 3.95 41.35 2.85 36.5 2.4 30.15 1.6 23.6 2.4 19.5 2.5 19.25 2.85 Q18.95 3.3 19.3 3.75 L18.8 3.95 16.05 3.65 Q20.25 1.5 25.0 0.6 L26.25 0.4 30.15 0.1 Q38.05 0.3 44.35 3.65 L41.3 4.0 M10.75 7.2 L10.75 9.2 9.9 10.0 Q1.8 18.1 1.5 30.25 1.8 42.4 9.9 50.5 17.35 57.95 28.2 58.8 L29.3 60.4 Q17.05 59.8 8.85 51.55 4.25 46.95 2.05 41.15 -2.2 29.0 3.1 17.3 5.8 11.45 10.75 7.2 M12.8 10.8 L14.75 11.05 Q8.85 15.8 6.5 23.15 3.4 33.0 8.5 42.1 13.6 51.25 23.55 53.95 L25.6 55.0 26.25 56.0 Q18.9 54.95 13.3 50.15 5.4 43.3 4.45 32.95 3.25 19.85 12.8 10.8 M34.3 60.1 L35.6 58.4 Q43.05 57.15 48.8 52.25 57.85 44.45 58.45 32.4 59.05 19.5 50.1 10.1 L50.1 7.7 51.45 8.95 Q60.0 17.45 60.3 30.25 60.0 43.05 51.45 51.55 44.35 58.7 34.3 60.1 M38.35 54.95 L40.25 52.7 Q51.55 47.35 54.05 35.2 56.15 25.1 50.65 16.55 48.6 13.3 45.55 11.05 L47.5 10.8 Q50.95 13.85 53.05 17.95 58.75 29.0 54.0 40.3 49.45 51.2 38.35 54.95" fill="#4f2713" fill-rule="evenodd" stroke="none"/>
      <path d="M41.3 4.0 L41.15 4.0 41.2 3.95 41.3 4.0 M36.5 2.4 L23.6 2.4 30.15 1.6 36.5 2.4 M19.3 3.75 L19.5 4.05 18.8 3.95 19.3 3.75 M10.75 9.2 L10.8 10.0 Q1.1 19.6 2.4 33.1 3.35 42.95 10.25 49.95 17.5 57.2 27.65 57.95 L28.2 58.8 Q17.35 57.95 9.9 50.5 1.8 42.4 1.5 30.25 1.8 18.1 9.9 10.0 L10.75 9.2 M35.6 58.4 L36.45 57.35 Q44.1 55.55 49.75 49.9 57.65 42.0 57.95 30.15 57.65 18.3 49.75 10.45 L50.1 10.1 Q59.05 19.5 58.45 32.4 57.85 44.45 48.8 52.25 43.05 57.15 35.6 58.4" fill="#a89678" fill-rule="evenodd" stroke="none"/>
      <path d="M45.1 3.6 L44.35 3.65 Q38.05 0.3 30.15 0.1 L26.25 0.4 30.75 0.0 Q38.75 0.2 45.1 3.6" fill="#724a30" fill-rule="evenodd" stroke="none"/>
      <path d="M41.3 8.5 Q41.2 8.1 41.25 7.7 41.6 5.6 43.65 6.15 L41.3 8.5 M44.4 6.85 L44.6 7.7 Q44.45 9.3 42.85 9.45 L42.0 9.25 44.4 6.85 M44.15 45.15 Q43.1 45.85 42.15 45.4 L44.65 43.4 44.4 44.85 44.15 45.15 M41.95 42.6 Q42.85 41.85 43.8 42.35 L41.3 44.35 Q41.05 43.25 41.95 42.6 M16.0 7.75 Q16.05 7.25 16.25 6.95 L18.6 9.3 17.75 9.5 Q16.15 9.35 16.0 7.75 M19.5 7.75 L19.3 8.6 16.95 6.25 17.75 6.0 Q19.35 6.15 19.5 7.75 M20.35 42.55 L20.6 41.75 22.95 44.1 22.1 44.3 Q20.5 44.15 20.35 42.55 M23.25 41.2 Q24.05 42.3 23.8 43.05 L21.3 41.05 22.1 40.8 23.25 41.2" fill="#d7cdbb" fill-rule="evenodd" stroke="none"/>
      <path d="M15.95 11.2 L24.35 12.1 27.55 17.35 27.0 19.2 Q23.8 32.45 15.05 42.65 L15.35 43.2 Q21.25 48.5 25.6 55.0 L23.55 53.95 22.3 52.95 Q17.25 51.25 13.4 47.45 6.8 40.95 6.55 30.8 6.8 20.6 13.4 13.55 14.6 12.25 15.95 11.2 M40.45 52.5 L48.7 43.9 45.4 38.9 Q38.35 28.65 33.15 17.35 L36.4 11.95 44.6 11.15 Q51.75 16.65 53.55 25.4 55.55 35.3 50.0 43.55 47.2 47.8 42.95 50.65 L40.45 52.5 M46.05 37.8 L48.6 41.5 Q50.4 39.45 51.3 36.9 52.6 33.25 52.4 29.4 51.85 18.25 43.0 11.75 L41.65 12.05 Q38.8 11.65 36.35 13.2 33.8 16.5 35.55 20.15 40.0 29.5 46.05 37.8 M14.45 42.25 Q18.5 37.2 21.35 31.55 L23.75 25.95 Q25.15 22.1 25.9 17.95 26.3 15.65 24.6 14.0 22.2 12.4 19.25 12.3 15.05 14.65 12.0 18.35 10.25 20.5 9.3 23.5 6.2 33.5 11.7 42.45 14.8 47.45 19.85 49.4 L18.65 48.0 Q17.45 46.65 15.95 45.75 13.95 44.4 14.45 42.25" fill="#a99b81" fill-rule="evenodd" stroke="none"/>
      <path d="M41.15 9.85 L40.5 9.9 37.4 10.25 40.2 5.55 41.3 5.45 Q40.25 6.15 40.1 7.7 40.25 9.15 41.15 9.85 M43.9 5.2 L48.65 4.7 48.1 8.9 45.1 9.3 45.6 7.7 Q45.4 5.8 43.9 5.2 M20.7 6.0 L23.4 10.5 19.2 10.1 Q20.15 9.6 20.4 8.55 20.7 7.2 19.85 6.0 L20.7 6.0 M12.25 9.2 L12.7 5.45 15.75 5.9 15.3 6.7 Q14.6 8.25 15.8 9.7 L12.25 9.2" fill="#b5a581" fill-rule="evenodd" stroke="none"/>
      <path d="M14.75 11.05 L15.95 11.2 Q14.6 12.25 13.4 13.55 6.8 20.6 6.55 30.8 6.8 40.95 13.4 47.45 17.25 51.25 22.3 52.95 L23.55 53.95 Q13.6 51.25 8.5 42.1 3.4 33.0 6.5 23.15 8.85 15.8 14.75 11.05 M40.25 52.7 L40.45 52.5 42.95 50.65 Q47.2 47.8 50.0 43.55 55.55 35.3 53.55 25.4 51.75 16.65 44.6 11.15 L45.55 11.05 Q48.6 13.3 50.65 16.55 56.15 25.1 54.05 35.2 51.55 47.35 40.25 52.7" fill="#887c64" fill-rule="evenodd" stroke="none"/>
      <path d="M10.8 10.0 Q10.85 10.45 11.4 10.55 L12.8 10.8 Q3.25 19.85 4.45 32.95 5.4 43.3 13.3 50.15 18.9 54.95 26.25 56.0 L27.65 57.95 Q17.5 57.2 10.25 49.95 3.35 42.95 2.4 33.1 1.1 19.6 10.8 10.0 M36.45 57.35 L38.35 54.95 Q49.45 51.2 54.0 40.3 58.75 29.0 53.05 17.95 50.95 13.85 47.5 10.8 L49.75 10.45 Q57.65 18.3 57.95 30.15 57.65 42.0 49.75 49.9 44.1 55.55 36.45 57.35" fill="#f0e6ca" fill-rule="evenodd" stroke="none"/>
      <path d="M36.35 13.2 Q38.8 11.65 41.65 12.05 L43.0 11.75 Q51.85 18.25 52.4 29.4 52.6 33.25 51.3 36.9 50.4 39.45 48.6 41.5 L46.05 37.8 Q50.35 29.45 46.7 20.6 43.8 13.75 36.35 13.2 M24.6 14.0 Q16.75 16.25 12.2 23.4 8.65 29.55 11.25 36.2 12.4 39.5 14.45 42.25 13.95 44.4 15.95 45.75 17.45 46.65 18.65 48.0 L19.85 49.4 Q14.8 47.45 11.7 42.45 6.2 33.5 9.3 23.5 10.25 20.5 12.0 18.35 15.05 14.65 19.25 12.3 22.2 12.4 24.6 14.0" fill="#c4b696" fill-rule="evenodd" stroke="none"/>
      <path d="M46.05 37.8 Q40.0 29.5 35.55 20.15 33.8 16.5 36.35 13.2 43.8 13.75 46.7 20.6 50.35 29.45 46.05 37.8 M24.6 14.0 Q26.3 15.65 25.9 17.95 25.15 22.1 23.75 25.95 L21.35 31.55 Q18.5 37.2 14.45 42.25 12.4 39.5 11.25 36.2 8.65 29.55 12.2 23.4 16.75 16.25 24.6 14.0" fill="#d8ceba" fill-rule="evenodd" stroke="none"/>
      <path d="M41.9 36.6 L43.25 38.85 41.95 38.2 41.9 36.6 M28.0 31.2 L25.0 29.65 26.75 24.55 29.4 25.7 28.0 31.2 M40.65 45.3 Q41.5 46.45 42.95 46.6 L43.65 46.5 41.25 49.2 39.1 48.25 40.65 45.3 M25.05 42.0 L23.45 40.4 22.1 39.8 20.85 40.15 19.65 39.65 22.6 35.0 26.4 36.65 25.05 42.0 M35.25 4.1 L36.5 4.05 38.0 5.3 35.5 9.6 34.8 9.0 35.25 4.1 M29.3 14.6 Q28.0 13.7 27.15 12.45 24.5 8.6 22.0 4.4 L22.5 4.4 25.45 6.7 26.55 8.3 Q28.7 11.05 29.3 14.6 M29.85 20.75 L28.25 20.0 29.35 18.0 29.85 20.75 M25.7 52.6 L21.05 46.6 25.05 47.75 25.7 52.6 M36.05 52.1 L37.9 53.1 34.75 57.05 32.65 56.5 36.05 52.1" fill="#af9f81" fill-rule="evenodd" stroke="none"/>
      <path d="M41.9 36.6 L41.95 38.2 28.0 31.2 29.4 25.7 37.6 29.35 41.9 36.6 M40.65 45.3 L39.1 48.25 25.05 42.0 26.4 36.65 40.4 42.95 40.2 43.85 40.65 45.3 M35.25 4.1 L34.8 9.0 29.2 4.25 35.25 4.1 M29.3 14.6 Q28.7 11.05 26.55 8.3 L25.45 6.7 33.45 12.95 31.5 16.2 29.3 14.6 M29.85 20.75 L29.35 18.0 32.2 18.0 34.35 22.7 29.85 20.75 M25.7 52.6 L25.05 47.75 36.05 52.1 32.65 56.5 27.0 54.4 25.7 52.6" fill="#c4b898" fill-rule="evenodd" stroke="none"/>
    </g>
    <g id="shape2" transform="matrix(1.0, 0.0, 0.0, 1.0, 1.5, 1.2)">
      <path d="M91.2 25.55 L90.3 21.95 95.05 25.6 91.2 25.55 M99.0 42.5 L97.7 41.55 81.7 49.15 80.5 51.75 Q83.0 56.35 87.05 59.8 L86.5 59.7 86.0 60.0 85.65 60.35 85.55 60.7 Q85.85 62.55 85.15 64.35 L81.2 65.3 Q75.35 66.65 69.65 64.35 L67.9 61.3 67.35 61.4 66.9 61.55 66.6 61.85 Q65.95 62.65 66.2 63.95 63.7 68.0 60.4 71.55 55.9 76.4 53.95 82.7 51.6 90.1 54.25 97.85 55.0 100.05 57.15 99.35 57.45 96.6 58.85 94.4 61.7 89.9 65.25 86.3 70.05 81.5 76.75 81.35 88.4 81.05 95.3 90.9 96.1 92.05 95.95 93.4 95.65 96.65 95.9 99.75 L97.5 99.75 Q99.35 96.95 100.7 93.6 103.7 86.2 98.45 79.7 91.25 70.75 87.55 60.1 L88.45 60.75 Q91.1 62.65 94.15 61.8 L94.2 60.95 94.05 60.95 91.35 59.95 90.05 59.5 Q86.85 57.7 84.85 54.7 L94.3 54.15 94.85 53.25 94.7 51.95 93.95 51.45 82.75 51.95 98.1 44.1 Q99.15 43.55 99.0 42.5 M98.25 38.25 L109.25 84.25 98.45 104.45 97.65 104.3 96.9 104.6 96.45 105.2 90.05 107.45 88.5 106.45 79.0 111.0 Q67.5 109.3 56.95 104.8 L43.1 83.3 55.1 37.4 57.5 37.45 60.2 41.2 Q66.15 48.4 75.45 47.6 84.55 46.45 89.1 38.1 L98.25 38.25 M87.5 66.3 Q96.6 76.15 99.6 88.9 100.0 90.55 99.55 92.4 93.25 79.75 79.1 78.55 75.15 78.6 71.5 80.4 61.1 85.3 54.9 94.9 51.7 82.8 60.0 73.7 L67.1 65.75 Q76.3 71.8 86.15 67.05 L87.5 66.3 M55.15 45.95 L68.6 52.0 68.05 51.85 Q62.8 50.8 60.15 53.45 L60.85 54.4 68.15 54.85 Q67.65 56.7 65.85 57.5 L64.8 57.95 Q61.6 59.4 58.0 59.25 L57.5 59.85 57.75 60.9 Q64.05 61.8 68.45 57.6 70.8 55.35 70.65 51.95 L71.2 50.4 Q63.95 45.8 55.35 43.4 L54.4 44.65 55.15 45.95 M128.85 242.85 L128.05 243.15 127.55 250.25 122.4 250.95 116.45 243.95 116.8 238.3 124.95 228.15 133.8 228.8 143.25 238.0 142.25 256.55 126.05 262.4 112.3 253.05 113.15 247.35 115.1 247.05 Q120.45 253.65 128.7 253.1 L129.05 254.0 130.05 254.55 131.45 253.6 130.35 244.35 Q130.35 243.4 129.5 243.05 L128.85 242.85 M12.35 226.55 L21.6 224.4 34.45 236.5 Q34.2 244.1 29.5 250.0 L20.65 248.7 Q20.55 246.0 21.3 243.65 21.6 242.65 20.95 241.95 L20.65 241.65 18.8 242.15 Q16.55 246.5 18.4 250.75 L18.85 251.7 30.5 253.1 34.55 247.45 35.2 247.7 36.2 254.7 28.55 261.6 4.35 253.0 5.05 236.85 12.35 226.55" fill="#d1ede0" fill-rule="evenodd" stroke="none"/>
      <path d="M88.1 17.7 Q83.5 10.9 75.4 9.95 67.1 9.15 61.0 15.05 L64.5 1.55 89.65 2.4 94.15 21.0 Q91.35 18.85 88.1 17.7 M41.4 132.75 L41.65 134.25 69.4 168.25 61.6 185.1 60.0 264.6 37.05 264.4 36.8 258.25 39.05 256.2 39.0 255.1 38.6 250.8 38.0 246.45 37.9 246.15 37.7 245.8 37.1 245.4 Q36.6 245.05 36.1 244.85 L37.0 239.9 37.3 237.9 37.35 236.9 37.3 235.85 37.15 235.4 35.1 233.05 28.45 153.65 20.65 139.25 19.25 140.25 25.5 154.15 31.85 229.9 22.05 221.35 11.1 223.75 10.75 224.05 7.25 228.7 3.8 233.4 1.5 217.05 4.5 175.7 20.2 122.9 34.5 117.15 50.05 125.9 41.4 132.75 M53.8 124.95 L38.05 115.7 54.6 108.95 71.95 162.8 70.8 165.25 44.95 133.6 54.15 126.1 Q54.65 125.45 53.8 124.95 M72.05 153.3 L77.45 149.9 73.75 158.65 72.05 153.3 M71.1 150.35 L70.85 149.6 71.45 150.15 71.1 150.35 M74.95 163.5 L98.6 107.8 Q103.75 110.2 108.9 112.55 L94.15 127.7 Q93.7 128.1 94.0 128.8 L94.25 129.25 100.95 133.5 70.3 173.35 74.95 163.5 M128.45 129.05 Q124.5 135.95 121.05 143.55 L117.0 233.3 Q113.65 238.2 113.4 244.25 L110.55 245.25 109.25 253.95 114.45 258.15 113.8 264.4 63.0 264.45 64.6 185.7 104.35 134.05 104.5 132.65 97.7 128.0 111.8 113.9 133.75 123.95 143.7 180.8 142.35 233.0 134.55 225.85 131.4 225.85 125.15 226.85 Q122.15 227.25 120.15 229.35 L124.05 144.0 Q127.4 137.15 129.6 130.1 L128.45 129.05" fill="#3a3d6a" fill-rule="evenodd" stroke="none"/>
      <path d="M84.05 40.05 Q79.65 44.7 73.45 44.7 67.25 44.7 62.85 40.05 58.45 35.35 58.45 28.7 58.45 22.05 62.85 17.4 67.25 12.7 73.45 12.7 79.65 12.7 84.05 17.4 88.45 22.05 88.45 28.7 88.45 35.35 84.05 40.05 M68.25 28.8 Q68.65 33.85 72.8 34.3 77.0 33.85 77.4 28.8 77.0 23.75 72.8 23.3 68.65 23.8 68.25 28.8" fill="#ffffff" fill-rule="evenodd" stroke="none"/>
      <path d="M95.9 28.6 L97.5 35.25 90.4 35.1 91.45 28.7 95.9 28.6" fill="#96a0ce" fill-rule="evenodd" stroke="none"/>
      <path d="M105.8 57.05 L105.45 55.6 Q106.05 54.75 106.25 53.55 L105.8 57.05" fill="#47525f" fill-rule="evenodd" stroke="none"/>
      <path d="M105.0 53.6 L104.1 49.9 104.25 49.85 Q104.95 50.25 105.5 50.9 L105.0 53.6" fill="#d0cfd0" fill-rule="evenodd" stroke="none"/>
      <path d="M105.45 55.6 L105.0 53.6 105.5 50.9 106.25 53.55 Q106.05 54.75 105.45 55.6" fill="#b0aeb3" fill-rule="evenodd" stroke="none"/>
      <path d="M104.1 49.9 L104.05 49.75 104.25 49.85 104.1 49.9" fill="#e9e9eb" fill-rule="evenodd" stroke="none"/>
      <path d="M68.25 28.8 Q68.65 23.8 72.8 23.3 77.0 23.75 77.4 28.8 77.0 33.85 72.8 34.3 68.65 33.85 68.25 28.8" fill="#000000" fill-rule="evenodd" stroke="none"/>
      <path d="M71.35 121.55 L65.95 124.4 65.6 111.9 71.6 113.45 71.35 121.55 M74.4 121.0 L74.55 113.85 77.75 113.95 77.45 120.65 74.4 121.0 M80.8 113.4 L86.85 110.25 85.5 126.35 80.4 121.4 80.8 113.4" fill="#990000" fill-rule="evenodd" stroke="none"/>
      <path d="M61.95 122.0 L58.05 108.55 62.55 110.4 62.85 121.5 61.95 122.0 M65.2 128.2 L78.35 123.6 85.65 130.7 79.55 145.0 74.1 148.5 Q66.85 139.75 64.2 128.35 L65.2 128.2 M89.05 119.9 L89.85 110.7 94.85 108.9 90.1 120.25 89.05 119.9" fill="#d7dcec" fill-rule="evenodd" stroke="none"/>
      <path d="M105.8 57.05 L112.35 84.65 101.25 105.7 135.7 121.55 136.55 122.65 146.7 180.45 145.3 235.85 146.1 236.85 144.65 258.85 125.3 265.5 117.3 260.1 116.55 266.55 115.2 267.35 75.6 267.75 35.6 267.35 34.2 266.2 33.9 260.85 29.55 264.7 1.9 254.95 Q1.45 235.8 -1.5 216.9 L1.5 175.3 17.55 121.35 Q35.8 113.65 54.05 105.9 L40.0 83.2 62.45 -1.2 90.85 -0.6 Q94.2 7.25 96.2 15.7 L104.05 49.75 104.1 49.9 105.0 53.6 105.45 55.6 105.8 57.05 M88.1 17.7 Q91.35 18.85 94.15 21.0 L89.65 2.4 64.5 1.55 61.0 15.05 Q67.1 9.15 75.4 9.95 83.5 10.9 88.1 17.7 M95.9 28.6 L91.45 28.7 90.4 35.1 97.5 35.25 95.9 28.6 M98.25 38.25 L89.1 38.1 Q84.55 46.45 75.45 47.6 66.15 48.4 60.2 41.2 L57.5 37.45 55.1 37.4 43.1 83.3 56.95 104.8 Q67.5 109.3 79.0 111.0 L88.5 106.45 90.05 107.45 96.45 105.2 96.9 104.6 97.65 104.3 98.45 104.45 109.25 84.25 98.25 38.25 M99.0 42.5 Q99.15 43.55 98.1 44.1 L82.75 51.95 93.95 51.45 94.7 51.95 94.85 53.25 94.3 54.15 84.85 54.7 Q86.85 57.7 90.05 59.5 L91.35 59.95 94.05 60.95 94.2 60.95 94.15 61.8 Q91.1 62.65 88.45 60.75 L87.55 60.1 Q91.25 70.75 98.45 79.7 103.7 86.2 100.7 93.6 99.35 96.95 97.5 99.75 L95.9 99.75 Q95.65 96.65 95.95 93.4 96.1 92.05 95.3 90.9 88.4 81.05 76.75 81.35 70.05 81.5 65.25 86.3 61.7 89.9 58.85 94.4 57.45 96.6 57.15 99.35 55.0 100.05 54.25 97.85 51.6 90.1 53.95 82.7 55.9 76.4 60.4 71.55 63.7 68.0 66.2 63.95 65.95 62.65 66.6 61.85 L66.9 61.55 67.35 61.4 67.9 61.3 69.65 64.35 Q75.35 66.65 81.2 65.3 L85.15 64.35 Q85.85 62.55 85.55 60.7 L85.65 60.35 86.0 60.0 86.5 59.7 87.05 59.8 Q83.0 56.35 80.5 51.75 L81.7 49.15 97.7 41.55 99.0 42.5 M91.2 25.55 L95.05 25.6 90.3 21.95 91.2 25.55 M84.05 40.05 Q88.45 35.35 88.45 28.7 88.45 22.05 84.05 17.4 79.65 12.7 73.45 12.7 67.25 12.7 62.85 17.4 58.45 22.05 58.45 28.7 58.45 35.35 62.85 40.05 67.25 44.7 73.45 44.7 79.65 44.7 84.05 40.05 M55.15 45.95 L54.4 44.65 55.35 43.4 Q63.95 45.8 71.2 50.4 L70.65 51.95 Q70.8 55.35 68.45 57.6 64.05 61.8 57.75 60.9 L57.5 59.85 58.0 59.25 Q61.6 59.4 64.8 57.95 L65.85 57.5 Q67.65 56.7 68.15 54.85 L60.85 54.4 60.15 53.45 Q62.8 50.8 68.05 51.85 L68.6 52.0 55.15 45.95 M87.5 66.3 L86.15 67.05 Q76.3 71.8 67.1 65.75 L60.0 73.7 Q51.7 82.8 54.9 94.9 61.1 85.3 71.5 80.4 75.15 78.6 79.1 78.55 93.25 79.75 99.55 92.4 100.0 90.55 99.6 88.9 96.6 76.15 87.5 66.3 M56.3 34.4 L56.15 33.75 55.95 34.4 56.3 34.4 M61.95 122.0 L62.85 121.5 62.55 110.4 58.05 108.55 61.95 122.0 M80.8 113.4 L80.4 121.4 85.5 126.35 86.85 110.25 80.8 113.4 M74.4 121.0 L77.45 120.65 77.75 113.95 74.55 113.85 74.4 121.0 M71.35 121.55 L71.6 113.45 65.6 111.9 65.95 124.4 71.35 121.55 M53.8 124.95 Q54.65 125.45 54.15 126.1 L44.95 133.6 70.8 165.25 71.95 162.8 54.6 108.95 38.05 115.7 53.8 124.95 M41.4 132.75 L50.05 125.9 34.5 117.15 20.2 122.9 4.5 175.7 1.5 217.05 3.8 233.4 7.25 228.7 10.75 224.05 11.1 223.75 22.05 221.35 31.85 229.9 25.5 154.15 19.25 140.25 20.65 139.25 28.45 153.65 35.1 233.05 37.15 235.4 37.3 235.85 37.35 236.9 37.3 237.9 37.0 239.9 36.1 244.85 Q36.6 245.05 37.1 245.4 L37.7 245.8 37.9 246.15 38.0 246.45 38.6 250.8 39.0 255.1 39.05 256.2 36.8 258.25 37.05 264.4 60.0 264.6 61.6 185.1 69.4 168.25 41.65 134.25 41.4 132.75 M65.2 128.2 L64.2 128.35 Q66.85 139.75 74.1 148.5 L79.55 145.0 85.65 130.7 78.35 123.6 65.2 128.2 M128.45 129.05 L129.6 130.1 Q127.4 137.15 124.05 144.0 L120.15 229.35 Q122.15 227.25 125.15 226.85 L131.4 225.85 134.55 225.85 142.35 233.0 143.7 180.8 133.75 123.95 111.8 113.9 97.7 128.0 104.5 132.65 104.35 134.05 64.6 185.7 63.0 264.45 113.8 264.4 114.45 258.15 109.25 253.95 110.55 245.25 113.4 244.25 Q113.65 238.2 117.0 233.3 L121.05 143.55 Q124.5 135.95 128.45 129.05 M74.95 163.5 L70.3 173.35 100.95 133.5 94.25 129.25 94.0 128.8 Q93.7 128.1 94.15 127.7 L108.9 112.55 Q103.75 110.2 98.6 107.8 L74.95 163.5 M71.1 150.35 L71.45 150.15 70.85 149.6 71.1 150.35 M72.05 153.3 L73.75 158.65 77.45 149.9 72.05 153.3 M89.05 119.9 L90.1 120.25 94.85 108.9 89.85 110.7 89.05 119.9 M12.35 226.55 L5.05 236.85 4.35 253.0 28.55 261.6 36.2 254.7 35.2 247.7 34.55 247.45 30.5 253.1 18.85 251.7 18.4 250.75 Q16.55 246.5 18.8 242.15 L20.65 241.65 20.95 241.95 Q21.6 242.65 21.3 243.65 20.55 246.0 20.65 248.7 L29.5 250.0 Q34.2 244.1 34.45 236.5 L21.6 224.4 12.35 226.55 M128.85 242.85 L129.5 243.05 Q130.35 243.4 130.35 244.35 L131.45 253.6 130.05 254.55 129.05 254.0 128.7 253.1 Q120.45 253.65 115.1 247.05 L113.15 247.35 112.3 253.05 126.05 262.4 142.25 256.55 143.25 238.0 133.8 228.8 124.95 228.15 116.8 238.3 116.45 243.95 122.4 250.95 127.55 250.25 128.05 243.15 128.85 242.85" fill="#1a1a1a" fill-rule="evenodd" stroke="none"/>
    </g>
    <g id="shape3" transform="matrix(1.0, 0.0, 0.0, 1.0, -0.05, 0.0)">
      <path d="M40.95 2.45 L41.9 2.8 Q42.4 1.4 44.05 1.25 46.25 1.45 46.45 3.8 L46.45 6.35 48.8 8.45 Q56.9 16.5 57.2 28.65 56.85 40.75 48.8 48.85 42.05 55.65 32.45 56.95 L32.05 57.95 Q31.35 59.0 29.8 59.15 28.3 59.0 27.6 58.05 L27.2 57.2 Q16.0 56.45 8.4 48.85 3.45 43.9 1.4 37.45 -0.45 31.7 0.25 25.75 1.75 13.25 11.8 5.55 L12.4 3.05 Q13.25 0.65 15.6 1.55 16.3 1.85 16.4 2.8 L17.0 2.55 Q21.85 0.45 27.2 0.1 33.95 0.0 40.1 2.5 L40.95 2.45 M40.75 9.5 L41.65 9.15 41.65 3.8 40.95 3.4 Q39.9 3.3 39.45 4.1 L39.5 20.75 40.05 21.3 41.6 21.05 41.65 14.2 41.0 13.95 Q39.6 13.25 39.65 11.65 39.65 10.3 40.75 9.5 M43.6 13.8 L42.65 14.2 Q42.3 22.35 43.9 21.75 L44.95 21.3 44.95 2.65 Q44.35 2.05 43.6 2.4 42.9 2.55 42.75 3.3 L42.65 9.15 43.55 9.5 Q44.2 9.85 44.5 10.65 L44.55 12.55 Q44.25 13.35 43.6 13.8 M42.85 10.1 L41.65 10.1 43.85 12.05 42.85 10.1 M40.75 10.9 L40.5 11.65 Q40.7 13.2 42.15 13.3 L42.65 13.2 40.75 10.9 M33.35 54.6 L33.1 55.4 Q42.4 53.9 48.75 46.85 56.75 37.95 55.55 25.9 54.45 15.35 46.45 8.2 L46.45 9.2 46.45 11.55 Q53.05 18.45 53.3 28.6 53.05 39.1 46.05 46.1 40.85 51.3 33.75 52.75 L33.35 54.6 M34.15 50.65 L34.05 51.35 Q40.4 49.85 45.1 45.15 51.7 38.55 51.95 28.6 51.75 19.75 46.45 13.6 L46.45 14.6 Q46.75 17.8 46.0 20.7 45.25 23.6 42.2 21.75 L41.45 22.0 Q39.2 22.8 38.3 20.55 L33.3 21.2 33.3 23.05 33.95 23.4 Q35.1 23.95 34.9 25.15 L34.35 26.45 32.4 27.25 32.4 29.2 33.85 30.25 33.95 31.8 32.3 32.9 Q34.1 41.75 34.15 50.65 M38.25 4.0 L38.65 3.4 Q29.1 -0.05 19.35 3.1 L19.75 3.6 20.0 4.15 Q29.1 3.05 38.25 4.0 M25.35 51.1 L25.1 48.35 Q25.25 40.65 27.35 32.9 26.65 32.65 26.2 32.25 24.7 30.8 26.4 29.55 L26.9 29.2 26.9 27.25 Q25.3 27.3 24.75 25.95 L24.5 24.95 Q24.55 24.05 25.5 23.4 L26.0 23.05 26.0 21.35 19.95 20.65 Q19.2 22.95 16.85 21.95 L16.1 21.7 Q15.1 23.2 13.3 22.4 12.1 22.0 12.05 20.75 L11.8 13.3 11.8 12.35 Q5.45 18.9 5.2 28.6 5.45 38.55 12.05 45.15 17.6 50.7 25.5 51.75 L25.35 51.1 M16.8 15.6 L16.5 20.75 17.35 21.35 Q18.95 21.55 19.0 19.95 19.1 12.15 18.85 4.35 L18.65 3.7 17.7 3.35 16.6 3.85 16.95 9.95 Q17.9 10.35 18.3 11.4 L18.35 13.15 16.85 14.9 16.8 15.6 M38.2 19.4 L38.2 5.0 Q29.6 4.0 20.9 5.1 L20.0 5.2 20.1 19.4 Q29.1 21.65 38.2 19.4 M33.5 24.4 Q33.3 23.9 32.85 23.9 L27.1 23.4 Q24.95 24.0 26.25 25.85 L26.9 26.45 32.3 26.4 Q33.3 26.4 33.55 25.55 33.7 24.95 33.5 24.4 M27.15 21.35 L27.15 22.95 32.0 22.95 32.0 21.35 27.15 21.35 M15.1 9.8 L15.65 9.7 15.35 3.25 14.95 2.65 14.2 2.25 Q12.95 2.6 12.95 4.0 L13.1 20.6 Q13.1 21.5 14.2 21.7 15.6 21.55 15.55 20.15 L15.3 15.05 Q13.7 14.6 13.35 13.25 L13.3 11.85 Q13.6 10.25 15.1 9.8 M26.35 54.95 L25.85 53.15 Q17.2 52.25 11.1 46.1 3.0 37.75 4.15 26.1 5.05 16.85 11.8 10.5 L11.8 8.1 11.8 7.3 Q2.9 14.65 1.7 25.95 0.55 37.1 7.7 45.9 15.0 54.85 26.6 55.7 L26.35 54.95 M17.25 11.6 L16.6 10.8 15.15 10.8 17.3 13.05 17.25 11.6 M14.45 11.5 L14.2 12.25 Q14.3 13.7 15.85 13.9 L16.6 13.7 14.45 11.5 M27.3 30.4 L26.75 31.15 27.3 32.2 32.6 31.95 32.8 30.9 32.4 30.15 31.05 30.2 27.3 30.4 M31.25 29.1 L31.25 27.25 28.2 27.25 28.3 29.1 31.25 29.1 M32.6 42.15 Q32.15 37.5 31.2 32.9 L28.45 32.9 27.2 39.55 Q26.25 45.2 26.95 51.0 L27.15 52.3 27.15 52.25 Q27.35 49.85 29.75 49.65 31.9 49.85 32.3 51.85 33.05 47.05 32.6 42.15 M30.7 58.1 L32.0 53.55 Q31.35 54.95 29.75 54.85 27.85 54.65 27.35 53.05 L28.65 57.7 30.7 58.1 M29.0 53.7 L29.75 53.95 Q31.9 53.5 31.2 51.5 L29.0 53.7 M29.75 50.6 Q28.25 50.75 28.1 52.25 L28.35 53.05 30.55 50.85 29.75 50.6" fill="#212753" fill-rule="evenodd" stroke="none"/>
      <path d="M40.95 2.45 L40.1 2.5 Q33.95 0.0 27.2 0.1 L29.2 0.0 Q35.6 0.15 40.95 2.45 M46.45 9.2 L46.45 8.2 Q54.45 15.35 55.55 25.9 56.75 37.95 48.75 46.85 42.4 53.9 33.1 55.4 L33.35 54.6 Q44.1 52.5 50.45 43.3 55.05 36.65 54.95 28.6 54.75 17.0 46.45 9.2 M46.45 14.6 L46.45 13.6 Q51.75 19.75 51.95 28.6 51.7 38.55 45.1 45.15 40.4 49.85 34.05 51.35 L34.15 50.65 Q40.2 49.15 44.65 44.7 51.05 38.3 51.3 28.65 51.15 20.45 46.45 14.6 M19.75 3.6 L19.35 3.1 Q29.1 -0.05 38.65 3.4 L38.25 4.0 Q33.8 2.25 28.5 2.1 23.8 2.25 19.75 3.6 M25.35 51.1 L25.5 51.75 Q17.6 50.7 12.05 45.15 5.45 38.55 5.2 28.6 5.45 18.9 11.8 12.35 L11.8 13.3 Q6.1 19.55 5.85 28.65 6.1 38.3 12.5 44.7 17.85 50.0 25.35 51.1 M26.35 54.95 L26.6 55.7 Q15.0 54.85 7.7 45.9 0.55 37.1 1.7 25.95 2.9 14.65 11.8 7.3 L11.8 8.1 Q3.55 15.15 2.3 25.9 1.25 35.3 6.7 43.25 13.85 53.8 26.35 54.95" fill="#514f6f" fill-rule="evenodd" stroke="none"/>
      <path d="M41.0 13.95 L41.65 14.2 41.6 21.05 40.05 21.3 39.5 20.75 39.45 4.1 Q39.9 3.3 40.95 3.4 L41.65 3.8 41.65 9.15 40.75 9.5 40.4 4.85 Q39.7 5.45 39.65 6.45 39.35 12.5 39.85 18.55 39.95 19.55 40.65 19.75 41.55 19.1 41.5 17.7 L41.0 13.95 M43.55 9.5 L42.65 9.15 42.75 3.3 Q42.9 2.55 43.6 2.4 44.35 2.05 44.95 2.65 L44.95 21.3 43.9 21.75 Q42.3 22.35 42.65 14.2 L43.6 13.8 44.0 20.3 44.55 12.55 44.5 10.65 44.25 4.4 43.55 4.3 43.55 9.5 M36.15 9.6 Q34.9 7.5 32.4 7.85 29.75 8.15 27.1 7.8 24.95 7.25 23.1 8.3 20.7 10.35 22.5 12.35 24.25 14.4 26.55 15.0 L31.75 15.4 Q34.7 15.25 36.3 13.5 37.3 11.55 36.15 9.6 M27.5 24.1 L27.45 24.1 Q26.9 24.25 26.9 24.5 26.85 24.85 27.9 25.35 L30.85 25.25 Q31.6 24.85 31.6 24.5 31.5 24.1 30.4 23.85 L27.5 24.1 M27.15 21.35 L32.0 21.35 32.0 22.95 27.15 22.95 27.15 21.35 M33.5 24.4 Q33.7 24.95 33.55 25.55 33.3 26.4 32.3 26.4 L26.9 26.45 26.25 25.85 Q24.95 24.0 27.1 23.4 L32.85 23.9 Q33.3 23.9 33.5 24.4 M38.2 19.4 Q29.1 21.65 20.1 19.4 L20.0 5.2 20.9 5.1 Q29.6 4.0 38.2 5.0 L38.2 19.4 M16.95 9.95 L16.6 3.85 17.7 3.35 18.65 3.7 18.85 4.35 Q19.1 12.15 19.0 19.95 18.95 21.55 17.35 21.35 L16.5 20.75 16.8 15.6 17.85 19.6 18.35 13.15 18.3 11.4 17.45 5.4 16.95 9.95 M15.3 15.05 L15.55 20.15 Q15.6 21.55 14.2 21.7 13.1 21.5 13.1 20.6 L12.95 4.0 Q12.95 2.6 14.2 2.25 L14.95 2.65 15.35 3.25 15.65 9.7 15.1 9.8 14.3 3.55 13.4 4.2 13.3 11.85 13.35 13.25 14.15 20.3 14.85 20.25 15.3 15.05 M31.05 30.2 L32.4 30.15 32.8 30.9 32.6 31.95 27.3 32.2 26.75 31.15 27.3 30.4 27.4 31.15 31.25 31.35 31.5 30.7 31.05 30.2 M31.25 29.1 L28.3 29.1 28.2 27.25 31.25 27.25 31.25 29.1 M27.9 48.35 Q29.05 49.75 30.55 48.65 32.0 47.2 31.6 44.95 31.65 41.3 30.8 37.75 30.7 36.45 29.75 35.6 28.7 35.65 28.3 38.1 27.95 40.5 27.95 41.5 26.8 45.1 27.9 48.35 M32.6 42.15 Q33.05 47.05 32.3 51.85 31.9 49.85 29.75 49.65 27.35 49.85 27.15 52.25 L27.15 52.3 26.95 51.0 Q26.25 45.2 27.2 39.55 L28.45 32.9 31.2 32.9 Q32.15 37.5 32.6 42.15 M30.7 58.1 L28.65 57.7 27.35 53.05 Q27.85 54.65 29.75 54.85 31.35 54.95 32.0 53.55 L30.7 58.1 M29.1 55.9 Q28.65 57.55 30.25 57.4 31.35 56.6 30.65 55.85 L29.1 55.9" fill="#69839d" fill-rule="evenodd" stroke="none"/>
      <path d="M40.75 9.5 Q39.65 10.3 39.65 11.65 39.6 13.25 41.0 13.95 L41.5 17.7 Q41.55 19.1 40.65 19.75 39.95 19.55 39.85 18.55 39.35 12.5 39.65 6.45 39.7 5.45 40.4 4.85 L40.75 9.5 M43.55 9.5 L43.55 4.3 44.25 4.4 44.5 10.65 Q44.2 9.85 43.55 9.5 M44.55 12.55 L44.0 20.3 43.6 13.8 Q44.25 13.35 44.55 12.55 M34.2 11.4 L33.9 10.25 26.9 9.5 Q25.3 9.3 24.4 10.6 24.5 12.95 27.0 13.65 31.6 14.85 34.2 11.4 M36.15 9.6 Q37.3 11.55 36.3 13.5 34.7 15.25 31.75 15.4 L26.55 15.0 Q24.25 14.4 22.5 12.35 20.7 10.35 23.1 8.3 24.95 7.25 27.1 7.8 29.75 8.15 32.4 7.85 34.9 7.5 36.15 9.6 M27.5 24.1 L30.4 23.85 Q31.5 24.1 31.6 24.5 31.6 24.85 30.85 25.25 L27.9 25.35 Q26.85 24.85 26.9 24.5 26.9 24.25 27.45 24.1 L27.5 24.1 M16.8 15.6 L16.85 14.9 18.35 13.15 17.85 19.6 16.8 15.6 M18.3 11.4 Q17.9 10.35 16.95 9.95 L17.45 5.4 18.3 11.4 M15.3 15.05 L14.85 20.25 14.15 20.3 13.35 13.25 Q13.7 14.6 15.3 15.05 M13.3 11.85 L13.4 4.2 14.3 3.55 15.1 9.8 Q13.6 10.25 13.3 11.85 M27.3 30.4 L31.05 30.2 31.5 30.7 31.25 31.35 27.4 31.15 27.3 30.4 M27.9 48.35 Q26.8 45.1 27.95 41.5 27.95 40.5 28.3 38.1 28.7 35.65 29.75 35.6 30.7 36.45 30.8 37.75 31.65 41.3 31.6 44.95 32.0 47.2 30.55 48.65 29.05 49.75 27.9 48.35 M29.1 55.9 L30.65 55.85 Q31.35 56.6 30.25 57.4 28.65 57.55 29.1 55.9" fill="#899db1" fill-rule="evenodd" stroke="none"/>
      <path d="M40.75 10.9 L42.65 13.2 42.15 13.3 Q40.7 13.2 40.5 11.65 L40.75 10.9 M42.85 10.1 L43.85 12.05 41.65 10.1 42.85 10.1 M14.45 11.5 L16.6 13.7 15.85 13.9 Q14.3 13.7 14.2 12.25 L14.45 11.5 M17.25 11.6 L17.3 13.05 15.15 10.8 16.6 10.8 17.25 11.6 M29.75 50.6 L30.55 50.85 28.35 53.05 28.1 52.25 Q28.25 50.75 29.75 50.6 M29.0 53.7 L31.2 51.5 Q31.9 53.5 29.75 53.95 L29.0 53.7" fill="#a1b1c1" fill-rule="evenodd" stroke="none"/>
      <path d="M33.35 54.6 L33.75 52.75 Q40.85 51.3 46.05 46.1 53.05 39.1 53.3 28.6 53.05 18.45 46.45 11.55 L46.45 9.2 Q54.75 17.0 54.95 28.6 55.05 36.65 50.45 43.3 44.1 52.5 33.35 54.6 M45.35 22.9 Q47.1 21.7 46.9 19.6 L46.55 17.25 Q49.55 22.9 49.55 29.45 49.05 40.8 38.0 44.45 L34.9 45.55 34.8 45.15 34.35 43.45 Q38.75 41.7 42.1 38.05 45.75 33.5 45.85 27.7 45.85 25.2 45.35 22.9 M38.25 4.0 Q29.1 3.05 20.0 4.15 L19.75 3.6 Q23.8 2.25 28.5 2.1 33.8 2.25 38.25 4.0 M24.25 45.1 Q24.15 46.55 24.3 47.8 17.65 47.8 13.35 43.15 8.2 37.55 7.7 29.6 7.2 22.7 11.3 17.35 L11.35 17.65 Q11.15 19.95 11.85 21.75 7.8 29.5 12.4 37.1 16.5 43.85 24.25 45.1 M11.8 8.1 L11.8 10.5 Q5.05 16.85 4.15 26.1 3.0 37.75 11.1 46.1 17.2 52.25 25.85 53.15 L26.35 54.95 Q13.85 53.8 6.7 43.25 1.25 35.3 2.3 25.9 3.55 15.15 11.8 8.1" fill="#afc1d9" fill-rule="evenodd" stroke="none"/>
      <path d="M34.15 50.65 Q34.1 41.75 32.3 32.9 L33.95 31.8 34.35 43.45 34.8 45.15 34.9 45.55 38.0 44.45 Q49.05 40.8 49.55 29.45 49.55 22.9 46.55 17.25 L46.9 19.6 Q47.1 21.7 45.35 22.9 L35.9 22.55 34.9 25.15 Q35.1 23.95 33.95 23.4 L33.3 23.05 33.3 21.2 38.3 20.55 Q39.2 22.8 41.45 22.0 L42.2 21.75 Q45.25 23.6 46.0 20.7 46.75 17.8 46.45 14.6 51.15 20.45 51.3 28.65 51.05 38.3 44.65 44.7 40.2 49.15 34.15 50.65 M33.85 30.25 L32.4 29.2 32.4 27.25 34.35 26.45 33.6 28.35 33.85 30.25 M24.25 45.1 L24.95 39.9 Q25.7 35.8 24.45 31.95 L25.5 28.35 23.3 25.55 24.45 22.3 Q22.8 22.45 21.25 23.1 17.0 25.0 12.6 23.2 L11.85 21.75 Q11.15 19.95 11.35 17.65 L11.3 17.35 Q7.2 22.7 7.7 29.6 8.2 37.55 13.35 43.15 17.65 47.8 24.3 47.8 24.15 46.55 24.25 45.1 M11.8 13.3 L12.05 20.75 Q12.1 22.0 13.3 22.4 15.1 23.2 16.1 21.7 L16.85 21.95 Q19.2 22.95 19.95 20.65 L26.0 21.35 26.0 23.05 25.5 23.4 Q24.55 24.05 24.5 24.95 L24.75 25.95 Q25.3 27.3 26.9 27.25 L26.9 29.2 26.4 29.55 Q24.7 30.8 26.2 32.25 26.65 32.65 27.35 32.9 25.25 40.65 25.1 48.35 L25.35 51.1 Q17.85 50.0 12.5 44.7 6.1 38.3 5.85 28.65 6.1 19.55 11.8 13.3" fill="#9ab4cc" fill-rule="evenodd" stroke="none"/>
      <path d="M33.95 31.8 L33.85 30.25 33.6 28.35 34.35 26.45 34.9 25.15 35.9 22.55 45.35 22.9 Q45.85 25.2 45.85 27.7 45.75 33.5 42.1 38.05 38.75 41.7 34.35 43.45 L33.95 31.8 M11.85 21.75 L12.6 23.2 Q17.0 25.0 21.25 23.1 22.8 22.45 24.45 22.3 L23.3 25.55 25.5 28.35 24.45 31.95 Q25.7 35.8 24.95 39.9 L24.25 45.1 Q16.5 43.85 12.4 37.1 7.8 29.5 11.85 21.75" fill="#c5d3e3" fill-rule="evenodd" stroke="none"/>
      <path d="M34.2 11.4 Q31.6 14.85 27.0 13.65 24.5 12.95 24.4 10.6 25.3 9.3 26.9 9.5 L33.9 10.25 34.2 11.4" fill="#a1b3bf" fill-rule="evenodd" stroke="none"/>
    </g>
    <g id="shape4" transform="matrix(1.0, 0.0, 0.0, 1.0, 0.0, 0.0)">
      <path d="M101.05 83.8 L69.85 15.1 70.85 13.0 120.15 0.55 176.0 0.0 228.25 13.55 229.45 15.1 196.35 84.15 232.05 96.9 Q253.5 110.05 266.9 128.35 L289.55 166.9 289.75 167.4 301.15 232.65 301.1 233.55 288.75 236.2 291.85 239.35 Q297.0 244.4 300.95 250.2 L301.05 250.35 283.25 272.35 256.65 262.5 256.2 261.7 258.7 253.1 256.6 250.4 263.2 240.4 253.2 241.7 244.15 213.45 245.35 223.7 246.1 271.75 245.5 273.05 244.6 273.25 147.15 273.25 54.8 272.7 54.05 272.5 53.35 271.6 54.75 208.15 Q53.35 211.6 51.2 221.35 49.05 231.05 46.25 238.05 L43.3 245.2 42.95 245.5 41.5 245.4 41.5 245.6 Q42.45 252.25 41.6 259.05 L38.35 260.35 39.85 261.8 33.75 271.15 26.5 271.35 1.2 255.15 5.75 241.75 0.8 241.2 0.0 239.7 2.8 198.35 2.9 197.9 21.75 151.55 22.05 151.15 69.25 96.45 98.35 86.55 101.6 84.95 101.05 83.8 M199.9 9.3 L177.7 4.05 167.85 3.45 167.45 4.25 162.2 5.6 171.2 6.05 171.8 6.95 171.25 7.9 168.35 8.0 Q189.05 13.6 203.55 29.75 207.6 34.15 205.85 39.95 L204.5 39.65 203.3 33.55 202.35 30.95 Q201.3 29.0 199.1 27.95 L199.25 28.55 198.85 29.35 197.75 29.35 Q186.4 18.4 170.75 17.35 165.55 16.65 162.05 12.75 151.75 17.25 140.8 14.5 138.0 13.65 137.7 10.55 131.95 10.2 126.3 11.45 120.25 12.7 114.9 15.9 L123.7 14.25 Q130.95 13.45 138.4 14.65 L138.65 15.2 138.2 16.05 Q127.3 15.15 116.9 18.3 104.95 21.85 94.15 28.35 L93.6 27.3 Q104.9 19.7 116.6 13.0 125.85 7.75 136.35 8.6 L143.85 8.45 144.0 9.3 139.65 11.0 Q143.45 13.3 147.95 13.25 156.85 13.2 165.0 10.05 L165.3 9.45 154.85 6.4 154.6 5.35 155.1 4.75 163.4 3.25 163.9 3.1 160.75 3.15 131.6 3.4 141.65 4.5 142.0 5.35 142.45 5.65 142.75 6.35 142.2 7.35 129.75 7.7 129.5 6.65 130.0 6.05 135.1 5.75 127.55 4.75 127.55 3.45 114.3 5.15 73.35 15.45 82.05 34.7 104.9 85.0 130.75 94.4 129.2 89.0 130.2 88.45 130.9 88.8 133.15 95.25 Q138.9 97.6 145.0 98.15 151.65 98.95 158.1 96.8 165.0 94.6 171.55 91.2 L175.0 89.6 179.55 78.05 180.45 78.65 177.5 88.55 192.65 82.35 193.6 82.9 216.85 34.5 225.75 16.0 199.9 9.3 M192.0 21.2 L189.85 19.5 Q179.15 12.95 167.05 9.75 L167.1 9.9 Q167.55 11.5 165.05 12.0 L164.25 12.15 Q167.3 14.7 171.15 15.2 182.2 16.3 192.0 21.2 M200.95 39.65 L201.65 40.0 Q203.15 43.5 200.25 45.55 L199.25 45.1 199.35 43.95 Q200.65 42.45 200.0 40.6 L200.0 40.25 200.95 39.65 M192.1 85.5 L163.25 97.95 167.75 113.45 179.25 111.6 193.95 86.55 192.1 85.5 M205.95 123.7 L205.3 125.05 150.1 164.85 148.7 270.25 243.1 270.25 242.35 223.9 240.2 207.85 232.4 162.45 218.25 111.95 219.3 110.1 221.15 111.15 235.3 161.65 242.6 204.25 Q250.9 220.65 255.0 238.7 L297.95 231.7 286.85 168.2 264.55 130.2 Q236.85 97.65 209.2 91.8 L208.0 114.6 196.85 118.55 Q200.95 120.5 204.9 122.75 205.5 123.05 205.95 123.7 M206.25 90.8 L196.85 87.6 156.4 156.6 201.5 124.05 191.5 119.0 191.3 118.6 191.8 117.25 205.45 112.7 206.25 90.8 M167.45 131.8 L177.3 114.95 165.75 116.0 163.6 109.95 158.5 117.95 167.45 131.8 M98.7 28.6 Q93.45 36.25 93.35 45.7 L92.85 45.85 91.95 45.45 Q90.9 35.4 97.55 27.8 L98.3 27.95 98.7 28.6 M119.85 79.25 L120.3 78.7 Q124.45 83.7 126.9 90.0 L125.7 90.75 119.85 79.25 M100.7 88.95 L129.75 115.9 135.75 99.35 103.45 87.65 100.7 88.95 M71.65 115.05 L72.35 114.15 73.5 114.05 74.65 115.5 59.3 171.8 57.35 204.75 57.85 205.6 56.35 269.7 145.7 270.25 147.1 164.05 147.3 163.35 148.8 162.1 100.3 129.15 99.85 128.4 99.85 128.05 Q103.85 123.75 109.15 120.8 L88.6 119.3 88.25 118.85 Q88.1 118.65 88.1 118.45 87.05 106.0 86.65 93.5 L71.2 98.7 24.5 152.85 5.8 198.85 3.1 238.45 41.6 242.4 44.75 233.6 Q46.35 229.2 47.55 224.7 52.95 203.95 55.25 182.7 L56.35 171.15 71.65 115.05 M97.6 89.8 L89.6 92.5 90.65 116.5 114.6 118.45 114.85 120.6 103.85 127.9 145.15 156.0 97.6 89.8 M144.9 117.25 L155.85 116.5 162.45 106.1 160.55 99.55 Q149.75 102.55 138.8 100.2 L136.45 106.4 144.9 117.25 M134.2 135.6 L151.3 159.35 165.75 134.7 155.95 119.5 143.45 120.1 142.8 119.3 142.8 118.25 142.4 118.95 135.2 109.7 131.15 119.35 107.05 99.15 134.2 135.6 M261.8 252.2 L259.1 260.25 282.75 269.05 297.65 250.1 286.05 237.7 266.6 240.85 259.95 249.95 261.8 252.2 M37.55 245.05 L8.9 242.1 4.2 253.65 27.7 268.55 32.3 268.35 36.35 262.6 34.6 261.15 34.3 260.95 33.25 260.1 Q32.75 259.7 32.7 259.1 32.6 258.5 32.95 258.0 L33.95 257.45 Q34.55 257.35 35.05 257.7 L35.6 258.15 39.1 256.85 38.85 246.95 37.55 245.05" fill="#1a1a1a" fill-rule="evenodd" stroke="none"/>
      <path d="M199.9 9.3 L225.75 16.0 216.85 34.5 Q215.8 27.75 211.8 22.2 206.5 14.9 199.9 9.3 M82.05 34.7 L73.35 15.45 114.3 5.15 Q98.05 12.15 85.7 25.1 81.85 29.1 82.05 34.7 M160.75 3.15 L163.9 3.1 163.4 3.25 160.75 3.15 M206.25 90.8 L205.45 112.7 191.8 117.25 191.3 118.6 191.5 119.0 201.5 124.05 156.4 156.6 196.85 87.6 206.25 90.8 M205.95 123.7 Q205.5 123.05 204.9 122.75 200.95 120.5 196.85 118.55 L208.0 114.6 209.2 91.8 Q236.85 97.65 264.55 130.2 L286.85 168.2 297.95 231.7 255.0 238.7 Q250.9 220.65 242.6 204.25 L235.3 161.65 221.15 111.15 219.3 110.1 218.25 111.95 232.4 162.45 240.2 207.85 242.35 223.9 243.1 270.25 148.7 270.25 150.1 164.85 205.3 125.05 205.95 123.7 M97.6 89.8 L145.15 156.0 103.85 127.9 114.85 120.6 114.6 118.45 90.65 116.5 89.6 92.5 97.6 89.8 M71.65 115.05 L56.35 171.15 55.25 182.7 Q52.95 203.95 47.55 224.7 46.35 229.2 44.75 233.6 L41.6 242.4 3.1 238.45 5.8 198.85 24.5 152.85 71.2 98.7 86.65 93.5 Q87.05 106.0 88.1 118.45 88.1 118.65 88.25 118.85 L88.6 119.3 109.15 120.8 Q103.85 123.75 99.85 128.05 L99.85 128.4 100.3 129.15 148.8 162.1 147.3 163.35 147.1 164.05 145.7 270.25 56.35 269.7 57.85 205.6 57.35 204.75 59.3 171.8 74.65 115.5 73.5 114.05 72.35 114.15 71.65 115.05" fill="#106557" fill-rule="evenodd" stroke="none"/>
      <path d="M192.0 21.2 Q182.2 16.3 171.15 15.2 167.3 14.7 164.25 12.15 L165.05 12.0 Q167.55 11.5 167.1 9.9 L167.05 9.75 Q179.15 12.95 189.85 19.5 L192.0 21.2 M192.1 85.5 L193.95 86.55 179.25 111.6 167.75 113.45 163.25 97.95 192.1 85.5 M167.45 131.8 L158.5 117.95 163.6 109.95 165.75 116.0 177.3 114.95 167.45 131.8 M100.7 88.95 L103.45 87.65 135.75 99.35 129.75 115.9 100.7 88.95 M143.45 120.1 L134.2 135.6 107.05 99.15 131.15 119.35 135.2 109.7 142.4 118.95 142.8 118.25 142.8 119.3 143.45 120.1 M37.55 245.05 L38.85 246.95 39.1 256.85 35.6 258.15 35.05 257.7 Q34.55 257.35 33.95 257.45 L32.95 258.0 Q32.6 258.5 32.7 259.1 32.75 259.7 33.25 260.1 L34.3 260.95 34.6 261.15 36.35 262.6 32.3 268.35 27.7 268.55 4.2 253.65 8.9 242.1 37.55 245.05 M261.8 252.2 L259.95 249.95 266.6 240.85 286.05 237.7 297.65 250.1 282.75 269.05 259.1 260.25 261.8 252.2" fill="#c1d9cb" fill-rule="evenodd" stroke="none"/>
      <path d="M101.05 83.8 L101.6 84.95 98.35 86.55 101.05 83.8" fill="#e9e9eb" fill-rule="evenodd" stroke="none"/>
      <path d="M144.9 117.25 L136.45 106.4 138.8 100.2 Q149.75 102.55 160.55 99.55 L162.45 106.1 155.85 116.5 144.9 117.25 M143.45 120.1 L155.95 119.5 165.75 134.7 151.3 159.35 134.2 135.6 143.45 120.1" fill="#0e4239" fill-rule="evenodd" stroke="none"/>
      <path d="M163.4 3.25 L155.1 4.75 154.6 5.35 154.85 6.4 165.3 9.45 165.0 10.05 Q156.85 13.2 147.95 13.25 143.45 13.3 139.65 11.0 L144.0 9.3 143.85 8.45 136.35 8.6 Q125.85 7.75 116.6 13.0 104.9 19.7 93.6 27.3 L94.15 28.35 Q104.95 21.85 116.9 18.3 127.3 15.15 138.2 16.05 L138.65 15.2 138.4 14.65 Q130.95 13.45 123.7 14.25 L114.9 15.9 Q120.25 12.7 126.3 11.45 131.95 10.2 137.7 10.55 138.0 13.65 140.8 14.5 151.75 17.25 162.05 12.75 165.55 16.65 170.75 17.35 186.4 18.4 197.75 29.35 L198.85 29.35 199.25 28.55 199.1 27.95 Q201.3 29.0 202.35 30.95 L203.3 33.55 204.5 39.65 205.85 39.95 Q207.6 34.15 203.55 29.75 189.05 13.6 168.35 8.0 L171.25 7.9 171.8 6.95 171.2 6.05 162.2 5.6 167.45 4.25 167.85 3.45 177.7 4.05 199.9 9.3 Q206.5 14.9 211.8 22.2 215.8 27.75 216.85 34.5 L193.6 82.9 192.65 82.35 177.5 88.55 180.45 78.65 179.55 78.05 175.0 89.6 171.55 91.2 Q165.0 94.6 158.1 96.8 151.65 98.95 145.0 98.15 138.9 97.6 133.15 95.25 L130.9 88.8 130.2 88.45 129.2 89.0 130.75 94.4 104.9 85.0 82.05 34.7 Q81.85 29.1 85.7 25.1 98.05 12.15 114.3 5.15 L127.55 3.45 127.55 4.75 135.1 5.75 130.0 6.05 129.5 6.65 129.75 7.7 142.2 7.35 142.75 6.35 142.45 5.65 142.0 5.35 141.65 4.5 131.6 3.4 160.75 3.15 163.4 3.25 M200.95 39.65 L200.0 40.25 200.0 40.6 Q200.65 42.45 199.35 43.95 L199.25 45.1 200.25 45.55 Q203.15 43.5 201.65 40.0 L200.95 39.65 M98.7 28.6 L98.3 27.95 97.55 27.8 Q90.9 35.4 91.95 45.45 L92.85 45.85 93.35 45.7 Q93.45 36.25 98.7 28.6 M119.85 79.25 L125.7 90.75 126.9 90.0 Q124.45 83.7 120.3 78.7 L119.85 79.25" fill="#e0ebe3" fill-rule="evenodd" stroke="none"/>
    </g>
    <g id="shape5" transform="matrix(1.0, 0.0, 0.0, 1.0, -0.25, -0.1)">
      <path d="M41.5 9.2 Q42.4 9.55 43.15 9.95 46.05 11.85 46.9 14.2 L47.35 15.85 47.65 17.9 47.25 18.65 44.0 19.2 38.3 19.95 37.2 18.3 37.9 23.9 45.75 25.9 Q47.7 26.7 49.5 27.85 L51.3 29.45 51.9 30.15 53.05 32.2 Q53.9 34.55 53.45 37.4 53.05 39.65 51.8 42.25 50.75 44.2 48.5 45.95 L41.3 49.9 41.5 51.65 41.65 52.55 41.55 54.25 40.85 54.55 36.85 54.55 33.35 54.55 32.45 54.35 32.1 53.1 32.0 51.75 29.9 51.65 29.95 52.0 30.05 53.35 30.25 54.95 30.05 55.55 29.7 55.8 21.15 55.75 20.85 54.7 20.85 53.9 20.8 52.15 20.8 50.7 Q14.65 48.7 10.65 43.65 L7.9 38.1 7.55 35.2 8.6 34.85 10.8 34.65 18.35 34.25 20.5 38.15 19.95 29.25 Q14.15 29.25 10.1 25.5 8.95 24.2 8.45 22.85 7.9 20.7 8.2 18.6 8.55 16.85 9.35 15.4 10.25 14.05 11.4 12.85 L14.5 10.85 17.6 9.4 17.5 8.85 17.35 8.15 17.1 6.75 17.15 4.7 17.75 4.4 24.8 4.3 25.3 5.6 25.4 6.25 25.5 7.1 27.25 6.95 27.1 6.05 27.05 5.4 26.95 4.05 31.85 2.35 33.7 2.05 35.15 2.35 35.4 3.05 35.6 5.0 35.8 6.45 35.85 7.15 35.9 7.6 38.4 8.15 Q40.1 8.6 41.5 9.2 M45.7 17.05 Q45.55 13.85 43.0 11.9 39.95 9.6 36.1 8.95 L36.85 15.25 Q38.5 16.2 39.2 17.9 L45.7 17.05 M50.5 31.85 Q50.15 30.75 49.3 29.9 44.5 25.35 38.05 25.6 L38.65 30.05 39.6 30.55 Q42.85 32.45 41.55 36.3 L39.75 38.5 41.0 47.75 45.35 45.65 Q47.2 44.6 48.4 43.0 52.3 37.95 50.5 31.85 M27.4 8.2 L25.7 8.35 26.75 14.8 28.3 14.65 27.4 8.2 M28.4 15.6 L26.8 15.75 27.6 23.3 29.5 23.7 28.4 15.6 M25.75 23.5 L23.6 5.85 19.25 5.95 20.8 20.4 21.2 26.55 Q22.1 40.45 22.3 54.4 L28.25 54.0 25.75 23.5 M33.65 3.4 L28.7 4.7 Q30.45 15.1 31.3 25.55 L32.1 34.2 33.65 52.85 39.75 52.65 33.65 3.4 M10.9 18.95 L10.85 19.95 Q10.85 20.9 11.15 21.85 13.15 27.7 19.8 27.9 L19.5 24.35 Q17.9 24.05 17.15 22.75 14.95 18.95 18.75 16.85 L17.85 10.85 Q14.85 12.2 12.8 14.55 11.15 16.4 10.9 18.95 M18.25 20.55 Q18.5 21.5 19.1 22.15 L18.9 18.45 Q17.95 19.3 18.25 20.55 M17.1 36.0 L9.45 36.65 9.8 37.65 Q13.15 45.05 20.75 48.3 L20.55 39.4 Q18.1 38.3 17.1 36.0 M38.85 31.85 L39.5 36.6 Q40.7 34.95 39.5 32.5 L38.85 31.85 M27.8 25.4 L28.1 28.4 30.2 28.6 29.75 25.5 27.8 25.4 M30.35 29.8 L28.2 29.6 29.05 39.75 31.25 39.65 30.35 29.8 M31.35 40.85 L29.15 40.95 29.75 49.8 31.9 49.75 31.35 40.85" fill="#005d51" fill-rule="evenodd" stroke="none"/>
      <path d="M46.9 14.2 Q46.05 11.85 43.15 9.95 42.4 9.55 41.5 9.2 38.85 7.4 35.8 6.45 L35.6 5.0 Q41.65 6.85 46.0 11.25 54.5 20.05 53.05 32.2 L51.9 30.15 51.95 28.7 Q51.75 20.2 46.9 14.2 M35.15 2.35 L33.7 2.05 Q21.3 -0.05 11.55 7.85 2.85 14.9 1.65 25.95 0.9 32.85 3.65 39.2 8.8 50.9 20.85 54.7 L21.15 55.75 29.7 55.8 Q33.45 55.6 36.85 54.55 L40.85 54.55 Q35.35 57.15 28.6 57.3 16.45 56.95 8.4 48.9 4.75 45.25 2.7 40.85 1.25 37.7 0.65 34.15 -0.1 29.5 0.5 24.9 1.2 19.5 3.95 14.75 6.75 10.0 10.95 6.65 14.95 3.5 19.8 1.7 24.05 0.1 28.6 0.1 40.7 0.4 48.8 8.5 56.9 16.55 57.2 28.7 56.85 40.8 48.8 48.9 45.5 52.2 41.55 54.25 L41.65 52.55 Q44.95 50.7 47.8 47.9 55.45 40.2 55.75 28.7 55.45 17.15 47.8 9.5 42.45 4.1 35.15 2.35 M26.95 4.05 L27.05 5.4 25.3 5.6 24.8 4.3 26.95 4.05 M17.1 6.75 L17.35 8.15 11.4 12.85 Q10.25 14.05 9.35 15.4 5.4 21.05 5.2 28.7 5.4 37.45 10.65 43.65 14.65 48.7 20.8 50.7 L20.8 52.15 Q15.35 50.4 11.1 46.15 4.1 39.15 3.85 28.7 4.1 18.2 11.1 11.2 13.8 8.45 17.1 6.75 M30.05 53.35 L29.95 52.0 32.0 51.75 32.1 53.1 30.05 53.35" fill="#006868" fill-rule="evenodd" stroke="none"/>
      <path d="M40.65 12.0 L42.45 12.1 43.6 13.4 Q44.15 15.45 42.2 16.35 41.3 16.6 40.6 16.35 L40.45 16.3 40.4 16.25 Q39.7 15.85 39.25 14.95 38.7 12.9 40.65 12.0 M41.6 15.7 L41.95 15.6 Q43.65 14.75 42.45 13.1 L41.6 15.7 M41.65 12.75 L40.95 12.8 Q39.7 13.35 40.05 14.7 L40.45 15.3 41.65 12.75 M46.05 37.3 Q48.15 37.85 48.0 39.95 47.45 42.05 45.3 41.9 44.3 41.65 43.85 41.05 L43.8 41.0 43.75 40.9 Q43.3 40.25 43.4 39.2 43.95 37.1 46.05 37.3 M44.8 40.8 L45.45 41.05 Q47.4 41.15 47.1 39.15 L44.8 40.8 M46.65 38.45 L45.95 38.1 Q44.6 38.0 44.2 39.35 L44.3 40.15 46.65 38.45 M13.5 18.1 L12.75 18.1 14.15 20.6 14.5 19.95 Q14.75 18.6 13.5 18.1 M10.85 19.95 L10.9 18.95 Q11.55 17.0 13.6 17.25 15.35 17.7 15.4 19.55 15.45 21.1 14.0 21.75 L12.3 21.65 Q11.15 21.15 10.85 19.95 M12.65 20.95 L13.35 21.0 12.0 18.55 11.65 19.1 Q11.4 20.45 12.65 20.95 M17.55 42.65 L17.85 42.0 15.0 42.3 15.45 42.9 Q16.6 43.65 17.55 42.65 M17.3 40.6 Q16.2 39.8 15.2 40.8 L14.9 41.45 17.75 41.15 17.3 40.6 M18.75 41.5 L18.5 42.45 Q17.95 44.1 16.25 44.15 L15.8 44.0 Q13.3 42.75 14.55 40.25 L15.4 39.85 Q17.95 38.9 18.75 41.5" fill="#0f6f61" fill-rule="evenodd" stroke="none"/>
      <path d="M40.65 12.0 Q38.7 12.9 39.25 14.95 39.7 15.85 40.4 16.25 L40.45 16.3 40.6 16.35 Q41.3 16.6 42.2 16.35 44.15 15.45 43.6 13.4 L42.45 12.1 40.65 12.0 M45.7 17.05 L39.2 17.9 Q38.5 16.2 36.85 15.25 L36.1 8.95 Q39.95 9.6 43.0 11.9 45.55 13.85 45.7 17.05 M50.5 31.85 Q52.3 37.95 48.4 43.0 47.2 44.6 45.35 45.65 L41.0 47.75 39.75 38.5 41.55 36.3 Q42.85 32.45 39.6 30.55 L38.65 30.05 38.05 25.6 Q44.5 25.35 49.3 29.9 50.15 30.75 50.5 31.85 M46.05 37.3 Q43.95 37.1 43.4 39.2 43.3 40.25 43.75 40.9 L43.8 41.0 43.85 41.05 Q44.3 41.65 45.3 41.9 47.45 42.05 48.0 39.95 48.15 37.85 46.05 37.3 M32.9 7.7 L31.15 6.85 Q30.6 9.15 30.85 11.4 L31.8 18.75 Q33.9 33.8 34.4 48.9 34.45 50.1 35.5 51.1 L37.15 50.9 Q37.65 50.05 37.55 48.95 L36.95 43.5 36.1 33.95 Q35.3 20.6 32.9 7.7 M27.4 8.2 L28.3 14.65 26.75 14.8 25.7 8.35 27.4 8.2 M24.25 24.5 Q24.2 18.9 23.7 13.7 23.2 8.5 22.1 8.2 20.85 8.6 21.15 13.7 21.45 18.8 22.2 24.2 L23.1 31.05 Q23.5 40.1 23.8 43.3 23.3 47.7 24.9 51.6 26.25 50.8 26.15 48.65 L25.8 45.15 Q24.55 38.45 24.3 31.65 L24.25 24.5 M33.65 3.4 L39.75 52.65 33.65 52.85 32.1 34.2 31.3 25.55 Q30.45 15.1 28.7 4.7 L33.65 3.4 M25.75 23.5 L28.25 54.0 22.3 54.4 Q22.1 40.45 21.2 26.55 L20.8 20.4 19.25 5.95 23.6 5.85 25.75 23.5 M10.85 19.95 Q11.15 21.15 12.3 21.65 L14.0 21.75 Q15.45 21.1 15.4 19.55 15.35 17.7 13.6 17.25 11.55 17.0 10.9 18.95 11.15 16.4 12.8 14.55 14.85 12.2 17.85 10.85 L18.75 16.85 Q14.95 18.95 17.15 22.75 17.9 24.05 19.5 24.35 L19.8 27.9 Q13.15 27.7 11.15 21.85 10.85 20.9 10.85 19.95 M18.75 41.5 Q17.95 38.9 15.4 39.85 L14.55 40.25 Q13.3 42.75 15.8 44.0 L16.25 44.15 Q17.95 44.1 18.5 42.45 L18.75 41.5 M17.1 36.0 Q18.1 38.3 20.55 39.4 L20.75 48.3 Q13.15 45.05 9.8 37.65 L9.45 36.65 17.1 36.0 M27.8 25.4 L29.75 25.5 30.2 28.6 28.1 28.4 27.8 25.4 M31.35 40.85 L31.9 49.75 29.75 49.8 29.15 40.95 31.35 40.85" fill="#85ab93" fill-rule="evenodd" stroke="none"/>
      <path d="M38.4 8.15 L35.9 7.6 35.85 7.15 38.4 8.15 M27.1 6.05 L27.25 6.95 25.5 7.1 25.4 6.25 27.1 6.05 M17.5 8.85 L17.6 9.4 14.5 10.85 Q15.9 9.7 17.5 8.85 M8.2 18.6 Q7.9 20.7 8.45 22.85 7.45 26.0 7.7 29.6 7.85 32.35 8.6 34.85 L7.55 35.2 7.9 38.1 Q6.0 33.85 5.85 28.7 6.0 23.1 8.2 18.6 M51.3 29.45 L49.5 27.85 Q49.25 23.0 47.25 18.65 L47.65 17.9 47.35 15.85 Q51.15 21.35 51.3 28.7 L51.3 29.45" fill="#85b599" fill-rule="evenodd" stroke="none"/>
      <path d="M41.5 9.2 Q40.1 8.6 38.4 8.15 L35.85 7.15 35.8 6.45 Q38.85 7.4 41.5 9.2 M35.4 3.05 L35.15 2.35 Q42.45 4.1 47.8 9.5 55.45 17.15 55.75 28.7 55.45 40.2 47.8 47.9 44.95 50.7 41.65 52.55 L41.5 51.65 Q44.6 49.9 47.2 47.3 L48.5 45.95 Q50.75 44.2 51.8 42.25 53.05 39.65 53.45 37.4 54.8 33.35 54.95 28.6 54.65 17.35 47.2 9.9 42.15 4.85 35.4 3.05 M33.7 2.05 L31.85 2.35 28.5 2.1 Q22.6 2.25 17.75 4.4 L17.15 4.7 Q6.8 9.85 3.35 20.8 0.5 29.95 4.3 38.8 9.25 50.2 20.85 53.9 L20.85 54.7 Q8.8 50.9 3.65 39.2 0.9 32.85 1.65 25.95 2.85 14.9 11.55 7.85 21.3 -0.05 33.7 2.05 M27.05 5.4 L27.1 6.05 25.4 6.25 25.3 5.6 27.05 5.4 M17.35 8.15 L17.5 8.85 Q15.9 9.7 14.5 10.85 L11.4 12.85 17.35 8.15 M9.35 15.4 Q8.55 16.85 8.2 18.6 6.0 23.1 5.85 28.7 6.0 33.85 7.9 38.1 L10.65 43.65 Q5.4 37.45 5.2 28.7 5.4 21.05 9.35 15.4 M29.7 55.8 L30.05 55.55 30.25 54.95 33.35 54.55 36.85 54.55 Q33.45 55.6 29.7 55.8 M29.95 52.0 L29.9 51.65 32.0 51.75 29.95 52.0 M51.9 30.15 L51.3 29.45 51.3 28.7 Q51.15 21.35 47.35 15.85 L46.9 14.2 Q51.75 20.2 51.95 28.7 L51.9 30.15" fill="#085854" fill-rule="evenodd" stroke="none"/>
      <path d="M41.65 12.75 L40.45 15.3 40.05 14.7 Q39.7 13.35 40.95 12.8 L41.65 12.75 M41.6 15.7 L42.45 13.1 Q43.65 14.75 41.95 15.6 L41.6 15.7 M46.65 38.45 L44.3 40.15 44.2 39.35 Q44.6 38.0 45.95 38.1 L46.65 38.45 M44.8 40.8 L47.1 39.15 Q47.4 41.15 45.45 41.05 L44.8 40.8 M13.5 18.1 Q14.75 18.6 14.5 19.95 L14.15 20.6 12.75 18.1 13.5 18.1 M12.65 20.95 Q11.4 20.45 11.65 19.1 L12.0 18.55 13.35 21.0 12.65 20.95 M17.3 40.6 L17.75 41.15 14.9 41.45 15.2 40.8 Q16.2 39.8 17.3 40.6 M17.55 42.65 Q16.6 43.65 15.45 42.9 L15.0 42.3 17.85 42.0 17.55 42.65" fill="#a0beac" fill-rule="evenodd" stroke="none"/>
      <path d="M35.6 5.0 L35.4 3.05 Q42.15 4.85 47.2 9.9 54.65 17.35 54.95 28.6 54.8 33.35 53.45 37.4 53.9 34.55 53.05 32.2 54.5 20.05 46.0 11.25 41.65 6.85 35.6 5.0 M31.85 2.35 L26.95 4.05 24.8 4.3 17.75 4.4 Q22.6 2.25 28.5 2.1 L31.85 2.35 M17.15 4.7 L17.1 6.75 Q13.8 8.45 11.1 11.2 4.1 18.2 3.85 28.7 4.1 39.15 11.1 46.15 15.35 50.4 20.8 52.15 L20.85 53.9 Q9.25 50.2 4.3 38.8 0.5 29.95 3.35 20.8 6.8 9.85 17.15 4.7 M8.45 22.85 Q8.95 24.2 10.1 25.5 8.85 29.75 10.65 34.3 L10.8 34.65 8.6 34.85 Q7.85 32.35 7.7 29.6 7.45 26.0 8.45 22.85 M30.25 54.95 L30.05 53.35 32.1 53.1 32.45 54.35 33.35 54.55 30.25 54.95 M41.5 51.65 L41.3 49.9 48.5 45.95 47.2 47.3 Q44.6 49.9 41.5 51.65 M49.5 27.85 Q47.7 26.7 45.75 25.9 45.45 22.35 44.0 19.2 L47.25 18.65 Q49.25 23.0 49.5 27.85" fill="#98bea8" fill-rule="evenodd" stroke="none"/>
      <path d="M10.1 25.5 Q14.15 29.25 19.95 29.25 L20.5 38.15 18.35 34.25 10.8 34.65 10.65 34.3 Q8.85 29.75 10.1 25.5 M45.75 25.9 L37.9 23.9 37.2 18.3 38.3 19.95 44.0 19.2 Q45.45 22.35 45.75 25.9 M28.4 15.6 L29.5 23.7 27.6 23.3 26.8 15.75 28.4 15.6 M18.25 20.55 Q17.95 19.3 18.9 18.45 L19.1 22.15 Q18.5 21.5 18.25 20.55 M38.85 31.85 L39.5 32.5 Q40.7 34.95 39.5 36.6 L38.85 31.85 M30.35 29.8 L31.25 39.65 29.05 39.75 28.2 29.6 30.35 29.8" fill="#c1d9cb" fill-rule="evenodd" stroke="none"/>
      <path d="M32.9 7.7 Q35.3 20.6 36.1 33.95 L36.95 43.5 37.55 48.95 Q37.65 50.05 37.15 50.9 L35.5 51.1 Q34.45 50.1 34.4 48.9 33.9 33.8 31.8 18.75 L30.85 11.4 Q30.6 9.15 31.15 6.85 L32.9 7.7 M24.25 24.5 L24.3 31.65 Q24.55 38.45 25.8 45.15 L26.15 48.65 Q26.25 50.8 24.9 51.6 23.3 47.7 23.8 43.3 23.5 40.1 23.1 31.05 L22.2 24.2 Q21.45 18.8 21.15 13.7 20.85 8.6 22.1 8.2 23.2 8.5 23.7 13.7 24.2 18.9 24.25 24.5" fill="#689878" fill-rule="evenodd" stroke="none"/>
    </g>
    <g id="shape6" transform="matrix(1.0, 0.0, 0.0, 1.0, 0.0, 0.0)">
      <path d="M191.35 171.65 L186.25 133.2 144.6 200.65 Q147.25 207.0 150.35 222.6 152.6 233.8 153.5 234.75 L153.4 235.2 160.2 224.3 Q169.05 223.15 175.15 229.45 L176.45 230.8 181.7 236.65 186.25 217.7 191.35 171.65 M173.1 252.85 L165.95 258.65 149.55 242.4 151.75 237.95 142.35 203.05 135.6 211.45 142.55 260.3 142.2 261.45 141.05 262.0 55.7 262.3 54.65 261.95 54.2 260.7 58.2 213.45 45.65 200.85 40.8 234.35 42.8 235.9 42.85 236.75 41.05 242.5 42.85 244.9 Q44.05 246.65 43.7 248.6 L26.1 260.6 5.4 241.8 7.5 238.5 2.45 219.2 0.0 175.85 7.35 131.05 8.05 130.05 67.55 94.1 67.7 93.1 Q62.85 83.7 60.45 73.55 59.7 70.3 60.9 66.65 L62.3 62.95 63.85 59.3 57.3 58.75 56.85 58.4 56.7 56.75 87.75 0.4 88.0 0.05 117.45 0.0 117.75 0.45 146.6 60.5 146.5 62.3 134.7 62.65 142.15 78.35 130.9 93.65 133.0 95.4 188.55 128.25 194.35 171.5 189.2 218.25 184.15 239.45 184.9 240.45 184.9 241.35 176.55 249.65 173.1 252.85 M123.4 48.05 Q126.25 46.9 128.15 44.65 L128.9 43.6 126.3 41.7 127.05 40.5 Q123.95 37.75 119.6 38.6 L119.25 38.65 118.85 38.0 119.0 37.25 Q127.45 34.85 131.15 43.05 129.7 48.65 123.8 49.4 L123.4 48.05 M88.35 5.55 L60.5 56.1 65.85 56.4 66.05 55.05 71.2 54.6 71.9 53.55 69.3 48.1 70.0 47.2 70.6 47.05 74.55 52.1 Q85.05 50.2 93.8 43.95 L94.05 43.9 95.65 45.2 Q98.15 47.25 97.65 50.25 97.4 51.6 96.8 52.2 L96.15 53.25 95.8 53.0 Q98.05 48.4 94.1 45.35 92.55 46.25 90.95 47.1 L91.6 52.7 92.0 58.2 Q92.8 74.8 88.3 90.8 87.95 91.95 86.65 92.35 L84.5 92.9 Q76.7 82.15 64.75 75.95 L61.25 74.25 71.6 93.35 91.05 102.75 91.45 104.0 98.0 150.3 101.85 103.1 127.7 92.9 137.9 79.4 Q125.95 79.55 118.05 88.55 L116.15 90.9 115.2 90.9 114.7 90.25 Q117.5 74.0 125.65 59.7 L130.25 51.75 130.95 52.6 128.3 58.45 Q129.5 56.7 131.4 55.8 133.05 54.95 134.45 56.05 L135.25 56.7 133.9 58.3 132.95 57.75 132.8 57.0 Q121.95 66.0 118.7 80.4 L117.15 86.8 Q124.5 78.2 135.9 77.45 L138.65 77.5 131.15 60.6 142.9 59.65 132.35 37.7 131.05 38.75 118.85 27.45 Q125.5 28.3 129.95 33.7 L131.05 35.05 117.0 5.8 115.45 2.6 89.95 2.6 88.35 5.55 M91.7 35.95 L91.8 37.0 91.05 37.75 Q84.2 35.45 79.35 41.75 L78.05 43.1 77.0 42.9 76.65 42.2 Q81.35 34.15 90.05 35.3 L91.8 32.8 93.0 33.55 91.7 35.95 M81.1 20.8 Q82.1 16.85 85.7 16.4 91.75 20.75 93.85 27.8 L92.6 28.95 Q88.25 24.9 85.3 19.55 L84.7 20.7 Q83.7 22.35 81.85 21.95 L81.1 20.8 M89.75 68.95 L83.25 72.4 Q80.1 74.0 71.05 74.45 79.6 73.8 83.05 71.85 86.65 69.85 89.6 67.0 L89.05 48.45 Q78.5 62.25 65.25 73.45 66.95 74.05 66.45 74.0 L65.0 73.85 Q78.4 81.45 85.3 90.8 87.1 90.15 87.7 88.15 90.5 78.5 89.75 68.95 M129.75 96.4 L128.5 95.8 105.9 103.5 120.6 126.2 129.75 96.4 M78.75 53.3 L74.9 54.05 Q73.65 58.25 70.05 57.45 L67.25 57.1 67.55 58.05 61.9 72.3 Q63.4 72.75 64.65 71.6 75.0 62.45 83.75 51.55 L78.75 53.3 M143.35 135.95 L143.2 136.85 111.2 162.55 82.8 193.4 80.05 259.25 139.35 259.0 132.55 211.2 142.3 198.75 185.1 129.4 160.7 115.1 159.75 125.65 134.7 128.65 143.35 135.95 M157.55 122.9 L157.75 113.35 132.25 98.4 121.75 130.85 121.4 131.1 116.5 125.4 100.05 161.25 88.7 182.55 109.25 160.25 139.45 136.0 Q134.15 132.3 129.85 127.6 L129.6 127.1 129.55 126.8 129.85 126.45 157.55 122.9 M9.55 136.2 L3.0 175.8 5.45 218.9 9.8 235.6 Q13.3 231.1 17.9 228.7 25.0 225.1 32.75 229.45 L35.45 230.9 38.05 232.5 43.05 198.1 27.95 177.15 9.55 136.2 M49.65 131.9 L49.2 130.55 Q53.7 127.7 58.95 126.6 L37.05 125.1 34.85 117.35 10.9 131.8 30.5 175.55 Q46.4 194.1 61.25 213.05 L57.35 259.3 77.05 259.25 79.7 192.8 92.0 169.95 83.25 160.9 49.65 131.9 M68.5 126.0 L53.6 131.4 85.2 158.65 93.5 167.15 96.35 161.85 79.55 121.55 73.9 128.7 72.7 127.9 68.0 97.3 37.55 115.7 38.85 122.3 68.1 124.8 68.5 126.0 M74.75 123.3 L87.9 103.95 70.9 96.35 74.75 123.3 M114.55 122.35 L104.55 107.0 100.85 152.25 114.55 122.35 M89.0 107.75 L81.55 118.65 95.1 151.15 89.0 107.75 M17.95 230.6 L8.95 241.5 26.55 257.35 40.65 247.45 39.15 245.1 37.35 246.45 36.75 246.65 31.4 245.65 26.0 244.55 25.4 246.5 25.05 246.85 24.0 247.2 Q22.65 246.85 22.65 245.45 22.6 240.65 25.05 237.4 25.3 237.05 25.75 237.3 28.4 238.4 26.55 241.6 L36.5 243.55 39.55 237.15 26.85 228.55 17.95 230.6 M161.55 227.2 L154.9 236.3 154.75 237.75 159.9 242.15 162.6 241.5 162.05 240.2 162.6 239.15 163.7 238.8 164.7 239.35 168.2 244.8 167.0 245.55 164.75 244.05 Q158.35 245.15 153.6 240.65 L152.75 242.0 166.3 255.05 181.55 241.0 169.9 227.7 161.55 227.2" fill="#1a1a1a" fill-rule="evenodd" stroke="none"/>
      <path d="M191.35 171.65 L186.25 217.7 181.7 236.65 176.45 230.8 175.15 229.45 Q169.05 223.15 160.2 224.3 L153.4 235.2 153.5 234.75 Q152.6 233.8 150.35 222.6 147.25 207.0 144.6 200.65 L186.25 133.2 191.35 171.65 M68.5 126.0 L68.1 124.8 38.85 122.3 37.55 115.7 68.0 97.3 72.7 127.9 73.9 128.7 79.55 121.55 96.35 161.85 93.5 167.15 85.2 158.65 53.6 131.4 68.5 126.0 M49.65 131.9 L83.25 160.9 92.0 169.95 79.7 192.8 77.05 259.25 57.35 259.3 61.25 213.05 Q46.4 194.1 30.5 175.55 L10.9 131.8 34.85 117.35 37.05 125.1 58.95 126.6 Q53.7 127.7 49.2 130.55 L49.65 131.9 M9.55 136.2 L27.95 177.15 43.05 198.1 38.05 232.5 35.45 230.9 32.75 229.45 Q25.0 225.1 17.9 228.7 13.3 231.1 9.8 235.6 L5.45 218.9 3.0 175.8 9.55 136.2 M157.55 122.9 L129.85 126.45 129.55 126.8 129.6 127.1 129.85 127.6 Q134.15 132.3 139.45 136.0 L109.25 160.25 88.7 182.55 100.05 161.25 116.5 125.4 121.4 131.1 121.75 130.85 132.25 98.4 157.75 113.35 157.55 122.9 M143.35 135.95 L134.7 128.65 159.75 125.65 160.7 115.1 185.1 129.4 142.3 198.75 132.55 211.2 139.35 259.0 80.05 259.25 82.8 193.4 111.2 162.55 143.2 136.85 143.35 135.95" fill="#8d254e" fill-rule="evenodd" stroke="none"/>
      <path d="M123.4 48.05 L123.8 49.4 Q129.7 48.65 131.15 43.05 127.45 34.85 119.0 37.25 L118.85 38.0 119.25 38.65 119.6 38.6 Q123.95 37.75 127.05 40.5 L126.3 41.7 128.9 43.6 128.15 44.65 Q126.25 46.9 123.4 48.05 M117.0 5.8 L131.05 35.05 129.95 33.7 Q125.5 28.3 118.85 27.45 L131.05 38.75 132.35 37.7 142.9 59.65 131.15 60.6 138.65 77.5 135.9 77.45 Q124.5 78.2 117.15 86.8 L118.7 80.4 Q121.95 66.0 132.8 57.0 L132.95 57.75 133.9 58.3 135.25 56.7 134.45 56.05 Q133.05 54.95 131.4 55.8 129.5 56.7 128.3 58.45 L130.95 52.6 130.25 51.75 125.65 59.7 Q117.5 74.0 114.7 90.25 L115.2 90.9 116.15 90.9 118.05 88.55 Q125.95 79.55 137.9 79.4 L127.7 92.9 101.85 103.1 98.0 150.3 91.45 104.0 91.05 102.75 71.6 93.35 61.25 74.25 64.75 75.95 Q76.7 82.15 84.5 92.9 L86.65 92.35 Q87.95 91.95 88.3 90.8 92.8 74.8 92.0 58.2 L91.6 52.7 90.95 47.1 Q92.55 46.25 94.1 45.35 98.05 48.4 95.8 53.0 L96.15 53.25 96.8 52.2 Q97.4 51.6 97.65 50.25 98.15 47.25 95.65 45.2 L94.05 43.9 93.8 43.95 Q85.05 50.2 74.55 52.1 L70.6 47.05 70.0 47.2 69.3 48.1 71.9 53.55 71.2 54.6 66.05 55.05 65.85 56.4 60.5 56.1 88.35 5.55 91.4 5.2 Q96.5 4.85 103.5 15.45 103.45 15.05 104.95 11.15 106.45 7.25 109.95 5.05 112.65 3.3 117.0 5.8 M81.1 20.8 L81.85 21.95 Q83.7 22.35 84.7 20.7 L85.3 19.55 Q88.25 24.9 92.6 28.95 L93.85 27.8 Q91.75 20.75 85.7 16.4 82.1 16.85 81.1 20.8 M91.7 35.95 L93.0 33.55 91.8 32.8 90.05 35.3 Q81.35 34.15 76.65 42.2 L77.0 42.9 78.05 43.1 79.35 41.75 Q84.2 35.45 91.05 37.75 L91.8 37.0 91.7 35.95 M78.75 53.3 L83.75 51.55 Q75.0 62.45 64.65 71.6 63.4 72.75 61.9 72.3 L67.55 58.05 67.25 57.1 70.05 57.45 Q73.65 58.25 74.9 54.05 L78.75 53.3" fill="#efcfcf" fill-rule="evenodd" stroke="none"/>
      <path d="M117.0 5.8 Q112.65 3.3 109.95 5.05 106.45 7.25 104.95 11.15 103.45 15.05 103.5 15.45 96.5 4.85 91.4 5.2 L88.35 5.55 89.95 2.6 115.45 2.6 117.0 5.8" fill="#672c2c" fill-rule="evenodd" stroke="none"/>
      <path d="M129.75 96.4 L120.6 126.2 105.9 103.5 128.5 95.8 129.75 96.4 M89.0 107.75 L95.1 151.15 81.55 118.65 89.0 107.75 M114.55 122.35 L100.85 152.25 104.55 107.0 114.55 122.35 M74.75 123.3 L70.9 96.35 87.9 103.95 74.75 123.3" fill="#ffe1e9" fill-rule="evenodd" stroke="none"/>
      <path d="M161.55 227.2 L169.9 227.7 181.55 241.0 166.3 255.05 152.75 242.0 153.6 240.65 Q158.35 245.15 164.75 244.05 L167.0 245.55 168.2 244.8 164.7 239.35 163.7 238.8 162.6 239.15 162.05 240.2 162.6 241.5 159.9 242.15 154.75 237.75 154.9 236.3 161.55 227.2 M17.95 230.6 L26.85 228.55 39.55 237.15 36.5 243.55 26.55 241.6 Q28.4 238.4 25.75 237.3 25.3 237.05 25.05 237.4 22.6 240.65 22.65 245.45 22.65 246.85 24.0 247.2 L25.05 246.85 25.4 246.5 26.0 244.55 31.4 245.65 36.75 246.65 37.35 246.45 39.15 245.1 40.65 247.45 26.55 257.35 8.95 241.5 17.95 230.6" fill="#e3aed5" fill-rule="evenodd" stroke="none"/>
      <path d="M173.1 252.85 L176.55 249.65 Q176.05 250.7 175.15 251.55 L173.1 252.85" fill="#bab9ba" fill-rule="evenodd" stroke="none"/>
      <path d="M89.75 68.95 Q90.5 78.5 87.7 88.15 87.1 90.15 85.3 90.8 78.4 81.45 65.0 73.85 L66.45 74.0 Q66.95 74.05 65.25 73.45 78.5 62.25 89.05 48.45 L89.6 67.0 Q86.65 69.85 83.05 71.85 79.6 73.8 71.05 74.45 80.1 74.0 83.25 72.4 L89.75 68.95" fill="#ffffff" fill-rule="evenodd" stroke="none"/>
    </g>
    <g id="shape7" transform="matrix(1.0, 0.0, 0.0, 1.0, -0.1, 0.0)">
      <path d="M44.15 4.15 Q48.25 3.4 52.05 4.8 L52.4 5.0 52.3 11.35 52.25 12.55 Q56.95 19.4 57.2 28.65 56.95 39.1 50.85 46.55 L50.85 48.45 50.25 54.2 Q46.95 55.8 43.1 54.6 L42.4 54.05 42.25 53.8 Q36.25 57.05 28.6 57.25 20.95 57.05 14.95 53.75 L14.75 54.3 14.4 54.75 8.05 54.95 Q6.45 53.25 6.75 50.75 L6.9 47.7 6.85 47.2 Q3.0 42.7 1.3 37.15 -0.8 29.9 0.85 22.5 2.4 15.75 6.8 10.6 15.0 0.95 27.95 0.05 L28.3 0.05 28.6 0.05 Q37.0 0.25 43.5 4.2 L44.15 4.15 M50.75 10.0 L51.2 5.6 42.35 5.6 Q42.7 27.1 43.4 48.6 43.45 50.9 43.95 52.95 L47.55 53.2 49.45 52.9 Q49.55 33.1 50.45 13.35 L50.75 10.0 M40.95 5.25 Q41.05 4.75 41.2 4.9 L41.4 4.8 Q35.75 1.65 28.6 1.45 17.05 1.75 9.4 9.45 1.7 17.1 1.4 28.65 1.65 37.85 6.6 44.65 L6.5 43.3 6.35 41.05 6.05 39.7 Q1.4 28.1 7.05 17.05 11.65 8.15 21.3 5.15 31.5 2.15 40.85 7.15 L40.95 5.25 M45.1 11.4 L45.35 12.2 47.45 10.1 46.65 9.85 Q45.25 10.0 45.1 11.4 M40.8 9.45 L40.8 8.75 Q35.55 5.45 28.65 5.3 18.7 5.6 12.0 12.3 5.3 19.0 5.05 28.9 5.2 33.9 6.95 38.05 L7.95 37.8 14.45 37.8 15.3 38.55 15.05 47.8 17.35 48.85 17.4 46.3 17.4 42.55 16.8 27.7 17.8 27.05 Q22.25 25.8 26.4 27.25 L26.7 27.55 26.7 51.5 26.7 51.95 29.25 52.05 29.25 51.35 29.25 47.1 29.3 44.85 28.85 16.2 30.2 15.55 38.9 15.85 38.7 49.4 38.7 49.8 41.85 47.95 41.85 47.1 41.95 42.75 41.95 38.3 41.0 14.95 40.85 11.15 40.8 9.45 M44.55 12.65 Q44.5 11.25 45.1 10.1 45.7 8.9 46.6 8.8 47.5 8.7 48.2 9.75 48.9 10.75 48.95 12.35 48.4 13.7 46.65 13.9 45.1 13.75 44.55 12.65 M48.3 45.2 L48.65 46.05 Q49.15 47.55 48.1 48.55 L46.3 49.2 Q44.8 49.15 44.1 47.55 43.75 46.05 44.6 45.2 L45.65 44.45 Q47.35 44.0 48.3 45.2 M46.3 12.95 L46.65 13.0 Q48.75 12.6 48.05 10.7 L46.3 12.95 M50.85 42.75 L50.85 44.4 Q55.35 38.0 55.55 29.2 55.4 21.65 52.1 15.6 L52.05 16.5 Q51.5 20.6 52.6 24.4 53.15 26.45 53.2 28.65 53.35 33.65 51.5 38.1 50.6 40.15 50.85 42.75 M51.15 34.95 Q51.9 31.85 51.85 28.65 L51.65 24.65 51.15 34.95 M44.9 46.45 L44.9 47.25 Q45.45 48.6 46.85 48.1 L47.6 47.8 44.9 46.45 M47.9 46.25 Q47.35 44.95 45.9 45.3 45.55 45.45 45.3 45.7 L47.95 47.0 47.9 46.25 M38.0 18.15 L38.1 16.8 29.9 16.9 31.25 53.15 37.5 53.45 37.55 53.2 Q36.9 35.65 38.0 18.15 M35.4 21.6 L35.0 20.95 32.75 21.0 32.45 21.65 35.4 21.6 M32.05 23.7 Q30.8 22.05 32.1 20.4 L32.25 20.3 Q33.9 18.95 35.6 20.25 L35.8 20.5 Q37.0 22.1 35.7 23.75 L35.55 23.9 Q33.9 25.2 32.2 23.85 L32.05 23.7 M35.4 48.0 Q37.9 50.5 35.05 52.15 L32.75 52.05 Q31.1 50.6 32.2 48.6 33.2 47.3 35.0 47.8 L35.4 48.0 M32.4 22.2 L32.8 22.85 35.05 22.8 35.35 22.15 32.4 22.2 M20.1 34.85 Q19.2 34.05 19.3 32.95 19.55 30.6 21.75 30.6 23.45 30.5 23.95 32.0 24.55 33.8 23.2 34.9 L20.1 34.85 M23.55 48.15 Q24.4 48.75 24.5 49.6 24.85 52.4 22.1 52.65 21.25 52.3 20.65 51.7 18.85 49.95 20.8 48.1 L23.55 48.15 M9.4 44.7 L9.2 45.45 Q9.35 46.9 10.75 47.05 L11.55 46.85 9.4 44.7 M9.05 47.25 L8.8 46.95 Q7.8 45.3 9.05 43.7 10.1 42.75 11.45 43.15 L12.0 43.35 Q13.1 43.95 13.25 45.45 13.05 47.15 11.75 47.7 10.7 48.45 9.05 47.25 M12.35 45.45 Q12.2 44.05 10.75 43.9 L10.0 44.1 12.15 46.25 12.35 45.45 M14.2 38.7 L7.45 38.8 8.6 53.65 Q9.45 54.1 10.5 54.05 L14.1 53.7 14.2 38.7 M21.65 31.4 L20.9 31.6 23.05 33.75 23.25 32.95 Q23.1 31.55 21.65 31.4 M22.45 34.35 L20.3 32.2 20.1 32.95 Q20.35 34.35 21.65 34.55 L22.45 34.35 M22.15 48.6 Q21.45 48.65 21.1 49.0 20.65 49.4 20.55 50.15 L20.75 50.9 22.85 48.8 22.15 48.6 M35.3 49.15 L33.1 49.1 32.65 49.55 32.6 50.35 35.3 49.15 M25.55 28.05 L17.9 28.15 19.3 53.15 24.75 53.25 25.55 28.05 M41.95 51.4 L41.85 49.6 38.7 51.3 38.55 53.05 38.35 54.05 42.0 52.4 41.95 51.4 M25.95 54.9 L23.3 55.25 Q28.6 56.35 33.95 55.25 L30.85 54.9 Q29.8 54.75 29.55 53.85 L29.45 53.4 26.6 53.3 25.95 54.9 M33.2 51.4 L34.55 51.7 35.7 49.95 33.2 51.4 M21.35 51.55 L22.1 51.75 Q23.9 51.55 23.6 49.7 L21.35 51.55 M15.15 51.45 L15.15 52.25 17.45 53.45 17.3 52.6 Q17.2 51.75 17.25 50.65 L15.1 49.4 15.15 51.45" fill="#5d0035" fill-rule="evenodd" stroke="none"/>
      <path d="M50.75 10.0 L50.45 13.35 Q49.55 33.1 49.45 52.9 L47.55 53.2 43.95 52.95 Q43.45 50.9 43.4 48.6 42.7 27.1 42.35 5.6 L51.2 5.6 50.75 10.0 M48.95 12.35 Q48.9 10.75 48.2 9.75 47.5 8.7 46.6 8.8 45.7 8.9 45.1 10.1 44.5 11.25 44.55 12.65 L44.6 45.2 Q43.75 46.05 44.1 47.55 44.8 49.15 46.3 49.2 46.8 49.75 47.7 49.65 L48.1 48.55 Q49.15 47.55 48.65 46.05 L48.3 45.2 48.05 41.5 Q47.2 35.85 47.35 30.15 47.65 21.15 48.95 12.35 M38.0 18.15 Q36.9 35.65 37.55 53.2 L37.5 53.45 31.25 53.15 29.9 16.9 38.1 16.8 38.0 18.15 M35.55 23.9 L35.7 23.75 Q37.0 22.1 35.8 20.5 L35.6 20.25 Q33.9 18.95 32.25 20.3 L32.1 20.4 Q30.8 22.05 32.05 23.7 32.7 32.75 31.85 41.85 31.65 43.75 31.7 45.7 31.7 47.3 32.2 48.6 31.1 50.6 32.75 52.05 L35.05 52.15 Q37.9 50.5 35.4 48.0 34.65 36.55 35.35 25.1 L35.55 23.9 M23.2 34.9 Q24.55 33.8 23.95 32.0 23.45 30.5 21.75 30.6 19.55 30.6 19.3 32.95 19.2 34.05 20.1 34.85 L20.8 48.1 Q18.85 49.95 20.65 51.7 21.25 52.3 22.1 52.65 24.85 52.4 24.5 49.6 24.4 48.75 23.55 48.15 L23.2 34.9 M9.05 43.7 Q7.8 45.3 8.8 46.95 L9.05 47.25 Q8.85 50.0 10.4 52.15 10.75 52.65 11.4 52.4 L11.75 47.7 Q13.05 47.15 13.25 45.45 13.1 43.95 12.0 43.35 12.3 41.75 11.6 40.3 L11.4 40.05 10.2 39.95 Q8.8 41.5 9.05 43.7 M14.2 38.7 L14.1 53.7 10.5 54.05 Q9.45 54.1 8.6 53.65 L7.45 38.8 14.2 38.7 M25.55 28.05 L24.75 53.25 19.3 53.15 17.9 28.15 25.55 28.05" fill="#e3c1d7" fill-rule="evenodd" stroke="none"/>
      <path d="M6.5 43.3 L6.6 44.65 Q1.65 37.85 1.4 28.65 1.7 17.1 9.4 9.45 17.05 1.75 28.6 1.45 35.75 1.65 41.4 4.8 L41.2 4.9 Q41.05 4.75 40.95 5.25 35.45 2.3 28.5 2.1 17.25 2.4 9.8 9.9 2.3 17.35 2.0 28.6 2.2 37.0 6.5 43.3 M40.85 11.15 L41.0 14.95 Q38.6 13.0 35.2 12.55 30.25 11.95 25.95 12.6 16.7 14.25 11.6 22.15 8.2 28.0 10.7 34.3 L12.05 37.4 9.6 37.55 Q7.6 32.95 7.75 27.7 7.85 22.9 10.4 19.05 15.75 11.05 25.25 9.1 33.55 7.45 40.85 11.15 M41.95 38.3 L41.95 42.75 39.4 43.95 Q39.25 42.35 39.25 40.75 L41.95 38.3 M29.3 44.85 L29.25 47.1 27.4 47.55 27.4 45.1 29.3 44.85 M17.4 42.55 L17.4 46.3 16.15 45.55 15.9 41.9 17.4 42.55 M52.05 16.5 L52.1 15.6 Q55.4 21.65 55.55 29.2 55.35 38.0 50.85 44.4 L50.85 42.75 Q54.75 36.6 54.95 28.6 54.75 21.85 52.05 16.5 M41.95 51.4 L42.0 52.4 38.35 54.05 38.55 53.05 41.95 51.4 M30.85 54.9 L33.95 55.25 Q28.6 56.35 23.3 55.25 L25.95 54.9 30.85 54.9 M17.3 52.6 L17.45 53.45 15.15 52.25 15.15 51.45 17.3 52.6" fill="#d2c0c0" fill-rule="evenodd" stroke="none"/>
      <path d="M44.15 4.15 L43.5 4.2 Q37.0 0.25 28.6 0.05 L29.2 0.0 Q37.65 0.2 44.15 4.15 M1.3 37.15 Q3.0 42.7 6.85 47.2 L6.9 47.7 Q2.95 43.0 1.3 37.15" fill="#8d3f6d" fill-rule="evenodd" stroke="none"/>
      <path d="M40.8 9.45 L40.85 11.15 Q33.55 7.45 25.25 9.1 15.75 11.05 10.4 19.05 7.85 22.9 7.75 27.7 7.6 32.95 9.6 37.55 L12.05 37.4 14.45 37.8 7.95 37.8 Q3.5 25.3 11.45 14.7 17.0 7.25 26.3 6.1 34.15 5.3 40.8 9.45 M41.95 42.75 L41.85 47.1 39.25 48.7 38.7 49.4 38.9 15.85 30.2 15.55 Q33.5 13.75 37.2 14.75 40.15 15.65 39.9 19.05 39.05 29.85 39.25 40.75 39.25 42.35 39.4 43.95 L41.95 42.75 M29.25 47.1 L29.25 51.35 26.7 51.5 26.7 27.55 26.4 27.25 Q22.25 25.8 17.8 27.05 19.55 26.25 21.6 26.15 L24.6 26.45 Q27.6 26.9 27.45 30.1 27.1 37.6 27.4 45.1 L27.4 47.55 29.25 47.1 M17.4 46.3 L17.35 48.85 15.05 47.8 15.3 38.55 15.9 41.9 16.15 45.55 17.4 46.3" fill="#bda3a3" fill-rule="evenodd" stroke="none"/>
      <path d="M7.95 37.8 L6.95 38.05 Q5.2 33.9 5.05 28.9 5.3 19.0 12.0 12.3 18.7 5.6 28.65 5.3 35.55 5.45 40.8 8.75 L40.8 9.45 Q34.15 5.3 26.3 6.1 17.0 7.25 11.45 14.7 3.5 25.3 7.95 37.8 M41.85 47.1 L41.85 47.95 38.7 49.8 38.7 49.4 39.25 48.7 41.85 47.1 M29.25 51.35 L29.25 52.05 26.7 51.95 26.7 51.5 29.25 51.35 M51.15 34.95 L51.65 24.65 51.85 28.65 Q51.9 31.85 51.15 34.95" fill="#aa8888" fill-rule="evenodd" stroke="none"/>
      <path d="M45.1 11.4 Q45.25 10.0 46.65 9.85 L47.45 10.1 45.35 12.2 45.1 11.4 M46.3 12.95 L48.05 10.7 Q48.75 12.6 46.65 13.0 L46.3 12.95 M44.9 46.45 L47.6 47.8 46.85 48.1 Q45.45 48.6 44.9 47.25 L44.9 46.45 M47.9 46.25 L47.95 47.0 45.3 45.7 Q45.55 45.45 45.9 45.3 47.35 44.95 47.9 46.25 M35.4 21.6 L32.45 21.65 32.75 21.0 35.0 20.95 35.4 21.6 M32.4 22.2 L35.35 22.15 35.05 22.8 32.8 22.85 32.4 22.2 M9.4 44.7 L11.55 46.85 10.75 47.05 Q9.35 46.9 9.2 45.45 L9.4 44.7 M12.35 45.45 L12.15 46.25 10.0 44.1 10.75 43.9 Q12.2 44.05 12.35 45.45 M22.45 34.35 L21.65 34.55 Q20.35 34.35 20.1 32.95 L20.3 32.2 22.45 34.35 M21.65 31.4 Q23.1 31.55 23.25 32.95 L23.05 33.75 20.9 31.6 21.65 31.4 M22.15 48.6 L22.85 48.8 20.75 50.9 20.55 50.15 Q20.65 49.4 21.1 49.0 21.45 48.65 22.15 48.6 M35.3 49.15 L32.6 50.35 32.65 49.55 33.1 49.1 35.3 49.15 M33.2 51.4 L35.7 49.95 34.55 51.7 33.2 51.4 M21.35 51.55 L23.6 49.7 Q23.9 51.55 22.1 51.75 L21.35 51.55" fill="#a68884" fill-rule="evenodd" stroke="none"/>
      <path d="M48.95 12.35 Q47.65 21.15 47.35 30.15 47.2 35.85 48.05 41.5 L48.3 45.2 Q47.35 44.0 45.65 44.45 L44.6 45.2 44.55 12.65 Q45.1 13.75 46.65 13.9 48.4 13.7 48.95 12.35 M48.1 48.55 L47.7 49.65 Q46.8 49.75 46.3 49.2 L48.1 48.55 M35.55 23.9 L35.35 25.1 Q34.65 36.55 35.4 48.0 L35.0 47.8 Q33.2 47.3 32.2 48.6 31.7 47.3 31.7 45.7 31.65 43.75 31.85 41.85 32.7 32.75 32.05 23.7 L32.2 23.85 Q33.9 25.2 35.55 23.9 M20.1 34.85 L23.2 34.9 23.55 48.15 20.8 48.1 20.1 34.85 M9.05 43.7 Q8.8 41.5 10.2 39.95 L11.4 40.05 11.6 40.3 Q12.3 41.75 12.0 43.35 L11.45 43.15 Q10.1 42.75 9.05 43.7 M11.75 47.7 L11.4 52.4 Q10.75 52.65 10.4 52.15 8.85 50.0 9.05 47.25 10.7 48.45 11.75 47.7" fill="#c7abb9" fill-rule="evenodd" stroke="none"/>
      <path d="M40.95 5.25 L40.85 7.15 Q31.5 2.15 21.3 5.15 11.65 8.15 7.05 17.05 1.4 28.1 6.05 39.7 L6.35 41.05 6.5 43.3 Q2.2 37.0 2.0 28.6 2.3 17.35 9.8 9.9 17.25 2.4 28.5 2.1 35.45 2.3 40.95 5.25 M41.0 14.95 L41.95 38.3 39.25 40.75 Q39.05 29.85 39.9 19.05 40.15 15.65 37.2 14.75 33.5 13.75 30.2 15.55 L28.85 16.2 29.3 44.85 27.4 45.1 Q27.1 37.6 27.45 30.1 27.6 26.9 24.6 26.45 L21.6 26.15 Q19.55 26.25 17.8 27.05 L16.8 27.7 17.4 42.55 15.9 41.9 15.3 38.55 14.45 37.8 12.05 37.4 10.7 34.3 Q8.2 28.0 11.6 22.15 16.7 14.25 25.95 12.6 30.25 11.95 35.2 12.55 38.6 13.0 41.0 14.95 M50.85 42.75 Q50.6 40.15 51.5 38.1 53.35 33.65 53.2 28.65 53.15 26.45 52.6 24.4 51.5 20.6 52.05 16.5 54.75 21.85 54.95 28.6 54.75 36.6 50.85 42.75 M38.55 53.05 L38.7 51.3 41.85 49.6 41.95 51.4 38.55 53.05 M25.95 54.9 L26.6 53.3 29.45 53.4 29.55 53.85 Q29.8 54.75 30.85 54.9 L25.95 54.9 M15.15 51.45 L15.1 49.4 17.25 50.65 Q17.2 51.75 17.3 52.6 L15.15 51.45" fill="#e3d7d7" fill-rule="evenodd" stroke="none"/>
    </g>
    <g id="text0" transform="matrix(1.0, 0.0, 0.0, 1.0, -0.85, -6.4)">
      <g transform="matrix(1.0, 0.0, 0.0, 1.0, 0.0, 0.0)">
        <use fill="#ffffff" height="20.2" transform="matrix(0.5469, 0.0, 0.0, 0.5469, 0.0, 24.0)" width="136.9" xlink:href="#font_______W7_S0"/>
        <use fill="#ffffff" height="20.2" transform="matrix(0.5469, 0.0, 0.0, 0.5469, 16.4, 24.0)" width="136.9" xlink:href="#font_______W7_p0"/>
        <use fill="#ffffff" height="20.2" transform="matrix(0.5469, 0.0, 0.0, 0.5469, 30.55, 24.0)" width="136.9" xlink:href="#font_______W7_i0"/>
        <use fill="#ffffff" height="20.2" transform="matrix(0.5469, 0.0, 0.0, 0.5469, 38.8, 24.0)" width="136.9" xlink:href="#font_______W7_n0"/>
        <use fill="#ffffff" height="20.2" transform="matrix(0.5469, 0.0, 0.0, 0.5469, 60.0, 24.0)" width="136.9" xlink:href="#font_______W7_D0"/>
        <use fill="#ffffff" height="20.2" transform="matrix(0.5469, 0.0, 0.0, 0.5469, 77.4, 24.0)" width="136.9" xlink:href="#font_______W7_o0"/>
        <use fill="#ffffff" height="20.2" transform="matrix(0.5469, 0.0, 0.0, 0.5469, 90.45, 24.0)" width="136.9" xlink:href="#font_______W7_c0"/>
        <use fill="#ffffff" height="20.2" transform="matrix(0.5469, 0.0, 0.0, 0.5469, 103.45, 24.0)" width="136.9" xlink:href="#font_______W7_t0"/>
        <use fill="#ffffff" height="20.2" transform="matrix(0.5469, 0.0, 0.0, 0.5469, 114.7, 24.0)" width="136.9" xlink:href="#font_______W7_o0"/>
        <use fill="#ffffff" height="20.2" transform="matrix(0.5469, 0.0, 0.0, 0.5469, 127.75, 24.0)" width="136.9" xlink:href="#font_______W7_r0"/>
      </g>
    </g>
    <g id="font_______W7_S0">
      <path d="M31.55 -9.25 L31.55 -9.25 Q31.55 -13.4 28.3 -15.85 25.95 -17.65 19.7 -19.75 10.7 -22.75 10.7 -24.2 10.7 -25.4 11.9 -26.1 13.0 -26.75 14.65 -26.75 21.7 -26.75 27.4 -23.2 L30.25 -27.8 Q24.05 -32.15 16.75 -32.15 11.9 -32.15 8.45 -30.45 4.0 -28.25 4.0 -23.9 4.0 -20.3 7.85 -18.05 9.4 -17.1 15.9 -14.75 23.85 -11.9 23.85 -10.1 23.85 -8.7 22.45 -7.9 21.25 -7.25 19.75 -7.25 15.9 -7.25 12.1 -9.95 8.85 -12.25 6.35 -15.9 L1.55 -6.1 Q4.85 -3.25 9.45 -1.6 14.1 0.05 18.65 0.05 23.45 0.05 27.15 -2.15 31.55 -4.75 31.55 -9.25" fill-rule="evenodd" stroke="none"/>
    </g>
    <g id="font_______W7_p0">
      <path d="M20.7 -12.7 L20.7 -12.7 Q20.7 -9.3 17.35 -9.3 14.95 -9.3 12.7 -12.0 L10.6 -8.4 10.05 -13.4 Q12.6 -16.55 16.2 -16.55 18.05 -16.55 19.35 -15.55 20.7 -14.5 20.7 -12.7 M27.8 -10.85 L27.8 -10.85 Q27.8 -15.55 24.6 -18.5 21.4 -21.45 16.7 -21.45 12.55 -21.45 9.35 -19.15 L9.2 -20.75 4.35 -21.45 2.05 4.75 11.95 3.3 11.35 -1.45 Q14.35 0.05 17.2 0.05 21.85 0.05 24.85 -3.05 27.8 -6.15 27.8 -10.85" fill-rule="evenodd" stroke="none"/>
    </g>
    <g id="font_______W7_i0">
      <path d="M11.6 -20.75 L11.6 -20.75 6.75 -21.45 4.45 0.05 14.3 -1.4 11.6 -20.75 M11.9 -31.5 L11.9 -31.5 6.5 -32.15 4.9 -24.95 13.2 -26.1 11.9 -31.5" fill-rule="evenodd" stroke="none"/>
    </g>
    <g id="font_______W7_n0">
      <path d="M27.0 -9.05 L27.0 -9.05 Q27.0 -14.5 24.65 -17.8 21.9 -21.45 16.6 -21.45 12.6 -21.45 9.45 -18.85 L9.2 -20.75 4.35 -21.45 2.05 0.05 11.95 -1.4 10.35 -12.55 Q12.95 -15.85 15.9 -15.85 19.4 -15.85 19.4 -10.6 19.4 -6.9 16.6 -1.3 L26.2 0.0 Q27.0 -6.5 27.0 -9.05" fill-rule="evenodd" stroke="none"/>
    </g>
    <g id="font_______W7_D0">
      <path d="M26.25 -17.9 L26.25 -17.9 Q26.25 -14.65 24.8 -12.6 23.1 -10.25 20.0 -10.25 16.6 -10.25 14.1 -12.65 L12.3 -9.6 10.95 -24.15 Q14.8 -25.95 17.05 -25.95 20.5 -25.95 23.3 -23.65 26.25 -21.25 26.25 -17.9 M33.4 -15.95 L33.4 -15.95 Q33.4 -22.6 29.35 -27.0 25.15 -31.55 18.55 -31.55 14.75 -31.55 10.4 -29.7 L10.25 -31.5 5.3 -32.15 2.55 0.05 13.15 -1.1 13.1 -1.6 Q15.65 -0.6 18.75 -0.6 25.45 -0.6 29.5 -4.95 33.4 -9.15 33.4 -15.95" fill-rule="evenodd" stroke="none"/>
    </g>
    <g id="font_______W7_o0">
      <path d="M15.8 -13.5 L15.8 -13.5 Q16.45 -11.85 16.45 -10.4 16.45 -6.85 12.35 -6.85 10.6 -6.85 9.35 -8.05 8.15 -9.35 8.15 -11.05 8.15 -13.25 9.8 -14.6 11.4 -16.0 13.7 -16.0 16.1 -16.0 18.3 -14.3 L15.8 -13.5 M25.7 -11.4 L25.7 -11.4 Q25.7 -13.8 24.75 -16.35 L21.25 -15.25 22.7 -17.2 Q18.35 -21.45 13.15 -21.45 8.45 -21.45 5.1 -18.2 1.8 -14.95 1.8 -10.3 1.8 -5.5 5.4 -2.65 8.65 0.05 13.65 0.05 18.75 0.05 22.2 -3.2 25.7 -6.4 25.7 -11.4" fill-rule="evenodd" stroke="none"/>
    </g>
    <g id="font_______W7_c0">
      <path d="M21.35 -12.5 L21.35 -12.5 Q19.95 -10.5 17.75 -9.15 15.35 -7.6 13.15 -7.6 11.4 -7.6 10.2 -8.85 8.9 -10.05 8.9 -11.8 8.9 -14.1 10.65 -15.4 12.2 -16.55 14.55 -16.55 18.9 -16.55 21.9 -13.7 L24.4 -17.55 Q19.65 -21.45 13.1 -21.45 8.05 -21.45 4.9 -18.4 1.8 -15.3 1.8 -10.3 1.8 -5.6 5.7 -2.65 9.25 0.05 14.1 0.05 17.2 0.05 20.45 -1.1 24.05 -2.3 25.9 -4.4 L21.35 -12.5" fill-rule="evenodd" stroke="none"/>
    </g>
    <g id="font_______W7_t0">
      <path d="M18.7 -12.2 L18.7 -12.2 Q17.0 -9.35 14.9 -9.35 11.95 -9.35 11.95 -15.4 L21.65 -15.4 20.1 -22.55 12.4 -21.45 Q12.75 -24.2 13.6 -27.95 L8.95 -28.85 Q7.75 -24.65 7.1 -20.75 L0.75 -19.9 1.75 -15.4 6.55 -15.4 6.5 -12.55 Q6.5 -6.8 7.75 -4.05 9.5 0.05 14.55 0.05 19.1 0.05 23.25 -4.15 L18.7 -12.2" fill-rule="evenodd" stroke="none"/>
    </g>
    <g id="font_______W7_r0">
      <path d="M18.3 -20.6 L18.3 -20.6 Q16.55 -21.45 14.75 -21.45 11.5 -21.45 8.7 -18.65 L8.45 -20.75 4.45 -21.45 2.55 0.05 10.65 -1.4 9.3 -12.8 Q10.55 -14.85 12.3 -14.85 13.25 -14.85 14.55 -13.85 L16.55 -12.05 18.3 -20.6" fill-rule="evenodd" stroke="none"/>
    </g>
    <g id="text1" transform="matrix(1.0, 0.0, 0.0, 1.0, -1.4, -6.4)">
      <g transform="matrix(1.0, 0.0, 0.0, 1.0, 0.0, 0.0)">
        <use fill="#ffffff" height="20.2" transform="matrix(0.5469, 0.0, 0.0, 0.5469, 0.0, 24.0)" width="143.2" xlink:href="#font_______W7_M0"/>
        <use fill="#ffffff" height="20.2" transform="matrix(0.5469, 0.0, 0.0, 0.5469, 22.35, 24.0)" width="143.2" xlink:href="#font_______W7_o0"/>
        <use fill="#ffffff" height="20.2" transform="matrix(0.5469, 0.0, 0.0, 0.5469, 37.4, 24.0)" width="143.2" xlink:href="#font_______W7_n0"/>
        <use fill="#ffffff" height="20.2" transform="matrix(0.5469, 0.0, 0.0, 0.5469, 53.3, 24.0)" width="143.2" xlink:href="#font_______W7_e0"/>
        <use fill="#ffffff" height="20.2" transform="matrix(0.5469, 0.0, 0.0, 0.5469, 68.95, 24.0)" width="143.2" xlink:href="#font_______W7_y0"/>
        <use fill="#ffffff" height="20.2" transform="matrix(0.5469, 0.0, 0.0, 0.5469, 82.85, 24.0)" width="143.2" xlink:href="#font_______W7_b0"/>
        <use fill="#ffffff" height="20.2" transform="matrix(0.5469, 0.0, 0.0, 0.5469, 99.3, 24.0)" width="143.2" xlink:href="#font_______W7_a0"/>
        <use fill="#ffffff" height="20.2" transform="matrix(0.5469, 0.0, 0.0, 0.5469, 115.4, 24.0)" width="143.2" xlink:href="#font_______W7_g0"/>
        <use fill="#ffffff" height="20.2" transform="matrix(0.5469, 0.0, 0.0, 0.5469, 130.9, 24.0)" width="143.2" xlink:href="#font_______W7_s0"/>
      </g>
    </g>
    <g id="font_______W7_M0">
      <path d="M35.55 -31.55 L35.55 -31.55 30.8 -32.15 20.2 -14.25 9.85 -31.5 5.1 -32.15 2.55 0.05 12.6 -1.4 10.85 -20.45 18.7 -2.25 22.0 -3.05 29.9 -20.9 28.25 0.05 38.3 -1.4 35.55 -31.55" fill-rule="evenodd" stroke="none"/>
    </g>
    <g id="font_______W7_e0">
      <path d="M19.45 -9.9 L19.45 -9.9 Q16.75 -7.55 13.6 -7.55 10.45 -7.55 9.15 -9.9 L19.45 -9.9 M9.0 -13.4 L9.0 -13.4 Q9.7 -14.95 11.5 -15.95 13.2 -16.8 15.1 -16.8 18.05 -16.8 19.65 -14.35 L9.0 -13.4 M23.25 -9.9 L23.25 -9.9 24.3 -9.9 26.7 -12.6 Q25.85 -16.7 22.9 -19.1 19.9 -21.45 15.15 -21.45 9.65 -21.45 5.9 -18.65 1.8 -15.6 1.8 -10.4 1.8 -5.35 5.8 -2.5 9.3 0.05 14.6 0.05 22.45 0.05 27.15 -4.25 L23.25 -9.9" fill-rule="evenodd" stroke="none"/>
    </g>
    <g id="font_______W7_y0">
      <path d="M21.2 -21.45 L21.2 -21.45 13.15 -10.8 3.65 -21.45 0.5 -19.75 8.5 -4.7 4.3 0.85 12.5 4.75 24.85 -19.65 21.2 -21.45" fill-rule="evenodd" stroke="none"/>
    </g>
    <g id="font_______W7_b0">
      <path d="M20.9 -12.9 L20.9 -12.9 Q20.9 -9.4 17.6 -9.4 15.3 -9.4 13.25 -11.85 L11.45 -8.4 10.95 -14.2 Q13.25 -16.5 16.3 -16.5 17.85 -16.5 19.35 -15.5 20.9 -14.45 20.9 -12.9 M28.25 -10.45 L28.25 -10.45 Q28.25 -15.0 25.1 -18.25 21.9 -21.45 17.35 -21.45 13.75 -21.45 10.5 -19.25 L9.35 -31.5 4.65 -32.15 2.05 0.05 12.15 -0.75 12.15 -2.05 Q14.7 0.05 18.2 0.05 22.6 0.05 25.4 -3.0 28.25 -6.0 28.25 -10.45" fill-rule="evenodd" stroke="none"/>
    </g>
    <g id="font_______W7_a0">
      <path d="M19.05 -8.85 L19.05 -8.85 18.5 -5.05 17.1 -9.0 Q14.35 -6.2 10.6 -6.2 9.95 -6.2 9.45 -6.75 9.0 -7.2 9.0 -7.85 9.0 -10.2 13.7 -10.2 15.9 -10.2 19.05 -8.85 M27.4 -6.8 L27.4 -6.8 Q27.4 -21.45 13.35 -21.45 7.15 -21.45 2.55 -18.35 L4.3 -14.35 Q8.3 -16.55 13.15 -16.55 17.85 -16.55 18.85 -13.35 15.4 -14.5 12.8 -14.5 8.6 -14.5 5.6 -12.8 1.8 -10.75 1.8 -6.95 1.8 -3.5 4.9 -1.55 7.55 0.05 11.15 0.05 13.95 0.05 17.35 -0.95 L17.0 0.15 26.7 -0.3 Q27.4 -3.45 27.4 -6.8" fill-rule="evenodd" stroke="none"/>
    </g>
    <g id="font_______W7_g0">
      <path d="M21.25 -12.75 L21.25 -12.75 21.05 -10.5 18.9 -14.7 Q15.2 -11.7 11.9 -11.7 10.85 -11.7 10.0 -12.55 9.05 -13.45 9.05 -14.45 9.05 -16.75 13.35 -16.75 15.6 -16.75 18.05 -15.7 20.3 -14.7 21.2 -13.55 L21.25 -12.75 M26.3 -10.4 L26.3 -10.4 Q26.3 -15.45 24.2 -21.5 L20.0 -20.3 20.3 -19.15 Q16.35 -21.45 12.1 -21.45 8.15 -21.45 5.4 -19.3 2.35 -16.95 2.35 -13.2 2.35 -9.45 5.85 -7.35 8.8 -5.6 12.75 -5.6 16.55 -5.6 19.75 -6.9 17.8 -3.95 13.25 -3.95 8.55 -3.95 4.75 -6.35 L1.8 2.9 Q6.7 4.75 11.2 4.75 18.25 4.75 22.25 0.65 26.3 -3.4 26.3 -10.4" fill-rule="evenodd" stroke="none"/>
    </g>
    <g id="font_______W7_s0">
      <path d="M25.05 -6.35 L25.05 -6.35 Q25.05 -12.25 15.35 -13.65 8.7 -14.6 8.7 -15.7 8.7 -17.05 12.35 -17.05 17.1 -17.05 22.25 -14.8 L23.8 -18.2 Q19.05 -21.45 12.25 -21.45 8.55 -21.45 6.05 -20.35 2.6 -18.85 2.6 -15.7 2.6 -13.1 4.75 -11.8 6.5 -10.75 10.95 -10.05 L16.3 -8.95 Q17.8 -8.4 17.8 -7.5 17.8 -6.2 15.25 -6.2 12.3 -6.2 9.1 -7.45 5.9 -8.7 3.8 -10.65 L1.0 -2.6 Q6.45 0.05 14.3 0.05 25.05 0.05 25.05 -6.35" fill-rule="evenodd" stroke="none"/>
    </g>
    <g id="text2" transform="matrix(1.0, 0.0, 0.0, 1.0, -0.4, -6.4)">
      <g transform="matrix(1.0, 0.0, 0.0, 1.0, 0.0, 0.0)">
        <use fill="#ffffff" height="17.7" transform="matrix(0.5469, 0.0, 0.0, 0.5469, 0.0, 24.0)" width="115.6" xlink:href="#font_______W7_T0"/>
        <use fill="#ffffff" height="17.7" transform="matrix(0.5469, 0.0, 0.0, 0.5469, 18.15, 24.0)" width="115.6" xlink:href="#font_______W7_w0"/>
        <use fill="#ffffff" height="17.7" transform="matrix(0.5469, 0.0, 0.0, 0.5469, 35.45, 24.0)" width="115.6" xlink:href="#font_______W7_o0"/>
        <use fill="#ffffff" height="17.7" transform="matrix(0.5469, 0.0, 0.0, 0.5469, 50.5, 24.0)" width="115.6" xlink:href="#font_______W7_-0"/>
        <use fill="#ffffff" height="17.7" transform="matrix(0.5469, 0.0, 0.0, 0.5469, 59.8, 24.0)" width="115.6" xlink:href="#font_______W7_f0"/>
        <use fill="#ffffff" height="17.7" transform="matrix(0.5469, 0.0, 0.0, 0.5469, 70.0, 24.0)" width="115.6" xlink:href="#font_______W7_a0"/>
        <use fill="#ffffff" height="17.7" transform="matrix(0.5469, 0.0, 0.0, 0.5469, 86.15, 24.0)" width="115.6" xlink:href="#font_______W7_c0"/>
        <use fill="#ffffff" height="17.7" transform="matrix(0.5469, 0.0, 0.0, 0.5469, 101.15, 24.0)" width="115.6" xlink:href="#font_______W7_e0"/>
      </g>
    </g>
    <g id="font_______W7_T0">
      <path d="M30.8 -32.15 L30.8 -32.15 0.75 -29.4 1.85 -24.25 13.45 -24.25 11.0 0.05 21.6 -1.1 18.95 -24.25 32.35 -24.25 30.8 -32.15" fill-rule="evenodd" stroke="none"/>
    </g>
    <g id="font_______W7_w0">
      <path d="M23.1 -21.4 L23.1 -21.4 20.35 -10.05 16.6 -20.6 13.9 -21.45 9.35 -10.05 4.1 -21.35 0.5 -19.7 8.35 0.05 11.1 -0.5 14.9 -12.4 19.2 0.05 22.05 -0.55 31.2 -17.75 23.1 -21.4" fill-rule="evenodd" stroke="none"/>
    </g>
    <g id="font_______W7_-0">
      <path d="M13.3 -20.55 L13.3 -20.55 2.1 -16.75 3.3 -11.35 14.9 -11.4 13.3 -20.55" fill-rule="evenodd" stroke="none"/>
    </g>
    <g id="font_______W7_f0">
      <path d="M16.3 -23.5 L16.3 -23.5 11.45 -22.7 Q11.8 -25.5 12.65 -26.6 13.65 -27.85 16.3 -27.85 L17.0 -27.85 16.25 -32.0 14.1 -32.15 Q5.9 -32.15 5.05 -21.65 L1.3 -20.95 2.15 -16.7 4.55 -16.7 Q4.1 -5.65 4.1 -0.95 L13.95 0.05 Q11.85 -9.65 11.45 -16.65 L17.3 -16.6 16.3 -23.5" fill-rule="evenodd" stroke="none"/>
    </g>
    <g id="text3" transform="matrix(1.0, 0.0, 0.0, 1.0, -1.4, -6.4)">
      <g transform="matrix(1.0, 0.0, 0.0, 1.0, 0.0, 0.0)">
        <use fill="#ffffff" height="17.7" transform="matrix(0.5469, 0.0, 0.0, 0.5469, 0.0, 24.0)" width="147.3" xlink:href="#font_______W7_H0"/>
        <use fill="#ffffff" height="17.7" transform="matrix(0.5469, 0.0, 0.0, 0.5469, 18.4, 24.0)" width="147.3" xlink:href="#font_______W7_e0"/>
        <use fill="#ffffff" height="17.7" transform="matrix(0.5469, 0.0, 0.0, 0.5469, 32.05, 24.0)" width="147.3" xlink:href="#font_______W7_a0"/>
        <use fill="#ffffff" height="17.7" transform="matrix(0.5469, 0.0, 0.0, 0.5469, 46.15, 24.0)" width="147.3" xlink:href="#font_______W7_d0"/>
        <use fill="#ffffff" height="17.7" transform="matrix(0.5469, 0.0, 0.0, 0.5469, 67.7, 24.0)" width="147.3" xlink:href="#font_______W7_H0"/>
        <use fill="#ffffff" height="17.7" transform="matrix(0.5469, 0.0, 0.0, 0.5469, 86.1, 24.0)" width="147.3" xlink:href="#font_______W7_u0"/>
        <use fill="#ffffff" height="17.7" transform="matrix(0.5469, 0.0, 0.0, 0.5469, 99.9, 24.0)" width="147.3" xlink:href="#font_______W7_n0"/>
        <use fill="#ffffff" height="17.7" transform="matrix(0.5469, 0.0, 0.0, 0.5469, 113.75, 24.0)" width="147.3" xlink:href="#font_______W7_t0"/>
        <use fill="#ffffff" height="17.7" transform="matrix(0.5469, 0.0, 0.0, 0.5469, 125.0, 24.0)" width="147.3" xlink:href="#font_______W7_e0"/>
        <use fill="#ffffff" height="17.7" transform="matrix(0.5469, 0.0, 0.0, 0.5469, 138.7, 24.0)" width="147.3" xlink:href="#font_______W7_r0"/>
      </g>
    </g>
    <g id="font_______W7_H0">
      <path d="M31.8 -31.5 L31.8 -31.5 26.95 -32.15 25.95 -21.0 11.4 -18.75 10.2 -31.5 5.3 -32.15 2.55 0.05 13.15 -1.1 11.95 -13.75 25.35 -13.75 24.15 0.05 34.75 -1.1 31.8 -31.5" fill-rule="evenodd" stroke="none"/>
    </g>
    <g id="font_______W7_d0">
      <path d="M18.35 -8.95 L18.35 -8.95 16.8 -11.9 Q14.75 -9.45 12.45 -9.45 10.9 -9.45 10.0 -10.4 9.1 -11.4 9.1 -12.95 9.1 -14.5 10.7 -15.6 12.15 -16.5 13.7 -16.5 16.6 -16.5 18.8 -14.55 L18.35 -8.95 M24.9 -31.55 L24.9 -31.55 20.15 -32.2 19.15 -19.55 Q16.05 -21.45 12.65 -21.45 8.15 -21.45 4.95 -18.25 1.8 -15.0 1.8 -10.5 1.8 -6.05 4.6 -3.05 7.4 0.05 11.85 0.05 14.65 0.05 17.7 -1.5 L17.6 0.0 27.65 -1.45 24.9 -31.55" fill-rule="evenodd" stroke="none"/>
    </g>
    <g id="font_______W7_u0">
      <path d="M24.1 -20.75 L24.1 -20.75 19.25 -21.45 17.9 -8.95 16.15 -11.65 Q13.35 -8.1 10.6 -8.1 9.0 -8.1 8.15 -9.4 7.25 -10.65 7.25 -12.3 7.25 -15.75 8.6 -19.75 L3.9 -21.15 Q2.05 -16.35 2.05 -11.4 2.05 -6.45 4.25 -3.4 6.75 0.05 11.5 0.05 14.55 0.05 17.1 -1.5 L16.95 0.1 26.8 -1.35 24.1 -20.75" fill-rule="evenodd" stroke="none"/>
    </g>
  </defs>
</svg>
