<?xml version="1.0" encoding="UTF-8" standalone="no"?>
<svg xmlns:xlink="http://www.w3.org/1999/xlink" height="323.05px" width="595.1px" xmlns="http://www.w3.org/2000/svg">
  <g transform="matrix(1.0, 0.0, 0.0, 1.0, 68.25, 14.45)">
    <use height="268.25" transform="matrix(0.6827, -0.0815, 0.0879, 0.7359, -9.55, 51.8)" width="334.9" xlink:href="#shape0"/>
    <use height="62.9" transform="matrix(0.6424, -0.0768, 0.0768, 0.6424, 98.2464, 154.4885)" width="60.15" xlink:href="#shape1"/>
    <use height="267.4" transform="matrix(0.7498, 0.0, 0.0, 0.7498, 228.2, 5.45)" width="238.4" xlink:href="#shape2"/>
    <use height="59.15" transform="matrix(0.6473, 0.0, 0.0, 0.6473, 297.5824, 102.4)" width="57.15" xlink:href="#shape3"/>
    <use height="264.0" transform="matrix(0.7433, -0.0127, 0.0127, 0.7433, 164.7, 80.3)" width="190.4" xlink:href="#shape4"/>
    <use height="57.2" transform="matrix(0.6466, -0.011, 0.011, 0.6466, 216.0628, 201.6119)" width="56.95" xlink:href="#shape5"/>
    <use height="262.35" transform="matrix(0.8429, 0.0925, -0.0925, 0.8429, 357.75, 64.9)" width="187.35" xlink:href="#shape6"/>
    <use height="57.25" transform="matrix(0.672, 0.0, 0.0, 0.672, 399.9172, 214.7)" width="57.1" xlink:href="#shape7"/>
    <use height="47.7" transform="matrix(0.6424, -0.0768, 0.0768, 0.6424, -37.7879, 71.8195)" width="129.05" xlink:href="#text0"/>
    <use height="20.2" transform="matrix(0.6473, 0.0, 0.0, 0.6473, 267.8562, -14.4575)" width="158.95" xlink:href="#text1"/>
    <use height="17.75" transform="matrix(0.6466, -0.011, 0.011, 0.6466, 183.8258, 286.0227)" width="149.9" xlink:href="#text2"/>
    <use height="20.2" transform="matrix(0.6678, 0.0732, -0.0732, 0.6678, 394.8985, 46.753)" width="159.1" xlink:href="#text3"/>
  </g>
  <defs>
    <g id="shape0" transform="matrix(1.0, 0.0, 0.0, 1.0, 0.0, 0.0)">
      <path d="M329.9 244.2 L329.55 244.95 299.1 261.55 288.4 251.1 290.25 247.35 284.9 244.4 286.85 229.75 281.0 230.25 279.9 229.05 274.65 203.65 271.25 200.2 273.7 214.75 274.5 266.75 273.9 268.05 273.0 268.25 60.35 268.25 59.6 268.05 58.85 266.7 61.25 199.45 Q61.15 197.85 61.95 183.6 L62.55 173.6 59.35 191.45 50.5 229.35 48.25 236.8 45.95 236.9 46.85 249.5 41.25 252.8 43.2 257.1 36.6 263.45 34.5 265.2 32.4 266.9 1.75 249.8 6.95 231.15 1.3 230.3 0.85 230.05 0.25 229.55 0.0 228.75 2.65 183.55 2.8 183.05 25.2 128.75 25.4 128.35 74.0 69.5 74.6 69.25 Q85.55 66.6 96.35 62.4 L108.75 57.5 130.65 26.0 130.85 25.65 Q136.35 16.95 143.75 9.95 L147.75 6.35 155.65 0.0 178.45 0.05 181.85 2.9 Q186.35 6.9 189.95 11.55 L218.6 55.2 Q232.5 61.3 246.95 65.7 L265.15 70.75 298.85 109.7 322.55 149.05 322.75 149.55 334.9 223.2 334.65 224.4 324.65 225.9 329.9 244.2 M183.75 18.0 L181.8 19.9 191.85 19.65 183.75 18.0 M186.9 15.55 L189.3 15.95 Q186.45 11.45 182.75 7.4 L177.0 2.45 176.3 2.5 156.75 2.85 150.3 7.9 142.9 13.75 139.65 18.35 136.5 22.8 Q147.75 18.4 159.15 14.85 167.05 12.3 175.0 13.75 L186.9 15.55 M207.05 42.85 L193.75 22.6 177.1 23.0 168.6 28.3 167.0 27.25 Q167.8 24.8 170.2 23.7 L171.3 23.15 161.1 23.35 145.1 22.7 139.7 24.8 133.75 27.05 122.6 43.0 112.5 57.55 169.85 73.8 215.5 55.7 207.05 42.85 M154.35 39.8 L155.35 38.3 156.05 38.3 Q157.0 38.15 157.3 39.2 169.1 42.8 179.8 36.65 L180.15 35.25 Q178.1 33.95 179.45 31.95 L180.3 32.05 Q183.2 32.65 183.2 35.55 182.7 40.35 177.4 41.9 174.1 42.95 170.65 43.25 183.7 42.55 194.75 48.2 196.8 49.3 198.35 51.25 200.05 53.35 200.95 56.1 200.0 59.6 192.75 58.5 185.5 57.35 176.65 53.9 167.75 50.45 158.5 52.85 149.15 55.2 142.65 58.4 136.1 61.6 134.95 61.7 126.85 61.35 127.95 54.25 128.35 51.6 130.75 50.5 138.5 46.8 147.0 45.15 154.85 43.6 163.0 43.05 158.1 42.85 154.35 39.8 M180.05 17.5 Q167.35 15.4 154.85 19.35 L151.05 20.55 176.15 20.0 180.05 17.5 M176.35 29.1 L173.65 28.85 Q172.55 27.65 173.75 26.45 L191.8 26.6 Q192.8 26.85 192.7 27.95 L192.6 28.55 183.85 29.3 188.45 30.65 188.95 31.6 188.4 32.75 Q182.15 33.05 176.9 29.6 L176.35 29.1 M165.9 49.3 Q170.7 49.45 176.0 51.3 L176.1 46.45 165.75 46.05 165.9 49.3 M179.1 46.85 L179.0 52.25 188.0 54.9 188.15 48.7 179.1 46.85 M191.0 55.7 L195.85 56.45 Q197.4 56.8 198.25 55.55 196.4 52.05 192.9 50.35 L191.1 49.6 191.0 55.7 M176.2 94.35 L185.6 109.7 196.85 90.0 185.85 92.8 Q184.55 92.95 184.15 91.75 L181.9 84.5 176.2 94.35 M180.65 80.65 L178.15 73.75 169.5 77.0 Q162.3 74.75 154.6 72.65 L151.45 81.1 159.7 94.3 173.55 92.95 180.65 80.65 M206.6 62.45 L181.5 72.4 186.5 89.55 198.9 86.35 212.6 62.35 214.3 59.4 206.6 62.45 M233.55 64.2 L231.85 89.5 220.15 95.6 229.15 101.2 229.15 102.65 168.7 145.65 169.45 265.25 271.65 265.25 270.85 214.85 256.9 133.9 240.55 78.5 239.1 65.55 233.55 64.2 M215.6 95.0 L229.15 87.7 230.6 63.5 218.4 58.3 171.9 139.7 225.15 101.75 215.6 96.0 215.6 95.0 M162.75 46.05 L152.25 47.3 152.6 52.05 Q157.75 50.3 162.9 49.55 L162.75 46.05 M183.95 112.65 L173.7 95.95 159.75 97.35 149.0 112.3 168.25 140.05 183.95 112.65 M165.9 144.15 L165.0 142.4 111.7 105.15 Q110.85 104.4 111.2 103.45 111.25 103.2 111.45 103.05 L121.4 96.45 97.2 94.7 Q96.75 95.0 96.45 94.55 L96.25 94.0 96.25 66.2 82.15 71.5 82.1 92.45 65.8 159.45 62.05 265.25 166.45 265.25 165.7 145.05 165.9 144.15 M296.65 111.5 L263.6 73.25 242.25 66.5 243.5 77.75 259.8 133.05 270.5 195.1 277.65 202.65 282.7 227.15 331.85 222.15 320.0 150.35 296.65 111.5 M143.05 48.9 L144.25 55.6 149.9 52.85 149.25 47.8 143.05 48.9 M99.25 92.55 L127.4 94.1 Q128.0 95.15 127.3 96.05 L127.0 96.35 121.15 100.25 115.25 104.0 162.55 137.05 109.4 60.6 99.25 64.95 99.25 92.55 M132.4 52.0 Q129.7 54.35 130.4 57.8 L133.9 58.85 133.05 51.5 132.4 52.0 M137.2 58.5 L141.5 56.8 140.1 49.45 136.05 50.35 Q135.7 54.1 136.9 57.7 L137.2 58.5 M150.1 84.6 L146.1 94.95 145.0 95.5 133.5 90.05 147.15 109.65 157.1 95.85 150.1 84.6 M144.05 91.95 L151.7 71.9 113.5 61.3 129.9 84.85 144.05 91.95 M79.15 71.95 L76.0 71.95 28.0 130.1 5.8 183.9 3.25 227.55 12.85 228.35 39.75 230.6 40.2 230.85 43.1 233.45 46.5 233.95 52.55 208.2 62.8 159.25 79.15 91.95 79.15 71.95 M30.85 246.0 L32.45 245.5 39.4 250.45 44.15 247.95 43.15 237.7 39.05 233.6 10.0 231.8 5.0 248.45 32.55 263.65 40.05 256.2 31.05 248.25 Q30.3 247.6 30.65 246.55 L30.85 246.0 M288.65 232.25 L287.65 242.5 292.4 245.0 298.85 240.4 299.35 240.1 Q300.75 239.85 301.1 241.2 301.35 242.0 300.6 242.7 L291.75 250.75 299.2 258.2 326.85 243.0 321.85 226.35 292.85 228.15 288.65 232.25" fill="#1a1a1a" fill-rule="evenodd" stroke="none"/>
      <path d="M215.6 95.0 L215.6 96.0 225.15 101.75 171.9 139.7 218.4 58.3 230.6 63.5 229.15 87.7 215.6 95.0 M233.55 64.2 L239.1 65.55 240.55 78.5 256.9 133.9 270.85 214.85 271.65 265.25 169.45 265.25 168.7 145.65 229.15 102.65 229.15 101.2 220.15 95.6 231.85 89.5 233.55 64.2 M296.65 111.5 L320.0 150.35 331.85 222.15 282.7 227.15 277.65 202.65 270.5 195.1 259.8 133.05 243.5 77.75 242.25 66.5 263.6 73.25 296.65 111.5 M165.9 144.15 L165.7 145.05 166.45 265.25 62.05 265.25 65.8 159.45 82.1 92.45 82.15 71.5 96.25 66.2 96.25 94.0 96.45 94.55 Q96.75 95.0 97.2 94.7 L121.4 96.45 111.45 103.05 Q111.25 103.2 111.2 103.45 110.85 104.4 111.7 105.15 L165.0 142.4 165.9 144.15 M99.25 92.55 L99.25 64.95 109.4 60.6 162.55 137.05 115.25 104.0 121.15 100.25 127.0 96.35 127.3 96.05 Q128.0 95.15 127.4 94.1 L99.25 92.55 M79.15 71.95 L79.15 91.95 62.8 159.25 52.55 208.2 46.5 233.95 43.1 233.45 40.2 230.85 39.75 230.6 12.85 228.35 3.25 227.55 5.8 183.9 28.0 130.1 76.0 71.95 79.15 71.95" fill="#591f0b" fill-rule="evenodd" stroke="none"/>
      <path d="M186.9 15.55 L175.0 13.75 Q179.3 7.35 185.1 12.1 186.7 13.35 186.9 15.55 M139.65 18.35 L142.9 13.75 150.3 7.9 Q153.9 13.0 147.75 16.15 144.0 18.05 139.65 18.35 M176.3 2.5 L177.0 2.45 182.75 7.4 182.0 7.65 Q177.35 7.0 176.3 2.5 M165.2 11.2 Q159.85 11.15 157.65 6.4 L156.95 4.4 Q164.85 4.0 172.55 5.9 170.75 10.8 165.2 11.2" fill="#ffffff" fill-rule="evenodd" stroke="none"/>
      <path d="M176.2 94.35 L181.9 84.5 184.15 91.75 Q184.55 92.95 185.85 92.8 L196.85 90.0 185.6 109.7 176.2 94.35 M212.6 62.35 L198.9 86.35 186.5 89.55 181.5 72.4 206.6 62.45 212.6 62.35 M144.05 91.95 L129.9 84.85 113.5 61.3 151.7 71.9 144.05 91.95 M150.1 84.6 L157.1 95.85 147.15 109.65 133.5 90.05 145.0 95.5 146.1 94.95 150.1 84.6" fill="#d1b8a2" fill-rule="evenodd" stroke="none"/>
      <path d="M139.7 24.8 L145.1 22.7 161.1 23.35 Q161.55 29.15 159.25 34.4 158.8 35.5 157.85 35.85 154.45 37.05 150.9 37.05 L144.05 37.05 141.95 36.85 140.95 36.45 Q138.1 30.85 139.7 24.8" fill="#000000" fill-rule="evenodd" stroke="none"/>
      <path d="M288.65 232.25 L292.85 228.15 321.85 226.35 326.85 243.0 299.2 258.2 291.75 250.75 300.6 242.7 Q301.35 242.0 301.1 241.2 300.75 239.85 299.35 240.1 L298.85 240.4 292.4 245.0 287.65 242.5 288.65 232.25 M30.85 246.0 L30.65 246.55 Q30.3 247.6 31.05 248.25 L40.05 256.2 32.55 263.65 5.0 248.45 10.0 231.8 39.05 233.6 43.15 237.7 44.15 247.95 39.4 250.45 32.45 245.5 30.85 246.0" fill="#e6c6b0" fill-rule="evenodd" stroke="none"/>
      <path d="M183.75 18.0 L191.85 19.65 181.8 19.9 183.75 18.0 M161.1 23.35 L171.3 23.15 170.2 23.7 Q167.8 24.8 167.0 27.25 L168.6 28.3 177.1 23.0 193.75 22.6 207.05 42.85 Q195.85 36.9 183.2 35.55 183.2 32.65 180.3 32.05 L179.45 31.95 Q178.1 33.95 180.15 35.25 L179.8 36.65 Q169.1 42.8 157.3 39.2 157.0 38.15 156.05 38.3 L155.35 38.3 154.35 39.8 153.9 39.7 Q151.85 39.25 150.9 37.05 154.45 37.05 157.85 35.85 158.8 35.5 159.25 34.4 161.55 29.15 161.1 23.35 M122.6 43.0 L133.75 27.05 139.7 24.8 Q138.1 30.85 140.95 36.45 L141.95 36.85 144.05 37.05 Q132.75 38.2 122.6 43.0 M176.35 29.1 L176.9 29.6 Q182.15 33.05 188.4 32.75 L188.95 31.6 188.45 30.65 183.85 29.3 192.6 28.55 192.7 27.95 Q192.8 26.85 191.8 26.6 L173.75 26.45 Q172.55 27.65 173.65 28.85 L176.35 29.1 M180.05 17.5 L176.15 20.0 151.05 20.55 154.85 19.35 Q167.35 15.4 180.05 17.5" fill="#f3e4de" fill-rule="evenodd" stroke="none"/>
      <path d="M182.75 7.4 Q186.45 11.45 189.3 15.95 L186.9 15.55 Q186.7 13.35 185.1 12.1 179.3 7.35 175.0 13.75 167.05 12.3 159.15 14.85 147.75 18.4 136.5 22.8 L139.65 18.35 Q144.0 18.05 147.75 16.15 153.9 13.0 150.3 7.9 L156.75 2.85 176.3 2.5 Q177.35 7.0 182.0 7.65 L182.75 7.4 M165.2 11.2 Q170.75 10.8 172.55 5.9 164.85 4.0 156.95 4.4 L157.65 6.4 Q159.85 11.15 165.2 11.2" fill="#990000" fill-rule="evenodd" stroke="none"/>
      <path d="M207.05 42.85 L215.5 55.7 169.85 73.8 112.5 57.55 122.6 43.0 Q132.75 38.2 144.05 37.05 L150.9 37.05 Q151.85 39.25 153.9 39.7 L154.35 39.8 Q158.1 42.85 163.0 43.05 154.85 43.6 147.0 45.15 138.5 46.8 130.75 50.5 128.35 51.6 127.95 54.25 126.85 61.35 134.95 61.7 136.1 61.6 142.65 58.4 149.15 55.2 158.5 52.85 167.75 50.45 176.65 53.9 185.5 57.35 192.75 58.5 200.0 59.6 200.95 56.1 200.05 53.35 198.35 51.25 196.8 49.3 194.75 48.2 183.7 42.55 170.65 43.25 174.1 42.95 177.4 41.9 182.7 40.35 183.2 35.55 195.85 36.9 207.05 42.85" fill="#819ec7" fill-rule="evenodd" stroke="none"/>
      <path d="M165.9 49.3 L165.75 46.05 176.1 46.45 176.0 51.3 Q170.7 49.45 165.9 49.3 M191.0 55.7 L191.1 49.6 192.9 50.35 Q196.4 52.05 198.25 55.55 197.4 56.8 195.85 56.45 L191.0 55.7 M179.1 46.85 L188.15 48.7 188.0 54.9 179.0 52.25 179.1 46.85 M162.75 46.05 L162.9 49.55 Q157.75 50.3 152.6 52.05 L152.25 47.3 162.75 46.05 M143.05 48.9 L149.25 47.8 149.9 52.85 144.25 55.6 143.05 48.9 M137.2 58.5 L136.9 57.7 Q135.7 54.1 136.05 50.35 L140.1 49.45 141.5 56.8 137.2 58.5 M132.4 52.0 L133.05 51.5 133.9 58.85 130.4 57.8 Q129.7 54.35 132.4 52.0" fill="#c1e3a4" fill-rule="evenodd" stroke="none"/>
      <path d="M180.65 80.65 L173.55 92.95 159.7 94.3 151.45 81.1 154.6 72.65 Q162.3 74.75 169.5 77.0 L178.15 73.75 180.65 80.65 M183.95 112.65 L168.25 140.05 149.0 112.3 159.75 97.35 173.7 95.95 183.95 112.65" fill="#331c1a" fill-rule="evenodd" stroke="none"/>
    </g>
    <g id="shape1" transform="matrix(1.0, 0.0, 0.0, 1.0, -0.15, 0.0)">
      <path d="M41.2 3.95 L41.15 4.0 41.3 4.0 44.35 3.65 45.1 3.6 49.85 3.3 50.1 7.7 50.1 10.1 49.75 10.45 47.5 10.8 45.55 11.05 44.6 11.15 36.4 11.95 33.15 17.35 Q38.35 28.65 45.4 38.9 L48.7 43.9 40.45 52.5 40.25 52.7 38.35 54.95 36.45 57.35 35.6 58.4 34.3 60.1 33.5 61.15 32.05 62.9 Q30.6 62.8 29.95 61.3 L29.3 60.4 28.2 58.8 27.65 57.95 26.25 56.0 25.6 55.0 Q21.25 48.5 15.35 43.2 L15.05 42.65 Q23.8 32.45 27.0 19.2 L27.55 17.35 24.35 12.1 15.95 11.2 14.75 11.05 12.8 10.8 11.4 10.55 Q10.85 10.45 10.8 10.0 L10.75 9.2 10.75 7.2 11.0 3.3 16.05 3.65 18.8 3.95 19.5 4.05 19.3 3.75 Q18.95 3.3 19.25 2.85 L19.5 2.5 23.6 2.4 36.5 2.4 41.35 2.85 41.2 3.95 M44.4 6.85 L42.0 9.25 42.85 9.45 Q44.45 9.3 44.6 7.7 L44.4 6.85 M41.3 8.5 L43.65 6.15 Q41.6 5.6 41.25 7.7 41.2 8.1 41.3 8.5 M41.15 9.85 Q40.25 9.15 40.1 7.7 40.25 6.15 41.3 5.45 L40.2 5.55 37.4 10.25 40.5 9.9 41.15 9.85 M43.9 5.2 Q45.4 5.8 45.6 7.7 L45.1 9.3 48.1 8.9 48.65 4.7 43.9 5.2 M41.95 38.2 L43.25 38.85 41.9 36.6 37.6 29.35 29.4 25.7 26.75 24.55 25.0 29.65 28.0 31.2 41.95 38.2 M41.95 42.6 Q41.05 43.25 41.3 44.35 L43.8 42.35 Q42.85 41.85 41.95 42.6 M44.15 45.15 L44.4 44.85 44.65 43.4 42.15 45.4 Q43.1 45.85 44.15 45.15 M39.1 48.25 L41.25 49.2 43.65 46.5 42.95 46.6 Q41.5 46.45 40.65 45.3 L40.2 43.85 40.4 42.95 26.4 36.65 22.6 35.0 19.65 39.65 20.85 40.15 22.1 39.8 23.45 40.4 25.05 42.0 39.1 48.25 M34.8 9.0 L35.5 9.6 38.0 5.3 36.5 4.05 35.25 4.1 29.2 4.25 34.8 9.0 M25.45 6.7 L22.5 4.4 22.0 4.4 Q24.5 8.6 27.15 12.45 28.0 13.7 29.3 14.6 L31.5 16.2 33.45 12.95 25.45 6.7 M20.7 6.0 L19.85 6.0 Q20.7 7.2 20.4 8.55 20.15 9.6 19.2 10.1 L23.4 10.5 20.7 6.0 M29.35 18.0 L28.25 20.0 29.85 20.75 34.35 22.7 32.2 18.0 29.35 18.0 M19.5 7.75 Q19.35 6.15 17.75 6.0 L16.95 6.25 19.3 8.6 19.5 7.75 M16.0 7.75 Q16.15 9.35 17.75 9.5 L18.6 9.3 16.25 6.95 Q16.05 7.25 16.0 7.75 M12.25 9.2 L15.8 9.7 Q14.6 8.25 15.3 6.7 L15.75 5.9 12.7 5.45 12.25 9.2 M23.25 41.2 L22.1 40.8 21.3 41.05 23.8 43.05 Q24.05 42.3 23.25 41.2 M20.35 42.55 Q20.5 44.15 22.1 44.3 L22.95 44.1 20.6 41.75 20.35 42.55 M25.05 47.75 L21.05 46.6 25.7 52.6 27.0 54.4 32.65 56.5 34.75 57.05 37.9 53.1 36.05 52.1 25.05 47.75" fill="#441c0c" fill-rule="evenodd" stroke="none"/>
      <path d="M41.3 4.0 L41.2 3.95 41.35 2.85 36.5 2.4 30.15 1.6 23.6 2.4 19.5 2.5 19.25 2.85 Q18.95 3.3 19.3 3.75 L18.8 3.95 16.05 3.65 Q20.25 1.5 25.0 0.6 L26.25 0.4 30.15 0.1 Q38.05 0.3 44.35 3.65 L41.3 4.0 M10.75 7.2 L10.75 9.2 9.9 10.0 Q1.8 18.1 1.5 30.25 1.8 42.4 9.9 50.5 17.35 57.95 28.2 58.8 L29.3 60.4 Q17.05 59.8 8.85 51.55 4.25 46.95 2.05 41.15 -2.2 29.0 3.1 17.3 5.8 11.45 10.75 7.2 M12.8 10.8 L14.75 11.05 Q8.85 15.8 6.5 23.15 3.4 33.0 8.5 42.1 13.6 51.25 23.55 53.95 L25.6 55.0 26.25 56.0 Q18.9 54.95 13.3 50.15 5.4 43.3 4.45 32.95 3.25 19.85 12.8 10.8 M34.3 60.1 L35.6 58.4 Q43.05 57.15 48.8 52.25 57.85 44.45 58.45 32.4 59.05 19.5 50.1 10.1 L50.1 7.7 51.45 8.95 Q60.0 17.45 60.3 30.25 60.0 43.05 51.45 51.55 44.35 58.7 34.3 60.1 M38.35 54.95 L40.25 52.7 Q51.55 47.35 54.05 35.2 56.15 25.1 50.65 16.55 48.6 13.3 45.55 11.05 L47.5 10.8 Q50.95 13.85 53.05 17.95 58.75 29.0 54.0 40.3 49.45 51.2 38.35 54.95" fill="#4f2713" fill-rule="evenodd" stroke="none"/>
      <path d="M41.3 4.0 L41.15 4.0 41.2 3.95 41.3 4.0 M36.5 2.4 L23.6 2.4 30.15 1.6 36.5 2.4 M19.3 3.75 L19.5 4.05 18.8 3.95 19.3 3.75 M10.75 9.2 L10.8 10.0 Q1.1 19.6 2.4 33.1 3.35 42.95 10.25 49.95 17.5 57.2 27.65 57.95 L28.2 58.8 Q17.35 57.95 9.9 50.5 1.8 42.4 1.5 30.25 1.8 18.1 9.9 10.0 L10.75 9.2 M35.6 58.4 L36.45 57.35 Q44.1 55.55 49.75 49.9 57.65 42.0 57.95 30.15 57.65 18.3 49.75 10.45 L50.1 10.1 Q59.05 19.5 58.45 32.4 57.85 44.45 48.8 52.25 43.05 57.15 35.6 58.4" fill="#a89678" fill-rule="evenodd" stroke="none"/>
      <path d="M45.1 3.6 L44.35 3.65 Q38.05 0.3 30.15 0.1 L26.25 0.4 30.75 0.0 Q38.75 0.2 45.1 3.6" fill="#724a30" fill-rule="evenodd" stroke="none"/>
      <path d="M41.3 8.5 Q41.2 8.1 41.25 7.7 41.6 5.6 43.65 6.15 L41.3 8.5 M44.4 6.85 L44.6 7.7 Q44.45 9.3 42.85 9.45 L42.0 9.25 44.4 6.85 M44.15 45.15 Q43.1 45.85 42.15 45.4 L44.65 43.4 44.4 44.85 44.15 45.15 M41.95 42.6 Q42.85 41.85 43.8 42.35 L41.3 44.35 Q41.05 43.25 41.95 42.6 M16.0 7.75 Q16.05 7.25 16.25 6.95 L18.6 9.3 17.75 9.5 Q16.15 9.35 16.0 7.75 M19.5 7.75 L19.3 8.6 16.95 6.25 17.75 6.0 Q19.35 6.15 19.5 7.75 M20.35 42.55 L20.6 41.75 22.95 44.1 22.1 44.3 Q20.5 44.15 20.35 42.55 M23.25 41.2 Q24.05 42.3 23.8 43.05 L21.3 41.05 22.1 40.8 23.25 41.2" fill="#d7cdbb" fill-rule="evenodd" stroke="none"/>
      <path d="M15.95 11.2 L24.35 12.1 27.55 17.35 27.0 19.2 Q23.8 32.45 15.05 42.65 L15.35 43.2 Q21.25 48.5 25.6 55.0 L23.55 53.95 22.3 52.95 Q17.25 51.25 13.4 47.45 6.8 40.95 6.55 30.8 6.8 20.6 13.4 13.55 14.6 12.25 15.95 11.2 M40.45 52.5 L48.7 43.9 45.4 38.9 Q38.35 28.65 33.15 17.35 L36.4 11.95 44.6 11.15 Q51.75 16.65 53.55 25.4 55.55 35.3 50.0 43.55 47.2 47.8 42.95 50.65 L40.45 52.5 M46.05 37.8 L48.6 41.5 Q50.4 39.45 51.3 36.9 52.6 33.25 52.4 29.4 51.85 18.25 43.0 11.75 L41.65 12.05 Q38.8 11.65 36.35 13.2 33.8 16.5 35.55 20.15 40.0 29.5 46.05 37.8 M14.45 42.25 Q18.5 37.2 21.35 31.55 L23.75 25.95 Q25.15 22.1 25.9 17.95 26.3 15.65 24.6 14.0 22.2 12.4 19.25 12.3 15.05 14.65 12.0 18.35 10.25 20.5 9.3 23.5 6.2 33.5 11.7 42.45 14.8 47.45 19.85 49.4 L18.65 48.0 Q17.45 46.65 15.95 45.75 13.95 44.4 14.45 42.25" fill="#a99b81" fill-rule="evenodd" stroke="none"/>
      <path d="M41.15 9.85 L40.5 9.9 37.4 10.25 40.2 5.55 41.3 5.45 Q40.25 6.15 40.1 7.7 40.25 9.15 41.15 9.85 M43.9 5.2 L48.65 4.7 48.1 8.9 45.1 9.3 45.6 7.7 Q45.4 5.8 43.9 5.2 M20.7 6.0 L23.4 10.5 19.2 10.1 Q20.15 9.6 20.4 8.55 20.7 7.2 19.85 6.0 L20.7 6.0 M12.25 9.2 L12.7 5.45 15.75 5.9 15.3 6.7 Q14.6 8.25 15.8 9.7 L12.25 9.2" fill="#b5a581" fill-rule="evenodd" stroke="none"/>
      <path d="M14.75 11.05 L15.95 11.2 Q14.6 12.25 13.4 13.55 6.8 20.6 6.55 30.8 6.8 40.95 13.4 47.45 17.25 51.25 22.3 52.95 L23.55 53.95 Q13.6 51.25 8.5 42.1 3.4 33.0 6.5 23.15 8.85 15.8 14.75 11.05 M40.25 52.7 L40.45 52.5 42.95 50.65 Q47.2 47.8 50.0 43.55 55.55 35.3 53.55 25.4 51.75 16.65 44.6 11.15 L45.55 11.05 Q48.6 13.3 50.65 16.55 56.15 25.1 54.05 35.2 51.55 47.35 40.25 52.7" fill="#887c64" fill-rule="evenodd" stroke="none"/>
      <path d="M10.8 10.0 Q10.85 10.45 11.4 10.55 L12.8 10.8 Q3.25 19.85 4.45 32.95 5.4 43.3 13.3 50.15 18.9 54.95 26.25 56.0 L27.65 57.95 Q17.5 57.2 10.25 49.95 3.35 42.95 2.4 33.1 1.1 19.6 10.8 10.0 M36.45 57.35 L38.35 54.95 Q49.45 51.2 54.0 40.3 58.75 29.0 53.05 17.95 50.95 13.85 47.5 10.8 L49.75 10.45 Q57.65 18.3 57.95 30.15 57.65 42.0 49.75 49.9 44.1 55.55 36.45 57.35" fill="#f0e6ca" fill-rule="evenodd" stroke="none"/>
      <path d="M36.35 13.2 Q38.8 11.65 41.65 12.05 L43.0 11.75 Q51.85 18.25 52.4 29.4 52.6 33.25 51.3 36.9 50.4 39.45 48.6 41.5 L46.05 37.8 Q50.35 29.45 46.7 20.6 43.8 13.75 36.35 13.2 M24.6 14.0 Q16.75 16.25 12.2 23.4 8.65 29.55 11.25 36.2 12.4 39.5 14.45 42.25 13.95 44.4 15.95 45.75 17.45 46.65 18.65 48.0 L19.85 49.4 Q14.8 47.45 11.7 42.45 6.2 33.5 9.3 23.5 10.25 20.5 12.0 18.35 15.05 14.65 19.25 12.3 22.2 12.4 24.6 14.0" fill="#c4b696" fill-rule="evenodd" stroke="none"/>
      <path d="M46.05 37.8 Q40.0 29.5 35.55 20.15 33.8 16.5 36.35 13.2 43.8 13.75 46.7 20.6 50.35 29.45 46.05 37.8 M24.6 14.0 Q26.3 15.65 25.9 17.95 25.15 22.1 23.75 25.95 L21.35 31.55 Q18.5 37.2 14.45 42.25 12.4 39.5 11.25 36.2 8.65 29.55 12.2 23.4 16.75 16.25 24.6 14.0" fill="#d8ceba" fill-rule="evenodd" stroke="none"/>
      <path d="M41.9 36.6 L43.25 38.85 41.95 38.2 41.9 36.6 M28.0 31.2 L25.0 29.65 26.75 24.55 29.4 25.7 28.0 31.2 M40.65 45.3 Q41.5 46.45 42.95 46.6 L43.65 46.5 41.25 49.2 39.1 48.25 40.65 45.3 M25.05 42.0 L23.45 40.4 22.1 39.8 20.85 40.15 19.65 39.65 22.6 35.0 26.4 36.65 25.05 42.0 M35.25 4.1 L36.5 4.05 38.0 5.3 35.5 9.6 34.8 9.0 35.25 4.1 M29.3 14.6 Q28.0 13.7 27.15 12.45 24.5 8.6 22.0 4.4 L22.5 4.4 25.45 6.7 26.55 8.3 Q28.7 11.05 29.3 14.6 M29.85 20.75 L28.25 20.0 29.35 18.0 29.85 20.75 M25.7 52.6 L21.05 46.6 25.05 47.75 25.7 52.6 M36.05 52.1 L37.9 53.1 34.75 57.05 32.65 56.5 36.05 52.1" fill="#af9f81" fill-rule="evenodd" stroke="none"/>
      <path d="M41.9 36.6 L41.95 38.2 28.0 31.2 29.4 25.7 37.6 29.35 41.9 36.6 M40.65 45.3 L39.1 48.25 25.05 42.0 26.4 36.65 40.4 42.95 40.2 43.85 40.65 45.3 M35.25 4.1 L34.8 9.0 29.2 4.25 35.25 4.1 M29.3 14.6 Q28.7 11.05 26.55 8.3 L25.45 6.7 33.45 12.95 31.5 16.2 29.3 14.6 M29.85 20.75 L29.35 18.0 32.2 18.0 34.35 22.7 29.85 20.75 M25.7 52.6 L25.05 47.75 36.05 52.1 32.65 56.5 27.0 54.4 25.7 52.6" fill="#c4b898" fill-rule="evenodd" stroke="none"/>
    </g>
    <g id="shape2" transform="matrix(1.0, 0.0, 0.0, 1.0, 0.0, 0.0)">
      <path d="M178.15 94.85 L162.3 98.0 169.45 103.15 169.7 104.05 169.3 105.1 101.3 177.15 96.85 262.8 96.75 263.35 95.85 264.1 117.9 263.65 171.3 264.7 171.3 263.9 163.55 199.7 Q168.8 193.5 179.3 182.9 L198.0 153.6 230.25 98.15 183.8 71.7 178.15 94.85 M176.25 92.3 L181.05 70.1 161.7 59.0 105.9 167.85 165.95 104.3 157.3 97.4 176.25 92.3 M8.45 243.45 Q7.75 242.75 7.55 241.95 3.55 227.0 1.95 211.7 -1.0 183.35 0.5 154.95 1.85 128.7 5.95 102.65 6.05 102.05 6.55 101.8 L63.25 66.6 83.15 54.35 92.05 1.65 Q92.25 0.6 93.5 0.4 L150.1 0.0 Q151.3 0.05 151.6 1.3 L159.2 53.8 Q160.2 55.2 161.6 55.9 171.3 61.1 180.95 66.6 L233.05 96.3 Q233.4 96.95 234.9 110.45 236.4 123.9 237.1 152.7 L238.15 197.85 238.4 214.4 235.35 222.3 227.45 242.4 228.25 244.75 204.9 265.75 202.85 265.65 183.55 245.95 185.55 241.8 181.85 222.3 Q178.55 207.05 174.7 191.95 L166.65 200.05 174.25 267.2 66.25 267.4 69.3 204.05 54.55 187.65 Q52.85 200.7 52.25 213.8 51.85 223.35 52.55 233.0 L53.8 234.35 51.3 243.65 48.15 241.75 50.65 235.35 35.05 223.45 22.8 225.8 10.8 241.55 9.35 240.7 8.95 240.75 Q7.05 241.7 8.45 243.45 M177.6 191.05 L187.35 234.8 196.15 224.3 209.9 225.7 211.3 227.25 225.35 239.65 231.0 222.3 Q233.65 215.35 234.6 213.85 235.6 212.15 234.8 165.5 233.95 118.8 231.45 102.05 L177.6 191.05 M138.7 10.6 L142.05 11.2 Q142.3 10.5 142.05 9.65 141.4 7.7 139.5 7.15 L138.2 7.6 132.5 9.45 138.7 10.6 M130.6 8.3 L130.95 7.35 Q138.4 3.75 146.55 3.15 L147.35 4.05 146.65 5.95 143.55 6.25 144.6 8.3 144.95 9.65 145.05 11.85 149.15 13.8 147.5 15.6 128.1 11.05 127.7 10.15 127.7 10.05 127.6 10.15 125.65 11.35 125.05 11.35 138.2 43.4 137.4 44.15 132.1 41.8 118.3 50.2 107.95 40.4 101.35 42.65 100.65 42.0 115.2 11.65 112.5 12.35 109.8 13.05 Q103.35 14.95 97.35 12.5 L97.35 11.4 100.0 10.8 99.25 6.35 96.3 5.65 96.65 3.4 94.8 3.4 86.4 54.05 111.9 59.95 118.1 60.55 121.2 60.5 124.25 60.25 Q140.4 58.15 156.15 53.45 L148.8 3.0 99.55 3.35 112.6 7.25 112.15 7.3 111.15 8.45 Q111.05 8.95 111.35 9.4 111.6 9.85 112.15 10.0 L115.65 10.7 118.75 8.0 127.3 8.15 127.9 8.85 127.9 9.55 Q129.3 8.3 131.15 9.2 L130.6 8.3 M122.0 28.0 L132.55 36.25 121.25 11.05 119.1 11.05 106.8 35.25 122.0 28.0 M131.05 38.95 L121.6 31.3 109.2 37.4 118.65 46.95 131.05 38.95 M106.2 10.2 L110.45 9.45 106.8 8.25 102.3 7.2 102.25 7.8 Q102.75 11.25 106.2 10.2 M115.8 64.55 L117.1 74.15 123.1 73.6 123.65 64.45 115.8 64.55 M113.5 64.6 L114.15 64.15 101.5 61.0 104.05 83.65 114.15 74.85 113.5 64.6 M99.1 60.4 L86.55 57.15 94.45 76.45 96.8 77.85 99.9 72.0 99.1 60.4 M97.85 81.15 Q98.3 85.6 105.95 96.5 113.6 107.35 117.1 111.4 L118.15 77.05 115.9 77.25 102.3 87.95 100.4 77.4 97.85 81.15 M157.4 56.2 L139.9 60.35 139.15 74.25 142.55 79.15 Q153.75 70.35 159.0 57.65 L157.4 56.2 M136.85 60.75 L125.8 63.9 126.1 74.3 135.7 81.95 136.85 60.75 M137.7 86.3 L124.1 76.55 121.2 76.8 120.1 110.2 Q134.45 95.25 148.8 78.05 L142.85 82.75 138.9 79.1 137.7 86.3 M58.2 73.35 L8.95 103.45 Q21.8 129.9 36.35 155.4 44.6 169.75 55.15 182.8 63.25 192.85 71.9 202.55 L72.25 203.05 68.75 264.7 94.25 263.7 94.0 263.25 93.9 262.65 98.45 176.45 98.65 175.65 112.0 149.35 75.3 106.55 81.45 96.8 64.6 94.7 58.2 73.35 M60.9 71.7 L66.75 92.15 85.1 94.55 78.7 106.35 113.5 146.45 117.4 138.75 83.4 57.9 60.9 71.7 M33.85 157.1 Q20.0 133.05 7.9 108.1 4.45 131.45 3.35 154.95 2.0 183.15 4.8 211.25 6.15 225.0 9.3 238.55 L21.2 223.15 35.15 220.4 49.35 230.6 Q48.7 222.0 49.2 213.55 50.0 199.0 51.9 184.6 42.0 171.3 33.85 157.1 M116.75 115.4 L104.15 99.0 112.45 119.25 116.75 115.4 M119.65 136.3 L127.35 120.9 114.95 125.2 119.65 136.3 M129.3 117.05 L143.65 87.85 113.75 122.25 129.3 117.05 M47.7 243.0 L49.0 245.8 Q41.85 249.2 34.1 245.3 L31.9 244.35 31.1 247.25 28.7 247.25 32.3 235.85 32.65 241.4 Q40.15 246.5 47.7 243.0 M217.4 235.6 L208.95 227.25 197.45 227.15 189.3 237.15 189.45 239.45 197.4 245.9 201.05 244.9 Q200.8 244.0 200.9 243.15 200.95 242.65 201.4 242.3 L201.85 242.05 202.35 242.25 202.85 242.45 203.15 242.8 204.8 244.8 Q207.5 247.55 205.8 250.15 L202.55 247.6 196.45 248.85 188.6 242.65 186.9 245.25 203.95 262.55 224.8 243.9 217.4 235.6" fill="#1a1a1a" fill-rule="evenodd" stroke="none"/>
      <path d="M178.15 94.85 L183.8 71.7 230.25 98.15 198.0 153.6 179.3 182.9 Q168.8 193.5 163.55 199.7 L171.3 263.9 171.3 264.7 117.9 263.65 95.85 264.1 96.75 263.35 96.85 262.8 101.3 177.15 169.3 105.1 169.7 104.05 169.45 103.15 162.3 98.0 178.15 94.85 M176.25 92.3 L157.3 97.4 165.95 104.3 105.9 167.85 161.7 59.0 181.05 70.1 176.25 92.3 M177.6 191.05 L231.45 102.05 Q233.95 118.8 234.8 165.5 235.6 212.15 234.6 213.85 233.65 215.35 231.0 222.3 L225.35 239.65 211.3 227.25 209.9 225.7 196.15 224.3 187.35 234.8 177.6 191.05 M58.2 73.35 L64.6 94.7 81.45 96.8 75.3 106.55 112.0 149.35 98.65 175.65 98.45 176.45 93.9 262.65 94.0 263.25 94.25 263.7 68.75 264.7 72.25 203.05 71.9 202.55 Q63.25 192.85 55.15 182.8 44.6 169.75 36.35 155.4 21.8 129.9 8.95 103.45 L58.2 73.35 M60.9 71.7 L83.4 57.9 117.4 138.75 113.5 146.45 78.7 106.35 85.1 94.55 66.75 92.15 60.9 71.7 M33.85 157.1 Q42.0 171.3 51.9 184.6 50.0 199.0 49.2 213.55 48.7 222.0 49.35 230.6 L35.15 220.4 21.2 223.15 9.3 238.55 Q6.15 225.0 4.8 211.25 2.0 183.15 3.35 154.95 4.45 131.45 7.9 108.1 20.0 133.05 33.85 157.1" fill="#3a3d6a" fill-rule="evenodd" stroke="none"/>
      <path d="M127.7 10.15 L128.1 11.05 147.5 15.6 149.15 13.8 145.05 11.85 144.95 9.65 144.6 8.3 143.55 6.25 146.65 5.95 147.35 4.05 146.55 3.15 Q138.4 3.75 130.95 7.35 L130.6 8.3 127.9 8.85 127.3 8.15 118.75 8.0 115.65 10.7 112.15 10.0 115.15 9.55 111.15 8.45 112.15 7.3 112.6 7.25 99.55 3.35 148.8 3.0 156.15 53.45 Q140.4 58.15 124.25 60.25 L121.2 60.5 118.1 60.55 111.9 59.95 86.4 54.05 94.8 3.4 96.65 3.4 96.3 5.65 99.25 6.35 100.0 10.8 97.35 11.4 97.35 12.5 Q103.35 14.95 109.8 13.05 L112.5 12.35 115.2 11.65 100.65 42.0 101.35 42.65 107.95 40.4 118.3 50.2 132.1 41.8 137.4 44.15 138.2 43.4 125.05 11.35 125.65 11.35 127.6 10.15 127.7 10.15" fill="#cacfe6" fill-rule="evenodd" stroke="none"/>
      <path d="M138.2 7.6 L139.5 7.15 Q141.4 7.7 142.05 9.65 142.3 10.5 142.05 11.2 L138.7 10.6 138.2 7.6 M106.8 8.25 L106.5 8.5 Q105.7 9.2 106.2 10.2 102.75 11.25 102.25 7.8 L102.3 7.2 106.8 8.25" fill="#ffffff" fill-rule="evenodd" stroke="none"/>
      <path d="M8.45 243.45 Q7.05 241.7 8.95 240.75 L9.35 240.7 10.8 241.55 32.75 262.8 50.65 249.2 49.0 245.8 47.7 243.0 48.15 241.75 51.3 243.65 54.35 249.35 33.05 266.25 8.45 243.45 M138.7 10.6 L132.5 9.45 138.2 7.6 138.7 10.6 M130.6 8.3 L131.15 9.2 Q129.3 8.3 127.9 9.55 L127.9 8.85 130.6 8.3 M112.15 10.0 Q111.6 9.85 111.35 9.4 111.05 8.95 111.15 8.45 L115.15 9.55 112.15 10.0 M127.6 10.15 L127.7 10.05 127.7 10.15 127.6 10.15 M106.8 8.25 L110.45 9.45 106.2 10.2 Q105.7 9.2 106.5 8.5 L106.8 8.25" fill="#000000" fill-rule="evenodd" stroke="none"/>
      <path d="M113.5 64.6 L114.15 74.85 104.05 83.65 101.5 61.0 114.15 64.15 113.5 64.6 M115.8 64.55 L123.65 64.45 123.1 73.6 117.1 74.15 115.8 64.55 M136.85 60.75 L135.7 81.95 126.1 74.3 125.8 63.9 136.85 60.75" fill="#990000" fill-rule="evenodd" stroke="none"/>
      <path d="M157.4 56.2 L159.0 57.65 Q153.75 70.35 142.55 79.15 L139.15 74.25 139.9 60.35 157.4 56.2 M97.85 81.15 L100.4 77.4 102.3 87.95 115.9 77.25 118.15 77.05 117.1 111.4 Q113.6 107.35 105.95 96.5 98.3 85.6 97.85 81.15 M99.1 60.4 L99.9 72.0 96.8 77.85 94.45 76.45 86.55 57.15 99.1 60.4 M137.7 86.3 L138.9 79.1 142.85 82.75 148.8 78.05 Q134.45 95.25 120.1 110.2 L121.2 76.8 124.1 76.55 137.7 86.3 M129.3 117.05 L113.75 122.25 143.65 87.85 129.3 117.05 M119.65 136.3 L114.95 125.2 127.35 120.9 119.65 136.3 M116.75 115.4 L112.45 119.25 104.15 99.0 116.75 115.4" fill="#d7dcec" fill-rule="evenodd" stroke="none"/>
      <path d="M10.8 241.55 L22.8 225.8 35.05 223.45 50.65 235.35 48.15 241.75 47.7 243.0 Q40.15 246.5 32.65 241.4 L32.3 235.85 28.7 247.25 31.1 247.25 31.9 244.35 34.1 245.3 Q41.85 249.2 49.0 245.8 L50.65 249.2 32.75 262.8 10.8 241.55 M217.4 235.6 L224.8 243.9 203.95 262.55 186.9 245.25 188.6 242.65 196.45 248.85 202.55 247.6 205.8 250.15 Q207.5 247.55 204.8 244.8 L203.15 242.8 202.85 242.45 202.35 242.25 201.85 242.05 201.4 242.3 Q200.95 242.65 200.9 243.15 200.8 244.0 201.05 244.9 L197.4 245.9 189.45 239.45 189.3 237.15 197.45 227.15 208.95 227.25 217.4 235.6" fill="#373a48" fill-rule="evenodd" stroke="none"/>
      <path d="M131.05 38.95 L118.65 46.95 109.2 37.4 121.6 31.3 131.05 38.95 M122.0 28.0 L106.8 35.25 119.1 11.05 121.25 11.05 132.55 36.25 122.0 28.0" fill="#64442f" fill-rule="evenodd" stroke="none"/>
    </g>
    <g id="shape3" transform="matrix(1.0, 0.0, 0.0, 1.0, -0.05, 0.0)">
      <path d="M40.95 2.45 L41.9 2.8 Q42.4 1.4 44.05 1.25 46.25 1.45 46.45 3.8 L46.45 6.35 48.8 8.45 Q56.9 16.5 57.2 28.65 56.85 40.75 48.8 48.85 42.05 55.65 32.45 56.95 L32.05 57.95 Q31.35 59.0 29.8 59.15 28.3 59.0 27.6 58.05 L27.2 57.2 Q16.0 56.45 8.4 48.85 3.45 43.9 1.4 37.45 -0.45 31.7 0.25 25.75 1.75 13.25 11.8 5.55 L12.4 3.05 Q13.25 0.65 15.6 1.55 16.3 1.85 16.4 2.8 L17.0 2.55 Q21.85 0.45 27.2 0.1 33.95 0.0 40.1 2.5 L40.95 2.45 M40.75 9.5 L41.65 9.15 41.65 3.8 40.95 3.4 Q39.9 3.3 39.45 4.1 L39.5 20.75 40.05 21.3 41.6 21.05 41.65 14.2 41.0 13.95 Q39.6 13.25 39.65 11.65 39.65 10.3 40.75 9.5 M43.6 13.8 L42.65 14.2 Q42.3 22.35 43.9 21.75 L44.95 21.3 44.95 2.65 Q44.35 2.05 43.6 2.4 42.9 2.55 42.75 3.3 L42.65 9.15 43.55 9.5 Q44.2 9.85 44.5 10.65 L44.55 12.55 Q44.25 13.35 43.6 13.8 M42.85 10.1 L41.65 10.1 43.85 12.05 42.85 10.1 M40.75 10.9 L40.5 11.65 Q40.7 13.2 42.15 13.3 L42.65 13.2 40.75 10.9 M33.35 54.6 L33.1 55.4 Q42.4 53.9 48.75 46.85 56.75 37.95 55.55 25.9 54.45 15.35 46.45 8.2 L46.45 9.2 46.45 11.55 Q53.05 18.45 53.3 28.6 53.05 39.1 46.05 46.1 40.85 51.3 33.75 52.75 L33.35 54.6 M34.15 50.65 L34.05 51.35 Q40.4 49.85 45.1 45.15 51.7 38.55 51.95 28.6 51.75 19.75 46.45 13.6 L46.45 14.6 Q46.75 17.8 46.0 20.7 45.25 23.6 42.2 21.75 L41.45 22.0 Q39.2 22.8 38.3 20.55 L33.3 21.2 33.3 23.05 33.95 23.4 Q35.1 23.95 34.9 25.15 L34.35 26.45 32.4 27.25 32.4 29.2 33.85 30.25 33.95 31.8 32.3 32.9 Q34.1 41.75 34.15 50.65 M38.25 4.0 L38.65 3.4 Q29.1 -0.05 19.35 3.1 L19.75 3.6 20.0 4.15 Q29.1 3.05 38.25 4.0 M25.35 51.1 L25.1 48.35 Q25.25 40.65 27.35 32.9 26.65 32.65 26.2 32.25 24.7 30.8 26.4 29.55 L26.9 29.2 26.9 27.25 Q25.3 27.3 24.75 25.95 L24.5 24.95 Q24.55 24.05 25.5 23.4 L26.0 23.05 26.0 21.35 19.95 20.65 Q19.2 22.95 16.85 21.95 L16.1 21.7 Q15.1 23.2 13.3 22.4 12.1 22.0 12.05 20.75 L11.8 13.3 11.8 12.35 Q5.45 18.9 5.2 28.6 5.45 38.55 12.05 45.15 17.6 50.7 25.5 51.75 L25.35 51.1 M16.8 15.6 L16.5 20.75 17.35 21.35 Q18.95 21.55 19.0 19.95 19.1 12.15 18.85 4.35 L18.65 3.7 17.7 3.35 16.6 3.85 16.95 9.95 Q17.9 10.35 18.3 11.4 L18.35 13.15 16.85 14.9 16.8 15.6 M38.2 19.4 L38.2 5.0 Q29.6 4.0 20.9 5.1 L20.0 5.2 20.1 19.4 Q29.1 21.65 38.2 19.4 M33.5 24.4 Q33.3 23.9 32.85 23.9 L27.1 23.4 Q24.95 24.0 26.25 25.85 L26.9 26.45 32.3 26.4 Q33.3 26.4 33.55 25.55 33.7 24.95 33.5 24.4 M27.15 21.35 L27.15 22.95 32.0 22.95 32.0 21.35 27.15 21.35 M15.1 9.8 L15.65 9.7 15.35 3.25 14.95 2.65 14.2 2.25 Q12.95 2.6 12.95 4.0 L13.1 20.6 Q13.1 21.5 14.2 21.7 15.6 21.55 15.55 20.15 L15.3 15.05 Q13.7 14.6 13.35 13.25 L13.3 11.85 Q13.6 10.25 15.1 9.8 M26.35 54.95 L25.85 53.15 Q17.2 52.25 11.1 46.1 3.0 37.75 4.15 26.1 5.05 16.85 11.8 10.5 L11.8 8.1 11.8 7.3 Q2.9 14.65 1.7 25.95 0.55 37.1 7.7 45.9 15.0 54.85 26.6 55.7 L26.35 54.95 M17.25 11.6 L16.6 10.8 15.15 10.8 17.3 13.05 17.25 11.6 M14.45 11.5 L14.2 12.25 Q14.3 13.7 15.85 13.9 L16.6 13.7 14.45 11.5 M27.3 30.4 L26.75 31.15 27.3 32.2 32.6 31.95 32.8 30.9 32.4 30.15 31.05 30.2 27.3 30.4 M31.25 29.1 L31.25 27.25 28.2 27.25 28.3 29.1 31.25 29.1 M32.6 42.15 Q32.15 37.5 31.2 32.9 L28.45 32.9 27.2 39.55 Q26.25 45.2 26.95 51.0 L27.15 52.3 27.15 52.25 Q27.35 49.85 29.75 49.65 31.9 49.85 32.3 51.85 33.05 47.05 32.6 42.15 M30.7 58.1 L32.0 53.55 Q31.35 54.95 29.75 54.85 27.85 54.65 27.35 53.05 L28.65 57.7 30.7 58.1 M29.0 53.7 L29.75 53.95 Q31.9 53.5 31.2 51.5 L29.0 53.7 M29.75 50.6 Q28.25 50.75 28.1 52.25 L28.35 53.05 30.55 50.85 29.75 50.6" fill="#212753" fill-rule="evenodd" stroke="none"/>
      <path d="M40.95 2.45 L40.1 2.5 Q33.95 0.0 27.2 0.1 L29.2 0.0 Q35.6 0.15 40.95 2.45 M46.45 9.2 L46.45 8.2 Q54.45 15.35 55.55 25.9 56.75 37.95 48.75 46.85 42.4 53.9 33.1 55.4 L33.35 54.6 Q44.1 52.5 50.45 43.3 55.05 36.65 54.95 28.6 54.75 17.0 46.45 9.2 M46.45 14.6 L46.45 13.6 Q51.75 19.75 51.95 28.6 51.7 38.55 45.1 45.15 40.4 49.85 34.05 51.35 L34.15 50.65 Q40.2 49.15 44.65 44.7 51.05 38.3 51.3 28.65 51.15 20.45 46.45 14.6 M19.75 3.6 L19.35 3.1 Q29.1 -0.05 38.65 3.4 L38.25 4.0 Q33.8 2.25 28.5 2.1 23.8 2.25 19.75 3.6 M25.35 51.1 L25.5 51.75 Q17.6 50.7 12.05 45.15 5.45 38.55 5.2 28.6 5.45 18.9 11.8 12.35 L11.8 13.3 Q6.1 19.55 5.85 28.65 6.1 38.3 12.5 44.7 17.85 50.0 25.35 51.1 M26.35 54.95 L26.6 55.7 Q15.0 54.85 7.7 45.9 0.55 37.1 1.7 25.95 2.9 14.65 11.8 7.3 L11.8 8.1 Q3.55 15.15 2.3 25.9 1.25 35.3 6.7 43.25 13.85 53.8 26.35 54.95" fill="#514f6f" fill-rule="evenodd" stroke="none"/>
      <path d="M41.0 13.95 L41.65 14.2 41.6 21.05 40.05 21.3 39.5 20.75 39.45 4.1 Q39.9 3.3 40.95 3.4 L41.65 3.8 41.65 9.15 40.75 9.5 40.4 4.85 Q39.7 5.45 39.65 6.45 39.35 12.5 39.85 18.55 39.95 19.55 40.65 19.75 41.55 19.1 41.5 17.7 L41.0 13.95 M43.55 9.5 L42.65 9.15 42.75 3.3 Q42.9 2.55 43.6 2.4 44.35 2.05 44.95 2.65 L44.95 21.3 43.9 21.75 Q42.3 22.35 42.65 14.2 L43.6 13.8 44.0 20.3 44.55 12.55 44.5 10.65 44.25 4.4 43.55 4.3 43.55 9.5 M36.15 9.6 Q34.9 7.5 32.4 7.85 29.75 8.15 27.1 7.8 24.95 7.25 23.1 8.3 20.7 10.35 22.5 12.35 24.25 14.4 26.55 15.0 L31.75 15.4 Q34.7 15.25 36.3 13.5 37.3 11.55 36.15 9.6 M27.5 24.1 L27.45 24.1 Q26.9 24.25 26.9 24.5 26.85 24.85 27.9 25.35 L30.85 25.25 Q31.6 24.85 31.6 24.5 31.5 24.1 30.4 23.85 L27.5 24.1 M27.15 21.35 L32.0 21.35 32.0 22.95 27.15 22.95 27.15 21.35 M33.5 24.4 Q33.7 24.95 33.55 25.55 33.3 26.4 32.3 26.4 L26.9 26.45 26.25 25.85 Q24.95 24.0 27.1 23.4 L32.85 23.9 Q33.3 23.9 33.5 24.4 M38.2 19.4 Q29.1 21.65 20.1 19.4 L20.0 5.2 20.9 5.1 Q29.6 4.0 38.2 5.0 L38.2 19.4 M16.95 9.95 L16.6 3.85 17.7 3.35 18.65 3.7 18.85 4.35 Q19.1 12.15 19.0 19.95 18.95 21.55 17.35 21.35 L16.5 20.75 16.8 15.6 17.85 19.6 18.35 13.15 18.3 11.4 17.45 5.4 16.95 9.95 M15.3 15.05 L15.55 20.15 Q15.6 21.55 14.2 21.7 13.1 21.5 13.1 20.6 L12.95 4.0 Q12.95 2.6 14.2 2.25 L14.95 2.65 15.35 3.25 15.65 9.7 15.1 9.8 14.3 3.55 13.4 4.2 13.3 11.85 13.35 13.25 14.15 20.3 14.85 20.25 15.3 15.05 M31.05 30.2 L32.4 30.15 32.8 30.9 32.6 31.95 27.3 32.2 26.75 31.15 27.3 30.4 27.4 31.15 31.25 31.35 31.5 30.7 31.05 30.2 M31.25 29.1 L28.3 29.1 28.2 27.25 31.25 27.25 31.25 29.1 M27.9 48.35 Q29.05 49.75 30.55 48.65 32.0 47.2 31.6 44.95 31.65 41.3 30.8 37.75 30.7 36.45 29.75 35.6 28.7 35.65 28.3 38.1 27.95 40.5 27.95 41.5 26.8 45.1 27.9 48.35 M32.6 42.15 Q33.05 47.05 32.3 51.85 31.9 49.85 29.75 49.65 27.35 49.85 27.15 52.25 L27.15 52.3 26.95 51.0 Q26.25 45.2 27.2 39.55 L28.45 32.9 31.2 32.9 Q32.15 37.5 32.6 42.15 M30.7 58.1 L28.65 57.7 27.35 53.05 Q27.85 54.65 29.75 54.85 31.35 54.95 32.0 53.55 L30.7 58.1 M29.1 55.9 Q28.65 57.55 30.25 57.4 31.35 56.6 30.65 55.85 L29.1 55.9" fill="#69839d" fill-rule="evenodd" stroke="none"/>
      <path d="M40.75 9.5 Q39.65 10.3 39.65 11.65 39.6 13.25 41.0 13.95 L41.5 17.7 Q41.55 19.1 40.65 19.75 39.95 19.55 39.85 18.55 39.35 12.5 39.65 6.45 39.7 5.45 40.4 4.85 L40.75 9.5 M43.55 9.5 L43.55 4.3 44.25 4.4 44.5 10.65 Q44.2 9.85 43.55 9.5 M44.55 12.55 L44.0 20.3 43.6 13.8 Q44.25 13.35 44.55 12.55 M34.2 11.4 L33.9 10.25 26.9 9.5 Q25.3 9.3 24.4 10.6 24.5 12.95 27.0 13.65 31.6 14.85 34.2 11.4 M36.15 9.6 Q37.3 11.55 36.3 13.5 34.7 15.25 31.75 15.4 L26.55 15.0 Q24.25 14.4 22.5 12.35 20.7 10.35 23.1 8.3 24.95 7.25 27.1 7.8 29.75 8.15 32.4 7.85 34.9 7.5 36.15 9.6 M27.5 24.1 L30.4 23.85 Q31.5 24.1 31.6 24.5 31.6 24.85 30.85 25.25 L27.9 25.35 Q26.85 24.85 26.9 24.5 26.9 24.25 27.45 24.1 L27.5 24.1 M16.8 15.6 L16.85 14.9 18.35 13.15 17.85 19.6 16.8 15.6 M18.3 11.4 Q17.9 10.35 16.95 9.95 L17.45 5.4 18.3 11.4 M15.3 15.05 L14.85 20.25 14.15 20.3 13.35 13.25 Q13.7 14.6 15.3 15.05 M13.3 11.85 L13.4 4.2 14.3 3.55 15.1 9.8 Q13.6 10.25 13.3 11.85 M27.3 30.4 L31.05 30.2 31.5 30.7 31.25 31.35 27.4 31.15 27.3 30.4 M27.9 48.35 Q26.8 45.1 27.95 41.5 27.95 40.5 28.3 38.1 28.7 35.65 29.75 35.6 30.7 36.45 30.8 37.75 31.65 41.3 31.6 44.95 32.0 47.2 30.55 48.65 29.05 49.75 27.9 48.35 M29.1 55.9 L30.65 55.85 Q31.35 56.6 30.25 57.4 28.65 57.55 29.1 55.9" fill="#899db1" fill-rule="evenodd" stroke="none"/>
      <path d="M40.75 10.9 L42.65 13.2 42.15 13.3 Q40.7 13.2 40.5 11.65 L40.75 10.9 M42.85 10.1 L43.85 12.05 41.65 10.1 42.85 10.1 M14.45 11.5 L16.6 13.7 15.85 13.9 Q14.3 13.7 14.2 12.25 L14.45 11.5 M17.25 11.6 L17.3 13.05 15.15 10.8 16.6 10.8 17.25 11.6 M29.75 50.6 L30.55 50.85 28.35 53.05 28.1 52.25 Q28.25 50.75 29.75 50.6 M29.0 53.7 L31.2 51.5 Q31.9 53.5 29.75 53.95 L29.0 53.7" fill="#a1b1c1" fill-rule="evenodd" stroke="none"/>
      <path d="M33.35 54.6 L33.75 52.75 Q40.85 51.3 46.05 46.1 53.05 39.1 53.3 28.6 53.05 18.45 46.45 11.55 L46.45 9.2 Q54.75 17.0 54.95 28.6 55.05 36.65 50.45 43.3 44.1 52.5 33.35 54.6 M45.35 22.9 Q47.1 21.7 46.9 19.6 L46.55 17.25 Q49.55 22.9 49.55 29.45 49.05 40.8 38.0 44.45 L34.9 45.55 34.8 45.15 34.35 43.45 Q38.75 41.7 42.1 38.05 45.75 33.5 45.85 27.7 45.85 25.2 45.35 22.9 M38.25 4.0 Q29.1 3.05 20.0 4.15 L19.75 3.6 Q23.8 2.25 28.5 2.1 33.8 2.25 38.25 4.0 M24.25 45.1 Q24.15 46.55 24.3 47.8 17.65 47.8 13.35 43.15 8.2 37.55 7.7 29.6 7.2 22.7 11.3 17.35 L11.35 17.65 Q11.15 19.95 11.85 21.75 7.8 29.5 12.4 37.1 16.5 43.85 24.25 45.1 M11.8 8.1 L11.8 10.5 Q5.05 16.85 4.15 26.1 3.0 37.75 11.1 46.1 17.2 52.25 25.85 53.15 L26.35 54.95 Q13.85 53.8 6.7 43.25 1.25 35.3 2.3 25.9 3.55 15.15 11.8 8.1" fill="#afc1d9" fill-rule="evenodd" stroke="none"/>
      <path d="M34.15 50.65 Q34.1 41.75 32.3 32.9 L33.95 31.8 34.35 43.45 34.8 45.15 34.9 45.55 38.0 44.45 Q49.05 40.8 49.55 29.45 49.55 22.9 46.55 17.25 L46.9 19.6 Q47.1 21.7 45.35 22.9 L35.9 22.55 34.9 25.15 Q35.1 23.95 33.95 23.4 L33.3 23.05 33.3 21.2 38.3 20.55 Q39.2 22.8 41.45 22.0 L42.2 21.75 Q45.25 23.6 46.0 20.7 46.75 17.8 46.45 14.6 51.15 20.45 51.3 28.65 51.05 38.3 44.65 44.7 40.2 49.15 34.15 50.65 M33.85 30.25 L32.4 29.2 32.4 27.25 34.35 26.45 33.6 28.35 33.85 30.25 M24.25 45.1 L24.95 39.9 Q25.7 35.8 24.45 31.95 L25.5 28.35 23.3 25.55 24.45 22.3 Q22.8 22.45 21.25 23.1 17.0 25.0 12.6 23.2 L11.85 21.75 Q11.15 19.95 11.35 17.65 L11.3 17.35 Q7.2 22.7 7.7 29.6 8.2 37.55 13.35 43.15 17.65 47.8 24.3 47.8 24.15 46.55 24.25 45.1 M11.8 13.3 L12.05 20.75 Q12.1 22.0 13.3 22.4 15.1 23.2 16.1 21.7 L16.85 21.95 Q19.2 22.95 19.95 20.65 L26.0 21.35 26.0 23.05 25.5 23.4 Q24.55 24.05 24.5 24.95 L24.75 25.95 Q25.3 27.3 26.9 27.25 L26.9 29.2 26.4 29.55 Q24.7 30.8 26.2 32.25 26.65 32.65 27.35 32.9 25.25 40.65 25.1 48.35 L25.35 51.1 Q17.85 50.0 12.5 44.7 6.1 38.3 5.85 28.65 6.1 19.55 11.8 13.3" fill="#9ab4cc" fill-rule="evenodd" stroke="none"/>
      <path d="M33.95 31.8 L33.85 30.25 33.6 28.35 34.35 26.45 34.9 25.15 35.9 22.55 45.35 22.9 Q45.85 25.2 45.85 27.7 45.75 33.5 42.1 38.05 38.75 41.7 34.35 43.45 L33.95 31.8 M11.85 21.75 L12.6 23.2 Q17.0 25.0 21.25 23.1 22.8 22.45 24.45 22.3 L23.3 25.55 25.5 28.35 24.45 31.95 Q25.7 35.8 24.95 39.9 L24.25 45.1 Q16.5 43.85 12.4 37.1 7.8 29.5 11.85 21.75" fill="#c5d3e3" fill-rule="evenodd" stroke="none"/>
      <path d="M34.2 11.4 Q31.6 14.85 27.0 13.65 24.5 12.95 24.4 10.6 25.3 9.3 26.9 9.5 L33.9 10.25 34.2 11.4" fill="#a1b3bf" fill-rule="evenodd" stroke="none"/>
    </g>
    <g id="shape4" transform="matrix(1.0, 0.0, 0.0, 1.0, 0.0, 0.0)">
      <path d="M166.8 63.35 L134.25 55.8 125.95 53.4 Q109.35 48.7 93.5 41.95 67.5 30.7 41.75 18.65 24.0 10.4 6.1 2.5 4.65 3.15 2.55 5.6 0.45 8.05 4.2 18.65 7.9 29.25 15.85 43.75 L16.35 43.55 Q16.5 41.65 16.8 39.8 17.3 37.05 19.7 36.7 21.45 36.75 22.5 38.25 24.6 41.4 24.85 45.25 L27.45 46.8 28.75 43.6 Q29.05 42.95 29.65 42.55 30.2 42.1 30.85 41.85 L32.1 42.05 33.1 43.35 33.6 44.45 34.35 47.85 34.75 51.6 39.1 55.1 Q40.4 53.05 42.25 51.35 43.2 50.6 44.3 50.35 45.1 50.35 45.75 50.8 47.6 51.95 47.5 54.05 47.35 57.55 45.65 60.5 L48.2 62.85 Q51.05 58.5 55.7 57.85 57.45 57.75 58.3 59.25 59.25 60.9 58.85 63.05 58.15 67.1 56.15 70.9 L56.65 71.45 58.25 70.55 59.05 70.15 59.9 69.85 60.75 69.6 61.6 69.35 63.35 69.25 63.6 69.3 64.05 69.6 64.15 70.65 64.0 72.4 63.1 74.85 61.8 77.05 63.55 79.2 63.8 78.5 64.2 77.7 65.05 76.2 65.9 75.1 66.75 74.45 Q67.05 74.15 67.45 73.95 68.3 73.85 68.65 74.5 70.2 77.3 69.9 80.7 69.6 83.65 69.8 86.65 69.9 88.55 70.65 90.4 72.1 94.15 72.65 98.25 L72.0 98.7 71.25 98.55 67.9 90.55 Q66.55 87.55 64.65 84.9 50.55 65.05 30.7 51.15 L26.0 47.75 Q21.8 44.65 16.9 45.5 21.15 52.2 26.2 58.0 39.05 72.65 51.4 87.65 L71.1 112.0 Q82.25 119.75 95.9 117.8 102.3 114.2 108.8 111.15 110.0 105.3 112.05 99.65 112.75 97.8 113.75 96.1 114.25 95.3 115.15 94.95 132.45 87.7 150.9 84.1 169.65 80.4 188.0 75.25 186.05 70.2 181.15 68.0 174.2 64.95 166.8 63.35 M178.45 64.45 Q183.75 65.7 187.45 69.25 190.05 71.2 190.35 74.55 190.5 76.15 190.25 77.85 163.95 86.4 136.9 91.15 126.65 93.0 118.4 99.2 116.0 101.05 114.65 103.85 112.65 108.1 112.0 112.8 L146.85 129.05 156.7 183.75 156.15 232.05 156.45 232.45 Q157.4 243.5 155.5 254.45 144.95 260.4 138.2 260.1 131.45 259.75 129.6 256.85 L128.95 262.6 Q90.15 264.7 50.8 263.7 L49.2 257.25 44.25 261.8 18.35 251.15 14.1 220.35 17.7 178.85 33.35 127.2 68.45 113.45 Q41.25 80.2 15.15 45.95 8.15 36.7 3.7 26.15 -0.4 16.55 0.05 6.25 0.15 3.8 2.0 2.2 L4.85 0.0 Q45.95 16.3 86.05 34.85 102.1 42.3 119.3 47.85 148.5 57.25 178.45 64.45 M138.7 136.65 Q139.0 136.0 139.7 136.1 L140.85 137.6 135.25 150.55 131.5 226.3 Q136.3 221.55 143.2 221.05 L153.2 229.4 153.7 184.15 144.05 130.35 123.25 121.1 110.6 133.45 115.55 137.5 Q116.1 138.5 115.35 139.4 L89.0 167.45 84.8 260.95 126.2 260.45 126.75 255.25 121.6 252.0 121.55 243.2 124.55 240.9 Q125.0 235.05 128.3 230.25 L132.25 150.15 Q135.35 143.3 138.7 136.65 M86.7 55.5 Q93.0 60.9 88.45 67.9 79.0 64.6 78.1 54.5 L75.4 52.2 76.15 51.35 Q87.6 50.1 97.55 54.95 L97.15 55.75 96.45 56.15 93.95 55.4 84.85 54.65 80.35 54.9 80.8 54.9 80.0 55.15 80.1 56.65 82.0 61.2 85.0 63.9 87.45 65.85 88.0 64.05 Q89.4 59.6 85.55 56.5 L86.7 55.5 M76.55 56.55 Q76.95 57.05 76.55 57.55 73.3 64.45 74.75 71.9 L74.0 72.7 72.8 71.95 Q71.3 63.95 74.85 56.45 L76.2 56.2 76.55 56.55 M18.7 40.0 L18.35 43.0 22.6 44.1 Q22.3 40.55 19.8 38.6 L18.7 40.0 M31.1 43.85 L29.85 45.4 29.25 47.8 32.6 50.0 Q32.8 46.6 31.1 43.85 M41.4 55.2 L40.7 56.35 44.05 59.15 Q46.15 55.95 45.05 52.5 42.65 53.05 41.4 55.2 M64.9 81.05 L67.6 85.1 Q68.15 80.6 67.45 76.25 L64.9 81.05 M62.3 71.25 Q59.95 71.35 58.05 72.9 L60.45 75.5 Q62.0 73.6 62.3 71.25 M56.6 60.4 L56.35 59.8 Q52.1 60.8 49.6 64.25 L54.6 69.35 Q57.3 65.2 56.6 60.4 M49.55 123.55 L35.95 128.75 20.7 179.15 17.05 220.2 18.75 232.65 Q23.1 226.35 27.6 220.15 27.9 219.75 28.45 219.7 33.15 218.65 37.1 220.15 42.65 222.15 47.35 226.5 L42.85 158.2 38.5 149.1 38.4 148.6 Q38.25 147.25 39.75 147.0 L40.5 147.6 Q43.25 152.25 45.6 157.15 L45.8 157.7 50.55 229.5 Q52.75 230.9 53.9 233.2 L53.95 233.95 51.95 240.1 Q52.65 240.4 52.85 241.15 L55.25 250.15 55.3 250.9 55.2 251.25 52.15 254.3 52.3 260.7 81.8 260.9 86.0 167.4 57.65 138.25 Q56.75 137.35 57.55 136.25 L57.9 136.05 Q60.95 133.8 64.05 131.7 L49.55 123.55 M106.85 115.1 L97.9 119.6 101.2 129.0 106.85 115.1 M95.6 122.15 L95.1 120.7 85.7 120.45 84.8 122.3 87.25 129.0 91.75 129.35 95.6 122.15 M99.5 133.25 L96.95 126.0 94.1 131.3 97.6 137.95 99.5 133.25 M68.2 131.05 L68.3 132.0 61.05 137.45 84.05 161.1 69.2 116.35 53.25 122.2 68.2 131.05 M107.2 134.4 L106.9 133.2 120.3 119.8 110.05 115.25 91.95 159.9 112.05 138.5 107.2 134.4 M84.55 130.3 L82.95 125.95 78.55 134.9 80.05 139.4 84.55 130.3 M77.2 130.85 L82.6 119.85 72.0 115.3 77.2 130.85 M91.25 132.3 L87.05 132.0 81.4 143.5 87.65 162.45 96.1 141.6 91.25 132.3 M34.0 233.25 L35.05 232.75 36.15 233.05 37.6 245.1 45.1 245.1 47.25 240.25 48.85 240.0 50.9 233.95 37.05 220.9 29.55 222.3 20.95 234.7 20.75 249.1 43.6 258.55 52.25 250.1 50.3 243.0 49.15 243.0 47.3 247.6 46.7 248.05 35.4 247.85 Q33.6 240.65 34.0 233.25 M128.05 235.3 L127.6 240.6 133.4 246.3 140.1 246.25 140.25 242.95 Q139.4 241.15 138.85 239.3 138.7 238.8 139.05 238.35 140.2 237.1 141.3 238.6 142.75 240.55 142.9 242.75 143.05 245.5 142.55 248.3 142.5 248.7 142.05 248.6 L132.85 249.1 Q132.3 249.1 131.9 248.75 L126.2 243.45 124.5 244.4 124.5 250.5 137.8 258.05 153.05 252.15 153.8 233.95 142.8 224.1 136.75 224.6 128.05 235.3" fill="#1a1a1a" fill-rule="evenodd" stroke="none"/>
      <path d="M166.8 63.35 Q174.2 64.95 181.15 68.0 186.05 70.2 188.0 75.25 169.65 80.4 150.9 84.1 132.45 87.7 115.15 94.95 114.25 95.3 113.75 96.1 112.75 97.8 112.05 99.65 110.0 105.3 108.8 111.15 102.3 114.2 95.9 117.8 82.25 119.75 71.1 112.0 L51.4 87.65 Q39.05 72.65 26.2 58.0 21.15 52.2 16.9 45.5 21.8 44.65 26.0 47.75 L30.7 51.15 Q50.55 65.05 64.65 84.9 66.55 87.55 67.9 90.55 L71.25 98.55 72.0 98.7 72.65 98.25 Q72.1 94.15 70.65 90.4 69.9 88.55 69.8 86.65 69.6 83.65 69.9 80.7 70.2 77.3 68.65 74.5 68.3 73.85 67.45 73.95 67.05 74.15 66.75 74.45 L65.9 75.1 65.05 76.2 64.2 77.7 63.8 78.5 63.55 79.2 61.8 77.05 63.1 74.85 64.0 72.4 64.15 70.65 64.05 69.6 63.6 69.3 63.35 69.25 61.6 69.35 60.75 69.6 59.9 69.85 59.05 70.15 58.25 70.55 56.65 71.45 56.15 70.9 Q58.15 67.1 58.85 63.05 59.25 60.9 58.3 59.25 57.45 57.75 55.7 57.85 51.05 58.5 48.2 62.85 L45.65 60.5 Q47.35 57.55 47.5 54.05 47.6 51.95 45.75 50.8 45.1 50.35 44.3 50.35 43.2 50.6 42.25 51.35 40.4 53.05 39.1 55.1 L34.75 51.6 34.35 47.85 33.6 44.45 33.1 43.35 32.1 42.05 30.85 41.85 Q30.2 42.1 29.65 42.55 29.05 42.95 28.75 43.6 L27.45 46.8 24.85 45.25 Q24.6 41.4 22.5 38.25 21.45 36.75 19.7 36.7 17.3 37.05 16.8 39.8 16.5 41.65 16.35 43.55 L15.85 43.75 Q7.9 29.25 4.2 18.65 0.45 8.05 2.55 5.6 4.65 3.15 6.1 2.5 24.0 10.4 41.75 18.65 67.5 30.7 93.5 41.95 109.35 48.7 125.95 53.4 L134.25 55.8 166.8 63.35 M84.85 54.65 L93.95 55.4 96.45 56.15 97.15 55.75 97.55 54.95 Q87.6 50.1 76.15 51.35 L75.4 52.2 78.1 54.5 Q79.0 64.6 88.45 67.9 93.0 60.9 86.7 55.5 L84.85 54.65 M76.55 56.55 L76.2 56.2 74.85 56.45 Q71.3 63.95 72.8 71.95 L74.0 72.7 74.75 71.9 Q73.3 64.45 76.55 57.55 76.95 57.05 76.55 56.55 M106.85 115.1 L101.2 129.0 97.9 119.6 106.85 115.1 M99.5 133.25 L97.6 137.95 94.1 131.3 96.95 126.0 99.5 133.25 M77.2 130.85 L72.0 115.3 82.6 119.85 77.2 130.85 M84.55 130.3 L80.05 139.4 78.55 134.9 82.95 125.95 84.55 130.3 M128.05 235.3 L136.75 224.6 142.8 224.1 153.8 233.95 153.05 252.15 137.8 258.05 124.5 250.5 124.5 244.4 126.2 243.45 131.9 248.75 Q132.3 249.1 132.85 249.1 L142.05 248.6 Q142.5 248.7 142.55 248.3 143.05 245.5 142.9 242.75 142.75 240.55 141.3 238.6 140.2 237.1 139.05 238.35 138.7 238.8 138.85 239.3 139.4 241.15 140.25 242.95 L140.1 246.25 133.4 246.3 127.6 240.6 128.05 235.3 M34.0 233.25 Q33.6 240.65 35.4 247.85 L46.7 248.05 47.3 247.6 49.15 243.0 50.3 243.0 52.25 250.1 43.6 258.55 20.75 249.1 20.95 234.7 29.55 222.3 37.05 220.9 50.9 233.95 48.85 240.0 47.25 240.25 45.1 245.1 37.6 245.1 36.15 233.05 35.05 232.75 34.0 233.25" fill="#c1d9cb" fill-rule="evenodd" stroke="none"/>
      <path d="M138.7 136.65 Q135.35 143.3 132.25 150.15 L128.3 230.25 Q125.0 235.05 124.55 240.9 L121.55 243.2 121.6 252.0 126.75 255.25 126.2 260.45 84.8 260.95 89.0 167.45 115.35 139.4 Q116.1 138.5 115.55 137.5 L110.6 133.45 123.25 121.1 144.05 130.35 153.7 184.15 153.2 229.4 143.2 221.05 Q136.3 221.55 131.5 226.3 L135.25 150.55 140.85 137.6 139.7 136.1 Q139.0 136.0 138.7 136.65 M49.55 123.55 L64.05 131.7 Q60.95 133.8 57.9 136.05 L57.55 136.25 Q56.75 137.35 57.65 138.25 L86.0 167.4 81.8 260.9 52.3 260.7 52.15 254.3 55.2 251.25 55.3 250.9 55.25 250.15 52.85 241.15 Q52.65 240.4 51.95 240.1 L53.95 233.95 53.9 233.2 Q52.75 230.9 50.55 229.5 L45.8 157.7 45.6 157.15 Q43.25 152.25 40.5 147.6 L39.75 147.0 Q38.25 147.25 38.4 148.6 L38.5 149.1 42.85 158.2 47.35 226.5 Q42.65 222.15 37.1 220.15 33.15 218.65 28.45 219.7 27.9 219.75 27.6 220.15 23.1 226.35 18.75 232.65 L17.05 220.2 20.7 179.15 35.95 128.75 49.55 123.55 M107.2 134.4 L112.05 138.5 91.95 159.9 110.05 115.25 120.3 119.8 106.9 133.2 107.2 134.4 M68.2 131.05 L53.25 122.2 69.2 116.35 84.05 161.1 61.05 137.45 68.3 132.0 68.2 131.05" fill="#106557" fill-rule="evenodd" stroke="none"/>
      <path d="M84.85 54.65 L86.7 55.5 85.55 56.5 80.1 56.65 80.0 55.15 80.8 54.9 80.35 54.9 84.85 54.65 M85.0 63.9 L82.0 61.2 82.4 60.7 Q83.85 59.85 85.4 61.1 86.75 62.55 85.5 63.65 L85.0 63.9" fill="#000000" fill-rule="evenodd" stroke="none"/>
      <path d="M85.55 56.5 Q89.4 59.6 88.0 64.05 L87.45 65.85 85.0 63.9 85.5 63.65 Q86.75 62.55 85.4 61.1 83.85 59.85 82.4 60.7 L82.0 61.2 80.1 56.65 85.55 56.5 M56.6 60.4 Q57.3 65.2 54.6 69.35 L49.6 64.25 Q52.1 60.8 56.35 59.8 L56.6 60.4 M62.3 71.25 Q62.0 73.6 60.45 75.5 L58.05 72.9 Q59.95 71.35 62.3 71.25 M64.9 81.05 L67.45 76.25 Q68.15 80.6 67.6 85.1 L64.9 81.05 M41.4 55.2 Q42.65 53.05 45.05 52.5 46.15 55.95 44.05 59.15 L40.7 56.35 41.4 55.2 M31.1 43.85 Q32.8 46.6 32.6 50.0 L29.25 47.8 29.85 45.4 31.1 43.85 M18.7 40.0 L19.8 38.6 Q22.3 40.55 22.6 44.1 L18.35 43.0 18.7 40.0" fill="#ffffff" fill-rule="evenodd" stroke="none"/>
      <path d="M95.6 122.15 L91.75 129.35 87.25 129.0 84.8 122.3 85.7 120.45 95.1 120.7 95.6 122.15 M91.25 132.3 L96.1 141.6 87.65 162.45 81.4 143.5 87.05 132.0 91.25 132.3" fill="#0e4239" fill-rule="evenodd" stroke="none"/>
    </g>
    <g id="shape5" transform="matrix(1.0, 0.0, 0.0, 1.0, -0.25, -0.1)">
      <path d="M41.5 9.2 Q42.4 9.55 43.15 9.95 46.05 11.85 46.9 14.2 L47.35 15.85 47.65 17.9 47.25 18.65 44.0 19.2 38.3 19.95 37.2 18.3 37.9 23.9 45.75 25.9 Q47.7 26.7 49.5 27.85 L51.3 29.45 51.9 30.15 53.05 32.2 Q53.9 34.55 53.45 37.4 53.05 39.65 51.8 42.25 50.75 44.2 48.5 45.95 L41.3 49.9 41.5 51.65 41.65 52.55 41.55 54.25 40.85 54.55 36.85 54.55 33.35 54.55 32.45 54.35 32.1 53.1 32.0 51.75 29.9 51.65 29.95 52.0 30.05 53.35 30.25 54.95 30.05 55.55 29.7 55.8 21.15 55.75 20.85 54.7 20.85 53.9 20.8 52.15 20.8 50.7 Q14.65 48.7 10.65 43.65 L7.9 38.1 7.55 35.2 8.6 34.85 10.8 34.65 18.35 34.25 20.5 38.15 19.95 29.25 Q14.15 29.25 10.1 25.5 8.95 24.2 8.45 22.85 7.9 20.7 8.2 18.6 8.55 16.85 9.35 15.4 10.25 14.05 11.4 12.85 L14.5 10.85 17.6 9.4 17.5 8.85 17.35 8.15 17.1 6.75 17.15 4.7 17.75 4.4 24.8 4.3 25.3 5.6 25.4 6.25 25.5 7.1 27.25 6.95 27.1 6.05 27.05 5.4 26.95 4.05 31.85 2.35 33.7 2.05 35.15 2.35 35.4 3.05 35.6 5.0 35.8 6.45 35.85 7.15 35.9 7.6 38.4 8.15 Q40.1 8.6 41.5 9.2 M45.7 17.05 Q45.55 13.85 43.0 11.9 39.95 9.6 36.1 8.95 L36.85 15.25 Q38.5 16.2 39.2 17.9 L45.7 17.05 M50.5 31.85 Q50.15 30.75 49.3 29.9 44.5 25.35 38.05 25.6 L38.65 30.05 39.6 30.55 Q42.85 32.45 41.55 36.3 L39.75 38.5 41.0 47.75 45.35 45.65 Q47.2 44.6 48.4 43.0 52.3 37.95 50.5 31.85 M27.4 8.2 L25.7 8.35 26.75 14.8 28.3 14.65 27.4 8.2 M28.4 15.6 L26.8 15.75 27.6 23.3 29.5 23.7 28.4 15.6 M25.75 23.5 L23.6 5.85 19.25 5.95 20.8 20.4 21.2 26.55 Q22.1 40.45 22.3 54.4 L28.25 54.0 25.75 23.5 M33.65 3.4 L28.7 4.7 Q30.45 15.1 31.3 25.55 L32.1 34.2 33.65 52.85 39.75 52.65 33.65 3.4 M10.9 18.95 L10.85 19.95 Q10.85 20.9 11.15 21.85 13.15 27.7 19.8 27.9 L19.5 24.35 Q17.9 24.05 17.15 22.75 14.95 18.95 18.75 16.85 L17.85 10.85 Q14.85 12.2 12.8 14.55 11.15 16.4 10.9 18.95 M18.25 20.55 Q18.5 21.5 19.1 22.15 L18.9 18.45 Q17.95 19.3 18.25 20.55 M17.1 36.0 L9.45 36.65 9.8 37.65 Q13.15 45.05 20.75 48.3 L20.55 39.4 Q18.1 38.3 17.1 36.0 M38.85 31.85 L39.5 36.6 Q40.7 34.95 39.5 32.5 L38.85 31.85 M27.8 25.4 L28.1 28.4 30.2 28.6 29.75 25.5 27.8 25.4 M30.35 29.8 L28.2 29.6 29.05 39.75 31.25 39.65 30.35 29.8 M31.35 40.85 L29.15 40.95 29.75 49.8 31.9 49.75 31.35 40.85" fill="#005d51" fill-rule="evenodd" stroke="none"/>
      <path d="M46.9 14.2 Q46.05 11.85 43.15 9.95 42.4 9.55 41.5 9.2 38.85 7.4 35.8 6.45 L35.6 5.0 Q41.65 6.85 46.0 11.25 54.5 20.05 53.05 32.2 L51.9 30.15 51.95 28.7 Q51.75 20.2 46.9 14.2 M35.15 2.35 L33.7 2.05 Q21.3 -0.05 11.55 7.85 2.85 14.9 1.65 25.95 0.9 32.85 3.65 39.2 8.8 50.9 20.85 54.7 L21.15 55.75 29.7 55.8 Q33.45 55.6 36.85 54.55 L40.85 54.55 Q35.35 57.15 28.6 57.3 16.45 56.95 8.4 48.9 4.75 45.25 2.7 40.85 1.25 37.7 0.65 34.15 -0.1 29.5 0.5 24.9 1.2 19.5 3.95 14.75 6.75 10.0 10.95 6.65 14.95 3.5 19.8 1.7 24.05 0.1 28.6 0.1 40.7 0.4 48.8 8.5 56.9 16.55 57.2 28.7 56.85 40.8 48.8 48.9 45.5 52.2 41.55 54.25 L41.65 52.55 Q44.95 50.7 47.8 47.9 55.45 40.2 55.75 28.7 55.45 17.15 47.8 9.5 42.45 4.1 35.15 2.35 M26.95 4.05 L27.05 5.4 25.3 5.6 24.8 4.3 26.95 4.05 M17.1 6.75 L17.35 8.15 11.4 12.85 Q10.25 14.05 9.35 15.4 5.4 21.05 5.2 28.7 5.4 37.45 10.65 43.65 14.65 48.7 20.8 50.7 L20.8 52.15 Q15.35 50.4 11.1 46.15 4.1 39.15 3.85 28.7 4.1 18.2 11.1 11.2 13.8 8.45 17.1 6.75 M30.05 53.35 L29.95 52.0 32.0 51.75 32.1 53.1 30.05 53.35" fill="#006868" fill-rule="evenodd" stroke="none"/>
      <path d="M40.65 12.0 L42.45 12.1 43.6 13.4 Q44.15 15.45 42.2 16.35 41.3 16.6 40.6 16.35 L40.45 16.3 40.4 16.25 Q39.7 15.85 39.25 14.95 38.7 12.9 40.65 12.0 M41.6 15.7 L41.95 15.6 Q43.65 14.75 42.45 13.1 L41.6 15.7 M41.65 12.75 L40.95 12.8 Q39.7 13.35 40.05 14.7 L40.45 15.3 41.65 12.75 M46.05 37.3 Q48.15 37.85 48.0 39.95 47.45 42.05 45.3 41.9 44.3 41.65 43.85 41.05 L43.8 41.0 43.75 40.9 Q43.3 40.25 43.4 39.2 43.95 37.1 46.05 37.3 M44.8 40.8 L45.45 41.05 Q47.4 41.15 47.1 39.15 L44.8 40.8 M46.65 38.45 L45.95 38.1 Q44.6 38.0 44.2 39.35 L44.3 40.15 46.65 38.45 M13.5 18.1 L12.75 18.1 14.15 20.6 14.5 19.95 Q14.75 18.6 13.5 18.1 M10.85 19.95 L10.9 18.95 Q11.55 17.0 13.6 17.25 15.35 17.7 15.4 19.55 15.45 21.1 14.0 21.75 L12.3 21.65 Q11.15 21.15 10.85 19.95 M12.65 20.95 L13.35 21.0 12.0 18.55 11.65 19.1 Q11.4 20.45 12.65 20.95 M17.55 42.65 L17.85 42.0 15.0 42.3 15.45 42.9 Q16.6 43.65 17.55 42.65 M17.3 40.6 Q16.2 39.8 15.2 40.8 L14.9 41.45 17.75 41.15 17.3 40.6 M18.75 41.5 L18.5 42.45 Q17.95 44.1 16.25 44.15 L15.8 44.0 Q13.3 42.75 14.55 40.25 L15.4 39.85 Q17.95 38.9 18.75 41.5" fill="#0f6f61" fill-rule="evenodd" stroke="none"/>
      <path d="M40.65 12.0 Q38.7 12.9 39.25 14.95 39.7 15.85 40.4 16.25 L40.45 16.3 40.6 16.35 Q41.3 16.6 42.2 16.35 44.15 15.45 43.6 13.4 L42.45 12.1 40.65 12.0 M45.7 17.05 L39.2 17.9 Q38.5 16.2 36.85 15.25 L36.1 8.95 Q39.95 9.6 43.0 11.9 45.55 13.85 45.7 17.05 M50.5 31.85 Q52.3 37.95 48.4 43.0 47.2 44.6 45.35 45.65 L41.0 47.75 39.75 38.5 41.55 36.3 Q42.85 32.45 39.6 30.55 L38.65 30.05 38.05 25.6 Q44.5 25.35 49.3 29.9 50.15 30.75 50.5 31.85 M46.05 37.3 Q43.95 37.1 43.4 39.2 43.3 40.25 43.75 40.9 L43.8 41.0 43.85 41.05 Q44.3 41.65 45.3 41.9 47.45 42.05 48.0 39.95 48.15 37.85 46.05 37.3 M32.9 7.7 L31.15 6.85 Q30.6 9.15 30.85 11.4 L31.8 18.75 Q33.9 33.8 34.4 48.9 34.45 50.1 35.5 51.1 L37.15 50.9 Q37.65 50.05 37.55 48.95 L36.95 43.5 36.1 33.95 Q35.3 20.6 32.9 7.7 M27.4 8.2 L28.3 14.65 26.75 14.8 25.7 8.35 27.4 8.2 M24.25 24.5 Q24.2 18.9 23.7 13.7 23.2 8.5 22.1 8.2 20.85 8.6 21.15 13.7 21.45 18.8 22.2 24.2 L23.1 31.05 Q23.5 40.1 23.8 43.3 23.3 47.7 24.9 51.6 26.25 50.8 26.15 48.65 L25.8 45.15 Q24.55 38.45 24.3 31.65 L24.25 24.5 M33.65 3.4 L39.75 52.65 33.65 52.85 32.1 34.2 31.3 25.55 Q30.45 15.1 28.7 4.7 L33.65 3.4 M25.75 23.5 L28.25 54.0 22.3 54.4 Q22.1 40.45 21.2 26.55 L20.8 20.4 19.25 5.95 23.6 5.85 25.75 23.5 M10.85 19.95 Q11.15 21.15 12.3 21.65 L14.0 21.75 Q15.45 21.1 15.4 19.55 15.35 17.7 13.6 17.25 11.55 17.0 10.9 18.95 11.15 16.4 12.8 14.55 14.85 12.2 17.85 10.85 L18.75 16.85 Q14.95 18.95 17.15 22.75 17.9 24.05 19.5 24.35 L19.8 27.9 Q13.15 27.7 11.15 21.85 10.85 20.9 10.85 19.95 M18.75 41.5 Q17.95 38.9 15.4 39.85 L14.55 40.25 Q13.3 42.75 15.8 44.0 L16.25 44.15 Q17.95 44.1 18.5 42.45 L18.75 41.5 M17.1 36.0 Q18.1 38.3 20.55 39.4 L20.75 48.3 Q13.15 45.05 9.8 37.65 L9.45 36.65 17.1 36.0 M27.8 25.4 L29.75 25.5 30.2 28.6 28.1 28.4 27.8 25.4 M31.35 40.85 L31.9 49.75 29.75 49.8 29.15 40.95 31.35 40.85" fill="#85ab93" fill-rule="evenodd" stroke="none"/>
      <path d="M38.4 8.15 L35.9 7.6 35.85 7.15 38.4 8.15 M27.1 6.05 L27.25 6.95 25.5 7.1 25.4 6.25 27.1 6.05 M17.5 8.85 L17.6 9.4 14.5 10.85 Q15.9 9.7 17.5 8.85 M8.2 18.6 Q7.9 20.7 8.45 22.85 7.45 26.0 7.7 29.6 7.85 32.35 8.6 34.85 L7.55 35.2 7.9 38.1 Q6.0 33.85 5.85 28.7 6.0 23.1 8.2 18.6 M51.3 29.45 L49.5 27.85 Q49.25 23.0 47.25 18.65 L47.65 17.9 47.35 15.85 Q51.15 21.35 51.3 28.7 L51.3 29.45" fill="#85b599" fill-rule="evenodd" stroke="none"/>
      <path d="M41.5 9.2 Q40.1 8.6 38.4 8.15 L35.85 7.15 35.8 6.45 Q38.85 7.4 41.5 9.2 M35.4 3.05 L35.15 2.35 Q42.45 4.1 47.8 9.5 55.45 17.15 55.75 28.7 55.45 40.2 47.8 47.9 44.95 50.7 41.65 52.55 L41.5 51.65 Q44.6 49.9 47.2 47.3 L48.5 45.95 Q50.75 44.2 51.8 42.25 53.05 39.65 53.45 37.4 54.8 33.35 54.95 28.6 54.65 17.35 47.2 9.9 42.15 4.85 35.4 3.05 M33.7 2.05 L31.85 2.35 28.5 2.1 Q22.6 2.25 17.75 4.4 L17.15 4.7 Q6.8 9.85 3.35 20.8 0.5 29.95 4.3 38.8 9.25 50.2 20.85 53.9 L20.85 54.7 Q8.8 50.9 3.65 39.2 0.9 32.85 1.65 25.95 2.85 14.9 11.55 7.85 21.3 -0.05 33.7 2.05 M27.05 5.4 L27.1 6.05 25.4 6.25 25.3 5.6 27.05 5.4 M17.35 8.15 L17.5 8.85 Q15.9 9.7 14.5 10.85 L11.4 12.85 17.35 8.15 M9.35 15.4 Q8.55 16.85 8.2 18.6 6.0 23.1 5.85 28.7 6.0 33.85 7.9 38.1 L10.65 43.65 Q5.4 37.45 5.2 28.7 5.4 21.05 9.35 15.4 M29.7 55.8 L30.05 55.55 30.25 54.95 33.35 54.55 36.85 54.55 Q33.45 55.6 29.7 55.8 M29.95 52.0 L29.9 51.65 32.0 51.75 29.95 52.0 M51.9 30.15 L51.3 29.45 51.3 28.7 Q51.15 21.35 47.35 15.85 L46.9 14.2 Q51.75 20.2 51.95 28.7 L51.9 30.15" fill="#085854" fill-rule="evenodd" stroke="none"/>
      <path d="M41.65 12.75 L40.45 15.3 40.05 14.7 Q39.7 13.35 40.95 12.8 L41.65 12.75 M41.6 15.7 L42.45 13.1 Q43.65 14.75 41.95 15.6 L41.6 15.7 M46.65 38.45 L44.3 40.15 44.2 39.35 Q44.6 38.0 45.95 38.1 L46.65 38.45 M44.8 40.8 L47.1 39.15 Q47.4 41.15 45.45 41.05 L44.8 40.8 M13.5 18.1 Q14.75 18.6 14.5 19.95 L14.15 20.6 12.75 18.1 13.5 18.1 M12.65 20.95 Q11.4 20.45 11.65 19.1 L12.0 18.55 13.35 21.0 12.65 20.95 M17.3 40.6 L17.75 41.15 14.9 41.45 15.2 40.8 Q16.2 39.8 17.3 40.6 M17.55 42.65 Q16.6 43.65 15.45 42.9 L15.0 42.3 17.85 42.0 17.55 42.65" fill="#a0beac" fill-rule="evenodd" stroke="none"/>
      <path d="M35.6 5.0 L35.4 3.05 Q42.15 4.85 47.2 9.9 54.65 17.35 54.95 28.6 54.8 33.35 53.45 37.4 53.9 34.55 53.05 32.2 54.5 20.05 46.0 11.25 41.65 6.85 35.6 5.0 M31.85 2.35 L26.95 4.05 24.8 4.3 17.75 4.4 Q22.6 2.25 28.5 2.1 L31.85 2.35 M17.15 4.7 L17.1 6.75 Q13.8 8.45 11.1 11.2 4.1 18.2 3.85 28.7 4.1 39.15 11.1 46.15 15.35 50.4 20.8 52.15 L20.85 53.9 Q9.25 50.2 4.3 38.8 0.5 29.95 3.35 20.8 6.8 9.85 17.15 4.7 M8.45 22.85 Q8.95 24.2 10.1 25.5 8.85 29.75 10.65 34.3 L10.8 34.65 8.6 34.85 Q7.85 32.35 7.7 29.6 7.45 26.0 8.45 22.85 M30.25 54.95 L30.05 53.35 32.1 53.1 32.45 54.35 33.35 54.55 30.25 54.95 M41.5 51.65 L41.3 49.9 48.5 45.95 47.2 47.3 Q44.6 49.9 41.5 51.65 M49.5 27.85 Q47.7 26.7 45.75 25.9 45.45 22.35 44.0 19.2 L47.25 18.65 Q49.25 23.0 49.5 27.85" fill="#98bea8" fill-rule="evenodd" stroke="none"/>
      <path d="M10.1 25.5 Q14.15 29.25 19.95 29.25 L20.5 38.15 18.35 34.25 10.8 34.65 10.65 34.3 Q8.85 29.75 10.1 25.5 M45.75 25.9 L37.9 23.9 37.2 18.3 38.3 19.95 44.0 19.2 Q45.45 22.35 45.75 25.9 M28.4 15.6 L29.5 23.7 27.6 23.3 26.8 15.75 28.4 15.6 M18.25 20.55 Q17.95 19.3 18.9 18.45 L19.1 22.15 Q18.5 21.5 18.25 20.55 M38.85 31.85 L39.5 32.5 Q40.7 34.95 39.5 36.6 L38.85 31.85 M30.35 29.8 L31.25 39.65 29.05 39.75 28.2 29.6 30.35 29.8" fill="#c1d9cb" fill-rule="evenodd" stroke="none"/>
      <path d="M32.9 7.7 Q35.3 20.6 36.1 33.95 L36.95 43.5 37.55 48.95 Q37.65 50.05 37.15 50.9 L35.5 51.1 Q34.45 50.1 34.4 48.9 33.9 33.8 31.8 18.75 L30.85 11.4 Q30.6 9.15 31.15 6.85 L32.9 7.7 M24.25 24.5 L24.3 31.65 Q24.55 38.45 25.8 45.15 L26.15 48.65 Q26.25 50.8 24.9 51.6 23.3 47.7 23.8 43.3 23.5 40.1 23.1 31.05 L22.2 24.2 Q21.45 18.8 21.15 13.7 20.85 8.6 22.1 8.2 23.2 8.5 23.7 13.7 24.2 18.9 24.25 24.5" fill="#689878" fill-rule="evenodd" stroke="none"/>
    </g>
    <g id="shape6" transform="matrix(1.0, 0.0, 0.0, 1.0, 0.0, 0.0)">
      <path d="M182.75 132.9 L187.35 174.3 182.8 218.6 177.85 240.35 177.45 240.7 179.65 244.5 161.5 261.05 Q152.2 254.25 144.25 245.95 L144.05 245.75 143.9 245.45 144.1 243.4 Q146.5 230.05 141.1 217.2 L139.75 213.4 137.45 205.6 131.35 211.7 137.55 260.65 137.15 261.9 136.05 262.35 52.85 262.35 51.35 260.75 55.3 214.7 44.9 202.9 41.65 234.2 41.5 234.95 40.0 241.95 43.15 246.4 42.95 247.75 26.35 260.4 5.5 241.65 6.65 239.45 2.5 220.05 0.0 176.3 7.3 136.45 7.7 135.45 65.7 98.5 62.0 84.9 61.2 81.7 64.6 68.0 65.75 64.9 55.2 63.55 54.85 62.25 78.65 0.7 79.2 0.0 116.7 0.5 117.15 1.05 136.75 61.2 136.6 62.55 126.55 63.75 130.4 81.9 127.25 95.95 126.4 98.45 182.1 132.2 182.75 132.9 M180.25 137.35 L139.55 203.2 144.1 212.0 145.25 214.3 Q149.95 224.25 149.35 235.25 L155.5 228.85 167.35 228.55 175.35 238.05 179.8 218.3 184.35 174.5 180.25 137.35 M127.3 41.95 L122.5 27.25 114.6 3.0 81.1 2.75 58.4 61.45 68.65 62.35 69.0 62.7 63.65 81.95 68.9 98.65 88.3 106.2 88.8 107.15 94.35 150.9 97.95 107.5 98.55 106.1 123.65 97.15 128.4 81.95 123.4 61.45 Q124.0 60.95 124.5 60.9 L133.3 60.3 127.3 41.95 M91.7 31.05 Q85.95 26.05 79.15 28.1 L77.4 29.15 76.4 28.7 76.25 28.3 Q85.3 21.25 92.55 30.35 L91.7 31.05 M81.55 34.2 L78.8 37.7 Q84.7 37.25 90.25 39.4 87.35 35.75 82.85 34.5 L81.55 34.2 M81.9 39.55 L78.2 39.8 77.85 40.2 77.75 41.1 Q82.95 42.2 88.1 40.9 L85.75 40.2 Q83.85 39.6 81.9 39.55 M82.15 49.0 L81.95 50.1 83.55 51.2 85.6 50.2 Q89.85 48.4 94.3 49.25 L95.3 52.8 99.45 52.6 98.4 49.25 99.4 48.4 Q105.0 48.0 110.05 50.35 L112.0 50.1 110.35 48.85 110.4 48.3 111.05 47.6 117.7 51.35 117.5 52.25 114.55 51.55 Q113.8 54.5 113.4 57.5 112.4 65.15 111.9 72.75 111.25 83.35 107.35 93.35 105.7 97.55 101.95 100.3 95.45 105.05 89.55 99.75 88.4 98.65 88.05 97.35 82.15 75.3 77.55 52.85 L76.05 54.5 74.75 53.95 Q77.05 50.05 81.25 48.35 L82.15 49.0 M99.15 39.55 Q103.65 34.1 110.2 31.9 118.15 29.2 118.95 37.45 L121.3 39.0 120.95 40.0 118.2 39.25 117.65 42.0 Q107.9 46.7 99.15 40.4 L99.15 39.55 M93.65 42.45 L76.85 42.95 73.75 45.15 72.7 44.75 72.65 43.6 75.75 41.25 75.8 40.1 72.8 40.2 72.15 39.8 72.4 38.4 75.5 38.1 Q77.25 34.1 80.75 31.25 90.6 32.45 94.45 41.3 L93.65 42.45 M109.7 38.45 L110.15 37.65 116.0 36.9 Q116.45 33.55 113.3 33.8 107.65 34.75 103.45 38.75 L108.95 38.45 109.1 39.25 108.6 39.9 103.45 40.75 104.95 41.3 Q110.6 42.95 115.95 40.65 L116.15 39.0 112.0 39.25 110.15 39.3 109.7 38.45 M114.95 27.5 Q112.85 25.35 110.0 25.85 L102.5 30.35 101.65 29.35 Q104.55 25.55 109.4 24.2 114.5 22.6 116.95 27.15 L115.85 28.05 114.95 27.5 M102.8 52.7 L105.85 51.8 102.1 51.2 102.8 52.7 M91.85 51.85 Q89.6 51.85 87.35 52.75 L92.3 53.7 Q91.9 52.9 91.85 51.85 M84.3 53.5 L85.2 53.95 79.75 51.55 79.3 51.8 Q82.3 74.05 86.0 82.35 89.65 90.6 95.25 90.1 106.3 92.3 108.85 80.25 111.35 68.15 111.55 52.2 L97.55 55.4 Q92.3 56.3 87.25 54.65 L84.3 53.5 M90.55 96.85 Q93.4 100.75 97.65 98.95 104.5 96.0 106.15 88.7 99.7 93.95 91.9 91.45 89.45 90.7 87.35 87.3 87.9 93.35 90.55 96.85 M48.7 134.45 L48.95 134.05 Q52.95 131.65 57.3 129.95 L35.6 128.35 34.9 127.6 33.75 122.4 10.7 137.05 28.65 175.85 44.05 198.4 44.5 198.4 Q52.0 205.9 58.35 214.35 L54.5 259.35 74.3 259.35 76.55 194.6 88.3 172.55 48.95 135.95 48.5 134.9 48.7 134.45 M64.85 128.0 L65.1 129.2 52.55 135.2 89.75 169.85 92.95 163.45 76.65 125.75 71.5 132.9 70.7 132.9 70.4 132.45 Q67.65 117.4 65.7 102.05 L36.5 120.65 37.25 125.5 63.7 127.4 64.85 128.0 M71.9 127.35 L85.0 108.1 68.7 101.85 71.9 127.35 M9.45 141.35 L3.0 176.3 5.5 219.7 9.05 236.2 16.35 226.25 16.7 225.8 17.2 225.6 25.55 225.9 Q32.05 227.65 38.05 231.4 38.75 235.4 39.85 228.45 41.0 221.2 42.3 201.15 L26.15 177.55 9.45 141.35 M125.25 129.35 L151.8 126.15 151.6 117.2 125.5 101.4 117.55 134.15 Q116.45 134.6 115.65 133.65 L114.0 131.45 112.35 129.15 Q104.6 146.15 96.35 162.95 91.0 173.9 85.15 184.65 95.2 173.85 105.8 163.6 119.2 150.7 133.2 138.35 L124.25 130.5 125.25 129.35 M133.1 134.1 Q137.1 135.75 137.0 138.95 L107.35 165.2 79.55 195.05 77.35 259.35 134.35 259.35 128.25 211.35 136.65 202.15 178.8 134.0 154.65 119.05 154.85 127.45 Q154.9 128.8 153.5 128.95 L129.4 131.9 Q131.15 133.2 133.1 134.1 M100.6 111.7 L97.0 155.55 110.4 126.25 100.6 111.7 M116.1 129.2 L122.6 100.75 101.8 108.1 116.1 129.2 M86.3 111.5 L78.65 122.85 91.5 152.5 86.3 111.5 M147.15 245.2 L161.1 257.6 176.2 243.7 166.05 231.4 156.8 231.7 149.2 239.85 149.3 240.5 154.95 244.95 157.75 243.65 158.3 241.6 159.75 241.65 162.95 247.15 162.75 247.95 161.15 248.45 160.6 248.25 159.4 246.4 154.5 248.15 148.15 243.4 147.15 245.2 M9.0 241.3 L26.0 256.95 39.6 246.45 38.05 244.4 35.25 246.4 23.3 243.25 Q22.35 240.45 23.85 237.3 24.2 236.6 25.15 236.65 L25.9 237.1 25.8 241.2 34.55 243.3 37.05 241.4 38.55 235.3 25.5 227.0 18.4 228.4 9.0 241.3" fill="#1a1a1a" fill-rule="evenodd" stroke="none"/>
      <path d="M180.25 137.35 L184.35 174.5 179.8 218.3 175.35 238.05 167.35 228.55 155.5 228.85 149.35 235.25 Q149.95 224.25 145.25 214.3 L144.1 212.0 139.55 203.2 180.25 137.35 M122.5 27.25 Q116.25 16.05 104.0 11.8 91.25 7.4 81.1 16.75 67.45 29.35 66.45 48.1 66.1 55.1 71.55 58.8 L68.65 62.35 58.4 61.45 81.1 2.75 114.6 3.0 122.5 27.25 M123.4 61.45 L120.75 59.5 Q126.4 57.25 127.3 51.45 128.0 46.65 127.3 41.95 L133.3 60.3 124.5 60.9 Q124.0 60.95 123.4 61.45 M81.55 34.2 L82.85 34.5 Q87.35 35.75 90.25 39.4 84.7 37.25 78.8 37.7 L81.55 34.2 M108.95 38.45 L103.45 38.75 Q107.65 34.75 113.3 33.8 116.45 33.55 116.0 36.9 L110.15 37.65 109.7 38.45 108.95 38.45 M91.85 51.85 Q91.9 52.9 92.3 53.7 L87.35 52.75 Q89.6 51.85 91.85 51.85 M102.8 52.7 L102.1 51.2 105.85 51.8 102.8 52.7 M64.85 128.0 L63.7 127.4 37.25 125.5 36.5 120.65 65.7 102.05 Q67.65 117.4 70.4 132.45 L70.7 132.9 71.5 132.9 76.65 125.75 92.95 163.45 89.75 169.85 52.55 135.2 65.1 129.2 64.85 128.0 M48.7 134.45 L48.5 134.9 48.95 135.95 88.3 172.55 76.55 194.6 74.3 259.35 54.5 259.35 58.35 214.35 Q52.0 205.9 44.5 198.4 L44.05 198.4 28.65 175.85 10.7 137.05 33.75 122.4 34.9 127.6 35.6 128.35 57.3 129.95 Q52.95 131.65 48.95 134.05 L48.7 134.45 M90.55 96.85 Q87.9 93.35 87.35 87.3 89.45 90.7 91.9 91.45 99.7 93.95 106.15 88.7 104.5 96.0 97.65 98.95 93.4 100.75 90.55 96.85 M133.1 134.1 Q131.15 133.2 129.4 131.9 L153.5 128.95 Q154.9 128.8 154.85 127.45 L154.65 119.05 178.8 134.0 136.65 202.15 128.25 211.35 134.35 259.35 77.35 259.35 79.55 195.05 107.35 165.2 137.0 138.95 Q137.1 135.75 133.1 134.1 M125.25 129.35 L124.25 130.5 133.2 138.35 Q119.2 150.7 105.8 163.6 95.2 173.85 85.15 184.65 91.0 173.9 96.35 162.95 104.6 146.15 112.35 129.15 L114.0 131.45 115.65 133.65 Q116.45 134.6 117.55 134.15 L125.5 101.4 151.6 117.2 151.8 126.15 125.25 129.35 M9.45 141.35 L26.15 177.55 42.3 201.15 Q41.0 221.2 39.85 228.45 38.75 235.4 38.05 231.4 32.05 227.65 25.55 225.9 L17.2 225.6 16.7 225.8 16.35 226.25 9.05 236.2 5.5 219.7 3.0 176.3 9.45 141.35" fill="#8d254e" fill-rule="evenodd" stroke="none"/>
      <path d="M9.0 241.3 L18.4 228.4 25.5 227.0 38.55 235.3 37.05 241.4 34.55 243.3 25.8 241.2 25.9 237.1 25.15 236.65 Q24.2 236.6 23.85 237.3 22.35 240.45 23.3 243.25 L35.25 246.4 38.05 244.4 39.6 246.45 26.0 256.95 9.0 241.3 M147.15 245.2 L148.15 243.4 154.5 248.15 159.4 246.4 160.6 248.25 161.15 248.45 162.75 247.95 162.95 247.15 159.75 241.65 158.3 241.6 157.75 243.65 154.95 244.95 149.3 240.5 149.2 239.85 156.8 231.7 166.05 231.4 176.2 243.7 161.1 257.6 147.15 245.2" fill="#e3aed5" fill-rule="evenodd" stroke="none"/>
      <path d="M85.75 40.2 L88.1 40.9 Q82.95 42.2 77.75 41.1 L77.85 40.2 78.2 39.8 81.9 39.55 Q83.0 42.15 85.75 40.2 M112.0 39.25 L116.15 39.0 115.95 40.65 Q110.6 42.95 104.95 41.3 L103.45 40.75 108.6 39.9 Q109.1 40.35 110.05 40.4 111.5 40.3 112.0 39.25 M84.3 53.5 L87.25 54.65 Q92.3 56.3 97.55 55.4 L111.55 52.2 Q111.35 68.15 108.85 80.25 106.3 92.3 95.25 90.1 89.65 90.6 86.0 82.35 82.3 74.05 79.3 51.8 L79.75 51.55 85.2 53.95 84.3 53.5" fill="#ffffff" fill-rule="evenodd" stroke="none"/>
      <path d="M81.9 39.55 Q83.85 39.6 85.75 40.2 83.0 42.15 81.9 39.55 M108.95 38.45 L109.7 38.45 110.15 39.3 112.0 39.25 Q111.5 40.3 110.05 40.4 109.1 40.35 108.6 39.9 L109.1 39.25 108.95 38.45" fill="#000000" fill-rule="evenodd" stroke="none"/>
      <path d="M71.9 127.35 L68.7 101.85 85.0 108.1 71.9 127.35 M86.3 111.5 L91.5 152.5 78.65 122.85 86.3 111.5 M116.1 129.2 L101.8 108.1 122.6 100.75 116.1 129.2 M100.6 111.7 L110.4 126.25 97.0 155.55 100.6 111.7" fill="#ffe1e9" fill-rule="evenodd" stroke="none"/>
      <path d="M122.5 27.25 L127.3 41.95 Q128.0 46.65 127.3 51.45 126.4 57.25 120.75 59.5 L123.4 61.45 128.4 81.95 123.65 97.15 98.55 106.1 97.95 107.5 94.35 150.9 88.8 107.15 88.3 106.2 68.9 98.65 63.65 81.95 69.0 62.7 68.65 62.35 71.55 58.8 Q66.1 55.1 66.45 48.1 67.45 29.35 81.1 16.75 91.25 7.4 104.0 11.8 116.25 16.05 122.5 27.25 M91.7 31.05 L92.55 30.35 Q85.3 21.25 76.25 28.3 L76.4 28.7 77.4 29.15 79.15 28.1 Q85.95 26.05 91.7 31.05 M93.65 42.45 L94.45 41.3 Q90.6 32.45 80.75 31.25 77.25 34.1 75.5 38.1 L72.4 38.4 72.15 39.8 72.8 40.2 75.8 40.1 75.75 41.25 72.65 43.6 72.7 44.75 73.75 45.15 76.85 42.95 93.65 42.45 M99.15 39.55 L99.15 40.4 Q107.9 46.7 117.65 42.0 L118.2 39.25 120.95 40.0 121.3 39.0 118.95 37.45 Q118.15 29.2 110.2 31.9 103.65 34.1 99.15 39.55 M82.15 49.0 L81.25 48.35 Q77.05 50.05 74.75 53.95 L76.05 54.5 77.55 52.85 Q82.15 75.3 88.05 97.35 88.4 98.65 89.55 99.75 95.45 105.05 101.95 100.3 105.7 97.55 107.35 93.35 111.25 83.35 111.9 72.75 112.4 65.15 113.4 57.5 113.8 54.5 114.55 51.55 L117.5 52.25 117.7 51.35 111.05 47.6 110.4 48.3 110.35 48.85 112.0 50.1 110.05 50.35 Q105.0 48.0 99.4 48.4 L98.4 49.25 99.45 52.6 95.3 52.8 94.3 49.25 Q89.85 48.4 85.6 50.2 L83.55 51.2 81.95 50.1 82.15 49.0 M114.95 27.5 L115.85 28.05 116.95 27.15 Q114.5 22.6 109.4 24.2 104.55 25.55 101.65 29.35 L102.5 30.35 110.0 25.85 Q112.85 25.35 114.95 27.5" fill="#ebc5e2" fill-rule="evenodd" stroke="none"/>
    </g>
    <g id="shape7" transform="matrix(1.0, 0.0, 0.0, 1.0, -0.1, 0.0)">
      <path d="M44.15 4.15 Q48.25 3.4 52.05 4.8 L52.4 5.0 52.3 11.35 52.25 12.55 Q56.95 19.4 57.2 28.65 56.95 39.1 50.85 46.55 L50.85 48.45 50.25 54.2 Q46.95 55.8 43.1 54.6 L42.4 54.05 42.25 53.8 Q36.25 57.05 28.6 57.25 20.95 57.05 14.95 53.75 L14.75 54.3 14.4 54.75 8.05 54.95 Q6.45 53.25 6.75 50.75 L6.9 47.7 6.85 47.2 Q3.0 42.7 1.3 37.15 -0.8 29.9 0.85 22.5 2.4 15.75 6.8 10.6 15.0 0.95 27.95 0.05 L28.3 0.05 28.6 0.05 Q37.0 0.25 43.5 4.2 L44.15 4.15 M50.75 10.0 L51.2 5.6 42.35 5.6 Q42.7 27.1 43.4 48.6 43.45 50.9 43.95 52.95 L47.55 53.2 49.45 52.9 Q49.55 33.1 50.45 13.35 L50.75 10.0 M40.95 5.25 Q41.05 4.75 41.2 4.9 L41.4 4.8 Q35.75 1.65 28.6 1.45 17.05 1.75 9.4 9.45 1.7 17.1 1.4 28.65 1.65 37.85 6.6 44.65 L6.5 43.3 6.35 41.05 6.05 39.7 Q1.4 28.1 7.05 17.05 11.65 8.15 21.3 5.15 31.5 2.15 40.85 7.15 L40.95 5.25 M45.1 11.4 L45.35 12.2 47.45 10.1 46.65 9.85 Q45.25 10.0 45.1 11.4 M40.8 9.45 L40.8 8.75 Q35.55 5.45 28.65 5.3 18.7 5.6 12.0 12.3 5.3 19.0 5.05 28.9 5.2 33.9 6.95 38.05 L7.95 37.8 14.45 37.8 15.3 38.55 15.05 47.8 17.35 48.85 17.4 46.3 17.4 42.55 16.8 27.7 17.8 27.05 Q22.25 25.8 26.4 27.25 L26.7 27.55 26.7 51.5 26.7 51.95 29.25 52.05 29.25 51.35 29.25 47.1 29.3 44.85 28.85 16.2 30.2 15.55 38.9 15.85 38.7 49.4 38.7 49.8 41.85 47.95 41.85 47.1 41.95 42.75 41.95 38.3 41.0 14.95 40.85 11.15 40.8 9.45 M44.55 12.65 Q44.5 11.25 45.1 10.1 45.7 8.9 46.6 8.8 47.5 8.7 48.2 9.75 48.9 10.75 48.95 12.35 48.4 13.7 46.65 13.9 45.1 13.75 44.55 12.65 M48.3 45.2 L48.65 46.05 Q49.15 47.55 48.1 48.55 L46.3 49.2 Q44.8 49.15 44.1 47.55 43.75 46.05 44.6 45.2 L45.65 44.45 Q47.35 44.0 48.3 45.2 M46.3 12.95 L46.65 13.0 Q48.75 12.6 48.05 10.7 L46.3 12.95 M50.85 42.75 L50.85 44.4 Q55.35 38.0 55.55 29.2 55.4 21.65 52.1 15.6 L52.05 16.5 Q51.5 20.6 52.6 24.4 53.15 26.45 53.2 28.65 53.35 33.65 51.5 38.1 50.6 40.15 50.85 42.75 M51.15 34.95 Q51.9 31.85 51.85 28.65 L51.65 24.65 51.15 34.95 M44.9 46.45 L44.9 47.25 Q45.45 48.6 46.85 48.1 L47.6 47.8 44.9 46.45 M47.9 46.25 Q47.35 44.95 45.9 45.3 45.55 45.45 45.3 45.7 L47.95 47.0 47.9 46.25 M38.0 18.15 L38.1 16.8 29.9 16.9 31.25 53.15 37.5 53.45 37.55 53.2 Q36.9 35.65 38.0 18.15 M35.4 21.6 L35.0 20.95 32.75 21.0 32.45 21.65 35.4 21.6 M32.05 23.7 Q30.8 22.05 32.1 20.4 L32.25 20.3 Q33.9 18.95 35.6 20.25 L35.8 20.5 Q37.0 22.1 35.7 23.75 L35.55 23.9 Q33.9 25.2 32.2 23.85 L32.05 23.7 M35.4 48.0 Q37.9 50.5 35.05 52.15 L32.75 52.05 Q31.1 50.6 32.2 48.6 33.2 47.3 35.0 47.8 L35.4 48.0 M32.4 22.2 L32.8 22.85 35.05 22.8 35.35 22.15 32.4 22.2 M20.1 34.85 Q19.2 34.05 19.3 32.95 19.55 30.6 21.75 30.6 23.45 30.5 23.95 32.0 24.55 33.8 23.2 34.9 L20.1 34.85 M23.55 48.15 Q24.4 48.75 24.5 49.6 24.85 52.4 22.1 52.65 21.25 52.3 20.65 51.7 18.85 49.95 20.8 48.1 L23.55 48.15 M9.4 44.7 L9.2 45.45 Q9.35 46.9 10.75 47.05 L11.55 46.85 9.4 44.7 M9.05 47.25 L8.8 46.95 Q7.8 45.3 9.05 43.7 10.1 42.75 11.45 43.15 L12.0 43.35 Q13.1 43.95 13.25 45.45 13.05 47.15 11.75 47.7 10.7 48.45 9.05 47.25 M12.35 45.45 Q12.2 44.05 10.75 43.9 L10.0 44.1 12.15 46.25 12.35 45.45 M14.2 38.7 L7.45 38.8 8.6 53.65 Q9.45 54.1 10.5 54.05 L14.1 53.7 14.2 38.7 M21.65 31.4 L20.9 31.6 23.05 33.75 23.25 32.95 Q23.1 31.55 21.65 31.4 M22.45 34.35 L20.3 32.2 20.1 32.95 Q20.35 34.35 21.65 34.55 L22.45 34.35 M22.15 48.6 Q21.45 48.65 21.1 49.0 20.65 49.4 20.55 50.15 L20.75 50.9 22.85 48.8 22.15 48.6 M35.3 49.15 L33.1 49.1 32.65 49.55 32.6 50.35 35.3 49.15 M25.55 28.05 L17.9 28.15 19.3 53.15 24.75 53.25 25.55 28.05 M41.95 51.4 L41.85 49.6 38.7 51.3 38.55 53.05 38.35 54.05 42.0 52.4 41.95 51.4 M25.95 54.9 L23.3 55.25 Q28.6 56.35 33.95 55.25 L30.85 54.9 Q29.8 54.75 29.55 53.85 L29.45 53.4 26.6 53.3 25.95 54.9 M33.2 51.4 L34.55 51.7 35.7 49.95 33.2 51.4 M21.35 51.55 L22.1 51.75 Q23.9 51.55 23.6 49.7 L21.35 51.55 M15.15 51.45 L15.15 52.25 17.45 53.45 17.3 52.6 Q17.2 51.75 17.25 50.65 L15.1 49.4 15.15 51.45" fill="#5d0035" fill-rule="evenodd" stroke="none"/>
      <path d="M50.75 10.0 L50.45 13.35 Q49.55 33.1 49.45 52.9 L47.55 53.2 43.95 52.95 Q43.45 50.9 43.4 48.6 42.7 27.1 42.35 5.6 L51.2 5.6 50.75 10.0 M48.95 12.35 Q48.9 10.75 48.2 9.75 47.5 8.7 46.6 8.8 45.7 8.9 45.1 10.1 44.5 11.25 44.55 12.65 L44.6 45.2 Q43.75 46.05 44.1 47.55 44.8 49.15 46.3 49.2 46.8 49.75 47.7 49.65 L48.1 48.55 Q49.15 47.55 48.65 46.05 L48.3 45.2 48.05 41.5 Q47.2 35.85 47.35 30.15 47.65 21.15 48.95 12.35 M38.0 18.15 Q36.9 35.65 37.55 53.2 L37.5 53.45 31.25 53.15 29.9 16.9 38.1 16.8 38.0 18.15 M35.55 23.9 L35.7 23.75 Q37.0 22.1 35.8 20.5 L35.6 20.25 Q33.9 18.95 32.25 20.3 L32.1 20.4 Q30.8 22.05 32.05 23.7 32.7 32.75 31.85 41.85 31.65 43.75 31.7 45.7 31.7 47.3 32.2 48.6 31.1 50.6 32.75 52.05 L35.05 52.15 Q37.9 50.5 35.4 48.0 34.65 36.55 35.35 25.1 L35.55 23.9 M23.2 34.9 Q24.55 33.8 23.95 32.0 23.45 30.5 21.75 30.6 19.55 30.6 19.3 32.95 19.2 34.05 20.1 34.85 L20.8 48.1 Q18.85 49.95 20.65 51.7 21.25 52.3 22.1 52.65 24.85 52.4 24.5 49.6 24.4 48.75 23.55 48.15 L23.2 34.9 M9.05 43.7 Q7.8 45.3 8.8 46.95 L9.05 47.25 Q8.85 50.0 10.4 52.15 10.75 52.65 11.4 52.4 L11.75 47.7 Q13.05 47.15 13.25 45.45 13.1 43.95 12.0 43.35 12.3 41.75 11.6 40.3 L11.4 40.05 10.2 39.95 Q8.8 41.5 9.05 43.7 M14.2 38.7 L14.1 53.7 10.5 54.05 Q9.45 54.1 8.6 53.65 L7.45 38.8 14.2 38.7 M25.55 28.05 L24.75 53.25 19.3 53.15 17.9 28.15 25.55 28.05" fill="#e3c1d7" fill-rule="evenodd" stroke="none"/>
      <path d="M6.5 43.3 L6.6 44.65 Q1.65 37.85 1.4 28.65 1.7 17.1 9.4 9.45 17.05 1.75 28.6 1.45 35.75 1.65 41.4 4.8 L41.2 4.9 Q41.05 4.75 40.95 5.25 35.45 2.3 28.5 2.1 17.25 2.4 9.8 9.9 2.3 17.35 2.0 28.6 2.2 37.0 6.5 43.3 M40.85 11.15 L41.0 14.95 Q38.6 13.0 35.2 12.55 30.25 11.95 25.95 12.6 16.7 14.25 11.6 22.15 8.2 28.0 10.7 34.3 L12.05 37.4 9.6 37.55 Q7.6 32.95 7.75 27.7 7.85 22.9 10.4 19.05 15.75 11.05 25.25 9.1 33.55 7.45 40.85 11.15 M41.95 38.3 L41.95 42.75 39.4 43.95 Q39.25 42.35 39.25 40.75 L41.95 38.3 M29.3 44.85 L29.25 47.1 27.4 47.55 27.4 45.1 29.3 44.85 M17.4 42.55 L17.4 46.3 16.15 45.55 15.9 41.9 17.4 42.55 M52.05 16.5 L52.1 15.6 Q55.4 21.65 55.55 29.2 55.35 38.0 50.85 44.4 L50.85 42.75 Q54.75 36.6 54.95 28.6 54.75 21.85 52.05 16.5 M41.95 51.4 L42.0 52.4 38.35 54.05 38.55 53.05 41.95 51.4 M30.85 54.9 L33.95 55.25 Q28.6 56.35 23.3 55.25 L25.95 54.9 30.85 54.9 M17.3 52.6 L17.45 53.45 15.15 52.25 15.15 51.45 17.3 52.6" fill="#d2c0c0" fill-rule="evenodd" stroke="none"/>
      <path d="M44.15 4.15 L43.5 4.2 Q37.0 0.25 28.6 0.05 L29.2 0.0 Q37.65 0.2 44.15 4.15 M1.3 37.15 Q3.0 42.7 6.85 47.2 L6.9 47.7 Q2.95 43.0 1.3 37.15" fill="#8d3f6d" fill-rule="evenodd" stroke="none"/>
      <path d="M40.8 9.45 L40.85 11.15 Q33.55 7.45 25.25 9.1 15.75 11.05 10.4 19.05 7.85 22.9 7.75 27.7 7.6 32.95 9.6 37.55 L12.05 37.4 14.45 37.8 7.95 37.8 Q3.5 25.3 11.45 14.7 17.0 7.25 26.3 6.1 34.15 5.3 40.8 9.45 M41.95 42.75 L41.85 47.1 39.25 48.7 38.7 49.4 38.9 15.85 30.2 15.55 Q33.5 13.75 37.2 14.75 40.15 15.65 39.9 19.05 39.05 29.85 39.25 40.75 39.25 42.35 39.4 43.95 L41.95 42.75 M29.25 47.1 L29.25 51.35 26.7 51.5 26.7 27.55 26.4 27.25 Q22.25 25.8 17.8 27.05 19.55 26.25 21.6 26.15 L24.6 26.45 Q27.6 26.9 27.45 30.1 27.1 37.6 27.4 45.1 L27.4 47.55 29.25 47.1 M17.4 46.3 L17.35 48.85 15.05 47.8 15.3 38.55 15.9 41.9 16.15 45.55 17.4 46.3" fill="#bda3a3" fill-rule="evenodd" stroke="none"/>
      <path d="M7.95 37.8 L6.95 38.05 Q5.2 33.9 5.05 28.9 5.3 19.0 12.0 12.3 18.7 5.6 28.65 5.3 35.55 5.45 40.8 8.75 L40.8 9.45 Q34.15 5.3 26.3 6.1 17.0 7.25 11.45 14.7 3.5 25.3 7.95 37.8 M41.85 47.1 L41.85 47.95 38.7 49.8 38.7 49.4 39.25 48.7 41.85 47.1 M29.25 51.35 L29.25 52.05 26.7 51.95 26.7 51.5 29.25 51.35 M51.15 34.95 L51.65 24.65 51.85 28.65 Q51.9 31.85 51.15 34.95" fill="#aa8888" fill-rule="evenodd" stroke="none"/>
      <path d="M45.1 11.4 Q45.25 10.0 46.65 9.85 L47.45 10.1 45.35 12.2 45.1 11.4 M46.3 12.95 L48.05 10.7 Q48.75 12.6 46.65 13.0 L46.3 12.95 M44.9 46.45 L47.6 47.8 46.85 48.1 Q45.45 48.6 44.9 47.25 L44.9 46.45 M47.9 46.25 L47.95 47.0 45.3 45.7 Q45.55 45.45 45.9 45.3 47.35 44.95 47.9 46.25 M35.4 21.6 L32.45 21.65 32.75 21.0 35.0 20.95 35.4 21.6 M32.4 22.2 L35.35 22.15 35.05 22.8 32.8 22.85 32.4 22.2 M9.4 44.7 L11.55 46.85 10.75 47.05 Q9.35 46.9 9.2 45.45 L9.4 44.7 M12.35 45.45 L12.15 46.25 10.0 44.1 10.75 43.9 Q12.2 44.05 12.35 45.45 M22.45 34.35 L21.65 34.55 Q20.35 34.35 20.1 32.95 L20.3 32.2 22.45 34.35 M21.65 31.4 Q23.1 31.55 23.25 32.95 L23.05 33.75 20.9 31.6 21.65 31.4 M22.15 48.6 L22.85 48.8 20.75 50.9 20.55 50.15 Q20.65 49.4 21.1 49.0 21.45 48.65 22.15 48.6 M35.3 49.15 L32.6 50.35 32.65 49.55 33.1 49.1 35.3 49.15 M33.2 51.4 L35.7 49.95 34.55 51.7 33.2 51.4 M21.35 51.55 L23.6 49.7 Q23.9 51.55 22.1 51.75 L21.35 51.55" fill="#a68884" fill-rule="evenodd" stroke="none"/>
      <path d="M48.95 12.35 Q47.65 21.15 47.35 30.15 47.2 35.85 48.05 41.5 L48.3 45.2 Q47.35 44.0 45.65 44.45 L44.6 45.2 44.55 12.65 Q45.1 13.75 46.65 13.9 48.4 13.7 48.95 12.35 M48.1 48.55 L47.7 49.65 Q46.8 49.75 46.3 49.2 L48.1 48.55 M35.55 23.9 L35.35 25.1 Q34.65 36.55 35.4 48.0 L35.0 47.8 Q33.2 47.3 32.2 48.6 31.7 47.3 31.7 45.7 31.65 43.75 31.85 41.85 32.7 32.75 32.05 23.7 L32.2 23.85 Q33.9 25.2 35.55 23.9 M20.1 34.85 L23.2 34.9 23.55 48.15 20.8 48.1 20.1 34.85 M9.05 43.7 Q8.8 41.5 10.2 39.95 L11.4 40.05 11.6 40.3 Q12.3 41.75 12.0 43.35 L11.45 43.15 Q10.1 42.75 9.05 43.7 M11.75 47.7 L11.4 52.4 Q10.75 52.65 10.4 52.15 8.85 50.0 9.05 47.25 10.7 48.45 11.75 47.7" fill="#c7abb9" fill-rule="evenodd" stroke="none"/>
      <path d="M40.95 5.25 L40.85 7.15 Q31.5 2.15 21.3 5.15 11.65 8.15 7.05 17.05 1.4 28.1 6.05 39.7 L6.35 41.05 6.5 43.3 Q2.2 37.0 2.0 28.6 2.3 17.35 9.8 9.9 17.25 2.4 28.5 2.1 35.45 2.3 40.95 5.25 M41.0 14.95 L41.95 38.3 39.25 40.75 Q39.05 29.85 39.9 19.05 40.15 15.65 37.2 14.75 33.5 13.75 30.2 15.55 L28.85 16.2 29.3 44.85 27.4 45.1 Q27.1 37.6 27.45 30.1 27.6 26.9 24.6 26.45 L21.6 26.15 Q19.55 26.25 17.8 27.05 L16.8 27.7 17.4 42.55 15.9 41.9 15.3 38.55 14.45 37.8 12.05 37.4 10.7 34.3 Q8.2 28.0 11.6 22.15 16.7 14.25 25.95 12.6 30.25 11.95 35.2 12.55 38.6 13.0 41.0 14.95 M50.85 42.75 Q50.6 40.15 51.5 38.1 53.35 33.65 53.2 28.65 53.15 26.45 52.6 24.4 51.5 20.6 52.05 16.5 54.75 21.85 54.95 28.6 54.75 36.6 50.85 42.75 M38.55 53.05 L38.7 51.3 41.85 49.6 41.95 51.4 38.55 53.05 M25.95 54.9 L26.6 53.3 29.45 53.4 29.55 53.85 Q29.8 54.75 30.85 54.9 L25.95 54.9 M15.15 51.45 L15.1 49.4 17.25 50.65 Q17.2 51.75 17.3 52.6 L15.15 51.45" fill="#e3d7d7" fill-rule="evenodd" stroke="none"/>
    </g>
    <g id="text0" transform="matrix(1.0, 0.0, 0.0, 1.0, -1.2, -6.4)">
      <g transform="matrix(1.0, 0.0, 0.0, 1.0, 0.0, 0.0)">
        <use fill="#ffffff" height="47.7" transform="matrix(0.5469, 0.0, 0.0, 0.5469, 0.0, 24.0)" width="129.05" xlink:href="#font_______W7_C0"/>
        <use fill="#ffffff" height="47.7" transform="matrix(0.5469, 0.0, 0.0, 0.5469, 18.85, 24.0)" width="129.05" xlink:href="#font_______W7_o0"/>
        <use fill="#ffffff" height="47.7" transform="matrix(0.5469, 0.0, 0.0, 0.5469, 33.9, 24.0)" width="129.05" xlink:href="#font_______W7_r0"/>
        <use fill="#ffffff" height="47.7" transform="matrix(0.5469, 0.0, 0.0, 0.5469, 44.3, 24.0)" width="129.05" xlink:href="#font_______W7_p0"/>
        <use fill="#ffffff" height="47.7" transform="matrix(0.5469, 0.0, 0.0, 0.5469, 60.5, 24.0)" width="129.05" xlink:href="#font_______W7_o0"/>
        <use fill="#ffffff" height="47.7" transform="matrix(0.5469, 0.0, 0.0, 0.5469, 75.55, 24.0)" width="129.05" xlink:href="#font_______W7_r0"/>
        <use fill="#ffffff" height="47.7" transform="matrix(0.5469, 0.0, 0.0, 0.5469, 85.95, 24.0)" width="129.05" xlink:href="#font_______W7_a0"/>
        <use fill="#ffffff" height="47.7" transform="matrix(0.5469, 0.0, 0.0, 0.5469, 102.05, 24.0)" width="129.05" xlink:href="#font_______W7_t0"/>
        <use fill="#ffffff" height="47.7" transform="matrix(0.5469, 0.0, 0.0, 0.5469, 115.3, 24.0)" width="129.05" xlink:href="#font_______W7_e0"/>
      </g>
      <g transform="matrix(1.0, 0.0, 0.0, 1.0, 0.0, 0.0)">
        <use fill="#ffffff" height="47.7" transform="matrix(0.5469, 0.0, 0.0, 0.5469, 21.0, 54.0)" width="129.05" xlink:href="#font_______W7_R0"/>
        <use fill="#ffffff" height="47.7" transform="matrix(0.5469, 0.0, 0.0, 0.5469, 41.1, 54.0)" width="129.05" xlink:href="#font_______W7_a0"/>
        <use fill="#ffffff" height="47.7" transform="matrix(0.5469, 0.0, 0.0, 0.5469, 57.2, 54.0)" width="129.05" xlink:href="#font_______W7_i0"/>
        <use fill="#ffffff" height="47.7" transform="matrix(0.5469, 0.0, 0.0, 0.5469, 67.45, 54.0)" width="129.05" xlink:href="#font_______W7_d0"/>
        <use fill="#ffffff" height="47.7" transform="matrix(0.5469, 0.0, 0.0, 0.5469, 83.7, 54.0)" width="129.05" xlink:href="#font_______W7_e0"/>
        <use fill="#ffffff" height="47.7" transform="matrix(0.5469, 0.0, 0.0, 0.5469, 99.35, 54.0)" width="129.05" xlink:href="#font_______W7_r0"/>
      </g>
    </g>
    <g id="font_______W7_C0">
      <path d="M26.2 -15.4 L26.2 -15.4 Q21.6 -8.3 16.1 -8.3 12.35 -8.3 10.4 -10.7 8.6 -12.9 8.6 -16.75 8.6 -21.2 11.05 -23.95 13.55 -26.6 17.95 -26.6 23.65 -26.6 27.3 -22.25 L31.1 -26.05 Q28.65 -28.9 25.1 -30.55 21.55 -32.15 17.8 -32.15 10.8 -32.15 6.45 -27.4 2.05 -22.7 2.05 -15.6 2.05 -8.95 6.35 -4.45 10.7 0.05 17.3 0.05 25.6 0.05 32.65 -7.35 L26.2 -15.4" fill-rule="evenodd" stroke="none"/>
    </g>
    <g id="font_______W7_o0">
      <path d="M15.8 -13.5 L15.8 -13.5 Q16.45 -11.85 16.45 -10.4 16.45 -6.85 12.35 -6.85 10.6 -6.85 9.35 -8.05 8.15 -9.35 8.15 -11.05 8.15 -13.25 9.8 -14.6 11.4 -16.0 13.7 -16.0 16.1 -16.0 18.3 -14.3 L15.8 -13.5 M25.7 -11.4 L25.7 -11.4 Q25.7 -13.8 24.75 -16.35 L21.25 -15.25 22.7 -17.2 Q18.35 -21.45 13.15 -21.45 8.45 -21.45 5.1 -18.2 1.8 -14.95 1.8 -10.3 1.8 -5.5 5.4 -2.65 8.65 0.05 13.65 0.05 18.75 0.05 22.2 -3.2 25.7 -6.4 25.7 -11.4" fill-rule="evenodd" stroke="none"/>
    </g>
    <g id="font_______W7_r0">
      <path d="M18.3 -20.6 L18.3 -20.6 Q16.55 -21.45 14.75 -21.45 11.5 -21.45 8.7 -18.65 L8.45 -20.75 4.45 -21.45 2.55 0.05 10.65 -1.4 9.3 -12.8 Q10.55 -14.85 12.3 -14.85 13.25 -14.85 14.55 -13.85 L16.55 -12.05 18.3 -20.6" fill-rule="evenodd" stroke="none"/>
    </g>
    <g id="font_______W7_p0">
      <path d="M20.7 -12.7 L20.7 -12.7 Q20.7 -9.3 17.35 -9.3 14.95 -9.3 12.7 -12.0 L10.6 -8.4 10.05 -13.4 Q12.6 -16.55 16.2 -16.55 18.05 -16.55 19.35 -15.55 20.7 -14.5 20.7 -12.7 M27.8 -10.85 L27.8 -10.85 Q27.8 -15.55 24.6 -18.5 21.4 -21.45 16.7 -21.45 12.55 -21.45 9.35 -19.15 L9.2 -20.75 4.35 -21.45 2.05 4.75 11.95 3.3 11.35 -1.45 Q14.35 0.05 17.2 0.05 21.85 0.05 24.85 -3.05 27.8 -6.15 27.8 -10.85" fill-rule="evenodd" stroke="none"/>
    </g>
    <g id="font_______W7_a0">
      <path d="M19.05 -8.85 L19.05 -8.85 18.5 -5.05 17.1 -9.0 Q14.35 -6.2 10.6 -6.2 9.95 -6.2 9.45 -6.75 9.0 -7.2 9.0 -7.85 9.0 -10.2 13.7 -10.2 15.9 -10.2 19.05 -8.85 M27.4 -6.8 L27.4 -6.8 Q27.4 -21.45 13.35 -21.45 7.15 -21.45 2.55 -18.35 L4.3 -14.35 Q8.3 -16.55 13.15 -16.55 17.85 -16.55 18.85 -13.35 15.4 -14.5 12.8 -14.5 8.6 -14.5 5.6 -12.8 1.8 -10.75 1.8 -6.95 1.8 -3.5 4.9 -1.55 7.55 0.05 11.15 0.05 13.95 0.05 17.35 -0.95 L17.0 0.15 26.7 -0.3 Q27.4 -3.45 27.4 -6.8" fill-rule="evenodd" stroke="none"/>
    </g>
    <g id="font_______W7_t0">
      <path d="M18.7 -12.2 L18.7 -12.2 Q17.0 -9.35 14.9 -9.35 11.95 -9.35 11.95 -15.4 L21.65 -15.4 20.1 -22.55 12.4 -21.45 Q12.75 -24.2 13.6 -27.95 L8.95 -28.85 Q7.75 -24.65 7.1 -20.75 L0.75 -19.9 1.75 -15.4 6.55 -15.4 6.5 -12.55 Q6.5 -6.8 7.75 -4.05 9.5 0.05 14.55 0.05 19.1 0.05 23.25 -4.15 L18.7 -12.2" fill-rule="evenodd" stroke="none"/>
    </g>
    <g id="font_______W7_e0">
      <path d="M19.45 -9.9 L19.45 -9.9 Q16.75 -7.55 13.6 -7.55 10.45 -7.55 9.15 -9.9 L19.45 -9.9 M9.0 -13.4 L9.0 -13.4 Q9.7 -14.95 11.5 -15.95 13.2 -16.8 15.1 -16.8 18.05 -16.8 19.65 -14.35 L9.0 -13.4 M23.25 -9.9 L23.25 -9.9 24.3 -9.9 26.7 -12.6 Q25.85 -16.7 22.9 -19.1 19.9 -21.45 15.15 -21.45 9.65 -21.45 5.9 -18.65 1.8 -15.6 1.8 -10.4 1.8 -5.35 5.8 -2.5 9.3 0.05 14.6 0.05 22.45 0.05 27.15 -4.25 L23.25 -9.9" fill-rule="evenodd" stroke="none"/>
    </g>
    <g id="font_______W7_R0">
      <path d="M25.55 -21.75 L25.55 -21.75 Q25.55 -19.95 24.25 -18.8 23.0 -17.7 21.2 -17.7 17.15 -17.7 13.5 -20.8 L11.65 -16.3 10.9 -24.1 Q15.35 -26.5 19.05 -26.5 21.5 -26.5 23.35 -25.35 25.55 -24.05 25.55 -21.75 M28.0 -11.75 L28.0 -11.75 Q32.55 -14.8 32.55 -20.5 32.55 -26.0 28.75 -28.9 25.35 -31.55 19.75 -31.55 15.45 -31.55 10.4 -29.45 L10.2 -31.45 5.3 -32.15 2.55 0.05 13.15 -1.1 12.2 -11.0 Q15.85 -9.4 19.4 -9.4 L21.5 -9.5 26.7 0.2 34.7 -6.1 28.0 -11.75" fill-rule="evenodd" stroke="none"/>
    </g>
    <g id="font_______W7_i0">
      <path d="M11.6 -20.75 L11.6 -20.75 6.75 -21.45 4.45 0.05 14.3 -1.4 11.6 -20.75 M11.9 -31.5 L11.9 -31.5 6.5 -32.15 4.9 -24.95 13.2 -26.1 11.9 -31.5" fill-rule="evenodd" stroke="none"/>
    </g>
    <g id="font_______W7_d0">
      <path d="M18.35 -8.95 L18.35 -8.95 16.8 -11.9 Q14.75 -9.45 12.45 -9.45 10.9 -9.45 10.0 -10.4 9.1 -11.4 9.1 -12.95 9.1 -14.5 10.7 -15.6 12.15 -16.5 13.7 -16.5 16.6 -16.5 18.8 -14.55 L18.35 -8.95 M24.9 -31.55 L24.9 -31.55 20.15 -32.2 19.15 -19.55 Q16.05 -21.45 12.65 -21.45 8.15 -21.45 4.95 -18.25 1.8 -15.0 1.8 -10.5 1.8 -6.05 4.6 -3.05 7.4 0.05 11.85 0.05 14.65 0.05 17.7 -1.5 L17.6 0.0 27.65 -1.45 24.9 -31.55" fill-rule="evenodd" stroke="none"/>
    </g>
    <g id="text1" transform="matrix(1.0, 0.0, 0.0, 1.0, -1.4, -6.4)">
      <g transform="matrix(1.0, 0.0, 0.0, 1.0, 0.0, 0.0)">
        <use fill="#ffffff" height="20.2" transform="matrix(0.5469, 0.0, 0.0, 0.5469, 0.0, 24.0)" width="158.95" xlink:href="#font_______W7_L0"/>
        <use fill="#ffffff" height="20.2" transform="matrix(0.5469, 0.0, 0.0, 0.5469, 17.95, 24.0)" width="158.95" xlink:href="#font_______W7_e0"/>
        <use fill="#ffffff" height="20.2" transform="matrix(0.5469, 0.0, 0.0, 0.5469, 33.65, 24.0)" width="158.95" xlink:href="#font_______W7_g0"/>
        <use fill="#ffffff" height="20.2" transform="matrix(0.5469, 0.0, 0.0, 0.5469, 49.15, 24.0)" width="158.95" xlink:href="#font_______W7_a0"/>
        <use fill="#ffffff" height="20.2" transform="matrix(0.5469, 0.0, 0.0, 0.5469, 65.25, 24.0)" width="158.95" xlink:href="#font_______W7_l0"/>
        <use fill="#ffffff" height="20.2" transform="matrix(0.5469, 0.0, 0.0, 0.5469, 84.85, 24.0)" width="158.95" xlink:href="#font_______W7_E0"/>
        <use fill="#ffffff" height="20.2" transform="matrix(0.5469, 0.0, 0.0, 0.5469, 103.65, 24.0)" width="158.95" xlink:href="#font_______W7_a0"/>
        <use fill="#ffffff" height="20.2" transform="matrix(0.5469, 0.0, 0.0, 0.5469, 119.75, 24.0)" width="158.95" xlink:href="#font_______W7_g0"/>
        <use fill="#ffffff" height="20.2" transform="matrix(0.5469, 0.0, 0.0, 0.5469, 135.25, 24.0)" width="158.95" xlink:href="#font_______W7_l0"/>
        <use fill="#ffffff" height="20.2" transform="matrix(0.5469, 0.0, 0.0, 0.5469, 145.5, 24.0)" width="158.95" xlink:href="#font_______W7_e0"/>
      </g>
    </g>
    <g id="font_______W7_L0">
      <path d="M30.55 -8.45 L30.55 -8.45 12.65 -6.2 10.2 -31.55 5.3 -32.15 2.55 0.05 8.05 -0.55 32.1 -0.65 30.55 -8.45" fill-rule="evenodd" stroke="none"/>
    </g>
    <g id="font_______W7_g0">
      <path d="M21.25 -12.75 L21.25 -12.75 21.05 -10.5 18.9 -14.7 Q15.2 -11.7 11.9 -11.7 10.85 -11.7 10.0 -12.55 9.05 -13.45 9.05 -14.45 9.05 -16.75 13.35 -16.75 15.6 -16.75 18.05 -15.7 20.3 -14.7 21.2 -13.55 L21.25 -12.75 M26.3 -10.4 L26.3 -10.4 Q26.3 -15.45 24.2 -21.5 L20.0 -20.3 20.3 -19.15 Q16.35 -21.45 12.1 -21.45 8.15 -21.45 5.4 -19.3 2.35 -16.95 2.35 -13.2 2.35 -9.45 5.85 -7.35 8.8 -5.6 12.75 -5.6 16.55 -5.6 19.75 -6.9 17.8 -3.95 13.25 -3.95 8.55 -3.95 4.75 -6.35 L1.8 2.9 Q6.7 4.75 11.2 4.75 18.25 4.75 22.25 0.65 26.3 -3.4 26.3 -10.4" fill-rule="evenodd" stroke="none"/>
    </g>
    <g id="font_______W7_l0">
      <path d="M11.6 -31.5 L11.6 -31.5 6.9 -32.15 4.35 0.05 14.4 -1.4 11.6 -31.5" fill-rule="evenodd" stroke="none"/>
    </g>
    <g id="font_______W7_E0">
      <path d="M31.25 -9.2 L31.25 -9.2 12.6 -6.6 12.0 -12.95 30.3 -12.95 28.75 -20.5 11.5 -17.95 10.9 -24.05 31.85 -24.05 30.3 -31.55 10.45 -29.1 10.2 -31.5 5.3 -32.15 2.55 0.05 13.15 -1.1 13.1 -1.45 32.75 -1.45 31.25 -9.2" fill-rule="evenodd" stroke="none"/>
    </g>
    <g id="text2" transform="matrix(1.0, 0.0, 0.0, 1.0, -1.4, -6.4)">
      <g transform="matrix(1.0, 0.0, 0.0, 1.0, 0.0, 0.0)">
        <use fill="#ffffff" height="17.75" transform="matrix(0.5469, 0.0, 0.0, 0.5469, 0.0, 24.0)" width="149.9" xlink:href="#font_______W7_L0"/>
        <use fill="#ffffff" height="17.75" transform="matrix(0.5469, 0.0, 0.0, 0.5469, 17.95, 24.0)" width="149.9" xlink:href="#font_______W7_o0"/>
        <use fill="#ffffff" height="17.75" transform="matrix(0.5469, 0.0, 0.0, 0.5469, 33.0, 24.0)" width="149.9" xlink:href="#font_______W7_a0"/>
        <use fill="#ffffff" height="17.75" transform="matrix(0.5469, 0.0, 0.0, 0.5469, 49.1, 24.0)" width="149.9" xlink:href="#font_______W7_n0"/>
        <use fill="#ffffff" height="17.75" transform="matrix(0.5469, 0.0, 0.0, 0.5469, 74.3, 24.0)" width="149.9" xlink:href="#font_______W7_S0"/>
        <use fill="#ffffff" height="17.75" transform="matrix(0.5469, 0.0, 0.0, 0.5469, 92.7, 24.0)" width="149.9" xlink:href="#font_______W7_h0"/>
        <use fill="#ffffff" height="17.75" transform="matrix(0.5469, 0.0, 0.0, 0.5469, 109.15, 24.0)" width="149.9" xlink:href="#font_______W7_a0"/>
        <use fill="#ffffff" height="17.75" transform="matrix(0.5469, 0.0, 0.0, 0.5469, 125.25, 24.0)" width="149.9" xlink:href="#font_______W7_r0"/>
        <use fill="#ffffff" height="17.75" transform="matrix(0.5469, 0.0, 0.0, 0.5469, 135.65, 24.0)" width="149.9" xlink:href="#font_______W7_k0"/>
      </g>
    </g>
    <g id="font_______W7_n0">
      <path d="M27.0 -9.05 L27.0 -9.05 Q27.0 -14.5 24.65 -17.8 21.9 -21.45 16.6 -21.45 12.6 -21.45 9.45 -18.85 L9.2 -20.75 4.35 -21.45 2.05 0.05 11.95 -1.4 10.35 -12.55 Q12.95 -15.85 15.9 -15.85 19.4 -15.85 19.4 -10.6 19.4 -6.9 16.6 -1.3 L26.2 0.0 Q27.0 -6.5 27.0 -9.05" fill-rule="evenodd" stroke="none"/>
    </g>
    <g id="font_______W7_S0">
      <path d="M31.55 -9.25 L31.55 -9.25 Q31.55 -13.4 28.3 -15.85 25.95 -17.65 19.7 -19.75 10.7 -22.75 10.7 -24.2 10.7 -25.4 11.9 -26.1 13.0 -26.75 14.65 -26.75 21.7 -26.75 27.4 -23.2 L30.25 -27.8 Q24.05 -32.15 16.75 -32.15 11.9 -32.15 8.45 -30.45 4.0 -28.25 4.0 -23.9 4.0 -20.3 7.85 -18.05 9.4 -17.1 15.9 -14.75 23.85 -11.9 23.85 -10.1 23.85 -8.7 22.45 -7.9 21.25 -7.25 19.75 -7.25 15.9 -7.25 12.1 -9.95 8.85 -12.25 6.35 -15.9 L1.55 -6.1 Q4.85 -3.25 9.45 -1.6 14.1 0.05 18.65 0.05 23.45 0.05 27.15 -2.15 31.55 -4.75 31.55 -9.25" fill-rule="evenodd" stroke="none"/>
    </g>
    <g id="font_______W7_h0">
      <path d="M28.1 -7.6 L28.1 -7.6 Q28.1 -13.7 25.7 -17.25 22.9 -21.45 17.05 -21.45 13.35 -21.45 10.45 -19.3 L9.3 -31.55 4.65 -32.15 2.05 0.05 12.1 -1.4 11.0 -12.9 Q13.45 -15.95 16.35 -15.95 20.1 -15.95 20.1 -10.2 20.1 -6.55 17.6 -1.55 L27.6 0.05 28.1 -7.6" fill-rule="evenodd" stroke="none"/>
    </g>
    <g id="font_______W7_k0">
      <path d="M20.35 -12.2 L20.35 -12.2 26.9 -17.9 24.8 -21.8 10.85 -14.65 9.3 -31.45 4.6 -32.15 2.05 0.05 12.1 -1.4 11.35 -9.1 13.25 -6.05 15.8 -8.25 22.05 0.25 28.6 -6.95 20.35 -12.2" fill-rule="evenodd" stroke="none"/>
    </g>
    <g id="text3" transform="matrix(1.0, 0.0, 0.0, 1.0, -0.4, -6.4)">
      <g transform="matrix(1.0, 0.0, 0.0, 1.0, 0.0, 0.0)">
        <use fill="#ffffff" height="20.2" transform="matrix(0.5469, 0.0, 0.0, 0.5469, 0.0, 24.0)" width="159.1" xlink:href="#font_______W7_T0"/>
        <use fill="#ffffff" height="20.2" transform="matrix(0.5469, 0.0, 0.0, 0.5469, 18.15, 24.0)" width="159.1" xlink:href="#font_______W7_h0"/>
        <use fill="#ffffff" height="20.2" transform="matrix(0.5469, 0.0, 0.0, 0.5469, 34.6, 24.0)" width="159.1" xlink:href="#font_______W7_e0"/>
        <use fill="#ffffff" height="20.2" transform="matrix(0.5469, 0.0, 0.0, 0.5469, 59.6, 24.0)" width="159.1" xlink:href="#font_______W7_M0"/>
        <use fill="#ffffff" height="20.2" transform="matrix(0.5469, 0.0, 0.0, 0.5469, 81.95, 24.0)" width="159.1" xlink:href="#font_______W7_i0"/>
        <use fill="#ffffff" height="20.2" transform="matrix(0.5469, 0.0, 0.0, 0.5469, 92.2, 24.0)" width="159.1" xlink:href="#font_______W7_n0"/>
        <use fill="#ffffff" height="20.2" transform="matrix(0.5469, 0.0, 0.0, 0.5469, 108.1, 24.0)" width="159.1" xlink:href="#font_______W7_g0"/>
        <use fill="#ffffff" height="20.2" transform="matrix(0.5469, 0.0, 0.0, 0.5469, 123.6, 24.0)" width="159.1" xlink:href="#font_______W7_l0"/>
        <use fill="#ffffff" height="20.2" transform="matrix(0.5469, 0.0, 0.0, 0.5469, 133.85, 24.0)" width="159.1" xlink:href="#font_______W7_e0"/>
        <use fill="#ffffff" height="20.2" transform="matrix(0.5469, 0.0, 0.0, 0.5469, 149.5, 24.0)" width="159.1" xlink:href="#font_______W7_r0"/>
      </g>
    </g>
    <g id="font_______W7_T0">
      <path d="M30.8 -32.15 L30.8 -32.15 0.75 -29.4 1.85 -24.25 13.45 -24.25 11.0 0.05 21.6 -1.1 18.95 -24.25 32.35 -24.25 30.8 -32.15" fill-rule="evenodd" stroke="none"/>
    </g>
    <g id="font_______W7_M0">
      <path d="M35.55 -31.55 L35.55 -31.55 30.8 -32.15 20.2 -14.25 9.85 -31.5 5.1 -32.15 2.55 0.05 12.6 -1.4 10.85 -20.45 18.7 -2.25 22.0 -3.05 29.9 -20.9 28.25 0.05 38.3 -1.4 35.55 -31.55" fill-rule="evenodd" stroke="none"/>
    </g>
  </defs>
</svg>
