<?xml version="1.0" encoding="UTF-8" standalone="no"?>
<svg xmlns:xlink="http://www.w3.org/1999/xlink" height="323.05px" width="595.1px" xmlns="http://www.w3.org/2000/svg">
  <g transform="matrix(1.0, 0.0, 0.0, 1.0, 68.25, 14.45)">
    <use height="274.25" transform="matrix(0.8186, -0.1744, 0.1784, 0.8372, -3.25, 50.45)" width="221.55" xlink:href="#shape0"/>
    <use height="62.9" transform="matrix(0.635, 0.0, 0.0, 0.635, 181.4452, 116.55)" width="60.15" xlink:href="#shape1"/>
    <use height="272.4" transform="matrix(0.7849, 0.0312, -0.0312, 0.7849, 240.8693, 9.7258)" width="223.6" xlink:href="#shape2"/>
    <use height="59.15" transform="matrix(0.6922, 0.0275, -0.0275, 0.6922, 302.6846, 131.7514)" width="57.15" xlink:href="#shape3"/>
    <use height="62.9" transform="matrix(0.6366, -0.076, 0.076, 0.6366, 100.0455, 166.3886)" width="60.15" xlink:href="#shape1"/>
    <use height="274.6" transform="matrix(0.8181, -0.0865, 0.0865, 0.8181, 111.25, 55.9)" width="218.15" xlink:href="#shape4"/>
    <use height="57.2" transform="matrix(0.6929, 0.0, 0.0, 0.6929, 198.1232, 179.5193)" width="56.95" xlink:href="#shape5"/>
    <use height="263.05" transform="matrix(0.8654, 0.0538, -0.0565, 0.9095, 332.1, 37.05)" width="214.35" xlink:href="#shape6"/>
    <use height="57.25" transform="matrix(0.6914, 0.043, -0.043, 0.6914, 396.1691, 195.6043)" width="57.1" xlink:href="#shape7"/>
    <use height="20.2" transform="matrix(0.6353, -0.1532, 0.1532, 0.6353, -68.2656, 123.5546)" width="210.1" xlink:href="#text0"/>
    <use height="20.2" transform="matrix(0.6922, 0.0275, -0.0275, 0.6922, 306.0432, -13.7814)" width="81.0" xlink:href="#text1"/>
    <use height="17.7" transform="matrix(0.6887, -0.0728, 0.0728, 0.6887, 165.9798, 290.0557)" width="178.0" xlink:href="#text2"/>
    <use height="20.2" transform="matrix(0.6914, 0.043, -0.043, 0.6914, 349.9928, 287.3349)" width="170.15" xlink:href="#text3"/>
  </g>
  <defs>
    <g id="shape0" transform="matrix(1.0, 0.0, 0.0, 1.0, 0.0, 0.0)">
      <path d="M185.2 170.35 L211.6 124.15 170.15 98.35 166.15 121.45 151.1 124.1 157.95 129.1 157.4 130.8 116.6 162.1 113.7 165.95 113.6 271.25 159.1 271.25 151.15 216.0 151.35 214.95 162.6 204.45 185.2 170.35 M218.55 172.95 L212.7 128.25 187.8 171.85 164.85 206.4 173.3 231.45 172.65 240.8 184.6 232.8 185.1 232.6 Q192.25 233.7 199.35 235.15 199.9 235.15 200.2 235.65 L208.45 247.7 213.3 223.1 218.55 172.95 M214.7 122.5 L221.55 173.15 216.3 223.55 210.7 251.7 210.1 252.75 189.8 273.1 188.95 273.6 Q183.35 270.45 178.1 266.3 L173.35 262.6 168.5 258.85 168.45 258.35 168.65 257.85 170.4 255.1 172.2 252.4 Q170.7 248.2 169.6 243.95 169.3 242.7 169.35 241.45 L169.35 239.3 Q169.2 229.75 166.0 220.65 L164.05 214.8 162.3 208.9 154.2 216.35 162.3 272.55 161.9 273.7 161.25 274.2 160.8 274.25 61.8 274.1 60.65 272.6 66.15 220.35 52.45 205.3 47.3 231.8 49.9 243.25 49.9 244.3 48.75 248.4 47.4 252.4 51.1 258.9 Q44.15 264.65 36.5 269.7 L33.65 271.65 30.75 273.55 29.8 273.1 9.3 252.6 2.95 227.8 0.0 176.45 8.6 126.8 9.4 125.6 54.95 95.4 77.65 83.35 109.8 0.85 110.2 0.4 110.65 0.1 111.2 0.0 111.75 0.0 119.95 17.5 149.3 83.3 150.15 83.05 169.8 94.6 214.7 122.5 M167.4 96.65 L150.85 86.7 116.3 158.5 153.95 129.7 145.95 123.55 146.05 122.45 164.15 118.85 167.4 96.65 M122.8 45.05 Q126.4 46.05 128.45 49.0 L129.1 50.2 Q132.5 58.0 125.55 62.6 L126.0 62.8 126.4 63.45 126.2 64.2 125.5 64.6 Q119.75 64.55 114.9 61.65 L117.2 65.35 Q129.3 66.1 140.3 71.1 L118.95 22.7 118.0 23.35 Q112.55 25.95 110.4 20.3 110.15 15.4 114.9 13.95 L111.3 5.3 102.1 28.9 Q105.7 26.95 108.75 29.7 112.15 32.75 109.4 36.5 L108.9 36.9 Q103.1 39.8 100.4 33.3 L97.25 41.4 Q103.8 42.85 109.65 46.1 L108.8 47.3 Q111.15 49.55 111.75 52.75 L114.2 47.75 113.05 45.5 Q119.0 42.4 125.6 41.25 L126.05 41.9 Q125.9 42.85 125.35 43.65 124.4 44.95 122.8 45.05 M117.05 18.1 L116.45 17.0 113.5 17.65 112.85 19.15 113.15 20.0 Q114.1 21.75 115.85 21.3 L117.6 19.7 117.05 18.1 M100.15 45.3 L96.25 44.0 84.05 75.2 Q93.7 67.3 105.95 65.3 L107.45 62.4 Q102.0 66.35 95.7 65.2 L95.85 63.8 100.15 63.45 Q95.2 62.05 94.15 56.9 92.5 48.6 100.15 45.3 M119.5 46.4 L119.0 46.55 118.75 48.3 116.2 50.1 Q121.25 49.35 126.2 50.75 124.5 48.25 121.6 47.85 119.8 47.85 119.5 46.4 M107.8 32.85 Q107.55 30.9 105.55 30.7 103.6 30.9 103.4 32.85 103.6 34.8 105.6 35.1 107.55 34.85 107.8 32.85 M117.7 59.65 Q119.35 60.75 121.25 60.45 127.25 60.0 127.3 54.1 121.1 52.2 114.85 53.5 114.55 57.6 117.7 59.65 M113.15 59.7 L111.75 56.05 110.1 60.0 111.35 60.9 Q111.4 60.35 112.05 60.0 L113.15 59.7 M105.1 60.25 Q109.45 58.2 108.75 53.2 102.2 51.8 96.35 54.8 96.7 58.85 100.75 60.3 103.0 61.15 105.1 60.25 M89.0 76.65 Q90.6 75.8 92.4 75.6 112.8 73.2 133.3 73.95 138.6 74.65 141.05 79.1 L140.3 79.4 Q128.8 74.2 115.7 75.15 L98.05 76.25 Q89.85 75.95 84.85 82.15 L84.1 82.3 83.45 81.9 83.3 81.15 Q85.65 78.3 89.0 76.65 M112.75 65.95 L113.95 65.75 111.45 61.8 109.1 65.65 112.75 65.95 M120.8 67.8 L118.3 67.9 Q111.85 69.65 105.8 67.35 93.05 69.75 83.65 78.4 L82.8 78.4 80.95 83.15 Q97.65 88.2 114.75 91.45 L145.65 83.15 140.95 73.6 Q131.05 69.75 120.8 67.8 M81.55 86.4 L85.9 96.75 102.95 100.65 108.0 93.8 81.55 86.4 M119.65 77.1 L121.0 78.4 120.25 79.85 111.3 80.3 Q109.1 80.6 108.4 78.85 L108.65 77.65 119.65 77.1 M108.4 98.4 L110.25 105.65 116.7 105.55 118.3 97.55 114.55 94.6 111.1 94.6 110.9 95.1 109.9 95.65 108.4 98.4 M97.0 51.15 Q102.05 49.1 107.15 49.95 106.1 49.05 104.85 48.7 100.0 47.0 97.0 51.15 M147.35 85.6 L119.55 94.6 127.8 102.2 Q136.1 97.6 143.35 91.7 146.2 89.4 147.95 85.8 L147.35 85.6 M31.55 179.85 L10.75 132.1 2.95 176.75 5.95 227.5 11.05 247.85 19.2 235.5 Q19.35 235.25 19.65 235.15 L20.2 234.85 34.0 232.65 34.45 232.75 Q40.45 236.5 46.35 240.4 L44.3 231.55 49.95 202.55 31.55 179.85 M63.05 121.0 Q62.6 120.95 62.25 120.7 61.85 120.4 61.75 119.95 L55.0 98.95 12.0 127.45 34.0 178.1 52.75 201.15 52.85 201.3 68.8 218.85 69.15 219.4 69.2 220.0 63.85 271.25 110.6 271.25 110.6 168.95 72.05 132.35 Q71.65 132.0 71.55 131.45 71.5 130.95 71.8 130.5 L76.85 122.1 63.05 121.0 M78.25 86.25 L57.6 97.35 64.3 118.1 80.3 120.05 80.6 120.25 74.95 131.0 110.7 164.85 110.65 163.45 78.25 86.25 M120.85 99.95 L119.5 106.8 128.25 126.7 142.25 97.7 127.4 105.55 120.85 99.95 M117.0 108.55 L109.65 108.65 100.35 131.2 112.3 159.75 112.8 158.9 126.55 130.25 117.0 108.55 M106.1 101.55 L104.6 103.3 Q104.1 104.0 103.15 103.75 L87.3 100.1 98.7 127.3 107.3 106.6 106.1 101.55 M190.25 246.6 L190.45 246.9 Q191.4 251.1 191.7 255.3 L190.05 256.45 189.75 256.25 189.45 256.05 189.15 255.6 188.45 253.1 Q185.15 254.85 181.7 255.7 L173.8 255.4 171.85 258.3 188.6 270.1 207.3 251.4 198.25 237.7 185.75 235.65 172.65 244.35 175.3 252.2 175.35 252.8 179.4 254.35 188.0 250.0 187.9 246.55 189.5 246.05 Q189.9 246.25 190.25 246.6 M33.85 235.65 L21.3 237.7 12.3 251.4 31.0 270.1 47.75 258.3 45.8 255.4 39.8 257.5 31.15 253.05 30.15 256.25 28.7 256.25 29.55 246.25 31.3 246.3 31.6 250.0 40.2 254.35 44.3 252.8 46.95 244.4 33.85 235.65" fill="#1a1a1a" fill-rule="evenodd" stroke="none"/>
      <path d="M218.55 172.95 L213.3 223.1 208.45 247.7 200.2 235.65 Q199.9 235.15 199.35 235.15 192.25 233.7 185.1 232.6 L184.6 232.8 172.65 240.8 173.3 231.45 164.85 206.4 187.8 171.85 212.7 128.25 218.55 172.95 M185.2 170.35 L162.6 204.45 151.35 214.95 151.15 216.0 159.1 271.25 113.6 271.25 113.7 165.95 116.6 162.1 157.4 130.8 157.95 129.1 151.1 124.1 166.15 121.45 170.15 98.35 211.6 124.15 185.2 170.35 M167.4 96.65 L164.15 118.85 146.05 122.45 145.95 123.55 153.95 129.7 116.3 158.5 150.85 86.7 167.4 96.65 M78.25 86.25 L110.65 163.45 110.7 164.85 74.95 131.0 80.6 120.25 80.3 120.05 64.3 118.1 57.6 97.35 78.25 86.25 M63.05 121.0 L76.85 122.1 71.8 130.5 Q71.5 130.95 71.55 131.45 71.65 132.0 72.05 132.35 L110.6 168.95 110.6 271.25 63.85 271.25 69.2 220.0 69.15 219.4 68.8 218.85 52.85 201.3 52.75 201.15 34.0 178.1 12.0 127.45 55.0 98.95 61.75 119.95 Q61.85 120.4 62.25 120.7 62.6 120.95 63.05 121.0 M31.55 179.85 L49.95 202.55 44.3 231.55 46.35 240.4 Q40.45 236.5 34.45 232.75 L34.0 232.65 20.2 234.85 19.65 235.15 Q19.35 235.25 19.2 235.5 L11.05 247.85 5.95 227.5 2.95 176.75 10.75 132.1 31.55 179.85" fill="#591f0b" fill-rule="evenodd" stroke="none"/>
      <path d="M120.8 56.75 Q119.25 56.6 119.1 55.05 119.25 53.5 120.8 53.35 122.35 53.5 122.5 55.05 122.35 56.6 120.8 56.75 M103.05 53.85 Q104.6 54.0 104.75 55.55 104.6 57.1 103.05 57.25 101.5 57.1 101.35 55.55 101.5 54.0 103.05 53.85" fill="#000000" fill-rule="evenodd" stroke="none"/>
      <path d="M117.7 59.65 Q114.55 57.6 114.85 53.5 121.1 52.2 127.3 54.1 127.25 60.0 121.25 60.45 119.35 60.75 117.7 59.65 M120.8 56.75 Q122.35 56.6 122.5 55.05 122.35 53.5 120.8 53.35 119.25 53.5 119.1 55.05 119.25 56.6 120.8 56.75 M105.1 60.25 Q103.0 61.15 100.75 60.3 96.7 58.85 96.35 54.8 102.2 51.8 108.75 53.2 109.45 58.2 105.1 60.25 M103.05 53.85 Q101.5 54.0 101.35 55.55 101.5 57.1 103.05 57.25 104.6 57.1 104.75 55.55 104.6 54.0 103.05 53.85" fill="#ffffff" fill-rule="evenodd" stroke="none"/>
      <path d="M81.55 86.4 L108.0 93.8 102.95 100.65 85.9 96.75 81.55 86.4 M147.35 85.6 L147.95 85.8 Q146.2 89.4 143.35 91.7 136.1 97.6 127.8 102.2 L119.55 94.6 147.35 85.6 M120.85 99.95 L127.4 105.55 142.25 97.7 128.25 126.7 119.5 106.8 120.85 99.95 M106.1 101.55 L107.3 106.6 98.7 127.3 87.3 100.1 103.15 103.75 Q104.1 104.0 104.6 103.3 L106.1 101.55" fill="#d1b8a2" fill-rule="evenodd" stroke="none"/>
      <path d="M122.8 45.05 Q124.4 44.95 125.35 43.65 125.9 42.85 126.05 41.9 L125.6 41.25 Q119.0 42.4 113.05 45.5 L114.2 47.75 111.75 52.75 Q111.15 49.55 108.8 47.3 L109.65 46.1 Q103.8 42.85 97.25 41.4 L100.4 33.3 Q103.1 39.8 108.9 36.9 L109.4 36.5 Q112.15 32.75 108.75 29.7 105.7 26.95 102.1 28.9 L111.3 5.3 114.9 13.95 Q110.15 15.4 110.4 20.3 112.55 25.95 118.0 23.35 L118.95 22.7 140.3 71.1 Q129.3 66.1 117.2 65.35 L114.9 61.65 Q119.75 64.55 125.5 64.6 L126.2 64.2 126.4 63.45 126.0 62.8 125.55 62.6 Q132.5 58.0 129.1 50.2 L128.45 49.0 Q126.4 46.05 122.8 45.05 M100.15 45.3 Q92.5 48.6 94.15 56.9 95.2 62.05 100.15 63.45 L95.85 63.8 95.7 65.2 Q102.0 66.35 107.45 62.4 L105.95 65.3 Q93.7 67.3 84.05 75.2 L96.25 44.0 100.15 45.3 M113.15 59.7 L112.05 60.0 Q111.4 60.35 111.35 60.9 L110.1 60.0 111.75 56.05 113.15 59.7 M120.8 67.8 Q131.05 69.75 140.95 73.6 L145.65 83.15 114.75 91.45 Q97.65 88.2 80.95 83.15 L82.8 78.4 83.65 78.4 Q93.05 69.75 105.8 67.35 111.85 69.65 118.3 67.9 L120.8 67.8 M112.75 65.95 L109.1 65.65 111.45 61.8 113.95 65.75 112.75 65.95 M89.0 76.65 Q85.65 78.3 83.3 81.15 L83.45 81.9 84.1 82.3 84.85 82.15 Q89.85 75.95 98.05 76.25 L115.7 75.15 Q128.8 74.2 140.3 79.4 L141.05 79.1 Q138.6 74.65 133.3 73.95 112.8 73.2 92.4 75.6 90.6 75.8 89.0 76.65 M119.65 77.1 L108.65 77.65 108.4 78.85 Q109.1 80.6 111.3 80.3 L120.25 79.85 121.0 78.4 119.65 77.1 M33.85 235.65 L46.95 244.4 44.3 252.8 40.2 254.35 31.6 250.0 31.3 246.3 29.55 246.25 28.7 256.25 30.15 256.25 31.15 253.05 39.8 257.5 45.8 255.4 47.75 258.3 31.0 270.1 12.3 251.4 21.3 237.7 33.85 235.65 M190.25 246.6 Q189.9 246.25 189.5 246.05 L187.9 246.55 188.0 250.0 179.4 254.35 175.35 252.8 175.3 252.2 172.65 244.35 185.75 235.65 198.25 237.7 207.3 251.4 188.6 270.1 171.85 258.3 173.8 255.4 181.7 255.7 Q185.15 254.85 188.45 253.1 L189.15 255.6 189.45 256.05 189.75 256.25 190.05 256.45 191.7 255.3 Q191.4 251.1 190.45 246.9 L190.25 246.6" fill="#bcd6bc" fill-rule="evenodd" stroke="none"/>
      <path d="M117.05 18.1 L117.6 19.7 115.85 21.3 Q114.1 21.75 113.15 20.0 L112.85 19.15 113.5 17.65 116.45 17.0 117.05 18.1 M107.8 32.85 Q107.55 34.85 105.6 35.1 103.6 34.8 103.4 32.85 103.6 30.9 105.55 30.7 107.55 30.9 107.8 32.85 M119.5 46.4 Q119.8 47.85 121.6 47.85 124.5 48.25 126.2 50.75 121.25 49.35 116.2 50.1 L118.75 48.3 119.0 46.55 119.5 46.4 M97.0 51.15 Q100.0 47.0 104.85 48.7 106.1 49.05 107.15 49.95 102.05 49.1 97.0 51.15" fill="#5c965c" fill-rule="evenodd" stroke="none"/>
      <path d="M108.4 98.4 L109.9 95.65 110.9 95.1 111.1 94.6 114.55 94.6 118.3 97.55 116.7 105.55 110.25 105.65 108.4 98.4 M117.0 108.55 L126.55 130.25 112.8 158.9 112.3 159.75 100.35 131.2 109.65 108.65 117.0 108.55" fill="#331c1a" fill-rule="evenodd" stroke="none"/>
    </g>
    <g id="shape1" transform="matrix(1.0, 0.0, 0.0, 1.0, -0.15, 0.0)">
      <path d="M41.2 3.95 L41.15 4.0 41.3 4.0 44.35 3.65 45.1 3.6 49.85 3.3 50.1 7.7 50.1 10.1 49.75 10.45 47.5 10.8 45.55 11.05 44.6 11.15 36.4 11.95 33.15 17.35 Q38.35 28.65 45.4 38.9 L48.7 43.9 40.45 52.5 40.25 52.7 38.35 54.95 36.45 57.35 35.6 58.4 34.3 60.1 33.5 61.15 32.05 62.9 Q30.6 62.8 29.95 61.3 L29.3 60.4 28.2 58.8 27.65 57.95 26.25 56.0 25.6 55.0 Q21.25 48.5 15.35 43.2 L15.05 42.65 Q23.8 32.45 27.0 19.2 L27.55 17.35 24.35 12.1 15.95 11.2 14.75 11.05 12.8 10.8 11.4 10.55 Q10.85 10.45 10.8 10.0 L10.75 9.2 10.75 7.2 11.0 3.3 16.05 3.65 18.8 3.95 19.5 4.05 19.3 3.75 Q18.95 3.3 19.25 2.85 L19.5 2.5 23.6 2.4 36.5 2.4 41.35 2.85 41.2 3.95 M44.4 6.85 L42.0 9.25 42.85 9.45 Q44.45 9.3 44.6 7.7 L44.4 6.85 M41.3 8.5 L43.65 6.15 Q41.6 5.6 41.25 7.7 41.2 8.1 41.3 8.5 M41.15 9.85 Q40.25 9.15 40.1 7.7 40.25 6.15 41.3 5.45 L40.2 5.55 37.4 10.25 40.5 9.9 41.15 9.85 M43.9 5.2 Q45.4 5.8 45.6 7.7 L45.1 9.3 48.1 8.9 48.65 4.7 43.9 5.2 M41.95 38.2 L43.25 38.85 41.9 36.6 37.6 29.35 29.4 25.7 26.75 24.55 25.0 29.65 28.0 31.2 41.95 38.2 M41.95 42.6 Q41.05 43.25 41.3 44.35 L43.8 42.35 Q42.85 41.85 41.95 42.6 M44.15 45.15 L44.4 44.85 44.65 43.4 42.15 45.4 Q43.1 45.85 44.15 45.15 M39.1 48.25 L41.25 49.2 43.65 46.5 42.95 46.6 Q41.5 46.45 40.65 45.3 L40.2 43.85 40.4 42.95 26.4 36.65 22.6 35.0 19.65 39.65 20.85 40.15 22.1 39.8 23.45 40.4 25.05 42.0 39.1 48.25 M34.8 9.0 L35.5 9.6 38.0 5.3 36.5 4.05 35.25 4.1 29.2 4.25 34.8 9.0 M25.45 6.7 L22.5 4.4 22.0 4.4 Q24.5 8.6 27.15 12.45 28.0 13.7 29.3 14.6 L31.5 16.2 33.45 12.95 25.45 6.7 M20.7 6.0 L19.85 6.0 Q20.7 7.2 20.4 8.55 20.15 9.6 19.2 10.1 L23.4 10.5 20.7 6.0 M29.35 18.0 L28.25 20.0 29.85 20.75 34.35 22.7 32.2 18.0 29.35 18.0 M19.5 7.75 Q19.35 6.15 17.75 6.0 L16.95 6.25 19.3 8.6 19.5 7.75 M16.0 7.75 Q16.15 9.35 17.75 9.5 L18.6 9.3 16.25 6.95 Q16.05 7.25 16.0 7.75 M12.25 9.2 L15.8 9.7 Q14.6 8.25 15.3 6.7 L15.75 5.9 12.7 5.45 12.25 9.2 M23.25 41.2 L22.1 40.8 21.3 41.05 23.8 43.05 Q24.05 42.3 23.25 41.2 M20.35 42.55 Q20.5 44.15 22.1 44.3 L22.95 44.1 20.6 41.75 20.35 42.55 M25.05 47.75 L21.05 46.6 25.7 52.6 27.0 54.4 32.65 56.5 34.75 57.05 37.9 53.1 36.05 52.1 25.05 47.75" fill="#441c0c" fill-rule="evenodd" stroke="none"/>
      <path d="M41.3 4.0 L41.2 3.95 41.35 2.85 36.5 2.4 30.15 1.6 23.6 2.4 19.5 2.5 19.25 2.85 Q18.95 3.3 19.3 3.75 L18.8 3.95 16.05 3.65 Q20.25 1.5 25.0 0.6 L26.25 0.4 30.15 0.1 Q38.05 0.3 44.35 3.65 L41.3 4.0 M10.75 7.2 L10.75 9.2 9.9 10.0 Q1.8 18.1 1.5 30.25 1.8 42.4 9.9 50.5 17.35 57.95 28.2 58.8 L29.3 60.4 Q17.05 59.8 8.85 51.55 4.25 46.95 2.05 41.15 -2.2 29.0 3.1 17.3 5.8 11.45 10.75 7.2 M12.8 10.8 L14.75 11.05 Q8.85 15.8 6.5 23.15 3.4 33.0 8.5 42.1 13.6 51.25 23.55 53.95 L25.6 55.0 26.25 56.0 Q18.9 54.95 13.3 50.15 5.4 43.3 4.45 32.95 3.25 19.85 12.8 10.8 M34.3 60.1 L35.6 58.4 Q43.05 57.15 48.8 52.25 57.85 44.45 58.45 32.4 59.05 19.5 50.1 10.1 L50.1 7.7 51.45 8.95 Q60.0 17.45 60.3 30.25 60.0 43.05 51.45 51.55 44.35 58.7 34.3 60.1 M38.35 54.95 L40.25 52.7 Q51.55 47.35 54.05 35.2 56.15 25.1 50.65 16.55 48.6 13.3 45.55 11.05 L47.5 10.8 Q50.95 13.85 53.05 17.95 58.75 29.0 54.0 40.3 49.45 51.2 38.35 54.95" fill="#4f2713" fill-rule="evenodd" stroke="none"/>
      <path d="M41.3 4.0 L41.15 4.0 41.2 3.95 41.3 4.0 M36.5 2.4 L23.6 2.4 30.15 1.6 36.5 2.4 M19.3 3.75 L19.5 4.05 18.8 3.95 19.3 3.75 M10.75 9.2 L10.8 10.0 Q1.1 19.6 2.4 33.1 3.35 42.95 10.25 49.95 17.5 57.2 27.65 57.95 L28.2 58.8 Q17.35 57.95 9.9 50.5 1.8 42.4 1.5 30.25 1.8 18.1 9.9 10.0 L10.75 9.2 M35.6 58.4 L36.45 57.35 Q44.1 55.55 49.75 49.9 57.65 42.0 57.95 30.15 57.65 18.3 49.75 10.45 L50.1 10.1 Q59.05 19.5 58.45 32.4 57.85 44.45 48.8 52.25 43.05 57.15 35.6 58.4" fill="#a89678" fill-rule="evenodd" stroke="none"/>
      <path d="M45.1 3.6 L44.35 3.65 Q38.05 0.3 30.15 0.1 L26.25 0.4 30.75 0.0 Q38.75 0.2 45.1 3.6" fill="#724a30" fill-rule="evenodd" stroke="none"/>
      <path d="M41.3 8.5 Q41.2 8.1 41.25 7.7 41.6 5.6 43.65 6.15 L41.3 8.5 M44.4 6.85 L44.6 7.7 Q44.45 9.3 42.85 9.45 L42.0 9.25 44.4 6.85 M44.15 45.15 Q43.1 45.85 42.15 45.4 L44.65 43.4 44.4 44.85 44.15 45.15 M41.95 42.6 Q42.85 41.85 43.8 42.35 L41.3 44.35 Q41.05 43.25 41.95 42.6 M16.0 7.75 Q16.05 7.25 16.25 6.95 L18.6 9.3 17.75 9.5 Q16.15 9.35 16.0 7.75 M19.5 7.75 L19.3 8.6 16.95 6.25 17.75 6.0 Q19.35 6.15 19.5 7.75 M20.35 42.55 L20.6 41.75 22.95 44.1 22.1 44.3 Q20.5 44.15 20.35 42.55 M23.25 41.2 Q24.05 42.3 23.8 43.05 L21.3 41.05 22.1 40.8 23.25 41.2" fill="#d7cdbb" fill-rule="evenodd" stroke="none"/>
      <path d="M15.95 11.2 L24.35 12.1 27.55 17.35 27.0 19.2 Q23.8 32.45 15.05 42.65 L15.35 43.2 Q21.25 48.5 25.6 55.0 L23.55 53.95 22.3 52.95 Q17.25 51.25 13.4 47.45 6.8 40.95 6.55 30.8 6.8 20.6 13.4 13.55 14.6 12.25 15.95 11.2 M40.45 52.5 L48.7 43.9 45.4 38.9 Q38.35 28.65 33.15 17.35 L36.4 11.95 44.6 11.15 Q51.75 16.65 53.55 25.4 55.55 35.3 50.0 43.55 47.2 47.8 42.95 50.65 L40.45 52.5 M46.05 37.8 L48.6 41.5 Q50.4 39.45 51.3 36.9 52.6 33.25 52.4 29.4 51.85 18.25 43.0 11.75 L41.65 12.05 Q38.8 11.65 36.35 13.2 33.8 16.5 35.55 20.15 40.0 29.5 46.05 37.8 M14.45 42.25 Q18.5 37.2 21.35 31.55 L23.75 25.95 Q25.15 22.1 25.9 17.95 26.3 15.65 24.6 14.0 22.2 12.4 19.25 12.3 15.05 14.65 12.0 18.35 10.25 20.5 9.3 23.5 6.2 33.5 11.7 42.45 14.8 47.45 19.85 49.4 L18.65 48.0 Q17.45 46.65 15.95 45.75 13.95 44.4 14.45 42.25" fill="#a99b81" fill-rule="evenodd" stroke="none"/>
      <path d="M41.15 9.85 L40.5 9.9 37.4 10.25 40.2 5.55 41.3 5.45 Q40.25 6.15 40.1 7.7 40.25 9.15 41.15 9.85 M43.9 5.2 L48.65 4.7 48.1 8.9 45.1 9.3 45.6 7.7 Q45.4 5.8 43.9 5.2 M20.7 6.0 L23.4 10.5 19.2 10.1 Q20.15 9.6 20.4 8.55 20.7 7.2 19.85 6.0 L20.7 6.0 M12.25 9.2 L12.7 5.45 15.75 5.9 15.3 6.7 Q14.6 8.25 15.8 9.7 L12.25 9.2" fill="#b5a581" fill-rule="evenodd" stroke="none"/>
      <path d="M14.75 11.05 L15.95 11.2 Q14.6 12.25 13.4 13.55 6.8 20.6 6.55 30.8 6.8 40.95 13.4 47.45 17.25 51.25 22.3 52.95 L23.55 53.95 Q13.6 51.25 8.5 42.1 3.4 33.0 6.5 23.15 8.85 15.8 14.75 11.05 M40.25 52.7 L40.45 52.5 42.95 50.65 Q47.2 47.8 50.0 43.55 55.55 35.3 53.55 25.4 51.75 16.65 44.6 11.15 L45.55 11.05 Q48.6 13.3 50.65 16.55 56.15 25.1 54.05 35.2 51.55 47.35 40.25 52.7" fill="#887c64" fill-rule="evenodd" stroke="none"/>
      <path d="M10.8 10.0 Q10.85 10.45 11.4 10.55 L12.8 10.8 Q3.25 19.85 4.45 32.95 5.4 43.3 13.3 50.15 18.9 54.95 26.25 56.0 L27.65 57.95 Q17.5 57.2 10.25 49.95 3.35 42.95 2.4 33.1 1.1 19.6 10.8 10.0 M36.45 57.35 L38.35 54.95 Q49.45 51.2 54.0 40.3 58.75 29.0 53.05 17.95 50.95 13.85 47.5 10.8 L49.75 10.45 Q57.65 18.3 57.95 30.15 57.65 42.0 49.75 49.9 44.1 55.55 36.45 57.35" fill="#f0e6ca" fill-rule="evenodd" stroke="none"/>
      <path d="M36.35 13.2 Q38.8 11.65 41.65 12.05 L43.0 11.75 Q51.85 18.25 52.4 29.4 52.6 33.25 51.3 36.9 50.4 39.45 48.6 41.5 L46.05 37.8 Q50.35 29.45 46.7 20.6 43.8 13.75 36.35 13.2 M24.6 14.0 Q16.75 16.25 12.2 23.4 8.65 29.55 11.25 36.2 12.4 39.5 14.45 42.25 13.95 44.4 15.95 45.75 17.45 46.65 18.65 48.0 L19.85 49.4 Q14.8 47.45 11.7 42.45 6.2 33.5 9.3 23.5 10.25 20.5 12.0 18.35 15.05 14.65 19.25 12.3 22.2 12.4 24.6 14.0" fill="#c4b696" fill-rule="evenodd" stroke="none"/>
      <path d="M46.05 37.8 Q40.0 29.5 35.55 20.15 33.8 16.5 36.35 13.2 43.8 13.75 46.7 20.6 50.35 29.45 46.05 37.8 M24.6 14.0 Q26.3 15.65 25.9 17.95 25.15 22.1 23.75 25.95 L21.35 31.55 Q18.5 37.2 14.45 42.25 12.4 39.5 11.25 36.2 8.65 29.55 12.2 23.4 16.75 16.25 24.6 14.0" fill="#d8ceba" fill-rule="evenodd" stroke="none"/>
      <path d="M41.9 36.6 L43.25 38.85 41.95 38.2 41.9 36.6 M28.0 31.2 L25.0 29.65 26.75 24.55 29.4 25.7 28.0 31.2 M40.65 45.3 Q41.5 46.45 42.95 46.6 L43.65 46.5 41.25 49.2 39.1 48.25 40.65 45.3 M25.05 42.0 L23.45 40.4 22.1 39.8 20.85 40.15 19.65 39.65 22.6 35.0 26.4 36.65 25.05 42.0 M35.25 4.1 L36.5 4.05 38.0 5.3 35.5 9.6 34.8 9.0 35.25 4.1 M29.3 14.6 Q28.0 13.7 27.15 12.45 24.5 8.6 22.0 4.4 L22.5 4.4 25.45 6.7 26.55 8.3 Q28.7 11.05 29.3 14.6 M29.85 20.75 L28.25 20.0 29.35 18.0 29.85 20.75 M25.7 52.6 L21.05 46.6 25.05 47.75 25.7 52.6 M36.05 52.1 L37.9 53.1 34.75 57.05 32.65 56.5 36.05 52.1" fill="#af9f81" fill-rule="evenodd" stroke="none"/>
      <path d="M41.9 36.6 L41.95 38.2 28.0 31.2 29.4 25.7 37.6 29.35 41.9 36.6 M40.65 45.3 L39.1 48.25 25.05 42.0 26.4 36.65 40.4 42.95 40.2 43.85 40.65 45.3 M35.25 4.1 L34.8 9.0 29.2 4.25 35.25 4.1 M29.3 14.6 Q28.7 11.05 26.55 8.3 L25.45 6.7 33.45 12.95 31.5 16.2 29.3 14.6 M29.85 20.75 L29.35 18.0 32.2 18.0 34.35 22.7 29.85 20.75 M25.7 52.6 L25.05 47.75 36.05 52.1 32.65 56.5 27.0 54.4 25.7 52.6" fill="#c4b898" fill-rule="evenodd" stroke="none"/>
    </g>
    <g id="shape2" transform="matrix(1.0, 0.0, 0.0, 1.0, 1.5, 1.5)">
      <path d="M163.8 142.7 L164.3 141.8 174.75 150.4 163.8 142.7 M174.95 150.55 L176.25 151.6 175.4 151.5 174.95 150.55 M151.35 148.85 L157.0 141.6 170.4 150.95 151.35 148.85" fill="#96a0ce" fill-rule="evenodd" stroke="none"/>
      <path d="M164.1 138.05 L162.95 138.45 161.35 140.95 156.55 138.45 147.25 150.15 147.7 151.25 181.65 155.15 182.4 154.45 182.45 153.4 164.1 138.05 M219.1 173.4 L213.7 225.45 209.3 241.65 Q205.5 237.15 200.85 234.05 197.45 231.7 192.85 233.0 L189.1 233.9 187.3 234.55 Q186.4 234.85 185.55 235.3 184.3 235.85 183.1 236.55 178.35 239.6 176.2 244.7 L175.75 238.8 175.0 232.95 173.9 227.25 Q171.2 215.4 164.75 204.95 L163.9 204.5 Q157.95 209.3 152.85 215.4 L152.2 216.45 159.65 267.5 90.75 266.8 94.35 197.65 157.05 129.85 157.25 128.0 151.3 122.85 166.5 120.4 171.15 98.0 214.55 123.5 219.1 173.4 M168.4 96.4 L164.2 118.0 146.65 121.0 146.25 122.0 153.8 128.95 99.85 187.2 113.2 162.55 151.1 86.4 168.4 96.4 M76.55 85.55 L110.2 161.8 106.3 168.95 73.95 131.7 80.4 120.2 Q80.9 119.25 79.9 118.7 L79.35 118.55 63.2 117.4 56.55 98.1 76.55 85.55 M76.7 121.4 Q73.1 126.75 70.95 132.45 L71.0 132.85 104.8 171.75 91.35 197.05 87.75 266.75 64.5 266.55 68.4 219.95 32.9 177.05 10.45 127.05 53.9 99.75 57.15 109.6 Q58.85 115.15 61.6 120.25 L76.7 121.4 M30.2 178.4 L48.25 203.05 Q42.9 214.05 39.95 225.65 38.95 229.7 40.35 234.4 36.2 231.45 31.6 230.45 L19.9 230.1 Q19.3 230.0 18.95 230.45 13.8 237.45 8.8 244.6 L4.6 225.95 1.5 176.55 9.5 132.25 30.2 178.4 M105.0 142.65 L91.45 112.25 Q103.75 133.55 108.9 139.1 L105.0 142.65 M106.3 145.5 L137.3 109.65 111.95 158.3 106.3 145.5" fill="#3a3d6a" fill-rule="evenodd" stroke="none"/>
      <path d="M138.1 23.25 Q133.95 12.75 122.7 9.7 116.1 7.85 114.9 1.5 L141.2 1.5 152.95 48.85 167.0 61.95 160.0 77.6 148.8 81.65 147.35 80.9 144.95 60.55 Q152.05 59.95 157.55 64.15 159.55 65.75 158.4 68.0 157.25 70.3 155.0 71.45 L154.25 71.9 153.4 72.2 152.45 72.35 Q150.95 69.95 150.3 67.45 L149.8 64.95 155.35 66.95 156.45 65.1 Q155.6 63.6 153.65 62.9 151.55 62.0 149.35 62.6 L148.15 62.9 Q145.2 71.55 153.45 75.15 L154.45 75.05 Q157.8 73.6 159.7 70.4 L160.35 69.15 160.9 67.85 Q161.6 66.0 161.3 64.2 L161.0 63.5 Q154.55 56.3 144.65 57.6 143.85 39.95 138.1 23.25 M94.25 10.55 Q91.25 11.8 89.5 14.45 84.6 22.15 84.1 31.55 83.9 35.9 83.05 40.2 81.15 50.0 79.4 59.9 77.7 55.85 73.1 56.4 66.3 57.5 62.45 62.5 61.9 63.15 62.0 64.15 62.35 69.1 66.0 72.4 70.75 76.85 74.05 71.5 75.9 68.6 73.7 65.95 71.4 63.25 68.35 64.9 L68.9 66.75 70.4 66.9 72.05 69.75 69.8 71.6 68.25 70.85 67.0 69.7 Q65.1 66.85 64.6 63.0 L68.95 61.1 Q72.4 59.85 75.9 59.85 78.65 64.95 78.7 70.8 78.75 76.45 78.4 82.1 77.4 81.3 76.3 80.85 70.8 78.3 64.85 76.95 L57.05 63.6 70.45 49.5 86.5 1.5 111.55 1.5 Q103.75 6.9 94.25 10.55" fill="#ffffff" fill-rule="evenodd" stroke="none"/>
      <path d="M124.25 44.65 L123.15 45.05 124.8 50.45 124.55 50.8 99.75 51.05 100.8 47.65 100.25 46.95 99.55 47.15 Q93.8 52.8 89.5 59.6 83.55 69.05 86.35 79.35 86.6 80.3 87.65 80.65 90.7 76.05 94.95 72.55 107.8 61.95 124.25 65.1 133.35 66.75 138.5 73.9 139.3 75.0 139.0 76.35 138.65 78.05 137.8 79.65 L138.2 80.3 138.95 80.5 Q140.15 79.95 140.85 78.75 144.45 72.65 141.2 66.3 134.85 53.75 124.25 44.65 M123.9 14.2 Q127.85 16.25 131.55 18.9 135.75 23.85 137.0 30.3 L137.45 32.45 Q129.05 29.6 121.3 34.75 115.05 38.85 107.85 37.0 101.0 35.25 94.35 33.1 92.15 32.4 90.2 33.45 L87.3 35.05 88.1 36.35 Q93.3 35.0 98.15 37.25 99.25 37.75 100.35 38.4 L89.7 39.6 89.1 40.2 89.85 42.0 97.5 41.6 93.75 42.95 Q111.9 39.3 130.0 42.8 L130.3 42.3 129.8 41.8 122.65 40.55 132.75 40.3 133.4 38.95 132.45 37.65 122.85 37.6 Q129.45 33.2 136.9 35.05 L137.95 33.85 Q143.0 57.35 144.35 81.45 140.2 82.9 126.85 86.35 L112.0 90.25 Q110.2 90.85 97.15 87.4 85.25 84.3 81.35 82.7 83.0 52.95 88.6 23.5 90.05 15.95 96.9 12.5 104.7 8.7 112.6 5.1 117.25 10.65 123.9 14.2 M96.65 51.8 Q97.8 54.65 100.95 54.15 L126.7 53.4 127.25 52.65 127.9 50.9 Q136.05 59.65 140.9 70.45 126.0 58.2 107.35 62.45 101.5 63.8 96.4 67.3 91.25 70.85 86.95 75.55 86.75 61.95 96.65 51.8 M28.1 243.55 Q26.1 248.4 26.6 253.75 L27.95 254.4 29.35 251.05 40.25 255.1 44.4 251.85 46.6 254.65 29.1 267.45 9.75 248.45 20.85 232.65 31.25 231.5 45.1 241.55 43.35 248.9 39.75 251.9 29.8 248.0 30.05 244.45 28.9 243.3 28.1 243.55 M179.25 243.95 L185.75 235.25 200.05 235.0 211.65 249.4 192.7 266.6 176.35 250.45 177.95 247.85 185.95 254.75 192.4 252.9 192.6 251.3 Q192.6 250.25 191.55 250.25 L190.95 250.35 186.65 251.6 179.2 244.9 179.25 243.95" fill="#cacfe6" fill-rule="evenodd" stroke="none"/>
      <path d="M95.45 90.65 L105.5 93.75 105.85 101.0 97.85 108.3 95.45 90.65 M108.5 93.95 L115.75 92.5 115.75 99.75 108.7 99.6 108.5 93.95 M118.75 91.55 L127.65 87.85 126.25 107.6 118.75 100.65 118.75 91.55" fill="#990000" fill-rule="evenodd" stroke="none"/>
      <path d="M92.4 89.1 L93.35 97.0 89.95 103.0 86.95 101.65 79.8 85.45 92.4 89.1 M146.5 84.05 L148.5 84.95 133.15 104.65 129.7 101.4 130.7 87.65 146.5 84.05 M139.55 102.8 L111.15 137.1 88.75 105.75 91.2 106.15 94.0 102.0 95.75 112.0 96.8 112.65 108.6 102.6 116.65 102.8 127.55 112.1 128.4 111.75 129.45 105.3 133.1 108.2 139.55 102.8" fill="#d7dcec" fill-rule="evenodd" stroke="none"/>
      <path d="M160.9 213.2 Q160.9 211.4 162.15 210.15 162.8 209.45 163.6 209.15 L164.1 210.15 Q162.55 211.05 161.95 213.0 L161.5 214.75 160.9 213.2" fill="#e9e9eb" fill-rule="evenodd" stroke="none"/>
      <path d="M164.1 210.15 L166.3 214.45 166.05 214.6 Q164.05 215.75 162.1 215.45 L161.5 214.75 161.95 213.0 Q162.55 211.05 164.1 210.15" fill="#d0cfd0" fill-rule="evenodd" stroke="none"/>
      <path d="M167.65 217.25 Q166.65 218.25 164.9 218.3 160.6 217.65 160.9 213.2 L161.5 214.75 162.1 215.45 Q163.2 216.45 164.75 216.45 L167.0 215.8 167.65 217.25" fill="#47525f" fill-rule="evenodd" stroke="none"/>
      <path d="M166.3 214.45 L167.0 215.8 164.75 216.45 Q163.2 216.45 162.1 215.45 164.05 215.75 166.05 214.6 L166.3 214.45" fill="#b0aeb3" fill-rule="evenodd" stroke="none"/>
      <path d="M163.6 209.15 L163.3 208.5 155.25 216.75 162.85 268.8 162.3 270.15 161.35 270.5 62.85 269.5 61.5 268.7 61.35 267.9 65.4 220.6 50.45 205.45 40.65 225.3 44.4 237.35 48.15 240.45 46.3 249.35 50.25 255.15 29.4 270.9 Q23.2 266.3 14.55 257.65 5.9 248.95 4.5 243.3 3.1 237.6 1.6 226.3 L-1.5 176.55 7.5 126.05 8.2 124.95 75.2 82.85 62.95 79.5 53.75 63.7 67.7 48.2 84.0 -0.45 85.4 -1.5 142.35 -1.5 143.8 -0.35 155.75 47.7 170.2 61.05 161.85 80.0 152.2 83.6 216.7 121.3 217.25 121.8 217.45 122.5 222.1 173.3 216.7 225.85 211.6 244.55 215.1 250.25 193.15 269.85 192.4 269.65 Q185.0 263.3 178.15 256.2 175.75 253.65 174.3 250.7 173.35 248.7 173.35 246.25 173.35 231.1 167.65 217.25 L167.0 215.8 166.3 214.45 164.1 210.15 163.6 209.15 M163.8 142.7 L174.75 150.4 164.3 141.8 163.8 142.7 M164.1 138.05 L182.45 153.4 182.4 154.45 181.65 155.15 147.7 151.25 147.25 150.15 156.55 138.45 161.35 140.95 162.95 138.45 164.1 138.05 M174.95 150.55 L175.4 151.5 176.25 151.6 174.95 150.55 M219.1 173.4 L214.55 123.5 171.15 98.0 166.5 120.4 151.3 122.85 157.25 128.0 157.05 129.85 94.35 197.65 90.75 266.8 159.65 267.5 152.2 216.45 152.85 215.4 Q157.95 209.3 163.9 204.5 L164.75 204.95 Q171.2 215.4 173.9 227.25 L175.0 232.95 175.75 238.8 176.2 244.7 Q178.35 239.6 183.1 236.55 184.3 235.85 185.55 235.3 186.4 234.85 187.3 234.55 L189.1 233.9 192.85 233.0 Q197.45 231.7 200.85 234.05 205.5 237.15 209.3 241.65 L213.7 225.45 219.1 173.4 M168.4 96.4 L151.1 86.4 113.2 162.55 99.85 187.2 153.8 128.95 146.25 122.0 146.65 121.0 164.2 118.0 168.4 96.4 M138.1 23.25 Q143.85 39.95 144.65 57.6 154.55 56.3 161.0 63.5 L161.3 64.2 Q161.6 66.0 160.9 67.85 L160.35 69.15 159.7 70.4 Q157.8 73.6 154.45 75.05 L153.45 75.15 Q145.2 71.55 148.15 62.9 L149.35 62.6 Q151.55 62.0 153.65 62.9 155.6 63.6 156.45 65.1 L155.35 66.95 149.8 64.95 150.3 67.45 Q150.95 69.95 152.45 72.35 L153.4 72.2 154.25 71.9 155.0 71.45 Q157.25 70.3 158.4 68.0 159.55 65.75 157.55 64.15 152.05 59.95 144.95 60.55 L147.35 80.9 148.8 81.65 160.0 77.6 167.0 61.95 152.95 48.85 141.2 1.5 114.9 1.5 Q116.1 7.85 122.7 9.7 133.95 12.75 138.1 23.25 M123.9 14.2 Q117.25 10.65 112.6 5.1 104.7 8.7 96.9 12.5 90.05 15.95 88.6 23.5 83.0 52.95 81.35 82.7 85.25 84.3 97.15 87.4 110.2 90.85 112.0 90.25 L126.85 86.35 Q140.2 82.9 144.35 81.45 143.0 57.35 137.95 33.85 L136.9 35.05 Q129.45 33.2 122.85 37.6 L132.45 37.65 133.4 38.95 132.75 40.3 122.65 40.55 129.8 41.8 130.3 42.3 130.0 42.8 Q111.9 39.3 93.75 42.95 L97.5 41.6 89.85 42.0 89.1 40.2 89.7 39.6 100.35 38.4 Q99.25 37.75 98.15 37.25 93.3 35.0 88.1 36.35 L87.3 35.05 90.2 33.45 Q92.15 32.4 94.35 33.1 101.0 35.25 107.85 37.0 115.05 38.85 121.3 34.75 129.05 29.6 137.45 32.45 L137.0 30.3 Q135.75 23.85 131.55 18.9 127.85 16.25 123.9 14.2 M124.25 44.65 Q134.85 53.75 141.2 66.3 144.45 72.65 140.85 78.75 140.15 79.95 138.95 80.5 L138.2 80.3 137.8 79.65 Q138.65 78.05 139.0 76.35 139.3 75.0 138.5 73.9 133.35 66.75 124.25 65.1 107.8 61.95 94.95 72.55 90.7 76.05 87.65 80.65 86.6 80.3 86.35 79.35 83.55 69.05 89.5 59.6 93.8 52.8 99.55 47.15 L100.25 46.95 100.8 47.65 99.75 51.05 124.55 50.8 124.8 50.45 123.15 45.05 124.25 44.65 M94.25 10.55 Q103.75 6.9 111.55 1.5 L86.5 1.5 70.45 49.5 57.05 63.6 64.85 76.95 Q70.8 78.3 76.3 80.85 77.4 81.3 78.4 82.1 78.75 76.45 78.7 70.8 78.65 64.95 75.9 59.85 72.4 59.85 68.95 61.1 L64.6 63.0 Q65.1 66.85 67.0 69.7 L68.25 70.85 69.8 71.6 72.05 69.75 70.4 66.9 68.9 66.75 68.35 64.9 Q71.4 63.25 73.7 65.95 75.9 68.6 74.05 71.5 70.75 76.85 66.0 72.4 62.35 69.1 62.0 64.15 61.9 63.15 62.45 62.5 66.3 57.5 73.1 56.4 77.7 55.85 79.4 59.9 81.15 50.0 83.05 40.2 83.9 35.9 84.1 31.55 84.6 22.15 89.5 14.45 91.25 11.8 94.25 10.55 M96.65 51.8 Q86.75 61.95 86.95 75.55 91.25 70.85 96.4 67.3 101.5 63.8 107.35 62.45 126.0 58.2 140.9 70.45 136.05 59.65 127.9 50.9 L127.25 52.65 126.7 53.4 100.95 54.15 Q97.8 54.65 96.65 51.8 M92.4 89.1 L79.8 85.45 86.95 101.65 89.95 103.0 93.35 97.0 92.4 89.1 M108.5 93.95 L108.7 99.6 115.75 99.75 115.75 92.5 108.5 93.95 M95.45 90.65 L97.85 108.3 105.85 101.0 105.5 93.75 95.45 90.65 M146.5 84.05 L130.7 87.65 129.7 101.4 133.15 104.65 148.5 84.95 146.5 84.05 M118.75 91.55 L118.75 100.65 126.25 107.6 127.65 87.85 118.75 91.55 M30.2 178.4 L9.5 132.25 1.5 176.55 4.6 225.95 8.8 244.6 Q13.8 237.45 18.95 230.45 19.3 230.0 19.9 230.1 L31.6 230.45 Q36.2 231.45 40.35 234.4 38.95 229.7 39.95 225.65 42.9 214.05 48.25 203.05 L30.2 178.4 M76.7 121.4 L61.6 120.25 Q58.85 115.15 57.15 109.6 L53.9 99.75 10.45 127.05 32.9 177.05 68.4 219.95 64.5 266.55 87.75 266.75 91.35 197.05 104.8 171.75 71.0 132.85 70.95 132.45 Q73.1 126.75 76.7 121.4 M76.55 85.55 L56.55 98.1 63.2 117.4 79.35 118.55 79.9 118.7 Q80.9 119.25 80.4 120.2 L73.95 131.7 106.3 168.95 110.2 161.8 76.55 85.55 M139.55 102.8 L133.1 108.2 129.45 105.3 128.4 111.75 127.55 112.1 116.65 102.8 108.6 102.6 96.8 112.65 95.75 112.0 94.0 102.0 91.2 106.15 88.75 105.75 111.15 137.1 139.55 102.8 M105.0 142.65 L108.9 139.1 Q103.75 133.55 91.45 112.25 L105.0 142.65 M151.35 148.85 L170.4 150.95 157.0 141.6 151.35 148.85 M106.3 145.5 L111.95 158.3 137.3 109.65 106.3 145.5 M28.1 243.55 L28.9 243.3 30.05 244.45 29.8 248.0 39.75 251.9 43.35 248.9 45.1 241.55 31.25 231.5 20.85 232.65 9.75 248.45 29.1 267.45 46.6 254.65 44.4 251.85 40.25 255.1 29.35 251.05 27.95 254.4 26.6 253.75 Q26.1 248.4 28.1 243.55 M179.25 243.95 L179.2 244.9 186.65 251.6 190.95 250.35 191.55 250.25 Q192.6 250.25 192.6 251.3 L192.4 252.9 185.95 254.75 177.95 247.85 176.35 250.45 192.7 266.6 211.65 249.4 200.05 235.0 185.75 235.25 179.25 243.95" fill="#1a1a1a" fill-rule="evenodd" stroke="none"/>
    </g>
    <g id="shape3" transform="matrix(1.0, 0.0, 0.0, 1.0, -0.05, 0.0)">
      <path d="M40.95 2.45 L41.9 2.8 Q42.4 1.4 44.05 1.25 46.25 1.45 46.45 3.8 L46.45 6.35 48.8 8.45 Q56.9 16.5 57.2 28.65 56.85 40.75 48.8 48.85 42.05 55.65 32.45 56.95 L32.05 57.95 Q31.35 59.0 29.8 59.15 28.3 59.0 27.6 58.05 L27.2 57.2 Q16.0 56.45 8.4 48.85 3.45 43.9 1.4 37.45 -0.45 31.7 0.25 25.75 1.75 13.25 11.8 5.55 L12.4 3.05 Q13.25 0.65 15.6 1.55 16.3 1.85 16.4 2.8 L17.0 2.55 Q21.85 0.45 27.2 0.1 33.95 0.0 40.1 2.5 L40.95 2.45 M40.75 9.5 L41.65 9.15 41.65 3.8 40.95 3.4 Q39.9 3.3 39.45 4.1 L39.5 20.75 40.05 21.3 41.6 21.05 41.65 14.2 41.0 13.95 Q39.6 13.25 39.65 11.65 39.65 10.3 40.75 9.5 M43.6 13.8 L42.65 14.2 Q42.3 22.35 43.9 21.75 L44.95 21.3 44.95 2.65 Q44.35 2.05 43.6 2.4 42.9 2.55 42.75 3.3 L42.65 9.15 43.55 9.5 Q44.2 9.85 44.5 10.65 L44.55 12.55 Q44.25 13.35 43.6 13.8 M42.85 10.1 L41.65 10.1 43.85 12.05 42.85 10.1 M40.75 10.9 L40.5 11.65 Q40.7 13.2 42.15 13.3 L42.65 13.2 40.75 10.9 M33.35 54.6 L33.1 55.4 Q42.4 53.9 48.75 46.85 56.75 37.95 55.55 25.9 54.45 15.35 46.45 8.2 L46.45 9.2 46.45 11.55 Q53.05 18.45 53.3 28.6 53.05 39.1 46.05 46.1 40.85 51.3 33.75 52.75 L33.35 54.6 M34.15 50.65 L34.05 51.35 Q40.4 49.85 45.1 45.15 51.7 38.55 51.95 28.6 51.75 19.75 46.45 13.6 L46.45 14.6 Q46.75 17.8 46.0 20.7 45.25 23.6 42.2 21.75 L41.45 22.0 Q39.2 22.8 38.3 20.55 L33.3 21.2 33.3 23.05 33.95 23.4 Q35.1 23.95 34.9 25.15 L34.35 26.45 32.4 27.25 32.4 29.2 33.85 30.25 33.95 31.8 32.3 32.9 Q34.1 41.75 34.15 50.65 M38.25 4.0 L38.65 3.4 Q29.1 -0.05 19.35 3.1 L19.75 3.6 20.0 4.15 Q29.1 3.05 38.25 4.0 M25.35 51.1 L25.1 48.35 Q25.25 40.65 27.35 32.9 26.65 32.65 26.2 32.25 24.7 30.8 26.4 29.55 L26.9 29.2 26.9 27.25 Q25.3 27.3 24.75 25.95 L24.5 24.95 Q24.55 24.05 25.5 23.4 L26.0 23.05 26.0 21.35 19.95 20.65 Q19.2 22.95 16.85 21.95 L16.1 21.7 Q15.1 23.2 13.3 22.4 12.1 22.0 12.05 20.75 L11.8 13.3 11.8 12.35 Q5.45 18.9 5.2 28.6 5.45 38.55 12.05 45.15 17.6 50.7 25.5 51.75 L25.35 51.1 M16.8 15.6 L16.5 20.75 17.35 21.35 Q18.95 21.55 19.0 19.95 19.1 12.15 18.85 4.35 L18.65 3.7 17.7 3.35 16.6 3.85 16.95 9.95 Q17.9 10.35 18.3 11.4 L18.35 13.15 16.85 14.9 16.8 15.6 M38.2 19.4 L38.2 5.0 Q29.6 4.0 20.9 5.1 L20.0 5.2 20.1 19.4 Q29.1 21.65 38.2 19.4 M33.5 24.4 Q33.3 23.9 32.85 23.9 L27.1 23.4 Q24.95 24.0 26.25 25.85 L26.9 26.45 32.3 26.4 Q33.3 26.4 33.55 25.55 33.7 24.95 33.5 24.4 M27.15 21.35 L27.15 22.95 32.0 22.95 32.0 21.35 27.15 21.35 M15.1 9.8 L15.65 9.7 15.35 3.25 14.95 2.65 14.2 2.25 Q12.95 2.6 12.95 4.0 L13.1 20.6 Q13.1 21.5 14.2 21.7 15.6 21.55 15.55 20.15 L15.3 15.05 Q13.7 14.6 13.35 13.25 L13.3 11.85 Q13.6 10.25 15.1 9.8 M26.35 54.95 L25.85 53.15 Q17.2 52.25 11.1 46.1 3.0 37.75 4.15 26.1 5.05 16.85 11.8 10.5 L11.8 8.1 11.8 7.3 Q2.9 14.65 1.7 25.95 0.55 37.1 7.7 45.9 15.0 54.85 26.6 55.7 L26.35 54.95 M17.25 11.6 L16.6 10.8 15.15 10.8 17.3 13.05 17.25 11.6 M14.45 11.5 L14.2 12.25 Q14.3 13.7 15.85 13.9 L16.6 13.7 14.45 11.5 M27.3 30.4 L26.75 31.15 27.3 32.2 32.6 31.95 32.8 30.9 32.4 30.15 31.05 30.2 27.3 30.4 M31.25 29.1 L31.25 27.25 28.2 27.25 28.3 29.1 31.25 29.1 M32.6 42.15 Q32.15 37.5 31.2 32.9 L28.45 32.9 27.2 39.55 Q26.25 45.2 26.95 51.0 L27.15 52.3 27.15 52.25 Q27.35 49.85 29.75 49.65 31.9 49.85 32.3 51.85 33.05 47.05 32.6 42.15 M30.7 58.1 L32.0 53.55 Q31.35 54.95 29.75 54.85 27.85 54.65 27.35 53.05 L28.65 57.7 30.7 58.1 M29.0 53.7 L29.75 53.95 Q31.9 53.5 31.2 51.5 L29.0 53.7 M29.75 50.6 Q28.25 50.75 28.1 52.25 L28.35 53.05 30.55 50.85 29.75 50.6" fill="#212753" fill-rule="evenodd" stroke="none"/>
      <path d="M40.95 2.45 L40.1 2.5 Q33.95 0.0 27.2 0.1 L29.2 0.0 Q35.6 0.15 40.95 2.45 M46.45 9.2 L46.45 8.2 Q54.45 15.35 55.55 25.9 56.75 37.95 48.75 46.85 42.4 53.9 33.1 55.4 L33.35 54.6 Q44.1 52.5 50.45 43.3 55.05 36.65 54.95 28.6 54.75 17.0 46.45 9.2 M46.45 14.6 L46.45 13.6 Q51.75 19.75 51.95 28.6 51.7 38.55 45.1 45.15 40.4 49.85 34.05 51.35 L34.15 50.65 Q40.2 49.15 44.65 44.7 51.05 38.3 51.3 28.65 51.15 20.45 46.45 14.6 M19.75 3.6 L19.35 3.1 Q29.1 -0.05 38.65 3.4 L38.25 4.0 Q33.8 2.25 28.5 2.1 23.8 2.25 19.75 3.6 M25.35 51.1 L25.5 51.75 Q17.6 50.7 12.05 45.15 5.45 38.55 5.2 28.6 5.45 18.9 11.8 12.35 L11.8 13.3 Q6.1 19.55 5.85 28.65 6.1 38.3 12.5 44.7 17.85 50.0 25.35 51.1 M26.35 54.95 L26.6 55.7 Q15.0 54.85 7.7 45.9 0.55 37.1 1.7 25.95 2.9 14.65 11.8 7.3 L11.8 8.1 Q3.55 15.15 2.3 25.9 1.25 35.3 6.7 43.25 13.85 53.8 26.35 54.95" fill="#514f6f" fill-rule="evenodd" stroke="none"/>
      <path d="M41.0 13.95 L41.65 14.2 41.6 21.05 40.05 21.3 39.5 20.75 39.45 4.1 Q39.9 3.3 40.95 3.4 L41.65 3.8 41.65 9.15 40.75 9.5 40.4 4.85 Q39.7 5.45 39.65 6.45 39.35 12.5 39.85 18.55 39.95 19.55 40.65 19.75 41.55 19.1 41.5 17.7 L41.0 13.95 M43.55 9.5 L42.65 9.15 42.75 3.3 Q42.9 2.55 43.6 2.4 44.35 2.05 44.95 2.65 L44.95 21.3 43.9 21.75 Q42.3 22.35 42.65 14.2 L43.6 13.8 44.0 20.3 44.55 12.55 44.5 10.65 44.25 4.4 43.55 4.3 43.55 9.5 M36.15 9.6 Q34.9 7.5 32.4 7.85 29.75 8.15 27.1 7.8 24.95 7.25 23.1 8.3 20.7 10.35 22.5 12.35 24.25 14.4 26.55 15.0 L31.75 15.4 Q34.7 15.25 36.3 13.5 37.3 11.55 36.15 9.6 M27.5 24.1 L27.45 24.1 Q26.9 24.25 26.9 24.5 26.85 24.85 27.9 25.35 L30.85 25.25 Q31.6 24.85 31.6 24.5 31.5 24.1 30.4 23.85 L27.5 24.1 M27.15 21.35 L32.0 21.35 32.0 22.95 27.15 22.95 27.15 21.35 M33.5 24.4 Q33.7 24.95 33.55 25.55 33.3 26.4 32.3 26.4 L26.9 26.45 26.25 25.85 Q24.95 24.0 27.1 23.4 L32.85 23.9 Q33.3 23.9 33.5 24.4 M38.2 19.4 Q29.1 21.65 20.1 19.4 L20.0 5.2 20.9 5.1 Q29.6 4.0 38.2 5.0 L38.2 19.4 M16.95 9.95 L16.6 3.85 17.7 3.35 18.65 3.7 18.85 4.35 Q19.1 12.15 19.0 19.95 18.95 21.55 17.35 21.35 L16.5 20.75 16.8 15.6 17.85 19.6 18.35 13.15 18.3 11.4 17.45 5.4 16.95 9.95 M15.3 15.05 L15.55 20.15 Q15.6 21.55 14.2 21.7 13.1 21.5 13.1 20.6 L12.95 4.0 Q12.95 2.6 14.2 2.25 L14.95 2.65 15.35 3.25 15.65 9.7 15.1 9.8 14.3 3.55 13.4 4.2 13.3 11.85 13.35 13.25 14.15 20.3 14.85 20.25 15.3 15.05 M31.05 30.2 L32.4 30.15 32.8 30.9 32.6 31.95 27.3 32.2 26.75 31.15 27.3 30.4 27.4 31.15 31.25 31.35 31.5 30.7 31.05 30.2 M31.25 29.1 L28.3 29.1 28.2 27.25 31.25 27.25 31.25 29.1 M27.9 48.35 Q29.05 49.75 30.55 48.65 32.0 47.2 31.6 44.95 31.65 41.3 30.8 37.75 30.7 36.45 29.75 35.6 28.7 35.65 28.3 38.1 27.95 40.5 27.95 41.5 26.8 45.1 27.9 48.35 M32.6 42.15 Q33.05 47.05 32.3 51.85 31.9 49.85 29.75 49.65 27.35 49.85 27.15 52.25 L27.15 52.3 26.95 51.0 Q26.25 45.2 27.2 39.55 L28.45 32.9 31.2 32.9 Q32.15 37.5 32.6 42.15 M30.7 58.1 L28.65 57.7 27.35 53.05 Q27.85 54.65 29.75 54.85 31.35 54.95 32.0 53.55 L30.7 58.1 M29.1 55.9 Q28.65 57.55 30.25 57.4 31.35 56.6 30.65 55.85 L29.1 55.9" fill="#69839d" fill-rule="evenodd" stroke="none"/>
      <path d="M40.75 9.5 Q39.65 10.3 39.65 11.65 39.6 13.25 41.0 13.95 L41.5 17.7 Q41.55 19.1 40.65 19.75 39.95 19.55 39.85 18.55 39.35 12.5 39.65 6.45 39.7 5.45 40.4 4.85 L40.75 9.5 M43.55 9.5 L43.55 4.3 44.25 4.4 44.5 10.65 Q44.2 9.85 43.55 9.5 M44.55 12.55 L44.0 20.3 43.6 13.8 Q44.25 13.35 44.55 12.55 M34.2 11.4 L33.9 10.25 26.9 9.5 Q25.3 9.3 24.4 10.6 24.5 12.95 27.0 13.65 31.6 14.85 34.2 11.4 M36.15 9.6 Q37.3 11.55 36.3 13.5 34.7 15.25 31.75 15.4 L26.55 15.0 Q24.25 14.4 22.5 12.35 20.7 10.35 23.1 8.3 24.95 7.25 27.1 7.8 29.75 8.15 32.4 7.85 34.9 7.5 36.15 9.6 M27.5 24.1 L30.4 23.85 Q31.5 24.1 31.6 24.5 31.6 24.85 30.85 25.25 L27.9 25.35 Q26.85 24.85 26.9 24.5 26.9 24.25 27.45 24.1 L27.5 24.1 M16.8 15.6 L16.85 14.9 18.35 13.15 17.85 19.6 16.8 15.6 M18.3 11.4 Q17.9 10.35 16.95 9.95 L17.45 5.4 18.3 11.4 M15.3 15.05 L14.85 20.25 14.15 20.3 13.35 13.25 Q13.7 14.6 15.3 15.05 M13.3 11.85 L13.4 4.2 14.3 3.55 15.1 9.8 Q13.6 10.25 13.3 11.85 M27.3 30.4 L31.05 30.2 31.5 30.7 31.25 31.35 27.4 31.15 27.3 30.4 M27.9 48.35 Q26.8 45.1 27.95 41.5 27.95 40.5 28.3 38.1 28.7 35.65 29.75 35.6 30.7 36.45 30.8 37.75 31.65 41.3 31.6 44.95 32.0 47.2 30.55 48.65 29.05 49.75 27.9 48.35 M29.1 55.9 L30.65 55.85 Q31.35 56.6 30.25 57.4 28.65 57.55 29.1 55.9" fill="#899db1" fill-rule="evenodd" stroke="none"/>
      <path d="M40.75 10.9 L42.65 13.2 42.15 13.3 Q40.7 13.2 40.5 11.65 L40.75 10.9 M42.85 10.1 L43.85 12.05 41.65 10.1 42.85 10.1 M14.45 11.5 L16.6 13.7 15.85 13.9 Q14.3 13.7 14.2 12.25 L14.45 11.5 M17.25 11.6 L17.3 13.05 15.15 10.8 16.6 10.8 17.25 11.6 M29.75 50.6 L30.55 50.85 28.35 53.05 28.1 52.25 Q28.25 50.75 29.75 50.6 M29.0 53.7 L31.2 51.5 Q31.9 53.5 29.75 53.95 L29.0 53.7" fill="#a1b1c1" fill-rule="evenodd" stroke="none"/>
      <path d="M33.35 54.6 L33.75 52.75 Q40.85 51.3 46.05 46.1 53.05 39.1 53.3 28.6 53.05 18.45 46.45 11.55 L46.45 9.2 Q54.75 17.0 54.95 28.6 55.05 36.65 50.45 43.3 44.1 52.5 33.35 54.6 M45.35 22.9 Q47.1 21.7 46.9 19.6 L46.55 17.25 Q49.55 22.9 49.55 29.45 49.05 40.8 38.0 44.45 L34.9 45.55 34.8 45.15 34.35 43.45 Q38.75 41.7 42.1 38.05 45.75 33.5 45.85 27.7 45.85 25.2 45.35 22.9 M38.25 4.0 Q29.1 3.05 20.0 4.15 L19.75 3.6 Q23.8 2.25 28.5 2.1 33.8 2.25 38.25 4.0 M24.25 45.1 Q24.15 46.55 24.3 47.8 17.65 47.8 13.35 43.15 8.2 37.55 7.7 29.6 7.2 22.7 11.3 17.35 L11.35 17.65 Q11.15 19.95 11.85 21.75 7.8 29.5 12.4 37.1 16.5 43.85 24.25 45.1 M11.8 8.1 L11.8 10.5 Q5.05 16.85 4.15 26.1 3.0 37.75 11.1 46.1 17.2 52.25 25.85 53.15 L26.35 54.95 Q13.85 53.8 6.7 43.25 1.25 35.3 2.3 25.9 3.55 15.15 11.8 8.1" fill="#afc1d9" fill-rule="evenodd" stroke="none"/>
      <path d="M34.15 50.65 Q34.1 41.75 32.3 32.9 L33.95 31.8 34.35 43.45 34.8 45.15 34.9 45.55 38.0 44.45 Q49.05 40.8 49.55 29.45 49.55 22.9 46.55 17.25 L46.9 19.6 Q47.1 21.7 45.35 22.9 L35.9 22.55 34.9 25.15 Q35.1 23.95 33.95 23.4 L33.3 23.05 33.3 21.2 38.3 20.55 Q39.2 22.8 41.45 22.0 L42.2 21.75 Q45.25 23.6 46.0 20.7 46.75 17.8 46.45 14.6 51.15 20.45 51.3 28.65 51.05 38.3 44.65 44.7 40.2 49.15 34.15 50.65 M33.85 30.25 L32.4 29.2 32.4 27.25 34.35 26.45 33.6 28.35 33.85 30.25 M24.25 45.1 L24.95 39.9 Q25.7 35.8 24.45 31.95 L25.5 28.35 23.3 25.55 24.45 22.3 Q22.8 22.45 21.25 23.1 17.0 25.0 12.6 23.2 L11.85 21.75 Q11.15 19.95 11.35 17.65 L11.3 17.35 Q7.2 22.7 7.7 29.6 8.2 37.55 13.35 43.15 17.65 47.8 24.3 47.8 24.15 46.55 24.25 45.1 M11.8 13.3 L12.05 20.75 Q12.1 22.0 13.3 22.4 15.1 23.2 16.1 21.7 L16.85 21.95 Q19.2 22.95 19.95 20.65 L26.0 21.35 26.0 23.05 25.5 23.4 Q24.55 24.05 24.5 24.95 L24.75 25.95 Q25.3 27.3 26.9 27.25 L26.9 29.2 26.4 29.55 Q24.7 30.8 26.2 32.25 26.65 32.65 27.35 32.9 25.25 40.65 25.1 48.35 L25.35 51.1 Q17.85 50.0 12.5 44.7 6.1 38.3 5.85 28.65 6.1 19.55 11.8 13.3" fill="#9ab4cc" fill-rule="evenodd" stroke="none"/>
      <path d="M33.95 31.8 L33.85 30.25 33.6 28.35 34.35 26.45 34.9 25.15 35.9 22.55 45.35 22.9 Q45.85 25.2 45.85 27.7 45.75 33.5 42.1 38.05 38.75 41.7 34.35 43.45 L33.95 31.8 M11.85 21.75 L12.6 23.2 Q17.0 25.0 21.25 23.1 22.8 22.45 24.45 22.3 L23.3 25.55 25.5 28.35 24.45 31.95 Q25.7 35.8 24.95 39.9 L24.25 45.1 Q16.5 43.85 12.4 37.1 7.8 29.5 11.85 21.75" fill="#c5d3e3" fill-rule="evenodd" stroke="none"/>
      <path d="M34.2 11.4 Q31.6 14.85 27.0 13.65 24.5 12.95 24.4 10.6 25.3 9.3 26.9 9.5 L33.9 10.25 34.2 11.4" fill="#a1b3bf" fill-rule="evenodd" stroke="none"/>
    </g>
    <g id="shape4" transform="matrix(1.0, 0.0, 0.0, 1.0, 0.0, 0.0)">
      <path d="M215.15 173.4 L210.25 128.6 161.85 204.45 169.0 230.35 169.8 243.8 175.9 235.15 176.2 234.9 176.9 234.8 Q184.0 234.95 189.8 237.8 195.9 240.8 200.75 246.5 L210.05 222.75 215.15 173.4 M164.2 117.7 L163.25 120.3 148.35 123.8 155.3 129.2 154.75 130.6 108.55 168.1 107.7 270.2 156.35 271.55 148.4 215.35 148.6 214.4 159.0 203.3 209.8 123.75 167.85 98.9 164.2 117.7 M212.6 122.2 L218.15 173.2 213.0 223.25 202.95 249.1 205.9 253.5 183.9 273.3 Q173.6 264.9 165.05 254.4 L167.5 250.35 159.5 208.6 159.2 207.45 151.45 215.7 159.55 272.9 159.2 274.2 158.0 274.6 106.25 273.15 62.5 274.55 61.55 273.8 61.35 273.0 65.25 219.7 50.95 204.35 Q47.55 221.6 46.15 238.85 L53.1 243.75 49.75 252.65 53.55 256.6 53.75 257.8 34.05 273.65 32.5 273.25 11.55 252.55 3.45 225.75 0.0 176.8 8.45 126.65 Q27.95 114.5 47.6 102.5 62.55 93.3 76.75 83.1 L60.1 33.45 60.2 32.3 78.2 14.9 Q82.4 10.65 87.5 7.3 94.45 2.65 102.7 0.65 L111.2 0.1 Q121.55 1.45 130.85 6.25 147.6 14.95 159.5 29.55 L159.6 30.65 146.2 82.9 148.75 84.15 212.6 122.2 M138.4 11.95 L134.95 10.3 120.0 3.3 118.5 3.35 103.3 3.6 99.9 3.65 84.55 11.05 81.9 12.35 70.1 25.6 68.75 27.1 63.2 33.3 80.05 83.0 108.05 89.75 115.85 89.7 143.15 82.7 156.5 30.7 151.55 25.45 150.15 24.05 138.4 11.95 M121.8 27.6 L122.25 26.55 123.45 26.55 123.85 27.2 123.25 29.3 122.85 30.15 Q132.8 36.8 140.15 46.45 141.45 48.1 141.85 50.05 144.8 65.0 139.35 79.4 L138.0 79.1 Q139.15 69.9 133.7 62.45 132.1 60.25 129.75 59.2 123.85 56.65 118.9 52.7 110.35 45.75 110.85 34.65 L109.85 34.65 Q110.7 39.45 109.7 44.1 108.05 51.8 101.3 55.2 L98.2 56.75 Q86.8 62.55 87.3 75.1 87.75 72.55 89.75 70.85 102.15 60.2 118.3 62.65 130.05 64.35 136.4 74.35 L135.9 81.75 Q128.3 77.95 120.25 75.7 113.05 73.85 105.75 74.75 96.75 76.15 88.4 80.1 L87.15 77.55 86.1 77.6 Q80.3 69.05 80.15 58.65 79.95 43.5 91.55 34.0 L93.5 32.5 Q95.8 30.9 98.45 29.35 L98.25 28.2 98.8 24.45 99.0 24.25 100.3 24.3 100.65 25.0 100.5 25.55 100.25 27.8 100.65 27.45 Q104.75 28.05 106.75 31.45 L106.0 32.35 Q111.85 33.35 117.4 31.85 120.95 31.0 121.8 27.6 M139.8 49.15 Q139.2 47.5 138.05 46.15 130.9 37.85 121.65 31.75 118.35 34.45 114.0 34.65 L112.85 34.6 Q112.05 46.65 122.25 53.2 126.1 55.6 130.25 57.35 137.85 60.35 140.05 68.15 143.05 58.35 139.8 49.15 M99.2 31.25 Q85.2 39.45 82.8 49.1 80.15 59.85 83.4 67.8 L85.0 71.65 Q84.9 64.6 89.1 60.3 94.6 54.6 99.55 53.65 106.7 52.1 107.4 45.0 107.85 40.65 107.85 36.1 L107.85 34.6 Q100.95 33.95 99.2 31.25 M101.3 30.45 Q102.95 31.85 105.2 32.2 103.45 30.2 100.75 29.3 100.3 29.6 101.3 30.45 M120.45 28.1 Q119.1 30.8 116.1 31.1 L115.3 30.65 113.2 32.1 112.3 31.5 Q113.75 28.1 117.3 26.85 119.75 25.85 120.45 28.1 M89.5 77.6 Q90.95 76.6 92.55 75.85 L92.5 75.7 91.95 70.45 Q88.6 72.8 89.5 77.6 M100.55 73.15 L99.5 66.15 93.85 69.1 94.45 74.95 Q97.4 73.75 100.55 73.15 M102.55 72.9 L109.65 72.25 109.95 64.0 Q105.8 64.2 101.45 65.4 L102.55 72.9 M111.95 64.05 L111.65 72.3 Q116.3 72.4 120.85 73.45 L123.85 66.25 123.5 65.85 Q120.9 64.95 117.95 64.65 L111.95 64.05 M118.8 79.4 L119.1 79.75 119.0 80.8 Q112.75 83.05 106.0 81.75 L105.95 80.35 118.8 79.4 M117.35 97.6 L112.4 93.25 111.15 93.25 105.95 99.65 108.15 105.05 115.0 105.1 117.35 97.6 M130.9 77.1 L134.5 79.1 134.4 74.9 132.2 71.85 130.9 77.1 M130.35 70.4 Q128.7 67.5 125.3 66.6 L122.8 73.95 129.0 76.1 130.05 72.5 130.35 70.4 M142.15 94.3 L145.95 86.35 144.6 85.4 116.35 92.7 126.85 101.95 142.15 94.3 M151.3 129.5 L143.4 123.25 143.3 122.8 143.6 122.0 161.1 118.1 165.1 97.25 148.65 87.6 114.35 159.5 151.3 129.5 M30.85 176.0 L10.2 132.3 3.0 176.75 6.35 224.95 13.8 247.3 24.6 232.85 25.05 232.4 25.65 232.2 33.95 231.45 34.4 231.6 43.05 236.9 42.8 231.1 48.45 201.5 30.85 176.0 M59.4 117.45 L54.7 100.8 11.4 127.85 33.4 174.45 51.15 200.1 68.25 218.65 68.3 219.25 64.5 271.55 104.7 270.2 105.55 167.35 106.1 166.2 71.0 132.3 Q70.5 131.55 71.0 130.6 L76.2 121.6 60.3 120.1 59.4 117.45 M79.35 118.85 Q80.25 119.15 80.2 120.0 L79.9 120.95 73.95 130.95 108.6 164.2 109.2 163.75 76.3 87.5 57.35 99.15 62.55 117.85 79.35 118.85 M103.8 102.2 L102.25 103.7 84.6 99.2 97.0 127.9 105.75 106.35 103.8 102.2 M115.15 108.1 L108.25 108.05 98.7 131.8 110.85 160.0 124.9 130.45 115.15 108.1 M119.8 99.75 L117.6 106.2 126.65 126.85 140.0 98.75 126.4 105.25 119.8 99.75 M78.85 85.8 L83.1 95.65 101.3 100.55 107.55 92.7 78.85 85.8 M48.45 256.3 Q41.15 256.7 33.8 254.15 L33.35 255.8 32.35 256.25 30.85 255.7 Q31.1 250.65 33.35 246.35 L34.85 246.4 34.5 251.2 46.4 253.65 49.9 244.75 33.7 234.5 26.55 235.15 14.6 251.3 33.7 270.15 50.1 257.2 48.85 255.95 48.7 255.8 48.45 256.3 M189.75 238.0 L177.65 237.8 170.2 248.45 177.45 254.85 180.1 254.1 Q179.7 253.1 179.65 252.05 179.6 250.85 181.0 250.9 L181.8 251.6 185.9 258.25 185.2 259.3 Q182.7 259.2 181.9 256.7 L176.75 258.0 170.15 252.35 168.35 254.6 183.95 269.75 202.3 252.9 189.75 238.0" fill="#1a1a1a" fill-rule="evenodd" stroke="none"/>
      <path d="M164.2 117.7 L167.85 98.9 209.8 123.75 159.0 203.3 148.6 214.4 148.4 215.35 156.35 271.55 107.7 270.2 108.55 168.1 154.75 130.6 155.3 129.2 148.35 123.8 163.25 120.3 164.2 117.7 M215.15 173.4 L210.05 222.75 200.75 246.5 Q195.9 240.8 189.8 237.8 184.0 234.95 176.9 234.8 L176.2 234.9 175.9 235.15 169.8 243.8 169.0 230.35 161.85 204.45 210.25 128.6 215.15 173.4 M79.35 118.85 L62.55 117.85 57.35 99.15 76.3 87.5 109.2 163.75 108.6 164.2 73.95 130.95 79.9 120.95 80.2 120.0 Q80.25 119.15 79.35 118.85 M59.4 117.45 L60.3 120.1 76.2 121.6 71.0 130.6 Q70.5 131.55 71.0 132.3 L106.1 166.2 105.55 167.35 104.7 270.2 64.5 271.55 68.3 219.25 68.25 218.65 51.15 200.1 33.4 174.45 11.4 127.85 54.7 100.8 59.4 117.45 M30.85 176.0 L48.45 201.5 42.8 231.1 43.05 236.9 34.4 231.6 33.95 231.45 25.65 232.2 25.05 232.4 24.6 232.85 13.8 247.3 6.35 224.95 3.0 176.75 10.2 132.3 30.85 176.0 M151.3 129.5 L114.35 159.5 148.65 87.6 165.1 97.25 161.1 118.1 143.6 122.0 143.3 122.8 143.4 123.25 151.3 129.5" fill="#106557" fill-rule="evenodd" stroke="none"/>
      <path d="M134.95 10.3 L138.4 11.95 Q132.8 12.45 127.25 13.5 120.65 14.9 113.85 15.5 97.35 16.75 81.9 12.35 L84.55 11.05 Q92.35 13.15 100.65 13.65 118.0 14.1 134.95 10.3 M150.15 24.05 L151.55 25.45 Q145.95 33.05 136.8 34.5 128.75 35.65 123.25 29.3 L123.85 27.2 123.45 26.55 122.25 26.55 121.8 27.6 Q119.1 24.05 115.7 21.45 114.05 20.2 112.25 19.8 105.1 19.55 100.5 25.55 L100.65 25.0 100.3 24.3 99.0 24.25 Q103.35 18.9 110.0 17.3 112.5 16.55 114.65 18.25 121.45 23.45 127.3 29.8 129.3 31.95 132.2 32.5 143.4 33.55 150.15 24.05 M68.75 27.1 L70.1 25.6 Q75.15 30.55 81.45 33.7 85.0 35.45 88.4 33.45 94.5 29.95 98.8 24.45 L98.25 28.2 93.5 32.5 91.55 34.0 Q87.15 37.3 81.95 35.6 74.35 32.95 68.75 27.1 M124.5 22.5 Q124.55 19.2 128.25 18.05 L131.4 17.1 Q135.3 15.9 138.5 18.45 141.15 20.5 141.2 24.0 L140.45 24.6 124.5 22.5 M138.85 22.25 Q137.95 20.3 136.35 18.8 135.65 18.2 134.9 18.2 130.55 18.15 127.45 20.9 L138.85 22.25 M86.55 19.3 L81.5 22.45 92.75 22.4 86.55 19.3 M96.55 23.2 L96.15 24.25 78.95 24.4 78.3 23.55 79.4 22.2 Q83.3 16.15 89.15 18.85 93.0 20.65 96.55 23.2" fill="#000000" fill-rule="evenodd" stroke="none"/>
      <path d="M138.4 11.95 L150.15 24.05 Q143.4 33.55 132.2 32.5 129.3 31.95 127.3 29.8 121.45 23.45 114.65 18.25 112.5 16.55 110.0 17.3 103.35 18.9 99.0 24.25 L98.8 24.45 Q94.5 29.95 88.4 33.45 85.0 35.45 81.45 33.7 75.15 30.55 70.1 25.6 L81.9 12.35 Q97.35 16.75 113.85 15.5 120.65 14.9 127.25 13.5 132.8 12.45 138.4 11.95 M103.3 3.6 L118.5 3.35 112.3 8.6 Q108.1 5.65 103.3 3.6 M124.5 22.5 L140.45 24.6 141.2 24.0 Q141.15 20.5 138.5 18.45 135.3 15.9 131.4 17.1 L128.25 18.05 Q124.55 19.2 124.5 22.5 M96.55 23.2 Q93.0 20.65 89.15 18.85 83.3 16.15 79.4 22.2 L78.3 23.55 78.95 24.4 96.15 24.25 96.55 23.2 M117.35 97.6 L115.0 105.1 108.15 105.05 105.95 99.65 111.15 93.25 112.4 93.25 117.35 97.6 M115.15 108.1 L124.9 130.45 110.85 160.0 98.7 131.8 108.25 108.05 115.15 108.1" fill="#0e4239" fill-rule="evenodd" stroke="none"/>
      <path d="M151.55 25.45 L156.5 30.7 143.15 82.7 115.85 89.7 108.05 89.75 80.05 83.0 63.2 33.3 68.75 27.1 Q74.35 32.95 81.95 35.6 87.15 37.3 91.55 34.0 79.95 43.5 80.15 58.65 80.3 69.05 86.1 77.6 L87.15 77.55 88.4 80.1 Q96.75 76.15 105.75 74.75 113.05 73.85 120.25 75.7 128.3 77.95 135.9 81.75 L136.4 74.35 Q130.05 64.35 118.3 62.65 102.15 60.2 89.75 70.85 87.75 72.55 87.3 75.1 86.8 62.55 98.2 56.75 L101.3 55.2 Q108.05 51.8 109.7 44.1 110.7 39.45 109.85 34.65 L110.85 34.65 Q110.35 45.75 118.9 52.7 123.85 56.65 129.75 59.2 132.1 60.25 133.7 62.45 139.15 69.9 138.0 79.1 L139.35 79.4 Q144.8 65.0 141.85 50.05 141.45 48.1 140.15 46.45 132.8 36.8 122.85 30.15 L123.25 29.3 Q128.75 35.65 136.8 34.5 145.95 33.05 151.55 25.45 M84.55 11.05 L99.9 3.65 103.3 3.6 Q108.1 5.65 112.3 8.6 L118.5 3.35 120.0 3.3 134.95 10.3 Q118.0 14.1 100.65 13.65 92.35 13.15 84.55 11.05 M138.85 22.25 L127.45 20.9 Q130.55 18.15 134.9 18.2 135.65 18.2 136.35 18.8 137.95 20.3 138.85 22.25 M121.8 27.6 Q120.95 31.0 117.4 31.85 111.85 33.35 106.0 32.35 L106.75 31.45 Q104.75 28.05 100.65 27.45 L100.25 27.8 100.5 25.55 Q105.1 19.55 112.25 19.8 114.05 20.2 115.7 21.45 119.1 24.05 121.8 27.6 M98.25 28.2 L98.45 29.35 Q95.8 30.9 93.5 32.5 L98.25 28.2 M86.55 19.3 L92.75 22.4 81.5 22.45 86.55 19.3 M120.45 28.1 Q119.75 25.85 117.3 26.85 113.75 28.1 112.3 31.5 L113.2 32.1 115.3 30.65 116.1 31.1 Q119.1 30.8 120.45 28.1 M101.3 30.45 Q100.3 29.6 100.75 29.3 103.45 30.2 105.2 32.2 102.95 31.85 101.3 30.45 M118.8 79.4 L105.95 80.35 106.0 81.75 Q112.75 83.05 119.0 80.8 L119.1 79.75 118.8 79.4 M142.15 94.3 L126.85 101.95 116.35 92.7 144.6 85.4 145.95 86.35 142.15 94.3 M103.8 102.2 L105.75 106.35 97.0 127.9 84.6 99.2 102.25 103.7 103.8 102.2 M119.8 99.75 L126.4 105.25 140.0 98.75 126.65 126.85 117.6 106.2 119.8 99.75 M78.85 85.8 L107.55 92.7 101.3 100.55 83.1 95.65 78.85 85.8 M48.85 255.95 L50.1 257.2 33.7 270.15 14.6 251.3 26.55 235.15 33.7 234.5 49.9 244.75 46.4 253.65 34.5 251.2 34.85 246.4 33.35 246.35 Q31.1 250.65 30.85 255.7 L32.35 256.25 33.35 255.8 33.8 254.15 Q41.15 256.7 48.45 256.3 L48.85 255.95 M189.75 238.0 L202.3 252.9 183.95 269.75 168.35 254.6 170.15 252.35 176.75 258.0 181.9 256.7 Q182.7 259.2 185.2 259.3 L185.9 258.25 181.8 251.6 181.0 250.9 Q179.6 250.85 179.65 252.05 179.7 253.1 180.1 254.1 L177.45 254.85 170.2 248.45 177.65 237.8 189.75 238.0" fill="#c1d9cb" fill-rule="evenodd" stroke="none"/>
      <path d="M139.8 49.15 Q143.05 58.35 140.05 68.15 137.85 60.35 130.25 57.35 126.1 55.6 122.25 53.2 112.05 46.65 112.85 34.6 L114.0 34.65 Q118.35 34.45 121.65 31.75 130.9 37.85 138.05 46.15 139.2 47.5 139.8 49.15 M99.2 31.25 Q100.95 33.95 107.85 34.6 L107.85 36.1 Q107.85 40.65 107.4 45.0 106.7 52.1 99.55 53.65 94.6 54.6 89.1 60.3 84.9 64.6 85.0 71.65 L83.4 67.8 Q80.15 59.85 82.8 49.1 85.2 39.45 99.2 31.25" fill="#3d6558" fill-rule="evenodd" stroke="none"/>
      <path d="M111.95 64.05 L117.95 64.65 Q120.9 64.95 123.5 65.85 L123.85 66.25 120.85 73.45 Q116.3 72.4 111.65 72.3 L111.95 64.05 M102.55 72.9 L101.45 65.4 Q105.8 64.2 109.95 64.0 L109.65 72.25 102.55 72.9 M100.55 73.15 Q97.4 73.75 94.45 74.95 L93.85 69.1 99.5 66.15 100.55 73.15 M89.5 77.6 Q88.6 72.8 91.95 70.45 L92.5 75.7 92.55 75.85 Q90.95 76.6 89.5 77.6 M130.35 70.4 L130.05 72.5 129.0 76.1 122.8 73.95 125.3 66.6 Q128.7 67.5 130.35 70.4 M130.9 77.1 L132.2 71.85 134.4 74.9 134.5 79.1 130.9 77.1 M48.45 256.3 L48.7 255.8 48.85 255.95 48.45 256.3" fill="#ffffff" fill-rule="evenodd" stroke="none"/>
    </g>
    <g id="shape5" transform="matrix(1.0, 0.0, 0.0, 1.0, -0.25, -0.1)">
      <path d="M41.5 9.2 Q42.4 9.55 43.15 9.95 46.05 11.85 46.9 14.2 L47.35 15.85 47.65 17.9 47.25 18.65 44.0 19.2 38.3 19.95 37.2 18.3 37.9 23.9 45.75 25.9 Q47.7 26.7 49.5 27.85 L51.3 29.45 51.9 30.15 53.05 32.2 Q53.9 34.55 53.45 37.4 53.05 39.65 51.8 42.25 50.75 44.2 48.5 45.95 L41.3 49.9 41.5 51.65 41.65 52.55 41.55 54.25 40.85 54.55 36.85 54.55 33.35 54.55 32.45 54.35 32.1 53.1 32.0 51.75 29.9 51.65 29.95 52.0 30.05 53.35 30.25 54.95 30.05 55.55 29.7 55.8 21.15 55.75 20.85 54.7 20.85 53.9 20.8 52.15 20.8 50.7 Q14.65 48.7 10.65 43.65 L7.9 38.1 7.55 35.2 8.6 34.85 10.8 34.65 18.35 34.25 20.5 38.15 19.95 29.25 Q14.15 29.25 10.1 25.5 8.95 24.2 8.45 22.85 7.9 20.7 8.2 18.6 8.55 16.85 9.35 15.4 10.25 14.05 11.4 12.85 L14.5 10.85 17.6 9.4 17.5 8.85 17.35 8.15 17.1 6.75 17.15 4.7 17.75 4.4 24.8 4.3 25.3 5.6 25.4 6.25 25.5 7.1 27.25 6.95 27.1 6.05 27.05 5.4 26.95 4.05 31.85 2.35 33.7 2.05 35.15 2.35 35.4 3.05 35.6 5.0 35.8 6.45 35.85 7.15 35.9 7.6 38.4 8.15 Q40.1 8.6 41.5 9.2 M45.7 17.05 Q45.55 13.85 43.0 11.9 39.95 9.6 36.1 8.95 L36.85 15.25 Q38.5 16.2 39.2 17.9 L45.7 17.05 M50.5 31.85 Q50.15 30.75 49.3 29.9 44.5 25.35 38.05 25.6 L38.65 30.05 39.6 30.55 Q42.85 32.45 41.55 36.3 L39.75 38.5 41.0 47.75 45.35 45.65 Q47.2 44.6 48.4 43.0 52.3 37.95 50.5 31.85 M27.4 8.2 L25.7 8.35 26.75 14.8 28.3 14.65 27.4 8.2 M28.4 15.6 L26.8 15.75 27.6 23.3 29.5 23.7 28.4 15.6 M25.75 23.5 L23.6 5.85 19.25 5.95 20.8 20.4 21.2 26.55 Q22.1 40.45 22.3 54.4 L28.25 54.0 25.75 23.5 M33.65 3.4 L28.7 4.7 Q30.45 15.1 31.3 25.55 L32.1 34.2 33.65 52.85 39.75 52.65 33.65 3.4 M10.9 18.95 L10.85 19.95 Q10.85 20.9 11.15 21.85 13.15 27.7 19.8 27.9 L19.5 24.35 Q17.9 24.05 17.15 22.75 14.95 18.95 18.75 16.85 L17.85 10.85 Q14.85 12.2 12.8 14.55 11.15 16.4 10.9 18.95 M18.25 20.55 Q18.5 21.5 19.1 22.15 L18.9 18.45 Q17.95 19.3 18.25 20.55 M17.1 36.0 L9.45 36.65 9.8 37.65 Q13.15 45.05 20.75 48.3 L20.55 39.4 Q18.1 38.3 17.1 36.0 M38.85 31.85 L39.5 36.6 Q40.7 34.95 39.5 32.5 L38.85 31.85 M27.8 25.4 L28.1 28.4 30.2 28.6 29.75 25.5 27.8 25.4 M30.35 29.8 L28.2 29.6 29.05 39.75 31.25 39.65 30.35 29.8 M31.35 40.85 L29.15 40.95 29.75 49.8 31.9 49.75 31.35 40.85" fill="#005d51" fill-rule="evenodd" stroke="none"/>
      <path d="M46.9 14.2 Q46.05 11.85 43.15 9.95 42.4 9.55 41.5 9.2 38.85 7.4 35.8 6.45 L35.6 5.0 Q41.65 6.85 46.0 11.25 54.5 20.05 53.05 32.2 L51.9 30.15 51.95 28.7 Q51.75 20.2 46.9 14.2 M35.15 2.35 L33.7 2.05 Q21.3 -0.05 11.55 7.85 2.85 14.9 1.65 25.95 0.9 32.85 3.65 39.2 8.8 50.9 20.85 54.7 L21.15 55.75 29.7 55.8 Q33.45 55.6 36.85 54.55 L40.85 54.55 Q35.35 57.15 28.6 57.3 16.45 56.95 8.4 48.9 4.75 45.25 2.7 40.85 1.25 37.7 0.65 34.15 -0.1 29.5 0.5 24.9 1.2 19.5 3.95 14.75 6.75 10.0 10.95 6.65 14.95 3.5 19.8 1.7 24.05 0.1 28.6 0.1 40.7 0.4 48.8 8.5 56.9 16.55 57.2 28.7 56.85 40.8 48.8 48.9 45.5 52.2 41.55 54.25 L41.65 52.55 Q44.95 50.7 47.8 47.9 55.45 40.2 55.75 28.7 55.45 17.15 47.8 9.5 42.45 4.1 35.15 2.35 M26.95 4.05 L27.05 5.4 25.3 5.6 24.8 4.3 26.95 4.05 M17.1 6.75 L17.35 8.15 11.4 12.85 Q10.25 14.05 9.35 15.4 5.4 21.05 5.2 28.7 5.4 37.45 10.65 43.65 14.65 48.7 20.8 50.7 L20.8 52.15 Q15.35 50.4 11.1 46.15 4.1 39.15 3.85 28.7 4.1 18.2 11.1 11.2 13.8 8.45 17.1 6.75 M30.05 53.35 L29.95 52.0 32.0 51.75 32.1 53.1 30.05 53.35" fill="#006868" fill-rule="evenodd" stroke="none"/>
      <path d="M40.65 12.0 L42.45 12.1 43.6 13.4 Q44.15 15.45 42.2 16.35 41.3 16.6 40.6 16.35 L40.45 16.3 40.4 16.25 Q39.7 15.85 39.25 14.95 38.7 12.9 40.65 12.0 M41.6 15.7 L41.95 15.6 Q43.65 14.75 42.45 13.1 L41.6 15.7 M41.65 12.75 L40.95 12.8 Q39.7 13.35 40.05 14.7 L40.45 15.3 41.65 12.75 M46.05 37.3 Q48.15 37.85 48.0 39.95 47.45 42.05 45.3 41.9 44.3 41.65 43.85 41.05 L43.8 41.0 43.75 40.9 Q43.3 40.25 43.4 39.2 43.95 37.1 46.05 37.3 M44.8 40.8 L45.45 41.05 Q47.4 41.15 47.1 39.15 L44.8 40.8 M46.65 38.45 L45.95 38.1 Q44.6 38.0 44.2 39.35 L44.3 40.15 46.65 38.45 M13.5 18.1 L12.75 18.1 14.15 20.6 14.5 19.95 Q14.75 18.6 13.5 18.1 M10.85 19.95 L10.9 18.95 Q11.55 17.0 13.6 17.25 15.35 17.7 15.4 19.55 15.45 21.1 14.0 21.75 L12.3 21.65 Q11.15 21.15 10.85 19.95 M12.65 20.95 L13.35 21.0 12.0 18.55 11.65 19.1 Q11.4 20.45 12.65 20.95 M17.55 42.65 L17.85 42.0 15.0 42.3 15.45 42.9 Q16.6 43.65 17.55 42.65 M17.3 40.6 Q16.2 39.8 15.2 40.8 L14.9 41.45 17.75 41.15 17.3 40.6 M18.75 41.5 L18.5 42.45 Q17.95 44.1 16.25 44.15 L15.8 44.0 Q13.3 42.75 14.55 40.25 L15.4 39.85 Q17.95 38.9 18.75 41.5" fill="#0f6f61" fill-rule="evenodd" stroke="none"/>
      <path d="M40.65 12.0 Q38.7 12.9 39.25 14.95 39.7 15.85 40.4 16.25 L40.45 16.3 40.6 16.35 Q41.3 16.6 42.2 16.35 44.15 15.45 43.6 13.4 L42.45 12.1 40.65 12.0 M45.7 17.05 L39.2 17.9 Q38.5 16.2 36.85 15.25 L36.1 8.95 Q39.95 9.6 43.0 11.9 45.55 13.85 45.7 17.05 M50.5 31.85 Q52.3 37.95 48.4 43.0 47.2 44.6 45.35 45.65 L41.0 47.75 39.75 38.5 41.55 36.3 Q42.85 32.45 39.6 30.55 L38.65 30.05 38.05 25.6 Q44.5 25.35 49.3 29.9 50.15 30.75 50.5 31.85 M46.05 37.3 Q43.95 37.1 43.4 39.2 43.3 40.25 43.75 40.9 L43.8 41.0 43.85 41.05 Q44.3 41.65 45.3 41.9 47.45 42.05 48.0 39.95 48.15 37.85 46.05 37.3 M32.9 7.7 L31.15 6.85 Q30.6 9.15 30.85 11.4 L31.8 18.75 Q33.9 33.8 34.4 48.9 34.45 50.1 35.5 51.1 L37.15 50.9 Q37.65 50.05 37.55 48.95 L36.95 43.5 36.1 33.95 Q35.3 20.6 32.9 7.7 M27.4 8.2 L28.3 14.65 26.75 14.8 25.7 8.35 27.4 8.2 M24.25 24.5 Q24.2 18.9 23.7 13.7 23.2 8.5 22.1 8.2 20.85 8.6 21.15 13.7 21.45 18.8 22.2 24.2 L23.1 31.05 Q23.5 40.1 23.8 43.3 23.3 47.7 24.9 51.6 26.25 50.8 26.15 48.65 L25.8 45.15 Q24.55 38.45 24.3 31.65 L24.25 24.5 M33.65 3.4 L39.75 52.65 33.65 52.85 32.1 34.2 31.3 25.55 Q30.45 15.1 28.7 4.7 L33.65 3.4 M25.75 23.5 L28.25 54.0 22.3 54.4 Q22.1 40.45 21.2 26.55 L20.8 20.4 19.25 5.95 23.6 5.85 25.75 23.5 M10.85 19.95 Q11.15 21.15 12.3 21.65 L14.0 21.75 Q15.45 21.1 15.4 19.55 15.35 17.7 13.6 17.25 11.55 17.0 10.9 18.95 11.15 16.4 12.8 14.55 14.85 12.2 17.85 10.85 L18.75 16.85 Q14.95 18.95 17.15 22.75 17.9 24.05 19.5 24.35 L19.8 27.9 Q13.15 27.7 11.15 21.85 10.85 20.9 10.85 19.95 M18.75 41.5 Q17.95 38.9 15.4 39.85 L14.55 40.25 Q13.3 42.75 15.8 44.0 L16.25 44.15 Q17.95 44.1 18.5 42.45 L18.75 41.5 M17.1 36.0 Q18.1 38.3 20.55 39.4 L20.75 48.3 Q13.15 45.05 9.8 37.65 L9.45 36.65 17.1 36.0 M27.8 25.4 L29.75 25.5 30.2 28.6 28.1 28.4 27.8 25.4 M31.35 40.85 L31.9 49.75 29.75 49.8 29.15 40.95 31.35 40.85" fill="#85ab93" fill-rule="evenodd" stroke="none"/>
      <path d="M38.4 8.15 L35.9 7.6 35.85 7.15 38.4 8.15 M27.1 6.05 L27.25 6.95 25.5 7.1 25.4 6.25 27.1 6.05 M17.5 8.85 L17.6 9.4 14.5 10.85 Q15.9 9.7 17.5 8.85 M8.2 18.6 Q7.9 20.7 8.45 22.85 7.45 26.0 7.7 29.6 7.85 32.35 8.6 34.85 L7.55 35.2 7.9 38.1 Q6.0 33.85 5.85 28.7 6.0 23.1 8.2 18.6 M51.3 29.45 L49.5 27.85 Q49.25 23.0 47.25 18.65 L47.65 17.9 47.35 15.85 Q51.15 21.35 51.3 28.7 L51.3 29.45" fill="#85b599" fill-rule="evenodd" stroke="none"/>
      <path d="M41.5 9.2 Q40.1 8.6 38.4 8.15 L35.85 7.15 35.8 6.45 Q38.85 7.4 41.5 9.2 M35.4 3.05 L35.15 2.35 Q42.45 4.1 47.8 9.5 55.45 17.15 55.75 28.7 55.45 40.2 47.8 47.9 44.95 50.7 41.65 52.55 L41.5 51.65 Q44.6 49.9 47.2 47.3 L48.5 45.95 Q50.75 44.2 51.8 42.25 53.05 39.65 53.45 37.4 54.8 33.35 54.95 28.6 54.65 17.35 47.2 9.9 42.15 4.85 35.4 3.05 M33.7 2.05 L31.85 2.35 28.5 2.1 Q22.6 2.25 17.75 4.4 L17.15 4.7 Q6.8 9.85 3.35 20.8 0.5 29.95 4.3 38.8 9.25 50.2 20.85 53.9 L20.85 54.7 Q8.8 50.9 3.65 39.2 0.9 32.85 1.65 25.95 2.85 14.9 11.55 7.85 21.3 -0.05 33.7 2.05 M27.05 5.4 L27.1 6.05 25.4 6.25 25.3 5.6 27.05 5.4 M17.35 8.15 L17.5 8.85 Q15.9 9.7 14.5 10.85 L11.4 12.85 17.35 8.15 M9.35 15.4 Q8.55 16.85 8.2 18.6 6.0 23.1 5.85 28.7 6.0 33.85 7.9 38.1 L10.65 43.65 Q5.4 37.45 5.2 28.7 5.4 21.05 9.35 15.4 M29.7 55.8 L30.05 55.55 30.25 54.95 33.35 54.55 36.85 54.55 Q33.45 55.6 29.7 55.8 M29.95 52.0 L29.9 51.65 32.0 51.75 29.95 52.0 M51.9 30.15 L51.3 29.45 51.3 28.7 Q51.15 21.35 47.35 15.85 L46.9 14.2 Q51.75 20.2 51.95 28.7 L51.9 30.15" fill="#085854" fill-rule="evenodd" stroke="none"/>
      <path d="M41.65 12.75 L40.45 15.3 40.05 14.7 Q39.7 13.35 40.95 12.8 L41.65 12.75 M41.6 15.7 L42.45 13.1 Q43.65 14.75 41.95 15.6 L41.6 15.7 M46.65 38.45 L44.3 40.15 44.2 39.35 Q44.6 38.0 45.95 38.1 L46.65 38.45 M44.8 40.8 L47.1 39.15 Q47.4 41.15 45.45 41.05 L44.8 40.8 M13.5 18.1 Q14.75 18.6 14.5 19.95 L14.15 20.6 12.75 18.1 13.5 18.1 M12.65 20.95 Q11.4 20.45 11.65 19.1 L12.0 18.55 13.35 21.0 12.65 20.95 M17.3 40.6 L17.75 41.15 14.9 41.45 15.2 40.8 Q16.2 39.8 17.3 40.6 M17.55 42.65 Q16.6 43.65 15.45 42.9 L15.0 42.3 17.85 42.0 17.55 42.65" fill="#a0beac" fill-rule="evenodd" stroke="none"/>
      <path d="M35.6 5.0 L35.4 3.05 Q42.15 4.85 47.2 9.9 54.65 17.35 54.95 28.6 54.8 33.35 53.45 37.4 53.9 34.55 53.05 32.2 54.5 20.05 46.0 11.25 41.65 6.85 35.6 5.0 M31.85 2.35 L26.95 4.05 24.8 4.3 17.75 4.4 Q22.6 2.25 28.5 2.1 L31.85 2.35 M17.15 4.7 L17.1 6.75 Q13.8 8.45 11.1 11.2 4.1 18.2 3.85 28.7 4.1 39.15 11.1 46.15 15.35 50.4 20.8 52.15 L20.85 53.9 Q9.25 50.2 4.3 38.8 0.5 29.95 3.35 20.8 6.8 9.85 17.15 4.7 M8.45 22.85 Q8.95 24.2 10.1 25.5 8.85 29.75 10.65 34.3 L10.8 34.65 8.6 34.85 Q7.85 32.35 7.7 29.6 7.45 26.0 8.45 22.85 M30.25 54.95 L30.05 53.35 32.1 53.1 32.45 54.35 33.35 54.55 30.25 54.95 M41.5 51.65 L41.3 49.9 48.5 45.95 47.2 47.3 Q44.6 49.9 41.5 51.65 M49.5 27.85 Q47.7 26.7 45.75 25.9 45.45 22.35 44.0 19.2 L47.25 18.65 Q49.25 23.0 49.5 27.85" fill="#98bea8" fill-rule="evenodd" stroke="none"/>
      <path d="M10.1 25.5 Q14.15 29.25 19.95 29.25 L20.5 38.15 18.35 34.25 10.8 34.65 10.65 34.3 Q8.85 29.75 10.1 25.5 M45.75 25.9 L37.9 23.9 37.2 18.3 38.3 19.95 44.0 19.2 Q45.45 22.35 45.75 25.9 M28.4 15.6 L29.5 23.7 27.6 23.3 26.8 15.75 28.4 15.6 M18.25 20.55 Q17.95 19.3 18.9 18.45 L19.1 22.15 Q18.5 21.5 18.25 20.55 M38.85 31.85 L39.5 32.5 Q40.7 34.95 39.5 36.6 L38.85 31.85 M30.35 29.8 L31.25 39.65 29.05 39.75 28.2 29.6 30.35 29.8" fill="#c1d9cb" fill-rule="evenodd" stroke="none"/>
      <path d="M32.9 7.7 Q35.3 20.6 36.1 33.95 L36.95 43.5 37.55 48.95 Q37.65 50.05 37.15 50.9 L35.5 51.1 Q34.45 50.1 34.4 48.9 33.9 33.8 31.8 18.75 L30.85 11.4 Q30.6 9.15 31.15 6.85 L32.9 7.7 M24.25 24.5 L24.3 31.65 Q24.55 38.45 25.8 45.15 L26.15 48.65 Q26.25 50.8 24.9 51.6 23.3 47.7 23.8 43.3 23.5 40.1 23.1 31.05 L22.2 24.2 Q21.45 18.8 21.15 13.7 20.85 8.6 22.1 8.2 23.2 8.5 23.7 13.7 24.2 18.9 24.25 24.5" fill="#689878" fill-rule="evenodd" stroke="none"/>
    </g>
    <g id="shape6" transform="matrix(1.0, 0.0, 0.0, 1.0, 0.0, 0.0)">
      <path d="M151.2 24.4 L153.0 26.0 146.1 53.25 140.15 54.95 Q141.9 46.0 142.45 36.8 142.85 29.55 145.75 23.35 L150.55 24.75 151.2 24.4 M124.8 32.15 Q132.6 27.4 141.4 25.0 139.45 37.35 137.9 49.8 L136.85 55.85 123.55 58.0 Q125.6 45.15 124.8 32.15 M80.75 65.15 L81.05 68.6 Q79.05 67.7 77.5 66.45 L73.9 63.4 Q77.1 64.8 80.75 65.15 M84.05 69.75 L83.8 65.05 94.35 63.75 94.95 71.35 Q88.6 71.15 84.05 69.75 M78.5 61.6 Q74.05 60.6 70.1 58.1 L60.1 30.75 66.35 24.3 74.5 27.95 Q75.7 45.1 80.1 62.05 L78.5 61.6 M105.9 38.05 L106.95 38.0 107.15 60.5 97.05 60.6 94.7 35.95 Q100.05 38.15 105.9 38.05 M138.65 62.8 L139.45 58.3 144.15 56.95 Q141.85 60.4 138.65 62.8 M122.7 68.2 L123.05 61.05 136.25 58.95 135.25 64.85 Q129.2 67.6 122.7 68.2 M110.4 63.2 L120.0 61.6 Q119.55 65.9 119.7 68.8 L111.5 70.15 110.4 63.2 M122.0 33.45 L122.0 40.85 120.45 58.5 110.15 60.2 109.95 37.45 122.0 33.45 M94.05 60.75 L83.25 62.05 81.65 55.75 Q78.4 42.6 77.5 29.0 L91.7 34.85 94.05 60.75 M107.4 63.5 L108.55 70.5 97.95 71.35 97.35 63.6 107.4 63.5" fill="#ffffff" fill-rule="evenodd" stroke="none"/>
      <path d="M151.2 24.4 L150.55 24.75 145.75 23.35 Q142.85 29.55 142.45 36.8 141.9 46.0 140.15 54.95 L146.1 53.25 153.0 26.0 151.2 24.4 M209.0 118.8 L214.35 166.25 214.35 166.7 200.2 236.1 202.6 240.0 202.85 240.9 Q195.3 248.4 186.65 255.0 L181.25 258.85 181.05 259.0 163.4 241.0 164.6 238.8 155.7 200.55 147.95 207.2 155.65 261.15 155.55 262.1 154.15 262.85 86.2 262.85 Q72.7 263.05 59.35 262.7 L58.95 262.35 58.45 261.2 63.25 211.05 50.1 196.45 43.75 231.5 44.9 232.0 45.85 232.55 46.7 233.4 47.5 234.65 45.0 242.4 48.85 248.45 29.5 263.05 Q20.5 255.7 12.15 247.35 L6.8 242.0 6.45 241.45 8.25 238.0 2.45 214.5 0.0 168.95 7.35 120.9 8.1 119.65 74.8 78.75 57.2 29.65 68.5 17.75 Q74.1 12.0 80.05 6.6 81.35 5.5 83.1 4.95 99.3 -0.25 116.7 0.0 L120.8 0.1 129.4 0.8 155.8 24.9 Q152.45 40.8 148.4 56.55 L146.5 63.65 142.8 77.95 145.55 79.95 176.0 98.25 176.35 98.5 208.8 118.15 209.0 118.8 M173.85 100.45 L145.5 83.4 134.9 117.9 133.7 118.95 129.3 113.85 109.25 154.45 95.35 180.7 152.95 124.35 142.55 117.75 142.25 116.3 172.95 111.3 173.85 100.45 M156.4 125.15 L91.1 189.05 87.8 259.85 152.45 259.85 144.9 206.8 144.95 206.1 155.5 196.8 178.9 161.35 204.35 118.8 176.7 102.2 175.45 113.2 148.0 117.7 156.7 124.05 156.4 125.15 M181.45 162.95 L158.2 198.1 166.4 233.6 174.35 223.4 Q174.45 223.25 174.6 223.2 174.95 222.95 175.4 222.8 L187.85 222.2 188.15 222.35 197.65 233.45 211.35 166.35 206.25 121.45 181.45 162.95 M125.3 4.4 L124.8 5.35 Q117.05 5.25 110.8 10.1 112.95 12.4 114.25 15.25 122.6 20.65 132.75 20.6 L143.05 20.9 143.5 21.55 144.85 21.65 145.45 21.35 148.65 22.1 127.8 3.35 Q108.1 2.0 88.7 6.15 92.9 7.6 95.3 11.4 102.1 7.6 109.45 9.3 115.7 2.5 124.9 3.75 L125.3 4.4 M126.05 12.55 Q120.3 7.9 114.05 11.95 L113.3 10.75 113.75 10.3 Q121.4 4.8 126.7 11.65 L126.05 12.55 M113.85 19.7 L116.3 21.4 117.25 19.5 114.45 17.2 113.85 19.7 M113.45 22.25 L112.75 21.6 Q104.05 29.7 94.55 22.6 L90.3 23.75 Q88.7 22.2 89.3 20.1 81.7 24.15 73.05 24.15 87.95 31.3 104.1 34.65 107.95 35.4 111.7 34.15 126.15 29.45 139.75 22.35 129.1 23.7 118.85 21.0 L117.9 22.25 Q115.65 24.45 113.45 22.25 M124.8 32.15 Q125.6 45.15 123.55 58.0 L136.85 55.85 137.9 49.8 Q139.45 37.35 141.4 25.0 132.6 27.4 124.8 32.15 M85.4 7.1 Q75.95 13.6 68.45 22.1 L69.55 22.65 69.8 22.3 Q81.35 22.7 91.5 17.05 L91.95 17.85 91.2 21.6 Q93.95 19.9 96.45 21.6 100.15 24.2 104.6 23.9 112.6 22.9 112.25 15.05 104.45 7.35 94.95 13.8 91.65 8.95 85.95 7.75 L85.4 7.1 M79.3 15.4 L78.55 14.6 Q83.7 8.45 91.0 12.6 L90.6 14.1 Q85.35 11.55 80.65 14.95 L79.3 15.4 M105.9 38.05 Q100.05 38.15 94.7 35.95 L97.05 60.6 107.15 60.5 106.95 38.0 105.9 38.05 M78.5 61.6 L80.1 62.05 Q75.7 45.1 74.5 27.95 L66.35 24.3 60.1 30.75 70.1 58.1 Q74.05 60.6 78.5 61.6 M84.05 69.75 Q88.6 71.15 94.95 71.35 L94.35 63.75 83.8 65.05 84.05 69.75 M80.75 65.15 Q77.1 64.8 73.9 63.4 L77.5 66.45 Q79.05 67.7 81.05 68.6 L80.75 65.15 M77.75 78.1 L100.8 87.45 101.05 87.8 100.75 89.3 107.4 142.1 112.25 87.7 Q125.65 81.85 139.85 77.4 L143.8 62.2 Q140.15 66.35 134.9 68.25 122.9 72.5 110.05 72.85 L109.45 73.45 96.9 74.65 Q83.85 74.9 73.7 67.15 L77.75 78.1 M107.4 63.5 L97.35 63.6 97.95 71.35 108.55 70.5 107.4 63.5 M94.05 60.75 L91.7 34.85 77.5 29.0 Q78.4 42.6 81.65 55.75 L83.25 62.05 94.05 60.75 M122.0 33.45 L109.95 37.45 110.15 60.2 120.45 58.5 122.0 40.85 122.0 33.45 M110.4 63.2 L111.5 70.15 119.7 68.8 Q119.55 65.9 120.0 61.6 L110.4 63.2 M122.7 68.2 Q129.2 67.6 135.25 64.85 L136.25 58.95 123.05 61.05 122.7 68.2 M138.65 62.8 Q141.85 60.4 144.15 56.95 L139.45 58.3 138.65 62.8 M140.8 80.25 L116.1 88.55 132.95 114.0 142.85 81.7 140.8 80.25 M43.15 108.5 L72.45 111.75 Q73.95 111.75 73.7 113.1 L73.25 113.75 58.6 119.7 102.35 160.95 106.0 154.2 105.85 153.75 87.5 109.25 82.8 116.25 82.35 116.45 Q81.1 116.9 80.9 115.65 78.0 98.7 75.55 81.75 L41.95 102.4 43.15 108.5 M39.2 104.05 L10.75 121.5 32.6 168.7 Q49.05 190.1 66.3 210.65 L61.6 259.85 84.8 259.85 88.1 188.35 100.9 163.7 54.8 120.25 54.5 118.9 Q59.65 115.4 65.85 113.75 L41.75 111.4 Q40.7 111.25 40.5 110.2 L39.2 104.05 M9.6 126.0 L3.0 168.9 5.45 214.25 10.6 235.05 Q15.2 229.2 19.95 223.5 20.3 223.1 20.8 223.1 24.85 222.1 28.35 223.25 34.8 225.4 40.65 229.4 40.45 223.9 41.5 218.7 43.95 206.35 47.65 194.3 L30.0 170.15 9.6 126.0 M114.9 92.15 L110.1 145.95 127.4 110.95 114.9 92.15 M89.5 106.25 L104.4 142.45 98.15 93.15 89.5 106.25 M82.75 111.0 L97.35 89.0 78.55 81.65 82.75 111.0 M25.3 244.65 L25.9 240.95 25.9 240.85 Q25.8 238.2 27.45 236.6 28.3 235.7 29.0 236.85 30.0 238.45 29.05 240.4 35.25 243.85 41.95 242.1 L44.2 235.45 28.3 224.45 21.85 225.7 9.8 240.9 29.2 259.6 45.3 247.6 43.1 244.9 Q35.45 247.1 28.45 243.4 28.6 246.1 26.35 246.5 25.15 246.0 25.3 244.65 M176.25 225.75 L168.85 235.35 169.2 236.4 175.7 241.85 178.8 241.25 178.55 240.6 178.5 240.05 Q178.6 239.5 179.0 239.1 180.35 237.9 181.15 239.55 L183.4 244.7 182.95 245.75 182.45 246.05 181.9 246.1 181.3 246.05 180.9 245.65 180.0 244.05 175.55 244.95 Q174.9 244.75 174.45 244.4 L168.05 239.4 166.75 240.9 181.65 255.8 199.35 240.05 186.6 225.1 176.25 225.75" fill="#1a1a1a" fill-rule="evenodd" stroke="none"/>
      <path d="M181.45 162.95 L206.25 121.45 211.35 166.35 197.65 233.45 188.15 222.35 187.85 222.2 175.4 222.8 Q174.95 222.95 174.6 223.2 174.45 223.25 174.35 223.4 L166.4 233.6 158.2 198.1 181.45 162.95 M156.4 125.15 L156.7 124.05 148.0 117.7 175.45 113.2 176.7 102.2 204.35 118.8 178.9 161.35 155.5 196.8 144.95 206.1 144.9 206.8 152.45 259.85 87.8 259.85 91.1 189.05 156.4 125.15 M173.85 100.45 L172.95 111.3 142.25 116.3 142.55 117.75 152.95 124.35 95.35 180.7 109.25 154.45 129.3 113.85 133.7 118.95 134.9 117.9 145.5 83.4 173.85 100.45 M9.6 126.0 L30.0 170.15 47.65 194.3 Q43.95 206.35 41.5 218.7 40.45 223.9 40.65 229.4 34.8 225.4 28.35 223.25 24.85 222.1 20.8 223.1 20.3 223.1 19.95 223.5 15.2 229.2 10.6 235.05 L5.45 214.25 3.0 168.9 9.6 126.0 M39.2 104.05 L40.5 110.2 Q40.7 111.25 41.75 111.4 L65.85 113.75 Q59.65 115.4 54.5 118.9 L54.8 120.25 100.9 163.7 88.1 188.35 84.8 259.85 61.6 259.85 66.3 210.65 Q49.05 190.1 32.6 168.7 L10.75 121.5 39.2 104.05 M43.15 108.5 L41.95 102.4 75.55 81.75 Q78.0 98.7 80.9 115.65 81.1 116.9 82.35 116.45 L82.8 116.25 87.5 109.25 105.85 153.75 106.0 154.2 102.35 160.95 58.6 119.7 73.25 113.75 73.7 113.1 Q73.95 111.75 72.45 111.75 L43.15 108.5" fill="#8d254e" fill-rule="evenodd" stroke="none"/>
      <path d="M126.05 12.55 L126.7 11.65 Q121.4 4.8 113.75 10.3 L113.3 10.75 114.05 11.95 Q120.3 7.9 126.05 12.55 M125.3 4.4 L124.9 3.75 Q115.7 2.5 109.45 9.3 102.1 7.6 95.3 11.4 92.9 7.6 88.7 6.15 108.1 2.0 127.8 3.35 L148.65 22.1 145.45 21.35 144.85 21.65 143.5 21.55 143.05 20.9 132.75 20.6 Q122.6 20.65 114.25 15.25 112.95 12.4 110.8 10.1 117.05 5.25 124.8 5.35 L125.3 4.4 M113.45 22.25 Q115.65 24.45 117.9 22.25 L118.85 21.0 Q129.1 23.7 139.75 22.35 126.15 29.45 111.7 34.15 107.95 35.4 104.1 34.65 87.95 31.3 73.05 24.15 81.7 24.15 89.3 20.1 88.7 22.2 90.3 23.75 L94.55 22.6 Q104.05 29.7 112.75 21.6 L113.45 22.25 M79.3 15.4 L80.65 14.95 Q85.35 11.55 90.6 14.1 L91.0 12.6 Q83.7 8.45 78.55 14.6 L79.3 15.4 M85.4 7.1 L85.95 7.75 Q91.65 8.95 94.95 13.8 104.45 7.35 112.25 15.05 112.6 22.9 104.6 23.9 100.15 24.2 96.45 21.6 93.95 19.9 91.2 21.6 L91.95 17.85 91.5 17.05 Q81.35 22.7 69.8 22.3 L69.55 22.65 68.45 22.1 Q75.95 13.6 85.4 7.1 M77.75 78.1 L73.7 67.15 Q83.85 74.9 96.9 74.65 L109.45 73.45 110.05 72.85 Q122.9 72.5 134.9 68.25 140.15 66.35 143.8 62.2 L139.85 77.4 Q125.65 81.85 112.25 87.7 L107.4 142.1 100.75 89.3 101.05 87.8 100.8 87.45 77.75 78.1" fill="#f3deee" fill-rule="evenodd" stroke="none"/>
      <path d="M113.85 19.7 L114.45 17.2 117.25 19.5 116.3 21.4 113.85 19.7 M176.25 225.75 L186.6 225.1 199.35 240.05 181.65 255.8 166.75 240.9 168.05 239.4 174.45 244.4 Q174.9 244.75 175.55 244.95 L180.0 244.05 180.9 245.65 181.3 246.05 181.9 246.1 182.45 246.05 182.95 245.75 183.4 244.7 181.15 239.55 Q180.35 237.9 179.0 239.1 178.6 239.5 178.5 240.05 L178.55 240.6 178.8 241.25 175.7 241.85 169.2 236.4 168.85 235.35 176.25 225.75 M25.3 244.65 Q25.15 246.0 26.35 246.5 28.6 246.1 28.45 243.4 35.45 247.1 43.1 244.9 L45.3 247.6 29.2 259.6 9.8 240.9 21.85 225.7 28.3 224.45 44.2 235.45 41.95 242.1 Q35.25 243.85 29.05 240.4 30.0 238.45 29.0 236.85 28.3 235.7 27.45 236.6 25.8 238.2 25.9 240.85 L25.9 240.95 25.3 244.65" fill="#e3aed5" fill-rule="evenodd" stroke="none"/>
      <path d="M140.8 80.25 L142.85 81.7 132.95 114.0 116.1 88.55 140.8 80.25 M89.5 106.25 L98.15 93.15 104.4 142.45 89.5 106.25 M114.9 92.15 L127.4 110.95 110.1 145.95 114.9 92.15 M82.75 111.0 L78.55 81.65 97.35 89.0 82.75 111.0" fill="#ffe1e9" fill-rule="evenodd" stroke="none"/>
    </g>
    <g id="shape7" transform="matrix(1.0, 0.0, 0.0, 1.0, -0.1, 0.0)">
      <path d="M44.15 4.15 Q48.25 3.4 52.05 4.8 L52.4 5.0 52.3 11.35 52.25 12.55 Q56.95 19.4 57.2 28.65 56.95 39.1 50.85 46.55 L50.85 48.45 50.25 54.2 Q46.95 55.8 43.1 54.6 L42.4 54.05 42.25 53.8 Q36.25 57.05 28.6 57.25 20.95 57.05 14.95 53.75 L14.75 54.3 14.4 54.75 8.05 54.95 Q6.45 53.25 6.75 50.75 L6.9 47.7 6.85 47.2 Q3.0 42.7 1.3 37.15 -0.8 29.9 0.85 22.5 2.4 15.75 6.8 10.6 15.0 0.95 27.95 0.05 L28.3 0.05 28.6 0.05 Q37.0 0.25 43.5 4.2 L44.15 4.15 M50.75 10.0 L51.2 5.6 42.35 5.6 Q42.7 27.1 43.4 48.6 43.45 50.9 43.95 52.95 L47.55 53.2 49.45 52.9 Q49.55 33.1 50.45 13.35 L50.75 10.0 M40.95 5.25 Q41.05 4.75 41.2 4.9 L41.4 4.8 Q35.75 1.65 28.6 1.45 17.05 1.75 9.4 9.45 1.7 17.1 1.4 28.65 1.65 37.85 6.6 44.65 L6.5 43.3 6.35 41.05 6.05 39.7 Q1.4 28.1 7.05 17.05 11.65 8.15 21.3 5.15 31.5 2.15 40.85 7.15 L40.95 5.25 M45.1 11.4 L45.35 12.2 47.45 10.1 46.65 9.85 Q45.25 10.0 45.1 11.4 M40.8 9.45 L40.8 8.75 Q35.55 5.45 28.65 5.3 18.7 5.6 12.0 12.3 5.3 19.0 5.05 28.9 5.2 33.9 6.95 38.05 L7.95 37.8 14.45 37.8 15.3 38.55 15.05 47.8 17.35 48.85 17.4 46.3 17.4 42.55 16.8 27.7 17.8 27.05 Q22.25 25.8 26.4 27.25 L26.7 27.55 26.7 51.5 26.7 51.95 29.25 52.05 29.25 51.35 29.25 47.1 29.3 44.85 28.85 16.2 30.2 15.55 38.9 15.85 38.7 49.4 38.7 49.8 41.85 47.95 41.85 47.1 41.95 42.75 41.95 38.3 41.0 14.95 40.85 11.15 40.8 9.45 M44.55 12.65 Q44.5 11.25 45.1 10.1 45.7 8.9 46.6 8.8 47.5 8.7 48.2 9.75 48.9 10.75 48.95 12.35 48.4 13.7 46.65 13.9 45.1 13.75 44.55 12.65 M48.3 45.2 L48.65 46.05 Q49.15 47.55 48.1 48.55 L46.3 49.2 Q44.8 49.15 44.1 47.55 43.75 46.05 44.6 45.2 L45.65 44.45 Q47.35 44.0 48.3 45.2 M46.3 12.95 L46.65 13.0 Q48.75 12.6 48.05 10.7 L46.3 12.95 M50.85 42.75 L50.85 44.4 Q55.35 38.0 55.55 29.2 55.4 21.65 52.1 15.6 L52.05 16.5 Q51.5 20.6 52.6 24.4 53.15 26.45 53.2 28.65 53.35 33.65 51.5 38.1 50.6 40.15 50.85 42.75 M51.15 34.95 Q51.9 31.85 51.85 28.65 L51.65 24.65 51.15 34.95 M44.9 46.45 L44.9 47.25 Q45.45 48.6 46.85 48.1 L47.6 47.8 44.9 46.45 M47.9 46.25 Q47.35 44.95 45.9 45.3 45.55 45.45 45.3 45.7 L47.95 47.0 47.9 46.25 M38.0 18.15 L38.1 16.8 29.9 16.9 31.25 53.15 37.5 53.45 37.55 53.2 Q36.9 35.65 38.0 18.15 M35.4 21.6 L35.0 20.95 32.75 21.0 32.45 21.65 35.4 21.6 M32.05 23.7 Q30.8 22.05 32.1 20.4 L32.25 20.3 Q33.9 18.95 35.6 20.25 L35.8 20.5 Q37.0 22.1 35.7 23.75 L35.55 23.9 Q33.9 25.2 32.2 23.85 L32.05 23.7 M35.4 48.0 Q37.9 50.5 35.05 52.15 L32.75 52.05 Q31.1 50.6 32.2 48.6 33.2 47.3 35.0 47.8 L35.4 48.0 M32.4 22.2 L32.8 22.85 35.05 22.8 35.35 22.15 32.4 22.2 M20.1 34.85 Q19.2 34.05 19.3 32.95 19.55 30.6 21.75 30.6 23.45 30.5 23.95 32.0 24.55 33.8 23.2 34.9 L20.1 34.85 M23.55 48.15 Q24.4 48.75 24.5 49.6 24.85 52.4 22.1 52.65 21.25 52.3 20.65 51.7 18.85 49.95 20.8 48.1 L23.55 48.15 M9.4 44.7 L9.2 45.45 Q9.35 46.9 10.75 47.05 L11.55 46.85 9.4 44.7 M9.05 47.25 L8.8 46.95 Q7.8 45.3 9.05 43.7 10.1 42.75 11.45 43.15 L12.0 43.35 Q13.1 43.95 13.25 45.45 13.05 47.15 11.75 47.7 10.7 48.45 9.05 47.25 M12.35 45.45 Q12.2 44.05 10.75 43.9 L10.0 44.1 12.15 46.25 12.35 45.45 M14.2 38.7 L7.45 38.8 8.6 53.65 Q9.45 54.1 10.5 54.05 L14.1 53.7 14.2 38.7 M21.65 31.4 L20.9 31.6 23.05 33.75 23.25 32.95 Q23.1 31.55 21.65 31.4 M22.45 34.35 L20.3 32.2 20.1 32.95 Q20.35 34.35 21.65 34.55 L22.45 34.35 M22.15 48.6 Q21.45 48.65 21.1 49.0 20.65 49.4 20.55 50.15 L20.75 50.9 22.85 48.8 22.15 48.6 M35.3 49.15 L33.1 49.1 32.65 49.55 32.6 50.35 35.3 49.15 M25.55 28.05 L17.9 28.15 19.3 53.15 24.75 53.25 25.55 28.05 M41.95 51.4 L41.85 49.6 38.7 51.3 38.55 53.05 38.35 54.05 42.0 52.4 41.95 51.4 M25.95 54.9 L23.3 55.25 Q28.6 56.35 33.95 55.25 L30.85 54.9 Q29.8 54.75 29.55 53.85 L29.45 53.4 26.6 53.3 25.95 54.9 M33.2 51.4 L34.55 51.7 35.7 49.95 33.2 51.4 M21.35 51.55 L22.1 51.75 Q23.9 51.55 23.6 49.7 L21.35 51.55 M15.15 51.45 L15.15 52.25 17.45 53.45 17.3 52.6 Q17.2 51.75 17.25 50.65 L15.1 49.4 15.15 51.45" fill="#5d0035" fill-rule="evenodd" stroke="none"/>
      <path d="M50.75 10.0 L50.45 13.35 Q49.55 33.1 49.45 52.9 L47.55 53.2 43.95 52.95 Q43.45 50.9 43.4 48.6 42.7 27.1 42.35 5.6 L51.2 5.6 50.75 10.0 M48.95 12.35 Q48.9 10.75 48.2 9.75 47.5 8.7 46.6 8.8 45.7 8.9 45.1 10.1 44.5 11.25 44.55 12.65 L44.6 45.2 Q43.75 46.05 44.1 47.55 44.8 49.15 46.3 49.2 46.8 49.75 47.7 49.65 L48.1 48.55 Q49.15 47.55 48.65 46.05 L48.3 45.2 48.05 41.5 Q47.2 35.85 47.35 30.15 47.65 21.15 48.95 12.35 M38.0 18.15 Q36.9 35.65 37.55 53.2 L37.5 53.45 31.25 53.15 29.9 16.9 38.1 16.8 38.0 18.15 M35.55 23.9 L35.7 23.75 Q37.0 22.1 35.8 20.5 L35.6 20.25 Q33.9 18.95 32.25 20.3 L32.1 20.4 Q30.8 22.05 32.05 23.7 32.7 32.75 31.85 41.85 31.65 43.75 31.7 45.7 31.7 47.3 32.2 48.6 31.1 50.6 32.75 52.05 L35.05 52.15 Q37.9 50.5 35.4 48.0 34.65 36.55 35.35 25.1 L35.55 23.9 M23.2 34.9 Q24.55 33.8 23.95 32.0 23.45 30.5 21.75 30.6 19.55 30.6 19.3 32.95 19.2 34.05 20.1 34.85 L20.8 48.1 Q18.85 49.95 20.65 51.7 21.25 52.3 22.1 52.65 24.85 52.4 24.5 49.6 24.4 48.75 23.55 48.15 L23.2 34.9 M9.05 43.7 Q7.8 45.3 8.8 46.95 L9.05 47.25 Q8.85 50.0 10.4 52.15 10.75 52.65 11.4 52.4 L11.75 47.7 Q13.05 47.15 13.25 45.45 13.1 43.95 12.0 43.35 12.3 41.75 11.6 40.3 L11.4 40.05 10.2 39.95 Q8.8 41.5 9.05 43.7 M14.2 38.7 L14.1 53.7 10.5 54.05 Q9.45 54.1 8.6 53.65 L7.45 38.8 14.2 38.7 M25.55 28.05 L24.75 53.25 19.3 53.15 17.9 28.15 25.55 28.05" fill="#e3c1d7" fill-rule="evenodd" stroke="none"/>
      <path d="M6.5 43.3 L6.6 44.65 Q1.65 37.85 1.4 28.65 1.7 17.1 9.4 9.45 17.05 1.75 28.6 1.45 35.75 1.65 41.4 4.8 L41.2 4.9 Q41.05 4.75 40.95 5.25 35.45 2.3 28.5 2.1 17.25 2.4 9.8 9.9 2.3 17.35 2.0 28.6 2.2 37.0 6.5 43.3 M40.85 11.15 L41.0 14.95 Q38.6 13.0 35.2 12.55 30.25 11.95 25.95 12.6 16.7 14.25 11.6 22.15 8.2 28.0 10.7 34.3 L12.05 37.4 9.6 37.55 Q7.6 32.95 7.75 27.7 7.85 22.9 10.4 19.05 15.75 11.05 25.25 9.1 33.55 7.45 40.85 11.15 M41.95 38.3 L41.95 42.75 39.4 43.95 Q39.25 42.35 39.25 40.75 L41.95 38.3 M29.3 44.85 L29.25 47.1 27.4 47.55 27.4 45.1 29.3 44.85 M17.4 42.55 L17.4 46.3 16.15 45.55 15.9 41.9 17.4 42.55 M52.05 16.5 L52.1 15.6 Q55.4 21.65 55.55 29.2 55.35 38.0 50.85 44.4 L50.85 42.75 Q54.75 36.6 54.95 28.6 54.75 21.85 52.05 16.5 M41.95 51.4 L42.0 52.4 38.35 54.05 38.55 53.05 41.95 51.4 M30.85 54.9 L33.95 55.25 Q28.6 56.35 23.3 55.25 L25.95 54.9 30.85 54.9 M17.3 52.6 L17.45 53.45 15.15 52.25 15.15 51.45 17.3 52.6" fill="#d2c0c0" fill-rule="evenodd" stroke="none"/>
      <path d="M44.15 4.15 L43.5 4.2 Q37.0 0.25 28.6 0.05 L29.2 0.0 Q37.65 0.2 44.15 4.15 M1.3 37.15 Q3.0 42.7 6.85 47.2 L6.9 47.7 Q2.95 43.0 1.3 37.15" fill="#8d3f6d" fill-rule="evenodd" stroke="none"/>
      <path d="M40.8 9.45 L40.85 11.15 Q33.55 7.45 25.25 9.1 15.75 11.05 10.4 19.05 7.85 22.9 7.75 27.7 7.6 32.95 9.6 37.55 L12.05 37.4 14.45 37.8 7.95 37.8 Q3.5 25.3 11.45 14.7 17.0 7.25 26.3 6.1 34.15 5.3 40.8 9.45 M41.95 42.75 L41.85 47.1 39.25 48.7 38.7 49.4 38.9 15.85 30.2 15.55 Q33.5 13.75 37.2 14.75 40.15 15.65 39.9 19.05 39.05 29.85 39.25 40.75 39.25 42.35 39.4 43.95 L41.95 42.75 M29.25 47.1 L29.25 51.35 26.7 51.5 26.7 27.55 26.4 27.25 Q22.25 25.8 17.8 27.05 19.55 26.25 21.6 26.15 L24.6 26.45 Q27.6 26.9 27.45 30.1 27.1 37.6 27.4 45.1 L27.4 47.55 29.25 47.1 M17.4 46.3 L17.35 48.85 15.05 47.8 15.3 38.55 15.9 41.9 16.15 45.55 17.4 46.3" fill="#bda3a3" fill-rule="evenodd" stroke="none"/>
      <path d="M7.95 37.8 L6.95 38.05 Q5.2 33.9 5.05 28.9 5.3 19.0 12.0 12.3 18.7 5.6 28.65 5.3 35.55 5.45 40.8 8.75 L40.8 9.45 Q34.15 5.3 26.3 6.1 17.0 7.25 11.45 14.7 3.5 25.3 7.95 37.8 M41.85 47.1 L41.85 47.95 38.7 49.8 38.7 49.4 39.25 48.7 41.85 47.1 M29.25 51.35 L29.25 52.05 26.7 51.95 26.7 51.5 29.25 51.35 M51.15 34.95 L51.65 24.65 51.85 28.65 Q51.9 31.85 51.15 34.95" fill="#aa8888" fill-rule="evenodd" stroke="none"/>
      <path d="M45.1 11.4 Q45.25 10.0 46.65 9.85 L47.45 10.1 45.35 12.2 45.1 11.4 M46.3 12.95 L48.05 10.7 Q48.75 12.6 46.65 13.0 L46.3 12.95 M44.9 46.45 L47.6 47.8 46.85 48.1 Q45.45 48.6 44.9 47.25 L44.9 46.45 M47.9 46.25 L47.95 47.0 45.3 45.7 Q45.55 45.45 45.9 45.3 47.35 44.95 47.9 46.25 M35.4 21.6 L32.45 21.65 32.75 21.0 35.0 20.95 35.4 21.6 M32.4 22.2 L35.35 22.15 35.05 22.8 32.8 22.85 32.4 22.2 M9.4 44.7 L11.55 46.85 10.75 47.05 Q9.35 46.9 9.2 45.45 L9.4 44.7 M12.35 45.45 L12.15 46.25 10.0 44.1 10.75 43.9 Q12.2 44.05 12.35 45.45 M22.45 34.35 L21.65 34.55 Q20.35 34.35 20.1 32.95 L20.3 32.2 22.45 34.35 M21.65 31.4 Q23.1 31.55 23.25 32.95 L23.05 33.75 20.9 31.6 21.65 31.4 M22.15 48.6 L22.85 48.8 20.75 50.9 20.55 50.15 Q20.65 49.4 21.1 49.0 21.45 48.65 22.15 48.6 M35.3 49.15 L32.6 50.35 32.65 49.55 33.1 49.1 35.3 49.15 M33.2 51.4 L35.7 49.95 34.55 51.7 33.2 51.4 M21.35 51.55 L23.6 49.7 Q23.9 51.55 22.1 51.75 L21.35 51.55" fill="#a68884" fill-rule="evenodd" stroke="none"/>
      <path d="M48.95 12.35 Q47.65 21.15 47.35 30.15 47.2 35.85 48.05 41.5 L48.3 45.2 Q47.35 44.0 45.65 44.45 L44.6 45.2 44.55 12.65 Q45.1 13.75 46.65 13.9 48.4 13.7 48.95 12.35 M48.1 48.55 L47.7 49.65 Q46.8 49.75 46.3 49.2 L48.1 48.55 M35.55 23.9 L35.35 25.1 Q34.65 36.55 35.4 48.0 L35.0 47.8 Q33.2 47.3 32.2 48.6 31.7 47.3 31.7 45.7 31.65 43.75 31.85 41.85 32.7 32.75 32.05 23.7 L32.2 23.85 Q33.9 25.2 35.55 23.9 M20.1 34.85 L23.2 34.9 23.55 48.15 20.8 48.1 20.1 34.85 M9.05 43.7 Q8.8 41.5 10.2 39.95 L11.4 40.05 11.6 40.3 Q12.3 41.75 12.0 43.35 L11.45 43.15 Q10.1 42.75 9.05 43.7 M11.75 47.7 L11.4 52.4 Q10.75 52.65 10.4 52.15 8.85 50.0 9.05 47.25 10.7 48.45 11.75 47.7" fill="#c7abb9" fill-rule="evenodd" stroke="none"/>
      <path d="M40.95 5.25 L40.85 7.15 Q31.5 2.15 21.3 5.15 11.65 8.15 7.05 17.05 1.4 28.1 6.05 39.7 L6.35 41.05 6.5 43.3 Q2.2 37.0 2.0 28.6 2.3 17.35 9.8 9.9 17.25 2.4 28.5 2.1 35.45 2.3 40.95 5.25 M41.0 14.95 L41.95 38.3 39.25 40.75 Q39.05 29.85 39.9 19.05 40.15 15.65 37.2 14.75 33.5 13.75 30.2 15.55 L28.85 16.2 29.3 44.85 27.4 45.1 Q27.1 37.6 27.45 30.1 27.6 26.9 24.6 26.45 L21.6 26.15 Q19.55 26.25 17.8 27.05 L16.8 27.7 17.4 42.55 15.9 41.9 15.3 38.55 14.45 37.8 12.05 37.4 10.7 34.3 Q8.2 28.0 11.6 22.15 16.7 14.25 25.95 12.6 30.25 11.95 35.2 12.55 38.6 13.0 41.0 14.95 M50.85 42.75 Q50.6 40.15 51.5 38.1 53.35 33.65 53.2 28.65 53.15 26.45 52.6 24.4 51.5 20.6 52.05 16.5 54.75 21.85 54.95 28.6 54.75 36.6 50.85 42.75 M38.55 53.05 L38.7 51.3 41.85 49.6 41.95 51.4 38.55 53.05 M25.95 54.9 L26.6 53.3 29.45 53.4 29.55 53.85 Q29.8 54.75 30.85 54.9 L25.95 54.9 M15.15 51.45 L15.1 49.4 17.25 50.65 Q17.2 51.75 17.3 52.6 L15.15 51.45" fill="#e3d7d7" fill-rule="evenodd" stroke="none"/>
    </g>
    <g id="text0" transform="matrix(1.0, 0.0, 0.0, 1.0, -0.4, -6.4)">
      <g transform="matrix(1.0, 0.0, 0.0, 1.0, 0.0, 0.0)">
        <use fill="#ffffff" height="20.2" transform="matrix(0.5469, 0.0, 0.0, 0.5469, 0.0, 24.0)" width="210.1" xlink:href="#font_______W7_T0"/>
        <use fill="#ffffff" height="20.2" transform="matrix(0.5469, 0.0, 0.0, 0.5469, 18.15, 24.0)" width="210.1" xlink:href="#font_______W7_h0"/>
        <use fill="#ffffff" height="20.2" transform="matrix(0.5469, 0.0, 0.0, 0.5469, 34.6, 24.0)" width="210.1" xlink:href="#font_______W7_e0"/>
        <use fill="#ffffff" height="20.2" transform="matrix(0.5469, 0.0, 0.0, 0.5469, 59.6, 24.0)" width="210.1" xlink:href="#font_______W7_B0"/>
        <use fill="#ffffff" height="20.2" transform="matrix(0.5469, 0.0, 0.0, 0.5469, 79.3, 24.0)" width="210.1" xlink:href="#font_______W7_i0"/>
        <use fill="#ffffff" height="20.2" transform="matrix(0.5469, 0.0, 0.0, 0.5469, 89.55, 24.0)" width="210.1" xlink:href="#font_______W7_g0"/>
        <use fill="#ffffff" height="20.2" transform="matrix(0.5469, 0.0, 0.0, 0.5469, 114.4, 24.0)" width="210.1" xlink:href="#font_______W7_C0"/>
        <use fill="#ffffff" height="20.2" transform="matrix(0.5469, 0.0, 0.0, 0.5469, 133.25, 24.0)" width="210.1" xlink:href="#font_______W7_h0"/>
        <use fill="#ffffff" height="20.2" transform="matrix(0.5469, 0.0, 0.0, 0.5469, 149.75, 24.0)" width="210.1" xlink:href="#font_______W7_e0"/>
        <use fill="#ffffff" height="20.2" transform="matrix(0.5469, 0.0, 0.0, 0.5469, 165.4, 24.0)" width="210.1" xlink:href="#font_______W7_e0"/>
        <use fill="#ffffff" height="20.2" transform="matrix(0.5469, 0.0, 0.0, 0.5469, 181.1, 24.0)" width="210.1" xlink:href="#font_______W7_s0"/>
        <use fill="#ffffff" height="20.2" transform="matrix(0.5469, 0.0, 0.0, 0.5469, 195.65, 24.0)" width="210.1" xlink:href="#font_______W7_e0"/>
      </g>
    </g>
    <g id="font_______W7_T0">
      <path d="M30.8 -32.15 L30.8 -32.15 0.75 -29.4 1.85 -24.25 13.45 -24.25 11.0 0.05 21.6 -1.1 18.95 -24.25 32.35 -24.25 30.8 -32.15" fill-rule="evenodd" stroke="none"/>
    </g>
    <g id="font_______W7_h0">
      <path d="M28.1 -7.6 L28.1 -7.6 Q28.1 -13.7 25.7 -17.25 22.9 -21.45 17.05 -21.45 13.35 -21.45 10.45 -19.3 L9.3 -31.55 4.65 -32.15 2.05 0.05 12.1 -1.4 11.0 -12.9 Q13.45 -15.95 16.35 -15.95 20.1 -15.95 20.1 -10.2 20.1 -6.55 17.6 -1.55 L27.6 0.05 28.1 -7.6" fill-rule="evenodd" stroke="none"/>
    </g>
    <g id="font_______W7_e0">
      <path d="M19.45 -9.9 L19.45 -9.9 Q16.75 -7.55 13.6 -7.55 10.45 -7.55 9.15 -9.9 L19.45 -9.9 M9.0 -13.4 L9.0 -13.4 Q9.7 -14.95 11.5 -15.95 13.2 -16.8 15.1 -16.8 18.05 -16.8 19.65 -14.35 L9.0 -13.4 M23.25 -9.9 L23.25 -9.9 24.3 -9.9 26.7 -12.6 Q25.85 -16.7 22.9 -19.1 19.9 -21.45 15.15 -21.45 9.65 -21.45 5.9 -18.65 1.8 -15.6 1.8 -10.4 1.8 -5.35 5.8 -2.5 9.3 0.05 14.6 0.05 22.45 0.05 27.15 -4.25 L23.25 -9.9" fill-rule="evenodd" stroke="none"/>
    </g>
    <g id="font_______W7_B0">
      <path d="M25.75 -11.3 L25.75 -11.3 Q25.75 -8.4 21.9 -8.4 18.5 -8.4 14.4 -12.15 L12.5 -7.75 11.95 -13.45 Q15.45 -15.85 18.95 -15.85 21.25 -15.85 23.3 -14.7 25.75 -13.4 25.75 -11.3 M23.15 -23.7 L23.15 -23.7 Q23.15 -22.05 21.2 -20.35 L19.0 -20.45 Q15.05 -20.45 11.45 -18.65 L10.85 -24.45 Q15.3 -26.5 18.75 -26.5 L21.55 -25.95 Q23.15 -25.2 23.15 -23.7 M33.9 -10.25 L33.9 -10.25 Q33.9 -14.55 29.85 -17.3 32.05 -20.45 32.05 -23.5 32.05 -27.75 28.35 -29.85 25.45 -31.6 20.9 -31.6 14.3 -31.6 10.4 -29.6 L10.2 -31.55 5.3 -32.15 2.55 0.05 13.15 -1.1 13.05 -2.3 Q17.4 -0.6 21.5 -0.6 26.1 -0.6 29.75 -3.05 33.9 -5.85 33.9 -10.25" fill-rule="evenodd" stroke="none"/>
    </g>
    <g id="font_______W7_i0">
      <path d="M11.6 -20.75 L11.6 -20.75 6.75 -21.45 4.45 0.05 14.3 -1.4 11.6 -20.75 M11.9 -31.5 L11.9 -31.5 6.5 -32.15 4.9 -24.95 13.2 -26.1 11.9 -31.5" fill-rule="evenodd" stroke="none"/>
    </g>
    <g id="font_______W7_g0">
      <path d="M21.25 -12.75 L21.25 -12.75 21.05 -10.5 18.9 -14.7 Q15.2 -11.7 11.9 -11.7 10.85 -11.7 10.0 -12.55 9.05 -13.45 9.05 -14.45 9.05 -16.75 13.35 -16.75 15.6 -16.75 18.05 -15.7 20.3 -14.7 21.2 -13.55 L21.25 -12.75 M26.3 -10.4 L26.3 -10.4 Q26.3 -15.45 24.2 -21.5 L20.0 -20.3 20.3 -19.15 Q16.35 -21.45 12.1 -21.45 8.15 -21.45 5.4 -19.3 2.35 -16.95 2.35 -13.2 2.35 -9.45 5.85 -7.35 8.8 -5.6 12.75 -5.6 16.55 -5.6 19.75 -6.9 17.8 -3.95 13.25 -3.95 8.55 -3.95 4.75 -6.35 L1.8 2.9 Q6.7 4.75 11.2 4.75 18.25 4.75 22.25 0.65 26.3 -3.4 26.3 -10.4" fill-rule="evenodd" stroke="none"/>
    </g>
    <g id="font_______W7_C0">
      <path d="M26.2 -15.4 L26.2 -15.4 Q21.6 -8.3 16.1 -8.3 12.35 -8.3 10.4 -10.7 8.6 -12.9 8.6 -16.75 8.6 -21.2 11.05 -23.95 13.55 -26.6 17.95 -26.6 23.65 -26.6 27.3 -22.25 L31.1 -26.05 Q28.65 -28.9 25.1 -30.55 21.55 -32.15 17.8 -32.15 10.8 -32.15 6.45 -27.4 2.05 -22.7 2.05 -15.6 2.05 -8.95 6.35 -4.45 10.7 0.05 17.3 0.05 25.6 0.05 32.65 -7.35 L26.2 -15.4" fill-rule="evenodd" stroke="none"/>
    </g>
    <g id="font_______W7_s0">
      <path d="M25.05 -6.35 L25.05 -6.35 Q25.05 -12.25 15.35 -13.65 8.7 -14.6 8.7 -15.7 8.7 -17.05 12.35 -17.05 17.1 -17.05 22.25 -14.8 L23.8 -18.2 Q19.05 -21.45 12.25 -21.45 8.55 -21.45 6.05 -20.35 2.6 -18.85 2.6 -15.7 2.6 -13.1 4.75 -11.8 6.5 -10.75 10.95 -10.05 L16.3 -8.95 Q17.8 -8.4 17.8 -7.5 17.8 -6.2 15.25 -6.2 12.3 -6.2 9.1 -7.45 5.9 -8.7 3.8 -10.65 L1.0 -2.6 Q6.45 0.05 14.3 0.05 25.05 0.05 25.05 -6.35" fill-rule="evenodd" stroke="none"/>
    </g>
    <g id="text1" transform="matrix(1.0, 0.0, 0.0, 1.0, -1.4, -6.4)">
      <g transform="matrix(1.0, 0.0, 0.0, 1.0, 0.0, 0.0)">
        <use fill="#ffffff" height="20.2" transform="matrix(0.5469, 0.0, 0.0, 0.5469, 0.0, 24.0)" width="81.0" xlink:href="#font_______W7_B0"/>
        <use fill="#ffffff" height="20.2" transform="matrix(0.5469, 0.0, 0.0, 0.5469, 18.65, 24.0)" width="81.0" xlink:href="#font_______W7_i0"/>
        <use fill="#ffffff" height="20.2" transform="matrix(0.5469, 0.0, 0.0, 0.5469, 27.9, 24.0)" width="81.0" xlink:href="#font_______W7_g0"/>
        <use fill="#ffffff" height="20.2" transform="matrix(0.5469, 0.0, 0.0, 0.5469, 42.4, 24.0)" width="81.0" xlink:href="#font_______W7_w0"/>
        <use fill="#ffffff" height="20.2" transform="matrix(0.5469, 0.0, 0.0, 0.5469, 58.75, 24.0)" width="81.0" xlink:href="#font_______W7_i0"/>
        <use fill="#ffffff" height="20.2" transform="matrix(0.5469, 0.0, 0.0, 0.5469, 68.0, 24.0)" width="81.0" xlink:href="#font_______W7_g0"/>
      </g>
    </g>
    <g id="font_______W7_w0">
      <path d="M23.1 -21.4 L23.1 -21.4 20.35 -10.05 16.6 -20.6 13.9 -21.45 9.35 -10.05 4.1 -21.35 0.5 -19.7 8.35 0.05 11.1 -0.5 14.9 -12.4 19.2 0.05 22.05 -0.55 31.2 -17.75 23.1 -21.4" fill-rule="evenodd" stroke="none"/>
    </g>
    <g id="text2" transform="matrix(1.0, 0.0, 0.0, 1.0, -1.4, -6.4)">
      <g transform="matrix(1.0, 0.0, 0.0, 1.0, 0.0, 0.0)">
        <use fill="#ffffff" height="17.7" transform="matrix(0.5469, 0.0, 0.0, 0.5469, 0.0, 24.0)" width="178.0" xlink:href="#font_______W7_R0"/>
        <use fill="#ffffff" height="17.7" transform="matrix(0.5469, 0.0, 0.0, 0.5469, 20.1, 24.0)" width="178.0" xlink:href="#font_______W7_o0"/>
        <use fill="#ffffff" height="17.7" transform="matrix(0.5469, 0.0, 0.0, 0.5469, 35.15, 24.0)" width="178.0" xlink:href="#font_______W7_b0"/>
        <use fill="#ffffff" height="17.7" transform="matrix(0.5469, 0.0, 0.0, 0.5469, 51.55, 24.0)" width="178.0" xlink:href="#font_______W7_b0"/>
        <use fill="#ffffff" height="17.7" transform="matrix(0.5469, 0.0, 0.0, 0.5469, 67.95, 24.0)" width="178.0" xlink:href="#font_______W7_e0"/>
        <use fill="#ffffff" height="17.7" transform="matrix(0.5469, 0.0, 0.0, 0.5469, 83.6, 24.0)" width="178.0" xlink:href="#font_______W7_r0"/>
        <use fill="#ffffff" height="17.7" transform="matrix(0.5469, 0.0, 0.0, 0.5469, 103.4, 24.0)" width="178.0" xlink:href="#font_______W7_B0"/>
        <use fill="#ffffff" height="17.7" transform="matrix(0.5469, 0.0, 0.0, 0.5469, 123.1, 24.0)" width="178.0" xlink:href="#font_______W7_a0"/>
        <use fill="#ffffff" height="17.7" transform="matrix(0.5469, 0.0, 0.0, 0.5469, 139.2, 24.0)" width="178.0" xlink:href="#font_______W7_r0"/>
        <use fill="#ffffff" height="17.7" transform="matrix(0.5469, 0.0, 0.0, 0.5469, 149.6, 24.0)" width="178.0" xlink:href="#font_______W7_o0"/>
        <use fill="#ffffff" height="17.7" transform="matrix(0.5469, 0.0, 0.0, 0.5469, 164.65, 24.0)" width="178.0" xlink:href="#font_______W7_n0"/>
      </g>
    </g>
    <g id="font_______W7_R0">
      <path d="M25.55 -21.75 L25.55 -21.75 Q25.55 -19.95 24.25 -18.8 23.0 -17.7 21.2 -17.7 17.15 -17.7 13.5 -20.8 L11.65 -16.3 10.9 -24.1 Q15.35 -26.5 19.05 -26.5 21.5 -26.5 23.35 -25.35 25.55 -24.05 25.55 -21.75 M28.0 -11.75 L28.0 -11.75 Q32.55 -14.8 32.55 -20.5 32.55 -26.0 28.75 -28.9 25.35 -31.55 19.75 -31.55 15.45 -31.55 10.4 -29.45 L10.2 -31.45 5.3 -32.15 2.55 0.05 13.15 -1.1 12.2 -11.0 Q15.85 -9.4 19.4 -9.4 L21.5 -9.5 26.7 0.2 34.7 -6.1 28.0 -11.75" fill-rule="evenodd" stroke="none"/>
    </g>
    <g id="font_______W7_o0">
      <path d="M15.8 -13.5 L15.8 -13.5 Q16.45 -11.85 16.45 -10.4 16.45 -6.85 12.35 -6.85 10.6 -6.85 9.35 -8.05 8.15 -9.35 8.15 -11.05 8.15 -13.25 9.8 -14.6 11.4 -16.0 13.7 -16.0 16.1 -16.0 18.3 -14.3 L15.8 -13.5 M25.7 -11.4 L25.7 -11.4 Q25.7 -13.8 24.75 -16.35 L21.25 -15.25 22.7 -17.2 Q18.35 -21.45 13.15 -21.45 8.45 -21.45 5.1 -18.2 1.8 -14.95 1.8 -10.3 1.8 -5.5 5.4 -2.65 8.65 0.05 13.65 0.05 18.75 0.05 22.2 -3.2 25.7 -6.4 25.7 -11.4" fill-rule="evenodd" stroke="none"/>
    </g>
    <g id="font_______W7_b0">
      <path d="M20.9 -12.9 L20.9 -12.9 Q20.9 -9.4 17.6 -9.4 15.3 -9.4 13.25 -11.85 L11.45 -8.4 10.95 -14.2 Q13.25 -16.5 16.3 -16.5 17.85 -16.5 19.35 -15.5 20.9 -14.45 20.9 -12.9 M28.25 -10.45 L28.25 -10.45 Q28.25 -15.0 25.1 -18.25 21.9 -21.45 17.35 -21.45 13.75 -21.45 10.5 -19.25 L9.35 -31.5 4.65 -32.15 2.05 0.05 12.15 -0.75 12.15 -2.05 Q14.7 0.05 18.2 0.05 22.6 0.05 25.4 -3.0 28.25 -6.0 28.25 -10.45" fill-rule="evenodd" stroke="none"/>
    </g>
    <g id="font_______W7_r0">
      <path d="M18.3 -20.6 L18.3 -20.6 Q16.55 -21.45 14.75 -21.45 11.5 -21.45 8.7 -18.65 L8.45 -20.75 4.45 -21.45 2.55 0.05 10.65 -1.4 9.3 -12.8 Q10.55 -14.85 12.3 -14.85 13.25 -14.85 14.55 -13.85 L16.55 -12.05 18.3 -20.6" fill-rule="evenodd" stroke="none"/>
    </g>
    <g id="font_______W7_a0">
      <path d="M19.05 -8.85 L19.05 -8.85 18.5 -5.05 17.1 -9.0 Q14.35 -6.2 10.6 -6.2 9.95 -6.2 9.45 -6.75 9.0 -7.2 9.0 -7.85 9.0 -10.2 13.7 -10.2 15.9 -10.2 19.05 -8.85 M27.4 -6.8 L27.4 -6.8 Q27.4 -21.45 13.35 -21.45 7.15 -21.45 2.55 -18.35 L4.3 -14.35 Q8.3 -16.55 13.15 -16.55 17.85 -16.55 18.85 -13.35 15.4 -14.5 12.8 -14.5 8.6 -14.5 5.6 -12.8 1.8 -10.75 1.8 -6.95 1.8 -3.5 4.9 -1.55 7.55 0.05 11.15 0.05 13.95 0.05 17.35 -0.95 L17.0 0.15 26.7 -0.3 Q27.4 -3.45 27.4 -6.8" fill-rule="evenodd" stroke="none"/>
    </g>
    <g id="font_______W7_n0">
      <path d="M27.0 -9.05 L27.0 -9.05 Q27.0 -14.5 24.65 -17.8 21.9 -21.45 16.6 -21.45 12.6 -21.45 9.45 -18.85 L9.2 -20.75 4.35 -21.45 2.05 0.05 11.95 -1.4 10.35 -12.55 Q12.95 -15.85 15.9 -15.85 19.4 -15.85 19.4 -10.6 19.4 -6.9 16.6 -1.3 L26.2 0.0 Q27.0 -6.5 27.0 -9.05" fill-rule="evenodd" stroke="none"/>
    </g>
    <g id="text3" transform="matrix(1.0, 0.0, 0.0, 1.0, -1.4, -6.4)">
      <g transform="matrix(1.0, 0.0, 0.0, 1.0, 0.0, 0.0)">
        <use fill="#ffffff" height="20.2" transform="matrix(0.5469, 0.0, 0.0, 0.5469, 0.0, 24.0)" width="170.15" xlink:href="#font_______W7_M0"/>
        <use fill="#ffffff" height="20.2" transform="matrix(0.5469, 0.0, 0.0, 0.5469, 21.35, 24.0)" width="170.15" xlink:href="#font_______W7_r0"/>
        <use fill="#ffffff" height="20.2" transform="matrix(0.5469, 0.0, 0.0, 0.5469, 30.75, 24.0)" width="170.15" xlink:href="#font_______W7_.0"/>
        <use fill="#ffffff" height="20.2" transform="matrix(0.5469, 0.0, 0.0, 0.5469, 47.2, 24.0)" width="170.15" xlink:href="#font_______W7_H0"/>
        <use fill="#ffffff" height="20.2" transform="matrix(0.5469, 0.0, 0.0, 0.5469, 66.6, 24.0)" width="170.15" xlink:href="#font_______W7_o0"/>
        <use fill="#ffffff" height="20.2" transform="matrix(0.5469, 0.0, 0.0, 0.5469, 80.65, 24.0)" width="170.15" xlink:href="#font_______W7_l0"/>
        <use fill="#ffffff" height="20.2" transform="matrix(0.5469, 0.0, 0.0, 0.5469, 89.9, 24.0)" width="170.15" xlink:href="#font_______W7_l0"/>
        <use fill="#ffffff" height="20.2" transform="matrix(0.5469, 0.0, 0.0, 0.5469, 99.15, 24.0)" width="170.15" xlink:href="#font_______W7_y0"/>
        <use fill="#ffffff" height="20.2" transform="matrix(0.5469, 0.0, 0.0, 0.5469, 112.0, 24.0)" width="170.15" xlink:href="#font_______W7_w0"/>
        <use fill="#ffffff" height="20.2" transform="matrix(0.5469, 0.0, 0.0, 0.5469, 128.35, 24.0)" width="170.15" xlink:href="#font_______W7_o0"/>
        <use fill="#ffffff" height="20.2" transform="matrix(0.5469, 0.0, 0.0, 0.5469, 142.4, 24.0)" width="170.15" xlink:href="#font_______W7_o0"/>
        <use fill="#ffffff" height="20.2" transform="matrix(0.5469, 0.0, 0.0, 0.5469, 156.45, 24.0)" width="170.15" xlink:href="#font_______W7_d0"/>
      </g>
    </g>
    <g id="font_______W7_M0">
      <path d="M35.55 -31.55 L35.55 -31.55 30.8 -32.15 20.2 -14.25 9.85 -31.5 5.1 -32.15 2.55 0.05 12.6 -1.4 10.85 -20.45 18.7 -2.25 22.0 -3.05 29.9 -20.9 28.25 0.05 38.3 -1.4 35.55 -31.55" fill-rule="evenodd" stroke="none"/>
    </g>
    <g id="font_______W7_.0">
      <path d="M11.9 -7.35 L11.9 -7.35 4.9 -8.2 3.1 1.2 13.5 0.0 11.9 -7.35" fill-rule="evenodd" stroke="none"/>
    </g>
    <g id="font_______W7_H0">
      <path d="M31.8 -31.5 L31.8 -31.5 26.95 -32.15 25.95 -21.0 11.4 -18.75 10.2 -31.5 5.3 -32.15 2.55 0.05 13.15 -1.1 11.95 -13.75 25.35 -13.75 24.15 0.05 34.75 -1.1 31.8 -31.5" fill-rule="evenodd" stroke="none"/>
    </g>
    <g id="font_______W7_l0">
      <path d="M11.6 -31.5 L11.6 -31.5 6.9 -32.15 4.35 0.05 14.4 -1.4 11.6 -31.5" fill-rule="evenodd" stroke="none"/>
    </g>
    <g id="font_______W7_y0">
      <path d="M21.2 -21.45 L21.2 -21.45 13.15 -10.8 3.65 -21.45 0.5 -19.75 8.5 -4.7 4.3 0.85 12.5 4.75 24.85 -19.65 21.2 -21.45" fill-rule="evenodd" stroke="none"/>
    </g>
    <g id="font_______W7_d0">
      <path d="M18.35 -8.95 L18.35 -8.95 16.8 -11.9 Q14.75 -9.45 12.45 -9.45 10.9 -9.45 10.0 -10.4 9.1 -11.4 9.1 -12.95 9.1 -14.5 10.7 -15.6 12.15 -16.5 13.7 -16.5 16.6 -16.5 18.8 -14.55 L18.35 -8.95 M24.9 -31.55 L24.9 -31.55 20.15 -32.2 19.15 -19.55 Q16.05 -21.45 12.65 -21.45 8.15 -21.45 4.95 -18.25 1.8 -15.0 1.8 -10.5 1.8 -6.05 4.6 -3.05 7.4 0.05 11.85 0.05 14.65 0.05 17.7 -1.5 L17.6 0.0 27.65 -1.45 24.9 -31.55" fill-rule="evenodd" stroke="none"/>
    </g>
  </defs>
</svg>
