<?xml version="1.0" encoding="UTF-8" standalone="no"?>
<svg xmlns:xlink="http://www.w3.org/1999/xlink" height="31.7px" width="32.2px" xmlns="http://www.w3.org/2000/svg">
  <g transform="matrix(1.0, 0.0, 0.0, 1.0, 0.5, 0.15)">
    <use height="31.7" id="gear" transform="matrix(1.0, 0.0, 0.0, 1.0, -0.5, -0.15)" width="32.2" xlink:href="#sprite0"/>
    <use height="25.2" transform="matrix(1.0, 0.0, 0.0, 1.0, 3.5, 3.75)" width="25.2" xlink:href="#shape1"/>
  </g>
  <defs>
    <g id="sprite0" transform="matrix(1.0, 0.0, 0.0, 1.0, 16.1, 15.85)">
      <use height="31.7" transform="matrix(1.0, 0.0, 0.0, 1.0, -16.1, -15.85)" width="32.2" xlink:href="#shape0"/>
    </g>
    <g id="shape0" transform="matrix(1.0, 0.0, 0.0, 1.0, 16.1, 15.85)">
      <path d="M9.15 -7.5 L12.25 -9.25 14.25 -7.0 11.2 -4.1 11.9 -1.55 16.1 -0.95 15.6 1.45 11.95 2.1 11.35 4.65 14.65 7.05 12.5 9.15 9.65 7.7 7.6 9.85 9.2 13.05 6.95 14.75 3.8 12.0 1.95 12.5 1.45 15.75 -1.65 15.85 -3.05 12.35 -4.5 11.9 -7.1 14.8 -9.1 13.0 -8.25 9.65 -9.65 8.2 -12.55 9.55 -14.45 7.2 -11.85 4.25 -12.3 2.15 -16.1 1.25 -15.85 -1.4 -12.15 -2.3 -11.55 -4.25 -14.2 -7.1 -13.0 -9.1 -9.25 -7.8 -7.75 -9.2 -9.35 -12.3 -7.35 -14.0 -4.25 -11.2 -2.2 -11.7 -1.8 -15.85 1.2 -15.6 2.2 -11.6 3.8 -11.2 6.45 -13.85 8.95 -12.2 7.65 -9.0 9.15 -7.5" fill="#535353" fill-rule="evenodd" stroke="none"/>
    </g>
    <g id="shape1" transform="matrix(1.0, 0.0, 0.0, 1.0, 0.0, 0.0)">
      <path d="M25.2 12.6 Q25.15 16.1 23.5 18.95 21.8 21.8 19.0 23.5 16.15 25.2 12.6 25.2 9.1 25.15 6.25 23.5 3.4 21.8 1.75 19.0 0.05 16.15 0.0 12.6 0.05 9.1 1.7 6.25 3.4 3.4 6.25 1.75 9.1 0.05 12.6 0.0 16.1 0.05 18.95 1.7 21.8 3.4 23.5 6.25 25.15 9.1 25.2 12.6" fill="#0d0d0d" fill-rule="evenodd" stroke="none"/>
      <path d="M23.85 12.0 Q23.8 15.25 22.25 17.9 20.7 20.5 18.05 22.1 15.4 23.65 12.15 23.7 8.9 23.65 6.25 22.1 3.6 20.55 2.05 17.9 0.5 15.25 0.45 12.0 0.5 8.75 2.05 6.1 3.6 3.45 6.25 1.9 8.85 0.35 12.15 0.3 15.4 0.35 18.05 1.9 20.65 3.45 22.25 6.1 23.8 8.7 23.85 12.0" fill="#5e5e5e" fill-rule="evenodd" stroke="none"/>
      <path d="M21.65 12.4 Q21.6 15.0 20.4 17.1 19.15 19.2 17.05 20.45 14.9 21.7 12.3 21.75 9.7 21.7 7.6 20.5 5.5 19.25 4.25 17.15 3.0 15.0 2.95 12.4 3.0 9.8 4.2 7.7 5.45 5.6 7.55 4.35 9.7 3.1 12.3 3.05 14.9 3.1 17.0 4.3 19.1 5.55 20.35 7.65 21.6 9.8 21.65 12.4" fill="#292929" fill-rule="evenodd" stroke="none"/>
      <path d="M20.95 12.3 Q20.9 14.75 19.75 16.75 18.6 18.7 16.6 19.9 14.6 21.05 12.15 21.1 9.7 21.05 7.7 19.9 5.75 18.75 4.55 16.75 3.4 14.75 3.35 12.3 3.4 9.85 4.55 7.85 5.7 5.9 7.7 4.7 9.7 3.55 12.15 3.5 14.6 3.55 16.6 4.7 18.55 5.85 19.75 7.85 20.9 9.85 20.95 12.3" fill="#5e5e5e" fill-rule="evenodd" stroke="none"/>
      <path d="M16.35 12.15 Q16.3 14.0 15.05 15.2 13.85 16.45 12.0 16.5 10.15 16.45 8.95 15.2 7.7 14.0 7.65 12.15 7.7 10.3 8.9 9.1 10.15 7.85 12.0 7.8 13.85 7.85 15.05 9.05 16.3 10.3 16.35 12.15" fill="#ffffff" fill-rule="evenodd" stroke="none"/>
      <path d="M16.75 12.55 Q16.7 14.4 15.45 15.6 14.25 16.85 12.4 16.9 10.55 16.85 9.3 15.6 8.1 14.4 8.05 12.55 8.1 10.7 9.3 9.5 10.55 8.25 12.4 8.2 14.25 8.25 15.45 9.45 16.7 10.7 16.75 12.55" fill="#000000" fill-rule="evenodd" stroke="none"/>
    </g>
  </defs>
</svg>
