<?xml version="1.0" encoding="UTF-8" standalone="no"?>
<svg xmlns:xlink="http://www.w3.org/1999/xlink" height="85.15px" width="546.9px" xmlns="http://www.w3.org/2000/svg">
  <g transform="matrix(1.0, 0.0, 0.0, 1.0, 388.7, 42.6)">
    <use height="85.15" transform="matrix(1.0, 0.0, 0.0, 1.0, -249.4, -42.6)" width="129.0" xlink:href="#sprite0"/>
    <use height="85.15" transform="matrix(1.0, 0.0, 0.0, 1.0, -388.7, -42.6)" width="129.0" xlink:href="#sprite0"/>
  </g>
  <defs>
    <g id="sprite0" transform="matrix(1.0, 0.0, 0.0, 1.0, 64.55, 104.4)">
      <use height="56.75" transform="matrix(1.5, 0.0, 0.0, 1.5, -64.55, -104.4)" width="86.0" xlink:href="#shape0"/>
    </g>
    <g id="shape0" transform="matrix(1.0, 0.0, 0.0, 1.0, 3.0, 3.0)">
      <path d="M44.35 0.5 Q46.85 1.05 48.6 2.2 50.35 3.4 50.8 5.25 54.1 5.95 56.2 7.55 58.3 9.1 59.3 11.85 63.4 10.3 65.55 10.95 67.7 11.6 68.6 14.05 69.5 16.55 69.8 20.45 L70.5 29.35 Q70.65 31.6 71.05 33.4 71.45 35.15 72.95 36.85 74.45 38.55 77.8 40.55 80.3 42.1 79.95 43.55 79.55 44.95 77.45 45.65 75.3 46.3 72.45 45.55 69.65 44.75 67.2 41.95 65.3 39.55 64.65 35.9 64.0 32.25 64.1 27.75 64.2 23.25 64.65 18.4 64.8 16.25 64.3 15.5 63.8 14.75 62.7 14.85 L60.1 15.4 Q60.45 18.3 60.2 22.25 59.9 26.25 59.05 31.5 61.8 31.8 63.2 34.1 64.6 36.35 63.7 39.45 62.8 42.55 58.65 45.45 57.1 47.85 52.55 49.2 47.95 50.55 40.1 50.75 32.25 50.9 27.65 49.75 23.05 48.6 21.4 46.25 18.15 44.25 16.8 41.95 15.5 39.65 15.65 37.6 15.8 35.5 17.1 34.05 18.4 32.6 20.4 32.3 19.35 27.1 18.9 23.15 18.45 19.2 18.65 16.3 L16.0 15.85 Q14.95 15.8 14.45 16.55 14.0 17.35 14.25 19.45 L15.2 28.8 Q15.5 33.25 15.0 36.95 14.5 40.6 12.7 43.1 10.9 45.45 8.7 46.45 6.5 47.45 4.45 47.45 2.45 47.4 1.2 46.65 -0.05 45.85 0.0 44.65 0.1 43.45 2.05 42.15 5.3 40.0 6.75 38.25 8.15 36.5 8.5 34.7 L8.85 30.65 9.2 21.7 Q9.35 17.8 10.1 15.3 10.9 12.8 13.0 12.05 15.15 11.35 19.3 12.7 20.2 9.9 22.2 8.25 24.25 6.6 27.55 5.75 27.9 3.9 29.6 2.65 31.3 1.35 33.8 0.7 L39.05 0.0 44.35 0.5" fill="#ffffff" fill-rule="evenodd" stroke="none"/>
      <path d="M44.35 0.5 L39.05 0.0 33.8 0.7 Q31.3 1.35 29.6 2.65 27.9 3.9 27.55 5.75 24.25 6.6 22.2 8.25 20.2 9.9 19.3 12.7 15.15 11.35 13.0 12.05 10.9 12.8 10.1 15.3 9.35 17.8 9.2 21.7 L8.85 30.65 8.5 34.7 Q8.15 36.5 6.75 38.25 5.3 40.0 2.05 42.15 0.1 43.45 0.0 44.65 -0.05 45.85 1.2 46.65 2.45 47.4 4.45 47.45 6.5 47.45 8.7 46.45 10.9 45.45 12.7 43.1 14.5 40.6 15.0 36.95 15.5 33.25 15.2 28.8 L14.25 19.45 Q14.0 17.35 14.45 16.55 14.95 15.8 16.0 15.85 L18.65 16.3 Q18.45 19.2 18.9 23.15 19.35 27.1 20.4 32.3 18.4 32.6 17.1 34.05 15.8 35.5 15.65 37.6 15.5 39.65 16.8 41.95 18.15 44.25 21.4 46.25 23.05 48.6 27.65 49.75 32.25 50.9 40.1 50.75 47.95 50.55 52.55 49.2 57.1 47.85 58.65 45.45 62.8 42.55 63.7 39.45 64.6 36.35 63.2 34.1 61.8 31.8 59.05 31.5 59.9 26.25 60.2 22.25 60.45 18.3 60.1 15.4 L62.7 14.85 Q63.8 14.75 64.3 15.5 64.8 16.25 64.65 18.4 64.2 23.25 64.1 27.75 64.0 32.25 64.65 35.9 65.3 39.55 67.2 41.95 69.65 44.75 72.45 45.55 75.3 46.3 77.45 45.65 79.55 44.95 79.95 43.55 80.3 42.1 77.8 40.55 74.45 38.55 72.95 36.85 71.45 35.15 71.05 33.4 70.65 31.6 70.5 29.35 L69.8 20.45 Q69.5 16.55 68.6 14.05 67.7 11.6 65.55 10.95 63.4 10.3 59.3 11.85 58.3 9.1 56.2 7.55 54.1 5.95 50.8 5.25 50.35 3.4 48.6 2.2 46.85 1.05 44.35 0.5 Z" fill="none" stroke="#ffffff" stroke-linecap="round" stroke-linejoin="round" stroke-width="6.0"/>
      <path d="M10.9 15.35 Q10.45 16.7 10.6 17.65 10.8 18.95 11.15 18.95 11.55 18.95 11.7 17.15 11.9 15.3 13.25 14.5 14.65 13.75 16.35 14.1 L18.2 13.95 Q18.35 13.45 16.9 13.0 L12.75 13.2 Q11.35 14.05 10.9 15.35 M13.2 12.0 Q15.3 11.4 19.35 12.65 19.85 10.95 20.8 9.75 22.95 6.9 27.55 5.75 27.9 3.9 29.6 2.6 31.3 1.35 33.8 0.7 L39.05 0.0 44.35 0.5 Q46.85 1.05 48.6 2.25 50.35 3.4 50.8 5.25 55.45 6.2 57.75 8.95 58.7 10.15 59.35 11.85 63.25 10.35 65.4 10.9 67.65 11.45 68.55 13.95 69.5 16.4 69.8 20.35 L70.5 29.35 Q70.65 31.6 71.05 33.4 71.5 35.15 73.0 36.85 74.5 38.55 77.85 40.55 80.3 42.1 79.95 43.55 79.6 44.95 77.45 45.6 75.3 46.3 72.45 45.5 69.65 44.75 67.2 41.95 65.3 39.55 64.65 35.9 64.0 32.2 64.1 27.75 L64.65 18.4 Q64.85 16.1 64.25 15.4 63.65 14.7 62.4 14.9 L60.15 15.4 60.3 17.1 Q60.55 22.55 59.05 31.5 61.8 31.85 63.2 34.1 64.6 36.35 63.7 39.45 62.8 42.55 58.65 45.45 57.15 47.85 52.55 49.2 48.0 50.55 40.15 50.75 32.3 50.9 27.65 49.75 23.05 48.6 21.4 46.25 18.15 44.25 16.85 41.95 15.5 39.65 15.65 37.6 15.85 35.5 17.1 34.05 18.4 32.6 20.4 32.3 18.55 23.4 18.6 18.0 L18.7 16.25 16.35 15.85 Q15.1 15.7 14.55 16.45 14.0 17.2 14.25 19.45 L15.2 28.8 Q15.5 33.25 15.0 36.95 14.5 40.6 12.7 43.1 10.9 45.45 8.7 46.45 6.5 47.45 4.45 47.45 2.45 47.4 1.2 46.65 -0.05 45.85 0.0 44.65 0.05 43.45 2.05 42.15 5.3 40.0 6.75 38.25 8.15 36.5 8.5 34.7 L8.85 30.65 9.2 21.6 Q9.35 17.65 10.15 15.15 10.95 12.7 13.2 12.0 M45.9 32.3 L45.95 32.4 47.15 32.6 52.4 33.7 Q53.65 32.7 55.05 32.2 L57.35 31.55 58.35 31.45 Q59.75 22.75 59.25 17.4 58.8 12.0 56.45 9.25 54.1 6.5 49.9 5.75 L48.45 5.3 49.7 5.05 Q48.9 2.8 46.0 1.85 43.1 0.9 39.05 1.0 35.0 1.05 32.15 2.15 29.3 3.2 28.6 5.5 L29.9 5.7 Q29.95 5.85 28.45 6.2 24.3 7.15 22.05 10.0 19.85 12.85 19.6 18.25 19.35 23.65 21.1 32.25 L22.1 32.3 Q23.05 32.4 24.45 32.85 25.8 33.3 27.1 34.25 L32.3 32.9 33.6 32.65 33.6 32.6 33.75 32.1 33.3 32.3 31.5 32.25 Q30.6 31.8 30.0 30.65 29.55 29.6 29.35 28.1 29.15 26.6 29.35 25.15 29.55 23.65 30.2 22.7 31.3 21.3 32.5 21.5 33.65 21.7 34.45 23.15 35.25 24.55 35.25 26.9 L31.6 27.95 35.1 28.6 34.65 30.75 35.55 30.1 Q36.85 29.35 39.1 29.1 41.95 28.9 43.7 29.95 L43.9 30.1 Q45.4 30.95 45.9 32.3 M26.1 22.25 L25.85 22.9 26.2 21.4 26.25 21.25 Q26.85 19.35 28.05 18.6 29.7 17.55 31.45 17.85 33.1 18.2 33.95 19.0 L34.0 19.1 Q34.8 20.1 34.8 20.5 L34.6 20.7 34.15 20.4 Q32.45 18.85 30.75 18.8 29.05 18.7 27.75 19.8 26.7 20.7 26.1 22.25 M44.45 20.45 Q44.2 20.55 44.15 20.3 44.1 19.9 44.9 18.85 L45.05 18.7 Q45.8 17.85 47.4 17.5 49.1 17.1 50.8 18.1 52.05 18.8 52.75 20.65 L52.85 20.95 53.2 22.3 53.0 21.75 Q52.3 20.2 51.15 19.3 49.8 18.25 48.15 18.4 46.45 18.55 44.8 20.15 L44.45 20.45 M31.6 11.5 Q31.05 9.75 30.05 9.3 29.1 8.8 28.2 9.55 27.3 10.25 27.1 12.05 26.9 10.1 27.55 9.2 28.25 8.3 29.2 8.35 30.2 8.4 30.95 9.2 31.7 10.0 31.6 11.5 M50.3 9.1 Q49.4 8.4 48.4 8.9 47.45 9.45 47.0 11.25 46.85 9.75 47.55 8.9 48.25 8.05 49.2 7.95 50.2 7.9 50.9 8.75 51.6 9.6 51.5 11.6 51.2 9.8 50.3 9.1 M62.3 13.1 Q64.0 12.7 65.4 13.4 66.8 14.15 67.1 15.95 67.35 17.75 67.7 17.75 68.1 17.75 68.25 16.4 68.35 15.45 67.85 14.15 67.35 12.85 65.9 12.1 64.45 11.35 61.75 12.05 60.3 12.55 60.45 13.0 L62.3 13.1 M77.15 44.15 Q78.4 44.05 78.7 43.45 79.0 42.9 78.7 42.25 L77.8 41.3 Q76.1 40.45 75.05 39.8 L72.55 37.75 Q72.0 37.25 71.65 37.2 L70.8 37.05 Q70.25 37.0 69.3 36.4 68.3 35.7 67.75 33.95 67.15 32.25 66.9 30.2 L66.65 26.45 Q66.6 24.75 66.7 24.05 66.9 22.3 66.4 22.1 65.85 21.85 65.65 23.25 65.0 29.25 65.8 33.35 66.65 37.4 68.45 39.85 70.2 42.25 72.5 43.3 74.8 44.3 77.15 44.15 M62.9 36.2 L62.8 35.85 Q62.15 33.35 60.3 32.55 L56.35 32.35 Q54.25 32.95 52.8 34.6 L47.1 33.35 46.05 33.2 Q46.1 34.35 45.2 35.4 44.0 36.7 40.9 37.05 37.8 37.3 35.9 36.3 34.05 35.25 33.65 33.7 L33.6 33.45 32.4 33.65 Q29.2 34.3 26.75 35.15 25.2 33.55 23.05 33.05 20.95 32.55 19.15 33.4 17.3 34.3 16.75 36.8 16.45 38.65 16.95 40.2 17.5 41.75 18.5 42.9 L20.6 44.75 20.6 44.7 20.65 44.75 19.95 43.2 19.9 42.9 19.8 42.05 Q19.75 40.45 21.15 39.0 L20.25 38.85 Q19.9 38.65 20.15 38.5 L21.65 38.3 22.95 38.35 22.55 38.65 21.75 39.3 Q21.05 40.45 20.85 42.2 L20.85 43.1 21.05 43.85 21.35 44.65 21.9 45.5 22.1 45.75 22.55 46.2 22.95 46.55 24.1 47.3 26.25 48.2 27.8 48.7 Q32.0 49.85 40.1 49.75 47.75 49.5 51.85 48.15 55.9 46.8 57.4 44.9 L57.65 44.6 58.5 43.1 58.8 41.55 58.8 41.35 58.7 40.35 Q58.45 39.1 57.95 38.55 57.6 38.2 57.1 37.95 56.65 37.75 56.7 37.65 L58.0 37.5 59.55 37.65 Q59.8 37.8 59.4 38.0 L58.55 38.2 Q60.05 39.6 60.05 41.2 60.05 42.85 59.3 43.95 L59.4 43.9 59.35 43.95 61.4 42.0 Q62.35 40.8 62.8 39.25 63.25 37.7 62.85 35.85 L62.9 36.2 M45.15 22.25 Q46.3 20.9 47.45 21.15 48.6 21.35 49.35 22.85 50.1 24.3 50.0 26.65 L46.3 27.5 49.8 28.3 49.2 30.5 Q48.75 31.65 47.85 31.95 L46.05 31.8 Q45.15 31.35 44.6 30.15 44.15 29.1 44.05 27.6 43.9 26.05 44.15 24.6 44.4 23.15 45.15 22.25 M36.65 32.3 L37.0 32.7 37.45 33.0 Q38.35 33.5 39.95 33.4 L41.65 32.9 42.3 32.15 Q42.7 31.2 41.85 30.35 40.95 29.45 39.1 29.55 37.0 29.85 36.55 30.85 36.2 31.6 36.65 32.3 M12.5 31.35 Q12.35 33.45 11.85 35.15 11.35 36.9 10.4 37.65 L8.95 38.4 8.05 38.6 Q7.7 38.65 7.2 39.15 L4.8 41.3 2.1 42.95 Q1.5 43.3 1.25 43.95 0.95 44.6 1.3 45.15 1.65 45.7 2.9 45.75 5.2 45.8 7.45 44.7 9.7 43.55 11.4 41.05 13.1 38.55 13.75 34.45 14.4 30.35 13.5 24.35 13.2 23.0 12.7 23.25 12.2 23.45 12.45 25.25 L12.6 27.6 12.5 31.35" fill="#000823" fill-rule="evenodd" stroke="none"/>
      <path d="M10.9 15.35 Q11.35 14.05 12.75 13.2 L16.9 13.0 Q18.35 13.45 18.2 13.95 L16.35 14.1 Q14.65 13.75 13.25 14.5 11.9 15.3 11.7 17.15 11.55 18.95 11.15 18.95 10.8 18.95 10.6 17.65 10.45 16.7 10.9 15.35 M62.3 13.1 L60.45 13.0 Q60.3 12.55 61.75 12.05 64.45 11.35 65.9 12.1 67.35 12.85 67.85 14.15 68.35 15.45 68.25 16.4 68.1 17.75 67.7 17.75 67.35 17.75 67.1 15.95 66.8 14.15 65.4 13.4 64.0 12.7 62.3 13.1 M77.15 44.15 Q74.8 44.3 72.5 43.3 70.2 42.25 68.45 39.85 66.65 37.4 65.8 33.35 65.0 29.25 65.65 23.25 65.85 21.85 66.4 22.1 66.9 22.3 66.7 24.05 66.6 24.75 66.65 26.45 L66.9 30.2 Q67.15 32.25 67.75 33.95 68.3 35.7 69.3 36.4 70.25 37.0 70.8 37.05 L71.65 37.2 Q72.0 37.25 72.55 37.75 L75.05 39.8 Q76.1 40.45 77.8 41.3 L78.7 42.25 Q79.0 42.9 78.7 43.45 78.4 44.05 77.15 44.15 M36.65 32.3 Q36.2 31.6 36.55 30.85 37.0 29.85 39.1 29.55 40.95 29.45 41.85 30.35 42.7 31.2 42.3 32.15 L41.65 32.9 39.95 33.4 Q38.35 33.5 37.45 33.0 L37.0 32.7 36.65 32.3 M12.5 31.35 L12.6 27.6 12.45 25.25 Q12.2 23.45 12.7 23.25 13.2 23.0 13.5 24.35 14.4 30.35 13.75 34.45 13.1 38.55 11.4 41.05 9.7 43.55 7.45 44.7 5.2 45.8 2.9 45.75 1.65 45.7 1.3 45.15 0.95 44.6 1.25 43.95 1.5 43.3 2.1 42.95 L4.8 41.3 7.2 39.15 Q7.7 38.65 8.05 38.6 L8.95 38.4 10.4 37.65 Q11.35 36.9 11.85 35.15 12.35 33.45 12.5 31.35" fill="#032853" fill-rule="evenodd" stroke="none"/>
      <path d="M33.6 32.6 L33.6 32.65 32.3 32.9 27.1 34.25 Q25.8 33.3 24.45 32.85 23.05 32.4 22.1 32.3 L21.1 32.25 Q19.35 23.65 19.6 18.25 19.85 12.85 22.05 10.0 24.3 7.15 28.45 6.2 29.95 5.85 29.9 5.7 L28.6 5.5 Q29.3 3.2 32.15 2.15 35.0 1.05 39.05 1.0 43.1 0.9 46.0 1.85 48.9 2.8 49.7 5.05 L48.45 5.3 49.9 5.75 Q54.1 6.5 56.45 9.25 58.8 12.0 59.25 17.4 59.75 22.75 58.35 31.45 L57.35 31.55 55.05 32.2 Q53.65 32.7 52.4 33.7 L47.15 32.6 45.95 32.4 45.9 32.3 46.0 32.3 51.05 33.2 Q51.85 31.4 52.45 28.65 53.05 25.95 53.05 23.2 L53.0 21.75 53.2 22.3 52.85 20.95 52.8 20.75 53.1 21.2 Q52.55 18.55 51.1 17.4 49.6 16.25 47.9 16.6 46.25 16.95 45.05 18.7 L44.9 18.85 Q44.1 19.9 44.15 20.3 44.2 20.55 44.45 20.45 44.15 21.3 44.0 22.3 43.55 24.75 43.7 27.4 L43.9 30.1 43.7 29.95 Q41.95 28.9 39.1 29.1 36.85 29.35 35.55 30.1 L35.6 27.55 Q35.6 24.95 35.1 22.5 L34.6 20.7 34.8 20.5 Q34.8 20.1 34.0 19.1 L33.95 19.0 34.05 19.05 Q32.7 17.15 30.95 16.9 29.2 16.6 27.8 17.85 26.35 19.1 25.95 21.75 L26.2 21.3 26.2 21.4 25.85 22.9 26.1 22.25 Q26.0 23.0 26.05 23.8 26.15 26.55 26.9 29.25 27.6 31.9 28.5 33.7 L33.5 32.6 33.6 32.6 M31.6 11.5 Q31.7 10.0 30.95 9.2 30.2 8.4 29.2 8.35 28.25 8.3 27.55 9.2 26.9 10.1 27.1 12.05 27.3 10.25 28.2 9.55 29.1 8.8 30.05 9.3 31.05 9.75 31.6 11.5 M50.3 9.1 Q51.2 9.8 51.5 11.6 51.6 9.6 50.9 8.75 50.2 7.9 49.2 7.95 48.25 8.05 47.55 8.9 46.85 9.75 47.0 11.25 47.45 9.45 48.4 8.9 49.4 8.4 50.3 9.1" fill="#488fc1" fill-rule="evenodd" stroke="none"/>
      <path d="M26.2 21.3 L25.95 21.75 Q26.35 19.1 27.8 17.85 29.2 16.6 30.95 16.9 32.7 17.15 34.05 19.05 L33.95 19.0 Q33.1 18.2 31.45 17.85 29.7 17.55 28.05 18.6 26.85 19.35 26.25 21.25 L26.2 21.3 M45.05 18.7 Q46.25 16.95 47.9 16.6 49.6 16.25 51.1 17.4 52.55 18.55 53.1 21.2 L52.8 20.75 52.75 20.65 Q52.05 18.8 50.8 18.1 49.1 17.1 47.4 17.5 45.8 17.85 45.05 18.7" fill="#0b4f7d" fill-rule="evenodd" stroke="none"/>
      <path d="M33.6 32.6 L33.5 32.6 28.5 33.7 Q27.6 31.9 26.9 29.25 26.15 26.55 26.05 23.8 26.0 23.0 26.1 22.25 26.7 20.7 27.75 19.8 29.05 18.7 30.75 18.8 32.45 18.85 34.15 20.4 L34.6 20.7 35.1 22.5 Q35.6 24.95 35.6 27.55 L35.55 30.1 34.65 30.75 35.1 28.6 31.6 27.95 35.25 26.9 Q35.25 24.55 34.45 23.15 33.65 21.7 32.5 21.5 31.3 21.3 30.2 22.7 29.55 23.65 29.35 25.15 29.15 26.6 29.35 28.1 29.55 29.6 30.0 30.65 30.6 31.8 31.5 32.25 L33.3 32.3 33.75 32.1 33.6 32.6 M26.2 21.4 L26.2 21.3 26.25 21.25 26.2 21.4 M43.9 30.1 L43.7 27.4 Q43.55 24.75 44.0 22.3 44.15 21.3 44.45 20.45 L44.8 20.15 Q46.45 18.55 48.15 18.4 49.8 18.25 51.15 19.3 52.3 20.2 53.0 21.75 L53.05 23.2 Q53.05 25.95 52.45 28.65 51.85 31.4 51.05 33.2 L46.0 32.3 45.9 32.3 Q45.4 30.95 43.9 30.1 M52.8 20.75 L52.85 20.95 52.75 20.65 52.8 20.75 M45.15 22.25 Q44.4 23.15 44.15 24.6 43.9 26.05 44.05 27.6 44.15 29.1 44.6 30.15 45.15 31.35 46.05 31.8 L47.85 31.95 Q48.75 31.65 49.2 30.5 L49.8 28.3 46.3 27.5 50.0 26.65 Q50.1 24.3 49.35 22.85 48.6 21.35 47.45 21.15 46.3 20.9 45.15 22.25" fill="#ffffff" fill-rule="evenodd" stroke="none"/>
      <path d="M20.6 44.7 L20.6 44.75 18.5 42.9 Q17.5 41.75 16.95 40.2 16.45 38.65 16.75 36.8 17.3 34.3 19.15 33.4 20.95 32.55 23.05 33.05 25.2 33.55 26.75 35.15 29.2 34.3 32.4 33.65 L33.6 33.45 33.65 33.7 Q34.05 35.25 35.9 36.3 37.8 37.3 40.9 37.05 44.0 36.7 45.2 35.4 46.1 34.35 46.05 33.2 L47.1 33.35 52.8 34.6 Q54.25 32.95 56.35 32.35 L60.3 32.55 Q62.15 33.35 62.8 35.85 L62.9 36.2 62.75 38.8 Q62.55 40.15 61.9 40.9 61.25 41.7 60.1 41.5 60.0 42.9 59.4 43.9 L59.3 43.95 Q60.05 42.85 60.05 41.2 60.05 39.6 58.55 38.2 L59.4 38.0 Q59.8 37.8 59.55 37.65 L58.0 37.5 56.7 37.65 Q56.65 37.75 57.1 37.95 57.6 38.2 57.95 38.55 58.45 39.1 58.7 40.35 L58.8 41.35 Q58.2 43.2 55.55 44.4 52.85 45.6 48.9 46.2 L40.5 46.8 31.95 46.3 24.9 44.75 Q21.9 43.7 20.85 42.2 21.05 40.45 21.75 39.3 L22.55 38.65 22.95 38.35 21.65 38.3 20.15 38.5 Q19.9 38.65 20.25 38.85 L21.15 39.0 Q19.75 40.45 19.8 42.05 L19.9 42.9 Q19.7 42.15 19.85 41.3 18.55 42.05 17.45 41.3 L18.9 43.3 Q19.65 44.15 20.6 44.7" fill="#f9de65" fill-rule="evenodd" stroke="none"/>
      <path d="M20.6 44.7 Q19.65 44.15 18.9 43.3 L17.45 41.3 Q18.55 42.05 19.85 41.3 19.7 42.15 19.9 42.9 L19.95 43.2 20.65 44.75 20.6 44.7 M20.85 42.2 Q21.9 43.7 24.9 44.75 L31.95 46.3 40.5 46.8 48.9 46.2 Q52.85 45.6 55.55 44.4 58.2 43.2 58.8 41.35 L58.8 41.55 58.5 43.1 57.65 44.6 57.4 44.9 Q55.9 46.8 51.85 48.15 47.75 49.5 40.1 49.75 32.0 49.85 27.8 48.7 L26.25 48.2 24.1 47.3 22.95 46.55 22.55 46.2 22.1 45.75 21.9 45.5 21.35 44.65 21.05 43.85 20.85 43.1 20.85 42.2 M59.4 43.9 Q60.0 42.9 60.1 41.5 61.25 41.7 61.9 40.9 62.55 40.15 62.75 38.8 L62.9 36.2 62.85 35.85 Q63.25 37.7 62.8 39.25 62.35 40.8 61.4 42.0 L59.35 43.95 59.4 43.9" fill="#dda623" fill-rule="evenodd" stroke="none"/>
    </g>
  </defs>
</svg>
