<?xml version="1.0" encoding="UTF-8" standalone="no"?>
<svg xmlns:xlink="http://www.w3.org/1999/xlink" height="159.35px" width="120.05px" xmlns="http://www.w3.org/2000/svg">
  <g transform="matrix(1.0, 0.0, 0.0, 1.0, 77.05, 111.3)">
    <use height="104.8" transform="matrix(0.797, -0.185, 0.185, 0.797, -68.6316, -35.4624)" width="59.05" xlink:href="#shape0"/>
    <use height="83.35" transform="matrix(0.9002, 0.0, 0.0, 0.9002, -77.05, -111.3)" width="133.35" xlink:href="#shape1"/>
  </g>
  <defs>
    <g id="shape0" transform="matrix(1.0, 0.0, 0.0, 1.0, -3.85, 0.0)">
      <path d="M40.65 53.85 L40.9 52.2 40.9 52.15 40.95 52.2 42.2 53.55 Q43.6 55.45 43.75 57.7 L43.75 57.75 Q45.55 59.0 46.85 60.35 L49.25 63.2 Q50.1 64.3 51.45 64.55 L54.15 64.8 54.8 64.8 56.95 65.0 59.75 65.7 Q61.1 66.25 62.05 67.3 63.3 68.85 62.75 71.1 62.05 73.65 60.35 75.25 58.65 76.9 56.45 77.6 54.25 78.4 52.05 78.2 L50.0 77.85 48.75 77.4 47.6 77.1 Q47.1 77.15 46.0 77.9 45.1 78.55 44.5 80.8 L43.3 85.9 42.05 91.2 40.3 96.55 Q39.25 99.15 37.7 101.2 35.9 103.4 33.7 104.35 L29.55 104.45 28.15 103.45 Q27.3 102.65 27.0 100.95 26.6 99.2 27.35 96.25 28.35 92.1 28.45 89.65 L28.25 86.1 25.9 89.4 22.4 93.55 Q18.4 97.75 15.15 97.7 13.35 97.55 12.1 96.2 L11.85 95.75 Q10.85 94.4 11.1 92.8 11.35 91.1 12.35 89.3 13.25 87.45 14.4 85.75 L15.35 84.25 16.7 81.65 17.3 79.8 13.55 81.0 9.05 81.55 Q6.75 81.45 5.35 80.0 L5.2 79.85 Q3.5 77.7 3.95 76.05 4.4 74.65 6.15 73.6 7.85 72.55 10.5 71.45 13.8 69.95 16.05 68.65 L18.9 66.8 Q19.3 63.7 20.3 62.0 21.3 60.3 22.25 59.55 23.15 58.85 23.3 58.85 L23.2 58.85 25.55 57.45 Q25.7 55.95 26.45 54.6 27.5 52.6 29.6 51.3 30.15 50.9 30.8 50.65 L30.6 52.2 30.25 52.35 Q28.5 53.5 27.6 55.15 26.7 56.8 26.8 58.7 26.95 60.5 28.15 62.15 29.35 63.75 31.15 64.55 32.95 65.3 34.95 65.2 37.0 65.05 38.8 64.0 40.55 62.85 41.5 61.2 42.35 59.5 42.25 57.7 42.1 55.8 40.95 54.2 L40.65 53.85 M21.5 62.9 L20.5 66.0 19.85 68.8 19.6 70.0 19.5 68.05 18.4 68.8 15.75 70.45 12.4 72.1 Q10.7 72.75 9.05 73.5 7.35 74.25 6.35 75.2 5.35 76.15 5.6 77.4 6.05 79.25 7.8 79.65 L11.8 79.95 14.8 79.25 17.45 78.15 18.6 77.55 18.9 75.65 Q18.95 78.35 18.55 80.25 L17.65 83.15 17.15 84.15 Q14.7 87.65 13.7 89.95 12.65 92.2 12.85 93.6 12.95 95.0 14.2 95.9 L17.25 95.75 Q19.1 94.7 21.0 92.7 22.9 90.75 24.1 88.75 25.95 85.95 27.25 84.6 L28.6 83.25 Q29.85 85.1 30.0 87.55 30.1 89.95 29.65 92.55 L28.8 97.3 Q28.5 99.45 28.6 100.65 28.7 101.9 29.2 102.45 29.7 102.95 30.5 103.2 31.65 103.55 33.45 102.55 35.25 101.5 37.1 99.15 38.0 97.95 38.85 95.55 L40.45 90.4 41.85 85.0 43.05 80.9 Q43.65 78.85 44.45 77.45 45.2 76.05 46.45 75.65 47.75 75.2 50.05 76.15 52.4 76.95 54.75 76.6 57.15 76.2 58.95 74.7 60.75 73.2 61.3 70.8 61.6 69.0 60.7 68.0 59.7 67.0 58.1 66.55 L54.95 66.1 52.5 65.95 50.75 65.85 Q50.05 65.8 49.25 65.1 48.35 64.35 46.9 62.4 45.35 60.45 43.7 59.25 43.5 60.6 42.85 61.85 41.85 63.85 39.75 65.15 37.6 66.4 35.25 66.55 32.85 66.7 30.7 65.75 28.55 64.8 27.1 62.9 25.7 60.95 25.55 58.75 L25.55 58.4 24.8 59.05 22.8 60.85 Q22.05 61.45 21.5 62.9" fill="#000000" fill-rule="evenodd" stroke="none"/>
      <path d="M30.6 52.2 L30.45 53.2 29.9 57.2 Q30.15 58.85 31.35 60.0 32.55 61.2 34.2 61.65 L37.3 61.4 Q38.75 60.7 39.65 58.6 L40.55 54.55 40.65 53.85 40.95 54.2 Q42.1 55.8 42.25 57.7 42.35 59.5 41.5 61.2 40.55 62.85 38.8 64.0 37.0 65.05 34.95 65.2 32.95 65.3 31.15 64.55 29.35 63.75 28.15 62.15 26.95 60.5 26.8 58.7 26.7 56.8 27.6 55.15 28.5 53.5 30.25 52.35 L30.6 52.2 M21.5 62.9 Q22.05 61.45 22.8 60.85 L24.8 59.05 25.55 58.4 25.55 58.75 Q25.7 60.95 27.1 62.9 28.55 64.8 30.7 65.75 32.85 66.7 35.25 66.55 37.6 66.4 39.75 65.15 41.85 63.85 42.85 61.85 43.5 60.6 43.7 59.25 45.35 60.45 46.9 62.4 48.35 64.35 49.25 65.1 50.05 65.8 50.75 65.85 L52.5 65.95 54.95 66.1 58.1 66.55 Q59.7 67.0 60.7 68.0 61.6 69.0 61.3 70.8 60.75 73.2 58.95 74.7 57.15 76.2 54.75 76.6 52.4 76.95 50.05 76.15 47.75 75.2 46.45 75.65 45.2 76.05 44.45 77.45 43.65 78.85 43.05 80.9 L41.85 85.0 40.45 90.4 38.85 95.55 Q38.0 97.95 37.1 99.15 35.25 101.5 33.45 102.55 31.65 103.55 30.5 103.2 29.7 102.95 29.2 102.45 28.7 101.9 28.6 100.65 28.5 99.45 28.8 97.3 L29.65 92.55 Q30.1 89.95 30.0 87.55 29.85 85.1 28.6 83.25 L27.25 84.6 Q25.95 85.95 24.1 88.75 22.9 90.75 21.0 92.7 19.1 94.7 17.25 95.75 L14.2 95.9 Q12.95 95.0 12.85 93.6 12.65 92.2 13.7 89.95 14.7 87.65 17.15 84.15 L17.65 83.15 18.55 80.25 Q18.95 78.35 18.9 75.65 L18.6 77.55 17.45 78.15 14.8 79.25 11.8 79.95 7.8 79.65 Q6.05 79.25 5.6 77.4 5.35 76.15 6.35 75.2 7.35 74.25 9.05 73.5 10.7 72.75 12.4 72.1 L15.75 70.45 18.4 68.8 19.5 68.05 19.6 70.0 19.85 68.8 20.5 66.0 21.5 62.9" fill="#ffffff" fill-rule="evenodd" stroke="none"/>
      <path d="M50.05 2.85 L50.55 3.1 53.9 5.15 55.15 6.2 54.7 8.15 53.45 13.1 52.9 15.45 51.85 19.55 50.2 26.05 49.95 27.05 Q46.85 29.4 44.15 30.65 L41.6 31.55 Q37.8 32.55 35.0 31.65 L33.2 30.9 Q31.6 30.05 30.45 28.7 28.8 26.7 28.2 24.15 L29.2 20.85 30.8 15.65 31.5 13.5 Q33.25 7.95 35.65 5.15 38.05 2.4 40.7 1.65 L45.9 1.45 Q48.15 1.95 50.05 2.85 M48.1 33.5 Q46.05 37.95 43.2 40.0 L43.05 40.15 Q40.2 42.15 37.1 42.4 L31.6 41.85 31.15 41.7 Q28.35 40.7 26.55 39.15 24.8 37.55 24.65 35.95 L25.45 32.9 25.75 32.0 25.45 32.95 Q27.7 36.55 31.55 38.15 L32.1 38.35 39.8 38.65 Q41.65 38.2 43.4 37.25 45.8 35.9 48.1 33.5" fill="#f7bd1d" fill-rule="evenodd" stroke="none"/>
      <path d="M52.9 15.45 L52.1 20.1 50.95 26.8 50.0 32.05 49.45 34.3 Q47.3 39.2 44.05 41.45 L42.75 42.3 41.95 48.6 41.75 50.25 41.65 50.8 41.45 52.2 41.45 52.25 41.15 54.05 41.0 54.8 40.0 59.3 Q39.05 61.65 37.4 62.4 L34.0 62.65 Q32.2 62.2 30.85 60.85 29.55 59.55 29.25 57.75 L29.85 53.35 30.05 52.2 30.3 50.55 30.95 46.05 31.35 43.35 30.4 43.05 Q27.25 41.95 25.2 40.2 23.15 38.45 22.95 36.75 L23.8 33.45 25.6 27.35 27.7 20.55 29.4 14.95 30.15 12.65 Q31.95 6.7 34.45 3.8 36.9 0.95 39.6 0.3 L44.95 0.45 Q47.55 1.2 49.65 2.6 L50.05 2.85 Q48.15 1.95 45.9 1.45 L40.7 1.65 Q38.05 2.4 35.65 5.15 33.25 7.95 31.5 13.5 L30.8 15.65 29.2 20.85 28.2 24.15 28.15 24.05 26.95 28.05 26.7 28.85 25.75 32.0 25.45 32.9 24.65 35.95 Q24.8 37.55 26.55 39.15 28.35 40.7 31.15 41.7 L31.6 41.85 37.1 42.4 Q40.2 42.15 43.05 40.15 L43.2 40.0 Q46.05 37.95 48.1 33.5 L48.1 33.45 48.15 33.35 48.9 31.35 50.0 27.0 49.95 27.05 50.2 26.05 51.85 19.55 52.9 15.45 M40.7 48.3 L41.35 42.95 Q39.3 43.8 37.2 43.9 L32.45 43.6 32.05 46.3 31.7 48.85 31.55 49.95 31.05 53.3 30.5 57.6 Q30.9 59.95 32.55 60.9 34.2 61.85 36.05 61.25 37.9 60.65 38.85 58.3 L39.85 53.85 40.15 51.95 40.55 49.25 40.7 48.3" fill="#0b0923" fill-rule="evenodd" stroke="none"/>
      <path d="M28.2 24.15 Q28.8 26.7 30.45 28.7 31.6 30.05 33.2 30.9 L35.0 31.65 Q37.8 32.55 41.6 31.55 L44.15 30.65 Q46.85 29.4 49.95 27.05 L50.0 27.0 48.9 31.35 48.15 33.35 48.1 33.45 48.1 33.5 Q45.8 35.9 43.4 37.25 41.65 38.2 39.8 38.65 L32.1 38.35 31.55 38.15 Q27.7 36.55 25.45 32.95 L25.75 32.0 26.7 28.85 26.95 28.05 28.15 24.05 28.2 24.15" fill="#e21f08" fill-rule="evenodd" stroke="none"/>
      <path d="M40.7 48.3 L40.55 49.25 40.15 51.95 39.85 53.85 38.85 58.3 Q37.9 60.65 36.05 61.25 34.2 61.85 32.55 60.9 30.9 59.95 30.5 57.6 L31.05 53.3 31.55 49.95 31.7 48.85 32.05 46.3 32.45 43.6 37.2 43.9 Q39.3 43.8 41.35 42.95 L40.7 48.3" fill="#468fbc" fill-rule="evenodd" stroke="none"/>
    </g>
    <g id="shape1" transform="matrix(1.0, 0.0, 0.0, 1.0, 0.0, 0.0)">
      <path d="M49.4 54.9 L47.45 55.4 Q45.45 53.8 43.35 53.05 41.25 52.3 39.8 52.1 L38.25 51.95 Q35.8 37.85 36.35 29.05 36.85 20.25 40.35 15.65 43.8 11.1 50.2 9.7 52.55 9.15 52.4 8.9 L50.45 8.55 Q51.2 6.0 53.45 4.45 55.75 2.9 59.1 2.2 L66.6 1.5 74.1 2.15 Q77.5 2.85 79.75 4.35 82.05 5.9 82.8 8.4 80.95 8.55 80.85 8.8 80.7 9.0 83.05 9.55 89.45 10.9 92.95 15.45 96.45 20.0 97.05 28.8 97.65 37.6 95.25 51.75 L93.75 51.9 Q92.3 52.1 90.2 52.85 88.1 53.6 86.15 55.25 L84.1 54.7 Q85.05 52.7 85.85 49.95 86.7 47.0 87.1 43.75 87.45 40.8 87.2 38.25 L87.6 39.3 87.0 36.95 87.45 37.7 Q86.75 33.9 84.5 32.15 82.25 30.45 79.6 30.9 76.95 31.35 75.0 34.15 73.8 35.6 73.85 36.2 L74.2 36.45 Q73.75 37.65 73.45 39.05 72.75 42.6 72.85 46.35 72.95 49.85 73.45 52.6 L72.9 52.55 71.8 52.0 Q69.35 50.95 65.9 51.15 62.25 51.45 60.25 52.65 L60.05 52.7 Q60.5 49.9 60.55 46.4 60.6 42.65 59.9 39.1 L59.2 36.5 59.55 36.25 Q59.55 35.7 58.35 34.2 56.4 31.45 53.75 31.0 51.65 30.65 49.8 31.7 48.75 32.2 48.05 33.05 L48.0 33.15 Q46.5 34.85 45.95 37.85 L46.35 37.25 46.3 37.3 46.3 37.35 45.8 39.45 46.2 38.5 Q45.9 41.05 46.3 43.9 46.7 47.15 47.6 50.1 48.4 52.9 49.4 54.9 M50.85 24.0 Q52.6 24.55 53.85 25.8 52.5 23.35 50.5 22.4 48.5 21.5 46.6 22.1 44.65 22.65 43.45 24.65 42.3 26.7 42.55 30.1 42.9 27.2 44.2 25.65 45.5 24.15 47.3 23.8 L50.85 24.0 M83.6 23.85 L87.1 23.65 Q88.9 24.0 90.2 25.5 91.5 27.05 91.85 29.95 92.15 26.55 90.95 24.5 89.8 22.5 87.85 21.95 85.95 21.35 83.95 22.25 81.95 23.2 80.6 25.65 81.8 24.4 83.6 23.85" fill="#468fbc" fill-rule="evenodd" stroke="none"/>
      <path d="M66.55 0.0 Q70.75 0.0 74.6 0.95 78.45 1.9 81.1 3.85 83.75 5.8 84.4 8.85 87.9 9.65 90.5 11.2 L91.65 10.05 Q97.5 6.15 101.0 6.3 104.55 6.45 106.75 9.8 108.9 13.2 110.65 18.95 L114.65 32.2 116.2 36.75 Q117.0 38.8 118.4 40.45 119.8 42.15 122.35 43.65 124.95 45.1 129.25 46.55 132.65 47.75 133.2 49.5 133.75 51.25 132.2 52.85 130.65 54.5 127.65 55.3 L121.05 55.5 Q117.4 54.85 113.8 52.1 110.2 49.1 108.05 43.85 105.85 38.65 104.55 31.9 103.3 25.15 102.35 17.75 101.85 14.3 100.75 13.4 L97.85 13.25 Q96.45 13.8 94.65 14.7 96.55 17.1 97.5 20.5 98.85 25.4 98.5 32.95 98.15 40.5 96.3 51.35 99.4 51.8 101.4 54.05 103.4 56.3 103.75 59.65 104.1 63.05 102.15 66.8 100.15 70.5 95.3 73.85 93.7 76.45 90.05 78.6 86.4 80.7 80.65 82.0 74.85 83.25 66.85 83.35 58.8 83.35 53.05 82.1 47.25 80.85 43.6 78.75 39.95 76.65 38.3 74.1 33.4 70.75 31.45 67.05 29.45 63.35 29.8 59.95 30.1 56.6 32.1 54.3 34.1 52.05 37.2 51.6 35.25 40.75 34.85 33.2 34.45 25.65 35.75 20.75 36.65 17.5 38.4 15.2 L34.75 13.6 Q32.95 12.9 31.85 13.8 30.75 14.7 30.35 18.15 29.55 25.6 28.4 32.35 27.25 39.1 25.2 44.4 23.1 49.7 19.55 52.75 16.0 55.6 12.35 56.3 8.75 57.0 5.75 56.25 2.8 55.45 1.2 53.9 -0.4 52.3 0.15 50.55 0.65 48.75 4.05 47.5 8.3 46.0 10.85 44.45 13.4 42.9 14.75 41.2 16.15 39.5 16.9 37.45 L18.35 32.9 22.05 19.6 Q23.7 13.75 25.8 10.35 27.9 6.9 31.45 6.7 34.95 6.5 40.9 10.25 L42.3 11.65 Q45.0 9.9 48.8 8.95 49.4 5.95 52.05 3.95 54.65 2.0 58.5 1.0 62.35 0.0 66.55 0.0 M84.1 54.7 L86.15 55.25 Q88.1 53.6 90.2 52.85 92.3 52.1 93.75 51.9 L95.25 51.75 Q97.65 37.6 97.05 28.8 96.45 20.0 92.95 15.45 89.45 10.9 83.05 9.55 80.7 9.0 80.85 8.8 80.95 8.55 82.8 8.4 82.05 5.9 79.75 4.35 77.5 2.85 74.1 2.15 L66.6 1.5 59.1 2.2 Q55.75 2.9 53.45 4.45 51.2 6.0 50.45 8.55 L52.4 8.9 Q52.55 9.15 50.2 9.7 43.8 11.1 40.35 15.65 36.85 20.25 36.35 29.05 35.8 37.85 38.25 51.95 L39.8 52.1 Q41.25 52.3 43.35 53.05 45.45 53.8 47.45 55.4 L49.4 54.9 49.5 55.05 51.8 54.65 51.65 54.3 Q51.15 53.1 50.95 51.6 50.7 49.7 51.05 47.85 51.35 45.95 52.45 44.8 54.15 43.05 55.95 43.35 57.7 43.6 58.9 45.4 60.05 47.25 60.0 50.2 L54.4 51.45 59.75 52.35 59.7 52.75 59.6 53.1 59.85 52.9 60.0 52.8 60.05 52.7 60.25 52.65 Q62.25 51.45 65.9 51.15 69.35 50.95 71.8 52.0 L72.9 52.55 73.45 52.6 73.5 52.9 73.8 53.15 73.7 52.65 73.5 51.2 Q73.35 49.3 73.75 47.45 74.2 45.6 75.3 44.5 77.1 42.85 78.9 43.15 80.65 43.5 81.7 45.35 82.8 47.2 82.6 50.2 L76.95 51.2 82.25 52.3 81.65 54.1 81.5 54.5 83.95 54.95 84.1 54.7 M46.2 38.5 L45.8 39.45 46.3 37.35 46.3 37.3 46.35 37.25 Q47.0 35.35 48.1 34.25 49.8 32.6 51.85 32.35 L55.7 32.65 Q57.5 33.25 58.35 34.2 59.55 35.7 59.55 36.25 L59.2 36.5 58.6 36.1 Q55.95 33.8 53.4 33.65 50.8 33.5 48.8 35.05 47.1 36.35 46.2 38.5 M74.2 36.45 L73.85 36.2 Q73.8 35.6 75.0 34.15 75.85 33.2 77.65 32.6 L81.5 32.25 Q83.6 32.5 85.25 34.15 86.3 35.15 87.0 36.9 L87.0 36.95 87.6 39.3 87.2 38.25 Q86.25 36.2 84.6 34.95 82.55 33.4 80.0 33.55 77.4 33.75 74.8 36.05 L74.2 36.45 M37.7 11.55 Q38.45 11.45 38.2 10.85 37.95 10.25 36.6 9.5 33.7 8.05 31.65 8.15 29.6 8.25 28.3 9.3 26.95 10.35 26.3 11.7 25.65 13.05 25.55 14.1 25.35 16.15 25.95 16.25 26.5 16.4 27.4 13.75 28.0 12.0 29.3 11.1 30.6 10.25 32.2 10.2 33.8 10.2 35.4 10.95 36.95 11.65 37.7 11.55 M68.9 52.35 Q67.65 51.75 65.85 51.85 64.4 52.0 63.5 52.4 62.85 52.65 62.45 53.05 61.85 53.65 61.75 54.35 L61.75 55.2 Q62.05 56.35 63.4 57.15 64.75 57.9 67.1 57.75 69.4 57.55 70.3 56.55 71.2 55.6 70.9 54.45 L70.85 54.25 Q70.5 53.25 69.3 52.55 L68.9 52.35 M26.2 23.65 Q25.7 24.35 25.55 26.15 L24.95 29.75 23.45 35.3 Q22.5 38.3 21.1 40.7 19.75 43.1 18.05 43.85 16.45 44.45 15.65 44.45 L14.3 44.4 Q13.75 44.4 12.8 44.95 L9.75 46.7 7.1 47.8 3.85 48.75 Q2.85 49.05 2.2 49.95 1.55 50.8 1.85 51.75 2.15 52.65 4.0 53.2 7.45 54.1 11.2 53.25 14.95 52.4 18.35 49.3 21.75 46.2 24.2 40.3 26.6 34.45 27.45 25.2 27.5 23.8 27.1 23.4 26.7 23.0 26.2 23.65 M102.0 59.25 Q101.35 56.35 99.55 54.95 97.7 53.55 95.35 53.4 93.0 53.3 90.7 54.25 88.4 55.2 86.7 57.05 82.9 55.85 78.0 55.0 L75.3 54.6 75.4 54.8 Q76.6 56.55 76.35 58.4 76.1 60.25 74.15 61.65 72.25 63.05 68.45 63.4 64.65 63.65 62.05 62.6 59.45 61.55 58.25 59.8 57.05 58.05 57.4 56.15 57.55 55.4 58.0 54.75 L55.55 55.1 Q50.65 56.0 46.85 57.2 45.15 55.35 42.85 54.45 40.5 53.5 38.15 53.6 35.8 53.75 34.0 55.2 32.2 56.6 31.55 59.5 31.05 62.3 31.8 64.65 L32.5 66.45 32.45 66.4 Q33.3 68.15 34.6 69.5 L35.25 70.15 37.25 71.75 Q36.55 70.75 36.2 69.35 L36.15 69.15 Q35.9 67.85 36.15 66.45 L36.25 66.0 Q36.7 64.35 38.2 62.9 L36.85 62.65 Q36.3 62.4 36.65 62.15 L39.0 61.9 41.0 62.0 40.35 62.5 Q39.6 62.85 39.15 63.45 38.2 64.9 37.75 67.1 37.3 69.3 38.2 71.75 39.1 74.2 42.1 76.4 45.1 78.55 51.1 79.9 L54.85 80.55 61.05 81.15 66.85 81.3 71.8 81.1 77.55 80.55 82.55 79.6 Q88.45 78.05 91.4 75.65 94.35 73.3 95.15 70.75 96.0 68.2 95.6 66.15 95.2 64.15 94.45 63.25 L93.2 62.35 92.6 61.85 94.6 61.7 96.95 61.95 Q97.3 62.2 96.75 62.45 L95.4 62.7 Q96.9 64.1 97.35 65.75 L97.65 67.8 97.6 67.8 97.15 70.1 97.0 70.45 96.4 71.55 Q98.15 70.4 99.6 68.6 101.1 66.8 101.8 64.4 102.55 62.05 102.0 59.25 M120.4 44.1 Q119.45 43.55 118.9 43.6 L117.55 43.65 115.15 43.1 Q113.4 42.4 112.0 40.05 110.6 37.65 109.55 34.65 108.5 31.7 107.9 29.15 L107.25 25.6 Q107.1 23.75 106.6 23.1 106.1 22.45 105.7 22.85 105.3 23.3 105.4 24.7 106.4 33.85 108.95 39.7 111.5 45.55 114.95 48.6 118.4 51.65 122.2 52.4 L129.35 52.2 Q131.2 51.6 131.5 50.65 131.8 49.75 131.1 48.9 130.45 48.05 129.45 47.75 L126.15 46.8 123.5 45.8 120.4 44.1 M106.25 11.2 Q105.55 9.85 104.2 8.85 102.85 7.8 100.8 7.75 98.75 7.7 95.9 9.2 94.55 10.0 94.3 10.6 94.1 11.2 94.8 11.25 95.55 11.35 97.1 10.6 98.65 9.8 100.3 9.8 101.9 9.8 103.2 10.65 104.55 11.5 105.15 13.3 106.1 15.9 106.7 15.75 107.25 15.6 107.05 13.55 106.9 12.5 106.25 11.2" fill="#0b0923" fill-rule="evenodd" stroke="none"/>
      <path d="M37.7 11.55 Q36.95 11.65 35.4 10.95 33.8 10.2 32.2 10.2 30.6 10.25 29.3 11.1 28.0 12.0 27.4 13.75 26.5 16.4 25.95 16.25 25.35 16.15 25.55 14.1 25.65 13.05 26.3 11.7 26.95 10.35 28.3 9.3 29.6 8.25 31.65 8.15 33.7 8.05 36.6 9.5 37.95 10.25 38.2 10.85 38.45 11.45 37.7 11.55 M26.2 23.65 Q26.7 23.0 27.1 23.4 27.5 23.8 27.45 25.2 26.6 34.45 24.2 40.3 21.75 46.2 18.35 49.3 14.95 52.4 11.2 53.25 7.45 54.1 4.0 53.2 2.15 52.65 1.85 51.75 1.55 50.8 2.2 49.95 2.85 49.05 3.85 48.75 L7.1 47.8 9.75 46.7 12.8 44.95 Q13.75 44.4 14.3 44.4 L15.65 44.45 Q16.45 44.45 18.05 43.85 19.75 43.1 21.1 40.7 22.5 38.3 23.45 35.3 L24.95 29.75 25.55 26.15 Q25.7 24.35 26.2 23.65 M68.9 52.35 L69.3 52.55 Q70.5 53.25 70.85 54.25 L70.9 54.45 Q71.2 55.6 70.3 56.55 69.4 57.55 67.1 57.75 64.75 57.9 63.4 57.15 62.05 56.35 61.75 55.2 L61.75 54.35 Q61.85 53.65 62.45 53.05 62.85 52.65 63.5 52.4 64.4 52.0 65.85 51.85 67.65 51.75 68.9 52.35 M120.4 44.1 L123.5 45.8 126.15 46.8 129.45 47.75 Q130.45 48.05 131.1 48.9 131.8 49.75 131.5 50.65 131.2 51.6 129.35 52.2 L122.2 52.4 Q118.4 51.65 114.95 48.6 111.5 45.55 108.95 39.7 106.4 33.85 105.4 24.7 105.3 23.3 105.7 22.85 106.1 22.45 106.6 23.1 107.1 23.75 107.25 25.6 L107.9 29.15 Q108.5 31.7 109.55 34.65 110.6 37.65 112.0 40.05 113.4 42.4 115.15 43.1 L117.55 43.65 118.9 43.6 Q119.45 43.55 120.4 44.1 M106.25 11.2 Q106.9 12.5 107.05 13.55 107.25 15.6 106.7 15.75 106.1 15.9 105.15 13.3 104.55 11.5 103.2 10.65 101.9 9.8 100.3 9.8 98.65 9.8 97.1 10.6 95.55 11.35 94.8 11.25 94.1 11.2 94.3 10.6 94.55 10.0 95.9 9.2 98.75 7.7 100.8 7.75 102.85 7.8 104.2 8.85 105.55 9.85 106.25 11.2" fill="#0f2953" fill-rule="evenodd" stroke="none"/>
      <path d="M50.85 24.0 L47.3 23.8 Q45.5 24.15 44.2 25.65 42.9 27.2 42.55 30.1 42.3 26.7 43.45 24.65 44.65 22.65 46.6 22.1 48.5 21.5 50.5 22.4 52.5 23.35 53.85 25.8 52.6 24.55 50.85 24.0 M83.6 23.85 Q81.8 24.4 80.6 25.65 81.95 23.2 83.95 22.25 85.95 21.35 87.85 21.95 89.8 22.5 90.95 24.5 92.15 26.55 91.85 29.95 91.5 27.05 90.2 25.5 88.9 24.0 87.1 23.65 L83.6 23.85" fill="#192f54" fill-rule="evenodd" stroke="none"/>
      <path d="M49.4 54.9 Q48.4 52.9 47.6 50.1 46.7 47.15 46.3 43.9 45.9 41.05 46.2 38.5 47.1 36.35 48.8 35.05 50.8 33.5 53.4 33.65 55.95 33.8 58.6 36.1 L59.2 36.5 59.9 39.1 Q60.6 42.65 60.55 46.4 60.5 49.9 60.05 52.7 L60.0 52.8 59.85 52.9 59.6 53.1 59.7 52.75 59.75 52.35 54.4 51.45 60.0 50.2 Q60.05 47.25 58.9 45.4 57.7 43.6 55.95 43.35 54.15 43.05 52.45 44.8 51.35 45.95 51.05 47.85 50.7 49.7 50.95 51.6 51.15 53.1 51.65 54.3 L51.8 54.65 49.5 55.05 49.4 54.9 M48.05 33.05 Q48.75 32.2 49.8 31.7 L48.85 32.3 48.05 33.05 M73.45 52.6 Q72.95 49.85 72.85 46.35 72.75 42.6 73.45 39.05 73.75 37.65 74.2 36.45 L74.8 36.05 Q77.4 33.75 80.0 33.55 82.55 33.4 84.6 34.95 86.25 36.2 87.2 38.25 87.45 40.8 87.1 43.75 86.7 47.0 85.85 49.95 85.05 52.7 84.1 54.7 L83.95 54.95 81.5 54.5 81.65 54.1 82.25 52.3 76.95 51.2 82.6 50.2 Q82.8 47.2 81.7 45.35 80.65 43.5 78.9 43.15 77.1 42.85 75.3 44.5 74.2 45.6 73.75 47.45 73.35 49.3 73.5 51.2 L73.7 52.65 73.8 53.15 73.5 52.9 73.45 52.6" fill="#ffffff" fill-rule="evenodd" stroke="none"/>
      <path d="M46.35 37.25 L45.95 37.85 Q46.5 34.85 48.0 33.15 L48.05 33.05 48.85 32.3 49.8 31.7 Q51.65 30.65 53.75 31.0 56.4 31.45 58.35 34.2 57.5 33.25 55.7 32.65 L51.85 32.35 Q49.8 32.6 48.1 34.25 47.0 35.35 46.35 37.25 M75.0 34.15 Q76.95 31.35 79.6 30.9 82.25 30.45 84.5 32.15 86.75 33.9 87.45 37.7 L87.0 36.95 87.0 36.9 Q86.3 35.15 85.25 34.15 83.6 32.5 81.5 32.25 L77.65 32.6 Q75.85 33.2 75.0 34.15" fill="#18507d" fill-rule="evenodd" stroke="none"/>
      <path d="M32.5 66.45 L31.8 64.65 Q31.05 62.3 31.55 59.5 32.2 56.6 34.0 55.2 35.8 53.75 38.15 53.6 40.5 53.5 42.85 54.45 45.15 55.35 46.85 57.2 50.65 56.0 55.55 55.1 L58.0 54.75 Q57.55 55.4 57.4 56.15 57.05 58.05 58.25 59.8 59.45 61.55 62.05 62.6 64.65 63.65 68.45 63.4 72.25 63.05 74.15 61.65 76.1 60.25 76.35 58.4 76.6 56.55 75.4 54.8 L75.3 54.6 78.0 55.0 Q82.9 55.85 86.7 57.05 88.4 55.2 90.7 54.25 93.0 53.3 95.35 53.4 97.7 53.55 99.55 54.95 101.35 56.35 102.0 59.25 102.1 61.7 101.75 63.75 101.4 65.85 100.4 66.95 99.4 68.1 97.65 67.8 L97.35 65.75 Q96.9 64.1 95.4 62.7 L96.75 62.45 Q97.3 62.2 96.95 61.95 L94.6 61.7 92.6 61.85 93.2 62.35 94.45 63.25 Q95.2 64.15 95.6 66.15 96.0 68.2 95.15 70.75 94.35 73.3 91.4 75.65 88.45 78.05 82.55 79.6 L77.55 80.55 81.35 79.8 Q87.0 78.4 90.1 76.3 93.25 74.15 94.45 71.8 95.7 69.5 95.7 67.55 94.75 70.5 91.5 72.45 88.25 74.4 83.5 75.45 L73.15 76.75 Q67.55 77.0 61.9 76.5 56.25 75.95 51.25 74.8 46.3 73.6 42.7 71.85 39.1 70.05 37.65 67.8 37.4 69.85 38.5 72.15 39.6 74.5 42.7 76.55 45.8 78.65 51.65 79.95 L54.85 80.55 51.1 79.9 Q45.1 78.55 42.1 76.4 39.1 74.2 38.2 71.75 37.3 69.3 37.75 67.1 38.2 64.9 39.15 63.45 39.6 62.85 40.35 62.5 L41.0 62.0 39.0 61.9 36.65 62.15 Q36.3 62.4 36.85 62.65 L38.2 62.9 Q36.7 64.35 36.25 66.0 L36.15 66.45 Q34.1 67.6 32.5 66.45 M51.05 62.0 Q51.05 62.7 51.7 62.8 52.4 62.8 52.5 62.1 52.5 61.45 51.8 61.35 51.15 61.4 51.05 62.0 M48.5 60.8 Q49.1 60.8 49.2 60.15 49.2 59.55 48.55 59.45 47.95 59.45 47.85 60.1 47.85 60.7 48.5 60.8 M54.15 58.75 Q54.15 58.1 53.5 58.0 52.9 58.0 52.8 58.65 52.8 59.25 53.45 59.35 54.05 59.35 54.15 58.75 M79.2 61.5 Q79.6 62.0 80.2 61.65 80.7 61.2 80.35 60.65 79.9 60.15 79.35 60.5 78.85 60.9 79.2 61.5 M79.75 56.95 Q79.3 56.45 78.8 56.8 78.3 57.2 78.65 57.7 79.05 58.2 79.55 57.9 80.05 57.45 79.75 56.95 M83.85 60.85 Q84.35 60.4 84.05 59.9 83.6 59.4 83.1 59.75 82.6 60.15 82.95 60.65 83.35 61.15 83.85 60.85" fill="#f3de65" fill-rule="evenodd" stroke="none"/>
      <path d="M54.15 58.75 Q54.05 59.35 53.45 59.35 52.8 59.25 52.8 58.65 52.9 58.0 53.5 58.0 54.15 58.1 54.15 58.75 M48.5 60.8 Q47.85 60.7 47.85 60.1 47.95 59.45 48.55 59.45 49.2 59.55 49.2 60.15 49.1 60.8 48.5 60.8 M51.05 62.0 Q51.15 61.4 51.8 61.35 52.5 61.45 52.5 62.1 52.4 62.8 51.7 62.8 51.05 62.7 51.05 62.0 M83.85 60.85 Q83.35 61.15 82.95 60.65 82.6 60.15 83.1 59.75 83.6 59.4 84.05 59.9 84.35 60.4 83.85 60.85 M79.75 56.95 Q80.05 57.45 79.55 57.9 79.05 58.2 78.65 57.7 78.3 57.2 78.8 56.8 79.3 56.45 79.75 56.95 M79.2 61.5 Q78.85 60.9 79.35 60.5 79.9 60.15 80.35 60.65 80.7 61.2 80.2 61.65 79.6 62.0 79.2 61.5" fill="#996412" fill-rule="evenodd" stroke="none"/>
      <path d="M32.5 66.45 Q34.1 67.6 36.15 66.45 35.9 67.85 36.15 69.15 L36.2 69.35 Q36.55 70.75 37.25 71.75 L35.25 70.15 34.6 69.5 Q33.3 68.15 32.45 66.4 L32.5 66.45 M54.85 80.55 L51.65 79.95 Q45.8 78.65 42.7 76.55 39.6 74.5 38.5 72.15 37.4 69.85 37.65 67.8 39.1 70.05 42.7 71.85 46.3 73.6 51.25 74.8 56.25 75.95 61.9 76.5 67.55 77.0 73.15 76.75 L83.5 75.45 Q88.25 74.4 91.5 72.45 94.75 70.5 95.7 67.55 95.7 69.5 94.45 71.8 93.25 74.15 90.1 76.3 87.0 78.4 81.35 79.8 L77.55 80.55 71.8 81.1 66.85 81.3 61.05 81.15 54.85 80.55 M97.65 67.8 Q99.4 68.1 100.4 66.95 101.4 65.85 101.75 63.75 102.1 61.7 102.0 59.25 102.55 62.05 101.8 64.4 101.1 66.8 99.6 68.6 98.15 70.4 96.4 71.55 L97.0 70.45 97.15 70.1 97.6 67.8 97.65 67.8" fill="#dda724" fill-rule="evenodd" stroke="none"/>
    </g>
  </defs>
</svg>
