<?xml version="1.0" encoding="UTF-8" standalone="no"?>
<svg xmlns:xlink="http://www.w3.org/1999/xlink" height="468.95px" width="310.1px" xmlns="http://www.w3.org/2000/svg">
  <g transform="matrix(1.0, 0.0, 0.0, 1.0, 153.05, 468.95)">
    <use height="36.0" transform="matrix(1.0, 0.0, 0.0, 1.0, -77.85, -36.0)" width="159.0" xlink:href="#shape0"/>
    <use height="96.65" transform="matrix(1.0, 0.0, 0.0, 1.0, -25.45, -108.0)" width="54.2" xlink:href="#shape1"/>
    <use height="37.0" transform="matrix(1.0, 0.0, 0.0, 1.0, -90.95, -94.35)" width="185.25" xlink:href="#shape2"/>
    <use height="16.45" transform="matrix(1.0, 0.0, 0.0, 1.0, -65.1, -83.3)" width="139.1" xlink:href="#text0"/>
    <use height="213.9" transform="matrix(1.0, 0.0, 0.0, 1.0, -116.9, -314.9)" width="233.75" xlink:href="#shape3"/>
    <use height="245.1" transform="matrix(0.8, 0.0, 0.0, 0.8, -104.8, -297.8)" width="264.55" xlink:href="#shape4"/>
    <use height="57.25" transform="matrix(1.0, 0.0, 0.0, 1.0, -29.4, -185.45)" width="57.1" xlink:href="#shape5"/>
  </g>
  <defs>
    <g id="shape0" transform="matrix(1.0, 0.0, 0.0, 1.0, 0.0, 0.0)">
      <path d="M135.7 30.75 Q113.3 35.8 79.5 36.0 45.7 35.8 23.3 30.75 0.85 25.65 0.0 18.0 0.85 10.35 23.3 5.25 45.7 0.2 79.5 0.0 113.3 0.2 135.7 5.25 158.15 10.35 159.0 18.0 158.15 25.65 135.7 30.75" fill="#000000" fill-opacity="0.39607844" fill-rule="evenodd" stroke="none"/>
    </g>
    <g id="shape1" transform="matrix(1.0, 0.0, 0.0, 1.0, 0.0, 0.0)">
      <path d="M5.85 93.35 Q-0.15 90.4 0.0 90.0 L0.0 0.0 54.2 0.0 54.2 90.0 Q54.15 90.4 46.95 93.35 39.7 96.25 25.65 96.65 11.8 96.25 5.85 93.35" fill="url(#gradient0)" fill-rule="evenodd" stroke="none"/>
    </g>
    <linearGradient gradientTransform="matrix(0.0303, 0.0, 0.0, 0.0303, 25.7, 48.35)" gradientUnits="userSpaceOnUse" id="gradient0" spreadMethod="pad" x1="-819.2" x2="819.2">
      <stop offset="0.0" stop-color="#565656"/>
      <stop offset="0.403921568627451" stop-color="#9a9999"/>
      <stop offset="0.592156862745098" stop-color="#dbdbda"/>
      <stop offset="0.7803921568627451" stop-color="#9b9a9a"/>
      <stop offset="1.0" stop-color="#151213"/>
    </linearGradient>
    <g id="shape2" transform="matrix(1.0, 0.0, 0.0, 1.0, -0.05, 0.0)">
      <path d="M185.25 8.2 L185.3 8.25 185.25 8.25 185.25 8.2 M1.9 5.2 L2.3 2.85 18.75 2.05 59.05 0.7 Q83.4 0.05 109.4 0.3 115.1 0.55 118.85 1.6 122.65 2.7 128.15 3.0 L129.3 1.5 Q130.05 0.2 130.5 0.0 160.7 0.5 181.5 3.85 L183.45 6.1 103.3 3.5 Q60.0 3.6 6.5 5.1 L1.9 5.2 M176.25 8.0 L176.45 8.4 177.65 11.45 178.5 13.65 Q179.3 12.8 179.7 10.9 179.7 9.8 179.25 9.1 L179.9 9.55 Q180.65 10.3 180.7 11.75 179.85 15.7 177.15 15.05 175.8 14.75 175.1 13.85 L176.15 14.2 177.35 14.25 176.45 12.35 174.9 8.8 174.8 8.5 174.95 8.35 Q175.75 7.8 176.25 8.0 M178.25 27.3 L179.85 27.15 Q180.5 27.3 181.25 27.95 183.6 31.2 181.35 32.8 180.2 33.6 179.1 33.5 L180.8 32.15 178.8 31.55 175.1 30.4 175.2 29.1 175.2 29.0 175.25 28.7 175.4 28.75 175.85 28.9 178.95 30.05 181.1 30.85 Q181.0 29.65 179.9 28.15 179.05 27.45 178.25 27.3 M9.35 6.95 L10.7 10.45 11.7 12.9 Q12.6 11.95 13.05 9.85 13.05 8.55 12.5 7.75 13.85 8.35 14.15 10.05 L13.75 12.35 Q12.6 15.1 10.15 14.55 8.75 14.25 8.0 13.4 L7.85 13.2 9.0 13.6 10.35 13.65 9.35 11.4 7.6 7.45 8.75 6.6 9.2 6.55 9.35 6.95 M9.4 25.3 Q11.0 24.35 12.9 25.8 15.0 28.35 14.35 30.1 L13.4 31.3 Q12.2 32.25 10.95 32.25 L12.75 30.6 10.4 30.05 6.2 29.05 6.15 27.55 6.15 27.1 6.35 27.15 6.9 27.35 10.45 28.4 12.95 29.1 Q12.75 27.8 11.35 26.15 10.35 25.35 9.4 25.3" fill="#47525f" fill-rule="evenodd" stroke="none"/>
      <path d="M0.05 36.7 L0.75 22.9 Q1.05 14.95 1.6 7.0 L1.9 5.2 6.5 5.1 3.2 8.3 1.95 36.45 0.05 36.7" fill="#cdcdcd" fill-rule="evenodd" stroke="none"/>
      <path d="M13.75 12.35 L14.15 10.05 26.45 10.0 13.75 12.35 M8.0 13.4 L7.0 13.55 7.2 26.2 6.35 27.15 6.15 27.1 6.15 27.55 Q5.15 29.5 6.75 31.55 8.95 33.2 10.95 32.25 12.2 32.25 13.4 31.3 L14.35 30.1 16.45 30.2 36.65 31.3 56.5 32.6 Q50.4 32.9 38.0 32.9 L15.1 32.75 3.85 32.6 5.25 10.05 6.0 10.05 Q6.15 12.3 7.85 13.2 L8.0 13.4" fill="#848484" fill-rule="evenodd" stroke="none"/>
      <path d="M175.1 13.85 Q175.8 14.75 177.15 15.05 179.85 15.7 180.7 11.75 180.65 10.3 179.9 9.55 L180.85 9.65 179.85 27.15 178.25 27.3 177.7 27.3 177.8 15.2 160.95 13.3 Q144.35 11.4 115.0 6.95 144.55 7.2 162.45 8.35 L174.1 9.15 Q173.65 9.7 173.4 10.6 173.45 12.95 175.1 13.85 M175.3 32.3 L137.05 30.55 175.2 29.0 175.2 29.1 Q174.3 30.55 175.3 32.3" fill="#a09fa0" fill-rule="evenodd" stroke="none"/>
      <path d="M176.45 8.4 L176.25 8.0 176.9 7.95 Q178.55 8.05 179.25 9.1 179.7 9.8 179.7 10.9 179.3 12.8 178.5 13.65 L177.65 11.45 178.05 10.25 Q178.0 8.55 176.45 8.4 M174.8 8.5 L174.9 8.8 Q174.35 9.2 174.15 10.05 174.2 11.9 175.85 12.3 L176.45 12.35 177.35 14.25 176.15 14.2 175.1 13.85 Q173.45 12.95 173.4 10.6 173.65 9.7 174.1 9.15 L174.8 8.5 M177.7 27.3 L178.25 27.3 Q179.05 27.45 179.9 28.15 181.0 29.65 181.1 30.85 L178.95 30.05 178.3 28.9 Q177.0 27.8 175.85 28.9 L175.4 28.75 175.8 28.3 Q176.7 27.35 177.7 27.3 M179.1 33.5 Q177.3 34.2 175.5 32.65 L175.3 32.3 Q174.3 30.55 175.2 29.1 L175.1 30.4 Q175.25 32.1 176.95 32.35 178.0 32.25 178.8 31.55 L180.8 32.15 179.1 33.5 M10.7 10.45 L11.2 9.05 Q11.15 7.15 9.35 6.95 L9.2 6.55 9.9 6.5 Q11.75 6.6 12.5 7.75 13.05 8.55 13.05 9.85 12.6 11.95 11.7 12.9 L10.7 10.45 M7.2 26.2 Q8.2 25.2 9.4 25.3 10.35 25.35 11.35 26.15 12.75 27.8 12.95 29.1 L10.45 28.4 Q9.75 26.65 8.05 26.6 L6.9 27.35 6.35 27.15 7.2 26.2 M6.0 10.05 L5.95 9.55 Q6.6 7.0 8.75 6.6 L7.6 7.45 Q7.0 7.9 6.75 8.85 6.8 10.95 8.7 11.35 L9.35 11.4 10.35 13.65 9.0 13.6 7.85 13.2 Q6.15 12.3 6.0 10.05 M6.15 27.55 L6.2 29.05 Q6.45 30.9 8.2 31.1 9.7 31.2 10.4 30.05 L12.75 30.6 10.95 32.25 Q8.95 33.2 6.75 31.55 5.15 29.5 6.15 27.55" fill="#9c9c9c" fill-rule="evenodd" stroke="none"/>
      <path d="M174.9 8.8 L176.45 12.35 175.85 12.3 Q174.2 11.9 174.15 10.05 174.35 9.2 174.9 8.8 M177.65 11.45 L176.45 8.4 Q178.0 8.55 178.05 10.25 L177.65 11.45 M175.85 28.9 Q177.0 27.8 178.3 28.9 L178.95 30.05 175.85 28.9 M175.1 30.4 L178.8 31.55 Q178.0 32.25 176.95 32.35 175.25 32.1 175.1 30.4 M9.35 6.95 Q11.15 7.15 11.2 9.05 L10.7 10.45 9.35 6.95 M9.35 11.4 L8.7 11.35 Q6.8 10.95 6.75 8.85 7.0 7.9 7.6 7.45 L9.35 11.4 M10.45 28.4 L6.9 27.35 8.05 26.6 Q9.75 26.65 10.45 28.4 M6.2 29.05 L10.4 30.05 Q9.7 31.2 8.2 31.1 6.45 30.9 6.2 29.05" fill="#d5d4d4" fill-rule="evenodd" stroke="none"/>
      <path d="M183.45 6.1 L185.3 6.25 185.25 8.2 185.25 8.25 185.1 13.45 184.65 27.3 184.3 36.25 Q157.35 34.75 133.85 35.55 L89.2 37.0 Q65.15 37.15 43.55 35.85 22.0 34.5 0.05 36.75 L0.05 36.7 1.95 36.45 3.2 8.3 6.5 5.1 Q60.0 3.6 103.3 3.5 L183.45 6.1 M176.25 8.0 Q175.75 7.8 174.95 8.35 L174.8 8.5 174.1 9.15 162.45 8.35 Q144.55 7.2 115.0 6.95 144.35 11.4 160.95 13.3 L177.8 15.2 177.7 27.3 Q176.7 27.35 175.8 28.3 L175.4 28.75 175.25 28.7 175.2 29.0 137.05 30.55 175.3 32.3 175.5 32.65 Q177.3 34.2 179.1 33.5 180.2 33.6 181.35 32.8 183.6 31.2 181.25 27.95 180.5 27.3 179.85 27.15 L180.85 9.65 179.9 9.55 179.25 9.1 Q178.55 8.05 176.9 7.95 L176.25 8.0 M12.5 7.75 Q11.75 6.6 9.9 6.5 L9.2 6.55 8.75 6.6 Q6.6 7.0 5.95 9.55 L6.0 10.05 5.25 10.05 3.85 32.6 15.1 32.75 38.0 32.9 Q50.4 32.9 56.5 32.6 L36.65 31.3 16.45 30.2 14.35 30.1 Q15.0 28.35 12.9 25.8 11.0 24.35 9.4 25.3 8.2 25.2 7.2 26.2 L7.0 13.55 8.0 13.4 Q8.75 14.25 10.15 14.55 12.6 15.1 13.75 12.35 L26.45 10.0 14.15 10.05 Q13.85 8.35 12.5 7.75" fill="url(#gradient1)" fill-rule="evenodd" stroke="none"/>
    </g>
    <linearGradient gradientTransform="matrix(0.1131, 0.0, 0.0, 0.0204, 92.65, 20.25)" gradientUnits="userSpaceOnUse" id="gradient1" spreadMethod="pad" x1="-819.2" x2="819.2">
      <stop offset="0.0" stop-color="#9a9a9a"/>
      <stop offset="1.0" stop-color="#ffffff"/>
    </linearGradient>
    <g id="text0" transform="matrix(1.0, 0.0, 0.0, 1.0, -1.05, -5.65)">
      <g transform="matrix(1.0, 0.0, 0.0, 1.0, 0.0, 0.0)">
        <use fill="#000000" height="16.45" transform="matrix(0.5078, 0.0, 0.0, 0.5078, 0.0, 22.0)" width="139.1" xlink:href="#font_______W7_C0"/>
        <use fill="#000000" height="16.45" transform="matrix(0.5078, 0.0, 0.0, 0.5078, 17.5, 22.0)" width="139.1" xlink:href="#font_______W7_o0"/>
        <use fill="#000000" height="16.45" transform="matrix(0.5078, 0.0, 0.0, 0.5078, 31.45, 22.0)" width="139.1" xlink:href="#font_______W7_l0"/>
        <use fill="#000000" height="16.45" transform="matrix(0.5078, 0.0, 0.0, 0.5078, 41.0, 22.0)" width="139.1" xlink:href="#font_______W7_d0"/>
        <use fill="#000000" height="16.45" transform="matrix(0.5078, 0.0, 0.0, 0.5078, 64.75, 22.0)" width="139.1" xlink:href="#font_______W7_C0"/>
        <use fill="#000000" height="16.45" transform="matrix(0.5078, 0.0, 0.0, 0.5078, 82.25, 22.0)" width="139.1" xlink:href="#font_______W7_a0"/>
        <use fill="#000000" height="16.45" transform="matrix(0.5078, 0.0, 0.0, 0.5078, 97.2, 22.0)" width="139.1" xlink:href="#font_______W7_l0"/>
        <use fill="#000000" height="16.45" transform="matrix(0.5078, 0.0, 0.0, 0.5078, 106.75, 22.0)" width="139.1" xlink:href="#font_______W7_l0"/>
        <use fill="#000000" height="16.45" transform="matrix(0.5078, 0.0, 0.0, 0.5078, 116.3, 22.0)" width="139.1" xlink:href="#font_______W7_e0"/>
        <use fill="#000000" height="16.45" transform="matrix(0.5078, 0.0, 0.0, 0.5078, 130.85, 22.0)" width="139.1" xlink:href="#font_______W7_r0"/>
      </g>
    </g>
    <g id="font_______W7_C0">
      <path d="M26.2 -15.4 L26.2 -15.4 Q21.6 -8.3 16.1 -8.3 12.35 -8.3 10.4 -10.7 8.6 -12.9 8.6 -16.75 8.6 -21.2 11.05 -23.95 13.55 -26.6 17.95 -26.6 23.65 -26.6 27.3 -22.25 L31.1 -26.05 Q28.65 -28.9 25.1 -30.55 21.55 -32.15 17.8 -32.15 10.8 -32.15 6.45 -27.4 2.05 -22.7 2.05 -15.6 2.05 -8.95 6.35 -4.45 10.7 0.05 17.3 0.05 25.6 0.05 32.65 -7.35 L26.2 -15.4" fill-rule="evenodd" stroke="none"/>
    </g>
    <g id="font_______W7_o0">
      <path d="M15.8 -13.5 L15.8 -13.5 Q16.45 -11.85 16.45 -10.4 16.45 -6.85 12.35 -6.85 10.6 -6.85 9.35 -8.05 8.15 -9.35 8.15 -11.05 8.15 -13.25 9.8 -14.6 11.4 -16.0 13.7 -16.0 16.1 -16.0 18.3 -14.3 L15.8 -13.5 M25.7 -11.4 L25.7 -11.4 Q25.7 -13.8 24.75 -16.35 L21.25 -15.25 22.7 -17.2 Q18.35 -21.45 13.15 -21.45 8.45 -21.45 5.1 -18.2 1.8 -14.95 1.8 -10.3 1.8 -5.5 5.4 -2.65 8.65 0.05 13.65 0.05 18.75 0.05 22.2 -3.2 25.7 -6.4 25.7 -11.4" fill-rule="evenodd" stroke="none"/>
    </g>
    <g id="font_______W7_l0">
      <path d="M11.6 -31.5 L11.6 -31.5 6.9 -32.15 4.35 0.05 14.4 -1.4 11.6 -31.5" fill-rule="evenodd" stroke="none"/>
    </g>
    <g id="font_______W7_d0">
      <path d="M18.35 -8.95 L18.35 -8.95 16.8 -11.9 Q14.75 -9.45 12.45 -9.45 10.9 -9.45 10.0 -10.4 9.1 -11.4 9.1 -12.95 9.1 -14.5 10.7 -15.6 12.15 -16.5 13.7 -16.5 16.6 -16.5 18.8 -14.55 L18.35 -8.95 M24.9 -31.55 L24.9 -31.55 20.15 -32.2 19.15 -19.55 Q16.05 -21.45 12.65 -21.45 8.15 -21.45 4.95 -18.25 1.8 -15.0 1.8 -10.5 1.8 -6.05 4.6 -3.05 7.4 0.05 11.85 0.05 14.65 0.05 17.7 -1.5 L17.6 0.0 27.65 -1.45 24.9 -31.55" fill-rule="evenodd" stroke="none"/>
    </g>
    <g id="font_______W7_a0">
      <path d="M19.05 -8.85 L19.05 -8.85 18.5 -5.05 17.1 -9.0 Q14.35 -6.2 10.6 -6.2 9.95 -6.2 9.45 -6.75 9.0 -7.2 9.0 -7.85 9.0 -10.2 13.7 -10.2 15.9 -10.2 19.05 -8.85 M27.4 -6.8 L27.4 -6.8 Q27.4 -21.45 13.35 -21.45 7.15 -21.45 2.55 -18.35 L4.3 -14.35 Q8.3 -16.55 13.15 -16.55 17.85 -16.55 18.85 -13.35 15.4 -14.5 12.8 -14.5 8.6 -14.5 5.6 -12.8 1.8 -10.75 1.8 -6.95 1.8 -3.5 4.9 -1.55 7.55 0.05 11.15 0.05 13.95 0.05 17.35 -0.95 L17.0 0.15 26.7 -0.3 Q27.4 -3.45 27.4 -6.8" fill-rule="evenodd" stroke="none"/>
    </g>
    <g id="font_______W7_e0">
      <path d="M19.45 -9.9 L19.45 -9.9 Q16.75 -7.55 13.6 -7.55 10.45 -7.55 9.15 -9.9 L19.45 -9.9 M9.0 -13.4 L9.0 -13.4 Q9.7 -14.95 11.5 -15.95 13.2 -16.8 15.1 -16.8 18.05 -16.8 19.65 -14.35 L9.0 -13.4 M23.25 -9.9 L23.25 -9.9 24.3 -9.9 26.7 -12.6 Q25.85 -16.7 22.9 -19.1 19.9 -21.45 15.15 -21.45 9.65 -21.45 5.9 -18.65 1.8 -15.6 1.8 -10.4 1.8 -5.35 5.8 -2.5 9.3 0.05 14.6 0.05 22.45 0.05 27.15 -4.25 L23.25 -9.9" fill-rule="evenodd" stroke="none"/>
    </g>
    <g id="font_______W7_r0">
      <path d="M18.3 -20.6 L18.3 -20.6 Q16.55 -21.45 14.75 -21.45 11.5 -21.45 8.7 -18.65 L8.45 -20.75 4.45 -21.45 2.55 0.05 10.65 -1.4 9.3 -12.8 Q10.55 -14.85 12.3 -14.85 13.25 -14.85 14.55 -13.85 L16.55 -12.05 18.3 -20.6" fill-rule="evenodd" stroke="none"/>
    </g>
    <g id="shape3" transform="matrix(1.0, 0.0, 0.0, 1.0, -29.2, -50.75)">
      <path d="M173.75 64.5 L174.65 63.55 174.65 65.2 168.25 71.9 168.25 70.2 173.75 64.5 M177.0 67.55 Q177.55 70.45 175.35 72.35 172.75 74.6 169.75 73.05 L169.75 71.5 Q170.85 72.15 172.2 72.2 176.6 71.8 177.0 67.55 M180.0 51.1 L184.55 50.75 185.95 117.15 218.95 130.1 262.95 184.9 261.25 251.65 247.9 264.65 41.65 264.65 30.15 248.35 29.2 207.45 52.45 151.95 84.25 124.4 100.35 118.6 99.6 61.9 180.0 51.1 M252.85 178.65 L211.4 129.25 181.75 120.65 181.3 115.55 181.25 115.55 180.35 58.05 107.3 63.45 104.9 121.95 86.65 128.4 76.25 139.0 52.25 159.35 33.75 208.4 34.65 251.25 44.45 262.5 62.85 262.5 245.8 262.5 256.55 250.1 254.55 180.95 252.85 178.65 M246.35 191.1 L246.9 191.7 Q247.75 192.45 248.95 192.45 252.05 192.2 252.1 189.1 252.9 192.55 249.8 193.8 L248.5 193.9 Q245.65 192.95 245.85 189.75 245.95 190.5 246.35 191.1 M62.6 159.75 L63.3 159.05 63.3 160.65 56.9 167.4 56.9 165.7 56.95 165.65 62.6 159.75 M65.7 163.05 Q66.1 165.9 64.05 167.85 61.5 170.25 58.4 168.5 L58.4 167.0 Q59.5 167.65 60.9 167.7 65.3 167.25 65.7 163.05 M112.9 119.5 Q113.8 122.45 111.05 124.0 109.35 124.9 107.95 123.55 106.45 122.25 106.65 120.15 106.75 120.9 107.15 121.5 L107.7 122.1 Q108.6 122.85 109.75 122.85 112.8 122.55 112.9 119.5" fill="#47525f" fill-rule="evenodd" stroke="none"/>
      <path d="M175.25 65.7 L176.1 64.85 Q176.7 69.3 172.55 71.1 L169.75 71.5 175.25 65.7 M181.25 115.55 L181.3 115.55 181.75 120.65 211.4 129.25 252.85 178.65 62.85 262.5 44.45 262.5 34.65 251.25 33.75 208.4 52.25 159.35 76.25 139.0 181.25 115.55 M63.3 160.65 L63.3 159.05 62.6 159.75 63.3 159.0 62.95 158.8 Q60.4 157.6 58.1 159.25 56.1 160.65 55.95 163.05 L55.95 164.95 Q55.75 165.55 56.9 167.4 L58.4 168.5 Q61.5 170.25 64.05 167.85 66.1 165.9 65.7 163.05 65.7 161.45 64.75 160.3 65.1 162.15 64.2 163.85 62.25 167.4 58.4 167.0 L63.95 161.2 63.3 160.65 M56.95 165.65 L56.9 165.7 56.9 165.6 56.95 165.65 M57.05 163.5 Q56.75 164.1 56.7 164.65 L56.65 164.6 57.05 163.5" fill="#bab9ba" fill-rule="evenodd" stroke="none"/>
      <path d="M174.35 63.35 Q171.8 62.15 169.5 63.85 167.45 65.2 167.3 67.6 L167.3 69.5 Q167.1 70.05 168.25 71.9 L169.75 73.05 Q172.75 74.6 175.35 72.35 177.55 70.45 177.0 67.55 L177.0 67.35 Q176.95 65.9 176.1 64.85 L175.25 65.7 174.65 65.2 174.65 63.55 173.75 64.5 174.6 63.55 174.35 63.35 M252.85 178.65 L254.55 180.95 256.55 250.1 245.8 262.5 62.85 262.5 252.85 178.65 M76.25 139.0 L86.65 128.4 104.9 121.95 107.3 63.45 180.35 58.05 181.25 115.55 76.25 139.0 M251.5 187.6 L250.5 186.75 247.6 188.1 Q248.75 186.9 250.5 186.7 L248.35 186.5 Q245.85 187.1 245.85 189.75 245.65 192.95 248.5 193.9 L249.8 193.8 Q252.9 192.55 252.1 189.1 L251.5 187.6 M109.85 117.5 L111.3 117.1 109.15 116.9 Q106.65 117.5 106.65 120.15 106.45 122.25 107.95 123.55 109.35 124.9 111.05 124.0 113.8 122.45 112.9 119.5 L112.3 118.0 111.3 117.15 109.85 117.5" fill="#9c9c9c" fill-rule="evenodd" stroke="none"/>
      <path d="M167.3 67.6 Q167.45 65.2 169.5 63.85 171.8 62.15 174.35 63.35 169.65 64.8 168.05 69.3 L167.95 69.8 Q167.35 68.75 167.3 67.6 M247.6 188.1 L246.35 191.1 Q245.95 190.5 245.85 189.75 245.85 187.1 248.35 186.5 L250.5 186.7 Q248.75 186.9 247.6 188.1 M55.95 163.05 Q56.1 160.65 58.1 159.25 60.4 157.6 62.95 158.8 59.45 160.05 57.25 163.15 L57.05 163.5 56.65 164.6 56.6 165.3 Q56.0 164.25 55.95 163.05 M106.65 120.15 Q106.65 117.5 109.15 116.9 L111.3 117.1 109.85 117.5 Q108.9 117.85 108.15 118.75 L107.15 121.5 Q106.75 120.9 106.65 120.15" fill="#e9e9eb" fill-rule="evenodd" stroke="none"/>
      <path d="M174.35 63.35 L174.6 63.55 173.75 64.5 168.25 70.2 167.95 69.8 168.05 69.3 Q169.65 64.8 174.35 63.35 M251.5 187.6 Q251.6 188.8 250.95 189.75 249.4 192.05 246.9 191.7 L246.35 191.1 247.6 188.1 250.5 186.75 251.5 187.6 M62.95 158.8 L63.3 159.0 62.6 159.75 56.95 165.65 56.9 165.6 56.65 165.25 56.7 164.65 Q56.75 164.1 57.05 163.5 L57.25 163.15 Q59.45 160.05 62.95 158.8 M109.85 117.5 L111.3 117.15 112.3 118.0 Q112.45 120.15 110.75 121.3 109.1 122.4 107.7 122.1 L107.15 121.5 108.15 118.75 Q108.9 117.85 109.85 117.5" fill="#d0cfd0" fill-rule="evenodd" stroke="none"/>
      <path d="M176.1 64.85 Q176.95 65.9 177.0 67.35 L177.0 67.55 Q176.6 71.8 172.2 72.2 170.85 72.15 169.75 71.5 L172.55 71.1 Q176.7 69.3 176.1 64.85 M246.9 191.7 Q249.4 192.05 250.95 189.75 251.6 188.8 251.5 187.6 L252.1 189.1 Q252.05 192.2 248.95 192.45 247.75 192.45 246.9 191.7 M58.4 167.0 Q62.25 167.4 64.2 163.85 65.1 162.15 64.75 160.3 65.7 161.45 65.7 163.05 65.3 167.25 60.9 167.7 59.5 167.65 58.4 167.0 M112.3 118.0 L112.9 119.5 Q112.8 122.55 109.75 122.85 108.6 122.85 107.7 122.1 109.1 122.4 110.75 121.3 112.45 120.15 112.3 118.0" fill="#b0aeb3" fill-rule="evenodd" stroke="none"/>
      <path d="M174.65 65.2 L175.25 65.7 169.75 71.5 169.75 73.05 168.25 71.9 174.65 65.2 M63.3 160.65 L63.95 161.2 58.4 167.0 58.4 168.5 56.9 167.4 63.3 160.65" fill="#57565b" fill-rule="evenodd" stroke="none"/>
      <path d="M168.25 71.9 Q167.1 70.05 167.3 69.5 L167.3 67.6 Q167.35 68.75 167.95 69.8 L168.25 70.2 168.25 71.9 M56.9 167.4 Q55.75 165.55 55.95 164.95 L55.95 163.05 Q56.0 164.25 56.6 165.3 L56.65 164.6 56.7 164.65 56.65 165.25 56.9 165.6 56.9 165.7 56.9 167.4" fill="#79818b" fill-rule="evenodd" stroke="none"/>
    </g>
    <g id="shape4" transform="matrix(1.0, 0.0, 0.0, 1.0, 0.0, 0.0)">
      <path d="M137.3 98.45 L139.9 82.6 167.8 73.1 165.2 58.35 Q145.8 51.1 125.25 49.2 L114.05 48.75 Q102.7 49.45 91.95 53.45 L90.85 74.55 116.85 82.3 120.3 97.3 120.95 99.65 122.45 105.25 123.45 108.9 125.9 118.05 126.45 120.05 130.45 135.25 134.1 116.6 134.6 113.75 135.05 111.15 135.55 108.25 136.95 100.5 137.3 98.45 M171.5 75.3 L157.05 105.55 155.8 106.45 153.4 104.15 130.3 140.9 126.25 146.5 125.65 146.6 119.1 155.6 180.5 106.75 Q174.0 104.15 168.95 99.3 L167.5 97.85 167.35 97.65 167.3 97.4 167.4 96.8 168.5 95.95 198.8 92.75 191.8 82.15 171.5 75.3 M202.6 95.05 L173.1 98.5 184.45 106.4 184.0 107.8 114.25 163.25 109.15 241.75 213.4 241.75 212.95 200.5 210.45 182.35 202.5 143.1 191.6 101.75 191.75 100.6 192.85 100.0 194.3 100.45 194.5 101.0 205.4 142.45 213.4 181.85 Q220.1 196.5 223.45 211.95 L261.2 208.25 251.9 149.5 231.6 113.65 207.5 87.4 196.4 83.7 202.8 94.25 202.6 95.05 M209.45 85.1 L233.9 111.75 254.6 148.2 254.8 148.75 264.4 209.4 264.3 210.2 Q264.0 211.0 263.05 211.1 L257.4 211.65 264.2 219.25 264.55 220.1 251.35 237.6 Q250.7 238.45 249.65 238.1 L225.65 229.15 225.55 229.1 Q224.8 228.75 224.65 228.1 L222.7 219.35 Q222.65 219.05 222.75 218.7 L223.0 218.15 225.7 214.75 Q223.05 215.85 222.3 213.95 218.8 204.85 216.2 195.4 215.65 193.4 214.75 191.5 L215.95 200.45 216.4 243.25 215.8 244.55 214.9 244.75 46.9 244.7 46.15 244.5 45.45 243.55 48.15 182.5 37.45 219.05 Q37.25 219.85 36.45 220.25 L35.5 220.25 35.4 230.7 Q34.2 232.6 31.6 233.1 32.75 234.95 32.6 237.15 L32.3 237.8 24.35 244.85 23.2 244.95 17.7 241.95 Q9.25 237.15 1.0 231.8 0.35 231.35 0.65 230.45 L5.1 217.55 0.85 217.1 0.0 215.7 0.45 178.2 0.55 177.65 18.0 134.85 18.25 134.45 59.25 85.15 87.85 74.3 91.7 1.9 Q91.95 0.65 93.2 0.45 L157.25 0.0 Q158.15 0.1 158.3 0.85 L160.6 12.3 160.6 12.55 160.65 12.75 160.65 12.6 170.6 71.95 209.45 85.1 M146.75 24.2 L134.1 26.15 133.7 25.3 131.55 26.35 130.65 25.25 Q138.55 19.0 148.25 16.85 L149.3 17.75 Q142.6 20.55 135.55 24.2 L146.85 22.65 146.75 24.2 M157.65 12.75 L156.0 3.0 94.65 3.45 94.2 11.85 92.4 45.75 93.95 44.85 Q105.55 38.7 118.1 35.05 L117.5 34.45 Q116.1 32.7 116.6 30.45 116.9 29.2 117.75 28.25 L118.1 28.1 119.15 28.45 119.2 28.75 Q118.25 31.15 119.65 33.1 120.2 33.9 121.3 34.1 127.4 35.4 133.25 34.05 L133.55 33.65 133.2 30.7 134.15 30.15 134.85 30.45 135.0 30.75 Q135.7 32.2 135.5 33.85 L135.35 34.65 136.0 35.0 Q151.75 43.4 164.85 55.45 L157.65 12.75 M98.4 17.8 Q111.0 17.35 120.65 26.45 L120.25 27.5 119.85 27.65 Q110.3 20.5 98.8 18.8 L98.4 17.8 M99.15 25.2 L99.5 24.15 Q108.15 22.5 115.6 26.95 L115.05 27.9 Q107.65 25.3 99.9 25.95 L99.15 25.2 M91.6 77.85 L100.65 102.4 112.85 83.6 91.6 77.85 M160.8 54.65 Q148.2 44.0 133.85 35.95 110.7 35.35 92.25 48.2 L92.1 51.25 Q107.9 46.0 124.45 46.9 141.15 48.05 156.9 53.3 L160.8 54.65 M59.5 95.1 L90.35 101.2 91.3 101.75 91.4 103.2 81.7 107.15 125.6 143.25 127.85 140.2 104.3 102.3 100.65 107.15 100.1 107.25 98.85 106.25 88.2 77.4 65.8 85.7 59.5 95.1 M60.85 87.9 L20.75 136.15 3.45 178.55 3.05 214.35 34.8 217.15 Q38.65 200.3 44.0 183.7 48.65 169.2 50.25 153.9 L62.0 101.95 63.2 100.8 63.8 100.85 Q65.1 101.3 64.95 102.6 L53.2 154.5 51.45 175.25 48.5 241.7 106.15 241.75 111.3 162.4 123.85 145.7 77.75 107.75 77.35 106.85 Q77.05 106.0 77.9 105.7 81.05 104.25 84.35 103.05 L55.8 97.1 Q65.0 82.95 60.85 87.9 M151.6 101.45 L142.3 87.4 135.2 127.7 151.6 101.45 M126.7 132.65 L114.4 86.75 106.1 99.55 126.7 132.65 M143.5 83.8 L155.5 101.9 167.7 76.25 143.5 83.8 M31.25 219.85 L8.2 217.85 3.85 230.3 23.7 241.85 29.6 236.4 22.25 227.85 23.1 226.45 29.9 230.6 32.5 229.3 32.65 221.5 31.25 219.85 M254.6 213.05 L229.35 215.0 225.75 219.45 226.95 224.8 231.05 220.95 Q229.6 219.75 230.0 218.0 L231.4 218.3 Q235.85 220.45 235.9 224.3 233.95 225.3 232.9 223.25 L228.8 227.15 249.65 234.9 261.1 219.8 254.6 213.05" fill="#1a1a1a" fill-rule="evenodd" stroke="none"/>
      <path d="M120.3 97.3 L116.85 82.3 90.85 74.55 91.95 53.45 Q102.7 49.45 114.05 48.75 L125.25 49.2 Q145.8 51.1 165.2 58.35 L167.8 73.1 139.9 82.6 137.3 98.45 Q127.1 99.75 121.75 97.8 L120.3 97.3 M136.95 100.5 L135.55 108.25 Q133.05 110.75 129.3 109.65 125.2 108.35 122.45 105.25 L120.95 99.65 121.1 99.7 Q128.7 101.9 136.95 100.5 M135.05 111.15 L134.6 113.75 Q128.85 118.0 125.9 118.05 L123.45 108.9 124.7 109.75 Q129.7 113.3 135.05 111.15 M134.1 116.6 L130.45 135.25 126.45 120.05 Q129.4 119.8 134.1 116.6 M146.75 24.2 L146.85 22.65 135.55 24.2 Q142.6 20.55 149.3 17.75 L148.25 16.85 Q138.55 19.0 130.65 25.25 L131.55 26.35 133.7 25.3 134.1 26.15 146.75 24.2 M94.2 11.85 Q98.85 8.65 104.85 9.65 114.75 11.55 123.2 17.05 134.1 12.0 146.15 10.9 152.2 10.6 157.65 12.75 L164.85 55.45 Q151.75 43.4 136.0 35.0 L135.35 34.65 135.5 33.85 Q135.7 32.2 135.0 30.75 L134.85 30.45 134.15 30.15 133.2 30.7 133.55 33.65 133.25 34.05 Q127.4 35.4 121.3 34.1 120.2 33.9 119.65 33.1 118.25 31.15 119.2 28.75 L119.15 28.45 118.1 28.1 117.75 28.25 Q116.9 29.2 116.6 30.45 116.1 32.7 117.5 34.45 L118.1 35.05 Q105.55 38.7 93.95 44.85 L92.4 45.75 94.2 11.85 M99.15 25.2 L99.9 25.95 Q107.65 25.3 115.05 27.9 L115.6 26.95 Q108.15 22.5 99.5 24.15 L99.15 25.2 M98.4 17.8 L98.8 18.8 Q110.3 20.5 119.85 27.65 L120.25 27.5 120.65 26.45 Q111.0 17.35 98.4 17.8 M160.8 54.65 L156.9 53.3 Q141.15 48.05 124.45 46.9 107.9 46.0 92.1 51.25 L92.25 48.2 Q110.7 35.35 133.85 35.95 148.2 44.0 160.8 54.65 M254.6 213.05 L261.1 219.8 249.65 234.9 228.8 227.15 232.9 223.25 Q233.95 225.3 235.9 224.3 235.85 220.45 231.4 218.3 L230.0 218.0 Q229.6 219.75 231.05 220.95 L226.95 224.8 225.75 219.45 229.35 215.0 254.6 213.05 M31.25 219.85 L32.65 221.5 32.5 229.3 29.9 230.6 23.1 226.45 22.25 227.85 29.6 236.4 23.7 241.85 3.85 230.3 8.2 217.85 31.25 219.85" fill="#b3cee8" fill-rule="evenodd" stroke="none"/>
      <path d="M202.6 95.05 L202.8 94.25 196.4 83.7 207.5 87.4 231.6 113.65 251.9 149.5 261.2 208.25 223.45 211.95 Q220.1 196.5 213.4 181.85 L205.4 142.45 194.5 101.0 194.3 100.45 192.85 100.0 191.75 100.6 191.6 101.75 202.5 143.1 210.45 182.35 212.95 200.5 213.4 241.75 109.15 241.75 114.25 163.25 184.0 107.8 184.45 106.4 173.1 98.5 202.6 95.05 M171.5 75.3 L191.8 82.15 198.8 92.75 168.5 95.95 167.4 96.8 167.3 97.4 167.35 97.65 167.5 97.85 168.95 99.3 Q174.0 104.15 180.5 106.75 L119.1 155.6 125.65 146.6 126.25 146.5 130.3 140.9 153.4 104.15 155.8 106.45 157.05 105.55 171.5 75.3 M60.85 87.9 Q65.0 82.95 55.8 97.1 L84.35 103.05 Q81.05 104.25 77.9 105.7 77.05 106.0 77.35 106.85 L77.75 107.75 123.85 145.7 111.3 162.4 106.15 241.75 48.5 241.7 51.45 175.25 53.2 154.5 64.95 102.6 Q65.1 101.3 63.8 100.85 L63.2 100.8 62.0 101.95 50.25 153.9 Q48.65 169.2 44.0 183.7 38.65 200.3 34.8 217.15 L3.05 214.35 3.45 178.55 20.75 136.15 60.85 87.9 M59.5 95.1 L65.8 85.7 88.2 77.4 98.85 106.25 100.1 107.25 100.65 107.15 104.3 102.3 127.85 140.2 125.6 143.25 81.7 107.15 91.4 103.2 91.3 101.75 90.35 101.2 59.5 95.1" fill="#8d254e" fill-rule="evenodd" stroke="none"/>
      <path d="M94.2 11.85 L94.65 3.45 156.0 3.0 157.65 12.75 Q152.2 10.6 146.15 10.9 134.1 12.0 123.2 17.05 114.75 11.55 104.85 9.65 98.85 8.65 94.2 11.85" fill="#243f8c" fill-rule="evenodd" stroke="none"/>
      <path d="M91.6 77.85 L112.85 83.6 100.65 102.4 91.6 77.85 M151.6 101.45 L135.2 127.7 142.3 87.4 151.6 101.45 M126.7 132.65 L106.1 99.55 114.4 86.75 126.7 132.65 M143.5 83.8 L167.7 76.25 155.5 101.9 143.5 83.8" fill="#ffe1e9" fill-rule="evenodd" stroke="none"/>
      <path d="M120.3 97.3 L121.75 97.8 Q127.1 99.75 137.3 98.45 L136.95 100.5 Q128.7 101.9 121.1 99.7 L120.95 99.65 120.3 97.3 M135.55 108.25 L135.05 111.15 Q129.7 113.3 124.7 109.75 L123.45 108.9 122.45 105.25 Q125.2 108.35 129.3 109.65 133.05 110.75 135.55 108.25 M134.6 113.75 L134.1 116.6 Q129.4 119.8 126.45 120.05 L125.9 118.05 Q128.85 118.0 134.6 113.75" fill="#ff901f" fill-rule="evenodd" stroke="none"/>
    </g>
    <g id="shape5" transform="matrix(1.0, 0.0, 0.0, 1.0, -0.1, 0.0)">
      <path d="M44.15 4.15 Q48.25 3.4 52.05 4.8 L52.4 5.0 52.3 11.35 52.25 12.55 Q56.95 19.4 57.2 28.65 56.95 39.1 50.85 46.55 L50.85 48.45 50.25 54.2 Q46.95 55.8 43.1 54.6 L42.4 54.05 42.25 53.8 Q36.25 57.05 28.6 57.25 20.95 57.05 14.95 53.75 L14.75 54.3 14.4 54.75 8.05 54.95 Q6.45 53.25 6.75 50.75 L6.9 47.7 6.85 47.2 Q3.0 42.7 1.3 37.15 -0.8 29.9 0.85 22.5 2.4 15.75 6.8 10.6 15.0 0.95 27.95 0.05 L28.3 0.05 28.6 0.05 Q37.0 0.25 43.5 4.2 L44.15 4.15 M50.75 10.0 L51.2 5.6 42.35 5.6 Q42.7 27.1 43.4 48.6 43.45 50.9 43.95 52.95 L47.55 53.2 49.45 52.9 Q49.55 33.1 50.45 13.35 L50.75 10.0 M40.95 5.25 Q41.05 4.75 41.2 4.9 L41.4 4.8 Q35.75 1.65 28.6 1.45 17.05 1.75 9.4 9.45 1.7 17.1 1.4 28.65 1.65 37.85 6.6 44.65 L6.5 43.3 6.35 41.05 6.05 39.7 Q1.4 28.1 7.05 17.05 11.65 8.15 21.3 5.15 31.5 2.15 40.85 7.15 L40.95 5.25 M45.1 11.4 L45.35 12.2 47.45 10.1 46.65 9.85 Q45.25 10.0 45.1 11.4 M40.8 9.45 L40.8 8.75 Q35.55 5.45 28.65 5.3 18.7 5.6 12.0 12.3 5.3 19.0 5.05 28.9 5.2 33.9 6.95 38.05 L7.95 37.8 14.45 37.8 15.3 38.55 15.05 47.8 17.35 48.85 17.4 46.3 17.4 42.55 16.8 27.7 17.8 27.05 Q22.25 25.8 26.4 27.25 L26.7 27.55 26.7 51.5 26.7 51.95 29.25 52.05 29.25 51.35 29.25 47.1 29.3 44.85 28.85 16.2 30.2 15.55 38.9 15.85 38.7 49.4 38.7 49.8 41.85 47.95 41.85 47.1 41.95 42.75 41.95 38.3 41.0 14.95 40.85 11.15 40.8 9.45 M44.55 12.65 Q44.5 11.25 45.1 10.1 45.7 8.9 46.6 8.8 47.5 8.7 48.2 9.75 48.9 10.75 48.95 12.35 48.4 13.7 46.65 13.9 45.1 13.75 44.55 12.65 M48.3 45.2 L48.65 46.05 Q49.15 47.55 48.1 48.55 L46.3 49.2 Q44.8 49.15 44.1 47.55 43.75 46.05 44.6 45.2 L45.65 44.45 Q47.35 44.0 48.3 45.2 M46.3 12.95 L46.65 13.0 Q48.75 12.6 48.05 10.7 L46.3 12.95 M50.85 42.75 L50.85 44.4 Q55.35 38.0 55.55 29.2 55.4 21.65 52.1 15.6 L52.05 16.5 Q51.5 20.6 52.6 24.4 53.15 26.45 53.2 28.65 53.35 33.65 51.5 38.1 50.6 40.15 50.85 42.75 M51.15 34.95 Q51.9 31.85 51.85 28.65 L51.65 24.65 51.15 34.95 M44.9 46.45 L44.9 47.25 Q45.45 48.6 46.85 48.1 L47.6 47.8 44.9 46.45 M47.9 46.25 Q47.35 44.95 45.9 45.3 45.55 45.45 45.3 45.7 L47.95 47.0 47.9 46.25 M38.0 18.15 L38.1 16.8 29.9 16.9 31.25 53.15 37.5 53.45 37.55 53.2 Q36.9 35.65 38.0 18.15 M35.4 21.6 L35.0 20.95 32.75 21.0 32.45 21.65 35.4 21.6 M32.05 23.7 Q30.8 22.05 32.1 20.4 L32.25 20.3 Q33.9 18.95 35.6 20.25 L35.8 20.5 Q37.0 22.1 35.7 23.75 L35.55 23.9 Q33.9 25.2 32.2 23.85 L32.05 23.7 M35.4 48.0 Q37.9 50.5 35.05 52.15 L32.75 52.05 Q31.1 50.6 32.2 48.6 33.2 47.3 35.0 47.8 L35.4 48.0 M32.4 22.2 L32.8 22.85 35.05 22.8 35.35 22.15 32.4 22.2 M20.1 34.85 Q19.2 34.05 19.3 32.95 19.55 30.6 21.75 30.6 23.45 30.5 23.95 32.0 24.55 33.8 23.2 34.9 L20.1 34.85 M23.55 48.15 Q24.4 48.75 24.5 49.6 24.85 52.4 22.1 52.65 21.25 52.3 20.65 51.7 18.85 49.95 20.8 48.1 L23.55 48.15 M9.4 44.7 L9.2 45.45 Q9.35 46.9 10.75 47.05 L11.55 46.85 9.4 44.7 M9.05 47.25 L8.8 46.95 Q7.8 45.3 9.05 43.7 10.1 42.75 11.45 43.15 L12.0 43.35 Q13.1 43.95 13.25 45.45 13.05 47.15 11.75 47.7 10.7 48.45 9.05 47.25 M12.35 45.45 Q12.2 44.05 10.75 43.9 L10.0 44.1 12.15 46.25 12.35 45.45 M14.2 38.7 L7.45 38.8 8.6 53.65 Q9.45 54.1 10.5 54.05 L14.1 53.7 14.2 38.7 M21.65 31.4 L20.9 31.6 23.05 33.75 23.25 32.95 Q23.1 31.55 21.65 31.4 M22.45 34.35 L20.3 32.2 20.1 32.95 Q20.35 34.35 21.65 34.55 L22.45 34.35 M22.15 48.6 Q21.45 48.65 21.1 49.0 20.65 49.4 20.55 50.15 L20.75 50.9 22.85 48.8 22.15 48.6 M35.3 49.15 L33.1 49.1 32.65 49.55 32.6 50.35 35.3 49.15 M25.55 28.05 L17.9 28.15 19.3 53.15 24.75 53.25 25.55 28.05 M41.95 51.4 L41.85 49.6 38.7 51.3 38.55 53.05 38.35 54.05 42.0 52.4 41.95 51.4 M25.95 54.9 L23.3 55.25 Q28.6 56.35 33.95 55.25 L30.85 54.9 Q29.8 54.75 29.55 53.85 L29.45 53.4 26.6 53.3 25.95 54.9 M33.2 51.4 L34.55 51.7 35.7 49.95 33.2 51.4 M21.35 51.55 L22.1 51.75 Q23.9 51.55 23.6 49.7 L21.35 51.55 M15.15 51.45 L15.15 52.25 17.45 53.45 17.3 52.6 Q17.2 51.75 17.25 50.65 L15.1 49.4 15.15 51.45" fill="#5d0035" fill-rule="evenodd" stroke="none"/>
      <path d="M50.75 10.0 L50.45 13.35 Q49.55 33.1 49.45 52.9 L47.55 53.2 43.95 52.95 Q43.45 50.9 43.4 48.6 42.7 27.1 42.35 5.6 L51.2 5.6 50.75 10.0 M48.95 12.35 Q48.9 10.75 48.2 9.75 47.5 8.7 46.6 8.8 45.7 8.9 45.1 10.1 44.5 11.25 44.55 12.65 L44.6 45.2 Q43.75 46.05 44.1 47.55 44.8 49.15 46.3 49.2 46.8 49.75 47.7 49.65 L48.1 48.55 Q49.15 47.55 48.65 46.05 L48.3 45.2 48.05 41.5 Q47.2 35.85 47.35 30.15 47.65 21.15 48.95 12.35 M38.0 18.15 Q36.9 35.65 37.55 53.2 L37.5 53.45 31.25 53.15 29.9 16.9 38.1 16.8 38.0 18.15 M35.55 23.9 L35.7 23.75 Q37.0 22.1 35.8 20.5 L35.6 20.25 Q33.9 18.95 32.25 20.3 L32.1 20.4 Q30.8 22.05 32.05 23.7 32.7 32.75 31.85 41.85 31.65 43.75 31.7 45.7 31.7 47.3 32.2 48.6 31.1 50.6 32.75 52.05 L35.05 52.15 Q37.9 50.5 35.4 48.0 34.65 36.55 35.35 25.1 L35.55 23.9 M23.2 34.9 Q24.55 33.8 23.95 32.0 23.45 30.5 21.75 30.6 19.55 30.6 19.3 32.95 19.2 34.05 20.1 34.85 L20.8 48.1 Q18.85 49.95 20.65 51.7 21.25 52.3 22.1 52.65 24.85 52.4 24.5 49.6 24.4 48.75 23.55 48.15 L23.2 34.9 M9.05 43.7 Q7.8 45.3 8.8 46.95 L9.05 47.25 Q8.85 50.0 10.4 52.15 10.75 52.65 11.4 52.4 L11.75 47.7 Q13.05 47.15 13.25 45.45 13.1 43.95 12.0 43.35 12.3 41.75 11.6 40.3 L11.4 40.05 10.2 39.95 Q8.8 41.5 9.05 43.7 M14.2 38.7 L14.1 53.7 10.5 54.05 Q9.45 54.1 8.6 53.65 L7.45 38.8 14.2 38.7 M25.55 28.05 L24.75 53.25 19.3 53.15 17.9 28.15 25.55 28.05" fill="#e3c1d7" fill-rule="evenodd" stroke="none"/>
      <path d="M6.5 43.3 L6.6 44.65 Q1.65 37.85 1.4 28.65 1.7 17.1 9.4 9.45 17.05 1.75 28.6 1.45 35.75 1.65 41.4 4.8 L41.2 4.9 Q41.05 4.75 40.95 5.25 35.45 2.3 28.5 2.1 17.25 2.4 9.8 9.9 2.3 17.35 2.0 28.6 2.2 37.0 6.5 43.3 M40.85 11.15 L41.0 14.95 Q38.6 13.0 35.2 12.55 30.25 11.95 25.95 12.6 16.7 14.25 11.6 22.15 8.2 28.0 10.7 34.3 L12.05 37.4 9.6 37.55 Q7.6 32.95 7.75 27.7 7.85 22.9 10.4 19.05 15.75 11.05 25.25 9.1 33.55 7.45 40.85 11.15 M41.95 38.3 L41.95 42.75 39.4 43.95 Q39.25 42.35 39.25 40.75 L41.95 38.3 M29.3 44.85 L29.25 47.1 27.4 47.55 27.4 45.1 29.3 44.85 M17.4 42.55 L17.4 46.3 16.15 45.55 15.9 41.9 17.4 42.55 M52.05 16.5 L52.1 15.6 Q55.4 21.65 55.55 29.2 55.35 38.0 50.85 44.4 L50.85 42.75 Q54.75 36.6 54.95 28.6 54.75 21.85 52.05 16.5 M41.95 51.4 L42.0 52.4 38.35 54.05 38.55 53.05 41.95 51.4 M30.85 54.9 L33.95 55.25 Q28.6 56.35 23.3 55.25 L25.95 54.9 30.85 54.9 M17.3 52.6 L17.45 53.45 15.15 52.25 15.15 51.45 17.3 52.6" fill="#d2c0c0" fill-rule="evenodd" stroke="none"/>
      <path d="M44.15 4.15 L43.5 4.2 Q37.0 0.25 28.6 0.05 L29.2 0.0 Q37.65 0.2 44.15 4.15 M1.3 37.15 Q3.0 42.7 6.85 47.2 L6.9 47.7 Q2.95 43.0 1.3 37.15" fill="#8d3f6d" fill-rule="evenodd" stroke="none"/>
      <path d="M40.8 9.45 L40.85 11.15 Q33.55 7.45 25.25 9.1 15.75 11.05 10.4 19.05 7.85 22.9 7.75 27.7 7.6 32.95 9.6 37.55 L12.05 37.4 14.45 37.8 7.95 37.8 Q3.5 25.3 11.45 14.7 17.0 7.25 26.3 6.1 34.15 5.3 40.8 9.45 M41.95 42.75 L41.85 47.1 39.25 48.7 38.7 49.4 38.9 15.85 30.2 15.55 Q33.5 13.75 37.2 14.75 40.15 15.65 39.9 19.05 39.05 29.85 39.25 40.75 39.25 42.35 39.4 43.95 L41.95 42.75 M29.25 47.1 L29.25 51.35 26.7 51.5 26.7 27.55 26.4 27.25 Q22.25 25.8 17.8 27.05 19.55 26.25 21.6 26.15 L24.6 26.45 Q27.6 26.9 27.45 30.1 27.1 37.6 27.4 45.1 L27.4 47.55 29.25 47.1 M17.4 46.3 L17.35 48.85 15.05 47.8 15.3 38.55 15.9 41.9 16.15 45.55 17.4 46.3" fill="#bda3a3" fill-rule="evenodd" stroke="none"/>
      <path d="M7.95 37.8 L6.95 38.05 Q5.2 33.9 5.05 28.9 5.3 19.0 12.0 12.3 18.7 5.6 28.65 5.3 35.55 5.45 40.8 8.75 L40.8 9.45 Q34.15 5.3 26.3 6.1 17.0 7.25 11.45 14.7 3.5 25.3 7.95 37.8 M41.85 47.1 L41.85 47.95 38.7 49.8 38.7 49.4 39.25 48.7 41.85 47.1 M29.25 51.35 L29.25 52.05 26.7 51.95 26.7 51.5 29.25 51.35 M51.15 34.95 L51.65 24.65 51.85 28.65 Q51.9 31.85 51.15 34.95" fill="#aa8888" fill-rule="evenodd" stroke="none"/>
      <path d="M45.1 11.4 Q45.25 10.0 46.65 9.85 L47.45 10.1 45.35 12.2 45.1 11.4 M46.3 12.95 L48.05 10.7 Q48.75 12.6 46.65 13.0 L46.3 12.95 M44.9 46.45 L47.6 47.8 46.85 48.1 Q45.45 48.6 44.9 47.25 L44.9 46.45 M47.9 46.25 L47.95 47.0 45.3 45.7 Q45.55 45.45 45.9 45.3 47.35 44.95 47.9 46.25 M35.4 21.6 L32.45 21.65 32.75 21.0 35.0 20.95 35.4 21.6 M32.4 22.2 L35.35 22.15 35.05 22.8 32.8 22.85 32.4 22.2 M9.4 44.7 L11.55 46.85 10.75 47.05 Q9.35 46.9 9.2 45.45 L9.4 44.7 M12.35 45.45 L12.15 46.25 10.0 44.1 10.75 43.9 Q12.2 44.05 12.35 45.45 M22.45 34.35 L21.65 34.55 Q20.35 34.35 20.1 32.95 L20.3 32.2 22.45 34.35 M21.65 31.4 Q23.1 31.55 23.25 32.95 L23.05 33.75 20.9 31.6 21.65 31.4 M22.15 48.6 L22.85 48.8 20.75 50.9 20.55 50.15 Q20.65 49.4 21.1 49.0 21.45 48.65 22.15 48.6 M35.3 49.15 L32.6 50.35 32.65 49.55 33.1 49.1 35.3 49.15 M33.2 51.4 L35.7 49.95 34.55 51.7 33.2 51.4 M21.35 51.55 L23.6 49.7 Q23.9 51.55 22.1 51.75 L21.35 51.55" fill="#a68884" fill-rule="evenodd" stroke="none"/>
      <path d="M48.95 12.35 Q47.65 21.15 47.35 30.15 47.2 35.85 48.05 41.5 L48.3 45.2 Q47.35 44.0 45.65 44.45 L44.6 45.2 44.55 12.65 Q45.1 13.75 46.65 13.9 48.4 13.7 48.95 12.35 M48.1 48.55 L47.7 49.65 Q46.8 49.75 46.3 49.2 L48.1 48.55 M35.55 23.9 L35.35 25.1 Q34.65 36.55 35.4 48.0 L35.0 47.8 Q33.2 47.3 32.2 48.6 31.7 47.3 31.7 45.7 31.65 43.75 31.85 41.85 32.7 32.75 32.05 23.7 L32.2 23.85 Q33.9 25.2 35.55 23.9 M20.1 34.85 L23.2 34.9 23.55 48.15 20.8 48.1 20.1 34.85 M9.05 43.7 Q8.8 41.5 10.2 39.95 L11.4 40.05 11.6 40.3 Q12.3 41.75 12.0 43.35 L11.45 43.15 Q10.1 42.75 9.05 43.7 M11.75 47.7 L11.4 52.4 Q10.75 52.65 10.4 52.15 8.85 50.0 9.05 47.25 10.7 48.45 11.75 47.7" fill="#c7abb9" fill-rule="evenodd" stroke="none"/>
      <path d="M40.95 5.25 L40.85 7.15 Q31.5 2.15 21.3 5.15 11.65 8.15 7.05 17.05 1.4 28.1 6.05 39.7 L6.35 41.05 6.5 43.3 Q2.2 37.0 2.0 28.6 2.3 17.35 9.8 9.9 17.25 2.4 28.5 2.1 35.45 2.3 40.95 5.25 M41.0 14.95 L41.95 38.3 39.25 40.75 Q39.05 29.85 39.9 19.05 40.15 15.65 37.2 14.75 33.5 13.75 30.2 15.55 L28.85 16.2 29.3 44.85 27.4 45.1 Q27.1 37.6 27.45 30.1 27.6 26.9 24.6 26.45 L21.6 26.15 Q19.55 26.25 17.8 27.05 L16.8 27.7 17.4 42.55 15.9 41.9 15.3 38.55 14.45 37.8 12.05 37.4 10.7 34.3 Q8.2 28.0 11.6 22.15 16.7 14.25 25.95 12.6 30.25 11.95 35.2 12.55 38.6 13.0 41.0 14.95 M50.85 42.75 Q50.6 40.15 51.5 38.1 53.35 33.65 53.2 28.65 53.15 26.45 52.6 24.4 51.5 20.6 52.05 16.5 54.75 21.85 54.95 28.6 54.75 36.6 50.85 42.75 M38.55 53.05 L38.7 51.3 41.85 49.6 41.95 51.4 38.55 53.05 M25.95 54.9 L26.6 53.3 29.45 53.4 29.55 53.85 Q29.8 54.75 30.85 54.9 L25.95 54.9 M15.15 51.45 L15.1 49.4 17.25 50.65 Q17.2 51.75 17.3 52.6 L15.15 51.45" fill="#e3d7d7" fill-rule="evenodd" stroke="none"/>
    </g>
  </defs>
</svg>
