<?xml version="1.0" encoding="UTF-8" standalone="no"?>
<svg xmlns:xlink="http://www.w3.org/1999/xlink" height="468.95px" width="310.1px" xmlns="http://www.w3.org/2000/svg">
  <g transform="matrix(1.0, 0.0, 0.0, 1.0, 153.05, 468.95)">
    <use height="36.0" transform="matrix(1.0, 0.0, 0.0, 1.0, -79.55, -36.0)" width="159.0" xlink:href="#shape0"/>
    <use height="96.65" transform="matrix(1.0, 0.0, 0.0, 1.0, -27.15, -108.0)" width="54.2" xlink:href="#shape1"/>
    <use height="37.0" transform="matrix(1.0, 0.0, 0.0, 1.0, -92.65, -94.35)" width="185.25" xlink:href="#shape2"/>
    <use height="15.8" transform="matrix(1.0, 0.0, 0.0, 1.0, -76.85, -83.25)" width="158.1" xlink:href="#text0"/>
    <use height="247.45" transform="matrix(1.0, 0.0, 0.0, 1.0, -80.6, -347.65)" width="160.05" xlink:href="#shape3"/>
    <use height="250.0" transform="matrix(0.9383, 0.0, 0.0, 0.9383, -69.25, -335.45)" width="139.7" xlink:href="#shape4"/>
    <use height="57.25" transform="matrix(1.0, 0.0, 0.0, 1.0, -28.95, -196.1)" width="57.1" xlink:href="#shape5"/>
  </g>
  <defs>
    <g id="shape0" transform="matrix(1.0, 0.0, 0.0, 1.0, 0.0, 0.0)">
      <path d="M135.7 30.75 Q113.3 35.8 79.5 36.0 45.7 35.8 23.3 30.75 0.85 25.65 0.0 18.0 0.85 10.35 23.3 5.25 45.7 0.2 79.5 0.0 113.3 0.2 135.7 5.25 158.15 10.35 159.0 18.0 158.15 25.65 135.7 30.75" fill="#000000" fill-opacity="0.39607844" fill-rule="evenodd" stroke="none"/>
    </g>
    <g id="shape1" transform="matrix(1.0, 0.0, 0.0, 1.0, 0.0, 0.0)">
      <path d="M5.85 93.35 Q-0.15 90.4 0.0 90.0 L0.0 0.0 54.2 0.0 54.2 90.0 Q54.15 90.4 46.95 93.35 39.7 96.25 25.65 96.65 11.8 96.25 5.85 93.35" fill="url(#gradient0)" fill-rule="evenodd" stroke="none"/>
    </g>
    <linearGradient gradientTransform="matrix(0.0303, 0.0, 0.0, 0.0303, 25.7, 48.35)" gradientUnits="userSpaceOnUse" id="gradient0" spreadMethod="pad" x1="-819.2" x2="819.2">
      <stop offset="0.0" stop-color="#565656"/>
      <stop offset="0.403921568627451" stop-color="#9a9999"/>
      <stop offset="0.592156862745098" stop-color="#dbdbda"/>
      <stop offset="0.7803921568627451" stop-color="#9b9a9a"/>
      <stop offset="1.0" stop-color="#151213"/>
    </linearGradient>
    <g id="shape2" transform="matrix(1.0, 0.0, 0.0, 1.0, -0.05, 0.0)">
      <path d="M185.25 8.2 L185.3 8.25 185.25 8.25 185.25 8.2 M1.9 5.2 L2.3 2.85 18.75 2.05 59.05 0.7 Q83.4 0.05 109.4 0.3 115.1 0.55 118.85 1.6 122.65 2.7 128.15 3.0 L129.3 1.5 Q130.05 0.2 130.5 0.0 160.7 0.5 181.5 3.85 L183.45 6.1 103.3 3.5 Q60.0 3.6 6.5 5.1 L1.9 5.2 M176.25 8.0 L176.45 8.4 177.65 11.45 178.5 13.65 Q179.3 12.8 179.7 10.9 179.7 9.8 179.25 9.1 L179.9 9.55 Q180.65 10.3 180.7 11.75 179.85 15.7 177.15 15.05 175.8 14.75 175.1 13.85 L176.15 14.2 177.35 14.25 176.45 12.35 174.9 8.8 174.8 8.5 174.95 8.35 Q175.75 7.8 176.25 8.0 M178.25 27.3 L179.85 27.15 Q180.5 27.3 181.25 27.95 183.6 31.2 181.35 32.8 180.2 33.6 179.1 33.5 L180.8 32.15 178.8 31.55 175.1 30.4 175.2 29.1 175.2 29.0 175.25 28.7 175.4 28.75 175.85 28.9 178.95 30.05 181.1 30.85 Q181.0 29.65 179.9 28.15 179.05 27.45 178.25 27.3 M9.35 6.95 L10.7 10.45 11.7 12.9 Q12.6 11.95 13.05 9.85 13.05 8.55 12.5 7.75 13.85 8.35 14.15 10.05 L13.75 12.35 Q12.6 15.1 10.15 14.55 8.75 14.25 8.0 13.4 L7.85 13.2 9.0 13.6 10.35 13.65 9.35 11.4 7.6 7.45 8.75 6.6 9.2 6.55 9.35 6.95 M9.4 25.3 Q11.0 24.35 12.9 25.8 15.0 28.35 14.35 30.1 L13.4 31.3 Q12.2 32.25 10.95 32.25 L12.75 30.6 10.4 30.05 6.2 29.05 6.15 27.55 6.15 27.1 6.35 27.15 6.9 27.35 10.45 28.4 12.95 29.1 Q12.75 27.8 11.35 26.15 10.35 25.35 9.4 25.3" fill="#47525f" fill-rule="evenodd" stroke="none"/>
      <path d="M0.05 36.7 L0.75 22.9 Q1.05 14.95 1.6 7.0 L1.9 5.2 6.5 5.1 3.2 8.3 1.95 36.45 0.05 36.7" fill="#cdcdcd" fill-rule="evenodd" stroke="none"/>
      <path d="M13.75 12.35 L14.15 10.05 26.45 10.0 13.75 12.35 M8.0 13.4 L7.0 13.55 7.2 26.2 6.35 27.15 6.15 27.1 6.15 27.55 Q5.15 29.5 6.75 31.55 8.95 33.2 10.95 32.25 12.2 32.25 13.4 31.3 L14.35 30.1 16.45 30.2 36.65 31.3 56.5 32.6 Q50.4 32.9 38.0 32.9 L15.1 32.75 3.85 32.6 5.25 10.05 6.0 10.05 Q6.15 12.3 7.85 13.2 L8.0 13.4" fill="#848484" fill-rule="evenodd" stroke="none"/>
      <path d="M175.1 13.85 Q175.8 14.75 177.15 15.05 179.85 15.7 180.7 11.75 180.65 10.3 179.9 9.55 L180.85 9.65 179.85 27.15 178.25 27.3 177.7 27.3 177.8 15.2 160.95 13.3 Q144.35 11.4 115.0 6.95 144.55 7.2 162.45 8.35 L174.1 9.15 Q173.65 9.7 173.4 10.6 173.45 12.95 175.1 13.85 M175.3 32.3 L137.05 30.55 175.2 29.0 175.2 29.1 Q174.3 30.55 175.3 32.3" fill="#a09fa0" fill-rule="evenodd" stroke="none"/>
      <path d="M176.45 8.4 L176.25 8.0 176.9 7.95 Q178.55 8.05 179.25 9.1 179.7 9.8 179.7 10.9 179.3 12.8 178.5 13.65 L177.65 11.45 178.05 10.25 Q178.0 8.55 176.45 8.4 M174.8 8.5 L174.9 8.8 Q174.35 9.2 174.15 10.05 174.2 11.9 175.85 12.3 L176.45 12.35 177.35 14.25 176.15 14.2 175.1 13.85 Q173.45 12.95 173.4 10.6 173.65 9.7 174.1 9.15 L174.8 8.5 M177.7 27.3 L178.25 27.3 Q179.05 27.45 179.9 28.15 181.0 29.65 181.1 30.85 L178.95 30.05 178.3 28.9 Q177.0 27.8 175.85 28.9 L175.4 28.75 175.8 28.3 Q176.7 27.35 177.7 27.3 M179.1 33.5 Q177.3 34.2 175.5 32.65 L175.3 32.3 Q174.3 30.55 175.2 29.1 L175.1 30.4 Q175.25 32.1 176.95 32.35 178.0 32.25 178.8 31.55 L180.8 32.15 179.1 33.5 M10.7 10.45 L11.2 9.05 Q11.15 7.15 9.35 6.95 L9.2 6.55 9.9 6.5 Q11.75 6.6 12.5 7.75 13.05 8.55 13.05 9.85 12.6 11.95 11.7 12.9 L10.7 10.45 M7.2 26.2 Q8.2 25.2 9.4 25.3 10.35 25.35 11.35 26.15 12.75 27.8 12.95 29.1 L10.45 28.4 Q9.75 26.65 8.05 26.6 L6.9 27.35 6.35 27.15 7.2 26.2 M6.0 10.05 L5.95 9.55 Q6.6 7.0 8.75 6.6 L7.6 7.45 Q7.0 7.9 6.75 8.85 6.8 10.95 8.7 11.35 L9.35 11.4 10.35 13.65 9.0 13.6 7.85 13.2 Q6.15 12.3 6.0 10.05 M6.15 27.55 L6.2 29.05 Q6.45 30.9 8.2 31.1 9.7 31.2 10.4 30.05 L12.75 30.6 10.95 32.25 Q8.95 33.2 6.75 31.55 5.15 29.5 6.15 27.55" fill="#9c9c9c" fill-rule="evenodd" stroke="none"/>
      <path d="M174.9 8.8 L176.45 12.35 175.85 12.3 Q174.2 11.9 174.15 10.05 174.35 9.2 174.9 8.8 M177.65 11.45 L176.45 8.4 Q178.0 8.55 178.05 10.25 L177.65 11.45 M175.85 28.9 Q177.0 27.8 178.3 28.9 L178.95 30.05 175.85 28.9 M175.1 30.4 L178.8 31.55 Q178.0 32.25 176.95 32.35 175.25 32.1 175.1 30.4 M9.35 6.95 Q11.15 7.15 11.2 9.05 L10.7 10.45 9.35 6.95 M9.35 11.4 L8.7 11.35 Q6.8 10.95 6.75 8.85 7.0 7.9 7.6 7.45 L9.35 11.4 M10.45 28.4 L6.9 27.35 8.05 26.6 Q9.75 26.65 10.45 28.4 M6.2 29.05 L10.4 30.05 Q9.7 31.2 8.2 31.1 6.45 30.9 6.2 29.05" fill="#d5d4d4" fill-rule="evenodd" stroke="none"/>
      <path d="M183.45 6.1 L185.3 6.25 185.25 8.2 185.25 8.25 185.1 13.45 184.65 27.3 184.3 36.25 Q157.35 34.75 133.85 35.55 L89.2 37.0 Q65.15 37.15 43.55 35.85 22.0 34.5 0.05 36.75 L0.05 36.7 1.95 36.45 3.2 8.3 6.5 5.1 Q60.0 3.6 103.3 3.5 L183.45 6.1 M176.25 8.0 Q175.75 7.8 174.95 8.35 L174.8 8.5 174.1 9.15 162.45 8.35 Q144.55 7.2 115.0 6.95 144.35 11.4 160.95 13.3 L177.8 15.2 177.7 27.3 Q176.7 27.35 175.8 28.3 L175.4 28.75 175.25 28.7 175.2 29.0 137.05 30.55 175.3 32.3 175.5 32.65 Q177.3 34.2 179.1 33.5 180.2 33.6 181.35 32.8 183.6 31.2 181.25 27.95 180.5 27.3 179.85 27.15 L180.85 9.65 179.9 9.55 179.25 9.1 Q178.55 8.05 176.9 7.95 L176.25 8.0 M12.5 7.75 Q11.75 6.6 9.9 6.5 L9.2 6.55 8.75 6.6 Q6.6 7.0 5.95 9.55 L6.0 10.05 5.25 10.05 3.85 32.6 15.1 32.75 38.0 32.9 Q50.4 32.9 56.5 32.6 L36.65 31.3 16.45 30.2 14.35 30.1 Q15.0 28.35 12.9 25.8 11.0 24.35 9.4 25.3 8.2 25.2 7.2 26.2 L7.0 13.55 8.0 13.4 Q8.75 14.25 10.15 14.55 12.6 15.1 13.75 12.35 L26.45 10.0 14.15 10.05 Q13.85 8.35 12.5 7.75" fill="url(#gradient1)" fill-rule="evenodd" stroke="none"/>
    </g>
    <linearGradient gradientTransform="matrix(0.1131, 0.0, 0.0, 0.0204, 92.65, 20.25)" gradientUnits="userSpaceOnUse" id="gradient1" spreadMethod="pad" x1="-819.2" x2="819.2">
      <stop offset="0.0" stop-color="#9a9a9a"/>
      <stop offset="1.0" stop-color="#ffffff"/>
    </linearGradient>
    <g id="text0" transform="matrix(1.0, 0.0, 0.0, 1.0, -0.35, -5.3)">
      <g transform="matrix(1.0, 0.0, 0.0, 1.0, 0.0, 0.0)">
        <use fill="#000000" height="15.8" transform="matrix(0.4883, 0.0, 0.0, 0.4883, 0.0, 21.0)" width="158.1" xlink:href="#font_______W7_T0"/>
        <use fill="#000000" height="15.8" transform="matrix(0.4883, 0.0, 0.0, 0.4883, 16.2, 21.0)" width="158.1" xlink:href="#font_______W7_e0"/>
        <use fill="#000000" height="15.8" transform="matrix(0.4883, 0.0, 0.0, 0.4883, 30.2, 21.0)" width="158.1" xlink:href="#font_______W7_l0"/>
        <use fill="#000000" height="15.8" transform="matrix(0.4883, 0.0, 0.0, 0.4883, 39.35, 21.0)" width="158.1" xlink:href="#font_______W7_e0"/>
        <use fill="#000000" height="15.8" transform="matrix(0.4883, 0.0, 0.0, 0.4883, 53.35, 21.0)" width="158.1" xlink:href="#font_______W7_m0"/>
        <use fill="#000000" height="15.8" transform="matrix(0.4883, 0.0, 0.0, 0.4883, 71.6, 21.0)" width="158.1" xlink:href="#font_______W7_a0"/>
        <use fill="#000000" height="15.8" transform="matrix(0.4883, 0.0, 0.0, 0.4883, 86.0, 21.0)" width="158.1" xlink:href="#font_______W7_r0"/>
        <use fill="#000000" height="15.8" transform="matrix(0.4883, 0.0, 0.0, 0.4883, 95.3, 21.0)" width="158.1" xlink:href="#font_______W7_k0"/>
        <use fill="#000000" height="15.8" transform="matrix(0.4883, 0.0, 0.0, 0.4883, 109.65, 21.0)" width="158.1" xlink:href="#font_______W7_e0"/>
        <use fill="#000000" height="15.8" transform="matrix(0.4883, 0.0, 0.0, 0.4883, 123.65, 21.0)" width="158.1" xlink:href="#font_______W7_t0"/>
        <use fill="#000000" height="15.8" transform="matrix(0.4883, 0.0, 0.0, 0.4883, 135.5, 21.0)" width="158.1" xlink:href="#font_______W7_e0"/>
        <use fill="#000000" height="15.8" transform="matrix(0.4883, 0.0, 0.0, 0.4883, 149.5, 21.0)" width="158.1" xlink:href="#font_______W7_r0"/>
      </g>
    </g>
    <g id="font_______W7_T0">
      <path d="M30.8 -32.15 L30.8 -32.15 0.75 -29.4 1.85 -24.25 13.45 -24.25 11.0 0.05 21.6 -1.1 18.95 -24.25 32.35 -24.25 30.8 -32.15" fill-rule="evenodd" stroke="none"/>
    </g>
    <g id="font_______W7_e0">
      <path d="M19.45 -9.9 L19.45 -9.9 Q16.75 -7.55 13.6 -7.55 10.45 -7.55 9.15 -9.9 L19.45 -9.9 M9.0 -13.4 L9.0 -13.4 Q9.7 -14.95 11.5 -15.95 13.2 -16.8 15.1 -16.8 18.05 -16.8 19.65 -14.35 L9.0 -13.4 M23.25 -9.9 L23.25 -9.9 24.3 -9.9 26.7 -12.6 Q25.85 -16.7 22.9 -19.1 19.9 -21.45 15.15 -21.45 9.65 -21.45 5.9 -18.65 1.8 -15.6 1.8 -10.4 1.8 -5.35 5.8 -2.5 9.3 0.05 14.6 0.05 22.45 0.05 27.15 -4.25 L23.25 -9.9" fill-rule="evenodd" stroke="none"/>
    </g>
    <g id="font_______W7_l0">
      <path d="M11.6 -31.5 L11.6 -31.5 6.9 -32.15 4.35 0.05 14.4 -1.4 11.6 -31.5" fill-rule="evenodd" stroke="none"/>
    </g>
    <g id="font_______W7_m0">
      <path d="M35.35 -9.0 L35.35 -9.0 Q35.35 -21.45 27.8 -21.45 24.2 -21.45 21.15 -18.8 19.2 -21.45 15.65 -21.45 12.4 -21.45 9.45 -19.2 L9.25 -20.75 4.35 -21.45 2.05 0.05 11.95 -1.4 10.25 -13.85 Q12.25 -15.8 13.75 -15.8 16.4 -15.8 16.4 -11.2 16.4 -8.95 15.2 -5.8 L12.95 -0.75 22.1 0.1 Q23.3 -4.75 23.3 -9.55 23.3 -12.35 22.95 -14.3 24.5 -15.7 25.75 -15.7 28.25 -15.7 28.25 -11.2 28.25 -7.95 25.1 -0.65 L34.25 0.2 Q35.35 -4.25 35.35 -9.0" fill-rule="evenodd" stroke="none"/>
    </g>
    <g id="font_______W7_a0">
      <path d="M19.05 -8.85 L19.05 -8.85 18.5 -5.05 17.1 -9.0 Q14.35 -6.2 10.6 -6.2 9.95 -6.2 9.45 -6.75 9.0 -7.2 9.0 -7.85 9.0 -10.2 13.7 -10.2 15.9 -10.2 19.05 -8.85 M27.4 -6.8 L27.4 -6.8 Q27.4 -21.45 13.35 -21.45 7.15 -21.45 2.55 -18.35 L4.3 -14.35 Q8.3 -16.55 13.15 -16.55 17.85 -16.55 18.85 -13.35 15.4 -14.5 12.8 -14.5 8.6 -14.5 5.6 -12.8 1.8 -10.75 1.8 -6.95 1.8 -3.5 4.9 -1.55 7.55 0.05 11.15 0.05 13.95 0.05 17.35 -0.95 L17.0 0.15 26.7 -0.3 Q27.4 -3.45 27.4 -6.8" fill-rule="evenodd" stroke="none"/>
    </g>
    <g id="font_______W7_r0">
      <path d="M18.3 -20.6 L18.3 -20.6 Q16.55 -21.45 14.75 -21.45 11.5 -21.45 8.7 -18.65 L8.45 -20.75 4.45 -21.45 2.55 0.05 10.65 -1.4 9.3 -12.8 Q10.55 -14.85 12.3 -14.85 13.25 -14.85 14.55 -13.85 L16.55 -12.05 18.3 -20.6" fill-rule="evenodd" stroke="none"/>
    </g>
    <g id="font_______W7_k0">
      <path d="M20.35 -12.2 L20.35 -12.2 26.9 -17.9 24.8 -21.8 10.85 -14.65 9.3 -31.45 4.6 -32.15 2.05 0.05 12.1 -1.4 11.35 -9.1 13.25 -6.05 15.8 -8.25 22.05 0.25 28.6 -6.95 20.35 -12.2" fill-rule="evenodd" stroke="none"/>
    </g>
    <g id="font_______W7_t0">
      <path d="M18.7 -12.2 L18.7 -12.2 Q17.0 -9.35 14.9 -9.35 11.95 -9.35 11.95 -15.4 L21.65 -15.4 20.1 -22.55 12.4 -21.45 Q12.75 -24.2 13.6 -27.95 L8.95 -28.85 Q7.75 -24.65 7.1 -20.75 L0.75 -19.9 1.75 -15.4 6.55 -15.4 6.5 -12.55 Q6.5 -6.8 7.75 -4.05 9.5 0.05 14.55 0.05 19.1 0.05 23.25 -4.15 L18.7 -12.2" fill-rule="evenodd" stroke="none"/>
    </g>
    <g id="shape3" transform="matrix(1.0, 0.0, 0.0, 1.0, -7.3, -16.05)">
      <path d="M119.7 89.6 Q120.8 94.4 116.1 94.95 112.2 94.75 112.4 90.35 112.5 91.25 112.95 91.95 L113.6 92.6 114.2 92.9 Q119.1 94.6 119.7 89.6 M157.8 178.6 L143.3 131.5 121.6 118.9 126.15 105.8 123.85 96.5 106.5 25.6 67.35 18.55 51.0 99.75 57.25 111.35 61.05 118.35 28.25 124.95 12.65 206.65 15.05 241.05 15.7 250.55 20.7 261.05 151.35 261.05 159.25 250.05 161.15 195.2 157.8 178.6 M113.65 23.8 L131.65 106.15 128.05 116.5 149.8 127.15 166.45 194.65 167.35 251.2 154.8 263.5 17.4 263.5 13.25 251.95 7.3 206.35 20.9 126.05 21.2 126.05 Q39.15 120.65 57.4 116.15 L56.7 115.1 Q51.7 107.55 45.6 100.7 L63.35 16.05 113.65 23.8 M70.0 34.25 Q71.3 35.0 72.9 35.05 78.05 34.6 78.5 29.6 79.15 35.1 74.05 36.55 71.9 37.2 70.0 36.1 L70.0 34.25 M74.65 26.05 L75.75 24.9 75.75 26.85 68.25 34.7 68.25 32.7 74.65 26.05 M149.6 190.55 L150.15 192.0 150.7 192.7 151.35 192.95 Q156.2 194.75 156.9 189.7 158.05 194.35 153.3 195.0 149.55 194.7 149.6 190.55 M152.55 242.8 L153.6 241.65 153.6 243.6 146.1 251.45 146.1 249.45 152.55 242.8 M156.4 246.35 Q157.05 251.85 151.95 253.3 149.8 253.95 147.9 252.8 L147.85 251.0 Q149.15 251.75 150.75 251.8 155.9 251.3 156.4 246.35" fill="#47525f" fill-rule="evenodd" stroke="none"/>
      <path d="M123.85 96.5 L126.15 105.8 121.6 118.9 143.3 131.5 157.8 178.6 15.05 241.05 12.65 206.65 28.25 124.95 61.05 118.35 57.25 111.35 123.85 96.5 M77.45 26.4 L77.5 27.05 Q77.4 34.5 70.0 34.25 L76.5 27.45 77.45 26.4 M154.4 244.2 L155.3 243.15 155.35 243.9 Q155.1 251.3 147.85 251.0 L154.4 244.2" fill="#bab9ba" fill-rule="evenodd" stroke="none"/>
      <path d="M115.5 87.6 Q116.5 87.0 117.8 86.8 L117.0 86.5 Q112.7 86.2 112.4 90.35 112.2 94.75 116.1 94.95 120.8 94.4 119.7 89.6 L118.95 87.85 117.8 86.85 115.5 87.6 M123.85 96.5 L57.25 111.35 51.0 99.75 67.35 18.55 106.5 25.6 123.85 96.5 M15.05 241.05 L157.8 178.6 161.15 195.2 159.25 250.05 151.35 261.05 20.7 261.05 15.7 250.55 15.05 241.05 M77.45 26.4 L76.5 27.45 75.75 26.85 75.75 24.9 74.65 26.05 75.7 24.9 75.35 24.7 74.8 24.45 Q68.5 23.15 67.1 29.65 L67.1 31.85 Q66.95 32.55 68.25 34.7 L70.0 36.1 Q71.9 37.2 74.05 36.55 79.15 35.1 78.5 29.6 L77.45 26.4 M155.0 186.9 L154.2 186.65 Q149.8 186.3 149.6 190.55 149.55 194.7 153.3 195.0 158.05 194.35 156.9 189.7 156.8 188.7 156.15 187.9 L155.0 186.9 M153.25 241.4 L152.7 241.2 Q146.25 239.9 145.0 246.4 L145.0 248.6 Q144.8 249.3 146.1 251.45 L147.9 252.8 Q149.8 253.95 151.95 253.3 157.05 251.85 156.4 246.35 L155.3 243.15 154.4 244.2 153.6 243.6 153.6 241.65 152.55 242.8 153.6 241.65 153.25 241.4" fill="#9c9c9c" fill-rule="evenodd" stroke="none"/>
      <path d="M112.4 90.35 Q112.7 86.2 117.0 86.5 L117.8 86.8 Q116.5 87.0 115.5 87.6 L114.1 88.7 112.95 91.95 Q112.5 91.25 112.4 90.35 M67.1 29.65 Q68.5 23.15 74.8 24.45 L75.35 24.7 Q69.85 26.3 68.0 31.65 L67.9 32.25 Q67.2 31.0 67.1 29.65 M155.0 186.9 Q152.95 186.9 151.55 188.4 150.15 189.9 150.15 192.0 L149.6 190.55 Q149.8 186.3 154.2 186.65 L155.0 186.9 M145.0 246.4 Q146.25 239.9 152.7 241.2 L153.25 241.4 152.5 241.7 Q146.95 243.6 145.8 249.0 145.1 247.75 145.0 246.4" fill="#e9e9eb" fill-rule="evenodd" stroke="none"/>
      <path d="M115.5 87.6 L117.8 86.85 118.95 87.85 118.85 88.65 Q117.9 93.0 113.6 92.6 L112.95 91.95 114.1 88.7 115.5 87.6 M75.35 24.7 L75.7 24.9 74.65 26.05 68.25 32.7 67.9 32.25 68.0 31.65 Q69.85 26.3 75.35 24.7 M150.15 192.0 Q150.15 189.9 151.55 188.4 152.95 186.9 155.0 186.9 L156.15 187.9 Q156.15 192.25 151.65 192.75 L150.7 192.7 150.15 192.0 M145.8 249.0 Q146.95 243.6 152.5 241.7 L153.25 241.4 153.6 241.65 152.55 242.8 146.1 249.45 145.8 249.0" fill="#d0cfd0" fill-rule="evenodd" stroke="none"/>
      <path d="M118.95 87.85 L119.7 89.6 Q119.1 94.6 114.2 92.9 L113.6 92.6 Q117.9 93.0 118.85 88.65 L118.95 87.85 M70.0 34.25 Q77.4 34.5 77.5 27.05 L77.45 26.4 78.5 29.6 Q78.05 34.6 72.9 35.05 71.3 35.0 70.0 34.25 M150.7 192.7 L151.65 192.75 Q156.15 192.25 156.15 187.9 156.8 188.7 156.9 189.7 156.2 194.75 151.35 192.95 L150.7 192.7 M155.3 243.15 L156.4 246.35 Q155.9 251.3 150.75 251.8 149.15 251.75 147.85 251.0 155.1 251.3 155.35 243.9 L155.3 243.15" fill="#b0aeb3" fill-rule="evenodd" stroke="none"/>
      <path d="M76.5 27.45 L70.0 34.25 70.0 36.1 68.25 34.7 75.75 26.85 76.5 27.45 M153.6 243.6 L154.4 244.2 147.85 251.0 147.9 252.8 146.1 251.45 153.6 243.6" fill="#57565b" fill-rule="evenodd" stroke="none"/>
      <path d="M68.25 32.7 L68.25 34.7 Q66.95 32.55 67.1 31.85 L67.1 29.65 Q67.2 31.0 67.9 32.25 L68.25 32.7 M145.0 246.4 Q145.1 247.75 145.8 249.0 L146.1 249.45 146.1 251.45 Q144.8 249.3 145.0 248.6 L145.0 246.4" fill="#79818b" fill-rule="evenodd" stroke="none"/>
    </g>
    <g id="shape4" transform="matrix(1.0, 0.0, 0.0, 1.0, 0.0, 0.0)">
      <path d="M90.8 23.5 L86.15 3.05 63.55 3.05 58.25 24.35 55.5 35.5 68.4 40.5 68.35 41.25 67.45 41.95 55.0 37.45 44.4 80.05 55.1 96.85 Q62.2 99.1 68.1 102.8 L68.3 103.3 70.3 141.5 76.35 103.95 Q75.85 102.85 76.6 102.45 78.65 101.4 80.85 100.65 L92.85 97.05 103.75 80.65 93.45 35.35 91.35 36.5 91.15 37.6 86.8 39.8 82.9 42.3 81.1 43.75 81.8 43.65 88.15 43.25 Q90.15 43.5 91.95 44.4 L93.1 45.0 92.15 46.3 86.75 45.55 81.55 45.8 81.0 45.8 Q82.25 47.75 84.65 48.45 L87.35 49.45 87.75 49.5 88.15 49.6 88.75 50.5 87.75 51.5 Q83.75 50.95 80.7 48.25 77.25 45.2 80.35 41.95 82.25 40.0 84.8 38.55 L77.95 41.0 76.95 39.95 77.35 39.3 92.75 33.45 90.8 23.5 M87.35 0.0 L88.1 0.2 88.85 1.25 106.85 80.6 96.05 97.65 96.1 98.35 128.55 114.6 129.35 115.7 138.9 166.1 138.9 166.6 131.75 215.95 139.7 223.45 137.8 244.3 119.6 250.0 111.8 245.6 Q112.1 247.15 111.0 248.2 L110.6 248.45 110.2 248.7 72.0 249.6 28.65 249.6 3.1 241.15 Q2.25 233.2 4.5 225.25 L5.4 222.3 7.25 216.35 0.0 201.0 2.4 162.5 16.4 112.15 17.05 111.3 52.35 98.15 41.35 79.95 60.9 1.2 61.45 0.5 87.35 0.0 M99.6 83.2 Q95.3 80.45 90.95 77.85 87.1 75.5 82.6 74.8 65.15 72.8 52.2 84.75 L54.6 87.75 54.2 88.75 53.8 88.9 Q50.15 86.8 49.95 82.65 49.15 65.5 63.8 55.25 L64.75 56.3 58.55 62.65 Q49.9 71.25 51.45 82.75 58.4 76.65 67.15 74.1 86.3 68.5 100.25 82.45 L99.6 83.2 M69.1 56.05 L69.7 56.3 70.0 56.7 Q69.55 59.95 66.55 58.4 65.5 57.9 65.1 56.75 L65.8 55.9 67.35 56.65 69.1 56.05 M69.65 45.05 L69.7 45.55 Q67.0 50.1 61.8 50.7 L61.3 49.35 66.95 45.7 56.4 46.15 55.5 45.1 Q62.6 41.3 69.65 45.05 M75.55 44.4 Q75.5 42.9 76.2 41.4 L77.25 41.5 77.6 42.2 Q76.0 47.2 78.75 52.0 79.55 53.45 78.8 55.1 78.25 56.3 77.2 57.1 80.25 57.15 82.15 54.85 L82.9 53.8 84.05 54.05 84.35 54.7 83.8 56.25 Q98.1 64.15 101.65 80.05 L101.0 80.5 100.25 80.35 Q95.4 66.2 82.9 57.4 80.95 59.7 78.0 59.45 76.1 59.1 74.8 57.75 L74.65 56.9 Q77.05 55.9 76.55 53.4 75.6 48.85 75.55 44.4 M64.55 104.05 L55.65 100.35 56.1 116.9 64.55 104.05 M35.95 129.35 L35.55 128.1 Q37.7 125.7 41.35 124.45 L28.25 123.2 27.3 121.95 29.0 110.05 19.1 113.7 5.4 162.85 3.05 200.8 9.0 213.1 10.95 209.65 Q21.75 209.6 24.1 210.9 26.45 212.2 28.6 213.65 L30.65 215.35 27.05 142.35 20.5 130.8 20.6 130.35 21.4 129.8 22.05 130.35 Q26.1 135.45 29.65 141.15 L30.0 141.8 33.85 218.55 37.35 222.1 36.0 230.05 Q37.45 230.05 37.75 231.5 L39.35 240.1 32.65 246.6 57.2 246.6 58.2 170.75 65.1 156.2 35.95 129.35 M30.45 120.4 L48.1 122.8 48.35 123.65 39.6 128.65 66.5 153.4 67.35 151.6 57.95 119.55 55.75 122.9 54.85 123.25 53.8 122.85 52.65 101.3 32.15 108.85 30.45 120.4 M65.55 108.0 L60.15 116.25 67.25 140.5 65.55 108.0 M121.7 122.65 L118.55 134.95 113.5 214.4 114.75 214.45 116.75 212.2 126.3 211.45 129.1 213.45 135.9 166.4 126.55 117.0 115.35 111.4 111.65 122.85 97.7 122.5 104.0 130.45 103.7 131.35 61.2 171.45 60.2 246.45 108.75 245.75 108.9 243.8 104.85 240.8 Q105.1 236.55 105.5 232.35 105.6 230.95 107.0 230.45 107.4 225.25 110.1 220.85 L115.55 134.55 119.95 121.0 121.55 121.15 121.7 122.65 M109.75 120.2 L112.65 110.05 95.2 101.3 94.45 103.05 87.05 121.75 Q86.4 123.35 84.9 122.4 L64.6 164.1 100.55 130.2 93.1 121.7 92.85 121.3 92.95 120.15 93.15 119.65 109.75 120.2 M83.2 119.05 L78.6 108.95 73.9 138.2 83.2 119.05 M85.75 117.35 L92.15 100.35 79.6 103.85 85.75 117.35 M18.1 222.45 L19.55 222.55 21.5 234.5 30.0 234.5 34.4 223.3 21.7 212.2 13.05 211.95 Q6.2 224.4 5.55 238.9 L28.3 246.4 36.3 239.4 35.2 232.95 Q30.4 238.15 23.25 237.45 L19.65 237.45 Q17.35 230.0 18.1 222.45 M110.5 225.3 L110.05 230.15 111.15 230.15 Q112.65 230.15 114.15 231.15 L115.35 235.05 121.0 235.35 120.3 229.35 121.35 228.55 Q122.25 228.8 122.55 229.7 123.85 233.6 124.15 237.75 L113.3 237.45 111.95 233.45 108.65 232.95 108.05 233.3 107.85 239.65 119.9 247.1 135.4 242.1 136.85 224.85 125.85 214.5 117.95 215.1 110.5 225.3" fill="#1a1a1a" fill-rule="evenodd" stroke="none"/>
      <path d="M58.25 24.35 L63.55 3.05 86.15 3.05 90.8 23.5 Q83.6 17.65 75.2 22.4 L74.05 23.15 Q65.7 16.75 58.25 24.35" fill="#4e3f4a" fill-rule="evenodd" stroke="none"/>
      <path d="M90.8 23.5 L92.75 33.45 77.35 39.3 76.95 39.95 77.95 41.0 84.8 38.55 Q82.25 40.0 80.35 41.95 77.25 45.2 80.7 48.25 83.75 50.95 87.75 51.5 L88.75 50.5 88.15 49.6 87.75 49.5 87.35 49.45 84.65 48.45 Q82.25 47.75 81.0 45.8 L81.55 45.8 86.75 45.55 92.15 46.3 93.1 45.0 91.95 44.4 Q90.15 43.5 88.15 43.25 L81.8 43.65 81.1 43.75 82.9 42.3 86.8 39.8 91.15 37.6 91.35 36.5 93.45 35.35 103.75 80.65 92.85 97.05 80.85 100.65 Q78.65 101.4 76.6 102.45 75.85 102.85 76.35 103.95 L70.3 141.5 68.3 103.3 68.1 102.8 Q62.2 99.1 55.1 96.85 L44.4 80.05 55.0 37.45 67.45 41.95 68.35 41.25 68.4 40.5 55.5 35.5 58.25 24.35 Q65.7 16.75 74.05 23.15 L75.2 22.4 Q83.6 17.65 90.8 23.5 M75.55 44.4 Q75.6 48.85 76.55 53.4 77.05 55.9 74.65 56.9 L74.8 57.75 Q76.1 59.1 78.0 59.45 80.95 59.7 82.9 57.4 95.4 66.2 100.25 80.35 L101.0 80.5 101.65 80.05 Q98.1 64.15 83.8 56.25 L84.35 54.7 84.05 54.05 82.9 53.8 82.15 54.85 Q80.25 57.15 77.2 57.1 78.25 56.3 78.8 55.1 79.55 53.45 78.75 52.0 76.0 47.2 77.6 42.2 L77.25 41.5 76.2 41.4 Q75.5 42.9 75.55 44.4 M69.65 45.05 Q62.6 41.3 55.5 45.1 L56.4 46.15 66.95 45.7 61.3 49.35 61.8 50.7 Q67.0 50.1 69.7 45.55 L69.65 45.05 M69.1 56.05 L67.35 56.65 65.8 55.9 65.1 56.75 Q65.5 57.9 66.55 58.4 69.55 59.95 70.0 56.7 L69.7 56.3 69.1 56.05 M99.6 83.2 L100.25 82.45 Q86.3 68.5 67.15 74.1 58.4 76.65 51.45 82.75 49.9 71.25 58.55 62.65 L64.75 56.3 63.8 55.25 Q49.15 65.5 49.95 82.65 50.15 86.8 53.8 88.9 L54.2 88.75 54.6 87.75 52.2 84.75 Q65.15 72.8 82.6 74.8 87.1 75.5 90.95 77.85 95.3 80.45 99.6 83.2" fill="#f2d9ed" fill-rule="evenodd" stroke="none"/>
      <path d="M64.55 104.05 L56.1 116.9 55.65 100.35 64.55 104.05 M65.55 108.0 L67.25 140.5 60.15 116.25 65.55 108.0 M85.75 117.35 L79.6 103.85 92.15 100.35 85.75 117.35 M83.2 119.05 L73.9 138.2 78.6 108.95 83.2 119.05" fill="#ffe1e9" fill-rule="evenodd" stroke="none"/>
      <path d="M30.45 120.4 L32.15 108.85 52.65 101.3 53.8 122.85 54.85 123.25 55.75 122.9 57.95 119.55 67.35 151.6 66.5 153.4 39.6 128.65 48.35 123.65 48.1 122.8 30.45 120.4 M35.95 129.35 L65.1 156.2 58.2 170.75 57.2 246.6 32.65 246.6 39.35 240.1 37.75 231.5 Q37.45 230.05 36.0 230.05 L37.35 222.1 33.85 218.55 30.0 141.8 29.65 141.15 Q26.1 135.45 22.05 130.35 L21.4 129.8 20.6 130.35 20.5 130.8 27.05 142.35 30.65 215.35 28.6 213.65 Q26.45 212.2 24.1 210.9 21.75 209.6 10.95 209.65 L9.0 213.1 3.05 200.8 5.4 162.85 19.1 113.7 29.0 110.05 27.3 121.95 28.25 123.2 41.35 124.45 Q37.7 125.7 35.55 128.1 L35.95 129.35 M109.75 120.2 L93.15 119.65 92.95 120.15 92.85 121.3 93.1 121.7 100.55 130.2 64.6 164.1 84.9 122.4 Q86.4 123.35 87.05 121.75 L94.45 103.05 95.2 101.3 112.65 110.05 109.75 120.2 M121.7 122.65 L121.55 121.15 119.95 121.0 115.55 134.55 110.1 220.85 Q107.4 225.25 107.0 230.45 105.6 230.95 105.5 232.35 105.1 236.55 104.85 240.8 L108.9 243.8 108.75 245.75 60.2 246.45 61.2 171.45 103.7 131.35 104.0 130.45 97.7 122.5 111.65 122.85 115.35 111.4 126.55 117.0 135.9 166.4 129.1 213.45 126.3 211.45 116.75 212.2 114.75 214.45 113.5 214.4 118.55 134.95 121.7 122.65" fill="#8d254e" fill-rule="evenodd" stroke="none"/>
      <path d="M110.5 225.3 L117.95 215.1 125.85 214.5 136.85 224.85 135.4 242.1 119.9 247.1 107.85 239.65 108.05 233.3 108.65 232.95 111.95 233.45 113.3 237.45 124.15 237.75 Q123.85 233.6 122.55 229.7 122.25 228.8 121.35 228.55 L120.3 229.35 121.0 235.35 115.35 235.05 114.15 231.15 Q112.65 230.15 111.15 230.15 L110.05 230.15 110.5 225.3 M18.1 222.45 Q17.35 230.0 19.65 237.45 L23.25 237.45 Q30.4 238.15 35.2 232.95 L36.3 239.4 28.3 246.4 5.55 238.9 Q6.2 224.4 13.05 211.95 L21.7 212.2 34.4 223.3 30.0 234.5 21.5 234.5 19.55 222.55 18.1 222.45" fill="#e3aed5" fill-rule="evenodd" stroke="none"/>
    </g>
    <g id="shape5" transform="matrix(1.0, 0.0, 0.0, 1.0, -0.1, 0.0)">
      <path d="M44.15 4.15 Q48.25 3.4 52.05 4.8 L52.4 5.0 52.3 11.35 52.25 12.55 Q56.95 19.4 57.2 28.65 56.95 39.1 50.85 46.55 L50.85 48.45 50.25 54.2 Q46.95 55.8 43.1 54.6 L42.4 54.05 42.25 53.8 Q36.25 57.05 28.6 57.25 20.95 57.05 14.95 53.75 L14.75 54.3 14.4 54.75 8.05 54.95 Q6.45 53.25 6.75 50.75 L6.9 47.7 6.85 47.2 Q3.0 42.7 1.3 37.15 -0.8 29.9 0.85 22.5 2.4 15.75 6.8 10.6 15.0 0.95 27.95 0.05 L28.3 0.05 28.6 0.05 Q37.0 0.25 43.5 4.2 L44.15 4.15 M50.75 10.0 L51.2 5.6 42.35 5.6 Q42.7 27.1 43.4 48.6 43.45 50.9 43.95 52.95 L47.55 53.2 49.45 52.9 Q49.55 33.1 50.45 13.35 L50.75 10.0 M40.95 5.25 Q41.05 4.75 41.2 4.9 L41.4 4.8 Q35.75 1.65 28.6 1.45 17.05 1.75 9.4 9.45 1.7 17.1 1.4 28.65 1.65 37.85 6.6 44.65 L6.5 43.3 6.35 41.05 6.05 39.7 Q1.4 28.1 7.05 17.05 11.65 8.15 21.3 5.15 31.5 2.15 40.85 7.15 L40.95 5.25 M45.1 11.4 L45.35 12.2 47.45 10.1 46.65 9.85 Q45.25 10.0 45.1 11.4 M40.8 9.45 L40.8 8.75 Q35.55 5.45 28.65 5.3 18.7 5.6 12.0 12.3 5.3 19.0 5.05 28.9 5.2 33.9 6.95 38.05 L7.95 37.8 14.45 37.8 15.3 38.55 15.05 47.8 17.35 48.85 17.4 46.3 17.4 42.55 16.8 27.7 17.8 27.05 Q22.25 25.8 26.4 27.25 L26.7 27.55 26.7 51.5 26.7 51.95 29.25 52.05 29.25 51.35 29.25 47.1 29.3 44.85 28.85 16.2 30.2 15.55 38.9 15.85 38.7 49.4 38.7 49.8 41.85 47.95 41.85 47.1 41.95 42.75 41.95 38.3 41.0 14.95 40.85 11.15 40.8 9.45 M44.55 12.65 Q44.5 11.25 45.1 10.1 45.7 8.9 46.6 8.8 47.5 8.7 48.2 9.75 48.9 10.75 48.95 12.35 48.4 13.7 46.65 13.9 45.1 13.75 44.55 12.65 M48.3 45.2 L48.65 46.05 Q49.15 47.55 48.1 48.55 L46.3 49.2 Q44.8 49.15 44.1 47.55 43.75 46.05 44.6 45.2 L45.65 44.45 Q47.35 44.0 48.3 45.2 M46.3 12.95 L46.65 13.0 Q48.75 12.6 48.05 10.7 L46.3 12.95 M50.85 42.75 L50.85 44.4 Q55.35 38.0 55.55 29.2 55.4 21.65 52.1 15.6 L52.05 16.5 Q51.5 20.6 52.6 24.4 53.15 26.45 53.2 28.65 53.35 33.65 51.5 38.1 50.6 40.15 50.85 42.75 M51.15 34.95 Q51.9 31.85 51.85 28.65 L51.65 24.65 51.15 34.95 M44.9 46.45 L44.9 47.25 Q45.45 48.6 46.85 48.1 L47.6 47.8 44.9 46.45 M47.9 46.25 Q47.35 44.95 45.9 45.3 45.55 45.45 45.3 45.7 L47.95 47.0 47.9 46.25 M38.0 18.15 L38.1 16.8 29.9 16.9 31.25 53.15 37.5 53.45 37.55 53.2 Q36.9 35.65 38.0 18.15 M35.4 21.6 L35.0 20.95 32.75 21.0 32.45 21.65 35.4 21.6 M32.05 23.7 Q30.8 22.05 32.1 20.4 L32.25 20.3 Q33.9 18.95 35.6 20.25 L35.8 20.5 Q37.0 22.1 35.7 23.75 L35.55 23.9 Q33.9 25.2 32.2 23.85 L32.05 23.7 M35.4 48.0 Q37.9 50.5 35.05 52.15 L32.75 52.05 Q31.1 50.6 32.2 48.6 33.2 47.3 35.0 47.8 L35.4 48.0 M32.4 22.2 L32.8 22.85 35.05 22.8 35.35 22.15 32.4 22.2 M20.1 34.85 Q19.2 34.05 19.3 32.95 19.55 30.6 21.75 30.6 23.45 30.5 23.95 32.0 24.55 33.8 23.2 34.9 L20.1 34.85 M23.55 48.15 Q24.4 48.75 24.5 49.6 24.85 52.4 22.1 52.65 21.25 52.3 20.65 51.7 18.85 49.95 20.8 48.1 L23.55 48.15 M9.4 44.7 L9.2 45.45 Q9.35 46.9 10.75 47.05 L11.55 46.85 9.4 44.7 M9.05 47.25 L8.8 46.95 Q7.8 45.3 9.05 43.7 10.1 42.75 11.45 43.15 L12.0 43.35 Q13.1 43.95 13.25 45.45 13.05 47.15 11.75 47.7 10.7 48.45 9.05 47.25 M12.35 45.45 Q12.2 44.05 10.75 43.9 L10.0 44.1 12.15 46.25 12.35 45.45 M14.2 38.7 L7.45 38.8 8.6 53.65 Q9.45 54.1 10.5 54.05 L14.1 53.7 14.2 38.7 M21.65 31.4 L20.9 31.6 23.05 33.75 23.25 32.95 Q23.1 31.55 21.65 31.4 M22.45 34.35 L20.3 32.2 20.1 32.95 Q20.35 34.35 21.65 34.55 L22.45 34.35 M22.15 48.6 Q21.45 48.65 21.1 49.0 20.65 49.4 20.55 50.15 L20.75 50.9 22.85 48.8 22.15 48.6 M35.3 49.15 L33.1 49.1 32.65 49.55 32.6 50.35 35.3 49.15 M25.55 28.05 L17.9 28.15 19.3 53.15 24.75 53.25 25.55 28.05 M41.95 51.4 L41.85 49.6 38.7 51.3 38.55 53.05 38.35 54.05 42.0 52.4 41.95 51.4 M25.95 54.9 L23.3 55.25 Q28.6 56.35 33.95 55.25 L30.85 54.9 Q29.8 54.75 29.55 53.85 L29.45 53.4 26.6 53.3 25.95 54.9 M33.2 51.4 L34.55 51.7 35.7 49.95 33.2 51.4 M21.35 51.55 L22.1 51.75 Q23.9 51.55 23.6 49.7 L21.35 51.55 M15.15 51.45 L15.15 52.25 17.45 53.45 17.3 52.6 Q17.2 51.75 17.25 50.65 L15.1 49.4 15.15 51.45" fill="#5d0035" fill-rule="evenodd" stroke="none"/>
      <path d="M50.75 10.0 L50.45 13.35 Q49.55 33.1 49.45 52.9 L47.55 53.2 43.95 52.95 Q43.45 50.9 43.4 48.6 42.7 27.1 42.35 5.6 L51.2 5.6 50.75 10.0 M48.95 12.35 Q48.9 10.75 48.2 9.75 47.5 8.7 46.6 8.8 45.7 8.9 45.1 10.1 44.5 11.25 44.55 12.65 L44.6 45.2 Q43.75 46.05 44.1 47.55 44.8 49.15 46.3 49.2 46.8 49.75 47.7 49.65 L48.1 48.55 Q49.15 47.55 48.65 46.05 L48.3 45.2 48.05 41.5 Q47.2 35.85 47.35 30.15 47.65 21.15 48.95 12.35 M38.0 18.15 Q36.9 35.65 37.55 53.2 L37.5 53.45 31.25 53.15 29.9 16.9 38.1 16.8 38.0 18.15 M35.55 23.9 L35.7 23.75 Q37.0 22.1 35.8 20.5 L35.6 20.25 Q33.9 18.95 32.25 20.3 L32.1 20.4 Q30.8 22.05 32.05 23.7 32.7 32.75 31.85 41.85 31.65 43.75 31.7 45.7 31.7 47.3 32.2 48.6 31.1 50.6 32.75 52.05 L35.05 52.15 Q37.9 50.5 35.4 48.0 34.65 36.55 35.35 25.1 L35.55 23.9 M23.2 34.9 Q24.55 33.8 23.95 32.0 23.45 30.5 21.75 30.6 19.55 30.6 19.3 32.95 19.2 34.05 20.1 34.85 L20.8 48.1 Q18.85 49.95 20.65 51.7 21.25 52.3 22.1 52.65 24.85 52.4 24.5 49.6 24.4 48.75 23.55 48.15 L23.2 34.9 M9.05 43.7 Q7.8 45.3 8.8 46.95 L9.05 47.25 Q8.85 50.0 10.4 52.15 10.75 52.65 11.4 52.4 L11.75 47.7 Q13.05 47.15 13.25 45.45 13.1 43.95 12.0 43.35 12.3 41.75 11.6 40.3 L11.4 40.05 10.2 39.95 Q8.8 41.5 9.05 43.7 M14.2 38.7 L14.1 53.7 10.5 54.05 Q9.45 54.1 8.6 53.65 L7.45 38.8 14.2 38.7 M25.55 28.05 L24.75 53.25 19.3 53.15 17.9 28.15 25.55 28.05" fill="#e3c1d7" fill-rule="evenodd" stroke="none"/>
      <path d="M6.5 43.3 L6.6 44.65 Q1.65 37.85 1.4 28.65 1.7 17.1 9.4 9.45 17.05 1.75 28.6 1.45 35.75 1.65 41.4 4.8 L41.2 4.9 Q41.05 4.75 40.95 5.25 35.45 2.3 28.5 2.1 17.25 2.4 9.8 9.9 2.3 17.35 2.0 28.6 2.2 37.0 6.5 43.3 M40.85 11.15 L41.0 14.95 Q38.6 13.0 35.2 12.55 30.25 11.95 25.95 12.6 16.7 14.25 11.6 22.15 8.2 28.0 10.7 34.3 L12.05 37.4 9.6 37.55 Q7.6 32.95 7.75 27.7 7.85 22.9 10.4 19.05 15.75 11.05 25.25 9.1 33.55 7.45 40.85 11.15 M41.95 38.3 L41.95 42.75 39.4 43.95 Q39.25 42.35 39.25 40.75 L41.95 38.3 M29.3 44.85 L29.25 47.1 27.4 47.55 27.4 45.1 29.3 44.85 M17.4 42.55 L17.4 46.3 16.15 45.55 15.9 41.9 17.4 42.55 M52.05 16.5 L52.1 15.6 Q55.4 21.65 55.55 29.2 55.35 38.0 50.85 44.4 L50.85 42.75 Q54.75 36.6 54.95 28.6 54.75 21.85 52.05 16.5 M41.95 51.4 L42.0 52.4 38.35 54.05 38.55 53.05 41.95 51.4 M30.85 54.9 L33.95 55.25 Q28.6 56.35 23.3 55.25 L25.95 54.9 30.85 54.9 M17.3 52.6 L17.45 53.45 15.15 52.25 15.15 51.45 17.3 52.6" fill="#d2c0c0" fill-rule="evenodd" stroke="none"/>
      <path d="M44.15 4.15 L43.5 4.2 Q37.0 0.25 28.6 0.05 L29.2 0.0 Q37.65 0.2 44.15 4.15 M1.3 37.15 Q3.0 42.7 6.85 47.2 L6.9 47.7 Q2.95 43.0 1.3 37.15" fill="#8d3f6d" fill-rule="evenodd" stroke="none"/>
      <path d="M40.8 9.45 L40.85 11.15 Q33.55 7.45 25.25 9.1 15.75 11.05 10.4 19.05 7.85 22.9 7.75 27.7 7.6 32.95 9.6 37.55 L12.05 37.4 14.45 37.8 7.95 37.8 Q3.5 25.3 11.45 14.7 17.0 7.25 26.3 6.1 34.15 5.3 40.8 9.45 M41.95 42.75 L41.85 47.1 39.25 48.7 38.7 49.4 38.9 15.85 30.2 15.55 Q33.5 13.75 37.2 14.75 40.15 15.65 39.9 19.05 39.05 29.85 39.25 40.75 39.25 42.35 39.4 43.95 L41.95 42.75 M29.25 47.1 L29.25 51.35 26.7 51.5 26.7 27.55 26.4 27.25 Q22.25 25.8 17.8 27.05 19.55 26.25 21.6 26.15 L24.6 26.45 Q27.6 26.9 27.45 30.1 27.1 37.6 27.4 45.1 L27.4 47.55 29.25 47.1 M17.4 46.3 L17.35 48.85 15.05 47.8 15.3 38.55 15.9 41.9 16.15 45.55 17.4 46.3" fill="#bda3a3" fill-rule="evenodd" stroke="none"/>
      <path d="M7.95 37.8 L6.95 38.05 Q5.2 33.9 5.05 28.9 5.3 19.0 12.0 12.3 18.7 5.6 28.65 5.3 35.55 5.45 40.8 8.75 L40.8 9.45 Q34.15 5.3 26.3 6.1 17.0 7.25 11.45 14.7 3.5 25.3 7.95 37.8 M41.85 47.1 L41.85 47.95 38.7 49.8 38.7 49.4 39.25 48.7 41.85 47.1 M29.25 51.35 L29.25 52.05 26.7 51.95 26.7 51.5 29.25 51.35 M51.15 34.95 L51.65 24.65 51.85 28.65 Q51.9 31.85 51.15 34.95" fill="#aa8888" fill-rule="evenodd" stroke="none"/>
      <path d="M45.1 11.4 Q45.25 10.0 46.65 9.85 L47.45 10.1 45.35 12.2 45.1 11.4 M46.3 12.95 L48.05 10.7 Q48.75 12.6 46.65 13.0 L46.3 12.95 M44.9 46.45 L47.6 47.8 46.85 48.1 Q45.45 48.6 44.9 47.25 L44.9 46.45 M47.9 46.25 L47.95 47.0 45.3 45.7 Q45.55 45.45 45.9 45.3 47.35 44.95 47.9 46.25 M35.4 21.6 L32.45 21.65 32.75 21.0 35.0 20.95 35.4 21.6 M32.4 22.2 L35.35 22.15 35.05 22.8 32.8 22.85 32.4 22.2 M9.4 44.7 L11.55 46.85 10.75 47.05 Q9.35 46.9 9.2 45.45 L9.4 44.7 M12.35 45.45 L12.15 46.25 10.0 44.1 10.75 43.9 Q12.2 44.05 12.35 45.45 M22.45 34.35 L21.65 34.55 Q20.35 34.35 20.1 32.95 L20.3 32.2 22.45 34.35 M21.65 31.4 Q23.1 31.55 23.25 32.95 L23.05 33.75 20.9 31.6 21.65 31.4 M22.15 48.6 L22.85 48.8 20.75 50.9 20.55 50.15 Q20.65 49.4 21.1 49.0 21.45 48.65 22.15 48.6 M35.3 49.15 L32.6 50.35 32.65 49.55 33.1 49.1 35.3 49.15 M33.2 51.4 L35.7 49.95 34.55 51.7 33.2 51.4 M21.35 51.55 L23.6 49.7 Q23.9 51.55 22.1 51.75 L21.35 51.55" fill="#a68884" fill-rule="evenodd" stroke="none"/>
      <path d="M48.95 12.35 Q47.65 21.15 47.35 30.15 47.2 35.85 48.05 41.5 L48.3 45.2 Q47.35 44.0 45.65 44.45 L44.6 45.2 44.55 12.65 Q45.1 13.75 46.65 13.9 48.4 13.7 48.95 12.35 M48.1 48.55 L47.7 49.65 Q46.8 49.75 46.3 49.2 L48.1 48.55 M35.55 23.9 L35.35 25.1 Q34.65 36.55 35.4 48.0 L35.0 47.8 Q33.2 47.3 32.2 48.6 31.7 47.3 31.7 45.7 31.65 43.75 31.85 41.85 32.7 32.75 32.05 23.7 L32.2 23.85 Q33.9 25.2 35.55 23.9 M20.1 34.85 L23.2 34.9 23.55 48.15 20.8 48.1 20.1 34.85 M9.05 43.7 Q8.8 41.5 10.2 39.95 L11.4 40.05 11.6 40.3 Q12.3 41.75 12.0 43.35 L11.45 43.15 Q10.1 42.75 9.05 43.7 M11.75 47.7 L11.4 52.4 Q10.75 52.65 10.4 52.15 8.85 50.0 9.05 47.25 10.7 48.45 11.75 47.7" fill="#c7abb9" fill-rule="evenodd" stroke="none"/>
      <path d="M40.95 5.25 L40.85 7.15 Q31.5 2.15 21.3 5.15 11.65 8.15 7.05 17.05 1.4 28.1 6.05 39.7 L6.35 41.05 6.5 43.3 Q2.2 37.0 2.0 28.6 2.3 17.35 9.8 9.9 17.25 2.4 28.5 2.1 35.45 2.3 40.95 5.25 M41.0 14.95 L41.95 38.3 39.25 40.75 Q39.05 29.85 39.9 19.05 40.15 15.65 37.2 14.75 33.5 13.75 30.2 15.55 L28.85 16.2 29.3 44.85 27.4 45.1 Q27.1 37.6 27.45 30.1 27.6 26.9 24.6 26.45 L21.6 26.15 Q19.55 26.25 17.8 27.05 L16.8 27.7 17.4 42.55 15.9 41.9 15.3 38.55 14.45 37.8 12.05 37.4 10.7 34.3 Q8.2 28.0 11.6 22.15 16.7 14.25 25.95 12.6 30.25 11.95 35.2 12.55 38.6 13.0 41.0 14.95 M50.85 42.75 Q50.6 40.15 51.5 38.1 53.35 33.65 53.2 28.65 53.15 26.45 52.6 24.4 51.5 20.6 52.05 16.5 54.75 21.85 54.95 28.6 54.75 36.6 50.85 42.75 M38.55 53.05 L38.7 51.3 41.85 49.6 41.95 51.4 38.55 53.05 M25.95 54.9 L26.6 53.3 29.45 53.4 29.55 53.85 Q29.8 54.75 30.85 54.9 L25.95 54.9 M15.15 51.45 L15.1 49.4 17.25 50.65 Q17.2 51.75 17.3 52.6 L15.15 51.45" fill="#e3d7d7" fill-rule="evenodd" stroke="none"/>
    </g>
  </defs>
</svg>
