<?xml version="1.0" encoding="UTF-8" standalone="no"?>
<svg xmlns:xlink="http://www.w3.org/1999/xlink" height="468.95px" width="310.1px" xmlns="http://www.w3.org/2000/svg">
  <g transform="matrix(1.0, 0.0, 0.0, 1.0, 153.05, 468.95)">
    <use height="36.0" transform="matrix(1.0, 0.0, 0.0, 1.0, -79.55, -36.0)" width="159.0" xlink:href="#shape0"/>
    <use height="96.65" transform="matrix(1.0, 0.0, 0.0, 1.0, -27.15, -108.0)" width="54.2" xlink:href="#shape1"/>
    <use height="37.0" transform="matrix(1.0, 0.0, 0.0, 1.0, -92.65, -94.35)" width="185.25" xlink:href="#shape2"/>
    <use height="17.5" transform="matrix(1.0, 0.0, 0.0, 1.0, -77.15, -82.8)" width="156.65" xlink:href="#text0"/>
    <use height="276.7" transform="matrix(1.0, 0.0, 0.0, 1.0, -114.6, -376.65)" width="229.15" xlink:href="#shape3"/>
    <use height="264.75" transform="matrix(1.0, 0.0, 0.0, 1.0, -102.45, -365.85)" width="199.9" xlink:href="#shape4"/>
    <use height="57.25" transform="matrix(1.0, 0.0, 0.0, 1.0, -29.05, -208.95)" width="57.1" xlink:href="#shape5"/>
  </g>
  <defs>
    <g id="shape0" transform="matrix(1.0, 0.0, 0.0, 1.0, 0.0, 0.0)">
      <path d="M135.7 30.75 Q113.3 35.8 79.5 36.0 45.7 35.8 23.3 30.75 0.85 25.65 0.0 18.0 0.85 10.35 23.3 5.25 45.7 0.2 79.5 0.0 113.3 0.2 135.7 5.25 158.15 10.35 159.0 18.0 158.15 25.65 135.7 30.75" fill="#000000" fill-opacity="0.39607844" fill-rule="evenodd" stroke="none"/>
    </g>
    <g id="shape1" transform="matrix(1.0, 0.0, 0.0, 1.0, 0.0, 0.0)">
      <path d="M5.85 93.35 Q-0.15 90.4 0.0 90.0 L0.0 0.0 54.2 0.0 54.2 90.0 Q54.15 90.4 46.95 93.35 39.7 96.25 25.65 96.65 11.8 96.25 5.85 93.35" fill="url(#gradient0)" fill-rule="evenodd" stroke="none"/>
    </g>
    <linearGradient gradientTransform="matrix(0.0303, 0.0, 0.0, 0.0303, 25.7, 48.35)" gradientUnits="userSpaceOnUse" id="gradient0" spreadMethod="pad" x1="-819.2" x2="819.2">
      <stop offset="0.0" stop-color="#565656"/>
      <stop offset="0.403921568627451" stop-color="#9a9999"/>
      <stop offset="0.592156862745098" stop-color="#dbdbda"/>
      <stop offset="0.7803921568627451" stop-color="#9b9a9a"/>
      <stop offset="1.0" stop-color="#151213"/>
    </linearGradient>
    <g id="shape2" transform="matrix(1.0, 0.0, 0.0, 1.0, -0.05, 0.0)">
      <path d="M185.25 8.2 L185.3 8.25 185.25 8.25 185.25 8.2 M1.9 5.2 L2.3 2.85 18.75 2.05 59.05 0.7 Q83.4 0.05 109.4 0.3 115.1 0.55 118.85 1.6 122.65 2.7 128.15 3.0 L129.3 1.5 Q130.05 0.2 130.5 0.0 160.7 0.5 181.5 3.85 L183.45 6.1 103.3 3.5 Q60.0 3.6 6.5 5.1 L1.9 5.2 M176.25 8.0 L176.45 8.4 177.65 11.45 178.5 13.65 Q179.3 12.8 179.7 10.9 179.7 9.8 179.25 9.1 L179.9 9.55 Q180.65 10.3 180.7 11.75 179.85 15.7 177.15 15.05 175.8 14.75 175.1 13.85 L176.15 14.2 177.35 14.25 176.45 12.35 174.9 8.8 174.8 8.5 174.95 8.35 Q175.75 7.8 176.25 8.0 M178.25 27.3 L179.85 27.15 Q180.5 27.3 181.25 27.95 183.6 31.2 181.35 32.8 180.2 33.6 179.1 33.5 L180.8 32.15 178.8 31.55 175.1 30.4 175.2 29.1 175.2 29.0 175.25 28.7 175.4 28.75 175.85 28.9 178.95 30.05 181.1 30.85 Q181.0 29.65 179.9 28.15 179.05 27.45 178.25 27.3 M9.35 6.95 L10.7 10.45 11.7 12.9 Q12.6 11.95 13.05 9.85 13.05 8.55 12.5 7.75 13.85 8.35 14.15 10.05 L13.75 12.35 Q12.6 15.1 10.15 14.55 8.75 14.25 8.0 13.4 L7.85 13.2 9.0 13.6 10.35 13.65 9.35 11.4 7.6 7.45 8.75 6.6 9.2 6.55 9.35 6.95 M9.4 25.3 Q11.0 24.35 12.9 25.8 15.0 28.35 14.35 30.1 L13.4 31.3 Q12.2 32.25 10.95 32.25 L12.75 30.6 10.4 30.05 6.2 29.05 6.15 27.55 6.15 27.1 6.35 27.15 6.9 27.35 10.45 28.4 12.95 29.1 Q12.75 27.8 11.35 26.15 10.35 25.35 9.4 25.3" fill="#47525f" fill-rule="evenodd" stroke="none"/>
      <path d="M0.05 36.7 L0.75 22.9 Q1.05 14.95 1.6 7.0 L1.9 5.2 6.5 5.1 3.2 8.3 1.95 36.45 0.05 36.7" fill="#cdcdcd" fill-rule="evenodd" stroke="none"/>
      <path d="M13.75 12.35 L14.15 10.05 26.45 10.0 13.75 12.35 M8.0 13.4 L7.0 13.55 7.2 26.2 6.35 27.15 6.15 27.1 6.15 27.55 Q5.15 29.5 6.75 31.55 8.95 33.2 10.95 32.25 12.2 32.25 13.4 31.3 L14.35 30.1 16.45 30.2 36.65 31.3 56.5 32.6 Q50.4 32.9 38.0 32.9 L15.1 32.75 3.85 32.6 5.25 10.05 6.0 10.05 Q6.15 12.3 7.85 13.2 L8.0 13.4" fill="#848484" fill-rule="evenodd" stroke="none"/>
      <path d="M175.1 13.85 Q175.8 14.75 177.15 15.05 179.85 15.7 180.7 11.75 180.65 10.3 179.9 9.55 L180.85 9.65 179.85 27.15 178.25 27.3 177.7 27.3 177.8 15.2 160.95 13.3 Q144.35 11.4 115.0 6.95 144.55 7.2 162.45 8.35 L174.1 9.15 Q173.65 9.7 173.4 10.6 173.45 12.95 175.1 13.85 M175.3 32.3 L137.05 30.55 175.2 29.0 175.2 29.1 Q174.3 30.55 175.3 32.3" fill="#a09fa0" fill-rule="evenodd" stroke="none"/>
      <path d="M176.45 8.4 L176.25 8.0 176.9 7.95 Q178.55 8.05 179.25 9.1 179.7 9.8 179.7 10.9 179.3 12.8 178.5 13.65 L177.65 11.45 178.05 10.25 Q178.0 8.55 176.45 8.4 M174.8 8.5 L174.9 8.8 Q174.35 9.2 174.15 10.05 174.2 11.9 175.85 12.3 L176.45 12.35 177.35 14.25 176.15 14.2 175.1 13.85 Q173.45 12.95 173.4 10.6 173.65 9.7 174.1 9.15 L174.8 8.5 M177.7 27.3 L178.25 27.3 Q179.05 27.45 179.9 28.15 181.0 29.65 181.1 30.85 L178.95 30.05 178.3 28.9 Q177.0 27.8 175.85 28.9 L175.4 28.75 175.8 28.3 Q176.7 27.35 177.7 27.3 M179.1 33.5 Q177.3 34.2 175.5 32.65 L175.3 32.3 Q174.3 30.55 175.2 29.1 L175.1 30.4 Q175.25 32.1 176.95 32.35 178.0 32.25 178.8 31.55 L180.8 32.15 179.1 33.5 M10.7 10.45 L11.2 9.05 Q11.15 7.15 9.35 6.95 L9.2 6.55 9.9 6.5 Q11.75 6.6 12.5 7.75 13.05 8.55 13.05 9.85 12.6 11.95 11.7 12.9 L10.7 10.45 M7.2 26.2 Q8.2 25.2 9.4 25.3 10.35 25.35 11.35 26.15 12.75 27.8 12.95 29.1 L10.45 28.4 Q9.75 26.65 8.05 26.6 L6.9 27.35 6.35 27.15 7.2 26.2 M6.0 10.05 L5.95 9.55 Q6.6 7.0 8.75 6.6 L7.6 7.45 Q7.0 7.9 6.75 8.85 6.8 10.95 8.7 11.35 L9.35 11.4 10.35 13.65 9.0 13.6 7.85 13.2 Q6.15 12.3 6.0 10.05 M6.15 27.55 L6.2 29.05 Q6.45 30.9 8.2 31.1 9.7 31.2 10.4 30.05 L12.75 30.6 10.95 32.25 Q8.95 33.2 6.75 31.55 5.15 29.5 6.15 27.55" fill="#9c9c9c" fill-rule="evenodd" stroke="none"/>
      <path d="M174.9 8.8 L176.45 12.35 175.85 12.3 Q174.2 11.9 174.15 10.05 174.35 9.2 174.9 8.8 M177.65 11.45 L176.45 8.4 Q178.0 8.55 178.05 10.25 L177.65 11.45 M175.85 28.9 Q177.0 27.8 178.3 28.9 L178.95 30.05 175.85 28.9 M175.1 30.4 L178.8 31.55 Q178.0 32.25 176.95 32.35 175.25 32.1 175.1 30.4 M9.35 6.95 Q11.15 7.15 11.2 9.05 L10.7 10.45 9.35 6.95 M9.35 11.4 L8.7 11.35 Q6.8 10.95 6.75 8.85 7.0 7.9 7.6 7.45 L9.35 11.4 M10.45 28.4 L6.9 27.35 8.05 26.6 Q9.75 26.65 10.45 28.4 M6.2 29.05 L10.4 30.05 Q9.7 31.2 8.2 31.1 6.45 30.9 6.2 29.05" fill="#d5d4d4" fill-rule="evenodd" stroke="none"/>
      <path d="M183.45 6.1 L185.3 6.25 185.25 8.2 185.25 8.25 185.1 13.45 184.65 27.3 184.3 36.25 Q157.35 34.75 133.85 35.55 L89.2 37.0 Q65.15 37.15 43.55 35.85 22.0 34.5 0.05 36.75 L0.05 36.7 1.95 36.45 3.2 8.3 6.5 5.1 Q60.0 3.6 103.3 3.5 L183.45 6.1 M176.25 8.0 Q175.75 7.8 174.95 8.35 L174.8 8.5 174.1 9.15 162.45 8.35 Q144.55 7.2 115.0 6.95 144.35 11.4 160.95 13.3 L177.8 15.2 177.7 27.3 Q176.7 27.35 175.8 28.3 L175.4 28.75 175.25 28.7 175.2 29.0 137.05 30.55 175.3 32.3 175.5 32.65 Q177.3 34.2 179.1 33.5 180.2 33.6 181.35 32.8 183.6 31.2 181.25 27.95 180.5 27.3 179.85 27.15 L180.85 9.65 179.9 9.55 179.25 9.1 Q178.55 8.05 176.9 7.95 L176.25 8.0 M12.5 7.75 Q11.75 6.6 9.9 6.5 L9.2 6.55 8.75 6.6 Q6.6 7.0 5.95 9.55 L6.0 10.05 5.25 10.05 3.85 32.6 15.1 32.75 38.0 32.9 Q50.4 32.9 56.5 32.6 L36.65 31.3 16.45 30.2 14.35 30.1 Q15.0 28.35 12.9 25.8 11.0 24.35 9.4 25.3 8.2 25.2 7.2 26.2 L7.0 13.55 8.0 13.4 Q8.75 14.25 10.15 14.55 12.6 15.1 13.75 12.35 L26.45 10.0 14.15 10.05 Q13.85 8.35 12.5 7.75" fill="url(#gradient1)" fill-rule="evenodd" stroke="none"/>
    </g>
    <linearGradient gradientTransform="matrix(0.1131, 0.0, 0.0, 0.0204, 92.65, 20.25)" gradientUnits="userSpaceOnUse" id="gradient1" spreadMethod="pad" x1="-819.2" x2="819.2">
      <stop offset="0.0" stop-color="#9a9a9a"/>
      <stop offset="1.0" stop-color="#ffffff"/>
    </linearGradient>
    <g id="text0" transform="matrix(1.0, 0.0, 0.0, 1.0, 5.75, -5.75)">
      <g transform="matrix(1.0, 0.0, 0.0, 1.0, -7.0, 0.0)">
        <use fill="#000000" height="17.5" transform="matrix(0.4746, 0.0, 0.0, 0.4746, 0.0, 21.0)" width="156.65" xlink:href="#font_______W7_N0"/>
        <use fill="#000000" height="17.5" transform="matrix(0.4746, 0.0, 0.0, 0.4746, 16.9, 21.0)" width="156.65" xlink:href="#font_______W7_a0"/>
        <use fill="#000000" height="17.5" transform="matrix(0.4746, 0.0, 0.0, 0.4746, 30.75, 21.0)" width="156.65" xlink:href="#font_______W7_m0"/>
        <use fill="#000000" height="17.5" transform="matrix(0.4746, 0.0, 0.0, 0.4746, 48.3, 21.0)" width="156.65" xlink:href="#font_______W7_e0"/>
        <use fill="#000000" height="17.5" transform="matrix(0.4746, 0.0, 0.0, 0.4746, 69.65, 21.0)" width="156.65" xlink:href="#font_______W7_D0"/>
        <use fill="#000000" height="17.5" transform="matrix(0.4746, 0.0, 0.0, 0.4746, 86.25, 21.0)" width="156.65" xlink:href="#font_______W7_r0"/>
        <use fill="#000000" height="17.5" transform="matrix(0.4746, 0.0, 0.0, 0.4746, 95.2, 21.0)" width="156.65" xlink:href="#font_______W7_o0"/>
        <use fill="#000000" height="17.5" transform="matrix(0.4746, 0.0, 0.0, 0.4746, 108.05, 21.0)" width="156.65" xlink:href="#font_______W7_p0"/>
        <use fill="#000000" height="17.5" transform="matrix(0.4746, 0.0, 0.0, 0.4746, 121.9, 21.0)" width="156.65" xlink:href="#font_______W7_p0"/>
        <use fill="#000000" height="17.5" transform="matrix(0.4746, 0.0, 0.0, 0.4746, 135.75, 21.0)" width="156.65" xlink:href="#font_______W7_e0"/>
        <use fill="#000000" height="17.5" transform="matrix(0.4746, 0.0, 0.0, 0.4746, 149.15, 21.0)" width="156.65" xlink:href="#font_______W7_r0"/>
      </g>
    </g>
    <g id="font_______W7_N0">
      <path d="M23.5 -32.15 L23.5 -32.15 24.85 -14.2 9.85 -31.5 5.1 -32.15 2.55 0.05 12.6 -1.4 10.6 -23.35 25.9 0.05 30.75 -0.65 33.55 -30.75 23.5 -32.15" fill-rule="evenodd" stroke="none"/>
    </g>
    <g id="font_______W7_a0">
      <path d="M19.05 -8.85 L19.05 -8.85 18.5 -5.05 17.1 -9.0 Q14.35 -6.2 10.6 -6.2 9.95 -6.2 9.45 -6.75 9.0 -7.2 9.0 -7.85 9.0 -10.2 13.7 -10.2 15.9 -10.2 19.05 -8.85 M27.4 -6.8 L27.4 -6.8 Q27.4 -21.45 13.35 -21.45 7.15 -21.45 2.55 -18.35 L4.3 -14.35 Q8.3 -16.55 13.15 -16.55 17.85 -16.55 18.85 -13.35 15.4 -14.5 12.8 -14.5 8.6 -14.5 5.6 -12.8 1.8 -10.75 1.8 -6.95 1.8 -3.5 4.9 -1.55 7.55 0.05 11.15 0.05 13.95 0.05 17.35 -0.95 L17.0 0.15 26.7 -0.3 Q27.4 -3.45 27.4 -6.8" fill-rule="evenodd" stroke="none"/>
    </g>
    <g id="font_______W7_m0">
      <path d="M35.35 -9.0 L35.35 -9.0 Q35.35 -21.45 27.8 -21.45 24.2 -21.45 21.15 -18.8 19.2 -21.45 15.65 -21.45 12.4 -21.45 9.45 -19.2 L9.25 -20.75 4.35 -21.45 2.05 0.05 11.95 -1.4 10.25 -13.85 Q12.25 -15.8 13.75 -15.8 16.4 -15.8 16.4 -11.2 16.4 -8.95 15.2 -5.8 L12.95 -0.75 22.1 0.1 Q23.3 -4.75 23.3 -9.55 23.3 -12.35 22.95 -14.3 24.5 -15.7 25.75 -15.7 28.25 -15.7 28.25 -11.2 28.25 -7.95 25.1 -0.65 L34.25 0.2 Q35.35 -4.25 35.35 -9.0" fill-rule="evenodd" stroke="none"/>
    </g>
    <g id="font_______W7_e0">
      <path d="M19.45 -9.9 L19.45 -9.9 Q16.75 -7.55 13.6 -7.55 10.45 -7.55 9.15 -9.9 L19.45 -9.9 M9.0 -13.4 L9.0 -13.4 Q9.7 -14.95 11.5 -15.95 13.2 -16.8 15.1 -16.8 18.05 -16.8 19.65 -14.35 L9.0 -13.4 M23.25 -9.9 L23.25 -9.9 24.3 -9.9 26.7 -12.6 Q25.85 -16.7 22.9 -19.1 19.9 -21.45 15.15 -21.45 9.65 -21.45 5.9 -18.65 1.8 -15.6 1.8 -10.4 1.8 -5.35 5.8 -2.5 9.3 0.05 14.6 0.05 22.45 0.05 27.15 -4.25 L23.25 -9.9" fill-rule="evenodd" stroke="none"/>
    </g>
    <g id="font_______W7_D0">
      <path d="M26.25 -17.9 L26.25 -17.9 Q26.25 -14.65 24.8 -12.6 23.1 -10.25 20.0 -10.25 16.6 -10.25 14.1 -12.65 L12.3 -9.6 10.95 -24.15 Q14.8 -25.95 17.05 -25.95 20.5 -25.95 23.3 -23.65 26.25 -21.25 26.25 -17.9 M33.4 -15.95 L33.4 -15.95 Q33.4 -22.6 29.35 -27.0 25.15 -31.55 18.55 -31.55 14.75 -31.55 10.4 -29.7 L10.25 -31.5 5.3 -32.15 2.55 0.05 13.15 -1.1 13.1 -1.6 Q15.65 -0.6 18.75 -0.6 25.45 -0.6 29.5 -4.95 33.4 -9.15 33.4 -15.95" fill-rule="evenodd" stroke="none"/>
    </g>
    <g id="font_______W7_r0">
      <path d="M18.3 -20.6 L18.3 -20.6 Q16.55 -21.45 14.75 -21.45 11.5 -21.45 8.7 -18.65 L8.45 -20.75 4.45 -21.45 2.55 0.05 10.65 -1.4 9.3 -12.8 Q10.55 -14.85 12.3 -14.85 13.25 -14.85 14.55 -13.85 L16.55 -12.05 18.3 -20.6" fill-rule="evenodd" stroke="none"/>
    </g>
    <g id="font_______W7_o0">
      <path d="M15.8 -13.5 L15.8 -13.5 Q16.45 -11.85 16.45 -10.4 16.45 -6.85 12.35 -6.85 10.6 -6.85 9.35 -8.05 8.15 -9.35 8.15 -11.05 8.15 -13.25 9.8 -14.6 11.4 -16.0 13.7 -16.0 16.1 -16.0 18.3 -14.3 L15.8 -13.5 M25.7 -11.4 L25.7 -11.4 Q25.7 -13.8 24.75 -16.35 L21.25 -15.25 22.7 -17.2 Q18.35 -21.45 13.15 -21.45 8.45 -21.45 5.1 -18.2 1.8 -14.95 1.8 -10.3 1.8 -5.5 5.4 -2.65 8.65 0.05 13.65 0.05 18.75 0.05 22.2 -3.2 25.7 -6.4 25.7 -11.4" fill-rule="evenodd" stroke="none"/>
    </g>
    <g id="font_______W7_p0">
      <path d="M20.7 -12.7 L20.7 -12.7 Q20.7 -9.3 17.35 -9.3 14.95 -9.3 12.7 -12.0 L10.6 -8.4 10.05 -13.4 Q12.6 -16.55 16.2 -16.55 18.05 -16.55 19.35 -15.55 20.7 -14.5 20.7 -12.7 M27.8 -10.85 L27.8 -10.85 Q27.8 -15.55 24.6 -18.5 21.4 -21.45 16.7 -21.45 12.55 -21.45 9.35 -19.15 L9.2 -20.75 4.35 -21.45 2.05 4.75 11.95 3.3 11.35 -1.45 Q14.35 0.05 17.2 0.05 21.85 0.05 24.85 -3.05 27.8 -6.15 27.8 -10.85" fill-rule="evenodd" stroke="none"/>
    </g>
    <g id="shape3" transform="matrix(1.0, 0.0, 0.0, 1.0, 0.0, 0.0)">
      <path d="M174.35 76.95 L174.95 78.55 175.4 76.8 Q176.5 73.45 180.1 73.05 L181.4 74.1 181.35 74.95 Q180.55 79.65 175.6 79.2 176.7 80.2 178.25 80.2 181.8 79.9 182.2 76.55 182.6 78.65 181.45 80.3 179.95 82.4 177.65 81.8 174.0 80.8 174.35 76.95 M187.5 84.1 L191.35 81.15 164.55 44.7 73.35 6.7 58.05 22.0 32.75 11.95 20.55 63.9 55.9 82.25 69.3 77.4 79.55 104.3 65.4 111.3 18.8 132.4 3.75 179.0 10.75 256.95 13.65 260.35 217.4 170.95 211.25 137.05 161.8 103.75 187.5 84.1 M199.25 82.3 Q186.3 93.7 172.8 104.65 L170.55 106.45 Q191.2 119.5 212.4 131.65 L219.35 135.7 229.15 197.45 217.8 257.45 207.8 276.7 22.65 276.7 8.25 262.25 0.0 185.3 11.2 133.35 72.45 101.45 68.0 81.6 Q61.35 84.4 55.45 88.25 L54.7 88.75 17.2 65.55 29.0 4.35 Q40.9 11.25 52.9 17.55 54.75 18.55 56.7 19.35 63.3 11.8 68.75 3.35 70.0 1.45 72.05 0.0 L176.2 46.05 199.25 82.3 M210.65 180.35 L210.5 180.6 210.6 180.35 210.65 180.35 M209.3 183.85 L210.0 184.55 Q211.05 185.5 212.55 185.5 216.4 185.2 216.5 181.35 217.1 183.75 215.8 185.7 214.9 186.95 213.55 187.3 208.5 187.25 208.65 182.05 208.75 183.05 209.3 183.85 M223.4 187.65 L217.4 171.0 13.65 260.4 25.25 274.1 198.9 274.1 212.35 255.4 223.4 187.65 M28.9 60.35 L35.75 53.25 36.9 52.05 36.9 54.1 28.9 62.5 28.9 60.35 M39.85 57.05 Q40.55 61.3 37.05 63.65 34.05 65.6 30.8 63.95 L30.75 62.0 Q32.15 62.8 33.85 62.85 39.35 62.35 39.85 57.05 M32.95 133.1 L32.95 135.15 24.95 143.55 24.95 141.4 25.0 141.4 32.95 133.1 M35.95 138.1 Q36.5 141.75 33.95 144.15 31.9 146.1 29.2 145.5 L26.9 145.0 26.85 143.05 Q28.25 143.85 29.95 143.9 35.45 143.4 35.95 138.1 M66.4 245.1 L66.35 245.95 Q65.55 250.65 60.6 250.2 61.7 251.2 63.25 251.2 66.8 250.9 67.2 247.55 67.9 252.25 63.35 253.05 62.35 253.0 61.35 252.35 59.1 250.75 59.35 247.95 L59.95 249.55 Q60.4 244.9 65.1 244.05 L66.4 245.1" fill="#47525f" fill-rule="evenodd" stroke="none"/>
      <path d="M187.5 84.1 L161.8 103.75 211.25 137.05 217.4 170.95 13.65 260.35 10.75 256.95 3.75 179.0 18.8 132.4 65.4 111.3 187.5 84.1 M37.7 54.75 L38.7 53.65 Q39.35 57.55 36.35 60.25 34.0 62.4 30.75 62.0 L37.7 54.75 M32.95 135.15 L32.95 133.1 32.4 132.9 Q30.9 131.7 28.55 132.45 24.4 133.85 23.75 138.15 L23.75 140.5 Q23.55 141.25 24.95 143.55 L26.9 145.0 29.2 145.5 Q31.9 146.1 33.95 144.15 36.5 141.75 35.95 138.1 36.1 136.25 34.8 134.7 35.3 137.0 34.1 139.15 31.65 143.55 26.85 143.05 L33.75 135.8 32.95 135.15 M25.0 141.4 L24.95 141.4 24.95 141.35 25.0 141.4 M24.75 139.9 L24.7 140.1 24.7 140.05 24.75 139.9" fill="#bab9ba" fill-rule="evenodd" stroke="none"/>
      <path d="M180.1 73.05 L179.25 72.75 Q174.65 72.35 174.35 76.95 174.0 80.8 177.65 81.8 179.95 82.4 181.45 80.3 182.6 78.65 182.2 76.55 L181.4 74.1 180.1 73.05 M65.4 111.3 L79.55 104.3 69.3 77.4 55.9 82.25 20.55 63.9 32.75 11.95 58.05 22.0 73.35 6.7 164.55 44.7 191.35 81.15 187.5 84.1 65.4 111.3 M215.7 179.45 L214.45 178.4 Q212.7 178.55 211.15 179.8 212.5 178.5 214.45 178.35 L213.6 178.05 Q209.2 177.65 208.65 182.05 208.5 187.25 213.55 187.3 214.9 186.95 215.8 185.7 217.1 183.75 216.5 181.35 L215.7 179.45 M210.75 180.2 L210.65 180.35 210.6 180.35 210.75 180.2 M223.4 187.65 L212.35 255.4 198.9 274.1 25.25 274.1 13.65 260.4 217.4 171.0 223.4 187.65 M36.5 51.8 Q33.3 50.3 30.45 52.35 27.9 54.1 27.7 57.1 L27.7 59.45 Q27.5 60.2 28.9 62.5 L30.8 63.95 Q34.05 65.6 37.05 63.65 40.55 61.3 39.85 57.05 L39.85 56.8 Q39.8 55.0 38.7 53.65 L37.7 54.75 36.9 54.1 36.9 52.05 35.75 53.25 36.85 52.05 36.5 51.8 M66.4 245.1 L65.1 244.05 64.25 243.75 Q59.65 243.35 59.35 247.95 59.1 250.75 61.35 252.35 62.35 253.0 63.35 253.05 67.9 252.25 67.2 247.55 L66.4 245.1" fill="#9c9c9c" fill-rule="evenodd" stroke="none"/>
      <path d="M174.35 76.95 Q174.65 72.35 179.25 72.75 L180.1 73.05 Q176.5 73.45 175.4 76.8 L174.95 78.55 174.35 76.95 M211.15 179.8 L210.75 180.2 210.6 180.35 210.5 180.6 210.45 180.6 209.3 183.85 Q208.75 183.05 208.65 182.05 209.2 177.65 213.6 178.05 L214.45 178.35 Q212.5 178.5 211.15 179.8 M36.5 51.8 L35.7 52.1 Q29.9 54.1 28.55 59.85 27.8 58.55 27.7 57.1 27.9 54.1 30.45 52.35 33.3 50.3 36.5 51.8 M23.75 138.15 Q24.4 133.85 28.55 132.45 30.9 131.7 32.4 132.9 27.8 134.55 25.35 138.75 L24.75 139.9 24.7 140.05 24.6 140.9 Q23.85 139.6 23.75 138.15 M65.1 244.05 Q60.4 244.9 59.95 249.55 L59.35 247.95 Q59.65 243.35 64.25 243.75 L65.1 244.05" fill="#e9e9eb" fill-rule="evenodd" stroke="none"/>
      <path d="M215.7 179.45 Q215.75 180.95 214.95 182.15 213.0 184.95 210.0 184.55 L209.3 183.85 210.45 180.6 210.5 180.6 210.65 180.35 210.75 180.2 211.15 179.8 Q212.7 178.55 214.45 178.4 L215.7 179.45 M28.55 59.85 Q29.9 54.1 35.7 52.1 L36.5 51.8 36.85 52.05 35.75 53.25 28.9 60.35 28.55 59.85 M32.4 132.9 L32.95 133.1 25.0 141.4 24.95 141.35 24.65 140.9 24.7 140.1 24.75 139.9 25.35 138.75 Q27.8 134.55 32.4 132.9" fill="#d0cfd0" fill-rule="evenodd" stroke="none"/>
      <path d="M181.4 74.1 L182.2 76.55 Q181.8 79.9 178.25 80.2 176.7 80.2 175.6 79.2 180.55 79.65 181.35 74.95 L181.4 74.1 M210.0 184.55 Q213.0 184.95 214.95 182.15 215.75 180.95 215.7 179.45 L216.5 181.35 Q216.4 185.2 212.55 185.5 211.05 185.5 210.0 184.55 M38.7 53.65 Q39.8 55.0 39.85 56.8 L39.85 57.05 Q39.35 62.35 33.85 62.85 32.15 62.8 30.75 62.0 34.0 62.4 36.35 60.25 39.35 57.55 38.7 53.65 M26.85 143.05 Q31.65 143.55 34.1 139.15 35.3 137.0 34.8 134.7 36.1 136.25 35.95 138.1 35.45 143.4 29.95 143.9 28.25 143.85 26.85 143.05 M67.2 247.55 Q66.8 250.9 63.25 251.2 61.7 251.2 60.6 250.2 65.55 250.65 66.35 245.95 L66.4 245.1 67.2 247.55" fill="#b0aeb3" fill-rule="evenodd" stroke="none"/>
      <path d="M36.9 54.1 L37.7 54.75 30.75 62.0 30.8 63.95 28.9 62.5 36.9 54.1 M32.95 135.15 L33.75 135.8 26.85 143.05 26.9 145.0 24.95 143.55 32.95 135.15" fill="#57565b" fill-rule="evenodd" stroke="none"/>
      <path d="M27.7 57.1 Q27.8 58.55 28.55 59.85 L28.9 60.35 28.9 62.5 Q27.5 60.2 27.7 59.45 L27.7 57.1 M24.95 143.55 Q23.55 141.25 23.75 140.5 L23.75 138.15 Q23.85 139.6 24.6 140.9 L24.7 140.05 24.7 140.1 24.65 140.9 24.95 141.35 24.95 141.4 24.95 143.55" fill="#79818b" fill-rule="evenodd" stroke="none"/>
    </g>
    <g id="shape4" transform="matrix(1.0, 0.0, 0.0, 1.0, 0.0, 0.0)">
      <path d="M162.9 67.4 L153.05 59.15 149.75 59.15 Q143.45 59.25 138.05 56.15 138.0 61.6 133.3 64.55 127.75 67.9 122.1 70.75 116.45 73.5 113.7 79.0 132.6 65.8 155.8 66.7 L162.9 67.4 M169.55 69.95 L168.2 71.3 Q152.25 83.05 137.8 96.5 L195.3 131.9 196.0 133.05 199.9 181.65 197.35 218.5 190.15 239.15 193.0 243.5 Q183.9 253.5 173.35 261.75 L155.8 245.5 158.7 241.15 Q153.65 224.95 147.1 209.4 L141.55 216.1 148.7 263.45 147.3 264.75 82.0 264.35 57.8 263.8 56.75 262.15 62.35 220.75 49.9 207.3 49.15 211.3 Q48.45 215.3 48.2 219.35 47.45 233.1 42.6 245.9 L45.3 250.8 27.95 263.65 Q27.2 263.45 26.7 263.0 L6.1 245.35 7.25 243.15 3.45 226.85 0.0 179.9 10.0 135.15 10.7 134.15 71.4 98.15 Q73.55 90.55 70.4 82.9 L59.85 56.85 52.6 62.9 51.15 62.7 18.15 39.35 17.7 38.75 29.35 13.65 30.35 13.05 45.4 19.55 62.95 0.0 63.45 0.1 103.4 20.3 145.05 42.2 144.4 43.45 135.0 44.8 140.6 47.8 Q157.0 56.25 169.55 69.95 M196.9 181.8 L193.35 137.7 149.5 207.05 160.3 235.2 166.95 227.45 167.25 227.3 167.95 227.15 Q174.1 227.7 179.35 230.15 183.9 232.4 187.55 236.55 L188.15 236.5 194.4 218.1 196.9 181.8 M166.35 117.6 L164.95 129.1 139.5 131.8 147.4 139.85 146.95 140.9 86.95 199.15 84.25 261.15 145.55 261.75 138.5 215.9 147.25 205.0 192.4 133.6 166.35 117.6 M162.85 126.35 L163.45 115.9 136.7 99.35 127.85 134.5 127.65 135.05 126.1 135.6 121.95 129.95 104.9 166.45 91.7 190.35 143.75 139.85 134.55 130.75 Q134.7 129.5 135.95 129.55 L162.85 126.35 M71.75 78.7 Q74.0 84.95 75.0 91.45 75.45 94.4 75.25 97.35 L96.05 107.55 96.1 108.2 103.5 156.05 107.1 106.35 108.1 104.85 138.8 90.75 Q130.5 90.25 123.85 85.2 122.75 84.3 121.45 84.15 L109.85 82.95 Q111.15 73.8 119.25 68.9 124.3 65.85 129.5 63.15 135.85 59.9 134.9 53.65 L135.45 52.55 149.3 56.2 131.1 45.8 130.75 44.05 Q126.5 47.2 124.05 51.85 L123.95 52.2 123.0 52.2 120.3 47.1 121.25 46.0 122.15 46.55 123.4 49.0 Q126.25 44.25 131.3 41.85 L131.65 41.8 132.25 42.45 137.8 41.25 123.7 34.05 123.05 35.05 114.6 32.15 Q109.5 34.9 105.6 39.15 L105.3 39.35 104.5 38.0 Q107.5 34.4 111.0 31.35 L112.15 30.55 Q108.35 28.5 105.15 31.2 L104.3 32.05 103.55 32.25 103.15 32.1 102.7 31.45 Q106.3 26.05 112.7 28.5 L114.25 29.2 100.55 22.25 63.15 3.35 46.45 22.8 31.4 16.3 20.9 37.6 51.95 59.55 59.9 53.0 Q60.95 52.7 61.3 53.6 L71.75 78.7 M78.35 71.45 Q79.1 66.25 83.95 64.7 87.1 63.6 89.25 66.0 95.6 73.2 89.35 80.1 87.6 82.0 85.2 81.5 77.65 80.05 78.3 72.1 L78.35 71.45 M119.8 37.7 L120.1 38.4 119.5 39.35 108.0 39.35 107.45 38.8 107.65 37.7 119.8 37.7 M120.5 36.4 L120.9 35.35 121.95 35.25 Q123.95 38.7 121.5 42.2 120.3 43.9 118.3 44.7 L117.4 44.1 Q119.7 40.85 121.1 37.2 L120.5 36.4 M85.3 78.75 Q89.0 78.05 89.4 73.0 L89.4 72.9 Q89.0 67.85 85.3 67.15 81.65 67.8 81.2 72.9 L81.2 73.05 Q81.65 78.05 85.3 78.75 M11.95 140.15 L3.05 179.95 6.45 226.6 9.55 239.85 17.5 228.6 Q17.65 228.35 17.95 228.4 L27.25 226.65 28.15 226.85 Q35.25 230.75 42.35 234.75 L42.6 231.35 43.05 227.95 Q45.0 216.25 47.45 204.55 L30.4 180.35 11.95 140.15 M41.1 119.7 L42.25 124.95 70.75 128.2 Q71.0 128.25 71.2 128.45 L71.6 128.65 Q72.6 129.75 71.25 130.35 64.55 133.45 57.6 136.0 L98.1 172.45 101.9 165.65 84.2 126.95 80.0 133.3 79.75 133.6 Q77.95 134.55 77.35 132.75 L71.95 101.5 41.1 119.7 M64.1 130.5 L40.4 127.7 40.0 127.4 38.4 121.35 13.4 136.05 32.95 178.75 65.25 219.45 65.4 220.4 59.9 260.9 81.25 261.1 83.95 198.6 96.6 175.15 53.5 136.35 53.65 134.85 Q58.9 132.7 64.1 130.5 M137.35 87.7 L141.8 87.75 165.35 69.85 Q139.35 65.1 116.65 79.2 125.4 81.25 133.0 86.2 134.9 87.4 137.35 87.7 M74.8 100.5 L79.65 128.5 92.4 108.85 74.8 100.5 M93.75 112.35 L86.2 124.0 100.3 154.9 93.75 112.35 M120.05 127.0 L109.8 110.9 106.5 155.95 120.05 127.0 M133.7 99.15 L110.9 107.05 125.8 130.4 133.7 99.15 M178.85 231.0 L168.45 230.2 161.4 238.6 161.7 240.8 168.05 246.45 170.1 244.9 169.75 244.5 Q169.35 244.0 169.4 243.4 169.45 242.8 169.95 242.4 170.45 242.0 171.05 242.05 171.65 242.1 172.05 242.6 L175.2 246.45 Q175.6 246.95 175.55 247.55 L175.0 248.55 173.9 248.9 172.9 248.35 172.0 247.25 168.85 249.55 167.9 249.85 166.95 249.5 160.45 243.75 159.35 245.25 173.35 258.4 189.65 243.45 185.95 239.2 185.9 239.15 185.65 238.85 178.85 231.0 M27.2 229.65 L19.5 230.8 9.65 244.95 27.55 260.2 41.9 250.2 40.65 248.35 38.1 250.4 37.75 250.55 33.9 251.05 33.5 251.0 26.55 247.75 26.35 248.55 26.05 249.05 Q25.25 250.15 24.1 249.4 L23.7 248.95 23.55 248.5 Q23.8 244.1 25.8 240.45 L26.4 240.3 26.9 240.45 Q28.25 240.8 27.95 242.15 L27.3 244.85 34.35 248.1 36.6 247.85 39.65 245.3 42.05 238.0 27.2 229.65" fill="#1a1a1a" fill-rule="evenodd" stroke="none"/>
      <path d="M162.9 67.4 L155.8 66.7 Q132.6 65.8 113.7 79.0 116.45 73.5 122.1 70.75 127.75 67.9 133.3 64.55 138.0 61.6 138.05 56.15 143.45 59.25 149.75 59.15 L153.05 59.15 162.9 67.4 M162.85 126.35 L135.95 129.55 Q134.7 129.5 134.55 130.75 L143.75 139.85 91.7 190.35 104.9 166.45 121.95 129.95 126.1 135.6 127.65 135.05 127.85 134.5 136.7 99.35 163.45 115.9 162.85 126.35 M166.35 117.6 L192.4 133.6 147.25 205.0 138.5 215.9 145.55 261.75 84.25 261.15 86.95 199.15 146.95 140.9 147.4 139.85 139.5 131.8 164.95 129.1 166.35 117.6 M196.9 181.8 L194.4 218.1 188.15 236.5 187.55 236.55 Q183.9 232.4 179.35 230.15 174.1 227.7 167.95 227.15 L167.25 227.3 166.95 227.45 160.3 235.2 149.5 207.05 193.35 137.7 196.9 181.8 M85.3 78.75 Q81.65 78.05 81.2 73.05 L81.2 72.9 Q81.65 67.8 85.3 67.15 89.0 67.85 89.4 72.9 L89.4 73.0 Q89.0 78.05 85.3 78.75 M137.35 87.7 Q134.9 87.4 133.0 86.2 125.4 81.25 116.65 79.2 139.35 65.1 165.35 69.85 L141.8 87.75 137.35 87.7 M64.1 130.5 Q58.9 132.7 53.65 134.85 L53.5 136.35 96.6 175.15 83.95 198.6 81.25 261.1 59.9 260.9 65.4 220.4 65.25 219.45 32.95 178.75 13.4 136.05 38.4 121.35 40.0 127.4 40.4 127.7 64.1 130.5 M41.1 119.7 L71.95 101.5 77.35 132.75 Q77.95 134.55 79.75 133.6 L80.0 133.3 84.2 126.95 101.9 165.65 98.1 172.45 57.6 136.0 Q64.55 133.45 71.25 130.35 72.6 129.75 71.6 128.65 L71.2 128.45 Q71.0 128.25 70.75 128.2 L42.25 124.95 41.1 119.7 M11.95 140.15 L30.4 180.35 47.45 204.55 Q45.0 216.25 43.05 227.95 L42.6 231.35 42.35 234.75 Q35.25 230.75 28.15 226.85 L27.25 226.65 17.95 228.4 Q17.65 228.35 17.5 228.6 L9.55 239.85 6.45 226.6 3.05 179.95 11.95 140.15" fill="#8d254e" fill-rule="evenodd" stroke="none"/>
      <path d="M100.55 22.25 L114.25 29.2 112.7 28.5 Q106.3 26.05 102.7 31.45 L103.15 32.1 103.55 32.25 104.3 32.05 105.15 31.2 Q108.35 28.5 112.15 30.55 L111.0 31.35 Q107.5 34.4 104.5 38.0 L105.3 39.35 105.6 39.15 Q109.5 34.9 114.6 32.15 L123.05 35.05 123.7 34.05 137.8 41.25 132.25 42.45 131.65 41.8 131.3 41.85 Q126.25 44.25 123.4 49.0 L122.15 46.55 121.25 46.0 120.3 47.1 123.0 52.2 123.95 52.2 124.05 51.85 Q126.5 47.2 130.75 44.05 L131.1 45.8 149.3 56.2 135.45 52.55 134.9 53.65 Q135.85 59.9 129.5 63.15 124.3 65.85 119.25 68.9 111.15 73.8 109.85 82.95 L121.45 84.15 Q122.75 84.3 123.85 85.2 130.5 90.25 138.8 90.75 L108.1 104.85 107.1 106.35 103.5 156.05 96.1 108.2 96.05 107.55 75.25 97.35 Q75.45 94.4 75.0 91.45 74.0 84.95 71.75 78.7 L72.45 77.3 Q74.3 73.3 78.3 72.1 77.65 80.05 85.2 81.5 87.6 82.0 89.35 80.1 95.6 73.2 89.25 66.0 87.1 63.6 83.95 64.7 79.1 66.25 78.35 71.45 73.35 68.9 72.6 63.15 71.9 58.15 74.4 53.85 75.75 51.5 78.4 51.8 81.05 52.35 83.15 54.1 89.05 49.7 89.85 42.1 90.45 36.2 89.55 30.55 87.75 31.25 86.15 30.25 85.4 29.75 85.2 28.95 86.35 26.95 88.55 26.15 94.55 23.95 100.55 22.25 M120.5 36.4 L121.1 37.2 Q119.7 40.85 117.4 44.1 L118.3 44.7 Q120.3 43.9 121.5 42.2 123.95 38.7 121.95 35.25 L120.9 35.35 120.5 36.4 M119.8 37.7 L107.65 37.7 107.45 38.8 108.0 39.35 119.5 39.35 120.1 38.4 119.8 37.7 M27.2 229.65 L42.05 238.0 39.65 245.3 36.6 247.85 34.35 248.1 27.3 244.85 27.95 242.15 Q28.25 240.8 26.9 240.45 L26.4 240.3 25.8 240.45 Q23.8 244.1 23.55 248.5 L23.7 248.95 24.1 249.4 Q25.25 250.15 26.05 249.05 L26.35 248.55 26.55 247.75 33.5 251.0 33.9 251.05 37.75 250.55 38.1 250.4 40.65 248.35 41.9 250.2 27.55 260.2 9.65 244.95 19.5 230.8 27.2 229.65 M178.85 231.0 L185.65 238.85 185.9 239.15 185.95 239.2 189.65 243.45 173.35 258.4 159.35 245.25 160.45 243.75 166.95 249.5 167.9 249.85 168.85 249.55 172.0 247.25 172.9 248.35 173.9 248.9 175.0 248.55 175.55 247.55 Q175.6 246.95 175.2 246.45 L172.05 242.6 Q171.65 242.1 171.05 242.05 170.45 242.0 169.95 242.4 169.45 242.8 169.4 243.4 169.35 244.0 169.75 244.5 L170.1 244.9 168.05 246.45 161.7 240.8 161.4 238.6 168.45 230.2 178.85 231.0" fill="#e3aed5" fill-rule="evenodd" stroke="none"/>
      <path d="M71.75 78.7 L61.3 53.6 Q60.95 52.7 59.9 53.0 L51.95 59.55 20.9 37.6 31.4 16.3 46.45 22.8 63.15 3.35 100.55 22.25 Q94.55 23.95 88.55 26.15 86.35 26.95 85.2 28.95 85.4 29.75 86.15 30.25 87.75 31.25 89.55 30.55 90.45 36.2 89.85 42.1 89.05 49.7 83.15 54.1 81.05 52.35 78.4 51.8 75.75 51.5 74.4 53.85 71.9 58.15 72.6 63.15 73.35 68.9 78.35 71.45 L78.3 72.1 Q74.3 73.3 72.45 77.3 L71.75 78.7" fill="#762e8b" fill-rule="evenodd" stroke="none"/>
      <path d="M133.7 99.15 L125.8 130.4 110.9 107.05 133.7 99.15 M120.05 127.0 L106.5 155.95 109.8 110.9 120.05 127.0 M93.75 112.35 L100.3 154.9 86.2 124.0 93.75 112.35 M74.8 100.5 L92.4 108.85 79.65 128.5 74.8 100.5" fill="#ffe1e9" fill-rule="evenodd" stroke="none"/>
    </g>
    <g id="shape5" transform="matrix(1.0, 0.0, 0.0, 1.0, -0.1, 0.0)">
      <path d="M44.15 4.15 Q48.25 3.4 52.05 4.8 L52.4 5.0 52.3 11.35 52.25 12.55 Q56.95 19.4 57.2 28.65 56.95 39.1 50.85 46.55 L50.85 48.45 50.25 54.2 Q46.95 55.8 43.1 54.6 L42.4 54.05 42.25 53.8 Q36.25 57.05 28.6 57.25 20.95 57.05 14.95 53.75 L14.75 54.3 14.4 54.75 8.05 54.95 Q6.45 53.25 6.75 50.75 L6.9 47.7 6.85 47.2 Q3.0 42.7 1.3 37.15 -0.8 29.9 0.85 22.5 2.4 15.75 6.8 10.6 15.0 0.95 27.95 0.05 L28.3 0.05 28.6 0.05 Q37.0 0.25 43.5 4.2 L44.15 4.15 M50.75 10.0 L51.2 5.6 42.35 5.6 Q42.7 27.1 43.4 48.6 43.45 50.9 43.95 52.95 L47.55 53.2 49.45 52.9 Q49.55 33.1 50.45 13.35 L50.75 10.0 M40.95 5.25 Q41.05 4.75 41.2 4.9 L41.4 4.8 Q35.75 1.65 28.6 1.45 17.05 1.75 9.4 9.45 1.7 17.1 1.4 28.65 1.65 37.85 6.6 44.65 L6.5 43.3 6.35 41.05 6.05 39.7 Q1.4 28.1 7.05 17.05 11.65 8.15 21.3 5.15 31.5 2.15 40.85 7.15 L40.95 5.25 M45.1 11.4 L45.35 12.2 47.45 10.1 46.65 9.85 Q45.25 10.0 45.1 11.4 M40.8 9.45 L40.8 8.75 Q35.55 5.45 28.65 5.3 18.7 5.6 12.0 12.3 5.3 19.0 5.05 28.9 5.2 33.9 6.95 38.05 L7.95 37.8 14.45 37.8 15.3 38.55 15.05 47.8 17.35 48.85 17.4 46.3 17.4 42.55 16.8 27.7 17.8 27.05 Q22.25 25.8 26.4 27.25 L26.7 27.55 26.7 51.5 26.7 51.95 29.25 52.05 29.25 51.35 29.25 47.1 29.3 44.85 28.85 16.2 30.2 15.55 38.9 15.85 38.7 49.4 38.7 49.8 41.85 47.95 41.85 47.1 41.95 42.75 41.95 38.3 41.0 14.95 40.85 11.15 40.8 9.45 M44.55 12.65 Q44.5 11.25 45.1 10.1 45.7 8.9 46.6 8.8 47.5 8.7 48.2 9.75 48.9 10.75 48.95 12.35 48.4 13.7 46.65 13.9 45.1 13.75 44.55 12.65 M48.3 45.2 L48.65 46.05 Q49.15 47.55 48.1 48.55 L46.3 49.2 Q44.8 49.15 44.1 47.55 43.75 46.05 44.6 45.2 L45.65 44.45 Q47.35 44.0 48.3 45.2 M46.3 12.95 L46.65 13.0 Q48.75 12.6 48.05 10.7 L46.3 12.95 M50.85 42.75 L50.85 44.4 Q55.35 38.0 55.55 29.2 55.4 21.65 52.1 15.6 L52.05 16.5 Q51.5 20.6 52.6 24.4 53.15 26.45 53.2 28.65 53.35 33.65 51.5 38.1 50.6 40.15 50.85 42.75 M51.15 34.95 Q51.9 31.85 51.85 28.65 L51.65 24.65 51.15 34.95 M44.9 46.45 L44.9 47.25 Q45.45 48.6 46.85 48.1 L47.6 47.8 44.9 46.45 M47.9 46.25 Q47.35 44.95 45.9 45.3 45.55 45.45 45.3 45.7 L47.95 47.0 47.9 46.25 M38.0 18.15 L38.1 16.8 29.9 16.9 31.25 53.15 37.5 53.45 37.55 53.2 Q36.9 35.65 38.0 18.15 M35.4 21.6 L35.0 20.95 32.75 21.0 32.45 21.65 35.4 21.6 M32.05 23.7 Q30.8 22.05 32.1 20.4 L32.25 20.3 Q33.9 18.95 35.6 20.25 L35.8 20.5 Q37.0 22.1 35.7 23.75 L35.55 23.9 Q33.9 25.2 32.2 23.85 L32.05 23.7 M35.4 48.0 Q37.9 50.5 35.05 52.15 L32.75 52.05 Q31.1 50.6 32.2 48.6 33.2 47.3 35.0 47.8 L35.4 48.0 M32.4 22.2 L32.8 22.85 35.05 22.8 35.35 22.15 32.4 22.2 M20.1 34.85 Q19.2 34.05 19.3 32.95 19.55 30.6 21.75 30.6 23.45 30.5 23.95 32.0 24.55 33.8 23.2 34.9 L20.1 34.85 M23.55 48.15 Q24.4 48.75 24.5 49.6 24.85 52.4 22.1 52.65 21.25 52.3 20.65 51.7 18.85 49.95 20.8 48.1 L23.55 48.15 M9.4 44.7 L9.2 45.45 Q9.35 46.9 10.75 47.05 L11.55 46.85 9.4 44.7 M9.05 47.25 L8.8 46.95 Q7.8 45.3 9.05 43.7 10.1 42.75 11.45 43.15 L12.0 43.35 Q13.1 43.95 13.25 45.45 13.05 47.15 11.75 47.7 10.7 48.45 9.05 47.25 M12.35 45.45 Q12.2 44.05 10.75 43.9 L10.0 44.1 12.15 46.25 12.35 45.45 M14.2 38.7 L7.45 38.8 8.6 53.65 Q9.45 54.1 10.5 54.05 L14.1 53.7 14.2 38.7 M21.65 31.4 L20.9 31.6 23.05 33.75 23.25 32.95 Q23.1 31.55 21.65 31.4 M22.45 34.35 L20.3 32.2 20.1 32.95 Q20.35 34.35 21.65 34.55 L22.45 34.35 M22.15 48.6 Q21.45 48.65 21.1 49.0 20.65 49.4 20.55 50.15 L20.75 50.9 22.85 48.8 22.15 48.6 M35.3 49.15 L33.1 49.1 32.65 49.55 32.6 50.35 35.3 49.15 M25.55 28.05 L17.9 28.15 19.3 53.15 24.75 53.25 25.55 28.05 M41.95 51.4 L41.85 49.6 38.7 51.3 38.55 53.05 38.35 54.05 42.0 52.4 41.95 51.4 M25.95 54.9 L23.3 55.25 Q28.6 56.35 33.95 55.25 L30.85 54.9 Q29.8 54.75 29.55 53.85 L29.45 53.4 26.6 53.3 25.95 54.9 M33.2 51.4 L34.55 51.7 35.7 49.95 33.2 51.4 M21.35 51.55 L22.1 51.75 Q23.9 51.55 23.6 49.7 L21.35 51.55 M15.15 51.45 L15.15 52.25 17.45 53.45 17.3 52.6 Q17.2 51.75 17.25 50.65 L15.1 49.4 15.15 51.45" fill="#5d0035" fill-rule="evenodd" stroke="none"/>
      <path d="M50.75 10.0 L50.45 13.35 Q49.55 33.1 49.45 52.9 L47.55 53.2 43.95 52.95 Q43.45 50.9 43.4 48.6 42.7 27.1 42.35 5.6 L51.2 5.6 50.75 10.0 M48.95 12.35 Q48.9 10.75 48.2 9.75 47.5 8.7 46.6 8.8 45.7 8.9 45.1 10.1 44.5 11.25 44.55 12.65 L44.6 45.2 Q43.75 46.05 44.1 47.55 44.8 49.15 46.3 49.2 46.8 49.75 47.7 49.65 L48.1 48.55 Q49.15 47.55 48.65 46.05 L48.3 45.2 48.05 41.5 Q47.2 35.85 47.35 30.15 47.65 21.15 48.95 12.35 M38.0 18.15 Q36.9 35.65 37.55 53.2 L37.5 53.45 31.25 53.15 29.9 16.9 38.1 16.8 38.0 18.15 M35.55 23.9 L35.7 23.75 Q37.0 22.1 35.8 20.5 L35.6 20.25 Q33.9 18.95 32.25 20.3 L32.1 20.4 Q30.8 22.05 32.05 23.7 32.7 32.75 31.85 41.85 31.65 43.75 31.7 45.7 31.7 47.3 32.2 48.6 31.1 50.6 32.75 52.05 L35.05 52.15 Q37.9 50.5 35.4 48.0 34.65 36.55 35.35 25.1 L35.55 23.9 M23.2 34.9 Q24.55 33.8 23.95 32.0 23.45 30.5 21.75 30.6 19.55 30.6 19.3 32.95 19.2 34.05 20.1 34.85 L20.8 48.1 Q18.85 49.95 20.65 51.7 21.25 52.3 22.1 52.65 24.85 52.4 24.5 49.6 24.4 48.75 23.55 48.15 L23.2 34.9 M9.05 43.7 Q7.8 45.3 8.8 46.95 L9.05 47.25 Q8.85 50.0 10.4 52.15 10.75 52.65 11.4 52.4 L11.75 47.7 Q13.05 47.15 13.25 45.45 13.1 43.95 12.0 43.35 12.3 41.75 11.6 40.3 L11.4 40.05 10.2 39.95 Q8.8 41.5 9.05 43.7 M14.2 38.7 L14.1 53.7 10.5 54.05 Q9.45 54.1 8.6 53.65 L7.45 38.8 14.2 38.7 M25.55 28.05 L24.75 53.25 19.3 53.15 17.9 28.15 25.55 28.05" fill="#e3c1d7" fill-rule="evenodd" stroke="none"/>
      <path d="M6.5 43.3 L6.6 44.65 Q1.65 37.85 1.4 28.65 1.7 17.1 9.4 9.45 17.05 1.75 28.6 1.45 35.75 1.65 41.4 4.8 L41.2 4.9 Q41.05 4.75 40.95 5.25 35.45 2.3 28.5 2.1 17.25 2.4 9.8 9.9 2.3 17.35 2.0 28.6 2.2 37.0 6.5 43.3 M40.85 11.15 L41.0 14.95 Q38.6 13.0 35.2 12.55 30.25 11.95 25.95 12.6 16.7 14.25 11.6 22.15 8.2 28.0 10.7 34.3 L12.05 37.4 9.6 37.55 Q7.6 32.95 7.75 27.7 7.85 22.9 10.4 19.05 15.75 11.05 25.25 9.1 33.55 7.45 40.85 11.15 M41.95 38.3 L41.95 42.75 39.4 43.95 Q39.25 42.35 39.25 40.75 L41.95 38.3 M29.3 44.85 L29.25 47.1 27.4 47.55 27.4 45.1 29.3 44.85 M17.4 42.55 L17.4 46.3 16.15 45.55 15.9 41.9 17.4 42.55 M52.05 16.5 L52.1 15.6 Q55.4 21.65 55.55 29.2 55.35 38.0 50.85 44.4 L50.85 42.75 Q54.75 36.6 54.95 28.6 54.75 21.85 52.05 16.5 M41.95 51.4 L42.0 52.4 38.35 54.05 38.55 53.05 41.95 51.4 M30.85 54.9 L33.95 55.25 Q28.6 56.35 23.3 55.25 L25.95 54.9 30.85 54.9 M17.3 52.6 L17.45 53.45 15.15 52.25 15.15 51.45 17.3 52.6" fill="#d2c0c0" fill-rule="evenodd" stroke="none"/>
      <path d="M44.15 4.15 L43.5 4.2 Q37.0 0.25 28.6 0.05 L29.2 0.0 Q37.65 0.2 44.15 4.15 M1.3 37.15 Q3.0 42.7 6.85 47.2 L6.9 47.7 Q2.95 43.0 1.3 37.15" fill="#8d3f6d" fill-rule="evenodd" stroke="none"/>
      <path d="M40.8 9.45 L40.85 11.15 Q33.55 7.45 25.25 9.1 15.75 11.05 10.4 19.05 7.85 22.9 7.75 27.7 7.6 32.95 9.6 37.55 L12.05 37.4 14.45 37.8 7.95 37.8 Q3.5 25.3 11.45 14.7 17.0 7.25 26.3 6.1 34.15 5.3 40.8 9.45 M41.95 42.75 L41.85 47.1 39.25 48.7 38.7 49.4 38.9 15.85 30.2 15.55 Q33.5 13.75 37.2 14.75 40.15 15.65 39.9 19.05 39.05 29.85 39.25 40.75 39.25 42.35 39.4 43.95 L41.95 42.75 M29.25 47.1 L29.25 51.35 26.7 51.5 26.7 27.55 26.4 27.25 Q22.25 25.8 17.8 27.05 19.55 26.25 21.6 26.15 L24.6 26.45 Q27.6 26.9 27.45 30.1 27.1 37.6 27.4 45.1 L27.4 47.55 29.25 47.1 M17.4 46.3 L17.35 48.85 15.05 47.8 15.3 38.55 15.9 41.9 16.15 45.55 17.4 46.3" fill="#bda3a3" fill-rule="evenodd" stroke="none"/>
      <path d="M7.95 37.8 L6.95 38.05 Q5.2 33.9 5.05 28.9 5.3 19.0 12.0 12.3 18.7 5.6 28.65 5.3 35.55 5.45 40.8 8.75 L40.8 9.45 Q34.15 5.3 26.3 6.1 17.0 7.25 11.45 14.7 3.5 25.3 7.95 37.8 M41.85 47.1 L41.85 47.95 38.7 49.8 38.7 49.4 39.25 48.7 41.85 47.1 M29.25 51.35 L29.25 52.05 26.7 51.95 26.7 51.5 29.25 51.35 M51.15 34.95 L51.65 24.65 51.85 28.65 Q51.9 31.85 51.15 34.95" fill="#aa8888" fill-rule="evenodd" stroke="none"/>
      <path d="M45.1 11.4 Q45.25 10.0 46.65 9.85 L47.45 10.1 45.35 12.2 45.1 11.4 M46.3 12.95 L48.05 10.7 Q48.75 12.6 46.65 13.0 L46.3 12.95 M44.9 46.45 L47.6 47.8 46.85 48.1 Q45.45 48.6 44.9 47.25 L44.9 46.45 M47.9 46.25 L47.95 47.0 45.3 45.7 Q45.55 45.45 45.9 45.3 47.35 44.95 47.9 46.25 M35.4 21.6 L32.45 21.65 32.75 21.0 35.0 20.95 35.4 21.6 M32.4 22.2 L35.35 22.15 35.05 22.8 32.8 22.85 32.4 22.2 M9.4 44.7 L11.55 46.85 10.75 47.05 Q9.35 46.9 9.2 45.45 L9.4 44.7 M12.35 45.45 L12.15 46.25 10.0 44.1 10.75 43.9 Q12.2 44.05 12.35 45.45 M22.45 34.35 L21.65 34.55 Q20.35 34.35 20.1 32.95 L20.3 32.2 22.45 34.35 M21.65 31.4 Q23.1 31.55 23.25 32.95 L23.05 33.75 20.9 31.6 21.65 31.4 M22.15 48.6 L22.85 48.8 20.75 50.9 20.55 50.15 Q20.65 49.4 21.1 49.0 21.45 48.65 22.15 48.6 M35.3 49.15 L32.6 50.35 32.65 49.55 33.1 49.1 35.3 49.15 M33.2 51.4 L35.7 49.95 34.55 51.7 33.2 51.4 M21.35 51.55 L23.6 49.7 Q23.9 51.55 22.1 51.75 L21.35 51.55" fill="#a68884" fill-rule="evenodd" stroke="none"/>
      <path d="M48.95 12.35 Q47.65 21.15 47.35 30.15 47.2 35.85 48.05 41.5 L48.3 45.2 Q47.35 44.0 45.65 44.45 L44.6 45.2 44.55 12.65 Q45.1 13.75 46.65 13.9 48.4 13.7 48.95 12.35 M48.1 48.55 L47.7 49.65 Q46.8 49.75 46.3 49.2 L48.1 48.55 M35.55 23.9 L35.35 25.1 Q34.65 36.55 35.4 48.0 L35.0 47.8 Q33.2 47.3 32.2 48.6 31.7 47.3 31.7 45.7 31.65 43.75 31.85 41.85 32.7 32.75 32.05 23.7 L32.2 23.85 Q33.9 25.2 35.55 23.9 M20.1 34.85 L23.2 34.9 23.55 48.15 20.8 48.1 20.1 34.85 M9.05 43.7 Q8.8 41.5 10.2 39.95 L11.4 40.05 11.6 40.3 Q12.3 41.75 12.0 43.35 L11.45 43.15 Q10.1 42.75 9.05 43.7 M11.75 47.7 L11.4 52.4 Q10.75 52.65 10.4 52.15 8.85 50.0 9.05 47.25 10.7 48.45 11.75 47.7" fill="#c7abb9" fill-rule="evenodd" stroke="none"/>
      <path d="M40.95 5.25 L40.85 7.15 Q31.5 2.15 21.3 5.15 11.65 8.15 7.05 17.05 1.4 28.1 6.05 39.7 L6.35 41.05 6.5 43.3 Q2.2 37.0 2.0 28.6 2.3 17.35 9.8 9.9 17.25 2.4 28.5 2.1 35.45 2.3 40.95 5.25 M41.0 14.95 L41.95 38.3 39.25 40.75 Q39.05 29.85 39.9 19.05 40.15 15.65 37.2 14.75 33.5 13.75 30.2 15.55 L28.85 16.2 29.3 44.85 27.4 45.1 Q27.1 37.6 27.45 30.1 27.6 26.9 24.6 26.45 L21.6 26.15 Q19.55 26.25 17.8 27.05 L16.8 27.7 17.4 42.55 15.9 41.9 15.3 38.55 14.45 37.8 12.05 37.4 10.7 34.3 Q8.2 28.0 11.6 22.15 16.7 14.25 25.95 12.6 30.25 11.95 35.2 12.55 38.6 13.0 41.0 14.95 M50.85 42.75 Q50.6 40.15 51.5 38.1 53.35 33.65 53.2 28.65 53.15 26.45 52.6 24.4 51.5 20.6 52.05 16.5 54.75 21.85 54.95 28.6 54.75 36.6 50.85 42.75 M38.55 53.05 L38.7 51.3 41.85 49.6 41.95 51.4 38.55 53.05 M25.95 54.9 L26.6 53.3 29.45 53.4 29.55 53.85 Q29.8 54.75 30.85 54.9 L25.95 54.9 M15.15 51.45 L15.1 49.4 17.25 50.65 Q17.2 51.75 17.3 52.6 L15.15 51.45" fill="#e3d7d7" fill-rule="evenodd" stroke="none"/>
    </g>
  </defs>
</svg>
