<?xml version="1.0" encoding="UTF-8" standalone="no"?>
<svg xmlns:xlink="http://www.w3.org/1999/xlink" height="468.95px" width="310.1px" xmlns="http://www.w3.org/2000/svg">
  <g transform="matrix(1.0, 0.0, 0.0, 1.0, 153.05, 468.95)">
    <use height="36.0" transform="matrix(1.0, 0.0, 0.0, 1.0, -80.7, -36.0)" width="159.0" xlink:href="#shape0"/>
    <use height="96.65" transform="matrix(1.0, 0.0, 0.0, 1.0, -28.3, -108.0)" width="54.2" xlink:href="#shape1"/>
    <use height="37.0" transform="matrix(1.0, 0.0, 0.0, 1.0, -93.8, -94.35)" width="185.25" xlink:href="#shape2"/>
    <use height="15.45" transform="matrix(1.0, 0.0, 0.0, 1.0, -70.55, -81.25)" width="141.55" xlink:href="#text0"/>
    <use height="270.7" transform="matrix(1.0, 0.0, 0.0, 1.0, -153.05, -370.6)" width="310.1" xlink:href="#shape3"/>
    <use height="254.2" transform="matrix(1.0, 0.0, 0.0, 1.0, -139.7, -355.55)" width="281.15" xlink:href="#shape4"/>
    <use height="57.25" transform="matrix(1.0, 0.0, 0.0, 1.0, -32.05, -220.4)" width="57.1" xlink:href="#shape5"/>
  </g>
  <defs>
    <g id="shape0" transform="matrix(1.0, 0.0, 0.0, 1.0, 0.0, 0.0)">
      <path d="M135.7 30.75 Q113.3 35.8 79.5 36.0 45.7 35.8 23.3 30.75 0.85 25.65 0.0 18.0 0.85 10.35 23.3 5.25 45.7 0.2 79.5 0.0 113.3 0.2 135.7 5.25 158.15 10.35 159.0 18.0 158.15 25.65 135.7 30.75" fill="#000000" fill-opacity="0.39607844" fill-rule="evenodd" stroke="none"/>
    </g>
    <g id="shape1" transform="matrix(1.0, 0.0, 0.0, 1.0, 0.0, 0.0)">
      <path d="M5.85 93.35 Q-0.15 90.4 0.0 90.0 L0.0 0.0 54.2 0.0 54.2 90.0 Q54.15 90.4 46.95 93.35 39.7 96.25 25.65 96.65 11.8 96.25 5.85 93.35" fill="url(#gradient0)" fill-rule="evenodd" stroke="none"/>
    </g>
    <linearGradient gradientTransform="matrix(0.0303, 0.0, 0.0, 0.0303, 25.7, 48.35)" gradientUnits="userSpaceOnUse" id="gradient0" spreadMethod="pad" x1="-819.2" x2="819.2">
      <stop offset="0.0" stop-color="#565656"/>
      <stop offset="0.403921568627451" stop-color="#9a9999"/>
      <stop offset="0.592156862745098" stop-color="#dbdbda"/>
      <stop offset="0.7803921568627451" stop-color="#9b9a9a"/>
      <stop offset="1.0" stop-color="#151213"/>
    </linearGradient>
    <g id="shape2" transform="matrix(1.0, 0.0, 0.0, 1.0, -0.05, 0.0)">
      <path d="M185.25 8.2 L185.3 8.25 185.25 8.25 185.25 8.2 M1.9 5.2 L2.3 2.85 18.75 2.05 59.05 0.7 Q83.4 0.05 109.4 0.3 115.1 0.55 118.85 1.6 122.65 2.7 128.15 3.0 L129.3 1.5 Q130.05 0.2 130.5 0.0 160.7 0.5 181.5 3.85 L183.45 6.1 103.3 3.5 Q60.0 3.6 6.5 5.1 L1.9 5.2 M176.25 8.0 L176.45 8.4 177.65 11.45 178.5 13.65 Q179.3 12.8 179.7 10.9 179.7 9.8 179.25 9.1 L179.9 9.55 Q180.65 10.3 180.7 11.75 179.85 15.7 177.15 15.05 175.8 14.75 175.1 13.85 L176.15 14.2 177.35 14.25 176.45 12.35 174.9 8.8 174.8 8.5 174.95 8.35 Q175.75 7.8 176.25 8.0 M178.25 27.3 L179.85 27.15 Q180.5 27.3 181.25 27.95 183.6 31.2 181.35 32.8 180.2 33.6 179.1 33.5 L180.8 32.15 178.8 31.55 175.1 30.4 175.2 29.1 175.2 29.0 175.25 28.7 175.4 28.75 175.85 28.9 178.95 30.05 181.1 30.85 Q181.0 29.65 179.9 28.15 179.05 27.45 178.25 27.3 M9.35 6.95 L10.7 10.45 11.7 12.9 Q12.6 11.95 13.05 9.85 13.05 8.55 12.5 7.75 13.85 8.35 14.15 10.05 L13.75 12.35 Q12.6 15.1 10.15 14.55 8.75 14.25 8.0 13.4 L7.85 13.2 9.0 13.6 10.35 13.65 9.35 11.4 7.6 7.45 8.75 6.6 9.2 6.55 9.35 6.95 M9.4 25.3 Q11.0 24.35 12.9 25.8 15.0 28.35 14.35 30.1 L13.4 31.3 Q12.2 32.25 10.95 32.25 L12.75 30.6 10.4 30.05 6.2 29.05 6.15 27.55 6.15 27.1 6.35 27.15 6.9 27.35 10.45 28.4 12.95 29.1 Q12.75 27.8 11.35 26.15 10.35 25.35 9.4 25.3" fill="#47525f" fill-rule="evenodd" stroke="none"/>
      <path d="M0.05 36.7 L0.75 22.9 Q1.05 14.95 1.6 7.0 L1.9 5.2 6.5 5.1 3.2 8.3 1.95 36.45 0.05 36.7" fill="#cdcdcd" fill-rule="evenodd" stroke="none"/>
      <path d="M13.75 12.35 L14.15 10.05 26.45 10.0 13.75 12.35 M8.0 13.4 L7.0 13.55 7.2 26.2 6.35 27.15 6.15 27.1 6.15 27.55 Q5.15 29.5 6.75 31.55 8.95 33.2 10.95 32.25 12.2 32.25 13.4 31.3 L14.35 30.1 16.45 30.2 36.65 31.3 56.5 32.6 Q50.4 32.9 38.0 32.9 L15.1 32.75 3.85 32.6 5.25 10.05 6.0 10.05 Q6.15 12.3 7.85 13.2 L8.0 13.4" fill="#848484" fill-rule="evenodd" stroke="none"/>
      <path d="M175.1 13.85 Q175.8 14.75 177.15 15.05 179.85 15.7 180.7 11.75 180.65 10.3 179.9 9.55 L180.85 9.65 179.85 27.15 178.25 27.3 177.7 27.3 177.8 15.2 160.95 13.3 Q144.35 11.4 115.0 6.95 144.55 7.2 162.45 8.35 L174.1 9.15 Q173.65 9.7 173.4 10.6 173.45 12.95 175.1 13.85 M175.3 32.3 L137.05 30.55 175.2 29.0 175.2 29.1 Q174.3 30.55 175.3 32.3" fill="#a09fa0" fill-rule="evenodd" stroke="none"/>
      <path d="M176.45 8.4 L176.25 8.0 176.9 7.95 Q178.55 8.05 179.25 9.1 179.7 9.8 179.7 10.9 179.3 12.8 178.5 13.65 L177.65 11.45 178.05 10.25 Q178.0 8.55 176.45 8.4 M174.8 8.5 L174.9 8.8 Q174.35 9.2 174.15 10.05 174.2 11.9 175.85 12.3 L176.45 12.35 177.35 14.25 176.15 14.2 175.1 13.85 Q173.45 12.95 173.4 10.6 173.65 9.7 174.1 9.15 L174.8 8.5 M177.7 27.3 L178.25 27.3 Q179.05 27.45 179.9 28.15 181.0 29.65 181.1 30.85 L178.95 30.05 178.3 28.9 Q177.0 27.8 175.85 28.9 L175.4 28.75 175.8 28.3 Q176.7 27.35 177.7 27.3 M179.1 33.5 Q177.3 34.2 175.5 32.65 L175.3 32.3 Q174.3 30.55 175.2 29.1 L175.1 30.4 Q175.25 32.1 176.95 32.35 178.0 32.25 178.8 31.55 L180.8 32.15 179.1 33.5 M10.7 10.45 L11.2 9.05 Q11.15 7.15 9.35 6.95 L9.2 6.55 9.9 6.5 Q11.75 6.6 12.5 7.75 13.05 8.55 13.05 9.85 12.6 11.95 11.7 12.9 L10.7 10.45 M7.2 26.2 Q8.2 25.2 9.4 25.3 10.35 25.35 11.35 26.15 12.75 27.8 12.95 29.1 L10.45 28.4 Q9.75 26.65 8.05 26.6 L6.9 27.35 6.35 27.15 7.2 26.2 M6.0 10.05 L5.95 9.55 Q6.6 7.0 8.75 6.6 L7.6 7.45 Q7.0 7.9 6.75 8.85 6.8 10.95 8.7 11.35 L9.35 11.4 10.35 13.65 9.0 13.6 7.85 13.2 Q6.15 12.3 6.0 10.05 M6.15 27.55 L6.2 29.05 Q6.45 30.9 8.2 31.1 9.7 31.2 10.4 30.05 L12.75 30.6 10.95 32.25 Q8.95 33.2 6.75 31.55 5.15 29.5 6.15 27.55" fill="#9c9c9c" fill-rule="evenodd" stroke="none"/>
      <path d="M174.9 8.8 L176.45 12.35 175.85 12.3 Q174.2 11.9 174.15 10.05 174.35 9.2 174.9 8.8 M177.65 11.45 L176.45 8.4 Q178.0 8.55 178.05 10.25 L177.65 11.45 M175.85 28.9 Q177.0 27.8 178.3 28.9 L178.95 30.05 175.85 28.9 M175.1 30.4 L178.8 31.55 Q178.0 32.25 176.95 32.35 175.25 32.1 175.1 30.4 M9.35 6.95 Q11.15 7.15 11.2 9.05 L10.7 10.45 9.35 6.95 M9.35 11.4 L8.7 11.35 Q6.8 10.95 6.75 8.85 7.0 7.9 7.6 7.45 L9.35 11.4 M10.45 28.4 L6.9 27.35 8.05 26.6 Q9.75 26.65 10.45 28.4 M6.2 29.05 L10.4 30.05 Q9.7 31.2 8.2 31.1 6.45 30.9 6.2 29.05" fill="#d5d4d4" fill-rule="evenodd" stroke="none"/>
      <path d="M183.45 6.1 L185.3 6.25 185.25 8.2 185.25 8.25 185.1 13.45 184.65 27.3 184.3 36.25 Q157.35 34.75 133.85 35.55 L89.2 37.0 Q65.15 37.15 43.55 35.85 22.0 34.5 0.05 36.75 L0.05 36.7 1.95 36.45 3.2 8.3 6.5 5.1 Q60.0 3.6 103.3 3.5 L183.45 6.1 M176.25 8.0 Q175.75 7.8 174.95 8.35 L174.8 8.5 174.1 9.15 162.45 8.35 Q144.55 7.2 115.0 6.95 144.35 11.4 160.95 13.3 L177.8 15.2 177.7 27.3 Q176.7 27.35 175.8 28.3 L175.4 28.75 175.25 28.7 175.2 29.0 137.05 30.55 175.3 32.3 175.5 32.65 Q177.3 34.2 179.1 33.5 180.2 33.6 181.35 32.8 183.6 31.2 181.25 27.95 180.5 27.3 179.85 27.15 L180.85 9.65 179.9 9.55 179.25 9.1 Q178.55 8.05 176.9 7.95 L176.25 8.0 M12.5 7.75 Q11.75 6.6 9.9 6.5 L9.2 6.55 8.75 6.6 Q6.6 7.0 5.95 9.55 L6.0 10.05 5.25 10.05 3.85 32.6 15.1 32.75 38.0 32.9 Q50.4 32.9 56.5 32.6 L36.65 31.3 16.45 30.2 14.35 30.1 Q15.0 28.35 12.9 25.8 11.0 24.35 9.4 25.3 8.2 25.2 7.2 26.2 L7.0 13.55 8.0 13.4 Q8.75 14.25 10.15 14.55 12.6 15.1 13.75 12.35 L26.45 10.0 14.15 10.05 Q13.85 8.35 12.5 7.75" fill="url(#gradient1)" fill-rule="evenodd" stroke="none"/>
    </g>
    <linearGradient gradientTransform="matrix(0.1131, 0.0, 0.0, 0.0204, 92.65, 20.25)" gradientUnits="userSpaceOnUse" id="gradient1" spreadMethod="pad" x1="-819.2" x2="819.2">
      <stop offset="0.0" stop-color="#9a9a9a"/>
      <stop offset="1.0" stop-color="#ffffff"/>
    </linearGradient>
    <g id="text0" transform="matrix(1.0, 0.0, 0.0, 1.0, 10.3, -5.7)">
      <g transform="matrix(1.0, 0.0, 0.0, 1.0, -11.35, 0.0)">
        <use fill="#000000" height="15.45" transform="matrix(0.4746, 0.0, 0.0, 0.4746, 0.0, 21.0)" width="141.55" xlink:href="#font_______W7_G0"/>
        <use fill="#000000" height="15.45" transform="matrix(0.4746, 0.0, 0.0, 0.4746, 16.95, 21.0)" width="141.55" xlink:href="#font_______W7_l0"/>
        <use fill="#000000" height="15.45" transform="matrix(0.4746, 0.0, 0.0, 0.4746, 25.75, 21.0)" width="141.55" xlink:href="#font_______W7_a0"/>
        <use fill="#000000" height="15.45" transform="matrix(0.4746, 0.0, 0.0, 0.4746, 39.55, 21.0)" width="141.55" xlink:href="#font_______W7_d0"/>
        <use fill="#000000" height="15.45" transform="matrix(0.4746, 0.0, 0.0, 0.4746, 61.5, 21.0)" width="141.55" xlink:href="#font_______W7_H0"/>
        <use fill="#000000" height="15.45" transform="matrix(0.4746, 0.0, 0.0, 0.4746, 79.0, 21.0)" width="141.55" xlink:href="#font_______W7_a0"/>
        <use fill="#000000" height="15.45" transform="matrix(0.4746, 0.0, 0.0, 0.4746, 92.8, 21.0)" width="141.55" xlink:href="#font_______W7_n0"/>
        <use fill="#000000" height="15.45" transform="matrix(0.4746, 0.0, 0.0, 0.4746, 106.4, 21.0)" width="141.55" xlink:href="#font_______W7_d0"/>
        <use fill="#000000" height="15.45" transform="matrix(0.4746, 0.0, 0.0, 0.4746, 120.35, 21.0)" width="141.55" xlink:href="#font_______W7_e0"/>
        <use fill="#000000" height="15.45" transform="matrix(0.4746, 0.0, 0.0, 0.4746, 133.8, 21.0)" width="141.55" xlink:href="#font_______W7_r0"/>
      </g>
    </g>
    <g id="font_______W7_G0">
      <path d="M32.3 -18.1 L32.3 -18.1 18.0 -16.6 18.9 -11.9 23.25 -11.9 Q20.15 -7.9 16.2 -7.9 12.45 -7.9 10.45 -10.35 8.6 -12.65 8.6 -16.5 8.6 -20.8 10.75 -23.45 13.05 -26.4 17.25 -26.4 23.2 -26.4 27.5 -21.3 L31.25 -25.15 Q28.6 -28.35 25.0 -30.25 21.2 -32.15 17.25 -32.15 10.5 -32.15 6.15 -27.05 2.05 -22.25 2.05 -15.35 2.05 -8.75 6.15 -4.35 10.25 0.05 16.8 0.05 21.35 0.05 25.6 -2.45 L25.1 0.35 34.1 -0.6 32.3 -18.1" fill-rule="evenodd" stroke="none"/>
    </g>
    <g id="font_______W7_l0">
      <path d="M11.6 -31.5 L11.6 -31.5 6.9 -32.15 4.35 0.05 14.4 -1.4 11.6 -31.5" fill-rule="evenodd" stroke="none"/>
    </g>
    <g id="font_______W7_a0">
      <path d="M19.05 -8.85 L19.05 -8.85 18.5 -5.05 17.1 -9.0 Q14.35 -6.2 10.6 -6.2 9.95 -6.2 9.45 -6.75 9.0 -7.2 9.0 -7.85 9.0 -10.2 13.7 -10.2 15.9 -10.2 19.05 -8.85 M27.4 -6.8 L27.4 -6.8 Q27.4 -21.45 13.35 -21.45 7.15 -21.45 2.55 -18.35 L4.3 -14.35 Q8.3 -16.55 13.15 -16.55 17.85 -16.55 18.85 -13.35 15.4 -14.5 12.8 -14.5 8.6 -14.5 5.6 -12.8 1.8 -10.75 1.8 -6.95 1.8 -3.5 4.9 -1.55 7.55 0.05 11.15 0.05 13.95 0.05 17.35 -0.95 L17.0 0.15 26.7 -0.3 Q27.4 -3.45 27.4 -6.8" fill-rule="evenodd" stroke="none"/>
    </g>
    <g id="font_______W7_d0">
      <path d="M18.35 -8.95 L18.35 -8.95 16.8 -11.9 Q14.75 -9.45 12.45 -9.45 10.9 -9.45 10.0 -10.4 9.1 -11.4 9.1 -12.95 9.1 -14.5 10.7 -15.6 12.15 -16.5 13.7 -16.5 16.6 -16.5 18.8 -14.55 L18.35 -8.95 M24.9 -31.55 L24.9 -31.55 20.15 -32.2 19.15 -19.55 Q16.05 -21.45 12.65 -21.45 8.15 -21.45 4.95 -18.25 1.8 -15.0 1.8 -10.5 1.8 -6.05 4.6 -3.05 7.4 0.05 11.85 0.05 14.65 0.05 17.7 -1.5 L17.6 0.0 27.65 -1.45 24.9 -31.55" fill-rule="evenodd" stroke="none"/>
    </g>
    <g id="font_______W7_H0">
      <path d="M31.8 -31.5 L31.8 -31.5 26.95 -32.15 25.95 -21.0 11.4 -18.75 10.2 -31.5 5.3 -32.15 2.55 0.05 13.15 -1.1 11.95 -13.75 25.35 -13.75 24.15 0.05 34.75 -1.1 31.8 -31.5" fill-rule="evenodd" stroke="none"/>
    </g>
    <g id="font_______W7_n0">
      <path d="M27.0 -9.05 L27.0 -9.05 Q27.0 -14.5 24.65 -17.8 21.9 -21.45 16.6 -21.45 12.6 -21.45 9.45 -18.85 L9.2 -20.75 4.35 -21.45 2.05 0.05 11.95 -1.4 10.35 -12.55 Q12.95 -15.85 15.9 -15.85 19.4 -15.85 19.4 -10.6 19.4 -6.9 16.6 -1.3 L26.2 0.0 Q27.0 -6.5 27.0 -9.05" fill-rule="evenodd" stroke="none"/>
    </g>
    <g id="font_______W7_e0">
      <path d="M19.45 -9.9 L19.45 -9.9 Q16.75 -7.55 13.6 -7.55 10.45 -7.55 9.15 -9.9 L19.45 -9.9 M9.0 -13.4 L9.0 -13.4 Q9.7 -14.95 11.5 -15.95 13.2 -16.8 15.1 -16.8 18.05 -16.8 19.65 -14.35 L9.0 -13.4 M23.25 -9.9 L23.25 -9.9 24.3 -9.9 26.7 -12.6 Q25.85 -16.7 22.9 -19.1 19.9 -21.45 15.15 -21.45 9.65 -21.45 5.9 -18.65 1.8 -15.6 1.8 -10.4 1.8 -5.35 5.8 -2.5 9.3 0.05 14.6 0.05 22.45 0.05 27.15 -4.25 L23.25 -9.9" fill-rule="evenodd" stroke="none"/>
    </g>
    <g id="font_______W7_r0">
      <path d="M18.3 -20.6 L18.3 -20.6 Q16.55 -21.45 14.75 -21.45 11.5 -21.45 8.7 -18.65 L8.45 -20.75 4.45 -21.45 2.55 0.05 10.65 -1.4 9.3 -12.8 Q10.55 -14.85 12.3 -14.85 13.25 -14.85 14.55 -13.85 L16.55 -12.05 18.3 -20.6" fill-rule="evenodd" stroke="none"/>
    </g>
    <g id="shape3" transform="matrix(1.0, 0.0, 0.0, 1.0, 0.0, 0.0)">
      <path d="M174.7 3.15 L223.7 43.05 205.2 81.35 243.4 95.5 292.45 153.4 310.1 247.5 285.85 270.7 37.0 270.7 9.25 258.05 0.0 191.3 29.7 137.15 72.15 97.25 89.25 89.4 65.85 39.6 112.05 0.0 172.5 3.3 174.7 3.15 M66.75 106.8 L30.35 144.5 2.95 197.15 14.25 254.15 43.25 268.0 54.25 268.0 287.8 164.8 287.2 161.85 240.05 100.4 198.65 88.05 203.25 76.4 216.95 41.8 172.85 5.95 114.25 5.55 75.55 41.25 94.35 90.2 Q83.85 95.0 74.05 100.9 70.05 103.3 66.75 106.8 M123.0 14.55 Q123.7 20.45 118.25 21.95 116.0 22.6 113.95 21.45 L113.9 19.5 Q115.3 20.3 117.0 20.35 122.5 19.85 123.0 14.55 M120.0 9.55 L120.0 11.6 112.0 20.0 112.0 17.85 112.05 17.85 120.0 9.55 M47.5 251.05 L47.5 253.1 39.5 261.5 39.5 259.35 39.55 259.35 47.5 251.05 M50.5 256.05 Q51.25 261.95 45.75 263.45 43.4 264.2 41.45 262.95 L41.4 261.0 Q42.8 261.8 44.5 261.85 50.0 261.35 50.5 256.05 M271.4 260.5 Q272.8 261.3 274.5 261.35 280.0 260.85 280.5 255.55 280.9 263.65 272.95 262.6 L271.45 262.45 271.4 260.5 M277.5 250.55 L277.5 252.6 269.5 261.0 269.5 258.85 269.55 258.85 277.5 250.55 M283.05 268.05 L304.0 240.2 287.85 164.8 54.25 268.05 283.05 268.05" fill="#47525f" fill-rule="evenodd" stroke="none"/>
      <path d="M203.25 76.4 L198.65 88.05 240.05 100.4 287.2 161.85 287.8 164.8 54.25 268.0 43.25 268.0 14.25 254.15 2.95 197.15 30.35 144.5 66.75 106.8 203.25 76.4 M120.8 12.25 L121.85 11.15 Q122.25 19.45 114.15 19.5 L113.9 19.5 120.8 12.25 M46.9 250.9 Q41.65 248.95 38.9 254.6 L38.3 256.1 38.3 258.45 Q38.1 259.2 39.5 261.5 L41.45 262.95 Q43.4 264.2 45.75 263.45 51.25 261.95 50.5 256.05 L49.35 252.65 49.4 253.3 Q49.3 261.35 41.4 261.0 L48.3 253.75 47.5 253.1 47.5 251.05 47.15 250.8 46.9 250.9 M39.25 258.0 L39.3 257.9 39.25 258.05 39.25 258.0 M39.5 259.3 L39.55 259.35 39.5 259.35 39.5 259.3 M279.35 252.15 L279.4 252.95 Q279.15 260.85 271.4 260.5 L278.3 253.25 279.35 252.15" fill="#bab9ba" fill-rule="evenodd" stroke="none"/>
      <path d="M66.75 106.8 Q70.05 103.3 74.05 100.9 83.85 95.0 94.35 90.2 L75.55 41.25 114.25 5.55 172.85 5.95 216.95 41.8 203.25 76.4 66.75 106.8 M123.0 14.55 L121.85 11.15 120.8 12.25 120.0 11.6 120.0 9.55 119.65 9.3 119.4 9.4 114.8 9.5 Q111.3 10.75 110.8 14.6 L110.8 16.95 Q110.6 17.7 112.0 20.0 L113.95 21.45 Q116.0 22.6 118.25 21.95 123.7 20.45 123.0 14.55 M111.8 16.35 L111.75 16.55 111.75 16.5 111.8 16.35 M112.0 17.8 L112.05 17.85 112.0 17.85 112.0 17.8 M279.35 252.15 L278.3 253.25 277.5 252.6 277.5 250.55 277.15 250.3 276.9 250.4 272.3 250.5 Q268.8 251.9 268.3 255.6 L268.3 257.95 Q268.1 258.7 269.5 261.0 L271.45 262.45 272.95 262.6 Q280.9 263.65 280.5 255.55 L280.5 255.3 Q280.45 253.5 279.35 252.15 M269.55 258.85 L269.5 258.85 269.5 258.8 269.55 258.85 M269.3 257.35 L269.25 257.55 269.25 257.5 269.3 257.35 M283.05 268.05 L54.25 268.05 287.85 164.8 304.0 240.2 283.05 268.05" fill="#9c9c9c" fill-rule="evenodd" stroke="none"/>
      <path d="M113.95 21.45 L112.0 20.0 120.0 11.6 120.8 12.25 113.9 19.5 113.95 21.45 M47.5 253.1 L48.3 253.75 41.4 261.0 41.45 262.95 39.5 261.5 47.5 253.1 M278.3 253.25 L271.4 260.5 271.45 262.45 269.5 261.0 277.5 252.6 278.3 253.25" fill="#57565b" fill-rule="evenodd" stroke="none"/>
      <path d="M112.0 20.0 Q110.6 17.7 110.8 16.95 L110.8 14.6 Q110.9 16.05 111.65 17.35 L111.75 16.5 111.75 16.55 111.7 17.35 112.0 17.8 112.0 17.85 112.0 20.0 M39.5 261.5 Q38.1 259.2 38.3 258.45 L38.3 256.1 Q38.4 257.55 39.15 258.85 L39.25 258.0 39.25 258.05 39.2 258.85 39.5 259.3 39.5 259.35 39.5 261.5 M269.5 258.85 L269.5 261.0 Q268.1 258.7 268.3 257.95 L268.3 255.6 Q268.4 257.05 269.15 258.35 L269.25 257.5 269.25 257.55 269.2 258.35 269.5 258.8 269.5 258.85" fill="#79818b" fill-rule="evenodd" stroke="none"/>
      <path d="M119.4 9.4 L119.65 9.3 120.0 9.55 112.05 17.85 112.0 17.8 111.7 17.35 111.75 16.55 111.8 16.35 112.3 15.35 Q114.75 11.0 119.4 9.4 M46.9 250.9 L47.15 250.8 47.5 251.05 39.55 259.35 39.5 259.3 39.2 258.85 39.25 258.05 39.3 257.9 39.8 256.85 Q42.1 252.5 46.9 250.9 M277.5 250.55 L269.55 258.85 269.5 258.8 269.2 258.35 269.25 257.55 269.3 257.35 Q271.35 252.65 276.1 250.7 L276.9 250.4 277.15 250.3 277.5 250.55" fill="#d0cfd0" fill-rule="evenodd" stroke="none"/>
      <path d="M110.8 14.6 Q111.3 10.75 114.8 9.5 L119.4 9.4 Q114.75 11.0 112.3 15.35 L111.8 16.35 111.75 16.5 111.65 17.35 Q110.9 16.05 110.8 14.6 M38.3 256.1 L38.9 254.6 Q41.65 248.95 46.9 250.9 42.1 252.5 39.8 256.85 L39.3 257.9 39.25 258.0 39.15 258.85 Q38.4 257.55 38.3 256.1 M276.9 250.4 L276.1 250.7 Q271.35 252.65 269.3 257.35 L269.25 257.5 269.15 258.35 Q268.4 257.05 268.3 255.6 268.8 251.9 272.3 250.5 L276.9 250.4" fill="#e9e9eb" fill-rule="evenodd" stroke="none"/>
      <path d="M121.85 11.15 L123.0 14.55 Q122.5 19.85 117.0 20.35 115.3 20.3 113.9 19.5 L114.15 19.5 Q122.25 19.45 121.85 11.15 M41.4 261.0 Q49.3 261.35 49.4 253.3 L49.35 252.65 50.5 256.05 Q50.0 261.35 44.5 261.85 42.8 261.8 41.4 261.0 M271.4 260.5 Q279.15 260.85 279.4 252.95 L279.35 252.15 Q280.45 253.5 280.5 255.3 L280.5 255.55 Q280.0 260.85 274.5 261.35 272.8 261.3 271.4 260.5" fill="#b0aeb3" fill-rule="evenodd" stroke="none"/>
    </g>
    <g id="shape4" transform="matrix(1.0, 0.0, 0.0, 1.0, 0.0, 0.0)">
      <path d="M185.65 56.2 L179.0 77.25 220.15 91.0 246.85 117.7 268.1 155.0 268.3 155.5 277.3 210.2 281.15 215.6 268.6 237.45 227.8 231.25 227.85 252.85 226.45 253.6 49.1 254.2 48.2 253.9 47.95 253.2 47.75 247.8 47.6 232.9 11.3 235.95 11.05 235.6 8.8 230.2 6.55 224.75 Q4.35 219.3 2.65 213.7 2.05 211.8 3.9 210.45 L0.0 185.6 18.45 141.5 18.65 141.1 58.95 90.8 91.95 80.75 69.15 32.3 69.1 31.65 Q81.65 20.45 95.0 9.65 96.85 8.1 98.95 7.15 105.95 4.25 113.4 3.0 L118.5 2.4 Q136.85 0.0 155.3 0.0 L193.9 25.25 194.5 25.7 194.8 26.75 187.3 51.2 185.65 56.2 M155.0 23.3 Q152.0 24.0 149.35 22.6 L147.55 21.85 Q146.85 23.9 144.75 24.4 142.05 24.65 140.05 22.65 128.8 31.85 116.15 24.45 114.15 25.6 111.85 24.9 L110.3 24.45 110.15 20.95 Q99.1 25.85 86.9 25.2 110.0 33.7 122.75 35.45 135.5 37.2 145.85 33.6 L174.2 23.55 155.0 23.3 M157.35 12.5 L156.4 13.5 Q149.2 8.95 141.75 12.8 L140.85 12.25 Q148.55 5.75 157.05 11.8 L157.35 12.5 M155.45 6.65 L155.25 6.85 Q146.05 6.2 138.1 10.85 139.8 12.95 141.0 16.3 147.35 20.6 154.85 21.3 158.65 21.15 162.45 21.15 174.0 21.05 185.35 23.25 L154.05 2.75 Q131.5 3.15 109.3 6.75 114.3 8.2 117.95 11.75 126.5 8.0 135.45 9.8 L135.7 9.05 Q144.35 3.05 154.85 3.95 157.0 4.8 155.45 6.65 M152.6 63.0 L152.15 71.0 Q159.15 70.55 165.8 68.1 L169.0 66.8 170.3 60.75 152.6 63.0 M149.15 71.3 Q148.85 68.4 149.55 63.4 L136.4 65.1 137.95 72.35 149.15 71.3 M174.3 56.9 L182.85 54.9 191.45 27.5 180.8 25.75 174.3 56.9 M176.9 27.7 Q177.0 26.8 177.35 26.0 165.75 28.25 155.05 33.45 155.4 46.8 153.1 59.9 L171.05 57.6 Q174.95 42.95 176.9 27.7 M175.25 78.3 L180.45 62.4 Q173.65 68.85 164.45 71.5 156.1 73.95 147.3 74.55 L119.2 76.4 Q102.8 77.6 89.55 68.55 L94.6 79.25 111.85 84.2 120.85 86.8 Q121.25 86.85 121.5 87.5 L137.0 142.35 146.35 89.5 146.15 87.7 175.25 78.3 M150.0 60.35 Q152.35 47.55 152.05 34.45 L135.85 38.8 136.1 62.15 150.0 60.35 M173.5 60.2 L172.5 64.85 Q176.55 62.25 179.9 58.65 L173.5 60.2 M209.05 98.25 L203.0 88.2 180.25 80.6 164.7 114.85 164.25 114.95 160.65 111.0 139.2 146.85 137.6 148.85 136.6 148.85 127.6 160.7 189.85 113.85 176.4 104.6 176.8 103.3 209.05 98.25 M212.9 100.15 L211.7 100.9 182.0 105.3 Q188.6 109.05 193.9 113.75 L193.35 114.95 121.25 169.15 115.45 251.0 224.95 250.6 224.75 230.5 198.8 218.35 204.1 204.8 224.0 207.8 221.85 189.95 214.5 183.1 211.8 180.95 209.2 178.85 206.3 176.85 Q197.25 171.2 188.8 164.8 L193.85 151.25 194.4 151.05 217.85 158.75 207.3 107.0 207.35 106.45 Q207.8 105.3 209.05 105.25 L210.25 106.4 221.2 160.1 Q234.8 168.4 247.0 179.0 L249.8 181.55 252.7 184.1 255.5 186.7 Q264.85 195.8 273.5 205.75 L265.4 156.3 244.6 119.65 218.35 93.4 207.35 89.7 212.95 99.6 212.9 100.15 M158.85 108.25 L148.75 93.1 140.7 138.55 158.85 108.25 M149.8 89.25 L163.85 110.3 176.75 81.0 149.8 89.25 M222.25 165.6 Q209.15 159.4 195.6 154.25 L191.95 164.1 Q207.6 172.25 220.7 184.1 232.15 194.4 241.45 206.75 242.95 208.75 243.4 211.45 243.5 212.25 242.85 212.45 L241.95 212.8 225.35 210.75 205.65 207.55 202.0 217.25 Q216.9 223.05 232.05 228.1 236.9 229.65 242.0 230.45 L267.3 234.35 277.9 215.55 Q271.15 207.5 264.2 199.95 252.65 187.25 239.25 176.4 231.35 170.0 222.25 165.6 M113.05 17.9 L113.05 21.9 Q118.95 21.5 124.65 24.0 126.35 24.8 128.15 24.7 134.1 24.25 138.4 20.1 137.5 12.1 129.2 12.3 124.0 12.4 118.9 14.2 110.25 8.5 100.1 9.3 L83.4 23.0 Q98.5 25.0 111.7 17.5 L113.05 17.9 M112.2 13.75 L112.1 14.5 Q104.5 12.75 97.6 16.4 L96.45 15.6 Q103.65 9.1 112.2 13.75 M141.35 18.55 Q141.05 23.45 145.1 21.65 L145.75 20.85 141.35 18.55 M120.5 38.2 L116.4 37.15 119.5 62.5 133.1 62.4 132.9 39.4 Q127.35 39.95 120.5 38.2 M102.4 66.95 L102.8 71.7 Q108.9 73.2 117.55 73.4 L116.8 65.65 102.4 66.95 M99.4 67.05 Q94.1 66.7 89.45 64.85 L94.55 68.3 Q96.75 69.75 99.75 70.8 L99.4 67.05 M94.5 30.1 L94.6 31.8 Q96.2 48.2 101.65 64.0 L116.5 62.65 113.25 36.2 94.5 30.1 M76.9 28.35 L72.35 32.05 85.5 60.0 87.55 60.9 Q92.85 63.35 98.5 63.95 92.65 46.9 91.5 29.2 L86.0 28.1 76.9 28.35 M126.5 81.95 L127.05 81.0 Q135.0 81.95 142.05 78.4 L143.1 79.55 Q135.8 84.25 127.1 82.85 L126.5 81.95 M119.8 65.5 L120.6 73.35 134.9 72.6 133.4 65.35 119.8 65.5 M58.2 102.2 L57.1 101.35 Q57.05 100.55 57.55 99.9 L63.95 92.2 61.0 93.1 21.1 142.9 3.0 185.95 6.4 207.2 30.5 176.2 52.55 159.85 64.7 107.4 65.95 106.35 67.55 107.3 67.6 108.1 56.15 157.45 Q69.65 151.1 83.75 146.5 84.3 146.25 84.75 146.8 L90.7 159.85 Q71.25 178.1 50.6 195.45 L50.6 206.15 76.85 199.4 77.8 199.75 82.9 212.65 82.6 213.55 50.6 232.15 50.6 251.2 112.45 251.0 118.3 168.3 130.4 152.05 81.55 114.6 81.05 114.0 Q80.7 112.8 81.8 112.2 L89.05 108.1 58.2 102.2 M54.65 161.8 L32.7 178.2 5.25 213.55 12.9 233.1 48.65 229.8 79.6 211.85 76.3 202.65 Q58.05 208.2 39.2 211.65 L37.9 210.75 Q42.15 199.7 50.8 191.6 57.65 185.1 64.8 179.1 76.35 169.45 87.5 159.15 L82.9 149.65 77.25 152.0 Q65.75 156.5 54.65 161.8 M119.5 91.55 L111.65 104.6 132.4 137.2 119.5 91.55 M94.9 107.25 L85.25 113.6 132.25 149.65 134.7 146.4 109.9 107.45 105.25 115.0 104.15 115.3 103.7 115.1 93.35 83.5 69.2 90.65 61.3 99.75 93.75 105.95 94.9 107.25 M104.75 110.15 L117.7 88.75 96.3 82.8 104.75 110.15 M47.6 200.6 L44.4 207.55 47.6 206.9 47.6 200.6 M240.1 209.6 Q236.15 202.2 229.85 196.75 L226.3 193.65 232.45 208.8 240.1 209.6 M227.7 202.95 L225.8 199.25 227.05 208.3 229.25 208.5 227.7 202.95" fill="#1a1a1a" fill-rule="evenodd" stroke="none"/>
      <path d="M155.45 6.65 Q157.0 4.8 154.85 3.95 144.35 3.05 135.7 9.05 L135.45 9.8 Q126.5 8.0 117.95 11.75 114.3 8.2 109.3 6.75 131.5 3.15 154.05 2.75 L185.35 23.25 Q174.0 21.05 162.45 21.15 158.65 21.15 154.85 21.3 147.35 20.6 141.0 16.3 139.8 12.95 138.1 10.85 146.05 6.2 155.25 6.85 L155.45 6.65 M157.35 12.5 L157.05 11.8 Q148.55 5.75 140.85 12.25 L141.75 12.8 Q149.2 8.95 156.4 13.5 L157.35 12.5 M155.0 23.3 L174.2 23.55 145.85 33.6 Q135.5 37.2 122.75 35.45 110.0 33.7 86.9 25.2 99.1 25.85 110.15 20.95 L110.3 24.45 111.85 24.9 Q114.15 25.6 116.15 24.45 128.8 31.85 140.05 22.65 142.05 24.65 144.75 24.4 146.85 23.9 147.55 21.85 L149.35 22.6 Q152.0 24.0 155.0 23.3 M175.25 78.3 L146.15 87.7 146.35 89.5 137.0 142.35 121.5 87.5 Q121.25 86.85 120.85 86.8 L111.85 84.2 94.6 79.25 89.55 68.55 Q102.8 77.6 119.2 76.4 L147.3 74.55 Q156.1 73.95 164.45 71.5 173.65 68.85 180.45 62.4 L175.25 78.3 M112.2 13.75 Q103.65 9.1 96.45 15.6 L97.6 16.4 Q104.5 12.75 112.1 14.5 L112.2 13.75 M113.05 17.9 L111.7 17.5 Q98.5 25.0 83.4 23.0 L100.1 9.3 Q110.25 8.5 118.9 14.2 124.0 12.4 129.2 12.3 137.5 12.1 138.4 20.1 134.1 24.25 128.15 24.7 126.35 24.8 124.65 24.0 118.95 21.5 113.05 21.9 L113.05 17.9 M126.5 81.95 L127.1 82.85 Q135.8 84.25 143.1 79.55 L142.05 78.4 Q135.0 81.95 127.05 81.0 L126.5 81.95" fill="#f3deee" fill-rule="evenodd" stroke="none"/>
      <path d="M176.9 27.7 Q174.95 42.95 171.05 57.6 L153.1 59.9 Q155.4 46.8 155.05 33.45 165.75 28.25 177.35 26.0 177.0 26.8 176.9 27.7 M174.3 56.9 L180.8 25.75 191.45 27.5 182.85 54.9 174.3 56.9 M149.15 71.3 L137.95 72.35 136.4 65.1 149.55 63.4 Q148.85 68.4 149.15 71.3 M152.6 63.0 L170.3 60.75 169.0 66.8 165.8 68.1 Q159.15 70.55 152.15 71.0 L152.6 63.0 M173.5 60.2 L179.9 58.65 Q176.55 62.25 172.5 64.85 L173.5 60.2 M150.0 60.35 L136.1 62.15 135.85 38.8 152.05 34.45 Q152.35 47.55 150.0 60.35 M76.9 28.35 L86.0 28.1 91.5 29.2 Q92.65 46.9 98.5 63.95 92.85 63.35 87.55 60.9 L85.5 60.0 72.35 32.05 76.9 28.35 M94.5 30.1 L113.25 36.2 116.5 62.65 101.65 64.0 Q96.2 48.2 94.6 31.8 L94.5 30.1 M99.4 67.05 L99.75 70.8 Q96.75 69.75 94.55 68.3 L89.45 64.85 Q94.1 66.7 99.4 67.05 M102.4 66.95 L116.8 65.65 117.55 73.4 Q108.9 73.2 102.8 71.7 L102.4 66.95 M120.5 38.2 Q127.35 39.95 132.9 39.4 L133.1 62.4 119.5 62.5 116.4 37.15 120.5 38.2 M119.8 65.5 L133.4 65.35 134.9 72.6 120.6 73.35 119.8 65.5" fill="#ffffff" fill-rule="evenodd" stroke="none"/>
      <path d="M185.65 56.2 L187.3 51.2 187.75 51.65 Q187.75 53.75 186.65 55.25 L185.65 56.2" fill="#d0cfd0" fill-rule="evenodd" stroke="none"/>
      <path d="M212.9 100.15 L212.95 99.6 207.35 89.7 218.35 93.4 244.6 119.65 265.4 156.3 273.5 205.75 Q264.85 195.8 255.5 186.7 L252.7 184.1 249.8 181.55 247.0 179.0 Q234.8 168.4 221.2 160.1 L210.25 106.4 209.05 105.25 Q207.8 105.3 207.35 106.45 L207.3 107.0 217.85 158.75 194.4 151.05 193.85 151.25 188.8 164.8 Q197.25 171.2 206.3 176.85 L209.2 178.85 211.8 180.95 214.5 183.1 221.85 189.95 224.0 207.8 204.1 204.8 198.8 218.35 224.75 230.5 224.95 250.6 115.45 251.0 121.25 169.15 193.35 114.95 193.9 113.75 Q188.6 109.05 182.0 105.3 L211.7 100.9 212.9 100.15 M209.05 98.25 L176.8 103.3 176.4 104.6 189.85 113.85 127.6 160.7 136.6 148.85 137.6 148.85 139.2 146.85 160.65 111.0 164.25 114.95 164.7 114.85 180.25 80.6 203.0 88.2 209.05 98.25 M58.2 102.2 L89.05 108.1 81.8 112.2 Q80.7 112.8 81.05 114.0 L81.55 114.6 130.4 152.05 118.3 168.3 112.45 251.0 50.6 251.2 50.6 232.15 82.6 213.55 82.9 212.65 77.8 199.75 76.85 199.4 50.6 206.15 50.6 195.45 Q71.25 178.1 90.7 159.85 L84.75 146.8 Q84.3 146.25 83.75 146.5 69.65 151.1 56.15 157.45 L67.6 108.1 67.55 107.3 65.95 106.35 64.7 107.4 52.55 159.85 30.5 176.2 6.4 207.2 3.0 185.95 21.1 142.9 61.0 93.1 63.95 92.2 57.55 99.9 Q57.05 100.55 57.1 101.35 L58.2 102.2 M94.9 107.25 L93.75 105.95 61.3 99.75 69.2 90.65 93.35 83.5 103.7 115.1 104.15 115.3 105.25 115.0 109.9 107.45 134.7 146.4 132.25 149.65 85.25 113.6 94.9 107.25 M240.1 209.6 L232.45 208.8 226.3 193.65 229.85 196.75 Q236.15 202.2 240.1 209.6" fill="#8d254e" fill-rule="evenodd" stroke="none"/>
      <path d="M149.8 89.25 L176.75 81.0 163.85 110.3 149.8 89.25 M158.85 108.25 L140.7 138.55 148.75 93.1 158.85 108.25 M119.5 91.55 L132.4 137.2 111.65 104.6 119.5 91.55 M104.75 110.15 L96.3 82.8 117.7 88.75 104.75 110.15" fill="#ffe1e9" fill-rule="evenodd" stroke="none"/>
      <path d="M222.25 165.6 Q231.35 170.0 239.25 176.4 252.65 187.25 264.2 199.95 271.15 207.5 277.9 215.55 L267.3 234.35 242.0 230.45 Q236.9 229.65 232.05 228.1 216.9 223.05 202.0 217.25 L205.65 207.55 225.35 210.75 241.95 212.8 242.85 212.45 Q243.5 212.25 243.4 211.45 242.95 208.75 241.45 206.75 232.15 194.4 220.7 184.1 207.6 172.25 191.95 164.1 L195.6 154.25 Q209.15 159.4 222.25 165.6 M141.35 18.55 L145.75 20.85 145.1 21.65 Q141.05 23.45 141.35 18.55 M54.65 161.8 Q65.75 156.5 77.25 152.0 L82.9 149.65 87.5 159.15 Q76.35 169.45 64.8 179.1 57.65 185.1 50.8 191.6 42.15 199.7 37.9 210.75 L39.2 211.65 Q58.05 208.2 76.3 202.65 L79.6 211.85 48.65 229.8 12.9 233.1 5.25 213.55 32.7 178.2 54.65 161.8" fill="#e3aed5" fill-rule="evenodd" stroke="none"/>
    </g>
    <g id="shape5" transform="matrix(1.0, 0.0, 0.0, 1.0, -0.1, 0.0)">
      <path d="M44.15 4.15 Q48.25 3.4 52.05 4.8 L52.4 5.0 52.3 11.35 52.25 12.55 Q56.95 19.4 57.2 28.65 56.95 39.1 50.85 46.55 L50.85 48.45 50.25 54.2 Q46.95 55.8 43.1 54.6 L42.4 54.05 42.25 53.8 Q36.25 57.05 28.6 57.25 20.95 57.05 14.95 53.75 L14.75 54.3 14.4 54.75 8.05 54.95 Q6.45 53.25 6.75 50.75 L6.9 47.7 6.85 47.2 Q3.0 42.7 1.3 37.15 -0.8 29.9 0.85 22.5 2.4 15.75 6.8 10.6 15.0 0.95 27.95 0.05 L28.3 0.05 28.6 0.05 Q37.0 0.25 43.5 4.2 L44.15 4.15 M50.75 10.0 L51.2 5.6 42.35 5.6 Q42.7 27.1 43.4 48.6 43.45 50.9 43.95 52.95 L47.55 53.2 49.45 52.9 Q49.55 33.1 50.45 13.35 L50.75 10.0 M40.95 5.25 Q41.05 4.75 41.2 4.9 L41.4 4.8 Q35.75 1.65 28.6 1.45 17.05 1.75 9.4 9.45 1.7 17.1 1.4 28.65 1.65 37.85 6.6 44.65 L6.5 43.3 6.35 41.05 6.05 39.7 Q1.4 28.1 7.05 17.05 11.65 8.15 21.3 5.15 31.5 2.15 40.85 7.15 L40.95 5.25 M45.1 11.4 L45.35 12.2 47.45 10.1 46.65 9.85 Q45.25 10.0 45.1 11.4 M40.8 9.45 L40.8 8.75 Q35.55 5.45 28.65 5.3 18.7 5.6 12.0 12.3 5.3 19.0 5.05 28.9 5.2 33.9 6.95 38.05 L7.95 37.8 14.45 37.8 15.3 38.55 15.05 47.8 17.35 48.85 17.4 46.3 17.4 42.55 16.8 27.7 17.8 27.05 Q22.25 25.8 26.4 27.25 L26.7 27.55 26.7 51.5 26.7 51.95 29.25 52.05 29.25 51.35 29.25 47.1 29.3 44.85 28.85 16.2 30.2 15.55 38.9 15.85 38.7 49.4 38.7 49.8 41.85 47.95 41.85 47.1 41.95 42.75 41.95 38.3 41.0 14.95 40.85 11.15 40.8 9.45 M44.55 12.65 Q44.5 11.25 45.1 10.1 45.7 8.9 46.6 8.8 47.5 8.7 48.2 9.75 48.9 10.75 48.95 12.35 48.4 13.7 46.65 13.9 45.1 13.75 44.55 12.65 M48.3 45.2 L48.65 46.05 Q49.15 47.55 48.1 48.55 L46.3 49.2 Q44.8 49.15 44.1 47.55 43.75 46.05 44.6 45.2 L45.65 44.45 Q47.35 44.0 48.3 45.2 M46.3 12.95 L46.65 13.0 Q48.75 12.6 48.05 10.7 L46.3 12.95 M50.85 42.75 L50.85 44.4 Q55.35 38.0 55.55 29.2 55.4 21.65 52.1 15.6 L52.05 16.5 Q51.5 20.6 52.6 24.4 53.15 26.45 53.2 28.65 53.35 33.65 51.5 38.1 50.6 40.15 50.85 42.75 M51.15 34.95 Q51.9 31.85 51.85 28.65 L51.65 24.65 51.15 34.95 M44.9 46.45 L44.9 47.25 Q45.45 48.6 46.85 48.1 L47.6 47.8 44.9 46.45 M47.9 46.25 Q47.35 44.95 45.9 45.3 45.55 45.45 45.3 45.7 L47.95 47.0 47.9 46.25 M38.0 18.15 L38.1 16.8 29.9 16.9 31.25 53.15 37.5 53.45 37.55 53.2 Q36.9 35.65 38.0 18.15 M35.4 21.6 L35.0 20.95 32.75 21.0 32.45 21.65 35.4 21.6 M32.05 23.7 Q30.8 22.05 32.1 20.4 L32.25 20.3 Q33.9 18.95 35.6 20.25 L35.8 20.5 Q37.0 22.1 35.7 23.75 L35.55 23.9 Q33.9 25.2 32.2 23.85 L32.05 23.7 M35.4 48.0 Q37.9 50.5 35.05 52.15 L32.75 52.05 Q31.1 50.6 32.2 48.6 33.2 47.3 35.0 47.8 L35.4 48.0 M32.4 22.2 L32.8 22.85 35.05 22.8 35.35 22.15 32.4 22.2 M20.1 34.85 Q19.2 34.05 19.3 32.95 19.55 30.6 21.75 30.6 23.45 30.5 23.95 32.0 24.55 33.8 23.2 34.9 L20.1 34.85 M23.55 48.15 Q24.4 48.75 24.5 49.6 24.85 52.4 22.1 52.65 21.25 52.3 20.65 51.7 18.85 49.95 20.8 48.1 L23.55 48.15 M9.4 44.7 L9.2 45.45 Q9.35 46.9 10.75 47.05 L11.55 46.85 9.4 44.7 M9.05 47.25 L8.8 46.95 Q7.8 45.3 9.05 43.7 10.1 42.75 11.45 43.15 L12.0 43.35 Q13.1 43.95 13.25 45.45 13.05 47.15 11.75 47.7 10.7 48.45 9.05 47.25 M12.35 45.45 Q12.2 44.05 10.75 43.9 L10.0 44.1 12.15 46.25 12.35 45.45 M14.2 38.7 L7.45 38.8 8.6 53.65 Q9.45 54.1 10.5 54.05 L14.1 53.7 14.2 38.7 M21.65 31.4 L20.9 31.6 23.05 33.75 23.25 32.95 Q23.1 31.55 21.65 31.4 M22.45 34.35 L20.3 32.2 20.1 32.95 Q20.35 34.35 21.65 34.55 L22.45 34.35 M22.15 48.6 Q21.45 48.65 21.1 49.0 20.65 49.4 20.55 50.15 L20.75 50.9 22.85 48.8 22.15 48.6 M35.3 49.15 L33.1 49.1 32.65 49.55 32.6 50.35 35.3 49.15 M25.55 28.05 L17.9 28.15 19.3 53.15 24.75 53.25 25.55 28.05 M41.95 51.4 L41.85 49.6 38.7 51.3 38.55 53.05 38.35 54.05 42.0 52.4 41.95 51.4 M25.95 54.9 L23.3 55.25 Q28.6 56.35 33.95 55.25 L30.85 54.9 Q29.8 54.75 29.55 53.85 L29.45 53.4 26.6 53.3 25.95 54.9 M33.2 51.4 L34.55 51.7 35.7 49.95 33.2 51.4 M21.35 51.55 L22.1 51.75 Q23.9 51.55 23.6 49.7 L21.35 51.55 M15.15 51.45 L15.15 52.25 17.45 53.45 17.3 52.6 Q17.2 51.75 17.25 50.65 L15.1 49.4 15.15 51.45" fill="#5d0035" fill-rule="evenodd" stroke="none"/>
      <path d="M50.75 10.0 L50.45 13.35 Q49.55 33.1 49.45 52.9 L47.55 53.2 43.95 52.95 Q43.45 50.9 43.4 48.6 42.7 27.1 42.35 5.6 L51.2 5.6 50.75 10.0 M48.95 12.35 Q48.9 10.75 48.2 9.75 47.5 8.7 46.6 8.8 45.7 8.9 45.1 10.1 44.5 11.25 44.55 12.65 L44.6 45.2 Q43.75 46.05 44.1 47.55 44.8 49.15 46.3 49.2 46.8 49.75 47.7 49.65 L48.1 48.55 Q49.15 47.55 48.65 46.05 L48.3 45.2 48.05 41.5 Q47.2 35.85 47.35 30.15 47.65 21.15 48.95 12.35 M38.0 18.15 Q36.9 35.65 37.55 53.2 L37.5 53.45 31.25 53.15 29.9 16.9 38.1 16.8 38.0 18.15 M35.55 23.9 L35.7 23.75 Q37.0 22.1 35.8 20.5 L35.6 20.25 Q33.9 18.95 32.25 20.3 L32.1 20.4 Q30.8 22.05 32.05 23.7 32.7 32.75 31.85 41.85 31.65 43.75 31.7 45.7 31.7 47.3 32.2 48.6 31.1 50.6 32.75 52.05 L35.05 52.15 Q37.9 50.5 35.4 48.0 34.65 36.55 35.35 25.1 L35.55 23.9 M23.2 34.9 Q24.55 33.8 23.95 32.0 23.45 30.5 21.75 30.6 19.55 30.6 19.3 32.95 19.2 34.05 20.1 34.85 L20.8 48.1 Q18.85 49.95 20.65 51.7 21.25 52.3 22.1 52.65 24.85 52.4 24.5 49.6 24.4 48.75 23.55 48.15 L23.2 34.9 M9.05 43.7 Q7.8 45.3 8.8 46.95 L9.05 47.25 Q8.85 50.0 10.4 52.15 10.75 52.65 11.4 52.4 L11.75 47.7 Q13.05 47.15 13.25 45.45 13.1 43.95 12.0 43.35 12.3 41.75 11.6 40.3 L11.4 40.05 10.2 39.95 Q8.8 41.5 9.05 43.7 M14.2 38.7 L14.1 53.7 10.5 54.05 Q9.45 54.1 8.6 53.65 L7.45 38.8 14.2 38.7 M25.55 28.05 L24.75 53.25 19.3 53.15 17.9 28.15 25.55 28.05" fill="#e3c1d7" fill-rule="evenodd" stroke="none"/>
      <path d="M6.5 43.3 L6.6 44.65 Q1.65 37.85 1.4 28.65 1.7 17.1 9.4 9.45 17.05 1.75 28.6 1.45 35.75 1.65 41.4 4.8 L41.2 4.9 Q41.05 4.75 40.95 5.25 35.45 2.3 28.5 2.1 17.25 2.4 9.8 9.9 2.3 17.35 2.0 28.6 2.2 37.0 6.5 43.3 M40.85 11.15 L41.0 14.95 Q38.6 13.0 35.2 12.55 30.25 11.95 25.95 12.6 16.7 14.25 11.6 22.15 8.2 28.0 10.7 34.3 L12.05 37.4 9.6 37.55 Q7.6 32.95 7.75 27.7 7.85 22.9 10.4 19.05 15.75 11.05 25.25 9.1 33.55 7.45 40.85 11.15 M41.95 38.3 L41.95 42.75 39.4 43.95 Q39.25 42.35 39.25 40.75 L41.95 38.3 M29.3 44.85 L29.25 47.1 27.4 47.55 27.4 45.1 29.3 44.85 M17.4 42.55 L17.4 46.3 16.15 45.55 15.9 41.9 17.4 42.55 M52.05 16.5 L52.1 15.6 Q55.4 21.65 55.55 29.2 55.35 38.0 50.85 44.4 L50.85 42.75 Q54.75 36.6 54.95 28.6 54.75 21.85 52.05 16.5 M41.95 51.4 L42.0 52.4 38.35 54.05 38.55 53.05 41.95 51.4 M30.85 54.9 L33.95 55.25 Q28.6 56.35 23.3 55.25 L25.95 54.9 30.85 54.9 M17.3 52.6 L17.45 53.45 15.15 52.25 15.15 51.45 17.3 52.6" fill="#d2c0c0" fill-rule="evenodd" stroke="none"/>
      <path d="M44.15 4.15 L43.5 4.2 Q37.0 0.25 28.6 0.05 L29.2 0.0 Q37.65 0.2 44.15 4.15 M1.3 37.15 Q3.0 42.7 6.85 47.2 L6.9 47.7 Q2.95 43.0 1.3 37.15" fill="#8d3f6d" fill-rule="evenodd" stroke="none"/>
      <path d="M40.8 9.45 L40.85 11.15 Q33.55 7.45 25.25 9.1 15.75 11.05 10.4 19.05 7.85 22.9 7.75 27.7 7.6 32.95 9.6 37.55 L12.05 37.4 14.45 37.8 7.95 37.8 Q3.5 25.3 11.45 14.7 17.0 7.25 26.3 6.1 34.15 5.3 40.8 9.45 M41.95 42.75 L41.85 47.1 39.25 48.7 38.7 49.4 38.9 15.85 30.2 15.55 Q33.5 13.75 37.2 14.75 40.15 15.65 39.9 19.05 39.05 29.85 39.25 40.75 39.25 42.35 39.4 43.95 L41.95 42.75 M29.25 47.1 L29.25 51.35 26.7 51.5 26.7 27.55 26.4 27.25 Q22.25 25.8 17.8 27.05 19.55 26.25 21.6 26.15 L24.6 26.45 Q27.6 26.9 27.45 30.1 27.1 37.6 27.4 45.1 L27.4 47.55 29.25 47.1 M17.4 46.3 L17.35 48.85 15.05 47.8 15.3 38.55 15.9 41.9 16.15 45.55 17.4 46.3" fill="#bda3a3" fill-rule="evenodd" stroke="none"/>
      <path d="M7.95 37.8 L6.95 38.05 Q5.2 33.9 5.05 28.9 5.3 19.0 12.0 12.3 18.7 5.6 28.65 5.3 35.55 5.45 40.8 8.75 L40.8 9.45 Q34.15 5.3 26.3 6.1 17.0 7.25 11.45 14.7 3.5 25.3 7.95 37.8 M41.85 47.1 L41.85 47.95 38.7 49.8 38.7 49.4 39.25 48.7 41.85 47.1 M29.25 51.35 L29.25 52.05 26.7 51.95 26.7 51.5 29.25 51.35 M51.15 34.95 L51.65 24.65 51.85 28.65 Q51.9 31.85 51.15 34.95" fill="#aa8888" fill-rule="evenodd" stroke="none"/>
      <path d="M45.1 11.4 Q45.25 10.0 46.65 9.85 L47.45 10.1 45.35 12.2 45.1 11.4 M46.3 12.95 L48.05 10.7 Q48.75 12.6 46.65 13.0 L46.3 12.95 M44.9 46.45 L47.6 47.8 46.85 48.1 Q45.45 48.6 44.9 47.25 L44.9 46.45 M47.9 46.25 L47.95 47.0 45.3 45.7 Q45.55 45.45 45.9 45.3 47.35 44.95 47.9 46.25 M35.4 21.6 L32.45 21.65 32.75 21.0 35.0 20.95 35.4 21.6 M32.4 22.2 L35.35 22.15 35.05 22.8 32.8 22.85 32.4 22.2 M9.4 44.7 L11.55 46.85 10.75 47.05 Q9.35 46.9 9.2 45.45 L9.4 44.7 M12.35 45.45 L12.15 46.25 10.0 44.1 10.75 43.9 Q12.2 44.05 12.35 45.45 M22.45 34.35 L21.65 34.55 Q20.35 34.35 20.1 32.95 L20.3 32.2 22.45 34.35 M21.65 31.4 Q23.1 31.55 23.25 32.95 L23.05 33.75 20.9 31.6 21.65 31.4 M22.15 48.6 L22.85 48.8 20.75 50.9 20.55 50.15 Q20.65 49.4 21.1 49.0 21.45 48.65 22.15 48.6 M35.3 49.15 L32.6 50.35 32.65 49.55 33.1 49.1 35.3 49.15 M33.2 51.4 L35.7 49.95 34.55 51.7 33.2 51.4 M21.35 51.55 L23.6 49.7 Q23.9 51.55 22.1 51.75 L21.35 51.55" fill="#a68884" fill-rule="evenodd" stroke="none"/>
      <path d="M48.95 12.35 Q47.65 21.15 47.35 30.15 47.2 35.85 48.05 41.5 L48.3 45.2 Q47.35 44.0 45.65 44.45 L44.6 45.2 44.55 12.65 Q45.1 13.75 46.65 13.9 48.4 13.7 48.95 12.35 M48.1 48.55 L47.7 49.65 Q46.8 49.75 46.3 49.2 L48.1 48.55 M35.55 23.9 L35.35 25.1 Q34.65 36.55 35.4 48.0 L35.0 47.8 Q33.2 47.3 32.2 48.6 31.7 47.3 31.7 45.7 31.65 43.75 31.85 41.85 32.7 32.75 32.05 23.7 L32.2 23.85 Q33.9 25.2 35.55 23.9 M20.1 34.85 L23.2 34.9 23.55 48.15 20.8 48.1 20.1 34.85 M9.05 43.7 Q8.8 41.5 10.2 39.95 L11.4 40.05 11.6 40.3 Q12.3 41.75 12.0 43.35 L11.45 43.15 Q10.1 42.75 9.05 43.7 M11.75 47.7 L11.4 52.4 Q10.75 52.65 10.4 52.15 8.85 50.0 9.05 47.25 10.7 48.45 11.75 47.7" fill="#c7abb9" fill-rule="evenodd" stroke="none"/>
      <path d="M40.95 5.25 L40.85 7.15 Q31.5 2.15 21.3 5.15 11.65 8.15 7.05 17.05 1.4 28.1 6.05 39.7 L6.35 41.05 6.5 43.3 Q2.2 37.0 2.0 28.6 2.3 17.35 9.8 9.9 17.25 2.4 28.5 2.1 35.45 2.3 40.95 5.25 M41.0 14.95 L41.95 38.3 39.25 40.75 Q39.05 29.85 39.9 19.05 40.15 15.65 37.2 14.75 33.5 13.75 30.2 15.55 L28.85 16.2 29.3 44.85 27.4 45.1 Q27.1 37.6 27.45 30.1 27.6 26.9 24.6 26.45 L21.6 26.15 Q19.55 26.25 17.8 27.05 L16.8 27.7 17.4 42.55 15.9 41.9 15.3 38.55 14.45 37.8 12.05 37.4 10.7 34.3 Q8.2 28.0 11.6 22.15 16.7 14.25 25.95 12.6 30.25 11.95 35.2 12.55 38.6 13.0 41.0 14.95 M50.85 42.75 Q50.6 40.15 51.5 38.1 53.35 33.65 53.2 28.65 53.15 26.45 52.6 24.4 51.5 20.6 52.05 16.5 54.75 21.85 54.95 28.6 54.75 36.6 50.85 42.75 M38.55 53.05 L38.7 51.3 41.85 49.6 41.95 51.4 38.55 53.05 M25.95 54.9 L26.6 53.3 29.45 53.4 29.55 53.85 Q29.8 54.75 30.85 54.9 L25.95 54.9 M15.15 51.45 L15.1 49.4 17.25 50.65 Q17.2 51.75 17.3 52.6 L15.15 51.45" fill="#e3d7d7" fill-rule="evenodd" stroke="none"/>
    </g>
  </defs>
</svg>
