<?xml version="1.0" encoding="UTF-8" standalone="no"?>
<svg xmlns:xlink="http://www.w3.org/1999/xlink" height="468.95px" width="310.1px" xmlns="http://www.w3.org/2000/svg">
  <g transform="matrix(1.0, 0.0, 0.0, 1.0, 153.05, 468.95)">
    <use height="36.0" transform="matrix(1.0, 0.0, 0.0, 1.0, -79.55, -36.0)" width="159.0" xlink:href="#shape0"/>
    <use height="96.65" transform="matrix(1.0, 0.0, 0.0, 1.0, -27.15, -108.0)" width="54.2" xlink:href="#shape1"/>
    <use height="37.0" transform="matrix(1.0, 0.0, 0.0, 1.0, -92.65, -94.35)" width="185.25" xlink:href="#shape2"/>
    <use height="15.35" transform="matrix(1.0, 0.0, 0.0, 1.0, -73.3, -82.75)" width="153.4" xlink:href="#text0"/>
    <use height="335.5" transform="matrix(1.0, 0.0, 0.0, 1.0, -97.05, -434.4)" width="190.85" xlink:href="#shape3"/>
    <use height="260.2" transform="matrix(1.209, 0.0, 0.0, 1.209, -80.35, -414.95)" width="129.2" xlink:href="#shape4"/>
    <use height="57.25" transform="matrix(1.0, 0.0, 0.0, 1.0, -30.65, -203.05)" width="57.1" xlink:href="#shape5"/>
  </g>
  <defs>
    <g id="shape0" transform="matrix(1.0, 0.0, 0.0, 1.0, 0.0, 0.0)">
      <path d="M135.7 30.75 Q113.3 35.8 79.5 36.0 45.7 35.8 23.3 30.75 0.85 25.65 0.0 18.0 0.85 10.35 23.3 5.25 45.7 0.2 79.5 0.0 113.3 0.2 135.7 5.25 158.15 10.35 159.0 18.0 158.15 25.65 135.7 30.75" fill="#000000" fill-opacity="0.39607844" fill-rule="evenodd" stroke="none"/>
    </g>
    <g id="shape1" transform="matrix(1.0, 0.0, 0.0, 1.0, 0.0, 0.0)">
      <path d="M5.85 93.35 Q-0.15 90.4 0.0 90.0 L0.0 0.0 54.2 0.0 54.2 90.0 Q54.15 90.4 46.95 93.35 39.7 96.25 25.65 96.65 11.8 96.25 5.85 93.35" fill="url(#gradient0)" fill-rule="evenodd" stroke="none"/>
    </g>
    <linearGradient gradientTransform="matrix(0.0303, 0.0, 0.0, 0.0303, 25.7, 48.35)" gradientUnits="userSpaceOnUse" id="gradient0" spreadMethod="pad" x1="-819.2" x2="819.2">
      <stop offset="0.0" stop-color="#565656"/>
      <stop offset="0.403921568627451" stop-color="#9a9999"/>
      <stop offset="0.592156862745098" stop-color="#dbdbda"/>
      <stop offset="0.7803921568627451" stop-color="#9b9a9a"/>
      <stop offset="1.0" stop-color="#151213"/>
    </linearGradient>
    <g id="shape2" transform="matrix(1.0, 0.0, 0.0, 1.0, -0.05, 0.0)">
      <path d="M185.25 8.2 L185.3 8.25 185.25 8.25 185.25 8.2 M1.9 5.2 L2.3 2.85 18.75 2.05 59.05 0.7 Q83.4 0.05 109.4 0.3 115.1 0.55 118.85 1.6 122.65 2.7 128.15 3.0 L129.3 1.5 Q130.05 0.2 130.5 0.0 160.7 0.5 181.5 3.85 L183.45 6.1 103.3 3.5 Q60.0 3.6 6.5 5.1 L1.9 5.2 M176.25 8.0 L176.45 8.4 177.65 11.45 178.5 13.65 Q179.3 12.8 179.7 10.9 179.7 9.8 179.25 9.1 L179.9 9.55 Q180.65 10.3 180.7 11.75 179.85 15.7 177.15 15.05 175.8 14.75 175.1 13.85 L176.15 14.2 177.35 14.25 176.45 12.35 174.9 8.8 174.8 8.5 174.95 8.35 Q175.75 7.8 176.25 8.0 M178.25 27.3 L179.85 27.15 Q180.5 27.3 181.25 27.95 183.6 31.2 181.35 32.8 180.2 33.6 179.1 33.5 L180.8 32.15 178.8 31.55 175.1 30.4 175.2 29.1 175.2 29.0 175.25 28.7 175.4 28.75 175.85 28.9 178.95 30.05 181.1 30.85 Q181.0 29.65 179.9 28.15 179.05 27.45 178.25 27.3 M9.35 6.95 L10.7 10.45 11.7 12.9 Q12.6 11.95 13.05 9.85 13.05 8.55 12.5 7.75 13.85 8.35 14.15 10.05 L13.75 12.35 Q12.6 15.1 10.15 14.55 8.75 14.25 8.0 13.4 L7.85 13.2 9.0 13.6 10.35 13.65 9.35 11.4 7.6 7.45 8.75 6.6 9.2 6.55 9.35 6.95 M9.4 25.3 Q11.0 24.35 12.9 25.8 15.0 28.35 14.35 30.1 L13.4 31.3 Q12.2 32.25 10.95 32.25 L12.75 30.6 10.4 30.05 6.2 29.05 6.15 27.55 6.15 27.1 6.35 27.15 6.9 27.35 10.45 28.4 12.95 29.1 Q12.75 27.8 11.35 26.15 10.35 25.35 9.4 25.3" fill="#47525f" fill-rule="evenodd" stroke="none"/>
      <path d="M0.05 36.7 L0.75 22.9 Q1.05 14.95 1.6 7.0 L1.9 5.2 6.5 5.1 3.2 8.3 1.95 36.45 0.05 36.7" fill="#cdcdcd" fill-rule="evenodd" stroke="none"/>
      <path d="M13.75 12.35 L14.15 10.05 26.45 10.0 13.75 12.35 M8.0 13.4 L7.0 13.55 7.2 26.2 6.35 27.15 6.15 27.1 6.15 27.55 Q5.15 29.5 6.75 31.55 8.95 33.2 10.95 32.25 12.2 32.25 13.4 31.3 L14.35 30.1 16.45 30.2 36.65 31.3 56.5 32.6 Q50.4 32.9 38.0 32.9 L15.1 32.75 3.85 32.6 5.25 10.05 6.0 10.05 Q6.15 12.3 7.85 13.2 L8.0 13.4" fill="#848484" fill-rule="evenodd" stroke="none"/>
      <path d="M175.1 13.85 Q175.8 14.75 177.15 15.05 179.85 15.7 180.7 11.75 180.65 10.3 179.9 9.55 L180.85 9.65 179.85 27.15 178.25 27.3 177.7 27.3 177.8 15.2 160.95 13.3 Q144.35 11.4 115.0 6.95 144.55 7.2 162.45 8.35 L174.1 9.15 Q173.65 9.7 173.4 10.6 173.45 12.95 175.1 13.85 M175.3 32.3 L137.05 30.55 175.2 29.0 175.2 29.1 Q174.3 30.55 175.3 32.3" fill="#a09fa0" fill-rule="evenodd" stroke="none"/>
      <path d="M176.45 8.4 L176.25 8.0 176.9 7.95 Q178.55 8.05 179.25 9.1 179.7 9.8 179.7 10.9 179.3 12.8 178.5 13.65 L177.65 11.45 178.05 10.25 Q178.0 8.55 176.45 8.4 M174.8 8.5 L174.9 8.8 Q174.35 9.2 174.15 10.05 174.2 11.9 175.85 12.3 L176.45 12.35 177.35 14.25 176.15 14.2 175.1 13.85 Q173.45 12.95 173.4 10.6 173.65 9.7 174.1 9.15 L174.8 8.5 M177.7 27.3 L178.25 27.3 Q179.05 27.45 179.9 28.15 181.0 29.65 181.1 30.85 L178.95 30.05 178.3 28.9 Q177.0 27.8 175.85 28.9 L175.4 28.75 175.8 28.3 Q176.7 27.35 177.7 27.3 M179.1 33.5 Q177.3 34.2 175.5 32.65 L175.3 32.3 Q174.3 30.55 175.2 29.1 L175.1 30.4 Q175.25 32.1 176.95 32.35 178.0 32.25 178.8 31.55 L180.8 32.15 179.1 33.5 M10.7 10.45 L11.2 9.05 Q11.15 7.15 9.35 6.95 L9.2 6.55 9.9 6.5 Q11.75 6.6 12.5 7.75 13.05 8.55 13.05 9.85 12.6 11.95 11.7 12.9 L10.7 10.45 M7.2 26.2 Q8.2 25.2 9.4 25.3 10.35 25.35 11.35 26.15 12.75 27.8 12.95 29.1 L10.45 28.4 Q9.75 26.65 8.05 26.6 L6.9 27.35 6.35 27.15 7.2 26.2 M6.0 10.05 L5.95 9.55 Q6.6 7.0 8.75 6.6 L7.6 7.45 Q7.0 7.9 6.75 8.85 6.8 10.95 8.7 11.35 L9.35 11.4 10.35 13.65 9.0 13.6 7.85 13.2 Q6.15 12.3 6.0 10.05 M6.15 27.55 L6.2 29.05 Q6.45 30.9 8.2 31.1 9.7 31.2 10.4 30.05 L12.75 30.6 10.95 32.25 Q8.95 33.2 6.75 31.55 5.15 29.5 6.15 27.55" fill="#9c9c9c" fill-rule="evenodd" stroke="none"/>
      <path d="M174.9 8.8 L176.45 12.35 175.85 12.3 Q174.2 11.9 174.15 10.05 174.35 9.2 174.9 8.8 M177.65 11.45 L176.45 8.4 Q178.0 8.55 178.05 10.25 L177.65 11.45 M175.85 28.9 Q177.0 27.8 178.3 28.9 L178.95 30.05 175.85 28.9 M175.1 30.4 L178.8 31.55 Q178.0 32.25 176.95 32.35 175.25 32.1 175.1 30.4 M9.35 6.95 Q11.15 7.15 11.2 9.05 L10.7 10.45 9.35 6.95 M9.35 11.4 L8.7 11.35 Q6.8 10.95 6.75 8.85 7.0 7.9 7.6 7.45 L9.35 11.4 M10.45 28.4 L6.9 27.35 8.05 26.6 Q9.75 26.65 10.45 28.4 M6.2 29.05 L10.4 30.05 Q9.7 31.2 8.2 31.1 6.45 30.9 6.2 29.05" fill="#d5d4d4" fill-rule="evenodd" stroke="none"/>
      <path d="M183.45 6.1 L185.3 6.25 185.25 8.2 185.25 8.25 185.1 13.45 184.65 27.3 184.3 36.25 Q157.35 34.75 133.85 35.55 L89.2 37.0 Q65.15 37.15 43.55 35.85 22.0 34.5 0.05 36.75 L0.05 36.7 1.95 36.45 3.2 8.3 6.5 5.1 Q60.0 3.6 103.3 3.5 L183.45 6.1 M176.25 8.0 Q175.75 7.8 174.95 8.35 L174.8 8.5 174.1 9.15 162.45 8.35 Q144.55 7.2 115.0 6.95 144.35 11.4 160.95 13.3 L177.8 15.2 177.7 27.3 Q176.7 27.35 175.8 28.3 L175.4 28.75 175.25 28.7 175.2 29.0 137.05 30.55 175.3 32.3 175.5 32.65 Q177.3 34.2 179.1 33.5 180.2 33.6 181.35 32.8 183.6 31.2 181.25 27.95 180.5 27.3 179.85 27.15 L180.85 9.65 179.9 9.55 179.25 9.1 Q178.55 8.05 176.9 7.95 L176.25 8.0 M12.5 7.75 Q11.75 6.6 9.9 6.5 L9.2 6.55 8.75 6.6 Q6.6 7.0 5.95 9.55 L6.0 10.05 5.25 10.05 3.85 32.6 15.1 32.75 38.0 32.9 Q50.4 32.9 56.5 32.6 L36.65 31.3 16.45 30.2 14.35 30.1 Q15.0 28.35 12.9 25.8 11.0 24.35 9.4 25.3 8.2 25.2 7.2 26.2 L7.0 13.55 8.0 13.4 Q8.75 14.25 10.15 14.55 12.6 15.1 13.75 12.35 L26.45 10.0 14.15 10.05 Q13.85 8.35 12.5 7.75" fill="url(#gradient1)" fill-rule="evenodd" stroke="none"/>
    </g>
    <linearGradient gradientTransform="matrix(0.1131, 0.0, 0.0, 0.0204, 92.65, 20.25)" gradientUnits="userSpaceOnUse" id="gradient1" spreadMethod="pad" x1="-819.2" x2="819.2">
      <stop offset="0.0" stop-color="#9a9a9a"/>
      <stop offset="1.0" stop-color="#ffffff"/>
    </linearGradient>
    <g id="text0" transform="matrix(1.0, 0.0, 0.0, 1.0, 3.1, -5.75)">
      <g transform="matrix(1.0, 0.0, 0.0, 1.0, -4.4, 0.0)">
        <use fill="#000000" height="15.35" transform="matrix(0.4746, 0.0, 0.0, 0.4746, 0.0, 21.0)" width="153.4" xlink:href="#font_______W7_M0"/>
        <use fill="#000000" height="15.35" transform="matrix(0.4746, 0.0, 0.0, 0.4746, 17.15, 21.0)" width="153.4" xlink:href="#font_______W7_o0"/>
        <use fill="#000000" height="15.35" transform="matrix(0.4746, 0.0, 0.0, 0.4746, 28.05, 21.0)" width="153.4" xlink:href="#font_______W7_v0"/>
        <use fill="#000000" height="15.35" transform="matrix(0.4746, 0.0, 0.0, 0.4746, 38.9, 21.0)" width="153.4" xlink:href="#font_______W7_e0"/>
        <use fill="#000000" height="15.35" transform="matrix(0.4746, 0.0, 0.0, 0.4746, 50.3, 21.0)" width="153.4" xlink:href="#font_______W7_r0"/>
        <use fill="#000000" height="15.35" transform="matrix(0.4746, 0.0, 0.0, 0.4746, 63.15, 21.0)" width="153.4" xlink:href="#font_______W7__1"/>
        <use fill="#000000" height="15.35" transform="matrix(0.4746, 0.0, 0.0, 0.4746, 85.0, 21.0)" width="153.4" xlink:href="#font_______W7_S0"/>
        <use fill="#000000" height="15.35" transform="matrix(0.4746, 0.0, 0.0, 0.4746, 98.75, 21.0)" width="153.4" xlink:href="#font_______W7_h0"/>
        <use fill="#000000" height="15.35" transform="matrix(0.4746, 0.0, 0.0, 0.4746, 110.9, 21.0)" width="153.4" xlink:href="#font_______W7_a0"/>
        <use fill="#000000" height="15.35" transform="matrix(0.4746, 0.0, 0.0, 0.4746, 122.7, 21.0)" width="153.4" xlink:href="#font_______W7_k0"/>
        <use fill="#000000" height="15.35" transform="matrix(0.4746, 0.0, 0.0, 0.4746, 134.5, 21.0)" width="153.4" xlink:href="#font_______W7_e0"/>
        <use fill="#000000" height="15.35" transform="matrix(0.4746, 0.0, 0.0, 0.4746, 145.9, 21.0)" width="153.4" xlink:href="#font_______W7_r0"/>
      </g>
    </g>
    <g id="font_______W7_M0">
      <path d="M35.55 -31.55 L35.55 -31.55 30.8 -32.15 20.2 -14.25 9.85 -31.5 5.1 -32.15 2.55 0.05 12.6 -1.4 10.85 -20.45 18.7 -2.25 22.0 -3.05 29.9 -20.9 28.25 0.05 38.3 -1.4 35.55 -31.55" fill-rule="evenodd" stroke="none"/>
    </g>
    <g id="font_______W7_o0">
      <path d="M15.8 -13.5 L15.8 -13.5 Q16.45 -11.85 16.45 -10.4 16.45 -6.85 12.35 -6.85 10.6 -6.85 9.35 -8.05 8.15 -9.35 8.15 -11.05 8.15 -13.25 9.8 -14.6 11.4 -16.0 13.7 -16.0 16.1 -16.0 18.3 -14.3 L15.8 -13.5 M25.7 -11.4 L25.7 -11.4 Q25.7 -13.8 24.75 -16.35 L21.25 -15.25 22.7 -17.2 Q18.35 -21.45 13.15 -21.45 8.45 -21.45 5.1 -18.2 1.8 -14.95 1.8 -10.3 1.8 -5.5 5.4 -2.65 8.65 0.05 13.65 0.05 18.75 0.05 22.2 -3.2 25.7 -6.4 25.7 -11.4" fill-rule="evenodd" stroke="none"/>
    </g>
    <g id="font_______W7_v0">
      <path d="M19.45 -21.45 L19.45 -21.45 12.9 -8.05 3.85 -21.15 0.5 -18.8 11.65 0.05 14.95 -0.8 26.9 -16.95 19.45 -21.45" fill-rule="evenodd" stroke="none"/>
    </g>
    <g id="font_______W7_e0">
      <path d="M19.45 -9.9 L19.45 -9.9 Q16.75 -7.55 13.6 -7.55 10.45 -7.55 9.15 -9.9 L19.45 -9.9 M9.0 -13.4 L9.0 -13.4 Q9.7 -14.95 11.5 -15.95 13.2 -16.8 15.1 -16.8 18.05 -16.8 19.65 -14.35 L9.0 -13.4 M23.25 -9.9 L23.25 -9.9 24.3 -9.9 26.7 -12.6 Q25.85 -16.7 22.9 -19.1 19.9 -21.45 15.15 -21.45 9.65 -21.45 5.9 -18.65 1.8 -15.6 1.8 -10.4 1.8 -5.35 5.8 -2.5 9.3 0.05 14.6 0.05 22.45 0.05 27.15 -4.25 L23.25 -9.9" fill-rule="evenodd" stroke="none"/>
    </g>
    <g id="font_______W7_r0">
      <path d="M18.3 -20.6 L18.3 -20.6 Q16.55 -21.45 14.75 -21.45 11.5 -21.45 8.7 -18.65 L8.45 -20.75 4.45 -21.45 2.55 0.05 10.65 -1.4 9.3 -12.8 Q10.55 -14.85 12.3 -14.85 13.25 -14.85 14.55 -13.85 L16.55 -12.05 18.3 -20.6" fill-rule="evenodd" stroke="none"/>
    </g>
    <g id="font_______W7__1">
      <path d="M18.05 -8.5 L18.05 -8.5 Q16.05 -7.1 13.15 -7.1 9.1 -7.1 9.1 -10.1 9.1 -12.3 12.45 -14.3 14.8 -11.35 18.05 -8.5 M18.5 -24.85 L18.5 -24.85 Q18.5 -23.0 14.7 -21.4 13.25 -24.0 13.25 -25.35 13.25 -26.25 13.95 -26.85 14.65 -27.45 15.5 -27.45 16.6 -27.45 17.5 -26.7 18.5 -25.95 18.5 -24.85 M36.5 -5.2 L36.5 -5.2 Q32.95 -5.45 29.2 -7.25 31.45 -10.05 33.0 -13.5 L23.45 -19.05 Q22.45 -14.85 21.35 -12.6 19.3 -14.5 17.55 -16.8 20.85 -18.35 22.3 -19.65 24.45 -21.45 24.45 -23.8 24.45 -32.15 15.15 -32.15 12.05 -32.15 9.95 -30.25 7.8 -28.3 7.8 -25.15 7.8 -22.2 9.45 -18.85 2.55 -15.1 2.55 -9.75 2.55 -5.15 6.6 -2.35 10.2 0.05 15.0 0.05 20.65 0.05 25.3 -3.45 30.75 -0.4 35.0 -0.05 L36.5 -5.2" fill-rule="evenodd" stroke="none"/>
    </g>
    <g id="font_______W7_S0">
      <path d="M31.55 -9.25 L31.55 -9.25 Q31.55 -13.4 28.3 -15.85 25.95 -17.65 19.7 -19.75 10.7 -22.75 10.7 -24.2 10.7 -25.4 11.9 -26.1 13.0 -26.75 14.65 -26.75 21.7 -26.75 27.4 -23.2 L30.25 -27.8 Q24.05 -32.15 16.75 -32.15 11.9 -32.15 8.45 -30.45 4.0 -28.25 4.0 -23.9 4.0 -20.3 7.85 -18.05 9.4 -17.1 15.9 -14.75 23.85 -11.9 23.85 -10.1 23.85 -8.7 22.45 -7.9 21.25 -7.25 19.75 -7.25 15.9 -7.25 12.1 -9.95 8.85 -12.25 6.35 -15.9 L1.55 -6.1 Q4.85 -3.25 9.45 -1.6 14.1 0.05 18.65 0.05 23.45 0.05 27.15 -2.15 31.55 -4.75 31.55 -9.25" fill-rule="evenodd" stroke="none"/>
    </g>
    <g id="font_______W7_h0">
      <path d="M28.1 -7.6 L28.1 -7.6 Q28.1 -13.7 25.7 -17.25 22.9 -21.45 17.05 -21.45 13.35 -21.45 10.45 -19.3 L9.3 -31.55 4.65 -32.15 2.05 0.05 12.1 -1.4 11.0 -12.9 Q13.45 -15.95 16.35 -15.95 20.1 -15.95 20.1 -10.2 20.1 -6.55 17.6 -1.55 L27.6 0.05 28.1 -7.6" fill-rule="evenodd" stroke="none"/>
    </g>
    <g id="font_______W7_a0">
      <path d="M19.05 -8.85 L19.05 -8.85 18.5 -5.05 17.1 -9.0 Q14.35 -6.2 10.6 -6.2 9.95 -6.2 9.45 -6.75 9.0 -7.2 9.0 -7.85 9.0 -10.2 13.7 -10.2 15.9 -10.2 19.05 -8.85 M27.4 -6.8 L27.4 -6.8 Q27.4 -21.45 13.35 -21.45 7.15 -21.45 2.55 -18.35 L4.3 -14.35 Q8.3 -16.55 13.15 -16.55 17.85 -16.55 18.85 -13.35 15.4 -14.5 12.8 -14.5 8.6 -14.5 5.6 -12.8 1.8 -10.75 1.8 -6.95 1.8 -3.5 4.9 -1.55 7.55 0.05 11.15 0.05 13.95 0.05 17.35 -0.95 L17.0 0.15 26.7 -0.3 Q27.4 -3.45 27.4 -6.8" fill-rule="evenodd" stroke="none"/>
    </g>
    <g id="font_______W7_k0">
      <path d="M20.35 -12.2 L20.35 -12.2 26.9 -17.9 24.8 -21.8 10.85 -14.65 9.3 -31.45 4.6 -32.15 2.05 0.05 12.1 -1.4 11.35 -9.1 13.25 -6.05 15.8 -8.25 22.05 0.25 28.6 -6.95 20.35 -12.2" fill-rule="evenodd" stroke="none"/>
    </g>
    <g id="shape3" transform="matrix(1.0, 0.0, 0.0, 1.0, 2.75, 57.0)">
      <path d="M123.9 51.55 L128.3 -33.75 82.8 -50.0 51.25 -36.35 59.15 66.0 60.65 103.2 23.65 120.1 4.15 203.95 6.5 249.25 7.3 264.45 18.1 275.3 167.9 275.3 176.35 264.35 176.35 197.4 174.4 176.1 173.8 127.0 121.1 103.85 123.9 51.55 M66.9 -33.55 L66.9 -31.05 57.2 -20.9 57.2 -23.5 57.25 -23.5 66.9 -33.55 M70.5 -27.5 Q70.95 -17.75 61.3 -18.35 L59.55 -19.15 59.5 -21.5 Q61.2 -20.55 63.25 -20.5 69.9 -21.1 70.5 -27.5 M61.95 55.15 L62.65 57.05 63.25 54.95 Q64.6 50.9 68.9 50.4 L70.45 51.7 Q69.6 57.65 63.45 57.85 L64.25 58.25 Q70.15 60.5 71.4 54.65 71.55 57.3 70.25 59.35 68.95 61.35 66.95 61.55 64.95 61.65 63.5 59.85 62.05 57.95 61.95 55.15 M81.4 -57.0 L135.35 -37.6 128.25 94.6 178.75 122.15 188.1 196.9 179.6 266.7 171.3 278.5 15.3 278.5 0.55 267.4 -2.75 192.4 15.3 121.25 56.05 96.4 40.55 -40.55 81.4 -57.0 M164.8 132.7 L164.8 135.15 155.15 145.3 155.15 142.7 155.2 142.7 164.8 132.7 M168.45 138.75 Q168.9 148.5 159.3 147.3 L157.5 147.05 157.45 144.7 Q159.15 145.7 161.2 145.75 167.85 145.15 168.45 138.75" fill="#47525f" fill-rule="evenodd" stroke="none"/>
      <path d="M123.9 51.55 L121.1 103.85 173.8 127.0 174.4 176.1 6.5 249.25 4.15 203.95 23.65 120.1 60.65 103.2 59.15 66.0 123.9 51.55 M67.85 -30.3 L69.1 -31.6 Q69.65 -21.6 59.8 -21.5 L59.5 -21.5 67.85 -30.3 M164.8 135.15 L164.8 132.7 164.4 132.4 164.1 132.5 Q157.6 129.95 154.35 137.0 153.95 137.8 153.7 138.8 L153.7 141.65 Q153.45 142.55 155.15 145.3 L157.5 147.05 159.3 147.3 Q168.9 148.5 168.45 138.75 L167.05 134.6 167.1 135.6 Q166.8 145.2 157.45 144.7 L165.8 135.95 164.8 135.15 M155.2 142.7 L155.15 142.7 155.15 142.65 155.2 142.7 M154.85 141.1 L154.9 140.9 154.85 141.15 154.85 141.1" fill="#bab9ba" fill-rule="evenodd" stroke="none"/>
      <path d="M59.15 66.0 L51.25 -36.35 82.8 -50.0 128.3 -33.75 123.9 51.55 59.15 66.0 M174.4 176.1 L176.35 197.4 176.35 264.35 167.9 275.3 18.1 275.3 7.3 264.45 6.5 249.25 174.4 176.1 M66.15 -33.75 Q59.7 -36.35 56.45 -29.3 L55.75 -27.45 55.75 -24.6 Q55.5 -23.7 57.2 -20.9 L59.55 -19.15 61.3 -18.35 Q70.95 -17.75 70.5 -27.5 L69.1 -31.6 67.85 -30.3 66.9 -31.05 66.9 -33.55 66.45 -33.85 66.15 -33.75 M56.9 -25.15 L56.95 -25.35 56.9 -25.1 56.9 -25.15 M57.2 -23.55 L57.25 -23.5 57.2 -23.5 57.2 -23.55 M68.9 50.4 L67.85 50.05 Q62.25 49.55 61.95 55.15 62.05 57.95 63.5 59.85 64.95 61.65 66.95 61.55 68.95 61.35 70.25 59.35 71.55 57.3 71.4 54.65 L70.45 51.7 68.9 50.4" fill="#9c9c9c" fill-rule="evenodd" stroke="none"/>
      <path d="M55.75 -27.45 L56.45 -29.3 Q59.7 -36.35 66.15 -33.75 60.55 -31.8 57.5 -26.6 L56.95 -25.35 56.9 -25.15 56.8 -24.1 Q55.9 -25.7 55.75 -27.45 M61.95 55.15 Q62.25 49.55 67.85 50.05 L68.9 50.4 Q64.6 50.9 63.25 54.95 L62.65 57.05 61.95 55.15 M153.7 138.8 Q153.95 137.8 154.35 137.0 157.6 129.95 164.1 132.5 158.35 134.45 155.5 139.6 L154.9 140.9 154.85 141.1 Q154.7 141.65 154.7 142.1 153.8 140.55 153.7 138.8" fill="#e9e9eb" fill-rule="evenodd" stroke="none"/>
      <path d="M66.15 -33.75 L66.45 -33.85 66.9 -33.55 57.25 -23.5 57.2 -23.55 56.85 -24.1 56.9 -25.1 56.95 -25.35 57.5 -26.6 Q60.55 -31.8 66.15 -33.75 M164.1 132.5 L164.4 132.4 164.8 132.7 155.2 142.7 155.15 142.65 154.8 142.1 154.85 141.15 154.9 140.9 155.5 139.6 Q158.35 134.45 164.1 132.5" fill="#d0cfd0" fill-rule="evenodd" stroke="none"/>
      <path d="M69.1 -31.6 L70.5 -27.5 Q69.9 -21.1 63.25 -20.5 61.2 -20.55 59.5 -21.5 L59.8 -21.5 Q69.65 -21.6 69.1 -31.6 M70.45 51.7 L71.4 54.65 Q70.15 60.5 64.25 58.25 L63.45 57.85 Q69.6 57.65 70.45 51.7 M157.45 144.7 Q166.8 145.2 167.1 135.6 L167.05 134.6 168.45 138.75 Q167.85 145.15 161.2 145.75 159.15 145.7 157.45 144.7" fill="#b0aeb3" fill-rule="evenodd" stroke="none"/>
      <path d="M66.9 -31.05 L67.85 -30.3 59.5 -21.5 59.55 -19.15 57.2 -20.9 66.9 -31.05 M164.8 135.15 L165.8 135.95 157.45 144.7 157.5 147.05 155.15 145.3 164.8 135.15" fill="#57565b" fill-rule="evenodd" stroke="none"/>
      <path d="M57.2 -20.9 Q55.5 -23.7 55.75 -24.6 L55.75 -27.45 Q55.9 -25.7 56.8 -24.1 L56.9 -25.15 56.9 -25.1 56.85 -24.1 57.2 -23.55 57.2 -23.5 57.2 -20.9 M155.15 145.3 Q153.45 142.55 153.7 141.65 L153.7 138.8 Q153.8 140.55 154.7 142.1 154.7 141.65 154.85 141.1 L154.85 141.15 154.8 142.1 155.15 142.65 155.15 142.7 155.15 145.3" fill="#79818b" fill-rule="evenodd" stroke="none"/>
    </g>
    <g id="shape4" transform="matrix(1.0, 0.0, 0.0, 1.0, 0.0, 0.0)">
      <path d="M45.25 29.75 L47.8 71.6 48.35 71.25 Q52.15 69.5 55.3 72.25 L55.15 73.5 54.4 73.55 52.75 72.7 49.9 72.5 49.85 72.55 Q48.55 78.05 54.2 77.75 60.85 78.4 62.65 71.55 L63.6 72.4 63.25 73.75 Q61.35 81.85 53.15 81.25 L53.45 82.55 58.3 83.45 78.4 84.05 77.5 79.8 76.2 80.5 Q69.5 83.65 66.65 76.5 65.8 74.4 65.7 72.2 L66.8 72.1 67.45 73.8 Q68.9 77.4 71.8 77.4 L75.8 77.3 Q79.05 76.5 78.95 71.7 L78.7 71.45 Q75.8 68.8 72.0 67.75 L72.25 66.7 73.5 66.75 Q81.2 67.8 80.5 75.4 80.35 77.1 79.0 78.35 L79.2 79.7 Q81.75 100.35 77.25 120.7 L76.9 120.9 Q63.15 126.55 52.9 116.25 52.05 115.45 52.25 114.05 54.15 99.65 52.0 85.4 L50.75 86.9 49.45 86.0 51.55 83.15 51.0 80.8 48.25 78.95 50.95 122.65 62.6 126.85 64.45 161.45 69.3 128.35 79.85 123.25 83.8 32.15 80.25 33.25 80.7 34.2 70.5 42.25 76.65 42.45 77.35 42.8 77.3 44.2 71.65 44.3 76.1 48.95 75.15 49.95 68.65 44.2 67.65 44.2 67.8 46.3 Q68.35 53.55 67.1 60.65 L71.8 63.55 73.0 60.2 71.55 57.9 72.6 56.9 79.0 63.1 78.4 64.35 74.7 62.15 74.3 63.15 Q73.2 66.4 69.9 64.95 L68.8 64.4 67.85 67.2 66.25 67.3 Q54.65 62.05 49.05 67.2 L48.6 65.75 49.8 65.1 Q54.4 62.9 56.1 58.1 L57.2 59.05 55.45 62.95 66.7 65.45 66.25 62.35 65.4 61.85 65.55 44.4 63.0 44.3 61.05 46.15 Q58.25 48.95 54.4 48.15 L53.7 47.3 54.65 46.25 56.2 46.15 Q59.0 46.0 60.85 43.9 L51.95 42.4 51.9 41.3 58.9 41.55 52.3 36.55 52.15 36.15 52.45 35.25 49.3 34.8 48.7 35.35 47.3 35.1 47.5 33.9 48.6 33.5 Q57.55 33.1 60.55 41.5 61.15 41.7 61.75 42.05 L67.1 42.25 68.9 39.9 Q74.95 32.45 84.25 30.2 L84.7 20.75 85.3 8.05 Q73.75 1.5 57.65 1.45 L43.85 7.5 45.25 29.75 M1.75 245.2 L1.6 240.9 Q1.1 211.55 1.8 182.25 L15.8 135.15 16.45 134.3 47.9 121.95 40.95 6.35 Q48.65 1.4 57.7 0.45 L61.8 0.05 Q76.0 -0.5 88.15 6.5 L88.35 7.3 82.9 122.0 Q83.25 121.95 91.8 125.5 L103.85 130.55 105.1 131.1 104.9 131.05 117.05 136.9 117.55 137.8 126.1 188.2 127.75 230.1 Q128.6 230.8 128.7 231.8 129.65 241.4 128.8 251.2 120.3 255.95 111.45 255.6 L110.8 255.35 109.3 254.85 102.4 252.2 101.55 259.85 101.25 260.2 30.8 259.45 29.55 254.35 25.1 257.7 Q13.15 253.95 1.85 248.6 L1.7 246.1 1.75 245.2 M78.3 86.1 Q66.0 86.75 53.9 84.6 55.7 99.35 54.6 106.05 53.5 112.7 55.4 116.05 57.25 119.4 59.3 119.9 66.9 121.95 75.55 119.8 77.6 112.1 76.45 102.2 L75.8 102.75 Q66.8 100.2 57.3 101.0 L57.35 100.55 Q67.35 98.95 76.35 101.15 L78.3 86.1 M50.15 146.1 L48.6 146.8 Q47.55 146.55 47.5 145.25 47.15 135.65 46.95 125.95 L29.3 132.6 28.15 143.55 45.0 146.3 45.45 147.15 45.3 147.95 36.0 151.9 61.2 175.0 61.95 173.55 52.75 142.4 50.15 146.1 M59.9 132.25 L54.95 139.25 61.45 161.2 59.9 132.25 M58.9 128.45 L49.95 125.5 50.3 140.7 58.9 128.45 M69.75 125.05 L69.8 126.35 62.55 126.55 62.3 125.55 69.75 125.05 M78.3 146.9 L77.45 146.35 76.9 145.35 66.0 171.8 62.2 179.6 64.6 176.8 90.4 152.25 83.6 146.6 83.35 146.25 Q82.7 145.35 83.4 144.55 83.9 143.95 84.65 143.95 L100.9 145.05 102.95 133.4 88.0 126.2 80.05 146.25 79.75 146.75 78.3 146.9 M72.6 129.4 L78.55 142.0 85.3 124.9 84.65 124.55 72.6 129.4 M75.1 141.7 L71.35 133.75 67.75 159.65 75.1 141.7 M103.0 147.8 L102.6 148.15 89.05 147.3 94.05 151.7 93.65 153.25 56.35 191.15 55.5 256.9 99.2 257.25 99.5 250.35 Q98.55 249.7 97.7 248.5 L97.55 248.0 98.15 239.95 100.0 239.15 104.7 155.0 110.65 144.55 111.25 144.55 112.25 146.05 107.7 155.5 103.6 229.3 110.85 221.65 112.65 221.85 114.3 222.05 117.45 223.1 Q120.35 224.2 123.0 226.1 L124.65 227.4 123.1 188.4 114.7 139.1 105.75 134.75 103.0 147.8 M38.05 147.85 L25.35 145.45 26.15 133.8 18.5 136.7 4.8 182.7 3.1 231.55 6.55 226.75 10.05 221.95 10.4 221.7 20.15 219.25 27.2 225.4 23.2 163.7 18.3 152.45 19.5 151.45 26.15 163.15 30.45 228.25 34.25 231.95 32.05 238.45 34.25 239.3 34.25 239.65 34.35 242.15 34.2 246.45 Q34.05 248.9 32.75 251.05 L32.35 251.75 32.85 257.05 52.5 256.9 53.35 190.75 59.8 177.75 32.0 152.1 32.1 150.4 38.05 147.85 M15.7 233.15 L15.75 232.05 17.4 231.6 19.45 243.55 26.05 243.25 31.05 232.85 19.3 222.35 11.75 223.75 5.15 233.85 4.65 247.0 24.75 254.7 31.85 248.1 31.5 241.4 30.7 241.25 27.7 246.0 17.8 246.4 17.1 243.8 Q16.6 241.35 16.25 238.9 L15.95 236.35 15.7 233.15 M100.75 242.1 L100.35 247.35 112.3 254.95 126.15 249.35 126.35 232.9 116.9 224.65 111.55 224.65 103.4 234.2 103.05 239.0 106.85 239.75 108.3 244.35 113.5 244.2 113.05 237.95 114.5 237.45 116.35 246.7 106.6 247.3 104.7 242.15 100.75 242.1" fill="#1a1a1a" fill-rule="evenodd" stroke="none"/>
      <path d="M45.25 29.75 L43.85 7.5 57.65 1.45 Q73.75 1.5 85.3 8.05 L84.7 20.75 Q83.25 15.3 80.25 10.55 79.1 8.7 77.25 7.6 70.75 3.75 65.7 10.2 62.65 7.4 58.65 6.45 54.9 5.6 52.5 8.3 45.8 15.9 47.95 26.3 L45.25 29.75" fill="#591c1c" fill-rule="evenodd" stroke="none"/>
      <path d="M84.7 20.75 L84.25 30.2 Q74.95 32.45 68.9 39.9 L67.1 42.25 61.75 42.05 Q61.15 41.7 60.55 41.5 57.55 33.1 48.6 33.5 L47.5 33.9 47.3 35.1 48.7 35.35 49.3 34.8 52.45 35.25 52.15 36.15 52.3 36.55 58.9 41.55 51.9 41.3 51.95 42.4 60.85 43.9 Q59.0 46.0 56.2 46.15 L54.65 46.25 53.7 47.3 54.4 48.15 Q58.25 48.95 61.05 46.15 L63.0 44.3 65.55 44.4 65.4 61.85 66.25 62.35 66.7 65.45 55.45 62.95 57.2 59.05 56.1 58.1 Q54.4 62.9 49.8 65.1 L48.6 65.75 49.05 67.2 Q54.65 62.05 66.25 67.3 L67.85 67.2 68.8 64.4 69.9 64.95 Q73.2 66.4 74.3 63.15 L74.7 62.15 78.4 64.35 79.0 63.1 72.6 56.9 71.55 57.9 73.0 60.2 71.8 63.55 67.1 60.65 Q68.35 53.55 67.8 46.3 L67.65 44.2 68.65 44.2 75.15 49.95 76.1 48.95 71.65 44.3 77.3 44.2 77.35 42.8 76.65 42.45 70.5 42.25 80.7 34.2 80.25 33.25 83.8 32.15 79.85 123.25 69.3 128.35 64.45 161.45 62.6 126.85 50.95 122.65 48.25 78.95 51.0 80.8 51.55 83.15 49.45 86.0 50.75 86.9 52.0 85.4 Q54.15 99.65 52.25 114.05 52.05 115.45 52.9 116.25 63.15 126.55 76.9 120.9 L77.25 120.7 Q81.75 100.35 79.2 79.7 L79.0 78.35 Q80.35 77.1 80.5 75.4 81.2 67.8 73.5 66.75 L72.25 66.7 72.0 67.75 Q75.8 68.8 78.7 71.45 L78.95 71.7 Q79.05 76.5 75.8 77.3 L71.8 77.4 Q68.9 77.4 67.45 73.8 L66.8 72.1 65.7 72.2 Q65.8 74.4 66.65 76.5 69.5 83.65 76.2 80.5 L77.5 79.8 78.4 84.05 58.3 83.45 53.45 82.55 53.15 81.25 Q61.35 81.85 63.25 73.75 L63.6 72.4 62.65 71.55 Q60.85 78.4 54.2 77.75 48.55 78.05 49.85 72.55 L49.9 72.5 52.75 72.7 54.4 73.55 55.15 73.5 55.3 72.25 Q52.15 69.5 48.35 71.25 L47.8 71.6 45.25 29.75 47.95 26.3 Q45.8 15.9 52.5 8.3 54.9 5.6 58.65 6.45 62.65 7.4 65.7 10.2 70.75 3.75 77.25 7.6 79.1 8.7 80.25 10.55 83.25 15.3 84.7 20.75 M69.75 125.05 L62.3 125.55 62.55 126.55 69.8 126.35 69.75 125.05" fill="#f9e8f8" fill-rule="evenodd" stroke="none"/>
      <path d="M50.15 146.1 L52.75 142.4 61.95 173.55 61.2 175.0 36.0 151.9 45.3 147.95 45.45 147.15 45.0 146.3 28.15 143.55 29.3 132.6 46.95 125.95 Q47.15 135.65 47.5 145.25 47.55 146.55 48.6 146.8 L50.15 146.1 M78.3 146.9 L79.75 146.75 80.05 146.25 88.0 126.2 102.95 133.4 100.9 145.05 84.65 143.95 Q83.9 143.95 83.4 144.55 82.7 145.35 83.35 146.25 L83.6 146.6 90.4 152.25 64.6 176.8 62.2 179.6 66.0 171.8 76.9 145.35 77.45 146.35 78.3 146.9 M38.05 147.85 L32.1 150.4 32.0 152.1 59.8 177.75 53.35 190.75 52.5 256.9 32.85 257.05 32.35 251.75 32.75 251.05 Q34.05 248.9 34.2 246.45 L34.35 242.15 34.25 239.65 34.25 239.3 32.05 238.45 34.25 231.95 30.45 228.25 26.15 163.15 19.5 151.45 18.3 152.45 23.2 163.7 27.2 225.4 20.15 219.25 10.4 221.7 10.05 221.95 6.55 226.75 3.1 231.55 4.8 182.7 18.5 136.7 26.15 133.8 25.35 145.45 38.05 147.85 M103.0 147.8 L105.75 134.75 114.7 139.1 123.1 188.4 124.65 227.4 123.0 226.1 Q120.35 224.2 117.45 223.1 L114.3 222.05 112.65 221.85 110.85 221.65 103.6 229.3 107.7 155.5 112.25 146.05 111.25 144.55 110.65 144.55 104.7 155.0 100.0 239.15 98.15 239.95 97.55 248.0 97.7 248.5 Q98.55 249.7 99.5 250.35 L99.2 257.25 55.5 256.9 56.35 191.15 93.65 153.25 94.05 151.7 89.05 147.3 102.6 148.15 103.0 147.8" fill="#8d254e" fill-rule="evenodd" stroke="none"/>
      <path d="M58.9 128.45 L50.3 140.7 49.95 125.5 58.9 128.45 M59.9 132.25 L61.45 161.2 54.95 139.25 59.9 132.25 M75.1 141.7 L67.75 159.65 71.35 133.75 75.1 141.7 M72.6 129.4 L84.65 124.55 85.3 124.9 78.55 142.0 72.6 129.4" fill="#ffe1e9" fill-rule="evenodd" stroke="none"/>
      <path d="M100.75 242.1 L104.7 242.15 106.6 247.3 116.35 246.7 114.5 237.45 113.05 237.95 113.5 244.2 108.3 244.35 106.85 239.75 103.05 239.0 103.4 234.2 111.55 224.65 116.9 224.65 126.35 232.9 126.15 249.35 112.3 254.95 100.35 247.35 100.75 242.1 M15.7 233.15 L15.95 236.35 16.25 238.9 Q16.6 241.35 17.1 243.8 L17.8 246.4 27.7 246.0 30.7 241.25 31.5 241.4 31.85 248.1 24.75 254.7 4.65 247.0 5.15 233.85 11.75 223.75 19.3 222.35 31.05 232.85 26.05 243.25 19.45 243.55 17.4 231.6 15.75 232.05 15.7 233.15" fill="#e3aed5" fill-rule="evenodd" stroke="none"/>
      <path d="M1.75 245.2 L1.7 246.1 0.0 245.2 1.75 245.2" fill="#b0aeb3" fill-rule="evenodd" stroke="none"/>
      <path d="M78.3 86.1 L76.35 101.15 Q67.35 98.95 57.35 100.55 L57.3 101.0 Q66.8 100.2 75.8 102.75 L76.45 102.2 Q77.6 112.1 75.55 119.8 66.9 121.95 59.3 119.9 57.25 119.4 55.4 116.05 53.5 112.7 54.6 106.05 55.7 99.35 53.9 84.6 66.0 86.75 78.3 86.1" fill="#ffffff" fill-rule="evenodd" stroke="none"/>
    </g>
    <g id="shape5" transform="matrix(1.0, 0.0, 0.0, 1.0, -0.1, 0.0)">
      <path d="M44.15 4.15 Q48.25 3.4 52.05 4.8 L52.4 5.0 52.3 11.35 52.25 12.55 Q56.95 19.4 57.2 28.65 56.95 39.1 50.85 46.55 L50.85 48.45 50.25 54.2 Q46.95 55.8 43.1 54.6 L42.4 54.05 42.25 53.8 Q36.25 57.05 28.6 57.25 20.95 57.05 14.95 53.75 L14.75 54.3 14.4 54.75 8.05 54.95 Q6.45 53.25 6.75 50.75 L6.9 47.7 6.85 47.2 Q3.0 42.7 1.3 37.15 -0.8 29.9 0.85 22.5 2.4 15.75 6.8 10.6 15.0 0.95 27.95 0.05 L28.3 0.05 28.6 0.05 Q37.0 0.25 43.5 4.2 L44.15 4.15 M50.75 10.0 L51.2 5.6 42.35 5.6 Q42.7 27.1 43.4 48.6 43.45 50.9 43.95 52.95 L47.55 53.2 49.45 52.9 Q49.55 33.1 50.45 13.35 L50.75 10.0 M40.95 5.25 Q41.05 4.75 41.2 4.9 L41.4 4.8 Q35.75 1.65 28.6 1.45 17.05 1.75 9.4 9.45 1.7 17.1 1.4 28.65 1.65 37.85 6.6 44.65 L6.5 43.3 6.35 41.05 6.05 39.7 Q1.4 28.1 7.05 17.05 11.65 8.15 21.3 5.15 31.5 2.15 40.85 7.15 L40.95 5.25 M45.1 11.4 L45.35 12.2 47.45 10.1 46.65 9.85 Q45.25 10.0 45.1 11.4 M40.8 9.45 L40.8 8.75 Q35.55 5.45 28.65 5.3 18.7 5.6 12.0 12.3 5.3 19.0 5.05 28.9 5.2 33.9 6.95 38.05 L7.95 37.8 14.45 37.8 15.3 38.55 15.05 47.8 17.35 48.85 17.4 46.3 17.4 42.55 16.8 27.7 17.8 27.05 Q22.25 25.8 26.4 27.25 L26.7 27.55 26.7 51.5 26.7 51.95 29.25 52.05 29.25 51.35 29.25 47.1 29.3 44.85 28.85 16.2 30.2 15.55 38.9 15.85 38.7 49.4 38.7 49.8 41.85 47.95 41.85 47.1 41.95 42.75 41.95 38.3 41.0 14.95 40.85 11.15 40.8 9.45 M44.55 12.65 Q44.5 11.25 45.1 10.1 45.7 8.9 46.6 8.8 47.5 8.7 48.2 9.75 48.9 10.75 48.95 12.35 48.4 13.7 46.65 13.9 45.1 13.75 44.55 12.65 M48.3 45.2 L48.65 46.05 Q49.15 47.55 48.1 48.55 L46.3 49.2 Q44.8 49.15 44.1 47.55 43.75 46.05 44.6 45.2 L45.65 44.45 Q47.35 44.0 48.3 45.2 M46.3 12.95 L46.65 13.0 Q48.75 12.6 48.05 10.7 L46.3 12.95 M50.85 42.75 L50.85 44.4 Q55.35 38.0 55.55 29.2 55.4 21.65 52.1 15.6 L52.05 16.5 Q51.5 20.6 52.6 24.4 53.15 26.45 53.2 28.65 53.35 33.65 51.5 38.1 50.6 40.15 50.85 42.75 M51.15 34.95 Q51.9 31.85 51.85 28.65 L51.65 24.65 51.15 34.95 M44.9 46.45 L44.9 47.25 Q45.45 48.6 46.85 48.1 L47.6 47.8 44.9 46.45 M47.9 46.25 Q47.35 44.95 45.9 45.3 45.55 45.45 45.3 45.7 L47.95 47.0 47.9 46.25 M38.0 18.15 L38.1 16.8 29.9 16.9 31.25 53.15 37.5 53.45 37.55 53.2 Q36.9 35.65 38.0 18.15 M35.4 21.6 L35.0 20.95 32.75 21.0 32.45 21.65 35.4 21.6 M32.05 23.7 Q30.8 22.05 32.1 20.4 L32.25 20.3 Q33.9 18.95 35.6 20.25 L35.8 20.5 Q37.0 22.1 35.7 23.75 L35.55 23.9 Q33.9 25.2 32.2 23.85 L32.05 23.7 M35.4 48.0 Q37.9 50.5 35.05 52.15 L32.75 52.05 Q31.1 50.6 32.2 48.6 33.2 47.3 35.0 47.8 L35.4 48.0 M32.4 22.2 L32.8 22.85 35.05 22.8 35.35 22.15 32.4 22.2 M20.1 34.85 Q19.2 34.05 19.3 32.95 19.55 30.6 21.75 30.6 23.45 30.5 23.95 32.0 24.55 33.8 23.2 34.9 L20.1 34.85 M23.55 48.15 Q24.4 48.75 24.5 49.6 24.85 52.4 22.1 52.65 21.25 52.3 20.65 51.7 18.85 49.95 20.8 48.1 L23.55 48.15 M9.4 44.7 L9.2 45.45 Q9.35 46.9 10.75 47.05 L11.55 46.85 9.4 44.7 M9.05 47.25 L8.8 46.95 Q7.8 45.3 9.05 43.7 10.1 42.75 11.45 43.15 L12.0 43.35 Q13.1 43.95 13.25 45.45 13.05 47.15 11.75 47.7 10.7 48.45 9.05 47.25 M12.35 45.45 Q12.2 44.05 10.75 43.9 L10.0 44.1 12.15 46.25 12.35 45.45 M14.2 38.7 L7.45 38.8 8.6 53.65 Q9.45 54.1 10.5 54.05 L14.1 53.7 14.2 38.7 M21.65 31.4 L20.9 31.6 23.05 33.75 23.25 32.95 Q23.1 31.55 21.65 31.4 M22.45 34.35 L20.3 32.2 20.1 32.95 Q20.35 34.35 21.65 34.55 L22.45 34.35 M22.15 48.6 Q21.45 48.65 21.1 49.0 20.65 49.4 20.55 50.15 L20.75 50.9 22.85 48.8 22.15 48.6 M35.3 49.15 L33.1 49.1 32.65 49.55 32.6 50.35 35.3 49.15 M25.55 28.05 L17.9 28.15 19.3 53.15 24.75 53.25 25.55 28.05 M41.95 51.4 L41.85 49.6 38.7 51.3 38.55 53.05 38.35 54.05 42.0 52.4 41.95 51.4 M25.95 54.9 L23.3 55.25 Q28.6 56.35 33.95 55.25 L30.85 54.9 Q29.8 54.75 29.55 53.85 L29.45 53.4 26.6 53.3 25.95 54.9 M33.2 51.4 L34.55 51.7 35.7 49.95 33.2 51.4 M21.35 51.55 L22.1 51.75 Q23.9 51.55 23.6 49.7 L21.35 51.55 M15.15 51.45 L15.15 52.25 17.45 53.45 17.3 52.6 Q17.2 51.75 17.25 50.65 L15.1 49.4 15.15 51.45" fill="#5d0035" fill-rule="evenodd" stroke="none"/>
      <path d="M50.75 10.0 L50.45 13.35 Q49.55 33.1 49.45 52.9 L47.55 53.2 43.95 52.95 Q43.45 50.9 43.4 48.6 42.7 27.1 42.35 5.6 L51.2 5.6 50.75 10.0 M48.95 12.35 Q48.9 10.75 48.2 9.75 47.5 8.7 46.6 8.8 45.7 8.9 45.1 10.1 44.5 11.25 44.55 12.65 L44.6 45.2 Q43.75 46.05 44.1 47.55 44.8 49.15 46.3 49.2 46.8 49.75 47.7 49.65 L48.1 48.55 Q49.15 47.55 48.65 46.05 L48.3 45.2 48.05 41.5 Q47.2 35.85 47.35 30.15 47.65 21.15 48.95 12.35 M38.0 18.15 Q36.9 35.65 37.55 53.2 L37.5 53.45 31.25 53.15 29.9 16.9 38.1 16.8 38.0 18.15 M35.55 23.9 L35.7 23.75 Q37.0 22.1 35.8 20.5 L35.6 20.25 Q33.9 18.95 32.25 20.3 L32.1 20.4 Q30.8 22.05 32.05 23.7 32.7 32.75 31.85 41.85 31.65 43.75 31.7 45.7 31.7 47.3 32.2 48.6 31.1 50.6 32.75 52.05 L35.05 52.15 Q37.9 50.5 35.4 48.0 34.65 36.55 35.35 25.1 L35.55 23.9 M23.2 34.9 Q24.55 33.8 23.95 32.0 23.45 30.5 21.75 30.6 19.55 30.6 19.3 32.95 19.2 34.05 20.1 34.85 L20.8 48.1 Q18.85 49.95 20.65 51.7 21.25 52.3 22.1 52.65 24.85 52.4 24.5 49.6 24.4 48.75 23.55 48.15 L23.2 34.9 M9.05 43.7 Q7.8 45.3 8.8 46.95 L9.05 47.25 Q8.85 50.0 10.4 52.15 10.75 52.65 11.4 52.4 L11.75 47.7 Q13.05 47.15 13.25 45.45 13.1 43.95 12.0 43.35 12.3 41.75 11.6 40.3 L11.4 40.05 10.2 39.95 Q8.8 41.5 9.05 43.7 M14.2 38.7 L14.1 53.7 10.5 54.05 Q9.45 54.1 8.6 53.65 L7.45 38.8 14.2 38.7 M25.55 28.05 L24.75 53.25 19.3 53.15 17.9 28.15 25.55 28.05" fill="#e3c1d7" fill-rule="evenodd" stroke="none"/>
      <path d="M6.5 43.3 L6.6 44.65 Q1.65 37.85 1.4 28.65 1.7 17.1 9.4 9.45 17.05 1.75 28.6 1.45 35.75 1.65 41.4 4.8 L41.2 4.9 Q41.05 4.75 40.95 5.25 35.45 2.3 28.5 2.1 17.25 2.4 9.8 9.9 2.3 17.35 2.0 28.6 2.2 37.0 6.5 43.3 M40.85 11.15 L41.0 14.95 Q38.6 13.0 35.2 12.55 30.25 11.95 25.95 12.6 16.7 14.25 11.6 22.15 8.2 28.0 10.7 34.3 L12.05 37.4 9.6 37.55 Q7.6 32.95 7.75 27.7 7.85 22.9 10.4 19.05 15.75 11.05 25.25 9.1 33.55 7.45 40.85 11.15 M41.95 38.3 L41.95 42.75 39.4 43.95 Q39.25 42.35 39.25 40.75 L41.95 38.3 M29.3 44.85 L29.25 47.1 27.4 47.55 27.4 45.1 29.3 44.85 M17.4 42.55 L17.4 46.3 16.15 45.55 15.9 41.9 17.4 42.55 M52.05 16.5 L52.1 15.6 Q55.4 21.65 55.55 29.2 55.35 38.0 50.85 44.4 L50.85 42.75 Q54.75 36.6 54.95 28.6 54.75 21.85 52.05 16.5 M41.95 51.4 L42.0 52.4 38.35 54.05 38.55 53.05 41.95 51.4 M30.85 54.9 L33.95 55.25 Q28.6 56.35 23.3 55.25 L25.95 54.9 30.85 54.9 M17.3 52.6 L17.45 53.45 15.15 52.25 15.15 51.45 17.3 52.6" fill="#d2c0c0" fill-rule="evenodd" stroke="none"/>
      <path d="M44.15 4.15 L43.5 4.2 Q37.0 0.25 28.6 0.05 L29.2 0.0 Q37.65 0.2 44.15 4.15 M1.3 37.15 Q3.0 42.7 6.85 47.2 L6.9 47.7 Q2.95 43.0 1.3 37.15" fill="#8d3f6d" fill-rule="evenodd" stroke="none"/>
      <path d="M40.8 9.45 L40.85 11.15 Q33.55 7.45 25.25 9.1 15.75 11.05 10.4 19.05 7.85 22.9 7.75 27.7 7.6 32.95 9.6 37.55 L12.05 37.4 14.45 37.8 7.95 37.8 Q3.5 25.3 11.45 14.7 17.0 7.25 26.3 6.1 34.15 5.3 40.8 9.45 M41.95 42.75 L41.85 47.1 39.25 48.7 38.7 49.4 38.9 15.85 30.2 15.55 Q33.5 13.75 37.2 14.75 40.15 15.65 39.9 19.05 39.05 29.85 39.25 40.75 39.25 42.35 39.4 43.95 L41.95 42.75 M29.25 47.1 L29.25 51.35 26.7 51.5 26.7 27.55 26.4 27.25 Q22.25 25.8 17.8 27.05 19.55 26.25 21.6 26.15 L24.6 26.45 Q27.6 26.9 27.45 30.1 27.1 37.6 27.4 45.1 L27.4 47.55 29.25 47.1 M17.4 46.3 L17.35 48.85 15.05 47.8 15.3 38.55 15.9 41.9 16.15 45.55 17.4 46.3" fill="#bda3a3" fill-rule="evenodd" stroke="none"/>
      <path d="M7.95 37.8 L6.95 38.05 Q5.2 33.9 5.05 28.9 5.3 19.0 12.0 12.3 18.7 5.6 28.65 5.3 35.55 5.45 40.8 8.75 L40.8 9.45 Q34.15 5.3 26.3 6.1 17.0 7.25 11.45 14.7 3.5 25.3 7.95 37.8 M41.85 47.1 L41.85 47.95 38.7 49.8 38.7 49.4 39.25 48.7 41.85 47.1 M29.25 51.35 L29.25 52.05 26.7 51.95 26.7 51.5 29.25 51.35 M51.15 34.95 L51.65 24.65 51.85 28.65 Q51.9 31.85 51.15 34.95" fill="#aa8888" fill-rule="evenodd" stroke="none"/>
      <path d="M45.1 11.4 Q45.25 10.0 46.65 9.85 L47.45 10.1 45.35 12.2 45.1 11.4 M46.3 12.95 L48.05 10.7 Q48.75 12.6 46.65 13.0 L46.3 12.95 M44.9 46.45 L47.6 47.8 46.85 48.1 Q45.45 48.6 44.9 47.25 L44.9 46.45 M47.9 46.25 L47.95 47.0 45.3 45.7 Q45.55 45.45 45.9 45.3 47.35 44.95 47.9 46.25 M35.4 21.6 L32.45 21.65 32.75 21.0 35.0 20.95 35.4 21.6 M32.4 22.2 L35.35 22.15 35.05 22.8 32.8 22.85 32.4 22.2 M9.4 44.7 L11.55 46.85 10.75 47.05 Q9.35 46.9 9.2 45.45 L9.4 44.7 M12.35 45.45 L12.15 46.25 10.0 44.1 10.75 43.9 Q12.2 44.05 12.35 45.45 M22.45 34.35 L21.65 34.55 Q20.35 34.35 20.1 32.95 L20.3 32.2 22.45 34.35 M21.65 31.4 Q23.1 31.55 23.25 32.95 L23.05 33.75 20.9 31.6 21.65 31.4 M22.15 48.6 L22.85 48.8 20.75 50.9 20.55 50.15 Q20.65 49.4 21.1 49.0 21.45 48.65 22.15 48.6 M35.3 49.15 L32.6 50.35 32.65 49.55 33.1 49.1 35.3 49.15 M33.2 51.4 L35.7 49.95 34.55 51.7 33.2 51.4 M21.35 51.55 L23.6 49.7 Q23.9 51.55 22.1 51.75 L21.35 51.55" fill="#a68884" fill-rule="evenodd" stroke="none"/>
      <path d="M48.95 12.35 Q47.65 21.15 47.35 30.15 47.2 35.85 48.05 41.5 L48.3 45.2 Q47.35 44.0 45.65 44.45 L44.6 45.2 44.55 12.65 Q45.1 13.75 46.65 13.9 48.4 13.7 48.95 12.35 M48.1 48.55 L47.7 49.65 Q46.8 49.75 46.3 49.2 L48.1 48.55 M35.55 23.9 L35.35 25.1 Q34.65 36.55 35.4 48.0 L35.0 47.8 Q33.2 47.3 32.2 48.6 31.7 47.3 31.7 45.7 31.65 43.75 31.85 41.85 32.7 32.75 32.05 23.7 L32.2 23.85 Q33.9 25.2 35.55 23.9 M20.1 34.85 L23.2 34.9 23.55 48.15 20.8 48.1 20.1 34.85 M9.05 43.7 Q8.8 41.5 10.2 39.95 L11.4 40.05 11.6 40.3 Q12.3 41.75 12.0 43.35 L11.45 43.15 Q10.1 42.75 9.05 43.7 M11.75 47.7 L11.4 52.4 Q10.75 52.65 10.4 52.15 8.85 50.0 9.05 47.25 10.7 48.45 11.75 47.7" fill="#c7abb9" fill-rule="evenodd" stroke="none"/>
      <path d="M40.95 5.25 L40.85 7.15 Q31.5 2.15 21.3 5.15 11.65 8.15 7.05 17.05 1.4 28.1 6.05 39.7 L6.35 41.05 6.5 43.3 Q2.2 37.0 2.0 28.6 2.3 17.35 9.8 9.9 17.25 2.4 28.5 2.1 35.45 2.3 40.95 5.25 M41.0 14.95 L41.95 38.3 39.25 40.75 Q39.05 29.85 39.9 19.05 40.15 15.65 37.2 14.75 33.5 13.75 30.2 15.55 L28.85 16.2 29.3 44.85 27.4 45.1 Q27.1 37.6 27.45 30.1 27.6 26.9 24.6 26.45 L21.6 26.15 Q19.55 26.25 17.8 27.05 L16.8 27.7 17.4 42.55 15.9 41.9 15.3 38.55 14.45 37.8 12.05 37.4 10.7 34.3 Q8.2 28.0 11.6 22.15 16.7 14.25 25.95 12.6 30.25 11.95 35.2 12.55 38.6 13.0 41.0 14.95 M50.85 42.75 Q50.6 40.15 51.5 38.1 53.35 33.65 53.2 28.65 53.15 26.45 52.6 24.4 51.5 20.6 52.05 16.5 54.75 21.85 54.95 28.6 54.75 36.6 50.85 42.75 M38.55 53.05 L38.7 51.3 41.85 49.6 41.95 51.4 38.55 53.05 M25.95 54.9 L26.6 53.3 29.45 53.4 29.55 53.85 Q29.8 54.75 30.85 54.9 L25.95 54.9 M15.15 51.45 L15.1 49.4 17.25 50.65 Q17.2 51.75 17.3 52.6 L15.15 51.45" fill="#e3d7d7" fill-rule="evenodd" stroke="none"/>
    </g>
  </defs>
</svg>
