<?xml version="1.0" encoding="UTF-8" standalone="no"?>
<svg xmlns:xlink="http://www.w3.org/1999/xlink" height="468.95px" width="310.1px" xmlns="http://www.w3.org/2000/svg">
  <g transform="matrix(1.0, 0.0, 0.0, 1.0, 153.05, 468.95)">
    <use height="36.0" transform="matrix(1.0, 0.0, 0.0, 1.0, -78.35, -36.0)" width="159.0" xlink:href="#shape0"/>
    <use height="96.65" transform="matrix(1.0, 0.0, 0.0, 1.0, -25.95, -108.0)" width="54.2" xlink:href="#shape1"/>
    <use height="37.0" transform="matrix(1.0, 0.0, 0.0, 1.0, -91.45, -94.35)" width="185.25" xlink:href="#shape2"/>
    <use height="15.3" transform="matrix(1.0, 0.0, 0.0, 1.0, -48.0, -81.6)" width="99.2" xlink:href="#text0"/>
    <use height="346.95" transform="matrix(1.0, 0.0, 0.0, 1.0, -137.15, -444.25)" width="270.3" xlink:href="#shape3"/>
    <use height="262.3" transform="matrix(1.1942, 0.0, 0.0, 1.1942, -114.45, -412.65)" width="194.35" xlink:href="#shape4"/>
    <use height="57.25" transform="matrix(1.0, 0.0, 0.0, 1.0, -31.05, -208.9)" width="57.1" xlink:href="#shape5"/>
  </g>
  <defs>
    <g id="shape0" transform="matrix(1.0, 0.0, 0.0, 1.0, 0.0, 0.0)">
      <path d="M135.7 30.75 Q113.3 35.8 79.5 36.0 45.7 35.8 23.3 30.75 0.85 25.65 0.0 18.0 0.85 10.35 23.3 5.25 45.7 0.2 79.5 0.0 113.3 0.2 135.7 5.25 158.15 10.35 159.0 18.0 158.15 25.65 135.7 30.75" fill="#000000" fill-opacity="0.39607844" fill-rule="evenodd" stroke="none"/>
    </g>
    <g id="shape1" transform="matrix(1.0, 0.0, 0.0, 1.0, 0.0, 0.0)">
      <path d="M5.85 93.35 Q-0.15 90.4 0.0 90.0 L0.0 0.0 54.2 0.0 54.2 90.0 Q54.15 90.4 46.95 93.35 39.7 96.25 25.65 96.65 11.8 96.25 5.85 93.35" fill="url(#gradient0)" fill-rule="evenodd" stroke="none"/>
    </g>
    <linearGradient gradientTransform="matrix(0.0303, 0.0, 0.0, 0.0303, 25.7, 48.35)" gradientUnits="userSpaceOnUse" id="gradient0" spreadMethod="pad" x1="-819.2" x2="819.2">
      <stop offset="0.0" stop-color="#565656"/>
      <stop offset="0.403921568627451" stop-color="#9a9999"/>
      <stop offset="0.592156862745098" stop-color="#dbdbda"/>
      <stop offset="0.7803921568627451" stop-color="#9b9a9a"/>
      <stop offset="1.0" stop-color="#151213"/>
    </linearGradient>
    <g id="shape2" transform="matrix(1.0, 0.0, 0.0, 1.0, -0.05, 0.0)">
      <path d="M185.25 8.2 L185.3 8.25 185.25 8.25 185.25 8.2 M1.9 5.2 L2.3 2.85 18.75 2.05 59.05 0.7 Q83.4 0.05 109.4 0.3 115.1 0.55 118.85 1.6 122.65 2.7 128.15 3.0 L129.3 1.5 Q130.05 0.2 130.5 0.0 160.7 0.5 181.5 3.85 L183.45 6.1 103.3 3.5 Q60.0 3.6 6.5 5.1 L1.9 5.2 M176.25 8.0 L176.45 8.4 177.65 11.45 178.5 13.65 Q179.3 12.8 179.7 10.9 179.7 9.8 179.25 9.1 L179.9 9.55 Q180.65 10.3 180.7 11.75 179.85 15.7 177.15 15.05 175.8 14.75 175.1 13.85 L176.15 14.2 177.35 14.25 176.45 12.35 174.9 8.8 174.8 8.5 174.95 8.35 Q175.75 7.8 176.25 8.0 M178.25 27.3 L179.85 27.15 Q180.5 27.3 181.25 27.95 183.6 31.2 181.35 32.8 180.2 33.6 179.1 33.5 L180.8 32.15 178.8 31.55 175.1 30.4 175.2 29.1 175.2 29.0 175.25 28.7 175.4 28.75 175.85 28.9 178.95 30.05 181.1 30.85 Q181.0 29.65 179.9 28.15 179.05 27.45 178.25 27.3 M9.35 6.95 L10.7 10.45 11.7 12.9 Q12.6 11.95 13.05 9.85 13.05 8.55 12.5 7.75 13.85 8.35 14.15 10.05 L13.75 12.35 Q12.6 15.1 10.15 14.55 8.75 14.25 8.0 13.4 L7.85 13.2 9.0 13.6 10.35 13.65 9.35 11.4 7.6 7.45 8.75 6.6 9.2 6.55 9.35 6.95 M9.4 25.3 Q11.0 24.35 12.9 25.8 15.0 28.35 14.35 30.1 L13.4 31.3 Q12.2 32.25 10.95 32.25 L12.75 30.6 10.4 30.05 6.2 29.05 6.15 27.55 6.15 27.1 6.35 27.15 6.9 27.35 10.45 28.4 12.95 29.1 Q12.75 27.8 11.35 26.15 10.35 25.35 9.4 25.3" fill="#47525f" fill-rule="evenodd" stroke="none"/>
      <path d="M0.05 36.7 L0.75 22.9 Q1.05 14.95 1.6 7.0 L1.9 5.2 6.5 5.1 3.2 8.3 1.95 36.45 0.05 36.7" fill="#cdcdcd" fill-rule="evenodd" stroke="none"/>
      <path d="M13.75 12.35 L14.15 10.05 26.45 10.0 13.75 12.35 M8.0 13.4 L7.0 13.55 7.2 26.2 6.35 27.15 6.15 27.1 6.15 27.55 Q5.15 29.5 6.75 31.55 8.95 33.2 10.95 32.25 12.2 32.25 13.4 31.3 L14.35 30.1 16.45 30.2 36.65 31.3 56.5 32.6 Q50.4 32.9 38.0 32.9 L15.1 32.75 3.85 32.6 5.25 10.05 6.0 10.05 Q6.15 12.3 7.85 13.2 L8.0 13.4" fill="#848484" fill-rule="evenodd" stroke="none"/>
      <path d="M175.1 13.85 Q175.8 14.75 177.15 15.05 179.85 15.7 180.7 11.75 180.65 10.3 179.9 9.55 L180.85 9.65 179.85 27.15 178.25 27.3 177.7 27.3 177.8 15.2 160.95 13.3 Q144.35 11.4 115.0 6.95 144.55 7.2 162.45 8.35 L174.1 9.15 Q173.65 9.7 173.4 10.6 173.45 12.95 175.1 13.85 M175.3 32.3 L137.05 30.55 175.2 29.0 175.2 29.1 Q174.3 30.55 175.3 32.3" fill="#a09fa0" fill-rule="evenodd" stroke="none"/>
      <path d="M176.45 8.4 L176.25 8.0 176.9 7.95 Q178.55 8.05 179.25 9.1 179.7 9.8 179.7 10.9 179.3 12.8 178.5 13.65 L177.65 11.45 178.05 10.25 Q178.0 8.55 176.45 8.4 M174.8 8.5 L174.9 8.8 Q174.35 9.2 174.15 10.05 174.2 11.9 175.85 12.3 L176.45 12.35 177.35 14.25 176.15 14.2 175.1 13.85 Q173.45 12.95 173.4 10.6 173.65 9.7 174.1 9.15 L174.8 8.5 M177.7 27.3 L178.25 27.3 Q179.05 27.45 179.9 28.15 181.0 29.65 181.1 30.85 L178.95 30.05 178.3 28.9 Q177.0 27.8 175.85 28.9 L175.4 28.75 175.8 28.3 Q176.7 27.35 177.7 27.3 M179.1 33.5 Q177.3 34.2 175.5 32.65 L175.3 32.3 Q174.3 30.55 175.2 29.1 L175.1 30.4 Q175.25 32.1 176.95 32.35 178.0 32.25 178.8 31.55 L180.8 32.15 179.1 33.5 M10.7 10.45 L11.2 9.05 Q11.15 7.15 9.35 6.95 L9.2 6.55 9.9 6.5 Q11.75 6.6 12.5 7.75 13.05 8.55 13.05 9.85 12.6 11.95 11.7 12.9 L10.7 10.45 M7.2 26.2 Q8.2 25.2 9.4 25.3 10.35 25.35 11.35 26.15 12.75 27.8 12.95 29.1 L10.45 28.4 Q9.75 26.65 8.05 26.6 L6.9 27.35 6.35 27.15 7.2 26.2 M6.0 10.05 L5.95 9.55 Q6.6 7.0 8.75 6.6 L7.6 7.45 Q7.0 7.9 6.75 8.85 6.8 10.95 8.7 11.35 L9.35 11.4 10.35 13.65 9.0 13.6 7.85 13.2 Q6.15 12.3 6.0 10.05 M6.15 27.55 L6.2 29.05 Q6.45 30.9 8.2 31.1 9.7 31.2 10.4 30.05 L12.75 30.6 10.95 32.25 Q8.95 33.2 6.75 31.55 5.15 29.5 6.15 27.55" fill="#9c9c9c" fill-rule="evenodd" stroke="none"/>
      <path d="M174.9 8.8 L176.45 12.35 175.85 12.3 Q174.2 11.9 174.15 10.05 174.35 9.2 174.9 8.8 M177.65 11.45 L176.45 8.4 Q178.0 8.55 178.05 10.25 L177.65 11.45 M175.85 28.9 Q177.0 27.8 178.3 28.9 L178.95 30.05 175.85 28.9 M175.1 30.4 L178.8 31.55 Q178.0 32.25 176.95 32.35 175.25 32.1 175.1 30.4 M9.35 6.95 Q11.15 7.15 11.2 9.05 L10.7 10.45 9.35 6.95 M9.35 11.4 L8.7 11.35 Q6.8 10.95 6.75 8.85 7.0 7.9 7.6 7.45 L9.35 11.4 M10.45 28.4 L6.9 27.35 8.05 26.6 Q9.75 26.65 10.45 28.4 M6.2 29.05 L10.4 30.05 Q9.7 31.2 8.2 31.1 6.45 30.9 6.2 29.05" fill="#d5d4d4" fill-rule="evenodd" stroke="none"/>
      <path d="M183.45 6.1 L185.3 6.25 185.25 8.2 185.25 8.25 185.1 13.45 184.65 27.3 184.3 36.25 Q157.35 34.75 133.85 35.55 L89.2 37.0 Q65.15 37.15 43.55 35.85 22.0 34.5 0.05 36.75 L0.05 36.7 1.95 36.45 3.2 8.3 6.5 5.1 Q60.0 3.6 103.3 3.5 L183.45 6.1 M176.25 8.0 Q175.75 7.8 174.95 8.35 L174.8 8.5 174.1 9.15 162.45 8.35 Q144.55 7.2 115.0 6.95 144.35 11.4 160.95 13.3 L177.8 15.2 177.7 27.3 Q176.7 27.35 175.8 28.3 L175.4 28.75 175.25 28.7 175.2 29.0 137.05 30.55 175.3 32.3 175.5 32.65 Q177.3 34.2 179.1 33.5 180.2 33.6 181.35 32.8 183.6 31.2 181.25 27.95 180.5 27.3 179.85 27.15 L180.85 9.65 179.9 9.55 179.25 9.1 Q178.55 8.05 176.9 7.95 L176.25 8.0 M12.5 7.75 Q11.75 6.6 9.9 6.5 L9.2 6.55 8.75 6.6 Q6.6 7.0 5.95 9.55 L6.0 10.05 5.25 10.05 3.85 32.6 15.1 32.75 38.0 32.9 Q50.4 32.9 56.5 32.6 L36.65 31.3 16.45 30.2 14.35 30.1 Q15.0 28.35 12.9 25.8 11.0 24.35 9.4 25.3 8.2 25.2 7.2 26.2 L7.0 13.55 8.0 13.4 Q8.75 14.25 10.15 14.55 12.6 15.1 13.75 12.35 L26.45 10.0 14.15 10.05 Q13.85 8.35 12.5 7.75" fill="url(#gradient1)" fill-rule="evenodd" stroke="none"/>
    </g>
    <linearGradient gradientTransform="matrix(0.1131, 0.0, 0.0, 0.0204, 92.65, 20.25)" gradientUnits="userSpaceOnUse" id="gradient1" spreadMethod="pad" x1="-819.2" x2="819.2">
      <stop offset="0.0" stop-color="#9a9a9a"/>
      <stop offset="1.0" stop-color="#ffffff"/>
    </linearGradient>
    <g id="text0" transform="matrix(1.0, 0.0, 0.0, 1.0, -10.4, -5.75)">
      <g transform="matrix(1.0, 0.0, 0.0, 1.0, 9.95, 0.0)">
        <use fill="#000000" height="15.3" transform="matrix(0.4746, 0.0, 0.0, 0.4746, 0.0, 21.0)" width="99.2" xlink:href="#font_______W7_T0"/>
        <use fill="#000000" height="15.3" transform="matrix(0.4746, 0.0, 0.0, 0.4746, 15.55, 21.0)" width="99.2" xlink:href="#font_______W7_w0"/>
        <use fill="#000000" height="15.3" transform="matrix(0.4746, 0.0, 0.0, 0.4746, 30.4, 21.0)" width="99.2" xlink:href="#font_______W7_o0"/>
        <use fill="#000000" height="15.3" transform="matrix(0.4746, 0.0, 0.0, 0.4746, 43.3, 21.0)" width="99.2" xlink:href="#font_______W7_-0"/>
        <use fill="#000000" height="15.3" transform="matrix(0.4746, 0.0, 0.0, 0.4746, 51.3, 21.0)" width="99.2" xlink:href="#font_______W7_f0"/>
        <use fill="#000000" height="15.3" transform="matrix(0.4746, 0.0, 0.0, 0.4746, 60.0, 21.0)" width="99.2" xlink:href="#font_______W7_a0"/>
        <use fill="#000000" height="15.3" transform="matrix(0.4746, 0.0, 0.0, 0.4746, 73.8, 21.0)" width="99.2" xlink:href="#font_______W7_c0"/>
        <use fill="#000000" height="15.3" transform="matrix(0.4746, 0.0, 0.0, 0.4746, 86.65, 21.0)" width="99.2" xlink:href="#font_______W7_e0"/>
      </g>
    </g>
    <g id="font_______W7_T0">
      <path d="M30.8 -32.15 L30.8 -32.15 0.75 -29.4 1.85 -24.25 13.45 -24.25 11.0 0.05 21.6 -1.1 18.95 -24.25 32.35 -24.25 30.8 -32.15" fill-rule="evenodd" stroke="none"/>
    </g>
    <g id="font_______W7_w0">
      <path d="M23.1 -21.4 L23.1 -21.4 20.35 -10.05 16.6 -20.6 13.9 -21.45 9.35 -10.05 4.1 -21.35 0.5 -19.7 8.35 0.05 11.1 -0.5 14.9 -12.4 19.2 0.05 22.05 -0.55 31.2 -17.75 23.1 -21.4" fill-rule="evenodd" stroke="none"/>
    </g>
    <g id="font_______W7_o0">
      <path d="M15.8 -13.5 L15.8 -13.5 Q16.45 -11.85 16.45 -10.4 16.45 -6.85 12.35 -6.85 10.6 -6.85 9.35 -8.05 8.15 -9.35 8.15 -11.05 8.15 -13.25 9.8 -14.6 11.4 -16.0 13.7 -16.0 16.1 -16.0 18.3 -14.3 L15.8 -13.5 M25.7 -11.4 L25.7 -11.4 Q25.7 -13.8 24.75 -16.35 L21.25 -15.25 22.7 -17.2 Q18.35 -21.45 13.15 -21.45 8.45 -21.45 5.1 -18.2 1.8 -14.95 1.8 -10.3 1.8 -5.5 5.4 -2.65 8.65 0.05 13.65 0.05 18.75 0.05 22.2 -3.2 25.7 -6.4 25.7 -11.4" fill-rule="evenodd" stroke="none"/>
    </g>
    <g id="font_______W7_-0">
      <path d="M13.3 -20.55 L13.3 -20.55 2.1 -16.75 3.3 -11.35 14.9 -11.4 13.3 -20.55" fill-rule="evenodd" stroke="none"/>
    </g>
    <g id="font_______W7_f0">
      <path d="M16.3 -23.5 L16.3 -23.5 11.45 -22.7 Q11.8 -25.5 12.65 -26.6 13.65 -27.85 16.3 -27.85 L17.0 -27.85 16.25 -32.0 14.1 -32.15 Q5.9 -32.15 5.05 -21.65 L1.3 -20.95 2.15 -16.7 4.55 -16.7 Q4.1 -5.65 4.1 -0.95 L13.95 0.05 Q11.85 -9.65 11.45 -16.65 L17.3 -16.6 16.3 -23.5" fill-rule="evenodd" stroke="none"/>
    </g>
    <g id="font_______W7_a0">
      <path d="M19.05 -8.85 L19.05 -8.85 18.5 -5.05 17.1 -9.0 Q14.35 -6.2 10.6 -6.2 9.95 -6.2 9.45 -6.75 9.0 -7.2 9.0 -7.85 9.0 -10.2 13.7 -10.2 15.9 -10.2 19.05 -8.85 M27.4 -6.8 L27.4 -6.8 Q27.4 -21.45 13.35 -21.45 7.15 -21.45 2.55 -18.35 L4.3 -14.35 Q8.3 -16.55 13.15 -16.55 17.85 -16.55 18.85 -13.35 15.4 -14.5 12.8 -14.5 8.6 -14.5 5.6 -12.8 1.8 -10.75 1.8 -6.95 1.8 -3.5 4.9 -1.55 7.55 0.05 11.15 0.05 13.95 0.05 17.35 -0.95 L17.0 0.15 26.7 -0.3 Q27.4 -3.45 27.4 -6.8" fill-rule="evenodd" stroke="none"/>
    </g>
    <g id="font_______W7_c0">
      <path d="M21.35 -12.5 L21.35 -12.5 Q19.95 -10.5 17.75 -9.15 15.35 -7.6 13.15 -7.6 11.4 -7.6 10.2 -8.85 8.9 -10.05 8.9 -11.8 8.9 -14.1 10.65 -15.4 12.2 -16.55 14.55 -16.55 18.9 -16.55 21.9 -13.7 L24.4 -17.55 Q19.65 -21.45 13.1 -21.45 8.05 -21.45 4.9 -18.4 1.8 -15.3 1.8 -10.3 1.8 -5.6 5.7 -2.65 9.25 0.05 14.1 0.05 17.2 0.05 20.45 -1.1 24.05 -2.3 25.9 -4.4 L21.35 -12.5" fill-rule="evenodd" stroke="none"/>
    </g>
    <g id="font_______W7_e0">
      <path d="M19.45 -9.9 L19.45 -9.9 Q16.75 -7.55 13.6 -7.55 10.45 -7.55 9.15 -9.9 L19.45 -9.9 M9.0 -13.4 L9.0 -13.4 Q9.7 -14.95 11.5 -15.95 13.2 -16.8 15.1 -16.8 18.05 -16.8 19.65 -14.35 L9.0 -13.4 M23.25 -9.9 L23.25 -9.9 24.3 -9.9 26.7 -12.6 Q25.85 -16.7 22.9 -19.1 19.9 -21.45 15.15 -21.45 9.65 -21.45 5.9 -18.65 1.8 -15.6 1.8 -10.4 1.8 -5.35 5.8 -2.5 9.3 0.05 14.6 0.05 22.45 0.05 27.15 -4.25 L23.25 -9.9" fill-rule="evenodd" stroke="none"/>
    </g>
    <g id="shape3" transform="matrix(1.0, 0.0, 0.0, 1.0, 21.95, 55.0)">
      <path d="M179.35 61.6 L183.75 45.6 143.25 -30.65 104.75 -42.95 62.55 37.75 66.9 85.35 64.2 87.3 11.3 124.55 -15.0 181.7 0.3 269.7 0.8 273.4 16.15 288.75 212.65 288.75 231.85 269.0 241.5 181.6 239.65 164.6 235.1 123.95 171.5 89.9 179.35 61.6 M228.75 181.4 L229.5 182.2 230.25 182.6 Q236.4 184.9 237.35 178.4 238.45 186.15 231.1 184.9 228.95 184.45 228.4 182.4 228.05 181.15 228.05 179.55 L228.75 181.4 M237.8 119.6 L248.35 194.8 238.4 272.1 221.5 291.95 13.4 291.95 -5.6 276.6 -21.95 192.8 5.75 120.2 61.0 85.65 55.75 36.55 108.4 -55.0 147.55 -36.9 190.95 44.75 177.1 84.05 237.8 119.6 M115.6 -32.45 L115.6 -30.0 106.05 -19.95 106.05 -22.5 106.1 -22.5 115.6 -32.45 M119.2 -26.45 Q119.7 -16.8 110.2 -18.0 L108.4 -18.2 108.35 -20.55 Q110.0 -19.6 112.05 -19.55 118.6 -20.15 119.2 -26.45 M2.75 175.95 L2.75 178.4 -6.8 188.45 -6.8 185.85 -6.7 185.85 2.75 175.95 M6.35 181.9 Q6.85 191.6 -2.65 190.4 L-4.45 190.15 -4.5 187.85 Q-2.85 188.8 -0.8 188.85 5.75 188.25 6.35 181.9 M69.0 249.25 Q70.3 255.35 64.4 256.0 61.7 256.5 60.45 254.0 59.6 252.3 59.65 250.4 L60.4 252.25 61.1 253.1 61.9 253.5 Q68.15 255.8 69.0 249.25 M43.3 260.1 L43.0 260.25 43.15 259.6 43.3 260.1" fill="#47525f" fill-rule="evenodd" stroke="none"/>
      <path d="M179.35 61.6 L171.5 89.9 235.1 123.95 239.65 164.6 0.3 269.7 -15.0 181.7 11.3 124.55 64.2 87.3 179.35 61.6 M116.55 -29.2 L117.85 -30.5 117.9 -29.55 Q117.6 -20.2 108.35 -20.55 L116.55 -29.2 M2.75 178.4 L2.75 175.95 2.35 175.65 2.05 175.75 Q-4.4 173.3 -7.55 180.2 L-8.2 182.0 -8.2 184.8 Q-8.45 185.7 -6.8 188.45 L-4.45 190.15 -2.65 190.4 Q6.85 191.6 6.35 181.9 L5.0 177.85 5.05 178.65 Q4.85 188.2 -4.5 187.85 L3.7 179.2 2.75 178.4 M-6.7 185.85 L-6.8 185.85 -6.8 185.8 -6.7 185.85 M-7.0 184.05 L-7.1 184.3 -7.1 184.25 -7.0 184.05" fill="#bab9ba" fill-rule="evenodd" stroke="none"/>
      <path d="M64.2 87.3 L66.9 85.35 62.55 37.75 104.75 -42.95 143.25 -30.65 183.75 45.6 179.35 61.6 64.2 87.3 M239.65 164.6 L241.5 181.6 231.85 269.0 212.65 288.75 16.15 288.75 0.8 273.4 0.3 269.7 239.65 164.6 M236.4 176.15 Q235.75 175.35 234.9 174.9 L233.9 174.5 Q228.3 174.05 228.05 179.55 228.05 181.15 228.4 182.4 228.95 184.45 231.1 184.9 238.45 186.15 237.35 178.4 237.25 177.15 236.4 176.15 M114.9 -32.6 Q108.5 -35.0 105.3 -28.2 L104.65 -26.4 104.65 -23.6 Q104.4 -22.7 106.05 -19.95 L108.4 -18.2 110.2 -18.0 Q119.7 -16.8 119.2 -26.45 L117.85 -30.5 116.55 -29.2 115.6 -30.0 115.6 -32.45 115.2 -32.75 114.9 -32.6 M105.75 -24.15 L105.85 -24.3 105.75 -24.05 105.75 -24.15 M106.05 -22.6 L106.1 -22.5 106.05 -22.5 106.05 -22.6 M66.55 245.75 L65.5 245.4 Q60.05 244.85 59.65 250.4 59.6 252.3 60.45 254.0 61.7 256.5 64.4 256.0 70.3 255.35 69.0 249.25 68.85 248.0 68.05 247.0 L66.55 245.75 M43.3 260.1 L43.15 259.6 43.0 260.25 43.3 260.1" fill="#9c9c9c" fill-rule="evenodd" stroke="none"/>
      <path d="M234.9 174.9 Q232.35 174.9 230.55 176.8 228.75 178.7 228.75 181.4 L228.05 179.55 Q228.3 174.05 233.9 174.5 L234.9 174.9 M104.65 -26.4 L105.3 -28.2 Q108.5 -35.0 114.9 -32.6 109.35 -30.7 106.35 -25.55 L105.85 -24.3 105.75 -24.15 105.65 -23.1 Q104.75 -24.65 104.65 -26.4 M-8.2 182.0 L-7.55 180.2 Q-4.4 173.3 2.05 175.75 -3.6 177.6 -6.35 182.8 L-7.0 184.05 -7.1 184.25 -7.2 185.25 Q-8.1 183.7 -8.2 182.0 M59.65 250.4 Q60.05 244.85 65.5 245.4 L66.55 245.75 Q63.95 245.75 62.2 247.65 60.4 249.55 60.4 252.25 L59.65 250.4" fill="#e9e9eb" fill-rule="evenodd" stroke="none"/>
      <path d="M228.75 181.4 Q228.75 178.7 230.55 176.8 232.35 174.9 234.9 174.9 235.75 175.35 236.4 176.15 L236.4 176.45 Q235.95 182.65 229.5 182.2 L228.75 181.4 M114.9 -32.6 L115.2 -32.75 115.6 -32.45 106.1 -22.5 106.05 -22.6 105.7 -23.1 105.75 -24.05 105.85 -24.3 106.35 -25.55 Q109.35 -30.7 114.9 -32.6 M2.05 175.75 L2.35 175.65 2.75 175.95 -6.7 185.85 -6.8 185.8 -7.15 185.25 -7.1 184.3 -7.0 184.05 -6.35 182.8 Q-3.6 177.6 2.05 175.75 M66.55 245.75 L68.05 247.0 Q68.1 252.6 62.3 253.2 L61.1 253.1 60.4 252.25 Q60.4 249.55 62.2 247.65 63.95 245.75 66.55 245.75" fill="#d0cfd0" fill-rule="evenodd" stroke="none"/>
      <path d="M229.5 182.2 Q235.95 182.65 236.4 176.45 L236.4 176.15 Q237.25 177.15 237.35 178.4 236.4 184.9 230.25 182.6 L229.5 182.2 M117.85 -30.5 L119.2 -26.45 Q118.6 -20.15 112.05 -19.55 110.0 -19.6 108.35 -20.55 117.6 -20.2 117.9 -29.55 L117.85 -30.5 M-4.5 187.85 Q4.85 188.2 5.05 178.65 L5.0 177.85 6.35 181.9 Q5.75 188.25 -0.8 188.85 -2.85 188.8 -4.5 187.85 M68.05 247.0 Q68.85 248.0 69.0 249.25 68.15 255.8 61.9 253.5 L61.1 253.1 62.3 253.2 Q68.1 252.6 68.05 247.0" fill="#b0aeb3" fill-rule="evenodd" stroke="none"/>
      <path d="M115.6 -30.0 L116.55 -29.2 108.35 -20.55 108.4 -18.2 106.05 -19.95 115.6 -30.0 M2.75 178.4 L3.7 179.2 -4.5 187.85 -4.45 190.15 -6.8 188.45 2.75 178.4" fill="#57565b" fill-rule="evenodd" stroke="none"/>
      <path d="M106.05 -19.95 Q104.4 -22.7 104.65 -23.6 L104.65 -26.4 Q104.75 -24.65 105.65 -23.1 L105.75 -24.15 105.75 -24.05 105.7 -23.1 106.05 -22.6 106.05 -22.5 106.05 -19.95 M-6.8 188.45 Q-8.45 185.7 -8.2 184.8 L-8.2 182.0 Q-8.1 183.7 -7.2 185.25 L-7.1 184.25 -7.1 184.3 -7.15 185.25 -6.8 185.8 -6.8 185.85 -6.8 188.45" fill="#79818b" fill-rule="evenodd" stroke="none"/>
    </g>
    <g id="shape4" transform="matrix(1.0, 0.0, 0.0, 1.0, 0.0, 0.0)">
      <path d="M191.35 171.65 L186.25 133.2 144.6 200.65 Q147.25 207.0 150.35 222.6 152.6 233.8 153.5 234.75 L153.4 235.2 160.2 224.3 Q169.05 223.15 175.15 229.45 L176.45 230.8 181.7 236.65 186.25 217.7 191.35 171.65 M173.1 252.85 L165.95 258.65 149.55 242.4 151.75 237.95 142.35 203.05 135.6 211.45 142.55 260.3 142.2 261.45 141.05 262.0 55.7 262.3 54.65 261.95 54.2 260.7 58.2 213.45 45.65 200.85 40.8 234.35 42.8 235.9 42.85 236.75 41.05 242.5 42.85 244.9 Q44.05 246.65 43.7 248.6 L26.1 260.6 5.4 241.8 7.5 238.5 2.45 219.2 0.0 175.85 7.35 131.05 8.05 130.05 67.55 94.1 67.7 93.1 Q62.85 83.7 60.45 73.55 59.7 70.3 60.9 66.65 L62.3 62.95 63.85 59.3 57.3 58.75 56.85 58.4 56.7 56.75 87.75 0.4 88.0 0.05 117.45 0.0 117.75 0.45 146.6 60.5 146.5 62.3 134.7 62.65 142.15 78.35 130.9 93.65 133.0 95.4 188.55 128.25 194.35 171.5 189.2 218.25 184.15 239.45 184.9 240.45 184.9 241.35 176.55 249.65 173.1 252.85 M123.4 48.05 Q126.25 46.9 128.15 44.65 L128.9 43.6 126.3 41.7 127.05 40.5 Q123.95 37.75 119.6 38.6 L119.25 38.65 118.85 38.0 119.0 37.25 Q127.45 34.85 131.15 43.05 129.7 48.65 123.8 49.4 L123.4 48.05 M88.35 5.55 L60.5 56.1 65.85 56.4 66.05 55.05 71.2 54.6 71.9 53.55 69.3 48.1 70.0 47.2 70.6 47.05 74.55 52.1 Q85.05 50.2 93.8 43.95 L94.05 43.9 95.65 45.2 Q98.15 47.25 97.65 50.25 97.4 51.6 96.8 52.2 L96.15 53.25 95.8 53.0 Q98.05 48.4 94.1 45.35 92.55 46.25 90.95 47.1 L91.6 52.7 92.0 58.2 Q92.8 74.8 88.3 90.8 87.95 91.95 86.65 92.35 L84.5 92.9 Q76.7 82.15 64.75 75.95 L61.25 74.25 71.6 93.35 91.05 102.75 91.45 104.0 98.0 150.3 101.85 103.1 127.7 92.9 137.9 79.4 Q125.95 79.55 118.05 88.55 L116.15 90.9 115.2 90.9 114.7 90.25 Q117.5 74.0 125.65 59.7 L130.25 51.75 130.95 52.6 128.3 58.45 Q129.5 56.7 131.4 55.8 133.05 54.95 134.45 56.05 L135.25 56.7 133.9 58.3 132.95 57.75 132.8 57.0 Q121.95 66.0 118.7 80.4 L117.15 86.8 Q124.5 78.2 135.9 77.45 L138.65 77.5 131.15 60.6 142.9 59.65 132.35 37.7 131.05 38.75 118.85 27.45 Q125.5 28.3 129.95 33.7 L131.05 35.05 117.0 5.8 115.45 2.6 89.95 2.6 88.35 5.55 M91.7 35.95 L91.8 37.0 91.05 37.75 Q84.2 35.45 79.35 41.75 L78.05 43.1 77.0 42.9 76.65 42.2 Q81.35 34.15 90.05 35.3 L91.8 32.8 93.0 33.55 91.7 35.95 M81.1 20.8 Q82.1 16.85 85.7 16.4 91.75 20.75 93.85 27.8 L92.6 28.95 Q88.25 24.9 85.3 19.55 L84.7 20.7 Q83.7 22.35 81.85 21.95 L81.1 20.8 M89.75 68.95 L83.25 72.4 Q80.1 74.0 71.05 74.45 79.6 73.8 83.05 71.85 86.65 69.85 89.6 67.0 L89.05 48.45 Q78.5 62.25 65.25 73.45 66.95 74.05 66.45 74.0 L65.0 73.85 Q78.4 81.45 85.3 90.8 87.1 90.15 87.7 88.15 90.5 78.5 89.75 68.95 M129.75 96.4 L128.5 95.8 105.9 103.5 120.6 126.2 129.75 96.4 M78.75 53.3 L74.9 54.05 Q73.65 58.25 70.05 57.45 L67.25 57.1 67.55 58.05 61.9 72.3 Q63.4 72.75 64.65 71.6 75.0 62.45 83.75 51.55 L78.75 53.3 M143.35 135.95 L143.2 136.85 111.2 162.55 82.8 193.4 80.05 259.25 139.35 259.0 132.55 211.2 142.3 198.75 185.1 129.4 160.7 115.1 159.75 125.65 134.7 128.65 143.35 135.95 M157.55 122.9 L157.75 113.35 132.25 98.4 121.75 130.85 121.4 131.1 116.5 125.4 100.05 161.25 88.7 182.55 109.25 160.25 139.45 136.0 Q134.15 132.3 129.85 127.6 L129.6 127.1 129.55 126.8 129.85 126.45 157.55 122.9 M9.55 136.2 L3.0 175.8 5.45 218.9 9.8 235.6 Q13.3 231.1 17.9 228.7 25.0 225.1 32.75 229.45 L35.45 230.9 38.05 232.5 43.05 198.1 27.95 177.15 9.55 136.2 M49.65 131.9 L49.2 130.55 Q53.7 127.7 58.95 126.6 L37.05 125.1 34.85 117.35 10.9 131.8 30.5 175.55 Q46.4 194.1 61.25 213.05 L57.35 259.3 77.05 259.25 79.7 192.8 92.0 169.95 83.25 160.9 49.65 131.9 M68.5 126.0 L53.6 131.4 85.2 158.65 93.5 167.15 96.35 161.85 79.55 121.55 73.9 128.7 72.7 127.9 68.0 97.3 37.55 115.7 38.85 122.3 68.1 124.8 68.5 126.0 M74.75 123.3 L87.9 103.95 70.9 96.35 74.75 123.3 M114.55 122.35 L104.55 107.0 100.85 152.25 114.55 122.35 M89.0 107.75 L81.55 118.65 95.1 151.15 89.0 107.75 M17.95 230.6 L8.95 241.5 26.55 257.35 40.65 247.45 39.15 245.1 37.35 246.45 36.75 246.65 31.4 245.65 26.0 244.55 25.4 246.5 25.05 246.85 24.0 247.2 Q22.65 246.85 22.65 245.45 22.6 240.65 25.05 237.4 25.3 237.05 25.75 237.3 28.4 238.4 26.55 241.6 L36.5 243.55 39.55 237.15 26.85 228.55 17.95 230.6 M161.55 227.2 L154.9 236.3 154.75 237.75 159.9 242.15 162.6 241.5 162.05 240.2 162.6 239.15 163.7 238.8 164.7 239.35 168.2 244.8 167.0 245.55 164.75 244.05 Q158.35 245.15 153.6 240.65 L152.75 242.0 166.3 255.05 181.55 241.0 169.9 227.7 161.55 227.2" fill="#1a1a1a" fill-rule="evenodd" stroke="none"/>
      <path d="M191.35 171.65 L186.25 217.7 181.7 236.65 176.45 230.8 175.15 229.45 Q169.05 223.15 160.2 224.3 L153.4 235.2 153.5 234.75 Q152.6 233.8 150.35 222.6 147.25 207.0 144.6 200.65 L186.25 133.2 191.35 171.65 M68.5 126.0 L68.1 124.8 38.85 122.3 37.55 115.7 68.0 97.3 72.7 127.9 73.9 128.7 79.55 121.55 96.35 161.85 93.5 167.15 85.2 158.65 53.6 131.4 68.5 126.0 M49.65 131.9 L83.25 160.9 92.0 169.95 79.7 192.8 77.05 259.25 57.35 259.3 61.25 213.05 Q46.4 194.1 30.5 175.55 L10.9 131.8 34.85 117.35 37.05 125.1 58.95 126.6 Q53.7 127.7 49.2 130.55 L49.65 131.9 M9.55 136.2 L27.95 177.15 43.05 198.1 38.05 232.5 35.45 230.9 32.75 229.45 Q25.0 225.1 17.9 228.7 13.3 231.1 9.8 235.6 L5.45 218.9 3.0 175.8 9.55 136.2 M157.55 122.9 L129.85 126.45 129.55 126.8 129.6 127.1 129.85 127.6 Q134.15 132.3 139.45 136.0 L109.25 160.25 88.7 182.55 100.05 161.25 116.5 125.4 121.4 131.1 121.75 130.85 132.25 98.4 157.75 113.35 157.55 122.9 M143.35 135.95 L134.7 128.65 159.75 125.65 160.7 115.1 185.1 129.4 142.3 198.75 132.55 211.2 139.35 259.0 80.05 259.25 82.8 193.4 111.2 162.55 143.2 136.85 143.35 135.95" fill="#8d254e" fill-rule="evenodd" stroke="none"/>
      <path d="M123.4 48.05 L123.8 49.4 Q129.7 48.65 131.15 43.05 127.45 34.85 119.0 37.25 L118.85 38.0 119.25 38.65 119.6 38.6 Q123.95 37.75 127.05 40.5 L126.3 41.7 128.9 43.6 128.15 44.65 Q126.25 46.9 123.4 48.05 M117.0 5.8 L131.05 35.05 129.95 33.7 Q125.5 28.3 118.85 27.45 L131.05 38.75 132.35 37.7 142.9 59.65 131.15 60.6 138.65 77.5 135.9 77.45 Q124.5 78.2 117.15 86.8 L118.7 80.4 Q121.95 66.0 132.8 57.0 L132.95 57.75 133.9 58.3 135.25 56.7 134.45 56.05 Q133.05 54.95 131.4 55.8 129.5 56.7 128.3 58.45 L130.95 52.6 130.25 51.75 125.65 59.7 Q117.5 74.0 114.7 90.25 L115.2 90.9 116.15 90.9 118.05 88.55 Q125.95 79.55 137.9 79.4 L127.7 92.9 101.85 103.1 98.0 150.3 91.45 104.0 91.05 102.75 71.6 93.35 61.25 74.25 64.75 75.95 Q76.7 82.15 84.5 92.9 L86.65 92.35 Q87.95 91.95 88.3 90.8 92.8 74.8 92.0 58.2 L91.6 52.7 90.95 47.1 Q92.55 46.25 94.1 45.35 98.05 48.4 95.8 53.0 L96.15 53.25 96.8 52.2 Q97.4 51.6 97.65 50.25 98.15 47.25 95.65 45.2 L94.05 43.9 93.8 43.95 Q85.05 50.2 74.55 52.1 L70.6 47.05 70.0 47.2 69.3 48.1 71.9 53.55 71.2 54.6 66.05 55.05 65.85 56.4 60.5 56.1 88.35 5.55 91.4 5.2 Q96.5 4.85 103.5 15.45 103.45 15.05 104.95 11.15 106.45 7.25 109.95 5.05 112.65 3.3 117.0 5.8 M81.1 20.8 L81.85 21.95 Q83.7 22.35 84.7 20.7 L85.3 19.55 Q88.25 24.9 92.6 28.95 L93.85 27.8 Q91.75 20.75 85.7 16.4 82.1 16.85 81.1 20.8 M91.7 35.95 L93.0 33.55 91.8 32.8 90.05 35.3 Q81.35 34.15 76.65 42.2 L77.0 42.9 78.05 43.1 79.35 41.75 Q84.2 35.45 91.05 37.75 L91.8 37.0 91.7 35.95 M78.75 53.3 L83.75 51.55 Q75.0 62.45 64.65 71.6 63.4 72.75 61.9 72.3 L67.55 58.05 67.25 57.1 70.05 57.45 Q73.65 58.25 74.9 54.05 L78.75 53.3" fill="#efcfcf" fill-rule="evenodd" stroke="none"/>
      <path d="M117.0 5.8 Q112.65 3.3 109.95 5.05 106.45 7.25 104.95 11.15 103.45 15.05 103.5 15.45 96.5 4.85 91.4 5.2 L88.35 5.55 89.95 2.6 115.45 2.6 117.0 5.8" fill="#672c2c" fill-rule="evenodd" stroke="none"/>
      <path d="M129.75 96.4 L120.6 126.2 105.9 103.5 128.5 95.8 129.75 96.4 M89.0 107.75 L95.1 151.15 81.55 118.65 89.0 107.75 M114.55 122.35 L100.85 152.25 104.55 107.0 114.55 122.35 M74.75 123.3 L70.9 96.35 87.9 103.95 74.75 123.3" fill="#ffe1e9" fill-rule="evenodd" stroke="none"/>
      <path d="M161.55 227.2 L169.9 227.7 181.55 241.0 166.3 255.05 152.75 242.0 153.6 240.65 Q158.35 245.15 164.75 244.05 L167.0 245.55 168.2 244.8 164.7 239.35 163.7 238.8 162.6 239.15 162.05 240.2 162.6 241.5 159.9 242.15 154.75 237.75 154.9 236.3 161.55 227.2 M17.95 230.6 L26.85 228.55 39.55 237.15 36.5 243.55 26.55 241.6 Q28.4 238.4 25.75 237.3 25.3 237.05 25.05 237.4 22.6 240.65 22.65 245.45 22.65 246.85 24.0 247.2 L25.05 246.85 25.4 246.5 26.0 244.55 31.4 245.65 36.75 246.65 37.35 246.45 39.15 245.1 40.65 247.45 26.55 257.35 8.95 241.5 17.95 230.6" fill="#e3aed5" fill-rule="evenodd" stroke="none"/>
      <path d="M173.1 252.85 L176.55 249.65 Q176.05 250.7 175.15 251.55 L173.1 252.85" fill="#bab9ba" fill-rule="evenodd" stroke="none"/>
      <path d="M89.75 68.95 Q90.5 78.5 87.7 88.15 87.1 90.15 85.3 90.8 78.4 81.45 65.0 73.85 L66.45 74.0 Q66.95 74.05 65.25 73.45 78.5 62.25 89.05 48.45 L89.6 67.0 Q86.65 69.85 83.05 71.85 79.6 73.8 71.05 74.45 80.1 74.0 83.25 72.4 L89.75 68.95" fill="#ffffff" fill-rule="evenodd" stroke="none"/>
    </g>
    <g id="shape5" transform="matrix(1.0, 0.0, 0.0, 1.0, -0.1, 0.0)">
      <path d="M44.15 4.15 Q48.25 3.4 52.05 4.8 L52.4 5.0 52.3 11.35 52.25 12.55 Q56.95 19.4 57.2 28.65 56.95 39.1 50.85 46.55 L50.85 48.45 50.25 54.2 Q46.95 55.8 43.1 54.6 L42.4 54.05 42.25 53.8 Q36.25 57.05 28.6 57.25 20.95 57.05 14.95 53.75 L14.75 54.3 14.4 54.75 8.05 54.95 Q6.45 53.25 6.75 50.75 L6.9 47.7 6.85 47.2 Q3.0 42.7 1.3 37.15 -0.8 29.9 0.85 22.5 2.4 15.75 6.8 10.6 15.0 0.95 27.95 0.05 L28.3 0.05 28.6 0.05 Q37.0 0.25 43.5 4.2 L44.15 4.15 M50.75 10.0 L51.2 5.6 42.35 5.6 Q42.7 27.1 43.4 48.6 43.45 50.9 43.95 52.95 L47.55 53.2 49.45 52.9 Q49.55 33.1 50.45 13.35 L50.75 10.0 M40.95 5.25 Q41.05 4.75 41.2 4.9 L41.4 4.8 Q35.75 1.65 28.6 1.45 17.05 1.75 9.4 9.45 1.7 17.1 1.4 28.65 1.65 37.85 6.6 44.65 L6.5 43.3 6.35 41.05 6.05 39.7 Q1.4 28.1 7.05 17.05 11.65 8.15 21.3 5.15 31.5 2.15 40.85 7.15 L40.95 5.25 M45.1 11.4 L45.35 12.2 47.45 10.1 46.65 9.85 Q45.25 10.0 45.1 11.4 M40.8 9.45 L40.8 8.75 Q35.55 5.45 28.65 5.3 18.7 5.6 12.0 12.3 5.3 19.0 5.05 28.9 5.2 33.9 6.95 38.05 L7.95 37.8 14.45 37.8 15.3 38.55 15.05 47.8 17.35 48.85 17.4 46.3 17.4 42.55 16.8 27.7 17.8 27.05 Q22.25 25.8 26.4 27.25 L26.7 27.55 26.7 51.5 26.7 51.95 29.25 52.05 29.25 51.35 29.25 47.1 29.3 44.85 28.85 16.2 30.2 15.55 38.9 15.85 38.7 49.4 38.7 49.8 41.85 47.95 41.85 47.1 41.95 42.75 41.95 38.3 41.0 14.95 40.85 11.15 40.8 9.45 M44.55 12.65 Q44.5 11.25 45.1 10.1 45.7 8.9 46.6 8.8 47.5 8.7 48.2 9.75 48.9 10.75 48.95 12.35 48.4 13.7 46.65 13.9 45.1 13.75 44.55 12.65 M48.3 45.2 L48.65 46.05 Q49.15 47.55 48.1 48.55 L46.3 49.2 Q44.8 49.15 44.1 47.55 43.75 46.05 44.6 45.2 L45.65 44.45 Q47.35 44.0 48.3 45.2 M46.3 12.95 L46.65 13.0 Q48.75 12.6 48.05 10.7 L46.3 12.95 M50.85 42.75 L50.85 44.4 Q55.35 38.0 55.55 29.2 55.4 21.65 52.1 15.6 L52.05 16.5 Q51.5 20.6 52.6 24.4 53.15 26.45 53.2 28.65 53.35 33.65 51.5 38.1 50.6 40.15 50.85 42.75 M51.15 34.95 Q51.9 31.85 51.85 28.65 L51.65 24.65 51.15 34.95 M44.9 46.45 L44.9 47.25 Q45.45 48.6 46.85 48.1 L47.6 47.8 44.9 46.45 M47.9 46.25 Q47.35 44.95 45.9 45.3 45.55 45.45 45.3 45.7 L47.95 47.0 47.9 46.25 M38.0 18.15 L38.1 16.8 29.9 16.9 31.25 53.15 37.5 53.45 37.55 53.2 Q36.9 35.65 38.0 18.15 M35.4 21.6 L35.0 20.95 32.75 21.0 32.45 21.65 35.4 21.6 M32.05 23.7 Q30.8 22.05 32.1 20.4 L32.25 20.3 Q33.9 18.95 35.6 20.25 L35.8 20.5 Q37.0 22.1 35.7 23.75 L35.55 23.9 Q33.9 25.2 32.2 23.85 L32.05 23.7 M35.4 48.0 Q37.9 50.5 35.05 52.15 L32.75 52.05 Q31.1 50.6 32.2 48.6 33.2 47.3 35.0 47.8 L35.4 48.0 M32.4 22.2 L32.8 22.85 35.05 22.8 35.35 22.15 32.4 22.2 M20.1 34.85 Q19.2 34.05 19.3 32.95 19.55 30.6 21.75 30.6 23.45 30.5 23.95 32.0 24.55 33.8 23.2 34.9 L20.1 34.85 M23.55 48.15 Q24.4 48.75 24.5 49.6 24.85 52.4 22.1 52.65 21.25 52.3 20.65 51.7 18.85 49.95 20.8 48.1 L23.55 48.15 M9.4 44.7 L9.2 45.45 Q9.35 46.9 10.75 47.05 L11.55 46.85 9.4 44.7 M9.05 47.25 L8.8 46.95 Q7.8 45.3 9.05 43.7 10.1 42.75 11.45 43.15 L12.0 43.35 Q13.1 43.95 13.25 45.45 13.05 47.15 11.75 47.7 10.7 48.45 9.05 47.25 M12.35 45.45 Q12.2 44.05 10.75 43.9 L10.0 44.1 12.15 46.25 12.35 45.45 M14.2 38.7 L7.45 38.8 8.6 53.65 Q9.45 54.1 10.5 54.05 L14.1 53.7 14.2 38.7 M21.65 31.4 L20.9 31.6 23.05 33.75 23.25 32.95 Q23.1 31.55 21.65 31.4 M22.45 34.35 L20.3 32.2 20.1 32.95 Q20.35 34.35 21.65 34.55 L22.45 34.35 M22.15 48.6 Q21.45 48.65 21.1 49.0 20.65 49.4 20.55 50.15 L20.75 50.9 22.85 48.8 22.15 48.6 M35.3 49.15 L33.1 49.1 32.65 49.55 32.6 50.35 35.3 49.15 M25.55 28.05 L17.9 28.15 19.3 53.15 24.75 53.25 25.55 28.05 M41.95 51.4 L41.85 49.6 38.7 51.3 38.55 53.05 38.35 54.05 42.0 52.4 41.95 51.4 M25.95 54.9 L23.3 55.25 Q28.6 56.35 33.95 55.25 L30.85 54.9 Q29.8 54.75 29.55 53.85 L29.45 53.4 26.6 53.3 25.95 54.9 M33.2 51.4 L34.55 51.7 35.7 49.95 33.2 51.4 M21.35 51.55 L22.1 51.75 Q23.9 51.55 23.6 49.7 L21.35 51.55 M15.15 51.45 L15.15 52.25 17.45 53.45 17.3 52.6 Q17.2 51.75 17.25 50.65 L15.1 49.4 15.15 51.45" fill="#5d0035" fill-rule="evenodd" stroke="none"/>
      <path d="M50.75 10.0 L50.45 13.35 Q49.55 33.1 49.45 52.9 L47.55 53.2 43.95 52.95 Q43.45 50.9 43.4 48.6 42.7 27.1 42.35 5.6 L51.2 5.6 50.75 10.0 M48.95 12.35 Q48.9 10.75 48.2 9.75 47.5 8.7 46.6 8.8 45.7 8.9 45.1 10.1 44.5 11.25 44.55 12.65 L44.6 45.2 Q43.75 46.05 44.1 47.55 44.8 49.15 46.3 49.2 46.8 49.75 47.7 49.65 L48.1 48.55 Q49.15 47.55 48.65 46.05 L48.3 45.2 48.05 41.5 Q47.2 35.85 47.35 30.15 47.65 21.15 48.95 12.35 M38.0 18.15 Q36.9 35.65 37.55 53.2 L37.5 53.45 31.25 53.15 29.9 16.9 38.1 16.8 38.0 18.15 M35.55 23.9 L35.7 23.75 Q37.0 22.1 35.8 20.5 L35.6 20.25 Q33.9 18.95 32.25 20.3 L32.1 20.4 Q30.8 22.05 32.05 23.7 32.7 32.75 31.85 41.85 31.65 43.75 31.7 45.7 31.7 47.3 32.2 48.6 31.1 50.6 32.75 52.05 L35.05 52.15 Q37.9 50.5 35.4 48.0 34.65 36.55 35.35 25.1 L35.55 23.9 M23.2 34.9 Q24.55 33.8 23.95 32.0 23.45 30.5 21.75 30.6 19.55 30.6 19.3 32.95 19.2 34.05 20.1 34.85 L20.8 48.1 Q18.85 49.95 20.65 51.7 21.25 52.3 22.1 52.65 24.85 52.4 24.5 49.6 24.4 48.75 23.55 48.15 L23.2 34.9 M9.05 43.7 Q7.8 45.3 8.8 46.95 L9.05 47.25 Q8.85 50.0 10.4 52.15 10.75 52.65 11.4 52.4 L11.75 47.7 Q13.05 47.15 13.25 45.45 13.1 43.95 12.0 43.35 12.3 41.75 11.6 40.3 L11.4 40.05 10.2 39.95 Q8.8 41.5 9.05 43.7 M14.2 38.7 L14.1 53.7 10.5 54.05 Q9.45 54.1 8.6 53.65 L7.45 38.8 14.2 38.7 M25.55 28.05 L24.75 53.25 19.3 53.15 17.9 28.15 25.55 28.05" fill="#e3c1d7" fill-rule="evenodd" stroke="none"/>
      <path d="M6.5 43.3 L6.6 44.65 Q1.65 37.85 1.4 28.65 1.7 17.1 9.4 9.45 17.05 1.75 28.6 1.45 35.75 1.65 41.4 4.8 L41.2 4.9 Q41.05 4.75 40.95 5.25 35.45 2.3 28.5 2.1 17.25 2.4 9.8 9.9 2.3 17.35 2.0 28.6 2.2 37.0 6.5 43.3 M40.85 11.15 L41.0 14.95 Q38.6 13.0 35.2 12.55 30.25 11.95 25.95 12.6 16.7 14.25 11.6 22.15 8.2 28.0 10.7 34.3 L12.05 37.4 9.6 37.55 Q7.6 32.95 7.75 27.7 7.85 22.9 10.4 19.05 15.75 11.05 25.25 9.1 33.55 7.45 40.85 11.15 M41.95 38.3 L41.95 42.75 39.4 43.95 Q39.25 42.35 39.25 40.75 L41.95 38.3 M29.3 44.85 L29.25 47.1 27.4 47.55 27.4 45.1 29.3 44.85 M17.4 42.55 L17.4 46.3 16.15 45.55 15.9 41.9 17.4 42.55 M52.05 16.5 L52.1 15.6 Q55.4 21.65 55.55 29.2 55.35 38.0 50.85 44.4 L50.85 42.75 Q54.75 36.6 54.95 28.6 54.75 21.85 52.05 16.5 M41.95 51.4 L42.0 52.4 38.35 54.05 38.55 53.05 41.95 51.4 M30.85 54.9 L33.95 55.25 Q28.6 56.35 23.3 55.25 L25.95 54.9 30.85 54.9 M17.3 52.6 L17.45 53.45 15.15 52.25 15.15 51.45 17.3 52.6" fill="#d2c0c0" fill-rule="evenodd" stroke="none"/>
      <path d="M44.15 4.15 L43.5 4.2 Q37.0 0.25 28.6 0.05 L29.2 0.0 Q37.65 0.2 44.15 4.15 M1.3 37.15 Q3.0 42.7 6.85 47.2 L6.9 47.7 Q2.95 43.0 1.3 37.15" fill="#8d3f6d" fill-rule="evenodd" stroke="none"/>
      <path d="M40.8 9.45 L40.85 11.15 Q33.55 7.45 25.25 9.1 15.75 11.05 10.4 19.05 7.85 22.9 7.75 27.7 7.6 32.95 9.6 37.55 L12.05 37.4 14.45 37.8 7.95 37.8 Q3.5 25.3 11.45 14.7 17.0 7.25 26.3 6.1 34.15 5.3 40.8 9.45 M41.95 42.75 L41.85 47.1 39.25 48.7 38.7 49.4 38.9 15.85 30.2 15.55 Q33.5 13.75 37.2 14.75 40.15 15.65 39.9 19.05 39.05 29.85 39.25 40.75 39.25 42.35 39.4 43.95 L41.95 42.75 M29.25 47.1 L29.25 51.35 26.7 51.5 26.7 27.55 26.4 27.25 Q22.25 25.8 17.8 27.05 19.55 26.25 21.6 26.15 L24.6 26.45 Q27.6 26.9 27.45 30.1 27.1 37.6 27.4 45.1 L27.4 47.55 29.25 47.1 M17.4 46.3 L17.35 48.85 15.05 47.8 15.3 38.55 15.9 41.9 16.15 45.55 17.4 46.3" fill="#bda3a3" fill-rule="evenodd" stroke="none"/>
      <path d="M7.95 37.8 L6.95 38.05 Q5.2 33.9 5.05 28.9 5.3 19.0 12.0 12.3 18.7 5.6 28.65 5.3 35.55 5.45 40.8 8.75 L40.8 9.45 Q34.15 5.3 26.3 6.1 17.0 7.25 11.45 14.7 3.5 25.3 7.95 37.8 M41.85 47.1 L41.85 47.95 38.7 49.8 38.7 49.4 39.25 48.7 41.85 47.1 M29.25 51.35 L29.25 52.05 26.7 51.95 26.7 51.5 29.25 51.35 M51.15 34.95 L51.65 24.65 51.85 28.65 Q51.9 31.85 51.15 34.95" fill="#aa8888" fill-rule="evenodd" stroke="none"/>
      <path d="M45.1 11.4 Q45.25 10.0 46.65 9.85 L47.45 10.1 45.35 12.2 45.1 11.4 M46.3 12.95 L48.05 10.7 Q48.75 12.6 46.65 13.0 L46.3 12.95 M44.9 46.45 L47.6 47.8 46.85 48.1 Q45.45 48.6 44.9 47.25 L44.9 46.45 M47.9 46.25 L47.95 47.0 45.3 45.7 Q45.55 45.45 45.9 45.3 47.35 44.95 47.9 46.25 M35.4 21.6 L32.45 21.65 32.75 21.0 35.0 20.95 35.4 21.6 M32.4 22.2 L35.35 22.15 35.05 22.8 32.8 22.85 32.4 22.2 M9.4 44.7 L11.55 46.85 10.75 47.05 Q9.35 46.9 9.2 45.45 L9.4 44.7 M12.35 45.45 L12.15 46.25 10.0 44.1 10.75 43.9 Q12.2 44.05 12.35 45.45 M22.45 34.35 L21.65 34.55 Q20.35 34.35 20.1 32.95 L20.3 32.2 22.45 34.35 M21.65 31.4 Q23.1 31.55 23.25 32.95 L23.05 33.75 20.9 31.6 21.65 31.4 M22.15 48.6 L22.85 48.8 20.75 50.9 20.55 50.15 Q20.65 49.4 21.1 49.0 21.45 48.65 22.15 48.6 M35.3 49.15 L32.6 50.35 32.65 49.55 33.1 49.1 35.3 49.15 M33.2 51.4 L35.7 49.95 34.55 51.7 33.2 51.4 M21.35 51.55 L23.6 49.7 Q23.9 51.55 22.1 51.75 L21.35 51.55" fill="#a68884" fill-rule="evenodd" stroke="none"/>
      <path d="M48.95 12.35 Q47.65 21.15 47.35 30.15 47.2 35.85 48.05 41.5 L48.3 45.2 Q47.35 44.0 45.65 44.45 L44.6 45.2 44.55 12.65 Q45.1 13.75 46.65 13.9 48.4 13.7 48.95 12.35 M48.1 48.55 L47.7 49.65 Q46.8 49.75 46.3 49.2 L48.1 48.55 M35.55 23.9 L35.35 25.1 Q34.65 36.55 35.4 48.0 L35.0 47.8 Q33.2 47.3 32.2 48.6 31.7 47.3 31.7 45.7 31.65 43.75 31.85 41.85 32.7 32.75 32.05 23.7 L32.2 23.85 Q33.9 25.2 35.55 23.9 M20.1 34.85 L23.2 34.9 23.55 48.15 20.8 48.1 20.1 34.85 M9.05 43.7 Q8.8 41.5 10.2 39.95 L11.4 40.05 11.6 40.3 Q12.3 41.75 12.0 43.35 L11.45 43.15 Q10.1 42.75 9.05 43.7 M11.75 47.7 L11.4 52.4 Q10.75 52.65 10.4 52.15 8.85 50.0 9.05 47.25 10.7 48.45 11.75 47.7" fill="#c7abb9" fill-rule="evenodd" stroke="none"/>
      <path d="M40.95 5.25 L40.85 7.15 Q31.5 2.15 21.3 5.15 11.65 8.15 7.05 17.05 1.4 28.1 6.05 39.7 L6.35 41.05 6.5 43.3 Q2.2 37.0 2.0 28.6 2.3 17.35 9.8 9.9 17.25 2.4 28.5 2.1 35.45 2.3 40.95 5.25 M41.0 14.95 L41.95 38.3 39.25 40.75 Q39.05 29.85 39.9 19.05 40.15 15.65 37.2 14.75 33.5 13.75 30.2 15.55 L28.85 16.2 29.3 44.85 27.4 45.1 Q27.1 37.6 27.45 30.1 27.6 26.9 24.6 26.45 L21.6 26.15 Q19.55 26.25 17.8 27.05 L16.8 27.7 17.4 42.55 15.9 41.9 15.3 38.55 14.45 37.8 12.05 37.4 10.7 34.3 Q8.2 28.0 11.6 22.15 16.7 14.25 25.95 12.6 30.25 11.95 35.2 12.55 38.6 13.0 41.0 14.95 M50.85 42.75 Q50.6 40.15 51.5 38.1 53.35 33.65 53.2 28.65 53.15 26.45 52.6 24.4 51.5 20.6 52.05 16.5 54.75 21.85 54.95 28.6 54.75 36.6 50.85 42.75 M38.55 53.05 L38.7 51.3 41.85 49.6 41.95 51.4 38.55 53.05 M25.95 54.9 L26.6 53.3 29.45 53.4 29.55 53.85 Q29.8 54.75 30.85 54.9 L25.95 54.9 M15.15 51.45 L15.1 49.4 17.25 50.65 Q17.2 51.75 17.3 52.6 L15.15 51.45" fill="#e3d7d7" fill-rule="evenodd" stroke="none"/>
    </g>
  </defs>
</svg>
