<?xml version="1.0" encoding="UTF-8" standalone="no"?>
<svg xmlns:xlink="http://www.w3.org/1999/xlink" height="468.95px" width="310.1px" xmlns="http://www.w3.org/2000/svg">
  <g transform="matrix(1.0, 0.0, 0.0, 1.0, 153.05, 468.95)">
    <use height="36.0" transform="matrix(1.0, 0.0, 0.0, 1.0, -77.9, -36.0)" width="159.0" xlink:href="#shape0"/>
    <use height="96.65" transform="matrix(1.0, 0.0, 0.0, 1.0, -25.5, -108.0)" width="54.2" xlink:href="#shape1"/>
    <use height="37.0" transform="matrix(1.0, 0.0, 0.0, 1.0, -91.0, -94.35)" width="185.25" xlink:href="#shape2"/>
    <use height="17.5" transform="matrix(1.0, 0.0, 0.0, 1.0, -66.6, -81.65)" width="136.4" xlink:href="#text0"/>
    <use height="352.1" transform="matrix(1.0, 0.0, 0.0, 1.0, -136.7, -450.8)" width="273.4" xlink:href="#shape3"/>
    <use height="262.35" transform="matrix(1.2623, 0.0, 0.0, 1.2623, -116.5, -431.25)" width="187.35" xlink:href="#shape4"/>
    <use height="57.25" transform="matrix(1.0, 0.0, 0.0, 1.0, -29.0, -201.95)" width="57.1" xlink:href="#shape5"/>
  </g>
  <defs>
    <g id="shape0" transform="matrix(1.0, 0.0, 0.0, 1.0, 0.0, 0.0)">
      <path d="M135.7 30.75 Q113.3 35.8 79.5 36.0 45.7 35.8 23.3 30.75 0.85 25.65 0.0 18.0 0.85 10.35 23.3 5.25 45.7 0.2 79.5 0.0 113.3 0.2 135.7 5.25 158.15 10.35 159.0 18.0 158.15 25.65 135.7 30.75" fill="#000000" fill-opacity="0.39607844" fill-rule="evenodd" stroke="none"/>
    </g>
    <g id="shape1" transform="matrix(1.0, 0.0, 0.0, 1.0, 0.0, 0.0)">
      <path d="M5.85 93.35 Q-0.15 90.4 0.0 90.0 L0.0 0.0 54.2 0.0 54.2 90.0 Q54.15 90.4 46.95 93.35 39.7 96.25 25.65 96.65 11.8 96.25 5.85 93.35" fill="url(#gradient0)" fill-rule="evenodd" stroke="none"/>
    </g>
    <linearGradient gradientTransform="matrix(0.0303, 0.0, 0.0, 0.0303, 25.7, 48.35)" gradientUnits="userSpaceOnUse" id="gradient0" spreadMethod="pad" x1="-819.2" x2="819.2">
      <stop offset="0.0" stop-color="#565656"/>
      <stop offset="0.403921568627451" stop-color="#9a9999"/>
      <stop offset="0.592156862745098" stop-color="#dbdbda"/>
      <stop offset="0.7803921568627451" stop-color="#9b9a9a"/>
      <stop offset="1.0" stop-color="#151213"/>
    </linearGradient>
    <g id="shape2" transform="matrix(1.0, 0.0, 0.0, 1.0, -0.05, 0.0)">
      <path d="M185.25 8.2 L185.3 8.25 185.25 8.25 185.25 8.2 M1.9 5.2 L2.3 2.85 18.75 2.05 59.05 0.7 Q83.4 0.05 109.4 0.3 115.1 0.55 118.85 1.6 122.65 2.7 128.15 3.0 L129.3 1.5 Q130.05 0.2 130.5 0.0 160.7 0.5 181.5 3.85 L183.45 6.1 103.3 3.5 Q60.0 3.6 6.5 5.1 L1.9 5.2 M176.25 8.0 L176.45 8.4 177.65 11.45 178.5 13.65 Q179.3 12.8 179.7 10.9 179.7 9.8 179.25 9.1 L179.9 9.55 Q180.65 10.3 180.7 11.75 179.85 15.7 177.15 15.05 175.8 14.75 175.1 13.85 L176.15 14.2 177.35 14.25 176.45 12.35 174.9 8.8 174.8 8.5 174.95 8.35 Q175.75 7.8 176.25 8.0 M178.25 27.3 L179.85 27.15 Q180.5 27.3 181.25 27.95 183.6 31.2 181.35 32.8 180.2 33.6 179.1 33.5 L180.8 32.15 178.8 31.55 175.1 30.4 175.2 29.1 175.2 29.0 175.25 28.7 175.4 28.75 175.85 28.9 178.95 30.05 181.1 30.85 Q181.0 29.65 179.9 28.15 179.05 27.45 178.25 27.3 M9.35 6.95 L10.7 10.45 11.7 12.9 Q12.6 11.95 13.05 9.85 13.05 8.55 12.5 7.75 13.85 8.35 14.15 10.05 L13.75 12.35 Q12.6 15.1 10.15 14.55 8.75 14.25 8.0 13.4 L7.85 13.2 9.0 13.6 10.35 13.65 9.35 11.4 7.6 7.45 8.75 6.6 9.2 6.55 9.35 6.95 M9.4 25.3 Q11.0 24.35 12.9 25.8 15.0 28.35 14.35 30.1 L13.4 31.3 Q12.2 32.25 10.95 32.25 L12.75 30.6 10.4 30.05 6.2 29.05 6.15 27.55 6.15 27.1 6.35 27.15 6.9 27.35 10.45 28.4 12.95 29.1 Q12.75 27.8 11.35 26.15 10.35 25.35 9.4 25.3" fill="#47525f" fill-rule="evenodd" stroke="none"/>
      <path d="M0.05 36.7 L0.75 22.9 Q1.05 14.95 1.6 7.0 L1.9 5.2 6.5 5.1 3.2 8.3 1.95 36.45 0.05 36.7" fill="#cdcdcd" fill-rule="evenodd" stroke="none"/>
      <path d="M13.75 12.35 L14.15 10.05 26.45 10.0 13.75 12.35 M8.0 13.4 L7.0 13.55 7.2 26.2 6.35 27.15 6.15 27.1 6.15 27.55 Q5.15 29.5 6.75 31.55 8.95 33.2 10.95 32.25 12.2 32.25 13.4 31.3 L14.35 30.1 16.45 30.2 36.65 31.3 56.5 32.6 Q50.4 32.9 38.0 32.9 L15.1 32.75 3.85 32.6 5.25 10.05 6.0 10.05 Q6.15 12.3 7.85 13.2 L8.0 13.4" fill="#848484" fill-rule="evenodd" stroke="none"/>
      <path d="M175.1 13.85 Q175.8 14.75 177.15 15.05 179.85 15.7 180.7 11.75 180.65 10.3 179.9 9.55 L180.85 9.65 179.85 27.15 178.25 27.3 177.7 27.3 177.8 15.2 160.95 13.3 Q144.35 11.4 115.0 6.95 144.55 7.2 162.45 8.35 L174.1 9.15 Q173.65 9.7 173.4 10.6 173.45 12.95 175.1 13.85 M175.3 32.3 L137.05 30.55 175.2 29.0 175.2 29.1 Q174.3 30.55 175.3 32.3" fill="#a09fa0" fill-rule="evenodd" stroke="none"/>
      <path d="M176.45 8.4 L176.25 8.0 176.9 7.95 Q178.55 8.05 179.25 9.1 179.7 9.8 179.7 10.9 179.3 12.8 178.5 13.65 L177.65 11.45 178.05 10.25 Q178.0 8.55 176.45 8.4 M174.8 8.5 L174.9 8.8 Q174.35 9.2 174.15 10.05 174.2 11.9 175.85 12.3 L176.45 12.35 177.35 14.25 176.15 14.2 175.1 13.85 Q173.45 12.95 173.4 10.6 173.65 9.7 174.1 9.15 L174.8 8.5 M177.7 27.3 L178.25 27.3 Q179.05 27.45 179.9 28.15 181.0 29.65 181.1 30.85 L178.95 30.05 178.3 28.9 Q177.0 27.8 175.85 28.9 L175.4 28.75 175.8 28.3 Q176.7 27.35 177.7 27.3 M179.1 33.5 Q177.3 34.2 175.5 32.65 L175.3 32.3 Q174.3 30.55 175.2 29.1 L175.1 30.4 Q175.25 32.1 176.95 32.35 178.0 32.25 178.8 31.55 L180.8 32.15 179.1 33.5 M10.7 10.45 L11.2 9.05 Q11.15 7.15 9.35 6.95 L9.2 6.55 9.9 6.5 Q11.75 6.6 12.5 7.75 13.05 8.55 13.05 9.85 12.6 11.95 11.7 12.9 L10.7 10.45 M7.2 26.2 Q8.2 25.2 9.4 25.3 10.35 25.35 11.35 26.15 12.75 27.8 12.95 29.1 L10.45 28.4 Q9.75 26.65 8.05 26.6 L6.9 27.35 6.35 27.15 7.2 26.2 M6.0 10.05 L5.95 9.55 Q6.6 7.0 8.75 6.6 L7.6 7.45 Q7.0 7.9 6.75 8.85 6.8 10.95 8.7 11.35 L9.35 11.4 10.35 13.65 9.0 13.6 7.85 13.2 Q6.15 12.3 6.0 10.05 M6.15 27.55 L6.2 29.05 Q6.45 30.9 8.2 31.1 9.7 31.2 10.4 30.05 L12.75 30.6 10.95 32.25 Q8.95 33.2 6.75 31.55 5.15 29.5 6.15 27.55" fill="#9c9c9c" fill-rule="evenodd" stroke="none"/>
      <path d="M174.9 8.8 L176.45 12.35 175.85 12.3 Q174.2 11.9 174.15 10.05 174.35 9.2 174.9 8.8 M177.65 11.45 L176.45 8.4 Q178.0 8.55 178.05 10.25 L177.65 11.45 M175.85 28.9 Q177.0 27.8 178.3 28.9 L178.95 30.05 175.85 28.9 M175.1 30.4 L178.8 31.55 Q178.0 32.25 176.95 32.35 175.25 32.1 175.1 30.4 M9.35 6.95 Q11.15 7.15 11.2 9.05 L10.7 10.45 9.35 6.95 M9.35 11.4 L8.7 11.35 Q6.8 10.95 6.75 8.85 7.0 7.9 7.6 7.45 L9.35 11.4 M10.45 28.4 L6.9 27.35 8.05 26.6 Q9.75 26.65 10.45 28.4 M6.2 29.05 L10.4 30.05 Q9.7 31.2 8.2 31.1 6.45 30.9 6.2 29.05" fill="#d5d4d4" fill-rule="evenodd" stroke="none"/>
      <path d="M183.45 6.1 L185.3 6.25 185.25 8.2 185.25 8.25 185.1 13.45 184.65 27.3 184.3 36.25 Q157.35 34.75 133.85 35.55 L89.2 37.0 Q65.15 37.15 43.55 35.85 22.0 34.5 0.05 36.75 L0.05 36.7 1.95 36.45 3.2 8.3 6.5 5.1 Q60.0 3.6 103.3 3.5 L183.45 6.1 M176.25 8.0 Q175.75 7.8 174.95 8.35 L174.8 8.5 174.1 9.15 162.45 8.35 Q144.55 7.2 115.0 6.95 144.35 11.4 160.95 13.3 L177.8 15.2 177.7 27.3 Q176.7 27.35 175.8 28.3 L175.4 28.75 175.25 28.7 175.2 29.0 137.05 30.55 175.3 32.3 175.5 32.65 Q177.3 34.2 179.1 33.5 180.2 33.6 181.35 32.8 183.6 31.2 181.25 27.95 180.5 27.3 179.85 27.15 L180.85 9.65 179.9 9.55 179.25 9.1 Q178.55 8.05 176.9 7.95 L176.25 8.0 M12.5 7.75 Q11.75 6.6 9.9 6.5 L9.2 6.55 8.75 6.6 Q6.6 7.0 5.95 9.55 L6.0 10.05 5.25 10.05 3.85 32.6 15.1 32.75 38.0 32.9 Q50.4 32.9 56.5 32.6 L36.65 31.3 16.45 30.2 14.35 30.1 Q15.0 28.35 12.9 25.8 11.0 24.35 9.4 25.3 8.2 25.2 7.2 26.2 L7.0 13.55 8.0 13.4 Q8.75 14.25 10.15 14.55 12.6 15.1 13.75 12.35 L26.45 10.0 14.15 10.05 Q13.85 8.35 12.5 7.75" fill="url(#gradient1)" fill-rule="evenodd" stroke="none"/>
    </g>
    <linearGradient gradientTransform="matrix(0.1131, 0.0, 0.0, 0.0204, 92.65, 20.25)" gradientUnits="userSpaceOnUse" id="gradient1" spreadMethod="pad" x1="-819.2" x2="819.2">
      <stop offset="0.0" stop-color="#9a9a9a"/>
      <stop offset="1.0" stop-color="#ffffff"/>
    </linearGradient>
    <g id="text0" transform="matrix(1.0, 0.0, 0.0, 1.0, -3.95, -5.75)">
      <g transform="matrix(1.0, 0.0, 0.0, 1.0, 3.55, 0.0)">
        <use fill="#000000" height="17.5" transform="matrix(0.4746, 0.0, 0.0, 0.4746, 0.0, 21.0)" width="136.4" xlink:href="#font_______W7_T0"/>
        <use fill="#000000" height="17.5" transform="matrix(0.4746, 0.0, 0.0, 0.4746, 15.55, 21.0)" width="136.4" xlink:href="#font_______W7_h0"/>
        <use fill="#000000" height="17.5" transform="matrix(0.4746, 0.0, 0.0, 0.4746, 29.65, 21.0)" width="136.4" xlink:href="#font_______W7_e0"/>
        <use fill="#000000" height="17.5" transform="matrix(0.4746, 0.0, 0.0, 0.4746, 51.0, 21.0)" width="136.4" xlink:href="#font_______W7_M0"/>
        <use fill="#000000" height="17.5" transform="matrix(0.4746, 0.0, 0.0, 0.4746, 70.15, 21.0)" width="136.4" xlink:href="#font_______W7_i0"/>
        <use fill="#000000" height="17.5" transform="matrix(0.4746, 0.0, 0.0, 0.4746, 78.95, 21.0)" width="136.4" xlink:href="#font_______W7_n0"/>
        <use fill="#000000" height="17.5" transform="matrix(0.4746, 0.0, 0.0, 0.4746, 92.55, 21.0)" width="136.4" xlink:href="#font_______W7_g0"/>
        <use fill="#000000" height="17.5" transform="matrix(0.4746, 0.0, 0.0, 0.4746, 105.85, 21.0)" width="136.4" xlink:href="#font_______W7_l0"/>
        <use fill="#000000" height="17.5" transform="matrix(0.4746, 0.0, 0.0, 0.4746, 114.65, 21.0)" width="136.4" xlink:href="#font_______W7_e0"/>
        <use fill="#000000" height="17.5" transform="matrix(0.4746, 0.0, 0.0, 0.4746, 128.05, 21.0)" width="136.4" xlink:href="#font_______W7_r0"/>
      </g>
    </g>
    <g id="font_______W7_T0">
      <path d="M30.8 -32.15 L30.8 -32.15 0.75 -29.4 1.85 -24.25 13.45 -24.25 11.0 0.05 21.6 -1.1 18.95 -24.25 32.35 -24.25 30.8 -32.15" fill-rule="evenodd" stroke="none"/>
    </g>
    <g id="font_______W7_h0">
      <path d="M28.1 -7.6 L28.1 -7.6 Q28.1 -13.7 25.7 -17.25 22.9 -21.45 17.05 -21.45 13.35 -21.45 10.45 -19.3 L9.3 -31.55 4.65 -32.15 2.05 0.05 12.1 -1.4 11.0 -12.9 Q13.45 -15.95 16.35 -15.95 20.1 -15.95 20.1 -10.2 20.1 -6.55 17.6 -1.55 L27.6 0.05 28.1 -7.6" fill-rule="evenodd" stroke="none"/>
    </g>
    <g id="font_______W7_e0">
      <path d="M19.45 -9.9 L19.45 -9.9 Q16.75 -7.55 13.6 -7.55 10.45 -7.55 9.15 -9.9 L19.45 -9.9 M9.0 -13.4 L9.0 -13.4 Q9.7 -14.95 11.5 -15.95 13.2 -16.8 15.1 -16.8 18.05 -16.8 19.65 -14.35 L9.0 -13.4 M23.25 -9.9 L23.25 -9.9 24.3 -9.9 26.7 -12.6 Q25.85 -16.7 22.9 -19.1 19.9 -21.45 15.15 -21.45 9.65 -21.45 5.9 -18.65 1.8 -15.6 1.8 -10.4 1.8 -5.35 5.8 -2.5 9.3 0.05 14.6 0.05 22.45 0.05 27.15 -4.25 L23.25 -9.9" fill-rule="evenodd" stroke="none"/>
    </g>
    <g id="font_______W7_M0">
      <path d="M35.55 -31.55 L35.55 -31.55 30.8 -32.15 20.2 -14.25 9.85 -31.5 5.1 -32.15 2.55 0.05 12.6 -1.4 10.85 -20.45 18.7 -2.25 22.0 -3.05 29.9 -20.9 28.25 0.05 38.3 -1.4 35.55 -31.55" fill-rule="evenodd" stroke="none"/>
    </g>
    <g id="font_______W7_i0">
      <path d="M11.6 -20.75 L11.6 -20.75 6.75 -21.45 4.45 0.05 14.3 -1.4 11.6 -20.75 M11.9 -31.5 L11.9 -31.5 6.5 -32.15 4.9 -24.95 13.2 -26.1 11.9 -31.5" fill-rule="evenodd" stroke="none"/>
    </g>
    <g id="font_______W7_n0">
      <path d="M27.0 -9.05 L27.0 -9.05 Q27.0 -14.5 24.65 -17.8 21.9 -21.45 16.6 -21.45 12.6 -21.45 9.45 -18.85 L9.2 -20.75 4.35 -21.45 2.05 0.05 11.95 -1.4 10.35 -12.55 Q12.95 -15.85 15.9 -15.85 19.4 -15.85 19.4 -10.6 19.4 -6.9 16.6 -1.3 L26.2 0.0 Q27.0 -6.5 27.0 -9.05" fill-rule="evenodd" stroke="none"/>
    </g>
    <g id="font_______W7_g0">
      <path d="M21.25 -12.75 L21.25 -12.75 21.05 -10.5 18.9 -14.7 Q15.2 -11.7 11.9 -11.7 10.85 -11.7 10.0 -12.55 9.05 -13.45 9.05 -14.45 9.05 -16.75 13.35 -16.75 15.6 -16.75 18.05 -15.7 20.3 -14.7 21.2 -13.55 L21.25 -12.75 M26.3 -10.4 L26.3 -10.4 Q26.3 -15.45 24.2 -21.5 L20.0 -20.3 20.3 -19.15 Q16.35 -21.45 12.1 -21.45 8.15 -21.45 5.4 -19.3 2.35 -16.95 2.35 -13.2 2.35 -9.45 5.85 -7.35 8.8 -5.6 12.75 -5.6 16.55 -5.6 19.75 -6.9 17.8 -3.95 13.25 -3.95 8.55 -3.95 4.75 -6.35 L1.8 2.9 Q6.7 4.75 11.2 4.75 18.25 4.75 22.25 0.65 26.3 -3.4 26.3 -10.4" fill-rule="evenodd" stroke="none"/>
    </g>
    <g id="font_______W7_l0">
      <path d="M11.6 -31.5 L11.6 -31.5 6.9 -32.15 4.35 0.05 14.4 -1.4 11.6 -31.5" fill-rule="evenodd" stroke="none"/>
    </g>
    <g id="font_______W7_r0">
      <path d="M18.3 -20.6 L18.3 -20.6 Q16.55 -21.45 14.75 -21.45 11.5 -21.45 8.7 -18.65 L8.45 -20.75 4.45 -21.45 2.55 0.05 10.65 -1.4 9.3 -12.8 Q10.55 -14.85 12.3 -14.85 13.25 -14.85 14.55 -13.85 L16.55 -12.05 18.3 -20.6" fill-rule="evenodd" stroke="none"/>
    </g>
    <g id="shape3" transform="matrix(1.0, 0.0, 0.0, 1.0, 28.4, 73.05)">
      <path d="M223.25 164.75 Q223.35 165.95 224.0 166.9 L224.9 167.8 225.7 168.2 Q232.25 170.4 233.1 163.75 234.4 168.85 230.05 170.05 223.2 171.9 223.25 164.75 M225.25 163.05 L225.55 162.55 225.65 162.55 225.25 163.05 M-3.4 254.95 L-6.3 256.2 13.25 275.8 214.15 275.8 225.7 256.9 237.9 165.25 236.7 149.55 233.85 111.0 160.5 67.55 171.15 38.85 174.05 30.9 144.2 -63.4 88.55 -70.6 53.95 23.45 62.4 63.1 62.8 64.85 -3.7 103.25 -24.75 178.15 -7.4 255.15 -6.3 256.15 -3.4 254.95 M93.1 -54.55 L103.15 -65.05 103.15 -62.45 93.05 -51.85 93.05 -54.55 93.1 -54.55 M95.45 -52.45 Q97.2 -51.45 99.35 -51.4 106.3 -52.05 106.9 -58.7 107.35 -48.5 97.4 -49.8 L95.5 -50.0 95.45 -52.45 M83.75 -73.05 L149.5 -70.25 180.3 23.45 169.3 61.9 244.25 111.7 245.0 178.1 232.5 259.3 224.4 279.05 3.9 279.05 -13.95 258.7 -28.4 177.9 -9.65 98.6 Q20.2 84.35 49.85 69.4 L54.7 66.55 46.5 20.3 83.75 -73.05 M4.05 116.05 L4.05 113.35 4.1 113.35 14.15 102.85 14.15 105.45 4.05 116.05 M17.95 109.15 Q18.45 119.45 8.4 118.15 L6.5 117.85 6.45 115.4 Q8.2 116.4 10.35 116.5 17.3 115.85 17.95 109.15 M56.35 240.75 Q57.75 248.6 49.85 247.0 45.95 246.45 46.5 241.75 46.65 242.95 47.25 243.9 L48.15 244.8 49.0 245.2 Q55.55 247.45 56.35 240.75 M48.9 239.55 L48.55 240.05 48.85 239.55 48.9 239.55" fill="#47525f" fill-rule="evenodd" stroke="none"/>
      <path d="M236.7 149.55 L-3.4 254.95 -6.3 256.15 -7.4 255.15 -24.75 178.15 -3.7 103.25 62.8 64.85 62.4 63.1 171.15 38.85 160.5 67.55 233.85 111.0 236.7 149.55 M105.45 -63.0 L105.55 -62.2 Q105.4 -52.15 95.45 -52.45 L104.15 -61.65 105.45 -63.0 M2.55 109.25 L2.55 112.2 Q2.25 113.15 4.05 116.05 L6.5 117.85 8.4 118.15 Q18.45 119.45 17.95 109.15 L16.45 104.85 16.55 105.9 Q16.3 115.8 6.45 115.4 L15.15 106.25 14.15 105.45 14.15 102.85 13.4 102.6 Q6.65 100.05 3.2 107.35 2.8 108.2 2.55 109.25 M4.05 113.35 L4.05 113.25 4.1 113.35 4.05 113.35 M3.75 111.7 L3.75 111.6 3.8 111.45 3.75 111.7" fill="#bab9ba" fill-rule="evenodd" stroke="none"/>
      <path d="M225.55 162.55 L225.7 162.45 225.65 162.55 225.55 162.55 M227.15 161.25 Q228.55 160.2 230.5 159.95 L229.4 159.6 Q223.6 159.1 223.25 164.75 223.2 171.9 230.05 170.05 234.4 168.85 233.1 163.75 L232.1 161.35 230.5 160.05 Q228.75 160.15 227.15 161.25 M236.7 149.55 L237.9 165.25 225.7 256.9 214.15 275.8 13.25 275.8 -6.3 256.2 -3.4 254.95 236.7 149.55 M62.4 63.1 L53.95 23.45 88.55 -70.6 144.2 -63.4 174.05 30.9 171.15 38.85 62.4 63.1 M92.8 -56.45 L92.7 -56.2 92.7 -56.25 92.8 -56.45 M93.05 -54.6 L93.1 -54.55 93.05 -54.55 93.05 -54.6 M103.15 -65.05 L102.7 -65.35 102.3 -65.2 Q100.3 -66.55 96.55 -65.15 92.1 -63.35 91.5 -58.65 L91.5 -55.7 Q91.25 -54.75 93.05 -51.85 L95.5 -50.0 97.4 -49.8 Q107.35 -48.5 106.9 -58.7 L105.45 -63.0 104.15 -61.65 103.15 -62.45 103.15 -65.05 M55.35 238.35 L53.6 237.1 53.8 236.95 Q47.45 235.4 46.5 241.75 45.95 246.45 49.85 247.0 57.75 248.6 56.35 240.75 L55.35 238.35 M49.0 239.45 L48.9 239.55 48.85 239.55 49.0 239.45" fill="#9c9c9c" fill-rule="evenodd" stroke="none"/>
      <path d="M225.7 162.45 L225.55 162.55 225.25 163.05 224.0 166.9 Q223.35 165.95 223.25 164.75 223.6 159.1 229.4 159.6 L230.5 159.95 Q228.55 160.2 227.15 161.25 226.4 161.8 225.7 162.45 M102.3 -65.2 L101.7 -65.05 Q95.3 -62.55 92.8 -56.45 L92.7 -56.25 92.6 -55.2 Q91.65 -56.85 91.5 -58.65 92.1 -63.35 96.55 -65.15 100.3 -66.55 102.3 -65.2 M3.75 111.6 L3.6 112.7 Q2.65 111.05 2.55 109.25 2.8 108.2 3.2 107.35 6.65 100.05 13.4 102.6 7.4 104.6 4.5 110.1 L3.8 111.45 3.75 111.6 M46.5 241.75 Q47.45 235.4 53.8 236.95 L53.6 237.1 49.0 239.45 48.85 239.55 48.55 240.05 47.25 243.9 Q46.65 242.95 46.5 241.75" fill="#e9e9eb" fill-rule="evenodd" stroke="none"/>
      <path d="M225.7 162.45 Q226.4 161.8 227.15 161.25 228.75 160.15 230.5 160.05 L232.1 161.35 Q232.1 164.0 230.0 165.9 227.85 167.8 224.9 167.8 L224.0 166.9 225.25 163.05 225.65 162.55 225.7 162.45 M92.8 -56.45 Q95.3 -62.55 101.7 -65.05 L102.3 -65.2 102.7 -65.35 103.15 -65.05 93.1 -54.55 93.05 -54.6 92.65 -55.2 92.7 -56.2 92.8 -56.45 M4.05 113.25 L3.65 112.7 3.75 111.7 3.8 111.45 4.5 110.1 Q7.4 104.6 13.4 102.6 L14.15 102.85 4.1 113.35 4.05 113.25 M53.6 237.1 L55.35 238.35 Q55.35 241.0 53.25 242.9 51.1 244.8 48.15 244.8 L47.25 243.9 48.55 240.05 48.9 239.55 49.0 239.45 53.6 237.1" fill="#d0cfd0" fill-rule="evenodd" stroke="none"/>
      <path d="M233.1 163.75 Q232.25 170.4 225.7 168.2 L224.9 167.8 Q227.85 167.8 230.0 165.9 232.1 164.0 232.1 161.35 L233.1 163.75 M95.45 -52.45 Q105.4 -52.15 105.55 -62.2 L105.45 -63.0 106.9 -58.7 Q106.3 -52.05 99.35 -51.4 97.2 -51.45 95.45 -52.45 M6.45 115.4 Q16.3 115.8 16.55 105.9 L16.45 104.85 17.95 109.15 Q17.3 115.85 10.35 116.5 8.2 116.4 6.45 115.4 M55.35 238.35 L56.35 240.75 Q55.55 247.45 49.0 245.2 L48.15 244.8 Q51.1 244.8 53.25 242.9 55.35 241.0 55.35 238.35" fill="#b0aeb3" fill-rule="evenodd" stroke="none"/>
      <path d="M104.15 -61.65 L95.45 -52.45 95.5 -50.0 93.05 -51.85 103.15 -62.45 104.15 -61.65 M14.15 105.45 L15.15 106.25 6.45 115.4 6.5 117.85 4.05 116.05 14.15 105.45" fill="#57565b" fill-rule="evenodd" stroke="none"/>
      <path d="M92.7 -56.2 L92.65 -55.2 93.05 -54.6 93.05 -54.55 93.05 -51.85 Q91.25 -54.75 91.5 -55.7 L91.5 -58.65 Q91.65 -56.85 92.6 -55.2 L92.7 -56.25 92.7 -56.2 M4.05 116.05 Q2.25 113.15 2.55 112.2 L2.55 109.25 Q2.65 111.05 3.6 112.7 L3.75 111.6 3.75 111.7 3.65 112.7 4.05 113.25 4.05 113.35 4.05 116.05" fill="#79818b" fill-rule="evenodd" stroke="none"/>
    </g>
    <g id="shape4" transform="matrix(1.0, 0.0, 0.0, 1.0, 0.0, 0.0)">
      <path d="M182.75 132.9 L187.35 174.3 182.8 218.6 177.85 240.35 177.45 240.7 179.65 244.5 161.5 261.05 Q152.2 254.25 144.25 245.95 L144.05 245.75 143.9 245.45 144.1 243.4 Q146.5 230.05 141.1 217.2 L139.75 213.4 137.45 205.6 131.35 211.7 137.55 260.65 137.15 261.9 136.05 262.35 52.85 262.35 51.35 260.75 55.3 214.7 44.9 202.9 41.65 234.2 41.5 234.95 40.0 241.95 43.15 246.4 42.95 247.75 26.35 260.4 5.5 241.65 6.65 239.45 2.5 220.05 0.0 176.3 7.3 136.45 7.7 135.45 65.7 98.5 62.0 84.9 61.2 81.7 64.6 68.0 65.75 64.9 55.2 63.55 54.85 62.25 78.65 0.7 79.2 0.0 116.7 0.5 117.15 1.05 136.75 61.2 136.6 62.55 126.55 63.75 130.4 81.9 127.25 95.95 126.4 98.45 182.1 132.2 182.75 132.9 M180.25 137.35 L139.55 203.2 144.1 212.0 145.25 214.3 Q149.95 224.25 149.35 235.25 L155.5 228.85 167.35 228.55 175.35 238.05 179.8 218.3 184.35 174.5 180.25 137.35 M127.3 41.95 L122.5 27.25 114.6 3.0 81.1 2.75 58.4 61.45 68.65 62.35 69.0 62.7 63.65 81.95 68.9 98.65 88.3 106.2 88.8 107.15 94.35 150.9 97.95 107.5 98.55 106.1 123.65 97.15 128.4 81.95 123.4 61.45 Q124.0 60.95 124.5 60.9 L133.3 60.3 127.3 41.95 M91.7 31.05 Q85.95 26.05 79.15 28.1 L77.4 29.15 76.4 28.7 76.25 28.3 Q85.3 21.25 92.55 30.35 L91.7 31.05 M81.55 34.2 L78.8 37.7 Q84.7 37.25 90.25 39.4 87.35 35.75 82.85 34.5 L81.55 34.2 M81.9 39.55 L78.2 39.8 77.85 40.2 77.75 41.1 Q82.95 42.2 88.1 40.9 L85.75 40.2 Q83.85 39.6 81.9 39.55 M82.15 49.0 L81.95 50.1 83.55 51.2 85.6 50.2 Q89.85 48.4 94.3 49.25 L95.3 52.8 99.45 52.6 98.4 49.25 99.4 48.4 Q105.0 48.0 110.05 50.35 L112.0 50.1 110.35 48.85 110.4 48.3 111.05 47.6 117.7 51.35 117.5 52.25 114.55 51.55 Q113.8 54.5 113.4 57.5 112.4 65.15 111.9 72.75 111.25 83.35 107.35 93.35 105.7 97.55 101.95 100.3 95.45 105.05 89.55 99.75 88.4 98.65 88.05 97.35 82.15 75.3 77.55 52.85 L76.05 54.5 74.75 53.95 Q77.05 50.05 81.25 48.35 L82.15 49.0 M99.15 39.55 Q103.65 34.1 110.2 31.9 118.15 29.2 118.95 37.45 L121.3 39.0 120.95 40.0 118.2 39.25 117.65 42.0 Q107.9 46.7 99.15 40.4 L99.15 39.55 M93.65 42.45 L76.85 42.95 73.75 45.15 72.7 44.75 72.65 43.6 75.75 41.25 75.8 40.1 72.8 40.2 72.15 39.8 72.4 38.4 75.5 38.1 Q77.25 34.1 80.75 31.25 90.6 32.45 94.45 41.3 L93.65 42.45 M109.7 38.45 L110.15 37.65 116.0 36.9 Q116.45 33.55 113.3 33.8 107.65 34.75 103.45 38.75 L108.95 38.45 109.1 39.25 108.6 39.9 103.45 40.75 104.95 41.3 Q110.6 42.95 115.95 40.65 L116.15 39.0 112.0 39.25 110.15 39.3 109.7 38.45 M114.95 27.5 Q112.85 25.35 110.0 25.85 L102.5 30.35 101.65 29.35 Q104.55 25.55 109.4 24.2 114.5 22.6 116.95 27.15 L115.85 28.05 114.95 27.5 M102.8 52.7 L105.85 51.8 102.1 51.2 102.8 52.7 M91.85 51.85 Q89.6 51.85 87.35 52.75 L92.3 53.7 Q91.9 52.9 91.85 51.85 M84.3 53.5 L85.2 53.95 79.75 51.55 79.3 51.8 Q82.3 74.05 86.0 82.35 89.65 90.6 95.25 90.1 106.3 92.3 108.85 80.25 111.35 68.15 111.55 52.2 L97.55 55.4 Q92.3 56.3 87.25 54.65 L84.3 53.5 M90.55 96.85 Q93.4 100.75 97.65 98.95 104.5 96.0 106.15 88.7 99.7 93.95 91.9 91.45 89.45 90.7 87.35 87.3 87.9 93.35 90.55 96.85 M48.7 134.45 L48.95 134.05 Q52.95 131.65 57.3 129.95 L35.6 128.35 34.9 127.6 33.75 122.4 10.7 137.05 28.65 175.85 44.05 198.4 44.5 198.4 Q52.0 205.9 58.35 214.35 L54.5 259.35 74.3 259.35 76.55 194.6 88.3 172.55 48.95 135.95 48.5 134.9 48.7 134.45 M64.85 128.0 L65.1 129.2 52.55 135.2 89.75 169.85 92.95 163.45 76.65 125.75 71.5 132.9 70.7 132.9 70.4 132.45 Q67.65 117.4 65.7 102.05 L36.5 120.65 37.25 125.5 63.7 127.4 64.85 128.0 M71.9 127.35 L85.0 108.1 68.7 101.85 71.9 127.35 M9.45 141.35 L3.0 176.3 5.5 219.7 9.05 236.2 16.35 226.25 16.7 225.8 17.2 225.6 25.55 225.9 Q32.05 227.65 38.05 231.4 38.75 235.4 39.85 228.45 41.0 221.2 42.3 201.15 L26.15 177.55 9.45 141.35 M125.25 129.35 L151.8 126.15 151.6 117.2 125.5 101.4 117.55 134.15 Q116.45 134.6 115.65 133.65 L114.0 131.45 112.35 129.15 Q104.6 146.15 96.35 162.95 91.0 173.9 85.15 184.65 95.2 173.85 105.8 163.6 119.2 150.7 133.2 138.35 L124.25 130.5 125.25 129.35 M133.1 134.1 Q137.1 135.75 137.0 138.95 L107.35 165.2 79.55 195.05 77.35 259.35 134.35 259.35 128.25 211.35 136.65 202.15 178.8 134.0 154.65 119.05 154.85 127.45 Q154.9 128.8 153.5 128.95 L129.4 131.9 Q131.15 133.2 133.1 134.1 M100.6 111.7 L97.0 155.55 110.4 126.25 100.6 111.7 M116.1 129.2 L122.6 100.75 101.8 108.1 116.1 129.2 M86.3 111.5 L78.65 122.85 91.5 152.5 86.3 111.5 M147.15 245.2 L161.1 257.6 176.2 243.7 166.05 231.4 156.8 231.7 149.2 239.85 149.3 240.5 154.95 244.95 157.75 243.65 158.3 241.6 159.75 241.65 162.95 247.15 162.75 247.95 161.15 248.45 160.6 248.25 159.4 246.4 154.5 248.15 148.15 243.4 147.15 245.2 M9.0 241.3 L26.0 256.95 39.6 246.45 38.05 244.4 35.25 246.4 23.3 243.25 Q22.35 240.45 23.85 237.3 24.2 236.6 25.15 236.65 L25.9 237.1 25.8 241.2 34.55 243.3 37.05 241.4 38.55 235.3 25.5 227.0 18.4 228.4 9.0 241.3" fill="#1a1a1a" fill-rule="evenodd" stroke="none"/>
      <path d="M180.25 137.35 L184.35 174.5 179.8 218.3 175.35 238.05 167.35 228.55 155.5 228.85 149.35 235.25 Q149.95 224.25 145.25 214.3 L144.1 212.0 139.55 203.2 180.25 137.35 M122.5 27.25 Q116.25 16.05 104.0 11.8 91.25 7.4 81.1 16.75 67.45 29.35 66.45 48.1 66.1 55.1 71.55 58.8 L68.65 62.35 58.4 61.45 81.1 2.75 114.6 3.0 122.5 27.25 M123.4 61.45 L120.75 59.5 Q126.4 57.25 127.3 51.45 128.0 46.65 127.3 41.95 L133.3 60.3 124.5 60.9 Q124.0 60.95 123.4 61.45 M81.55 34.2 L82.85 34.5 Q87.35 35.75 90.25 39.4 84.7 37.25 78.8 37.7 L81.55 34.2 M108.95 38.45 L103.45 38.75 Q107.65 34.75 113.3 33.8 116.45 33.55 116.0 36.9 L110.15 37.65 109.7 38.45 108.95 38.45 M91.85 51.85 Q91.9 52.9 92.3 53.7 L87.35 52.75 Q89.6 51.85 91.85 51.85 M102.8 52.7 L102.1 51.2 105.85 51.8 102.8 52.7 M64.85 128.0 L63.7 127.4 37.25 125.5 36.5 120.65 65.7 102.05 Q67.65 117.4 70.4 132.45 L70.7 132.9 71.5 132.9 76.65 125.75 92.95 163.45 89.75 169.85 52.55 135.2 65.1 129.2 64.85 128.0 M48.7 134.45 L48.5 134.9 48.95 135.95 88.3 172.55 76.55 194.6 74.3 259.35 54.5 259.35 58.35 214.35 Q52.0 205.9 44.5 198.4 L44.05 198.4 28.65 175.85 10.7 137.05 33.75 122.4 34.9 127.6 35.6 128.35 57.3 129.95 Q52.95 131.65 48.95 134.05 L48.7 134.45 M90.55 96.85 Q87.9 93.35 87.35 87.3 89.45 90.7 91.9 91.45 99.7 93.95 106.15 88.7 104.5 96.0 97.65 98.95 93.4 100.75 90.55 96.85 M133.1 134.1 Q131.15 133.2 129.4 131.9 L153.5 128.95 Q154.9 128.8 154.85 127.45 L154.65 119.05 178.8 134.0 136.65 202.15 128.25 211.35 134.35 259.35 77.35 259.35 79.55 195.05 107.35 165.2 137.0 138.95 Q137.1 135.75 133.1 134.1 M125.25 129.35 L124.25 130.5 133.2 138.35 Q119.2 150.7 105.8 163.6 95.2 173.85 85.15 184.65 91.0 173.9 96.35 162.95 104.6 146.15 112.35 129.15 L114.0 131.45 115.65 133.65 Q116.45 134.6 117.55 134.15 L125.5 101.4 151.6 117.2 151.8 126.15 125.25 129.35 M9.45 141.35 L26.15 177.55 42.3 201.15 Q41.0 221.2 39.85 228.45 38.75 235.4 38.05 231.4 32.05 227.65 25.55 225.9 L17.2 225.6 16.7 225.8 16.35 226.25 9.05 236.2 5.5 219.7 3.0 176.3 9.45 141.35" fill="#8d254e" fill-rule="evenodd" stroke="none"/>
      <path d="M9.0 241.3 L18.4 228.4 25.5 227.0 38.55 235.3 37.05 241.4 34.55 243.3 25.8 241.2 25.9 237.1 25.15 236.65 Q24.2 236.6 23.85 237.3 22.35 240.45 23.3 243.25 L35.25 246.4 38.05 244.4 39.6 246.45 26.0 256.95 9.0 241.3 M147.15 245.2 L148.15 243.4 154.5 248.15 159.4 246.4 160.6 248.25 161.15 248.45 162.75 247.95 162.95 247.15 159.75 241.65 158.3 241.6 157.75 243.65 154.95 244.95 149.3 240.5 149.2 239.85 156.8 231.7 166.05 231.4 176.2 243.7 161.1 257.6 147.15 245.2" fill="#e3aed5" fill-rule="evenodd" stroke="none"/>
      <path d="M85.75 40.2 L88.1 40.9 Q82.95 42.2 77.75 41.1 L77.85 40.2 78.2 39.8 81.9 39.55 Q83.0 42.15 85.75 40.2 M112.0 39.25 L116.15 39.0 115.95 40.65 Q110.6 42.95 104.95 41.3 L103.45 40.75 108.6 39.9 Q109.1 40.35 110.05 40.4 111.5 40.3 112.0 39.25 M84.3 53.5 L87.25 54.65 Q92.3 56.3 97.55 55.4 L111.55 52.2 Q111.35 68.15 108.85 80.25 106.3 92.3 95.25 90.1 89.65 90.6 86.0 82.35 82.3 74.05 79.3 51.8 L79.75 51.55 85.2 53.95 84.3 53.5" fill="#ffffff" fill-rule="evenodd" stroke="none"/>
      <path d="M81.9 39.55 Q83.85 39.6 85.75 40.2 83.0 42.15 81.9 39.55 M108.95 38.45 L109.7 38.45 110.15 39.3 112.0 39.25 Q111.5 40.3 110.05 40.4 109.1 40.35 108.6 39.9 L109.1 39.25 108.95 38.45" fill="#000000" fill-rule="evenodd" stroke="none"/>
      <path d="M71.9 127.35 L68.7 101.85 85.0 108.1 71.9 127.35 M86.3 111.5 L91.5 152.5 78.65 122.85 86.3 111.5 M116.1 129.2 L101.8 108.1 122.6 100.75 116.1 129.2 M100.6 111.7 L110.4 126.25 97.0 155.55 100.6 111.7" fill="#ffe1e9" fill-rule="evenodd" stroke="none"/>
      <path d="M122.5 27.25 L127.3 41.95 Q128.0 46.65 127.3 51.45 126.4 57.25 120.75 59.5 L123.4 61.45 128.4 81.95 123.65 97.15 98.55 106.1 97.95 107.5 94.35 150.9 88.8 107.15 88.3 106.2 68.9 98.65 63.65 81.95 69.0 62.7 68.65 62.35 71.55 58.8 Q66.1 55.1 66.45 48.1 67.45 29.35 81.1 16.75 91.25 7.4 104.0 11.8 116.25 16.05 122.5 27.25 M91.7 31.05 L92.55 30.35 Q85.3 21.25 76.25 28.3 L76.4 28.7 77.4 29.15 79.15 28.1 Q85.95 26.05 91.7 31.05 M93.65 42.45 L94.45 41.3 Q90.6 32.45 80.75 31.25 77.25 34.1 75.5 38.1 L72.4 38.4 72.15 39.8 72.8 40.2 75.8 40.1 75.75 41.25 72.65 43.6 72.7 44.75 73.75 45.15 76.85 42.95 93.65 42.45 M99.15 39.55 L99.15 40.4 Q107.9 46.7 117.65 42.0 L118.2 39.25 120.95 40.0 121.3 39.0 118.95 37.45 Q118.15 29.2 110.2 31.9 103.65 34.1 99.15 39.55 M82.15 49.0 L81.25 48.35 Q77.05 50.05 74.75 53.95 L76.05 54.5 77.55 52.85 Q82.15 75.3 88.05 97.35 88.4 98.65 89.55 99.75 95.45 105.05 101.95 100.3 105.7 97.55 107.35 93.35 111.25 83.35 111.9 72.75 112.4 65.15 113.4 57.5 113.8 54.5 114.55 51.55 L117.5 52.25 117.7 51.35 111.05 47.6 110.4 48.3 110.35 48.85 112.0 50.1 110.05 50.35 Q105.0 48.0 99.4 48.4 L98.4 49.25 99.45 52.6 95.3 52.8 94.3 49.25 Q89.85 48.4 85.6 50.2 L83.55 51.2 81.95 50.1 82.15 49.0 M114.95 27.5 L115.85 28.05 116.95 27.15 Q114.5 22.6 109.4 24.2 104.55 25.55 101.65 29.35 L102.5 30.35 110.0 25.85 Q112.85 25.35 114.95 27.5" fill="#ebc5e2" fill-rule="evenodd" stroke="none"/>
    </g>
    <g id="shape5" transform="matrix(1.0, 0.0, 0.0, 1.0, -0.1, 0.0)">
      <path d="M44.15 4.15 Q48.25 3.4 52.05 4.8 L52.4 5.0 52.3 11.35 52.25 12.55 Q56.95 19.4 57.2 28.65 56.95 39.1 50.85 46.55 L50.85 48.45 50.25 54.2 Q46.95 55.8 43.1 54.6 L42.4 54.05 42.25 53.8 Q36.25 57.05 28.6 57.25 20.95 57.05 14.95 53.75 L14.75 54.3 14.4 54.75 8.05 54.95 Q6.45 53.25 6.75 50.75 L6.9 47.7 6.85 47.2 Q3.0 42.7 1.3 37.15 -0.8 29.9 0.85 22.5 2.4 15.75 6.8 10.6 15.0 0.95 27.95 0.05 L28.3 0.05 28.6 0.05 Q37.0 0.25 43.5 4.2 L44.15 4.15 M50.75 10.0 L51.2 5.6 42.35 5.6 Q42.7 27.1 43.4 48.6 43.45 50.9 43.95 52.95 L47.55 53.2 49.45 52.9 Q49.55 33.1 50.45 13.35 L50.75 10.0 M40.95 5.25 Q41.05 4.75 41.2 4.9 L41.4 4.8 Q35.75 1.65 28.6 1.45 17.05 1.75 9.4 9.45 1.7 17.1 1.4 28.65 1.65 37.85 6.6 44.65 L6.5 43.3 6.35 41.05 6.05 39.7 Q1.4 28.1 7.05 17.05 11.65 8.15 21.3 5.15 31.5 2.15 40.85 7.15 L40.95 5.25 M45.1 11.4 L45.35 12.2 47.45 10.1 46.65 9.85 Q45.25 10.0 45.1 11.4 M40.8 9.45 L40.8 8.75 Q35.55 5.45 28.65 5.3 18.7 5.6 12.0 12.3 5.3 19.0 5.05 28.9 5.2 33.9 6.95 38.05 L7.95 37.8 14.45 37.8 15.3 38.55 15.05 47.8 17.35 48.85 17.4 46.3 17.4 42.55 16.8 27.7 17.8 27.05 Q22.25 25.8 26.4 27.25 L26.7 27.55 26.7 51.5 26.7 51.95 29.25 52.05 29.25 51.35 29.25 47.1 29.3 44.85 28.85 16.2 30.2 15.55 38.9 15.85 38.7 49.4 38.7 49.8 41.85 47.95 41.85 47.1 41.95 42.75 41.95 38.3 41.0 14.95 40.85 11.15 40.8 9.45 M44.55 12.65 Q44.5 11.25 45.1 10.1 45.7 8.9 46.6 8.8 47.5 8.7 48.2 9.75 48.9 10.75 48.95 12.35 48.4 13.7 46.65 13.9 45.1 13.75 44.55 12.65 M48.3 45.2 L48.65 46.05 Q49.15 47.55 48.1 48.55 L46.3 49.2 Q44.8 49.15 44.1 47.55 43.75 46.05 44.6 45.2 L45.65 44.45 Q47.35 44.0 48.3 45.2 M46.3 12.95 L46.65 13.0 Q48.75 12.6 48.05 10.7 L46.3 12.95 M50.85 42.75 L50.85 44.4 Q55.35 38.0 55.55 29.2 55.4 21.65 52.1 15.6 L52.05 16.5 Q51.5 20.6 52.6 24.4 53.15 26.45 53.2 28.65 53.35 33.65 51.5 38.1 50.6 40.15 50.85 42.75 M51.15 34.95 Q51.9 31.85 51.85 28.65 L51.65 24.65 51.15 34.95 M44.9 46.45 L44.9 47.25 Q45.45 48.6 46.85 48.1 L47.6 47.8 44.9 46.45 M47.9 46.25 Q47.35 44.95 45.9 45.3 45.55 45.45 45.3 45.7 L47.95 47.0 47.9 46.25 M38.0 18.15 L38.1 16.8 29.9 16.9 31.25 53.15 37.5 53.45 37.55 53.2 Q36.9 35.65 38.0 18.15 M35.4 21.6 L35.0 20.95 32.75 21.0 32.45 21.65 35.4 21.6 M32.05 23.7 Q30.8 22.05 32.1 20.4 L32.25 20.3 Q33.9 18.95 35.6 20.25 L35.8 20.5 Q37.0 22.1 35.7 23.75 L35.55 23.9 Q33.9 25.2 32.2 23.85 L32.05 23.7 M35.4 48.0 Q37.9 50.5 35.05 52.15 L32.75 52.05 Q31.1 50.6 32.2 48.6 33.2 47.3 35.0 47.8 L35.4 48.0 M32.4 22.2 L32.8 22.85 35.05 22.8 35.35 22.15 32.4 22.2 M20.1 34.85 Q19.2 34.05 19.3 32.95 19.55 30.6 21.75 30.6 23.45 30.5 23.95 32.0 24.55 33.8 23.2 34.9 L20.1 34.85 M23.55 48.15 Q24.4 48.75 24.5 49.6 24.85 52.4 22.1 52.65 21.25 52.3 20.65 51.7 18.85 49.95 20.8 48.1 L23.55 48.15 M9.4 44.7 L9.2 45.45 Q9.35 46.9 10.75 47.05 L11.55 46.85 9.4 44.7 M9.05 47.25 L8.8 46.95 Q7.8 45.3 9.05 43.7 10.1 42.75 11.45 43.15 L12.0 43.35 Q13.1 43.95 13.25 45.45 13.05 47.15 11.75 47.7 10.7 48.45 9.05 47.25 M12.35 45.45 Q12.2 44.05 10.75 43.9 L10.0 44.1 12.15 46.25 12.35 45.45 M14.2 38.7 L7.45 38.8 8.6 53.65 Q9.45 54.1 10.5 54.05 L14.1 53.7 14.2 38.7 M21.65 31.4 L20.9 31.6 23.05 33.75 23.25 32.95 Q23.1 31.55 21.65 31.4 M22.45 34.35 L20.3 32.2 20.1 32.95 Q20.35 34.35 21.65 34.55 L22.45 34.35 M22.15 48.6 Q21.45 48.65 21.1 49.0 20.65 49.4 20.55 50.15 L20.75 50.9 22.85 48.8 22.15 48.6 M35.3 49.15 L33.1 49.1 32.65 49.55 32.6 50.35 35.3 49.15 M25.55 28.05 L17.9 28.15 19.3 53.15 24.75 53.25 25.55 28.05 M41.95 51.4 L41.85 49.6 38.7 51.3 38.55 53.05 38.35 54.05 42.0 52.4 41.95 51.4 M25.95 54.9 L23.3 55.25 Q28.6 56.35 33.95 55.25 L30.85 54.9 Q29.8 54.75 29.55 53.85 L29.45 53.4 26.6 53.3 25.95 54.9 M33.2 51.4 L34.55 51.7 35.7 49.95 33.2 51.4 M21.35 51.55 L22.1 51.75 Q23.9 51.55 23.6 49.7 L21.35 51.55 M15.15 51.45 L15.15 52.25 17.45 53.45 17.3 52.6 Q17.2 51.75 17.25 50.65 L15.1 49.4 15.15 51.45" fill="#5d0035" fill-rule="evenodd" stroke="none"/>
      <path d="M50.75 10.0 L50.45 13.35 Q49.55 33.1 49.45 52.9 L47.55 53.2 43.95 52.95 Q43.45 50.9 43.4 48.6 42.7 27.1 42.35 5.6 L51.2 5.6 50.75 10.0 M48.95 12.35 Q48.9 10.75 48.2 9.75 47.5 8.7 46.6 8.8 45.7 8.9 45.1 10.1 44.5 11.25 44.55 12.65 L44.6 45.2 Q43.75 46.05 44.1 47.55 44.8 49.15 46.3 49.2 46.8 49.75 47.7 49.65 L48.1 48.55 Q49.15 47.55 48.65 46.05 L48.3 45.2 48.05 41.5 Q47.2 35.85 47.35 30.15 47.65 21.15 48.95 12.35 M38.0 18.15 Q36.9 35.65 37.55 53.2 L37.5 53.45 31.25 53.15 29.9 16.9 38.1 16.8 38.0 18.15 M35.55 23.9 L35.7 23.75 Q37.0 22.1 35.8 20.5 L35.6 20.25 Q33.9 18.95 32.25 20.3 L32.1 20.4 Q30.8 22.05 32.05 23.7 32.7 32.75 31.85 41.85 31.65 43.75 31.7 45.7 31.7 47.3 32.2 48.6 31.1 50.6 32.75 52.05 L35.05 52.15 Q37.9 50.5 35.4 48.0 34.65 36.55 35.35 25.1 L35.55 23.9 M23.2 34.9 Q24.55 33.8 23.95 32.0 23.45 30.5 21.75 30.6 19.55 30.6 19.3 32.95 19.2 34.05 20.1 34.85 L20.8 48.1 Q18.85 49.95 20.65 51.7 21.25 52.3 22.1 52.65 24.85 52.4 24.5 49.6 24.4 48.75 23.55 48.15 L23.2 34.9 M9.05 43.7 Q7.8 45.3 8.8 46.95 L9.05 47.25 Q8.85 50.0 10.4 52.15 10.75 52.65 11.4 52.4 L11.75 47.7 Q13.05 47.15 13.25 45.45 13.1 43.95 12.0 43.35 12.3 41.75 11.6 40.3 L11.4 40.05 10.2 39.95 Q8.8 41.5 9.05 43.7 M14.2 38.7 L14.1 53.7 10.5 54.05 Q9.45 54.1 8.6 53.65 L7.45 38.8 14.2 38.7 M25.55 28.05 L24.75 53.25 19.3 53.15 17.9 28.15 25.55 28.05" fill="#e3c1d7" fill-rule="evenodd" stroke="none"/>
      <path d="M6.5 43.3 L6.6 44.65 Q1.65 37.85 1.4 28.65 1.7 17.1 9.4 9.45 17.05 1.75 28.6 1.45 35.75 1.65 41.4 4.8 L41.2 4.9 Q41.05 4.75 40.95 5.25 35.45 2.3 28.5 2.1 17.25 2.4 9.8 9.9 2.3 17.35 2.0 28.6 2.2 37.0 6.5 43.3 M40.85 11.15 L41.0 14.95 Q38.6 13.0 35.2 12.55 30.25 11.95 25.95 12.6 16.7 14.25 11.6 22.15 8.2 28.0 10.7 34.3 L12.05 37.4 9.6 37.55 Q7.6 32.95 7.75 27.7 7.85 22.9 10.4 19.05 15.75 11.05 25.25 9.1 33.55 7.45 40.85 11.15 M41.95 38.3 L41.95 42.75 39.4 43.95 Q39.25 42.35 39.25 40.75 L41.95 38.3 M29.3 44.85 L29.25 47.1 27.4 47.55 27.4 45.1 29.3 44.85 M17.4 42.55 L17.4 46.3 16.15 45.55 15.9 41.9 17.4 42.55 M52.05 16.5 L52.1 15.6 Q55.4 21.65 55.55 29.2 55.35 38.0 50.85 44.4 L50.85 42.75 Q54.75 36.6 54.95 28.6 54.75 21.85 52.05 16.5 M41.95 51.4 L42.0 52.4 38.35 54.05 38.55 53.05 41.95 51.4 M30.85 54.9 L33.95 55.25 Q28.6 56.35 23.3 55.25 L25.95 54.9 30.85 54.9 M17.3 52.6 L17.45 53.45 15.15 52.25 15.15 51.45 17.3 52.6" fill="#d2c0c0" fill-rule="evenodd" stroke="none"/>
      <path d="M44.15 4.15 L43.5 4.2 Q37.0 0.25 28.6 0.05 L29.2 0.0 Q37.65 0.2 44.15 4.15 M1.3 37.15 Q3.0 42.7 6.85 47.2 L6.9 47.7 Q2.95 43.0 1.3 37.15" fill="#8d3f6d" fill-rule="evenodd" stroke="none"/>
      <path d="M40.8 9.45 L40.85 11.15 Q33.55 7.45 25.25 9.1 15.75 11.05 10.4 19.05 7.85 22.9 7.75 27.7 7.6 32.95 9.6 37.55 L12.05 37.4 14.45 37.8 7.95 37.8 Q3.5 25.3 11.45 14.7 17.0 7.25 26.3 6.1 34.15 5.3 40.8 9.45 M41.95 42.75 L41.85 47.1 39.25 48.7 38.7 49.4 38.9 15.85 30.2 15.55 Q33.5 13.75 37.2 14.75 40.15 15.65 39.9 19.05 39.05 29.85 39.25 40.75 39.25 42.35 39.4 43.95 L41.95 42.75 M29.25 47.1 L29.25 51.35 26.7 51.5 26.7 27.55 26.4 27.25 Q22.25 25.8 17.8 27.05 19.55 26.25 21.6 26.15 L24.6 26.45 Q27.6 26.9 27.45 30.1 27.1 37.6 27.4 45.1 L27.4 47.55 29.25 47.1 M17.4 46.3 L17.35 48.85 15.05 47.8 15.3 38.55 15.9 41.9 16.15 45.55 17.4 46.3" fill="#bda3a3" fill-rule="evenodd" stroke="none"/>
      <path d="M7.95 37.8 L6.95 38.05 Q5.2 33.9 5.05 28.9 5.3 19.0 12.0 12.3 18.7 5.6 28.65 5.3 35.55 5.45 40.8 8.75 L40.8 9.45 Q34.15 5.3 26.3 6.1 17.0 7.25 11.45 14.7 3.5 25.3 7.95 37.8 M41.85 47.1 L41.85 47.95 38.7 49.8 38.7 49.4 39.25 48.7 41.85 47.1 M29.25 51.35 L29.25 52.05 26.7 51.95 26.7 51.5 29.25 51.35 M51.15 34.95 L51.65 24.65 51.85 28.65 Q51.9 31.85 51.15 34.95" fill="#aa8888" fill-rule="evenodd" stroke="none"/>
      <path d="M45.1 11.4 Q45.25 10.0 46.65 9.85 L47.45 10.1 45.35 12.2 45.1 11.4 M46.3 12.95 L48.05 10.7 Q48.75 12.6 46.65 13.0 L46.3 12.95 M44.9 46.45 L47.6 47.8 46.85 48.1 Q45.45 48.6 44.9 47.25 L44.9 46.45 M47.9 46.25 L47.95 47.0 45.3 45.7 Q45.55 45.45 45.9 45.3 47.35 44.95 47.9 46.25 M35.4 21.6 L32.45 21.65 32.75 21.0 35.0 20.95 35.4 21.6 M32.4 22.2 L35.35 22.15 35.05 22.8 32.8 22.85 32.4 22.2 M9.4 44.7 L11.55 46.85 10.75 47.05 Q9.35 46.9 9.2 45.45 L9.4 44.7 M12.35 45.45 L12.15 46.25 10.0 44.1 10.75 43.9 Q12.2 44.05 12.35 45.45 M22.45 34.35 L21.65 34.55 Q20.35 34.35 20.1 32.95 L20.3 32.2 22.45 34.35 M21.65 31.4 Q23.1 31.55 23.25 32.95 L23.05 33.75 20.9 31.6 21.65 31.4 M22.15 48.6 L22.85 48.8 20.75 50.9 20.55 50.15 Q20.65 49.4 21.1 49.0 21.45 48.65 22.15 48.6 M35.3 49.15 L32.6 50.35 32.65 49.55 33.1 49.1 35.3 49.15 M33.2 51.4 L35.7 49.95 34.55 51.7 33.2 51.4 M21.35 51.55 L23.6 49.7 Q23.9 51.55 22.1 51.75 L21.35 51.55" fill="#a68884" fill-rule="evenodd" stroke="none"/>
      <path d="M48.95 12.35 Q47.65 21.15 47.35 30.15 47.2 35.85 48.05 41.5 L48.3 45.2 Q47.35 44.0 45.65 44.45 L44.6 45.2 44.55 12.65 Q45.1 13.75 46.65 13.9 48.4 13.7 48.95 12.35 M48.1 48.55 L47.7 49.65 Q46.8 49.75 46.3 49.2 L48.1 48.55 M35.55 23.9 L35.35 25.1 Q34.65 36.55 35.4 48.0 L35.0 47.8 Q33.2 47.3 32.2 48.6 31.7 47.3 31.7 45.7 31.65 43.75 31.85 41.85 32.7 32.75 32.05 23.7 L32.2 23.85 Q33.9 25.2 35.55 23.9 M20.1 34.85 L23.2 34.9 23.55 48.15 20.8 48.1 20.1 34.85 M9.05 43.7 Q8.8 41.5 10.2 39.95 L11.4 40.05 11.6 40.3 Q12.3 41.75 12.0 43.35 L11.45 43.15 Q10.1 42.75 9.05 43.7 M11.75 47.7 L11.4 52.4 Q10.75 52.65 10.4 52.15 8.85 50.0 9.05 47.25 10.7 48.45 11.75 47.7" fill="#c7abb9" fill-rule="evenodd" stroke="none"/>
      <path d="M40.95 5.25 L40.85 7.15 Q31.5 2.15 21.3 5.15 11.65 8.15 7.05 17.05 1.4 28.1 6.05 39.7 L6.35 41.05 6.5 43.3 Q2.2 37.0 2.0 28.6 2.3 17.35 9.8 9.9 17.25 2.4 28.5 2.1 35.45 2.3 40.95 5.25 M41.0 14.95 L41.95 38.3 39.25 40.75 Q39.05 29.85 39.9 19.05 40.15 15.65 37.2 14.75 33.5 13.75 30.2 15.55 L28.85 16.2 29.3 44.85 27.4 45.1 Q27.1 37.6 27.45 30.1 27.6 26.9 24.6 26.45 L21.6 26.15 Q19.55 26.25 17.8 27.05 L16.8 27.7 17.4 42.55 15.9 41.9 15.3 38.55 14.45 37.8 12.05 37.4 10.7 34.3 Q8.2 28.0 11.6 22.15 16.7 14.25 25.95 12.6 30.25 11.95 35.2 12.55 38.6 13.0 41.0 14.95 M50.85 42.75 Q50.6 40.15 51.5 38.1 53.35 33.65 53.2 28.65 53.15 26.45 52.6 24.4 51.5 20.6 52.05 16.5 54.75 21.85 54.95 28.6 54.75 36.6 50.85 42.75 M38.55 53.05 L38.7 51.3 41.85 49.6 41.95 51.4 38.55 53.05 M25.95 54.9 L26.6 53.3 29.45 53.4 29.55 53.85 Q29.8 54.75 30.85 54.9 L25.95 54.9 M15.15 51.45 L15.1 49.4 17.25 50.65 Q17.2 51.75 17.3 52.6 L15.15 51.45" fill="#e3d7d7" fill-rule="evenodd" stroke="none"/>
    </g>
  </defs>
</svg>
