<?xml version="1.0" encoding="UTF-8" standalone="no"?>
<svg xmlns:xlink="http://www.w3.org/1999/xlink" height="468.95px" width="310.1px" xmlns="http://www.w3.org/2000/svg">
  <g transform="matrix(1.0, 0.0, 0.0, 1.0, 153.05, 468.95)">
    <use height="36.0" transform="matrix(1.0, 0.0, 0.0, 1.0, -79.15, -36.0)" width="159.0" xlink:href="#shape0"/>
    <use height="96.65" transform="matrix(1.0, 0.0, 0.0, 1.0, -26.75, -108.0)" width="54.2" xlink:href="#shape1"/>
    <use height="37.0" transform="matrix(1.0, 0.0, 0.0, 1.0, -92.25, -94.35)" width="185.25" xlink:href="#shape2"/>
    <use height="17.55" transform="matrix(1.0, 0.0, 0.0, 1.0, -69.1, -81.7)" width="144.3" xlink:href="#text0"/>
    <use height="371.2" transform="matrix(1.0, 0.0, 0.0, 1.0, -150.45, -468.95)" width="304.85" xlink:href="#shape3"/>
    <use height="263.05" transform="matrix(1.2517, 0.0, 0.0, 1.3155, -134.55, -447.5)" width="214.35" xlink:href="#shape4"/>
    <use height="57.25" transform="matrix(1.0, 0.0, 0.0, 1.0, -27.05, -215.9)" width="57.1" xlink:href="#shape5"/>
  </g>
  <defs>
    <g id="shape0" transform="matrix(1.0, 0.0, 0.0, 1.0, 0.0, 0.0)">
      <path d="M135.7 30.75 Q113.3 35.8 79.5 36.0 45.7 35.8 23.3 30.75 0.85 25.65 0.0 18.0 0.85 10.35 23.3 5.25 45.7 0.2 79.5 0.0 113.3 0.2 135.7 5.25 158.15 10.35 159.0 18.0 158.15 25.65 135.7 30.75" fill="#000000" fill-opacity="0.39607844" fill-rule="evenodd" stroke="none"/>
    </g>
    <g id="shape1" transform="matrix(1.0, 0.0, 0.0, 1.0, 0.0, 0.0)">
      <path d="M5.85 93.35 Q-0.15 90.4 0.0 90.0 L0.0 0.0 54.2 0.0 54.2 90.0 Q54.15 90.4 46.95 93.35 39.7 96.25 25.65 96.65 11.8 96.25 5.85 93.35" fill="url(#gradient0)" fill-rule="evenodd" stroke="none"/>
    </g>
    <linearGradient gradientTransform="matrix(0.0303, 0.0, 0.0, 0.0303, 25.7, 48.35)" gradientUnits="userSpaceOnUse" id="gradient0" spreadMethod="pad" x1="-819.2" x2="819.2">
      <stop offset="0.0" stop-color="#565656"/>
      <stop offset="0.403921568627451" stop-color="#9a9999"/>
      <stop offset="0.592156862745098" stop-color="#dbdbda"/>
      <stop offset="0.7803921568627451" stop-color="#9b9a9a"/>
      <stop offset="1.0" stop-color="#151213"/>
    </linearGradient>
    <g id="shape2" transform="matrix(1.0, 0.0, 0.0, 1.0, -0.05, 0.0)">
      <path d="M185.25 8.2 L185.3 8.25 185.25 8.25 185.25 8.2 M1.9 5.2 L2.3 2.85 18.75 2.05 59.05 0.7 Q83.4 0.05 109.4 0.3 115.1 0.55 118.85 1.6 122.65 2.7 128.15 3.0 L129.3 1.5 Q130.05 0.2 130.5 0.0 160.7 0.5 181.5 3.85 L183.45 6.1 103.3 3.5 Q60.0 3.6 6.5 5.1 L1.9 5.2 M176.25 8.0 L176.45 8.4 177.65 11.45 178.5 13.65 Q179.3 12.8 179.7 10.9 179.7 9.8 179.25 9.1 L179.9 9.55 Q180.65 10.3 180.7 11.75 179.85 15.7 177.15 15.05 175.8 14.75 175.1 13.85 L176.15 14.2 177.35 14.25 176.45 12.35 174.9 8.8 174.8 8.5 174.95 8.35 Q175.75 7.8 176.25 8.0 M178.25 27.3 L179.85 27.15 Q180.5 27.3 181.25 27.95 183.6 31.2 181.35 32.8 180.2 33.6 179.1 33.5 L180.8 32.15 178.8 31.55 175.1 30.4 175.2 29.1 175.2 29.0 175.25 28.7 175.4 28.75 175.85 28.9 178.95 30.05 181.1 30.85 Q181.0 29.65 179.9 28.15 179.05 27.45 178.25 27.3 M9.35 6.95 L10.7 10.45 11.7 12.9 Q12.6 11.95 13.05 9.85 13.05 8.55 12.5 7.75 13.85 8.35 14.15 10.05 L13.75 12.35 Q12.6 15.1 10.15 14.55 8.75 14.25 8.0 13.4 L7.85 13.2 9.0 13.6 10.35 13.65 9.35 11.4 7.6 7.45 8.75 6.6 9.2 6.55 9.35 6.95 M9.4 25.3 Q11.0 24.35 12.9 25.8 15.0 28.35 14.35 30.1 L13.4 31.3 Q12.2 32.25 10.95 32.25 L12.75 30.6 10.4 30.05 6.2 29.05 6.15 27.55 6.15 27.1 6.35 27.15 6.9 27.35 10.45 28.4 12.95 29.1 Q12.75 27.8 11.35 26.15 10.35 25.35 9.4 25.3" fill="#47525f" fill-rule="evenodd" stroke="none"/>
      <path d="M0.05 36.7 L0.75 22.9 Q1.05 14.95 1.6 7.0 L1.9 5.2 6.5 5.1 3.2 8.3 1.95 36.45 0.05 36.7" fill="#cdcdcd" fill-rule="evenodd" stroke="none"/>
      <path d="M13.75 12.35 L14.15 10.05 26.45 10.0 13.75 12.35 M8.0 13.4 L7.0 13.55 7.2 26.2 6.35 27.15 6.15 27.1 6.15 27.55 Q5.15 29.5 6.75 31.55 8.95 33.2 10.95 32.25 12.2 32.25 13.4 31.3 L14.35 30.1 16.45 30.2 36.65 31.3 56.5 32.6 Q50.4 32.9 38.0 32.9 L15.1 32.75 3.85 32.6 5.25 10.05 6.0 10.05 Q6.15 12.3 7.85 13.2 L8.0 13.4" fill="#848484" fill-rule="evenodd" stroke="none"/>
      <path d="M175.1 13.85 Q175.8 14.75 177.15 15.05 179.85 15.7 180.7 11.75 180.65 10.3 179.9 9.55 L180.85 9.65 179.85 27.15 178.25 27.3 177.7 27.3 177.8 15.2 160.95 13.3 Q144.35 11.4 115.0 6.95 144.55 7.2 162.45 8.35 L174.1 9.15 Q173.65 9.7 173.4 10.6 173.45 12.95 175.1 13.85 M175.3 32.3 L137.05 30.55 175.2 29.0 175.2 29.1 Q174.3 30.55 175.3 32.3" fill="#a09fa0" fill-rule="evenodd" stroke="none"/>
      <path d="M176.45 8.4 L176.25 8.0 176.9 7.95 Q178.55 8.05 179.25 9.1 179.7 9.8 179.7 10.9 179.3 12.8 178.5 13.65 L177.65 11.45 178.05 10.25 Q178.0 8.55 176.45 8.4 M174.8 8.5 L174.9 8.8 Q174.35 9.2 174.15 10.05 174.2 11.9 175.85 12.3 L176.45 12.35 177.35 14.25 176.15 14.2 175.1 13.85 Q173.45 12.95 173.4 10.6 173.65 9.7 174.1 9.15 L174.8 8.5 M177.7 27.3 L178.25 27.3 Q179.05 27.45 179.9 28.15 181.0 29.65 181.1 30.85 L178.95 30.05 178.3 28.9 Q177.0 27.8 175.85 28.9 L175.4 28.75 175.8 28.3 Q176.7 27.35 177.7 27.3 M179.1 33.5 Q177.3 34.2 175.5 32.65 L175.3 32.3 Q174.3 30.55 175.2 29.1 L175.1 30.4 Q175.25 32.1 176.95 32.35 178.0 32.25 178.8 31.55 L180.8 32.15 179.1 33.5 M10.7 10.45 L11.2 9.05 Q11.15 7.15 9.35 6.95 L9.2 6.55 9.9 6.5 Q11.75 6.6 12.5 7.75 13.05 8.55 13.05 9.85 12.6 11.95 11.7 12.9 L10.7 10.45 M7.2 26.2 Q8.2 25.2 9.4 25.3 10.35 25.35 11.35 26.15 12.75 27.8 12.95 29.1 L10.45 28.4 Q9.75 26.65 8.05 26.6 L6.9 27.35 6.35 27.15 7.2 26.2 M6.0 10.05 L5.95 9.55 Q6.6 7.0 8.75 6.6 L7.6 7.45 Q7.0 7.9 6.75 8.85 6.8 10.95 8.7 11.35 L9.35 11.4 10.35 13.65 9.0 13.6 7.85 13.2 Q6.15 12.3 6.0 10.05 M6.15 27.55 L6.2 29.05 Q6.45 30.9 8.2 31.1 9.7 31.2 10.4 30.05 L12.75 30.6 10.95 32.25 Q8.95 33.2 6.75 31.55 5.15 29.5 6.15 27.55" fill="#9c9c9c" fill-rule="evenodd" stroke="none"/>
      <path d="M174.9 8.8 L176.45 12.35 175.85 12.3 Q174.2 11.9 174.15 10.05 174.35 9.2 174.9 8.8 M177.65 11.45 L176.45 8.4 Q178.0 8.55 178.05 10.25 L177.65 11.45 M175.85 28.9 Q177.0 27.8 178.3 28.9 L178.95 30.05 175.85 28.9 M175.1 30.4 L178.8 31.55 Q178.0 32.25 176.95 32.35 175.25 32.1 175.1 30.4 M9.35 6.95 Q11.15 7.15 11.2 9.05 L10.7 10.45 9.35 6.95 M9.35 11.4 L8.7 11.35 Q6.8 10.95 6.75 8.85 7.0 7.9 7.6 7.45 L9.35 11.4 M10.45 28.4 L6.9 27.35 8.05 26.6 Q9.75 26.65 10.45 28.4 M6.2 29.05 L10.4 30.05 Q9.7 31.2 8.2 31.1 6.45 30.9 6.2 29.05" fill="#d5d4d4" fill-rule="evenodd" stroke="none"/>
      <path d="M183.45 6.1 L185.3 6.25 185.25 8.2 185.25 8.25 185.1 13.45 184.65 27.3 184.3 36.25 Q157.35 34.75 133.85 35.55 L89.2 37.0 Q65.15 37.15 43.55 35.85 22.0 34.5 0.05 36.75 L0.05 36.7 1.95 36.45 3.2 8.3 6.5 5.1 Q60.0 3.6 103.3 3.5 L183.45 6.1 M176.25 8.0 Q175.75 7.8 174.95 8.35 L174.8 8.5 174.1 9.15 162.45 8.35 Q144.55 7.2 115.0 6.95 144.35 11.4 160.95 13.3 L177.8 15.2 177.7 27.3 Q176.7 27.35 175.8 28.3 L175.4 28.75 175.25 28.7 175.2 29.0 137.05 30.55 175.3 32.3 175.5 32.65 Q177.3 34.2 179.1 33.5 180.2 33.6 181.35 32.8 183.6 31.2 181.25 27.95 180.5 27.3 179.85 27.15 L180.85 9.65 179.9 9.55 179.25 9.1 Q178.55 8.05 176.9 7.95 L176.25 8.0 M12.5 7.75 Q11.75 6.6 9.9 6.5 L9.2 6.55 8.75 6.6 Q6.6 7.0 5.95 9.55 L6.0 10.05 5.25 10.05 3.85 32.6 15.1 32.75 38.0 32.9 Q50.4 32.9 56.5 32.6 L36.65 31.3 16.45 30.2 14.35 30.1 Q15.0 28.35 12.9 25.8 11.0 24.35 9.4 25.3 8.2 25.2 7.2 26.2 L7.0 13.55 8.0 13.4 Q8.75 14.25 10.15 14.55 12.6 15.1 13.75 12.35 L26.45 10.0 14.15 10.05 Q13.85 8.35 12.5 7.75" fill="url(#gradient1)" fill-rule="evenodd" stroke="none"/>
    </g>
    <linearGradient gradientTransform="matrix(0.1131, 0.0, 0.0, 0.0204, 92.65, 20.25)" gradientUnits="userSpaceOnUse" id="gradient1" spreadMethod="pad" x1="-819.2" x2="819.2">
      <stop offset="0.0" stop-color="#9a9a9a"/>
      <stop offset="1.0" stop-color="#ffffff"/>
    </linearGradient>
    <g id="text0" transform="matrix(1.0, 0.0, 0.0, 1.0, -1.3, -5.7)">
      <g transform="matrix(1.0, 0.0, 0.0, 1.0, 0.0, 0.0)">
        <use fill="#000000" height="17.55" transform="matrix(0.4746, 0.0, 0.0, 0.4746, 0.0, 21.0)" width="144.3" xlink:href="#font_______W7_M0"/>
        <use fill="#000000" height="17.55" transform="matrix(0.4746, 0.0, 0.0, 0.4746, 18.15, 21.0)" width="144.3" xlink:href="#font_______W7_r0"/>
        <use fill="#000000" height="17.55" transform="matrix(0.4746, 0.0, 0.0, 0.4746, 26.1, 21.0)" width="144.3" xlink:href="#font_______W7_.0"/>
        <use fill="#000000" height="17.55" transform="matrix(0.4746, 0.0, 0.0, 0.4746, 39.9, 21.0)" width="144.3" xlink:href="#font_______W7_H0"/>
        <use fill="#000000" height="17.55" transform="matrix(0.4746, 0.0, 0.0, 0.4746, 56.4, 21.0)" width="144.3" xlink:href="#font_______W7_o0"/>
        <use fill="#000000" height="17.55" transform="matrix(0.4746, 0.0, 0.0, 0.4746, 68.3, 21.0)" width="144.3" xlink:href="#font_______W7_l0"/>
        <use fill="#000000" height="17.55" transform="matrix(0.4746, 0.0, 0.0, 0.4746, 76.1, 21.0)" width="144.3" xlink:href="#font_______W7_l0"/>
        <use fill="#000000" height="17.55" transform="matrix(0.4746, 0.0, 0.0, 0.4746, 83.9, 21.0)" width="144.3" xlink:href="#font_______W7_y0"/>
        <use fill="#000000" height="17.55" transform="matrix(0.4746, 0.0, 0.0, 0.4746, 94.75, 21.0)" width="144.3" xlink:href="#font_______W7_w0"/>
        <use fill="#000000" height="17.55" transform="matrix(0.4746, 0.0, 0.0, 0.4746, 108.6, 21.0)" width="144.3" xlink:href="#font_______W7_o0"/>
        <use fill="#000000" height="17.55" transform="matrix(0.4746, 0.0, 0.0, 0.4746, 120.5, 21.0)" width="144.3" xlink:href="#font_______W7_o0"/>
        <use fill="#000000" height="17.55" transform="matrix(0.4746, 0.0, 0.0, 0.4746, 132.4, 21.0)" width="144.3" xlink:href="#font_______W7_d0"/>
      </g>
    </g>
    <g id="font_______W7_M0">
      <path d="M35.55 -31.55 L35.55 -31.55 30.8 -32.15 20.2 -14.25 9.85 -31.5 5.1 -32.15 2.55 0.05 12.6 -1.4 10.85 -20.45 18.7 -2.25 22.0 -3.05 29.9 -20.9 28.25 0.05 38.3 -1.4 35.55 -31.55" fill-rule="evenodd" stroke="none"/>
    </g>
    <g id="font_______W7_r0">
      <path d="M18.3 -20.6 L18.3 -20.6 Q16.55 -21.45 14.75 -21.45 11.5 -21.45 8.7 -18.65 L8.45 -20.75 4.45 -21.45 2.55 0.05 10.65 -1.4 9.3 -12.8 Q10.55 -14.85 12.3 -14.85 13.25 -14.85 14.55 -13.85 L16.55 -12.05 18.3 -20.6" fill-rule="evenodd" stroke="none"/>
    </g>
    <g id="font_______W7_.0">
      <path d="M11.9 -7.35 L11.9 -7.35 4.9 -8.2 3.1 1.2 13.5 0.0 11.9 -7.35" fill-rule="evenodd" stroke="none"/>
    </g>
    <g id="font_______W7_H0">
      <path d="M31.8 -31.5 L31.8 -31.5 26.95 -32.15 25.95 -21.0 11.4 -18.75 10.2 -31.5 5.3 -32.15 2.55 0.05 13.15 -1.1 11.95 -13.75 25.35 -13.75 24.15 0.05 34.75 -1.1 31.8 -31.5" fill-rule="evenodd" stroke="none"/>
    </g>
    <g id="font_______W7_o0">
      <path d="M15.8 -13.5 L15.8 -13.5 Q16.45 -11.85 16.45 -10.4 16.45 -6.85 12.35 -6.85 10.6 -6.85 9.35 -8.05 8.15 -9.35 8.15 -11.05 8.15 -13.25 9.8 -14.6 11.4 -16.0 13.7 -16.0 16.1 -16.0 18.3 -14.3 L15.8 -13.5 M25.7 -11.4 L25.7 -11.4 Q25.7 -13.8 24.75 -16.35 L21.25 -15.25 22.7 -17.2 Q18.35 -21.45 13.15 -21.45 8.45 -21.45 5.1 -18.2 1.8 -14.95 1.8 -10.3 1.8 -5.5 5.4 -2.65 8.65 0.05 13.65 0.05 18.75 0.05 22.2 -3.2 25.7 -6.4 25.7 -11.4" fill-rule="evenodd" stroke="none"/>
    </g>
    <g id="font_______W7_l0">
      <path d="M11.6 -31.5 L11.6 -31.5 6.9 -32.15 4.35 0.05 14.4 -1.4 11.6 -31.5" fill-rule="evenodd" stroke="none"/>
    </g>
    <g id="font_______W7_y0">
      <path d="M21.2 -21.45 L21.2 -21.45 13.15 -10.8 3.65 -21.45 0.5 -19.75 8.5 -4.7 4.3 0.85 12.5 4.75 24.85 -19.65 21.2 -21.45" fill-rule="evenodd" stroke="none"/>
    </g>
    <g id="font_______W7_w0">
      <path d="M23.1 -21.4 L23.1 -21.4 20.35 -10.05 16.6 -20.6 13.9 -21.45 9.35 -10.05 4.1 -21.35 0.5 -19.7 8.35 0.05 11.1 -0.5 14.9 -12.4 19.2 0.05 22.05 -0.55 31.2 -17.75 23.1 -21.4" fill-rule="evenodd" stroke="none"/>
    </g>
    <g id="font_______W7_d0">
      <path d="M18.35 -8.95 L18.35 -8.95 16.8 -11.9 Q14.75 -9.45 12.45 -9.45 10.9 -9.45 10.0 -10.4 9.1 -11.4 9.1 -12.95 9.1 -14.5 10.7 -15.6 12.15 -16.5 13.7 -16.5 16.6 -16.5 18.8 -14.55 L18.35 -8.95 M24.9 -31.55 L24.9 -31.55 20.15 -32.2 19.15 -19.55 Q16.05 -21.45 12.65 -21.45 8.15 -21.45 4.95 -18.25 1.8 -15.0 1.8 -10.5 1.8 -6.05 4.6 -3.05 7.4 0.05 11.85 0.05 14.65 0.05 17.7 -1.5 L17.6 0.0 27.65 -1.45 24.9 -31.55" fill-rule="evenodd" stroke="none"/>
    </g>
    <g id="shape3" transform="matrix(1.0, 0.0, 0.0, 1.0, 30.65, 88.0)">
      <path d="M184.7 -35.95 L184.7 -33.3 174.7 -22.25 174.7 -25.05 174.75 -25.05 184.7 -35.95 M188.45 -29.4 Q189.0 -18.75 179.0 -20.1 L177.15 -20.3 177.05 -22.9 Q178.8 -21.85 180.95 -21.75 187.85 -22.4 188.45 -29.4 M178.55 37.75 L261.3 79.8 274.2 164.0 255.4 247.4 238.1 283.2 2.45 283.2 -22.65 264.65 -30.65 131.0 -14.0 81.3 61.3 29.0 42.7 -21.05 75.8 -75.05 107.1 -88.0 162.55 -74.8 206.05 -23.8 178.55 37.75 M262.05 151.4 Q263.1 157.65 257.25 158.65 255.4 158.65 254.05 157.2 251.9 155.05 252.25 151.95 L253.0 154.05 253.55 151.75 Q254.9 147.2 259.4 146.8 L261.05 148.2 Q260.8 155.3 253.8 154.9 L254.6 155.35 Q260.55 157.85 262.05 151.4 M-10.35 263.1 L5.4 279.65 224.15 279.65 244.95 244.5 268.25 150.5 266.2 135.95 255.05 84.65 169.6 35.85 170.85 32.65 198.95 -29.9 158.9 -68.15 111.1 -81.55 75.45 -68.8 49.2 -27.1 70.05 32.3 5.85 71.3 -8.05 79.7 -23.5 132.0 -19.4 253.55 -10.35 263.1 M56.35 244.1 Q57.55 252.65 49.75 251.25 47.65 250.85 46.95 248.5 46.6 247.05 46.6 245.35 L47.35 247.4 48.1 248.3 48.9 248.7 Q55.4 251.25 56.35 244.1 M191.45 270.45 Q193.2 271.5 195.35 271.6 202.2 270.9 202.85 263.95 203.4 274.6 193.4 273.3 L191.5 273.05 191.45 270.45 M199.1 257.35 L199.1 260.05 189.1 271.1 189.1 268.3 189.15 268.3 199.1 257.35" fill="#47525f" fill-rule="evenodd" stroke="none"/>
      <path d="M185.7 -32.4 L187.0 -33.85 187.1 -33.0 Q186.95 -22.4 177.05 -22.9 L185.7 -32.4 M-10.35 263.1 L-19.4 253.55 -23.5 132.0 -8.05 79.7 5.85 71.3 170.85 32.65 169.6 35.85 255.05 84.65 266.2 135.95 -10.35 263.1 M201.4 259.5 L201.45 260.35 Q201.3 270.9 191.45 270.45 L200.1 260.95 201.4 259.5" fill="#bab9ba" fill-rule="evenodd" stroke="none"/>
      <path d="M184.7 -35.95 L183.8 -36.15 Q182.05 -37.5 178.3 -35.9 173.95 -34.25 173.2 -29.35 L173.2 -26.25 Q172.95 -25.25 174.7 -22.25 L177.15 -20.3 179.0 -20.1 Q189.0 -18.75 188.45 -29.4 L187.0 -33.85 185.7 -32.4 184.7 -33.3 184.7 -35.95 M174.45 -27.05 L174.35 -26.75 174.35 -26.85 174.45 -27.05 M174.7 -25.1 L174.75 -25.05 174.7 -25.05 174.7 -25.1 M262.05 151.4 L261.05 148.2 259.4 146.8 258.35 146.4 Q252.55 145.8 252.25 151.95 251.9 155.05 254.05 157.2 255.4 158.65 257.25 158.65 263.1 157.65 262.05 151.4 M266.2 135.95 L268.25 150.5 244.95 244.5 224.15 279.65 5.4 279.65 -10.35 263.1 266.2 135.95 M5.85 71.3 L70.05 32.3 49.2 -27.1 75.45 -68.8 111.1 -81.55 158.9 -68.15 198.95 -29.9 170.85 32.65 5.85 71.3 M53.75 240.2 L52.7 239.8 Q46.9 239.2 46.6 245.35 46.6 247.05 46.95 248.5 47.65 250.85 49.75 251.25 57.55 252.65 56.35 244.1 56.2 242.7 55.35 241.6 L53.75 240.2 M201.4 259.5 L200.1 260.95 199.1 260.05 199.1 257.35 198.65 257.05 198.3 257.2 Q196.2 255.85 192.6 257.25 188.2 259.0 187.6 264.0 L187.6 267.1 Q187.35 268.1 189.1 271.1 L191.5 273.05 193.4 273.3 Q203.4 274.6 202.85 263.95 L201.4 259.5 M189.15 268.3 L189.1 268.3 189.1 268.25 189.15 268.3 M188.85 266.3 L188.75 266.6 188.75 266.5 188.85 266.3" fill="#9c9c9c" fill-rule="evenodd" stroke="none"/>
      <path d="M173.2 -29.35 Q173.95 -34.25 178.3 -35.9 182.05 -37.5 183.8 -36.15 178.05 -34.05 175.1 -28.4 L174.45 -27.05 174.35 -26.85 174.25 -25.7 Q173.3 -27.4 173.2 -29.35 M252.25 151.95 Q252.55 145.8 258.35 146.4 L259.4 146.8 Q254.9 147.2 253.55 151.75 L253.0 154.05 252.25 151.95 M46.6 245.35 Q46.9 239.2 52.7 239.8 L53.75 240.2 Q51.1 240.2 49.2 242.3 47.35 244.4 47.35 247.4 L46.6 245.35 M187.6 264.0 Q188.2 259.0 192.6 257.25 196.2 255.85 198.3 257.2 192.2 259.2 189.35 265.2 L188.85 266.3 188.75 266.5 188.65 267.65 Q187.7 265.9 187.6 264.0" fill="#e9e9eb" fill-rule="evenodd" stroke="none"/>
      <path d="M183.8 -36.15 L184.7 -35.95 174.75 -25.05 174.7 -25.1 174.3 -25.7 174.35 -26.75 174.45 -27.05 175.1 -28.4 Q178.05 -34.05 183.8 -36.15 M53.75 240.2 L55.35 241.6 55.35 241.9 Q54.85 248.75 48.1 248.3 L47.35 247.4 Q47.35 244.4 49.2 242.3 51.1 240.2 53.75 240.2 M198.3 257.2 L198.65 257.05 199.1 257.35 189.15 268.3 189.1 268.25 188.7 267.65 188.75 266.6 188.85 266.3 189.35 265.2 Q192.2 259.2 198.3 257.2" fill="#d0cfd0" fill-rule="evenodd" stroke="none"/>
      <path d="M187.0 -33.85 L188.45 -29.4 Q187.85 -22.4 180.95 -21.75 178.8 -21.85 177.05 -22.9 186.95 -22.4 187.1 -33.0 L187.0 -33.85 M261.05 148.2 L262.05 151.4 Q260.55 157.85 254.6 155.35 L253.8 154.9 Q260.8 155.3 261.05 148.2 M55.35 241.6 Q56.2 242.7 56.35 244.1 55.4 251.25 48.9 248.7 L48.1 248.3 Q54.85 248.75 55.35 241.9 L55.35 241.6 M191.45 270.45 Q201.3 270.9 201.45 260.35 L201.4 259.5 202.85 263.95 Q202.2 270.9 195.35 271.6 193.2 271.5 191.45 270.45" fill="#b0aeb3" fill-rule="evenodd" stroke="none"/>
      <path d="M184.7 -33.3 L185.7 -32.4 177.05 -22.9 177.15 -20.3 174.7 -22.25 184.7 -33.3 M200.1 260.95 L191.45 270.45 191.5 273.05 189.1 271.1 199.1 260.05 200.1 260.95" fill="#57565b" fill-rule="evenodd" stroke="none"/>
      <path d="M174.7 -22.25 Q172.95 -25.25 173.2 -26.25 L173.2 -29.35 Q173.3 -27.4 174.25 -25.7 L174.35 -26.85 174.35 -26.75 174.3 -25.7 174.7 -25.1 174.7 -25.05 174.7 -22.25 M189.1 268.3 L189.1 271.1 Q187.35 268.1 187.6 267.1 L187.6 264.0 Q187.7 265.9 188.65 267.65 L188.75 266.5 188.75 266.6 188.7 267.65 189.1 268.25 189.1 268.3" fill="#79818b" fill-rule="evenodd" stroke="none"/>
    </g>
    <g id="shape4" transform="matrix(1.0, 0.0, 0.0, 1.0, 0.0, 0.0)">
      <path d="M151.2 24.4 L153.0 26.0 146.1 53.25 140.15 54.95 Q141.9 46.0 142.45 36.8 142.85 29.55 145.75 23.35 L150.55 24.75 151.2 24.4 M124.8 32.15 Q132.6 27.4 141.4 25.0 139.45 37.35 137.9 49.8 L136.85 55.85 123.55 58.0 Q125.6 45.15 124.8 32.15 M80.75 65.15 L81.05 68.6 Q79.05 67.7 77.5 66.45 L73.9 63.4 Q77.1 64.8 80.75 65.15 M84.05 69.75 L83.8 65.05 94.35 63.75 94.95 71.35 Q88.6 71.15 84.05 69.75 M78.5 61.6 Q74.05 60.6 70.1 58.1 L60.1 30.75 66.35 24.3 74.5 27.95 Q75.7 45.1 80.1 62.05 L78.5 61.6 M105.9 38.05 L106.95 38.0 107.15 60.5 97.05 60.6 94.7 35.95 Q100.05 38.15 105.9 38.05 M138.65 62.8 L139.45 58.3 144.15 56.95 Q141.85 60.4 138.65 62.8 M122.7 68.2 L123.05 61.05 136.25 58.95 135.25 64.85 Q129.2 67.6 122.7 68.2 M110.4 63.2 L120.0 61.6 Q119.55 65.9 119.7 68.8 L111.5 70.15 110.4 63.2 M122.0 33.45 L122.0 40.85 120.45 58.5 110.15 60.2 109.95 37.45 122.0 33.45 M94.05 60.75 L83.25 62.05 81.65 55.75 Q78.4 42.6 77.5 29.0 L91.7 34.85 94.05 60.75 M107.4 63.5 L108.55 70.5 97.95 71.35 97.35 63.6 107.4 63.5" fill="#ffffff" fill-rule="evenodd" stroke="none"/>
      <path d="M151.2 24.4 L150.55 24.75 145.75 23.35 Q142.85 29.55 142.45 36.8 141.9 46.0 140.15 54.95 L146.1 53.25 153.0 26.0 151.2 24.4 M209.0 118.8 L214.35 166.25 214.35 166.7 200.2 236.1 202.6 240.0 202.85 240.9 Q195.3 248.4 186.65 255.0 L181.25 258.85 181.05 259.0 163.4 241.0 164.6 238.8 155.7 200.55 147.95 207.2 155.65 261.15 155.55 262.1 154.15 262.85 86.2 262.85 Q72.7 263.05 59.35 262.7 L58.95 262.35 58.45 261.2 63.25 211.05 50.1 196.45 43.75 231.5 44.9 232.0 45.85 232.55 46.7 233.4 47.5 234.65 45.0 242.4 48.85 248.45 29.5 263.05 Q20.5 255.7 12.15 247.35 L6.8 242.0 6.45 241.45 8.25 238.0 2.45 214.5 0.0 168.95 7.35 120.9 8.1 119.65 74.8 78.75 57.2 29.65 68.5 17.75 Q74.1 12.0 80.05 6.6 81.35 5.5 83.1 4.95 99.3 -0.25 116.7 0.0 L120.8 0.1 129.4 0.8 155.8 24.9 Q152.45 40.8 148.4 56.55 L146.5 63.65 142.8 77.95 145.55 79.95 176.0 98.25 176.35 98.5 208.8 118.15 209.0 118.8 M173.85 100.45 L145.5 83.4 134.9 117.9 133.7 118.95 129.3 113.85 109.25 154.45 95.35 180.7 152.95 124.35 142.55 117.75 142.25 116.3 172.95 111.3 173.85 100.45 M156.4 125.15 L91.1 189.05 87.8 259.85 152.45 259.85 144.9 206.8 144.95 206.1 155.5 196.8 178.9 161.35 204.35 118.8 176.7 102.2 175.45 113.2 148.0 117.7 156.7 124.05 156.4 125.15 M181.45 162.95 L158.2 198.1 166.4 233.6 174.35 223.4 Q174.45 223.25 174.6 223.2 174.95 222.95 175.4 222.8 L187.85 222.2 188.15 222.35 197.65 233.45 211.35 166.35 206.25 121.45 181.45 162.95 M125.3 4.4 L124.8 5.35 Q117.05 5.25 110.8 10.1 112.95 12.4 114.25 15.25 122.6 20.65 132.75 20.6 L143.05 20.9 143.5 21.55 144.85 21.65 145.45 21.35 148.65 22.1 127.8 3.35 Q108.1 2.0 88.7 6.15 92.9 7.6 95.3 11.4 102.1 7.6 109.45 9.3 115.7 2.5 124.9 3.75 L125.3 4.4 M126.05 12.55 Q120.3 7.9 114.05 11.95 L113.3 10.75 113.75 10.3 Q121.4 4.8 126.7 11.65 L126.05 12.55 M113.85 19.7 L116.3 21.4 117.25 19.5 114.45 17.2 113.85 19.7 M113.45 22.25 L112.75 21.6 Q104.05 29.7 94.55 22.6 L90.3 23.75 Q88.7 22.2 89.3 20.1 81.7 24.15 73.05 24.15 87.95 31.3 104.1 34.65 107.95 35.4 111.7 34.15 126.15 29.45 139.75 22.35 129.1 23.7 118.85 21.0 L117.9 22.25 Q115.65 24.45 113.45 22.25 M124.8 32.15 Q125.6 45.15 123.55 58.0 L136.85 55.85 137.9 49.8 Q139.45 37.35 141.4 25.0 132.6 27.4 124.8 32.15 M85.4 7.1 Q75.95 13.6 68.45 22.1 L69.55 22.65 69.8 22.3 Q81.35 22.7 91.5 17.05 L91.95 17.85 91.2 21.6 Q93.95 19.9 96.45 21.6 100.15 24.2 104.6 23.9 112.6 22.9 112.25 15.05 104.45 7.35 94.95 13.8 91.65 8.95 85.95 7.75 L85.4 7.1 M79.3 15.4 L78.55 14.6 Q83.7 8.45 91.0 12.6 L90.6 14.1 Q85.35 11.55 80.65 14.95 L79.3 15.4 M105.9 38.05 Q100.05 38.15 94.7 35.95 L97.05 60.6 107.15 60.5 106.95 38.0 105.9 38.05 M78.5 61.6 L80.1 62.05 Q75.7 45.1 74.5 27.95 L66.35 24.3 60.1 30.75 70.1 58.1 Q74.05 60.6 78.5 61.6 M84.05 69.75 Q88.6 71.15 94.95 71.35 L94.35 63.75 83.8 65.05 84.05 69.75 M80.75 65.15 Q77.1 64.8 73.9 63.4 L77.5 66.45 Q79.05 67.7 81.05 68.6 L80.75 65.15 M77.75 78.1 L100.8 87.45 101.05 87.8 100.75 89.3 107.4 142.1 112.25 87.7 Q125.65 81.85 139.85 77.4 L143.8 62.2 Q140.15 66.35 134.9 68.25 122.9 72.5 110.05 72.85 L109.45 73.45 96.9 74.65 Q83.85 74.9 73.7 67.15 L77.75 78.1 M107.4 63.5 L97.35 63.6 97.95 71.35 108.55 70.5 107.4 63.5 M94.05 60.75 L91.7 34.85 77.5 29.0 Q78.4 42.6 81.65 55.75 L83.25 62.05 94.05 60.75 M122.0 33.45 L109.95 37.45 110.15 60.2 120.45 58.5 122.0 40.85 122.0 33.45 M110.4 63.2 L111.5 70.15 119.7 68.8 Q119.55 65.9 120.0 61.6 L110.4 63.2 M122.7 68.2 Q129.2 67.6 135.25 64.85 L136.25 58.95 123.05 61.05 122.7 68.2 M138.65 62.8 Q141.85 60.4 144.15 56.95 L139.45 58.3 138.65 62.8 M140.8 80.25 L116.1 88.55 132.95 114.0 142.85 81.7 140.8 80.25 M43.15 108.5 L72.45 111.75 Q73.95 111.75 73.7 113.1 L73.25 113.75 58.6 119.7 102.35 160.95 106.0 154.2 105.85 153.75 87.5 109.25 82.8 116.25 82.35 116.45 Q81.1 116.9 80.9 115.65 78.0 98.7 75.55 81.75 L41.95 102.4 43.15 108.5 M39.2 104.05 L10.75 121.5 32.6 168.7 Q49.05 190.1 66.3 210.65 L61.6 259.85 84.8 259.85 88.1 188.35 100.9 163.7 54.8 120.25 54.5 118.9 Q59.65 115.4 65.85 113.75 L41.75 111.4 Q40.7 111.25 40.5 110.2 L39.2 104.05 M9.6 126.0 L3.0 168.9 5.45 214.25 10.6 235.05 Q15.2 229.2 19.95 223.5 20.3 223.1 20.8 223.1 24.85 222.1 28.35 223.25 34.8 225.4 40.65 229.4 40.45 223.9 41.5 218.7 43.95 206.35 47.65 194.3 L30.0 170.15 9.6 126.0 M114.9 92.15 L110.1 145.95 127.4 110.95 114.9 92.15 M89.5 106.25 L104.4 142.45 98.15 93.15 89.5 106.25 M82.75 111.0 L97.35 89.0 78.55 81.65 82.75 111.0 M25.3 244.65 L25.9 240.95 25.9 240.85 Q25.8 238.2 27.45 236.6 28.3 235.7 29.0 236.85 30.0 238.45 29.05 240.4 35.25 243.85 41.95 242.1 L44.2 235.45 28.3 224.45 21.85 225.7 9.8 240.9 29.2 259.6 45.3 247.6 43.1 244.9 Q35.45 247.1 28.45 243.4 28.6 246.1 26.35 246.5 25.15 246.0 25.3 244.65 M176.25 225.75 L168.85 235.35 169.2 236.4 175.7 241.85 178.8 241.25 178.55 240.6 178.5 240.05 Q178.6 239.5 179.0 239.1 180.35 237.9 181.15 239.55 L183.4 244.7 182.95 245.75 182.45 246.05 181.9 246.1 181.3 246.05 180.9 245.65 180.0 244.05 175.55 244.95 Q174.9 244.75 174.45 244.4 L168.05 239.4 166.75 240.9 181.65 255.8 199.35 240.05 186.6 225.1 176.25 225.75" fill="#1a1a1a" fill-rule="evenodd" stroke="none"/>
      <path d="M181.45 162.95 L206.25 121.45 211.35 166.35 197.65 233.45 188.15 222.35 187.85 222.2 175.4 222.8 Q174.95 222.95 174.6 223.2 174.45 223.25 174.35 223.4 L166.4 233.6 158.2 198.1 181.45 162.95 M156.4 125.15 L156.7 124.05 148.0 117.7 175.45 113.2 176.7 102.2 204.35 118.8 178.9 161.35 155.5 196.8 144.95 206.1 144.9 206.8 152.45 259.85 87.8 259.85 91.1 189.05 156.4 125.15 M173.85 100.45 L172.95 111.3 142.25 116.3 142.55 117.75 152.95 124.35 95.35 180.7 109.25 154.45 129.3 113.85 133.7 118.95 134.9 117.9 145.5 83.4 173.85 100.45 M9.6 126.0 L30.0 170.15 47.65 194.3 Q43.95 206.35 41.5 218.7 40.45 223.9 40.65 229.4 34.8 225.4 28.35 223.25 24.85 222.1 20.8 223.1 20.3 223.1 19.95 223.5 15.2 229.2 10.6 235.05 L5.45 214.25 3.0 168.9 9.6 126.0 M39.2 104.05 L40.5 110.2 Q40.7 111.25 41.75 111.4 L65.85 113.75 Q59.65 115.4 54.5 118.9 L54.8 120.25 100.9 163.7 88.1 188.35 84.8 259.85 61.6 259.85 66.3 210.65 Q49.05 190.1 32.6 168.7 L10.75 121.5 39.2 104.05 M43.15 108.5 L41.95 102.4 75.55 81.75 Q78.0 98.7 80.9 115.65 81.1 116.9 82.35 116.45 L82.8 116.25 87.5 109.25 105.85 153.75 106.0 154.2 102.35 160.95 58.6 119.7 73.25 113.75 73.7 113.1 Q73.95 111.75 72.45 111.75 L43.15 108.5" fill="#8d254e" fill-rule="evenodd" stroke="none"/>
      <path d="M126.05 12.55 L126.7 11.65 Q121.4 4.8 113.75 10.3 L113.3 10.75 114.05 11.95 Q120.3 7.9 126.05 12.55 M125.3 4.4 L124.9 3.75 Q115.7 2.5 109.45 9.3 102.1 7.6 95.3 11.4 92.9 7.6 88.7 6.15 108.1 2.0 127.8 3.35 L148.65 22.1 145.45 21.35 144.85 21.65 143.5 21.55 143.05 20.9 132.75 20.6 Q122.6 20.65 114.25 15.25 112.95 12.4 110.8 10.1 117.05 5.25 124.8 5.35 L125.3 4.4 M113.45 22.25 Q115.65 24.45 117.9 22.25 L118.85 21.0 Q129.1 23.7 139.75 22.35 126.15 29.45 111.7 34.15 107.95 35.4 104.1 34.65 87.95 31.3 73.05 24.15 81.7 24.15 89.3 20.1 88.7 22.2 90.3 23.75 L94.55 22.6 Q104.05 29.7 112.75 21.6 L113.45 22.25 M79.3 15.4 L80.65 14.95 Q85.35 11.55 90.6 14.1 L91.0 12.6 Q83.7 8.45 78.55 14.6 L79.3 15.4 M85.4 7.1 L85.95 7.75 Q91.65 8.95 94.95 13.8 104.45 7.35 112.25 15.05 112.6 22.9 104.6 23.9 100.15 24.2 96.45 21.6 93.95 19.9 91.2 21.6 L91.95 17.85 91.5 17.05 Q81.35 22.7 69.8 22.3 L69.55 22.65 68.45 22.1 Q75.95 13.6 85.4 7.1 M77.75 78.1 L73.7 67.15 Q83.85 74.9 96.9 74.65 L109.45 73.45 110.05 72.85 Q122.9 72.5 134.9 68.25 140.15 66.35 143.8 62.2 L139.85 77.4 Q125.65 81.85 112.25 87.7 L107.4 142.1 100.75 89.3 101.05 87.8 100.8 87.45 77.75 78.1" fill="#f3deee" fill-rule="evenodd" stroke="none"/>
      <path d="M113.85 19.7 L114.45 17.2 117.25 19.5 116.3 21.4 113.85 19.7 M176.25 225.75 L186.6 225.1 199.35 240.05 181.65 255.8 166.75 240.9 168.05 239.4 174.45 244.4 Q174.9 244.75 175.55 244.95 L180.0 244.05 180.9 245.65 181.3 246.05 181.9 246.1 182.45 246.05 182.95 245.75 183.4 244.7 181.15 239.55 Q180.35 237.9 179.0 239.1 178.6 239.5 178.5 240.05 L178.55 240.6 178.8 241.25 175.7 241.85 169.2 236.4 168.85 235.35 176.25 225.75 M25.3 244.65 Q25.15 246.0 26.35 246.5 28.6 246.1 28.45 243.4 35.45 247.1 43.1 244.9 L45.3 247.6 29.2 259.6 9.8 240.9 21.85 225.7 28.3 224.45 44.2 235.45 41.95 242.1 Q35.25 243.85 29.05 240.4 30.0 238.45 29.0 236.85 28.3 235.7 27.45 236.6 25.8 238.2 25.9 240.85 L25.9 240.95 25.3 244.65" fill="#e3aed5" fill-rule="evenodd" stroke="none"/>
      <path d="M140.8 80.25 L142.85 81.7 132.95 114.0 116.1 88.55 140.8 80.25 M89.5 106.25 L98.15 93.15 104.4 142.45 89.5 106.25 M114.9 92.15 L127.4 110.95 110.1 145.95 114.9 92.15 M82.75 111.0 L78.55 81.65 97.35 89.0 82.75 111.0" fill="#ffe1e9" fill-rule="evenodd" stroke="none"/>
    </g>
    <g id="shape5" transform="matrix(1.0, 0.0, 0.0, 1.0, -0.1, 0.0)">
      <path d="M44.15 4.15 Q48.25 3.4 52.05 4.8 L52.4 5.0 52.3 11.35 52.25 12.55 Q56.95 19.4 57.2 28.65 56.95 39.1 50.85 46.55 L50.85 48.45 50.25 54.2 Q46.95 55.8 43.1 54.6 L42.4 54.05 42.25 53.8 Q36.25 57.05 28.6 57.25 20.95 57.05 14.95 53.75 L14.75 54.3 14.4 54.75 8.05 54.95 Q6.45 53.25 6.75 50.75 L6.9 47.7 6.85 47.2 Q3.0 42.7 1.3 37.15 -0.8 29.9 0.85 22.5 2.4 15.75 6.8 10.6 15.0 0.95 27.95 0.05 L28.3 0.05 28.6 0.05 Q37.0 0.25 43.5 4.2 L44.15 4.15 M50.75 10.0 L51.2 5.6 42.35 5.6 Q42.7 27.1 43.4 48.6 43.45 50.9 43.95 52.95 L47.55 53.2 49.45 52.9 Q49.55 33.1 50.45 13.35 L50.75 10.0 M40.95 5.25 Q41.05 4.75 41.2 4.9 L41.4 4.8 Q35.75 1.65 28.6 1.45 17.05 1.75 9.4 9.45 1.7 17.1 1.4 28.65 1.65 37.85 6.6 44.65 L6.5 43.3 6.35 41.05 6.05 39.7 Q1.4 28.1 7.05 17.05 11.65 8.15 21.3 5.15 31.5 2.15 40.85 7.15 L40.95 5.25 M45.1 11.4 L45.35 12.2 47.45 10.1 46.65 9.85 Q45.25 10.0 45.1 11.4 M40.8 9.45 L40.8 8.75 Q35.55 5.45 28.65 5.3 18.7 5.6 12.0 12.3 5.3 19.0 5.05 28.9 5.2 33.9 6.95 38.05 L7.95 37.8 14.45 37.8 15.3 38.55 15.05 47.8 17.35 48.85 17.4 46.3 17.4 42.55 16.8 27.7 17.8 27.05 Q22.25 25.8 26.4 27.25 L26.7 27.55 26.7 51.5 26.7 51.95 29.25 52.05 29.25 51.35 29.25 47.1 29.3 44.85 28.85 16.2 30.2 15.55 38.9 15.85 38.7 49.4 38.7 49.8 41.85 47.95 41.85 47.1 41.95 42.75 41.95 38.3 41.0 14.95 40.85 11.15 40.8 9.45 M44.55 12.65 Q44.5 11.25 45.1 10.1 45.7 8.9 46.6 8.8 47.5 8.7 48.2 9.75 48.9 10.75 48.95 12.35 48.4 13.7 46.65 13.9 45.1 13.75 44.55 12.65 M48.3 45.2 L48.65 46.05 Q49.15 47.55 48.1 48.55 L46.3 49.2 Q44.8 49.15 44.1 47.55 43.75 46.05 44.6 45.2 L45.65 44.45 Q47.35 44.0 48.3 45.2 M46.3 12.95 L46.65 13.0 Q48.75 12.6 48.05 10.7 L46.3 12.95 M50.85 42.75 L50.85 44.4 Q55.35 38.0 55.55 29.2 55.4 21.65 52.1 15.6 L52.05 16.5 Q51.5 20.6 52.6 24.4 53.15 26.45 53.2 28.65 53.35 33.65 51.5 38.1 50.6 40.15 50.85 42.75 M51.15 34.95 Q51.9 31.85 51.85 28.65 L51.65 24.65 51.15 34.95 M44.9 46.45 L44.9 47.25 Q45.45 48.6 46.85 48.1 L47.6 47.8 44.9 46.45 M47.9 46.25 Q47.35 44.95 45.9 45.3 45.55 45.45 45.3 45.7 L47.95 47.0 47.9 46.25 M38.0 18.15 L38.1 16.8 29.9 16.9 31.25 53.15 37.5 53.45 37.55 53.2 Q36.9 35.65 38.0 18.15 M35.4 21.6 L35.0 20.95 32.75 21.0 32.45 21.65 35.4 21.6 M32.05 23.7 Q30.8 22.05 32.1 20.4 L32.25 20.3 Q33.9 18.95 35.6 20.25 L35.8 20.5 Q37.0 22.1 35.7 23.75 L35.55 23.9 Q33.9 25.2 32.2 23.85 L32.05 23.7 M35.4 48.0 Q37.9 50.5 35.05 52.15 L32.75 52.05 Q31.1 50.6 32.2 48.6 33.2 47.3 35.0 47.8 L35.4 48.0 M32.4 22.2 L32.8 22.85 35.05 22.8 35.35 22.15 32.4 22.2 M20.1 34.85 Q19.2 34.05 19.3 32.95 19.55 30.6 21.75 30.6 23.45 30.5 23.95 32.0 24.55 33.8 23.2 34.9 L20.1 34.85 M23.55 48.15 Q24.4 48.75 24.5 49.6 24.85 52.4 22.1 52.65 21.25 52.3 20.65 51.7 18.85 49.95 20.8 48.1 L23.55 48.15 M9.4 44.7 L9.2 45.45 Q9.35 46.9 10.75 47.05 L11.55 46.85 9.4 44.7 M9.05 47.25 L8.8 46.95 Q7.8 45.3 9.05 43.7 10.1 42.75 11.45 43.15 L12.0 43.35 Q13.1 43.95 13.25 45.45 13.05 47.15 11.75 47.7 10.7 48.45 9.05 47.25 M12.35 45.45 Q12.2 44.05 10.75 43.9 L10.0 44.1 12.15 46.25 12.35 45.45 M14.2 38.7 L7.45 38.8 8.6 53.65 Q9.45 54.1 10.5 54.05 L14.1 53.7 14.2 38.7 M21.65 31.4 L20.9 31.6 23.05 33.75 23.25 32.95 Q23.1 31.55 21.65 31.4 M22.45 34.35 L20.3 32.2 20.1 32.95 Q20.35 34.35 21.65 34.55 L22.45 34.35 M22.15 48.6 Q21.45 48.65 21.1 49.0 20.65 49.4 20.55 50.15 L20.75 50.9 22.85 48.8 22.15 48.6 M35.3 49.15 L33.1 49.1 32.65 49.55 32.6 50.35 35.3 49.15 M25.55 28.05 L17.9 28.15 19.3 53.15 24.75 53.25 25.55 28.05 M41.95 51.4 L41.85 49.6 38.7 51.3 38.55 53.05 38.35 54.05 42.0 52.4 41.95 51.4 M25.95 54.9 L23.3 55.25 Q28.6 56.35 33.95 55.25 L30.85 54.9 Q29.8 54.75 29.55 53.85 L29.45 53.4 26.6 53.3 25.95 54.9 M33.2 51.4 L34.55 51.7 35.7 49.95 33.2 51.4 M21.35 51.55 L22.1 51.75 Q23.9 51.55 23.6 49.7 L21.35 51.55 M15.15 51.45 L15.15 52.25 17.45 53.45 17.3 52.6 Q17.2 51.75 17.25 50.65 L15.1 49.4 15.15 51.45" fill="#5d0035" fill-rule="evenodd" stroke="none"/>
      <path d="M50.75 10.0 L50.45 13.35 Q49.55 33.1 49.45 52.9 L47.55 53.2 43.95 52.95 Q43.45 50.9 43.4 48.6 42.7 27.1 42.35 5.6 L51.2 5.6 50.75 10.0 M48.95 12.35 Q48.9 10.75 48.2 9.75 47.5 8.7 46.6 8.8 45.7 8.9 45.1 10.1 44.5 11.25 44.55 12.65 L44.6 45.2 Q43.75 46.05 44.1 47.55 44.8 49.15 46.3 49.2 46.8 49.75 47.7 49.65 L48.1 48.55 Q49.15 47.55 48.65 46.05 L48.3 45.2 48.05 41.5 Q47.2 35.85 47.35 30.15 47.65 21.15 48.95 12.35 M38.0 18.15 Q36.9 35.65 37.55 53.2 L37.5 53.45 31.25 53.15 29.9 16.9 38.1 16.8 38.0 18.15 M35.55 23.9 L35.7 23.75 Q37.0 22.1 35.8 20.5 L35.6 20.25 Q33.9 18.95 32.25 20.3 L32.1 20.4 Q30.8 22.05 32.05 23.7 32.7 32.75 31.85 41.85 31.65 43.75 31.7 45.7 31.7 47.3 32.2 48.6 31.1 50.6 32.75 52.05 L35.05 52.15 Q37.9 50.5 35.4 48.0 34.65 36.55 35.35 25.1 L35.55 23.9 M23.2 34.9 Q24.55 33.8 23.95 32.0 23.45 30.5 21.75 30.6 19.55 30.6 19.3 32.95 19.2 34.05 20.1 34.85 L20.8 48.1 Q18.85 49.95 20.65 51.7 21.25 52.3 22.1 52.65 24.85 52.4 24.5 49.6 24.4 48.75 23.55 48.15 L23.2 34.9 M9.05 43.7 Q7.8 45.3 8.8 46.95 L9.05 47.25 Q8.85 50.0 10.4 52.15 10.75 52.65 11.4 52.4 L11.75 47.7 Q13.05 47.15 13.25 45.45 13.1 43.95 12.0 43.35 12.3 41.75 11.6 40.3 L11.4 40.05 10.2 39.95 Q8.8 41.5 9.05 43.7 M14.2 38.7 L14.1 53.7 10.5 54.05 Q9.45 54.1 8.6 53.65 L7.45 38.8 14.2 38.7 M25.55 28.05 L24.75 53.25 19.3 53.15 17.9 28.15 25.55 28.05" fill="#e3c1d7" fill-rule="evenodd" stroke="none"/>
      <path d="M6.5 43.3 L6.6 44.65 Q1.65 37.85 1.4 28.65 1.7 17.1 9.4 9.45 17.05 1.75 28.6 1.45 35.75 1.65 41.4 4.8 L41.2 4.9 Q41.05 4.75 40.95 5.25 35.45 2.3 28.5 2.1 17.25 2.4 9.8 9.9 2.3 17.35 2.0 28.6 2.2 37.0 6.5 43.3 M40.85 11.15 L41.0 14.95 Q38.6 13.0 35.2 12.55 30.25 11.95 25.95 12.6 16.7 14.25 11.6 22.15 8.2 28.0 10.7 34.3 L12.05 37.4 9.6 37.55 Q7.6 32.95 7.75 27.7 7.85 22.9 10.4 19.05 15.75 11.05 25.25 9.1 33.55 7.45 40.85 11.15 M41.95 38.3 L41.95 42.75 39.4 43.95 Q39.25 42.35 39.25 40.75 L41.95 38.3 M29.3 44.85 L29.25 47.1 27.4 47.55 27.4 45.1 29.3 44.85 M17.4 42.55 L17.4 46.3 16.15 45.55 15.9 41.9 17.4 42.55 M52.05 16.5 L52.1 15.6 Q55.4 21.65 55.55 29.2 55.35 38.0 50.85 44.4 L50.85 42.75 Q54.75 36.6 54.95 28.6 54.75 21.85 52.05 16.5 M41.95 51.4 L42.0 52.4 38.35 54.05 38.55 53.05 41.95 51.4 M30.85 54.9 L33.95 55.25 Q28.6 56.35 23.3 55.25 L25.95 54.9 30.85 54.9 M17.3 52.6 L17.45 53.45 15.15 52.25 15.15 51.45 17.3 52.6" fill="#d2c0c0" fill-rule="evenodd" stroke="none"/>
      <path d="M44.15 4.15 L43.5 4.2 Q37.0 0.25 28.6 0.05 L29.2 0.0 Q37.65 0.2 44.15 4.15 M1.3 37.15 Q3.0 42.7 6.85 47.2 L6.9 47.7 Q2.95 43.0 1.3 37.15" fill="#8d3f6d" fill-rule="evenodd" stroke="none"/>
      <path d="M40.8 9.45 L40.85 11.15 Q33.55 7.45 25.25 9.1 15.75 11.05 10.4 19.05 7.85 22.9 7.75 27.7 7.6 32.95 9.6 37.55 L12.05 37.4 14.45 37.8 7.95 37.8 Q3.5 25.3 11.45 14.7 17.0 7.25 26.3 6.1 34.15 5.3 40.8 9.45 M41.95 42.75 L41.85 47.1 39.25 48.7 38.7 49.4 38.9 15.85 30.2 15.55 Q33.5 13.75 37.2 14.75 40.15 15.65 39.9 19.05 39.05 29.85 39.25 40.75 39.25 42.35 39.4 43.95 L41.95 42.75 M29.25 47.1 L29.25 51.35 26.7 51.5 26.7 27.55 26.4 27.25 Q22.25 25.8 17.8 27.05 19.55 26.25 21.6 26.15 L24.6 26.45 Q27.6 26.9 27.45 30.1 27.1 37.6 27.4 45.1 L27.4 47.55 29.25 47.1 M17.4 46.3 L17.35 48.85 15.05 47.8 15.3 38.55 15.9 41.9 16.15 45.55 17.4 46.3" fill="#bda3a3" fill-rule="evenodd" stroke="none"/>
      <path d="M7.95 37.8 L6.95 38.05 Q5.2 33.9 5.05 28.9 5.3 19.0 12.0 12.3 18.7 5.6 28.65 5.3 35.55 5.45 40.8 8.75 L40.8 9.45 Q34.15 5.3 26.3 6.1 17.0 7.25 11.45 14.7 3.5 25.3 7.95 37.8 M41.85 47.1 L41.85 47.95 38.7 49.8 38.7 49.4 39.25 48.7 41.85 47.1 M29.25 51.35 L29.25 52.05 26.7 51.95 26.7 51.5 29.25 51.35 M51.15 34.95 L51.65 24.65 51.85 28.65 Q51.9 31.85 51.15 34.95" fill="#aa8888" fill-rule="evenodd" stroke="none"/>
      <path d="M45.1 11.4 Q45.25 10.0 46.65 9.85 L47.45 10.1 45.35 12.2 45.1 11.4 M46.3 12.95 L48.05 10.7 Q48.75 12.6 46.65 13.0 L46.3 12.95 M44.9 46.45 L47.6 47.8 46.85 48.1 Q45.45 48.6 44.9 47.25 L44.9 46.45 M47.9 46.25 L47.95 47.0 45.3 45.7 Q45.55 45.45 45.9 45.3 47.35 44.95 47.9 46.25 M35.4 21.6 L32.45 21.65 32.75 21.0 35.0 20.95 35.4 21.6 M32.4 22.2 L35.35 22.15 35.05 22.8 32.8 22.85 32.4 22.2 M9.4 44.7 L11.55 46.85 10.75 47.05 Q9.35 46.9 9.2 45.45 L9.4 44.7 M12.35 45.45 L12.15 46.25 10.0 44.1 10.75 43.9 Q12.2 44.05 12.35 45.45 M22.45 34.35 L21.65 34.55 Q20.35 34.35 20.1 32.95 L20.3 32.2 22.45 34.35 M21.65 31.4 Q23.1 31.55 23.25 32.95 L23.05 33.75 20.9 31.6 21.65 31.4 M22.15 48.6 L22.85 48.8 20.75 50.9 20.55 50.15 Q20.65 49.4 21.1 49.0 21.45 48.65 22.15 48.6 M35.3 49.15 L32.6 50.35 32.65 49.55 33.1 49.1 35.3 49.15 M33.2 51.4 L35.7 49.95 34.55 51.7 33.2 51.4 M21.35 51.55 L23.6 49.7 Q23.9 51.55 22.1 51.75 L21.35 51.55" fill="#a68884" fill-rule="evenodd" stroke="none"/>
      <path d="M48.95 12.35 Q47.65 21.15 47.35 30.15 47.2 35.85 48.05 41.5 L48.3 45.2 Q47.35 44.0 45.65 44.45 L44.6 45.2 44.55 12.65 Q45.1 13.75 46.65 13.9 48.4 13.7 48.95 12.35 M48.1 48.55 L47.7 49.65 Q46.8 49.75 46.3 49.2 L48.1 48.55 M35.55 23.9 L35.35 25.1 Q34.65 36.55 35.4 48.0 L35.0 47.8 Q33.2 47.3 32.2 48.6 31.7 47.3 31.7 45.7 31.65 43.75 31.85 41.85 32.7 32.75 32.05 23.7 L32.2 23.85 Q33.9 25.2 35.55 23.9 M20.1 34.85 L23.2 34.9 23.55 48.15 20.8 48.1 20.1 34.85 M9.05 43.7 Q8.8 41.5 10.2 39.95 L11.4 40.05 11.6 40.3 Q12.3 41.75 12.0 43.35 L11.45 43.15 Q10.1 42.75 9.05 43.7 M11.75 47.7 L11.4 52.4 Q10.75 52.65 10.4 52.15 8.85 50.0 9.05 47.25 10.7 48.45 11.75 47.7" fill="#c7abb9" fill-rule="evenodd" stroke="none"/>
      <path d="M40.95 5.25 L40.85 7.15 Q31.5 2.15 21.3 5.15 11.65 8.15 7.05 17.05 1.4 28.1 6.05 39.7 L6.35 41.05 6.5 43.3 Q2.2 37.0 2.0 28.6 2.3 17.35 9.8 9.9 17.25 2.4 28.5 2.1 35.45 2.3 40.95 5.25 M41.0 14.95 L41.95 38.3 39.25 40.75 Q39.05 29.85 39.9 19.05 40.15 15.65 37.2 14.75 33.5 13.75 30.2 15.55 L28.85 16.2 29.3 44.85 27.4 45.1 Q27.1 37.6 27.45 30.1 27.6 26.9 24.6 26.45 L21.6 26.15 Q19.55 26.25 17.8 27.05 L16.8 27.7 17.4 42.55 15.9 41.9 15.3 38.55 14.45 37.8 12.05 37.4 10.7 34.3 Q8.2 28.0 11.6 22.15 16.7 14.25 25.95 12.6 30.25 11.95 35.2 12.55 38.6 13.0 41.0 14.95 M50.85 42.75 Q50.6 40.15 51.5 38.1 53.35 33.65 53.2 28.65 53.15 26.45 52.6 24.4 51.5 20.6 52.05 16.5 54.75 21.85 54.95 28.6 54.75 36.6 50.85 42.75 M38.55 53.05 L38.7 51.3 41.85 49.6 41.95 51.4 38.55 53.05 M25.95 54.9 L26.6 53.3 29.45 53.4 29.55 53.85 Q29.8 54.75 30.85 54.9 L25.95 54.9 M15.15 51.45 L15.1 49.4 17.25 50.65 Q17.2 51.75 17.3 52.6 L15.15 51.45" fill="#e3d7d7" fill-rule="evenodd" stroke="none"/>
    </g>
  </defs>
</svg>
