<?xml version="1.0" encoding="UTF-8" standalone="no"?>
<svg xmlns:xlink="http://www.w3.org/1999/xlink" height="619.4px" width="297.65px" xmlns="http://www.w3.org/2000/svg">
  <g transform="matrix(1.0, 0.0, 0.0, 1.0, -2.0, 182.65)">
    <use height="281.65" transform="matrix(1.0, 0.0, 0.0, 1.0, 2.0, 155.1)" width="281.8" xlink:href="#sprite0"/>
  </g>
  <defs>
    <g id="sprite0" transform="matrix(1.0, 0.0, 0.0, 1.0, 0.0, 0.0)">
      <use height="188.85" transform="matrix(1.0, 0.0, 0.0, 1.0, 0.0, 92.8)" width="240.15" xlink:href="#shape0"/>
      <use height="120.3" transform="matrix(1.0, 0.0, 0.0, 1.0, 28.75, 0.0)" width="182.75" xlink:href="#sprite1"/>
      <use height="122.05" transform="matrix(1.0, 0.0, 0.0, 1.0, 158.4, 12.0)" width="123.4" xlink:href="#shape3"/>
    </g>
    <g id="shape0" transform="matrix(1.0, 0.0, 0.0, 1.0, 0.0, -92.8)">
      <path d="M41.85 135.7 L41.3 135.7 Q42.85 136.05 43.55 138.5 44.0 140.4 42.1 142.1 L40.45 143.5 Q39.55 144.35 39.15 145.15 38.3 147.0 38.35 149.7 38.35 152.15 39.05 153.7 40.65 157.35 38.15 158.55 L36.45 159.1 Q35.75 159.25 36.1 159.45 L37.3 160.0 Q34.25 159.0 32.35 156.15 30.0 152.4 30.5 147.05 30.95 141.95 33.75 138.85 L34.05 138.55 33.85 138.7 Q30.1 141.95 29.7 146.95 29.25 152.8 31.85 156.8 33.2 158.8 35.05 160.0 28.3 168.15 23.45 164.2 17.7 159.55 22.95 152.3 L24.7 152.4 Q19.8 149.35 17.7 145.65 15.85 142.45 16.35 139.25 16.75 136.4 18.75 134.4 20.45 132.7 22.6 132.45 14.65 132.95 12.75 124.05 L13.15 126.65 12.9 125.6 Q12.2 121.15 13.5 118.05 14.15 116.4 15.4 115.15 19.25 110.95 23.5 112.65 24.5 113.0 25.3 113.7 L26.0 114.55 Q26.85 115.8 26.45 116.95 24.75 121.75 24.25 125.6 23.5 130.2 25.0 130.45 29.2 131.3 31.1 132.05 35.55 133.5 38.35 136.0 L38.7 135.9 41.85 135.7 M7.6 133.0 Q9.4 131.65 13.5 131.1 L13.55 131.1 Q14.15 132.85 15.15 134.35 14.0 135.95 13.75 138.15 12.2 138.0 10.5 138.2 L9.9 138.3 8.5 138.65 7.4 139.05 7.45 139.0 Q6.65 139.4 6.5 139.85 L10.25 138.85 13.65 139.0 13.7 141.6 Q14.0 145.3 16.3 148.65 L12.65 148.75 Q1.6 147.9 1.35 144.45 1.15 141.8 1.85 139.05 3.55 135.2 7.6 133.0 M20.65 164.45 L20.55 164.8 Q19.35 168.65 14.1 169.05 11.9 169.2 9.95 167.2 8.1 165.2 8.5 162.95 L12.3 163.05 Q15.45 162.8 17.3 161.6 L18.75 160.15 19.45 160.9 Q19.75 162.8 20.65 164.45 M3.95 150.8 L4.85 151.2 11.15 152.8 17.05 153.4 19.8 152.9 19.7 153.85 Q19.25 156.7 16.95 158.15 12.3 161.2 7.1 159.55 3.75 158.45 3.45 154.65 3.25 152.7 3.95 150.8" fill="#ffffff" fill-rule="evenodd" stroke="none"/>
      <path d="M37.3 160.0 L36.1 159.45 Q35.75 159.25 36.45 159.1 L38.15 158.55 Q40.65 157.35 39.05 153.7 38.35 152.15 38.35 149.7 38.3 147.0 39.15 145.15 39.55 144.35 40.45 143.5 L42.1 142.1 Q44.0 140.4 43.55 138.5 42.85 136.05 41.3 135.7 L41.85 135.7 Q46.2 135.95 48.05 139.75 49.6 143.05 49.05 148.4 48.45 153.95 46.45 157.05 43.95 160.8 39.7 160.45 L37.3 160.0 M13.15 126.65 L12.75 124.05 Q14.65 132.95 22.6 132.45 20.45 132.7 18.75 134.4 16.75 136.4 16.35 139.25 15.85 142.45 17.7 145.65 19.8 149.35 24.7 152.4 L22.95 152.3 Q17.7 159.55 23.45 164.2 28.3 168.15 35.05 160.0 37.1 161.3 39.8 161.7 L42.15 161.7 Q39.1 167.35 31.85 168.45 28.35 169.0 25.65 167.8 23.1 166.7 21.65 164.3 20.3 161.95 20.25 158.95 20.2 155.85 21.65 152.8 15.4 147.4 14.9 141.45 14.45 137.45 16.4 134.6 14.05 131.05 13.15 126.65 M16.3 148.65 L18.8 151.7 16.1 152.05 10.65 151.3 5.35 150.0 Q2.8 149.15 1.8 147.05 0.05 143.35 1.85 139.05 1.15 141.8 1.35 144.45 1.6 147.9 12.65 148.75 L16.3 148.65 M20.65 164.45 L21.15 165.35 22.35 166.9 21.3 167.75 Q18.25 170.15 14.9 170.5 11.35 170.95 9.1 168.15 7.25 165.85 7.45 162.75 L8.5 162.95 Q8.1 165.2 9.95 167.2 11.9 169.2 14.1 169.05 19.35 168.65 20.55 164.8 L20.65 164.45 M18.75 160.15 L19.3 159.25 19.3 159.65 19.45 160.9 18.75 160.15 M3.95 150.8 Q3.25 152.7 3.45 154.65 3.75 158.45 7.1 159.55 12.3 161.2 16.95 158.15 19.25 156.7 19.7 153.85 L19.8 152.9 19.85 152.9 19.75 155.0 19.7 155.65 19.45 156.9 Q18.75 159.35 17.1 160.45 15.35 161.55 12.35 161.9 9.0 162.15 5.85 161.1 2.5 160.0 2.1 155.45 1.9 152.6 2.85 150.15 L3.95 150.8" fill="#c2d6d4" fill-rule="evenodd" stroke="none"/>
      <path d="M37.3 160.0 L39.7 160.45 Q43.95 160.8 46.45 157.05 48.45 153.95 49.05 148.4 49.6 143.05 48.05 139.75 46.2 135.95 41.85 135.7 46.9 135.85 49.0 139.55 50.85 142.85 50.3 148.6 49.7 154.75 47.45 158.15 45.45 161.15 42.45 161.65 39.35 168.85 31.95 170.0 28.45 170.55 25.55 169.2 L23.3 167.8 21.85 169.05 Q18.5 171.65 14.85 172.1 10.45 172.55 8.2 169.4 6.2 166.65 6.75 162.6 L5.35 162.2 Q1.65 160.95 1.2 156.1 0.9 152.7 2.3 149.7 1.3 148.8 0.8 147.5 -0.8 143.45 0.9 139.55 2.65 135.55 7.6 133.0 3.55 135.2 1.85 139.05 0.05 143.35 1.8 147.05 2.8 149.15 5.35 150.0 L10.65 151.3 16.1 152.05 18.8 151.7 16.3 148.65 Q14.0 145.3 13.7 141.6 L13.65 139.0 10.25 138.85 6.5 139.85 Q6.65 139.4 7.45 139.0 L7.4 139.05 8.5 138.65 9.9 138.3 10.5 138.2 Q12.2 138.0 13.75 138.15 14.0 135.95 15.15 134.35 14.15 132.85 13.55 131.1 12.55 128.45 12.35 125.15 12.1 120.95 13.5 118.05 12.2 121.15 12.9 125.6 L13.15 126.65 Q14.05 131.05 16.4 134.6 14.45 137.45 14.9 141.45 15.4 147.4 21.65 152.8 20.2 155.85 20.25 158.95 20.3 161.95 21.65 164.3 23.1 166.7 25.65 167.8 28.35 169.0 31.85 168.45 39.1 167.35 42.15 161.7 L39.8 161.7 Q37.1 161.3 35.05 160.0 33.2 158.8 31.85 156.8 29.25 152.8 29.7 146.95 30.1 141.95 33.85 138.7 L34.05 138.55 33.75 138.85 Q30.95 141.95 30.5 147.05 30.0 152.4 32.35 156.15 34.25 159.0 37.3 160.0 M38.7 135.9 L38.35 136.0 Q35.55 133.5 31.1 132.05 29.2 131.3 25.0 130.45 23.5 130.2 24.25 125.6 24.75 121.75 26.45 116.95 26.85 115.8 26.0 114.55 L25.3 113.7 26.65 115.25 Q27.45 116.65 27.1 117.8 25.4 122.55 25.0 125.8 24.4 129.75 25.9 130.0 34.15 131.7 38.7 135.9 M20.4 153.2 L20.4 153.5 20.5 153.3 20.4 153.2 M8.5 162.95 L7.45 162.75 Q7.25 165.85 9.1 168.15 11.35 170.95 14.9 170.5 18.25 170.15 21.3 167.75 L22.35 166.9 21.15 165.35 20.65 164.45 Q19.75 162.8 19.45 160.9 L19.3 159.65 19.3 159.25 18.75 160.15 17.3 161.6 Q15.45 162.8 12.3 163.05 L8.5 162.95 M19.8 152.9 L17.05 153.4 11.15 152.8 4.85 151.2 3.95 150.8 2.85 150.15 Q1.9 152.6 2.1 155.45 2.5 160.0 5.85 161.1 9.0 162.15 12.35 161.9 15.35 161.55 17.1 160.45 18.75 159.35 19.45 156.9 L19.7 155.65 19.75 155.0 19.85 152.9 19.8 152.9" fill="#1d3f60" fill-rule="evenodd" stroke="none"/>
      <path d="M45.6 213.55 Q47.4 213.85 48.65 215.25 50.0 216.7 49.75 218.35 48.9 224.55 52.85 233.95 55.55 233.05 57.65 235.1 60.25 237.7 60.1 244.45 59.95 250.65 58.5 258.1 L55.9 270.8 Q54.7 277.6 50.15 280.3 46.35 282.55 42.2 281.05 39.9 280.25 26.6 274.45 L9.1 266.6 Q10.05 254.45 20.65 253.1 26.7 252.3 34.15 254.9 37.7 248.6 45.1 240.9 43.7 237.9 42.35 231.8 40.75 224.65 40.8 219.3 40.85 216.0 42.4 214.5 43.65 213.25 45.6 213.55" fill="#0d1e74" fill-rule="evenodd" stroke="none"/>
      <path d="M57.2 235.7 Q59.55 238.05 59.4 243.95 59.25 249.75 57.6 257.05 55.6 266.15 55.25 268.75 54.45 275.3 50.1 278.5 48.4 279.85 46.55 280.3 L43.6 280.25 Q39.75 278.9 11.4 265.5 12.8 250.05 33.55 255.8 39.6 257.5 43.15 261.35 47.05 265.5 48.25 272.75 48.65 267.1 44.55 261.85 40.55 256.8 35.2 255.2 38.45 250.15 45.2 242.3 46.55 243.85 49.55 245.0 47.3 243.85 46.3 241.05 44.75 237.85 43.3 231.95 41.5 224.7 41.55 219.5 41.6 216.15 42.8 214.65 43.8 213.4 45.35 213.65 46.8 213.95 47.75 215.3 48.8 216.7 48.55 218.35 48.05 221.35 49.9 227.65 51.0 231.55 52.5 234.95 53.65 237.2 55.25 238.6 53.7 236.55 53.15 234.6 55.35 233.85 57.2 235.7" fill="#6fb9d7" fill-rule="evenodd" stroke="none"/>
      <path d="M29.35 258.3 Q33.0 254.7 40.1 257.55 28.4 253.2 25.75 273.35 25.05 272.8 24.8 273.0 25.75 261.95 29.35 258.3" fill="#0d1e74" fill-rule="evenodd" stroke="none"/>
      <path d="M18.7 256.25 Q22.3 253.4 29.45 254.6 15.3 252.95 15.7 269.25 15.0 268.7 14.8 268.85 14.55 259.65 18.7 256.25" fill="#0d1e74" fill-rule="evenodd" stroke="none"/>
      <path d="M56.8 237.7 Q58.35 239.45 58.15 243.25 57.85 247.2 53.6 253.95 49.45 260.35 45.6 263.35 43.75 260.45 40.9 258.25 38.15 256.1 35.2 255.2 38.45 250.15 45.2 242.3 46.55 243.85 49.55 245.0 48.55 244.5 47.55 243.3 L48.4 243.9 Q46.65 239.75 44.85 233.7 42.85 227.0 42.7 224.05 42.55 219.8 48.25 225.65 48.35 228.5 50.0 233.65 51.95 239.35 53.8 241.1 54.65 242.25 55.0 240.9 55.35 239.6 54.85 238.2 L55.25 238.6 54.45 237.45 Q54.85 236.9 55.5 236.95 56.2 237.0 56.8 237.7" fill="#3c84bb" fill-rule="evenodd" stroke="none"/>
      <path d="M13.0 262.7 Q14.1 263.55 24.8 268.55 36.1 273.85 40.7 275.45 45.75 277.2 49.75 275.5 53.8 273.8 55.1 269.5 L55.15 269.45 Q54.2 275.6 49.95 278.65 48.3 279.9 46.45 280.3 L43.6 280.25 Q39.75 278.9 11.4 265.5 11.6 263.4 12.15 261.7 L13.0 262.7" fill="#3c84bb" fill-rule="evenodd" stroke="none"/>
      <path d="M39.45 149.8 Q38.45 146.55 40.35 143.65 49.8 133.45 80.25 116.35 L84.3 125.3 Q48.7 152.75 43.95 152.95 40.5 153.15 39.45 149.8" fill="#0d1e74" fill-rule="evenodd" stroke="none"/>
      <path d="M40.25 149.5 Q39.2 147.0 41.05 144.2 L47.1 137.9 Q49.8 135.3 53.15 132.9 57.8 129.6 79.35 116.5 L84.0 125.7 Q49.6 151.7 44.85 151.95 41.4 152.1 40.25 149.5" fill="#3c84bb" fill-rule="evenodd" stroke="none"/>
      <path d="M82.5 122.6 Q49.2 142.15 43.95 145.85 38.65 149.55 42.05 143.15 L47.65 137.35 Q50.25 134.95 53.7 132.55 58.25 129.3 79.35 116.5 L82.5 122.6" fill="#6fb9d7" fill-rule="evenodd" stroke="none"/>
      <path d="M39.7 161.15 Q42.6 150.9 46.1 142.85 48.2 137.9 94.95 171.0 85.8 198.9 82.95 200.95 80.85 202.4 79.55 206.05 78.35 209.5 78.6 212.35 80.5 217.25 75.45 221.3 70.85 224.85 62.8 226.25 54.6 227.6 47.8 225.9 40.25 223.95 37.85 218.7 31.6 207.25 35.2 182.35 36.65 171.95 39.7 161.15" fill="#2d002d" fill-rule="evenodd" stroke="none"/>
      <path d="M40.6 162.15 Q43.4 152.3 46.75 144.55 48.8 139.85 93.7 171.55 84.95 198.35 82.15 200.4 80.05 201.8 78.4 205.8 76.75 209.75 77.0 212.35 78.95 216.75 74.3 220.4 70.0 223.65 62.45 224.85 L48.35 224.35 Q41.15 222.45 38.85 217.45 32.85 206.45 36.3 182.5 37.7 172.55 40.6 162.15" fill="#611283" fill-rule="evenodd" stroke="none"/>
      <path d="M62.1 207.7 Q60.6 208.95 59.6 215.55 58.8 221.15 58.95 222.65 L61.1 225.0 Q53.7 225.95 47.75 224.2 41.05 222.2 38.85 217.45 35.1 210.65 35.05 198.15 35.05 187.25 37.8 173.65 37.7 188.1 43.1 196.5 46.5 201.95 53.95 204.15 L59.2 205.15 62.4 205.05 Q63.9 204.65 63.85 205.5 63.8 206.35 62.1 207.7" fill="#4c096a" fill-rule="evenodd" stroke="none"/>
      <path d="M75.8 206.15 Q73.65 207.5 70.45 211.0 69.7 211.85 69.0 211.25 68.3 210.7 69.05 209.8 69.85 208.85 72.15 207.55 74.5 206.25 75.8 206.15" fill="#2d002d" fill-rule="evenodd" stroke="none"/>
      <path d="M85.0 174.5 Q82.15 176.4 78.85 176.95 75.75 177.5 71.25 176.95 L61.1 175.0 Q49.35 172.3 45.4 163.8 41.8 156.0 45.7 146.7 L91.8 167.95 90.9 169.0 Q87.75 172.65 85.0 174.5" fill="#4c096a" fill-rule="evenodd" stroke="none"/>
      <path d="M133.55 143.75 Q113.2 159.2 116.95 170.4 102.95 176.85 86.15 176.25 70.65 175.7 58.45 169.55 46.1 163.3 43.0 154.15 39.5 144.05 48.9 133.95 59.05 126.7 72.1 122.85 72.3 120.2 73.8 117.2 75.4 114.0 77.1 113.15 L98.7 112.5 115.9 113.85 Q125.85 114.9 175.7 115.3 177.25 119.0 177.3 123.25 177.4 127.55 175.95 131.15 174.45 135.0 171.5 137.25 168.3 139.7 163.9 139.9 148.65 140.45 133.55 143.75" fill="#660700" fill-rule="evenodd" stroke="none"/>
      <path d="M127.4 147.8 Q124.3 150.4 122.2 152.8 116.0 160.05 116.9 168.4 102.85 174.8 86.3 174.7 70.9 174.6 59.0 169.15 46.95 163.6 44.0 155.0 40.75 145.55 50.15 135.55 57.75 130.25 64.05 127.45 72.35 123.85 83.95 121.8 79.55 121.75 73.7 123.05 73.3 121.55 74.4 118.95 75.45 116.4 77.2 114.35 95.45 112.5 115.9 114.6 125.85 115.65 161.7 112.4 L159.9 119.9 Q158.8 124.6 158.6 127.75 157.9 136.65 163.2 138.9 L142.9 141.2 Q131.55 142.95 125.05 144.85 L131.65 144.4 127.4 147.8" fill="#ffad00" fill-rule="evenodd" stroke="none"/>
      <path d="M163.05 108.15 Q160.25 111.5 158.45 118.75 157.4 123.15 157.1 126.7 151.0 126.9 141.4 128.7 L127.65 131.45 Q127.55 133.55 124.75 134.75 121.95 135.95 117.9 135.8 113.5 135.6 109.5 133.85 104.95 131.8 102.0 128.1 97.95 123.15 97.45 120.0 96.85 116.15 100.85 113.55 L115.9 114.6 Q119.65 115.0 138.75 111.45 158.1 107.75 163.05 108.15" fill="#f27c01" fill-rule="evenodd" stroke="none"/>
      <path d="M76.45 122.5 L74.65 122.8 Q75.3 118.45 78.85 114.2 L80.5 114.05 Q77.1 118.15 76.45 122.5" fill="#e30000" fill-rule="evenodd" stroke="none"/>
      <path d="M79.25 122.05 L77.45 122.3 Q78.2 118.0 81.6 113.95 L83.25 113.85 Q81.65 115.75 80.7 117.55 79.55 119.85 79.25 122.05" fill="#e30000" fill-rule="evenodd" stroke="none"/>
      <path d="M81.35 158.25 Q94.1 161.8 107.15 160.95 L113.6 161.35 Q115.3 162.0 114.55 163.05 113.8 164.15 111.1 164.95 108.1 165.85 104.25 165.9 90.5 166.1 79.05 163.3 68.25 160.6 61.3 155.6 54.45 150.7 52.85 144.65 51.15 138.35 55.55 132.0 L59.3 129.85 Q54.35 139.8 61.8 147.75 68.05 154.55 81.35 158.25" fill="#e30000" fill-rule="evenodd" stroke="none"/>
      <path d="M47.8 138.4 L50.15 135.55 53.25 133.45 Q48.8 139.0 49.5 144.85 50.2 150.75 55.9 155.65 61.85 160.85 72.05 164.0 83.05 167.4 97.55 168.0 L92.55 172.9 Q78.8 172.5 68.25 169.25 58.45 166.2 52.55 161.15 46.85 156.2 45.65 150.3 44.4 144.3 47.8 138.4" fill="#e30000" fill-rule="evenodd" stroke="none"/>
      <path d="M151.55 161.3 Q149.65 168.85 144.25 177.5 134.2 193.6 117.25 205.05 110.9 209.35 105.55 211.6 100.55 213.65 99.3 212.85 91.8 208.2 83.45 206.55 73.7 204.65 69.05 208.45 67.55 209.75 67.85 207.2 68.2 204.7 70.2 200.2 75.55 188.3 84.75 179.05 94.8 168.9 108.5 158.95 125.2 146.85 137.2 143.15 142.55 141.5 146.5 143.2 150.4 144.95 151.8 149.55 153.3 154.4 151.55 161.3" fill="#2d002d" fill-rule="evenodd" stroke="none"/>
      <path d="M149.8 161.25 Q147.85 168.55 142.4 177.25 132.35 193.3 116.6 203.7 110.65 207.6 105.7 209.55 101.1 211.3 99.85 210.5 92.9 206.2 83.7 205.4 73.9 204.5 69.05 208.45 67.55 209.75 67.85 206.95 68.2 204.15 70.15 199.35 75.45 186.55 84.4 177.05 L94.85 169.1 107.9 159.5 Q124.65 147.8 135.85 144.35 141.2 142.65 145.1 144.15 148.9 145.65 150.2 150.0 151.55 154.55 149.8 161.25" fill="#611283" fill-rule="evenodd" stroke="none"/>
      <path d="M149.7 161.55 Q147.75 168.75 142.4 177.25 133.05 192.25 118.4 202.45 112.85 206.35 107.7 208.65 103.15 210.75 100.8 210.7 96.25 209.3 95.8 202.25 95.25 193.65 101.75 180.45 108.55 166.5 120.7 155.5 128.85 148.1 136.8 144.05 141.95 142.7 145.55 144.35 149.15 146.05 150.3 150.4 151.5 154.95 149.7 161.55" fill="#2d002d" fill-rule="evenodd" stroke="none"/>
      <path d="M148.75 162.35 Q146.85 169.3 141.75 177.6 132.9 192.2 119.15 202.2 113.95 206.0 109.1 208.25 104.85 210.25 102.7 210.25 98.4 208.9 98.05 202.05 97.6 193.75 103.75 180.9 110.2 167.35 121.65 156.65 129.35 149.45 136.8 145.5 L145.0 145.75 Q148.35 147.35 149.4 151.55 150.5 155.95 148.75 162.35" fill="#2d002d" fill-rule="evenodd" stroke="none"/>
      <path d="M157.25 163.1 Q166.15 155.15 176.5 150.5 186.7 145.9 196.95 145.05 207.35 144.2 216.35 147.35 225.75 150.65 232.35 157.9 237.1 163.1 239.05 170.05 240.9 176.75 239.7 183.45 238.5 190.35 234.3 195.4 229.75 200.85 222.65 203.0 201.15 209.55 179.55 218.3 158.8 226.7 142.3 235.45 134.55 239.55 128.45 239.55 123.0 239.5 119.5 236.15 116.3 233.0 115.45 227.65 114.6 222.4 116.2 216.4 118.65 207.4 124.7 191.25 129.6 177.95 135.0 165.1 118.45 172.65 102.35 182.2 106.85 170.95 113.4 163.7 119.0 157.5 130.95 149.45 139.45 143.65 148.25 142.1 157.55 140.4 160.65 144.7 162.25 146.85 161.1 151.5 L157.25 163.1" fill="#0d1e74" fill-rule="evenodd" stroke="none"/>
      <path d="M158.4 154.9 L152.85 169.5 Q162.15 159.75 173.0 153.95 183.35 148.45 193.9 147.0 204.3 145.7 213.5 148.6 222.85 151.5 229.6 158.4 234.45 163.3 236.4 170.0 238.25 176.4 237.05 182.9 235.8 189.5 231.5 194.35 227.0 199.6 219.9 201.7 180.65 213.45 143.1 232.95 135.4 236.95 129.6 237.05 124.35 237.2 121.05 234.15 118.05 231.35 117.35 226.25 116.65 221.35 118.25 215.45 120.6 206.7 127.2 189.5 132.55 175.4 137.9 162.6 119.1 170.9 100.35 181.8 104.9 170.55 109.85 164.95 114.3 159.95 125.85 152.3 135.0 146.15 144.85 143.35 156.05 140.15 159.25 144.35 161.1 146.85 158.4 154.9" fill="#6fb9d7" fill-rule="evenodd" stroke="none"/>
      <path d="M127.05 159.25 Q137.7 153.45 143.45 151.65 141.25 154.55 137.7 162.7 119.0 170.95 100.35 181.8 104.2 172.4 107.9 167.35 111.6 162.4 118.6 157.25 113.95 161.95 112.8 167.7 118.25 164.0 127.05 159.25 M137.7 162.7 L137.9 162.6 131.65 177.8 Q135.05 168.8 137.7 162.7 M118.15 215.85 L118.25 215.45 Q120.6 206.7 127.2 189.5 L128.45 186.3 Q123.9 198.9 118.15 215.85" fill="#286aae" fill-rule="evenodd" stroke="none"/>
      <path d="M107.45 177.75 Q110.7 175.05 117.05 171.5 123.0 168.15 127.4 166.35 133.05 164.05 134.55 164.1 121.35 170.1 107.45 177.75" fill="#6fb9d7" fill-rule="evenodd" stroke="none"/>
      <path d="M119.2 231.8 Q118.5 229.5 119.2 227.0 120.25 223.35 124.75 216.35 134.95 200.55 166.05 178.05 181.1 167.2 199.65 164.55 L214.2 163.9 Q220.45 164.35 225.0 165.85 236.2 169.6 237.55 177.45 237.65 185.7 233.25 192.2 228.45 199.2 219.9 201.7 180.6 213.45 143.1 232.95 134.1 237.6 127.7 237.0 121.95 236.45 119.2 231.8" fill="#286aae" fill-rule="evenodd" stroke="none"/>
      <path d="M198.6 145.55 Q209.1 145.95 211.65 154.55 212.65 157.75 212.05 161.3 211.6 164.5 210.25 166.1 208.9 167.8 201.05 173.85 192.7 180.35 189.9 182.9 L208.25 165.35 Q210.0 163.6 210.45 160.2 210.9 156.5 209.4 153.35 207.7 149.65 203.75 147.95 199.05 146.0 191.95 147.2 191.55 146.25 198.6 145.55" fill="#0d1e74" fill-rule="evenodd" stroke="none"/>
      <path d="M227.75 156.85 Q222.35 151.45 228.5 156.7 232.3 160.05 234.0 165.25 235.25 169.2 234.85 171.9 234.3 175.65 231.45 177.15 L220.35 183.35 Q209.9 189.15 206.65 190.15 225.75 178.85 229.95 175.35 231.85 173.8 232.2 172.15 233.05 168.7 231.75 164.15 230.45 159.55 227.75 156.85" fill="#0d1e74" fill-rule="evenodd" stroke="none"/>
      <path d="M135.4 163.6 Q137.0 159.65 138.35 157.5 140.15 154.75 143.45 151.65 141.15 155.1 137.9 162.6 136.7 165.4 135.35 166.2 134.0 167.0 135.4 163.6" fill="#0d1e74" fill-rule="evenodd" stroke="none"/>
      <path d="M152.85 169.5 Q150.8 171.9 148.1 175.8 145.3 179.9 143.6 182.95 148.0 172.4 154.25 166.25 157.25 163.35 156.3 164.9 L152.85 169.5" fill="#0d1e74" fill-rule="evenodd" stroke="none"/>
      <path d="M83.15 205.35 Q76.75 203.7 70.15 206.45 L67.85 207.4 Q77.15 196.7 81.2 193.3 88.15 187.45 97.45 184.8 94.4 192.65 93.6 196.6 92.2 203.35 94.3 207.8 88.75 205.75 83.15 205.35" fill="#4c096a" fill-rule="evenodd" stroke="none"/>
      <path d="M103.1 115.7 Q104.2 112.15 112.7 92.8 L123.5 101.6 Q116.45 114.5 114.9 117.95 113.2 120.75 110.7 121.9 108.5 122.9 106.4 122.35 104.35 121.8 103.35 120.05 102.35 118.2 103.1 115.7" fill="#0d1e74" fill-rule="evenodd" stroke="none"/>
      <path d="M120.8 103.15 L113.5 118.0 Q112.5 119.8 110.55 120.6 L107.05 120.9 Q105.25 120.45 104.5 119.0 103.65 117.25 104.55 114.75 105.65 111.65 112.7 95.25 L120.8 103.15" fill="#3c84bb" fill-rule="evenodd" stroke="none"/>
      <path d="M141.7 114.25 Q138.35 114.8 125.55 123.85 130.1 119.35 137.05 114.45 L141.7 114.25" fill="#7c1e02" fill-rule="evenodd" stroke="none"/>
      <path d="M157.65 112.75 Q154.75 119.6 154.0 126.0 152.95 134.95 156.85 139.45 L152.65 139.9 Q148.75 135.35 149.9 126.3 150.7 119.9 153.65 113.1 L157.65 112.75" fill="#e30000" fill-rule="evenodd" stroke="none"/>
      <path d="M149.95 113.35 Q146.6 120.8 145.65 127.3 144.4 136.25 148.6 140.4 L144.6 140.95 Q141.35 137.85 141.3 131.95 141.2 123.95 146.05 113.65 L149.95 113.35" fill="#e30000" fill-rule="evenodd" stroke="none"/>
      <path d="M157.65 112.75 Q154.55 120.15 153.9 126.9 L149.8 127.35 Q150.45 120.45 153.65 113.1 L157.65 112.75" fill="#b00000" fill-rule="evenodd" stroke="none"/>
      <path d="M149.95 113.35 Q146.4 121.1 145.6 127.95 L141.5 128.65 Q142.3 121.7 146.05 113.65 L149.95 113.35" fill="#b00000" fill-rule="evenodd" stroke="none"/>
    </g>
    <g id="sprite1" transform="matrix(1.0, 0.0, 0.0, 1.0, -0.1, 0.0)">
      <use height="119.8" transform="matrix(1.0, 0.0, 0.0, 1.0, 0.1, 0.0)" width="182.75" xlink:href="#shape1"/>
      <use height="25.95" transform="matrix(1.0, 0.0, 0.0, 1.0, 85.95, 32.95)" width="54.55" xlink:href="#shape2"/>
    </g>
    <g id="shape1" transform="matrix(1.0, 0.0, 0.0, 1.0, 0.0, 0.0)">
      <path d="M176.8 50.3 Q178.35 50.4 179.85 51.5 180.95 52.35 181.65 53.55 180.35 51.5 177.9 50.55 L176.8 50.3 M182.1 63.95 Q178.9 73.25 170.7 78.9 168.45 80.4 166.05 81.55 165.45 76.85 163.45 73.5 L163.3 73.9 Q162.3 75.9 159.95 77.45 155.7 80.25 149.35 80.0 141.9 79.75 137.65 77.65 132.9 75.2 132.8 70.65 132.75 67.6 135.0 65.2 L137.9 62.9 Q139.0 62.25 140.2 61.75 142.35 60.8 144.7 60.55 L146.6 60.4 145.95 43.1 Q149.9 45.25 150.6 49.7 151.45 55.3 150.2 60.7 156.45 61.55 161.45 65.35 167.9 60.1 172.1 52.95 173.2 50.7 175.6 50.35 L175.8 50.35 Q173.9 51.25 172.1 52.95 L174.75 52.75 Q176.25 53.3 177.35 54.85 180.15 58.8 178.05 65.0 176.3 70.15 170.85 75.95 L168.2 78.7 Q167.6 79.35 168.8 78.7 171.35 77.3 174.35 74.75 177.65 71.85 179.95 68.7 L182.1 63.95 M59.5 92.75 L59.05 95.45 58.15 98.75 Q56.9 102.15 54.45 105.0 47.45 112.95 36.6 113.8 25.55 114.25 16.7 107.65 8.1 101.35 2.5 92.1 0.1 88.1 0.0 83.5 0.3 78.85 5.9 75.85 11.15 73.0 14.85 74.05 17.95 74.95 23.1 79.9 47.65 103.7 53.55 93.35 54.9 90.95 54.95 88.15 55.0 85.7 54.05 81.95 L51.8 73.95 Q50.05 68.1 49.0 63.1 46.95 53.7 50.5 50.25 53.5 47.35 59.4 49.35 61.85 50.2 62.6 49.85 63.2 49.55 62.35 48.5 L59.85 46.45 Q58.15 45.25 56.55 44.65 L55.2 44.4 58.45 45.15 60.4 45.85 62.55 46.85 65.45 48.85 66.25 49.8 Q67.2 51.8 66.3 53.9 65.75 55.25 64.6 55.5 63.35 55.5 62.4 54.75 61.25 54.1 59.95 54.1 L57.9 54.35 Q56.45 54.8 55.25 55.95 53.55 57.45 53.0 59.75 52.35 62.25 53.5 65.1 58.2 77.65 59.25 86.3 L59.15 86.85 Q58.75 89.75 59.5 92.75 M32.7 81.45 Q35.45 83.25 38.55 84.2 42.4 85.2 44.9 82.15 45.5 81.35 45.5 80.3 45.5 76.15 43.75 72.15 46.4 77.25 46.0 81.0 45.65 83.95 47.05 85.7 47.85 86.55 49.9 87.65 50.55 88.05 50.35 88.3 L49.0 88.6 Q46.35 88.65 42.1 87.4 35.9 85.55 32.7 81.45 M134.6 65.3 Q129.7 66.25 124.4 68.0 L124.85 56.95 Q125.9 54.15 128.5 53.2 130.85 52.45 132.5 54.3 135.05 57.15 134.7 61.25 L129.35 63.8 134.75 64.0 134.6 65.3 M102.3 77.35 L93.25 82.3 92.95 81.9 91.85 80.2 Q86.95 72.15 86.3 62.8 86.55 59.9 88.3 57.85 90.15 55.6 92.8 55.3 95.55 54.9 97.85 56.95 100.45 59.2 101.65 63.8 L93.6 68.25 102.3 67.45 Q102.9 73.25 102.65 75.45 L102.3 77.35 M151.3 61.55 L146.4 61.85 Q145.1 62.35 144.65 63.35 144.45 63.7 144.4 64.15 L144.35 64.95 Q144.55 68.1 152.0 69.15 155.2 69.6 157.0 68.7 157.85 68.25 158.3 67.6 158.75 66.85 158.65 65.8 158.3 62.75 151.3 61.55 M145.3 79.1 Q149.55 79.7 153.55 79.25 157.55 78.8 159.15 77.55 153.95 78.65 146.2 77.35 137.5 75.85 133.9 72.15 134.2 74.95 137.6 76.85 140.55 78.5 145.3 79.1 M39.8 112.65 Q51.05 110.9 57.1 100.05 47.95 108.8 39.0 110.9 32.7 112.35 22.95 110.7 32.05 113.85 39.8 112.65" fill="#111111" fill-rule="evenodd" stroke="none"/>
      <path d="M176.8 50.3 L177.9 50.55 Q180.35 51.5 181.65 53.55 182.9 55.6 182.75 57.95 L182.1 63.95 179.95 68.7 Q177.65 71.85 174.35 74.75 171.35 77.3 168.8 78.7 167.6 79.35 168.2 78.7 L170.85 75.95 Q176.3 70.15 178.05 65.0 180.15 58.8 177.35 54.85 176.25 53.3 174.75 52.75 L172.1 52.95 Q173.9 51.25 175.8 50.35 L176.8 50.3 M0.0 83.5 Q0.0 79.25 2.35 75.55 4.25 72.55 7.35 70.85 11.75 68.45 16.5 69.5 19.65 70.3 22.05 72.4 L32.7 81.45 Q35.9 85.55 42.1 87.4 46.35 88.65 49.0 88.6 L50.35 88.3 Q50.55 88.05 49.9 87.65 47.85 86.55 47.05 85.7 45.65 83.95 46.0 81.0 46.4 77.25 43.75 72.15 L41.5 66.0 Q40.25 62.3 39.95 58.3 39.6 53.4 42.45 49.35 L46.1 46.0 Q49.45 44.2 53.05 44.25 L55.2 44.4 56.55 44.65 Q58.15 45.25 59.85 46.45 L62.35 48.5 Q63.2 49.55 62.6 49.85 61.85 50.2 59.4 49.35 53.5 47.35 50.5 50.25 46.95 53.7 49.0 63.1 50.05 68.1 51.8 73.95 L54.05 81.95 Q55.0 85.7 54.95 88.15 54.9 90.95 53.55 93.35 47.65 103.7 23.1 79.9 17.95 74.95 14.85 74.05 11.15 73.0 5.9 75.85 0.3 78.85 0.0 83.5 M145.3 79.1 Q140.55 78.5 137.6 76.85 134.2 74.95 133.9 72.15 137.5 75.85 146.2 77.35 153.95 78.65 159.15 77.55 157.55 78.8 153.55 79.25 149.55 79.7 145.3 79.1 M39.8 112.65 Q32.05 113.85 22.95 110.7 32.7 112.35 39.0 110.9 47.95 108.8 57.1 100.05 51.05 110.9 39.8 112.65" fill="#363636" fill-rule="evenodd" stroke="none"/>
      <path d="M166.05 81.55 L166.1 82.2 Q166.95 90.7 160.6 97.8 155.15 103.85 144.95 108.35 136.1 112.2 125.45 114.2 115.85 115.95 108.7 115.6 100.9 118.9 93.7 119.6 86.7 120.3 81.25 118.5 75.8 116.75 72.75 112.9 69.55 108.9 69.45 103.25 65.55 102.1 62.95 99.3 60.6 96.75 59.6 93.25 L59.5 92.75 Q58.75 89.75 59.15 86.85 L59.25 86.3 Q59.75 83.45 61.3 81.6 L62.45 80.3 Q63.25 79.5 64.1 78.85 67.15 76.65 71.15 76.45 L73.4 76.5 Q79.1 76.9 86.4 80.8 82.75 78.95 78.6 78.15 L69.2 77.9 Q67.5 78.35 66.0 79.1 61.9 81.5 61.0 86.25 60.4 89.35 61.25 92.55 62.15 96.1 64.85 98.75 L64.9 98.8 65.7 99.45 69.6 101.65 Q70.0 100.15 70.55 98.75 L72.25 94.85 Q70.7 100.25 71.6 105.65 72.4 110.15 75.85 113.45 79.7 117.15 85.05 117.95 95.7 119.55 105.6 115.15 L92.95 115.6 85.5 115.0 Q81.0 113.95 77.7 110.8 73.15 106.35 73.45 99.95 73.6 97.35 74.2 94.85 75.25 90.6 77.9 87.05 L75.15 86.35 77.1 85.8 Q78.4 85.75 79.55 86.55 L80.45 87.5 80.95 88.6 78.85 87.5 Q76.4 90.9 77.35 94.9 78.25 98.6 80.7 101.25 83.7 104.4 87.5 106.7 90.7 108.65 94.25 110.15 107.6 115.55 121.9 113.6 131.4 112.35 140.3 108.75 146.55 106.05 152.45 102.4 157.7 99.1 161.2 94.05 164.45 89.4 164.8 83.8 165.1 79.65 163.85 75.6 L163.3 73.9 163.45 73.5 Q165.45 76.85 166.05 81.55 M75.9 106.8 Q79.3 112.7 86.0 113.9 92.0 114.9 97.75 113.2 L90.4 110.15 89.65 109.75 Q86.15 107.95 83.4 105.85 L83.3 105.8 79.2 102.1 78.55 101.35 Q75.8 97.95 75.5 94.55 73.9 98.8 74.6 102.9 74.95 105.0 75.9 106.8" fill="#7d1d00" fill-rule="evenodd" stroke="none"/>
      <path d="M164.2 78.75 Q164.0 80.2 163.1 80.2 162.15 80.1 162.45 78.7 162.65 77.2 163.6 77.25 164.45 77.25 164.2 78.75 M163.25 86.65 Q162.95 88.15 162.1 88.1 161.2 88.1 161.45 86.6 161.65 85.05 162.6 85.1 163.5 85.1 163.25 86.65 M115.5 88.8 Q116.0 88.3 116.6 88.4 117.25 88.35 117.65 88.85 118.05 89.2 118.0 89.85 L117.45 90.9 Q117.0 91.3 116.35 91.3 115.75 91.3 115.35 90.85 114.9 90.4 115.0 89.85 115.0 89.15 115.5 88.8 M104.15 96.3 Q104.15 95.6 104.7 95.2 105.15 94.8 105.8 94.8 106.4 94.8 106.8 95.25 107.2 95.7 107.15 96.35 107.1 96.95 106.65 97.35 106.15 97.8 105.55 97.75 104.9 97.75 104.5 97.3 104.05 96.85 104.15 96.3 M105.95 86.35 Q106.45 85.85 107.05 85.9 107.7 85.85 108.1 86.35 108.5 86.75 108.45 87.4 L107.9 88.45 Q107.45 88.85 106.8 88.85 106.2 88.85 105.8 88.4 105.35 87.95 105.45 87.35 105.5 86.7 105.95 86.35 M125.7 92.15 Q125.75 91.55 126.25 91.1 126.7 90.7 127.35 90.7 127.95 90.7 128.35 91.15 128.8 91.55 128.75 92.15 L128.2 93.2 Q127.7 93.6 127.1 93.6 126.45 93.6 126.05 93.15 125.65 92.75 125.7 92.15 M124.3 82.85 Q123.6 82.85 123.25 82.45 122.8 82.0 122.9 81.4 122.9 80.8 123.45 80.35 123.85 79.95 124.55 79.95 125.15 79.95 125.55 80.4 125.95 80.85 125.9 81.45 125.85 82.05 125.4 82.5 L124.3 82.85" fill="#996400" fill-rule="evenodd" stroke="none"/>
      <path d="M164.2 78.75 Q164.45 77.25 163.6 77.25 162.65 77.2 162.45 78.7 162.15 80.1 163.1 80.2 164.0 80.2 164.2 78.75 M163.3 73.9 L163.85 75.6 Q165.1 79.65 164.8 83.8 163.85 94.05 151.1 100.3 145.55 102.95 137.1 104.9 128.25 106.95 119.4 107.5 97.7 108.6 89.55 100.3 83.8 94.45 83.2 91.25 83.0 90.4 83.2 88.9 L83.1 86.65 Q82.8 85.35 81.15 84.45 79.6 83.6 77.45 83.3 72.35 82.65 69.6 85.0 66.3 87.85 65.3 90.75 64.4 93.15 65.15 96.05 65.9 99.2 64.95 98.85 L64.85 98.75 Q62.15 96.1 61.25 92.55 60.4 89.35 61.0 86.25 61.9 81.5 66.0 79.1 67.5 78.35 69.2 77.9 L78.6 78.15 Q82.75 78.95 86.4 80.8 L91.25 83.6 93.2 82.35 93.25 82.3 102.3 77.35 114.95 71.45 Q119.85 69.45 124.4 68.0 129.7 66.25 134.6 65.3 L135.0 65.2 Q132.75 67.6 132.8 70.65 132.9 75.2 137.65 77.65 141.9 79.75 149.35 80.0 155.7 80.25 159.95 77.45 162.3 75.9 163.3 73.9 M65.7 99.45 L64.9 98.8 64.95 98.85 65.7 99.45 M163.25 86.65 Q163.5 85.1 162.6 85.1 161.65 85.05 161.45 86.6 161.2 88.1 162.1 88.1 162.95 88.15 163.25 86.65 M105.95 86.35 Q105.5 86.7 105.45 87.35 105.35 87.95 105.8 88.4 106.2 88.85 106.8 88.85 107.45 88.85 107.9 88.45 L108.45 87.4 Q108.5 86.75 108.1 86.35 107.7 85.85 107.05 85.9 106.45 85.85 105.95 86.35 M104.15 96.3 Q104.05 96.85 104.5 97.3 104.9 97.75 105.55 97.75 106.15 97.8 106.65 97.35 107.1 96.95 107.15 96.35 107.2 95.7 106.8 95.25 106.4 94.8 105.8 94.8 105.15 94.8 104.7 95.2 104.15 95.6 104.15 96.3 M115.5 88.8 Q115.0 89.15 115.0 89.85 114.9 90.4 115.35 90.85 115.75 91.3 116.35 91.3 117.0 91.3 117.45 90.9 L118.0 89.85 Q118.05 89.2 117.65 88.85 117.25 88.35 116.6 88.4 116.0 88.3 115.5 88.8 M124.3 82.85 L125.4 82.5 Q125.85 82.05 125.9 81.45 125.95 80.85 125.55 80.4 125.15 79.95 124.55 79.95 123.85 79.95 123.45 80.35 122.9 80.8 122.9 81.4 122.8 82.0 123.25 82.45 123.6 82.85 124.3 82.85 M125.7 92.15 Q125.65 92.75 126.05 93.15 126.45 93.6 127.1 93.6 127.7 93.6 128.2 93.2 L128.75 92.15 Q128.8 91.55 128.35 91.15 127.95 90.7 127.35 90.7 126.7 90.7 126.25 91.1 125.75 91.55 125.7 92.15" fill="#ffed6c" fill-rule="evenodd" stroke="none"/>
      <path d="M124.4 68.0 Q119.85 69.45 114.95 71.45 115.85 66.45 115.35 60.15 114.75 52.65 112.35 45.35 110.7 40.35 106.2 37.85 101.85 35.35 97.3 36.65 92.2 38.05 89.2 43.5 86.45 48.65 86.1 56.1 85.95 59.45 86.3 62.8 86.95 72.15 91.85 80.2 L92.95 81.9 93.2 82.35 91.25 83.6 86.4 80.8 Q79.1 76.9 73.4 76.5 L71.15 76.45 Q63.5 64.95 62.4 54.75 63.35 55.5 64.6 55.5 65.75 55.25 66.3 53.9 67.2 51.8 66.25 49.8 L65.45 48.85 62.55 46.85 Q63.3 42.0 65.7 37.55 69.55 30.25 77.45 24.55 84.25 19.65 92.9 16.65 89.4 17.0 87.0 15.85 84.8 14.75 84.05 12.7 83.2 10.7 84.05 8.35 84.9 5.85 87.2 3.8 L86.0 4.55 Q89.0 2.45 92.9 2.1 98.0 1.6 103.3 4.1 108.55 6.55 112.35 11.2 109.4 11.65 110.05 11.9 L113.35 12.5 Q123.95 13.25 130.3 16.75 137.0 20.45 140.4 27.95 143.75 35.4 144.55 48.05 144.85 53.5 144.7 60.55 142.35 60.8 140.2 61.75 140.25 58.15 139.95 54.7 138.85 41.9 132.55 40.15 126.5 38.5 125.05 54.6 L124.85 56.95 124.4 68.0 M134.55 27.1 L130.65 26.9 Q128.8 27.6 127.8 29.6 131.65 26.55 134.7 29.0 138.05 31.6 139.85 40.6 139.35 29.6 134.55 27.1 M95.45 21.55 Q92.35 21.85 90.0 24.7 87.25 27.95 86.0 34.2 89.9 25.0 94.95 23.6 99.45 22.35 104.25 27.55 103.2 24.8 100.75 23.1 98.2 21.3 95.45 21.55" fill="#6fb9d7" fill-rule="evenodd" stroke="none"/>
      <path d="M134.55 27.1 Q139.35 29.6 139.85 40.6 138.05 31.6 134.7 29.0 131.65 26.55 127.8 29.6 128.8 27.6 130.65 26.9 L134.55 27.1 M95.45 21.55 Q98.2 21.3 100.75 23.1 103.2 24.8 104.25 27.55 99.45 22.35 94.95 23.6 89.9 25.0 86.0 34.2 87.25 27.95 90.0 24.7 92.35 21.85 95.45 21.55" fill="#0c1748" fill-rule="evenodd" stroke="none"/>
      <path d="M58.45 45.15 Q59.45 38.7 62.3 33.5 66.6 25.5 75.6 19.75 77.35 10.6 82.2 5.45 86.5 0.75 92.7 0.1 98.45 -0.55 104.35 2.4 110.25 5.45 114.45 11.25 125.45 12.0 131.85 15.45 138.55 19.0 142.0 26.45 144.85 32.75 145.95 43.1 L146.6 60.4 144.7 60.55 Q144.85 53.5 144.55 48.05 143.75 35.4 140.4 27.95 137.0 20.45 130.3 16.75 123.95 13.25 113.35 12.5 L110.05 11.9 Q109.4 11.65 112.35 11.2 108.55 6.55 103.3 4.1 98.0 1.6 92.9 2.1 89.0 2.45 86.0 4.55 80.55 9.75 77.85 18.65 L80.5 18.6 76.9 21.5 Q68.7 28.05 63.45 37.0 61.0 41.15 60.4 45.85 L58.45 45.15 M57.9 54.35 L59.95 54.1 60.95 63.95 Q61.9 71.6 64.1 78.85 63.25 79.5 62.45 80.3 L60.65 73.05 Q58.15 62.5 57.9 54.35" fill="#0d1e74" fill-rule="evenodd" stroke="none"/>
      <path d="M86.0 4.55 L87.2 3.8 Q84.9 5.85 84.05 8.35 83.2 10.7 84.05 12.7 84.8 14.75 87.0 15.85 89.4 17.0 92.9 16.65 84.25 19.65 77.45 24.55 69.55 30.25 65.7 37.55 63.3 42.0 62.55 46.85 L60.4 45.85 Q61.0 41.15 63.45 37.0 68.7 28.05 76.9 21.5 L80.5 18.6 77.85 18.65 Q80.55 9.75 86.0 4.55 M62.4 54.75 Q63.5 64.95 71.15 76.45 67.15 76.65 64.1 78.85 61.9 71.6 60.95 63.95 L59.95 54.1 Q61.25 54.1 62.4 54.75" fill="#3c84bb" fill-rule="evenodd" stroke="none"/>
      <path d="M135.0 65.2 L134.6 65.3 134.75 64.0 129.35 63.8 134.7 61.25 Q135.05 57.15 132.5 54.3 130.85 52.45 128.5 53.2 125.9 54.15 124.85 56.95 L125.05 54.6 Q126.5 38.5 132.55 40.15 138.85 41.9 139.95 54.7 140.25 58.15 140.2 61.75 139.0 62.25 137.9 62.9 L135.0 65.2 M114.95 71.45 L102.3 77.35 102.65 75.45 Q102.9 73.25 102.3 67.45 L93.6 68.25 101.65 63.8 Q100.45 59.2 97.85 56.95 95.55 54.9 92.8 55.3 90.15 55.6 88.3 57.85 86.55 59.9 86.3 62.8 85.95 59.45 86.1 56.1 86.45 48.65 89.2 43.5 92.2 38.05 97.3 36.65 101.85 35.35 106.2 37.85 110.7 40.35 112.35 45.35 114.75 52.65 115.35 60.15 115.85 66.45 114.95 71.45 M93.25 82.3 L93.2 82.35 92.95 81.9 93.25 82.3 M147.25 62.0 L151.55 61.75 Q157.8 62.9 158.05 65.5 158.2 66.5 157.65 67.2 L156.65 67.95 152.25 68.3 Q145.65 67.4 145.45 64.65 L145.45 64.15 Q145.55 63.0 146.6 62.35 L147.25 62.0 M75.9 106.8 L79.2 102.1 83.3 105.8 79.5 111.0 80.35 111.6 84.05 106.4 83.4 105.85 Q86.15 107.95 89.65 109.75 L86.8 114.0 88.0 114.15 90.4 110.15 97.75 113.2 Q92.0 114.9 86.0 113.9 79.3 112.7 75.9 106.8 74.95 105.0 74.6 102.9 73.9 98.8 75.5 94.55 75.8 97.95 78.55 101.35 L75.4 105.7 75.9 106.8" fill="#ffffff" fill-rule="evenodd" stroke="none"/>
      <path d="M64.85 98.75 L64.95 98.85 Q65.9 99.2 65.15 96.05 64.4 93.15 65.3 90.75 66.3 87.85 69.6 85.0 72.35 82.65 77.45 83.3 79.6 83.6 81.15 84.45 82.8 85.35 83.1 86.65 L83.2 88.9 Q83.0 90.4 83.2 91.25 83.8 94.45 89.55 100.3 97.7 108.6 119.4 107.5 128.25 106.95 137.1 104.9 145.55 102.95 151.1 100.3 163.85 94.05 164.8 83.8 164.45 89.4 161.2 94.05 157.7 99.1 152.45 102.4 146.55 106.05 140.3 108.75 131.4 112.35 121.9 113.6 107.6 115.55 94.25 110.15 90.7 108.65 87.5 106.7 83.7 104.4 80.7 101.25 78.25 98.6 77.35 94.9 76.4 90.9 78.85 87.5 L80.95 88.6 80.45 87.5 79.55 86.55 Q78.4 85.75 77.1 85.8 L75.15 86.35 77.9 87.05 Q75.25 90.6 74.2 94.85 73.6 97.35 73.45 99.95 73.15 106.35 77.7 110.8 81.0 113.95 85.5 115.0 L92.95 115.6 105.6 115.15 Q95.7 119.55 85.05 117.95 79.7 117.15 75.85 113.45 72.4 110.15 71.6 105.65 70.7 100.25 72.25 94.85 L70.55 98.75 Q70.0 100.15 69.6 101.65 L65.7 99.45 64.95 98.85 64.9 98.8 64.85 98.75" fill="#edb211" fill-rule="evenodd" stroke="none"/>
      <path d="M151.3 61.55 Q158.3 62.75 158.65 65.8 158.75 66.85 158.3 67.6 157.85 68.25 157.0 68.7 155.2 69.6 152.0 69.15 144.55 68.1 144.35 64.95 L144.4 64.15 Q144.45 63.7 144.65 63.35 145.1 62.35 146.4 61.85 L151.3 61.55 M147.25 62.0 L146.6 62.35 Q145.55 63.0 145.45 64.15 L145.45 64.65 Q145.65 67.4 152.25 68.3 L156.65 67.95 157.65 67.2 Q158.2 66.5 158.05 65.5 157.8 62.9 151.55 61.75 L147.25 62.0" fill="#7d7d7d" fill-rule="evenodd" stroke="none"/>
      <path d="M79.2 102.1 L75.9 106.8 75.4 105.7 78.55 101.35 79.2 102.1 M90.4 110.15 L88.0 114.15 86.8 114.0 89.65 109.75 90.4 110.15 M83.4 105.85 L84.05 106.4 80.35 111.6 79.5 111.0 83.3 105.8 83.4 105.85" fill="#616066" fill-rule="evenodd" stroke="none"/>
    </g>
    <g id="shape2" transform="matrix(1.0, 0.0, 0.0, 1.0, -85.95, -32.95)">
      <path d="M132.15 39.05 Q138.55 40.8 140.4 54.9 132.7 36.3 126.2 47.25 126.8 43.45 128.3 41.1 130.0 38.45 132.15 39.05" fill="#2870a4" fill-rule="evenodd" stroke="none"/>
      <path d="M126.2 47.25 Q127.8 43.95 130.0 43.15 132.0 42.45 134.2 43.95 136.25 45.4 137.9 48.5 139.6 51.6 140.4 55.45 140.65 56.75 140.4 58.0 140.15 59.25 139.75 57.4 139.15 54.7 137.75 51.9 136.3 49.0 134.45 47.1 129.9 42.6 126.2 47.25" fill="#0c1748" fill-rule="evenodd" stroke="none"/>
      <path d="M111.25 42.3 Q98.4 36.75 90.95 46.3 88.65 49.25 87.15 53.3 L86.15 56.45 Q85.65 47.0 87.7 41.6 90.2 35.1 96.7 33.1 L100.25 32.95 Q102.45 33.2 104.6 34.2 109.85 36.75 111.25 42.3" fill="#2870a4" fill-rule="evenodd" stroke="none"/>
      <path d="M97.0 42.75 Q92.6 44.75 89.7 48.8 86.55 53.15 85.95 58.9 86.05 53.0 88.35 48.05 90.55 43.25 94.2 40.5 97.95 37.7 102.1 37.9 106.7 38.1 110.8 41.75 112.2 43.0 112.85 44.8 L113.0 45.7 112.4 45.3 Q109.7 42.05 105.4 41.4 101.25 40.8 97.0 42.75" fill="#0c1748" fill-rule="evenodd" stroke="none"/>
    </g>
    <g id="shape3" transform="matrix(1.0, 0.0, 0.0, 1.0, -158.4, -12.0)">
      <path d="M268.9 14.65 Q274.75 10.5 279.55 12.85 281.6 13.9 281.8 16.3 282.0 18.85 279.95 21.3 278.8 22.75 276.4 27.0 L273.45 32.1 Q273.05 32.75 271.05 31.85 269.15 31.0 267.05 29.35 261.6 25.0 262.6 22.2 263.25 20.55 264.9 18.55 266.7 16.25 268.9 14.65" fill="#1d3f60" fill-rule="evenodd" stroke="none"/>
      <path d="M270.35 16.05 Q275.05 12.45 278.6 14.25 280.15 15.05 280.2 17.0 280.25 19.15 278.55 21.25 277.6 22.45 275.55 26.0 L273.1 30.35 271.25 30.2 268.3 28.25 Q264.3 24.8 265.2 22.5 266.5 19.1 270.35 16.05" fill="#ffffff" fill-rule="evenodd" stroke="none"/>
      <path d="M239.25 30.9 L257.1 29.85 Q256.05 25.3 257.85 21.95 259.55 18.75 263.5 17.55 L268.85 17.7 Q270.9 19.0 271.5 23.25 271.8 25.25 273.35 28.5 L275.75 33.8 Q276.25 35.25 275.55 37.05 274.85 39.0 273.2 40.55 269.0 44.4 262.25 43.55 L256.5 50.9 Q253.1 54.75 249.4 56.9 240.1 62.45 224.6 60.1 213.8 58.5 209.0 54.0 207.4 52.5 206.2 50.4 L204.6 47.35 Q192.0 44.5 186.95 41.15 182.0 37.85 182.7 33.05 L183.65 21.55 Q183.8 19.6 185.5 18.4 187.1 17.25 189.5 17.15 192.0 17.0 194.35 18.1 196.85 19.2 198.45 21.35 202.2 26.4 201.45 30.8 220.45 28.25 231.0 35.95 233.9 32.0 239.25 30.9" fill="#1d3f60" fill-rule="evenodd" stroke="none"/>
      <path d="M239.1 32.4 Q242.45 31.45 248.95 31.35 L256.75 30.7 Q262.65 30.35 266.45 31.75 262.85 29.55 258.65 29.7 256.5 25.7 258.25 22.4 259.85 19.45 263.55 18.3 266.75 17.3 268.25 18.6 269.5 19.65 270.2 23.2 270.65 25.25 271.75 28.1 L273.75 33.15 Q274.95 36.45 272.1 39.3 268.75 42.6 261.4 42.25 L255.85 49.55 Q252.6 53.25 249.1 55.35 240.35 60.6 224.85 58.25 214.1 56.6 209.4 51.75 207.3 49.6 206.35 45.9 192.05 43.95 186.85 39.35 183.6 36.35 183.9 31.85 L184.1 26.75 Q184.15 24.05 184.5 21.6 184.75 20.05 186.2 19.0 187.55 18.05 189.55 17.9 194.2 17.5 196.7 21.0 199.65 25.1 200.1 31.2 196.95 31.9 194.15 33.35 220.25 27.7 229.6 37.15 L229.75 37.9 229.75 38.95 Q229.9 40.0 231.1 38.15 233.9 33.9 239.1 32.4" fill="#ffffff" fill-rule="evenodd" stroke="none"/>
      <path d="M206.35 45.9 Q192.05 43.95 186.85 39.35 183.6 36.35 183.9 31.85 L184.1 26.75 Q184.15 24.05 184.5 21.6 184.8 19.7 186.75 18.7 185.0 20.85 185.65 25.05 L186.4 29.0 Q186.9 31.45 187.0 33.3 187.15 37.4 193.95 39.75 L207.85 42.85 Q209.1 44.8 212.25 45.7 L218.5 45.45 Q221.9 44.05 227.45 44.2 233.9 44.4 238.75 46.8 247.2 51.05 253.85 46.6 256.2 45.05 258.8 42.05 L262.95 37.2 269.55 37.4 Q272.75 36.7 274.0 34.35 274.35 37.6 271.45 39.85 268.05 42.55 261.4 42.25 L255.85 49.55 Q252.6 53.25 249.1 55.35 240.35 60.6 224.85 58.25 214.1 56.6 209.4 51.75 207.3 49.6 206.35 45.9" fill="#c2d6d4" fill-rule="evenodd" stroke="none"/>
      <path d="M228.45 46.55 Q235.0 47.65 238.7 51.2 242.55 54.85 241.55 59.6 240.35 65.1 234.5 67.05 L222.3 67.45 Q214.85 66.05 211.05 63.2 206.4 59.65 208.25 54.25 211.85 43.9 228.45 46.55" fill="#1d3f60" fill-rule="evenodd" stroke="none"/>
      <path d="M228.45 45.4 Q234.65 46.5 237.9 49.95 241.55 53.8 240.1 59.45 238.85 64.25 233.75 65.85 229.3 67.25 222.85 66.0 216.1 64.75 212.7 62.15 208.45 59.05 209.85 54.25 211.35 48.95 216.75 46.55 221.8 44.3 228.45 45.4" fill="#ffffff" fill-rule="evenodd" stroke="none"/>
      <path d="M211.8 50.35 Q212.1 50.05 212.2 50.8 212.3 52.15 212.55 52.75 213.5 55.65 218.4 54.3 L223.5 53.95 Q226.85 54.2 228.95 55.35 229.9 55.85 230.75 57.0 L232.1 59.0 Q233.8 61.3 236.3 60.95 239.45 60.5 240.25 58.8 L240.1 59.45 Q238.85 64.25 233.75 65.85 229.3 67.25 222.85 66.0 216.1 64.75 212.7 62.15 208.45 59.0 209.85 54.25 210.4 52.1 211.8 50.35" fill="#c2d6d4" fill-rule="evenodd" stroke="none"/>
      <path d="M231.8 60.0 Q231.75 61.8 230.15 67.85 228.3 74.65 225.8 81.5 218.65 100.65 211.45 105.65 202.8 111.75 187.15 120.35 170.75 129.35 159.9 133.75 L159.0 134.05 Q157.65 129.05 160.0 119.15 L159.75 119.1 161.65 113.6 Q197.95 97.9 202.7 91.6 205.6 87.6 209.75 75.7 L214.85 60.35 Q215.3 58.9 218.0 57.75 220.65 56.55 223.75 56.4 227.25 56.2 229.55 57.3 231.8 58.35 231.8 60.0" fill="#0d1e74" fill-rule="evenodd" stroke="none"/>
      <path d="M230.4 59.2 Q230.35 61.0 228.65 66.9 226.75 73.6 224.1 80.45 216.7 99.3 209.5 104.3 200.45 110.7 184.95 119.15 168.1 128.3 158.9 131.35 L158.6 131.5 Q157.85 126.05 159.75 118.1 L161.45 112.6 Q199.2 98.15 203.9 91.8 206.85 87.8 211.15 75.5 L216.45 59.75 Q216.9 58.35 219.2 57.35 221.25 56.5 223.95 56.4 226.65 56.25 228.45 56.95 230.4 57.75 230.4 59.2" fill="#6fb9d7" fill-rule="evenodd" stroke="none"/>
      <path d="M172.35 107.45 Q175.1 109.3 183.25 106.3 189.7 103.95 196.05 103.1 202.8 102.15 202.0 104.05 199.95 109.3 209.5 104.3 200.45 110.7 184.95 119.15 168.1 128.3 158.9 131.35 L158.6 131.5 Q157.85 126.05 159.75 118.1 L161.45 112.6 172.35 107.45" fill="#3c84bb" fill-rule="evenodd" stroke="none"/>
      <path d="M221.7 61.35 Q218.95 62.1 213.85 66.25 L216.45 59.75 Q216.9 58.35 219.2 57.35 221.25 56.5 223.95 56.4 226.65 56.25 228.45 56.95 230.4 57.75 230.4 59.2 L230.0 60.95 Q227.6 59.6 221.7 61.35" fill="#3c84bb" fill-rule="evenodd" stroke="none"/>
    </g>
  </defs>
</svg>
