<?xml version="1.0" encoding="UTF-8" standalone="no"?>
<svg xmlns:xlink="http://www.w3.org/1999/xlink" height="92.4px" width="112.75px" xmlns="http://www.w3.org/2000/svg">
  <g transform="matrix(1.0, 0.0, 0.0, 1.0, 5.0, 2.0)">
    <use data-characterId="314" height="92.4" transform="matrix(1.0, 0.0, 0.0, 1.0, -5.0, -2.0)" width="107.75" xlink:href="#shape0"/>
    <use data-characterId="383" height="17.0" transform="matrix(1.0, 0.0, 0.0, 1.0, 10.95, 31.1)" width="60.05" xlink:href="#text0"/>
    <use data-characterId="383" height="17.0" transform="matrix(1.0, 0.0, 0.0, 1.0, 9.1, 29.25)" width="60.05" xlink:href="#text0"/>
    <use data-characterId="383" height="17.0" transform="matrix(1.0, 0.0, 0.0, 1.0, 9.95, 30.1)" width="60.05" xlink:href="#text0"/>
  </g>
  <defs>
    <g id="shape0" transform="matrix(1.0, 0.0, 0.0, 1.0, 0.0, 0.0)">
      <path d="M102.65 40.95 Q102.6 37.65 97.2 35.4 L19.35 3.2 Q13.95 0.95 10.05 2.9 6.15 4.8 6.1 9.75 L5.0 76.7 Q4.9 81.65 8.6 83.45 12.35 85.25 17.6 82.85 L97.5 46.65 Q102.75 44.25 102.65 40.95 M107.65 43.9 L107.65 43.95 Q108.55 50.2 99.6 54.3 L19.7 90.55 19.65 90.6 Q11.95 94.0 6.45 91.05 -0.15 88.15 0.0 79.75 L1.1 12.8 Q1.2 4.65 7.85 1.55 13.45 -1.6 21.3 1.7 L21.25 1.7 99.1 33.95 Q108.25 37.65 107.65 43.9" fill="#51000a" fill-rule="evenodd" stroke="none"/>
      <path d="M102.65 40.95 Q102.75 44.25 97.5 46.65 L17.6 82.85 Q12.35 85.25 8.6 83.45 4.9 81.65 5.0 76.7 L6.1 9.75 Q6.15 4.8 10.05 2.9 13.95 0.95 19.35 3.2 L97.2 35.4 Q102.6 37.65 102.65 40.95" fill="url(#gradient0)" fill-rule="evenodd" stroke="none"/>
    </g>
    <linearGradient gradientTransform="matrix(0.0671, 0.0, 0.0, 0.0501, 46.0, 43.95)" gradientUnits="userSpaceOnUse" id="gradient0" spreadMethod="pad" x1="-819.2" x2="819.2">
      <stop offset="0.0" stop-color="#650c0b"/>
      <stop offset="0.3686274509803922" stop-color="#d5160b"/>
      <stop offset="0.6745098039215687" stop-color="#e1180a"/>
      <stop offset="1.0" stop-color="#650c0b"/>
    </linearGradient>
    <g id="text0" transform="matrix(1.0, 0.0, 0.0, 1.0, -1.5, -6.05)">
      <g transform="matrix(1.0, 0.0, 0.0, 1.0, 0.0, 0.0)">
        <use fill="#ffffff" fill-opacity="0.29803923" height="17.0" transform="matrix(0.5273, 0.0, 0.0, 0.5273, 0.0, 23.0)" width="60.05" xlink:href="#font_______W7_N0"/>
        <use fill="#ffffff" fill-opacity="0.29803923" height="17.0" transform="matrix(0.5273, 0.0, 0.0, 0.5273, 19.05, 23.0)" width="60.05" xlink:href="#font_______W7_e0"/>
        <use fill="#ffffff" fill-opacity="0.29803923" height="17.0" transform="matrix(0.5273, 0.0, 0.0, 0.5273, 34.15, 23.0)" width="60.05" xlink:href="#font_______W7_x0"/>
        <use fill="#ffffff" fill-opacity="0.29803923" height="17.0" transform="matrix(0.5273, 0.0, 0.0, 0.5273, 48.05, 23.0)" width="60.05" xlink:href="#font_______W7_t0"/>
      </g>
    </g>
    <g id="font_______W7_N0">
      <path d="M25.85 -32.15 L25.85 -32.15 27.35 -14.2 10.85 -31.5 5.6 -32.15 2.8 0.05 13.85 -1.4 11.65 -23.35 28.5 0.05 33.85 -0.65 36.9 -30.75 25.85 -32.15" fill-rule="evenodd" stroke="none"/>
    </g>
    <g id="font_______W7_e0">
      <path d="M21.4 -9.9 L21.4 -9.9 Q18.45 -7.55 14.95 -7.55 11.5 -7.55 10.1 -9.9 L21.4 -9.9 M9.9 -13.4 L9.9 -13.4 Q10.7 -14.95 12.65 -15.95 14.55 -16.8 16.6 -16.8 19.85 -16.8 21.65 -14.35 L9.9 -13.4 M25.6 -9.9 L25.6 -9.9 26.75 -9.9 29.4 -12.6 Q28.45 -16.7 25.2 -19.1 21.9 -21.45 16.7 -21.45 10.65 -21.45 6.5 -18.65 2.0 -15.6 2.0 -10.4 2.0 -5.35 6.4 -2.5 10.25 0.05 16.05 0.05 24.7 0.05 29.9 -4.25 L25.6 -9.9" fill-rule="evenodd" stroke="none"/>
    </g>
    <g id="font_______W7_x0">
      <path d="M19.85 -12.15 L19.85 -12.15 26.6 -18.5 23.4 -21.45 14.55 -15.65 5.7 -21.45 2.5 -18.5 9.2 -12.15 0.55 -6.45 6.95 0.05 14.55 -7.15 22.1 0.05 28.5 -6.45 19.85 -12.15" fill-rule="evenodd" stroke="none"/>
    </g>
    <g id="font_______W7_t0">
      <path d="M20.6 -12.2 L20.6 -12.2 Q18.7 -9.35 16.4 -9.35 13.15 -9.35 13.15 -15.4 L23.85 -15.4 22.1 -22.55 13.65 -21.45 Q14.05 -24.2 14.95 -27.95 L9.85 -28.85 Q8.55 -24.65 7.8 -20.75 L0.85 -19.9 1.95 -15.4 7.2 -15.4 7.15 -12.55 Q7.15 -6.8 8.55 -4.05 10.45 0.05 16.0 0.05 21.0 0.05 25.6 -4.15 L20.6 -12.2" fill-rule="evenodd" stroke="none"/>
    </g>
  </defs>
</svg>
