<?xml version="1.0" encoding="UTF-8" standalone="no"?>
<svg xmlns:xlink="http://www.w3.org/1999/xlink" height="279.75px" width="364.95px" xmlns="http://www.w3.org/2000/svg">
  <g transform="matrix(1.0, 0.0, 0.0, 1.0, 183.2, 140.8)">
    <use height="68.15" transform="matrix(1.6779, 0.3731, -0.3731, 1.6779, -111.4767, -85.5304)" width="147.25" xlink:href="#shape0"/>
  </g>
  <defs>
    <g id="shape0" transform="matrix(1.0, 0.0, 0.0, 1.0, 5.5, 5.5)">
      <path d="M54.2 16.9 Q54.0 18.55 52.95 19.85 L52.05 20.75 Q53.1 21.1 54.0 22.0 55.6 23.6 55.6 25.9 L55.6 28.05 Q55.6 45.75 48.55 53.45 L48.5 53.45 Q40.9 62.65 25.8 62.65 11.15 62.6 2.9 53.85 L2.9 53.8 Q-5.5 45.3 -5.5 30.3 -5.5 15.25 2.9 6.55 11.15 -2.5 25.7 -2.5 44.9 -2.45 53.55 13.75 54.35 15.25 54.2 16.9" fill="#000000" fill-rule="evenodd" stroke="none"/>
      <path d="M81.6 22.25 L81.6 22.3 Q80.35 25.0 80.35 30.05 80.35 35.1 81.55 38.0 82.7 35.2 82.7 30.35 82.7 22.25 81.8 21.5 L81.6 22.25 M104.15 6.65 L104.15 6.7 Q112.45 15.35 112.45 30.25 112.45 44.55 104.05 53.45 L104.0 53.5 Q95.55 62.6 82.0 62.65 L81.95 62.65 Q70.0 62.6 61.55 55.7 L61.55 55.65 Q50.65 47.05 50.65 29.65 50.65 12.95 62.0 4.15 70.35 -2.45 81.7 -2.5 95.85 -2.5 104.15 6.65" fill="#000000" fill-rule="evenodd" stroke="none"/>
      <path d="M113.7 -3.9 Q115.3 -5.5 117.6 -5.5 L135.0 -5.5 Q137.3 -5.5 138.9 -3.9 140.5 -2.3 140.5 0.0 L140.5 34.0 Q140.5 36.3 138.9 37.9 L137.15 39.1 Q141.8 43.1 141.75 49.0 141.9 54.9 136.6 59.1 L136.55 59.1 Q132.1 62.55 126.2 62.65 L126.05 62.65 Q120.05 62.55 115.6 59.1 L115.35 58.9 Q110.35 54.6 110.5 48.9 110.4 43.05 115.25 39.0 L113.7 37.9 Q112.1 36.3 112.1 34.0 L112.1 0.0 Q112.1 -2.3 113.7 -3.9" fill="#000000" fill-rule="evenodd" stroke="none"/>
      <path d="M44.35 49.85 Q38.1 57.15 25.8 57.15 13.7 57.1 6.85 50.0 0.0 42.85 0.0 30.3 0.0 17.65 6.9 10.3 13.75 3.0 25.7 3.0 41.55 3.0 48.7 16.35 L31.2 21.55 Q30.8 19.0 29.4 17.5 28.0 16.0 25.9 16.0 18.45 16.0 18.45 31.55 18.45 38.15 20.1 41.15 21.7 44.1 25.3 44.15 L27.9 43.65 Q29.1 43.15 29.9 42.25 L31.15 40.1 Q31.6 38.8 31.6 37.25 L24.95 37.25 24.95 25.9 50.1 25.9 50.1 28.05 Q50.1 43.2 44.35 49.85" fill="#db1408" fill-rule="evenodd" stroke="none"/>
      <path d="M106.95 30.25 Q106.95 42.2 100.0 49.7 93.05 57.1 81.95 57.15 72.05 57.1 65.0 51.4 56.15 44.15 56.15 29.65 56.15 15.8 65.4 8.45 72.3 3.0 81.7 3.0 93.3 3.0 100.1 10.4 106.95 17.75 106.95 30.25 M76.7 19.75 Q74.85 23.3 74.85 30.05 74.85 36.75 76.6 40.45 78.35 44.1 81.45 44.15 84.65 44.1 86.4 40.5 88.2 36.85 88.2 30.35 88.2 16.0 81.8 16.0 78.6 16.0 76.7 19.75" fill="#db1408" fill-rule="evenodd" stroke="none"/>
      <path d="M135.0 34.0 L117.6 34.0 117.6 0.0 135.0 0.0 135.0 34.0 M136.25 49.0 Q136.25 52.35 133.2 54.75 130.15 57.1 126.1 57.15 122.0 57.1 118.95 54.75 116.0 52.2 116.0 48.9 116.0 45.45 118.95 43.05 121.95 40.65 126.1 40.65 130.35 40.6 133.3 43.05 136.25 45.45 136.25 49.0" fill="#db1408" fill-rule="evenodd" stroke="none"/>
      <path d="M49.2 38.7 Q47.85 45.85 44.35 49.85 38.1 57.1 25.8 57.15 13.7 57.15 6.85 50.0 0.0 42.85 0.0 30.3 L0.1 27.45 9.3 32.35 Q13.9 34.75 18.75 36.7 19.15 39.45 20.1 41.15 21.75 44.1 25.3 44.15 L27.9 43.65 29.9 42.25 31.15 40.1 31.2 39.9 Q35.8 40.45 40.3 40.05 L49.2 38.7" fill="#ae1408" fill-rule="evenodd" stroke="none"/>
      <path d="M97.45 27.35 L106.8 27.0 106.95 30.25 Q106.95 42.2 100.0 49.7 93.05 57.15 81.95 57.15 72.05 57.15 65.0 51.4 58.45 46.05 56.75 36.75 L65.45 33.9 74.1 31.05 74.85 30.8 Q74.95 36.95 76.6 40.45 78.35 44.15 81.45 44.15 84.65 44.15 86.4 40.5 88.2 36.85 88.2 30.4 L88.15 28.1 97.45 27.35" fill="#ae1408" fill-rule="evenodd" stroke="none"/>
      <path d="M118.95 43.05 Q121.9 40.65 126.1 40.65 130.35 40.65 133.3 43.05 136.25 45.45 136.25 49.0 136.25 52.35 133.2 54.75 130.15 57.15 126.1 57.15 122.0 57.15 118.95 54.75 116.0 52.25 116.0 48.9 116.0 45.45 118.95 43.05 M117.6 26.65 L118.0 26.6 126.8 25.5 Q130.9 24.65 135.0 23.25 L135.0 34.0 117.6 34.0 117.6 26.65" fill="#ae1408" fill-rule="evenodd" stroke="none"/>
    </g>
  </defs>
</svg>
