<?xml version="1.0" encoding="UTF-8" standalone="no"?>
<svg xmlns:xlink="http://www.w3.org/1999/xlink" height="454.95px" width="385.95px" xmlns="http://www.w3.org/2000/svg">
  <g transform="matrix(1.0, 0.0, 0.0, 1.0, 193.15, 454.95)">
    <use height="36.0" transform="matrix(1.0, 0.0, 0.0, 1.0, -79.15, -36.0)" width="159.0" xlink:href="#shape0"/>
    <use height="96.65" transform="matrix(1.0, 0.0, 0.0, 1.0, -24.85, -108.0)" width="54.2" xlink:href="#shape1"/>
    <use height="37.0" transform="matrix(1.0, 0.0, 0.0, 1.0, -92.65, -94.35)" width="185.25" xlink:href="#shape2"/>
    <use height="15.45" transform="matrix(1.0, 0.0, 0.0, 1.0, -77.05, -84.0)" width="159.0" xlink:href="#text0"/>
    <use height="260.7" transform="matrix(1.0, 0.0, 0.0, 1.0, -67.55, -360.45)" width="129.45" xlink:href="#shape3"/>
    <use height="273.65" transform="matrix(1.0, 0.0, 0.0, 1.0, -80.65, -372.45)" width="165.15" xlink:href="#shape4"/>
    <use height="260.7" transform="matrix(1.0, 0.0, 0.0, 1.0, -67.55, -360.45)" width="129.45" xlink:href="#shape3"/>
    <use height="62.9" transform="matrix(1.0, 0.0, 0.0, 1.0, -31.45, -203.3)" width="60.15" xlink:href="#shape5"/>
  </g>
  <defs>
    <g id="shape0" transform="matrix(1.0, 0.0, 0.0, 1.0, 0.0, 0.0)">
      <path d="M135.7 30.75 Q113.3 35.8 79.5 36.0 45.7 35.8 23.3 30.75 0.85 25.65 0.0 18.0 0.85 10.35 23.3 5.25 45.7 0.2 79.5 0.0 113.3 0.2 135.7 5.25 158.15 10.35 159.0 18.0 158.15 25.65 135.7 30.75" fill="#000000" fill-opacity="0.39607844" fill-rule="evenodd" stroke="none"/>
    </g>
    <g id="shape1" transform="matrix(1.0, 0.0, 0.0, 1.0, 0.0, 0.0)">
      <path d="M5.85 93.35 Q-0.15 90.4 0.0 90.0 L0.0 0.0 54.2 0.0 54.2 90.0 Q54.15 90.4 46.95 93.35 39.7 96.25 25.65 96.65 11.8 96.25 5.85 93.35" fill="url(#gradient0)" fill-rule="evenodd" stroke="none"/>
    </g>
    <linearGradient gradientTransform="matrix(0.0303, 0.0, 0.0, 0.0303, 25.7, 48.35)" gradientUnits="userSpaceOnUse" id="gradient0" spreadMethod="pad" x1="-819.2" x2="819.2">
      <stop offset="0.0" stop-color="#565656"/>
      <stop offset="0.403921568627451" stop-color="#9a9999"/>
      <stop offset="0.592156862745098" stop-color="#dbdbda"/>
      <stop offset="0.7803921568627451" stop-color="#9b9a9a"/>
      <stop offset="1.0" stop-color="#151213"/>
    </linearGradient>
    <g id="shape2" transform="matrix(1.0, 0.0, 0.0, 1.0, -0.05, 0.0)">
      <path d="M185.25 8.2 L185.3 8.25 185.25 8.25 185.25 8.2 M1.9 5.2 L2.3 2.85 18.75 2.05 59.05 0.7 Q83.4 0.05 109.4 0.3 115.1 0.55 118.85 1.6 122.65 2.7 128.15 3.0 L129.3 1.5 Q130.05 0.2 130.5 0.0 160.7 0.5 181.5 3.85 L183.45 6.1 103.3 3.5 Q60.0 3.6 6.5 5.1 L1.9 5.2 M176.25 8.0 L176.45 8.4 177.65 11.45 178.5 13.65 Q179.3 12.8 179.7 10.9 179.7 9.8 179.25 9.1 L179.9 9.55 Q180.65 10.3 180.7 11.75 179.85 15.7 177.15 15.05 175.8 14.75 175.1 13.85 L176.15 14.2 177.35 14.25 176.45 12.35 174.9 8.8 174.8 8.5 174.95 8.35 Q175.75 7.8 176.25 8.0 M178.25 27.3 L179.85 27.15 Q180.5 27.3 181.25 27.95 183.6 31.2 181.35 32.8 180.2 33.6 179.1 33.5 L180.8 32.15 178.8 31.55 175.1 30.4 175.2 29.1 175.2 29.0 175.25 28.7 175.4 28.75 175.85 28.9 178.95 30.05 181.1 30.85 Q181.0 29.65 179.9 28.15 179.05 27.45 178.25 27.3 M9.35 6.95 L10.7 10.45 11.7 12.9 Q12.6 11.95 13.05 9.85 13.05 8.55 12.5 7.75 13.85 8.35 14.15 10.05 L13.75 12.35 Q12.6 15.1 10.15 14.55 8.75 14.25 8.0 13.4 L7.85 13.2 9.0 13.6 10.35 13.65 9.35 11.4 7.6 7.45 8.75 6.6 9.2 6.55 9.35 6.95 M9.4 25.3 Q11.0 24.35 12.9 25.8 15.0 28.35 14.35 30.1 L13.4 31.3 Q12.2 32.25 10.95 32.25 L12.75 30.6 10.4 30.05 6.2 29.05 6.15 27.55 6.15 27.1 6.35 27.15 6.9 27.35 10.45 28.4 12.95 29.1 Q12.75 27.8 11.35 26.15 10.35 25.35 9.4 25.3" fill="#47525f" fill-rule="evenodd" stroke="none"/>
      <path d="M0.05 36.7 L0.75 22.9 Q1.05 14.95 1.6 7.0 L1.9 5.2 6.5 5.1 3.2 8.3 1.95 36.45 0.05 36.7" fill="#cdcdcd" fill-rule="evenodd" stroke="none"/>
      <path d="M13.75 12.35 L14.15 10.05 26.45 10.0 13.75 12.35 M8.0 13.4 L7.0 13.55 7.2 26.2 6.35 27.15 6.15 27.1 6.15 27.55 Q5.15 29.5 6.75 31.55 8.95 33.2 10.95 32.25 12.2 32.25 13.4 31.3 L14.35 30.1 16.45 30.2 36.65 31.3 56.5 32.6 Q50.4 32.9 38.0 32.9 L15.1 32.75 3.85 32.6 5.25 10.05 6.0 10.05 Q6.15 12.3 7.85 13.2 L8.0 13.4" fill="#848484" fill-rule="evenodd" stroke="none"/>
      <path d="M175.1 13.85 Q175.8 14.75 177.15 15.05 179.85 15.7 180.7 11.75 180.65 10.3 179.9 9.55 L180.85 9.65 179.85 27.15 178.25 27.3 177.7 27.3 177.8 15.2 160.95 13.3 Q144.35 11.4 115.0 6.95 144.55 7.2 162.45 8.35 L174.1 9.15 Q173.65 9.7 173.4 10.6 173.45 12.95 175.1 13.85 M175.3 32.3 L137.05 30.55 175.2 29.0 175.2 29.1 Q174.3 30.55 175.3 32.3" fill="#a09fa0" fill-rule="evenodd" stroke="none"/>
      <path d="M176.45 8.4 L176.25 8.0 176.9 7.95 Q178.55 8.05 179.25 9.1 179.7 9.8 179.7 10.9 179.3 12.8 178.5 13.65 L177.65 11.45 178.05 10.25 Q178.0 8.55 176.45 8.4 M174.8 8.5 L174.9 8.8 Q174.35 9.2 174.15 10.05 174.2 11.9 175.85 12.3 L176.45 12.35 177.35 14.25 176.15 14.2 175.1 13.85 Q173.45 12.95 173.4 10.6 173.65 9.7 174.1 9.15 L174.8 8.5 M177.7 27.3 L178.25 27.3 Q179.05 27.45 179.9 28.15 181.0 29.65 181.1 30.85 L178.95 30.05 178.3 28.9 Q177.0 27.8 175.85 28.9 L175.4 28.75 175.8 28.3 Q176.7 27.35 177.7 27.3 M179.1 33.5 Q177.3 34.2 175.5 32.65 L175.3 32.3 Q174.3 30.55 175.2 29.1 L175.1 30.4 Q175.25 32.1 176.95 32.35 178.0 32.25 178.8 31.55 L180.8 32.15 179.1 33.5 M10.7 10.45 L11.2 9.05 Q11.15 7.15 9.35 6.95 L9.2 6.55 9.9 6.5 Q11.75 6.6 12.5 7.75 13.05 8.55 13.05 9.85 12.6 11.95 11.7 12.9 L10.7 10.45 M7.2 26.2 Q8.2 25.2 9.4 25.3 10.35 25.35 11.35 26.15 12.75 27.8 12.95 29.1 L10.45 28.4 Q9.75 26.65 8.05 26.6 L6.9 27.35 6.35 27.15 7.2 26.2 M6.0 10.05 L5.95 9.55 Q6.6 7.0 8.75 6.6 L7.6 7.45 Q7.0 7.9 6.75 8.85 6.8 10.95 8.7 11.35 L9.35 11.4 10.35 13.65 9.0 13.6 7.85 13.2 Q6.15 12.3 6.0 10.05 M6.15 27.55 L6.2 29.05 Q6.45 30.9 8.2 31.1 9.7 31.2 10.4 30.05 L12.75 30.6 10.95 32.25 Q8.95 33.2 6.75 31.55 5.15 29.5 6.15 27.55" fill="#9c9c9c" fill-rule="evenodd" stroke="none"/>
      <path d="M174.9 8.8 L176.45 12.35 175.85 12.3 Q174.2 11.9 174.15 10.05 174.35 9.2 174.9 8.8 M177.65 11.45 L176.45 8.4 Q178.0 8.55 178.05 10.25 L177.65 11.45 M175.85 28.9 Q177.0 27.8 178.3 28.9 L178.95 30.05 175.85 28.9 M175.1 30.4 L178.8 31.55 Q178.0 32.25 176.95 32.35 175.25 32.1 175.1 30.4 M9.35 6.95 Q11.15 7.15 11.2 9.05 L10.7 10.45 9.35 6.95 M9.35 11.4 L8.7 11.35 Q6.8 10.95 6.75 8.85 7.0 7.9 7.6 7.45 L9.35 11.4 M10.45 28.4 L6.9 27.35 8.05 26.6 Q9.75 26.65 10.45 28.4 M6.2 29.05 L10.4 30.05 Q9.7 31.2 8.2 31.1 6.45 30.9 6.2 29.05" fill="#d5d4d4" fill-rule="evenodd" stroke="none"/>
      <path d="M183.45 6.1 L185.3 6.25 185.25 8.2 185.25 8.25 185.1 13.45 184.65 27.3 184.3 36.25 Q157.35 34.75 133.85 35.55 L89.2 37.0 Q65.15 37.15 43.55 35.85 22.0 34.5 0.05 36.75 L0.05 36.7 1.95 36.45 3.2 8.3 6.5 5.1 Q60.0 3.6 103.3 3.5 L183.45 6.1 M176.25 8.0 Q175.75 7.8 174.95 8.35 L174.8 8.5 174.1 9.15 162.45 8.35 Q144.55 7.2 115.0 6.95 144.35 11.4 160.95 13.3 L177.8 15.2 177.7 27.3 Q176.7 27.35 175.8 28.3 L175.4 28.75 175.25 28.7 175.2 29.0 137.05 30.55 175.3 32.3 175.5 32.65 Q177.3 34.2 179.1 33.5 180.2 33.6 181.35 32.8 183.6 31.2 181.25 27.95 180.5 27.3 179.85 27.15 L180.85 9.65 179.9 9.55 179.25 9.1 Q178.55 8.05 176.9 7.95 L176.25 8.0 M12.5 7.75 Q11.75 6.6 9.9 6.5 L9.2 6.55 8.75 6.6 Q6.6 7.0 5.95 9.55 L6.0 10.05 5.25 10.05 3.85 32.6 15.1 32.75 38.0 32.9 Q50.4 32.9 56.5 32.6 L36.65 31.3 16.45 30.2 14.35 30.1 Q15.0 28.35 12.9 25.8 11.0 24.35 9.4 25.3 8.2 25.2 7.2 26.2 L7.0 13.55 8.0 13.4 Q8.75 14.25 10.15 14.55 12.6 15.1 13.75 12.35 L26.45 10.0 14.15 10.05 Q13.85 8.35 12.5 7.75" fill="url(#gradient1)" fill-rule="evenodd" stroke="none"/>
    </g>
    <linearGradient gradientTransform="matrix(0.1131, 0.0, 0.0, 0.0204, 92.65, 20.25)" gradientUnits="userSpaceOnUse" id="gradient1" spreadMethod="pad" x1="-819.2" x2="819.2">
      <stop offset="0.0" stop-color="#9a9a9a"/>
      <stop offset="1.0" stop-color="#ffffff"/>
    </linearGradient>
    <g id="text0" transform="matrix(1.0, 0.0, 0.0, 1.0, -1.2, -5.6)">
      <g transform="matrix(1.0, 0.0, 0.0, 1.0, 0.0, 0.0)">
        <use fill="#000000" height="15.45" transform="matrix(0.4785, 0.0, 0.0, 0.4785, 0.0, 21.0)" width="159.0" xlink:href="#font_______W7_P0"/>
        <use fill="#000000" height="15.45" transform="matrix(0.4785, 0.0, 0.0, 0.4785, 16.2, 21.0)" width="159.0" xlink:href="#font_______W7_e0"/>
        <use fill="#000000" height="15.45" transform="matrix(0.4785, 0.0, 0.0, 0.4785, 29.65, 21.0)" width="159.0" xlink:href="#font_______W7_n0"/>
        <use fill="#000000" height="15.45" transform="matrix(0.4785, 0.0, 0.0, 0.4785, 43.25, 21.0)" width="159.0" xlink:href="#font_______W7_c0"/>
        <use fill="#000000" height="15.45" transform="matrix(0.4785, 0.0, 0.0, 0.4785, 56.15, 21.0)" width="159.0" xlink:href="#font_______W7_i0"/>
        <use fill="#000000" height="15.45" transform="matrix(0.4785, 0.0, 0.0, 0.4785, 64.95, 21.0)" width="159.0" xlink:href="#font_______W7_l0"/>
        <use fill="#000000" height="15.45" transform="matrix(0.4785, 0.0, 0.0, 0.4785, 81.75, 21.0)" width="159.0" xlink:href="#font_______W7_P0"/>
        <use fill="#000000" height="15.45" transform="matrix(0.4785, 0.0, 0.0, 0.4785, 97.95, 21.0)" width="159.0" xlink:href="#font_______W7_u0"/>
        <use fill="#000000" height="15.45" transform="matrix(0.4785, 0.0, 0.0, 0.4785, 111.45, 21.0)" width="159.0" xlink:href="#font_______W7_s0"/>
        <use fill="#000000" height="15.45" transform="matrix(0.4785, 0.0, 0.0, 0.4785, 123.9, 21.0)" width="159.0" xlink:href="#font_______W7_h0"/>
        <use fill="#000000" height="15.45" transform="matrix(0.4785, 0.0, 0.0, 0.4785, 138.05, 21.0)" width="159.0" xlink:href="#font_______W7_e0"/>
        <use fill="#000000" height="15.45" transform="matrix(0.4785, 0.0, 0.0, 0.4785, 151.45, 21.0)" width="159.0" xlink:href="#font_______W7_r0"/>
      </g>
    </g>
    <g id="font_______W7_P0">
      <path d="M25.55 -21.45 L25.55 -21.45 Q25.55 -19.8 24.3 -18.6 23.1 -17.45 21.4 -17.45 17.4 -17.45 13.5 -20.8 L11.65 -16.3 10.9 -24.15 Q15.2 -26.45 18.85 -26.45 21.4 -26.45 23.3 -25.25 25.55 -23.9 25.55 -21.45 M32.5 -20.35 L32.5 -20.35 Q32.5 -25.9 28.85 -28.85 25.45 -31.55 19.75 -31.55 15.45 -31.55 10.4 -29.45 L10.2 -31.5 5.3 -32.15 2.55 0.05 13.15 -1.1 12.2 -11.0 Q15.95 -9.35 19.7 -9.35 25.2 -9.35 28.65 -12.05 32.5 -15.0 32.5 -20.35" fill-rule="evenodd" stroke="none"/>
    </g>
    <g id="font_______W7_e0">
      <path d="M19.45 -9.9 L19.45 -9.9 Q16.75 -7.55 13.6 -7.55 10.45 -7.55 9.15 -9.9 L19.45 -9.9 M9.0 -13.4 L9.0 -13.4 Q9.7 -14.95 11.5 -15.95 13.2 -16.8 15.1 -16.8 18.05 -16.8 19.65 -14.35 L9.0 -13.4 M23.25 -9.9 L23.25 -9.9 24.3 -9.9 26.7 -12.6 Q25.85 -16.7 22.9 -19.1 19.9 -21.45 15.15 -21.45 9.65 -21.45 5.9 -18.65 1.8 -15.6 1.8 -10.4 1.8 -5.35 5.8 -2.5 9.3 0.05 14.6 0.05 22.45 0.05 27.15 -4.25 L23.25 -9.9" fill-rule="evenodd" stroke="none"/>
    </g>
    <g id="font_______W7_n0">
      <path d="M27.0 -9.05 L27.0 -9.05 Q27.0 -14.5 24.65 -17.8 21.9 -21.45 16.6 -21.45 12.6 -21.45 9.45 -18.85 L9.2 -20.75 4.35 -21.45 2.05 0.05 11.95 -1.4 10.35 -12.55 Q12.95 -15.85 15.9 -15.85 19.4 -15.85 19.4 -10.6 19.4 -6.9 16.6 -1.3 L26.2 0.0 Q27.0 -6.5 27.0 -9.05" fill-rule="evenodd" stroke="none"/>
    </g>
    <g id="font_______W7_c0">
      <path d="M21.35 -12.5 L21.35 -12.5 Q19.95 -10.5 17.75 -9.15 15.35 -7.6 13.15 -7.6 11.4 -7.6 10.2 -8.85 8.9 -10.05 8.9 -11.8 8.9 -14.1 10.65 -15.4 12.2 -16.55 14.55 -16.55 18.9 -16.55 21.9 -13.7 L24.4 -17.55 Q19.65 -21.45 13.1 -21.45 8.05 -21.45 4.9 -18.4 1.8 -15.3 1.8 -10.3 1.8 -5.6 5.7 -2.65 9.25 0.05 14.1 0.05 17.2 0.05 20.45 -1.1 24.05 -2.3 25.9 -4.4 L21.35 -12.5" fill-rule="evenodd" stroke="none"/>
    </g>
    <g id="font_______W7_i0">
      <path d="M11.6 -20.75 L11.6 -20.75 6.75 -21.45 4.45 0.05 14.3 -1.4 11.6 -20.75 M11.9 -31.5 L11.9 -31.5 6.5 -32.15 4.9 -24.95 13.2 -26.1 11.9 -31.5" fill-rule="evenodd" stroke="none"/>
    </g>
    <g id="font_______W7_l0">
      <path d="M11.6 -31.5 L11.6 -31.5 6.9 -32.15 4.35 0.05 14.4 -1.4 11.6 -31.5" fill-rule="evenodd" stroke="none"/>
    </g>
    <g id="font_______W7_u0">
      <path d="M24.1 -20.75 L24.1 -20.75 19.25 -21.45 17.9 -8.95 16.15 -11.65 Q13.35 -8.1 10.6 -8.1 9.0 -8.1 8.15 -9.4 7.25 -10.65 7.25 -12.3 7.25 -15.75 8.6 -19.75 L3.9 -21.15 Q2.05 -16.35 2.05 -11.4 2.05 -6.45 4.25 -3.4 6.75 0.05 11.5 0.05 14.55 0.05 17.1 -1.5 L16.95 0.1 26.8 -1.35 24.1 -20.75" fill-rule="evenodd" stroke="none"/>
    </g>
    <g id="font_______W7_s0">
      <path d="M25.05 -6.35 L25.05 -6.35 Q25.05 -12.25 15.35 -13.65 8.7 -14.6 8.7 -15.7 8.7 -17.05 12.35 -17.05 17.1 -17.05 22.25 -14.8 L23.8 -18.2 Q19.05 -21.45 12.25 -21.45 8.55 -21.45 6.05 -20.35 2.6 -18.85 2.6 -15.7 2.6 -13.1 4.75 -11.8 6.5 -10.75 10.95 -10.05 L16.3 -8.95 Q17.8 -8.4 17.8 -7.5 17.8 -6.2 15.25 -6.2 12.3 -6.2 9.1 -7.45 5.9 -8.7 3.8 -10.65 L1.0 -2.6 Q6.45 0.05 14.3 0.05 25.05 0.05 25.05 -6.35" fill-rule="evenodd" stroke="none"/>
    </g>
    <g id="font_______W7_h0">
      <path d="M28.1 -7.6 L28.1 -7.6 Q28.1 -13.7 25.7 -17.25 22.9 -21.45 17.05 -21.45 13.35 -21.45 10.45 -19.3 L9.3 -31.55 4.65 -32.15 2.05 0.05 12.1 -1.4 11.0 -12.9 Q13.45 -15.95 16.35 -15.95 20.1 -15.95 20.1 -10.2 20.1 -6.55 17.6 -1.55 L27.6 0.05 28.1 -7.6" fill-rule="evenodd" stroke="none"/>
    </g>
    <g id="font_______W7_r0">
      <path d="M18.3 -20.6 L18.3 -20.6 Q16.55 -21.45 14.75 -21.45 11.5 -21.45 8.7 -18.65 L8.45 -20.75 4.45 -21.45 2.55 0.05 10.65 -1.4 9.3 -12.8 Q10.55 -14.85 12.3 -14.85 13.25 -14.85 14.55 -13.85 L16.55 -12.05 18.3 -20.6" fill-rule="evenodd" stroke="none"/>
    </g>
    <g id="shape3" transform="matrix(1.0, 0.0, 0.0, 1.0, 1.5, 1.25)">
      <path d="M9.3 250.05 L9.55 250.15 Q9.75 252.75 7.05 253.5 4.75 254.05 3.75 252.1 3.1 250.85 3.1 249.5 L3.65 250.9 4.15 251.45 4.55 251.55 4.15 251.5 Q5.0 252.25 6.3 252.3 8.7 252.1 9.3 250.05 M4.7 248.15 Q3.75 249.5 3.65 250.9 3.7 249.5 4.65 248.15 L4.7 248.15" fill="#47525f" fill-rule="evenodd" stroke="none"/>
      <path d="M3.6 247.55 L4.7 248.05 4.65 248.15 Q3.7 249.5 3.65 250.9 L3.1 249.5 Q3.1 248.35 3.6 247.55" fill="#e9e9eb" fill-rule="evenodd" stroke="none"/>
      <path d="M4.7 248.05 L8.45 249.7 Q8.45 250.45 7.35 251.0 6.2 251.55 4.6 251.55 L4.55 251.55 4.15 251.45 3.65 250.9 Q3.75 249.5 4.7 248.15 L4.7 248.05" fill="#d0cfd0" fill-rule="evenodd" stroke="none"/>
      <path d="M8.45 249.7 L9.3 250.05 Q8.7 252.1 6.3 252.3 5.0 252.25 4.15 251.5 L4.55 251.55 4.6 251.55 Q6.2 251.55 7.35 251.0 8.45 250.45 8.45 249.7" fill="#b0aeb3" fill-rule="evenodd" stroke="none"/>
      <path d="M63.35 34.1 L67.0 10.4 70.2 34.25 Q68.65 35.75 68.45 38.05 68.25 40.1 66.55 40.95 L66.4 39.45 Q65.9 35.95 63.35 34.1 M46.0 135.55 L35.4 127.8 47.65 122.35 59.3 164.25 40.85 143.75 46.0 136.7 46.0 135.55 M80.5 139.65 L85.9 144.95 66.65 163.8 84.25 121.8 94.05 126.35 80.45 138.85 80.5 139.65 M17.2 132.8 L32.05 129.15 42.45 136.5 Q40.05 139.7 37.8 143.0 L37.5 143.95 37.55 144.4 37.8 144.85 59.6 169.05 60.9 172.65 59.45 256.2 32.15 256.05 31.95 251.2 34.65 248.85 34.2 240.15 31.55 238.35 32.25 232.3 31.2 230.8 27.6 160.15 15.4 143.95 17.2 132.8 M14.4 147.55 L24.65 160.75 28.0 227.6 20.95 220.65 20.45 220.25 19.75 220.2 Q14.35 221.05 9.85 223.5 5.95 225.65 2.9 229.4 L1.5 213.45 4.55 179.4 14.4 147.55 M84.15 139.3 L97.05 127.75 113.15 134.85 114.9 137.65 102.4 154.55 99.4 229.8 97.35 232.3 98.2 238.25 Q96.05 238.65 95.7 240.6 95.0 244.3 94.75 248.15 L94.8 248.55 99.05 252.3 98.85 256.45 62.45 256.25 64.05 170.55 89.1 146.0 89.3 144.15 84.15 139.3 M115.85 141.35 L122.85 180.85 124.3 226.5 121.0 222.3 120.05 221.75 109.8 220.2 109.1 220.25 108.5 220.6 102.5 226.6 105.4 155.15 115.85 141.35" fill="#591f0b" fill-rule="evenodd" stroke="none"/>
      <path d="M55.5 139.35 L59.25 131.3 61.15 135.25 56.4 142.65 55.5 139.35 M54.3 134.95 L50.95 122.95 58.35 126.2 54.3 134.95 M73.4 126.0 L80.6 122.75 76.5 132.55 73.4 126.0 M73.3 140.2 L69.35 135.4 72.45 131.1 74.95 136.25 73.3 140.2" fill="#d1b8a2" fill-rule="evenodd" stroke="none"/>
      <path d="M63.35 34.1 Q65.9 35.95 66.4 39.45 L66.55 40.95 Q68.25 40.1 68.45 38.05 68.65 35.75 70.2 34.25 L74.65 66.9 Q72.6 67.75 70.05 70.1 L66.25 73.65 66.2 73.75 65.45 73.75 Q64.75 70.75 61.2 68.4 L58.35 66.6 63.35 34.1 M63.35 73.75 L59.2 74.05 59.0 75.15 59.55 75.7 62.95 75.75 Q62.8 80.85 60.4 85.65 L60.55 86.05 61.55 86.5 Q63.65 84.95 64.2 82.35 64.85 79.0 64.95 75.75 L66.75 75.75 Q66.65 81.6 69.75 86.05 L70.2 86.5 71.3 85.65 Q69.55 82.6 69.1 79.05 L68.75 75.75 72.05 75.7 72.65 74.75 72.05 73.85 69.0 73.75 74.9 69.0 80.1 107.5 Q75.6 99.3 68.5 93.45 67.3 92.5 65.8 92.3 L64.3 92.4 Q61.2 93.9 59.0 96.9 55.15 102.25 52.0 108.0 L58.05 68.7 61.3 70.95 63.35 73.75 M65.4 93.85 Q76.85 101.9 80.85 115.55 L81.8 118.9 67.5 125.35 50.3 119.35 Q53.55 106.8 62.0 97.0 63.6 95.1 65.4 93.85" fill="#ae8367" fill-rule="evenodd" stroke="none"/>
      <path d="M3.6 247.55 L2.35 246.55 2.1 246.0 1.55 243.95 1.05 242.8 -1.5 213.6 1.55 179.05 12.4 143.9 15.15 130.55 Q31.6 126.25 47.25 119.25 L65.6 -0.2 66.35 -1.2 67.6 -1.25 68.55 -0.2 84.8 118.8 Q97.8 124.95 110.95 130.85 112.95 131.8 114.55 133.25 116.6 135.1 118.2 137.5 L125.85 180.45 127.95 245.65 127.75 246.5 104.75 256.45 101.95 254.55 101.2 258.95 100.3 259.45 30.0 258.85 29.05 253.45 Q27.6 255.5 25.15 255.55 16.8 254.5 9.55 250.15 L9.3 250.05 8.45 249.7 4.7 248.05 3.6 247.55 M70.2 34.25 L67.0 10.4 63.35 34.1 58.35 66.6 61.2 68.4 Q64.75 70.75 65.45 73.75 L66.2 73.75 66.25 73.65 70.05 70.1 Q72.6 67.75 74.65 66.9 L70.2 34.25 M65.4 93.85 Q63.6 95.1 62.0 97.0 53.55 106.8 50.3 119.35 L67.5 125.35 81.8 118.9 80.85 115.55 Q76.85 101.9 65.4 93.85 M63.35 73.75 L61.3 70.95 58.05 68.7 52.0 108.0 Q55.15 102.25 59.0 96.9 61.2 93.9 64.3 92.4 L65.8 92.3 Q67.3 92.5 68.5 93.45 75.6 99.3 80.1 107.5 L74.9 69.0 69.0 73.75 72.05 73.85 72.65 74.75 72.05 75.7 68.75 75.75 69.1 79.05 Q69.55 82.6 71.3 85.65 L70.2 86.5 69.75 86.05 Q66.65 81.6 66.75 75.75 L64.95 75.75 Q64.85 79.0 64.2 82.35 63.65 84.95 61.55 86.5 L60.55 86.05 60.4 85.65 Q62.8 80.85 62.95 75.75 L59.55 75.7 59.0 75.15 59.2 74.05 63.35 73.75 M54.3 134.95 L58.35 126.2 50.95 122.95 54.3 134.95 M55.5 139.35 L56.4 142.65 61.15 135.25 59.25 131.3 55.5 139.35 M46.0 135.55 L46.0 136.7 40.85 143.75 59.3 164.25 47.65 122.35 35.4 127.8 46.0 135.55 M73.4 126.0 L76.5 132.55 80.6 122.75 73.4 126.0 M67.25 137.55 L63.7 136.85 57.5 146.55 62.75 165.4 72.0 143.35 67.25 137.55 M61.55 126.45 L60.9 127.8 63.75 133.8 66.45 134.3 70.95 128.0 70.6 127.25 Q69.1 128.55 67.1 128.2 L61.55 126.45 M73.3 140.2 L74.95 136.25 72.45 131.1 69.35 135.4 73.3 140.2 M115.85 141.35 L105.4 155.15 102.5 226.6 108.5 220.6 109.1 220.25 109.8 220.2 120.05 221.75 121.0 222.3 124.3 226.5 122.85 180.85 115.85 141.35 M84.15 139.3 L89.3 144.15 89.1 146.0 64.05 170.55 62.45 256.25 98.85 256.45 99.05 252.3 94.8 248.55 94.75 248.15 Q95.0 244.3 95.7 240.6 96.05 238.65 98.2 238.25 L97.35 232.3 99.4 229.8 102.4 154.55 114.9 137.65 113.15 134.85 97.05 127.75 84.15 139.3 M14.4 147.55 L4.55 179.4 1.5 213.45 2.9 229.4 Q5.95 225.65 9.85 223.5 14.35 221.05 19.75 220.2 L20.45 220.25 20.95 220.65 28.0 227.6 24.65 160.75 14.4 147.55 M17.2 132.8 L15.4 143.95 27.6 160.15 31.2 230.8 32.25 232.3 31.55 238.35 34.2 240.15 34.65 248.85 31.95 251.2 32.15 256.05 59.45 256.2 60.9 172.65 59.6 169.05 37.8 144.85 37.55 144.4 37.5 143.95 37.8 143.0 Q40.05 139.7 42.45 136.5 L32.05 129.15 17.2 132.8 M80.5 139.65 L80.45 138.85 94.05 126.35 84.25 121.8 66.65 163.8 85.9 144.95 80.5 139.65 M15.4 233.2 L15.65 232.75 16.85 232.65 Q18.55 237.3 19.2 242.2 L26.6 242.2 29.15 232.95 19.45 223.25 10.55 224.6 5.55 230.95 4.65 244.75 24.35 253.25 31.7 247.6 31.3 241.55 30.4 241.1 28.05 245.15 21.65 245.05 Q19.85 244.75 18.8 243.3 15.35 238.85 15.4 233.2 M124.9 244.75 L124.0 230.9 119.0 224.6 110.1 223.25 100.4 232.95 Q100.8 235.8 101.55 238.55 L102.85 242.2 110.3 242.2 Q110.95 237.95 111.85 233.8 111.95 233.25 112.4 232.95 112.8 232.6 113.35 232.6 114.75 232.9 114.55 234.2 113.75 239.35 112.6 244.45 L112.1 245.15 101.85 245.25 Q101.1 245.25 100.8 244.7 L99.1 241.15 98.2 241.6 97.8 247.55 105.2 253.25 124.9 244.75" fill="#1a1a1a" fill-rule="evenodd" stroke="none"/>
      <path d="M124.9 244.75 L105.2 253.25 97.8 247.55 98.2 241.6 99.1 241.15 100.8 244.7 Q101.1 245.25 101.85 245.25 L112.1 245.15 112.6 244.45 Q113.75 239.35 114.55 234.2 114.75 232.9 113.35 232.6 112.8 232.6 112.4 232.95 111.95 233.25 111.85 233.8 110.95 237.95 110.3 242.2 L102.85 242.2 101.55 238.55 Q100.8 235.8 100.4 232.95 L110.1 223.25 119.0 224.6 124.0 230.9 124.9 244.75 M15.4 233.2 Q15.35 238.85 18.8 243.3 19.85 244.75 21.65 245.05 L28.05 245.15 30.4 241.1 31.3 241.55 31.7 247.6 24.35 253.25 4.65 244.75 5.55 230.95 10.55 224.6 19.45 223.25 29.15 232.95 26.6 242.2 19.2 242.2 Q18.55 237.3 16.85 232.65 L15.65 232.75 15.4 233.2" fill="#e6c6b0" fill-rule="evenodd" stroke="none"/>
      <path d="M61.55 126.45 L67.1 128.2 Q69.1 128.55 70.6 127.25 L70.95 128.0 66.45 134.3 63.75 133.8 60.9 127.8 61.55 126.45 M67.25 137.55 L72.0 143.35 62.75 165.4 57.5 146.55 63.7 136.85 67.25 137.55" fill="#331c1a" fill-rule="evenodd" stroke="none"/>
    </g>
    <g id="shape4" transform="matrix(1.0, 0.0, 0.0, 1.0, -17.4, 0.0)">
      <path d="M110.3 10.45 L110.3 12.5 102.3 20.9 102.3 18.75 102.35 18.75 110.3 10.45 M113.3 15.45 Q113.7 17.55 112.7 19.45 109.85 24.6 104.25 22.35 L104.2 20.4 Q105.6 21.2 107.3 21.25 112.8 20.75 113.3 15.45 M118.55 48.25 L115.25 5.7 88.2 5.7 79.85 55.1 69.0 119.35 45.0 131.6 23.1 184.6 24.1 257.0 25.95 260.3 32.15 271.65 162.15 271.65 167.85 262.6 176.55 194.2 176.9 191.75 159.2 137.2 124.05 119.35 118.55 48.25 M111.3 66.95 Q111.05 67.4 112.55 67.75 114.85 67.85 115.7 66.35 114.05 71.3 110.7 66.5 L111.3 66.95 M87.35 69.8 Q88.2 72.8 85.3 74.15 83.85 74.85 82.5 73.9 80.8 72.6 81.05 70.35 81.15 71.15 81.6 71.8 81.65 70.35 82.6 69.0 L82.7 68.95 Q81.7 70.35 81.6 71.8 L82.1 72.35 Q82.95 73.1 84.2 73.15 87.35 72.95 87.35 69.8 M61.3 138.5 Q62.05 144.35 56.55 146.0 54.2 146.75 52.2 145.4 L52.2 143.45 Q53.6 144.25 55.3 144.3 60.8 143.8 61.3 138.5 M58.3 133.5 L58.3 135.55 50.3 143.95 50.3 141.8 50.35 141.8 58.3 133.5 M65.85 118.6 L85.4 4.25 120.45 0.0 129.45 115.3 129.8 115.85 130.15 116.3 130.6 116.7 131.15 116.95 Q147.55 126.2 163.7 136.05 L182.55 191.3 173.55 264.25 165.25 273.65 28.75 273.65 18.45 258.45 17.4 183.5 40.55 127.45 65.85 118.6 M169.95 208.1 Q170.55 211.9 166.85 212.4 164.15 212.2 163.75 209.7 L163.6 208.15 Q163.7 208.95 164.15 209.6 L164.65 210.15 Q165.5 210.9 166.8 210.95 169.55 210.7 169.95 208.1" fill="#47525f" fill-rule="evenodd" stroke="none"/>
      <path d="M102.1 17.25 L102.05 17.45 102.05 17.4 102.1 17.25 M102.3 18.7 L102.35 18.75 102.3 18.75 102.3 18.7 M79.85 55.1 L117.8 49.0 118.55 48.25 124.05 119.35 159.2 137.2 176.9 191.75 176.55 194.2 25.95 260.3 24.1 257.0 23.1 184.6 45.0 131.6 69.0 119.35 79.85 55.1 M115.7 66.35 Q116.15 65.6 116.25 64.35 116.1 63.5 115.6 62.85 L115.5 64.05 115.55 62.85 114.55 62.0 113.85 61.75 Q110.2 61.65 110.0 65.0 L110.05 65.5 110.15 65.7 110.45 66.2 110.45 66.35 110.7 66.5 Q114.05 71.3 115.7 66.35 M85.7 67.45 L85.0 67.15 Q81.4 66.95 81.05 70.35 80.8 72.6 82.5 73.9 83.85 74.85 85.3 74.15 88.2 72.8 87.35 69.8 L86.7 68.3 85.7 67.45 M82.6 69.0 L83.1 68.75 82.7 68.95 82.6 69.0 M52.2 143.45 L59.1 136.2 58.3 135.55 58.3 133.5 57.95 133.25 57.6 133.35 57.75 133.3 Q50.9 131.25 49.1 138.6 L49.5 140.4 50.3 143.95 52.2 145.4 Q54.2 146.75 56.55 146.0 62.05 144.35 61.3 138.5 L60.15 135.1 60.2 136.3 Q59.45 143.6 52.2 143.45 M50.3 141.8 L50.3 141.75 50.35 141.8 50.3 141.8 M50.05 140.55 L50.05 140.5 50.1 140.3 50.05 140.55" fill="#bab9ba" fill-rule="evenodd" stroke="none"/>
      <path d="M110.3 10.45 L109.7 10.25 105.4 10.1 Q101.65 11.55 101.1 15.5 L102.3 20.9 104.25 22.35 Q109.85 24.6 112.7 19.45 113.7 17.55 113.3 15.45 L112.15 12.05 112.2 13.05 Q111.9 20.7 104.2 20.4 L111.1 13.15 110.3 12.5 110.3 10.45 M118.55 48.25 L117.8 49.0 79.85 55.1 88.2 5.7 115.25 5.7 118.55 48.25 M25.95 260.3 L176.55 194.2 167.85 262.6 162.15 271.65 32.15 271.65 25.95 260.3 M169.95 208.1 L169.3 206.5 168.25 205.25 167.55 204.95 Q164.0 204.75 163.6 208.15 L163.75 209.7 Q164.15 212.2 166.85 212.4 170.55 211.9 169.95 208.1" fill="#9c9c9c" fill-rule="evenodd" stroke="none"/>
      <path d="M110.3 12.5 L111.1 13.15 104.2 20.4 104.25 22.35 102.3 20.9 110.3 12.5 M58.3 135.55 L59.1 136.2 52.2 143.45 52.2 145.4 50.3 143.95 58.3 135.55" fill="#57565b" fill-rule="evenodd" stroke="none"/>
      <path d="M102.3 20.9 L101.1 15.5 102.05 17.4 102.05 17.45 102.3 18.7 102.3 18.75 102.3 20.9 M50.3 143.95 L49.5 140.4 49.95 141.3 50.05 140.5 50.05 140.55 50.3 141.75 50.3 141.8 50.3 143.95" fill="#79818b" fill-rule="evenodd" stroke="none"/>
      <path d="M109.7 10.25 L110.3 10.45 102.35 18.75 102.3 18.7 102.05 17.45 102.1 17.25 102.5 16.4 Q104.95 11.95 109.7 10.25 M115.5 64.05 Q115.5 65.25 114.3 66.1 113.05 66.95 111.3 66.95 L110.7 66.5 110.45 66.35 110.45 66.2 Q110.6 64.75 111.7 63.25 113.05 62.15 114.55 62.0 L115.55 62.85 115.5 64.05 M85.7 67.45 L86.7 68.3 Q86.8 70.4 85.2 71.65 83.65 72.55 82.1 72.35 L81.6 71.8 Q81.7 70.35 82.7 68.95 L83.1 68.75 85.7 67.45 M57.6 133.35 L57.95 133.25 58.3 133.5 50.35 141.8 50.3 141.75 50.05 140.55 50.1 140.3 50.45 139.55 Q52.75 135.0 57.6 133.35 M168.25 205.25 L169.3 206.5 Q169.3 208.0 167.95 209.1 166.6 210.15 164.65 210.15 L164.15 209.6 165.25 206.75 168.25 205.25" fill="#d0cfd0" fill-rule="evenodd" stroke="none"/>
      <path d="M101.1 15.5 Q101.65 11.55 105.4 10.1 L109.7 10.25 Q104.95 11.95 102.5 16.4 L102.1 17.25 102.05 17.4 101.1 15.5 M110.45 66.2 L110.15 65.7 110.05 65.5 110.0 65.0 Q110.2 61.65 113.85 61.75 L114.55 62.0 Q113.05 62.15 111.7 63.25 110.6 64.75 110.45 66.2 M81.05 70.35 Q81.4 66.95 85.0 67.15 L85.7 67.45 83.1 68.75 82.6 69.0 Q81.65 70.35 81.6 71.8 81.15 71.15 81.05 70.35 M49.5 140.4 L49.1 138.6 Q50.9 131.25 57.75 133.3 L57.6 133.35 Q52.75 135.0 50.45 139.55 L50.1 140.3 50.05 140.5 49.95 141.3 49.5 140.4 M163.6 208.15 Q164.0 204.75 167.55 204.95 L168.25 205.25 165.25 206.75 164.15 209.6 Q163.7 208.95 163.6 208.15" fill="#e9e9eb" fill-rule="evenodd" stroke="none"/>
      <path d="M104.2 20.4 Q111.9 20.7 112.2 13.05 L112.15 12.05 113.3 15.45 Q112.8 20.75 107.3 21.25 105.6 21.2 104.2 20.4 M115.5 64.05 L115.6 62.85 Q116.1 63.5 116.25 64.35 116.15 65.6 115.7 66.35 114.85 67.85 112.55 67.75 111.05 67.4 111.3 66.95 113.05 66.95 114.3 66.1 115.5 65.25 115.5 64.05 M86.7 68.3 L87.35 69.8 Q87.35 72.95 84.2 73.15 82.95 73.1 82.1 72.35 83.65 72.55 85.2 71.65 86.8 70.4 86.7 68.3 M52.2 143.45 Q59.45 143.6 60.2 136.3 L60.15 135.1 61.3 138.5 Q60.8 143.8 55.3 144.3 53.6 144.25 52.2 143.45 M169.3 206.5 L169.95 208.1 Q169.55 210.7 166.8 210.95 165.5 210.9 164.65 210.15 166.6 210.15 167.95 209.1 169.3 208.0 169.3 206.5" fill="#b0aeb3" fill-rule="evenodd" stroke="none"/>
    </g>
    <g id="shape5" transform="matrix(1.0, 0.0, 0.0, 1.0, -0.15, 0.0)">
      <path d="M41.2 3.95 L41.15 4.0 41.3 4.0 44.35 3.65 45.1 3.6 49.85 3.3 50.1 7.7 50.1 10.1 49.75 10.45 47.5 10.8 45.55 11.05 44.6 11.15 36.4 11.95 33.15 17.35 Q38.35 28.65 45.4 38.9 L48.7 43.9 40.45 52.5 40.25 52.7 38.35 54.95 36.45 57.35 35.6 58.4 34.3 60.1 33.5 61.15 32.05 62.9 Q30.6 62.8 29.95 61.3 L29.3 60.4 28.2 58.8 27.65 57.95 26.25 56.0 25.6 55.0 Q21.25 48.5 15.35 43.2 L15.05 42.65 Q23.8 32.45 27.0 19.2 L27.55 17.35 24.35 12.1 15.95 11.2 14.75 11.05 12.8 10.8 11.4 10.55 Q10.85 10.45 10.8 10.0 L10.75 9.2 10.75 7.2 11.0 3.3 16.05 3.65 18.8 3.95 19.5 4.05 19.3 3.75 Q18.95 3.3 19.25 2.85 L19.5 2.5 23.6 2.4 36.5 2.4 41.35 2.85 41.2 3.95 M44.4 6.85 L42.0 9.25 42.85 9.45 Q44.45 9.3 44.6 7.7 L44.4 6.85 M41.3 8.5 L43.65 6.15 Q41.6 5.6 41.25 7.7 41.2 8.1 41.3 8.5 M41.15 9.85 Q40.25 9.15 40.1 7.7 40.25 6.15 41.3 5.45 L40.2 5.55 37.4 10.25 40.5 9.9 41.15 9.85 M43.9 5.2 Q45.4 5.8 45.6 7.7 L45.1 9.3 48.1 8.9 48.65 4.7 43.9 5.2 M41.95 38.2 L43.25 38.85 41.9 36.6 37.6 29.35 29.4 25.7 26.75 24.55 25.0 29.65 28.0 31.2 41.95 38.2 M41.95 42.6 Q41.05 43.25 41.3 44.35 L43.8 42.35 Q42.85 41.85 41.95 42.6 M44.15 45.15 L44.4 44.85 44.65 43.4 42.15 45.4 Q43.1 45.85 44.15 45.15 M39.1 48.25 L41.25 49.2 43.65 46.5 42.95 46.6 Q41.5 46.45 40.65 45.3 L40.2 43.85 40.4 42.95 26.4 36.65 22.6 35.0 19.65 39.65 20.85 40.15 22.1 39.8 23.45 40.4 25.05 42.0 39.1 48.25 M34.8 9.0 L35.5 9.6 38.0 5.3 36.5 4.05 35.25 4.1 29.2 4.25 34.8 9.0 M25.45 6.7 L22.5 4.4 22.0 4.4 Q24.5 8.6 27.15 12.45 28.0 13.7 29.3 14.6 L31.5 16.2 33.45 12.95 25.45 6.7 M20.7 6.0 L19.85 6.0 Q20.7 7.2 20.4 8.55 20.15 9.6 19.2 10.1 L23.4 10.5 20.7 6.0 M29.35 18.0 L28.25 20.0 29.85 20.75 34.35 22.7 32.2 18.0 29.35 18.0 M19.5 7.75 Q19.35 6.15 17.75 6.0 L16.95 6.25 19.3 8.6 19.5 7.75 M16.0 7.75 Q16.15 9.35 17.75 9.5 L18.6 9.3 16.25 6.95 Q16.05 7.25 16.0 7.75 M12.25 9.2 L15.8 9.7 Q14.6 8.25 15.3 6.7 L15.75 5.9 12.7 5.45 12.25 9.2 M23.25 41.2 L22.1 40.8 21.3 41.05 23.8 43.05 Q24.05 42.3 23.25 41.2 M20.35 42.55 Q20.5 44.15 22.1 44.3 L22.95 44.1 20.6 41.75 20.35 42.55 M25.05 47.75 L21.05 46.6 25.7 52.6 27.0 54.4 32.65 56.5 34.75 57.05 37.9 53.1 36.05 52.1 25.05 47.75" fill="#441c0c" fill-rule="evenodd" stroke="none"/>
      <path d="M41.3 4.0 L41.2 3.95 41.35 2.85 36.5 2.4 30.15 1.6 23.6 2.4 19.5 2.5 19.25 2.85 Q18.95 3.3 19.3 3.75 L18.8 3.95 16.05 3.65 Q20.25 1.5 25.0 0.6 L26.25 0.4 30.15 0.1 Q38.05 0.3 44.35 3.65 L41.3 4.0 M10.75 7.2 L10.75 9.2 9.9 10.0 Q1.8 18.1 1.5 30.25 1.8 42.4 9.9 50.5 17.35 57.95 28.2 58.8 L29.3 60.4 Q17.05 59.8 8.85 51.55 4.25 46.95 2.05 41.15 -2.2 29.0 3.1 17.3 5.8 11.45 10.75 7.2 M12.8 10.8 L14.75 11.05 Q8.85 15.8 6.5 23.15 3.4 33.0 8.5 42.1 13.6 51.25 23.55 53.95 L25.6 55.0 26.25 56.0 Q18.9 54.95 13.3 50.15 5.4 43.3 4.45 32.95 3.25 19.85 12.8 10.8 M34.3 60.1 L35.6 58.4 Q43.05 57.15 48.8 52.25 57.85 44.45 58.45 32.4 59.05 19.5 50.1 10.1 L50.1 7.7 51.45 8.95 Q60.0 17.45 60.3 30.25 60.0 43.05 51.45 51.55 44.35 58.7 34.3 60.1 M38.35 54.95 L40.25 52.7 Q51.55 47.35 54.05 35.2 56.15 25.1 50.65 16.55 48.6 13.3 45.55 11.05 L47.5 10.8 Q50.95 13.85 53.05 17.95 58.75 29.0 54.0 40.3 49.45 51.2 38.35 54.95" fill="#4f2713" fill-rule="evenodd" stroke="none"/>
      <path d="M41.3 4.0 L41.15 4.0 41.2 3.95 41.3 4.0 M36.5 2.4 L23.6 2.4 30.15 1.6 36.5 2.4 M19.3 3.75 L19.5 4.05 18.8 3.95 19.3 3.75 M10.75 9.2 L10.8 10.0 Q1.1 19.6 2.4 33.1 3.35 42.95 10.25 49.95 17.5 57.2 27.65 57.95 L28.2 58.8 Q17.35 57.95 9.9 50.5 1.8 42.4 1.5 30.25 1.8 18.1 9.9 10.0 L10.75 9.2 M35.6 58.4 L36.45 57.35 Q44.1 55.55 49.75 49.9 57.65 42.0 57.95 30.15 57.65 18.3 49.75 10.45 L50.1 10.1 Q59.05 19.5 58.45 32.4 57.85 44.45 48.8 52.25 43.05 57.15 35.6 58.4" fill="#a89678" fill-rule="evenodd" stroke="none"/>
      <path d="M45.1 3.6 L44.35 3.65 Q38.05 0.3 30.15 0.1 L26.25 0.4 30.75 0.0 Q38.75 0.2 45.1 3.6" fill="#724a30" fill-rule="evenodd" stroke="none"/>
      <path d="M41.3 8.5 Q41.2 8.1 41.25 7.7 41.6 5.6 43.65 6.15 L41.3 8.5 M44.4 6.85 L44.6 7.7 Q44.45 9.3 42.85 9.45 L42.0 9.25 44.4 6.85 M44.15 45.15 Q43.1 45.85 42.15 45.4 L44.65 43.4 44.4 44.85 44.15 45.15 M41.95 42.6 Q42.85 41.85 43.8 42.35 L41.3 44.35 Q41.05 43.25 41.95 42.6 M16.0 7.75 Q16.05 7.25 16.25 6.95 L18.6 9.3 17.75 9.5 Q16.15 9.35 16.0 7.75 M19.5 7.75 L19.3 8.6 16.95 6.25 17.75 6.0 Q19.35 6.15 19.5 7.75 M20.35 42.55 L20.6 41.75 22.95 44.1 22.1 44.3 Q20.5 44.15 20.35 42.55 M23.25 41.2 Q24.05 42.3 23.8 43.05 L21.3 41.05 22.1 40.8 23.25 41.2" fill="#d7cdbb" fill-rule="evenodd" stroke="none"/>
      <path d="M15.95 11.2 L24.35 12.1 27.55 17.35 27.0 19.2 Q23.8 32.45 15.05 42.65 L15.35 43.2 Q21.25 48.5 25.6 55.0 L23.55 53.95 22.3 52.95 Q17.25 51.25 13.4 47.45 6.8 40.95 6.55 30.8 6.8 20.6 13.4 13.55 14.6 12.25 15.95 11.2 M40.45 52.5 L48.7 43.9 45.4 38.9 Q38.35 28.65 33.15 17.35 L36.4 11.95 44.6 11.15 Q51.75 16.65 53.55 25.4 55.55 35.3 50.0 43.55 47.2 47.8 42.95 50.65 L40.45 52.5 M46.05 37.8 L48.6 41.5 Q50.4 39.45 51.3 36.9 52.6 33.25 52.4 29.4 51.85 18.25 43.0 11.75 L41.65 12.05 Q38.8 11.65 36.35 13.2 33.8 16.5 35.55 20.15 40.0 29.5 46.05 37.8 M14.45 42.25 Q18.5 37.2 21.35 31.55 L23.75 25.95 Q25.15 22.1 25.9 17.95 26.3 15.65 24.6 14.0 22.2 12.4 19.25 12.3 15.05 14.65 12.0 18.35 10.25 20.5 9.3 23.5 6.2 33.5 11.7 42.45 14.8 47.45 19.85 49.4 L18.65 48.0 Q17.45 46.65 15.95 45.75 13.95 44.4 14.45 42.25" fill="#a99b81" fill-rule="evenodd" stroke="none"/>
      <path d="M41.15 9.85 L40.5 9.9 37.4 10.25 40.2 5.55 41.3 5.45 Q40.25 6.15 40.1 7.7 40.25 9.15 41.15 9.85 M43.9 5.2 L48.65 4.7 48.1 8.9 45.1 9.3 45.6 7.7 Q45.4 5.8 43.9 5.2 M20.7 6.0 L23.4 10.5 19.2 10.1 Q20.15 9.6 20.4 8.55 20.7 7.2 19.85 6.0 L20.7 6.0 M12.25 9.2 L12.7 5.45 15.75 5.9 15.3 6.7 Q14.6 8.25 15.8 9.7 L12.25 9.2" fill="#b5a581" fill-rule="evenodd" stroke="none"/>
      <path d="M14.75 11.05 L15.95 11.2 Q14.6 12.25 13.4 13.55 6.8 20.6 6.55 30.8 6.8 40.95 13.4 47.45 17.25 51.25 22.3 52.95 L23.55 53.95 Q13.6 51.25 8.5 42.1 3.4 33.0 6.5 23.15 8.85 15.8 14.75 11.05 M40.25 52.7 L40.45 52.5 42.95 50.65 Q47.2 47.8 50.0 43.55 55.55 35.3 53.55 25.4 51.75 16.65 44.6 11.15 L45.55 11.05 Q48.6 13.3 50.65 16.55 56.15 25.1 54.05 35.2 51.55 47.35 40.25 52.7" fill="#887c64" fill-rule="evenodd" stroke="none"/>
      <path d="M10.8 10.0 Q10.85 10.45 11.4 10.55 L12.8 10.8 Q3.25 19.85 4.45 32.95 5.4 43.3 13.3 50.15 18.9 54.95 26.25 56.0 L27.65 57.95 Q17.5 57.2 10.25 49.95 3.35 42.95 2.4 33.1 1.1 19.6 10.8 10.0 M36.45 57.35 L38.35 54.95 Q49.45 51.2 54.0 40.3 58.75 29.0 53.05 17.95 50.95 13.85 47.5 10.8 L49.75 10.45 Q57.65 18.3 57.95 30.15 57.65 42.0 49.75 49.9 44.1 55.55 36.45 57.35" fill="#f0e6ca" fill-rule="evenodd" stroke="none"/>
      <path d="M36.35 13.2 Q38.8 11.65 41.65 12.05 L43.0 11.75 Q51.85 18.25 52.4 29.4 52.6 33.25 51.3 36.9 50.4 39.45 48.6 41.5 L46.05 37.8 Q50.35 29.45 46.7 20.6 43.8 13.75 36.35 13.2 M24.6 14.0 Q16.75 16.25 12.2 23.4 8.65 29.55 11.25 36.2 12.4 39.5 14.45 42.25 13.95 44.4 15.95 45.75 17.45 46.65 18.65 48.0 L19.85 49.4 Q14.8 47.45 11.7 42.45 6.2 33.5 9.3 23.5 10.25 20.5 12.0 18.35 15.05 14.65 19.25 12.3 22.2 12.4 24.6 14.0" fill="#c4b696" fill-rule="evenodd" stroke="none"/>
      <path d="M46.05 37.8 Q40.0 29.5 35.55 20.15 33.8 16.5 36.35 13.2 43.8 13.75 46.7 20.6 50.35 29.45 46.05 37.8 M24.6 14.0 Q26.3 15.65 25.9 17.95 25.15 22.1 23.75 25.95 L21.35 31.55 Q18.5 37.2 14.45 42.25 12.4 39.5 11.25 36.2 8.65 29.55 12.2 23.4 16.75 16.25 24.6 14.0" fill="#d8ceba" fill-rule="evenodd" stroke="none"/>
      <path d="M41.9 36.6 L43.25 38.85 41.95 38.2 41.9 36.6 M28.0 31.2 L25.0 29.65 26.75 24.55 29.4 25.7 28.0 31.2 M40.65 45.3 Q41.5 46.45 42.95 46.6 L43.65 46.5 41.25 49.2 39.1 48.25 40.65 45.3 M25.05 42.0 L23.45 40.4 22.1 39.8 20.85 40.15 19.65 39.65 22.6 35.0 26.4 36.65 25.05 42.0 M35.25 4.1 L36.5 4.05 38.0 5.3 35.5 9.6 34.8 9.0 35.25 4.1 M29.3 14.6 Q28.0 13.7 27.15 12.45 24.5 8.6 22.0 4.4 L22.5 4.4 25.45 6.7 26.55 8.3 Q28.7 11.05 29.3 14.6 M29.85 20.75 L28.25 20.0 29.35 18.0 29.85 20.75 M25.7 52.6 L21.05 46.6 25.05 47.75 25.7 52.6 M36.05 52.1 L37.9 53.1 34.75 57.05 32.65 56.5 36.05 52.1" fill="#af9f81" fill-rule="evenodd" stroke="none"/>
      <path d="M41.9 36.6 L41.95 38.2 28.0 31.2 29.4 25.7 37.6 29.35 41.9 36.6 M40.65 45.3 L39.1 48.25 25.05 42.0 26.4 36.65 40.4 42.95 40.2 43.85 40.65 45.3 M35.25 4.1 L34.8 9.0 29.2 4.25 35.25 4.1 M29.3 14.6 Q28.7 11.05 26.55 8.3 L25.45 6.7 33.45 12.95 31.5 16.2 29.3 14.6 M29.85 20.75 L29.35 18.0 32.2 18.0 34.35 22.7 29.85 20.75 M25.7 52.6 L25.05 47.75 36.05 52.1 32.65 56.5 27.0 54.4 25.7 52.6" fill="#c4b898" fill-rule="evenodd" stroke="none"/>
    </g>
  </defs>
</svg>
