<?xml version="1.0" encoding="UTF-8" standalone="no"?>
<svg xmlns:xlink="http://www.w3.org/1999/xlink" height="454.95px" width="385.95px" xmlns="http://www.w3.org/2000/svg">
  <g transform="matrix(1.0, 0.0, 0.0, 1.0, 193.15, 454.95)">
    <use height="36.0" transform="matrix(1.0, 0.0, 0.0, 1.0, -79.5, -36.0)" width="159.0" xlink:href="#shape0"/>
    <use height="96.65" transform="matrix(1.0, 0.0, 0.0, 1.0, -27.1, -108.0)" width="54.2" xlink:href="#shape1"/>
    <use height="37.0" transform="matrix(1.0, 0.0, 0.0, 1.0, -92.6, -94.35)" width="185.25" xlink:href="#shape2"/>
    <use height="15.3" transform="matrix(1.0, 0.0, 0.0, 1.0, -48.3, -81.5)" width="95.2" xlink:href="#text0"/>
    <use height="273.65" transform="matrix(1.0, 0.0, 0.0, 1.0, -133.45, -372.5)" width="266.95" xlink:href="#shape3"/>
    <use height="256.9" transform="matrix(1.0, 0.0, 0.0, 1.0, -113.4, -356.2)" width="228.15" xlink:href="#shape4"/>
    <use height="62.9" transform="matrix(1.0, 0.0, 0.0, 1.0, -30.55, -213.35)" width="60.15" xlink:href="#shape5"/>
  </g>
  <defs>
    <g id="shape0" transform="matrix(1.0, 0.0, 0.0, 1.0, 0.0, 0.0)">
      <path d="M135.7 30.75 Q113.3 35.8 79.5 36.0 45.7 35.8 23.3 30.75 0.85 25.65 0.0 18.0 0.85 10.35 23.3 5.25 45.7 0.2 79.5 0.0 113.3 0.2 135.7 5.25 158.15 10.35 159.0 18.0 158.15 25.65 135.7 30.75" fill="#000000" fill-opacity="0.39607844" fill-rule="evenodd" stroke="none"/>
    </g>
    <g id="shape1" transform="matrix(1.0, 0.0, 0.0, 1.0, 0.0, 0.0)">
      <path d="M5.85 93.35 Q-0.15 90.4 0.0 90.0 L0.0 0.0 54.2 0.0 54.2 90.0 Q54.15 90.4 46.95 93.35 39.7 96.25 25.65 96.65 11.8 96.25 5.85 93.35" fill="url(#gradient0)" fill-rule="evenodd" stroke="none"/>
    </g>
    <linearGradient gradientTransform="matrix(0.0303, 0.0, 0.0, 0.0303, 25.7, 48.35)" gradientUnits="userSpaceOnUse" id="gradient0" spreadMethod="pad" x1="-819.2" x2="819.2">
      <stop offset="0.0" stop-color="#565656"/>
      <stop offset="0.403921568627451" stop-color="#9a9999"/>
      <stop offset="0.592156862745098" stop-color="#dbdbda"/>
      <stop offset="0.7803921568627451" stop-color="#9b9a9a"/>
      <stop offset="1.0" stop-color="#151213"/>
    </linearGradient>
    <g id="shape2" transform="matrix(1.0, 0.0, 0.0, 1.0, -0.05, 0.0)">
      <path d="M185.25 8.2 L185.3 8.25 185.25 8.25 185.25 8.2 M1.9 5.2 L2.3 2.85 18.75 2.05 59.05 0.7 Q83.4 0.05 109.4 0.3 115.1 0.55 118.85 1.6 122.65 2.7 128.15 3.0 L129.3 1.5 Q130.05 0.2 130.5 0.0 160.7 0.5 181.5 3.85 L183.45 6.1 103.3 3.5 Q60.0 3.6 6.5 5.1 L1.9 5.2 M176.25 8.0 L176.45 8.4 177.65 11.45 178.5 13.65 Q179.3 12.8 179.7 10.9 179.7 9.8 179.25 9.1 L179.9 9.55 Q180.65 10.3 180.7 11.75 179.85 15.7 177.15 15.05 175.8 14.75 175.1 13.85 L176.15 14.2 177.35 14.25 176.45 12.35 174.9 8.8 174.8 8.5 174.95 8.35 Q175.75 7.8 176.25 8.0 M178.25 27.3 L179.85 27.15 Q180.5 27.3 181.25 27.95 183.6 31.2 181.35 32.8 180.2 33.6 179.1 33.5 L180.8 32.15 178.8 31.55 175.1 30.4 175.2 29.1 175.2 29.0 175.25 28.7 175.4 28.75 175.85 28.9 178.95 30.05 181.1 30.85 Q181.0 29.65 179.9 28.15 179.05 27.45 178.25 27.3 M9.35 6.95 L10.7 10.45 11.7 12.9 Q12.6 11.95 13.05 9.85 13.05 8.55 12.5 7.75 13.85 8.35 14.15 10.05 L13.75 12.35 Q12.6 15.1 10.15 14.55 8.75 14.25 8.0 13.4 L7.85 13.2 9.0 13.6 10.35 13.65 9.35 11.4 7.6 7.45 8.75 6.6 9.2 6.55 9.35 6.95 M9.4 25.3 Q11.0 24.35 12.9 25.8 15.0 28.35 14.35 30.1 L13.4 31.3 Q12.2 32.25 10.95 32.25 L12.75 30.6 10.4 30.05 6.2 29.05 6.15 27.55 6.15 27.1 6.35 27.15 6.9 27.35 10.45 28.4 12.95 29.1 Q12.75 27.8 11.35 26.15 10.35 25.35 9.4 25.3" fill="#47525f" fill-rule="evenodd" stroke="none"/>
      <path d="M0.05 36.7 L0.75 22.9 Q1.05 14.95 1.6 7.0 L1.9 5.2 6.5 5.1 3.2 8.3 1.95 36.45 0.05 36.7" fill="#cdcdcd" fill-rule="evenodd" stroke="none"/>
      <path d="M13.75 12.35 L14.15 10.05 26.45 10.0 13.75 12.35 M8.0 13.4 L7.0 13.55 7.2 26.2 6.35 27.15 6.15 27.1 6.15 27.55 Q5.15 29.5 6.75 31.55 8.95 33.2 10.95 32.25 12.2 32.25 13.4 31.3 L14.35 30.1 16.45 30.2 36.65 31.3 56.5 32.6 Q50.4 32.9 38.0 32.9 L15.1 32.75 3.85 32.6 5.25 10.05 6.0 10.05 Q6.15 12.3 7.85 13.2 L8.0 13.4" fill="#848484" fill-rule="evenodd" stroke="none"/>
      <path d="M175.1 13.85 Q175.8 14.75 177.15 15.05 179.85 15.7 180.7 11.75 180.65 10.3 179.9 9.55 L180.85 9.65 179.85 27.15 178.25 27.3 177.7 27.3 177.8 15.2 160.95 13.3 Q144.35 11.4 115.0 6.95 144.55 7.2 162.45 8.35 L174.1 9.15 Q173.65 9.7 173.4 10.6 173.45 12.95 175.1 13.85 M175.3 32.3 L137.05 30.55 175.2 29.0 175.2 29.1 Q174.3 30.55 175.3 32.3" fill="#a09fa0" fill-rule="evenodd" stroke="none"/>
      <path d="M176.45 8.4 L176.25 8.0 176.9 7.95 Q178.55 8.05 179.25 9.1 179.7 9.8 179.7 10.9 179.3 12.8 178.5 13.65 L177.65 11.45 178.05 10.25 Q178.0 8.55 176.45 8.4 M174.8 8.5 L174.9 8.8 Q174.35 9.2 174.15 10.05 174.2 11.9 175.85 12.3 L176.45 12.35 177.35 14.25 176.15 14.2 175.1 13.85 Q173.45 12.95 173.4 10.6 173.65 9.7 174.1 9.15 L174.8 8.5 M177.7 27.3 L178.25 27.3 Q179.05 27.45 179.9 28.15 181.0 29.65 181.1 30.85 L178.95 30.05 178.3 28.9 Q177.0 27.8 175.85 28.9 L175.4 28.75 175.8 28.3 Q176.7 27.35 177.7 27.3 M179.1 33.5 Q177.3 34.2 175.5 32.65 L175.3 32.3 Q174.3 30.55 175.2 29.1 L175.1 30.4 Q175.25 32.1 176.95 32.35 178.0 32.25 178.8 31.55 L180.8 32.15 179.1 33.5 M10.7 10.45 L11.2 9.05 Q11.15 7.15 9.35 6.95 L9.2 6.55 9.9 6.5 Q11.75 6.6 12.5 7.75 13.05 8.55 13.05 9.85 12.6 11.95 11.7 12.9 L10.7 10.45 M7.2 26.2 Q8.2 25.2 9.4 25.3 10.35 25.35 11.35 26.15 12.75 27.8 12.95 29.1 L10.45 28.4 Q9.75 26.65 8.05 26.6 L6.9 27.35 6.35 27.15 7.2 26.2 M6.0 10.05 L5.95 9.55 Q6.6 7.0 8.75 6.6 L7.6 7.45 Q7.0 7.9 6.75 8.85 6.8 10.95 8.7 11.35 L9.35 11.4 10.35 13.65 9.0 13.6 7.85 13.2 Q6.15 12.3 6.0 10.05 M6.15 27.55 L6.2 29.05 Q6.45 30.9 8.2 31.1 9.7 31.2 10.4 30.05 L12.75 30.6 10.95 32.25 Q8.95 33.2 6.75 31.55 5.15 29.5 6.15 27.55" fill="#9c9c9c" fill-rule="evenodd" stroke="none"/>
      <path d="M174.9 8.8 L176.45 12.35 175.85 12.3 Q174.2 11.9 174.15 10.05 174.35 9.2 174.9 8.8 M177.65 11.45 L176.45 8.4 Q178.0 8.55 178.05 10.25 L177.65 11.45 M175.85 28.9 Q177.0 27.8 178.3 28.9 L178.95 30.05 175.85 28.9 M175.1 30.4 L178.8 31.55 Q178.0 32.25 176.95 32.35 175.25 32.1 175.1 30.4 M9.35 6.95 Q11.15 7.15 11.2 9.05 L10.7 10.45 9.35 6.95 M9.35 11.4 L8.7 11.35 Q6.8 10.95 6.75 8.85 7.0 7.9 7.6 7.45 L9.35 11.4 M10.45 28.4 L6.9 27.35 8.05 26.6 Q9.75 26.65 10.45 28.4 M6.2 29.05 L10.4 30.05 Q9.7 31.2 8.2 31.1 6.45 30.9 6.2 29.05" fill="#d5d4d4" fill-rule="evenodd" stroke="none"/>
      <path d="M183.45 6.1 L185.3 6.25 185.25 8.2 185.25 8.25 185.1 13.45 184.65 27.3 184.3 36.25 Q157.35 34.75 133.85 35.55 L89.2 37.0 Q65.15 37.15 43.55 35.85 22.0 34.5 0.05 36.75 L0.05 36.7 1.95 36.45 3.2 8.3 6.5 5.1 Q60.0 3.6 103.3 3.5 L183.45 6.1 M176.25 8.0 Q175.75 7.8 174.95 8.35 L174.8 8.5 174.1 9.15 162.45 8.35 Q144.55 7.2 115.0 6.95 144.35 11.4 160.95 13.3 L177.8 15.2 177.7 27.3 Q176.7 27.35 175.8 28.3 L175.4 28.75 175.25 28.7 175.2 29.0 137.05 30.55 175.3 32.3 175.5 32.65 Q177.3 34.2 179.1 33.5 180.2 33.6 181.35 32.8 183.6 31.2 181.25 27.95 180.5 27.3 179.85 27.15 L180.85 9.65 179.9 9.55 179.25 9.1 Q178.55 8.05 176.9 7.95 L176.25 8.0 M12.5 7.75 Q11.75 6.6 9.9 6.5 L9.2 6.55 8.75 6.6 Q6.6 7.0 5.95 9.55 L6.0 10.05 5.25 10.05 3.85 32.6 15.1 32.75 38.0 32.9 Q50.4 32.9 56.5 32.6 L36.65 31.3 16.45 30.2 14.35 30.1 Q15.0 28.35 12.9 25.8 11.0 24.35 9.4 25.3 8.2 25.2 7.2 26.2 L7.0 13.55 8.0 13.4 Q8.75 14.25 10.15 14.55 12.6 15.1 13.75 12.35 L26.45 10.0 14.15 10.05 Q13.85 8.35 12.5 7.75" fill="url(#gradient1)" fill-rule="evenodd" stroke="none"/>
    </g>
    <linearGradient gradientTransform="matrix(0.1131, 0.0, 0.0, 0.0204, 92.65, 20.25)" gradientUnits="userSpaceOnUse" id="gradient1" spreadMethod="pad" x1="-819.2" x2="819.2">
      <stop offset="0.0" stop-color="#9a9a9a"/>
      <stop offset="1.0" stop-color="#ffffff"/>
    </linearGradient>
    <g id="text0" transform="matrix(1.0, 0.0, 0.0, 1.0, -13.0, -5.75)">
      <g transform="matrix(1.0, 0.0, 0.0, 1.0, 12.6, 0.0)">
        <use fill="#000000" height="15.3" transform="matrix(0.4746, 0.0, 0.0, 0.4746, 0.0, 21.0)" width="95.2" xlink:href="#font_______W7_Y0"/>
        <use fill="#000000" height="15.3" transform="matrix(0.4746, 0.0, 0.0, 0.4746, 15.95, 21.0)" width="95.2" xlink:href="#font_______W7_e0"/>
        <use fill="#000000" height="15.3" transform="matrix(0.4746, 0.0, 0.0, 0.4746, 29.35, 21.0)" width="95.2" xlink:href="#font_______W7_s0"/>
        <use fill="#000000" height="15.3" transform="matrix(0.4746, 0.0, 0.0, 0.4746, 49.8, 21.0)" width="95.2" xlink:href="#font_______W7_M0"/>
        <use fill="#000000" height="15.3" transform="matrix(0.4746, 0.0, 0.0, 0.4746, 68.95, 21.0)" width="95.2" xlink:href="#font_______W7_a0"/>
        <use fill="#000000" height="15.3" transform="matrix(0.4746, 0.0, 0.0, 0.4746, 82.75, 21.0)" width="95.2" xlink:href="#font_______W7_n0"/>
      </g>
    </g>
    <g id="font_______W7_Y0">
      <path d="M25.5 -32.15 L25.5 -32.15 15.75 -18.05 5.15 -31.95 0.75 -29.2 12.5 -12.7 10.15 0.05 21.35 -1.4 18.8 -12.8 33.25 -26.05 25.5 -32.15" fill-rule="evenodd" stroke="none"/>
    </g>
    <g id="font_______W7_e0">
      <path d="M19.45 -9.9 L19.45 -9.9 Q16.75 -7.55 13.6 -7.55 10.45 -7.55 9.15 -9.9 L19.45 -9.9 M9.0 -13.4 L9.0 -13.4 Q9.7 -14.95 11.5 -15.95 13.2 -16.8 15.1 -16.8 18.05 -16.8 19.65 -14.35 L9.0 -13.4 M23.25 -9.9 L23.25 -9.9 24.3 -9.9 26.7 -12.6 Q25.85 -16.7 22.9 -19.1 19.9 -21.45 15.15 -21.45 9.65 -21.45 5.9 -18.65 1.8 -15.6 1.8 -10.4 1.8 -5.35 5.8 -2.5 9.3 0.05 14.6 0.05 22.45 0.05 27.15 -4.25 L23.25 -9.9" fill-rule="evenodd" stroke="none"/>
    </g>
    <g id="font_______W7_s0">
      <path d="M25.05 -6.35 L25.05 -6.35 Q25.05 -12.25 15.35 -13.65 8.7 -14.6 8.7 -15.7 8.7 -17.05 12.35 -17.05 17.1 -17.05 22.25 -14.8 L23.8 -18.2 Q19.05 -21.45 12.25 -21.45 8.55 -21.45 6.05 -20.35 2.6 -18.85 2.6 -15.7 2.6 -13.1 4.75 -11.8 6.5 -10.75 10.95 -10.05 L16.3 -8.95 Q17.8 -8.4 17.8 -7.5 17.8 -6.2 15.25 -6.2 12.3 -6.2 9.1 -7.45 5.9 -8.7 3.8 -10.65 L1.0 -2.6 Q6.45 0.05 14.3 0.05 25.05 0.05 25.05 -6.35" fill-rule="evenodd" stroke="none"/>
    </g>
    <g id="font_______W7_M0">
      <path d="M35.55 -31.55 L35.55 -31.55 30.8 -32.15 20.2 -14.25 9.85 -31.5 5.1 -32.15 2.55 0.05 12.6 -1.4 10.85 -20.45 18.7 -2.25 22.0 -3.05 29.9 -20.9 28.25 0.05 38.3 -1.4 35.55 -31.55" fill-rule="evenodd" stroke="none"/>
    </g>
    <g id="font_______W7_a0">
      <path d="M19.05 -8.85 L19.05 -8.85 18.5 -5.05 17.1 -9.0 Q14.35 -6.2 10.6 -6.2 9.95 -6.2 9.45 -6.75 9.0 -7.2 9.0 -7.85 9.0 -10.2 13.7 -10.2 15.9 -10.2 19.05 -8.85 M27.4 -6.8 L27.4 -6.8 Q27.4 -21.45 13.35 -21.45 7.15 -21.45 2.55 -18.35 L4.3 -14.35 Q8.3 -16.55 13.15 -16.55 17.85 -16.55 18.85 -13.35 15.4 -14.5 12.8 -14.5 8.6 -14.5 5.6 -12.8 1.8 -10.75 1.8 -6.95 1.8 -3.5 4.9 -1.55 7.55 0.05 11.15 0.05 13.95 0.05 17.35 -0.95 L17.0 0.15 26.7 -0.3 Q27.4 -3.45 27.4 -6.8" fill-rule="evenodd" stroke="none"/>
    </g>
    <g id="font_______W7_n0">
      <path d="M27.0 -9.05 L27.0 -9.05 Q27.0 -14.5 24.65 -17.8 21.9 -21.45 16.6 -21.45 12.6 -21.45 9.45 -18.85 L9.2 -20.75 4.35 -21.45 2.05 0.05 11.95 -1.4 10.35 -12.55 Q12.95 -15.85 15.9 -15.85 19.4 -15.85 19.4 -10.6 19.4 -6.9 16.6 -1.3 L26.2 0.0 Q27.0 -6.5 27.0 -9.05" fill-rule="evenodd" stroke="none"/>
    </g>
    <g id="shape3" transform="matrix(1.0, 0.0, 0.0, 1.0, 0.0, 0.0)">
      <path d="M196.75 61.35 L193.2 75.65 205.2 82.65 225.5 94.35 244.7 105.35 253.2 110.25 266.95 181.25 252.05 258.15 238.55 273.65 28.15 273.65 8.85 253.25 0.0 171.25 20.2 108.6 33.05 100.0 Q45.05 91.95 58.2 83.2 L75.7 71.7 Q74.1 67.65 71.0 58.05 L65.25 40.05 62.45 31.05 104.75 0.0 178.0 4.0 204.55 31.65 201.9 41.65 196.75 61.35" fill="#47525f" fill-rule="evenodd" stroke="none"/>
      <path d="M175.4 5.7 L198.45 33.2 189.25 76.05 251.45 113.75 263.2 183.1 262.0 188.3 71.9 271.7 30.6 271.7 10.9 250.9 5.75 171.9 22.05 112.25 82.75 74.0 66.4 33.2 106.55 5.7 175.4 5.7" fill="#bab9ba" fill-rule="evenodd" stroke="none"/>
      <path d="M262.0 188.25 L246.85 255.45 231.95 271.65 71.9 271.65 262.0 188.25" fill="#9c9c9c" fill-rule="evenodd" stroke="none"/>
      <path d="M175.35 5.7 L198.45 33.2 192.05 63.05 40.6 100.55 82.7 74.0 66.4 33.2 106.55 5.7 175.35 5.7" fill="#9c9c9c" fill-rule="evenodd" stroke="none"/>
      <path d="M105.95 22.25 L113.95 13.85 115.45 15.1 107.85 23.7 105.95 22.25" fill="#57565b" fill-rule="evenodd" stroke="none"/>
      <path d="M116.95 18.8 L116.95 19.1 Q116.25 24.15 110.95 24.6 109.25 24.55 107.85 23.7 L107.85 21.75 112.25 18.6 115.8 14.9 116.65 16.5 116.95 16.6 116.95 18.7 116.95 18.8" fill="#47525f" fill-rule="evenodd" stroke="none"/>
      <path d="M105.95 22.25 L105.95 20.1 113.95 11.8 113.95 13.85 105.95 22.25" fill="#47525f" fill-rule="evenodd" stroke="none"/>
      <path d="M104.75 16.85 L105.95 19.4 105.95 22.3 Q104.55 20.0 104.75 19.25 L104.75 16.85" fill="#79818b" fill-rule="evenodd" stroke="none"/>
      <path d="M109.25 13.8 Q112.1 11.9 113.6 11.55 L113.95 11.8 106.0 20.1 105.65 19.6 Q105.5 17.05 109.25 13.8" fill="#d0cfd0" fill-rule="evenodd" stroke="none"/>
      <path d="M104.75 16.65 Q105.45 11.55 110.75 10.85 112.3 10.85 113.55 11.55 112.1 11.9 109.2 13.8 105.5 17.05 105.6 19.6 104.8 18.25 104.75 16.65" fill="#e9e9eb" fill-rule="evenodd" stroke="none"/>
      <path d="M114.45 19.65 Q112.9 21.3 110.5 21.55 L107.85 21.75 115.8 13.4 Q116.45 15.8 114.45 19.65" fill="#bab9ba" fill-rule="evenodd" stroke="none"/>
      <path d="M116.95 16.8 Q116.45 22.1 110.95 22.6 109.25 22.55 107.85 21.75 L110.45 21.55 Q112.8 21.3 114.35 19.65 116.35 15.8 115.8 13.4 116.95 14.85 116.95 16.8" fill="#b0aeb3" fill-rule="evenodd" stroke="none"/>
      <path d="M234.55 126.1 L242.55 117.7 244.05 118.95 236.45 127.55 234.55 126.1" fill="#57565b" fill-rule="evenodd" stroke="none"/>
      <path d="M245.5 122.65 L245.5 122.95 Q244.8 128.0 239.5 128.45 237.8 128.4 236.4 127.55 L236.4 125.6 240.8 122.45 244.35 118.75 245.2 120.35 245.5 120.45 245.5 122.55 245.5 122.65" fill="#47525f" fill-rule="evenodd" stroke="none"/>
      <path d="M234.55 126.1 L234.55 123.95 242.55 115.65 242.55 117.7 234.55 126.1" fill="#47525f" fill-rule="evenodd" stroke="none"/>
      <path d="M233.35 120.7 L234.55 123.25 234.55 126.15 Q233.15 123.85 233.35 123.1 L233.35 120.7" fill="#79818b" fill-rule="evenodd" stroke="none"/>
      <path d="M237.8 117.65 Q240.65 115.75 242.15 115.4 L242.5 115.65 234.55 123.95 234.2 123.45 Q234.05 120.9 237.8 117.65" fill="#d0cfd0" fill-rule="evenodd" stroke="none"/>
      <path d="M233.35 120.5 Q234.05 115.4 239.35 114.7 240.9 114.7 242.15 115.4 240.7 115.75 237.8 117.65 234.1 120.9 234.2 123.45 233.4 122.1 233.35 120.5" fill="#e9e9eb" fill-rule="evenodd" stroke="none"/>
      <path d="M243.0 123.5 Q241.45 125.15 239.05 125.4 L236.4 125.6 244.35 117.25 Q245.0 119.65 243.0 123.5" fill="#bab9ba" fill-rule="evenodd" stroke="none"/>
      <path d="M245.5 120.65 Q245.0 125.95 239.5 126.45 237.8 126.4 236.4 125.6 L239.0 125.4 Q241.35 125.15 242.9 123.5 244.9 119.65 244.35 117.25 245.5 118.7 245.5 120.65" fill="#b0aeb3" fill-rule="evenodd" stroke="none"/>
      <path d="M32.05 265.75 L40.05 257.35 41.55 258.6 33.95 267.2 32.05 265.75" fill="#57565b" fill-rule="evenodd" stroke="none"/>
      <path d="M43.0 262.25 L43.0 262.55 Q42.3 267.6 37.0 268.05 35.3 268.0 33.9 267.15 L33.9 265.2 38.3 262.05 41.85 258.35 42.7 259.95 43.0 260.05 43.0 262.15 43.0 262.25" fill="#47525f" fill-rule="evenodd" stroke="none"/>
      <path d="M32.05 265.75 L32.05 263.6 40.05 255.3 40.05 257.35 32.05 265.75" fill="#47525f" fill-rule="evenodd" stroke="none"/>
      <path d="M30.85 260.3 L32.05 262.85 32.05 265.75 Q30.65 263.45 30.85 262.7 L30.85 260.3" fill="#79818b" fill-rule="evenodd" stroke="none"/>
      <path d="M35.3 257.3 Q38.15 255.4 39.65 255.05 L40.0 255.3 32.05 263.6 31.7 263.1 Q31.55 260.55 35.3 257.3" fill="#d0cfd0" fill-rule="evenodd" stroke="none"/>
      <path d="M30.85 260.15 Q31.55 255.05 36.85 254.35 38.4 254.35 39.65 255.05 38.2 255.4 35.3 257.3 31.6 260.55 31.7 263.1 30.9 261.75 30.85 260.15" fill="#e9e9eb" fill-rule="evenodd" stroke="none"/>
      <path d="M40.5 263.15 Q38.95 264.8 36.55 265.05 L33.9 265.25 41.85 256.9 Q42.5 259.3 40.5 263.15" fill="#bab9ba" fill-rule="evenodd" stroke="none"/>
      <path d="M43.0 260.3 Q42.5 265.6 37.0 266.1 35.3 266.05 33.9 265.25 L36.5 265.05 Q38.85 264.8 40.4 263.15 42.4 259.3 41.85 256.9 43.0 258.35 43.0 260.3" fill="#b0aeb3" fill-rule="evenodd" stroke="none"/>
      <path d="M252.65 204.45 Q252.4 207.25 249.5 207.5 246.6 207.25 246.35 204.45 246.6 201.65 249.5 201.4 252.4 201.65 252.65 204.45" fill="#47525f" fill-rule="evenodd" stroke="none"/>
      <path d="M246.25 203.15 L252.55 202.7 252.65 204.45 246.35 204.8 246.25 203.15" fill="#47525f" fill-rule="evenodd" stroke="none"/>
      <path d="M250.9 200.4 Q249.4 200.5 248.0 201.65 246.85 203.15 246.8 204.75 246.25 204.0 246.25 203.05 246.5 200.25 249.4 200.0 250.2 200.0 250.9 200.4" fill="#e9e9eb" fill-rule="evenodd" stroke="none"/>
      <path d="M250.45 204.7 Q248.85 205.55 247.3 205.25 L246.8 204.7 Q246.9 203.15 248.05 201.6 249.4 200.5 250.9 200.35 251.5 200.65 251.9 201.2 252.05 203.4 250.45 204.7" fill="#d0cfd0" fill-rule="evenodd" stroke="none"/>
      <path d="M252.55 203.05 Q252.25 205.85 249.4 206.1 248.1 206.05 247.25 205.3 248.85 205.5 250.4 204.6 252.0 203.35 251.9 201.2 252.5 202.0 252.55 203.05" fill="#b0aeb3" fill-rule="evenodd" stroke="none"/>
      <path d="M198.25 227.4 Q198.0 230.2 195.1 230.45 192.2 230.2 191.95 227.4 192.2 224.6 195.1 224.35 198.0 224.6 198.25 227.4" fill="#47525f" fill-rule="evenodd" stroke="none"/>
      <path d="M191.9 226.05 L198.2 225.6 198.3 227.35 192.0 227.7 191.9 226.05" fill="#47525f" fill-rule="evenodd" stroke="none"/>
      <path d="M196.55 223.3 Q195.05 223.4 193.65 224.55 192.5 226.05 192.45 227.65 191.9 226.9 191.9 225.95 192.15 223.15 195.05 222.9 195.85 222.9 196.55 223.3" fill="#e9e9eb" fill-rule="evenodd" stroke="none"/>
      <path d="M196.05 227.6 Q194.45 228.45 192.9 228.15 L192.4 227.6 Q192.5 226.05 193.65 224.5 195.0 223.4 196.5 223.25 L197.5 224.1 Q197.65 226.3 196.05 227.6" fill="#d0cfd0" fill-rule="evenodd" stroke="none"/>
      <path d="M198.2 225.95 Q197.9 228.75 195.05 229.0 193.75 228.95 192.9 228.2 194.5 228.4 196.05 227.5 197.65 226.25 197.55 224.1 198.15 224.9 198.2 225.95" fill="#b0aeb3" fill-rule="evenodd" stroke="none"/>
      <path d="M183.8 234.6 Q183.55 237.4 180.65 237.65 177.75 237.4 177.5 234.6 177.75 231.8 180.65 231.55 183.55 231.8 183.8 234.6" fill="#47525f" fill-rule="evenodd" stroke="none"/>
      <path d="M177.4 233.3 L183.7 232.85 183.8 234.6 177.5 234.95 177.4 233.3" fill="#47525f" fill-rule="evenodd" stroke="none"/>
      <path d="M182.05 230.55 Q180.55 230.65 179.15 231.8 178.0 233.3 177.95 234.9 177.4 234.15 177.4 233.2 177.65 230.4 180.55 230.15 L182.05 230.55" fill="#e9e9eb" fill-rule="evenodd" stroke="none"/>
      <path d="M181.6 234.85 Q180.0 235.7 178.45 235.4 L177.95 234.85 Q178.05 233.3 179.2 231.75 180.55 230.65 182.05 230.5 L183.05 231.35 Q183.2 233.55 181.6 234.85" fill="#d0cfd0" fill-rule="evenodd" stroke="none"/>
      <path d="M183.7 233.2 Q183.4 236.0 180.55 236.25 179.25 236.2 178.4 235.45 180.0 235.65 181.55 234.75 183.15 233.5 183.05 231.35 183.65 232.15 183.7 233.2" fill="#b0aeb3" fill-rule="evenodd" stroke="none"/>
      <path d="M81.5 84.5 Q81.25 87.3 78.35 87.55 75.45 87.3 75.2 84.5 75.45 81.7 78.35 81.45 81.25 81.7 81.5 84.5" fill="#47525f" fill-rule="evenodd" stroke="none"/>
      <path d="M75.15 83.2 L81.45 82.75 81.55 84.5 75.25 84.85 75.15 83.2" fill="#47525f" fill-rule="evenodd" stroke="none"/>
      <path d="M79.8 80.45 Q78.3 80.55 76.9 81.7 75.75 83.2 75.7 84.8 75.15 84.05 75.15 83.1 75.4 80.3 78.3 80.05 L79.8 80.45" fill="#e9e9eb" fill-rule="evenodd" stroke="none"/>
      <path d="M79.3 84.75 Q77.7 85.6 76.15 85.3 L75.65 84.75 Q75.75 83.2 76.9 81.65 78.25 80.55 79.75 80.4 L80.75 81.25 Q80.9 83.45 79.3 84.75" fill="#d0cfd0" fill-rule="evenodd" stroke="none"/>
      <path d="M81.45 83.1 Q81.15 85.9 78.3 86.15 77.0 86.1 76.15 85.35 77.75 85.55 79.3 84.65 80.9 83.4 80.8 81.25 81.4 82.05 81.45 83.1" fill="#b0aeb3" fill-rule="evenodd" stroke="none"/>
      <path d="M95.5 80.5 Q95.25 83.3 92.35 83.55 89.45 83.3 89.2 80.5 89.45 77.7 92.35 77.45 95.25 77.7 95.5 80.5" fill="#47525f" fill-rule="evenodd" stroke="none"/>
      <path d="M89.15 79.2 L95.45 78.75 95.55 80.5 89.25 80.85 89.15 79.2" fill="#47525f" fill-rule="evenodd" stroke="none"/>
      <path d="M93.8 76.45 Q92.3 76.55 90.9 77.7 89.75 79.2 89.7 80.8 89.15 80.05 89.15 79.1 89.4 76.3 92.3 76.05 93.1 76.05 93.8 76.45" fill="#e9e9eb" fill-rule="evenodd" stroke="none"/>
      <path d="M93.3 80.75 Q91.7 81.6 90.15 81.3 L89.65 80.75 Q89.75 79.2 90.9 77.65 92.25 76.55 93.75 76.4 L94.75 77.25 Q94.9 79.45 93.3 80.75" fill="#d0cfd0" fill-rule="evenodd" stroke="none"/>
      <path d="M95.45 79.1 Q95.15 81.9 92.3 82.15 91.0 82.1 90.15 81.35 91.75 81.55 93.3 80.65 94.9 79.4 94.8 77.25 95.4 78.05 95.45 79.1" fill="#b0aeb3" fill-rule="evenodd" stroke="none"/>
      <path d="M188.0 58.0 Q187.75 60.8 184.85 61.05 181.95 60.8 181.7 58.0 181.95 55.2 184.85 54.95 187.75 55.2 188.0 58.0" fill="#47525f" fill-rule="evenodd" stroke="none"/>
      <path d="M181.65 56.7 L187.95 56.25 188.05 58.0 181.75 58.35 181.65 56.7" fill="#47525f" fill-rule="evenodd" stroke="none"/>
      <path d="M186.3 53.95 Q184.8 54.05 183.4 55.2 182.25 56.7 182.2 58.3 181.65 57.55 181.65 56.6 181.9 53.8 184.8 53.55 L186.3 53.95" fill="#e9e9eb" fill-rule="evenodd" stroke="none"/>
      <path d="M185.8 58.25 Q184.2 59.1 182.65 58.8 L182.15 58.25 Q182.25 56.7 183.4 55.15 184.75 54.05 186.25 53.9 L187.25 54.75 Q187.4 56.95 185.8 58.25" fill="#d0cfd0" fill-rule="evenodd" stroke="none"/>
      <path d="M187.95 56.6 Q187.65 59.4 184.8 59.65 183.5 59.6 182.65 58.85 184.25 59.05 185.8 58.15 187.4 56.9 187.3 54.75 187.9 55.55 187.95 56.6" fill="#b0aeb3" fill-rule="evenodd" stroke="none"/>
    </g>
    <g id="shape4" transform="matrix(1.0, 0.0, 0.0, 1.0, 0.0, 0.0)">
      <path d="M166.1 28.85 Q161.75 47.15 153.45 63.85 L181.2 80.6 220.9 103.0 221.7 104.3 228.15 158.9 228.15 159.35 215.55 228.2 218.2 233.4 Q211.4 241.45 203.25 248.9 199.75 252.1 195.15 254.1 L194.15 254.15 Q191.05 253.3 188.3 251.1 L186.2 249.45 Q181.95 246.1 178.3 242.05 177.15 240.75 176.8 239.25 176.15 236.7 176.1 234.0 175.65 210.95 167.4 189.4 L158.8 198.25 167.3 255.2 166.6 256.65 165.8 256.9 64.15 256.55 63.4 256.35 62.65 254.95 66.9 201.05 53.55 185.15 51.9 186.45 42.75 220.95 45.35 223.0 44.55 231.9 45.35 233.35 Q46.45 235.45 46.35 237.95 38.35 247.1 27.65 252.3 13.8 244.05 3.6 231.65 3.75 201.85 0.0 172.15 L6.45 108.05 6.55 107.7 6.85 107.25 7.2 106.95 7.6 106.75 8.45 106.8 76.95 64.35 77.0 63.8 Q72.5 55.95 68.5 47.8 L66.85 44.45 Q63.85 38.35 61.9 31.85 61.05 28.9 60.7 25.85 60.6 24.9 61.15 24.2 71.7 11.2 86.9 4.0 L86.6 5.0 87.15 3.85 100.65 0.0 135.0 0.0 Q147.4 5.35 158.1 13.5 160.65 15.4 162.9 17.75 167.55 22.5 166.1 28.85 M225.15 159.05 L219.2 108.75 169.65 186.85 Q175.6 201.3 177.9 216.7 L178.3 219.85 178.55 222.95 190.05 215.2 200.05 215.05 Q205.5 214.9 209.1 218.85 L209.95 219.95 213.2 224.65 225.15 159.05 M166.75 185.8 L218.1 104.9 175.8 81.0 171.9 101.05 155.2 104.75 161.3 110.0 161.35 111.6 115.55 147.7 114.9 148.0 113.3 253.7 164.1 253.9 155.75 197.95 166.75 185.8 M169.5 98.75 L173.15 79.0 155.35 69.45 119.1 141.1 157.7 110.7 154.45 107.75 151.25 104.75 Q150.45 104.05 150.7 103.1 L169.5 98.75 M148.8 22.05 L133.3 21.5 Q130.6 21.15 128.25 19.45 L127.7 20.8 127.35 21.2 126.2 21.8 Q124.25 22.45 122.6 21.45 L121.15 20.7 Q118.95 23.8 115.35 24.55 111.25 25.15 107.6 23.75 105.05 22.8 102.55 21.7 L97.05 22.45 Q96.2 22.4 95.5 21.9 93.9 20.8 93.65 19.0 90.95 20.5 88.0 21.15 L80.65 21.6 Q89.95 25.65 99.55 29.35 101.8 30.15 104.25 30.45 L109.15 31.3 Q127.2 30.15 143.85 23.3 L148.8 22.05 M155.0 23.9 L150.15 48.1 157.9 45.8 161.25 36.05 Q163.5 29.8 163.25 23.3 L159.8 22.95 155.0 23.9 M154.65 14.75 Q146.45 8.85 137.3 4.3 128.05 5.9 119.25 9.3 L118.35 8.7 118.55 7.6 131.15 3.0 100.85 3.0 93.15 5.05 102.0 10.8 101.0 11.55 89.35 6.05 Q78.35 12.15 68.1 19.25 L77.7 20.25 Q88.3 20.7 96.9 14.85 L97.95 15.25 97.95 16.4 96.35 17.5 96.9 19.1 103.35 18.7 106.7 20.6 Q111.2 23.1 116.0 21.1 119.05 19.9 119.4 16.5 119.6 14.65 117.9 13.6 110.9 9.45 103.55 13.3 L103.35 14.15 102.65 14.7 101.8 14.75 100.55 13.3 102.7 11.3 Q106.05 8.4 110.4 8.4 L117.4 9.7 Q119.9 10.5 121.55 12.5 124.15 15.65 122.2 19.0 L125.1 20.35 126.3 19.15 126.2 18.15 124.35 15.8 125.4 14.85 128.25 16.5 Q130.3 17.6 132.5 17.85 146.95 20.6 161.5 19.9 L154.65 14.75 M137.2 12.2 Q136.5 13.0 135.65 12.45 133.95 11.3 132.1 10.6 127.45 8.8 124.15 12.6 L123.55 12.7 Q122.5 12.4 122.1 11.1 123.85 7.8 127.45 7.15 132.35 6.3 136.35 9.2 138.3 10.55 137.2 12.2 M151.85 24.5 Q147.25 25.05 142.8 26.75 L135.35 29.25 132.75 52.25 Q138.7 51.6 144.3 49.85 L146.85 49.05 151.85 24.5 M83.9 12.65 Q91.15 7.4 98.9 11.8 L98.45 13.25 97.3 13.7 95.85 12.35 84.45 14.35 83.9 12.65 M81.45 25.15 L87.55 52.9 100.85 53.55 98.15 32.3 81.45 25.15 M101.3 33.15 L103.9 53.55 115.6 53.15 115.6 33.8 111.1 34.15 Q106.2 34.4 101.3 33.15 M115.6 56.25 L104.1 56.25 104.1 61.05 115.6 61.05 115.6 56.25 M118.6 61.05 L128.55 60.05 129.25 55.5 118.6 56.05 118.6 61.05 M110.7 66.05 L123.0 66.75 123.85 67.45 123.45 68.55 Q116.35 71.4 110.05 67.0 L110.7 66.05 M120.55 70.1 L150.5 63.15 153.45 56.55 Q140.3 62.3 126.05 63.5 108.85 64.9 91.65 64.05 84.05 63.2 77.8 59.15 L80.0 62.95 Q98.85 67.95 118.3 70.0 L120.55 70.1 M88.2 55.95 L89.3 60.6 101.3 61.0 101.1 56.55 88.2 55.95 M85.1 55.65 L74.1 52.45 74.7 53.6 86.0 59.75 85.1 55.65 M113.6 85.9 L120.2 85.6 121.9 78.15 117.15 74.35 111.6 79.15 113.6 85.9 M109.15 82.15 L106.5 84.8 87.55 80.05 100.7 108.3 110.9 87.35 109.15 82.15 M120.45 88.6 L113.45 88.9 102.3 111.8 115.85 140.8 130.6 111.7 120.45 88.6 M81.15 66.3 L85.95 76.5 105.5 81.8 112.55 73.4 81.15 66.3 M148.65 55.3 L155.3 52.35 156.5 49.3 149.45 51.45 148.65 55.3 M146.2 52.4 L132.3 55.3 131.6 59.5 145.35 56.4 146.2 52.4 M124.5 80.25 L123.0 86.9 132.35 108.25 146.85 79.6 131.95 86.05 124.5 80.25 M152.9 67.55 L152.0 66.55 120.55 73.2 132.4 82.8 148.65 75.5 152.9 67.55 M118.6 53.05 L129.65 52.45 132.4 30.2 118.6 33.4 118.6 53.05 M76.6 23.7 Q68.75 21.7 63.3 25.45 66.55 38.0 72.05 48.7 L84.35 52.45 78.1 24.05 76.6 23.7 M10.9 110.9 L9.3 110.3 3.05 172.3 3.6 177.5 4.1 182.6 Q5.55 198.0 6.3 213.25 L6.95 225.2 15.5 213.05 31.7 213.4 40.15 219.1 49.5 184.8 51.45 183.0 10.9 110.9 M78.8 103.0 L62.8 101.15 56.05 80.85 12.05 108.1 13.2 108.95 53.4 180.25 69.95 200.7 65.8 253.55 110.3 253.7 111.7 148.2 73.8 111.95 78.8 103.0 M78.55 67.75 L58.75 79.55 64.9 98.55 81.95 100.4 82.35 100.7 82.65 101.55 77.1 111.55 113.2 145.5 114.15 144.2 78.55 67.75 M214.95 232.9 L204.75 217.65 191.3 217.95 179.1 226.4 180.05 232.8 Q187.5 235.3 194.45 231.55 L194.65 228.85 195.1 228.25 Q198.25 231.15 198.05 235.4 L197.35 235.95 196.0 235.6 195.3 234.45 Q187.6 239.9 179.65 235.8 L178.15 238.65 Q185.6 245.9 194.35 251.7 205.35 243.1 214.95 232.9 M43.55 236.9 L42.3 233.95 Q37.65 236.3 32.5 234.95 29.3 234.25 26.35 232.7 L25.95 233.9 24.15 234.3 Q23.65 230.25 25.5 226.6 L26.65 226.5 27.35 227.3 27.2 229.8 Q33.35 233.4 40.0 231.7 40.85 231.6 41.65 231.1 L42.5 224.55 30.35 216.15 16.95 215.85 6.9 230.65 Q16.45 241.0 27.35 249.9 36.2 244.4 43.55 236.9" fill="#1a1a1a" fill-rule="evenodd" stroke="none"/>
      <path d="M169.5 98.75 L150.7 103.1 Q150.45 104.05 151.25 104.75 L154.45 107.75 157.7 110.7 119.1 141.1 155.35 69.45 173.15 79.0 169.5 98.75 M166.75 185.8 L155.75 197.95 164.1 253.9 113.3 253.7 114.9 148.0 115.55 147.7 161.35 111.6 161.3 110.0 155.2 104.75 171.9 101.05 175.8 81.0 218.1 104.9 166.75 185.8 M225.15 159.05 L213.2 224.65 209.95 219.95 209.1 218.85 Q205.5 214.9 200.05 215.05 L190.05 215.2 178.55 222.95 178.3 219.85 177.9 216.7 Q175.6 201.3 169.65 186.85 L219.2 108.75 225.15 159.05 M78.55 67.75 L114.15 144.2 113.2 145.5 77.1 111.55 82.65 101.55 82.35 100.7 81.95 100.4 64.9 98.55 58.75 79.55 78.55 67.75 M78.8 103.0 L73.8 111.95 111.7 148.2 110.3 253.7 65.8 253.55 69.95 200.7 53.4 180.25 13.2 108.95 12.05 108.1 56.05 80.85 62.8 101.15 78.8 103.0 M10.9 110.9 L51.45 183.0 49.5 184.8 40.15 219.1 31.7 213.4 15.5 213.05 6.95 225.2 6.3 213.25 Q5.55 198.0 4.1 182.6 L3.6 177.5 3.05 172.3 9.3 110.3 10.9 110.9" fill="#591f0b" fill-rule="evenodd" stroke="none"/>
      <path d="M155.0 23.9 L159.8 22.95 163.25 23.3 Q163.5 29.8 161.25 36.05 L157.9 45.8 150.15 48.1 155.0 23.9 M151.85 24.5 L146.85 49.05 144.3 49.85 Q138.7 51.6 132.75 52.25 L135.35 29.25 142.8 26.75 Q147.25 25.05 151.85 24.5 M118.6 61.05 L118.6 56.05 129.25 55.5 128.55 60.05 118.6 61.05 M115.6 56.25 L115.6 61.05 104.1 61.05 104.1 56.25 115.6 56.25 M101.3 33.15 Q106.2 34.4 111.1 34.15 L115.6 33.8 115.6 53.15 103.9 53.55 101.3 33.15 M81.45 25.15 L98.15 32.3 100.85 53.55 87.55 52.9 81.45 25.15 M85.1 55.65 L86.0 59.75 74.7 53.6 74.1 52.45 85.1 55.65 M88.2 55.95 L101.1 56.55 101.3 61.0 89.3 60.6 88.2 55.95 M146.2 52.4 L145.35 56.4 131.6 59.5 132.3 55.3 146.2 52.4 M148.65 55.3 L149.45 51.45 156.5 49.3 155.3 52.35 148.65 55.3 M76.6 23.7 L78.1 24.05 84.35 52.45 72.05 48.7 Q66.55 38.0 63.3 25.45 68.75 21.7 76.6 23.7 M118.6 53.05 L118.6 33.4 132.4 30.2 129.65 52.45 118.6 53.05" fill="#ffffff" fill-rule="evenodd" stroke="none"/>
      <path d="M109.15 82.15 L110.9 87.35 100.7 108.3 87.55 80.05 106.5 84.8 109.15 82.15 M81.15 66.3 L112.55 73.4 105.5 81.8 85.95 76.5 81.15 66.3 M152.9 67.55 L148.65 75.5 132.4 82.8 120.55 73.2 152.0 66.55 152.9 67.55 M124.5 80.25 L131.95 86.05 146.85 79.6 132.35 108.25 123.0 86.9 124.5 80.25" fill="#d1b8a2" fill-rule="evenodd" stroke="none"/>
      <path d="M43.55 236.9 Q36.2 244.4 27.35 249.9 16.45 241.0 6.9 230.65 L16.95 215.85 30.35 216.15 42.5 224.55 41.65 231.1 Q40.85 231.6 40.0 231.7 33.35 233.4 27.2 229.8 L27.35 227.3 26.65 226.5 25.5 226.6 Q23.65 230.25 24.15 234.3 L25.95 233.9 26.35 232.7 Q29.3 234.25 32.5 234.95 37.65 236.3 42.3 233.95 L43.55 236.9 M214.95 232.9 Q205.35 243.1 194.35 251.7 185.6 245.9 178.15 238.65 L179.65 235.8 Q187.6 239.9 195.3 234.45 L196.0 235.6 197.35 235.95 198.05 235.4 Q198.25 231.15 195.1 228.25 L194.65 228.85 194.45 231.55 Q187.5 235.3 180.05 232.8 L179.1 226.4 191.3 217.95 204.75 217.65 214.95 232.9" fill="#e6c6b0" fill-rule="evenodd" stroke="none"/>
      <path d="M148.8 22.05 L143.85 23.3 Q127.2 30.15 109.15 31.3 L104.25 30.45 Q101.8 30.15 99.55 29.35 89.95 25.65 80.65 21.6 L88.0 21.15 Q90.95 20.5 93.65 19.0 93.9 20.8 95.5 21.9 96.2 22.4 97.05 22.45 L102.55 21.7 Q105.05 22.8 107.6 23.75 111.25 25.15 115.35 24.55 118.95 23.8 121.15 20.7 L122.6 21.45 Q124.25 22.45 126.2 21.8 L127.35 21.2 127.7 20.8 128.25 19.45 Q130.6 21.15 133.3 21.5 L148.8 22.05 M137.2 12.2 Q138.3 10.55 136.35 9.2 132.35 6.3 127.45 7.15 123.85 7.8 122.1 11.1 122.5 12.4 123.55 12.7 L124.15 12.6 Q127.45 8.8 132.1 10.6 133.95 11.3 135.65 12.45 136.5 13.0 137.2 12.2 M154.65 14.75 L161.5 19.9 Q146.95 20.6 132.5 17.85 130.3 17.6 128.25 16.5 L125.4 14.85 124.35 15.8 126.2 18.15 126.3 19.15 125.1 20.35 122.2 19.0 Q124.15 15.65 121.55 12.5 119.9 10.5 117.4 9.7 L110.4 8.4 Q106.05 8.4 102.7 11.3 L100.55 13.3 101.8 14.75 102.65 14.7 103.35 14.15 103.55 13.3 Q110.9 9.45 117.9 13.6 119.6 14.65 119.4 16.5 119.05 19.9 116.0 21.1 111.2 23.1 106.7 20.6 L103.35 18.7 96.9 19.1 96.35 17.5 97.95 16.4 97.95 15.25 96.9 14.85 Q88.3 20.7 77.7 20.25 L68.1 19.25 Q78.35 12.15 89.35 6.05 L101.0 11.55 102.0 10.8 93.15 5.05 100.85 3.0 131.15 3.0 118.55 7.6 118.35 8.7 119.25 9.3 Q128.05 5.9 137.3 4.3 146.45 8.85 154.65 14.75 M83.9 12.65 L84.45 14.35 95.85 12.35 97.3 13.7 98.45 13.25 98.9 11.8 Q91.15 7.4 83.9 12.65 M120.55 70.1 L118.3 70.0 Q98.85 67.95 80.0 62.95 L77.8 59.15 Q84.05 63.2 91.65 64.05 108.85 64.9 126.05 63.5 140.3 62.3 153.45 56.55 L150.5 63.15 120.55 70.1 M110.7 66.05 L110.05 67.0 Q116.35 71.4 123.45 68.55 L123.85 67.45 123.0 66.75 110.7 66.05" fill="#f3e4de" fill-rule="evenodd" stroke="none"/>
      <path d="M113.6 85.9 L111.6 79.15 117.15 74.35 121.9 78.15 120.2 85.6 113.6 85.9 M120.45 88.6 L130.6 111.7 115.85 140.8 102.3 111.8 113.45 88.9 120.45 88.6" fill="#331c1a" fill-rule="evenodd" stroke="none"/>
    </g>
    <g id="shape5" transform="matrix(1.0, 0.0, 0.0, 1.0, -0.15, 0.0)">
      <path d="M41.2 3.95 L41.15 4.0 41.3 4.0 44.35 3.65 45.1 3.6 49.85 3.3 50.1 7.7 50.1 10.1 49.75 10.45 47.5 10.8 45.55 11.05 44.6 11.15 36.4 11.95 33.15 17.35 Q38.35 28.65 45.4 38.9 L48.7 43.9 40.45 52.5 40.25 52.7 38.35 54.95 36.45 57.35 35.6 58.4 34.3 60.1 33.5 61.15 32.05 62.9 Q30.6 62.8 29.95 61.3 L29.3 60.4 28.2 58.8 27.65 57.95 26.25 56.0 25.6 55.0 Q21.25 48.5 15.35 43.2 L15.05 42.65 Q23.8 32.45 27.0 19.2 L27.55 17.35 24.35 12.1 15.95 11.2 14.75 11.05 12.8 10.8 11.4 10.55 Q10.85 10.45 10.8 10.0 L10.75 9.2 10.75 7.2 11.0 3.3 16.05 3.65 18.8 3.95 19.5 4.05 19.3 3.75 Q18.95 3.3 19.25 2.85 L19.5 2.5 23.6 2.4 36.5 2.4 41.35 2.85 41.2 3.95 M44.4 6.85 L42.0 9.25 42.85 9.45 Q44.45 9.3 44.6 7.7 L44.4 6.85 M41.3 8.5 L43.65 6.15 Q41.6 5.6 41.25 7.7 41.2 8.1 41.3 8.5 M41.15 9.85 Q40.25 9.15 40.1 7.7 40.25 6.15 41.3 5.45 L40.2 5.55 37.4 10.25 40.5 9.9 41.15 9.85 M43.9 5.2 Q45.4 5.8 45.6 7.7 L45.1 9.3 48.1 8.9 48.65 4.7 43.9 5.2 M41.95 38.2 L43.25 38.85 41.9 36.6 37.6 29.35 29.4 25.7 26.75 24.55 25.0 29.65 28.0 31.2 41.95 38.2 M41.95 42.6 Q41.05 43.25 41.3 44.35 L43.8 42.35 Q42.85 41.85 41.95 42.6 M44.15 45.15 L44.4 44.85 44.65 43.4 42.15 45.4 Q43.1 45.85 44.15 45.15 M39.1 48.25 L41.25 49.2 43.65 46.5 42.95 46.6 Q41.5 46.45 40.65 45.3 L40.2 43.85 40.4 42.95 26.4 36.65 22.6 35.0 19.65 39.65 20.85 40.15 22.1 39.8 23.45 40.4 25.05 42.0 39.1 48.25 M34.8 9.0 L35.5 9.6 38.0 5.3 36.5 4.05 35.25 4.1 29.2 4.25 34.8 9.0 M25.45 6.7 L22.5 4.4 22.0 4.4 Q24.5 8.6 27.15 12.45 28.0 13.7 29.3 14.6 L31.5 16.2 33.45 12.95 25.45 6.7 M20.7 6.0 L19.85 6.0 Q20.7 7.2 20.4 8.55 20.15 9.6 19.2 10.1 L23.4 10.5 20.7 6.0 M29.35 18.0 L28.25 20.0 29.85 20.75 34.35 22.7 32.2 18.0 29.35 18.0 M19.5 7.75 Q19.35 6.15 17.75 6.0 L16.95 6.25 19.3 8.6 19.5 7.75 M16.0 7.75 Q16.15 9.35 17.75 9.5 L18.6 9.3 16.25 6.95 Q16.05 7.25 16.0 7.75 M12.25 9.2 L15.8 9.7 Q14.6 8.25 15.3 6.7 L15.75 5.9 12.7 5.45 12.25 9.2 M23.25 41.2 L22.1 40.8 21.3 41.05 23.8 43.05 Q24.05 42.3 23.25 41.2 M20.35 42.55 Q20.5 44.15 22.1 44.3 L22.95 44.1 20.6 41.75 20.35 42.55 M25.05 47.75 L21.05 46.6 25.7 52.6 27.0 54.4 32.65 56.5 34.75 57.05 37.9 53.1 36.05 52.1 25.05 47.75" fill="#441c0c" fill-rule="evenodd" stroke="none"/>
      <path d="M41.3 4.0 L41.2 3.95 41.35 2.85 36.5 2.4 30.15 1.6 23.6 2.4 19.5 2.5 19.25 2.85 Q18.95 3.3 19.3 3.75 L18.8 3.95 16.05 3.65 Q20.25 1.5 25.0 0.6 L26.25 0.4 30.15 0.1 Q38.05 0.3 44.35 3.65 L41.3 4.0 M10.75 7.2 L10.75 9.2 9.9 10.0 Q1.8 18.1 1.5 30.25 1.8 42.4 9.9 50.5 17.35 57.95 28.2 58.8 L29.3 60.4 Q17.05 59.8 8.85 51.55 4.25 46.95 2.05 41.15 -2.2 29.0 3.1 17.3 5.8 11.45 10.75 7.2 M12.8 10.8 L14.75 11.05 Q8.85 15.8 6.5 23.15 3.4 33.0 8.5 42.1 13.6 51.25 23.55 53.95 L25.6 55.0 26.25 56.0 Q18.9 54.95 13.3 50.15 5.4 43.3 4.45 32.95 3.25 19.85 12.8 10.8 M34.3 60.1 L35.6 58.4 Q43.05 57.15 48.8 52.25 57.85 44.45 58.45 32.4 59.05 19.5 50.1 10.1 L50.1 7.7 51.45 8.95 Q60.0 17.45 60.3 30.25 60.0 43.05 51.45 51.55 44.35 58.7 34.3 60.1 M38.35 54.95 L40.25 52.7 Q51.55 47.35 54.05 35.2 56.15 25.1 50.65 16.55 48.6 13.3 45.55 11.05 L47.5 10.8 Q50.95 13.85 53.05 17.95 58.75 29.0 54.0 40.3 49.45 51.2 38.35 54.95" fill="#4f2713" fill-rule="evenodd" stroke="none"/>
      <path d="M41.3 4.0 L41.15 4.0 41.2 3.95 41.3 4.0 M36.5 2.4 L23.6 2.4 30.15 1.6 36.5 2.4 M19.3 3.75 L19.5 4.05 18.8 3.95 19.3 3.75 M10.75 9.2 L10.8 10.0 Q1.1 19.6 2.4 33.1 3.35 42.95 10.25 49.95 17.5 57.2 27.65 57.95 L28.2 58.8 Q17.35 57.95 9.9 50.5 1.8 42.4 1.5 30.25 1.8 18.1 9.9 10.0 L10.75 9.2 M35.6 58.4 L36.45 57.35 Q44.1 55.55 49.75 49.9 57.65 42.0 57.95 30.15 57.65 18.3 49.75 10.45 L50.1 10.1 Q59.05 19.5 58.45 32.4 57.85 44.45 48.8 52.25 43.05 57.15 35.6 58.4" fill="#a89678" fill-rule="evenodd" stroke="none"/>
      <path d="M45.1 3.6 L44.35 3.65 Q38.05 0.3 30.15 0.1 L26.25 0.4 30.75 0.0 Q38.75 0.2 45.1 3.6" fill="#724a30" fill-rule="evenodd" stroke="none"/>
      <path d="M41.3 8.5 Q41.2 8.1 41.25 7.7 41.6 5.6 43.65 6.15 L41.3 8.5 M44.4 6.85 L44.6 7.7 Q44.45 9.3 42.85 9.45 L42.0 9.25 44.4 6.85 M44.15 45.15 Q43.1 45.85 42.15 45.4 L44.65 43.4 44.4 44.85 44.15 45.15 M41.95 42.6 Q42.85 41.85 43.8 42.35 L41.3 44.35 Q41.05 43.25 41.95 42.6 M16.0 7.75 Q16.05 7.25 16.25 6.95 L18.6 9.3 17.75 9.5 Q16.15 9.35 16.0 7.75 M19.5 7.75 L19.3 8.6 16.95 6.25 17.75 6.0 Q19.35 6.15 19.5 7.75 M20.35 42.55 L20.6 41.75 22.95 44.1 22.1 44.3 Q20.5 44.15 20.35 42.55 M23.25 41.2 Q24.05 42.3 23.8 43.05 L21.3 41.05 22.1 40.8 23.25 41.2" fill="#d7cdbb" fill-rule="evenodd" stroke="none"/>
      <path d="M15.95 11.2 L24.35 12.1 27.55 17.35 27.0 19.2 Q23.8 32.45 15.05 42.65 L15.35 43.2 Q21.25 48.5 25.6 55.0 L23.55 53.95 22.3 52.95 Q17.25 51.25 13.4 47.45 6.8 40.95 6.55 30.8 6.8 20.6 13.4 13.55 14.6 12.25 15.95 11.2 M40.45 52.5 L48.7 43.9 45.4 38.9 Q38.35 28.65 33.15 17.35 L36.4 11.95 44.6 11.15 Q51.75 16.65 53.55 25.4 55.55 35.3 50.0 43.55 47.2 47.8 42.95 50.65 L40.45 52.5 M46.05 37.8 L48.6 41.5 Q50.4 39.45 51.3 36.9 52.6 33.25 52.4 29.4 51.85 18.25 43.0 11.75 L41.65 12.05 Q38.8 11.65 36.35 13.2 33.8 16.5 35.55 20.15 40.0 29.5 46.05 37.8 M14.45 42.25 Q18.5 37.2 21.35 31.55 L23.75 25.95 Q25.15 22.1 25.9 17.95 26.3 15.65 24.6 14.0 22.2 12.4 19.25 12.3 15.05 14.65 12.0 18.35 10.25 20.5 9.3 23.5 6.2 33.5 11.7 42.45 14.8 47.45 19.85 49.4 L18.65 48.0 Q17.45 46.65 15.95 45.75 13.95 44.4 14.45 42.25" fill="#a99b81" fill-rule="evenodd" stroke="none"/>
      <path d="M41.15 9.85 L40.5 9.9 37.4 10.25 40.2 5.55 41.3 5.45 Q40.25 6.15 40.1 7.7 40.25 9.15 41.15 9.85 M43.9 5.2 L48.65 4.7 48.1 8.9 45.1 9.3 45.6 7.7 Q45.4 5.8 43.9 5.2 M20.7 6.0 L23.4 10.5 19.2 10.1 Q20.15 9.6 20.4 8.55 20.7 7.2 19.85 6.0 L20.7 6.0 M12.25 9.2 L12.7 5.45 15.75 5.9 15.3 6.7 Q14.6 8.25 15.8 9.7 L12.25 9.2" fill="#b5a581" fill-rule="evenodd" stroke="none"/>
      <path d="M14.75 11.05 L15.95 11.2 Q14.6 12.25 13.4 13.55 6.8 20.6 6.55 30.8 6.8 40.95 13.4 47.45 17.25 51.25 22.3 52.95 L23.55 53.95 Q13.6 51.25 8.5 42.1 3.4 33.0 6.5 23.15 8.85 15.8 14.75 11.05 M40.25 52.7 L40.45 52.5 42.95 50.65 Q47.2 47.8 50.0 43.55 55.55 35.3 53.55 25.4 51.75 16.65 44.6 11.15 L45.55 11.05 Q48.6 13.3 50.65 16.55 56.15 25.1 54.05 35.2 51.55 47.35 40.25 52.7" fill="#887c64" fill-rule="evenodd" stroke="none"/>
      <path d="M10.8 10.0 Q10.85 10.45 11.4 10.55 L12.8 10.8 Q3.25 19.85 4.45 32.95 5.4 43.3 13.3 50.15 18.9 54.95 26.25 56.0 L27.65 57.95 Q17.5 57.2 10.25 49.95 3.35 42.95 2.4 33.1 1.1 19.6 10.8 10.0 M36.45 57.35 L38.35 54.95 Q49.45 51.2 54.0 40.3 58.75 29.0 53.05 17.95 50.95 13.85 47.5 10.8 L49.75 10.45 Q57.65 18.3 57.95 30.15 57.65 42.0 49.75 49.9 44.1 55.55 36.45 57.35" fill="#f0e6ca" fill-rule="evenodd" stroke="none"/>
      <path d="M36.35 13.2 Q38.8 11.65 41.65 12.05 L43.0 11.75 Q51.85 18.25 52.4 29.4 52.6 33.25 51.3 36.9 50.4 39.45 48.6 41.5 L46.05 37.8 Q50.35 29.45 46.7 20.6 43.8 13.75 36.35 13.2 M24.6 14.0 Q16.75 16.25 12.2 23.4 8.65 29.55 11.25 36.2 12.4 39.5 14.45 42.25 13.95 44.4 15.95 45.75 17.45 46.65 18.65 48.0 L19.85 49.4 Q14.8 47.45 11.7 42.45 6.2 33.5 9.3 23.5 10.25 20.5 12.0 18.35 15.05 14.65 19.25 12.3 22.2 12.4 24.6 14.0" fill="#c4b696" fill-rule="evenodd" stroke="none"/>
      <path d="M46.05 37.8 Q40.0 29.5 35.55 20.15 33.8 16.5 36.35 13.2 43.8 13.75 46.7 20.6 50.35 29.45 46.05 37.8 M24.6 14.0 Q26.3 15.65 25.9 17.95 25.15 22.1 23.75 25.95 L21.35 31.55 Q18.5 37.2 14.45 42.25 12.4 39.5 11.25 36.2 8.65 29.55 12.2 23.4 16.75 16.25 24.6 14.0" fill="#d8ceba" fill-rule="evenodd" stroke="none"/>
      <path d="M41.9 36.6 L43.25 38.85 41.95 38.2 41.9 36.6 M28.0 31.2 L25.0 29.65 26.75 24.55 29.4 25.7 28.0 31.2 M40.65 45.3 Q41.5 46.45 42.95 46.6 L43.65 46.5 41.25 49.2 39.1 48.25 40.65 45.3 M25.05 42.0 L23.45 40.4 22.1 39.8 20.85 40.15 19.65 39.65 22.6 35.0 26.4 36.65 25.05 42.0 M35.25 4.1 L36.5 4.05 38.0 5.3 35.5 9.6 34.8 9.0 35.25 4.1 M29.3 14.6 Q28.0 13.7 27.15 12.45 24.5 8.6 22.0 4.4 L22.5 4.4 25.45 6.7 26.55 8.3 Q28.7 11.05 29.3 14.6 M29.85 20.75 L28.25 20.0 29.35 18.0 29.85 20.75 M25.7 52.6 L21.05 46.6 25.05 47.75 25.7 52.6 M36.05 52.1 L37.9 53.1 34.75 57.05 32.65 56.5 36.05 52.1" fill="#af9f81" fill-rule="evenodd" stroke="none"/>
      <path d="M41.9 36.6 L41.95 38.2 28.0 31.2 29.4 25.7 37.6 29.35 41.9 36.6 M40.65 45.3 L39.1 48.25 25.05 42.0 26.4 36.65 40.4 42.95 40.2 43.85 40.65 45.3 M35.25 4.1 L34.8 9.0 29.2 4.25 35.25 4.1 M29.3 14.6 Q28.7 11.05 26.55 8.3 L25.45 6.7 33.45 12.95 31.5 16.2 29.3 14.6 M29.85 20.75 L29.35 18.0 32.2 18.0 34.35 22.7 29.85 20.75 M25.7 52.6 L25.05 47.75 36.05 52.1 32.65 56.5 27.0 54.4 25.7 52.6" fill="#c4b898" fill-rule="evenodd" stroke="none"/>
    </g>
  </defs>
</svg>
