<?xml version="1.0" encoding="UTF-8" standalone="no"?>
<svg xmlns:xlink="http://www.w3.org/1999/xlink" height="454.95px" width="385.95px" xmlns="http://www.w3.org/2000/svg">
  <g transform="matrix(1.0, 0.0, 0.0, 1.0, 193.15, 454.95)">
    <use height="36.0" transform="matrix(1.0, 0.0, 0.0, 1.0, -78.45, -36.0)" width="159.0" xlink:href="#shape0"/>
    <use height="96.65" transform="matrix(1.0, 0.0, 0.0, 1.0, -24.15, -108.0)" width="54.2" xlink:href="#shape1"/>
    <use height="37.0" transform="matrix(1.0, 0.0, 0.0, 1.0, -91.95, -94.35)" width="185.25" xlink:href="#shape2"/>
    <use height="260.7" transform="matrix(1.0, 0.0, 0.0, 1.0, -62.85, -368.45)" width="129.45" xlink:href="#shape3"/>
    <use height="15.25" transform="matrix(1.0, 0.0, 0.0, 1.0, -57.8, -80.1)" width="112.65" xlink:href="#text0"/>
    <use height="283.05" transform="matrix(1.0, 0.0, 0.0, 1.0, -93.3, -380.45)" width="185.2" xlink:href="#shape4"/>
    <use height="275.75" transform="matrix(1.0, 0.0, 0.0, 1.0, -77.95, -374.7)" width="157.5" xlink:href="#shape5"/>
    <use height="62.9" transform="matrix(1.0, 0.0, 0.0, 1.0, -31.25, -195.1)" width="60.15" xlink:href="#shape6"/>
  </g>
  <defs>
    <g id="shape0" transform="matrix(1.0, 0.0, 0.0, 1.0, 0.0, 0.0)">
      <path d="M135.7 30.75 Q113.3 35.8 79.5 36.0 45.7 35.8 23.3 30.75 0.85 25.65 0.0 18.0 0.85 10.35 23.3 5.25 45.7 0.2 79.5 0.0 113.3 0.2 135.7 5.25 158.15 10.35 159.0 18.0 158.15 25.65 135.7 30.75" fill="#000000" fill-opacity="0.39607844" fill-rule="evenodd" stroke="none"/>
    </g>
    <g id="shape1" transform="matrix(1.0, 0.0, 0.0, 1.0, 0.0, 0.0)">
      <path d="M5.85 93.35 Q-0.15 90.4 0.0 90.0 L0.0 0.0 54.2 0.0 54.2 90.0 Q54.15 90.4 46.95 93.35 39.7 96.25 25.65 96.65 11.8 96.25 5.85 93.35" fill="url(#gradient0)" fill-rule="evenodd" stroke="none"/>
    </g>
    <linearGradient gradientTransform="matrix(0.0303, 0.0, 0.0, 0.0303, 25.7, 48.35)" gradientUnits="userSpaceOnUse" id="gradient0" spreadMethod="pad" x1="-819.2" x2="819.2">
      <stop offset="0.0" stop-color="#565656"/>
      <stop offset="0.403921568627451" stop-color="#9a9999"/>
      <stop offset="0.592156862745098" stop-color="#dbdbda"/>
      <stop offset="0.7803921568627451" stop-color="#9b9a9a"/>
      <stop offset="1.0" stop-color="#151213"/>
    </linearGradient>
    <g id="shape2" transform="matrix(1.0, 0.0, 0.0, 1.0, -0.05, 0.0)">
      <path d="M185.25 8.2 L185.3 8.25 185.25 8.25 185.25 8.2 M1.9 5.2 L2.3 2.85 18.75 2.05 59.05 0.7 Q83.4 0.05 109.4 0.3 115.1 0.55 118.85 1.6 122.65 2.7 128.15 3.0 L129.3 1.5 Q130.05 0.2 130.5 0.0 160.7 0.5 181.5 3.85 L183.45 6.1 103.3 3.5 Q60.0 3.6 6.5 5.1 L1.9 5.2 M176.25 8.0 L176.45 8.4 177.65 11.45 178.5 13.65 Q179.3 12.8 179.7 10.9 179.7 9.8 179.25 9.1 L179.9 9.55 Q180.65 10.3 180.7 11.75 179.85 15.7 177.15 15.05 175.8 14.75 175.1 13.85 L176.15 14.2 177.35 14.25 176.45 12.35 174.9 8.8 174.8 8.5 174.95 8.35 Q175.75 7.8 176.25 8.0 M178.25 27.3 L179.85 27.15 Q180.5 27.3 181.25 27.95 183.6 31.2 181.35 32.8 180.2 33.6 179.1 33.5 L180.8 32.15 178.8 31.55 175.1 30.4 175.2 29.1 175.2 29.0 175.25 28.7 175.4 28.75 175.85 28.9 178.95 30.05 181.1 30.85 Q181.0 29.65 179.9 28.15 179.05 27.45 178.25 27.3 M9.35 6.95 L10.7 10.45 11.7 12.9 Q12.6 11.95 13.05 9.85 13.05 8.55 12.5 7.75 13.85 8.35 14.15 10.05 L13.75 12.35 Q12.6 15.1 10.15 14.55 8.75 14.25 8.0 13.4 L7.85 13.2 9.0 13.6 10.35 13.65 9.35 11.4 7.6 7.45 8.75 6.6 9.2 6.55 9.35 6.95 M9.4 25.3 Q11.0 24.35 12.9 25.8 15.0 28.35 14.35 30.1 L13.4 31.3 Q12.2 32.25 10.95 32.25 L12.75 30.6 10.4 30.05 6.2 29.05 6.15 27.55 6.15 27.1 6.35 27.15 6.9 27.35 10.45 28.4 12.95 29.1 Q12.75 27.8 11.35 26.15 10.35 25.35 9.4 25.3" fill="#47525f" fill-rule="evenodd" stroke="none"/>
      <path d="M0.05 36.7 L0.75 22.9 Q1.05 14.95 1.6 7.0 L1.9 5.2 6.5 5.1 3.2 8.3 1.95 36.45 0.05 36.7" fill="#cdcdcd" fill-rule="evenodd" stroke="none"/>
      <path d="M13.75 12.35 L14.15 10.05 26.45 10.0 13.75 12.35 M8.0 13.4 L7.0 13.55 7.2 26.2 6.35 27.15 6.15 27.1 6.15 27.55 Q5.15 29.5 6.75 31.55 8.95 33.2 10.95 32.25 12.2 32.25 13.4 31.3 L14.35 30.1 16.45 30.2 36.65 31.3 56.5 32.6 Q50.4 32.9 38.0 32.9 L15.1 32.75 3.85 32.6 5.25 10.05 6.0 10.05 Q6.15 12.3 7.85 13.2 L8.0 13.4" fill="#848484" fill-rule="evenodd" stroke="none"/>
      <path d="M175.1 13.85 Q175.8 14.75 177.15 15.05 179.85 15.7 180.7 11.75 180.65 10.3 179.9 9.55 L180.85 9.65 179.85 27.15 178.25 27.3 177.7 27.3 177.8 15.2 160.95 13.3 Q144.35 11.4 115.0 6.95 144.55 7.2 162.45 8.35 L174.1 9.15 Q173.65 9.7 173.4 10.6 173.45 12.95 175.1 13.85 M175.3 32.3 L137.05 30.55 175.2 29.0 175.2 29.1 Q174.3 30.55 175.3 32.3" fill="#a09fa0" fill-rule="evenodd" stroke="none"/>
      <path d="M176.45 8.4 L176.25 8.0 176.9 7.95 Q178.55 8.05 179.25 9.1 179.7 9.8 179.7 10.9 179.3 12.8 178.5 13.65 L177.65 11.45 178.05 10.25 Q178.0 8.55 176.45 8.4 M174.8 8.5 L174.9 8.8 Q174.35 9.2 174.15 10.05 174.2 11.9 175.85 12.3 L176.45 12.35 177.35 14.25 176.15 14.2 175.1 13.85 Q173.45 12.95 173.4 10.6 173.65 9.7 174.1 9.15 L174.8 8.5 M177.7 27.3 L178.25 27.3 Q179.05 27.45 179.9 28.15 181.0 29.65 181.1 30.85 L178.95 30.05 178.3 28.9 Q177.0 27.8 175.85 28.9 L175.4 28.75 175.8 28.3 Q176.7 27.35 177.7 27.3 M179.1 33.5 Q177.3 34.2 175.5 32.65 L175.3 32.3 Q174.3 30.55 175.2 29.1 L175.1 30.4 Q175.25 32.1 176.95 32.35 178.0 32.25 178.8 31.55 L180.8 32.15 179.1 33.5 M10.7 10.45 L11.2 9.05 Q11.15 7.15 9.35 6.95 L9.2 6.55 9.9 6.5 Q11.75 6.6 12.5 7.75 13.05 8.55 13.05 9.85 12.6 11.95 11.7 12.9 L10.7 10.45 M7.2 26.2 Q8.2 25.2 9.4 25.3 10.35 25.35 11.35 26.15 12.75 27.8 12.95 29.1 L10.45 28.4 Q9.75 26.65 8.05 26.6 L6.9 27.35 6.35 27.15 7.2 26.2 M6.0 10.05 L5.95 9.55 Q6.6 7.0 8.75 6.6 L7.6 7.45 Q7.0 7.9 6.75 8.85 6.8 10.95 8.7 11.35 L9.35 11.4 10.35 13.65 9.0 13.6 7.85 13.2 Q6.15 12.3 6.0 10.05 M6.15 27.55 L6.2 29.05 Q6.45 30.9 8.2 31.1 9.7 31.2 10.4 30.05 L12.75 30.6 10.95 32.25 Q8.95 33.2 6.75 31.55 5.15 29.5 6.15 27.55" fill="#9c9c9c" fill-rule="evenodd" stroke="none"/>
      <path d="M174.9 8.8 L176.45 12.35 175.85 12.3 Q174.2 11.9 174.15 10.05 174.35 9.2 174.9 8.8 M177.65 11.45 L176.45 8.4 Q178.0 8.55 178.05 10.25 L177.65 11.45 M175.85 28.9 Q177.0 27.8 178.3 28.9 L178.95 30.05 175.85 28.9 M175.1 30.4 L178.8 31.55 Q178.0 32.25 176.95 32.35 175.25 32.1 175.1 30.4 M9.35 6.95 Q11.15 7.15 11.2 9.05 L10.7 10.45 9.35 6.95 M9.35 11.4 L8.7 11.35 Q6.8 10.95 6.75 8.85 7.0 7.9 7.6 7.45 L9.35 11.4 M10.45 28.4 L6.9 27.35 8.05 26.6 Q9.75 26.65 10.45 28.4 M6.2 29.05 L10.4 30.05 Q9.7 31.2 8.2 31.1 6.45 30.9 6.2 29.05" fill="#d5d4d4" fill-rule="evenodd" stroke="none"/>
      <path d="M183.45 6.1 L185.3 6.25 185.25 8.2 185.25 8.25 185.1 13.45 184.65 27.3 184.3 36.25 Q157.35 34.75 133.85 35.55 L89.2 37.0 Q65.15 37.15 43.55 35.85 22.0 34.5 0.05 36.75 L0.05 36.7 1.95 36.45 3.2 8.3 6.5 5.1 Q60.0 3.6 103.3 3.5 L183.45 6.1 M176.25 8.0 Q175.75 7.8 174.95 8.35 L174.8 8.5 174.1 9.15 162.45 8.35 Q144.55 7.2 115.0 6.95 144.35 11.4 160.95 13.3 L177.8 15.2 177.7 27.3 Q176.7 27.35 175.8 28.3 L175.4 28.75 175.25 28.7 175.2 29.0 137.05 30.55 175.3 32.3 175.5 32.65 Q177.3 34.2 179.1 33.5 180.2 33.6 181.35 32.8 183.6 31.2 181.25 27.95 180.5 27.3 179.85 27.15 L180.85 9.65 179.9 9.55 179.25 9.1 Q178.55 8.05 176.9 7.95 L176.25 8.0 M12.5 7.75 Q11.75 6.6 9.9 6.5 L9.2 6.55 8.75 6.6 Q6.6 7.0 5.95 9.55 L6.0 10.05 5.25 10.05 3.85 32.6 15.1 32.75 38.0 32.9 Q50.4 32.9 56.5 32.6 L36.65 31.3 16.45 30.2 14.35 30.1 Q15.0 28.35 12.9 25.8 11.0 24.35 9.4 25.3 8.2 25.2 7.2 26.2 L7.0 13.55 8.0 13.4 Q8.75 14.25 10.15 14.55 12.6 15.1 13.75 12.35 L26.45 10.0 14.15 10.05 Q13.85 8.35 12.5 7.75" fill="url(#gradient1)" fill-rule="evenodd" stroke="none"/>
    </g>
    <linearGradient gradientTransform="matrix(0.1131, 0.0, 0.0, 0.0204, 92.65, 20.25)" gradientUnits="userSpaceOnUse" id="gradient1" spreadMethod="pad" x1="-819.2" x2="819.2">
      <stop offset="0.0" stop-color="#9a9a9a"/>
      <stop offset="1.0" stop-color="#ffffff"/>
    </linearGradient>
    <g id="shape3" transform="matrix(1.0, 0.0, 0.0, 1.0, 1.5, 1.25)">
      <path d="M9.3 250.05 L9.55 250.15 Q9.75 252.75 7.05 253.5 4.75 254.05 3.75 252.1 3.1 250.85 3.1 249.5 L3.65 250.9 4.15 251.45 4.55 251.55 4.15 251.5 Q5.0 252.25 6.3 252.3 8.7 252.1 9.3 250.05 M4.7 248.15 Q3.75 249.5 3.65 250.9 3.7 249.5 4.65 248.15 L4.7 248.15" fill="#47525f" fill-rule="evenodd" stroke="none"/>
      <path d="M3.6 247.55 L4.7 248.05 4.65 248.15 Q3.7 249.5 3.65 250.9 L3.1 249.5 Q3.1 248.35 3.6 247.55" fill="#e9e9eb" fill-rule="evenodd" stroke="none"/>
      <path d="M4.7 248.05 L8.45 249.7 Q8.45 250.45 7.35 251.0 6.2 251.55 4.6 251.55 L4.55 251.55 4.15 251.45 3.65 250.9 Q3.75 249.5 4.7 248.15 L4.7 248.05" fill="#d0cfd0" fill-rule="evenodd" stroke="none"/>
      <path d="M8.45 249.7 L9.3 250.05 Q8.7 252.1 6.3 252.3 5.0 252.25 4.15 251.5 L4.55 251.55 4.6 251.55 Q6.2 251.55 7.35 251.0 8.45 250.45 8.45 249.7" fill="#b0aeb3" fill-rule="evenodd" stroke="none"/>
      <path d="M63.35 34.1 L67.0 10.4 70.2 34.25 Q68.65 35.75 68.45 38.05 68.25 40.1 66.55 40.95 L66.4 39.45 Q65.9 35.95 63.35 34.1 M46.0 135.55 L35.4 127.8 47.65 122.35 59.3 164.25 40.85 143.75 46.0 136.7 46.0 135.55 M80.5 139.65 L85.9 144.95 66.65 163.8 84.25 121.8 94.05 126.35 80.45 138.85 80.5 139.65 M17.2 132.8 L32.05 129.15 42.45 136.5 Q40.05 139.7 37.8 143.0 L37.5 143.95 37.55 144.4 37.8 144.85 59.6 169.05 60.9 172.65 59.45 256.2 32.15 256.05 31.95 251.2 34.65 248.85 34.2 240.15 31.55 238.35 32.25 232.3 31.2 230.8 27.6 160.15 15.4 143.95 17.2 132.8 M14.4 147.55 L24.65 160.75 28.0 227.6 20.95 220.65 20.45 220.25 19.75 220.2 Q14.35 221.05 9.85 223.5 5.95 225.65 2.9 229.4 L1.5 213.45 4.55 179.4 14.4 147.55 M84.15 139.3 L97.05 127.75 113.15 134.85 114.9 137.65 102.4 154.55 99.4 229.8 97.35 232.3 98.2 238.25 Q96.05 238.65 95.7 240.6 95.0 244.3 94.75 248.15 L94.8 248.55 99.05 252.3 98.85 256.45 62.45 256.25 64.05 170.55 89.1 146.0 89.3 144.15 84.15 139.3 M115.85 141.35 L122.85 180.85 124.3 226.5 121.0 222.3 120.05 221.75 109.8 220.2 109.1 220.25 108.5 220.6 102.5 226.6 105.4 155.15 115.85 141.35" fill="#591f0b" fill-rule="evenodd" stroke="none"/>
      <path d="M55.5 139.35 L59.25 131.3 61.15 135.25 56.4 142.65 55.5 139.35 M54.3 134.95 L50.95 122.95 58.35 126.2 54.3 134.95 M73.4 126.0 L80.6 122.75 76.5 132.55 73.4 126.0 M73.3 140.2 L69.35 135.4 72.45 131.1 74.95 136.25 73.3 140.2" fill="#d1b8a2" fill-rule="evenodd" stroke="none"/>
      <path d="M63.35 34.1 Q65.9 35.95 66.4 39.45 L66.55 40.95 Q68.25 40.1 68.45 38.05 68.65 35.75 70.2 34.25 L74.65 66.9 Q72.6 67.75 70.05 70.1 L66.25 73.65 66.2 73.75 65.45 73.75 Q64.75 70.75 61.2 68.4 L58.35 66.6 63.35 34.1 M63.35 73.75 L59.2 74.05 59.0 75.15 59.55 75.7 62.95 75.75 Q62.8 80.85 60.4 85.65 L60.55 86.05 61.55 86.5 Q63.65 84.95 64.2 82.35 64.85 79.0 64.95 75.75 L66.75 75.75 Q66.65 81.6 69.75 86.05 L70.2 86.5 71.3 85.65 Q69.55 82.6 69.1 79.05 L68.75 75.75 72.05 75.7 72.65 74.75 72.05 73.85 69.0 73.75 74.9 69.0 80.1 107.5 Q75.6 99.3 68.5 93.45 67.3 92.5 65.8 92.3 L64.3 92.4 Q61.2 93.9 59.0 96.9 55.15 102.25 52.0 108.0 L58.05 68.7 61.3 70.95 63.35 73.75 M65.4 93.85 Q76.85 101.9 80.85 115.55 L81.8 118.9 67.5 125.35 50.3 119.35 Q53.55 106.8 62.0 97.0 63.6 95.1 65.4 93.85" fill="#ae8367" fill-rule="evenodd" stroke="none"/>
      <path d="M3.6 247.55 L2.35 246.55 2.1 246.0 1.55 243.95 1.05 242.8 -1.5 213.6 1.55 179.05 12.4 143.9 15.15 130.55 Q31.6 126.25 47.25 119.25 L65.6 -0.2 66.35 -1.2 67.6 -1.25 68.55 -0.2 84.8 118.8 Q97.8 124.95 110.95 130.85 112.95 131.8 114.55 133.25 116.6 135.1 118.2 137.5 L125.85 180.45 127.95 245.65 127.75 246.5 104.75 256.45 101.95 254.55 101.2 258.95 100.3 259.45 30.0 258.85 29.05 253.45 Q27.6 255.5 25.15 255.55 16.8 254.5 9.55 250.15 L9.3 250.05 8.45 249.7 4.7 248.05 3.6 247.55 M70.2 34.25 L67.0 10.4 63.35 34.1 58.35 66.6 61.2 68.4 Q64.75 70.75 65.45 73.75 L66.2 73.75 66.25 73.65 70.05 70.1 Q72.6 67.75 74.65 66.9 L70.2 34.25 M65.4 93.85 Q63.6 95.1 62.0 97.0 53.55 106.8 50.3 119.35 L67.5 125.35 81.8 118.9 80.85 115.55 Q76.85 101.9 65.4 93.85 M63.35 73.75 L61.3 70.95 58.05 68.7 52.0 108.0 Q55.15 102.25 59.0 96.9 61.2 93.9 64.3 92.4 L65.8 92.3 Q67.3 92.5 68.5 93.45 75.6 99.3 80.1 107.5 L74.9 69.0 69.0 73.75 72.05 73.85 72.65 74.75 72.05 75.7 68.75 75.75 69.1 79.05 Q69.55 82.6 71.3 85.65 L70.2 86.5 69.75 86.05 Q66.65 81.6 66.75 75.75 L64.95 75.75 Q64.85 79.0 64.2 82.35 63.65 84.95 61.55 86.5 L60.55 86.05 60.4 85.65 Q62.8 80.85 62.95 75.75 L59.55 75.7 59.0 75.15 59.2 74.05 63.35 73.75 M54.3 134.95 L58.35 126.2 50.95 122.95 54.3 134.95 M55.5 139.35 L56.4 142.65 61.15 135.25 59.25 131.3 55.5 139.35 M46.0 135.55 L46.0 136.7 40.85 143.75 59.3 164.25 47.65 122.35 35.4 127.8 46.0 135.55 M73.4 126.0 L76.5 132.55 80.6 122.75 73.4 126.0 M67.25 137.55 L63.7 136.85 57.5 146.55 62.75 165.4 72.0 143.35 67.25 137.55 M61.55 126.45 L60.9 127.8 63.75 133.8 66.45 134.3 70.95 128.0 70.6 127.25 Q69.1 128.55 67.1 128.2 L61.55 126.45 M73.3 140.2 L74.95 136.25 72.45 131.1 69.35 135.4 73.3 140.2 M115.85 141.35 L105.4 155.15 102.5 226.6 108.5 220.6 109.1 220.25 109.8 220.2 120.05 221.75 121.0 222.3 124.3 226.5 122.85 180.85 115.85 141.35 M84.15 139.3 L89.3 144.15 89.1 146.0 64.05 170.55 62.45 256.25 98.85 256.45 99.05 252.3 94.8 248.55 94.75 248.15 Q95.0 244.3 95.7 240.6 96.05 238.65 98.2 238.25 L97.35 232.3 99.4 229.8 102.4 154.55 114.9 137.65 113.15 134.85 97.05 127.75 84.15 139.3 M14.4 147.55 L4.55 179.4 1.5 213.45 2.9 229.4 Q5.95 225.65 9.85 223.5 14.35 221.05 19.75 220.2 L20.45 220.25 20.95 220.65 28.0 227.6 24.65 160.75 14.4 147.55 M17.2 132.8 L15.4 143.95 27.6 160.15 31.2 230.8 32.25 232.3 31.55 238.35 34.2 240.15 34.65 248.85 31.95 251.2 32.15 256.05 59.45 256.2 60.9 172.65 59.6 169.05 37.8 144.85 37.55 144.4 37.5 143.95 37.8 143.0 Q40.05 139.7 42.45 136.5 L32.05 129.15 17.2 132.8 M80.5 139.65 L80.45 138.85 94.05 126.35 84.25 121.8 66.65 163.8 85.9 144.95 80.5 139.65 M15.4 233.2 L15.65 232.75 16.85 232.65 Q18.55 237.3 19.2 242.2 L26.6 242.2 29.15 232.95 19.45 223.25 10.55 224.6 5.55 230.95 4.65 244.75 24.35 253.25 31.7 247.6 31.3 241.55 30.4 241.1 28.05 245.15 21.65 245.05 Q19.85 244.75 18.8 243.3 15.35 238.85 15.4 233.2 M124.9 244.75 L124.0 230.9 119.0 224.6 110.1 223.25 100.4 232.95 Q100.8 235.8 101.55 238.55 L102.85 242.2 110.3 242.2 Q110.95 237.95 111.85 233.8 111.95 233.25 112.4 232.95 112.8 232.6 113.35 232.6 114.75 232.9 114.55 234.2 113.75 239.35 112.6 244.45 L112.1 245.15 101.85 245.25 Q101.1 245.25 100.8 244.7 L99.1 241.15 98.2 241.6 97.8 247.55 105.2 253.25 124.9 244.75" fill="#1a1a1a" fill-rule="evenodd" stroke="none"/>
      <path d="M124.9 244.75 L105.2 253.25 97.8 247.55 98.2 241.6 99.1 241.15 100.8 244.7 Q101.1 245.25 101.85 245.25 L112.1 245.15 112.6 244.45 Q113.75 239.35 114.55 234.2 114.75 232.9 113.35 232.6 112.8 232.6 112.4 232.95 111.95 233.25 111.85 233.8 110.95 237.95 110.3 242.2 L102.85 242.2 101.55 238.55 Q100.8 235.8 100.4 232.95 L110.1 223.25 119.0 224.6 124.0 230.9 124.9 244.75 M15.4 233.2 Q15.35 238.85 18.8 243.3 19.85 244.75 21.65 245.05 L28.05 245.15 30.4 241.1 31.3 241.55 31.7 247.6 24.35 253.25 4.65 244.75 5.55 230.95 10.55 224.6 19.45 223.25 29.15 232.95 26.6 242.2 19.2 242.2 Q18.55 237.3 16.85 232.65 L15.65 232.75 15.4 233.2" fill="#e6c6b0" fill-rule="evenodd" stroke="none"/>
      <path d="M61.55 126.45 L67.1 128.2 Q69.1 128.55 70.6 127.25 L70.95 128.0 66.45 134.3 63.75 133.8 60.9 127.8 61.55 126.45 M67.25 137.55 L72.0 143.35 62.75 165.4 57.5 146.55 63.7 136.85 67.25 137.55" fill="#331c1a" fill-rule="evenodd" stroke="none"/>
    </g>
    <g id="text0" transform="matrix(1.0, 0.0, 0.0, 1.0, -1.2, -5.75)">
      <g transform="matrix(1.0, 0.0, 0.0, 1.0, 0.0, 0.0)">
        <use fill="#000000" height="15.25" transform="matrix(0.4746, 0.0, 0.0, 0.4746, 0.0, 21.0)" width="112.65" xlink:href="#font_______W7_D0"/>
        <use fill="#000000" height="15.25" transform="matrix(0.4746, 0.0, 0.0, 0.4746, 16.6, 21.0)" width="112.65" xlink:href="#font_______W7_o0"/>
        <use fill="#000000" height="15.25" transform="matrix(0.4746, 0.0, 0.0, 0.4746, 29.5, 21.0)" width="112.65" xlink:href="#font_______W7_w0"/>
        <use fill="#000000" height="15.25" transform="matrix(0.4746, 0.0, 0.0, 0.4746, 44.35, 21.0)" width="112.65" xlink:href="#font_______W7_n0"/>
        <use fill="#000000" height="15.25" transform="matrix(0.4746, 0.0, 0.0, 0.4746, 58.0, 21.0)" width="112.65" xlink:href="#font_______W7_s0"/>
        <use fill="#000000" height="15.25" transform="matrix(0.4746, 0.0, 0.0, 0.4746, 70.45, 21.0)" width="112.65" xlink:href="#font_______W7_i0"/>
        <use fill="#000000" height="15.25" transform="matrix(0.4746, 0.0, 0.0, 0.4746, 79.25, 21.0)" width="112.65" xlink:href="#font_______W7_z0"/>
        <use fill="#000000" height="15.25" transform="matrix(0.4746, 0.0, 0.0, 0.4746, 91.7, 21.0)" width="112.65" xlink:href="#font_______W7_e0"/>
        <use fill="#000000" height="15.25" transform="matrix(0.4746, 0.0, 0.0, 0.4746, 105.15, 21.0)" width="112.65" xlink:href="#font_______W7_r0"/>
      </g>
    </g>
    <g id="font_______W7_D0">
      <path d="M26.25 -17.9 L26.25 -17.9 Q26.25 -14.65 24.8 -12.6 23.1 -10.25 20.0 -10.25 16.6 -10.25 14.1 -12.65 L12.3 -9.6 10.95 -24.15 Q14.8 -25.95 17.05 -25.95 20.5 -25.95 23.3 -23.65 26.25 -21.25 26.25 -17.9 M33.4 -15.95 L33.4 -15.95 Q33.4 -22.6 29.35 -27.0 25.15 -31.55 18.55 -31.55 14.75 -31.55 10.4 -29.7 L10.25 -31.5 5.3 -32.15 2.55 0.05 13.15 -1.1 13.1 -1.6 Q15.65 -0.6 18.75 -0.6 25.45 -0.6 29.5 -4.95 33.4 -9.15 33.4 -15.95" fill-rule="evenodd" stroke="none"/>
    </g>
    <g id="font_______W7_o0">
      <path d="M15.8 -13.5 L15.8 -13.5 Q16.45 -11.85 16.45 -10.4 16.45 -6.85 12.35 -6.85 10.6 -6.85 9.35 -8.05 8.15 -9.35 8.15 -11.05 8.15 -13.25 9.8 -14.6 11.4 -16.0 13.7 -16.0 16.1 -16.0 18.3 -14.3 L15.8 -13.5 M25.7 -11.4 L25.7 -11.4 Q25.7 -13.8 24.75 -16.35 L21.25 -15.25 22.7 -17.2 Q18.35 -21.45 13.15 -21.45 8.45 -21.45 5.1 -18.2 1.8 -14.95 1.8 -10.3 1.8 -5.5 5.4 -2.65 8.65 0.05 13.65 0.05 18.75 0.05 22.2 -3.2 25.7 -6.4 25.7 -11.4" fill-rule="evenodd" stroke="none"/>
    </g>
    <g id="font_______W7_w0">
      <path d="M23.1 -21.4 L23.1 -21.4 20.35 -10.05 16.6 -20.6 13.9 -21.45 9.35 -10.05 4.1 -21.35 0.5 -19.7 8.35 0.05 11.1 -0.5 14.9 -12.4 19.2 0.05 22.05 -0.55 31.2 -17.75 23.1 -21.4" fill-rule="evenodd" stroke="none"/>
    </g>
    <g id="font_______W7_n0">
      <path d="M27.0 -9.05 L27.0 -9.05 Q27.0 -14.5 24.65 -17.8 21.9 -21.45 16.6 -21.45 12.6 -21.45 9.45 -18.85 L9.2 -20.75 4.35 -21.45 2.05 0.05 11.95 -1.4 10.35 -12.55 Q12.95 -15.85 15.9 -15.85 19.4 -15.85 19.4 -10.6 19.4 -6.9 16.6 -1.3 L26.2 0.0 Q27.0 -6.5 27.0 -9.05" fill-rule="evenodd" stroke="none"/>
    </g>
    <g id="font_______W7_s0">
      <path d="M25.05 -6.35 L25.05 -6.35 Q25.05 -12.25 15.35 -13.65 8.7 -14.6 8.7 -15.7 8.7 -17.05 12.35 -17.05 17.1 -17.05 22.25 -14.8 L23.8 -18.2 Q19.05 -21.45 12.25 -21.45 8.55 -21.45 6.05 -20.35 2.6 -18.85 2.6 -15.7 2.6 -13.1 4.75 -11.8 6.5 -10.75 10.95 -10.05 L16.3 -8.95 Q17.8 -8.4 17.8 -7.5 17.8 -6.2 15.25 -6.2 12.3 -6.2 9.1 -7.45 5.9 -8.7 3.8 -10.65 L1.0 -2.6 Q6.45 0.05 14.3 0.05 25.05 0.05 25.05 -6.35" fill-rule="evenodd" stroke="none"/>
    </g>
    <g id="font_______W7_i0">
      <path d="M11.6 -20.75 L11.6 -20.75 6.75 -21.45 4.45 0.05 14.3 -1.4 11.6 -20.75 M11.9 -31.5 L11.9 -31.5 6.5 -32.15 4.9 -24.95 13.2 -26.1 11.9 -31.5" fill-rule="evenodd" stroke="none"/>
    </g>
    <g id="font_______W7_z0">
      <path d="M24.1 -8.45 L24.1 -8.45 10.25 -5.15 23.6 -18.1 22.05 -21.25 1.6 -20.05 2.3 -16.15 15.5 -15.5 1.0 -3.4 1.95 -0.5 25.55 -0.45 24.1 -8.45" fill-rule="evenodd" stroke="none"/>
    </g>
    <g id="font_______W7_e0">
      <path d="M19.45 -9.9 L19.45 -9.9 Q16.75 -7.55 13.6 -7.55 10.45 -7.55 9.15 -9.9 L19.45 -9.9 M9.0 -13.4 L9.0 -13.4 Q9.7 -14.95 11.5 -15.95 13.2 -16.8 15.1 -16.8 18.05 -16.8 19.65 -14.35 L9.0 -13.4 M23.25 -9.9 L23.25 -9.9 24.3 -9.9 26.7 -12.6 Q25.85 -16.7 22.9 -19.1 19.9 -21.45 15.15 -21.45 9.65 -21.45 5.9 -18.65 1.8 -15.6 1.8 -10.4 1.8 -5.35 5.8 -2.5 9.3 0.05 14.6 0.05 22.45 0.05 27.15 -4.25 L23.25 -9.9" fill-rule="evenodd" stroke="none"/>
    </g>
    <g id="font_______W7_r0">
      <path d="M18.3 -20.6 L18.3 -20.6 Q16.55 -21.45 14.75 -21.45 11.5 -21.45 8.7 -18.65 L8.45 -20.75 4.45 -21.45 2.55 0.05 10.65 -1.4 9.3 -12.8 Q10.55 -14.85 12.3 -14.85 13.25 -14.85 14.55 -13.85 L16.55 -12.05 18.3 -20.6" fill-rule="evenodd" stroke="none"/>
    </g>
    <g id="shape4" transform="matrix(1.0, 0.0, 0.0, 1.0, -0.05, 0.0)">
      <path d="M164.4 150.75 Q165.0 154.3 162.35 156.75 159.05 159.8 155.35 157.65 L155.3 155.7 Q156.7 156.5 158.4 156.55 163.9 156.05 164.4 150.75 M161.4 145.75 L161.4 147.8 153.4 156.2 153.4 154.05 153.45 154.05 161.4 145.75 M115.45 72.7 L116.2 73.3 Q119.2 75.55 121.05 71.45 L121.2 70.7 Q121.95 72.9 120.15 74.15 115.5 77.1 114.9 71.35 L115.45 72.7 M82.6 2.65 L124.5 0.0 131.55 119.85 175.0 141.7 185.25 210.95 181.85 277.3 175.75 283.05 13.85 283.05 0.7 267.85 0.05 222.85 26.05 137.6 60.6 120.3 82.6 2.65 M124.5 78.45 L121.95 2.8 87.3 3.3 70.0 91.05 63.8 122.1 30.7 141.45 3.45 222.5 6.2 265.85 10.8 272.45 16.8 281.05 173.3 281.05 177.85 275.8 179.55 211.3 177.85 199.15 169.85 142.5 126.0 123.6 124.5 78.45 M81.25 80.6 Q82.1 84.85 78.15 85.4 75.3 85.15 75.05 82.35 L75.0 81.25 Q75.05 82.0 75.45 82.6 L76.3 83.2 Q77.4 84.7 80.1 82.95 81.4 82.1 81.25 80.6 M61.4 138.9 L61.4 136.75 68.25 129.65 69.4 128.45 69.4 130.5 61.4 138.9 M72.35 133.45 Q72.95 136.55 70.95 138.9 67.8 142.55 63.25 140.3 L63.25 138.4 Q64.65 139.2 66.35 139.25 71.85 138.75 72.35 133.45 M22.15 275.1 Q22.2 275.85 22.6 276.45 L23.1 277.0 23.45 277.05 Q23.5 277.65 25.25 277.65 28.45 277.6 28.4 274.45 29.15 277.95 26.0 279.1 L24.7 279.1 Q21.8 278.25 22.15 275.1 M27.65 274.2 L27.65 274.25 27.5 274.75 27.65 274.2 M174.85 211.65 Q175.5 214.9 172.45 215.7 170.15 216.25 169.15 214.3 168.5 213.05 168.5 211.7 168.6 212.5 169.05 213.15 169.1 211.7 170.05 210.35 L170.15 210.3 Q169.15 211.7 169.05 213.15 L169.55 213.7 Q170.4 214.45 171.7 214.5 174.45 214.25 174.85 211.65" fill="#47525f" fill-rule="evenodd" stroke="none"/>
      <path d="M155.35 157.65 Q159.05 159.8 162.35 156.75 165.0 154.3 164.4 150.75 L163.25 147.35 Q163.65 155.7 155.3 155.7 L162.2 148.45 161.4 147.8 161.4 145.75 161.05 145.5 160.7 145.6 Q160.75 145.0 158.95 144.85 153.25 145.2 152.2 150.8 L152.2 153.15 Q152.0 153.9 153.4 156.2 L155.35 157.65 M70.0 91.05 L69.8 92.0 124.5 78.45 126.0 123.6 169.85 142.5 177.85 199.15 10.8 272.45 6.2 265.85 3.45 222.5 30.7 141.45 63.8 122.1 70.0 91.05 M60.2 133.55 L60.25 135.85 Q60.35 137.5 61.4 138.9 L63.25 140.3 Q67.8 142.55 70.95 138.9 72.95 136.55 72.35 133.45 L71.2 130.05 Q71.65 137.65 64.25 138.55 L63.25 138.4 70.2 131.15 69.4 130.5 69.4 128.45 68.25 129.65 69.35 128.45 69.0 128.2 Q67.8 127.55 66.2 127.5 60.95 128.3 60.2 133.55 M153.15 152.75 L153.15 152.7 153.2 152.55 153.15 152.75 M153.45 154.05 L153.4 154.05 153.4 154.0 153.45 154.05" fill="#bab9ba" fill-rule="evenodd" stroke="none"/>
      <path d="M120.55 69.2 L119.5 68.35 118.8 68.1 Q115.2 67.85 114.9 71.35 115.5 77.1 120.15 74.15 121.95 72.9 121.2 70.7 121.05 69.85 120.55 69.2 M70.0 91.05 L87.3 3.3 121.95 2.8 124.5 78.45 69.8 92.0 70.0 91.05 M177.85 199.15 L179.55 211.3 177.85 275.8 173.3 281.05 16.8 281.05 10.8 272.45 177.85 199.15 M81.25 80.6 Q81.1 79.75 80.6 79.1 L80.5 80.3 80.55 79.1 79.55 78.25 78.85 78.0 Q75.2 77.75 75.0 81.25 L75.05 82.35 Q75.3 85.15 78.15 85.4 82.1 84.85 81.25 80.6 M26.7 272.1 L26.0 271.85 Q22.4 271.5 22.15 275.1 21.8 278.25 24.7 279.1 L26.0 279.1 Q29.15 277.95 28.4 274.45 28.25 273.6 27.75 272.95 L27.65 274.25 27.65 274.2 27.7 272.95 26.7 272.1 M173.15 208.8 L172.45 208.5 Q168.95 208.2 168.5 211.7 168.5 213.05 169.15 214.3 170.15 216.25 172.45 215.7 175.5 214.9 174.85 211.65 L174.2 209.6 174.2 210.05 173.15 208.8 M170.05 210.35 L170.55 210.1 170.15 210.3 170.05 210.35" fill="#9c9c9c" fill-rule="evenodd" stroke="none"/>
      <path d="M155.3 155.7 L155.35 157.65 153.4 156.2 161.4 147.8 162.2 148.45 155.3 155.7 M69.4 130.5 L70.2 131.15 63.25 138.4 63.25 140.3 61.4 138.9 69.4 130.5" fill="#57565b" fill-rule="evenodd" stroke="none"/>
      <path d="M153.4 156.2 Q152.0 153.9 152.2 153.15 L152.2 150.8 Q152.3 152.25 153.05 153.55 L153.15 152.7 153.15 152.75 153.1 153.55 153.4 154.0 153.4 154.05 153.4 156.2 M61.4 138.9 Q60.35 137.5 60.25 135.85 L60.2 133.55 Q60.3 135.0 61.05 136.25 L61.4 136.75 61.4 138.9" fill="#79818b" fill-rule="evenodd" stroke="none"/>
      <path d="M160.7 145.6 L161.05 145.5 161.4 145.75 153.45 154.05 153.4 154.0 153.1 153.55 153.15 152.75 153.2 152.55 153.7 151.5 Q156.05 147.2 160.7 145.6 M115.45 72.7 Q115.55 71.3 116.45 69.95 L119.5 68.35 120.55 69.2 Q120.55 70.9 119.3 72.1 118.0 73.3 116.2 73.3 L115.45 72.7 M79.55 78.25 L80.55 79.1 80.5 80.3 Q80.5 81.5 79.3 82.35 78.05 83.2 76.3 83.2 L75.45 82.6 Q75.55 81.05 76.7 79.5 78.05 78.4 79.55 78.25 M61.4 136.75 L61.05 136.25 Q62.6 130.55 68.2 128.5 L69.0 128.2 69.35 128.45 68.25 129.65 61.4 136.75 M22.6 276.45 Q22.7 274.9 23.85 273.35 25.2 272.25 26.7 272.1 L27.7 272.95 27.65 274.2 27.5 274.75 Q27.5 275.7 26.35 276.4 25.15 277.05 23.45 277.05 L23.1 277.0 22.6 276.45 M173.15 208.8 L174.2 210.05 Q174.2 211.55 172.85 212.65 171.5 213.7 169.55 213.7 L169.05 213.15 Q169.15 211.7 170.15 210.3 L170.55 210.1 173.15 208.8" fill="#d0cfd0" fill-rule="evenodd" stroke="none"/>
      <path d="M152.2 150.8 Q153.25 145.2 158.95 144.85 160.75 145.0 160.7 145.6 156.05 147.2 153.7 151.5 L153.2 152.55 153.15 152.7 153.05 153.55 Q152.3 152.25 152.2 150.8 M119.5 68.35 L116.45 69.95 Q115.55 71.3 115.45 72.7 L114.9 71.35 Q115.2 67.85 118.8 68.1 L119.5 68.35 M75.0 81.25 Q75.2 77.75 78.85 78.0 L79.55 78.25 Q78.05 78.4 76.7 79.5 75.55 81.05 75.45 82.6 75.05 82.0 75.0 81.25 M61.05 136.25 Q60.3 135.0 60.2 133.55 60.95 128.3 66.2 127.5 67.8 127.55 69.0 128.2 L68.2 128.5 Q62.6 130.55 61.05 136.25 M22.15 275.1 Q22.4 271.5 26.0 271.85 L26.7 272.1 Q25.2 272.25 23.85 273.35 22.7 274.9 22.6 276.45 22.2 275.85 22.15 275.1 M168.5 211.7 Q168.95 208.2 172.45 208.5 L173.15 208.8 170.55 210.1 170.05 210.35 Q169.1 211.7 169.05 213.15 168.6 212.5 168.5 211.7" fill="#e9e9eb" fill-rule="evenodd" stroke="none"/>
      <path d="M164.4 150.75 Q163.9 156.05 158.4 156.55 156.7 156.5 155.3 155.7 163.65 155.7 163.25 147.35 L164.4 150.75 M116.2 73.3 Q118.0 73.3 119.3 72.1 120.55 70.9 120.55 69.2 121.05 69.85 121.2 70.7 L121.05 71.45 Q119.2 75.55 116.2 73.3 M80.5 80.3 L80.6 79.1 Q81.1 79.75 81.25 80.6 81.4 82.1 80.1 82.95 77.4 84.7 76.3 83.2 78.05 83.2 79.3 82.35 80.5 81.5 80.5 80.3 M63.25 138.4 L64.25 138.55 Q71.65 137.65 71.2 130.05 L72.35 133.45 Q71.85 138.75 66.35 139.25 64.65 139.2 63.25 138.4 M27.65 274.25 L27.75 272.95 Q28.25 273.6 28.4 274.45 28.45 277.6 25.25 277.65 23.5 277.65 23.45 277.05 25.15 277.05 26.35 276.4 27.5 275.7 27.5 274.75 L27.65 274.25 M174.2 210.05 L174.2 209.6 174.85 211.65 Q174.45 214.25 171.7 214.5 170.4 214.45 169.55 213.7 171.5 213.7 172.85 212.65 174.2 211.55 174.2 210.05" fill="#b0aeb3" fill-rule="evenodd" stroke="none"/>
    </g>
    <g id="shape5" transform="matrix(1.0, 0.0, 0.0, 1.0, 0.0, 0.0)">
      <path d="M94.0 43.25 L95.4 44.1 95.5 44.65 101.95 131.45 141.35 148.25 141.55 148.7 152.95 195.7 153.85 245.1 Q159.0 254.2 156.85 264.45 L129.25 273.3 124.3 269.5 123.4 275.25 122.5 275.75 39.0 275.75 Q36.5 271.7 37.4 266.8 L31.3 271.75 3.35 263.0 0.0 226.6 4.5 191.5 16.6 156.6 22.5 144.15 57.9 132.4 66.4 74.25 67.55 73.05 68.45 73.1 71.3 75.75 73.7 70.05 67.0 69.1 66.4 68.45 66.45 67.55 80.9 26.35 75.0 26.0 74.65 24.35 81.0 19.75 81.15 3.9 82.15 2.85 85.7 5.45 86.6 5.5 91.75 0.0 93.25 0.55 93.9 11.05 96.6 10.1 Q98.4 14.65 98.65 19.55 99.0 25.5 94.0 25.85 L92.3 25.9 91.85 26.4 90.95 26.6 84.3 26.6 78.35 43.2 88.7 35.25 89.4 35.6 Q85.2 41.35 79.95 45.85 L80.2 46.2 86.4 47.8 86.4 48.7 82.25 49.35 84.3 54.2 82.85 54.8 77.05 46.85 69.95 66.7 79.8 67.15 Q79.45 63.15 77.7 59.65 L72.65 63.7 72.0 62.85 Q72.75 61.35 73.9 60.2 75.8 58.2 78.45 57.7 86.4 86.55 86.8 116.9 L85.75 117.25 84.45 110.4 84.15 109.95 68.9 77.55 60.9 133.65 81.15 139.5 99.0 132.45 93.75 61.65 89.6 61.8 89.1 60.6 89.35 59.85 92.35 58.9 Q93.7 55.2 92.35 51.55 L90.3 56.5 88.85 56.4 88.85 54.65 Q88.95 51.9 90.05 49.5 L92.35 47.7 92.7 47.7 92.7 47.35 92.6 45.85 Q92.3 43.95 94.0 43.25 M90.95 12.0 L90.7 5.45 Q89.5 7.1 87.75 8.15 85.8 9.3 84.0 7.95 L84.0 12.35 90.95 12.0 M84.0 15.35 L84.0 16.95 86.85 15.2 84.0 15.35 M94.8 14.1 L81.0 23.35 94.95 22.7 94.8 14.1 M76.85 70.2 L73.2 78.95 84.0 104.55 Q82.7 87.15 80.25 70.15 L76.85 70.2 M42.15 142.3 L58.05 150.75 57.85 151.5 51.4 156.3 74.3 177.55 58.2 135.55 42.15 142.3 M75.9 142.95 L78.05 148.5 82.7 148.8 86.8 142.1 86.2 140.75 Q83.75 141.7 81.25 142.0 L77.1 141.5 75.9 142.95 M62.0 137.1 L66.8 149.7 74.0 140.6 62.0 137.1 M24.1 146.75 L19.8 156.75 34.5 171.9 41.0 253.6 40.5 254.85 42.0 262.85 40.35 264.45 40.5 272.75 80.5 272.75 76.55 183.75 48.0 157.25 47.6 155.65 53.55 151.1 37.05 142.4 24.1 146.75 M7.5 192.05 L3.05 226.9 5.35 244.85 10.55 239.1 11.25 238.65 25.25 234.8 26.0 234.8 Q26.4 234.9 26.7 235.15 L37.3 245.0 31.55 172.7 18.65 159.85 7.5 192.05 M71.0 160.6 L78.05 177.8 87.8 157.8 82.75 151.85 77.7 151.45 71.0 160.6 M75.3 149.7 L73.75 145.7 68.05 152.95 69.75 157.3 75.3 149.7 M92.75 146.85 L97.6 136.25 89.1 139.6 92.75 146.85 M101.35 135.3 L82.15 177.65 106.4 157.35 98.15 152.35 98.05 151.4 114.25 139.8 101.35 135.3 M110.0 158.25 L79.55 183.75 83.5 272.75 121.1 272.75 121.35 267.05 118.3 264.55 118.25 264.1 Q118.2 263.75 118.3 263.4 120.75 256.3 120.55 248.9 L120.9 248.3 124.5 173.4 124.65 172.85 135.5 149.0 117.7 141.05 102.35 151.7 Q107.2 153.7 110.3 157.55 L110.0 158.25 M89.15 154.75 L91.15 150.4 88.5 145.1 85.35 150.25 89.15 154.75 M135.1 239.45 Q142.6 238.05 149.5 240.8 L150.8 241.8 150.0 196.2 138.95 150.55 138.1 150.55 127.5 173.85 124.05 245.35 Q127.6 242.1 132.0 240.45 L134.8 239.55 123.7 249.75 123.8 250.35 125.35 255.7 125.45 255.9 127.3 259.2 136.9 257.9 Q137.35 256.25 138.1 254.8 138.3 254.35 138.85 254.4 L139.85 254.45 Q140.7 254.95 140.45 255.85 139.6 259.25 138.4 262.5 L137.7 262.9 136.8 262.8 136.15 262.0 Q136.05 261.7 136.1 261.4 L136.2 260.9 126.3 262.3 125.65 261.8 123.25 258.1 122.25 258.25 121.2 263.1 129.8 270.15 154.5 262.05 154.5 250.3 147.7 242.9 135.1 239.45 M12.45 241.45 L5.65 248.9 5.65 260.6 30.35 268.7 39.0 261.65 37.9 256.85 36.95 256.65 34.15 260.8 24.0 259.45 24.2 260.3 23.7 261.45 22.15 261.6 Q19.7 257.65 20.5 253.0 L20.8 252.6 21.95 252.8 22.45 253.75 23.25 256.45 32.85 257.75 Q35.8 253.45 36.45 248.3 L25.25 237.95 12.45 241.45" fill="#1a1a1a" fill-rule="evenodd" stroke="none"/>
      <path d="M90.95 12.0 L84.0 12.35 84.0 7.95 Q85.8 9.3 87.75 8.15 89.5 7.1 90.7 5.45 L90.95 12.0 M94.8 14.1 L94.95 22.7 81.0 23.35 94.8 14.1 M42.15 142.3 L58.2 135.55 74.3 177.55 51.4 156.3 57.85 151.5 58.05 150.75 42.15 142.3 M7.5 192.05 L18.65 159.85 31.55 172.7 37.3 245.0 26.7 235.15 Q26.4 234.9 26.0 234.8 L25.25 234.8 11.25 238.65 10.55 239.1 5.35 244.85 3.05 226.9 7.5 192.05 M24.1 146.75 L37.05 142.4 53.55 151.1 47.6 155.65 48.0 157.25 76.55 183.75 80.5 272.75 40.5 272.75 40.35 264.45 42.0 262.85 40.5 254.85 41.0 253.6 34.5 171.9 19.8 156.75 24.1 146.75 M110.0 158.25 L110.3 157.55 Q107.2 153.7 102.35 151.7 L117.7 141.05 135.5 149.0 124.65 172.85 124.5 173.4 120.9 248.3 120.55 248.9 Q120.75 256.3 118.3 263.4 118.2 263.75 118.25 264.1 L118.3 264.55 121.35 267.05 121.1 272.75 83.5 272.75 79.55 183.75 110.0 158.25 M101.35 135.3 L114.25 139.8 98.05 151.4 98.15 152.35 106.4 157.35 82.15 177.65 101.35 135.3 M134.8 239.55 L132.0 240.45 Q127.6 242.1 124.05 245.35 L127.5 173.85 138.1 150.55 138.95 150.55 150.0 196.2 150.8 241.8 149.5 240.8 Q142.6 238.05 135.1 239.45 L134.8 239.55" fill="#591f0b" fill-rule="evenodd" stroke="none"/>
      <path d="M94.0 25.85 L94.0 43.25 Q92.3 43.95 92.6 45.85 L92.7 47.35 92.35 47.7 90.05 49.5 90.95 26.6 91.85 26.4 92.3 25.9 94.0 25.85 M84.0 15.35 L86.85 15.2 84.0 16.95 84.0 15.35" fill="#000000" fill-rule="evenodd" stroke="none"/>
      <path d="M92.7 47.35 L92.7 47.7 92.35 47.7 92.7 47.35" fill="#ae8367" fill-rule="evenodd" stroke="none"/>
      <path d="M62.0 137.1 L74.0 140.6 66.8 149.7 62.0 137.1 M92.75 146.85 L89.1 139.6 97.6 136.25 92.75 146.85 M75.3 149.7 L69.75 157.3 68.05 152.95 73.75 145.7 75.3 149.7 M89.15 154.75 L85.35 150.25 88.5 145.1 91.15 150.4 89.15 154.75" fill="#d1b8a2" fill-rule="evenodd" stroke="none"/>
      <path d="M135.1 239.45 L147.7 242.9 154.5 250.3 154.5 262.05 129.8 270.15 121.2 263.1 122.25 258.25 123.25 258.1 125.65 261.8 126.3 262.3 136.2 260.9 136.1 261.4 Q136.05 261.7 136.15 262.0 L136.8 262.8 137.7 262.9 138.4 262.5 Q139.6 259.25 140.45 255.85 140.7 254.95 139.85 254.45 L138.85 254.4 Q138.3 254.35 138.1 254.8 137.35 256.25 136.9 257.9 L127.3 259.2 125.45 255.9 125.35 255.7 123.8 250.35 123.7 249.75 134.8 239.55 135.1 239.45 M12.45 241.45 L25.25 237.95 36.45 248.3 Q35.8 253.45 32.85 257.75 L23.25 256.45 22.45 253.75 21.95 252.8 20.8 252.6 20.5 253.0 Q19.7 257.65 22.15 261.6 L23.7 261.45 24.2 260.3 24.0 259.45 34.15 260.8 36.95 256.65 37.9 256.85 39.0 261.65 30.35 268.7 5.65 260.6 5.65 248.9 12.45 241.45" fill="#e6c6b0" fill-rule="evenodd" stroke="none"/>
      <path d="M90.05 49.5 Q88.95 51.9 88.85 54.65 L88.85 56.4 90.3 56.5 92.35 51.55 Q93.7 55.2 92.35 58.9 L89.35 59.85 89.1 60.6 89.6 61.8 93.75 61.65 99.0 132.45 81.15 139.5 60.9 133.65 68.9 77.55 84.15 109.95 84.45 110.4 85.75 117.25 86.8 116.9 Q86.4 86.55 78.45 57.7 75.8 58.2 73.9 60.2 72.75 61.35 72.0 62.85 L72.65 63.7 77.7 59.65 Q79.45 63.15 79.8 67.15 L69.95 66.7 77.05 46.85 82.85 54.8 84.3 54.2 82.25 49.35 86.4 48.7 86.4 47.8 80.2 46.2 79.95 45.85 Q85.2 41.35 89.4 35.6 L88.7 35.25 78.35 43.2 84.3 26.6 90.95 26.6 90.05 49.5 M76.85 70.2 L80.25 70.15 Q82.7 87.15 84.0 104.55 L73.2 78.95 76.85 70.2" fill="#94ba92" fill-rule="evenodd" stroke="none"/>
      <path d="M75.9 142.95 L77.1 141.5 81.25 142.0 Q83.75 141.7 86.2 140.75 L86.8 142.1 82.7 148.8 78.05 148.5 75.9 142.95 M71.0 160.6 L77.7 151.45 82.75 151.85 87.8 157.8 78.05 177.8 71.0 160.6" fill="#331c1a" fill-rule="evenodd" stroke="none"/>
    </g>
    <g id="shape6" transform="matrix(1.0, 0.0, 0.0, 1.0, -0.15, 0.0)">
      <path d="M41.2 3.95 L41.15 4.0 41.3 4.0 44.35 3.65 45.1 3.6 49.85 3.3 50.1 7.7 50.1 10.1 49.75 10.45 47.5 10.8 45.55 11.05 44.6 11.15 36.4 11.95 33.15 17.35 Q38.35 28.65 45.4 38.9 L48.7 43.9 40.45 52.5 40.25 52.7 38.35 54.95 36.45 57.35 35.6 58.4 34.3 60.1 33.5 61.15 32.05 62.9 Q30.6 62.8 29.95 61.3 L29.3 60.4 28.2 58.8 27.65 57.95 26.25 56.0 25.6 55.0 Q21.25 48.5 15.35 43.2 L15.05 42.65 Q23.8 32.45 27.0 19.2 L27.55 17.35 24.35 12.1 15.95 11.2 14.75 11.05 12.8 10.8 11.4 10.55 Q10.85 10.45 10.8 10.0 L10.75 9.2 10.75 7.2 11.0 3.3 16.05 3.65 18.8 3.95 19.5 4.05 19.3 3.75 Q18.95 3.3 19.25 2.85 L19.5 2.5 23.6 2.4 36.5 2.4 41.35 2.85 41.2 3.95 M44.4 6.85 L42.0 9.25 42.85 9.45 Q44.45 9.3 44.6 7.7 L44.4 6.85 M41.3 8.5 L43.65 6.15 Q41.6 5.6 41.25 7.7 41.2 8.1 41.3 8.5 M41.15 9.85 Q40.25 9.15 40.1 7.7 40.25 6.15 41.3 5.45 L40.2 5.55 37.4 10.25 40.5 9.9 41.15 9.85 M43.9 5.2 Q45.4 5.8 45.6 7.7 L45.1 9.3 48.1 8.9 48.65 4.7 43.9 5.2 M41.95 38.2 L43.25 38.85 41.9 36.6 37.6 29.35 29.4 25.7 26.75 24.55 25.0 29.65 28.0 31.2 41.95 38.2 M41.95 42.6 Q41.05 43.25 41.3 44.35 L43.8 42.35 Q42.85 41.85 41.95 42.6 M44.15 45.15 L44.4 44.85 44.65 43.4 42.15 45.4 Q43.1 45.85 44.15 45.15 M39.1 48.25 L41.25 49.2 43.65 46.5 42.95 46.6 Q41.5 46.45 40.65 45.3 L40.2 43.85 40.4 42.95 26.4 36.65 22.6 35.0 19.65 39.65 20.85 40.15 22.1 39.8 23.45 40.4 25.05 42.0 39.1 48.25 M34.8 9.0 L35.5 9.6 38.0 5.3 36.5 4.05 35.25 4.1 29.2 4.25 34.8 9.0 M25.45 6.7 L22.5 4.4 22.0 4.4 Q24.5 8.6 27.15 12.45 28.0 13.7 29.3 14.6 L31.5 16.2 33.45 12.95 25.45 6.7 M20.7 6.0 L19.85 6.0 Q20.7 7.2 20.4 8.55 20.15 9.6 19.2 10.1 L23.4 10.5 20.7 6.0 M29.35 18.0 L28.25 20.0 29.85 20.75 34.35 22.7 32.2 18.0 29.35 18.0 M19.5 7.75 Q19.35 6.15 17.75 6.0 L16.95 6.25 19.3 8.6 19.5 7.75 M16.0 7.75 Q16.15 9.35 17.75 9.5 L18.6 9.3 16.25 6.95 Q16.05 7.25 16.0 7.75 M12.25 9.2 L15.8 9.7 Q14.6 8.25 15.3 6.7 L15.75 5.9 12.7 5.45 12.25 9.2 M23.25 41.2 L22.1 40.8 21.3 41.05 23.8 43.05 Q24.05 42.3 23.25 41.2 M20.35 42.55 Q20.5 44.15 22.1 44.3 L22.95 44.1 20.6 41.75 20.35 42.55 M25.05 47.75 L21.05 46.6 25.7 52.6 27.0 54.4 32.65 56.5 34.75 57.05 37.9 53.1 36.05 52.1 25.05 47.75" fill="#441c0c" fill-rule="evenodd" stroke="none"/>
      <path d="M41.3 4.0 L41.2 3.95 41.35 2.85 36.5 2.4 30.15 1.6 23.6 2.4 19.5 2.5 19.25 2.85 Q18.95 3.3 19.3 3.75 L18.8 3.95 16.05 3.65 Q20.25 1.5 25.0 0.6 L26.25 0.4 30.15 0.1 Q38.05 0.3 44.35 3.65 L41.3 4.0 M10.75 7.2 L10.75 9.2 9.9 10.0 Q1.8 18.1 1.5 30.25 1.8 42.4 9.9 50.5 17.35 57.95 28.2 58.8 L29.3 60.4 Q17.05 59.8 8.85 51.55 4.25 46.95 2.05 41.15 -2.2 29.0 3.1 17.3 5.8 11.45 10.75 7.2 M12.8 10.8 L14.75 11.05 Q8.85 15.8 6.5 23.15 3.4 33.0 8.5 42.1 13.6 51.25 23.55 53.95 L25.6 55.0 26.25 56.0 Q18.9 54.95 13.3 50.15 5.4 43.3 4.45 32.95 3.25 19.85 12.8 10.8 M34.3 60.1 L35.6 58.4 Q43.05 57.15 48.8 52.25 57.85 44.45 58.45 32.4 59.05 19.5 50.1 10.1 L50.1 7.7 51.45 8.95 Q60.0 17.45 60.3 30.25 60.0 43.05 51.45 51.55 44.35 58.7 34.3 60.1 M38.35 54.95 L40.25 52.7 Q51.55 47.35 54.05 35.2 56.15 25.1 50.65 16.55 48.6 13.3 45.55 11.05 L47.5 10.8 Q50.95 13.85 53.05 17.95 58.75 29.0 54.0 40.3 49.45 51.2 38.35 54.95" fill="#4f2713" fill-rule="evenodd" stroke="none"/>
      <path d="M41.3 4.0 L41.15 4.0 41.2 3.95 41.3 4.0 M36.5 2.4 L23.6 2.4 30.15 1.6 36.5 2.4 M19.3 3.75 L19.5 4.05 18.8 3.95 19.3 3.75 M10.75 9.2 L10.8 10.0 Q1.1 19.6 2.4 33.1 3.35 42.95 10.25 49.95 17.5 57.2 27.65 57.95 L28.2 58.8 Q17.35 57.95 9.9 50.5 1.8 42.4 1.5 30.25 1.8 18.1 9.9 10.0 L10.75 9.2 M35.6 58.4 L36.45 57.35 Q44.1 55.55 49.75 49.9 57.65 42.0 57.95 30.15 57.65 18.3 49.75 10.45 L50.1 10.1 Q59.05 19.5 58.45 32.4 57.85 44.45 48.8 52.25 43.05 57.15 35.6 58.4" fill="#a89678" fill-rule="evenodd" stroke="none"/>
      <path d="M45.1 3.6 L44.35 3.65 Q38.05 0.3 30.15 0.1 L26.25 0.4 30.75 0.0 Q38.75 0.2 45.1 3.6" fill="#724a30" fill-rule="evenodd" stroke="none"/>
      <path d="M41.3 8.5 Q41.2 8.1 41.25 7.7 41.6 5.6 43.65 6.15 L41.3 8.5 M44.4 6.85 L44.6 7.7 Q44.45 9.3 42.85 9.45 L42.0 9.25 44.4 6.85 M44.15 45.15 Q43.1 45.85 42.15 45.4 L44.65 43.4 44.4 44.85 44.15 45.15 M41.95 42.6 Q42.85 41.85 43.8 42.35 L41.3 44.35 Q41.05 43.25 41.95 42.6 M16.0 7.75 Q16.05 7.25 16.25 6.95 L18.6 9.3 17.75 9.5 Q16.15 9.35 16.0 7.75 M19.5 7.75 L19.3 8.6 16.95 6.25 17.75 6.0 Q19.35 6.15 19.5 7.75 M20.35 42.55 L20.6 41.75 22.95 44.1 22.1 44.3 Q20.5 44.15 20.35 42.55 M23.25 41.2 Q24.05 42.3 23.8 43.05 L21.3 41.05 22.1 40.8 23.25 41.2" fill="#d7cdbb" fill-rule="evenodd" stroke="none"/>
      <path d="M15.95 11.2 L24.35 12.1 27.55 17.35 27.0 19.2 Q23.8 32.45 15.05 42.65 L15.35 43.2 Q21.25 48.5 25.6 55.0 L23.55 53.95 22.3 52.95 Q17.25 51.25 13.4 47.45 6.8 40.95 6.55 30.8 6.8 20.6 13.4 13.55 14.6 12.25 15.95 11.2 M40.45 52.5 L48.7 43.9 45.4 38.9 Q38.35 28.65 33.15 17.35 L36.4 11.95 44.6 11.15 Q51.75 16.65 53.55 25.4 55.55 35.3 50.0 43.55 47.2 47.8 42.95 50.65 L40.45 52.5 M46.05 37.8 L48.6 41.5 Q50.4 39.45 51.3 36.9 52.6 33.25 52.4 29.4 51.85 18.25 43.0 11.75 L41.65 12.05 Q38.8 11.65 36.35 13.2 33.8 16.5 35.55 20.15 40.0 29.5 46.05 37.8 M14.45 42.25 Q18.5 37.2 21.35 31.55 L23.75 25.95 Q25.15 22.1 25.9 17.95 26.3 15.65 24.6 14.0 22.2 12.4 19.25 12.3 15.05 14.65 12.0 18.35 10.25 20.5 9.3 23.5 6.2 33.5 11.7 42.45 14.8 47.45 19.85 49.4 L18.65 48.0 Q17.45 46.65 15.95 45.75 13.95 44.4 14.45 42.25" fill="#a99b81" fill-rule="evenodd" stroke="none"/>
      <path d="M41.15 9.85 L40.5 9.9 37.4 10.25 40.2 5.55 41.3 5.45 Q40.25 6.15 40.1 7.7 40.25 9.15 41.15 9.85 M43.9 5.2 L48.65 4.7 48.1 8.9 45.1 9.3 45.6 7.7 Q45.4 5.8 43.9 5.2 M20.7 6.0 L23.4 10.5 19.2 10.1 Q20.15 9.6 20.4 8.55 20.7 7.2 19.85 6.0 L20.7 6.0 M12.25 9.2 L12.7 5.45 15.75 5.9 15.3 6.7 Q14.6 8.25 15.8 9.7 L12.25 9.2" fill="#b5a581" fill-rule="evenodd" stroke="none"/>
      <path d="M14.75 11.05 L15.95 11.2 Q14.6 12.25 13.4 13.55 6.8 20.6 6.55 30.8 6.8 40.95 13.4 47.45 17.25 51.25 22.3 52.95 L23.55 53.95 Q13.6 51.25 8.5 42.1 3.4 33.0 6.5 23.15 8.85 15.8 14.75 11.05 M40.25 52.7 L40.45 52.5 42.95 50.65 Q47.2 47.8 50.0 43.55 55.55 35.3 53.55 25.4 51.75 16.65 44.6 11.15 L45.55 11.05 Q48.6 13.3 50.65 16.55 56.15 25.1 54.05 35.2 51.55 47.35 40.25 52.7" fill="#887c64" fill-rule="evenodd" stroke="none"/>
      <path d="M10.8 10.0 Q10.85 10.45 11.4 10.55 L12.8 10.8 Q3.25 19.85 4.45 32.95 5.4 43.3 13.3 50.15 18.9 54.95 26.25 56.0 L27.65 57.95 Q17.5 57.2 10.25 49.95 3.35 42.95 2.4 33.1 1.1 19.6 10.8 10.0 M36.45 57.35 L38.35 54.95 Q49.45 51.2 54.0 40.3 58.75 29.0 53.05 17.95 50.95 13.85 47.5 10.8 L49.75 10.45 Q57.65 18.3 57.95 30.15 57.65 42.0 49.75 49.9 44.1 55.55 36.45 57.35" fill="#f0e6ca" fill-rule="evenodd" stroke="none"/>
      <path d="M36.35 13.2 Q38.8 11.65 41.65 12.05 L43.0 11.75 Q51.85 18.25 52.4 29.4 52.6 33.25 51.3 36.9 50.4 39.45 48.6 41.5 L46.05 37.8 Q50.35 29.45 46.7 20.6 43.8 13.75 36.35 13.2 M24.6 14.0 Q16.75 16.25 12.2 23.4 8.65 29.55 11.25 36.2 12.4 39.5 14.45 42.25 13.95 44.4 15.95 45.75 17.45 46.65 18.65 48.0 L19.85 49.4 Q14.8 47.45 11.7 42.45 6.2 33.5 9.3 23.5 10.25 20.5 12.0 18.35 15.05 14.65 19.25 12.3 22.2 12.4 24.6 14.0" fill="#c4b696" fill-rule="evenodd" stroke="none"/>
      <path d="M46.05 37.8 Q40.0 29.5 35.55 20.15 33.8 16.5 36.35 13.2 43.8 13.75 46.7 20.6 50.35 29.45 46.05 37.8 M24.6 14.0 Q26.3 15.65 25.9 17.95 25.15 22.1 23.75 25.95 L21.35 31.55 Q18.5 37.2 14.45 42.25 12.4 39.5 11.25 36.2 8.65 29.55 12.2 23.4 16.75 16.25 24.6 14.0" fill="#d8ceba" fill-rule="evenodd" stroke="none"/>
      <path d="M41.9 36.6 L43.25 38.85 41.95 38.2 41.9 36.6 M28.0 31.2 L25.0 29.65 26.75 24.55 29.4 25.7 28.0 31.2 M40.65 45.3 Q41.5 46.45 42.95 46.6 L43.65 46.5 41.25 49.2 39.1 48.25 40.65 45.3 M25.05 42.0 L23.45 40.4 22.1 39.8 20.85 40.15 19.65 39.65 22.6 35.0 26.4 36.65 25.05 42.0 M35.25 4.1 L36.5 4.05 38.0 5.3 35.5 9.6 34.8 9.0 35.25 4.1 M29.3 14.6 Q28.0 13.7 27.15 12.45 24.5 8.6 22.0 4.4 L22.5 4.4 25.45 6.7 26.55 8.3 Q28.7 11.05 29.3 14.6 M29.85 20.75 L28.25 20.0 29.35 18.0 29.85 20.75 M25.7 52.6 L21.05 46.6 25.05 47.75 25.7 52.6 M36.05 52.1 L37.9 53.1 34.75 57.05 32.65 56.5 36.05 52.1" fill="#af9f81" fill-rule="evenodd" stroke="none"/>
      <path d="M41.9 36.6 L41.95 38.2 28.0 31.2 29.4 25.7 37.6 29.35 41.9 36.6 M40.65 45.3 L39.1 48.25 25.05 42.0 26.4 36.65 40.4 42.95 40.2 43.85 40.65 45.3 M35.25 4.1 L34.8 9.0 29.2 4.25 35.25 4.1 M29.3 14.6 Q28.7 11.05 26.55 8.3 L25.45 6.7 33.45 12.95 31.5 16.2 29.3 14.6 M29.85 20.75 L29.35 18.0 32.2 18.0 34.35 22.7 29.85 20.75 M25.7 52.6 L25.05 47.75 36.05 52.1 32.65 56.5 27.0 54.4 25.7 52.6" fill="#c4b898" fill-rule="evenodd" stroke="none"/>
    </g>
  </defs>
</svg>
