<?xml version="1.0" encoding="UTF-8" standalone="no"?>
<svg xmlns:xlink="http://www.w3.org/1999/xlink" height="454.95px" width="385.95px" xmlns="http://www.w3.org/2000/svg">
  <g transform="matrix(1.0, 0.0, 0.0, 1.0, 193.15, 454.95)">
    <use height="36.0" transform="matrix(1.0, 0.0, 0.0, 1.0, -75.95, -36.0)" width="159.0" xlink:href="#shape0"/>
    <use height="96.65" transform="matrix(1.0, 0.0, 0.0, 1.0, -23.55, -108.0)" width="54.2" xlink:href="#shape1"/>
    <use height="37.0" transform="matrix(1.0, 0.0, 0.0, 1.0, -89.05, -94.35)" width="185.25" xlink:href="#shape2"/>
    <use height="15.35" transform="matrix(0.95, 0.0, 0.0, 1.0, -63.76, -81.45)" width="133.65" xlink:href="#text0"/>
    <use height="303.9" transform="matrix(1.0, 0.0, 0.0, 1.0, -169.75, -401.5)" width="339.3" xlink:href="#shape3"/>
    <use height="262.85" transform="matrix(1.127, 0.0, 0.0, 1.127, -145.2, -395.8)" width="259.0" xlink:href="#shape4"/>
    <use height="62.9" transform="matrix(1.0, 0.0, 0.0, 1.0, -24.85, -235.45)" width="60.15" xlink:href="#shape5"/>
  </g>
  <defs>
    <g id="shape0" transform="matrix(1.0, 0.0, 0.0, 1.0, 0.0, 0.0)">
      <path d="M135.7 30.75 Q113.3 35.8 79.5 36.0 45.7 35.8 23.3 30.75 0.85 25.65 0.0 18.0 0.85 10.35 23.3 5.25 45.7 0.2 79.5 0.0 113.3 0.2 135.7 5.25 158.15 10.35 159.0 18.0 158.15 25.65 135.7 30.75" fill="#000000" fill-opacity="0.39607844" fill-rule="evenodd" stroke="none"/>
    </g>
    <g id="shape1" transform="matrix(1.0, 0.0, 0.0, 1.0, 0.0, 0.0)">
      <path d="M5.85 93.35 Q-0.15 90.4 0.0 90.0 L0.0 0.0 54.2 0.0 54.2 90.0 Q54.15 90.4 46.95 93.35 39.7 96.25 25.65 96.65 11.8 96.25 5.85 93.35" fill="url(#gradient0)" fill-rule="evenodd" stroke="none"/>
    </g>
    <linearGradient gradientTransform="matrix(0.0303, 0.0, 0.0, 0.0303, 25.7, 48.35)" gradientUnits="userSpaceOnUse" id="gradient0" spreadMethod="pad" x1="-819.2" x2="819.2">
      <stop offset="0.0" stop-color="#565656"/>
      <stop offset="0.403921568627451" stop-color="#9a9999"/>
      <stop offset="0.592156862745098" stop-color="#dbdbda"/>
      <stop offset="0.7803921568627451" stop-color="#9b9a9a"/>
      <stop offset="1.0" stop-color="#151213"/>
    </linearGradient>
    <g id="shape2" transform="matrix(1.0, 0.0, 0.0, 1.0, -0.05, 0.0)">
      <path d="M185.25 8.2 L185.3 8.25 185.25 8.25 185.25 8.2 M1.9 5.2 L2.3 2.85 18.75 2.05 59.05 0.7 Q83.4 0.05 109.4 0.3 115.1 0.55 118.85 1.6 122.65 2.7 128.15 3.0 L129.3 1.5 Q130.05 0.2 130.5 0.0 160.7 0.5 181.5 3.85 L183.45 6.1 103.3 3.5 Q60.0 3.6 6.5 5.1 L1.9 5.2 M176.25 8.0 L176.45 8.4 177.65 11.45 178.5 13.65 Q179.3 12.8 179.7 10.9 179.7 9.8 179.25 9.1 L179.9 9.55 Q180.65 10.3 180.7 11.75 179.85 15.7 177.15 15.05 175.8 14.75 175.1 13.85 L176.15 14.2 177.35 14.25 176.45 12.35 174.9 8.8 174.8 8.5 174.95 8.35 Q175.75 7.8 176.25 8.0 M178.25 27.3 L179.85 27.15 Q180.5 27.3 181.25 27.95 183.6 31.2 181.35 32.8 180.2 33.6 179.1 33.5 L180.8 32.15 178.8 31.55 175.1 30.4 175.2 29.1 175.2 29.0 175.25 28.7 175.4 28.75 175.85 28.9 178.95 30.05 181.1 30.85 Q181.0 29.65 179.9 28.15 179.05 27.45 178.25 27.3 M9.35 6.95 L10.7 10.45 11.7 12.9 Q12.6 11.95 13.05 9.85 13.05 8.55 12.5 7.75 13.85 8.35 14.15 10.05 L13.75 12.35 Q12.6 15.1 10.15 14.55 8.75 14.25 8.0 13.4 L7.85 13.2 9.0 13.6 10.35 13.65 9.35 11.4 7.6 7.45 8.75 6.6 9.2 6.55 9.35 6.95 M9.4 25.3 Q11.0 24.35 12.9 25.8 15.0 28.35 14.35 30.1 L13.4 31.3 Q12.2 32.25 10.95 32.25 L12.75 30.6 10.4 30.05 6.2 29.05 6.15 27.55 6.15 27.1 6.35 27.15 6.9 27.35 10.45 28.4 12.95 29.1 Q12.75 27.8 11.35 26.15 10.35 25.35 9.4 25.3" fill="#47525f" fill-rule="evenodd" stroke="none"/>
      <path d="M0.05 36.7 L0.75 22.9 Q1.05 14.95 1.6 7.0 L1.9 5.2 6.5 5.1 3.2 8.3 1.95 36.45 0.05 36.7" fill="#cdcdcd" fill-rule="evenodd" stroke="none"/>
      <path d="M13.75 12.35 L14.15 10.05 26.45 10.0 13.75 12.35 M8.0 13.4 L7.0 13.55 7.2 26.2 6.35 27.15 6.15 27.1 6.15 27.55 Q5.15 29.5 6.75 31.55 8.95 33.2 10.95 32.25 12.2 32.25 13.4 31.3 L14.35 30.1 16.45 30.2 36.65 31.3 56.5 32.6 Q50.4 32.9 38.0 32.9 L15.1 32.75 3.85 32.6 5.25 10.05 6.0 10.05 Q6.15 12.3 7.85 13.2 L8.0 13.4" fill="#848484" fill-rule="evenodd" stroke="none"/>
      <path d="M175.1 13.85 Q175.8 14.75 177.15 15.05 179.85 15.7 180.7 11.75 180.65 10.3 179.9 9.55 L180.85 9.65 179.85 27.15 178.25 27.3 177.7 27.3 177.8 15.2 160.95 13.3 Q144.35 11.4 115.0 6.95 144.55 7.2 162.45 8.35 L174.1 9.15 Q173.65 9.7 173.4 10.6 173.45 12.95 175.1 13.85 M175.3 32.3 L137.05 30.55 175.2 29.0 175.2 29.1 Q174.3 30.55 175.3 32.3" fill="#a09fa0" fill-rule="evenodd" stroke="none"/>
      <path d="M176.45 8.4 L176.25 8.0 176.9 7.95 Q178.55 8.05 179.25 9.1 179.7 9.8 179.7 10.9 179.3 12.8 178.5 13.65 L177.65 11.45 178.05 10.25 Q178.0 8.55 176.45 8.4 M174.8 8.5 L174.9 8.8 Q174.35 9.2 174.15 10.05 174.2 11.9 175.85 12.3 L176.45 12.35 177.35 14.25 176.15 14.2 175.1 13.85 Q173.45 12.95 173.4 10.6 173.65 9.7 174.1 9.15 L174.8 8.5 M177.7 27.3 L178.25 27.3 Q179.05 27.45 179.9 28.15 181.0 29.65 181.1 30.85 L178.95 30.05 178.3 28.9 Q177.0 27.8 175.85 28.9 L175.4 28.75 175.8 28.3 Q176.7 27.35 177.7 27.3 M179.1 33.5 Q177.3 34.2 175.5 32.65 L175.3 32.3 Q174.3 30.55 175.2 29.1 L175.1 30.4 Q175.25 32.1 176.95 32.35 178.0 32.25 178.8 31.55 L180.8 32.15 179.1 33.5 M10.7 10.45 L11.2 9.05 Q11.15 7.15 9.35 6.95 L9.2 6.55 9.9 6.5 Q11.75 6.6 12.5 7.75 13.05 8.55 13.05 9.85 12.6 11.95 11.7 12.9 L10.7 10.45 M7.2 26.2 Q8.2 25.2 9.4 25.3 10.35 25.35 11.35 26.15 12.75 27.8 12.95 29.1 L10.45 28.4 Q9.75 26.65 8.05 26.6 L6.9 27.35 6.35 27.15 7.2 26.2 M6.0 10.05 L5.95 9.55 Q6.6 7.0 8.75 6.6 L7.6 7.45 Q7.0 7.9 6.75 8.85 6.8 10.95 8.7 11.35 L9.35 11.4 10.35 13.65 9.0 13.6 7.85 13.2 Q6.15 12.3 6.0 10.05 M6.15 27.55 L6.2 29.05 Q6.45 30.9 8.2 31.1 9.7 31.2 10.4 30.05 L12.75 30.6 10.95 32.25 Q8.95 33.2 6.75 31.55 5.15 29.5 6.15 27.55" fill="#9c9c9c" fill-rule="evenodd" stroke="none"/>
      <path d="M174.9 8.8 L176.45 12.35 175.85 12.3 Q174.2 11.9 174.15 10.05 174.35 9.2 174.9 8.8 M177.65 11.45 L176.45 8.4 Q178.0 8.55 178.05 10.25 L177.65 11.45 M175.85 28.9 Q177.0 27.8 178.3 28.9 L178.95 30.05 175.85 28.9 M175.1 30.4 L178.8 31.55 Q178.0 32.25 176.95 32.35 175.25 32.1 175.1 30.4 M9.35 6.95 Q11.15 7.15 11.2 9.05 L10.7 10.45 9.35 6.95 M9.35 11.4 L8.7 11.35 Q6.8 10.95 6.75 8.85 7.0 7.9 7.6 7.45 L9.35 11.4 M10.45 28.4 L6.9 27.35 8.05 26.6 Q9.75 26.65 10.45 28.4 M6.2 29.05 L10.4 30.05 Q9.7 31.2 8.2 31.1 6.45 30.9 6.2 29.05" fill="#d5d4d4" fill-rule="evenodd" stroke="none"/>
      <path d="M183.45 6.1 L185.3 6.25 185.25 8.2 185.25 8.25 185.1 13.45 184.65 27.3 184.3 36.25 Q157.35 34.75 133.85 35.55 L89.2 37.0 Q65.15 37.15 43.55 35.85 22.0 34.5 0.05 36.75 L0.05 36.7 1.95 36.45 3.2 8.3 6.5 5.1 Q60.0 3.6 103.3 3.5 L183.45 6.1 M176.25 8.0 Q175.75 7.8 174.95 8.35 L174.8 8.5 174.1 9.15 162.45 8.35 Q144.55 7.2 115.0 6.95 144.35 11.4 160.95 13.3 L177.8 15.2 177.7 27.3 Q176.7 27.35 175.8 28.3 L175.4 28.75 175.25 28.7 175.2 29.0 137.05 30.55 175.3 32.3 175.5 32.65 Q177.3 34.2 179.1 33.5 180.2 33.6 181.35 32.8 183.6 31.2 181.25 27.95 180.5 27.3 179.85 27.15 L180.85 9.65 179.9 9.55 179.25 9.1 Q178.55 8.05 176.9 7.95 L176.25 8.0 M12.5 7.75 Q11.75 6.6 9.9 6.5 L9.2 6.55 8.75 6.6 Q6.6 7.0 5.95 9.55 L6.0 10.05 5.25 10.05 3.85 32.6 15.1 32.75 38.0 32.9 Q50.4 32.9 56.5 32.6 L36.65 31.3 16.45 30.2 14.35 30.1 Q15.0 28.35 12.9 25.8 11.0 24.35 9.4 25.3 8.2 25.2 7.2 26.2 L7.0 13.55 8.0 13.4 Q8.75 14.25 10.15 14.55 12.6 15.1 13.75 12.35 L26.45 10.0 14.15 10.05 Q13.85 8.35 12.5 7.75" fill="url(#gradient1)" fill-rule="evenodd" stroke="none"/>
    </g>
    <linearGradient gradientTransform="matrix(0.1131, 0.0, 0.0, 0.0204, 92.65, 20.25)" gradientUnits="userSpaceOnUse" id="gradient1" spreadMethod="pad" x1="-819.2" x2="819.2">
      <stop offset="0.0" stop-color="#9a9a9a"/>
      <stop offset="1.0" stop-color="#ffffff"/>
    </linearGradient>
    <g id="text0" transform="matrix(1.0, 0.0, 0.0, 1.0, -1.2, -5.7)">
      <g transform="matrix(1.0, 0.0, 0.0, 1.0, 0.0, 0.0)">
        <use fill="#000000" height="15.35" transform="matrix(0.4746, 0.0, 0.0, 0.4746, 0.0, 21.0)" width="133.65" xlink:href="#font_______W7_H0"/>
        <use fill="#000000" height="15.35" transform="matrix(0.4746, 0.0, 0.0, 0.4746, 16.5, 21.0)" width="133.65" xlink:href="#font_______W7_e0"/>
        <use fill="#000000" height="15.35" transform="matrix(0.4746, 0.0, 0.0, 0.4746, 28.9, 21.0)" width="133.65" xlink:href="#font_______W7_a0"/>
        <use fill="#000000" height="15.35" transform="matrix(0.4746, 0.0, 0.0, 0.4746, 41.7, 21.0)" width="133.65" xlink:href="#font_______W7_d0"/>
        <use fill="#000000" height="15.35" transform="matrix(0.4746, 0.0, 0.0, 0.4746, 61.65, 21.0)" width="133.65" xlink:href="#font_______W7_H0"/>
        <use fill="#000000" height="15.35" transform="matrix(0.4746, 0.0, 0.0, 0.4746, 78.15, 21.0)" width="133.65" xlink:href="#font_______W7_u0"/>
        <use fill="#000000" height="15.35" transform="matrix(0.4746, 0.0, 0.0, 0.4746, 90.65, 21.0)" width="133.65" xlink:href="#font_______W7_n0"/>
        <use fill="#000000" height="15.35" transform="matrix(0.4746, 0.0, 0.0, 0.4746, 103.3, 21.0)" width="133.65" xlink:href="#font_______W7_t0"/>
        <use fill="#000000" height="15.35" transform="matrix(0.4746, 0.0, 0.0, 0.4746, 113.7, 21.0)" width="133.65" xlink:href="#font_______W7_e0"/>
        <use fill="#000000" height="15.35" transform="matrix(0.4746, 0.0, 0.0, 0.4746, 126.15, 21.0)" width="133.65" xlink:href="#font_______W7_r0"/>
      </g>
    </g>
    <g id="font_______W7_H0">
      <path d="M31.8 -31.5 L31.8 -31.5 26.95 -32.15 25.95 -21.0 11.4 -18.75 10.2 -31.5 5.3 -32.15 2.55 0.05 13.15 -1.1 11.95 -13.75 25.35 -13.75 24.15 0.05 34.75 -1.1 31.8 -31.5" fill-rule="evenodd" stroke="none"/>
    </g>
    <g id="font_______W7_e0">
      <path d="M19.45 -9.9 L19.45 -9.9 Q16.75 -7.55 13.6 -7.55 10.45 -7.55 9.15 -9.9 L19.45 -9.9 M9.0 -13.4 L9.0 -13.4 Q9.7 -14.95 11.5 -15.95 13.2 -16.8 15.1 -16.8 18.05 -16.8 19.65 -14.35 L9.0 -13.4 M23.25 -9.9 L23.25 -9.9 24.3 -9.9 26.7 -12.6 Q25.85 -16.7 22.9 -19.1 19.9 -21.45 15.15 -21.45 9.65 -21.45 5.9 -18.65 1.8 -15.6 1.8 -10.4 1.8 -5.35 5.8 -2.5 9.3 0.05 14.6 0.05 22.45 0.05 27.15 -4.25 L23.25 -9.9" fill-rule="evenodd" stroke="none"/>
    </g>
    <g id="font_______W7_a0">
      <path d="M19.05 -8.85 L19.05 -8.85 18.5 -5.05 17.1 -9.0 Q14.35 -6.2 10.6 -6.2 9.95 -6.2 9.45 -6.75 9.0 -7.2 9.0 -7.85 9.0 -10.2 13.7 -10.2 15.9 -10.2 19.05 -8.85 M27.4 -6.8 L27.4 -6.8 Q27.4 -21.45 13.35 -21.45 7.15 -21.45 2.55 -18.35 L4.3 -14.35 Q8.3 -16.55 13.15 -16.55 17.85 -16.55 18.85 -13.35 15.4 -14.5 12.8 -14.5 8.6 -14.5 5.6 -12.8 1.8 -10.75 1.8 -6.95 1.8 -3.5 4.9 -1.55 7.55 0.05 11.15 0.05 13.95 0.05 17.35 -0.95 L17.0 0.15 26.7 -0.3 Q27.4 -3.45 27.4 -6.8" fill-rule="evenodd" stroke="none"/>
    </g>
    <g id="font_______W7_d0">
      <path d="M18.35 -8.95 L18.35 -8.95 16.8 -11.9 Q14.75 -9.45 12.45 -9.45 10.9 -9.45 10.0 -10.4 9.1 -11.4 9.1 -12.95 9.1 -14.5 10.7 -15.6 12.15 -16.5 13.7 -16.5 16.6 -16.5 18.8 -14.55 L18.35 -8.95 M24.9 -31.55 L24.9 -31.55 20.15 -32.2 19.15 -19.55 Q16.05 -21.45 12.65 -21.45 8.15 -21.45 4.95 -18.25 1.8 -15.0 1.8 -10.5 1.8 -6.05 4.6 -3.05 7.4 0.05 11.85 0.05 14.65 0.05 17.7 -1.5 L17.6 0.0 27.65 -1.45 24.9 -31.55" fill-rule="evenodd" stroke="none"/>
    </g>
    <g id="font_______W7_u0">
      <path d="M24.1 -20.75 L24.1 -20.75 19.25 -21.45 17.9 -8.95 16.15 -11.65 Q13.35 -8.1 10.6 -8.1 9.0 -8.1 8.15 -9.4 7.25 -10.65 7.25 -12.3 7.25 -15.75 8.6 -19.75 L3.9 -21.15 Q2.05 -16.35 2.05 -11.4 2.05 -6.45 4.25 -3.4 6.75 0.05 11.5 0.05 14.55 0.05 17.1 -1.5 L16.95 0.1 26.8 -1.35 24.1 -20.75" fill-rule="evenodd" stroke="none"/>
    </g>
    <g id="font_______W7_n0">
      <path d="M27.0 -9.05 L27.0 -9.05 Q27.0 -14.5 24.65 -17.8 21.9 -21.45 16.6 -21.45 12.6 -21.45 9.45 -18.85 L9.2 -20.75 4.35 -21.45 2.05 0.05 11.95 -1.4 10.35 -12.55 Q12.95 -15.85 15.9 -15.85 19.4 -15.85 19.4 -10.6 19.4 -6.9 16.6 -1.3 L26.2 0.0 Q27.0 -6.5 27.0 -9.05" fill-rule="evenodd" stroke="none"/>
    </g>
    <g id="font_______W7_t0">
      <path d="M18.7 -12.2 L18.7 -12.2 Q17.0 -9.35 14.9 -9.35 11.95 -9.35 11.95 -15.4 L21.65 -15.4 20.1 -22.55 12.4 -21.45 Q12.75 -24.2 13.6 -27.95 L8.95 -28.85 Q7.75 -24.65 7.1 -20.75 L0.75 -19.9 1.75 -15.4 6.55 -15.4 6.5 -12.55 Q6.5 -6.8 7.75 -4.05 9.5 0.05 14.55 0.05 19.1 0.05 23.25 -4.15 L18.7 -12.2" fill-rule="evenodd" stroke="none"/>
    </g>
    <g id="font_______W7_r0">
      <path d="M18.3 -20.6 L18.3 -20.6 Q16.55 -21.45 14.75 -21.45 11.5 -21.45 8.7 -18.65 L8.45 -20.75 4.45 -21.45 2.55 0.05 10.65 -1.4 9.3 -12.8 Q10.55 -14.85 12.3 -14.85 13.25 -14.85 14.55 -13.85 L16.55 -12.05 18.3 -20.6" fill-rule="evenodd" stroke="none"/>
    </g>
    <g id="shape3" transform="matrix(1.0, 0.0, 0.0, 1.0, 19.25, 33.1)">
      <path d="M294.35 60.5 L294.35 62.8 285.4 72.2 285.4 69.85 294.35 60.5 M297.75 66.3 Q297.65 69.4 294.75 71.65 291.75 73.9 287.55 73.9 L287.5 71.7 Q291.7 71.7 294.75 70.1 297.6 68.5 297.75 66.3 M285.35 72.3 L285.35 72.2 285.4 72.3 285.35 72.3 M305.6 171.75 L311.3 145.2 304.45 54.4 257.25 30.05 195.3 -1.9 186.75 -28.6 124.55 -28.6 107.35 -1.3 7.95 63.6 -3.7 101.8 -12.7 131.4 6.2 244.0 23.9 268.6 84.9 268.6 269.85 268.6 288.95 249.75 305.6 171.75 M198.35 -4.15 L310.45 54.8 320.05 145.6 291.4 252.95 272.45 270.8 17.25 270.8 3.55 246.5 -19.25 130.95 6.1 59.45 21.1 49.45 78.85 10.55 94.9 -0.25 Q109.0 -10.05 117.05 -25.25 118.45 -27.95 120.2 -30.5 L122.05 -33.1 190.7 -32.85 198.35 -4.15 M227.55 29.4 L228.25 30.2 Q233.95 33.1 235.5 27.3 L235.7 26.6 Q236.2 32.4 230.95 33.35 230.2 33.35 229.6 32.8 227.1 30.85 226.9 27.65 L227.55 29.4 M294.85 191.15 Q295.2 193.55 294.05 195.85 293.1 197.95 291.05 198.35 286.25 197.6 286.05 192.2 L286.75 193.95 287.4 194.75 Q292.6 197.55 294.5 192.55 L294.85 191.15 M136.55 -22.9 L136.55 -20.6 127.6 -11.2 127.6 -13.55 136.55 -22.9 M139.95 -17.1 Q139.9 -14.0 136.95 -11.75 133.95 -9.5 129.75 -9.5 L129.7 -11.7 130.15 -11.7 Q134.1 -11.8 136.95 -13.3 139.85 -14.9 139.95 -17.1 M127.55 -11.1 L127.55 -11.2 127.6 -11.1 127.55 -11.1 M8.5 88.8 Q13.65 91.65 15.6 86.6 L15.9 85.2 Q16.4 90.25 11.95 91.85 10.15 92.5 8.95 90.8 7.4 88.8 7.1 86.25 L7.8 88.0 8.5 88.8 M35.15 247.05 L35.15 249.35 26.15 258.75 26.15 256.4 35.15 247.05 M38.5 252.85 Q38.45 255.95 35.5 258.2 32.55 260.45 28.3 260.45 L28.25 258.25 Q32.5 258.25 35.5 256.6 38.4 255.05 38.5 252.85 M26.1 258.8 L26.1 258.75 26.15 258.8 26.1 258.8 M225.55 218.2 Q226.05 223.2 221.6 224.75 219.8 225.4 218.55 223.75 217.05 221.75 216.75 219.25 L217.45 221.0 218.1 221.8 Q223.7 224.65 225.4 218.9 L225.55 218.2" fill="#47525f" fill-rule="evenodd" stroke="none"/>
      <path d="M294.35 60.5 L293.95 60.2 Q289.85 60.2 286.95 61.95 284.05 63.7 284.05 66.2 L285.35 72.2 285.35 72.3 287.55 73.9 Q291.75 73.9 294.75 71.65 297.65 69.4 297.75 66.3 L296.45 62.3 295.25 63.55 294.35 62.8 294.35 60.5 M257.25 30.05 L304.45 54.4 311.3 145.2 305.6 171.75 84.9 268.6 23.9 268.6 6.2 244.0 -12.7 131.4 -3.7 101.8 257.25 30.05 M137.45 -19.85 L138.65 -21.1 Q138.65 -17.2 136.05 -14.45 133.6 -11.85 130.15 -11.7 L129.7 -11.7 137.45 -19.85 M24.8 252.7 L26.1 258.75 26.1 258.8 28.3 260.45 Q32.55 260.45 35.5 258.2 38.45 255.95 38.5 252.85 L37.2 248.85 36.05 250.05 35.15 249.35 35.15 247.05 34.75 246.75 Q30.6 246.75 27.75 248.5 24.8 250.25 24.8 252.7" fill="#bab9ba" fill-rule="evenodd" stroke="none"/>
      <path d="M305.6 171.75 L288.95 249.75 269.85 268.6 84.9 268.6 305.6 171.75 M-3.7 101.8 L7.95 63.6 107.35 -1.3 124.55 -28.6 186.75 -28.6 195.3 -1.9 257.25 30.05 -3.7 101.8 M234.8 24.45 L233.1 23.25 Q230.55 23.3 228.8 24.55 226.9 25.85 226.9 27.65 227.1 30.85 229.6 32.8 230.2 33.35 230.95 33.35 236.2 32.4 235.7 26.6 L234.8 24.45 M293.95 189.0 L292.25 187.8 Q289.75 187.85 288.0 189.1 286.05 190.4 286.05 192.2 286.25 197.6 291.05 198.35 293.1 197.95 294.05 195.85 295.2 193.55 294.85 191.15 L293.95 189.0 M136.15 -23.2 Q132.05 -23.2 129.2 -21.45 126.25 -19.7 126.25 -17.2 L127.55 -11.2 127.55 -11.1 129.75 -9.5 Q133.95 -9.5 136.95 -11.75 139.9 -14.0 139.95 -17.1 L138.65 -21.1 137.45 -19.85 136.55 -20.6 136.55 -22.9 136.15 -23.2 M15.9 85.2 L15.0 83.05 13.3 81.85 Q10.8 81.9 9.05 83.15 7.1 84.45 7.1 86.25 7.4 88.8 8.95 90.8 10.15 92.5 11.95 91.85 16.4 90.25 15.9 85.2 M224.65 216.05 L222.95 214.85 Q220.4 214.9 218.65 216.15 216.75 217.45 216.75 219.25 217.05 221.75 218.55 223.75 219.8 225.4 221.6 224.75 226.05 223.2 225.55 218.2 L224.65 216.05" fill="#9c9c9c" fill-rule="evenodd" stroke="none"/>
      <path d="M294.35 62.8 L295.25 63.55 287.5 71.7 287.55 73.9 285.35 72.3 285.4 72.3 285.4 72.2 294.35 62.8 M136.55 -20.6 L137.45 -19.85 129.7 -11.7 129.75 -9.5 127.55 -11.1 127.6 -11.1 127.6 -11.2 136.55 -20.6 M35.15 249.35 L36.05 250.05 28.25 258.25 28.3 260.45 26.1 258.8 26.15 258.8 26.15 258.75 35.15 249.35" fill="#57565b" fill-rule="evenodd" stroke="none"/>
      <path d="M285.35 72.2 L284.05 66.2 285.0 69.3 285.4 69.85 285.4 72.2 285.4 72.3 285.35 72.2 M127.55 -11.2 L126.25 -17.2 127.2 -14.1 127.6 -13.55 127.6 -11.2 127.6 -11.1 127.55 -11.2 M26.1 258.75 L24.8 252.7 25.8 255.8 26.15 256.4 26.15 258.75 26.15 258.8 26.1 258.75" fill="#79818b" fill-rule="evenodd" stroke="none"/>
      <path d="M293.95 60.2 L294.35 60.5 285.4 69.85 285.0 69.3 293.95 60.2 M233.1 23.25 L234.8 24.45 Q234.8 26.8 232.85 28.5 230.95 30.2 228.25 30.2 L227.55 29.4 Q227.55 26.85 229.25 25.05 230.85 23.35 233.1 23.25 M292.25 187.8 L293.95 189.0 Q293.95 191.35 292.05 193.05 290.1 194.75 287.4 194.75 L286.75 193.95 Q286.75 191.4 288.45 189.6 290.0 187.9 292.25 187.8 M136.15 -23.2 L136.55 -22.9 127.6 -13.55 127.2 -14.1 136.15 -23.2 M15.0 83.05 Q15.0 85.4 13.1 87.1 11.2 88.8 8.5 88.8 L7.8 88.0 Q7.8 85.45 9.5 83.65 11.05 81.95 13.3 81.85 L15.0 83.05 M34.75 246.75 L35.15 247.05 26.15 256.4 25.8 255.8 34.75 246.75 M222.95 214.85 L224.65 216.05 Q224.65 218.4 222.75 220.1 220.8 221.8 218.1 221.8 L217.45 221.0 Q217.45 218.45 219.1 216.65 220.7 214.95 222.95 214.85" fill="#d0cfd0" fill-rule="evenodd" stroke="none"/>
      <path d="M284.05 66.2 Q284.05 63.7 286.95 61.95 289.85 60.2 293.95 60.2 L285.0 69.3 284.05 66.2 M233.1 23.25 Q230.85 23.35 229.25 25.05 227.55 26.85 227.55 29.4 L226.9 27.65 Q226.9 25.85 228.8 24.55 230.55 23.3 233.1 23.25 M286.05 192.2 Q286.05 190.4 288.0 189.1 289.75 187.85 292.25 187.8 290.0 187.9 288.45 189.6 286.75 191.4 286.75 193.95 L286.05 192.2 M126.25 -17.2 Q126.25 -19.7 129.2 -21.45 132.05 -23.2 136.15 -23.2 L127.2 -14.1 126.25 -17.2 M7.8 88.0 L7.1 86.25 Q7.1 84.45 9.05 83.15 10.8 81.9 13.3 81.85 11.05 81.95 9.5 83.65 7.8 85.45 7.8 88.0 M24.8 252.7 Q24.8 250.25 27.75 248.5 30.6 246.75 34.75 246.75 L25.8 255.8 24.8 252.7 M216.75 219.25 Q216.75 217.45 218.65 216.15 220.4 214.9 222.95 214.85 220.7 214.95 219.1 216.65 217.45 218.45 217.45 221.0 L216.75 219.25" fill="#e9e9eb" fill-rule="evenodd" stroke="none"/>
      <path d="M295.25 63.55 L296.45 62.3 297.75 66.3 Q297.6 68.5 294.75 70.1 291.7 71.7 287.5 71.7 L295.25 63.55 M228.25 30.2 Q230.95 30.2 232.85 28.5 234.8 26.8 234.8 24.45 L235.7 26.6 235.5 27.3 Q233.95 33.1 228.25 30.2 M293.95 189.0 L294.85 191.15 294.5 192.55 Q292.6 197.55 287.4 194.75 290.1 194.75 292.05 193.05 293.95 191.35 293.95 189.0 M138.65 -21.1 L139.95 -17.1 Q139.85 -14.9 136.95 -13.3 134.1 -11.8 130.15 -11.7 133.6 -11.85 136.05 -14.45 138.65 -17.2 138.65 -21.1 M15.9 85.2 L15.6 86.6 Q13.65 91.65 8.5 88.8 11.2 88.8 13.1 87.1 15.0 85.4 15.0 83.05 L15.9 85.2 M36.05 250.05 L37.2 248.85 38.5 252.85 Q38.4 255.05 35.5 256.6 32.5 258.25 28.25 258.25 L36.05 250.05 M224.65 216.05 L225.55 218.2 225.4 218.9 Q223.7 224.65 218.1 221.8 220.8 221.8 222.75 220.1 224.65 218.4 224.65 216.05" fill="#b0aeb3" fill-rule="evenodd" stroke="none"/>
    </g>
    <g id="shape4" transform="matrix(1.0, 0.0, 0.0, 1.0, 0.0, 0.0)">
      <path d="M252.8 80.7 L253.4 81.35 259.0 153.6 244.95 233.7 245.25 234.15 Q245.95 235.3 245.5 236.35 L220.05 260.15 Q216.65 257.9 210.65 253.25 L197.0 242.9 200.35 237.45 198.2 227.8 199.9 226.2 197.5 211.65 Q194.9 196.0 190.45 180.75 L182.0 191.6 191.3 261.15 190.85 262.55 189.8 262.85 74.4 262.85 73.6 262.65 72.9 261.2 79.4 195.85 63.1 175.95 56.75 209.25 56.4 209.9 Q57.6 215.75 57.85 221.8 58.2 229.75 56.4 237.4 L59.9 243.85 36.7 260.1 36.0 259.75 11.2 236.85 5.15 201.6 0.0 144.6 10.75 85.9 11.5 84.75 65.35 52.2 65.5 51.85 75.9 44.8 Q83.25 39.3 91.65 35.85 94.1 34.8 96.8 34.25 105.45 32.85 114.25 32.8 L109.85 26.35 121.05 1.3 144.95 0.0 145.25 0.15 145.95 1.3 155.75 26.75 151.65 32.0 173.85 34.05 228.95 66.2 241.35 73.5 252.8 80.7 M172.35 36.2 L169.2 36.05 168.7 37.2 136.25 45.65 150.65 55.9 170.3 46.95 174.75 38.0 172.35 36.2 M206.5 160.2 L192.8 177.45 Q197.45 193.75 200.4 210.8 L202.65 224.1 216.4 213.7 233.5 217.25 234.35 217.75 242.55 230.0 256.05 153.1 250.8 86.2 206.5 160.2 M176.55 81.4 L179.95 84.6 183.25 87.9 183.65 88.55 Q183.95 89.2 183.6 89.8 L131.8 133.75 133.8 259.85 188.1 259.85 179.0 191.35 179.1 190.8 179.4 190.3 Q184.8 183.6 190.0 176.5 L190.6 175.75 204.0 158.55 249.85 81.95 228.2 69.0 227.45 68.8 199.2 52.2 194.5 77.3 176.55 81.4 M162.85 68.2 L162.7 68.95 133.25 128.55 180.05 88.85 171.9 80.65 172.2 79.6 192.2 75.05 196.45 50.25 177.3 39.6 162.85 68.2 M150.35 20.35 L140.95 16.3 Q138.1 17.85 134.75 18.05 131.0 18.4 127.4 16.85 L127.25 17.4 113.5 26.95 115.45 30.0 Q124.0 20.8 136.35 20.05 144.3 19.45 152.55 24.2 L150.35 20.35 M143.65 3.1 Q133.4 7.05 122.85 3.9 L113.2 25.65 125.85 16.0 126.75 13.2 127.85 13.3 128.0 14.9 Q131.6 16.4 135.55 15.9 138.45 15.6 140.95 14.2 L150.65 19.2 144.4 5.0 140.1 7.45 143.35 7.6 144.1 9.55 143.6 10.25 136.85 9.9 135.5 9.2 135.15 8.1 143.75 3.65 143.65 3.1 M131.9 10.0 Q130.3 11.6 128.0 11.85 L123.2 11.3 122.4 10.95 123.15 9.45 122.05 8.7 122.4 7.6 Q127.1 7.6 131.8 8.85 L131.9 10.0 M141.65 30.65 L142.25 31.95 Q133.55 37.1 123.75 33.85 L123.4 33.15 123.7 32.25 Q132.95 33.95 141.65 30.65 M147.4 33.35 L152.45 26.65 Q146.3 21.8 136.4 21.95 126.45 22.1 116.45 30.4 L119.1 34.5 104.6 36.15 Q118.6 40.45 132.95 43.4 L163.1 35.8 147.55 33.8 147.4 33.35 M85.3 91.6 Q85.2 91.05 85.4 90.65 88.55 84.85 91.85 79.1 L73.9 78.25 73.65 77.85 Q71.45 73.0 70.4 67.95 L66.4 55.45 14.2 86.65 41.55 145.05 82.45 195.55 76.1 259.85 130.8 259.85 128.15 133.6 85.3 91.6 M95.85 77.5 L95.6 78.45 88.4 90.5 129.35 130.6 130.7 126.8 93.05 36.85 68.7 52.7 75.55 75.3 95.05 76.35 Q95.8 76.7 95.85 77.5 M120.05 55.9 L128.15 45.35 96.85 38.15 101.8 50.45 120.05 55.9 M150.0 59.05 L142.55 53.8 139.55 62.1 150.85 86.0 168.15 51.25 150.0 59.05 M121.05 59.05 L103.3 54.0 116.8 86.1 127.0 61.75 124.45 55.05 121.5 58.9 121.05 59.05 M136.95 63.65 L129.6 63.3 118.45 89.95 132.4 123.15 148.9 88.9 136.95 63.65 M140.0 52.05 L131.6 46.1 126.6 52.25 129.65 60.3 136.9 60.65 140.0 52.05 M3.3 143.3 L2.95 144.0 8.15 201.35 8.05 202.0 13.15 231.7 22.25 217.65 22.65 217.4 Q31.3 215.45 40.05 214.05 L41.1 214.25 55.3 225.0 54.0 211.2 54.05 210.65 54.3 210.1 53.8 208.7 60.65 172.75 60.1 172.3 39.15 146.8 12.9 90.9 3.3 143.3 M219.65 231.35 Q220.65 229.9 221.25 231.55 222.7 235.5 223.3 239.75 L223.25 240.85 Q221.5 242.35 220.7 240.2 L220.25 238.55 210.15 243.25 209.55 243.25 202.45 239.65 200.25 242.9 219.6 256.75 241.35 236.9 242.55 235.5 232.35 219.8 216.8 216.8 201.3 228.9 203.25 236.7 209.9 240.2 219.7 235.5 Q218.45 233.2 219.65 231.35 M56.45 242.9 L54.3 239.6 Q50.7 241.4 47.15 241.4 41.7 241.35 36.45 238.55 36.7 240.15 35.25 240.9 L34.4 241.35 33.45 240.85 Q33.35 240.6 33.4 240.35 33.9 235.75 34.85 231.3 L36.05 230.6 37.3 231.2 37.0 235.5 46.8 240.2 53.45 236.65 55.45 228.9 39.95 216.8 24.4 219.8 14.25 235.55 37.15 256.75 56.45 242.9" fill="#1a1a1a" fill-rule="evenodd" stroke="none"/>
      <path d="M172.35 36.2 L174.75 38.0 170.3 46.95 150.65 55.9 136.25 45.65 168.7 37.2 169.2 36.05 172.35 36.2 M120.05 55.9 L101.8 50.45 96.85 38.15 128.15 45.35 120.05 55.9 M121.05 59.05 L121.5 58.9 124.45 55.05 127.0 61.75 116.8 86.1 103.3 54.0 121.05 59.05 M150.0 59.05 L168.15 51.25 150.85 86.0 139.55 62.1 142.55 53.8 150.0 59.05" fill="#d1b8a2" fill-rule="evenodd" stroke="none"/>
      <path d="M162.85 68.2 L177.3 39.6 196.45 50.25 192.2 75.05 172.2 79.6 171.9 80.65 180.05 88.85 133.25 128.55 162.7 68.95 162.85 68.2 M176.55 81.4 L194.5 77.3 199.2 52.2 227.45 68.8 228.2 69.0 249.85 81.95 204.0 158.55 190.6 175.75 190.0 176.5 Q184.8 183.6 179.4 190.3 L179.1 190.8 179.0 191.35 188.1 259.85 133.8 259.85 131.8 133.75 183.6 89.8 Q183.95 89.2 183.65 88.55 L183.25 87.9 179.95 84.6 176.55 81.4 M206.5 160.2 L250.8 86.2 256.05 153.1 242.55 230.0 234.35 217.75 233.5 217.25 216.4 213.7 202.65 224.1 200.4 210.8 Q197.45 193.75 192.8 177.45 L206.5 160.2 M95.85 77.5 Q95.8 76.7 95.05 76.35 L75.55 75.3 68.7 52.7 93.05 36.85 130.7 126.8 129.35 130.6 88.4 90.5 95.6 78.45 95.85 77.5 M85.3 91.6 L128.15 133.6 130.8 259.85 76.1 259.85 82.45 195.55 41.55 145.05 14.2 86.65 66.4 55.45 70.4 67.95 Q71.45 73.0 73.65 77.85 L73.9 78.25 91.85 79.1 Q88.55 84.85 85.4 90.65 85.2 91.05 85.3 91.6 M3.3 143.3 L12.9 90.9 39.15 146.8 60.1 172.3 60.65 172.75 53.8 208.7 54.3 210.1 54.05 210.65 54.0 211.2 55.3 225.0 41.1 214.25 40.05 214.05 Q31.3 215.45 22.65 217.4 L22.25 217.65 13.15 231.7 8.05 202.0 8.15 201.35 2.95 144.0 3.3 143.3" fill="#591f0b" fill-rule="evenodd" stroke="none"/>
      <path d="M147.4 33.35 L147.55 33.8 163.1 35.8 132.95 43.4 Q118.6 40.45 104.6 36.15 L119.1 34.5 116.45 30.4 Q126.45 22.1 136.4 21.95 146.3 21.8 152.45 26.65 L147.4 33.35 M141.65 30.65 Q132.95 33.95 123.7 32.25 L123.4 33.15 123.75 33.85 Q133.55 37.1 142.25 31.95 L141.65 30.65 M131.9 10.0 L131.8 8.85 Q127.1 7.6 122.4 7.6 L122.05 8.7 123.15 9.45 122.4 10.95 123.2 11.3 128.0 11.85 Q130.3 11.6 131.9 10.0 M143.65 3.1 L143.75 3.65 135.15 8.1 135.5 9.2 136.85 9.9 143.6 10.25 144.1 9.55 143.35 7.6 140.1 7.45 144.4 5.0 150.65 19.2 140.95 14.2 Q138.45 15.6 135.55 15.9 131.6 16.4 128.0 14.9 L127.85 13.3 126.75 13.2 125.85 16.0 113.2 25.65 122.85 3.9 Q133.4 7.05 143.65 3.1 M150.35 20.35 L152.55 24.2 Q144.3 19.45 136.35 20.05 124.0 20.8 115.45 30.0 L113.5 26.95 127.25 17.4 127.4 16.85 Q131.0 18.4 134.75 18.05 138.1 17.85 140.95 16.3 L150.35 20.35 M56.45 242.9 L37.15 256.75 14.25 235.55 24.4 219.8 39.95 216.8 55.45 228.9 53.45 236.65 46.8 240.2 37.0 235.5 37.3 231.2 36.05 230.6 34.85 231.3 Q33.9 235.75 33.4 240.35 33.35 240.6 33.45 240.85 L34.4 241.35 35.25 240.9 Q36.7 240.15 36.45 238.55 41.7 241.35 47.15 241.4 50.7 241.4 54.3 239.6 L56.45 242.9 M219.65 231.35 Q218.45 233.2 219.7 235.5 L209.9 240.2 203.25 236.7 201.3 228.9 216.8 216.8 232.35 219.8 242.55 235.5 241.35 236.9 219.6 256.75 200.25 242.9 202.45 239.65 209.55 243.25 210.15 243.25 220.25 238.55 220.7 240.2 Q221.5 242.35 223.25 240.85 L223.3 239.75 Q222.7 235.5 221.25 231.55 220.65 229.9 219.65 231.35" fill="#e6c6b0" fill-rule="evenodd" stroke="none"/>
      <path d="M136.95 63.65 L148.9 88.9 132.4 123.15 118.45 89.95 129.6 63.3 136.95 63.65 M140.0 52.05 L136.9 60.65 129.65 60.3 126.6 52.25 131.6 46.1 140.0 52.05" fill="#331c1a" fill-rule="evenodd" stroke="none"/>
    </g>
    <g id="shape5" transform="matrix(1.0, 0.0, 0.0, 1.0, -0.15, 0.0)">
      <path d="M41.2 3.95 L41.15 4.0 41.3 4.0 44.35 3.65 45.1 3.6 49.85 3.3 50.1 7.7 50.1 10.1 49.75 10.45 47.5 10.8 45.55 11.05 44.6 11.15 36.4 11.95 33.15 17.35 Q38.35 28.65 45.4 38.9 L48.7 43.9 40.45 52.5 40.25 52.7 38.35 54.95 36.45 57.35 35.6 58.4 34.3 60.1 33.5 61.15 32.05 62.9 Q30.6 62.8 29.95 61.3 L29.3 60.4 28.2 58.8 27.65 57.95 26.25 56.0 25.6 55.0 Q21.25 48.5 15.35 43.2 L15.05 42.65 Q23.8 32.45 27.0 19.2 L27.55 17.35 24.35 12.1 15.95 11.2 14.75 11.05 12.8 10.8 11.4 10.55 Q10.85 10.45 10.8 10.0 L10.75 9.2 10.75 7.2 11.0 3.3 16.05 3.65 18.8 3.95 19.5 4.05 19.3 3.75 Q18.95 3.3 19.25 2.85 L19.5 2.5 23.6 2.4 36.5 2.4 41.35 2.85 41.2 3.95 M44.4 6.85 L42.0 9.25 42.85 9.45 Q44.45 9.3 44.6 7.7 L44.4 6.85 M41.3 8.5 L43.65 6.15 Q41.6 5.6 41.25 7.7 41.2 8.1 41.3 8.5 M41.15 9.85 Q40.25 9.15 40.1 7.7 40.25 6.15 41.3 5.45 L40.2 5.55 37.4 10.25 40.5 9.9 41.15 9.85 M43.9 5.2 Q45.4 5.8 45.6 7.7 L45.1 9.3 48.1 8.9 48.65 4.7 43.9 5.2 M41.95 38.2 L43.25 38.85 41.9 36.6 37.6 29.35 29.4 25.7 26.75 24.55 25.0 29.65 28.0 31.2 41.95 38.2 M41.95 42.6 Q41.05 43.25 41.3 44.35 L43.8 42.35 Q42.85 41.85 41.95 42.6 M44.15 45.15 L44.4 44.85 44.65 43.4 42.15 45.4 Q43.1 45.85 44.15 45.15 M39.1 48.25 L41.25 49.2 43.65 46.5 42.95 46.6 Q41.5 46.45 40.65 45.3 L40.2 43.85 40.4 42.95 26.4 36.65 22.6 35.0 19.65 39.65 20.85 40.15 22.1 39.8 23.45 40.4 25.05 42.0 39.1 48.25 M34.8 9.0 L35.5 9.6 38.0 5.3 36.5 4.05 35.25 4.1 29.2 4.25 34.8 9.0 M25.45 6.7 L22.5 4.4 22.0 4.4 Q24.5 8.6 27.15 12.45 28.0 13.7 29.3 14.6 L31.5 16.2 33.45 12.95 25.45 6.7 M20.7 6.0 L19.85 6.0 Q20.7 7.2 20.4 8.55 20.15 9.6 19.2 10.1 L23.4 10.5 20.7 6.0 M29.35 18.0 L28.25 20.0 29.85 20.75 34.35 22.7 32.2 18.0 29.35 18.0 M19.5 7.75 Q19.35 6.15 17.75 6.0 L16.95 6.25 19.3 8.6 19.5 7.75 M16.0 7.75 Q16.15 9.35 17.75 9.5 L18.6 9.3 16.25 6.95 Q16.05 7.25 16.0 7.75 M12.25 9.2 L15.8 9.7 Q14.6 8.25 15.3 6.7 L15.75 5.9 12.7 5.45 12.25 9.2 M23.25 41.2 L22.1 40.8 21.3 41.05 23.8 43.05 Q24.05 42.3 23.25 41.2 M20.35 42.55 Q20.5 44.15 22.1 44.3 L22.95 44.1 20.6 41.75 20.35 42.55 M25.05 47.75 L21.05 46.6 25.7 52.6 27.0 54.4 32.65 56.5 34.75 57.05 37.9 53.1 36.05 52.1 25.05 47.75" fill="#441c0c" fill-rule="evenodd" stroke="none"/>
      <path d="M41.3 4.0 L41.2 3.95 41.35 2.85 36.5 2.4 30.15 1.6 23.6 2.4 19.5 2.5 19.25 2.85 Q18.95 3.3 19.3 3.75 L18.8 3.95 16.05 3.65 Q20.25 1.5 25.0 0.6 L26.25 0.4 30.15 0.1 Q38.05 0.3 44.35 3.65 L41.3 4.0 M10.75 7.2 L10.75 9.2 9.9 10.0 Q1.8 18.1 1.5 30.25 1.8 42.4 9.9 50.5 17.35 57.95 28.2 58.8 L29.3 60.4 Q17.05 59.8 8.85 51.55 4.25 46.95 2.05 41.15 -2.2 29.0 3.1 17.3 5.8 11.45 10.75 7.2 M12.8 10.8 L14.75 11.05 Q8.85 15.8 6.5 23.15 3.4 33.0 8.5 42.1 13.6 51.25 23.55 53.95 L25.6 55.0 26.25 56.0 Q18.9 54.95 13.3 50.15 5.4 43.3 4.45 32.95 3.25 19.85 12.8 10.8 M34.3 60.1 L35.6 58.4 Q43.05 57.15 48.8 52.25 57.85 44.45 58.45 32.4 59.05 19.5 50.1 10.1 L50.1 7.7 51.45 8.95 Q60.0 17.45 60.3 30.25 60.0 43.05 51.45 51.55 44.35 58.7 34.3 60.1 M38.35 54.95 L40.25 52.7 Q51.55 47.35 54.05 35.2 56.15 25.1 50.65 16.55 48.6 13.3 45.55 11.05 L47.5 10.8 Q50.95 13.85 53.05 17.95 58.75 29.0 54.0 40.3 49.45 51.2 38.35 54.95" fill="#4f2713" fill-rule="evenodd" stroke="none"/>
      <path d="M41.3 4.0 L41.15 4.0 41.2 3.95 41.3 4.0 M36.5 2.4 L23.6 2.4 30.15 1.6 36.5 2.4 M19.3 3.75 L19.5 4.05 18.8 3.95 19.3 3.75 M10.75 9.2 L10.8 10.0 Q1.1 19.6 2.4 33.1 3.35 42.95 10.25 49.95 17.5 57.2 27.65 57.95 L28.2 58.8 Q17.35 57.95 9.9 50.5 1.8 42.4 1.5 30.25 1.8 18.1 9.9 10.0 L10.75 9.2 M35.6 58.4 L36.45 57.35 Q44.1 55.55 49.75 49.9 57.65 42.0 57.95 30.15 57.65 18.3 49.75 10.45 L50.1 10.1 Q59.05 19.5 58.45 32.4 57.85 44.45 48.8 52.25 43.05 57.15 35.6 58.4" fill="#a89678" fill-rule="evenodd" stroke="none"/>
      <path d="M45.1 3.6 L44.35 3.65 Q38.05 0.3 30.15 0.1 L26.25 0.4 30.75 0.0 Q38.75 0.2 45.1 3.6" fill="#724a30" fill-rule="evenodd" stroke="none"/>
      <path d="M41.3 8.5 Q41.2 8.1 41.25 7.7 41.6 5.6 43.65 6.15 L41.3 8.5 M44.4 6.85 L44.6 7.7 Q44.45 9.3 42.85 9.45 L42.0 9.25 44.4 6.85 M44.15 45.15 Q43.1 45.85 42.15 45.4 L44.65 43.4 44.4 44.85 44.15 45.15 M41.95 42.6 Q42.85 41.85 43.8 42.35 L41.3 44.35 Q41.05 43.25 41.95 42.6 M16.0 7.75 Q16.05 7.25 16.25 6.95 L18.6 9.3 17.75 9.5 Q16.15 9.35 16.0 7.75 M19.5 7.75 L19.3 8.6 16.95 6.25 17.75 6.0 Q19.35 6.15 19.5 7.75 M20.35 42.55 L20.6 41.75 22.95 44.1 22.1 44.3 Q20.5 44.15 20.35 42.55 M23.25 41.2 Q24.05 42.3 23.8 43.05 L21.3 41.05 22.1 40.8 23.25 41.2" fill="#d7cdbb" fill-rule="evenodd" stroke="none"/>
      <path d="M15.95 11.2 L24.35 12.1 27.55 17.35 27.0 19.2 Q23.8 32.45 15.05 42.65 L15.35 43.2 Q21.25 48.5 25.6 55.0 L23.55 53.95 22.3 52.95 Q17.25 51.25 13.4 47.45 6.8 40.95 6.55 30.8 6.8 20.6 13.4 13.55 14.6 12.25 15.95 11.2 M40.45 52.5 L48.7 43.9 45.4 38.9 Q38.35 28.65 33.15 17.35 L36.4 11.95 44.6 11.15 Q51.75 16.65 53.55 25.4 55.55 35.3 50.0 43.55 47.2 47.8 42.95 50.65 L40.45 52.5 M46.05 37.8 L48.6 41.5 Q50.4 39.45 51.3 36.9 52.6 33.25 52.4 29.4 51.85 18.25 43.0 11.75 L41.65 12.05 Q38.8 11.65 36.35 13.2 33.8 16.5 35.55 20.15 40.0 29.5 46.05 37.8 M14.45 42.25 Q18.5 37.2 21.35 31.55 L23.75 25.95 Q25.15 22.1 25.9 17.95 26.3 15.65 24.6 14.0 22.2 12.4 19.25 12.3 15.05 14.65 12.0 18.35 10.25 20.5 9.3 23.5 6.2 33.5 11.7 42.45 14.8 47.45 19.85 49.4 L18.65 48.0 Q17.45 46.65 15.95 45.75 13.95 44.4 14.45 42.25" fill="#a99b81" fill-rule="evenodd" stroke="none"/>
      <path d="M41.15 9.85 L40.5 9.9 37.4 10.25 40.2 5.55 41.3 5.45 Q40.25 6.15 40.1 7.7 40.25 9.15 41.15 9.85 M43.9 5.2 L48.65 4.7 48.1 8.9 45.1 9.3 45.6 7.7 Q45.4 5.8 43.9 5.2 M20.7 6.0 L23.4 10.5 19.2 10.1 Q20.15 9.6 20.4 8.55 20.7 7.2 19.85 6.0 L20.7 6.0 M12.25 9.2 L12.7 5.45 15.75 5.9 15.3 6.7 Q14.6 8.25 15.8 9.7 L12.25 9.2" fill="#b5a581" fill-rule="evenodd" stroke="none"/>
      <path d="M14.75 11.05 L15.95 11.2 Q14.6 12.25 13.4 13.55 6.8 20.6 6.55 30.8 6.8 40.95 13.4 47.45 17.25 51.25 22.3 52.95 L23.55 53.95 Q13.6 51.25 8.5 42.1 3.4 33.0 6.5 23.15 8.85 15.8 14.75 11.05 M40.25 52.7 L40.45 52.5 42.95 50.65 Q47.2 47.8 50.0 43.55 55.55 35.3 53.55 25.4 51.75 16.65 44.6 11.15 L45.55 11.05 Q48.6 13.3 50.65 16.55 56.15 25.1 54.05 35.2 51.55 47.35 40.25 52.7" fill="#887c64" fill-rule="evenodd" stroke="none"/>
      <path d="M10.8 10.0 Q10.85 10.45 11.4 10.55 L12.8 10.8 Q3.25 19.85 4.45 32.95 5.4 43.3 13.3 50.15 18.9 54.95 26.25 56.0 L27.65 57.95 Q17.5 57.2 10.25 49.95 3.35 42.95 2.4 33.1 1.1 19.6 10.8 10.0 M36.45 57.35 L38.35 54.95 Q49.45 51.2 54.0 40.3 58.75 29.0 53.05 17.95 50.95 13.85 47.5 10.8 L49.75 10.45 Q57.65 18.3 57.95 30.15 57.65 42.0 49.75 49.9 44.1 55.55 36.45 57.35" fill="#f0e6ca" fill-rule="evenodd" stroke="none"/>
      <path d="M36.35 13.2 Q38.8 11.65 41.65 12.05 L43.0 11.75 Q51.85 18.25 52.4 29.4 52.6 33.25 51.3 36.9 50.4 39.45 48.6 41.5 L46.05 37.8 Q50.35 29.45 46.7 20.6 43.8 13.75 36.35 13.2 M24.6 14.0 Q16.75 16.25 12.2 23.4 8.65 29.55 11.25 36.2 12.4 39.5 14.45 42.25 13.95 44.4 15.95 45.75 17.45 46.65 18.65 48.0 L19.85 49.4 Q14.8 47.45 11.7 42.45 6.2 33.5 9.3 23.5 10.25 20.5 12.0 18.35 15.05 14.65 19.25 12.3 22.2 12.4 24.6 14.0" fill="#c4b696" fill-rule="evenodd" stroke="none"/>
      <path d="M46.05 37.8 Q40.0 29.5 35.55 20.15 33.8 16.5 36.35 13.2 43.8 13.75 46.7 20.6 50.35 29.45 46.05 37.8 M24.6 14.0 Q26.3 15.65 25.9 17.95 25.15 22.1 23.75 25.95 L21.35 31.55 Q18.5 37.2 14.45 42.25 12.4 39.5 11.25 36.2 8.65 29.55 12.2 23.4 16.75 16.25 24.6 14.0" fill="#d8ceba" fill-rule="evenodd" stroke="none"/>
      <path d="M41.9 36.6 L43.25 38.85 41.95 38.2 41.9 36.6 M28.0 31.2 L25.0 29.65 26.75 24.55 29.4 25.7 28.0 31.2 M40.65 45.3 Q41.5 46.45 42.95 46.6 L43.65 46.5 41.25 49.2 39.1 48.25 40.65 45.3 M25.05 42.0 L23.45 40.4 22.1 39.8 20.85 40.15 19.65 39.65 22.6 35.0 26.4 36.65 25.05 42.0 M35.25 4.1 L36.5 4.05 38.0 5.3 35.5 9.6 34.8 9.0 35.25 4.1 M29.3 14.6 Q28.0 13.7 27.15 12.45 24.5 8.6 22.0 4.4 L22.5 4.4 25.45 6.7 26.55 8.3 Q28.7 11.05 29.3 14.6 M29.85 20.75 L28.25 20.0 29.35 18.0 29.85 20.75 M25.7 52.6 L21.05 46.6 25.05 47.75 25.7 52.6 M36.05 52.1 L37.9 53.1 34.75 57.05 32.65 56.5 36.05 52.1" fill="#af9f81" fill-rule="evenodd" stroke="none"/>
      <path d="M41.9 36.6 L41.95 38.2 28.0 31.2 29.4 25.7 37.6 29.35 41.9 36.6 M40.65 45.3 L39.1 48.25 25.05 42.0 26.4 36.65 40.4 42.95 40.2 43.85 40.65 45.3 M35.25 4.1 L34.8 9.0 29.2 4.25 35.25 4.1 M29.3 14.6 Q28.7 11.05 26.55 8.3 L25.45 6.7 33.45 12.95 31.5 16.2 29.3 14.6 M29.85 20.75 L29.35 18.0 32.2 18.0 34.35 22.7 29.85 20.75 M25.7 52.6 L25.05 47.75 36.05 52.1 32.65 56.5 27.0 54.4 25.7 52.6" fill="#c4b898" fill-rule="evenodd" stroke="none"/>
    </g>
  </defs>
</svg>
