<?xml version="1.0" encoding="UTF-8" standalone="no"?>
<svg xmlns:xlink="http://www.w3.org/1999/xlink" height="454.95px" width="385.95px" xmlns="http://www.w3.org/2000/svg">
  <g transform="matrix(1.0, 0.0, 0.0, 1.0, 193.15, 454.95)">
    <use height="36.0" transform="matrix(1.0, 0.0, 0.0, 1.0, -79.5, -36.0)" width="159.0" xlink:href="#shape0"/>
    <use height="96.65" transform="matrix(1.0, 0.0, 0.0, 1.0, -27.1, -108.0)" width="54.2" xlink:href="#shape1"/>
    <use height="37.0" transform="matrix(1.0, 0.0, 0.0, 1.0, -92.6, -94.35)" width="185.25" xlink:href="#shape2"/>
    <use height="17.55" transform="matrix(1.0, 0.0, 0.0, 1.0, -81.7, -81.6)" width="165.0" xlink:href="#text0"/>
    <use height="324.6" transform="matrix(1.0, 0.0, 0.0, 1.0, -193.15, -422.1)" width="385.95" xlink:href="#shape3"/>
    <use height="268.25" transform="matrix(1.0627, 0.0, 0.0, 1.1456, -174.0, -408.4)" width="334.9" xlink:href="#shape4"/>
    <use height="62.9" transform="matrix(1.0, 0.0, 0.0, 1.0, -27.35, -231.05)" width="60.15" xlink:href="#shape5"/>
  </g>
  <defs>
    <g id="shape0" transform="matrix(1.0, 0.0, 0.0, 1.0, 0.0, 0.0)">
      <path d="M135.7 30.75 Q113.3 35.8 79.5 36.0 45.7 35.8 23.3 30.75 0.85 25.65 0.0 18.0 0.85 10.35 23.3 5.25 45.7 0.2 79.5 0.0 113.3 0.2 135.7 5.25 158.15 10.35 159.0 18.0 158.15 25.65 135.7 30.75" fill="#000000" fill-opacity="0.39607844" fill-rule="evenodd" stroke="none"/>
    </g>
    <g id="shape1" transform="matrix(1.0, 0.0, 0.0, 1.0, 0.0, 0.0)">
      <path d="M5.85 93.35 Q-0.15 90.4 0.0 90.0 L0.0 0.0 54.2 0.0 54.2 90.0 Q54.15 90.4 46.95 93.35 39.7 96.25 25.65 96.65 11.8 96.25 5.85 93.35" fill="url(#gradient0)" fill-rule="evenodd" stroke="none"/>
    </g>
    <linearGradient gradientTransform="matrix(0.0303, 0.0, 0.0, 0.0303, 25.7, 48.35)" gradientUnits="userSpaceOnUse" id="gradient0" spreadMethod="pad" x1="-819.2" x2="819.2">
      <stop offset="0.0" stop-color="#565656"/>
      <stop offset="0.403921568627451" stop-color="#9a9999"/>
      <stop offset="0.592156862745098" stop-color="#dbdbda"/>
      <stop offset="0.7803921568627451" stop-color="#9b9a9a"/>
      <stop offset="1.0" stop-color="#151213"/>
    </linearGradient>
    <g id="shape2" transform="matrix(1.0, 0.0, 0.0, 1.0, -0.05, 0.0)">
      <path d="M185.25 8.2 L185.3 8.25 185.25 8.25 185.25 8.2 M1.9 5.2 L2.3 2.85 18.75 2.05 59.05 0.7 Q83.4 0.05 109.4 0.3 115.1 0.55 118.85 1.6 122.65 2.7 128.15 3.0 L129.3 1.5 Q130.05 0.2 130.5 0.0 160.7 0.5 181.5 3.85 L183.45 6.1 103.3 3.5 Q60.0 3.6 6.5 5.1 L1.9 5.2 M176.25 8.0 L176.45 8.4 177.65 11.45 178.5 13.65 Q179.3 12.8 179.7 10.9 179.7 9.8 179.25 9.1 L179.9 9.55 Q180.65 10.3 180.7 11.75 179.85 15.7 177.15 15.05 175.8 14.75 175.1 13.85 L176.15 14.2 177.35 14.25 176.45 12.35 174.9 8.8 174.8 8.5 174.95 8.35 Q175.75 7.8 176.25 8.0 M178.25 27.3 L179.85 27.15 Q180.5 27.3 181.25 27.95 183.6 31.2 181.35 32.8 180.2 33.6 179.1 33.5 L180.8 32.15 178.8 31.55 175.1 30.4 175.2 29.1 175.2 29.0 175.25 28.7 175.4 28.75 175.85 28.9 178.95 30.05 181.1 30.85 Q181.0 29.65 179.9 28.15 179.05 27.45 178.25 27.3 M9.35 6.95 L10.7 10.45 11.7 12.9 Q12.6 11.95 13.05 9.85 13.05 8.55 12.5 7.75 13.85 8.35 14.15 10.05 L13.75 12.35 Q12.6 15.1 10.15 14.55 8.75 14.25 8.0 13.4 L7.85 13.2 9.0 13.6 10.35 13.65 9.35 11.4 7.6 7.45 8.75 6.6 9.2 6.55 9.35 6.95 M9.4 25.3 Q11.0 24.35 12.9 25.8 15.0 28.35 14.35 30.1 L13.4 31.3 Q12.2 32.25 10.95 32.25 L12.75 30.6 10.4 30.05 6.2 29.05 6.15 27.55 6.15 27.1 6.35 27.15 6.9 27.35 10.45 28.4 12.95 29.1 Q12.75 27.8 11.35 26.15 10.35 25.35 9.4 25.3" fill="#47525f" fill-rule="evenodd" stroke="none"/>
      <path d="M0.05 36.7 L0.75 22.9 Q1.05 14.95 1.6 7.0 L1.9 5.2 6.5 5.1 3.2 8.3 1.95 36.45 0.05 36.7" fill="#cdcdcd" fill-rule="evenodd" stroke="none"/>
      <path d="M13.75 12.35 L14.15 10.05 26.45 10.0 13.75 12.35 M8.0 13.4 L7.0 13.55 7.2 26.2 6.35 27.15 6.15 27.1 6.15 27.55 Q5.15 29.5 6.75 31.55 8.95 33.2 10.95 32.25 12.2 32.25 13.4 31.3 L14.35 30.1 16.45 30.2 36.65 31.3 56.5 32.6 Q50.4 32.9 38.0 32.9 L15.1 32.75 3.85 32.6 5.25 10.05 6.0 10.05 Q6.15 12.3 7.85 13.2 L8.0 13.4" fill="#848484" fill-rule="evenodd" stroke="none"/>
      <path d="M175.1 13.85 Q175.8 14.75 177.15 15.05 179.85 15.7 180.7 11.75 180.65 10.3 179.9 9.55 L180.85 9.65 179.85 27.15 178.25 27.3 177.7 27.3 177.8 15.2 160.95 13.3 Q144.35 11.4 115.0 6.95 144.55 7.2 162.45 8.35 L174.1 9.15 Q173.65 9.7 173.4 10.6 173.45 12.95 175.1 13.85 M175.3 32.3 L137.05 30.55 175.2 29.0 175.2 29.1 Q174.3 30.55 175.3 32.3" fill="#a09fa0" fill-rule="evenodd" stroke="none"/>
      <path d="M176.45 8.4 L176.25 8.0 176.9 7.95 Q178.55 8.05 179.25 9.1 179.7 9.8 179.7 10.9 179.3 12.8 178.5 13.65 L177.65 11.45 178.05 10.25 Q178.0 8.55 176.45 8.4 M174.8 8.5 L174.9 8.8 Q174.35 9.2 174.15 10.05 174.2 11.9 175.85 12.3 L176.45 12.35 177.35 14.25 176.15 14.2 175.1 13.85 Q173.45 12.95 173.4 10.6 173.65 9.7 174.1 9.15 L174.8 8.5 M177.7 27.3 L178.25 27.3 Q179.05 27.45 179.9 28.15 181.0 29.65 181.1 30.85 L178.95 30.05 178.3 28.9 Q177.0 27.8 175.85 28.9 L175.4 28.75 175.8 28.3 Q176.7 27.35 177.7 27.3 M179.1 33.5 Q177.3 34.2 175.5 32.65 L175.3 32.3 Q174.3 30.55 175.2 29.1 L175.1 30.4 Q175.25 32.1 176.95 32.35 178.0 32.25 178.8 31.55 L180.8 32.15 179.1 33.5 M10.7 10.45 L11.2 9.05 Q11.15 7.15 9.35 6.95 L9.2 6.55 9.9 6.5 Q11.75 6.6 12.5 7.75 13.05 8.55 13.05 9.85 12.6 11.95 11.7 12.9 L10.7 10.45 M7.2 26.2 Q8.2 25.2 9.4 25.3 10.35 25.35 11.35 26.15 12.75 27.8 12.95 29.1 L10.45 28.4 Q9.75 26.65 8.05 26.6 L6.9 27.35 6.35 27.15 7.2 26.2 M6.0 10.05 L5.95 9.55 Q6.6 7.0 8.75 6.6 L7.6 7.45 Q7.0 7.9 6.75 8.85 6.8 10.95 8.7 11.35 L9.35 11.4 10.35 13.65 9.0 13.6 7.85 13.2 Q6.15 12.3 6.0 10.05 M6.15 27.55 L6.2 29.05 Q6.45 30.9 8.2 31.1 9.7 31.2 10.4 30.05 L12.75 30.6 10.95 32.25 Q8.95 33.2 6.75 31.55 5.15 29.5 6.15 27.55" fill="#9c9c9c" fill-rule="evenodd" stroke="none"/>
      <path d="M174.9 8.8 L176.45 12.35 175.85 12.3 Q174.2 11.9 174.15 10.05 174.35 9.2 174.9 8.8 M177.65 11.45 L176.45 8.4 Q178.0 8.55 178.05 10.25 L177.65 11.45 M175.85 28.9 Q177.0 27.8 178.3 28.9 L178.95 30.05 175.85 28.9 M175.1 30.4 L178.8 31.55 Q178.0 32.25 176.95 32.35 175.25 32.1 175.1 30.4 M9.35 6.95 Q11.15 7.15 11.2 9.05 L10.7 10.45 9.35 6.95 M9.35 11.4 L8.7 11.35 Q6.8 10.95 6.75 8.85 7.0 7.9 7.6 7.45 L9.35 11.4 M10.45 28.4 L6.9 27.35 8.05 26.6 Q9.75 26.65 10.45 28.4 M6.2 29.05 L10.4 30.05 Q9.7 31.2 8.2 31.1 6.45 30.9 6.2 29.05" fill="#d5d4d4" fill-rule="evenodd" stroke="none"/>
      <path d="M183.45 6.1 L185.3 6.25 185.25 8.2 185.25 8.25 185.1 13.45 184.65 27.3 184.3 36.25 Q157.35 34.75 133.85 35.55 L89.2 37.0 Q65.15 37.15 43.55 35.85 22.0 34.5 0.05 36.75 L0.05 36.7 1.95 36.45 3.2 8.3 6.5 5.1 Q60.0 3.6 103.3 3.5 L183.45 6.1 M176.25 8.0 Q175.75 7.8 174.95 8.35 L174.8 8.5 174.1 9.15 162.45 8.35 Q144.55 7.2 115.0 6.95 144.35 11.4 160.95 13.3 L177.8 15.2 177.7 27.3 Q176.7 27.35 175.8 28.3 L175.4 28.75 175.25 28.7 175.2 29.0 137.05 30.55 175.3 32.3 175.5 32.65 Q177.3 34.2 179.1 33.5 180.2 33.6 181.35 32.8 183.6 31.2 181.25 27.95 180.5 27.3 179.85 27.15 L180.85 9.65 179.9 9.55 179.25 9.1 Q178.55 8.05 176.9 7.95 L176.25 8.0 M12.5 7.75 Q11.75 6.6 9.9 6.5 L9.2 6.55 8.75 6.6 Q6.6 7.0 5.95 9.55 L6.0 10.05 5.25 10.05 3.85 32.6 15.1 32.75 38.0 32.9 Q50.4 32.9 56.5 32.6 L36.65 31.3 16.45 30.2 14.35 30.1 Q15.0 28.35 12.9 25.8 11.0 24.35 9.4 25.3 8.2 25.2 7.2 26.2 L7.0 13.55 8.0 13.4 Q8.75 14.25 10.15 14.55 12.6 15.1 13.75 12.35 L26.45 10.0 14.15 10.05 Q13.85 8.35 12.5 7.75" fill="url(#gradient1)" fill-rule="evenodd" stroke="none"/>
    </g>
    <linearGradient gradientTransform="matrix(0.1131, 0.0, 0.0, 0.0204, 92.65, 20.25)" gradientUnits="userSpaceOnUse" id="gradient1" spreadMethod="pad" x1="-819.2" x2="819.2">
      <stop offset="0.0" stop-color="#9a9a9a"/>
      <stop offset="1.0" stop-color="#ffffff"/>
    </linearGradient>
    <g id="text0" transform="matrix(1.0, 0.0, 0.0, 1.0, 12.05, -5.7)">
      <g transform="matrix(1.0, 0.0, 0.0, 1.0, -13.05, 0.0)">
        <use fill="#000000" height="17.55" transform="matrix(0.4746, 0.0, 0.0, 0.4746, 0.0, 21.0)" width="165.0" xlink:href="#font_______W7_C0"/>
        <use fill="#000000" height="17.55" transform="matrix(0.4746, 0.0, 0.0, 0.4746, 14.15, 21.0)" width="165.0" xlink:href="#font_______W7_o0"/>
        <use fill="#000000" height="17.55" transform="matrix(0.4746, 0.0, 0.0, 0.4746, 25.05, 21.0)" width="165.0" xlink:href="#font_______W7_r0"/>
        <use fill="#000000" height="17.55" transform="matrix(0.4746, 0.0, 0.0, 0.4746, 31.95, 21.0)" width="165.0" xlink:href="#font_______W7_p0"/>
        <use fill="#000000" height="17.55" transform="matrix(0.4746, 0.0, 0.0, 0.4746, 43.8, 21.0)" width="165.0" xlink:href="#font_______W7_o0"/>
        <use fill="#000000" height="17.55" transform="matrix(0.4746, 0.0, 0.0, 0.4746, 54.65, 21.0)" width="165.0" xlink:href="#font_______W7_r0"/>
        <use fill="#000000" height="17.55" transform="matrix(0.4746, 0.0, 0.0, 0.4746, 61.55, 21.0)" width="165.0" xlink:href="#font_______W7_a0"/>
        <use fill="#000000" height="17.55" transform="matrix(0.4746, 0.0, 0.0, 0.4746, 73.35, 21.0)" width="165.0" xlink:href="#font_______W7_t0"/>
        <use fill="#000000" height="17.55" transform="matrix(0.4746, 0.0, 0.0, 0.4746, 82.7, 21.0)" width="165.0" xlink:href="#font_______W7_e0"/>
        <use fill="#000000" height="17.55" transform="matrix(0.4746, 0.0, 0.0, 0.4746, 100.1, 21.0)" width="165.0" xlink:href="#font_______W7_R0"/>
        <use fill="#000000" height="17.55" transform="matrix(0.4746, 0.0, 0.0, 0.4746, 115.3, 21.0)" width="165.0" xlink:href="#font_______W7_a0"/>
        <use fill="#000000" height="17.55" transform="matrix(0.4746, 0.0, 0.0, 0.4746, 127.1, 21.0)" width="165.0" xlink:href="#font_______W7_i0"/>
        <use fill="#000000" height="17.55" transform="matrix(0.4746, 0.0, 0.0, 0.4746, 133.9, 21.0)" width="165.0" xlink:href="#font_______W7_d0"/>
        <use fill="#000000" height="17.55" transform="matrix(0.4746, 0.0, 0.0, 0.4746, 145.8, 21.0)" width="165.0" xlink:href="#font_______W7_e0"/>
        <use fill="#000000" height="17.55" transform="matrix(0.4746, 0.0, 0.0, 0.4746, 157.25, 21.0)" width="165.0" xlink:href="#font_______W7_r0"/>
      </g>
    </g>
    <g id="font_______W7_C0">
      <path d="M26.2 -15.4 L26.2 -15.4 Q21.6 -8.3 16.1 -8.3 12.35 -8.3 10.4 -10.7 8.6 -12.9 8.6 -16.75 8.6 -21.2 11.05 -23.95 13.55 -26.6 17.95 -26.6 23.65 -26.6 27.3 -22.25 L31.1 -26.05 Q28.65 -28.9 25.1 -30.55 21.55 -32.15 17.8 -32.15 10.8 -32.15 6.45 -27.4 2.05 -22.7 2.05 -15.6 2.05 -8.95 6.35 -4.45 10.7 0.05 17.3 0.05 25.6 0.05 32.65 -7.35 L26.2 -15.4" fill-rule="evenodd" stroke="none"/>
    </g>
    <g id="font_______W7_o0">
      <path d="M15.8 -13.5 L15.8 -13.5 Q16.45 -11.85 16.45 -10.4 16.45 -6.85 12.35 -6.85 10.6 -6.85 9.35 -8.05 8.15 -9.35 8.15 -11.05 8.15 -13.25 9.8 -14.6 11.4 -16.0 13.7 -16.0 16.1 -16.0 18.3 -14.3 L15.8 -13.5 M25.7 -11.4 L25.7 -11.4 Q25.7 -13.8 24.75 -16.35 L21.25 -15.25 22.7 -17.2 Q18.35 -21.45 13.15 -21.45 8.45 -21.45 5.1 -18.2 1.8 -14.95 1.8 -10.3 1.8 -5.5 5.4 -2.65 8.65 0.05 13.65 0.05 18.75 0.05 22.2 -3.2 25.7 -6.4 25.7 -11.4" fill-rule="evenodd" stroke="none"/>
    </g>
    <g id="font_______W7_r0">
      <path d="M18.3 -20.6 L18.3 -20.6 Q16.55 -21.45 14.75 -21.45 11.5 -21.45 8.7 -18.65 L8.45 -20.75 4.45 -21.45 2.55 0.05 10.65 -1.4 9.3 -12.8 Q10.55 -14.85 12.3 -14.85 13.25 -14.85 14.55 -13.85 L16.55 -12.05 18.3 -20.6" fill-rule="evenodd" stroke="none"/>
    </g>
    <g id="font_______W7_p0">
      <path d="M20.7 -12.7 L20.7 -12.7 Q20.7 -9.3 17.35 -9.3 14.95 -9.3 12.7 -12.0 L10.6 -8.4 10.05 -13.4 Q12.6 -16.55 16.2 -16.55 18.05 -16.55 19.35 -15.55 20.7 -14.5 20.7 -12.7 M27.8 -10.85 L27.8 -10.85 Q27.8 -15.55 24.6 -18.5 21.4 -21.45 16.7 -21.45 12.55 -21.45 9.35 -19.15 L9.2 -20.75 4.35 -21.45 2.05 4.75 11.95 3.3 11.35 -1.45 Q14.35 0.05 17.2 0.05 21.85 0.05 24.85 -3.05 27.8 -6.15 27.8 -10.85" fill-rule="evenodd" stroke="none"/>
    </g>
    <g id="font_______W7_a0">
      <path d="M19.05 -8.85 L19.05 -8.85 18.5 -5.05 17.1 -9.0 Q14.35 -6.2 10.6 -6.2 9.95 -6.2 9.45 -6.75 9.0 -7.2 9.0 -7.85 9.0 -10.2 13.7 -10.2 15.9 -10.2 19.05 -8.85 M27.4 -6.8 L27.4 -6.8 Q27.4 -21.45 13.35 -21.45 7.15 -21.45 2.55 -18.35 L4.3 -14.35 Q8.3 -16.55 13.15 -16.55 17.85 -16.55 18.85 -13.35 15.4 -14.5 12.8 -14.5 8.6 -14.5 5.6 -12.8 1.8 -10.75 1.8 -6.95 1.8 -3.5 4.9 -1.55 7.55 0.05 11.15 0.05 13.95 0.05 17.35 -0.95 L17.0 0.15 26.7 -0.3 Q27.4 -3.45 27.4 -6.8" fill-rule="evenodd" stroke="none"/>
    </g>
    <g id="font_______W7_t0">
      <path d="M18.7 -12.2 L18.7 -12.2 Q17.0 -9.35 14.9 -9.35 11.95 -9.35 11.95 -15.4 L21.65 -15.4 20.1 -22.55 12.4 -21.45 Q12.75 -24.2 13.6 -27.95 L8.95 -28.85 Q7.75 -24.65 7.1 -20.75 L0.75 -19.9 1.75 -15.4 6.55 -15.4 6.5 -12.55 Q6.5 -6.8 7.75 -4.05 9.5 0.05 14.55 0.05 19.1 0.05 23.25 -4.15 L18.7 -12.2" fill-rule="evenodd" stroke="none"/>
    </g>
    <g id="font_______W7_e0">
      <path d="M19.45 -9.9 L19.45 -9.9 Q16.75 -7.55 13.6 -7.55 10.45 -7.55 9.15 -9.9 L19.45 -9.9 M9.0 -13.4 L9.0 -13.4 Q9.7 -14.95 11.5 -15.95 13.2 -16.8 15.1 -16.8 18.05 -16.8 19.65 -14.35 L9.0 -13.4 M23.25 -9.9 L23.25 -9.9 24.3 -9.9 26.7 -12.6 Q25.85 -16.7 22.9 -19.1 19.9 -21.45 15.15 -21.45 9.65 -21.45 5.9 -18.65 1.8 -15.6 1.8 -10.4 1.8 -5.35 5.8 -2.5 9.3 0.05 14.6 0.05 22.45 0.05 27.15 -4.25 L23.25 -9.9" fill-rule="evenodd" stroke="none"/>
    </g>
    <g id="font_______W7_R0">
      <path d="M25.55 -21.75 L25.55 -21.75 Q25.55 -19.95 24.25 -18.8 23.0 -17.7 21.2 -17.7 17.15 -17.7 13.5 -20.8 L11.65 -16.3 10.9 -24.1 Q15.35 -26.5 19.05 -26.5 21.5 -26.5 23.35 -25.35 25.55 -24.05 25.55 -21.75 M28.0 -11.75 L28.0 -11.75 Q32.55 -14.8 32.55 -20.5 32.55 -26.0 28.75 -28.9 25.35 -31.55 19.75 -31.55 15.45 -31.55 10.4 -29.45 L10.2 -31.45 5.3 -32.15 2.55 0.05 13.15 -1.1 12.2 -11.0 Q15.85 -9.4 19.4 -9.4 L21.5 -9.5 26.7 0.2 34.7 -6.1 28.0 -11.75" fill-rule="evenodd" stroke="none"/>
    </g>
    <g id="font_______W7_i0">
      <path d="M11.6 -20.75 L11.6 -20.75 6.75 -21.45 4.45 0.05 14.3 -1.4 11.6 -20.75 M11.9 -31.5 L11.9 -31.5 6.5 -32.15 4.9 -24.95 13.2 -26.1 11.9 -31.5" fill-rule="evenodd" stroke="none"/>
    </g>
    <g id="font_______W7_d0">
      <path d="M18.35 -8.95 L18.35 -8.95 16.8 -11.9 Q14.75 -9.45 12.45 -9.45 10.9 -9.45 10.0 -10.4 9.1 -11.4 9.1 -12.95 9.1 -14.5 10.7 -15.6 12.15 -16.5 13.7 -16.5 16.6 -16.5 18.8 -14.55 L18.35 -8.95 M24.9 -31.55 L24.9 -31.55 20.15 -32.2 19.15 -19.55 Q16.05 -21.45 12.65 -21.45 8.15 -21.45 4.95 -18.25 1.8 -15.0 1.8 -10.5 1.8 -6.05 4.6 -3.05 7.4 0.05 11.85 0.05 14.65 0.05 17.7 -1.5 L17.6 0.0 27.65 -1.45 24.9 -31.55" fill-rule="evenodd" stroke="none"/>
    </g>
    <g id="shape3" transform="matrix(1.0, 0.0, 0.0, 1.0, 11.55, 40.9)">
      <path d="M367.5 183.85 L368.4 183.4 366.05 137.3 302.35 39.8 283.25 35.35 246.35 25.7 217.25 -33.95 154.45 -31.7 123.35 25.7 76.9 40.0 20.95 108.1 19.0 113.05 -7.1 178.35 -5.6 262.2 20.8 281.4 161.25 281.4 351.3 281.4 371.5 242.4 368.45 183.4 Q368.0 183.65 367.5 183.85 M362.7 201.5 Q363.65 204.8 361.05 207.45 359.8 208.7 357.95 208.15 354.15 207.05 354.45 202.6 L355.05 204.35 355.7 205.15 Q356.9 206.35 358.5 206.3 362.6 205.9 362.7 201.5 M354.8 283.7 L19.0 283.7 -11.55 265.75 -10.6 178.0 15.8 104.65 75.45 35.2 119.4 20.2 151.4 -37.45 219.35 -40.9 250.5 20.05 306.7 36.75 371.95 135.1 374.4 243.95 354.8 283.7 M251.5 33.9 Q252.45 37.55 249.75 40.0 L248.35 40.8 Q243.0 40.7 243.2 35.0 L243.85 36.75 244.5 37.55 Q245.7 38.55 247.3 38.7 251.35 38.3 251.5 33.9 M303.1 56.55 Q303.65 60.1 301.55 62.65 298.15 67.05 293.5 64.45 L293.45 62.2 Q294.9 63.1 296.75 63.15 302.55 62.6 303.1 56.55 M299.9 50.8 L299.9 53.15 291.4 62.75 291.4 60.3 291.45 60.3 299.9 50.8 M36.15 96.6 L36.8 98.4 37.45 99.2 Q38.65 100.35 40.25 100.35 44.4 99.95 44.45 95.55 45.1 98.85 43.1 101.15 41.85 102.7 40.0 102.3 36.05 101.25 36.15 96.6 M11.95 239.8 L11.95 242.15 3.45 251.8 3.45 249.35 3.5 249.35 11.95 239.8 M15.1 245.55 Q15.85 250.2 12.5 252.95 9.1 255.65 5.5 253.45 L5.45 251.2 Q6.95 252.15 8.75 252.2 14.6 251.6 15.1 245.55" fill="#47525f" fill-rule="evenodd" stroke="none"/>
      <path d="M283.25 35.35 L302.35 39.8 366.05 137.3 368.4 183.4 367.5 183.85 161.25 281.4 20.8 281.4 -5.6 262.2 -7.1 178.35 19.0 113.05 18.7 113.8 19.15 113.7 283.25 35.35 M303.1 56.55 Q303.25 54.2 301.9 52.65 302.35 55.25 301.25 57.75 L300.15 59.55 Q297.5 62.65 293.45 62.2 L300.75 53.9 299.9 53.15 299.9 50.8 299.55 50.5 299.3 50.65 Q297.35 48.9 294.2 50.65 290.7 52.45 290.15 56.6 L290.15 59.3 Q289.9 60.15 291.4 62.75 L293.5 64.45 Q298.15 67.05 301.55 62.65 303.65 60.1 303.1 56.55 M291.15 58.8 L291.15 58.75 291.2 58.6 291.15 58.8 M291.4 60.25 L291.45 60.3 291.4 60.3 291.4 60.25 M11.2 239.65 L11.35 239.6 Q4.0 237.3 2.15 245.6 L2.15 248.3 Q1.95 249.15 3.45 251.8 L5.5 253.45 Q9.1 255.65 12.5 252.95 15.85 250.2 15.1 245.55 15.35 243.3 13.9 241.65 14.45 244.4 13.25 246.75 10.75 251.8 5.45 251.2 L12.8 242.9 11.95 242.15 11.95 239.8 11.55 239.55 11.2 239.65 M3.15 247.8 L3.2 247.6 3.15 247.85 3.15 247.8 M3.45 249.25 L3.5 249.35 3.45 249.35 3.45 249.25" fill="#bab9ba" fill-rule="evenodd" stroke="none"/>
      <path d="M367.5 183.85 Q368.0 183.65 368.45 183.4 L371.5 242.4 351.3 281.4 161.25 281.4 367.5 183.85 M19.0 113.05 L20.95 108.1 76.9 40.0 123.35 25.7 154.45 -31.7 217.25 -33.95 246.35 25.7 283.25 35.35 19.15 113.7 19.0 113.05 M360.55 198.1 L357.75 198.0 Q354.3 198.8 354.45 202.6 354.15 207.05 357.95 208.15 359.8 208.7 361.05 207.45 363.65 204.8 362.7 201.5 362.6 200.3 361.85 199.3 L360.55 198.1 M250.65 31.75 Q250.1 31.0 249.35 30.55 247.95 29.7 246.45 30.05 243.1 31.2 243.2 35.0 243.0 40.7 248.35 40.8 L249.75 40.0 Q252.45 37.55 251.5 33.9 251.4 32.7 250.65 31.75 M42.25 92.15 L41.35 91.8 Q36.5 91.3 36.15 96.6 36.05 101.25 40.0 102.3 41.85 102.7 43.1 101.15 45.1 98.85 44.45 95.55 44.35 94.35 43.6 93.35 L42.25 92.15" fill="#9c9c9c" fill-rule="evenodd" stroke="none"/>
      <path d="M293.5 64.45 L291.4 62.75 299.9 53.15 300.75 53.9 293.45 62.2 293.5 64.45 M11.95 242.15 L12.8 242.9 5.45 251.2 5.5 253.45 3.45 251.8 11.95 242.15" fill="#57565b" fill-rule="evenodd" stroke="none"/>
      <path d="M291.4 62.75 Q289.9 60.15 290.15 59.3 L290.15 56.6 Q290.25 58.25 291.05 59.75 L291.15 58.75 291.15 58.8 291.1 59.75 291.4 60.25 291.4 60.3 291.4 62.75 M3.45 251.8 Q1.95 249.15 2.15 248.3 L2.15 245.6 Q2.25 247.25 3.05 248.75 L3.15 247.8 3.15 247.85 3.1 248.75 3.45 249.25 3.45 249.35 3.45 251.8" fill="#79818b" fill-rule="evenodd" stroke="none"/>
      <path d="M360.55 198.1 L361.85 199.3 Q361.85 204.75 356.75 205.3 L355.7 205.15 355.05 204.35 Q355.05 201.8 356.65 199.95 358.25 198.1 360.55 198.1 M249.35 30.55 Q250.1 31.0 250.65 31.75 250.75 37.15 245.55 37.75 L244.5 37.55 243.85 36.75 Q243.85 34.2 245.45 32.35 247.05 30.55 249.35 30.55 M299.3 50.65 L299.55 50.5 299.9 50.8 291.45 60.3 291.4 60.25 291.1 59.75 291.15 58.8 291.2 58.6 291.7 57.4 Q294.3 52.45 299.3 50.65 M36.8 98.4 Q36.8 95.8 38.4 94.0 40.0 92.15 42.25 92.15 L43.6 93.35 Q43.65 95.1 42.95 96.4 41.05 99.75 37.45 99.2 L36.8 98.4 M11.2 239.65 L11.55 239.55 11.95 239.8 3.5 249.35 3.45 249.25 3.1 248.75 3.15 247.85 3.2 247.6 3.8 246.4 Q6.25 241.4 11.2 239.65" fill="#d0cfd0" fill-rule="evenodd" stroke="none"/>
      <path d="M354.45 202.6 Q354.3 198.8 357.75 198.0 L360.55 198.1 Q358.25 198.1 356.65 199.95 355.05 201.8 355.05 204.35 L354.45 202.6 M243.2 35.0 Q243.1 31.2 246.45 30.05 247.95 29.7 249.35 30.55 247.05 30.55 245.45 32.35 243.85 34.2 243.85 36.75 L243.2 35.0 M290.15 56.6 Q290.7 52.45 294.2 50.65 297.35 48.9 299.3 50.65 294.3 52.45 291.7 57.4 L291.2 58.6 291.15 58.75 291.05 59.75 Q290.25 58.25 290.15 56.6 M36.15 96.6 Q36.5 91.3 41.35 91.8 L42.25 92.15 Q40.0 92.15 38.4 94.0 36.8 95.8 36.8 98.4 L36.15 96.6 M2.15 245.6 Q4.0 237.3 11.35 239.6 L11.2 239.65 Q6.25 241.4 3.8 246.4 L3.2 247.6 3.15 247.8 3.05 248.75 Q2.25 247.25 2.15 245.6" fill="#e9e9eb" fill-rule="evenodd" stroke="none"/>
      <path d="M361.85 199.3 Q362.6 200.3 362.7 201.5 362.6 205.9 358.5 206.3 356.9 206.35 355.7 205.15 L356.75 205.3 Q361.85 204.75 361.85 199.3 M250.65 31.75 Q251.4 32.7 251.5 33.9 251.35 38.3 247.3 38.7 245.7 38.55 244.5 37.55 L245.55 37.75 Q250.75 37.15 250.65 31.75 M293.45 62.2 Q297.5 62.65 300.15 59.55 L301.25 57.75 Q302.35 55.25 301.9 52.65 303.25 54.2 303.1 56.55 302.55 62.6 296.75 63.15 294.9 63.1 293.45 62.2 M43.6 93.35 Q44.35 94.35 44.45 95.55 44.4 99.95 40.25 100.35 38.65 100.35 37.45 99.2 41.05 99.75 42.95 96.4 43.65 95.1 43.6 93.35 M5.45 251.2 Q10.75 251.8 13.25 246.75 14.45 244.4 13.9 241.65 15.35 243.3 15.1 245.55 14.6 251.6 8.75 252.2 6.95 252.15 5.45 251.2" fill="#b0aeb3" fill-rule="evenodd" stroke="none"/>
    </g>
    <g id="shape4" transform="matrix(1.0, 0.0, 0.0, 1.0, 0.0, 0.0)">
      <path d="M329.9 244.2 L329.55 244.95 299.1 261.55 288.4 251.1 290.25 247.35 284.9 244.4 286.85 229.75 281.0 230.25 279.9 229.05 274.65 203.65 271.25 200.2 273.7 214.75 274.5 266.75 273.9 268.05 273.0 268.25 60.35 268.25 59.6 268.05 58.85 266.7 61.25 199.45 Q61.15 197.85 61.95 183.6 L62.55 173.6 59.35 191.45 50.5 229.35 48.25 236.8 45.95 236.9 46.85 249.5 41.25 252.8 43.2 257.1 36.6 263.45 34.5 265.2 32.4 266.9 1.75 249.8 6.95 231.15 1.3 230.3 0.85 230.05 0.25 229.55 0.0 228.75 2.65 183.55 2.8 183.05 25.2 128.75 25.4 128.35 74.0 69.5 74.6 69.25 Q85.55 66.6 96.35 62.4 L108.75 57.5 130.65 26.0 130.85 25.65 Q136.35 16.95 143.75 9.95 L147.75 6.35 155.65 0.0 178.45 0.05 181.85 2.9 Q186.35 6.9 189.95 11.55 L218.6 55.2 Q232.5 61.3 246.95 65.7 L265.15 70.75 298.85 109.7 322.55 149.05 322.75 149.55 334.9 223.2 334.65 224.4 324.65 225.9 329.9 244.2 M183.75 18.0 L181.8 19.9 191.85 19.65 183.75 18.0 M186.9 15.55 L189.3 15.95 Q186.45 11.45 182.75 7.4 L177.0 2.45 176.3 2.5 156.75 2.85 150.3 7.9 142.9 13.75 139.65 18.35 136.5 22.8 Q147.75 18.4 159.15 14.85 167.05 12.3 175.0 13.75 L186.9 15.55 M207.05 42.85 L193.75 22.6 177.1 23.0 168.6 28.3 167.0 27.25 Q167.8 24.8 170.2 23.7 L171.3 23.15 161.1 23.35 145.1 22.7 139.7 24.8 133.75 27.05 122.6 43.0 112.5 57.55 169.85 73.8 215.5 55.7 207.05 42.85 M154.35 39.8 L155.35 38.3 156.05 38.3 Q157.0 38.15 157.3 39.2 169.1 42.8 179.8 36.65 L180.15 35.25 Q178.1 33.95 179.45 31.95 L180.3 32.05 Q183.2 32.65 183.2 35.55 182.7 40.35 177.4 41.9 174.1 42.95 170.65 43.25 183.7 42.55 194.75 48.2 196.8 49.3 198.35 51.25 200.05 53.35 200.95 56.1 200.0 59.6 192.75 58.5 185.5 57.35 176.65 53.9 167.75 50.45 158.5 52.85 149.15 55.2 142.65 58.4 136.1 61.6 134.95 61.7 126.85 61.35 127.95 54.25 128.35 51.6 130.75 50.5 138.5 46.8 147.0 45.15 154.85 43.6 163.0 43.05 158.1 42.85 154.35 39.8 M180.05 17.5 Q167.35 15.4 154.85 19.35 L151.05 20.55 176.15 20.0 180.05 17.5 M176.35 29.1 L173.65 28.85 Q172.55 27.65 173.75 26.45 L191.8 26.6 Q192.8 26.85 192.7 27.95 L192.6 28.55 183.85 29.3 188.45 30.65 188.95 31.6 188.4 32.75 Q182.15 33.05 176.9 29.6 L176.35 29.1 M165.9 49.3 Q170.7 49.45 176.0 51.3 L176.1 46.45 165.75 46.05 165.9 49.3 M179.1 46.85 L179.0 52.25 188.0 54.9 188.15 48.7 179.1 46.85 M191.0 55.7 L195.85 56.45 Q197.4 56.8 198.25 55.55 196.4 52.05 192.9 50.35 L191.1 49.6 191.0 55.7 M176.2 94.35 L185.6 109.7 196.85 90.0 185.85 92.8 Q184.55 92.95 184.15 91.75 L181.9 84.5 176.2 94.35 M180.65 80.65 L178.15 73.75 169.5 77.0 Q162.3 74.75 154.6 72.65 L151.45 81.1 159.7 94.3 173.55 92.95 180.65 80.65 M206.6 62.45 L181.5 72.4 186.5 89.55 198.9 86.35 212.6 62.35 214.3 59.4 206.6 62.45 M233.55 64.2 L231.85 89.5 220.15 95.6 229.15 101.2 229.15 102.65 168.7 145.65 169.45 265.25 271.65 265.25 270.85 214.85 256.9 133.9 240.55 78.5 239.1 65.55 233.55 64.2 M215.6 95.0 L229.15 87.7 230.6 63.5 218.4 58.3 171.9 139.7 225.15 101.75 215.6 96.0 215.6 95.0 M162.75 46.05 L152.25 47.3 152.6 52.05 Q157.75 50.3 162.9 49.55 L162.75 46.05 M183.95 112.65 L173.7 95.95 159.75 97.35 149.0 112.3 168.25 140.05 183.95 112.65 M165.9 144.15 L165.0 142.4 111.7 105.15 Q110.85 104.4 111.2 103.45 111.25 103.2 111.45 103.05 L121.4 96.45 97.2 94.7 Q96.75 95.0 96.45 94.55 L96.25 94.0 96.25 66.2 82.15 71.5 82.1 92.45 65.8 159.45 62.05 265.25 166.45 265.25 165.7 145.05 165.9 144.15 M296.65 111.5 L263.6 73.25 242.25 66.5 243.5 77.75 259.8 133.05 270.5 195.1 277.65 202.65 282.7 227.15 331.85 222.15 320.0 150.35 296.65 111.5 M143.05 48.9 L144.25 55.6 149.9 52.85 149.25 47.8 143.05 48.9 M99.25 92.55 L127.4 94.1 Q128.0 95.15 127.3 96.05 L127.0 96.35 121.15 100.25 115.25 104.0 162.55 137.05 109.4 60.6 99.25 64.95 99.25 92.55 M132.4 52.0 Q129.7 54.35 130.4 57.8 L133.9 58.85 133.05 51.5 132.4 52.0 M137.2 58.5 L141.5 56.8 140.1 49.45 136.05 50.35 Q135.7 54.1 136.9 57.7 L137.2 58.5 M150.1 84.6 L146.1 94.95 145.0 95.5 133.5 90.05 147.15 109.65 157.1 95.85 150.1 84.6 M144.05 91.95 L151.7 71.9 113.5 61.3 129.9 84.85 144.05 91.95 M79.15 71.95 L76.0 71.95 28.0 130.1 5.8 183.9 3.25 227.55 12.85 228.35 39.75 230.6 40.2 230.85 43.1 233.45 46.5 233.95 52.55 208.2 62.8 159.25 79.15 91.95 79.15 71.95 M30.85 246.0 L32.45 245.5 39.4 250.45 44.15 247.95 43.15 237.7 39.05 233.6 10.0 231.8 5.0 248.45 32.55 263.65 40.05 256.2 31.05 248.25 Q30.3 247.6 30.65 246.55 L30.85 246.0 M288.65 232.25 L287.65 242.5 292.4 245.0 298.85 240.4 299.35 240.1 Q300.75 239.85 301.1 241.2 301.35 242.0 300.6 242.7 L291.75 250.75 299.2 258.2 326.85 243.0 321.85 226.35 292.85 228.15 288.65 232.25" fill="#1a1a1a" fill-rule="evenodd" stroke="none"/>
      <path d="M215.6 95.0 L215.6 96.0 225.15 101.75 171.9 139.7 218.4 58.3 230.6 63.5 229.15 87.7 215.6 95.0 M233.55 64.2 L239.1 65.55 240.55 78.5 256.9 133.9 270.85 214.85 271.65 265.25 169.45 265.25 168.7 145.65 229.15 102.65 229.15 101.2 220.15 95.6 231.85 89.5 233.55 64.2 M296.65 111.5 L320.0 150.35 331.85 222.15 282.7 227.15 277.65 202.65 270.5 195.1 259.8 133.05 243.5 77.75 242.25 66.5 263.6 73.25 296.65 111.5 M165.9 144.15 L165.7 145.05 166.45 265.25 62.05 265.25 65.8 159.45 82.1 92.45 82.15 71.5 96.25 66.2 96.25 94.0 96.45 94.55 Q96.75 95.0 97.2 94.7 L121.4 96.45 111.45 103.05 Q111.25 103.2 111.2 103.45 110.85 104.4 111.7 105.15 L165.0 142.4 165.9 144.15 M99.25 92.55 L99.25 64.95 109.4 60.6 162.55 137.05 115.25 104.0 121.15 100.25 127.0 96.35 127.3 96.05 Q128.0 95.15 127.4 94.1 L99.25 92.55 M79.15 71.95 L79.15 91.95 62.8 159.25 52.55 208.2 46.5 233.95 43.1 233.45 40.2 230.85 39.75 230.6 12.85 228.35 3.25 227.55 5.8 183.9 28.0 130.1 76.0 71.95 79.15 71.95" fill="#591f0b" fill-rule="evenodd" stroke="none"/>
      <path d="M186.9 15.55 L175.0 13.75 Q179.3 7.35 185.1 12.1 186.7 13.35 186.9 15.55 M139.65 18.35 L142.9 13.75 150.3 7.9 Q153.9 13.0 147.75 16.15 144.0 18.05 139.65 18.35 M176.3 2.5 L177.0 2.45 182.75 7.4 182.0 7.65 Q177.35 7.0 176.3 2.5 M165.2 11.2 Q159.85 11.15 157.65 6.4 L156.95 4.4 Q164.85 4.0 172.55 5.9 170.75 10.8 165.2 11.2" fill="#ffffff" fill-rule="evenodd" stroke="none"/>
      <path d="M176.2 94.35 L181.9 84.5 184.15 91.75 Q184.55 92.95 185.85 92.8 L196.85 90.0 185.6 109.7 176.2 94.35 M212.6 62.35 L198.9 86.35 186.5 89.55 181.5 72.4 206.6 62.45 212.6 62.35 M144.05 91.95 L129.9 84.85 113.5 61.3 151.7 71.9 144.05 91.95 M150.1 84.6 L157.1 95.85 147.15 109.65 133.5 90.05 145.0 95.5 146.1 94.95 150.1 84.6" fill="#d1b8a2" fill-rule="evenodd" stroke="none"/>
      <path d="M139.7 24.8 L145.1 22.7 161.1 23.35 Q161.55 29.15 159.25 34.4 158.8 35.5 157.85 35.85 154.45 37.05 150.9 37.05 L144.05 37.05 141.95 36.85 140.95 36.45 Q138.1 30.85 139.7 24.8" fill="#000000" fill-rule="evenodd" stroke="none"/>
      <path d="M288.65 232.25 L292.85 228.15 321.85 226.35 326.85 243.0 299.2 258.2 291.75 250.75 300.6 242.7 Q301.35 242.0 301.1 241.2 300.75 239.85 299.35 240.1 L298.85 240.4 292.4 245.0 287.65 242.5 288.65 232.25 M30.85 246.0 L30.65 246.55 Q30.3 247.6 31.05 248.25 L40.05 256.2 32.55 263.65 5.0 248.45 10.0 231.8 39.05 233.6 43.15 237.7 44.15 247.95 39.4 250.45 32.45 245.5 30.85 246.0" fill="#e6c6b0" fill-rule="evenodd" stroke="none"/>
      <path d="M183.75 18.0 L191.85 19.65 181.8 19.9 183.75 18.0 M161.1 23.35 L171.3 23.15 170.2 23.7 Q167.8 24.8 167.0 27.25 L168.6 28.3 177.1 23.0 193.75 22.6 207.05 42.85 Q195.85 36.9 183.2 35.55 183.2 32.65 180.3 32.05 L179.45 31.95 Q178.1 33.95 180.15 35.25 L179.8 36.65 Q169.1 42.8 157.3 39.2 157.0 38.15 156.05 38.3 L155.35 38.3 154.35 39.8 153.9 39.7 Q151.85 39.25 150.9 37.05 154.45 37.05 157.85 35.85 158.8 35.5 159.25 34.4 161.55 29.15 161.1 23.35 M122.6 43.0 L133.75 27.05 139.7 24.8 Q138.1 30.85 140.95 36.45 L141.95 36.85 144.05 37.05 Q132.75 38.2 122.6 43.0 M176.35 29.1 L176.9 29.6 Q182.15 33.05 188.4 32.75 L188.95 31.6 188.45 30.65 183.85 29.3 192.6 28.55 192.7 27.95 Q192.8 26.85 191.8 26.6 L173.75 26.45 Q172.55 27.65 173.65 28.85 L176.35 29.1 M180.05 17.5 L176.15 20.0 151.05 20.55 154.85 19.35 Q167.35 15.4 180.05 17.5" fill="#f3e4de" fill-rule="evenodd" stroke="none"/>
      <path d="M182.75 7.4 Q186.45 11.45 189.3 15.95 L186.9 15.55 Q186.7 13.35 185.1 12.1 179.3 7.35 175.0 13.75 167.05 12.3 159.15 14.85 147.75 18.4 136.5 22.8 L139.65 18.35 Q144.0 18.05 147.75 16.15 153.9 13.0 150.3 7.9 L156.75 2.85 176.3 2.5 Q177.35 7.0 182.0 7.65 L182.75 7.4 M165.2 11.2 Q170.75 10.8 172.55 5.9 164.85 4.0 156.95 4.4 L157.65 6.4 Q159.85 11.15 165.2 11.2" fill="#990000" fill-rule="evenodd" stroke="none"/>
      <path d="M207.05 42.85 L215.5 55.7 169.85 73.8 112.5 57.55 122.6 43.0 Q132.75 38.2 144.05 37.05 L150.9 37.05 Q151.85 39.25 153.9 39.7 L154.35 39.8 Q158.1 42.85 163.0 43.05 154.85 43.6 147.0 45.15 138.5 46.8 130.75 50.5 128.35 51.6 127.95 54.25 126.85 61.35 134.95 61.7 136.1 61.6 142.65 58.4 149.15 55.2 158.5 52.85 167.75 50.45 176.65 53.9 185.5 57.35 192.75 58.5 200.0 59.6 200.95 56.1 200.05 53.35 198.35 51.25 196.8 49.3 194.75 48.2 183.7 42.55 170.65 43.25 174.1 42.95 177.4 41.9 182.7 40.35 183.2 35.55 195.85 36.9 207.05 42.85" fill="#819ec7" fill-rule="evenodd" stroke="none"/>
      <path d="M165.9 49.3 L165.75 46.05 176.1 46.45 176.0 51.3 Q170.7 49.45 165.9 49.3 M191.0 55.7 L191.1 49.6 192.9 50.35 Q196.4 52.05 198.25 55.55 197.4 56.8 195.85 56.45 L191.0 55.7 M179.1 46.85 L188.15 48.7 188.0 54.9 179.0 52.25 179.1 46.85 M162.75 46.05 L162.9 49.55 Q157.75 50.3 152.6 52.05 L152.25 47.3 162.75 46.05 M143.05 48.9 L149.25 47.8 149.9 52.85 144.25 55.6 143.05 48.9 M137.2 58.5 L136.9 57.7 Q135.7 54.1 136.05 50.35 L140.1 49.45 141.5 56.8 137.2 58.5 M132.4 52.0 L133.05 51.5 133.9 58.85 130.4 57.8 Q129.7 54.35 132.4 52.0" fill="#c1e3a4" fill-rule="evenodd" stroke="none"/>
      <path d="M180.65 80.65 L173.55 92.95 159.7 94.3 151.45 81.1 154.6 72.65 Q162.3 74.75 169.5 77.0 L178.15 73.75 180.65 80.65 M183.95 112.65 L168.25 140.05 149.0 112.3 159.75 97.35 173.7 95.95 183.95 112.65" fill="#331c1a" fill-rule="evenodd" stroke="none"/>
    </g>
    <g id="shape5" transform="matrix(1.0, 0.0, 0.0, 1.0, -0.15, 0.0)">
      <path d="M41.2 3.95 L41.15 4.0 41.3 4.0 44.35 3.65 45.1 3.6 49.85 3.3 50.1 7.7 50.1 10.1 49.75 10.45 47.5 10.8 45.55 11.05 44.6 11.15 36.4 11.95 33.15 17.35 Q38.35 28.65 45.4 38.9 L48.7 43.9 40.45 52.5 40.25 52.7 38.35 54.95 36.45 57.35 35.6 58.4 34.3 60.1 33.5 61.15 32.05 62.9 Q30.6 62.8 29.95 61.3 L29.3 60.4 28.2 58.8 27.65 57.95 26.25 56.0 25.6 55.0 Q21.25 48.5 15.35 43.2 L15.05 42.65 Q23.8 32.45 27.0 19.2 L27.55 17.35 24.35 12.1 15.95 11.2 14.75 11.05 12.8 10.8 11.4 10.55 Q10.85 10.45 10.8 10.0 L10.75 9.2 10.75 7.2 11.0 3.3 16.05 3.65 18.8 3.95 19.5 4.05 19.3 3.75 Q18.95 3.3 19.25 2.85 L19.5 2.5 23.6 2.4 36.5 2.4 41.35 2.85 41.2 3.95 M44.4 6.85 L42.0 9.25 42.85 9.45 Q44.45 9.3 44.6 7.7 L44.4 6.85 M41.3 8.5 L43.65 6.15 Q41.6 5.6 41.25 7.7 41.2 8.1 41.3 8.5 M41.15 9.85 Q40.25 9.15 40.1 7.7 40.25 6.15 41.3 5.45 L40.2 5.55 37.4 10.25 40.5 9.9 41.15 9.85 M43.9 5.2 Q45.4 5.8 45.6 7.7 L45.1 9.3 48.1 8.9 48.65 4.7 43.9 5.2 M41.95 38.2 L43.25 38.85 41.9 36.6 37.6 29.35 29.4 25.7 26.75 24.55 25.0 29.65 28.0 31.2 41.95 38.2 M41.95 42.6 Q41.05 43.25 41.3 44.35 L43.8 42.35 Q42.85 41.85 41.95 42.6 M44.15 45.15 L44.4 44.85 44.65 43.4 42.15 45.4 Q43.1 45.85 44.15 45.15 M39.1 48.25 L41.25 49.2 43.65 46.5 42.95 46.6 Q41.5 46.45 40.65 45.3 L40.2 43.85 40.4 42.95 26.4 36.65 22.6 35.0 19.65 39.65 20.85 40.15 22.1 39.8 23.45 40.4 25.05 42.0 39.1 48.25 M34.8 9.0 L35.5 9.6 38.0 5.3 36.5 4.05 35.25 4.1 29.2 4.25 34.8 9.0 M25.45 6.7 L22.5 4.4 22.0 4.4 Q24.5 8.6 27.15 12.45 28.0 13.7 29.3 14.6 L31.5 16.2 33.45 12.95 25.45 6.7 M20.7 6.0 L19.85 6.0 Q20.7 7.2 20.4 8.55 20.15 9.6 19.2 10.1 L23.4 10.5 20.7 6.0 M29.35 18.0 L28.25 20.0 29.85 20.75 34.35 22.7 32.2 18.0 29.35 18.0 M19.5 7.75 Q19.35 6.15 17.75 6.0 L16.95 6.25 19.3 8.6 19.5 7.75 M16.0 7.75 Q16.15 9.35 17.75 9.5 L18.6 9.3 16.25 6.95 Q16.05 7.25 16.0 7.75 M12.25 9.2 L15.8 9.7 Q14.6 8.25 15.3 6.7 L15.75 5.9 12.7 5.45 12.25 9.2 M23.25 41.2 L22.1 40.8 21.3 41.05 23.8 43.05 Q24.05 42.3 23.25 41.2 M20.35 42.55 Q20.5 44.15 22.1 44.3 L22.95 44.1 20.6 41.75 20.35 42.55 M25.05 47.75 L21.05 46.6 25.7 52.6 27.0 54.4 32.65 56.5 34.75 57.05 37.9 53.1 36.05 52.1 25.05 47.75" fill="#441c0c" fill-rule="evenodd" stroke="none"/>
      <path d="M41.3 4.0 L41.2 3.95 41.35 2.85 36.5 2.4 30.15 1.6 23.6 2.4 19.5 2.5 19.25 2.85 Q18.95 3.3 19.3 3.75 L18.8 3.95 16.05 3.65 Q20.25 1.5 25.0 0.6 L26.25 0.4 30.15 0.1 Q38.05 0.3 44.35 3.65 L41.3 4.0 M10.75 7.2 L10.75 9.2 9.9 10.0 Q1.8 18.1 1.5 30.25 1.8 42.4 9.9 50.5 17.35 57.95 28.2 58.8 L29.3 60.4 Q17.05 59.8 8.85 51.55 4.25 46.95 2.05 41.15 -2.2 29.0 3.1 17.3 5.8 11.45 10.75 7.2 M12.8 10.8 L14.75 11.05 Q8.85 15.8 6.5 23.15 3.4 33.0 8.5 42.1 13.6 51.25 23.55 53.95 L25.6 55.0 26.25 56.0 Q18.9 54.95 13.3 50.15 5.4 43.3 4.45 32.95 3.25 19.85 12.8 10.8 M34.3 60.1 L35.6 58.4 Q43.05 57.15 48.8 52.25 57.85 44.45 58.45 32.4 59.05 19.5 50.1 10.1 L50.1 7.7 51.45 8.95 Q60.0 17.45 60.3 30.25 60.0 43.05 51.45 51.55 44.35 58.7 34.3 60.1 M38.35 54.95 L40.25 52.7 Q51.55 47.35 54.05 35.2 56.15 25.1 50.65 16.55 48.6 13.3 45.55 11.05 L47.5 10.8 Q50.95 13.85 53.05 17.95 58.75 29.0 54.0 40.3 49.45 51.2 38.35 54.95" fill="#4f2713" fill-rule="evenodd" stroke="none"/>
      <path d="M41.3 4.0 L41.15 4.0 41.2 3.95 41.3 4.0 M36.5 2.4 L23.6 2.4 30.15 1.6 36.5 2.4 M19.3 3.75 L19.5 4.05 18.8 3.95 19.3 3.75 M10.75 9.2 L10.8 10.0 Q1.1 19.6 2.4 33.1 3.35 42.95 10.25 49.95 17.5 57.2 27.65 57.95 L28.2 58.8 Q17.35 57.95 9.9 50.5 1.8 42.4 1.5 30.25 1.8 18.1 9.9 10.0 L10.75 9.2 M35.6 58.4 L36.45 57.35 Q44.1 55.55 49.75 49.9 57.65 42.0 57.95 30.15 57.65 18.3 49.75 10.45 L50.1 10.1 Q59.05 19.5 58.45 32.4 57.85 44.45 48.8 52.25 43.05 57.15 35.6 58.4" fill="#a89678" fill-rule="evenodd" stroke="none"/>
      <path d="M45.1 3.6 L44.35 3.65 Q38.05 0.3 30.15 0.1 L26.25 0.4 30.75 0.0 Q38.75 0.2 45.1 3.6" fill="#724a30" fill-rule="evenodd" stroke="none"/>
      <path d="M41.3 8.5 Q41.2 8.1 41.25 7.7 41.6 5.6 43.65 6.15 L41.3 8.5 M44.4 6.85 L44.6 7.7 Q44.45 9.3 42.85 9.45 L42.0 9.25 44.4 6.85 M44.15 45.15 Q43.1 45.85 42.15 45.4 L44.65 43.4 44.4 44.85 44.15 45.15 M41.95 42.6 Q42.85 41.85 43.8 42.35 L41.3 44.35 Q41.05 43.25 41.95 42.6 M16.0 7.75 Q16.05 7.25 16.25 6.95 L18.6 9.3 17.75 9.5 Q16.15 9.35 16.0 7.75 M19.5 7.75 L19.3 8.6 16.95 6.25 17.75 6.0 Q19.35 6.15 19.5 7.75 M20.35 42.55 L20.6 41.75 22.95 44.1 22.1 44.3 Q20.5 44.15 20.35 42.55 M23.25 41.2 Q24.05 42.3 23.8 43.05 L21.3 41.05 22.1 40.8 23.25 41.2" fill="#d7cdbb" fill-rule="evenodd" stroke="none"/>
      <path d="M15.95 11.2 L24.35 12.1 27.55 17.35 27.0 19.2 Q23.8 32.45 15.05 42.65 L15.35 43.2 Q21.25 48.5 25.6 55.0 L23.55 53.95 22.3 52.95 Q17.25 51.25 13.4 47.45 6.8 40.95 6.55 30.8 6.8 20.6 13.4 13.55 14.6 12.25 15.95 11.2 M40.45 52.5 L48.7 43.9 45.4 38.9 Q38.35 28.65 33.15 17.35 L36.4 11.95 44.6 11.15 Q51.75 16.65 53.55 25.4 55.55 35.3 50.0 43.55 47.2 47.8 42.95 50.65 L40.45 52.5 M46.05 37.8 L48.6 41.5 Q50.4 39.45 51.3 36.9 52.6 33.25 52.4 29.4 51.85 18.25 43.0 11.75 L41.65 12.05 Q38.8 11.65 36.35 13.2 33.8 16.5 35.55 20.15 40.0 29.5 46.05 37.8 M14.45 42.25 Q18.5 37.2 21.35 31.55 L23.75 25.95 Q25.15 22.1 25.9 17.95 26.3 15.65 24.6 14.0 22.2 12.4 19.25 12.3 15.05 14.65 12.0 18.35 10.25 20.5 9.3 23.5 6.2 33.5 11.7 42.45 14.8 47.45 19.85 49.4 L18.65 48.0 Q17.45 46.65 15.95 45.75 13.95 44.4 14.45 42.25" fill="#a99b81" fill-rule="evenodd" stroke="none"/>
      <path d="M41.15 9.85 L40.5 9.9 37.4 10.25 40.2 5.55 41.3 5.45 Q40.25 6.15 40.1 7.7 40.25 9.15 41.15 9.85 M43.9 5.2 L48.65 4.7 48.1 8.9 45.1 9.3 45.6 7.7 Q45.4 5.8 43.9 5.2 M20.7 6.0 L23.4 10.5 19.2 10.1 Q20.15 9.6 20.4 8.55 20.7 7.2 19.85 6.0 L20.7 6.0 M12.25 9.2 L12.7 5.45 15.75 5.9 15.3 6.7 Q14.6 8.25 15.8 9.7 L12.25 9.2" fill="#b5a581" fill-rule="evenodd" stroke="none"/>
      <path d="M14.75 11.05 L15.95 11.2 Q14.6 12.25 13.4 13.55 6.8 20.6 6.55 30.8 6.8 40.95 13.4 47.45 17.25 51.25 22.3 52.95 L23.55 53.95 Q13.6 51.25 8.5 42.1 3.4 33.0 6.5 23.15 8.85 15.8 14.75 11.05 M40.25 52.7 L40.45 52.5 42.95 50.65 Q47.2 47.8 50.0 43.55 55.55 35.3 53.55 25.4 51.75 16.65 44.6 11.15 L45.55 11.05 Q48.6 13.3 50.65 16.55 56.15 25.1 54.05 35.2 51.55 47.35 40.25 52.7" fill="#887c64" fill-rule="evenodd" stroke="none"/>
      <path d="M10.8 10.0 Q10.85 10.45 11.4 10.55 L12.8 10.8 Q3.25 19.85 4.45 32.95 5.4 43.3 13.3 50.15 18.9 54.95 26.25 56.0 L27.65 57.95 Q17.5 57.2 10.25 49.95 3.35 42.95 2.4 33.1 1.1 19.6 10.8 10.0 M36.45 57.35 L38.35 54.95 Q49.45 51.2 54.0 40.3 58.75 29.0 53.05 17.95 50.95 13.85 47.5 10.8 L49.75 10.45 Q57.65 18.3 57.95 30.15 57.65 42.0 49.75 49.9 44.1 55.55 36.45 57.35" fill="#f0e6ca" fill-rule="evenodd" stroke="none"/>
      <path d="M36.35 13.2 Q38.8 11.65 41.65 12.05 L43.0 11.75 Q51.85 18.25 52.4 29.4 52.6 33.25 51.3 36.9 50.4 39.45 48.6 41.5 L46.05 37.8 Q50.35 29.45 46.7 20.6 43.8 13.75 36.35 13.2 M24.6 14.0 Q16.75 16.25 12.2 23.4 8.65 29.55 11.25 36.2 12.4 39.5 14.45 42.25 13.95 44.4 15.95 45.75 17.45 46.65 18.65 48.0 L19.85 49.4 Q14.8 47.45 11.7 42.45 6.2 33.5 9.3 23.5 10.25 20.5 12.0 18.35 15.05 14.65 19.25 12.3 22.2 12.4 24.6 14.0" fill="#c4b696" fill-rule="evenodd" stroke="none"/>
      <path d="M46.05 37.8 Q40.0 29.5 35.55 20.15 33.8 16.5 36.35 13.2 43.8 13.75 46.7 20.6 50.35 29.45 46.05 37.8 M24.6 14.0 Q26.3 15.65 25.9 17.95 25.15 22.1 23.75 25.95 L21.35 31.55 Q18.5 37.2 14.45 42.25 12.4 39.5 11.25 36.2 8.65 29.55 12.2 23.4 16.75 16.25 24.6 14.0" fill="#d8ceba" fill-rule="evenodd" stroke="none"/>
      <path d="M41.9 36.6 L43.25 38.85 41.95 38.2 41.9 36.6 M28.0 31.2 L25.0 29.65 26.75 24.55 29.4 25.7 28.0 31.2 M40.65 45.3 Q41.5 46.45 42.95 46.6 L43.65 46.5 41.25 49.2 39.1 48.25 40.65 45.3 M25.05 42.0 L23.45 40.4 22.1 39.8 20.85 40.15 19.65 39.65 22.6 35.0 26.4 36.65 25.05 42.0 M35.25 4.1 L36.5 4.05 38.0 5.3 35.5 9.6 34.8 9.0 35.25 4.1 M29.3 14.6 Q28.0 13.7 27.15 12.45 24.5 8.6 22.0 4.4 L22.5 4.4 25.45 6.7 26.55 8.3 Q28.7 11.05 29.3 14.6 M29.85 20.75 L28.25 20.0 29.35 18.0 29.85 20.75 M25.7 52.6 L21.05 46.6 25.05 47.75 25.7 52.6 M36.05 52.1 L37.9 53.1 34.75 57.05 32.65 56.5 36.05 52.1" fill="#af9f81" fill-rule="evenodd" stroke="none"/>
      <path d="M41.9 36.6 L41.95 38.2 28.0 31.2 29.4 25.7 37.6 29.35 41.9 36.6 M40.65 45.3 L39.1 48.25 25.05 42.0 26.4 36.65 40.4 42.95 40.2 43.85 40.65 45.3 M35.25 4.1 L34.8 9.0 29.2 4.25 35.25 4.1 M29.3 14.6 Q28.7 11.05 26.55 8.3 L25.45 6.7 33.45 12.95 31.5 16.2 29.3 14.6 M29.85 20.75 L29.35 18.0 32.2 18.0 34.35 22.7 29.85 20.75 M25.7 52.6 L25.05 47.75 36.05 52.1 32.65 56.5 27.0 54.4 25.7 52.6" fill="#c4b898" fill-rule="evenodd" stroke="none"/>
    </g>
  </defs>
</svg>
