<?xml version="1.0" encoding="UTF-8" standalone="no"?>
<svg xmlns:xlink="http://www.w3.org/1999/xlink" height="454.95px" width="385.95px" xmlns="http://www.w3.org/2000/svg">
  <g transform="matrix(1.0, 0.0, 0.0, 1.0, 193.15, 454.95)">
    <use height="36.0" transform="matrix(1.0, 0.0, 0.0, 1.0, -79.55, -36.0)" width="159.0" xlink:href="#shape0"/>
    <use height="96.65" transform="matrix(1.0, 0.0, 0.0, 1.0, -27.15, -108.0)" width="54.2" xlink:href="#shape1"/>
    <use height="37.0" transform="matrix(1.0, 0.0, 0.0, 1.0, -92.65, -94.35)" width="185.25" xlink:href="#shape2"/>
    <use height="17.5" transform="matrix(1.0, 0.0, 0.0, 1.0, -82.1, -80.15)" width="167.05" xlink:href="#text0"/>
    <use height="359.1" transform="matrix(1.0, 0.0, 0.0, 1.0, -159.05, -454.95)" width="318.15" xlink:href="#shape3"/>
    <use height="274.25" transform="matrix(1.2182, 0.0, 0.0, 1.246, -134.65, -441.3)" width="221.55" xlink:href="#shape4"/>
    <use height="62.9" transform="matrix(1.0, 0.0, 0.0, 1.0, -30.6, -217.7)" width="60.15" xlink:href="#shape5"/>
  </g>
  <defs>
    <g id="shape0" transform="matrix(1.0, 0.0, 0.0, 1.0, 0.0, 0.0)">
      <path d="M135.7 30.75 Q113.3 35.8 79.5 36.0 45.7 35.8 23.3 30.75 0.85 25.65 0.0 18.0 0.85 10.35 23.3 5.25 45.7 0.2 79.5 0.0 113.3 0.2 135.7 5.25 158.15 10.35 159.0 18.0 158.15 25.65 135.7 30.75" fill="#000000" fill-opacity="0.39607844" fill-rule="evenodd" stroke="none"/>
    </g>
    <g id="shape1" transform="matrix(1.0, 0.0, 0.0, 1.0, 0.0, 0.0)">
      <path d="M5.85 93.35 Q-0.15 90.4 0.0 90.0 L0.0 0.0 54.2 0.0 54.2 90.0 Q54.15 90.4 46.95 93.35 39.7 96.25 25.65 96.65 11.8 96.25 5.85 93.35" fill="url(#gradient0)" fill-rule="evenodd" stroke="none"/>
    </g>
    <linearGradient gradientTransform="matrix(0.0303, 0.0, 0.0, 0.0303, 25.7, 48.35)" gradientUnits="userSpaceOnUse" id="gradient0" spreadMethod="pad" x1="-819.2" x2="819.2">
      <stop offset="0.0" stop-color="#565656"/>
      <stop offset="0.403921568627451" stop-color="#9a9999"/>
      <stop offset="0.592156862745098" stop-color="#dbdbda"/>
      <stop offset="0.7803921568627451" stop-color="#9b9a9a"/>
      <stop offset="1.0" stop-color="#151213"/>
    </linearGradient>
    <g id="shape2" transform="matrix(1.0, 0.0, 0.0, 1.0, -0.05, 0.0)">
      <path d="M185.25 8.2 L185.3 8.25 185.25 8.25 185.25 8.2 M1.9 5.2 L2.3 2.85 18.75 2.05 59.05 0.7 Q83.4 0.05 109.4 0.3 115.1 0.55 118.85 1.6 122.65 2.7 128.15 3.0 L129.3 1.5 Q130.05 0.2 130.5 0.0 160.7 0.5 181.5 3.85 L183.45 6.1 103.3 3.5 Q60.0 3.6 6.5 5.1 L1.9 5.2 M176.25 8.0 L176.45 8.4 177.65 11.45 178.5 13.65 Q179.3 12.8 179.7 10.9 179.7 9.8 179.25 9.1 L179.9 9.55 Q180.65 10.3 180.7 11.75 179.85 15.7 177.15 15.05 175.8 14.75 175.1 13.85 L176.15 14.2 177.35 14.25 176.45 12.35 174.9 8.8 174.8 8.5 174.95 8.35 Q175.75 7.8 176.25 8.0 M178.25 27.3 L179.85 27.15 Q180.5 27.3 181.25 27.95 183.6 31.2 181.35 32.8 180.2 33.6 179.1 33.5 L180.8 32.15 178.8 31.55 175.1 30.4 175.2 29.1 175.2 29.0 175.25 28.7 175.4 28.75 175.85 28.9 178.95 30.05 181.1 30.85 Q181.0 29.65 179.9 28.15 179.05 27.45 178.25 27.3 M9.35 6.95 L10.7 10.45 11.7 12.9 Q12.6 11.95 13.05 9.85 13.05 8.55 12.5 7.75 13.85 8.35 14.15 10.05 L13.75 12.35 Q12.6 15.1 10.15 14.55 8.75 14.25 8.0 13.4 L7.85 13.2 9.0 13.6 10.35 13.65 9.35 11.4 7.6 7.45 8.75 6.6 9.2 6.55 9.35 6.95 M9.4 25.3 Q11.0 24.35 12.9 25.8 15.0 28.35 14.35 30.1 L13.4 31.3 Q12.2 32.25 10.95 32.25 L12.75 30.6 10.4 30.05 6.2 29.05 6.15 27.55 6.15 27.1 6.35 27.15 6.9 27.35 10.45 28.4 12.95 29.1 Q12.75 27.8 11.35 26.15 10.35 25.35 9.4 25.3" fill="#47525f" fill-rule="evenodd" stroke="none"/>
      <path d="M0.05 36.7 L0.75 22.9 Q1.05 14.95 1.6 7.0 L1.9 5.2 6.5 5.1 3.2 8.3 1.95 36.45 0.05 36.7" fill="#cdcdcd" fill-rule="evenodd" stroke="none"/>
      <path d="M13.75 12.35 L14.15 10.05 26.45 10.0 13.75 12.35 M8.0 13.4 L7.0 13.55 7.2 26.2 6.35 27.15 6.15 27.1 6.15 27.55 Q5.15 29.5 6.75 31.55 8.95 33.2 10.95 32.25 12.2 32.25 13.4 31.3 L14.35 30.1 16.45 30.2 36.65 31.3 56.5 32.6 Q50.4 32.9 38.0 32.9 L15.1 32.75 3.85 32.6 5.25 10.05 6.0 10.05 Q6.15 12.3 7.85 13.2 L8.0 13.4" fill="#848484" fill-rule="evenodd" stroke="none"/>
      <path d="M175.1 13.85 Q175.8 14.75 177.15 15.05 179.85 15.7 180.7 11.75 180.65 10.3 179.9 9.55 L180.85 9.65 179.85 27.15 178.25 27.3 177.7 27.3 177.8 15.2 160.95 13.3 Q144.35 11.4 115.0 6.95 144.55 7.2 162.45 8.35 L174.1 9.15 Q173.65 9.7 173.4 10.6 173.45 12.95 175.1 13.85 M175.3 32.3 L137.05 30.55 175.2 29.0 175.2 29.1 Q174.3 30.55 175.3 32.3" fill="#a09fa0" fill-rule="evenodd" stroke="none"/>
      <path d="M176.45 8.4 L176.25 8.0 176.9 7.95 Q178.55 8.05 179.25 9.1 179.7 9.8 179.7 10.9 179.3 12.8 178.5 13.65 L177.65 11.45 178.05 10.25 Q178.0 8.55 176.45 8.4 M174.8 8.5 L174.9 8.8 Q174.35 9.2 174.15 10.05 174.2 11.9 175.85 12.3 L176.45 12.35 177.35 14.25 176.15 14.2 175.1 13.85 Q173.45 12.95 173.4 10.6 173.65 9.7 174.1 9.15 L174.8 8.5 M177.7 27.3 L178.25 27.3 Q179.05 27.45 179.9 28.15 181.0 29.65 181.1 30.85 L178.95 30.05 178.3 28.9 Q177.0 27.8 175.85 28.9 L175.4 28.75 175.8 28.3 Q176.7 27.35 177.7 27.3 M179.1 33.5 Q177.3 34.2 175.5 32.65 L175.3 32.3 Q174.3 30.55 175.2 29.1 L175.1 30.4 Q175.25 32.1 176.95 32.35 178.0 32.25 178.8 31.55 L180.8 32.15 179.1 33.5 M10.7 10.45 L11.2 9.05 Q11.15 7.15 9.35 6.95 L9.2 6.55 9.9 6.5 Q11.75 6.6 12.5 7.75 13.05 8.55 13.05 9.85 12.6 11.95 11.7 12.9 L10.7 10.45 M7.2 26.2 Q8.2 25.2 9.4 25.3 10.35 25.35 11.35 26.15 12.75 27.8 12.95 29.1 L10.45 28.4 Q9.75 26.65 8.05 26.6 L6.9 27.35 6.35 27.15 7.2 26.2 M6.0 10.05 L5.95 9.55 Q6.6 7.0 8.75 6.6 L7.6 7.45 Q7.0 7.9 6.75 8.85 6.8 10.95 8.7 11.35 L9.35 11.4 10.35 13.65 9.0 13.6 7.85 13.2 Q6.15 12.3 6.0 10.05 M6.15 27.55 L6.2 29.05 Q6.45 30.9 8.2 31.1 9.7 31.2 10.4 30.05 L12.75 30.6 10.95 32.25 Q8.95 33.2 6.75 31.55 5.15 29.5 6.15 27.55" fill="#9c9c9c" fill-rule="evenodd" stroke="none"/>
      <path d="M174.9 8.8 L176.45 12.35 175.85 12.3 Q174.2 11.9 174.15 10.05 174.35 9.2 174.9 8.8 M177.65 11.45 L176.45 8.4 Q178.0 8.55 178.05 10.25 L177.65 11.45 M175.85 28.9 Q177.0 27.8 178.3 28.9 L178.95 30.05 175.85 28.9 M175.1 30.4 L178.8 31.55 Q178.0 32.25 176.95 32.35 175.25 32.1 175.1 30.4 M9.35 6.95 Q11.15 7.15 11.2 9.05 L10.7 10.45 9.35 6.95 M9.35 11.4 L8.7 11.35 Q6.8 10.95 6.75 8.85 7.0 7.9 7.6 7.45 L9.35 11.4 M10.45 28.4 L6.9 27.35 8.05 26.6 Q9.75 26.65 10.45 28.4 M6.2 29.05 L10.4 30.05 Q9.7 31.2 8.2 31.1 6.45 30.9 6.2 29.05" fill="#d5d4d4" fill-rule="evenodd" stroke="none"/>
      <path d="M183.45 6.1 L185.3 6.25 185.25 8.2 185.25 8.25 185.1 13.45 184.65 27.3 184.3 36.25 Q157.35 34.75 133.85 35.55 L89.2 37.0 Q65.15 37.15 43.55 35.85 22.0 34.5 0.05 36.75 L0.05 36.7 1.95 36.45 3.2 8.3 6.5 5.1 Q60.0 3.6 103.3 3.5 L183.45 6.1 M176.25 8.0 Q175.75 7.8 174.95 8.35 L174.8 8.5 174.1 9.15 162.45 8.35 Q144.55 7.2 115.0 6.95 144.35 11.4 160.95 13.3 L177.8 15.2 177.7 27.3 Q176.7 27.35 175.8 28.3 L175.4 28.75 175.25 28.7 175.2 29.0 137.05 30.55 175.3 32.3 175.5 32.65 Q177.3 34.2 179.1 33.5 180.2 33.6 181.35 32.8 183.6 31.2 181.25 27.95 180.5 27.3 179.85 27.15 L180.85 9.65 179.9 9.55 179.25 9.1 Q178.55 8.05 176.9 7.95 L176.25 8.0 M12.5 7.75 Q11.75 6.6 9.9 6.5 L9.2 6.55 8.75 6.6 Q6.6 7.0 5.95 9.55 L6.0 10.05 5.25 10.05 3.85 32.6 15.1 32.75 38.0 32.9 Q50.4 32.9 56.5 32.6 L36.65 31.3 16.45 30.2 14.35 30.1 Q15.0 28.35 12.9 25.8 11.0 24.35 9.4 25.3 8.2 25.2 7.2 26.2 L7.0 13.55 8.0 13.4 Q8.75 14.25 10.15 14.55 12.6 15.1 13.75 12.35 L26.45 10.0 14.15 10.05 Q13.85 8.35 12.5 7.75" fill="url(#gradient1)" fill-rule="evenodd" stroke="none"/>
    </g>
    <linearGradient gradientTransform="matrix(0.1131, 0.0, 0.0, 0.0204, 92.65, 20.25)" gradientUnits="userSpaceOnUse" id="gradient1" spreadMethod="pad" x1="-819.2" x2="819.2">
      <stop offset="0.0" stop-color="#9a9a9a"/>
      <stop offset="1.0" stop-color="#ffffff"/>
    </linearGradient>
    <g id="text0" transform="matrix(1.0, 0.0, 0.0, 1.0, -7.4, -5.75)">
      <g transform="matrix(1.0, 0.0, 0.0, 1.0, 7.0, 0.0)">
        <use fill="#000000" height="17.5" transform="matrix(0.4746, 0.0, 0.0, 0.4746, 0.0, 21.0)" width="167.05" xlink:href="#font_______W7_T0"/>
        <use fill="#000000" height="17.5" transform="matrix(0.4746, 0.0, 0.0, 0.4746, 14.55, 21.0)" width="167.05" xlink:href="#font_______W7_h0"/>
        <use fill="#000000" height="17.5" transform="matrix(0.4746, 0.0, 0.0, 0.4746, 27.65, 21.0)" width="167.05" xlink:href="#font_______W7_e0"/>
        <use fill="#000000" height="17.5" transform="matrix(0.4746, 0.0, 0.0, 0.4746, 47.0, 21.0)" width="167.05" xlink:href="#font_______W7_B0"/>
        <use fill="#000000" height="17.5" transform="matrix(0.4746, 0.0, 0.0, 0.4746, 62.85, 21.0)" width="167.05" xlink:href="#font_______W7_i0"/>
        <use fill="#000000" height="17.5" transform="matrix(0.4746, 0.0, 0.0, 0.4746, 70.65, 21.0)" width="167.05" xlink:href="#font_______W7_g0"/>
        <use fill="#000000" height="17.5" transform="matrix(0.4746, 0.0, 0.0, 0.4746, 89.95, 21.0)" width="167.05" xlink:href="#font_______W7_C0"/>
        <use fill="#000000" height="17.5" transform="matrix(0.4746, 0.0, 0.0, 0.4746, 105.1, 21.0)" width="167.05" xlink:href="#font_______W7_h0"/>
        <use fill="#000000" height="17.5" transform="matrix(0.4746, 0.0, 0.0, 0.4746, 118.25, 21.0)" width="167.05" xlink:href="#font_______W7_e0"/>
        <use fill="#000000" height="17.5" transform="matrix(0.4746, 0.0, 0.0, 0.4746, 130.65, 21.0)" width="167.05" xlink:href="#font_______W7_e0"/>
        <use fill="#000000" height="17.5" transform="matrix(0.4746, 0.0, 0.0, 0.4746, 143.05, 21.0)" width="167.05" xlink:href="#font_______W7_s0"/>
        <use fill="#000000" height="17.5" transform="matrix(0.4746, 0.0, 0.0, 0.4746, 154.5, 21.0)" width="167.05" xlink:href="#font_______W7_e0"/>
      </g>
    </g>
    <g id="font_______W7_T0">
      <path d="M30.8 -32.15 L30.8 -32.15 0.75 -29.4 1.85 -24.25 13.45 -24.25 11.0 0.05 21.6 -1.1 18.95 -24.25 32.35 -24.25 30.8 -32.15" fill-rule="evenodd" stroke="none"/>
    </g>
    <g id="font_______W7_h0">
      <path d="M28.1 -7.6 L28.1 -7.6 Q28.1 -13.7 25.7 -17.25 22.9 -21.45 17.05 -21.45 13.35 -21.45 10.45 -19.3 L9.3 -31.55 4.65 -32.15 2.05 0.05 12.1 -1.4 11.0 -12.9 Q13.45 -15.95 16.35 -15.95 20.1 -15.95 20.1 -10.2 20.1 -6.55 17.6 -1.55 L27.6 0.05 28.1 -7.6" fill-rule="evenodd" stroke="none"/>
    </g>
    <g id="font_______W7_e0">
      <path d="M19.45 -9.9 L19.45 -9.9 Q16.75 -7.55 13.6 -7.55 10.45 -7.55 9.15 -9.9 L19.45 -9.9 M9.0 -13.4 L9.0 -13.4 Q9.7 -14.95 11.5 -15.95 13.2 -16.8 15.1 -16.8 18.05 -16.8 19.65 -14.35 L9.0 -13.4 M23.25 -9.9 L23.25 -9.9 24.3 -9.9 26.7 -12.6 Q25.85 -16.7 22.9 -19.1 19.9 -21.45 15.15 -21.45 9.65 -21.45 5.9 -18.65 1.8 -15.6 1.8 -10.4 1.8 -5.35 5.8 -2.5 9.3 0.05 14.6 0.05 22.45 0.05 27.15 -4.25 L23.25 -9.9" fill-rule="evenodd" stroke="none"/>
    </g>
    <g id="font_______W7_B0">
      <path d="M25.75 -11.3 L25.75 -11.3 Q25.75 -8.4 21.9 -8.4 18.5 -8.4 14.4 -12.15 L12.5 -7.75 11.95 -13.45 Q15.45 -15.85 18.95 -15.85 21.25 -15.85 23.3 -14.7 25.75 -13.4 25.75 -11.3 M23.15 -23.7 L23.15 -23.7 Q23.15 -22.05 21.2 -20.35 L19.0 -20.45 Q15.05 -20.45 11.45 -18.65 L10.85 -24.45 Q15.3 -26.5 18.75 -26.5 L21.55 -25.95 Q23.15 -25.2 23.15 -23.7 M33.9 -10.25 L33.9 -10.25 Q33.9 -14.55 29.85 -17.3 32.05 -20.45 32.05 -23.5 32.05 -27.75 28.35 -29.85 25.45 -31.6 20.9 -31.6 14.3 -31.6 10.4 -29.6 L10.2 -31.55 5.3 -32.15 2.55 0.05 13.15 -1.1 13.05 -2.3 Q17.4 -0.6 21.5 -0.6 26.1 -0.6 29.75 -3.05 33.9 -5.85 33.9 -10.25" fill-rule="evenodd" stroke="none"/>
    </g>
    <g id="font_______W7_i0">
      <path d="M11.6 -20.75 L11.6 -20.75 6.75 -21.45 4.45 0.05 14.3 -1.4 11.6 -20.75 M11.9 -31.5 L11.9 -31.5 6.5 -32.15 4.9 -24.95 13.2 -26.1 11.9 -31.5" fill-rule="evenodd" stroke="none"/>
    </g>
    <g id="font_______W7_g0">
      <path d="M21.25 -12.75 L21.25 -12.75 21.05 -10.5 18.9 -14.7 Q15.2 -11.7 11.9 -11.7 10.85 -11.7 10.0 -12.55 9.05 -13.45 9.05 -14.45 9.05 -16.75 13.35 -16.75 15.6 -16.75 18.05 -15.7 20.3 -14.7 21.2 -13.55 L21.25 -12.75 M26.3 -10.4 L26.3 -10.4 Q26.3 -15.45 24.2 -21.5 L20.0 -20.3 20.3 -19.15 Q16.35 -21.45 12.1 -21.45 8.15 -21.45 5.4 -19.3 2.35 -16.95 2.35 -13.2 2.35 -9.45 5.85 -7.35 8.8 -5.6 12.75 -5.6 16.55 -5.6 19.75 -6.9 17.8 -3.95 13.25 -3.95 8.55 -3.95 4.75 -6.35 L1.8 2.9 Q6.7 4.75 11.2 4.75 18.25 4.75 22.25 0.65 26.3 -3.4 26.3 -10.4" fill-rule="evenodd" stroke="none"/>
    </g>
    <g id="font_______W7_C0">
      <path d="M26.2 -15.4 L26.2 -15.4 Q21.6 -8.3 16.1 -8.3 12.35 -8.3 10.4 -10.7 8.6 -12.9 8.6 -16.75 8.6 -21.2 11.05 -23.95 13.55 -26.6 17.95 -26.6 23.65 -26.6 27.3 -22.25 L31.1 -26.05 Q28.65 -28.9 25.1 -30.55 21.55 -32.15 17.8 -32.15 10.8 -32.15 6.45 -27.4 2.05 -22.7 2.05 -15.6 2.05 -8.95 6.35 -4.45 10.7 0.05 17.3 0.05 25.6 0.05 32.65 -7.35 L26.2 -15.4" fill-rule="evenodd" stroke="none"/>
    </g>
    <g id="font_______W7_s0">
      <path d="M25.05 -6.35 L25.05 -6.35 Q25.05 -12.25 15.35 -13.65 8.7 -14.6 8.7 -15.7 8.7 -17.05 12.35 -17.05 17.1 -17.05 22.25 -14.8 L23.8 -18.2 Q19.05 -21.45 12.25 -21.45 8.55 -21.45 6.05 -20.35 2.6 -18.85 2.6 -15.7 2.6 -13.1 4.75 -11.8 6.5 -10.75 10.95 -10.05 L16.3 -8.95 Q17.8 -8.4 17.8 -7.5 17.8 -6.2 15.25 -6.2 12.3 -6.2 9.1 -7.45 5.9 -8.7 3.8 -10.65 L1.0 -2.6 Q6.45 0.05 14.3 0.05 25.05 0.05 25.05 -6.35" fill-rule="evenodd" stroke="none"/>
    </g>
    <g id="shape3" transform="matrix(1.0, 0.0, 0.0, 1.0, 28.45, 69.9)">
      <path d="M167.5 22.45 L168.25 24.35 168.95 25.25 Q170.35 26.6 172.2 26.5 176.8 26.05 177.0 21.25 177.5 23.5 176.3 25.0 169.95 32.85 167.5 22.45 M279.4 182.05 L282.75 159.35 269.6 87.1 195.4 38.95 190.05 27.85 145.25 -65.3 117.0 -65.3 75.6 38.95 32.15 67.85 -4.95 92.45 -21.45 151.45 -14.4 250.3 13.25 286.7 46.1 286.7 247.0 286.7 267.4 263.55 279.4 182.05 M262.0 86.35 L262.0 88.9 252.3 99.3 252.3 96.7 262.0 86.35 M265.65 92.6 Q266.5 97.15 263.2 100.1 259.25 103.8 254.6 101.2 L254.55 98.75 Q256.25 99.75 258.35 99.8 265.05 99.2 265.65 92.6 M252.25 99.35 L252.25 99.3 252.3 99.35 252.25 99.35 M275.55 86.35 L289.7 167.95 273.9 266.7 250.1 289.2 9.9 289.2 -17.5 252.95 -28.45 150.7 -6.05 87.95 8.9 77.65 65.9 37.0 Q68.05 35.5 69.5 33.45 71.8 30.15 73.4 26.35 L95.8 -27.4 106.3 -52.65 108.0 -56.8 109.7 -61.05 112.25 -66.95 145.95 -69.9 200.7 33.95 275.55 86.35 M130.75 -45.75 Q131.45 -42.6 129.7 -40.0 125.8 -34.25 119.75 -37.15 L119.7 -39.55 Q121.4 -38.55 123.45 -38.5 130.15 -39.1 130.75 -45.75 M117.35 -38.95 L117.35 -39.0 Q117.35 -39.0 117.45 -38.95 L117.35 -38.95 M127.1 -51.95 L127.1 -49.4 117.45 -39.0 117.45 -41.6 127.1 -51.95 M86.8 43.0 Q86.2 53.65 78.4 46.25 77.25 45.1 77.35 43.6 L78.1 45.55 78.8 46.4 Q80.15 47.7 82.05 47.65 86.45 47.2 86.8 43.0 M24.8 261.4 L24.8 263.95 15.1 274.35 15.1 271.75 24.8 261.4 M28.45 267.65 L28.45 268.75 Q27.4 279.3 17.4 276.25 L17.35 273.8 Q19.05 274.8 21.15 274.85 27.85 274.25 28.45 267.65 M15.05 274.45 L15.05 274.35 15.1 274.45 15.05 274.45 M269.0 200.05 Q269.7 202.0 268.6 203.45 262.35 211.8 259.5 201.25 L260.2 203.15 260.95 204.05 Q262.35 205.45 264.15 205.3 268.8 204.85 269.0 200.05" fill="#47525f" fill-rule="evenodd" stroke="none"/>
      <path d="M190.05 27.85 L195.4 38.95 269.6 87.1 282.75 159.35 279.4 182.05 Q162.75 234.35 46.1 286.7 L13.25 286.7 -14.4 250.3 -21.45 151.45 -4.95 92.45 32.15 67.85 190.05 27.85 M262.0 88.9 L262.0 86.35 261.3 86.1 Q258.7 84.4 255.15 86.2 251.1 88.35 250.85 93.2 L251.2 94.75 252.25 99.3 252.25 99.35 254.6 101.2 Q259.25 103.8 263.2 100.1 266.5 97.15 265.65 92.6 L264.25 88.35 264.3 89.4 Q263.85 98.75 254.55 98.75 L262.95 89.7 262.0 88.9 M251.95 94.95 L252.0 94.75 251.95 95.0 251.95 94.95 M128.1 -48.6 L129.35 -49.95 Q130.1 -45.75 127.4 -42.55 124.45 -39.0 119.7 -39.55 L128.1 -48.6 M24.05 261.25 Q22.0 259.65 18.75 260.8 13.7 262.8 13.65 268.25 L14.0 269.8 15.05 274.35 15.05 274.45 17.4 276.25 Q27.4 279.3 28.45 268.75 L28.45 267.65 27.05 263.4 Q27.3 273.75 17.35 273.8 L25.75 264.8 24.8 263.95 24.8 261.4 24.35 261.1 24.05 261.25 M14.75 270.0 L14.8 269.8 14.75 270.05 14.75 270.0" fill="#bab9ba" fill-rule="evenodd" stroke="none"/>
      <path d="M174.5 17.55 Q172.95 16.8 171.3 17.2 167.4 18.4 167.5 22.45 169.95 32.85 176.3 25.0 177.5 23.5 177.0 21.25 176.9 19.95 176.05 18.9 175.35 18.05 174.5 17.55 M190.05 27.85 L32.15 67.85 75.6 38.95 117.0 -65.3 145.25 -65.3 190.05 27.85 M46.1 286.7 Q162.75 234.35 279.4 182.05 L267.4 263.55 247.0 286.7 46.1 286.7 M128.1 -48.6 L127.1 -49.4 127.1 -51.95 126.5 -52.2 Q123.6 -53.9 120.3 -52.1 116.15 -49.9 115.95 -45.1 L116.35 -43.55 117.35 -39.0 117.35 -38.95 119.75 -37.15 Q125.8 -34.25 129.7 -40.0 131.45 -42.6 130.75 -45.75 L129.35 -49.95 128.1 -48.6 M117.15 -43.55 L117.05 -43.3 117.05 -43.35 117.15 -43.55 M77.35 43.6 Q77.25 45.1 78.4 46.25 86.2 53.65 86.8 43.0 L86.85 42.45 Q86.75 41.1 85.9 40.05 L84.35 38.75 Q82.7 37.95 81.15 38.4 77.3 39.55 77.35 43.6 M269.0 200.05 Q268.85 198.75 268.0 197.7 267.35 196.85 266.5 196.35 265.1 195.6 263.25 196.0 259.35 197.1 259.5 201.25 262.35 211.8 268.6 203.45 269.7 202.0 269.0 200.05" fill="#9c9c9c" fill-rule="evenodd" stroke="none"/>
      <path d="M262.0 88.9 L262.95 89.7 254.55 98.75 254.6 101.2 252.25 99.35 252.3 99.35 252.3 99.3 262.0 88.9 M127.1 -49.4 L128.1 -48.6 119.7 -39.55 119.75 -37.15 117.35 -38.95 117.45 -38.95 117.45 -39.0 127.1 -49.4 M24.8 263.95 L25.75 264.8 17.35 273.8 17.4 276.25 15.05 274.45 15.1 274.45 15.1 274.35 24.8 263.95" fill="#57565b" fill-rule="evenodd" stroke="none"/>
      <path d="M252.25 99.3 L251.2 94.75 251.8 96.05 Q251.8 95.5 251.95 94.95 L251.95 95.0 251.85 96.05 252.3 96.7 252.3 99.3 252.3 99.35 252.25 99.3 M117.35 -39.0 L116.35 -43.55 116.95 -42.25 117.05 -43.35 117.05 -43.3 117.0 -42.25 117.45 -41.6 117.45 -39.0 117.45 -38.95 Q117.35 -39.0 117.35 -39.0 M14.0 269.8 L14.6 271.15 Q14.6 270.55 14.75 270.0 L14.75 270.05 14.7 271.15 15.1 271.75 15.1 274.35 15.1 274.45 15.05 274.35 14.0 269.8" fill="#79818b" fill-rule="evenodd" stroke="none"/>
      <path d="M168.25 24.35 Q168.25 21.55 170.05 19.55 171.9 17.55 174.5 17.55 175.35 18.05 176.05 18.9 176.1 24.8 170.2 25.35 L168.95 25.25 168.25 24.35 M261.3 86.1 L262.0 86.35 252.3 96.7 251.85 96.05 251.95 95.0 252.0 94.75 252.65 93.4 Q255.65 88.1 261.3 86.1 M126.5 -52.2 L127.1 -51.95 117.45 -41.6 117.0 -42.25 117.05 -43.3 117.15 -43.55 Q119.65 -49.15 125.1 -51.65 L126.5 -52.2 M78.8 46.4 L78.1 45.55 Q78.1 42.75 79.9 40.75 81.75 38.75 84.35 38.75 L85.9 40.05 Q85.95 46.05 80.05 46.55 L78.8 46.4 M14.8 269.8 Q17.15 264.4 22.7 261.8 23.4 261.45 24.05 261.25 L24.35 261.1 24.8 261.4 15.1 271.75 14.7 271.15 14.75 270.05 14.8 269.8 M266.5 196.35 Q267.35 196.85 268.0 197.7 268.0 203.55 262.15 204.15 L260.95 204.05 260.2 203.15 Q260.2 200.35 262.05 198.35 263.85 196.35 266.5 196.35" fill="#d0cfd0" fill-rule="evenodd" stroke="none"/>
      <path d="M174.5 17.55 Q171.9 17.55 170.05 19.55 168.25 21.55 168.25 24.35 L167.5 22.45 Q167.4 18.4 171.3 17.2 172.95 16.8 174.5 17.55 M251.2 94.75 L250.85 93.2 Q251.1 88.35 255.15 86.2 258.7 84.4 261.3 86.1 255.65 88.1 252.65 93.4 L252.0 94.75 251.95 94.95 Q251.8 95.5 251.8 96.05 L251.2 94.75 M116.35 -43.55 L115.95 -45.1 Q116.15 -49.9 120.3 -52.1 123.6 -53.9 126.5 -52.2 L125.1 -51.65 Q119.65 -49.15 117.15 -43.55 L117.05 -43.35 116.95 -42.25 116.35 -43.55 M78.1 45.55 L77.35 43.6 Q77.3 39.55 81.15 38.4 82.7 37.95 84.35 38.75 81.75 38.75 79.9 40.75 78.1 42.75 78.1 45.55 M14.0 269.8 L13.65 268.25 Q13.7 262.8 18.75 260.8 22.0 259.65 24.05 261.25 23.4 261.45 22.7 261.8 17.15 264.4 14.8 269.8 L14.75 270.0 Q14.6 270.55 14.6 271.15 L14.0 269.8 M259.5 201.25 Q259.35 197.1 263.25 196.0 265.1 195.6 266.5 196.35 263.85 196.35 262.05 198.35 260.2 200.35 260.2 203.15 L259.5 201.25" fill="#e9e9eb" fill-rule="evenodd" stroke="none"/>
      <path d="M168.95 25.25 L170.2 25.35 Q176.1 24.8 176.05 18.9 176.9 19.95 177.0 21.25 176.8 26.05 172.2 26.5 170.35 26.6 168.95 25.25 M254.55 98.75 Q263.85 98.75 264.3 89.4 L264.25 88.35 265.65 92.6 Q265.05 99.2 258.35 99.8 256.25 99.75 254.55 98.75 M129.35 -49.95 L130.75 -45.75 Q130.15 -39.1 123.45 -38.5 121.4 -38.55 119.7 -39.55 124.45 -39.0 127.4 -42.55 130.1 -45.75 129.35 -49.95 M86.8 43.0 Q86.45 47.2 82.05 47.65 80.15 47.7 78.8 46.4 L80.05 46.55 Q85.95 46.05 85.9 40.05 86.75 41.1 86.85 42.45 L86.8 43.0 M17.35 273.8 Q27.3 273.75 27.05 263.4 L28.45 267.65 Q27.85 274.25 21.15 274.85 19.05 274.8 17.35 273.8 M268.0 197.7 Q268.85 198.75 269.0 200.05 268.8 204.85 264.15 205.3 262.35 205.45 260.95 204.05 L262.15 204.15 Q268.0 203.55 268.0 197.7" fill="#b0aeb3" fill-rule="evenodd" stroke="none"/>
    </g>
    <g id="shape4" transform="matrix(1.0, 0.0, 0.0, 1.0, 0.0, 0.0)">
      <path d="M185.2 170.35 L211.6 124.15 170.15 98.35 166.15 121.45 151.1 124.1 157.95 129.1 157.4 130.8 116.6 162.1 113.7 165.95 113.6 271.25 159.1 271.25 151.15 216.0 151.35 214.95 162.6 204.45 185.2 170.35 M218.55 172.95 L212.7 128.25 187.8 171.85 164.85 206.4 173.3 231.45 172.65 240.8 184.6 232.8 185.1 232.6 Q192.25 233.7 199.35 235.15 199.9 235.15 200.2 235.65 L208.45 247.7 213.3 223.1 218.55 172.95 M214.7 122.5 L221.55 173.15 216.3 223.55 210.7 251.7 210.1 252.75 189.8 273.1 188.95 273.6 Q183.35 270.45 178.1 266.3 L173.35 262.6 168.5 258.85 168.45 258.35 168.65 257.85 170.4 255.1 172.2 252.4 Q170.7 248.2 169.6 243.95 169.3 242.7 169.35 241.45 L169.35 239.3 Q169.2 229.75 166.0 220.65 L164.05 214.8 162.3 208.9 154.2 216.35 162.3 272.55 161.9 273.7 161.25 274.2 160.8 274.25 61.8 274.1 60.65 272.6 66.15 220.35 52.45 205.3 47.3 231.8 49.9 243.25 49.9 244.3 48.75 248.4 47.4 252.4 51.1 258.9 Q44.15 264.65 36.5 269.7 L33.65 271.65 30.75 273.55 29.8 273.1 9.3 252.6 2.95 227.8 0.0 176.45 8.6 126.8 9.4 125.6 54.95 95.4 77.65 83.35 109.8 0.85 110.2 0.4 110.65 0.1 111.2 0.0 111.75 0.0 119.95 17.5 149.3 83.3 150.15 83.05 169.8 94.6 214.7 122.5 M167.4 96.65 L150.85 86.7 116.3 158.5 153.95 129.7 145.95 123.55 146.05 122.45 164.15 118.85 167.4 96.65 M122.8 45.05 Q126.4 46.05 128.45 49.0 L129.1 50.2 Q132.5 58.0 125.55 62.6 L126.0 62.8 126.4 63.45 126.2 64.2 125.5 64.6 Q119.75 64.55 114.9 61.65 L117.2 65.35 Q129.3 66.1 140.3 71.1 L118.95 22.7 118.0 23.35 Q112.55 25.95 110.4 20.3 110.15 15.4 114.9 13.95 L111.3 5.3 102.1 28.9 Q105.7 26.95 108.75 29.7 112.15 32.75 109.4 36.5 L108.9 36.9 Q103.1 39.8 100.4 33.3 L97.25 41.4 Q103.8 42.85 109.65 46.1 L108.8 47.3 Q111.15 49.55 111.75 52.75 L114.2 47.75 113.05 45.5 Q119.0 42.4 125.6 41.25 L126.05 41.9 Q125.9 42.85 125.35 43.65 124.4 44.95 122.8 45.05 M117.05 18.1 L116.45 17.0 113.5 17.65 112.85 19.15 113.15 20.0 Q114.1 21.75 115.85 21.3 L117.6 19.7 117.05 18.1 M100.15 45.3 L96.25 44.0 84.05 75.2 Q93.7 67.3 105.95 65.3 L107.45 62.4 Q102.0 66.35 95.7 65.2 L95.85 63.8 100.15 63.45 Q95.2 62.05 94.15 56.9 92.5 48.6 100.15 45.3 M119.5 46.4 L119.0 46.55 118.75 48.3 116.2 50.1 Q121.25 49.35 126.2 50.75 124.5 48.25 121.6 47.85 119.8 47.85 119.5 46.4 M107.8 32.85 Q107.55 30.9 105.55 30.7 103.6 30.9 103.4 32.85 103.6 34.8 105.6 35.1 107.55 34.85 107.8 32.85 M117.7 59.65 Q119.35 60.75 121.25 60.45 127.25 60.0 127.3 54.1 121.1 52.2 114.85 53.5 114.55 57.6 117.7 59.65 M113.15 59.7 L111.75 56.05 110.1 60.0 111.35 60.9 Q111.4 60.35 112.05 60.0 L113.15 59.7 M105.1 60.25 Q109.45 58.2 108.75 53.2 102.2 51.8 96.35 54.8 96.7 58.85 100.75 60.3 103.0 61.15 105.1 60.25 M89.0 76.65 Q90.6 75.8 92.4 75.6 112.8 73.2 133.3 73.95 138.6 74.65 141.05 79.1 L140.3 79.4 Q128.8 74.2 115.7 75.15 L98.05 76.25 Q89.85 75.95 84.85 82.15 L84.1 82.3 83.45 81.9 83.3 81.15 Q85.65 78.3 89.0 76.65 M112.75 65.95 L113.95 65.75 111.45 61.8 109.1 65.65 112.75 65.95 M120.8 67.8 L118.3 67.9 Q111.85 69.65 105.8 67.35 93.05 69.75 83.65 78.4 L82.8 78.4 80.95 83.15 Q97.65 88.2 114.75 91.45 L145.65 83.15 140.95 73.6 Q131.05 69.75 120.8 67.8 M81.55 86.4 L85.9 96.75 102.95 100.65 108.0 93.8 81.55 86.4 M119.65 77.1 L121.0 78.4 120.25 79.85 111.3 80.3 Q109.1 80.6 108.4 78.85 L108.65 77.65 119.65 77.1 M108.4 98.4 L110.25 105.65 116.7 105.55 118.3 97.55 114.55 94.6 111.1 94.6 110.9 95.1 109.9 95.65 108.4 98.4 M97.0 51.15 Q102.05 49.1 107.15 49.95 106.1 49.05 104.85 48.7 100.0 47.0 97.0 51.15 M147.35 85.6 L119.55 94.6 127.8 102.2 Q136.1 97.6 143.35 91.7 146.2 89.4 147.95 85.8 L147.35 85.6 M31.55 179.85 L10.75 132.1 2.95 176.75 5.95 227.5 11.05 247.85 19.2 235.5 Q19.35 235.25 19.65 235.15 L20.2 234.85 34.0 232.65 34.45 232.75 Q40.45 236.5 46.35 240.4 L44.3 231.55 49.95 202.55 31.55 179.85 M63.05 121.0 Q62.6 120.95 62.25 120.7 61.85 120.4 61.75 119.95 L55.0 98.95 12.0 127.45 34.0 178.1 52.75 201.15 52.85 201.3 68.8 218.85 69.15 219.4 69.2 220.0 63.85 271.25 110.6 271.25 110.6 168.95 72.05 132.35 Q71.65 132.0 71.55 131.45 71.5 130.95 71.8 130.5 L76.85 122.1 63.05 121.0 M78.25 86.25 L57.6 97.35 64.3 118.1 80.3 120.05 80.6 120.25 74.95 131.0 110.7 164.85 110.65 163.45 78.25 86.25 M120.85 99.95 L119.5 106.8 128.25 126.7 142.25 97.7 127.4 105.55 120.85 99.95 M117.0 108.55 L109.65 108.65 100.35 131.2 112.3 159.75 112.8 158.9 126.55 130.25 117.0 108.55 M106.1 101.55 L104.6 103.3 Q104.1 104.0 103.15 103.75 L87.3 100.1 98.7 127.3 107.3 106.6 106.1 101.55 M190.25 246.6 L190.45 246.9 Q191.4 251.1 191.7 255.3 L190.05 256.45 189.75 256.25 189.45 256.05 189.15 255.6 188.45 253.1 Q185.15 254.85 181.7 255.7 L173.8 255.4 171.85 258.3 188.6 270.1 207.3 251.4 198.25 237.7 185.75 235.65 172.65 244.35 175.3 252.2 175.35 252.8 179.4 254.35 188.0 250.0 187.9 246.55 189.5 246.05 Q189.9 246.25 190.25 246.6 M33.85 235.65 L21.3 237.7 12.3 251.4 31.0 270.1 47.75 258.3 45.8 255.4 39.8 257.5 31.15 253.05 30.15 256.25 28.7 256.25 29.55 246.25 31.3 246.3 31.6 250.0 40.2 254.35 44.3 252.8 46.95 244.4 33.85 235.65" fill="#1a1a1a" fill-rule="evenodd" stroke="none"/>
      <path d="M218.55 172.95 L213.3 223.1 208.45 247.7 200.2 235.65 Q199.9 235.15 199.35 235.15 192.25 233.7 185.1 232.6 L184.6 232.8 172.65 240.8 173.3 231.45 164.85 206.4 187.8 171.85 212.7 128.25 218.55 172.95 M185.2 170.35 L162.6 204.45 151.35 214.95 151.15 216.0 159.1 271.25 113.6 271.25 113.7 165.95 116.6 162.1 157.4 130.8 157.95 129.1 151.1 124.1 166.15 121.45 170.15 98.35 211.6 124.15 185.2 170.35 M167.4 96.65 L164.15 118.85 146.05 122.45 145.95 123.55 153.95 129.7 116.3 158.5 150.85 86.7 167.4 96.65 M78.25 86.25 L110.65 163.45 110.7 164.85 74.95 131.0 80.6 120.25 80.3 120.05 64.3 118.1 57.6 97.35 78.25 86.25 M63.05 121.0 L76.85 122.1 71.8 130.5 Q71.5 130.95 71.55 131.45 71.65 132.0 72.05 132.35 L110.6 168.95 110.6 271.25 63.85 271.25 69.2 220.0 69.15 219.4 68.8 218.85 52.85 201.3 52.75 201.15 34.0 178.1 12.0 127.45 55.0 98.95 61.75 119.95 Q61.85 120.4 62.25 120.7 62.6 120.95 63.05 121.0 M31.55 179.85 L49.95 202.55 44.3 231.55 46.35 240.4 Q40.45 236.5 34.45 232.75 L34.0 232.65 20.2 234.85 19.65 235.15 Q19.35 235.25 19.2 235.5 L11.05 247.85 5.95 227.5 2.95 176.75 10.75 132.1 31.55 179.85" fill="#591f0b" fill-rule="evenodd" stroke="none"/>
      <path d="M120.8 56.75 Q119.25 56.6 119.1 55.05 119.25 53.5 120.8 53.35 122.35 53.5 122.5 55.05 122.35 56.6 120.8 56.75 M103.05 53.85 Q104.6 54.0 104.75 55.55 104.6 57.1 103.05 57.25 101.5 57.1 101.35 55.55 101.5 54.0 103.05 53.85" fill="#000000" fill-rule="evenodd" stroke="none"/>
      <path d="M117.7 59.65 Q114.55 57.6 114.85 53.5 121.1 52.2 127.3 54.1 127.25 60.0 121.25 60.45 119.35 60.75 117.7 59.65 M120.8 56.75 Q122.35 56.6 122.5 55.05 122.35 53.5 120.8 53.35 119.25 53.5 119.1 55.05 119.25 56.6 120.8 56.75 M105.1 60.25 Q103.0 61.15 100.75 60.3 96.7 58.85 96.35 54.8 102.2 51.8 108.75 53.2 109.45 58.2 105.1 60.25 M103.05 53.85 Q101.5 54.0 101.35 55.55 101.5 57.1 103.05 57.25 104.6 57.1 104.75 55.55 104.6 54.0 103.05 53.85" fill="#ffffff" fill-rule="evenodd" stroke="none"/>
      <path d="M81.55 86.4 L108.0 93.8 102.95 100.65 85.9 96.75 81.55 86.4 M147.35 85.6 L147.95 85.8 Q146.2 89.4 143.35 91.7 136.1 97.6 127.8 102.2 L119.55 94.6 147.35 85.6 M120.85 99.95 L127.4 105.55 142.25 97.7 128.25 126.7 119.5 106.8 120.85 99.95 M106.1 101.55 L107.3 106.6 98.7 127.3 87.3 100.1 103.15 103.75 Q104.1 104.0 104.6 103.3 L106.1 101.55" fill="#d1b8a2" fill-rule="evenodd" stroke="none"/>
      <path d="M122.8 45.05 Q124.4 44.95 125.35 43.65 125.9 42.85 126.05 41.9 L125.6 41.25 Q119.0 42.4 113.05 45.5 L114.2 47.75 111.75 52.75 Q111.15 49.55 108.8 47.3 L109.65 46.1 Q103.8 42.85 97.25 41.4 L100.4 33.3 Q103.1 39.8 108.9 36.9 L109.4 36.5 Q112.15 32.75 108.75 29.7 105.7 26.95 102.1 28.9 L111.3 5.3 114.9 13.95 Q110.15 15.4 110.4 20.3 112.55 25.95 118.0 23.35 L118.95 22.7 140.3 71.1 Q129.3 66.1 117.2 65.35 L114.9 61.65 Q119.75 64.55 125.5 64.6 L126.2 64.2 126.4 63.45 126.0 62.8 125.55 62.6 Q132.5 58.0 129.1 50.2 L128.45 49.0 Q126.4 46.05 122.8 45.05 M100.15 45.3 Q92.5 48.6 94.15 56.9 95.2 62.05 100.15 63.45 L95.85 63.8 95.7 65.2 Q102.0 66.35 107.45 62.4 L105.95 65.3 Q93.7 67.3 84.05 75.2 L96.25 44.0 100.15 45.3 M113.15 59.7 L112.05 60.0 Q111.4 60.35 111.35 60.9 L110.1 60.0 111.75 56.05 113.15 59.7 M120.8 67.8 Q131.05 69.75 140.95 73.6 L145.65 83.15 114.75 91.45 Q97.65 88.2 80.95 83.15 L82.8 78.4 83.65 78.4 Q93.05 69.75 105.8 67.35 111.85 69.65 118.3 67.9 L120.8 67.8 M112.75 65.95 L109.1 65.65 111.45 61.8 113.95 65.75 112.75 65.95 M89.0 76.65 Q85.65 78.3 83.3 81.15 L83.45 81.9 84.1 82.3 84.85 82.15 Q89.85 75.95 98.05 76.25 L115.7 75.15 Q128.8 74.2 140.3 79.4 L141.05 79.1 Q138.6 74.65 133.3 73.95 112.8 73.2 92.4 75.6 90.6 75.8 89.0 76.65 M119.65 77.1 L108.65 77.65 108.4 78.85 Q109.1 80.6 111.3 80.3 L120.25 79.85 121.0 78.4 119.65 77.1 M33.85 235.65 L46.95 244.4 44.3 252.8 40.2 254.35 31.6 250.0 31.3 246.3 29.55 246.25 28.7 256.25 30.15 256.25 31.15 253.05 39.8 257.5 45.8 255.4 47.75 258.3 31.0 270.1 12.3 251.4 21.3 237.7 33.85 235.65 M190.25 246.6 Q189.9 246.25 189.5 246.05 L187.9 246.55 188.0 250.0 179.4 254.35 175.35 252.8 175.3 252.2 172.65 244.35 185.75 235.65 198.25 237.7 207.3 251.4 188.6 270.1 171.85 258.3 173.8 255.4 181.7 255.7 Q185.15 254.85 188.45 253.1 L189.15 255.6 189.45 256.05 189.75 256.25 190.05 256.45 191.7 255.3 Q191.4 251.1 190.45 246.9 L190.25 246.6" fill="#bcd6bc" fill-rule="evenodd" stroke="none"/>
      <path d="M117.05 18.1 L117.6 19.7 115.85 21.3 Q114.1 21.75 113.15 20.0 L112.85 19.15 113.5 17.65 116.45 17.0 117.05 18.1 M107.8 32.85 Q107.55 34.85 105.6 35.1 103.6 34.8 103.4 32.85 103.6 30.9 105.55 30.7 107.55 30.9 107.8 32.85 M119.5 46.4 Q119.8 47.85 121.6 47.85 124.5 48.25 126.2 50.75 121.25 49.35 116.2 50.1 L118.75 48.3 119.0 46.55 119.5 46.4 M97.0 51.15 Q100.0 47.0 104.85 48.7 106.1 49.05 107.15 49.95 102.05 49.1 97.0 51.15" fill="#5c965c" fill-rule="evenodd" stroke="none"/>
      <path d="M108.4 98.4 L109.9 95.65 110.9 95.1 111.1 94.6 114.55 94.6 118.3 97.55 116.7 105.55 110.25 105.65 108.4 98.4 M117.0 108.55 L126.55 130.25 112.8 158.9 112.3 159.75 100.35 131.2 109.65 108.65 117.0 108.55" fill="#331c1a" fill-rule="evenodd" stroke="none"/>
    </g>
    <g id="shape5" transform="matrix(1.0, 0.0, 0.0, 1.0, -0.15, 0.0)">
      <path d="M41.2 3.95 L41.15 4.0 41.3 4.0 44.35 3.65 45.1 3.6 49.85 3.3 50.1 7.7 50.1 10.1 49.75 10.45 47.5 10.8 45.55 11.05 44.6 11.15 36.4 11.95 33.15 17.35 Q38.35 28.65 45.4 38.9 L48.7 43.9 40.45 52.5 40.25 52.7 38.35 54.95 36.45 57.35 35.6 58.4 34.3 60.1 33.5 61.15 32.05 62.9 Q30.6 62.8 29.95 61.3 L29.3 60.4 28.2 58.8 27.65 57.95 26.25 56.0 25.6 55.0 Q21.25 48.5 15.35 43.2 L15.05 42.65 Q23.8 32.45 27.0 19.2 L27.55 17.35 24.35 12.1 15.95 11.2 14.75 11.05 12.8 10.8 11.4 10.55 Q10.85 10.45 10.8 10.0 L10.75 9.2 10.75 7.2 11.0 3.3 16.05 3.65 18.8 3.95 19.5 4.05 19.3 3.75 Q18.95 3.3 19.25 2.85 L19.5 2.5 23.6 2.4 36.5 2.4 41.35 2.85 41.2 3.95 M44.4 6.85 L42.0 9.25 42.85 9.45 Q44.45 9.3 44.6 7.7 L44.4 6.85 M41.3 8.5 L43.65 6.15 Q41.6 5.6 41.25 7.7 41.2 8.1 41.3 8.5 M41.15 9.85 Q40.25 9.15 40.1 7.7 40.25 6.15 41.3 5.45 L40.2 5.55 37.4 10.25 40.5 9.9 41.15 9.85 M43.9 5.2 Q45.4 5.8 45.6 7.7 L45.1 9.3 48.1 8.9 48.65 4.7 43.9 5.2 M41.95 38.2 L43.25 38.85 41.9 36.6 37.6 29.35 29.4 25.7 26.75 24.55 25.0 29.65 28.0 31.2 41.95 38.2 M41.95 42.6 Q41.05 43.25 41.3 44.35 L43.8 42.35 Q42.85 41.85 41.95 42.6 M44.15 45.15 L44.4 44.85 44.65 43.4 42.15 45.4 Q43.1 45.85 44.15 45.15 M39.1 48.25 L41.25 49.2 43.65 46.5 42.95 46.6 Q41.5 46.45 40.65 45.3 L40.2 43.85 40.4 42.95 26.4 36.65 22.6 35.0 19.65 39.65 20.85 40.15 22.1 39.8 23.45 40.4 25.05 42.0 39.1 48.25 M34.8 9.0 L35.5 9.6 38.0 5.3 36.5 4.05 35.25 4.1 29.2 4.25 34.8 9.0 M25.45 6.7 L22.5 4.4 22.0 4.4 Q24.5 8.6 27.15 12.45 28.0 13.7 29.3 14.6 L31.5 16.2 33.45 12.95 25.45 6.7 M20.7 6.0 L19.85 6.0 Q20.7 7.2 20.4 8.55 20.15 9.6 19.2 10.1 L23.4 10.5 20.7 6.0 M29.35 18.0 L28.25 20.0 29.85 20.75 34.35 22.7 32.2 18.0 29.35 18.0 M19.5 7.75 Q19.35 6.15 17.75 6.0 L16.95 6.25 19.3 8.6 19.5 7.75 M16.0 7.75 Q16.15 9.35 17.75 9.5 L18.6 9.3 16.25 6.95 Q16.05 7.25 16.0 7.75 M12.25 9.2 L15.8 9.7 Q14.6 8.25 15.3 6.7 L15.75 5.9 12.7 5.45 12.25 9.2 M23.25 41.2 L22.1 40.8 21.3 41.05 23.8 43.05 Q24.05 42.3 23.25 41.2 M20.35 42.55 Q20.5 44.15 22.1 44.3 L22.95 44.1 20.6 41.75 20.35 42.55 M25.05 47.75 L21.05 46.6 25.7 52.6 27.0 54.4 32.65 56.5 34.75 57.05 37.9 53.1 36.05 52.1 25.05 47.75" fill="#441c0c" fill-rule="evenodd" stroke="none"/>
      <path d="M41.3 4.0 L41.2 3.95 41.35 2.85 36.5 2.4 30.15 1.6 23.6 2.4 19.5 2.5 19.25 2.85 Q18.95 3.3 19.3 3.75 L18.8 3.95 16.05 3.65 Q20.25 1.5 25.0 0.6 L26.25 0.4 30.15 0.1 Q38.05 0.3 44.35 3.65 L41.3 4.0 M10.75 7.2 L10.75 9.2 9.9 10.0 Q1.8 18.1 1.5 30.25 1.8 42.4 9.9 50.5 17.35 57.95 28.2 58.8 L29.3 60.4 Q17.05 59.8 8.85 51.55 4.25 46.95 2.05 41.15 -2.2 29.0 3.1 17.3 5.8 11.45 10.75 7.2 M12.8 10.8 L14.75 11.05 Q8.85 15.8 6.5 23.15 3.4 33.0 8.5 42.1 13.6 51.25 23.55 53.95 L25.6 55.0 26.25 56.0 Q18.9 54.95 13.3 50.15 5.4 43.3 4.45 32.95 3.25 19.85 12.8 10.8 M34.3 60.1 L35.6 58.4 Q43.05 57.15 48.8 52.25 57.85 44.45 58.45 32.4 59.05 19.5 50.1 10.1 L50.1 7.7 51.45 8.95 Q60.0 17.45 60.3 30.25 60.0 43.05 51.45 51.55 44.35 58.7 34.3 60.1 M38.35 54.95 L40.25 52.7 Q51.55 47.35 54.05 35.2 56.15 25.1 50.65 16.55 48.6 13.3 45.55 11.05 L47.5 10.8 Q50.95 13.85 53.05 17.95 58.75 29.0 54.0 40.3 49.45 51.2 38.35 54.95" fill="#4f2713" fill-rule="evenodd" stroke="none"/>
      <path d="M41.3 4.0 L41.15 4.0 41.2 3.95 41.3 4.0 M36.5 2.4 L23.6 2.4 30.15 1.6 36.5 2.4 M19.3 3.75 L19.5 4.05 18.8 3.95 19.3 3.75 M10.75 9.2 L10.8 10.0 Q1.1 19.6 2.4 33.1 3.35 42.95 10.25 49.95 17.5 57.2 27.65 57.95 L28.2 58.8 Q17.35 57.95 9.9 50.5 1.8 42.4 1.5 30.25 1.8 18.1 9.9 10.0 L10.75 9.2 M35.6 58.4 L36.45 57.35 Q44.1 55.55 49.75 49.9 57.65 42.0 57.95 30.15 57.65 18.3 49.75 10.45 L50.1 10.1 Q59.05 19.5 58.45 32.4 57.85 44.45 48.8 52.25 43.05 57.15 35.6 58.4" fill="#a89678" fill-rule="evenodd" stroke="none"/>
      <path d="M45.1 3.6 L44.35 3.65 Q38.05 0.3 30.15 0.1 L26.25 0.4 30.75 0.0 Q38.75 0.2 45.1 3.6" fill="#724a30" fill-rule="evenodd" stroke="none"/>
      <path d="M41.3 8.5 Q41.2 8.1 41.25 7.7 41.6 5.6 43.65 6.15 L41.3 8.5 M44.4 6.85 L44.6 7.7 Q44.45 9.3 42.85 9.45 L42.0 9.25 44.4 6.85 M44.15 45.15 Q43.1 45.85 42.15 45.4 L44.65 43.4 44.4 44.85 44.15 45.15 M41.95 42.6 Q42.85 41.85 43.8 42.35 L41.3 44.35 Q41.05 43.25 41.95 42.6 M16.0 7.75 Q16.05 7.25 16.25 6.95 L18.6 9.3 17.75 9.5 Q16.15 9.35 16.0 7.75 M19.5 7.75 L19.3 8.6 16.95 6.25 17.75 6.0 Q19.35 6.15 19.5 7.75 M20.35 42.55 L20.6 41.75 22.95 44.1 22.1 44.3 Q20.5 44.15 20.35 42.55 M23.25 41.2 Q24.05 42.3 23.8 43.05 L21.3 41.05 22.1 40.8 23.25 41.2" fill="#d7cdbb" fill-rule="evenodd" stroke="none"/>
      <path d="M15.95 11.2 L24.35 12.1 27.55 17.35 27.0 19.2 Q23.8 32.45 15.05 42.65 L15.35 43.2 Q21.25 48.5 25.6 55.0 L23.55 53.95 22.3 52.95 Q17.25 51.25 13.4 47.45 6.8 40.95 6.55 30.8 6.8 20.6 13.4 13.55 14.6 12.25 15.95 11.2 M40.45 52.5 L48.7 43.9 45.4 38.9 Q38.35 28.65 33.15 17.35 L36.4 11.95 44.6 11.15 Q51.75 16.65 53.55 25.4 55.55 35.3 50.0 43.55 47.2 47.8 42.95 50.65 L40.45 52.5 M46.05 37.8 L48.6 41.5 Q50.4 39.45 51.3 36.9 52.6 33.25 52.4 29.4 51.85 18.25 43.0 11.75 L41.65 12.05 Q38.8 11.65 36.35 13.2 33.8 16.5 35.55 20.15 40.0 29.5 46.05 37.8 M14.45 42.25 Q18.5 37.2 21.35 31.55 L23.75 25.95 Q25.15 22.1 25.9 17.95 26.3 15.65 24.6 14.0 22.2 12.4 19.25 12.3 15.05 14.65 12.0 18.35 10.25 20.5 9.3 23.5 6.2 33.5 11.7 42.45 14.8 47.45 19.85 49.4 L18.65 48.0 Q17.45 46.65 15.95 45.75 13.95 44.4 14.45 42.25" fill="#a99b81" fill-rule="evenodd" stroke="none"/>
      <path d="M41.15 9.85 L40.5 9.9 37.4 10.25 40.2 5.55 41.3 5.45 Q40.25 6.15 40.1 7.7 40.25 9.15 41.15 9.85 M43.9 5.2 L48.65 4.7 48.1 8.9 45.1 9.3 45.6 7.7 Q45.4 5.8 43.9 5.2 M20.7 6.0 L23.4 10.5 19.2 10.1 Q20.15 9.6 20.4 8.55 20.7 7.2 19.85 6.0 L20.7 6.0 M12.25 9.2 L12.7 5.45 15.75 5.9 15.3 6.7 Q14.6 8.25 15.8 9.7 L12.25 9.2" fill="#b5a581" fill-rule="evenodd" stroke="none"/>
      <path d="M14.75 11.05 L15.95 11.2 Q14.6 12.25 13.4 13.55 6.8 20.6 6.55 30.8 6.8 40.95 13.4 47.45 17.25 51.25 22.3 52.95 L23.55 53.95 Q13.6 51.25 8.5 42.1 3.4 33.0 6.5 23.15 8.85 15.8 14.75 11.05 M40.25 52.7 L40.45 52.5 42.95 50.65 Q47.2 47.8 50.0 43.55 55.55 35.3 53.55 25.4 51.75 16.65 44.6 11.15 L45.55 11.05 Q48.6 13.3 50.65 16.55 56.15 25.1 54.05 35.2 51.55 47.35 40.25 52.7" fill="#887c64" fill-rule="evenodd" stroke="none"/>
      <path d="M10.8 10.0 Q10.85 10.45 11.4 10.55 L12.8 10.8 Q3.25 19.85 4.45 32.95 5.4 43.3 13.3 50.15 18.9 54.95 26.25 56.0 L27.65 57.95 Q17.5 57.2 10.25 49.95 3.35 42.95 2.4 33.1 1.1 19.6 10.8 10.0 M36.45 57.35 L38.35 54.95 Q49.45 51.2 54.0 40.3 58.75 29.0 53.05 17.95 50.95 13.85 47.5 10.8 L49.75 10.45 Q57.65 18.3 57.95 30.15 57.65 42.0 49.75 49.9 44.1 55.55 36.45 57.35" fill="#f0e6ca" fill-rule="evenodd" stroke="none"/>
      <path d="M36.35 13.2 Q38.8 11.65 41.65 12.05 L43.0 11.75 Q51.85 18.25 52.4 29.4 52.6 33.25 51.3 36.9 50.4 39.45 48.6 41.5 L46.05 37.8 Q50.35 29.45 46.7 20.6 43.8 13.75 36.35 13.2 M24.6 14.0 Q16.75 16.25 12.2 23.4 8.65 29.55 11.25 36.2 12.4 39.5 14.45 42.25 13.95 44.4 15.95 45.75 17.45 46.65 18.65 48.0 L19.85 49.4 Q14.8 47.45 11.7 42.45 6.2 33.5 9.3 23.5 10.25 20.5 12.0 18.35 15.05 14.65 19.25 12.3 22.2 12.4 24.6 14.0" fill="#c4b696" fill-rule="evenodd" stroke="none"/>
      <path d="M46.05 37.8 Q40.0 29.5 35.55 20.15 33.8 16.5 36.35 13.2 43.8 13.75 46.7 20.6 50.35 29.45 46.05 37.8 M24.6 14.0 Q26.3 15.65 25.9 17.95 25.15 22.1 23.75 25.95 L21.35 31.55 Q18.5 37.2 14.45 42.25 12.4 39.5 11.25 36.2 8.65 29.55 12.2 23.4 16.75 16.25 24.6 14.0" fill="#d8ceba" fill-rule="evenodd" stroke="none"/>
      <path d="M41.9 36.6 L43.25 38.85 41.95 38.2 41.9 36.6 M28.0 31.2 L25.0 29.65 26.75 24.55 29.4 25.7 28.0 31.2 M40.65 45.3 Q41.5 46.45 42.95 46.6 L43.65 46.5 41.25 49.2 39.1 48.25 40.65 45.3 M25.05 42.0 L23.45 40.4 22.1 39.8 20.85 40.15 19.65 39.65 22.6 35.0 26.4 36.65 25.05 42.0 M35.25 4.1 L36.5 4.05 38.0 5.3 35.5 9.6 34.8 9.0 35.25 4.1 M29.3 14.6 Q28.0 13.7 27.15 12.45 24.5 8.6 22.0 4.4 L22.5 4.4 25.45 6.7 26.55 8.3 Q28.7 11.05 29.3 14.6 M29.85 20.75 L28.25 20.0 29.35 18.0 29.85 20.75 M25.7 52.6 L21.05 46.6 25.05 47.75 25.7 52.6 M36.05 52.1 L37.9 53.1 34.75 57.05 32.65 56.5 36.05 52.1" fill="#af9f81" fill-rule="evenodd" stroke="none"/>
      <path d="M41.9 36.6 L41.95 38.2 28.0 31.2 29.4 25.7 37.6 29.35 41.9 36.6 M40.65 45.3 L39.1 48.25 25.05 42.0 26.4 36.65 40.4 42.95 40.2 43.85 40.65 45.3 M35.25 4.1 L34.8 9.0 29.2 4.25 35.25 4.1 M29.3 14.6 Q28.7 11.05 26.55 8.3 L25.45 6.7 33.45 12.95 31.5 16.2 29.3 14.6 M29.85 20.75 L29.35 18.0 32.2 18.0 34.35 22.7 29.85 20.75 M25.7 52.6 L25.05 47.75 36.05 52.1 32.65 56.5 27.0 54.4 25.7 52.6" fill="#c4b898" fill-rule="evenodd" stroke="none"/>
    </g>
  </defs>
</svg>
