<?xml version="1.0" encoding="UTF-8" standalone="no"?>
<svg xmlns:xlink="http://www.w3.org/1999/xlink" height="191.1px" width="478.45px" xmlns="http://www.w3.org/2000/svg">
  <g transform="matrix(1.0, 0.0, 0.0, 1.0, 25.5, 79.75)">
    <use height="31.65" transform="matrix(2.928, 0.0, 0.0, 2.928, 178.35, -30.2)" width="24.25" xlink:href="#shape0"/>
    <use height="31.65" transform="matrix(5.8082, 0.0, 0.0, 5.8082, 135.0, -75.5)" width="27.15" xlink:href="#shape1"/>
  </g>
  <defs>
    <g id="shape0" transform="matrix(1.0, 0.0, 0.0, 1.0, 0.0, 0.0)">
      <path d="M13.15 2.3 Q10.55 2.85 10.55 6.1 L10.55 25.4 Q10.55 28.65 13.15 29.25 L13.15 31.65 Q6.75 31.5 3.2 27.05 0.0 22.9 0.0 16.3 0.0 9.25 3.6 4.7 7.25 0.2 13.15 0.0 L13.15 2.3 M20.7 1.6 Q21.45 1.6 21.8 0.8 22.2 0.0 22.9 0.0 24.2 0.0 24.2 1.4 L24.2 10.85 Q24.2 12.35 22.9 12.35 21.7 12.35 21.4 10.85 19.85 3.65 15.0 2.3 L15.0 0.0 Q16.5 0.05 20.7 1.6 M21.7 23.5 Q22.05 22.2 23.0 22.2 24.25 22.2 24.25 23.55 24.15 26.15 21.2 28.9 18.1 31.75 15.0 31.65 L15.0 29.25 Q20.35 28.05 21.7 23.5" fill="url(#gradient0)" fill-rule="evenodd" stroke="none"/>
    </g>
    <linearGradient gradientTransform="matrix(0.0, -0.0207, 0.9999, 7.0E-4, 68.8, 15.4)" gradientUnits="userSpaceOnUse" id="gradient0" spreadMethod="pad" x1="-819.2" x2="819.2">
      <stop offset="0.0" stop-color="#c6afe5"/>
      <stop offset="1.0" stop-color="#ffd9e5"/>
    </linearGradient>
    <g id="shape1" transform="matrix(1.0, 0.0, 0.0, 1.0, 0.0, 0.0)">
      <path d="M27.15 15.8 Q27.15 22.25 24.05 26.45 20.65 31.1 14.5 31.65 L14.5 29.25 Q16.55 28.5 16.55 26.35 L16.55 5.25 Q16.55 3.05 14.5 2.3 L14.5 0.0 Q20.65 0.5 24.05 5.15 27.15 9.35 27.15 15.8 M12.65 2.3 Q10.55 3.1 10.55 5.25 L10.55 26.35 Q10.55 28.5 12.65 29.25 L12.65 31.65 Q6.45 31.1 3.1 26.45 0.0 22.25 0.0 15.8 0.0 9.35 3.1 5.15 6.45 0.5 12.65 0.0 L12.65 2.3" fill="url(#gradient1)" fill-rule="evenodd" stroke="none"/>
    </g>
    <linearGradient gradientTransform="matrix(0.0, -0.0207, 0.9999, 7.0E-4, 42.1, 15.4)" gradientUnits="userSpaceOnUse" id="gradient1" spreadMethod="pad" x1="-819.2" x2="819.2">
      <stop offset="0.0" stop-color="#fbfafd"/>
      <stop offset="1.0" stop-color="#fefcfd"/>
    </linearGradient>
  </defs>
</svg>
