<?xml version="1.0" encoding="UTF-8" standalone="no"?>
<svg xmlns:xlink="http://www.w3.org/1999/xlink" height="191.1px" width="478.45px" xmlns="http://www.w3.org/2000/svg">
  <g transform="matrix(1.0, 0.0, 0.0, 1.0, 25.5, 79.75)">
    <use height="31.65" transform="matrix(1.0, 0.0, 0.0, 1.0, 0.0, 0.0)" width="24.25" xlink:href="#shape0"/>
    <use height="31.65" transform="matrix(1.0, 0.0, 0.0, 1.0, 26.7, 0.0)" width="27.15" xlink:href="#shape1"/>
    <use height="30.45" transform="matrix(1.0, 0.0, 0.0, 1.0, 56.15, 0.55)" width="27.8" xlink:href="#shape2"/>
    <use height="31.65" transform="matrix(1.0, 0.0, 0.0, 1.0, 86.3, 0.0)" width="26.3" xlink:href="#shape3"/>
    <use height="31.1" transform="matrix(1.2, 0.0, 0.0, 1.2, 196.0, -2.4)" width="29.65" xlink:href="#shape4"/>
    <use height="30.45" transform="matrix(4.2721, 0.0, 0.0, 4.2721, 153.25, -49.0)" width="28.3" xlink:href="#shape5"/>
    <use height="30.45" transform="matrix(6.0, 0.0, 0.0, 6.0, 137.75, -75.25)" width="25.35" xlink:href="#shape6"/>
  </g>
  <defs>
    <g id="shape0" transform="matrix(1.0, 0.0, 0.0, 1.0, 0.0, 0.0)">
      <path d="M13.15 2.3 Q10.55 2.85 10.55 6.1 L10.55 25.4 Q10.55 28.65 13.15 29.25 L13.15 31.65 Q6.75 31.5 3.2 27.05 0.0 22.9 0.0 16.3 0.0 9.25 3.6 4.7 7.25 0.2 13.15 0.0 L13.15 2.3 M20.7 1.6 Q21.45 1.6 21.8 0.8 22.2 0.0 22.9 0.0 24.2 0.0 24.2 1.4 L24.2 10.85 Q24.2 12.35 22.9 12.35 21.7 12.35 21.4 10.85 19.85 3.65 15.0 2.3 L15.0 0.0 Q16.5 0.05 20.7 1.6 M21.7 23.5 Q22.05 22.2 23.0 22.2 24.25 22.2 24.25 23.55 24.15 26.15 21.2 28.9 18.1 31.75 15.0 31.65 L15.0 29.25 Q20.35 28.05 21.7 23.5" fill="url(#gradient0)" fill-rule="evenodd" stroke="none"/>
    </g>
    <linearGradient gradientTransform="matrix(0.0, -0.0207, 0.9999, 7.0E-4, 68.8, 15.4)" gradientUnits="userSpaceOnUse" id="gradient0" spreadMethod="pad" x1="-819.2" x2="819.2">
      <stop offset="0.0" stop-color="#8350c6"/>
      <stop offset="1.0" stop-color="#ffacc6"/>
    </linearGradient>
    <g id="shape1" transform="matrix(1.0, 0.0, 0.0, 1.0, 0.0, 0.0)">
      <path d="M27.15 15.8 Q27.15 22.25 24.05 26.45 20.65 31.1 14.5 31.65 L14.5 29.25 Q16.55 28.5 16.55 26.35 L16.55 5.25 Q16.55 3.05 14.5 2.3 L14.5 0.0 Q20.65 0.5 24.05 5.15 27.15 9.35 27.15 15.8 M12.65 2.3 Q10.55 3.1 10.55 5.25 L10.55 26.35 Q10.55 28.5 12.65 29.25 L12.65 31.65 Q6.45 31.1 3.1 26.45 0.0 22.25 0.0 15.8 0.0 9.35 3.1 5.15 6.45 0.5 12.65 0.0 L12.65 2.3" fill="url(#gradient1)" fill-rule="evenodd" stroke="none"/>
    </g>
    <linearGradient gradientTransform="matrix(0.0, -0.0207, 0.9999, 7.0E-4, 42.1, 15.4)" gradientUnits="userSpaceOnUse" id="gradient1" spreadMethod="pad" x1="-819.2" x2="819.2">
      <stop offset="0.0" stop-color="#8350c6"/>
      <stop offset="1.0" stop-color="#ffacc6"/>
    </linearGradient>
    <g id="shape2" transform="matrix(1.0, 0.0, 0.0, 1.0, 0.0, 0.0)">
      <path d="M27.8 1.25 Q27.8 1.7 26.15 2.85 24.5 4.0 24.5 7.4 L24.5 17.25 24.4 17.25 22.1 13.15 22.1 7.4 Q22.1 4.0 20.45 2.85 18.8 1.7 18.8 1.25 18.8 0.0 20.55 0.0 L26.05 0.0 Q27.8 0.0 27.8 1.25 M24.5 20.6 L24.5 30.45 18.4 30.45 3.5 4.75 Q2.45 2.95 1.3 2.6 0.1 2.15 0.1 1.25 0.1 0.1 2.15 0.0 L12.65 0.0 24.5 20.6 M5.65 24.05 Q6.05 26.95 7.5 27.9 8.9 28.8 8.9 29.3 8.9 30.45 6.75 30.45 L2.15 30.45 Q0.0 30.45 0.0 29.3 0.0 28.8 1.4 27.9 2.9 26.95 3.25 24.05 L3.25 7.65 3.35 7.65 5.65 11.75 5.65 24.05" fill="url(#gradient2)" fill-rule="evenodd" stroke="none"/>
    </g>
    <linearGradient gradientTransform="matrix(0.0, -0.0207, 0.9999, 7.0E-4, 12.65, 14.85)" gradientUnits="userSpaceOnUse" id="gradient2" spreadMethod="pad" x1="-819.2" x2="819.2">
      <stop offset="0.0" stop-color="#8350c6"/>
      <stop offset="1.0" stop-color="#ffacc6"/>
    </linearGradient>
    <g id="shape3" transform="matrix(1.0, 0.0, 0.0, 1.0, 0.0, 0.0)">
      <path d="M22.0 10.15 Q20.2 2.55 14.35 2.3 L14.35 0.0 Q18.65 0.3 21.3 1.45 21.9 1.45 22.45 0.75 23.05 0.0 23.7 0.0 24.8 0.0 24.8 1.25 L24.8 10.35 Q24.8 11.8 23.55 11.8 22.4 11.8 22.0 10.15 M24.85 15.6 Q26.3 15.6 26.3 16.8 26.3 17.5 25.55 18.05 24.8 18.5 24.8 19.25 L24.8 27.3 Q20.2 31.5 14.35 31.65 L14.35 29.25 Q16.25 28.7 16.25 26.65 L16.25 19.35 Q16.25 18.25 14.55 17.95 13.5 17.7 13.5 16.7 13.5 15.6 15.15 15.6 L24.85 15.6 M12.55 0.0 L12.55 2.3 Q10.55 3.05 10.55 6.0 L10.55 25.5 Q10.55 28.6 12.55 29.25 L12.55 31.65 Q7.25 31.45 3.6 26.9 0.0 22.35 0.0 15.8 0.0 9.25 3.6 4.7 7.25 0.1 12.55 0.0" fill="url(#gradient3)" fill-rule="evenodd" stroke="none"/>
    </g>
    <linearGradient gradientTransform="matrix(0.0, -0.0207, 0.9999, 7.0E-4, -17.5, 15.4)" gradientUnits="userSpaceOnUse" id="gradient3" spreadMethod="pad" x1="-819.2" x2="819.2">
      <stop offset="0.0" stop-color="#8350c6"/>
      <stop offset="1.0" stop-color="#ffacc6"/>
    </linearGradient>
    <g id="shape4" transform="matrix(1.0, 0.0, 0.0, 1.0, 0.0, 0.0)">
      <path d="M16.6 6.15 Q16.6 3.3 14.1 2.4 L14.1 0.0 14.3 0.0 Q19.85 0.0 22.15 1.1 26.3 3.15 26.3 7.8 26.45 13.75 19.15 15.5 L19.15 15.55 Q26.25 16.6 26.3 21.45 L26.3 25.05 Q26.3 26.25 26.75 26.25 L27.5 25.65 Q27.95 25.05 28.5 25.05 29.65 25.05 29.65 26.25 29.65 27.85 27.4 29.6 25.65 31.1 22.8 31.1 19.95 31.1 18.2 29.35 16.6 27.7 16.6 24.2 L16.6 21.45 Q16.6 17.25 14.1 17.05 L14.1 14.65 Q16.6 14.35 16.6 11.1 L16.6 6.15 M14.55 29.2 Q14.55 30.45 13.05 30.45 L1.55 30.45 Q0.0 30.45 0.0 29.2 0.0 28.35 0.9 28.1 1.95 27.8 2.15 27.4 L2.3 25.9 2.3 4.55 2.15 3.05 Q1.95 2.65 0.9 2.35 0.0 2.1 0.0 1.25 0.0 0.0 1.55 0.0 L12.3 0.0 12.3 25.9 Q12.3 27.65 13.65 28.1 14.55 28.35 14.55 29.2" fill="url(#gradient4)" fill-rule="evenodd" stroke="none"/>
    </g>
    <linearGradient gradientTransform="matrix(0.0, -0.0207, 0.9999, 7.0E-4, -46.9, 14.85)" gradientUnits="userSpaceOnUse" id="gradient4" spreadMethod="pad" x1="-819.2" x2="819.2">
      <stop offset="0.0" stop-color="#a782d7"/>
      <stop offset="1.0" stop-color="#ffc4d7"/>
    </linearGradient>
    <g id="shape5" transform="matrix(1.0, 0.0, 0.0, 1.0, 0.0, 0.0)">
      <path d="M25.85 25.75 Q26.3 27.75 27.25 28.15 28.3 28.6 28.3 29.4 28.3 30.45 26.05 30.45 L15.9 30.45 Q13.9 30.45 13.9 29.35 13.9 28.55 14.7 28.2 15.95 27.45 15.55 25.7 L14.7 22.55 8.75 22.55 9.35 20.2 14.3 20.2 10.2 2.2 10.75 0.0 19.75 0.0 25.85 25.75 M10.35 10.3 L6.55 24.25 Q5.8 27.1 7.85 28.0 9.05 28.55 9.05 29.35 9.05 30.45 6.95 30.45 L2.25 30.45 Q0.0 30.45 0.0 29.25 0.0 28.65 1.55 27.85 3.4 26.9 4.3 23.6 L9.2 5.7 9.3 5.7 10.35 10.3" fill="url(#gradient5)" fill-rule="evenodd" stroke="none"/>
    </g>
    <linearGradient gradientTransform="matrix(0.0, -0.0207, 0.9999, 7.0E-4, -76.5, 14.85)" gradientUnits="userSpaceOnUse" id="gradient5" spreadMethod="pad" x1="-819.2" x2="819.2">
      <stop offset="0.0" stop-color="#dfd1f0"/>
      <stop offset="1.0" stop-color="#fee9f0"/>
    </linearGradient>
    <g id="shape6" transform="matrix(1.0, 0.0, 0.0, 1.0, 0.0, 0.0)">
      <path d="M25.35 9.5 Q25.35 10.7 24.0 10.7 22.75 10.7 22.55 8.7 21.8 4.05 19.5 2.35 L19.5 0.0 25.35 0.0 25.35 9.5 M17.65 0.0 L17.65 25.9 Q17.65 27.65 19.05 28.1 19.95 28.35 19.95 29.2 19.95 30.45 18.45 30.45 L6.9 30.45 Q5.4 30.45 5.4 29.2 5.4 28.35 6.3 28.1 L7.55 27.4 7.7 25.9 7.7 0.0 17.65 0.0 M0.0 0.0 L5.85 0.0 5.85 2.35 Q3.55 4.05 2.8 8.7 2.6 10.7 1.35 10.7 0.0 10.7 0.0 9.5 L0.0 0.0" fill="url(#gradient6)" fill-rule="evenodd" stroke="none"/>
    </g>
    <linearGradient gradientTransform="matrix(0.0, -0.0207, 0.9999, 7.0E-4, -106.0, 14.85)" gradientUnits="userSpaceOnUse" id="gradient6" spreadMethod="pad" x1="-819.2" x2="819.2">
      <stop offset="0.0" stop-color="#ffffff"/>
      <stop offset="1.0" stop-color="#ffffff"/>
    </linearGradient>
  </defs>
</svg>
