<?xml version="1.0" encoding="UTF-8" standalone="no"?>
<svg xmlns:xlink="http://www.w3.org/1999/xlink" height="191.1px" width="478.45px" xmlns="http://www.w3.org/2000/svg">
  <g transform="matrix(1.0, 0.0, 0.0, 1.0, 25.5, 79.75)">
    <use height="37.65" transform="matrix(1.0, 0.0, 0.0, 1.0, -3.0, -3.0)" width="433.45" xlink:href="#shape0"/>
    <use height="31.65" transform="matrix(1.0, 0.0, 0.0, 1.0, 0.0, 0.0)" width="24.25" xlink:href="#shape1"/>
    <use height="31.65" transform="matrix(1.0, 0.0, 0.0, 1.0, 26.7, 0.0)" width="27.15" xlink:href="#shape2"/>
    <use height="30.45" transform="matrix(1.0, 0.0, 0.0, 1.0, 56.15, 0.55)" width="27.8" xlink:href="#shape3"/>
    <use height="31.65" transform="matrix(1.0, 0.0, 0.0, 1.0, 86.3, 0.0)" width="26.3" xlink:href="#shape4"/>
    <use height="31.1" transform="matrix(1.0, 0.0, 0.0, 1.0, 115.7, 0.55)" width="29.65" xlink:href="#shape5"/>
    <use height="30.45" transform="matrix(1.0, 0.0, 0.0, 1.0, 145.3, 0.55)" width="28.3" xlink:href="#shape6"/>
    <use height="30.45" transform="matrix(1.0, 0.0, 0.0, 1.0, 174.8, 0.55)" width="25.35" xlink:href="#shape7"/>
    <use height="31.1" transform="matrix(1.0, 0.0, 0.0, 1.0, 202.8, 0.55)" width="27.85" xlink:href="#shape8"/>
    <use height="30.45" transform="matrix(1.0, 0.0, 0.0, 1.0, 233.6, 0.55)" width="22.85" xlink:href="#shape9"/>
    <use height="30.45" transform="matrix(1.0, 0.0, 0.0, 1.0, 256.2, 0.7)" width="28.3" xlink:href="#shape6"/>
    <use height="30.45" transform="matrix(1.0, 0.0, 0.0, 1.0, 285.55, 0.7)" width="25.35" xlink:href="#shape7"/>
    <use height="30.45" transform="matrix(1.0, 0.0, 0.0, 1.0, 313.5, 0.55)" width="14.55" xlink:href="#shape10"/>
    <use height="31.65" transform="matrix(1.0, 0.0, 0.0, 1.0, 330.85, -0.2)" width="27.15" xlink:href="#shape2"/>
    <use height="30.45" transform="matrix(1.0, 0.0, 0.0, 1.0, 360.1, 1.0)" width="27.8" xlink:href="#shape3"/>
    <use height="31.65" transform="matrix(1.0, 0.0, 0.0, 1.0, 391.15, 0.0)" width="22.35" xlink:href="#shape11"/>
    <use height="31.65" transform="matrix(1.0, 0.0, 0.0, 1.0, 418.25, 0.0)" width="9.2" xlink:href="#shape12"/>
    <use height="31.65" transform="matrix(1.0092, 0.0, 0.0, 1.0092, -1.95, -0.15)" width="24.25" xlink:href="#shape1"/>
    <use height="31.65" transform="matrix(1.0092, 0.0, 0.0, 1.0092, 25.0, -0.15)" width="27.15" xlink:href="#shape2"/>
    <use height="30.45" transform="matrix(1.0092, 0.0, 0.0, 1.0092, 54.7, 0.4)" width="27.8" xlink:href="#shape3"/>
    <use height="31.65" transform="matrix(1.0092, 0.0, 0.0, 1.0092, 85.15, -0.15)" width="26.3" xlink:href="#shape4"/>
    <use height="31.1" transform="matrix(1.0092, 0.0, 0.0, 1.0092, 114.8, 0.4)" width="29.65" xlink:href="#shape5"/>
    <use height="30.45" transform="matrix(1.0092, 0.0, 0.0, 1.0092, 144.7, 0.4)" width="28.3" xlink:href="#shape6"/>
    <use height="30.45" transform="matrix(1.0092, 0.0, 0.0, 1.0092, 174.45, 0.4)" width="25.35" xlink:href="#shape7"/>
    <use height="31.1" transform="matrix(1.0092, 0.0, 0.0, 1.0092, 202.7, 0.4)" width="27.85" xlink:href="#shape8"/>
    <use height="30.45" transform="matrix(1.0092, 0.0, 0.0, 1.0092, 233.8, 0.4)" width="22.85" xlink:href="#shape9"/>
    <use height="30.45" transform="matrix(1.0092, 0.0, 0.0, 1.0092, 256.6, 0.55)" width="28.3" xlink:href="#shape6"/>
    <use height="30.45" transform="matrix(1.0092, 0.0, 0.0, 1.0092, 286.2, 0.55)" width="25.35" xlink:href="#shape7"/>
    <use height="30.45" transform="matrix(1.0092, 0.0, 0.0, 1.0092, 314.4, 0.4)" width="14.55" xlink:href="#shape10"/>
    <use height="31.65" transform="matrix(1.0092, 0.0, 0.0, 1.0092, 331.95, -0.35)" width="27.15" xlink:href="#shape2"/>
    <use height="30.45" transform="matrix(1.0092, 0.0, 0.0, 1.0092, 361.45, 0.85)" width="27.8" xlink:href="#shape3"/>
    <use height="31.65" transform="matrix(1.0092, 0.0, 0.0, 1.0092, 392.8, -0.15)" width="22.35" xlink:href="#shape11"/>
    <use height="31.65" transform="matrix(1.0092, 0.0, 0.0, 1.0092, 420.15, -0.15)" width="9.2" xlink:href="#shape12"/>
  </g>
  <defs>
    <g id="shape0" transform="matrix(1.0, 0.0, 0.0, 1.0, 3.0, 3.0)">
      <path d="M426.3 10.85 Q424.45 16.3 424.35 19.5 424.25 21.15 422.85 21.15 421.5 21.15 421.4 19.5 421.25 16.1 419.45 10.85 418.25 7.35 418.25 5.55 418.25 0.0 422.85 0.0 427.45 0.0 427.45 5.55 427.45 7.15 426.3 10.85 M412.4 1.8 L412.4 8.75 Q412.4 10.7 411.05 10.7 409.8 10.7 409.6 9.1 409.25 6.8 407.55 4.85 405.75 2.8 403.45 2.3 L403.45 0.0 Q406.0 0.05 409.2 1.55 409.75 1.55 410.2 0.85 410.7 0.1 411.2 0.1 412.4 0.1 412.4 1.8 M423.05 22.85 Q424.95 22.85 426.2 24.15 427.45 25.45 427.45 27.25 427.45 29.05 426.2 30.35 424.95 31.65 423.05 31.65 421.2 31.65 419.9 30.35 418.65 29.05 418.65 27.25 418.65 25.45 419.9 24.15 421.2 22.85 423.05 22.85 M410.1 28.7 Q406.9 31.55 402.2 31.65 L402.2 29.25 Q405.85 28.15 405.95 25.5 406.0 23.2 401.05 21.05 396.2 19.0 394.15 17.2 391.15 14.45 391.15 10.15 391.15 5.6 394.15 2.85 397.0 0.1 401.6 0.0 L401.6 2.3 Q398.7 3.35 398.7 5.65 398.7 8.4 404.65 10.75 413.5 14.15 413.5 21.1 413.5 25.7 410.1 28.7 M388.05 1.8 Q388.05 2.25 386.4 3.4 384.7 4.55 384.7 7.95 L384.7 17.8 384.65 17.8 382.35 13.7 382.35 7.95 Q382.35 4.55 380.7 3.4 379.0 2.25 379.0 1.8 379.0 0.55 380.75 0.55 L386.3 0.55 Q388.05 0.55 388.05 1.8 M392.45 19.9 Q393.75 19.9 393.95 21.25 394.4 24.0 396.05 26.2 397.9 28.75 400.4 29.25 L400.4 31.65 Q398.4 31.6 396.7 30.85 395.1 30.1 394.6 30.1 393.9 30.1 393.4 30.8 L392.4 31.45 Q391.15 31.45 391.15 29.75 L391.15 21.9 Q391.15 19.9 392.45 19.9 M384.7 21.15 L384.7 31.0 378.65 31.0 363.75 5.3 Q362.7 3.5 361.55 3.15 360.3 2.7 360.3 1.8 360.3 0.7 362.4 0.55 L372.85 0.55 384.7 21.15 M365.85 24.6 Q366.25 27.5 367.7 28.45 369.1 29.35 369.1 29.85 369.1 31.0 367.0 31.0 L362.35 31.0 Q360.25 31.0 360.25 29.85 360.25 29.35 361.65 28.45 363.15 27.5 363.5 24.6 L363.5 8.2 363.6 8.2 365.85 12.3 365.85 24.6 M345.25 2.3 L345.25 0.0 Q351.45 0.5 354.8 5.15 357.9 9.35 357.9 15.8 357.9 22.25 354.8 26.45 351.45 31.1 345.25 31.65 L345.25 29.25 Q347.35 28.5 347.35 26.35 L347.35 5.25 Q347.35 3.05 345.25 2.3 M327.15 2.9 Q325.75 3.35 325.75 5.1 L325.75 26.45 Q325.75 27.65 325.9 27.95 L327.15 28.65 Q328.05 28.9 328.05 29.75 328.05 31.0 326.55 31.0 L315.0 31.0 Q313.5 31.0 313.5 29.75 313.5 28.9 314.4 28.65 315.45 28.35 315.65 27.95 L315.8 26.45 315.8 5.1 315.65 3.6 Q315.45 3.2 314.4 2.9 313.5 2.65 313.5 1.8 313.5 0.55 315.0 0.55 L326.55 0.55 Q328.05 0.55 328.05 1.8 328.05 2.65 327.15 2.9 M343.45 2.3 Q341.35 3.05 341.35 5.25 L341.35 26.35 Q341.35 28.5 343.45 29.25 L343.45 31.65 Q337.25 31.1 333.85 26.45 330.75 22.25 330.75 15.8 330.75 9.35 333.85 5.15 337.25 0.5 343.45 0.0 L343.45 2.3 M304.95 0.55 L310.8 0.55 310.8 10.05 Q310.8 11.25 309.5 11.25 308.35 11.25 308.0 9.25 307.25 4.6 304.95 2.9 L304.95 0.55 M303.1 0.55 L303.1 26.45 Q303.1 28.2 304.5 28.65 305.4 28.9 305.4 29.75 305.4 31.0 303.9 31.0 L292.4 31.0 Q290.85 31.0 290.85 29.75 290.85 28.9 291.75 28.65 292.8 28.35 293.0 27.95 L293.15 26.45 293.15 0.55 303.1 0.55 M291.3 2.9 Q289.15 4.5 288.25 9.25 288.05 11.25 286.8 11.25 285.45 11.25 285.45 10.05 L285.45 0.55 291.3 0.55 291.3 2.9 M265.25 6.25 L266.3 10.85 262.5 24.8 Q261.75 27.65 263.8 28.55 265.0 29.1 265.0 29.9 265.0 31.0 262.9 31.0 L258.2 31.0 Q256.75 31.0 256.25 30.55 L256.25 31.0 247.65 31.0 247.65 28.65 Q252.25 28.0 253.7 21.55 253.95 20.45 255.25 20.45 256.25 20.45 256.25 22.0 L256.25 29.25 257.55 28.4 Q259.4 27.45 260.25 24.15 L265.15 6.25 265.25 6.25 M266.7 0.55 L275.7 0.55 281.8 26.3 Q282.25 28.25 283.2 28.7 284.25 29.15 284.25 29.95 284.25 31.0 282.0 31.0 L271.85 31.0 Q269.85 31.0 269.85 29.9 269.85 29.1 270.65 28.75 271.9 28.0 271.5 26.25 L270.7 23.1 264.75 23.1 265.3 20.75 270.25 20.75 266.15 2.75 266.7 0.55 M247.25 2.9 Q245.85 3.35 245.85 5.1 L245.85 31.0 235.1 31.0 Q233.6 31.0 233.6 29.75 233.6 28.9 234.5 28.65 235.85 28.2 235.85 26.45 L235.85 5.1 Q235.85 3.35 234.5 2.9 233.6 2.65 233.6 1.8 233.6 0.55 235.1 0.55 L246.6 0.55 Q248.1 0.55 248.1 1.8 248.1 2.65 247.25 2.9 M223.2 3.1 Q221.8 2.25 221.8 1.75 221.8 0.55 223.9 0.55 L228.55 0.55 Q230.65 0.55 230.65 1.75 230.65 2.25 229.25 3.1 227.8 4.05 227.4 7.0 L227.4 22.35 Q227.15 26.85 224.35 29.45 222.15 31.5 219.6 31.55 L219.6 29.15 Q224.7 27.6 225.05 22.25 L225.05 7.0 Q224.7 4.05 223.2 3.1 M216.45 2.9 Q215.05 3.35 215.05 5.1 L215.05 24.7 Q215.05 28.45 217.75 29.2 L217.75 31.65 Q212.15 31.65 209.25 30.05 205.1 27.75 205.1 24.4 L205.1 5.1 204.95 3.6 Q204.75 3.2 203.7 2.9 202.8 2.65 202.8 1.8 202.8 0.55 204.3 0.55 L215.85 0.55 Q217.35 0.55 217.35 1.8 217.35 2.65 216.45 2.9 M192.45 0.55 L192.45 26.45 Q192.45 28.2 193.85 28.65 194.75 28.9 194.75 29.75 194.75 31.0 193.25 31.0 L181.7 31.0 Q180.2 31.0 180.2 29.75 180.2 28.9 181.1 28.65 L182.35 27.95 182.5 26.45 182.5 0.55 192.45 0.55 M200.15 10.05 Q200.15 11.25 198.8 11.25 197.55 11.25 197.35 9.25 196.6 4.6 194.3 2.9 L194.3 0.55 200.15 0.55 200.15 10.05 M180.65 2.9 Q178.35 4.6 177.6 9.25 177.4 11.25 176.15 11.25 174.8 11.25 174.8 10.05 L174.8 0.55 180.65 0.55 180.65 2.9 M173.6 29.95 Q173.6 31.0 171.35 31.0 L161.2 31.0 Q159.2 31.0 159.2 29.9 159.2 29.1 160.0 28.75 161.25 28.0 160.85 26.25 L160.0 23.1 154.05 23.1 154.65 20.75 159.6 20.75 155.5 2.75 156.05 0.55 165.05 0.55 171.15 26.3 Q171.6 28.3 172.55 28.7 173.6 29.15 173.6 29.95 M154.6 6.25 L155.65 10.85 151.85 24.8 Q151.1 27.65 153.15 28.55 154.35 29.1 154.35 29.9 154.35 31.0 152.25 31.0 L147.55 31.0 Q145.3 31.0 145.3 29.8 145.3 29.2 146.85 28.4 148.7 27.45 149.6 24.15 L154.5 6.25 154.6 6.25 M132.3 6.7 Q132.3 3.85 129.8 2.95 L129.8 0.55 130.0 0.55 Q135.55 0.55 137.85 1.65 142.0 3.7 142.0 8.35 142.15 14.3 134.85 16.05 L134.85 16.1 Q141.95 17.15 142.0 22.0 L142.0 25.6 Q142.0 26.8 142.45 26.8 L143.2 26.2 Q143.65 25.6 144.2 25.6 145.35 25.6 145.35 26.8 145.35 28.4 143.1 30.15 141.35 31.65 138.5 31.65 135.65 31.65 133.9 29.9 132.3 28.25 132.3 24.75 L132.3 22.0 Q132.3 17.8 129.8 17.6 L129.8 15.2 Q132.3 14.9 132.3 11.65 L132.3 6.7 M129.35 28.65 Q130.25 28.9 130.25 29.75 130.25 31.0 128.75 31.0 L117.25 31.0 Q115.7 31.0 115.7 29.75 115.7 28.9 116.6 28.65 117.65 28.35 117.85 27.95 L118.0 26.45 118.0 5.1 117.85 3.6 Q117.65 3.2 116.6 2.9 115.7 2.65 115.7 1.8 115.7 0.55 117.25 0.55 L128.0 0.55 128.0 26.45 Q128.0 28.2 129.35 28.65 M108.75 0.75 Q109.35 0.0 110.0 0.0 111.1 0.0 111.1 1.25 L111.1 10.35 Q111.1 11.8 109.85 11.8 108.7 11.8 108.3 10.15 106.5 2.55 100.65 2.3 L100.65 0.0 Q104.95 0.3 107.6 1.45 L108.75 0.75 M111.15 15.6 Q112.6 15.6 112.6 16.8 112.6 17.5 111.85 18.05 111.1 18.5 111.1 19.25 L111.1 27.3 Q106.5 31.5 100.65 31.65 L100.65 29.25 Q102.55 28.7 102.55 26.65 L102.55 19.35 Q102.55 18.25 100.85 17.95 99.8 17.7 99.8 16.7 99.8 15.6 101.45 15.6 L111.15 15.6 M82.3 3.4 Q80.65 4.55 80.65 7.95 L80.65 17.8 80.55 17.8 78.25 13.7 78.25 7.95 Q78.25 4.55 76.6 3.4 74.95 2.25 74.95 1.8 74.95 0.55 76.7 0.55 L82.2 0.55 Q83.95 0.55 83.95 1.8 83.95 2.25 82.3 3.4 M98.85 2.3 Q96.85 3.05 96.85 6.0 L96.85 25.5 Q96.85 28.6 98.85 29.25 L98.85 31.65 Q93.55 31.45 89.9 26.9 86.3 22.35 86.3 15.8 86.3 9.25 89.9 4.7 93.55 0.1 98.85 0.0 L98.85 2.3 M61.8 24.6 Q62.2 27.5 63.65 28.45 65.05 29.35 65.05 29.85 65.05 31.0 62.9 31.0 L58.3 31.0 Q56.15 31.0 56.15 29.85 56.15 29.35 57.55 28.45 59.05 27.5 59.4 24.6 L59.4 8.2 59.5 8.2 61.8 12.3 61.8 24.6 M80.65 21.15 L80.65 31.0 74.55 31.0 59.65 5.3 Q58.6 3.5 57.45 3.15 56.25 2.7 56.25 1.8 56.25 0.65 58.3 0.55 L68.8 0.55 80.65 21.15 M41.2 0.0 Q47.35 0.5 50.75 5.15 53.85 9.35 53.85 15.8 53.85 22.25 50.75 26.45 47.35 31.1 41.2 31.65 L41.2 29.25 Q43.25 28.5 43.25 26.35 L43.25 5.25 Q43.25 3.05 41.2 2.3 L41.2 0.0 M39.35 2.3 Q37.25 3.1 37.25 5.25 L37.25 26.35 Q37.25 28.5 39.35 29.25 L39.35 31.65 Q33.15 31.1 29.8 26.45 26.7 22.25 26.7 15.8 26.7 9.35 29.8 5.15 33.15 0.5 39.35 0.0 L39.35 2.3 M24.2 1.4 L24.2 10.85 Q24.2 12.35 22.9 12.35 21.7 12.35 21.4 10.85 19.85 3.65 15.0 2.3 L15.0 0.0 Q16.5 0.05 20.7 1.6 21.45 1.6 21.8 0.8 22.2 0.0 22.9 0.0 24.2 0.0 24.2 1.4 M24.25 23.55 Q24.15 26.15 21.2 28.9 18.1 31.75 15.0 31.65 L15.0 29.25 Q20.35 28.05 21.7 23.5 22.05 22.2 23.0 22.2 24.25 22.2 24.25 23.55 M13.15 2.3 Q10.55 2.85 10.55 6.1 L10.55 25.4 Q10.55 28.65 13.15 29.25 L13.15 31.65 Q6.75 31.5 3.2 27.05 0.0 22.9 0.0 16.3 0.0 9.25 3.6 4.7 7.25 0.2 13.15 0.0 L13.15 2.3" fill="none" stroke="#ffffff" stroke-linecap="round" stroke-linejoin="round" stroke-width="6.0"/>
    </g>
    <g id="shape1" transform="matrix(1.0, 0.0, 0.0, 1.0, 0.0, 0.0)">
      <path d="M13.15 2.3 Q10.55 2.85 10.55 6.1 L10.55 25.4 Q10.55 28.65 13.15 29.25 L13.15 31.65 Q6.75 31.5 3.2 27.05 0.0 22.9 0.0 16.3 0.0 9.25 3.6 4.7 7.25 0.2 13.15 0.0 L13.15 2.3 M20.7 1.6 Q21.45 1.6 21.8 0.8 22.2 0.0 22.9 0.0 24.2 0.0 24.2 1.4 L24.2 10.85 Q24.2 12.35 22.9 12.35 21.7 12.35 21.4 10.85 19.85 3.65 15.0 2.3 L15.0 0.0 Q16.5 0.05 20.7 1.6 M21.7 23.5 Q22.05 22.2 23.0 22.2 24.25 22.2 24.25 23.55 24.15 26.15 21.2 28.9 18.1 31.75 15.0 31.65 L15.0 29.25 Q20.35 28.05 21.7 23.5" fill="url(#gradient0)" fill-rule="evenodd" stroke="none"/>
    </g>
    <linearGradient gradientTransform="matrix(0.0, -0.0207, 0.9999, 7.0E-4, 68.8, 15.4)" gradientUnits="userSpaceOnUse" id="gradient0" spreadMethod="pad" x1="-819.2" x2="819.2">
      <stop offset="0.0" stop-color="#4e05ae"/>
      <stop offset="1.0" stop-color="#ff88ae"/>
    </linearGradient>
    <g id="shape2" transform="matrix(1.0, 0.0, 0.0, 1.0, 0.0, 0.0)">
      <path d="M27.15 15.8 Q27.15 22.25 24.05 26.45 20.65 31.1 14.5 31.65 L14.5 29.25 Q16.55 28.5 16.55 26.35 L16.55 5.25 Q16.55 3.05 14.5 2.3 L14.5 0.0 Q20.65 0.5 24.05 5.15 27.15 9.35 27.15 15.8 M12.65 2.3 Q10.55 3.1 10.55 5.25 L10.55 26.35 Q10.55 28.5 12.65 29.25 L12.65 31.65 Q6.45 31.1 3.1 26.45 0.0 22.25 0.0 15.8 0.0 9.35 3.1 5.15 6.45 0.5 12.65 0.0 L12.65 2.3" fill="url(#gradient1)" fill-rule="evenodd" stroke="none"/>
    </g>
    <linearGradient gradientTransform="matrix(0.0, -0.0207, 0.9999, 7.0E-4, 42.1, 15.4)" gradientUnits="userSpaceOnUse" id="gradient1" spreadMethod="pad" x1="-819.2" x2="819.2">
      <stop offset="0.0" stop-color="#4e05ae"/>
      <stop offset="1.0" stop-color="#ff88ae"/>
    </linearGradient>
    <g id="shape3" transform="matrix(1.0, 0.0, 0.0, 1.0, 0.0, 0.0)">
      <path d="M27.8 1.25 Q27.8 1.7 26.15 2.85 24.5 4.0 24.5 7.4 L24.5 17.25 24.4 17.25 22.1 13.15 22.1 7.4 Q22.1 4.0 20.45 2.85 18.8 1.7 18.8 1.25 18.8 0.0 20.55 0.0 L26.05 0.0 Q27.8 0.0 27.8 1.25 M24.5 20.6 L24.5 30.45 18.4 30.45 3.5 4.75 Q2.45 2.95 1.3 2.6 0.1 2.15 0.1 1.25 0.1 0.1 2.15 0.0 L12.65 0.0 24.5 20.6 M5.65 24.05 Q6.05 26.95 7.5 27.9 8.9 28.8 8.9 29.3 8.9 30.45 6.75 30.45 L2.15 30.45 Q0.0 30.45 0.0 29.3 0.0 28.8 1.4 27.9 2.9 26.95 3.25 24.05 L3.25 7.65 3.35 7.65 5.65 11.75 5.65 24.05" fill="url(#gradient2)" fill-rule="evenodd" stroke="none"/>
    </g>
    <linearGradient gradientTransform="matrix(0.0, -0.0207, 0.9999, 7.0E-4, 12.65, 14.85)" gradientUnits="userSpaceOnUse" id="gradient2" spreadMethod="pad" x1="-819.2" x2="819.2">
      <stop offset="0.0" stop-color="#4e05ae"/>
      <stop offset="1.0" stop-color="#ff88ae"/>
    </linearGradient>
    <g id="shape4" transform="matrix(1.0, 0.0, 0.0, 1.0, 0.0, 0.0)">
      <path d="M22.0 10.15 Q20.2 2.55 14.35 2.3 L14.35 0.0 Q18.65 0.3 21.3 1.45 21.9 1.45 22.45 0.75 23.05 0.0 23.7 0.0 24.8 0.0 24.8 1.25 L24.8 10.35 Q24.8 11.8 23.55 11.8 22.4 11.8 22.0 10.15 M24.85 15.6 Q26.3 15.6 26.3 16.8 26.3 17.5 25.55 18.05 24.8 18.5 24.8 19.25 L24.8 27.3 Q20.2 31.5 14.35 31.65 L14.35 29.25 Q16.25 28.7 16.25 26.65 L16.25 19.35 Q16.25 18.25 14.55 17.95 13.5 17.7 13.5 16.7 13.5 15.6 15.15 15.6 L24.85 15.6 M12.55 0.0 L12.55 2.3 Q10.55 3.05 10.55 6.0 L10.55 25.5 Q10.55 28.6 12.55 29.25 L12.55 31.65 Q7.25 31.45 3.6 26.9 0.0 22.35 0.0 15.8 0.0 9.25 3.6 4.7 7.25 0.1 12.55 0.0" fill="url(#gradient3)" fill-rule="evenodd" stroke="none"/>
    </g>
    <linearGradient gradientTransform="matrix(0.0, -0.0207, 0.9999, 7.0E-4, -17.5, 15.4)" gradientUnits="userSpaceOnUse" id="gradient3" spreadMethod="pad" x1="-819.2" x2="819.2">
      <stop offset="0.0" stop-color="#4e05ae"/>
      <stop offset="1.0" stop-color="#ff88ae"/>
    </linearGradient>
    <g id="shape5" transform="matrix(1.0, 0.0, 0.0, 1.0, 0.0, 0.0)">
      <path d="M16.6 6.15 Q16.6 3.3 14.1 2.4 L14.1 0.0 14.3 0.0 Q19.85 0.0 22.15 1.1 26.3 3.15 26.3 7.8 26.45 13.75 19.15 15.5 L19.15 15.55 Q26.25 16.6 26.3 21.45 L26.3 25.05 Q26.3 26.25 26.75 26.25 L27.5 25.65 Q27.95 25.05 28.5 25.05 29.65 25.05 29.65 26.25 29.65 27.85 27.4 29.6 25.65 31.1 22.8 31.1 19.95 31.1 18.2 29.35 16.6 27.7 16.6 24.2 L16.6 21.45 Q16.6 17.25 14.1 17.05 L14.1 14.65 Q16.6 14.35 16.6 11.1 L16.6 6.15 M14.55 29.2 Q14.55 30.45 13.05 30.45 L1.55 30.45 Q0.0 30.45 0.0 29.2 0.0 28.35 0.9 28.1 1.95 27.8 2.15 27.4 L2.3 25.9 2.3 4.55 2.15 3.05 Q1.95 2.65 0.9 2.35 0.0 2.1 0.0 1.25 0.0 0.0 1.55 0.0 L12.3 0.0 12.3 25.9 Q12.3 27.65 13.65 28.1 14.55 28.35 14.55 29.2" fill="url(#gradient4)" fill-rule="evenodd" stroke="none"/>
    </g>
    <linearGradient gradientTransform="matrix(0.0, -0.0207, 0.9999, 7.0E-4, -46.9, 14.85)" gradientUnits="userSpaceOnUse" id="gradient4" spreadMethod="pad" x1="-819.2" x2="819.2">
      <stop offset="0.0" stop-color="#4e05ae"/>
      <stop offset="1.0" stop-color="#ff88ae"/>
    </linearGradient>
    <g id="shape6" transform="matrix(1.0, 0.0, 0.0, 1.0, 0.0, 0.0)">
      <path d="M25.85 25.75 Q26.3 27.75 27.25 28.15 28.3 28.6 28.3 29.4 28.3 30.45 26.05 30.45 L15.9 30.45 Q13.9 30.45 13.9 29.35 13.9 28.55 14.7 28.2 15.95 27.45 15.55 25.7 L14.7 22.55 8.75 22.55 9.35 20.2 14.3 20.2 10.2 2.2 10.75 0.0 19.75 0.0 25.85 25.75 M10.35 10.3 L6.55 24.25 Q5.8 27.1 7.85 28.0 9.05 28.55 9.05 29.35 9.05 30.45 6.95 30.45 L2.25 30.45 Q0.0 30.45 0.0 29.25 0.0 28.65 1.55 27.85 3.4 26.9 4.3 23.6 L9.2 5.7 9.3 5.7 10.35 10.3" fill="url(#gradient5)" fill-rule="evenodd" stroke="none"/>
    </g>
    <linearGradient gradientTransform="matrix(0.0, -0.0207, 0.9999, 7.0E-4, -76.5, 14.85)" gradientUnits="userSpaceOnUse" id="gradient5" spreadMethod="pad" x1="-819.2" x2="819.2">
      <stop offset="0.0" stop-color="#4e05ae"/>
      <stop offset="1.0" stop-color="#ff88ae"/>
    </linearGradient>
    <g id="shape7" transform="matrix(1.0, 0.0, 0.0, 1.0, 0.0, 0.0)">
      <path d="M25.35 9.5 Q25.35 10.7 24.0 10.7 22.75 10.7 22.55 8.7 21.8 4.05 19.5 2.35 L19.5 0.0 25.35 0.0 25.35 9.5 M17.65 0.0 L17.65 25.9 Q17.65 27.65 19.05 28.1 19.95 28.35 19.95 29.2 19.95 30.45 18.45 30.45 L6.9 30.45 Q5.4 30.45 5.4 29.2 5.4 28.35 6.3 28.1 L7.55 27.4 7.7 25.9 7.7 0.0 17.65 0.0 M0.0 0.0 L5.85 0.0 5.85 2.35 Q3.55 4.05 2.8 8.7 2.6 10.7 1.35 10.7 0.0 10.7 0.0 9.5 L0.0 0.0" fill="url(#gradient6)" fill-rule="evenodd" stroke="none"/>
    </g>
    <linearGradient gradientTransform="matrix(0.0, -0.0207, 0.9999, 7.0E-4, -106.0, 14.85)" gradientUnits="userSpaceOnUse" id="gradient6" spreadMethod="pad" x1="-819.2" x2="819.2">
      <stop offset="0.0" stop-color="#4e05ae"/>
      <stop offset="1.0" stop-color="#ff88ae"/>
    </linearGradient>
    <g id="shape8" transform="matrix(1.0, 0.0, 0.0, 1.0, 0.0, 0.0)">
      <path d="M20.4 2.55 Q19.0 1.7 19.0 1.2 19.0 0.0 21.1 0.0 L25.75 0.0 Q27.85 0.0 27.85 1.2 27.85 1.7 26.45 2.55 25.0 3.5 24.6 6.45 L24.6 21.8 Q24.35 26.3 21.55 28.9 19.35 30.95 16.8 31.0 L16.8 28.6 Q21.9 27.05 22.25 21.7 L22.25 6.45 Q21.9 3.5 20.4 2.55 M13.65 2.35 Q12.25 2.8 12.25 4.55 L12.25 24.15 Q12.25 27.9 14.95 28.65 L14.95 31.1 Q9.35 31.1 6.45 29.5 2.3 27.2 2.3 23.85 L2.3 4.55 2.15 3.05 Q1.95 2.65 0.9 2.35 0.0 2.1 0.0 1.25 0.0 0.0 1.5 0.0 L13.05 0.0 Q14.55 0.0 14.55 1.25 14.55 2.1 13.65 2.35" fill="url(#gradient7)" fill-rule="evenodd" stroke="none"/>
    </g>
    <linearGradient gradientTransform="matrix(0.0, -0.0207, 0.9999, 7.0E-4, -134.0, 14.85)" gradientUnits="userSpaceOnUse" id="gradient7" spreadMethod="pad" x1="-819.2" x2="819.2">
      <stop offset="0.0" stop-color="#4e05ae"/>
      <stop offset="1.0" stop-color="#ff88ae"/>
    </linearGradient>
    <g id="shape9" transform="matrix(1.0, 0.0, 0.0, 1.0, 0.0, 0.0)">
      <path d="M14.5 1.25 Q14.5 2.1 13.65 2.35 12.25 2.8 12.25 4.55 L12.25 30.45 1.5 30.45 Q0.0 30.45 0.0 29.2 0.0 28.35 0.9 28.1 2.25 27.65 2.25 25.9 L2.25 4.55 Q2.25 2.8 0.9 2.35 0.0 2.1 0.0 1.25 0.0 0.0 1.5 0.0 L13.0 0.0 Q14.5 0.0 14.5 1.25 M21.65 19.9 Q22.65 19.9 22.65 21.45 L22.65 28.7 22.85 28.55 22.85 30.15 22.65 30.0 22.65 30.45 14.05 30.45 14.05 28.1 Q18.65 27.45 20.1 21.0 20.35 19.9 21.65 19.9" fill="url(#gradient8)" fill-rule="evenodd" stroke="none"/>
    </g>
    <linearGradient gradientTransform="matrix(0.0, -0.0207, 0.9999, 7.0E-4, -164.8, 14.85)" gradientUnits="userSpaceOnUse" id="gradient8" spreadMethod="pad" x1="-819.2" x2="819.2">
      <stop offset="0.0" stop-color="#4e05ae"/>
      <stop offset="1.0" stop-color="#ff88ae"/>
    </linearGradient>
    <g id="shape10" transform="matrix(1.0, 0.0, 0.0, 1.0, 0.0, 0.0)">
      <path d="M12.25 25.9 Q12.25 27.1 12.4 27.4 12.6 27.8 13.65 28.1 14.55 28.35 14.55 29.2 14.55 30.45 13.05 30.45 L1.5 30.45 Q0.0 30.45 0.0 29.2 0.0 28.35 0.9 28.1 1.95 27.8 2.15 27.4 L2.3 25.9 2.3 4.55 2.15 3.05 Q1.95 2.65 0.9 2.35 0.0 2.1 0.0 1.25 0.0 0.0 1.5 0.0 L13.05 0.0 Q14.55 0.0 14.55 1.25 14.55 2.1 13.65 2.35 12.25 2.8 12.25 4.55 L12.25 25.9" fill="url(#gradient9)" fill-rule="evenodd" stroke="none"/>
    </g>
    <linearGradient gradientTransform="matrix(0.0, -0.0207, 0.9999, 7.0E-4, -244.7, 14.85)" gradientUnits="userSpaceOnUse" id="gradient9" spreadMethod="pad" x1="-819.2" x2="819.2">
      <stop offset="0.0" stop-color="#4e05ae"/>
      <stop offset="1.0" stop-color="#ff88ae"/>
    </linearGradient>
    <g id="shape11" transform="matrix(1.0, 0.0, 0.0, 1.0, 0.0, 0.0)">
      <path d="M18.95 28.7 Q15.75 31.55 11.05 31.65 L11.05 29.25 Q14.7 28.15 14.8 25.5 14.85 23.2 9.9 21.05 5.05 19.0 3.0 17.2 0.0 14.45 0.0 10.15 0.0 5.6 3.0 2.85 5.85 0.1 10.45 0.0 L10.45 2.3 Q7.55 3.35 7.55 5.65 7.55 8.4 13.5 10.75 22.35 14.15 22.35 21.1 22.35 25.7 18.95 28.7 M16.4 4.85 Q14.6 2.8 12.3 2.3 L12.3 0.0 Q14.85 0.05 18.05 1.55 L19.05 0.85 Q19.55 0.1 20.05 0.1 21.25 0.1 21.25 1.8 L21.25 8.75 Q21.25 10.7 19.9 10.7 18.65 10.7 18.45 9.1 18.1 6.8 16.4 4.85 M1.3 19.9 Q2.6 19.9 2.8 21.25 3.25 24.0 4.9 26.2 6.75 28.75 9.25 29.25 L9.25 31.65 Q7.25 31.6 5.55 30.85 3.95 30.1 3.45 30.1 2.75 30.1 2.25 30.8 1.75 31.45 1.25 31.45 0.0 31.45 0.0 29.75 L0.0 21.9 Q0.0 19.9 1.3 19.9" fill="url(#gradient10)" fill-rule="evenodd" stroke="none"/>
    </g>
    <linearGradient gradientTransform="matrix(0.0, -0.0207, 0.9999, 7.0E-4, -322.35, 15.4)" gradientUnits="userSpaceOnUse" id="gradient10" spreadMethod="pad" x1="-819.2" x2="819.2">
      <stop offset="0.0" stop-color="#4e05ae"/>
      <stop offset="1.0" stop-color="#ff88ae"/>
    </linearGradient>
    <g id="shape12" transform="matrix(1.0, 0.0, 0.0, 1.0, 0.0, 0.0)">
      <path d="M8.05 10.85 Q6.2 16.3 6.1 19.5 6.0 21.15 4.6 21.15 3.25 21.15 3.15 19.5 3.0 16.1 1.2 10.85 0.0 7.35 0.0 5.55 0.0 0.0 4.6 0.0 9.2 0.0 9.2 5.55 9.2 7.15 8.05 10.85 M4.8 22.85 Q6.7 22.85 7.95 24.15 9.2 25.45 9.2 27.25 9.2 29.05 7.95 30.35 6.7 31.65 4.8 31.65 2.95 31.65 1.65 30.35 0.4 29.05 0.4 27.25 0.4 25.45 1.65 24.15 2.95 22.85 4.8 22.85" fill="url(#gradient11)" fill-rule="evenodd" stroke="none"/>
    </g>
    <linearGradient gradientTransform="matrix(0.0, -0.0207, 0.9999, 7.0E-4, -349.45, 15.4)" gradientUnits="userSpaceOnUse" id="gradient11" spreadMethod="pad" x1="-819.2" x2="819.2">
      <stop offset="0.0" stop-color="#4e05ae"/>
      <stop offset="1.0" stop-color="#ff88ae"/>
    </linearGradient>
  </defs>
</svg>
