<?xml version="1.0" encoding="UTF-8" standalone="no"?>
<svg xmlns:xlink="http://www.w3.org/1999/xlink" height="32.55px" width="258.05px" xmlns="http://www.w3.org/2000/svg">
  <g transform="matrix(1.0, 0.0, 0.0, 1.0, 106.1, 15.05)">
    <use height="11.55" transform="matrix(1.0, 0.0, 0.0, 1.0, -60.15, -4.05)" width="120.0" xlink:href="#text0"/>
  </g>
  <defs>
    <g id="text0" transform="matrix(1.0, 0.0, 0.0, 1.0, 4.05, -3.95)">
      <g transform="matrix(1.0, 0.0, 0.0, 1.0, -4.9, 0.0)">
        <use fill="#333333" height="11.55" transform="matrix(0.3125, 0.0, 0.0, 0.3125, 0.0, 14.0)" width="120.0" xlink:href="#font_______W7_N0"/>
        <use fill="#333333" height="11.55" transform="matrix(0.3125, 0.0, 0.0, 0.3125, 11.3, 14.0)" width="120.0" xlink:href="#font_______W7_o0"/>
        <use fill="#333333" height="11.55" transform="matrix(0.3125, 0.0, 0.0, 0.3125, 19.9, 14.0)" width="120.0" xlink:href="#font_______W7_n0"/>
        <use fill="#333333" height="11.55" transform="matrix(0.3125, 0.0, 0.0, 0.3125, 29.0, 14.0)" width="120.0" xlink:href="#font_______W7_-0"/>
        <use fill="#333333" height="11.55" transform="matrix(0.3125, 0.0, 0.0, 0.3125, 34.35, 14.0)" width="120.0" xlink:href="#font_______W7_s0"/>
        <use fill="#333333" height="11.55" transform="matrix(0.3125, 0.0, 0.0, 0.3125, 42.65, 14.0)" width="120.0" xlink:href="#font_______W7_t0"/>
        <use fill="#333333" height="11.55" transform="matrix(0.3125, 0.0, 0.0, 0.3125, 50.25, 14.0)" width="120.0" xlink:href="#font_______W7_o0"/>
        <use fill="#333333" height="11.55" transform="matrix(0.3125, 0.0, 0.0, 0.3125, 58.85, 14.0)" width="120.0" xlink:href="#font_______W7_p0"/>
        <use fill="#333333" height="11.55" transform="matrix(0.3125, 0.0, 0.0, 0.3125, 73.45, 14.0)" width="120.0" xlink:href="#font_______W7_p0"/>
        <use fill="#333333" height="11.55" transform="matrix(0.3125, 0.0, 0.0, 0.3125, 82.7, 14.0)" width="120.0" xlink:href="#font_______W7_r0"/>
        <use fill="#333333" height="11.55" transform="matrix(0.3125, 0.0, 0.0, 0.3125, 88.65, 14.0)" width="120.0" xlink:href="#font_______W7_o0"/>
        <use fill="#333333" height="11.55" transform="matrix(0.3125, 0.0, 0.0, 0.3125, 97.25, 14.0)" width="120.0" xlink:href="#font_______W7_f0"/>
        <use fill="#333333" height="11.55" transform="matrix(0.3125, 0.0, 0.0, 0.3125, 103.05, 14.0)" width="120.0" xlink:href="#font_______W7_i0"/>
        <use fill="#333333" height="11.55" transform="matrix(0.3125, 0.0, 0.0, 0.3125, 108.9, 14.0)" width="120.0" xlink:href="#font_______W7_t0"/>
        <use fill="#333333" height="11.55" transform="matrix(0.3125, 0.0, 0.0, 0.3125, 116.5, 14.0)" width="120.0" xlink:href="#font_______W7__1"/>
      </g>
    </g>
    <g id="font_______W7_N0">
      <path d="M23.5 -32.15 L23.5 -32.15 24.85 -14.2 9.85 -31.5 5.1 -32.15 2.55 0.05 12.6 -1.4 10.6 -23.35 25.9 0.05 30.75 -0.65 33.55 -30.75 23.5 -32.15" fill-rule="evenodd" stroke="none"/>
    </g>
    <g id="font_______W7_o0">
      <path d="M15.8 -13.5 L15.8 -13.5 Q16.45 -11.85 16.45 -10.4 16.45 -6.85 12.35 -6.85 10.6 -6.85 9.35 -8.05 8.15 -9.35 8.15 -11.05 8.15 -13.25 9.8 -14.6 11.4 -16.0 13.7 -16.0 16.1 -16.0 18.3 -14.3 L15.8 -13.5 M25.7 -11.4 L25.7 -11.4 Q25.7 -13.8 24.75 -16.35 L21.25 -15.25 22.7 -17.2 Q18.35 -21.45 13.15 -21.45 8.45 -21.45 5.1 -18.2 1.8 -14.95 1.8 -10.3 1.8 -5.5 5.4 -2.65 8.65 0.05 13.65 0.05 18.75 0.05 22.2 -3.2 25.7 -6.4 25.7 -11.4" fill-rule="evenodd" stroke="none"/>
    </g>
    <g id="font_______W7_n0">
      <path d="M27.0 -9.05 L27.0 -9.05 Q27.0 -14.5 24.65 -17.8 21.9 -21.45 16.6 -21.45 12.6 -21.45 9.45 -18.85 L9.2 -20.75 4.35 -21.45 2.05 0.05 11.95 -1.4 10.35 -12.55 Q12.95 -15.85 15.9 -15.85 19.4 -15.85 19.4 -10.6 19.4 -6.9 16.6 -1.3 L26.2 0.0 Q27.0 -6.5 27.0 -9.05" fill-rule="evenodd" stroke="none"/>
    </g>
    <g id="font_______W7_-0">
      <path d="M13.3 -20.55 L13.3 -20.55 2.1 -16.75 3.3 -11.35 14.9 -11.4 13.3 -20.55" fill-rule="evenodd" stroke="none"/>
    </g>
    <g id="font_______W7_s0">
      <path d="M25.05 -6.35 L25.05 -6.35 Q25.05 -12.25 15.35 -13.65 8.7 -14.6 8.7 -15.7 8.7 -17.05 12.35 -17.05 17.1 -17.05 22.25 -14.8 L23.8 -18.2 Q19.05 -21.45 12.25 -21.45 8.55 -21.45 6.05 -20.35 2.6 -18.85 2.6 -15.7 2.6 -13.1 4.75 -11.8 6.5 -10.75 10.95 -10.05 L16.3 -8.95 Q17.8 -8.4 17.8 -7.5 17.8 -6.2 15.25 -6.2 12.3 -6.2 9.1 -7.45 5.9 -8.7 3.8 -10.65 L1.0 -2.6 Q6.45 0.05 14.3 0.05 25.05 0.05 25.05 -6.35" fill-rule="evenodd" stroke="none"/>
    </g>
    <g id="font_______W7_t0">
      <path d="M18.7 -12.2 L18.7 -12.2 Q17.0 -9.35 14.9 -9.35 11.95 -9.35 11.95 -15.4 L21.65 -15.4 20.1 -22.55 12.4 -21.45 Q12.75 -24.2 13.6 -27.95 L8.95 -28.85 Q7.75 -24.65 7.1 -20.75 L0.75 -19.9 1.75 -15.4 6.55 -15.4 6.5 -12.55 Q6.5 -6.8 7.75 -4.05 9.5 0.05 14.55 0.05 19.1 0.05 23.25 -4.15 L18.7 -12.2" fill-rule="evenodd" stroke="none"/>
    </g>
    <g id="font_______W7_p0">
      <path d="M20.7 -12.7 L20.7 -12.7 Q20.7 -9.3 17.35 -9.3 14.95 -9.3 12.7 -12.0 L10.6 -8.4 10.05 -13.4 Q12.6 -16.55 16.2 -16.55 18.05 -16.55 19.35 -15.55 20.7 -14.5 20.7 -12.7 M27.8 -10.85 L27.8 -10.85 Q27.8 -15.55 24.6 -18.5 21.4 -21.45 16.7 -21.45 12.55 -21.45 9.35 -19.15 L9.2 -20.75 4.35 -21.45 2.05 4.75 11.95 3.3 11.35 -1.45 Q14.35 0.05 17.2 0.05 21.85 0.05 24.85 -3.05 27.8 -6.15 27.8 -10.85" fill-rule="evenodd" stroke="none"/>
    </g>
    <g id="font_______W7_r0">
      <path d="M18.3 -20.6 L18.3 -20.6 Q16.55 -21.45 14.75 -21.45 11.5 -21.45 8.7 -18.65 L8.45 -20.75 4.45 -21.45 2.55 0.05 10.65 -1.4 9.3 -12.8 Q10.55 -14.85 12.3 -14.85 13.25 -14.85 14.55 -13.85 L16.55 -12.05 18.3 -20.6" fill-rule="evenodd" stroke="none"/>
    </g>
    <g id="font_______W7_f0">
      <path d="M16.3 -23.5 L16.3 -23.5 11.45 -22.7 Q11.8 -25.5 12.65 -26.6 13.65 -27.85 16.3 -27.85 L17.0 -27.85 16.25 -32.0 14.1 -32.15 Q5.9 -32.15 5.05 -21.65 L1.3 -20.95 2.15 -16.7 4.55 -16.7 Q4.1 -5.65 4.1 -0.95 L13.95 0.05 Q11.85 -9.65 11.45 -16.65 L17.3 -16.6 16.3 -23.5" fill-rule="evenodd" stroke="none"/>
    </g>
    <g id="font_______W7_i0">
      <path d="M11.6 -20.75 L11.6 -20.75 6.75 -21.45 4.45 0.05 14.3 -1.4 11.6 -20.75 M11.9 -31.5 L11.9 -31.5 6.5 -32.15 4.9 -24.95 13.2 -26.1 11.9 -31.5" fill-rule="evenodd" stroke="none"/>
    </g>
    <g id="font_______W7__1">
      <path d="M12.1 -7.5 L12.1 -7.5 5.1 -8.35 3.35 0.05 13.7 -1.15 12.1 -7.5 M11.0 -31.5 L11.0 -31.5 6.15 -32.15 4.3 -10.7 13.2 -12.15 11.0 -31.5" fill-rule="evenodd" stroke="none"/>
    </g>
  </defs>
</svg>
