<?xml version="1.0" encoding="UTF-8" standalone="no"?>
<svg xmlns:xlink="http://www.w3.org/1999/xlink" height="39.05px" width="205.3px" xmlns="http://www.w3.org/2000/svg">
  <g transform="matrix(1.0, 0.0, 0.0, 1.0, 102.5, 21.05)">
    <use height="31.55" transform="matrix(1.0, 0.0, 0.0, 1.0, -102.5, -21.05)" width="205.3" xlink:href="#text0"/>
  </g>
  <defs>
    <g id="text0" transform="matrix(1.0, 0.0, 0.0, 1.0, 46.4, -3.95)">
      <g transform="matrix(1.0, 0.0, 0.0, 1.0, -47.8, 0.0)">
        <use fill="#333333" height="31.55" transform="matrix(0.3125, 0.0, 0.0, 0.3125, 60.0, 14.0)" width="205.3" xlink:href="#font_______W7_D0"/>
        <use fill="#333333" height="31.55" transform="matrix(0.3125, 0.0, 0.0, 0.3125, 71.1, 14.0)" width="205.3" xlink:href="#font_______W7_o0"/>
        <use fill="#333333" height="31.55" transform="matrix(0.3125, 0.0, 0.0, 0.3125, 79.7, 14.0)" width="205.3" xlink:href="#font_______W7_n0"/>
        <use fill="#333333" height="31.55" transform="matrix(0.3125, 0.0, 0.0, 0.3125, 88.8, 14.0)" width="205.3" xlink:href="#font_______W7__0"/>
        <use fill="#333333" height="31.55" transform="matrix(0.3125, 0.0, 0.0, 0.3125, 92.25, 14.0)" width="205.3" xlink:href="#font_______W7_t0"/>
        <use fill="#333333" height="31.55" transform="matrix(0.3125, 0.0, 0.0, 0.3125, 105.2, 14.0)" width="205.3" xlink:href="#font_______W7_w0"/>
        <use fill="#333333" height="31.55" transform="matrix(0.3125, 0.0, 0.0, 0.3125, 115.1, 14.0)" width="205.3" xlink:href="#font_______W7_o0"/>
        <use fill="#333333" height="31.55" transform="matrix(0.3125, 0.0, 0.0, 0.3125, 123.7, 14.0)" width="205.3" xlink:href="#font_______W7_r0"/>
        <use fill="#333333" height="31.55" transform="matrix(0.3125, 0.0, 0.0, 0.3125, 129.65, 14.0)" width="205.3" xlink:href="#font_______W7_r0"/>
        <use fill="#333333" height="31.55" transform="matrix(0.3125, 0.0, 0.0, 0.3125, 135.6, 14.0)" width="205.3" xlink:href="#font_______W7_y0"/>
        <use fill="#333333" height="31.55" transform="matrix(0.3125, 0.0, 0.0, 0.3125, 143.5, 14.0)" width="205.3" xlink:href="#font_______W7__2"/>
      </g>
      <g transform="matrix(1.0, 0.0, 0.0, 1.0, -47.8, 0.0)">
        <use fill="#333333" height="31.55" transform="matrix(0.3125, 0.0, 0.0, 0.3125, 0.0, 34.0)" width="205.3" xlink:href="#font_______W7_I0"/>
        <use fill="#333333" height="31.55" transform="matrix(0.3125, 0.0, 0.0, 0.3125, 5.85, 34.0)" width="205.3" xlink:href="#font_______W7__0"/>
        <use fill="#333333" height="31.55" transform="matrix(0.3125, 0.0, 0.0, 0.3125, 9.3, 34.0)" width="205.3" xlink:href="#font_______W7_l0"/>
        <use fill="#333333" height="31.55" transform="matrix(0.3125, 0.0, 0.0, 0.3125, 15.15, 34.0)" width="205.3" xlink:href="#font_______W7_l0"/>
        <use fill="#333333" height="31.55" transform="matrix(0.3125, 0.0, 0.0, 0.3125, 26.35, 34.0)" width="205.3" xlink:href="#font_______W7_a0"/>
        <use fill="#333333" height="31.55" transform="matrix(0.3125, 0.0, 0.0, 0.3125, 35.55, 34.0)" width="205.3" xlink:href="#font_______W7_v0"/>
        <use fill="#333333" height="31.55" transform="matrix(0.3125, 0.0, 0.0, 0.3125, 44.1, 34.0)" width="205.3" xlink:href="#font_______W7_o0"/>
        <use fill="#333333" height="31.55" transform="matrix(0.3125, 0.0, 0.0, 0.3125, 52.7, 34.0)" width="205.3" xlink:href="#font_______W7_i0"/>
        <use fill="#333333" height="31.55" transform="matrix(0.3125, 0.0, 0.0, 0.3125, 58.55, 34.0)" width="205.3" xlink:href="#font_______W7_d0"/>
        <use fill="#333333" height="31.55" transform="matrix(0.3125, 0.0, 0.0, 0.3125, 73.2, 34.0)" width="205.3" xlink:href="#font_______W7_y0"/>
        <use fill="#333333" height="31.55" transform="matrix(0.3125, 0.0, 0.0, 0.3125, 81.1, 34.0)" width="205.3" xlink:href="#font_______W7_o0"/>
        <use fill="#333333" height="31.55" transform="matrix(0.3125, 0.0, 0.0, 0.3125, 89.7, 34.0)" width="205.3" xlink:href="#font_______W7_u0"/>
        <use fill="#333333" height="31.55" transform="matrix(0.3125, 0.0, 0.0, 0.3125, 98.7, 34.0)" width="205.3" xlink:href="#font_______W7_r0"/>
        <use fill="#333333" height="31.55" transform="matrix(0.3125, 0.0, 0.0, 0.3125, 110.0, 34.0)" width="205.3" xlink:href="#font_______W7_v0"/>
        <use fill="#333333" height="31.55" transform="matrix(0.3125, 0.0, 0.0, 0.3125, 118.55, 34.0)" width="205.3" xlink:href="#font_______W7_i0"/>
        <use fill="#333333" height="31.55" transform="matrix(0.3125, 0.0, 0.0, 0.3125, 124.4, 34.0)" width="205.3" xlink:href="#font_______W7_t0"/>
        <use fill="#333333" height="31.55" transform="matrix(0.3125, 0.0, 0.0, 0.3125, 132.0, 34.0)" width="205.3" xlink:href="#font_______W7_a0"/>
        <use fill="#333333" height="31.55" transform="matrix(0.3125, 0.0, 0.0, 0.3125, 141.2, 34.0)" width="205.3" xlink:href="#font_______W7_l0"/>
        <use fill="#333333" height="31.55" transform="matrix(0.3125, 0.0, 0.0, 0.3125, 152.4, 34.0)" width="205.3" xlink:href="#font_______W7_o0"/>
        <use fill="#333333" height="31.55" transform="matrix(0.3125, 0.0, 0.0, 0.3125, 161.0, 34.0)" width="205.3" xlink:href="#font_______W7_r0"/>
        <use fill="#333333" height="31.55" transform="matrix(0.3125, 0.0, 0.0, 0.3125, 166.95, 34.0)" width="205.3" xlink:href="#font_______W7_g0"/>
        <use fill="#333333" height="31.55" transform="matrix(0.3125, 0.0, 0.0, 0.3125, 175.8, 34.0)" width="205.3" xlink:href="#font_______W7_a0"/>
        <use fill="#333333" height="31.55" transform="matrix(0.3125, 0.0, 0.0, 0.3125, 185.0, 34.0)" width="205.3" xlink:href="#font_______W7_n0"/>
        <use fill="#333333" height="31.55" transform="matrix(0.3125, 0.0, 0.0, 0.3125, 194.1, 34.0)" width="205.3" xlink:href="#font_______W7_s0"/>
        <use fill="#333333" height="31.55" transform="matrix(0.3125, 0.0, 0.0, 0.3125, 202.4, 34.0)" width="205.3" xlink:href="#font_______W7_.0"/>
      </g>
    </g>
    <g id="font_______W7_D0">
      <path d="M26.25 -17.9 L26.25 -17.9 Q26.25 -14.65 24.8 -12.6 23.1 -10.25 20.0 -10.25 16.6 -10.25 14.1 -12.65 L12.3 -9.6 10.95 -24.15 Q14.8 -25.95 17.05 -25.95 20.5 -25.95 23.3 -23.65 26.25 -21.25 26.25 -17.9 M33.4 -15.95 L33.4 -15.95 Q33.4 -22.6 29.35 -27.0 25.15 -31.55 18.55 -31.55 14.75 -31.55 10.4 -29.7 L10.25 -31.5 5.3 -32.15 2.55 0.05 13.15 -1.1 13.1 -1.6 Q15.65 -0.6 18.75 -0.6 25.45 -0.6 29.5 -4.95 33.4 -9.15 33.4 -15.95" fill-rule="evenodd" stroke="none"/>
    </g>
    <g id="font_______W7_o0">
      <path d="M15.8 -13.5 L15.8 -13.5 Q16.45 -11.85 16.45 -10.4 16.45 -6.85 12.35 -6.85 10.6 -6.85 9.35 -8.05 8.15 -9.35 8.15 -11.05 8.15 -13.25 9.8 -14.6 11.4 -16.0 13.7 -16.0 16.1 -16.0 18.3 -14.3 L15.8 -13.5 M25.7 -11.4 L25.7 -11.4 Q25.7 -13.8 24.75 -16.35 L21.25 -15.25 22.7 -17.2 Q18.35 -21.45 13.15 -21.45 8.45 -21.45 5.1 -18.2 1.8 -14.95 1.8 -10.3 1.8 -5.5 5.4 -2.65 8.65 0.05 13.65 0.05 18.75 0.05 22.2 -3.2 25.7 -6.4 25.7 -11.4" fill-rule="evenodd" stroke="none"/>
    </g>
    <g id="font_______W7_n0">
      <path d="M27.0 -9.05 L27.0 -9.05 Q27.0 -14.5 24.65 -17.8 21.9 -21.45 16.6 -21.45 12.6 -21.45 9.45 -18.85 L9.2 -20.75 4.35 -21.45 2.05 0.05 11.95 -1.4 10.35 -12.55 Q12.95 -15.85 15.9 -15.85 19.4 -15.85 19.4 -10.6 19.4 -6.9 16.6 -1.3 L26.2 0.0 Q27.0 -6.5 27.0 -9.05" fill-rule="evenodd" stroke="none"/>
    </g>
    <g id="font_______W7__0">
      <path d="M2.05 -32.15 L2.05 -32.15 3.65 -20.7 7.3 -20.7 8.95 -32.15 2.05 -32.15" fill-rule="evenodd" stroke="none"/>
    </g>
    <g id="font_______W7_t0">
      <path d="M18.7 -12.2 L18.7 -12.2 Q17.0 -9.35 14.9 -9.35 11.95 -9.35 11.95 -15.4 L21.65 -15.4 20.1 -22.55 12.4 -21.45 Q12.75 -24.2 13.6 -27.95 L8.95 -28.85 Q7.75 -24.65 7.1 -20.75 L0.75 -19.9 1.75 -15.4 6.55 -15.4 6.5 -12.55 Q6.5 -6.8 7.75 -4.05 9.5 0.05 14.55 0.05 19.1 0.05 23.25 -4.15 L18.7 -12.2" fill-rule="evenodd" stroke="none"/>
    </g>
    <g id="font_______W7_w0">
      <path d="M23.1 -21.4 L23.1 -21.4 20.35 -10.05 16.6 -20.6 13.9 -21.45 9.35 -10.05 4.1 -21.35 0.5 -19.7 8.35 0.05 11.1 -0.5 14.9 -12.4 19.2 0.05 22.05 -0.55 31.2 -17.75 23.1 -21.4" fill-rule="evenodd" stroke="none"/>
    </g>
    <g id="font_______W7_r0">
      <path d="M18.3 -20.6 L18.3 -20.6 Q16.55 -21.45 14.75 -21.45 11.5 -21.45 8.7 -18.65 L8.45 -20.75 4.45 -21.45 2.55 0.05 10.65 -1.4 9.3 -12.8 Q10.55 -14.85 12.3 -14.85 13.25 -14.85 14.55 -13.85 L16.55 -12.05 18.3 -20.6" fill-rule="evenodd" stroke="none"/>
    </g>
    <g id="font_______W7_y0">
      <path d="M21.2 -21.45 L21.2 -21.45 13.15 -10.8 3.65 -21.45 0.5 -19.75 8.5 -4.7 4.3 0.85 12.5 4.75 24.85 -19.65 21.2 -21.45" fill-rule="evenodd" stroke="none"/>
    </g>
    <g id="font_______W7__2">
      <path d="M11.8 -7.8 L11.8 -7.8 4.75 -8.65 3.0 0.1 10.5 -1.0 4.35 2.8 7.65 6.35 13.6 -0.1 11.8 -7.8" fill-rule="evenodd" stroke="none"/>
    </g>
    <g id="font_______W7_I0">
      <path d="M11.8 -31.5 L11.8 -31.5 6.9 -32.15 4.15 0.05 14.65 -1.1 11.8 -31.5" fill-rule="evenodd" stroke="none"/>
    </g>
    <g id="font_______W7_l0">
      <path d="M11.6 -31.5 L11.6 -31.5 6.9 -32.15 4.35 0.05 14.4 -1.4 11.6 -31.5" fill-rule="evenodd" stroke="none"/>
    </g>
    <g id="font_______W7_a0">
      <path d="M19.05 -8.85 L19.05 -8.85 18.5 -5.05 17.1 -9.0 Q14.35 -6.2 10.6 -6.2 9.95 -6.2 9.45 -6.75 9.0 -7.2 9.0 -7.85 9.0 -10.2 13.7 -10.2 15.9 -10.2 19.05 -8.85 M27.4 -6.8 L27.4 -6.8 Q27.4 -21.45 13.35 -21.45 7.15 -21.45 2.55 -18.35 L4.3 -14.35 Q8.3 -16.55 13.15 -16.55 17.85 -16.55 18.85 -13.35 15.4 -14.5 12.8 -14.5 8.6 -14.5 5.6 -12.8 1.8 -10.75 1.8 -6.95 1.8 -3.5 4.9 -1.55 7.55 0.05 11.15 0.05 13.95 0.05 17.35 -0.95 L17.0 0.15 26.7 -0.3 Q27.4 -3.45 27.4 -6.8" fill-rule="evenodd" stroke="none"/>
    </g>
    <g id="font_______W7_v0">
      <path d="M19.45 -21.45 L19.45 -21.45 12.9 -8.05 3.85 -21.15 0.5 -18.8 11.65 0.05 14.95 -0.8 26.9 -16.95 19.45 -21.45" fill-rule="evenodd" stroke="none"/>
    </g>
    <g id="font_______W7_i0">
      <path d="M11.6 -20.75 L11.6 -20.75 6.75 -21.45 4.45 0.05 14.3 -1.4 11.6 -20.75 M11.9 -31.5 L11.9 -31.5 6.5 -32.15 4.9 -24.95 13.2 -26.1 11.9 -31.5" fill-rule="evenodd" stroke="none"/>
    </g>
    <g id="font_______W7_d0">
      <path d="M18.35 -8.95 L18.35 -8.95 16.8 -11.9 Q14.75 -9.45 12.45 -9.45 10.9 -9.45 10.0 -10.4 9.1 -11.4 9.1 -12.95 9.1 -14.5 10.7 -15.6 12.15 -16.5 13.7 -16.5 16.6 -16.5 18.8 -14.55 L18.35 -8.95 M24.9 -31.55 L24.9 -31.55 20.15 -32.2 19.15 -19.55 Q16.05 -21.45 12.65 -21.45 8.15 -21.45 4.95 -18.25 1.8 -15.0 1.8 -10.5 1.8 -6.05 4.6 -3.05 7.4 0.05 11.85 0.05 14.65 0.05 17.7 -1.5 L17.6 0.0 27.65 -1.45 24.9 -31.55" fill-rule="evenodd" stroke="none"/>
    </g>
    <g id="font_______W7_u0">
      <path d="M24.1 -20.75 L24.1 -20.75 19.25 -21.45 17.9 -8.95 16.15 -11.65 Q13.35 -8.1 10.6 -8.1 9.0 -8.1 8.15 -9.4 7.25 -10.65 7.25 -12.3 7.25 -15.75 8.6 -19.75 L3.9 -21.15 Q2.05 -16.35 2.05 -11.4 2.05 -6.45 4.25 -3.4 6.75 0.05 11.5 0.05 14.55 0.05 17.1 -1.5 L16.95 0.1 26.8 -1.35 24.1 -20.75" fill-rule="evenodd" stroke="none"/>
    </g>
    <g id="font_______W7_g0">
      <path d="M21.25 -12.75 L21.25 -12.75 21.05 -10.5 18.9 -14.7 Q15.2 -11.7 11.9 -11.7 10.85 -11.7 10.0 -12.55 9.05 -13.45 9.05 -14.45 9.05 -16.75 13.35 -16.75 15.6 -16.75 18.05 -15.7 20.3 -14.7 21.2 -13.55 L21.25 -12.75 M26.3 -10.4 L26.3 -10.4 Q26.3 -15.45 24.2 -21.5 L20.0 -20.3 20.3 -19.15 Q16.35 -21.45 12.1 -21.45 8.15 -21.45 5.4 -19.3 2.35 -16.95 2.35 -13.2 2.35 -9.45 5.85 -7.35 8.8 -5.6 12.75 -5.6 16.55 -5.6 19.75 -6.9 17.8 -3.95 13.25 -3.95 8.55 -3.95 4.75 -6.35 L1.8 2.9 Q6.7 4.75 11.2 4.75 18.25 4.75 22.25 0.65 26.3 -3.4 26.3 -10.4" fill-rule="evenodd" stroke="none"/>
    </g>
    <g id="font_______W7_s0">
      <path d="M25.05 -6.35 L25.05 -6.35 Q25.05 -12.25 15.35 -13.65 8.7 -14.6 8.7 -15.7 8.7 -17.05 12.35 -17.05 17.1 -17.05 22.25 -14.8 L23.8 -18.2 Q19.05 -21.45 12.25 -21.45 8.55 -21.45 6.05 -20.35 2.6 -18.85 2.6 -15.7 2.6 -13.1 4.75 -11.8 6.5 -10.75 10.95 -10.05 L16.3 -8.95 Q17.8 -8.4 17.8 -7.5 17.8 -6.2 15.25 -6.2 12.3 -6.2 9.1 -7.45 5.9 -8.7 3.8 -10.65 L1.0 -2.6 Q6.45 0.05 14.3 0.05 25.05 0.05 25.05 -6.35" fill-rule="evenodd" stroke="none"/>
    </g>
    <g id="font_______W7_.0">
      <path d="M11.9 -7.35 L11.9 -7.35 4.9 -8.2 3.1 1.2 13.5 0.0 11.9 -7.35" fill-rule="evenodd" stroke="none"/>
    </g>
  </defs>
</svg>
