<?xml version="1.0" encoding="UTF-8" standalone="no"?>
<svg xmlns:xlink="http://www.w3.org/1999/xlink" height="51.45px" width="51.3px" xmlns="http://www.w3.org/2000/svg">
  <g transform="matrix(1.0, 0.0, 0.0, 1.0, 25.65, 25.7)">
    <use height="57.2" transform="matrix(0.9, 0.0, 0.0, 0.9, -25.625, -25.71)" width="56.95" xlink:href="#shape0"/>
  </g>
  <defs>
    <g id="shape0" transform="matrix(1.0, 0.0, 0.0, 1.0, -0.25, -0.1)">
      <path d="M41.5 9.2 Q42.4 9.55 43.15 9.95 46.05 11.85 46.9 14.2 L47.35 15.85 47.65 17.9 47.25 18.65 44.0 19.2 38.3 19.95 37.2 18.3 37.9 23.9 45.75 25.9 Q47.7 26.7 49.5 27.85 L51.3 29.45 51.9 30.15 53.05 32.2 Q53.9 34.55 53.45 37.4 53.05 39.65 51.8 42.25 50.75 44.2 48.5 45.95 L41.3 49.9 41.5 51.65 41.65 52.55 41.55 54.25 40.85 54.55 36.85 54.55 33.35 54.55 32.45 54.35 32.1 53.1 32.0 51.75 29.9 51.65 29.95 52.0 30.05 53.35 30.25 54.95 30.05 55.55 29.7 55.8 21.15 55.75 20.85 54.7 20.85 53.9 20.8 52.15 20.8 50.7 Q14.65 48.7 10.65 43.65 L7.9 38.1 7.55 35.2 8.6 34.85 10.8 34.65 18.35 34.25 20.5 38.15 19.95 29.25 Q14.15 29.25 10.1 25.5 8.95 24.2 8.45 22.85 7.9 20.7 8.2 18.6 8.55 16.85 9.35 15.4 10.25 14.05 11.4 12.85 L14.5 10.85 17.6 9.4 17.5 8.85 17.35 8.15 17.1 6.75 17.15 4.7 17.75 4.4 24.8 4.3 25.3 5.6 25.4 6.25 25.5 7.1 27.25 6.95 27.1 6.05 27.05 5.4 26.95 4.05 31.85 2.35 33.7 2.05 35.15 2.35 35.4 3.05 35.6 5.0 35.8 6.45 35.85 7.15 35.9 7.6 38.4 8.15 Q40.1 8.6 41.5 9.2 M45.7 17.05 Q45.55 13.85 43.0 11.9 39.95 9.6 36.1 8.95 L36.85 15.25 Q38.5 16.2 39.2 17.9 L45.7 17.05 M50.5 31.85 Q50.15 30.75 49.3 29.9 44.5 25.35 38.05 25.6 L38.65 30.05 39.6 30.55 Q42.85 32.45 41.55 36.3 L39.75 38.5 41.0 47.75 45.35 45.65 Q47.2 44.6 48.4 43.0 52.3 37.95 50.5 31.85 M27.4 8.2 L25.7 8.35 26.75 14.8 28.3 14.65 27.4 8.2 M28.4 15.6 L26.8 15.75 27.6 23.3 29.5 23.7 28.4 15.6 M25.75 23.5 L23.6 5.85 19.25 5.95 20.8 20.4 21.2 26.55 Q22.1 40.45 22.3 54.4 L28.25 54.0 25.75 23.5 M33.65 3.4 L28.7 4.7 Q30.45 15.1 31.3 25.55 L32.1 34.2 33.65 52.85 39.75 52.65 33.65 3.4 M10.9 18.95 L10.85 19.95 Q10.85 20.9 11.15 21.85 13.15 27.7 19.8 27.9 L19.5 24.35 Q17.9 24.05 17.15 22.75 14.95 18.95 18.75 16.85 L17.85 10.85 Q14.85 12.2 12.8 14.55 11.15 16.4 10.9 18.95 M18.25 20.55 Q18.5 21.5 19.1 22.15 L18.9 18.45 Q17.95 19.3 18.25 20.55 M17.1 36.0 L9.45 36.65 9.8 37.65 Q13.15 45.05 20.75 48.3 L20.55 39.4 Q18.1 38.3 17.1 36.0 M38.85 31.85 L39.5 36.6 Q40.7 34.95 39.5 32.5 L38.85 31.85 M27.8 25.4 L28.1 28.4 30.2 28.6 29.75 25.5 27.8 25.4 M30.35 29.8 L28.2 29.6 29.05 39.75 31.25 39.65 30.35 29.8 M31.35 40.85 L29.15 40.95 29.75 49.8 31.9 49.75 31.35 40.85" fill="#005d51" fill-rule="evenodd" stroke="none"/>
      <path d="M46.9 14.2 Q46.05 11.85 43.15 9.95 42.4 9.55 41.5 9.2 38.85 7.4 35.8 6.45 L35.6 5.0 Q41.65 6.85 46.0 11.25 54.5 20.05 53.05 32.2 L51.9 30.15 51.95 28.7 Q51.75 20.2 46.9 14.2 M35.15 2.35 L33.7 2.05 Q21.3 -0.05 11.55 7.85 2.85 14.9 1.65 25.95 0.9 32.85 3.65 39.2 8.8 50.9 20.85 54.7 L21.15 55.75 29.7 55.8 Q33.45 55.6 36.85 54.55 L40.85 54.55 Q35.35 57.15 28.6 57.3 16.45 56.95 8.4 48.9 4.75 45.25 2.7 40.85 1.25 37.7 0.65 34.15 -0.1 29.5 0.5 24.9 1.2 19.5 3.95 14.75 6.75 10.0 10.95 6.65 14.95 3.5 19.8 1.7 24.05 0.1 28.6 0.1 40.7 0.4 48.8 8.5 56.9 16.55 57.2 28.7 56.85 40.8 48.8 48.9 45.5 52.2 41.55 54.25 L41.65 52.55 Q44.95 50.7 47.8 47.9 55.45 40.2 55.75 28.7 55.45 17.15 47.8 9.5 42.45 4.1 35.15 2.35 M26.95 4.05 L27.05 5.4 25.3 5.6 24.8 4.3 26.95 4.05 M17.1 6.75 L17.35 8.15 11.4 12.85 Q10.25 14.05 9.35 15.4 5.4 21.05 5.2 28.7 5.4 37.45 10.65 43.65 14.65 48.7 20.8 50.7 L20.8 52.15 Q15.35 50.4 11.1 46.15 4.1 39.15 3.85 28.7 4.1 18.2 11.1 11.2 13.8 8.45 17.1 6.75 M30.05 53.35 L29.95 52.0 32.0 51.75 32.1 53.1 30.05 53.35" fill="#006868" fill-rule="evenodd" stroke="none"/>
      <path d="M40.65 12.0 L42.45 12.1 43.6 13.4 Q44.15 15.45 42.2 16.35 41.3 16.6 40.6 16.35 L40.45 16.3 40.4 16.25 Q39.7 15.85 39.25 14.95 38.7 12.9 40.65 12.0 M41.6 15.7 L41.95 15.6 Q43.65 14.75 42.45 13.1 L41.6 15.7 M41.65 12.75 L40.95 12.8 Q39.7 13.35 40.05 14.7 L40.45 15.3 41.65 12.75 M46.05 37.3 Q48.15 37.85 48.0 39.95 47.45 42.05 45.3 41.9 44.3 41.65 43.85 41.05 L43.8 41.0 43.75 40.9 Q43.3 40.25 43.4 39.2 43.95 37.1 46.05 37.3 M44.8 40.8 L45.45 41.05 Q47.4 41.15 47.1 39.15 L44.8 40.8 M46.65 38.45 L45.95 38.1 Q44.6 38.0 44.2 39.35 L44.3 40.15 46.65 38.45 M13.5 18.1 L12.75 18.1 14.15 20.6 14.5 19.95 Q14.75 18.6 13.5 18.1 M10.85 19.95 L10.9 18.95 Q11.55 17.0 13.6 17.25 15.35 17.7 15.4 19.55 15.45 21.1 14.0 21.75 L12.3 21.65 Q11.15 21.15 10.85 19.95 M12.65 20.95 L13.35 21.0 12.0 18.55 11.65 19.1 Q11.4 20.45 12.65 20.95 M17.55 42.65 L17.85 42.0 15.0 42.3 15.45 42.9 Q16.6 43.65 17.55 42.65 M17.3 40.6 Q16.2 39.8 15.2 40.8 L14.9 41.45 17.75 41.15 17.3 40.6 M18.75 41.5 L18.5 42.45 Q17.95 44.1 16.25 44.15 L15.8 44.0 Q13.3 42.75 14.55 40.25 L15.4 39.85 Q17.95 38.9 18.75 41.5" fill="#0f6f61" fill-rule="evenodd" stroke="none"/>
      <path d="M40.65 12.0 Q38.7 12.9 39.25 14.95 39.7 15.85 40.4 16.25 L40.45 16.3 40.6 16.35 Q41.3 16.6 42.2 16.35 44.15 15.45 43.6 13.4 L42.45 12.1 40.65 12.0 M45.7 17.05 L39.2 17.9 Q38.5 16.2 36.85 15.25 L36.1 8.95 Q39.95 9.6 43.0 11.9 45.55 13.85 45.7 17.05 M50.5 31.85 Q52.3 37.95 48.4 43.0 47.2 44.6 45.35 45.65 L41.0 47.75 39.75 38.5 41.55 36.3 Q42.85 32.45 39.6 30.55 L38.65 30.05 38.05 25.6 Q44.5 25.35 49.3 29.9 50.15 30.75 50.5 31.85 M46.05 37.3 Q43.95 37.1 43.4 39.2 43.3 40.25 43.75 40.9 L43.8 41.0 43.85 41.05 Q44.3 41.65 45.3 41.9 47.45 42.05 48.0 39.95 48.15 37.85 46.05 37.3 M32.9 7.7 L31.15 6.85 Q30.6 9.15 30.85 11.4 L31.8 18.75 Q33.9 33.8 34.4 48.9 34.45 50.1 35.5 51.1 L37.15 50.9 Q37.65 50.05 37.55 48.95 L36.95 43.5 36.1 33.95 Q35.3 20.6 32.9 7.7 M27.4 8.2 L28.3 14.65 26.75 14.8 25.7 8.35 27.4 8.2 M24.25 24.5 Q24.2 18.9 23.7 13.7 23.2 8.5 22.1 8.2 20.85 8.6 21.15 13.7 21.45 18.8 22.2 24.2 L23.1 31.05 Q23.5 40.1 23.8 43.3 23.3 47.7 24.9 51.6 26.25 50.8 26.15 48.65 L25.8 45.15 Q24.55 38.45 24.3 31.65 L24.25 24.5 M33.65 3.4 L39.75 52.65 33.65 52.85 32.1 34.2 31.3 25.55 Q30.45 15.1 28.7 4.7 L33.65 3.4 M25.75 23.5 L28.25 54.0 22.3 54.4 Q22.1 40.45 21.2 26.55 L20.8 20.4 19.25 5.95 23.6 5.85 25.75 23.5 M10.85 19.95 Q11.15 21.15 12.3 21.65 L14.0 21.75 Q15.45 21.1 15.4 19.55 15.35 17.7 13.6 17.25 11.55 17.0 10.9 18.95 11.15 16.4 12.8 14.55 14.85 12.2 17.85 10.85 L18.75 16.85 Q14.95 18.95 17.15 22.75 17.9 24.05 19.5 24.35 L19.8 27.9 Q13.15 27.7 11.15 21.85 10.85 20.9 10.85 19.95 M18.75 41.5 Q17.95 38.9 15.4 39.85 L14.55 40.25 Q13.3 42.75 15.8 44.0 L16.25 44.15 Q17.95 44.1 18.5 42.45 L18.75 41.5 M17.1 36.0 Q18.1 38.3 20.55 39.4 L20.75 48.3 Q13.15 45.05 9.8 37.65 L9.45 36.65 17.1 36.0 M27.8 25.4 L29.75 25.5 30.2 28.6 28.1 28.4 27.8 25.4 M31.35 40.85 L31.9 49.75 29.75 49.8 29.15 40.95 31.35 40.85" fill="#85ab93" fill-rule="evenodd" stroke="none"/>
      <path d="M38.4 8.15 L35.9 7.6 35.85 7.15 38.4 8.15 M27.1 6.05 L27.25 6.95 25.5 7.1 25.4 6.25 27.1 6.05 M17.5 8.85 L17.6 9.4 14.5 10.85 Q15.9 9.7 17.5 8.85 M8.2 18.6 Q7.9 20.7 8.45 22.85 7.45 26.0 7.7 29.6 7.85 32.35 8.6 34.85 L7.55 35.2 7.9 38.1 Q6.0 33.85 5.85 28.7 6.0 23.1 8.2 18.6 M51.3 29.45 L49.5 27.85 Q49.25 23.0 47.25 18.65 L47.65 17.9 47.35 15.85 Q51.15 21.35 51.3 28.7 L51.3 29.45" fill="#85b599" fill-rule="evenodd" stroke="none"/>
      <path d="M41.5 9.2 Q40.1 8.6 38.4 8.15 L35.85 7.15 35.8 6.45 Q38.85 7.4 41.5 9.2 M35.4 3.05 L35.15 2.35 Q42.45 4.1 47.8 9.5 55.45 17.15 55.75 28.7 55.45 40.2 47.8 47.9 44.95 50.7 41.65 52.55 L41.5 51.65 Q44.6 49.9 47.2 47.3 L48.5 45.95 Q50.75 44.2 51.8 42.25 53.05 39.65 53.45 37.4 54.8 33.35 54.95 28.6 54.65 17.35 47.2 9.9 42.15 4.85 35.4 3.05 M33.7 2.05 L31.85 2.35 28.5 2.1 Q22.6 2.25 17.75 4.4 L17.15 4.7 Q6.8 9.85 3.35 20.8 0.5 29.95 4.3 38.8 9.25 50.2 20.85 53.9 L20.85 54.7 Q8.8 50.9 3.65 39.2 0.9 32.85 1.65 25.95 2.85 14.9 11.55 7.85 21.3 -0.05 33.7 2.05 M27.05 5.4 L27.1 6.05 25.4 6.25 25.3 5.6 27.05 5.4 M17.35 8.15 L17.5 8.85 Q15.9 9.7 14.5 10.85 L11.4 12.85 17.35 8.15 M9.35 15.4 Q8.55 16.85 8.2 18.6 6.0 23.1 5.85 28.7 6.0 33.85 7.9 38.1 L10.65 43.65 Q5.4 37.45 5.2 28.7 5.4 21.05 9.35 15.4 M29.7 55.8 L30.05 55.55 30.25 54.95 33.35 54.55 36.85 54.55 Q33.45 55.6 29.7 55.8 M29.95 52.0 L29.9 51.65 32.0 51.75 29.95 52.0 M51.9 30.15 L51.3 29.45 51.3 28.7 Q51.15 21.35 47.35 15.85 L46.9 14.2 Q51.75 20.2 51.95 28.7 L51.9 30.15" fill="#085854" fill-rule="evenodd" stroke="none"/>
      <path d="M41.65 12.75 L40.45 15.3 40.05 14.7 Q39.7 13.35 40.95 12.8 L41.65 12.75 M41.6 15.7 L42.45 13.1 Q43.65 14.75 41.95 15.6 L41.6 15.7 M46.65 38.45 L44.3 40.15 44.2 39.35 Q44.6 38.0 45.95 38.1 L46.65 38.45 M44.8 40.8 L47.1 39.15 Q47.4 41.15 45.45 41.05 L44.8 40.8 M13.5 18.1 Q14.75 18.6 14.5 19.95 L14.15 20.6 12.75 18.1 13.5 18.1 M12.65 20.95 Q11.4 20.45 11.65 19.1 L12.0 18.55 13.35 21.0 12.65 20.95 M17.3 40.6 L17.75 41.15 14.9 41.45 15.2 40.8 Q16.2 39.8 17.3 40.6 M17.55 42.65 Q16.6 43.65 15.45 42.9 L15.0 42.3 17.85 42.0 17.55 42.65" fill="#a0beac" fill-rule="evenodd" stroke="none"/>
      <path d="M35.6 5.0 L35.4 3.05 Q42.15 4.85 47.2 9.9 54.65 17.35 54.95 28.6 54.8 33.35 53.45 37.4 53.9 34.55 53.05 32.2 54.5 20.05 46.0 11.25 41.65 6.85 35.6 5.0 M31.85 2.35 L26.95 4.05 24.8 4.3 17.75 4.4 Q22.6 2.25 28.5 2.1 L31.85 2.35 M17.15 4.7 L17.1 6.75 Q13.8 8.45 11.1 11.2 4.1 18.2 3.85 28.7 4.1 39.15 11.1 46.15 15.35 50.4 20.8 52.15 L20.85 53.9 Q9.25 50.2 4.3 38.8 0.5 29.95 3.35 20.8 6.8 9.85 17.15 4.7 M8.45 22.85 Q8.95 24.2 10.1 25.5 8.85 29.75 10.65 34.3 L10.8 34.65 8.6 34.85 Q7.85 32.35 7.7 29.6 7.45 26.0 8.45 22.85 M30.25 54.95 L30.05 53.35 32.1 53.1 32.45 54.35 33.35 54.55 30.25 54.95 M41.5 51.65 L41.3 49.9 48.5 45.95 47.2 47.3 Q44.6 49.9 41.5 51.65 M49.5 27.85 Q47.7 26.7 45.75 25.9 45.45 22.35 44.0 19.2 L47.25 18.65 Q49.25 23.0 49.5 27.85" fill="#98bea8" fill-rule="evenodd" stroke="none"/>
      <path d="M10.1 25.5 Q14.15 29.25 19.95 29.25 L20.5 38.15 18.35 34.25 10.8 34.65 10.65 34.3 Q8.85 29.75 10.1 25.5 M45.75 25.9 L37.9 23.9 37.2 18.3 38.3 19.95 44.0 19.2 Q45.45 22.35 45.75 25.9 M28.4 15.6 L29.5 23.7 27.6 23.3 26.8 15.75 28.4 15.6 M18.25 20.55 Q17.95 19.3 18.9 18.45 L19.1 22.15 Q18.5 21.5 18.25 20.55 M38.85 31.85 L39.5 32.5 Q40.7 34.95 39.5 36.6 L38.85 31.85 M30.35 29.8 L31.25 39.65 29.05 39.75 28.2 29.6 30.35 29.8" fill="#c1d9cb" fill-rule="evenodd" stroke="none"/>
      <path d="M32.9 7.7 Q35.3 20.6 36.1 33.95 L36.95 43.5 37.55 48.95 Q37.65 50.05 37.15 50.9 L35.5 51.1 Q34.45 50.1 34.4 48.9 33.9 33.8 31.8 18.75 L30.85 11.4 Q30.6 9.15 31.15 6.85 L32.9 7.7 M24.25 24.5 L24.3 31.65 Q24.55 38.45 25.8 45.15 L26.15 48.65 Q26.25 50.8 24.9 51.6 23.3 47.7 23.8 43.3 23.5 40.1 23.1 31.05 L22.2 24.2 Q21.45 18.8 21.15 13.7 20.85 8.6 22.1 8.2 23.2 8.5 23.7 13.7 24.2 18.9 24.25 24.5" fill="#689878" fill-rule="evenodd" stroke="none"/>
    </g>
  </defs>
</svg>
