<?xml version="1.0" encoding="UTF-8" standalone="no"?>
<svg xmlns:xlink="http://www.w3.org/1999/xlink" height="509.05px" width="798.7px" xmlns="http://www.w3.org/2000/svg">
  <g transform="matrix(1.0, 0.0, 0.0, 1.0, 385.8, 263.8)">
    <use height="139.8" id="v3" transform="matrix(2.1075, 0.0, 0.0, 2.1075, 35.0853, -74.777)" width="162.8" xlink:href="#sprite0"/>
    <use height="139.8" id="v2" transform="matrix(2.1074, 0.0, 0.0, 2.1074, -160.7636, -74.7755)" width="162.8" xlink:href="#sprite0"/>
    <use height="139.8" id="v1" transform="matrix(2.1075, 0.0, 0.0, 2.1075, -353.0147, -74.777)" width="162.8" xlink:href="#sprite0"/>
    <use height="0.0" transform="matrix(1.0, 0.0, 0.0, 1.0, 0.25, -46.15)" width="0.0" xlink:href="#sprite3"/>
  </g>
  <defs>
    <g id="sprite0" transform="matrix(1.0, 0.0, 0.0, 1.0, 76.45, 92.85)">
      <use height="329.5" transform="matrix(0.2799, 0.0, 0.0, 0.2856, -36.2933, -47.8767)" width="259.25" xlink:href="#sprite1"/>
      <use height="0.0" id="hitsnd" transform="matrix(1.0, 0.0, 0.0, 1.0, 30.95, 38.55)" width="0.0" xlink:href="#sprite2"/>
    </g>
    <g id="sprite1" transform="matrix(1.0, 0.0, 0.0, 1.0, -27.0, -45.25)">
      <use height="36.0" transform="matrix(1.0, 0.0, 0.0, 1.0, 77.1, 338.75)" width="159.0" xlink:href="#shape0"/>
      <use height="96.65" transform="matrix(1.0, 0.0, 0.0, 1.0, 129.5, 266.75)" width="54.2" xlink:href="#shape1"/>
      <use height="37.0" transform="matrix(1.0, 0.0, 0.0, 1.0, 64.0, 280.4)" width="185.25" xlink:href="#shape2"/>
      <use height="18.75" transform="matrix(1.0, 0.0, 0.0, 1.0, 80.55, 289.9)" width="155.95" xlink:href="#text0"/>
      <use height="229.4" transform="matrix(1.0, 0.0, 0.0, 1.0, 27.0, 45.25)" width="259.25" xlink:href="#shape3"/>
      <use height="250.45" transform="matrix(0.8276, 0.0, 0.0, 0.8276, 38.55, 65.35)" width="285.45" xlink:href="#shape4"/>
      <use height="57.2" transform="matrix(1.0, 0.0, 0.0, 1.0, 127.75, 180.5)" width="56.95" xlink:href="#shape5"/>
    </g>
    <g id="shape0" transform="matrix(1.0, 0.0, 0.0, 1.0, 0.0, 0.0)">
      <path d="M135.7 30.75 Q113.3 35.8 79.5 36.0 45.7 35.8 23.3 30.75 0.85 25.65 0.0 18.0 0.85 10.35 23.3 5.25 45.7 0.2 79.5 0.0 113.3 0.2 135.7 5.25 158.15 10.35 159.0 18.0 158.15 25.65 135.7 30.75" fill="#000000" fill-opacity="0.39607844" fill-rule="evenodd" stroke="none"/>
    </g>
    <g id="shape1" transform="matrix(1.0, 0.0, 0.0, 1.0, 0.0, 0.0)">
      <path d="M5.85 93.35 Q-0.15 90.4 0.0 90.0 L0.0 0.0 54.2 0.0 54.2 90.0 Q54.15 90.4 46.95 93.35 39.7 96.25 25.65 96.65 11.8 96.25 5.85 93.35" fill="url(#gradient0)" fill-rule="evenodd" stroke="none"/>
    </g>
    <linearGradient gradientTransform="matrix(0.0303, 0.0, 0.0, 0.0303, 25.7, 48.35)" gradientUnits="userSpaceOnUse" id="gradient0" spreadMethod="pad" x1="-819.2" x2="819.2">
      <stop offset="0.0" stop-color="#565656"/>
      <stop offset="0.403921568627451" stop-color="#9a9999"/>
      <stop offset="0.592156862745098" stop-color="#dbdbda"/>
      <stop offset="0.7803921568627451" stop-color="#9b9a9a"/>
      <stop offset="1.0" stop-color="#151213"/>
    </linearGradient>
    <g id="shape2" transform="matrix(1.0, 0.0, 0.0, 1.0, -0.05, 0.0)">
      <path d="M185.25 8.2 L185.3 8.25 185.25 8.25 185.25 8.2 M1.9 5.2 L2.3 2.85 18.75 2.05 59.05 0.7 Q83.4 0.05 109.4 0.3 115.1 0.55 118.85 1.6 122.65 2.7 128.15 3.0 L129.3 1.5 Q130.05 0.2 130.5 0.0 160.7 0.5 181.5 3.85 L183.45 6.1 103.3 3.5 Q60.0 3.6 6.5 5.1 L1.9 5.2 M176.25 8.0 L176.45 8.4 177.65 11.45 178.5 13.65 Q179.3 12.8 179.7 10.9 179.7 9.8 179.25 9.1 L179.9 9.55 Q180.65 10.3 180.7 11.75 179.85 15.7 177.15 15.05 175.8 14.75 175.1 13.85 L176.15 14.2 177.35 14.25 176.45 12.35 174.9 8.8 174.8 8.5 174.95 8.35 Q175.75 7.8 176.25 8.0 M178.25 27.3 L179.85 27.15 Q180.5 27.3 181.25 27.95 183.6 31.2 181.35 32.8 180.2 33.6 179.1 33.5 L180.8 32.15 178.8 31.55 175.1 30.4 175.2 29.1 175.2 29.0 175.25 28.7 175.4 28.75 175.85 28.9 178.95 30.05 181.1 30.85 Q181.0 29.65 179.9 28.15 179.05 27.45 178.25 27.3 M9.35 6.95 L10.7 10.45 11.7 12.9 Q12.6 11.95 13.05 9.85 13.05 8.55 12.5 7.75 13.85 8.35 14.15 10.05 L13.75 12.35 Q12.6 15.1 10.15 14.55 8.75 14.25 8.0 13.4 L7.85 13.2 9.0 13.6 10.35 13.65 9.35 11.4 7.6 7.45 8.75 6.6 9.2 6.55 9.35 6.95 M9.4 25.3 Q11.0 24.35 12.9 25.8 15.0 28.35 14.35 30.1 L13.4 31.3 Q12.2 32.25 10.95 32.25 L12.75 30.6 10.4 30.05 6.2 29.05 6.15 27.55 6.15 27.1 6.35 27.15 6.9 27.35 10.45 28.4 12.95 29.1 Q12.75 27.8 11.35 26.15 10.35 25.35 9.4 25.3" fill="#47525f" fill-rule="evenodd" stroke="none"/>
      <path d="M0.05 36.7 L0.75 22.9 Q1.05 14.95 1.6 7.0 L1.9 5.2 6.5 5.1 3.2 8.3 1.95 36.45 0.05 36.7" fill="#cdcdcd" fill-rule="evenodd" stroke="none"/>
      <path d="M13.75 12.35 L14.15 10.05 26.45 10.0 13.75 12.35 M8.0 13.4 L7.0 13.55 7.2 26.2 6.35 27.15 6.15 27.1 6.15 27.55 Q5.15 29.5 6.75 31.55 8.95 33.2 10.95 32.25 12.2 32.25 13.4 31.3 L14.35 30.1 16.45 30.2 36.65 31.3 56.5 32.6 Q50.4 32.9 38.0 32.9 L15.1 32.75 3.85 32.6 5.25 10.05 6.0 10.05 Q6.15 12.3 7.85 13.2 L8.0 13.4" fill="#848484" fill-rule="evenodd" stroke="none"/>
      <path d="M175.1 13.85 Q175.8 14.75 177.15 15.05 179.85 15.7 180.7 11.75 180.65 10.3 179.9 9.55 L180.85 9.65 179.85 27.15 178.25 27.3 177.7 27.3 177.8 15.2 160.95 13.3 Q144.35 11.4 115.0 6.95 144.55 7.2 162.45 8.35 L174.1 9.15 Q173.65 9.7 173.4 10.6 173.45 12.95 175.1 13.85 M175.3 32.3 L137.05 30.55 175.2 29.0 175.2 29.1 Q174.3 30.55 175.3 32.3" fill="#a09fa0" fill-rule="evenodd" stroke="none"/>
      <path d="M176.45 8.4 L176.25 8.0 176.9 7.95 Q178.55 8.05 179.25 9.1 179.7 9.8 179.7 10.9 179.3 12.8 178.5 13.65 L177.65 11.45 178.05 10.25 Q178.0 8.55 176.45 8.4 M174.8 8.5 L174.9 8.8 Q174.35 9.2 174.15 10.05 174.2 11.9 175.85 12.3 L176.45 12.35 177.35 14.25 176.15 14.2 175.1 13.85 Q173.45 12.95 173.4 10.6 173.65 9.7 174.1 9.15 L174.8 8.5 M177.7 27.3 L178.25 27.3 Q179.05 27.45 179.9 28.15 181.0 29.65 181.1 30.85 L178.95 30.05 178.3 28.9 Q177.0 27.8 175.85 28.9 L175.4 28.75 175.8 28.3 Q176.7 27.35 177.7 27.3 M179.1 33.5 Q177.3 34.2 175.5 32.65 L175.3 32.3 Q174.3 30.55 175.2 29.1 L175.1 30.4 Q175.25 32.1 176.95 32.35 178.0 32.25 178.8 31.55 L180.8 32.15 179.1 33.5 M10.7 10.45 L11.2 9.05 Q11.15 7.15 9.35 6.95 L9.2 6.55 9.9 6.5 Q11.75 6.6 12.5 7.75 13.05 8.55 13.05 9.85 12.6 11.95 11.7 12.9 L10.7 10.45 M7.2 26.2 Q8.2 25.2 9.4 25.3 10.35 25.35 11.35 26.15 12.75 27.8 12.95 29.1 L10.45 28.4 Q9.75 26.65 8.05 26.6 L6.9 27.35 6.35 27.15 7.2 26.2 M6.0 10.05 L5.95 9.55 Q6.6 7.0 8.75 6.6 L7.6 7.45 Q7.0 7.9 6.75 8.85 6.8 10.95 8.7 11.35 L9.35 11.4 10.35 13.65 9.0 13.6 7.85 13.2 Q6.15 12.3 6.0 10.05 M6.15 27.55 L6.2 29.05 Q6.45 30.9 8.2 31.1 9.7 31.2 10.4 30.05 L12.75 30.6 10.95 32.25 Q8.95 33.2 6.75 31.55 5.15 29.5 6.15 27.55" fill="#9c9c9c" fill-rule="evenodd" stroke="none"/>
      <path d="M174.9 8.8 L176.45 12.35 175.85 12.3 Q174.2 11.9 174.15 10.05 174.35 9.2 174.9 8.8 M177.65 11.45 L176.45 8.4 Q178.0 8.55 178.05 10.25 L177.65 11.45 M175.85 28.9 Q177.0 27.8 178.3 28.9 L178.95 30.05 175.85 28.9 M175.1 30.4 L178.8 31.55 Q178.0 32.25 176.95 32.35 175.25 32.1 175.1 30.4 M9.35 6.95 Q11.15 7.15 11.2 9.05 L10.7 10.45 9.35 6.95 M9.35 11.4 L8.7 11.35 Q6.8 10.95 6.75 8.85 7.0 7.9 7.6 7.45 L9.35 11.4 M10.45 28.4 L6.9 27.35 8.05 26.6 Q9.75 26.65 10.45 28.4 M6.2 29.05 L10.4 30.05 Q9.7 31.2 8.2 31.1 6.45 30.9 6.2 29.05" fill="#d5d4d4" fill-rule="evenodd" stroke="none"/>
      <path d="M183.45 6.1 L185.3 6.25 185.25 8.2 185.25 8.25 185.1 13.45 184.65 27.3 184.3 36.25 Q157.35 34.75 133.85 35.55 L89.2 37.0 Q65.15 37.15 43.55 35.85 22.0 34.5 0.05 36.75 L0.05 36.7 1.95 36.45 3.2 8.3 6.5 5.1 Q60.0 3.6 103.3 3.5 L183.45 6.1 M176.25 8.0 Q175.75 7.8 174.95 8.35 L174.8 8.5 174.1 9.15 162.45 8.35 Q144.55 7.2 115.0 6.95 144.35 11.4 160.95 13.3 L177.8 15.2 177.7 27.3 Q176.7 27.35 175.8 28.3 L175.4 28.75 175.25 28.7 175.2 29.0 137.05 30.55 175.3 32.3 175.5 32.65 Q177.3 34.2 179.1 33.5 180.2 33.6 181.35 32.8 183.6 31.2 181.25 27.95 180.5 27.3 179.85 27.15 L180.85 9.65 179.9 9.55 179.25 9.1 Q178.55 8.05 176.9 7.95 L176.25 8.0 M12.5 7.75 Q11.75 6.6 9.9 6.5 L9.2 6.55 8.75 6.6 Q6.6 7.0 5.95 9.55 L6.0 10.05 5.25 10.05 3.85 32.6 15.1 32.75 38.0 32.9 Q50.4 32.9 56.5 32.6 L36.65 31.3 16.45 30.2 14.35 30.1 Q15.0 28.35 12.9 25.8 11.0 24.35 9.4 25.3 8.2 25.2 7.2 26.2 L7.0 13.55 8.0 13.4 Q8.75 14.25 10.15 14.55 12.6 15.1 13.75 12.35 L26.45 10.0 14.15 10.05 Q13.85 8.35 12.5 7.75" fill="url(#gradient1)" fill-rule="evenodd" stroke="none"/>
    </g>
    <linearGradient gradientTransform="matrix(0.1131, 0.0, 0.0, 0.0204, 92.65, 20.25)" gradientUnits="userSpaceOnUse" id="gradient1" spreadMethod="pad" x1="-819.2" x2="819.2">
      <stop offset="0.0" stop-color="#9a9a9a"/>
      <stop offset="1.0" stop-color="#ffffff"/>
    </linearGradient>
    <g id="text0" transform="matrix(1.0, 0.0, 0.0, 1.0, -1.25, -5.65)">
      <g transform="matrix(1.0, 0.0, 0.0, 1.0, 0.35, 0.0)">
        <use fill="#000000" height="18.75" transform="matrix(0.5078, 0.0, 0.0, 0.5078, 0.0, 22.0)" width="155.95" xlink:href="#font_______W7_S0"/>
        <use fill="#000000" height="18.75" transform="matrix(0.5078, 0.0, 0.0, 0.5078, 16.05, 22.0)" width="155.95" xlink:href="#font_______W7_h0"/>
        <use fill="#000000" height="18.75" transform="matrix(0.5078, 0.0, 0.0, 0.5078, 30.35, 22.0)" width="155.95" xlink:href="#font_______W7_o0"/>
        <use fill="#000000" height="18.75" transform="matrix(0.5078, 0.0, 0.0, 0.5078, 43.35, 22.0)" width="155.95" xlink:href="#font_______W7_r0"/>
        <use fill="#000000" height="18.75" transform="matrix(0.5078, 0.0, 0.0, 0.5078, 52.05, 22.0)" width="155.95" xlink:href="#font_______W7_t0"/>
        <use fill="#000000" height="18.75" transform="matrix(0.5078, 0.0, 0.0, 0.5078, 71.05, 22.0)" width="155.95" xlink:href="#font_______W7_C0"/>
        <use fill="#000000" height="18.75" transform="matrix(0.5078, 0.0, 0.0, 0.5078, 87.55, 22.0)" width="155.95" xlink:href="#font_______W7_h0"/>
        <use fill="#000000" height="18.75" transform="matrix(0.5078, 0.0, 0.0, 0.5078, 101.85, 22.0)" width="155.95" xlink:href="#font_______W7_a0"/>
        <use fill="#000000" height="18.75" transform="matrix(0.5078, 0.0, 0.0, 0.5078, 115.8, 22.0)" width="155.95" xlink:href="#font_______W7_n0"/>
        <use fill="#000000" height="18.75" transform="matrix(0.5078, 0.0, 0.0, 0.5078, 129.55, 22.0)" width="155.95" xlink:href="#font_______W7_g0"/>
        <use fill="#000000" height="18.75" transform="matrix(0.5078, 0.0, 0.0, 0.5078, 142.95, 22.0)" width="155.95" xlink:href="#font_______W7_e0"/>
      </g>
    </g>
    <g id="font_______W7_S0">
      <path d="M31.55 -9.25 L31.55 -9.25 Q31.55 -13.4 28.3 -15.85 25.95 -17.65 19.7 -19.75 10.7 -22.75 10.7 -24.2 10.7 -25.4 11.9 -26.1 13.0 -26.75 14.65 -26.75 21.7 -26.75 27.4 -23.2 L30.25 -27.8 Q24.05 -32.15 16.75 -32.15 11.9 -32.15 8.45 -30.45 4.0 -28.25 4.0 -23.9 4.0 -20.3 7.85 -18.05 9.4 -17.1 15.9 -14.75 23.85 -11.9 23.85 -10.1 23.85 -8.7 22.45 -7.9 21.25 -7.25 19.75 -7.25 15.9 -7.25 12.1 -9.95 8.85 -12.25 6.35 -15.9 L1.55 -6.1 Q4.85 -3.25 9.45 -1.6 14.1 0.05 18.65 0.05 23.45 0.05 27.15 -2.15 31.55 -4.75 31.55 -9.25" fill-rule="evenodd" stroke="none"/>
    </g>
    <g id="font_______W7_h0">
      <path d="M28.1 -7.6 L28.1 -7.6 Q28.1 -13.7 25.7 -17.25 22.9 -21.45 17.05 -21.45 13.35 -21.45 10.45 -19.3 L9.3 -31.55 4.65 -32.15 2.05 0.05 12.1 -1.4 11.0 -12.9 Q13.45 -15.95 16.35 -15.95 20.1 -15.95 20.1 -10.2 20.1 -6.55 17.6 -1.55 L27.6 0.05 28.1 -7.6" fill-rule="evenodd" stroke="none"/>
    </g>
    <g id="font_______W7_o0">
      <path d="M15.8 -13.5 L15.8 -13.5 Q16.45 -11.85 16.45 -10.4 16.45 -6.85 12.35 -6.85 10.6 -6.85 9.35 -8.05 8.15 -9.35 8.15 -11.05 8.15 -13.25 9.8 -14.6 11.4 -16.0 13.7 -16.0 16.1 -16.0 18.3 -14.3 L15.8 -13.5 M25.7 -11.4 L25.7 -11.4 Q25.7 -13.8 24.75 -16.35 L21.25 -15.25 22.7 -17.2 Q18.35 -21.45 13.15 -21.45 8.45 -21.45 5.1 -18.2 1.8 -14.95 1.8 -10.3 1.8 -5.5 5.4 -2.65 8.65 0.05 13.65 0.05 18.75 0.05 22.2 -3.2 25.7 -6.4 25.7 -11.4" fill-rule="evenodd" stroke="none"/>
    </g>
    <g id="font_______W7_r0">
      <path d="M18.3 -20.6 L18.3 -20.6 Q16.55 -21.45 14.75 -21.45 11.5 -21.45 8.7 -18.65 L8.45 -20.75 4.45 -21.45 2.55 0.05 10.65 -1.4 9.3 -12.8 Q10.55 -14.85 12.3 -14.85 13.25 -14.85 14.55 -13.85 L16.55 -12.05 18.3 -20.6" fill-rule="evenodd" stroke="none"/>
    </g>
    <g id="font_______W7_t0">
      <path d="M18.7 -12.2 L18.7 -12.2 Q17.0 -9.35 14.9 -9.35 11.95 -9.35 11.95 -15.4 L21.65 -15.4 20.1 -22.55 12.4 -21.45 Q12.75 -24.2 13.6 -27.95 L8.95 -28.85 Q7.75 -24.65 7.1 -20.75 L0.75 -19.9 1.75 -15.4 6.55 -15.4 6.5 -12.55 Q6.5 -6.8 7.75 -4.05 9.5 0.05 14.55 0.05 19.1 0.05 23.25 -4.15 L18.7 -12.2" fill-rule="evenodd" stroke="none"/>
    </g>
    <g id="font_______W7_C0">
      <path d="M26.2 -15.4 L26.2 -15.4 Q21.6 -8.3 16.1 -8.3 12.35 -8.3 10.4 -10.7 8.6 -12.9 8.6 -16.75 8.6 -21.2 11.05 -23.95 13.55 -26.6 17.95 -26.6 23.65 -26.6 27.3 -22.25 L31.1 -26.05 Q28.65 -28.9 25.1 -30.55 21.55 -32.15 17.8 -32.15 10.8 -32.15 6.45 -27.4 2.05 -22.7 2.05 -15.6 2.05 -8.95 6.35 -4.45 10.7 0.05 17.3 0.05 25.6 0.05 32.65 -7.35 L26.2 -15.4" fill-rule="evenodd" stroke="none"/>
    </g>
    <g id="font_______W7_a0">
      <path d="M19.05 -8.85 L19.05 -8.85 18.5 -5.05 17.1 -9.0 Q14.35 -6.2 10.6 -6.2 9.95 -6.2 9.45 -6.75 9.0 -7.2 9.0 -7.85 9.0 -10.2 13.7 -10.2 15.9 -10.2 19.05 -8.85 M27.4 -6.8 L27.4 -6.8 Q27.4 -21.45 13.35 -21.45 7.15 -21.45 2.55 -18.35 L4.3 -14.35 Q8.3 -16.55 13.15 -16.55 17.85 -16.55 18.85 -13.35 15.4 -14.5 12.8 -14.5 8.6 -14.5 5.6 -12.8 1.8 -10.75 1.8 -6.95 1.8 -3.5 4.9 -1.55 7.55 0.05 11.15 0.05 13.95 0.05 17.35 -0.95 L17.0 0.15 26.7 -0.3 Q27.4 -3.45 27.4 -6.8" fill-rule="evenodd" stroke="none"/>
    </g>
    <g id="font_______W7_n0">
      <path d="M27.0 -9.05 L27.0 -9.05 Q27.0 -14.5 24.65 -17.8 21.9 -21.45 16.6 -21.45 12.6 -21.45 9.45 -18.85 L9.2 -20.75 4.35 -21.45 2.05 0.05 11.95 -1.4 10.35 -12.55 Q12.95 -15.85 15.9 -15.85 19.4 -15.85 19.4 -10.6 19.4 -6.9 16.6 -1.3 L26.2 0.0 Q27.0 -6.5 27.0 -9.05" fill-rule="evenodd" stroke="none"/>
    </g>
    <g id="font_______W7_g0">
      <path d="M21.25 -12.75 L21.25 -12.75 21.05 -10.5 18.9 -14.7 Q15.2 -11.7 11.9 -11.7 10.85 -11.7 10.0 -12.55 9.05 -13.45 9.05 -14.45 9.05 -16.75 13.35 -16.75 15.6 -16.75 18.05 -15.7 20.3 -14.7 21.2 -13.55 L21.25 -12.75 M26.3 -10.4 L26.3 -10.4 Q26.3 -15.45 24.2 -21.5 L20.0 -20.3 20.3 -19.15 Q16.35 -21.45 12.1 -21.45 8.15 -21.45 5.4 -19.3 2.35 -16.95 2.35 -13.2 2.35 -9.45 5.85 -7.35 8.8 -5.6 12.75 -5.6 16.55 -5.6 19.75 -6.9 17.8 -3.95 13.25 -3.95 8.55 -3.95 4.75 -6.35 L1.8 2.9 Q6.7 4.75 11.2 4.75 18.25 4.75 22.25 0.65 26.3 -3.4 26.3 -10.4" fill-rule="evenodd" stroke="none"/>
    </g>
    <g id="font_______W7_e0">
      <path d="M19.45 -9.9 L19.45 -9.9 Q16.75 -7.55 13.6 -7.55 10.45 -7.55 9.15 -9.9 L19.45 -9.9 M9.0 -13.4 L9.0 -13.4 Q9.7 -14.95 11.5 -15.95 13.2 -16.8 15.1 -16.8 18.05 -16.8 19.65 -14.35 L9.0 -13.4 M23.25 -9.9 L23.25 -9.9 24.3 -9.9 26.7 -12.6 Q25.85 -16.7 22.9 -19.1 19.9 -21.45 15.15 -21.45 9.65 -21.45 5.9 -18.65 1.8 -15.6 1.8 -10.4 1.8 -5.35 5.8 -2.5 9.3 0.05 14.6 0.05 22.45 0.05 27.15 -4.25 L23.25 -9.9" fill-rule="evenodd" stroke="none"/>
    </g>
    <g id="shape3" transform="matrix(1.0, 0.0, 0.0, 1.0, -27.0, -45.25)">
      <path d="M187.3 103.9 L186.95 104.45 187.25 103.9 187.3 103.9 M186.2 106.8 L186.8 107.35 187.3 107.6 Q191.6 109.1 192.15 104.7 191.6 112.45 186.3 107.15 185.6 106.4 185.65 105.3 185.75 106.1 186.2 106.8 M277.3 181.55 L276.0 172.85 237.45 127.7 199.0 118.85 198.15 111.85 192.3 60.0 120.35 49.9 111.55 117.1 87.1 136.6 50.25 163.3 31.7 211.8 35.75 262.0 45.5 272.4 71.55 272.4 267.1 272.4 281.35 252.3 277.3 181.55 M196.55 55.7 L205.75 112.6 240.1 123.6 282.1 175.95 286.25 256.85 269.5 274.65 43.55 274.65 31.45 265.8 27.0 210.85 46.5 160.35 92.95 125.8 107.4 113.45 117.6 45.25 196.55 55.7 M230.6 140.05 Q231.75 140.7 233.15 140.75 237.7 140.35 238.15 135.95 238.35 143.15 231.25 142.0 L230.65 141.65 230.6 140.05 M234.75 132.8 L235.7 131.8 235.7 133.5 229.05 140.45 229.05 138.7 234.75 132.8 M269.55 190.7 L269.1 194.25 268.95 194.2 Q273.45 196.55 274.35 191.6 273.7 199.45 268.4 194.05 267.85 193.4 267.9 192.35 267.95 193.05 268.4 193.7 268.5 192.2 269.45 190.75 L269.55 190.7 M125.3 65.75 L131.95 58.85 131.95 60.5 125.35 67.5 125.3 67.5 125.3 65.75 M134.4 63.0 Q134.5 70.25 127.5 68.8 L126.85 68.65 126.85 67.1 Q128.0 67.75 129.4 67.8 133.95 67.4 134.4 63.0 M63.9 167.4 Q64.1 174.6 57.05 173.45 L56.4 173.1 56.4 171.5 Q57.55 172.15 58.95 172.2 63.5 171.8 63.9 167.4 M60.5 164.25 L61.45 163.25 61.45 164.95 54.85 171.9 54.85 170.15 60.5 164.25" fill="#47525f" fill-rule="evenodd" stroke="none"/>
      <path d="M198.15 111.85 L199.0 118.85 237.45 127.7 276.0 172.85 277.3 181.55 71.55 272.4 45.5 272.4 35.75 262.0 31.7 211.8 50.25 163.3 87.1 136.6 198.15 111.85 M238.15 135.95 L237.2 133.15 237.2 133.7 Q237.05 140.3 230.6 140.05 L235.7 133.5 235.7 131.8 234.75 132.8 235.35 131.6 234.85 131.4 Q229.25 130.25 228.05 136.0 L228.4 137.55 229.05 140.45 230.65 141.65 231.25 142.0 Q238.35 143.15 238.15 135.95 M132.6 61.05 L133.45 60.2 133.5 60.75 Q133.35 67.35 126.85 67.1 L132.6 61.05 M63.9 167.4 L62.95 164.6 63.0 165.2 Q62.75 171.8 56.4 171.5 L61.45 164.95 61.45 163.25 60.5 164.25 61.15 163.05 60.65 162.85 Q55.05 161.75 53.85 167.45 L54.2 169.0 54.85 171.9 56.4 173.1 57.05 173.45 Q64.1 174.6 63.9 167.4" fill="#bab9ba" fill-rule="evenodd" stroke="none"/>
      <path d="M191.5 103.15 L190.45 102.25 187.3 103.9 187.25 103.9 190.45 102.25 189.75 102.0 Q186.1 101.6 185.65 105.3 185.6 106.4 186.3 107.15 191.6 112.45 192.15 104.7 L191.5 103.15 M198.15 111.85 L87.1 136.6 111.55 117.1 120.35 49.9 192.3 60.0 198.15 111.85 M71.55 272.4 L277.3 181.55 281.35 252.3 267.1 272.4 71.55 272.4 M273.7 190.1 L272.65 189.15 Q270.65 189.15 269.3 190.1 267.9 191.05 267.9 192.35 267.85 193.4 268.4 194.05 273.7 199.45 274.35 191.6 274.25 190.75 273.7 190.1 M269.9 190.4 L269.55 190.7 269.45 190.75 269.9 190.4 M131.55 58.65 L131.1 58.45 Q125.5 57.35 124.35 63.05 L125.3 67.5 125.35 67.5 126.85 68.65 127.5 68.8 Q134.5 70.25 134.4 63.0 L133.45 60.2 132.6 61.05 131.95 60.5 131.95 58.85 125.3 65.75 125.3 65.7 131.55 58.65" fill="#9c9c9c" fill-rule="evenodd" stroke="none"/>
      <path d="M186.95 104.45 L186.2 106.8 Q185.75 106.1 185.65 105.3 186.1 101.6 189.75 102.0 L190.45 102.25 187.25 103.9 186.95 104.45 M228.4 137.55 L228.05 136.0 Q229.25 130.25 234.85 131.4 L235.35 131.6 234.7 131.85 Q229.75 133.6 228.8 138.3 L228.4 137.55 M272.65 189.15 L269.9 190.4 269.45 190.75 Q268.5 192.2 268.4 193.7 267.95 193.05 267.9 192.35 267.9 191.05 269.3 190.1 270.65 189.15 272.65 189.15 M124.35 63.05 Q125.5 57.35 131.1 58.45 L131.55 58.65 Q126.8 60.15 125.15 64.8 L125.05 65.3 124.35 63.05 M54.2 169.0 L53.85 167.45 Q55.05 161.75 60.65 162.85 L61.15 163.05 60.5 163.3 Q55.65 164.95 54.55 169.75 L54.2 169.0" fill="#e9e9eb" fill-rule="evenodd" stroke="none"/>
      <path d="M186.95 104.45 L187.3 103.9 190.45 102.25 191.5 103.15 Q191.5 104.9 190.15 106.1 188.7 107.35 186.8 107.35 L186.2 106.8 186.95 104.45 M235.35 131.6 L234.75 132.8 229.05 138.7 228.8 138.3 Q229.75 133.6 234.7 131.85 L235.35 131.6 M272.65 189.15 L273.7 190.1 Q273.7 191.8 272.35 193.05 271.0 194.25 269.1 194.25 L269.55 190.7 269.9 190.4 272.65 189.15 M131.55 58.65 L125.3 65.7 125.05 65.3 125.15 64.8 Q126.8 60.15 131.55 58.65 M61.15 163.05 L60.5 164.25 54.85 170.15 54.55 169.75 Q55.65 164.95 60.5 163.3 L61.15 163.05" fill="#d0cfd0" fill-rule="evenodd" stroke="none"/>
      <path d="M186.8 107.35 Q188.7 107.35 190.15 106.1 191.5 104.9 191.5 103.15 L192.15 104.7 Q191.6 109.1 187.3 107.6 L186.8 107.35 M230.6 140.05 Q237.05 140.3 237.2 133.7 L237.2 133.15 238.15 135.95 Q237.7 140.35 233.15 140.75 231.75 140.7 230.6 140.05 M269.1 194.25 Q271.0 194.25 272.35 193.05 273.7 191.8 273.7 190.1 274.25 190.75 274.35 191.6 273.45 196.55 268.95 194.2 L269.1 194.25 M133.45 60.2 L134.4 63.0 Q133.95 67.4 129.4 67.8 128.0 67.75 126.85 67.1 133.35 67.35 133.5 60.75 L133.45 60.2 M56.4 171.5 Q62.75 171.8 63.0 165.2 L62.95 164.6 63.9 167.4 Q63.5 171.8 58.95 172.2 57.55 172.15 56.4 171.5" fill="#b0aeb3" fill-rule="evenodd" stroke="none"/>
      <path d="M230.65 141.65 L229.05 140.45 235.7 133.5 230.6 140.05 230.65 141.65 M131.95 60.5 L132.6 61.05 126.85 67.1 126.85 68.65 125.35 67.5 131.95 60.5 M56.4 173.1 L54.85 171.9 61.45 164.95 56.4 171.5 56.4 173.1" fill="#57565b" fill-rule="evenodd" stroke="none"/>
      <path d="M229.05 140.45 L228.4 137.55 228.8 138.3 229.05 138.7 229.05 140.45 M125.3 65.7 L125.3 65.75 125.3 67.5 124.35 63.05 125.05 65.3 125.3 65.7 M54.85 171.9 L54.2 169.0 54.55 169.75 54.85 170.15 54.85 171.9" fill="#79818b" fill-rule="evenodd" stroke="none"/>
    </g>
    <g id="shape4" transform="matrix(1.0, 0.0, 0.0, 1.0, 0.0, 0.0)">
      <path d="M170.15 17.7 Q160.6 17.85 152.25 21.95 L165.5 22.05 166.1 22.95 165.5 23.9 149.45 23.95 149.05 24.2 148.05 23.8 Q148.1 22.6 149.05 22.0 158.7 15.75 170.05 15.85 L170.7 16.7 170.15 17.7 M176.55 1.1 L176.65 1.6 183.7 70.55 185.15 71.35 185.75 71.2 211.75 78.45 212.9 76.3 228.25 81.85 254.1 111.8 276.6 149.9 276.8 150.45 281.9 187.85 281.8 188.6 282.1 189.3 285.45 214.25 284.85 215.7 276.25 216.55 285.05 226.25 285.1 226.8 270.1 246.25 269.8 246.15 264.65 244.2 253.3 240.05 Q248.25 238.3 243.5 235.95 L242.55 235.35 242.2 232.8 242.15 230.35 242.6 225.55 Q242.7 224.7 243.05 223.95 L245.55 218.95 240.85 219.25 240.5 218.65 240.2 217.95 Q236.7 205.45 232.5 193.45 L231.25 189.95 230.15 187.2 231.75 200.0 233.35 248.5 233.0 249.65 231.85 250.05 230.25 250.05 228.75 250.05 143.75 250.45 50.05 250.1 49.3 249.9 48.55 248.55 50.25 199.8 48.45 203.55 46.6 207.3 42.85 214.6 41.4 217.1 39.7 220.0 38.5 220.3 38.2 232.1 34.65 234.05 35.9 238.7 31.85 242.65 27.7 246.55 27.0 247.15 26.65 247.0 23.25 245.4 15.2 240.9 Q11.1 238.55 7.2 236.0 L1.85 232.6 6.45 217.2 1.2 216.65 0.35 215.3 0.0 186.45 0.1 185.85 20.4 135.2 20.65 134.8 61.65 86.7 66.7 84.5 71.65 82.1 Q79.8 77.95 88.35 75.1 L91.9 74.0 95.3 72.7 101.7 1.4 103.2 0.0 175.15 0.25 176.55 1.1 M174.85 13.7 L173.8 3.25 104.6 3.0 103.75 13.0 100.7 48.15 Q113.4 39.2 119.4 37.1 L126.7 34.6 126.35 33.6 Q125.65 30.95 126.7 28.5 L126.95 28.25 128.15 28.65 127.85 32.95 130.7 33.25 Q139.75 34.35 148.9 33.4 L149.15 33.2 149.35 31.9 149.25 30.6 148.75 29.25 148.6 28.9 149.4 28.15 150.85 28.8 Q151.7 29.3 152.05 30.45 152.55 31.9 151.8 33.15 L151.35 33.9 Q164.35 36.9 175.45 44.15 L175.65 44.4 171.8 42.8 Q168.2 41.15 158.85 37.35 149.5 33.55 135.4 35.8 121.7 35.15 113.25 40.95 104.75 46.7 100.45 51.1 L100.1 55.3 102.2 54.15 Q105.35 52.7 108.65 51.6 119.6 48.15 130.8 46.6 147.35 44.05 164.0 45.65 171.85 46.3 178.05 51.1 L178.7 51.6 174.85 13.7 M179.0 54.45 Q172.65 48.65 164.15 47.55 147.2 45.95 130.4 48.65 L122.15 49.9 Q110.05 51.4 99.85 57.8 L98.5 73.6 129.15 82.7 152.45 82.95 180.3 70.7 179.0 54.45 M186.55 74.45 L148.2 146.45 191.9 112.2 182.5 107.8 Q181.4 107.3 181.8 105.95 181.85 105.7 182.05 105.55 L195.4 99.8 197.3 77.7 186.55 74.45 M182.1 72.95 L181.5 73.45 154.55 85.3 158.35 99.7 168.4 99.7 183.5 73.85 182.1 72.95 M211.7 81.5 L200.25 78.5 198.25 101.35 197.95 101.65 197.35 102.1 186.8 106.55 195.35 110.6 195.8 110.85 196.05 111.25 196.2 111.7 Q196.25 112.6 195.7 113.05 L147.0 151.15 145.3 154.0 145.25 247.45 230.25 247.05 228.75 200.1 228.95 199.3 220.85 142.75 212.25 98.25 211.7 81.5 M215.2 97.8 L223.8 142.3 228.3 174.1 230.9 180.85 232.15 184.3 233.65 188.4 Q239.0 201.85 242.45 216.15 L282.3 213.1 273.9 151.2 251.7 113.6 226.25 84.1 214.7 79.85 215.2 97.8 M131.7 26.35 L131.3 26.5 129.95 25.95 129.6 26.25 114.4 25.95 113.85 25.4 114.05 24.3 127.0 24.2 Q117.2 20.4 106.8 21.2 L106.4 20.2 106.9 20.05 Q119.15 17.05 129.8 23.75 L131.9 25.05 131.7 26.35 M83.35 80.0 L83.9 104.65 107.5 105.0 107.55 106.4 107.1 107.1 105.9 107.3 105.8 108.05 97.65 115.0 137.7 143.7 93.3 76.4 83.35 80.0 M96.45 75.5 L110.8 97.45 122.7 103.1 130.0 86.1 97.45 76.45 96.45 75.5 M133.45 85.75 L129.45 95.1 137.55 105.65 147.4 105.05 153.9 94.65 151.6 85.95 133.45 85.75 M63.75 88.9 L23.1 136.55 3.0 186.7 3.35 213.9 25.65 216.0 34.45 216.4 35.05 216.6 35.5 216.95 38.15 217.2 50.5 192.65 51.65 158.9 67.15 102.4 66.85 87.55 63.75 88.9 M69.85 86.45 L70.1 103.0 54.65 159.2 51.6 247.1 142.25 247.45 142.3 154.1 138.35 147.85 94.35 116.35 94.0 115.35 Q93.9 114.8 94.2 114.4 L94.9 113.6 102.05 107.35 81.5 107.2 80.0 81.5 69.85 86.45 M159.55 118.8 L168.1 102.7 156.3 102.4 154.95 98.65 150.1 106.45 159.55 118.8 M147.55 108.1 L137.65 108.7 127.1 122.25 144.0 147.85 158.0 121.7 147.55 108.1 M135.0 107.25 L128.1 98.25 124.35 106.35 123.8 106.6 114.0 102.3 125.35 119.6 135.0 107.25 M33.7 219.45 L9.25 218.3 4.9 231.9 26.6 243.8 32.9 237.7 31.5 234.3 Q28.25 231.75 25.3 229.0 24.95 228.7 25.0 228.15 L25.1 227.6 26.15 227.4 27.1 227.45 32.85 231.6 35.75 230.1 35.7 221.6 33.7 219.45 M251.8 226.85 L252.35 227.25 252.6 227.7 252.55 228.15 246.8 234.4 269.35 242.8 281.65 226.45 272.95 216.85 249.25 218.65 244.4 225.05 244.9 232.05 251.3 226.6 Q251.55 226.65 251.8 226.85" fill="#1a1a1a" fill-rule="evenodd" stroke="none"/>
      <path d="M103.75 13.0 L104.6 3.0 173.8 3.25 174.85 13.7 Q168.05 8.1 158.9 7.95 146.8 9.05 137.85 17.6 125.75 8.55 110.6 10.5 106.75 10.8 103.75 13.0" fill="#003399" fill-rule="evenodd" stroke="none"/>
      <path d="M182.1 72.95 L183.5 73.85 168.4 99.7 158.35 99.7 154.55 85.3 181.5 73.45 182.1 72.95 M96.45 75.5 L97.45 76.45 130.0 86.1 122.7 103.1 110.8 97.45 96.45 75.5 M159.55 118.8 L150.1 106.45 154.95 98.65 156.3 102.4 168.1 102.7 159.55 118.8 M251.8 226.85 Q251.55 226.65 251.3 226.6 L244.9 232.05 244.4 225.05 249.25 218.65 272.95 216.85 281.65 226.45 269.35 242.8 246.8 234.4 252.55 228.15 252.6 227.7 252.35 227.25 251.8 226.85 M33.7 219.45 L35.7 221.6 35.75 230.1 32.85 231.6 27.1 227.45 26.15 227.4 25.1 227.6 25.0 228.15 Q24.95 228.7 25.3 229.0 28.25 231.75 31.5 234.3 L32.9 237.7 26.6 243.8 4.9 231.9 9.25 218.3 33.7 219.45 M135.0 107.25 L125.35 119.6 114.0 102.3 123.8 106.6 124.35 106.35 128.1 98.25 135.0 107.25" fill="#c1d9cb" fill-rule="evenodd" stroke="none"/>
      <path d="M186.55 74.45 L197.3 77.7 195.4 99.8 182.05 105.55 Q181.85 105.7 181.8 105.95 181.4 107.3 182.5 107.8 L191.9 112.2 148.2 146.45 186.55 74.45 M215.2 97.8 L214.7 79.85 226.25 84.1 251.7 113.6 273.9 151.2 282.3 213.1 242.45 216.15 Q239.0 201.85 233.65 188.4 L232.15 184.3 230.9 180.85 228.3 174.1 223.8 142.3 215.2 97.8 M211.7 81.5 L212.25 98.25 220.85 142.75 228.95 199.3 228.75 200.1 230.25 247.05 145.25 247.45 145.3 154.0 147.0 151.15 195.7 113.05 Q196.25 112.6 196.2 111.7 L196.05 111.25 195.8 110.85 195.35 110.6 186.8 106.55 197.35 102.1 197.95 101.65 198.25 101.35 200.25 78.5 211.7 81.5 M83.35 80.0 L93.3 76.4 137.7 143.7 97.65 115.0 105.8 108.05 105.9 107.3 107.1 107.1 107.55 106.4 107.5 105.0 83.9 104.65 83.35 80.0 M69.85 86.45 L80.0 81.5 81.5 107.2 102.05 107.35 94.9 113.6 94.2 114.4 Q93.9 114.8 94.0 115.35 L94.35 116.35 138.35 147.85 142.3 154.1 142.25 247.45 51.6 247.1 54.65 159.2 70.1 103.0 69.85 86.45 M63.75 88.9 L66.85 87.55 67.15 102.4 51.65 158.9 50.5 192.65 38.15 217.2 35.5 216.95 35.05 216.6 34.45 216.4 25.65 216.0 3.35 213.9 3.0 186.7 23.1 136.55 63.75 88.9" fill="#106557" fill-rule="evenodd" stroke="none"/>
      <path d="M133.45 85.75 L151.6 85.95 153.9 94.65 147.4 105.05 137.55 105.65 129.45 95.1 133.45 85.75 M147.55 108.1 L158.0 121.7 144.0 147.85 127.1 122.25 137.65 108.7 147.55 108.1" fill="#0e4239" fill-rule="evenodd" stroke="none"/>
      <path d="M170.15 17.7 L170.7 16.7 170.05 15.85 Q158.7 15.75 149.05 22.0 148.1 22.6 148.05 23.8 L149.05 24.2 149.45 23.95 165.5 23.9 166.1 22.95 165.5 22.05 152.25 21.95 Q160.6 17.85 170.15 17.7 M103.75 13.0 Q106.75 10.8 110.6 10.5 125.75 8.55 137.85 17.6 146.8 9.05 158.9 7.95 168.05 8.1 174.85 13.7 L178.7 51.6 178.05 51.1 Q171.85 46.3 164.0 45.65 147.35 44.05 130.8 46.6 119.6 48.15 108.65 51.6 105.35 52.7 102.2 54.15 L100.1 55.3 100.45 51.1 Q104.75 46.7 113.25 40.95 121.7 35.15 135.4 35.8 149.5 33.55 158.85 37.35 168.2 41.15 171.8 42.8 L175.65 44.4 175.45 44.15 Q164.35 36.9 151.35 33.9 L151.8 33.15 Q152.55 31.9 152.05 30.45 151.7 29.3 150.85 28.8 L149.4 28.15 148.6 28.9 148.75 29.25 149.25 30.6 149.35 31.9 149.15 33.2 148.9 33.4 Q139.75 34.35 130.7 33.25 L127.85 32.95 128.15 28.65 126.95 28.25 126.7 28.5 Q125.65 30.95 126.35 33.6 L126.7 34.6 119.4 37.1 Q113.4 39.2 100.7 48.15 L103.75 13.0 M179.0 54.45 L180.3 70.7 152.45 82.95 129.15 82.7 98.5 73.6 99.85 57.8 Q110.05 51.4 122.15 49.9 L130.4 48.65 Q147.2 45.95 164.15 47.55 172.65 48.65 179.0 54.45 M131.7 26.35 L131.9 25.05 129.8 23.75 Q119.15 17.05 106.9 20.05 L106.4 20.2 106.8 21.2 Q117.2 20.4 127.0 24.2 L114.05 24.3 113.85 25.4 114.4 25.95 129.6 26.25 129.95 25.95 131.3 26.5 131.7 26.35" fill="#b6e4e3" fill-rule="evenodd" stroke="none"/>
    </g>
    <g id="shape5" transform="matrix(1.0, 0.0, 0.0, 1.0, -0.25, -0.1)">
      <path d="M41.5 9.2 Q42.4 9.55 43.15 9.95 46.05 11.85 46.9 14.2 L47.35 15.85 47.65 17.9 47.25 18.65 44.0 19.2 38.3 19.95 37.2 18.3 37.9 23.9 45.75 25.9 Q47.7 26.7 49.5 27.85 L51.3 29.45 51.9 30.15 53.05 32.2 Q53.9 34.55 53.45 37.4 53.05 39.65 51.8 42.25 50.75 44.2 48.5 45.95 L41.3 49.9 41.5 51.65 41.65 52.55 41.55 54.25 40.85 54.55 36.85 54.55 33.35 54.55 32.45 54.35 32.1 53.1 32.0 51.75 29.9 51.65 29.95 52.0 30.05 53.35 30.25 54.95 30.05 55.55 29.7 55.8 21.15 55.75 20.85 54.7 20.85 53.9 20.8 52.15 20.8 50.7 Q14.65 48.7 10.65 43.65 L7.9 38.1 7.55 35.2 8.6 34.85 10.8 34.65 18.35 34.25 20.5 38.15 19.95 29.25 Q14.15 29.25 10.1 25.5 8.95 24.2 8.45 22.85 7.9 20.7 8.2 18.6 8.55 16.85 9.35 15.4 10.25 14.05 11.4 12.85 L14.5 10.85 17.6 9.4 17.5 8.85 17.35 8.15 17.1 6.75 17.15 4.7 17.75 4.4 24.8 4.3 25.3 5.6 25.4 6.25 25.5 7.1 27.25 6.95 27.1 6.05 27.05 5.4 26.95 4.05 31.85 2.35 33.7 2.05 35.15 2.35 35.4 3.05 35.6 5.0 35.8 6.45 35.85 7.15 35.9 7.6 38.4 8.15 Q40.1 8.6 41.5 9.2 M45.7 17.05 Q45.55 13.85 43.0 11.9 39.95 9.6 36.1 8.95 L36.85 15.25 Q38.5 16.2 39.2 17.9 L45.7 17.05 M50.5 31.85 Q50.15 30.75 49.3 29.9 44.5 25.35 38.05 25.6 L38.65 30.05 39.6 30.55 Q42.85 32.45 41.55 36.3 L39.75 38.5 41.0 47.75 45.35 45.65 Q47.2 44.6 48.4 43.0 52.3 37.95 50.5 31.85 M27.4 8.2 L25.7 8.35 26.75 14.8 28.3 14.65 27.4 8.2 M28.4 15.6 L26.8 15.75 27.6 23.3 29.5 23.7 28.4 15.6 M25.75 23.5 L23.6 5.85 19.25 5.95 20.8 20.4 21.2 26.55 Q22.1 40.45 22.3 54.4 L28.25 54.0 25.75 23.5 M33.65 3.4 L28.7 4.7 Q30.45 15.1 31.3 25.55 L32.1 34.2 33.65 52.85 39.75 52.65 33.65 3.4 M10.9 18.95 L10.85 19.95 Q10.85 20.9 11.15 21.85 13.15 27.7 19.8 27.9 L19.5 24.35 Q17.9 24.05 17.15 22.75 14.95 18.95 18.75 16.85 L17.85 10.85 Q14.85 12.2 12.8 14.55 11.15 16.4 10.9 18.95 M18.25 20.55 Q18.5 21.5 19.1 22.15 L18.9 18.45 Q17.95 19.3 18.25 20.55 M17.1 36.0 L9.45 36.65 9.8 37.65 Q13.15 45.05 20.75 48.3 L20.55 39.4 Q18.1 38.3 17.1 36.0 M38.85 31.85 L39.5 36.6 Q40.7 34.95 39.5 32.5 L38.85 31.85 M27.8 25.4 L28.1 28.4 30.2 28.6 29.75 25.5 27.8 25.4 M30.35 29.8 L28.2 29.6 29.05 39.75 31.25 39.65 30.35 29.8 M31.35 40.85 L29.15 40.95 29.75 49.8 31.9 49.75 31.35 40.85" fill="#005d51" fill-rule="evenodd" stroke="none"/>
      <path d="M46.9 14.2 Q46.05 11.85 43.15 9.95 42.4 9.55 41.5 9.2 38.85 7.4 35.8 6.45 L35.6 5.0 Q41.65 6.85 46.0 11.25 54.5 20.05 53.05 32.2 L51.9 30.15 51.95 28.7 Q51.75 20.2 46.9 14.2 M35.15 2.35 L33.7 2.05 Q21.3 -0.05 11.55 7.85 2.85 14.9 1.65 25.95 0.9 32.85 3.65 39.2 8.8 50.9 20.85 54.7 L21.15 55.75 29.7 55.8 Q33.45 55.6 36.85 54.55 L40.85 54.55 Q35.35 57.15 28.6 57.3 16.45 56.95 8.4 48.9 4.75 45.25 2.7 40.85 1.25 37.7 0.65 34.15 -0.1 29.5 0.5 24.9 1.2 19.5 3.95 14.75 6.75 10.0 10.95 6.65 14.95 3.5 19.8 1.7 24.05 0.1 28.6 0.1 40.7 0.4 48.8 8.5 56.9 16.55 57.2 28.7 56.85 40.8 48.8 48.9 45.5 52.2 41.55 54.25 L41.65 52.55 Q44.95 50.7 47.8 47.9 55.45 40.2 55.75 28.7 55.45 17.15 47.8 9.5 42.45 4.1 35.15 2.35 M26.95 4.05 L27.05 5.4 25.3 5.6 24.8 4.3 26.95 4.05 M17.1 6.75 L17.35 8.15 11.4 12.85 Q10.25 14.05 9.35 15.4 5.4 21.05 5.2 28.7 5.4 37.45 10.65 43.65 14.65 48.7 20.8 50.7 L20.8 52.15 Q15.35 50.4 11.1 46.15 4.1 39.15 3.85 28.7 4.1 18.2 11.1 11.2 13.8 8.45 17.1 6.75 M30.05 53.35 L29.95 52.0 32.0 51.75 32.1 53.1 30.05 53.35" fill="#006868" fill-rule="evenodd" stroke="none"/>
      <path d="M40.65 12.0 L42.45 12.1 43.6 13.4 Q44.15 15.45 42.2 16.35 41.3 16.6 40.6 16.35 L40.45 16.3 40.4 16.25 Q39.7 15.85 39.25 14.95 38.7 12.9 40.65 12.0 M41.6 15.7 L41.95 15.6 Q43.65 14.75 42.45 13.1 L41.6 15.7 M41.65 12.75 L40.95 12.8 Q39.7 13.35 40.05 14.7 L40.45 15.3 41.65 12.75 M46.05 37.3 Q48.15 37.85 48.0 39.95 47.45 42.05 45.3 41.9 44.3 41.65 43.85 41.05 L43.8 41.0 43.75 40.9 Q43.3 40.25 43.4 39.2 43.95 37.1 46.05 37.3 M44.8 40.8 L45.45 41.05 Q47.4 41.15 47.1 39.15 L44.8 40.8 M46.65 38.45 L45.95 38.1 Q44.6 38.0 44.2 39.35 L44.3 40.15 46.65 38.45 M13.5 18.1 L12.75 18.1 14.15 20.6 14.5 19.95 Q14.75 18.6 13.5 18.1 M10.85 19.95 L10.9 18.95 Q11.55 17.0 13.6 17.25 15.35 17.7 15.4 19.55 15.45 21.1 14.0 21.75 L12.3 21.65 Q11.15 21.15 10.85 19.95 M12.65 20.95 L13.35 21.0 12.0 18.55 11.65 19.1 Q11.4 20.45 12.65 20.95 M17.55 42.65 L17.85 42.0 15.0 42.3 15.45 42.9 Q16.6 43.65 17.55 42.65 M17.3 40.6 Q16.2 39.8 15.2 40.8 L14.9 41.45 17.75 41.15 17.3 40.6 M18.75 41.5 L18.5 42.45 Q17.95 44.1 16.25 44.15 L15.8 44.0 Q13.3 42.75 14.55 40.25 L15.4 39.85 Q17.95 38.9 18.75 41.5" fill="#0f6f61" fill-rule="evenodd" stroke="none"/>
      <path d="M40.65 12.0 Q38.7 12.9 39.25 14.95 39.7 15.85 40.4 16.25 L40.45 16.3 40.6 16.35 Q41.3 16.6 42.2 16.35 44.15 15.45 43.6 13.4 L42.45 12.1 40.65 12.0 M45.7 17.05 L39.2 17.9 Q38.5 16.2 36.85 15.25 L36.1 8.95 Q39.95 9.6 43.0 11.9 45.55 13.85 45.7 17.05 M50.5 31.85 Q52.3 37.95 48.4 43.0 47.2 44.6 45.35 45.65 L41.0 47.75 39.75 38.5 41.55 36.3 Q42.85 32.45 39.6 30.55 L38.65 30.05 38.05 25.6 Q44.5 25.35 49.3 29.9 50.15 30.75 50.5 31.85 M46.05 37.3 Q43.95 37.1 43.4 39.2 43.3 40.25 43.75 40.9 L43.8 41.0 43.85 41.05 Q44.3 41.65 45.3 41.9 47.45 42.05 48.0 39.95 48.15 37.85 46.05 37.3 M32.9 7.7 L31.15 6.85 Q30.6 9.15 30.85 11.4 L31.8 18.75 Q33.9 33.8 34.4 48.9 34.45 50.1 35.5 51.1 L37.15 50.9 Q37.65 50.05 37.55 48.95 L36.95 43.5 36.1 33.95 Q35.3 20.6 32.9 7.7 M27.4 8.2 L28.3 14.65 26.75 14.8 25.7 8.35 27.4 8.2 M24.25 24.5 Q24.2 18.9 23.7 13.7 23.2 8.5 22.1 8.2 20.85 8.6 21.15 13.7 21.45 18.8 22.2 24.2 L23.1 31.05 Q23.5 40.1 23.8 43.3 23.3 47.7 24.9 51.6 26.25 50.8 26.15 48.65 L25.8 45.15 Q24.55 38.45 24.3 31.65 L24.25 24.5 M33.65 3.4 L39.75 52.65 33.65 52.85 32.1 34.2 31.3 25.55 Q30.45 15.1 28.7 4.7 L33.65 3.4 M25.75 23.5 L28.25 54.0 22.3 54.4 Q22.1 40.45 21.2 26.55 L20.8 20.4 19.25 5.95 23.6 5.85 25.75 23.5 M10.85 19.95 Q11.15 21.15 12.3 21.65 L14.0 21.75 Q15.45 21.1 15.4 19.55 15.35 17.7 13.6 17.25 11.55 17.0 10.9 18.95 11.15 16.4 12.8 14.55 14.85 12.2 17.85 10.85 L18.75 16.85 Q14.95 18.95 17.15 22.75 17.9 24.05 19.5 24.35 L19.8 27.9 Q13.15 27.7 11.15 21.85 10.85 20.9 10.85 19.95 M18.75 41.5 Q17.95 38.9 15.4 39.85 L14.55 40.25 Q13.3 42.75 15.8 44.0 L16.25 44.15 Q17.95 44.1 18.5 42.45 L18.75 41.5 M17.1 36.0 Q18.1 38.3 20.55 39.4 L20.75 48.3 Q13.15 45.05 9.8 37.65 L9.45 36.65 17.1 36.0 M27.8 25.4 L29.75 25.5 30.2 28.6 28.1 28.4 27.8 25.4 M31.35 40.85 L31.9 49.75 29.75 49.8 29.15 40.95 31.35 40.85" fill="#85ab93" fill-rule="evenodd" stroke="none"/>
      <path d="M38.4 8.15 L35.9 7.6 35.85 7.15 38.4 8.15 M27.1 6.05 L27.25 6.95 25.5 7.1 25.4 6.25 27.1 6.05 M17.5 8.85 L17.6 9.4 14.5 10.85 Q15.9 9.7 17.5 8.85 M8.2 18.6 Q7.9 20.7 8.45 22.85 7.45 26.0 7.7 29.6 7.85 32.35 8.6 34.85 L7.55 35.2 7.9 38.1 Q6.0 33.85 5.85 28.7 6.0 23.1 8.2 18.6 M51.3 29.45 L49.5 27.85 Q49.25 23.0 47.25 18.65 L47.65 17.9 47.35 15.85 Q51.15 21.35 51.3 28.7 L51.3 29.45" fill="#85b599" fill-rule="evenodd" stroke="none"/>
      <path d="M41.5 9.2 Q40.1 8.6 38.4 8.15 L35.85 7.15 35.8 6.45 Q38.85 7.4 41.5 9.2 M35.4 3.05 L35.15 2.35 Q42.45 4.1 47.8 9.5 55.45 17.15 55.75 28.7 55.45 40.2 47.8 47.9 44.95 50.7 41.65 52.55 L41.5 51.65 Q44.6 49.9 47.2 47.3 L48.5 45.95 Q50.75 44.2 51.8 42.25 53.05 39.65 53.45 37.4 54.8 33.35 54.95 28.6 54.65 17.35 47.2 9.9 42.15 4.85 35.4 3.05 M33.7 2.05 L31.85 2.35 28.5 2.1 Q22.6 2.25 17.75 4.4 L17.15 4.7 Q6.8 9.85 3.35 20.8 0.5 29.95 4.3 38.8 9.25 50.2 20.85 53.9 L20.85 54.7 Q8.8 50.9 3.65 39.2 0.9 32.85 1.65 25.95 2.85 14.9 11.55 7.85 21.3 -0.05 33.7 2.05 M27.05 5.4 L27.1 6.05 25.4 6.25 25.3 5.6 27.05 5.4 M17.35 8.15 L17.5 8.85 Q15.9 9.7 14.5 10.85 L11.4 12.85 17.35 8.15 M9.35 15.4 Q8.55 16.85 8.2 18.6 6.0 23.1 5.85 28.7 6.0 33.85 7.9 38.1 L10.65 43.65 Q5.4 37.45 5.2 28.7 5.4 21.05 9.35 15.4 M29.7 55.8 L30.05 55.55 30.25 54.95 33.35 54.55 36.85 54.55 Q33.45 55.6 29.7 55.8 M29.95 52.0 L29.9 51.65 32.0 51.75 29.95 52.0 M51.9 30.15 L51.3 29.45 51.3 28.7 Q51.15 21.35 47.35 15.85 L46.9 14.2 Q51.75 20.2 51.95 28.7 L51.9 30.15" fill="#085854" fill-rule="evenodd" stroke="none"/>
      <path d="M41.65 12.75 L40.45 15.3 40.05 14.7 Q39.7 13.35 40.95 12.8 L41.65 12.75 M41.6 15.7 L42.45 13.1 Q43.65 14.75 41.95 15.6 L41.6 15.7 M46.65 38.45 L44.3 40.15 44.2 39.35 Q44.6 38.0 45.95 38.1 L46.65 38.45 M44.8 40.8 L47.1 39.15 Q47.4 41.15 45.45 41.05 L44.8 40.8 M13.5 18.1 Q14.75 18.6 14.5 19.95 L14.15 20.6 12.75 18.1 13.5 18.1 M12.65 20.95 Q11.4 20.45 11.65 19.1 L12.0 18.55 13.35 21.0 12.65 20.95 M17.3 40.6 L17.75 41.15 14.9 41.45 15.2 40.8 Q16.2 39.8 17.3 40.6 M17.55 42.65 Q16.6 43.65 15.45 42.9 L15.0 42.3 17.85 42.0 17.55 42.65" fill="#a0beac" fill-rule="evenodd" stroke="none"/>
      <path d="M35.6 5.0 L35.4 3.05 Q42.15 4.85 47.2 9.9 54.65 17.35 54.95 28.6 54.8 33.35 53.45 37.4 53.9 34.55 53.05 32.2 54.5 20.05 46.0 11.25 41.65 6.85 35.6 5.0 M31.85 2.35 L26.95 4.05 24.8 4.3 17.75 4.4 Q22.6 2.25 28.5 2.1 L31.85 2.35 M17.15 4.7 L17.1 6.75 Q13.8 8.45 11.1 11.2 4.1 18.2 3.85 28.7 4.1 39.15 11.1 46.15 15.35 50.4 20.8 52.15 L20.85 53.9 Q9.25 50.2 4.3 38.8 0.5 29.95 3.35 20.8 6.8 9.85 17.15 4.7 M8.45 22.85 Q8.95 24.2 10.1 25.5 8.85 29.75 10.65 34.3 L10.8 34.65 8.6 34.85 Q7.85 32.35 7.7 29.6 7.45 26.0 8.45 22.85 M30.25 54.95 L30.05 53.35 32.1 53.1 32.45 54.35 33.35 54.55 30.25 54.95 M41.5 51.65 L41.3 49.9 48.5 45.95 47.2 47.3 Q44.6 49.9 41.5 51.65 M49.5 27.85 Q47.7 26.7 45.75 25.9 45.45 22.35 44.0 19.2 L47.25 18.65 Q49.25 23.0 49.5 27.85" fill="#98bea8" fill-rule="evenodd" stroke="none"/>
      <path d="M10.1 25.5 Q14.15 29.25 19.95 29.25 L20.5 38.15 18.35 34.25 10.8 34.65 10.65 34.3 Q8.85 29.75 10.1 25.5 M45.75 25.9 L37.9 23.9 37.2 18.3 38.3 19.95 44.0 19.2 Q45.45 22.35 45.75 25.9 M28.4 15.6 L29.5 23.7 27.6 23.3 26.8 15.75 28.4 15.6 M18.25 20.55 Q17.95 19.3 18.9 18.45 L19.1 22.15 Q18.5 21.5 18.25 20.55 M38.85 31.85 L39.5 32.5 Q40.7 34.95 39.5 36.6 L38.85 31.85 M30.35 29.8 L31.25 39.65 29.05 39.75 28.2 29.6 30.35 29.8" fill="#c1d9cb" fill-rule="evenodd" stroke="none"/>
      <path d="M32.9 7.7 Q35.3 20.6 36.1 33.95 L36.95 43.5 37.55 48.95 Q37.65 50.05 37.15 50.9 L35.5 51.1 Q34.45 50.1 34.4 48.9 33.9 33.8 31.8 18.75 L30.85 11.4 Q30.6 9.15 31.15 6.85 L32.9 7.7 M24.25 24.5 L24.3 31.65 Q24.55 38.45 25.8 45.15 L26.15 48.65 Q26.25 50.8 24.9 51.6 23.3 47.7 23.8 43.3 23.5 40.1 23.1 31.05 L22.2 24.2 Q21.45 18.8 21.15 13.7 20.85 8.6 22.1 8.2 23.2 8.5 23.7 13.7 24.2 18.9 24.25 24.5" fill="#689878" fill-rule="evenodd" stroke="none"/>
    </g>
  </defs>
</svg>
