<?xml version="1.0" encoding="UTF-8" standalone="no"?>
<svg xmlns:xlink="http://www.w3.org/1999/xlink" height="683.05px" width="1750.8px" xmlns="http://www.w3.org/2000/svg">
  <g transform="matrix(1.0, 0.0, 0.0, 1.0, 355.25, 291.5)">
    <use height="453.45" transform="matrix(1.0, 0.0, 0.0, 1.0, -304.45, -272.25)" width="606.0" xlink:href="#shape0"/>
  </g>
  <defs>
    <g id="shape0" transform="matrix(1.0, 0.0, 0.0, 1.0, 3.0, -58.8)">
      <path d="M455.7 484.9 L461.15 480.3 507.2 503.2 476.4 497.05 455.7 484.9" fill="#573b66" fill-rule="evenodd" stroke="none"/>
      <path d="M63.2 475.05 L107.95 459.75 113.5 467.75 98.9 473.15 63.2 475.05" fill="#7f6887" fill-rule="evenodd" stroke="none"/>
      <path d="M442.1 353.3 L442.3 350.75 Q444.9 375.9 439.8 401.05 L438.75 406.3 Q430.75 443.1 411.5 471.1 394.1 496.45 369.4 511.3 L367.75 512.25 343.9 512.25 346.15 511.3 Q367.3 501.9 384.85 485.15 409.2 461.85 424.05 426.75 429.55 413.75 433.6 399.85 L439.85 370.8 441.05 362.1 442.1 353.3 M413.95 358.4 L414.1 355.05 Q416.1 374.0 412.7 392.85 L412.05 396.1 411.15 400.35 Q404.7 430.35 388.9 453.1 369.75 480.75 339.85 492.95 304.65 507.35 256.85 499.35 208.45 491.2 181.8 462.7 169.8 449.95 163.0 433.7 156.6 418.35 155.15 400.9 154.1 389.1 155.4 376.95 157.55 359.1 163.9 342.25 171.45 322.2 184.75 305.4 191.25 297.2 199.1 290.15 L199.8 291.6 Q176.25 317.05 166.1 346.3 162.6 356.35 160.9 366.2 L159.1 381.6 Q158.65 395.7 161.85 409.5 168.9 440.1 192.5 461.95 217.2 484.75 255.05 493.1 289.7 500.7 319.05 494.4 347.4 488.2 368.5 469.55 389.35 451.05 401.0 421.95 404.55 413.15 407.2 403.75 L411.35 384.05 412.95 371.45 Q413.65 365.05 413.95 358.4 M186.9 267.15 L187.6 268.35 Q159.65 300.15 147.4 337.85 145.0 345.15 143.35 352.45 138.45 371.9 139.1 391.85 139.75 413.1 146.6 433.35 153.3 453.1 166.3 469.45 179.75 486.5 198.0 498.05 211.9 506.8 227.55 512.25 L199.75 512.25 Q185.35 505.4 172.9 495.2 157.8 482.85 147.35 466.55 136.05 448.95 131.25 428.3 126.65 408.3 127.55 387.85 128.85 366.1 135.3 345.5 141.65 325.15 152.45 307.2 163.05 289.45 178.0 275.15 182.35 271.0 186.9 267.15" fill="#917d94" fill-rule="evenodd" stroke="none"/>
      <path d="M413.95 358.4 Q413.65 365.05 412.95 371.45 413.55 364.35 413.8 356.95 L413.95 358.4 M160.9 366.2 Q162.6 356.35 166.1 346.3 176.25 317.05 199.8 291.6 L200.3 292.7 Q176.15 318.55 165.85 348.25 162.65 357.3 160.9 366.2 M155.4 376.95 Q154.1 389.1 155.15 400.9 156.6 418.35 163.0 433.7 169.8 449.95 181.8 462.7 208.45 491.2 256.85 499.35 304.65 507.35 339.85 492.95 369.75 480.75 388.9 453.1 404.7 430.35 411.15 400.35 L412.05 396.1 410.9 402.25 Q404.4 432.25 388.6 455.1 369.45 482.65 339.55 494.9 304.35 509.25 256.55 501.25 208.15 493.1 181.5 464.65 169.5 451.85 162.7 435.65 156.3 420.35 154.8 402.85 153.75 390.1 155.4 376.95" fill="#cec5cd" fill-rule="evenodd" stroke="none"/>
      <path d="M214.6 72.4 L229.9 76.4 Q230.75 80.05 231.75 87.15 L226.4 85.45 214.6 72.4 M409.45 117.9 Q413.5 108.9 415.65 105.4 L431.45 106.3 419.75 118.25 409.45 117.9 M203.1 102.95 L191.7 112.45 178.7 110.4 191.35 97.8 203.1 102.95" fill="#9e859c" fill-rule="evenodd" stroke="none"/>
      <path d="M332.15 58.8 L327.6 60.1 325.65 58.8 332.15 58.8 M214.95 58.8 L214.6 72.4 226.4 85.45 231.75 87.15 Q232.9 95.45 234.25 108.35 236.9 134.25 239.2 170.05 L241.55 209.85 230.65 180.7 223.05 182.6 Q214.9 160.7 206.25 141.45 198.15 123.6 191.7 112.45 L203.1 102.95 192.35 70.2 180.4 58.8 214.95 58.8 M353.85 252.6 Q394.6 150.1 409.45 117.9 L419.75 118.25 431.45 106.3 445.3 58.8 603.0 58.8 603.0 512.25 450.6 512.25 439.4 498.75 455.7 484.9 476.4 497.05 507.2 503.2 527.2 413.0 468.9 404.65 Q470.2 396.95 470.5 392.8 470.7 390.1 470.5 387.2 L515.35 374.75 488.1 299.05 444.35 314.05 438.6 306.05 461.3 275.5 450.85 262.9 Q481.6 242.5 512.8 229.4 L522.75 238.25 569.45 208.65 Q532.85 191.75 508.4 156.7 487.1 126.1 477.55 85.7 L448.9 105.65 421.65 144.35 427.65 152.6 Q422.45 155.65 408.9 172.3 394.45 189.85 379.15 212.35 364.95 233.2 354.0 252.6 L353.85 252.6 M169.9 58.8 Q142.95 78.85 40.65 139.1 L73.25 160.7 90.35 156.95 Q122.35 184.8 163.55 233.1 168.4 238.75 173.3 245.65 L171.8 246.35 120.6 215.9 72.05 264.6 108.15 299.25 103.25 306.6 50.25 302.95 37.05 375.6 82.75 384.3 82.9 387.6 33.0 407.55 63.2 475.05 98.9 473.15 113.5 467.75 114.85 469.5 81.8 507.0 87.9 512.25 -3.0 512.25 -3.0 58.8 169.9 58.8" fill="url(#gradient0)" fill-rule="evenodd" stroke="none"/>
      <path d="M325.65 58.8 L327.6 60.1 332.15 58.8 445.3 58.8 431.45 106.3 415.65 105.4 Q413.5 108.9 409.45 117.9 394.6 150.1 353.85 252.6 L353.5 253.5 341.3 284.25 307.65 369.85 246.3 360.3 Q245.9 330.5 245.15 301.8 244.4 273.2 243.25 245.65 L241.55 209.85 239.2 170.05 Q236.9 134.25 234.25 108.35 232.9 95.45 231.75 87.15 230.75 80.05 229.9 76.4 L214.6 72.4 214.95 58.8 325.65 58.8 M330.3 101.2 Q332.25 124.55 340.3 134.55 347.5 143.55 358.3 140.3 368.4 137.2 378.65 124.35 389.05 111.25 395.85 92.65 365.9 98.75 330.3 101.2 M369.65 160.7 L361.5 202.75 381.6 149.2 315.15 159.8 253.6 129.15 Q252.5 142.0 256.3 229.1 L256.8 240.5 261.45 338.75 262.7 145.95 280.75 153.0 279.6 297.6 284.65 154.45 311.5 164.95 299.95 277.25 315.2 166.0 341.25 163.45 323.3 267.5 345.25 163.05 369.65 160.7 M249.85 92.65 Q250.65 103.15 256.35 109.2 263.15 116.6 275.35 114.95 289.95 112.9 310.75 98.0 L252.2 76.85 Q249.1 83.3 249.85 92.65" fill="url(#gradient1)" fill-rule="evenodd" stroke="none"/>
      <path d="M330.3 101.2 Q365.9 98.75 395.85 92.65 389.05 111.25 378.65 124.35 368.4 137.2 358.3 140.3 347.5 143.55 340.3 134.55 332.25 124.55 330.3 101.2" fill="url(#gradient2)" fill-rule="evenodd" stroke="none"/>
      <path d="M369.65 160.7 L345.25 163.05 323.3 267.5 341.25 163.45 315.2 166.0 299.95 277.25 311.5 164.95 284.65 154.45 279.6 297.6 280.75 153.0 262.7 145.95 261.45 338.75 256.8 240.5 256.3 229.1 Q252.5 142.0 253.6 129.15 L315.15 159.8 381.6 149.2 361.5 202.75 369.65 160.7" fill="url(#gradient3)" fill-rule="evenodd" stroke="none"/>
      <path d="M421.65 144.35 L435.25 138.7 438.25 149.8 427.65 152.6 421.65 144.35" fill="url(#gradient4)" fill-rule="evenodd" stroke="none"/>
      <path d="M435.25 138.7 L421.65 144.35 448.9 105.65 477.55 85.7 435.25 138.7" fill="url(#gradient5)" fill-rule="evenodd" stroke="none"/>
      <path d="M341.3 284.25 L353.5 253.5 354.0 252.6 Q364.95 233.2 379.15 212.35 394.45 189.85 408.9 172.3 422.45 155.65 427.65 152.6 L438.25 149.8 Q419.35 169.0 399.0 195.75 378.95 222.0 360.35 251.85 L359.2 253.75 Q349.65 269.15 341.3 284.25" fill="url(#gradient6)" fill-rule="evenodd" stroke="none"/>
      <path d="M307.65 369.85 L341.3 284.25 Q349.65 269.15 359.2 253.75 L360.35 251.85 Q378.95 222.0 399.0 195.75 419.35 169.0 438.25 149.8 L435.25 138.7 477.55 85.7 Q487.1 126.1 508.4 156.7 532.85 191.75 569.45 208.65 L522.75 238.25 512.8 229.4 Q481.6 242.5 450.85 262.9 389.65 303.6 330.25 373.45 L307.65 369.85 M471.9 189.35 Q460.55 171.8 456.75 150.95 449.85 162.0 448.85 174.8 448.45 179.15 450.35 183.0 456.9 196.7 471.9 189.35 M491.5 220.2 Q508.6 224.35 524.15 216.6 500.9 210.4 480.15 198.1 473.05 215.55 491.5 220.2" fill="url(#gradient7)" fill-rule="evenodd" stroke="none"/>
      <path d="M471.9 189.35 Q456.9 196.7 450.35 183.0 448.45 179.15 448.85 174.8 449.85 162.0 456.75 150.95 460.55 171.8 471.9 189.35" fill="url(#gradient8)" fill-rule="evenodd" stroke="none"/>
      <path d="M241.55 209.85 L243.25 245.65 Q235.15 215.8 224.05 185.4 L223.05 182.6 230.65 180.7 241.55 209.85 M246.3 360.3 L307.65 369.85 330.25 373.45 Q389.65 303.6 450.85 262.9 L461.3 275.5 438.6 306.05 444.35 314.05 488.1 299.05 515.35 374.75 470.5 387.2 Q470.7 390.1 470.5 392.8 470.2 396.95 468.9 404.65 L527.2 413.0 507.2 503.2 461.15 480.3 455.7 484.9 439.4 498.75 450.6 512.25 370.7 512.25 372.2 511.3 Q394.9 496.8 411.2 473.05 430.45 445.05 438.45 408.25 L439.8 401.05 Q444.9 375.9 442.3 350.75 L442.1 353.3 442.0 352.75 441.05 362.1 439.85 370.8 433.6 399.85 Q429.55 413.75 424.05 426.75 409.2 461.85 384.85 485.15 367.3 501.9 346.15 511.3 L343.9 512.25 227.55 512.25 Q211.9 506.8 198.0 498.05 179.75 486.5 166.3 469.45 153.3 453.1 146.6 433.35 139.75 413.1 139.1 391.85 138.45 371.9 143.35 352.45 145.0 346.1 147.1 339.75 159.55 301.5 188.2 269.35 193.6 279.0 199.1 290.15 191.25 297.2 184.75 305.4 171.45 322.2 163.9 342.25 157.55 359.1 155.4 376.95 153.75 390.1 154.8 402.85 156.3 420.35 162.7 435.65 169.5 451.85 181.5 464.65 208.15 493.1 256.55 501.25 304.35 509.25 339.55 494.9 369.45 482.65 388.6 455.1 404.4 432.25 410.9 402.25 L412.05 396.1 412.7 392.85 Q416.1 374.0 414.1 355.05 L413.95 358.4 413.8 356.95 Q413.55 364.35 412.95 371.45 L411.35 384.05 407.2 403.75 Q404.55 413.15 401.0 421.95 389.35 451.05 368.5 469.55 347.4 488.2 319.05 494.4 289.7 500.7 255.05 493.1 217.2 484.75 192.5 461.95 168.9 440.1 161.85 409.5 158.65 395.7 159.1 381.6 L160.9 366.2 Q162.65 357.3 165.85 348.25 176.15 318.55 200.3 292.7 213.8 320.5 227.55 357.4 L246.3 360.3 M353.5 253.5 L353.85 252.6 354.0 252.6 353.5 253.5 M173.3 245.65 Q180.05 255.2 186.9 267.15 182.35 271.0 178.0 275.15 163.05 289.45 152.45 307.2 141.65 325.15 135.3 345.5 128.85 366.1 127.55 387.85 126.65 401.5 128.2 414.85 130.6 435.65 139.4 454.65 148.35 474.0 163.55 489.1 177.85 503.25 195.65 512.25 L87.9 512.25 81.8 507.0 114.85 469.5 113.5 467.75 107.95 459.75 63.2 475.05 33.0 407.55 82.9 387.6 82.75 384.3 37.05 375.6 50.25 302.95 103.25 306.6 108.15 299.25 72.05 264.6 120.6 215.9 171.8 246.35 173.3 245.65" fill="url(#gradient9)" fill-rule="evenodd" stroke="none"/>
      <path d="M439.8 401.05 L438.45 408.25 Q430.45 445.05 411.2 473.05 394.9 496.8 372.2 511.3 L370.7 512.25 367.75 512.25 369.4 511.3 Q394.1 496.45 411.5 471.1 430.75 443.1 438.75 406.3 L439.8 401.05 M441.05 362.1 L442.0 352.75 442.1 353.3 441.05 362.1 M187.6 268.35 L188.2 269.35 Q159.55 301.5 147.1 339.75 145.0 346.1 143.35 352.45 145.0 345.15 147.4 337.85 159.65 300.15 187.6 268.35 M195.65 512.25 Q177.85 503.25 163.55 489.1 148.35 474.0 139.4 454.65 130.6 435.65 128.2 414.85 126.65 401.5 127.55 387.85 126.65 408.3 131.25 428.3 136.05 448.95 147.35 466.55 157.8 482.85 172.9 495.2 185.35 505.4 199.75 512.25 L195.65 512.25" fill="url(#gradient10)" fill-rule="evenodd" stroke="none"/>
      <path d="M491.5 220.2 Q473.05 215.55 480.15 198.1 500.9 210.4 524.15 216.6 508.6 224.35 491.5 220.2" fill="url(#gradient11)" fill-rule="evenodd" stroke="none"/>
      <path d="M249.85 92.65 Q249.1 83.3 252.2 76.85 L310.75 98.0 Q289.95 112.9 275.35 114.95 263.15 116.6 256.35 109.2 250.65 103.15 249.85 92.65" fill="url(#gradient12)" fill-rule="evenodd" stroke="none"/>
      <path d="M191.35 97.8 L177.25 58.8 180.4 58.8 192.35 70.2 203.1 102.95 191.35 97.8" fill="url(#gradient13)" fill-rule="evenodd" stroke="none"/>
      <path d="M245.15 301.8 Q245.9 330.5 246.3 360.3 L227.55 357.4 Q213.8 320.5 200.3 292.7 L199.8 291.6 199.1 290.15 Q193.6 279.0 188.2 269.35 L187.6 268.35 186.9 267.15 Q180.05 255.2 173.3 245.65 168.4 238.75 163.55 233.1 122.35 184.8 90.35 156.95 L73.25 160.7 40.65 139.1 Q142.95 78.85 169.9 58.8 L177.25 58.8 191.35 97.8 178.7 110.4 198.25 149.2 Q207.95 168.75 216.5 188.6 224.7 207.75 230.8 227.6 236.65 246.9 240.2 266.8 243.35 284.25 245.15 301.8 M166.3 138.5 Q170.4 134.65 172.25 127.6 174.05 120.6 173.05 112.35 L141.3 134.3 Q149.0 140.9 155.75 141.8 161.85 142.55 166.3 138.5 M188.35 191.4 Q212.1 231.55 228.0 271.45 225.15 261.7 222.95 255.9 220.35 249.1 215.35 238.8 L200.55 209.1 173.7 155.9 183.25 149.5 178.55 143.75 164.15 153.4 Q177.15 172.45 188.35 191.4 M126.8 157.15 Q131.35 149.4 130.4 140.55 L98.6 153.85 Q109.6 166.65 123.95 159.75 125.75 158.9 126.8 157.15 M138.6 168.3 L124.2 178.0 Q157.65 212.8 177.3 237.3 195.2 259.65 201.6 273.45 198.6 263.2 176.25 233.5 160.05 212.05 133.75 180.45 L143.25 174.1 138.6 168.3 M143.65 166.05 L166.2 197.0 Q207.9 255.15 218.6 278.35 214.15 263.45 170.9 195.8 L153.2 168.5 162.75 162.2 158.1 156.4 143.65 166.05" fill="url(#gradient14)" fill-rule="evenodd" stroke="none"/>
      <path d="M166.3 138.5 Q161.85 142.55 155.75 141.8 149.0 140.9 141.3 134.3 L173.05 112.35 Q174.05 120.6 172.25 127.6 170.4 134.65 166.3 138.5" fill="url(#gradient15)" fill-rule="evenodd" stroke="none"/>
      <path d="M243.25 245.65 Q244.4 273.2 245.15 301.8 243.35 284.25 240.2 266.8 236.65 246.9 230.8 227.6 224.7 207.75 216.5 188.6 207.95 168.75 198.25 149.2 L178.7 110.4 191.7 112.45 Q198.15 123.6 206.25 141.45 214.9 160.7 223.05 182.6 L224.05 185.4 Q235.15 215.8 243.25 245.65" fill="url(#gradient16)" fill-rule="evenodd" stroke="none"/>
      <path d="M188.35 191.4 Q177.15 172.45 164.15 153.4 L178.55 143.75 183.25 149.5 173.7 155.9 200.55 209.1 215.35 238.8 Q220.35 249.1 222.95 255.9 225.15 261.7 228.0 271.45 212.1 231.55 188.35 191.4" fill="url(#gradient17)" fill-rule="evenodd" stroke="none"/>
      <path d="M143.65 166.05 L158.1 156.4 162.75 162.2 153.2 168.5 170.9 195.8 Q214.15 263.45 218.6 278.35 207.9 255.15 166.2 197.0 L143.65 166.05" fill="url(#gradient18)" fill-rule="evenodd" stroke="none"/>
      <path d="M138.6 168.3 L143.25 174.1 133.75 180.45 Q160.05 212.05 176.25 233.5 198.6 263.2 201.6 273.45 195.2 259.65 177.3 237.3 157.65 212.8 124.2 178.0 L138.6 168.3" fill="url(#gradient19)" fill-rule="evenodd" stroke="none"/>
      <path d="M126.8 157.15 Q125.75 158.9 123.95 159.75 109.6 166.65 98.6 153.85 L130.4 140.55 Q131.35 149.4 126.8 157.15" fill="url(#gradient20)" fill-rule="evenodd" stroke="none"/>
    </g>
    <radialGradient cx="0" cy="0" gradientTransform="matrix(0.3269, 0.0, 0.0, 0.3269, 300.05, 286.05)" gradientUnits="userSpaceOnUse" id="gradient0" r="819.2" spreadMethod="pad">
      <stop offset="0.13725490196078433" stop-color="#cec5cd"/>
      <stop offset="0.5137254901960784" stop-color="#9e859c"/>
      <stop offset="0.7803921568627451" stop-color="#5b5368"/>
      <stop offset="1.0" stop-color="#28263e"/>
    </radialGradient>
    <radialGradient cx="0" cy="0" gradientTransform="matrix(0.4691, 0.0725, -0.0725, 0.4691, 239.9, 453.7)" gradientUnits="userSpaceOnUse" id="gradient1" r="819.2" spreadMethod="pad">
      <stop offset="0.13725490196078433" stop-color="#cec5cd"/>
      <stop offset="0.5137254901960784" stop-color="#9e859c"/>
      <stop offset="0.7803921568627451" stop-color="#5b5368"/>
      <stop offset="1.0" stop-color="#28263e"/>
    </radialGradient>
    <radialGradient cx="0" cy="0" gradientTransform="matrix(0.3903, 0.0603, -0.0603, 0.3903, 234.05, 424.65)" gradientUnits="userSpaceOnUse" id="gradient2" r="819.2" spreadMethod="pad">
      <stop offset="0.0784313725490196" stop-color="#cec5cd"/>
      <stop offset="0.7098039215686275" stop-color="#9e859c"/>
    </radialGradient>
    <radialGradient cx="0" cy="0" gradientTransform="matrix(0.4008, 0.062, -0.062, 0.4008, 224.3, 465.55)" gradientUnits="userSpaceOnUse" id="gradient3" r="819.2" spreadMethod="pad">
      <stop offset="0.13725490196078433" stop-color="#cec5cd"/>
      <stop offset="0.5137254901960784" stop-color="#9e859c"/>
      <stop offset="1.0" stop-color="#62506f"/>
    </radialGradient>
    <radialGradient cx="0" cy="0" gradientTransform="matrix(0.0224, 0.0035, -0.0035, 0.0224, 353.3, 215.35)" gradientUnits="userSpaceOnUse" id="gradient4" r="819.2" spreadMethod="pad">
      <stop offset="0.13725490196078433" stop-color="#cec5cd"/>
      <stop offset="1.0" stop-color="#9e859c"/>
    </radialGradient>
    <radialGradient cx="0" cy="0" gradientTransform="matrix(0.0617, 0.0095, -0.0095, 0.0617, 375.65, 210.45)" gradientUnits="userSpaceOnUse" id="gradient5" r="819.2" spreadMethod="pad">
      <stop offset="0.13725490196078433" stop-color="#cec5cd"/>
      <stop offset="1.0" stop-color="#9e859c"/>
    </radialGradient>
    <radialGradient cx="0" cy="0" gradientTransform="matrix(0.1166, 0.018, -0.018, 0.1166, 338.2, 393.85)" gradientUnits="userSpaceOnUse" id="gradient6" r="819.2" spreadMethod="pad">
      <stop offset="0.13725490196078433" stop-color="#cec5cd"/>
      <stop offset="1.0" stop-color="#9e859c"/>
    </radialGradient>
    <radialGradient cx="0" cy="0" gradientTransform="matrix(0.4757, 0.0735, -0.0735, 0.4757, 236.35, 468.3)" gradientUnits="userSpaceOnUse" id="gradient7" r="819.2" spreadMethod="pad">
      <stop offset="0.13725490196078433" stop-color="#cec5cd"/>
      <stop offset="0.5137254901960784" stop-color="#9e859c"/>
      <stop offset="0.7803921568627451" stop-color="#5b5368"/>
      <stop offset="1.0" stop-color="#28263e"/>
    </radialGradient>
    <radialGradient cx="0" cy="0" gradientTransform="matrix(0.3898, 0.0603, -0.0603, 0.3898, 231.25, 440.45)" gradientUnits="userSpaceOnUse" id="gradient8" r="819.2" spreadMethod="pad">
      <stop offset="0.0784313725490196" stop-color="#cec5cd"/>
      <stop offset="0.7098039215686275" stop-color="#9e859c"/>
    </radialGradient>
    <radialGradient cx="0" cy="0" gradientTransform="matrix(0.3756, 0.0581, -0.0581, 0.3756, 248.5, 529.05)" gradientUnits="userSpaceOnUse" id="gradient9" r="819.2" spreadMethod="pad">
      <stop offset="0.13725490196078433" stop-color="#cec5cd"/>
      <stop offset="0.5137254901960784" stop-color="#9e859c"/>
      <stop offset="0.7803921568627451" stop-color="#5b5368"/>
      <stop offset="1.0" stop-color="#28263e"/>
    </radialGradient>
    <radialGradient cx="0" cy="0" gradientTransform="matrix(0.4808, 0.0743, -0.0743, 0.4808, 238.65, 463.15)" gradientUnits="userSpaceOnUse" id="gradient10" r="819.2" spreadMethod="pad">
      <stop offset="0.4980392156862745" stop-color="#cec5cd"/>
      <stop offset="1.0" stop-color="#9e859c"/>
    </radialGradient>
    <radialGradient cx="0" cy="0" gradientTransform="matrix(0.3899, 0.0602, -0.0602, 0.3899, 230.65, 439.1)" gradientUnits="userSpaceOnUse" id="gradient11" r="819.2" spreadMethod="pad">
      <stop offset="0.0784313725490196" stop-color="#cec5cd"/>
      <stop offset="0.7098039215686275" stop-color="#9e859c"/>
    </radialGradient>
    <radialGradient cx="0" cy="0" gradientTransform="matrix(0.3529, 0.0545, -0.0545, 0.3529, 234.25, 404.5)" gradientUnits="userSpaceOnUse" id="gradient12" r="819.2" spreadMethod="pad">
      <stop offset="0.0784313725490196" stop-color="#cec5cd"/>
      <stop offset="0.7098039215686275" stop-color="#9e859c"/>
    </radialGradient>
    <radialGradient cx="0" cy="0" gradientTransform="matrix(0.0459, 0.0071, -0.0071, 0.0459, 109.8, 202.3)" gradientUnits="userSpaceOnUse" id="gradient13" r="819.2" spreadMethod="pad">
      <stop offset="0.13725490196078433" stop-color="#cec5cd"/>
      <stop offset="1.0" stop-color="#9e859c"/>
    </radialGradient>
    <radialGradient cx="0" cy="0" gradientTransform="matrix(0.487, 0.0753, -0.0753, 0.487, 247.7, 475.1)" gradientUnits="userSpaceOnUse" id="gradient14" r="819.2" spreadMethod="pad">
      <stop offset="0.13725490196078433" stop-color="#cec5cd"/>
      <stop offset="0.5137254901960784" stop-color="#9e859c"/>
      <stop offset="0.7803921568627451" stop-color="#5b5368"/>
      <stop offset="1.0" stop-color="#28263e"/>
    </radialGradient>
    <radialGradient cx="0" cy="0" gradientTransform="matrix(0.3566, 0.0599, -0.0599, 0.3566, 195.1, 378.6)" gradientUnits="userSpaceOnUse" id="gradient15" r="819.2" spreadMethod="pad">
      <stop offset="0.0784313725490196" stop-color="#cec5cd"/>
      <stop offset="0.7098039215686275" stop-color="#9e859c"/>
    </radialGradient>
    <radialGradient cx="0" cy="0" gradientTransform="matrix(0.2504, 0.0387, -0.0387, 0.2504, 103.9, 203.6)" gradientUnits="userSpaceOnUse" id="gradient16" r="819.2" spreadMethod="pad">
      <stop offset="0.13725490196078433" stop-color="#cec5cd"/>
      <stop offset="1.0" stop-color="#9e859c"/>
    </radialGradient>
    <radialGradient cx="0" cy="0" gradientTransform="matrix(0.3233, 0.05, -0.05, 0.3233, 236.15, 447.45)" gradientUnits="userSpaceOnUse" id="gradient17" r="819.2" spreadMethod="pad">
      <stop offset="0.13725490196078433" stop-color="#cec5cd"/>
      <stop offset="0.5137254901960784" stop-color="#9e859c"/>
      <stop offset="1.0" stop-color="#62506f"/>
    </radialGradient>
    <radialGradient cx="0" cy="0" gradientTransform="matrix(0.3233, 0.05, -0.05, 0.3233, 236.15, 447.45)" gradientUnits="userSpaceOnUse" id="gradient18" r="819.2" spreadMethod="pad">
      <stop offset="0.13725490196078433" stop-color="#cec5cd"/>
      <stop offset="0.5137254901960784" stop-color="#9e859c"/>
      <stop offset="1.0" stop-color="#62506f"/>
    </radialGradient>
    <radialGradient cx="0" cy="0" gradientTransform="matrix(0.3234, 0.05, -0.05, 0.3234, 236.15, 447.45)" gradientUnits="userSpaceOnUse" id="gradient19" r="819.2" spreadMethod="pad">
      <stop offset="0.13725490196078433" stop-color="#cec5cd"/>
      <stop offset="0.5137254901960784" stop-color="#9e859c"/>
      <stop offset="1.0" stop-color="#62506f"/>
    </radialGradient>
    <radialGradient cx="0" cy="0" gradientTransform="matrix(0.4157, 0.0699, -0.0699, 0.4157, 131.75, 476.45)" gradientUnits="userSpaceOnUse" id="gradient20" r="819.2" spreadMethod="pad">
      <stop offset="0.0784313725490196" stop-color="#cec5cd"/>
      <stop offset="0.7098039215686275" stop-color="#9e859c"/>
    </radialGradient>
  </defs>
</svg>
