<?xml version="1.0" encoding="UTF-8" standalone="no"?>
<svg xmlns:xlink="http://www.w3.org/1999/xlink" height="683.05px" width="1750.8px" xmlns="http://www.w3.org/2000/svg">
  <g transform="matrix(1.0, 0.0, 0.0, 1.0, 355.25, 291.5)">
    <use height="453.45" transform="matrix(1.0, 0.0, 0.0, 1.0, -304.45, -272.25)" width="606.0" xlink:href="#shape0"/>
    <use height="51.2" transform="matrix(1.0615, 0.0, 0.0, 1.0615, -341.9574, -232.4919)" width="586.35" xlink:href="#sprite0"/>
  </g>
  <defs>
    <g id="shape0" transform="matrix(1.0, 0.0, 0.0, 1.0, 3.0, -58.8)">
      <path d="M455.7 484.9 L461.15 480.3 507.2 503.2 476.4 497.05 455.7 484.9" fill="#573b66" fill-rule="evenodd" stroke="none"/>
      <path d="M63.2 475.05 L107.95 459.75 113.5 467.75 98.9 473.15 63.2 475.05" fill="#7f6887" fill-rule="evenodd" stroke="none"/>
      <path d="M442.1 353.3 L442.3 350.75 Q444.9 375.9 439.8 401.05 L438.75 406.3 Q430.75 443.1 411.5 471.1 394.1 496.45 369.4 511.3 L367.75 512.25 343.9 512.25 346.15 511.3 Q367.3 501.9 384.85 485.15 409.2 461.85 424.05 426.75 429.55 413.75 433.6 399.85 L439.85 370.8 441.05 362.1 442.1 353.3 M413.95 358.4 L414.1 355.05 Q416.1 374.0 412.7 392.85 L412.05 396.1 411.15 400.35 Q404.7 430.35 388.9 453.1 369.75 480.75 339.85 492.95 304.65 507.35 256.85 499.35 208.45 491.2 181.8 462.7 169.8 449.95 163.0 433.7 156.6 418.35 155.15 400.9 154.1 389.1 155.4 376.95 157.55 359.1 163.9 342.25 171.45 322.2 184.75 305.4 191.25 297.2 199.1 290.15 L199.8 291.6 Q176.25 317.05 166.1 346.3 162.6 356.35 160.9 366.2 L159.1 381.6 Q158.65 395.7 161.85 409.5 168.9 440.1 192.5 461.95 217.2 484.75 255.05 493.1 289.7 500.7 319.05 494.4 347.4 488.2 368.5 469.55 389.35 451.05 401.0 421.95 404.55 413.15 407.2 403.75 L411.35 384.05 412.95 371.45 Q413.65 365.05 413.95 358.4 M186.9 267.15 L187.6 268.35 Q159.65 300.15 147.4 337.85 145.0 345.15 143.35 352.45 138.45 371.9 139.1 391.85 139.75 413.1 146.6 433.35 153.3 453.1 166.3 469.45 179.75 486.5 198.0 498.05 211.9 506.8 227.55 512.25 L199.75 512.25 Q185.35 505.4 172.9 495.2 157.8 482.85 147.35 466.55 136.05 448.95 131.25 428.3 126.65 408.3 127.55 387.85 128.85 366.1 135.3 345.5 141.65 325.15 152.45 307.2 163.05 289.45 178.0 275.15 182.35 271.0 186.9 267.15" fill="#917d94" fill-rule="evenodd" stroke="none"/>
      <path d="M413.95 358.4 Q413.65 365.05 412.95 371.45 413.55 364.35 413.8 356.95 L413.95 358.4 M160.9 366.2 Q162.6 356.35 166.1 346.3 176.25 317.05 199.8 291.6 L200.3 292.7 Q176.15 318.55 165.85 348.25 162.65 357.3 160.9 366.2 M155.4 376.95 Q154.1 389.1 155.15 400.9 156.6 418.35 163.0 433.7 169.8 449.95 181.8 462.7 208.45 491.2 256.85 499.35 304.65 507.35 339.85 492.95 369.75 480.75 388.9 453.1 404.7 430.35 411.15 400.35 L412.05 396.1 410.9 402.25 Q404.4 432.25 388.6 455.1 369.45 482.65 339.55 494.9 304.35 509.25 256.55 501.25 208.15 493.1 181.5 464.65 169.5 451.85 162.7 435.65 156.3 420.35 154.8 402.85 153.75 390.1 155.4 376.95" fill="#cec5cd" fill-rule="evenodd" stroke="none"/>
      <path d="M214.6 72.4 L229.9 76.4 Q230.75 80.05 231.75 87.15 L226.4 85.45 214.6 72.4 M409.45 117.9 Q413.5 108.9 415.65 105.4 L431.45 106.3 419.75 118.25 409.45 117.9 M203.1 102.95 L191.7 112.45 178.7 110.4 191.35 97.8 203.1 102.95" fill="#9e859c" fill-rule="evenodd" stroke="none"/>
      <path d="M332.15 58.8 L327.6 60.1 325.65 58.8 332.15 58.8 M214.95 58.8 L214.6 72.4 226.4 85.45 231.75 87.15 Q232.9 95.45 234.25 108.35 236.9 134.25 239.2 170.05 L241.55 209.85 230.65 180.7 223.05 182.6 Q214.9 160.7 206.25 141.45 198.15 123.6 191.7 112.45 L203.1 102.95 192.35 70.2 180.4 58.8 214.95 58.8 M353.85 252.6 Q394.6 150.1 409.45 117.9 L419.75 118.25 431.45 106.3 445.3 58.8 603.0 58.8 603.0 512.25 450.6 512.25 439.4 498.75 455.7 484.9 476.4 497.05 507.2 503.2 527.2 413.0 468.9 404.65 Q470.2 396.95 470.5 392.8 470.7 390.1 470.5 387.2 L515.35 374.75 488.1 299.05 444.35 314.05 438.6 306.05 461.3 275.5 450.85 262.9 Q481.6 242.5 512.8 229.4 L522.75 238.25 569.45 208.65 Q532.85 191.75 508.4 156.7 487.1 126.1 477.55 85.7 L448.9 105.65 421.65 144.35 427.65 152.6 Q422.45 155.65 408.9 172.3 394.45 189.85 379.15 212.35 364.95 233.2 354.0 252.6 L353.85 252.6 M169.9 58.8 Q142.95 78.85 40.65 139.1 L73.25 160.7 90.35 156.95 Q122.35 184.8 163.55 233.1 168.4 238.75 173.3 245.65 L171.8 246.35 120.6 215.9 72.05 264.6 108.15 299.25 103.25 306.6 50.25 302.95 37.05 375.6 82.75 384.3 82.9 387.6 33.0 407.55 63.2 475.05 98.9 473.15 113.5 467.75 114.85 469.5 81.8 507.0 87.9 512.25 -3.0 512.25 -3.0 58.8 169.9 58.8" fill="url(#gradient0)" fill-rule="evenodd" stroke="none"/>
      <path d="M325.65 58.8 L327.6 60.1 332.15 58.8 445.3 58.8 431.45 106.3 415.65 105.4 Q413.5 108.9 409.45 117.9 394.6 150.1 353.85 252.6 L353.5 253.5 341.3 284.25 307.65 369.85 246.3 360.3 Q245.9 330.5 245.15 301.8 244.4 273.2 243.25 245.65 L241.55 209.85 239.2 170.05 Q236.9 134.25 234.25 108.35 232.9 95.45 231.75 87.15 230.75 80.05 229.9 76.4 L214.6 72.4 214.95 58.8 325.65 58.8 M330.3 101.2 Q332.25 124.55 340.3 134.55 347.5 143.55 358.3 140.3 368.4 137.2 378.65 124.35 389.05 111.25 395.85 92.65 365.9 98.75 330.3 101.2 M369.65 160.7 L361.5 202.75 381.6 149.2 315.15 159.8 253.6 129.15 Q252.5 142.0 256.3 229.1 L256.8 240.5 261.45 338.75 262.7 145.95 280.75 153.0 279.6 297.6 284.65 154.45 311.5 164.95 299.95 277.25 315.2 166.0 341.25 163.45 323.3 267.5 345.25 163.05 369.65 160.7 M249.85 92.65 Q250.65 103.15 256.35 109.2 263.15 116.6 275.35 114.95 289.95 112.9 310.75 98.0 L252.2 76.85 Q249.1 83.3 249.85 92.65" fill="url(#gradient1)" fill-rule="evenodd" stroke="none"/>
      <path d="M330.3 101.2 Q365.9 98.75 395.85 92.65 389.05 111.25 378.65 124.35 368.4 137.2 358.3 140.3 347.5 143.55 340.3 134.55 332.25 124.55 330.3 101.2" fill="url(#gradient2)" fill-rule="evenodd" stroke="none"/>
      <path d="M369.65 160.7 L345.25 163.05 323.3 267.5 341.25 163.45 315.2 166.0 299.95 277.25 311.5 164.95 284.65 154.45 279.6 297.6 280.75 153.0 262.7 145.95 261.45 338.75 256.8 240.5 256.3 229.1 Q252.5 142.0 253.6 129.15 L315.15 159.8 381.6 149.2 361.5 202.75 369.65 160.7" fill="url(#gradient3)" fill-rule="evenodd" stroke="none"/>
      <path d="M421.65 144.35 L435.25 138.7 438.25 149.8 427.65 152.6 421.65 144.35" fill="url(#gradient4)" fill-rule="evenodd" stroke="none"/>
      <path d="M435.25 138.7 L421.65 144.35 448.9 105.65 477.55 85.7 435.25 138.7" fill="url(#gradient5)" fill-rule="evenodd" stroke="none"/>
      <path d="M341.3 284.25 L353.5 253.5 354.0 252.6 Q364.95 233.2 379.15 212.35 394.45 189.85 408.9 172.3 422.45 155.65 427.65 152.6 L438.25 149.8 Q419.35 169.0 399.0 195.75 378.95 222.0 360.35 251.85 L359.2 253.75 Q349.65 269.15 341.3 284.25" fill="url(#gradient6)" fill-rule="evenodd" stroke="none"/>
      <path d="M307.65 369.85 L341.3 284.25 Q349.65 269.15 359.2 253.75 L360.35 251.85 Q378.95 222.0 399.0 195.75 419.35 169.0 438.25 149.8 L435.25 138.7 477.55 85.7 Q487.1 126.1 508.4 156.7 532.85 191.75 569.45 208.65 L522.75 238.25 512.8 229.4 Q481.6 242.5 450.85 262.9 389.65 303.6 330.25 373.45 L307.65 369.85 M471.9 189.35 Q460.55 171.8 456.75 150.95 449.85 162.0 448.85 174.8 448.45 179.15 450.35 183.0 456.9 196.7 471.9 189.35 M491.5 220.2 Q508.6 224.35 524.15 216.6 500.9 210.4 480.15 198.1 473.05 215.55 491.5 220.2" fill="url(#gradient7)" fill-rule="evenodd" stroke="none"/>
      <path d="M471.9 189.35 Q456.9 196.7 450.35 183.0 448.45 179.15 448.85 174.8 449.85 162.0 456.75 150.95 460.55 171.8 471.9 189.35" fill="url(#gradient8)" fill-rule="evenodd" stroke="none"/>
      <path d="M241.55 209.85 L243.25 245.65 Q235.15 215.8 224.05 185.4 L223.05 182.6 230.65 180.7 241.55 209.85 M246.3 360.3 L307.65 369.85 330.25 373.45 Q389.65 303.6 450.85 262.9 L461.3 275.5 438.6 306.05 444.35 314.05 488.1 299.05 515.35 374.75 470.5 387.2 Q470.7 390.1 470.5 392.8 470.2 396.95 468.9 404.65 L527.2 413.0 507.2 503.2 461.15 480.3 455.7 484.9 439.4 498.75 450.6 512.25 370.7 512.25 372.2 511.3 Q394.9 496.8 411.2 473.05 430.45 445.05 438.45 408.25 L439.8 401.05 Q444.9 375.9 442.3 350.75 L442.1 353.3 442.0 352.75 441.05 362.1 439.85 370.8 433.6 399.85 Q429.55 413.75 424.05 426.75 409.2 461.85 384.85 485.15 367.3 501.9 346.15 511.3 L343.9 512.25 227.55 512.25 Q211.9 506.8 198.0 498.05 179.75 486.5 166.3 469.45 153.3 453.1 146.6 433.35 139.75 413.1 139.1 391.85 138.45 371.9 143.35 352.45 145.0 346.1 147.1 339.75 159.55 301.5 188.2 269.35 193.6 279.0 199.1 290.15 191.25 297.2 184.75 305.4 171.45 322.2 163.9 342.25 157.55 359.1 155.4 376.95 153.75 390.1 154.8 402.85 156.3 420.35 162.7 435.65 169.5 451.85 181.5 464.65 208.15 493.1 256.55 501.25 304.35 509.25 339.55 494.9 369.45 482.65 388.6 455.1 404.4 432.25 410.9 402.25 L412.05 396.1 412.7 392.85 Q416.1 374.0 414.1 355.05 L413.95 358.4 413.8 356.95 Q413.55 364.35 412.95 371.45 L411.35 384.05 407.2 403.75 Q404.55 413.15 401.0 421.95 389.35 451.05 368.5 469.55 347.4 488.2 319.05 494.4 289.7 500.7 255.05 493.1 217.2 484.75 192.5 461.95 168.9 440.1 161.85 409.5 158.65 395.7 159.1 381.6 L160.9 366.2 Q162.65 357.3 165.85 348.25 176.15 318.55 200.3 292.7 213.8 320.5 227.55 357.4 L246.3 360.3 M353.5 253.5 L353.85 252.6 354.0 252.6 353.5 253.5 M173.3 245.65 Q180.05 255.2 186.9 267.15 182.35 271.0 178.0 275.15 163.05 289.45 152.45 307.2 141.65 325.15 135.3 345.5 128.85 366.1 127.55 387.85 126.65 401.5 128.2 414.85 130.6 435.65 139.4 454.65 148.35 474.0 163.55 489.1 177.85 503.25 195.65 512.25 L87.9 512.25 81.8 507.0 114.85 469.5 113.5 467.75 107.95 459.75 63.2 475.05 33.0 407.55 82.9 387.6 82.75 384.3 37.05 375.6 50.25 302.95 103.25 306.6 108.15 299.25 72.05 264.6 120.6 215.9 171.8 246.35 173.3 245.65" fill="url(#gradient9)" fill-rule="evenodd" stroke="none"/>
      <path d="M439.8 401.05 L438.45 408.25 Q430.45 445.05 411.2 473.05 394.9 496.8 372.2 511.3 L370.7 512.25 367.75 512.25 369.4 511.3 Q394.1 496.45 411.5 471.1 430.75 443.1 438.75 406.3 L439.8 401.05 M441.05 362.1 L442.0 352.75 442.1 353.3 441.05 362.1 M187.6 268.35 L188.2 269.35 Q159.55 301.5 147.1 339.75 145.0 346.1 143.35 352.45 145.0 345.15 147.4 337.85 159.65 300.15 187.6 268.35 M195.65 512.25 Q177.85 503.25 163.55 489.1 148.35 474.0 139.4 454.65 130.6 435.65 128.2 414.85 126.65 401.5 127.55 387.85 126.65 408.3 131.25 428.3 136.05 448.95 147.35 466.55 157.8 482.85 172.9 495.2 185.35 505.4 199.75 512.25 L195.65 512.25" fill="url(#gradient10)" fill-rule="evenodd" stroke="none"/>
      <path d="M491.5 220.2 Q473.05 215.55 480.15 198.1 500.9 210.4 524.15 216.6 508.6 224.35 491.5 220.2" fill="url(#gradient11)" fill-rule="evenodd" stroke="none"/>
      <path d="M249.85 92.65 Q249.1 83.3 252.2 76.85 L310.75 98.0 Q289.95 112.9 275.35 114.95 263.15 116.6 256.35 109.2 250.65 103.15 249.85 92.65" fill="url(#gradient12)" fill-rule="evenodd" stroke="none"/>
      <path d="M191.35 97.8 L177.25 58.8 180.4 58.8 192.35 70.2 203.1 102.95 191.35 97.8" fill="url(#gradient13)" fill-rule="evenodd" stroke="none"/>
      <path d="M245.15 301.8 Q245.9 330.5 246.3 360.3 L227.55 357.4 Q213.8 320.5 200.3 292.7 L199.8 291.6 199.1 290.15 Q193.6 279.0 188.2 269.35 L187.6 268.35 186.9 267.15 Q180.05 255.2 173.3 245.65 168.4 238.75 163.55 233.1 122.35 184.8 90.35 156.95 L73.25 160.7 40.65 139.1 Q142.95 78.85 169.9 58.8 L177.25 58.8 191.35 97.8 178.7 110.4 198.25 149.2 Q207.95 168.75 216.5 188.6 224.7 207.75 230.8 227.6 236.65 246.9 240.2 266.8 243.35 284.25 245.15 301.8 M166.3 138.5 Q170.4 134.65 172.25 127.6 174.05 120.6 173.05 112.35 L141.3 134.3 Q149.0 140.9 155.75 141.8 161.85 142.55 166.3 138.5 M188.35 191.4 Q212.1 231.55 228.0 271.45 225.15 261.7 222.95 255.9 220.35 249.1 215.35 238.8 L200.55 209.1 173.7 155.9 183.25 149.5 178.55 143.75 164.15 153.4 Q177.15 172.45 188.35 191.4 M126.8 157.15 Q131.35 149.4 130.4 140.55 L98.6 153.85 Q109.6 166.65 123.95 159.75 125.75 158.9 126.8 157.15 M138.6 168.3 L124.2 178.0 Q157.65 212.8 177.3 237.3 195.2 259.65 201.6 273.45 198.6 263.2 176.25 233.5 160.05 212.05 133.75 180.45 L143.25 174.1 138.6 168.3 M143.65 166.05 L166.2 197.0 Q207.9 255.15 218.6 278.35 214.15 263.45 170.9 195.8 L153.2 168.5 162.75 162.2 158.1 156.4 143.65 166.05" fill="url(#gradient14)" fill-rule="evenodd" stroke="none"/>
      <path d="M166.3 138.5 Q161.85 142.55 155.75 141.8 149.0 140.9 141.3 134.3 L173.05 112.35 Q174.05 120.6 172.25 127.6 170.4 134.65 166.3 138.5" fill="url(#gradient15)" fill-rule="evenodd" stroke="none"/>
      <path d="M243.25 245.65 Q244.4 273.2 245.15 301.8 243.35 284.25 240.2 266.8 236.65 246.9 230.8 227.6 224.7 207.75 216.5 188.6 207.95 168.75 198.25 149.2 L178.7 110.4 191.7 112.45 Q198.15 123.6 206.25 141.45 214.9 160.7 223.05 182.6 L224.05 185.4 Q235.15 215.8 243.25 245.65" fill="url(#gradient16)" fill-rule="evenodd" stroke="none"/>
      <path d="M188.35 191.4 Q177.15 172.45 164.15 153.4 L178.55 143.75 183.25 149.5 173.7 155.9 200.55 209.1 215.35 238.8 Q220.35 249.1 222.95 255.9 225.15 261.7 228.0 271.45 212.1 231.55 188.35 191.4" fill="url(#gradient17)" fill-rule="evenodd" stroke="none"/>
      <path d="M143.65 166.05 L158.1 156.4 162.75 162.2 153.2 168.5 170.9 195.8 Q214.15 263.45 218.6 278.35 207.9 255.15 166.2 197.0 L143.65 166.05" fill="url(#gradient18)" fill-rule="evenodd" stroke="none"/>
      <path d="M138.6 168.3 L143.25 174.1 133.75 180.45 Q160.05 212.05 176.25 233.5 198.6 263.2 201.6 273.45 195.2 259.65 177.3 237.3 157.65 212.8 124.2 178.0 L138.6 168.3" fill="url(#gradient19)" fill-rule="evenodd" stroke="none"/>
      <path d="M126.8 157.15 Q125.75 158.9 123.95 159.75 109.6 166.65 98.6 153.85 L130.4 140.55 Q131.35 149.4 126.8 157.15" fill="url(#gradient20)" fill-rule="evenodd" stroke="none"/>
    </g>
    <radialGradient cx="0" cy="0" gradientTransform="matrix(0.3269, 0.0, 0.0, 0.3269, 300.05, 286.05)" gradientUnits="userSpaceOnUse" id="gradient0" r="819.2" spreadMethod="pad">
      <stop offset="0.13725490196078433" stop-color="#cec5cd"/>
      <stop offset="0.5137254901960784" stop-color="#9e859c"/>
      <stop offset="0.7803921568627451" stop-color="#5b5368"/>
      <stop offset="1.0" stop-color="#28263e"/>
    </radialGradient>
    <radialGradient cx="0" cy="0" gradientTransform="matrix(0.4691, 0.0725, -0.0725, 0.4691, 239.9, 453.7)" gradientUnits="userSpaceOnUse" id="gradient1" r="819.2" spreadMethod="pad">
      <stop offset="0.13725490196078433" stop-color="#cec5cd"/>
      <stop offset="0.5137254901960784" stop-color="#9e859c"/>
      <stop offset="0.7803921568627451" stop-color="#5b5368"/>
      <stop offset="1.0" stop-color="#28263e"/>
    </radialGradient>
    <radialGradient cx="0" cy="0" gradientTransform="matrix(0.3903, 0.0603, -0.0603, 0.3903, 234.05, 424.65)" gradientUnits="userSpaceOnUse" id="gradient2" r="819.2" spreadMethod="pad">
      <stop offset="0.0784313725490196" stop-color="#cec5cd"/>
      <stop offset="0.7098039215686275" stop-color="#9e859c"/>
    </radialGradient>
    <radialGradient cx="0" cy="0" gradientTransform="matrix(0.4008, 0.062, -0.062, 0.4008, 224.3, 465.55)" gradientUnits="userSpaceOnUse" id="gradient3" r="819.2" spreadMethod="pad">
      <stop offset="0.13725490196078433" stop-color="#cec5cd"/>
      <stop offset="0.5137254901960784" stop-color="#9e859c"/>
      <stop offset="1.0" stop-color="#62506f"/>
    </radialGradient>
    <radialGradient cx="0" cy="0" gradientTransform="matrix(0.0224, 0.0035, -0.0035, 0.0224, 353.3, 215.35)" gradientUnits="userSpaceOnUse" id="gradient4" r="819.2" spreadMethod="pad">
      <stop offset="0.13725490196078433" stop-color="#cec5cd"/>
      <stop offset="1.0" stop-color="#9e859c"/>
    </radialGradient>
    <radialGradient cx="0" cy="0" gradientTransform="matrix(0.0617, 0.0095, -0.0095, 0.0617, 375.65, 210.45)" gradientUnits="userSpaceOnUse" id="gradient5" r="819.2" spreadMethod="pad">
      <stop offset="0.13725490196078433" stop-color="#cec5cd"/>
      <stop offset="1.0" stop-color="#9e859c"/>
    </radialGradient>
    <radialGradient cx="0" cy="0" gradientTransform="matrix(0.1166, 0.018, -0.018, 0.1166, 338.2, 393.85)" gradientUnits="userSpaceOnUse" id="gradient6" r="819.2" spreadMethod="pad">
      <stop offset="0.13725490196078433" stop-color="#cec5cd"/>
      <stop offset="1.0" stop-color="#9e859c"/>
    </radialGradient>
    <radialGradient cx="0" cy="0" gradientTransform="matrix(0.4757, 0.0735, -0.0735, 0.4757, 236.35, 468.3)" gradientUnits="userSpaceOnUse" id="gradient7" r="819.2" spreadMethod="pad">
      <stop offset="0.13725490196078433" stop-color="#cec5cd"/>
      <stop offset="0.5137254901960784" stop-color="#9e859c"/>
      <stop offset="0.7803921568627451" stop-color="#5b5368"/>
      <stop offset="1.0" stop-color="#28263e"/>
    </radialGradient>
    <radialGradient cx="0" cy="0" gradientTransform="matrix(0.3898, 0.0603, -0.0603, 0.3898, 231.25, 440.45)" gradientUnits="userSpaceOnUse" id="gradient8" r="819.2" spreadMethod="pad">
      <stop offset="0.0784313725490196" stop-color="#cec5cd"/>
      <stop offset="0.7098039215686275" stop-color="#9e859c"/>
    </radialGradient>
    <radialGradient cx="0" cy="0" gradientTransform="matrix(0.3756, 0.0581, -0.0581, 0.3756, 248.5, 529.05)" gradientUnits="userSpaceOnUse" id="gradient9" r="819.2" spreadMethod="pad">
      <stop offset="0.13725490196078433" stop-color="#cec5cd"/>
      <stop offset="0.5137254901960784" stop-color="#9e859c"/>
      <stop offset="0.7803921568627451" stop-color="#5b5368"/>
      <stop offset="1.0" stop-color="#28263e"/>
    </radialGradient>
    <radialGradient cx="0" cy="0" gradientTransform="matrix(0.4808, 0.0743, -0.0743, 0.4808, 238.65, 463.15)" gradientUnits="userSpaceOnUse" id="gradient10" r="819.2" spreadMethod="pad">
      <stop offset="0.4980392156862745" stop-color="#cec5cd"/>
      <stop offset="1.0" stop-color="#9e859c"/>
    </radialGradient>
    <radialGradient cx="0" cy="0" gradientTransform="matrix(0.3899, 0.0602, -0.0602, 0.3899, 230.65, 439.1)" gradientUnits="userSpaceOnUse" id="gradient11" r="819.2" spreadMethod="pad">
      <stop offset="0.0784313725490196" stop-color="#cec5cd"/>
      <stop offset="0.7098039215686275" stop-color="#9e859c"/>
    </radialGradient>
    <radialGradient cx="0" cy="0" gradientTransform="matrix(0.3529, 0.0545, -0.0545, 0.3529, 234.25, 404.5)" gradientUnits="userSpaceOnUse" id="gradient12" r="819.2" spreadMethod="pad">
      <stop offset="0.0784313725490196" stop-color="#cec5cd"/>
      <stop offset="0.7098039215686275" stop-color="#9e859c"/>
    </radialGradient>
    <radialGradient cx="0" cy="0" gradientTransform="matrix(0.0459, 0.0071, -0.0071, 0.0459, 109.8, 202.3)" gradientUnits="userSpaceOnUse" id="gradient13" r="819.2" spreadMethod="pad">
      <stop offset="0.13725490196078433" stop-color="#cec5cd"/>
      <stop offset="1.0" stop-color="#9e859c"/>
    </radialGradient>
    <radialGradient cx="0" cy="0" gradientTransform="matrix(0.487, 0.0753, -0.0753, 0.487, 247.7, 475.1)" gradientUnits="userSpaceOnUse" id="gradient14" r="819.2" spreadMethod="pad">
      <stop offset="0.13725490196078433" stop-color="#cec5cd"/>
      <stop offset="0.5137254901960784" stop-color="#9e859c"/>
      <stop offset="0.7803921568627451" stop-color="#5b5368"/>
      <stop offset="1.0" stop-color="#28263e"/>
    </radialGradient>
    <radialGradient cx="0" cy="0" gradientTransform="matrix(0.3566, 0.0599, -0.0599, 0.3566, 195.1, 378.6)" gradientUnits="userSpaceOnUse" id="gradient15" r="819.2" spreadMethod="pad">
      <stop offset="0.0784313725490196" stop-color="#cec5cd"/>
      <stop offset="0.7098039215686275" stop-color="#9e859c"/>
    </radialGradient>
    <radialGradient cx="0" cy="0" gradientTransform="matrix(0.2504, 0.0387, -0.0387, 0.2504, 103.9, 203.6)" gradientUnits="userSpaceOnUse" id="gradient16" r="819.2" spreadMethod="pad">
      <stop offset="0.13725490196078433" stop-color="#cec5cd"/>
      <stop offset="1.0" stop-color="#9e859c"/>
    </radialGradient>
    <radialGradient cx="0" cy="0" gradientTransform="matrix(0.3233, 0.05, -0.05, 0.3233, 236.15, 447.45)" gradientUnits="userSpaceOnUse" id="gradient17" r="819.2" spreadMethod="pad">
      <stop offset="0.13725490196078433" stop-color="#cec5cd"/>
      <stop offset="0.5137254901960784" stop-color="#9e859c"/>
      <stop offset="1.0" stop-color="#62506f"/>
    </radialGradient>
    <radialGradient cx="0" cy="0" gradientTransform="matrix(0.3233, 0.05, -0.05, 0.3233, 236.15, 447.45)" gradientUnits="userSpaceOnUse" id="gradient18" r="819.2" spreadMethod="pad">
      <stop offset="0.13725490196078433" stop-color="#cec5cd"/>
      <stop offset="0.5137254901960784" stop-color="#9e859c"/>
      <stop offset="1.0" stop-color="#62506f"/>
    </radialGradient>
    <radialGradient cx="0" cy="0" gradientTransform="matrix(0.3234, 0.05, -0.05, 0.3234, 236.15, 447.45)" gradientUnits="userSpaceOnUse" id="gradient19" r="819.2" spreadMethod="pad">
      <stop offset="0.13725490196078433" stop-color="#cec5cd"/>
      <stop offset="0.5137254901960784" stop-color="#9e859c"/>
      <stop offset="1.0" stop-color="#62506f"/>
    </radialGradient>
    <radialGradient cx="0" cy="0" gradientTransform="matrix(0.4157, 0.0699, -0.0699, 0.4157, 131.75, 476.45)" gradientUnits="userSpaceOnUse" id="gradient20" r="819.2" spreadMethod="pad">
      <stop offset="0.0784313725490196" stop-color="#cec5cd"/>
      <stop offset="0.7098039215686275" stop-color="#9e859c"/>
    </radialGradient>
    <g id="sprite0" transform="matrix(1.0, 0.0, 0.0, 1.0, 170.1, 44.6)">
      <use height="49.95" transform="matrix(1.0, 0.0, 0.0, 1.0, -94.15, -44.15)" width="131.1" xlink:href="#shape1"/>
      <clipPath id="clipPath0" transform="matrix(1.0, 0.0, 0.0, 1.0, 170.1, 44.6)">
        <use height="49.4" transform="matrix(1.0, 0.0, 0.0, 1.0, 40.55, -44.55)" width="49.4" xlink:href="#shape2"/>
      </clipPath>
      <g clip-path="url(#clipPath0)">
        <use height="49.85" transform="matrix(1.0, 0.0, 0.0, 1.0, 49.65, -44.15)" width="366.6" xlink:href="#shape3"/>
      </g>
    </g>
    <g id="shape1" transform="matrix(1.0, 0.0, 0.0, 1.0, 4.95, 4.7)">
      <path d="M112.75 8.75 L111.05 16.05 117.25 16.05 115.55 23.35 109.35 23.35 107.35 31.8 114.65 31.8 112.9 39.45 95.65 39.45 104.55 1.1 121.15 1.1 119.4 8.75 112.75 8.75 M98.65 6.35 Q98.95 8.75 97.9 13.55 L97.45 15.25 87.5 15.25 89.0 7.6 Q88.9 6.75 87.8 6.75 86.85 6.75 86.4 7.5 85.85 8.2 85.15 11.15 L80.85 29.55 Q80.25 32.2 80.4 33.0 80.5 33.8 81.55 33.8 82.65 33.8 83.25 32.85 83.9 31.95 84.5 29.25 L85.6 24.65 83.6 24.65 85.0 18.85 96.65 18.85 91.8 39.45 85.5 39.45 85.25 36.7 Q83.8 38.5 82.05 39.4 80.3 40.25 78.15 40.25 75.6 40.25 73.75 39.05 71.8 37.8 71.1 36.05 70.35 34.15 70.55 32.25 70.7 30.3 71.7 26.3 L74.3 14.9 Q75.55 9.55 76.75 6.9 77.95 4.45 81.3 2.35 84.55 0.3 89.05 0.3 93.4 0.3 95.9 2.05 98.35 3.95 98.65 6.35 M45.15 8.75 L38.0 39.45 28.0 39.45 35.2 8.75 29.25 8.75 31.05 1.1 52.9 1.1 51.1 8.75 45.15 8.75 M59.4 25.75 Q60.0 20.15 61.6 9.6 57.5 20.65 55.95 25.75 L59.4 25.75 M54.4 32.55 L52.25 39.45 41.9 39.45 56.0 1.1 70.35 1.1 67.15 39.45 57.0 39.45 58.05 32.55 54.4 32.55 M27.1 4.7 Q27.55 6.7 26.5 11.2 L26.1 12.7 16.8 12.7 17.5 9.85 Q17.95 7.85 17.7 7.3 17.5 6.75 16.75 6.75 15.85 6.75 15.25 7.5 14.6 8.15 14.25 9.75 13.8 11.75 14.05 12.65 14.25 13.6 16.3 15.0 22.0 18.9 23.15 21.5 24.3 24.0 23.0 29.65 22.0 33.75 20.55 35.7 19.15 37.65 16.15 38.95 13.05 40.25 9.4 40.25 5.45 40.25 2.95 38.75 0.45 37.25 0.15 34.9 -0.2 32.6 0.85 28.25 L1.45 25.75 10.75 25.75 9.65 30.4 Q9.1 32.5 9.35 33.15 9.6 33.8 10.55 33.8 11.55 33.8 12.2 33.0 12.85 32.25 13.25 30.65 14.0 27.25 13.4 26.25 12.7 25.15 9.6 22.75 6.45 20.35 5.45 19.2 4.5 18.1 4.2 16.1 3.9 14.1 4.55 11.05 5.65 6.65 7.25 4.65 8.8 2.6 11.6 1.4 14.35 0.3 17.9 0.3 21.8 0.3 24.2 1.55 26.6 2.8 27.1 4.7" fill="#ffffff" fill-rule="evenodd" stroke="none"/>
      <path d="M112.75 8.75 L111.05 16.05 117.25 16.05 115.55 23.35 109.35 23.35 107.35 31.8 114.65 31.8 112.9 39.45 95.65 39.45 104.55 1.1 121.15 1.1 119.4 8.75 112.75 8.75 M98.65 6.35 Q98.95 8.75 97.9 13.55 L97.45 15.25 87.5 15.25 89.0 7.6 Q88.9 6.75 87.8 6.75 86.85 6.75 86.4 7.5 85.85 8.2 85.15 11.15 L80.85 29.55 Q80.25 32.2 80.4 33.0 80.5 33.8 81.55 33.8 82.65 33.8 83.25 32.85 83.9 31.95 84.5 29.25 L85.6 24.65 83.6 24.65 85.0 18.85 96.65 18.85 91.8 39.45 85.5 39.45 85.25 36.7 Q83.8 38.5 82.05 39.4 80.3 40.25 78.15 40.25 75.6 40.25 73.75 39.05 71.8 37.8 71.1 36.05 70.35 34.15 70.55 32.25 70.7 30.3 71.7 26.3 L74.3 14.9 Q75.55 9.55 76.75 6.9 77.95 4.45 81.3 2.35 84.55 0.3 89.05 0.3 93.4 0.3 95.9 2.05 98.35 3.95 98.65 6.35 M45.15 8.75 L38.0 39.45 28.0 39.45 35.2 8.75 29.25 8.75 31.05 1.1 52.9 1.1 51.1 8.75 45.15 8.75 M59.4 25.75 Q60.0 20.15 61.6 9.6 57.5 20.65 55.95 25.75 L59.4 25.75 M54.4 32.55 L52.25 39.45 41.9 39.45 56.0 1.1 70.35 1.1 67.15 39.45 57.0 39.45 58.05 32.55 54.4 32.55 M27.1 4.7 Q27.55 6.7 26.5 11.2 L26.1 12.7 16.8 12.7 17.5 9.85 Q17.95 7.85 17.7 7.3 17.5 6.75 16.75 6.75 15.85 6.75 15.25 7.5 14.6 8.15 14.25 9.75 13.8 11.75 14.05 12.65 14.25 13.6 16.3 15.0 22.0 18.9 23.15 21.5 24.3 24.0 23.0 29.65 22.0 33.75 20.55 35.7 19.15 37.65 16.15 38.95 13.05 40.25 9.4 40.25 5.45 40.25 2.95 38.75 0.45 37.25 0.15 34.9 -0.2 32.6 0.85 28.25 L1.45 25.75 10.75 25.75 9.65 30.4 Q9.1 32.5 9.35 33.15 9.6 33.8 10.55 33.8 11.55 33.8 12.2 33.0 12.85 32.25 13.25 30.65 14.0 27.25 13.4 26.25 12.7 25.15 9.6 22.75 6.45 20.35 5.45 19.2 4.5 18.1 4.2 16.1 3.9 14.1 4.55 11.05 5.65 6.65 7.25 4.65 8.8 2.6 11.6 1.4 14.35 0.3 17.9 0.3 21.8 0.3 24.2 1.55 26.6 2.8 27.1 4.7" fill="none" stroke="#ffffff" stroke-linecap="round" stroke-linejoin="round" stroke-width="10.0"/>
      <path d="M121.1 0.8 L119.35 8.45 112.7 8.45 111.0 15.75 117.2 15.75 115.5 23.05 109.3 23.05 107.3 31.5 114.6 31.5 112.85 39.15 95.6 39.15 104.5 0.8 121.1 0.8 M98.6 6.05 Q98.9 8.45 97.8 13.25 L97.4 14.95 87.45 14.95 88.95 7.3 Q88.8 6.45 87.75 6.45 86.8 6.45 86.35 7.2 85.8 7.9 85.1 10.85 L80.8 29.25 Q80.2 31.9 80.35 32.7 80.45 33.5 81.5 33.5 82.6 33.5 83.2 32.55 83.8 31.65 84.4 28.95 L85.5 24.35 83.5 24.35 84.9 18.55 96.55 18.55 91.75 39.15 85.45 39.15 85.2 36.4 Q83.7 38.2 82.0 39.1 80.25 39.95 78.1 39.95 75.55 39.95 73.7 38.75 71.7 37.5 71.05 35.75 70.3 33.85 70.5 31.95 70.65 30.0 71.65 26.0 L74.25 14.6 Q75.5 9.25 76.7 6.6 77.9 4.15 81.2 2.05 84.5 0.0 89.0 0.0 93.3 0.0 95.8 1.75 98.3 3.65 98.6 6.05 M45.1 8.45 L37.95 39.15 27.95 39.15 35.15 8.45 29.2 8.45 31.0 0.8 52.85 0.8 51.05 8.45 45.1 8.45 M52.2 39.15 L41.85 39.15 55.95 0.8 70.3 0.8 67.1 39.15 56.95 39.15 58.0 32.25 54.35 32.25 52.2 39.15 M59.3 25.45 Q59.9 19.85 61.55 9.3 57.45 20.35 55.85 25.45 L59.3 25.45 M26.05 12.4 L16.75 12.4 17.45 9.55 Q17.85 7.55 17.65 7.0 17.45 6.45 16.7 6.45 15.8 6.45 15.2 7.2 14.55 7.85 14.2 9.45 13.75 11.45 14.0 12.35 14.2 13.3 16.25 14.7 21.95 18.6 23.1 21.2 24.2 23.7 22.9 29.35 21.95 33.45 20.5 35.4 19.1 37.35 16.1 38.65 13.0 39.95 9.35 39.95 5.4 39.95 2.9 38.45 0.4 36.95 0.1 34.6 -0.25 32.3 0.8 27.95 L1.35 25.45 10.65 25.45 9.55 30.1 Q9.05 32.2 9.3 32.85 9.55 33.5 10.5 33.5 11.5 33.5 12.15 32.7 12.8 31.95 13.2 30.35 13.95 26.95 13.35 25.95 12.6 24.85 9.5 22.45 6.4 20.05 5.4 18.9 4.45 17.8 4.15 15.8 3.85 13.8 4.5 10.75 5.55 6.35 7.15 4.35 8.75 2.3 11.55 1.1 14.3 0.0 17.85 0.0 21.75 0.0 24.15 1.25 26.55 2.5 27.0 4.4 27.45 6.4 26.4 10.9 L26.05 12.4" fill="url(#gradient21)" fill-rule="evenodd" stroke="none"/>
    </g>
    <linearGradient gradientTransform="matrix(-0.0032, -0.0243, 0.0191, 0.0, 207.75, 19.95)" gradientUnits="userSpaceOnUse" id="gradient21" spreadMethod="pad" x1="-819.2" x2="819.2">
      <stop offset="0.1843137254901961" stop-color="#ff7700"/>
      <stop offset="0.7843137254901961" stop-color="#cc2232"/>
    </linearGradient>
    <g id="shape2" transform="matrix(1.0, 0.0, 0.0, 1.0, -40.55, 44.55)">
      <path d="M89.95 -44.55 L76.6 4.85 40.55 4.85 53.9 -44.55 89.95 -44.55" fill="#ffffff" fill-rule="evenodd" stroke="none"/>
    </g>
    <g id="shape3" transform="matrix(1.0, 0.0, 0.0, 1.0, 4.95, 4.7)">
      <path d="M346.15 6.2 Q345.0 6.2 344.5 7.0 343.95 7.85 343.3 10.75 L338.95 29.55 Q338.1 32.9 338.3 33.6 338.45 34.25 339.55 34.25 340.6 34.25 341.15 33.5 L342.3 29.85 347.4 6.95 Q347.25 6.2 346.15 6.2 M352.7 1.4 Q354.95 2.55 355.8 4.1 356.65 5.65 356.65 7.7 L355.6 14.0 352.6 26.85 Q351.6 31.15 350.6 33.2 349.75 35.1 347.8 36.9 345.9 38.65 343.6 39.4 L338.7 40.15 Q335.25 40.15 333.15 39.35 331.1 38.6 330.15 36.9 329.15 35.25 329.0 33.35 328.85 31.45 329.85 27.45 L333.0 14.0 Q334.2 8.7 335.7 6.1 337.25 3.5 340.3 1.9 343.4 0.3 347.3 0.3 350.4 0.3 352.7 1.4 M319.85 8.65 L314.5 31.65 Q313.8 33.9 311.8 36.0 309.85 38.1 307.15 39.1 304.45 40.15 301.15 40.15 297.1 40.15 294.85 38.85 292.5 37.5 292.0 35.2 291.4 32.8 292.25 29.25 L301.85 29.25 301.05 32.6 Q300.95 33.35 301.45 33.8 301.8 34.25 302.7 34.25 303.5 34.25 304.0 33.85 L304.85 32.7 307.0 23.7 Q305.95 25.2 304.3 26.0 302.7 26.75 300.55 26.75 297.95 26.75 296.3 25.35 294.6 23.9 294.55 21.95 294.4 20.1 295.25 16.55 L295.95 13.5 Q296.8 9.55 297.65 7.45 298.45 5.5 300.2 3.85 301.85 2.15 304.45 1.2 307.05 0.3 310.1 0.3 313.95 0.3 316.2 1.35 318.4 2.45 319.25 4.45 320.15 6.5 319.85 8.65 M310.5 6.95 Q310.2 6.2 309.2 6.2 308.55 6.2 307.7 6.75 306.95 7.4 306.3 10.05 L304.6 17.35 Q304.05 19.75 304.55 20.35 305.0 20.9 305.7 20.9 306.75 20.9 307.35 20.2 308.05 19.35 308.5 17.35 L310.1 10.3 Q310.75 7.8 310.5 6.95 M282.2 10.45 Q281.45 13.55 280.35 14.95 279.25 16.3 276.5 17.7 278.4 18.55 279.1 20.2 279.85 21.9 278.35 28.25 277.25 33.0 275.9 35.15 274.45 37.35 271.55 38.75 268.6 40.15 264.2 40.15 259.9 40.15 257.8 38.8 255.55 37.45 255.05 35.25 254.45 33.0 255.7 27.8 256.45 24.4 257.65 21.75 258.75 19.25 261.95 17.7 260.35 16.8 259.9 14.95 259.45 13.1 260.15 10.2 261.3 5.25 264.65 2.75 267.95 0.3 273.4 0.3 279.7 0.3 281.5 2.95 283.35 5.6 282.2 10.45 M269.75 9.35 L269.1 12.3 Q268.65 14.1 268.9 14.7 269.05 15.35 270.05 15.35 270.95 15.35 271.45 14.75 272.0 14.0 272.4 12.0 L273.05 9.35 Q273.45 7.4 273.25 6.8 273.1 6.2 272.15 6.2 271.15 6.2 270.65 6.85 270.2 7.5 269.75 9.35 M268.45 21.75 Q267.5 21.75 266.9 22.45 266.35 23.15 265.8 25.4 L264.65 30.35 Q264.05 32.8 264.35 33.6 264.65 34.25 265.7 34.25 266.65 34.25 267.25 33.55 L268.3 30.3 269.5 25.4 Q270.0 23.2 269.75 22.45 269.45 21.75 268.45 21.75 M224.1 7.95 L225.7 1.05 243.95 1.05 242.05 9.45 228.95 39.4 219.4 39.4 233.5 7.95 224.1 7.95 M205.25 23.9 L204.55 27.0 202.85 33.0 Q202.0 35.05 200.3 36.6 198.55 38.3 196.05 39.25 193.4 40.15 190.35 40.15 186.45 40.15 184.25 39.1 182.05 38.0 181.2 36.0 180.35 34.05 180.6 31.8 180.85 29.75 182.4 23.25 L183.6 17.95 Q185.15 11.2 185.95 8.8 186.65 6.55 188.65 4.45 190.6 2.35 193.3 1.35 196.05 0.3 199.3 0.3 203.3 0.3 205.65 1.6 207.95 2.9 208.45 5.25 209.05 7.55 208.25 11.2 L198.65 11.2 199.4 7.85 Q199.5 7.15 199.1 6.65 198.65 6.2 197.8 6.2 197.0 6.2 196.5 6.6 195.9 7.1 195.65 7.75 L193.45 16.75 Q194.55 15.25 196.15 14.45 197.75 13.7 199.85 13.7 202.5 13.7 204.2 15.1 205.85 16.5 205.95 18.5 206.0 20.55 205.25 23.9 M194.75 19.55 Q193.7 19.55 193.1 20.25 192.45 21.05 192.0 23.15 L190.35 30.15 Q189.75 32.7 190.0 33.5 190.2 34.25 191.3 34.25 191.9 34.25 192.75 33.7 193.5 33.05 194.2 30.4 L195.9 23.15 Q196.35 21.1 196.05 20.3 195.75 19.55 194.75 19.55 M168.55 21.85 L167.3 27.3 Q166.4 31.25 165.5 33.3 164.65 35.2 163.0 36.8 161.4 38.4 158.85 39.3 156.4 40.15 153.1 40.15 149.3 40.15 146.9 38.85 L146.6 38.7 Q144.35 37.45 143.75 35.0 143.15 32.5 144.4 27.15 L144.9 25.1 154.45 25.1 153.9 27.45 Q153.0 31.3 152.9 32.75 152.8 34.25 154.4 34.25 155.15 34.25 155.65 33.85 L156.35 32.85 159.3 20.75 Q159.8 18.65 159.55 17.8 159.2 17.0 158.2 17.0 157.5 17.0 156.95 17.45 L156.15 18.25 155.55 20.45 146.05 20.45 151.0 1.05 171.6 1.05 170.15 7.2 158.2 7.2 156.65 13.75 Q159.5 11.15 163.05 11.15 166.95 11.15 168.55 13.35 170.05 15.55 168.55 21.85 M134.7 1.05 L128.9 26.1 131.6 26.1 130.1 32.65 127.35 32.65 125.75 39.4 116.2 39.4 117.8 32.65 106.4 32.65 107.95 26.1 122.0 1.05 134.7 1.05 M96.9 10.4 Q96.15 13.5 94.95 15.05 93.75 16.4 91.25 17.7 93.2 18.4 93.9 20.1 94.6 21.75 93.15 27.9 92.05 32.5 90.45 35.0 88.75 37.55 85.95 38.85 83.05 40.15 79.05 40.15 74.5 40.15 72.25 38.6 70.0 37.1 69.7 34.9 69.4 32.8 70.7 27.2 L71.45 24.2 81.05 24.2 79.55 30.45 Q79.0 32.9 79.15 33.6 79.25 34.25 80.3 34.25 81.4 34.25 81.95 33.45 82.5 32.5 83.35 28.95 L83.95 26.3 Q84.45 24.15 84.2 23.1 83.9 22.05 83.05 21.75 L79.35 21.4 80.7 15.8 84.95 15.5 Q85.8 15.3 86.4 14.4 L87.9 9.5 Q88.35 7.45 88.1 6.8 87.8 6.2 87.0 6.2 85.95 6.2 85.45 6.85 84.95 7.5 84.4 9.75 L83.65 12.95 74.0 12.95 74.8 9.65 Q76.05 4.2 79.05 2.25 81.95 0.3 87.5 0.3 94.35 0.3 96.15 2.95 98.0 5.7 96.9 10.4 M119.3 26.1 L123.1 9.75 115.05 26.1 119.3 26.1 M59.4 3.1 Q61.65 6.0 60.6 10.3 59.85 13.5 57.3 17.25 55.0 20.7 44.05 32.85 L54.45 32.85 52.95 39.4 31.9 39.4 33.2 33.95 Q46.4 18.25 48.75 14.95 51.4 11.35 51.9 9.25 52.2 7.7 51.9 6.95 51.55 6.2 50.45 6.2 49.35 6.2 48.65 7.0 47.95 7.8 47.3 10.45 L46.4 14.1 37.8 14.1 38.15 12.7 Q38.85 9.65 39.65 7.6 40.45 5.7 42.2 3.95 43.9 2.15 46.2 1.2 48.55 0.3 51.4 0.3 57.1 0.3 59.4 3.1 M13.05 1.05 L18.65 1.05 9.7 39.4 0.15 39.4 6.0 13.5 Q6.0 12.6 5.15 12.15 L0.95 11.7 0.05 11.7 1.05 7.2 Q8.35 5.7 13.05 1.05" fill="#ffffff" fill-rule="evenodd" stroke="none"/>
      <path d="M346.15 6.2 Q345.0 6.2 344.5 7.0 343.95 7.85 343.3 10.75 L338.95 29.55 Q338.1 32.9 338.3 33.6 338.45 34.25 339.55 34.25 340.6 34.25 341.15 33.5 L342.3 29.85 347.4 6.95 Q347.25 6.2 346.15 6.2 M352.7 1.4 Q354.95 2.55 355.8 4.1 356.65 5.65 356.65 7.7 L355.6 14.0 352.6 26.85 Q351.6 31.15 350.6 33.2 349.75 35.1 347.8 36.9 345.9 38.65 343.6 39.4 L338.7 40.15 Q335.25 40.15 333.15 39.35 331.1 38.6 330.15 36.9 329.15 35.25 329.0 33.35 328.85 31.45 329.85 27.45 L333.0 14.0 Q334.2 8.7 335.7 6.1 337.25 3.5 340.3 1.9 343.4 0.3 347.3 0.3 350.4 0.3 352.7 1.4 M319.85 8.65 L314.5 31.65 Q313.8 33.9 311.8 36.0 309.85 38.1 307.15 39.1 304.45 40.15 301.15 40.15 297.1 40.15 294.85 38.85 292.5 37.5 292.0 35.2 291.4 32.8 292.25 29.25 L301.85 29.25 301.05 32.6 Q300.95 33.35 301.45 33.8 301.8 34.25 302.7 34.25 303.5 34.25 304.0 33.85 L304.85 32.7 307.0 23.7 Q305.95 25.2 304.3 26.0 302.7 26.75 300.55 26.75 297.95 26.75 296.3 25.35 294.6 23.9 294.55 21.95 294.4 20.1 295.25 16.55 L295.95 13.5 Q296.8 9.55 297.65 7.45 298.45 5.5 300.2 3.85 301.85 2.15 304.45 1.2 307.05 0.3 310.1 0.3 313.95 0.3 316.2 1.35 318.4 2.45 319.25 4.45 320.15 6.5 319.85 8.65 M310.5 6.95 Q310.2 6.2 309.2 6.2 308.55 6.2 307.7 6.75 306.95 7.4 306.3 10.05 L304.6 17.35 Q304.05 19.75 304.55 20.35 305.0 20.9 305.7 20.9 306.75 20.9 307.35 20.2 308.05 19.35 308.5 17.35 L310.1 10.3 Q310.75 7.8 310.5 6.95 M282.2 10.45 Q281.45 13.55 280.35 14.95 279.25 16.3 276.5 17.7 278.4 18.55 279.1 20.2 279.85 21.9 278.35 28.25 277.25 33.0 275.9 35.15 274.45 37.35 271.55 38.75 268.6 40.15 264.2 40.15 259.9 40.15 257.8 38.8 255.55 37.45 255.05 35.25 254.45 33.0 255.7 27.8 256.45 24.4 257.65 21.75 258.75 19.25 261.95 17.7 260.35 16.8 259.9 14.95 259.45 13.1 260.15 10.2 261.3 5.25 264.65 2.75 267.95 0.3 273.4 0.3 279.7 0.3 281.5 2.95 283.35 5.6 282.2 10.45 M269.75 9.35 L269.1 12.3 Q268.65 14.1 268.9 14.7 269.05 15.35 270.05 15.35 270.95 15.35 271.45 14.75 272.0 14.0 272.4 12.0 L273.05 9.35 Q273.45 7.4 273.25 6.8 273.1 6.2 272.15 6.2 271.15 6.2 270.65 6.85 270.2 7.5 269.75 9.35 M268.45 21.75 Q267.5 21.75 266.9 22.45 266.35 23.15 265.8 25.4 L264.65 30.35 Q264.05 32.8 264.35 33.6 264.65 34.25 265.7 34.25 266.65 34.25 267.25 33.55 L268.3 30.3 269.5 25.4 Q270.0 23.2 269.75 22.45 269.45 21.75 268.45 21.75 M224.1 7.95 L225.7 1.05 243.95 1.05 242.05 9.45 228.95 39.4 219.4 39.4 233.5 7.95 224.1 7.95 M205.25 23.9 L204.55 27.0 202.85 33.0 Q202.0 35.05 200.3 36.6 198.55 38.3 196.05 39.25 193.4 40.15 190.35 40.15 186.45 40.15 184.25 39.1 182.05 38.0 181.2 36.0 180.35 34.05 180.6 31.8 180.85 29.75 182.4 23.25 L183.6 17.95 Q185.15 11.2 185.95 8.8 186.65 6.55 188.65 4.45 190.6 2.35 193.3 1.35 196.05 0.3 199.3 0.3 203.3 0.3 205.65 1.6 207.95 2.9 208.45 5.25 209.05 7.55 208.25 11.2 L198.65 11.2 199.4 7.85 Q199.5 7.15 199.1 6.65 198.65 6.2 197.8 6.2 197.0 6.2 196.5 6.6 195.9 7.1 195.65 7.75 L193.45 16.75 Q194.55 15.25 196.15 14.45 197.75 13.7 199.85 13.7 202.5 13.7 204.2 15.1 205.85 16.5 205.95 18.5 206.0 20.55 205.25 23.9 M194.75 19.55 Q193.7 19.55 193.1 20.25 192.45 21.05 192.0 23.15 L190.35 30.15 Q189.75 32.7 190.0 33.5 190.2 34.25 191.3 34.25 191.9 34.25 192.75 33.7 193.5 33.05 194.2 30.4 L195.9 23.15 Q196.35 21.1 196.05 20.3 195.75 19.55 194.75 19.55 M168.55 21.85 L167.3 27.3 Q166.4 31.25 165.5 33.3 164.65 35.2 163.0 36.8 161.4 38.4 158.85 39.3 156.4 40.15 153.1 40.15 149.3 40.15 146.9 38.85 L146.6 38.7 Q144.35 37.45 143.75 35.0 143.15 32.5 144.4 27.15 L144.9 25.1 154.45 25.1 153.9 27.45 Q153.0 31.3 152.9 32.75 152.8 34.25 154.4 34.25 155.15 34.25 155.65 33.85 L156.35 32.85 159.3 20.75 Q159.8 18.65 159.55 17.8 159.2 17.0 158.2 17.0 157.5 17.0 156.95 17.45 L156.15 18.25 155.55 20.45 146.05 20.45 151.0 1.05 171.6 1.05 170.15 7.2 158.2 7.2 156.65 13.75 Q159.5 11.15 163.05 11.15 166.95 11.15 168.55 13.35 170.05 15.55 168.55 21.85 M134.7 1.05 L128.9 26.1 131.6 26.1 130.1 32.65 127.35 32.65 125.75 39.4 116.2 39.4 117.8 32.65 106.4 32.65 107.95 26.1 122.0 1.05 134.7 1.05 M96.9 10.4 Q96.15 13.5 94.95 15.05 93.75 16.4 91.25 17.7 93.2 18.4 93.9 20.1 94.6 21.75 93.15 27.9 92.05 32.5 90.45 35.0 88.75 37.55 85.95 38.85 83.05 40.15 79.05 40.15 74.5 40.15 72.25 38.6 70.0 37.1 69.7 34.9 69.4 32.8 70.7 27.2 L71.45 24.2 81.05 24.2 79.55 30.45 Q79.0 32.9 79.15 33.6 79.25 34.25 80.3 34.25 81.4 34.25 81.95 33.45 82.5 32.5 83.35 28.95 L83.95 26.3 Q84.45 24.15 84.2 23.1 83.9 22.05 83.05 21.75 L79.35 21.4 80.7 15.8 84.95 15.5 Q85.8 15.3 86.4 14.4 L87.9 9.5 Q88.35 7.45 88.1 6.8 87.8 6.2 87.0 6.2 85.95 6.2 85.45 6.85 84.95 7.5 84.4 9.75 L83.65 12.95 74.0 12.95 74.8 9.65 Q76.05 4.2 79.05 2.25 81.95 0.3 87.5 0.3 94.35 0.3 96.15 2.95 98.0 5.7 96.9 10.4 M119.3 26.1 L123.1 9.75 115.05 26.1 119.3 26.1 M59.4 3.1 Q61.65 6.0 60.6 10.3 59.85 13.5 57.3 17.25 55.0 20.7 44.05 32.85 L54.45 32.85 52.95 39.4 31.9 39.4 33.2 33.95 Q46.4 18.25 48.75 14.95 51.4 11.35 51.9 9.25 52.2 7.7 51.9 6.95 51.55 6.2 50.45 6.2 49.35 6.2 48.65 7.0 47.95 7.8 47.3 10.45 L46.4 14.1 37.8 14.1 38.15 12.7 Q38.85 9.65 39.65 7.6 40.45 5.7 42.2 3.95 43.9 2.15 46.2 1.2 48.55 0.3 51.4 0.3 57.1 0.3 59.4 3.1 M13.05 1.05 L18.65 1.05 9.7 39.4 0.15 39.4 6.0 13.5 Q6.0 12.6 5.15 12.15 L0.95 11.7 0.05 11.7 1.05 7.2 Q8.35 5.7 13.05 1.05" fill="none" stroke="#ffffff" stroke-linecap="round" stroke-linejoin="round" stroke-width="10.0"/>
      <path d="M18.6 0.75 L9.65 39.1 0.1 39.1 5.9 13.2 Q5.95 12.3 5.1 11.85 L0.9 11.4 0.0 11.4 1.0 6.9 Q8.3 5.4 13.0 0.75 L18.6 0.75" fill="url(#gradient22)" fill-rule="evenodd" stroke="none"/>
      <path d="M51.35 0.0 Q57.05 0.0 59.3 2.8 61.6 5.7 60.55 10.0 59.8 13.2 57.25 16.95 54.95 20.4 44.0 32.55 L54.4 32.55 52.9 39.1 31.85 39.1 33.15 33.65 Q46.35 17.95 48.7 14.65 51.35 11.05 51.8 8.95 52.15 7.4 51.8 6.65 51.45 5.9 50.35 5.9 49.3 5.9 48.55 6.7 47.85 7.5 47.2 10.15 L46.35 13.8 37.75 13.8 38.05 12.4 Q38.8 9.35 39.6 7.3 40.4 5.4 42.15 3.65 43.85 1.85 46.1 0.9 48.5 0.0 51.35 0.0" fill="url(#gradient23)" fill-rule="evenodd" stroke="none"/>
      <path d="M87.45 0.0 Q94.3 0.0 96.1 2.65 97.95 5.4 96.8 10.1 96.05 13.2 94.85 14.75 93.7 16.1 91.15 17.4 93.15 18.1 93.85 19.8 94.55 21.45 93.1 27.6 91.95 32.2 90.35 34.7 88.7 37.25 85.9 38.55 83.0 39.85 79.0 39.85 74.45 39.85 72.2 38.3 69.95 36.8 69.65 34.6 69.35 32.5 70.65 26.9 L71.35 23.9 80.95 23.9 79.5 30.15 Q78.95 32.6 79.1 33.3 79.15 33.95 80.25 33.95 81.3 33.95 81.85 33.15 82.45 32.2 83.3 28.65 L83.9 26.0 Q84.4 23.85 84.1 22.8 83.8 21.75 83.0 21.45 L79.3 21.1 80.6 15.5 84.9 15.2 Q85.75 15.0 86.35 14.1 L87.85 9.2 Q88.25 7.15 88.05 6.5 87.75 5.9 86.9 5.9 85.9 5.9 85.4 6.55 84.9 7.2 84.35 9.45 L83.6 12.65 73.95 12.65 74.7 9.35 Q76.0 3.9 79.0 1.95 81.9 0.0 87.45 0.0" fill="url(#gradient24)" fill-rule="evenodd" stroke="none"/>
      <path d="M130.0 32.35 L127.25 32.35 125.7 39.1 116.15 39.1 117.7 32.35 106.3 32.35 107.85 25.8 121.95 0.75 134.65 0.75 128.8 25.8 131.5 25.8 130.0 32.35 M123.05 9.45 L114.95 25.8 119.2 25.8 123.05 9.45" fill="url(#gradient25)" fill-rule="evenodd" stroke="none"/>
      <path d="M171.55 0.75 L170.1 6.9 158.15 6.9 156.6 13.45 Q159.45 10.85 162.95 10.85 166.9 10.85 168.5 13.05 170.0 15.25 168.5 21.55 L167.2 27.0 Q166.3 30.95 165.45 33.0 164.6 34.9 162.95 36.5 161.35 38.1 158.8 39.0 156.35 39.85 153.05 39.85 149.25 39.85 146.85 38.55 144.3 37.3 143.65 34.7 143.1 32.2 144.35 26.85 L144.85 24.8 154.4 24.8 153.85 27.15 Q152.95 31.0 152.85 32.45 152.75 33.95 154.35 33.95 155.05 33.95 155.55 33.55 L156.3 32.55 159.2 20.45 Q159.75 18.35 159.5 17.5 159.15 16.7 158.15 16.7 157.4 16.7 156.9 17.15 L156.1 17.95 155.5 20.15 146.0 20.15 150.95 0.75 171.55 0.75" fill="url(#gradient26)" fill-rule="evenodd" stroke="none"/>
      <path d="M199.25 0.0 Q203.25 0.0 205.55 1.3 207.85 2.6 208.4 4.95 208.95 7.25 208.15 10.9 L198.55 10.9 199.35 7.55 Q199.45 6.85 199.05 6.35 198.6 5.9 197.7 5.9 196.95 5.9 196.4 6.3 195.8 6.8 195.55 7.45 L193.4 16.45 Q194.5 14.95 196.1 14.15 197.7 13.4 199.8 13.4 202.45 13.4 204.15 14.8 205.8 16.2 205.85 18.2 205.95 20.25 205.2 23.6 L204.5 26.7 202.75 32.7 Q201.9 34.75 200.25 36.3 198.5 38.0 196.0 38.95 193.35 39.85 190.3 39.85 186.4 39.85 184.2 38.8 182.0 37.7 181.15 35.7 180.3 33.75 180.55 31.5 180.8 29.45 182.35 22.95 L183.55 17.65 Q185.1 10.9 185.9 8.5 186.6 6.25 188.6 4.15 190.5 2.05 193.25 1.05 196.0 0.0 199.25 0.0 M196.0 20.0 Q195.7 19.25 194.7 19.25 193.65 19.25 193.05 19.95 192.4 20.75 191.95 22.85 L190.3 29.85 Q189.65 32.4 189.95 33.2 190.15 33.95 191.25 33.95 191.85 33.95 192.7 33.4 193.45 32.75 194.1 30.1 L195.85 22.85 Q196.3 20.8 196.0 20.0" fill="url(#gradient27)" fill-rule="evenodd" stroke="none"/>
      <path d="M243.9 0.75 L242.0 9.15 228.9 39.1 219.35 39.1 233.45 7.65 224.05 7.65 225.65 0.75 243.9 0.75" fill="url(#gradient28)" fill-rule="evenodd" stroke="none"/>
      <path d="M273.35 0.0 Q279.65 0.0 281.45 2.65 283.25 5.3 282.1 10.15 281.4 13.25 280.3 14.65 279.15 16.0 276.4 17.4 278.3 18.25 279.05 19.9 279.8 21.6 278.3 27.95 277.2 32.7 275.85 34.85 274.35 37.05 271.45 38.45 268.55 39.85 264.15 39.85 259.85 39.85 257.7 38.5 255.5 37.15 255.0 34.95 254.4 32.7 255.65 27.5 256.4 24.1 257.6 21.45 258.65 18.95 261.85 17.4 260.3 16.5 259.85 14.65 259.4 12.8 260.1 9.9 261.25 4.95 264.55 2.45 267.9 0.0 273.35 0.0 M272.05 5.9 Q271.1 5.9 270.6 6.55 270.15 7.2 269.7 9.05 L269.0 12.0 Q268.6 13.8 268.85 14.4 269.0 15.05 269.95 15.05 270.9 15.05 271.4 14.45 271.95 13.7 272.35 11.7 L273.0 9.05 Q273.4 7.1 273.2 6.5 273.05 5.9 272.05 5.9 M266.85 22.15 Q266.25 22.85 265.7 25.1 L264.55 30.05 Q263.95 32.5 264.3 33.3 264.55 33.95 265.65 33.95 266.6 33.95 267.2 33.25 267.65 32.6 268.25 30.0 L269.4 25.1 Q269.9 22.9 269.7 22.15 269.4 21.45 268.4 21.45 267.45 21.45 266.85 22.15" fill="url(#gradient29)" fill-rule="evenodd" stroke="none"/>
      <path d="M310.05 0.0 Q313.9 0.0 316.15 1.05 318.3 2.15 319.2 4.15 320.1 6.2 319.8 8.35 L314.45 31.35 Q313.7 33.6 311.75 35.7 309.8 37.8 307.1 38.8 304.4 39.85 301.1 39.85 297.05 39.85 294.8 38.55 292.45 37.2 291.95 34.9 291.3 32.5 292.15 28.95 L301.75 28.95 301.0 32.3 Q300.9 33.05 301.35 33.5 301.7 33.95 302.65 33.95 303.4 33.95 303.9 33.55 L304.75 32.4 306.95 23.4 Q305.9 24.9 304.25 25.7 302.65 26.45 300.5 26.45 297.9 26.45 296.2 25.05 294.5 23.6 294.45 21.65 294.3 19.8 295.15 16.25 L295.85 13.2 Q296.75 9.25 297.6 7.15 298.35 5.2 300.1 3.55 301.8 1.85 304.35 0.9 307.0 0.0 310.05 0.0 M310.4 6.65 Q310.1 5.9 309.1 5.9 308.45 5.9 307.65 6.45 306.85 7.1 306.2 9.75 L304.5 17.05 Q303.95 19.45 304.45 20.05 304.9 20.6 305.65 20.6 306.65 20.6 307.3 19.9 307.95 19.05 308.4 17.05 L310.05 10.0 Q310.65 7.5 310.4 6.65" fill="url(#gradient30)" fill-rule="evenodd" stroke="none"/>
      <path d="M352.65 1.1 Q354.85 2.25 355.75 3.8 356.6 5.35 356.55 7.4 356.45 9.4 355.55 13.7 L352.5 26.55 Q351.5 30.85 350.55 32.9 349.65 34.8 347.7 36.6 345.85 38.35 343.55 39.1 L338.65 39.85 Q335.2 39.85 333.1 39.05 331.0 38.3 330.05 36.6 329.1 34.95 328.95 33.05 328.8 31.15 329.8 27.15 L332.95 13.7 Q334.15 8.4 335.65 5.8 337.2 3.2 340.25 1.6 343.35 0.0 347.25 0.0 350.35 0.0 352.65 1.1 M346.05 5.9 Q344.95 5.9 344.4 6.7 343.85 7.55 343.2 10.45 L338.85 29.25 Q338.05 32.6 338.25 33.3 338.35 33.95 339.5 33.95 340.55 33.95 341.1 33.2 L342.25 29.55 347.3 6.65 Q347.15 5.9 346.05 5.9" fill="url(#gradient31)" fill-rule="evenodd" stroke="none"/>
    </g>
    <linearGradient gradientTransform="matrix(-0.0032, -0.0243, 0.0191, 0.0, 78.65, 19.9)" gradientUnits="userSpaceOnUse" id="gradient22" spreadMethod="pad" x1="-819.2" x2="819.2">
      <stop offset="0.1843137254901961" stop-color="#ff7700"/>
      <stop offset="0.7843137254901961" stop-color="#cc2232"/>
    </linearGradient>
    <linearGradient gradientTransform="matrix(-0.0032, -0.0243, 0.0191, 0.0, 82.05, 19.9)" gradientUnits="userSpaceOnUse" id="gradient23" spreadMethod="pad" x1="-819.2" x2="819.2">
      <stop offset="0.1843137254901961" stop-color="#ff7700"/>
      <stop offset="0.7843137254901961" stop-color="#cc2232"/>
    </linearGradient>
    <linearGradient gradientTransform="matrix(-0.0032, -0.0243, 0.0191, 0.0, 83.4, 19.9)" gradientUnits="userSpaceOnUse" id="gradient24" spreadMethod="pad" x1="-819.2" x2="819.2">
      <stop offset="0.1843137254901961" stop-color="#ff7700"/>
      <stop offset="0.7843137254901961" stop-color="#cc2232"/>
    </linearGradient>
    <linearGradient gradientTransform="matrix(-0.0032, -0.0243, 0.0191, 0.0, 87.95, 19.9)" gradientUnits="userSpaceOnUse" id="gradient25" spreadMethod="pad" x1="-819.2" x2="819.2">
      <stop offset="0.1843137254901961" stop-color="#ff7700"/>
      <stop offset="0.7843137254901961" stop-color="#cc2232"/>
    </linearGradient>
    <linearGradient gradientTransform="matrix(-0.0032, -0.0243, 0.0191, 0.0, 91.95, 19.9)" gradientUnits="userSpaceOnUse" id="gradient26" spreadMethod="pad" x1="-819.2" x2="819.2">
      <stop offset="0.1843137254901961" stop-color="#ff7700"/>
      <stop offset="0.7843137254901961" stop-color="#cc2232"/>
    </linearGradient>
    <linearGradient gradientTransform="matrix(-0.0032, -0.0243, 0.0191, 0.0, 92.75, 19.9)" gradientUnits="userSpaceOnUse" id="gradient27" spreadMethod="pad" x1="-819.2" x2="819.2">
      <stop offset="0.1843137254901961" stop-color="#ff7700"/>
      <stop offset="0.7843137254901961" stop-color="#cc2232"/>
    </linearGradient>
    <linearGradient gradientTransform="matrix(-0.0032, -0.0243, 0.0191, 0.0, 93.45, 19.9)" gradientUnits="userSpaceOnUse" id="gradient28" spreadMethod="pad" x1="-819.2" x2="819.2">
      <stop offset="0.1843137254901961" stop-color="#ff7700"/>
      <stop offset="0.7843137254901961" stop-color="#cc2232"/>
    </linearGradient>
    <linearGradient gradientTransform="matrix(-0.0032, -0.0243, 0.0191, 0.0, 95.7, 19.9)" gradientUnits="userSpaceOnUse" id="gradient29" spreadMethod="pad" x1="-819.2" x2="819.2">
      <stop offset="0.1843137254901961" stop-color="#ff7700"/>
      <stop offset="0.7843137254901961" stop-color="#cc2232"/>
    </linearGradient>
    <linearGradient gradientTransform="matrix(-0.0032, -0.0243, 0.0191, 0.0, 90.65, 19.9)" gradientUnits="userSpaceOnUse" id="gradient30" spreadMethod="pad" x1="-819.2" x2="819.2">
      <stop offset="0.1843137254901961" stop-color="#ff7700"/>
      <stop offset="0.7843137254901961" stop-color="#cc2232"/>
    </linearGradient>
    <linearGradient gradientTransform="matrix(-0.0032, -0.0243, 0.0191, 0.0, 89.15, 19.9)" gradientUnits="userSpaceOnUse" id="gradient31" spreadMethod="pad" x1="-819.2" x2="819.2">
      <stop offset="0.1843137254901961" stop-color="#ff7700"/>
      <stop offset="0.7843137254901961" stop-color="#cc2232"/>
    </linearGradient>
  </defs>
</svg>
