<?xml version="1.0" encoding="UTF-8" standalone="no"?>
<svg xmlns:xlink="http://www.w3.org/1999/xlink" height="683.05px" width="1750.8px" xmlns="http://www.w3.org/2000/svg">
  <g transform="matrix(1.0, 0.0, 0.0, 1.0, 355.25, 291.5)">
    <use height="453.45" transform="matrix(1.0, 0.0, 0.0, 1.0, -304.45, -272.25)" width="606.0" xlink:href="#shape0"/>
    <use height="259.75" id="toon" transform="matrix(1.0, 0.0, 0.0, 1.0, -355.25, -82.2)" width="262.05" xlink:href="#sprite0"/>
    <use height="51.2" transform="matrix(0.8956, 0.0, 0.0, 0.8956, -342.2466, -255.9951)" width="586.35" xlink:href="#sprite1"/>
  </g>
  <defs>
    <g id="shape0" transform="matrix(1.0, 0.0, 0.0, 1.0, 3.0, -58.8)">
      <path d="M455.7 484.9 L461.15 480.3 507.2 503.2 476.4 497.05 455.7 484.9" fill="#573b66" fill-rule="evenodd" stroke="none"/>
      <path d="M63.2 475.05 L107.95 459.75 113.5 467.75 98.9 473.15 63.2 475.05" fill="#7f6887" fill-rule="evenodd" stroke="none"/>
      <path d="M442.1 353.3 L442.3 350.75 Q444.9 375.9 439.8 401.05 L438.75 406.3 Q430.75 443.1 411.5 471.1 394.1 496.45 369.4 511.3 L367.75 512.25 343.9 512.25 346.15 511.3 Q367.3 501.9 384.85 485.15 409.2 461.85 424.05 426.75 429.55 413.75 433.6 399.85 L439.85 370.8 441.05 362.1 442.1 353.3 M413.95 358.4 L414.1 355.05 Q416.1 374.0 412.7 392.85 L412.05 396.1 411.15 400.35 Q404.7 430.35 388.9 453.1 369.75 480.75 339.85 492.95 304.65 507.35 256.85 499.35 208.45 491.2 181.8 462.7 169.8 449.95 163.0 433.7 156.6 418.35 155.15 400.9 154.1 389.1 155.4 376.95 157.55 359.1 163.9 342.25 171.45 322.2 184.75 305.4 191.25 297.2 199.1 290.15 L199.8 291.6 Q176.25 317.05 166.1 346.3 162.6 356.35 160.9 366.2 L159.1 381.6 Q158.65 395.7 161.85 409.5 168.9 440.1 192.5 461.95 217.2 484.75 255.05 493.1 289.7 500.7 319.05 494.4 347.4 488.2 368.5 469.55 389.35 451.05 401.0 421.95 404.55 413.15 407.2 403.75 L411.35 384.05 412.95 371.45 Q413.65 365.05 413.95 358.4 M186.9 267.15 L187.6 268.35 Q159.65 300.15 147.4 337.85 145.0 345.15 143.35 352.45 138.45 371.9 139.1 391.85 139.75 413.1 146.6 433.35 153.3 453.1 166.3 469.45 179.75 486.5 198.0 498.05 211.9 506.8 227.55 512.25 L199.75 512.25 Q185.35 505.4 172.9 495.2 157.8 482.85 147.35 466.55 136.05 448.95 131.25 428.3 126.65 408.3 127.55 387.85 128.85 366.1 135.3 345.5 141.65 325.15 152.45 307.2 163.05 289.45 178.0 275.15 182.35 271.0 186.9 267.15" fill="#917d94" fill-rule="evenodd" stroke="none"/>
      <path d="M413.95 358.4 Q413.65 365.05 412.95 371.45 413.55 364.35 413.8 356.95 L413.95 358.4 M160.9 366.2 Q162.6 356.35 166.1 346.3 176.25 317.05 199.8 291.6 L200.3 292.7 Q176.15 318.55 165.85 348.25 162.65 357.3 160.9 366.2 M155.4 376.95 Q154.1 389.1 155.15 400.9 156.6 418.35 163.0 433.7 169.8 449.95 181.8 462.7 208.45 491.2 256.85 499.35 304.65 507.35 339.85 492.95 369.75 480.75 388.9 453.1 404.7 430.35 411.15 400.35 L412.05 396.1 410.9 402.25 Q404.4 432.25 388.6 455.1 369.45 482.65 339.55 494.9 304.35 509.25 256.55 501.25 208.15 493.1 181.5 464.65 169.5 451.85 162.7 435.65 156.3 420.35 154.8 402.85 153.75 390.1 155.4 376.95" fill="#cec5cd" fill-rule="evenodd" stroke="none"/>
      <path d="M214.6 72.4 L229.9 76.4 Q230.75 80.05 231.75 87.15 L226.4 85.45 214.6 72.4 M409.45 117.9 Q413.5 108.9 415.65 105.4 L431.45 106.3 419.75 118.25 409.45 117.9 M203.1 102.95 L191.7 112.45 178.7 110.4 191.35 97.8 203.1 102.95" fill="#9e859c" fill-rule="evenodd" stroke="none"/>
      <path d="M332.15 58.8 L327.6 60.1 325.65 58.8 332.15 58.8 M214.95 58.8 L214.6 72.4 226.4 85.45 231.75 87.15 Q232.9 95.45 234.25 108.35 236.9 134.25 239.2 170.05 L241.55 209.85 230.65 180.7 223.05 182.6 Q214.9 160.7 206.25 141.45 198.15 123.6 191.7 112.45 L203.1 102.95 192.35 70.2 180.4 58.8 214.95 58.8 M353.85 252.6 Q394.6 150.1 409.45 117.9 L419.75 118.25 431.45 106.3 445.3 58.8 603.0 58.8 603.0 512.25 450.6 512.25 439.4 498.75 455.7 484.9 476.4 497.05 507.2 503.2 527.2 413.0 468.9 404.65 Q470.2 396.95 470.5 392.8 470.7 390.1 470.5 387.2 L515.35 374.75 488.1 299.05 444.35 314.05 438.6 306.05 461.3 275.5 450.85 262.9 Q481.6 242.5 512.8 229.4 L522.75 238.25 569.45 208.65 Q532.85 191.75 508.4 156.7 487.1 126.1 477.55 85.7 L448.9 105.65 421.65 144.35 427.65 152.6 Q422.45 155.65 408.9 172.3 394.45 189.85 379.15 212.35 364.95 233.2 354.0 252.6 L353.85 252.6 M169.9 58.8 Q142.95 78.85 40.65 139.1 L73.25 160.7 90.35 156.95 Q122.35 184.8 163.55 233.1 168.4 238.75 173.3 245.65 L171.8 246.35 120.6 215.9 72.05 264.6 108.15 299.25 103.25 306.6 50.25 302.95 37.05 375.6 82.75 384.3 82.9 387.6 33.0 407.55 63.2 475.05 98.9 473.15 113.5 467.75 114.85 469.5 81.8 507.0 87.9 512.25 -3.0 512.25 -3.0 58.8 169.9 58.8" fill="url(#gradient0)" fill-rule="evenodd" stroke="none"/>
      <path d="M325.65 58.8 L327.6 60.1 332.15 58.8 445.3 58.8 431.45 106.3 415.65 105.4 Q413.5 108.9 409.45 117.9 394.6 150.1 353.85 252.6 L353.5 253.5 341.3 284.25 307.65 369.85 246.3 360.3 Q245.9 330.5 245.15 301.8 244.4 273.2 243.25 245.65 L241.55 209.85 239.2 170.05 Q236.9 134.25 234.25 108.35 232.9 95.45 231.75 87.15 230.75 80.05 229.9 76.4 L214.6 72.4 214.95 58.8 325.65 58.8 M330.3 101.2 Q332.25 124.55 340.3 134.55 347.5 143.55 358.3 140.3 368.4 137.2 378.65 124.35 389.05 111.25 395.85 92.65 365.9 98.75 330.3 101.2 M369.65 160.7 L361.5 202.75 381.6 149.2 315.15 159.8 253.6 129.15 Q252.5 142.0 256.3 229.1 L256.8 240.5 261.45 338.75 262.7 145.95 280.75 153.0 279.6 297.6 284.65 154.45 311.5 164.95 299.95 277.25 315.2 166.0 341.25 163.45 323.3 267.5 345.25 163.05 369.65 160.7 M249.85 92.65 Q250.65 103.15 256.35 109.2 263.15 116.6 275.35 114.95 289.95 112.9 310.75 98.0 L252.2 76.85 Q249.1 83.3 249.85 92.65" fill="url(#gradient1)" fill-rule="evenodd" stroke="none"/>
      <path d="M330.3 101.2 Q365.9 98.75 395.85 92.65 389.05 111.25 378.65 124.35 368.4 137.2 358.3 140.3 347.5 143.55 340.3 134.55 332.25 124.55 330.3 101.2" fill="url(#gradient2)" fill-rule="evenodd" stroke="none"/>
      <path d="M369.65 160.7 L345.25 163.05 323.3 267.5 341.25 163.45 315.2 166.0 299.95 277.25 311.5 164.95 284.65 154.45 279.6 297.6 280.75 153.0 262.7 145.95 261.45 338.75 256.8 240.5 256.3 229.1 Q252.5 142.0 253.6 129.15 L315.15 159.8 381.6 149.2 361.5 202.75 369.65 160.7" fill="url(#gradient3)" fill-rule="evenodd" stroke="none"/>
      <path d="M421.65 144.35 L435.25 138.7 438.25 149.8 427.65 152.6 421.65 144.35" fill="url(#gradient4)" fill-rule="evenodd" stroke="none"/>
      <path d="M435.25 138.7 L421.65 144.35 448.9 105.65 477.55 85.7 435.25 138.7" fill="url(#gradient5)" fill-rule="evenodd" stroke="none"/>
      <path d="M341.3 284.25 L353.5 253.5 354.0 252.6 Q364.95 233.2 379.15 212.35 394.45 189.85 408.9 172.3 422.45 155.65 427.65 152.6 L438.25 149.8 Q419.35 169.0 399.0 195.75 378.95 222.0 360.35 251.85 L359.2 253.75 Q349.65 269.15 341.3 284.25" fill="url(#gradient6)" fill-rule="evenodd" stroke="none"/>
      <path d="M307.65 369.85 L341.3 284.25 Q349.65 269.15 359.2 253.75 L360.35 251.85 Q378.95 222.0 399.0 195.75 419.35 169.0 438.25 149.8 L435.25 138.7 477.55 85.7 Q487.1 126.1 508.4 156.7 532.85 191.75 569.45 208.65 L522.75 238.25 512.8 229.4 Q481.6 242.5 450.85 262.9 389.65 303.6 330.25 373.45 L307.65 369.85 M471.9 189.35 Q460.55 171.8 456.75 150.95 449.85 162.0 448.85 174.8 448.45 179.15 450.35 183.0 456.9 196.7 471.9 189.35 M491.5 220.2 Q508.6 224.35 524.15 216.6 500.9 210.4 480.15 198.1 473.05 215.55 491.5 220.2" fill="url(#gradient7)" fill-rule="evenodd" stroke="none"/>
      <path d="M471.9 189.35 Q456.9 196.7 450.35 183.0 448.45 179.15 448.85 174.8 449.85 162.0 456.75 150.95 460.55 171.8 471.9 189.35" fill="url(#gradient8)" fill-rule="evenodd" stroke="none"/>
      <path d="M241.55 209.85 L243.25 245.65 Q235.15 215.8 224.05 185.4 L223.05 182.6 230.65 180.7 241.55 209.85 M246.3 360.3 L307.65 369.85 330.25 373.45 Q389.65 303.6 450.85 262.9 L461.3 275.5 438.6 306.05 444.35 314.05 488.1 299.05 515.35 374.75 470.5 387.2 Q470.7 390.1 470.5 392.8 470.2 396.95 468.9 404.65 L527.2 413.0 507.2 503.2 461.15 480.3 455.7 484.9 439.4 498.75 450.6 512.25 370.7 512.25 372.2 511.3 Q394.9 496.8 411.2 473.05 430.45 445.05 438.45 408.25 L439.8 401.05 Q444.9 375.9 442.3 350.75 L442.1 353.3 442.0 352.75 441.05 362.1 439.85 370.8 433.6 399.85 Q429.55 413.75 424.05 426.75 409.2 461.85 384.85 485.15 367.3 501.9 346.15 511.3 L343.9 512.25 227.55 512.25 Q211.9 506.8 198.0 498.05 179.75 486.5 166.3 469.45 153.3 453.1 146.6 433.35 139.75 413.1 139.1 391.85 138.45 371.9 143.35 352.45 145.0 346.1 147.1 339.75 159.55 301.5 188.2 269.35 193.6 279.0 199.1 290.15 191.25 297.2 184.75 305.4 171.45 322.2 163.9 342.25 157.55 359.1 155.4 376.95 153.75 390.1 154.8 402.85 156.3 420.35 162.7 435.65 169.5 451.85 181.5 464.65 208.15 493.1 256.55 501.25 304.35 509.25 339.55 494.9 369.45 482.65 388.6 455.1 404.4 432.25 410.9 402.25 L412.05 396.1 412.7 392.85 Q416.1 374.0 414.1 355.05 L413.95 358.4 413.8 356.95 Q413.55 364.35 412.95 371.45 L411.35 384.05 407.2 403.75 Q404.55 413.15 401.0 421.95 389.35 451.05 368.5 469.55 347.4 488.2 319.05 494.4 289.7 500.7 255.05 493.1 217.2 484.75 192.5 461.95 168.9 440.1 161.85 409.5 158.65 395.7 159.1 381.6 L160.9 366.2 Q162.65 357.3 165.85 348.25 176.15 318.55 200.3 292.7 213.8 320.5 227.55 357.4 L246.3 360.3 M353.5 253.5 L353.85 252.6 354.0 252.6 353.5 253.5 M173.3 245.65 Q180.05 255.2 186.9 267.15 182.35 271.0 178.0 275.15 163.05 289.45 152.45 307.2 141.65 325.15 135.3 345.5 128.85 366.1 127.55 387.85 126.65 401.5 128.2 414.85 130.6 435.65 139.4 454.65 148.35 474.0 163.55 489.1 177.85 503.25 195.65 512.25 L87.9 512.25 81.8 507.0 114.85 469.5 113.5 467.75 107.95 459.75 63.2 475.05 33.0 407.55 82.9 387.6 82.75 384.3 37.05 375.6 50.25 302.95 103.25 306.6 108.15 299.25 72.05 264.6 120.6 215.9 171.8 246.35 173.3 245.65" fill="url(#gradient9)" fill-rule="evenodd" stroke="none"/>
      <path d="M439.8 401.05 L438.45 408.25 Q430.45 445.05 411.2 473.05 394.9 496.8 372.2 511.3 L370.7 512.25 367.75 512.25 369.4 511.3 Q394.1 496.45 411.5 471.1 430.75 443.1 438.75 406.3 L439.8 401.05 M441.05 362.1 L442.0 352.75 442.1 353.3 441.05 362.1 M187.6 268.35 L188.2 269.35 Q159.55 301.5 147.1 339.75 145.0 346.1 143.35 352.45 145.0 345.15 147.4 337.85 159.65 300.15 187.6 268.35 M195.65 512.25 Q177.85 503.25 163.55 489.1 148.35 474.0 139.4 454.65 130.6 435.65 128.2 414.85 126.65 401.5 127.55 387.85 126.65 408.3 131.25 428.3 136.05 448.95 147.35 466.55 157.8 482.85 172.9 495.2 185.35 505.4 199.75 512.25 L195.65 512.25" fill="url(#gradient10)" fill-rule="evenodd" stroke="none"/>
      <path d="M491.5 220.2 Q473.05 215.55 480.15 198.1 500.9 210.4 524.15 216.6 508.6 224.35 491.5 220.2" fill="url(#gradient11)" fill-rule="evenodd" stroke="none"/>
      <path d="M249.85 92.65 Q249.1 83.3 252.2 76.85 L310.75 98.0 Q289.95 112.9 275.35 114.95 263.15 116.6 256.35 109.2 250.65 103.15 249.85 92.65" fill="url(#gradient12)" fill-rule="evenodd" stroke="none"/>
      <path d="M191.35 97.8 L177.25 58.8 180.4 58.8 192.35 70.2 203.1 102.95 191.35 97.8" fill="url(#gradient13)" fill-rule="evenodd" stroke="none"/>
      <path d="M245.15 301.8 Q245.9 330.5 246.3 360.3 L227.55 357.4 Q213.8 320.5 200.3 292.7 L199.8 291.6 199.1 290.15 Q193.6 279.0 188.2 269.35 L187.6 268.35 186.9 267.15 Q180.05 255.2 173.3 245.65 168.4 238.75 163.55 233.1 122.35 184.8 90.35 156.95 L73.25 160.7 40.65 139.1 Q142.95 78.85 169.9 58.8 L177.25 58.8 191.35 97.8 178.7 110.4 198.25 149.2 Q207.95 168.75 216.5 188.6 224.7 207.75 230.8 227.6 236.65 246.9 240.2 266.8 243.35 284.25 245.15 301.8 M166.3 138.5 Q170.4 134.65 172.25 127.6 174.05 120.6 173.05 112.35 L141.3 134.3 Q149.0 140.9 155.75 141.8 161.85 142.55 166.3 138.5 M188.35 191.4 Q212.1 231.55 228.0 271.45 225.15 261.7 222.95 255.9 220.35 249.1 215.35 238.8 L200.55 209.1 173.7 155.9 183.25 149.5 178.55 143.75 164.15 153.4 Q177.15 172.45 188.35 191.4 M126.8 157.15 Q131.35 149.4 130.4 140.55 L98.6 153.85 Q109.6 166.65 123.95 159.75 125.75 158.9 126.8 157.15 M138.6 168.3 L124.2 178.0 Q157.65 212.8 177.3 237.3 195.2 259.65 201.6 273.45 198.6 263.2 176.25 233.5 160.05 212.05 133.75 180.45 L143.25 174.1 138.6 168.3 M143.65 166.05 L166.2 197.0 Q207.9 255.15 218.6 278.35 214.15 263.45 170.9 195.8 L153.2 168.5 162.75 162.2 158.1 156.4 143.65 166.05" fill="url(#gradient14)" fill-rule="evenodd" stroke="none"/>
      <path d="M166.3 138.5 Q161.85 142.55 155.75 141.8 149.0 140.9 141.3 134.3 L173.05 112.35 Q174.05 120.6 172.25 127.6 170.4 134.65 166.3 138.5" fill="url(#gradient15)" fill-rule="evenodd" stroke="none"/>
      <path d="M243.25 245.65 Q244.4 273.2 245.15 301.8 243.35 284.25 240.2 266.8 236.65 246.9 230.8 227.6 224.7 207.75 216.5 188.6 207.95 168.75 198.25 149.2 L178.7 110.4 191.7 112.45 Q198.15 123.6 206.25 141.45 214.9 160.7 223.05 182.6 L224.05 185.4 Q235.15 215.8 243.25 245.65" fill="url(#gradient16)" fill-rule="evenodd" stroke="none"/>
      <path d="M188.35 191.4 Q177.15 172.45 164.15 153.4 L178.55 143.75 183.25 149.5 173.7 155.9 200.55 209.1 215.35 238.8 Q220.35 249.1 222.95 255.9 225.15 261.7 228.0 271.45 212.1 231.55 188.35 191.4" fill="url(#gradient17)" fill-rule="evenodd" stroke="none"/>
      <path d="M143.65 166.05 L158.1 156.4 162.75 162.2 153.2 168.5 170.9 195.8 Q214.15 263.45 218.6 278.35 207.9 255.15 166.2 197.0 L143.65 166.05" fill="url(#gradient18)" fill-rule="evenodd" stroke="none"/>
      <path d="M138.6 168.3 L143.25 174.1 133.75 180.45 Q160.05 212.05 176.25 233.5 198.6 263.2 201.6 273.45 195.2 259.65 177.3 237.3 157.65 212.8 124.2 178.0 L138.6 168.3" fill="url(#gradient19)" fill-rule="evenodd" stroke="none"/>
      <path d="M126.8 157.15 Q125.75 158.9 123.95 159.75 109.6 166.65 98.6 153.85 L130.4 140.55 Q131.35 149.4 126.8 157.15" fill="url(#gradient20)" fill-rule="evenodd" stroke="none"/>
    </g>
    <radialGradient cx="0" cy="0" gradientTransform="matrix(0.3269, 0.0, 0.0, 0.3269, 300.05, 286.05)" gradientUnits="userSpaceOnUse" id="gradient0" r="819.2" spreadMethod="pad">
      <stop offset="0.13725490196078433" stop-color="#cec5cd"/>
      <stop offset="0.5137254901960784" stop-color="#9e859c"/>
      <stop offset="0.7803921568627451" stop-color="#5b5368"/>
      <stop offset="1.0" stop-color="#28263e"/>
    </radialGradient>
    <radialGradient cx="0" cy="0" gradientTransform="matrix(0.4691, 0.0725, -0.0725, 0.4691, 239.9, 453.7)" gradientUnits="userSpaceOnUse" id="gradient1" r="819.2" spreadMethod="pad">
      <stop offset="0.13725490196078433" stop-color="#cec5cd"/>
      <stop offset="0.5137254901960784" stop-color="#9e859c"/>
      <stop offset="0.7803921568627451" stop-color="#5b5368"/>
      <stop offset="1.0" stop-color="#28263e"/>
    </radialGradient>
    <radialGradient cx="0" cy="0" gradientTransform="matrix(0.3903, 0.0603, -0.0603, 0.3903, 234.05, 424.65)" gradientUnits="userSpaceOnUse" id="gradient2" r="819.2" spreadMethod="pad">
      <stop offset="0.0784313725490196" stop-color="#cec5cd"/>
      <stop offset="0.7098039215686275" stop-color="#9e859c"/>
    </radialGradient>
    <radialGradient cx="0" cy="0" gradientTransform="matrix(0.4008, 0.062, -0.062, 0.4008, 224.3, 465.55)" gradientUnits="userSpaceOnUse" id="gradient3" r="819.2" spreadMethod="pad">
      <stop offset="0.13725490196078433" stop-color="#cec5cd"/>
      <stop offset="0.5137254901960784" stop-color="#9e859c"/>
      <stop offset="1.0" stop-color="#62506f"/>
    </radialGradient>
    <radialGradient cx="0" cy="0" gradientTransform="matrix(0.0224, 0.0035, -0.0035, 0.0224, 353.3, 215.35)" gradientUnits="userSpaceOnUse" id="gradient4" r="819.2" spreadMethod="pad">
      <stop offset="0.13725490196078433" stop-color="#cec5cd"/>
      <stop offset="1.0" stop-color="#9e859c"/>
    </radialGradient>
    <radialGradient cx="0" cy="0" gradientTransform="matrix(0.0617, 0.0095, -0.0095, 0.0617, 375.65, 210.45)" gradientUnits="userSpaceOnUse" id="gradient5" r="819.2" spreadMethod="pad">
      <stop offset="0.13725490196078433" stop-color="#cec5cd"/>
      <stop offset="1.0" stop-color="#9e859c"/>
    </radialGradient>
    <radialGradient cx="0" cy="0" gradientTransform="matrix(0.1166, 0.018, -0.018, 0.1166, 338.2, 393.85)" gradientUnits="userSpaceOnUse" id="gradient6" r="819.2" spreadMethod="pad">
      <stop offset="0.13725490196078433" stop-color="#cec5cd"/>
      <stop offset="1.0" stop-color="#9e859c"/>
    </radialGradient>
    <radialGradient cx="0" cy="0" gradientTransform="matrix(0.4757, 0.0735, -0.0735, 0.4757, 236.35, 468.3)" gradientUnits="userSpaceOnUse" id="gradient7" r="819.2" spreadMethod="pad">
      <stop offset="0.13725490196078433" stop-color="#cec5cd"/>
      <stop offset="0.5137254901960784" stop-color="#9e859c"/>
      <stop offset="0.7803921568627451" stop-color="#5b5368"/>
      <stop offset="1.0" stop-color="#28263e"/>
    </radialGradient>
    <radialGradient cx="0" cy="0" gradientTransform="matrix(0.3898, 0.0603, -0.0603, 0.3898, 231.25, 440.45)" gradientUnits="userSpaceOnUse" id="gradient8" r="819.2" spreadMethod="pad">
      <stop offset="0.0784313725490196" stop-color="#cec5cd"/>
      <stop offset="0.7098039215686275" stop-color="#9e859c"/>
    </radialGradient>
    <radialGradient cx="0" cy="0" gradientTransform="matrix(0.3756, 0.0581, -0.0581, 0.3756, 248.5, 529.05)" gradientUnits="userSpaceOnUse" id="gradient9" r="819.2" spreadMethod="pad">
      <stop offset="0.13725490196078433" stop-color="#cec5cd"/>
      <stop offset="0.5137254901960784" stop-color="#9e859c"/>
      <stop offset="0.7803921568627451" stop-color="#5b5368"/>
      <stop offset="1.0" stop-color="#28263e"/>
    </radialGradient>
    <radialGradient cx="0" cy="0" gradientTransform="matrix(0.4808, 0.0743, -0.0743, 0.4808, 238.65, 463.15)" gradientUnits="userSpaceOnUse" id="gradient10" r="819.2" spreadMethod="pad">
      <stop offset="0.4980392156862745" stop-color="#cec5cd"/>
      <stop offset="1.0" stop-color="#9e859c"/>
    </radialGradient>
    <radialGradient cx="0" cy="0" gradientTransform="matrix(0.3899, 0.0602, -0.0602, 0.3899, 230.65, 439.1)" gradientUnits="userSpaceOnUse" id="gradient11" r="819.2" spreadMethod="pad">
      <stop offset="0.0784313725490196" stop-color="#cec5cd"/>
      <stop offset="0.7098039215686275" stop-color="#9e859c"/>
    </radialGradient>
    <radialGradient cx="0" cy="0" gradientTransform="matrix(0.3529, 0.0545, -0.0545, 0.3529, 234.25, 404.5)" gradientUnits="userSpaceOnUse" id="gradient12" r="819.2" spreadMethod="pad">
      <stop offset="0.0784313725490196" stop-color="#cec5cd"/>
      <stop offset="0.7098039215686275" stop-color="#9e859c"/>
    </radialGradient>
    <radialGradient cx="0" cy="0" gradientTransform="matrix(0.0459, 0.0071, -0.0071, 0.0459, 109.8, 202.3)" gradientUnits="userSpaceOnUse" id="gradient13" r="819.2" spreadMethod="pad">
      <stop offset="0.13725490196078433" stop-color="#cec5cd"/>
      <stop offset="1.0" stop-color="#9e859c"/>
    </radialGradient>
    <radialGradient cx="0" cy="0" gradientTransform="matrix(0.487, 0.0753, -0.0753, 0.487, 247.7, 475.1)" gradientUnits="userSpaceOnUse" id="gradient14" r="819.2" spreadMethod="pad">
      <stop offset="0.13725490196078433" stop-color="#cec5cd"/>
      <stop offset="0.5137254901960784" stop-color="#9e859c"/>
      <stop offset="0.7803921568627451" stop-color="#5b5368"/>
      <stop offset="1.0" stop-color="#28263e"/>
    </radialGradient>
    <radialGradient cx="0" cy="0" gradientTransform="matrix(0.3566, 0.0599, -0.0599, 0.3566, 195.1, 378.6)" gradientUnits="userSpaceOnUse" id="gradient15" r="819.2" spreadMethod="pad">
      <stop offset="0.0784313725490196" stop-color="#cec5cd"/>
      <stop offset="0.7098039215686275" stop-color="#9e859c"/>
    </radialGradient>
    <radialGradient cx="0" cy="0" gradientTransform="matrix(0.2504, 0.0387, -0.0387, 0.2504, 103.9, 203.6)" gradientUnits="userSpaceOnUse" id="gradient16" r="819.2" spreadMethod="pad">
      <stop offset="0.13725490196078433" stop-color="#cec5cd"/>
      <stop offset="1.0" stop-color="#9e859c"/>
    </radialGradient>
    <radialGradient cx="0" cy="0" gradientTransform="matrix(0.3233, 0.05, -0.05, 0.3233, 236.15, 447.45)" gradientUnits="userSpaceOnUse" id="gradient17" r="819.2" spreadMethod="pad">
      <stop offset="0.13725490196078433" stop-color="#cec5cd"/>
      <stop offset="0.5137254901960784" stop-color="#9e859c"/>
      <stop offset="1.0" stop-color="#62506f"/>
    </radialGradient>
    <radialGradient cx="0" cy="0" gradientTransform="matrix(0.3233, 0.05, -0.05, 0.3233, 236.15, 447.45)" gradientUnits="userSpaceOnUse" id="gradient18" r="819.2" spreadMethod="pad">
      <stop offset="0.13725490196078433" stop-color="#cec5cd"/>
      <stop offset="0.5137254901960784" stop-color="#9e859c"/>
      <stop offset="1.0" stop-color="#62506f"/>
    </radialGradient>
    <radialGradient cx="0" cy="0" gradientTransform="matrix(0.3234, 0.05, -0.05, 0.3234, 236.15, 447.45)" gradientUnits="userSpaceOnUse" id="gradient19" r="819.2" spreadMethod="pad">
      <stop offset="0.13725490196078433" stop-color="#cec5cd"/>
      <stop offset="0.5137254901960784" stop-color="#9e859c"/>
      <stop offset="1.0" stop-color="#62506f"/>
    </radialGradient>
    <radialGradient cx="0" cy="0" gradientTransform="matrix(0.4157, 0.0699, -0.0699, 0.4157, 131.75, 476.45)" gradientUnits="userSpaceOnUse" id="gradient20" r="819.2" spreadMethod="pad">
      <stop offset="0.0784313725490196" stop-color="#cec5cd"/>
      <stop offset="0.7098039215686275" stop-color="#9e859c"/>
    </radialGradient>
    <g id="sprite0" transform="matrix(1.0, 0.0, 0.0, 1.0, -1.2, 65.65)">
      <use height="62.9" transform="matrix(0.8988, 0.0, 0.0, 0.8988, 158.6348, 30.15)" width="60.15" xlink:href="#shape1"/>
      <use height="225.45" transform="matrix(0.8988, 0.0, 0.0, 0.8988, 1.2247, -8.5551)" width="236.85" xlink:href="#shape2"/>
    </g>
    <g id="shape1" transform="matrix(1.0, 0.0, 0.0, 1.0, -0.15, 0.0)">
      <path d="M41.2 3.95 L41.15 4.0 41.3 4.0 44.35 3.65 45.1 3.6 49.85 3.3 50.1 7.7 50.1 10.1 49.75 10.45 47.5 10.8 45.55 11.05 44.6 11.15 36.4 11.95 33.15 17.35 Q38.35 28.65 45.4 38.9 L48.7 43.9 40.45 52.5 40.25 52.7 38.35 54.95 36.45 57.35 35.6 58.4 34.3 60.1 33.5 61.15 32.05 62.9 Q30.6 62.8 29.95 61.3 L29.3 60.4 28.2 58.8 27.65 57.95 26.25 56.0 25.6 55.0 Q21.25 48.5 15.35 43.2 L15.05 42.65 Q23.8 32.45 27.0 19.2 L27.55 17.35 24.35 12.1 15.95 11.2 14.75 11.05 12.8 10.8 11.4 10.55 Q10.85 10.45 10.8 10.0 L10.75 9.2 10.75 7.2 11.0 3.3 16.05 3.65 18.8 3.95 19.5 4.05 19.3 3.75 Q18.95 3.3 19.25 2.85 L19.5 2.5 23.6 2.4 36.5 2.4 41.35 2.85 41.2 3.95 M44.4 6.85 L42.0 9.25 42.85 9.45 Q44.45 9.3 44.6 7.7 L44.4 6.85 M41.3 8.5 L43.65 6.15 Q41.6 5.6 41.25 7.7 41.2 8.1 41.3 8.5 M41.15 9.85 Q40.25 9.15 40.1 7.7 40.25 6.15 41.3 5.45 L40.2 5.55 37.4 10.25 40.5 9.9 41.15 9.85 M43.9 5.2 Q45.4 5.8 45.6 7.7 L45.1 9.3 48.1 8.9 48.65 4.7 43.9 5.2 M41.95 38.2 L43.25 38.85 41.9 36.6 37.6 29.35 29.4 25.7 26.75 24.55 25.0 29.65 28.0 31.2 41.95 38.2 M41.95 42.6 Q41.05 43.25 41.3 44.35 L43.8 42.35 Q42.85 41.85 41.95 42.6 M44.15 45.15 L44.4 44.85 44.65 43.4 42.15 45.4 Q43.1 45.85 44.15 45.15 M39.1 48.25 L41.25 49.2 43.65 46.5 42.95 46.6 Q41.5 46.45 40.65 45.3 L40.2 43.85 40.4 42.95 26.4 36.65 22.6 35.0 19.65 39.65 20.85 40.15 22.1 39.8 23.45 40.4 25.05 42.0 39.1 48.25 M34.8 9.0 L35.5 9.6 38.0 5.3 36.5 4.05 35.25 4.1 29.2 4.25 34.8 9.0 M25.45 6.7 L22.5 4.4 22.0 4.4 Q24.5 8.6 27.15 12.45 28.0 13.7 29.3 14.6 L31.5 16.2 33.45 12.95 25.45 6.7 M20.7 6.0 L19.85 6.0 Q20.7 7.2 20.4 8.55 20.15 9.6 19.2 10.1 L23.4 10.5 20.7 6.0 M29.35 18.0 L28.25 20.0 29.85 20.75 34.35 22.7 32.2 18.0 29.35 18.0 M19.5 7.75 Q19.35 6.15 17.75 6.0 L16.95 6.25 19.3 8.6 19.5 7.75 M16.0 7.75 Q16.15 9.35 17.75 9.5 L18.6 9.3 16.25 6.95 Q16.05 7.25 16.0 7.75 M12.25 9.2 L15.8 9.7 Q14.6 8.25 15.3 6.7 L15.75 5.9 12.7 5.45 12.25 9.2 M23.25 41.2 L22.1 40.8 21.3 41.05 23.8 43.05 Q24.05 42.3 23.25 41.2 M20.35 42.55 Q20.5 44.15 22.1 44.3 L22.95 44.1 20.6 41.75 20.35 42.55 M25.05 47.75 L21.05 46.6 25.7 52.6 27.0 54.4 32.65 56.5 34.75 57.05 37.9 53.1 36.05 52.1 25.05 47.75" fill="#441c0c" fill-rule="evenodd" stroke="none"/>
      <path d="M41.3 4.0 L41.2 3.95 41.35 2.85 36.5 2.4 30.15 1.6 23.6 2.4 19.5 2.5 19.25 2.85 Q18.95 3.3 19.3 3.75 L18.8 3.95 16.05 3.65 Q20.25 1.5 25.0 0.6 L26.25 0.4 30.15 0.1 Q38.05 0.3 44.35 3.65 L41.3 4.0 M10.75 7.2 L10.75 9.2 9.9 10.0 Q1.8 18.1 1.5 30.25 1.8 42.4 9.9 50.5 17.35 57.95 28.2 58.8 L29.3 60.4 Q17.05 59.8 8.85 51.55 4.25 46.95 2.05 41.15 -2.2 29.0 3.1 17.3 5.8 11.45 10.75 7.2 M12.8 10.8 L14.75 11.05 Q8.85 15.8 6.5 23.15 3.4 33.0 8.5 42.1 13.6 51.25 23.55 53.95 L25.6 55.0 26.25 56.0 Q18.9 54.95 13.3 50.15 5.4 43.3 4.45 32.95 3.25 19.85 12.8 10.8 M34.3 60.1 L35.6 58.4 Q43.05 57.15 48.8 52.25 57.85 44.45 58.45 32.4 59.05 19.5 50.1 10.1 L50.1 7.7 51.45 8.95 Q60.0 17.45 60.3 30.25 60.0 43.05 51.45 51.55 44.35 58.7 34.3 60.1 M38.35 54.95 L40.25 52.7 Q51.55 47.35 54.05 35.2 56.15 25.1 50.65 16.55 48.6 13.3 45.55 11.05 L47.5 10.8 Q50.95 13.85 53.05 17.95 58.75 29.0 54.0 40.3 49.45 51.2 38.35 54.95" fill="#4f2713" fill-rule="evenodd" stroke="none"/>
      <path d="M41.3 4.0 L41.15 4.0 41.2 3.95 41.3 4.0 M36.5 2.4 L23.6 2.4 30.15 1.6 36.5 2.4 M19.3 3.75 L19.5 4.05 18.8 3.95 19.3 3.75 M10.75 9.2 L10.8 10.0 Q1.1 19.6 2.4 33.1 3.35 42.95 10.25 49.95 17.5 57.2 27.65 57.95 L28.2 58.8 Q17.35 57.95 9.9 50.5 1.8 42.4 1.5 30.25 1.8 18.1 9.9 10.0 L10.75 9.2 M35.6 58.4 L36.45 57.35 Q44.1 55.55 49.75 49.9 57.65 42.0 57.95 30.15 57.65 18.3 49.75 10.45 L50.1 10.1 Q59.05 19.5 58.45 32.4 57.85 44.45 48.8 52.25 43.05 57.15 35.6 58.4" fill="#a89678" fill-rule="evenodd" stroke="none"/>
      <path d="M45.1 3.6 L44.35 3.65 Q38.05 0.3 30.15 0.1 L26.25 0.4 30.75 0.0 Q38.75 0.2 45.1 3.6" fill="#724a30" fill-rule="evenodd" stroke="none"/>
      <path d="M41.3 8.5 Q41.2 8.1 41.25 7.7 41.6 5.6 43.65 6.15 L41.3 8.5 M44.4 6.85 L44.6 7.7 Q44.45 9.3 42.85 9.45 L42.0 9.25 44.4 6.85 M44.15 45.15 Q43.1 45.85 42.15 45.4 L44.65 43.4 44.4 44.85 44.15 45.15 M41.95 42.6 Q42.85 41.85 43.8 42.35 L41.3 44.35 Q41.05 43.25 41.95 42.6 M16.0 7.75 Q16.05 7.25 16.25 6.95 L18.6 9.3 17.75 9.5 Q16.15 9.35 16.0 7.75 M19.5 7.75 L19.3 8.6 16.95 6.25 17.75 6.0 Q19.35 6.15 19.5 7.75 M20.35 42.55 L20.6 41.75 22.95 44.1 22.1 44.3 Q20.5 44.15 20.35 42.55 M23.25 41.2 Q24.05 42.3 23.8 43.05 L21.3 41.05 22.1 40.8 23.25 41.2" fill="#d7cdbb" fill-rule="evenodd" stroke="none"/>
      <path d="M15.95 11.2 L24.35 12.1 27.55 17.35 27.0 19.2 Q23.8 32.45 15.05 42.65 L15.35 43.2 Q21.25 48.5 25.6 55.0 L23.55 53.95 22.3 52.95 Q17.25 51.25 13.4 47.45 6.8 40.95 6.55 30.8 6.8 20.6 13.4 13.55 14.6 12.25 15.95 11.2 M40.45 52.5 L48.7 43.9 45.4 38.9 Q38.35 28.65 33.15 17.35 L36.4 11.95 44.6 11.15 Q51.75 16.65 53.55 25.4 55.55 35.3 50.0 43.55 47.2 47.8 42.95 50.65 L40.45 52.5 M46.05 37.8 L48.6 41.5 Q50.4 39.45 51.3 36.9 52.6 33.25 52.4 29.4 51.85 18.25 43.0 11.75 L41.65 12.05 Q38.8 11.65 36.35 13.2 33.8 16.5 35.55 20.15 40.0 29.5 46.05 37.8 M14.45 42.25 Q18.5 37.2 21.35 31.55 L23.75 25.95 Q25.15 22.1 25.9 17.95 26.3 15.65 24.6 14.0 22.2 12.4 19.25 12.3 15.05 14.65 12.0 18.35 10.25 20.5 9.3 23.5 6.2 33.5 11.7 42.45 14.8 47.45 19.85 49.4 L18.65 48.0 Q17.45 46.65 15.95 45.75 13.95 44.4 14.45 42.25" fill="#a99b81" fill-rule="evenodd" stroke="none"/>
      <path d="M41.15 9.85 L40.5 9.9 37.4 10.25 40.2 5.55 41.3 5.45 Q40.25 6.15 40.1 7.7 40.25 9.15 41.15 9.85 M43.9 5.2 L48.65 4.7 48.1 8.9 45.1 9.3 45.6 7.7 Q45.4 5.8 43.9 5.2 M20.7 6.0 L23.4 10.5 19.2 10.1 Q20.15 9.6 20.4 8.55 20.7 7.2 19.85 6.0 L20.7 6.0 M12.25 9.2 L12.7 5.45 15.75 5.9 15.3 6.7 Q14.6 8.25 15.8 9.7 L12.25 9.2" fill="#b5a581" fill-rule="evenodd" stroke="none"/>
      <path d="M14.75 11.05 L15.95 11.2 Q14.6 12.25 13.4 13.55 6.8 20.6 6.55 30.8 6.8 40.95 13.4 47.45 17.25 51.25 22.3 52.95 L23.55 53.95 Q13.6 51.25 8.5 42.1 3.4 33.0 6.5 23.15 8.85 15.8 14.75 11.05 M40.25 52.7 L40.45 52.5 42.95 50.65 Q47.2 47.8 50.0 43.55 55.55 35.3 53.55 25.4 51.75 16.65 44.6 11.15 L45.55 11.05 Q48.6 13.3 50.65 16.55 56.15 25.1 54.05 35.2 51.55 47.35 40.25 52.7" fill="#887c64" fill-rule="evenodd" stroke="none"/>
      <path d="M10.8 10.0 Q10.85 10.45 11.4 10.55 L12.8 10.8 Q3.25 19.85 4.45 32.95 5.4 43.3 13.3 50.15 18.9 54.95 26.25 56.0 L27.65 57.95 Q17.5 57.2 10.25 49.95 3.35 42.95 2.4 33.1 1.1 19.6 10.8 10.0 M36.45 57.35 L38.35 54.95 Q49.45 51.2 54.0 40.3 58.75 29.0 53.05 17.95 50.95 13.85 47.5 10.8 L49.75 10.45 Q57.65 18.3 57.95 30.15 57.65 42.0 49.75 49.9 44.1 55.55 36.45 57.35" fill="#f0e6ca" fill-rule="evenodd" stroke="none"/>
      <path d="M36.35 13.2 Q38.8 11.65 41.65 12.05 L43.0 11.75 Q51.85 18.25 52.4 29.4 52.6 33.25 51.3 36.9 50.4 39.45 48.6 41.5 L46.05 37.8 Q50.35 29.45 46.7 20.6 43.8 13.75 36.35 13.2 M24.6 14.0 Q16.75 16.25 12.2 23.4 8.65 29.55 11.25 36.2 12.4 39.5 14.45 42.25 13.95 44.4 15.95 45.75 17.45 46.65 18.65 48.0 L19.85 49.4 Q14.8 47.45 11.7 42.45 6.2 33.5 9.3 23.5 10.25 20.5 12.0 18.35 15.05 14.65 19.25 12.3 22.2 12.4 24.6 14.0" fill="#c4b696" fill-rule="evenodd" stroke="none"/>
      <path d="M46.05 37.8 Q40.0 29.5 35.55 20.15 33.8 16.5 36.35 13.2 43.8 13.75 46.7 20.6 50.35 29.45 46.05 37.8 M24.6 14.0 Q26.3 15.65 25.9 17.95 25.15 22.1 23.75 25.95 L21.35 31.55 Q18.5 37.2 14.45 42.25 12.4 39.5 11.25 36.2 8.65 29.55 12.2 23.4 16.75 16.25 24.6 14.0" fill="#d8ceba" fill-rule="evenodd" stroke="none"/>
      <path d="M41.9 36.6 L43.25 38.85 41.95 38.2 41.9 36.6 M28.0 31.2 L25.0 29.65 26.75 24.55 29.4 25.7 28.0 31.2 M40.65 45.3 Q41.5 46.45 42.95 46.6 L43.65 46.5 41.25 49.2 39.1 48.25 40.65 45.3 M25.05 42.0 L23.45 40.4 22.1 39.8 20.85 40.15 19.65 39.65 22.6 35.0 26.4 36.65 25.05 42.0 M35.25 4.1 L36.5 4.05 38.0 5.3 35.5 9.6 34.8 9.0 35.25 4.1 M29.3 14.6 Q28.0 13.7 27.15 12.45 24.5 8.6 22.0 4.4 L22.5 4.4 25.45 6.7 26.55 8.3 Q28.7 11.05 29.3 14.6 M29.85 20.75 L28.25 20.0 29.35 18.0 29.85 20.75 M25.7 52.6 L21.05 46.6 25.05 47.75 25.7 52.6 M36.05 52.1 L37.9 53.1 34.75 57.05 32.65 56.5 36.05 52.1" fill="#af9f81" fill-rule="evenodd" stroke="none"/>
      <path d="M41.9 36.6 L41.95 38.2 28.0 31.2 29.4 25.7 37.6 29.35 41.9 36.6 M40.65 45.3 L39.1 48.25 25.05 42.0 26.4 36.65 40.4 42.95 40.2 43.85 40.65 45.3 M35.25 4.1 L34.8 9.0 29.2 4.25 35.25 4.1 M29.3 14.6 Q28.7 11.05 26.55 8.3 L25.45 6.7 33.45 12.95 31.5 16.2 29.3 14.6 M29.85 20.75 L29.35 18.0 32.2 18.0 34.35 22.7 29.85 20.75 M25.7 52.6 L25.05 47.75 36.05 52.1 32.65 56.5 27.0 54.4 25.7 52.6" fill="#c4b898" fill-rule="evenodd" stroke="none"/>
    </g>
    <g id="shape2" transform="matrix(1.0, 0.0, 0.0, 1.0, -0.25, -0.05)">
      <path d="M195.85 74.25 Q196.15 80.5 198.6 86.1 198.9 86.75 199.65 86.9 L200.5 86.45 Q201.3 85.2 200.95 83.75 196.4 64.1 201.85 44.75 L203.15 39.95 Q203.7 37.7 202.7 35.45 202.1 34.0 200.5 33.8 L199.25 34.65 Q201.1 35.45 201.65 37.3 202.15 39.1 201.4 40.85 197.85 49.75 196.25 59.05 194.95 57.05 192.9 55.35 194.5 48.8 196.9 43.45 198.6 39.75 197.45 37.6 196.85 36.45 195.5 35.95 L195.5 31.7 Q199.05 31.7 201.7 33.65 205.25 36.2 204.15 40.4 201.2 52.5 200.5 60.55 199.7 70.0 201.45 78.85 202.55 84.35 202.2 86.95 201.55 91.15 197.4 91.7 192.65 92.35 190.2 88.0 188.3 84.65 188.7 79.7 193.65 77.55 195.85 74.25 M171.8 35.85 L170.85 35.5 Q173.4 35.2 175.35 33.0 180.5 27.2 185.7 22.05 L186.65 22.3 184.5 23.9 182.15 26.95 183.5 28.2 Q185.85 30.95 186.0 34.55 L185.25 32.4 Q184.45 30.1 182.45 28.7 L181.35 28.0 180.55 29.05 Q184.75 37.7 179.1 45.2 178.35 46.15 177.2 45.8 175.25 45.4 174.5 43.65 173.2 40.7 173.85 37.45 L178.05 36.5 174.0 35.05 173.1 35.5 171.8 35.85 M142.9 29.75 Q144.4 23.25 150.65 22.75 L153.4 22.9 Q157.7 24.15 158.65 28.7 L157.35 27.4 156.7 26.6 Q160.15 34.35 155.9 41.5 155.15 42.75 153.55 42.2 148.3 40.3 148.45 34.65 L153.35 32.9 148.3 32.25 Q148.55 30.1 149.05 28.1 150.2 23.7 154.55 24.75 153.7 24.35 152.85 24.2 145.6 22.8 142.9 29.75 M159.8 47.5 L160.35 46.95 Q165.65 43.3 172.2 44.85 176.05 45.65 178.0 48.2 L178.45 48.8 179.05 49.9 Q180.15 54.5 175.25 55.55 171.2 56.45 166.9 55.75 164.25 55.55 161.7 54.6 157.1 52.85 159.05 48.4 L159.8 47.5 M168.15 47.55 Q168.0 49.0 171.0 49.55 174.65 50.2 175.45 48.85 175.75 48.35 175.4 47.65 176.65 48.25 177.35 49.0 L176.2 47.55 173.45 45.85 Q168.95 44.05 162.9 46.15 L169.15 46.35 Q168.25 46.85 168.15 47.55 M176.95 53.2 Q168.9 55.6 160.8 52.9 165.0 55.45 169.75 55.5 174.0 55.8 176.95 53.2 M128.65 24.6 L124.25 24.9 Q120.8 26.35 120.5 31.3 120.4 32.45 120.6 40.65 120.75 48.9 120.4 54.5 119.2 73.1 111.85 78.35 107.65 81.35 104.2 81.45 101.05 81.55 99.5 79.4 98.0 77.25 98.75 74.05 99.6 70.55 102.85 67.3 108.7 61.35 111.45 48.45 112.95 41.65 113.9 28.8 114.45 21.45 118.35 19.6 122.05 17.8 130.0 20.5 L130.85 20.8 Q134.05 22.4 130.9 24.4 L129.6 24.8 128.65 24.6 M146.95 16.4 Q147.65 14.6 149.55 13.65 152.35 12.35 153.4 15.4 154.65 19.2 157.25 22.4 159.55 25.2 162.55 26.8 155.35 24.2 153.15 16.45 152.6 14.5 150.65 14.1 148.4 14.7 146.95 16.4 M117.45 36.15 Q117.7 51.35 113.6 65.65 L112.4 69.1 Q110.85 72.8 107.3 74.25 104.45 75.3 102.0 77.15 L101.85 77.95 Q103.9 80.4 106.75 78.95 115.05 74.9 117.1 65.95 120.05 53.25 118.5 40.45 L117.45 36.15" fill="#01000f" fill-rule="evenodd" stroke="none"/>
      <path d="M196.25 59.05 Q197.85 49.75 201.4 40.85 202.15 39.1 201.65 37.3 201.1 35.45 199.25 34.65 L200.5 33.8 Q202.1 34.0 202.7 35.45 203.7 37.7 203.15 39.95 L201.85 44.75 Q196.4 64.1 200.95 83.75 201.3 85.2 200.5 86.45 L199.65 86.9 Q198.9 86.75 198.6 86.1 196.15 80.5 195.85 74.25 L196.45 73.0 Q200.25 65.85 196.25 59.05 M168.15 47.55 Q168.25 46.85 169.15 46.35 L162.9 46.15 Q168.95 44.05 173.45 45.85 L176.2 47.55 177.35 49.0 Q176.65 48.25 175.4 47.65 175.75 48.35 175.45 48.85 174.65 50.2 171.0 49.55 168.0 49.0 168.15 47.55 M168.95 47.35 Q168.8 48.45 171.25 48.85 174.2 49.35 174.8 48.35 175.1 47.85 174.6 47.2 174.0 46.4 172.6 46.15 L169.8 46.35 Q169.0 46.75 168.95 47.35 M176.95 53.2 Q174.0 55.8 169.75 55.5 165.0 55.45 160.8 52.9 168.9 55.6 176.95 53.2 M117.45 36.15 L118.5 40.45 Q120.05 53.25 117.1 65.95 115.05 74.9 106.75 78.95 103.9 80.4 101.85 77.95 L102.0 77.15 Q104.45 75.3 107.3 74.25 110.85 72.8 112.4 69.1 L113.6 65.65 Q117.7 51.35 117.45 36.15" fill="#06082e" fill-rule="evenodd" stroke="none"/>
      <path d="M142.85 85.5 L147.8 85.35 146.65 88.6 Q144.15 87.7 142.85 85.5 M40.1 196.8 L40.15 196.5 Q45.7 188.45 54.85 184.55 52.05 186.5 48.75 189.15 42.05 194.5 40.1 196.8 M38.55 219.2 Q37.05 220.45 34.9 220.8 32.6 221.2 30.5 220.3 33.7 214.35 30.0 209.1 33.45 209.5 36.15 211.65 39.85 214.55 38.55 219.2 M235.85 216.1 L236.05 212.65 Q236.45 214.45 235.85 216.1" fill="#3a8bbe" fill-rule="evenodd" stroke="none"/>
      <path d="M195.5 31.7 L195.5 35.95 Q195.2 44.25 192.35 54.7 L192.3 54.85 191.5 54.25 Q201.9 15.95 177.7 7.95 176.0 5.35 172.55 3.5 169.1 1.65 165.05 1.1 157.55 0.15 152.2 3.75 L151.95 3.9 151.35 4.3 148.4 7.05 Q136.4 9.9 130.85 20.8 L130.0 20.5 Q135.65 9.3 147.7 5.55 149.05 5.15 150.3 4.2 157.55 -1.25 166.75 0.45 173.95 1.8 178.25 7.15 185.9 9.6 190.55 16.25 195.35 23.2 195.5 31.7 M201.1 118.95 Q191.05 128.9 177.5 133.3 170.85 135.4 165.45 131.55 161.1 128.45 158.35 124.05 L158.45 121.9 Q164.05 130.95 174.75 131.95 179.3 131.4 183.65 129.35 192.2 125.35 199.3 118.85 201.6 116.75 201.7 113.65 201.35 112.2 200.1 111.15 198.55 109.9 196.3 109.95 193.75 110.05 191.05 111.8 184.0 117.45 177.85 120.15 172.5 122.5 170.9 121.6 169.15 120.6 163.8 113.85 L163.6 113.55 164.35 112.5 Q169.55 119.4 171.35 120.45 172.85 121.35 177.15 119.4 181.5 117.4 187.3 113.0 L188.25 112.3 189.15 111.55 Q191.5 110.05 193.75 109.6 L194.9 109.4 Q200.9 108.55 203.0 114.25 203.3 116.15 202.15 117.95 L202.05 118.1 201.1 118.95 M101.95 119.9 L82.1 115.15 Q80.0 114.65 78.75 112.7 75.9 108.15 79.1 103.55 80.75 101.15 83.35 99.95 94.45 94.45 106.2 90.75 L110.45 89.25 110.9 90.55 110.75 90.3 109.45 90.75 Q96.7 94.85 84.6 100.45 79.8 102.65 78.55 107.8 78.25 109.95 79.55 111.9 80.15 112.75 81.05 113.05 93.05 117.25 105.6 119.7 L106.25 120.85 103.55 120.25 102.8 120.1 101.95 119.9 M127.4 52.35 Q126.45 39.8 128.2 27.35 L128.65 24.6 129.6 24.8 Q127.5 37.25 128.2 49.85 L128.3 52.15 127.4 52.35 M141.65 86.1 L141.75 85.4 142.85 85.5 Q144.15 87.7 146.65 88.6 L147.8 85.35 149.15 85.15 Q148.5 86.95 148.2 88.1 L147.95 89.05 147.9 89.2 Q147.5 91.4 141.65 86.1 M100.35 106.05 L114.4 100.6 114.5 101.75 111.3 103.0 102.25 106.4 108.05 107.05 107.4 107.8 92.7 105.9 Q90.0 106.05 88.95 105.35 L100.35 106.05" fill="#1b2e54" fill-rule="evenodd" stroke="none"/>
      <path d="M185.25 32.4 Q185.9 34.4 185.95 36.95 186.05 44.8 183.7 50.35 L178.45 48.8 178.0 48.2 Q176.05 45.65 172.2 44.85 L172.65 37.5 173.1 35.5 174.0 35.05 178.05 36.5 173.85 37.45 Q173.2 40.7 174.5 43.65 175.25 45.4 177.2 45.8 178.35 46.15 179.1 45.2 184.75 37.7 180.55 29.05 L181.35 28.0 182.45 28.7 Q184.45 30.1 185.25 32.4 M144.95 48.85 Q141.1 40.25 142.7 30.8 L142.9 29.75 Q145.6 22.8 152.85 24.2 153.7 24.35 154.55 24.75 150.2 23.7 149.05 28.1 148.55 30.1 148.3 32.25 L153.35 32.9 148.45 34.65 Q148.3 40.3 153.55 42.2 155.15 42.75 155.9 41.5 160.15 34.35 156.7 26.6 L157.35 27.4 Q160.85 36.95 157.55 46.7 L157.2 47.55 Q150.45 47.8 144.95 48.85 M176.15 84.0 Q179.25 82.85 181.45 85.3 184.45 88.65 183.85 93.05 L179.85 94.0 Q188.35 92.85 196.5 95.35 199.9 96.25 202.4 99.15 L202.5 100.55 Q207.4 95.75 214.45 96.65 L222.6 97.8 226.6 98.45 Q224.4 96.9 221.7 96.55 220.3 91.65 225.5 90.25 226.75 89.8 228.2 89.9 230.65 94.9 231.25 100.7 229.3 103.6 223.85 101.75 L220.85 104.55 Q218.95 106.3 217.3 107.1 212.7 109.45 207.6 106.05 205.35 104.65 202.5 103.95 197.8 102.25 193.15 103.65 L192.6 103.85 190.6 103.35 Q188.6 102.5 187.95 101.15 L179.2 98.1 Q175.0 96.1 175.2 93.4 L175.0 88.0 Q174.9 85.25 176.15 84.0 M231.25 100.7 Q231.3 102.45 229.65 103.75 L229.05 104.2 229.2 104.05 Q231.2 102.8 231.25 100.7 M207.65 113.9 Q207.0 114.9 204.9 114.95 203.8 115.0 203.0 114.25 200.9 108.55 194.9 109.4 L193.75 109.6 Q191.0 109.75 190.1 107.0 L189.9 106.3 Q191.25 104.9 193.4 104.2 L201.0 104.4 Q204.9 105.55 206.75 108.0 208.75 110.65 207.65 113.9 M149.0 79.85 L147.7 80.25 Q139.6 81.65 133.4 76.2 L137.1 70.5 132.75 75.6 130.4 72.5 Q132.15 71.1 135.9 70.2 137.3 69.85 144.75 74.1 149.35 76.7 149.0 79.85 M138.35 79.2 L141.9 73.7 Q140.85 74.2 140.2 74.95 138.6 76.75 137.5 78.85 L138.35 79.2 M116.5 122.35 Q109.65 118.1 110.95 110.4 111.25 108.7 112.5 107.4 116.25 103.45 121.75 101.65 L132.05 98.55 127.25 98.8 Q135.25 94.9 143.85 93.5 149.6 92.7 152.95 97.5 157.3 103.8 157.6 111.3 157.1 113.1 156.1 113.7 154.95 114.35 153.7 112.85 L153.1 111.1 Q151.55 106.75 149.95 105.55 155.0 115.6 152.45 121.8 150.35 123.8 148.1 124.45 145.2 125.3 143.9 123.0 143.85 119.6 141.75 116.8 L140.55 115.25 Q143.35 119.7 142.6 124.85 139.3 128.3 134.3 127.7 132.95 127.35 132.4 126.15 128.45 122.25 123.85 119.6 L122.15 119.65 Q118.9 122.05 114.95 121.2 L116.5 122.35 M126.35 125.3 Q127.5 125.95 128.95 126.3 L132.4 126.15 Q129.8 127.35 126.35 125.3 M106.85 120.2 Q104.55 116.5 106.25 111.9 108.3 106.35 114.05 104.8 108.7 108.3 109.7 114.6 110.2 118.0 112.6 120.55 111.05 121.35 110.2 121.3 108.45 121.2 106.25 118.95 L106.85 120.2" fill="#ffffff" fill-rule="evenodd" stroke="none"/>
      <path d="M168.95 47.35 Q169.0 46.75 169.8 46.35 L172.6 46.15 Q174.0 46.4 174.6 47.2 175.1 47.85 174.8 48.35 174.2 49.35 171.25 48.85 168.8 48.45 168.95 47.35" fill="#30477e" fill-rule="evenodd" stroke="none"/>
      <path d="M184.5 23.9 L183.5 28.2 182.15 26.95 184.5 23.9 M172.65 37.5 Q172.1 36.9 171.8 35.85 L173.1 35.5 172.65 37.5 M1.05 217.9 Q1.45 220.55 7.5 220.8 13.05 221.0 17.35 219.3 L16.2 220.4 15.4 220.75 Q9.45 222.2 2.7 222.25 L2.0 221.8 Q0.25 220.2 1.05 217.9 M18.85 219.45 Q19.0 221.7 22.25 222.2 25.1 222.7 27.8 221.7 L26.35 222.85 14.25 222.6 15.7 222.2 16.3 221.95 Q18.0 221.1 18.85 219.45 M30.5 220.3 Q32.6 221.2 34.9 220.8 37.05 220.45 38.55 219.2 L37.45 221.1 35.4 222.55 28.85 222.9 30.5 220.3" fill="#205aa6" fill-rule="evenodd" stroke="none"/>
      <path d="M196.25 59.05 Q200.25 65.85 196.45 73.0 L195.85 74.25 Q193.65 77.55 188.7 79.7 184.35 81.6 177.85 82.65 L158.8 83.65 176.25 81.95 Q181.15 81.7 185.7 80.1 191.3 78.15 194.95 73.7 196.85 71.05 197.25 67.85 197.85 63.3 195.05 59.7 189.05 51.9 179.05 49.9 L178.45 48.8 183.7 50.35 191.5 54.25 192.3 54.85 192.9 55.35 Q194.95 57.05 196.25 59.05 M131.9 52.0 L133.9 52.25 Q138.6 50.0 144.95 48.85 150.45 47.8 157.2 47.55 L159.8 47.5 159.05 48.4 Q147.45 48.35 136.6 52.0 L132.55 53.0 Q128.3 52.3 124.5 54.8 122.05 56.35 121.2 59.25 119.95 63.55 121.55 67.55 124.1 73.6 129.9 76.45 L130.9 78.45 129.7 78.2 129.15 77.1 Q120.6 72.6 119.9 63.0 119.4 56.4 125.25 53.3 126.25 52.7 127.4 52.35 L128.3 52.15 131.9 52.0 M170.15 76.3 Q177.95 75.7 185.6 77.35 186.25 77.55 185.8 77.9 167.75 76.2 150.15 80.45 L146.15 81.4 Q141.05 81.8 136.4 79.45 130.45 76.4 129.1 70.1 132.35 67.1 136.8 68.15 141.2 69.15 144.75 71.9 152.6 77.85 162.3 77.0 L170.15 76.3 M141.75 85.4 L139.55 85.0 137.4 84.35 137.0 83.25 Q143.25 85.45 149.8 85.0 L149.15 85.15 147.8 85.35 142.85 85.5 141.75 85.4 M149.0 79.85 L155.4 77.85 Q147.4 75.65 140.85 70.55 139.9 69.8 138.7 69.45 133.5 67.4 129.7 70.95 L130.4 72.5 132.75 75.6 133.4 76.2 Q139.6 81.65 147.7 80.25 L149.0 79.85" fill="#8c3000" fill-rule="evenodd" stroke="none"/>
      <path d="M193.65 59.6 Q193.95 58.9 193.25 58.6 192.55 58.3 192.25 59.05 192.0 59.7 192.65 60.0 193.4 60.35 193.65 59.6 M188.65 58.4 Q187.9 58.15 187.65 58.85 187.35 59.55 188.05 59.8 188.75 60.15 189.05 59.4 189.4 58.7 188.65 58.4 M193.6 64.2 Q193.9 63.45 193.15 63.15 192.4 62.85 192.1 63.55 191.8 64.35 192.55 64.65 193.3 64.95 193.6 64.2 M179.05 49.9 Q189.05 51.9 195.05 59.7 197.85 63.3 197.25 67.85 196.85 71.05 194.95 73.7 192.3 76.7 187.75 76.3 L179.55 74.8 158.6 76.2 Q154.8 76.2 147.8 72.0 L142.8 68.95 Q140.25 67.45 139.1 67.15 L130.4 67.4 Q131.3 63.55 129.0 66.05 127.3 67.85 124.8 67.8 122.05 67.7 120.9 65.2 L121.55 67.55 Q119.95 63.55 121.2 59.25 122.05 56.35 124.5 54.8 128.3 52.3 132.55 53.0 L136.6 52.0 Q147.45 48.35 159.05 48.4 157.1 52.85 161.7 54.6 164.25 55.55 166.9 55.75 171.2 56.45 175.25 55.55 180.15 54.5 179.05 49.9 M179.8 60.85 Q179.5 61.7 180.25 61.95 181.05 62.3 181.4 61.5 181.7 60.7 180.9 60.4 180.1 60.1 179.8 60.85 M181.0 55.05 Q181.75 55.35 182.0 54.65 182.3 53.95 181.6 53.65 180.85 53.35 180.6 54.05 180.3 54.8 181.0 55.05 M139.2 58.65 Q138.35 58.8 138.5 59.55 138.55 60.35 139.35 60.3 140.15 60.25 140.1 59.4 140.0 58.6 139.2 58.65 M138.75 54.75 Q138.65 54.0 137.9 54.05 137.2 54.1 137.25 54.9 137.3 55.65 138.1 55.6 138.8 55.55 138.75 54.75 M145.4 55.55 Q144.7 55.6 144.75 56.35 144.8 57.15 145.6 57.05 146.3 57.0 146.25 56.2 146.2 55.45 145.4 55.55 M152.4 61.4 Q153.25 61.35 153.15 60.45 153.05 59.6 152.25 59.65 151.4 59.75 151.45 60.6 151.5 61.45 152.4 61.4 M152.9 53.85 Q152.95 54.65 153.7 54.55 154.5 54.5 154.4 53.7 154.35 52.9 153.6 53.05 152.75 53.1 152.9 53.85" fill="#fee36a" fill-rule="evenodd" stroke="none"/>
      <path d="M193.65 59.6 Q193.4 60.35 192.65 60.0 192.0 59.7 192.25 59.05 192.55 58.3 193.25 58.6 193.95 58.9 193.65 59.6 M188.65 58.4 Q189.4 58.7 189.05 59.4 188.75 60.15 188.05 59.8 187.35 59.55 187.65 58.85 187.9 58.15 188.65 58.4 M193.6 64.2 Q193.3 64.95 192.55 64.65 191.8 64.35 192.1 63.55 192.4 62.85 193.15 63.15 193.9 63.45 193.6 64.2 M181.0 55.05 Q180.3 54.8 180.6 54.05 180.85 53.35 181.6 53.65 182.3 53.95 182.0 54.65 181.75 55.35 181.0 55.05 M179.8 60.85 Q180.1 60.1 180.9 60.4 181.7 60.7 181.4 61.5 181.05 62.3 180.25 61.95 179.5 61.7 179.8 60.85 M152.9 53.85 Q152.75 53.1 153.6 53.05 154.35 52.9 154.4 53.7 154.5 54.5 153.7 54.55 152.95 54.65 152.9 53.85 M152.4 61.4 Q151.5 61.45 151.45 60.6 151.4 59.75 152.25 59.65 153.05 59.6 153.15 60.45 153.25 61.35 152.4 61.4 M145.4 55.55 Q146.2 55.45 146.25 56.2 146.3 57.0 145.6 57.05 144.8 57.15 144.75 56.35 144.7 55.6 145.4 55.55 M138.75 54.75 Q138.8 55.55 138.1 55.6 137.3 55.65 137.25 54.9 137.2 54.1 137.9 54.05 138.65 54.0 138.75 54.75 M139.2 58.65 Q140.0 58.6 140.1 59.4 140.15 60.25 139.35 60.3 138.55 60.35 138.5 59.55 138.35 58.8 139.2 58.65" fill="#d56d19" fill-rule="evenodd" stroke="none"/>
      <path d="M121.55 67.55 L120.9 65.2 Q122.05 67.7 124.8 67.8 127.3 67.85 129.0 66.05 131.3 63.55 130.4 67.4 L139.1 67.15 Q140.25 67.45 142.8 68.95 L147.8 72.0 Q154.8 76.2 158.6 76.2 L179.55 74.8 187.75 76.3 Q192.3 76.7 194.95 73.7 191.3 78.15 185.7 80.1 181.15 81.7 176.25 81.95 L158.8 83.65 149.8 85.0 Q143.25 85.45 137.0 83.25 L136.7 82.7 Q134.75 79.4 130.9 78.45 L129.9 76.45 Q124.1 73.6 121.55 67.55 M170.15 76.3 L162.3 77.0 Q152.6 77.85 144.75 71.9 141.2 69.15 136.8 68.15 132.35 67.1 129.1 70.1 130.45 76.4 136.4 79.45 141.05 81.8 146.15 81.4 L150.15 80.45 Q167.75 76.2 185.8 77.9 186.25 77.55 185.6 77.35 177.95 75.7 170.15 76.3" fill="#e79829" fill-rule="evenodd" stroke="none"/>
      <path d="M187.3 113.0 Q186.25 110.6 187.35 108.55 L187.6 108.1 185.5 103.8 Q178.45 102.2 173.6 97.15 172.2 95.7 172.5 93.7 173.15 89.6 174.15 85.6 174.65 83.65 176.7 83.3 181.25 82.8 183.6 86.5 185.55 89.6 184.75 92.9 190.95 92.7 196.9 94.6 200.75 95.95 203.4 98.45 205.5 96.2 208.95 95.9 L220.7 96.55 Q220.75 90.3 226.75 89.05 228.65 88.75 229.4 90.5 L230.45 93.55 Q231.9 98.2 231.75 102.9 L231.3 103.95 Q227.75 107.4 222.95 105.75 217.15 113.1 208.3 114.75 L207.8 115.45 Q205.45 119.1 201.1 118.95 L202.05 118.1 Q204.35 118.1 206.0 116.9 207.65 115.65 207.65 113.9 208.75 110.65 206.75 108.0 204.9 105.55 201.0 104.4 L193.4 104.2 Q191.25 104.9 189.9 106.3 187.7 108.45 188.1 111.45 L188.25 112.3 187.3 113.0 M231.25 100.7 Q230.65 94.9 228.2 89.9 226.75 89.8 225.5 90.25 220.3 91.65 221.7 96.55 224.4 96.9 226.6 98.45 L222.6 97.8 214.45 96.65 Q207.4 95.75 202.5 100.55 L202.4 99.15 Q199.9 96.25 196.5 95.35 188.35 92.85 179.85 94.0 L183.85 93.05 Q184.45 88.65 181.45 85.3 179.25 82.85 176.15 84.0 175.2 84.25 174.85 85.1 173.25 89.0 173.7 93.1 173.85 94.75 174.75 96.0 179.1 101.85 186.75 103.0 L188.25 107.0 192.6 103.85 193.15 103.65 Q197.8 102.25 202.5 103.95 208.4 106.0 208.8 112.2 L208.8 113.6 Q213.6 113.3 217.05 109.95 L222.5 104.85 229.05 104.2 229.65 103.75 Q231.3 102.45 231.25 100.7 M158.55 111.9 L157.7 115.5 Q156.9 117.35 154.95 118.2 L154.15 118.55 Q153.95 122.05 151.75 124.85 148.2 129.15 142.65 128.9 L142.1 128.75 Q138.7 131.5 134.05 131.6 128.8 131.7 125.3 127.75 L123.9 125.35 120.55 124.9 118.95 125.8 Q114.8 127.15 110.75 125.05 L108.65 123.65 108.6 123.6 106.25 120.85 105.6 119.7 104.75 117.3 Q104.05 112.95 106.4 109.2 L107.4 107.8 108.05 107.05 Q109.9 105.2 112.5 104.3 L115.4 103.6 119.2 101.85 122.8 100.5 124.05 99.75 124.2 99.65 124.7 99.35 129.6 96.8 Q136.55 93.55 144.1 92.55 149.45 91.9 152.7 95.85 154.9 98.5 156.25 101.45 L158.25 107.5 158.55 111.9 M157.6 111.3 Q157.3 103.8 152.95 97.5 149.6 92.7 143.85 93.5 135.25 94.9 127.25 98.8 L132.05 98.55 121.75 101.65 Q116.25 103.45 112.5 107.4 111.25 108.7 110.95 110.4 109.65 118.1 116.5 122.35 119.4 124.3 122.95 124.35 L125.2 124.3 124.1 122.4 Q127.65 125.85 132.4 126.15 L128.95 126.3 Q127.5 125.95 126.35 125.3 L124.8 125.4 Q126.95 129.15 131.2 130.1 138.85 131.7 142.6 124.85 143.35 119.7 140.55 115.25 L141.75 116.8 Q143.85 119.6 143.9 123.0 143.9 125.65 142.85 128.0 L144.1 128.1 Q150.25 127.2 152.45 121.8 155.0 115.6 149.95 105.55 151.55 106.75 153.1 111.1 L153.7 112.85 154.6 117.4 Q155.9 116.6 156.75 115.0 157.65 113.25 157.6 111.3 M106.85 120.2 L107.1 120.6 Q109.35 123.75 113.45 124.5 L119.35 124.7 Q115.6 123.15 112.6 120.55 110.2 118.0 109.7 114.6 108.7 108.3 114.05 104.8 108.3 106.35 106.25 111.9 104.55 116.5 106.85 120.2" fill="#1d3f60" fill-rule="evenodd" stroke="none"/>
      <path d="M176.15 84.0 Q174.9 85.25 175.0 88.0 L175.2 93.4 Q175.0 96.1 179.2 98.1 L187.95 101.15 Q188.6 102.5 190.6 103.35 L192.6 103.85 188.25 107.0 186.75 103.0 Q179.1 101.85 174.75 96.0 173.85 94.75 173.7 93.1 173.25 89.0 174.85 85.1 175.2 84.25 176.15 84.0 M202.5 103.95 Q205.35 104.65 207.6 106.05 212.7 109.45 217.3 107.1 218.95 106.3 220.85 104.55 L223.85 101.75 Q229.3 103.6 231.25 100.7 231.2 102.8 229.2 104.05 L229.05 104.2 222.5 104.85 217.05 109.95 Q213.6 113.3 208.8 113.6 L208.8 112.2 Q208.4 106.0 202.5 103.95 M203.0 114.25 Q203.8 115.0 204.9 114.95 207.0 114.9 207.65 113.9 207.65 115.65 206.0 116.9 204.35 118.1 202.05 118.1 L202.15 117.95 Q203.3 116.15 203.0 114.25 M189.9 106.3 L190.1 107.0 Q191.0 109.75 193.75 109.6 191.5 110.05 189.15 111.55 L188.25 112.3 188.1 111.45 Q187.7 108.45 189.9 106.3 M157.6 111.3 Q157.65 113.25 156.75 115.0 155.9 116.6 154.6 117.4 L153.7 112.85 Q154.95 114.35 156.1 113.7 157.1 113.1 157.6 111.3 M152.45 121.8 Q150.25 127.2 144.1 128.1 L142.85 128.0 Q143.9 125.65 143.9 123.0 145.2 125.3 148.1 124.45 150.35 123.8 152.45 121.8 M142.6 124.85 Q138.85 131.7 131.2 130.1 126.95 129.15 124.8 125.4 L126.35 125.3 Q129.8 127.35 132.4 126.15 127.65 125.85 124.1 122.4 L125.2 124.3 122.95 124.35 Q119.4 124.3 116.5 122.35 L114.95 121.2 Q118.9 122.05 122.15 119.65 L123.85 119.6 Q128.45 122.25 132.4 126.15 132.95 127.35 134.3 127.7 139.3 128.3 142.6 124.85 M112.6 120.55 Q115.6 123.15 119.35 124.7 L113.45 124.5 Q109.35 123.75 107.1 120.6 L106.85 120.2 106.25 118.95 Q108.45 121.2 110.2 121.3 111.05 121.35 112.6 120.55" fill="#c2d6d4" fill-rule="evenodd" stroke="none"/>
      <path d="M196.9 94.6 L208.95 95.9 Q205.5 96.2 203.4 98.45 200.75 95.95 196.9 94.6" fill="#7a92a5" fill-rule="evenodd" stroke="none"/>
      <path d="M162.5 108.35 Q161.6 110.4 159.6 112.9 L158.6 113.95 158.55 111.9 158.25 107.5 158.05 105.85 159.2 103.95 162.5 108.35 M157.25 125.45 L156.75 132.25 Q148.0 132.3 133.85 136.6 125.95 139.0 119.15 136.95 111.35 134.55 106.55 126.5 L108.65 123.65 110.75 125.05 Q114.8 127.15 118.95 125.8 121.9 127.3 125.3 127.75 128.8 131.7 134.05 131.6 138.7 131.5 142.1 128.75 L142.65 128.9 Q148.2 129.15 151.75 124.85 155.1 124.8 157.25 125.45 M156.5 135.25 L156.2 139.3 156.8 141.1 Q143.0 147.25 128.15 150.55 118.6 152.7 109.45 149.4 103.95 145.1 101.6 138.6 99.65 133.2 104.3 129.35 107.7 137.1 115.5 140.35 122.15 143.15 129.15 141.4 142.8 137.85 156.5 135.25 M111.65 84.55 L115.6 82.95 Q123.2 88.65 122.9 98.4 L122.8 100.5 119.2 101.85 Q119.8 92.05 112.6 85.35 L111.65 84.55 M117.55 82.2 L121.6 80.6 Q127.85 85.85 128.05 94.15 L128.05 96.25 124.7 99.35 124.2 99.65 124.2 99.6 Q125.3 90.55 118.95 83.6 L117.55 82.2 M157.15 101.4 L156.95 100.7 157.25 101.2 157.15 101.4" fill="#f01f00" fill-rule="evenodd" stroke="none"/>
      <path d="M158.35 124.05 L157.75 136.05 Q157.65 140.25 159.4 144.3 L159.45 145.15 158.6 145.2 Q151.3 148.05 144.85 152.25 L144.55 152.45 Q140.3 154.7 135.95 156.4 125.4 160.85 114.05 160.6 106.3 160.4 100.4 155.6 93.5 149.7 91.9 137.2 91.65 135.05 91.55 132.75 L91.5 131.55 Q91.6 125.15 97.7 123.25 L98.85 123.15 101.95 119.9 102.8 120.1 101.85 121.3 97.85 126.15 96.6 127.55 95.3 128.6 97.8 124.65 Q92.7 125.15 92.6 130.7 92.4 139.0 95.25 146.45 98.45 154.9 106.85 158.05 112.5 160.25 118.6 159.7 132.4 158.2 144.4 151.45 L153.9 146.15 Q156.15 145.0 158.5 144.3 L156.2 139.3 156.5 135.25 156.75 132.25 157.25 125.45 157.7 115.5 158.55 111.9 158.6 113.95 158.6 116.7 Q162.1 114.55 163.85 110.8 L162.5 108.35 159.2 103.95 157.25 101.2 156.95 100.7 157.15 101.4 158.05 105.85 158.25 107.5 156.25 101.45 155.75 99.8 Q153.4 92.75 147.95 89.05 L148.2 88.1 Q150.85 89.8 152.65 92.3 L162.35 106.05 163.55 107.45 Q166.15 109.75 164.35 112.5 L163.6 113.55 158.6 118.25 158.45 121.9 158.35 124.05 M106.2 90.75 Q105.4 87.15 108.4 85.1 L110.7 83.65 Q119.65 78.4 129.7 78.2 L130.9 78.45 Q134.75 79.4 136.7 82.7 L137.0 83.25 137.4 84.35 137.5 84.8 139.55 85.0 141.75 85.4 141.65 86.1 137.55 86.05 136.95 87.6 Q136.25 85.15 134.85 82.6 134.25 81.5 133.05 80.9 127.45 78.4 121.6 80.6 L117.55 82.2 115.6 82.95 111.65 84.55 Q108.05 85.0 107.45 88.25 L107.4 89.1 108.9 87.05 Q116.35 93.65 115.4 103.6 L112.5 104.3 111.3 103.0 114.5 101.75 114.4 100.6 Q115.05 97.45 110.9 90.55 L110.45 89.25 106.2 90.75 M124.2 99.6 L124.2 99.65 124.05 99.75 124.2 99.6 M124.7 99.35 L128.05 96.25 129.0 95.4 Q131.95 94.35 129.6 96.8 L124.7 99.35" fill="#5f2916" fill-rule="evenodd" stroke="none"/>
      <path d="M162.5 108.35 L163.85 110.8 Q162.1 114.55 158.6 116.7 L158.6 113.95 159.6 112.9 Q161.6 110.4 162.5 108.35 M157.7 115.5 L157.25 125.45 Q155.1 124.8 151.75 124.85 153.95 122.05 154.15 118.55 L154.95 118.2 Q156.9 117.35 157.7 115.5 M156.75 132.25 L156.5 135.25 Q142.8 137.85 129.15 141.4 122.15 143.15 115.5 140.35 107.7 137.1 104.3 129.35 L106.55 126.5 Q111.35 134.55 119.15 136.95 125.95 139.0 133.85 136.6 148.0 132.3 156.75 132.25 M156.2 139.3 L158.5 144.3 Q156.15 145.0 153.9 146.15 L144.4 151.45 Q132.4 158.2 118.6 159.7 112.5 160.25 106.85 158.05 98.45 154.9 95.25 146.45 92.4 139.0 92.6 130.7 92.7 125.15 97.8 124.65 L95.3 128.6 96.6 127.55 Q92.5 139.7 99.7 147.25 104.4 152.2 111.75 153.75 112.8 154.0 113.15 153.15 113.55 152.2 112.1 151.3 L109.45 149.4 Q118.6 152.7 128.15 150.55 143.0 147.25 156.8 141.1 L156.2 139.3 M115.6 82.95 L117.55 82.2 118.95 83.6 Q125.3 90.55 124.2 99.6 L124.05 99.75 122.8 100.5 122.9 98.4 Q123.2 88.65 115.6 82.95 M121.6 80.6 Q127.45 78.4 133.05 80.9 134.25 81.5 134.85 82.6 136.25 85.15 136.95 87.6 L137.55 86.05 141.65 86.1 Q147.5 91.4 147.9 89.2 L147.95 89.05 Q153.4 92.75 155.75 99.8 L156.25 101.45 Q154.9 98.5 152.7 95.85 149.45 91.9 144.1 92.55 136.55 93.55 129.6 96.8 131.95 94.35 129.0 95.4 L128.05 96.25 128.05 94.15 Q127.85 85.85 121.6 80.6 M111.65 84.55 L112.6 85.35 Q119.8 92.05 119.2 101.85 L115.4 103.6 Q116.35 93.65 108.9 87.05 L107.4 89.1 107.45 88.25 Q108.05 85.0 111.65 84.55 M157.25 101.2 L159.2 103.95 158.05 105.85 157.15 101.4 157.25 101.2 M118.95 125.8 L120.55 124.9 123.9 125.35 125.3 127.75 Q121.9 127.3 118.95 125.8" fill="#ffbd20" fill-rule="evenodd" stroke="none"/>
      <path d="M159.4 144.3 L179.15 144.05 180.95 145.35 Q185.1 149.65 184.05 156.1 L179.45 153.45 173.25 168.3 179.6 171.55 178.45 174.85 Q174.6 183.35 167.4 189.15 165.4 190.7 162.9 190.1 149.75 180.2 133.4 179.2 124.5 179.3 115.9 180.95 L106.3 182.8 Q95.7 185.2 85.15 188.6 L79.1 189.0 Q69.25 187.7 61.85 181.1 L61.25 180.55 55.5 174.25 54.3 172.55 53.9 171.85 Q50.55 166.4 51.5 161.95 52.8 155.6 63.05 150.6 70.6 146.85 86.1 135.4 L91.5 131.55 91.55 132.75 81.55 139.9 Q70.6 147.9 63.45 151.45 54.1 156.05 52.55 161.55 50.9 167.4 57.6 175.4 60.1 178.35 62.85 180.7 66.8 184.05 71.3 185.95 L72.1 186.25 Q76.45 188.05 81.15 188.0 L81.5 188.0 82.9 187.85 84.9 187.35 Q102.7 181.8 121.25 179.1 142.6 175.75 160.85 187.4 L162.35 188.25 Q164.85 190.05 167.45 188.15 171.1 185.55 173.35 181.4 169.95 186.1 165.05 189.0 164.25 187.2 165.1 185.2 L180.3 149.9 181.0 149.8 182.1 150.0 182.6 150.25 182.95 150.5 Q182.8 147.1 179.65 146.35 L173.8 145.45 Q166.25 145.25 158.6 145.2 L159.45 145.15 159.4 144.3" fill="#13032a" fill-rule="evenodd" stroke="none"/>
      <path d="M158.6 145.2 Q166.25 145.25 173.8 145.45 L179.65 146.35 Q182.8 147.1 182.95 150.5 L182.6 150.25 182.1 150.0 181.0 149.8 180.3 149.9 165.1 185.2 Q164.25 187.2 165.05 189.0 169.95 186.1 173.35 181.4 171.1 185.55 167.45 188.15 164.85 190.05 162.35 188.25 162.5 184.55 159.7 182.45 151.0 175.95 140.05 175.8 145.85 172.8 152.3 172.2 L153.0 171.65 Q152.9 170.45 152.0 170.0 150.9 169.45 149.7 169.15 L122.2 170.4 Q93.8 173.1 65.9 180.1 L63.75 180.15 61.4 179.35 62.85 180.7 Q60.1 178.35 57.6 175.4 50.9 167.4 52.55 161.55 54.1 156.05 63.45 151.45 70.6 147.9 81.55 139.9 L91.55 132.75 Q91.65 135.05 91.9 137.2 90.85 145.35 94.35 152.7 L94.5 153.0 89.6 154.05 Q89.8 155.05 91.2 155.25 L100.4 155.6 Q106.3 160.4 114.05 160.6 125.4 160.85 135.95 156.4 L141.35 156.5 Q146.15 156.7 144.15 155.1 143.35 154.4 144.55 152.45 L144.85 152.25 Q151.3 148.05 158.6 145.2 M121.25 179.1 Q102.7 181.8 84.9 187.35 L82.9 187.85 85.5 186.8 Q102.85 180.35 121.25 179.1 M81.5 188.0 L81.15 188.0 Q76.45 188.05 72.1 186.25 76.5 187.85 81.5 188.0 M80.65 169.7 Q85.25 169.5 89.6 168.3 99.8 165.3 110.35 164.2 128.0 162.9 145.4 163.8 L141.15 162.8 111.65 161.0 96.1 160.65 90.6 160.65 Q85.35 159.9 82.6 163.95 L83.4 163.9 Q86.3 163.0 86.8 165.4 84.95 167.3 82.25 167.85 80.25 168.35 79.25 169.55 L80.65 169.7" fill="#5a2d85" fill-rule="evenodd" stroke="none"/>
      <path d="M184.05 156.1 Q188.9 158.45 192.9 161.85 196.0 164.5 197.1 168.4 197.45 169.65 197.1 170.85 193.45 184.05 188.5 197.0 L199.35 196.65 Q211.9 195.55 223.75 199.95 230.6 202.4 235.0 208.25 239.55 214.3 234.25 219.7 232.1 221.85 229.1 222.8 224.45 224.35 219.6 225.0 196.2 226.65 173.15 222.75 L166.75 221.65 Q160.2 221.4 154.95 217.8 153.7 216.9 153.7 215.5 153.75 210.1 158.1 206.35 172.8 193.7 178.45 174.85 L179.6 171.55 173.25 168.3 179.45 153.45 184.05 156.1 M61.85 181.1 Q49.35 188.25 40.6 199.4 38.7 201.85 37.55 204.85 L35.65 210.15 Q41.25 214.05 38.7 220.25 37.6 222.9 34.7 223.35 28.6 224.3 22.4 223.65 L1.8 222.7 Q-1.1 218.9 1.45 214.75 3.75 211.0 7.0 207.8 18.4 196.75 32.65 189.45 L53.9 171.85 54.3 172.55 33.15 190.15 Q22.4 195.8 14.65 201.8 3.65 210.3 1.05 217.9 0.25 220.2 2.0 221.8 L2.7 222.25 Q9.45 222.2 15.4 220.75 L16.2 220.4 Q21.1 216.55 19.5 210.45 L19.95 211.3 Q21.45 215.7 18.85 219.45 18.0 221.1 16.3 221.95 L15.7 222.2 14.25 222.6 26.35 222.85 27.8 221.7 Q31.35 218.4 30.95 213.25 30.8 211.05 29.55 209.05 19.85 208.7 10.7 211.8 18.4 208.3 27.1 207.7 L35.1 209.4 40.1 196.8 Q42.05 194.5 48.75 189.15 52.05 186.5 54.85 184.55 L61.25 180.55 61.85 181.1 M175.45 163.35 L173.9 167.25 181.1 170.95 Q174.1 193.85 161.6 204.55 155.95 209.35 155.05 213.05 154.1 217.1 159.0 219.05 162.9 220.6 176.5 222.25 L205.4 224.15 Q206.85 223.75 207.6 222.8 L208.3 220.9 208.15 218.35 208.05 218.45 Q207.05 212.65 202.25 208.8 L202.1 208.65 Q207.05 210.15 209.2 215.05 209.95 216.7 210.1 218.65 210.75 221.85 208.25 224.2 L223.6 223.1 224.2 222.6 Q226.45 220.5 225.55 218.0 223.7 208.8 214.55 205.3 L217.15 205.6 Q224.3 208.6 227.45 215.8 228.9 219.0 226.7 221.85 L226.15 222.55 Q230.4 220.55 234.3 217.8 L235.85 216.1 Q236.45 214.45 236.05 212.65 L235.75 211.65 Q234.35 208.1 231.75 206.05 223.5 199.0 212.55 198.45 196.0 197.3 179.5 199.05 L184.15 197.65 186.65 197.2 Q192.8 184.4 195.5 170.4 195.75 169.25 195.4 168.05 194.35 164.7 191.65 162.7 185.9 158.35 179.4 155.2 L175.45 163.35 M30.5 220.3 L28.85 222.9 35.4 222.55 37.45 221.1 38.55 219.2 Q39.85 214.55 36.15 211.65 33.45 209.5 30.0 209.1 33.7 214.35 30.5 220.3" fill="#041a27" fill-rule="evenodd" stroke="none"/>
      <path d="M130.4 72.5 L129.7 70.95 Q133.5 67.4 138.7 69.45 139.9 69.8 140.85 70.55 147.4 75.65 155.4 77.85 L149.0 79.85 Q149.35 76.7 144.75 74.1 137.3 69.85 135.9 70.2 132.15 71.1 130.4 72.5" fill="#b8d2ca" fill-rule="evenodd" stroke="none"/>
      <path d="M133.4 76.2 L132.75 75.6 137.1 70.5 133.4 76.2 M138.35 79.2 L137.5 78.85 Q138.6 76.75 140.2 74.95 140.85 74.2 141.9 73.7 L138.35 79.2" fill="#46779d" fill-rule="evenodd" stroke="none"/>
      <path d="M144.55 152.45 Q143.35 154.4 144.15 155.1 146.15 156.7 141.35 156.5 L135.95 156.4 Q140.3 154.7 144.55 152.45 M100.4 155.6 L91.2 155.25 Q89.8 155.05 89.6 154.05 L94.5 153.0 94.35 152.7 Q90.85 145.35 91.9 137.2 93.5 149.7 100.4 155.6 M62.85 180.7 L61.4 179.35 63.75 180.15 65.9 180.1 Q93.8 173.1 122.2 170.4 L149.7 169.15 Q150.9 169.45 152.0 170.0 152.9 170.45 153.0 171.65 L152.3 172.2 Q145.85 172.8 140.05 175.8 151.0 175.95 159.7 182.45 162.5 184.55 162.35 188.25 L160.85 187.4 Q142.6 175.75 121.25 179.1 102.85 180.35 85.5 186.8 L82.9 187.85 81.5 188.0 Q76.5 187.85 72.1 186.25 L71.3 185.95 Q66.8 184.05 62.85 180.7 M80.65 169.7 L79.25 169.55 Q80.25 168.35 82.25 167.85 84.95 167.3 86.8 165.4 86.3 163.0 83.4 163.9 L82.6 163.95 Q85.35 159.9 90.6 160.65 L96.1 160.65 111.65 161.0 141.15 162.8 145.4 163.8 Q128.0 162.9 110.35 164.2 99.8 165.3 89.6 168.3 85.25 169.5 80.65 169.7" fill="#391c31" fill-rule="evenodd" stroke="none"/>
      <path d="M97.85 126.15 L101.85 121.3 104.3 129.35 Q99.65 133.2 101.6 138.6 103.95 145.1 109.45 149.4 95.7 143.95 97.85 126.15 M103.55 120.25 L106.25 120.85 108.6 123.6 106.5 126.45 Q104.85 123.65 103.55 120.25" fill="#a81b01" fill-rule="evenodd" stroke="none"/>
      <path d="M96.6 127.55 L97.85 126.15 Q95.7 143.95 109.45 149.4 L112.1 151.3 Q113.55 152.2 113.15 153.15 112.8 154.0 111.75 153.75 104.4 152.2 99.7 147.25 92.5 139.7 96.6 127.55 M101.85 121.3 L102.8 120.1 103.55 120.25 Q104.85 123.65 106.5 126.45 L108.6 123.6 108.65 123.65 106.55 126.5 104.3 129.35 101.85 121.3" fill="#f27c01" fill-rule="evenodd" stroke="none"/>
      <path d="M184.5 23.9 L186.65 22.3 185.7 22.05 Q180.5 27.2 175.35 33.0 173.4 35.2 170.85 35.5 L171.8 35.85 Q172.1 36.9 172.65 37.5 L172.2 44.85 Q165.65 43.3 160.35 46.95 L159.8 47.5 157.2 47.55 157.55 46.7 Q160.85 36.95 157.35 27.4 L158.65 28.7 Q157.7 24.15 153.4 22.9 L150.65 22.75 Q144.4 23.25 142.9 29.75 L142.7 30.8 Q141.1 40.25 144.95 48.85 138.6 50.0 133.9 52.25 L131.9 52.0 Q131.3 32.9 135.85 22.5 141.9 8.6 158.05 7.4 154.55 7.25 153.2 6.1 152.05 5.1 152.5 3.55 L152.2 3.75 Q157.55 0.15 165.05 1.1 169.1 1.65 172.55 3.5 176.0 5.35 177.7 7.95 201.9 15.95 191.5 54.25 L183.7 50.35 Q186.05 44.8 185.95 36.95 185.9 34.4 185.25 32.4 L186.0 34.55 Q185.85 30.95 183.5 28.2 L184.5 23.9 M163.8 113.85 Q169.15 120.6 170.9 121.6 172.5 122.5 177.85 120.15 184.0 117.45 191.05 111.8 193.75 110.05 196.3 109.95 198.55 109.9 200.1 111.15 201.35 112.2 201.7 113.65 191.8 123.45 178.4 128.1 169.2 131.35 163.0 123.75 162.2 122.8 161.85 121.7 160.55 117.3 163.8 113.85 M208.05 218.45 Q204.45 221.3 187.8 221.0 171.8 220.7 165.75 218.45 163.05 217.4 163.05 215.2 163.05 213.4 164.9 210.6 165.95 208.95 168.8 205.45 171.45 202.2 172.3 200.75 174.2 197.5 178.35 186.35 L183.6 172.65 Q186.75 172.75 186.25 171.45 185.85 170.3 175.45 163.35 L179.4 155.2 Q185.9 158.35 191.65 162.7 194.35 164.7 195.4 168.05 195.75 169.25 195.5 170.4 192.8 184.4 186.65 197.2 L184.15 197.65 179.5 199.05 Q196.0 197.3 212.55 198.45 223.5 199.0 231.75 206.05 232.7 211.4 231.3 214.4 229.9 217.25 227.45 215.8 224.3 208.6 217.15 205.6 L214.55 205.3 Q223.7 208.8 225.55 218.0 222.55 223.3 216.25 221.85 212.85 220.95 210.1 218.65 209.95 216.7 209.2 215.05 207.05 210.15 202.1 208.65 L202.25 208.8 Q207.05 212.65 208.05 218.45 M146.95 16.4 Q148.4 14.7 150.65 14.1 152.6 14.5 153.15 16.45 155.35 24.2 162.55 26.8 159.55 25.2 157.25 22.4 154.65 19.2 153.4 15.4 152.35 12.35 149.55 13.65 147.65 14.6 146.95 16.4 M109.45 90.75 Q111.45 96.65 111.35 98.95 104.8 101.5 97.45 105.65 L100.35 106.05 88.95 105.35 Q90.0 106.05 92.7 105.9 L107.4 107.8 106.4 109.2 Q104.05 112.95 104.75 117.3 L84.6 112.1 Q80.7 111.05 78.55 107.8 79.8 102.65 84.6 100.45 96.7 94.85 109.45 90.75 M55.5 174.25 L33.9 194.2 29.5 200.0 Q26.35 204.8 27.1 207.7 18.4 208.3 10.7 211.8 19.85 208.7 29.55 209.05 30.8 211.05 30.95 213.25 31.35 218.4 27.8 221.7 25.1 222.7 22.25 222.2 19.0 221.7 18.85 219.45 21.45 215.7 19.95 211.3 L19.5 210.45 Q21.1 216.55 16.2 220.4 L17.35 219.3 Q13.05 221.0 7.5 220.8 1.45 220.55 1.05 217.9 3.65 210.3 14.65 201.8 22.4 195.8 33.15 190.15 L54.3 172.55 55.5 174.25" fill="#6fb9d7" fill-rule="evenodd" stroke="none"/>
      <path d="M152.2 3.75 L152.5 3.55 Q152.05 5.1 153.2 6.1 154.55 7.25 158.05 7.4 141.9 8.6 135.85 22.5 131.3 32.9 131.9 52.0 L128.3 52.15 128.2 49.85 Q127.5 37.25 129.6 24.8 L130.9 24.4 Q134.05 22.4 130.85 20.8 136.4 9.9 148.4 7.05 L151.35 4.3 151.95 3.9 152.2 3.75 M163.8 113.85 Q160.55 117.3 161.85 121.7 162.2 122.8 163.0 123.75 169.2 131.35 178.4 128.1 191.8 123.45 201.7 113.65 201.6 116.75 199.3 118.85 192.2 125.35 183.65 129.35 179.3 131.4 174.75 131.95 164.05 130.95 158.45 121.9 L158.6 118.25 163.6 113.55 163.8 113.85 M175.45 163.35 Q185.85 170.3 186.25 171.45 186.75 172.75 183.6 172.65 L178.35 186.35 Q174.2 197.5 172.3 200.75 171.45 202.2 168.8 205.45 165.95 208.95 164.9 210.6 163.05 213.4 163.05 215.2 163.05 217.4 165.75 218.45 171.8 220.7 187.8 221.0 204.45 221.3 208.05 218.45 L208.15 218.35 208.3 220.9 207.6 222.8 Q206.85 223.75 205.4 224.15 L176.5 222.25 Q162.9 220.6 159.0 219.05 154.1 217.1 155.05 213.05 155.95 209.35 161.6 204.55 174.1 193.85 181.1 170.95 L173.9 167.25 175.45 163.35 M210.1 218.65 Q212.85 220.95 216.25 221.85 222.55 223.3 225.55 218.0 226.45 220.5 224.2 222.6 L223.6 223.1 208.25 224.2 Q210.75 221.85 210.1 218.65 M227.45 215.8 Q229.9 217.25 231.3 214.4 232.7 211.4 231.75 206.05 234.35 208.1 235.75 211.65 L236.05 212.65 235.85 216.1 234.3 217.8 Q230.4 220.55 226.15 222.55 L226.7 221.85 Q228.9 219.0 227.45 215.8 M109.45 90.75 L110.75 90.3 110.9 90.55 Q115.05 97.45 114.4 100.6 L100.35 106.05 97.45 105.65 Q104.8 101.5 111.35 98.95 111.45 96.65 109.45 90.75 M105.6 119.7 Q93.05 117.25 81.05 113.05 80.15 112.75 79.55 111.9 78.25 109.95 78.55 107.8 80.7 111.05 84.6 112.1 L104.75 117.3 105.6 119.7 M54.85 184.55 Q45.7 188.45 40.15 196.5 L40.1 196.8 35.1 209.4 27.1 207.7 Q26.35 204.8 29.5 200.0 L33.9 194.2 55.5 174.25 61.25 180.55 54.85 184.55" fill="#3c84bb" fill-rule="evenodd" stroke="none"/>
    </g>
    <g id="sprite1" transform="matrix(1.0, 0.0, 0.0, 1.0, 170.1, 44.6)">
      <use height="49.95" transform="matrix(1.0, 0.0, 0.0, 1.0, -94.15, -44.15)" width="131.1" xlink:href="#shape3"/>
      <clipPath id="clipPath0" transform="matrix(1.0, 0.0, 0.0, 1.0, 170.1, 44.6)">
        <use height="49.4" transform="matrix(1.0, 0.0, 0.0, 1.0, 40.55, -44.55)" width="49.4" xlink:href="#shape4"/>
      </clipPath>
      <g clip-path="url(#clipPath0)">
        <use height="49.85" transform="matrix(1.0, 0.0, 0.0, 1.0, 49.65, -44.15)" width="366.6" xlink:href="#shape5"/>
      </g>
    </g>
    <g id="shape3" transform="matrix(1.0, 0.0, 0.0, 1.0, 4.95, 4.7)">
      <path d="M112.75 8.75 L111.05 16.05 117.25 16.05 115.55 23.35 109.35 23.35 107.35 31.8 114.65 31.8 112.9 39.45 95.65 39.45 104.55 1.1 121.15 1.1 119.4 8.75 112.75 8.75 M98.65 6.35 Q98.95 8.75 97.9 13.55 L97.45 15.25 87.5 15.25 89.0 7.6 Q88.9 6.75 87.8 6.75 86.85 6.75 86.4 7.5 85.85 8.2 85.15 11.15 L80.85 29.55 Q80.25 32.2 80.4 33.0 80.5 33.8 81.55 33.8 82.65 33.8 83.25 32.85 83.9 31.95 84.5 29.25 L85.6 24.65 83.6 24.65 85.0 18.85 96.65 18.85 91.8 39.45 85.5 39.45 85.25 36.7 Q83.8 38.5 82.05 39.4 80.3 40.25 78.15 40.25 75.6 40.25 73.75 39.05 71.8 37.8 71.1 36.05 70.35 34.15 70.55 32.25 70.7 30.3 71.7 26.3 L74.3 14.9 Q75.55 9.55 76.75 6.9 77.95 4.45 81.3 2.35 84.55 0.3 89.05 0.3 93.4 0.3 95.9 2.05 98.35 3.95 98.65 6.35 M45.15 8.75 L38.0 39.45 28.0 39.45 35.2 8.75 29.25 8.75 31.05 1.1 52.9 1.1 51.1 8.75 45.15 8.75 M59.4 25.75 Q60.0 20.15 61.6 9.6 57.5 20.65 55.95 25.75 L59.4 25.75 M54.4 32.55 L52.25 39.45 41.9 39.45 56.0 1.1 70.35 1.1 67.15 39.45 57.0 39.45 58.05 32.55 54.4 32.55 M27.1 4.7 Q27.55 6.7 26.5 11.2 L26.1 12.7 16.8 12.7 17.5 9.85 Q17.95 7.85 17.7 7.3 17.5 6.75 16.75 6.75 15.85 6.75 15.25 7.5 14.6 8.15 14.25 9.75 13.8 11.75 14.05 12.65 14.25 13.6 16.3 15.0 22.0 18.9 23.15 21.5 24.3 24.0 23.0 29.65 22.0 33.75 20.55 35.7 19.15 37.65 16.15 38.95 13.05 40.25 9.4 40.25 5.45 40.25 2.95 38.75 0.45 37.25 0.15 34.9 -0.2 32.6 0.85 28.25 L1.45 25.75 10.75 25.75 9.65 30.4 Q9.1 32.5 9.35 33.15 9.6 33.8 10.55 33.8 11.55 33.8 12.2 33.0 12.85 32.25 13.25 30.65 14.0 27.25 13.4 26.25 12.7 25.15 9.6 22.75 6.45 20.35 5.45 19.2 4.5 18.1 4.2 16.1 3.9 14.1 4.55 11.05 5.65 6.65 7.25 4.65 8.8 2.6 11.6 1.4 14.35 0.3 17.9 0.3 21.8 0.3 24.2 1.55 26.6 2.8 27.1 4.7" fill="#ffffff" fill-rule="evenodd" stroke="none"/>
      <path d="M112.75 8.75 L111.05 16.05 117.25 16.05 115.55 23.35 109.35 23.35 107.35 31.8 114.65 31.8 112.9 39.45 95.65 39.45 104.55 1.1 121.15 1.1 119.4 8.75 112.75 8.75 M98.65 6.35 Q98.95 8.75 97.9 13.55 L97.45 15.25 87.5 15.25 89.0 7.6 Q88.9 6.75 87.8 6.75 86.85 6.75 86.4 7.5 85.85 8.2 85.15 11.15 L80.85 29.55 Q80.25 32.2 80.4 33.0 80.5 33.8 81.55 33.8 82.65 33.8 83.25 32.85 83.9 31.95 84.5 29.25 L85.6 24.65 83.6 24.65 85.0 18.85 96.65 18.85 91.8 39.45 85.5 39.45 85.25 36.7 Q83.8 38.5 82.05 39.4 80.3 40.25 78.15 40.25 75.6 40.25 73.75 39.05 71.8 37.8 71.1 36.05 70.35 34.15 70.55 32.25 70.7 30.3 71.7 26.3 L74.3 14.9 Q75.55 9.55 76.75 6.9 77.95 4.45 81.3 2.35 84.55 0.3 89.05 0.3 93.4 0.3 95.9 2.05 98.35 3.95 98.65 6.35 M45.15 8.75 L38.0 39.45 28.0 39.45 35.2 8.75 29.25 8.75 31.05 1.1 52.9 1.1 51.1 8.75 45.15 8.75 M59.4 25.75 Q60.0 20.15 61.6 9.6 57.5 20.65 55.95 25.75 L59.4 25.75 M54.4 32.55 L52.25 39.45 41.9 39.45 56.0 1.1 70.35 1.1 67.15 39.45 57.0 39.45 58.05 32.55 54.4 32.55 M27.1 4.7 Q27.55 6.7 26.5 11.2 L26.1 12.7 16.8 12.7 17.5 9.85 Q17.95 7.85 17.7 7.3 17.5 6.75 16.75 6.75 15.85 6.75 15.25 7.5 14.6 8.15 14.25 9.75 13.8 11.75 14.05 12.65 14.25 13.6 16.3 15.0 22.0 18.9 23.15 21.5 24.3 24.0 23.0 29.65 22.0 33.75 20.55 35.7 19.15 37.65 16.15 38.95 13.05 40.25 9.4 40.25 5.45 40.25 2.95 38.75 0.45 37.25 0.15 34.9 -0.2 32.6 0.85 28.25 L1.45 25.75 10.75 25.75 9.65 30.4 Q9.1 32.5 9.35 33.15 9.6 33.8 10.55 33.8 11.55 33.8 12.2 33.0 12.85 32.25 13.25 30.65 14.0 27.25 13.4 26.25 12.7 25.15 9.6 22.75 6.45 20.35 5.45 19.2 4.5 18.1 4.2 16.1 3.9 14.1 4.55 11.05 5.65 6.65 7.25 4.65 8.8 2.6 11.6 1.4 14.35 0.3 17.9 0.3 21.8 0.3 24.2 1.55 26.6 2.8 27.1 4.7" fill="none" stroke="#ffffff" stroke-linecap="round" stroke-linejoin="round" stroke-width="10.0"/>
      <path d="M121.1 0.8 L119.35 8.45 112.7 8.45 111.0 15.75 117.2 15.75 115.5 23.05 109.3 23.05 107.3 31.5 114.6 31.5 112.85 39.15 95.6 39.15 104.5 0.8 121.1 0.8 M98.6 6.05 Q98.9 8.45 97.8 13.25 L97.4 14.95 87.45 14.95 88.95 7.3 Q88.8 6.45 87.75 6.45 86.8 6.45 86.35 7.2 85.8 7.9 85.1 10.85 L80.8 29.25 Q80.2 31.9 80.35 32.7 80.45 33.5 81.5 33.5 82.6 33.5 83.2 32.55 83.8 31.65 84.4 28.95 L85.5 24.35 83.5 24.35 84.9 18.55 96.55 18.55 91.75 39.15 85.45 39.15 85.2 36.4 Q83.7 38.2 82.0 39.1 80.25 39.95 78.1 39.95 75.55 39.95 73.7 38.75 71.7 37.5 71.05 35.75 70.3 33.85 70.5 31.95 70.65 30.0 71.65 26.0 L74.25 14.6 Q75.5 9.25 76.7 6.6 77.9 4.15 81.2 2.05 84.5 0.0 89.0 0.0 93.3 0.0 95.8 1.75 98.3 3.65 98.6 6.05 M45.1 8.45 L37.95 39.15 27.95 39.15 35.15 8.45 29.2 8.45 31.0 0.8 52.85 0.8 51.05 8.45 45.1 8.45 M52.2 39.15 L41.85 39.15 55.95 0.8 70.3 0.8 67.1 39.15 56.95 39.15 58.0 32.25 54.35 32.25 52.2 39.15 M59.3 25.45 Q59.9 19.85 61.55 9.3 57.45 20.35 55.85 25.45 L59.3 25.45 M26.05 12.4 L16.75 12.4 17.45 9.55 Q17.85 7.55 17.65 7.0 17.45 6.45 16.7 6.45 15.8 6.45 15.2 7.2 14.55 7.85 14.2 9.45 13.75 11.45 14.0 12.35 14.2 13.3 16.25 14.7 21.95 18.6 23.1 21.2 24.2 23.7 22.9 29.35 21.95 33.45 20.5 35.4 19.1 37.35 16.1 38.65 13.0 39.95 9.35 39.95 5.4 39.95 2.9 38.45 0.4 36.95 0.1 34.6 -0.25 32.3 0.8 27.95 L1.35 25.45 10.65 25.45 9.55 30.1 Q9.05 32.2 9.3 32.85 9.55 33.5 10.5 33.5 11.5 33.5 12.15 32.7 12.8 31.95 13.2 30.35 13.95 26.95 13.35 25.95 12.6 24.85 9.5 22.45 6.4 20.05 5.4 18.9 4.45 17.8 4.15 15.8 3.85 13.8 4.5 10.75 5.55 6.35 7.15 4.35 8.75 2.3 11.55 1.1 14.3 0.0 17.85 0.0 21.75 0.0 24.15 1.25 26.55 2.5 27.0 4.4 27.45 6.4 26.4 10.9 L26.05 12.4" fill="url(#gradient21)" fill-rule="evenodd" stroke="none"/>
    </g>
    <linearGradient gradientTransform="matrix(-0.0032, -0.0243, 0.0191, 0.0, 207.75, 19.95)" gradientUnits="userSpaceOnUse" id="gradient21" spreadMethod="pad" x1="-819.2" x2="819.2">
      <stop offset="0.1843137254901961" stop-color="#ff7700"/>
      <stop offset="0.7843137254901961" stop-color="#cc2232"/>
    </linearGradient>
    <g id="shape4" transform="matrix(1.0, 0.0, 0.0, 1.0, -40.55, 44.55)">
      <path d="M89.95 -44.55 L76.6 4.85 40.55 4.85 53.9 -44.55 89.95 -44.55" fill="#ffffff" fill-rule="evenodd" stroke="none"/>
    </g>
    <g id="shape5" transform="matrix(1.0, 0.0, 0.0, 1.0, 4.95, 4.7)">
      <path d="M346.15 6.2 Q345.0 6.2 344.5 7.0 343.95 7.85 343.3 10.75 L338.95 29.55 Q338.1 32.9 338.3 33.6 338.45 34.25 339.55 34.25 340.6 34.25 341.15 33.5 L342.3 29.85 347.4 6.95 Q347.25 6.2 346.15 6.2 M352.7 1.4 Q354.95 2.55 355.8 4.1 356.65 5.65 356.65 7.7 L355.6 14.0 352.6 26.85 Q351.6 31.15 350.6 33.2 349.75 35.1 347.8 36.9 345.9 38.65 343.6 39.4 L338.7 40.15 Q335.25 40.15 333.15 39.35 331.1 38.6 330.15 36.9 329.15 35.25 329.0 33.35 328.85 31.45 329.85 27.45 L333.0 14.0 Q334.2 8.7 335.7 6.1 337.25 3.5 340.3 1.9 343.4 0.3 347.3 0.3 350.4 0.3 352.7 1.4 M319.85 8.65 L314.5 31.65 Q313.8 33.9 311.8 36.0 309.85 38.1 307.15 39.1 304.45 40.15 301.15 40.15 297.1 40.15 294.85 38.85 292.5 37.5 292.0 35.2 291.4 32.8 292.25 29.25 L301.85 29.25 301.05 32.6 Q300.95 33.35 301.45 33.8 301.8 34.25 302.7 34.25 303.5 34.25 304.0 33.85 L304.85 32.7 307.0 23.7 Q305.95 25.2 304.3 26.0 302.7 26.75 300.55 26.75 297.95 26.75 296.3 25.35 294.6 23.9 294.55 21.95 294.4 20.1 295.25 16.55 L295.95 13.5 Q296.8 9.55 297.65 7.45 298.45 5.5 300.2 3.85 301.85 2.15 304.45 1.2 307.05 0.3 310.1 0.3 313.95 0.3 316.2 1.35 318.4 2.45 319.25 4.45 320.15 6.5 319.85 8.65 M310.5 6.95 Q310.2 6.2 309.2 6.2 308.55 6.2 307.7 6.75 306.95 7.4 306.3 10.05 L304.6 17.35 Q304.05 19.75 304.55 20.35 305.0 20.9 305.7 20.9 306.75 20.9 307.35 20.2 308.05 19.35 308.5 17.35 L310.1 10.3 Q310.75 7.8 310.5 6.95 M282.2 10.45 Q281.45 13.55 280.35 14.95 279.25 16.3 276.5 17.7 278.4 18.55 279.1 20.2 279.85 21.9 278.35 28.25 277.25 33.0 275.9 35.15 274.45 37.35 271.55 38.75 268.6 40.15 264.2 40.15 259.9 40.15 257.8 38.8 255.55 37.45 255.05 35.25 254.45 33.0 255.7 27.8 256.45 24.4 257.65 21.75 258.75 19.25 261.95 17.7 260.35 16.8 259.9 14.95 259.45 13.1 260.15 10.2 261.3 5.25 264.65 2.75 267.95 0.3 273.4 0.3 279.7 0.3 281.5 2.95 283.35 5.6 282.2 10.45 M269.75 9.35 L269.1 12.3 Q268.65 14.1 268.9 14.7 269.05 15.35 270.05 15.35 270.95 15.35 271.45 14.75 272.0 14.0 272.4 12.0 L273.05 9.35 Q273.45 7.4 273.25 6.8 273.1 6.2 272.15 6.2 271.15 6.2 270.65 6.85 270.2 7.5 269.75 9.35 M268.45 21.75 Q267.5 21.75 266.9 22.45 266.35 23.15 265.8 25.4 L264.65 30.35 Q264.05 32.8 264.35 33.6 264.65 34.25 265.7 34.25 266.65 34.25 267.25 33.55 L268.3 30.3 269.5 25.4 Q270.0 23.2 269.75 22.45 269.45 21.75 268.45 21.75 M224.1 7.95 L225.7 1.05 243.95 1.05 242.05 9.45 228.95 39.4 219.4 39.4 233.5 7.95 224.1 7.95 M205.25 23.9 L204.55 27.0 202.85 33.0 Q202.0 35.05 200.3 36.6 198.55 38.3 196.05 39.25 193.4 40.15 190.35 40.15 186.45 40.15 184.25 39.1 182.05 38.0 181.2 36.0 180.35 34.05 180.6 31.8 180.85 29.75 182.4 23.25 L183.6 17.95 Q185.15 11.2 185.95 8.8 186.65 6.55 188.65 4.45 190.6 2.35 193.3 1.35 196.05 0.3 199.3 0.3 203.3 0.3 205.65 1.6 207.95 2.9 208.45 5.25 209.05 7.55 208.25 11.2 L198.65 11.2 199.4 7.85 Q199.5 7.15 199.1 6.65 198.65 6.2 197.8 6.2 197.0 6.2 196.5 6.6 195.9 7.1 195.65 7.75 L193.45 16.75 Q194.55 15.25 196.15 14.45 197.75 13.7 199.85 13.7 202.5 13.7 204.2 15.1 205.85 16.5 205.95 18.5 206.0 20.55 205.25 23.9 M194.75 19.55 Q193.7 19.55 193.1 20.25 192.45 21.05 192.0 23.15 L190.35 30.15 Q189.75 32.7 190.0 33.5 190.2 34.25 191.3 34.25 191.9 34.25 192.75 33.7 193.5 33.05 194.2 30.4 L195.9 23.15 Q196.35 21.1 196.05 20.3 195.75 19.55 194.75 19.55 M168.55 21.85 L167.3 27.3 Q166.4 31.25 165.5 33.3 164.65 35.2 163.0 36.8 161.4 38.4 158.85 39.3 156.4 40.15 153.1 40.15 149.3 40.15 146.9 38.85 L146.6 38.7 Q144.35 37.45 143.75 35.0 143.15 32.5 144.4 27.15 L144.9 25.1 154.45 25.1 153.9 27.45 Q153.0 31.3 152.9 32.75 152.8 34.25 154.4 34.25 155.15 34.25 155.65 33.85 L156.35 32.85 159.3 20.75 Q159.8 18.65 159.55 17.8 159.2 17.0 158.2 17.0 157.5 17.0 156.95 17.45 L156.15 18.25 155.55 20.45 146.05 20.45 151.0 1.05 171.6 1.05 170.15 7.2 158.2 7.2 156.65 13.75 Q159.5 11.15 163.05 11.15 166.95 11.15 168.55 13.35 170.05 15.55 168.55 21.85 M134.7 1.05 L128.9 26.1 131.6 26.1 130.1 32.65 127.35 32.65 125.75 39.4 116.2 39.4 117.8 32.65 106.4 32.65 107.95 26.1 122.0 1.05 134.7 1.05 M96.9 10.4 Q96.15 13.5 94.95 15.05 93.75 16.4 91.25 17.7 93.2 18.4 93.9 20.1 94.6 21.75 93.15 27.9 92.05 32.5 90.45 35.0 88.75 37.55 85.95 38.85 83.05 40.15 79.05 40.15 74.5 40.15 72.25 38.6 70.0 37.1 69.7 34.9 69.4 32.8 70.7 27.2 L71.45 24.2 81.05 24.2 79.55 30.45 Q79.0 32.9 79.15 33.6 79.25 34.25 80.3 34.25 81.4 34.25 81.95 33.45 82.5 32.5 83.35 28.95 L83.95 26.3 Q84.45 24.15 84.2 23.1 83.9 22.05 83.05 21.75 L79.35 21.4 80.7 15.8 84.95 15.5 Q85.8 15.3 86.4 14.4 L87.9 9.5 Q88.35 7.45 88.1 6.8 87.8 6.2 87.0 6.2 85.95 6.2 85.45 6.85 84.95 7.5 84.4 9.75 L83.65 12.95 74.0 12.95 74.8 9.65 Q76.05 4.2 79.05 2.25 81.95 0.3 87.5 0.3 94.35 0.3 96.15 2.95 98.0 5.7 96.9 10.4 M119.3 26.1 L123.1 9.75 115.05 26.1 119.3 26.1 M59.4 3.1 Q61.65 6.0 60.6 10.3 59.85 13.5 57.3 17.25 55.0 20.7 44.05 32.85 L54.45 32.85 52.95 39.4 31.9 39.4 33.2 33.95 Q46.4 18.25 48.75 14.95 51.4 11.35 51.9 9.25 52.2 7.7 51.9 6.95 51.55 6.2 50.45 6.2 49.35 6.2 48.65 7.0 47.95 7.8 47.3 10.45 L46.4 14.1 37.8 14.1 38.15 12.7 Q38.85 9.65 39.65 7.6 40.45 5.7 42.2 3.95 43.9 2.15 46.2 1.2 48.55 0.3 51.4 0.3 57.1 0.3 59.4 3.1 M13.05 1.05 L18.65 1.05 9.7 39.4 0.15 39.4 6.0 13.5 Q6.0 12.6 5.15 12.15 L0.95 11.7 0.05 11.7 1.05 7.2 Q8.35 5.7 13.05 1.05" fill="#ffffff" fill-rule="evenodd" stroke="none"/>
      <path d="M346.15 6.2 Q345.0 6.2 344.5 7.0 343.95 7.85 343.3 10.75 L338.95 29.55 Q338.1 32.9 338.3 33.6 338.45 34.25 339.55 34.25 340.6 34.25 341.15 33.5 L342.3 29.85 347.4 6.95 Q347.25 6.2 346.15 6.2 M352.7 1.4 Q354.95 2.55 355.8 4.1 356.65 5.65 356.65 7.7 L355.6 14.0 352.6 26.85 Q351.6 31.15 350.6 33.2 349.75 35.1 347.8 36.9 345.9 38.65 343.6 39.4 L338.7 40.15 Q335.25 40.15 333.15 39.35 331.1 38.6 330.15 36.9 329.15 35.25 329.0 33.35 328.85 31.45 329.85 27.45 L333.0 14.0 Q334.2 8.7 335.7 6.1 337.25 3.5 340.3 1.9 343.4 0.3 347.3 0.3 350.4 0.3 352.7 1.4 M319.85 8.65 L314.5 31.65 Q313.8 33.9 311.8 36.0 309.85 38.1 307.15 39.1 304.45 40.15 301.15 40.15 297.1 40.15 294.85 38.85 292.5 37.5 292.0 35.2 291.4 32.8 292.25 29.25 L301.85 29.25 301.05 32.6 Q300.95 33.35 301.45 33.8 301.8 34.25 302.7 34.25 303.5 34.25 304.0 33.85 L304.85 32.7 307.0 23.7 Q305.95 25.2 304.3 26.0 302.7 26.75 300.55 26.75 297.95 26.75 296.3 25.35 294.6 23.9 294.55 21.95 294.4 20.1 295.25 16.55 L295.95 13.5 Q296.8 9.55 297.65 7.45 298.45 5.5 300.2 3.85 301.85 2.15 304.45 1.2 307.05 0.3 310.1 0.3 313.95 0.3 316.2 1.35 318.4 2.45 319.25 4.45 320.15 6.5 319.85 8.65 M310.5 6.95 Q310.2 6.2 309.2 6.2 308.55 6.2 307.7 6.75 306.95 7.4 306.3 10.05 L304.6 17.35 Q304.05 19.75 304.55 20.35 305.0 20.9 305.7 20.9 306.75 20.9 307.35 20.2 308.05 19.35 308.5 17.35 L310.1 10.3 Q310.75 7.8 310.5 6.95 M282.2 10.45 Q281.45 13.55 280.35 14.95 279.25 16.3 276.5 17.7 278.4 18.55 279.1 20.2 279.85 21.9 278.35 28.25 277.25 33.0 275.9 35.15 274.45 37.35 271.55 38.75 268.6 40.15 264.2 40.15 259.9 40.15 257.8 38.8 255.55 37.45 255.05 35.25 254.45 33.0 255.7 27.8 256.45 24.4 257.65 21.75 258.75 19.25 261.95 17.7 260.35 16.8 259.9 14.95 259.45 13.1 260.15 10.2 261.3 5.25 264.65 2.75 267.95 0.3 273.4 0.3 279.7 0.3 281.5 2.95 283.35 5.6 282.2 10.45 M269.75 9.35 L269.1 12.3 Q268.65 14.1 268.9 14.7 269.05 15.35 270.05 15.35 270.95 15.35 271.45 14.75 272.0 14.0 272.4 12.0 L273.05 9.35 Q273.45 7.4 273.25 6.8 273.1 6.2 272.15 6.2 271.15 6.2 270.65 6.85 270.2 7.5 269.75 9.35 M268.45 21.75 Q267.5 21.75 266.9 22.45 266.35 23.15 265.8 25.4 L264.65 30.35 Q264.05 32.8 264.35 33.6 264.65 34.25 265.7 34.25 266.65 34.25 267.25 33.55 L268.3 30.3 269.5 25.4 Q270.0 23.2 269.75 22.45 269.45 21.75 268.45 21.75 M224.1 7.95 L225.7 1.05 243.95 1.05 242.05 9.45 228.95 39.4 219.4 39.4 233.5 7.95 224.1 7.95 M205.25 23.9 L204.55 27.0 202.85 33.0 Q202.0 35.05 200.3 36.6 198.55 38.3 196.05 39.25 193.4 40.15 190.35 40.15 186.45 40.15 184.25 39.1 182.05 38.0 181.2 36.0 180.35 34.05 180.6 31.8 180.85 29.75 182.4 23.25 L183.6 17.95 Q185.15 11.2 185.95 8.8 186.65 6.55 188.65 4.45 190.6 2.35 193.3 1.35 196.05 0.3 199.3 0.3 203.3 0.3 205.65 1.6 207.95 2.9 208.45 5.25 209.05 7.55 208.25 11.2 L198.65 11.2 199.4 7.85 Q199.5 7.15 199.1 6.65 198.65 6.2 197.8 6.2 197.0 6.2 196.5 6.6 195.9 7.1 195.65 7.75 L193.45 16.75 Q194.55 15.25 196.15 14.45 197.75 13.7 199.85 13.7 202.5 13.7 204.2 15.1 205.85 16.5 205.95 18.5 206.0 20.55 205.25 23.9 M194.75 19.55 Q193.7 19.55 193.1 20.25 192.45 21.05 192.0 23.15 L190.35 30.15 Q189.75 32.7 190.0 33.5 190.2 34.25 191.3 34.25 191.9 34.25 192.75 33.7 193.5 33.05 194.2 30.4 L195.9 23.15 Q196.35 21.1 196.05 20.3 195.75 19.55 194.75 19.55 M168.55 21.85 L167.3 27.3 Q166.4 31.25 165.5 33.3 164.65 35.2 163.0 36.8 161.4 38.4 158.85 39.3 156.4 40.15 153.1 40.15 149.3 40.15 146.9 38.85 L146.6 38.7 Q144.35 37.45 143.75 35.0 143.15 32.5 144.4 27.15 L144.9 25.1 154.45 25.1 153.9 27.45 Q153.0 31.3 152.9 32.75 152.8 34.25 154.4 34.25 155.15 34.25 155.65 33.85 L156.35 32.85 159.3 20.75 Q159.8 18.65 159.55 17.8 159.2 17.0 158.2 17.0 157.5 17.0 156.95 17.45 L156.15 18.25 155.55 20.45 146.05 20.45 151.0 1.05 171.6 1.05 170.15 7.2 158.2 7.2 156.65 13.75 Q159.5 11.15 163.05 11.15 166.95 11.15 168.55 13.35 170.05 15.55 168.55 21.85 M134.7 1.05 L128.9 26.1 131.6 26.1 130.1 32.65 127.35 32.65 125.75 39.4 116.2 39.4 117.8 32.65 106.4 32.65 107.95 26.1 122.0 1.05 134.7 1.05 M96.9 10.4 Q96.15 13.5 94.95 15.05 93.75 16.4 91.25 17.7 93.2 18.4 93.9 20.1 94.6 21.75 93.15 27.9 92.05 32.5 90.45 35.0 88.75 37.55 85.95 38.85 83.05 40.15 79.05 40.15 74.5 40.15 72.25 38.6 70.0 37.1 69.7 34.9 69.4 32.8 70.7 27.2 L71.45 24.2 81.05 24.2 79.55 30.45 Q79.0 32.9 79.15 33.6 79.25 34.25 80.3 34.25 81.4 34.25 81.95 33.45 82.5 32.5 83.35 28.95 L83.95 26.3 Q84.45 24.15 84.2 23.1 83.9 22.05 83.05 21.75 L79.35 21.4 80.7 15.8 84.95 15.5 Q85.8 15.3 86.4 14.4 L87.9 9.5 Q88.35 7.45 88.1 6.8 87.8 6.2 87.0 6.2 85.95 6.2 85.45 6.85 84.95 7.5 84.4 9.75 L83.65 12.95 74.0 12.95 74.8 9.65 Q76.05 4.2 79.05 2.25 81.95 0.3 87.5 0.3 94.35 0.3 96.15 2.95 98.0 5.7 96.9 10.4 M119.3 26.1 L123.1 9.75 115.05 26.1 119.3 26.1 M59.4 3.1 Q61.65 6.0 60.6 10.3 59.85 13.5 57.3 17.25 55.0 20.7 44.05 32.85 L54.45 32.85 52.95 39.4 31.9 39.4 33.2 33.95 Q46.4 18.25 48.75 14.95 51.4 11.35 51.9 9.25 52.2 7.7 51.9 6.95 51.55 6.2 50.45 6.2 49.35 6.2 48.65 7.0 47.95 7.8 47.3 10.45 L46.4 14.1 37.8 14.1 38.15 12.7 Q38.85 9.65 39.65 7.6 40.45 5.7 42.2 3.95 43.9 2.15 46.2 1.2 48.55 0.3 51.4 0.3 57.1 0.3 59.4 3.1 M13.05 1.05 L18.65 1.05 9.7 39.4 0.15 39.4 6.0 13.5 Q6.0 12.6 5.15 12.15 L0.95 11.7 0.05 11.7 1.05 7.2 Q8.35 5.7 13.05 1.05" fill="none" stroke="#ffffff" stroke-linecap="round" stroke-linejoin="round" stroke-width="10.0"/>
      <path d="M18.6 0.75 L9.65 39.1 0.1 39.1 5.9 13.2 Q5.95 12.3 5.1 11.85 L0.9 11.4 0.0 11.4 1.0 6.9 Q8.3 5.4 13.0 0.75 L18.6 0.75" fill="url(#gradient22)" fill-rule="evenodd" stroke="none"/>
      <path d="M51.35 0.0 Q57.05 0.0 59.3 2.8 61.6 5.7 60.55 10.0 59.8 13.2 57.25 16.95 54.95 20.4 44.0 32.55 L54.4 32.55 52.9 39.1 31.85 39.1 33.15 33.65 Q46.35 17.95 48.7 14.65 51.35 11.05 51.8 8.95 52.15 7.4 51.8 6.65 51.45 5.9 50.35 5.9 49.3 5.9 48.55 6.7 47.85 7.5 47.2 10.15 L46.35 13.8 37.75 13.8 38.05 12.4 Q38.8 9.35 39.6 7.3 40.4 5.4 42.15 3.65 43.85 1.85 46.1 0.9 48.5 0.0 51.35 0.0" fill="url(#gradient23)" fill-rule="evenodd" stroke="none"/>
      <path d="M87.45 0.0 Q94.3 0.0 96.1 2.65 97.95 5.4 96.8 10.1 96.05 13.2 94.85 14.75 93.7 16.1 91.15 17.4 93.15 18.1 93.85 19.8 94.55 21.45 93.1 27.6 91.95 32.2 90.35 34.7 88.7 37.25 85.9 38.55 83.0 39.85 79.0 39.85 74.45 39.85 72.2 38.3 69.95 36.8 69.65 34.6 69.35 32.5 70.65 26.9 L71.35 23.9 80.95 23.9 79.5 30.15 Q78.95 32.6 79.1 33.3 79.15 33.95 80.25 33.95 81.3 33.95 81.85 33.15 82.45 32.2 83.3 28.65 L83.9 26.0 Q84.4 23.85 84.1 22.8 83.8 21.75 83.0 21.45 L79.3 21.1 80.6 15.5 84.9 15.2 Q85.75 15.0 86.35 14.1 L87.85 9.2 Q88.25 7.15 88.05 6.5 87.75 5.9 86.9 5.9 85.9 5.9 85.4 6.55 84.9 7.2 84.35 9.45 L83.6 12.65 73.95 12.65 74.7 9.35 Q76.0 3.9 79.0 1.95 81.9 0.0 87.45 0.0" fill="url(#gradient24)" fill-rule="evenodd" stroke="none"/>
      <path d="M130.0 32.35 L127.25 32.35 125.7 39.1 116.15 39.1 117.7 32.35 106.3 32.35 107.85 25.8 121.95 0.75 134.65 0.75 128.8 25.8 131.5 25.8 130.0 32.35 M123.05 9.45 L114.95 25.8 119.2 25.8 123.05 9.45" fill="url(#gradient25)" fill-rule="evenodd" stroke="none"/>
      <path d="M171.55 0.75 L170.1 6.9 158.15 6.9 156.6 13.45 Q159.45 10.85 162.95 10.85 166.9 10.85 168.5 13.05 170.0 15.25 168.5 21.55 L167.2 27.0 Q166.3 30.95 165.45 33.0 164.6 34.9 162.95 36.5 161.35 38.1 158.8 39.0 156.35 39.85 153.05 39.85 149.25 39.85 146.85 38.55 144.3 37.3 143.65 34.7 143.1 32.2 144.35 26.85 L144.85 24.8 154.4 24.8 153.85 27.15 Q152.95 31.0 152.85 32.45 152.75 33.95 154.35 33.95 155.05 33.95 155.55 33.55 L156.3 32.55 159.2 20.45 Q159.75 18.35 159.5 17.5 159.15 16.7 158.15 16.7 157.4 16.7 156.9 17.15 L156.1 17.95 155.5 20.15 146.0 20.15 150.95 0.75 171.55 0.75" fill="url(#gradient26)" fill-rule="evenodd" stroke="none"/>
      <path d="M199.25 0.0 Q203.25 0.0 205.55 1.3 207.85 2.6 208.4 4.95 208.95 7.25 208.15 10.9 L198.55 10.9 199.35 7.55 Q199.45 6.85 199.05 6.35 198.6 5.9 197.7 5.9 196.95 5.9 196.4 6.3 195.8 6.8 195.55 7.45 L193.4 16.45 Q194.5 14.95 196.1 14.15 197.7 13.4 199.8 13.4 202.45 13.4 204.15 14.8 205.8 16.2 205.85 18.2 205.95 20.25 205.2 23.6 L204.5 26.7 202.75 32.7 Q201.9 34.75 200.25 36.3 198.5 38.0 196.0 38.95 193.35 39.85 190.3 39.85 186.4 39.85 184.2 38.8 182.0 37.7 181.15 35.7 180.3 33.75 180.55 31.5 180.8 29.45 182.35 22.95 L183.55 17.65 Q185.1 10.9 185.9 8.5 186.6 6.25 188.6 4.15 190.5 2.05 193.25 1.05 196.0 0.0 199.25 0.0 M196.0 20.0 Q195.7 19.25 194.7 19.25 193.65 19.25 193.05 19.95 192.4 20.75 191.95 22.85 L190.3 29.85 Q189.65 32.4 189.95 33.2 190.15 33.95 191.25 33.95 191.85 33.95 192.7 33.4 193.45 32.75 194.1 30.1 L195.85 22.85 Q196.3 20.8 196.0 20.0" fill="url(#gradient27)" fill-rule="evenodd" stroke="none"/>
      <path d="M243.9 0.75 L242.0 9.15 228.9 39.1 219.35 39.1 233.45 7.65 224.05 7.65 225.65 0.75 243.9 0.75" fill="url(#gradient28)" fill-rule="evenodd" stroke="none"/>
      <path d="M273.35 0.0 Q279.65 0.0 281.45 2.65 283.25 5.3 282.1 10.15 281.4 13.25 280.3 14.65 279.15 16.0 276.4 17.4 278.3 18.25 279.05 19.9 279.8 21.6 278.3 27.95 277.2 32.7 275.85 34.85 274.35 37.05 271.45 38.45 268.55 39.85 264.15 39.85 259.85 39.85 257.7 38.5 255.5 37.15 255.0 34.95 254.4 32.7 255.65 27.5 256.4 24.1 257.6 21.45 258.65 18.95 261.85 17.4 260.3 16.5 259.85 14.65 259.4 12.8 260.1 9.9 261.25 4.95 264.55 2.45 267.9 0.0 273.35 0.0 M272.05 5.9 Q271.1 5.9 270.6 6.55 270.15 7.2 269.7 9.05 L269.0 12.0 Q268.6 13.8 268.85 14.4 269.0 15.05 269.95 15.05 270.9 15.05 271.4 14.45 271.95 13.7 272.35 11.7 L273.0 9.05 Q273.4 7.1 273.2 6.5 273.05 5.9 272.05 5.9 M266.85 22.15 Q266.25 22.85 265.7 25.1 L264.55 30.05 Q263.95 32.5 264.3 33.3 264.55 33.95 265.65 33.95 266.6 33.95 267.2 33.25 267.65 32.6 268.25 30.0 L269.4 25.1 Q269.9 22.9 269.7 22.15 269.4 21.45 268.4 21.45 267.45 21.45 266.85 22.15" fill="url(#gradient29)" fill-rule="evenodd" stroke="none"/>
      <path d="M310.05 0.0 Q313.9 0.0 316.15 1.05 318.3 2.15 319.2 4.15 320.1 6.2 319.8 8.35 L314.45 31.35 Q313.7 33.6 311.75 35.7 309.8 37.8 307.1 38.8 304.4 39.85 301.1 39.85 297.05 39.85 294.8 38.55 292.45 37.2 291.95 34.9 291.3 32.5 292.15 28.95 L301.75 28.95 301.0 32.3 Q300.9 33.05 301.35 33.5 301.7 33.95 302.65 33.95 303.4 33.95 303.9 33.55 L304.75 32.4 306.95 23.4 Q305.9 24.9 304.25 25.7 302.65 26.45 300.5 26.45 297.9 26.45 296.2 25.05 294.5 23.6 294.45 21.65 294.3 19.8 295.15 16.25 L295.85 13.2 Q296.75 9.25 297.6 7.15 298.35 5.2 300.1 3.55 301.8 1.85 304.35 0.9 307.0 0.0 310.05 0.0 M310.4 6.65 Q310.1 5.9 309.1 5.9 308.45 5.9 307.65 6.45 306.85 7.1 306.2 9.75 L304.5 17.05 Q303.95 19.45 304.45 20.05 304.9 20.6 305.65 20.6 306.65 20.6 307.3 19.9 307.95 19.05 308.4 17.05 L310.05 10.0 Q310.65 7.5 310.4 6.65" fill="url(#gradient30)" fill-rule="evenodd" stroke="none"/>
      <path d="M352.65 1.1 Q354.85 2.25 355.75 3.8 356.6 5.35 356.55 7.4 356.45 9.4 355.55 13.7 L352.5 26.55 Q351.5 30.85 350.55 32.9 349.65 34.8 347.7 36.6 345.85 38.35 343.55 39.1 L338.65 39.85 Q335.2 39.85 333.1 39.05 331.0 38.3 330.05 36.6 329.1 34.95 328.95 33.05 328.8 31.15 329.8 27.15 L332.95 13.7 Q334.15 8.4 335.65 5.8 337.2 3.2 340.25 1.6 343.35 0.0 347.25 0.0 350.35 0.0 352.65 1.1 M346.05 5.9 Q344.95 5.9 344.4 6.7 343.85 7.55 343.2 10.45 L338.85 29.25 Q338.05 32.6 338.25 33.3 338.35 33.95 339.5 33.95 340.55 33.95 341.1 33.2 L342.25 29.55 347.3 6.65 Q347.15 5.9 346.05 5.9" fill="url(#gradient31)" fill-rule="evenodd" stroke="none"/>
    </g>
    <linearGradient gradientTransform="matrix(-0.0032, -0.0243, 0.0191, 0.0, 78.65, 19.9)" gradientUnits="userSpaceOnUse" id="gradient22" spreadMethod="pad" x1="-819.2" x2="819.2">
      <stop offset="0.1843137254901961" stop-color="#ff7700"/>
      <stop offset="0.7843137254901961" stop-color="#cc2232"/>
    </linearGradient>
    <linearGradient gradientTransform="matrix(-0.0032, -0.0243, 0.0191, 0.0, 82.05, 19.9)" gradientUnits="userSpaceOnUse" id="gradient23" spreadMethod="pad" x1="-819.2" x2="819.2">
      <stop offset="0.1843137254901961" stop-color="#ff7700"/>
      <stop offset="0.7843137254901961" stop-color="#cc2232"/>
    </linearGradient>
    <linearGradient gradientTransform="matrix(-0.0032, -0.0243, 0.0191, 0.0, 83.4, 19.9)" gradientUnits="userSpaceOnUse" id="gradient24" spreadMethod="pad" x1="-819.2" x2="819.2">
      <stop offset="0.1843137254901961" stop-color="#ff7700"/>
      <stop offset="0.7843137254901961" stop-color="#cc2232"/>
    </linearGradient>
    <linearGradient gradientTransform="matrix(-0.0032, -0.0243, 0.0191, 0.0, 87.95, 19.9)" gradientUnits="userSpaceOnUse" id="gradient25" spreadMethod="pad" x1="-819.2" x2="819.2">
      <stop offset="0.1843137254901961" stop-color="#ff7700"/>
      <stop offset="0.7843137254901961" stop-color="#cc2232"/>
    </linearGradient>
    <linearGradient gradientTransform="matrix(-0.0032, -0.0243, 0.0191, 0.0, 91.95, 19.9)" gradientUnits="userSpaceOnUse" id="gradient26" spreadMethod="pad" x1="-819.2" x2="819.2">
      <stop offset="0.1843137254901961" stop-color="#ff7700"/>
      <stop offset="0.7843137254901961" stop-color="#cc2232"/>
    </linearGradient>
    <linearGradient gradientTransform="matrix(-0.0032, -0.0243, 0.0191, 0.0, 92.75, 19.9)" gradientUnits="userSpaceOnUse" id="gradient27" spreadMethod="pad" x1="-819.2" x2="819.2">
      <stop offset="0.1843137254901961" stop-color="#ff7700"/>
      <stop offset="0.7843137254901961" stop-color="#cc2232"/>
    </linearGradient>
    <linearGradient gradientTransform="matrix(-0.0032, -0.0243, 0.0191, 0.0, 93.45, 19.9)" gradientUnits="userSpaceOnUse" id="gradient28" spreadMethod="pad" x1="-819.2" x2="819.2">
      <stop offset="0.1843137254901961" stop-color="#ff7700"/>
      <stop offset="0.7843137254901961" stop-color="#cc2232"/>
    </linearGradient>
    <linearGradient gradientTransform="matrix(-0.0032, -0.0243, 0.0191, 0.0, 95.7, 19.9)" gradientUnits="userSpaceOnUse" id="gradient29" spreadMethod="pad" x1="-819.2" x2="819.2">
      <stop offset="0.1843137254901961" stop-color="#ff7700"/>
      <stop offset="0.7843137254901961" stop-color="#cc2232"/>
    </linearGradient>
    <linearGradient gradientTransform="matrix(-0.0032, -0.0243, 0.0191, 0.0, 90.65, 19.9)" gradientUnits="userSpaceOnUse" id="gradient30" spreadMethod="pad" x1="-819.2" x2="819.2">
      <stop offset="0.1843137254901961" stop-color="#ff7700"/>
      <stop offset="0.7843137254901961" stop-color="#cc2232"/>
    </linearGradient>
    <linearGradient gradientTransform="matrix(-0.0032, -0.0243, 0.0191, 0.0, 89.15, 19.9)" gradientUnits="userSpaceOnUse" id="gradient31" spreadMethod="pad" x1="-819.2" x2="819.2">
      <stop offset="0.1843137254901961" stop-color="#ff7700"/>
      <stop offset="0.7843137254901961" stop-color="#cc2232"/>
    </linearGradient>
  </defs>
</svg>
